<?xml version="1.0" encoding="UTF-8" standalone="no"?>
<!DOCTYPE svg PUBLIC "-//W3C//DTD SVG 1.1//EN"
 "http://www.w3.org/Graphics/SVG/1.1/DTD/svg11.dtd">
<!-- Generated by graphviz version 2.40.1 (20161225.0304)
 -->
<!-- Title: Finite_Element_Problem Pages: 1 -->
<!--zoomable 326 -->
<svg id="main" version="1.1" xmlns="http://www.w3.org/2000/svg" xmlns:xlink="http://www.w3.org/1999/xlink" xml:space="preserve" onload="init(evt)">
<style type="text/css"><![CDATA[
.edge:hover path { stroke: red; }
.edge:hover polygon { stroke: red; fill: red; }
]]></style>
<script type="text/javascript"><![CDATA[
var edges = document.getElementsByTagName('g');
if (edges && edges.length) {
  for (var i=0;i<edges.length;i++) {
    if (edges[i].id.substr(0,4)=='edge') {
      edges[i].setAttribute('class','edge');
    }
  }
}
]]></script>
        <defs>
                <circle id="rim" cx="0" cy="0" r="7"/>
                <circle id="rim2" cx="0" cy="0" r="3.5"/>
                <g id="zoomPlus">
                        <use xlink:href="#rim" fill="#404040">
                                <set attributeName="fill" to="#808080" begin="zoomplus.mouseover" end="zoomplus.mouseout"/>
                        </use>
                        <path d="M-4,0h8M0,-4v8" fill="none" stroke="white" stroke-width="1.5" pointer-events="none"/>
                </g>
                <g id="zoomMin">
                        <use xlink:href="#rim" fill="#404040">
                                <set attributeName="fill" to="#808080" begin="zoomminus.mouseover" end="zoomminus.mouseout"/>
                        </use>
                        <path d="M-4,0h8" fill="none" stroke="white" stroke-width="1.5" pointer-events="none"/>
                </g>
                <g id="dirArrow">
                        <path fill="none" stroke="white" stroke-width="1.5" d="M0,-3.0v7 M-2.5,-0.5L0,-3.0L2.5,-0.5"/>
                </g>
               <g id="resetDef">
                       <use xlink:href="#rim2" fill="#404040">
                               <set attributeName="fill" to="#808080" begin="reset.mouseover" end="reset.mouseout"/>
                       </use>
               </g>
        </defs>

<script type="text/javascript">
var viewWidth = 577;
var viewHeight = 326;
var sectionId = 'dynsection-0';
</script>
<script xlink:href="../../svgpan.js"/>
<svg id="graph" class="graph">
<g id="viewport">
<title>Finite_Element_Problem</title>
<polygon fill="#ffffff" stroke="transparent" points="-4,4 -4,-322 573.3975,-322 573.3975,4 -4,4"/>
<!-- Node0 -->
<g id="node1" class="node">
<title>Node0</title>
<polygon fill="#bfbfbf" stroke="#000000" points="120.9063,-157.5 120.9063,-175.5 246.4033,-175.5 246.4033,-157.5 120.9063,-157.5"/>
<text text-anchor="middle" x="183.6548" y="-163.5" font-family="Helvetica,sans-Serif" font-size="10.00" fill="#000000">Finite_Element_Problem</text>
</g>
<!-- Node2 -->
<g id="node3" class="node">
<title>Node2</title>
<g id="a_node3"><a xlink:href="../../dc/d5a/classhyperelasticity.html" target="_top" xlink:title="hyperelasticity">
<polygon fill="#ffffff" stroke="#000000" points="297.4155,-176.5 297.4155,-194.5 376.7749,-194.5 376.7749,-176.5 297.4155,-176.5"/>
<text text-anchor="middle" x="337.0952" y="-182.5" font-family="Helvetica,sans-Serif" font-size="10.00" fill="#000000">hyperelasticity</text>
</a>
</g>
</g>
<!-- Node0&#45;&gt;Node2 -->
<g id="edge2" class="edge">
<title>Node0&#45;&gt;Node2</title>
<path fill="none" stroke="#191970" d="M256.5793,-175.53C270.4876,-177.2522 284.5626,-178.9951 296.97,-180.5314"/>
<polygon fill="#191970" stroke="#191970" points="256.862,-172.0383 246.5076,-174.2828 256.0017,-178.9853 256.862,-172.0383"/>
</g>
<!-- Node3 -->
<g id="node4" class="node">
<title>Node3</title>
<g id="a_node4"><a xlink:href="../../d8/daf/classhyperelasticity__setup.html" target="_top" xlink:title="hyperelasticity_setup">
<polygon fill="#ffffff" stroke="#000000" points="282.4033,-139.5 282.4033,-157.5 391.7871,-157.5 391.7871,-139.5 282.4033,-139.5"/>
<text text-anchor="middle" x="337.0952" y="-145.5" font-family="Helvetica,sans-Serif" font-size="10.00" fill="#000000">hyperelasticity_setup</text>
</a>
</g>
</g>
<!-- Node0&#45;&gt;Node3 -->
<g id="edge3" class="edge">
<title>Node0&#45;&gt;Node3</title>
<path fill="none" stroke="#191970" d="M256.5046,-157.954C265.0676,-156.9495 273.695,-155.9374 281.9588,-154.968"/>
<polygon fill="#191970" stroke="#191970" points="256.0317,-154.4854 246.5076,-159.1268 256.8473,-161.4377 256.0317,-154.4854"/>
</g>
<!-- Node1 -->
<g id="node2" class="node">
<title>Node1</title>
<g id="a_node2"><a xlink:href="../../d2/d97/class_base_class_f_e_m.html" target="_top" xlink:title="BaseClassFEM">
<polygon fill="#ffffff" stroke="#000000" points="0,-157.5 0,-175.5 84.9063,-175.5 84.9063,-157.5 0,-157.5"/>
<text text-anchor="middle" x="42.4531" y="-163.5" font-family="Helvetica,sans-Serif" font-size="10.00" fill="#000000">BaseClassFEM</text>
</a>
</g>
</g>
<!-- Node1&#45;&gt;Node0 -->
<g id="edge1" class="edge">
<title>Node1&#45;&gt;Node0</title>
<path fill="none" stroke="#191970" d="M95.4354,-166.5C103.6889,-166.5 112.2856,-166.5 120.7338,-166.5"/>
<polygon fill="#191970" stroke="#191970" points="95.2015,-163.0001 85.2015,-166.5 95.2014,-170.0001 95.2015,-163.0001"/>
</g>
<!-- Node4 -->
<g id="node5" class="node">
<title>Node4</title>
<g id="a_node5"><a xlink:href="../../da/d5f/class_dirichlet_inlet_outlet___polyconvex_h_g_o.html" target="_top" xlink:title="DirichletInletOutlet\l_PolyconvexHGO">
<polygon fill="#ffffff" stroke="#000000" points="449.7427,-289.5 449.7427,-317.5 547.4419,-317.5 547.4419,-289.5 449.7427,-289.5"/>
<text text-anchor="start" x="457.7427" y="-305.5" font-family="Helvetica,sans-Serif" font-size="10.00" fill="#000000">DirichletInletOutlet</text>
<text text-anchor="middle" x="498.5923" y="-295.5" font-family="Helvetica,sans-Serif" font-size="10.00" fill="#000000">_PolyconvexHGO</text>
</a>
</g>
</g>
<!-- Node3&#45;&gt;Node4 -->
<g id="edge4" class="edge">
<title>Node3&#45;&gt;Node4</title>
<path fill="none" stroke="#191970" d="M386.3946,-162.8515C388.3223,-164.2587 390.1342,-165.8037 391.7871,-167.5 428.5717,-205.2514 390.6217,-243.1235 427.7871,-280.5 433.8019,-286.549 441.4215,-291.0077 449.4188,-294.2941"/>
<polygon fill="#191970" stroke="#191970" points="387.7294,-159.576 377.3354,-157.5225 384.1802,-165.6096 387.7294,-159.576"/>
</g>
<!-- Node5 -->
<g id="node6" class="node">
<title>Node5</title>
<g id="a_node6"><a xlink:href="../../d0/de4/class_dirichlet_strip_elongation___stochastic_polyconvex_h_g_o.html" target="_top" xlink:title="DirichletStripElongation\l_StochasticPolyconvexHGO">
<polygon fill="#ffffff" stroke="#000000" points="427.7871,-242.5 427.7871,-270.5 569.3975,-270.5 569.3975,-242.5 427.7871,-242.5"/>
<text text-anchor="start" x="435.7871" y="-258.5" font-family="Helvetica,sans-Serif" font-size="10.00" fill="#000000">DirichletStripElongation</text>
<text text-anchor="middle" x="498.5923" y="-248.5" font-family="Helvetica,sans-Serif" font-size="10.00" fill="#000000">_StochasticPolyconvexHGO</text>
</a>
</g>
</g>
<!-- Node3&#45;&gt;Node5 -->
<g id="edge5" class="edge">
<title>Node3&#45;&gt;Node5</title>
<path fill="none" stroke="#191970" d="M384.0658,-162.0636C386.806,-163.6806 389.4097,-165.4857 391.7871,-167.5 417.2804,-189.0995 402.0762,-212.16 427.7871,-233.5 431.9642,-236.967 436.6765,-239.9154 441.636,-242.4222"/>
<polygon fill="#191970" stroke="#191970" points="385.4687,-158.852 374.9588,-157.5136 382.3402,-165.114 385.4687,-158.852"/>
</g>
<!-- Node6 -->
<g id="node7" class="node">
<title>Node6</title>
<g id="a_node7"><a xlink:href="../../d1/dbe/classmanufactured_solution.html" target="_top" xlink:title="manufacturedSolution">
<polygon fill="#ffffff" stroke="#000000" points="441.9497,-205.5 441.9497,-223.5 555.2349,-223.5 555.2349,-205.5 441.9497,-205.5"/>
<text text-anchor="middle" x="498.5923" y="-211.5" font-family="Helvetica,sans-Serif" font-size="10.00" fill="#000000">manufacturedSolution</text>
</a>
</g>
</g>
<!-- Node3&#45;&gt;Node6 -->
<g id="edge6" class="edge">
<title>Node3&#45;&gt;Node6</title>
<path fill="none" stroke="#191970" d="M378.5274,-161.1732C383.1023,-163.0747 387.6114,-165.1848 391.7871,-167.5 409.7558,-177.4624 409.4095,-187.3138 427.7871,-196.5 435.048,-200.1294 443.1038,-203.0691 451.1032,-205.4371"/>
<polygon fill="#191970" stroke="#191970" points="379.72,-157.882 369.1299,-157.5643 377.2104,-164.4167 379.72,-157.882"/>
</g>
<!-- Node7 -->
<g id="node8" class="node">
<title>Node7</title>
<g id="a_node8"><a xlink:href="../../de/d4c/class_neumann_inner_surface___polyconvex_h_g_o.html" target="_top" xlink:title="NeumannInnerSurface\l_PolyconvexHGO">
<polygon fill="#ffffff" stroke="#000000" points="440.2847,-158.5 440.2847,-186.5 556.8999,-186.5 556.8999,-158.5 440.2847,-158.5"/>
<text text-anchor="start" x="448.2847" y="-174.5" font-family="Helvetica,sans-Serif" font-size="10.00" fill="#000000">NeumannInnerSurface</text>
<text text-anchor="middle" x="498.5923" y="-164.5" font-family="Helvetica,sans-Serif" font-size="10.00" fill="#000000">_PolyconvexHGO</text>
</a>
</g>
</g>
<!-- Node3&#45;&gt;Node7 -->
<g id="edge7" class="edge">
<title>Node3&#45;&gt;Node7</title>
<path fill="none" stroke="#191970" d="M402.1556,-158.1686C414.7136,-160.0348 427.7982,-161.9793 440.1303,-163.812"/>
<polygon fill="#191970" stroke="#191970" points="402.6275,-154.7004 392.2217,-156.6923 401.5985,-161.6243 402.6275,-154.7004"/>
</g>
<!-- Node8 -->
<g id="node9" class="node">
<title>Node8</title>
<g id="a_node9"><a xlink:href="../../dd/d43/class_neumann_inner_surface___stochastic_polyconvex_h_g_o.html" target="_top" xlink:title="NeumannInnerSurface\l_StochasticPolyconvexHGO">
<polygon fill="#ffffff" stroke="#000000" points="427.7871,-111.5 427.7871,-139.5 569.3975,-139.5 569.3975,-111.5 427.7871,-111.5"/>
<text text-anchor="start" x="435.7871" y="-127.5" font-family="Helvetica,sans-Serif" font-size="10.00" fill="#000000">NeumannInnerSurface</text>
<text text-anchor="middle" x="498.5923" y="-117.5" font-family="Helvetica,sans-Serif" font-size="10.00" fill="#000000">_StochasticPolyconvexHGO</text>
</a>
</g>
</g>
<!-- Node3&#45;&gt;Node8 -->
<g id="edge8" class="edge">
<title>Node3&#45;&gt;Node8</title>
<path fill="none" stroke="#191970" d="M402.2925,-139.2148C410.6638,-138.0225 419.267,-136.7973 427.7234,-135.593"/>
<polygon fill="#191970" stroke="#191970" points="401.6282,-135.774 392.2217,-140.649 402.6153,-142.704 401.6282,-135.774"/>
</g>
<!-- Node9 -->
<g id="node10" class="node">
<title>Node9</title>
<g id="a_node10"><a xlink:href="../../dd/d20/classrubberblock.html" target="_top" xlink:title="rubberblock">
<polygon fill="#ffffff" stroke="#000000" points="464.4668,-74.5 464.4668,-92.5 532.7178,-92.5 532.7178,-74.5 464.4668,-74.5"/>
<text text-anchor="middle" x="498.5923" y="-80.5" font-family="Helvetica,sans-Serif" font-size="10.00" fill="#000000">rubberblock</text>
</a>
</g>
</g>
<!-- Node3&#45;&gt;Node9 -->
<g id="edge9" class="edge">
<title>Node3&#45;&gt;Node9</title>
<path fill="none" stroke="#191970" d="M361.1239,-134.113C379.0104,-123.8884 404.2922,-110.4386 427.7871,-101.5 439.4046,-97.0801 452.5037,-93.4064 464.2474,-90.5553"/>
<polygon fill="#191970" stroke="#191970" points="358.893,-131.3614 352.0061,-139.4125 362.4106,-137.4134 358.893,-131.3614"/>
</g>
<!-- Node10 -->
<g id="node11" class="node">
<title>Node10</title>
<g id="a_node11"><a xlink:href="../../de/dd1/class_t_i_mooney.html" target="_top" xlink:title="TIMooney">
<polygon fill="#ffffff" stroke="#000000" points="468.3608,-37.5 468.3608,-55.5 528.8237,-55.5 528.8237,-37.5 468.3608,-37.5"/>
<text text-anchor="middle" x="498.5923" y="-43.5" font-family="Helvetica,sans-Serif" font-size="10.00" fill="#000000">TIMooney</text>
</a>
</g>
</g>
<!-- Node3&#45;&gt;Node10 -->
<g id="edge10" class="edge">
<title>Node3&#45;&gt;Node10</title>
<path fill="none" stroke="#191970" d="M350.8334,-131.4354C367.1725,-112.2849 396.2313,-81.6583 427.7871,-64.5 440.1557,-57.7747 455.11,-53.4974 468.0824,-50.8096"/>
<polygon fill="#191970" stroke="#191970" points="347.9642,-129.4116 344.258,-139.3371 353.3449,-133.8891 347.9642,-129.4116"/>
</g>
<!-- Node11 -->
<g id="node12" class="node">
<title>Node11</title>
<g id="a_node12"><a xlink:href="../../d1/dd7/class_t_i_mooney___random_field.html" target="_top" xlink:title="TIMooney_RandomField">
<polygon fill="#ffffff" stroke="#000000" points="435.8438,-.5 435.8438,-18.5 561.3408,-18.5 561.3408,-.5 435.8438,-.5"/>
<text text-anchor="middle" x="498.5923" y="-6.5" font-family="Helvetica,sans-Serif" font-size="10.00" fill="#000000">TIMooney_RandomField</text>
</a>
</g>
</g>
<!-- Node3&#45;&gt;Node11 -->
<g id="edge11" class="edge">
<title>Node3&#45;&gt;Node11</title>
<path fill="none" stroke="#191970" d="M345.7327,-130.1698C359.324,-103.3775 388.2814,-53.8526 427.7871,-27.5 433.2739,-23.84 439.453,-20.9242 445.8169,-18.6013"/>
<polygon fill="#191970" stroke="#191970" points="342.5502,-128.7103 341.2861,-139.2295 348.8342,-131.7946 342.5502,-128.7103"/>
</g>
</g>
</svg>
        <g id="navigator" transform="translate(0 0)" fill="#404254">
                <rect fill="#f2f5e9" fill-opacity="0.5" stroke="#606060" stroke-width=".5" x="0" y="0" width="60" height="60"/>
                <use id="zoomplus" xlink:href="#zoomPlus" x="17" y="9" onmousedown="handleZoom(evt,'in')"/>
                <use id="zoomminus" xlink:href="#zoomMin" x="42" y="9" onmousedown="handleZoom(evt,'out')"/>
                <use id="reset" xlink:href="#resetDef" x="30" y="36" onmousedown="handleReset()"/>
                <g id="arrowUp" xlink:href="#dirArrow" transform="translate(30 24)" onmousedown="handlePan(0,-1)">
                  <use xlink:href="#rim" fill="#404040">
                        <set attributeName="fill" to="#808080" begin="arrowUp.mouseover" end="arrowUp.mouseout"/>
                  </use>
                  <path fill="none" stroke="white" stroke-width="1.5" d="M0,-3.0v7 M-2.5,-0.5L0,-3.0L2.5,-0.5"/>
                </g>
                <g id="arrowRight" xlink:href="#dirArrow" transform="rotate(90) translate(36 -43)" onmousedown="handlePan(1,0)">
                  <use xlink:href="#rim" fill="#404040">
                        <set attributeName="fill" to="#808080" begin="arrowRight.mouseover" end="arrowRight.mouseout"/>
                  </use>
                  <path fill="none" stroke="white" stroke-width="1.5" d="M0,-3.0v7 M-2.5,-0.5L0,-3.0L2.5,-0.5"/>
                </g>
                <g id="arrowDown" xlink:href="#dirArrow" transform="rotate(180) translate(-30 -48)" onmousedown="handlePan(0,1)">
                  <use xlink:href="#rim" fill="#404040">
                        <set attributeName="fill" to="#808080" begin="arrowDown.mouseover" end="arrowDown.mouseout"/>
                  </use>
                  <path fill="none" stroke="white" stroke-width="1.5" d="M0,-3.0v7 M-2.5,-0.5L0,-3.0L2.5,-0.5"/>
                </g>
                <g id="arrowLeft" xlink:href="#dirArrow" transform="rotate(270) translate(-36 17)" onmousedown="handlePan(-1,0)">
                  <use xlink:href="#rim" fill="#404040">
                        <set attributeName="fill" to="#808080" begin="arrowLeft.mouseover" end="arrowLeft.mouseout"/>
                  </use>
                  <path fill="none" stroke="white" stroke-width="1.5" d="M0,-3.0v7 M-2.5,-0.5L0,-3.0L2.5,-0.5"/>
                </g>
        </g>
        <svg viewBox="0 0 15 15" width="100%" height="30px" preserveAspectRatio="xMaxYMin meet">
         <g id="arrow_out" transform="scale(0.3 0.3)">
          <a xlink:href="class_finite___element___problem__inherit__graph_org.svg" target="_base">
           <rect id="button" ry="5" rx="5" y="6" x="6" height="38" width="38"
                fill="#f2f5e9" fill-opacity="0.5" stroke="#606060" stroke-width="1.0"/>
           <path id="arrow"
             d="M 11.500037,31.436501 C 11.940474,20.09759 22.043105,11.32322 32.158766,21.979434 L 37.068811,17.246167 C 37.068811,17.246167 37.088388,32 37.088388,32 L 22.160133,31.978069 C 22.160133,31.978069 26.997745,27.140456 26.997745,27.140456 C 18.528582,18.264221 13.291696,25.230495 11.500037,31.436501 z"
             style="fill:#404040;"/>
          </a>
         </g>
        </svg>
</svg>
