<?xml version="1.0" encoding="UTF-8" standalone="no"?>
<!DOCTYPE svg PUBLIC "-//W3C//DTD SVG 1.1//EN"
 "http://www.w3.org/Graphics/SVG/1.1/DTD/svg11.dtd">
<!-- Generated by graphviz version 2.40.1 (20161225.0304)
 -->
<!-- Title: Finite_Element_Problem Pages: 1 -->
<svg width="339pt" height="137pt"
 viewBox="0.00 0.00 339.50 137.00" xmlns="http://www.w3.org/2000/svg" xmlns:xlink="http://www.w3.org/1999/xlink">
<g id="graph0" class="graph" transform="scale(1 1) rotate(0) translate(4 133)">
<title>Finite_Element_Problem</title>
<polygon fill="#ffffff" stroke="transparent" points="-4,4 -4,-133 335.4971,-133 335.4971,4 -4,4"/>
<!-- Node0 -->
<g id="node1" class="node">
<title>Node0</title>
<polygon fill="#bfbfbf" stroke="#000000" points="0,-110.5 0,-128.5 125.4971,-128.5 125.4971,-110.5 0,-110.5"/>
<text text-anchor="middle" x="62.7485" y="-116.5" font-family="Helvetica,sans-Serif" font-size="10.00" fill="#000000">Finite_Element_Problem</text>
</g>
<!-- Node1 -->
<g id="node2" class="node">
<title>Node1</title>
<g id="a_node2"><a xlink:href="../../d8/daf/classhyperelasticity__setup.html" target="_top" xlink:title="hyperelasticity_setup">
<polygon fill="#ffffff" stroke="#000000" points="8.0566,-55.5 8.0566,-73.5 117.4404,-73.5 117.4404,-55.5 8.0566,-55.5"/>
<text text-anchor="middle" x="62.7485" y="-61.5" font-family="Helvetica,sans-Serif" font-size="10.00" fill="#000000">hyperelasticity_setup</text>
</a>
</g>
</g>
<!-- Node0&#45;&gt;Node1 -->
<g id="edge1" class="edge">
<title>Node0&#45;&gt;Node1</title>
<path fill="none" stroke="#191970" d="M62.7485,-100.383C62.7485,-91.3738 62.7485,-81.0373 62.7485,-73.7795"/>
<polygon fill="#191970" stroke="#191970" points="59.2486,-100.4178 62.7485,-110.4179 66.2486,-100.4179 59.2486,-100.4178"/>
</g>
<!-- Node2 -->
<g id="node3" class="node">
<title>Node2</title>
<g id="a_node3"><a xlink:href="../../d6/daf/class_interface__arteries.html" target="_top" xlink:title="Interface_arteries">
<polygon fill="#ffffff" stroke="#000000" points="15.8398,-.5 15.8398,-18.5 109.6572,-18.5 109.6572,-.5 15.8398,-.5"/>
<text text-anchor="middle" x="62.7485" y="-6.5" font-family="Helvetica,sans-Serif" font-size="10.00" fill="#000000">Interface_arteries</text>
</a>
</g>
</g>
<!-- Node1&#45;&gt;Node2 -->
<g id="edge2" class="edge">
<title>Node1&#45;&gt;Node2</title>
<path fill="none" stroke="#191970" d="M43.4892,-45.9751C41.401,-36.8297 42.614,-26.1969 47.1282,-18.7795"/>
<polygon fill="#191970" stroke="#191970" points="40.2982,-47.4223 47.2496,-55.4179 46.8015,-44.8325 40.2982,-47.4223"/>
</g>
<!-- Node1&#45;&gt;Node2 -->
<g id="edge3" class="edge">
<title>Node1&#45;&gt;Node2</title>
<path fill="none" stroke="#191970" d="M56.2854,-45.383C55.6506,-36.3738 56.0694,-26.0373 57.5418,-18.7795"/>
<polygon fill="#191970" stroke="#191970" points="52.8293,-45.949 57.5822,-55.4179 59.7716,-45.0517 52.8293,-45.949"/>
</g>
<!-- Node1&#45;&gt;Node2 -->
<g id="edge4" class="edge">
<title>Node1&#45;&gt;Node2</title>
<path fill="none" stroke="#191970" d="M69.2117,-45.383C69.8465,-36.3738 69.4277,-26.0373 67.9553,-18.7795"/>
<polygon fill="#191970" stroke="#191970" points="65.7255,-45.0517 67.9149,-55.4179 72.6677,-45.949 65.7255,-45.0517"/>
</g>
<!-- Node1&#45;&gt;Node2 -->
<g id="edge5" class="edge">
<title>Node1&#45;&gt;Node2</title>
<path fill="none" stroke="#191970" d="M82.0079,-45.9751C84.0961,-36.8297 82.8831,-26.1969 78.3688,-18.7795"/>
<polygon fill="#191970" stroke="#191970" points="78.6956,-44.8325 78.2475,-55.4179 85.1989,-47.4223 78.6956,-44.8325"/>
</g>
<!-- Node3 -->
<g id="node4" class="node">
<title>Node3</title>
<g id="a_node4"><a xlink:href="../../de/dd1/class_t_i_mooney.html" target="_top" xlink:title="TIMooney">
<polygon fill="#ffffff" stroke="#000000" points="127.5171,-.5 127.5171,-18.5 187.98,-18.5 187.98,-.5 127.5171,-.5"/>
<text text-anchor="middle" x="157.7485" y="-6.5" font-family="Helvetica,sans-Serif" font-size="10.00" fill="#000000">TIMooney</text>
</a>
</g>
</g>
<!-- Node1&#45;&gt;Node3 -->
<g id="edge6" class="edge">
<title>Node1&#45;&gt;Node3</title>
<path fill="none" stroke="#191970" d="M87.3946,-50.2313C104.6461,-40.2435 127.1782,-27.1986 142.0379,-18.5956"/>
<polygon fill="#191970" stroke="#191970" points="85.3365,-47.3785 78.4359,-55.4179 88.8438,-53.4365 85.3365,-47.3785"/>
</g>
<!-- Node4 -->
<g id="node5" class="node">
<title>Node4</title>
<g id="a_node5"><a xlink:href="../../d1/dd7/class_t_i_mooney___random_field.html" target="_top" xlink:title="TIMooney_RandomField">
<polygon fill="#ffffff" stroke="#000000" points="206,-.5 206,-18.5 331.4971,-18.5 331.4971,-.5 206,-.5"/>
<text text-anchor="middle" x="268.7485" y="-6.5" font-family="Helvetica,sans-Serif" font-size="10.00" fill="#000000">TIMooney_RandomField</text>
</a>
</g>
</g>
<!-- Node1&#45;&gt;Node4 -->
<g id="edge7" class="edge">
<title>Node1&#45;&gt;Node4</title>
<path fill="none" stroke="#191970" d="M106.6354,-52.7826C145.0301,-42.5316 199.9915,-27.8575 235.0237,-18.5042"/>
<polygon fill="#191970" stroke="#191970" points="105.524,-49.4567 96.7652,-55.4179 107.3297,-56.2198 105.524,-49.4567"/>
</g>
</g>
</svg>
