<?xml version="1.0" encoding="UTF-8" standalone="no"?>
<!DOCTYPE svg PUBLIC "-//W3C//DTD SVG 1.1//EN"
 "http://www.w3.org/Graphics/SVG/1.1/DTD/svg11.dtd">
<!-- Generated by graphviz version 2.40.1 (20161225.0304)
 -->
<!-- Title: Finite_Element_Problem Pages: 1 -->
<svg width="773pt" height="307pt"
 viewBox="0.00 0.00 772.79 307.00" xmlns="http://www.w3.org/2000/svg" xmlns:xlink="http://www.w3.org/1999/xlink">
<g id="graph0" class="graph" transform="scale(1 1) rotate(0) translate(4 303)">
<title>Finite_Element_Problem</title>
<polygon fill="#ffffff" stroke="transparent" points="-4,4 -4,-303 768.791,-303 768.791,4 -4,4"/>
<!-- Node0 -->
<g id="node1" class="node">
<title>Node0</title>
<polygon fill="#bfbfbf" stroke="#000000" points="120.9063,-143.5 120.9063,-161.5 246.4033,-161.5 246.4033,-143.5 120.9063,-143.5"/>
<text text-anchor="middle" x="183.6548" y="-149.5" font-family="Helvetica,sans-Serif" font-size="10.00" fill="#000000">Finite_Element_Problem</text>
</g>
<!-- Node2 -->
<g id="node3" class="node">
<title>Node2</title>
<g id="a_node3"><a xlink:href="../../dc/d5a/classhyperelasticity.html" target="_top" xlink:title="hyperelasticity">
<polygon fill="#ffffff" stroke="#000000" points="297.4155,-188.5 297.4155,-206.5 376.7749,-206.5 376.7749,-188.5 297.4155,-188.5"/>
<text text-anchor="middle" x="337.0952" y="-194.5" font-family="Helvetica,sans-Serif" font-size="10.00" fill="#000000">hyperelasticity</text>
</a>
</g>
</g>
<!-- Node0&#45;&gt;Node2 -->
<g id="edge2" class="edge">
<title>Node0&#45;&gt;Node2</title>
<path fill="none" stroke="#191970" d="M224.5364,-164.4895C250.2349,-172.0262 282.8531,-181.5922 306.3526,-188.484"/>
<polygon fill="#191970" stroke="#191970" points="225.2866,-161.0622 214.7057,-161.6064 223.3166,-167.7792 225.2866,-161.0622"/>
</g>
<!-- Node9 -->
<g id="node10" class="node">
<title>Node9</title>
<g id="a_node10"><a xlink:href="../../d8/daf/classhyperelasticity__setup.html" target="_top" xlink:title="hyperelasticity_setup">
<polygon fill="#ffffff" stroke="#000000" points="282.4033,-99.5 282.4033,-117.5 391.7871,-117.5 391.7871,-99.5 282.4033,-99.5"/>
<text text-anchor="middle" x="337.0952" y="-105.5" font-family="Helvetica,sans-Serif" font-size="10.00" fill="#000000">hyperelasticity_setup</text>
</a>
</g>
</g>
<!-- Node0&#45;&gt;Node9 -->
<g id="edge9" class="edge">
<title>Node0&#45;&gt;Node9</title>
<path fill="none" stroke="#191970" d="M224.7774,-140.7078C250.1116,-133.4431 282.0997,-124.2703 305.4527,-117.5737"/>
<polygon fill="#191970" stroke="#191970" points="223.7238,-137.3688 215.076,-143.4898 225.6534,-144.0976 223.7238,-137.3688"/>
</g>
<!-- Node1 -->
<g id="node2" class="node">
<title>Node1</title>
<g id="a_node2"><a xlink:href="../../d2/d97/class_base_class_f_e_m.html" target="_top" xlink:title="BaseClassFEM">
<polygon fill="#ffffff" stroke="#000000" points="0,-143.5 0,-161.5 84.9063,-161.5 84.9063,-143.5 0,-143.5"/>
<text text-anchor="middle" x="42.4531" y="-149.5" font-family="Helvetica,sans-Serif" font-size="10.00" fill="#000000">BaseClassFEM</text>
</a>
</g>
</g>
<!-- Node1&#45;&gt;Node0 -->
<g id="edge1" class="edge">
<title>Node1&#45;&gt;Node0</title>
<path fill="none" stroke="#191970" d="M95.4354,-152.5C103.6889,-152.5 112.2856,-152.5 120.7338,-152.5"/>
<polygon fill="#191970" stroke="#191970" points="95.2015,-149.0001 85.2015,-152.5 95.2014,-156.0001 95.2015,-149.0001"/>
</g>
<!-- Node3 -->
<g id="node4" class="node">
<title>Node3</title>
<g id="a_node4"><a xlink:href="../../d1/d5c/classcompressible_hyperelasticity.html" target="_top" xlink:title="compressibleHyperelasticity">
<polygon fill="#ffffff" stroke="#000000" points="445.5752,-225.5 445.5752,-243.5 585.5059,-243.5 585.5059,-225.5 445.5752,-225.5"/>
<text text-anchor="middle" x="515.5405" y="-231.5" font-family="Helvetica,sans-Serif" font-size="10.00" fill="#000000">compressibleHyperelasticity</text>
</a>
</g>
</g>
<!-- Node2&#45;&gt;Node3 -->
<g id="edge3" class="edge">
<title>Node2&#45;&gt;Node3</title>
<path fill="none" stroke="#191970" d="M387.0495,-207.8579C413.7168,-213.3872 446.2306,-220.1288 471.879,-225.4469"/>
<polygon fill="#191970" stroke="#191970" points="387.6442,-204.4068 377.1418,-205.8035 386.2229,-211.261 387.6442,-204.4068"/>
</g>
<!-- Node8 -->
<g id="node9" class="node">
<title>Node8</title>
<g id="a_node9"><a xlink:href="../../d0/d85/classnearly_incompressible_hyperelasticity.html" target="_top" xlink:title="nearlyIncompressibleHyperelasticity">
<polygon fill="#ffffff" stroke="#000000" points="427.7871,-188.5 427.7871,-206.5 603.2939,-206.5 603.2939,-188.5 427.7871,-188.5"/>
<text text-anchor="middle" x="515.5405" y="-194.5" font-family="Helvetica,sans-Serif" font-size="10.00" fill="#000000">nearlyIncompressibleHyperelasticity</text>
</a>
</g>
</g>
<!-- Node2&#45;&gt;Node8 -->
<g id="edge8" class="edge">
<title>Node2&#45;&gt;Node8</title>
<path fill="none" stroke="#191970" d="M387.3456,-197.5C399.8853,-197.5 413.7031,-197.5 427.4839,-197.5"/>
<polygon fill="#191970" stroke="#191970" points="387.1419,-194.0001 377.1418,-197.5 387.1418,-201.0001 387.1419,-194.0001"/>
</g>
<!-- Node4 -->
<g id="node5" class="node">
<title>Node4</title>
<g id="a_node5"><a xlink:href="../../d1/dbe/classmanufactured_solution.html" target="_top" xlink:title="manufacturedSolution">
<polygon fill="#ffffff" stroke="#000000" points="645.3999,-280.5 645.3999,-298.5 758.6851,-298.5 758.6851,-280.5 645.3999,-280.5"/>
<text text-anchor="middle" x="702.0425" y="-286.5" font-family="Helvetica,sans-Serif" font-size="10.00" fill="#000000">manufacturedSolution</text>
</a>
</g>
</g>
<!-- Node3&#45;&gt;Node4 -->
<g id="edge4" class="edge">
<title>Node3&#45;&gt;Node4</title>
<path fill="none" stroke="#191970" d="M555.1018,-246.4506C579.3781,-253.7534 611.1113,-263.245 639.2939,-271.5 649.3001,-274.4309 660.2183,-277.5799 670.1008,-280.4118"/>
<polygon fill="#191970" stroke="#191970" points="556.1055,-243.0976 545.521,-243.5657 554.0872,-249.8004 556.1055,-243.0976"/>
</g>
<!-- Node5 -->
<g id="node6" class="node">
<title>Node5</title>
<g id="a_node6"><a xlink:href="../../dd/d20/classrubberblock.html" target="_top" xlink:title="rubberblock">
<polygon fill="#ffffff" stroke="#000000" points="667.917,-243.5 667.917,-261.5 736.168,-261.5 736.168,-243.5 667.917,-243.5"/>
<text text-anchor="middle" x="702.0425" y="-249.5" font-family="Helvetica,sans-Serif" font-size="10.00" fill="#000000">rubberblock</text>
</a>
</g>
</g>
<!-- Node3&#45;&gt;Node5 -->
<g id="edge5" class="edge">
<title>Node3&#45;&gt;Node5</title>
<path fill="none" stroke="#191970" d="M595.5078,-242.2179C620.8161,-244.6605 647.457,-247.2318 667.7673,-249.192"/>
<polygon fill="#191970" stroke="#191970" points="595.8076,-238.7307 585.5176,-241.2537 595.1351,-245.6983 595.8076,-238.7307"/>
</g>
<!-- Node6 -->
<g id="node7" class="node">
<title>Node6</title>
<g id="a_node7"><a xlink:href="../../de/dd1/class_t_i_mooney.html" target="_top" xlink:title="TIMooney">
<polygon fill="#ffffff" stroke="#000000" points="671.811,-206.5 671.811,-224.5 732.2739,-224.5 732.2739,-206.5 671.811,-206.5"/>
<text text-anchor="middle" x="702.0425" y="-212.5" font-family="Helvetica,sans-Serif" font-size="10.00" fill="#000000">TIMooney</text>
</a>
</g>
</g>
<!-- Node3&#45;&gt;Node6 -->
<g id="edge6" class="edge">
<title>Node3&#45;&gt;Node6</title>
<path fill="none" stroke="#191970" d="M595.7449,-226.3291C622.6693,-223.5862 651.0739,-220.6925 671.7406,-218.587"/>
<polygon fill="#191970" stroke="#191970" points="595.1113,-222.8755 585.5176,-227.371 595.8209,-229.8394 595.1113,-222.8755"/>
</g>
<!-- Node7 -->
<g id="node8" class="node">
<title>Node7</title>
<g id="a_node8"><a xlink:href="../../d1/dd7/class_t_i_mooney___random_field.html" target="_top" xlink:title="TIMooney_RandomField">
<polygon fill="#ffffff" stroke="#000000" points="639.2939,-169.5 639.2939,-187.5 764.791,-187.5 764.791,-169.5 639.2939,-169.5"/>
<text text-anchor="middle" x="702.0425" y="-175.5" font-family="Helvetica,sans-Serif" font-size="10.00" fill="#000000">TIMooney_RandomField</text>
</a>
</g>
</g>
<!-- Node3&#45;&gt;Node7 -->
<g id="edge7" class="edge">
<title>Node3&#45;&gt;Node7</title>
<path fill="none" stroke="#191970" d="M578.4989,-223.051C586.9377,-220.8845 595.3988,-218.3768 603.2939,-215.5 620.2923,-209.3062 622.5096,-203.2524 639.2939,-196.5 647.7053,-193.1161 656.9874,-190.0893 665.7745,-187.5269"/>
<polygon fill="#191970" stroke="#191970" points="577.5333,-219.6836 568.6381,-225.4392 579.1811,-226.4869 577.5333,-219.6836"/>
</g>
<!-- Node10 -->
<g id="node11" class="node">
<title>Node10</title>
<g id="a_node11"><a xlink:href="../../da/d5f/class_dirichlet_inlet_outlet___polyconvex_h_g_o.html" target="_top" xlink:title="DirichletInletOutlet\l_PolyconvexHGO">
<polygon fill="#ffffff" stroke="#000000" points="466.6909,-141.5 466.6909,-169.5 564.3901,-169.5 564.3901,-141.5 466.6909,-141.5"/>
<text text-anchor="start" x="474.6909" y="-157.5" font-family="Helvetica,sans-Serif" font-size="10.00" fill="#000000">DirichletInletOutlet</text>
<text text-anchor="middle" x="515.5405" y="-147.5" font-family="Helvetica,sans-Serif" font-size="10.00" fill="#000000">_PolyconvexHGO</text>
</a>
</g>
</g>
<!-- Node9&#45;&gt;Node10 -->
<g id="edge10" class="edge">
<title>Node9&#45;&gt;Node10</title>
<path fill="none" stroke="#191970" d="M381.3909,-120.1669C407.2008,-126.9648 439.7975,-135.5504 466.3959,-142.556"/>
<polygon fill="#191970" stroke="#191970" points="382.0629,-116.7246 371.5013,-117.5621 380.28,-123.4937 382.0629,-116.7246"/>
</g>
<!-- Node11 -->
<g id="node12" class="node">
<title>Node11</title>
<g id="a_node12"><a xlink:href="../../d0/de4/class_dirichlet_strip_elongation___stochastic_polyconvex_h_g_o.html" target="_top" xlink:title="DirichletStripElongation\l_StochasticPolyconvexHGO">
<polygon fill="#ffffff" stroke="#000000" points="444.7354,-94.5 444.7354,-122.5 586.3457,-122.5 586.3457,-94.5 444.7354,-94.5"/>
<text text-anchor="start" x="452.7354" y="-110.5" font-family="Helvetica,sans-Serif" font-size="10.00" fill="#000000">DirichletStripElongation</text>
<text text-anchor="middle" x="515.5405" y="-100.5" font-family="Helvetica,sans-Serif" font-size="10.00" fill="#000000">_StochasticPolyconvexHGO</text>
</a>
</g>
</g>
<!-- Node9&#45;&gt;Node11 -->
<g id="edge11" class="edge">
<title>Node9&#45;&gt;Node11</title>
<path fill="none" stroke="#191970" d="M402.4066,-108.5C416.1355,-108.5 430.68,-108.5 444.6037,-108.5"/>
<polygon fill="#191970" stroke="#191970" points="402.0908,-105.0001 392.0907,-108.5 402.0907,-112.0001 402.0908,-105.0001"/>
</g>
<!-- Node12 -->
<g id="node13" class="node">
<title>Node12</title>
<g id="a_node13"><a xlink:href="../../de/d4c/class_neumann_inner_surface___polyconvex_h_g_o.html" target="_top" xlink:title="NeumannInnerSurface\l_PolyconvexHGO">
<polygon fill="#ffffff" stroke="#000000" points="457.2329,-47.5 457.2329,-75.5 573.8481,-75.5 573.8481,-47.5 457.2329,-47.5"/>
<text text-anchor="start" x="465.2329" y="-63.5" font-family="Helvetica,sans-Serif" font-size="10.00" fill="#000000">NeumannInnerSurface</text>
<text text-anchor="middle" x="515.5405" y="-53.5" font-family="Helvetica,sans-Serif" font-size="10.00" fill="#000000">_PolyconvexHGO</text>
</a>
</g>
</g>
<!-- Node9&#45;&gt;Node12 -->
<g id="edge12" class="edge">
<title>Node9&#45;&gt;Node12</title>
<path fill="none" stroke="#191970" d="M381.056,-96.8441C395.8966,-92.9152 412.5588,-88.5106 427.7871,-84.5 438.7529,-81.612 450.4918,-78.5292 461.7016,-75.5895"/>
<polygon fill="#191970" stroke="#191970" points="379.8834,-93.5339 371.1127,-99.4775 381.6755,-100.3007 379.8834,-93.5339"/>
</g>
<!-- Node13 -->
<g id="node14" class="node">
<title>Node13</title>
<g id="a_node14"><a xlink:href="../../dd/d43/class_neumann_inner_surface___stochastic_polyconvex_h_g_o.html" target="_top" xlink:title="NeumannInnerSurface\l_StochasticPolyconvexHGO">
<polygon fill="#ffffff" stroke="#000000" points="444.7354,-.5 444.7354,-28.5 586.3457,-28.5 586.3457,-.5 444.7354,-.5"/>
<text text-anchor="start" x="452.7354" y="-16.5" font-family="Helvetica,sans-Serif" font-size="10.00" fill="#000000">NeumannInnerSurface</text>
<text text-anchor="middle" x="515.5405" y="-6.5" font-family="Helvetica,sans-Serif" font-size="10.00" fill="#000000">_StochasticPolyconvexHGO</text>
</a>
</g>
</g>
<!-- Node9&#45;&gt;Node13 -->
<g id="edge13" class="edge">
<title>Node9&#45;&gt;Node13</title>
<path fill="none" stroke="#191970" d="M353.7482,-91.9833C370.9175,-75.8457 399.1507,-51.6975 427.7871,-37.5 434.7013,-34.0721 442.1836,-31.1137 449.7632,-28.5708"/>
<polygon fill="#191970" stroke="#191970" points="351.0409,-89.7308 346.2552,-99.1832 355.8909,-94.7783 351.0409,-89.7308"/>
</g>
</g>
</svg>
