<?xml version="1.0" encoding="UTF-8" standalone="no"?>
<!DOCTYPE svg PUBLIC "-//W3C//DTD SVG 1.1//EN"
 "http://www.w3.org/Graphics/SVG/1.1/DTD/svg11.dtd">
<!-- Generated by graphviz version 2.40.1 (20161225.0304)
 -->
<!-- Title: src/compressibleHyperelasticity.hpp Pages: 1 -->
<svg width="201pt" height="83pt"
 viewBox="0.00 0.00 200.76 83.02" xmlns="http://www.w3.org/2000/svg" xmlns:xlink="http://www.w3.org/1999/xlink">
<g id="graph0" class="graph" transform="scale(1 1) rotate(0) translate(4 79.0195)">
<title>src/compressibleHyperelasticity.hpp</title>
<polygon fill="#ffffff" stroke="transparent" points="-4,4 -4,-79.0195 196.7646,-79.0195 196.7646,4 -4,4"/>
<!-- Node1 -->
<g id="node1" class="node">
<title>Node1</title>
<polygon fill="#bfbfbf" stroke="#000000" points="0,-55.5 0,-73.5 174.7646,-73.5 174.7646,-55.5 0,-55.5"/>
<text text-anchor="middle" x="87.3823" y="-61.5" font-family="Helvetica,sans-Serif" font-size="10.00" fill="#000000">src/compressibleHyperelasticity.hpp</text>
</g>
<!-- Node1&#45;&gt;Node1 -->
<g id="edge2" class="edge">
<title>Node1&#45;&gt;Node1</title>
<path fill="none" stroke="#191970" d="M140.601,-74.2734C168.0454,-75.7656 192.7646,-72.5078 192.7646,-64.5 192.7646,-55.5088 161.6012,-52.5059 130.4073,-55.4912"/>
<polygon fill="#191970" stroke="#191970" points="140.6412,-70.7667 130.4073,-73.5088 140.1175,-77.7471 140.6412,-70.7667"/>
</g>
<!-- Node2 -->
<g id="node2" class="node">
<title>Node2</title>
<g id="a_node2"><a xlink:href="../../d8/db8/compressible_hyperelasticity_8cpp.html" target="_top" xlink:title="src/compressibleHyperelasticity.cpp">
<polygon fill="#ffffff" stroke="#000000" points=".2808,-.5 .2808,-18.5 174.4839,-18.5 174.4839,-.5 .2808,-.5"/>
<text text-anchor="middle" x="87.3823" y="-6.5" font-family="Helvetica,sans-Serif" font-size="10.00" fill="#000000">src/compressibleHyperelasticity.cpp</text>
</a>
</g>
</g>
<!-- Node1&#45;&gt;Node2 -->
<g id="edge1" class="edge">
<title>Node1&#45;&gt;Node2</title>
<path fill="none" stroke="#191970" d="M87.3823,-45.383C87.3823,-36.3738 87.3823,-26.0373 87.3823,-18.7795"/>
<polygon fill="#191970" stroke="#191970" points="83.8824,-45.4178 87.3823,-55.4179 90.8824,-45.4179 83.8824,-45.4178"/>
</g>
</g>
</svg>
