<?xml version="1.0" encoding="UTF-8" standalone="no"?>
<!DOCTYPE svg PUBLIC "-//W3C//DTD SVG 1.1//EN"
 "http://www.w3.org/Graphics/SVG/1.1/DTD/svg11.dtd">
<!-- Generated by graphviz version 2.40.1 (20161225.0304)
 -->
<!-- Title: rubberblock Pages: 1 -->
<svg width="163pt" height="323pt"
 viewBox="0.00 0.00 163.00 323.00" xmlns="http://www.w3.org/2000/svg" xmlns:xlink="http://www.w3.org/1999/xlink">
<g id="graph0" class="graph" transform="scale(1 1) rotate(0) translate(4 319)">
<title>rubberblock</title>
<polygon fill="#ffffff" stroke="transparent" points="-4,4 -4,-319 159,-319 159,4 -4,4"/>
<!-- Node5 -->
<g id="node1" class="node">
<title>Node5</title>
<polygon fill="#bfbfbf" stroke="#000000" points="44,-.5 44,-19.5 111,-19.5 111,-.5 44,-.5"/>
<text text-anchor="middle" x="77.5" y="-7.5" font-family="Helvetica,sans-Serif" font-size="10.00" fill="#000000">rubberblock</text>
</g>
<!-- Node6 -->
<g id="node2" class="node">
<title>Node6</title>
<g id="a_node2"><a xlink:href="../../d1/d5c/classcompressible_hyperelasticity.html" target="_top" xlink:title="compressibleHyperelasticity">
<polygon fill="#ffffff" stroke="#000000" points="7.5,-57.5 7.5,-76.5 147.5,-76.5 147.5,-57.5 7.5,-57.5"/>
<text text-anchor="middle" x="77.5" y="-64.5" font-family="Helvetica,sans-Serif" font-size="10.00" fill="#000000">compressibleHyperelasticity</text>
</a>
</g>
</g>
<!-- Node6&#45;&gt;Node5 -->
<g id="edge1" class="edge">
<title>Node6&#45;&gt;Node5</title>
<path fill="none" stroke="#191970" d="M77.5,-47.2342C77.5,-37.8491 77.5,-27.0651 77.5,-19.5265"/>
<polygon fill="#191970" stroke="#191970" points="74.0001,-47.3307 77.5,-57.3307 81.0001,-47.3308 74.0001,-47.3307"/>
</g>
<!-- Node7 -->
<g id="node3" class="node">
<title>Node7</title>
<g id="a_node3"><a xlink:href="../../dc/d5a/classhyperelasticity.html" target="_top" xlink:title="hyperelasticity">
<polygon fill="#ffffff" stroke="#000000" points="37.5,-114.5 37.5,-133.5 117.5,-133.5 117.5,-114.5 37.5,-114.5"/>
<text text-anchor="middle" x="77.5" y="-121.5" font-family="Helvetica,sans-Serif" font-size="10.00" fill="#000000">hyperelasticity</text>
</a>
</g>
</g>
<!-- Node7&#45;&gt;Node6 -->
<g id="edge2" class="edge">
<title>Node7&#45;&gt;Node6</title>
<path fill="none" stroke="#191970" d="M77.5,-104.2342C77.5,-94.8491 77.5,-84.0651 77.5,-76.5265"/>
<polygon fill="#191970" stroke="#191970" points="74.0001,-104.3307 77.5,-114.3307 81.0001,-104.3308 74.0001,-104.3307"/>
</g>
<!-- Node8 -->
<g id="node4" class="node">
<title>Node8</title>
<g id="a_node4"><a xlink:href="../../d3/d5b/classnon_linear_finite_element_problem.html" target="_top" xlink:title="nonLinearFiniteElementProblem">
<polygon fill="#ffffff" stroke="#000000" points="0,-171.5 0,-190.5 155,-190.5 155,-171.5 0,-171.5"/>
<text text-anchor="middle" x="77.5" y="-178.5" font-family="Helvetica,sans-Serif" font-size="10.00" fill="#000000">nonLinearFiniteElementProblem</text>
</a>
</g>
</g>
<!-- Node8&#45;&gt;Node7 -->
<g id="edge3" class="edge">
<title>Node8&#45;&gt;Node7</title>
<path fill="none" stroke="#191970" d="M77.5,-161.2342C77.5,-151.8491 77.5,-141.0651 77.5,-133.5265"/>
<polygon fill="#191970" stroke="#191970" points="74.0001,-161.3307 77.5,-171.3307 81.0001,-161.3308 74.0001,-161.3307"/>
</g>
<!-- Node9 -->
<g id="node5" class="node">
<title>Node9</title>
<g id="a_node5"><a xlink:href="../../d2/d31/classbase_class_f_e_m.html" target="_top" xlink:title="baseClassFEM">
<polygon fill="#ffffff" stroke="#000000" points="35.5,-228.5 35.5,-247.5 119.5,-247.5 119.5,-228.5 35.5,-228.5"/>
<text text-anchor="middle" x="77.5" y="-235.5" font-family="Helvetica,sans-Serif" font-size="10.00" fill="#000000">baseClassFEM</text>
</a>
</g>
</g>
<!-- Node9&#45;&gt;Node8 -->
<g id="edge4" class="edge">
<title>Node9&#45;&gt;Node8</title>
<path fill="none" stroke="#191970" d="M77.5,-218.2342C77.5,-208.8491 77.5,-198.0651 77.5,-190.5265"/>
<polygon fill="#191970" stroke="#191970" points="74.0001,-218.3307 77.5,-228.3307 81.0001,-218.3308 74.0001,-218.3307"/>
</g>
<!-- Node10 -->
<g id="node6" class="node">
<title>Node10</title>
<g id="a_node6"><a xlink:href="../../d6/d6b/classmesh.html" target="_top" xlink:title="mesh">
<polygon fill="#ffffff" stroke="#000000" points="57,-295.5 57,-314.5 98,-314.5 98,-295.5 57,-295.5"/>
<text text-anchor="middle" x="77.5" y="-302.5" font-family="Helvetica,sans-Serif" font-size="10.00" fill="#000000">mesh</text>
</a>
</g>
</g>
<!-- Node10&#45;&gt;Node9 -->
<g id="edge5" class="edge">
<title>Node10&#45;&gt;Node9</title>
<path fill="none" stroke="#9a32cd" stroke-dasharray="5,2" d="M77.5,-285.1079C77.5,-272.714 77.5,-257.3263 77.5,-247.5817"/>
<polygon fill="#9a32cd" stroke="#9a32cd" points="74.0001,-285.4005 77.5,-295.4005 81.0001,-285.4006 74.0001,-285.4005"/>
<text text-anchor="middle" x="91.5" y="-269" font-family="Helvetica,sans-Serif" font-size="10.00" fill="#000000"> Mesh</text>
</g>
</g>
</svg>
