<?xml version="1.0" encoding="UTF-8" standalone="no"?>
<!DOCTYPE svg PUBLIC "-//W3C//DTD SVG 1.1//EN"
 "http://www.w3.org/Graphics/SVG/1.1/DTD/svg11.dtd">
<!-- Generated by graphviz version 2.40.1 (20161225.0304)
 -->
<!-- Title: examples/rubberblock/main.cpp Pages: 1 -->
<svg width="3264pt" height="442pt"
 viewBox="0.00 0.00 3263.50 442.00" xmlns="http://www.w3.org/2000/svg" xmlns:xlink="http://www.w3.org/1999/xlink">
<g id="graph0" class="graph" transform="scale(1 1) rotate(0) translate(4 438)">
<title>examples/rubberblock/main.cpp</title>
<polygon fill="#ffffff" stroke="transparent" points="-4,4 -4,-438 3259.5,-438 3259.5,4 -4,4"/>
<!-- Node0 -->
<g id="node1" class="node">
<title>Node0</title>
<polygon fill="#bfbfbf" stroke="#000000" points="1553,-403.5 1553,-433.5 1665,-433.5 1665,-403.5 1553,-403.5"/>
<text text-anchor="start" x="1561" y="-421.5" font-family="Helvetica,sans-Serif" font-size="10.00" fill="#000000">examples/rubberblock</text>
<text text-anchor="middle" x="1609" y="-410.5" font-family="Helvetica,sans-Serif" font-size="10.00" fill="#000000">/main.cpp</text>
</g>
<!-- Node1 -->
<g id="node2" class="node">
<title>Node1</title>
<polygon fill="#ffffff" stroke="#bfbfbf" points="1367,-347.5 1367,-366.5 1475,-366.5 1475,-347.5 1367,-347.5"/>
<text text-anchor="middle" x="1421" y="-354.5" font-family="Helvetica,sans-Serif" font-size="10.00" fill="#000000">Epetra_ConfigDefs.h</text>
</g>
<!-- Node0&#45;&gt;Node1 -->
<g id="edge1" class="edge">
<title>Node0&#45;&gt;Node1</title>
<path fill="none" stroke="#191970" d="M1563.01,-403.4554C1531.3666,-393.104 1489.801,-379.5067 1459.8241,-369.7004"/>
<polygon fill="#191970" stroke="#191970" points="1460.7259,-366.313 1450.1333,-366.5303 1458.5495,-372.9661 1460.7259,-366.313"/>
</g>
<!-- Node2 -->
<g id="node3" class="node">
<title>Node2</title>
<polygon fill="#ffffff" stroke="#bfbfbf" points="1493.5,-347.5 1493.5,-366.5 1606.5,-366.5 1606.5,-347.5 1493.5,-347.5"/>
<text text-anchor="middle" x="1550" y="-354.5" font-family="Helvetica,sans-Serif" font-size="10.00" fill="#000000">Epetra_SerialComm.h</text>
</g>
<!-- Node0&#45;&gt;Node2 -->
<g id="edge2" class="edge">
<title>Node0&#45;&gt;Node2</title>
<path fill="none" stroke="#191970" d="M1594.4157,-403.2977C1585.97,-394.4941 1575.3108,-383.3833 1566.5516,-374.2529"/>
<polygon fill="#191970" stroke="#191970" points="1568.8952,-371.6402 1559.4466,-366.8469 1563.8439,-376.4862 1568.8952,-371.6402"/>
</g>
<!-- Node3 -->
<g id="node4" class="node">
<title>Node3</title>
<g id="a_node4"><a xlink:href="../../de/d4a/rubberblock_8hpp.html" target="_top" xlink:title="rubberblock.hpp">
<polygon fill="#ffffff" stroke="#000000" points="1625,-347.5 1625,-366.5 1711,-366.5 1711,-347.5 1625,-347.5"/>
<text text-anchor="middle" x="1668" y="-354.5" font-family="Helvetica,sans-Serif" font-size="10.00" fill="#000000">rubberblock.hpp</text>
</a>
</g>
</g>
<!-- Node0&#45;&gt;Node3 -->
<g id="edge3" class="edge">
<title>Node0&#45;&gt;Node3</title>
<path fill="none" stroke="#191970" d="M1623.5843,-403.2977C1632.03,-394.4941 1642.6892,-383.3833 1651.4484,-374.2529"/>
<polygon fill="#191970" stroke="#191970" points="1654.1561,-376.4862 1658.5534,-366.8469 1649.1048,-371.6402 1654.1561,-376.4862"/>
</g>
<!-- Node41 -->
<g id="node40" class="node">
<title>Node41</title>
<g id="a_node40"><a xlink:href="../../d7/d17/_newton___raphsonpp_8hpp.html" target="_top" xlink:title="Newton_Raphsonpp.hpp">
<polygon fill="#ffffff" stroke="#000000" points="2183,-235.5 2183,-254.5 2307,-254.5 2307,-235.5 2183,-235.5"/>
<text text-anchor="middle" x="2245" y="-242.5" font-family="Helvetica,sans-Serif" font-size="10.00" fill="#000000">Newton_Raphsonpp.hpp</text>
</a>
</g>
</g>
<!-- Node0&#45;&gt;Node41 -->
<g id="edge41" class="edge">
<title>Node0&#45;&gt;Node41</title>
<path fill="none" stroke="#191970" d="M1664.0516,-403.482C1787.9581,-369.6805 2086.7648,-288.1664 2200.2523,-257.2071"/>
<polygon fill="#191970" stroke="#191970" points="2201.2852,-260.5533 2210.0115,-254.5448 2199.4429,-253.8001 2201.2852,-260.5533"/>
</g>
<!-- Node4 -->
<g id="node5" class="node">
<title>Node4</title>
<g id="a_node5"><a xlink:href="../../de/d49/tensor__calculus_8hpp.html" target="_top" xlink:title="tensor_calculus.hpp">
<polygon fill="#ffffff" stroke="#000000" points="1474,-112.5 1474,-131.5 1578,-131.5 1578,-112.5 1474,-112.5"/>
<text text-anchor="middle" x="1526" y="-119.5" font-family="Helvetica,sans-Serif" font-size="10.00" fill="#000000">tensor_calculus.hpp</text>
</a>
</g>
</g>
<!-- Node3&#45;&gt;Node4 -->
<g id="edge4" class="edge">
<title>Node3&#45;&gt;Node4</title>
<path fill="none" stroke="#191970" d="M1636.1793,-347.4945C1617.3216,-340.3196 1594.3743,-328.6409 1580,-311 1538.5849,-260.1731 1528.9183,-179.1852 1526.6728,-141.9346"/>
<polygon fill="#191970" stroke="#191970" points="1530.1647,-141.68 1526.1873,-131.8601 1523.1728,-142.017 1530.1647,-141.68"/>
</g>
<!-- Node37 -->
<g id="node36" class="node">
<title>Node37</title>
<g id="a_node36"><a xlink:href="../../da/d5c/compressible_hyperelasticity_8hpp.html" target="_top" xlink:title="compressibleHyperelasticity.hpp">
<polygon fill="#ffffff" stroke="#000000" points="1589,-291.5 1589,-310.5 1747,-310.5 1747,-291.5 1589,-291.5"/>
<text text-anchor="middle" x="1668" y="-298.5" font-family="Helvetica,sans-Serif" font-size="10.00" fill="#000000">compressibleHyperelasticity.hpp</text>
</a>
</g>
</g>
<!-- Node3&#45;&gt;Node37 -->
<g id="edge35" class="edge">
<title>Node3&#45;&gt;Node37</title>
<path fill="none" stroke="#191970" d="M1668,-347.2455C1668,-339.9382 1668,-329.6944 1668,-320.7046"/>
<polygon fill="#191970" stroke="#191970" points="1671.5001,-320.6426 1668,-310.6427 1664.5001,-320.6427 1671.5001,-320.6426"/>
</g>
<!-- Node5 -->
<g id="node6" class="node">
<title>Node5</title>
<g id="a_node6"><a xlink:href="../../d0/d02/meshpp_8hpp.html" target="_top" xlink:title="meshpp.hpp">
<polygon fill="#ffffff" stroke="#ff0000" points="1531,-56.5 1531,-75.5 1601,-75.5 1601,-56.5 1531,-56.5"/>
<text text-anchor="middle" x="1566" y="-63.5" font-family="Helvetica,sans-Serif" font-size="10.00" fill="#000000">meshpp.hpp</text>
</a>
</g>
</g>
<!-- Node4&#45;&gt;Node5 -->
<g id="edge5" class="edge">
<title>Node4&#45;&gt;Node5</title>
<path fill="none" stroke="#191970" d="M1532.9675,-112.2455C1538.5311,-104.4564 1546.478,-93.3308 1553.1829,-83.9439"/>
<polygon fill="#191970" stroke="#191970" points="1556.148,-85.8144 1559.1124,-75.6427 1550.4519,-81.7457 1556.148,-85.8144"/>
</g>
<!-- Node6 -->
<g id="node7" class="node">
<title>Node6</title>
<polygon fill="#ffffff" stroke="#bfbfbf" points="0,-.5 0,-19.5 46,-19.5 46,-.5 0,-.5"/>
<text text-anchor="middle" x="23" y="-7.5" font-family="Helvetica,sans-Serif" font-size="10.00" fill="#000000">stdio.h</text>
</g>
<!-- Node5&#45;&gt;Node6 -->
<g id="edge6" class="edge">
<title>Node5&#45;&gt;Node6</title>
<path fill="none" stroke="#191970" d="M1530.9024,-65.5041C1322.144,-62.4796 246.784,-45.8349 56.3188,-19.6051"/>
<polygon fill="#191970" stroke="#191970" points="56.6533,-16.1158 46.2397,-18.0668 55.5971,-23.0356 56.6533,-16.1158"/>
</g>
<!-- Node7 -->
<g id="node8" class="node">
<title>Node7</title>
<polygon fill="#ffffff" stroke="#bfbfbf" points="64,-.5 64,-19.5 118,-19.5 118,-.5 64,-.5"/>
<text text-anchor="middle" x="91" y="-7.5" font-family="Helvetica,sans-Serif" font-size="10.00" fill="#000000">iostream</text>
</g>
<!-- Node5&#45;&gt;Node7 -->
<g id="edge7" class="edge">
<title>Node5&#45;&gt;Node7</title>
<path fill="none" stroke="#191970" d="M1530.924,-65.3807C1328.39,-61.7391 311.4314,-42.5454 128.5218,-19.732"/>
<polygon fill="#191970" stroke="#191970" points="128.7553,-16.231 118.3704,-18.3294 127.7972,-23.1652 128.7553,-16.231"/>
</g>
<!-- Node8 -->
<g id="node9" class="node">
<title>Node8</title>
<polygon fill="#ffffff" stroke="#bfbfbf" points="136.5,-.5 136.5,-19.5 185.5,-19.5 185.5,-.5 136.5,-.5"/>
<text text-anchor="middle" x="161" y="-7.5" font-family="Helvetica,sans-Serif" font-size="10.00" fill="#000000">istream</text>
</g>
<!-- Node5&#45;&gt;Node8 -->
<g id="edge8" class="edge">
<title>Node5&#45;&gt;Node8</title>
<path fill="none" stroke="#191970" d="M1530.9586,-65.3533C1334.3218,-61.6556 370.9448,-42.6055 195.674,-19.5096"/>
<polygon fill="#191970" stroke="#191970" points="196.1168,-16.0372 185.7157,-18.0537 195.1041,-22.9636 196.1168,-16.0372"/>
</g>
<!-- Node9 -->
<g id="node10" class="node">
<title>Node9</title>
<polygon fill="#ffffff" stroke="#bfbfbf" points="204,-.5 204,-19.5 254,-19.5 254,-.5 204,-.5"/>
<text text-anchor="middle" x="229" y="-7.5" font-family="Helvetica,sans-Serif" font-size="10.00" fill="#000000">fstream</text>
</g>
<!-- Node5&#45;&gt;Node9 -->
<g id="edge9" class="edge">
<title>Node5&#45;&gt;Node9</title>
<path fill="none" stroke="#191970" d="M1530.8067,-65.2846C1339.9035,-61.3353 431.3709,-41.6381 264.0241,-19.5965"/>
<polygon fill="#191970" stroke="#191970" points="264.4903,-16.1275 254.0886,-18.1414 263.4759,-23.0536 264.4903,-16.1275"/>
</g>
<!-- Node10 -->
<g id="node11" class="node">
<title>Node10</title>
<polygon fill="#ffffff" stroke="#bfbfbf" points="272,-.5 272,-19.5 316,-19.5 316,-.5 272,-.5"/>
<text text-anchor="middle" x="294" y="-7.5" font-family="Helvetica,sans-Serif" font-size="10.00" fill="#000000">vector</text>
</g>
<!-- Node5&#45;&gt;Node10 -->
<g id="edge10" class="edge">
<title>Node5&#45;&gt;Node10</title>
<path fill="none" stroke="#191970" d="M1530.937,-65.2752C1345.9639,-61.3762 486.2844,-42.2965 326.0839,-19.5319"/>
<polygon fill="#191970" stroke="#191970" points="326.5908,-16.0686 316.1656,-17.957 325.493,-22.982 326.5908,-16.0686"/>
</g>
<!-- Node11 -->
<g id="node12" class="node">
<title>Node11</title>
<polygon fill="#ffffff" stroke="#bfbfbf" points="334,-.5 334,-19.5 384,-19.5 384,-.5 334,-.5"/>
<text text-anchor="middle" x="359" y="-7.5" font-family="Helvetica,sans-Serif" font-size="10.00" fill="#000000">iomanip</text>
</g>
<!-- Node5&#45;&gt;Node11 -->
<g id="edge11" class="edge">
<title>Node5&#45;&gt;Node11</title>
<path fill="none" stroke="#191970" d="M1530.8121,-65.7891C1362.7796,-64.606 640.3912,-57.4853 394.0569,-19.7184"/>
<polygon fill="#191970" stroke="#191970" points="394.5167,-16.2476 384.0905,-18.1302 393.415,-23.1603 394.5167,-16.2476"/>
</g>
<!-- Node12 -->
<g id="node13" class="node">
<title>Node12</title>
<polygon fill="#ffffff" stroke="#bfbfbf" points="402,-.5 402,-19.5 506,-19.5 506,-.5 402,-.5"/>
<text text-anchor="middle" x="454" y="-7.5" font-family="Helvetica,sans-Serif" font-size="10.00" fill="#000000">Epetra_MpiComm.h</text>
</g>
<!-- Node5&#45;&gt;Node12 -->
<g id="edge12" class="edge">
<title>Node5&#45;&gt;Node12</title>
<path fill="none" stroke="#191970" d="M1530.9108,-65.0255C1374.401,-60.5941 738.3616,-41.6642 516.1385,-19.9757"/>
<polygon fill="#191970" stroke="#191970" points="516.4891,-16.4934 506.1887,-18.9738 515.7877,-23.4582 516.4891,-16.4934"/>
</g>
<!-- Node13 -->
<g id="node14" class="node">
<title>Node13</title>
<polygon fill="#ffffff" stroke="#bfbfbf" points="524.5,-.5 524.5,-19.5 637.5,-19.5 637.5,-.5 524.5,-.5"/>
<text text-anchor="middle" x="581" y="-7.5" font-family="Helvetica,sans-Serif" font-size="10.00" fill="#000000">Epetra_FECrsGraph.h</text>
</g>
<!-- Node5&#45;&gt;Node13 -->
<g id="edge13" class="edge">
<title>Node5&#45;&gt;Node13</title>
<path fill="none" stroke="#191970" d="M1530.8478,-65.5097C1409.703,-63.5525 998.2632,-54.6852 647.9222,-19.9894"/>
<polygon fill="#191970" stroke="#191970" points="648.1344,-16.4933 637.8359,-18.9817 647.4384,-23.4586 648.1344,-16.4933"/>
</g>
<!-- Node14 -->
<g id="node15" class="node">
<title>Node14</title>
<polygon fill="#ffffff" stroke="#bfbfbf" points="656,-.5 656,-19.5 770,-19.5 770,-.5 656,-.5"/>
<text text-anchor="middle" x="713" y="-7.5" font-family="Helvetica,sans-Serif" font-size="10.00" fill="#000000">Epetra_FECrsMatrix.h</text>
</g>
<!-- Node5&#45;&gt;Node14 -->
<g id="edge14" class="edge">
<title>Node5&#45;&gt;Node14</title>
<path fill="none" stroke="#191970" d="M1530.9985,-65.1025C1421.6369,-62.0554 1076.4672,-50.5988 780.2694,-20.0437"/>
<polygon fill="#191970" stroke="#191970" points="780.5047,-16.5494 770.1961,-18.9952 779.7799,-23.5118 780.5047,-16.5494"/>
</g>
<!-- Node15 -->
<g id="node16" class="node">
<title>Node15</title>
<polygon fill="#ffffff" stroke="#bfbfbf" points="788,-.5 788,-19.5 888,-19.5 888,-.5 788,-.5"/>
<text text-anchor="middle" x="838" y="-7.5" font-family="Helvetica,sans-Serif" font-size="10.00" fill="#000000">Epetra_FEVector.h</text>
</g>
<!-- Node5&#45;&gt;Node15 -->
<g id="edge15" class="edge">
<title>Node5&#45;&gt;Node15</title>
<path fill="none" stroke="#191970" d="M1530.7055,-64.808C1432.2838,-61.222 1146.2935,-49.0167 898.447,-20.0641"/>
<polygon fill="#191970" stroke="#191970" points="898.5044,-16.5467 888.1631,-18.8505 897.6839,-23.4984 898.5044,-16.5467"/>
</g>
<!-- Node16 -->
<g id="node17" class="node">
<title>Node16</title>
<polygon fill="#ffffff" stroke="#bfbfbf" points="906.5,-.5 906.5,-19.5 993.5,-19.5 993.5,-.5 906.5,-.5"/>
<text text-anchor="middle" x="950" y="-7.5" font-family="Helvetica,sans-Serif" font-size="10.00" fill="#000000">Epetra_Vector.h</text>
</g>
<!-- Node5&#45;&gt;Node16 -->
<g id="edge16" class="edge">
<title>Node5&#45;&gt;Node16</title>
<path fill="none" stroke="#191970" d="M1530.8758,-64.4636C1443.4252,-60.3552 1208.783,-47.5962 1003.6881,-20.1103"/>
<polygon fill="#191970" stroke="#191970" points="1004.0155,-16.6227 993.636,-18.7479 1003.0753,-23.5593 1004.0155,-16.6227"/>
</g>
<!-- Node17 -->
<g id="node18" class="node">
<title>Node17</title>
<polygon fill="#ffffff" stroke="#bfbfbf" points="1011.5,-.5 1011.5,-19.5 1088.5,-19.5 1088.5,-.5 1011.5,-.5"/>
<text text-anchor="middle" x="1050" y="-7.5" font-family="Helvetica,sans-Serif" font-size="10.00" fill="#000000">Epetra_Map.h</text>
</g>
<!-- Node5&#45;&gt;Node17 -->
<g id="edge17" class="edge">
<title>Node5&#45;&gt;Node17</title>
<path fill="none" stroke="#191970" d="M1530.825,-63.9C1454.0633,-59.0282 1265.6442,-45.4999 1098.6203,-20.116"/>
<polygon fill="#191970" stroke="#191970" points="1099.0812,-16.6458 1088.6653,-18.5849 1098.017,-23.5644 1099.0812,-16.6458"/>
</g>
<!-- Node18 -->
<g id="node19" class="node">
<title>Node18</title>
<polygon fill="#ffffff" stroke="#bfbfbf" points="1106.5,-.5 1106.5,-19.5 1245.5,-19.5 1245.5,-.5 1106.5,-.5"/>
<text text-anchor="middle" x="1176" y="-7.5" font-family="Helvetica,sans-Serif" font-size="10.00" fill="#000000">Epetra_SerialDenseMatrix.h</text>
</g>
<!-- Node5&#45;&gt;Node18 -->
<g id="edge18" class="edge">
<title>Node5&#45;&gt;Node18</title>
<path fill="none" stroke="#191970" d="M1530.7023,-60.9316C1468.1799,-51.954 1336.6508,-33.0678 1252.5159,-20.9869"/>
<polygon fill="#191970" stroke="#191970" points="1252.8942,-17.5054 1242.4983,-19.5485 1251.8993,-24.4343 1252.8942,-17.5054"/>
</g>
<!-- Node19 -->
<g id="node20" class="node">
<title>Node19</title>
<polygon fill="#ffffff" stroke="#bfbfbf" points="1264,-.5 1264,-19.5 1404,-19.5 1404,-.5 1264,-.5"/>
<text text-anchor="middle" x="1334" y="-7.5" font-family="Helvetica,sans-Serif" font-size="10.00" fill="#000000">Epetra_SerialDenseVector.h</text>
</g>
<!-- Node5&#45;&gt;Node19 -->
<g id="edge19" class="edge">
<title>Node5&#45;&gt;Node19</title>
<path fill="none" stroke="#191970" d="M1530.7642,-57.4948C1491.4858,-48.0138 1427.6815,-32.6128 1383.4239,-21.9299"/>
<polygon fill="#191970" stroke="#191970" points="1384.0004,-18.4686 1373.4583,-19.5244 1382.3578,-25.2732 1384.0004,-18.4686"/>
</g>
<!-- Node20 -->
<g id="node21" class="node">
<title>Node20</title>
<polygon fill="#ffffff" stroke="#bfbfbf" points="1422,-.5 1422,-19.5 1574,-19.5 1574,-.5 1422,-.5"/>
<text text-anchor="middle" x="1498" y="-7.5" font-family="Helvetica,sans-Serif" font-size="10.00" fill="#000000">Epetra_IntSerialDenseVector.h</text>
</g>
<!-- Node5&#45;&gt;Node20 -->
<g id="edge20" class="edge">
<title>Node5&#45;&gt;Node20</title>
<path fill="none" stroke="#191970" d="M1554.1553,-56.2455C1544.112,-47.9746 1529.5005,-35.9416 1517.6996,-26.2232"/>
<polygon fill="#191970" stroke="#191970" points="1519.6533,-23.298 1509.709,-19.6427 1515.2033,-28.7015 1519.6533,-23.298"/>
</g>
<!-- Node21 -->
<g id="node22" class="node">
<title>Node21</title>
<polygon fill="#ffffff" stroke="#bfbfbf" points="1592,-.5 1592,-19.5 1678,-19.5 1678,-.5 1592,-.5"/>
<text text-anchor="middle" x="1635" y="-7.5" font-family="Helvetica,sans-Serif" font-size="10.00" fill="#000000">Epetra_Import.h</text>
</g>
<!-- Node5&#45;&gt;Node21 -->
<g id="edge21" class="edge">
<title>Node5&#45;&gt;Node21</title>
<path fill="none" stroke="#191970" d="M1578.0189,-56.2455C1588.2098,-47.9746 1603.0362,-35.9416 1615.0107,-26.2232"/>
<polygon fill="#191970" stroke="#191970" points="1617.5598,-28.662 1623.1188,-19.6427 1613.1486,-23.2268 1617.5598,-28.662"/>
</g>
<!-- Node22 -->
<g id="node23" class="node">
<title>Node22</title>
<polygon fill="#ffffff" stroke="#bfbfbf" points="1696.5,-.5 1696.5,-19.5 1783.5,-19.5 1783.5,-.5 1696.5,-.5"/>
<text text-anchor="middle" x="1740" y="-7.5" font-family="Helvetica,sans-Serif" font-size="10.00" fill="#000000">Epetra_Export.h</text>
</g>
<!-- Node5&#45;&gt;Node22 -->
<g id="edge22" class="edge">
<title>Node5&#45;&gt;Node22</title>
<path fill="none" stroke="#191970" d="M1595.9117,-56.3733C1624.8452,-47.0613 1668.8611,-32.8953 1700.6293,-22.671"/>
<polygon fill="#191970" stroke="#191970" points="1702.0318,-25.8965 1710.4787,-19.5011 1699.8872,-19.2331 1702.0318,-25.8965"/>
</g>
<!-- Node23 -->
<g id="node24" class="node">
<title>Node23</title>
<polygon fill="#ffffff" stroke="#bfbfbf" points="1802,-.5 1802,-19.5 1882,-19.5 1882,-.5 1802,-.5"/>
<text text-anchor="middle" x="1842" y="-7.5" font-family="Helvetica,sans-Serif" font-size="10.00" fill="#000000">Epetra_Time.h</text>
</g>
<!-- Node5&#45;&gt;Node23 -->
<g id="edge23" class="edge">
<title>Node5&#45;&gt;Node23</title>
<path fill="none" stroke="#191970" d="M1601.2359,-58.8507C1649.5297,-49.052 1736.5602,-31.3936 1791.698,-20.2062"/>
<polygon fill="#191970" stroke="#191970" points="1792.5014,-23.6146 1801.6058,-18.1959 1791.1095,-16.7544 1792.5014,-23.6146"/>
</g>
<!-- Node24 -->
<g id="node25" class="node">
<title>Node24</title>
<polygon fill="#ffffff" stroke="#bfbfbf" points="1900.5,-.5 1900.5,-19.5 2047.5,-19.5 2047.5,-.5 1900.5,-.5"/>
<text text-anchor="middle" x="1974" y="-7.5" font-family="Helvetica,sans-Serif" font-size="10.00" fill="#000000">ml_MultiLevelPreconditioner.h</text>
</g>
<!-- Node5&#45;&gt;Node24 -->
<g id="edge24" class="edge">
<title>Node5&#45;&gt;Node24</title>
<path fill="none" stroke="#191970" d="M1601.139,-61.177C1665.9087,-52.287 1805.6048,-33.1131 1894.4115,-20.9239"/>
<polygon fill="#191970" stroke="#191970" points="1895.0141,-24.3741 1904.4452,-19.5467 1894.0621,-17.4391 1895.0141,-24.3741"/>
</g>
<!-- Node25 -->
<g id="node26" class="node">
<title>Node25</title>
<polygon fill="#ffffff" stroke="#bfbfbf" points="2065.5,-.5 2065.5,-19.5 2156.5,-19.5 2156.5,-.5 2065.5,-.5"/>
<text text-anchor="middle" x="2111" y="-7.5" font-family="Helvetica,sans-Serif" font-size="10.00" fill="#000000">ml_epetra_utils.h</text>
</g>
<!-- Node5&#45;&gt;Node25 -->
<g id="edge25" class="edge">
<title>Node5&#45;&gt;Node25</title>
<path fill="none" stroke="#191970" d="M1601.2524,-63.7873C1680.5963,-58.5735 1879.4171,-44.2052 2055.4246,-20.1216"/>
<polygon fill="#191970" stroke="#191970" points="2055.9552,-23.5816 2065.3817,-18.7452 2054.9966,-16.6475 2055.9552,-23.5816"/>
</g>
<!-- Node26 -->
<g id="node27" class="node">
<title>Node26</title>
<polygon fill="#ffffff" stroke="#bfbfbf" points="2174.5,-.5 2174.5,-19.5 2245.5,-19.5 2245.5,-.5 2174.5,-.5"/>
<text text-anchor="middle" x="2210" y="-7.5" font-family="Helvetica,sans-Serif" font-size="10.00" fill="#000000">ml_include.h</text>
</g>
<!-- Node5&#45;&gt;Node26 -->
<g id="edge26" class="edge">
<title>Node5&#45;&gt;Node26</title>
<path fill="none" stroke="#191970" d="M1601.0018,-63.9955C1709.0313,-57.7047 2037.108,-37.7958 2163.8603,-20.106"/>
<polygon fill="#191970" stroke="#191970" points="2164.6726,-23.5247 2174.0636,-18.6197 2163.6635,-16.5978 2164.6726,-23.5247"/>
</g>
<!-- Node27 -->
<g id="node28" class="node">
<title>Node27</title>
<polygon fill="#ffffff" stroke="#bfbfbf" points="2263.5,-.5 2263.5,-19.5 2400.5,-19.5 2400.5,-.5 2263.5,-.5"/>
<text text-anchor="middle" x="2332" y="-7.5" font-family="Helvetica,sans-Serif" font-size="10.00" fill="#000000">EpetraExt_RowMatrixOut.h</text>
</g>
<!-- Node5&#45;&gt;Node27 -->
<g id="edge27" class="edge">
<title>Node5&#45;&gt;Node27</title>
<path fill="none" stroke="#191970" d="M1601.1984,-64.4283C1701.4254,-59.7875 1997.1097,-44.9489 2252.9455,-20.1536"/>
<polygon fill="#191970" stroke="#191970" points="2253.5649,-23.6099 2263.1773,-19.1545 2252.8845,-16.643 2253.5649,-23.6099"/>
</g>
<!-- Node28 -->
<g id="node29" class="node">
<title>Node28</title>
<polygon fill="#ffffff" stroke="#bfbfbf" points="2418.5,-.5 2418.5,-19.5 2557.5,-19.5 2557.5,-.5 2418.5,-.5"/>
<text text-anchor="middle" x="2488" y="-7.5" font-family="Helvetica,sans-Serif" font-size="10.00" fill="#000000">EpetraExt_MultiVectorOut.h</text>
</g>
<!-- Node5&#45;&gt;Node28 -->
<g id="edge28" class="edge">
<title>Node5&#45;&gt;Node28</title>
<path fill="none" stroke="#191970" d="M1601.1478,-64.2367C1745.7002,-56.9646 2291.8465,-29.2863 2408.1306,-20.0535"/>
<polygon fill="#191970" stroke="#191970" points="2408.6174,-23.5249 2418.2866,-19.1939 2408.027,-16.5498 2408.6174,-23.5249"/>
</g>
<!-- Node29 -->
<g id="node30" class="node">
<title>Node29</title>
<polygon fill="#ffffff" stroke="#bfbfbf" points="2576,-.5 2576,-19.5 2686,-19.5 2686,-.5 2576,-.5"/>
<text text-anchor="middle" x="2631" y="-7.5" font-family="Helvetica,sans-Serif" font-size="10.00" fill="#000000">EpetraExt_VectorIn.h</text>
</g>
<!-- Node5&#45;&gt;Node29 -->
<g id="edge29" class="edge">
<title>Node5&#45;&gt;Node29</title>
<path fill="none" stroke="#191970" d="M1601.0128,-64.2427C1641.6467,-62.2129 1710.6716,-58.794 1770,-56 2120.9049,-39.4744 2212.4978,-55.1272 2565.8943,-20.0043"/>
<polygon fill="#191970" stroke="#191970" points="2566.2896,-23.4823 2575.8915,-19.0042 2565.5927,-16.5171 2566.2896,-23.4823"/>
</g>
<!-- Node30 -->
<g id="node31" class="node">
<title>Node30</title>
<polygon fill="#ffffff" stroke="#bfbfbf" points="2704.5,-.5 2704.5,-19.5 2835.5,-19.5 2835.5,-.5 2704.5,-.5"/>
<text text-anchor="middle" x="2770" y="-7.5" font-family="Helvetica,sans-Serif" font-size="10.00" fill="#000000">EpetraExt_MultiVectorIn.h</text>
</g>
<!-- Node5&#45;&gt;Node30 -->
<g id="edge30" class="edge">
<title>Node5&#45;&gt;Node30</title>
<path fill="none" stroke="#191970" d="M1601.0098,-64.1764C1641.6409,-62.0849 1710.6632,-58.6089 1770,-56 2177.7138,-38.0736 2283.3917,-54.9497 2694.1196,-19.9916"/>
<polygon fill="#191970" stroke="#191970" points="2694.5233,-23.4699 2704.1882,-19.1295 2693.926,-16.4954 2694.5233,-23.4699"/>
</g>
<!-- Node31 -->
<g id="node32" class="node">
<title>Node31</title>
<polygon fill="#ffffff" stroke="#bfbfbf" points="3150,-.5 3150,-19.5 3250,-19.5 3250,-.5 3150,-.5"/>
<text text-anchor="middle" x="3200" y="-7.5" font-family="Helvetica,sans-Serif" font-size="10.00" fill="#000000">Teuchos_RCP.hpp</text>
</g>
<!-- Node5&#45;&gt;Node31 -->
<g id="edge31" class="edge">
<title>Node5&#45;&gt;Node31</title>
<path fill="none" stroke="#191970" d="M1601.0043,-64.0418C1641.6303,-61.8254 1710.6479,-58.2337 1770,-56 2375.6919,-33.2054 2532.5689,-78.5635 3139.5271,-19.9985"/>
<polygon fill="#191970" stroke="#191970" points="3140.2376,-23.4461 3149.8527,-18.9964 3139.5614,-16.4788 3140.2376,-23.4461"/>
</g>
<!-- Node32 -->
<g id="node33" class="node">
<title>Node32</title>
<polygon fill="#ffffff" stroke="#bfbfbf" points="2853.5,-.5 2853.5,-19.5 2914.5,-19.5 2914.5,-.5 2853.5,-.5"/>
<text text-anchor="middle" x="2884" y="-7.5" font-family="Helvetica,sans-Serif" font-size="10.00" fill="#000000">Amesos.h</text>
</g>
<!-- Node5&#45;&gt;Node32 -->
<g id="edge32" class="edge">
<title>Node5&#45;&gt;Node32</title>
<path fill="none" stroke="#191970" d="M1601.0073,-64.1187C1641.6361,-61.9736 1710.6563,-58.448 1770,-56 2005.5546,-46.283 2592.064,-53.6757 2843.221,-19.9247"/>
<polygon fill="#191970" stroke="#191970" points="2844.0484,-23.3434 2853.47,-18.4974 2843.0828,-16.4103 2844.0484,-23.3434"/>
</g>
<!-- Node33 -->
<g id="node34" class="node">
<title>Node33</title>
<polygon fill="#ffffff" stroke="#bfbfbf" points="2932.5,-.5 2932.5,-19.5 2997.5,-19.5 2997.5,-.5 2932.5,-.5"/>
<text text-anchor="middle" x="2965" y="-7.5" font-family="Helvetica,sans-Serif" font-size="10.00" fill="#000000">AztecOO.h</text>
</g>
<!-- Node5&#45;&gt;Node33 -->
<g id="edge33" class="edge">
<title>Node5&#45;&gt;Node33</title>
<path fill="none" stroke="#191970" d="M1601.0063,-64.0943C1641.6342,-61.9266 1710.6536,-58.3801 1770,-56 2023.1085,-45.8492 2653.4983,-54.3627 2922.2569,-19.9374"/>
<polygon fill="#191970" stroke="#191970" points="2922.9898,-23.371 2932.4435,-18.588 2922.0705,-16.4316 2922.9898,-23.371"/>
</g>
<!-- Node34 -->
<g id="node35" class="node">
<title>Node34</title>
<polygon fill="#ffffff" stroke="#bfbfbf" points="3016,-.5 3016,-19.5 3132,-19.5 3132,-.5 3016,-.5"/>
<text text-anchor="middle" x="3074" y="-7.5" font-family="Helvetica,sans-Serif" font-size="10.00" fill="#000000">Amesos_BaseSolver.h</text>
</g>
<!-- Node5&#45;&gt;Node34 -->
<g id="edge34" class="edge">
<title>Node5&#45;&gt;Node34</title>
<path fill="none" stroke="#191970" d="M1601.0054,-64.0721C1641.6325,-61.8837 1710.6511,-58.318 1770,-56 2316.2371,-34.6655 2457.4293,-68.2674 3005.797,-19.9954"/>
<polygon fill="#191970" stroke="#191970" points="3006.2935,-23.4653 3015.9458,-19.0968 3005.6761,-16.4925 3006.2935,-23.4653"/>
</g>
<!-- Node38 -->
<g id="node37" class="node">
<title>Node38</title>
<g id="a_node37"><a xlink:href="../../d2/d34/hyperelasticity_8hpp.html" target="_top" xlink:title="hyperelasticity.hpp">
<polygon fill="#ffffff" stroke="#000000" points="1619,-235.5 1619,-254.5 1717,-254.5 1717,-235.5 1619,-235.5"/>
<text text-anchor="middle" x="1668" y="-242.5" font-family="Helvetica,sans-Serif" font-size="10.00" fill="#000000">hyperelasticity.hpp</text>
</a>
</g>
</g>
<!-- Node37&#45;&gt;Node38 -->
<g id="edge36" class="edge">
<title>Node37&#45;&gt;Node38</title>
<path fill="none" stroke="#191970" d="M1668,-291.2455C1668,-283.9382 1668,-273.6944 1668,-264.7046"/>
<polygon fill="#191970" stroke="#191970" points="1671.5001,-264.6426 1668,-254.6427 1664.5001,-264.6427 1671.5001,-264.6426"/>
</g>
<!-- Node39 -->
<g id="node38" class="node">
<title>Node39</title>
<g id="a_node38"><a xlink:href="../../d4/d16/_non_linear_finite_element_problem_8hpp.html" target="_top" xlink:title="NonLinearFiniteElementProblem.hpp">
<polygon fill="#ffffff" stroke="#000000" points="1580,-174 1580,-193 1756,-193 1756,-174 1580,-174"/>
<text text-anchor="middle" x="1668" y="-181" font-family="Helvetica,sans-Serif" font-size="10.00" fill="#000000">NonLinearFiniteElementProblem.hpp</text>
</a>
</g>
</g>
<!-- Node38&#45;&gt;Node39 -->
<g id="edge37" class="edge">
<title>Node38&#45;&gt;Node39</title>
<path fill="none" stroke="#191970" d="M1668,-235.3906C1668,-226.8657 1668,-214.1392 1668,-203.4235"/>
<polygon fill="#191970" stroke="#191970" points="1671.5001,-203.2448 1668,-193.2449 1664.5001,-203.2449 1671.5001,-203.2448"/>
</g>
<!-- Node39&#45;&gt;Node5 -->
<g id="edge38" class="edge">
<title>Node39&#45;&gt;Node5</title>
<path fill="none" stroke="#191970" d="M1659.6529,-173.8845C1642.4686,-154.0889 1602.9259,-108.5372 1581.1197,-83.4173"/>
<polygon fill="#191970" stroke="#191970" points="1583.6609,-81.0056 1574.4624,-75.7484 1578.3748,-85.5944 1583.6609,-81.0056"/>
</g>
<!-- Node40 -->
<g id="node39" class="node">
<title>Node40</title>
<g id="a_node39"><a xlink:href="../../dd/d80/base_class_f_e_m_8hpp.html" target="_top" xlink:title="baseClassFEM.hpp">
<polygon fill="#ffffff" stroke="#000000" points="1634.5,-112.5 1634.5,-131.5 1737.5,-131.5 1737.5,-112.5 1634.5,-112.5"/>
<text text-anchor="middle" x="1686" y="-119.5" font-family="Helvetica,sans-Serif" font-size="10.00" fill="#000000">baseClassFEM.hpp</text>
</a>
</g>
</g>
<!-- Node39&#45;&gt;Node40 -->
<g id="edge39" class="edge">
<title>Node39&#45;&gt;Node40</title>
<path fill="none" stroke="#191970" d="M1670.8125,-173.8906C1673.3339,-165.276 1677.111,-152.3708 1680.2676,-141.5858"/>
<polygon fill="#191970" stroke="#191970" points="1683.6979,-142.3254 1683.1478,-131.7449 1676.9797,-140.3591 1683.6979,-142.3254"/>
</g>
<!-- Node40&#45;&gt;Node5 -->
<g id="edge40" class="edge">
<title>Node40&#45;&gt;Node5</title>
<path fill="none" stroke="#191970" d="M1665.3713,-112.3733C1646.1081,-103.3838 1617.1514,-89.8706 1595.4581,-79.7471"/>
<polygon fill="#191970" stroke="#191970" points="1596.9015,-76.5584 1586.3595,-75.5011 1593.9413,-82.9017 1596.9015,-76.5584"/>
</g>
<!-- Node41&#45;&gt;Node31 -->
<g id="edge43" class="edge">
<title>Node41&#45;&gt;Node31</title>
<path fill="none" stroke="#191970" d="M2182.8476,-243.054C2067.1066,-238.786 1827.9549,-226.6868 1803,-199 1793.7756,-188.7658 1793.8088,-178.2639 1803,-168 2000.4185,52.4596 2826.7202,-58.9969 3139.8024,-20.0312"/>
<polygon fill="#191970" stroke="#191970" points="3140.3631,-23.4876 3149.8185,-18.708 3139.4462,-16.5479 3140.3631,-23.4876"/>
</g>
<!-- Node41&#45;&gt;Node39 -->
<g id="edge42" class="edge">
<title>Node41&#45;&gt;Node39</title>
<path fill="none" stroke="#191970" d="M2182.637,-240.0466C2091.7331,-232.5799 1917.5818,-217.3457 1770,-199 1759.3171,-197.672 1748.0282,-196.1133 1737.0068,-194.5053"/>
<polygon fill="#191970" stroke="#191970" points="1737.3904,-191.024 1726.9853,-193.0199 1736.364,-197.9483 1737.3904,-191.024"/>
</g>
<!-- Node42 -->
<g id="node41" class="node">
<title>Node42</title>
<polygon fill="#ffffff" stroke="#bfbfbf" points="1812,-174 1812,-193 1864,-193 1864,-174 1812,-174"/>
<text text-anchor="middle" x="1838" y="-181" font-family="Helvetica,sans-Serif" font-size="10.00" fill="#000000">Ifpack.h</text>
</g>
<!-- Node41&#45;&gt;Node42 -->
<g id="edge44" class="edge">
<title>Node41&#45;&gt;Node42</title>
<path fill="none" stroke="#191970" d="M2182.6988,-242.8694C2107.9212,-239.0456 1979.3074,-228.4174 1873,-199 1870.8143,-198.3952 1868.5894,-197.6762 1866.3746,-196.8842"/>
<polygon fill="#191970" stroke="#191970" points="1867.4661,-193.5509 1856.882,-193.0725 1864.8576,-200.0468 1867.4661,-193.5509"/>
</g>
<!-- Node43 -->
<g id="node42" class="node">
<title>Node43</title>
<polygon fill="#ffffff" stroke="#bfbfbf" points="1882.5,-174 1882.5,-193 2013.5,-193 2013.5,-174 1882.5,-174"/>
<text text-anchor="middle" x="1948" y="-181" font-family="Helvetica,sans-Serif" font-size="10.00" fill="#000000">Ifpack_AdditiveSchwarz.h</text>
</g>
<!-- Node41&#45;&gt;Node43 -->
<g id="edge45" class="edge">
<title>Node41&#45;&gt;Node43</title>
<path fill="none" stroke="#191970" d="M2198.9196,-235.4581C2146.3527,-224.573 2060.4017,-206.7751 2004.0123,-195.0985"/>
<polygon fill="#191970" stroke="#191970" points="2004.6905,-191.6648 1994.1885,-193.0643 2003.271,-198.5193 2004.6905,-191.6648"/>
</g>
<!-- Node44 -->
<g id="node43" class="node">
<title>Node44</title>
<polygon fill="#ffffff" stroke="#bfbfbf" points="2032,-174 2032,-193 2154,-193 2154,-174 2032,-174"/>
<text text-anchor="middle" x="2093" y="-181" font-family="Helvetica,sans-Serif" font-size="10.00" fill="#000000">BelosLinearProblem.hpp</text>
</g>
<!-- Node41&#45;&gt;Node44 -->
<g id="edge46" class="edge">
<title>Node41&#45;&gt;Node44</title>
<path fill="none" stroke="#191970" d="M2221.25,-235.3906C2195.7061,-225.0554 2154.8991,-208.5447 2126.189,-196.9284"/>
<polygon fill="#191970" stroke="#191970" points="2127.166,-193.5481 2116.5832,-193.0419 2124.5404,-200.0371 2127.166,-193.5481"/>
</g>
<!-- Node45 -->
<g id="node44" class="node">
<title>Node45</title>
<polygon fill="#ffffff" stroke="#bfbfbf" points="2172.5,-174 2172.5,-193 2317.5,-193 2317.5,-174 2172.5,-174"/>
<text text-anchor="middle" x="2245" y="-181" font-family="Helvetica,sans-Serif" font-size="10.00" fill="#000000">BelosBlockGmresSolMgr.hpp</text>
</g>
<!-- Node41&#45;&gt;Node45 -->
<g id="edge47" class="edge">
<title>Node41&#45;&gt;Node45</title>
<path fill="none" stroke="#191970" d="M2245,-235.3906C2245,-226.8657 2245,-214.1392 2245,-203.4235"/>
<polygon fill="#191970" stroke="#191970" points="2248.5001,-203.2448 2245,-193.2449 2241.5001,-203.2449 2248.5001,-203.2448"/>
</g>
<!-- Node46 -->
<g id="node45" class="node">
<title>Node46</title>
<polygon fill="#ffffff" stroke="#bfbfbf" points="2336,-174 2336,-193 2458,-193 2458,-174 2336,-174"/>
<text text-anchor="middle" x="2397" y="-181" font-family="Helvetica,sans-Serif" font-size="10.00" fill="#000000">BelosEpetraAdapter.hpp</text>
</g>
<!-- Node41&#45;&gt;Node46 -->
<g id="edge48" class="edge">
<title>Node41&#45;&gt;Node46</title>
<path fill="none" stroke="#191970" d="M2268.75,-235.3906C2294.2939,-225.0554 2335.1009,-208.5447 2363.811,-196.9284"/>
<polygon fill="#191970" stroke="#191970" points="2365.4596,-200.0371 2373.4168,-193.0419 2362.834,-193.5481 2365.4596,-200.0371"/>
</g>
<!-- Node47 -->
<g id="node46" class="node">
<title>Node47</title>
<polygon fill="#ffffff" stroke="#bfbfbf" points="2476.5,-174 2476.5,-193 2597.5,-193 2597.5,-174 2476.5,-174"/>
<text text-anchor="middle" x="2537" y="-181" font-family="Helvetica,sans-Serif" font-size="10.00" fill="#000000">BelosSolverFactory.hpp</text>
</g>
<!-- Node41&#45;&gt;Node47 -->
<g id="edge49" class="edge">
<title>Node41&#45;&gt;Node47</title>
<path fill="none" stroke="#191970" d="M2291.8134,-235.4924C2336.7687,-226.3167 2406.5762,-211.9493 2467,-199 2472.6917,-197.7802 2478.64,-196.4888 2484.561,-195.1927"/>
<polygon fill="#191970" stroke="#191970" points="2485.4347,-198.5843 2494.45,-193.0188 2483.9317,-191.7476 2485.4347,-198.5843"/>
</g>
<!-- Node48 -->
<g id="node47" class="node">
<title>Node48</title>
<polygon fill="#ffffff" stroke="#bfbfbf" points="2616,-174 2616,-193 2792,-193 2792,-174 2616,-174"/>
<text text-anchor="middle" x="2704" y="-181" font-family="Helvetica,sans-Serif" font-size="10.00" fill="#000000">Teuchos_StandardCatchMacros.hpp</text>
</g>
<!-- Node41&#45;&gt;Node48 -->
<g id="edge50" class="edge">
<title>Node41&#45;&gt;Node48</title>
<path fill="none" stroke="#191970" d="M2307.2157,-237.7089C2379.4001,-229.107 2501.9588,-214.0624 2607,-199 2616.4594,-197.6436 2626.4252,-196.1383 2636.2224,-194.6144"/>
<polygon fill="#191970" stroke="#191970" points="2637.007,-198.0341 2646.3429,-193.025 2635.9209,-191.1189 2637.007,-198.0341"/>
</g>
<!-- Node49 -->
<g id="node48" class="node">
<title>Node49</title>
<polygon fill="#ffffff" stroke="#bfbfbf" points="2810.5,-174 2810.5,-193 2949.5,-193 2949.5,-174 2810.5,-174"/>
<text text-anchor="middle" x="2880" y="-181" font-family="Helvetica,sans-Serif" font-size="10.00" fill="#000000">Teuchos_ParameterList.hpp</text>
</g>
<!-- Node41&#45;&gt;Node49 -->
<g id="edge51" class="edge">
<title>Node41&#45;&gt;Node49</title>
<path fill="none" stroke="#191970" d="M2307.3701,-242.1062C2410.4793,-236.815 2622.801,-223.7749 2801,-199 2809.0704,-197.878 2817.5619,-196.4632 2825.8642,-194.9471"/>
<polygon fill="#191970" stroke="#191970" points="2826.6794,-198.3552 2835.8564,-193.0606 2825.3806,-191.4767 2826.6794,-198.3552"/>
</g>
<!-- Node50 -->
<g id="node49" class="node">
<title>Node50</title>
<polygon fill="#ffffff" stroke="#bfbfbf" points="2968,-168.5 2968,-198.5 3108,-198.5 3108,-168.5 2968,-168.5"/>
<text text-anchor="start" x="2976" y="-186.5" font-family="Helvetica,sans-Serif" font-size="10.00" fill="#000000">Teuchos_XMLParameterList</text>
<text text-anchor="middle" x="3038" y="-175.5" font-family="Helvetica,sans-Serif" font-size="10.00" fill="#000000">CoreHelpers.hpp</text>
</g>
<!-- Node41&#45;&gt;Node50 -->
<g id="edge52" class="edge">
<title>Node41&#45;&gt;Node50</title>
<path fill="none" stroke="#191970" d="M2307.3397,-243.6939C2430.0317,-240.5344 2711.5742,-230.3723 2957.6538,-199.0636"/>
<polygon fill="#191970" stroke="#191970" points="2958.3944,-202.4972 2967.8659,-197.7494 2957.5009,-195.5545 2958.3944,-202.4972"/>
</g>
<!-- Node51 -->
<g id="node50" class="node">
<title>Node51</title>
<polygon fill="#ffffff" stroke="#bfbfbf" points="3126.5,-168.5 3126.5,-198.5 3255.5,-198.5 3255.5,-168.5 3126.5,-168.5"/>
<text text-anchor="start" x="3134.5" y="-186.5" font-family="Helvetica,sans-Serif" font-size="10.00" fill="#000000">Stratimikos_DefaultLinear</text>
<text text-anchor="middle" x="3191" y="-175.5" font-family="Helvetica,sans-Serif" font-size="10.00" fill="#000000">SolverBuilder.hpp</text>
</g>
<!-- Node41&#45;&gt;Node51 -->
<g id="edge53" class="edge">
<title>Node41&#45;&gt;Node51</title>
<path fill="none" stroke="#191970" d="M2307.1161,-242.9671C2475.9026,-237.2486 2941.4302,-220.1341 3116.0405,-198.9485"/>
<polygon fill="#191970" stroke="#191970" points="3116.6405,-202.4006 3126.1244,-197.6776 3115.7652,-195.4556 3116.6405,-202.4006"/>
</g>
</g>
</svg>
