<?xml version="1.0" encoding="UTF-8" standalone="no"?>
<!DOCTYPE svg PUBLIC "-//W3C//DTD SVG 1.1//EN"
 "http://www.w3.org/Graphics/SVG/1.1/DTD/svg11.dtd">
<!-- Generated by graphviz version 2.40.1 (20161225.0304)
 -->
<!-- Title: LinearizedElasticity Pages: 1 -->
<svg width="358pt" height="202pt"
 viewBox="0.00 0.00 358.08 202.00" xmlns="http://www.w3.org/2000/svg" xmlns:xlink="http://www.w3.org/1999/xlink">
<g id="graph0" class="graph" transform="scale(1 1) rotate(0) translate(4 198)">
<title>LinearizedElasticity</title>
<polygon fill="#ffffff" stroke="transparent" points="-4,4 -4,-198 354.0835,-198 354.0835,4 -4,4"/>
<!-- Node0 -->
<g id="node1" class="node">
<title>Node0</title>
<polygon fill="#bfbfbf" stroke="#000000" points="115.7119,-55.5 115.7119,-73.5 217.3076,-73.5 217.3076,-55.5 115.7119,-55.5"/>
<text text-anchor="middle" x="166.5098" y="-61.5" font-family="Helvetica,sans-Serif" font-size="10.00" fill="#000000">LinearizedElasticity</text>
</g>
<!-- Node3 -->
<g id="node4" class="node">
<title>Node3</title>
<g id="a_node4"><a xlink:href="../../da/d18/class_a_s_m_e_s_b_v_p.html" target="_top" xlink:title="ASMESBVP">
<polygon fill="#ffffff" stroke="#000000" points="0,-.5 0,-18.5 71.0195,-18.5 71.0195,-.5 0,-.5"/>
<text text-anchor="middle" x="35.5098" y="-6.5" font-family="Helvetica,sans-Serif" font-size="10.00" fill="#000000">ASMESBVP</text>
</a>
</g>
</g>
<!-- Node0&#45;&gt;Node3 -->
<g id="edge3" class="edge">
<title>Node0&#45;&gt;Node3</title>
<path fill="none" stroke="#191970" d="M135.4586,-51.4633C111.3427,-41.3383 78.5184,-27.5571 57.1739,-18.5956"/>
<polygon fill="#191970" stroke="#191970" points="134.3025,-54.7738 144.8778,-55.4179 137.0124,-48.3196 134.3025,-54.7738"/>
</g>
<!-- Node4 -->
<g id="node5" class="node">
<title>Node4</title>
<g id="a_node5"><a xlink:href="../../de/dcc/class_c_e_e_s_b_v_p.html" target="_top" xlink:title="CEESBVP">
<polygon fill="#ffffff" stroke="#000000" points="88.8892,-.5 88.8892,-18.5 152.1304,-18.5 152.1304,-.5 88.8892,-.5"/>
<text text-anchor="middle" x="120.5098" y="-6.5" font-family="Helvetica,sans-Serif" font-size="10.00" fill="#000000">CEESBVP</text>
</a>
</g>
</g>
<!-- Node0&#45;&gt;Node4 -->
<g id="edge4" class="edge">
<title>Node0&#45;&gt;Node4</title>
<path fill="none" stroke="#191970" d="M152.48,-47.7253C144.526,-38.215 134.8746,-26.6754 128.2708,-18.7795"/>
<polygon fill="#191970" stroke="#191970" points="149.8134,-49.9925 158.9138,-55.4179 155.183,-45.5016 149.8134,-49.9925"/>
</g>
<!-- Node5 -->
<g id="node6" class="node">
<title>Node5</title>
<g id="a_node6"><a xlink:href="../../d2/d69/classlinear_patch_test.html" target="_top" xlink:title="linearPatchTest">
<polygon fill="#ffffff" stroke="#000000" points="170.3252,-.5 170.3252,-18.5 254.6943,-18.5 254.6943,-.5 170.3252,-.5"/>
<text text-anchor="middle" x="212.5098" y="-6.5" font-family="Helvetica,sans-Serif" font-size="10.00" fill="#000000">linearPatchTest</text>
</a>
</g>
</g>
<!-- Node0&#45;&gt;Node5 -->
<g id="edge5" class="edge">
<title>Node0&#45;&gt;Node5</title>
<path fill="none" stroke="#191970" d="M180.5395,-47.7253C188.4936,-38.215 198.1449,-26.6754 204.7488,-18.7795"/>
<polygon fill="#191970" stroke="#191970" points="177.8365,-45.5016 174.1057,-55.4179 183.2061,-49.9925 177.8365,-45.5016"/>
</g>
<!-- Node6 -->
<g id="node7" class="node">
<title>Node6</title>
<g id="a_node7"><a xlink:href="../../d7/da3/classmanufactured.html" target="_top" xlink:title="manufactured">
<polygon fill="#ffffff" stroke="#000000" points="272.936,-.5 272.936,-18.5 350.0835,-18.5 350.0835,-.5 272.936,-.5"/>
<text text-anchor="middle" x="311.5098" y="-6.5" font-family="Helvetica,sans-Serif" font-size="10.00" fill="#000000">manufactured</text>
</a>
</g>
</g>
<!-- Node0&#45;&gt;Node6 -->
<g id="edge6" class="edge">
<title>Node0&#45;&gt;Node6</title>
<path fill="none" stroke="#191970" d="M199.8168,-51.8663C226.6014,-41.7066 263.5898,-27.6765 287.5304,-18.5956"/>
<polygon fill="#191970" stroke="#191970" points="198.5622,-48.5988 190.4536,-55.4179 201.0449,-55.1438 198.5622,-48.5988"/>
</g>
<!-- Node1 -->
<g id="node2" class="node">
<title>Node1</title>
<g id="a_node2"><a xlink:href="../../d3/d9f/class_linear___finite___element___problem.html" target="_top" xlink:title="Linear_Finite_Element\l_Problem">
<polygon fill="#ffffff" stroke="#000000" points="108.4805,-110.5 108.4805,-138.5 224.5391,-138.5 224.5391,-110.5 108.4805,-110.5"/>
<text text-anchor="start" x="116.4805" y="-126.5" font-family="Helvetica,sans-Serif" font-size="10.00" fill="#000000">Linear_Finite_Element</text>
<text text-anchor="middle" x="166.5098" y="-116.5" font-family="Helvetica,sans-Serif" font-size="10.00" fill="#000000">_Problem</text>
</a>
</g>
</g>
<!-- Node1&#45;&gt;Node0 -->
<g id="edge1" class="edge">
<title>Node1&#45;&gt;Node0</title>
<path fill="none" stroke="#191970" d="M166.5098,-100.2151C166.5098,-90.8253 166.5098,-80.6598 166.5098,-73.5842"/>
<polygon fill="#191970" stroke="#191970" points="163.0099,-100.2808 166.5098,-110.2808 170.0099,-100.2809 163.0099,-100.2808"/>
</g>
<!-- Node2 -->
<g id="node3" class="node">
<title>Node2</title>
<g id="a_node3"><a xlink:href="../../d2/d97/class_base_class_f_e_m.html" target="_top" xlink:title="BaseClassFEM">
<polygon fill="#ffffff" stroke="#000000" points="124.0566,-175.5 124.0566,-193.5 208.9629,-193.5 208.9629,-175.5 124.0566,-175.5"/>
<text text-anchor="middle" x="166.5098" y="-181.5" font-family="Helvetica,sans-Serif" font-size="10.00" fill="#000000">BaseClassFEM</text>
</a>
</g>
</g>
<!-- Node2&#45;&gt;Node1 -->
<g id="edge2" class="edge">
<title>Node2&#45;&gt;Node1</title>
<path fill="none" stroke="#191970" d="M166.5098,-165.1865C166.5098,-156.6283 166.5098,-146.7354 166.5098,-138.8477"/>
<polygon fill="#191970" stroke="#191970" points="163.0099,-165.3873 166.5098,-175.3873 170.0099,-165.3873 163.0099,-165.3873"/>
</g>
</g>
</svg>
