<?xml version="1.0" encoding="UTF-8" standalone="no"?>
<!DOCTYPE svg PUBLIC "-//W3C//DTD SVG 1.1//EN"
 "http://www.w3.org/Graphics/SVG/1.1/DTD/svg11.dtd">
<!-- Generated by graphviz version 2.40.1 (20161225.0304)
 -->
<!-- Title: compressibleHyperelasticity Pages: 1 -->
<svg width="148pt" height="266pt"
 viewBox="0.00 0.00 148.00 266.00" xmlns="http://www.w3.org/2000/svg" xmlns:xlink="http://www.w3.org/1999/xlink">
<g id="graph0" class="graph" transform="scale(1 1) rotate(0) translate(4 262)">
<title>compressibleHyperelasticity</title>
<polygon fill="#ffffff" stroke="transparent" points="-4,4 -4,-262 144,-262 144,4 -4,4"/>
<!-- Node9 -->
<g id="node1" class="node">
<title>Node9</title>
<polygon fill="#bfbfbf" stroke="#000000" points="0,-.5 0,-19.5 140,-19.5 140,-.5 0,-.5"/>
<text text-anchor="middle" x="70" y="-7.5" font-family="Helvetica,sans-Serif" font-size="10.00" fill="#000000">compressibleHyperelasticity</text>
</g>
<!-- Node10 -->
<g id="node2" class="node">
<title>Node10</title>
<g id="a_node2"><a xlink:href="../../dc/d5a/classhyperelasticity.html" target="_top" xlink:title="hyperelasticity">
<polygon fill="#ffffff" stroke="#000000" points="30,-57.5 30,-76.5 110,-76.5 110,-57.5 30,-57.5"/>
<text text-anchor="middle" x="70" y="-64.5" font-family="Helvetica,sans-Serif" font-size="10.00" fill="#000000">hyperelasticity</text>
</a>
</g>
</g>
<!-- Node10&#45;&gt;Node9 -->
<g id="edge1" class="edge">
<title>Node10&#45;&gt;Node9</title>
<path fill="none" stroke="#191970" d="M70,-47.2342C70,-37.8491 70,-27.0651 70,-19.5265"/>
<polygon fill="#191970" stroke="#191970" points="66.5001,-47.3307 70,-57.3307 73.5001,-47.3308 66.5001,-47.3307"/>
</g>
<!-- Node11 -->
<g id="node3" class="node">
<title>Node11</title>
<g id="a_node3"><a xlink:href="../../d8/dc2/class_finite___element___problem.html" target="_top" xlink:title="Finite_Element_Problem">
<polygon fill="#ffffff" stroke="#000000" points="8.5,-114.5 8.5,-133.5 131.5,-133.5 131.5,-114.5 8.5,-114.5"/>
<text text-anchor="middle" x="70" y="-121.5" font-family="Helvetica,sans-Serif" font-size="10.00" fill="#000000">Finite_Element_Problem</text>
</a>
</g>
</g>
<!-- Node11&#45;&gt;Node10 -->
<g id="edge2" class="edge">
<title>Node11&#45;&gt;Node10</title>
<path fill="none" stroke="#191970" d="M70,-104.2342C70,-94.8491 70,-84.0651 70,-76.5265"/>
<polygon fill="#191970" stroke="#191970" points="66.5001,-104.3307 70,-114.3307 73.5001,-104.3308 66.5001,-104.3307"/>
</g>
<!-- Node12 -->
<g id="node4" class="node">
<title>Node12</title>
<g id="a_node4"><a xlink:href="../../d2/d97/class_base_class_f_e_m.html" target="_top" xlink:title="BaseClassFEM">
<polygon fill="#ffffff" stroke="#000000" points="27,-171.5 27,-190.5 113,-190.5 113,-171.5 27,-171.5"/>
<text text-anchor="middle" x="70" y="-178.5" font-family="Helvetica,sans-Serif" font-size="10.00" fill="#000000">BaseClassFEM</text>
</a>
</g>
</g>
<!-- Node12&#45;&gt;Node11 -->
<g id="edge3" class="edge">
<title>Node12&#45;&gt;Node11</title>
<path fill="none" stroke="#191970" d="M70,-161.2342C70,-151.8491 70,-141.0651 70,-133.5265"/>
<polygon fill="#191970" stroke="#191970" points="66.5001,-161.3307 70,-171.3307 73.5001,-161.3308 66.5001,-161.3307"/>
</g>
<!-- Node13 -->
<g id="node5" class="node">
<title>Node13</title>
<g id="a_node5"><a xlink:href="../../d6/d6b/classmesh.html" target="_top" xlink:title="mesh">
<polygon fill="#ffffff" stroke="#000000" points="49.5,-238.5 49.5,-257.5 90.5,-257.5 90.5,-238.5 49.5,-238.5"/>
<text text-anchor="middle" x="70" y="-245.5" font-family="Helvetica,sans-Serif" font-size="10.00" fill="#000000">mesh</text>
</a>
</g>
</g>
<!-- Node13&#45;&gt;Node12 -->
<g id="edge4" class="edge">
<title>Node13&#45;&gt;Node12</title>
<path fill="none" stroke="#9a32cd" stroke-dasharray="5,2" d="M70,-228.1079C70,-215.714 70,-200.3263 70,-190.5817"/>
<polygon fill="#9a32cd" stroke="#9a32cd" points="66.5001,-228.4005 70,-238.4005 73.5001,-228.4006 66.5001,-228.4005"/>
<text text-anchor="middle" x="84" y="-212" font-family="Helvetica,sans-Serif" font-size="10.00" fill="#000000"> Mesh</text>
</g>
</g>
</svg>
