<?xml version="1.0" encoding="UTF-8" standalone="no"?>
<!DOCTYPE svg PUBLIC "-//W3C//DTD SVG 1.1//EN"
 "http://www.w3.org/Graphics/SVG/1.1/DTD/svg11.dtd">
<!-- Generated by graphviz version 2.40.1 (20161225.0304)
 -->
<!-- Title: nrl/manufactured_solution/manufacturedSolution.hpp Pages: 1 -->
<svg width="3411pt" height="322pt"
 viewBox="0.00 0.00 3411.07 322.00" xmlns="http://www.w3.org/2000/svg" xmlns:xlink="http://www.w3.org/1999/xlink">
<g id="graph0" class="graph" transform="scale(1 1) rotate(0) translate(4 318)">
<title>nrl/manufactured_solution/manufacturedSolution.hpp</title>
<polygon fill="#ffffff" stroke="transparent" points="-4,4 -4,-318 3407.0737,-318 3407.0737,4 -4,4"/>
<!-- Node0 -->
<g id="node1" class="node">
<title>Node0</title>
<polygon fill="#bfbfbf" stroke="#000000" points="2649.6948,-285.5 2649.6948,-313.5 2785.2212,-313.5 2785.2212,-285.5 2649.6948,-285.5"/>
<text text-anchor="start" x="2657.6948" y="-301.5" font-family="Helvetica,sans-Serif" font-size="10.00" fill="#000000">nrl/manufactured_solution</text>
<text text-anchor="middle" x="2717.458" y="-291.5" font-family="Helvetica,sans-Serif" font-size="10.00" fill="#000000">/manufacturedSolution.hpp</text>
</g>
<!-- Node1 -->
<g id="node2" class="node">
<title>Node1</title>
<g id="a_node2"><a xlink:href="../../de/d49/tensor__calculus_8hpp.html" target="_top" xlink:title="tensor_calculus.hpp">
<polygon fill="#ffffff" stroke="#000000" points="2779.9854,-230.5 2779.9854,-248.5 2884.9307,-248.5 2884.9307,-230.5 2779.9854,-230.5"/>
<text text-anchor="middle" x="2832.458" y="-236.5" font-family="Helvetica,sans-Serif" font-size="10.00" fill="#000000">tensor_calculus.hpp</text>
</a>
</g>
</g>
<!-- Node0&#45;&gt;Node1 -->
<g id="edge1" class="edge">
<title>Node0&#45;&gt;Node1</title>
<path fill="none" stroke="#191970" d="M2744.4204,-285.4327C2762.9633,-275.7581 2787.4752,-262.9693 2805.925,-253.3433"/>
<polygon fill="#191970" stroke="#191970" points="2807.7099,-256.3598 2814.9568,-248.6311 2804.4719,-250.1537 2807.7099,-256.3598"/>
</g>
<!-- Node34 -->
<g id="node35" class="node">
<title>Node34</title>
<g id="a_node35"><a xlink:href="../../d7/d17/_newton___raphsonpp_8hpp.html" target="_top" xlink:title="Newton_Raphsonpp.hpp">
<polygon fill="#ffffff" stroke="#000000" points="2174.4165,-175.5 2174.4165,-193.5 2300.4995,-193.5 2300.4995,-175.5 2174.4165,-175.5"/>
<text text-anchor="middle" x="2237.458" y="-181.5" font-family="Helvetica,sans-Serif" font-size="10.00" fill="#000000">Newton_Raphsonpp.hpp</text>
</a>
</g>
</g>
<!-- Node0&#45;&gt;Node34 -->
<g id="edge35" class="edge">
<title>Node0&#45;&gt;Node34</title>
<path fill="none" stroke="#191970" d="M2658.6006,-285.3987C2562.3013,-262.327 2372.9788,-216.9685 2284.772,-195.8356"/>
<polygon fill="#191970" stroke="#191970" points="2285.5756,-192.4292 2275.0353,-193.5029 2283.9446,-199.2365 2285.5756,-192.4292"/>
</g>
<!-- Node47 -->
<g id="node47" class="node">
<title>Node47</title>
<g id="a_node47"><a xlink:href="../../d5/d75/distributenrldata_8hpp.html" target="_top" xlink:title="distributenrldata.hpp">
<polygon fill="#ffffff" stroke="#000000" points="3088.1504,-115.5 3088.1504,-133.5 3194.7656,-133.5 3194.7656,-115.5 3088.1504,-115.5"/>
<text text-anchor="middle" x="3141.458" y="-121.5" font-family="Helvetica,sans-Serif" font-size="10.00" fill="#000000">distributenrldata.hpp</text>
</a>
</g>
</g>
<!-- Node0&#45;&gt;Node47 -->
<g id="edge49" class="edge">
<title>Node0&#45;&gt;Node47</title>
<path fill="none" stroke="#191970" d="M2772.2658,-285.4819C2807.2494,-276.1156 2853.3902,-262.9831 2893.458,-249 2953.8519,-227.9233 2969.3662,-222.8475 3026.458,-194 3059.9466,-177.0788 3096.7495,-153.9859 3119.4828,-139.1559"/>
<polygon fill="#191970" stroke="#191970" points="3121.5997,-141.9528 3128.0325,-133.5344 3117.754,-136.1038 3121.5997,-141.9528"/>
</g>
<!-- Node49 -->
<g id="node49" class="node">
<title>Node49</title>
<g id="a_node49"><a xlink:href="../../da/d5c/compressible_hyperelasticity_8hpp.html" target="_top" xlink:title="compressibleHyperelasticity.hpp">
<polygon fill="#ffffff" stroke="#000000" points="1802.1299,-230.5 1802.1299,-248.5 1960.7861,-248.5 1960.7861,-230.5 1802.1299,-230.5"/>
<text text-anchor="middle" x="1881.458" y="-236.5" font-family="Helvetica,sans-Serif" font-size="10.00" fill="#000000">compressibleHyperelasticity.hpp</text>
</a>
</g>
</g>
<!-- Node0&#45;&gt;Node49 -->
<g id="edge67" class="edge">
<title>Node0&#45;&gt;Node49</title>
<path fill="none" stroke="#191970" d="M2649.3991,-294.6154C2499.1651,-283.833 2139.1997,-257.9982 1970.9604,-245.9236"/>
<polygon fill="#191970" stroke="#191970" points="1971.1181,-242.426 1960.8932,-245.2011 1970.6169,-249.4081 1971.1181,-242.426"/>
</g>
<!-- Node2 -->
<g id="node3" class="node">
<title>Node2</title>
<g id="a_node3"><a xlink:href="../../d0/d02/meshpp_8hpp.html" target="_top" xlink:title="meshpp.hpp">
<polygon fill="#ffffff" stroke="#000000" points="1968.9385,-55.5 1968.9385,-73.5 2039.9775,-73.5 2039.9775,-55.5 1968.9385,-55.5"/>
<text text-anchor="middle" x="2004.458" y="-61.5" font-family="Helvetica,sans-Serif" font-size="10.00" fill="#000000">meshpp.hpp</text>
</a>
</g>
</g>
<!-- Node1&#45;&gt;Node2 -->
<g id="edge2" class="edge">
<title>Node1&#45;&gt;Node2</title>
<path fill="none" stroke="#191970" d="M2853.0057,-230.3828C2898.1107,-209.2167 2998.4626,-155.1114 2955.458,-110 2923.9041,-76.9003 2236.0658,-67.0243 2050.3287,-64.9563"/>
<polygon fill="#191970" stroke="#191970" points="2050.1255,-61.454 2040.0879,-64.8446 2050.0491,-68.4536 2050.1255,-61.454"/>
</g>
<!-- Node3 -->
<g id="node4" class="node">
<title>Node3</title>
<polygon fill="#ffffff" stroke="#bfbfbf" points="3162.7266,-.5 3162.7266,-18.5 3208.1895,-18.5 3208.1895,-.5 3162.7266,-.5"/>
<text text-anchor="middle" x="3185.458" y="-6.5" font-family="Helvetica,sans-Serif" font-size="10.00" fill="#000000">stdio.h</text>
</g>
<!-- Node2&#45;&gt;Node3 -->
<g id="edge3" class="edge">
<title>Node2&#45;&gt;Node3</title>
<path fill="none" stroke="#191970" d="M2040.0438,-64.282C2206.6269,-63.0824 2911.0454,-55.9733 3152.4342,-18.6717"/>
<polygon fill="#191970" stroke="#191970" points="3153.2288,-22.089 3162.5463,-17.0456 3152.1174,-15.1778 3153.2288,-22.089"/>
</g>
<!-- Node4 -->
<g id="node5" class="node">
<title>Node4</title>
<polygon fill="#ffffff" stroke="#bfbfbf" points="3090.2856,-.5 3090.2856,-18.5 3144.6304,-18.5 3144.6304,-.5 3090.2856,-.5"/>
<text text-anchor="middle" x="3117.458" y="-6.5" font-family="Helvetica,sans-Serif" font-size="10.00" fill="#000000">iostream</text>
</g>
<!-- Node2&#45;&gt;Node4 -->
<g id="edge4" class="edge">
<title>Node2&#45;&gt;Node4</title>
<path fill="none" stroke="#191970" d="M2040.201,-64.026C2200.365,-61.7455 2853.6667,-50.7393 3079.9414,-18.864"/>
<polygon fill="#191970" stroke="#191970" points="3080.6819,-22.2929 3090.0685,-17.3795 3079.6666,-15.367 3080.6819,-22.2929"/>
</g>
<!-- Node5 -->
<g id="node6" class="node">
<title>Node5</title>
<polygon fill="#ffffff" stroke="#bfbfbf" points="3293.0664,-.5 3293.0664,-18.5 3341.8496,-18.5 3341.8496,-.5 3293.0664,-.5"/>
<text text-anchor="middle" x="3317.458" y="-6.5" font-family="Helvetica,sans-Serif" font-size="10.00" fill="#000000">istream</text>
</g>
<!-- Node2&#45;&gt;Node5 -->
<g id="edge5" class="edge">
<title>Node2&#45;&gt;Node5</title>
<path fill="none" stroke="#191970" d="M2040.1199,-64.4097C2218.3752,-63.7811 3014.5033,-58.8392 3282.659,-18.8784"/>
<polygon fill="#191970" stroke="#191970" points="3283.3914,-22.3068 3292.739,-17.3194 3282.3215,-15.389 3283.3914,-22.3068"/>
</g>
<!-- Node6 -->
<g id="node7" class="node">
<title>Node6</title>
<polygon fill="#ffffff" stroke="#bfbfbf" points="3225.7881,-.5 3225.7881,-18.5 3275.1279,-18.5 3275.1279,-.5 3225.7881,-.5"/>
<text text-anchor="middle" x="3250.458" y="-6.5" font-family="Helvetica,sans-Serif" font-size="10.00" fill="#000000">fstream</text>
</g>
<!-- Node2&#45;&gt;Node6 -->
<g id="edge6" class="edge">
<title>Node2&#45;&gt;Node6</title>
<path fill="none" stroke="#191970" d="M2040.2582,-64.3277C2212.9858,-63.32 2961.9487,-56.894 3215.8304,-18.8556"/>
<polygon fill="#191970" stroke="#191970" points="3216.3951,-22.3099 3225.7381,-17.314 3215.3189,-15.3931 3216.3951,-22.3099"/>
</g>
<!-- Node7 -->
<g id="node8" class="node">
<title>Node7</title>
<polygon fill="#ffffff" stroke="#bfbfbf" points="3359.8423,-.5 3359.8423,-18.5 3403.0737,-18.5 3403.0737,-.5 3359.8423,-.5"/>
<text text-anchor="middle" x="3381.458" y="-6.5" font-family="Helvetica,sans-Serif" font-size="10.00" fill="#000000">vector</text>
</g>
<!-- Node2&#45;&gt;Node7 -->
<g id="edge7" class="edge">
<title>Node2&#45;&gt;Node7</title>
<path fill="none" stroke="#191970" d="M2040.1602,-63.8551C2236.0402,-60.2435 3177.3516,-41.916 3349.6074,-18.4887"/>
<polygon fill="#191970" stroke="#191970" points="3350.2504,-21.9313 3359.6141,-16.9744 3349.203,-15.0101 3350.2504,-21.9313"/>
</g>
<!-- Node8 -->
<g id="node9" class="node">
<title>Node8</title>
<polygon fill="#ffffff" stroke="#bfbfbf" points="3020.9482,-.5 3020.9482,-18.5 3071.9678,-18.5 3071.9678,-.5 3020.9482,-.5"/>
<text text-anchor="middle" x="3046.458" y="-6.5" font-family="Helvetica,sans-Serif" font-size="10.00" fill="#000000">iomanip</text>
</g>
<!-- Node2&#45;&gt;Node8 -->
<g id="edge8" class="edge">
<title>Node2&#45;&gt;Node8</title>
<path fill="none" stroke="#191970" d="M2040.2069,-63.9382C2193.7316,-61.3662 2798.5232,-49.5659 3010.5062,-18.7291"/>
<polygon fill="#191970" stroke="#191970" points="3011.2391,-22.1581 3020.6015,-17.1987 3010.1898,-15.2372 3011.2391,-22.1581"/>
</g>
<!-- Node9 -->
<g id="node10" class="node">
<title>Node9</title>
<polygon fill="#ffffff" stroke="#bfbfbf" points="2328.9976,-.5 2328.9976,-18.5 2433.9185,-18.5 2433.9185,-.5 2328.9976,-.5"/>
<text text-anchor="middle" x="2381.458" y="-6.5" font-family="Helvetica,sans-Serif" font-size="10.00" fill="#000000">Epetra_MpiComm.h</text>
</g>
<!-- Node2&#45;&gt;Node9 -->
<g id="edge9" class="edge">
<title>Node2&#45;&gt;Node9</title>
<path fill="none" stroke="#191970" d="M2040.3755,-59.4143C2097.1006,-51.36 2211.1717,-35.0731 2318.6525,-19.1097"/>
<polygon fill="#191970" stroke="#191970" points="2319.3211,-22.5488 2328.6975,-17.6158 2318.2914,-15.625 2319.3211,-22.5488"/>
</g>
<!-- Node10 -->
<g id="node11" class="node">
<title>Node10</title>
<polygon fill="#ffffff" stroke="#bfbfbf" points="2451.7144,-.5 2451.7144,-18.5 2567.2017,-18.5 2567.2017,-.5 2451.7144,-.5"/>
<text text-anchor="middle" x="2509.458" y="-6.5" font-family="Helvetica,sans-Serif" font-size="10.00" fill="#000000">Epetra_FECrsGraph.h</text>
</g>
<!-- Node2&#45;&gt;Node10 -->
<g id="edge10" class="edge">
<title>Node2&#45;&gt;Node10</title>
<path fill="none" stroke="#191970" d="M2039.9925,-61.2624C2113.0306,-54.5099 2285.5391,-38.0595 2441.147,-19.1224"/>
<polygon fill="#191970" stroke="#191970" points="2441.87,-22.5601 2451.3709,-17.8715 2441.0199,-15.6119 2441.87,-22.5601"/>
</g>
<!-- Node11 -->
<g id="node12" class="node">
<title>Node11</title>
<polygon fill="#ffffff" stroke="#bfbfbf" points="0,-.5 0,-18.5 114.916,-18.5 114.916,-.5 0,-.5"/>
<text text-anchor="middle" x="57.458" y="-6.5" font-family="Helvetica,sans-Serif" font-size="10.00" fill="#000000">Epetra_FECrsMatrix.h</text>
</g>
<!-- Node2&#45;&gt;Node11 -->
<g id="edge11" class="edge">
<title>Node2&#45;&gt;Node11</title>
<path fill="none" stroke="#191970" d="M1968.6536,-64.2154C1743.7108,-62.3406 522.5884,-50.8628 125.0977,-19.0216"/>
<polygon fill="#191970" stroke="#191970" points="125.2576,-15.523 115.005,-18.1938 124.6853,-22.4996 125.2576,-15.523"/>
</g>
<!-- Node12 -->
<g id="node13" class="node">
<title>Node12</title>
<polygon fill="#ffffff" stroke="#bfbfbf" points="132.4829,-.5 132.4829,-18.5 232.4331,-18.5 232.4331,-.5 132.4829,-.5"/>
<text text-anchor="middle" x="182.458" y="-6.5" font-family="Helvetica,sans-Serif" font-size="10.00" fill="#000000">Epetra_FEVector.h</text>
</g>
<!-- Node2&#45;&gt;Node12 -->
<g id="edge12" class="edge">
<title>Node2&#45;&gt;Node12</title>
<path fill="none" stroke="#191970" d="M1968.8025,-64.2312C1752.6697,-62.5044 615.1517,-52.0068 242.6077,-18.9534"/>
<polygon fill="#191970" stroke="#191970" points="242.8879,-15.4645 232.6118,-18.0438 242.2535,-22.4357 242.8879,-15.4645"/>
</g>
<!-- Node13 -->
<g id="node14" class="node">
<title>Node13</title>
<polygon fill="#ffffff" stroke="#bfbfbf" points="250.8721,-.5 250.8721,-18.5 338.0439,-18.5 338.0439,-.5 250.8721,-.5"/>
<text text-anchor="middle" x="294.458" y="-6.5" font-family="Helvetica,sans-Serif" font-size="10.00" fill="#000000">Epetra_Vector.h</text>
</g>
<!-- Node2&#45;&gt;Node13 -->
<g id="edge13" class="edge">
<title>Node2&#45;&gt;Node13</title>
<path fill="none" stroke="#191970" d="M1968.9175,-64.25C1760.9149,-62.6783 698.7795,-53.1317 348.2198,-18.8701"/>
<polygon fill="#191970" stroke="#191970" points="348.3572,-15.3664 338.0574,-17.8492 347.6574,-22.3313 348.3572,-15.3664"/>
</g>
<!-- Node14 -->
<g id="node15" class="node">
<title>Node14</title>
<polygon fill="#ffffff" stroke="#bfbfbf" points="356.0493,-.5 356.0493,-18.5 434.8667,-18.5 434.8667,-.5 356.0493,-.5"/>
<text text-anchor="middle" x="395.458" y="-6.5" font-family="Helvetica,sans-Serif" font-size="10.00" fill="#000000">Epetra_Map.h</text>
</g>
<!-- Node2&#45;&gt;Node14 -->
<g id="edge14" class="edge">
<title>Node2&#45;&gt;Node14</title>
<path fill="none" stroke="#191970" d="M1968.7053,-64.2465C1767.565,-62.7018 774.6445,-53.4814 444.9848,-18.8139"/>
<polygon fill="#191970" stroke="#191970" points="445.2726,-15.3247 434.954,-17.7282 444.5193,-22.2841 445.2726,-15.3247"/>
</g>
<!-- Node15 -->
<g id="node16" class="node">
<title>Node15</title>
<polygon fill="#ffffff" stroke="#bfbfbf" points="2744.9287,-.5 2744.9287,-18.5 2885.9873,-18.5 2885.9873,-.5 2744.9287,-.5"/>
<text text-anchor="middle" x="2815.458" y="-6.5" font-family="Helvetica,sans-Serif" font-size="10.00" fill="#000000">Epetra_SerialDenseMatrix.h</text>
</g>
<!-- Node2&#45;&gt;Node15 -->
<g id="edge15" class="edge">
<title>Node2&#45;&gt;Node15</title>
<path fill="none" stroke="#191970" d="M2040.3132,-63.0041C2145.3575,-58.4661 2461.6868,-43.6911 2734.7413,-19.1116"/>
<polygon fill="#191970" stroke="#191970" points="2735.2009,-22.5844 2744.8441,-18.1958 2734.5689,-15.6129 2735.2009,-22.5844"/>
</g>
<!-- Node16 -->
<g id="node17" class="node">
<title>Node16</title>
<polygon fill="#ffffff" stroke="#bfbfbf" points="2585.6357,-.5 2585.6357,-18.5 2727.2803,-18.5 2727.2803,-.5 2585.6357,-.5"/>
<text text-anchor="middle" x="2656.458" y="-6.5" font-family="Helvetica,sans-Serif" font-size="10.00" fill="#000000">Epetra_SerialDenseVector.h</text>
</g>
<!-- Node2&#45;&gt;Node16 -->
<g id="edge16" class="edge">
<title>Node2&#45;&gt;Node16</title>
<path fill="none" stroke="#191970" d="M2039.9776,-62.1561C2128.4347,-56.2161 2365.9115,-39.6382 2575.1185,-19.0987"/>
<polygon fill="#191970" stroke="#191970" points="2575.7658,-22.5519 2585.3736,-18.0864 2575.0781,-15.5857 2575.7658,-22.5519"/>
</g>
<!-- Node17 -->
<g id="node18" class="node">
<title>Node17</title>
<polygon fill="#ffffff" stroke="#bfbfbf" points="453.0767,-.5 453.0767,-18.5 605.8394,-18.5 605.8394,-.5 453.0767,-.5"/>
<text text-anchor="middle" x="529.458" y="-6.5" font-family="Helvetica,sans-Serif" font-size="10.00" fill="#000000">Epetra_IntSerialDenseVector.h</text>
</g>
<!-- Node2&#45;&gt;Node17 -->
<g id="edge17" class="edge">
<title>Node2&#45;&gt;Node17</title>
<path fill="none" stroke="#191970" d="M1968.6963,-64.3622C1810.827,-63.5377 1160.4033,-57.8751 615.9067,-19.0479"/>
<polygon fill="#191970" stroke="#191970" points="616.1125,-15.5538 605.8876,-18.3288 615.6113,-22.5358 616.1125,-15.5538"/>
</g>
<!-- Node18 -->
<g id="node19" class="node">
<title>Node18</title>
<polygon fill="#ffffff" stroke="#bfbfbf" points="623.606,-.5 623.606,-18.5 711.3101,-18.5 711.3101,-.5 623.606,-.5"/>
<text text-anchor="middle" x="667.458" y="-6.5" font-family="Helvetica,sans-Serif" font-size="10.00" fill="#000000">Epetra_Import.h</text>
</g>
<!-- Node2&#45;&gt;Node18 -->
<g id="edge18" class="edge">
<title>Node2&#45;&gt;Node18</title>
<path fill="none" stroke="#191970" d="M1968.8598,-63.5409C1779.0429,-58.3873 888.7196,-33.7051 721.6988,-18.8689"/>
<polygon fill="#191970" stroke="#191970" points="721.6406,-15.3468 711.3487,-17.8622 720.9629,-22.3139 721.6406,-15.3468"/>
</g>
<!-- Node19 -->
<g id="node20" class="node">
<title>Node19</title>
<polygon fill="#ffffff" stroke="#bfbfbf" points="729.3252,-.5 729.3252,-18.5 817.5908,-18.5 817.5908,-.5 729.3252,-.5"/>
<text text-anchor="middle" x="773.458" y="-6.5" font-family="Helvetica,sans-Serif" font-size="10.00" fill="#000000">Epetra_Export.h</text>
</g>
<!-- Node2&#45;&gt;Node19 -->
<g id="edge19" class="edge">
<title>Node2&#45;&gt;Node19</title>
<path fill="none" stroke="#191970" d="M1968.9063,-63.793C1799.9518,-60.3325 1076.4216,-44.3567 827.7044,-18.9538"/>
<polygon fill="#191970" stroke="#191970" points="827.9502,-15.4604 817.6382,-17.892 827.2158,-22.4218 827.9502,-15.4604"/>
</g>
<!-- Node20 -->
<g id="node21" class="node">
<title>Node20</title>
<polygon fill="#ffffff" stroke="#bfbfbf" points="835.8481,-.5 835.8481,-18.5 917.0679,-18.5 917.0679,-.5 835.8481,-.5"/>
<text text-anchor="middle" x="876.458" y="-6.5" font-family="Helvetica,sans-Serif" font-size="10.00" fill="#000000">Epetra_Time.h</text>
</g>
<!-- Node2&#45;&gt;Node20 -->
<g id="edge20" class="edge">
<title>Node2&#45;&gt;Node20</title>
<path fill="none" stroke="#191970" d="M1968.6912,-63.7109C1808.4145,-60.0661 1154.5824,-44.0134 927.4601,-19.0477"/>
<polygon fill="#191970" stroke="#191970" points="927.6254,-15.544 917.2937,-17.8902 926.8336,-22.499 927.6254,-15.544"/>
</g>
<!-- Node21 -->
<g id="node22" class="node">
<title>Node21</title>
<polygon fill="#ffffff" stroke="#bfbfbf" points="934.7539,-.5 934.7539,-18.5 1084.1621,-18.5 1084.1621,-.5 934.7539,-.5"/>
<text text-anchor="middle" x="1009.458" y="-6.5" font-family="Helvetica,sans-Serif" font-size="10.00" fill="#000000">ml_MultiLevelPreconditioner.h</text>
</g>
<!-- Node2&#45;&gt;Node21 -->
<g id="edge21" class="edge">
<title>Node2&#45;&gt;Node21</title>
<path fill="none" stroke="#191970" d="M1968.8089,-63.5238C1847.7961,-60.0403 1441.4301,-46.9528 1094.5286,-19.0368"/>
<polygon fill="#191970" stroke="#191970" points="1094.7911,-15.5467 1084.5411,-18.2277 1094.2258,-22.5239 1094.7911,-15.5467"/>
</g>
<!-- Node22 -->
<g id="node23" class="node">
<title>Node22</title>
<polygon fill="#ffffff" stroke="#bfbfbf" points="1102.3818,-.5 1102.3818,-18.5 1194.5342,-18.5 1194.5342,-.5 1102.3818,-.5"/>
<text text-anchor="middle" x="1148.458" y="-6.5" font-family="Helvetica,sans-Serif" font-size="10.00" fill="#000000">ml_epetra_utils.h</text>
</g>
<!-- Node2&#45;&gt;Node22 -->
<g id="edge22" class="edge">
<title>Node2&#45;&gt;Node22</title>
<path fill="none" stroke="#191970" d="M1968.8052,-63.9264C1857.4146,-61.8276 1505.8869,-52.8809 1204.8538,-19.0299"/>
<polygon fill="#191970" stroke="#191970" points="1204.9476,-15.5181 1194.6164,-17.8668 1204.1573,-22.4733 1204.9476,-15.5181"/>
</g>
<!-- Node23 -->
<g id="node24" class="node">
<title>Node23</title>
<polygon fill="#ffffff" stroke="#bfbfbf" points="1212.3867,-.5 1212.3867,-18.5 1284.5293,-18.5 1284.5293,-.5 1212.3867,-.5"/>
<text text-anchor="middle" x="1248.458" y="-6.5" font-family="Helvetica,sans-Serif" font-size="10.00" fill="#000000">ml_include.h</text>
</g>
<!-- Node2&#45;&gt;Node23 -->
<g id="edge23" class="edge">
<title>Node2&#45;&gt;Node23</title>
<path fill="none" stroke="#191970" d="M1968.7663,-64.0315C1865.7096,-62.2943 1558.7373,-54.416 1294.8851,-19.0056"/>
<polygon fill="#191970" stroke="#191970" points="1295.1089,-15.5039 1284.7288,-17.6259 1294.1666,-22.4402 1295.1089,-15.5039"/>
</g>
<!-- Node24 -->
<g id="node25" class="node">
<title>Node24</title>
<polygon fill="#ffffff" stroke="#bfbfbf" points="1302.8794,-.5 1302.8794,-18.5 1440.0366,-18.5 1440.0366,-.5 1302.8794,-.5"/>
<text text-anchor="middle" x="1371.458" y="-6.5" font-family="Helvetica,sans-Serif" font-size="10.00" fill="#000000">EpetraExt_RowMatrixOut.h</text>
</g>
<!-- Node2&#45;&gt;Node24 -->
<g id="edge24" class="edge">
<title>Node2&#45;&gt;Node24</title>
<path fill="none" stroke="#191970" d="M1968.6352,-62.0812C1881.679,-56.1001 1652.3053,-39.6663 1450.486,-19.1756"/>
<polygon fill="#191970" stroke="#191970" points="1450.593,-15.6684 1440.2892,-18.1344 1449.8819,-22.6322 1450.593,-15.6684"/>
</g>
<!-- Node25 -->
<g id="node26" class="node">
<title>Node25</title>
<polygon fill="#ffffff" stroke="#bfbfbf" points="1457.7588,-.5 1457.7588,-18.5 1597.1572,-18.5 1597.1572,-.5 1457.7588,-.5"/>
<text text-anchor="middle" x="1527.458" y="-6.5" font-family="Helvetica,sans-Serif" font-size="10.00" fill="#000000">EpetraExt_MultiVectorOut.h</text>
</g>
<!-- Node2&#45;&gt;Node25 -->
<g id="edge25" class="edge">
<title>Node2&#45;&gt;Node25</title>
<path fill="none" stroke="#191970" d="M1968.7733,-60.4913C1900.7401,-52.8334 1747.5195,-35.5132 1607.3132,-19.0947"/>
<polygon fill="#191970" stroke="#191970" points="1607.5817,-15.6022 1597.2422,-17.9142 1606.7668,-22.5546 1607.5817,-15.6022"/>
</g>
<!-- Node26 -->
<g id="node27" class="node">
<title>Node26</title>
<polygon fill="#ffffff" stroke="#bfbfbf" points="1615.2046,-.5 1615.2046,-18.5 1725.7114,-18.5 1725.7114,-.5 1615.2046,-.5"/>
<text text-anchor="middle" x="1670.458" y="-6.5" font-family="Helvetica,sans-Serif" font-size="10.00" fill="#000000">EpetraExt_VectorIn.h</text>
</g>
<!-- Node2&#45;&gt;Node26 -->
<g id="edge26" class="edge">
<title>Node2&#45;&gt;Node26</title>
<path fill="none" stroke="#191970" d="M1968.7142,-58.614C1913.0559,-49.4488 1804.8505,-31.6305 1735.2098,-20.1627"/>
<polygon fill="#191970" stroke="#191970" points="1735.6615,-16.69 1725.2256,-18.5186 1734.524,-23.597 1735.6615,-16.69"/>
</g>
<!-- Node27 -->
<g id="node28" class="node">
<title>Node27</title>
<polygon fill="#ffffff" stroke="#bfbfbf" points="1743.6479,-.5 1743.6479,-18.5 1875.2681,-18.5 1875.2681,-.5 1743.6479,-.5"/>
<text text-anchor="middle" x="1809.458" y="-6.5" font-family="Helvetica,sans-Serif" font-size="10.00" fill="#000000">EpetraExt_MultiVectorIn.h</text>
</g>
<!-- Node2&#45;&gt;Node27 -->
<g id="edge27" class="edge">
<title>Node2&#45;&gt;Node27</title>
<path fill="none" stroke="#191970" d="M1972.2577,-55.4179C1939.1334,-46.0751 1887.3992,-31.4834 1851.1631,-21.263"/>
<polygon fill="#191970" stroke="#191970" points="1851.9567,-17.8503 1841.382,-18.5042 1850.0564,-24.5875 1851.9567,-17.8503"/>
</g>
<!-- Node28 -->
<g id="node29" class="node">
<title>Node28</title>
<polygon fill="#ffffff" stroke="#bfbfbf" points="2904.4106,-.5 2904.4106,-18.5 3002.5054,-18.5 3002.5054,-.5 2904.4106,-.5"/>
<text text-anchor="middle" x="2953.458" y="-6.5" font-family="Helvetica,sans-Serif" font-size="10.00" fill="#000000">Teuchos_RCP.hpp</text>
</g>
<!-- Node2&#45;&gt;Node28 -->
<g id="edge28" class="edge">
<title>Node2&#45;&gt;Node28</title>
<path fill="none" stroke="#191970" d="M2040.2205,-64.1013C2159.7621,-62.4674 2556.488,-54.616 2894.1746,-19.0212"/>
<polygon fill="#191970" stroke="#191970" points="2894.5743,-22.4985 2904.1478,-17.96 2893.8335,-15.5378 2894.5743,-22.4985"/>
</g>
<!-- Node29 -->
<g id="node30" class="node">
<title>Node29</title>
<polygon fill="#ffffff" stroke="#bfbfbf" points="1893.2266,-.5 1893.2266,-18.5 1953.6895,-18.5 1953.6895,-.5 1893.2266,-.5"/>
<text text-anchor="middle" x="1923.458" y="-6.5" font-family="Helvetica,sans-Serif" font-size="10.00" fill="#000000">Amesos.h</text>
</g>
<!-- Node2&#45;&gt;Node29 -->
<g id="edge29" class="edge">
<title>Node2&#45;&gt;Node29</title>
<path fill="none" stroke="#191970" d="M1991.0825,-55.4179C1978.654,-46.9788 1959.9183,-34.257 1945.3171,-24.3426"/>
<polygon fill="#191970" stroke="#191970" points="1947.0926,-21.3176 1936.8534,-18.5956 1943.1603,-27.1088 1947.0926,-21.3176"/>
</g>
<!-- Node30 -->
<g id="node31" class="node">
<title>Node30</title>
<polygon fill="#ffffff" stroke="#bfbfbf" points="1972.0049,-.5 1972.0049,-18.5 2036.9111,-18.5 2036.9111,-.5 1972.0049,-.5"/>
<text text-anchor="middle" x="2004.458" y="-6.5" font-family="Helvetica,sans-Serif" font-size="10.00" fill="#000000">AztecOO.h</text>
</g>
<!-- Node2&#45;&gt;Node30 -->
<g id="edge30" class="edge">
<title>Node2&#45;&gt;Node30</title>
<path fill="none" stroke="#191970" d="M2004.458,-55.4179C2004.458,-48.2164 2004.458,-37.8962 2004.458,-28.8632"/>
<polygon fill="#191970" stroke="#191970" points="2007.9581,-28.7794 2004.458,-18.7795 2000.9581,-28.7795 2007.9581,-28.7794"/>
</g>
<!-- Node31 -->
<g id="node32" class="node">
<title>Node31</title>
<polygon fill="#ffffff" stroke="#bfbfbf" points="2055.1504,-.5 2055.1504,-18.5 2171.7656,-18.5 2171.7656,-.5 2055.1504,-.5"/>
<text text-anchor="middle" x="2113.458" y="-6.5" font-family="Helvetica,sans-Serif" font-size="10.00" fill="#000000">Amesos_BaseSolver.h</text>
</g>
<!-- Node2&#45;&gt;Node31 -->
<g id="edge31" class="edge">
<title>Node2&#45;&gt;Node31</title>
<path fill="none" stroke="#191970" d="M2022.4571,-55.4179C2039.813,-46.6603 2066.3091,-33.2907 2086.2426,-23.2326"/>
<polygon fill="#191970" stroke="#191970" points="2088.081,-26.2253 2095.4321,-18.5956 2084.9276,-19.9758 2088.081,-26.2253"/>
</g>
<!-- Node32 -->
<g id="node33" class="node">
<title>Node32</title>
<polygon fill="#ffffff" stroke="#bfbfbf" points="2189.3423,-.5 2189.3423,-18.5 2237.5737,-18.5 2237.5737,-.5 2189.3423,-.5"/>
<text text-anchor="middle" x="2213.458" y="-6.5" font-family="Helvetica,sans-Serif" font-size="10.00" fill="#000000">metis.h</text>
</g>
<!-- Node2&#45;&gt;Node32 -->
<g id="edge32" class="edge">
<title>Node2&#45;&gt;Node32</title>
<path fill="none" stroke="#191970" d="M2040.2648,-55.548C2073.8637,-47.0804 2125.7537,-33.8306 2179.6102,-19.1816"/>
<polygon fill="#191970" stroke="#191970" points="2180.6036,-22.5386 2189.3288,-16.5286 2178.7601,-15.7857 2180.6036,-22.5386"/>
</g>
<!-- Node33 -->
<g id="node34" class="node">
<title>Node33</title>
<g id="a_node34"><a xlink:href="../../d4/dbc/fepp_8hpp.html" target="_top" xlink:title="fepp.hpp">
<polygon fill="#ffffff" stroke="#000000" points="2255.9951,-.5 2255.9951,-18.5 2310.9209,-18.5 2310.9209,-.5 2255.9951,-.5"/>
<text text-anchor="middle" x="2283.458" y="-6.5" font-family="Helvetica,sans-Serif" font-size="10.00" fill="#000000">fepp.hpp</text>
</a>
</g>
</g>
<!-- Node2&#45;&gt;Node33 -->
<g id="edge33" class="edge">
<title>Node2&#45;&gt;Node33</title>
<path fill="none" stroke="#191970" d="M2040.0964,-57.4392C2086.0154,-49.1271 2167.7642,-34.4815 2237.458,-19 2240.1893,-18.3933 2243.0252,-17.7285 2245.8973,-17.0414"/>
<polygon fill="#191970" stroke="#191970" points="2246.8055,-20.4227 2255.7028,-14.6704 2245.1602,-13.6188 2246.8055,-20.4227"/>
</g>
<!-- Node33&#45;&gt;Node2 -->
<g id="edge34" class="edge">
<title>Node33&#45;&gt;Node2</title>
<path fill="none" stroke="#191970" d="M2257.4159,-18.5592C2256.7587,-18.7091 2256.1054,-18.8562 2255.458,-19 2184.3998,-34.7846 2100.8098,-49.7003 2050.1447,-57.9201"/>
<polygon fill="#191970" stroke="#191970" points="2049.4766,-54.4825 2040.1569,-59.5217 2050.585,-61.3942 2049.4766,-54.4825"/>
</g>
<!-- Node34&#45;&gt;Node28 -->
<g id="edge38" class="edge">
<title>Node34&#45;&gt;Node28</title>
<path fill="none" stroke="#191970" d="M2300.7566,-182.8159C2472.0248,-177.953 2933.2062,-162.7066 2955.458,-139 2983.5673,-109.053 2970.5446,-55.9103 2960.7767,-27.9204"/>
<polygon fill="#191970" stroke="#191970" points="2964.0495,-26.6796 2957.2849,-18.5254 2957.488,-29.1183 2964.0495,-26.6796"/>
</g>
<!-- Node35 -->
<g id="node36" class="node">
<title>Node35</title>
<g id="a_node36"><a xlink:href="../../d2/d8b/_finite___element___problem_8hpp.html" target="_top" xlink:title="Finite_Element_Problem.hpp">
<polygon fill="#ffffff" stroke="#ff0000" points="1331.978,-115.5 1331.978,-133.5 1476.938,-133.5 1476.938,-115.5 1331.978,-115.5"/>
<text text-anchor="middle" x="1404.458" y="-121.5" font-family="Helvetica,sans-Serif" font-size="10.00" fill="#000000">Finite_Element_Problem.hpp</text>
</a>
</g>
</g>
<!-- Node34&#45;&gt;Node35 -->
<g id="edge36" class="edge">
<title>Node34&#45;&gt;Node35</title>
<path fill="none" stroke="#191970" d="M2174.3488,-183.1673C2044.8077,-179.8848 1739.6838,-169.3408 1485.458,-139 1477.0975,-138.0022 1468.2933,-136.6953 1459.6929,-135.2745"/>
<polygon fill="#191970" stroke="#191970" points="1460.1768,-131.8065 1449.7291,-133.566 1458.9937,-138.7058 1460.1768,-131.8065"/>
</g>
<!-- Node37 -->
<g id="node37" class="node">
<title>Node37</title>
<polygon fill="#ffffff" stroke="#bfbfbf" points="1802.9482,-115.5 1802.9482,-133.5 1853.9678,-133.5 1853.9678,-115.5 1802.9482,-115.5"/>
<text text-anchor="middle" x="1828.458" y="-121.5" font-family="Helvetica,sans-Serif" font-size="10.00" fill="#000000">Ifpack.h</text>
</g>
<!-- Node34&#45;&gt;Node37 -->
<g id="edge39" class="edge">
<title>Node34&#45;&gt;Node37</title>
<path fill="none" stroke="#191970" d="M2174.2765,-182.0388C2099.1174,-177.9203 1970.3717,-167.0881 1863.458,-139 1861.5019,-138.4861 1859.5107,-137.8864 1857.5211,-137.2291"/>
<polygon fill="#191970" stroke="#191970" points="1858.3488,-133.8024 1847.7561,-133.5907 1855.9048,-140.3619 1858.3488,-133.8024"/>
</g>
<!-- Node38 -->
<g id="node38" class="node">
<title>Node38</title>
<polygon fill="#ffffff" stroke="#bfbfbf" points="1872.207,-115.5 1872.207,-133.5 2002.709,-133.5 2002.709,-115.5 1872.207,-115.5"/>
<text text-anchor="middle" x="1937.458" y="-121.5" font-family="Helvetica,sans-Serif" font-size="10.00" fill="#000000">Ifpack_AdditiveSchwarz.h</text>
</g>
<!-- Node34&#45;&gt;Node38 -->
<g id="edge40" class="edge">
<title>Node34&#45;&gt;Node38</title>
<path fill="none" stroke="#191970" d="M2192.2202,-175.4524C2138.7923,-164.7669 2049.9471,-146.9978 1992.5556,-135.5195"/>
<polygon fill="#191970" stroke="#191970" points="1993.0649,-132.0521 1982.5727,-133.5229 1991.6921,-138.9162 1993.0649,-132.0521"/>
</g>
<!-- Node39 -->
<g id="node39" class="node">
<title>Node39</title>
<polygon fill="#ffffff" stroke="#bfbfbf" points="2020.7021,-115.5 2020.7021,-133.5 2146.2139,-133.5 2146.2139,-115.5 2020.7021,-115.5"/>
<text text-anchor="middle" x="2083.458" y="-121.5" font-family="Helvetica,sans-Serif" font-size="10.00" fill="#000000">BelosLinearProblem.hpp</text>
</g>
<!-- Node34&#45;&gt;Node39 -->
<g id="edge41" class="edge">
<title>Node34&#45;&gt;Node39</title>
<path fill="none" stroke="#191970" d="M2214.0687,-175.3873C2187.9122,-165.1964 2145.3707,-148.6218 2115.9824,-137.1718"/>
<polygon fill="#191970" stroke="#191970" points="2117.1512,-133.871 2106.5628,-133.5019 2114.61,-140.3935 2117.1512,-133.871"/>
</g>
<!-- Node40 -->
<g id="node40" class="node">
<title>Node40</title>
<polygon fill="#ffffff" stroke="#bfbfbf" points="2164.4287,-115.5 2164.4287,-133.5 2310.4873,-133.5 2310.4873,-115.5 2164.4287,-115.5"/>
<text text-anchor="middle" x="2237.458" y="-121.5" font-family="Helvetica,sans-Serif" font-size="10.00" fill="#000000">BelosBlockGmresSolMgr.hpp</text>
</g>
<!-- Node34&#45;&gt;Node40 -->
<g id="edge42" class="edge">
<title>Node34&#45;&gt;Node40</title>
<path fill="none" stroke="#191970" d="M2237.458,-175.3873C2237.458,-167.0174 2237.458,-154.3414 2237.458,-143.735"/>
<polygon fill="#191970" stroke="#191970" points="2240.9581,-143.6984 2237.458,-133.6985 2233.9581,-143.6985 2240.9581,-143.6984"/>
</g>
<!-- Node41 -->
<g id="node41" class="node">
<title>Node41</title>
<polygon fill="#ffffff" stroke="#bfbfbf" points="2328.249,-115.5 2328.249,-133.5 2452.667,-133.5 2452.667,-115.5 2328.249,-115.5"/>
<text text-anchor="middle" x="2390.458" y="-121.5" font-family="Helvetica,sans-Serif" font-size="10.00" fill="#000000">BelosEpetraAdapter.hpp</text>
</g>
<!-- Node34&#45;&gt;Node41 -->
<g id="edge43" class="edge">
<title>Node34&#45;&gt;Node41</title>
<path fill="none" stroke="#191970" d="M2260.6954,-175.3873C2286.6821,-165.1964 2328.9474,-148.6218 2358.1448,-137.1718"/>
<polygon fill="#191970" stroke="#191970" points="2359.4713,-140.4112 2367.5032,-133.5019 2356.9157,-133.8944 2359.4713,-140.4112"/>
</g>
<!-- Node42 -->
<g id="node42" class="node">
<title>Node42</title>
<polygon fill="#ffffff" stroke="#bfbfbf" points="2470.7456,-115.5 2470.7456,-133.5 2592.1704,-133.5 2592.1704,-115.5 2470.7456,-115.5"/>
<text text-anchor="middle" x="2531.458" y="-121.5" font-family="Helvetica,sans-Serif" font-size="10.00" fill="#000000">BelosSolverFactory.hpp</text>
</g>
<!-- Node34&#45;&gt;Node42 -->
<g id="edge44" class="edge">
<title>Node34&#45;&gt;Node42</title>
<path fill="none" stroke="#191970" d="M2282.0933,-175.4861C2327.3097,-166.3426 2399.2603,-151.7588 2461.458,-139 2466.777,-137.9089 2472.3224,-136.7673 2477.8614,-135.6242"/>
<polygon fill="#191970" stroke="#191970" points="2478.6899,-139.027 2487.7747,-133.5758 2477.2733,-132.1719 2478.6899,-139.027"/>
</g>
<!-- Node43 -->
<g id="node43" class="node">
<title>Node43</title>
<polygon fill="#ffffff" stroke="#bfbfbf" points="2610.5767,-115.5 2610.5767,-133.5 2788.3394,-133.5 2788.3394,-115.5 2610.5767,-115.5"/>
<text text-anchor="middle" x="2699.458" y="-121.5" font-family="Helvetica,sans-Serif" font-size="10.00" fill="#000000">Teuchos_StandardCatchMacros.hpp</text>
</g>
<!-- Node34&#45;&gt;Node43 -->
<g id="edge45" class="edge">
<title>Node34&#45;&gt;Node43</title>
<path fill="none" stroke="#191970" d="M2300.6423,-177.0399C2373.2854,-168.3614 2496.0786,-153.3803 2601.458,-139 2610.6909,-137.7401 2620.4052,-136.364 2629.9836,-134.9773"/>
<polygon fill="#191970" stroke="#191970" points="2630.5,-138.4391 2639.8903,-133.5328 2629.4899,-131.5124 2630.5,-138.4391"/>
</g>
<!-- Node44 -->
<g id="node44" class="node">
<title>Node44</title>
<polygon fill="#ffffff" stroke="#bfbfbf" points="2806.1997,-115.5 2806.1997,-133.5 2946.7163,-133.5 2946.7163,-115.5 2806.1997,-115.5"/>
<text text-anchor="middle" x="2876.458" y="-121.5" font-family="Helvetica,sans-Serif" font-size="10.00" fill="#000000">Teuchos_ParameterList.hpp</text>
</g>
<!-- Node34&#45;&gt;Node44 -->
<g id="edge46" class="edge">
<title>Node34&#45;&gt;Node44</title>
<path fill="none" stroke="#191970" d="M2300.6638,-181.4382C2404.6237,-175.9377 2618.0739,-162.689 2797.458,-139 2805.2342,-137.9731 2813.4072,-136.6974 2821.4273,-135.3318"/>
<polygon fill="#191970" stroke="#191970" points="2822.2206,-138.7461 2831.4628,-133.566 2821.0075,-131.852 2822.2206,-138.7461"/>
</g>
<!-- Node45 -->
<g id="node45" class="node">
<title>Node45</title>
<polygon fill="#ffffff" stroke="#bfbfbf" points="1494.6504,-110.5 1494.6504,-138.5 1636.2656,-138.5 1636.2656,-110.5 1494.6504,-110.5"/>
<text text-anchor="start" x="1502.6504" y="-126.5" font-family="Helvetica,sans-Serif" font-size="10.00" fill="#000000">Teuchos_XMLParameterList</text>
<text text-anchor="middle" x="1565.458" y="-116.5" font-family="Helvetica,sans-Serif" font-size="10.00" fill="#000000">CoreHelpers.hpp</text>
</g>
<!-- Node34&#45;&gt;Node45 -->
<g id="edge47" class="edge">
<title>Node34&#45;&gt;Node45</title>
<path fill="none" stroke="#191970" d="M2174.1581,-181.7699C2067.4205,-176.6976 1844.7061,-164.1004 1646.515,-139.0463"/>
<polygon fill="#191970" stroke="#191970" points="1646.8621,-135.5622 1636.4992,-137.7667 1645.975,-142.5058 1646.8621,-135.5622"/>
</g>
<!-- Node46 -->
<g id="node46" class="node">
<title>Node46</title>
<polygon fill="#ffffff" stroke="#bfbfbf" points="1654.2095,-110.5 1654.2095,-138.5 1784.7065,-138.5 1784.7065,-110.5 1654.2095,-110.5"/>
<text text-anchor="start" x="1662.2095" y="-126.5" font-family="Helvetica,sans-Serif" font-size="10.00" fill="#000000">Stratimikos_DefaultLinear</text>
<text text-anchor="middle" x="1719.458" y="-116.5" font-family="Helvetica,sans-Serif" font-size="10.00" fill="#000000">SolverBuilder.hpp</text>
</g>
<!-- Node34&#45;&gt;Node46 -->
<g id="edge48" class="edge">
<title>Node34&#45;&gt;Node46</title>
<path fill="none" stroke="#191970" d="M2174.3657,-179.8599C2090.0987,-173.2567 1935.9778,-159.7644 1794.9055,-139.1319"/>
<polygon fill="#191970" stroke="#191970" points="1795.1763,-135.6339 1784.772,-137.634 1794.1527,-142.5587 1795.1763,-135.6339"/>
</g>
<!-- Node35&#45;&gt;Node2 -->
<g id="edge37" class="edge">
<title>Node35&#45;&gt;Node2</title>
<path fill="none" stroke="#191970" d="M1451.0337,-115.4252C1462.2743,-113.4394 1474.2706,-111.4887 1485.458,-110 1659.4567,-86.8464 1867.9032,-72.6494 1958.5777,-67.1352"/>
<polygon fill="#191970" stroke="#191970" points="1959.0131,-70.6154 1968.7848,-66.5211 1958.5926,-63.6281 1959.0131,-70.6154"/>
</g>
<!-- Node47&#45;&gt;Node2 -->
<g id="edge66" class="edge">
<title>Node47&#45;&gt;Node2</title>
<path fill="none" stroke="#191970" d="M3088.0177,-116.8491C3068.6619,-114.3195 3046.609,-111.7161 3026.458,-110 2650.5229,-77.9842 2194.7546,-67.7717 2050.5166,-65.2231"/>
<polygon fill="#191970" stroke="#191970" points="2050.3384,-61.7195 2040.2793,-65.0459 2050.2172,-68.7185 2050.3384,-61.7195"/>
</g>
<!-- Node47&#45;&gt;Node3 -->
<g id="edge50" class="edge">
<title>Node47&#45;&gt;Node3</title>
<path fill="none" stroke="#191970" d="M3156.0507,-115.3388C3168.6262,-106.4991 3185.9108,-91.85 3193.458,-74 3199.6299,-59.4028 3196.6213,-41.4077 3192.6481,-28.1372"/>
<polygon fill="#191970" stroke="#191970" points="3195.9564,-26.9943 3189.4119,-18.6625 3189.3322,-29.257 3195.9564,-26.9943"/>
</g>
<!-- Node47&#45;&gt;Node4 -->
<g id="edge51" class="edge">
<title>Node47&#45;&gt;Node4</title>
<path fill="none" stroke="#191970" d="M3126.8653,-115.3388C3114.2898,-106.4991 3097.0052,-91.85 3089.458,-74 3082.6598,-57.9214 3092.1932,-39.6798 3101.934,-26.7087"/>
<polygon fill="#191970" stroke="#191970" points="3104.8927,-28.6194 3108.5126,-18.6621 3099.4734,-24.1887 3104.8927,-28.6194"/>
</g>
<!-- Node47&#45;&gt;Node5 -->
<g id="edge52" class="edge">
<title>Node47&#45;&gt;Node5</title>
<path fill="none" stroke="#191970" d="M3158.6639,-115.3678C3176.652,-105.65 3205.5381,-89.5604 3229.458,-74 3253.5258,-58.3434 3279.9438,-38.6147 3297.4912,-25.1251"/>
<polygon fill="#191970" stroke="#191970" points="3300.0339,-27.583 3305.7993,-18.6942 3295.7491,-22.0475 3300.0339,-27.583"/>
</g>
<!-- Node47&#45;&gt;Node6 -->
<g id="edge53" class="edge">
<title>Node47&#45;&gt;Node6</title>
<path fill="none" stroke="#191970" d="M3156.4918,-115.3603C3170.9121,-106.1164 3192.7529,-90.8228 3208.458,-74 3221.666,-59.852 3233.3732,-41.0657 3241.0497,-27.4189"/>
<polygon fill="#191970" stroke="#191970" points="3244.1815,-28.9861 3245.8908,-18.53 3238.0341,-25.638 3244.1815,-28.9861"/>
</g>
<!-- Node47&#45;&gt;Node7 -->
<g id="edge54" class="edge">
<title>Node47&#45;&gt;Node7</title>
<path fill="none" stroke="#191970" d="M3163.2606,-115.4067C3186.5274,-105.5911 3224.3777,-89.302 3256.458,-74 3291.2468,-57.406 3330.654,-36.7556 3355.7604,-23.3586"/>
<polygon fill="#191970" stroke="#191970" points="3357.4792,-26.4085 3364.643,-18.6028 3354.175,-20.2373 3357.4792,-26.4085"/>
</g>
<!-- Node47&#45;&gt;Node8 -->
<g id="edge55" class="edge">
<title>Node47&#45;&gt;Node8</title>
<path fill="none" stroke="#191970" d="M3128.8264,-115.4858C3116.2831,-106.1075 3097.0165,-90.508 3083.458,-74 3071.8359,-59.8497 3061.7338,-41.5785 3055.0353,-28.0972"/>
<polygon fill="#191970" stroke="#191970" points="3058.0892,-26.371 3050.6076,-18.8692 3051.7781,-29.3992 3058.0892,-26.371"/>
</g>
<!-- Node48 -->
<g id="node48" class="node">
<title>Node48</title>
<g id="a_node48"><a xlink:href="../../d2/d81/readnrldata_8hpp.html" target="_top" xlink:title="readnrldata.hpp">
<polygon fill="#ffffff" stroke="#000000" points="3098.4312,-55.5 3098.4312,-73.5 3184.4849,-73.5 3184.4849,-55.5 3098.4312,-55.5"/>
<text text-anchor="middle" x="3141.458" y="-61.5" font-family="Helvetica,sans-Serif" font-size="10.00" fill="#000000">readnrldata.hpp</text>
</a>
</g>
</g>
<!-- Node47&#45;&gt;Node48 -->
<g id="edge56" class="edge">
<title>Node47&#45;&gt;Node48</title>
<path fill="none" stroke="#191970" d="M3141.458,-115.3873C3141.458,-107.0174 3141.458,-94.3414 3141.458,-83.735"/>
<polygon fill="#191970" stroke="#191970" points="3144.9581,-83.6984 3141.458,-73.6985 3137.9581,-83.6985 3144.9581,-83.6984"/>
</g>
<!-- Node48&#45;&gt;Node3 -->
<g id="edge57" class="edge">
<title>Node48&#45;&gt;Node3</title>
<path fill="none" stroke="#191970" d="M3148.7237,-55.4179C3154.9281,-47.6624 3164.026,-36.29 3171.6152,-26.8035"/>
<polygon fill="#191970" stroke="#191970" points="3174.5205,-28.7746 3178.0344,-18.7795 3169.0544,-24.4017 3174.5205,-28.7746"/>
</g>
<!-- Node48&#45;&gt;Node4 -->
<g id="edge58" class="edge">
<title>Node48&#45;&gt;Node4</title>
<path fill="none" stroke="#191970" d="M3137.4949,-55.4179C3134.2488,-47.9789 3129.5507,-37.2123 3125.5195,-27.9742"/>
<polygon fill="#191970" stroke="#191970" points="3128.7146,-26.545 3121.5072,-18.7795 3122.2988,-29.3447 3128.7146,-26.545"/>
</g>
<!-- Node48&#45;&gt;Node5 -->
<g id="edge59" class="edge">
<title>Node48&#45;&gt;Node5</title>
<path fill="none" stroke="#191970" d="M3170.5208,-55.4179C3201.4893,-45.7402 3250.4803,-30.4305 3283.2782,-20.1812"/>
<polygon fill="#191970" stroke="#191970" points="3284.3983,-23.4981 3292.8992,-17.1746 3282.3104,-16.8168 3284.3983,-23.4981"/>
</g>
<!-- Node48&#45;&gt;Node6 -->
<g id="edge60" class="edge">
<title>Node48&#45;&gt;Node6</title>
<path fill="none" stroke="#191970" d="M3159.4571,-55.4179C3176.813,-46.6603 3203.3091,-33.2907 3223.2426,-23.2326"/>
<polygon fill="#191970" stroke="#191970" points="3225.081,-26.2253 3232.4321,-18.5956 3221.9276,-19.9758 3225.081,-26.2253"/>
</g>
<!-- Node48&#45;&gt;Node7 -->
<g id="edge61" class="edge">
<title>Node48&#45;&gt;Node7</title>
<path fill="none" stroke="#191970" d="M3184.5352,-56.2096C3224.8122,-48.2158 3286.8191,-35.2927 3349.4525,-19.1"/>
<polygon fill="#191970" stroke="#191970" points="3350.7163,-22.3874 3359.5069,-16.4733 3348.9469,-15.6147 3350.7163,-22.3874"/>
</g>
<!-- Node48&#45;&gt;Node8 -->
<g id="edge62" class="edge">
<title>Node48&#45;&gt;Node8</title>
<path fill="none" stroke="#191970" d="M3125.7707,-55.4179C3110.919,-46.8195 3088.3882,-33.7754 3071.1311,-23.7844"/>
<polygon fill="#191970" stroke="#191970" points="3072.5766,-20.577 3062.1686,-18.5956 3069.0693,-26.635 3072.5766,-20.577"/>
</g>
<!-- Node48&#45;&gt;Node15 -->
<g id="edge65" class="edge">
<title>Node48&#45;&gt;Node15</title>
<path fill="none" stroke="#191970" d="M3098.1677,-57.1964C3042.0235,-47.7242 2943.6494,-31.1274 2879.0236,-20.2243"/>
<polygon fill="#191970" stroke="#191970" points="2879.3959,-16.7377 2868.953,-18.5252 2878.2314,-23.6401 2879.3959,-16.7377"/>
</g>
<!-- Node48&#45;&gt;Node16 -->
<g id="edge64" class="edge">
<title>Node48&#45;&gt;Node16</title>
<path fill="none" stroke="#191970" d="M3098.1824,-59.7662C3025.7602,-51.8188 2875.1458,-35.1828 2737.7986,-19.2656"/>
<polygon fill="#191970" stroke="#191970" points="2737.8504,-15.7482 2727.5136,-18.0721 2737.0435,-22.7015 2737.8504,-15.7482"/>
</g>
<!-- Node48&#45;&gt;Node28 -->
<g id="edge63" class="edge">
<title>Node48&#45;&gt;Node28</title>
<path fill="none" stroke="#191970" d="M3110.4136,-55.4179C3078.6149,-46.115 3029.0273,-31.608 2994.1147,-21.3943"/>
<polygon fill="#191970" stroke="#191970" points="2994.8165,-17.9529 2984.236,-18.5042 2992.851,-24.6713 2994.8165,-17.9529"/>
</g>
<!-- Node50 -->
<g id="node50" class="node">
<title>Node50</title>
<g id="a_node50"><a xlink:href="../../d2/d34/hyperelasticity_8hpp.html" target="_top" xlink:title="hyperelasticity.hpp">
<polygon fill="#ffffff" stroke="#000000" points="1536.4155,-175.5 1536.4155,-193.5 1634.5005,-193.5 1634.5005,-175.5 1536.4155,-175.5"/>
<text text-anchor="middle" x="1585.458" y="-181.5" font-family="Helvetica,sans-Serif" font-size="10.00" fill="#000000">hyperelasticity.hpp</text>
</a>
</g>
</g>
<!-- Node49&#45;&gt;Node50 -->
<g id="edge68" class="edge">
<title>Node49&#45;&gt;Node50</title>
<path fill="none" stroke="#191970" d="M1832.9111,-230.4795C1781.1863,-220.8684 1699.2971,-205.6525 1644.0283,-195.383"/>
<polygon fill="#191970" stroke="#191970" points="1644.5026,-191.9113 1634.0314,-193.5255 1643.2237,-198.7935 1644.5026,-191.9113"/>
</g>
<!-- Node50&#45;&gt;Node35 -->
<g id="edge69" class="edge">
<title>Node50&#45;&gt;Node35</title>
<path fill="none" stroke="#191970" d="M1557.968,-175.3873C1526.8246,-165.0635 1475.9179,-148.1883 1441.3411,-136.7264"/>
<polygon fill="#191970" stroke="#191970" points="1442.207,-133.3263 1431.6137,-133.5019 1440.0044,-139.9707 1442.207,-133.3263"/>
</g>
</g>
</svg>
