<?xml version="1.0" encoding="UTF-8" standalone="no"?>
<!DOCTYPE svg PUBLIC "-//W3C//DTD SVG 1.1//EN"
 "http://www.w3.org/Graphics/SVG/1.1/DTD/svg11.dtd">
<!-- Generated by graphviz version 2.40.1 (20161225.0304)
 -->
<!-- Title: src/Finite_Element_Problem.hpp Pages: 1 -->
<svg width="1805pt" height="307pt"
 viewBox="0.00 0.00 1804.60 307.00" xmlns="http://www.w3.org/2000/svg" xmlns:xlink="http://www.w3.org/1999/xlink">
<g id="graph0" class="graph" transform="scale(1 1) rotate(0) translate(4 303)">
<title>src/Finite_Element_Problem.hpp</title>
<polygon fill="#ffffff" stroke="transparent" points="-4,4 -4,-303 1800.5957,-303 1800.5957,4 -4,4"/>
<!-- Node33 -->
<g id="node1" class="node">
<title>Node33</title>
<polygon fill="#bfbfbf" stroke="#000000" points="867.0664,-270.5 867.0664,-298.5 965.874,-298.5 965.874,-270.5 867.0664,-270.5"/>
<text text-anchor="start" x="875.0664" y="-286.5" font-family="Helvetica,sans-Serif" font-size="10.00" fill="#000000">src/Finite_Element</text>
<text text-anchor="middle" x="916.4702" y="-276.5" font-family="Helvetica,sans-Serif" font-size="10.00" fill="#000000">_Problem.hpp</text>
</g>
<!-- Node34 -->
<g id="node2" class="node">
<title>Node34</title>
<g id="a_node2"><a xlink:href="../../de/d9d/hyperelasticity__setup__pp_8hpp.html" target="_top" xlink:title="src/hyperelasticity\l_setup_pp.hpp">
<polygon fill="#ffffff" stroke="#000000" points="830.7363,-205.5 830.7363,-233.5 926.2041,-233.5 926.2041,-205.5 830.7363,-205.5"/>
<text text-anchor="start" x="838.7363" y="-221.5" font-family="Helvetica,sans-Serif" font-size="10.00" fill="#000000">src/hyperelasticity</text>
<text text-anchor="middle" x="878.4702" y="-211.5" font-family="Helvetica,sans-Serif" font-size="10.00" fill="#000000">_setup_pp.hpp</text>
</a>
</g>
</g>
<!-- Node33&#45;&gt;Node34 -->
<g id="edge1" class="edge">
<title>Node33&#45;&gt;Node34</title>
<path fill="none" stroke="#191970" d="M903.0682,-261.5756C897.6109,-252.2406 891.4769,-241.7483 886.6996,-233.5765"/>
<polygon fill="#191970" stroke="#191970" points="900.1562,-263.5294 908.2248,-270.396 906.1993,-259.9965 900.1562,-263.5294"/>
</g>
<!-- Node54 -->
<g id="node22" class="node">
<title>Node54</title>
<g id="a_node22"><a xlink:href="../../d7/d17/_newton___raphsonpp_8hpp.html" target="_top" xlink:title="src/Newton_Raphsonpp.hpp">
<polygon fill="#ffffff" stroke="#000000" points="963.3745,-140.5 963.3745,-158.5 1105.5659,-158.5 1105.5659,-140.5 963.3745,-140.5"/>
<text text-anchor="middle" x="1034.4702" y="-146.5" font-family="Helvetica,sans-Serif" font-size="10.00" fill="#000000">src/Newton_Raphsonpp.hpp</text>
</a>
</g>
</g>
<!-- Node33&#45;&gt;Node54 -->
<g id="edge33" class="edge">
<title>Node33&#45;&gt;Node54</title>
<path fill="none" stroke="#191970" d="M935.7301,-262.4654C962.0224,-232.3852 1007.9905,-179.7946 1026.456,-158.6688"/>
<polygon fill="#191970" stroke="#191970" points="932.8212,-260.4752 928.8753,-270.3078 938.0916,-265.0819 932.8212,-260.4752"/>
</g>
<!-- Node35 -->
<g id="node3" class="node">
<title>Node35</title>
<g id="a_node3"><a xlink:href="../../d6/db8/_arteries___model_c__deterministic__dirichlet_8hpp.html" target="_top" xlink:title="src/Arteries_ModelC\l_deterministic_dirichlet.hpp">
<polygon fill="#ffffff" stroke="#000000" points="1574.8843,-135.5 1574.8843,-163.5 1712.0562,-163.5 1712.0562,-135.5 1574.8843,-135.5"/>
<text text-anchor="start" x="1582.8843" y="-151.5" font-family="Helvetica,sans-Serif" font-size="10.00" fill="#000000">src/Arteries_ModelC</text>
<text text-anchor="middle" x="1643.4702" y="-141.5" font-family="Helvetica,sans-Serif" font-size="10.00" fill="#000000">_deterministic_dirichlet.hpp</text>
</a>
</g>
</g>
<!-- Node34&#45;&gt;Node35 -->
<g id="edge2" class="edge">
<title>Node34&#45;&gt;Node35</title>
<path fill="none" stroke="#191970" d="M936.3513,-215.0166C1041.9652,-206.7292 1272.9855,-188.1085 1467.4702,-169 1502.8077,-165.528 1542.0845,-161.2196 1574.5528,-157.5363"/>
<polygon fill="#191970" stroke="#191970" points="935.9199,-211.5396 926.2238,-215.8098 936.4665,-218.5182 935.9199,-211.5396"/>
</g>
<!-- Node37 -->
<g id="node5" class="node">
<title>Node37</title>
<g id="a_node5"><a xlink:href="../../dd/da4/_arteries___model_c__deterministic__neumann_8hpp.html" target="_top" xlink:title="src/Arteries_ModelC\l_deterministic_neumann.hpp">
<polygon fill="#ffffff" stroke="#000000" points="411.2637,-135.5 411.2637,-163.5 555.6768,-163.5 555.6768,-135.5 411.2637,-135.5"/>
<text text-anchor="start" x="419.2637" y="-151.5" font-family="Helvetica,sans-Serif" font-size="10.00" fill="#000000">src/Arteries_ModelC</text>
<text text-anchor="middle" x="483.4702" y="-141.5" font-family="Helvetica,sans-Serif" font-size="10.00" fill="#000000">_deterministic_neumann.hpp</text>
</a>
</g>
</g>
<!-- Node34&#45;&gt;Node37 -->
<g id="edge4" class="edge">
<title>Node34&#45;&gt;Node37</title>
<path fill="none" stroke="#191970" d="M820.4895,-211.5366C757.2943,-202.5403 653.3168,-186.8117 564.4702,-169 556.3864,-167.3794 547.8868,-165.5137 539.5573,-163.5925"/>
<polygon fill="#191970" stroke="#191970" points="820.2631,-215.0393 830.655,-212.9756 821.2443,-208.1084 820.2631,-215.0393"/>
</g>
<!-- Node40 -->
<g id="node8" class="node">
<title>Node40</title>
<g id="a_node8"><a xlink:href="../../de/d6d/_arteries___model_c__gmrf__dirichlet_8hpp.html" target="_top" xlink:title="src/Arteries_ModelC\l_gmrf_dirichlet.hpp">
<polygon fill="#ffffff" stroke="#000000" points="687.1797,-135.5 687.1797,-163.5 793.7607,-163.5 793.7607,-135.5 687.1797,-135.5"/>
<text text-anchor="start" x="695.1797" y="-151.5" font-family="Helvetica,sans-Serif" font-size="10.00" fill="#000000">src/Arteries_ModelC</text>
<text text-anchor="middle" x="740.4702" y="-141.5" font-family="Helvetica,sans-Serif" font-size="10.00" fill="#000000">_gmrf_dirichlet.hpp</text>
</a>
</g>
</g>
<!-- Node34&#45;&gt;Node40 -->
<g id="edge7" class="edge">
<title>Node34&#45;&gt;Node40</title>
<path fill="none" stroke="#191970" d="M841.4266,-200.7097C818.4428,-189.0513 789.3876,-174.3132 768.355,-163.6445"/>
<polygon fill="#191970" stroke="#191970" points="840.0422,-203.932 850.5439,-205.3345 843.2089,-197.6892 840.0422,-203.932"/>
</g>
<!-- Node42 -->
<g id="node10" class="node">
<title>Node42</title>
<g id="a_node10"><a xlink:href="../../dd/d1f/_arteries___model_c__gmrf__neumann_8hpp.html" target="_top" xlink:title="src/Arteries_ModelC\l_gmrf_neumann.hpp">
<polygon fill="#ffffff" stroke="#000000" points="204.3276,-135.5 204.3276,-163.5 312.6128,-163.5 312.6128,-135.5 204.3276,-135.5"/>
<text text-anchor="start" x="212.3276" y="-151.5" font-family="Helvetica,sans-Serif" font-size="10.00" fill="#000000">src/Arteries_ModelC</text>
<text text-anchor="middle" x="258.4702" y="-141.5" font-family="Helvetica,sans-Serif" font-size="10.00" fill="#000000">_gmrf_neumann.hpp</text>
</a>
</g>
</g>
<!-- Node34&#45;&gt;Node42 -->
<g id="edge9" class="edge">
<title>Node34&#45;&gt;Node42</title>
<path fill="none" stroke="#191970" d="M820.476,-213.8926C730.7764,-205.0966 553.0126,-187.1748 402.4702,-169 372.7903,-165.4168 339.733,-160.9726 312.7844,-157.2323"/>
<polygon fill="#191970" stroke="#191970" points="820.1546,-217.3778 830.448,-214.8684 820.8364,-210.4111 820.1546,-217.3778"/>
</g>
<!-- Node46 -->
<g id="node14" class="node">
<title>Node46</title>
<g id="a_node14"><a xlink:href="../../df/dc0/_compressible___mooney___transverse___isotropic_8hpp.html" target="_top" xlink:title="src/Compressible_Mooney\l_Transverse_Isotropic.hpp">
<polygon fill="#ffffff" stroke="#000000" points="1324.2808,-135.5 1324.2808,-163.5 1458.6597,-163.5 1458.6597,-135.5 1324.2808,-135.5"/>
<text text-anchor="start" x="1332.2808" y="-151.5" font-family="Helvetica,sans-Serif" font-size="10.00" fill="#000000">src/Compressible_Mooney</text>
<text text-anchor="middle" x="1391.4702" y="-141.5" font-family="Helvetica,sans-Serif" font-size="10.00" fill="#000000">_Transverse_Isotropic.hpp</text>
</a>
</g>
</g>
<!-- Node34&#45;&gt;Node46 -->
<g id="edge13" class="edge">
<title>Node34&#45;&gt;Node46</title>
<path fill="none" stroke="#191970" d="M936.3339,-211.6044C1031.9237,-198.5609 1222.3283,-172.5798 1323.9259,-158.7166"/>
<polygon fill="#191970" stroke="#191970" points="935.7063,-208.1575 926.2713,-212.9774 936.6528,-215.0932 935.7063,-208.1575"/>
</g>
<!-- Node50 -->
<g id="node18" class="node">
<title>Node50</title>
<g id="a_node18"><a xlink:href="../../d0/d77/_compressible___mooney___transverse___isotropic___random___field_8hpp.html" target="_top" xlink:title="src/Compressible_Mooney\l_Transverse_Isotropic\l_Random_Field.hpp">
<polygon fill="#ffffff" stroke="#000000" points="811.2808,-130.5 811.2808,-168.5 945.6597,-168.5 945.6597,-130.5 811.2808,-130.5"/>
<text text-anchor="start" x="819.2808" y="-156.5" font-family="Helvetica,sans-Serif" font-size="10.00" fill="#000000">src/Compressible_Mooney</text>
<text text-anchor="start" x="819.2808" y="-146.5" font-family="Helvetica,sans-Serif" font-size="10.00" fill="#000000">_Transverse_Isotropic</text>
<text text-anchor="middle" x="878.4702" y="-136.5" font-family="Helvetica,sans-Serif" font-size="10.00" fill="#000000">_Random_Field.hpp</text>
</a>
</g>
</g>
<!-- Node34&#45;&gt;Node50 -->
<g id="edge17" class="edge">
<title>Node34&#45;&gt;Node50</title>
<path fill="none" stroke="#191970" d="M878.4702,-195.0725C878.4702,-186.4275 878.4702,-176.8328 878.4702,-168.6857"/>
<polygon fill="#191970" stroke="#191970" points="874.9703,-195.3344 878.4702,-205.3345 881.9703,-195.3345 874.9703,-195.3344"/>
</g>
<!-- Node53 -->
<g id="node21" class="node">
<title>Node53</title>
<g id="a_node21"><a xlink:href="../../d0/d66/hyperelasticity__setup__pp_8cpp.html" target="_top" xlink:title="src/hyperelasticity\l_setup_pp.cpp">
<polygon fill="#ffffff" stroke="#000000" points="573.7363,-135.5 573.7363,-163.5 669.2041,-163.5 669.2041,-135.5 573.7363,-135.5"/>
<text text-anchor="start" x="581.7363" y="-151.5" font-family="Helvetica,sans-Serif" font-size="10.00" fill="#000000">src/hyperelasticity</text>
<text text-anchor="middle" x="621.4702" y="-141.5" font-family="Helvetica,sans-Serif" font-size="10.00" fill="#000000">_setup_pp.cpp</text>
</a>
</g>
</g>
<!-- Node34&#45;&gt;Node53 -->
<g id="edge20" class="edge">
<title>Node34&#45;&gt;Node53</title>
<path fill="none" stroke="#191970" d="M820.6086,-206.2227C780.4867,-196.6914 725.9452,-183.0884 678.4702,-169 672.8553,-167.3337 666.9693,-165.4633 661.1996,-163.5579"/>
<polygon fill="#191970" stroke="#191970" points="819.9485,-209.6631 830.4854,-208.5561 821.558,-202.8506 819.9485,-209.6631"/>
</g>
<!-- Node34&#45;&gt;Node54 -->
<g id="edge21" class="edge">
<title>Node34&#45;&gt;Node54</title>
<path fill="none" stroke="#191970" d="M919.1834,-201.2312C949.7789,-187.5025 990.3831,-169.2827 1014.3406,-158.5325"/>
<polygon fill="#191970" stroke="#191970" points="917.7298,-198.0472 910.0391,-205.3345 920.5956,-204.4337 917.7298,-198.0472"/>
</g>
<!-- Node36 -->
<g id="node4" class="node">
<title>Node36</title>
<g id="a_node4"><a xlink:href="../../de/da1/arteries_2deterministic__dirichlet_2main_8cpp.html" target="_top" xlink:title="arteries/deterministic\l_dirichlet/main.cpp">
<polygon fill="#ffffff" stroke="#000000" points="1688.3447,-65.5 1688.3447,-93.5 1796.5957,-93.5 1796.5957,-65.5 1688.3447,-65.5"/>
<text text-anchor="start" x="1696.3447" y="-81.5" font-family="Helvetica,sans-Serif" font-size="10.00" fill="#000000">arteries/deterministic</text>
<text text-anchor="middle" x="1742.4702" y="-71.5" font-family="Helvetica,sans-Serif" font-size="10.00" fill="#000000">_dirichlet/main.cpp</text>
</a>
</g>
</g>
<!-- Node35&#45;&gt;Node36 -->
<g id="edge3" class="edge">
<title>Node35&#45;&gt;Node36</title>
<path fill="none" stroke="#191970" d="M1672.0439,-129.2964C1688.1916,-117.8788 1707.9809,-103.8864 1722.4659,-93.6445"/>
<polygon fill="#191970" stroke="#191970" points="1669.6488,-126.7033 1663.5043,-135.3345 1673.6901,-132.4189 1669.6488,-126.7033"/>
</g>
<!-- Node38 -->
<g id="node6" class="node">
<title>Node38</title>
<g id="a_node6"><a xlink:href="../../d9/d81/arteries_2deterministic__neumann_2main_8cpp.html" target="_top" xlink:title="arteries/deterministic\l_neumann/main.cpp">
<polygon fill="#ffffff" stroke="#000000" points="559.3447,-65.5 559.3447,-93.5 667.5957,-93.5 667.5957,-65.5 559.3447,-65.5"/>
<text text-anchor="start" x="567.3447" y="-81.5" font-family="Helvetica,sans-Serif" font-size="10.00" fill="#000000">arteries/deterministic</text>
<text text-anchor="middle" x="613.4702" y="-71.5" font-family="Helvetica,sans-Serif" font-size="10.00" fill="#000000">_neumann/main.cpp</text>
</a>
</g>
</g>
<!-- Node37&#45;&gt;Node38 -->
<g id="edge5" class="edge">
<title>Node37&#45;&gt;Node38</title>
<path fill="none" stroke="#191970" d="M518.6554,-130.5541C540.2609,-118.9204 567.4767,-104.2657 587.2019,-93.6445"/>
<polygon fill="#191970" stroke="#191970" points="516.923,-127.5118 509.7777,-135.3345 520.2417,-133.6751 516.923,-127.5118"/>
</g>
<!-- Node39 -->
<g id="node7" class="node">
<title>Node39</title>
<g id="a_node7"><a xlink:href="../../db/db7/arteries_2vonmises_2main_8cpp.html" target="_top" xlink:title="arteries/vonmises/main.cpp">
<polygon fill="#ffffff" stroke="#000000" points="403.6133,-70.5 403.6133,-88.5 541.3271,-88.5 541.3271,-70.5 403.6133,-70.5"/>
<text text-anchor="middle" x="472.4702" y="-76.5" font-family="Helvetica,sans-Serif" font-size="10.00" fill="#000000">arteries/vonmises/main.cpp</text>
</a>
</g>
</g>
<!-- Node37&#45;&gt;Node39 -->
<g id="edge6" class="edge">
<title>Node37&#45;&gt;Node39</title>
<path fill="none" stroke="#191970" d="M479.6809,-125.3864C477.6966,-112.7588 475.3823,-98.0315 473.9217,-88.7368"/>
<polygon fill="#191970" stroke="#191970" points="476.2342,-125.999 481.2442,-135.3345 483.1493,-124.9123 476.2342,-125.999"/>
</g>
<!-- Node41 -->
<g id="node9" class="node">
<title>Node41</title>
<g id="a_node9"><a xlink:href="../../dc/dba/arteries_2strip__dirichlet_2main_8cpp.html" target="_top" xlink:title="arteries/strip_dirichlet\l/main.cpp">
<polygon fill="#ffffff" stroke="#000000" points="685.9531,-65.5 685.9531,-93.5 796.9873,-93.5 796.9873,-65.5 685.9531,-65.5"/>
<text text-anchor="start" x="693.9531" y="-81.5" font-family="Helvetica,sans-Serif" font-size="10.00" fill="#000000">arteries/strip_dirichlet</text>
<text text-anchor="middle" x="741.4702" y="-71.5" font-family="Helvetica,sans-Serif" font-size="10.00" fill="#000000">/main.cpp</text>
</a>
</g>
</g>
<!-- Node40&#45;&gt;Node41 -->
<g id="edge8" class="edge">
<title>Node40&#45;&gt;Node41</title>
<path fill="none" stroke="#191970" d="M740.8192,-125.0725C740.9693,-114.5646 741.1394,-102.6536 741.2682,-93.6445"/>
<polygon fill="#191970" stroke="#191970" points="737.3159,-125.2854 740.6726,-135.3345 744.3152,-125.3855 737.3159,-125.2854"/>
</g>
<!-- Node43 -->
<g id="node11" class="node">
<title>Node43</title>
<g id="a_node11"><a xlink:href="../../d5/da5/arteries_2boost__gmrf_2gmrf__gauss_2main_8cpp.html" target="_top" xlink:title="arteries/boost_gmrf\l/gmrf_gauss/main.cpp">
<polygon fill="#ffffff" stroke="#000000" points="133.2808,-65.5 133.2808,-93.5 247.6597,-93.5 247.6597,-65.5 133.2808,-65.5"/>
<text text-anchor="start" x="141.2808" y="-81.5" font-family="Helvetica,sans-Serif" font-size="10.00" fill="#000000">arteries/boost_gmrf</text>
<text text-anchor="middle" x="190.4702" y="-71.5" font-family="Helvetica,sans-Serif" font-size="10.00" fill="#000000">/gmrf_gauss/main.cpp</text>
</a>
</g>
</g>
<!-- Node42&#45;&gt;Node43 -->
<g id="edge10" class="edge">
<title>Node42&#45;&gt;Node43</title>
<path fill="none" stroke="#191970" d="M237.6015,-128.0175C226.7506,-116.8475 213.7914,-103.5071 204.2106,-93.6445"/>
<polygon fill="#191970" stroke="#191970" points="235.231,-130.6004 244.7094,-135.3345 240.252,-125.7229 235.231,-130.6004"/>
</g>
<!-- Node44 -->
<g id="node12" class="node">
<title>Node44</title>
<g id="a_node12"><a xlink:href="../../d2/dbe/arteries_2boost__gmrf_2gmrf__nodes_2main_8cpp.html" target="_top" xlink:title="arteries/boost_gmrf\l/gmrf_nodes/main.cpp">
<polygon fill="#ffffff" stroke="#000000" points="0,-65.5 0,-93.5 114.9404,-93.5 114.9404,-65.5 0,-65.5"/>
<text text-anchor="start" x="8" y="-81.5" font-family="Helvetica,sans-Serif" font-size="10.00" fill="#000000">arteries/boost_gmrf</text>
<text text-anchor="middle" x="57.4702" y="-71.5" font-family="Helvetica,sans-Serif" font-size="10.00" fill="#000000">/gmrf_nodes/main.cpp</text>
</a>
</g>
</g>
<!-- Node42&#45;&gt;Node44 -->
<g id="edge11" class="edge">
<title>Node42&#45;&gt;Node44</title>
<path fill="none" stroke="#191970" d="M208.0185,-131.9298C173.9116,-120.0517 129.4784,-104.5775 97.7416,-93.5249"/>
<polygon fill="#191970" stroke="#191970" points="207.2,-135.3508 217.7949,-135.3345 209.5023,-128.7402 207.2,-135.3508"/>
</g>
<!-- Node45 -->
<g id="node13" class="node">
<title>Node45</title>
<g id="a_node13"><a xlink:href="../../da/df3/arteries_2gmrf__neumann_2main_8cpp.html" target="_top" xlink:title="arteries/gmrf_neumann\l/main.cpp">
<polygon fill="#ffffff" stroke="#000000" points="265.7783,-65.5 265.7783,-93.5 385.1621,-93.5 385.1621,-65.5 265.7783,-65.5"/>
<text text-anchor="start" x="273.7783" y="-81.5" font-family="Helvetica,sans-Serif" font-size="10.00" fill="#000000">arteries/gmrf_neumann</text>
<text text-anchor="middle" x="325.4702" y="-71.5" font-family="Helvetica,sans-Serif" font-size="10.00" fill="#000000">/main.cpp</text>
</a>
</g>
</g>
<!-- Node42&#45;&gt;Node45 -->
<g id="edge12" class="edge">
<title>Node42&#45;&gt;Node45</title>
<path fill="none" stroke="#191970" d="M279.032,-128.0175C289.7234,-116.8475 302.492,-103.5071 311.9319,-93.6445"/>
<polygon fill="#191970" stroke="#191970" points="276.4148,-125.6901 272.0287,-135.3345 281.4717,-130.5304 276.4148,-125.6901"/>
</g>
<!-- Node47 -->
<g id="node15" class="node">
<title>Node47</title>
<g id="a_node15"><a xlink:href="../../d5/d58/nrl_2forward__deterministic_2main_8cpp.html" target="_top" xlink:title="nrl/forward_deterministic\l/main.cpp">
<polygon fill="#ffffff" stroke="#000000" points="1329.0073,-65.5 1329.0073,-93.5 1453.9331,-93.5 1453.9331,-65.5 1329.0073,-65.5"/>
<text text-anchor="start" x="1337.0073" y="-81.5" font-family="Helvetica,sans-Serif" font-size="10.00" fill="#000000">nrl/forward_deterministic</text>
<text text-anchor="middle" x="1391.4702" y="-71.5" font-family="Helvetica,sans-Serif" font-size="10.00" fill="#000000">/main.cpp</text>
</a>
</g>
</g>
<!-- Node46&#45;&gt;Node47 -->
<g id="edge14" class="edge">
<title>Node46&#45;&gt;Node47</title>
<path fill="none" stroke="#191970" d="M1391.4702,-125.0725C1391.4702,-114.5646 1391.4702,-102.6536 1391.4702,-93.6445"/>
<polygon fill="#191970" stroke="#191970" points="1387.9703,-125.3344 1391.4702,-135.3345 1394.9703,-125.3345 1387.9703,-125.3344"/>
</g>
<!-- Node48 -->
<g id="node16" class="node">
<title>Node48</title>
<g id="a_node16"><a xlink:href="../../dd/dae/_random_search___deterministic_model_8hpp.html" target="_top" xlink:title="nrl/randomsearch_deterministicmodel\l/RandomSearch_DeterministicModel.hpp">
<polygon fill="#ffffff" stroke="#000000" points="1472.3154,-65.5 1472.3154,-93.5 1670.625,-93.5 1670.625,-65.5 1472.3154,-65.5"/>
<text text-anchor="start" x="1480.3154" y="-81.5" font-family="Helvetica,sans-Serif" font-size="10.00" fill="#000000">nrl/randomsearch_deterministicmodel</text>
<text text-anchor="middle" x="1571.4702" y="-71.5" font-family="Helvetica,sans-Serif" font-size="10.00" fill="#000000">/RandomSearch_DeterministicModel.hpp</text>
</a>
</g>
</g>
<!-- Node46&#45;&gt;Node48 -->
<g id="edge15" class="edge">
<title>Node46&#45;&gt;Node48</title>
<path fill="none" stroke="#191970" d="M1437.4394,-131.6231C1467.8766,-119.7864 1507.2293,-104.4826 1535.4063,-93.5249"/>
<polygon fill="#191970" stroke="#191970" points="1435.9474,-128.4479 1427.8959,-135.3345 1438.4845,-134.9719 1435.9474,-128.4479"/>
</g>
<!-- Node49 -->
<g id="node17" class="node">
<title>Node49</title>
<g id="a_node17"><a xlink:href="../../d5/d17/nrl_2randomsearch__deterministicmodel_2main_8cpp.html" target="_top" xlink:title="nrl/randomsearch_deterministicmodel\l/main.cpp">
<polygon fill="#ffffff" stroke="#000000" points="1345.1011,-.5 1345.1011,-28.5 1527.8394,-28.5 1527.8394,-.5 1345.1011,-.5"/>
<text text-anchor="start" x="1353.1011" y="-16.5" font-family="Helvetica,sans-Serif" font-size="10.00" fill="#000000">nrl/randomsearch_deterministicmodel</text>
<text text-anchor="middle" x="1436.4702" y="-6.5" font-family="Helvetica,sans-Serif" font-size="10.00" fill="#000000">/main.cpp</text>
</a>
</g>
</g>
<!-- Node48&#45;&gt;Node49 -->
<g id="edge16" class="edge">
<title>Node48&#45;&gt;Node49</title>
<path fill="none" stroke="#191970" d="M1533.0306,-60.9921C1511.6325,-50.6892 1485.4185,-38.0677 1465.706,-28.5765"/>
<polygon fill="#191970" stroke="#191970" points="1531.6488,-64.2113 1542.1772,-65.396 1534.6856,-57.9042 1531.6488,-64.2113"/>
</g>
<!-- Node51 -->
<g id="node19" class="node">
<title>Node51</title>
<g id="a_node19"><a xlink:href="../../df/df6/forward_costfunction_8hpp.html" target="_top" xlink:title="nrl/forward_randomfield\l/forwardCostfunction.hpp">
<polygon fill="#ffffff" stroke="#000000" points="814.8843,-65.5 814.8843,-93.5 942.0562,-93.5 942.0562,-65.5 814.8843,-65.5"/>
<text text-anchor="start" x="822.8843" y="-81.5" font-family="Helvetica,sans-Serif" font-size="10.00" fill="#000000">nrl/forward_randomfield</text>
<text text-anchor="middle" x="878.4702" y="-71.5" font-family="Helvetica,sans-Serif" font-size="10.00" fill="#000000">/forwardCostfunction.hpp</text>
</a>
</g>
</g>
<!-- Node50&#45;&gt;Node51 -->
<g id="edge18" class="edge">
<title>Node50&#45;&gt;Node51</title>
<path fill="none" stroke="#191970" d="M878.4702,-120.1346C878.4702,-111.0837 878.4702,-101.5165 878.4702,-93.9404"/>
<polygon fill="#191970" stroke="#191970" points="874.9703,-120.3722 878.4702,-130.3722 881.9703,-120.3722 874.9703,-120.3722"/>
</g>
<!-- Node52 -->
<g id="node20" class="node">
<title>Node52</title>
<g id="a_node20"><a xlink:href="../../db/de3/nrl_2forward__randomfield_2main_8cpp.html" target="_top" xlink:title="nrl/forward_randomfield\l/main.cpp">
<polygon fill="#ffffff" stroke="#000000" points="817.9458,-.5 817.9458,-28.5 938.9946,-28.5 938.9946,-.5 817.9458,-.5"/>
<text text-anchor="start" x="825.9458" y="-16.5" font-family="Helvetica,sans-Serif" font-size="10.00" fill="#000000">nrl/forward_randomfield</text>
<text text-anchor="middle" x="878.4702" y="-6.5" font-family="Helvetica,sans-Serif" font-size="10.00" fill="#000000">/main.cpp</text>
</a>
</g>
</g>
<!-- Node51&#45;&gt;Node52 -->
<g id="edge19" class="edge">
<title>Node51&#45;&gt;Node52</title>
<path fill="none" stroke="#191970" d="M878.4702,-55.1081C878.4702,-46.1539 878.4702,-36.3227 878.4702,-28.5765"/>
<polygon fill="#191970" stroke="#191970" points="874.9703,-55.3959 878.4702,-65.396 881.9703,-55.396 874.9703,-55.3959"/>
</g>
<!-- Node54&#45;&gt;Node36 -->
<g id="edge22" class="edge">
<title>Node54&#45;&gt;Node36</title>
<path fill="none" stroke="#191970" d="M1116.0771,-143.9151C1264.491,-133.5189 1573.0778,-110.7361 1679.4702,-94 1682.3529,-93.5465 1685.2998,-93.0356 1688.2683,-92.4836"/>
<polygon fill="#191970" stroke="#191970" points="1115.4048,-140.4535 1105.6731,-144.642 1115.8927,-147.4364 1115.4048,-140.4535"/>
</g>
<!-- Node54&#45;&gt;Node38 -->
<g id="edge23" class="edge">
<title>Node54&#45;&gt;Node38</title>
<path fill="none" stroke="#191970" d="M990.7727,-137.9259C979.0393,-135.0715 966.3187,-132.2043 954.4702,-130 831.9846,-107.2132 799.1,-115.9982 676.4702,-94 673.598,-93.4848 670.6593,-92.9246 667.6973,-92.334"/>
<polygon fill="#191970" stroke="#191970" points="990.2339,-141.3985 1000.7829,-140.4142 991.9226,-134.6052 990.2339,-141.3985"/>
</g>
<!-- Node54&#45;&gt;Node39 -->
<g id="edge26" class="edge">
<title>Node54&#45;&gt;Node39</title>
<path fill="none" stroke="#191970" d="M992.1586,-137.9309C980.0617,-134.9662 966.811,-132.042 954.4702,-130 776.6214,-100.5719 729.0644,-118.501 550.4702,-94 539.5535,-92.5024 527.8426,-90.5247 516.8999,-88.5134"/>
<polygon fill="#191970" stroke="#191970" points="991.4511,-141.362 1002.0033,-140.4124 993.1621,-134.5743 991.4511,-141.362"/>
</g>
<!-- Node54&#45;&gt;Node41 -->
<g id="edge25" class="edge">
<title>Node54&#45;&gt;Node41</title>
<path fill="none" stroke="#191970" d="M987.6654,-138.039C976.7727,-135.3862 965.2184,-132.5841 954.4702,-130 901.0755,-117.163 840.095,-102.7281 797.1044,-92.5891"/>
<polygon fill="#191970" stroke="#191970" points="986.8964,-141.4539 997.4409,-140.4226 988.5547,-134.6532 986.8964,-141.4539"/>
</g>
<!-- Node54&#45;&gt;Node45 -->
<g id="edge24" class="edge">
<title>Node54&#45;&gt;Node45</title>
<path fill="none" stroke="#191970" d="M992.837,-137.8919C980.5674,-134.8686 967.0561,-131.9233 954.4702,-130 707.9296,-92.3247 641.5813,-127.7313 394.4702,-94 391.4381,-93.5861 388.3402,-93.1148 385.2182,-92.6012"/>
<polygon fill="#191970" stroke="#191970" points="992.2495,-141.3539 1002.8039,-140.4291 993.9764,-134.5702 992.2495,-141.3539"/>
</g>
<!-- Node54&#45;&gt;Node47 -->
<g id="edge28" class="edge">
<title>Node54&#45;&gt;Node47</title>
<path fill="none" stroke="#191970" d="M1090.4321,-138.5271C1155.1725,-125.8329 1261.4818,-104.9879 1328.9026,-91.7682"/>
<polygon fill="#191970" stroke="#191970" points="1089.5505,-135.1332 1080.4109,-140.492 1090.8975,-142.0024 1089.5505,-135.1332"/>
</g>
<!-- Node54&#45;&gt;Node48 -->
<g id="edge31" class="edge">
<title>Node54&#45;&gt;Node48</title>
<path fill="none" stroke="#191970" d="M1114.491,-139.2035C1200.4826,-128.12 1341.1666,-109.9332 1462.4702,-94 1465.6879,-93.5774 1468.959,-93.1469 1472.262,-92.7115"/>
<polygon fill="#191970" stroke="#191970" points="1114.0092,-135.7366 1104.5386,-140.486 1114.9039,-142.6792 1114.0092,-135.7366"/>
</g>
<!-- Node54&#45;&gt;Node49 -->
<g id="edge30" class="edge">
<title>Node54&#45;&gt;Node49</title>
<path fill="none" stroke="#191970" d="M1115.8678,-140.3056C1165.7074,-132.5151 1229.8086,-118.5363 1282.4702,-94 1301.7277,-85.0275 1302.153,-75.7628 1320.4702,-65 1345.1836,-50.479 1374.8448,-37.6396 1397.9873,-28.5409"/>
<polygon fill="#191970" stroke="#191970" points="1115.1438,-136.8752 1105.7785,-141.829 1116.189,-143.7967 1115.1438,-136.8752"/>
</g>
<!-- Node54&#45;&gt;Node51 -->
<g id="edge29" class="edge">
<title>Node54&#45;&gt;Node51</title>
<path fill="none" stroke="#191970" d="M1005.0148,-136.2828C977.82,-124.08 937.557,-106.0133 909.7856,-93.5518"/>
<polygon fill="#191970" stroke="#191970" points="1003.8388,-139.5913 1014.3953,-140.492 1006.7046,-133.2048 1003.8388,-139.5913"/>
</g>
<!-- Node55 -->
<g id="node23" class="node">
<title>Node55</title>
<g id="a_node23"><a xlink:href="../../de/de8/example__pnpoly__inverse__isoparam_8cpp.html" target="_top" xlink:title="examples/pnpoly/example\l_pnpoly_inverse_isoparam.cpp">
<polygon fill="#ffffff" stroke="#000000" points="1119.2612,-65.5 1119.2612,-93.5 1273.6792,-93.5 1273.6792,-65.5 1119.2612,-65.5"/>
<text text-anchor="start" x="1127.2612" y="-81.5" font-family="Helvetica,sans-Serif" font-size="10.00" fill="#000000">examples/pnpoly/example</text>
<text text-anchor="middle" x="1196.4702" y="-71.5" font-family="Helvetica,sans-Serif" font-size="10.00" fill="#000000">_pnpoly_inverse_isoparam.cpp</text>
</a>
</g>
</g>
<!-- Node54&#45;&gt;Node55 -->
<g id="edge27" class="edge">
<title>Node54&#45;&gt;Node55</title>
<path fill="none" stroke="#191970" d="M1064.6878,-136.443C1092.9323,-124.2386 1134.9844,-106.0679 1163.9504,-93.5518"/>
<polygon fill="#191970" stroke="#191970" points="1063.1086,-133.3125 1055.3172,-140.492 1065.8852,-139.7383 1063.1086,-133.3125"/>
</g>
<!-- Node56 -->
<g id="node24" class="node">
<title>Node56</title>
<g id="a_node24"><a xlink:href="../../d5/dc7/_newton___raphsonpp_8cpp.html" target="_top" xlink:title="src/Newton_Raphsonpp.cpp">
<polygon fill="#ffffff" stroke="#000000" points="959.6553,-70.5 959.6553,-88.5 1101.2852,-88.5 1101.2852,-70.5 959.6553,-70.5"/>
<text text-anchor="middle" x="1030.4702" y="-76.5" font-family="Helvetica,sans-Serif" font-size="10.00" fill="#000000">src/Newton_Raphsonpp.cpp</text>
</a>
</g>
</g>
<!-- Node54&#45;&gt;Node56 -->
<g id="edge32" class="edge">
<title>Node54&#45;&gt;Node56</title>
<path fill="none" stroke="#191970" d="M1033.3676,-130.2039C1032.599,-116.7531 1031.6073,-99.3986 1031.006,-88.8769"/>
<polygon fill="#191970" stroke="#191970" points="1029.8824,-130.5647 1033.9473,-140.3487 1036.871,-130.1653 1029.8824,-130.5647"/>
</g>
</g>
</svg>
