<?xml version="1.0" encoding="UTF-8" standalone="no"?>
<!DOCTYPE svg PUBLIC "-//W3C//DTD SVG 1.1//EN"
 "http://www.w3.org/Graphics/SVG/1.1/DTD/svg11.dtd">
<!-- Generated by graphviz version 2.40.1 (20161225.0304)
 -->
<!-- Title: src/Finite_Element_Problem.hpp Pages: 1 -->
<!--zoomable 307 -->
<svg id="main" version="1.1" xmlns="http://www.w3.org/2000/svg" xmlns:xlink="http://www.w3.org/1999/xlink" xml:space="preserve" onload="init(evt)">
<style type="text/css"><![CDATA[
.edge:hover path { stroke: red; }
.edge:hover polygon { stroke: red; fill: red; }
]]></style>
<script type="text/javascript"><![CDATA[
var edges = document.getElementsByTagName('g');
if (edges && edges.length) {
  for (var i=0;i<edges.length;i++) {
    if (edges[i].id.substr(0,4)=='edge') {
      edges[i].setAttribute('class','edge');
    }
  }
}
]]></script>
        <defs>
                <circle id="rim" cx="0" cy="0" r="7"/>
                <circle id="rim2" cx="0" cy="0" r="3.5"/>
                <g id="zoomPlus">
                        <use xlink:href="#rim" fill="#404040">
                                <set attributeName="fill" to="#808080" begin="zoomplus.mouseover" end="zoomplus.mouseout"/>
                        </use>
                        <path d="M-4,0h8M0,-4v8" fill="none" stroke="white" stroke-width="1.5" pointer-events="none"/>
                </g>
                <g id="zoomMin">
                        <use xlink:href="#rim" fill="#404040">
                                <set attributeName="fill" to="#808080" begin="zoomminus.mouseover" end="zoomminus.mouseout"/>
                        </use>
                        <path d="M-4,0h8" fill="none" stroke="white" stroke-width="1.5" pointer-events="none"/>
                </g>
                <g id="dirArrow">
                        <path fill="none" stroke="white" stroke-width="1.5" d="M0,-3.0v7 M-2.5,-0.5L0,-3.0L2.5,-0.5"/>
                </g>
               <g id="resetDef">
                       <use xlink:href="#rim2" fill="#404040">
                               <set attributeName="fill" to="#808080" begin="reset.mouseover" end="reset.mouseout"/>
                       </use>
               </g>
        </defs>

<script type="text/javascript">
var viewWidth = 2090;
var viewHeight = 307;
var sectionId = 'dynsection-1';
</script>
<script xlink:href="../../svgpan.js"/>
<svg id="graph" class="graph">
<g id="viewport">
<title>src/Finite_Element_Problem.hpp</title>
<polygon fill="#ffffff" stroke="transparent" points="-4,4 -4,-303 2086.2334,-303 2086.2334,4 -4,4"/>
<!-- Node34 -->
<g id="node1" class="node">
<title>Node34</title>
<polygon fill="#bfbfbf" stroke="#000000" points="1206.0664,-270.5 1206.0664,-298.5 1304.874,-298.5 1304.874,-270.5 1206.0664,-270.5"/>
<text text-anchor="start" x="1214.0664" y="-286.5" font-family="Helvetica,sans-Serif" font-size="10.00" fill="#000000">src/Finite_Element</text>
<text text-anchor="middle" x="1255.4702" y="-276.5" font-family="Helvetica,sans-Serif" font-size="10.00" fill="#000000">_Problem.hpp</text>
</g>
<!-- Node35 -->
<g id="node2" class="node">
<title>Node35</title>
<g id="a_node2"><a xlink:href="../../de/d9d/hyperelasticity__setup__pp_8hpp.html" target="_top" xlink:title="src/hyperelasticity\l_setup_pp.hpp">
<polygon fill="#ffffff" stroke="#000000" points="1070.7363,-205.5 1070.7363,-233.5 1166.2041,-233.5 1166.2041,-205.5 1070.7363,-205.5"/>
<text text-anchor="start" x="1078.7363" y="-221.5" font-family="Helvetica,sans-Serif" font-size="10.00" fill="#000000">src/hyperelasticity</text>
<text text-anchor="middle" x="1118.4702" y="-211.5" font-family="Helvetica,sans-Serif" font-size="10.00" fill="#000000">_setup_pp.hpp</text>
</a>
</g>
</g>
<!-- Node34&#45;&gt;Node35 -->
<g id="edge1" class="edge">
<title>Node34&#45;&gt;Node35</title>
<path fill="none" stroke="#191970" d="M1216.4612,-265.9921C1194.746,-255.6892 1168.1437,-243.0677 1148.1392,-233.5765"/>
<polygon fill="#191970" stroke="#191970" points="1215.2082,-269.2715 1225.7433,-270.396 1218.2089,-262.9472 1215.2082,-269.2715"/>
</g>
<!-- Node59 -->
<g id="node26" class="node">
<title>Node59</title>
<g id="a_node26"><a xlink:href="../../d7/d17/_newton___raphsonpp_8hpp.html" target="_top" xlink:title="src/Newton_Raphsonpp.hpp">
<polygon fill="#ffffff" stroke="#000000" points="1184.3745,-140.5 1184.3745,-158.5 1326.5659,-158.5 1326.5659,-140.5 1184.3745,-140.5"/>
<text text-anchor="middle" x="1255.4702" y="-146.5" font-family="Helvetica,sans-Serif" font-size="10.00" fill="#000000">src/Newton_Raphsonpp.hpp</text>
</a>
</g>
</g>
<!-- Node34&#45;&gt;Node59 -->
<g id="edge41" class="edge">
<title>Node34&#45;&gt;Node59</title>
<path fill="none" stroke="#191970" d="M1255.4702,-260.1081C1255.4702,-229.7089 1255.4702,-179.2529 1255.4702,-158.6688"/>
<polygon fill="#191970" stroke="#191970" points="1251.9703,-260.3078 1255.4702,-270.3078 1258.9703,-260.3078 1251.9703,-260.3078"/>
</g>
<!-- Node62 -->
<g id="node29" class="node">
<title>Node62</title>
<g id="a_node29"><a xlink:href="../../d2/d34/hyperelasticity_8hpp.html" target="_top" xlink:title="src/hyperelasticity.hpp">
<polygon fill="#ffffff" stroke="#000000" points="1484.3735,-210.5 1484.3735,-228.5 1598.5669,-228.5 1598.5669,-210.5 1484.3735,-210.5"/>
<text text-anchor="middle" x="1541.4702" y="-216.5" font-family="Helvetica,sans-Serif" font-size="10.00" fill="#000000">src/hyperelasticity.hpp</text>
</a>
</g>
</g>
<!-- Node34&#45;&gt;Node62 -->
<g id="edge39" class="edge">
<title>Node34&#45;&gt;Node62</title>
<path fill="none" stroke="#191970" d="M1314.7547,-271.0263C1370.7878,-258.2915 1453.29,-239.541 1501.7859,-228.5192"/>
<polygon fill="#191970" stroke="#191970" points="1313.9367,-267.6228 1304.9611,-273.2521 1315.4881,-274.4487 1313.9367,-267.6228"/>
</g>
<!-- Node36 -->
<g id="node3" class="node">
<title>Node36</title>
<g id="a_node3"><a xlink:href="../../de/d4a/rubberblock_8hpp.html" target="_top" xlink:title="examples/rubberblock\l/rubberblock.hpp">
<polygon fill="#ffffff" stroke="#000000" points="938.5566,-135.5 938.5566,-163.5 1052.3838,-163.5 1052.3838,-135.5 938.5566,-135.5"/>
<text text-anchor="start" x="946.5566" y="-151.5" font-family="Helvetica,sans-Serif" font-size="10.00" fill="#000000">examples/rubberblock</text>
<text text-anchor="middle" x="995.4702" y="-141.5" font-family="Helvetica,sans-Serif" font-size="10.00" fill="#000000">/rubberblock.hpp</text>
</a>
</g>
</g>
<!-- Node35&#45;&gt;Node36 -->
<g id="edge2" class="edge">
<title>Node35&#45;&gt;Node36</title>
<path fill="none" stroke="#191970" d="M1084.6308,-200.2418C1064.2782,-188.659 1038.8205,-174.1709 1020.3241,-163.6445"/>
<polygon fill="#191970" stroke="#191970" points="1083.157,-203.4301 1093.5793,-205.3345 1086.6194,-197.3463 1083.157,-203.4301"/>
</g>
<!-- Node38 -->
<g id="node5" class="node">
<title>Node38</title>
<g id="a_node5"><a xlink:href="../../dc/de4/manufactured_solution_8hpp.html" target="_top" xlink:title="nrl/manufactured_solution\l/manufacturedSolution.hpp">
<polygon fill="#ffffff" stroke="#000000" points="1946.707,-65.5 1946.707,-93.5 2082.2334,-93.5 2082.2334,-65.5 1946.707,-65.5"/>
<text text-anchor="start" x="1954.707" y="-81.5" font-family="Helvetica,sans-Serif" font-size="10.00" fill="#000000">nrl/manufactured_solution</text>
<text text-anchor="middle" x="2014.4702" y="-71.5" font-family="Helvetica,sans-Serif" font-size="10.00" fill="#000000">/manufacturedSolution.hpp</text>
</a>
</g>
</g>
<!-- Node35&#45;&gt;Node38 -->
<g id="edge4" class="edge">
<title>Node35&#45;&gt;Node38</title>
<path fill="none" stroke="#191970" d="M1176.5584,-216.7952C1315.2221,-210.012 1657.5374,-191.2199 1704.4702,-169 1726.3435,-158.6443 1721.1172,-141.3899 1742.4702,-130 1820.6163,-88.3162 1851.4146,-110.2993 1938.4702,-94 1941.1108,-93.5056 1943.8027,-93 1946.5217,-92.4878"/>
<polygon fill="#191970" stroke="#191970" points="1176.3571,-213.3008 1166.5387,-217.2818 1176.6967,-220.2925 1176.3571,-213.3008"/>
</g>
<!-- Node40 -->
<g id="node7" class="node">
<title>Node40</title>
<g id="a_node7"><a xlink:href="../../d6/db8/_arteries___model_c__deterministic__dirichlet_8hpp.html" target="_top" xlink:title="src/Arteries_ModelC\l_deterministic_dirichlet.hpp">
<polygon fill="#ffffff" stroke="#000000" points="424.8843,-135.5 424.8843,-163.5 562.0562,-163.5 562.0562,-135.5 424.8843,-135.5"/>
<text text-anchor="start" x="432.8843" y="-151.5" font-family="Helvetica,sans-Serif" font-size="10.00" fill="#000000">src/Arteries_ModelC</text>
<text text-anchor="middle" x="493.4702" y="-141.5" font-family="Helvetica,sans-Serif" font-size="10.00" fill="#000000">_deterministic_dirichlet.hpp</text>
</a>
</g>
</g>
<!-- Node35&#45;&gt;Node40 -->
<g id="edge6" class="edge">
<title>Node35&#45;&gt;Node40</title>
<path fill="none" stroke="#191970" d="M1060.3375,-213.7612C970.7552,-204.818 793.5933,-186.7358 643.4702,-169 616.8692,-165.8573 587.653,-162.1233 562.1286,-158.768"/>
<polygon fill="#191970" stroke="#191970" points="1060.2614,-217.2709 1070.5592,-214.7799 1060.9557,-210.3054 1060.2614,-217.2709"/>
</g>
<!-- Node42 -->
<g id="node9" class="node">
<title>Node42</title>
<g id="a_node9"><a xlink:href="../../dd/da4/_arteries___model_c__deterministic__neumann_8hpp.html" target="_top" xlink:title="src/Arteries_ModelC\l_deterministic_neumann.hpp">
<polygon fill="#ffffff" stroke="#000000" points="652.2637,-135.5 652.2637,-163.5 796.6768,-163.5 796.6768,-135.5 652.2637,-135.5"/>
<text text-anchor="start" x="660.2637" y="-151.5" font-family="Helvetica,sans-Serif" font-size="10.00" fill="#000000">src/Arteries_ModelC</text>
<text text-anchor="middle" x="724.4702" y="-141.5" font-family="Helvetica,sans-Serif" font-size="10.00" fill="#000000">_deterministic_neumann.hpp</text>
</a>
</g>
</g>
<!-- Node35&#45;&gt;Node42 -->
<g id="edge8" class="edge">
<title>Node35&#45;&gt;Node42</title>
<path fill="none" stroke="#191970" d="M1060.4023,-211.4847C997.3831,-202.4711 893.9088,-186.7529 805.4702,-169 797.3868,-167.3774 788.8874,-165.5106 780.558,-163.5888"/>
<polygon fill="#191970" stroke="#191970" points="1060.1482,-214.9837 1070.5414,-212.927 1061.134,-208.0535 1060.1482,-214.9837"/>
</g>
<!-- Node45 -->
<g id="node12" class="node">
<title>Node45</title>
<g id="a_node12"><a xlink:href="../../de/d6d/_arteries___model_c__gmrf__dirichlet_8hpp.html" target="_top" xlink:title="src/Arteries_ModelC\l_gmrf_dirichlet.hpp">
<polygon fill="#ffffff" stroke="#000000" points="814.1797,-135.5 814.1797,-163.5 920.7607,-163.5 920.7607,-135.5 814.1797,-135.5"/>
<text text-anchor="start" x="822.1797" y="-151.5" font-family="Helvetica,sans-Serif" font-size="10.00" fill="#000000">src/Arteries_ModelC</text>
<text text-anchor="middle" x="867.4702" y="-141.5" font-family="Helvetica,sans-Serif" font-size="10.00" fill="#000000">_gmrf_dirichlet.hpp</text>
</a>
</g>
</g>
<!-- Node35&#45;&gt;Node45 -->
<g id="edge11" class="edge">
<title>Node35&#45;&gt;Node45</title>
<path fill="none" stroke="#191970" d="M1060.7899,-204.7851C1023.2654,-195.0406 973.3296,-181.7502 929.4702,-169 923.6192,-167.2991 917.478,-165.4481 911.4292,-163.586"/>
<polygon fill="#191970" stroke="#191970" points="1059.9811,-208.191 1070.5392,-207.3096 1061.7359,-201.4145 1059.9811,-208.191"/>
</g>
<!-- Node47 -->
<g id="node14" class="node">
<title>Node47</title>
<g id="a_node14"><a xlink:href="../../dd/d1f/_arteries___model_c__gmrf__neumann_8hpp.html" target="_top" xlink:title="src/Arteries_ModelC\l_gmrf_neumann.hpp">
<polygon fill="#ffffff" stroke="#000000" points="235.3276,-135.5 235.3276,-163.5 343.6128,-163.5 343.6128,-135.5 235.3276,-135.5"/>
<text text-anchor="start" x="243.3276" y="-151.5" font-family="Helvetica,sans-Serif" font-size="10.00" fill="#000000">src/Arteries_ModelC</text>
<text text-anchor="middle" x="289.4702" y="-141.5" font-family="Helvetica,sans-Serif" font-size="10.00" fill="#000000">_gmrf_neumann.hpp</text>
</a>
</g>
</g>
<!-- Node35&#45;&gt;Node47 -->
<g id="edge13" class="edge">
<title>Node35&#45;&gt;Node47</title>
<path fill="none" stroke="#191970" d="M1060.5088,-216.9444C940.0784,-211.2807 654.122,-195.9931 415.4702,-169 391.9354,-166.3381 366.0623,-162.4947 343.917,-158.9226"/>
<polygon fill="#191970" stroke="#191970" points="1060.4597,-220.4458 1070.6118,-217.4152 1060.7856,-213.4534 1060.4597,-220.4458"/>
</g>
<!-- Node51 -->
<g id="node18" class="node">
<title>Node51</title>
<g id="a_node18"><a xlink:href="../../df/dc0/_compressible___mooney___transverse___isotropic_8hpp.html" target="_top" xlink:title="src/Compressible_Mooney\l_Transverse_Isotropic.hpp">
<polygon fill="#ffffff" stroke="#000000" points="1409.2808,-135.5 1409.2808,-163.5 1543.6597,-163.5 1543.6597,-135.5 1409.2808,-135.5"/>
<text text-anchor="start" x="1417.2808" y="-151.5" font-family="Helvetica,sans-Serif" font-size="10.00" fill="#000000">src/Compressible_Mooney</text>
<text text-anchor="middle" x="1476.4702" y="-141.5" font-family="Helvetica,sans-Serif" font-size="10.00" fill="#000000">_Transverse_Isotropic.hpp</text>
</a>
</g>
</g>
<!-- Node35&#45;&gt;Node51 -->
<g id="edge17" class="edge">
<title>Node35&#45;&gt;Node51</title>
<path fill="none" stroke="#191970" d="M1176.239,-208.2044C1239.7949,-195.7773 1341.8186,-175.8285 1408.9997,-162.6926"/>
<polygon fill="#191970" stroke="#191970" points="1175.5227,-204.7781 1166.3802,-210.1321 1176.866,-211.648 1175.5227,-204.7781"/>
</g>
<!-- Node55 -->
<g id="node22" class="node">
<title>Node55</title>
<g id="a_node22"><a xlink:href="../../d0/d77/_compressible___mooney___transverse___isotropic___random___field_8hpp.html" target="_top" xlink:title="src/Compressible_Mooney\l_Transverse_Isotropic\l_Random_Field.hpp">
<polygon fill="#ffffff" stroke="#000000" points="1561.2808,-130.5 1561.2808,-168.5 1695.6597,-168.5 1695.6597,-130.5 1561.2808,-130.5"/>
<text text-anchor="start" x="1569.2808" y="-156.5" font-family="Helvetica,sans-Serif" font-size="10.00" fill="#000000">src/Compressible_Mooney</text>
<text text-anchor="start" x="1569.2808" y="-146.5" font-family="Helvetica,sans-Serif" font-size="10.00" fill="#000000">_Transverse_Isotropic</text>
<text text-anchor="middle" x="1628.4702" y="-136.5" font-family="Helvetica,sans-Serif" font-size="10.00" fill="#000000">_Random_Field.hpp</text>
</a>
</g>
</g>
<!-- Node35&#45;&gt;Node55 -->
<g id="edge21" class="edge">
<title>Node35&#45;&gt;Node55</title>
<path fill="none" stroke="#191970" d="M1176.3624,-215.2704C1259.9168,-208.5997 1418.9439,-193.7808 1552.4702,-169 1555.2828,-168.478 1558.1453,-167.9105 1561.0307,-167.3083"/>
<polygon fill="#191970" stroke="#191970" points="1176.0028,-211.7878 1166.3087,-216.0627 1176.5528,-218.7662 1176.0028,-211.7878"/>
</g>
<!-- Node58 -->
<g id="node25" class="node">
<title>Node58</title>
<g id="a_node25"><a xlink:href="../../d0/d66/hyperelasticity__setup__pp_8cpp.html" target="_top" xlink:title="src/hyperelasticity\l_setup_pp.cpp">
<polygon fill="#ffffff" stroke="#000000" points="1070.7363,-135.5 1070.7363,-163.5 1166.2041,-163.5 1166.2041,-135.5 1070.7363,-135.5"/>
<text text-anchor="start" x="1078.7363" y="-151.5" font-family="Helvetica,sans-Serif" font-size="10.00" fill="#000000">src/hyperelasticity</text>
<text text-anchor="middle" x="1118.4702" y="-141.5" font-family="Helvetica,sans-Serif" font-size="10.00" fill="#000000">_setup_pp.cpp</text>
</a>
</g>
</g>
<!-- Node35&#45;&gt;Node58 -->
<g id="edge24" class="edge">
<title>Node35&#45;&gt;Node58</title>
<path fill="none" stroke="#191970" d="M1118.4702,-195.0725C1118.4702,-184.5646 1118.4702,-172.6536 1118.4702,-163.6445"/>
<polygon fill="#191970" stroke="#191970" points="1114.9703,-195.3344 1118.4702,-205.3345 1121.9703,-195.3345 1114.9703,-195.3344"/>
</g>
<!-- Node35&#45;&gt;Node59 -->
<g id="edge25" class="edge">
<title>Node35&#45;&gt;Node59</title>
<path fill="none" stroke="#191970" d="M1155.2715,-200.6964C1182.0136,-187.0326 1217.0247,-169.1437 1237.7922,-158.5325"/>
<polygon fill="#191970" stroke="#191970" points="1153.5066,-197.6677 1146.1942,-205.3345 1156.6917,-203.9012 1153.5066,-197.6677"/>
</g>
<!-- Node37 -->
<g id="node4" class="node">
<title>Node37</title>
<g id="a_node4"><a xlink:href="../../d4/d7f/examples_2rubberblock_2main_8cpp.html" target="_top" xlink:title="examples/rubberblock\l/main.cpp">
<polygon fill="#ffffff" stroke="#000000" points="940.5566,-65.5 940.5566,-93.5 1054.3838,-93.5 1054.3838,-65.5 940.5566,-65.5"/>
<text text-anchor="start" x="948.5566" y="-81.5" font-family="Helvetica,sans-Serif" font-size="10.00" fill="#000000">examples/rubberblock</text>
<text text-anchor="middle" x="997.4702" y="-71.5" font-family="Helvetica,sans-Serif" font-size="10.00" fill="#000000">/main.cpp</text>
</a>
</g>
</g>
<!-- Node36&#45;&gt;Node37 -->
<g id="edge3" class="edge">
<title>Node36&#45;&gt;Node37</title>
<path fill="none" stroke="#191970" d="M996.1681,-125.0725C996.4684,-114.5646 996.8087,-102.6536 997.0661,-93.6445"/>
<polygon fill="#191970" stroke="#191970" points="992.6621,-125.2385 995.8749,-135.3345 999.6592,-125.4385 992.6621,-125.2385"/>
</g>
<!-- Node39 -->
<g id="node6" class="node">
<title>Node39</title>
<g id="a_node6"><a xlink:href="../../d4/db6/nrl_2manufactured__solution_2main_8cpp.html" target="_top" xlink:title="nrl/manufactured_solution\l/main.cpp">
<polygon fill="#ffffff" stroke="#000000" points="1948.936,-.5 1948.936,-28.5 2080.0044,-28.5 2080.0044,-.5 1948.936,-.5"/>
<text text-anchor="start" x="1956.936" y="-16.5" font-family="Helvetica,sans-Serif" font-size="10.00" fill="#000000">nrl/manufactured_solution</text>
<text text-anchor="middle" x="2014.4702" y="-6.5" font-family="Helvetica,sans-Serif" font-size="10.00" fill="#000000">/main.cpp</text>
</a>
</g>
</g>
<!-- Node38&#45;&gt;Node39 -->
<g id="edge5" class="edge">
<title>Node38&#45;&gt;Node39</title>
<path fill="none" stroke="#191970" d="M2014.4702,-55.1081C2014.4702,-46.1539 2014.4702,-36.3227 2014.4702,-28.5765"/>
<polygon fill="#191970" stroke="#191970" points="2010.9703,-55.3959 2014.4702,-65.396 2017.9703,-55.396 2010.9703,-55.3959"/>
</g>
<!-- Node41 -->
<g id="node8" class="node">
<title>Node41</title>
<g id="a_node8"><a xlink:href="../../de/da1/arteries_2deterministic__dirichlet_2main_8cpp.html" target="_top" xlink:title="arteries/deterministic\l_dirichlet/main.cpp">
<polygon fill="#ffffff" stroke="#000000" points="403.3447,-65.5 403.3447,-93.5 511.5957,-93.5 511.5957,-65.5 403.3447,-65.5"/>
<text text-anchor="start" x="411.3447" y="-81.5" font-family="Helvetica,sans-Serif" font-size="10.00" fill="#000000">arteries/deterministic</text>
<text text-anchor="middle" x="457.4702" y="-71.5" font-family="Helvetica,sans-Serif" font-size="10.00" fill="#000000">_dirichlet/main.cpp</text>
</a>
</g>
</g>
<!-- Node40&#45;&gt;Node41 -->
<g id="edge7" class="edge">
<title>Node40&#45;&gt;Node41</title>
<path fill="none" stroke="#191970" d="M481.5861,-126.392C476.0219,-115.5728 469.5729,-103.0329 464.7445,-93.6445"/>
<polygon fill="#191970" stroke="#191970" points="478.499,-128.0423 486.1851,-135.3345 484.7241,-124.8408 478.499,-128.0423"/>
</g>
<!-- Node43 -->
<g id="node10" class="node">
<title>Node43</title>
<g id="a_node10"><a xlink:href="../../d9/d81/arteries_2deterministic__neumann_2main_8cpp.html" target="_top" xlink:title="arteries/deterministic\l_neumann/main.cpp">
<polygon fill="#ffffff" stroke="#000000" points="685.3447,-65.5 685.3447,-93.5 793.5957,-93.5 793.5957,-65.5 685.3447,-65.5"/>
<text text-anchor="start" x="693.3447" y="-81.5" font-family="Helvetica,sans-Serif" font-size="10.00" fill="#000000">arteries/deterministic</text>
<text text-anchor="middle" x="739.4702" y="-71.5" font-family="Helvetica,sans-Serif" font-size="10.00" fill="#000000">_neumann/main.cpp</text>
</a>
</g>
</g>
<!-- Node42&#45;&gt;Node43 -->
<g id="edge9" class="edge">
<title>Node42&#45;&gt;Node43</title>
<path fill="none" stroke="#191970" d="M729.6337,-125.4038C731.9026,-114.8157 734.4884,-102.7484 736.4393,-93.6445"/>
<polygon fill="#191970" stroke="#191970" points="726.1787,-124.8231 727.5057,-135.3345 733.0234,-126.2898 726.1787,-124.8231"/>
</g>
<!-- Node44 -->
<g id="node11" class="node">
<title>Node44</title>
<g id="a_node11"><a xlink:href="../../db/db7/arteries_2vonmises_2main_8cpp.html" target="_top" xlink:title="arteries/vonmises/main.cpp">
<polygon fill="#ffffff" stroke="#000000" points="529.6133,-70.5 529.6133,-88.5 667.3271,-88.5 667.3271,-70.5 529.6133,-70.5"/>
<text text-anchor="middle" x="598.4702" y="-76.5" font-family="Helvetica,sans-Serif" font-size="10.00" fill="#000000">arteries/vonmises/main.cpp</text>
</a>
</g>
</g>
<!-- Node42&#45;&gt;Node44 -->
<g id="edge10" class="edge">
<title>Node42&#45;&gt;Node44</title>
<path fill="none" stroke="#191970" d="M689.9777,-130.3375C665.4674,-116.7207 633.662,-99.051 614.7288,-88.5325"/>
<polygon fill="#191970" stroke="#191970" points="688.5309,-133.5375 698.9722,-135.3345 691.9304,-127.4184 688.5309,-133.5375"/>
</g>
<!-- Node46 -->
<g id="node13" class="node">
<title>Node46</title>
<g id="a_node13"><a xlink:href="../../dc/dba/arteries_2strip__dirichlet_2main_8cpp.html" target="_top" xlink:title="arteries/strip_dirichlet\l/main.cpp">
<polygon fill="#ffffff" stroke="#000000" points="811.9531,-65.5 811.9531,-93.5 922.9873,-93.5 922.9873,-65.5 811.9531,-65.5"/>
<text text-anchor="start" x="819.9531" y="-81.5" font-family="Helvetica,sans-Serif" font-size="10.00" fill="#000000">arteries/strip_dirichlet</text>
<text text-anchor="middle" x="867.4702" y="-71.5" font-family="Helvetica,sans-Serif" font-size="10.00" fill="#000000">/main.cpp</text>
</a>
</g>
</g>
<!-- Node45&#45;&gt;Node46 -->
<g id="edge12" class="edge">
<title>Node45&#45;&gt;Node46</title>
<path fill="none" stroke="#191970" d="M867.4702,-125.0725C867.4702,-114.5646 867.4702,-102.6536 867.4702,-93.6445"/>
<polygon fill="#191970" stroke="#191970" points="863.9703,-125.3344 867.4702,-135.3345 870.9703,-125.3345 863.9703,-125.3344"/>
</g>
<!-- Node48 -->
<g id="node15" class="node">
<title>Node48</title>
<g id="a_node15"><a xlink:href="../../d5/da5/arteries_2boost__gmrf_2gmrf__gauss_2main_8cpp.html" target="_top" xlink:title="arteries/boost_gmrf\l/gmrf_gauss/main.cpp">
<polygon fill="#ffffff" stroke="#000000" points="133.2808,-65.5 133.2808,-93.5 247.6597,-93.5 247.6597,-65.5 133.2808,-65.5"/>
<text text-anchor="start" x="141.2808" y="-81.5" font-family="Helvetica,sans-Serif" font-size="10.00" fill="#000000">arteries/boost_gmrf</text>
<text text-anchor="middle" x="190.4702" y="-71.5" font-family="Helvetica,sans-Serif" font-size="10.00" fill="#000000">/gmrf_gauss/main.cpp</text>
</a>
</g>
</g>
<!-- Node47&#45;&gt;Node48 -->
<g id="edge14" class="edge">
<title>Node47&#45;&gt;Node48</title>
<path fill="none" stroke="#191970" d="M260.8966,-129.2964C244.7488,-117.8788 224.9596,-103.8864 210.4745,-93.6445"/>
<polygon fill="#191970" stroke="#191970" points="259.2503,-132.4189 269.4361,-135.3345 263.2916,-126.7033 259.2503,-132.4189"/>
</g>
<!-- Node49 -->
<g id="node16" class="node">
<title>Node49</title>
<g id="a_node16"><a xlink:href="../../d2/dbe/arteries_2boost__gmrf_2gmrf__nodes_2main_8cpp.html" target="_top" xlink:title="arteries/boost_gmrf\l/gmrf_nodes/main.cpp">
<polygon fill="#ffffff" stroke="#000000" points="0,-65.5 0,-93.5 114.9404,-93.5 114.9404,-65.5 0,-65.5"/>
<text text-anchor="start" x="8" y="-81.5" font-family="Helvetica,sans-Serif" font-size="10.00" fill="#000000">arteries/boost_gmrf</text>
<text text-anchor="middle" x="57.4702" y="-71.5" font-family="Helvetica,sans-Serif" font-size="10.00" fill="#000000">/gmrf_nodes/main.cpp</text>
</a>
</g>
</g>
<!-- Node47&#45;&gt;Node49 -->
<g id="edge15" class="edge">
<title>Node47&#45;&gt;Node49</title>
<path fill="none" stroke="#191970" d="M233.0349,-132.4721C193.4821,-120.5381 141.2498,-104.7783 104.0652,-93.5588"/>
<polygon fill="#191970" stroke="#191970" points="232.2159,-135.8808 242.8006,-135.4187 234.238,-129.1792 232.2159,-135.8808"/>
</g>
<!-- Node50 -->
<g id="node17" class="node">
<title>Node50</title>
<g id="a_node17"><a xlink:href="../../da/df3/arteries_2gmrf__neumann_2main_8cpp.html" target="_top" xlink:title="arteries/gmrf_neumann\l/main.cpp">
<polygon fill="#ffffff" stroke="#000000" points="265.7783,-65.5 265.7783,-93.5 385.1621,-93.5 385.1621,-65.5 265.7783,-65.5"/>
<text text-anchor="start" x="273.7783" y="-81.5" font-family="Helvetica,sans-Serif" font-size="10.00" fill="#000000">arteries/gmrf_neumann</text>
<text text-anchor="middle" x="325.4702" y="-71.5" font-family="Helvetica,sans-Serif" font-size="10.00" fill="#000000">/main.cpp</text>
</a>
</g>
</g>
<!-- Node47&#45;&gt;Node50 -->
<g id="edge16" class="edge">
<title>Node47&#45;&gt;Node50</title>
<path fill="none" stroke="#191970" d="M301.3543,-126.392C306.9185,-115.5728 313.3676,-103.0329 318.1959,-93.6445"/>
<polygon fill="#191970" stroke="#191970" points="298.2164,-124.8408 296.7554,-135.3345 304.4414,-128.0423 298.2164,-124.8408"/>
</g>
<!-- Node52 -->
<g id="node19" class="node">
<title>Node52</title>
<g id="a_node19"><a xlink:href="../../d5/d58/nrl_2forward__deterministic_2main_8cpp.html" target="_top" xlink:title="nrl/forward_deterministic\l/main.cpp">
<polygon fill="#ffffff" stroke="#000000" points="1659.0073,-65.5 1659.0073,-93.5 1783.9331,-93.5 1783.9331,-65.5 1659.0073,-65.5"/>
<text text-anchor="start" x="1667.0073" y="-81.5" font-family="Helvetica,sans-Serif" font-size="10.00" fill="#000000">nrl/forward_deterministic</text>
<text text-anchor="middle" x="1721.4702" y="-71.5" font-family="Helvetica,sans-Serif" font-size="10.00" fill="#000000">/main.cpp</text>
</a>
</g>
</g>
<!-- Node51&#45;&gt;Node52 -->
<g id="edge18" class="edge">
<title>Node51&#45;&gt;Node52</title>
<path fill="none" stroke="#191970" d="M1535.5376,-132.6236C1577.3693,-120.6717 1632.8297,-104.8258 1672.2643,-93.5588"/>
<polygon fill="#191970" stroke="#191970" points="1534.4086,-129.306 1525.7549,-135.4187 1536.3317,-136.0367 1534.4086,-129.306"/>
</g>
<!-- Node53 -->
<g id="node20" class="node">
<title>Node53</title>
<g id="a_node20"><a xlink:href="../../dd/dae/_random_search___deterministic_model_8hpp.html" target="_top" xlink:title="nrl/randomsearch_deterministicmodel\l/RandomSearch_DeterministicModel.hpp">
<polygon fill="#ffffff" stroke="#000000" points="1442.3154,-65.5 1442.3154,-93.5 1640.625,-93.5 1640.625,-65.5 1442.3154,-65.5"/>
<text text-anchor="start" x="1450.3154" y="-81.5" font-family="Helvetica,sans-Serif" font-size="10.00" fill="#000000">nrl/randomsearch_deterministicmodel</text>
<text text-anchor="middle" x="1541.4702" y="-71.5" font-family="Helvetica,sans-Serif" font-size="10.00" fill="#000000">/RandomSearch_DeterministicModel.hpp</text>
</a>
</g>
</g>
<!-- Node51&#45;&gt;Node53 -->
<g id="edge19" class="edge">
<title>Node51&#45;&gt;Node53</title>
<path fill="none" stroke="#191970" d="M1496.718,-127.6947C1507.0283,-116.5912 1519.266,-103.4123 1528.3361,-93.6445"/>
<polygon fill="#191970" stroke="#191970" points="1493.8637,-125.6249 1489.6239,-135.3345 1498.9933,-130.3881 1493.8637,-125.6249"/>
</g>
<!-- Node54 -->
<g id="node21" class="node">
<title>Node54</title>
<g id="a_node21"><a xlink:href="../../d5/d17/nrl_2randomsearch__deterministicmodel_2main_8cpp.html" target="_top" xlink:title="nrl/randomsearch_deterministicmodel\l/main.cpp">
<polygon fill="#ffffff" stroke="#000000" points="1221.1011,-.5 1221.1011,-28.5 1403.8394,-28.5 1403.8394,-.5 1221.1011,-.5"/>
<text text-anchor="start" x="1229.1011" y="-16.5" font-family="Helvetica,sans-Serif" font-size="10.00" fill="#000000">nrl/randomsearch_deterministicmodel</text>
<text text-anchor="middle" x="1312.4702" y="-6.5" font-family="Helvetica,sans-Serif" font-size="10.00" fill="#000000">/main.cpp</text>
</a>
</g>
</g>
<!-- Node53&#45;&gt;Node54 -->
<g id="edge20" class="edge">
<title>Node53&#45;&gt;Node54</title>
<path fill="none" stroke="#191970" d="M1482.3351,-62.7149C1445.0695,-52.1373 1397.499,-38.6348 1362.1841,-28.6109"/>
<polygon fill="#191970" stroke="#191970" points="1481.4869,-66.1124 1492.0626,-65.476 1483.3983,-59.3784 1481.4869,-66.1124"/>
</g>
<!-- Node56 -->
<g id="node23" class="node">
<title>Node56</title>
<g id="a_node23"><a xlink:href="../../df/df6/forward_costfunction_8hpp.html" target="_top" xlink:title="nrl/forward_randomfield\l/forwardCostfunction.hpp">
<polygon fill="#ffffff" stroke="#000000" points="1801.8843,-65.5 1801.8843,-93.5 1929.0562,-93.5 1929.0562,-65.5 1801.8843,-65.5"/>
<text text-anchor="start" x="1809.8843" y="-81.5" font-family="Helvetica,sans-Serif" font-size="10.00" fill="#000000">nrl/forward_randomfield</text>
<text text-anchor="middle" x="1865.4702" y="-71.5" font-family="Helvetica,sans-Serif" font-size="10.00" fill="#000000">/forwardCostfunction.hpp</text>
</a>
</g>
</g>
<!-- Node55&#45;&gt;Node56 -->
<g id="edge22" class="edge">
<title>Node55&#45;&gt;Node56</title>
<path fill="none" stroke="#191970" d="M1702.8258,-127.5384C1740.45,-116.4258 1785.0016,-103.2671 1817.9549,-93.534"/>
<polygon fill="#191970" stroke="#191970" points="1701.5174,-124.2753 1692.9185,-130.4647 1703.5003,-130.9886 1701.5174,-124.2753"/>
</g>
<!-- Node57 -->
<g id="node24" class="node">
<title>Node57</title>
<g id="a_node24"><a xlink:href="../../db/de3/nrl_2forward__randomfield_2main_8cpp.html" target="_top" xlink:title="nrl/forward_randomfield\l/main.cpp">
<polygon fill="#ffffff" stroke="#000000" points="1804.9458,-.5 1804.9458,-28.5 1925.9946,-28.5 1925.9946,-.5 1804.9458,-.5"/>
<text text-anchor="start" x="1812.9458" y="-16.5" font-family="Helvetica,sans-Serif" font-size="10.00" fill="#000000">nrl/forward_randomfield</text>
<text text-anchor="middle" x="1865.4702" y="-6.5" font-family="Helvetica,sans-Serif" font-size="10.00" fill="#000000">/main.cpp</text>
</a>
</g>
</g>
<!-- Node56&#45;&gt;Node57 -->
<g id="edge23" class="edge">
<title>Node56&#45;&gt;Node57</title>
<path fill="none" stroke="#191970" d="M1865.4702,-55.1081C1865.4702,-46.1539 1865.4702,-36.3227 1865.4702,-28.5765"/>
<polygon fill="#191970" stroke="#191970" points="1861.9703,-55.3959 1865.4702,-65.396 1868.9703,-55.396 1861.9703,-55.3959"/>
</g>
<!-- Node59&#45;&gt;Node37 -->
<g id="edge32" class="edge">
<title>Node59&#45;&gt;Node37</title>
<path fill="none" stroke="#191970" d="M1212.5451,-137.8536C1167.6603,-125.6756 1097.2051,-106.5598 1049.261,-93.5518"/>
<polygon fill="#191970" stroke="#191970" points="1211.7018,-141.2513 1222.2694,-140.492 1213.5348,-134.4956 1211.7018,-141.2513"/>
</g>
<!-- Node59&#45;&gt;Node38 -->
<g id="edge35" class="edge">
<title>Node59&#45;&gt;Node38</title>
<path fill="none" stroke="#191970" d="M1325.6531,-139.0993C1349.3733,-135.8407 1376.0347,-132.4578 1400.4702,-130 1638.9129,-106.0163 1700.7748,-124.5124 1938.4702,-94 1941.1348,-93.6579 1943.847,-93.2808 1946.583,-92.8762"/>
<polygon fill="#191970" stroke="#191970" points="1325.1053,-135.6417 1315.6824,-140.4851 1326.0691,-142.575 1325.1053,-135.6417"/>
</g>
<!-- Node59&#45;&gt;Node41 -->
<g id="edge26" class="edge">
<title>Node59&#45;&gt;Node41</title>
<path fill="none" stroke="#191970" d="M1214.1709,-137.8969C1201.8161,-134.8437 1188.1753,-131.8812 1175.4702,-130 887.064,-87.2971 809.1452,-134.8464 520.4702,-94 517.5809,-93.5912 514.6286,-93.1158 511.656,-92.5917"/>
<polygon fill="#191970" stroke="#191970" points="1213.6422,-141.3743 1224.1977,-140.4612 1215.3767,-134.5926 1213.6422,-141.3743"/>
</g>
<!-- Node59&#45;&gt;Node43 -->
<g id="edge27" class="edge">
<title>Node59&#45;&gt;Node43</title>
<path fill="none" stroke="#191970" d="M1213.1488,-137.9898C1201.0517,-135.0258 1187.8034,-132.0873 1175.4702,-130 1011.2572,-102.2085 966.8586,-120.7344 802.4702,-94 799.59,-93.5316 796.6449,-93.0088 793.6779,-92.4474"/>
<polygon fill="#191970" stroke="#191970" points="1212.4423,-141.4211 1222.9941,-140.4674 1214.1507,-134.6327 1212.4423,-141.4211"/>
</g>
<!-- Node59&#45;&gt;Node44 -->
<g id="edge30" class="edge">
<title>Node59&#45;&gt;Node44</title>
<path fill="none" stroke="#191970" d="M1213.8273,-137.9547C1201.5575,-134.9327 1188.0484,-131.9725 1175.4702,-130 955.8008,-95.5513 897.0079,-122.3637 676.4702,-94 665.4047,-92.5768 653.5328,-90.6026 642.4725,-88.5686"/>
<polygon fill="#191970" stroke="#191970" points="1213.2409,-141.4168 1223.7949,-140.4873 1214.9648,-134.6324 1213.2409,-141.4168"/>
</g>
<!-- Node59&#45;&gt;Node46 -->
<g id="edge29" class="edge">
<title>Node59&#45;&gt;Node46</title>
<path fill="none" stroke="#191970" d="M1211.4225,-137.9888C1199.7793,-135.1588 1187.1902,-132.2879 1175.4702,-130 1067.8826,-108.9978 1039.2253,-114.1254 931.4702,-94 928.7824,-93.498 926.0361,-92.9627 923.2659,-92.4047"/>
<polygon fill="#191970" stroke="#191970" points="1210.8174,-141.4445 1221.3654,-140.4494 1212.4991,-134.6495 1210.8174,-141.4445"/>
</g>
<!-- Node59&#45;&gt;Node50 -->
<g id="edge28" class="edge">
<title>Node59&#45;&gt;Node50</title>
<path fill="none" stroke="#191970" d="M1214.876,-137.9981C1202.3396,-134.8818 1188.4223,-131.8593 1175.4702,-130 831.5163,-80.6258 739.1691,-137.8723 394.4702,-94 391.4345,-93.6136 388.3337,-93.1644 385.2094,-92.6684"/>
<polygon fill="#191970" stroke="#191970" points="1214.0324,-141.395 1224.5891,-140.497 1215.7765,-134.6158 1214.0324,-141.395"/>
</g>
<!-- Node59&#45;&gt;Node52 -->
<g id="edge33" class="edge">
<title>Node59&#45;&gt;Node52</title>
<path fill="none" stroke="#191970" d="M1333.2719,-139.0937C1430.2295,-126.0285 1590.3659,-104.1053 1649.4702,-94 1652.4867,-93.4843 1655.5704,-92.9378 1658.6822,-92.3709"/>
<polygon fill="#191970" stroke="#191970" points="1332.6663,-135.6435 1323.2227,-140.4466 1333.6004,-142.581 1332.6663,-135.6435"/>
</g>
<!-- Node59&#45;&gt;Node53 -->
<g id="edge37" class="edge">
<title>Node59&#45;&gt;Node53</title>
<path fill="none" stroke="#191970" d="M1302.1165,-138.0831C1351.8244,-125.9168 1430.5765,-106.6418 1484.0587,-93.5518"/>
<polygon fill="#191970" stroke="#191970" points="1301.1554,-134.7149 1292.2742,-140.492 1302.8196,-141.5142 1301.1554,-134.7149"/>
</g>
<!-- Node59&#45;&gt;Node54 -->
<g id="edge36" class="edge">
<title>Node59&#45;&gt;Node54</title>
<path fill="none" stroke="#191970" d="M1205.0082,-137.9536C1164.9817,-127.6528 1113.7827,-111.5249 1101.4702,-94 1094.0608,-83.4538 1093.4872,-75.1191 1101.4702,-65 1116.6927,-45.7043 1171.2261,-32.9582 1221.0359,-25.0984"/>
<polygon fill="#191970" stroke="#191970" points="1204.3616,-141.3999 1214.9133,-140.4442 1206.0687,-134.6112 1204.3616,-141.3999"/>
</g>
<!-- Node59&#45;&gt;Node56 -->
<g id="edge34" class="edge">
<title>Node59&#45;&gt;Node56</title>
<path fill="none" stroke="#191970" d="M1328.2636,-139.1006C1351.3295,-135.9691 1376.9454,-132.6609 1400.4702,-130 1574.3171,-110.3364 1619.3214,-119.077 1792.4702,-94 1795.5393,-93.5555 1798.6745,-93.0669 1801.8365,-92.5464"/>
<polygon fill="#191970" stroke="#191970" points="1327.6395,-135.6533 1318.2062,-140.4765 1328.5883,-142.5887 1327.6395,-135.6533"/>
</g>
<!-- Node60 -->
<g id="node27" class="node">
<title>Node60</title>
<g id="a_node27"><a xlink:href="../../de/de8/example__pnpoly__inverse__isoparam_8cpp.html" target="_top" xlink:title="examples/pnpoly/example\l_pnpoly_inverse_isoparam.cpp">
<polygon fill="#ffffff" stroke="#000000" points="1110.2612,-65.5 1110.2612,-93.5 1264.6792,-93.5 1264.6792,-65.5 1110.2612,-65.5"/>
<text text-anchor="start" x="1118.2612" y="-81.5" font-family="Helvetica,sans-Serif" font-size="10.00" fill="#000000">examples/pnpoly/example</text>
<text text-anchor="middle" x="1187.4702" y="-71.5" font-family="Helvetica,sans-Serif" font-size="10.00" fill="#000000">_pnpoly_inverse_isoparam.cpp</text>
</a>
</g>
</g>
<!-- Node59&#45;&gt;Node60 -->
<g id="edge31" class="edge">
<title>Node59&#45;&gt;Node60</title>
<path fill="none" stroke="#191970" d="M1239.2851,-132.8388C1227.7161,-120.9296 1212.3121,-105.0726 1201.313,-93.7499"/>
<polygon fill="#191970" stroke="#191970" points="1237.102,-135.6147 1246.5804,-140.3487 1242.123,-130.7371 1237.102,-135.6147"/>
</g>
<!-- Node61 -->
<g id="node28" class="node">
<title>Node61</title>
<g id="a_node28"><a xlink:href="../../d5/dc7/_newton___raphsonpp_8cpp.html" target="_top" xlink:title="src/Newton_Raphsonpp.cpp">
<polygon fill="#ffffff" stroke="#000000" points="1282.6553,-70.5 1282.6553,-88.5 1424.2852,-88.5 1424.2852,-70.5 1282.6553,-70.5"/>
<text text-anchor="middle" x="1353.4702" y="-76.5" font-family="Helvetica,sans-Serif" font-size="10.00" fill="#000000">src/Newton_Raphsonpp.cpp</text>
</a>
</g>
</g>
<!-- Node59&#45;&gt;Node61 -->
<g id="edge38" class="edge">
<title>Node59&#45;&gt;Node61</title>
<path fill="none" stroke="#191970" d="M1276.5383,-134.4514C1296.0269,-120.5309 1324.3665,-100.2883 1340.6553,-88.6535"/>
<polygon fill="#191970" stroke="#191970" points="1274.385,-131.6882 1268.282,-140.3487 1278.4537,-137.3844 1274.385,-131.6882"/>
</g>
<!-- Node63 -->
<g id="node30" class="node">
<title>Node63</title>
<g id="a_node30"><a xlink:href="../../d1/dc9/hyperelasticity_8cpp.html" target="_top" xlink:title="src/hyperelasticity.cpp">
<polygon fill="#ffffff" stroke="#000000" points="1751.6543,-140.5 1751.6543,-158.5 1865.2861,-158.5 1865.2861,-140.5 1751.6543,-140.5"/>
<text text-anchor="middle" x="1808.4702" y="-146.5" font-family="Helvetica,sans-Serif" font-size="10.00" fill="#000000">src/hyperelasticity.cpp</text>
</a>
</g>
</g>
<!-- Node62&#45;&gt;Node63 -->
<g id="edge40" class="edge">
<title>Node62&#45;&gt;Node63</title>
<path fill="none" stroke="#191970" d="M1587.2045,-207.935C1626.9614,-197.8293 1686.0838,-182.6756 1737.4702,-169 1750.0701,-165.6468 1763.9009,-161.8699 1775.9815,-158.5395"/>
<polygon fill="#191970" stroke="#191970" points="1586.1112,-204.6014 1577.2802,-210.455 1587.834,-211.3861 1586.1112,-204.6014"/>
</g>
</g>
</svg>
        <g id="navigator" transform="translate(0 0)" fill="#404254">
                <rect fill="#f2f5e9" fill-opacity="0.5" stroke="#606060" stroke-width=".5" x="0" y="0" width="60" height="60"/>
                <use id="zoomplus" xlink:href="#zoomPlus" x="17" y="9" onmousedown="handleZoom(evt,'in')"/>
                <use id="zoomminus" xlink:href="#zoomMin" x="42" y="9" onmousedown="handleZoom(evt,'out')"/>
                <use id="reset" xlink:href="#resetDef" x="30" y="36" onmousedown="handleReset()"/>
                <g id="arrowUp" xlink:href="#dirArrow" transform="translate(30 24)" onmousedown="handlePan(0,-1)">
                  <use xlink:href="#rim" fill="#404040">
                        <set attributeName="fill" to="#808080" begin="arrowUp.mouseover" end="arrowUp.mouseout"/>
                  </use>
                  <path fill="none" stroke="white" stroke-width="1.5" d="M0,-3.0v7 M-2.5,-0.5L0,-3.0L2.5,-0.5"/>
                </g>
                <g id="arrowRight" xlink:href="#dirArrow" transform="rotate(90) translate(36 -43)" onmousedown="handlePan(1,0)">
                  <use xlink:href="#rim" fill="#404040">
                        <set attributeName="fill" to="#808080" begin="arrowRight.mouseover" end="arrowRight.mouseout"/>
                  </use>
                  <path fill="none" stroke="white" stroke-width="1.5" d="M0,-3.0v7 M-2.5,-0.5L0,-3.0L2.5,-0.5"/>
                </g>
                <g id="arrowDown" xlink:href="#dirArrow" transform="rotate(180) translate(-30 -48)" onmousedown="handlePan(0,1)">
                  <use xlink:href="#rim" fill="#404040">
                        <set attributeName="fill" to="#808080" begin="arrowDown.mouseover" end="arrowDown.mouseout"/>
                  </use>
                  <path fill="none" stroke="white" stroke-width="1.5" d="M0,-3.0v7 M-2.5,-0.5L0,-3.0L2.5,-0.5"/>
                </g>
                <g id="arrowLeft" xlink:href="#dirArrow" transform="rotate(270) translate(-36 17)" onmousedown="handlePan(-1,0)">
                  <use xlink:href="#rim" fill="#404040">
                        <set attributeName="fill" to="#808080" begin="arrowLeft.mouseover" end="arrowLeft.mouseout"/>
                  </use>
                  <path fill="none" stroke="white" stroke-width="1.5" d="M0,-3.0v7 M-2.5,-0.5L0,-3.0L2.5,-0.5"/>
                </g>
        </g>
        <svg viewBox="0 0 15 15" width="100%" height="30px" preserveAspectRatio="xMaxYMin meet">
         <g id="arrow_out" transform="scale(0.3 0.3)">
          <a xlink:href="_finite___element___problem_8hpp__dep__incl_org.svg" target="_base">
           <rect id="button" ry="5" rx="5" y="6" x="6" height="38" width="38"
                fill="#f2f5e9" fill-opacity="0.5" stroke="#606060" stroke-width="1.0"/>
           <path id="arrow"
             d="M 11.500037,31.436501 C 11.940474,20.09759 22.043105,11.32322 32.158766,21.979434 L 37.068811,17.246167 C 37.068811,17.246167 37.088388,32 37.088388,32 L 22.160133,31.978069 C 22.160133,31.978069 26.997745,27.140456 26.997745,27.140456 C 18.528582,18.264221 13.291696,25.230495 11.500037,31.436501 z"
             style="fill:#404040;"/>
          </a>
         </g>
        </svg>
</svg>
