<?xml version="1.0" encoding="UTF-8" standalone="no"?>
<!DOCTYPE svg PUBLIC "-//W3C//DTD SVG 1.1//EN"
 "http://www.w3.org/Graphics/SVG/1.1/DTD/svg11.dtd">
<!-- Generated by graphviz version 2.40.1 (20161225.0304)
 -->
<!-- Title: src/linearFiniteElementProblem.hpp Pages: 1 -->
<svg width="1987pt" height="212pt"
 viewBox="0.00 0.00 1987.00 212.00" xmlns="http://www.w3.org/2000/svg" xmlns:xlink="http://www.w3.org/1999/xlink">
<g id="graph0" class="graph" transform="scale(1 1) rotate(0) translate(4 208)">
<title>src/linearFiniteElementProblem.hpp</title>
<polygon fill="#ffffff" stroke="transparent" points="-4,4 -4,-208 1983.0044,-208 1983.0044,4 -4,4"/>
<!-- Node34 -->
<g id="node1" class="node">
<title>Node34</title>
<polygon fill="#bfbfbf" stroke="#000000" points="629.1108,-185.5 629.1108,-203.5 803.5142,-203.5 803.5142,-185.5 629.1108,-185.5"/>
<text text-anchor="middle" x="716.3125" y="-191.5" font-family="Helvetica,sans-Serif" font-size="10.00" fill="#000000">src/linearFiniteElementProblem.hpp</text>
</g>
<!-- Node35 -->
<g id="node2" class="node">
<title>Node35</title>
<g id="a_node2"><a xlink:href="../../d5/dfe/linearized_elasticity_8hpp.html" target="_top" xlink:title="src/linearizedElasticity.hpp">
<polygon fill="#ffffff" stroke="#000000" points="358.7676,-130.5 358.7676,-148.5 491.8574,-148.5 491.8574,-130.5 358.7676,-130.5"/>
<text text-anchor="middle" x="425.3125" y="-136.5" font-family="Helvetica,sans-Serif" font-size="10.00" fill="#000000">src/linearizedElasticity.hpp</text>
</a>
</g>
</g>
<!-- Node34&#45;&gt;Node35 -->
<g id="edge1" class="edge">
<title>Node34&#45;&gt;Node35</title>
<path fill="none" stroke="#191970" d="M658.7594,-183.6223C604.4331,-173.3544 523.9266,-158.1384 473.0654,-148.5255"/>
<polygon fill="#191970" stroke="#191970" points="658.1096,-187.0613 668.5856,-185.4795 659.4096,-180.1831 658.1096,-187.0613"/>
</g>
<!-- Node45 -->
<g id="node12" class="node">
<title>Node45</title>
<g id="a_node12"><a xlink:href="../../d5/d3f/laplacepp_8hpp.html" target="_top" xlink:title="src/laplacepp.hpp">
<polygon fill="#ffffff" stroke="#000000" points="1107.1206,-130.5 1107.1206,-148.5 1201.5044,-148.5 1201.5044,-130.5 1107.1206,-130.5"/>
<text text-anchor="middle" x="1154.3125" y="-136.5" font-family="Helvetica,sans-Serif" font-size="10.00" fill="#000000">src/laplacepp.hpp</text>
</a>
</g>
</g>
<!-- Node34&#45;&gt;Node45 -->
<g id="edge11" class="edge">
<title>Node34&#45;&gt;Node45</title>
<path fill="none" stroke="#191970" d="M798.1582,-184.2226C889.2027,-172.79 1033.1785,-154.7109 1107.0939,-145.4293"/>
<polygon fill="#191970" stroke="#191970" points="797.6348,-180.7607 788.1488,-185.4795 798.507,-187.7062 797.6348,-180.7607"/>
</g>
<!-- Node36 -->
<g id="node3" class="node">
<title>Node36</title>
<g id="a_node3"><a xlink:href="../../de/d5d/linear_patch_test_8hpp.html" target="_top" xlink:title="cee530/linearpatchtest\l/linearPatchTest.hpp">
<polygon fill="#ffffff" stroke="#000000" points="0,-65.5 0,-93.5 116.625,-93.5 116.625,-65.5 0,-65.5"/>
<text text-anchor="start" x="8" y="-81.5" font-family="Helvetica,sans-Serif" font-size="10.00" fill="#000000">cee530/linearpatchtest</text>
<text text-anchor="middle" x="58.3125" y="-71.5" font-family="Helvetica,sans-Serif" font-size="10.00" fill="#000000">/linearPatchTest.hpp</text>
</a>
</g>
</g>
<!-- Node35&#45;&gt;Node36 -->
<g id="edge2" class="edge">
<title>Node35&#45;&gt;Node36</title>
<path fill="none" stroke="#191970" d="M348.4113,-129.1882C287.6745,-120.7183 200.8598,-107.8898 125.3125,-94 122.5033,-93.4835 119.6319,-92.9364 116.7348,-92.369"/>
<polygon fill="#191970" stroke="#191970" points="348.2971,-132.7058 358.6833,-130.6137 349.2594,-125.7722 348.2971,-132.7058"/>
</g>
<!-- Node38 -->
<g id="node5" class="node">
<title>Node38</title>
<g id="a_node5"><a xlink:href="../../d4/d56/cee530_2manufactured_2manufactured_solution_8hpp.html" target="_top" xlink:title="cee530/manufactured\l/manufacturedSolution.hpp">
<polygon fill="#ffffff" stroke="#000000" points="134.5493,-65.5 134.5493,-93.5 270.0757,-93.5 270.0757,-65.5 134.5493,-65.5"/>
<text text-anchor="start" x="142.5493" y="-81.5" font-family="Helvetica,sans-Serif" font-size="10.00" fill="#000000">cee530/manufactured</text>
<text text-anchor="middle" x="202.3125" y="-71.5" font-family="Helvetica,sans-Serif" font-size="10.00" fill="#000000">/manufacturedSolution.hpp</text>
</a>
</g>
</g>
<!-- Node35&#45;&gt;Node38 -->
<g id="edge4" class="edge">
<title>Node35&#45;&gt;Node38</title>
<path fill="none" stroke="#191970" d="M381.5891,-127.7358C345.0972,-117.9174 292.9984,-103.8998 254.3608,-93.504"/>
<polygon fill="#191970" stroke="#191970" points="380.8776,-131.1688 391.4436,-130.3873 382.6964,-124.4092 380.8776,-131.1688"/>
</g>
<!-- Node40 -->
<g id="node7" class="node">
<title>Node40</title>
<g id="a_node7"><a xlink:href="../../d4/d57/cee_s_b_v_p_8hpp.html" target="_top" xlink:title="cee530/sbvp/ceeSBVP.hpp">
<polygon fill="#ffffff" stroke="#000000" points="288.0806,-70.5 288.0806,-88.5 424.5444,-88.5 424.5444,-70.5 288.0806,-70.5"/>
<text text-anchor="middle" x="356.3125" y="-76.5" font-family="Helvetica,sans-Serif" font-size="10.00" fill="#000000">cee530/sbvp/ceeSBVP.hpp</text>
</a>
</g>
</g>
<!-- Node35&#45;&gt;Node40 -->
<g id="edge6" class="edge">
<title>Node35&#45;&gt;Node40</title>
<path fill="none" stroke="#191970" d="M407.0751,-123.6414C394.2613,-112.4989 377.5665,-97.9817 366.8907,-88.6985"/>
<polygon fill="#191970" stroke="#191970" points="404.9902,-126.4666 414.8329,-130.3873 409.5834,-121.1843 404.9902,-126.4666"/>
</g>
<!-- Node42 -->
<g id="node9" class="node">
<title>Node42</title>
<g id="a_node9"><a xlink:href="../../dc/d64/asme_s_b_v_p_8hpp.html" target="_top" xlink:title="src/asmeSBVP.hpp">
<polygon fill="#ffffff" stroke="#000000" points="442.605,-70.5 442.605,-88.5 544.02,-88.5 544.02,-70.5 442.605,-70.5"/>
<text text-anchor="middle" x="493.3125" y="-76.5" font-family="Helvetica,sans-Serif" font-size="10.00" fill="#000000">src/asmeSBVP.hpp</text>
</a>
</g>
</g>
<!-- Node35&#45;&gt;Node42 -->
<g id="edge8" class="edge">
<title>Node35&#45;&gt;Node42</title>
<path fill="none" stroke="#191970" d="M443.2856,-123.6414C455.9137,-112.4989 472.3665,-97.9817 482.8876,-88.6985"/>
<polygon fill="#191970" stroke="#191970" points="440.823,-121.1466 435.6402,-130.3873 445.4543,-126.3955 440.823,-121.1466"/>
</g>
<!-- Node44 -->
<g id="node11" class="node">
<title>Node44</title>
<g id="a_node11"><a xlink:href="../../df/d96/linearized_elasticity_8cpp.html" target="_top" xlink:title="src/linearizedElasticity.cpp">
<polygon fill="#ffffff" stroke="#000000" points="562.0483,-70.5 562.0483,-88.5 694.5767,-88.5 694.5767,-70.5 562.0483,-70.5"/>
<text text-anchor="middle" x="628.3125" y="-76.5" font-family="Helvetica,sans-Serif" font-size="10.00" fill="#000000">src/linearizedElasticity.cpp</text>
</a>
</g>
</g>
<!-- Node35&#45;&gt;Node44 -->
<g id="edge10" class="edge">
<title>Node35&#45;&gt;Node44</title>
<path fill="none" stroke="#191970" d="M466.0986,-127.445C505.0254,-115.9395 562.7885,-98.8667 597.8562,-88.5019"/>
<polygon fill="#191970" stroke="#191970" points="464.7416,-124.1963 456.1438,-130.3873 466.7258,-130.9092 464.7416,-124.1963"/>
</g>
<!-- Node37 -->
<g id="node4" class="node">
<title>Node37</title>
<g id="a_node4"><a xlink:href="../../d0/d30/cee530_2linearpatchtest_2main_8cpp.html" target="_top" xlink:title="cee530/linearpatchtest\l/main.cpp">
<polygon fill="#ffffff" stroke="#000000" points="0,-.5 0,-28.5 116.625,-28.5 116.625,-.5 0,-.5"/>
<text text-anchor="start" x="8" y="-16.5" font-family="Helvetica,sans-Serif" font-size="10.00" fill="#000000">cee530/linearpatchtest</text>
<text text-anchor="middle" x="58.3125" y="-6.5" font-family="Helvetica,sans-Serif" font-size="10.00" fill="#000000">/main.cpp</text>
</a>
</g>
</g>
<!-- Node36&#45;&gt;Node37 -->
<g id="edge3" class="edge">
<title>Node36&#45;&gt;Node37</title>
<path fill="none" stroke="#191970" d="M58.3125,-55.1081C58.3125,-46.1539 58.3125,-36.3227 58.3125,-28.5765"/>
<polygon fill="#191970" stroke="#191970" points="54.8126,-55.3959 58.3125,-65.396 61.8126,-55.396 54.8126,-55.3959"/>
</g>
<!-- Node39 -->
<g id="node6" class="node">
<title>Node39</title>
<g id="a_node6"><a xlink:href="../../d8/d17/cee530_2manufactured_2main_8cpp.html" target="_top" xlink:title="cee530/manufactured\l/main.cpp">
<polygon fill="#ffffff" stroke="#000000" points="145.9458,-.5 145.9458,-28.5 258.6792,-28.5 258.6792,-.5 145.9458,-.5"/>
<text text-anchor="start" x="153.9458" y="-16.5" font-family="Helvetica,sans-Serif" font-size="10.00" fill="#000000">cee530/manufactured</text>
<text text-anchor="middle" x="202.3125" y="-6.5" font-family="Helvetica,sans-Serif" font-size="10.00" fill="#000000">/main.cpp</text>
</a>
</g>
</g>
<!-- Node38&#45;&gt;Node39 -->
<g id="edge5" class="edge">
<title>Node38&#45;&gt;Node39</title>
<path fill="none" stroke="#191970" d="M202.3125,-55.1081C202.3125,-46.1539 202.3125,-36.3227 202.3125,-28.5765"/>
<polygon fill="#191970" stroke="#191970" points="198.8126,-55.3959 202.3125,-65.396 205.8126,-55.396 198.8126,-55.3959"/>
</g>
<!-- Node41 -->
<g id="node8" class="node">
<title>Node41</title>
<g id="a_node8"><a xlink:href="../../dc/d51/cee530_2sbvp_2main_8cpp.html" target="_top" xlink:title="cee530/sbvp/main.cpp">
<polygon fill="#ffffff" stroke="#000000" points="298.2808,-5.5 298.2808,-23.5 414.3442,-23.5 414.3442,-5.5 298.2808,-5.5"/>
<text text-anchor="middle" x="356.3125" y="-11.5" font-family="Helvetica,sans-Serif" font-size="10.00" fill="#000000">cee530/sbvp/main.cpp</text>
</a>
</g>
</g>
<!-- Node40&#45;&gt;Node41 -->
<g id="edge7" class="edge">
<title>Node40&#45;&gt;Node41</title>
<path fill="none" stroke="#191970" d="M356.3125,-60.1265C356.3125,-48.1522 356.3125,-33.3205 356.3125,-23.8821"/>
<polygon fill="#191970" stroke="#191970" points="352.8126,-60.462 356.3125,-70.462 359.8126,-60.4621 352.8126,-60.462"/>
</g>
<!-- Node43 -->
<g id="node10" class="node">
<title>Node43</title>
<g id="a_node10"><a xlink:href="../../d2/ded/asme_2linearelaslam_2main_8cpp.html" target="_top" xlink:title="asme/linearelaslam\l/main.cpp">
<polygon fill="#ffffff" stroke="#000000" points="442.2388,-.5 442.2388,-28.5 544.3862,-28.5 544.3862,-.5 442.2388,-.5"/>
<text text-anchor="start" x="450.2388" y="-16.5" font-family="Helvetica,sans-Serif" font-size="10.00" fill="#000000">asme/linearelaslam</text>
<text text-anchor="middle" x="493.3125" y="-6.5" font-family="Helvetica,sans-Serif" font-size="10.00" fill="#000000">/main.cpp</text>
</a>
</g>
</g>
<!-- Node42&#45;&gt;Node43 -->
<g id="edge9" class="edge">
<title>Node42&#45;&gt;Node43</title>
<path fill="none" stroke="#191970" d="M493.3125,-60.2652C493.3125,-50.2384 493.3125,-38.1782 493.3125,-28.9559"/>
<polygon fill="#191970" stroke="#191970" points="489.8126,-60.462 493.3125,-70.462 496.8126,-60.4621 489.8126,-60.462"/>
</g>
<!-- Node46 -->
<g id="node13" class="node">
<title>Node46</title>
<g id="a_node13"><a xlink:href="../../d4/d0f/examples_2laplace__aztec_2main_8cpp.html" target="_top" xlink:title="examples/laplace_aztec\l/main.cpp">
<polygon fill="#ffffff" stroke="#000000" points="712.9482,-65.5 712.9482,-93.5 835.6768,-93.5 835.6768,-65.5 712.9482,-65.5"/>
<text text-anchor="start" x="720.9482" y="-81.5" font-family="Helvetica,sans-Serif" font-size="10.00" fill="#000000">examples/laplace_aztec</text>
<text text-anchor="middle" x="774.3125" y="-71.5" font-family="Helvetica,sans-Serif" font-size="10.00" fill="#000000">/main.cpp</text>
</a>
</g>
</g>
<!-- Node45&#45;&gt;Node46 -->
<g id="edge12" class="edge">
<title>Node45&#45;&gt;Node46</title>
<path fill="none" stroke="#191970" d="M1097.0696,-132.035C1034.9266,-123.7063 932.8345,-109.3688 845.3125,-94 842.2147,-93.456 839.0448,-92.88 835.8465,-92.2834"/>
<polygon fill="#191970" stroke="#191970" points="1096.6922,-135.5155 1107.0673,-133.3692 1097.6182,-128.5771 1096.6922,-135.5155"/>
</g>
<!-- Node47 -->
<g id="node14" class="node">
<title>Node47</title>
<g id="a_node14"><a xlink:href="../../d8/d16/examples_2laplace__stratimikos_2main_8cpp.html" target="_top" xlink:title="examples/laplace_stratimikos\l/main.cpp">
<polygon fill="#ffffff" stroke="#000000" points="854.0073,-65.5 854.0073,-93.5 1000.6177,-93.5 1000.6177,-65.5 854.0073,-65.5"/>
<text text-anchor="start" x="862.0073" y="-81.5" font-family="Helvetica,sans-Serif" font-size="10.00" fill="#000000">examples/laplace_stratimikos</text>
<text text-anchor="middle" x="927.3125" y="-71.5" font-family="Helvetica,sans-Serif" font-size="10.00" fill="#000000">/main.cpp</text>
</a>
</g>
</g>
<!-- Node45&#45;&gt;Node47 -->
<g id="edge13" class="edge">
<title>Node45&#45;&gt;Node47</title>
<path fill="none" stroke="#191970" d="M1109.8048,-127.7358C1072.6584,-117.9174 1019.6251,-103.8998 980.2944,-93.504"/>
<polygon fill="#191970" stroke="#191970" points="1109.2737,-131.2156 1119.8361,-130.3873 1111.0625,-124.448 1109.2737,-131.2156"/>
</g>
<!-- Node48 -->
<g id="node15" class="node">
<title>Node48</title>
<g id="a_node15"><a xlink:href="../../dd/d3d/dirichlet_inlet_outlet___polyconvex_h_g_o_8hpp.html" target="_top" xlink:title="src/dirichletInletOutlet\l_PolyconvexHGO.hpp">
<polygon fill="#ffffff" stroke="#000000" points="1018.8423,-65.5 1018.8423,-93.5 1133.7827,-93.5 1133.7827,-65.5 1018.8423,-65.5"/>
<text text-anchor="start" x="1026.8423" y="-81.5" font-family="Helvetica,sans-Serif" font-size="10.00" fill="#000000">src/dirichletInletOutlet</text>
<text text-anchor="middle" x="1076.3125" y="-71.5" font-family="Helvetica,sans-Serif" font-size="10.00" fill="#000000">_PolyconvexHGO.hpp</text>
</a>
</g>
</g>
<!-- Node45&#45;&gt;Node48 -->
<g id="edge14" class="edge">
<title>Node45&#45;&gt;Node48</title>
<path fill="none" stroke="#191970" d="M1134.2499,-124.0673C1122.0377,-114.6732 1106.554,-102.7627 1094.6663,-93.6183"/>
<polygon fill="#191970" stroke="#191970" points="1132.4057,-127.0643 1142.466,-130.3873 1136.6737,-121.516 1132.4057,-127.0643"/>
</g>
<!-- Node50 -->
<g id="node17" class="node">
<title>Node50</title>
<g id="a_node17"><a xlink:href="../../d5/d0d/dirichlet_strip_elongation___stochastic_polyconvex_h_g_o_8hpp.html" target="_top" xlink:title="src/dirichletStripElongation\l_StochasticPolyconvexHGO.hpp">
<polygon fill="#ffffff" stroke="#000000" points="1151.7759,-65.5 1151.7759,-93.5 1312.8491,-93.5 1312.8491,-65.5 1151.7759,-65.5"/>
<text text-anchor="start" x="1159.7759" y="-81.5" font-family="Helvetica,sans-Serif" font-size="10.00" fill="#000000">src/dirichletStripElongation</text>
<text text-anchor="middle" x="1232.3125" y="-71.5" font-family="Helvetica,sans-Serif" font-size="10.00" fill="#000000">_StochasticPolyconvexHGO.hpp</text>
</a>
</g>
</g>
<!-- Node45&#45;&gt;Node50 -->
<g id="edge16" class="edge">
<title>Node45&#45;&gt;Node50</title>
<path fill="none" stroke="#191970" d="M1174.3751,-124.0673C1186.5873,-114.6732 1202.071,-102.7627 1213.9587,-93.6183"/>
<polygon fill="#191970" stroke="#191970" points="1171.9513,-121.516 1166.159,-130.3873 1176.2193,-127.0643 1171.9513,-121.516"/>
</g>
<!-- Node52 -->
<g id="node19" class="node">
<title>Node52</title>
<g id="a_node19"><a xlink:href="../../dc/d31/laplacepp_8cpp.html" target="_top" xlink:title="src/laplacepp.cpp">
<polygon fill="#ffffff" stroke="#000000" points="1330.4014,-70.5 1330.4014,-88.5 1424.2236,-88.5 1424.2236,-70.5 1330.4014,-70.5"/>
<text text-anchor="middle" x="1377.3125" y="-76.5" font-family="Helvetica,sans-Serif" font-size="10.00" fill="#000000">src/laplacepp.cpp</text>
</a>
</g>
</g>
<!-- Node45&#45;&gt;Node52 -->
<g id="edge18" class="edge">
<title>Node45&#45;&gt;Node52</title>
<path fill="none" stroke="#191970" d="M1198.0297,-127.7375C1240.797,-116.2306 1305.005,-98.9549 1343.8555,-88.5019"/>
<polygon fill="#191970" stroke="#191970" points="1196.9286,-124.4092 1188.1814,-130.3873 1198.7474,-131.1688 1196.9286,-124.4092"/>
</g>
<!-- Node53 -->
<g id="node20" class="node">
<title>Node53</title>
<g id="a_node20"><a xlink:href="../../d6/d14/neumann_inner_surface___polyconvex_h_g_o_8hpp.html" target="_top" xlink:title="src/neumannInnerSurface\l_PolyconvexHGO.hpp">
<polygon fill="#ffffff" stroke="#000000" points="1441.7808,-65.5 1441.7808,-93.5 1572.8442,-93.5 1572.8442,-65.5 1441.7808,-65.5"/>
<text text-anchor="start" x="1449.7808" y="-81.5" font-family="Helvetica,sans-Serif" font-size="10.00" fill="#000000">src/neumannInnerSurface</text>
<text text-anchor="middle" x="1507.3125" y="-71.5" font-family="Helvetica,sans-Serif" font-size="10.00" fill="#000000">_PolyconvexHGO.hpp</text>
</a>
</g>
</g>
<!-- Node45&#45;&gt;Node53 -->
<g id="edge19" class="edge">
<title>Node45&#45;&gt;Node53</title>
<path fill="none" stroke="#191970" d="M1211.9457,-130.6496C1268.4262,-121.8469 1356.9141,-107.711 1433.3125,-94 1436.0185,-93.5144 1438.7785,-93.0108 1441.5654,-92.4956"/>
<polygon fill="#191970" stroke="#191970" points="1211.1257,-127.235 1201.7822,-132.2299 1212.2012,-134.1519 1211.1257,-127.235"/>
</g>
<!-- Node56 -->
<g id="node23" class="node">
<title>Node56</title>
<g id="a_node23"><a xlink:href="../../dc/da1/neumann_inner_surface___stochastic_polyconvex_h_g_o_8hpp.html" target="_top" xlink:title="src/neumannInnerSurface\l_StochasticPolyconvexHGO.hpp">
<polygon fill="#ffffff" stroke="#000000" points="1647.7759,-65.5 1647.7759,-93.5 1808.8491,-93.5 1808.8491,-65.5 1647.7759,-65.5"/>
<text text-anchor="start" x="1655.7759" y="-81.5" font-family="Helvetica,sans-Serif" font-size="10.00" fill="#000000">src/neumannInnerSurface</text>
<text text-anchor="middle" x="1728.3125" y="-71.5" font-family="Helvetica,sans-Serif" font-size="10.00" fill="#000000">_StochasticPolyconvexHGO.hpp</text>
</a>
</g>
</g>
<!-- Node45&#45;&gt;Node56 -->
<g id="edge22" class="edge">
<title>Node45&#45;&gt;Node56</title>
<path fill="none" stroke="#191970" d="M1211.968,-133.4733C1314.8614,-122.7179 1530.3161,-100.1965 1647.7688,-87.9192"/>
<polygon fill="#191970" stroke="#191970" points="1211.3556,-130.0181 1201.7737,-134.5389 1212.0834,-136.9802 1211.3556,-130.0181"/>
</g>
<!-- Node49 -->
<g id="node16" class="node">
<title>Node49</title>
<g id="a_node16"><a xlink:href="../../de/da1/arteries_2deterministic__dirichlet_2main_8cpp.html" target="_top" xlink:title="arteries/deterministic\l_dirichlet/main.cpp">
<polygon fill="#ffffff" stroke="#000000" points="1022.187,-.5 1022.187,-28.5 1130.438,-28.5 1130.438,-.5 1022.187,-.5"/>
<text text-anchor="start" x="1030.187" y="-16.5" font-family="Helvetica,sans-Serif" font-size="10.00" fill="#000000">arteries/deterministic</text>
<text text-anchor="middle" x="1076.3125" y="-6.5" font-family="Helvetica,sans-Serif" font-size="10.00" fill="#000000">_dirichlet/main.cpp</text>
</a>
</g>
</g>
<!-- Node48&#45;&gt;Node49 -->
<g id="edge15" class="edge">
<title>Node48&#45;&gt;Node49</title>
<path fill="none" stroke="#191970" d="M1076.3125,-55.1081C1076.3125,-46.1539 1076.3125,-36.3227 1076.3125,-28.5765"/>
<polygon fill="#191970" stroke="#191970" points="1072.8126,-55.3959 1076.3125,-65.396 1079.8126,-55.396 1072.8126,-55.3959"/>
</g>
<!-- Node51 -->
<g id="node18" class="node">
<title>Node51</title>
<g id="a_node18"><a xlink:href="../../dc/dba/arteries_2strip__dirichlet_2main_8cpp.html" target="_top" xlink:title="arteries/strip_dirichlet\l/main.cpp">
<polygon fill="#ffffff" stroke="#000000" points="1176.7954,-.5 1176.7954,-28.5 1287.8296,-28.5 1287.8296,-.5 1176.7954,-.5"/>
<text text-anchor="start" x="1184.7954" y="-16.5" font-family="Helvetica,sans-Serif" font-size="10.00" fill="#000000">arteries/strip_dirichlet</text>
<text text-anchor="middle" x="1232.3125" y="-6.5" font-family="Helvetica,sans-Serif" font-size="10.00" fill="#000000">/main.cpp</text>
</a>
</g>
</g>
<!-- Node50&#45;&gt;Node51 -->
<g id="edge17" class="edge">
<title>Node50&#45;&gt;Node51</title>
<path fill="none" stroke="#191970" d="M1232.3125,-55.1081C1232.3125,-46.1539 1232.3125,-36.3227 1232.3125,-28.5765"/>
<polygon fill="#191970" stroke="#191970" points="1228.8126,-55.3959 1232.3125,-65.396 1235.8126,-55.396 1228.8126,-55.3959"/>
</g>
<!-- Node54 -->
<g id="node21" class="node">
<title>Node54</title>
<g id="a_node21"><a xlink:href="../../d9/d81/arteries_2deterministic__neumann_2main_8cpp.html" target="_top" xlink:title="arteries/deterministic\l_neumann/main.cpp">
<polygon fill="#ffffff" stroke="#000000" points="1312.187,-.5 1312.187,-28.5 1420.438,-28.5 1420.438,-.5 1312.187,-.5"/>
<text text-anchor="start" x="1320.187" y="-16.5" font-family="Helvetica,sans-Serif" font-size="10.00" fill="#000000">arteries/deterministic</text>
<text text-anchor="middle" x="1366.3125" y="-6.5" font-family="Helvetica,sans-Serif" font-size="10.00" fill="#000000">_neumann/main.cpp</text>
</a>
</g>
</g>
<!-- Node53&#45;&gt;Node54 -->
<g id="edge20" class="edge">
<title>Node53&#45;&gt;Node54</title>
<path fill="none" stroke="#191970" d="M1467.4649,-61.1305C1445.061,-50.8025 1417.5286,-38.1103 1396.8477,-28.5765"/>
<polygon fill="#191970" stroke="#191970" points="1466.1708,-64.3879 1476.7176,-65.396 1469.1014,-58.0309 1466.1708,-64.3879"/>
</g>
<!-- Node55 -->
<g id="node22" class="node">
<title>Node55</title>
<g id="a_node22"><a xlink:href="../../db/db7/arteries_2vonmises_2main_8cpp.html" target="_top" xlink:title="arteries/vonmises/main.cpp">
<polygon fill="#ffffff" stroke="#000000" points="1438.4556,-5.5 1438.4556,-23.5 1576.1694,-23.5 1576.1694,-5.5 1438.4556,-5.5"/>
<text text-anchor="middle" x="1507.3125" y="-11.5" font-family="Helvetica,sans-Serif" font-size="10.00" fill="#000000">arteries/vonmises/main.cpp</text>
</a>
</g>
</g>
<!-- Node53&#45;&gt;Node55 -->
<g id="edge21" class="edge">
<title>Node53&#45;&gt;Node55</title>
<path fill="none" stroke="#191970" d="M1507.3125,-55.3747C1507.3125,-44.2832 1507.3125,-31.7952 1507.3125,-23.5743"/>
<polygon fill="#191970" stroke="#191970" points="1503.8126,-55.3959 1507.3125,-65.396 1510.8126,-55.396 1503.8126,-55.3959"/>
</g>
<!-- Node57 -->
<g id="node24" class="node">
<title>Node57</title>
<g id="a_node24"><a xlink:href="../../d5/da5/arteries_2boost__gmrf_2gmrf__gauss_2main_8cpp.html" target="_top" xlink:title="arteries/boost_gmrf\l/gmrf_gauss/main.cpp">
<polygon fill="#ffffff" stroke="#000000" points="1594.123,-.5 1594.123,-28.5 1708.502,-28.5 1708.502,-.5 1594.123,-.5"/>
<text text-anchor="start" x="1602.123" y="-16.5" font-family="Helvetica,sans-Serif" font-size="10.00" fill="#000000">arteries/boost_gmrf</text>
<text text-anchor="middle" x="1651.3125" y="-6.5" font-family="Helvetica,sans-Serif" font-size="10.00" fill="#000000">/gmrf_gauss/main.cpp</text>
</a>
</g>
</g>
<!-- Node56&#45;&gt;Node57 -->
<g id="edge23" class="edge">
<title>Node56&#45;&gt;Node57</title>
<path fill="none" stroke="#191970" d="M1703.8895,-58.8832C1692.1882,-49.0054 1678.4749,-37.4293 1667.9877,-28.5765"/>
<polygon fill="#191970" stroke="#191970" points="1701.7055,-61.6199 1711.6046,-65.396 1706.2209,-56.2709 1701.7055,-61.6199"/>
</g>
<!-- Node58 -->
<g id="node25" class="node">
<title>Node58</title>
<g id="a_node25"><a xlink:href="../../d2/dbe/arteries_2boost__gmrf_2gmrf__nodes_2main_8cpp.html" target="_top" xlink:title="arteries/boost_gmrf\l/gmrf_nodes/main.cpp">
<polygon fill="#ffffff" stroke="#000000" points="1726.8423,-.5 1726.8423,-28.5 1841.7827,-28.5 1841.7827,-.5 1726.8423,-.5"/>
<text text-anchor="start" x="1734.8423" y="-16.5" font-family="Helvetica,sans-Serif" font-size="10.00" fill="#000000">arteries/boost_gmrf</text>
<text text-anchor="middle" x="1784.3125" y="-6.5" font-family="Helvetica,sans-Serif" font-size="10.00" fill="#000000">/gmrf_nodes/main.cpp</text>
</a>
</g>
</g>
<!-- Node56&#45;&gt;Node58 -->
<g id="edge24" class="edge">
<title>Node56&#45;&gt;Node58</title>
<path fill="none" stroke="#191970" d="M1747.0629,-57.7362C1755.3485,-48.119 1764.8514,-37.0888 1772.185,-28.5765"/>
<polygon fill="#191970" stroke="#191970" points="1744.3392,-55.5354 1740.4637,-65.396 1749.6424,-60.1044 1744.3392,-55.5354"/>
</g>
<!-- Node59 -->
<g id="node26" class="node">
<title>Node59</title>
<g id="a_node26"><a xlink:href="../../da/df3/arteries_2gmrf__neumann_2main_8cpp.html" target="_top" xlink:title="arteries/gmrf_neumann\l/main.cpp">
<polygon fill="#ffffff" stroke="#000000" points="1859.6206,-.5 1859.6206,-28.5 1979.0044,-28.5 1979.0044,-.5 1859.6206,-.5"/>
<text text-anchor="start" x="1867.6206" y="-16.5" font-family="Helvetica,sans-Serif" font-size="10.00" fill="#000000">arteries/gmrf_neumann</text>
<text text-anchor="middle" x="1919.3125" y="-6.5" font-family="Helvetica,sans-Serif" font-size="10.00" fill="#000000">/main.cpp</text>
</a>
</g>
</g>
<!-- Node56&#45;&gt;Node59 -->
<g id="edge25" class="edge">
<title>Node56&#45;&gt;Node59</title>
<path fill="none" stroke="#191970" d="M1779.4662,-62.0917C1810.299,-51.5988 1849.0592,-38.4082 1877.9492,-28.5765"/>
<polygon fill="#191970" stroke="#191970" points="1778.0959,-58.8608 1769.7567,-65.396 1780.3511,-65.4876 1778.0959,-58.8608"/>
</g>
</g>
</svg>
