<?xml version="1.0" encoding="UTF-8" standalone="no"?>
<!DOCTYPE svg PUBLIC "-//W3C//DTD SVG 1.1//EN"
 "http://www.w3.org/Graphics/SVG/1.1/DTD/svg11.dtd">
<!-- Generated by graphviz version 2.40.1 (20161225.0304)
 -->
<!-- Title: nrl/forward_randomfield/forwardCostfunction.hpp Pages: 1 -->
<svg width="2659pt" height="407pt"
 viewBox="0.00 0.00 2658.91 407.00" xmlns="http://www.w3.org/2000/svg" xmlns:xlink="http://www.w3.org/1999/xlink">
<g id="graph0" class="graph" transform="scale(1 1) rotate(0) translate(4 403)">
<title>nrl/forward_randomfield/forwardCostfunction.hpp</title>
<polygon fill="#ffffff" stroke="transparent" points="-4,4 -4,-403 2654.9067,-403 2654.9067,4 -4,4"/>
<!-- Node0 -->
<g id="node1" class="node">
<title>Node0</title>
<polygon fill="#bfbfbf" stroke="#000000" points="824.3892,-370.5 824.3892,-398.5 951.561,-398.5 951.561,-370.5 824.3892,-370.5"/>
<text text-anchor="start" x="832.3892" y="-386.5" font-family="Helvetica,sans-Serif" font-size="10.00" fill="#000000">nrl/forward_randomfield</text>
<text text-anchor="middle" x="887.9751" y="-376.5" font-family="Helvetica,sans-Serif" font-size="10.00" fill="#000000">/forwardCostfunction.hpp</text>
</g>
<!-- Node1 -->
<g id="node2" class="node">
<title>Node1</title>
<polygon fill="#ffffff" stroke="#bfbfbf" points="375.6895,-305.5 375.6895,-323.5 422.2607,-323.5 422.2607,-305.5 375.6895,-305.5"/>
<text text-anchor="middle" x="398.9751" y="-311.5" font-family="Helvetica,sans-Serif" font-size="10.00" fill="#000000">math.h</text>
</g>
<!-- Node0&#45;&gt;Node1 -->
<g id="edge1" class="edge">
<title>Node0&#45;&gt;Node1</title>
<path fill="none" stroke="#191970" d="M824.2603,-380.3186C717.433,-372.8179 506.9234,-355.8031 435.9751,-334 431.4007,-332.5942 426.7293,-330.6199 422.3141,-328.4628"/>
<polygon fill="#191970" stroke="#191970" points="423.6652,-325.2168 413.1947,-323.5988 420.3709,-331.3932 423.6652,-325.2168"/>
</g>
<!-- Node2 -->
<g id="node3" class="node">
<title>Node2</title>
<g id="a_node3"><a xlink:href="../../d0/d77/_compressible___mooney___transverse___isotropic___random___field_8hpp.html" target="_top" xlink:title="Compressible_Mooney\l_Transverse_Isotropic\l_Random_Field.hpp">
<polygon fill="#ffffff" stroke="#000000" points="713.8398,-295.5 713.8398,-333.5 832.1104,-333.5 832.1104,-295.5 713.8398,-295.5"/>
<text text-anchor="start" x="721.8398" y="-321.5" font-family="Helvetica,sans-Serif" font-size="10.00" fill="#000000">Compressible_Mooney</text>
<text text-anchor="start" x="721.8398" y="-311.5" font-family="Helvetica,sans-Serif" font-size="10.00" fill="#000000">_Transverse_Isotropic</text>
<text text-anchor="middle" x="772.9751" y="-301.5" font-family="Helvetica,sans-Serif" font-size="10.00" fill="#000000">_Random_Field.hpp</text>
</a>
</g>
</g>
<!-- Node0&#45;&gt;Node2 -->
<g id="edge2" class="edge">
<title>Node0&#45;&gt;Node2</title>
<path fill="none" stroke="#191970" d="M864.7031,-370.3345C849.9483,-361.3533 830.4659,-349.4944 813.2522,-339.0165"/>
<polygon fill="#191970" stroke="#191970" points="814.8562,-335.8955 804.4944,-333.6857 811.2166,-341.8749 814.8562,-335.8955"/>
</g>
<!-- Node37 -->
<g id="node28" class="node">
<title>Node37</title>
<polygon fill="#ffffff" stroke="#bfbfbf" points="335.7783,-165.5 335.7783,-193.5 460.1719,-193.5 460.1719,-165.5 335.7783,-165.5"/>
<text text-anchor="start" x="343.7783" y="-181.5" font-family="Helvetica,sans-Serif" font-size="10.00" fill="#000000">boost/random/mersenne</text>
<text text-anchor="middle" x="397.9751" y="-171.5" font-family="Helvetica,sans-Serif" font-size="10.00" fill="#000000">_twister.hpp</text>
</g>
<!-- Node0&#45;&gt;Node37 -->
<g id="edge72" class="edge">
<title>Node0&#45;&gt;Node37</title>
<path fill="none" stroke="#191970" d="M828.3544,-370.4324C792.2372,-361.324 745.4736,-348.4839 704.9751,-334 627.5993,-306.3273 609.234,-296.228 535.9751,-259 498.7698,-240.0934 457.4644,-215.845 429.8272,-199.1264"/>
<polygon fill="#191970" stroke="#191970" points="431.3676,-195.9668 421.0043,-193.7638 427.7318,-201.9486 431.3676,-195.9668"/>
</g>
<!-- Node38 -->
<g id="node29" class="node">
<title>Node38</title>
<polygon fill="#ffffff" stroke="#bfbfbf" points="793.3398,-165.5 793.3398,-193.5 906.6104,-193.5 906.6104,-165.5 793.3398,-165.5"/>
<text text-anchor="start" x="801.3398" y="-181.5" font-family="Helvetica,sans-Serif" font-size="10.00" fill="#000000">boost/random/uniform</text>
<text text-anchor="middle" x="849.9751" y="-171.5" font-family="Helvetica,sans-Serif" font-size="10.00" fill="#000000">_real_distribution.hpp</text>
</g>
<!-- Node0&#45;&gt;Node38 -->
<g id="edge74" class="edge">
<title>Node0&#45;&gt;Node38</title>
<path fill="none" stroke="#191970" d="M885.3632,-370.4095C878.9635,-335.885 862.4412,-246.7515 854.4436,-203.6062"/>
<polygon fill="#191970" stroke="#191970" points="857.8693,-202.8836 852.6053,-193.6891 850.9866,-204.1595 857.8693,-202.8836"/>
</g>
<!-- Node40 -->
<g id="node31" class="node">
<title>Node40</title>
<polygon fill="#ffffff" stroke="#bfbfbf" points="924.729,-165.5 924.729,-193.5 1035.2212,-193.5 1035.2212,-165.5 924.729,-165.5"/>
<text text-anchor="start" x="932.729" y="-181.5" font-family="Helvetica,sans-Serif" font-size="10.00" fill="#000000">boost/random/normal</text>
<text text-anchor="middle" x="979.9751" y="-171.5" font-family="Helvetica,sans-Serif" font-size="10.00" fill="#000000">_distribution.hpp</text>
</g>
<!-- Node0&#45;&gt;Node40 -->
<g id="edge73" class="edge">
<title>Node0&#45;&gt;Node40</title>
<path fill="none" stroke="#191970" d="M889.8402,-370.4331C894.0449,-342.2192 906.0731,-277.3725 932.9751,-230 938.9523,-219.4746 947.5351,-209.3892 955.7346,-201.0368"/>
<polygon fill="#191970" stroke="#191970" points="958.35,-203.3752 963.0713,-193.8905 953.4657,-198.3608 958.35,-203.3752"/>
</g>
<!-- Node41 -->
<g id="node32" class="node">
<title>Node41</title>
<polygon fill="#ffffff" stroke="#bfbfbf" points="1053.3892,-165.5 1053.3892,-193.5 1170.561,-193.5 1170.561,-165.5 1053.3892,-165.5"/>
<text text-anchor="start" x="1061.3892" y="-181.5" font-family="Helvetica,sans-Serif" font-size="10.00" fill="#000000">boost/math/special</text>
<text text-anchor="middle" x="1111.9751" y="-171.5" font-family="Helvetica,sans-Serif" font-size="10.00" fill="#000000">_functions/gamma.hpp</text>
</g>
<!-- Node0&#45;&gt;Node41 -->
<g id="edge75" class="edge">
<title>Node0&#45;&gt;Node41</title>
<path fill="none" stroke="#191970" d="M895.9821,-370.4385C901.6719,-360.3556 909.4326,-346.4165 915.9751,-334 940.0657,-288.2806 929.199,-264.1619 967.9751,-230 980.6851,-218.8024 1016.6282,-206.1909 1049.4222,-196.372"/>
<polygon fill="#191970" stroke="#191970" points="1050.4103,-199.7297 1059.0162,-193.55 1048.435,-193.0142 1050.4103,-199.7297"/>
</g>
<!-- Node48 -->
<g id="node38" class="node">
<title>Node48</title>
<g id="a_node38"><a xlink:href="../../d7/d17/_newton___raphsonpp_8hpp.html" target="_top" xlink:title="Newton_Raphsonpp.hpp">
<polygon fill="#ffffff" stroke="#000000" points="1500.9336,-305.5 1500.9336,-323.5 1627.0166,-323.5 1627.0166,-305.5 1500.9336,-305.5"/>
<text text-anchor="middle" x="1563.9751" y="-311.5" font-family="Helvetica,sans-Serif" font-size="10.00" fill="#000000">Newton_Raphsonpp.hpp</text>
</a>
</g>
</g>
<!-- Node0&#45;&gt;Node48 -->
<g id="edge40" class="edge">
<title>Node0&#45;&gt;Node48</title>
<path fill="none" stroke="#191970" d="M951.5715,-377.9146C1077.3004,-364.8953 1357.008,-335.9315 1490.4243,-322.1162"/>
<polygon fill="#191970" stroke="#191970" points="1490.9622,-325.5793 1500.5484,-321.0678 1490.2411,-318.6165 1490.9622,-325.5793"/>
</g>
<!-- Node59 -->
<g id="node49" class="node">
<title>Node59</title>
<g id="a_node49"><a xlink:href="../../d5/d75/distributenrldata_8hpp.html" target="_top" xlink:title="distributenrldata.hpp">
<polygon fill="#ffffff" stroke="#000000" points="2005.6675,-110.5 2005.6675,-128.5 2112.2827,-128.5 2112.2827,-110.5 2005.6675,-110.5"/>
<text text-anchor="middle" x="2058.9751" y="-116.5" font-family="Helvetica,sans-Serif" font-size="10.00" fill="#000000">distributenrldata.hpp</text>
</a>
</g>
</g>
<!-- Node0&#45;&gt;Node59 -->
<g id="edge54" class="edge">
<title>Node0&#45;&gt;Node59</title>
<path fill="none" stroke="#191970" d="M951.663,-382.3554C1259.7668,-371.6791 2583.2689,-322.2458 2641.9751,-259 2715.3127,-179.9914 2288.1781,-137.5031 2122.5392,-124.1674"/>
<polygon fill="#191970" stroke="#191970" points="2122.7321,-120.6718 2112.4861,-123.3681 2122.1772,-127.6498 2122.7321,-120.6718"/>
</g>
<!-- Node3 -->
<g id="node4" class="node">
<title>Node3</title>
<g id="a_node4"><a xlink:href="../../de/d49/tensor__calculus_8hpp.html" target="_top" xlink:title="tensor_calculus.hpp">
<polygon fill="#ffffff" stroke="#000000" points="533.5024,-110.5 533.5024,-128.5 638.4478,-128.5 638.4478,-110.5 533.5024,-110.5"/>
<text text-anchor="middle" x="585.9751" y="-116.5" font-family="Helvetica,sans-Serif" font-size="10.00" fill="#000000">tensor_calculus.hpp</text>
</a>
</g>
</g>
<!-- Node2&#45;&gt;Node3 -->
<g id="edge3" class="edge">
<title>Node2&#45;&gt;Node3</title>
<path fill="none" stroke="#191970" d="M713.7978,-306.4076C650.2965,-294.2194 552.4452,-264.5165 506.9751,-194 499.9903,-183.1678 500.5248,-176.1587 506.9751,-165 515.5681,-150.1346 531.0649,-139.6973 546.0712,-132.6047"/>
<polygon fill="#191970" stroke="#191970" points="547.502,-135.7992 555.2853,-128.611 544.7182,-129.3766 547.502,-135.7992"/>
</g>
<!-- Node36 -->
<g id="node27" class="node">
<title>Node36</title>
<g id="a_node27"><a xlink:href="../../d1/dac/shinozukapp__layeredcomp__2d_8hpp.html" target="_top" xlink:title="shinozukapp_layeredcomp\l_2d.hpp">
<polygon fill="#ffffff" stroke="#000000" points="697.4927,-230.5 697.4927,-258.5 832.4575,-258.5 832.4575,-230.5 697.4927,-230.5"/>
<text text-anchor="start" x="705.4927" y="-246.5" font-family="Helvetica,sans-Serif" font-size="10.00" fill="#000000">shinozukapp_layeredcomp</text>
<text text-anchor="middle" x="764.9751" y="-236.5" font-family="Helvetica,sans-Serif" font-size="10.00" fill="#000000">_2d.hpp</text>
</a>
</g>
</g>
<!-- Node2&#45;&gt;Node36 -->
<g id="edge26" class="edge">
<title>Node2&#45;&gt;Node36</title>
<path fill="none" stroke="#191970" d="M770.7891,-295.3722C769.855,-287.199 768.7535,-277.5609 767.7619,-268.8841"/>
<polygon fill="#191970" stroke="#191970" points="771.2383,-268.4783 766.6254,-258.9404 764.2836,-269.2731 771.2383,-268.4783"/>
</g>
<!-- Node43 -->
<g id="node34" class="node">
<title>Node43</title>
<g id="a_node34"><a xlink:href="../../de/d9d/hyperelasticity__setup__pp_8hpp.html" target="_top" xlink:title="hyperelasticity_setup\l_pp.hpp">
<polygon fill="#ffffff" stroke="#000000" points="977.2832,-230.5 977.2832,-258.5 1086.667,-258.5 1086.667,-230.5 977.2832,-230.5"/>
<text text-anchor="start" x="985.2832" y="-246.5" font-family="Helvetica,sans-Serif" font-size="10.00" fill="#000000">hyperelasticity_setup</text>
<text text-anchor="middle" x="1031.9751" y="-236.5" font-family="Helvetica,sans-Serif" font-size="10.00" fill="#000000">_pp.hpp</text>
</a>
</g>
</g>
<!-- Node2&#45;&gt;Node43 -->
<g id="edge34" class="edge">
<title>Node2&#45;&gt;Node43</title>
<path fill="none" stroke="#191970" d="M832.3949,-298.4406C873.5972,-287.3048 928.3436,-272.5085 970.0753,-261.2297"/>
<polygon fill="#191970" stroke="#191970" points="971.107,-264.5765 979.8474,-258.5886 969.2805,-257.819 971.107,-264.5765"/>
</g>
<!-- Node4 -->
<g id="node5" class="node">
<title>Node4</title>
<g id="a_node5"><a xlink:href="../../d0/d02/meshpp_8hpp.html" target="_top" xlink:title="meshpp.hpp">
<polygon fill="#ffffff" stroke="#ff0000" points="1225.4556,-55.5 1225.4556,-73.5 1296.4946,-73.5 1296.4946,-55.5 1225.4556,-55.5"/>
<text text-anchor="middle" x="1260.9751" y="-61.5" font-family="Helvetica,sans-Serif" font-size="10.00" fill="#000000">meshpp.hpp</text>
</a>
</g>
</g>
<!-- Node3&#45;&gt;Node4 -->
<g id="edge4" class="edge">
<title>Node3&#45;&gt;Node4</title>
<path fill="none" stroke="#191970" d="M638.6601,-115.2072C767.0933,-104.7422 1094.616,-78.0552 1215.3667,-68.2162"/>
<polygon fill="#191970" stroke="#191970" points="1215.7051,-71.7004 1225.3878,-67.3997 1215.1366,-64.7235 1215.7051,-71.7004"/>
</g>
<!-- Node5 -->
<g id="node6" class="node">
<title>Node5</title>
<polygon fill="#ffffff" stroke="#bfbfbf" points="2098.2437,-.5 2098.2437,-18.5 2143.7065,-18.5 2143.7065,-.5 2098.2437,-.5"/>
<text text-anchor="middle" x="2120.9751" y="-6.5" font-family="Helvetica,sans-Serif" font-size="10.00" fill="#000000">stdio.h</text>
</g>
<!-- Node4&#45;&gt;Node5 -->
<g id="edge5" class="edge">
<title>Node4&#45;&gt;Node5</title>
<path fill="none" stroke="#191970" d="M1296.7551,-63.6904C1432.2703,-60.4487 1914.6926,-47.2742 2088.1135,-18.8997"/>
<polygon fill="#191970" stroke="#191970" points="2088.84,-22.3263 2098.1042,-17.1858 2087.6564,-15.427 2088.84,-22.3263"/>
</g>
<!-- Node6 -->
<g id="node7" class="node">
<title>Node6</title>
<polygon fill="#ffffff" stroke="#bfbfbf" points="2161.8027,-.5 2161.8027,-18.5 2216.1475,-18.5 2216.1475,-.5 2161.8027,-.5"/>
<text text-anchor="middle" x="2188.9751" y="-6.5" font-family="Helvetica,sans-Serif" font-size="10.00" fill="#000000">iostream</text>
</g>
<!-- Node4&#45;&gt;Node6 -->
<g id="edge6" class="edge">
<title>Node4&#45;&gt;Node6</title>
<path fill="none" stroke="#191970" d="M1296.942,-63.6595C1439.295,-60.1823 1964.226,-45.8945 2151.5874,-18.8594"/>
<polygon fill="#191970" stroke="#191970" points="2152.2145,-22.3045 2161.5817,-17.3542 2151.172,-15.3825 2152.2145,-22.3045"/>
</g>
<!-- Node7 -->
<g id="node8" class="node">
<title>Node7</title>
<polygon fill="#ffffff" stroke="#bfbfbf" points="1585.5835,-.5 1585.5835,-18.5 1634.3667,-18.5 1634.3667,-.5 1585.5835,-.5"/>
<text text-anchor="middle" x="1609.9751" y="-6.5" font-family="Helvetica,sans-Serif" font-size="10.00" fill="#000000">istream</text>
</g>
<!-- Node4&#45;&gt;Node7 -->
<g id="edge7" class="edge">
<title>Node4&#45;&gt;Node7</title>
<path fill="none" stroke="#191970" d="M1296.8008,-60.9627C1353.9078,-54.9736 1469.1975,-41.451 1575.6222,-19.0561"/>
<polygon fill="#191970" stroke="#191970" points="1576.5134,-22.4447 1585.5615,-16.9327 1575.0509,-15.5992 1576.5134,-22.4447"/>
</g>
<!-- Node8 -->
<g id="node9" class="node">
<title>Node8</title>
<polygon fill="#ffffff" stroke="#bfbfbf" points="1652.3052,-.5 1652.3052,-18.5 1701.645,-18.5 1701.645,-.5 1652.3052,-.5"/>
<text text-anchor="middle" x="1676.9751" y="-6.5" font-family="Helvetica,sans-Serif" font-size="10.00" fill="#000000">fstream</text>
</g>
<!-- Node4&#45;&gt;Node8 -->
<g id="edge8" class="edge">
<title>Node4&#45;&gt;Node8</title>
<path fill="none" stroke="#191970" d="M1296.5463,-62.1005C1362.7562,-57.2393 1509.4639,-44.6128 1642.2571,-18.8564"/>
<polygon fill="#191970" stroke="#191970" points="1643.0639,-22.2648 1652.1989,-16.8979 1641.711,-15.3968 1643.0639,-22.2648"/>
</g>
<!-- Node9 -->
<g id="node10" class="node">
<title>Node9</title>
<polygon fill="#ffffff" stroke="#bfbfbf" points="2037.3594,-.5 2037.3594,-18.5 2080.5908,-18.5 2080.5908,-.5 2037.3594,-.5"/>
<text text-anchor="middle" x="2058.9751" y="-6.5" font-family="Helvetica,sans-Serif" font-size="10.00" fill="#000000">vector</text>
</g>
<!-- Node4&#45;&gt;Node9 -->
<g id="edge9" class="edge">
<title>Node4&#45;&gt;Node9</title>
<path fill="none" stroke="#191970" d="M1296.8002,-63.5533C1425.6764,-59.9687 1866.159,-46.1267 2026.9958,-18.9018"/>
<polygon fill="#191970" stroke="#191970" points="2027.9472,-22.2875 2037.1791,-17.0891 2026.7205,-15.3958 2027.9472,-22.2875"/>
</g>
<!-- Node10 -->
<g id="node11" class="node">
<title>Node10</title>
<polygon fill="#ffffff" stroke="#bfbfbf" points="2234.4653,-.5 2234.4653,-18.5 2285.4849,-18.5 2285.4849,-.5 2234.4653,-.5"/>
<text text-anchor="middle" x="2259.9751" y="-6.5" font-family="Helvetica,sans-Serif" font-size="10.00" fill="#000000">iomanip</text>
</g>
<!-- Node4&#45;&gt;Node10 -->
<g id="edge10" class="edge">
<title>Node4&#45;&gt;Node10</title>
<path fill="none" stroke="#191970" d="M1296.7186,-63.8552C1446.0529,-61.0035 2021.3012,-48.4072 2224.1657,-18.7114"/>
<polygon fill="#191970" stroke="#191970" points="2224.7601,-22.1613 2234.1177,-17.1927 2223.7041,-15.2414 2224.7601,-22.1613"/>
</g>
<!-- Node11 -->
<g id="node12" class="node">
<title>Node11</title>
<polygon fill="#ffffff" stroke="#bfbfbf" points="1080.5146,-.5 1080.5146,-18.5 1185.4355,-18.5 1185.4355,-.5 1080.5146,-.5"/>
<text text-anchor="middle" x="1132.9751" y="-6.5" font-family="Helvetica,sans-Serif" font-size="10.00" fill="#000000">Epetra_MpiComm.h</text>
</g>
<!-- Node4&#45;&gt;Node11 -->
<g id="edge11" class="edge">
<title>Node4&#45;&gt;Node11</title>
<path fill="none" stroke="#191970" d="M1239.8385,-55.4179C1218.9941,-46.4613 1186.9228,-32.6806 1163.3506,-22.552"/>
<polygon fill="#191970" stroke="#191970" points="1164.7126,-19.3278 1154.1431,-18.5956 1161.9491,-25.7592 1164.7126,-19.3278"/>
</g>
<!-- Node12 -->
<g id="node13" class="node">
<title>Node12</title>
<polygon fill="#ffffff" stroke="#bfbfbf" points="1203.2314,-.5 1203.2314,-18.5 1318.7188,-18.5 1318.7188,-.5 1203.2314,-.5"/>
<text text-anchor="middle" x="1260.9751" y="-6.5" font-family="Helvetica,sans-Serif" font-size="10.00" fill="#000000">Epetra_FECrsGraph.h</text>
</g>
<!-- Node4&#45;&gt;Node12 -->
<g id="edge12" class="edge">
<title>Node4&#45;&gt;Node12</title>
<path fill="none" stroke="#191970" d="M1260.9751,-55.4179C1260.9751,-48.2164 1260.9751,-37.8962 1260.9751,-28.8632"/>
<polygon fill="#191970" stroke="#191970" points="1264.4752,-28.7794 1260.9751,-18.7795 1257.4752,-28.7795 1264.4752,-28.7794"/>
</g>
<!-- Node13 -->
<g id="node14" class="node">
<title>Node13</title>
<polygon fill="#ffffff" stroke="#bfbfbf" points="1336.5171,-.5 1336.5171,-18.5 1451.4331,-18.5 1451.4331,-.5 1336.5171,-.5"/>
<text text-anchor="middle" x="1393.9751" y="-6.5" font-family="Helvetica,sans-Serif" font-size="10.00" fill="#000000">Epetra_FECrsMatrix.h</text>
</g>
<!-- Node4&#45;&gt;Node13 -->
<g id="edge13" class="edge">
<title>Node4&#45;&gt;Node13</title>
<path fill="none" stroke="#191970" d="M1282.9373,-55.4179C1304.6923,-46.4215 1338.2165,-32.5581 1362.7391,-22.4172"/>
<polygon fill="#191970" stroke="#191970" points="1364.0767,-25.6515 1371.9802,-18.5956 1361.4017,-19.1828 1364.0767,-25.6515"/>
</g>
<!-- Node14 -->
<g id="node15" class="node">
<title>Node14</title>
<polygon fill="#ffffff" stroke="#bfbfbf" points="0,-.5 0,-18.5 99.9502,-18.5 99.9502,-.5 0,-.5"/>
<text text-anchor="middle" x="49.9751" y="-6.5" font-family="Helvetica,sans-Serif" font-size="10.00" fill="#000000">Epetra_FEVector.h</text>
</g>
<!-- Node4&#45;&gt;Node14 -->
<g id="edge14" class="edge">
<title>Node4&#45;&gt;Node14</title>
<path fill="none" stroke="#191970" d="M1225.3778,-63.6716C1058.7288,-59.706 353.8923,-41.9446 110.3398,-18.9892"/>
<polygon fill="#191970" stroke="#191970" points="110.4253,-15.481 100.1335,-17.9968 109.7478,-22.4482 110.4253,-15.481"/>
</g>
<!-- Node15 -->
<g id="node16" class="node">
<title>Node15</title>
<polygon fill="#ffffff" stroke="#bfbfbf" points="118.3892,-.5 118.3892,-18.5 205.561,-18.5 205.561,-.5 118.3892,-.5"/>
<text text-anchor="middle" x="161.9751" y="-6.5" font-family="Helvetica,sans-Serif" font-size="10.00" fill="#000000">Epetra_Vector.h</text>
</g>
<!-- Node4&#45;&gt;Node15 -->
<g id="edge15" class="edge">
<title>Node4&#45;&gt;Node15</title>
<path fill="none" stroke="#191970" d="M1225.2477,-63.5895C1068.1732,-59.4892 437.3492,-41.9798 215.8167,-18.8967"/>
<polygon fill="#191970" stroke="#191970" points="215.898,-15.3853 205.5804,-17.7933 215.1477,-22.3449 215.898,-15.3853"/>
</g>
<!-- Node16 -->
<g id="node17" class="node">
<title>Node16</title>
<polygon fill="#ffffff" stroke="#bfbfbf" points="223.5664,-.5 223.5664,-18.5 302.3838,-18.5 302.3838,-.5 223.5664,-.5"/>
<text text-anchor="middle" x="262.9751" y="-6.5" font-family="Helvetica,sans-Serif" font-size="10.00" fill="#000000">Epetra_Map.h</text>
</g>
<!-- Node4&#45;&gt;Node16 -->
<g id="edge16" class="edge">
<title>Node4&#45;&gt;Node16</title>
<path fill="none" stroke="#191970" d="M1225.3304,-63.4774C1077.7943,-59.1407 513.7015,-41.5064 312.6331,-18.8501"/>
<polygon fill="#191970" stroke="#191970" points="312.8172,-15.3479 302.4786,-17.6639 312.0049,-22.3006 312.8172,-15.3479"/>
</g>
<!-- Node17 -->
<g id="node18" class="node">
<title>Node17</title>
<polygon fill="#ffffff" stroke="#bfbfbf" points="1719.4458,-.5 1719.4458,-18.5 1860.5044,-18.5 1860.5044,-.5 1719.4458,-.5"/>
<text text-anchor="middle" x="1789.9751" y="-6.5" font-family="Helvetica,sans-Serif" font-size="10.00" fill="#000000">Epetra_SerialDenseMatrix.h</text>
</g>
<!-- Node4&#45;&gt;Node17 -->
<g id="edge17" class="edge">
<title>Node4&#45;&gt;Node17</title>
<path fill="none" stroke="#191970" d="M1296.5839,-61.1304C1371.1317,-54.0264 1549.3254,-36.7857 1709.3229,-19.1673"/>
<polygon fill="#191970" stroke="#191970" points="1709.7921,-22.6369 1719.3475,-18.0603 1709.0237,-15.6792 1709.7921,-22.6369"/>
</g>
<!-- Node18 -->
<g id="node19" class="node">
<title>Node18</title>
<polygon fill="#ffffff" stroke="#bfbfbf" points="1878.1528,-.5 1878.1528,-18.5 2019.7974,-18.5 2019.7974,-.5 1878.1528,-.5"/>
<text text-anchor="middle" x="1948.9751" y="-6.5" font-family="Helvetica,sans-Serif" font-size="10.00" fill="#000000">Epetra_SerialDenseVector.h</text>
</g>
<!-- Node4&#45;&gt;Node18 -->
<g id="edge18" class="edge">
<title>Node4&#45;&gt;Node18</title>
<path fill="none" stroke="#191970" d="M1296.7177,-62.3948C1389.2974,-56.8213 1644.706,-40.6786 1867.6758,-19.1909"/>
<polygon fill="#191970" stroke="#191970" points="1868.3173,-22.6452 1877.9328,-18.1963 1867.6417,-15.6778 1868.3173,-22.6452"/>
</g>
<!-- Node19 -->
<g id="node20" class="node">
<title>Node19</title>
<polygon fill="#ffffff" stroke="#bfbfbf" points="320.5938,-.5 320.5938,-18.5 473.3564,-18.5 473.3564,-.5 320.5938,-.5"/>
<text text-anchor="middle" x="396.9751" y="-6.5" font-family="Helvetica,sans-Serif" font-size="10.00" fill="#000000">Epetra_IntSerialDenseVector.h</text>
</g>
<!-- Node4&#45;&gt;Node19 -->
<g id="edge19" class="edge">
<title>Node4&#45;&gt;Node19</title>
<path fill="none" stroke="#191970" d="M1225.2097,-63.0861C1115.8742,-58.6206 776.2336,-43.6877 483.7945,-19.1144"/>
<polygon fill="#191970" stroke="#191970" points="483.6714,-15.5916 473.4119,-18.2362 483.0813,-22.5667 483.6714,-15.5916"/>
</g>
<!-- Node20 -->
<g id="node21" class="node">
<title>Node20</title>
<polygon fill="#ffffff" stroke="#bfbfbf" points="491.123,-.5 491.123,-18.5 578.8271,-18.5 578.8271,-.5 491.123,-.5"/>
<text text-anchor="middle" x="534.9751" y="-6.5" font-family="Helvetica,sans-Serif" font-size="10.00" fill="#000000">Epetra_Import.h</text>
</g>
<!-- Node4&#45;&gt;Node20 -->
<g id="edge20" class="edge">
<title>Node4&#45;&gt;Node20</title>
<path fill="none" stroke="#191970" d="M1225.4551,-63.4733C1126.3588,-60.3171 838.3356,-49.1551 588.8561,-18.9726"/>
<polygon fill="#191970" stroke="#191970" points="589.2293,-15.4922 578.8784,-17.7527 588.3797,-22.4405 589.2293,-15.4922"/>
</g>
<!-- Node21 -->
<g id="node22" class="node">
<title>Node21</title>
<polygon fill="#ffffff" stroke="#bfbfbf" points="596.8423,-.5 596.8423,-18.5 685.1079,-18.5 685.1079,-.5 596.8423,-.5"/>
<text text-anchor="middle" x="640.9751" y="-6.5" font-family="Helvetica,sans-Serif" font-size="10.00" fill="#000000">Epetra_Export.h</text>
</g>
<!-- Node4&#45;&gt;Node21 -->
<g id="edge21" class="edge">
<title>Node4&#45;&gt;Node21</title>
<path fill="none" stroke="#191970" d="M1225.3558,-62.8479C1137.226,-58.5028 901.7633,-45.3255 695.2918,-19.055"/>
<polygon fill="#191970" stroke="#191970" points="695.5364,-15.5578 685.1717,-17.7538 694.6437,-22.5006 695.5364,-15.5578"/>
</g>
<!-- Node22 -->
<g id="node23" class="node">
<title>Node22</title>
<polygon fill="#ffffff" stroke="#bfbfbf" points="703.3652,-.5 703.3652,-18.5 784.585,-18.5 784.585,-.5 703.3652,-.5"/>
<text text-anchor="middle" x="743.9751" y="-6.5" font-family="Helvetica,sans-Serif" font-size="10.00" fill="#000000">Epetra_Time.h</text>
</g>
<!-- Node4&#45;&gt;Node22 -->
<g id="edge22" class="edge">
<title>Node4&#45;&gt;Node22</title>
<path fill="none" stroke="#191970" d="M1225.3171,-62.1895C1148.406,-56.9578 961.0451,-42.8807 794.7451,-19.1508"/>
<polygon fill="#191970" stroke="#191970" points="795.2302,-15.6846 784.833,-17.7212 794.2309,-22.613 795.2302,-15.6846"/>
</g>
<!-- Node23 -->
<g id="node24" class="node">
<title>Node23</title>
<polygon fill="#ffffff" stroke="#bfbfbf" points="802.271,-.5 802.271,-18.5 951.6792,-18.5 951.6792,-.5 802.271,-.5"/>
<text text-anchor="middle" x="876.9751" y="-6.5" font-family="Helvetica,sans-Serif" font-size="10.00" fill="#000000">ml_MultiLevelPreconditioner.h</text>
</g>
<!-- Node4&#45;&gt;Node23 -->
<g id="edge23" class="edge">
<title>Node4&#45;&gt;Node23</title>
<path fill="none" stroke="#191970" d="M1225.1941,-59.3751C1162.6377,-50.4152 1032.23,-31.737 949.9608,-19.9537"/>
<polygon fill="#191970" stroke="#191970" points="950.3216,-16.4697 939.9264,-18.5165 949.3291,-23.399 950.3216,-16.4697"/>
</g>
<!-- Node24 -->
<g id="node25" class="node">
<title>Node24</title>
<polygon fill="#ffffff" stroke="#bfbfbf" points="969.8989,-.5 969.8989,-18.5 1062.0513,-18.5 1062.0513,-.5 969.8989,-.5"/>
<text text-anchor="middle" x="1015.9751" y="-6.5" font-family="Helvetica,sans-Serif" font-size="10.00" fill="#000000">ml_epetra_utils.h</text>
</g>
<!-- Node4&#45;&gt;Node24 -->
<g id="edge24" class="edge">
<title>Node4&#45;&gt;Node24</title>
<path fill="none" stroke="#191970" d="M1225.35,-56.5025C1183.4351,-47.0931 1113.563,-31.4075 1066.173,-20.7689"/>
<polygon fill="#191970" stroke="#191970" points="1066.6482,-17.2885 1056.1243,-18.5131 1065.1148,-24.1186 1066.6482,-17.2885"/>
</g>
<!-- Node30 -->
<g id="node26" class="node">
<title>Node30</title>
<polygon fill="#ffffff" stroke="#bfbfbf" points="1469.9277,-.5 1469.9277,-18.5 1568.0225,-18.5 1568.0225,-.5 1469.9277,-.5"/>
<text text-anchor="middle" x="1518.9751" y="-6.5" font-family="Helvetica,sans-Serif" font-size="10.00" fill="#000000">Teuchos_RCP.hpp</text>
</g>
<!-- Node4&#45;&gt;Node30 -->
<g id="edge25" class="edge">
<title>Node4&#45;&gt;Node30</title>
<path fill="none" stroke="#191970" d="M1296.578,-56.9102C1340.6403,-47.5171 1416.0364,-31.4443 1466.6744,-20.6494"/>
<polygon fill="#191970" stroke="#191970" points="1467.4047,-24.0724 1476.4552,-18.5643 1465.9452,-17.2262 1467.4047,-24.0724"/>
</g>
<!-- Node36&#45;&gt;Node4 -->
<g id="edge27" class="edge">
<title>Node36&#45;&gt;Node4</title>
<path fill="none" stroke="#191970" d="M764.1241,-230.2485C763.891,-212.41 766.3833,-182.1241 783.9751,-165 845.3786,-105.2287 1108.1177,-77.133 1215.2399,-68.0012"/>
<polygon fill="#191970" stroke="#191970" points="1215.7365,-71.472 1225.4104,-67.1515 1215.1537,-64.4963 1215.7365,-71.472"/>
</g>
<!-- Node36&#45;&gt;Node37 -->
<g id="edge28" class="edge">
<title>Node36&#45;&gt;Node37</title>
<path fill="none" stroke="#191970" d="M697.2339,-232.5022C632.8145,-221.0928 536.2245,-203.9856 470.3236,-192.3138"/>
<polygon fill="#191970" stroke="#191970" points="470.8829,-188.8584 460.4257,-190.5607 469.662,-195.7512 470.8829,-188.8584"/>
</g>
<!-- Node36&#45;&gt;Node38 -->
<g id="edge29" class="edge">
<title>Node36&#45;&gt;Node38</title>
<path fill="none" stroke="#191970" d="M783.4188,-230.396C795.1143,-221.4524 810.4338,-209.7375 823.4267,-199.8018"/>
<polygon fill="#191970" stroke="#191970" points="825.7498,-202.4313 831.5674,-193.5765 821.4977,-196.8708 825.7498,-202.4313"/>
</g>
<!-- Node39 -->
<g id="node30" class="node">
<title>Node39</title>
<polygon fill="#ffffff" stroke="#bfbfbf" points="516.2856,-165.5 516.2856,-193.5 615.6646,-193.5 615.6646,-165.5 516.2856,-165.5"/>
<text text-anchor="start" x="524.2856" y="-181.5" font-family="Helvetica,sans-Serif" font-size="10.00" fill="#000000">boost/math/special</text>
<text text-anchor="middle" x="565.9751" y="-171.5" font-family="Helvetica,sans-Serif" font-size="10.00" fill="#000000">_functions/erf.hpp</text>
</g>
<!-- Node36&#45;&gt;Node39 -->
<g id="edge30" class="edge">
<title>Node36&#45;&gt;Node39</title>
<path fill="none" stroke="#191970" d="M721.7951,-230.396C691.5454,-220.5154 650.9404,-207.2525 618.7649,-196.7429"/>
<polygon fill="#191970" stroke="#191970" points="619.6634,-193.3545 609.0709,-193.5765 617.4899,-200.0085 619.6634,-193.3545"/>
</g>
<!-- Node36&#45;&gt;Node40 -->
<g id="edge31" class="edge">
<title>Node36&#45;&gt;Node40</title>
<path fill="none" stroke="#191970" d="M811.3622,-230.476C844.3106,-220.5149 888.7283,-207.0862 923.7035,-196.5123"/>
<polygon fill="#191970" stroke="#191970" points="924.7413,-199.8551 933.3005,-193.6109 922.7155,-193.1546 924.7413,-199.8551"/>
</g>
<!-- Node36&#45;&gt;Node41 -->
<g id="edge32" class="edge">
<title>Node36&#45;&gt;Node41</title>
<path fill="none" stroke="#191970" d="M832.739,-232.8404C886.9863,-223.3672 965.2739,-209.3855 1043.0513,-194.1486"/>
<polygon fill="#191970" stroke="#191970" points="1043.8895,-197.5509 1053.0262,-192.1869 1042.5387,-190.6824 1043.8895,-197.5509"/>
</g>
<!-- Node42 -->
<g id="node33" class="node">
<title>Node42</title>
<polygon fill="#ffffff" stroke="#bfbfbf" points="633.3301,-165.5 633.3301,-193.5 736.6201,-193.5 736.6201,-165.5 633.3301,-165.5"/>
<text text-anchor="start" x="641.3301" y="-181.5" font-family="Helvetica,sans-Serif" font-size="10.00" fill="#000000">boost/math/special</text>
<text text-anchor="middle" x="684.9751" y="-171.5" font-family="Helvetica,sans-Serif" font-size="10.00" fill="#000000">_functions/beta.hpp</text>
</g>
<!-- Node36&#45;&gt;Node42 -->
<g id="edge33" class="edge">
<title>Node36&#45;&gt;Node42</title>
<path fill="none" stroke="#191970" d="M747.6163,-230.396C736.7136,-221.5375 722.4648,-209.9604 710.3118,-200.0861"/>
<polygon fill="#191970" stroke="#191970" points="712.2683,-197.1661 702.3,-193.5765 707.8541,-202.5989 712.2683,-197.1661"/>
</g>
<!-- Node44 -->
<g id="node35" class="node">
<title>Node44</title>
<g id="a_node35"><a xlink:href="../../d2/d8b/_finite___element___problem_8hpp.html" target="_top" xlink:title="Finite_Element_Problem.hpp">
<polygon fill="#ffffff" stroke="#000000" points="1285.4951,-170.5 1285.4951,-188.5 1430.4551,-188.5 1430.4551,-170.5 1285.4951,-170.5"/>
<text text-anchor="middle" x="1357.9751" y="-176.5" font-family="Helvetica,sans-Serif" font-size="10.00" fill="#000000">Finite_Element_Problem.hpp</text>
</a>
</g>
</g>
<!-- Node43&#45;&gt;Node44 -->
<g id="edge35" class="edge">
<title>Node43&#45;&gt;Node44</title>
<path fill="none" stroke="#191970" d="M1086.9491,-232.8797C1091.6915,-231.8979 1096.4168,-230.9267 1100.9751,-230 1169.6944,-216.0285 1248.8853,-200.5636 1300.9925,-190.4749"/>
<polygon fill="#191970" stroke="#191970" points="1301.8885,-193.8665 1311.0417,-188.5309 1300.559,-186.994 1301.8885,-193.8665"/>
</g>
<!-- Node46 -->
<g id="node37" class="node">
<title>Node46</title>
<g id="a_node37"><a xlink:href="../../d5/d3f/laplacepp_8hpp.html" target="_top" xlink:title="laplacepp.hpp">
<polygon fill="#ffffff" stroke="#ff0000" points="1188.8374,-170.5 1188.8374,-188.5 1267.1128,-188.5 1267.1128,-170.5 1188.8374,-170.5"/>
<text text-anchor="middle" x="1227.9751" y="-176.5" font-family="Helvetica,sans-Serif" font-size="10.00" fill="#000000">laplacepp.hpp</text>
</a>
</g>
</g>
<!-- Node43&#45;&gt;Node46 -->
<g id="edge39" class="edge">
<title>Node43&#45;&gt;Node46</title>
<path fill="none" stroke="#191970" d="M1074.5042,-230.396C1109.1954,-218.8912 1157.7146,-202.8007 1190.854,-191.8106"/>
<polygon fill="#191970" stroke="#191970" points="1192.2226,-195.0442 1200.6126,-188.5743 1190.0192,-188.4 1192.2226,-195.0442"/>
</g>
<!-- Node44&#45;&gt;Node4 -->
<g id="edge36" class="edge">
<title>Node44&#45;&gt;Node4</title>
<path fill="none" stroke="#191970" d="M1337.0676,-170.4289C1319.9694,-162.009 1296.3471,-147.9237 1281.9751,-129 1271.9589,-115.8117 1266.6101,-97.6497 1263.8233,-83.9578"/>
<polygon fill="#191970" stroke="#191970" points="1267.2034,-82.9662 1262.0388,-73.7154 1260.3073,-84.1677 1267.2034,-82.9662"/>
</g>
<!-- Node45 -->
<g id="node36" class="node">
<title>Node45</title>
<g id="a_node36"><a xlink:href="../../d0/d41/_base_class_f_e_m_8hpp.html" target="_top" xlink:title="BaseClassFEM.hpp">
<polygon fill="#ffffff" stroke="#000000" points="1290.7905,-110.5 1290.7905,-128.5 1395.1597,-128.5 1395.1597,-110.5 1290.7905,-110.5"/>
<text text-anchor="middle" x="1342.9751" y="-116.5" font-family="Helvetica,sans-Serif" font-size="10.00" fill="#000000">BaseClassFEM.hpp</text>
</a>
</g>
</g>
<!-- Node44&#45;&gt;Node45 -->
<g id="edge37" class="edge">
<title>Node44&#45;&gt;Node45</title>
<path fill="none" stroke="#191970" d="M1355.6969,-170.3873C1353.5824,-161.9293 1350.3686,-149.074 1347.7003,-138.4007"/>
<polygon fill="#191970" stroke="#191970" points="1351.0956,-137.551 1345.2747,-128.6985 1344.3046,-139.2488 1351.0956,-137.551"/>
</g>
<!-- Node45&#45;&gt;Node4 -->
<g id="edge38" class="edge">
<title>Node45&#45;&gt;Node4</title>
<path fill="none" stroke="#191970" d="M1329.4345,-110.4179C1316.8525,-101.9788 1297.8855,-89.257 1283.104,-79.3426"/>
<polygon fill="#191970" stroke="#191970" points="1284.7904,-76.2593 1274.5358,-73.5956 1280.8911,-82.0727 1284.7904,-76.2593"/>
</g>
<!-- Node48&#45;&gt;Node30 -->
<g id="edge43" class="edge">
<title>Node48&#45;&gt;Node30</title>
<path fill="none" stroke="#191970" d="M1558.6363,-305.3599C1546.7163,-284.0608 1518.9751,-229.1576 1518.9751,-179.5 1518.9751,-179.5 1518.9751,-179.5 1518.9751,-119.5 1518.9751,-87.7718 1518.9751,-50.8957 1518.9751,-28.917"/>
<polygon fill="#191970" stroke="#191970" points="1522.4752,-28.6266 1518.9751,-18.6267 1515.4752,-28.6267 1522.4752,-28.6266"/>
</g>
<!-- Node48&#45;&gt;Node43 -->
<g id="edge41" class="edge">
<title>Node48&#45;&gt;Node43</title>
<path fill="none" stroke="#191970" d="M1500.8205,-308.7041C1411.4632,-300.101 1243.1641,-282.4158 1100.9751,-259 1099.6842,-258.7874 1098.3809,-258.5673 1097.0684,-258.3407"/>
<polygon fill="#191970" stroke="#191970" points="1097.345,-254.8338 1086.8807,-256.4921 1096.0951,-261.7213 1097.345,-254.8338"/>
</g>
<!-- Node48&#45;&gt;Node44 -->
<g id="edge42" class="edge">
<title>Node48&#45;&gt;Node44</title>
<path fill="none" stroke="#191970" d="M1500.8169,-310.8879C1387.1801,-303.7398 1157.8011,-286.0988 1133.9751,-259 1125.4646,-249.3204 1125.9256,-240.0662 1133.9751,-230 1139.2703,-223.3782 1236.4774,-203.2505 1301.081,-190.4951"/>
<polygon fill="#191970" stroke="#191970" points="1302.014,-193.8788 1311.1504,-188.5145 1300.6629,-187.0104 1302.014,-193.8788"/>
</g>
<!-- Node49 -->
<g id="node39" class="node">
<title>Node49</title>
<polygon fill="#ffffff" stroke="#bfbfbf" points="1291.4653,-235.5 1291.4653,-253.5 1342.4849,-253.5 1342.4849,-235.5 1291.4653,-235.5"/>
<text text-anchor="middle" x="1316.9751" y="-241.5" font-family="Helvetica,sans-Serif" font-size="10.00" fill="#000000">Ifpack.h</text>
</g>
<!-- Node48&#45;&gt;Node49 -->
<g id="edge44" class="edge">
<title>Node48&#45;&gt;Node49</title>
<path fill="none" stroke="#191970" d="M1522.8457,-305.4928C1479.7727,-295.6523 1410.3947,-278.6455 1351.9751,-259 1350.3464,-258.4523 1348.6857,-257.8654 1347.0163,-257.253"/>
<polygon fill="#191970" stroke="#191970" points="1348.114,-253.9245 1337.5254,-253.5618 1345.5767,-260.4485 1348.114,-253.9245"/>
</g>
<!-- Node50 -->
<g id="node40" class="node">
<title>Node50</title>
<polygon fill="#ffffff" stroke="#bfbfbf" points="1360.7241,-235.5 1360.7241,-253.5 1491.2261,-253.5 1491.2261,-235.5 1360.7241,-235.5"/>
<text text-anchor="middle" x="1425.9751" y="-241.5" font-family="Helvetica,sans-Serif" font-size="10.00" fill="#000000">Ifpack_AdditiveSchwarz.h</text>
</g>
<!-- Node48&#45;&gt;Node50 -->
<g id="edge45" class="edge">
<title>Node48&#45;&gt;Node50</title>
<path fill="none" stroke="#191970" d="M1546.2165,-305.492C1522.6437,-293.5348 1480.7912,-272.3053 1453.2107,-258.3152"/>
<polygon fill="#191970" stroke="#191970" points="1454.6053,-255.0981 1444.1037,-253.6957 1451.4387,-261.3409 1454.6053,-255.0981"/>
</g>
<!-- Node51 -->
<g id="node41" class="node">
<title>Node51</title>
<polygon fill="#ffffff" stroke="#bfbfbf" points="1547.2192,-235.5 1547.2192,-253.5 1672.731,-253.5 1672.731,-235.5 1547.2192,-235.5"/>
<text text-anchor="middle" x="1609.9751" y="-241.5" font-family="Helvetica,sans-Serif" font-size="10.00" fill="#000000">BelosLinearProblem.hpp</text>
</g>
<!-- Node48&#45;&gt;Node51 -->
<g id="edge46" class="edge">
<title>Node48&#45;&gt;Node51</title>
<path fill="none" stroke="#191970" d="M1569.9888,-305.3487C1577.1121,-294.5089 1589.1469,-276.1951 1598.1565,-262.4848"/>
<polygon fill="#191970" stroke="#191970" points="1601.2463,-264.1562 1603.8131,-253.8769 1595.3963,-260.3119 1601.2463,-264.1562"/>
</g>
<!-- Node52 -->
<g id="node42" class="node">
<title>Node52</title>
<polygon fill="#ffffff" stroke="#bfbfbf" points="1690.9458,-235.5 1690.9458,-253.5 1837.0044,-253.5 1837.0044,-235.5 1690.9458,-235.5"/>
<text text-anchor="middle" x="1763.9751" y="-241.5" font-family="Helvetica,sans-Serif" font-size="10.00" fill="#000000">BelosBlockGmresSolMgr.hpp</text>
</g>
<!-- Node48&#45;&gt;Node52 -->
<g id="edge47" class="edge">
<title>Node48&#45;&gt;Node52</title>
<path fill="none" stroke="#191970" d="M1589.7122,-305.492C1625.0173,-293.1352 1688.6147,-270.8762 1728.4391,-256.9376"/>
<polygon fill="#191970" stroke="#191970" points="1729.7377,-260.1913 1738.02,-253.5843 1727.4252,-253.5843 1729.7377,-260.1913"/>
</g>
<!-- Node53 -->
<g id="node43" class="node">
<title>Node53</title>
<polygon fill="#ffffff" stroke="#bfbfbf" points="1854.7661,-235.5 1854.7661,-253.5 1979.1841,-253.5 1979.1841,-235.5 1854.7661,-235.5"/>
<text text-anchor="middle" x="1916.9751" y="-241.5" font-family="Helvetica,sans-Serif" font-size="10.00" fill="#000000">BelosEpetraAdapter.hpp</text>
</g>
<!-- Node48&#45;&gt;Node53 -->
<g id="edge48" class="edge">
<title>Node48&#45;&gt;Node53</title>
<path fill="none" stroke="#191970" d="M1610.4027,-305.4679C1666.3099,-294.5673 1763.0495,-275.6278 1845.9751,-259 1851.4489,-257.9024 1857.1583,-256.7497 1862.8573,-255.5939"/>
<polygon fill="#191970" stroke="#191970" points="1863.9487,-258.9437 1873.0509,-253.5214 1862.554,-252.084 1863.9487,-258.9437"/>
</g>
<!-- Node54 -->
<g id="node44" class="node">
<title>Node54</title>
<polygon fill="#ffffff" stroke="#bfbfbf" points="1997.2627,-235.5 1997.2627,-253.5 2118.6875,-253.5 2118.6875,-235.5 1997.2627,-235.5"/>
<text text-anchor="middle" x="2057.9751" y="-241.5" font-family="Helvetica,sans-Serif" font-size="10.00" fill="#000000">BelosSolverFactory.hpp</text>
</g>
<!-- Node48&#45;&gt;Node54 -->
<g id="edge49" class="edge">
<title>Node48&#45;&gt;Node54</title>
<path fill="none" stroke="#191970" d="M1627.05,-307.7221C1710.067,-298.4635 1860.4177,-280.5293 1987.9751,-259 1994.159,-257.9563 2000.6289,-256.7597 2007.0311,-255.5111"/>
<polygon fill="#191970" stroke="#191970" points="2007.8653,-258.9137 2016.985,-253.521 2006.4928,-252.0496 2007.8653,-258.9137"/>
</g>
<!-- Node55 -->
<g id="node45" class="node">
<title>Node55</title>
<polygon fill="#ffffff" stroke="#bfbfbf" points="2137.0938,-235.5 2137.0938,-253.5 2314.8564,-253.5 2314.8564,-235.5 2137.0938,-235.5"/>
<text text-anchor="middle" x="2225.9751" y="-241.5" font-family="Helvetica,sans-Serif" font-size="10.00" fill="#000000">Teuchos_StandardCatchMacros.hpp</text>
</g>
<!-- Node48&#45;&gt;Node55 -->
<g id="edge50" class="edge">
<title>Node48&#45;&gt;Node55</title>
<path fill="none" stroke="#191970" d="M1627.1011,-309.3004C1731.4916,-300.4749 1946.5857,-281.3303 2127.9751,-259 2137.7692,-257.7943 2148.0957,-256.4007 2158.224,-254.964"/>
<polygon fill="#191970" stroke="#191970" points="2158.8605,-258.4085 2168.2592,-253.5183 2157.8623,-251.48 2158.8605,-258.4085"/>
</g>
<!-- Node56 -->
<g id="node46" class="node">
<title>Node56</title>
<polygon fill="#ffffff" stroke="#bfbfbf" points="2332.7168,-235.5 2332.7168,-253.5 2473.2334,-253.5 2473.2334,-235.5 2332.7168,-235.5"/>
<text text-anchor="middle" x="2402.9751" y="-241.5" font-family="Helvetica,sans-Serif" font-size="10.00" fill="#000000">Teuchos_ParameterList.hpp</text>
</g>
<!-- Node48&#45;&gt;Node56 -->
<g id="edge51" class="edge">
<title>Node48&#45;&gt;Node56</title>
<path fill="none" stroke="#191970" d="M1627.2638,-312.2042C1757.9124,-306.9534 2066.7706,-291.8967 2323.9751,-259 2331.9402,-257.9813 2340.3193,-256.6871 2348.5232,-255.2931"/>
<polygon fill="#191970" stroke="#191970" points="2349.1612,-258.7347 2358.4035,-253.5548 2347.9482,-251.8405 2349.1612,-258.7347"/>
</g>
<!-- Node57 -->
<g id="node47" class="node">
<title>Node57</title>
<polygon fill="#ffffff" stroke="#bfbfbf" points="2491.1675,-230.5 2491.1675,-258.5 2632.7827,-258.5 2632.7827,-230.5 2491.1675,-230.5"/>
<text text-anchor="start" x="2499.1675" y="-246.5" font-family="Helvetica,sans-Serif" font-size="10.00" fill="#000000">Teuchos_XMLParameterList</text>
<text text-anchor="middle" x="2561.9751" y="-236.5" font-family="Helvetica,sans-Serif" font-size="10.00" fill="#000000">CoreHelpers.hpp</text>
</g>
<!-- Node48&#45;&gt;Node57 -->
<g id="edge52" class="edge">
<title>Node48&#45;&gt;Node57</title>
<path fill="none" stroke="#191970" d="M1627.0917,-313.2677C1774.7476,-309.8282 2154.2707,-297.7634 2480.8099,-259.0396"/>
<polygon fill="#191970" stroke="#191970" points="2481.4281,-262.4906 2490.9415,-257.8274 2480.5965,-255.5402 2481.4281,-262.4906"/>
</g>
<!-- Node58 -->
<g id="node48" class="node">
<title>Node58</title>
<polygon fill="#ffffff" stroke="#bfbfbf" points="1142.7266,-230.5 1142.7266,-258.5 1273.2236,-258.5 1273.2236,-230.5 1142.7266,-230.5"/>
<text text-anchor="start" x="1150.7266" y="-246.5" font-family="Helvetica,sans-Serif" font-size="10.00" fill="#000000">Stratimikos_DefaultLinear</text>
<text text-anchor="middle" x="1207.9751" y="-236.5" font-family="Helvetica,sans-Serif" font-size="10.00" fill="#000000">SolverBuilder.hpp</text>
</g>
<!-- Node48&#45;&gt;Node58 -->
<g id="edge53" class="edge">
<title>Node48&#45;&gt;Node58</title>
<path fill="none" stroke="#191970" d="M1518.1631,-305.492C1458.8279,-293.825 1354.5978,-273.3303 1283.4795,-259.3464"/>
<polygon fill="#191970" stroke="#191970" points="1283.7236,-255.8274 1273.2362,-257.3322 1282.373,-262.6959 1283.7236,-255.8274"/>
</g>
<!-- Node59&#45;&gt;Node4 -->
<g id="edge71" class="edge">
<title>Node59&#45;&gt;Node4</title>
<path fill="none" stroke="#191970" d="M2005.377,-115.8059C1857.3936,-105.6065 1444.9767,-77.1818 1306.7756,-67.6567"/>
<polygon fill="#191970" stroke="#191970" points="1306.7592,-64.1473 1296.5422,-66.9514 1306.2778,-71.1308 1306.7592,-64.1473"/>
</g>
<!-- Node59&#45;&gt;Node5 -->
<g id="edge55" class="edge">
<title>Node59&#45;&gt;Node5</title>
<path fill="none" stroke="#191970" d="M2064.0488,-110.4982C2074.2671,-92.369 2097.4913,-51.1647 2110.9052,-27.3659"/>
<polygon fill="#191970" stroke="#191970" points="2113.9701,-29.0562 2115.8313,-18.6261 2107.8721,-25.6191 2113.9701,-29.0562"/>
</g>
<!-- Node59&#45;&gt;Node6 -->
<g id="edge56" class="edge">
<title>Node59&#45;&gt;Node6</title>
<path fill="none" stroke="#191970" d="M2069.6135,-110.4982C2091.7055,-91.805 2142.7913,-48.5786 2170.4247,-25.1964"/>
<polygon fill="#191970" stroke="#191970" points="2172.8166,-27.7575 2178.1897,-18.6261 2168.295,-22.4137 2172.8166,-27.7575"/>
</g>
<!-- Node59&#45;&gt;Node7 -->
<g id="edge57" class="edge">
<title>Node59&#45;&gt;Node7</title>
<path fill="none" stroke="#191970" d="M2011.1446,-110.4486C1966.8418,-101.8445 1899.2081,-88.1491 1840.9751,-74 1755.2587,-53.1732 1732.3991,-44.4574 1644.102,-19.3134"/>
<polygon fill="#191970" stroke="#191970" points="1645.0518,-15.9448 1634.4761,-16.5809 1643.1402,-22.6787 1645.0518,-15.9448"/>
</g>
<!-- Node59&#45;&gt;Node8 -->
<g id="edge58" class="edge">
<title>Node59&#45;&gt;Node8</title>
<path fill="none" stroke="#191970" d="M2027.7144,-110.4982C1957.0879,-90.1608 1785.6172,-40.7844 1711.762,-19.5172"/>
<polygon fill="#191970" stroke="#191970" points="1712.5873,-16.1127 1702.0092,-16.7088 1710.6502,-22.8393 1712.5873,-16.1127"/>
</g>
<!-- Node59&#45;&gt;Node9 -->
<g id="edge59" class="edge">
<title>Node59&#45;&gt;Node9</title>
<path fill="none" stroke="#191970" d="M2058.9751,-110.4982C2058.9751,-92.6913 2058.9751,-52.6225 2058.9751,-28.6515"/>
<polygon fill="#191970" stroke="#191970" points="2062.4752,-28.6261 2058.9751,-18.6261 2055.4752,-28.6262 2062.4752,-28.6261"/>
</g>
<!-- Node59&#45;&gt;Node10 -->
<g id="edge60" class="edge">
<title>Node59&#45;&gt;Node10</title>
<path fill="none" stroke="#191970" d="M2075.4238,-110.4982C2110.3912,-91.3619 2192.3381,-46.5153 2234.2699,-23.5675"/>
<polygon fill="#191970" stroke="#191970" points="2236.2071,-26.4972 2243.2991,-18.6261 2232.8466,-20.3566 2236.2071,-26.4972"/>
</g>
<!-- Node60 -->
<g id="node50" class="node">
<title>Node60</title>
<g id="a_node50"><a xlink:href="../../d2/d81/readnrldata_8hpp.html" target="_top" xlink:title="readnrldata.hpp">
<polygon fill="#ffffff" stroke="#000000" points="1924.9482,-55.5 1924.9482,-73.5 2011.002,-73.5 2011.002,-55.5 1924.9482,-55.5"/>
<text text-anchor="middle" x="1967.9751" y="-61.5" font-family="Helvetica,sans-Serif" font-size="10.00" fill="#000000">readnrldata.hpp</text>
</a>
</g>
</g>
<!-- Node59&#45;&gt;Node60 -->
<g id="edge61" class="edge">
<title>Node59&#45;&gt;Node60</title>
<path fill="none" stroke="#191970" d="M2043.9483,-110.4179C2029.722,-101.8195 2008.1398,-88.7754 1991.6093,-78.7844"/>
<polygon fill="#191970" stroke="#191970" points="1993.3929,-75.7729 1983.0242,-73.5956 1989.7721,-81.7637 1993.3929,-75.7729"/>
</g>
<!-- Node60&#45;&gt;Node5 -->
<g id="edge62" class="edge">
<title>Node60&#45;&gt;Node5</title>
<path fill="none" stroke="#191970" d="M1993.2399,-55.4179C2019.3577,-46.0291 2060.2213,-31.3396 2088.6717,-21.1123"/>
<polygon fill="#191970" stroke="#191970" points="2089.9463,-24.3735 2098.1728,-17.6969 2087.5783,-17.7862 2089.9463,-24.3735"/>
</g>
<!-- Node60&#45;&gt;Node6 -->
<g id="edge63" class="edge">
<title>Node60&#45;&gt;Node6</title>
<path fill="none" stroke="#191970" d="M2005.5796,-55.4478C2040.9458,-46.8907 2095.624,-33.5493 2151.7231,-19.2921"/>
<polygon fill="#191970" stroke="#191970" points="2152.6435,-22.6695 2161.4701,-16.8092 2150.9156,-15.8861 2152.6435,-22.6695"/>
</g>
<!-- Node60&#45;&gt;Node7 -->
<g id="edge64" class="edge">
<title>Node60&#45;&gt;Node7</title>
<path fill="none" stroke="#191970" d="M1924.7899,-60.4156C1864.1026,-54.2471 1750.0375,-41.0874 1644.2663,-19.0349"/>
<polygon fill="#191970" stroke="#191970" points="1644.8944,-15.5904 1634.3864,-16.9435 1643.4447,-22.4386 1644.8944,-15.5904"/>
</g>
<!-- Node60&#45;&gt;Node8 -->
<g id="edge65" class="edge">
<title>Node60&#45;&gt;Node8</title>
<path fill="none" stroke="#191970" d="M1924.7827,-58.3118C1875.3232,-50.91 1791.7156,-37.4368 1711.5274,-19.1905"/>
<polygon fill="#191970" stroke="#191970" points="1712.2984,-15.7765 1701.7678,-16.9417 1710.7266,-22.5978 1712.2984,-15.7765"/>
</g>
<!-- Node60&#45;&gt;Node9 -->
<g id="edge66" class="edge">
<title>Node60&#45;&gt;Node9</title>
<path fill="none" stroke="#191970" d="M1983.0019,-55.4179C1997.2282,-46.8195 2018.8104,-33.7754 2035.3409,-23.7844"/>
<polygon fill="#191970" stroke="#191970" points="2037.1781,-26.7637 2043.926,-18.5956 2033.5572,-20.7729 2037.1781,-26.7637"/>
</g>
<!-- Node60&#45;&gt;Node10 -->
<g id="edge67" class="edge">
<title>Node60&#45;&gt;Node10</title>
<path fill="none" stroke="#191970" d="M2011.4098,-58.0302C2060.6978,-50.4183 2143.666,-36.79 2224.5728,-18.9193"/>
<polygon fill="#191970" stroke="#191970" points="2225.4299,-22.3141 2234.4268,-16.719 2223.9044,-15.4824 2225.4299,-22.3141"/>
</g>
<!-- Node60&#45;&gt;Node17 -->
<g id="edge70" class="edge">
<title>Node60&#45;&gt;Node17</title>
<path fill="none" stroke="#191970" d="M1938.582,-55.4179C1908.6039,-46.155 1861.9274,-31.7325 1828.8956,-21.526"/>
<polygon fill="#191970" stroke="#191970" points="1829.7036,-18.1124 1819.116,-18.5042 1827.637,-24.8005 1829.7036,-18.1124"/>
</g>
<!-- Node60&#45;&gt;Node18 -->
<g id="edge69" class="edge">
<title>Node60&#45;&gt;Node18</title>
<path fill="none" stroke="#191970" d="M1964.8376,-55.4179C1962.2952,-48.0581 1958.6275,-37.441 1955.4591,-28.2695"/>
<polygon fill="#191970" stroke="#191970" points="1958.7542,-27.0885 1952.1807,-18.7795 1952.1378,-29.3742 1958.7542,-27.0885"/>
</g>
<!-- Node60&#45;&gt;Node30 -->
<g id="edge68" class="edge">
<title>Node60&#45;&gt;Node30</title>
<path fill="none" stroke="#191970" d="M1924.7871,-60.1378C1854.4582,-52.8894 1710.5758,-37.4576 1578.6012,-19.1758"/>
<polygon fill="#191970" stroke="#191970" points="1578.6999,-15.6558 1568.3123,-17.7413 1577.7332,-22.5887 1578.6999,-15.6558"/>
</g>
</g>
</svg>
