<?xml version="1.0" encoding="UTF-8" standalone="no"?>
<!DOCTYPE svg PUBLIC "-//W3C//DTD SVG 1.1//EN"
 "http://www.w3.org/Graphics/SVG/1.1/DTD/svg11.dtd">
<!-- Generated by graphviz version 2.40.1 (20161225.0304)
 -->
<!-- Title: arteries/deterministic_dirichlet/main.cpp Pages: 1 -->
<!--zoomable 442 -->
<svg id="main" version="1.1" xmlns="http://www.w3.org/2000/svg" xmlns:xlink="http://www.w3.org/1999/xlink" xml:space="preserve" onload="init(evt)">
<style type="text/css"><![CDATA[
.edge:hover path { stroke: red; }
.edge:hover polygon { stroke: red; fill: red; }
]]></style>
<script type="text/javascript"><![CDATA[
var edges = document.getElementsByTagName('g');
if (edges && edges.length) {
  for (var i=0;i<edges.length;i++) {
    if (edges[i].id.substr(0,4)=='edge') {
      edges[i].setAttribute('class','edge');
    }
  }
}
]]></script>
        <defs>
                <circle id="rim" cx="0" cy="0" r="7"/>
                <circle id="rim2" cx="0" cy="0" r="3.5"/>
                <g id="zoomPlus">
                        <use xlink:href="#rim" fill="#404040">
                                <set attributeName="fill" to="#808080" begin="zoomplus.mouseover" end="zoomplus.mouseout"/>
                        </use>
                        <path d="M-4,0h8M0,-4v8" fill="none" stroke="white" stroke-width="1.5" pointer-events="none"/>
                </g>
                <g id="zoomMin">
                        <use xlink:href="#rim" fill="#404040">
                                <set attributeName="fill" to="#808080" begin="zoomminus.mouseover" end="zoomminus.mouseout"/>
                        </use>
                        <path d="M-4,0h8" fill="none" stroke="white" stroke-width="1.5" pointer-events="none"/>
                </g>
                <g id="dirArrow">
                        <path fill="none" stroke="white" stroke-width="1.5" d="M0,-3.0v7 M-2.5,-0.5L0,-3.0L2.5,-0.5"/>
                </g>
               <g id="resetDef">
                       <use xlink:href="#rim2" fill="#404040">
                               <set attributeName="fill" to="#808080" begin="reset.mouseover" end="reset.mouseout"/>
                       </use>
               </g>
        </defs>

<script type="text/javascript">
var viewWidth = 3189;
var viewHeight = 442;
var sectionId = 'dynsection-0';
</script>
<script xlink:href="../../svgpan.js"/>
<svg id="graph" class="graph">
<g id="viewport">
<title>arteries/deterministic_dirichlet/main.cpp</title>
<polygon fill="#ffffff" stroke="transparent" points="-4,4 -4,-438 3184.98,-438 3184.98,4 -4,4"/>
<!-- Node0 -->
<g id="node1" class="node">
<title>Node0</title>
<polygon fill="#bfbfbf" stroke="#000000" points="1420.606,-405.5 1420.606,-433.5 1528.8569,-433.5 1528.8569,-405.5 1420.606,-405.5"/>
<text text-anchor="start" x="1428.606" y="-421.5" font-family="Helvetica,sans-Serif" font-size="10.00" fill="#000000">arteries/deterministic</text>
<text text-anchor="middle" x="1474.7314" y="-411.5" font-family="Helvetica,sans-Serif" font-size="10.00" fill="#000000">_dirichlet/main.cpp</text>
</g>
<!-- Node1 -->
<g id="node2" class="node">
<title>Node1</title>
<polygon fill="#ffffff" stroke="#bfbfbf" points="1224.3154,-345.5 1224.3154,-363.5 1333.1475,-363.5 1333.1475,-345.5 1224.3154,-345.5"/>
<text text-anchor="middle" x="1278.7314" y="-351.5" font-family="Helvetica,sans-Serif" font-size="10.00" fill="#000000">Epetra_ConfigDefs.h</text>
</g>
<!-- Node0&#45;&gt;Node1 -->
<g id="edge1" class="edge">
<title>Node0&#45;&gt;Node1</title>
<path fill="none" stroke="#191970" d="M1432.2024,-405.396C1397.5111,-393.8912 1348.992,-377.8007 1315.8525,-366.8106"/>
<polygon fill="#191970" stroke="#191970" points="1316.6874,-363.4 1306.094,-363.5743 1314.4839,-370.0442 1316.6874,-363.4"/>
</g>
<!-- Node2 -->
<g id="node3" class="node">
<title>Node2</title>
<polygon fill="#ffffff" stroke="#bfbfbf" points="1351.5444,-345.5 1351.5444,-363.5 1465.9185,-363.5 1465.9185,-345.5 1351.5444,-345.5"/>
<text text-anchor="middle" x="1408.7314" y="-351.5" font-family="Helvetica,sans-Serif" font-size="10.00" fill="#000000">Epetra_SerialComm.h</text>
</g>
<!-- Node0&#45;&gt;Node2 -->
<g id="edge2" class="edge">
<title>Node0&#45;&gt;Node2</title>
<path fill="none" stroke="#191970" d="M1460.4104,-405.396C1450.0378,-395.1805 1435.9941,-381.3496 1425.1645,-370.6841"/>
<polygon fill="#191970" stroke="#191970" points="1427.5261,-368.0975 1417.9454,-363.5743 1422.6143,-373.0849 1427.5261,-368.0975"/>
</g>
<!-- Node3 -->
<g id="node4" class="node">
<title>Node3</title>
<g id="a_node4"><a xlink:href="../../dd/d3d/dirichlet_inlet_outlet___polyconvex_h_g_o_8hpp.html" target="_top" xlink:title="dirichletInletOutlet\l_PolyconvexHGO.hpp">
<polygon fill="#ffffff" stroke="#000000" points="1484.2612,-340.5 1484.2612,-368.5 1599.2017,-368.5 1599.2017,-340.5 1484.2612,-340.5"/>
<text text-anchor="start" x="1492.2612" y="-356.5" font-family="Helvetica,sans-Serif" font-size="10.00" fill="#000000">dirichletInletOutlet</text>
<text text-anchor="middle" x="1541.7314" y="-346.5" font-family="Helvetica,sans-Serif" font-size="10.00" fill="#000000">_PolyconvexHGO.hpp</text>
</a>
</g>
</g>
<!-- Node0&#45;&gt;Node3 -->
<g id="edge3" class="edge">
<title>Node0&#45;&gt;Node3</title>
<path fill="none" stroke="#191970" d="M1489.2694,-405.396C1498.2248,-396.7079 1509.8759,-385.4046 1519.9228,-375.6576"/>
<polygon fill="#191970" stroke="#191970" points="1522.4815,-378.0518 1527.2218,-368.5765 1517.6073,-373.0276 1522.4815,-378.0518"/>
</g>
<!-- Node43 -->
<g id="node40" class="node">
<title>Node43</title>
<g id="a_node40"><a xlink:href="../../d1/d11/newton_raphson_8hpp.html" target="_top" xlink:title="newtonRaphson.hpp">
<polygon fill="#ffffff" stroke="#000000" points="2109.8623,-230.5 2109.8623,-248.5 2217.6006,-248.5 2217.6006,-230.5 2109.8623,-230.5"/>
<text text-anchor="middle" x="2163.7314" y="-236.5" font-family="Helvetica,sans-Serif" font-size="10.00" fill="#000000">newtonRaphson.hpp</text>
</a>
</g>
</g>
<!-- Node0&#45;&gt;Node43 -->
<g id="edge42" class="edge">
<title>Node0&#45;&gt;Node43</title>
<path fill="none" stroke="#191970" d="M1528.5091,-405.4507C1660.354,-371.0064 1997.7428,-282.8642 2119.2658,-251.1166"/>
<polygon fill="#191970" stroke="#191970" points="2120.203,-254.4893 2128.9935,-248.5752 2118.4335,-247.7166 2120.203,-254.4893"/>
</g>
<!-- Node4 -->
<g id="node5" class="node">
<title>Node4</title>
<g id="a_node5"><a xlink:href="../../de/d49/tensor__calculus_8hpp.html" target="_top" xlink:title="tensor_calculus.hpp">
<polygon fill="#ffffff" stroke="#000000" points="1307.2588,-110.5 1307.2588,-128.5 1412.2041,-128.5 1412.2041,-110.5 1307.2588,-110.5"/>
<text text-anchor="middle" x="1359.7314" y="-116.5" font-family="Helvetica,sans-Serif" font-size="10.00" fill="#000000">tensor_calculus.hpp</text>
</a>
</g>
</g>
<!-- Node3&#45;&gt;Node4 -->
<g id="edge4" class="edge">
<title>Node3&#45;&gt;Node4</title>
<path fill="none" stroke="#191970" d="M1487.9341,-340.4102C1464.3901,-332.4094 1437.4699,-320.6021 1416.7314,-304 1365.7375,-263.177 1359.3481,-177.6172 1359.2055,-139.0679"/>
<polygon fill="#191970" stroke="#191970" points="1362.7091,-138.753 1359.3194,-128.7151 1355.7095,-138.676 1362.7091,-138.753"/>
</g>
<!-- Node37 -->
<g id="node34" class="node">
<title>Node37</title>
<g id="a_node34"><a xlink:href="../../d5/d3f/laplacepp_8hpp.html" target="_top" xlink:title="laplacepp.hpp">
<polygon fill="#ffffff" stroke="#000000" points="1425.5938,-285.5 1425.5938,-303.5 1503.8691,-303.5 1503.8691,-285.5 1425.5938,-285.5"/>
<text text-anchor="middle" x="1464.7314" y="-291.5" font-family="Helvetica,sans-Serif" font-size="10.00" fill="#000000">laplacepp.hpp</text>
</a>
</g>
</g>
<!-- Node3&#45;&gt;Node37 -->
<g id="edge33" class="edge">
<title>Node3&#45;&gt;Node37</title>
<path fill="none" stroke="#191970" d="M1523.4835,-340.2808C1511.7455,-331.1344 1496.4965,-319.252 1484.4757,-309.8851"/>
<polygon fill="#191970" stroke="#191970" points="1486.4288,-306.9699 1476.3895,-303.5842 1482.1262,-312.4915 1486.4288,-306.9699"/>
</g>
<!-- Node40 -->
<g id="node37" class="node">
<title>Node40</title>
<g id="a_node37"><a xlink:href="../../dc/de0/nearly_incompressible_hyperelasticity_8hpp.html" target="_top" xlink:title="nearlyIncompressibleHyperelasticity.hpp">
<polygon fill="#ffffff" stroke="#000000" points="1521.6152,-285.5 1521.6152,-303.5 1715.8477,-303.5 1715.8477,-285.5 1521.6152,-285.5"/>
<text text-anchor="middle" x="1618.7314" y="-291.5" font-family="Helvetica,sans-Serif" font-size="10.00" fill="#000000">nearlyIncompressibleHyperelasticity.hpp</text>
</a>
</g>
</g>
<!-- Node3&#45;&gt;Node40 -->
<g id="edge37" class="edge">
<title>Node3&#45;&gt;Node40</title>
<path fill="none" stroke="#191970" d="M1559.9794,-340.2808C1571.7173,-331.1344 1586.9664,-319.252 1598.9872,-309.8851"/>
<polygon fill="#191970" stroke="#191970" points="1601.3367,-312.4915 1607.0734,-303.5842 1597.0341,-306.9699 1601.3367,-312.4915"/>
</g>
<!-- Node5 -->
<g id="node6" class="node">
<title>Node5</title>
<g id="a_node6"><a xlink:href="../../d0/d02/meshpp_8hpp.html" target="_top" xlink:title="meshpp.hpp">
<polygon fill="#ffffff" stroke="#ff0000" points="1385.2119,-55.5 1385.2119,-73.5 1456.251,-73.5 1456.251,-55.5 1385.2119,-55.5"/>
<text text-anchor="middle" x="1420.7314" y="-61.5" font-family="Helvetica,sans-Serif" font-size="10.00" fill="#000000">meshpp.hpp</text>
</a>
</g>
</g>
<!-- Node4&#45;&gt;Node5 -->
<g id="edge5" class="edge">
<title>Node4&#45;&gt;Node5</title>
<path fill="none" stroke="#191970" d="M1369.8044,-110.4179C1378.757,-102.3458 1392.0552,-90.3556 1402.8178,-80.6517"/>
<polygon fill="#191970" stroke="#191970" points="1405.3565,-83.0753 1410.4397,-73.7795 1400.669,-77.8764 1405.3565,-83.0753"/>
</g>
<!-- Node6 -->
<g id="node7" class="node">
<title>Node6</title>
<polygon fill="#ffffff" stroke="#bfbfbf" points="0,-.5 0,-18.5 45.4629,-18.5 45.4629,-.5 0,-.5"/>
<text text-anchor="middle" x="22.7314" y="-6.5" font-family="Helvetica,sans-Serif" font-size="10.00" fill="#000000">stdio.h</text>
</g>
<!-- Node5&#45;&gt;Node6 -->
<g id="edge6" class="edge">
<title>Node5&#45;&gt;Node6</title>
<path fill="none" stroke="#191970" d="M1385.1623,-63.8579C1187.7603,-60.2234 229.7817,-41.637 55.5398,-18.5212"/>
<polygon fill="#191970" stroke="#191970" points="56.0435,-15.0577 45.6403,-17.0634 55.0236,-21.983 56.0435,-15.0577"/>
</g>
<!-- Node7 -->
<g id="node8" class="node">
<title>Node7</title>
<polygon fill="#ffffff" stroke="#bfbfbf" points="63.5591,-.5 63.5591,-18.5 117.9038,-18.5 117.9038,-.5 63.5591,-.5"/>
<text text-anchor="middle" x="90.7314" y="-6.5" font-family="Helvetica,sans-Serif" font-size="10.00" fill="#000000">iostream</text>
</g>
<!-- Node5&#45;&gt;Node7 -->
<g id="edge7" class="edge">
<title>Node5&#45;&gt;Node7</title>
<path fill="none" stroke="#191970" d="M1385.029,-64.2859C1205.6638,-63.0539 401.1331,-55.628 128.3341,-18.6639"/>
<polygon fill="#191970" stroke="#191970" points="128.4666,-15.1482 118.077,-17.2232 127.4929,-22.0802 128.4666,-15.1482"/>
</g>
<!-- Node8 -->
<g id="node9" class="node">
<title>Node8</title>
<polygon fill="#ffffff" stroke="#bfbfbf" points="136.3398,-.5 136.3398,-18.5 185.123,-18.5 185.123,-.5 136.3398,-.5"/>
<text text-anchor="middle" x="160.7314" y="-6.5" font-family="Helvetica,sans-Serif" font-size="10.00" fill="#000000">istream</text>
</g>
<!-- Node5&#45;&gt;Node8 -->
<g id="edge8" class="edge">
<title>Node5&#45;&gt;Node8</title>
<path fill="none" stroke="#191970" d="M1385.103,-64.3463C1211.4978,-63.422 452.4949,-57.3115 195.4807,-18.8732"/>
<polygon fill="#191970" stroke="#191970" points="195.8699,-15.3917 185.4512,-17.3152 194.7954,-22.3088 195.8699,-15.3917"/>
</g>
<!-- Node9 -->
<g id="node10" class="node">
<title>Node9</title>
<polygon fill="#ffffff" stroke="#bfbfbf" points="203.0615,-.5 203.0615,-18.5 252.4014,-18.5 252.4014,-.5 203.0615,-.5"/>
<text text-anchor="middle" x="227.7314" y="-6.5" font-family="Helvetica,sans-Serif" font-size="10.00" fill="#000000">fstream</text>
</g>
<!-- Node5&#45;&gt;Node9 -->
<g id="edge9" class="edge">
<title>Node5&#45;&gt;Node9</title>
<path fill="none" stroke="#191970" d="M1385.0947,-64.2579C1217.4648,-62.9449 505.7603,-55.3864 262.6355,-18.8996"/>
<polygon fill="#191970" stroke="#191970" points="262.8724,-15.3942 252.4521,-17.3094 261.7923,-22.3104 262.8724,-15.3942"/>
</g>
<!-- Node10 -->
<g id="node11" class="node">
<title>Node10</title>
<polygon fill="#ffffff" stroke="#bfbfbf" points="270.1157,-.5 270.1157,-18.5 313.3472,-18.5 313.3472,-.5 270.1157,-.5"/>
<text text-anchor="middle" x="291.7314" y="-6.5" font-family="Helvetica,sans-Serif" font-size="10.00" fill="#000000">vector</text>
</g>
<!-- Node5&#45;&gt;Node10 -->
<g id="edge10" class="edge">
<title>Node5&#45;&gt;Node10</title>
<path fill="none" stroke="#191970" d="M1385.0486,-64.2926C1222.8088,-63.158 553.1077,-56.3602 323.4659,-18.8298"/>
<polygon fill="#191970" stroke="#191970" points="323.9648,-15.3645 313.5191,-17.1356 322.7893,-22.2651 323.9648,-15.3645"/>
</g>
<!-- Node11 -->
<g id="node12" class="node">
<title>Node11</title>
<polygon fill="#ffffff" stroke="#bfbfbf" points="331.2217,-.5 331.2217,-18.5 382.2412,-18.5 382.2412,-.5 331.2217,-.5"/>
<text text-anchor="middle" x="356.7314" y="-6.5" font-family="Helvetica,sans-Serif" font-size="10.00" fill="#000000">iomanip</text>
</g>
<!-- Node5&#45;&gt;Node11 -->
<g id="edge11" class="edge">
<title>Node5&#45;&gt;Node11</title>
<path fill="none" stroke="#191970" d="M1385.0013,-63.9783C1229.3628,-61.5461 609.0978,-50.1553 392.5888,-18.7139"/>
<polygon fill="#191970" stroke="#191970" points="392.9984,-15.2362 382.5875,-17.2015 391.9517,-22.1575 392.9984,-15.2362"/>
</g>
<!-- Node12 -->
<g id="node13" class="node">
<title>Node12</title>
<polygon fill="#ffffff" stroke="#bfbfbf" points="400.271,-.5 400.271,-18.5 505.1919,-18.5 505.1919,-.5 400.271,-.5"/>
<text text-anchor="middle" x="452.7314" y="-6.5" font-family="Helvetica,sans-Serif" font-size="10.00" fill="#000000">Epetra_MpiComm.h</text>
</g>
<!-- Node5&#45;&gt;Node12 -->
<g id="edge12" class="edge">
<title>Node5&#45;&gt;Node12</title>
<path fill="none" stroke="#191970" d="M1385.1899,-64.0495C1264.5824,-62.2397 859.732,-53.8665 515.4273,-19.0738"/>
<polygon fill="#191970" stroke="#191970" points="515.5624,-15.5695 505.2588,-18.0367 514.852,-22.5334 515.5624,-15.5695"/>
</g>
<!-- Node13 -->
<g id="node14" class="node">
<title>Node13</title>
<polygon fill="#ffffff" stroke="#bfbfbf" points="522.9878,-.5 522.9878,-18.5 638.4751,-18.5 638.4751,-.5 522.9878,-.5"/>
<text text-anchor="middle" x="580.7314" y="-6.5" font-family="Helvetica,sans-Serif" font-size="10.00" fill="#000000">Epetra_FECrsGraph.h</text>
</g>
<!-- Node5&#45;&gt;Node13 -->
<g id="edge13" class="edge">
<title>Node5&#45;&gt;Node13</title>
<path fill="none" stroke="#191970" d="M1385.2072,-63.4468C1276.6164,-60.0075 939.3428,-47.6955 649.1051,-19.0566"/>
<polygon fill="#191970" stroke="#191970" points="649.0983,-15.5387 638.8008,-18.0309 648.4049,-22.5043 649.0983,-15.5387"/>
</g>
<!-- Node14 -->
<g id="node15" class="node">
<title>Node14</title>
<polygon fill="#ffffff" stroke="#bfbfbf" points="656.2734,-.5 656.2734,-18.5 771.1895,-18.5 771.1895,-.5 656.2734,-.5"/>
<text text-anchor="middle" x="713.7314" y="-6.5" font-family="Helvetica,sans-Serif" font-size="10.00" fill="#000000">Epetra_FECrsMatrix.h</text>
</g>
<!-- Node5&#45;&gt;Node14 -->
<g id="edge14" class="edge">
<title>Node5&#45;&gt;Node14</title>
<path fill="none" stroke="#191970" d="M1384.8605,-62.8626C1288.7842,-58.2835 1017.4597,-44.0825 781.4413,-19.1171"/>
<polygon fill="#191970" stroke="#191970" points="781.6084,-15.6152 771.2936,-18.0347 780.8659,-22.5757 781.6084,-15.6152"/>
</g>
<!-- Node15 -->
<g id="node16" class="node">
<title>Node15</title>
<polygon fill="#ffffff" stroke="#bfbfbf" points="788.7563,-.5 788.7563,-18.5 888.7065,-18.5 888.7065,-.5 788.7563,-.5"/>
<text text-anchor="middle" x="838.7314" y="-6.5" font-family="Helvetica,sans-Serif" font-size="10.00" fill="#000000">Epetra_FEVector.h</text>
</g>
<!-- Node5&#45;&gt;Node15 -->
<g id="edge15" class="edge">
<title>Node5&#45;&gt;Node15</title>
<path fill="none" stroke="#191970" d="M1385.1256,-62.3009C1301.931,-56.9703 1088.1343,-42.1599 899.0339,-19.0811"/>
<polygon fill="#191970" stroke="#191970" points="899.2608,-15.5827 888.908,-17.8343 898.4053,-22.5302 899.2608,-15.5827"/>
</g>
<!-- Node16 -->
<g id="node17" class="node">
<title>Node16</title>
<polygon fill="#ffffff" stroke="#bfbfbf" points="907.1455,-.5 907.1455,-18.5 994.3174,-18.5 994.3174,-.5 907.1455,-.5"/>
<text text-anchor="middle" x="950.7314" y="-6.5" font-family="Helvetica,sans-Serif" font-size="10.00" fill="#000000">Epetra_Vector.h</text>
</g>
<!-- Node5&#45;&gt;Node16 -->
<g id="edge16" class="edge">
<title>Node5&#45;&gt;Node16</title>
<path fill="none" stroke="#191970" d="M1385.2051,-61.4533C1314.7182,-55.2296 1151.9978,-39.9732 1004.507,-19.0195"/>
<polygon fill="#191970" stroke="#191970" points="1004.7611,-15.5203 994.3657,-17.5662 1003.7681,-22.4495 1004.7611,-15.5203"/>
</g>
<!-- Node17 -->
<g id="node18" class="node">
<title>Node17</title>
<polygon fill="#ffffff" stroke="#bfbfbf" points="1012.3228,-.5 1012.3228,-18.5 1091.1401,-18.5 1091.1401,-.5 1012.3228,-.5"/>
<text text-anchor="middle" x="1051.7314" y="-6.5" font-family="Helvetica,sans-Serif" font-size="10.00" fill="#000000">Epetra_Map.h</text>
</g>
<!-- Node5&#45;&gt;Node17 -->
<g id="edge17" class="edge">
<title>Node5&#45;&gt;Node17</title>
<path fill="none" stroke="#191970" d="M1385.007,-60.0835C1327.4292,-52.8248 1210.3182,-37.4818 1101.425,-19.2183"/>
<polygon fill="#191970" stroke="#191970" points="1101.696,-15.7145 1091.2526,-17.4994 1100.5297,-22.6167 1101.696,-15.7145"/>
</g>
<!-- Node18 -->
<g id="node19" class="node">
<title>Node18</title>
<polygon fill="#ffffff" stroke="#bfbfbf" points="1109.2021,-.5 1109.2021,-18.5 1250.2607,-18.5 1250.2607,-.5 1109.2021,-.5"/>
<text text-anchor="middle" x="1179.7314" y="-6.5" font-family="Helvetica,sans-Serif" font-size="10.00" fill="#000000">Epetra_SerialDenseMatrix.h</text>
</g>
<!-- Node5&#45;&gt;Node18 -->
<g id="edge18" class="edge">
<title>Node5&#45;&gt;Node18</title>
<path fill="none" stroke="#191970" d="M1385.1711,-56.3846C1343.9407,-46.9751 1275.7164,-31.4053 1229.2981,-20.8119"/>
<polygon fill="#191970" stroke="#191970" points="1229.9798,-17.3776 1219.4517,-18.5648 1228.4223,-24.2021 1229.9798,-17.3776"/>
</g>
<!-- Node19 -->
<g id="node20" class="node">
<title>Node19</title>
<polygon fill="#ffffff" stroke="#bfbfbf" points="1267.9092,-.5 1267.9092,-18.5 1409.5537,-18.5 1409.5537,-.5 1267.9092,-.5"/>
<text text-anchor="middle" x="1338.7314" y="-6.5" font-family="Helvetica,sans-Serif" font-size="10.00" fill="#000000">Epetra_SerialDenseVector.h</text>
</g>
<!-- Node5&#45;&gt;Node19 -->
<g id="edge19" class="edge">
<title>Node5&#45;&gt;Node19</title>
<path fill="none" stroke="#191970" d="M1407.1908,-55.4179C1394.6089,-46.9788 1375.6418,-34.257 1360.8604,-24.3426"/>
<polygon fill="#191970" stroke="#191970" points="1362.5467,-21.2593 1352.2922,-18.5956 1358.6475,-27.0727 1362.5467,-21.2593"/>
</g>
<!-- Node20 -->
<g id="node21" class="node">
<title>Node20</title>
<polygon fill="#ffffff" stroke="#bfbfbf" points="1427.3501,-.5 1427.3501,-18.5 1580.1128,-18.5 1580.1128,-.5 1427.3501,-.5"/>
<text text-anchor="middle" x="1503.7314" y="-6.5" font-family="Helvetica,sans-Serif" font-size="10.00" fill="#000000">Epetra_IntSerialDenseVector.h</text>
</g>
<!-- Node5&#45;&gt;Node20 -->
<g id="edge20" class="edge">
<title>Node5&#45;&gt;Node20</title>
<path fill="none" stroke="#191970" d="M1434.4372,-55.4179C1447.1726,-46.9788 1466.3709,-34.257 1481.3327,-24.3426"/>
<polygon fill="#191970" stroke="#191970" points="1483.6027,-27.037 1490.0053,-18.5956 1479.736,-21.2019 1483.6027,-27.037"/>
</g>
<!-- Node21 -->
<g id="node22" class="node">
<title>Node21</title>
<polygon fill="#ffffff" stroke="#bfbfbf" points="1597.8794,-.5 1597.8794,-18.5 1685.5835,-18.5 1685.5835,-.5 1597.8794,-.5"/>
<text text-anchor="middle" x="1641.7314" y="-6.5" font-family="Helvetica,sans-Serif" font-size="10.00" fill="#000000">Epetra_Import.h</text>
</g>
<!-- Node5&#45;&gt;Node21 -->
<g id="edge21" class="edge">
<title>Node5&#45;&gt;Node21</title>
<path fill="none" stroke="#191970" d="M1456.7308,-55.5409C1494.5837,-46.1205 1554.2692,-31.2666 1595.5632,-20.9898"/>
<polygon fill="#191970" stroke="#191970" points="1596.5212,-24.3582 1605.38,-18.5467 1594.8307,-17.5654 1596.5212,-24.3582"/>
</g>
<!-- Node22 -->
<g id="node23" class="node">
<title>Node22</title>
<polygon fill="#ffffff" stroke="#bfbfbf" points="1703.5986,-.5 1703.5986,-18.5 1791.8643,-18.5 1791.8643,-.5 1703.5986,-.5"/>
<text text-anchor="middle" x="1747.7314" y="-6.5" font-family="Helvetica,sans-Serif" font-size="10.00" fill="#000000">Epetra_Export.h</text>
</g>
<!-- Node5&#45;&gt;Node22 -->
<g id="edge22" class="edge">
<title>Node5&#45;&gt;Node22</title>
<path fill="none" stroke="#191970" d="M1456.6613,-58.684C1507.2031,-50.4699 1602.4373,-34.8721 1693.5514,-19.1878"/>
<polygon fill="#191970" stroke="#191970" points="1694.2329,-22.622 1703.4925,-17.4733 1693.0431,-15.7239 1694.2329,-22.622"/>
</g>
<!-- Node23 -->
<g id="node24" class="node">
<title>Node23</title>
<polygon fill="#ffffff" stroke="#bfbfbf" points="1810.1216,-.5 1810.1216,-18.5 1891.3413,-18.5 1891.3413,-.5 1810.1216,-.5"/>
<text text-anchor="middle" x="1850.7314" y="-6.5" font-family="Helvetica,sans-Serif" font-size="10.00" fill="#000000">Epetra_Time.h</text>
</g>
<!-- Node5&#45;&gt;Node23 -->
<g id="edge23" class="edge">
<title>Node5&#45;&gt;Node23</title>
<path fill="none" stroke="#191970" d="M1456.4679,-61.0471C1522.298,-54.5079 1667.3499,-39.2692 1800.1659,-18.9907"/>
<polygon fill="#191970" stroke="#191970" points="1800.7619,-22.4403 1810.1126,-17.4589 1799.6964,-15.5218 1800.7619,-22.4403"/>
</g>
<!-- Node24 -->
<g id="node25" class="node">
<title>Node24</title>
<polygon fill="#ffffff" stroke="#bfbfbf" points="1909.0273,-.5 1909.0273,-18.5 2058.4355,-18.5 2058.4355,-.5 1909.0273,-.5"/>
<text text-anchor="middle" x="1983.7314" y="-6.5" font-family="Helvetica,sans-Serif" font-size="10.00" fill="#000000">ml_MultiLevelPreconditioner.h</text>
</g>
<!-- Node5&#45;&gt;Node24 -->
<g id="edge24" class="edge">
<title>Node5&#45;&gt;Node24</title>
<path fill="none" stroke="#191970" d="M1456.2828,-61.3684C1534.3966,-54.4365 1727.117,-37.0542 1898.6714,-19.2015"/>
<polygon fill="#191970" stroke="#191970" points="1899.0548,-22.6806 1908.6374,-18.1614 1898.3281,-15.7184 1899.0548,-22.6806"/>
</g>
<!-- Node25 -->
<g id="node26" class="node">
<title>Node25</title>
<polygon fill="#ffffff" stroke="#bfbfbf" points="2076.6553,-.5 2076.6553,-18.5 2168.8076,-18.5 2168.8076,-.5 2076.6553,-.5"/>
<text text-anchor="middle" x="2122.7314" y="-6.5" font-family="Helvetica,sans-Serif" font-size="10.00" fill="#000000">ml_epetra_utils.h</text>
</g>
<!-- Node5&#45;&gt;Node25 -->
<g id="edge25" class="edge">
<title>Node5&#45;&gt;Node25</title>
<path fill="none" stroke="#191970" d="M1456.2693,-63.2603C1552.7097,-59.6283 1827.5643,-47.5 2066.3033,-19.0571"/>
<polygon fill="#191970" stroke="#191970" points="2067.0578,-22.4916 2076.5677,-17.8213 2066.2211,-15.5418 2067.0578,-22.4916"/>
</g>
<!-- Node26 -->
<g id="node27" class="node">
<title>Node26</title>
<polygon fill="#ffffff" stroke="#bfbfbf" points="2186.6602,-.5 2186.6602,-18.5 2258.8027,-18.5 2258.8027,-.5 2186.6602,-.5"/>
<text text-anchor="middle" x="2222.7314" y="-6.5" font-family="Helvetica,sans-Serif" font-size="10.00" fill="#000000">ml_include.h</text>
</g>
<!-- Node5&#45;&gt;Node26 -->
<g id="edge26" class="edge">
<title>Node5&#45;&gt;Node26</title>
<path fill="none" stroke="#191970" d="M1456.4171,-63.0578C1583.7678,-57.8039 2016.3651,-39.011 2176.3264,-18.9605"/>
<polygon fill="#191970" stroke="#191970" points="2176.9992,-22.4025 2186.4624,-17.6381 2176.0936,-15.4613 2176.9992,-22.4025"/>
</g>
<!-- Node27 -->
<g id="node28" class="node">
<title>Node27</title>
<polygon fill="#ffffff" stroke="#bfbfbf" points="2277.1528,-.5 2277.1528,-18.5 2414.3101,-18.5 2414.3101,-.5 2277.1528,-.5"/>
<text text-anchor="middle" x="2345.7314" y="-6.5" font-family="Helvetica,sans-Serif" font-size="10.00" fill="#000000">EpetraExt_RowMatrixOut.h</text>
</g>
<!-- Node5&#45;&gt;Node27 -->
<g id="edge27" class="edge">
<title>Node5&#45;&gt;Node27</title>
<path fill="none" stroke="#191970" d="M1456.2956,-63.4498C1571.5935,-59.8634 1945.6435,-46.803 2266.4237,-19.0539"/>
<polygon fill="#191970" stroke="#191970" points="2267.1961,-22.4999 2276.8544,-18.1447 2266.5882,-15.5263 2267.1961,-22.4999"/>
</g>
<!-- Node28 -->
<g id="node29" class="node">
<title>Node28</title>
<polygon fill="#ffffff" stroke="#bfbfbf" points="2432.0322,-.5 2432.0322,-18.5 2571.4307,-18.5 2571.4307,-.5 2432.0322,-.5"/>
<text text-anchor="middle" x="2501.7314" y="-6.5" font-family="Helvetica,sans-Serif" font-size="10.00" fill="#000000">EpetraExt_MultiVectorOut.h</text>
</g>
<!-- Node5&#45;&gt;Node28 -->
<g id="edge28" class="edge">
<title>Node5&#45;&gt;Node28</title>
<path fill="none" stroke="#191970" d="M1456.2567,-63.2511C1608.8332,-57.8323 2210.0191,-35.9053 2421.923,-19.0791"/>
<polygon fill="#191970" stroke="#191970" points="2422.3346,-22.5572 2432.0173,-18.2566 2421.766,-15.5804 2422.3346,-22.5572"/>
</g>
<!-- Node29 -->
<g id="node30" class="node">
<title>Node29</title>
<polygon fill="#ffffff" stroke="#bfbfbf" points="2589.478,-.5 2589.478,-18.5 2699.9849,-18.5 2699.9849,-.5 2589.478,-.5"/>
<text text-anchor="middle" x="2644.7314" y="-6.5" font-family="Helvetica,sans-Serif" font-size="10.00" fill="#000000">EpetraExt_VectorIn.h</text>
</g>
<!-- Node5&#45;&gt;Node29 -->
<g id="edge29" class="edge">
<title>Node5&#45;&gt;Node29</title>
<path fill="none" stroke="#191970" d="M1456.3383,-63.2121C1638.3876,-56.614 2460.881,-26.6394 2579.0264,-18.8832"/>
<polygon fill="#191970" stroke="#191970" points="2579.566,-22.3524 2589.273,-18.1069 2579.0372,-15.3724 2579.566,-22.3524"/>
</g>
<!-- Node30 -->
<g id="node31" class="node">
<title>Node30</title>
<polygon fill="#ffffff" stroke="#bfbfbf" points="2717.9214,-.5 2717.9214,-18.5 2849.5415,-18.5 2849.5415,-.5 2717.9214,-.5"/>
<text text-anchor="middle" x="2783.7314" y="-6.5" font-family="Helvetica,sans-Serif" font-size="10.00" fill="#000000">EpetraExt_MultiVectorIn.h</text>
</g>
<!-- Node5&#45;&gt;Node30 -->
<g id="edge30" class="edge">
<title>Node5&#45;&gt;Node30</title>
<path fill="none" stroke="#191970" d="M1456.4418,-63.2191C1507.4971,-61.389 1604.2984,-57.9239 1686.7314,-55 2137.623,-39.007 2254.004,-55.3518 2707.8161,-18.9931"/>
<polygon fill="#191970" stroke="#191970" points="2708.2297,-22.4712 2717.9165,-18.1797 2707.6677,-15.4938 2708.2297,-22.4712"/>
</g>
<!-- Node31 -->
<g id="node32" class="node">
<title>Node31</title>
<polygon fill="#ffffff" stroke="#bfbfbf" points="2945.6841,-.5 2945.6841,-18.5 3043.7788,-18.5 3043.7788,-.5 2945.6841,-.5"/>
<text text-anchor="middle" x="2994.7314" y="-6.5" font-family="Helvetica,sans-Serif" font-size="10.00" fill="#000000">Teuchos_RCP.hpp</text>
</g>
<!-- Node5&#45;&gt;Node31 -->
<g id="edge31" class="edge">
<title>Node5&#45;&gt;Node31</title>
<path fill="none" stroke="#191970" d="M1456.4393,-63.1463C1507.4917,-61.2288 1604.2895,-57.6593 1686.7314,-55 2238.8379,-37.1908 2381.7422,-71.6119 2935.1861,-19.014"/>
<polygon fill="#191970" stroke="#191970" points="2935.8072,-22.4707 2945.4288,-18.0351 2935.1412,-15.5025 2935.8072,-22.4707"/>
</g>
<!-- Node32 -->
<g id="node33" class="node">
<title>Node32</title>
<polygon fill="#ffffff" stroke="#bfbfbf" points="2867.5,-.5 2867.5,-18.5 2927.9629,-18.5 2927.9629,-.5 2867.5,-.5"/>
<text text-anchor="middle" x="2897.7314" y="-6.5" font-family="Helvetica,sans-Serif" font-size="10.00" fill="#000000">Amesos.h</text>
</g>
<!-- Node5&#45;&gt;Node32 -->
<g id="edge32" class="edge">
<title>Node5&#45;&gt;Node32</title>
<path fill="none" stroke="#191970" d="M1456.44,-63.1681C1507.4933,-61.2766 1604.2921,-57.7382 1686.7314,-55 1943.9761,-46.4555 2584.6358,-53.8389 2857.2529,-18.8916"/>
<polygon fill="#191970" stroke="#191970" points="2857.7354,-22.3583 2867.1898,-17.5765 2856.817,-15.4188 2857.7354,-22.3583"/>
</g>
<!-- Node38 -->
<g id="node35" class="node">
<title>Node38</title>
<g id="a_node35"><a xlink:href="../../d3/dd8/linear_finite_element_problem_8hpp.html" target="_top" xlink:title="linearFiniteElementProblem.hpp">
<polygon fill="#ffffff" stroke="#000000" points="1387.584,-230.5 1387.584,-248.5 1545.8789,-248.5 1545.8789,-230.5 1387.584,-230.5"/>
<text text-anchor="middle" x="1466.7314" y="-236.5" font-family="Helvetica,sans-Serif" font-size="10.00" fill="#000000">linearFiniteElementProblem.hpp</text>
</a>
</g>
</g>
<!-- Node37&#45;&gt;Node38 -->
<g id="edge34" class="edge">
<title>Node37&#45;&gt;Node38</title>
<path fill="none" stroke="#191970" d="M1465.0617,-285.4179C1465.3236,-278.2164 1465.6989,-267.8962 1466.0273,-258.8632"/>
<polygon fill="#191970" stroke="#191970" points="1469.5282,-258.9001 1466.394,-248.7795 1462.5328,-258.6456 1469.5282,-258.9001"/>
</g>
<!-- Node39 -->
<g id="node36" class="node">
<title>Node39</title>
<g id="a_node36"><a xlink:href="../../dd/d80/base_class_f_e_m_8hpp.html" target="_top" xlink:title="baseClassFEM.hpp">
<polygon fill="#ffffff" stroke="#000000" points="1430.1011,-110.5 1430.1011,-128.5 1533.3618,-128.5 1533.3618,-110.5 1430.1011,-110.5"/>
<text text-anchor="middle" x="1481.7314" y="-116.5" font-family="Helvetica,sans-Serif" font-size="10.00" fill="#000000">baseClassFEM.hpp</text>
</a>
</g>
</g>
<!-- Node38&#45;&gt;Node39 -->
<g id="edge35" class="edge">
<title>Node38&#45;&gt;Node39</title>
<path fill="none" stroke="#191970" d="M1467.8589,-230.4805C1470.2804,-211.1085 1476.0246,-165.155 1479.3117,-138.8576"/>
<polygon fill="#191970" stroke="#191970" points="1482.8235,-138.9811 1480.5909,-128.6242 1475.8775,-138.1128 1482.8235,-138.9811"/>
</g>
<!-- Node39&#45;&gt;Node5 -->
<g id="edge36" class="edge">
<title>Node39&#45;&gt;Node5</title>
<path fill="none" stroke="#191970" d="M1471.6585,-110.4179C1462.7059,-102.3458 1449.4077,-90.3556 1438.6451,-80.6517"/>
<polygon fill="#191970" stroke="#191970" points="1440.7939,-77.8764 1431.0232,-73.7795 1436.1064,-83.0753 1440.7939,-77.8764"/>
</g>
<!-- Node41 -->
<g id="node38" class="node">
<title>Node41</title>
<g id="a_node38"><a xlink:href="../../d2/d34/hyperelasticity_8hpp.html" target="_top" xlink:title="hyperelasticity.hpp">
<polygon fill="#ffffff" stroke="#000000" points="1567.689,-230.5 1567.689,-248.5 1665.7739,-248.5 1665.7739,-230.5 1567.689,-230.5"/>
<text text-anchor="middle" x="1616.7314" y="-236.5" font-family="Helvetica,sans-Serif" font-size="10.00" fill="#000000">hyperelasticity.hpp</text>
</a>
</g>
</g>
<!-- Node40&#45;&gt;Node41 -->
<g id="edge38" class="edge">
<title>Node40&#45;&gt;Node41</title>
<path fill="none" stroke="#191970" d="M1618.4012,-285.4179C1618.1393,-278.2164 1617.764,-267.8962 1617.4356,-258.8632"/>
<polygon fill="#191970" stroke="#191970" points="1620.9301,-258.6456 1617.0689,-248.7795 1613.9347,-258.9001 1620.9301,-258.6456"/>
</g>
<!-- Node42 -->
<g id="node39" class="node">
<title>Node42</title>
<g id="a_node39"><a xlink:href="../../da/da3/non_linear_finite_element_problem_8hpp.html" target="_top" xlink:title="nonLinearFiniteElementProblem.hpp">
<polygon fill="#ffffff" stroke="#000000" points="1494.5718,-170.5 1494.5718,-188.5 1672.8911,-188.5 1672.8911,-170.5 1494.5718,-170.5"/>
<text text-anchor="middle" x="1583.7314" y="-176.5" font-family="Helvetica,sans-Serif" font-size="10.00" fill="#000000">nonLinearFiniteElementProblem.hpp</text>
</a>
</g>
</g>
<!-- Node41&#45;&gt;Node42 -->
<g id="edge39" class="edge">
<title>Node41&#45;&gt;Node42</title>
<path fill="none" stroke="#191970" d="M1611.7195,-230.3873C1606.9707,-221.7531 1599.7015,-208.5365 1593.7616,-197.7366"/>
<polygon fill="#191970" stroke="#191970" points="1596.6766,-195.7739 1588.7906,-188.6985 1590.5431,-199.1474 1596.6766,-195.7739"/>
</g>
<!-- Node42&#45;&gt;Node5 -->
<g id="edge40" class="edge">
<title>Node42&#45;&gt;Node5</title>
<path fill="none" stroke="#191970" d="M1580.515,-170.0281C1575.0262,-155.2157 1562.4898,-126.5544 1542.7314,-110 1520.8773,-91.6896 1490.9448,-80.3773 1466.1983,-73.6119"/>
<polygon fill="#191970" stroke="#191970" points="1466.8562,-70.1673 1456.2997,-71.0681 1465.1138,-76.947 1466.8562,-70.1673"/>
</g>
<!-- Node42&#45;&gt;Node39 -->
<g id="edge41" class="edge">
<title>Node42&#45;&gt;Node39</title>
<path fill="none" stroke="#191970" d="M1568.2398,-170.3873C1551.6686,-160.6395 1525.1682,-145.051 1505.8603,-133.6934"/>
<polygon fill="#191970" stroke="#191970" points="1507.4286,-130.5553 1497.0346,-128.5019 1503.8794,-136.5889 1507.4286,-130.5553"/>
</g>
<!-- Node43&#45;&gt;Node31 -->
<g id="edge44" class="edge">
<title>Node43&#45;&gt;Node31</title>
<path fill="none" stroke="#191970" d="M2109.6441,-237.9359C1996.981,-234.1192 1745.4337,-222.4707 1719.7314,-194 1711.0947,-184.4329 1711.1776,-174.6413 1719.7314,-165 1898.3829,36.3648 2649.1607,-55.0362 2935.4075,-19.0634"/>
<polygon fill="#191970" stroke="#191970" points="2935.9441,-22.5229 2945.3925,-17.7293 2935.0171,-15.5846 2935.9441,-22.5229"/>
</g>
<!-- Node43&#45;&gt;Node42 -->
<g id="edge43" class="edge">
<title>Node43&#45;&gt;Node42</title>
<path fill="none" stroke="#191970" d="M2109.639,-235.134C2021.1027,-227.8097 1839.7757,-212.0626 1686.7314,-194 1676.3347,-192.773 1665.3648,-191.3581 1654.6143,-189.9033"/>
<polygon fill="#191970" stroke="#191970" points="1654.7834,-186.3938 1644.4003,-188.5012 1653.8314,-193.3288 1654.7834,-186.3938"/>
</g>
<!-- Node44 -->
<g id="node41" class="node">
<title>Node44</title>
<polygon fill="#ffffff" stroke="#bfbfbf" points="1729.2217,-170.5 1729.2217,-188.5 1780.2412,-188.5 1780.2412,-170.5 1729.2217,-170.5"/>
<text text-anchor="middle" x="1754.7314" y="-176.5" font-family="Helvetica,sans-Serif" font-size="10.00" fill="#000000">Ifpack.h</text>
</g>
<!-- Node43&#45;&gt;Node44 -->
<g id="edge45" class="edge">
<title>Node43&#45;&gt;Node44</title>
<path fill="none" stroke="#191970" d="M2109.608,-237.5168C2036.0937,-233.788 1901.0735,-223.2515 1789.7314,-194 1787.7753,-193.4861 1785.7842,-192.8864 1783.7946,-192.2291"/>
<polygon fill="#191970" stroke="#191970" points="1784.6222,-188.8024 1774.0295,-188.5907 1782.1782,-195.3619 1784.6222,-188.8024"/>
</g>
<!-- Node45 -->
<g id="node42" class="node">
<title>Node45</title>
<polygon fill="#ffffff" stroke="#bfbfbf" points="1798.4805,-170.5 1798.4805,-188.5 1928.9824,-188.5 1928.9824,-170.5 1798.4805,-170.5"/>
<text text-anchor="middle" x="1863.7314" y="-176.5" font-family="Helvetica,sans-Serif" font-size="10.00" fill="#000000">Ifpack_AdditiveSchwarz.h</text>
</g>
<!-- Node43&#45;&gt;Node45 -->
<g id="edge46" class="edge">
<title>Node43&#45;&gt;Node45</title>
<path fill="none" stroke="#191970" d="M2118.4936,-230.4524C2065.0658,-219.7669 1976.2205,-201.9978 1918.8291,-190.5195"/>
<polygon fill="#191970" stroke="#191970" points="1919.3384,-187.0521 1908.8461,-188.5229 1917.9655,-193.9162 1919.3384,-187.0521"/>
</g>
<!-- Node46 -->
<g id="node43" class="node">
<title>Node46</title>
<polygon fill="#ffffff" stroke="#bfbfbf" points="1946.9756,-170.5 1946.9756,-188.5 2072.4873,-188.5 2072.4873,-170.5 1946.9756,-170.5"/>
<text text-anchor="middle" x="2009.7314" y="-176.5" font-family="Helvetica,sans-Serif" font-size="10.00" fill="#000000">BelosLinearProblem.hpp</text>
</g>
<!-- Node43&#45;&gt;Node46 -->
<g id="edge47" class="edge">
<title>Node43&#45;&gt;Node46</title>
<path fill="none" stroke="#191970" d="M2140.3422,-230.3873C2114.1856,-220.1964 2071.6441,-203.6218 2042.2558,-192.1718"/>
<polygon fill="#191970" stroke="#191970" points="2043.4247,-188.871 2032.8363,-188.5019 2040.8834,-195.3935 2043.4247,-188.871"/>
</g>
<!-- Node47 -->
<g id="node44" class="node">
<title>Node47</title>
<polygon fill="#ffffff" stroke="#bfbfbf" points="2090.7021,-170.5 2090.7021,-188.5 2236.7607,-188.5 2236.7607,-170.5 2090.7021,-170.5"/>
<text text-anchor="middle" x="2163.7314" y="-176.5" font-family="Helvetica,sans-Serif" font-size="10.00" fill="#000000">BelosBlockGmresSolMgr.hpp</text>
</g>
<!-- Node43&#45;&gt;Node47 -->
<g id="edge48" class="edge">
<title>Node43&#45;&gt;Node47</title>
<path fill="none" stroke="#191970" d="M2163.7314,-230.3873C2163.7314,-222.0174 2163.7314,-209.3414 2163.7314,-198.735"/>
<polygon fill="#191970" stroke="#191970" points="2167.2315,-198.6984 2163.7314,-188.6985 2160.2315,-198.6985 2167.2315,-198.6984"/>
</g>
<!-- Node48 -->
<g id="node45" class="node">
<title>Node48</title>
<polygon fill="#ffffff" stroke="#bfbfbf" points="2254.5225,-170.5 2254.5225,-188.5 2378.9404,-188.5 2378.9404,-170.5 2254.5225,-170.5"/>
<text text-anchor="middle" x="2316.7314" y="-176.5" font-family="Helvetica,sans-Serif" font-size="10.00" fill="#000000">BelosEpetraAdapter.hpp</text>
</g>
<!-- Node43&#45;&gt;Node48 -->
<g id="edge49" class="edge">
<title>Node43&#45;&gt;Node48</title>
<path fill="none" stroke="#191970" d="M2186.9689,-230.3873C2212.9555,-220.1964 2255.2208,-203.6218 2284.4183,-192.1718"/>
<polygon fill="#191970" stroke="#191970" points="2285.7448,-195.4112 2293.7767,-188.5019 2283.1891,-188.8944 2285.7448,-195.4112"/>
</g>
<!-- Node49 -->
<g id="node46" class="node">
<title>Node49</title>
<polygon fill="#ffffff" stroke="#bfbfbf" points="2397.019,-170.5 2397.019,-188.5 2518.4438,-188.5 2518.4438,-170.5 2397.019,-170.5"/>
<text text-anchor="middle" x="2457.7314" y="-176.5" font-family="Helvetica,sans-Serif" font-size="10.00" fill="#000000">BelosSolverFactory.hpp</text>
</g>
<!-- Node43&#45;&gt;Node49 -->
<g id="edge50" class="edge">
<title>Node43&#45;&gt;Node49</title>
<path fill="none" stroke="#191970" d="M2208.3668,-230.4861C2253.5831,-221.3426 2325.5337,-206.7588 2387.7314,-194 2393.0504,-192.9089 2398.5958,-191.7673 2404.1349,-190.6242"/>
<polygon fill="#191970" stroke="#191970" points="2404.9633,-194.027 2414.0482,-188.5758 2403.5467,-187.1719 2404.9633,-194.027"/>
</g>
<!-- Node50 -->
<g id="node47" class="node">
<title>Node50</title>
<polygon fill="#ffffff" stroke="#bfbfbf" points="2536.8501,-170.5 2536.8501,-188.5 2714.6128,-188.5 2714.6128,-170.5 2536.8501,-170.5"/>
<text text-anchor="middle" x="2625.7314" y="-176.5" font-family="Helvetica,sans-Serif" font-size="10.00" fill="#000000">Teuchos_StandardCatchMacros.hpp</text>
</g>
<!-- Node43&#45;&gt;Node50 -->
<g id="edge51" class="edge">
<title>Node43&#45;&gt;Node50</title>
<path fill="none" stroke="#191970" d="M2217.7438,-233.134C2288.8643,-224.6633 2417.7772,-209.0046 2527.7314,-194 2536.9643,-192.7401 2546.6786,-191.364 2556.2571,-189.9773"/>
<polygon fill="#191970" stroke="#191970" points="2556.7734,-193.4391 2566.1638,-188.5328 2555.7634,-186.5124 2556.7734,-193.4391"/>
</g>
<!-- Node51 -->
<g id="node48" class="node">
<title>Node51</title>
<polygon fill="#ffffff" stroke="#bfbfbf" points="2732.4731,-170.5 2732.4731,-188.5 2872.9897,-188.5 2872.9897,-170.5 2732.4731,-170.5"/>
<text text-anchor="middle" x="2802.7314" y="-176.5" font-family="Helvetica,sans-Serif" font-size="10.00" fill="#000000">Teuchos_ParameterList.hpp</text>
</g>
<!-- Node43&#45;&gt;Node51 -->
<g id="edge52" class="edge">
<title>Node43&#45;&gt;Node51</title>
<path fill="none" stroke="#191970" d="M2217.9827,-236.9071C2318.2098,-231.7141 2539.0286,-218.3914 2723.7314,-194 2731.5077,-192.9731 2739.6807,-191.6974 2747.7007,-190.3318"/>
<polygon fill="#191970" stroke="#191970" points="2748.4941,-193.7461 2757.7362,-188.566 2747.281,-186.852 2748.4941,-193.7461"/>
</g>
<!-- Node52 -->
<g id="node49" class="node">
<title>Node52</title>
<polygon fill="#ffffff" stroke="#bfbfbf" points="2890.9238,-165.5 2890.9238,-193.5 3032.5391,-193.5 3032.5391,-165.5 2890.9238,-165.5"/>
<text text-anchor="start" x="2898.9238" y="-181.5" font-family="Helvetica,sans-Serif" font-size="10.00" fill="#000000">Teuchos_XMLParameterList</text>
<text text-anchor="middle" x="2961.7314" y="-171.5" font-family="Helvetica,sans-Serif" font-size="10.00" fill="#000000">CoreHelpers.hpp</text>
</g>
<!-- Node43&#45;&gt;Node52 -->
<g id="edge53" class="edge">
<title>Node43&#45;&gt;Node52</title>
<path fill="none" stroke="#191970" d="M2217.9711,-238.2103C2336.4159,-234.9304 2627.2007,-224.3585 2880.5625,-194.0423"/>
<polygon fill="#191970" stroke="#191970" points="2881.1891,-197.4921 2890.6965,-192.8166 2880.3486,-190.5427 2881.1891,-197.4921"/>
</g>
<!-- Node53 -->
<g id="node50" class="node">
<title>Node53</title>
<polygon fill="#ffffff" stroke="#bfbfbf" points="3050.4829,-165.5 3050.4829,-193.5 3180.98,-193.5 3180.98,-165.5 3050.4829,-165.5"/>
<text text-anchor="start" x="3058.4829" y="-181.5" font-family="Helvetica,sans-Serif" font-size="10.00" fill="#000000">Stratimikos_DefaultLinear</text>
<text text-anchor="middle" x="3115.7314" y="-171.5" font-family="Helvetica,sans-Serif" font-size="10.00" fill="#000000">SolverBuilder.hpp</text>
</g>
<!-- Node43&#45;&gt;Node53 -->
<g id="edge54" class="edge">
<title>Node43&#45;&gt;Node53</title>
<path fill="none" stroke="#191970" d="M2217.8098,-237.7037C2380.086,-232.1576 2862.1281,-214.5051 3040.4073,-194.0107"/>
<polygon fill="#191970" stroke="#191970" points="3040.9268,-197.4737 3050.442,-192.814 3040.0978,-190.5229 3040.9268,-197.4737"/>
</g>
</g>
</svg>
        <g id="navigator" transform="translate(0 0)" fill="#404254">
                <rect fill="#f2f5e9" fill-opacity="0.5" stroke="#606060" stroke-width=".5" x="0" y="0" width="60" height="60"/>
                <use id="zoomplus" xlink:href="#zoomPlus" x="17" y="9" onmousedown="handleZoom(evt,'in')"/>
                <use id="zoomminus" xlink:href="#zoomMin" x="42" y="9" onmousedown="handleZoom(evt,'out')"/>
                <use id="reset" xlink:href="#resetDef" x="30" y="36" onmousedown="handleReset()"/>
                <g id="arrowUp" xlink:href="#dirArrow" transform="translate(30 24)" onmousedown="handlePan(0,-1)">
                  <use xlink:href="#rim" fill="#404040">
                        <set attributeName="fill" to="#808080" begin="arrowUp.mouseover" end="arrowUp.mouseout"/>
                  </use>
                  <path fill="none" stroke="white" stroke-width="1.5" d="M0,-3.0v7 M-2.5,-0.5L0,-3.0L2.5,-0.5"/>
                </g>
                <g id="arrowRight" xlink:href="#dirArrow" transform="rotate(90) translate(36 -43)" onmousedown="handlePan(1,0)">
                  <use xlink:href="#rim" fill="#404040">
                        <set attributeName="fill" to="#808080" begin="arrowRight.mouseover" end="arrowRight.mouseout"/>
                  </use>
                  <path fill="none" stroke="white" stroke-width="1.5" d="M0,-3.0v7 M-2.5,-0.5L0,-3.0L2.5,-0.5"/>
                </g>
                <g id="arrowDown" xlink:href="#dirArrow" transform="rotate(180) translate(-30 -48)" onmousedown="handlePan(0,1)">
                  <use xlink:href="#rim" fill="#404040">
                        <set attributeName="fill" to="#808080" begin="arrowDown.mouseover" end="arrowDown.mouseout"/>
                  </use>
                  <path fill="none" stroke="white" stroke-width="1.5" d="M0,-3.0v7 M-2.5,-0.5L0,-3.0L2.5,-0.5"/>
                </g>
                <g id="arrowLeft" xlink:href="#dirArrow" transform="rotate(270) translate(-36 17)" onmousedown="handlePan(-1,0)">
                  <use xlink:href="#rim" fill="#404040">
                        <set attributeName="fill" to="#808080" begin="arrowLeft.mouseover" end="arrowLeft.mouseout"/>
                  </use>
                  <path fill="none" stroke="white" stroke-width="1.5" d="M0,-3.0v7 M-2.5,-0.5L0,-3.0L2.5,-0.5"/>
                </g>
        </g>
        <svg viewBox="0 0 15 15" width="100%" height="30px" preserveAspectRatio="xMaxYMin meet">
         <g id="arrow_out" transform="scale(0.3 0.3)">
          <a xlink:href="arteries_2deterministic__dirichlet_2main_8cpp__incl_org.svg" target="_base">
           <rect id="button" ry="5" rx="5" y="6" x="6" height="38" width="38"
                fill="#f2f5e9" fill-opacity="0.5" stroke="#606060" stroke-width="1.0"/>
           <path id="arrow"
             d="M 11.500037,31.436501 C 11.940474,20.09759 22.043105,11.32322 32.158766,21.979434 L 37.068811,17.246167 C 37.068811,17.246167 37.088388,32 37.088388,32 L 22.160133,31.978069 C 22.160133,31.978069 26.997745,27.140456 26.997745,27.140456 C 18.528582,18.264221 13.291696,25.230495 11.500037,31.436501 z"
             style="fill:#404040;"/>
          </a>
         </g>
        </svg>
</svg>
