<?xml version="1.0" encoding="UTF-8" standalone="no"?>
<!DOCTYPE svg PUBLIC "-//W3C//DTD SVG 1.1//EN"
 "http://www.w3.org/Graphics/SVG/1.1/DTD/svg11.dtd">
<!-- Generated by graphviz version 2.40.1 (20161225.0304)
 -->
<!-- Title: src/linearFiniteElementProblem.hpp Pages: 1 -->
<svg width="1977pt" height="218pt"
 viewBox="0.00 0.00 1976.50 218.00" xmlns="http://www.w3.org/2000/svg" xmlns:xlink="http://www.w3.org/1999/xlink">
<g id="graph0" class="graph" transform="scale(1 1) rotate(0) translate(4 214)">
<title>src/linearFiniteElementProblem.hpp</title>
<polygon fill="#ffffff" stroke="transparent" points="-4,4 -4,-214 1972.5,-214 1972.5,4 -4,4"/>
<!-- Node34 -->
<g id="node1" class="node">
<title>Node34</title>
<polygon fill="#bfbfbf" stroke="#000000" points="627,-190.5 627,-209.5 798,-209.5 798,-190.5 627,-190.5"/>
<text text-anchor="middle" x="712.5" y="-197.5" font-family="Helvetica,sans-Serif" font-size="10.00" fill="#000000">src/linearFiniteElementProblem.hpp</text>
</g>
<!-- Node35 -->
<g id="node2" class="node">
<title>Node35</title>
<g id="a_node2"><a xlink:href="../../d5/dfe/linearized_elasticity_8hpp.html" target="_top" xlink:title="src/linearizedElasticity.hpp">
<polygon fill="#ffffff" stroke="#000000" points="354.5,-134.5 354.5,-153.5 488.5,-153.5 488.5,-134.5 354.5,-134.5"/>
<text text-anchor="middle" x="421.5" y="-141.5" font-family="Helvetica,sans-Serif" font-size="10.00" fill="#000000">src/linearizedElasticity.hpp</text>
</a>
</g>
</g>
<!-- Node34&#45;&gt;Node35 -->
<g id="edge1" class="edge">
<title>Node34&#45;&gt;Node35</title>
<path fill="none" stroke="#191970" d="M652.7465,-188.501C599.0879,-178.175 521.2397,-163.1939 470.9891,-153.5237"/>
<polygon fill="#191970" stroke="#191970" points="652.3247,-191.984 662.806,-190.4369 653.6476,-185.1101 652.3247,-191.984"/>
</g>
<!-- Node45 -->
<g id="node12" class="node">
<title>Node45</title>
<g id="a_node12"><a xlink:href="../../d5/d3f/laplacepp_8hpp.html" target="_top" xlink:title="src/laplacepp.hpp">
<polygon fill="#ffffff" stroke="#000000" points="1105,-134.5 1105,-153.5 1198,-153.5 1198,-134.5 1105,-134.5"/>
<text text-anchor="middle" x="1151.5" y="-141.5" font-family="Helvetica,sans-Serif" font-size="10.00" fill="#000000">src/laplacepp.hpp</text>
</a>
</g>
</g>
<!-- Node34&#45;&gt;Node45 -->
<g id="edge11" class="edge">
<title>Node34&#45;&gt;Node45</title>
<path fill="none" stroke="#191970" d="M797.5569,-189.1499C889.2307,-177.4558 1031.7914,-159.2704 1104.8591,-149.9496"/>
<polygon fill="#191970" stroke="#191970" points="796.9447,-185.6996 787.468,-190.4369 797.8305,-192.6433 796.9447,-185.6996"/>
</g>
<!-- Node36 -->
<g id="node3" class="node">
<title>Node36</title>
<g id="a_node3"><a xlink:href="../../de/d5d/linear_patch_test_8hpp.html" target="_top" xlink:title="cee530/linearpatchtest\l/linearPatchTest.hpp">
<polygon fill="#ffffff" stroke="#000000" points="0,-67.5 0,-97.5 115,-97.5 115,-67.5 0,-67.5"/>
<text text-anchor="start" x="8" y="-85.5" font-family="Helvetica,sans-Serif" font-size="10.00" fill="#000000">cee530/linearpatchtest</text>
<text text-anchor="middle" x="57.5" y="-74.5" font-family="Helvetica,sans-Serif" font-size="10.00" fill="#000000">/linearPatchTest.hpp</text>
</a>
</g>
</g>
<!-- Node35&#45;&gt;Node36 -->
<g id="edge2" class="edge">
<title>Node35&#45;&gt;Node36</title>
<path fill="none" stroke="#191970" d="M344.1664,-133.7391C283.844,-125.3313 198.0665,-112.4884 123.5,-98 120.727,-97.4612 117.8939,-96.8872 115.0363,-96.2893"/>
<polygon fill="#191970" stroke="#191970" points="343.9871,-137.2476 354.3729,-135.1533 344.9479,-130.3139 343.9871,-137.2476"/>
</g>
<!-- Node38 -->
<g id="node5" class="node">
<title>Node38</title>
<g id="a_node5"><a xlink:href="../../d4/d56/cee530_2manufactured_2manufactured_solution_8hpp.html" target="_top" xlink:title="cee530/manufactured\l/manufacturedSolution.hpp">
<polygon fill="#ffffff" stroke="#000000" points="133,-67.5 133,-97.5 266,-97.5 266,-67.5 133,-67.5"/>
<text text-anchor="start" x="141" y="-85.5" font-family="Helvetica,sans-Serif" font-size="10.00" fill="#000000">cee530/manufactured</text>
<text text-anchor="middle" x="199.5" y="-74.5" font-family="Helvetica,sans-Serif" font-size="10.00" fill="#000000">/manufacturedSolution.hpp</text>
</a>
</g>
</g>
<!-- Node35&#45;&gt;Node38 -->
<g id="edge4" class="edge">
<title>Node35&#45;&gt;Node38</title>
<path fill="none" stroke="#191970" d="M376.7482,-131.6025C341.2726,-121.7748 291.5599,-108.0031 253.8073,-97.5446"/>
<polygon fill="#191970" stroke="#191970" points="376.241,-135.0938 386.8125,-134.3906 378.1099,-128.3479 376.241,-135.0938"/>
</g>
<!-- Node40 -->
<g id="node7" class="node">
<title>Node40</title>
<g id="a_node7"><a xlink:href="../../d4/d57/cee_s_b_v_p_8hpp.html" target="_top" xlink:title="cee530/sbvp/ceeSBVP.hpp">
<polygon fill="#ffffff" stroke="#000000" points="284,-73 284,-92 421,-92 421,-73 284,-73"/>
<text text-anchor="middle" x="352.5" y="-80" font-family="Helvetica,sans-Serif" font-size="10.00" fill="#000000">cee530/sbvp/ceeSBVP.hpp</text>
</a>
</g>
</g>
<!-- Node35&#45;&gt;Node40 -->
<g id="edge6" class="edge">
<title>Node35&#45;&gt;Node40</title>
<path fill="none" stroke="#191970" d="M403.0419,-127.5482C390.3992,-116.2798 374.0594,-101.716 363.4333,-92.2449"/>
<polygon fill="#191970" stroke="#191970" points="400.9248,-130.3497 410.7188,-134.3906 405.5824,-125.1241 400.9248,-130.3497"/>
</g>
<!-- Node42 -->
<g id="node9" class="node">
<title>Node42</title>
<g id="a_node9"><a xlink:href="../../dc/d64/asme_s_b_v_p_8hpp.html" target="_top" xlink:title="src/asmeSBVP.hpp">
<polygon fill="#ffffff" stroke="#000000" points="439,-73 439,-92 542,-92 542,-73 439,-73"/>
<text text-anchor="middle" x="490.5" y="-80" font-family="Helvetica,sans-Serif" font-size="10.00" fill="#000000">src/asmeSBVP.hpp</text>
</a>
</g>
</g>
<!-- Node35&#45;&gt;Node42 -->
<g id="edge8" class="edge">
<title>Node35&#45;&gt;Node42</title>
<path fill="none" stroke="#191970" d="M439.9581,-127.5482C452.6008,-116.2798 468.9406,-101.716 479.5667,-92.2449"/>
<polygon fill="#191970" stroke="#191970" points="437.4176,-125.1241 432.2813,-134.3906 442.0752,-130.3497 437.4176,-125.1241"/>
</g>
<!-- Node44 -->
<g id="node11" class="node">
<title>Node44</title>
<g id="a_node11"><a xlink:href="../../df/d96/linearized_elasticity_8cpp.html" target="_top" xlink:title="src/linearizedElasticity.cpp">
<polygon fill="#ffffff" stroke="#000000" points="560.5,-73 560.5,-92 694.5,-92 694.5,-73 560.5,-73"/>
<text text-anchor="middle" x="627.5" y="-80" font-family="Helvetica,sans-Serif" font-size="10.00" fill="#000000">src/linearizedElasticity.cpp</text>
</a>
</g>
</g>
<!-- Node35&#45;&gt;Node44 -->
<g id="edge10" class="edge">
<title>Node35&#45;&gt;Node44</title>
<path fill="none" stroke="#191970" d="M463.4554,-131.4745C502.5598,-119.8001 560.03,-102.6427 595.5385,-92.0419"/>
<polygon fill="#191970" stroke="#191970" points="462.2683,-128.1761 453.6875,-134.3906 464.2709,-134.8836 462.2683,-128.1761"/>
</g>
<!-- Node37 -->
<g id="node4" class="node">
<title>Node37</title>
<g id="a_node4"><a xlink:href="../../d0/d30/cee530_2linearpatchtest_2main_8cpp.html" target="_top" xlink:title="cee530/linearpatchtest\l/main.cpp">
<polygon fill="#ffffff" stroke="#000000" points="0,-.5 0,-30.5 115,-30.5 115,-.5 0,-.5"/>
<text text-anchor="start" x="8" y="-18.5" font-family="Helvetica,sans-Serif" font-size="10.00" fill="#000000">cee530/linearpatchtest</text>
<text text-anchor="middle" x="57.5" y="-7.5" font-family="Helvetica,sans-Serif" font-size="10.00" fill="#000000">/main.cpp</text>
</a>
</g>
</g>
<!-- Node36&#45;&gt;Node37 -->
<g id="edge3" class="edge">
<title>Node36&#45;&gt;Node37</title>
<path fill="none" stroke="#191970" d="M57.5,-57.0249C57.5,-48.128 57.5,-38.4287 57.5,-30.6432"/>
<polygon fill="#191970" stroke="#191970" points="54.0001,-57.2966 57.5,-67.2967 61.0001,-57.2967 54.0001,-57.2966"/>
</g>
<!-- Node39 -->
<g id="node6" class="node">
<title>Node39</title>
<g id="a_node6"><a xlink:href="../../d8/d17/cee530_2manufactured_2main_8cpp.html" target="_top" xlink:title="cee530/manufactured\l/main.cpp">
<polygon fill="#ffffff" stroke="#000000" points="144.5,-.5 144.5,-30.5 254.5,-30.5 254.5,-.5 144.5,-.5"/>
<text text-anchor="start" x="152.5" y="-18.5" font-family="Helvetica,sans-Serif" font-size="10.00" fill="#000000">cee530/manufactured</text>
<text text-anchor="middle" x="199.5" y="-7.5" font-family="Helvetica,sans-Serif" font-size="10.00" fill="#000000">/main.cpp</text>
</a>
</g>
</g>
<!-- Node38&#45;&gt;Node39 -->
<g id="edge5" class="edge">
<title>Node38&#45;&gt;Node39</title>
<path fill="none" stroke="#191970" d="M199.5,-57.0249C199.5,-48.128 199.5,-38.4287 199.5,-30.6432"/>
<polygon fill="#191970" stroke="#191970" points="196.0001,-57.2966 199.5,-67.2967 203.0001,-57.2967 196.0001,-57.2966"/>
</g>
<!-- Node41 -->
<g id="node8" class="node">
<title>Node41</title>
<g id="a_node8"><a xlink:href="../../dc/d51/cee530_2sbvp_2main_8cpp.html" target="_top" xlink:title="cee530/sbvp/main.cpp">
<polygon fill="#ffffff" stroke="#000000" points="295,-6 295,-25 410,-25 410,-6 295,-6"/>
<text text-anchor="middle" x="352.5" y="-13" font-family="Helvetica,sans-Serif" font-size="10.00" fill="#000000">cee530/sbvp/main.cpp</text>
</a>
</g>
</g>
<!-- Node40&#45;&gt;Node41 -->
<g id="edge7" class="edge">
<title>Node40&#45;&gt;Node41</title>
<path fill="none" stroke="#191970" d="M352.5,-62.6079C352.5,-50.214 352.5,-34.8263 352.5,-25.0817"/>
<polygon fill="#191970" stroke="#191970" points="349.0001,-62.9005 352.5,-72.9005 356.0001,-62.9006 349.0001,-62.9005"/>
</g>
<!-- Node43 -->
<g id="node10" class="node">
<title>Node43</title>
<g id="a_node10"><a xlink:href="../../d2/ded/asme_2linearelaslam_2main_8cpp.html" target="_top" xlink:title="asme/linearelaslam\l/main.cpp">
<polygon fill="#ffffff" stroke="#000000" points="440,-.5 440,-30.5 541,-30.5 541,-.5 440,-.5"/>
<text text-anchor="start" x="448" y="-18.5" font-family="Helvetica,sans-Serif" font-size="10.00" fill="#000000">asme/linearelaslam</text>
<text text-anchor="middle" x="490.5" y="-7.5" font-family="Helvetica,sans-Serif" font-size="10.00" fill="#000000">/main.cpp</text>
</a>
</g>
</g>
<!-- Node42&#45;&gt;Node43 -->
<g id="edge9" class="edge">
<title>Node42&#45;&gt;Node43</title>
<path fill="none" stroke="#191970" d="M490.5,-62.7758C490.5,-52.4641 490.5,-40.0437 490.5,-30.5218"/>
<polygon fill="#191970" stroke="#191970" points="487.0001,-62.9005 490.5,-72.9005 494.0001,-62.9006 487.0001,-62.9005"/>
</g>
<!-- Node46 -->
<g id="node13" class="node">
<title>Node46</title>
<g id="a_node13"><a xlink:href="../../d4/d0f/examples_2laplace__aztec_2main_8cpp.html" target="_top" xlink:title="examples/laplace_aztec\l/main.cpp">
<polygon fill="#ffffff" stroke="#000000" points="712.5,-67.5 712.5,-97.5 834.5,-97.5 834.5,-67.5 712.5,-67.5"/>
<text text-anchor="start" x="720.5" y="-85.5" font-family="Helvetica,sans-Serif" font-size="10.00" fill="#000000">examples/laplace_aztec</text>
<text text-anchor="middle" x="773.5" y="-74.5" font-family="Helvetica,sans-Serif" font-size="10.00" fill="#000000">/main.cpp</text>
</a>
</g>
</g>
<!-- Node45&#45;&gt;Node46 -->
<g id="edge12" class="edge">
<title>Node45&#45;&gt;Node46</title>
<path fill="none" stroke="#191970" d="M1094.9326,-136.7545C1033.0033,-128.5425 930.8716,-114.1775 843.5,-98 840.5626,-97.4561 837.5608,-96.878 834.5323,-96.2768"/>
<polygon fill="#191970" stroke="#191970" points="1094.5203,-140.2304 1104.8921,-138.0681 1095.4357,-133.2905 1094.5203,-140.2304"/>
</g>
<!-- Node47 -->
<g id="node14" class="node">
<title>Node47</title>
<g id="a_node14"><a xlink:href="../../d8/d16/examples_2laplace__stratimikos_2main_8cpp.html" target="_top" xlink:title="examples/laplace_stratimikos\l/main.cpp">
<polygon fill="#ffffff" stroke="#000000" points="852.5,-67.5 852.5,-97.5 998.5,-97.5 998.5,-67.5 852.5,-67.5"/>
<text text-anchor="start" x="860.5" y="-85.5" font-family="Helvetica,sans-Serif" font-size="10.00" fill="#000000">examples/laplace_stratimikos</text>
<text text-anchor="middle" x="925.5" y="-74.5" font-family="Helvetica,sans-Serif" font-size="10.00" fill="#000000">/main.cpp</text>
</a>
</g>
</g>
<!-- Node45&#45;&gt;Node47 -->
<g id="edge13" class="edge">
<title>Node45&#45;&gt;Node47</title>
<path fill="none" stroke="#191970" d="M1106.4061,-131.7289C1070.2616,-121.8931 1019.3836,-108.048 980.7858,-97.5446"/>
<polygon fill="#191970" stroke="#191970" points="1105.6193,-135.142 1116.1875,-134.3906 1107.4574,-128.3876 1105.6193,-135.142"/>
</g>
<!-- Node48 -->
<g id="node15" class="node">
<title>Node48</title>
<g id="a_node15"><a xlink:href="../../dd/d3d/dirichlet_inlet_outlet___polyconvex_h_g_o_8hpp.html" target="_top" xlink:title="src/dirichletInletOutlet\l_PolyconvexHGO.hpp">
<polygon fill="#ffffff" stroke="#000000" points="1016.5,-67.5 1016.5,-97.5 1130.5,-97.5 1130.5,-67.5 1016.5,-67.5"/>
<text text-anchor="start" x="1024.5" y="-85.5" font-family="Helvetica,sans-Serif" font-size="10.00" fill="#000000">src/dirichletInletOutlet</text>
<text text-anchor="middle" x="1073.5" y="-74.5" font-family="Helvetica,sans-Serif" font-size="10.00" fill="#000000">_PolyconvexHGO.hpp</text>
</a>
</g>
</g>
<!-- Node45&#45;&gt;Node48 -->
<g id="edge14" class="edge">
<title>Node45&#45;&gt;Node48</title>
<path fill="none" stroke="#191970" d="M1131.2561,-128.0385C1119.3203,-118.6276 1104.3083,-106.7911 1092.5809,-97.5446"/>
<polygon fill="#191970" stroke="#191970" points="1129.2927,-130.9475 1139.3125,-134.3906 1133.6268,-125.4506 1129.2927,-130.9475"/>
</g>
<!-- Node50 -->
<g id="node17" class="node">
<title>Node50</title>
<g id="a_node17"><a xlink:href="../../d5/d0d/dirichlet_strip_elongation___stochastic_polyconvex_h_g_o_8hpp.html" target="_top" xlink:title="src/dirichletStripElongation\l_StochasticPolyconvexHGO.hpp">
<polygon fill="#ffffff" stroke="#000000" points="1149,-67.5 1149,-97.5 1310,-97.5 1310,-67.5 1149,-67.5"/>
<text text-anchor="start" x="1157" y="-85.5" font-family="Helvetica,sans-Serif" font-size="10.00" fill="#000000">src/dirichletStripElongation</text>
<text text-anchor="middle" x="1229.5" y="-74.5" font-family="Helvetica,sans-Serif" font-size="10.00" fill="#000000">_StochasticPolyconvexHGO.hpp</text>
</a>
</g>
</g>
<!-- Node45&#45;&gt;Node50 -->
<g id="edge16" class="edge">
<title>Node45&#45;&gt;Node50</title>
<path fill="none" stroke="#191970" d="M1171.7439,-128.0385C1183.6797,-118.6276 1198.6917,-106.7911 1210.4191,-97.5446"/>
<polygon fill="#191970" stroke="#191970" points="1169.3732,-125.4506 1163.6875,-134.3906 1173.7073,-130.9475 1169.3732,-125.4506"/>
</g>
<!-- Node52 -->
<g id="node19" class="node">
<title>Node52</title>
<g id="a_node19"><a xlink:href="../../dc/d31/laplacepp_8cpp.html" target="_top" xlink:title="src/laplacepp.cpp">
<polygon fill="#ffffff" stroke="#000000" points="1328,-73 1328,-92 1421,-92 1421,-73 1328,-73"/>
<text text-anchor="middle" x="1374.5" y="-80" font-family="Helvetica,sans-Serif" font-size="10.00" fill="#000000">src/laplacepp.cpp</text>
</a>
</g>
</g>
<!-- Node45&#45;&gt;Node52 -->
<g id="edge18" class="edge">
<title>Node45&#45;&gt;Node52</title>
<path fill="none" stroke="#191970" d="M1196.0272,-131.7512C1229.6724,-122.4919 1276.9927,-109.4609 1318.5,-98 1325.5012,-96.0668 1332.9939,-93.995 1340.1479,-92.0154"/>
<polygon fill="#191970" stroke="#191970" points="1194.7592,-128.4699 1186.0462,-134.4977 1196.6164,-135.2191 1194.7592,-128.4699"/>
</g>
<!-- Node53 -->
<g id="node20" class="node">
<title>Node53</title>
<g id="a_node20"><a xlink:href="../../d6/d14/neumann_inner_surface___polyconvex_h_g_o_8hpp.html" target="_top" xlink:title="src/neumannInnerSurface\l_PolyconvexHGO.hpp">
<polygon fill="#ffffff" stroke="#000000" points="1439.5,-67.5 1439.5,-97.5 1567.5,-97.5 1567.5,-67.5 1439.5,-67.5"/>
<text text-anchor="start" x="1447.5" y="-85.5" font-family="Helvetica,sans-Serif" font-size="10.00" fill="#000000">src/neumannInnerSurface</text>
<text text-anchor="middle" x="1503.5" y="-74.5" font-family="Helvetica,sans-Serif" font-size="10.00" fill="#000000">_PolyconvexHGO.hpp</text>
</a>
</g>
</g>
<!-- Node45&#45;&gt;Node53 -->
<g id="edge19" class="edge">
<title>Node45&#45;&gt;Node53</title>
<path fill="none" stroke="#191970" d="M1208.4589,-135.3004C1264.739,-126.5338 1353.2269,-112.2918 1429.5,-98 1432.7254,-97.3956 1436.0265,-96.7615 1439.3579,-96.1092"/>
<polygon fill="#191970" stroke="#191970" points="1207.6797,-131.8794 1198.3351,-136.8724 1208.7538,-138.7965 1207.6797,-131.8794"/>
</g>
<!-- Node56 -->
<g id="node23" class="node">
<title>Node56</title>
<g id="a_node23"><a xlink:href="../../dc/da1/neumann_inner_surface___stochastic_polyconvex_h_g_o_8hpp.html" target="_top" xlink:title="src/neumannInnerSurface\l_StochasticPolyconvexHGO.hpp">
<polygon fill="#ffffff" stroke="#000000" points="1642,-67.5 1642,-97.5 1803,-97.5 1803,-67.5 1642,-67.5"/>
<text text-anchor="start" x="1650" y="-85.5" font-family="Helvetica,sans-Serif" font-size="10.00" fill="#000000">src/neumannInnerSurface</text>
<text text-anchor="middle" x="1722.5" y="-74.5" font-family="Helvetica,sans-Serif" font-size="10.00" fill="#000000">_StochasticPolyconvexHGO.hpp</text>
</a>
</g>
</g>
<!-- Node45&#45;&gt;Node56 -->
<g id="edge22" class="edge">
<title>Node45&#45;&gt;Node56</title>
<path fill="none" stroke="#191970" d="M1208.3254,-137.8796C1310.2755,-126.899 1524.5186,-103.8237 1641.7072,-91.2019"/>
<polygon fill="#191970" stroke="#191970" points="1207.795,-134.4164 1198.2273,-138.9672 1208.5447,-141.3761 1207.795,-134.4164"/>
</g>
<!-- Node49 -->
<g id="node16" class="node">
<title>Node49</title>
<g id="a_node16"><a xlink:href="../../de/da1/arteries_2deterministic__dirichlet_2main_8cpp.html" target="_top" xlink:title="arteries/deterministic\l_dirichlet/main.cpp">
<polygon fill="#ffffff" stroke="#000000" points="1020,-.5 1020,-30.5 1127,-30.5 1127,-.5 1020,-.5"/>
<text text-anchor="start" x="1028" y="-18.5" font-family="Helvetica,sans-Serif" font-size="10.00" fill="#000000">arteries/deterministic</text>
<text text-anchor="middle" x="1073.5" y="-7.5" font-family="Helvetica,sans-Serif" font-size="10.00" fill="#000000">_dirichlet/main.cpp</text>
</a>
</g>
</g>
<!-- Node48&#45;&gt;Node49 -->
<g id="edge15" class="edge">
<title>Node48&#45;&gt;Node49</title>
<path fill="none" stroke="#191970" d="M1073.5,-57.0249C1073.5,-48.128 1073.5,-38.4287 1073.5,-30.6432"/>
<polygon fill="#191970" stroke="#191970" points="1070.0001,-57.2966 1073.5,-67.2967 1077.0001,-57.2967 1070.0001,-57.2966"/>
</g>
<!-- Node51 -->
<g id="node18" class="node">
<title>Node51</title>
<g id="a_node18"><a xlink:href="../../dc/dba/arteries_2strip__dirichlet_2main_8cpp.html" target="_top" xlink:title="arteries/strip_dirichlet\l/main.cpp">
<polygon fill="#ffffff" stroke="#000000" points="1174.5,-.5 1174.5,-30.5 1284.5,-30.5 1284.5,-.5 1174.5,-.5"/>
<text text-anchor="start" x="1182.5" y="-18.5" font-family="Helvetica,sans-Serif" font-size="10.00" fill="#000000">arteries/strip_dirichlet</text>
<text text-anchor="middle" x="1229.5" y="-7.5" font-family="Helvetica,sans-Serif" font-size="10.00" fill="#000000">/main.cpp</text>
</a>
</g>
</g>
<!-- Node50&#45;&gt;Node51 -->
<g id="edge17" class="edge">
<title>Node50&#45;&gt;Node51</title>
<path fill="none" stroke="#191970" d="M1229.5,-57.0249C1229.5,-48.128 1229.5,-38.4287 1229.5,-30.6432"/>
<polygon fill="#191970" stroke="#191970" points="1226.0001,-57.2966 1229.5,-67.2967 1233.0001,-57.2967 1226.0001,-57.2966"/>
</g>
<!-- Node54 -->
<g id="node21" class="node">
<title>Node54</title>
<g id="a_node21"><a xlink:href="../../d9/d81/arteries_2deterministic__neumann_2main_8cpp.html" target="_top" xlink:title="arteries/deterministic\l_neumann/main.cpp">
<polygon fill="#ffffff" stroke="#000000" points="1310,-.5 1310,-30.5 1417,-30.5 1417,-.5 1310,-.5"/>
<text text-anchor="start" x="1318" y="-18.5" font-family="Helvetica,sans-Serif" font-size="10.00" fill="#000000">arteries/deterministic</text>
<text text-anchor="middle" x="1363.5" y="-7.5" font-family="Helvetica,sans-Serif" font-size="10.00" fill="#000000">_neumann/main.cpp</text>
</a>
</g>
</g>
<!-- Node53&#45;&gt;Node54 -->
<g id="edge20" class="edge">
<title>Node53&#45;&gt;Node54</title>
<path fill="none" stroke="#191970" d="M1462.862,-63.0518C1441.3498,-52.7567 1415.319,-40.2991 1395.2983,-30.7177"/>
<polygon fill="#191970" stroke="#191970" points="1461.5501,-66.3041 1472.0813,-67.4639 1464.5719,-59.9899 1461.5501,-66.3041"/>
</g>
<!-- Node55 -->
<g id="node22" class="node">
<title>Node55</title>
<g id="a_node22"><a xlink:href="../../db/db7/arteries_2vonmises_2main_8cpp.html" target="_top" xlink:title="arteries/vonmises/main.cpp">
<polygon fill="#ffffff" stroke="#000000" points="1435,-6 1435,-25 1572,-25 1572,-6 1435,-6"/>
<text text-anchor="middle" x="1503.5" y="-13" font-family="Helvetica,sans-Serif" font-size="10.00" fill="#000000">arteries/vonmises/main.cpp</text>
</a>
</g>
</g>
<!-- Node53&#45;&gt;Node55 -->
<g id="edge21" class="edge">
<title>Node53&#45;&gt;Node55</title>
<path fill="none" stroke="#191970" d="M1503.5,-57.1199C1503.5,-45.9072 1503.5,-33.4031 1503.5,-25.055"/>
<polygon fill="#191970" stroke="#191970" points="1500.0001,-57.2966 1503.5,-67.2967 1507.0001,-57.2967 1500.0001,-57.2966"/>
</g>
<!-- Node57 -->
<g id="node24" class="node">
<title>Node57</title>
<g id="a_node24"><a xlink:href="../../d5/da5/arteries_2boost__gmrf_2gmrf__gauss_2main_8cpp.html" target="_top" xlink:title="arteries/boost_gmrf\l/gmrf_gauss/main.cpp">
<polygon fill="#ffffff" stroke="#000000" points="1590,-.5 1590,-30.5 1703,-30.5 1703,-.5 1590,-.5"/>
<text text-anchor="start" x="1598" y="-18.5" font-family="Helvetica,sans-Serif" font-size="10.00" fill="#000000">arteries/boost_gmrf</text>
<text text-anchor="middle" x="1646.5" y="-7.5" font-family="Helvetica,sans-Serif" font-size="10.00" fill="#000000">/gmrf_gauss/main.cpp</text>
</a>
</g>
</g>
<!-- Node56&#45;&gt;Node57 -->
<g id="edge23" class="edge">
<title>Node56&#45;&gt;Node57</title>
<path fill="none" stroke="#191970" d="M1697.5408,-60.4965C1686.4503,-50.7193 1673.6733,-39.4554 1663.6773,-30.6432"/>
<polygon fill="#191970" stroke="#191970" points="1695.4386,-63.3091 1705.2544,-67.2967 1700.0677,-58.0582 1695.4386,-63.3091"/>
</g>
<!-- Node58 -->
<g id="node25" class="node">
<title>Node58</title>
<g id="a_node25"><a xlink:href="../../d2/dbe/arteries_2boost__gmrf_2gmrf__nodes_2main_8cpp.html" target="_top" xlink:title="arteries/boost_gmrf\l/gmrf_nodes/main.cpp">
<polygon fill="#ffffff" stroke="#000000" points="1721,-.5 1721,-30.5 1834,-30.5 1834,-.5 1721,-.5"/>
<text text-anchor="start" x="1729" y="-18.5" font-family="Helvetica,sans-Serif" font-size="10.00" fill="#000000">arteries/boost_gmrf</text>
<text text-anchor="middle" x="1777.5" y="-7.5" font-family="Helvetica,sans-Serif" font-size="10.00" fill="#000000">/gmrf_nodes/main.cpp</text>
</a>
</g>
</g>
<!-- Node56&#45;&gt;Node58 -->
<g id="edge24" class="edge">
<title>Node56&#45;&gt;Node58</title>
<path fill="none" stroke="#191970" d="M1741.503,-59.3509C1749.3037,-49.8482 1758.116,-39.1132 1765.069,-30.6432"/>
<polygon fill="#191970" stroke="#191970" points="1738.6201,-57.3466 1734.9804,-67.2967 1744.0306,-61.7881 1738.6201,-57.3466"/>
</g>
<!-- Node59 -->
<g id="node26" class="node">
<title>Node59</title>
<g id="a_node26"><a xlink:href="../../da/df3/arteries_2gmrf__neumann_2main_8cpp.html" target="_top" xlink:title="arteries/gmrf_neumann\l/main.cpp">
<polygon fill="#ffffff" stroke="#000000" points="1852.5,-.5 1852.5,-30.5 1968.5,-30.5 1968.5,-.5 1852.5,-.5"/>
<text text-anchor="start" x="1860.5" y="-18.5" font-family="Helvetica,sans-Serif" font-size="10.00" fill="#000000">arteries/gmrf_neumann</text>
<text text-anchor="middle" x="1910.5" y="-7.5" font-family="Helvetica,sans-Serif" font-size="10.00" fill="#000000">/main.cpp</text>
</a>
</g>
</g>
<!-- Node56&#45;&gt;Node59 -->
<g id="edge25" class="edge">
<title>Node56&#45;&gt;Node59</title>
<path fill="none" stroke="#191970" d="M1774.4041,-64.0023C1803.9004,-53.4903 1840.3663,-40.4945 1868.1251,-30.6017"/>
<polygon fill="#191970" stroke="#191970" points="1772.9356,-60.8099 1764.6909,-67.4639 1775.2855,-67.4037 1772.9356,-60.8099"/>
</g>
</g>
</svg>
