<?xml version="1.0" encoding="UTF-8" standalone="no"?>
<!DOCTYPE svg PUBLIC "-//W3C//DTD SVG 1.1//EN"
 "http://www.w3.org/Graphics/SVG/1.1/DTD/svg11.dtd">
<!-- Generated by graphviz version 2.40.1 (20161225.0304)
 -->
<!-- Title: src/linearFiniteElementProblem.hpp Pages: 1 -->
<!--zoomable 218 -->
<svg id="main" version="1.1" xmlns="http://www.w3.org/2000/svg" xmlns:xlink="http://www.w3.org/1999/xlink" xml:space="preserve" onload="init(evt)">
<style type="text/css"><![CDATA[
.edge:hover path { stroke: red; }
.edge:hover polygon { stroke: red; fill: red; }
]]></style>
<script type="text/javascript"><![CDATA[
var edges = document.getElementsByTagName('g');
if (edges && edges.length) {
  for (var i=0;i<edges.length;i++) {
    if (edges[i].id.substr(0,4)=='edge') {
      edges[i].setAttribute('class','edge');
    }
  }
}
]]></script>
        <defs>
                <circle id="rim" cx="0" cy="0" r="7"/>
                <circle id="rim2" cx="0" cy="0" r="3.5"/>
                <g id="zoomPlus">
                        <use xlink:href="#rim" fill="#404040">
                                <set attributeName="fill" to="#808080" begin="zoomplus.mouseover" end="zoomplus.mouseout"/>
                        </use>
                        <path d="M-4,0h8M0,-4v8" fill="none" stroke="white" stroke-width="1.5" pointer-events="none"/>
                </g>
                <g id="zoomMin">
                        <use xlink:href="#rim" fill="#404040">
                                <set attributeName="fill" to="#808080" begin="zoomminus.mouseover" end="zoomminus.mouseout"/>
                        </use>
                        <path d="M-4,0h8" fill="none" stroke="white" stroke-width="1.5" pointer-events="none"/>
                </g>
                <g id="dirArrow">
                        <path fill="none" stroke="white" stroke-width="1.5" d="M0,-3.0v7 M-2.5,-0.5L0,-3.0L2.5,-0.5"/>
                </g>
               <g id="resetDef">
                       <use xlink:href="#rim2" fill="#404040">
                               <set attributeName="fill" to="#808080" begin="reset.mouseover" end="reset.mouseout"/>
                       </use>
               </g>
        </defs>

<script type="text/javascript">
var viewWidth = 2379;
var viewHeight = 218;
var sectionId = 'dynsection-1';
</script>
<script xlink:href="../../svgpan.js"/>
<svg id="graph" class="graph">
<g id="viewport">
<title>src/linearFiniteElementProblem.hpp</title>
<polygon fill="#ffffff" stroke="transparent" points="-4,4 -4,-214 2374.5,-214 2374.5,4 -4,4"/>
<!-- Node34 -->
<g id="node1" class="node">
<title>Node34</title>
<polygon fill="#bfbfbf" stroke="#000000" points="828,-190.5 828,-209.5 999,-209.5 999,-190.5 828,-190.5"/>
<text text-anchor="middle" x="913.5" y="-197.5" font-family="Helvetica,sans-Serif" font-size="10.00" fill="#000000">src/linearFiniteElementProblem.hpp</text>
</g>
<!-- Node35 -->
<g id="node2" class="node">
<title>Node35</title>
<g id="a_node2"><a xlink:href="../../d5/dfe/linearized_elasticity_8hpp.html" target="_top" xlink:title="src/linearizedElasticity.hpp">
<polygon fill="#ffffff" stroke="#000000" points="423.5,-134.5 423.5,-153.5 557.5,-153.5 557.5,-134.5 423.5,-134.5"/>
<text text-anchor="middle" x="490.5" y="-141.5" font-family="Helvetica,sans-Serif" font-size="10.00" fill="#000000">src/linearizedElasticity.hpp</text>
</a>
</g>
</g>
<!-- Node34&#45;&gt;Node35 -->
<g id="edge1" class="edge">
<title>Node34&#45;&gt;Node35</title>
<path fill="none" stroke="#191970" d="M831.2477,-189.1108C751.4257,-178.5434 631.7686,-162.7022 557.5521,-152.8769"/>
<polygon fill="#191970" stroke="#191970" points="830.8915,-192.5941 841.2643,-190.4369 831.8102,-185.6546 830.8915,-192.5941"/>
</g>
<!-- Node47 -->
<g id="node14" class="node">
<title>Node47</title>
<g id="a_node14"><a xlink:href="../../d9/de5/damage_field_8hpp.html" target="_top" xlink:title="src/damageField.hpp">
<polygon fill="#ffffff" stroke="#000000" points="860,-134.5 860,-153.5 967,-153.5 967,-134.5 860,-134.5"/>
<text text-anchor="middle" x="913.5" y="-141.5" font-family="Helvetica,sans-Serif" font-size="10.00" fill="#000000">src/damageField.hpp</text>
</a>
</g>
</g>
<!-- Node34&#45;&gt;Node47 -->
<g id="edge13" class="edge">
<title>Node34&#45;&gt;Node47</title>
<path fill="none" stroke="#191970" d="M913.5,-180.1575C913.5,-171.155 913.5,-160.9199 913.5,-153.6427"/>
<polygon fill="#191970" stroke="#191970" points="910.0001,-180.2455 913.5,-190.2455 917.0001,-180.2456 910.0001,-180.2455"/>
</g>
<!-- Node50 -->
<g id="node17" class="node">
<title>Node50</title>
<g id="a_node17"><a xlink:href="../../d5/d3f/laplacepp_8hpp.html" target="_top" xlink:title="src/laplacepp.hpp">
<polygon fill="#ffffff" stroke="#000000" points="1507,-134.5 1507,-153.5 1600,-153.5 1600,-134.5 1507,-134.5"/>
<text text-anchor="middle" x="1553.5" y="-141.5" font-family="Helvetica,sans-Serif" font-size="10.00" fill="#000000">src/laplacepp.hpp</text>
</a>
</g>
</g>
<!-- Node34&#45;&gt;Node50 -->
<g id="edge17" class="edge">
<title>Node34&#45;&gt;Node50</title>
<path fill="none" stroke="#191970" d="M1009.4004,-191.6087C1148.856,-179.4064 1402.3372,-157.2267 1506.6925,-148.0957"/>
<polygon fill="#191970" stroke="#191970" points="1008.806,-188.1473 999.1492,-192.5057 1009.4162,-195.1206 1008.806,-188.1473"/>
</g>
<!-- Node36 -->
<g id="node3" class="node">
<title>Node36</title>
<g id="a_node3"><a xlink:href="../../de/d5d/linear_patch_test_8hpp.html" target="_top" xlink:title="cee530/linearpatchtest\l/linearPatchTest.hpp">
<polygon fill="#ffffff" stroke="#000000" points="0,-67.5 0,-97.5 115,-97.5 115,-67.5 0,-67.5"/>
<text text-anchor="start" x="8" y="-85.5" font-family="Helvetica,sans-Serif" font-size="10.00" fill="#000000">cee530/linearpatchtest</text>
<text text-anchor="middle" x="57.5" y="-74.5" font-family="Helvetica,sans-Serif" font-size="10.00" fill="#000000">/linearPatchTest.hpp</text>
</a>
</g>
</g>
<!-- Node35&#45;&gt;Node36 -->
<g id="edge2" class="edge">
<title>Node35&#45;&gt;Node36</title>
<path fill="none" stroke="#191970" d="M412.9707,-136.6931C338.4433,-129.1016 222.7983,-115.8313 123.5,-98 120.7197,-97.5007 117.8805,-96.9588 115.0181,-96.3867"/>
<polygon fill="#191970" stroke="#191970" points="412.907,-140.2044 423.208,-137.7265 413.6101,-133.2398 412.907,-140.2044"/>
</g>
<!-- Node38 -->
<g id="node5" class="node">
<title>Node38</title>
<g id="a_node5"><a xlink:href="../../d4/d56/cee530_2manufactured_2manufactured_solution_8hpp.html" target="_top" xlink:title="cee530/manufactured\l/manufacturedSolution.hpp">
<polygon fill="#ffffff" stroke="#000000" points="133,-67.5 133,-97.5 266,-97.5 266,-67.5 133,-67.5"/>
<text text-anchor="start" x="141" y="-85.5" font-family="Helvetica,sans-Serif" font-size="10.00" fill="#000000">cee530/manufactured</text>
<text text-anchor="middle" x="199.5" y="-74.5" font-family="Helvetica,sans-Serif" font-size="10.00" fill="#000000">/manufacturedSolution.hpp</text>
</a>
</g>
</g>
<!-- Node35&#45;&gt;Node38 -->
<g id="edge4" class="edge">
<title>Node35&#45;&gt;Node38</title>
<path fill="none" stroke="#191970" d="M435.4327,-132.3621C387.3328,-122.1966 317.3844,-107.4137 266.1383,-96.5834"/>
<polygon fill="#191970" stroke="#191970" points="434.8429,-135.8147 445.3505,-134.4581 436.2904,-128.9659 434.8429,-135.8147"/>
</g>
<!-- Node40 -->
<g id="node7" class="node">
<title>Node40</title>
<g id="a_node7"><a xlink:href="../../d4/d57/cee_s_b_v_p_8hpp.html" target="_top" xlink:title="cee530/sbvp/ceeSBVP.hpp">
<polygon fill="#ffffff" stroke="#000000" points="284,-73 284,-92 421,-92 421,-73 284,-73"/>
<text text-anchor="middle" x="352.5" y="-80" font-family="Helvetica,sans-Serif" font-size="10.00" fill="#000000">cee530/sbvp/ceeSBVP.hpp</text>
</a>
</g>
</g>
<!-- Node35&#45;&gt;Node40 -->
<g id="edge6" class="edge">
<title>Node35&#45;&gt;Node40</title>
<path fill="none" stroke="#191970" d="M459.5106,-130.1895C433.4378,-118.5701 396.8398,-102.2601 373.9111,-92.0419"/>
<polygon fill="#191970" stroke="#191970" points="458.3787,-133.5169 468.9375,-134.3906 461.2282,-127.1231 458.3787,-133.5169"/>
</g>
<!-- Node42 -->
<g id="node9" class="node">
<title>Node42</title>
<g id="a_node9"><a xlink:href="../../dc/d64/asme_s_b_v_p_8hpp.html" target="_top" xlink:title="src/asmeSBVP.hpp">
<polygon fill="#ffffff" stroke="#000000" points="439,-73 439,-92 542,-92 542,-73 439,-73"/>
<text text-anchor="middle" x="490.5" y="-80" font-family="Helvetica,sans-Serif" font-size="10.00" fill="#000000">src/asmeSBVP.hpp</text>
</a>
</g>
</g>
<!-- Node35&#45;&gt;Node42 -->
<g id="edge8" class="edge">
<title>Node35&#45;&gt;Node42</title>
<path fill="none" stroke="#191970" d="M490.5,-124.2462C490.5,-113.5519 490.5,-100.814 490.5,-92.2449"/>
<polygon fill="#191970" stroke="#191970" points="487.0001,-124.3906 490.5,-134.3906 494.0001,-124.3907 487.0001,-124.3906"/>
</g>
<!-- Node44 -->
<g id="node11" class="node">
<title>Node44</title>
<g id="a_node11"><a xlink:href="../../df/d96/linearized_elasticity_8cpp.html" target="_top" xlink:title="src/linearizedElasticity.cpp">
<polygon fill="#ffffff" stroke="#000000" points="560.5,-73 560.5,-92 694.5,-92 694.5,-73 560.5,-73"/>
<text text-anchor="middle" x="627.5" y="-80" font-family="Helvetica,sans-Serif" font-size="10.00" fill="#000000">src/linearizedElasticity.cpp</text>
</a>
</g>
</g>
<!-- Node35&#45;&gt;Node44 -->
<g id="edge10" class="edge">
<title>Node35&#45;&gt;Node44</title>
<path fill="none" stroke="#191970" d="M521.2648,-130.1895C547.1487,-118.5701 583.4815,-102.2601 606.2441,-92.0419"/>
<polygon fill="#191970" stroke="#191970" points="519.5958,-127.1022 511.9063,-134.3906 522.4626,-133.4883 519.5958,-127.1022"/>
</g>
<!-- Node45 -->
<g id="node12" class="node">
<title>Node45</title>
<g id="a_node12"><a xlink:href="../../d1/dee/phase_field_linearized_elasticity_8hpp.html" target="_top" xlink:title="src/phaseFieldLinearized\lElasticity.hpp">
<polygon fill="#ffffff" stroke="#000000" points="713,-67.5 713,-97.5 838,-97.5 838,-67.5 713,-67.5"/>
<text text-anchor="start" x="721" y="-85.5" font-family="Helvetica,sans-Serif" font-size="10.00" fill="#000000">src/phaseFieldLinearized</text>
<text text-anchor="middle" x="775.5" y="-74.5" font-family="Helvetica,sans-Serif" font-size="10.00" fill="#000000">Elasticity.hpp</text>
</a>
</g>
</g>
<!-- Node35&#45;&gt;Node45 -->
<g id="edge11" class="edge">
<title>Node35&#45;&gt;Node45</title>
<path fill="none" stroke="#191970" d="M544.5992,-132.326C592.5427,-121.9803 662.5535,-106.8727 712.9015,-96.0081"/>
<polygon fill="#191970" stroke="#191970" points="543.7553,-128.9274 534.7185,-134.4581 545.2318,-135.7699 543.7553,-128.9274"/>
</g>
<!-- Node37 -->
<g id="node4" class="node">
<title>Node37</title>
<g id="a_node4"><a xlink:href="../../d0/d30/cee530_2linearpatchtest_2main_8cpp.html" target="_top" xlink:title="cee530/linearpatchtest\l/main.cpp">
<polygon fill="#ffffff" stroke="#000000" points="0,-.5 0,-30.5 115,-30.5 115,-.5 0,-.5"/>
<text text-anchor="start" x="8" y="-18.5" font-family="Helvetica,sans-Serif" font-size="10.00" fill="#000000">cee530/linearpatchtest</text>
<text text-anchor="middle" x="57.5" y="-7.5" font-family="Helvetica,sans-Serif" font-size="10.00" fill="#000000">/main.cpp</text>
</a>
</g>
</g>
<!-- Node36&#45;&gt;Node37 -->
<g id="edge3" class="edge">
<title>Node36&#45;&gt;Node37</title>
<path fill="none" stroke="#191970" d="M57.5,-57.0249C57.5,-48.128 57.5,-38.4287 57.5,-30.6432"/>
<polygon fill="#191970" stroke="#191970" points="54.0001,-57.2966 57.5,-67.2967 61.0001,-57.2967 54.0001,-57.2966"/>
</g>
<!-- Node39 -->
<g id="node6" class="node">
<title>Node39</title>
<g id="a_node6"><a xlink:href="../../d8/d17/cee530_2manufactured_2main_8cpp.html" target="_top" xlink:title="cee530/manufactured\l/main.cpp">
<polygon fill="#ffffff" stroke="#000000" points="144.5,-.5 144.5,-30.5 254.5,-30.5 254.5,-.5 144.5,-.5"/>
<text text-anchor="start" x="152.5" y="-18.5" font-family="Helvetica,sans-Serif" font-size="10.00" fill="#000000">cee530/manufactured</text>
<text text-anchor="middle" x="199.5" y="-7.5" font-family="Helvetica,sans-Serif" font-size="10.00" fill="#000000">/main.cpp</text>
</a>
</g>
</g>
<!-- Node38&#45;&gt;Node39 -->
<g id="edge5" class="edge">
<title>Node38&#45;&gt;Node39</title>
<path fill="none" stroke="#191970" d="M199.5,-57.0249C199.5,-48.128 199.5,-38.4287 199.5,-30.6432"/>
<polygon fill="#191970" stroke="#191970" points="196.0001,-57.2966 199.5,-67.2967 203.0001,-57.2967 196.0001,-57.2966"/>
</g>
<!-- Node41 -->
<g id="node8" class="node">
<title>Node41</title>
<g id="a_node8"><a xlink:href="../../dc/d51/cee530_2sbvp_2main_8cpp.html" target="_top" xlink:title="cee530/sbvp/main.cpp">
<polygon fill="#ffffff" stroke="#000000" points="295,-6 295,-25 410,-25 410,-6 295,-6"/>
<text text-anchor="middle" x="352.5" y="-13" font-family="Helvetica,sans-Serif" font-size="10.00" fill="#000000">cee530/sbvp/main.cpp</text>
</a>
</g>
</g>
<!-- Node40&#45;&gt;Node41 -->
<g id="edge7" class="edge">
<title>Node40&#45;&gt;Node41</title>
<path fill="none" stroke="#191970" d="M352.5,-62.6079C352.5,-50.214 352.5,-34.8263 352.5,-25.0817"/>
<polygon fill="#191970" stroke="#191970" points="349.0001,-62.9005 352.5,-72.9005 356.0001,-62.9006 349.0001,-62.9005"/>
</g>
<!-- Node43 -->
<g id="node10" class="node">
<title>Node43</title>
<g id="a_node10"><a xlink:href="../../d2/ded/asme_2linearelaslam_2main_8cpp.html" target="_top" xlink:title="asme/linearelaslam\l/main.cpp">
<polygon fill="#ffffff" stroke="#000000" points="440,-.5 440,-30.5 541,-30.5 541,-.5 440,-.5"/>
<text text-anchor="start" x="448" y="-18.5" font-family="Helvetica,sans-Serif" font-size="10.00" fill="#000000">asme/linearelaslam</text>
<text text-anchor="middle" x="490.5" y="-7.5" font-family="Helvetica,sans-Serif" font-size="10.00" fill="#000000">/main.cpp</text>
</a>
</g>
</g>
<!-- Node42&#45;&gt;Node43 -->
<g id="edge9" class="edge">
<title>Node42&#45;&gt;Node43</title>
<path fill="none" stroke="#191970" d="M490.5,-62.7758C490.5,-52.4641 490.5,-40.0437 490.5,-30.5218"/>
<polygon fill="#191970" stroke="#191970" points="487.0001,-62.9005 490.5,-72.9005 494.0001,-62.9006 487.0001,-62.9005"/>
</g>
<!-- Node46 -->
<g id="node13" class="node">
<title>Node46</title>
<g id="a_node13"><a xlink:href="../../d4/d66/phase_field_linearized_elasticity_8cpp.html" target="_top" xlink:title="src/phaseFieldLinearized\lElasticity.cpp">
<polygon fill="#ffffff" stroke="#000000" points="713,-.5 713,-30.5 838,-30.5 838,-.5 713,-.5"/>
<text text-anchor="start" x="721" y="-18.5" font-family="Helvetica,sans-Serif" font-size="10.00" fill="#000000">src/phaseFieldLinearized</text>
<text text-anchor="middle" x="775.5" y="-7.5" font-family="Helvetica,sans-Serif" font-size="10.00" fill="#000000">Elasticity.cpp</text>
</a>
</g>
</g>
<!-- Node45&#45;&gt;Node46 -->
<g id="edge12" class="edge">
<title>Node45&#45;&gt;Node46</title>
<path fill="none" stroke="#191970" d="M775.5,-57.0249C775.5,-48.128 775.5,-38.4287 775.5,-30.6432"/>
<polygon fill="#191970" stroke="#191970" points="772.0001,-57.2966 775.5,-67.2967 779.0001,-57.2967 772.0001,-57.2966"/>
</g>
<!-- Node47&#45;&gt;Node45 -->
<g id="edge16" class="edge">
<title>Node47&#45;&gt;Node45</title>
<path fill="none" stroke="#191970" d="M882.7943,-130.316C860.99,-120.5988 831.7192,-107.5542 809.2586,-97.5446"/>
<polygon fill="#191970" stroke="#191970" points="881.3787,-133.5169 891.9375,-134.3906 884.2282,-127.1231 881.3787,-133.5169"/>
</g>
<!-- Node48 -->
<g id="node15" class="node">
<title>Node48</title>
<g id="a_node15"><a xlink:href="../../d9/d28/examples_2damagefield_2main_8cpp.html" target="_top" xlink:title="examples/damagefield\l/main.cpp">
<polygon fill="#ffffff" stroke="#000000" points="856.5,-67.5 856.5,-97.5 970.5,-97.5 970.5,-67.5 856.5,-67.5"/>
<text text-anchor="start" x="864.5" y="-85.5" font-family="Helvetica,sans-Serif" font-size="10.00" fill="#000000">examples/damagefield</text>
<text text-anchor="middle" x="913.5" y="-74.5" font-family="Helvetica,sans-Serif" font-size="10.00" fill="#000000">/main.cpp</text>
</a>
</g>
</g>
<!-- Node47&#45;&gt;Node48 -->
<g id="edge14" class="edge">
<title>Node47&#45;&gt;Node48</title>
<path fill="none" stroke="#191970" d="M913.5,-124.3693C913.5,-115.681 913.5,-105.6241 913.5,-97.5446"/>
<polygon fill="#191970" stroke="#191970" points="910.0001,-124.3906 913.5,-134.3906 917.0001,-124.3907 910.0001,-124.3906"/>
</g>
<!-- Node49 -->
<g id="node16" class="node">
<title>Node49</title>
<g id="a_node16"><a xlink:href="../../dd/ddf/damage_field_8cpp.html" target="_top" xlink:title="src/damageField.cpp">
<polygon fill="#ffffff" stroke="#000000" points="989,-73 989,-92 1096,-92 1096,-73 989,-73"/>
<text text-anchor="middle" x="1042.5" y="-80" font-family="Helvetica,sans-Serif" font-size="10.00" fill="#000000">src/damageField.cpp</text>
</a>
</g>
</g>
<!-- Node47&#45;&gt;Node49 -->
<g id="edge15" class="edge">
<title>Node47&#45;&gt;Node49</title>
<path fill="none" stroke="#191970" d="M942.791,-130.0357C967.1419,-118.4265 1001.1464,-102.2151 1022.4853,-92.0419"/>
<polygon fill="#191970" stroke="#191970" points="941.1767,-126.9278 933.6563,-134.3906 944.1891,-133.2465 941.1767,-126.9278"/>
</g>
<!-- Node51 -->
<g id="node18" class="node">
<title>Node51</title>
<g id="a_node18"><a xlink:href="../../d4/d0f/examples_2laplace__aztec_2main_8cpp.html" target="_top" xlink:title="examples/laplace_aztec\l/main.cpp">
<polygon fill="#ffffff" stroke="#000000" points="1114.5,-67.5 1114.5,-97.5 1236.5,-97.5 1236.5,-67.5 1114.5,-67.5"/>
<text text-anchor="start" x="1122.5" y="-85.5" font-family="Helvetica,sans-Serif" font-size="10.00" fill="#000000">examples/laplace_aztec</text>
<text text-anchor="middle" x="1175.5" y="-74.5" font-family="Helvetica,sans-Serif" font-size="10.00" fill="#000000">/main.cpp</text>
</a>
</g>
</g>
<!-- Node50&#45;&gt;Node51 -->
<g id="edge18" class="edge">
<title>Node50&#45;&gt;Node51</title>
<path fill="none" stroke="#191970" d="M1496.9326,-136.7545C1435.0033,-128.5425 1332.8716,-114.1775 1245.5,-98 1242.5626,-97.4561 1239.5608,-96.878 1236.5323,-96.2768"/>
<polygon fill="#191970" stroke="#191970" points="1496.5203,-140.2304 1506.8921,-138.0681 1497.4357,-133.2905 1496.5203,-140.2304"/>
</g>
<!-- Node52 -->
<g id="node19" class="node">
<title>Node52</title>
<g id="a_node19"><a xlink:href="../../d8/d16/examples_2laplace__stratimikos_2main_8cpp.html" target="_top" xlink:title="examples/laplace_stratimikos\l/main.cpp">
<polygon fill="#ffffff" stroke="#000000" points="1254.5,-67.5 1254.5,-97.5 1400.5,-97.5 1400.5,-67.5 1254.5,-67.5"/>
<text text-anchor="start" x="1262.5" y="-85.5" font-family="Helvetica,sans-Serif" font-size="10.00" fill="#000000">examples/laplace_stratimikos</text>
<text text-anchor="middle" x="1327.5" y="-74.5" font-family="Helvetica,sans-Serif" font-size="10.00" fill="#000000">/main.cpp</text>
</a>
</g>
</g>
<!-- Node50&#45;&gt;Node52 -->
<g id="edge19" class="edge">
<title>Node50&#45;&gt;Node52</title>
<path fill="none" stroke="#191970" d="M1508.4061,-131.7289C1472.2616,-121.8931 1421.3836,-108.048 1382.7858,-97.5446"/>
<polygon fill="#191970" stroke="#191970" points="1507.6193,-135.142 1518.1875,-134.3906 1509.4574,-128.3876 1507.6193,-135.142"/>
</g>
<!-- Node53 -->
<g id="node20" class="node">
<title>Node53</title>
<g id="a_node20"><a xlink:href="../../dd/d3d/dirichlet_inlet_outlet___polyconvex_h_g_o_8hpp.html" target="_top" xlink:title="src/dirichletInletOutlet\l_PolyconvexHGO.hpp">
<polygon fill="#ffffff" stroke="#000000" points="1418.5,-67.5 1418.5,-97.5 1532.5,-97.5 1532.5,-67.5 1418.5,-67.5"/>
<text text-anchor="start" x="1426.5" y="-85.5" font-family="Helvetica,sans-Serif" font-size="10.00" fill="#000000">src/dirichletInletOutlet</text>
<text text-anchor="middle" x="1475.5" y="-74.5" font-family="Helvetica,sans-Serif" font-size="10.00" fill="#000000">_PolyconvexHGO.hpp</text>
</a>
</g>
</g>
<!-- Node50&#45;&gt;Node53 -->
<g id="edge20" class="edge">
<title>Node50&#45;&gt;Node53</title>
<path fill="none" stroke="#191970" d="M1533.2561,-128.0385C1521.3203,-118.6276 1506.3083,-106.7911 1494.5809,-97.5446"/>
<polygon fill="#191970" stroke="#191970" points="1531.2927,-130.9475 1541.3125,-134.3906 1535.6268,-125.4506 1531.2927,-130.9475"/>
</g>
<!-- Node55 -->
<g id="node22" class="node">
<title>Node55</title>
<g id="a_node22"><a xlink:href="../../d5/d0d/dirichlet_strip_elongation___stochastic_polyconvex_h_g_o_8hpp.html" target="_top" xlink:title="src/dirichletStripElongation\l_StochasticPolyconvexHGO.hpp">
<polygon fill="#ffffff" stroke="#000000" points="1551,-67.5 1551,-97.5 1712,-97.5 1712,-67.5 1551,-67.5"/>
<text text-anchor="start" x="1559" y="-85.5" font-family="Helvetica,sans-Serif" font-size="10.00" fill="#000000">src/dirichletStripElongation</text>
<text text-anchor="middle" x="1631.5" y="-74.5" font-family="Helvetica,sans-Serif" font-size="10.00" fill="#000000">_StochasticPolyconvexHGO.hpp</text>
</a>
</g>
</g>
<!-- Node50&#45;&gt;Node55 -->
<g id="edge22" class="edge">
<title>Node50&#45;&gt;Node55</title>
<path fill="none" stroke="#191970" d="M1573.7439,-128.0385C1585.6797,-118.6276 1600.6917,-106.7911 1612.4191,-97.5446"/>
<polygon fill="#191970" stroke="#191970" points="1571.3732,-125.4506 1565.6875,-134.3906 1575.7073,-130.9475 1571.3732,-125.4506"/>
</g>
<!-- Node57 -->
<g id="node24" class="node">
<title>Node57</title>
<g id="a_node24"><a xlink:href="../../dc/d31/laplacepp_8cpp.html" target="_top" xlink:title="src/laplacepp.cpp">
<polygon fill="#ffffff" stroke="#000000" points="1730,-73 1730,-92 1823,-92 1823,-73 1730,-73"/>
<text text-anchor="middle" x="1776.5" y="-80" font-family="Helvetica,sans-Serif" font-size="10.00" fill="#000000">src/laplacepp.cpp</text>
</a>
</g>
</g>
<!-- Node50&#45;&gt;Node57 -->
<g id="edge24" class="edge">
<title>Node50&#45;&gt;Node57</title>
<path fill="none" stroke="#191970" d="M1598.0272,-131.7512C1631.6724,-122.4919 1678.9927,-109.4609 1720.5,-98 1727.5012,-96.0668 1734.9939,-93.995 1742.1479,-92.0154"/>
<polygon fill="#191970" stroke="#191970" points="1596.7592,-128.4699 1588.0462,-134.4977 1598.6164,-135.2191 1596.7592,-128.4699"/>
</g>
<!-- Node58 -->
<g id="node25" class="node">
<title>Node58</title>
<g id="a_node25"><a xlink:href="../../d6/d14/neumann_inner_surface___polyconvex_h_g_o_8hpp.html" target="_top" xlink:title="src/neumannInnerSurface\l_PolyconvexHGO.hpp">
<polygon fill="#ffffff" stroke="#000000" points="1841.5,-67.5 1841.5,-97.5 1969.5,-97.5 1969.5,-67.5 1841.5,-67.5"/>
<text text-anchor="start" x="1849.5" y="-85.5" font-family="Helvetica,sans-Serif" font-size="10.00" fill="#000000">src/neumannInnerSurface</text>
<text text-anchor="middle" x="1905.5" y="-74.5" font-family="Helvetica,sans-Serif" font-size="10.00" fill="#000000">_PolyconvexHGO.hpp</text>
</a>
</g>
</g>
<!-- Node50&#45;&gt;Node58 -->
<g id="edge25" class="edge">
<title>Node50&#45;&gt;Node58</title>
<path fill="none" stroke="#191970" d="M1610.4589,-135.3004C1666.739,-126.5338 1755.2269,-112.2918 1831.5,-98 1834.7254,-97.3956 1838.0265,-96.7615 1841.3579,-96.1092"/>
<polygon fill="#191970" stroke="#191970" points="1609.6797,-131.8794 1600.3351,-136.8724 1610.7538,-138.7965 1609.6797,-131.8794"/>
</g>
<!-- Node61 -->
<g id="node28" class="node">
<title>Node61</title>
<g id="a_node28"><a xlink:href="../../dc/da1/neumann_inner_surface___stochastic_polyconvex_h_g_o_8hpp.html" target="_top" xlink:title="src/neumannInnerSurface\l_StochasticPolyconvexHGO.hpp">
<polygon fill="#ffffff" stroke="#000000" points="2044,-67.5 2044,-97.5 2205,-97.5 2205,-67.5 2044,-67.5"/>
<text text-anchor="start" x="2052" y="-85.5" font-family="Helvetica,sans-Serif" font-size="10.00" fill="#000000">src/neumannInnerSurface</text>
<text text-anchor="middle" x="2124.5" y="-74.5" font-family="Helvetica,sans-Serif" font-size="10.00" fill="#000000">_StochasticPolyconvexHGO.hpp</text>
</a>
</g>
</g>
<!-- Node50&#45;&gt;Node61 -->
<g id="edge28" class="edge">
<title>Node50&#45;&gt;Node61</title>
<path fill="none" stroke="#191970" d="M1610.3254,-137.8796C1712.2755,-126.899 1926.5186,-103.8237 2043.7072,-91.2019"/>
<polygon fill="#191970" stroke="#191970" points="1609.795,-134.4164 1600.2273,-138.9672 1610.5447,-141.3761 1609.795,-134.4164"/>
</g>
<!-- Node54 -->
<g id="node21" class="node">
<title>Node54</title>
<g id="a_node21"><a xlink:href="../../de/da1/arteries_2deterministic__dirichlet_2main_8cpp.html" target="_top" xlink:title="arteries/deterministic\l_dirichlet/main.cpp">
<polygon fill="#ffffff" stroke="#000000" points="1422,-.5 1422,-30.5 1529,-30.5 1529,-.5 1422,-.5"/>
<text text-anchor="start" x="1430" y="-18.5" font-family="Helvetica,sans-Serif" font-size="10.00" fill="#000000">arteries/deterministic</text>
<text text-anchor="middle" x="1475.5" y="-7.5" font-family="Helvetica,sans-Serif" font-size="10.00" fill="#000000">_dirichlet/main.cpp</text>
</a>
</g>
</g>
<!-- Node53&#45;&gt;Node54 -->
<g id="edge21" class="edge">
<title>Node53&#45;&gt;Node54</title>
<path fill="none" stroke="#191970" d="M1475.5,-57.0249C1475.5,-48.128 1475.5,-38.4287 1475.5,-30.6432"/>
<polygon fill="#191970" stroke="#191970" points="1472.0001,-57.2966 1475.5,-67.2967 1479.0001,-57.2967 1472.0001,-57.2966"/>
</g>
<!-- Node56 -->
<g id="node23" class="node">
<title>Node56</title>
<g id="a_node23"><a xlink:href="../../dc/dba/arteries_2strip__dirichlet_2main_8cpp.html" target="_top" xlink:title="arteries/strip_dirichlet\l/main.cpp">
<polygon fill="#ffffff" stroke="#000000" points="1576.5,-.5 1576.5,-30.5 1686.5,-30.5 1686.5,-.5 1576.5,-.5"/>
<text text-anchor="start" x="1584.5" y="-18.5" font-family="Helvetica,sans-Serif" font-size="10.00" fill="#000000">arteries/strip_dirichlet</text>
<text text-anchor="middle" x="1631.5" y="-7.5" font-family="Helvetica,sans-Serif" font-size="10.00" fill="#000000">/main.cpp</text>
</a>
</g>
</g>
<!-- Node55&#45;&gt;Node56 -->
<g id="edge23" class="edge">
<title>Node55&#45;&gt;Node56</title>
<path fill="none" stroke="#191970" d="M1631.5,-57.0249C1631.5,-48.128 1631.5,-38.4287 1631.5,-30.6432"/>
<polygon fill="#191970" stroke="#191970" points="1628.0001,-57.2966 1631.5,-67.2967 1635.0001,-57.2967 1628.0001,-57.2966"/>
</g>
<!-- Node59 -->
<g id="node26" class="node">
<title>Node59</title>
<g id="a_node26"><a xlink:href="../../d9/d81/arteries_2deterministic__neumann_2main_8cpp.html" target="_top" xlink:title="arteries/deterministic\l_neumann/main.cpp">
<polygon fill="#ffffff" stroke="#000000" points="1712,-.5 1712,-30.5 1819,-30.5 1819,-.5 1712,-.5"/>
<text text-anchor="start" x="1720" y="-18.5" font-family="Helvetica,sans-Serif" font-size="10.00" fill="#000000">arteries/deterministic</text>
<text text-anchor="middle" x="1765.5" y="-7.5" font-family="Helvetica,sans-Serif" font-size="10.00" fill="#000000">_neumann/main.cpp</text>
</a>
</g>
</g>
<!-- Node58&#45;&gt;Node59 -->
<g id="edge26" class="edge">
<title>Node58&#45;&gt;Node59</title>
<path fill="none" stroke="#191970" d="M1864.862,-63.0518C1843.3498,-52.7567 1817.319,-40.2991 1797.2983,-30.7177"/>
<polygon fill="#191970" stroke="#191970" points="1863.5501,-66.3041 1874.0813,-67.4639 1866.5719,-59.9899 1863.5501,-66.3041"/>
</g>
<!-- Node60 -->
<g id="node27" class="node">
<title>Node60</title>
<g id="a_node27"><a xlink:href="../../db/db7/arteries_2vonmises_2main_8cpp.html" target="_top" xlink:title="arteries/vonmises/main.cpp">
<polygon fill="#ffffff" stroke="#000000" points="1837,-6 1837,-25 1974,-25 1974,-6 1837,-6"/>
<text text-anchor="middle" x="1905.5" y="-13" font-family="Helvetica,sans-Serif" font-size="10.00" fill="#000000">arteries/vonmises/main.cpp</text>
</a>
</g>
</g>
<!-- Node58&#45;&gt;Node60 -->
<g id="edge27" class="edge">
<title>Node58&#45;&gt;Node60</title>
<path fill="none" stroke="#191970" d="M1905.5,-57.1199C1905.5,-45.9072 1905.5,-33.4031 1905.5,-25.055"/>
<polygon fill="#191970" stroke="#191970" points="1902.0001,-57.2966 1905.5,-67.2967 1909.0001,-57.2967 1902.0001,-57.2966"/>
</g>
<!-- Node62 -->
<g id="node29" class="node">
<title>Node62</title>
<g id="a_node29"><a xlink:href="../../d5/da5/arteries_2boost__gmrf_2gmrf__gauss_2main_8cpp.html" target="_top" xlink:title="arteries/boost_gmrf\l/gmrf_gauss/main.cpp">
<polygon fill="#ffffff" stroke="#000000" points="1992,-.5 1992,-30.5 2105,-30.5 2105,-.5 1992,-.5"/>
<text text-anchor="start" x="2000" y="-18.5" font-family="Helvetica,sans-Serif" font-size="10.00" fill="#000000">arteries/boost_gmrf</text>
<text text-anchor="middle" x="2048.5" y="-7.5" font-family="Helvetica,sans-Serif" font-size="10.00" fill="#000000">/gmrf_gauss/main.cpp</text>
</a>
</g>
</g>
<!-- Node61&#45;&gt;Node62 -->
<g id="edge29" class="edge">
<title>Node61&#45;&gt;Node62</title>
<path fill="none" stroke="#191970" d="M2099.5408,-60.4965C2088.4503,-50.7193 2075.6733,-39.4554 2065.6773,-30.6432"/>
<polygon fill="#191970" stroke="#191970" points="2097.4386,-63.3091 2107.2544,-67.2967 2102.0677,-58.0582 2097.4386,-63.3091"/>
</g>
<!-- Node63 -->
<g id="node30" class="node">
<title>Node63</title>
<g id="a_node30"><a xlink:href="../../d2/dbe/arteries_2boost__gmrf_2gmrf__nodes_2main_8cpp.html" target="_top" xlink:title="arteries/boost_gmrf\l/gmrf_nodes/main.cpp">
<polygon fill="#ffffff" stroke="#000000" points="2123,-.5 2123,-30.5 2236,-30.5 2236,-.5 2123,-.5"/>
<text text-anchor="start" x="2131" y="-18.5" font-family="Helvetica,sans-Serif" font-size="10.00" fill="#000000">arteries/boost_gmrf</text>
<text text-anchor="middle" x="2179.5" y="-7.5" font-family="Helvetica,sans-Serif" font-size="10.00" fill="#000000">/gmrf_nodes/main.cpp</text>
</a>
</g>
</g>
<!-- Node61&#45;&gt;Node63 -->
<g id="edge30" class="edge">
<title>Node61&#45;&gt;Node63</title>
<path fill="none" stroke="#191970" d="M2143.503,-59.3509C2151.3037,-49.8482 2160.116,-39.1132 2167.069,-30.6432"/>
<polygon fill="#191970" stroke="#191970" points="2140.6201,-57.3466 2136.9804,-67.2967 2146.0306,-61.7881 2140.6201,-57.3466"/>
</g>
<!-- Node64 -->
<g id="node31" class="node">
<title>Node64</title>
<g id="a_node31"><a xlink:href="../../da/df3/arteries_2gmrf__neumann_2main_8cpp.html" target="_top" xlink:title="arteries/gmrf_neumann\l/main.cpp">
<polygon fill="#ffffff" stroke="#000000" points="2254.5,-.5 2254.5,-30.5 2370.5,-30.5 2370.5,-.5 2254.5,-.5"/>
<text text-anchor="start" x="2262.5" y="-18.5" font-family="Helvetica,sans-Serif" font-size="10.00" fill="#000000">arteries/gmrf_neumann</text>
<text text-anchor="middle" x="2312.5" y="-7.5" font-family="Helvetica,sans-Serif" font-size="10.00" fill="#000000">/main.cpp</text>
</a>
</g>
</g>
<!-- Node61&#45;&gt;Node64 -->
<g id="edge31" class="edge">
<title>Node61&#45;&gt;Node64</title>
<path fill="none" stroke="#191970" d="M2176.4041,-64.0023C2205.9004,-53.4903 2242.3663,-40.4945 2270.1251,-30.6017"/>
<polygon fill="#191970" stroke="#191970" points="2174.9356,-60.8099 2166.6909,-67.4639 2177.2855,-67.4037 2174.9356,-60.8099"/>
</g>
</g>
</svg>
        <g id="navigator" transform="translate(0 0)" fill="#404254">
                <rect fill="#f2f5e9" fill-opacity="0.5" stroke="#606060" stroke-width=".5" x="0" y="0" width="60" height="60"/>
                <use id="zoomplus" xlink:href="#zoomPlus" x="17" y="9" onmousedown="handleZoom(evt,'in')"/>
                <use id="zoomminus" xlink:href="#zoomMin" x="42" y="9" onmousedown="handleZoom(evt,'out')"/>
                <use id="reset" xlink:href="#resetDef" x="30" y="36" onmousedown="handleReset()"/>
                <g id="arrowUp" xlink:href="#dirArrow" transform="translate(30 24)" onmousedown="handlePan(0,-1)">
                  <use xlink:href="#rim" fill="#404040">
                        <set attributeName="fill" to="#808080" begin="arrowUp.mouseover" end="arrowUp.mouseout"/>
                  </use>
                  <path fill="none" stroke="white" stroke-width="1.5" d="M0,-3.0v7 M-2.5,-0.5L0,-3.0L2.5,-0.5"/>
                </g>
                <g id="arrowRight" xlink:href="#dirArrow" transform="rotate(90) translate(36 -43)" onmousedown="handlePan(1,0)">
                  <use xlink:href="#rim" fill="#404040">
                        <set attributeName="fill" to="#808080" begin="arrowRight.mouseover" end="arrowRight.mouseout"/>
                  </use>
                  <path fill="none" stroke="white" stroke-width="1.5" d="M0,-3.0v7 M-2.5,-0.5L0,-3.0L2.5,-0.5"/>
                </g>
                <g id="arrowDown" xlink:href="#dirArrow" transform="rotate(180) translate(-30 -48)" onmousedown="handlePan(0,1)">
                  <use xlink:href="#rim" fill="#404040">
                        <set attributeName="fill" to="#808080" begin="arrowDown.mouseover" end="arrowDown.mouseout"/>
                  </use>
                  <path fill="none" stroke="white" stroke-width="1.5" d="M0,-3.0v7 M-2.5,-0.5L0,-3.0L2.5,-0.5"/>
                </g>
                <g id="arrowLeft" xlink:href="#dirArrow" transform="rotate(270) translate(-36 17)" onmousedown="handlePan(-1,0)">
                  <use xlink:href="#rim" fill="#404040">
                        <set attributeName="fill" to="#808080" begin="arrowLeft.mouseover" end="arrowLeft.mouseout"/>
                  </use>
                  <path fill="none" stroke="white" stroke-width="1.5" d="M0,-3.0v7 M-2.5,-0.5L0,-3.0L2.5,-0.5"/>
                </g>
        </g>
        <svg viewBox="0 0 15 15" width="100%" height="30px" preserveAspectRatio="xMaxYMin meet">
         <g id="arrow_out" transform="scale(0.3 0.3)">
          <a xlink:href="linear_finite_element_problem_8hpp__dep__incl_org.svg" target="_base">
           <rect id="button" ry="5" rx="5" y="6" x="6" height="38" width="38"
                fill="#f2f5e9" fill-opacity="0.5" stroke="#606060" stroke-width="1.0"/>
           <path id="arrow"
             d="M 11.500037,31.436501 C 11.940474,20.09759 22.043105,11.32322 32.158766,21.979434 L 37.068811,17.246167 C 37.068811,17.246167 37.088388,32 37.088388,32 L 22.160133,31.978069 C 22.160133,31.978069 26.997745,27.140456 26.997745,27.140456 C 18.528582,18.264221 13.291696,25.230495 11.500037,31.436501 z"
             style="fill:#404040;"/>
          </a>
         </g>
        </svg>
</svg>
