<?xml version="1.0" encoding="UTF-8" standalone="no"?>
<!DOCTYPE svg PUBLIC "-//W3C//DTD SVG 1.1//EN"
 "http://www.w3.org/Graphics/SVG/1.1/DTD/svg11.dtd">
<!-- Generated by graphviz version 2.40.1 (20161225.0304)
 -->
<!-- Title: src/linearFiniteElementProblem.hpp Pages: 1 -->
<svg width="2121pt" height="218pt"
 viewBox="0.00 0.00 2120.50 218.00" xmlns="http://www.w3.org/2000/svg" xmlns:xlink="http://www.w3.org/1999/xlink">
<g id="graph0" class="graph" transform="scale(1 1) rotate(0) translate(4 214)">
<title>src/linearFiniteElementProblem.hpp</title>
<polygon fill="#ffffff" stroke="transparent" points="-4,4 -4,-214 2116.5,-214 2116.5,4 -4,4"/>
<!-- Node34 -->
<g id="node1" class="node">
<title>Node34</title>
<polygon fill="#bfbfbf" stroke="#000000" points="768,-190.5 768,-209.5 939,-209.5 939,-190.5 768,-190.5"/>
<text text-anchor="middle" x="853.5" y="-197.5" font-family="Helvetica,sans-Serif" font-size="10.00" fill="#000000">src/linearFiniteElementProblem.hpp</text>
</g>
<!-- Node35 -->
<g id="node2" class="node">
<title>Node35</title>
<g id="a_node2"><a xlink:href="../../d5/dfe/linearized_elasticity_8hpp.html" target="_top" xlink:title="src/linearizedElasticity.hpp">
<polygon fill="#ffffff" stroke="#000000" points="423.5,-134.5 423.5,-153.5 557.5,-153.5 557.5,-134.5 423.5,-134.5"/>
<text text-anchor="middle" x="490.5" y="-141.5" font-family="Helvetica,sans-Serif" font-size="10.00" fill="#000000">src/linearizedElasticity.hpp</text>
</a>
</g>
</g>
<!-- Node34&#45;&gt;Node35 -->
<g id="edge1" class="edge">
<title>Node34&#45;&gt;Node35</title>
<path fill="none" stroke="#191970" d="M781.4528,-188.8853C714.4552,-178.5496 615.6995,-163.3145 552.2338,-153.5237"/>
<polygon fill="#191970" stroke="#191970" points="781.0938,-192.3712 791.5105,-190.4369 782.1611,-185.4531 781.0938,-192.3712"/>
</g>
<!-- Node47 -->
<g id="node14" class="node">
<title>Node47</title>
<g id="a_node14"><a xlink:href="../../d5/d3f/laplacepp_8hpp.html" target="_top" xlink:title="src/laplacepp.hpp">
<polygon fill="#ffffff" stroke="#000000" points="1249,-134.5 1249,-153.5 1342,-153.5 1342,-134.5 1249,-134.5"/>
<text text-anchor="middle" x="1295.5" y="-141.5" font-family="Helvetica,sans-Serif" font-size="10.00" fill="#000000">src/laplacepp.hpp</text>
</a>
</g>
</g>
<!-- Node34&#45;&gt;Node47 -->
<g id="edge13" class="edge">
<title>Node34&#45;&gt;Node47</title>
<path fill="none" stroke="#191970" d="M938.8969,-189.1805C1031.293,-177.4742 1175.2359,-159.2371 1248.7912,-149.9179"/>
<polygon fill="#191970" stroke="#191970" points="938.2104,-185.7394 928.7296,-190.4686 939.0903,-192.6839 938.2104,-185.7394"/>
</g>
<!-- Node36 -->
<g id="node3" class="node">
<title>Node36</title>
<g id="a_node3"><a xlink:href="../../de/d5d/linear_patch_test_8hpp.html" target="_top" xlink:title="cee530/linearpatchtest\l/linearPatchTest.hpp">
<polygon fill="#ffffff" stroke="#000000" points="0,-67.5 0,-97.5 115,-97.5 115,-67.5 0,-67.5"/>
<text text-anchor="start" x="8" y="-85.5" font-family="Helvetica,sans-Serif" font-size="10.00" fill="#000000">cee530/linearpatchtest</text>
<text text-anchor="middle" x="57.5" y="-74.5" font-family="Helvetica,sans-Serif" font-size="10.00" fill="#000000">/linearPatchTest.hpp</text>
</a>
</g>
</g>
<!-- Node35&#45;&gt;Node36 -->
<g id="edge2" class="edge">
<title>Node35&#45;&gt;Node36</title>
<path fill="none" stroke="#191970" d="M412.9707,-136.6931C338.4433,-129.1016 222.7983,-115.8313 123.5,-98 120.7197,-97.5007 117.8805,-96.9588 115.0181,-96.3867"/>
<polygon fill="#191970" stroke="#191970" points="412.907,-140.2044 423.208,-137.7265 413.6101,-133.2398 412.907,-140.2044"/>
</g>
<!-- Node38 -->
<g id="node5" class="node">
<title>Node38</title>
<g id="a_node5"><a xlink:href="../../d4/d56/cee530_2manufactured_2manufactured_solution_8hpp.html" target="_top" xlink:title="cee530/manufactured\l/manufacturedSolution.hpp">
<polygon fill="#ffffff" stroke="#000000" points="133,-67.5 133,-97.5 266,-97.5 266,-67.5 133,-67.5"/>
<text text-anchor="start" x="141" y="-85.5" font-family="Helvetica,sans-Serif" font-size="10.00" fill="#000000">cee530/manufactured</text>
<text text-anchor="middle" x="199.5" y="-74.5" font-family="Helvetica,sans-Serif" font-size="10.00" fill="#000000">/manufacturedSolution.hpp</text>
</a>
</g>
</g>
<!-- Node35&#45;&gt;Node38 -->
<g id="edge4" class="edge">
<title>Node35&#45;&gt;Node38</title>
<path fill="none" stroke="#191970" d="M435.4327,-132.3621C387.3328,-122.1966 317.3844,-107.4137 266.1383,-96.5834"/>
<polygon fill="#191970" stroke="#191970" points="434.8429,-135.8147 445.3505,-134.4581 436.2904,-128.9659 434.8429,-135.8147"/>
</g>
<!-- Node40 -->
<g id="node7" class="node">
<title>Node40</title>
<g id="a_node7"><a xlink:href="../../d4/d57/cee_s_b_v_p_8hpp.html" target="_top" xlink:title="cee530/sbvp/ceeSBVP.hpp">
<polygon fill="#ffffff" stroke="#000000" points="284,-73 284,-92 421,-92 421,-73 284,-73"/>
<text text-anchor="middle" x="352.5" y="-80" font-family="Helvetica,sans-Serif" font-size="10.00" fill="#000000">cee530/sbvp/ceeSBVP.hpp</text>
</a>
</g>
</g>
<!-- Node35&#45;&gt;Node40 -->
<g id="edge6" class="edge">
<title>Node35&#45;&gt;Node40</title>
<path fill="none" stroke="#191970" d="M459.5106,-130.1895C433.4378,-118.5701 396.8398,-102.2601 373.9111,-92.0419"/>
<polygon fill="#191970" stroke="#191970" points="458.3787,-133.5169 468.9375,-134.3906 461.2282,-127.1231 458.3787,-133.5169"/>
</g>
<!-- Node42 -->
<g id="node9" class="node">
<title>Node42</title>
<g id="a_node9"><a xlink:href="../../dc/d64/asme_s_b_v_p_8hpp.html" target="_top" xlink:title="src/asmeSBVP.hpp">
<polygon fill="#ffffff" stroke="#000000" points="439,-73 439,-92 542,-92 542,-73 439,-73"/>
<text text-anchor="middle" x="490.5" y="-80" font-family="Helvetica,sans-Serif" font-size="10.00" fill="#000000">src/asmeSBVP.hpp</text>
</a>
</g>
</g>
<!-- Node35&#45;&gt;Node42 -->
<g id="edge8" class="edge">
<title>Node35&#45;&gt;Node42</title>
<path fill="none" stroke="#191970" d="M490.5,-124.2462C490.5,-113.5519 490.5,-100.814 490.5,-92.2449"/>
<polygon fill="#191970" stroke="#191970" points="487.0001,-124.3906 490.5,-134.3906 494.0001,-124.3907 487.0001,-124.3906"/>
</g>
<!-- Node44 -->
<g id="node11" class="node">
<title>Node44</title>
<g id="a_node11"><a xlink:href="../../df/d96/linearized_elasticity_8cpp.html" target="_top" xlink:title="src/linearizedElasticity.cpp">
<polygon fill="#ffffff" stroke="#000000" points="560.5,-73 560.5,-92 694.5,-92 694.5,-73 560.5,-73"/>
<text text-anchor="middle" x="627.5" y="-80" font-family="Helvetica,sans-Serif" font-size="10.00" fill="#000000">src/linearizedElasticity.cpp</text>
</a>
</g>
</g>
<!-- Node35&#45;&gt;Node44 -->
<g id="edge10" class="edge">
<title>Node35&#45;&gt;Node44</title>
<path fill="none" stroke="#191970" d="M521.2648,-130.1895C547.1487,-118.5701 583.4815,-102.2601 606.2441,-92.0419"/>
<polygon fill="#191970" stroke="#191970" points="519.5958,-127.1022 511.9063,-134.3906 522.4626,-133.4883 519.5958,-127.1022"/>
</g>
<!-- Node45 -->
<g id="node12" class="node">
<title>Node45</title>
<g id="a_node12"><a xlink:href="../../d1/dee/phase_field_linearized_elasticity_8hpp.html" target="_top" xlink:title="src/phaseFieldLinearized\lElasticity.hpp">
<polygon fill="#ffffff" stroke="#000000" points="713,-67.5 713,-97.5 838,-97.5 838,-67.5 713,-67.5"/>
<text text-anchor="start" x="721" y="-85.5" font-family="Helvetica,sans-Serif" font-size="10.00" fill="#000000">src/phaseFieldLinearized</text>
<text text-anchor="middle" x="775.5" y="-74.5" font-family="Helvetica,sans-Serif" font-size="10.00" fill="#000000">Elasticity.hpp</text>
</a>
</g>
</g>
<!-- Node35&#45;&gt;Node45 -->
<g id="edge11" class="edge">
<title>Node35&#45;&gt;Node45</title>
<path fill="none" stroke="#191970" d="M544.5992,-132.326C592.5427,-121.9803 662.5535,-106.8727 712.9015,-96.0081"/>
<polygon fill="#191970" stroke="#191970" points="543.7553,-128.9274 534.7185,-134.4581 545.2318,-135.7699 543.7553,-128.9274"/>
</g>
<!-- Node37 -->
<g id="node4" class="node">
<title>Node37</title>
<g id="a_node4"><a xlink:href="../../d0/d30/cee530_2linearpatchtest_2main_8cpp.html" target="_top" xlink:title="cee530/linearpatchtest\l/main.cpp">
<polygon fill="#ffffff" stroke="#000000" points="0,-.5 0,-30.5 115,-30.5 115,-.5 0,-.5"/>
<text text-anchor="start" x="8" y="-18.5" font-family="Helvetica,sans-Serif" font-size="10.00" fill="#000000">cee530/linearpatchtest</text>
<text text-anchor="middle" x="57.5" y="-7.5" font-family="Helvetica,sans-Serif" font-size="10.00" fill="#000000">/main.cpp</text>
</a>
</g>
</g>
<!-- Node36&#45;&gt;Node37 -->
<g id="edge3" class="edge">
<title>Node36&#45;&gt;Node37</title>
<path fill="none" stroke="#191970" d="M57.5,-57.0249C57.5,-48.128 57.5,-38.4287 57.5,-30.6432"/>
<polygon fill="#191970" stroke="#191970" points="54.0001,-57.2966 57.5,-67.2967 61.0001,-57.2967 54.0001,-57.2966"/>
</g>
<!-- Node39 -->
<g id="node6" class="node">
<title>Node39</title>
<g id="a_node6"><a xlink:href="../../d8/d17/cee530_2manufactured_2main_8cpp.html" target="_top" xlink:title="cee530/manufactured\l/main.cpp">
<polygon fill="#ffffff" stroke="#000000" points="144.5,-.5 144.5,-30.5 254.5,-30.5 254.5,-.5 144.5,-.5"/>
<text text-anchor="start" x="152.5" y="-18.5" font-family="Helvetica,sans-Serif" font-size="10.00" fill="#000000">cee530/manufactured</text>
<text text-anchor="middle" x="199.5" y="-7.5" font-family="Helvetica,sans-Serif" font-size="10.00" fill="#000000">/main.cpp</text>
</a>
</g>
</g>
<!-- Node38&#45;&gt;Node39 -->
<g id="edge5" class="edge">
<title>Node38&#45;&gt;Node39</title>
<path fill="none" stroke="#191970" d="M199.5,-57.0249C199.5,-48.128 199.5,-38.4287 199.5,-30.6432"/>
<polygon fill="#191970" stroke="#191970" points="196.0001,-57.2966 199.5,-67.2967 203.0001,-57.2967 196.0001,-57.2966"/>
</g>
<!-- Node41 -->
<g id="node8" class="node">
<title>Node41</title>
<g id="a_node8"><a xlink:href="../../dc/d51/cee530_2sbvp_2main_8cpp.html" target="_top" xlink:title="cee530/sbvp/main.cpp">
<polygon fill="#ffffff" stroke="#000000" points="295,-6 295,-25 410,-25 410,-6 295,-6"/>
<text text-anchor="middle" x="352.5" y="-13" font-family="Helvetica,sans-Serif" font-size="10.00" fill="#000000">cee530/sbvp/main.cpp</text>
</a>
</g>
</g>
<!-- Node40&#45;&gt;Node41 -->
<g id="edge7" class="edge">
<title>Node40&#45;&gt;Node41</title>
<path fill="none" stroke="#191970" d="M352.5,-62.6079C352.5,-50.214 352.5,-34.8263 352.5,-25.0817"/>
<polygon fill="#191970" stroke="#191970" points="349.0001,-62.9005 352.5,-72.9005 356.0001,-62.9006 349.0001,-62.9005"/>
</g>
<!-- Node43 -->
<g id="node10" class="node">
<title>Node43</title>
<g id="a_node10"><a xlink:href="../../d2/ded/asme_2linearelaslam_2main_8cpp.html" target="_top" xlink:title="asme/linearelaslam\l/main.cpp">
<polygon fill="#ffffff" stroke="#000000" points="440,-.5 440,-30.5 541,-30.5 541,-.5 440,-.5"/>
<text text-anchor="start" x="448" y="-18.5" font-family="Helvetica,sans-Serif" font-size="10.00" fill="#000000">asme/linearelaslam</text>
<text text-anchor="middle" x="490.5" y="-7.5" font-family="Helvetica,sans-Serif" font-size="10.00" fill="#000000">/main.cpp</text>
</a>
</g>
</g>
<!-- Node42&#45;&gt;Node43 -->
<g id="edge9" class="edge">
<title>Node42&#45;&gt;Node43</title>
<path fill="none" stroke="#191970" d="M490.5,-62.7758C490.5,-52.4641 490.5,-40.0437 490.5,-30.5218"/>
<polygon fill="#191970" stroke="#191970" points="487.0001,-62.9005 490.5,-72.9005 494.0001,-62.9006 487.0001,-62.9005"/>
</g>
<!-- Node46 -->
<g id="node13" class="node">
<title>Node46</title>
<g id="a_node13"><a xlink:href="../../d4/d66/phase_field_linearized_elasticity_8cpp.html" target="_top" xlink:title="src/phaseFieldLinearized\lElasticity.cpp">
<polygon fill="#ffffff" stroke="#000000" points="713,-.5 713,-30.5 838,-30.5 838,-.5 713,-.5"/>
<text text-anchor="start" x="721" y="-18.5" font-family="Helvetica,sans-Serif" font-size="10.00" fill="#000000">src/phaseFieldLinearized</text>
<text text-anchor="middle" x="775.5" y="-7.5" font-family="Helvetica,sans-Serif" font-size="10.00" fill="#000000">Elasticity.cpp</text>
</a>
</g>
</g>
<!-- Node45&#45;&gt;Node46 -->
<g id="edge12" class="edge">
<title>Node45&#45;&gt;Node46</title>
<path fill="none" stroke="#191970" d="M775.5,-57.0249C775.5,-48.128 775.5,-38.4287 775.5,-30.6432"/>
<polygon fill="#191970" stroke="#191970" points="772.0001,-57.2966 775.5,-67.2967 779.0001,-57.2967 772.0001,-57.2966"/>
</g>
<!-- Node48 -->
<g id="node15" class="node">
<title>Node48</title>
<g id="a_node15"><a xlink:href="../../d4/d0f/examples_2laplace__aztec_2main_8cpp.html" target="_top" xlink:title="examples/laplace_aztec\l/main.cpp">
<polygon fill="#ffffff" stroke="#000000" points="856.5,-67.5 856.5,-97.5 978.5,-97.5 978.5,-67.5 856.5,-67.5"/>
<text text-anchor="start" x="864.5" y="-85.5" font-family="Helvetica,sans-Serif" font-size="10.00" fill="#000000">examples/laplace_aztec</text>
<text text-anchor="middle" x="917.5" y="-74.5" font-family="Helvetica,sans-Serif" font-size="10.00" fill="#000000">/main.cpp</text>
</a>
</g>
</g>
<!-- Node47&#45;&gt;Node48 -->
<g id="edge14" class="edge">
<title>Node47&#45;&gt;Node48</title>
<path fill="none" stroke="#191970" d="M1238.9326,-136.7545C1177.0033,-128.5425 1074.8716,-114.1775 987.5,-98 984.5626,-97.4561 981.5608,-96.878 978.5323,-96.2768"/>
<polygon fill="#191970" stroke="#191970" points="1238.5203,-140.2304 1248.8921,-138.0681 1239.4357,-133.2905 1238.5203,-140.2304"/>
</g>
<!-- Node49 -->
<g id="node16" class="node">
<title>Node49</title>
<g id="a_node16"><a xlink:href="../../d8/d16/examples_2laplace__stratimikos_2main_8cpp.html" target="_top" xlink:title="examples/laplace_stratimikos\l/main.cpp">
<polygon fill="#ffffff" stroke="#000000" points="996.5,-67.5 996.5,-97.5 1142.5,-97.5 1142.5,-67.5 996.5,-67.5"/>
<text text-anchor="start" x="1004.5" y="-85.5" font-family="Helvetica,sans-Serif" font-size="10.00" fill="#000000">examples/laplace_stratimikos</text>
<text text-anchor="middle" x="1069.5" y="-74.5" font-family="Helvetica,sans-Serif" font-size="10.00" fill="#000000">/main.cpp</text>
</a>
</g>
</g>
<!-- Node47&#45;&gt;Node49 -->
<g id="edge15" class="edge">
<title>Node47&#45;&gt;Node49</title>
<path fill="none" stroke="#191970" d="M1250.4061,-131.7289C1214.2616,-121.8931 1163.3836,-108.048 1124.7858,-97.5446"/>
<polygon fill="#191970" stroke="#191970" points="1249.6193,-135.142 1260.1875,-134.3906 1251.4574,-128.3876 1249.6193,-135.142"/>
</g>
<!-- Node50 -->
<g id="node17" class="node">
<title>Node50</title>
<g id="a_node17"><a xlink:href="../../dd/d3d/dirichlet_inlet_outlet___polyconvex_h_g_o_8hpp.html" target="_top" xlink:title="src/dirichletInletOutlet\l_PolyconvexHGO.hpp">
<polygon fill="#ffffff" stroke="#000000" points="1160.5,-67.5 1160.5,-97.5 1274.5,-97.5 1274.5,-67.5 1160.5,-67.5"/>
<text text-anchor="start" x="1168.5" y="-85.5" font-family="Helvetica,sans-Serif" font-size="10.00" fill="#000000">src/dirichletInletOutlet</text>
<text text-anchor="middle" x="1217.5" y="-74.5" font-family="Helvetica,sans-Serif" font-size="10.00" fill="#000000">_PolyconvexHGO.hpp</text>
</a>
</g>
</g>
<!-- Node47&#45;&gt;Node50 -->
<g id="edge16" class="edge">
<title>Node47&#45;&gt;Node50</title>
<path fill="none" stroke="#191970" d="M1275.2561,-128.0385C1263.3203,-118.6276 1248.3083,-106.7911 1236.5809,-97.5446"/>
<polygon fill="#191970" stroke="#191970" points="1273.2927,-130.9475 1283.3125,-134.3906 1277.6268,-125.4506 1273.2927,-130.9475"/>
</g>
<!-- Node52 -->
<g id="node19" class="node">
<title>Node52</title>
<g id="a_node19"><a xlink:href="../../d5/d0d/dirichlet_strip_elongation___stochastic_polyconvex_h_g_o_8hpp.html" target="_top" xlink:title="src/dirichletStripElongation\l_StochasticPolyconvexHGO.hpp">
<polygon fill="#ffffff" stroke="#000000" points="1293,-67.5 1293,-97.5 1454,-97.5 1454,-67.5 1293,-67.5"/>
<text text-anchor="start" x="1301" y="-85.5" font-family="Helvetica,sans-Serif" font-size="10.00" fill="#000000">src/dirichletStripElongation</text>
<text text-anchor="middle" x="1373.5" y="-74.5" font-family="Helvetica,sans-Serif" font-size="10.00" fill="#000000">_StochasticPolyconvexHGO.hpp</text>
</a>
</g>
</g>
<!-- Node47&#45;&gt;Node52 -->
<g id="edge18" class="edge">
<title>Node47&#45;&gt;Node52</title>
<path fill="none" stroke="#191970" d="M1315.7439,-128.0385C1327.6797,-118.6276 1342.6917,-106.7911 1354.4191,-97.5446"/>
<polygon fill="#191970" stroke="#191970" points="1313.3732,-125.4506 1307.6875,-134.3906 1317.7073,-130.9475 1313.3732,-125.4506"/>
</g>
<!-- Node54 -->
<g id="node21" class="node">
<title>Node54</title>
<g id="a_node21"><a xlink:href="../../dc/d31/laplacepp_8cpp.html" target="_top" xlink:title="src/laplacepp.cpp">
<polygon fill="#ffffff" stroke="#000000" points="1472,-73 1472,-92 1565,-92 1565,-73 1472,-73"/>
<text text-anchor="middle" x="1518.5" y="-80" font-family="Helvetica,sans-Serif" font-size="10.00" fill="#000000">src/laplacepp.cpp</text>
</a>
</g>
</g>
<!-- Node47&#45;&gt;Node54 -->
<g id="edge20" class="edge">
<title>Node47&#45;&gt;Node54</title>
<path fill="none" stroke="#191970" d="M1340.0272,-131.7512C1373.6724,-122.4919 1420.9927,-109.4609 1462.5,-98 1469.5012,-96.0668 1476.9939,-93.995 1484.1479,-92.0154"/>
<polygon fill="#191970" stroke="#191970" points="1338.7592,-128.4699 1330.0462,-134.4977 1340.6164,-135.2191 1338.7592,-128.4699"/>
</g>
<!-- Node55 -->
<g id="node22" class="node">
<title>Node55</title>
<g id="a_node22"><a xlink:href="../../d6/d14/neumann_inner_surface___polyconvex_h_g_o_8hpp.html" target="_top" xlink:title="src/neumannInnerSurface\l_PolyconvexHGO.hpp">
<polygon fill="#ffffff" stroke="#000000" points="1583.5,-67.5 1583.5,-97.5 1711.5,-97.5 1711.5,-67.5 1583.5,-67.5"/>
<text text-anchor="start" x="1591.5" y="-85.5" font-family="Helvetica,sans-Serif" font-size="10.00" fill="#000000">src/neumannInnerSurface</text>
<text text-anchor="middle" x="1647.5" y="-74.5" font-family="Helvetica,sans-Serif" font-size="10.00" fill="#000000">_PolyconvexHGO.hpp</text>
</a>
</g>
</g>
<!-- Node47&#45;&gt;Node55 -->
<g id="edge21" class="edge">
<title>Node47&#45;&gt;Node55</title>
<path fill="none" stroke="#191970" d="M1352.4589,-135.3004C1408.739,-126.5338 1497.2269,-112.2918 1573.5,-98 1576.7254,-97.3956 1580.0265,-96.7615 1583.3579,-96.1092"/>
<polygon fill="#191970" stroke="#191970" points="1351.6797,-131.8794 1342.3351,-136.8724 1352.7538,-138.7965 1351.6797,-131.8794"/>
</g>
<!-- Node58 -->
<g id="node25" class="node">
<title>Node58</title>
<g id="a_node25"><a xlink:href="../../dc/da1/neumann_inner_surface___stochastic_polyconvex_h_g_o_8hpp.html" target="_top" xlink:title="src/neumannInnerSurface\l_StochasticPolyconvexHGO.hpp">
<polygon fill="#ffffff" stroke="#000000" points="1786,-67.5 1786,-97.5 1947,-97.5 1947,-67.5 1786,-67.5"/>
<text text-anchor="start" x="1794" y="-85.5" font-family="Helvetica,sans-Serif" font-size="10.00" fill="#000000">src/neumannInnerSurface</text>
<text text-anchor="middle" x="1866.5" y="-74.5" font-family="Helvetica,sans-Serif" font-size="10.00" fill="#000000">_StochasticPolyconvexHGO.hpp</text>
</a>
</g>
</g>
<!-- Node47&#45;&gt;Node58 -->
<g id="edge24" class="edge">
<title>Node47&#45;&gt;Node58</title>
<path fill="none" stroke="#191970" d="M1352.3254,-137.8796C1454.2755,-126.899 1668.5186,-103.8237 1785.7072,-91.2019"/>
<polygon fill="#191970" stroke="#191970" points="1351.795,-134.4164 1342.2273,-138.9672 1352.5447,-141.3761 1351.795,-134.4164"/>
</g>
<!-- Node51 -->
<g id="node18" class="node">
<title>Node51</title>
<g id="a_node18"><a xlink:href="../../de/da1/arteries_2deterministic__dirichlet_2main_8cpp.html" target="_top" xlink:title="arteries/deterministic\l_dirichlet/main.cpp">
<polygon fill="#ffffff" stroke="#000000" points="1164,-.5 1164,-30.5 1271,-30.5 1271,-.5 1164,-.5"/>
<text text-anchor="start" x="1172" y="-18.5" font-family="Helvetica,sans-Serif" font-size="10.00" fill="#000000">arteries/deterministic</text>
<text text-anchor="middle" x="1217.5" y="-7.5" font-family="Helvetica,sans-Serif" font-size="10.00" fill="#000000">_dirichlet/main.cpp</text>
</a>
</g>
</g>
<!-- Node50&#45;&gt;Node51 -->
<g id="edge17" class="edge">
<title>Node50&#45;&gt;Node51</title>
<path fill="none" stroke="#191970" d="M1217.5,-57.0249C1217.5,-48.128 1217.5,-38.4287 1217.5,-30.6432"/>
<polygon fill="#191970" stroke="#191970" points="1214.0001,-57.2966 1217.5,-67.2967 1221.0001,-57.2967 1214.0001,-57.2966"/>
</g>
<!-- Node53 -->
<g id="node20" class="node">
<title>Node53</title>
<g id="a_node20"><a xlink:href="../../dc/dba/arteries_2strip__dirichlet_2main_8cpp.html" target="_top" xlink:title="arteries/strip_dirichlet\l/main.cpp">
<polygon fill="#ffffff" stroke="#000000" points="1318.5,-.5 1318.5,-30.5 1428.5,-30.5 1428.5,-.5 1318.5,-.5"/>
<text text-anchor="start" x="1326.5" y="-18.5" font-family="Helvetica,sans-Serif" font-size="10.00" fill="#000000">arteries/strip_dirichlet</text>
<text text-anchor="middle" x="1373.5" y="-7.5" font-family="Helvetica,sans-Serif" font-size="10.00" fill="#000000">/main.cpp</text>
</a>
</g>
</g>
<!-- Node52&#45;&gt;Node53 -->
<g id="edge19" class="edge">
<title>Node52&#45;&gt;Node53</title>
<path fill="none" stroke="#191970" d="M1373.5,-57.0249C1373.5,-48.128 1373.5,-38.4287 1373.5,-30.6432"/>
<polygon fill="#191970" stroke="#191970" points="1370.0001,-57.2966 1373.5,-67.2967 1377.0001,-57.2967 1370.0001,-57.2966"/>
</g>
<!-- Node56 -->
<g id="node23" class="node">
<title>Node56</title>
<g id="a_node23"><a xlink:href="../../d9/d81/arteries_2deterministic__neumann_2main_8cpp.html" target="_top" xlink:title="arteries/deterministic\l_neumann/main.cpp">
<polygon fill="#ffffff" stroke="#000000" points="1454,-.5 1454,-30.5 1561,-30.5 1561,-.5 1454,-.5"/>
<text text-anchor="start" x="1462" y="-18.5" font-family="Helvetica,sans-Serif" font-size="10.00" fill="#000000">arteries/deterministic</text>
<text text-anchor="middle" x="1507.5" y="-7.5" font-family="Helvetica,sans-Serif" font-size="10.00" fill="#000000">_neumann/main.cpp</text>
</a>
</g>
</g>
<!-- Node55&#45;&gt;Node56 -->
<g id="edge22" class="edge">
<title>Node55&#45;&gt;Node56</title>
<path fill="none" stroke="#191970" d="M1606.862,-63.0518C1585.3498,-52.7567 1559.319,-40.2991 1539.2983,-30.7177"/>
<polygon fill="#191970" stroke="#191970" points="1605.5501,-66.3041 1616.0813,-67.4639 1608.5719,-59.9899 1605.5501,-66.3041"/>
</g>
<!-- Node57 -->
<g id="node24" class="node">
<title>Node57</title>
<g id="a_node24"><a xlink:href="../../db/db7/arteries_2vonmises_2main_8cpp.html" target="_top" xlink:title="arteries/vonmises/main.cpp">
<polygon fill="#ffffff" stroke="#000000" points="1579,-6 1579,-25 1716,-25 1716,-6 1579,-6"/>
<text text-anchor="middle" x="1647.5" y="-13" font-family="Helvetica,sans-Serif" font-size="10.00" fill="#000000">arteries/vonmises/main.cpp</text>
</a>
</g>
</g>
<!-- Node55&#45;&gt;Node57 -->
<g id="edge23" class="edge">
<title>Node55&#45;&gt;Node57</title>
<path fill="none" stroke="#191970" d="M1647.5,-57.1199C1647.5,-45.9072 1647.5,-33.4031 1647.5,-25.055"/>
<polygon fill="#191970" stroke="#191970" points="1644.0001,-57.2966 1647.5,-67.2967 1651.0001,-57.2967 1644.0001,-57.2966"/>
</g>
<!-- Node59 -->
<g id="node26" class="node">
<title>Node59</title>
<g id="a_node26"><a xlink:href="../../d5/da5/arteries_2boost__gmrf_2gmrf__gauss_2main_8cpp.html" target="_top" xlink:title="arteries/boost_gmrf\l/gmrf_gauss/main.cpp">
<polygon fill="#ffffff" stroke="#000000" points="1734,-.5 1734,-30.5 1847,-30.5 1847,-.5 1734,-.5"/>
<text text-anchor="start" x="1742" y="-18.5" font-family="Helvetica,sans-Serif" font-size="10.00" fill="#000000">arteries/boost_gmrf</text>
<text text-anchor="middle" x="1790.5" y="-7.5" font-family="Helvetica,sans-Serif" font-size="10.00" fill="#000000">/gmrf_gauss/main.cpp</text>
</a>
</g>
</g>
<!-- Node58&#45;&gt;Node59 -->
<g id="edge25" class="edge">
<title>Node58&#45;&gt;Node59</title>
<path fill="none" stroke="#191970" d="M1841.5408,-60.4965C1830.4503,-50.7193 1817.6733,-39.4554 1807.6773,-30.6432"/>
<polygon fill="#191970" stroke="#191970" points="1839.4386,-63.3091 1849.2544,-67.2967 1844.0677,-58.0582 1839.4386,-63.3091"/>
</g>
<!-- Node60 -->
<g id="node27" class="node">
<title>Node60</title>
<g id="a_node27"><a xlink:href="../../d2/dbe/arteries_2boost__gmrf_2gmrf__nodes_2main_8cpp.html" target="_top" xlink:title="arteries/boost_gmrf\l/gmrf_nodes/main.cpp">
<polygon fill="#ffffff" stroke="#000000" points="1865,-.5 1865,-30.5 1978,-30.5 1978,-.5 1865,-.5"/>
<text text-anchor="start" x="1873" y="-18.5" font-family="Helvetica,sans-Serif" font-size="10.00" fill="#000000">arteries/boost_gmrf</text>
<text text-anchor="middle" x="1921.5" y="-7.5" font-family="Helvetica,sans-Serif" font-size="10.00" fill="#000000">/gmrf_nodes/main.cpp</text>
</a>
</g>
</g>
<!-- Node58&#45;&gt;Node60 -->
<g id="edge26" class="edge">
<title>Node58&#45;&gt;Node60</title>
<path fill="none" stroke="#191970" d="M1885.503,-59.3509C1893.3037,-49.8482 1902.116,-39.1132 1909.069,-30.6432"/>
<polygon fill="#191970" stroke="#191970" points="1882.6201,-57.3466 1878.9804,-67.2967 1888.0306,-61.7881 1882.6201,-57.3466"/>
</g>
<!-- Node61 -->
<g id="node28" class="node">
<title>Node61</title>
<g id="a_node28"><a xlink:href="../../da/df3/arteries_2gmrf__neumann_2main_8cpp.html" target="_top" xlink:title="arteries/gmrf_neumann\l/main.cpp">
<polygon fill="#ffffff" stroke="#000000" points="1996.5,-.5 1996.5,-30.5 2112.5,-30.5 2112.5,-.5 1996.5,-.5"/>
<text text-anchor="start" x="2004.5" y="-18.5" font-family="Helvetica,sans-Serif" font-size="10.00" fill="#000000">arteries/gmrf_neumann</text>
<text text-anchor="middle" x="2054.5" y="-7.5" font-family="Helvetica,sans-Serif" font-size="10.00" fill="#000000">/main.cpp</text>
</a>
</g>
</g>
<!-- Node58&#45;&gt;Node61 -->
<g id="edge27" class="edge">
<title>Node58&#45;&gt;Node61</title>
<path fill="none" stroke="#191970" d="M1918.4041,-64.0023C1947.9004,-53.4903 1984.3663,-40.4945 2012.1251,-30.6017"/>
<polygon fill="#191970" stroke="#191970" points="1916.9356,-60.8099 1908.6909,-67.4639 1919.2855,-67.4037 1916.9356,-60.8099"/>
</g>
</g>
</svg>
