<?xml version="1.0" encoding="UTF-8" standalone="no"?>
<!DOCTYPE svg PUBLIC "-//W3C//DTD SVG 1.1//EN"
 "http://www.w3.org/Graphics/SVG/1.1/DTD/svg11.dtd">
<!-- Generated by graphviz version 2.40.1 (20161225.0304)
 -->
<!-- Title: src/linearFiniteElementProblem.hpp Pages: 1 -->
<svg width="2379pt" height="285pt"
 viewBox="0.00 0.00 2378.50 285.00" xmlns="http://www.w3.org/2000/svg" xmlns:xlink="http://www.w3.org/1999/xlink">
<g id="graph0" class="graph" transform="scale(1 1) rotate(0) translate(4 281)">
<title>src/linearFiniteElementProblem.hpp</title>
<polygon fill="#ffffff" stroke="transparent" points="-4,4 -4,-281 2374.5,-281 2374.5,4 -4,4"/>
<!-- Node34 -->
<g id="node1" class="node">
<title>Node34</title>
<polygon fill="#bfbfbf" stroke="#000000" points="828,-257.5 828,-276.5 999,-276.5 999,-257.5 828,-257.5"/>
<text text-anchor="middle" x="913.5" y="-264.5" font-family="Helvetica,sans-Serif" font-size="10.00" fill="#000000">src/linearFiniteElementProblem.hpp</text>
</g>
<!-- Node35 -->
<g id="node2" class="node">
<title>Node35</title>
<g id="a_node2"><a xlink:href="../../d5/dfe/linearized_elasticity_8hpp.html" target="_top" xlink:title="src/linearizedElasticity.hpp">
<polygon fill="#ffffff" stroke="#000000" points="423.5,-201.5 423.5,-220.5 557.5,-220.5 557.5,-201.5 423.5,-201.5"/>
<text text-anchor="middle" x="490.5" y="-208.5" font-family="Helvetica,sans-Serif" font-size="10.00" fill="#000000">src/linearizedElasticity.hpp</text>
</a>
</g>
</g>
<!-- Node34&#45;&gt;Node35 -->
<g id="edge1" class="edge">
<title>Node34&#45;&gt;Node35</title>
<path fill="none" stroke="#191970" d="M831.2477,-256.1108C751.4257,-245.5434 631.7686,-229.7022 557.5521,-219.8769"/>
<polygon fill="#191970" stroke="#191970" points="830.8915,-259.5941 841.2643,-257.4369 831.8102,-252.6546 830.8915,-259.5941"/>
</g>
<!-- Node49 -->
<g id="node16" class="node">
<title>Node49</title>
<g id="a_node16"><a xlink:href="../../d9/de5/damage_field_8hpp.html" target="_top" xlink:title="src/damageField.hpp">
<polygon fill="#ffffff" stroke="#000000" points="860,-201.5 860,-220.5 967,-220.5 967,-201.5 860,-201.5"/>
<text text-anchor="middle" x="913.5" y="-208.5" font-family="Helvetica,sans-Serif" font-size="10.00" fill="#000000">src/damageField.hpp</text>
</a>
</g>
</g>
<!-- Node34&#45;&gt;Node49 -->
<g id="edge15" class="edge">
<title>Node34&#45;&gt;Node49</title>
<path fill="none" stroke="#191970" d="M913.5,-247.1575C913.5,-238.155 913.5,-227.9199 913.5,-220.6427"/>
<polygon fill="#191970" stroke="#191970" points="910.0001,-247.2455 913.5,-257.2455 917.0001,-247.2456 910.0001,-247.2455"/>
</g>
<!-- Node52 -->
<g id="node19" class="node">
<title>Node52</title>
<g id="a_node19"><a xlink:href="../../d5/d3f/laplacepp_8hpp.html" target="_top" xlink:title="src/laplacepp.hpp">
<polygon fill="#ffffff" stroke="#000000" points="1507,-201.5 1507,-220.5 1600,-220.5 1600,-201.5 1507,-201.5"/>
<text text-anchor="middle" x="1553.5" y="-208.5" font-family="Helvetica,sans-Serif" font-size="10.00" fill="#000000">src/laplacepp.hpp</text>
</a>
</g>
</g>
<!-- Node34&#45;&gt;Node52 -->
<g id="edge19" class="edge">
<title>Node34&#45;&gt;Node52</title>
<path fill="none" stroke="#191970" d="M1009.4004,-258.6087C1148.856,-246.4064 1402.3372,-224.2267 1506.6925,-215.0957"/>
<polygon fill="#191970" stroke="#191970" points="1008.806,-255.1473 999.1492,-259.5057 1009.4162,-262.1206 1008.806,-255.1473"/>
</g>
<!-- Node36 -->
<g id="node3" class="node">
<title>Node36</title>
<g id="a_node3"><a xlink:href="../../de/d5d/linear_patch_test_8hpp.html" target="_top" xlink:title="cee530/linearpatchtest\l/linearPatchTest.hpp">
<polygon fill="#ffffff" stroke="#000000" points="0,-134.5 0,-164.5 115,-164.5 115,-134.5 0,-134.5"/>
<text text-anchor="start" x="8" y="-152.5" font-family="Helvetica,sans-Serif" font-size="10.00" fill="#000000">cee530/linearpatchtest</text>
<text text-anchor="middle" x="57.5" y="-141.5" font-family="Helvetica,sans-Serif" font-size="10.00" fill="#000000">/linearPatchTest.hpp</text>
</a>
</g>
</g>
<!-- Node35&#45;&gt;Node36 -->
<g id="edge2" class="edge">
<title>Node35&#45;&gt;Node36</title>
<path fill="none" stroke="#191970" d="M412.9707,-203.6931C338.4433,-196.1016 222.7983,-182.8313 123.5,-165 120.7197,-164.5007 117.8805,-163.9588 115.0181,-163.3867"/>
<polygon fill="#191970" stroke="#191970" points="412.907,-207.2044 423.208,-204.7265 413.6101,-200.2398 412.907,-207.2044"/>
</g>
<!-- Node38 -->
<g id="node5" class="node">
<title>Node38</title>
<g id="a_node5"><a xlink:href="../../d4/d56/cee530_2manufactured_2manufactured_solution_8hpp.html" target="_top" xlink:title="cee530/manufactured\l/manufacturedSolution.hpp">
<polygon fill="#ffffff" stroke="#000000" points="133,-134.5 133,-164.5 266,-164.5 266,-134.5 133,-134.5"/>
<text text-anchor="start" x="141" y="-152.5" font-family="Helvetica,sans-Serif" font-size="10.00" fill="#000000">cee530/manufactured</text>
<text text-anchor="middle" x="199.5" y="-141.5" font-family="Helvetica,sans-Serif" font-size="10.00" fill="#000000">/manufacturedSolution.hpp</text>
</a>
</g>
</g>
<!-- Node35&#45;&gt;Node38 -->
<g id="edge4" class="edge">
<title>Node35&#45;&gt;Node38</title>
<path fill="none" stroke="#191970" d="M435.4327,-199.3621C387.3328,-189.1966 317.3844,-174.4137 266.1383,-163.5834"/>
<polygon fill="#191970" stroke="#191970" points="434.8429,-202.8147 445.3505,-201.4581 436.2904,-195.9659 434.8429,-202.8147"/>
</g>
<!-- Node40 -->
<g id="node7" class="node">
<title>Node40</title>
<g id="a_node7"><a xlink:href="../../d4/d57/cee_s_b_v_p_8hpp.html" target="_top" xlink:title="cee530/sbvp/ceeSBVP.hpp">
<polygon fill="#ffffff" stroke="#000000" points="284,-140 284,-159 421,-159 421,-140 284,-140"/>
<text text-anchor="middle" x="352.5" y="-147" font-family="Helvetica,sans-Serif" font-size="10.00" fill="#000000">cee530/sbvp/ceeSBVP.hpp</text>
</a>
</g>
</g>
<!-- Node35&#45;&gt;Node40 -->
<g id="edge6" class="edge">
<title>Node35&#45;&gt;Node40</title>
<path fill="none" stroke="#191970" d="M459.5106,-197.1895C433.4378,-185.5701 396.8398,-169.2601 373.9111,-159.0419"/>
<polygon fill="#191970" stroke="#191970" points="458.3787,-200.5169 468.9375,-201.3906 461.2282,-194.1231 458.3787,-200.5169"/>
</g>
<!-- Node42 -->
<g id="node9" class="node">
<title>Node42</title>
<g id="a_node9"><a xlink:href="../../dc/d64/asme_s_b_v_p_8hpp.html" target="_top" xlink:title="src/asmeSBVP.hpp">
<polygon fill="#ffffff" stroke="#000000" points="439,-140 439,-159 542,-159 542,-140 439,-140"/>
<text text-anchor="middle" x="490.5" y="-147" font-family="Helvetica,sans-Serif" font-size="10.00" fill="#000000">src/asmeSBVP.hpp</text>
</a>
</g>
</g>
<!-- Node35&#45;&gt;Node42 -->
<g id="edge8" class="edge">
<title>Node35&#45;&gt;Node42</title>
<path fill="none" stroke="#191970" d="M490.5,-191.2462C490.5,-180.5519 490.5,-167.814 490.5,-159.2449"/>
<polygon fill="#191970" stroke="#191970" points="487.0001,-191.3906 490.5,-201.3906 494.0001,-191.3907 487.0001,-191.3906"/>
</g>
<!-- Node44 -->
<g id="node11" class="node">
<title>Node44</title>
<g id="a_node11"><a xlink:href="../../df/d96/linearized_elasticity_8cpp.html" target="_top" xlink:title="src/linearizedElasticity.cpp">
<polygon fill="#ffffff" stroke="#000000" points="560.5,-140 560.5,-159 694.5,-159 694.5,-140 560.5,-140"/>
<text text-anchor="middle" x="627.5" y="-147" font-family="Helvetica,sans-Serif" font-size="10.00" fill="#000000">src/linearizedElasticity.cpp</text>
</a>
</g>
</g>
<!-- Node35&#45;&gt;Node44 -->
<g id="edge10" class="edge">
<title>Node35&#45;&gt;Node44</title>
<path fill="none" stroke="#191970" d="M521.2648,-197.1895C547.1487,-185.5701 583.4815,-169.2601 606.2441,-159.0419"/>
<polygon fill="#191970" stroke="#191970" points="519.5958,-194.1022 511.9063,-201.3906 522.4626,-200.4883 519.5958,-194.1022"/>
</g>
<!-- Node45 -->
<g id="node12" class="node">
<title>Node45</title>
<g id="a_node12"><a xlink:href="../../d1/dee/phase_field_linearized_elasticity_8hpp.html" target="_top" xlink:title="src/phaseFieldLinearized\lElasticity.hpp">
<polygon fill="#ffffff" stroke="#000000" points="713,-134.5 713,-164.5 838,-164.5 838,-134.5 713,-134.5"/>
<text text-anchor="start" x="721" y="-152.5" font-family="Helvetica,sans-Serif" font-size="10.00" fill="#000000">src/phaseFieldLinearized</text>
<text text-anchor="middle" x="775.5" y="-141.5" font-family="Helvetica,sans-Serif" font-size="10.00" fill="#000000">Elasticity.hpp</text>
</a>
</g>
</g>
<!-- Node35&#45;&gt;Node45 -->
<g id="edge11" class="edge">
<title>Node35&#45;&gt;Node45</title>
<path fill="none" stroke="#191970" d="M544.5992,-199.326C592.5427,-188.9803 662.5535,-173.8727 712.9015,-163.0081"/>
<polygon fill="#191970" stroke="#191970" points="543.7553,-195.9274 534.7185,-201.4581 545.2318,-202.7699 543.7553,-195.9274"/>
</g>
<!-- Node37 -->
<g id="node4" class="node">
<title>Node37</title>
<g id="a_node4"><a xlink:href="../../d0/d30/cee530_2linearpatchtest_2main_8cpp.html" target="_top" xlink:title="cee530/linearpatchtest\l/main.cpp">
<polygon fill="#ffffff" stroke="#000000" points="0,-67.5 0,-97.5 115,-97.5 115,-67.5 0,-67.5"/>
<text text-anchor="start" x="8" y="-85.5" font-family="Helvetica,sans-Serif" font-size="10.00" fill="#000000">cee530/linearpatchtest</text>
<text text-anchor="middle" x="57.5" y="-74.5" font-family="Helvetica,sans-Serif" font-size="10.00" fill="#000000">/main.cpp</text>
</a>
</g>
</g>
<!-- Node36&#45;&gt;Node37 -->
<g id="edge3" class="edge">
<title>Node36&#45;&gt;Node37</title>
<path fill="none" stroke="#191970" d="M57.5,-124.0249C57.5,-115.128 57.5,-105.4287 57.5,-97.6432"/>
<polygon fill="#191970" stroke="#191970" points="54.0001,-124.2966 57.5,-134.2967 61.0001,-124.2967 54.0001,-124.2966"/>
</g>
<!-- Node39 -->
<g id="node6" class="node">
<title>Node39</title>
<g id="a_node6"><a xlink:href="../../d8/d17/cee530_2manufactured_2main_8cpp.html" target="_top" xlink:title="cee530/manufactured\l/main.cpp">
<polygon fill="#ffffff" stroke="#000000" points="144.5,-67.5 144.5,-97.5 254.5,-97.5 254.5,-67.5 144.5,-67.5"/>
<text text-anchor="start" x="152.5" y="-85.5" font-family="Helvetica,sans-Serif" font-size="10.00" fill="#000000">cee530/manufactured</text>
<text text-anchor="middle" x="199.5" y="-74.5" font-family="Helvetica,sans-Serif" font-size="10.00" fill="#000000">/main.cpp</text>
</a>
</g>
</g>
<!-- Node38&#45;&gt;Node39 -->
<g id="edge5" class="edge">
<title>Node38&#45;&gt;Node39</title>
<path fill="none" stroke="#191970" d="M199.5,-124.0249C199.5,-115.128 199.5,-105.4287 199.5,-97.6432"/>
<polygon fill="#191970" stroke="#191970" points="196.0001,-124.2966 199.5,-134.2967 203.0001,-124.2967 196.0001,-124.2966"/>
</g>
<!-- Node41 -->
<g id="node8" class="node">
<title>Node41</title>
<g id="a_node8"><a xlink:href="../../dc/d51/cee530_2sbvp_2main_8cpp.html" target="_top" xlink:title="cee530/sbvp/main.cpp">
<polygon fill="#ffffff" stroke="#000000" points="295,-73 295,-92 410,-92 410,-73 295,-73"/>
<text text-anchor="middle" x="352.5" y="-80" font-family="Helvetica,sans-Serif" font-size="10.00" fill="#000000">cee530/sbvp/main.cpp</text>
</a>
</g>
</g>
<!-- Node40&#45;&gt;Node41 -->
<g id="edge7" class="edge">
<title>Node40&#45;&gt;Node41</title>
<path fill="none" stroke="#191970" d="M352.5,-129.6079C352.5,-117.214 352.5,-101.8263 352.5,-92.0817"/>
<polygon fill="#191970" stroke="#191970" points="349.0001,-129.9005 352.5,-139.9005 356.0001,-129.9006 349.0001,-129.9005"/>
</g>
<!-- Node43 -->
<g id="node10" class="node">
<title>Node43</title>
<g id="a_node10"><a xlink:href="../../d2/ded/asme_2linearelaslam_2main_8cpp.html" target="_top" xlink:title="asme/linearelaslam\l/main.cpp">
<polygon fill="#ffffff" stroke="#000000" points="440,-67.5 440,-97.5 541,-97.5 541,-67.5 440,-67.5"/>
<text text-anchor="start" x="448" y="-85.5" font-family="Helvetica,sans-Serif" font-size="10.00" fill="#000000">asme/linearelaslam</text>
<text text-anchor="middle" x="490.5" y="-74.5" font-family="Helvetica,sans-Serif" font-size="10.00" fill="#000000">/main.cpp</text>
</a>
</g>
</g>
<!-- Node42&#45;&gt;Node43 -->
<g id="edge9" class="edge">
<title>Node42&#45;&gt;Node43</title>
<path fill="none" stroke="#191970" d="M490.5,-129.7758C490.5,-119.4641 490.5,-107.0437 490.5,-97.5218"/>
<polygon fill="#191970" stroke="#191970" points="487.0001,-129.9005 490.5,-139.9005 494.0001,-129.9006 487.0001,-129.9005"/>
</g>
<!-- Node46 -->
<g id="node13" class="node">
<title>Node46</title>
<g id="a_node13"><a xlink:href="../../d5/db0/phase_field_problem_8hpp.html" target="_top" xlink:title="examples/phasefield\l/phaseFieldProblem.hpp">
<polygon fill="#ffffff" stroke="#000000" points="643.5,-67.5 643.5,-97.5 765.5,-97.5 765.5,-67.5 643.5,-67.5"/>
<text text-anchor="start" x="651.5" y="-85.5" font-family="Helvetica,sans-Serif" font-size="10.00" fill="#000000">examples/phasefield</text>
<text text-anchor="middle" x="704.5" y="-74.5" font-family="Helvetica,sans-Serif" font-size="10.00" fill="#000000">/phaseFieldProblem.hpp</text>
</a>
</g>
</g>
<!-- Node45&#45;&gt;Node46 -->
<g id="edge12" class="edge">
<title>Node45&#45;&gt;Node46</title>
<path fill="none" stroke="#191970" d="M751.8806,-127.2113C741.5905,-117.5009 729.7949,-106.3698 720.5472,-97.6432"/>
<polygon fill="#191970" stroke="#191970" points="749.7139,-129.979 759.389,-134.2967 754.5181,-124.8879 749.7139,-129.979"/>
</g>
<!-- Node48 -->
<g id="node15" class="node">
<title>Node48</title>
<g id="a_node15"><a xlink:href="../../d4/d66/phase_field_linearized_elasticity_8cpp.html" target="_top" xlink:title="src/phaseFieldLinearized\lElasticity.cpp">
<polygon fill="#ffffff" stroke="#000000" points="784,-67.5 784,-97.5 909,-97.5 909,-67.5 784,-67.5"/>
<text text-anchor="start" x="792" y="-85.5" font-family="Helvetica,sans-Serif" font-size="10.00" fill="#000000">src/phaseFieldLinearized</text>
<text text-anchor="middle" x="846.5" y="-74.5" font-family="Helvetica,sans-Serif" font-size="10.00" fill="#000000">Elasticity.cpp</text>
</a>
</g>
</g>
<!-- Node45&#45;&gt;Node48 -->
<g id="edge14" class="edge">
<title>Node45&#45;&gt;Node48</title>
<path fill="none" stroke="#191970" d="M799.1194,-127.2113C809.4095,-117.5009 821.2051,-106.3698 830.4528,-97.6432"/>
<polygon fill="#191970" stroke="#191970" points="796.4819,-124.8879 791.611,-134.2967 801.2861,-129.979 796.4819,-124.8879"/>
</g>
<!-- Node47 -->
<g id="node14" class="node">
<title>Node47</title>
<g id="a_node14"><a xlink:href="../../d0/d2e/examples_2phasefield_2main_8cpp.html" target="_top" xlink:title="examples/phasefield\l/main.cpp">
<polygon fill="#ffffff" stroke="#000000" points="651.5,-.5 651.5,-30.5 757.5,-30.5 757.5,-.5 651.5,-.5"/>
<text text-anchor="start" x="659.5" y="-18.5" font-family="Helvetica,sans-Serif" font-size="10.00" fill="#000000">examples/phasefield</text>
<text text-anchor="middle" x="704.5" y="-7.5" font-family="Helvetica,sans-Serif" font-size="10.00" fill="#000000">/main.cpp</text>
</a>
</g>
</g>
<!-- Node46&#45;&gt;Node47 -->
<g id="edge13" class="edge">
<title>Node46&#45;&gt;Node47</title>
<path fill="none" stroke="#191970" d="M704.5,-57.0249C704.5,-48.128 704.5,-38.4287 704.5,-30.6432"/>
<polygon fill="#191970" stroke="#191970" points="701.0001,-57.2966 704.5,-67.2967 708.0001,-57.2967 701.0001,-57.2966"/>
</g>
<!-- Node49&#45;&gt;Node45 -->
<g id="edge18" class="edge">
<title>Node49&#45;&gt;Node45</title>
<path fill="none" stroke="#191970" d="M882.7943,-197.316C860.99,-187.5988 831.7192,-174.5542 809.2586,-164.5446"/>
<polygon fill="#191970" stroke="#191970" points="881.3787,-200.5169 891.9375,-201.3906 884.2282,-194.1231 881.3787,-200.5169"/>
</g>
<!-- Node50 -->
<g id="node17" class="node">
<title>Node50</title>
<g id="a_node17"><a xlink:href="../../d9/d28/examples_2damagefield_2main_8cpp.html" target="_top" xlink:title="examples/damagefield\l/main.cpp">
<polygon fill="#ffffff" stroke="#000000" points="856.5,-134.5 856.5,-164.5 970.5,-164.5 970.5,-134.5 856.5,-134.5"/>
<text text-anchor="start" x="864.5" y="-152.5" font-family="Helvetica,sans-Serif" font-size="10.00" fill="#000000">examples/damagefield</text>
<text text-anchor="middle" x="913.5" y="-141.5" font-family="Helvetica,sans-Serif" font-size="10.00" fill="#000000">/main.cpp</text>
</a>
</g>
</g>
<!-- Node49&#45;&gt;Node50 -->
<g id="edge16" class="edge">
<title>Node49&#45;&gt;Node50</title>
<path fill="none" stroke="#191970" d="M913.5,-191.3693C913.5,-182.681 913.5,-172.6241 913.5,-164.5446"/>
<polygon fill="#191970" stroke="#191970" points="910.0001,-191.3906 913.5,-201.3906 917.0001,-191.3907 910.0001,-191.3906"/>
</g>
<!-- Node51 -->
<g id="node18" class="node">
<title>Node51</title>
<g id="a_node18"><a xlink:href="../../dd/ddf/damage_field_8cpp.html" target="_top" xlink:title="src/damageField.cpp">
<polygon fill="#ffffff" stroke="#000000" points="989,-140 989,-159 1096,-159 1096,-140 989,-140"/>
<text text-anchor="middle" x="1042.5" y="-147" font-family="Helvetica,sans-Serif" font-size="10.00" fill="#000000">src/damageField.cpp</text>
</a>
</g>
</g>
<!-- Node49&#45;&gt;Node51 -->
<g id="edge17" class="edge">
<title>Node49&#45;&gt;Node51</title>
<path fill="none" stroke="#191970" d="M942.791,-197.0357C967.1419,-185.4265 1001.1464,-169.2151 1022.4853,-159.0419"/>
<polygon fill="#191970" stroke="#191970" points="941.1767,-193.9278 933.6563,-201.3906 944.1891,-200.2465 941.1767,-193.9278"/>
</g>
<!-- Node53 -->
<g id="node20" class="node">
<title>Node53</title>
<g id="a_node20"><a xlink:href="../../d4/d0f/examples_2laplace__aztec_2main_8cpp.html" target="_top" xlink:title="examples/laplace_aztec\l/main.cpp">
<polygon fill="#ffffff" stroke="#000000" points="1114.5,-134.5 1114.5,-164.5 1236.5,-164.5 1236.5,-134.5 1114.5,-134.5"/>
<text text-anchor="start" x="1122.5" y="-152.5" font-family="Helvetica,sans-Serif" font-size="10.00" fill="#000000">examples/laplace_aztec</text>
<text text-anchor="middle" x="1175.5" y="-141.5" font-family="Helvetica,sans-Serif" font-size="10.00" fill="#000000">/main.cpp</text>
</a>
</g>
</g>
<!-- Node52&#45;&gt;Node53 -->
<g id="edge20" class="edge">
<title>Node52&#45;&gt;Node53</title>
<path fill="none" stroke="#191970" d="M1496.9326,-203.7545C1435.0033,-195.5425 1332.8716,-181.1775 1245.5,-165 1242.5626,-164.4561 1239.5608,-163.878 1236.5323,-163.2768"/>
<polygon fill="#191970" stroke="#191970" points="1496.5203,-207.2304 1506.8921,-205.0681 1497.4357,-200.2905 1496.5203,-207.2304"/>
</g>
<!-- Node54 -->
<g id="node21" class="node">
<title>Node54</title>
<g id="a_node21"><a xlink:href="../../d8/d16/examples_2laplace__stratimikos_2main_8cpp.html" target="_top" xlink:title="examples/laplace_stratimikos\l/main.cpp">
<polygon fill="#ffffff" stroke="#000000" points="1254.5,-134.5 1254.5,-164.5 1400.5,-164.5 1400.5,-134.5 1254.5,-134.5"/>
<text text-anchor="start" x="1262.5" y="-152.5" font-family="Helvetica,sans-Serif" font-size="10.00" fill="#000000">examples/laplace_stratimikos</text>
<text text-anchor="middle" x="1327.5" y="-141.5" font-family="Helvetica,sans-Serif" font-size="10.00" fill="#000000">/main.cpp</text>
</a>
</g>
</g>
<!-- Node52&#45;&gt;Node54 -->
<g id="edge21" class="edge">
<title>Node52&#45;&gt;Node54</title>
<path fill="none" stroke="#191970" d="M1508.4061,-198.7289C1472.2616,-188.8931 1421.3836,-175.048 1382.7858,-164.5446"/>
<polygon fill="#191970" stroke="#191970" points="1507.6193,-202.142 1518.1875,-201.3906 1509.4574,-195.3876 1507.6193,-202.142"/>
</g>
<!-- Node55 -->
<g id="node22" class="node">
<title>Node55</title>
<g id="a_node22"><a xlink:href="../../dd/d3d/dirichlet_inlet_outlet___polyconvex_h_g_o_8hpp.html" target="_top" xlink:title="src/dirichletInletOutlet\l_PolyconvexHGO.hpp">
<polygon fill="#ffffff" stroke="#000000" points="1418.5,-134.5 1418.5,-164.5 1532.5,-164.5 1532.5,-134.5 1418.5,-134.5"/>
<text text-anchor="start" x="1426.5" y="-152.5" font-family="Helvetica,sans-Serif" font-size="10.00" fill="#000000">src/dirichletInletOutlet</text>
<text text-anchor="middle" x="1475.5" y="-141.5" font-family="Helvetica,sans-Serif" font-size="10.00" fill="#000000">_PolyconvexHGO.hpp</text>
</a>
</g>
</g>
<!-- Node52&#45;&gt;Node55 -->
<g id="edge22" class="edge">
<title>Node52&#45;&gt;Node55</title>
<path fill="none" stroke="#191970" d="M1533.2561,-195.0385C1521.3203,-185.6276 1506.3083,-173.7911 1494.5809,-164.5446"/>
<polygon fill="#191970" stroke="#191970" points="1531.2927,-197.9475 1541.3125,-201.3906 1535.6268,-192.4506 1531.2927,-197.9475"/>
</g>
<!-- Node57 -->
<g id="node24" class="node">
<title>Node57</title>
<g id="a_node24"><a xlink:href="../../d5/d0d/dirichlet_strip_elongation___stochastic_polyconvex_h_g_o_8hpp.html" target="_top" xlink:title="src/dirichletStripElongation\l_StochasticPolyconvexHGO.hpp">
<polygon fill="#ffffff" stroke="#000000" points="1551,-134.5 1551,-164.5 1712,-164.5 1712,-134.5 1551,-134.5"/>
<text text-anchor="start" x="1559" y="-152.5" font-family="Helvetica,sans-Serif" font-size="10.00" fill="#000000">src/dirichletStripElongation</text>
<text text-anchor="middle" x="1631.5" y="-141.5" font-family="Helvetica,sans-Serif" font-size="10.00" fill="#000000">_StochasticPolyconvexHGO.hpp</text>
</a>
</g>
</g>
<!-- Node52&#45;&gt;Node57 -->
<g id="edge24" class="edge">
<title>Node52&#45;&gt;Node57</title>
<path fill="none" stroke="#191970" d="M1573.7439,-195.0385C1585.6797,-185.6276 1600.6917,-173.7911 1612.4191,-164.5446"/>
<polygon fill="#191970" stroke="#191970" points="1571.3732,-192.4506 1565.6875,-201.3906 1575.7073,-197.9475 1571.3732,-192.4506"/>
</g>
<!-- Node59 -->
<g id="node26" class="node">
<title>Node59</title>
<g id="a_node26"><a xlink:href="../../dc/d31/laplacepp_8cpp.html" target="_top" xlink:title="src/laplacepp.cpp">
<polygon fill="#ffffff" stroke="#000000" points="1730,-140 1730,-159 1823,-159 1823,-140 1730,-140"/>
<text text-anchor="middle" x="1776.5" y="-147" font-family="Helvetica,sans-Serif" font-size="10.00" fill="#000000">src/laplacepp.cpp</text>
</a>
</g>
</g>
<!-- Node52&#45;&gt;Node59 -->
<g id="edge26" class="edge">
<title>Node52&#45;&gt;Node59</title>
<path fill="none" stroke="#191970" d="M1598.0272,-198.7512C1631.6724,-189.4919 1678.9927,-176.4609 1720.5,-165 1727.5012,-163.0668 1734.9939,-160.995 1742.1479,-159.0154"/>
<polygon fill="#191970" stroke="#191970" points="1596.7592,-195.4699 1588.0462,-201.4977 1598.6164,-202.2191 1596.7592,-195.4699"/>
</g>
<!-- Node60 -->
<g id="node27" class="node">
<title>Node60</title>
<g id="a_node27"><a xlink:href="../../d6/d14/neumann_inner_surface___polyconvex_h_g_o_8hpp.html" target="_top" xlink:title="src/neumannInnerSurface\l_PolyconvexHGO.hpp">
<polygon fill="#ffffff" stroke="#000000" points="1841.5,-134.5 1841.5,-164.5 1969.5,-164.5 1969.5,-134.5 1841.5,-134.5"/>
<text text-anchor="start" x="1849.5" y="-152.5" font-family="Helvetica,sans-Serif" font-size="10.00" fill="#000000">src/neumannInnerSurface</text>
<text text-anchor="middle" x="1905.5" y="-141.5" font-family="Helvetica,sans-Serif" font-size="10.00" fill="#000000">_PolyconvexHGO.hpp</text>
</a>
</g>
</g>
<!-- Node52&#45;&gt;Node60 -->
<g id="edge27" class="edge">
<title>Node52&#45;&gt;Node60</title>
<path fill="none" stroke="#191970" d="M1610.4589,-202.3004C1666.739,-193.5338 1755.2269,-179.2918 1831.5,-165 1834.7254,-164.3956 1838.0265,-163.7615 1841.3579,-163.1092"/>
<polygon fill="#191970" stroke="#191970" points="1609.6797,-198.8794 1600.3351,-203.8724 1610.7538,-205.7965 1609.6797,-198.8794"/>
</g>
<!-- Node63 -->
<g id="node30" class="node">
<title>Node63</title>
<g id="a_node30"><a xlink:href="../../dc/da1/neumann_inner_surface___stochastic_polyconvex_h_g_o_8hpp.html" target="_top" xlink:title="src/neumannInnerSurface\l_StochasticPolyconvexHGO.hpp">
<polygon fill="#ffffff" stroke="#000000" points="2044,-134.5 2044,-164.5 2205,-164.5 2205,-134.5 2044,-134.5"/>
<text text-anchor="start" x="2052" y="-152.5" font-family="Helvetica,sans-Serif" font-size="10.00" fill="#000000">src/neumannInnerSurface</text>
<text text-anchor="middle" x="2124.5" y="-141.5" font-family="Helvetica,sans-Serif" font-size="10.00" fill="#000000">_StochasticPolyconvexHGO.hpp</text>
</a>
</g>
</g>
<!-- Node52&#45;&gt;Node63 -->
<g id="edge30" class="edge">
<title>Node52&#45;&gt;Node63</title>
<path fill="none" stroke="#191970" d="M1610.3254,-204.8796C1712.2755,-193.899 1926.5186,-170.8237 2043.7072,-158.2019"/>
<polygon fill="#191970" stroke="#191970" points="1609.795,-201.4164 1600.2273,-205.9672 1610.5447,-208.3761 1609.795,-201.4164"/>
</g>
<!-- Node56 -->
<g id="node23" class="node">
<title>Node56</title>
<g id="a_node23"><a xlink:href="../../de/da1/arteries_2deterministic__dirichlet_2main_8cpp.html" target="_top" xlink:title="arteries/deterministic\l_dirichlet/main.cpp">
<polygon fill="#ffffff" stroke="#000000" points="1422,-67.5 1422,-97.5 1529,-97.5 1529,-67.5 1422,-67.5"/>
<text text-anchor="start" x="1430" y="-85.5" font-family="Helvetica,sans-Serif" font-size="10.00" fill="#000000">arteries/deterministic</text>
<text text-anchor="middle" x="1475.5" y="-74.5" font-family="Helvetica,sans-Serif" font-size="10.00" fill="#000000">_dirichlet/main.cpp</text>
</a>
</g>
</g>
<!-- Node55&#45;&gt;Node56 -->
<g id="edge23" class="edge">
<title>Node55&#45;&gt;Node56</title>
<path fill="none" stroke="#191970" d="M1475.5,-124.0249C1475.5,-115.128 1475.5,-105.4287 1475.5,-97.6432"/>
<polygon fill="#191970" stroke="#191970" points="1472.0001,-124.2966 1475.5,-134.2967 1479.0001,-124.2967 1472.0001,-124.2966"/>
</g>
<!-- Node58 -->
<g id="node25" class="node">
<title>Node58</title>
<g id="a_node25"><a xlink:href="../../dc/dba/arteries_2strip__dirichlet_2main_8cpp.html" target="_top" xlink:title="arteries/strip_dirichlet\l/main.cpp">
<polygon fill="#ffffff" stroke="#000000" points="1576.5,-67.5 1576.5,-97.5 1686.5,-97.5 1686.5,-67.5 1576.5,-67.5"/>
<text text-anchor="start" x="1584.5" y="-85.5" font-family="Helvetica,sans-Serif" font-size="10.00" fill="#000000">arteries/strip_dirichlet</text>
<text text-anchor="middle" x="1631.5" y="-74.5" font-family="Helvetica,sans-Serif" font-size="10.00" fill="#000000">/main.cpp</text>
</a>
</g>
</g>
<!-- Node57&#45;&gt;Node58 -->
<g id="edge25" class="edge">
<title>Node57&#45;&gt;Node58</title>
<path fill="none" stroke="#191970" d="M1631.5,-124.0249C1631.5,-115.128 1631.5,-105.4287 1631.5,-97.6432"/>
<polygon fill="#191970" stroke="#191970" points="1628.0001,-124.2966 1631.5,-134.2967 1635.0001,-124.2967 1628.0001,-124.2966"/>
</g>
<!-- Node61 -->
<g id="node28" class="node">
<title>Node61</title>
<g id="a_node28"><a xlink:href="../../d9/d81/arteries_2deterministic__neumann_2main_8cpp.html" target="_top" xlink:title="arteries/deterministic\l_neumann/main.cpp">
<polygon fill="#ffffff" stroke="#000000" points="1712,-67.5 1712,-97.5 1819,-97.5 1819,-67.5 1712,-67.5"/>
<text text-anchor="start" x="1720" y="-85.5" font-family="Helvetica,sans-Serif" font-size="10.00" fill="#000000">arteries/deterministic</text>
<text text-anchor="middle" x="1765.5" y="-74.5" font-family="Helvetica,sans-Serif" font-size="10.00" fill="#000000">_neumann/main.cpp</text>
</a>
</g>
</g>
<!-- Node60&#45;&gt;Node61 -->
<g id="edge28" class="edge">
<title>Node60&#45;&gt;Node61</title>
<path fill="none" stroke="#191970" d="M1864.862,-130.0518C1843.3498,-119.7567 1817.319,-107.2991 1797.2983,-97.7177"/>
<polygon fill="#191970" stroke="#191970" points="1863.5501,-133.3041 1874.0813,-134.4639 1866.5719,-126.9899 1863.5501,-133.3041"/>
</g>
<!-- Node62 -->
<g id="node29" class="node">
<title>Node62</title>
<g id="a_node29"><a xlink:href="../../db/db7/arteries_2vonmises_2main_8cpp.html" target="_top" xlink:title="arteries/vonmises/main.cpp">
<polygon fill="#ffffff" stroke="#000000" points="1837,-73 1837,-92 1974,-92 1974,-73 1837,-73"/>
<text text-anchor="middle" x="1905.5" y="-80" font-family="Helvetica,sans-Serif" font-size="10.00" fill="#000000">arteries/vonmises/main.cpp</text>
</a>
</g>
</g>
<!-- Node60&#45;&gt;Node62 -->
<g id="edge29" class="edge">
<title>Node60&#45;&gt;Node62</title>
<path fill="none" stroke="#191970" d="M1905.5,-124.1199C1905.5,-112.9072 1905.5,-100.4031 1905.5,-92.055"/>
<polygon fill="#191970" stroke="#191970" points="1902.0001,-124.2966 1905.5,-134.2967 1909.0001,-124.2967 1902.0001,-124.2966"/>
</g>
<!-- Node64 -->
<g id="node31" class="node">
<title>Node64</title>
<g id="a_node31"><a xlink:href="../../d5/da5/arteries_2boost__gmrf_2gmrf__gauss_2main_8cpp.html" target="_top" xlink:title="arteries/boost_gmrf\l/gmrf_gauss/main.cpp">
<polygon fill="#ffffff" stroke="#000000" points="1992,-67.5 1992,-97.5 2105,-97.5 2105,-67.5 1992,-67.5"/>
<text text-anchor="start" x="2000" y="-85.5" font-family="Helvetica,sans-Serif" font-size="10.00" fill="#000000">arteries/boost_gmrf</text>
<text text-anchor="middle" x="2048.5" y="-74.5" font-family="Helvetica,sans-Serif" font-size="10.00" fill="#000000">/gmrf_gauss/main.cpp</text>
</a>
</g>
</g>
<!-- Node63&#45;&gt;Node64 -->
<g id="edge31" class="edge">
<title>Node63&#45;&gt;Node64</title>
<path fill="none" stroke="#191970" d="M2099.5408,-127.4965C2088.4503,-117.7193 2075.6733,-106.4554 2065.6773,-97.6432"/>
<polygon fill="#191970" stroke="#191970" points="2097.4386,-130.3091 2107.2544,-134.2967 2102.0677,-125.0582 2097.4386,-130.3091"/>
</g>
<!-- Node65 -->
<g id="node32" class="node">
<title>Node65</title>
<g id="a_node32"><a xlink:href="../../d2/dbe/arteries_2boost__gmrf_2gmrf__nodes_2main_8cpp.html" target="_top" xlink:title="arteries/boost_gmrf\l/gmrf_nodes/main.cpp">
<polygon fill="#ffffff" stroke="#000000" points="2123,-67.5 2123,-97.5 2236,-97.5 2236,-67.5 2123,-67.5"/>
<text text-anchor="start" x="2131" y="-85.5" font-family="Helvetica,sans-Serif" font-size="10.00" fill="#000000">arteries/boost_gmrf</text>
<text text-anchor="middle" x="2179.5" y="-74.5" font-family="Helvetica,sans-Serif" font-size="10.00" fill="#000000">/gmrf_nodes/main.cpp</text>
</a>
</g>
</g>
<!-- Node63&#45;&gt;Node65 -->
<g id="edge32" class="edge">
<title>Node63&#45;&gt;Node65</title>
<path fill="none" stroke="#191970" d="M2143.503,-126.3509C2151.3037,-116.8482 2160.116,-106.1132 2167.069,-97.6432"/>
<polygon fill="#191970" stroke="#191970" points="2140.6201,-124.3466 2136.9804,-134.2967 2146.0306,-128.7881 2140.6201,-124.3466"/>
</g>
<!-- Node66 -->
<g id="node33" class="node">
<title>Node66</title>
<g id="a_node33"><a xlink:href="../../da/df3/arteries_2gmrf__neumann_2main_8cpp.html" target="_top" xlink:title="arteries/gmrf_neumann\l/main.cpp">
<polygon fill="#ffffff" stroke="#000000" points="2254.5,-67.5 2254.5,-97.5 2370.5,-97.5 2370.5,-67.5 2254.5,-67.5"/>
<text text-anchor="start" x="2262.5" y="-85.5" font-family="Helvetica,sans-Serif" font-size="10.00" fill="#000000">arteries/gmrf_neumann</text>
<text text-anchor="middle" x="2312.5" y="-74.5" font-family="Helvetica,sans-Serif" font-size="10.00" fill="#000000">/main.cpp</text>
</a>
</g>
</g>
<!-- Node63&#45;&gt;Node66 -->
<g id="edge33" class="edge">
<title>Node63&#45;&gt;Node66</title>
<path fill="none" stroke="#191970" d="M2176.4041,-131.0023C2205.9004,-120.4903 2242.3663,-107.4945 2270.1251,-97.6017"/>
<polygon fill="#191970" stroke="#191970" points="2174.9356,-127.8099 2166.6909,-134.4639 2177.2855,-134.4037 2174.9356,-127.8099"/>
</g>
</g>
</svg>
