<?xml version="1.0" encoding="UTF-8" standalone="no"?>
<!DOCTYPE svg PUBLIC "-//W3C//DTD SVG 1.1//EN"
 "http://www.w3.org/Graphics/SVG/1.1/DTD/svg11.dtd">
<!-- Generated by graphviz version 2.40.1 (20161225.0304)
 -->
<!-- Title: src/shinozukapp_layeredcomp_2d.hpp Pages: 1 -->
<!--zoomable 242 -->
<svg id="main" version="1.1" xmlns="http://www.w3.org/2000/svg" xmlns:xlink="http://www.w3.org/1999/xlink" xml:space="preserve" onload="init(evt)">
<style type="text/css"><![CDATA[
.edge:hover path { stroke: red; }
.edge:hover polygon { stroke: red; fill: red; }
]]></style>
<script type="text/javascript"><![CDATA[
var edges = document.getElementsByTagName('g');
if (edges && edges.length) {
  for (var i=0;i<edges.length;i++) {
    if (edges[i].id.substr(0,4)=='edge') {
      edges[i].setAttribute('class','edge');
    }
  }
}
]]></script>
        <defs>
                <circle id="rim" cx="0" cy="0" r="7"/>
                <circle id="rim2" cx="0" cy="0" r="3.5"/>
                <g id="zoomPlus">
                        <use xlink:href="#rim" fill="#404040">
                                <set attributeName="fill" to="#808080" begin="zoomplus.mouseover" end="zoomplus.mouseout"/>
                        </use>
                        <path d="M-4,0h8M0,-4v8" fill="none" stroke="white" stroke-width="1.5" pointer-events="none"/>
                </g>
                <g id="zoomMin">
                        <use xlink:href="#rim" fill="#404040">
                                <set attributeName="fill" to="#808080" begin="zoomminus.mouseover" end="zoomminus.mouseout"/>
                        </use>
                        <path d="M-4,0h8" fill="none" stroke="white" stroke-width="1.5" pointer-events="none"/>
                </g>
                <g id="dirArrow">
                        <path fill="none" stroke="white" stroke-width="1.5" d="M0,-3.0v7 M-2.5,-0.5L0,-3.0L2.5,-0.5"/>
                </g>
               <g id="resetDef">
                       <use xlink:href="#rim2" fill="#404040">
                               <set attributeName="fill" to="#808080" begin="reset.mouseover" end="reset.mouseout"/>
                       </use>
               </g>
        </defs>

<script type="text/javascript">
var viewWidth = 771;
var viewHeight = 242;
var sectionId = 'dynsection-1';
</script>
<script xlink:href="../../svgpan.js"/>
<svg id="graph" class="graph">
<g id="viewport">
<title>src/shinozukapp_layeredcomp_2d.hpp</title>
<polygon fill="#ffffff" stroke="transparent" points="-4,4 -4,-238 767.2236,-238 767.2236,4 -4,4"/>
<!-- Node39 -->
<g id="node1" class="node">
<title>Node39</title>
<polygon fill="#bfbfbf" stroke="#000000" points="273.4951,-205.5 273.4951,-233.5 424.5684,-233.5 424.5684,-205.5 273.4951,-205.5"/>
<text text-anchor="start" x="281.4951" y="-221.5" font-family="Helvetica,sans-Serif" font-size="10.00" fill="#000000">src/shinozukapp_layeredcomp</text>
<text text-anchor="middle" x="349.0317" y="-211.5" font-family="Helvetica,sans-Serif" font-size="10.00" fill="#000000">_2d.hpp</text>
</g>
<!-- Node40 -->
<g id="node2" class="node">
<title>Node40</title>
<g id="a_node2"><a xlink:href="../../d4/d57/cee_s_b_v_p_8hpp.html" target="_top" xlink:title="cee530/sbvp/ceeSBVP.hpp">
<polygon fill="#ffffff" stroke="#000000" points="59.7998,-140.5 59.7998,-158.5 196.2637,-158.5 196.2637,-140.5 59.7998,-140.5"/>
<text text-anchor="middle" x="128.0317" y="-146.5" font-family="Helvetica,sans-Serif" font-size="10.00" fill="#000000">cee530/sbvp/ceeSBVP.hpp</text>
</a>
</g>
</g>
<!-- Node39&#45;&gt;Node40 -->
<g id="edge1" class="edge">
<title>Node39&#45;&gt;Node40</title>
<path fill="none" stroke="#191970" d="M294.9579,-202.3725C251.2776,-188.5371 191.5195,-169.6093 156.6202,-158.5552"/>
<polygon fill="#191970" stroke="#191970" points="293.9848,-205.7356 304.5749,-205.4187 296.0986,-199.0624 293.9848,-205.7356"/>
</g>
<!-- Node42 -->
<g id="node4" class="node">
<title>Node42</title>
<g id="a_node4"><a xlink:href="../../d4/df3/compressible___mooney___transverse___isotropic___random___field_8hpp.html" target="_top" xlink:title="src/compressible_Mooney\l_Transverse_Isotropic\l_Random_Field.hpp">
<polygon fill="#ffffff" stroke="#000000" points="282.9531,-130.5 282.9531,-168.5 415.1104,-168.5 415.1104,-130.5 282.9531,-130.5"/>
<text text-anchor="start" x="290.9531" y="-156.5" font-family="Helvetica,sans-Serif" font-size="10.00" fill="#000000">src/compressible_Mooney</text>
<text text-anchor="start" x="290.9531" y="-146.5" font-family="Helvetica,sans-Serif" font-size="10.00" fill="#000000">_Transverse_Isotropic</text>
<text text-anchor="middle" x="349.0317" y="-136.5" font-family="Helvetica,sans-Serif" font-size="10.00" fill="#000000">_Random_Field.hpp</text>
</a>
</g>
</g>
<!-- Node39&#45;&gt;Node42 -->
<g id="edge3" class="edge">
<title>Node39&#45;&gt;Node42</title>
<path fill="none" stroke="#191970" d="M349.0317,-195.0725C349.0317,-186.4275 349.0317,-176.8328 349.0317,-168.6857"/>
<polygon fill="#191970" stroke="#191970" points="345.5318,-195.3344 349.0317,-205.3345 352.5318,-195.3345 345.5318,-195.3344"/>
</g>
<!-- Node50 -->
<g id="node12" class="node">
<title>Node50</title>
<g id="a_node12"><a xlink:href="../../db/d39/shinozukapp__layeredcomp__2d_8cpp.html" target="_top" xlink:title="src/shinozukapp_layeredcomp\l_2d.cpp">
<polygon fill="#ffffff" stroke="#000000" points="433.4951,-135.5 433.4951,-163.5 584.5684,-163.5 584.5684,-135.5 433.4951,-135.5"/>
<text text-anchor="start" x="441.4951" y="-151.5" font-family="Helvetica,sans-Serif" font-size="10.00" fill="#000000">src/shinozukapp_layeredcomp</text>
<text text-anchor="middle" x="509.0317" y="-141.5" font-family="Helvetica,sans-Serif" font-size="10.00" fill="#000000">_2d.cpp</text>
</a>
</g>
</g>
<!-- Node39&#45;&gt;Node50 -->
<g id="edge11" class="edge">
<title>Node39&#45;&gt;Node50</title>
<path fill="none" stroke="#191970" d="M390.5977,-201.3149C417.5535,-189.5217 452.1455,-174.3877 476.9749,-163.5249"/>
<polygon fill="#191970" stroke="#191970" points="389.1688,-198.1197 381.4101,-205.3345 391.9746,-204.5328 389.1688,-198.1197"/>
</g>
<!-- Node41 -->
<g id="node3" class="node">
<title>Node41</title>
<g id="a_node3"><a xlink:href="../../dc/d51/cee530_2sbvp_2main_8cpp.html" target="_top" xlink:title="cee530/sbvp/main.cpp">
<polygon fill="#ffffff" stroke="#000000" points="0,-70.5 0,-88.5 116.0635,-88.5 116.0635,-70.5 0,-70.5"/>
<text text-anchor="middle" x="58.0317" y="-76.5" font-family="Helvetica,sans-Serif" font-size="10.00" fill="#000000">cee530/sbvp/main.cpp</text>
</a>
</g>
</g>
<!-- Node40&#45;&gt;Node41 -->
<g id="edge2" class="edge">
<title>Node40&#45;&gt;Node41</title>
<path fill="none" stroke="#191970" d="M111.4993,-132.9675C97.748,-119.2163 78.6668,-100.1351 67.4087,-88.8769"/>
<polygon fill="#191970" stroke="#191970" points="109.3345,-135.7525 118.8805,-140.3487 114.2842,-130.8027 109.3345,-135.7525"/>
</g>
<!-- Node43 -->
<g id="node5" class="node">
<title>Node43</title>
<g id="a_node5"><a xlink:href="../../df/df6/forward_costfunction_8hpp.html" target="_top" xlink:title="nrl/hide/forward_randomfield\l/forwardCostfunction.hpp">
<polygon fill="#ffffff" stroke="#000000" points="133.665,-65.5 133.665,-93.5 276.3984,-93.5 276.3984,-65.5 133.665,-65.5"/>
<text text-anchor="start" x="141.665" y="-81.5" font-family="Helvetica,sans-Serif" font-size="10.00" fill="#000000">nrl/hide/forward_randomfield</text>
<text text-anchor="middle" x="205.0317" y="-71.5" font-family="Helvetica,sans-Serif" font-size="10.00" fill="#000000">/forwardCostfunction.hpp</text>
</a>
</g>
</g>
<!-- Node42&#45;&gt;Node43 -->
<g id="edge4" class="edge">
<title>Node42&#45;&gt;Node43</title>
<path fill="none" stroke="#191970" d="M300.4963,-125.9064C278.5285,-115.2276 253.2885,-102.9582 234.2807,-93.7183"/>
<polygon fill="#191970" stroke="#191970" points="299.1592,-129.148 309.6831,-130.3722 302.2196,-122.8524 299.1592,-129.148"/>
</g>
<!-- Node45 -->
<g id="node7" class="node">
<title>Node45</title>
<g id="a_node7"><a xlink:href="../../da/d34/nrl_2hide_2test__parallel__shinozuka_2main_8cpp.html" target="_top" xlink:title="nrl/hide/test_parallel\l_shinozuka/main.cpp">
<polygon fill="#ffffff" stroke="#000000" points="294.0591,-65.5 294.0591,-93.5 404.0044,-93.5 404.0044,-65.5 294.0591,-65.5"/>
<text text-anchor="start" x="302.0591" y="-81.5" font-family="Helvetica,sans-Serif" font-size="10.00" fill="#000000">nrl/hide/test_parallel</text>
<text text-anchor="middle" x="349.0317" y="-71.5" font-family="Helvetica,sans-Serif" font-size="10.00" fill="#000000">_shinozuka/main.cpp</text>
</a>
</g>
</g>
<!-- Node42&#45;&gt;Node45 -->
<g id="edge6" class="edge">
<title>Node42&#45;&gt;Node45</title>
<path fill="none" stroke="#191970" d="M349.0317,-120.1346C349.0317,-111.0837 349.0317,-101.5165 349.0317,-93.9404"/>
<polygon fill="#191970" stroke="#191970" points="345.5318,-120.3722 349.0317,-130.3722 352.5318,-120.3722 345.5318,-120.3722"/>
</g>
<!-- Node46 -->
<g id="node8" class="node">
<title>Node46</title>
<g id="a_node8"><a xlink:href="../../d2/d16/nrl_2randomfields_2main_8cpp.html" target="_top" xlink:title="nrl/randomfields/main.cpp">
<polygon fill="#ffffff" stroke="#000000" points="421.7832,-70.5 421.7832,-88.5 552.2803,-88.5 552.2803,-70.5 421.7832,-70.5"/>
<text text-anchor="middle" x="487.0317" y="-76.5" font-family="Helvetica,sans-Serif" font-size="10.00" fill="#000000">nrl/randomfields/main.cpp</text>
</a>
</g>
</g>
<!-- Node42&#45;&gt;Node46 -->
<g id="edge7" class="edge">
<title>Node42&#45;&gt;Node46</title>
<path fill="none" stroke="#191970" d="M395.7974,-125.7783C421.0019,-112.9934 450.6383,-97.9605 469.1321,-88.5795"/>
<polygon fill="#191970" stroke="#191970" points="394.0758,-122.727 386.7408,-130.3722 397.2425,-128.9698 394.0758,-122.727"/>
</g>
<!-- Node47 -->
<g id="node9" class="node">
<title>Node47</title>
<g id="a_node9"><a xlink:href="../../d6/d6e/nrl___p_c_a___likelihood_8hpp.html" target="_top" xlink:title="src/nrl_PCA_Likelihood.hpp">
<polygon fill="#ffffff" stroke="#000000" points="570.3301,-70.5 570.3301,-88.5 709.7334,-88.5 709.7334,-70.5 570.3301,-70.5"/>
<text text-anchor="middle" x="640.0317" y="-76.5" font-family="Helvetica,sans-Serif" font-size="10.00" fill="#000000">src/nrl_PCA_Likelihood.hpp</text>
</a>
</g>
</g>
<!-- Node42&#45;&gt;Node47 -->
<g id="edge8" class="edge">
<title>Node42&#45;&gt;Node47</title>
<path fill="none" stroke="#191970" d="M425.1242,-129.7556C491.9818,-113.3338 558.7847,-97.932 600.1505,-88.5138"/>
<polygon fill="#191970" stroke="#191970" points="424.1349,-126.3946 415.2626,-132.1853 425.8095,-133.1914 424.1349,-126.3946"/>
</g>
<!-- Node44 -->
<g id="node6" class="node">
<title>Node44</title>
<g id="a_node6"><a xlink:href="../../dd/daf/nrl_2hide_2forward__randomfield_2main_8cpp.html" target="_top" xlink:title="nrl/hide/forward_randomfield\l/main.cpp">
<polygon fill="#ffffff" stroke="#000000" points="133.665,-.5 133.665,-28.5 276.3984,-28.5 276.3984,-.5 133.665,-.5"/>
<text text-anchor="start" x="141.665" y="-16.5" font-family="Helvetica,sans-Serif" font-size="10.00" fill="#000000">nrl/hide/forward_randomfield</text>
<text text-anchor="middle" x="205.0317" y="-6.5" font-family="Helvetica,sans-Serif" font-size="10.00" fill="#000000">/main.cpp</text>
</a>
</g>
</g>
<!-- Node43&#45;&gt;Node44 -->
<g id="edge5" class="edge">
<title>Node43&#45;&gt;Node44</title>
<path fill="none" stroke="#191970" d="M205.0317,-55.1081C205.0317,-46.1539 205.0317,-36.3227 205.0317,-28.5765"/>
<polygon fill="#191970" stroke="#191970" points="201.5318,-55.3959 205.0317,-65.396 208.5318,-55.396 201.5318,-55.3959"/>
</g>
<!-- Node48 -->
<g id="node10" class="node">
<title>Node48</title>
<g id="a_node10"><a xlink:href="../../d5/daf/nrl_2random__generator__for__pca__likelihood_2main_8cpp.html" target="_top" xlink:title="nrl/random_generator\l_for_pca_likelihood/main.cpp">
<polygon fill="#ffffff" stroke="#000000" points="495.2686,-.5 495.2686,-28.5 640.7949,-28.5 640.7949,-.5 495.2686,-.5"/>
<text text-anchor="start" x="503.2686" y="-16.5" font-family="Helvetica,sans-Serif" font-size="10.00" fill="#000000">nrl/random_generator</text>
<text text-anchor="middle" x="568.0317" y="-6.5" font-family="Helvetica,sans-Serif" font-size="10.00" fill="#000000">_for_pca_likelihood/main.cpp</text>
</a>
</g>
</g>
<!-- Node47&#45;&gt;Node48 -->
<g id="edge9" class="edge">
<title>Node47&#45;&gt;Node48</title>
<path fill="none" stroke="#191970" d="M622.5103,-63.682C610.6832,-53.0048 595.2055,-39.0319 583.7713,-28.7093"/>
<polygon fill="#191970" stroke="#191970" points="620.2524,-66.3589 630.0204,-70.462 624.9431,-61.163 620.2524,-66.3589"/>
</g>
<!-- Node49 -->
<g id="node11" class="node">
<title>Node49</title>
<g id="a_node11"><a xlink:href="../../db/d7d/nrl_2testing__solutions_2main_8cpp.html" target="_top" xlink:title="nrl/testing_solutions\l/main.cpp">
<polygon fill="#ffffff" stroke="#000000" points="658.8398,-.5 658.8398,-28.5 763.2236,-28.5 763.2236,-.5 658.8398,-.5"/>
<text text-anchor="start" x="666.8398" y="-16.5" font-family="Helvetica,sans-Serif" font-size="10.00" fill="#000000">nrl/testing_solutions</text>
<text text-anchor="middle" x="711.0317" y="-6.5" font-family="Helvetica,sans-Serif" font-size="10.00" fill="#000000">/main.cpp</text>
</a>
</g>
</g>
<!-- Node47&#45;&gt;Node49 -->
<g id="edge10" class="edge">
<title>Node47&#45;&gt;Node49</title>
<path fill="none" stroke="#191970" d="M657.3099,-63.682C668.9727,-53.0048 684.2354,-39.0319 695.5108,-28.7093"/>
<polygon fill="#191970" stroke="#191970" points="654.9165,-61.1279 649.904,-70.462 659.6433,-66.291 654.9165,-61.1279"/>
</g>
</g>
</svg>
        <g id="navigator" transform="translate(0 0)" fill="#404254">
                <rect fill="#f2f5e9" fill-opacity="0.5" stroke="#606060" stroke-width=".5" x="0" y="0" width="60" height="60"/>
                <use id="zoomplus" xlink:href="#zoomPlus" x="17" y="9" onmousedown="handleZoom(evt,'in')"/>
                <use id="zoomminus" xlink:href="#zoomMin" x="42" y="9" onmousedown="handleZoom(evt,'out')"/>
                <use id="reset" xlink:href="#resetDef" x="30" y="36" onmousedown="handleReset()"/>
                <g id="arrowUp" xlink:href="#dirArrow" transform="translate(30 24)" onmousedown="handlePan(0,-1)">
                  <use xlink:href="#rim" fill="#404040">
                        <set attributeName="fill" to="#808080" begin="arrowUp.mouseover" end="arrowUp.mouseout"/>
                  </use>
                  <path fill="none" stroke="white" stroke-width="1.5" d="M0,-3.0v7 M-2.5,-0.5L0,-3.0L2.5,-0.5"/>
                </g>
                <g id="arrowRight" xlink:href="#dirArrow" transform="rotate(90) translate(36 -43)" onmousedown="handlePan(1,0)">
                  <use xlink:href="#rim" fill="#404040">
                        <set attributeName="fill" to="#808080" begin="arrowRight.mouseover" end="arrowRight.mouseout"/>
                  </use>
                  <path fill="none" stroke="white" stroke-width="1.5" d="M0,-3.0v7 M-2.5,-0.5L0,-3.0L2.5,-0.5"/>
                </g>
                <g id="arrowDown" xlink:href="#dirArrow" transform="rotate(180) translate(-30 -48)" onmousedown="handlePan(0,1)">
                  <use xlink:href="#rim" fill="#404040">
                        <set attributeName="fill" to="#808080" begin="arrowDown.mouseover" end="arrowDown.mouseout"/>
                  </use>
                  <path fill="none" stroke="white" stroke-width="1.5" d="M0,-3.0v7 M-2.5,-0.5L0,-3.0L2.5,-0.5"/>
                </g>
                <g id="arrowLeft" xlink:href="#dirArrow" transform="rotate(270) translate(-36 17)" onmousedown="handlePan(-1,0)">
                  <use xlink:href="#rim" fill="#404040">
                        <set attributeName="fill" to="#808080" begin="arrowLeft.mouseover" end="arrowLeft.mouseout"/>
                  </use>
                  <path fill="none" stroke="white" stroke-width="1.5" d="M0,-3.0v7 M-2.5,-0.5L0,-3.0L2.5,-0.5"/>
                </g>
        </g>
        <svg viewBox="0 0 15 15" width="100%" height="30px" preserveAspectRatio="xMaxYMin meet">
         <g id="arrow_out" transform="scale(0.3 0.3)">
          <a xlink:href="shinozukapp__layeredcomp__2d_8hpp__dep__incl_org.svg" target="_base">
           <rect id="button" ry="5" rx="5" y="6" x="6" height="38" width="38"
                fill="#f2f5e9" fill-opacity="0.5" stroke="#606060" stroke-width="1.0"/>
           <path id="arrow"
             d="M 11.500037,31.436501 C 11.940474,20.09759 22.043105,11.32322 32.158766,21.979434 L 37.068811,17.246167 C 37.068811,17.246167 37.088388,32 37.088388,32 L 22.160133,31.978069 C 22.160133,31.978069 26.997745,27.140456 26.997745,27.140456 C 18.528582,18.264221 13.291696,25.230495 11.500037,31.436501 z"
             style="fill:#404040;"/>
          </a>
         </g>
        </svg>
</svg>
