<?xml version="1.0" encoding="UTF-8" standalone="no"?>
<!DOCTYPE svg PUBLIC "-//W3C//DTD SVG 1.1//EN"
 "http://www.w3.org/Graphics/SVG/1.1/DTD/svg11.dtd">
<!-- Generated by graphviz version 2.40.1 (20161225.0304)
 -->
<!-- Title: src/BaseClassFEM.hpp Pages: 1 -->
<svg width="2091pt" height="427pt"
 viewBox="0.00 0.00 2091.05 427.00" xmlns="http://www.w3.org/2000/svg" xmlns:xlink="http://www.w3.org/1999/xlink">
<g id="graph0" class="graph" transform="scale(1 1) rotate(0) translate(4 423)">
<title>src/BaseClassFEM.hpp</title>
<polygon fill="#ffffff" stroke="transparent" points="-4,4 -4,-423 2087.0464,-423 2087.0464,4 -4,4"/>
<!-- Node33 -->
<g id="node1" class="node">
<title>Node33</title>
<polygon fill="#bfbfbf" stroke="#000000" points="1280.6182,-400.5 1280.6182,-418.5 1401.0957,-418.5 1401.0957,-400.5 1280.6182,-400.5"/>
<text text-anchor="middle" x="1340.8569" y="-406.5" font-family="Helvetica,sans-Serif" font-size="10.00" fill="#000000">src/BaseClassFEM.hpp</text>
</g>
<!-- Node34 -->
<g id="node2" class="node">
<title>Node34</title>
<g id="a_node2"><a xlink:href="../../d2/d8b/_finite___element___problem_8hpp.html" target="_top" xlink:title="src/Finite_Element\l_Problem.hpp">
<polygon fill="#ffffff" stroke="#000000" points="1151.4531,-270.5 1151.4531,-298.5 1250.2607,-298.5 1250.2607,-270.5 1151.4531,-270.5"/>
<text text-anchor="start" x="1159.4531" y="-286.5" font-family="Helvetica,sans-Serif" font-size="10.00" fill="#000000">src/Finite_Element</text>
<text text-anchor="middle" x="1200.8569" y="-276.5" font-family="Helvetica,sans-Serif" font-size="10.00" fill="#000000">_Problem.hpp</text>
</a>
</g>
</g>
<!-- Node33&#45;&gt;Node34 -->
<g id="edge1" class="edge">
<title>Node33&#45;&gt;Node34</title>
<path fill="none" stroke="#191970" d="M1322.6127,-393.2105C1295.0441,-368.5957 1243.209,-322.3143 1216.9615,-298.8791"/>
<polygon fill="#191970" stroke="#191970" points="1320.5437,-396.0553 1330.3342,-400.1047 1325.2058,-390.8337 1320.5437,-396.0553"/>
</g>
<!-- Node62 -->
<g id="node30" class="node">
<title>Node62</title>
<g id="a_node30"><a xlink:href="../../d9/dea/_linear___finite___element___problem_8hpp.html" target="_top" xlink:title="src/Linear_Finite_Element\l_Problem.hpp">
<polygon fill="#ffffff" stroke="#000000" points="1337.7734,-335.5 1337.7734,-363.5 1469.9404,-363.5 1469.9404,-335.5 1337.7734,-335.5"/>
<text text-anchor="start" x="1345.7734" y="-351.5" font-family="Helvetica,sans-Serif" font-size="10.00" fill="#000000">src/Linear_Finite_Element</text>
<text text-anchor="middle" x="1403.8569" y="-341.5" font-family="Helvetica,sans-Serif" font-size="10.00" fill="#000000">_Problem.hpp</text>
</a>
</g>
</g>
<!-- Node33&#45;&gt;Node62 -->
<g id="edge41" class="edge">
<title>Node33&#45;&gt;Node62</title>
<path fill="none" stroke="#191970" d="M1357.875,-393.2923C1367.5223,-384.1044 1379.4862,-372.7103 1388.7919,-363.8477"/>
<polygon fill="#191970" stroke="#191970" points="1355.2529,-390.9562 1350.4253,-400.3873 1360.0805,-396.0252 1355.2529,-390.9562"/>
</g>
<!-- Node35 -->
<g id="node3" class="node">
<title>Node35</title>
<g id="a_node3"><a xlink:href="../../de/d9d/hyperelasticity__setup__pp_8hpp.html" target="_top" xlink:title="src/hyperelasticity\l_setup_pp.hpp">
<polygon fill="#ffffff" stroke="#000000" points="1153.123,-205.5 1153.123,-233.5 1248.5908,-233.5 1248.5908,-205.5 1153.123,-205.5"/>
<text text-anchor="start" x="1161.123" y="-221.5" font-family="Helvetica,sans-Serif" font-size="10.00" fill="#000000">src/hyperelasticity</text>
<text text-anchor="middle" x="1200.8569" y="-211.5" font-family="Helvetica,sans-Serif" font-size="10.00" fill="#000000">_setup_pp.hpp</text>
</a>
</g>
</g>
<!-- Node34&#45;&gt;Node35 -->
<g id="edge2" class="edge">
<title>Node34&#45;&gt;Node35</title>
<path fill="none" stroke="#191970" d="M1200.8569,-260.1081C1200.8569,-251.1539 1200.8569,-241.3227 1200.8569,-233.5765"/>
<polygon fill="#191970" stroke="#191970" points="1197.357,-260.3959 1200.8569,-270.396 1204.357,-260.396 1197.357,-260.3959"/>
</g>
<!-- Node59 -->
<g id="node27" class="node">
<title>Node59</title>
<g id="a_node27"><a xlink:href="../../d7/d17/_newton___raphsonpp_8hpp.html" target="_top" xlink:title="src/Newton_Raphsonpp.hpp">
<polygon fill="#ffffff" stroke="#000000" points="845.7612,-140.5 845.7612,-158.5 987.9526,-158.5 987.9526,-140.5 845.7612,-140.5"/>
<text text-anchor="middle" x="916.8569" y="-146.5" font-family="Helvetica,sans-Serif" font-size="10.00" fill="#000000">src/Newton_Raphsonpp.hpp</text>
</a>
</g>
</g>
<!-- Node34&#45;&gt;Node59 -->
<g id="edge40" class="edge">
<title>Node34&#45;&gt;Node59</title>
<path fill="none" stroke="#191970" d="M1162.2298,-266.1385C1100.5112,-236.8004 981.9269,-180.4311 935.8347,-158.5211"/>
<polygon fill="#191970" stroke="#191970" points="1160.7335,-269.3025 1171.2677,-270.4347 1163.7387,-262.9804 1160.7335,-269.3025"/>
</g>
<!-- Node36 -->
<g id="node4" class="node">
<title>Node36</title>
<g id="a_node4"><a xlink:href="../../de/d4a/rubberblock_8hpp.html" target="_top" xlink:title="examples/rubberblock\l/rubberblock.hpp">
<polygon fill="#ffffff" stroke="#000000" points="1281.9434,-135.5 1281.9434,-163.5 1395.7705,-163.5 1395.7705,-135.5 1281.9434,-135.5"/>
<text text-anchor="start" x="1289.9434" y="-151.5" font-family="Helvetica,sans-Serif" font-size="10.00" fill="#000000">examples/rubberblock</text>
<text text-anchor="middle" x="1338.8569" y="-141.5" font-family="Helvetica,sans-Serif" font-size="10.00" fill="#000000">/rubberblock.hpp</text>
</a>
</g>
</g>
<!-- Node35&#45;&gt;Node36 -->
<g id="edge3" class="edge">
<title>Node35&#45;&gt;Node36</title>
<path fill="none" stroke="#191970" d="M1237.9006,-200.7097C1260.8843,-189.0513 1289.9396,-174.3132 1310.9721,-163.6445"/>
<polygon fill="#191970" stroke="#191970" points="1236.1182,-197.6892 1228.7833,-205.3345 1239.2849,-203.932 1236.1182,-197.6892"/>
</g>
<!-- Node38 -->
<g id="node6" class="node">
<title>Node38</title>
<g id="a_node6"><a xlink:href="../../dc/de4/manufactured_solution_8hpp.html" target="_top" xlink:title="nrl/manufactured_solution\l/manufacturedSolution.hpp">
<polygon fill="#ffffff" stroke="#000000" points="1418.0938,-65.5 1418.0938,-93.5 1553.6201,-93.5 1553.6201,-65.5 1418.0938,-65.5"/>
<text text-anchor="start" x="1426.0938" y="-81.5" font-family="Helvetica,sans-Serif" font-size="10.00" fill="#000000">nrl/manufactured_solution</text>
<text text-anchor="middle" x="1485.8569" y="-71.5" font-family="Helvetica,sans-Serif" font-size="10.00" fill="#000000">/manufacturedSolution.hpp</text>
</a>
</g>
</g>
<!-- Node35&#45;&gt;Node38 -->
<g id="edge5" class="edge">
<title>Node35&#45;&gt;Node38</title>
<path fill="none" stroke="#191970" d="M1258.6619,-205.279C1330.5152,-195.4419 1482.1919,-211.0694 1518.8569,-169 1538.0072,-147.027 1515.2282,-112.9642 1499.1212,-93.8207"/>
<polygon fill="#191970" stroke="#191970" points="1257.9616,-201.8471 1248.6629,-206.925 1259.0987,-208.7541 1257.9616,-201.8471"/>
</g>
<!-- Node40 -->
<g id="node8" class="node">
<title>Node40</title>
<g id="a_node8"><a xlink:href="../../d6/db8/_arteries___model_c__deterministic__dirichlet_8hpp.html" target="_top" xlink:title="src/Arteries_ModelC\l_deterministic_dirichlet.hpp">
<polygon fill="#ffffff" stroke="#000000" points="1566.271,-135.5 1566.271,-163.5 1703.4429,-163.5 1703.4429,-135.5 1566.271,-135.5"/>
<text text-anchor="start" x="1574.271" y="-151.5" font-family="Helvetica,sans-Serif" font-size="10.00" fill="#000000">src/Arteries_ModelC</text>
<text text-anchor="middle" x="1634.8569" y="-141.5" font-family="Helvetica,sans-Serif" font-size="10.00" fill="#000000">_deterministic_dirichlet.hpp</text>
</a>
</g>
</g>
<!-- Node35&#45;&gt;Node40 -->
<g id="edge7" class="edge">
<title>Node35&#45;&gt;Node40</title>
<path fill="none" stroke="#191970" d="M1258.6209,-205.0224C1389.0078,-181.2581 1425.4189,-191.5247 1551.8569,-169 1560.6005,-167.4423 1569.8049,-165.5437 1578.7737,-163.5494"/>
<polygon fill="#191970" stroke="#191970" points="1257.8466,-201.6063 1248.6527,-206.8715 1259.1233,-208.4888 1257.8466,-201.6063"/>
</g>
<!-- Node42 -->
<g id="node10" class="node">
<title>Node42</title>
<g id="a_node10"><a xlink:href="../../dd/da4/_arteries___model_c__deterministic__neumann_8hpp.html" target="_top" xlink:title="src/Arteries_ModelC\l_deterministic_neumann.hpp">
<polygon fill="#ffffff" stroke="#000000" points="137.6504,-135.5 137.6504,-163.5 282.0635,-163.5 282.0635,-135.5 137.6504,-135.5"/>
<text text-anchor="start" x="145.6504" y="-151.5" font-family="Helvetica,sans-Serif" font-size="10.00" fill="#000000">src/Arteries_ModelC</text>
<text text-anchor="middle" x="209.8569" y="-141.5" font-family="Helvetica,sans-Serif" font-size="10.00" fill="#000000">_deterministic_neumann.hpp</text>
</a>
</g>
</g>
<!-- Node35&#45;&gt;Node42 -->
<g id="edge9" class="edge">
<title>Node35&#45;&gt;Node42</title>
<path fill="none" stroke="#191970" d="M1142.6749,-215.8783C1016.3379,-207.9515 707.4589,-188.2318 448.8569,-169 392.9137,-164.8396 329.6459,-159.6563 282.2642,-155.6796"/>
<polygon fill="#191970" stroke="#191970" points="1142.6925,-219.3862 1152.8919,-216.5186 1143.1304,-212.3999 1142.6925,-219.3862"/>
</g>
<!-- Node45 -->
<g id="node13" class="node">
<title>Node45</title>
<g id="a_node13"><a xlink:href="../../de/d6d/_arteries___model_c__gmrf__dirichlet_8hpp.html" target="_top" xlink:title="src/Arteries_ModelC\l_gmrf_dirichlet.hpp">
<polygon fill="#ffffff" stroke="#000000" points="1005.5664,-135.5 1005.5664,-163.5 1112.1475,-163.5 1112.1475,-135.5 1005.5664,-135.5"/>
<text text-anchor="start" x="1013.5664" y="-151.5" font-family="Helvetica,sans-Serif" font-size="10.00" fill="#000000">src/Arteries_ModelC</text>
<text text-anchor="middle" x="1058.8569" y="-141.5" font-family="Helvetica,sans-Serif" font-size="10.00" fill="#000000">_gmrf_dirichlet.hpp</text>
</a>
</g>
</g>
<!-- Node35&#45;&gt;Node45 -->
<g id="edge12" class="edge">
<title>Node35&#45;&gt;Node45</title>
<path fill="none" stroke="#191970" d="M1163.0545,-200.865C1139.3556,-189.1824 1109.2884,-174.3606 1087.55,-163.6445"/>
<polygon fill="#191970" stroke="#191970" points="1161.6042,-204.0522 1172.1211,-205.3345 1164.6993,-197.7736 1161.6042,-204.0522"/>
</g>
<!-- Node47 -->
<g id="node15" class="node">
<title>Node47</title>
<g id="a_node15"><a xlink:href="../../dd/d1f/_arteries___model_c__gmrf__neumann_8hpp.html" target="_top" xlink:title="src/Arteries_ModelC\l_gmrf_neumann.hpp">
<polygon fill="#ffffff" stroke="#000000" points="1721.7144,-135.5 1721.7144,-163.5 1829.9995,-163.5 1829.9995,-135.5 1721.7144,-135.5"/>
<text text-anchor="start" x="1729.7144" y="-151.5" font-family="Helvetica,sans-Serif" font-size="10.00" fill="#000000">src/Arteries_ModelC</text>
<text text-anchor="middle" x="1775.8569" y="-141.5" font-family="Helvetica,sans-Serif" font-size="10.00" fill="#000000">_gmrf_neumann.hpp</text>
</a>
</g>
</g>
<!-- Node35&#45;&gt;Node47 -->
<g id="edge14" class="edge">
<title>Node35&#45;&gt;Node47</title>
<path fill="none" stroke="#191970" d="M1258.628,-205.0899C1459.8189,-172.995 1516.8466,-206.608 1712.8569,-169 1720.1658,-167.5977 1727.8246,-165.6503 1735.1845,-163.5251"/>
<polygon fill="#191970" stroke="#191970" points="1257.9326,-201.657 1248.626,-206.7203 1259.0588,-208.5658 1257.9326,-201.657"/>
</g>
<!-- Node51 -->
<g id="node19" class="node">
<title>Node51</title>
<g id="a_node19"><a xlink:href="../../df/dc0/_compressible___mooney___transverse___isotropic_8hpp.html" target="_top" xlink:title="src/Compressible_Mooney\l_Transverse_Isotropic.hpp">
<polygon fill="#ffffff" stroke="#000000" points="457.6675,-135.5 457.6675,-163.5 592.0464,-163.5 592.0464,-135.5 457.6675,-135.5"/>
<text text-anchor="start" x="465.6675" y="-151.5" font-family="Helvetica,sans-Serif" font-size="10.00" fill="#000000">src/Compressible_Mooney</text>
<text text-anchor="middle" x="524.8569" y="-141.5" font-family="Helvetica,sans-Serif" font-size="10.00" fill="#000000">_Transverse_Isotropic.hpp</text>
</a>
</g>
</g>
<!-- Node35&#45;&gt;Node51 -->
<g id="edge18" class="edge">
<title>Node35&#45;&gt;Node51</title>
<path fill="none" stroke="#191970" d="M1142.9441,-213.5031C1018.2601,-200.592 724.9798,-170.2228 592.2325,-156.4768"/>
<polygon fill="#191970" stroke="#191970" points="1142.7452,-217.0011 1153.0526,-214.5498 1143.4663,-210.0384 1142.7452,-217.0011"/>
</g>
<!-- Node55 -->
<g id="node23" class="node">
<title>Node55</title>
<g id="a_node23"><a xlink:href="../../d0/d77/_compressible___mooney___transverse___isotropic___random___field_8hpp.html" target="_top" xlink:title="src/Compressible_Mooney\l_Transverse_Isotropic\l_Random_Field.hpp">
<polygon fill="#ffffff" stroke="#000000" points="1129.6675,-130.5 1129.6675,-168.5 1264.0464,-168.5 1264.0464,-130.5 1129.6675,-130.5"/>
<text text-anchor="start" x="1137.6675" y="-156.5" font-family="Helvetica,sans-Serif" font-size="10.00" fill="#000000">src/Compressible_Mooney</text>
<text text-anchor="start" x="1137.6675" y="-146.5" font-family="Helvetica,sans-Serif" font-size="10.00" fill="#000000">_Transverse_Isotropic</text>
<text text-anchor="middle" x="1196.8569" y="-136.5" font-family="Helvetica,sans-Serif" font-size="10.00" fill="#000000">_Random_Field.hpp</text>
</a>
</g>
</g>
<!-- Node35&#45;&gt;Node55 -->
<g id="edge22" class="edge">
<title>Node35&#45;&gt;Node55</title>
<path fill="none" stroke="#191970" d="M1199.4611,-195.0725C1198.9671,-186.4275 1198.4188,-176.8328 1197.9533,-168.6857"/>
<polygon fill="#191970" stroke="#191970" points="1195.9826,-195.5504 1200.0475,-205.3345 1202.9712,-195.151 1195.9826,-195.5504"/>
</g>
<!-- Node58 -->
<g id="node26" class="node">
<title>Node58</title>
<g id="a_node26"><a xlink:href="../../d0/d66/hyperelasticity__setup__pp_8cpp.html" target="_top" xlink:title="src/hyperelasticity\l_setup_pp.cpp">
<polygon fill="#ffffff" stroke="#000000" points="1414.123,-135.5 1414.123,-163.5 1509.5908,-163.5 1509.5908,-135.5 1414.123,-135.5"/>
<text text-anchor="start" x="1422.123" y="-151.5" font-family="Helvetica,sans-Serif" font-size="10.00" fill="#000000">src/hyperelasticity</text>
<text text-anchor="middle" x="1461.8569" y="-141.5" font-family="Helvetica,sans-Serif" font-size="10.00" fill="#000000">_setup_pp.cpp</text>
</a>
</g>
</g>
<!-- Node35&#45;&gt;Node58 -->
<g id="edge25" class="edge">
<title>Node35&#45;&gt;Node58</title>
<path fill="none" stroke="#191970" d="M1258.8359,-204.7865C1324.8334,-188.5933 1343.3302,-187.019 1404.8569,-169 1410.4778,-167.3538 1416.3671,-165.4948 1422.1384,-163.5947"/>
<polygon fill="#191970" stroke="#191970" points="1257.6088,-201.4846 1248.7431,-207.2854 1259.2912,-208.2794 1257.6088,-201.4846"/>
</g>
<!-- Node35&#45;&gt;Node59 -->
<g id="edge26" class="edge">
<title>Node35&#45;&gt;Node59</title>
<path fill="none" stroke="#191970" d="M1143.1071,-205.2659C1086.414,-191.2922 1001.6554,-170.401 953.5917,-158.5543"/>
<polygon fill="#191970" stroke="#191970" points="1142.4543,-208.7097 1153.0014,-207.7046 1144.1296,-201.9131 1142.4543,-208.7097"/>
</g>
<!-- Node37 -->
<g id="node5" class="node">
<title>Node37</title>
<g id="a_node5"><a xlink:href="../../d4/d7f/examples_2rubberblock_2main_8cpp.html" target="_top" xlink:title="examples/rubberblock\l/main.cpp">
<polygon fill="#ffffff" stroke="#000000" points="1285.9434,-65.5 1285.9434,-93.5 1399.7705,-93.5 1399.7705,-65.5 1285.9434,-65.5"/>
<text text-anchor="start" x="1293.9434" y="-81.5" font-family="Helvetica,sans-Serif" font-size="10.00" fill="#000000">examples/rubberblock</text>
<text text-anchor="middle" x="1342.8569" y="-71.5" font-family="Helvetica,sans-Serif" font-size="10.00" fill="#000000">/main.cpp</text>
</a>
</g>
</g>
<!-- Node36&#45;&gt;Node37 -->
<g id="edge4" class="edge">
<title>Node36&#45;&gt;Node37</title>
<path fill="none" stroke="#191970" d="M1340.2528,-125.0725C1340.8532,-114.5646 1341.5339,-102.6536 1342.0487,-93.6445"/>
<polygon fill="#191970" stroke="#191970" points="1336.7427,-125.151 1339.6664,-135.3345 1343.7313,-125.5504 1336.7427,-125.151"/>
</g>
<!-- Node39 -->
<g id="node7" class="node">
<title>Node39</title>
<g id="a_node7"><a xlink:href="../../d4/db6/nrl_2manufactured__solution_2main_8cpp.html" target="_top" xlink:title="nrl/manufactured_solution\l/main.cpp">
<polygon fill="#ffffff" stroke="#000000" points="1420.3228,-.5 1420.3228,-28.5 1551.3911,-28.5 1551.3911,-.5 1420.3228,-.5"/>
<text text-anchor="start" x="1428.3228" y="-16.5" font-family="Helvetica,sans-Serif" font-size="10.00" fill="#000000">nrl/manufactured_solution</text>
<text text-anchor="middle" x="1485.8569" y="-6.5" font-family="Helvetica,sans-Serif" font-size="10.00" fill="#000000">/main.cpp</text>
</a>
</g>
</g>
<!-- Node38&#45;&gt;Node39 -->
<g id="edge6" class="edge">
<title>Node38&#45;&gt;Node39</title>
<path fill="none" stroke="#191970" d="M1485.8569,-55.1081C1485.8569,-46.1539 1485.8569,-36.3227 1485.8569,-28.5765"/>
<polygon fill="#191970" stroke="#191970" points="1482.357,-55.3959 1485.8569,-65.396 1489.357,-55.396 1482.357,-55.3959"/>
</g>
<!-- Node41 -->
<g id="node9" class="node">
<title>Node41</title>
<g id="a_node9"><a xlink:href="../../de/da1/arteries_2deterministic__dirichlet_2main_8cpp.html" target="_top" xlink:title="arteries/deterministic\l_dirichlet/main.cpp">
<polygon fill="#ffffff" stroke="#000000" points="1571.7314,-65.5 1571.7314,-93.5 1679.9824,-93.5 1679.9824,-65.5 1571.7314,-65.5"/>
<text text-anchor="start" x="1579.7314" y="-81.5" font-family="Helvetica,sans-Serif" font-size="10.00" fill="#000000">arteries/deterministic</text>
<text text-anchor="middle" x="1625.8569" y="-71.5" font-family="Helvetica,sans-Serif" font-size="10.00" fill="#000000">_dirichlet/main.cpp</text>
</a>
</g>
</g>
<!-- Node40&#45;&gt;Node41 -->
<g id="edge8" class="edge">
<title>Node40&#45;&gt;Node41</title>
<path fill="none" stroke="#191970" d="M1631.7589,-125.4038C1630.3975,-114.8157 1628.846,-102.7484 1627.6755,-93.6445"/>
<polygon fill="#191970" stroke="#191970" points="1628.2889,-125.8625 1633.0356,-135.3345 1635.2318,-124.9697 1628.2889,-125.8625"/>
</g>
<!-- Node43 -->
<g id="node11" class="node">
<title>Node43</title>
<g id="a_node11"><a xlink:href="../../d9/d81/arteries_2deterministic__neumann_2main_8cpp.html" target="_top" xlink:title="arteries/deterministic\l_neumann/main.cpp">
<polygon fill="#ffffff" stroke="#000000" points="155.7314,-65.5 155.7314,-93.5 263.9824,-93.5 263.9824,-65.5 155.7314,-65.5"/>
<text text-anchor="start" x="163.7314" y="-81.5" font-family="Helvetica,sans-Serif" font-size="10.00" fill="#000000">arteries/deterministic</text>
<text text-anchor="middle" x="209.8569" y="-71.5" font-family="Helvetica,sans-Serif" font-size="10.00" fill="#000000">_neumann/main.cpp</text>
</a>
</g>
</g>
<!-- Node42&#45;&gt;Node43 -->
<g id="edge10" class="edge">
<title>Node42&#45;&gt;Node43</title>
<path fill="none" stroke="#191970" d="M209.8569,-125.0725C209.8569,-114.5646 209.8569,-102.6536 209.8569,-93.6445"/>
<polygon fill="#191970" stroke="#191970" points="206.357,-125.3344 209.8569,-135.3345 213.357,-125.3345 206.357,-125.3344"/>
</g>
<!-- Node44 -->
<g id="node12" class="node">
<title>Node44</title>
<g id="a_node12"><a xlink:href="../../db/db7/arteries_2vonmises_2main_8cpp.html" target="_top" xlink:title="arteries/vonmises/main.cpp">
<polygon fill="#ffffff" stroke="#000000" points="0,-70.5 0,-88.5 137.7139,-88.5 137.7139,-70.5 0,-70.5"/>
<text text-anchor="middle" x="68.8569" y="-76.5" font-family="Helvetica,sans-Serif" font-size="10.00" fill="#000000">arteries/vonmises/main.cpp</text>
</a>
</g>
</g>
<!-- Node42&#45;&gt;Node44 -->
<g id="edge11" class="edge">
<title>Node42&#45;&gt;Node44</title>
<path fill="none" stroke="#191970" d="M172.3413,-130.8752C144.7732,-117.1889 108.5183,-99.19 87.051,-88.5325"/>
<polygon fill="#191970" stroke="#191970" points="170.8102,-134.0226 181.3235,-135.3345 173.9229,-127.7528 170.8102,-134.0226"/>
</g>
<!-- Node46 -->
<g id="node14" class="node">
<title>Node46</title>
<g id="a_node14"><a xlink:href="../../dc/dba/arteries_2strip__dirichlet_2main_8cpp.html" target="_top" xlink:title="arteries/strip_dirichlet\l/main.cpp">
<polygon fill="#ffffff" stroke="#000000" points="1012.3398,-65.5 1012.3398,-93.5 1123.374,-93.5 1123.374,-65.5 1012.3398,-65.5"/>
<text text-anchor="start" x="1020.3398" y="-81.5" font-family="Helvetica,sans-Serif" font-size="10.00" fill="#000000">arteries/strip_dirichlet</text>
<text text-anchor="middle" x="1067.8569" y="-71.5" font-family="Helvetica,sans-Serif" font-size="10.00" fill="#000000">/main.cpp</text>
</a>
</g>
</g>
<!-- Node45&#45;&gt;Node46 -->
<g id="edge13" class="edge">
<title>Node45&#45;&gt;Node46</title>
<path fill="none" stroke="#191970" d="M1061.955,-125.4038C1063.3163,-114.8157 1064.8679,-102.7484 1066.0384,-93.6445"/>
<polygon fill="#191970" stroke="#191970" points="1058.4821,-124.9697 1060.6782,-135.3345 1065.4249,-125.8625 1058.4821,-124.9697"/>
</g>
<!-- Node48 -->
<g id="node16" class="node">
<title>Node48</title>
<g id="a_node16"><a xlink:href="../../d5/da5/arteries_2boost__gmrf_2gmrf__gauss_2main_8cpp.html" target="_top" xlink:title="arteries/boost_gmrf\l/gmrf_gauss/main.cpp">
<polygon fill="#ffffff" stroke="#000000" points="1968.6675,-65.5 1968.6675,-93.5 2083.0464,-93.5 2083.0464,-65.5 1968.6675,-65.5"/>
<text text-anchor="start" x="1976.6675" y="-81.5" font-family="Helvetica,sans-Serif" font-size="10.00" fill="#000000">arteries/boost_gmrf</text>
<text text-anchor="middle" x="2025.8569" y="-71.5" font-family="Helvetica,sans-Serif" font-size="10.00" fill="#000000">/gmrf_gauss/main.cpp</text>
</a>
</g>
</g>
<!-- Node47&#45;&gt;Node48 -->
<g id="edge15" class="edge">
<title>Node47&#45;&gt;Node48</title>
<path fill="none" stroke="#191970" d="M1830.3497,-132.4987C1833.2241,-131.644 1836.0732,-130.8064 1838.8569,-130 1883.4313,-117.0875 1934.289,-103.4216 1971.703,-93.5667"/>
<polygon fill="#191970" stroke="#191970" points="1829.1056,-129.2179 1820.5377,-135.4502 1831.122,-135.9212 1829.1056,-129.2179"/>
</g>
<!-- Node49 -->
<g id="node17" class="node">
<title>Node49</title>
<g id="a_node17"><a xlink:href="../../d2/dbe/arteries_2boost__gmrf_2gmrf__nodes_2main_8cpp.html" target="_top" xlink:title="arteries/boost_gmrf\l/gmrf_nodes/main.cpp">
<polygon fill="#ffffff" stroke="#000000" points="1835.3867,-65.5 1835.3867,-93.5 1950.3271,-93.5 1950.3271,-65.5 1835.3867,-65.5"/>
<text text-anchor="start" x="1843.3867" y="-81.5" font-family="Helvetica,sans-Serif" font-size="10.00" fill="#000000">arteries/boost_gmrf</text>
<text text-anchor="middle" x="1892.8569" y="-71.5" font-family="Helvetica,sans-Serif" font-size="10.00" fill="#000000">/gmrf_nodes/main.cpp</text>
</a>
</g>
</g>
<!-- Node47&#45;&gt;Node49 -->
<g id="edge16" class="edge">
<title>Node47&#45;&gt;Node49</title>
<path fill="none" stroke="#191970" d="M1808.3076,-130.0851C1827.6234,-118.5286 1851.7005,-104.1235 1869.2154,-93.6445"/>
<polygon fill="#191970" stroke="#191970" points="1806.3181,-127.1967 1799.5336,-135.3345 1809.912,-133.2037 1806.3181,-127.1967"/>
</g>
<!-- Node50 -->
<g id="node18" class="node">
<title>Node50</title>
<g id="a_node18"><a xlink:href="../../da/df3/arteries_2gmrf__neumann_2main_8cpp.html" target="_top" xlink:title="arteries/gmrf_neumann\l/main.cpp">
<polygon fill="#ffffff" stroke="#000000" points="1698.165,-65.5 1698.165,-93.5 1817.5488,-93.5 1817.5488,-65.5 1698.165,-65.5"/>
<text text-anchor="start" x="1706.165" y="-81.5" font-family="Helvetica,sans-Serif" font-size="10.00" fill="#000000">arteries/gmrf_neumann</text>
<text text-anchor="middle" x="1757.8569" y="-71.5" font-family="Helvetica,sans-Serif" font-size="10.00" fill="#000000">/main.cpp</text>
</a>
</g>
</g>
<!-- Node47&#45;&gt;Node50 -->
<g id="edge17" class="edge">
<title>Node47&#45;&gt;Node50</title>
<path fill="none" stroke="#191970" d="M1769.6608,-125.4038C1766.9381,-114.8157 1763.8351,-102.7484 1761.4941,-93.6445"/>
<polygon fill="#191970" stroke="#191970" points="1766.3342,-126.5212 1772.2144,-135.3345 1773.1136,-124.7779 1766.3342,-126.5212"/>
</g>
<!-- Node52 -->
<g id="node20" class="node">
<title>Node52</title>
<g id="a_node20"><a xlink:href="../../d5/d58/nrl_2forward__deterministic_2main_8cpp.html" target="_top" xlink:title="nrl/forward_deterministic\l/main.cpp">
<polygon fill="#ffffff" stroke="#000000" points="282.394,-65.5 282.394,-93.5 407.3198,-93.5 407.3198,-65.5 282.394,-65.5"/>
<text text-anchor="start" x="290.394" y="-81.5" font-family="Helvetica,sans-Serif" font-size="10.00" fill="#000000">nrl/forward_deterministic</text>
<text text-anchor="middle" x="344.8569" y="-71.5" font-family="Helvetica,sans-Serif" font-size="10.00" fill="#000000">/main.cpp</text>
</a>
</g>
</g>
<!-- Node51&#45;&gt;Node52 -->
<g id="edge19" class="edge">
<title>Node51&#45;&gt;Node52</title>
<path fill="none" stroke="#191970" d="M478.8878,-131.6231C448.4505,-119.7864 409.0979,-104.4826 380.9209,-93.5249"/>
<polygon fill="#191970" stroke="#191970" points="477.8426,-134.9719 488.4312,-135.3345 480.3798,-128.4479 477.8426,-134.9719"/>
</g>
<!-- Node53 -->
<g id="node21" class="node">
<title>Node53</title>
<g id="a_node21"><a xlink:href="../../dd/dae/_random_search___deterministic_model_8hpp.html" target="_top" xlink:title="nrl/randomsearch_deterministicmodel\l/RandomSearch_DeterministicModel.hpp">
<polygon fill="#ffffff" stroke="#000000" points="425.7021,-65.5 425.7021,-93.5 624.0117,-93.5 624.0117,-65.5 425.7021,-65.5"/>
<text text-anchor="start" x="433.7021" y="-81.5" font-family="Helvetica,sans-Serif" font-size="10.00" fill="#000000">nrl/randomsearch_deterministicmodel</text>
<text text-anchor="middle" x="524.8569" y="-71.5" font-family="Helvetica,sans-Serif" font-size="10.00" fill="#000000">/RandomSearch_DeterministicModel.hpp</text>
</a>
</g>
</g>
<!-- Node51&#45;&gt;Node53 -->
<g id="edge20" class="edge">
<title>Node51&#45;&gt;Node53</title>
<path fill="none" stroke="#191970" d="M524.8569,-125.0725C524.8569,-114.5646 524.8569,-102.6536 524.8569,-93.6445"/>
<polygon fill="#191970" stroke="#191970" points="521.357,-125.3344 524.8569,-135.3345 528.357,-125.3345 521.357,-125.3344"/>
</g>
<!-- Node54 -->
<g id="node22" class="node">
<title>Node54</title>
<g id="a_node22"><a xlink:href="../../d5/d17/nrl_2randomsearch__deterministicmodel_2main_8cpp.html" target="_top" xlink:title="nrl/randomsearch_deterministicmodel\l/main.cpp">
<polygon fill="#ffffff" stroke="#000000" points="497.4878,-.5 497.4878,-28.5 680.2261,-28.5 680.2261,-.5 497.4878,-.5"/>
<text text-anchor="start" x="505.4878" y="-16.5" font-family="Helvetica,sans-Serif" font-size="10.00" fill="#000000">nrl/randomsearch_deterministicmodel</text>
<text text-anchor="middle" x="588.8569" y="-6.5" font-family="Helvetica,sans-Serif" font-size="10.00" fill="#000000">/main.cpp</text>
</a>
</g>
</g>
<!-- Node53&#45;&gt;Node54 -->
<g id="edge21" class="edge">
<title>Node53&#45;&gt;Node54</title>
<path fill="none" stroke="#191970" d="M546.0023,-58.0243C555.5377,-48.3398 566.5318,-37.1739 574.997,-28.5765"/>
<polygon fill="#191970" stroke="#191970" points="543.2661,-55.8146 538.744,-65.396 548.254,-60.7259 543.2661,-55.8146"/>
</g>
<!-- Node56 -->
<g id="node24" class="node">
<title>Node56</title>
<g id="a_node24"><a xlink:href="../../df/df6/forward_costfunction_8hpp.html" target="_top" xlink:title="nrl/forward_randomfield\l/forwardCostfunction.hpp">
<polygon fill="#ffffff" stroke="#000000" points="1141.271,-65.5 1141.271,-93.5 1268.4429,-93.5 1268.4429,-65.5 1141.271,-65.5"/>
<text text-anchor="start" x="1149.271" y="-81.5" font-family="Helvetica,sans-Serif" font-size="10.00" fill="#000000">nrl/forward_randomfield</text>
<text text-anchor="middle" x="1204.8569" y="-71.5" font-family="Helvetica,sans-Serif" font-size="10.00" fill="#000000">/forwardCostfunction.hpp</text>
</a>
</g>
</g>
<!-- Node55&#45;&gt;Node56 -->
<g id="edge23" class="edge">
<title>Node55&#45;&gt;Node56</title>
<path fill="none" stroke="#191970" d="M1200.1793,-120.4295C1201.2236,-111.2919 1202.3314,-101.5988 1203.2066,-93.9404"/>
<polygon fill="#191970" stroke="#191970" points="1196.7012,-120.0394 1199.043,-130.3722 1203.6559,-120.8343 1196.7012,-120.0394"/>
</g>
<!-- Node57 -->
<g id="node25" class="node">
<title>Node57</title>
<g id="a_node25"><a xlink:href="../../db/de3/nrl_2forward__randomfield_2main_8cpp.html" target="_top" xlink:title="nrl/forward_randomfield\l/main.cpp">
<polygon fill="#ffffff" stroke="#000000" points="1144.3325,-.5 1144.3325,-28.5 1265.3813,-28.5 1265.3813,-.5 1144.3325,-.5"/>
<text text-anchor="start" x="1152.3325" y="-16.5" font-family="Helvetica,sans-Serif" font-size="10.00" fill="#000000">nrl/forward_randomfield</text>
<text text-anchor="middle" x="1204.8569" y="-6.5" font-family="Helvetica,sans-Serif" font-size="10.00" fill="#000000">/main.cpp</text>
</a>
</g>
</g>
<!-- Node56&#45;&gt;Node57 -->
<g id="edge24" class="edge">
<title>Node56&#45;&gt;Node57</title>
<path fill="none" stroke="#191970" d="M1204.8569,-55.1081C1204.8569,-46.1539 1204.8569,-36.3227 1204.8569,-28.5765"/>
<polygon fill="#191970" stroke="#191970" points="1201.357,-55.3959 1204.8569,-65.396 1208.357,-55.396 1201.357,-55.3959"/>
</g>
<!-- Node59&#45;&gt;Node37 -->
<g id="edge33" class="edge">
<title>Node59&#45;&gt;Node37</title>
<path fill="none" stroke="#191970" d="M960.5524,-137.9151C972.2858,-135.0607 985.0069,-132.1962 996.8569,-130 1120.6583,-107.0555 1153.8366,-115.7299 1277.8569,-94 1280.4763,-93.5411 1283.1497,-93.0475 1285.8462,-92.5293"/>
<polygon fill="#191970" stroke="#191970" points="959.4023,-134.5944 950.5423,-140.4039 961.0914,-141.3876 959.4023,-134.5944"/>
</g>
<!-- Node59&#45;&gt;Node38 -->
<g id="edge36" class="edge">
<title>Node59&#45;&gt;Node38</title>
<path fill="none" stroke="#191970" d="M958.8425,-137.9966C971.0264,-135.0045 984.4042,-132.0495 996.8569,-130 1178.2257,-100.1494 1226.7615,-119.0384 1408.8569,-94 1411.8217,-93.5923 1414.8456,-93.1477 1417.8965,-92.6753"/>
<polygon fill="#191970" stroke="#191970" points="957.7733,-134.6567 948.9353,-140.4997 959.488,-141.4434 957.7733,-134.6567"/>
</g>
<!-- Node59&#45;&gt;Node41 -->
<g id="edge27" class="edge">
<title>Node59&#45;&gt;Node41</title>
<path fill="none" stroke="#191970" d="M958.4893,-137.8864C970.7589,-134.863 984.2704,-131.919 996.8569,-130 1246.0411,-92.0073 1313.4335,-130.3886 1562.8569,-94 1565.7445,-93.5787 1568.6953,-93.0935 1571.6668,-92.5616"/>
<polygon fill="#191970" stroke="#191970" points="957.3497,-134.5648 948.5225,-140.4241 959.0769,-141.3484 957.3497,-134.5648"/>
</g>
<!-- Node59&#45;&gt;Node43 -->
<g id="edge28" class="edge">
<title>Node59&#45;&gt;Node43</title>
<path fill="none" stroke="#191970" d="M835.2256,-143.8536C687.172,-133.3798 379.8805,-110.5069 273.8569,-94 270.7049,-93.5093 267.4768,-92.9524 264.2269,-92.3498"/>
<polygon fill="#191970" stroke="#191970" points="835.3837,-147.3734 845.6053,-144.5861 835.8765,-140.3908 835.3837,-147.3734"/>
</g>
<!-- Node59&#45;&gt;Node44 -->
<g id="edge31" class="edge">
<title>Node59&#45;&gt;Node44</title>
<path fill="none" stroke="#191970" d="M835.2938,-144.1405C651.0948,-131.9619 213.721,-102.5973 146.8569,-94 135.7914,-92.5772 123.9194,-90.6031 112.8592,-88.5691"/>
<polygon fill="#191970" stroke="#191970" points="835.2562,-147.6456 845.4652,-144.8125 835.7178,-140.6608 835.2562,-147.6456"/>
</g>
<!-- Node59&#45;&gt;Node46 -->
<g id="edge30" class="edge">
<title>Node59&#45;&gt;Node46</title>
<path fill="none" stroke="#191970" d="M945.3683,-136.2828C971.6915,-124.08 1010.664,-106.0133 1037.5452,-93.5518"/>
<polygon fill="#191970" stroke="#191970" points="943.8889,-133.1108 936.2884,-140.492 946.833,-139.4615 943.8889,-133.1108"/>
</g>
<!-- Node59&#45;&gt;Node50 -->
<g id="edge29" class="edge">
<title>Node59&#45;&gt;Node50</title>
<path fill="none" stroke="#191970" d="M958.1528,-137.8734C970.5075,-134.8196 984.1491,-131.8626 996.8569,-130 1301.5728,-85.3383 1383.4664,-133.7873 1688.8569,-94 1691.8915,-93.6046 1694.9914,-93.1482 1698.1149,-92.6464"/>
<polygon fill="#191970" stroke="#191970" points="956.9463,-134.5693 948.1263,-140.4395 958.6819,-141.3507 956.9463,-134.5693"/>
</g>
<!-- Node59&#45;&gt;Node52 -->
<g id="edge34" class="edge">
<title>Node59&#45;&gt;Node52</title>
<path fill="none" stroke="#191970" d="M835.1289,-142.6581C735.8815,-133.8362 563.5475,-116.8667 416.8569,-94 413.8332,-93.5287 410.7436,-93.0182 407.6271,-92.4802"/>
<polygon fill="#191970" stroke="#191970" points="835.1176,-146.1706 845.3868,-143.564 835.7335,-139.1978 835.1176,-146.1706"/>
</g>
<!-- Node59&#45;&gt;Node53 -->
<g id="edge38" class="edge">
<title>Node59&#45;&gt;Node53</title>
<path fill="none" stroke="#191970" d="M856.3021,-138.6866C788.4062,-126.5624 678.0754,-106.8604 603.5469,-93.5518"/>
<polygon fill="#191970" stroke="#191970" points="855.9527,-142.1795 866.4123,-140.492 857.1833,-135.2885 855.9527,-142.1795"/>
</g>
<!-- Node59&#45;&gt;Node54 -->
<g id="edge37" class="edge">
<title>Node59&#45;&gt;Node54</title>
<path fill="none" stroke="#191970" d="M835.5634,-142.4291C785.6436,-135.4262 721.7433,-121.5295 670.8569,-94 655.0739,-85.4614 620.6178,-49.2554 601.7834,-28.7738"/>
<polygon fill="#191970" stroke="#191970" points="835.2973,-145.9245 845.6729,-143.7804 836.2249,-138.9863 835.2973,-145.9245"/>
</g>
<!-- Node59&#45;&gt;Node56 -->
<g id="edge35" class="edge">
<title>Node59&#45;&gt;Node56</title>
<path fill="none" stroke="#191970" d="M963.6719,-138.0813C974.5642,-135.4266 986.1157,-132.613 996.8569,-130 1047.5874,-117.6588 1105.2855,-103.6528 1147.0224,-93.5267"/>
<polygon fill="#191970" stroke="#191970" points="962.7829,-134.6954 953.8963,-140.4642 964.4408,-141.4963 962.7829,-134.6954"/>
</g>
<!-- Node60 -->
<g id="node28" class="node">
<title>Node60</title>
<g id="a_node28"><a xlink:href="../../de/de8/example__pnpoly__inverse__isoparam_8cpp.html" target="_top" xlink:title="examples/pnpoly/example\l_pnpoly_inverse_isoparam.cpp">
<polygon fill="#ffffff" stroke="#000000" points="839.6479,-65.5 839.6479,-93.5 994.0659,-93.5 994.0659,-65.5 839.6479,-65.5"/>
<text text-anchor="start" x="847.6479" y="-81.5" font-family="Helvetica,sans-Serif" font-size="10.00" fill="#000000">examples/pnpoly/example</text>
<text text-anchor="middle" x="916.8569" y="-71.5" font-family="Helvetica,sans-Serif" font-size="10.00" fill="#000000">_pnpoly_inverse_isoparam.cpp</text>
</a>
</g>
</g>
<!-- Node59&#45;&gt;Node60 -->
<g id="edge32" class="edge">
<title>Node59&#45;&gt;Node60</title>
<path fill="none" stroke="#191970" d="M916.8569,-130.0243C916.8569,-118.5169 916.8569,-104.2016 916.8569,-93.7499"/>
<polygon fill="#191970" stroke="#191970" points="913.357,-130.3487 916.8569,-140.3487 920.357,-130.3488 913.357,-130.3487"/>
</g>
<!-- Node61 -->
<g id="node29" class="node">
<title>Node61</title>
<g id="a_node29"><a xlink:href="../../d5/dc7/_newton___raphsonpp_8cpp.html" target="_top" xlink:title="src/Newton_Raphsonpp.cpp">
<polygon fill="#ffffff" stroke="#000000" points="680.042,-70.5 680.042,-88.5 821.6719,-88.5 821.6719,-70.5 680.042,-70.5"/>
<text text-anchor="middle" x="750.8569" y="-76.5" font-family="Helvetica,sans-Serif" font-size="10.00" fill="#000000">src/Newton_Raphsonpp.cpp</text>
</a>
</g>
</g>
<!-- Node59&#45;&gt;Node61 -->
<g id="edge39" class="edge">
<title>Node59&#45;&gt;Node61</title>
<path fill="none" stroke="#191970" d="M885.8721,-136.4341C852.8097,-122.4921 801.3009,-100.7716 772.3996,-88.5843"/>
<polygon fill="#191970" stroke="#191970" points="884.9209,-139.8314 895.4952,-140.492 887.6409,-133.3814 884.9209,-139.8314"/>
</g>
<!-- Node63 -->
<g id="node31" class="node">
<title>Node63</title>
<g id="a_node31"><a xlink:href="../../d5/d3f/laplacepp_8hpp.html" target="_top" xlink:title="src/laplacepp.hpp">
<polygon fill="#ffffff" stroke="#000000" points="1356.665,-275.5 1356.665,-293.5 1451.0488,-293.5 1451.0488,-275.5 1356.665,-275.5"/>
<text text-anchor="middle" x="1403.8569" y="-281.5" font-family="Helvetica,sans-Serif" font-size="10.00" fill="#000000">src/laplacepp.hpp</text>
</a>
</g>
</g>
<!-- Node62&#45;&gt;Node63 -->
<g id="edge42" class="edge">
<title>Node62&#45;&gt;Node63</title>
<path fill="none" stroke="#191970" d="M1403.8569,-325.3747C1403.8569,-314.2832 1403.8569,-301.7952 1403.8569,-293.5743"/>
<polygon fill="#191970" stroke="#191970" points="1400.357,-325.3959 1403.8569,-335.396 1407.357,-325.396 1400.357,-325.3959"/>
</g>
<!-- Node67 -->
<g id="node35" class="node">
<title>Node67</title>
<g id="a_node35"><a xlink:href="../../d4/d4c/linearelasticity__setup__pp_8hpp.html" target="_top" xlink:title="src/linearelasticity\l_setup_pp.hpp">
<polygon fill="#ffffff" stroke="#000000" points="1697.4014,-270.5 1697.4014,-298.5 1792.3125,-298.5 1792.3125,-270.5 1697.4014,-270.5"/>
<text text-anchor="start" x="1705.4014" y="-286.5" font-family="Helvetica,sans-Serif" font-size="10.00" fill="#000000">src/linearelasticity</text>
<text text-anchor="middle" x="1744.8569" y="-276.5" font-family="Helvetica,sans-Serif" font-size="10.00" fill="#000000">_setup_pp.hpp</text>
</a>
</g>
</g>
<!-- Node62&#45;&gt;Node67 -->
<g id="edge47" class="edge">
<title>Node62&#45;&gt;Node67</title>
<path fill="none" stroke="#191970" d="M1480.0222,-334.9817C1546.531,-322.3041 1640.9874,-304.2992 1697.2794,-293.569"/>
<polygon fill="#191970" stroke="#191970" points="1479.1772,-331.5797 1470.0095,-336.8903 1480.488,-338.4558 1479.1772,-331.5797"/>
</g>
<!-- Node63&#45;&gt;Node35 -->
<g id="edge45" class="edge">
<title>Node63&#45;&gt;Node35</title>
<path fill="none" stroke="#191970" d="M1365.9634,-272.3666C1331.6116,-261.3673 1280.9776,-245.1544 1244.8502,-233.5865"/>
<polygon fill="#191970" stroke="#191970" points="1365.0396,-275.7458 1375.6307,-275.462 1367.1743,-269.0792 1365.0396,-275.7458"/>
</g>
<!-- Node64 -->
<g id="node32" class="node">
<title>Node64</title>
<g id="a_node32"><a xlink:href="../../d4/d0f/examples_2laplace__aztec_2main_8cpp.html" target="_top" xlink:title="examples/laplace_aztec\l/main.cpp">
<polygon fill="#ffffff" stroke="#000000" points="1266.4927,-205.5 1266.4927,-233.5 1389.2212,-233.5 1389.2212,-205.5 1266.4927,-205.5"/>
<text text-anchor="start" x="1274.4927" y="-221.5" font-family="Helvetica,sans-Serif" font-size="10.00" fill="#000000">examples/laplace_aztec</text>
<text text-anchor="middle" x="1327.8569" y="-211.5" font-family="Helvetica,sans-Serif" font-size="10.00" fill="#000000">/main.cpp</text>
</a>
</g>
</g>
<!-- Node63&#45;&gt;Node64 -->
<g id="edge43" class="edge">
<title>Node63&#45;&gt;Node64</title>
<path fill="none" stroke="#191970" d="M1385.362,-268.682C1372.8779,-258.0048 1356.5404,-244.0319 1344.4709,-233.7093"/>
<polygon fill="#191970" stroke="#191970" points="1383.4149,-271.6222 1393.2895,-275.462 1387.9647,-266.3024 1383.4149,-271.6222"/>
</g>
<!-- Node65 -->
<g id="node33" class="node">
<title>Node65</title>
<g id="a_node33"><a xlink:href="../../d8/d16/examples_2laplace__stratimikos_2main_8cpp.html" target="_top" xlink:title="examples/laplace_stratimikos\l/main.cpp">
<polygon fill="#ffffff" stroke="#000000" points="1407.5518,-205.5 1407.5518,-233.5 1554.1621,-233.5 1554.1621,-205.5 1407.5518,-205.5"/>
<text text-anchor="start" x="1415.5518" y="-221.5" font-family="Helvetica,sans-Serif" font-size="10.00" fill="#000000">examples/laplace_stratimikos</text>
<text text-anchor="middle" x="1480.8569" y="-211.5" font-family="Helvetica,sans-Serif" font-size="10.00" fill="#000000">/main.cpp</text>
</a>
</g>
</g>
<!-- Node63&#45;&gt;Node65 -->
<g id="edge44" class="edge">
<title>Node63&#45;&gt;Node65</title>
<path fill="none" stroke="#191970" d="M1422.2314,-268.9891C1434.9249,-258.2738 1451.6785,-244.1311 1464.0244,-233.7093"/>
<polygon fill="#191970" stroke="#191970" points="1419.9472,-266.337 1414.5635,-275.462 1424.4626,-271.686 1419.9472,-266.337"/>
</g>
<!-- Node66 -->
<g id="node34" class="node">
<title>Node66</title>
<g id="a_node34"><a xlink:href="../../dc/d31/laplacepp_8cpp.html" target="_top" xlink:title="src/laplacepp.cpp">
<polygon fill="#ffffff" stroke="#000000" points="1571.9458,-210.5 1571.9458,-228.5 1665.7681,-228.5 1665.7681,-210.5 1571.9458,-210.5"/>
<text text-anchor="middle" x="1618.8569" y="-216.5" font-family="Helvetica,sans-Serif" font-size="10.00" fill="#000000">src/laplacepp.cpp</text>
</a>
</g>
</g>
<!-- Node63&#45;&gt;Node66 -->
<g id="edge46" class="edge">
<title>Node63&#45;&gt;Node66</title>
<path fill="none" stroke="#191970" d="M1443.3776,-272.5519C1485.3937,-259.8494 1550.9048,-240.0437 1588.8702,-228.5658"/>
<polygon fill="#191970" stroke="#191970" points="1442.311,-269.2178 1433.7518,-275.462 1444.3368,-275.9183 1442.311,-269.2178"/>
</g>
<!-- Node68 -->
<g id="node36" class="node">
<title>Node68</title>
<g id="a_node36"><a xlink:href="../../d4/d89/linearelasticity__setup__pp_8cpp.html" target="_top" xlink:title="src/linearelasticity\l_setup_pp.cpp">
<polygon fill="#ffffff" stroke="#000000" points="1697.4014,-205.5 1697.4014,-233.5 1792.3125,-233.5 1792.3125,-205.5 1697.4014,-205.5"/>
<text text-anchor="start" x="1705.4014" y="-221.5" font-family="Helvetica,sans-Serif" font-size="10.00" fill="#000000">src/linearelasticity</text>
<text text-anchor="middle" x="1744.8569" y="-211.5" font-family="Helvetica,sans-Serif" font-size="10.00" fill="#000000">_setup_pp.cpp</text>
</a>
</g>
</g>
<!-- Node67&#45;&gt;Node68 -->
<g id="edge48" class="edge">
<title>Node67&#45;&gt;Node68</title>
<path fill="none" stroke="#191970" d="M1744.8569,-260.1081C1744.8569,-251.1539 1744.8569,-241.3227 1744.8569,-233.5765"/>
<polygon fill="#191970" stroke="#191970" points="1741.357,-260.3959 1744.8569,-270.396 1748.357,-260.396 1741.357,-260.3959"/>
</g>
<!-- Node69 -->
<g id="node37" class="node">
<title>Node69</title>
<g id="a_node37"><a xlink:href="../../dd/d0f/orthotropic_r_f__laminate_8hpp.html" target="_top" xlink:title="src/orthotropicRF_laminate.hpp">
<polygon fill="#ffffff" stroke="#000000" points="1817.1035,-210.5 1817.1035,-228.5 1972.6104,-228.5 1972.6104,-210.5 1817.1035,-210.5"/>
<text text-anchor="middle" x="1894.8569" y="-216.5" font-family="Helvetica,sans-Serif" font-size="10.00" fill="#000000">src/orthotropicRF_laminate.hpp</text>
</a>
</g>
</g>
<!-- Node67&#45;&gt;Node69 -->
<g id="edge49" class="edge">
<title>Node67&#45;&gt;Node69</title>
<path fill="none" stroke="#191970" d="M1786.6981,-266.3688C1815.0918,-254.0649 1851.4244,-238.3208 1873.9162,-228.5743"/>
<polygon fill="#191970" stroke="#191970" points="1785.1886,-263.2084 1777.4047,-270.396 1787.9719,-269.6313 1785.1886,-263.2084"/>
</g>
<!-- Node70 -->
<g id="node38" class="node">
<title>Node70</title>
<g id="a_node38"><a xlink:href="../../d2/ded/asme_2linearelaslam_2main_8cpp.html" target="_top" xlink:title="asme/linearelaslam\l/main.cpp">
<polygon fill="#ffffff" stroke="#000000" points="1847.7832,-135.5 1847.7832,-163.5 1949.9307,-163.5 1949.9307,-135.5 1847.7832,-135.5"/>
<text text-anchor="start" x="1855.7832" y="-151.5" font-family="Helvetica,sans-Serif" font-size="10.00" fill="#000000">asme/linearelaslam</text>
<text text-anchor="middle" x="1898.8569" y="-141.5" font-family="Helvetica,sans-Serif" font-size="10.00" fill="#000000">/main.cpp</text>
</a>
</g>
</g>
<!-- Node69&#45;&gt;Node70 -->
<g id="edge50" class="edge">
<title>Node69&#45;&gt;Node70</title>
<path fill="none" stroke="#191970" d="M1895.9698,-200.0243C1896.6274,-188.5169 1897.4454,-174.2016 1898.0427,-163.7499"/>
<polygon fill="#191970" stroke="#191970" points="1892.4562,-200.1653 1895.3799,-210.3487 1899.4448,-200.5647 1892.4562,-200.1653"/>
</g>
</g>
</svg>
