<?xml version="1.0" encoding="UTF-8" standalone="no"?>
<!DOCTYPE svg PUBLIC "-//W3C//DTD SVG 1.1//EN"
 "http://www.w3.org/Graphics/SVG/1.1/DTD/svg11.dtd">
<!-- Generated by graphviz version 2.40.1 (20161225.0304)
 -->
<!-- Title: src/Newton_Raphsonpp.hpp Pages: 1 -->
<!--zoomable 167 -->
<svg id="main" version="1.1" xmlns="http://www.w3.org/2000/svg" xmlns:xlink="http://www.w3.org/1999/xlink" xml:space="preserve" onload="init(evt)">
<style type="text/css"><![CDATA[
.edge:hover path { stroke: red; }
.edge:hover polygon { stroke: red; fill: red; }
]]></style>
<script type="text/javascript"><![CDATA[
var edges = document.getElementsByTagName('g');
if (edges && edges.length) {
  for (var i=0;i<edges.length;i++) {
    if (edges[i].id.substr(0,4)=='edge') {
      edges[i].setAttribute('class','edge');
    }
  }
}
]]></script>
        <defs>
                <circle id="rim" cx="0" cy="0" r="7"/>
                <circle id="rim2" cx="0" cy="0" r="3.5"/>
                <g id="zoomPlus">
                        <use xlink:href="#rim" fill="#404040">
                                <set attributeName="fill" to="#808080" begin="zoomplus.mouseover" end="zoomplus.mouseout"/>
                        </use>
                        <path d="M-4,0h8M0,-4v8" fill="none" stroke="white" stroke-width="1.5" pointer-events="none"/>
                </g>
                <g id="zoomMin">
                        <use xlink:href="#rim" fill="#404040">
                                <set attributeName="fill" to="#808080" begin="zoomminus.mouseover" end="zoomminus.mouseout"/>
                        </use>
                        <path d="M-4,0h8" fill="none" stroke="white" stroke-width="1.5" pointer-events="none"/>
                </g>
                <g id="dirArrow">
                        <path fill="none" stroke="white" stroke-width="1.5" d="M0,-3.0v7 M-2.5,-0.5L0,-3.0L2.5,-0.5"/>
                </g>
               <g id="resetDef">
                       <use xlink:href="#rim2" fill="#404040">
                               <set attributeName="fill" to="#808080" begin="reset.mouseover" end="reset.mouseout"/>
                       </use>
               </g>
        </defs>

<script type="text/javascript">
var viewWidth = 2370;
var viewHeight = 167;
var sectionId = 'dynsection-1';
</script>
<script xlink:href="../../svgpan.js"/>
<svg id="graph" class="graph">
<g id="viewport">
<title>src/Newton_Raphsonpp.hpp</title>
<polygon fill="#ffffff" stroke="transparent" points="-4,4 -4,-163 2366.4355,-163 2366.4355,4 -4,4"/>
<!-- Node45 -->
<g id="node1" class="node">
<title>Node45</title>
<polygon fill="#bfbfbf" stroke="#000000" points="1056.0298,-140.5 1056.0298,-158.5 1198.2212,-158.5 1198.2212,-140.5 1056.0298,-140.5"/>
<text text-anchor="middle" x="1127.1255" y="-146.5" font-family="Helvetica,sans-Serif" font-size="10.00" fill="#000000">src/Newton_Raphsonpp.hpp</text>
</g>
<!-- Node46 -->
<g id="node2" class="node">
<title>Node46</title>
<g id="a_node2"><a xlink:href="../../de/da1/arteries_2deterministic__dirichlet_2main_8cpp.html" target="_top" xlink:title="arteries/deterministic\l_dirichlet/main.cpp">
<polygon fill="#ffffff" stroke="#000000" points="0,-70.5 0,-98.5 108.251,-98.5 108.251,-70.5 0,-70.5"/>
<text text-anchor="start" x="8" y="-86.5" font-family="Helvetica,sans-Serif" font-size="10.00" fill="#000000">arteries/deterministic</text>
<text text-anchor="middle" x="54.1255" y="-76.5" font-family="Helvetica,sans-Serif" font-size="10.00" fill="#000000">_dirichlet/main.cpp</text>
</a>
</g>
</g>
<!-- Node45&#45;&gt;Node46 -->
<g id="edge1" class="edge">
<title>Node45&#45;&gt;Node46</title>
<path fill="none" stroke="#191970" d="M1045.5564,-148.504C838.2092,-145.5426 294.8241,-134.9781 117.1255,-104 109.5683,-102.6826 101.6516,-100.719 94.0811,-98.5378"/>
<polygon fill="#191970" stroke="#191970" points="1045.7187,-152.0066 1055.767,-148.6476 1045.8172,-145.0072 1045.7187,-152.0066"/>
</g>
<!-- Node47 -->
<g id="node3" class="node">
<title>Node47</title>
<g id="a_node3"><a xlink:href="../../d9/d81/arteries_2deterministic__neumann_2main_8cpp.html" target="_top" xlink:title="arteries/deterministic\l_neumann/main.cpp">
<polygon fill="#ffffff" stroke="#000000" points="126,-70.5 126,-98.5 234.251,-98.5 234.251,-70.5 126,-70.5"/>
<text text-anchor="start" x="134" y="-86.5" font-family="Helvetica,sans-Serif" font-size="10.00" fill="#000000">arteries/deterministic</text>
<text text-anchor="middle" x="180.1255" y="-76.5" font-family="Helvetica,sans-Serif" font-size="10.00" fill="#000000">_neumann/main.cpp</text>
</a>
</g>
</g>
<!-- Node45&#45;&gt;Node47 -->
<g id="edge2" class="edge">
<title>Node45&#45;&gt;Node47</title>
<path fill="none" stroke="#191970" d="M1045.8671,-147.8986C857.5809,-143.77 395.8774,-131.1336 243.1255,-104 235.6853,-102.6784 227.894,-100.7421 220.4272,-98.596"/>
<polygon fill="#191970" stroke="#191970" points="1045.9049,-151.4001 1055.9785,-148.1179 1046.0568,-144.4018 1045.9049,-151.4001"/>
</g>
<!-- Node48 -->
<g id="node4" class="node">
<title>Node48</title>
<g id="a_node4"><a xlink:href="../../da/df3/arteries_2gmrf__neumann_2main_8cpp.html" target="_top" xlink:title="arteries/gmrf_neumann\l/main.cpp">
<polygon fill="#ffffff" stroke="#000000" points="252.4336,-70.5 252.4336,-98.5 371.8174,-98.5 371.8174,-70.5 252.4336,-70.5"/>
<text text-anchor="start" x="260.4336" y="-86.5" font-family="Helvetica,sans-Serif" font-size="10.00" fill="#000000">arteries/gmrf_neumann</text>
<text text-anchor="middle" x="312.1255" y="-76.5" font-family="Helvetica,sans-Serif" font-size="10.00" fill="#000000">/main.cpp</text>
</a>
</g>
</g>
<!-- Node45&#45;&gt;Node48 -->
<g id="edge3" class="edge">
<title>Node45&#45;&gt;Node48</title>
<path fill="none" stroke="#191970" d="M1045.8622,-146.7929C879.6932,-140.8894 506.1019,-125.6316 380.1255,-104 372.1367,-102.6282 363.7474,-100.6677 355.695,-98.5131"/>
<polygon fill="#191970" stroke="#191970" points="1045.9053,-150.2965 1056.0226,-147.1514 1046.1522,-143.3009 1045.9053,-150.2965"/>
</g>
<!-- Node49 -->
<g id="node5" class="node">
<title>Node49</title>
<g id="a_node5"><a xlink:href="../../dc/dba/arteries_2strip__dirichlet_2main_8cpp.html" target="_top" xlink:title="arteries/strip_dirichlet\l/main.cpp">
<polygon fill="#ffffff" stroke="#000000" points="389.6084,-70.5 389.6084,-98.5 500.6426,-98.5 500.6426,-70.5 389.6084,-70.5"/>
<text text-anchor="start" x="397.6084" y="-86.5" font-family="Helvetica,sans-Serif" font-size="10.00" fill="#000000">arteries/strip_dirichlet</text>
<text text-anchor="middle" x="445.1255" y="-76.5" font-family="Helvetica,sans-Serif" font-size="10.00" fill="#000000">/main.cpp</text>
</a>
</g>
</g>
<!-- Node45&#45;&gt;Node49 -->
<g id="edge4" class="edge">
<title>Node45&#45;&gt;Node49</title>
<path fill="none" stroke="#191970" d="M1045.8056,-145.7616C902.2941,-138.7891 609.7542,-122.7923 509.1255,-104 501.7038,-102.614 493.9249,-100.6747 486.4488,-98.5524"/>
<polygon fill="#191970" stroke="#191970" points="1045.7189,-149.2614 1055.8762,-146.248 1046.0567,-142.2696 1045.7189,-149.2614"/>
</g>
<!-- Node50 -->
<g id="node6" class="node">
<title>Node50</title>
<g id="a_node6"><a xlink:href="../../db/db7/arteries_2vonmises_2main_8cpp.html" target="_top" xlink:title="arteries/vonmises/main.cpp">
<polygon fill="#ffffff" stroke="#000000" points="518.2686,-75.5 518.2686,-93.5 655.9824,-93.5 655.9824,-75.5 518.2686,-75.5"/>
<text text-anchor="middle" x="587.1255" y="-81.5" font-family="Helvetica,sans-Serif" font-size="10.00" fill="#000000">arteries/vonmises/main.cpp</text>
</a>
</g>
</g>
<!-- Node45&#45;&gt;Node50 -->
<g id="edge5" class="edge">
<title>Node45&#45;&gt;Node50</title>
<path fill="none" stroke="#191970" d="M1045.7001,-145.1065C953.0228,-139.268 797.3545,-126.9123 665.1255,-104 649.7216,-101.3309 632.8664,-97.2648 618.7782,-93.535"/>
<polygon fill="#191970" stroke="#191970" points="1045.6553,-148.6104 1055.8527,-145.7359 1046.0884,-141.6238 1045.6553,-148.6104"/>
</g>
<!-- Node51 -->
<g id="node7" class="node">
<title>Node51</title>
<g id="a_node7"><a xlink:href="../../de/de8/example__pnpoly__inverse__isoparam_8cpp.html" target="_top" xlink:title="examples/pnpoly/example\l_pnpoly_inverse_isoparam.cpp">
<polygon fill="#ffffff" stroke="#000000" points="673.9165,-70.5 673.9165,-98.5 828.3345,-98.5 828.3345,-70.5 673.9165,-70.5"/>
<text text-anchor="start" x="681.9165" y="-86.5" font-family="Helvetica,sans-Serif" font-size="10.00" fill="#000000">examples/pnpoly/example</text>
<text text-anchor="middle" x="751.1255" y="-76.5" font-family="Helvetica,sans-Serif" font-size="10.00" fill="#000000">_pnpoly_inverse_isoparam.cpp</text>
</a>
</g>
</g>
<!-- Node45&#45;&gt;Node51 -->
<g id="edge6" class="edge">
<title>Node45&#45;&gt;Node51</title>
<path fill="none" stroke="#191970" d="M1051.6173,-139.0754C992.949,-130.6326 909.6365,-117.8927 837.1255,-104 828.5549,-102.3579 819.5374,-100.4804 810.6969,-98.5536"/>
<polygon fill="#191970" stroke="#191970" points="1051.15,-142.5441 1061.5451,-140.497 1052.1422,-135.6148 1051.15,-142.5441"/>
</g>
<!-- Node52 -->
<g id="node8" class="node">
<title>Node52</title>
<g id="a_node8"><a xlink:href="../../d4/d7f/examples_2rubberblock_2main_8cpp.html" target="_top" xlink:title="examples/rubberblock\l/main.cpp">
<polygon fill="#ffffff" stroke="#000000" points="846.2119,-70.5 846.2119,-98.5 960.0391,-98.5 960.0391,-70.5 846.2119,-70.5"/>
<text text-anchor="start" x="854.2119" y="-86.5" font-family="Helvetica,sans-Serif" font-size="10.00" fill="#000000">examples/rubberblock</text>
<text text-anchor="middle" x="903.1255" y="-76.5" font-family="Helvetica,sans-Serif" font-size="10.00" fill="#000000">/main.cpp</text>
</a>
</g>
</g>
<!-- Node45&#45;&gt;Node52 -->
<g id="edge7" class="edge">
<title>Node45&#45;&gt;Node52</title>
<path fill="none" stroke="#191970" d="M1085.7686,-137.6746C1053.8804,-128.5362 1008.6888,-115.5411 969.1255,-104 963.1611,-102.2601 956.8966,-100.4225 950.7,-98.5987"/>
<polygon fill="#191970" stroke="#191970" points="1085.0532,-141.1104 1095.6304,-140.4993 1086.9808,-134.381 1085.0532,-141.1104"/>
</g>
<!-- Node53 -->
<g id="node9" class="node">
<title>Node53</title>
<g id="a_node9"><a xlink:href="../../dd/dc1/compressible_hyperelasticity__linear_patch_test_8hpp.html" target="_top" xlink:title="nrl/linearpatchtest\l/compressibleHyperelasticity\l_linearPatchTest.hpp">
<polygon fill="#ffffff" stroke="#000000" points="977.771,-65.5 977.771,-103.5 1120.48,-103.5 1120.48,-65.5 977.771,-65.5"/>
<text text-anchor="start" x="985.771" y="-91.5" font-family="Helvetica,sans-Serif" font-size="10.00" fill="#000000">nrl/linearpatchtest</text>
<text text-anchor="start" x="985.771" y="-81.5" font-family="Helvetica,sans-Serif" font-size="10.00" fill="#000000">/compressibleHyperelasticity</text>
<text text-anchor="middle" x="1049.1255" y="-71.5" font-family="Helvetica,sans-Serif" font-size="10.00" fill="#000000">_linearPatchTest.hpp</text>
</a>
</g>
</g>
<!-- Node45&#45;&gt;Node53 -->
<g id="edge8" class="edge">
<title>Node45&#45;&gt;Node53</title>
<path fill="none" stroke="#191970" d="M1108.5811,-134.0463C1097.6338,-124.9236 1083.6874,-113.3016 1072.0536,-103.6068"/>
<polygon fill="#191970" stroke="#191970" points="1106.357,-136.7489 1116.2799,-140.462 1110.8383,-131.3714 1106.357,-136.7489"/>
</g>
<!-- Node55 -->
<g id="node11" class="node">
<title>Node55</title>
<g id="a_node11"><a xlink:href="../../da/dcd/nrl_2manufactured__solution_2manufactured_solution_8hpp.html" target="_top" xlink:title="nrl/manufactured_solution\l/manufacturedSolution.hpp">
<polygon fill="#ffffff" stroke="#000000" points="1138.3623,-70.5 1138.3623,-98.5 1273.8887,-98.5 1273.8887,-70.5 1138.3623,-70.5"/>
<text text-anchor="start" x="1146.3623" y="-86.5" font-family="Helvetica,sans-Serif" font-size="10.00" fill="#000000">nrl/manufactured_solution</text>
<text text-anchor="middle" x="1206.1255" y="-76.5" font-family="Helvetica,sans-Serif" font-size="10.00" fill="#000000">/manufacturedSolution.hpp</text>
</a>
</g>
</g>
<!-- Node45&#45;&gt;Node55 -->
<g id="edge10" class="edge">
<title>Node45&#45;&gt;Node55</title>
<path fill="none" stroke="#191970" d="M1145.9772,-133.9891C1159.0004,-123.2738 1176.1892,-109.1311 1188.8557,-98.7093"/>
<polygon fill="#191970" stroke="#191970" points="1143.6085,-131.4056 1138.1101,-140.462 1148.056,-136.8111 1143.6085,-131.4056"/>
</g>
<!-- Node57 -->
<g id="node13" class="node">
<title>Node57</title>
<g id="a_node13"><a xlink:href="../../da/d89/forward_deterministic_cost_function_8hpp.html" target="_top" xlink:title="nrl/old_tests/forward\l_deterministic/forwardDeterministic\lCostFunction.hpp">
<polygon fill="#ffffff" stroke="#000000" points="1292.3252,-65.5 1292.3252,-103.5 1463.9258,-103.5 1463.9258,-65.5 1292.3252,-65.5"/>
<text text-anchor="start" x="1300.3252" y="-91.5" font-family="Helvetica,sans-Serif" font-size="10.00" fill="#000000">nrl/old_tests/forward</text>
<text text-anchor="start" x="1300.3252" y="-81.5" font-family="Helvetica,sans-Serif" font-size="10.00" fill="#000000">_deterministic/forwardDeterministic</text>
<text text-anchor="middle" x="1378.1255" y="-71.5" font-family="Helvetica,sans-Serif" font-size="10.00" fill="#000000">CostFunction.hpp</text>
</a>
</g>
</g>
<!-- Node45&#45;&gt;Node57 -->
<g id="edge12" class="edge">
<title>Node45&#45;&gt;Node57</title>
<path fill="none" stroke="#191970" d="M1171.9584,-137.8899C1208.7596,-128.3597 1261.6212,-114.6704 1304.603,-103.5397"/>
<polygon fill="#191970" stroke="#191970" points="1170.8292,-134.5668 1162.026,-140.462 1172.5841,-141.3432 1170.8292,-134.5668"/>
</g>
<!-- Node59 -->
<g id="node15" class="node">
<title>Node59</title>
<g id="a_node15"><a xlink:href="../../df/df6/forward_costfunction_8hpp.html" target="_top" xlink:title="nrl/old_tests/forward\l_randomfield/forwardCostfunction.hpp">
<polygon fill="#ffffff" stroke="#000000" points="1481.6333,-70.5 1481.6333,-98.5 1666.6177,-98.5 1666.6177,-70.5 1481.6333,-70.5"/>
<text text-anchor="start" x="1489.6333" y="-86.5" font-family="Helvetica,sans-Serif" font-size="10.00" fill="#000000">nrl/old_tests/forward</text>
<text text-anchor="middle" x="1574.1255" y="-76.5" font-family="Helvetica,sans-Serif" font-size="10.00" fill="#000000">_randomfield/forwardCostfunction.hpp</text>
</a>
</g>
</g>
<!-- Node45&#45;&gt;Node59 -->
<g id="edge14" class="edge">
<title>Node45&#45;&gt;Node59</title>
<path fill="none" stroke="#191970" d="M1208.6567,-140.1775C1278.8988,-131.8118 1382.9195,-118.6257 1473.1255,-104 1483.2618,-102.3565 1493.94,-100.4676 1504.4055,-98.5263"/>
<polygon fill="#191970" stroke="#191970" points="1208.0622,-136.7234 1198.5439,-141.3764 1208.8864,-143.6747 1208.0622,-136.7234"/>
</g>
<!-- Node61 -->
<g id="node17" class="node">
<title>Node61</title>
<g id="a_node17"><a xlink:href="../../db/d61/nrl_2old__tests_2random_search__deterministic_model_2main_8cpp.html" target="_top" xlink:title="nrl/old_tests/randomSearch\l_deterministicModel/main.cpp">
<polygon fill="#ffffff" stroke="#000000" points="1693.9854,-.5 1693.9854,-28.5 1842.2656,-28.5 1842.2656,-.5 1693.9854,-.5"/>
<text text-anchor="start" x="1701.9854" y="-16.5" font-family="Helvetica,sans-Serif" font-size="10.00" fill="#000000">nrl/old_tests/randomSearch</text>
<text text-anchor="middle" x="1768.1255" y="-6.5" font-family="Helvetica,sans-Serif" font-size="10.00" fill="#000000">_deterministicModel/main.cpp</text>
</a>
</g>
</g>
<!-- Node45&#45;&gt;Node61 -->
<g id="edge16" class="edge">
<title>Node45&#45;&gt;Node61</title>
<path fill="none" stroke="#191970" d="M1208.4721,-145.8891C1350.8386,-139.1065 1634.0173,-123.3837 1675.1255,-104 1697.0149,-93.6785 1695.7612,-81.8571 1713.1255,-65 1725.9611,-52.5393 1740.9407,-38.8381 1752.0229,-28.8547"/>
<polygon fill="#191970" stroke="#191970" points="1208.2939,-142.3935 1198.4704,-146.3619 1208.6245,-149.3857 1208.2939,-142.3935"/>
</g>
<!-- Node62 -->
<g id="node18" class="node">
<title>Node62</title>
<g id="a_node18"><a xlink:href="../../dd/dae/_random_search___deterministic_model_8hpp.html" target="_top" xlink:title="nrl/old_tests/randomSearch\l_deterministicModel/RandomSearch\l_DeterministicModel.hpp">
<polygon fill="#ffffff" stroke="#000000" points="1722.5322,-65.5 1722.5322,-103.5 1899.7188,-103.5 1899.7188,-65.5 1722.5322,-65.5"/>
<text text-anchor="start" x="1730.5322" y="-91.5" font-family="Helvetica,sans-Serif" font-size="10.00" fill="#000000">nrl/old_tests/randomSearch</text>
<text text-anchor="start" x="1730.5322" y="-81.5" font-family="Helvetica,sans-Serif" font-size="10.00" fill="#000000">_deterministicModel/RandomSearch</text>
<text text-anchor="middle" x="1811.1255" y="-71.5" font-family="Helvetica,sans-Serif" font-size="10.00" fill="#000000">_DeterministicModel.hpp</text>
</a>
</g>
</g>
<!-- Node45&#45;&gt;Node62 -->
<g id="edge17" class="edge">
<title>Node45&#45;&gt;Node62</title>
<path fill="none" stroke="#191970" d="M1208.7612,-145.9158C1321.4592,-140.3289 1530.8833,-127.6464 1708.1255,-104 1712.8158,-103.3742 1717.6159,-102.6745 1722.455,-101.9221"/>
<polygon fill="#191970" stroke="#191970" points="1208.31,-142.4336 1198.4931,-146.4184 1208.6523,-149.4252 1208.31,-142.4336"/>
</g>
<!-- Node63 -->
<g id="node19" class="node">
<title>Node63</title>
<g id="a_node19"><a xlink:href="../../d5/dc7/_newton___raphsonpp_8cpp.html" target="_top" xlink:title="src/Newton_Raphsonpp.cpp">
<polygon fill="#ffffff" stroke="#000000" points="1917.3105,-75.5 1917.3105,-93.5 2058.9404,-93.5 2058.9404,-75.5 1917.3105,-75.5"/>
<text text-anchor="middle" x="1988.1255" y="-81.5" font-family="Helvetica,sans-Serif" font-size="10.00" fill="#000000">src/Newton_Raphsonpp.cpp</text>
</a>
</g>
</g>
<!-- Node45&#45;&gt;Node63 -->
<g id="edge19" class="edge">
<title>Node45&#45;&gt;Node63</title>
<path fill="none" stroke="#191970" d="M1208.3971,-146.668C1380.3011,-140.3675 1775.8857,-124.1452 1909.1255,-104 1925.1889,-101.5713 1942.7623,-97.3896 1957.2476,-93.5199"/>
<polygon fill="#191970" stroke="#191970" points="1208.2599,-143.1706 1198.3941,-147.0327 1208.515,-150.1659 1208.2599,-143.1706"/>
</g>
<!-- Node64 -->
<g id="node20" class="node">
<title>Node64</title>
<g id="a_node20"><a xlink:href="../../d9/dc1/_random_generator_for_p_c_a__and_likelihood_8hpp.html" target="_top" xlink:title="src/RandomGeneratorForPCA\l_andLikelihood.hpp">
<polygon fill="#ffffff" stroke="#000000" points="2076.8794,-70.5 2076.8794,-98.5 2227.3716,-98.5 2227.3716,-70.5 2076.8794,-70.5"/>
<text text-anchor="start" x="2084.8794" y="-86.5" font-family="Helvetica,sans-Serif" font-size="10.00" fill="#000000">src/RandomGeneratorForPCA</text>
<text text-anchor="middle" x="2152.1255" y="-76.5" font-family="Helvetica,sans-Serif" font-size="10.00" fill="#000000">_andLikelihood.hpp</text>
</a>
</g>
</g>
<!-- Node45&#45;&gt;Node64 -->
<g id="edge20" class="edge">
<title>Node45&#45;&gt;Node64</title>
<path fill="none" stroke="#191970" d="M1208.5125,-147.4452C1405.3762,-142.1714 1903.2046,-126.9398 2068.1255,-104 2077.9122,-102.6387 2088.2359,-100.6832 2098.1692,-98.5304"/>
<polygon fill="#191970" stroke="#191970" points="1208.1413,-143.9538 1198.238,-147.7187 1208.3276,-150.9513 1208.1413,-143.9538"/>
</g>
<!-- Node67 -->
<g id="node23" class="node">
<title>Node67</title>
<g id="a_node23"><a xlink:href="../../db/da5/uqnonlinhom_2main_8cpp.html" target="_top" xlink:title="uqnonlinhom/main.cpp">
<polygon fill="#ffffff" stroke="#000000" points="2245.8154,-75.5 2245.8154,-93.5 2362.4355,-93.5 2362.4355,-75.5 2245.8154,-75.5"/>
<text text-anchor="middle" x="2304.1255" y="-81.5" font-family="Helvetica,sans-Serif" font-size="10.00" fill="#000000">uqnonlinhom/main.cpp</text>
</a>
</g>
</g>
<!-- Node45&#45;&gt;Node67 -->
<g id="edge23" class="edge">
<title>Node45&#45;&gt;Node67</title>
<path fill="none" stroke="#191970" d="M1208.7658,-148.6694C1430.1191,-146.0154 2038.3333,-135.9475 2236.1255,-104 2250.1896,-101.7284 2265.47,-97.5116 2277.9768,-93.5789"/>
<polygon fill="#191970" stroke="#191970" points="1208.4788,-145.1724 1198.5208,-148.7902 1208.5614,-152.1719 1208.4788,-145.1724"/>
</g>
<!-- Node54 -->
<g id="node10" class="node">
<title>Node54</title>
<g id="a_node10"><a xlink:href="../../da/dce/nrl_2linearpatchtest_2main_8cpp.html" target="_top" xlink:title="nrl/linearpatchtest\l/main.cpp">
<polygon fill="#ffffff" stroke="#000000" points="1001.6602,-.5 1001.6602,-28.5 1096.5908,-28.5 1096.5908,-.5 1001.6602,-.5"/>
<text text-anchor="start" x="1009.6602" y="-16.5" font-family="Helvetica,sans-Serif" font-size="10.00" fill="#000000">nrl/linearpatchtest</text>
<text text-anchor="middle" x="1049.1255" y="-6.5" font-family="Helvetica,sans-Serif" font-size="10.00" fill="#000000">/main.cpp</text>
</a>
</g>
</g>
<!-- Node53&#45;&gt;Node54 -->
<g id="edge9" class="edge">
<title>Node53&#45;&gt;Node54</title>
<path fill="none" stroke="#191970" d="M1049.1255,-55.1346C1049.1255,-46.0837 1049.1255,-36.5165 1049.1255,-28.9404"/>
<polygon fill="#191970" stroke="#191970" points="1045.6256,-55.3722 1049.1255,-65.3722 1052.6256,-55.3722 1045.6256,-55.3722"/>
</g>
<!-- Node56 -->
<g id="node12" class="node">
<title>Node56</title>
<g id="a_node12"><a xlink:href="../../d4/db6/nrl_2manufactured__solution_2main_8cpp.html" target="_top" xlink:title="nrl/manufactured_solution\l/main.cpp">
<polygon fill="#ffffff" stroke="#000000" points="1140.5913,-.5 1140.5913,-28.5 1271.6597,-28.5 1271.6597,-.5 1140.5913,-.5"/>
<text text-anchor="start" x="1148.5913" y="-16.5" font-family="Helvetica,sans-Serif" font-size="10.00" fill="#000000">nrl/manufactured_solution</text>
<text text-anchor="middle" x="1206.1255" y="-6.5" font-family="Helvetica,sans-Serif" font-size="10.00" fill="#000000">/main.cpp</text>
</a>
</g>
</g>
<!-- Node55&#45;&gt;Node56 -->
<g id="edge11" class="edge">
<title>Node55&#45;&gt;Node56</title>
<path fill="none" stroke="#191970" d="M1206.1255,-60.0725C1206.1255,-49.5646 1206.1255,-37.6536 1206.1255,-28.6445"/>
<polygon fill="#191970" stroke="#191970" points="1202.6256,-60.3344 1206.1255,-70.3345 1209.6256,-60.3345 1202.6256,-60.3344"/>
</g>
<!-- Node58 -->
<g id="node14" class="node">
<title>Node58</title>
<g id="a_node14"><a xlink:href="../../df/d49/nrl_2old__tests_2forward__deterministic_2main_8cpp.html" target="_top" xlink:title="nrl/old_tests/forward\l_deterministic/main.cpp">
<polygon fill="#ffffff" stroke="#000000" points="1317.6035,-.5 1317.6035,-28.5 1438.6475,-28.5 1438.6475,-.5 1317.6035,-.5"/>
<text text-anchor="start" x="1325.6035" y="-16.5" font-family="Helvetica,sans-Serif" font-size="10.00" fill="#000000">nrl/old_tests/forward</text>
<text text-anchor="middle" x="1378.1255" y="-6.5" font-family="Helvetica,sans-Serif" font-size="10.00" fill="#000000">_deterministic/main.cpp</text>
</a>
</g>
</g>
<!-- Node57&#45;&gt;Node58 -->
<g id="edge13" class="edge">
<title>Node57&#45;&gt;Node58</title>
<path fill="none" stroke="#191970" d="M1378.1255,-55.1346C1378.1255,-46.0837 1378.1255,-36.5165 1378.1255,-28.9404"/>
<polygon fill="#191970" stroke="#191970" points="1374.6256,-55.3722 1378.1255,-65.3722 1381.6256,-55.3722 1374.6256,-55.3722"/>
</g>
<!-- Node60 -->
<g id="node16" class="node">
<title>Node60</title>
<g id="a_node16"><a xlink:href="../../d9/d16/nrl_2old__tests_2forward__randomfield_2main_8cpp.html" target="_top" xlink:title="nrl/old_tests/forward\l_randomfield/main.cpp">
<polygon fill="#ffffff" stroke="#000000" points="1515.542,-.5 1515.542,-28.5 1632.709,-28.5 1632.709,-.5 1515.542,-.5"/>
<text text-anchor="start" x="1523.542" y="-16.5" font-family="Helvetica,sans-Serif" font-size="10.00" fill="#000000">nrl/old_tests/forward</text>
<text text-anchor="middle" x="1574.1255" y="-6.5" font-family="Helvetica,sans-Serif" font-size="10.00" fill="#000000">_randomfield/main.cpp</text>
</a>
</g>
</g>
<!-- Node59&#45;&gt;Node60 -->
<g id="edge15" class="edge">
<title>Node59&#45;&gt;Node60</title>
<path fill="none" stroke="#191970" d="M1574.1255,-60.0725C1574.1255,-49.5646 1574.1255,-37.6536 1574.1255,-28.6445"/>
<polygon fill="#191970" stroke="#191970" points="1570.6256,-60.3344 1574.1255,-70.3345 1577.6256,-60.3345 1570.6256,-60.3344"/>
</g>
<!-- Node62&#45;&gt;Node61 -->
<g id="edge18" class="edge">
<title>Node62&#45;&gt;Node61</title>
<path fill="none" stroke="#191970" d="M1793.9902,-56.6053C1788.1693,-47.1295 1781.9028,-36.9282 1776.996,-28.9404"/>
<polygon fill="#191970" stroke="#191970" points="1791.1591,-58.6834 1799.3755,-65.3722 1797.1236,-55.0194 1791.1591,-58.6834"/>
</g>
<!-- Node65 -->
<g id="node21" class="node">
<title>Node65</title>
<g id="a_node21"><a xlink:href="../../d5/daf/nrl_2random__generator__for__pca__likelihood_2main_8cpp.html" target="_top" xlink:title="nrl/random_generator\l_for_pca_likelihood/main.cpp">
<polygon fill="#ffffff" stroke="#000000" points="2007.3623,-.5 2007.3623,-28.5 2152.8887,-28.5 2152.8887,-.5 2007.3623,-.5"/>
<text text-anchor="start" x="2015.3623" y="-16.5" font-family="Helvetica,sans-Serif" font-size="10.00" fill="#000000">nrl/random_generator</text>
<text text-anchor="middle" x="2080.1255" y="-6.5" font-family="Helvetica,sans-Serif" font-size="10.00" fill="#000000">_for_pca_likelihood/main.cpp</text>
</a>
</g>
</g>
<!-- Node64&#45;&gt;Node65 -->
<g id="edge21" class="edge">
<title>Node64&#45;&gt;Node65</title>
<path fill="none" stroke="#191970" d="M2130.36,-63.3391C2118.8042,-52.1043 2104.916,-38.6019 2094.6741,-28.6445"/>
<polygon fill="#191970" stroke="#191970" points="2127.9455,-65.8731 2137.5552,-70.3345 2132.825,-60.8541 2127.9455,-65.8731"/>
</g>
<!-- Node66 -->
<g id="node22" class="node">
<title>Node66</title>
<g id="a_node22"><a xlink:href="../../db/d7d/nrl_2testing__solutions_2main_8cpp.html" target="_top" xlink:title="nrl/testing_solutions\l/main.cpp">
<polygon fill="#ffffff" stroke="#000000" points="2170.9336,-.5 2170.9336,-28.5 2275.3174,-28.5 2275.3174,-.5 2170.9336,-.5"/>
<text text-anchor="start" x="2178.9336" y="-16.5" font-family="Helvetica,sans-Serif" font-size="10.00" fill="#000000">nrl/testing_solutions</text>
<text text-anchor="middle" x="2223.1255" y="-6.5" font-family="Helvetica,sans-Serif" font-size="10.00" fill="#000000">/main.cpp</text>
</a>
</g>
</g>
<!-- Node64&#45;&gt;Node66 -->
<g id="edge22" class="edge">
<title>Node64&#45;&gt;Node66</title>
<path fill="none" stroke="#191970" d="M2173.9149,-63.0175C2185.2445,-51.8475 2198.7754,-38.5071 2208.7789,-28.6445"/>
<polygon fill="#191970" stroke="#191970" points="2171.1572,-60.8213 2166.4934,-70.3345 2176.0717,-65.8061 2171.1572,-60.8213"/>
</g>
</g>
</svg>
        <g id="navigator" transform="translate(0 0)" fill="#404254">
                <rect fill="#f2f5e9" fill-opacity="0.5" stroke="#606060" stroke-width=".5" x="0" y="0" width="60" height="60"/>
                <use id="zoomplus" xlink:href="#zoomPlus" x="17" y="9" onmousedown="handleZoom(evt,'in')"/>
                <use id="zoomminus" xlink:href="#zoomMin" x="42" y="9" onmousedown="handleZoom(evt,'out')"/>
                <use id="reset" xlink:href="#resetDef" x="30" y="36" onmousedown="handleReset()"/>
                <g id="arrowUp" xlink:href="#dirArrow" transform="translate(30 24)" onmousedown="handlePan(0,-1)">
                  <use xlink:href="#rim" fill="#404040">
                        <set attributeName="fill" to="#808080" begin="arrowUp.mouseover" end="arrowUp.mouseout"/>
                  </use>
                  <path fill="none" stroke="white" stroke-width="1.5" d="M0,-3.0v7 M-2.5,-0.5L0,-3.0L2.5,-0.5"/>
                </g>
                <g id="arrowRight" xlink:href="#dirArrow" transform="rotate(90) translate(36 -43)" onmousedown="handlePan(1,0)">
                  <use xlink:href="#rim" fill="#404040">
                        <set attributeName="fill" to="#808080" begin="arrowRight.mouseover" end="arrowRight.mouseout"/>
                  </use>
                  <path fill="none" stroke="white" stroke-width="1.5" d="M0,-3.0v7 M-2.5,-0.5L0,-3.0L2.5,-0.5"/>
                </g>
                <g id="arrowDown" xlink:href="#dirArrow" transform="rotate(180) translate(-30 -48)" onmousedown="handlePan(0,1)">
                  <use xlink:href="#rim" fill="#404040">
                        <set attributeName="fill" to="#808080" begin="arrowDown.mouseover" end="arrowDown.mouseout"/>
                  </use>
                  <path fill="none" stroke="white" stroke-width="1.5" d="M0,-3.0v7 M-2.5,-0.5L0,-3.0L2.5,-0.5"/>
                </g>
                <g id="arrowLeft" xlink:href="#dirArrow" transform="rotate(270) translate(-36 17)" onmousedown="handlePan(-1,0)">
                  <use xlink:href="#rim" fill="#404040">
                        <set attributeName="fill" to="#808080" begin="arrowLeft.mouseover" end="arrowLeft.mouseout"/>
                  </use>
                  <path fill="none" stroke="white" stroke-width="1.5" d="M0,-3.0v7 M-2.5,-0.5L0,-3.0L2.5,-0.5"/>
                </g>
        </g>
        <svg viewBox="0 0 15 15" width="100%" height="30px" preserveAspectRatio="xMaxYMin meet">
         <g id="arrow_out" transform="scale(0.3 0.3)">
          <a xlink:href="_newton___raphsonpp_8hpp__dep__incl_org.svg" target="_base">
           <rect id="button" ry="5" rx="5" y="6" x="6" height="38" width="38"
                fill="#f2f5e9" fill-opacity="0.5" stroke="#606060" stroke-width="1.0"/>
           <path id="arrow"
             d="M 11.500037,31.436501 C 11.940474,20.09759 22.043105,11.32322 32.158766,21.979434 L 37.068811,17.246167 C 37.068811,17.246167 37.088388,32 37.088388,32 L 22.160133,31.978069 C 22.160133,31.978069 26.997745,27.140456 26.997745,27.140456 C 18.528582,18.264221 13.291696,25.230495 11.500037,31.436501 z"
             style="fill:#404040;"/>
          </a>
         </g>
        </svg>
</svg>
