<?xml version="1.0" encoding="UTF-8" standalone="no"?>
<!DOCTYPE svg PUBLIC "-//W3C//DTD SVG 1.1//EN"
 "http://www.w3.org/Graphics/SVG/1.1/DTD/svg11.dtd">
<!-- Generated by graphviz version 2.40.1 (20161225.0304)
 -->
<!-- Title: nonLinearFiniteElementProblem Pages: 1 -->
<!--zoomable 410 -->
<svg id="main" version="1.1" xmlns="http://www.w3.org/2000/svg" xmlns:xlink="http://www.w3.org/1999/xlink" xml:space="preserve" onload="init(evt)">
<style type="text/css"><![CDATA[
.edge:hover path { stroke: red; }
.edge:hover polygon { stroke: red; fill: red; }
]]></style>
<script type="text/javascript"><![CDATA[
var edges = document.getElementsByTagName('g');
if (edges && edges.length) {
  for (var i=0;i<edges.length;i++) {
    if (edges[i].id.substr(0,4)=='edge') {
      edges[i].setAttribute('class','edge');
    }
  }
}
]]></script>
        <defs>
                <circle id="rim" cx="0" cy="0" r="7"/>
                <circle id="rim2" cx="0" cy="0" r="3.5"/>
                <g id="zoomPlus">
                        <use xlink:href="#rim" fill="#404040">
                                <set attributeName="fill" to="#808080" begin="zoomplus.mouseover" end="zoomplus.mouseout"/>
                        </use>
                        <path d="M-4,0h8M0,-4v8" fill="none" stroke="white" stroke-width="1.5" pointer-events="none"/>
                </g>
                <g id="zoomMin">
                        <use xlink:href="#rim" fill="#404040">
                                <set attributeName="fill" to="#808080" begin="zoomminus.mouseover" end="zoomminus.mouseout"/>
                        </use>
                        <path d="M-4,0h8" fill="none" stroke="white" stroke-width="1.5" pointer-events="none"/>
                </g>
                <g id="dirArrow">
                        <path fill="none" stroke="white" stroke-width="1.5" d="M0,-3.0v7 M-2.5,-0.5L0,-3.0L2.5,-0.5"/>
                </g>
               <g id="resetDef">
                       <use xlink:href="#rim2" fill="#404040">
                               <set attributeName="fill" to="#808080" begin="reset.mouseover" end="reset.mouseout"/>
                       </use>
               </g>
        </defs>

<script type="text/javascript">
var viewWidth = 791;
var viewHeight = 410;
var sectionId = 'dynsection-0';
</script>
<script xlink:href="../../svgpan.js"/>
<svg id="graph" class="graph">
<g id="viewport">
<title>nonLinearFiniteElementProblem</title>
<polygon fill="#ffffff" stroke="transparent" points="-4,4 -4,-406 787.1309,-406 787.1309,4 -4,4"/>
<!-- Node0 -->
<g id="node1" class="node">
<title>Node0</title>
<polygon fill="#bfbfbf" stroke="#000000" points="119.7979,-180.5 119.7979,-198.5 278.6543,-198.5 278.6543,-180.5 119.7979,-180.5"/>
<text text-anchor="middle" x="199.2261" y="-186.5" font-family="Helvetica,sans-Serif" font-size="10.00" fill="#000000">nonLinearFiniteElementProblem</text>
</g>
<!-- Node2 -->
<g id="node3" class="node">
<title>Node2</title>
<g id="a_node3"><a xlink:href="../../dc/d5a/classhyperelasticity.html" target="_top" xlink:title="hyperelasticity">
<polygon fill="#ffffff" stroke="#000000" points="314.6543,-180.5 314.6543,-198.5 394.0137,-198.5 394.0137,-180.5 314.6543,-180.5"/>
<text text-anchor="middle" x="354.334" y="-186.5" font-family="Helvetica,sans-Serif" font-size="10.00" fill="#000000">hyperelasticity</text>
</a>
</g>
</g>
<!-- Node0&#45;&gt;Node2 -->
<g id="edge2" class="edge">
<title>Node0&#45;&gt;Node2</title>
<path fill="none" stroke="#191970" d="M289.1171,-189.5C297.9717,-189.5 306.6061,-189.5 314.5425,-189.5"/>
<polygon fill="#191970" stroke="#191970" points="289.0519,-186.0001 279.0518,-189.5 289.0518,-193.0001 289.0519,-186.0001"/>
</g>
<!-- Node1 -->
<g id="node2" class="node">
<title>Node1</title>
<g id="a_node2"><a xlink:href="../../d2/d31/classbase_class_f_e_m.html" target="_top" xlink:title="baseClassFEM">
<polygon fill="#ffffff" stroke="#000000" points="0,-180.5 0,-198.5 83.7979,-198.5 83.7979,-180.5 0,-180.5"/>
<text text-anchor="middle" x="41.8989" y="-186.5" font-family="Helvetica,sans-Serif" font-size="10.00" fill="#000000">baseClassFEM</text>
</a>
</g>
</g>
<!-- Node1&#45;&gt;Node0 -->
<g id="edge1" class="edge">
<title>Node1&#45;&gt;Node0</title>
<path fill="none" stroke="#191970" d="M94.1616,-189.5C102.3434,-189.5 110.9563,-189.5 119.5849,-189.5"/>
<polygon fill="#191970" stroke="#191970" points="94.0597,-186.0001 84.0597,-189.5 94.0597,-193.0001 94.0597,-186.0001"/>
</g>
<!-- Node3 -->
<g id="node4" class="node">
<title>Node3</title>
<g id="a_node4"><a xlink:href="../../d1/d5c/classcompressible_hyperelasticity.html" target="_top" xlink:title="compressibleHyperelasticity">
<polygon fill="#ffffff" stroke="#000000" points="447.8018,-262.5 447.8018,-280.5 587.7324,-280.5 587.7324,-262.5 447.8018,-262.5"/>
<text text-anchor="middle" x="517.7671" y="-268.5" font-family="Helvetica,sans-Serif" font-size="10.00" fill="#000000">compressibleHyperelasticity</text>
</a>
</g>
</g>
<!-- Node2&#45;&gt;Node3 -->
<g id="edge3" class="edge">
<title>Node2&#45;&gt;Node3</title>
<path fill="none" stroke="#191970" d="M381.6632,-203.212C415.1417,-220.0093 470.9272,-247.9988 499.5713,-262.3706"/>
<polygon fill="#191970" stroke="#191970" points="382.9563,-199.945 372.4486,-198.5887 379.8171,-206.2017 382.9563,-199.945"/>
</g>
<!-- Node10 -->
<g id="node11" class="node">
<title>Node10</title>
<g id="a_node11"><a xlink:href="../../d0/d85/classnearly_incompressible_hyperelasticity.html" target="_top" xlink:title="nearlyIncompressibleHyperelasticity">
<polygon fill="#ffffff" stroke="#000000" points="430.0137,-99.5 430.0137,-117.5 605.5205,-117.5 605.5205,-99.5 430.0137,-99.5"/>
<text text-anchor="middle" x="517.7671" y="-105.5" font-family="Helvetica,sans-Serif" font-size="10.00" fill="#000000">nearlyIncompressibleHyperelasticity</text>
</a>
</g>
</g>
<!-- Node2&#45;&gt;Node10 -->
<g id="edge10" class="edge">
<title>Node2&#45;&gt;Node10</title>
<path fill="none" stroke="#191970" d="M381.9552,-175.8105C415.3026,-159.283 470.4716,-131.9404 499.1535,-117.7252"/>
<polygon fill="#191970" stroke="#191970" points="380.1698,-172.789 372.7641,-180.3657 383.2783,-179.061 380.1698,-172.789"/>
</g>
<!-- Node4 -->
<g id="node5" class="node">
<title>Node4</title>
<g id="a_node5"><a xlink:href="../../df/d4f/classcompressible_hyperelasticity__linear_patch_test.html" target="_top" xlink:title="compressibleHyperelasticity\l_linearPatchTest">
<polygon fill="#ffffff" stroke="#000000" points="642.3604,-373.5 642.3604,-401.5 782.291,-401.5 782.291,-373.5 642.3604,-373.5"/>
<text text-anchor="start" x="650.3604" y="-389.5" font-family="Helvetica,sans-Serif" font-size="10.00" fill="#000000">compressibleHyperelasticity</text>
<text text-anchor="middle" x="712.3257" y="-379.5" font-family="Helvetica,sans-Serif" font-size="10.00" fill="#000000">_linearPatchTest</text>
</a>
</g>
</g>
<!-- Node3&#45;&gt;Node4 -->
<g id="edge4" class="edge">
<title>Node3&#45;&gt;Node4</title>
<path fill="none" stroke="#191970" d="M535.0816,-287.4906C557.9264,-307.8546 600.1041,-342.9766 641.5205,-364.5 647.9429,-367.8376 654.9437,-370.8156 661.9624,-373.4316"/>
<polygon fill="#191970" stroke="#191970" points="537.3428,-284.8166 527.577,-280.7082 532.6493,-290.01 537.3428,-284.8166"/>
</g>
<!-- Node5 -->
<g id="node6" class="node">
<title>Node5</title>
<g id="a_node6"><a xlink:href="../../d1/dbe/classmanufactured_solution.html" target="_top" xlink:title="manufacturedSolution">
<polygon fill="#ffffff" stroke="#000000" points="655.6831,-336.5 655.6831,-354.5 768.9683,-354.5 768.9683,-336.5 655.6831,-336.5"/>
<text text-anchor="middle" x="712.3257" y="-342.5" font-family="Helvetica,sans-Serif" font-size="10.00" fill="#000000">manufacturedSolution</text>
</a>
</g>
</g>
<!-- Node3&#45;&gt;Node5 -->
<g id="edge5" class="edge">
<title>Node3&#45;&gt;Node5</title>
<path fill="none" stroke="#191970" d="M544.4901,-285.2502C569.1825,-297.5532 607.1363,-315.4552 641.5205,-327.5 651.0968,-330.8546 661.6025,-333.8704 671.5215,-336.4315"/>
<polygon fill="#191970" stroke="#191970" points="545.9031,-282.0431 535.3972,-280.6735 542.756,-288.2957 545.9031,-282.0431"/>
</g>
<!-- Node6 -->
<g id="node7" class="node">
<title>Node6</title>
<g id="a_node7"><a xlink:href="../../dd/d20/classrubberblock.html" target="_top" xlink:title="rubberblock">
<polygon fill="#ffffff" stroke="#000000" points="678.2002,-299.5 678.2002,-317.5 746.4512,-317.5 746.4512,-299.5 678.2002,-299.5"/>
<text text-anchor="middle" x="712.3257" y="-305.5" font-family="Helvetica,sans-Serif" font-size="10.00" fill="#000000">rubberblock</text>
</a>
</g>
</g>
<!-- Node3&#45;&gt;Node6 -->
<g id="edge6" class="edge">
<title>Node3&#45;&gt;Node6</title>
<path fill="none" stroke="#191970" d="M575.4548,-282.4707C608.8242,-288.8167 649.6878,-296.5879 678.034,-301.9786"/>
<polygon fill="#191970" stroke="#191970" points="575.8393,-278.9812 565.3615,-280.5512 574.5315,-285.8579 575.8393,-278.9812"/>
</g>
<!-- Node7 -->
<g id="node8" class="node">
<title>Node7</title>
<g id="a_node8"><a xlink:href="../../d8/dd8/class_stochastic_homogenization.html" target="_top" xlink:title="StochasticHomogenization">
<polygon fill="#ffffff" stroke="#000000" points="645.1265,-262.5 645.1265,-280.5 779.5249,-280.5 779.5249,-262.5 645.1265,-262.5"/>
<text text-anchor="middle" x="712.3257" y="-268.5" font-family="Helvetica,sans-Serif" font-size="10.00" fill="#000000">StochasticHomogenization</text>
</a>
</g>
</g>
<!-- Node3&#45;&gt;Node7 -->
<g id="edge7" class="edge">
<title>Node3&#45;&gt;Node7</title>
<path fill="none" stroke="#191970" d="M598.1619,-271.5C613.7726,-271.5 629.9817,-271.5 645.1143,-271.5"/>
<polygon fill="#191970" stroke="#191970" points="598.0072,-268.0001 588.0072,-271.5 598.0072,-275.0001 598.0072,-268.0001"/>
</g>
<!-- Node8 -->
<g id="node9" class="node">
<title>Node8</title>
<g id="a_node9"><a xlink:href="../../d8/d82/classti_mooney.html" target="_top" xlink:title="tiMooney">
<polygon fill="#ffffff" stroke="#000000" points="684.0376,-225.5 684.0376,-243.5 740.6138,-243.5 740.6138,-225.5 684.0376,-225.5"/>
<text text-anchor="middle" x="712.3257" y="-231.5" font-family="Helvetica,sans-Serif" font-size="10.00" fill="#000000">tiMooney</text>
</a>
</g>
</g>
<!-- Node3&#45;&gt;Node8 -->
<g id="edge8" class="edge">
<title>Node3&#45;&gt;Node8</title>
<path fill="none" stroke="#191970" d="M575.2044,-260.5769C610.9925,-253.7709 655.4777,-245.311 683.8904,-239.9077"/>
<polygon fill="#191970" stroke="#191970" points="574.5315,-257.1421 565.3615,-262.4488 575.8393,-264.0188 574.5315,-257.1421"/>
</g>
<!-- Node9 -->
<g id="node10" class="node">
<title>Node9</title>
<g id="a_node10"><a xlink:href="../../d1/d2a/classti_mooney_random_field.html" target="_top" xlink:title="tiMooneyRandomField">
<polygon fill="#ffffff" stroke="#000000" points="654.3013,-188.5 654.3013,-206.5 770.3501,-206.5 770.3501,-188.5 654.3013,-188.5"/>
<text text-anchor="middle" x="712.3257" y="-194.5" font-family="Helvetica,sans-Serif" font-size="10.00" fill="#000000">tiMooneyRandomField</text>
</a>
</g>
</g>
<!-- Node3&#45;&gt;Node9 -->
<g id="edge9" class="edge">
<title>Node3&#45;&gt;Node9</title>
<path fill="none" stroke="#191970" d="M544.9828,-257.9261C569.7297,-245.942 607.4747,-228.5505 641.5205,-216.5 651.9588,-212.8054 663.4799,-209.4275 674.1422,-206.5779"/>
<polygon fill="#191970" stroke="#191970" points="543.3016,-254.852 535.854,-262.3876 546.3753,-261.1412 543.3016,-254.852"/>
</g>
<!-- Node11 -->
<g id="node12" class="node">
<title>Node11</title>
<g id="a_node12"><a xlink:href="../../d4/dd9/classdirichlet_inlet_outlet___polyconvex_h_g_o.html" target="_top" xlink:title="dirichletInletOutlet\l_PolyconvexHGO">
<polygon fill="#ffffff" stroke="#000000" points="664.3062,-141.5 664.3062,-169.5 760.3452,-169.5 760.3452,-141.5 664.3062,-141.5"/>
<text text-anchor="start" x="672.3062" y="-157.5" font-family="Helvetica,sans-Serif" font-size="10.00" fill="#000000">dirichletInletOutlet</text>
<text text-anchor="middle" x="712.3257" y="-147.5" font-family="Helvetica,sans-Serif" font-size="10.00" fill="#000000">_PolyconvexHGO</text>
</a>
</g>
</g>
<!-- Node10&#45;&gt;Node11 -->
<g id="edge11" class="edge">
<title>Node10&#45;&gt;Node11</title>
<path fill="none" stroke="#191970" d="M565.1189,-119.9389C595.1921,-127.2038 633.9987,-136.5784 664.2169,-143.8782"/>
<polygon fill="#191970" stroke="#191970" points="565.8222,-116.5082 555.2799,-117.5621 564.1785,-123.3125 565.8222,-116.5082"/>
</g>
<!-- Node12 -->
<g id="node13" class="node">
<title>Node12</title>
<g id="a_node13"><a xlink:href="../../d4/d4c/classdirichlet_strip_elongation___stochastic_polyconvex_h_g_o.html" target="_top" xlink:title="dirichletStripElongation\l_StochasticPolyconvexHGO">
<polygon fill="#ffffff" stroke="#000000" points="641.5205,-94.5 641.5205,-122.5 783.1309,-122.5 783.1309,-94.5 641.5205,-94.5"/>
<text text-anchor="start" x="649.5205" y="-110.5" font-family="Helvetica,sans-Serif" font-size="10.00" fill="#000000">dirichletStripElongation</text>
<text text-anchor="middle" x="712.3257" y="-100.5" font-family="Helvetica,sans-Serif" font-size="10.00" fill="#000000">_StochasticPolyconvexHGO</text>
</a>
</g>
</g>
<!-- Node10&#45;&gt;Node12 -->
<g id="edge12" class="edge">
<title>Node10&#45;&gt;Node12</title>
<path fill="none" stroke="#191970" d="M615.7948,-108.5C624.4437,-108.5 633.0847,-108.5 641.4443,-108.5"/>
<polygon fill="#191970" stroke="#191970" points="615.6545,-105.0001 605.6545,-108.5 615.6544,-112.0001 615.6545,-105.0001"/>
</g>
<!-- Node13 -->
<g id="node14" class="node">
<title>Node13</title>
<g id="a_node14"><a xlink:href="../../d6/ded/classneumann_inner_surface___polyconvex_h_g_o.html" target="_top" xlink:title="neumannInnerSurface\l_PolyconvexHGO">
<polygon fill="#ffffff" stroke="#000000" points="654.8481,-47.5 654.8481,-75.5 769.8032,-75.5 769.8032,-47.5 654.8481,-47.5"/>
<text text-anchor="start" x="662.8481" y="-63.5" font-family="Helvetica,sans-Serif" font-size="10.00" fill="#000000">neumannInnerSurface</text>
<text text-anchor="middle" x="712.3257" y="-53.5" font-family="Helvetica,sans-Serif" font-size="10.00" fill="#000000">_PolyconvexHGO</text>
</a>
</g>
</g>
<!-- Node10&#45;&gt;Node13 -->
<g id="edge13" class="edge">
<title>Node10&#45;&gt;Node13</title>
<path fill="none" stroke="#191970" d="M565.2432,-97.0311C592.1994,-90.5192 626.142,-82.3196 654.6264,-75.4386"/>
<polygon fill="#191970" stroke="#191970" points="564.1785,-93.6875 555.2799,-99.4379 565.8222,-100.4918 564.1785,-93.6875"/>
</g>
<!-- Node14 -->
<g id="node15" class="node">
<title>Node14</title>
<g id="a_node15"><a xlink:href="../../db/d41/classneumann_inner_surface___stochastic_polyconvex_h_g_o.html" target="_top" xlink:title="neumannInnerSurface\l_StochasticPolyconvexHGO">
<polygon fill="#ffffff" stroke="#000000" points="641.5205,-.5 641.5205,-28.5 783.1309,-28.5 783.1309,-.5 641.5205,-.5"/>
<text text-anchor="start" x="649.5205" y="-16.5" font-family="Helvetica,sans-Serif" font-size="10.00" fill="#000000">neumannInnerSurface</text>
<text text-anchor="middle" x="712.3257" y="-6.5" font-family="Helvetica,sans-Serif" font-size="10.00" fill="#000000">_StochasticPolyconvexHGO</text>
</a>
</g>
</g>
<!-- Node10&#45;&gt;Node14 -->
<g id="edge14" class="edge">
<title>Node10&#45;&gt;Node14</title>
<path fill="none" stroke="#191970" d="M539.8214,-93.9754C564.0211,-78.4895 604.3772,-53.975 641.5205,-37.5 648.8457,-34.2509 656.7758,-31.2265 664.5881,-28.5086"/>
<polygon fill="#191970" stroke="#191970" points="537.8765,-91.065 531.378,-99.4329 541.6764,-96.9439 537.8765,-91.065"/>
</g>
</g>
</svg>
        <g id="navigator" transform="translate(0 0)" fill="#404254">
                <rect fill="#f2f5e9" fill-opacity="0.5" stroke="#606060" stroke-width=".5" x="0" y="0" width="60" height="60"/>
                <use id="zoomplus" xlink:href="#zoomPlus" x="17" y="9" onmousedown="handleZoom(evt,'in')"/>
                <use id="zoomminus" xlink:href="#zoomMin" x="42" y="9" onmousedown="handleZoom(evt,'out')"/>
                <use id="reset" xlink:href="#resetDef" x="30" y="36" onmousedown="handleReset()"/>
                <g id="arrowUp" xlink:href="#dirArrow" transform="translate(30 24)" onmousedown="handlePan(0,-1)">
                  <use xlink:href="#rim" fill="#404040">
                        <set attributeName="fill" to="#808080" begin="arrowUp.mouseover" end="arrowUp.mouseout"/>
                  </use>
                  <path fill="none" stroke="white" stroke-width="1.5" d="M0,-3.0v7 M-2.5,-0.5L0,-3.0L2.5,-0.5"/>
                </g>
                <g id="arrowRight" xlink:href="#dirArrow" transform="rotate(90) translate(36 -43)" onmousedown="handlePan(1,0)">
                  <use xlink:href="#rim" fill="#404040">
                        <set attributeName="fill" to="#808080" begin="arrowRight.mouseover" end="arrowRight.mouseout"/>
                  </use>
                  <path fill="none" stroke="white" stroke-width="1.5" d="M0,-3.0v7 M-2.5,-0.5L0,-3.0L2.5,-0.5"/>
                </g>
                <g id="arrowDown" xlink:href="#dirArrow" transform="rotate(180) translate(-30 -48)" onmousedown="handlePan(0,1)">
                  <use xlink:href="#rim" fill="#404040">
                        <set attributeName="fill" to="#808080" begin="arrowDown.mouseover" end="arrowDown.mouseout"/>
                  </use>
                  <path fill="none" stroke="white" stroke-width="1.5" d="M0,-3.0v7 M-2.5,-0.5L0,-3.0L2.5,-0.5"/>
                </g>
                <g id="arrowLeft" xlink:href="#dirArrow" transform="rotate(270) translate(-36 17)" onmousedown="handlePan(-1,0)">
                  <use xlink:href="#rim" fill="#404040">
                        <set attributeName="fill" to="#808080" begin="arrowLeft.mouseover" end="arrowLeft.mouseout"/>
                  </use>
                  <path fill="none" stroke="white" stroke-width="1.5" d="M0,-3.0v7 M-2.5,-0.5L0,-3.0L2.5,-0.5"/>
                </g>
        </g>
        <svg viewBox="0 0 15 15" width="100%" height="30px" preserveAspectRatio="xMaxYMin meet">
         <g id="arrow_out" transform="scale(0.3 0.3)">
          <a xlink:href="classnon_linear_finite_element_problem__inherit__graph_org.svg" target="_base">
           <rect id="button" ry="5" rx="5" y="6" x="6" height="38" width="38"
                fill="#f2f5e9" fill-opacity="0.5" stroke="#606060" stroke-width="1.0"/>
           <path id="arrow"
             d="M 11.500037,31.436501 C 11.940474,20.09759 22.043105,11.32322 32.158766,21.979434 L 37.068811,17.246167 C 37.068811,17.246167 37.088388,32 37.088388,32 L 22.160133,31.978069 C 22.160133,31.978069 26.997745,27.140456 26.997745,27.140456 C 18.528582,18.264221 13.291696,25.230495 11.500037,31.436501 z"
             style="fill:#404040;"/>
          </a>
         </g>
        </svg>
</svg>
