<?xml version="1.0" encoding="UTF-8" standalone="no"?>
<!DOCTYPE svg PUBLIC "-//W3C//DTD SVG 1.1//EN"
 "http://www.w3.org/Graphics/SVG/1.1/DTD/svg11.dtd">
<!-- Generated by graphviz version 2.40.1 (20161225.0304)
 -->
<!-- Title: DirichletStripElongation_StochasticPolyconvexHGO Pages: 1 -->
<svg width="182pt" height="334pt"
 viewBox="0.00 0.00 182.00 334.00" xmlns="http://www.w3.org/2000/svg" xmlns:xlink="http://www.w3.org/1999/xlink">
<g id="graph0" class="graph" transform="scale(1 1) rotate(0) translate(4 330)">
<title>DirichletStripElongation_StochasticPolyconvexHGO</title>
<polygon fill="#ffffff" stroke="transparent" points="-4,4 -4,-330 178,-330 178,4 -4,4"/>
<!-- Node5 -->
<g id="node1" class="node">
<title>Node5</title>
<polygon fill="#bfbfbf" stroke="#000000" points="16,-.5 16,-30.5 158,-30.5 158,-.5 16,-.5"/>
<text text-anchor="start" x="24" y="-18.5" font-family="Helvetica,sans-Serif" font-size="10.00" fill="#000000">DirichletStripElongation</text>
<text text-anchor="middle" x="87" y="-7.5" font-family="Helvetica,sans-Serif" font-size="10.00" fill="#000000">_StochasticPolyconvexHGO</text>
</g>
<!-- Node6 -->
<g id="node2" class="node">
<title>Node6</title>
<g id="a_node2"><a xlink:href="../../d0/d85/classnearly_incompressible_hyperelasticity.html" target="_top" xlink:title="nearlyIncompressibleHyperelasticity">
<polygon fill="#ffffff" stroke="#000000" points="0,-68.5 0,-87.5 174,-87.5 174,-68.5 0,-68.5"/>
<text text-anchor="middle" x="87" y="-75.5" font-family="Helvetica,sans-Serif" font-size="10.00" fill="#000000">nearlyIncompressibleHyperelasticity</text>
</a>
</g>
</g>
<!-- Node6&#45;&gt;Node5 -->
<g id="edge1" class="edge">
<title>Node6&#45;&gt;Node5</title>
<path fill="none" stroke="#191970" d="M87,-58.0501C87,-49.2205 87,-39.0001 87,-30.7892"/>
<polygon fill="#191970" stroke="#191970" points="83.5001,-58.2343 87,-68.2344 90.5001,-58.2344 83.5001,-58.2343"/>
</g>
<!-- Node7 -->
<g id="node3" class="node">
<title>Node7</title>
<g id="a_node3"><a xlink:href="../../dc/d5a/classhyperelasticity.html" target="_top" xlink:title="hyperelasticity">
<polygon fill="#ffffff" stroke="#000000" points="47,-125.5 47,-144.5 127,-144.5 127,-125.5 47,-125.5"/>
<text text-anchor="middle" x="87" y="-132.5" font-family="Helvetica,sans-Serif" font-size="10.00" fill="#000000">hyperelasticity</text>
</a>
</g>
</g>
<!-- Node7&#45;&gt;Node6 -->
<g id="edge2" class="edge">
<title>Node7&#45;&gt;Node6</title>
<path fill="none" stroke="#191970" d="M87,-115.2342C87,-105.8491 87,-95.0651 87,-87.5265"/>
<polygon fill="#191970" stroke="#191970" points="83.5001,-115.3307 87,-125.3307 90.5001,-115.3308 83.5001,-115.3307"/>
</g>
<!-- Node8 -->
<g id="node4" class="node">
<title>Node8</title>
<g id="a_node4"><a xlink:href="../../da/d1c/class_non_linear_finite_element_problem.html" target="_top" xlink:title="NonLinearFiniteElementProblem">
<polygon fill="#ffffff" stroke="#000000" points="8.5,-182.5 8.5,-201.5 165.5,-201.5 165.5,-182.5 8.5,-182.5"/>
<text text-anchor="middle" x="87" y="-189.5" font-family="Helvetica,sans-Serif" font-size="10.00" fill="#000000">NonLinearFiniteElementProblem</text>
</a>
</g>
</g>
<!-- Node8&#45;&gt;Node7 -->
<g id="edge3" class="edge">
<title>Node8&#45;&gt;Node7</title>
<path fill="none" stroke="#191970" d="M87,-172.2342C87,-162.8491 87,-152.0651 87,-144.5265"/>
<polygon fill="#191970" stroke="#191970" points="83.5001,-172.3307 87,-182.3307 90.5001,-172.3308 83.5001,-172.3307"/>
</g>
<!-- Node9 -->
<g id="node5" class="node">
<title>Node9</title>
<g id="a_node5"><a xlink:href="../../d2/d31/classbase_class_f_e_m.html" target="_top" xlink:title="baseClassFEM">
<polygon fill="#ffffff" stroke="#000000" points="45,-239.5 45,-258.5 129,-258.5 129,-239.5 45,-239.5"/>
<text text-anchor="middle" x="87" y="-246.5" font-family="Helvetica,sans-Serif" font-size="10.00" fill="#000000">baseClassFEM</text>
</a>
</g>
</g>
<!-- Node9&#45;&gt;Node8 -->
<g id="edge4" class="edge">
<title>Node9&#45;&gt;Node8</title>
<path fill="none" stroke="#191970" d="M87,-229.2342C87,-219.8491 87,-209.0651 87,-201.5265"/>
<polygon fill="#191970" stroke="#191970" points="83.5001,-229.3307 87,-239.3307 90.5001,-229.3308 83.5001,-229.3307"/>
</g>
<!-- Node10 -->
<g id="node6" class="node">
<title>Node10</title>
<g id="a_node6"><a xlink:href="../../d6/d6b/classmesh.html" target="_top" xlink:title="mesh">
<polygon fill="#ffffff" stroke="#000000" points="66.5,-306.5 66.5,-325.5 107.5,-325.5 107.5,-306.5 66.5,-306.5"/>
<text text-anchor="middle" x="87" y="-313.5" font-family="Helvetica,sans-Serif" font-size="10.00" fill="#000000">mesh</text>
</a>
</g>
</g>
<!-- Node10&#45;&gt;Node9 -->
<g id="edge5" class="edge">
<title>Node10&#45;&gt;Node9</title>
<path fill="none" stroke="#9a32cd" stroke-dasharray="5,2" d="M87,-296.1079C87,-283.714 87,-268.3263 87,-258.5817"/>
<polygon fill="#9a32cd" stroke="#9a32cd" points="83.5001,-296.4005 87,-306.4005 90.5001,-296.4006 83.5001,-296.4005"/>
<text text-anchor="middle" x="101" y="-280" font-family="Helvetica,sans-Serif" font-size="10.00" fill="#000000"> Mesh</text>
</g>
</g>
</svg>
