<?xml version="1.0" encoding="UTF-8" standalone="no"?>
<!DOCTYPE svg PUBLIC "-//W3C//DTD SVG 1.1//EN"
 "http://www.w3.org/Graphics/SVG/1.1/DTD/svg11.dtd">
<!-- Generated by graphviz version 2.40.1 (20161225.0304)
 -->
<!-- Title: src/hyperelasticity.hpp Pages: 1 -->
<svg width="916pt" height="297pt"
 viewBox="0.00 0.00 916.21 297.00" xmlns="http://www.w3.org/2000/svg" xmlns:xlink="http://www.w3.org/1999/xlink">
<g id="graph0" class="graph" transform="scale(1 1) rotate(0) translate(4 293)">
<title>src/hyperelasticity.hpp</title>
<polygon fill="#ffffff" stroke="transparent" points="-4,4 -4,-293 912.2114,-293 912.2114,4 -4,4"/>
<!-- Node35 -->
<g id="node1" class="node">
<title>Node35</title>
<polygon fill="#bfbfbf" stroke="#000000" points="591.8169,-270.5 591.8169,-288.5 706.0103,-288.5 706.0103,-270.5 591.8169,-270.5"/>
<text text-anchor="middle" x="648.9136" y="-276.5" font-family="Helvetica,sans-Serif" font-size="10.00" fill="#000000">src/hyperelasticity.hpp</text>
</g>
<!-- Node36 -->
<g id="node2" class="node">
<title>Node36</title>
<g id="a_node2"><a xlink:href="../../da/d5c/compressible_hyperelasticity_8hpp.html" target="_top" xlink:title="src/compressibleHyperelasticity.hpp">
<polygon fill="#ffffff" stroke="#000000" points="341.5313,-210.5 341.5313,-228.5 516.2959,-228.5 516.2959,-210.5 341.5313,-210.5"/>
<text text-anchor="middle" x="428.9136" y="-216.5" font-family="Helvetica,sans-Serif" font-size="10.00" fill="#000000">src/compressibleHyperelasticity.hpp</text>
</a>
</g>
</g>
<!-- Node35&#45;&gt;Node36 -->
<g id="edge1" class="edge">
<title>Node35&#45;&gt;Node36</title>
<path fill="none" stroke="#191970" d="M605.7845,-267.7375C563.5926,-256.2306 500.2483,-238.9549 461.9204,-228.5019"/>
<polygon fill="#191970" stroke="#191970" points="604.9317,-271.1327 615.5003,-270.3873 606.7736,-264.3794 604.9317,-271.1327"/>
</g>
<!-- Node49 -->
<g id="node15" class="node">
<title>Node49</title>
<g id="a_node15"><a xlink:href="../../d1/dc9/hyperelasticity_8cpp.html" target="_top" xlink:title="src/hyperelasticity.cpp">
<polygon fill="#ffffff" stroke="#000000" points="592.0977,-210.5 592.0977,-228.5 705.7295,-228.5 705.7295,-210.5 592.0977,-210.5"/>
<text text-anchor="middle" x="648.9136" y="-216.5" font-family="Helvetica,sans-Serif" font-size="10.00" fill="#000000">src/hyperelasticity.cpp</text>
</a>
</g>
</g>
<!-- Node35&#45;&gt;Node49 -->
<g id="edge14" class="edge">
<title>Node35&#45;&gt;Node49</title>
<path fill="none" stroke="#191970" d="M648.9136,-260.3734C648.9136,-249.7812 648.9136,-237.0976 648.9136,-228.6985"/>
<polygon fill="#191970" stroke="#191970" points="645.4137,-260.3873 648.9136,-270.3873 652.4137,-260.3873 645.4137,-260.3873"/>
</g>
<!-- Node50 -->
<g id="node16" class="node">
<title>Node50</title>
<g id="a_node16"><a xlink:href="../../dc/de0/nearly_incompressible_hyperelasticity_8hpp.html" target="_top" xlink:title="src/nearlyIncompressible\lHyperelasticity.hpp">
<polygon fill="#ffffff" stroke="#000000" points="752.6157,-205.5 752.6157,-233.5 879.2114,-233.5 879.2114,-205.5 752.6157,-205.5"/>
<text text-anchor="start" x="760.6157" y="-221.5" font-family="Helvetica,sans-Serif" font-size="10.00" fill="#000000">src/nearlyIncompressible</text>
<text text-anchor="middle" x="815.9136" y="-211.5" font-family="Helvetica,sans-Serif" font-size="10.00" fill="#000000">Hyperelasticity.hpp</text>
</a>
</g>
</g>
<!-- Node35&#45;&gt;Node50 -->
<g id="edge15" class="edge">
<title>Node35&#45;&gt;Node50</title>
<path fill="none" stroke="#191970" d="M683.782,-266.9724C710.9793,-257.2009 748.7427,-243.6332 776.9357,-233.504"/>
<polygon fill="#191970" stroke="#191970" points="682.5049,-263.7122 674.2773,-270.3873 684.8718,-270.2999 682.5049,-263.7122"/>
</g>
<!-- Node37 -->
<g id="node3" class="node">
<title>Node37</title>
<g id="a_node3"><a xlink:href="../../de/d4a/rubberblock_8hpp.html" target="_top" xlink:title="examples/rubberblock\l/rubberblock.hpp">
<polygon fill="#ffffff" stroke="#000000" points="0,-135.5 0,-163.5 113.8271,-163.5 113.8271,-135.5 0,-135.5"/>
<text text-anchor="start" x="8" y="-151.5" font-family="Helvetica,sans-Serif" font-size="10.00" fill="#000000">examples/rubberblock</text>
<text text-anchor="middle" x="56.9136" y="-141.5" font-family="Helvetica,sans-Serif" font-size="10.00" fill="#000000">/rubberblock.hpp</text>
</a>
</g>
</g>
<!-- Node36&#45;&gt;Node37 -->
<g id="edge2" class="edge">
<title>Node36&#45;&gt;Node37</title>
<path fill="none" stroke="#191970" d="M349.0471,-209.0806C286.9915,-200.321 198.9757,-186.4424 122.9136,-169 116.0426,-167.4244 108.8331,-165.5392 101.806,-163.571"/>
<polygon fill="#191970" stroke="#191970" points="348.7746,-212.5765 359.1631,-210.4957 349.7445,-205.644 348.7746,-212.5765"/>
</g>
<!-- Node39 -->
<g id="node5" class="node">
<title>Node39</title>
<g id="a_node5"><a xlink:href="../../da/dcd/nrl_2manufactured__solution_2manufactured_solution_8hpp.html" target="_top" xlink:title="nrl/manufactured_solution\l/manufacturedSolution.hpp">
<polygon fill="#ffffff" stroke="#000000" points="132.1504,-135.5 132.1504,-163.5 267.6768,-163.5 267.6768,-135.5 132.1504,-135.5"/>
<text text-anchor="start" x="140.1504" y="-151.5" font-family="Helvetica,sans-Serif" font-size="10.00" fill="#000000">nrl/manufactured_solution</text>
<text text-anchor="middle" x="199.9136" y="-141.5" font-family="Helvetica,sans-Serif" font-size="10.00" fill="#000000">/manufacturedSolution.hpp</text>
</a>
</g>
</g>
<!-- Node36&#45;&gt;Node39 -->
<g id="edge4" class="edge">
<title>Node36&#45;&gt;Node39</title>
<path fill="none" stroke="#191970" d="M389.8042,-207.5452C349.9242,-195.3548 288.0803,-176.4505 245.883,-163.5518"/>
<polygon fill="#191970" stroke="#191970" points="388.8583,-210.9158 399.4446,-210.492 390.9046,-204.2216 388.8583,-210.9158"/>
</g>
<!-- Node41 -->
<g id="node7" class="node">
<title>Node41</title>
<g id="a_node7"><a xlink:href="../../df/dc0/_compressible___mooney___transverse___isotropic_8hpp.html" target="_top" xlink:title="src/Compressible_Mooney\l_Transverse_Isotropic.hpp">
<polygon fill="#ffffff" stroke="#000000" points="285.7241,-135.5 285.7241,-163.5 420.103,-163.5 420.103,-135.5 285.7241,-135.5"/>
<text text-anchor="start" x="293.7241" y="-151.5" font-family="Helvetica,sans-Serif" font-size="10.00" fill="#000000">src/Compressible_Mooney</text>
<text text-anchor="middle" x="352.9136" y="-141.5" font-family="Helvetica,sans-Serif" font-size="10.00" fill="#000000">_Transverse_Isotropic.hpp</text>
</a>
</g>
</g>
<!-- Node36&#45;&gt;Node41 -->
<g id="edge6" class="edge">
<title>Node36&#45;&gt;Node41</title>
<path fill="none" stroke="#191970" d="M411.5655,-203.5215C398.5583,-191.5412 380.9145,-175.2903 368.3849,-163.7499"/>
<polygon fill="#191970" stroke="#191970" points="409.2512,-206.1483 418.9779,-210.3487 413.9936,-200.9995 409.2512,-206.1483"/>
</g>
<!-- Node45 -->
<g id="node11" class="node">
<title>Node45</title>
<g id="a_node11"><a xlink:href="../../d0/d77/_compressible___mooney___transverse___isotropic___random___field_8hpp.html" target="_top" xlink:title="src/Compressible_Mooney\l_Transverse_Isotropic\l_Random_Field.hpp">
<polygon fill="#ffffff" stroke="#000000" points="437.7241,-130.5 437.7241,-168.5 572.103,-168.5 572.103,-130.5 437.7241,-130.5"/>
<text text-anchor="start" x="445.7241" y="-156.5" font-family="Helvetica,sans-Serif" font-size="10.00" fill="#000000">src/Compressible_Mooney</text>
<text text-anchor="start" x="445.7241" y="-146.5" font-family="Helvetica,sans-Serif" font-size="10.00" fill="#000000">_Transverse_Isotropic</text>
<text text-anchor="middle" x="504.9136" y="-136.5" font-family="Helvetica,sans-Serif" font-size="10.00" fill="#000000">_Random_Field.hpp</text>
</a>
</g>
</g>
<!-- Node36&#45;&gt;Node45 -->
<g id="edge10" class="edge">
<title>Node36&#45;&gt;Node45</title>
<path fill="none" stroke="#191970" d="M446.3308,-203.4579C457.562,-193.1133 472.2288,-179.6044 484.0771,-168.6914"/>
<polygon fill="#191970" stroke="#191970" points="443.8335,-200.9995 438.8492,-210.3487 448.5759,-206.1484 443.8335,-200.9995"/>
</g>
<!-- Node48 -->
<g id="node14" class="node">
<title>Node48</title>
<g id="a_node14"><a xlink:href="../../d8/db8/compressible_hyperelasticity_8cpp.html" target="_top" xlink:title="src/compressibleHyperelasticity.cpp">
<polygon fill="#ffffff" stroke="#000000" points="589.812,-140.5 589.812,-158.5 764.0151,-158.5 764.0151,-140.5 589.812,-140.5"/>
<text text-anchor="middle" x="676.9136" y="-146.5" font-family="Helvetica,sans-Serif" font-size="10.00" fill="#000000">src/compressibleHyperelasticity.cpp</text>
</a>
</g>
</g>
<!-- Node36&#45;&gt;Node48 -->
<g id="edge13" class="edge">
<title>Node36&#45;&gt;Node48</title>
<path fill="none" stroke="#191970" d="M470.5023,-207.7613C519.5879,-193.9064 600.1556,-171.1655 644.7293,-158.5843"/>
<polygon fill="#191970" stroke="#191970" points="469.5007,-204.4071 460.8275,-210.492 471.4023,-211.1439 469.5007,-204.4071"/>
</g>
<!-- Node38 -->
<g id="node4" class="node">
<title>Node38</title>
<g id="a_node4"><a xlink:href="../../d4/d7f/examples_2rubberblock_2main_8cpp.html" target="_top" xlink:title="examples/rubberblock\l/main.cpp">
<polygon fill="#ffffff" stroke="#000000" points="0,-65.5 0,-93.5 113.8271,-93.5 113.8271,-65.5 0,-65.5"/>
<text text-anchor="start" x="8" y="-81.5" font-family="Helvetica,sans-Serif" font-size="10.00" fill="#000000">examples/rubberblock</text>
<text text-anchor="middle" x="56.9136" y="-71.5" font-family="Helvetica,sans-Serif" font-size="10.00" fill="#000000">/main.cpp</text>
</a>
</g>
</g>
<!-- Node37&#45;&gt;Node38 -->
<g id="edge3" class="edge">
<title>Node37&#45;&gt;Node38</title>
<path fill="none" stroke="#191970" d="M56.9136,-125.0725C56.9136,-114.5646 56.9136,-102.6536 56.9136,-93.6445"/>
<polygon fill="#191970" stroke="#191970" points="53.4137,-125.3344 56.9136,-135.3345 60.4137,-125.3345 53.4137,-125.3344"/>
</g>
<!-- Node40 -->
<g id="node6" class="node">
<title>Node40</title>
<g id="a_node6"><a xlink:href="../../d4/db6/nrl_2manufactured__solution_2main_8cpp.html" target="_top" xlink:title="nrl/manufactured_solution\l/main.cpp">
<polygon fill="#ffffff" stroke="#000000" points="132.3794,-65.5 132.3794,-93.5 263.4478,-93.5 263.4478,-65.5 132.3794,-65.5"/>
<text text-anchor="start" x="140.3794" y="-81.5" font-family="Helvetica,sans-Serif" font-size="10.00" fill="#000000">nrl/manufactured_solution</text>
<text text-anchor="middle" x="197.9136" y="-71.5" font-family="Helvetica,sans-Serif" font-size="10.00" fill="#000000">/main.cpp</text>
</a>
</g>
</g>
<!-- Node39&#45;&gt;Node40 -->
<g id="edge5" class="edge">
<title>Node39&#45;&gt;Node40</title>
<path fill="none" stroke="#191970" d="M199.2156,-125.0725C198.9154,-114.5646 198.5751,-102.6536 198.3177,-93.6445"/>
<polygon fill="#191970" stroke="#191970" points="195.7246,-125.4385 199.5088,-135.3345 202.7217,-125.2385 195.7246,-125.4385"/>
</g>
<!-- Node42 -->
<g id="node8" class="node">
<title>Node42</title>
<g id="a_node8"><a xlink:href="../../d5/d58/nrl_2forward__deterministic_2main_8cpp.html" target="_top" xlink:title="nrl/forward_deterministic\l/main.cpp">
<polygon fill="#ffffff" stroke="#000000" points="281.4507,-65.5 281.4507,-93.5 406.3765,-93.5 406.3765,-65.5 281.4507,-65.5"/>
<text text-anchor="start" x="289.4507" y="-81.5" font-family="Helvetica,sans-Serif" font-size="10.00" fill="#000000">nrl/forward_deterministic</text>
<text text-anchor="middle" x="343.9136" y="-71.5" font-family="Helvetica,sans-Serif" font-size="10.00" fill="#000000">/main.cpp</text>
</a>
</g>
</g>
<!-- Node41&#45;&gt;Node42 -->
<g id="edge7" class="edge">
<title>Node41&#45;&gt;Node42</title>
<path fill="none" stroke="#191970" d="M349.8155,-125.4038C348.4542,-114.8157 346.9027,-102.7484 345.7321,-93.6445"/>
<polygon fill="#191970" stroke="#191970" points="346.3456,-125.8625 351.0923,-135.3345 353.2884,-124.9697 346.3456,-125.8625"/>
</g>
<!-- Node43 -->
<g id="node9" class="node">
<title>Node43</title>
<g id="a_node9"><a xlink:href="../../dd/dae/_random_search___deterministic_model_8hpp.html" target="_top" xlink:title="nrl/randomsearch_deterministicmodel\l/RandomSearch_DeterministicModel.hpp">
<polygon fill="#ffffff" stroke="#000000" points="424.7588,-65.5 424.7588,-93.5 623.0684,-93.5 623.0684,-65.5 424.7588,-65.5"/>
<text text-anchor="start" x="432.7588" y="-81.5" font-family="Helvetica,sans-Serif" font-size="10.00" fill="#000000">nrl/randomsearch_deterministicmodel</text>
<text text-anchor="middle" x="523.9136" y="-71.5" font-family="Helvetica,sans-Serif" font-size="10.00" fill="#000000">/RandomSearch_DeterministicModel.hpp</text>
</a>
</g>
</g>
<!-- Node41&#45;&gt;Node43 -->
<g id="edge8" class="edge">
<title>Node41&#45;&gt;Node43</title>
<path fill="none" stroke="#191970" d="M396.9603,-131.4692C425.8231,-119.654 463.0005,-104.4352 489.6528,-93.5249"/>
<polygon fill="#191970" stroke="#191970" points="395.4466,-128.3068 387.518,-135.3345 398.0986,-134.7851 395.4466,-128.3068"/>
</g>
<!-- Node44 -->
<g id="node10" class="node">
<title>Node44</title>
<g id="a_node10"><a xlink:href="../../d5/d17/nrl_2randomsearch__deterministicmodel_2main_8cpp.html" target="_top" xlink:title="nrl/randomsearch_deterministicmodel\l/main.cpp">
<polygon fill="#ffffff" stroke="#000000" points="432.5444,-.5 432.5444,-28.5 615.2827,-28.5 615.2827,-.5 432.5444,-.5"/>
<text text-anchor="start" x="440.5444" y="-16.5" font-family="Helvetica,sans-Serif" font-size="10.00" fill="#000000">nrl/randomsearch_deterministicmodel</text>
<text text-anchor="middle" x="523.9136" y="-6.5" font-family="Helvetica,sans-Serif" font-size="10.00" fill="#000000">/main.cpp</text>
</a>
</g>
</g>
<!-- Node43&#45;&gt;Node44 -->
<g id="edge9" class="edge">
<title>Node43&#45;&gt;Node44</title>
<path fill="none" stroke="#191970" d="M523.9136,-55.1081C523.9136,-46.1539 523.9136,-36.3227 523.9136,-28.5765"/>
<polygon fill="#191970" stroke="#191970" points="520.4137,-55.3959 523.9136,-65.396 527.4137,-55.396 520.4137,-55.3959"/>
</g>
<!-- Node46 -->
<g id="node12" class="node">
<title>Node46</title>
<g id="a_node12"><a xlink:href="../../df/df6/forward_costfunction_8hpp.html" target="_top" xlink:title="nrl/forward_randomfield\l/forwardCostfunction.hpp">
<polygon fill="#ffffff" stroke="#000000" points="641.3276,-65.5 641.3276,-93.5 768.4995,-93.5 768.4995,-65.5 641.3276,-65.5"/>
<text text-anchor="start" x="649.3276" y="-81.5" font-family="Helvetica,sans-Serif" font-size="10.00" fill="#000000">nrl/forward_randomfield</text>
<text text-anchor="middle" x="704.9136" y="-71.5" font-family="Helvetica,sans-Serif" font-size="10.00" fill="#000000">/forwardCostfunction.hpp</text>
</a>
</g>
</g>
<!-- Node45&#45;&gt;Node46 -->
<g id="edge11" class="edge">
<title>Node45&#45;&gt;Node46</title>
<path fill="none" stroke="#191970" d="M568.8797,-127.1119C600.3696,-116.0904 637.3626,-103.1429 664.8163,-93.534"/>
<polygon fill="#191970" stroke="#191970" points="567.5826,-123.8576 559.3003,-130.4647 569.8951,-130.4646 567.5826,-123.8576"/>
</g>
<!-- Node47 -->
<g id="node13" class="node">
<title>Node47</title>
<g id="a_node13"><a xlink:href="../../db/de3/nrl_2forward__randomfield_2main_8cpp.html" target="_top" xlink:title="nrl/forward_randomfield\l/main.cpp">
<polygon fill="#ffffff" stroke="#000000" points="644.3892,-.5 644.3892,-28.5 765.438,-28.5 765.438,-.5 644.3892,-.5"/>
<text text-anchor="start" x="652.3892" y="-16.5" font-family="Helvetica,sans-Serif" font-size="10.00" fill="#000000">nrl/forward_randomfield</text>
<text text-anchor="middle" x="704.9136" y="-6.5" font-family="Helvetica,sans-Serif" font-size="10.00" fill="#000000">/main.cpp</text>
</a>
</g>
</g>
<!-- Node46&#45;&gt;Node47 -->
<g id="edge12" class="edge">
<title>Node46&#45;&gt;Node47</title>
<path fill="none" stroke="#191970" d="M704.9136,-55.1081C704.9136,-46.1539 704.9136,-36.3227 704.9136,-28.5765"/>
<polygon fill="#191970" stroke="#191970" points="701.4137,-55.3959 704.9136,-65.396 708.4137,-55.396 701.4137,-55.3959"/>
</g>
<!-- Node51 -->
<g id="node17" class="node">
<title>Node51</title>
<g id="a_node17"><a xlink:href="../../d8/d7d/nearly_incompressible_hyperelasticity_8cpp.html" target="_top" xlink:title="src/nearlyIncompressible\lHyperelasticity.cpp">
<polygon fill="#ffffff" stroke="#000000" points="781.6157,-135.5 781.6157,-163.5 908.2114,-163.5 908.2114,-135.5 781.6157,-135.5"/>
<text text-anchor="start" x="789.6157" y="-151.5" font-family="Helvetica,sans-Serif" font-size="10.00" fill="#000000">src/nearlyIncompressible</text>
<text text-anchor="middle" x="844.9136" y="-141.5" font-family="Helvetica,sans-Serif" font-size="10.00" fill="#000000">Hyperelasticity.cpp</text>
</a>
</g>
</g>
<!-- Node50&#45;&gt;Node51 -->
<g id="edge16" class="edge">
<title>Node50&#45;&gt;Node51</title>
<path fill="none" stroke="#191970" d="M825.6229,-196.0636C830.074,-185.3198 835.2035,-172.9381 839.0537,-163.6445"/>
<polygon fill="#191970" stroke="#191970" points="822.3761,-194.7563 821.7822,-205.3345 828.8431,-197.4355 822.3761,-194.7563"/>
</g>
</g>
</svg>
