<?xml version="1.0" encoding="UTF-8" standalone="no"?>
<!DOCTYPE svg PUBLIC "-//W3C//DTD SVG 1.1//EN"
 "http://www.w3.org/Graphics/SVG/1.1/DTD/svg11.dtd">
<!-- Generated by graphviz version 2.40.1 (20161225.0304)
 -->
<!-- Title: examples/damagefield/main.cpp Pages: 1 -->
<svg width="3628pt" height="322pt"
 viewBox="0.00 0.00 3627.88 322.00" xmlns="http://www.w3.org/2000/svg" xmlns:xlink="http://www.w3.org/1999/xlink">
<g id="graph0" class="graph" transform="scale(1 1) rotate(0) translate(4 318)">
<title>examples/damagefield/main.cpp</title>
<polygon fill="#ffffff" stroke="transparent" points="-4,4 -4,-318 3623.8789,-318 3623.8789,4 -4,4"/>
<!-- Node0 -->
<g id="node1" class="node">
<title>Node0</title>
<polygon fill="#bfbfbf" stroke="#000000" points="750.3867,-285.5 750.3867,-313.5 866.4453,-313.5 866.4453,-285.5 750.3867,-285.5"/>
<text text-anchor="start" x="758.3867" y="-301.5" font-family="Helvetica,sans-Serif" font-size="10.00" fill="#000000">examples/damagefield</text>
<text text-anchor="middle" x="808.416" y="-291.5" font-family="Helvetica,sans-Serif" font-size="10.00" fill="#000000">/main.cpp</text>
</g>
<!-- Node1 -->
<g id="node2" class="node">
<title>Node1</title>
<polygon fill="#ffffff" stroke="#bfbfbf" points="0,-225.5 0,-243.5 108.832,-243.5 108.832,-225.5 0,-225.5"/>
<text text-anchor="middle" x="54.416" y="-231.5" font-family="Helvetica,sans-Serif" font-size="10.00" fill="#000000">Epetra_ConfigDefs.h</text>
</g>
<!-- Node0&#45;&gt;Node1 -->
<g id="edge1" class="edge">
<title>Node0&#45;&gt;Node1</title>
<path fill="none" stroke="#191970" d="M749.9342,-298.1707C630.5969,-294.81 350.6705,-283.6102 118.416,-249 112.4245,-248.1071 106.1608,-246.9597 99.9967,-245.7018"/>
<polygon fill="#191970" stroke="#191970" points="100.2945,-242.186 89.7822,-243.5063 98.8234,-249.0297 100.2945,-242.186"/>
</g>
<!-- Node2 -->
<g id="node3" class="node">
<title>Node2</title>
<polygon fill="#ffffff" stroke="#bfbfbf" points="127.229,-225.5 127.229,-243.5 241.603,-243.5 241.603,-225.5 127.229,-225.5"/>
<text text-anchor="middle" x="184.416" y="-231.5" font-family="Helvetica,sans-Serif" font-size="10.00" fill="#000000">Epetra_SerialComm.h</text>
</g>
<!-- Node0&#45;&gt;Node2 -->
<g id="edge2" class="edge">
<title>Node0&#45;&gt;Node2</title>
<path fill="none" stroke="#191970" d="M750.0451,-296.2947C648.9105,-290.2677 434.7249,-275.4146 255.416,-249 248.726,-248.0145 241.7154,-246.8036 234.8136,-245.5054"/>
<polygon fill="#191970" stroke="#191970" points="235.315,-242.0373 224.8297,-243.557 233.9742,-248.9077 235.315,-242.0373"/>
</g>
<!-- Node3 -->
<g id="node4" class="node">
<title>Node3</title>
<polygon fill="#ffffff" stroke="#bfbfbf" points="218.3687,-.5 218.3687,-18.5 316.4634,-18.5 316.4634,-.5 218.3687,-.5"/>
<text text-anchor="middle" x="267.416" y="-6.5" font-family="Helvetica,sans-Serif" font-size="10.00" fill="#000000">Teuchos_RCP.hpp</text>
</g>
<!-- Node0&#45;&gt;Node3 -->
<g id="edge3" class="edge">
<title>Node0&#45;&gt;Node3</title>
<path fill="none" stroke="#191970" d="M750.0775,-297.5642C621.6047,-292.7756 322.8828,-278.5622 288.416,-249 262.4787,-226.7535 269.416,-208.671 269.416,-174.5 269.416,-174.5 269.416,-174.5 269.416,-119.5 269.416,-87.7665 268.5736,-50.892 267.9823,-28.9151"/>
<polygon fill="#191970" stroke="#191970" points="271.4728,-28.5237 267.6941,-18.6256 264.4755,-28.7197 271.4728,-28.5237"/>
</g>
<!-- Node4 -->
<g id="node5" class="node">
<title>Node4</title>
<polygon fill="#ffffff" stroke="#bfbfbf" points="297.9063,-225.5 297.9063,-243.5 348.9258,-243.5 348.9258,-225.5 297.9063,-225.5"/>
<text text-anchor="middle" x="323.416" y="-231.5" font-family="Helvetica,sans-Serif" font-size="10.00" fill="#000000">Ifpack.h</text>
</g>
<!-- Node0&#45;&gt;Node4 -->
<g id="edge4" class="edge">
<title>Node0&#45;&gt;Node4</title>
<path fill="none" stroke="#191970" d="M750.2966,-298.1683C663.6408,-295.0252 496.0162,-284.4662 358.416,-249 356.4575,-248.4952 354.4646,-247.9025 352.4736,-247.2502"/>
<polygon fill="#191970" stroke="#191970" points="353.2983,-243.823 342.7053,-243.6243 350.8624,-250.3855 353.2983,-243.823"/>
</g>
<!-- Node5 -->
<g id="node6" class="node">
<title>Node5</title>
<polygon fill="#ffffff" stroke="#bfbfbf" points="367.165,-225.5 367.165,-243.5 497.667,-243.5 497.667,-225.5 367.165,-225.5"/>
<text text-anchor="middle" x="432.416" y="-231.5" font-family="Helvetica,sans-Serif" font-size="10.00" fill="#000000">Ifpack_AdditiveSchwarz.h</text>
</g>
<!-- Node0&#45;&gt;Node5 -->
<g id="edge5" class="edge">
<title>Node0&#45;&gt;Node5</title>
<path fill="none" stroke="#191970" d="M750.1554,-290.2506C689.2736,-280.4697 591.0171,-264.359 506.416,-249 500.2452,-247.8797 493.7925,-246.6709 487.3796,-245.446"/>
<polygon fill="#191970" stroke="#191970" points="487.8628,-241.9748 477.381,-243.5183 486.5375,-248.8482 487.8628,-241.9748"/>
</g>
<!-- Node6 -->
<g id="node7" class="node">
<title>Node6</title>
<polygon fill="#ffffff" stroke="#bfbfbf" points="515.6602,-225.5 515.6602,-243.5 641.1719,-243.5 641.1719,-225.5 515.6602,-225.5"/>
<text text-anchor="middle" x="578.416" y="-231.5" font-family="Helvetica,sans-Serif" font-size="10.00" fill="#000000">BelosLinearProblem.hpp</text>
</g>
<!-- Node0&#45;&gt;Node6 -->
<g id="edge6" class="edge">
<title>Node0&#45;&gt;Node6</title>
<path fill="none" stroke="#191970" d="M758.7926,-285.476C717.4548,-273.7936 659.2409,-257.3418 620.2378,-246.3192"/>
<polygon fill="#191970" stroke="#191970" points="620.8427,-242.8531 610.2677,-243.5016 618.9389,-249.5893 620.8427,-242.8531"/>
</g>
<!-- Node7 -->
<g id="node8" class="node">
<title>Node7</title>
<polygon fill="#ffffff" stroke="#bfbfbf" points="659.3867,-225.5 659.3867,-243.5 805.4453,-243.5 805.4453,-225.5 659.3867,-225.5"/>
<text text-anchor="middle" x="732.416" y="-231.5" font-family="Helvetica,sans-Serif" font-size="10.00" fill="#000000">BelosBlockGmresSolMgr.hpp</text>
</g>
<!-- Node0&#45;&gt;Node7 -->
<g id="edge7" class="edge">
<title>Node0&#45;&gt;Node7</title>
<path fill="none" stroke="#191970" d="M791.9251,-285.396C779.865,-275.0814 763.495,-261.0807 750.9768,-250.3743"/>
<polygon fill="#191970" stroke="#191970" points="752.9005,-247.4141 743.026,-243.5743 748.3507,-252.7339 752.9005,-247.4141"/>
</g>
<!-- Node8 -->
<g id="node9" class="node">
<title>Node8</title>
<polygon fill="#ffffff" stroke="#bfbfbf" points="823.207,-225.5 823.207,-243.5 947.625,-243.5 947.625,-225.5 823.207,-225.5"/>
<text text-anchor="middle" x="885.416" y="-231.5" font-family="Helvetica,sans-Serif" font-size="10.00" fill="#000000">BelosEpetraAdapter.hpp</text>
</g>
<!-- Node0&#45;&gt;Node8 -->
<g id="edge8" class="edge">
<title>Node0&#45;&gt;Node8</title>
<path fill="none" stroke="#191970" d="M825.1239,-285.396C837.4602,-274.9822 854.2475,-260.8111 866.9758,-250.0664"/>
<polygon fill="#191970" stroke="#191970" points="869.2827,-252.6994 874.6665,-243.5743 864.7673,-247.3504 869.2827,-252.6994"/>
</g>
<!-- Node9 -->
<g id="node10" class="node">
<title>Node9</title>
<polygon fill="#ffffff" stroke="#bfbfbf" points="965.7036,-225.5 965.7036,-243.5 1087.1284,-243.5 1087.1284,-225.5 965.7036,-225.5"/>
<text text-anchor="middle" x="1026.416" y="-231.5" font-family="Helvetica,sans-Serif" font-size="10.00" fill="#000000">BelosSolverFactory.hpp</text>
</g>
<!-- Node0&#45;&gt;Node9 -->
<g id="edge9" class="edge">
<title>Node0&#45;&gt;Node9</title>
<path fill="none" stroke="#191970" d="M855.4504,-285.476C894.4647,-273.8433 949.3388,-257.4817 986.3033,-246.4602"/>
<polygon fill="#191970" stroke="#191970" points="987.6432,-249.7131 996.2262,-243.5016 985.643,-243.0049 987.6432,-249.7131"/>
</g>
<!-- Node10 -->
<g id="node11" class="node">
<title>Node10</title>
<polygon fill="#ffffff" stroke="#bfbfbf" points="1105.5347,-225.5 1105.5347,-243.5 1283.2974,-243.5 1283.2974,-225.5 1105.5347,-225.5"/>
<text text-anchor="middle" x="1194.416" y="-231.5" font-family="Helvetica,sans-Serif" font-size="10.00" fill="#000000">Teuchos_StandardCatchMacros.hpp</text>
</g>
<!-- Node0&#45;&gt;Node10 -->
<g id="edge10" class="edge">
<title>Node0&#45;&gt;Node10</title>
<path fill="none" stroke="#191970" d="M866.622,-289.6985C937.6278,-277.7415 1057.2524,-257.5975 1130.6787,-245.233"/>
<polygon fill="#191970" stroke="#191970" points="1131.443,-248.6536 1140.723,-243.5416 1130.2806,-241.7508 1131.443,-248.6536"/>
</g>
<!-- Node11 -->
<g id="node12" class="node">
<title>Node11</title>
<polygon fill="#ffffff" stroke="#bfbfbf" points="1301.1577,-225.5 1301.1577,-243.5 1441.6743,-243.5 1441.6743,-225.5 1301.1577,-225.5"/>
<text text-anchor="middle" x="1371.416" y="-231.5" font-family="Helvetica,sans-Serif" font-size="10.00" fill="#000000">Teuchos_ParameterList.hpp</text>
</g>
<!-- Node0&#45;&gt;Node11 -->
<g id="edge11" class="edge">
<title>Node0&#45;&gt;Node11</title>
<path fill="none" stroke="#191970" d="M866.7076,-294.8881C957.8145,-287.3491 1139.3828,-270.994 1292.416,-249 1299.9018,-247.9241 1307.7614,-246.6534 1315.5005,-245.3185"/>
<polygon fill="#191970" stroke="#191970" points="1316.3263,-248.7268 1325.5635,-243.5378 1315.1065,-241.8339 1316.3263,-248.7268"/>
</g>
<!-- Node12 -->
<g id="node13" class="node">
<title>Node12</title>
<polygon fill="#ffffff" stroke="#bfbfbf" points="1459.6084,-220.5 1459.6084,-248.5 1601.2236,-248.5 1601.2236,-220.5 1459.6084,-220.5"/>
<text text-anchor="start" x="1467.6084" y="-236.5" font-family="Helvetica,sans-Serif" font-size="10.00" fill="#000000">Teuchos_XMLParameterList</text>
<text text-anchor="middle" x="1530.416" y="-226.5" font-family="Helvetica,sans-Serif" font-size="10.00" fill="#000000">CoreHelpers.hpp</text>
</g>
<!-- Node0&#45;&gt;Node12 -->
<g id="edge12" class="edge">
<title>Node0&#45;&gt;Node12</title>
<path fill="none" stroke="#191970" d="M866.6041,-296.891C977.8236,-291.4759 1228.4142,-277.2136 1449.215,-249.0677"/>
<polygon fill="#191970" stroke="#191970" points="1449.9027,-252.5081 1459.374,-247.76 1449.009,-245.5654 1449.9027,-252.5081"/>
</g>
<!-- Node13 -->
<g id="node14" class="node">
<title>Node13</title>
<polygon fill="#ffffff" stroke="#bfbfbf" points="1619.1675,-220.5 1619.1675,-248.5 1749.6646,-248.5 1749.6646,-220.5 1619.1675,-220.5"/>
<text text-anchor="start" x="1627.1675" y="-236.5" font-family="Helvetica,sans-Serif" font-size="10.00" fill="#000000">Stratimikos_DefaultLinear</text>
<text text-anchor="middle" x="1684.416" y="-226.5" font-family="Helvetica,sans-Serif" font-size="10.00" fill="#000000">SolverBuilder.hpp</text>
</g>
<!-- Node0&#45;&gt;Node13 -->
<g id="edge13" class="edge">
<title>Node0&#45;&gt;Node13</title>
<path fill="none" stroke="#191970" d="M866.5333,-298.4395C997.4557,-295.4902 1325.5277,-284.9653 1609.0548,-249.0622"/>
<polygon fill="#191970" stroke="#191970" points="1609.6466,-252.5151 1619.1215,-247.7743 1608.7582,-245.5717 1609.6466,-252.5151"/>
</g>
<!-- Node14 -->
<g id="node15" class="node">
<title>Node14</title>
<g id="a_node15"><a xlink:href="../../d9/de5/damage_field_8hpp.html" target="_top" xlink:title="damageField.hpp">
<polygon fill="#ffffff" stroke="#000000" points="1780.7783,-225.5 1780.7783,-243.5 1874.0537,-243.5 1874.0537,-225.5 1780.7783,-225.5"/>
<text text-anchor="middle" x="1827.416" y="-231.5" font-family="Helvetica,sans-Serif" font-size="10.00" fill="#000000">damageField.hpp</text>
</a>
</g>
</g>
<!-- Node0&#45;&gt;Node14 -->
<g id="edge14" class="edge">
<title>Node0&#45;&gt;Node14</title>
<path fill="none" stroke="#191970" d="M866.6265,-297.5828C1045.3389,-291.5109 1584.5157,-271.7564 1758.416,-249 1765.266,-248.1036 1772.4493,-246.8977 1779.4859,-245.5624"/>
<polygon fill="#191970" stroke="#191970" points="1780.5145,-248.9261 1789.6347,-243.5343 1779.1427,-242.0618 1780.5145,-248.9261"/>
</g>
<!-- Node15 -->
<g id="node16" class="node">
<title>Node15</title>
<g id="a_node16"><a xlink:href="../../d3/dd8/linear_finite_element_problem_8hpp.html" target="_top" xlink:title="linearFiniteElementProblem.hpp">
<polygon fill="#ffffff" stroke="#000000" points="1754.2686,-165.5 1754.2686,-183.5 1912.5635,-183.5 1912.5635,-165.5 1754.2686,-165.5"/>
<text text-anchor="middle" x="1833.416" y="-171.5" font-family="Helvetica,sans-Serif" font-size="10.00" fill="#000000">linearFiniteElementProblem.hpp</text>
</a>
</g>
</g>
<!-- Node14&#45;&gt;Node15 -->
<g id="edge15" class="edge">
<title>Node14&#45;&gt;Node15</title>
<path fill="none" stroke="#191970" d="M1828.3273,-225.3873C1829.1643,-217.0174 1830.4319,-204.3414 1831.4925,-193.735"/>
<polygon fill="#191970" stroke="#191970" points="1834.9837,-193.9971 1832.4962,-183.6985 1828.0184,-193.3005 1834.9837,-193.9971"/>
</g>
<!-- Node16 -->
<g id="node17" class="node">
<title>Node16</title>
<g id="a_node17"><a xlink:href="../../dd/d80/base_class_f_e_m_8hpp.html" target="_top" xlink:title="baseClassFEM.hpp">
<polygon fill="#ffffff" stroke="#000000" points="1783.7856,-110.5 1783.7856,-128.5 1887.0464,-128.5 1887.0464,-110.5 1783.7856,-110.5"/>
<text text-anchor="middle" x="1835.416" y="-116.5" font-family="Helvetica,sans-Serif" font-size="10.00" fill="#000000">baseClassFEM.hpp</text>
</a>
</g>
</g>
<!-- Node15&#45;&gt;Node16 -->
<g id="edge16" class="edge">
<title>Node15&#45;&gt;Node16</title>
<path fill="none" stroke="#191970" d="M1833.7463,-165.4179C1834.0081,-158.2164 1834.3834,-147.8962 1834.7119,-138.8632"/>
<polygon fill="#191970" stroke="#191970" points="1838.2128,-138.9001 1835.0786,-128.7795 1831.2174,-138.6456 1838.2128,-138.9001"/>
</g>
<!-- Node17 -->
<g id="node18" class="node">
<title>Node17</title>
<g id="a_node18"><a xlink:href="../../d0/d02/meshpp_8hpp.html" target="_top" xlink:title="meshpp.hpp">
<polygon fill="#ffffff" stroke="#000000" points="1802.8965,-55.5 1802.8965,-73.5 1873.9355,-73.5 1873.9355,-55.5 1802.8965,-55.5"/>
<text text-anchor="middle" x="1838.416" y="-61.5" font-family="Helvetica,sans-Serif" font-size="10.00" fill="#000000">meshpp.hpp</text>
</a>
</g>
</g>
<!-- Node16&#45;&gt;Node17 -->
<g id="edge17" class="edge">
<title>Node16&#45;&gt;Node17</title>
<path fill="none" stroke="#191970" d="M1835.9114,-110.4179C1836.3042,-103.2164 1836.8671,-92.8962 1837.3598,-83.8632"/>
<polygon fill="#191970" stroke="#191970" points="1840.8599,-83.9553 1837.9099,-73.7795 1833.8703,-83.574 1840.8599,-83.9553"/>
</g>
<!-- Node17&#45;&gt;Node3 -->
<g id="edge43" class="edge">
<title>Node17&#45;&gt;Node3</title>
<path fill="none" stroke="#191970" d="M1802.784,-64.0695C1605.6731,-61.5916 646.4967,-48.2579 326.9023,-18.9899"/>
<polygon fill="#191970" stroke="#191970" points="327.0032,-15.484 316.719,-18.0308 326.3467,-22.4532 327.0032,-15.484"/>
</g>
<!-- Node18 -->
<g id="node19" class="node">
<title>Node18</title>
<polygon fill="#ffffff" stroke="#bfbfbf" points="334.6846,-.5 334.6846,-18.5 380.1475,-18.5 380.1475,-.5 334.6846,-.5"/>
<text text-anchor="middle" x="357.416" y="-6.5" font-family="Helvetica,sans-Serif" font-size="10.00" fill="#000000">stdio.h</text>
</g>
<!-- Node17&#45;&gt;Node18 -->
<g id="edge18" class="edge">
<title>Node17&#45;&gt;Node18</title>
<path fill="none" stroke="#191970" d="M1802.7516,-63.9289C1597.8807,-60.5767 573.8008,-42.8303 390.2777,-18.5288"/>
<polygon fill="#191970" stroke="#191970" points="390.7261,-15.0572 380.324,-17.0688 389.7101,-21.9831 390.7261,-15.0572"/>
</g>
<!-- Node19 -->
<g id="node20" class="node">
<title>Node19</title>
<polygon fill="#ffffff" stroke="#bfbfbf" points="398.2437,-.5 398.2437,-18.5 452.5884,-18.5 452.5884,-.5 398.2437,-.5"/>
<text text-anchor="middle" x="425.416" y="-6.5" font-family="Helvetica,sans-Serif" font-size="10.00" fill="#000000">iostream</text>
</g>
<!-- Node17&#45;&gt;Node19 -->
<g id="edge19" class="edge">
<title>Node17&#45;&gt;Node19</title>
<path fill="none" stroke="#191970" d="M1802.6253,-64.3733C1616.059,-63.5542 752.8623,-57.7731 462.8339,-18.6362"/>
<polygon fill="#191970" stroke="#191970" points="463.1485,-15.1463 452.7606,-17.2299 462.1806,-22.079 463.1485,-15.1463"/>
</g>
<!-- Node20 -->
<g id="node21" class="node">
<title>Node20</title>
<polygon fill="#ffffff" stroke="#bfbfbf" points="471.0244,-.5 471.0244,-18.5 519.8076,-18.5 519.8076,-.5 471.0244,-.5"/>
<text text-anchor="middle" x="495.416" y="-6.5" font-family="Helvetica,sans-Serif" font-size="10.00" fill="#000000">istream</text>
</g>
<!-- Node17&#45;&gt;Node20 -->
<g id="edge20" class="edge">
<title>Node17&#45;&gt;Node20</title>
<path fill="none" stroke="#191970" d="M1802.7143,-63.7836C1610.0983,-59.8498 697.6412,-40.3232 530.079,-18.7457"/>
<polygon fill="#191970" stroke="#191970" points="530.5299,-15.2747 520.1347,-17.3216 529.5375,-22.204 530.5299,-15.2747"/>
</g>
<!-- Node21 -->
<g id="node22" class="node">
<title>Node21</title>
<polygon fill="#ffffff" stroke="#bfbfbf" points="537.7461,-.5 537.7461,-18.5 587.0859,-18.5 587.0859,-.5 537.7461,-.5"/>
<text text-anchor="middle" x="562.416" y="-6.5" font-family="Helvetica,sans-Serif" font-size="10.00" fill="#000000">fstream</text>
</g>
<!-- Node17&#45;&gt;Node21 -->
<g id="edge21" class="edge">
<title>Node17&#45;&gt;Node21</title>
<path fill="none" stroke="#191970" d="M1802.6176,-64.3652C1627.3165,-63.5286 857.7111,-57.7627 597.2974,-18.8922"/>
<polygon fill="#191970" stroke="#191970" points="597.5538,-15.3902 587.1355,-17.3165 596.4811,-22.3075 597.5538,-15.3902"/>
</g>
<!-- Node22 -->
<g id="node23" class="node">
<title>Node22</title>
<polygon fill="#ffffff" stroke="#bfbfbf" points="604.8003,-.5 604.8003,-18.5 648.0317,-18.5 648.0317,-.5 604.8003,-.5"/>
<text text-anchor="middle" x="626.416" y="-6.5" font-family="Helvetica,sans-Serif" font-size="10.00" fill="#000000">vector</text>
</g>
<!-- Node17&#45;&gt;Node22 -->
<g id="edge22" class="edge">
<title>Node17&#45;&gt;Node22</title>
<path fill="none" stroke="#191970" d="M1802.6565,-64.4126C1632.7278,-63.8033 905.1766,-58.9619 658.1931,-18.8323"/>
<polygon fill="#191970" stroke="#191970" points="658.6459,-15.3593 648.2023,-17.1432 657.4789,-22.2613 658.6459,-15.3593"/>
</g>
<!-- Node23 -->
<g id="node24" class="node">
<title>Node23</title>
<polygon fill="#ffffff" stroke="#bfbfbf" points="665.9063,-.5 665.9063,-18.5 716.9258,-18.5 716.9258,-.5 665.9063,-.5"/>
<text text-anchor="middle" x="691.416" y="-6.5" font-family="Helvetica,sans-Serif" font-size="10.00" fill="#000000">iomanip</text>
</g>
<!-- Node17&#45;&gt;Node23 -->
<g id="edge23" class="edge">
<title>Node17&#45;&gt;Node23</title>
<path fill="none" stroke="#191970" d="M1802.6214,-64.1138C1639.0965,-62.1867 961.3911,-52.3956 727.4085,-18.7287"/>
<polygon fill="#191970" stroke="#191970" points="727.6785,-15.2302 717.2706,-17.2113 726.6423,-22.1531 727.6785,-15.2302"/>
</g>
<!-- Node24 -->
<g id="node25" class="node">
<title>Node24</title>
<polygon fill="#ffffff" stroke="#bfbfbf" points="734.9556,-.5 734.9556,-18.5 839.8765,-18.5 839.8765,-.5 734.9556,-.5"/>
<text text-anchor="middle" x="787.416" y="-6.5" font-family="Helvetica,sans-Serif" font-size="10.00" fill="#000000">Epetra_MpiComm.h</text>
</g>
<!-- Node17&#45;&gt;Node24 -->
<g id="edge24" class="edge">
<title>Node17&#45;&gt;Node24</title>
<path fill="none" stroke="#191970" d="M1802.7983,-64.2586C1675.1162,-63.0994 1228.2825,-56.513 849.9885,-19.0546"/>
<polygon fill="#191970" stroke="#191970" points="850.2404,-15.5624 839.9419,-18.0508 849.5444,-22.5277 850.2404,-15.5624"/>
</g>
<!-- Node25 -->
<g id="node26" class="node">
<title>Node25</title>
<polygon fill="#ffffff" stroke="#bfbfbf" points="857.6724,-.5 857.6724,-18.5 973.1597,-18.5 973.1597,-.5 857.6724,-.5"/>
<text text-anchor="middle" x="915.416" y="-6.5" font-family="Helvetica,sans-Serif" font-size="10.00" fill="#000000">Epetra_FECrsGraph.h</text>
</g>
<!-- Node17&#45;&gt;Node25 -->
<g id="edge25" class="edge">
<title>Node17&#45;&gt;Node25</title>
<path fill="none" stroke="#191970" d="M1802.8626,-63.7276C1686.6943,-60.9678 1307.6488,-50.099 983.5388,-19.0236"/>
<polygon fill="#191970" stroke="#191970" points="983.7738,-15.5301 973.4833,-18.0512 983.1,-22.4976 983.7738,-15.5301"/>
</g>
<!-- Node26 -->
<g id="node27" class="node">
<title>Node26</title>
<polygon fill="#ffffff" stroke="#bfbfbf" points="990.958,-.5 990.958,-18.5 1105.874,-18.5 1105.874,-.5 990.958,-.5"/>
<text text-anchor="middle" x="1048.416" y="-6.5" font-family="Helvetica,sans-Serif" font-size="10.00" fill="#000000">Epetra_FECrsMatrix.h</text>
</g>
<!-- Node17&#45;&gt;Node26 -->
<g id="edge26" class="edge">
<title>Node17&#45;&gt;Node26</title>
<path fill="none" stroke="#191970" d="M1802.5487,-63.2649C1698.1979,-59.4554 1385.5691,-46.5101 1115.9508,-19.0857"/>
<polygon fill="#191970" stroke="#191970" points="1116.2803,-15.6012 1105.9753,-18.0623 1115.5658,-22.5646 1116.2803,-15.6012"/>
</g>
<!-- Node27 -->
<g id="node28" class="node">
<title>Node27</title>
<polygon fill="#ffffff" stroke="#bfbfbf" points="1123.4409,-.5 1123.4409,-18.5 1223.3911,-18.5 1223.3911,-.5 1123.4409,-.5"/>
<text text-anchor="middle" x="1173.416" y="-6.5" font-family="Helvetica,sans-Serif" font-size="10.00" fill="#000000">Epetra_FEVector.h</text>
</g>
<!-- Node17&#45;&gt;Node27 -->
<g id="edge27" class="edge">
<title>Node17&#45;&gt;Node27</title>
<path fill="none" stroke="#191970" d="M1802.7965,-62.8817C1710.5469,-58.4654 1456.1209,-44.8548 1233.8143,-19.0724"/>
<polygon fill="#191970" stroke="#191970" points="1233.9268,-15.5617 1223.5876,-17.8749 1233.1127,-22.5142 1233.9268,-15.5617"/>
</g>
<!-- Node28 -->
<g id="node29" class="node">
<title>Node28</title>
<polygon fill="#ffffff" stroke="#bfbfbf" points="1241.8301,-.5 1241.8301,-18.5 1329.002,-18.5 1329.002,-.5 1241.8301,-.5"/>
<text text-anchor="middle" x="1285.416" y="-6.5" font-family="Helvetica,sans-Serif" font-size="10.00" fill="#000000">Epetra_Vector.h</text>
</g>
<!-- Node17&#45;&gt;Node28 -->
<g id="edge28" class="edge">
<title>Node17&#45;&gt;Node28</title>
<path fill="none" stroke="#191970" d="M1802.8328,-62.3248C1722.2199,-57.1694 1519.3353,-42.9148 1338.9732,-18.9606"/>
<polygon fill="#191970" stroke="#191970" points="1339.4181,-15.489 1329.0416,-17.6285 1338.4876,-22.4269 1339.4181,-15.489"/>
</g>
<!-- Node29 -->
<g id="node30" class="node">
<title>Node29</title>
<polygon fill="#ffffff" stroke="#bfbfbf" points="1347.0073,-.5 1347.0073,-18.5 1425.8247,-18.5 1425.8247,-.5 1347.0073,-.5"/>
<text text-anchor="middle" x="1386.416" y="-6.5" font-family="Helvetica,sans-Serif" font-size="10.00" fill="#000000">Epetra_Map.h</text>
</g>
<!-- Node17&#45;&gt;Node29 -->
<g id="edge29" class="edge">
<title>Node17&#45;&gt;Node29</title>
<path fill="none" stroke="#191970" d="M1802.8875,-61.5007C1734.0383,-55.4727 1577.4702,-40.7135 1436.0753,-19.1537"/>
<polygon fill="#191970" stroke="#191970" points="1436.3389,-15.6531 1425.9226,-17.5897 1435.2731,-22.5715 1436.3389,-15.6531"/>
</g>
<!-- Node30 -->
<g id="node31" class="node">
<title>Node30</title>
<polygon fill="#ffffff" stroke="#bfbfbf" points="1443.8867,-.5 1443.8867,-18.5 1584.9453,-18.5 1584.9453,-.5 1443.8867,-.5"/>
<text text-anchor="middle" x="1514.416" y="-6.5" font-family="Helvetica,sans-Serif" font-size="10.00" fill="#000000">Epetra_SerialDenseMatrix.h</text>
</g>
<!-- Node17&#45;&gt;Node30 -->
<g id="edge30" class="edge">
<title>Node17&#45;&gt;Node30</title>
<path fill="none" stroke="#191970" d="M1802.8155,-58.4567C1748.6365,-49.2597 1644.7059,-31.6171 1577.5252,-20.213"/>
<polygon fill="#191970" stroke="#191970" points="1577.926,-16.731 1567.4813,-18.508 1576.7545,-23.6323 1577.926,-16.731"/>
</g>
<!-- Node31 -->
<g id="node32" class="node">
<title>Node31</title>
<polygon fill="#ffffff" stroke="#bfbfbf" points="1602.5938,-.5 1602.5938,-18.5 1744.2383,-18.5 1744.2383,-.5 1602.5938,-.5"/>
<text text-anchor="middle" x="1673.416" y="-6.5" font-family="Helvetica,sans-Serif" font-size="10.00" fill="#000000">Epetra_SerialDenseVector.h</text>
</g>
<!-- Node17&#45;&gt;Node31 -->
<g id="edge31" class="edge">
<title>Node17&#45;&gt;Node31</title>
<path fill="none" stroke="#191970" d="M1811.1696,-55.4179C1783.6205,-46.2348 1740.8582,-31.9807 1710.2887,-21.7909"/>
<polygon fill="#191970" stroke="#191970" points="1711.0223,-18.3462 1700.4286,-18.5042 1708.8087,-24.9869 1711.0223,-18.3462"/>
</g>
<!-- Node32 -->
<g id="node33" class="node">
<title>Node32</title>
<polygon fill="#ffffff" stroke="#bfbfbf" points="1762.0347,-.5 1762.0347,-18.5 1914.7974,-18.5 1914.7974,-.5 1762.0347,-.5"/>
<text text-anchor="middle" x="1838.416" y="-6.5" font-family="Helvetica,sans-Serif" font-size="10.00" fill="#000000">Epetra_IntSerialDenseVector.h</text>
</g>
<!-- Node17&#45;&gt;Node32 -->
<g id="edge32" class="edge">
<title>Node17&#45;&gt;Node32</title>
<path fill="none" stroke="#191970" d="M1838.416,-55.4179C1838.416,-48.2164 1838.416,-37.8962 1838.416,-28.8632"/>
<polygon fill="#191970" stroke="#191970" points="1841.9161,-28.7794 1838.416,-18.7795 1834.9161,-28.7795 1841.9161,-28.7794"/>
</g>
<!-- Node33 -->
<g id="node34" class="node">
<title>Node33</title>
<polygon fill="#ffffff" stroke="#bfbfbf" points="1932.564,-.5 1932.564,-18.5 2020.2681,-18.5 2020.2681,-.5 1932.564,-.5"/>
<text text-anchor="middle" x="1976.416" y="-6.5" font-family="Helvetica,sans-Serif" font-size="10.00" fill="#000000">Epetra_Import.h</text>
</g>
<!-- Node17&#45;&gt;Node33 -->
<g id="edge33" class="edge">
<title>Node17&#45;&gt;Node33</title>
<path fill="none" stroke="#191970" d="M1861.2039,-55.4179C1883.7767,-46.4215 1918.5612,-32.5581 1944.0057,-22.4172"/>
<polygon fill="#191970" stroke="#191970" points="1945.6007,-25.5493 1953.5943,-18.5956 1943.009,-19.0467 1945.6007,-25.5493"/>
</g>
<!-- Node34 -->
<g id="node35" class="node">
<title>Node34</title>
<polygon fill="#ffffff" stroke="#bfbfbf" points="2038.2832,-.5 2038.2832,-18.5 2126.5488,-18.5 2126.5488,-.5 2038.2832,-.5"/>
<text text-anchor="middle" x="2082.416" y="-6.5" font-family="Helvetica,sans-Serif" font-size="10.00" fill="#000000">Epetra_Export.h</text>
</g>
<!-- Node17&#45;&gt;Node34 -->
<g id="edge34" class="edge">
<title>Node17&#45;&gt;Node34</title>
<path fill="none" stroke="#191970" d="M1874.157,-56.4436C1915.8396,-47.048 1985.0262,-31.4526 2032.1186,-20.8375"/>
<polygon fill="#191970" stroke="#191970" points="2033.1228,-24.1991 2042.1083,-18.5857 2031.5835,-17.3704 2033.1228,-24.1991"/>
</g>
<!-- Node35 -->
<g id="node36" class="node">
<title>Node35</title>
<polygon fill="#ffffff" stroke="#bfbfbf" points="2144.8062,-.5 2144.8062,-18.5 2226.0259,-18.5 2226.0259,-.5 2144.8062,-.5"/>
<text text-anchor="middle" x="2185.416" y="-6.5" font-family="Helvetica,sans-Serif" font-size="10.00" fill="#000000">Epetra_Time.h</text>
</g>
<!-- Node17&#45;&gt;Node35 -->
<g id="edge35" class="edge">
<title>Node17&#45;&gt;Node35</title>
<path fill="none" stroke="#191970" d="M1874.1421,-59.4478C1928.1904,-51.7129 2034.2115,-36.1827 2134.7551,-19.0622"/>
<polygon fill="#191970" stroke="#191970" points="2135.5126,-22.4835 2144.7789,-17.3468 2134.3318,-15.5838 2135.5126,-22.4835"/>
</g>
<!-- Node36 -->
<g id="node37" class="node">
<title>Node36</title>
<polygon fill="#ffffff" stroke="#bfbfbf" points="2243.7119,-.5 2243.7119,-18.5 2393.1201,-18.5 2393.1201,-.5 2243.7119,-.5"/>
<text text-anchor="middle" x="2318.416" y="-6.5" font-family="Helvetica,sans-Serif" font-size="10.00" fill="#000000">ml_MultiLevelPreconditioner.h</text>
</g>
<!-- Node17&#45;&gt;Node36 -->
<g id="edge36" class="edge">
<title>Node17&#45;&gt;Node36</title>
<path fill="none" stroke="#191970" d="M1874.1019,-60.411C1949.5583,-51.7649 2127.0819,-31.4237 2233.4871,-19.2314"/>
<polygon fill="#191970" stroke="#191970" points="2234.02,-22.6934 2243.5566,-18.0776 2233.2231,-15.7389 2234.02,-22.6934"/>
</g>
<!-- Node37 -->
<g id="node38" class="node">
<title>Node37</title>
<polygon fill="#ffffff" stroke="#bfbfbf" points="2411.3398,-.5 2411.3398,-18.5 2503.4922,-18.5 2503.4922,-.5 2411.3398,-.5"/>
<text text-anchor="middle" x="2457.416" y="-6.5" font-family="Helvetica,sans-Serif" font-size="10.00" fill="#000000">ml_epetra_utils.h</text>
</g>
<!-- Node17&#45;&gt;Node37 -->
<g id="edge37" class="edge">
<title>Node17&#45;&gt;Node37</title>
<path fill="none" stroke="#191970" d="M1874.1646,-62.7422C1962.062,-58.1798 2195.9015,-44.5854 2401.1858,-19.0508"/>
<polygon fill="#191970" stroke="#191970" points="2401.7623,-22.506 2411.248,-17.7866 2400.8897,-15.5606 2401.7623,-22.506"/>
</g>
<!-- Node38 -->
<g id="node39" class="node">
<title>Node38</title>
<polygon fill="#ffffff" stroke="#bfbfbf" points="2521.3447,-.5 2521.3447,-18.5 2593.4873,-18.5 2593.4873,-.5 2521.3447,-.5"/>
<text text-anchor="middle" x="2557.416" y="-6.5" font-family="Helvetica,sans-Serif" font-size="10.00" fill="#000000">ml_include.h</text>
</g>
<!-- Node17&#45;&gt;Node38 -->
<g id="edge38" class="edge">
<title>Node17&#45;&gt;Node38</title>
<path fill="none" stroke="#191970" d="M1874.0386,-63.8573C1973.4105,-61.691 2262.1629,-52.8505 2511.185,-18.9856"/>
<polygon fill="#191970" stroke="#191970" points="2511.7144,-22.4458 2521.1438,-17.6149 2510.7599,-15.5112 2511.7144,-22.4458"/>
</g>
<!-- Node39 -->
<g id="node40" class="node">
<title>Node39</title>
<polygon fill="#ffffff" stroke="#bfbfbf" points="2611.8374,-.5 2611.8374,-18.5 2748.9946,-18.5 2748.9946,-.5 2611.8374,-.5"/>
<text text-anchor="middle" x="2680.416" y="-6.5" font-family="Helvetica,sans-Serif" font-size="10.00" fill="#000000">EpetraExt_RowMatrixOut.h</text>
</g>
<!-- Node17&#45;&gt;Node39 -->
<g id="edge39" class="edge">
<title>Node17&#45;&gt;Node39</title>
<path fill="none" stroke="#191970" d="M1874.2749,-63.1518C1982.3558,-58.9211 2314.6224,-44.6928 2601.3567,-19.0403"/>
<polygon fill="#191970" stroke="#191970" points="2601.8915,-22.5063 2611.537,-18.1229 2601.2632,-15.5346 2601.8915,-22.5063"/>
</g>
<!-- Node40 -->
<g id="node41" class="node">
<title>Node40</title>
<polygon fill="#ffffff" stroke="#bfbfbf" points="2766.7168,-.5 2766.7168,-18.5 2906.1152,-18.5 2906.1152,-.5 2766.7168,-.5"/>
<text text-anchor="middle" x="2836.416" y="-6.5" font-family="Helvetica,sans-Serif" font-size="10.00" fill="#000000">EpetraExt_MultiVectorOut.h</text>
</g>
<!-- Node17&#45;&gt;Node40 -->
<g id="edge40" class="edge">
<title>Node17&#45;&gt;Node40</title>
<path fill="none" stroke="#191970" d="M1873.9983,-63.6595C1995.7017,-60.5907 2406.7198,-48.6279 2756.6269,-19.0989"/>
<polygon fill="#191970" stroke="#191970" points="2757.0331,-22.5771 2766.7006,-18.2424 2756.4401,-15.6022 2757.0331,-22.5771"/>
</g>
<!-- Node41 -->
<g id="node42" class="node">
<title>Node41</title>
<polygon fill="#ffffff" stroke="#bfbfbf" points="2924.1626,-.5 2924.1626,-18.5 3034.6694,-18.5 3034.6694,-.5 2924.1626,-.5"/>
<text text-anchor="middle" x="2979.416" y="-6.5" font-family="Helvetica,sans-Serif" font-size="10.00" fill="#000000">EpetraExt_VectorIn.h</text>
</g>
<!-- Node17&#45;&gt;Node41 -->
<g id="edge41" class="edge">
<title>Node17&#45;&gt;Node41</title>
<path fill="none" stroke="#191970" d="M1874.3023,-64.3515C2009.3386,-63.5053 2499.8802,-57.8402 2913.8843,-19.0484"/>
<polygon fill="#191970" stroke="#191970" points="2914.3303,-22.522 2923.9566,-18.0966 2913.6717,-15.553 2914.3303,-22.522"/>
</g>
<!-- Node42 -->
<g id="node43" class="node">
<title>Node42</title>
<polygon fill="#ffffff" stroke="#bfbfbf" points="3052.606,-.5 3052.606,-18.5 3184.2261,-18.5 3184.2261,-.5 3052.606,-.5"/>
<text text-anchor="middle" x="3118.416" y="-6.5" font-family="Helvetica,sans-Serif" font-size="10.00" fill="#000000">EpetraExt_MultiVectorIn.h</text>
</g>
<!-- Node17&#45;&gt;Node42 -->
<g id="edge42" class="edge">
<title>Node17&#45;&gt;Node42</title>
<path fill="none" stroke="#191970" d="M1873.9713,-64.3028C2018.2693,-63.2621 2574.3498,-56.926 3042.5972,-18.9867"/>
<polygon fill="#191970" stroke="#191970" points="3042.9182,-22.4722 3052.6003,-18.1702 3042.3487,-15.4954 3042.9182,-22.4722"/>
</g>
<!-- Node43 -->
<g id="node44" class="node">
<title>Node43</title>
<polygon fill="#ffffff" stroke="#bfbfbf" points="3202.1846,-.5 3202.1846,-18.5 3262.6475,-18.5 3262.6475,-.5 3202.1846,-.5"/>
<text text-anchor="middle" x="3232.416" y="-6.5" font-family="Helvetica,sans-Serif" font-size="10.00" fill="#000000">Amesos.h</text>
</g>
<!-- Node17&#45;&gt;Node43 -->
<g id="edge44" class="edge">
<title>Node17&#45;&gt;Node43</title>
<path fill="none" stroke="#191970" d="M1873.9586,-64.2942C2058.1831,-63.079 2906.5062,-55.6321 3191.5654,-18.9417"/>
<polygon fill="#191970" stroke="#191970" points="3192.4232,-22.3584 3201.8732,-17.568 3191.4984,-15.4198 3192.4232,-22.3584"/>
</g>
<!-- Node44 -->
<g id="node45" class="node">
<title>Node44</title>
<polygon fill="#ffffff" stroke="#bfbfbf" points="3280.9629,-.5 3280.9629,-18.5 3345.8691,-18.5 3345.8691,-.5 3280.9629,-.5"/>
<text text-anchor="middle" x="3313.416" y="-6.5" font-family="Helvetica,sans-Serif" font-size="10.00" fill="#000000">AztecOO.h</text>
</g>
<!-- Node17&#45;&gt;Node44 -->
<g id="edge45" class="edge">
<title>Node17&#45;&gt;Node44</title>
<path fill="none" stroke="#191970" d="M1874.0705,-64.2897C2064.9642,-63.0256 2968.4067,-55.2624 3270.4497,-18.82"/>
<polygon fill="#191970" stroke="#191970" points="3271.0163,-22.2766 3280.5069,-17.5672 3270.1509,-15.3303 3271.0163,-22.2766"/>
</g>
<!-- Node45 -->
<g id="node46" class="node">
<title>Node45</title>
<polygon fill="#ffffff" stroke="#bfbfbf" points="3364.1084,-.5 3364.1084,-18.5 3480.7236,-18.5 3480.7236,-.5 3364.1084,-.5"/>
<text text-anchor="middle" x="3422.416" y="-6.5" font-family="Helvetica,sans-Serif" font-size="10.00" fill="#000000">Amesos_BaseSolver.h</text>
</g>
<!-- Node17&#45;&gt;Node45 -->
<g id="edge46" class="edge">
<title>Node17&#45;&gt;Node45</title>
<path fill="none" stroke="#191970" d="M1874.1084,-63.9571C2071.5546,-60.8748 3032.3831,-44.8232 3353.6194,-18.9399"/>
<polygon fill="#191970" stroke="#191970" points="3354.1787,-22.4057 3363.8561,-18.0932 3353.6016,-15.4295 3354.1787,-22.4057"/>
</g>
<!-- Node46 -->
<g id="node47" class="node">
<title>Node46</title>
<polygon fill="#ffffff" stroke="#bfbfbf" points="3498.3003,-.5 3498.3003,-18.5 3546.5317,-18.5 3546.5317,-.5 3498.3003,-.5"/>
<text text-anchor="middle" x="3522.416" y="-6.5" font-family="Helvetica,sans-Serif" font-size="10.00" fill="#000000">metis.h</text>
</g>
<!-- Node17&#45;&gt;Node46 -->
<g id="edge47" class="edge">
<title>Node17&#45;&gt;Node46</title>
<path fill="none" stroke="#191970" d="M1874.1614,-64.0569C2096.0475,-61.236 3282.1422,-45.1073 3487.9663,-18.6827"/>
<polygon fill="#191970" stroke="#191970" points="3488.6508,-22.1208 3498.0619,-17.2544 3487.6702,-15.1898 3488.6508,-22.1208"/>
</g>
<!-- Node47 -->
<g id="node48" class="node">
<title>Node47</title>
<g id="a_node48"><a xlink:href="../../d4/dbc/fepp_8hpp.html" target="_top" xlink:title="fepp.hpp">
<polygon fill="#ffffff" stroke="#000000" points="3564.9531,-.5 3564.9531,-18.5 3619.8789,-18.5 3619.8789,-.5 3564.9531,-.5"/>
<text text-anchor="middle" x="3592.416" y="-6.5" font-family="Helvetica,sans-Serif" font-size="10.00" fill="#000000">fepp.hpp</text>
</a>
</g>
</g>
<!-- Node17&#45;&gt;Node47 -->
<g id="edge48" class="edge">
<title>Node17&#45;&gt;Node47</title>
<path fill="none" stroke="#191970" d="M1874.0412,-64.0067C2104.1464,-60.8589 3375.1289,-42.9478 3546.416,-19 3549.1869,-18.6126 3552.0494,-18.0949 3554.9383,-17.5003"/>
<polygon fill="#191970" stroke="#191970" points="3555.7949,-20.8949 3564.7674,-15.2606 3554.2397,-14.0699 3555.7949,-20.8949"/>
</g>
<!-- Node47&#45;&gt;Node17 -->
<g id="edge49" class="edge">
<title>Node47&#45;&gt;Node17</title>
<path fill="none" stroke="#191970" d="M3567.6003,-18.5059C3566.531,-18.6874 3565.4669,-18.8531 3564.416,-19 3394.3784,-42.7731 2140.6309,-60.5972 1884.136,-63.9355"/>
<polygon fill="#191970" stroke="#191970" points="1884.0041,-60.4368 1874.0503,-64.0659 1884.0947,-67.4362 1884.0041,-60.4368"/>
</g>
</g>
</svg>
