<?xml version="1.0" encoding="UTF-8" standalone="no"?>
<!DOCTYPE svg PUBLIC "-//W3C//DTD SVG 1.1//EN"
 "http://www.w3.org/Graphics/SVG/1.1/DTD/svg11.dtd">
<!-- Generated by graphviz version 2.40.1 (20161225.0304)
 -->
<!-- Title: src/shape/LinearQuadrangle.hpp Pages: 1 -->
<svg width="170pt" height="137pt"
 viewBox="0.00 0.00 169.65 137.00" xmlns="http://www.w3.org/2000/svg" xmlns:xlink="http://www.w3.org/1999/xlink">
<g id="graph0" class="graph" transform="scale(1 1) rotate(0) translate(4 133)">
<title>src/shape/LinearQuadrangle.hpp</title>
<polygon fill="#ffffff" stroke="transparent" points="-4,4 -4,-133 165.6543,-133 165.6543,4 -4,4"/>
<!-- Node0 -->
<g id="node1" class="node">
<title>Node0</title>
<polygon fill="#bfbfbf" stroke="#000000" points="0,-110.5 0,-128.5 161.6543,-128.5 161.6543,-110.5 0,-110.5"/>
<text text-anchor="middle" x="80.8271" y="-116.5" font-family="Helvetica,sans-Serif" font-size="10.00" fill="#000000">src/shape/LinearQuadrangle.hpp</text>
</g>
<!-- Node1 -->
<g id="node2" class="node">
<title>Node1</title>
<g id="a_node2"><a xlink:href="../../de/d27/_shape_object2_d_8hpp.html" target="_top" xlink:title="ShapeObject2D.hpp">
<polygon fill="#ffffff" stroke="#000000" points="27.7954,-55.5 27.7954,-73.5 133.8589,-73.5 133.8589,-55.5 27.7954,-55.5"/>
<text text-anchor="middle" x="80.8271" y="-61.5" font-family="Helvetica,sans-Serif" font-size="10.00" fill="#000000">ShapeObject2D.hpp</text>
</a>
</g>
</g>
<!-- Node0&#45;&gt;Node1 -->
<g id="edge1" class="edge">
<title>Node0&#45;&gt;Node1</title>
<path fill="none" stroke="#191970" d="M80.8271,-110.4179C80.8271,-103.2164 80.8271,-92.8962 80.8271,-83.8632"/>
<polygon fill="#191970" stroke="#191970" points="84.3272,-83.7794 80.8271,-73.7795 77.3272,-83.7795 84.3272,-83.7794"/>
</g>
<!-- Node2 -->
<g id="node3" class="node">
<title>Node2</title>
<g id="a_node3"><a xlink:href="../../de/da7/_shape_object_8hpp.html" target="_top" xlink:title="ShapeObject.hpp">
<polygon fill="#ffffff" stroke="#000000" points="34.187,-.5 34.187,-18.5 127.4673,-18.5 127.4673,-.5 34.187,-.5"/>
<text text-anchor="middle" x="80.8271" y="-6.5" font-family="Helvetica,sans-Serif" font-size="10.00" fill="#000000">ShapeObject.hpp</text>
</a>
</g>
</g>
<!-- Node1&#45;&gt;Node2 -->
<g id="edge2" class="edge">
<title>Node1&#45;&gt;Node2</title>
<path fill="none" stroke="#191970" d="M80.8271,-55.4179C80.8271,-48.2164 80.8271,-37.8962 80.8271,-28.8632"/>
<polygon fill="#191970" stroke="#191970" points="84.3272,-28.7794 80.8271,-18.7795 77.3272,-28.7795 84.3272,-28.7794"/>
</g>
</g>
</svg>
