<?xml version="1.0" encoding="UTF-8" standalone="no"?>
<!DOCTYPE svg PUBLIC "-//W3C//DTD SVG 1.1//EN"
 "http://www.w3.org/Graphics/SVG/1.1/DTD/svg11.dtd">
<!-- Generated by graphviz version 2.40.1 (20161225.0304)
 -->
<!-- Title: src/RandomGeneratorForPCA_andLikelihood.hpp Pages: 1 -->
<svg width="274pt" height="106pt"
 viewBox="0.00 0.00 273.50 106.00" xmlns="http://www.w3.org/2000/svg" xmlns:xlink="http://www.w3.org/1999/xlink">
<g id="graph0" class="graph" transform="scale(1 1) rotate(0) translate(4 102)">
<title>src/RandomGeneratorForPCA_andLikelihood.hpp</title>
<polygon fill="#ffffff" stroke="transparent" points="-4,4 -4,-102 269.5,-102 269.5,4 -4,4"/>
<!-- Node60 -->
<g id="node1" class="node">
<title>Node60</title>
<polygon fill="#bfbfbf" stroke="#000000" points="68.5,-67.5 68.5,-97.5 216.5,-97.5 216.5,-67.5 68.5,-67.5"/>
<text text-anchor="start" x="76.5" y="-85.5" font-family="Helvetica,sans-Serif" font-size="10.00" fill="#000000">src/RandomGeneratorForPCA</text>
<text text-anchor="middle" x="142.5" y="-74.5" font-family="Helvetica,sans-Serif" font-size="10.00" fill="#000000">_andLikelihood.hpp</text>
</g>
<!-- Node61 -->
<g id="node2" class="node">
<title>Node61</title>
<g id="a_node2"><a xlink:href="../../d5/daf/nrl_2random__generator__for__pca__likelihood_2main_8cpp.html" target="_top" xlink:title="nrl/random_generator\l_for_pca_likelihood/main.cpp">
<polygon fill="#ffffff" stroke="#000000" points="0,-.5 0,-30.5 143,-30.5 143,-.5 0,-.5"/>
<text text-anchor="start" x="8" y="-18.5" font-family="Helvetica,sans-Serif" font-size="10.00" fill="#000000">nrl/random_generator</text>
<text text-anchor="middle" x="71.5" y="-7.5" font-family="Helvetica,sans-Serif" font-size="10.00" fill="#000000">_for_pca_likelihood/main.cpp</text>
</a>
</g>
</g>
<!-- Node60&#45;&gt;Node61 -->
<g id="edge1" class="edge">
<title>Node60&#45;&gt;Node61</title>
<path fill="none" stroke="#191970" d="M118.8806,-60.2113C108.5905,-50.5009 96.7949,-39.3698 87.5472,-30.6432"/>
<polygon fill="#191970" stroke="#191970" points="116.7139,-62.979 126.389,-67.2967 121.5181,-57.8879 116.7139,-62.979"/>
</g>
<!-- Node62 -->
<g id="node3" class="node">
<title>Node62</title>
<g id="a_node3"><a xlink:href="../../db/d7d/nrl_2testing__solutions_2main_8cpp.html" target="_top" xlink:title="nrl/testing_solutions\l/main.cpp">
<polygon fill="#ffffff" stroke="#000000" points="161.5,-.5 161.5,-30.5 265.5,-30.5 265.5,-.5 161.5,-.5"/>
<text text-anchor="start" x="169.5" y="-18.5" font-family="Helvetica,sans-Serif" font-size="10.00" fill="#000000">nrl/testing_solutions</text>
<text text-anchor="middle" x="213.5" y="-7.5" font-family="Helvetica,sans-Serif" font-size="10.00" fill="#000000">/main.cpp</text>
</a>
</g>
</g>
<!-- Node60&#45;&gt;Node62 -->
<g id="edge2" class="edge">
<title>Node60&#45;&gt;Node62</title>
<path fill="none" stroke="#191970" d="M166.1194,-60.2113C176.4095,-50.5009 188.2051,-39.3698 197.4528,-30.6432"/>
<polygon fill="#191970" stroke="#191970" points="163.4819,-57.8879 158.611,-67.2967 168.2861,-62.979 163.4819,-57.8879"/>
</g>
</g>
</svg>
