<?xml version="1.0" encoding="UTF-8" standalone="no"?>
<!DOCTYPE svg PUBLIC "-//W3C//DTD SVG 1.1//EN"
 "http://www.w3.org/Graphics/SVG/1.1/DTD/svg11.dtd">
<!-- Generated by graphviz version 2.40.1 (20161225.0304)
 -->
<!-- Title: arteries/deterministic_dirichlet Pages: 1 -->
<svg width="150pt" height="151pt"
 viewBox="0.00 0.00 150.00 151.00" xmlns="http://www.w3.org/2000/svg" xmlns:xlink="http://www.w3.org/1999/xlink">
<g id="graph0" class="graph" transform="scale(1 1) rotate(0) translate(4 147)">
<title>arteries/deterministic_dirichlet</title>
<polygon fill="#ffffff" stroke="transparent" points="-4,4 -4,-147 146,-147 146,4 -4,4"/>
<g id="clust1" class="cluster">
<title>clusterdir_e931e8f60c90172cdc270a15876352a9</title>
<g id="a_clust1"><a xlink:href="dir_e931e8f60c90172cdc270a15876352a9.html" target="_top" xlink:title="arteries">
<polygon fill="#ddddee" stroke="#000000" points="8,-64 8,-135 134,-135 134,-64 8,-64"/>
<text text-anchor="middle" x="71" y="-123" font-family="Helvetica,sans-Serif" font-size="10.00" fill="#000000">arteries</text>
</a>
</g>
</g>
<!-- dir_3faec767b112d4a4b38390a28b30cab7 -->
<g id="node1" class="node">
<title>dir_3faec767b112d4a4b38390a28b30cab7</title>
<g id="a_node1"><a xlink:href="dir_3faec767b112d4a4b38390a28b30cab7.html" target="_top" xlink:title="deterministic_dirichlet">
<polygon fill="#eeeeff" stroke="#000000" points="126.5,-108 15.5,-108 15.5,-72 126.5,-72 126.5,-108"/>
<text text-anchor="middle" x="71" y="-87.5" font-family="Helvetica,sans-Serif" font-size="10.00" fill="#000000">deterministic_dirichlet</text>
</a>
</g>
</g>
<!-- dir_68267d1309a1af8e8297ef4c3efbcdba -->
<g id="node2" class="node">
<title>dir_68267d1309a1af8e8297ef4c3efbcdba</title>
<g id="a_node2"><a xlink:href="dir_68267d1309a1af8e8297ef4c3efbcdba.html" target="_top" xlink:title="src">
<polygon fill="none" stroke="#000000" points="98,-36 44,-36 44,0 98,0 98,-36"/>
<text text-anchor="middle" x="71" y="-15.5" font-family="Helvetica,sans-Serif" font-size="10.00" fill="#000000">src</text>
</a>
</g>
</g>
<!-- dir_3faec767b112d4a4b38390a28b30cab7&#45;&gt;dir_68267d1309a1af8e8297ef4c3efbcdba -->
<g id="edge1" class="edge">
<title>dir_3faec767b112d4a4b38390a28b30cab7&#45;&gt;dir_68267d1309a1af8e8297ef4c3efbcdba</title>
<path fill="none" stroke="#000000" d="M71,-71.8314C71,-64.131 71,-54.9743 71,-46.4166"/>
<polygon fill="#000000" stroke="#000000" points="74.5001,-46.4132 71,-36.4133 67.5001,-46.4133 74.5001,-46.4132"/>
<g id="a_edge1&#45;headlabel"><a xlink:href="dir_000004_000034.html" target="_top" xlink:title="2">
<text text-anchor="middle" x="77.3393" y="-47.5079" font-family="Helvetica,sans-Serif" font-size="10.00" fill="#000000">2</text>
</a>
</g>
</g>
</g>
</svg>
