<?xml version="1.0" encoding="UTF-8" standalone="no"?>
<!DOCTYPE svg PUBLIC "-//W3C//DTD SVG 1.1//EN"
 "http://www.w3.org/Graphics/SVG/1.1/DTD/svg11.dtd">
<!-- Generated by graphviz version 2.40.1 (20161225.0304)
 -->
<!-- Title: asme/isotransrandomfield Pages: 1 -->
<svg width="142pt" height="151pt"
 viewBox="0.00 0.00 142.00 151.00" xmlns="http://www.w3.org/2000/svg" xmlns:xlink="http://www.w3.org/1999/xlink">
<g id="graph0" class="graph" transform="scale(1 1) rotate(0) translate(4 147)">
<title>asme/isotransrandomfield</title>
<polygon fill="#ffffff" stroke="transparent" points="-4,4 -4,-147 138,-147 138,4 -4,4"/>
<g id="clust1" class="cluster">
<title>clusterdir_d69c5998c88a6f19c159cfeabb096535</title>
<g id="a_clust1"><a xlink:href="dir_d69c5998c88a6f19c159cfeabb096535.html" target="_top" xlink:title="asme">
<polygon fill="#ddddee" stroke="#000000" points="8,-64 8,-135 126,-135 126,-64 8,-64"/>
<text text-anchor="middle" x="67" y="-123" font-family="Helvetica,sans-Serif" font-size="10.00" fill="#000000">asme</text>
</a>
</g>
</g>
<!-- dir_6eca39e0e24cb5512efdfcd9feef5afa -->
<g id="node1" class="node">
<title>dir_6eca39e0e24cb5512efdfcd9feef5afa</title>
<g id="a_node1"><a xlink:href="dir_6eca39e0e24cb5512efdfcd9feef5afa.html" target="_top" xlink:title="isotransrandomfield">
<polygon fill="#eeeeff" stroke="#000000" points="117.5,-108 16.5,-108 16.5,-72 117.5,-72 117.5,-108"/>
<text text-anchor="middle" x="67" y="-87.5" font-family="Helvetica,sans-Serif" font-size="10.00" fill="#000000">isotransrandomfield</text>
</a>
</g>
</g>
<!-- dir_68267d1309a1af8e8297ef4c3efbcdba -->
<g id="node2" class="node">
<title>dir_68267d1309a1af8e8297ef4c3efbcdba</title>
<g id="a_node2"><a xlink:href="dir_68267d1309a1af8e8297ef4c3efbcdba.html" target="_top" xlink:title="src">
<polygon fill="none" stroke="#000000" points="94,-36 40,-36 40,0 94,0 94,-36"/>
<text text-anchor="middle" x="67" y="-15.5" font-family="Helvetica,sans-Serif" font-size="10.00" fill="#000000">src</text>
</a>
</g>
</g>
<!-- dir_6eca39e0e24cb5512efdfcd9feef5afa&#45;&gt;dir_68267d1309a1af8e8297ef4c3efbcdba -->
<g id="edge1" class="edge">
<title>dir_6eca39e0e24cb5512efdfcd9feef5afa&#45;&gt;dir_68267d1309a1af8e8297ef4c3efbcdba</title>
<path fill="none" stroke="#000000" d="M67,-71.8314C67,-64.131 67,-54.9743 67,-46.4166"/>
<polygon fill="#000000" stroke="#000000" points="70.5001,-46.4132 67,-36.4133 63.5001,-46.4133 70.5001,-46.4132"/>
<g id="a_edge1&#45;headlabel"><a xlink:href="dir_000010_000034.html" target="_top" xlink:title="1">
<text text-anchor="middle" x="73.3393" y="-47.5079" font-family="Helvetica,sans-Serif" font-size="10.00" fill="#000000">1</text>
</a>
</g>
</g>
</g>
</svg>
