<?xml version="1.0" encoding="UTF-8" standalone="no"?>
<!DOCTYPE svg PUBLIC "-//W3C//DTD SVG 1.1//EN"
 "http://www.w3.org/Graphics/SVG/1.1/DTD/svg11.dtd">
<!-- Generated by graphviz version 2.40.1 (20161225.0304)
 -->
<!-- Title: examples Pages: 1 -->
<svg width="1038pt" height="132pt"
 viewBox="0.00 0.00 1038.00 132.00" xmlns="http://www.w3.org/2000/svg" xmlns:xlink="http://www.w3.org/1999/xlink">
<g id="graph0" class="graph" transform="scale(1 1) rotate(0) translate(4 128)">
<title>examples</title>
<polygon fill="#ffffff" stroke="transparent" points="-4,4 -4,-128 1034,-128 1034,4 -4,4"/>
<g id="clust1" class="cluster">
<title>clusterdir_d28a4824dc47e487b107a5db32ef43c4</title>
<g id="a_clust1"><a xlink:href="dir_d28a4824dc47e487b107a5db32ef43c4.html" target="_top">
<polygon fill="#eeeeff" stroke="#000000" points="8,-64 8,-116 1022,-116 1022,-64 8,-64"/>
</a>
</g>
</g>
<!-- dir_d28a4824dc47e487b107a5db32ef43c4 -->
<g id="node1" class="node">
<title>dir_d28a4824dc47e487b107a5db32ef43c4</title>
<text text-anchor="middle" x="984" y="-87.5" font-family="Helvetica,sans-Serif" font-size="10.00" fill="#000000">examples</text>
</g>
<!-- dir_80b6b24927811b768b2b1153b134fc73 -->
<g id="node2" class="node">
<title>dir_80b6b24927811b768b2b1153b134fc73</title>
<g id="a_node2"><a xlink:href="dir_80b6b24927811b768b2b1153b134fc73.html" target="_top" xlink:title="boost_icdf">
<polygon fill="#ffffff" stroke="#000000" points="936,-108 874,-108 874,-72 936,-72 936,-108"/>
<text text-anchor="middle" x="905" y="-87.5" font-family="Helvetica,sans-Serif" font-size="10.00" fill="#000000">boost_icdf</text>
</a>
</g>
</g>
<!-- dir_94fd9177483a300dfe4635b2a9627f09 -->
<g id="node3" class="node">
<title>dir_94fd9177483a300dfe4635b2a9627f09</title>
<g id="a_node3"><a xlink:href="dir_94fd9177483a300dfe4635b2a9627f09.html" target="_top" xlink:title="damagefield">
<polygon fill="#ffffff" stroke="#000000" points="855.5,-108 786.5,-108 786.5,-72 855.5,-72 855.5,-108"/>
<text text-anchor="middle" x="821" y="-87.5" font-family="Helvetica,sans-Serif" font-size="10.00" fill="#000000">damagefield</text>
</a>
</g>
</g>
<!-- dir_68267d1309a1af8e8297ef4c3efbcdba -->
<g id="node13" class="node">
<title>dir_68267d1309a1af8e8297ef4c3efbcdba</title>
<g id="a_node13"><a xlink:href="dir_68267d1309a1af8e8297ef4c3efbcdba.html" target="_top" xlink:title="src">
<polygon fill="none" stroke="#000000" points="387,-36 333,-36 333,0 387,0 387,-36"/>
<text text-anchor="middle" x="360" y="-15.5" font-family="Helvetica,sans-Serif" font-size="10.00" fill="#000000">src</text>
</a>
</g>
</g>
<!-- dir_94fd9177483a300dfe4635b2a9627f09&#45;&gt;dir_68267d1309a1af8e8297ef4c3efbcdba -->
<g id="edge1" class="edge">
<title>dir_94fd9177483a300dfe4635b2a9627f09&#45;&gt;dir_68267d1309a1af8e8297ef4c3efbcdba</title>
<path fill="none" stroke="#000000" d="M794.4016,-71.8796C788.8519,-68.7984 782.8922,-65.9643 777,-64 706.8678,-40.6197 485.7555,-25.3945 397.204,-20.0923"/>
<polygon fill="#000000" stroke="#000000" points="397.2701,-16.5902 387.0813,-19.495 396.8577,-23.5781 397.2701,-16.5902"/>
<g id="a_edge1&#45;headlabel"><a xlink:href="dir_000018_000036.html" target="_top" xlink:title="1">
<text text-anchor="middle" x="401.0257" y="-11.4675" font-family="Helvetica,sans-Serif" font-size="10.00" fill="#000000">1</text>
</a>
</g>
</g>
<!-- dir_340d80f5c403622618e77b12e8a2b08e -->
<g id="node4" class="node">
<title>dir_340d80f5c403622618e77b12e8a2b08e</title>
<g id="a_node4"><a xlink:href="dir_340d80f5c403622618e77b12e8a2b08e.html" target="_top" xlink:title="helloworld">
<polygon fill="#ffffff" stroke="#000000" points="768,-108 708,-108 708,-72 768,-72 768,-108"/>
<text text-anchor="middle" x="738" y="-87.5" font-family="Helvetica,sans-Serif" font-size="10.00" fill="#000000">helloworld</text>
</a>
</g>
</g>
<!-- dir_f10601d333117ad3387ae2ca710b02a2 -->
<g id="node5" class="node">
<title>dir_f10601d333117ad3387ae2ca710b02a2</title>
<g id="a_node5"><a xlink:href="dir_f10601d333117ad3387ae2ca710b02a2.html" target="_top" xlink:title="hypersphere">
<polygon fill="#ffffff" stroke="#000000" points="690,-108 620,-108 620,-72 690,-72 690,-108"/>
<text text-anchor="middle" x="655" y="-87.5" font-family="Helvetica,sans-Serif" font-size="10.00" fill="#000000">hypersphere</text>
</a>
</g>
</g>
<!-- dir_f10601d333117ad3387ae2ca710b02a2&#45;&gt;dir_68267d1309a1af8e8297ef4c3efbcdba -->
<g id="edge4" class="edge">
<title>dir_f10601d333117ad3387ae2ca710b02a2&#45;&gt;dir_68267d1309a1af8e8297ef4c3efbcdba</title>
<path fill="none" stroke="#000000" d="M627.8089,-71.9447C622.406,-68.9354 616.6521,-66.1112 611,-64 538.1586,-36.7915 447.2138,-25.269 397.2291,-20.7133"/>
<polygon fill="#000000" stroke="#000000" points="397.4709,-17.2212 387.2058,-19.8437 396.8659,-24.195 397.4709,-17.2212"/>
<g id="a_edge4&#45;headlabel"><a xlink:href="dir_000020_000036.html" target="_top" xlink:title="1">
<text text-anchor="middle" x="401.2975" y="-12.2031" font-family="Helvetica,sans-Serif" font-size="10.00" fill="#000000">1</text>
</a>
</g>
</g>
<!-- dir_cd8ef039d5048938024b82241a5b3733 -->
<g id="node6" class="node">
<title>dir_cd8ef039d5048938024b82241a5b3733</title>
<g id="a_node6"><a xlink:href="dir_cd8ef039d5048938024b82241a5b3733.html" target="_top" xlink:title="laplace_aztec">
<polygon fill="#ffffff" stroke="#000000" points="601.5,-108 524.5,-108 524.5,-72 601.5,-72 601.5,-108"/>
<text text-anchor="middle" x="563" y="-87.5" font-family="Helvetica,sans-Serif" font-size="10.00" fill="#000000">laplace_aztec</text>
</a>
</g>
</g>
<!-- dir_cd8ef039d5048938024b82241a5b3733&#45;&gt;dir_68267d1309a1af8e8297ef4c3efbcdba -->
<g id="edge2" class="edge">
<title>dir_cd8ef039d5048938024b82241a5b3733&#45;&gt;dir_68267d1309a1af8e8297ef4c3efbcdba</title>
<path fill="none" stroke="#000000" d="M532.6353,-71.9474C527.1967,-69.0782 521.5061,-66.3021 516,-64 476.5085,-47.4883 429.0853,-34.4016 396.9721,-26.4736"/>
<polygon fill="#000000" stroke="#000000" points="397.6564,-23.0381 387.1132,-24.083 396.0067,-29.841 397.6564,-23.0381"/>
<g id="a_edge2&#45;headlabel"><a xlink:href="dir_000021_000036.html" target="_top" xlink:title="2">
<text text-anchor="middle" x="401.8188" y="-18.6258" font-family="Helvetica,sans-Serif" font-size="10.00" fill="#000000">2</text>
</a>
</g>
</g>
<!-- dir_07c1c62ff1691032888f90a78fe1cc62 -->
<g id="node7" class="node">
<title>dir_07c1c62ff1691032888f90a78fe1cc62</title>
<g id="a_node7"><a xlink:href="dir_07c1c62ff1691032888f90a78fe1cc62.html" target="_top" xlink:title="laplace_stratimikos">
<polygon fill="#ffffff" stroke="#000000" points="506.5,-108 405.5,-108 405.5,-72 506.5,-72 506.5,-108"/>
<text text-anchor="middle" x="456" y="-87.5" font-family="Helvetica,sans-Serif" font-size="10.00" fill="#000000">laplace_stratimikos</text>
</a>
</g>
</g>
<!-- dir_07c1c62ff1691032888f90a78fe1cc62&#45;&gt;dir_68267d1309a1af8e8297ef4c3efbcdba -->
<g id="edge8" class="edge">
<title>dir_07c1c62ff1691032888f90a78fe1cc62&#45;&gt;dir_68267d1309a1af8e8297ef4c3efbcdba</title>
<path fill="none" stroke="#000000" d="M431.7751,-71.8314C419.8372,-62.8779 405.2744,-51.9558 392.394,-42.2955"/>
<polygon fill="#000000" stroke="#000000" points="394.3171,-39.3629 384.2171,-36.1628 390.1171,-44.9629 394.3171,-39.3629"/>
<g id="a_edge8&#45;headlabel"><a xlink:href="dir_000022_000036.html" target="_top" xlink:title="2">
<text text-anchor="middle" x="398.8964" y="-36.7482" font-family="Helvetica,sans-Serif" font-size="10.00" fill="#000000">2</text>
</a>
</g>
</g>
<!-- dir_b0a45fbcdd62040c238a5226605d260b -->
<g id="node8" class="node">
<title>dir_b0a45fbcdd62040c238a5226605d260b</title>
<g id="a_node8"><a xlink:href="dir_b0a45fbcdd62040c238a5226605d260b.html" target="_top" xlink:title="mesh">
<polygon fill="#ffffff" stroke="#000000" points="387,-108 333,-108 333,-72 387,-72 387,-108"/>
<text text-anchor="middle" x="360" y="-87.5" font-family="Helvetica,sans-Serif" font-size="10.00" fill="#000000">mesh</text>
</a>
</g>
</g>
<!-- dir_b0a45fbcdd62040c238a5226605d260b&#45;&gt;dir_68267d1309a1af8e8297ef4c3efbcdba -->
<g id="edge9" class="edge">
<title>dir_b0a45fbcdd62040c238a5226605d260b&#45;&gt;dir_68267d1309a1af8e8297ef4c3efbcdba</title>
<path fill="none" stroke="#000000" d="M360,-71.8314C360,-64.131 360,-54.9743 360,-46.4166"/>
<polygon fill="#000000" stroke="#000000" points="363.5001,-46.4132 360,-36.4133 356.5001,-46.4133 363.5001,-46.4132"/>
<g id="a_edge9&#45;headlabel"><a xlink:href="dir_000023_000036.html" target="_top" xlink:title="1">
<text text-anchor="middle" x="366.3393" y="-47.5079" font-family="Helvetica,sans-Serif" font-size="10.00" fill="#000000">1</text>
</a>
</g>
</g>
<!-- dir_2b6fc26992dbf23d092889049cf53a41 -->
<g id="node9" class="node">
<title>dir_2b6fc26992dbf23d092889049cf53a41</title>
<g id="a_node9"><a xlink:href="dir_2b6fc26992dbf23d092889049cf53a41.html" target="_top" xlink:title="phasefield">
<polygon fill="#ffffff" stroke="#000000" points="314.5,-108 253.5,-108 253.5,-72 314.5,-72 314.5,-108"/>
<text text-anchor="middle" x="284" y="-87.5" font-family="Helvetica,sans-Serif" font-size="10.00" fill="#000000">phasefield</text>
</a>
</g>
</g>
<!-- dir_2b6fc26992dbf23d092889049cf53a41&#45;&gt;dir_68267d1309a1af8e8297ef4c3efbcdba -->
<g id="edge5" class="edge">
<title>dir_2b6fc26992dbf23d092889049cf53a41&#45;&gt;dir_68267d1309a1af8e8297ef4c3efbcdba</title>
<path fill="none" stroke="#000000" d="M303.178,-71.8314C312.3588,-63.1337 323.5006,-52.5783 333.4776,-43.1265"/>
<polygon fill="#000000" stroke="#000000" points="335.9757,-45.5811 340.8281,-36.1628 331.1615,-40.4995 335.9757,-45.5811"/>
<g id="a_edge5&#45;headlabel"><a xlink:href="dir_000024_000036.html" target="_top" xlink:title="1">
<text text-anchor="middle" x="335.3189" y="-47.6145" font-family="Helvetica,sans-Serif" font-size="10.00" fill="#000000">1</text>
</a>
</g>
</g>
<!-- dir_27c7937b3ae10dbbde05069b03f9259f -->
<g id="node10" class="node">
<title>dir_27c7937b3ae10dbbde05069b03f9259f</title>
<g id="a_node10"><a xlink:href="dir_27c7937b3ae10dbbde05069b03f9259f.html" target="_top" xlink:title="pnpoly">
<polygon fill="#ffffff" stroke="#000000" points="235,-108 181,-108 181,-72 235,-72 235,-108"/>
<text text-anchor="middle" x="208" y="-87.5" font-family="Helvetica,sans-Serif" font-size="10.00" fill="#000000">pnpoly</text>
</a>
</g>
</g>
<!-- dir_27c7937b3ae10dbbde05069b03f9259f&#45;&gt;dir_68267d1309a1af8e8297ef4c3efbcdba -->
<g id="edge6" class="edge">
<title>dir_27c7937b3ae10dbbde05069b03f9259f&#45;&gt;dir_68267d1309a1af8e8297ef4c3efbcdba</title>
<path fill="none" stroke="#000000" d="M232.1671,-71.8313C236.3432,-69.0394 240.7202,-66.3188 245,-64 270.0336,-50.4369 299.9352,-38.5985 322.9727,-30.3288"/>
<polygon fill="#000000" stroke="#000000" points="324.4423,-33.522 332.7111,-26.898 322.1163,-26.9198 324.4423,-33.522"/>
<g id="a_edge6&#45;headlabel"><a xlink:href="dir_000035_000036.html" target="_top" xlink:title="1">
<text text-anchor="middle" x="321.9953" y="-34.8943" font-family="Helvetica,sans-Serif" font-size="10.00" fill="#000000">1</text>
</a>
</g>
</g>
<!-- dir_64d155d6b5d549ae817a8627a97bf992 -->
<g id="node11" class="node">
<title>dir_64d155d6b5d549ae817a8627a97bf992</title>
<g id="a_node11"><a xlink:href="dir_64d155d6b5d549ae817a8627a97bf992.html" target="_top" xlink:title="rubberblock">
<polygon fill="#ffffff" stroke="#000000" points="162.5,-108 95.5,-108 95.5,-72 162.5,-72 162.5,-108"/>
<text text-anchor="middle" x="129" y="-87.5" font-family="Helvetica,sans-Serif" font-size="10.00" fill="#000000">rubberblock</text>
</a>
</g>
</g>
<!-- dir_64d155d6b5d549ae817a8627a97bf992&#45;&gt;dir_68267d1309a1af8e8297ef4c3efbcdba -->
<g id="edge3" class="edge">
<title>dir_64d155d6b5d549ae817a8627a97bf992&#45;&gt;dir_68267d1309a1af8e8297ef4c3efbcdba</title>
<path fill="none" stroke="#000000" d="M156.106,-71.9275C161.2432,-68.9925 166.6788,-66.1991 172,-64 222.1004,-43.2947 283.7193,-30.4173 322.441,-23.7247"/>
<polygon fill="#000000" stroke="#000000" points="323.4434,-27.1056 332.7267,-21.9997 322.2855,-20.202 323.4434,-27.1056"/>
<g id="a_edge3&#45;headlabel"><a xlink:href="dir_000025_000036.html" target="_top" xlink:title="3">
<text text-anchor="middle" x="320.3679" y="-28.0002" font-family="Helvetica,sans-Serif" font-size="10.00" fill="#000000">3</text>
</a>
</g>
</g>
<!-- dir_ae28b799a51708cf0b4582bd24c82773 -->
<g id="node12" class="node">
<title>dir_ae28b799a51708cf0b4582bd24c82773</title>
<g id="a_node12"><a xlink:href="dir_ae28b799a51708cf0b4582bd24c82773.html" target="_top" xlink:title="shinozuka">
<polygon fill="#ffffff" stroke="#000000" points="77.5,-108 16.5,-108 16.5,-72 77.5,-72 77.5,-108"/>
<text text-anchor="middle" x="47" y="-87.5" font-family="Helvetica,sans-Serif" font-size="10.00" fill="#000000">shinozuka</text>
</a>
</g>
</g>
<!-- dir_ae28b799a51708cf0b4582bd24c82773&#45;&gt;dir_68267d1309a1af8e8297ef4c3efbcdba -->
<g id="edge7" class="edge">
<title>dir_ae28b799a51708cf0b4582bd24c82773&#45;&gt;dir_68267d1309a1af8e8297ef4c3efbcdba</title>
<path fill="none" stroke="#000000" d="M71.5423,-71.8381C76.4703,-68.8386 81.7524,-66.0453 87,-64 167.1887,-32.7452 268.7642,-22.7081 322.5757,-19.4981"/>
<polygon fill="#000000" stroke="#000000" points="322.8878,-22.9863 332.6807,-18.9429 322.5037,-15.9969 322.8878,-22.9863"/>
<g id="a_edge7&#45;headlabel"><a xlink:href="dir_000026_000036.html" target="_top" xlink:title="1">
<text text-anchor="middle" x="319.4543" y="-23.5184" font-family="Helvetica,sans-Serif" font-size="10.00" fill="#000000">1</text>
</a>
</g>
</g>
</g>
</svg>
