<?xml version="1.0" encoding="UTF-8" standalone="no"?>
<!DOCTYPE svg PUBLIC "-//W3C//DTD SVG 1.1//EN"
 "http://www.w3.org/Graphics/SVG/1.1/DTD/svg11.dtd">
<!-- Generated by graphviz version 2.40.1 (20161225.0304)
 -->
<!-- Title: nrl Pages: 1 -->
<!--zoomable 132 -->
<svg id="main" version="1.1" xmlns="http://www.w3.org/2000/svg" xmlns:xlink="http://www.w3.org/1999/xlink" xml:space="preserve" onload="init(evt)">
<style type="text/css"><![CDATA[
.edge:hover path { stroke: red; }
.edge:hover polygon { stroke: red; fill: red; }
]]></style>
<script type="text/javascript"><![CDATA[
var edges = document.getElementsByTagName('g');
if (edges && edges.length) {
  for (var i=0;i<edges.length;i++) {
    if (edges[i].id.substr(0,4)=='edge') {
      edges[i].setAttribute('class','edge');
    }
  }
}
]]></script>
        <defs>
                <circle id="rim" cx="0" cy="0" r="7"/>
                <circle id="rim2" cx="0" cy="0" r="3.5"/>
                <g id="zoomPlus">
                        <use xlink:href="#rim" fill="#404040">
                                <set attributeName="fill" to="#808080" begin="zoomplus.mouseover" end="zoomplus.mouseout"/>
                        </use>
                        <path d="M-4,0h8M0,-4v8" fill="none" stroke="white" stroke-width="1.5" pointer-events="none"/>
                </g>
                <g id="zoomMin">
                        <use xlink:href="#rim" fill="#404040">
                                <set attributeName="fill" to="#808080" begin="zoomminus.mouseover" end="zoomminus.mouseout"/>
                        </use>
                        <path d="M-4,0h8" fill="none" stroke="white" stroke-width="1.5" pointer-events="none"/>
                </g>
                <g id="dirArrow">
                        <path fill="none" stroke="white" stroke-width="1.5" d="M0,-3.0v7 M-2.5,-0.5L0,-3.0L2.5,-0.5"/>
                </g>
               <g id="resetDef">
                       <use xlink:href="#rim2" fill="#404040">
                               <set attributeName="fill" to="#808080" begin="reset.mouseover" end="reset.mouseout"/>
                       </use>
               </g>
        </defs>

<script type="text/javascript">
var viewWidth = 895;
var viewHeight = 132;
var sectionId = 'dynsection-0';
</script>
<script xlink:href="svgpan.js"/>
<svg id="graph" class="graph">
<g id="viewport">
<title>nrl</title>
<polygon fill="#ffffff" stroke="transparent" points="-4,4 -4,-128 891,-128 891,4 -4,4"/>
<g id="clust1" class="cluster">
<title>clusterdir_c7a8522d1517ff6e908be401e03740f7</title>
<g id="a_clust1"><a xlink:href="dir_c7a8522d1517ff6e908be401e03740f7.html" target="_top">
<polygon fill="#eeeeff" stroke="#000000" points="8,-64 8,-116 879,-116 879,-64 8,-64"/>
</a>
</g>
</g>
<!-- dir_c7a8522d1517ff6e908be401e03740f7 -->
<g id="node1" class="node">
<title>dir_c7a8522d1517ff6e908be401e03740f7</title>
<text text-anchor="middle" x="844" y="-87.5" font-family="Helvetica,sans-Serif" font-size="10.00" fill="#000000">nrl</text>
</g>
<!-- dir_c10906471c765d08aa90ef4659a61ae0 -->
<g id="node2" class="node">
<title>dir_c10906471c765d08aa90ef4659a61ae0</title>
<g id="a_node2"><a xlink:href="dir_c10906471c765d08aa90ef4659a61ae0.html" target="_top" xlink:title="importdata">
<polygon fill="#ffffff" stroke="#000000" points="799,-108 737,-108 737,-72 799,-72 799,-108"/>
<text text-anchor="middle" x="768" y="-87.5" font-family="Helvetica,sans-Serif" font-size="10.00" fill="#000000">importdata</text>
</a>
</g>
</g>
<!-- dir_68267d1309a1af8e8297ef4c3efbcdba -->
<g id="node9" class="node">
<title>dir_68267d1309a1af8e8297ef4c3efbcdba</title>
<g id="a_node9"><a xlink:href="dir_68267d1309a1af8e8297ef4c3efbcdba.html" target="_top" xlink:title="src">
<polygon fill="none" stroke="#000000" points="426,-36 372,-36 372,0 426,0 426,-36"/>
<text text-anchor="middle" x="399" y="-15.5" font-family="Helvetica,sans-Serif" font-size="10.00" fill="#000000">src</text>
</a>
</g>
</g>
<!-- dir_c10906471c765d08aa90ef4659a61ae0&#45;&gt;dir_68267d1309a1af8e8297ef4c3efbcdba -->
<g id="edge1" class="edge">
<title>dir_c10906471c765d08aa90ef4659a61ae0&#45;&gt;dir_68267d1309a1af8e8297ef4c3efbcdba</title>
<path fill="none" stroke="#000000" d="M743.9374,-71.9831C738.8825,-68.8933 733.4309,-66.0296 728,-64 675.2208,-44.2755 511.3521,-27.8633 436.7169,-21.1975"/>
<polygon fill="#000000" stroke="#000000" points="436.6453,-17.6777 426.3764,-20.2856 436.0303,-24.6507 436.6453,-17.6777"/>
<g id="a_edge1&#45;headlabel"><a xlink:href="dir_000028_000036.html" target="_top" xlink:title="2">
<text text-anchor="middle" x="440.4754" y="-12.6652" font-family="Helvetica,sans-Serif" font-size="10.00" fill="#000000">2</text>
</a>
</g>
</g>
<!-- dir_774c88b65af546d4cd4242c2af16a6a2 -->
<g id="node3" class="node">
<title>dir_774c88b65af546d4cd4242c2af16a6a2</title>
<g id="a_node3"><a xlink:href="dir_774c88b65af546d4cd4242c2af16a6a2.html" target="_top" xlink:title="linearpatchtest">
<polygon fill="#ffffff" stroke="#000000" points="719,-108 639,-108 639,-72 719,-72 719,-108"/>
<text text-anchor="middle" x="679" y="-87.5" font-family="Helvetica,sans-Serif" font-size="10.00" fill="#000000">linearpatchtest</text>
</a>
</g>
</g>
<!-- dir_774c88b65af546d4cd4242c2af16a6a2&#45;&gt;dir_68267d1309a1af8e8297ef4c3efbcdba -->
<g id="edge5" class="edge">
<title>dir_774c88b65af546d4cd4242c2af16a6a2&#45;&gt;dir_68267d1309a1af8e8297ef4c3efbcdba</title>
<path fill="none" stroke="#000000" d="M648.2511,-71.9509C642.3312,-68.9779 636.0782,-66.1651 630,-64 563.8867,-40.4495 482.5925,-27.801 436.1896,-22.0218"/>
<polygon fill="#000000" stroke="#000000" points="436.3517,-18.5161 426.0047,-20.7945 435.5141,-25.4658 436.3517,-18.5161"/>
<g id="a_edge5&#45;headlabel"><a xlink:href="dir_000029_000036.html" target="_top" xlink:title="3">
<text text-anchor="middle" x="440.2601" y="-13.6272" font-family="Helvetica,sans-Serif" font-size="10.00" fill="#000000">3</text>
</a>
</g>
</g>
<!-- dir_9bf4269564c624c0abec7bf448630468 -->
<g id="node4" class="node">
<title>dir_9bf4269564c624c0abec7bf448630468</title>
<g id="a_node4"><a xlink:href="dir_9bf4269564c624c0abec7bf448630468.html" target="_top" xlink:title="manufactured_solution">
<polygon fill="#ffffff" stroke="#000000" points="620.5,-108 505.5,-108 505.5,-72 620.5,-72 620.5,-108"/>
<text text-anchor="middle" x="563" y="-87.5" font-family="Helvetica,sans-Serif" font-size="10.00" fill="#000000">manufactured_solution</text>
</a>
</g>
</g>
<!-- dir_9bf4269564c624c0abec7bf448630468&#45;&gt;dir_68267d1309a1af8e8297ef4c3efbcdba -->
<g id="edge4" class="edge">
<title>dir_9bf4269564c624c0abec7bf448630468&#45;&gt;dir_68267d1309a1af8e8297ef4c3efbcdba</title>
<path fill="none" stroke="#000000" d="M521.6159,-71.8314C495.1957,-60.2323 461.2497,-45.3291 435.7762,-34.1457"/>
<polygon fill="#000000" stroke="#000000" points="437.0249,-30.8715 426.4615,-30.0563 434.2109,-37.281 437.0249,-30.8715"/>
<g id="a_edge4&#45;headlabel"><a xlink:href="dir_000030_000036.html" target="_top" xlink:title="4">
<text text-anchor="middle" x="441.4576" y="-27.2166" font-family="Helvetica,sans-Serif" font-size="10.00" fill="#000000">4</text>
</a>
</g>
</g>
<!-- dir_2d66b702df8a834ebec74201d860a7dc -->
<g id="node5" class="node">
<title>dir_2d66b702df8a834ebec74201d860a7dc</title>
<g id="a_node5"><a xlink:href="dir_2d66b702df8a834ebec74201d860a7dc.html" target="_top" xlink:title="random_generator_for_pca_likelihood">
<polygon fill="#ffffff" stroke="#000000" points="488,-108 310,-108 310,-72 488,-72 488,-108"/>
<text text-anchor="middle" x="399" y="-87.5" font-family="Helvetica,sans-Serif" font-size="10.00" fill="#000000">random_generator_for_pca_likelihood</text>
</a>
</g>
</g>
<!-- dir_2d66b702df8a834ebec74201d860a7dc&#45;&gt;dir_68267d1309a1af8e8297ef4c3efbcdba -->
<g id="edge6" class="edge">
<title>dir_2d66b702df8a834ebec74201d860a7dc&#45;&gt;dir_68267d1309a1af8e8297ef4c3efbcdba</title>
<path fill="none" stroke="#000000" d="M399,-71.8314C399,-64.131 399,-54.9743 399,-46.4166"/>
<polygon fill="#000000" stroke="#000000" points="402.5001,-46.4132 399,-36.4133 395.5001,-46.4133 402.5001,-46.4132"/>
<g id="a_edge6&#45;headlabel"><a xlink:href="dir_000031_000036.html" target="_top" xlink:title="1">
<text text-anchor="middle" x="405.3393" y="-47.5079" font-family="Helvetica,sans-Serif" font-size="10.00" fill="#000000">1</text>
</a>
</g>
</g>
<!-- dir_c0d9ea0003b680d765b564dc3a447f28 -->
<g id="node6" class="node">
<title>dir_c0d9ea0003b680d765b564dc3a447f28</title>
<g id="a_node6"><a xlink:href="dir_c0d9ea0003b680d765b564dc3a447f28.html" target="_top" xlink:title="randomfields">
<polygon fill="#ffffff" stroke="#000000" points="292,-108 220,-108 220,-72 292,-72 292,-108"/>
<text text-anchor="middle" x="256" y="-87.5" font-family="Helvetica,sans-Serif" font-size="10.00" fill="#000000">randomfields</text>
</a>
</g>
</g>
<!-- dir_c0d9ea0003b680d765b564dc3a447f28&#45;&gt;dir_68267d1309a1af8e8297ef4c3efbcdba -->
<g id="edge3" class="edge">
<title>dir_c0d9ea0003b680d765b564dc3a447f28&#45;&gt;dir_68267d1309a1af8e8297ef4c3efbcdba</title>
<path fill="none" stroke="#000000" d="M286.7928,-71.7475C291.515,-69.0827 296.3615,-66.423 301,-64 321.0025,-53.5512 343.8001,-42.7846 362.3706,-34.2969"/>
<polygon fill="#000000" stroke="#000000" points="364.0006,-37.4007 371.6593,-30.0799 361.1069,-31.0268 364.0006,-37.4007"/>
<g id="a_edge3&#45;headlabel"><a xlink:href="dir_000032_000036.html" target="_top" xlink:title="1">
<text text-anchor="middle" x="361.9013" y="-38.972" font-family="Helvetica,sans-Serif" font-size="10.00" fill="#000000">1</text>
</a>
</g>
</g>
<!-- dir_0913f0f28d3172d51c1e84b77cef5d0a -->
<g id="node7" class="node">
<title>dir_0913f0f28d3172d51c1e84b77cef5d0a</title>
<g id="a_node7"><a xlink:href="dir_0913f0f28d3172d51c1e84b77cef5d0a.html" target="_top" xlink:title="shinozuka_2d">
<polygon fill="#ffffff" stroke="#000000" points="201.5,-108 124.5,-108 124.5,-72 201.5,-72 201.5,-108"/>
<text text-anchor="middle" x="163" y="-87.5" font-family="Helvetica,sans-Serif" font-size="10.00" fill="#000000">shinozuka_2d</text>
</a>
</g>
</g>
<!-- dir_0913f0f28d3172d51c1e84b77cef5d0a&#45;&gt;dir_68267d1309a1af8e8297ef4c3efbcdba -->
<g id="edge2" class="edge">
<title>dir_0913f0f28d3172d51c1e84b77cef5d0a&#45;&gt;dir_68267d1309a1af8e8297ef4c3efbcdba</title>
<path fill="none" stroke="#000000" d="M193.69,-71.8801C199.3293,-68.9848 205.2526,-66.2173 211,-64 261.5771,-44.488 323.0718,-31.2999 361.6366,-24.2143"/>
<polygon fill="#000000" stroke="#000000" points="362.6526,-27.588 371.8776,-22.3774 361.4167,-20.6979 362.6526,-27.588"/>
<g id="a_edge2&#45;headlabel"><a xlink:href="dir_000033_000036.html" target="_top" xlink:title="1">
<text text-anchor="middle" x="359.6157" y="-28.5172" font-family="Helvetica,sans-Serif" font-size="10.00" fill="#000000">1</text>
</a>
</g>
</g>
<!-- dir_4426b2d1bba1657e8036fa438e7c1744 -->
<g id="node8" class="node">
<title>dir_4426b2d1bba1657e8036fa438e7c1744</title>
<g id="a_node8"><a xlink:href="dir_4426b2d1bba1657e8036fa438e7c1744.html" target="_top" xlink:title="testing_solutions">
<polygon fill="#ffffff" stroke="#000000" points="106,-108 16,-108 16,-72 106,-72 106,-108"/>
<text text-anchor="middle" x="61" y="-87.5" font-family="Helvetica,sans-Serif" font-size="10.00" fill="#000000">testing_solutions</text>
</a>
</g>
</g>
<!-- dir_4426b2d1bba1657e8036fa438e7c1744&#45;&gt;dir_68267d1309a1af8e8297ef4c3efbcdba -->
<g id="edge7" class="edge">
<title>dir_4426b2d1bba1657e8036fa438e7c1744&#45;&gt;dir_68267d1309a1af8e8297ef4c3efbcdba</title>
<path fill="none" stroke="#000000" d="M95.3235,-71.9779C102.0462,-68.9655 109.1417,-66.1318 116,-64 201.5602,-37.4052 306.7123,-25.4677 361.6055,-20.7236"/>
<polygon fill="#000000" stroke="#000000" points="362.2176,-24.1849 371.8933,-19.8685 361.6377,-17.209 362.2176,-24.1849"/>
<g id="a_edge7&#45;headlabel"><a xlink:href="dir_000034_000036.html" target="_top" xlink:title="1">
<text text-anchor="middle" x="358.8705" y="-24.8121" font-family="Helvetica,sans-Serif" font-size="10.00" fill="#000000">1</text>
</a>
</g>
</g>
</g>
</svg>
        <g id="navigator" transform="translate(0 0)" fill="#404254">
                <rect fill="#f2f5e9" fill-opacity="0.5" stroke="#606060" stroke-width=".5" x="0" y="0" width="60" height="60"/>
                <use id="zoomplus" xlink:href="#zoomPlus" x="17" y="9" onmousedown="handleZoom(evt,'in')"/>
                <use id="zoomminus" xlink:href="#zoomMin" x="42" y="9" onmousedown="handleZoom(evt,'out')"/>
                <use id="reset" xlink:href="#resetDef" x="30" y="36" onmousedown="handleReset()"/>
                <g id="arrowUp" xlink:href="#dirArrow" transform="translate(30 24)" onmousedown="handlePan(0,-1)">
                  <use xlink:href="#rim" fill="#404040">
                        <set attributeName="fill" to="#808080" begin="arrowUp.mouseover" end="arrowUp.mouseout"/>
                  </use>
                  <path fill="none" stroke="white" stroke-width="1.5" d="M0,-3.0v7 M-2.5,-0.5L0,-3.0L2.5,-0.5"/>
                </g>
                <g id="arrowRight" xlink:href="#dirArrow" transform="rotate(90) translate(36 -43)" onmousedown="handlePan(1,0)">
                  <use xlink:href="#rim" fill="#404040">
                        <set attributeName="fill" to="#808080" begin="arrowRight.mouseover" end="arrowRight.mouseout"/>
                  </use>
                  <path fill="none" stroke="white" stroke-width="1.5" d="M0,-3.0v7 M-2.5,-0.5L0,-3.0L2.5,-0.5"/>
                </g>
                <g id="arrowDown" xlink:href="#dirArrow" transform="rotate(180) translate(-30 -48)" onmousedown="handlePan(0,1)">
                  <use xlink:href="#rim" fill="#404040">
                        <set attributeName="fill" to="#808080" begin="arrowDown.mouseover" end="arrowDown.mouseout"/>
                  </use>
                  <path fill="none" stroke="white" stroke-width="1.5" d="M0,-3.0v7 M-2.5,-0.5L0,-3.0L2.5,-0.5"/>
                </g>
                <g id="arrowLeft" xlink:href="#dirArrow" transform="rotate(270) translate(-36 17)" onmousedown="handlePan(-1,0)">
                  <use xlink:href="#rim" fill="#404040">
                        <set attributeName="fill" to="#808080" begin="arrowLeft.mouseover" end="arrowLeft.mouseout"/>
                  </use>
                  <path fill="none" stroke="white" stroke-width="1.5" d="M0,-3.0v7 M-2.5,-0.5L0,-3.0L2.5,-0.5"/>
                </g>
        </g>
        <svg viewBox="0 0 15 15" width="100%" height="30px" preserveAspectRatio="xMaxYMin meet">
         <g id="arrow_out" transform="scale(0.3 0.3)">
          <a xlink:href="dir_c7a8522d1517ff6e908be401e03740f7_dep_org.svg" target="_base">
           <rect id="button" ry="5" rx="5" y="6" x="6" height="38" width="38"
                fill="#f2f5e9" fill-opacity="0.5" stroke="#606060" stroke-width="1.0"/>
           <path id="arrow"
             d="M 11.500037,31.436501 C 11.940474,20.09759 22.043105,11.32322 32.158766,21.979434 L 37.068811,17.246167 C 37.068811,17.246167 37.088388,32 37.088388,32 L 22.160133,31.978069 C 22.160133,31.978069 26.997745,27.140456 26.997745,27.140456 C 18.528582,18.264221 13.291696,25.230495 11.500037,31.436501 z"
             style="fill:#404040;"/>
          </a>
         </g>
        </svg>
</svg>
