<?xml version="1.0" encoding="UTF-8" standalone="no"?>
<!DOCTYPE svg PUBLIC "-//W3C//DTD SVG 1.1//EN"
 "http://www.w3.org/Graphics/SVG/1.1/DTD/svg11.dtd">
<!-- Generated by graphviz version 2.40.1 (20161225.0304)
 -->
<!-- Title: cee530 Pages: 1 -->
<svg width="358pt" height="132pt"
 viewBox="0.00 0.00 358.00 132.00" xmlns="http://www.w3.org/2000/svg" xmlns:xlink="http://www.w3.org/1999/xlink">
<g id="graph0" class="graph" transform="scale(1 1) rotate(0) translate(4 128)">
<title>cee530</title>
<polygon fill="#ffffff" stroke="transparent" points="-4,4 -4,-128 354,-128 354,4 -4,4"/>
<g id="clust1" class="cluster">
<title>clusterdir_7629948f1edcf328469dc8b2f3a59e08</title>
<g id="a_clust1"><a xlink:href="dir_7629948f1edcf328469dc8b2f3a59e08.html" target="_top">
<polygon fill="#eeeeff" stroke="#000000" points="8,-64 8,-116 342,-116 342,-64 8,-64"/>
</a>
</g>
</g>
<!-- dir_7629948f1edcf328469dc8b2f3a59e08 -->
<g id="node1" class="node">
<title>dir_7629948f1edcf328469dc8b2f3a59e08</title>
<text text-anchor="middle" x="307" y="-87.5" font-family="Helvetica,sans-Serif" font-size="10.00" fill="#000000">cee530</text>
</g>
<!-- dir_4bfb8e2eec3da9bdf0cd97fa922de6bd -->
<g id="node2" class="node">
<title>dir_4bfb8e2eec3da9bdf0cd97fa922de6bd</title>
<g id="a_node2"><a xlink:href="dir_4bfb8e2eec3da9bdf0cd97fa922de6bd.html" target="_top" xlink:title="linearpatchtest">
<polygon fill="#ffffff" stroke="#000000" points="262,-108 182,-108 182,-72 262,-72 262,-108"/>
<text text-anchor="middle" x="222" y="-87.5" font-family="Helvetica,sans-Serif" font-size="10.00" fill="#000000">linearpatchtest</text>
</a>
</g>
</g>
<!-- dir_68267d1309a1af8e8297ef4c3efbcdba -->
<g id="node5" class="node">
<title>dir_68267d1309a1af8e8297ef4c3efbcdba</title>
<g id="a_node5"><a xlink:href="dir_68267d1309a1af8e8297ef4c3efbcdba.html" target="_top" xlink:title="src">
<polygon fill="none" stroke="#000000" points="153,-36 99,-36 99,0 153,0 153,-36"/>
<text text-anchor="middle" x="126" y="-15.5" font-family="Helvetica,sans-Serif" font-size="10.00" fill="#000000">src</text>
</a>
</g>
</g>
<!-- dir_4bfb8e2eec3da9bdf0cd97fa922de6bd&#45;&gt;dir_68267d1309a1af8e8297ef4c3efbcdba -->
<g id="edge3" class="edge">
<title>dir_4bfb8e2eec3da9bdf0cd97fa922de6bd&#45;&gt;dir_68267d1309a1af8e8297ef4c3efbcdba</title>
<path fill="none" stroke="#000000" d="M197.7751,-71.8314C185.8372,-62.8779 171.2744,-51.9558 158.394,-42.2955"/>
<polygon fill="#000000" stroke="#000000" points="160.3171,-39.3629 150.2171,-36.1628 156.1171,-44.9629 160.3171,-39.3629"/>
<g id="a_edge3&#45;headlabel"><a xlink:href="dir_000013_000035.html" target="_top" xlink:title="1">
<text text-anchor="middle" x="164.8964" y="-36.7482" font-family="Helvetica,sans-Serif" font-size="10.00" fill="#000000">1</text>
</a>
</g>
</g>
<!-- dir_bd2758cd5d5936f7b17768f0eeefeafd -->
<g id="node3" class="node">
<title>dir_bd2758cd5d5936f7b17768f0eeefeafd</title>
<g id="a_node3"><a xlink:href="dir_bd2758cd5d5936f7b17768f0eeefeafd.html" target="_top" xlink:title="manufactured">
<polygon fill="#ffffff" stroke="#000000" points="164,-108 88,-108 88,-72 164,-72 164,-108"/>
<text text-anchor="middle" x="126" y="-87.5" font-family="Helvetica,sans-Serif" font-size="10.00" fill="#000000">manufactured</text>
</a>
</g>
</g>
<!-- dir_bd2758cd5d5936f7b17768f0eeefeafd&#45;&gt;dir_68267d1309a1af8e8297ef4c3efbcdba -->
<g id="edge2" class="edge">
<title>dir_bd2758cd5d5936f7b17768f0eeefeafd&#45;&gt;dir_68267d1309a1af8e8297ef4c3efbcdba</title>
<path fill="none" stroke="#000000" d="M126,-71.8314C126,-64.131 126,-54.9743 126,-46.4166"/>
<polygon fill="#000000" stroke="#000000" points="129.5001,-46.4132 126,-36.4133 122.5001,-46.4133 129.5001,-46.4132"/>
<g id="a_edge2&#45;headlabel"><a xlink:href="dir_000014_000035.html" target="_top" xlink:title="2">
<text text-anchor="middle" x="132.3393" y="-47.5079" font-family="Helvetica,sans-Serif" font-size="10.00" fill="#000000">2</text>
</a>
</g>
</g>
<!-- dir_615ee0cc16b20d6e6683fc855e0036c9 -->
<g id="node4" class="node">
<title>dir_615ee0cc16b20d6e6683fc855e0036c9</title>
<g id="a_node4"><a xlink:href="dir_615ee0cc16b20d6e6683fc855e0036c9.html" target="_top" xlink:title="sbvp">
<polygon fill="#ffffff" stroke="#000000" points="70,-108 16,-108 16,-72 70,-72 70,-108"/>
<text text-anchor="middle" x="43" y="-87.5" font-family="Helvetica,sans-Serif" font-size="10.00" fill="#000000">sbvp</text>
</a>
</g>
</g>
<!-- dir_615ee0cc16b20d6e6683fc855e0036c9&#45;&gt;dir_68267d1309a1af8e8297ef4c3efbcdba -->
<g id="edge1" class="edge">
<title>dir_615ee0cc16b20d6e6683fc855e0036c9&#45;&gt;dir_68267d1309a1af8e8297ef4c3efbcdba</title>
<path fill="none" stroke="#000000" d="M63.9444,-71.8314C74.0691,-63.0485 86.3777,-52.3712 97.3548,-42.8489"/>
<polygon fill="#000000" stroke="#000000" points="99.8019,-45.3595 105.0623,-36.1628 95.2149,-40.0718 99.8019,-45.3595"/>
<g id="a_edge1&#45;headlabel"><a xlink:href="dir_000015_000035.html" target="_top" xlink:title="3">
<text text-anchor="middle" x="98.9471" y="-47.3597" font-family="Helvetica,sans-Serif" font-size="10.00" fill="#000000">3</text>
</a>
</g>
</g>
</g>
</svg>
