<?xml version="1.0" encoding="UTF-8" standalone="no"?>
<!DOCTYPE svg PUBLIC "-//W3C//DTD SVG 1.1//EN"
 "http://www.w3.org/Graphics/SVG/1.1/DTD/svg11.dtd">
<!-- Generated by graphviz version 2.40.1 (20161225.0304)
 -->
<!-- Title: Graphical Class Hierarchy Pages: 1 -->
<svg width="778pt" height="438pt"
 viewBox="0.00 0.00 778.00 437.50" xmlns="http://www.w3.org/2000/svg" xmlns:xlink="http://www.w3.org/1999/xlink">
<g id="graph0" class="graph" transform="scale(1 1) rotate(0) translate(4 433.5)">
<title>Graphical Class Hierarchy</title>
<polygon fill="#ffffff" stroke="transparent" points="-4,4 -4,-433.5 774,-433.5 774,4 -4,4"/>
<!-- Node0 -->
<g id="node1" class="node">
<title>Node0</title>
<g id="a_node1"><a xlink:href="d2/d97/class_base_class_f_e_m.html" target="_top" xlink:title="BaseClassFEM">
<polygon fill="#ffffff" stroke="#000000" points="0,-132.5 0,-151.5 86,-151.5 86,-132.5 0,-132.5"/>
<text text-anchor="middle" x="43" y="-139.5" font-family="Helvetica,sans-Serif" font-size="10.00" fill="#000000">BaseClassFEM</text>
</a>
</g>
</g>
<!-- Node1 -->
<g id="node2" class="node">
<title>Node1</title>
<g id="a_node2"><a xlink:href="d8/dc2/class_finite___element___problem.html" target="_top" xlink:title="Finite_Element_Problem">
<polygon fill="#ffffff" stroke="#000000" points="122,-154.5 122,-173.5 245,-173.5 245,-154.5 122,-154.5"/>
<text text-anchor="middle" x="183.5" y="-161.5" font-family="Helvetica,sans-Serif" font-size="10.00" fill="#000000">Finite_Element_Problem</text>
</a>
</g>
</g>
<!-- Node0&#45;&gt;Node1 -->
<g id="edge1" class="edge">
<title>Node0&#45;&gt;Node1</title>
<path fill="none" stroke="#191970" d="M96.2662,-150.3406C104.9276,-151.6968 113.9553,-153.1104 122.7787,-154.492"/>
<polygon fill="#191970" stroke="#191970" points="96.7222,-146.8694 86.3011,-148.7802 95.6392,-153.7852 96.7222,-146.8694"/>
</g>
<!-- Node14 -->
<g id="node15" class="node">
<title>Node14</title>
<g id="a_node15"><a xlink:href="d3/d9f/class_linear___finite___element___problem.html" target="_top" xlink:title="Linear_Finite_Element\l_Problem">
<polygon fill="#ffffff" stroke="#000000" points="127,-105 127,-135 240,-135 240,-105 127,-105"/>
<text text-anchor="start" x="135" y="-123" font-family="Helvetica,sans-Serif" font-size="10.00" fill="#000000">Linear_Finite_Element</text>
<text text-anchor="middle" x="183.5" y="-112" font-family="Helvetica,sans-Serif" font-size="10.00" fill="#000000">_Problem</text>
</a>
</g>
</g>
<!-- Node0&#45;&gt;Node14 -->
<g id="edge14" class="edge">
<title>Node0&#45;&gt;Node14</title>
<path fill="none" stroke="#191970" d="M96.4618,-133.6288C106.4126,-132.0706 116.8407,-130.4378 126.8824,-128.8654"/>
<polygon fill="#191970" stroke="#191970" points="95.6392,-130.2148 86.3011,-135.2198 96.7222,-137.1306 95.6392,-130.2148"/>
</g>
<!-- Node2 -->
<g id="node3" class="node">
<title>Node2</title>
<g id="a_node3"><a xlink:href="dc/d5a/classhyperelasticity.html" target="_top" xlink:title="hyperelasticity">
<polygon fill="#ffffff" stroke="#000000" points="291.5,-154.5 291.5,-173.5 371.5,-173.5 371.5,-154.5 291.5,-154.5"/>
<text text-anchor="middle" x="331.5" y="-161.5" font-family="Helvetica,sans-Serif" font-size="10.00" fill="#000000">hyperelasticity</text>
</a>
</g>
</g>
<!-- Node1&#45;&gt;Node2 -->
<g id="edge2" class="edge">
<title>Node1&#45;&gt;Node2</title>
<path fill="none" stroke="#191970" d="M255.6714,-164C267.944,-164 280.2838,-164 291.3393,-164"/>
<polygon fill="#191970" stroke="#191970" points="255.4078,-160.5001 245.4078,-164 255.4078,-167.5001 255.4078,-160.5001"/>
</g>
<!-- Node3 -->
<g id="node4" class="node">
<title>Node3</title>
<g id="a_node4"><a xlink:href="d1/d5c/classcompressible_hyperelasticity.html" target="_top" xlink:title="compressibleHyperelasticity">
<polygon fill="#ffffff" stroke="#000000" points="435,-303.5 435,-322.5 575,-322.5 575,-303.5 435,-303.5"/>
<text text-anchor="middle" x="505" y="-310.5" font-family="Helvetica,sans-Serif" font-size="10.00" fill="#000000">compressibleHyperelasticity</text>
</a>
</g>
</g>
<!-- Node2&#45;&gt;Node3 -->
<g id="edge3" class="edge">
<title>Node2&#45;&gt;Node3</title>
<path fill="none" stroke="#191970" d="M350.4763,-180.2967C386.6949,-211.4008 464.6599,-278.3564 493.7509,-303.3394"/>
<polygon fill="#191970" stroke="#191970" points="352.4839,-177.4072 342.6171,-173.5473 347.9232,-182.7177 352.4839,-177.4072"/>
</g>
<!-- Node9 -->
<g id="node10" class="node">
<title>Node9</title>
<g id="a_node10"><a xlink:href="d0/d85/classnearly_incompressible_hyperelasticity.html" target="_top" xlink:title="nearlyIncompressibleHyperelasticity">
<polygon fill="#ffffff" stroke="#000000" points="418,-153.5 418,-172.5 592,-172.5 592,-153.5 418,-153.5"/>
<text text-anchor="middle" x="505" y="-160.5" font-family="Helvetica,sans-Serif" font-size="10.00" fill="#000000">nearlyIncompressibleHyperelasticity</text>
</a>
</g>
</g>
<!-- Node2&#45;&gt;Node9 -->
<g id="edge9" class="edge">
<title>Node2&#45;&gt;Node9</title>
<path fill="none" stroke="#191970" d="M381.7935,-163.7101C393.0791,-163.6451 405.371,-163.5742 417.6782,-163.5033"/>
<polygon fill="#191970" stroke="#191970" points="381.7201,-160.2104 371.7405,-163.7681 381.7605,-167.2103 381.7201,-160.2104"/>
</g>
<!-- Node4 -->
<g id="node5" class="node">
<title>Node4</title>
<g id="a_node5"><a xlink:href="df/d4f/classcompressible_hyperelasticity__linear_patch_test.html" target="_top" xlink:title="compressibleHyperelasticity\l_linearPatchTest">
<polygon fill="#ffffff" stroke="#000000" points="629,-399 629,-429 769,-429 769,-399 629,-399"/>
<text text-anchor="start" x="637" y="-417" font-family="Helvetica,sans-Serif" font-size="10.00" fill="#000000">compressibleHyperelasticity</text>
<text text-anchor="middle" x="699" y="-406" font-family="Helvetica,sans-Serif" font-size="10.00" fill="#000000">_linearPatchTest</text>
</a>
</g>
</g>
<!-- Node3&#45;&gt;Node4 -->
<g id="edge4" class="edge">
<title>Node3&#45;&gt;Node4</title>
<path fill="none" stroke="#191970" d="M526.8302,-328.498C550.8057,-345.0322 590.8507,-371.2372 628,-389 635.5455,-392.6078 643.7557,-395.9742 651.8267,-398.9945"/>
<polygon fill="#191970" stroke="#191970" points="528.6736,-325.5167 518.4677,-322.6725 524.6723,-331.2604 528.6736,-325.5167"/>
</g>
<!-- Node5 -->
<g id="node6" class="node">
<title>Node5</title>
<g id="a_node6"><a xlink:href="d1/dbe/classmanufactured_solution.html" target="_top" xlink:title="manufacturedSolution">
<polygon fill="#ffffff" stroke="#000000" points="643.5,-360.5 643.5,-379.5 754.5,-379.5 754.5,-360.5 643.5,-360.5"/>
<text text-anchor="middle" x="699" y="-367.5" font-family="Helvetica,sans-Serif" font-size="10.00" fill="#000000">manufacturedSolution</text>
</a>
</g>
</g>
<!-- Node3&#45;&gt;Node5 -->
<g id="edge5" class="edge">
<title>Node3&#45;&gt;Node5</title>
<path fill="none" stroke="#191970" d="M544.5609,-325.6425C568.6183,-333.2255 600.0005,-342.9316 628,-351 639.0351,-354.1799 651.0865,-357.4722 662.0756,-360.405"/>
<polygon fill="#191970" stroke="#191970" points="545.3203,-322.2118 534.7303,-322.5335 543.2095,-328.886 545.3203,-322.2118"/>
</g>
<!-- Node6 -->
<g id="node7" class="node">
<title>Node6</title>
<g id="a_node7"><a xlink:href="dd/d20/classrubberblock.html" target="_top" xlink:title="rubberblock">
<polygon fill="#ffffff" stroke="#000000" points="665.5,-322.5 665.5,-341.5 732.5,-341.5 732.5,-322.5 665.5,-322.5"/>
<text text-anchor="middle" x="699" y="-329.5" font-family="Helvetica,sans-Serif" font-size="10.00" fill="#000000">rubberblock</text>
</a>
</g>
</g>
<!-- Node3&#45;&gt;Node6 -->
<g id="edge6" class="edge">
<title>Node3&#45;&gt;Node6</title>
<path fill="none" stroke="#191970" d="M585.2758,-320.8621C613.349,-323.6115 643.3492,-326.5497 665.4845,-328.7176"/>
<polygon fill="#191970" stroke="#191970" points="585.332,-317.3509 575.0385,-319.8594 584.6497,-324.3176 585.332,-317.3509"/>
</g>
<!-- Node7 -->
<g id="node8" class="node">
<title>Node7</title>
<g id="a_node8"><a xlink:href="de/dd1/class_t_i_mooney.html" target="_top" xlink:title="TIMooney">
<polygon fill="#ffffff" stroke="#000000" points="669,-284.5 669,-303.5 729,-303.5 729,-284.5 669,-284.5"/>
<text text-anchor="middle" x="699" y="-291.5" font-family="Helvetica,sans-Serif" font-size="10.00" fill="#000000">TIMooney</text>
</a>
</g>
</g>
<!-- Node3&#45;&gt;Node7 -->
<g id="edge7" class="edge">
<title>Node3&#45;&gt;Node7</title>
<path fill="none" stroke="#191970" d="M585.363,-305.1294C614.8541,-302.2411 646.4601,-299.1457 668.8339,-296.9544"/>
<polygon fill="#191970" stroke="#191970" points="584.6497,-301.6824 575.0385,-306.1406 585.332,-308.6491 584.6497,-301.6824"/>
</g>
<!-- Node8 -->
<g id="node9" class="node">
<title>Node8</title>
<g id="a_node9"><a xlink:href="d1/dd7/class_t_i_mooney___random_field.html" target="_top" xlink:title="TIMooney_RandomField">
<polygon fill="#ffffff" stroke="#000000" points="637.5,-246.5 637.5,-265.5 760.5,-265.5 760.5,-246.5 637.5,-246.5"/>
<text text-anchor="middle" x="699" y="-253.5" font-family="Helvetica,sans-Serif" font-size="10.00" fill="#000000">TIMooney_RandomField</text>
</a>
</g>
</g>
<!-- Node3&#45;&gt;Node8 -->
<g id="edge8" class="edge">
<title>Node3&#45;&gt;Node8</title>
<path fill="none" stroke="#191970" d="M544.5609,-300.3575C568.6183,-292.7745 600.0005,-283.0684 628,-275 639.0351,-271.8201 651.0865,-268.5278 662.0756,-265.595"/>
<polygon fill="#191970" stroke="#191970" points="543.2095,-297.114 534.7303,-303.4665 545.3203,-303.7882 543.2095,-297.114"/>
</g>
<!-- Node10 -->
<g id="node11" class="node">
<title>Node10</title>
<g id="a_node11"><a xlink:href="da/d5f/class_dirichlet_inlet_outlet___polyconvex_h_g_o.html" target="_top" xlink:title="DirichletInletOutlet\l_PolyconvexHGO">
<polygon fill="#ffffff" stroke="#000000" points="650,-197 650,-227 748,-227 748,-197 650,-197"/>
<text text-anchor="start" x="658" y="-215" font-family="Helvetica,sans-Serif" font-size="10.00" fill="#000000">DirichletInletOutlet</text>
<text text-anchor="middle" x="699" y="-204" font-family="Helvetica,sans-Serif" font-size="10.00" fill="#000000">_PolyconvexHGO</text>
</a>
</g>
</g>
<!-- Node9&#45;&gt;Node10 -->
<g id="edge10" class="edge">
<title>Node9&#45;&gt;Node10</title>
<path fill="none" stroke="#191970" d="M552.9257,-175.105C582.4105,-182.5521 620.108,-192.0737 649.8213,-199.5786"/>
<polygon fill="#191970" stroke="#191970" points="553.4183,-171.6195 542.8657,-172.564 551.7041,-178.4064 553.4183,-171.6195"/>
</g>
<!-- Node11 -->
<g id="node12" class="node">
<title>Node11</title>
<g id="a_node12"><a xlink:href="d0/de4/class_dirichlet_strip_elongation___stochastic_polyconvex_h_g_o.html" target="_top" xlink:title="DirichletStripElongation\l_StochasticPolyconvexHGO">
<polygon fill="#ffffff" stroke="#000000" points="628,-148 628,-178 770,-178 770,-148 628,-148"/>
<text text-anchor="start" x="636" y="-166" font-family="Helvetica,sans-Serif" font-size="10.00" fill="#000000">DirichletStripElongation</text>
<text text-anchor="middle" x="699" y="-155" font-family="Helvetica,sans-Serif" font-size="10.00" fill="#000000">_StochasticPolyconvexHGO</text>
</a>
</g>
</g>
<!-- Node9&#45;&gt;Node11 -->
<g id="edge11" class="edge">
<title>Node9&#45;&gt;Node11</title>
<path fill="none" stroke="#191970" d="M602.215,-163C610.8709,-163 619.5246,-163 627.9002,-163"/>
<polygon fill="#191970" stroke="#191970" points="602.0692,-159.5001 592.0692,-163 602.0692,-166.5001 602.0692,-159.5001"/>
</g>
<!-- Node12 -->
<g id="node13" class="node">
<title>Node12</title>
<g id="a_node13"><a xlink:href="de/d4c/class_neumann_inner_surface___polyconvex_h_g_o.html" target="_top" xlink:title="NeumannInnerSurface\l_PolyconvexHGO">
<polygon fill="#ffffff" stroke="#000000" points="642,-99 642,-129 756,-129 756,-99 642,-99"/>
<text text-anchor="start" x="650" y="-117" font-family="Helvetica,sans-Serif" font-size="10.00" fill="#000000">NeumannInnerSurface</text>
<text text-anchor="middle" x="699" y="-106" font-family="Helvetica,sans-Serif" font-size="10.00" fill="#000000">_PolyconvexHGO</text>
</a>
</g>
</g>
<!-- Node9&#45;&gt;Node12 -->
<g id="edge12" class="edge">
<title>Node9&#45;&gt;Node12</title>
<path fill="none" stroke="#191970" d="M557.7668,-151.2146C569.081,-148.5912 580.9534,-145.7656 592,-143 609.3634,-138.6529 628.2324,-133.6371 645.2215,-129.012"/>
<polygon fill="#191970" stroke="#191970" points="556.963,-147.808 548.0025,-153.4613 558.5327,-154.6297 556.963,-147.808"/>
</g>
<!-- Node13 -->
<g id="node14" class="node">
<title>Node13</title>
<g id="a_node14"><a xlink:href="dd/d43/class_neumann_inner_surface___stochastic_polyconvex_h_g_o.html" target="_top" xlink:title="NeumannInnerSurface\l_StochasticPolyconvexHGO">
<polygon fill="#ffffff" stroke="#000000" points="628,-50 628,-80 770,-80 770,-50 628,-50"/>
<text text-anchor="start" x="636" y="-68" font-family="Helvetica,sans-Serif" font-size="10.00" fill="#000000">NeumannInnerSurface</text>
<text text-anchor="middle" x="699" y="-57" font-family="Helvetica,sans-Serif" font-size="10.00" fill="#000000">_StochasticPolyconvexHGO</text>
</a>
</g>
</g>
<!-- Node9&#45;&gt;Node13 -->
<g id="edge13" class="edge">
<title>Node9&#45;&gt;Node13</title>
<path fill="none" stroke="#191970" d="M580.1943,-149.6795C584.3311,-147.7432 588.3027,-145.5297 592,-143 615.5012,-126.9203 605.4408,-107.3766 628,-90 632.9694,-86.1722 638.5714,-82.9009 644.3941,-80.1121"/>
<polygon fill="#191970" stroke="#191970" points="578.8364,-146.4534 570.9166,-153.491 581.4965,-152.9283 578.8364,-146.4534"/>
</g>
<!-- Node15 -->
<g id="node16" class="node">
<title>Node15</title>
<g id="a_node16"><a xlink:href="d7/d76/classlaplace.html" target="_top" xlink:title="laplace">
<polygon fill="#ffffff" stroke="#000000" points="308,-113.5 308,-132.5 355,-132.5 355,-113.5 308,-113.5"/>
<text text-anchor="middle" x="331.5" y="-120.5" font-family="Helvetica,sans-Serif" font-size="10.00" fill="#000000">laplace</text>
</a>
</g>
</g>
<!-- Node14&#45;&gt;Node15 -->
<g id="edge15" class="edge">
<title>Node14&#45;&gt;Node15</title>
<path fill="none" stroke="#191970" d="M250.3185,-121.3544C270.9121,-121.7719 292.2546,-122.2045 307.8853,-122.5213"/>
<polygon fill="#191970" stroke="#191970" points="250.3663,-117.8548 240.2974,-121.1513 250.2244,-124.8533 250.3663,-117.8548"/>
</g>
<!-- Node16 -->
<g id="node17" class="node">
<title>Node16</title>
<g id="a_node17"><a xlink:href="d9/df7/class_linearized_elasticity.html" target="_top" xlink:title="LinearizedElasticity">
<polygon fill="#ffffff" stroke="#000000" points="281,-75.5 281,-94.5 382,-94.5 382,-75.5 281,-75.5"/>
<text text-anchor="middle" x="331.5" y="-82.5" font-family="Helvetica,sans-Serif" font-size="10.00" fill="#000000">LinearizedElasticity</text>
</a>
</g>
</g>
<!-- Node14&#45;&gt;Node16 -->
<g id="edge16" class="edge">
<title>Node14&#45;&gt;Node16</title>
<path fill="none" stroke="#191970" d="M250.3497,-104.1909C264.2769,-100.8974 278.5451,-97.5231 291.1561,-94.5408"/>
<polygon fill="#191970" stroke="#191970" points="249.2235,-100.8607 240.2974,-106.5682 250.8345,-107.6728 249.2235,-100.8607"/>
</g>
<!-- Node17 -->
<g id="node18" class="node">
<title>Node17</title>
<g id="a_node18"><a xlink:href="da/d18/class_a_s_m_e_s_b_v_p.html" target="_top" xlink:title="ASMESBVP">
<polygon fill="#ffffff" stroke="#000000" points="469,-114.5 469,-133.5 541,-133.5 541,-114.5 469,-114.5"/>
<text text-anchor="middle" x="505" y="-121.5" font-family="Helvetica,sans-Serif" font-size="10.00" fill="#000000">ASMESBVP</text>
</a>
</g>
</g>
<!-- Node16&#45;&gt;Node17 -->
<g id="edge17" class="edge">
<title>Node16&#45;&gt;Node17</title>
<path fill="none" stroke="#191970" d="M382.4435,-96.8878C394.12,-99.5823 406.4851,-102.4115 418,-105 434.743,-108.7637 453.323,-112.8356 468.9992,-116.2409"/>
<polygon fill="#191970" stroke="#191970" points="382.9297,-93.4079 372.3981,-94.5641 381.352,-100.2278 382.9297,-93.4079"/>
</g>
<!-- Node18 -->
<g id="node19" class="node">
<title>Node18</title>
<g id="a_node19"><a xlink:href="de/dcc/class_c_e_e_s_b_v_p.html" target="_top" xlink:title="CEESBVP">
<polygon fill="#ffffff" stroke="#000000" points="472.5,-76.5 472.5,-95.5 537.5,-95.5 537.5,-76.5 472.5,-76.5"/>
<text text-anchor="middle" x="505" y="-83.5" font-family="Helvetica,sans-Serif" font-size="10.00" fill="#000000">CEESBVP</text>
</a>
</g>
</g>
<!-- Node16&#45;&gt;Node18 -->
<g id="edge18" class="edge">
<title>Node16&#45;&gt;Node18</title>
<path fill="none" stroke="#191970" d="M392.2708,-85.3503C419.2132,-85.5056 449.8387,-85.6821 472.362,-85.8119"/>
<polygon fill="#191970" stroke="#191970" points="392.1698,-81.8497 382.1498,-85.2919 392.1294,-88.8496 392.1698,-81.8497"/>
</g>
<!-- Node19 -->
<g id="node20" class="node">
<title>Node19</title>
<g id="a_node20"><a xlink:href="d2/d69/classlinear_patch_test.html" target="_top" xlink:title="linearPatchTest">
<polygon fill="#ffffff" stroke="#000000" points="462.5,-38.5 462.5,-57.5 547.5,-57.5 547.5,-38.5 462.5,-38.5"/>
<text text-anchor="middle" x="505" y="-45.5" font-family="Helvetica,sans-Serif" font-size="10.00" fill="#000000">linearPatchTest</text>
</a>
</g>
</g>
<!-- Node16&#45;&gt;Node19 -->
<g id="edge19" class="edge">
<title>Node16&#45;&gt;Node19</title>
<path fill="none" stroke="#191970" d="M386.0889,-73.3586C410.6748,-68.1155 439.2755,-62.0162 462.2654,-57.1134"/>
<polygon fill="#191970" stroke="#191970" points="385.2306,-69.9628 376.1806,-75.4716 386.6907,-76.8089 385.2306,-69.9628"/>
</g>
<!-- Node20 -->
<g id="node21" class="node">
<title>Node20</title>
<g id="a_node21"><a xlink:href="d7/da3/classmanufactured.html" target="_top" xlink:title="manufactured">
<polygon fill="#ffffff" stroke="#000000" points="467,-.5 467,-19.5 543,-19.5 543,-.5 467,-.5"/>
<text text-anchor="middle" x="505" y="-7.5" font-family="Helvetica,sans-Serif" font-size="10.00" fill="#000000">manufactured</text>
</a>
</g>
</g>
<!-- Node16&#45;&gt;Node20 -->
<g id="edge20" class="edge">
<title>Node16&#45;&gt;Node20</title>
<path fill="none" stroke="#191970" d="M351.2985,-69.2077C368.1207,-56.546 393.3907,-39.2535 418,-29 433.4127,-22.5783 451.305,-18.1933 466.8417,-15.2695"/>
<polygon fill="#191970" stroke="#191970" points="349.1121,-66.4738 343.3198,-75.3451 353.3801,-72.0222 349.1121,-66.4738"/>
</g>
</g>
</svg>
