<?xml version="1.0" encoding="UTF-8" standalone="no"?>
<!DOCTYPE svg PUBLIC "-//W3C//DTD SVG 1.1//EN"
 "http://www.w3.org/Graphics/SVG/1.1/DTD/svg11.dtd">
<!-- Generated by graphviz version 2.40.1 (20161225.0304)
 -->
<!-- Title: src/readnrldata.hpp Pages: 1 -->
<svg width="630pt" height="212pt"
 viewBox="0.00 0.00 630.33 212.00" xmlns="http://www.w3.org/2000/svg" xmlns:xlink="http://www.w3.org/1999/xlink">
<g id="graph0" class="graph" transform="scale(1 1) rotate(0) translate(4 208)">
<title>src/readnrldata.hpp</title>
<polygon fill="#ffffff" stroke="transparent" points="-4,4 -4,-208 626.3271,-208 626.3271,4 -4,4"/>
<!-- Node10 -->
<g id="node1" class="node">
<title>Node10</title>
<polygon fill="#bfbfbf" stroke="#000000" points="151.165,-185.5 151.165,-203.5 253.3271,-203.5 253.3271,-185.5 151.165,-185.5"/>
<text text-anchor="middle" x="202.2461" y="-191.5" font-family="Helvetica,sans-Serif" font-size="10.00" fill="#000000">src/readnrldata.hpp</text>
</g>
<!-- Node11 -->
<g id="node2" class="node">
<title>Node11</title>
<g id="a_node2"><a xlink:href="../../d6/d9c/nrl_2importdata_2main_8cpp.html" target="_top" xlink:title="nrl/importdata/main.cpp">
<polygon fill="#ffffff" stroke="#000000" points="0,-70.5 0,-88.5 120.4922,-88.5 120.4922,-70.5 0,-70.5"/>
<text text-anchor="middle" x="60.2461" y="-76.5" font-family="Helvetica,sans-Serif" font-size="10.00" fill="#000000">nrl/importdata/main.cpp</text>
</a>
</g>
</g>
<!-- Node10&#45;&gt;Node11 -->
<g id="edge1" class="edge">
<title>Node10&#45;&gt;Node11</title>
<path fill="none" stroke="#191970" d="M177.4617,-180.0007C163.7014,-171.5593 146.5306,-160.3648 132.2461,-149 107.5022,-129.3137 81.5499,-102.4913 68.6138,-88.6296"/>
<polygon fill="#191970" stroke="#191970" points="175.9954,-183.2037 186.3658,-185.3731 179.6117,-177.2102 175.9954,-183.2037"/>
</g>
<!-- Node12 -->
<g id="node3" class="node">
<title>Node12</title>
<g id="a_node3"><a xlink:href="../../d5/d75/distributenrldata_8hpp.html" target="_top" xlink:title="src/distributenrldata.hpp">
<polygon fill="#ffffff" stroke="#000000" points="140.8843,-130.5 140.8843,-148.5 263.6079,-148.5 263.6079,-130.5 140.8843,-130.5"/>
<text text-anchor="middle" x="202.2461" y="-136.5" font-family="Helvetica,sans-Serif" font-size="10.00" fill="#000000">src/distributenrldata.hpp</text>
</a>
</g>
</g>
<!-- Node10&#45;&gt;Node12 -->
<g id="edge2" class="edge">
<title>Node10&#45;&gt;Node12</title>
<path fill="none" stroke="#191970" d="M202.2461,-175.383C202.2461,-166.3738 202.2461,-156.0373 202.2461,-148.7795"/>
<polygon fill="#191970" stroke="#191970" points="198.7462,-175.4178 202.2461,-185.4179 205.7462,-175.4179 198.7462,-175.4178"/>
</g>
<!-- Node18 -->
<g id="node9" class="node">
<title>Node18</title>
<g id="a_node9"><a xlink:href="../../de/d89/readnrldata_8cpp.html" target="_top" xlink:title="src/readnrldata.cpp">
<polygon fill="#ffffff" stroke="#000000" points="281.4458,-130.5 281.4458,-148.5 383.0464,-148.5 383.0464,-130.5 281.4458,-130.5"/>
<text text-anchor="middle" x="332.2461" y="-136.5" font-family="Helvetica,sans-Serif" font-size="10.00" fill="#000000">src/readnrldata.cpp</text>
</a>
</g>
</g>
<!-- Node10&#45;&gt;Node18 -->
<g id="edge9" class="edge">
<title>Node10&#45;&gt;Node18</title>
<path fill="none" stroke="#191970" d="M233.0602,-181.4633C256.992,-171.3383 289.5658,-157.5571 310.7473,-148.5956"/>
<polygon fill="#191970" stroke="#191970" points="231.5589,-178.298 223.7129,-185.4179 234.2864,-184.7448 231.5589,-178.298"/>
</g>
<!-- Node12&#45;&gt;Node11 -->
<g id="edge5" class="edge">
<title>Node12&#45;&gt;Node11</title>
<path fill="none" stroke="#191970" d="M171.2483,-126.4023C144.0933,-114.9284 105.35,-98.558 81.5505,-88.5019"/>
<polygon fill="#191970" stroke="#191970" points="170.1056,-129.7191 180.6794,-130.3873 172.8302,-123.2711 170.1056,-129.7191"/>
</g>
<!-- Node13 -->
<g id="node4" class="node">
<title>Node13</title>
<g id="a_node4"><a xlink:href="../../df/df6/forward_costfunction_8hpp.html" target="_top" xlink:title="nrl/forward_randomfield\l/forwardCostfunction.hpp">
<polygon fill="#ffffff" stroke="#000000" points="138.6602,-65.5 138.6602,-93.5 265.832,-93.5 265.832,-65.5 138.6602,-65.5"/>
<text text-anchor="start" x="146.6602" y="-81.5" font-family="Helvetica,sans-Serif" font-size="10.00" fill="#000000">nrl/forward_randomfield</text>
<text text-anchor="middle" x="202.2461" y="-71.5" font-family="Helvetica,sans-Serif" font-size="10.00" fill="#000000">/forwardCostfunction.hpp</text>
</a>
</g>
</g>
<!-- Node12&#45;&gt;Node13 -->
<g id="edge3" class="edge">
<title>Node12&#45;&gt;Node13</title>
<path fill="none" stroke="#191970" d="M202.2461,-120.1865C202.2461,-111.6283 202.2461,-101.7354 202.2461,-93.8477"/>
<polygon fill="#191970" stroke="#191970" points="198.7462,-120.3873 202.2461,-130.3873 205.7462,-120.3873 198.7462,-120.3873"/>
</g>
<!-- Node15 -->
<g id="node6" class="node">
<title>Node15</title>
<g id="a_node6"><a xlink:href="../../dd/dae/_random_search___deterministic_model_8hpp.html" target="_top" xlink:title="nrl/randomsearch_deterministicmodel\l/RandomSearch_DeterministicModel.hpp">
<polygon fill="#ffffff" stroke="#000000" points="284.0913,-65.5 284.0913,-93.5 482.4009,-93.5 482.4009,-65.5 284.0913,-65.5"/>
<text text-anchor="start" x="292.0913" y="-81.5" font-family="Helvetica,sans-Serif" font-size="10.00" fill="#000000">nrl/randomsearch_deterministicmodel</text>
<text text-anchor="middle" x="383.2461" y="-71.5" font-family="Helvetica,sans-Serif" font-size="10.00" fill="#000000">/RandomSearch_DeterministicModel.hpp</text>
</a>
</g>
</g>
<!-- Node12&#45;&gt;Node15 -->
<g id="edge6" class="edge">
<title>Node12&#45;&gt;Node15</title>
<path fill="none" stroke="#191970" d="M239.2645,-127.2287C268.7961,-117.4392 310.1761,-103.7221 341.0006,-93.504"/>
<polygon fill="#191970" stroke="#191970" points="238.1269,-123.9185 229.7361,-130.3873 240.3295,-130.5629 238.1269,-123.9185"/>
</g>
<!-- Node17 -->
<g id="node8" class="node">
<title>Node17</title>
<g id="a_node8"><a xlink:href="../../d0/da3/distributenrldata_8cpp.html" target="_top" xlink:title="src/distributenrldata.cpp">
<polygon fill="#ffffff" stroke="#000000" points="500.165,-70.5 500.165,-88.5 622.3271,-88.5 622.3271,-70.5 500.165,-70.5"/>
<text text-anchor="middle" x="561.2461" y="-76.5" font-family="Helvetica,sans-Serif" font-size="10.00" fill="#000000">src/distributenrldata.cpp</text>
</a>
</g>
</g>
<!-- Node12&#45;&gt;Node17 -->
<g id="edge8" class="edge">
<title>Node12&#45;&gt;Node17</title>
<path fill="none" stroke="#191970" d="M273.7373,-129.2222C332.3224,-120.565 417.321,-107.4678 491.2461,-94 500.2813,-92.3539 509.9421,-90.4479 519.1118,-88.5698"/>
<polygon fill="#191970" stroke="#191970" points="273.2254,-125.7597 263.842,-130.6793 274.2453,-132.685 273.2254,-125.7597"/>
</g>
<!-- Node14 -->
<g id="node5" class="node">
<title>Node14</title>
<g id="a_node5"><a xlink:href="../../db/de3/nrl_2forward__randomfield_2main_8cpp.html" target="_top" xlink:title="nrl/forward_randomfield\l/main.cpp">
<polygon fill="#ffffff" stroke="#000000" points="141.7217,-.5 141.7217,-28.5 262.7705,-28.5 262.7705,-.5 141.7217,-.5"/>
<text text-anchor="start" x="149.7217" y="-16.5" font-family="Helvetica,sans-Serif" font-size="10.00" fill="#000000">nrl/forward_randomfield</text>
<text text-anchor="middle" x="202.2461" y="-6.5" font-family="Helvetica,sans-Serif" font-size="10.00" fill="#000000">/main.cpp</text>
</a>
</g>
</g>
<!-- Node13&#45;&gt;Node14 -->
<g id="edge4" class="edge">
<title>Node13&#45;&gt;Node14</title>
<path fill="none" stroke="#191970" d="M202.2461,-55.1081C202.2461,-46.1539 202.2461,-36.3227 202.2461,-28.5765"/>
<polygon fill="#191970" stroke="#191970" points="198.7462,-55.3959 202.2461,-65.396 205.7462,-55.396 198.7462,-55.3959"/>
</g>
<!-- Node16 -->
<g id="node7" class="node">
<title>Node16</title>
<g id="a_node7"><a xlink:href="../../d5/d17/nrl_2randomsearch__deterministicmodel_2main_8cpp.html" target="_top" xlink:title="nrl/randomsearch_deterministicmodel\l/main.cpp">
<polygon fill="#ffffff" stroke="#000000" points="291.877,-.5 291.877,-28.5 474.6152,-28.5 474.6152,-.5 291.877,-.5"/>
<text text-anchor="start" x="299.877" y="-16.5" font-family="Helvetica,sans-Serif" font-size="10.00" fill="#000000">nrl/randomsearch_deterministicmodel</text>
<text text-anchor="middle" x="383.2461" y="-6.5" font-family="Helvetica,sans-Serif" font-size="10.00" fill="#000000">/main.cpp</text>
</a>
</g>
</g>
<!-- Node15&#45;&gt;Node16 -->
<g id="edge7" class="edge">
<title>Node15&#45;&gt;Node16</title>
<path fill="none" stroke="#191970" d="M383.2461,-55.1081C383.2461,-46.1539 383.2461,-36.3227 383.2461,-28.5765"/>
<polygon fill="#191970" stroke="#191970" points="379.7462,-55.3959 383.2461,-65.396 386.7462,-55.396 379.7462,-55.3959"/>
</g>
</g>
</svg>
