<?xml version="1.0" encoding="UTF-8" standalone="no"?>
<!DOCTYPE svg PUBLIC "-//W3C//DTD SVG 1.1//EN"
 "http://www.w3.org/Graphics/SVG/1.1/DTD/svg11.dtd">
<!-- Generated by graphviz version 2.40.1 (20161225.0304)
 -->
<!-- Title: src/readnrldata.hpp Pages: 1 -->
<svg width="783pt" height="212pt"
 viewBox="0.00 0.00 783.33 212.00" xmlns="http://www.w3.org/2000/svg" xmlns:xlink="http://www.w3.org/1999/xlink">
<g id="graph0" class="graph" transform="scale(1 1) rotate(0) translate(4 208)">
<title>src/readnrldata.hpp</title>
<polygon fill="#ffffff" stroke="transparent" points="-4,4 -4,-208 779.3271,-208 779.3271,4 -4,4"/>
<!-- Node10 -->
<g id="node1" class="node">
<title>Node10</title>
<polygon fill="#bfbfbf" stroke="#000000" points="225.165,-185.5 225.165,-203.5 327.3271,-203.5 327.3271,-185.5 225.165,-185.5"/>
<text text-anchor="middle" x="276.2461" y="-191.5" font-family="Helvetica,sans-Serif" font-size="10.00" fill="#000000">src/readnrldata.hpp</text>
</g>
<!-- Node11 -->
<g id="node2" class="node">
<title>Node11</title>
<g id="a_node2"><a xlink:href="../../d6/d9c/nrl_2importdata_2main_8cpp.html" target="_top" xlink:title="nrl/importdata/main.cpp">
<polygon fill="#ffffff" stroke="#000000" points="0,-70.5 0,-88.5 120.4922,-88.5 120.4922,-70.5 0,-70.5"/>
<text text-anchor="middle" x="60.2461" y="-76.5" font-family="Helvetica,sans-Serif" font-size="10.00" fill="#000000">nrl/importdata/main.cpp</text>
</a>
</g>
</g>
<!-- Node10&#45;&gt;Node11 -->
<g id="edge1" class="edge">
<title>Node10&#45;&gt;Node11</title>
<path fill="none" stroke="#191970" d="M250.2228,-180.645C205.4788,-156.823 115.146,-108.7291 77.4154,-88.6411"/>
<polygon fill="#191970" stroke="#191970" points="248.8252,-183.866 259.2969,-185.4761 252.1149,-177.6871 248.8252,-183.866"/>
</g>
<!-- Node12 -->
<g id="node3" class="node">
<title>Node12</title>
<g id="a_node3"><a xlink:href="../../d5/d75/distributenrldata_8hpp.html" target="_top" xlink:title="src/distributenrldata.hpp">
<polygon fill="#ffffff" stroke="#000000" points="214.8843,-130.5 214.8843,-148.5 337.6079,-148.5 337.6079,-130.5 214.8843,-130.5"/>
<text text-anchor="middle" x="276.2461" y="-136.5" font-family="Helvetica,sans-Serif" font-size="10.00" fill="#000000">src/distributenrldata.hpp</text>
</a>
</g>
</g>
<!-- Node10&#45;&gt;Node12 -->
<g id="edge2" class="edge">
<title>Node10&#45;&gt;Node12</title>
<path fill="none" stroke="#191970" d="M276.2461,-175.383C276.2461,-166.3738 276.2461,-156.0373 276.2461,-148.7795"/>
<polygon fill="#191970" stroke="#191970" points="272.7462,-175.4178 276.2461,-185.4179 279.7462,-175.4179 272.7462,-175.4178"/>
</g>
<!-- Node20 -->
<g id="node11" class="node">
<title>Node20</title>
<g id="a_node11"><a xlink:href="../../de/d89/readnrldata_8cpp.html" target="_top" xlink:title="src/readnrldata.cpp">
<polygon fill="#ffffff" stroke="#000000" points="355.4458,-130.5 355.4458,-148.5 457.0464,-148.5 457.0464,-130.5 355.4458,-130.5"/>
<text text-anchor="middle" x="406.2461" y="-136.5" font-family="Helvetica,sans-Serif" font-size="10.00" fill="#000000">src/readnrldata.cpp</text>
</a>
</g>
</g>
<!-- Node10&#45;&gt;Node20 -->
<g id="edge11" class="edge">
<title>Node10&#45;&gt;Node20</title>
<path fill="none" stroke="#191970" d="M307.0602,-181.4633C330.992,-171.3383 363.5658,-157.5571 384.7473,-148.5956"/>
<polygon fill="#191970" stroke="#191970" points="305.5589,-178.298 297.7129,-185.4179 308.2864,-184.7448 305.5589,-178.298"/>
</g>
<!-- Node12&#45;&gt;Node11 -->
<g id="edge5" class="edge">
<title>Node12&#45;&gt;Node11</title>
<path fill="none" stroke="#191970" d="M233.6387,-127.6646C192.2141,-116.1578 130.2044,-98.9329 92.6528,-88.5019"/>
<polygon fill="#191970" stroke="#191970" points="232.8684,-131.0831 243.4403,-130.3873 234.7419,-124.3385 232.8684,-131.0831"/>
</g>
<!-- Node13 -->
<g id="node4" class="node">
<title>Node13</title>
<g id="a_node4"><a xlink:href="../../df/df6/forward_costfunction_8hpp.html" target="_top" xlink:title="nrl/forward_randomfield\l/forwardCostfunction.hpp">
<polygon fill="#ffffff" stroke="#000000" points="138.6602,-65.5 138.6602,-93.5 265.832,-93.5 265.832,-65.5 138.6602,-65.5"/>
<text text-anchor="start" x="146.6602" y="-81.5" font-family="Helvetica,sans-Serif" font-size="10.00" fill="#000000">nrl/forward_randomfield</text>
<text text-anchor="middle" x="202.2461" y="-71.5" font-family="Helvetica,sans-Serif" font-size="10.00" fill="#000000">/forwardCostfunction.hpp</text>
</a>
</g>
</g>
<!-- Node12&#45;&gt;Node13 -->
<g id="edge3" class="edge">
<title>Node12&#45;&gt;Node13</title>
<path fill="none" stroke="#191970" d="M257.2124,-124.0673C245.6264,-114.6732 230.9367,-102.7627 219.6586,-93.6183"/>
<polygon fill="#191970" stroke="#191970" points="255.0352,-126.8079 265.0071,-130.3873 259.4438,-121.3706 255.0352,-126.8079"/>
</g>
<!-- Node15 -->
<g id="node6" class="node">
<title>Node15</title>
<g id="a_node6"><a xlink:href="../../dc/de4/manufactured_solution_8hpp.html" target="_top" xlink:title="nrl/manufactured_solution\l/manufacturedSolution.hpp">
<polygon fill="#ffffff" stroke="#000000" points="283.4829,-65.5 283.4829,-93.5 419.0093,-93.5 419.0093,-65.5 283.4829,-65.5"/>
<text text-anchor="start" x="291.4829" y="-81.5" font-family="Helvetica,sans-Serif" font-size="10.00" fill="#000000">nrl/manufactured_solution</text>
<text text-anchor="middle" x="351.2461" y="-71.5" font-family="Helvetica,sans-Serif" font-size="10.00" fill="#000000">/manufacturedSolution.hpp</text>
</a>
</g>
</g>
<!-- Node12&#45;&gt;Node15 -->
<g id="edge6" class="edge">
<title>Node12&#45;&gt;Node15</title>
<path fill="none" stroke="#191970" d="M295.537,-124.0673C307.2796,-114.6732 322.1678,-102.7627 333.5982,-93.6183"/>
<polygon fill="#191970" stroke="#191970" points="293.2592,-121.4073 287.637,-130.3873 297.6321,-126.8734 293.2592,-121.4073"/>
</g>
<!-- Node17 -->
<g id="node8" class="node">
<title>Node17</title>
<g id="a_node8"><a xlink:href="../../dd/dae/_random_search___deterministic_model_8hpp.html" target="_top" xlink:title="nrl/randomsearch_deterministicmodel\l/RandomSearch_DeterministicModel.hpp">
<polygon fill="#ffffff" stroke="#000000" points="437.0913,-65.5 437.0913,-93.5 635.4009,-93.5 635.4009,-65.5 437.0913,-65.5"/>
<text text-anchor="start" x="445.0913" y="-81.5" font-family="Helvetica,sans-Serif" font-size="10.00" fill="#000000">nrl/randomsearch_deterministicmodel</text>
<text text-anchor="middle" x="536.2461" y="-71.5" font-family="Helvetica,sans-Serif" font-size="10.00" fill="#000000">/RandomSearch_DeterministicModel.hpp</text>
</a>
</g>
</g>
<!-- Node12&#45;&gt;Node17 -->
<g id="edge8" class="edge">
<title>Node12&#45;&gt;Node17</title>
<path fill="none" stroke="#191970" d="M325.304,-128.1789C367.8851,-118.3525 429.7084,-104.0856 475.4255,-93.5355"/>
<polygon fill="#191970" stroke="#191970" points="324.4091,-124.7934 315.4522,-130.4524 325.9832,-131.6141 324.4091,-124.7934"/>
</g>
<!-- Node19 -->
<g id="node10" class="node">
<title>Node19</title>
<g id="a_node10"><a xlink:href="../../d0/da3/distributenrldata_8cpp.html" target="_top" xlink:title="src/distributenrldata.cpp">
<polygon fill="#ffffff" stroke="#000000" points="653.165,-70.5 653.165,-88.5 775.3271,-88.5 775.3271,-70.5 653.165,-70.5"/>
<text text-anchor="middle" x="714.2461" y="-76.5" font-family="Helvetica,sans-Serif" font-size="10.00" fill="#000000">src/distributenrldata.cpp</text>
</a>
</g>
</g>
<!-- Node12&#45;&gt;Node19 -->
<g id="edge10" class="edge">
<title>Node12&#45;&gt;Node19</title>
<path fill="none" stroke="#191970" d="M347.829,-129.8201C480.289,-113.1378 515.8048,-115.0229 644.2461,-94 653.7994,-92.4363 664.0295,-90.4794 673.6372,-88.5141"/>
<polygon fill="#191970" stroke="#191970" points="347.1781,-126.3746 337.6994,-131.108 348.0611,-133.3187 347.1781,-126.3746"/>
</g>
<!-- Node14 -->
<g id="node5" class="node">
<title>Node14</title>
<g id="a_node5"><a xlink:href="../../db/de3/nrl_2forward__randomfield_2main_8cpp.html" target="_top" xlink:title="nrl/forward_randomfield\l/main.cpp">
<polygon fill="#ffffff" stroke="#000000" points="141.7217,-.5 141.7217,-28.5 262.7705,-28.5 262.7705,-.5 141.7217,-.5"/>
<text text-anchor="start" x="149.7217" y="-16.5" font-family="Helvetica,sans-Serif" font-size="10.00" fill="#000000">nrl/forward_randomfield</text>
<text text-anchor="middle" x="202.2461" y="-6.5" font-family="Helvetica,sans-Serif" font-size="10.00" fill="#000000">/main.cpp</text>
</a>
</g>
</g>
<!-- Node13&#45;&gt;Node14 -->
<g id="edge4" class="edge">
<title>Node13&#45;&gt;Node14</title>
<path fill="none" stroke="#191970" d="M202.2461,-55.1081C202.2461,-46.1539 202.2461,-36.3227 202.2461,-28.5765"/>
<polygon fill="#191970" stroke="#191970" points="198.7462,-55.3959 202.2461,-65.396 205.7462,-55.396 198.7462,-55.3959"/>
</g>
<!-- Node16 -->
<g id="node7" class="node">
<title>Node16</title>
<g id="a_node7"><a xlink:href="../../d4/db6/nrl_2manufactured__solution_2main_8cpp.html" target="_top" xlink:title="nrl/manufactured_solution\l/main.cpp">
<polygon fill="#ffffff" stroke="#000000" points="285.7119,-.5 285.7119,-28.5 416.7803,-28.5 416.7803,-.5 285.7119,-.5"/>
<text text-anchor="start" x="293.7119" y="-16.5" font-family="Helvetica,sans-Serif" font-size="10.00" fill="#000000">nrl/manufactured_solution</text>
<text text-anchor="middle" x="351.2461" y="-6.5" font-family="Helvetica,sans-Serif" font-size="10.00" fill="#000000">/main.cpp</text>
</a>
</g>
</g>
<!-- Node15&#45;&gt;Node16 -->
<g id="edge7" class="edge">
<title>Node15&#45;&gt;Node16</title>
<path fill="none" stroke="#191970" d="M351.2461,-55.1081C351.2461,-46.1539 351.2461,-36.3227 351.2461,-28.5765"/>
<polygon fill="#191970" stroke="#191970" points="347.7462,-55.3959 351.2461,-65.396 354.7462,-55.396 347.7462,-55.3959"/>
</g>
<!-- Node18 -->
<g id="node9" class="node">
<title>Node18</title>
<g id="a_node9"><a xlink:href="../../d5/d17/nrl_2randomsearch__deterministicmodel_2main_8cpp.html" target="_top" xlink:title="nrl/randomsearch_deterministicmodel\l/main.cpp">
<polygon fill="#ffffff" stroke="#000000" points="444.877,-.5 444.877,-28.5 627.6152,-28.5 627.6152,-.5 444.877,-.5"/>
<text text-anchor="start" x="452.877" y="-16.5" font-family="Helvetica,sans-Serif" font-size="10.00" fill="#000000">nrl/randomsearch_deterministicmodel</text>
<text text-anchor="middle" x="536.2461" y="-6.5" font-family="Helvetica,sans-Serif" font-size="10.00" fill="#000000">/main.cpp</text>
</a>
</g>
</g>
<!-- Node17&#45;&gt;Node18 -->
<g id="edge9" class="edge">
<title>Node17&#45;&gt;Node18</title>
<path fill="none" stroke="#191970" d="M536.2461,-55.1081C536.2461,-46.1539 536.2461,-36.3227 536.2461,-28.5765"/>
<polygon fill="#191970" stroke="#191970" points="532.7462,-55.3959 536.2461,-65.396 539.7462,-55.396 532.7462,-55.3959"/>
</g>
</g>
</svg>
