<?xml version="1.0" encoding="UTF-8" standalone="no"?>
<!DOCTYPE svg PUBLIC "-//W3C//DTD SVG 1.1//EN"
 "http://www.w3.org/Graphics/SVG/1.1/DTD/svg11.dtd">
<!-- Generated by graphviz version 2.40.1 (20161225.0304)
 -->
<!-- Title: src/readnrldata.hpp Pages: 1 -->
<svg width="438pt" height="212pt"
 viewBox="0.00 0.00 438.33 212.00" xmlns="http://www.w3.org/2000/svg" xmlns:xlink="http://www.w3.org/1999/xlink">
<g id="graph0" class="graph" transform="scale(1 1) rotate(0) translate(4 208)">
<title>src/readnrldata.hpp</title>
<polygon fill="#ffffff" stroke="transparent" points="-4,4 -4,-208 434.3271,-208 434.3271,4 -4,4"/>
<!-- Node10 -->
<g id="node1" class="node">
<title>Node10</title>
<polygon fill="#bfbfbf" stroke="#000000" points="146.165,-185.5 146.165,-203.5 248.3271,-203.5 248.3271,-185.5 146.165,-185.5"/>
<text text-anchor="middle" x="197.2461" y="-191.5" font-family="Helvetica,sans-Serif" font-size="10.00" fill="#000000">src/readnrldata.hpp</text>
</g>
<!-- Node11 -->
<g id="node2" class="node">
<title>Node11</title>
<g id="a_node2"><a xlink:href="../../d6/d9c/nrl_2importdata_2main_8cpp.html" target="_top" xlink:title="nrl/importdata/main.cpp">
<polygon fill="#ffffff" stroke="#000000" points="0,-70.5 0,-88.5 120.4922,-88.5 120.4922,-70.5 0,-70.5"/>
<text text-anchor="middle" x="60.2461" y="-76.5" font-family="Helvetica,sans-Serif" font-size="10.00" fill="#000000">nrl/importdata/main.cpp</text>
</a>
</g>
</g>
<!-- Node10&#45;&gt;Node11 -->
<g id="edge1" class="edge">
<title>Node10&#45;&gt;Node11</title>
<path fill="none" stroke="#191970" d="M172.0338,-180.0357C158.2699,-171.674 141.2331,-160.545 127.2461,-149 103.7218,-129.5828 79.7822,-102.6469 67.9077,-88.697"/>
<polygon fill="#191970" stroke="#191970" points="170.5796,-183.2433 180.9621,-185.3535 174.1617,-177.2292 170.5796,-183.2433"/>
</g>
<!-- Node12 -->
<g id="node3" class="node">
<title>Node12</title>
<g id="a_node3"><a xlink:href="../../d5/d75/distributenrldata_8hpp.html" target="_top" xlink:title="src/distributenrldata.hpp">
<polygon fill="#ffffff" stroke="#000000" points="135.8843,-130.5 135.8843,-148.5 258.6079,-148.5 258.6079,-130.5 135.8843,-130.5"/>
<text text-anchor="middle" x="197.2461" y="-136.5" font-family="Helvetica,sans-Serif" font-size="10.00" fill="#000000">src/distributenrldata.hpp</text>
</a>
</g>
</g>
<!-- Node10&#45;&gt;Node12 -->
<g id="edge2" class="edge">
<title>Node10&#45;&gt;Node12</title>
<path fill="none" stroke="#191970" d="M197.2461,-175.383C197.2461,-166.3738 197.2461,-156.0373 197.2461,-148.7795"/>
<polygon fill="#191970" stroke="#191970" points="193.7462,-175.4178 197.2461,-185.4179 200.7462,-175.4179 193.7462,-175.4178"/>
</g>
<!-- Node17 -->
<g id="node8" class="node">
<title>Node17</title>
<g id="a_node8"><a xlink:href="../../de/d89/readnrldata_8cpp.html" target="_top" xlink:title="src/readnrldata.cpp">
<polygon fill="#ffffff" stroke="#000000" points="276.4458,-130.5 276.4458,-148.5 378.0464,-148.5 378.0464,-130.5 276.4458,-130.5"/>
<text text-anchor="middle" x="327.2461" y="-136.5" font-family="Helvetica,sans-Serif" font-size="10.00" fill="#000000">src/readnrldata.cpp</text>
</a>
</g>
</g>
<!-- Node10&#45;&gt;Node17 -->
<g id="edge8" class="edge">
<title>Node10&#45;&gt;Node17</title>
<path fill="none" stroke="#191970" d="M228.0602,-181.4633C251.992,-171.3383 284.5658,-157.5571 305.7473,-148.5956"/>
<polygon fill="#191970" stroke="#191970" points="226.5589,-178.298 218.7129,-185.4179 229.2864,-184.7448 226.5589,-178.298"/>
</g>
<!-- Node12&#45;&gt;Node11 -->
<g id="edge6" class="edge">
<title>Node12&#45;&gt;Node11</title>
<path fill="none" stroke="#191970" d="M166.9944,-126.2511C140.8133,-114.7849 103.6611,-98.5139 80.8004,-88.5019"/>
<polygon fill="#191970" stroke="#191970" points="165.8746,-129.5816 176.4387,-130.3873 168.6828,-123.1695 165.8746,-129.5816"/>
</g>
<!-- Node13 -->
<g id="node4" class="node">
<title>Node13</title>
<g id="a_node4"><a xlink:href="../../df/d27/nrl_2deterministic__random__search_2objective_function_8hpp.html" target="_top" xlink:title="nrl/deterministic_random\l_search/objectiveFunction.hpp">
<polygon fill="#ffffff" stroke="#000000" points="138.4263,-65.5 138.4263,-93.5 290.0659,-93.5 290.0659,-65.5 138.4263,-65.5"/>
<text text-anchor="start" x="146.4263" y="-81.5" font-family="Helvetica,sans-Serif" font-size="10.00" fill="#000000">nrl/deterministic_random</text>
<text text-anchor="middle" x="214.2461" y="-71.5" font-family="Helvetica,sans-Serif" font-size="10.00" fill="#000000">_search/objectiveFunction.hpp</text>
</a>
</g>
</g>
<!-- Node12&#45;&gt;Node13 -->
<g id="edge3" class="edge">
<title>Node12&#45;&gt;Node13</title>
<path fill="none" stroke="#191970" d="M202.5554,-120.7614C205.0168,-112.074 207.8958,-101.9126 210.1809,-93.8477"/>
<polygon fill="#191970" stroke="#191970" points="199.1867,-119.8119 199.828,-130.3873 205.9216,-121.7202 199.1867,-119.8119"/>
</g>
<!-- Node16 -->
<g id="node7" class="node">
<title>Node16</title>
<g id="a_node7"><a xlink:href="../../d0/da3/distributenrldata_8cpp.html" target="_top" xlink:title="src/distributenrldata.cpp">
<polygon fill="#ffffff" stroke="#000000" points="308.165,-70.5 308.165,-88.5 430.3271,-88.5 430.3271,-70.5 308.165,-70.5"/>
<text text-anchor="middle" x="369.2461" y="-76.5" font-family="Helvetica,sans-Serif" font-size="10.00" fill="#000000">src/distributenrldata.cpp</text>
</a>
</g>
</g>
<!-- Node12&#45;&gt;Node16 -->
<g id="edge7" class="edge">
<title>Node12&#45;&gt;Node16</title>
<path fill="none" stroke="#191970" d="M233.0747,-127.0017C266.0325,-115.5047 314.1075,-98.7344 343.4407,-88.5019"/>
<polygon fill="#191970" stroke="#191970" points="231.6584,-123.7888 223.3692,-130.3873 233.964,-130.3982 231.6584,-123.7888"/>
</g>
<!-- Node14 -->
<g id="node5" class="node">
<title>Node14</title>
<g id="a_node5"><a xlink:href="../../de/de8/example__pnpoly__inverse__isoparam_8cpp.html" target="_top" xlink:title="examples/pnpoly/example\l_pnpoly_inverse_isoparam.cpp">
<polygon fill="#ffffff" stroke="#000000" points="58.0371,-.5 58.0371,-28.5 212.4551,-28.5 212.4551,-.5 58.0371,-.5"/>
<text text-anchor="start" x="66.0371" y="-16.5" font-family="Helvetica,sans-Serif" font-size="10.00" fill="#000000">examples/pnpoly/example</text>
<text text-anchor="middle" x="135.2461" y="-6.5" font-family="Helvetica,sans-Serif" font-size="10.00" fill="#000000">_pnpoly_inverse_isoparam.cpp</text>
</a>
</g>
</g>
<!-- Node13&#45;&gt;Node14 -->
<g id="edge4" class="edge">
<title>Node13&#45;&gt;Node14</title>
<path fill="none" stroke="#191970" d="M189.1887,-58.8832C177.1835,-49.0054 163.114,-37.4293 152.3545,-28.5765"/>
<polygon fill="#191970" stroke="#191970" points="187.1583,-61.745 197.1043,-65.396 191.6059,-56.3395 187.1583,-61.745"/>
</g>
<!-- Node15 -->
<g id="node6" class="node">
<title>Node15</title>
<g id="a_node6"><a xlink:href="../../d8/dc8/nrl_2deterministic__random__search_2main_8cpp.html" target="_top" xlink:title="nrl/deterministic_random\l_search/main.cpp">
<polygon fill="#ffffff" stroke="#000000" points="230.5024,-.5 230.5024,-28.5 355.9897,-28.5 355.9897,-.5 230.5024,-.5"/>
<text text-anchor="start" x="238.5024" y="-16.5" font-family="Helvetica,sans-Serif" font-size="10.00" fill="#000000">nrl/deterministic_random</text>
<text text-anchor="middle" x="293.2461" y="-6.5" font-family="Helvetica,sans-Serif" font-size="10.00" fill="#000000">_search/main.cpp</text>
</a>
</g>
</g>
<!-- Node13&#45;&gt;Node15 -->
<g id="edge5" class="edge">
<title>Node13&#45;&gt;Node15</title>
<path fill="none" stroke="#191970" d="M239.3034,-58.8832C251.3087,-49.0054 265.3782,-37.4293 276.1377,-28.5765"/>
<polygon fill="#191970" stroke="#191970" points="236.8863,-56.3395 231.3879,-65.396 241.3339,-61.745 236.8863,-56.3395"/>
</g>
</g>
</svg>
