<?xml version="1.0" encoding="UTF-8" standalone="no"?>
<!DOCTYPE svg PUBLIC "-//W3C//DTD SVG 1.1//EN"
 "http://www.w3.org/Graphics/SVG/1.1/DTD/svg11.dtd">
<!-- Generated by graphviz version 2.40.1 (20161225.0304)
 -->
<!-- Title: src/readnrldata.hpp Pages: 1 -->
<svg width="469pt" height="212pt"
 viewBox="0.00 0.00 469.33 212.00" xmlns="http://www.w3.org/2000/svg" xmlns:xlink="http://www.w3.org/1999/xlink">
<g id="graph0" class="graph" transform="scale(1 1) rotate(0) translate(4 208)">
<title>src/readnrldata.hpp</title>
<polygon fill="#ffffff" stroke="transparent" points="-4,4 -4,-208 465.3271,-208 465.3271,4 -4,4"/>
<!-- Node10 -->
<g id="node1" class="node">
<title>Node10</title>
<polygon fill="#bfbfbf" stroke="#000000" points="158.165,-185.5 158.165,-203.5 260.3271,-203.5 260.3271,-185.5 158.165,-185.5"/>
<text text-anchor="middle" x="209.2461" y="-191.5" font-family="Helvetica,sans-Serif" font-size="10.00" fill="#000000">src/readnrldata.hpp</text>
</g>
<!-- Node11 -->
<g id="node2" class="node">
<title>Node11</title>
<g id="a_node2"><a xlink:href="../../d6/d9c/nrl_2importdata_2main_8cpp.html" target="_top" xlink:title="nrl/importdata/main.cpp">
<polygon fill="#ffffff" stroke="#000000" points="0,-70.5 0,-88.5 120.4922,-88.5 120.4922,-70.5 0,-70.5"/>
<text text-anchor="middle" x="60.2461" y="-76.5" font-family="Helvetica,sans-Serif" font-size="10.00" fill="#000000">nrl/importdata/main.cpp</text>
</a>
</g>
</g>
<!-- Node10&#45;&gt;Node11 -->
<g id="edge1" class="edge">
<title>Node10&#45;&gt;Node11</title>
<path fill="none" stroke="#191970" d="M184.9267,-179.9073C171.1861,-171.3652 153.8833,-160.1029 139.2461,-149 112.7578,-128.9076 84.0034,-102.2565 69.5931,-88.5278"/>
<polygon fill="#191970" stroke="#191970" points="183.4405,-183.1019 193.7939,-185.3511 187.103,-177.1364 183.4405,-183.1019"/>
</g>
<!-- Node12 -->
<g id="node3" class="node">
<title>Node12</title>
<g id="a_node3"><a xlink:href="../../d5/d75/distributenrldata_8hpp.html" target="_top" xlink:title="src/distributenrldata.hpp">
<polygon fill="#ffffff" stroke="#000000" points="147.8843,-130.5 147.8843,-148.5 270.6079,-148.5 270.6079,-130.5 147.8843,-130.5"/>
<text text-anchor="middle" x="209.2461" y="-136.5" font-family="Helvetica,sans-Serif" font-size="10.00" fill="#000000">src/distributenrldata.hpp</text>
</a>
</g>
</g>
<!-- Node10&#45;&gt;Node12 -->
<g id="edge2" class="edge">
<title>Node10&#45;&gt;Node12</title>
<path fill="none" stroke="#191970" d="M209.2461,-175.383C209.2461,-166.3738 209.2461,-156.0373 209.2461,-148.7795"/>
<polygon fill="#191970" stroke="#191970" points="205.7462,-175.4178 209.2461,-185.4179 212.7462,-175.4179 205.7462,-175.4178"/>
</g>
<!-- Node17 -->
<g id="node8" class="node">
<title>Node17</title>
<g id="a_node8"><a xlink:href="../../de/d89/readnrldata_8cpp.html" target="_top" xlink:title="src/readnrldata.cpp">
<polygon fill="#ffffff" stroke="#000000" points="288.4458,-130.5 288.4458,-148.5 390.0464,-148.5 390.0464,-130.5 288.4458,-130.5"/>
<text text-anchor="middle" x="339.2461" y="-136.5" font-family="Helvetica,sans-Serif" font-size="10.00" fill="#000000">src/readnrldata.cpp</text>
</a>
</g>
</g>
<!-- Node10&#45;&gt;Node17 -->
<g id="edge8" class="edge">
<title>Node10&#45;&gt;Node17</title>
<path fill="none" stroke="#191970" d="M240.0602,-181.4633C263.992,-171.3383 296.5658,-157.5571 317.7473,-148.5956"/>
<polygon fill="#191970" stroke="#191970" points="238.5589,-178.298 230.7129,-185.4179 241.2864,-184.7448 238.5589,-178.298"/>
</g>
<!-- Node12&#45;&gt;Node11 -->
<g id="edge3" class="edge">
<title>Node12&#45;&gt;Node11</title>
<path fill="none" stroke="#191970" d="M177.0945,-126.553C148.5835,-115.0721 107.6829,-98.6021 82.6007,-88.5019"/>
<polygon fill="#191970" stroke="#191970" points="176.0326,-129.8985 186.6162,-130.3873 178.6474,-123.4052 176.0326,-129.8985"/>
</g>
<!-- Node13 -->
<g id="node4" class="node">
<title>Node13</title>
<g id="a_node4"><a xlink:href="../../d9/dd9/objective_function_8hpp.html" target="_top" xlink:title="nrl/randomsearch_deterministicmodel\l/objectiveFunction.hpp">
<polygon fill="#ffffff" stroke="#000000" points="138.877,-65.5 138.877,-93.5 321.6152,-93.5 321.6152,-65.5 138.877,-65.5"/>
<text text-anchor="start" x="146.877" y="-81.5" font-family="Helvetica,sans-Serif" font-size="10.00" fill="#000000">nrl/randomsearch_deterministicmodel</text>
<text text-anchor="middle" x="230.2461" y="-71.5" font-family="Helvetica,sans-Serif" font-size="10.00" fill="#000000">/objectiveFunction.hpp</text>
</a>
</g>
</g>
<!-- Node12&#45;&gt;Node13 -->
<g id="edge4" class="edge">
<title>Node12&#45;&gt;Node13</title>
<path fill="none" stroke="#191970" d="M215.8046,-120.7614C218.8452,-112.074 222.4017,-101.9126 225.2244,-93.8477"/>
<polygon fill="#191970" stroke="#191970" points="212.4356,-119.7925 212.4355,-130.3873 219.0426,-122.105 212.4356,-119.7925"/>
</g>
<!-- Node16 -->
<g id="node7" class="node">
<title>Node16</title>
<g id="a_node7"><a xlink:href="../../d0/da3/distributenrldata_8cpp.html" target="_top" xlink:title="src/distributenrldata.cpp">
<polygon fill="#ffffff" stroke="#000000" points="339.165,-70.5 339.165,-88.5 461.3271,-88.5 461.3271,-70.5 339.165,-70.5"/>
<text text-anchor="middle" x="400.2461" y="-76.5" font-family="Helvetica,sans-Serif" font-size="10.00" fill="#000000">src/distributenrldata.cpp</text>
</a>
</g>
</g>
<!-- Node12&#45;&gt;Node16 -->
<g id="edge7" class="edge">
<title>Node12&#45;&gt;Node16</title>
<path fill="none" stroke="#191970" d="M248.0897,-127.2978C284.709,-115.7944 338.7358,-98.8226 371.5901,-88.5019"/>
<polygon fill="#191970" stroke="#191970" points="246.7463,-124.0511 238.2549,-130.3873 248.8442,-130.7294 246.7463,-124.0511"/>
</g>
<!-- Node14 -->
<g id="node5" class="node">
<title>Node14</title>
<g id="a_node5"><a xlink:href="../../de/de8/example__pnpoly__inverse__isoparam_8cpp.html" target="_top" xlink:title="examples/pnpoly/example\l_pnpoly_inverse_isoparam.cpp">
<polygon fill="#ffffff" stroke="#000000" points="59.0371,-.5 59.0371,-28.5 213.4551,-28.5 213.4551,-.5 59.0371,-.5"/>
<text text-anchor="start" x="67.0371" y="-16.5" font-family="Helvetica,sans-Serif" font-size="10.00" fill="#000000">examples/pnpoly/example</text>
<text text-anchor="middle" x="136.2461" y="-6.5" font-family="Helvetica,sans-Serif" font-size="10.00" fill="#000000">_pnpoly_inverse_isoparam.cpp</text>
</a>
</g>
</g>
<!-- Node13&#45;&gt;Node14 -->
<g id="edge5" class="edge">
<title>Node13&#45;&gt;Node14</title>
<path fill="none" stroke="#191970" d="M201.2524,-59.4511C186.7916,-49.4517 169.6516,-37.5995 156.6029,-28.5765"/>
<polygon fill="#191970" stroke="#191970" points="199.6337,-62.5872 209.8495,-65.396 203.6151,-56.8296 199.6337,-62.5872"/>
</g>
<!-- Node15 -->
<g id="node6" class="node">
<title>Node15</title>
<g id="a_node6"><a xlink:href="../../d5/d17/nrl_2randomsearch__deterministicmodel_2main_8cpp.html" target="_top" xlink:title="nrl/randomsearch_deterministicmodel\l/main.cpp">
<polygon fill="#ffffff" stroke="#000000" points="231.877,-.5 231.877,-28.5 414.6152,-28.5 414.6152,-.5 231.877,-.5"/>
<text text-anchor="start" x="239.877" y="-16.5" font-family="Helvetica,sans-Serif" font-size="10.00" fill="#000000">nrl/randomsearch_deterministicmodel</text>
<text text-anchor="middle" x="323.2461" y="-6.5" font-family="Helvetica,sans-Serif" font-size="10.00" fill="#000000">/main.cpp</text>
</a>
</g>
</g>
<!-- Node13&#45;&gt;Node15 -->
<g id="edge6" class="edge">
<title>Node13&#45;&gt;Node15</title>
<path fill="none" stroke="#191970" d="M258.9314,-59.4511C273.2383,-49.4517 290.196,-37.5995 303.1059,-28.5765"/>
<polygon fill="#191970" stroke="#191970" points="256.6171,-56.7985 250.4257,-65.396 260.6272,-62.536 256.6171,-56.7985"/>
</g>
</g>
</svg>
