<?xml version="1.0" encoding="UTF-8" standalone="no"?>
<!DOCTYPE svg PUBLIC "-//W3C//DTD SVG 1.1//EN"
 "http://www.w3.org/Graphics/SVG/1.1/DTD/svg11.dtd">
<!-- Generated by graphviz version 2.40.1 (20161225.0304)
 -->
<!-- Title: hyperelasticity_setup Pages: 1 -->
<svg width="456pt" height="252pt"
 viewBox="0.00 0.00 456.49 252.00" xmlns="http://www.w3.org/2000/svg" xmlns:xlink="http://www.w3.org/1999/xlink">
<g id="graph0" class="graph" transform="scale(1 1) rotate(0) translate(4 248)">
<title>hyperelasticity_setup</title>
<polygon fill="#ffffff" stroke="transparent" points="-4,4 -4,-248 452.4912,-248 452.4912,4 -4,4"/>
<!-- Node0 -->
<g id="node1" class="node">
<title>Node0</title>
<polygon fill="#bfbfbf" stroke="#000000" points="161.4971,-102.5 161.4971,-120.5 270.8809,-120.5 270.8809,-102.5 161.4971,-102.5"/>
<text text-anchor="middle" x="216.189" y="-108.5" font-family="Helvetica,sans-Serif" font-size="10.00" fill="#000000">hyperelasticity_setup</text>
</g>
<!-- Node2 -->
<g id="node3" class="node">
<title>Node2</title>
<g id="a_node3"><a xlink:href="../../da/d5f/class_dirichlet_inlet_outlet___polyconvex_h_g_o.html" target="_top" xlink:title="DirichletInletOutlet\l_PolyconvexHGO">
<polygon fill="#ffffff" stroke="#000000" points="328.8364,-215.5 328.8364,-243.5 426.5356,-243.5 426.5356,-215.5 328.8364,-215.5"/>
<text text-anchor="start" x="336.8364" y="-231.5" font-family="Helvetica,sans-Serif" font-size="10.00" fill="#000000">DirichletInletOutlet</text>
<text text-anchor="middle" x="377.686" y="-221.5" font-family="Helvetica,sans-Serif" font-size="10.00" fill="#000000">_PolyconvexHGO</text>
</a>
</g>
</g>
<!-- Node0&#45;&gt;Node2 -->
<g id="edge2" class="edge">
<title>Node0&#45;&gt;Node2</title>
<path fill="none" stroke="#191970" d="M228.2474,-128.5908C244.0243,-149.759 273.6076,-185.5772 306.8809,-206.5 313.5551,-210.6969 321.0689,-214.1996 328.6431,-217.1006"/>
<polygon fill="#191970" stroke="#191970" points="231.0748,-126.5279 222.3606,-120.5018 225.4149,-130.6469 231.0748,-126.5279"/>
</g>
<!-- Node3 -->
<g id="node4" class="node">
<title>Node3</title>
<g id="a_node4"><a xlink:href="../../d0/de4/class_dirichlet_strip_elongation___stochastic_polyconvex_h_g_o.html" target="_top" xlink:title="DirichletStripElongation\l_StochasticPolyconvexHGO">
<polygon fill="#ffffff" stroke="#000000" points="306.8809,-168.5 306.8809,-196.5 448.4912,-196.5 448.4912,-168.5 306.8809,-168.5"/>
<text text-anchor="start" x="314.8809" y="-184.5" font-family="Helvetica,sans-Serif" font-size="10.00" fill="#000000">DirichletStripElongation</text>
<text text-anchor="middle" x="377.686" y="-174.5" font-family="Helvetica,sans-Serif" font-size="10.00" fill="#000000">_StochasticPolyconvexHGO</text>
</a>
</g>
</g>
<!-- Node0&#45;&gt;Node3 -->
<g id="edge3" class="edge">
<title>Node0&#45;&gt;Node3</title>
<path fill="none" stroke="#191970" d="M240.1864,-125.6662C258.1542,-135.9083 283.5509,-149.6243 306.8809,-159.5 314.3794,-162.6741 322.4753,-165.679 330.4205,-168.4055"/>
<polygon fill="#191970" stroke="#191970" points="241.9289,-122.6308 231.5179,-120.6656 238.431,-128.6942 241.9289,-122.6308"/>
</g>
<!-- Node4 -->
<g id="node5" class="node">
<title>Node4</title>
<g id="a_node5"><a xlink:href="../../de/d4c/class_neumann_inner_surface___polyconvex_h_g_o.html" target="_top" xlink:title="NeumannInnerSurface\l_PolyconvexHGO">
<polygon fill="#ffffff" stroke="#000000" points="319.3784,-121.5 319.3784,-149.5 435.9937,-149.5 435.9937,-121.5 319.3784,-121.5"/>
<text text-anchor="start" x="327.3784" y="-137.5" font-family="Helvetica,sans-Serif" font-size="10.00" fill="#000000">NeumannInnerSurface</text>
<text text-anchor="middle" x="377.686" y="-127.5" font-family="Helvetica,sans-Serif" font-size="10.00" fill="#000000">_PolyconvexHGO</text>
</a>
</g>
</g>
<!-- Node0&#45;&gt;Node4 -->
<g id="edge4" class="edge">
<title>Node0&#45;&gt;Node4</title>
<path fill="none" stroke="#191970" d="M281.2494,-121.1686C293.8074,-123.0348 306.8919,-124.9793 319.224,-126.812"/>
<polygon fill="#191970" stroke="#191970" points="281.7213,-117.7004 271.3154,-119.6923 280.6923,-124.6243 281.7213,-117.7004"/>
</g>
<!-- Node5 -->
<g id="node6" class="node">
<title>Node5</title>
<g id="a_node6"><a xlink:href="../../dd/d43/class_neumann_inner_surface___stochastic_polyconvex_h_g_o.html" target="_top" xlink:title="NeumannInnerSurface\l_StochasticPolyconvexHGO">
<polygon fill="#ffffff" stroke="#000000" points="306.8809,-74.5 306.8809,-102.5 448.4912,-102.5 448.4912,-74.5 306.8809,-74.5"/>
<text text-anchor="start" x="314.8809" y="-90.5" font-family="Helvetica,sans-Serif" font-size="10.00" fill="#000000">NeumannInnerSurface</text>
<text text-anchor="middle" x="377.686" y="-80.5" font-family="Helvetica,sans-Serif" font-size="10.00" fill="#000000">_StochasticPolyconvexHGO</text>
</a>
</g>
</g>
<!-- Node0&#45;&gt;Node5 -->
<g id="edge5" class="edge">
<title>Node0&#45;&gt;Node5</title>
<path fill="none" stroke="#191970" d="M281.3862,-102.2148C289.7576,-101.0225 298.3607,-99.7973 306.8171,-98.593"/>
<polygon fill="#191970" stroke="#191970" points="280.722,-98.774 271.3154,-103.649 281.709,-105.704 280.722,-98.774"/>
</g>
<!-- Node6 -->
<g id="node7" class="node">
<title>Node6</title>
<g id="a_node7"><a xlink:href="../../de/dd1/class_t_i_mooney.html" target="_top" xlink:title="TIMooney">
<polygon fill="#ffffff" stroke="#000000" points="347.4546,-37.5 347.4546,-55.5 407.9175,-55.5 407.9175,-37.5 347.4546,-37.5"/>
<text text-anchor="middle" x="377.686" y="-43.5" font-family="Helvetica,sans-Serif" font-size="10.00" fill="#000000">TIMooney</text>
</a>
</g>
</g>
<!-- Node0&#45;&gt;Node6 -->
<g id="edge6" class="edge">
<title>Node0&#45;&gt;Node6</title>
<path fill="none" stroke="#191970" d="M240.2176,-97.113C258.1041,-86.8884 283.386,-73.4386 306.8809,-64.5 319.8024,-59.584 334.5567,-55.5911 347.2405,-52.6264"/>
<polygon fill="#191970" stroke="#191970" points="237.9868,-94.3614 231.0998,-102.4125 241.5044,-100.4134 237.9868,-94.3614"/>
</g>
<!-- Node7 -->
<g id="node8" class="node">
<title>Node7</title>
<g id="a_node8"><a xlink:href="../../d1/dd7/class_t_i_mooney___random_field.html" target="_top" xlink:title="TIMooney_RandomField">
<polygon fill="#ffffff" stroke="#000000" points="314.9375,-.5 314.9375,-18.5 440.4346,-18.5 440.4346,-.5 314.9375,-.5"/>
<text text-anchor="middle" x="377.686" y="-6.5" font-family="Helvetica,sans-Serif" font-size="10.00" fill="#000000">TIMooney_RandomField</text>
</a>
</g>
</g>
<!-- Node0&#45;&gt;Node7 -->
<g id="edge7" class="edge">
<title>Node0&#45;&gt;Node7</title>
<path fill="none" stroke="#191970" d="M229.9271,-94.4354C246.2662,-75.2849 275.3251,-44.6583 306.8809,-27.5 313.5666,-23.8647 321.0078,-20.9447 328.4831,-18.6043"/>
<polygon fill="#191970" stroke="#191970" points="227.0579,-92.4116 223.3518,-102.3371 232.4386,-96.8891 227.0579,-92.4116"/>
</g>
<!-- Node1 -->
<g id="node2" class="node">
<title>Node1</title>
<g id="a_node2"><a xlink:href="../../d8/dc2/class_finite___element___problem.html" target="_top" xlink:title="Finite_Element_Problem">
<polygon fill="#ffffff" stroke="#000000" points="0,-102.5 0,-120.5 125.4971,-120.5 125.4971,-102.5 0,-102.5"/>
<text text-anchor="middle" x="62.7485" y="-108.5" font-family="Helvetica,sans-Serif" font-size="10.00" fill="#000000">Finite_Element_Problem</text>
</a>
</g>
</g>
<!-- Node1&#45;&gt;Node0 -->
<g id="edge1" class="edge">
<title>Node1&#45;&gt;Node0</title>
<path fill="none" stroke="#191970" d="M135.8776,-111.5C144.3488,-111.5 152.8786,-111.5 161.0526,-111.5"/>
<polygon fill="#191970" stroke="#191970" points="135.6014,-108.0001 125.6014,-111.5 135.6013,-115.0001 135.6014,-108.0001"/>
</g>
</g>
</svg>
