<?xml version="1.0" encoding="UTF-8" standalone="no"?>
<!DOCTYPE svg PUBLIC "-//W3C//DTD SVG 1.1//EN"
 "http://www.w3.org/Graphics/SVG/1.1/DTD/svg11.dtd">
<!-- Generated by graphviz version 2.40.1 (20161225.0304)
 -->
<!-- Title: hyperelasticity_setup Pages: 1 -->
<!--zoomable 178 -->
<svg id="main" version="1.1" xmlns="http://www.w3.org/2000/svg" xmlns:xlink="http://www.w3.org/1999/xlink" xml:space="preserve" onload="init(evt)">
<style type="text/css"><![CDATA[
.edge:hover path { stroke: red; }
.edge:hover polygon { stroke: red; fill: red; }
]]></style>
<script type="text/javascript"><![CDATA[
var edges = document.getElementsByTagName('g');
if (edges && edges.length) {
  for (var i=0;i<edges.length;i++) {
    if (edges[i].id.substr(0,4)=='edge') {
      edges[i].setAttribute('class','edge');
    }
  }
}
]]></script>
        <defs>
                <circle id="rim" cx="0" cy="0" r="7"/>
                <circle id="rim2" cx="0" cy="0" r="3.5"/>
                <g id="zoomPlus">
                        <use xlink:href="#rim" fill="#404040">
                                <set attributeName="fill" to="#808080" begin="zoomplus.mouseover" end="zoomplus.mouseout"/>
                        </use>
                        <path d="M-4,0h8M0,-4v8" fill="none" stroke="white" stroke-width="1.5" pointer-events="none"/>
                </g>
                <g id="zoomMin">
                        <use xlink:href="#rim" fill="#404040">
                                <set attributeName="fill" to="#808080" begin="zoomminus.mouseover" end="zoomminus.mouseout"/>
                        </use>
                        <path d="M-4,0h8" fill="none" stroke="white" stroke-width="1.5" pointer-events="none"/>
                </g>
                <g id="dirArrow">
                        <path fill="none" stroke="white" stroke-width="1.5" d="M0,-3.0v7 M-2.5,-0.5L0,-3.0L2.5,-0.5"/>
                </g>
               <g id="resetDef">
                       <use xlink:href="#rim2" fill="#404040">
                               <set attributeName="fill" to="#808080" begin="reset.mouseover" end="reset.mouseout"/>
                       </use>
               </g>
        </defs>

<script type="text/javascript">
var viewWidth = 577;
var viewHeight = 178;
var sectionId = 'dynsection-0';
</script>
<script xlink:href="../../svgpan.js"/>
<svg id="graph" class="graph">
<g id="viewport">
<title>hyperelasticity_setup</title>
<polygon fill="#ffffff" stroke="transparent" points="-4,4 -4,-174 573.3975,-174 573.3975,4 -4,4"/>
<!-- Node0 -->
<g id="node1" class="node">
<title>Node0</title>
<polygon fill="#bfbfbf" stroke="#000000" points="282.4033,-75.5 282.4033,-93.5 391.7871,-93.5 391.7871,-75.5 282.4033,-75.5"/>
<text text-anchor="middle" x="337.0952" y="-81.5" font-family="Helvetica,sans-Serif" font-size="10.00" fill="#000000">hyperelasticity_setup</text>
</g>
<!-- Node3 -->
<g id="node4" class="node">
<title>Node3</title>
<g id="a_node4"><a xlink:href="../../da/d5f/class_dirichlet_inlet_outlet___polyconvex_h_g_o.html" target="_top" xlink:title="DirichletInletOutlet\l_PolyconvexHGO">
<polygon fill="#ffffff" stroke="#000000" points="449.7427,-141.5 449.7427,-169.5 547.4419,-169.5 547.4419,-141.5 449.7427,-141.5"/>
<text text-anchor="start" x="457.7427" y="-157.5" font-family="Helvetica,sans-Serif" font-size="10.00" fill="#000000">DirichletInletOutlet</text>
<text text-anchor="middle" x="498.5923" y="-147.5" font-family="Helvetica,sans-Serif" font-size="10.00" fill="#000000">_PolyconvexHGO</text>
</a>
</g>
</g>
<!-- Node0&#45;&gt;Node3 -->
<g id="edge3" class="edge">
<title>Node0&#45;&gt;Node3</title>
<path fill="none" stroke="#191970" d="M361.0926,-98.6662C379.0605,-108.9083 404.4572,-122.6243 427.7871,-132.5 435.2856,-135.6741 443.3816,-138.679 451.3268,-141.4055"/>
<polygon fill="#191970" stroke="#191970" points="362.8351,-95.6308 352.4241,-93.6656 359.3373,-101.6942 362.8351,-95.6308"/>
</g>
<!-- Node4 -->
<g id="node5" class="node">
<title>Node4</title>
<g id="a_node5"><a xlink:href="../../d0/de4/class_dirichlet_strip_elongation___stochastic_polyconvex_h_g_o.html" target="_top" xlink:title="DirichletStripElongation\l_StochasticPolyconvexHGO">
<polygon fill="#ffffff" stroke="#000000" points="427.7871,-94.5 427.7871,-122.5 569.3975,-122.5 569.3975,-94.5 427.7871,-94.5"/>
<text text-anchor="start" x="435.7871" y="-110.5" font-family="Helvetica,sans-Serif" font-size="10.00" fill="#000000">DirichletStripElongation</text>
<text text-anchor="middle" x="498.5923" y="-100.5" font-family="Helvetica,sans-Serif" font-size="10.00" fill="#000000">_StochasticPolyconvexHGO</text>
</a>
</g>
</g>
<!-- Node0&#45;&gt;Node4 -->
<g id="edge4" class="edge">
<title>Node0&#45;&gt;Node4</title>
<path fill="none" stroke="#191970" d="M402.2925,-94.1889C410.6638,-95.433 419.267,-96.7115 427.7234,-97.9682"/>
<polygon fill="#191970" stroke="#191970" points="402.6275,-90.7004 392.2217,-92.6923 401.5985,-97.6243 402.6275,-90.7004"/>
</g>
<!-- Node5 -->
<g id="node6" class="node">
<title>Node5</title>
<g id="a_node6"><a xlink:href="../../de/d4c/class_neumann_inner_surface___polyconvex_h_g_o.html" target="_top" xlink:title="NeumannInnerSurface\l_PolyconvexHGO">
<polygon fill="#ffffff" stroke="#000000" points="440.2847,-47.5 440.2847,-75.5 556.8999,-75.5 556.8999,-47.5 440.2847,-47.5"/>
<text text-anchor="start" x="448.2847" y="-63.5" font-family="Helvetica,sans-Serif" font-size="10.00" fill="#000000">NeumannInnerSurface</text>
<text text-anchor="middle" x="498.5923" y="-53.5" font-family="Helvetica,sans-Serif" font-size="10.00" fill="#000000">_PolyconvexHGO</text>
</a>
</g>
</g>
<!-- Node0&#45;&gt;Node5 -->
<g id="edge5" class="edge">
<title>Node0&#45;&gt;Node5</title>
<path fill="none" stroke="#191970" d="M402.1556,-75.2343C414.7136,-73.4458 427.7982,-71.5823 440.1303,-69.826"/>
<polygon fill="#191970" stroke="#191970" points="401.6282,-71.774 392.2217,-76.649 402.6153,-78.704 401.6282,-71.774"/>
</g>
<!-- Node6 -->
<g id="node7" class="node">
<title>Node6</title>
<g id="a_node7"><a xlink:href="../../dd/d43/class_neumann_inner_surface___stochastic_polyconvex_h_g_o.html" target="_top" xlink:title="NeumannInnerSurface\l_StochasticPolyconvexHGO">
<polygon fill="#ffffff" stroke="#000000" points="427.7871,-.5 427.7871,-28.5 569.3975,-28.5 569.3975,-.5 427.7871,-.5"/>
<text text-anchor="start" x="435.7871" y="-16.5" font-family="Helvetica,sans-Serif" font-size="10.00" fill="#000000">NeumannInnerSurface</text>
<text text-anchor="middle" x="498.5923" y="-6.5" font-family="Helvetica,sans-Serif" font-size="10.00" fill="#000000">_StochasticPolyconvexHGO</text>
</a>
</g>
</g>
<!-- Node0&#45;&gt;Node6 -->
<g id="edge6" class="edge">
<title>Node0&#45;&gt;Node6</title>
<path fill="none" stroke="#191970" d="M361.9503,-70.2088C379.8837,-60.2493 404.8719,-47.0834 427.7871,-37.5 435.4185,-34.3085 443.6595,-31.2752 451.7284,-28.5205"/>
<polygon fill="#191970" stroke="#191970" points="359.7731,-67.4176 352.7711,-75.3689 363.2033,-73.5195 359.7731,-67.4176"/>
</g>
<!-- Node1 -->
<g id="node2" class="node">
<title>Node1</title>
<g id="a_node2"><a xlink:href="../../d8/dc2/class_finite___element___problem.html" target="_top" xlink:title="Finite_Element_Problem">
<polygon fill="#ffffff" stroke="#000000" points="120.9063,-75.5 120.9063,-93.5 246.4033,-93.5 246.4033,-75.5 120.9063,-75.5"/>
<text text-anchor="middle" x="183.6548" y="-81.5" font-family="Helvetica,sans-Serif" font-size="10.00" fill="#000000">Finite_Element_Problem</text>
</a>
</g>
</g>
<!-- Node1&#45;&gt;Node0 -->
<g id="edge1" class="edge">
<title>Node1&#45;&gt;Node0</title>
<path fill="none" stroke="#191970" d="M256.7838,-84.5C265.2551,-84.5 273.7849,-84.5 281.9588,-84.5"/>
<polygon fill="#191970" stroke="#191970" points="256.5076,-81.0001 246.5076,-84.5 256.5076,-88.0001 256.5076,-81.0001"/>
</g>
<!-- Node2 -->
<g id="node3" class="node">
<title>Node2</title>
<g id="a_node3"><a xlink:href="../../d2/d97/class_base_class_f_e_m.html" target="_top" xlink:title="BaseClassFEM">
<polygon fill="#ffffff" stroke="#000000" points="0,-75.5 0,-93.5 84.9063,-93.5 84.9063,-75.5 0,-75.5"/>
<text text-anchor="middle" x="42.4531" y="-81.5" font-family="Helvetica,sans-Serif" font-size="10.00" fill="#000000">BaseClassFEM</text>
</a>
</g>
</g>
<!-- Node2&#45;&gt;Node1 -->
<g id="edge2" class="edge">
<title>Node2&#45;&gt;Node1</title>
<path fill="none" stroke="#191970" d="M95.4354,-84.5C103.6889,-84.5 112.2856,-84.5 120.7338,-84.5"/>
<polygon fill="#191970" stroke="#191970" points="95.2015,-81.0001 85.2015,-84.5 95.2014,-88.0001 95.2015,-81.0001"/>
</g>
</g>
</svg>
        <g id="navigator" transform="translate(0 0)" fill="#404254">
                <rect fill="#f2f5e9" fill-opacity="0.5" stroke="#606060" stroke-width=".5" x="0" y="0" width="60" height="60"/>
                <use id="zoomplus" xlink:href="#zoomPlus" x="17" y="9" onmousedown="handleZoom(evt,'in')"/>
                <use id="zoomminus" xlink:href="#zoomMin" x="42" y="9" onmousedown="handleZoom(evt,'out')"/>
                <use id="reset" xlink:href="#resetDef" x="30" y="36" onmousedown="handleReset()"/>
                <g id="arrowUp" xlink:href="#dirArrow" transform="translate(30 24)" onmousedown="handlePan(0,-1)">
                  <use xlink:href="#rim" fill="#404040">
                        <set attributeName="fill" to="#808080" begin="arrowUp.mouseover" end="arrowUp.mouseout"/>
                  </use>
                  <path fill="none" stroke="white" stroke-width="1.5" d="M0,-3.0v7 M-2.5,-0.5L0,-3.0L2.5,-0.5"/>
                </g>
                <g id="arrowRight" xlink:href="#dirArrow" transform="rotate(90) translate(36 -43)" onmousedown="handlePan(1,0)">
                  <use xlink:href="#rim" fill="#404040">
                        <set attributeName="fill" to="#808080" begin="arrowRight.mouseover" end="arrowRight.mouseout"/>
                  </use>
                  <path fill="none" stroke="white" stroke-width="1.5" d="M0,-3.0v7 M-2.5,-0.5L0,-3.0L2.5,-0.5"/>
                </g>
                <g id="arrowDown" xlink:href="#dirArrow" transform="rotate(180) translate(-30 -48)" onmousedown="handlePan(0,1)">
                  <use xlink:href="#rim" fill="#404040">
                        <set attributeName="fill" to="#808080" begin="arrowDown.mouseover" end="arrowDown.mouseout"/>
                  </use>
                  <path fill="none" stroke="white" stroke-width="1.5" d="M0,-3.0v7 M-2.5,-0.5L0,-3.0L2.5,-0.5"/>
                </g>
                <g id="arrowLeft" xlink:href="#dirArrow" transform="rotate(270) translate(-36 17)" onmousedown="handlePan(-1,0)">
                  <use xlink:href="#rim" fill="#404040">
                        <set attributeName="fill" to="#808080" begin="arrowLeft.mouseover" end="arrowLeft.mouseout"/>
                  </use>
                  <path fill="none" stroke="white" stroke-width="1.5" d="M0,-3.0v7 M-2.5,-0.5L0,-3.0L2.5,-0.5"/>
                </g>
        </g>
        <svg viewBox="0 0 15 15" width="100%" height="30px" preserveAspectRatio="xMaxYMin meet">
         <g id="arrow_out" transform="scale(0.3 0.3)">
          <a xlink:href="classhyperelasticity__setup__inherit__graph_org.svg" target="_base">
           <rect id="button" ry="5" rx="5" y="6" x="6" height="38" width="38"
                fill="#f2f5e9" fill-opacity="0.5" stroke="#606060" stroke-width="1.0"/>
           <path id="arrow"
             d="M 11.500037,31.436501 C 11.940474,20.09759 22.043105,11.32322 32.158766,21.979434 L 37.068811,17.246167 C 37.068811,17.246167 37.088388,32 37.088388,32 L 22.160133,31.978069 C 22.160133,31.978069 26.997745,27.140456 26.997745,27.140456 C 18.528582,18.264221 13.291696,25.230495 11.500037,31.436501 z"
             style="fill:#404040;"/>
          </a>
         </g>
        </svg>
</svg>
