<?xml version="1.0" encoding="UTF-8" standalone="no"?>
<!DOCTYPE svg PUBLIC "-//W3C//DTD SVG 1.1//EN"
 "http://www.w3.org/Graphics/SVG/1.1/DTD/svg11.dtd">
<!-- Generated by graphviz version 2.40.1 (20161225.0304)
 -->
<!-- Title: src/linearizedElasticity.hpp Pages: 1 -->
<svg width="703pt" height="157pt"
 viewBox="0.00 0.00 702.58 157.00" xmlns="http://www.w3.org/2000/svg" xmlns:xlink="http://www.w3.org/1999/xlink">
<g id="graph0" class="graph" transform="scale(1 1) rotate(0) translate(4 153)">
<title>src/linearizedElasticity.hpp</title>
<polygon fill="#ffffff" stroke="transparent" points="-4,4 -4,-153 698.5767,-153 698.5767,4 -4,4"/>
<!-- Node35 -->
<g id="node1" class="node">
<title>Node35</title>
<polygon fill="#bfbfbf" stroke="#000000" points="289.7676,-130.5 289.7676,-148.5 422.8574,-148.5 422.8574,-130.5 289.7676,-130.5"/>
<text text-anchor="middle" x="356.3125" y="-136.5" font-family="Helvetica,sans-Serif" font-size="10.00" fill="#000000">src/linearizedElasticity.hpp</text>
</g>
<!-- Node36 -->
<g id="node2" class="node">
<title>Node36</title>
<g id="a_node2"><a xlink:href="../../de/d5d/linear_patch_test_8hpp.html" target="_top" xlink:title="cee530/linearpatchtest\l/linearPatchTest.hpp">
<polygon fill="#ffffff" stroke="#000000" points="0,-65.5 0,-93.5 116.625,-93.5 116.625,-65.5 0,-65.5"/>
<text text-anchor="start" x="8" y="-81.5" font-family="Helvetica,sans-Serif" font-size="10.00" fill="#000000">cee530/linearpatchtest</text>
<text text-anchor="middle" x="58.3125" y="-71.5" font-family="Helvetica,sans-Serif" font-size="10.00" fill="#000000">/linearPatchTest.hpp</text>
</a>
</g>
</g>
<!-- Node35&#45;&gt;Node36 -->
<g id="edge1" class="edge">
<title>Node35&#45;&gt;Node36</title>
<path fill="none" stroke="#191970" d="M298.9762,-128.5147C252.1977,-119.4781 184.421,-106.2162 125.3125,-94 122.5153,-93.4219 119.6537,-92.8247 116.7644,-92.2172"/>
<polygon fill="#191970" stroke="#191970" points="298.4405,-131.9758 308.9225,-130.4336 299.7666,-125.1026 298.4405,-131.9758"/>
</g>
<!-- Node38 -->
<g id="node4" class="node">
<title>Node38</title>
<g id="a_node4"><a xlink:href="../../d4/d56/cee530_2manufactured_2manufactured_solution_8hpp.html" target="_top" xlink:title="cee530/manufactured\l/manufacturedSolution.hpp">
<polygon fill="#ffffff" stroke="#000000" points="134.5493,-65.5 134.5493,-93.5 270.0757,-93.5 270.0757,-65.5 134.5493,-65.5"/>
<text text-anchor="start" x="142.5493" y="-81.5" font-family="Helvetica,sans-Serif" font-size="10.00" fill="#000000">cee530/manufactured</text>
<text text-anchor="middle" x="202.3125" y="-71.5" font-family="Helvetica,sans-Serif" font-size="10.00" fill="#000000">/manufacturedSolution.hpp</text>
</a>
</g>
</g>
<!-- Node35&#45;&gt;Node38 -->
<g id="edge3" class="edge">
<title>Node35&#45;&gt;Node38</title>
<path fill="none" stroke="#191970" d="M323.4962,-126.7144C298.468,-116.9632 264.0264,-103.5444 238.2562,-93.504"/>
<polygon fill="#191970" stroke="#191970" points="322.3348,-130.0182 332.9232,-130.3873 324.8761,-123.4957 322.3348,-130.0182"/>
</g>
<!-- Node40 -->
<g id="node6" class="node">
<title>Node40</title>
<g id="a_node6"><a xlink:href="../../d4/d57/cee_s_b_v_p_8hpp.html" target="_top" xlink:title="cee530/sbvp/ceeSBVP.hpp">
<polygon fill="#ffffff" stroke="#000000" points="288.0806,-70.5 288.0806,-88.5 424.5444,-88.5 424.5444,-70.5 288.0806,-70.5"/>
<text text-anchor="middle" x="356.3125" y="-76.5" font-family="Helvetica,sans-Serif" font-size="10.00" fill="#000000">cee530/sbvp/ceeSBVP.hpp</text>
</a>
</g>
</g>
<!-- Node35&#45;&gt;Node40 -->
<g id="edge5" class="edge">
<title>Node35&#45;&gt;Node40</title>
<path fill="none" stroke="#191970" d="M356.3125,-120.3734C356.3125,-109.7812 356.3125,-97.0976 356.3125,-88.6985"/>
<polygon fill="#191970" stroke="#191970" points="352.8126,-120.3873 356.3125,-130.3873 359.8126,-120.3873 352.8126,-120.3873"/>
</g>
<!-- Node42 -->
<g id="node8" class="node">
<title>Node42</title>
<g id="a_node8"><a xlink:href="../../dc/d64/asme_s_b_v_p_8hpp.html" target="_top" xlink:title="src/asmeSBVP.hpp">
<polygon fill="#ffffff" stroke="#000000" points="442.605,-70.5 442.605,-88.5 544.02,-88.5 544.02,-70.5 442.605,-70.5"/>
<text text-anchor="middle" x="493.3125" y="-76.5" font-family="Helvetica,sans-Serif" font-size="10.00" fill="#000000">src/asmeSBVP.hpp</text>
</a>
</g>
</g>
<!-- Node35&#45;&gt;Node42 -->
<g id="edge7" class="edge">
<title>Node35&#45;&gt;Node42</title>
<path fill="none" stroke="#191970" d="M386.5642,-126.2511C412.7453,-114.7849 449.8975,-98.5139 472.7582,-88.5019"/>
<polygon fill="#191970" stroke="#191970" points="384.8758,-123.1695 377.1199,-130.3873 387.684,-129.5816 384.8758,-123.1695"/>
</g>
<!-- Node44 -->
<g id="node10" class="node">
<title>Node44</title>
<g id="a_node10"><a xlink:href="../../df/d96/linearized_elasticity_8cpp.html" target="_top" xlink:title="src/linearizedElasticity.cpp">
<polygon fill="#ffffff" stroke="#000000" points="562.0483,-70.5 562.0483,-88.5 694.5767,-88.5 694.5767,-70.5 562.0483,-70.5"/>
<text text-anchor="middle" x="628.3125" y="-76.5" font-family="Helvetica,sans-Serif" font-size="10.00" fill="#000000">src/linearizedElasticity.cpp</text>
</a>
</g>
</g>
<!-- Node35&#45;&gt;Node44 -->
<g id="edge9" class="edge">
<title>Node35&#45;&gt;Node44</title>
<path fill="none" stroke="#191970" d="M407.3614,-128.2392C459.4659,-116.7456 539.3173,-99.1313 587.4085,-88.5229"/>
<polygon fill="#191970" stroke="#191970" points="406.3394,-124.8804 397.3282,-130.4524 407.8474,-131.7161 406.3394,-124.8804"/>
</g>
<!-- Node37 -->
<g id="node3" class="node">
<title>Node37</title>
<g id="a_node3"><a xlink:href="../../d0/d30/cee530_2linearpatchtest_2main_8cpp.html" target="_top" xlink:title="cee530/linearpatchtest\l/main.cpp">
<polygon fill="#ffffff" stroke="#000000" points="0,-.5 0,-28.5 116.625,-28.5 116.625,-.5 0,-.5"/>
<text text-anchor="start" x="8" y="-16.5" font-family="Helvetica,sans-Serif" font-size="10.00" fill="#000000">cee530/linearpatchtest</text>
<text text-anchor="middle" x="58.3125" y="-6.5" font-family="Helvetica,sans-Serif" font-size="10.00" fill="#000000">/main.cpp</text>
</a>
</g>
</g>
<!-- Node36&#45;&gt;Node37 -->
<g id="edge2" class="edge">
<title>Node36&#45;&gt;Node37</title>
<path fill="none" stroke="#191970" d="M58.3125,-55.1081C58.3125,-46.1539 58.3125,-36.3227 58.3125,-28.5765"/>
<polygon fill="#191970" stroke="#191970" points="54.8126,-55.3959 58.3125,-65.396 61.8126,-55.396 54.8126,-55.3959"/>
</g>
<!-- Node39 -->
<g id="node5" class="node">
<title>Node39</title>
<g id="a_node5"><a xlink:href="../../d8/d17/cee530_2manufactured_2main_8cpp.html" target="_top" xlink:title="cee530/manufactured\l/main.cpp">
<polygon fill="#ffffff" stroke="#000000" points="145.9458,-.5 145.9458,-28.5 258.6792,-28.5 258.6792,-.5 145.9458,-.5"/>
<text text-anchor="start" x="153.9458" y="-16.5" font-family="Helvetica,sans-Serif" font-size="10.00" fill="#000000">cee530/manufactured</text>
<text text-anchor="middle" x="202.3125" y="-6.5" font-family="Helvetica,sans-Serif" font-size="10.00" fill="#000000">/main.cpp</text>
</a>
</g>
</g>
<!-- Node38&#45;&gt;Node39 -->
<g id="edge4" class="edge">
<title>Node38&#45;&gt;Node39</title>
<path fill="none" stroke="#191970" d="M202.3125,-55.1081C202.3125,-46.1539 202.3125,-36.3227 202.3125,-28.5765"/>
<polygon fill="#191970" stroke="#191970" points="198.8126,-55.3959 202.3125,-65.396 205.8126,-55.396 198.8126,-55.3959"/>
</g>
<!-- Node41 -->
<g id="node7" class="node">
<title>Node41</title>
<g id="a_node7"><a xlink:href="../../dc/d51/cee530_2sbvp_2main_8cpp.html" target="_top" xlink:title="cee530/sbvp/main.cpp">
<polygon fill="#ffffff" stroke="#000000" points="298.2808,-5.5 298.2808,-23.5 414.3442,-23.5 414.3442,-5.5 298.2808,-5.5"/>
<text text-anchor="middle" x="356.3125" y="-11.5" font-family="Helvetica,sans-Serif" font-size="10.00" fill="#000000">cee530/sbvp/main.cpp</text>
</a>
</g>
</g>
<!-- Node40&#45;&gt;Node41 -->
<g id="edge6" class="edge">
<title>Node40&#45;&gt;Node41</title>
<path fill="none" stroke="#191970" d="M356.3125,-60.1265C356.3125,-48.1522 356.3125,-33.3205 356.3125,-23.8821"/>
<polygon fill="#191970" stroke="#191970" points="352.8126,-60.462 356.3125,-70.462 359.8126,-60.4621 352.8126,-60.462"/>
</g>
<!-- Node43 -->
<g id="node9" class="node">
<title>Node43</title>
<g id="a_node9"><a xlink:href="../../d2/ded/asme_2linearelaslam_2main_8cpp.html" target="_top" xlink:title="asme/linearelaslam\l/main.cpp">
<polygon fill="#ffffff" stroke="#000000" points="442.2388,-.5 442.2388,-28.5 544.3862,-28.5 544.3862,-.5 442.2388,-.5"/>
<text text-anchor="start" x="450.2388" y="-16.5" font-family="Helvetica,sans-Serif" font-size="10.00" fill="#000000">asme/linearelaslam</text>
<text text-anchor="middle" x="493.3125" y="-6.5" font-family="Helvetica,sans-Serif" font-size="10.00" fill="#000000">/main.cpp</text>
</a>
</g>
</g>
<!-- Node42&#45;&gt;Node43 -->
<g id="edge8" class="edge">
<title>Node42&#45;&gt;Node43</title>
<path fill="none" stroke="#191970" d="M493.3125,-60.2652C493.3125,-50.2384 493.3125,-38.1782 493.3125,-28.9559"/>
<polygon fill="#191970" stroke="#191970" points="489.8126,-60.462 493.3125,-70.462 496.8126,-60.4621 489.8126,-60.462"/>
</g>
</g>
</svg>
