<?xml version="1.0" encoding="UTF-8" standalone="no"?>
<!DOCTYPE svg PUBLIC "-//W3C//DTD SVG 1.1//EN"
 "http://www.w3.org/Graphics/SVG/1.1/DTD/svg11.dtd">
<!-- Generated by graphviz version 2.40.1 (20161225.0304)
 -->
<!-- Title: src/Compressible_Mooney_Transverse_Isotropic_Random_Field.hpp Pages: 1 -->
<svg width="680pt" height="187pt"
 viewBox="0.00 0.00 679.68 187.00" xmlns="http://www.w3.org/2000/svg" xmlns:xlink="http://www.w3.org/1999/xlink">
<g id="graph0" class="graph" transform="scale(1 1) rotate(0) translate(4 183)">
<title>src/Compressible_Mooney_Transverse_Isotropic_Random_Field.hpp</title>
<polygon fill="#ffffff" stroke="transparent" points="-4,4 -4,-183 675.6841,-183 675.6841,4 -4,4"/>
<!-- Node45 -->
<g id="node1" class="node">
<title>Node45</title>
<polygon fill="#bfbfbf" stroke="#000000" points="255.3027,-140.5 255.3027,-178.5 389.6816,-178.5 389.6816,-140.5 255.3027,-140.5"/>
<text text-anchor="start" x="263.3027" y="-166.5" font-family="Helvetica,sans-Serif" font-size="10.00" fill="#000000">src/Compressible_Mooney</text>
<text text-anchor="start" x="263.3027" y="-156.5" font-family="Helvetica,sans-Serif" font-size="10.00" fill="#000000">_Transverse_Isotropic</text>
<text text-anchor="middle" x="322.4922" y="-146.5" font-family="Helvetica,sans-Serif" font-size="10.00" fill="#000000">_Random_Field.hpp</text>
</g>
<!-- Node46 -->
<g id="node2" class="node">
<title>Node46</title>
<g id="a_node2"><a xlink:href="../../df/df6/forward_costfunction_8hpp.html" target="_top" xlink:title="nrl/old_tests/forward\l_randomfield/forwardCostfunction.hpp">
<polygon fill="#ffffff" stroke="#000000" points="0,-70.5 0,-98.5 184.9844,-98.5 184.9844,-70.5 0,-70.5"/>
<text text-anchor="start" x="8" y="-86.5" font-family="Helvetica,sans-Serif" font-size="10.00" fill="#000000">nrl/old_tests/forward</text>
<text text-anchor="middle" x="92.4922" y="-76.5" font-family="Helvetica,sans-Serif" font-size="10.00" fill="#000000">_randomfield/forwardCostfunction.hpp</text>
</a>
</g>
</g>
<!-- Node45&#45;&gt;Node46 -->
<g id="edge1" class="edge">
<title>Node45&#45;&gt;Node46</title>
<path fill="none" stroke="#191970" d="M254.5569,-137.3472C216.025,-124.7824 168.9738,-109.4397 135.5157,-98.5294"/>
<polygon fill="#191970" stroke="#191970" points="253.5637,-140.7047 264.1561,-140.4774 255.7339,-134.0495 253.5637,-140.7047"/>
</g>
<!-- Node48 -->
<g id="node4" class="node">
<title>Node48</title>
<g id="a_node4"><a xlink:href="../../d8/d41/nrl_2old__tests_2test__parallel__shinozuka_2main_8cpp.html" target="_top" xlink:title="nrl/old_tests/test\l_parallel_shinozuka\l/main.cpp">
<polygon fill="#ffffff" stroke="#000000" points="203.2954,-65.5 203.2954,-103.5 307.689,-103.5 307.689,-65.5 203.2954,-65.5"/>
<text text-anchor="start" x="211.2954" y="-91.5" font-family="Helvetica,sans-Serif" font-size="10.00" fill="#000000">nrl/old_tests/test</text>
<text text-anchor="start" x="211.2954" y="-81.5" font-family="Helvetica,sans-Serif" font-size="10.00" fill="#000000">_parallel_shinozuka</text>
<text text-anchor="middle" x="255.4922" y="-71.5" font-family="Helvetica,sans-Serif" font-size="10.00" fill="#000000">/main.cpp</text>
</a>
</g>
</g>
<!-- Node45&#45;&gt;Node48 -->
<g id="edge3" class="edge">
<title>Node45&#45;&gt;Node48</title>
<path fill="none" stroke="#191970" d="M298.3607,-132.4872C289.8651,-122.9771 280.4952,-112.4885 272.6879,-103.7489"/>
<polygon fill="#191970" stroke="#191970" points="295.9657,-135.0598 305.238,-140.1856 301.186,-130.3962 295.9657,-135.0598"/>
</g>
<!-- Node49 -->
<g id="node5" class="node">
<title>Node49</title>
<g id="a_node5"><a xlink:href="../../d2/d16/nrl_2randomfields_2main_8cpp.html" target="_top" xlink:title="nrl/randomfields/main.cpp">
<polygon fill="#ffffff" stroke="#000000" points="325.2437,-75.5 325.2437,-93.5 455.7407,-93.5 455.7407,-75.5 325.2437,-75.5"/>
<text text-anchor="middle" x="390.4922" y="-81.5" font-family="Helvetica,sans-Serif" font-size="10.00" fill="#000000">nrl/randomfields/main.cpp</text>
</a>
</g>
</g>
<!-- Node45&#45;&gt;Node49 -->
<g id="edge4" class="edge">
<title>Node45&#45;&gt;Node49</title>
<path fill="none" stroke="#191970" d="M346.9838,-132.4872C359.2852,-118.9195 373.3924,-103.36 382.1242,-93.7294"/>
<polygon fill="#191970" stroke="#191970" points="344.1279,-130.4264 340.0039,-140.1856 349.3137,-135.1282 344.1279,-130.4264"/>
</g>
<!-- Node50 -->
<g id="node6" class="node">
<title>Node50</title>
<g id="a_node6"><a xlink:href="../../d9/dc1/_random_generator_for_p_c_a__and_likelihood_8hpp.html" target="_top" xlink:title="src/RandomGeneratorForPCA\l_andLikelihood.hpp">
<polygon fill="#ffffff" stroke="#000000" points="473.2461,-70.5 473.2461,-98.5 623.7383,-98.5 623.7383,-70.5 473.2461,-70.5"/>
<text text-anchor="start" x="481.2461" y="-86.5" font-family="Helvetica,sans-Serif" font-size="10.00" fill="#000000">src/RandomGeneratorForPCA</text>
<text text-anchor="middle" x="548.4922" y="-76.5" font-family="Helvetica,sans-Serif" font-size="10.00" fill="#000000">_andLikelihood.hpp</text>
</a>
</g>
</g>
<!-- Node45&#45;&gt;Node50 -->
<g id="edge5" class="edge">
<title>Node45&#45;&gt;Node50</title>
<path fill="none" stroke="#191970" d="M389.7277,-137.1873C427.4994,-124.6525 473.48,-109.3934 506.2169,-98.5294"/>
<polygon fill="#191970" stroke="#191970" points="388.2023,-134.0058 379.8137,-140.4774 390.4071,-140.6495 388.2023,-134.0058"/>
</g>
<!-- Node47 -->
<g id="node3" class="node">
<title>Node47</title>
<g id="a_node3"><a xlink:href="../../d9/d16/nrl_2old__tests_2forward__randomfield_2main_8cpp.html" target="_top" xlink:title="nrl/old_tests/forward\l_randomfield/main.cpp">
<polygon fill="#ffffff" stroke="#000000" points="33.9087,-.5 33.9087,-28.5 151.0757,-28.5 151.0757,-.5 33.9087,-.5"/>
<text text-anchor="start" x="41.9087" y="-16.5" font-family="Helvetica,sans-Serif" font-size="10.00" fill="#000000">nrl/old_tests/forward</text>
<text text-anchor="middle" x="92.4922" y="-6.5" font-family="Helvetica,sans-Serif" font-size="10.00" fill="#000000">_randomfield/main.cpp</text>
</a>
</g>
</g>
<!-- Node46&#45;&gt;Node47 -->
<g id="edge2" class="edge">
<title>Node46&#45;&gt;Node47</title>
<path fill="none" stroke="#191970" d="M92.4922,-60.0725C92.4922,-49.5646 92.4922,-37.6536 92.4922,-28.6445"/>
<polygon fill="#191970" stroke="#191970" points="88.9923,-60.3344 92.4922,-70.3345 95.9923,-60.3345 88.9923,-60.3344"/>
</g>
<!-- Node51 -->
<g id="node7" class="node">
<title>Node51</title>
<g id="a_node7"><a xlink:href="../../d5/daf/nrl_2random__generator__for__pca__likelihood_2main_8cpp.html" target="_top" xlink:title="nrl/random_generator\l_for_pca_likelihood/main.cpp">
<polygon fill="#ffffff" stroke="#000000" points="403.729,-.5 403.729,-28.5 549.2554,-28.5 549.2554,-.5 403.729,-.5"/>
<text text-anchor="start" x="411.729" y="-16.5" font-family="Helvetica,sans-Serif" font-size="10.00" fill="#000000">nrl/random_generator</text>
<text text-anchor="middle" x="476.4922" y="-6.5" font-family="Helvetica,sans-Serif" font-size="10.00" fill="#000000">_for_pca_likelihood/main.cpp</text>
</a>
</g>
</g>
<!-- Node50&#45;&gt;Node51 -->
<g id="edge6" class="edge">
<title>Node50&#45;&gt;Node51</title>
<path fill="none" stroke="#191970" d="M526.7267,-63.3391C515.1709,-52.1043 501.2827,-38.6019 491.0408,-28.6445"/>
<polygon fill="#191970" stroke="#191970" points="524.3122,-65.8731 533.9219,-70.3345 529.1917,-60.8541 524.3122,-65.8731"/>
</g>
<!-- Node52 -->
<g id="node8" class="node">
<title>Node52</title>
<g id="a_node8"><a xlink:href="../../db/d7d/nrl_2testing__solutions_2main_8cpp.html" target="_top" xlink:title="nrl/testing_solutions\l/main.cpp">
<polygon fill="#ffffff" stroke="#000000" points="567.3003,-.5 567.3003,-28.5 671.6841,-28.5 671.6841,-.5 567.3003,-.5"/>
<text text-anchor="start" x="575.3003" y="-16.5" font-family="Helvetica,sans-Serif" font-size="10.00" fill="#000000">nrl/testing_solutions</text>
<text text-anchor="middle" x="619.4922" y="-6.5" font-family="Helvetica,sans-Serif" font-size="10.00" fill="#000000">/main.cpp</text>
</a>
</g>
</g>
<!-- Node50&#45;&gt;Node52 -->
<g id="edge7" class="edge">
<title>Node50&#45;&gt;Node52</title>
<path fill="none" stroke="#191970" d="M570.2816,-63.0175C581.6112,-51.8475 595.1421,-38.5071 605.1456,-28.6445"/>
<polygon fill="#191970" stroke="#191970" points="567.5239,-60.8213 562.8601,-70.3345 572.4384,-65.8061 567.5239,-60.8213"/>
</g>
</g>
</svg>
