<?xml version="1.0" encoding="UTF-8" standalone="no"?>
<!DOCTYPE svg PUBLIC "-//W3C//DTD SVG 1.1//EN"
 "http://www.w3.org/Graphics/SVG/1.1/DTD/svg11.dtd">
<!-- Generated by graphviz version 2.40.1 (20161225.0304)
 -->
<!-- Title: nrl/manufactured_solution/main.cpp Pages: 1 -->
<svg width="3125pt" height="386pt"
 viewBox="0.00 0.00 3124.50 386.00" xmlns="http://www.w3.org/2000/svg" xmlns:xlink="http://www.w3.org/1999/xlink">
<g id="graph0" class="graph" transform="scale(1 1) rotate(0) translate(4 382)">
<title>nrl/manufactured_solution/main.cpp</title>
<polygon fill="#ffffff" stroke="transparent" points="-4,4 -4,-382 3120.5,-382 3120.5,4 -4,4"/>
<!-- Node0 -->
<g id="node1" class="node">
<title>Node0</title>
<polygon fill="#bfbfbf" stroke="#000000" points="2024.5,-347.5 2024.5,-377.5 2152.5,-377.5 2152.5,-347.5 2024.5,-347.5"/>
<text text-anchor="start" x="2032.5" y="-365.5" font-family="Helvetica,sans-Serif" font-size="10.00" fill="#000000">nrl/manufactured_solution</text>
<text text-anchor="middle" x="2088.5" y="-354.5" font-family="Helvetica,sans-Serif" font-size="10.00" fill="#000000">/main.cpp</text>
</g>
<!-- Node1 -->
<g id="node2" class="node">
<title>Node1</title>
<polygon fill="#ffffff" stroke="#bfbfbf" points="1905.5,-291.5 1905.5,-310.5 2013.5,-310.5 2013.5,-291.5 1905.5,-291.5"/>
<text text-anchor="middle" x="1959.5" y="-298.5" font-family="Helvetica,sans-Serif" font-size="10.00" fill="#000000">Epetra_ConfigDefs.h</text>
</g>
<!-- Node0&#45;&gt;Node1 -->
<g id="edge1" class="edge">
<title>Node0&#45;&gt;Node1</title>
<path fill="none" stroke="#191970" d="M2056.943,-347.4554C2036.0799,-337.509 2008.9309,-324.5659 1988.5902,-314.8686"/>
<polygon fill="#191970" stroke="#191970" points="1990.0233,-311.6744 1979.4904,-310.5303 1987.0109,-317.9931 1990.0233,-311.6744"/>
</g>
<!-- Node2 -->
<g id="node3" class="node">
<title>Node2</title>
<polygon fill="#ffffff" stroke="#bfbfbf" points="2032,-291.5 2032,-310.5 2145,-310.5 2145,-291.5 2032,-291.5"/>
<text text-anchor="middle" x="2088.5" y="-298.5" font-family="Helvetica,sans-Serif" font-size="10.00" fill="#000000">Epetra_SerialComm.h</text>
</g>
<!-- Node0&#45;&gt;Node2 -->
<g id="edge2" class="edge">
<title>Node0&#45;&gt;Node2</title>
<path fill="none" stroke="#191970" d="M2088.5,-347.2977C2088.5,-339.3834 2088.5,-329.6043 2088.5,-321.0759"/>
<polygon fill="#191970" stroke="#191970" points="2092.0001,-320.8469 2088.5,-310.8469 2085.0001,-320.847 2092.0001,-320.8469"/>
</g>
<!-- Node3 -->
<g id="node4" class="node">
<title>Node3</title>
<g id="a_node4"><a xlink:href="../../da/dcd/nrl_2manufactured__solution_2manufactured_solution_8hpp.html" target="_top" xlink:title="manufacturedSolution.hpp">
<polygon fill="#ffffff" stroke="#000000" points="2163.5,-291.5 2163.5,-310.5 2293.5,-310.5 2293.5,-291.5 2163.5,-291.5"/>
<text text-anchor="middle" x="2228.5" y="-298.5" font-family="Helvetica,sans-Serif" font-size="10.00" fill="#000000">manufacturedSolution.hpp</text>
</a>
</g>
</g>
<!-- Node0&#45;&gt;Node3 -->
<g id="edge3" class="edge">
<title>Node0&#45;&gt;Node3</title>
<path fill="none" stroke="#191970" d="M2122.7479,-347.4554C2145.5949,-337.419 2175.3879,-324.3314 2197.5267,-314.6061"/>
<polygon fill="#191970" stroke="#191970" points="2199.0571,-317.7567 2206.805,-310.5303 2196.2417,-311.3478 2199.0571,-317.7567"/>
</g>
<!-- Node4 -->
<g id="node5" class="node">
<title>Node4</title>
<g id="a_node5"><a xlink:href="../../de/d49/tensor__calculus_8hpp.html" target="_top" xlink:title="tensor_calculus.hpp">
<polygon fill="#ffffff" stroke="#000000" points="2287.5,-235.5 2287.5,-254.5 2391.5,-254.5 2391.5,-235.5 2287.5,-235.5"/>
<text text-anchor="middle" x="2339.5" y="-242.5" font-family="Helvetica,sans-Serif" font-size="10.00" fill="#000000">tensor_calculus.hpp</text>
</a>
</g>
</g>
<!-- Node3&#45;&gt;Node4 -->
<g id="edge4" class="edge">
<title>Node3&#45;&gt;Node4</title>
<path fill="none" stroke="#191970" d="M2247.5816,-291.3733C2265.2402,-282.4644 2291.7053,-269.1127 2311.7098,-259.0203"/>
<polygon fill="#191970" stroke="#191970" points="2313.3158,-262.1303 2320.6674,-254.5011 2310.1628,-255.8806 2313.3158,-262.1303"/>
</g>
<!-- Node37 -->
<g id="node35" class="node">
<title>Node37</title>
<g id="a_node35"><a xlink:href="../../d7/d17/_newton___raphsonpp_8hpp.html" target="_top" xlink:title="Newton_Raphsonpp.hpp">
<polygon fill="#ffffff" stroke="#000000" points="1836.5,-179.5 1836.5,-198.5 1960.5,-198.5 1960.5,-179.5 1836.5,-179.5"/>
<text text-anchor="middle" x="1898.5" y="-186.5" font-family="Helvetica,sans-Serif" font-size="10.00" fill="#000000">Newton_Raphsonpp.hpp</text>
</a>
</g>
</g>
<!-- Node3&#45;&gt;Node37 -->
<g id="edge34" class="edge">
<title>Node3&#45;&gt;Node37</title>
<path fill="none" stroke="#191970" d="M2200.3644,-291.4509C2141.0624,-271.3242 2003.2052,-224.5363 1936.2887,-201.8253"/>
<polygon fill="#191970" stroke="#191970" points="1937.1588,-198.4245 1926.5644,-198.5249 1934.909,-205.0532 1937.1588,-198.4245"/>
</g>
<!-- Node50 -->
<g id="node47" class="node">
<title>Node50</title>
<g id="a_node47"><a xlink:href="../../d5/d75/distributenrldata_8hpp.html" target="_top" xlink:title="distributenrldata.hpp">
<polygon fill="#ffffff" stroke="#000000" points="2728.5,-118 2728.5,-137 2832.5,-137 2832.5,-118 2728.5,-118"/>
<text text-anchor="middle" x="2780.5" y="-125" font-family="Helvetica,sans-Serif" font-size="10.00" fill="#000000">distributenrldata.hpp</text>
</a>
</g>
</g>
<!-- Node3&#45;&gt;Node50 -->
<g id="edge48" class="edge">
<title>Node3&#45;&gt;Node50</title>
<path fill="none" stroke="#191970" d="M2266.2307,-291.4887C2301.1804,-282.5413 2354.5395,-268.5326 2400.5,-255 2528.1226,-217.4228 2677.0638,-164.8607 2744.3013,-140.654"/>
<polygon fill="#191970" stroke="#191970" points="2745.7777,-143.8422 2753.9963,-137.156 2743.402,-137.2577 2745.7777,-143.8422"/>
</g>
<!-- Node52 -->
<g id="node49" class="node">
<title>Node52</title>
<g id="a_node49"><a xlink:href="../../da/d5c/compressible_hyperelasticity_8hpp.html" target="_top" xlink:title="compressibleHyperelasticity.hpp">
<polygon fill="#ffffff" stroke="#000000" points="1407.5,-235.5 1407.5,-254.5 1565.5,-254.5 1565.5,-235.5 1407.5,-235.5"/>
<text text-anchor="middle" x="1486.5" y="-242.5" font-family="Helvetica,sans-Serif" font-size="10.00" fill="#000000">compressibleHyperelasticity.hpp</text>
</a>
</g>
</g>
<!-- Node3&#45;&gt;Node52 -->
<g id="edge66" class="edge">
<title>Node3&#45;&gt;Node52</title>
<path fill="none" stroke="#191970" d="M2163.4872,-292.0739C2160.1119,-291.6912 2156.7674,-291.3302 2153.5,-291 1947.1716,-270.1514 1703.966,-255.9984 1575.8505,-249.3498"/>
<polygon fill="#191970" stroke="#191970" points="1575.8652,-245.846 1565.6982,-248.8262 1575.5046,-252.8367 1575.8652,-245.846"/>
</g>
<!-- Node5 -->
<g id="node6" class="node">
<title>Node5</title>
<g id="a_node6"><a xlink:href="../../d0/d02/meshpp_8hpp.html" target="_top" xlink:title="meshpp.hpp">
<polygon fill="#ffffff" stroke="#ff0000" points="1720.5,-56.5 1720.5,-75.5 1790.5,-75.5 1790.5,-56.5 1720.5,-56.5"/>
<text text-anchor="middle" x="1755.5" y="-63.5" font-family="Helvetica,sans-Serif" font-size="10.00" fill="#000000">meshpp.hpp</text>
</a>
</g>
</g>
<!-- Node4&#45;&gt;Node5 -->
<g id="edge5" class="edge">
<title>Node4&#45;&gt;Node5</title>
<path fill="none" stroke="#191970" d="M2369.337,-235.4156C2428.6941,-214.921 2551.789,-164.4176 2502.5,-112 2478.3822,-86.3513 1959.5135,-71.1572 1801.0519,-67.1027"/>
<polygon fill="#191970" stroke="#191970" points="1800.7956,-63.5952 1790.7102,-66.8409 1800.6184,-70.5929 1800.7956,-63.5952"/>
</g>
<!-- Node6 -->
<g id="node7" class="node">
<title>Node6</title>
<polygon fill="#ffffff" stroke="#bfbfbf" points="3070.5,-.5 3070.5,-19.5 3116.5,-19.5 3116.5,-.5 3070.5,-.5"/>
<text text-anchor="middle" x="3093.5" y="-7.5" font-family="Helvetica,sans-Serif" font-size="10.00" fill="#000000">stdio.h</text>
</g>
<!-- Node5&#45;&gt;Node6 -->
<g id="edge6" class="edge">
<title>Node5&#45;&gt;Node6</title>
<path fill="none" stroke="#191970" d="M1790.7802,-65.3211C1982.1536,-61.5646 2892.9146,-42.7229 3060.3218,-19.5837"/>
<polygon fill="#191970" stroke="#191970" points="3060.9073,-23.0349 3070.258,-18.0535 3059.8418,-16.1164 3060.9073,-23.0349"/>
</g>
<!-- Node7 -->
<g id="node8" class="node">
<title>Node7</title>
<polygon fill="#ffffff" stroke="#bfbfbf" points="2998.5,-.5 2998.5,-19.5 3052.5,-19.5 3052.5,-.5 2998.5,-.5"/>
<text text-anchor="middle" x="3025.5" y="-7.5" font-family="Helvetica,sans-Serif" font-size="10.00" fill="#000000">iostream</text>
</g>
<!-- Node5&#45;&gt;Node7 -->
<g id="edge7" class="edge">
<title>Node5&#45;&gt;Node7</title>
<path fill="none" stroke="#191970" d="M1790.7412,-65.7968C1964.177,-64.6299 2728.786,-57.4997 2988.011,-19.8398"/>
<polygon fill="#191970" stroke="#191970" points="2988.7611,-23.2663 2998.1273,-18.314 2987.7171,-16.3446 2988.7611,-23.2663"/>
</g>
<!-- Node8 -->
<g id="node9" class="node">
<title>Node8</title>
<polygon fill="#ffffff" stroke="#bfbfbf" points="2575,-.5 2575,-19.5 2624,-19.5 2624,-.5 2575,-.5"/>
<text text-anchor="middle" x="2599.5" y="-7.5" font-family="Helvetica,sans-Serif" font-size="10.00" fill="#000000">istream</text>
</g>
<!-- Node5&#45;&gt;Node8 -->
<g id="edge8" class="edge">
<title>Node5&#45;&gt;Node8</title>
<path fill="none" stroke="#191970" d="M1790.9136,-65.0692C1923.8596,-61.4107 2393.8377,-46.9597 2564.6825,-19.6737"/>
<polygon fill="#191970" stroke="#191970" points="2565.4876,-23.0877 2574.7729,-17.9854 2564.3324,-16.1837 2565.4876,-23.0877"/>
</g>
<!-- Node9 -->
<g id="node10" class="node">
<title>Node9</title>
<polygon fill="#ffffff" stroke="#bfbfbf" points="2642.5,-.5 2642.5,-19.5 2692.5,-19.5 2692.5,-.5 2642.5,-.5"/>
<text text-anchor="middle" x="2667.5" y="-7.5" font-family="Helvetica,sans-Serif" font-size="10.00" fill="#000000">fstream</text>
</g>
<!-- Node5&#45;&gt;Node9 -->
<g id="edge9" class="edge">
<title>Node5&#45;&gt;Node9</title>
<path fill="none" stroke="#191970" d="M1790.8777,-65.2106C1933.4727,-61.8644 2466.3227,-47.7309 2632.5,-20 2632.6013,-19.9831 2632.7027,-19.966 2632.8042,-19.9487"/>
<polygon fill="#191970" stroke="#191970" points="2633.3696,-23.4069 2642.4205,-17.8994 2631.9105,-16.5607 2633.3696,-23.4069"/>
</g>
<!-- Node10 -->
<g id="node11" class="node">
<title>Node10</title>
<polygon fill="#ffffff" stroke="#bfbfbf" points="2868.5,-.5 2868.5,-19.5 2912.5,-19.5 2912.5,-.5 2868.5,-.5"/>
<text text-anchor="middle" x="2890.5" y="-7.5" font-family="Helvetica,sans-Serif" font-size="10.00" fill="#000000">vector</text>
</g>
<!-- Node5&#45;&gt;Node10 -->
<g id="edge10" class="edge">
<title>Node5&#45;&gt;Node10</title>
<path fill="none" stroke="#191970" d="M1790.5261,-65.8117C1952.0641,-64.7521 2626.7619,-58.1837 2858.3027,-19.6827"/>
<polygon fill="#191970" stroke="#191970" points="2859.0768,-23.1008 2868.3321,-17.9443 2857.8813,-16.2036 2859.0768,-23.1008"/>
</g>
<!-- Node11 -->
<g id="node12" class="node">
<title>Node11</title>
<polygon fill="#ffffff" stroke="#bfbfbf" points="2930.5,-.5 2930.5,-19.5 2980.5,-19.5 2980.5,-.5 2930.5,-.5"/>
<text text-anchor="middle" x="2955.5" y="-7.5" font-family="Helvetica,sans-Serif" font-size="10.00" fill="#000000">iomanip</text>
</g>
<!-- Node5&#45;&gt;Node11 -->
<g id="edge11" class="edge">
<title>Node5&#45;&gt;Node11</title>
<path fill="none" stroke="#191970" d="M1790.7595,-65.779C1958.3147,-64.5525 2675.7309,-57.2736 2920.5058,-19.7091"/>
<polygon fill="#191970" stroke="#191970" points="2921.0855,-23.1609 2930.4094,-18.1295 2919.9829,-16.2483 2921.0855,-23.1609"/>
</g>
<!-- Node12 -->
<g id="node13" class="node">
<title>Node12</title>
<polygon fill="#ffffff" stroke="#bfbfbf" points="1319.5,-.5 1319.5,-19.5 1423.5,-19.5 1423.5,-.5 1319.5,-.5"/>
<text text-anchor="middle" x="1371.5" y="-7.5" font-family="Helvetica,sans-Serif" font-size="10.00" fill="#000000">Epetra_MpiComm.h</text>
</g>
<!-- Node5&#45;&gt;Node12 -->
<g id="edge12" class="edge">
<title>Node5&#45;&gt;Node12</title>
<path fill="none" stroke="#191970" d="M1720.0956,-61.2059C1662.3666,-53.3349 1544.1133,-36.9872 1433.7053,-20.1613"/>
<polygon fill="#191970" stroke="#191970" points="1434.146,-16.6881 1423.732,-18.6367 1433.0882,-23.6077 1434.146,-16.6881"/>
</g>
<!-- Node13 -->
<g id="node14" class="node">
<title>Node13</title>
<polygon fill="#ffffff" stroke="#bfbfbf" points="1442,-.5 1442,-19.5 1555,-19.5 1555,-.5 1442,-.5"/>
<text text-anchor="middle" x="1498.5" y="-7.5" font-family="Helvetica,sans-Serif" font-size="10.00" fill="#000000">Epetra_FECrsGraph.h</text>
</g>
<!-- Node5&#45;&gt;Node13 -->
<g id="edge13" class="edge">
<title>Node5&#45;&gt;Node13</title>
<path fill="none" stroke="#191970" d="M1720.3041,-58.3309C1676.8714,-48.8669 1602.5841,-32.6798 1552.0586,-21.6704"/>
<polygon fill="#191970" stroke="#191970" points="1552.8024,-18.2504 1542.2865,-19.541 1551.3121,-25.0899 1552.8024,-18.2504"/>
</g>
<!-- Node14 -->
<g id="node15" class="node">
<title>Node14</title>
<polygon fill="#ffffff" stroke="#bfbfbf" points="1573.5,-.5 1573.5,-19.5 1687.5,-19.5 1687.5,-.5 1573.5,-.5"/>
<text text-anchor="middle" x="1630.5" y="-7.5" font-family="Helvetica,sans-Serif" font-size="10.00" fill="#000000">Epetra_FECrsMatrix.h</text>
</g>
<!-- Node5&#45;&gt;Node14 -->
<g id="edge14" class="edge">
<title>Node5&#45;&gt;Node14</title>
<path fill="none" stroke="#191970" d="M1734.0117,-56.3733C1713.856,-47.3435 1683.512,-33.7494 1660.882,-23.6111"/>
<polygon fill="#191970" stroke="#191970" points="1662.2649,-20.3955 1651.7079,-19.5011 1659.4029,-26.7838 1662.2649,-20.3955"/>
</g>
<!-- Node15 -->
<g id="node16" class="node">
<title>Node15</title>
<polygon fill="#ffffff" stroke="#bfbfbf" points="1705.5,-.5 1705.5,-19.5 1805.5,-19.5 1805.5,-.5 1705.5,-.5"/>
<text text-anchor="middle" x="1755.5" y="-7.5" font-family="Helvetica,sans-Serif" font-size="10.00" fill="#000000">Epetra_FEVector.h</text>
</g>
<!-- Node5&#45;&gt;Node15 -->
<g id="edge15" class="edge">
<title>Node5&#45;&gt;Node15</title>
<path fill="none" stroke="#191970" d="M1755.5,-56.2455C1755.5,-48.9382 1755.5,-38.6944 1755.5,-29.7046"/>
<polygon fill="#191970" stroke="#191970" points="1759.0001,-29.6426 1755.5,-19.6427 1752.0001,-29.6427 1759.0001,-29.6426"/>
</g>
<!-- Node16 -->
<g id="node17" class="node">
<title>Node16</title>
<polygon fill="#ffffff" stroke="#bfbfbf" points="1824,-.5 1824,-19.5 1911,-19.5 1911,-.5 1824,-.5"/>
<text text-anchor="middle" x="1867.5" y="-7.5" font-family="Helvetica,sans-Serif" font-size="10.00" fill="#000000">Epetra_Vector.h</text>
</g>
<!-- Node5&#45;&gt;Node16 -->
<g id="edge16" class="edge">
<title>Node5&#45;&gt;Node16</title>
<path fill="none" stroke="#191970" d="M1774.7535,-56.3733C1792.5712,-47.4644 1819.2747,-34.1127 1839.4594,-24.0203"/>
<polygon fill="#191970" stroke="#191970" points="1841.1187,-27.1038 1848.4978,-19.5011 1837.9882,-20.8428 1841.1187,-27.1038"/>
</g>
<!-- Node17 -->
<g id="node18" class="node">
<title>Node17</title>
<polygon fill="#ffffff" stroke="#bfbfbf" points="1929,-.5 1929,-19.5 2006,-19.5 2006,-.5 1929,-.5"/>
<text text-anchor="middle" x="1967.5" y="-7.5" font-family="Helvetica,sans-Serif" font-size="10.00" fill="#000000">Epetra_Map.h</text>
</g>
<!-- Node5&#45;&gt;Node17 -->
<g id="edge17" class="edge">
<title>Node5&#45;&gt;Node17</title>
<path fill="none" stroke="#191970" d="M1790.5075,-56.7527C1826.3176,-47.2935 1882.1339,-32.5495 1921.4948,-22.1523"/>
<polygon fill="#191970" stroke="#191970" points="1922.6012,-25.4802 1931.3757,-19.5423 1920.8134,-18.7123 1922.6012,-25.4802"/>
</g>
<!-- Node18 -->
<g id="node19" class="node">
<title>Node18</title>
<polygon fill="#ffffff" stroke="#bfbfbf" points="2711,-.5 2711,-19.5 2850,-19.5 2850,-.5 2711,-.5"/>
<text text-anchor="middle" x="2780.5" y="-7.5" font-family="Helvetica,sans-Serif" font-size="10.00" fill="#000000">Epetra_SerialDenseMatrix.h</text>
</g>
<!-- Node5&#45;&gt;Node18 -->
<g id="edge18" class="edge">
<title>Node5&#45;&gt;Node18</title>
<path fill="none" stroke="#191970" d="M1790.7865,-65.2681C1914.3122,-62.4986 2338.8849,-51.2326 2700.5998,-20.0092"/>
<polygon fill="#191970" stroke="#191970" points="2701.0854,-23.4803 2710.7445,-19.1268 2700.4788,-16.5066 2701.0854,-23.4803"/>
</g>
<!-- Node19 -->
<g id="node20" class="node">
<title>Node19</title>
<polygon fill="#ffffff" stroke="#bfbfbf" points="2298.5,-.5 2298.5,-19.5 2438.5,-19.5 2438.5,-.5 2298.5,-.5"/>
<text text-anchor="middle" x="2368.5" y="-7.5" font-family="Helvetica,sans-Serif" font-size="10.00" fill="#000000">Epetra_SerialDenseVector.h</text>
</g>
<!-- Node5&#45;&gt;Node19 -->
<g id="edge19" class="edge">
<title>Node5&#45;&gt;Node19</title>
<path fill="none" stroke="#191970" d="M1790.5346,-63.4694C1874.4855,-57.3011 2093.9897,-40.5561 2288.1994,-20.1034"/>
<polygon fill="#191970" stroke="#191970" points="2288.7299,-23.5669 2298.3057,-19.0332 2287.9927,-16.6058 2288.7299,-23.5669"/>
</g>
<!-- Node20 -->
<g id="node21" class="node">
<title>Node20</title>
<polygon fill="#ffffff" stroke="#bfbfbf" points="2024.5,-.5 2024.5,-19.5 2176.5,-19.5 2176.5,-.5 2024.5,-.5"/>
<text text-anchor="middle" x="2100.5" y="-7.5" font-family="Helvetica,sans-Serif" font-size="10.00" fill="#000000">Epetra_IntSerialDenseVector.h</text>
</g>
<!-- Node5&#45;&gt;Node20 -->
<g id="edge20" class="edge">
<title>Node5&#45;&gt;Node20</title>
<path fill="none" stroke="#191970" d="M1790.7997,-60.2702C1847.3051,-51.0983 1959.0831,-32.9546 2031.7596,-21.1579"/>
<polygon fill="#191970" stroke="#191970" points="2032.4353,-24.5941 2041.7453,-19.537 2031.3137,-17.6845 2032.4353,-24.5941"/>
</g>
<!-- Node21 -->
<g id="node22" class="node">
<title>Node21</title>
<polygon fill="#ffffff" stroke="#bfbfbf" points="2194.5,-.5 2194.5,-19.5 2280.5,-19.5 2280.5,-.5 2194.5,-.5"/>
<text text-anchor="middle" x="2237.5" y="-7.5" font-family="Helvetica,sans-Serif" font-size="10.00" fill="#000000">Epetra_Import.h</text>
</g>
<!-- Node5&#45;&gt;Node21 -->
<g id="edge21" class="edge">
<title>Node5&#45;&gt;Node21</title>
<path fill="none" stroke="#191970" d="M1790.7418,-63.2325C1862.7476,-57.3625 2032.1054,-42.4546 2184.411,-20.0581"/>
<polygon fill="#191970" stroke="#191970" points="2185.0399,-23.5032 2194.4172,-18.5721 2184.0115,-16.5791 2185.0399,-23.5032"/>
</g>
<!-- Node22 -->
<g id="node23" class="node">
<title>Node22</title>
<polygon fill="#ffffff" stroke="#bfbfbf" points="0,-.5 0,-19.5 87,-19.5 87,-.5 0,-.5"/>
<text text-anchor="middle" x="43.5" y="-7.5" font-family="Helvetica,sans-Serif" font-size="10.00" fill="#000000">Epetra_Export.h</text>
</g>
<!-- Node5&#45;&gt;Node22 -->
<g id="edge22" class="edge">
<title>Node5&#45;&gt;Node22</title>
<path fill="none" stroke="#191970" d="M1720.2529,-65.7852C1512.7964,-64.4066 448.2856,-55.7278 97.2666,-19.8615"/>
<polygon fill="#191970" stroke="#191970" points="97.4021,-16.3565 87.0911,-18.7924 96.6706,-23.3182 97.4021,-16.3565"/>
</g>
<!-- Node23 -->
<g id="node24" class="node">
<title>Node23</title>
<polygon fill="#ffffff" stroke="#bfbfbf" points="105.5,-.5 105.5,-19.5 185.5,-19.5 185.5,-.5 105.5,-.5"/>
<text text-anchor="middle" x="145.5" y="-7.5" font-family="Helvetica,sans-Serif" font-size="10.00" fill="#000000">Epetra_Time.h</text>
</g>
<!-- Node5&#45;&gt;Node23 -->
<g id="edge23" class="edge">
<title>Node5&#45;&gt;Node23</title>
<path fill="none" stroke="#191970" d="M1720.3796,-65.786C1520.6066,-64.4456 525.1008,-56.0909 195.5477,-19.8852"/>
<polygon fill="#191970" stroke="#191970" points="195.8512,-16.3973 185.5211,-18.7509 195.0643,-23.3529 195.8512,-16.3973"/>
</g>
<!-- Node24 -->
<g id="node25" class="node">
<title>Node24</title>
<polygon fill="#ffffff" stroke="#bfbfbf" points="204,-.5 204,-19.5 351,-19.5 351,-.5 204,-.5"/>
<text text-anchor="middle" x="277.5" y="-7.5" font-family="Helvetica,sans-Serif" font-size="10.00" fill="#000000">ml_MultiLevelPreconditioner.h</text>
</g>
<!-- Node5&#45;&gt;Node24 -->
<g id="edge24" class="edge">
<title>Node5&#45;&gt;Node24</title>
<path fill="none" stroke="#191970" d="M1720.1961,-65.2608C1533.2489,-61.2825 656.6107,-41.8157 361.4779,-20.0772"/>
<polygon fill="#191970" stroke="#191970" points="361.4617,-16.5661 351.2265,-19.303 360.9345,-23.5462 361.4617,-16.5661"/>
</g>
<!-- Node25 -->
<g id="node26" class="node">
<title>Node25</title>
<polygon fill="#ffffff" stroke="#bfbfbf" points="369,-.5 369,-19.5 460,-19.5 460,-.5 369,-.5"/>
<text text-anchor="middle" x="414.5" y="-7.5" font-family="Helvetica,sans-Serif" font-size="10.00" fill="#000000">ml_epetra_utils.h</text>
</g>
<!-- Node5&#45;&gt;Node25 -->
<g id="edge25" class="edge">
<title>Node5&#45;&gt;Node25</title>
<path fill="none" stroke="#191970" d="M1720.3019,-65.4443C1542.5649,-62.5328 741.8575,-48.1292 470.3054,-20.0229"/>
<polygon fill="#191970" stroke="#191970" points="470.4104,-16.5143 460.0951,-18.9319 469.6666,-23.4747 470.4104,-16.5143"/>
</g>
<!-- Node26 -->
<g id="node27" class="node">
<title>Node26</title>
<polygon fill="#ffffff" stroke="#bfbfbf" points="478,-.5 478,-19.5 549,-19.5 549,-.5 478,-.5"/>
<text text-anchor="middle" x="513.5" y="-7.5" font-family="Helvetica,sans-Serif" font-size="10.00" fill="#000000">ml_include.h</text>
</g>
<!-- Node5&#45;&gt;Node26 -->
<g id="edge26" class="edge">
<title>Node5&#45;&gt;Node26</title>
<path fill="none" stroke="#191970" d="M1720.467,-65.5302C1550.6842,-63.1215 811.6684,-51.0922 559.6181,-20.0357"/>
<polygon fill="#191970" stroke="#191970" points="559.7832,-16.5284 549.4204,-18.7332 558.8963,-23.472 559.7832,-16.5284"/>
</g>
<!-- Node27 -->
<g id="node28" class="node">
<title>Node27</title>
<polygon fill="#ffffff" stroke="#bfbfbf" points="567,-.5 567,-19.5 704,-19.5 704,-.5 567,-.5"/>
<text text-anchor="middle" x="635.5" y="-7.5" font-family="Helvetica,sans-Serif" font-size="10.00" fill="#000000">EpetraExt_RowMatrixOut.h</text>
</g>
<!-- Node5&#45;&gt;Node27 -->
<g id="edge27" class="edge">
<title>Node5&#45;&gt;Node27</title>
<path fill="none" stroke="#191970" d="M1720.3142,-65.5333C1589.0045,-63.5636 1115.0109,-54.412 714.3605,-20.0988"/>
<polygon fill="#191970" stroke="#191970" points="714.5795,-16.6047 704.3155,-19.2318 713.9775,-23.5788 714.5795,-16.6047"/>
</g>
<!-- Node28 -->
<g id="node29" class="node">
<title>Node28</title>
<polygon fill="#ffffff" stroke="#bfbfbf" points="722,-.5 722,-19.5 861,-19.5 861,-.5 722,-.5"/>
<text text-anchor="middle" x="791.5" y="-7.5" font-family="Helvetica,sans-Serif" font-size="10.00" fill="#000000">EpetraExt_MultiVectorOut.h</text>
</g>
<!-- Node5&#45;&gt;Node28 -->
<g id="edge28" class="edge">
<title>Node5&#45;&gt;Node28</title>
<path fill="none" stroke="#191970" d="M1720.4403,-65.1099C1602.4133,-61.9168 1208.5512,-49.6642 871.7072,-20.0405"/>
<polygon fill="#191970" stroke="#191970" points="871.5266,-16.5108 861.2566,-19.1141 870.9085,-23.4835 871.5266,-16.5108"/>
</g>
<!-- Node29 -->
<g id="node30" class="node">
<title>Node29</title>
<polygon fill="#ffffff" stroke="#bfbfbf" points="879.5,-.5 879.5,-19.5 989.5,-19.5 989.5,-.5 879.5,-.5"/>
<text text-anchor="middle" x="934.5" y="-7.5" font-family="Helvetica,sans-Serif" font-size="10.00" fill="#000000">EpetraExt_VectorIn.h</text>
</g>
<!-- Node5&#45;&gt;Node29 -->
<g id="edge29" class="edge">
<title>Node5&#45;&gt;Node29</title>
<path fill="none" stroke="#191970" d="M1720.3115,-65.0418C1613.5096,-61.8837 1283.5398,-50.2853 999.6917,-20.0334"/>
<polygon fill="#191970" stroke="#191970" points="999.9312,-16.5391 989.6142,-18.9494 999.1825,-23.4989 999.9312,-16.5391"/>
</g>
<!-- Node30 -->
<g id="node31" class="node">
<title>Node30</title>
<polygon fill="#ffffff" stroke="#bfbfbf" points="1008,-.5 1008,-19.5 1139,-19.5 1139,-.5 1008,-.5"/>
<text text-anchor="middle" x="1073.5" y="-7.5" font-family="Helvetica,sans-Serif" font-size="10.00" fill="#000000">EpetraExt_MultiVectorIn.h</text>
</g>
<!-- Node5&#45;&gt;Node30 -->
<g id="edge30" class="edge">
<title>Node5&#45;&gt;Node30</title>
<path fill="none" stroke="#191970" d="M1720.479,-64.0733C1628.5891,-58.8638 1372.7947,-43.3711 1149.5146,-20.1639"/>
<polygon fill="#191970" stroke="#191970" points="1149.5535,-16.6489 1139.2433,-19.0884 1148.8245,-23.6109 1149.5535,-16.6489"/>
</g>
<!-- Node31 -->
<g id="node32" class="node">
<title>Node31</title>
<polygon fill="#ffffff" stroke="#bfbfbf" points="2456.5,-.5 2456.5,-19.5 2556.5,-19.5 2556.5,-.5 2456.5,-.5"/>
<text text-anchor="middle" x="2506.5" y="-7.5" font-family="Helvetica,sans-Serif" font-size="10.00" fill="#000000">Teuchos_RCP.hpp</text>
</g>
<!-- Node5&#45;&gt;Node31 -->
<g id="edge31" class="edge">
<title>Node5&#45;&gt;Node31</title>
<path fill="none" stroke="#191970" d="M1790.5388,-64.9283C1890.9834,-61.5895 2188.6933,-49.8305 2446.0456,-20.0611"/>
<polygon fill="#191970" stroke="#191970" points="2446.8118,-23.4955 2456.3379,-18.8583 2445.9992,-16.5428 2446.8118,-23.4955"/>
</g>
<!-- Node32 -->
<g id="node33" class="node">
<title>Node32</title>
<polygon fill="#ffffff" stroke="#bfbfbf" points="1157,-.5 1157,-19.5 1218,-19.5 1218,-.5 1157,-.5"/>
<text text-anchor="middle" x="1187.5" y="-7.5" font-family="Helvetica,sans-Serif" font-size="10.00" fill="#000000">Amesos.h</text>
</g>
<!-- Node5&#45;&gt;Node32 -->
<g id="edge32" class="edge">
<title>Node5&#45;&gt;Node32</title>
<path fill="none" stroke="#191970" d="M1720.2728,-64.9347C1636.4249,-61.9736 1418.3732,-51.7706 1227.9608,-20.0162"/>
<polygon fill="#191970" stroke="#191970" points="1228.4984,-16.5575 1218.0546,-18.3403 1227.3306,-23.4594 1228.4984,-16.5575"/>
</g>
<!-- Node33 -->
<g id="node34" class="node">
<title>Node33</title>
<polygon fill="#ffffff" stroke="#bfbfbf" points="1236,-.5 1236,-19.5 1301,-19.5 1301,-.5 1236,-.5"/>
<text text-anchor="middle" x="1268.5" y="-7.5" font-family="Helvetica,sans-Serif" font-size="10.00" fill="#000000">AztecOO.h</text>
</g>
<!-- Node5&#45;&gt;Node33 -->
<g id="edge33" class="edge">
<title>Node5&#45;&gt;Node33</title>
<path fill="none" stroke="#191970" d="M1720.3849,-63.9368C1646.4838,-59.259 1469.3791,-46.2854 1311.3324,-19.943"/>
<polygon fill="#191970" stroke="#191970" points="1311.8747,-16.4851 1301.4314,-18.2708 1310.7089,-23.3874 1311.8747,-16.4851"/>
</g>
<!-- Node37&#45;&gt;Node31 -->
<g id="edge37" class="edge">
<title>Node37&#45;&gt;Node31</title>
<path fill="none" stroke="#191970" d="M1960.5694,-186.4894C2110.9729,-180.1106 2483.9667,-162.405 2502.5,-143 2531.5028,-112.633 2521.3345,-58.3332 2513.0002,-29.3993"/>
<polygon fill="#191970" stroke="#191970" points="2516.284,-28.1712 2509.9814,-19.6549 2509.5975,-30.2427 2516.284,-28.1712"/>
</g>
<!-- Node38 -->
<g id="node36" class="node">
<title>Node38</title>
<g id="a_node36"><a xlink:href="../../d2/d8b/_finite___element___problem_8hpp.html" target="_top" xlink:title="Finite_Element_Problem.hpp">
<polygon fill="#ffffff" stroke="#ff0000" points="890.5,-118 890.5,-137 1032.5,-137 1032.5,-118 890.5,-118"/>
<text text-anchor="middle" x="961.5" y="-125" font-family="Helvetica,sans-Serif" font-size="10.00" fill="#000000">Finite_Element_Problem.hpp</text>
</a>
</g>
</g>
<!-- Node37&#45;&gt;Node38 -->
<g id="edge35" class="edge">
<title>Node37&#45;&gt;Node38</title>
<path fill="none" stroke="#191970" d="M1836.2467,-186.7746C1666.0574,-180.5125 1195.4825,-161.958 1041.5,-143 1032.8285,-141.9324 1023.685,-140.4778 1014.802,-138.8851"/>
<polygon fill="#191970" stroke="#191970" points="1015.3949,-135.4354 1004.9225,-137.0415 1014.1107,-142.3166 1015.3949,-135.4354"/>
</g>
<!-- Node40 -->
<g id="node37" class="node">
<title>Node40</title>
<polygon fill="#ffffff" stroke="#bfbfbf" points="2292.5,-118 2292.5,-137 2344.5,-137 2344.5,-118 2292.5,-118"/>
<text text-anchor="middle" x="2318.5" y="-125" font-family="Helvetica,sans-Serif" font-size="10.00" fill="#000000">Ifpack.h</text>
</g>
<!-- Node37&#45;&gt;Node40 -->
<g id="edge38" class="edge">
<title>Node37&#45;&gt;Node40</title>
<path fill="none" stroke="#191970" d="M1960.721,-187.0222C2037.5413,-183.3386 2171.6298,-172.8378 2282.5,-143 2284.8286,-142.3733 2287.2023,-141.6231 2289.5641,-140.7956"/>
<polygon fill="#191970" stroke="#191970" points="2291.0241,-143.9827 2299.0592,-137.077 2288.4714,-137.4648 2291.0241,-143.9827"/>
</g>
<!-- Node41 -->
<g id="node38" class="node">
<title>Node41</title>
<polygon fill="#ffffff" stroke="#bfbfbf" points="2363,-118 2363,-137 2494,-137 2494,-118 2363,-118"/>
<text text-anchor="middle" x="2428.5" y="-125" font-family="Helvetica,sans-Serif" font-size="10.00" fill="#000000">Ifpack_AdditiveSchwarz.h</text>
</g>
<!-- Node37&#45;&gt;Node41 -->
<g id="edge39" class="edge">
<title>Node37&#45;&gt;Node41</title>
<path fill="none" stroke="#191970" d="M1960.5754,-184.7615C2048.4029,-178.3025 2213.811,-164.4374 2353.5,-143 2360.9017,-141.8641 2368.6767,-140.4778 2376.3024,-139.0062"/>
<polygon fill="#191970" stroke="#191970" points="2377.0732,-142.4216 2386.1974,-137.0365 2375.7065,-135.5563 2377.0732,-142.4216"/>
</g>
<!-- Node42 -->
<g id="node39" class="node">
<title>Node42</title>
<polygon fill="#ffffff" stroke="#bfbfbf" points="1050.5,-118 1050.5,-137 1172.5,-137 1172.5,-118 1050.5,-118"/>
<text text-anchor="middle" x="1111.5" y="-125" font-family="Helvetica,sans-Serif" font-size="10.00" fill="#000000">BelosLinearProblem.hpp</text>
</g>
<!-- Node37&#45;&gt;Node42 -->
<g id="edge40" class="edge">
<title>Node37&#45;&gt;Node42</title>
<path fill="none" stroke="#191970" d="M1836.3115,-188.2227C1711.5368,-185.9563 1422.0111,-177.1363 1181.5,-143 1174.2984,-141.9779 1166.7371,-140.6147 1159.3555,-139.1195"/>
<polygon fill="#191970" stroke="#191970" points="1159.9606,-135.67 1149.4519,-137.0183 1158.5077,-142.5176 1159.9606,-135.67"/>
</g>
<!-- Node43 -->
<g id="node40" class="node">
<title>Node43</title>
<polygon fill="#ffffff" stroke="#bfbfbf" points="1191,-118 1191,-137 1336,-137 1336,-118 1191,-118"/>
<text text-anchor="middle" x="1263.5" y="-125" font-family="Helvetica,sans-Serif" font-size="10.00" fill="#000000">BelosBlockGmresSolMgr.hpp</text>
</g>
<!-- Node37&#45;&gt;Node43 -->
<g id="edge41" class="edge">
<title>Node37&#45;&gt;Node43</title>
<path fill="none" stroke="#191970" d="M1836.4857,-185.9465C1733.9604,-180.4271 1522.8229,-167.0681 1345.5,-143 1337.0386,-141.8515 1328.127,-140.4103 1319.4209,-138.872"/>
<polygon fill="#191970" stroke="#191970" points="1319.8,-135.3835 1309.3344,-137.0334 1318.5446,-142.2701 1319.8,-135.3835"/>
</g>
<!-- Node44 -->
<g id="node41" class="node">
<title>Node44</title>
<polygon fill="#ffffff" stroke="#bfbfbf" points="1354.5,-118 1354.5,-137 1476.5,-137 1476.5,-118 1354.5,-118"/>
<text text-anchor="middle" x="1415.5" y="-125" font-family="Helvetica,sans-Serif" font-size="10.00" fill="#000000">BelosEpetraAdapter.hpp</text>
</g>
<!-- Node37&#45;&gt;Node44 -->
<g id="edge42" class="edge">
<title>Node37&#45;&gt;Node44</title>
<path fill="none" stroke="#191970" d="M1836.2923,-184.1597C1755.2097,-177.3738 1609.161,-163.5173 1485.5,-143 1478.8174,-141.8913 1471.8125,-140.5534 1464.9245,-139.134"/>
<polygon fill="#191970" stroke="#191970" points="1465.4771,-135.6733 1454.9674,-137.0133 1464.0188,-142.5197 1465.4771,-135.6733"/>
</g>
<!-- Node45 -->
<g id="node42" class="node">
<title>Node45</title>
<polygon fill="#ffffff" stroke="#bfbfbf" points="1495,-118 1495,-137 1616,-137 1616,-118 1495,-118"/>
<text text-anchor="middle" x="1555.5" y="-125" font-family="Helvetica,sans-Serif" font-size="10.00" fill="#000000">BelosSolverFactory.hpp</text>
</g>
<!-- Node37&#45;&gt;Node45 -->
<g id="edge43" class="edge">
<title>Node37&#45;&gt;Node45</title>
<path fill="none" stroke="#191970" d="M1836.5356,-179.4822C1781.0965,-170.7473 1697.6806,-157.0631 1625.5,-143 1619.4066,-141.8128 1613.0305,-140.4999 1606.7131,-139.1553"/>
<polygon fill="#191970" stroke="#191970" points="1607.3972,-135.7224 1596.8834,-137.0297 1605.9177,-142.5642 1607.3972,-135.7224"/>
</g>
<!-- Node46 -->
<g id="node43" class="node">
<title>Node46</title>
<polygon fill="#ffffff" stroke="#bfbfbf" points="1634.5,-118 1634.5,-137 1810.5,-137 1810.5,-118 1634.5,-118"/>
<text text-anchor="middle" x="1722.5" y="-125" font-family="Helvetica,sans-Serif" font-size="10.00" fill="#000000">Teuchos_StandardCatchMacros.hpp</text>
</g>
<!-- Node37&#45;&gt;Node46 -->
<g id="edge44" class="edge">
<title>Node37&#45;&gt;Node46</title>
<path fill="none" stroke="#191970" d="M1871,-179.3906C1841.0353,-168.92 1792.9317,-152.1111 1759.6302,-140.4745"/>
<polygon fill="#191970" stroke="#191970" points="1760.4017,-137.0366 1749.8069,-137.0419 1758.0926,-143.6448 1760.4017,-137.0366"/>
</g>
<!-- Node47 -->
<g id="node44" class="node">
<title>Node47</title>
<polygon fill="#ffffff" stroke="#bfbfbf" points="1829,-118 1829,-137 1968,-137 1968,-118 1829,-118"/>
<text text-anchor="middle" x="1898.5" y="-125" font-family="Helvetica,sans-Serif" font-size="10.00" fill="#000000">Teuchos_ParameterList.hpp</text>
</g>
<!-- Node37&#45;&gt;Node47 -->
<g id="edge45" class="edge">
<title>Node37&#45;&gt;Node47</title>
<path fill="none" stroke="#191970" d="M1898.5,-179.3906C1898.5,-170.8657 1898.5,-158.1392 1898.5,-147.4235"/>
<polygon fill="#191970" stroke="#191970" points="1902.0001,-147.2448 1898.5,-137.2449 1895.0001,-147.2449 1902.0001,-147.2448"/>
</g>
<!-- Node48 -->
<g id="node45" class="node">
<title>Node48</title>
<polygon fill="#ffffff" stroke="#bfbfbf" points="1986.5,-112.5 1986.5,-142.5 2126.5,-142.5 2126.5,-112.5 1986.5,-112.5"/>
<text text-anchor="start" x="1994.5" y="-130.5" font-family="Helvetica,sans-Serif" font-size="10.00" fill="#000000">Teuchos_XMLParameterList</text>
<text text-anchor="middle" x="2056.5" y="-119.5" font-family="Helvetica,sans-Serif" font-size="10.00" fill="#000000">CoreHelpers.hpp</text>
</g>
<!-- Node37&#45;&gt;Node48 -->
<g id="edge46" class="edge">
<title>Node37&#45;&gt;Node48</title>
<path fill="none" stroke="#191970" d="M1923.1875,-179.3906C1945.8578,-170.5664 1980.0937,-157.2404 2008.1942,-146.3026"/>
<polygon fill="#191970" stroke="#191970" points="2009.7995,-149.4336 2017.8489,-142.5446 2007.2603,-142.9103 2009.7995,-149.4336"/>
</g>
<!-- Node49 -->
<g id="node46" class="node">
<title>Node49</title>
<polygon fill="#ffffff" stroke="#bfbfbf" points="2145,-112.5 2145,-142.5 2274,-142.5 2274,-112.5 2145,-112.5"/>
<text text-anchor="start" x="2153" y="-130.5" font-family="Helvetica,sans-Serif" font-size="10.00" fill="#000000">Stratimikos_DefaultLinear</text>
<text text-anchor="middle" x="2209.5" y="-119.5" font-family="Helvetica,sans-Serif" font-size="10.00" fill="#000000">SolverBuilder.hpp</text>
</g>
<!-- Node37&#45;&gt;Node49 -->
<g id="edge47" class="edge">
<title>Node37&#45;&gt;Node49</title>
<path fill="none" stroke="#191970" d="M1948.9366,-179.4342C1994.7886,-170.6873 2064.5824,-157.2479 2134.9998,-143.0846"/>
<polygon fill="#191970" stroke="#191970" points="2135.8263,-146.4885 2144.9377,-141.0817 2134.4433,-139.6265 2135.8263,-146.4885"/>
</g>
<!-- Node38&#45;&gt;Node5 -->
<g id="edge36" class="edge">
<title>Node38&#45;&gt;Node5</title>
<path fill="none" stroke="#191970" d="M1005.3506,-117.9634C1017.0484,-115.705 1029.7134,-113.5153 1041.5,-112 1292.9879,-79.6689 1597.3802,-69.6507 1710.411,-66.9183"/>
<polygon fill="#191970" stroke="#191970" points="1710.5149,-70.4169 1720.43,-66.6832 1710.3506,-63.4188 1710.5149,-70.4169"/>
</g>
<!-- Node50&#45;&gt;Node5 -->
<g id="edge65" class="edge">
<title>Node50&#45;&gt;Node5</title>
<path fill="none" stroke="#191970" d="M2728.4514,-123.3091C2686.814,-120.0227 2626.9292,-115.4445 2574.5,-112 2279.6975,-92.6319 1924.8595,-74.4464 1800.882,-68.2458"/>
<polygon fill="#191970" stroke="#191970" points="1800.7994,-64.7374 1790.6373,-67.7344 1800.4503,-71.7287 1800.7994,-64.7374"/>
</g>
<!-- Node50&#45;&gt;Node6 -->
<g id="edge49" class="edge">
<title>Node50&#45;&gt;Node6</title>
<path fill="none" stroke="#191970" d="M2806.8538,-117.9121C2835.0214,-107.6394 2880.9698,-90.8106 2920.5,-76 2969.4058,-57.6767 3025.9129,-36.029 3060.677,-22.656"/>
<polygon fill="#191970" stroke="#191970" points="3062.2329,-25.8075 3070.3081,-18.9488 3059.7183,-19.2748 3062.2329,-25.8075"/>
</g>
<!-- Node50&#45;&gt;Node7 -->
<g id="edge50" class="edge">
<title>Node50&#45;&gt;Node7</title>
<path fill="none" stroke="#191970" d="M2800.5494,-117.8845C2843.8171,-97.1336 2946.0967,-48.0812 2996.4569,-23.9289"/>
<polygon fill="#191970" stroke="#191970" points="2998.0141,-27.0638 3005.5172,-19.5836 2994.987,-20.7521 2998.0141,-27.0638"/>
</g>
<!-- Node50&#45;&gt;Node8 -->
<g id="edge51" class="edge">
<title>Node50&#45;&gt;Node8</title>
<path fill="none" stroke="#191970" d="M2765.688,-117.8845C2734.321,-97.5219 2660.9736,-49.9069 2623.0845,-25.3104"/>
<polygon fill="#191970" stroke="#191970" points="2624.5562,-22.093 2614.2628,-19.5836 2620.7447,-27.9643 2624.5562,-22.093"/>
</g>
<!-- Node50&#45;&gt;Node9 -->
<g id="edge52" class="edge">
<title>Node50&#45;&gt;Node9</title>
<path fill="none" stroke="#191970" d="M2770.8898,-117.6512C2760.8046,-107.3039 2744.501,-90.5438 2730.5,-76 2714.6699,-59.5562 2696.7007,-40.7137 2684.0157,-27.3825"/>
<polygon fill="#191970" stroke="#191970" points="2686.2942,-24.6995 2676.8668,-19.8649 2681.2217,-29.5233 2686.2942,-24.6995"/>
</g>
<!-- Node50&#45;&gt;Node10 -->
<g id="edge53" class="edge">
<title>Node50&#45;&gt;Node10</title>
<path fill="none" stroke="#191970" d="M2790.4285,-117.7733C2800.8183,-107.5257 2817.5307,-90.8458 2831.5,-76 2846.8507,-59.6861 2863.8465,-40.5549 2875.6383,-27.1024"/>
<polygon fill="#191970" stroke="#191970" points="2878.3045,-29.3703 2882.2466,-19.5362 2873.0322,-24.7656 2878.3045,-29.3703"/>
</g>
<!-- Node50&#45;&gt;Node11 -->
<g id="edge54" class="edge">
<title>Node50&#45;&gt;Node11</title>
<path fill="none" stroke="#191970" d="M2794.821,-117.8845C2825.073,-97.5724 2895.7125,-50.1431 2932.4239,-25.4939"/>
<polygon fill="#191970" stroke="#191970" points="2934.6299,-28.2285 2940.9811,-19.7484 2930.7279,-22.417 2934.6299,-28.2285"/>
</g>
<!-- Node51 -->
<g id="node48" class="node">
<title>Node51</title>
<g id="a_node48"><a xlink:href="../../d2/d81/readnrldata_8hpp.html" target="_top" xlink:title="readnrldata.hpp">
<polygon fill="#ffffff" stroke="#000000" points="2739,-56.5 2739,-75.5 2822,-75.5 2822,-56.5 2739,-56.5"/>
<text text-anchor="middle" x="2780.5" y="-63.5" font-family="Helvetica,sans-Serif" font-size="10.00" fill="#000000">readnrldata.hpp</text>
</a>
</g>
</g>
<!-- Node50&#45;&gt;Node51 -->
<g id="edge55" class="edge">
<title>Node50&#45;&gt;Node51</title>
<path fill="none" stroke="#191970" d="M2780.5,-117.8906C2780.5,-109.3657 2780.5,-96.6392 2780.5,-85.9235"/>
<polygon fill="#191970" stroke="#191970" points="2784.0001,-85.7448 2780.5,-75.7449 2777.0001,-85.7449 2784.0001,-85.7448"/>
</g>
<!-- Node51&#45;&gt;Node6 -->
<g id="edge56" class="edge">
<title>Node51&#45;&gt;Node6</title>
<path fill="none" stroke="#191970" d="M2822.2839,-61.0271C2875.5508,-54.2783 2970.5794,-40.8681 3060.3919,-20.0112"/>
<polygon fill="#191970" stroke="#191970" points="3061.2567,-23.4034 3070.1864,-17.7016 3059.65,-16.5902 3061.2567,-23.4034"/>
</g>
<!-- Node51&#45;&gt;Node7 -->
<g id="edge57" class="edge">
<title>Node51&#45;&gt;Node7</title>
<path fill="none" stroke="#191970" d="M2822.2921,-57.4989C2862.5284,-49.1588 2925.3078,-35.7403 2988.6572,-20.1165"/>
<polygon fill="#191970" stroke="#191970" points="2989.5532,-23.5004 2998.4148,-17.6934 2987.866,-16.7068 2989.5532,-23.5004"/>
</g>
<!-- Node51&#45;&gt;Node8 -->
<g id="edge58" class="edge">
<title>Node51&#45;&gt;Node8</title>
<path fill="none" stroke="#191970" d="M2749.385,-56.3733C2717.2336,-46.4259 2667.1787,-30.9393 2633.8763,-20.6358"/>
<polygon fill="#191970" stroke="#191970" points="2634.705,-17.2285 2624.1173,-17.6164 2632.636,-23.9158 2634.705,-17.2285"/>
</g>
<!-- Node51&#45;&gt;Node9 -->
<g id="edge59" class="edge">
<title>Node51&#45;&gt;Node9</title>
<path fill="none" stroke="#191970" d="M2761.0746,-56.3733C2743.0979,-47.4644 2716.1559,-34.1127 2695.791,-24.0203"/>
<polygon fill="#191970" stroke="#191970" points="2697.1861,-20.8055 2686.6719,-19.5011 2694.0778,-27.0776 2697.1861,-20.8055"/>
</g>
<!-- Node51&#45;&gt;Node10 -->
<g id="edge60" class="edge">
<title>Node51&#45;&gt;Node10</title>
<path fill="none" stroke="#191970" d="M2799.6605,-56.2455C2817.0111,-47.4125 2842.7901,-34.2887 2862.4583,-24.2758"/>
<polygon fill="#191970" stroke="#191970" points="2864.2353,-27.2986 2871.559,-19.6427 2861.0595,-21.0605 2864.2353,-27.2986"/>
</g>
<!-- Node51&#45;&gt;Node11 -->
<g id="edge61" class="edge">
<title>Node51&#45;&gt;Node11</title>
<path fill="none" stroke="#191970" d="M2810.5836,-56.3733C2841.0943,-46.6098 2888.2807,-31.5102 2920.4604,-21.2127"/>
<polygon fill="#191970" stroke="#191970" points="2921.8834,-24.4322 2930.3409,-18.0509 2919.7499,-17.7652 2921.8834,-24.4322"/>
</g>
<!-- Node51&#45;&gt;Node18 -->
<g id="edge64" class="edge">
<title>Node51&#45;&gt;Node18</title>
<path fill="none" stroke="#191970" d="M2780.5,-56.2455C2780.5,-48.9382 2780.5,-38.6944 2780.5,-29.7046"/>
<polygon fill="#191970" stroke="#191970" points="2784.0001,-29.6426 2780.5,-19.6427 2777.0001,-29.6427 2784.0001,-29.6426"/>
</g>
<!-- Node51&#45;&gt;Node19 -->
<g id="edge63" class="edge">
<title>Node51&#45;&gt;Node19</title>
<path fill="none" stroke="#191970" d="M2738.7279,-60.3222C2670.8376,-51.0944 2535.4163,-32.6877 2448.5283,-20.8776"/>
<polygon fill="#191970" stroke="#191970" points="2448.8233,-17.3856 2438.443,-19.5068 2447.8805,-24.3219 2448.8233,-17.3856"/>
</g>
<!-- Node51&#45;&gt;Node31 -->
<g id="edge62" class="edge">
<title>Node51&#45;&gt;Node31</title>
<path fill="none" stroke="#191970" d="M2738.8853,-57.4948C2691.9102,-47.8941 2615.2327,-32.2227 2562.9018,-21.5274"/>
<polygon fill="#191970" stroke="#191970" points="2563.5999,-18.0978 2553.1016,-19.5244 2562.1982,-24.956 2563.5999,-18.0978"/>
</g>
<!-- Node53 -->
<g id="node50" class="node">
<title>Node53</title>
<g id="a_node50"><a xlink:href="../../d2/d34/hyperelasticity_8hpp.html" target="_top" xlink:title="hyperelasticity.hpp">
<polygon fill="#ffffff" stroke="#000000" points="1119.5,-179.5 1119.5,-198.5 1217.5,-198.5 1217.5,-179.5 1119.5,-179.5"/>
<text text-anchor="middle" x="1168.5" y="-186.5" font-family="Helvetica,sans-Serif" font-size="10.00" fill="#000000">hyperelasticity.hpp</text>
</a>
</g>
</g>
<!-- Node52&#45;&gt;Node53 -->
<g id="edge67" class="edge">
<title>Node52&#45;&gt;Node53</title>
<path fill="none" stroke="#191970" d="M1432.1952,-235.4369C1375.2642,-225.4113 1286.0967,-209.7089 1227.4745,-199.3855"/>
<polygon fill="#191970" stroke="#191970" points="1228.0748,-195.9374 1217.6193,-197.6499 1226.8607,-202.8313 1228.0748,-195.9374"/>
</g>
<!-- Node53&#45;&gt;Node38 -->
<g id="edge68" class="edge">
<title>Node53&#45;&gt;Node38</title>
<path fill="none" stroke="#191970" d="M1136.1563,-179.3906C1100.382,-168.7621 1042.6253,-151.6025 1003.4095,-139.9514"/>
<polygon fill="#191970" stroke="#191970" points="1004.1993,-136.5349 993.6166,-137.0419 1002.2057,-143.245 1004.1993,-136.5349"/>
</g>
</g>
</svg>
