<?xml version="1.0" encoding="UTF-8" standalone="no"?>
<!DOCTYPE svg PUBLIC "-//W3C//DTD SVG 1.1//EN"
 "http://www.w3.org/Graphics/SVG/1.1/DTD/svg11.dtd">
<!-- Generated by graphviz version 2.40.1 (20161225.0304)
 -->
<!-- Title: src/Arteries_ModelC_deterministic_neumann.hpp Pages: 1 -->
<svg width="272pt" height="102pt"
 viewBox="0.00 0.00 271.98 102.00" xmlns="http://www.w3.org/2000/svg" xmlns:xlink="http://www.w3.org/1999/xlink">
<g id="graph0" class="graph" transform="scale(1 1) rotate(0) translate(4 98)">
<title>src/Arteries_ModelC_deterministic_neumann.hpp</title>
<polygon fill="#ffffff" stroke="transparent" points="-4,4 -4,-98 267.9824,-98 267.9824,4 -4,4"/>
<!-- Node38 -->
<g id="node1" class="node">
<title>Node38</title>
<polygon fill="#bfbfbf" stroke="#000000" points="51.9189,-65.5 51.9189,-93.5 196.332,-93.5 196.332,-65.5 51.9189,-65.5"/>
<text text-anchor="start" x="59.9189" y="-81.5" font-family="Helvetica,sans-Serif" font-size="10.00" fill="#000000">src/Arteries_ModelC</text>
<text text-anchor="middle" x="124.1255" y="-71.5" font-family="Helvetica,sans-Serif" font-size="10.00" fill="#000000">_deterministic_neumann.hpp</text>
</g>
<!-- Node39 -->
<g id="node2" class="node">
<title>Node39</title>
<g id="a_node2"><a xlink:href="../../d9/d81/arteries_2deterministic__neumann_2main_8cpp.html" target="_top" xlink:title="arteries/deterministic\l_neumann/main.cpp">
<polygon fill="#ffffff" stroke="#000000" points="0,-.5 0,-28.5 108.251,-28.5 108.251,-.5 0,-.5"/>
<text text-anchor="start" x="8" y="-16.5" font-family="Helvetica,sans-Serif" font-size="10.00" fill="#000000">arteries/deterministic</text>
<text text-anchor="middle" x="54.1255" y="-6.5" font-family="Helvetica,sans-Serif" font-size="10.00" fill="#000000">_neumann/main.cpp</text>
</a>
</g>
</g>
<!-- Node38&#45;&gt;Node39 -->
<g id="edge1" class="edge">
<title>Node38&#45;&gt;Node39</title>
<path fill="none" stroke="#191970" d="M101.3071,-58.3115C90.8068,-48.5612 78.6352,-37.259 69.2848,-28.5765"/>
<polygon fill="#191970" stroke="#191970" points="99.227,-61.1562 108.9365,-65.396 103.9902,-56.0266 99.227,-61.1562"/>
</g>
<!-- Node40 -->
<g id="node3" class="node">
<title>Node40</title>
<g id="a_node3"><a xlink:href="../../db/db7/arteries_2vonmises_2main_8cpp.html" target="_top" xlink:title="arteries/vonmises/main.cpp">
<polygon fill="#ffffff" stroke="#000000" points="126.2686,-5.5 126.2686,-23.5 263.9824,-23.5 263.9824,-5.5 126.2686,-5.5"/>
<text text-anchor="middle" x="195.1255" y="-11.5" font-family="Helvetica,sans-Serif" font-size="10.00" fill="#000000">arteries/vonmises/main.cpp</text>
</a>
</g>
</g>
<!-- Node38&#45;&gt;Node40 -->
<g id="edge2" class="edge">
<title>Node38&#45;&gt;Node40</title>
<path fill="none" stroke="#191970" d="M147.1498,-58.4214C160.0216,-46.6373 175.4006,-32.558 185.2136,-23.5743"/>
<polygon fill="#191970" stroke="#191970" points="144.5439,-56.0618 139.5314,-65.396 149.2707,-61.225 144.5439,-56.0618"/>
</g>
</g>
</svg>
