<?xml version="1.0" encoding="UTF-8" standalone="no"?>
<!DOCTYPE svg PUBLIC "-//W3C//DTD SVG 1.1//EN"
 "http://www.w3.org/Graphics/SVG/1.1/DTD/svg11.dtd">
<!-- Generated by graphviz version 2.40.1 (20161225.0304)
 -->
<!-- Title: src/Arteries_ModelC_deterministic_neumann.hpp Pages: 1 -->
<svg width="521pt" height="110pt"
 viewBox="0.00 0.00 521.38 110.00" xmlns="http://www.w3.org/2000/svg" xmlns:xlink="http://www.w3.org/1999/xlink">
<g id="graph0" class="graph" transform="scale(1 1) rotate(0) translate(4 106)">
<title>src/Arteries_ModelC_deterministic_neumann.hpp</title>
<polygon fill="#ffffff" stroke="transparent" points="-4,4 -4,-106 517.3789,-106 517.3789,4 -4,4"/>
<!-- Node38 -->
<g id="node1" class="node">
<title>Node38</title>
<polygon fill="#bfbfbf" stroke="#000000" points="154.3027,-69.5 154.3027,-101.5 324.3984,-101.5 324.3984,-69.5 154.3027,-69.5"/>
<text text-anchor="start" x="162.3027" y="-87.9" font-family="Helvetica,sans-Serif" font-size="12.00" fill="#000000">src/Arteries_ModelC</text>
<text text-anchor="middle" x="239.3506" y="-75.9" font-family="Helvetica,sans-Serif" font-size="12.00" fill="#000000">_deterministic_neumann.hpp</text>
</g>
<!-- Node39 -->
<g id="node2" class="node">
<title>Node39</title>
<g id="a_node2"><a xlink:href="../../d9/d81/arteries_2deterministic__neumann_2main_8cpp.html" target="_top" xlink:title="arteries/deterministic\l_neumann/main.cpp">
<polygon fill="#ffffff" stroke="#000000" points="0,-.5 0,-32.5 126.7012,-32.5 126.7012,-.5 0,-.5"/>
<text text-anchor="start" x="8" y="-18.9" font-family="Helvetica,sans-Serif" font-size="12.00" fill="#000000">arteries/deterministic</text>
<text text-anchor="middle" x="63.3506" y="-6.9" font-family="Helvetica,sans-Serif" font-size="12.00" fill="#000000">_neumann/main.cpp</text>
</a>
</g>
</g>
<!-- Node38&#45;&gt;Node39 -->
<g id="edge1" class="edge">
<title>Node38&#45;&gt;Node39</title>
<path fill="none" stroke="#191970" d="M188.9257,-65.7312C162.0853,-55.2085 129.503,-42.4348 104.254,-32.536"/>
<polygon fill="#191970" stroke="#191970" points="187.9427,-69.1051 198.5303,-69.4966 190.4977,-62.588 187.9427,-69.1051"/>
</g>
<!-- Node40 -->
<g id="node3" class="node">
<title>Node40</title>
<g id="a_node3"><a xlink:href="../../d5/d35/arteries_2deterministic__neumann__stratimikos_2main_8cpp.html" target="_top" xlink:title="arteries/deterministic\l_neumann_stratimikos/main.cpp">
<polygon fill="#ffffff" stroke="#000000" points="144.9746,-.5 144.9746,-32.5 333.7266,-32.5 333.7266,-.5 144.9746,-.5"/>
<text text-anchor="start" x="152.9746" y="-18.9" font-family="Helvetica,sans-Serif" font-size="12.00" fill="#000000">arteries/deterministic</text>
<text text-anchor="middle" x="239.3506" y="-6.9" font-family="Helvetica,sans-Serif" font-size="12.00" fill="#000000">_neumann_stratimikos/main.cpp</text>
</a>
</g>
</g>
<!-- Node38&#45;&gt;Node40 -->
<g id="edge2" class="edge">
<title>Node38&#45;&gt;Node40</title>
<path fill="none" stroke="#191970" d="M239.3506,-59.2468C239.3506,-50.3917 239.3506,-40.7667 239.3506,-32.8958"/>
<polygon fill="#191970" stroke="#191970" points="235.8507,-59.4965 239.3506,-69.4966 242.8507,-59.4966 235.8507,-59.4965"/>
</g>
<!-- Node41 -->
<g id="node4" class="node">
<title>Node41</title>
<g id="a_node4"><a xlink:href="../../db/db7/arteries_2vonmises_2main_8cpp.html" target="_top" xlink:title="arteries/vonmises/main.cpp">
<polygon fill="#ffffff" stroke="#000000" points="351.3223,-6.5 351.3223,-26.5 513.3789,-26.5 513.3789,-6.5 351.3223,-6.5"/>
<text text-anchor="middle" x="432.3506" y="-12.9" font-family="Helvetica,sans-Serif" font-size="12.00" fill="#000000">arteries/vonmises/main.cpp</text>
</a>
</g>
</g>
<!-- Node38&#45;&gt;Node41 -->
<g id="edge3" class="edge">
<title>Node38&#45;&gt;Node41</title>
<path fill="none" stroke="#191970" d="M293.9725,-65.9719C329.9077,-53.1246 375.4554,-36.8408 404.2609,-26.5424"/>
<polygon fill="#191970" stroke="#191970" points="292.3518,-62.8344 284.1138,-69.4966 294.7084,-69.4258 292.3518,-62.8344"/>
</g>
</g>
</svg>
