<?xml version="1.0" encoding="UTF-8" standalone="no"?>
<!DOCTYPE svg PUBLIC "-//W3C//DTD SVG 1.1//EN"
 "http://www.w3.org/Graphics/SVG/1.1/DTD/svg11.dtd">
<!-- Generated by graphviz version 2.40.1 (20161225.0304)
 -->
<!-- Title: asme/linearelaslam/main.cpp Pages: 1 -->
<!--zoomable 287 -->
<svg id="main" version="1.1" xmlns="http://www.w3.org/2000/svg" xmlns:xlink="http://www.w3.org/1999/xlink" xml:space="preserve" onload="init(evt)">
<style type="text/css"><![CDATA[
.edge:hover path { stroke: red; }
.edge:hover polygon { stroke: red; fill: red; }
]]></style>
<script type="text/javascript"><![CDATA[
var edges = document.getElementsByTagName('g');
if (edges && edges.length) {
  for (var i=0;i<edges.length;i++) {
    if (edges[i].id.substr(0,4)=='edge') {
      edges[i].setAttribute('class','edge');
    }
  }
}
]]></script>
        <defs>
                <circle id="rim" cx="0" cy="0" r="7"/>
                <circle id="rim2" cx="0" cy="0" r="3.5"/>
                <g id="zoomPlus">
                        <use xlink:href="#rim" fill="#404040">
                                <set attributeName="fill" to="#808080" begin="zoomplus.mouseover" end="zoomplus.mouseout"/>
                        </use>
                        <path d="M-4,0h8M0,-4v8" fill="none" stroke="white" stroke-width="1.5" pointer-events="none"/>
                </g>
                <g id="zoomMin">
                        <use xlink:href="#rim" fill="#404040">
                                <set attributeName="fill" to="#808080" begin="zoomminus.mouseover" end="zoomminus.mouseout"/>
                        </use>
                        <path d="M-4,0h8" fill="none" stroke="white" stroke-width="1.5" pointer-events="none"/>
                </g>
                <g id="dirArrow">
                        <path fill="none" stroke="white" stroke-width="1.5" d="M0,-3.0v7 M-2.5,-0.5L0,-3.0L2.5,-0.5"/>
                </g>
               <g id="resetDef">
                       <use xlink:href="#rim2" fill="#404040">
                               <set attributeName="fill" to="#808080" begin="reset.mouseover" end="reset.mouseout"/>
                       </use>
               </g>
        </defs>

<script type="text/javascript">
var viewWidth = 3099;
var viewHeight = 287;
var sectionId = 'dynsection-0';
</script>
<script xlink:href="../../svgpan.js"/>
<svg id="graph" class="graph">
<g id="viewport">
<title>asme/linearelaslam/main.cpp</title>
<polygon fill="#ffffff" stroke="transparent" points="-4,4 -4,-283 3094.6694,-283 3094.6694,4 -4,4"/>
<!-- Node0 -->
<g id="node1" class="node">
<title>Node0</title>
<polygon fill="#bfbfbf" stroke="#000000" points="757.3423,-250.5 757.3423,-278.5 859.4897,-278.5 859.4897,-250.5 757.3423,-250.5"/>
<text text-anchor="start" x="765.3423" y="-266.5" font-family="Helvetica,sans-Serif" font-size="10.00" fill="#000000">asme/linearelaslam</text>
<text text-anchor="middle" x="808.416" y="-256.5" font-family="Helvetica,sans-Serif" font-size="10.00" fill="#000000">/main.cpp</text>
</g>
<!-- Node1 -->
<g id="node2" class="node">
<title>Node1</title>
<polygon fill="#ffffff" stroke="#bfbfbf" points="0,-190.5 0,-208.5 108.832,-208.5 108.832,-190.5 0,-190.5"/>
<text text-anchor="middle" x="54.416" y="-196.5" font-family="Helvetica,sans-Serif" font-size="10.00" fill="#000000">Epetra_ConfigDefs.h</text>
</g>
<!-- Node0&#45;&gt;Node1 -->
<g id="edge1" class="edge">
<title>Node0&#45;&gt;Node1</title>
<path fill="none" stroke="#191970" d="M757.0558,-263.3673C642.0717,-260.2585 355.4225,-249.3183 118.416,-214 112.4245,-213.1071 106.1608,-211.9597 99.9967,-210.7018"/>
<polygon fill="#191970" stroke="#191970" points="100.2945,-207.186 89.7822,-208.5063 98.8234,-214.0297 100.2945,-207.186"/>
</g>
<!-- Node2 -->
<g id="node3" class="node">
<title>Node2</title>
<polygon fill="#ffffff" stroke="#bfbfbf" points="127.229,-190.5 127.229,-208.5 241.603,-208.5 241.603,-190.5 127.229,-190.5"/>
<text text-anchor="middle" x="184.416" y="-196.5" font-family="Helvetica,sans-Serif" font-size="10.00" fill="#000000">Epetra_SerialComm.h</text>
</g>
<!-- Node0&#45;&gt;Node2 -->
<g id="edge2" class="edge">
<title>Node0&#45;&gt;Node2</title>
<path fill="none" stroke="#191970" d="M757.1111,-261.7124C659.184,-255.9722 439.0169,-241.0468 255.416,-214 248.726,-213.0145 241.7154,-211.8036 234.8136,-210.5054"/>
<polygon fill="#191970" stroke="#191970" points="235.315,-207.0373 224.8297,-208.557 233.9742,-213.9077 235.315,-207.0373"/>
</g>
<!-- Node3 -->
<g id="node4" class="node">
<title>Node3</title>
<polygon fill="#ffffff" stroke="#bfbfbf" points="256.3687,-.5 256.3687,-18.5 354.4634,-18.5 354.4634,-.5 256.3687,-.5"/>
<text text-anchor="middle" x="305.416" y="-6.5" font-family="Helvetica,sans-Serif" font-size="10.00" fill="#000000">Teuchos_RCP.hpp</text>
</g>
<!-- Node0&#45;&gt;Node3 -->
<g id="edge3" class="edge">
<title>Node0&#45;&gt;Node3</title>
<path fill="none" stroke="#191970" d="M757.0751,-263.3478C632.0153,-260.0124 319.5426,-248.2959 288.416,-214 240.8407,-161.5806 277.3617,-67.332 296.0928,-27.7692"/>
<polygon fill="#191970" stroke="#191970" points="299.2576,-29.2645 300.5128,-18.7443 292.9711,-26.1856 299.2576,-29.2645"/>
</g>
<!-- Node4 -->
<g id="node5" class="node">
<title>Node4</title>
<polygon fill="#ffffff" stroke="#bfbfbf" points="297.9063,-190.5 297.9063,-208.5 348.9258,-208.5 348.9258,-190.5 297.9063,-190.5"/>
<text text-anchor="middle" x="323.416" y="-196.5" font-family="Helvetica,sans-Serif" font-size="10.00" fill="#000000">Ifpack.h</text>
</g>
<!-- Node0&#45;&gt;Node4 -->
<g id="edge4" class="edge">
<title>Node0&#45;&gt;Node4</title>
<path fill="none" stroke="#191970" d="M757.2997,-263.4124C672.9376,-260.5903 499.8225,-250.4473 358.416,-214 356.4575,-213.4952 354.4646,-212.9025 352.4736,-212.2502"/>
<polygon fill="#191970" stroke="#191970" points="353.2983,-208.823 342.7053,-208.6243 350.8624,-215.3855 353.2983,-208.823"/>
</g>
<!-- Node5 -->
<g id="node6" class="node">
<title>Node5</title>
<polygon fill="#ffffff" stroke="#bfbfbf" points="367.165,-190.5 367.165,-208.5 497.667,-208.5 497.667,-190.5 367.165,-190.5"/>
<text text-anchor="middle" x="432.416" y="-196.5" font-family="Helvetica,sans-Serif" font-size="10.00" fill="#000000">Ifpack_AdditiveSchwarz.h</text>
</g>
<!-- Node0&#45;&gt;Node5 -->
<g id="edge5" class="edge">
<title>Node0&#45;&gt;Node5</title>
<path fill="none" stroke="#191970" d="M757.3107,-256.3987C697.1926,-246.7657 594.4168,-229.9762 506.416,-214 500.2452,-212.8797 493.7925,-211.6709 487.3796,-210.446"/>
<polygon fill="#191970" stroke="#191970" points="487.8628,-206.9748 477.381,-208.5183 486.5375,-213.8482 487.8628,-206.9748"/>
</g>
<!-- Node6 -->
<g id="node7" class="node">
<title>Node6</title>
<polygon fill="#ffffff" stroke="#bfbfbf" points="515.6602,-190.5 515.6602,-208.5 641.1719,-208.5 641.1719,-190.5 515.6602,-190.5"/>
<text text-anchor="middle" x="578.416" y="-196.5" font-family="Helvetica,sans-Serif" font-size="10.00" fill="#000000">BelosLinearProblem.hpp</text>
</g>
<!-- Node0&#45;&gt;Node6 -->
<g id="edge6" class="edge">
<title>Node0&#45;&gt;Node6</title>
<path fill="none" stroke="#191970" d="M758.7926,-250.476C717.4548,-238.7936 659.2409,-222.3418 620.2378,-211.3192"/>
<polygon fill="#191970" stroke="#191970" points="620.8427,-207.8531 610.2677,-208.5016 618.9389,-214.5893 620.8427,-207.8531"/>
</g>
<!-- Node7 -->
<g id="node8" class="node">
<title>Node7</title>
<polygon fill="#ffffff" stroke="#bfbfbf" points="659.3867,-190.5 659.3867,-208.5 805.4453,-208.5 805.4453,-190.5 659.3867,-190.5"/>
<text text-anchor="middle" x="732.416" y="-196.5" font-family="Helvetica,sans-Serif" font-size="10.00" fill="#000000">BelosBlockGmresSolMgr.hpp</text>
</g>
<!-- Node0&#45;&gt;Node7 -->
<g id="edge7" class="edge">
<title>Node0&#45;&gt;Node7</title>
<path fill="none" stroke="#191970" d="M791.9251,-250.396C779.865,-240.0814 763.495,-226.0807 750.9768,-215.3743"/>
<polygon fill="#191970" stroke="#191970" points="752.9005,-212.4141 743.026,-208.5743 748.3507,-217.7339 752.9005,-212.4141"/>
</g>
<!-- Node8 -->
<g id="node9" class="node">
<title>Node8</title>
<polygon fill="#ffffff" stroke="#bfbfbf" points="823.207,-190.5 823.207,-208.5 947.625,-208.5 947.625,-190.5 823.207,-190.5"/>
<text text-anchor="middle" x="885.416" y="-196.5" font-family="Helvetica,sans-Serif" font-size="10.00" fill="#000000">BelosEpetraAdapter.hpp</text>
</g>
<!-- Node0&#45;&gt;Node8 -->
<g id="edge8" class="edge">
<title>Node0&#45;&gt;Node8</title>
<path fill="none" stroke="#191970" d="M825.1239,-250.396C837.4602,-239.9822 854.2475,-225.8111 866.9758,-215.0664"/>
<polygon fill="#191970" stroke="#191970" points="869.2827,-217.6994 874.6665,-208.5743 864.7673,-212.3504 869.2827,-217.6994"/>
</g>
<!-- Node9 -->
<g id="node10" class="node">
<title>Node9</title>
<polygon fill="#ffffff" stroke="#bfbfbf" points="965.7036,-190.5 965.7036,-208.5 1087.1284,-208.5 1087.1284,-190.5 965.7036,-190.5"/>
<text text-anchor="middle" x="1026.416" y="-196.5" font-family="Helvetica,sans-Serif" font-size="10.00" fill="#000000">BelosSolverFactory.hpp</text>
</g>
<!-- Node0&#45;&gt;Node9 -->
<g id="edge9" class="edge">
<title>Node0&#45;&gt;Node9</title>
<path fill="none" stroke="#191970" d="M855.4504,-250.476C894.4647,-238.8433 949.3388,-222.4817 986.3033,-211.4602"/>
<polygon fill="#191970" stroke="#191970" points="987.6432,-214.7131 996.2262,-208.5016 985.643,-208.0049 987.6432,-214.7131"/>
</g>
<!-- Node10 -->
<g id="node11" class="node">
<title>Node10</title>
<polygon fill="#ffffff" stroke="#bfbfbf" points="1105.5347,-190.5 1105.5347,-208.5 1283.2974,-208.5 1283.2974,-190.5 1105.5347,-190.5"/>
<text text-anchor="middle" x="1194.416" y="-196.5" font-family="Helvetica,sans-Serif" font-size="10.00" fill="#000000">Teuchos_StandardCatchMacros.hpp</text>
</g>
<!-- Node0&#45;&gt;Node10 -->
<g id="edge10" class="edge">
<title>Node0&#45;&gt;Node10</title>
<path fill="none" stroke="#191970" d="M859.6738,-255.8685C929.6424,-244.0862 1055.0031,-222.9763 1130.8631,-210.2019"/>
<polygon fill="#191970" stroke="#191970" points="1131.4922,-213.6453 1140.7721,-208.5333 1130.3297,-206.7425 1131.4922,-213.6453"/>
</g>
<!-- Node11 -->
<g id="node12" class="node">
<title>Node11</title>
<polygon fill="#ffffff" stroke="#bfbfbf" points="1301.1577,-190.5 1301.1577,-208.5 1441.6743,-208.5 1441.6743,-190.5 1301.1577,-190.5"/>
<text text-anchor="middle" x="1371.416" y="-196.5" font-family="Helvetica,sans-Serif" font-size="10.00" fill="#000000">Teuchos_ParameterList.hpp</text>
</g>
<!-- Node0&#45;&gt;Node11 -->
<g id="edge11" class="edge">
<title>Node0&#45;&gt;Node11</title>
<path fill="none" stroke="#191970" d="M859.7981,-260.4573C948.3696,-253.1943 1135.4107,-236.5649 1292.416,-214 1299.9018,-212.9241 1307.7614,-211.6534 1315.5005,-210.3185"/>
<polygon fill="#191970" stroke="#191970" points="1316.3263,-213.7268 1325.5635,-208.5378 1315.1065,-206.8339 1316.3263,-213.7268"/>
</g>
<!-- Node12 -->
<g id="node13" class="node">
<title>Node12</title>
<polygon fill="#ffffff" stroke="#bfbfbf" points="1459.6084,-185.5 1459.6084,-213.5 1601.2236,-213.5 1601.2236,-185.5 1459.6084,-185.5"/>
<text text-anchor="start" x="1467.6084" y="-201.5" font-family="Helvetica,sans-Serif" font-size="10.00" fill="#000000">Teuchos_XMLParameterList</text>
<text text-anchor="middle" x="1530.416" y="-191.5" font-family="Helvetica,sans-Serif" font-size="10.00" fill="#000000">CoreHelpers.hpp</text>
</g>
<!-- Node0&#45;&gt;Node12 -->
<g id="edge12" class="edge">
<title>Node0&#45;&gt;Node12</title>
<path fill="none" stroke="#191970" d="M859.7781,-262.2207C967.2933,-257.0688 1224.048,-242.775 1449.3474,-214.0507"/>
<polygon fill="#191970" stroke="#191970" points="1449.9027,-217.5082 1459.374,-212.76 1449.0089,-210.5655 1449.9027,-217.5082"/>
</g>
<!-- Node13 -->
<g id="node14" class="node">
<title>Node13</title>
<polygon fill="#ffffff" stroke="#bfbfbf" points="1619.1675,-185.5 1619.1675,-213.5 1749.6646,-213.5 1749.6646,-185.5 1619.1675,-185.5"/>
<text text-anchor="start" x="1627.1675" y="-201.5" font-family="Helvetica,sans-Serif" font-size="10.00" fill="#000000">Stratimikos_DefaultLinear</text>
<text text-anchor="middle" x="1684.416" y="-191.5" font-family="Helvetica,sans-Serif" font-size="10.00" fill="#000000">SolverBuilder.hpp</text>
</g>
<!-- Node0&#45;&gt;Node13 -->
<g id="edge13" class="edge">
<title>Node0&#45;&gt;Node13</title>
<path fill="none" stroke="#191970" d="M859.7735,-263.589C985.8093,-260.8555 1320.5256,-250.5835 1608.8837,-214.0838"/>
<polygon fill="#191970" stroke="#191970" points="1609.6464,-217.5148 1619.1215,-212.7743 1608.7583,-210.5714 1609.6464,-217.5148"/>
</g>
<!-- Node14 -->
<g id="node15" class="node">
<title>Node14</title>
<g id="a_node15"><a xlink:href="../../dd/d0f/orthotropic_r_f__laminate_8hpp.html" target="_top" xlink:title="orthotropicRF_laminate.hpp">
<polygon fill="#ffffff" stroke="#000000" points="1767.7168,-190.5 1767.7168,-208.5 1907.1152,-208.5 1907.1152,-190.5 1767.7168,-190.5"/>
<text text-anchor="middle" x="1837.416" y="-196.5" font-family="Helvetica,sans-Serif" font-size="10.00" fill="#000000">orthotropicRF_laminate.hpp</text>
</a>
</g>
</g>
<!-- Node0&#45;&gt;Node14 -->
<g id="edge14" class="edge">
<title>Node0&#45;&gt;Node14</title>
<path fill="none" stroke="#191970" d="M859.588,-264.0865C1002.3305,-262.4364 1416.8274,-254.2586 1758.416,-214 1766.5877,-213.0369 1775.1896,-211.7474 1783.5891,-210.3332"/>
<polygon fill="#191970" stroke="#191970" points="1784.4475,-213.7361 1793.6918,-208.5598 1783.2372,-206.8415 1784.4475,-213.7361"/>
</g>
<!-- Node15 -->
<g id="node16" class="node">
<title>Node15</title>
<g id="a_node16"><a xlink:href="../../d4/d27/shinozukapp__layeredcomp_8hpp.html" target="_top" xlink:title="shinozukapp_layeredcomp.hpp">
<polygon fill="#ffffff" stroke="#000000" points="1755.2021,-125.5 1755.2021,-143.5 1909.6299,-143.5 1909.6299,-125.5 1755.2021,-125.5"/>
<text text-anchor="middle" x="1832.416" y="-131.5" font-family="Helvetica,sans-Serif" font-size="10.00" fill="#000000">shinozukapp_layeredcomp.hpp</text>
</a>
</g>
</g>
<!-- Node14&#45;&gt;Node15 -->
<g id="edge15" class="edge">
<title>Node14&#45;&gt;Node15</title>
<path fill="none" stroke="#191970" d="M1836.7208,-190.462C1835.9976,-181.061 1834.8431,-166.0518 1833.9116,-153.943"/>
<polygon fill="#191970" stroke="#191970" points="1837.3945,-153.5842 1833.1377,-143.8821 1830.4151,-154.1212 1837.3945,-153.5842"/>
</g>
<!-- Node53 -->
<g id="node48" class="node">
<title>Node53</title>
<g id="a_node48"><a xlink:href="../../de/d49/tensor__calculus_8hpp.html" target="_top" xlink:title="tensor_calculus.hpp">
<polygon fill="#ffffff" stroke="#000000" points="1517.9434,-125.5 1517.9434,-143.5 1622.8887,-143.5 1622.8887,-125.5 1517.9434,-125.5"/>
<text text-anchor="middle" x="1570.416" y="-131.5" font-family="Helvetica,sans-Serif" font-size="10.00" fill="#000000">tensor_calculus.hpp</text>
</a>
</g>
</g>
<!-- Node14&#45;&gt;Node53 -->
<g id="edge48" class="edge">
<title>Node14&#45;&gt;Node53</title>
<path fill="none" stroke="#191970" d="M1800.2908,-190.462C1752.6022,-178.8524 1669.7817,-158.6902 1617.6525,-145.9995"/>
<polygon fill="#191970" stroke="#191970" points="1618.1995,-142.5305 1607.6553,-143.5658 1616.5437,-149.3319 1618.1995,-142.5305"/>
</g>
<!-- Node54 -->
<g id="node49" class="node">
<title>Node54</title>
<g id="a_node49"><a xlink:href="../../d4/d4c/linearelasticity__setup__pp_8hpp.html" target="_top" xlink:title="linearelasticity_setup\l_pp.hpp">
<polygon fill="#ffffff" stroke="#000000" points="2108.0024,-120.5 2108.0024,-148.5 2216.8296,-148.5 2216.8296,-120.5 2108.0024,-120.5"/>
<text text-anchor="start" x="2116.0024" y="-136.5" font-family="Helvetica,sans-Serif" font-size="10.00" fill="#000000">linearelasticity_setup</text>
<text text-anchor="middle" x="2162.416" y="-126.5" font-family="Helvetica,sans-Serif" font-size="10.00" fill="#000000">_pp.hpp</text>
</a>
</g>
</g>
<!-- Node14&#45;&gt;Node54 -->
<g id="edge50" class="edge">
<title>Node14&#45;&gt;Node54</title>
<path fill="none" stroke="#191970" d="M1882.6059,-190.462C1938.5649,-179.2702 2034.265,-160.1302 2097.9268,-147.3978"/>
<polygon fill="#191970" stroke="#191970" points="2098.7387,-150.8049 2107.858,-145.4116 2097.3658,-143.9408 2098.7387,-150.8049"/>
</g>
<!-- Node16 -->
<g id="node17" class="node">
<title>Node16</title>
<g id="a_node17"><a xlink:href="../../d0/d02/meshpp_8hpp.html" target="_top" xlink:title="meshpp.hpp">
<polygon fill="#ffffff" stroke="#ff0000" points="1415.8965,-60.5 1415.8965,-78.5 1486.9355,-78.5 1486.9355,-60.5 1415.8965,-60.5"/>
<text text-anchor="middle" x="1451.416" y="-66.5" font-family="Helvetica,sans-Serif" font-size="10.00" fill="#000000">meshpp.hpp</text>
</a>
</g>
</g>
<!-- Node15&#45;&gt;Node16 -->
<g id="edge16" class="edge">
<title>Node15&#45;&gt;Node16</title>
<path fill="none" stroke="#191970" d="M1755.0074,-126.4869C1686.4658,-118.5352 1583.9954,-104.5476 1496.416,-84 1493.2196,-83.2501 1489.9234,-82.3805 1486.6367,-81.4469"/>
<polygon fill="#191970" stroke="#191970" points="1487.499,-78.0513 1476.9141,-78.5102 1485.4749,-84.7523 1487.499,-78.0513"/>
</g>
<!-- Node47 -->
<g id="node42" class="node">
<title>Node47</title>
<polygon fill="#ffffff" stroke="#bfbfbf" points="1505.2192,-55.5 1505.2192,-83.5 1629.6128,-83.5 1629.6128,-55.5 1505.2192,-55.5"/>
<text text-anchor="start" x="1513.2192" y="-71.5" font-family="Helvetica,sans-Serif" font-size="10.00" fill="#000000">boost/random/mersenne</text>
<text text-anchor="middle" x="1567.416" y="-61.5" font-family="Helvetica,sans-Serif" font-size="10.00" fill="#000000">_twister.hpp</text>
</g>
<!-- Node15&#45;&gt;Node47 -->
<g id="edge42" class="edge">
<title>Node15&#45;&gt;Node47</title>
<path fill="none" stroke="#191970" d="M1795.5689,-125.462C1754.0373,-115.275 1685.6587,-98.5029 1634.57,-85.9717"/>
<polygon fill="#191970" stroke="#191970" points="1635.1418,-82.5083 1624.5959,-83.5253 1633.4742,-89.3068 1635.1418,-82.5083"/>
</g>
<!-- Node48 -->
<g id="node43" class="node">
<title>Node48</title>
<polygon fill="#ffffff" stroke="#bfbfbf" points="1647.7808,-55.5 1647.7808,-83.5 1761.0513,-83.5 1761.0513,-55.5 1647.7808,-55.5"/>
<text text-anchor="start" x="1655.7808" y="-71.5" font-family="Helvetica,sans-Serif" font-size="10.00" fill="#000000">boost/random/uniform</text>
<text text-anchor="middle" x="1704.416" y="-61.5" font-family="Helvetica,sans-Serif" font-size="10.00" fill="#000000">_real_distribution.hpp</text>
</g>
<!-- Node15&#45;&gt;Node48 -->
<g id="edge43" class="edge">
<title>Node15&#45;&gt;Node48</title>
<path fill="none" stroke="#191970" d="M1814.6182,-125.462C1795.8188,-115.9155 1765.631,-100.5857 1741.6005,-88.3828"/>
<polygon fill="#191970" stroke="#191970" points="1742.8984,-85.1164 1732.3974,-83.7093 1739.7289,-91.3578 1742.8984,-85.1164"/>
</g>
<!-- Node49 -->
<g id="node44" class="node">
<title>Node49</title>
<polygon fill="#ffffff" stroke="#bfbfbf" points="1778.7266,-55.5 1778.7266,-83.5 1878.1055,-83.5 1878.1055,-55.5 1778.7266,-55.5"/>
<text text-anchor="start" x="1786.7266" y="-71.5" font-family="Helvetica,sans-Serif" font-size="10.00" fill="#000000">boost/math/special</text>
<text text-anchor="middle" x="1828.416" y="-61.5" font-family="Helvetica,sans-Serif" font-size="10.00" fill="#000000">_functions/erf.hpp</text>
</g>
<!-- Node15&#45;&gt;Node49 -->
<g id="edge44" class="edge">
<title>Node15&#45;&gt;Node49</title>
<path fill="none" stroke="#191970" d="M1831.8598,-125.462C1831.3588,-117.3201 1830.5989,-104.9715 1829.9202,-93.9438"/>
<polygon fill="#191970" stroke="#191970" points="1833.4133,-93.722 1829.3056,-83.9559 1826.4265,-94.152 1833.4133,-93.722"/>
</g>
<!-- Node50 -->
<g id="node45" class="node">
<title>Node50</title>
<polygon fill="#ffffff" stroke="#bfbfbf" points="1896.1699,-55.5 1896.1699,-83.5 2006.6621,-83.5 2006.6621,-55.5 1896.1699,-55.5"/>
<text text-anchor="start" x="1904.1699" y="-71.5" font-family="Helvetica,sans-Serif" font-size="10.00" fill="#000000">boost/random/normal</text>
<text text-anchor="middle" x="1951.416" y="-61.5" font-family="Helvetica,sans-Serif" font-size="10.00" fill="#000000">_distribution.hpp</text>
</g>
<!-- Node15&#45;&gt;Node50 -->
<g id="edge45" class="edge">
<title>Node15&#45;&gt;Node50</title>
<path fill="none" stroke="#191970" d="M1848.9625,-125.462C1866.3627,-115.9577 1894.257,-100.7213 1916.5491,-88.5449"/>
<polygon fill="#191970" stroke="#191970" points="1918.3037,-91.5747 1925.4021,-83.7093 1914.9481,-85.4314 1918.3037,-91.5747"/>
</g>
<!-- Node51 -->
<g id="node46" class="node">
<title>Node51</title>
<polygon fill="#ffffff" stroke="#bfbfbf" points="2024.8301,-55.5 2024.8301,-83.5 2142.002,-83.5 2142.002,-55.5 2024.8301,-55.5"/>
<text text-anchor="start" x="2032.8301" y="-71.5" font-family="Helvetica,sans-Serif" font-size="10.00" fill="#000000">boost/math/special</text>
<text text-anchor="middle" x="2083.416" y="-61.5" font-family="Helvetica,sans-Serif" font-size="10.00" fill="#000000">_functions/gamma.hpp</text>
</g>
<!-- Node15&#45;&gt;Node51 -->
<g id="edge46" class="edge">
<title>Node15&#45;&gt;Node51</title>
<path fill="none" stroke="#191970" d="M1867.3165,-125.462C1906.509,-115.3126 1970.9431,-98.6264 2019.2741,-86.1104"/>
<polygon fill="#191970" stroke="#191970" points="2020.2172,-89.4818 2029.0204,-83.5865 2018.4623,-82.7053 2020.2172,-89.4818"/>
</g>
<!-- Node52 -->
<g id="node47" class="node">
<title>Node52</title>
<polygon fill="#ffffff" stroke="#bfbfbf" points="2159.771,-55.5 2159.771,-83.5 2263.061,-83.5 2263.061,-55.5 2159.771,-55.5"/>
<text text-anchor="start" x="2167.771" y="-71.5" font-family="Helvetica,sans-Serif" font-size="10.00" fill="#000000">boost/math/special</text>
<text text-anchor="middle" x="2211.416" y="-61.5" font-family="Helvetica,sans-Serif" font-size="10.00" fill="#000000">_functions/beta.hpp</text>
</g>
<!-- Node15&#45;&gt;Node52 -->
<g id="edge47" class="edge">
<title>Node15&#45;&gt;Node52</title>
<path fill="none" stroke="#191970" d="M1899.5976,-125.4605C1962.0697,-116.6921 2057.9205,-102.3182 2149.7441,-84.2503"/>
<polygon fill="#191970" stroke="#191970" points="2150.6369,-87.6414 2159.7636,-82.2606 2149.2734,-80.7755 2150.6369,-87.6414"/>
</g>
<!-- Node16&#45;&gt;Node3 -->
<g id="edge41" class="edge">
<title>Node16&#45;&gt;Node3</title>
<path fill="none" stroke="#191970" d="M1415.7897,-68.8168C1280.6371,-66.0132 786.7318,-53.8446 381.416,-19 376.0339,-18.5373 370.4461,-17.9822 364.8534,-17.3757"/>
<polygon fill="#191970" stroke="#191970" points="365.1556,-13.8876 354.8246,-16.2374 364.366,-20.843 365.1556,-13.8876"/>
</g>
<!-- Node17 -->
<g id="node18" class="node">
<title>Node17</title>
<polygon fill="#ffffff" stroke="#bfbfbf" points="390.6846,-.5 390.6846,-18.5 436.1475,-18.5 436.1475,-.5 390.6846,-.5"/>
<text text-anchor="middle" x="413.416" y="-6.5" font-family="Helvetica,sans-Serif" font-size="10.00" fill="#000000">stdio.h</text>
</g>
<!-- Node16&#45;&gt;Node17 -->
<g id="edge17" class="edge">
<title>Node16&#45;&gt;Node17</title>
<path fill="none" stroke="#191970" d="M1415.6828,-68.8475C1262.2283,-65.8731 657.7449,-52.3496 446.3966,-18.6858"/>
<polygon fill="#191970" stroke="#191970" points="446.7709,-15.2002 436.3328,-17.0156 445.6248,-22.1057 446.7709,-15.2002"/>
</g>
<!-- Node18 -->
<g id="node19" class="node">
<title>Node18</title>
<polygon fill="#ffffff" stroke="#bfbfbf" points="454.2437,-.5 454.2437,-18.5 508.5884,-18.5 508.5884,-.5 454.2437,-.5"/>
<text text-anchor="middle" x="481.416" y="-6.5" font-family="Helvetica,sans-Serif" font-size="10.00" fill="#000000">iostream</text>
</g>
<!-- Node16&#45;&gt;Node18 -->
<g id="edge18" class="edge">
<title>Node16&#45;&gt;Node18</title>
<path fill="none" stroke="#191970" d="M1415.8329,-68.5136C1269.8553,-64.3246 715.7719,-46.9952 518.7209,-18.6527"/>
<polygon fill="#191970" stroke="#191970" points="519.1781,-15.1822 508.7703,-17.1643 518.1425,-22.1052 519.1781,-15.1822"/>
</g>
<!-- Node19 -->
<g id="node20" class="node">
<title>Node19</title>
<polygon fill="#ffffff" stroke="#bfbfbf" points="527.0244,-.5 527.0244,-18.5 575.8076,-18.5 575.8076,-.5 527.0244,-.5"/>
<text text-anchor="middle" x="551.416" y="-6.5" font-family="Helvetica,sans-Serif" font-size="10.00" fill="#000000">istream</text>
</g>
<!-- Node16&#45;&gt;Node19 -->
<g id="edge19" class="edge">
<title>Node16&#45;&gt;Node19</title>
<path fill="none" stroke="#191970" d="M1415.4758,-68.4712C1275.7178,-64.3092 767.6151,-47.6338 586.0861,-18.9001"/>
<polygon fill="#191970" stroke="#191970" points="586.5821,-15.4347 576.1453,-17.2575 585.4409,-22.3411 586.5821,-15.4347"/>
</g>
<!-- Node20 -->
<g id="node21" class="node">
<title>Node20</title>
<polygon fill="#ffffff" stroke="#bfbfbf" points="593.7461,-.5 593.7461,-18.5 643.0859,-18.5 643.0859,-.5 593.7461,-.5"/>
<text text-anchor="middle" x="618.416" y="-6.5" font-family="Helvetica,sans-Serif" font-size="10.00" fill="#000000">fstream</text>
</g>
<!-- Node16&#45;&gt;Node20 -->
<g id="edge20" class="edge">
<title>Node16&#45;&gt;Node20</title>
<path fill="none" stroke="#191970" d="M1415.5217,-68.2716C1282.9865,-63.578 820.5918,-45.7651 653.0415,-18.9019"/>
<polygon fill="#191970" stroke="#191970" points="653.5884,-15.4448 643.1476,-17.2443 652.4317,-22.3486 653.5884,-15.4448"/>
</g>
<!-- Node21 -->
<g id="node22" class="node">
<title>Node21</title>
<polygon fill="#ffffff" stroke="#bfbfbf" points="660.8003,-.5 660.8003,-18.5 704.0317,-18.5 704.0317,-.5 660.8003,-.5"/>
<text text-anchor="middle" x="682.416" y="-6.5" font-family="Helvetica,sans-Serif" font-size="10.00" fill="#000000">vector</text>
</g>
<!-- Node16&#45;&gt;Node21 -->
<g id="edge21" class="edge">
<title>Node16&#45;&gt;Node21</title>
<path fill="none" stroke="#191970" d="M1415.6236,-68.1854C1290.0653,-63.4016 869.3076,-45.8742 714.4621,-18.9372"/>
<polygon fill="#191970" stroke="#191970" points="714.6826,-15.4196 704.2164,-17.0655 713.4246,-22.3056 714.6826,-15.4196"/>
</g>
<!-- Node22 -->
<g id="node23" class="node">
<title>Node22</title>
<polygon fill="#ffffff" stroke="#bfbfbf" points="721.9063,-.5 721.9063,-18.5 772.9258,-18.5 772.9258,-.5 721.9063,-.5"/>
<text text-anchor="middle" x="747.416" y="-6.5" font-family="Helvetica,sans-Serif" font-size="10.00" fill="#000000">iomanip</text>
</g>
<!-- Node16&#45;&gt;Node22 -->
<g id="edge22" class="edge">
<title>Node16&#45;&gt;Node22</title>
<path fill="none" stroke="#191970" d="M1415.7694,-67.7042C1298.5537,-61.6624 924.9646,-41.2856 783.4664,-18.8013"/>
<polygon fill="#191970" stroke="#191970" points="783.7257,-15.2965 773.2871,-17.1095 782.578,-22.2017 783.7257,-15.2965"/>
</g>
<!-- Node23 -->
<g id="node24" class="node">
<title>Node23</title>
<polygon fill="#ffffff" stroke="#bfbfbf" points="790.9556,-.5 790.9556,-18.5 895.8765,-18.5 895.8765,-.5 790.9556,-.5"/>
<text text-anchor="middle" x="843.416" y="-6.5" font-family="Helvetica,sans-Serif" font-size="10.00" fill="#000000">Epetra_MpiComm.h</text>
</g>
<!-- Node16&#45;&gt;Node23 -->
<g id="edge23" class="edge">
<title>Node16&#45;&gt;Node23</title>
<path fill="none" stroke="#191970" d="M1415.8155,-66.9872C1329.9428,-60.7606 1104.4364,-43.4241 905.986,-19.1323"/>
<polygon fill="#191970" stroke="#191970" points="906.3125,-15.6462 895.9593,-17.8961 905.4559,-22.5936 906.3125,-15.6462"/>
</g>
<!-- Node24 -->
<g id="node25" class="node">
<title>Node24</title>
<polygon fill="#ffffff" stroke="#bfbfbf" points="913.6724,-.5 913.6724,-18.5 1029.1597,-18.5 1029.1597,-.5 913.6724,-.5"/>
<text text-anchor="middle" x="971.416" y="-6.5" font-family="Helvetica,sans-Serif" font-size="10.00" fill="#000000">Epetra_FECrsGraph.h</text>
</g>
<!-- Node16&#45;&gt;Node24 -->
<g id="edge24" class="edge">
<title>Node16&#45;&gt;Node24</title>
<path fill="none" stroke="#191970" d="M1415.7546,-65.3729C1345.7766,-57.2238 1185.3063,-38.2886 1039.535,-19.1279"/>
<polygon fill="#191970" stroke="#191970" points="1039.8829,-15.6436 1029.5113,-17.8069 1038.9683,-22.5836 1039.8829,-15.6436"/>
</g>
<!-- Node25 -->
<g id="node26" class="node">
<title>Node25</title>
<polygon fill="#ffffff" stroke="#bfbfbf" points="1046.958,-.5 1046.958,-18.5 1161.874,-18.5 1161.874,-.5 1046.958,-.5"/>
<text text-anchor="middle" x="1104.416" y="-6.5" font-family="Helvetica,sans-Serif" font-size="10.00" fill="#000000">Epetra_FECrsMatrix.h</text>
</g>
<!-- Node16&#45;&gt;Node25 -->
<g id="edge25" class="edge">
<title>Node16&#45;&gt;Node25</title>
<path fill="none" stroke="#191970" d="M1415.5879,-63.3049C1356.7948,-53.139 1239.1371,-32.7947 1166.5412,-20.2421"/>
<polygon fill="#191970" stroke="#191970" points="1167.0576,-16.7795 1156.6075,-18.5245 1165.8649,-23.6772 1167.0576,-16.7795"/>
</g>
<!-- Node26 -->
<g id="node27" class="node">
<title>Node26</title>
<polygon fill="#ffffff" stroke="#bfbfbf" points="1179.4409,-.5 1179.4409,-18.5 1279.3911,-18.5 1279.3911,-.5 1179.4409,-.5"/>
<text text-anchor="middle" x="1229.416" y="-6.5" font-family="Helvetica,sans-Serif" font-size="10.00" fill="#000000">Epetra_FEVector.h</text>
</g>
<!-- Node16&#45;&gt;Node26 -->
<g id="edge26" class="edge">
<title>Node16&#45;&gt;Node26</title>
<path fill="none" stroke="#191970" d="M1417.699,-60.3873C1378.8453,-49.8863 1314.912,-32.607 1272.4876,-21.141"/>
<polygon fill="#191970" stroke="#191970" points="1273.2898,-17.7323 1262.7229,-18.5019 1271.4634,-24.4898 1273.2898,-17.7323"/>
</g>
<!-- Node27 -->
<g id="node28" class="node">
<title>Node27</title>
<polygon fill="#ffffff" stroke="#bfbfbf" points="1297.8301,-.5 1297.8301,-18.5 1385.002,-18.5 1385.002,-.5 1297.8301,-.5"/>
<text text-anchor="middle" x="1341.416" y="-6.5" font-family="Helvetica,sans-Serif" font-size="10.00" fill="#000000">Epetra_Vector.h</text>
</g>
<!-- Node16&#45;&gt;Node27 -->
<g id="edge27" class="edge">
<title>Node16&#45;&gt;Node27</title>
<path fill="none" stroke="#191970" d="M1434.7094,-60.3873C1416.676,-50.5509 1387.739,-34.7671 1366.8713,-23.3847"/>
<polygon fill="#191970" stroke="#191970" points="1368.3744,-20.2178 1357.9195,-18.5019 1365.0224,-26.3631 1368.3744,-20.2178"/>
</g>
<!-- Node28 -->
<g id="node29" class="node">
<title>Node28</title>
<polygon fill="#ffffff" stroke="#bfbfbf" points="1403.0073,-.5 1403.0073,-18.5 1481.8247,-18.5 1481.8247,-.5 1403.0073,-.5"/>
<text text-anchor="middle" x="1442.416" y="-6.5" font-family="Helvetica,sans-Serif" font-size="10.00" fill="#000000">Epetra_Map.h</text>
</g>
<!-- Node16&#45;&gt;Node28 -->
<g id="edge28" class="edge">
<title>Node16&#45;&gt;Node28</title>
<path fill="none" stroke="#191970" d="M1450.0491,-60.3873C1448.7936,-52.0174 1446.8922,-39.3414 1445.3013,-28.735"/>
<polygon fill="#191970" stroke="#191970" points="1448.7406,-28.0686 1443.7958,-18.6985 1441.818,-29.1071 1448.7406,-28.0686"/>
</g>
<!-- Node29 -->
<g id="node30" class="node">
<title>Node29</title>
<polygon fill="#ffffff" stroke="#bfbfbf" points="1499.8867,-.5 1499.8867,-18.5 1640.9453,-18.5 1640.9453,-.5 1499.8867,-.5"/>
<text text-anchor="middle" x="1570.416" y="-6.5" font-family="Helvetica,sans-Serif" font-size="10.00" fill="#000000">Epetra_SerialDenseMatrix.h</text>
</g>
<!-- Node16&#45;&gt;Node29 -->
<g id="edge29" class="edge">
<title>Node16&#45;&gt;Node29</title>
<path fill="none" stroke="#191970" d="M1469.4896,-60.3873C1489.1741,-50.4623 1520.8679,-34.4822 1543.486,-23.0782"/>
<polygon fill="#191970" stroke="#191970" points="1545.2088,-26.1293 1552.5623,-18.5019 1542.0573,-19.8788 1545.2088,-26.1293"/>
</g>
<!-- Node30 -->
<g id="node31" class="node">
<title>Node30</title>
<polygon fill="#ffffff" stroke="#bfbfbf" points="1658.5938,-.5 1658.5938,-18.5 1800.2383,-18.5 1800.2383,-.5 1658.5938,-.5"/>
<text text-anchor="middle" x="1729.416" y="-6.5" font-family="Helvetica,sans-Serif" font-size="10.00" fill="#000000">Epetra_SerialDenseVector.h</text>
</g>
<!-- Node16&#45;&gt;Node30 -->
<g id="edge30" class="edge">
<title>Node16&#45;&gt;Node30</title>
<path fill="none" stroke="#191970" d="M1477.9134,-60.3846C1483.9553,-58.4677 1490.3754,-56.5571 1496.416,-55 1552.1898,-40.6228 1616.5029,-28.3837 1663.4125,-20.2326"/>
<polygon fill="#191970" stroke="#191970" points="1664.1859,-23.651 1673.4472,-18.5051 1662.9983,-16.7525 1664.1859,-23.651"/>
</g>
<!-- Node31 -->
<g id="node32" class="node">
<title>Node31</title>
<polygon fill="#ffffff" stroke="#bfbfbf" points="1818.0347,-.5 1818.0347,-18.5 1970.7974,-18.5 1970.7974,-.5 1818.0347,-.5"/>
<text text-anchor="middle" x="1894.416" y="-6.5" font-family="Helvetica,sans-Serif" font-size="10.00" fill="#000000">Epetra_IntSerialDenseVector.h</text>
</g>
<!-- Node16&#45;&gt;Node31 -->
<g id="edge31" class="edge">
<title>Node16&#45;&gt;Node31</title>
<path fill="none" stroke="#191970" d="M1476.405,-60.4799C1482.8559,-58.4198 1489.8372,-56.4213 1496.416,-55 1503.9633,-53.3695 1692.6729,-32.0936 1807.4934,-19.2213"/>
<polygon fill="#191970" stroke="#191970" points="1808.1328,-22.6717 1817.6807,-18.0796 1807.3531,-15.7152 1808.1328,-22.6717"/>
</g>
<!-- Node32 -->
<g id="node33" class="node">
<title>Node32</title>
<polygon fill="#ffffff" stroke="#bfbfbf" points="1988.564,-.5 1988.564,-18.5 2076.2681,-18.5 2076.2681,-.5 1988.564,-.5"/>
<text text-anchor="middle" x="2032.416" y="-6.5" font-family="Helvetica,sans-Serif" font-size="10.00" fill="#000000">Epetra_Import.h</text>
</g>
<!-- Node16&#45;&gt;Node32 -->
<g id="edge32" class="edge">
<title>Node16&#45;&gt;Node32</title>
<path fill="none" stroke="#191970" d="M1475.8968,-60.4504C1482.4783,-58.3387 1489.6493,-56.3228 1496.416,-55 1704.4812,-14.325 1764.0608,-45.0638 1978.5111,-18.9729"/>
<polygon fill="#191970" stroke="#191970" points="1979.0183,-22.4369 1988.5098,-17.7292 1978.1542,-15.4904 1979.0183,-22.4369"/>
</g>
<!-- Node33 -->
<g id="node34" class="node">
<title>Node33</title>
<polygon fill="#ffffff" stroke="#bfbfbf" points="2094.2832,-.5 2094.2832,-18.5 2182.5488,-18.5 2182.5488,-.5 2094.2832,-.5"/>
<text text-anchor="middle" x="2138.416" y="-6.5" font-family="Helvetica,sans-Serif" font-size="10.00" fill="#000000">Epetra_Export.h</text>
</g>
<!-- Node16&#45;&gt;Node33 -->
<g id="edge33" class="edge">
<title>Node16&#45;&gt;Node33</title>
<path fill="none" stroke="#191970" d="M1475.8851,-60.3892C1482.4667,-58.278 1489.6407,-56.2776 1496.416,-55 1750.8683,-7.018 1823.1813,-49.0921 2084.0691,-19.0136"/>
<polygon fill="#191970" stroke="#191970" points="2084.7054,-22.463 2094.2273,-17.8172 2083.8865,-15.511 2084.7054,-22.463"/>
</g>
<!-- Node34 -->
<g id="node35" class="node">
<title>Node34</title>
<polygon fill="#ffffff" stroke="#bfbfbf" points="2200.8062,-.5 2200.8062,-18.5 2282.0259,-18.5 2282.0259,-.5 2200.8062,-.5"/>
<text text-anchor="middle" x="2241.416" y="-6.5" font-family="Helvetica,sans-Serif" font-size="10.00" fill="#000000">Epetra_Time.h</text>
</g>
<!-- Node16&#45;&gt;Node34 -->
<g id="edge34" class="edge">
<title>Node16&#45;&gt;Node34</title>
<path fill="none" stroke="#191970" d="M1475.4081,-60.4975C1482.1168,-58.3308 1489.4733,-56.2758 1496.416,-55 1797.3574,.3017 1882.5046,-54.7443 2190.4456,-18.9311"/>
<polygon fill="#191970" stroke="#191970" points="2191.0384,-22.3855 2200.5567,-17.7321 2190.214,-15.4342 2191.0384,-22.3855"/>
</g>
<!-- Node35 -->
<g id="node36" class="node">
<title>Node35</title>
<polygon fill="#ffffff" stroke="#bfbfbf" points="2299.7119,-.5 2299.7119,-18.5 2449.1201,-18.5 2449.1201,-.5 2299.7119,-.5"/>
<text text-anchor="middle" x="2374.416" y="-6.5" font-family="Helvetica,sans-Serif" font-size="10.00" fill="#000000">ml_MultiLevelPreconditioner.h</text>
</g>
<!-- Node16&#45;&gt;Node35 -->
<g id="edge35" class="edge">
<title>Node16&#45;&gt;Node35</title>
<path fill="none" stroke="#191970" d="M1475.4026,-60.4677C1482.1114,-58.3008 1489.4692,-56.2532 1496.416,-55 1841.1784,7.1967 1937.0211,-46.0917 2289.1118,-19.1274"/>
<polygon fill="#191970" stroke="#191970" points="2289.6408,-22.5968 2299.3373,-18.3274 2289.0947,-15.6182 2289.6408,-22.5968"/>
</g>
<!-- Node36 -->
<g id="node37" class="node">
<title>Node36</title>
<polygon fill="#ffffff" stroke="#bfbfbf" points="2467.3398,-.5 2467.3398,-18.5 2559.4922,-18.5 2559.4922,-.5 2467.3398,-.5"/>
<text text-anchor="middle" x="2513.416" y="-6.5" font-family="Helvetica,sans-Serif" font-size="10.00" fill="#000000">ml_epetra_utils.h</text>
</g>
<!-- Node16&#45;&gt;Node36 -->
<g id="edge36" class="edge">
<title>Node16&#45;&gt;Node36</title>
<path fill="none" stroke="#191970" d="M1475.3962,-60.4316C1482.1049,-58.2646 1489.4644,-56.226 1496.416,-55 1914.4769,18.7275 2031.0655,-62.2268 2457.1422,-18.977"/>
<polygon fill="#191970" stroke="#191970" points="2457.6771,-22.4405 2467.2648,-17.9321 2456.9583,-15.4775 2457.6771,-22.4405"/>
</g>
<!-- Node37 -->
<g id="node38" class="node">
<title>Node37</title>
<polygon fill="#ffffff" stroke="#bfbfbf" points="2577.3447,-.5 2577.3447,-18.5 2649.4873,-18.5 2649.4873,-.5 2577.3447,-.5"/>
<text text-anchor="middle" x="2613.416" y="-6.5" font-family="Helvetica,sans-Serif" font-size="10.00" fill="#000000">ml_include.h</text>
</g>
<!-- Node16&#45;&gt;Node37 -->
<g id="edge37" class="edge">
<title>Node16&#45;&gt;Node37</title>
<path fill="none" stroke="#191970" d="M1475.3931,-60.4139C1482.1018,-58.2469 1489.462,-56.2126 1496.416,-55 1962.7173,26.3133 2093.3321,-74.9989 2566.9731,-18.9449"/>
<polygon fill="#191970" stroke="#191970" points="2567.6464,-22.3893 2577.1576,-17.7217 2566.8116,-15.4392 2567.6464,-22.3893"/>
</g>
<!-- Node38 -->
<g id="node39" class="node">
<title>Node38</title>
<polygon fill="#ffffff" stroke="#bfbfbf" points="2667.8374,-.5 2667.8374,-18.5 2804.9946,-18.5 2804.9946,-.5 2667.8374,-.5"/>
<text text-anchor="middle" x="2736.416" y="-6.5" font-family="Helvetica,sans-Serif" font-size="10.00" fill="#000000">EpetraExt_RowMatrixOut.h</text>
</g>
<!-- Node16&#45;&gt;Node38 -->
<g id="edge38" class="edge">
<title>Node16&#45;&gt;Node38</title>
<path fill="none" stroke="#191970" d="M1475.391,-60.402C1482.0997,-58.2349 1489.4605,-56.2036 1496.416,-55 1747.7473,-11.5094 2384.3812,-37.9458 2657.2037,-18.984"/>
<polygon fill="#191970" stroke="#191970" points="2657.827,-22.4479 2667.5459,-18.2298 2657.3178,-15.4665 2657.827,-22.4479"/>
</g>
<!-- Node39 -->
<g id="node40" class="node">
<title>Node39</title>
<polygon fill="#ffffff" stroke="#bfbfbf" points="2822.7168,-.5 2822.7168,-18.5 2962.1152,-18.5 2962.1152,-.5 2822.7168,-.5"/>
<text text-anchor="middle" x="2892.416" y="-6.5" font-family="Helvetica,sans-Serif" font-size="10.00" fill="#000000">EpetraExt_MultiVectorOut.h</text>
</g>
<!-- Node16&#45;&gt;Node39 -->
<g id="edge39" class="edge">
<title>Node16&#45;&gt;Node39</title>
<path fill="none" stroke="#191970" d="M1475.3881,-60.3851C1482.0968,-58.218 1489.4583,-56.1909 1496.416,-55 1781.9713,-6.1258 2505.7278,-39.9567 2812.4192,-19.0527"/>
<polygon fill="#191970" stroke="#191970" points="2812.9811,-22.5217 2822.7068,-18.3191 2812.4831,-15.5394 2812.9811,-22.5217"/>
</g>
<!-- Node40 -->
<g id="node41" class="node">
<title>Node40</title>
<polygon fill="#ffffff" stroke="#bfbfbf" points="2980.1626,-.5 2980.1626,-18.5 3090.6694,-18.5 3090.6694,-.5 2980.1626,-.5"/>
<text text-anchor="middle" x="3035.416" y="-6.5" font-family="Helvetica,sans-Serif" font-size="10.00" fill="#000000">EpetraExt_VectorIn.h</text>
</g>
<!-- Node16&#45;&gt;Node40 -->
<g id="edge40" class="edge">
<title>Node16&#45;&gt;Node40</title>
<path fill="none" stroke="#191970" d="M1475.3858,-60.3718C1482.0945,-58.2046 1489.4565,-56.1807 1496.416,-55 1816.4363,-.7054 2628.2817,-46.1938 2969.7497,-19.0047"/>
<polygon fill="#191970" stroke="#191970" points="2970.2857,-22.4723 2979.9621,-18.1575 2969.707,-15.4963 2970.2857,-22.4723"/>
</g>
<!-- Node53&#45;&gt;Node16 -->
<g id="edge49" class="edge">
<title>Node53&#45;&gt;Node16</title>
<path fill="none" stroke="#191970" d="M1553.8696,-125.462C1533.9996,-114.6087 1500.4452,-96.2806 1477.1754,-83.5702"/>
<polygon fill="#191970" stroke="#191970" points="1478.6595,-80.3928 1468.2056,-78.6708 1475.3039,-86.5361 1478.6595,-80.3928"/>
</g>
<!-- Node55 -->
<g id="node50" class="node">
<title>Node55</title>
<g id="a_node50"><a xlink:href="../../d9/dea/_linear___finite___element___problem_8hpp.html" target="_top" xlink:title="Linear_Finite_Element\l_Problem.hpp">
<polygon fill="#ffffff" stroke="#ff0000" points="2281.3867,-55.5 2281.3867,-83.5 2397.4453,-83.5 2397.4453,-55.5 2281.3867,-55.5"/>
<text text-anchor="start" x="2289.3867" y="-71.5" font-family="Helvetica,sans-Serif" font-size="10.00" fill="#000000">Linear_Finite_Element</text>
<text text-anchor="middle" x="2339.416" y="-61.5" font-family="Helvetica,sans-Serif" font-size="10.00" fill="#000000">_Problem.hpp</text>
</a>
</g>
</g>
<!-- Node54&#45;&gt;Node55 -->
<g id="edge51" class="edge">
<title>Node54&#45;&gt;Node55</title>
<path fill="none" stroke="#191970" d="M2200.8224,-120.396C2227.38,-110.6432 2262.9113,-97.5949 2291.3483,-87.152"/>
<polygon fill="#191970" stroke="#191970" points="2292.9041,-90.3093 2301.0846,-83.5765 2290.491,-83.7383 2292.9041,-90.3093"/>
</g>
</g>
</svg>
        <g id="navigator" transform="translate(0 0)" fill="#404254">
                <rect fill="#f2f5e9" fill-opacity="0.5" stroke="#606060" stroke-width=".5" x="0" y="0" width="60" height="60"/>
                <use id="zoomplus" xlink:href="#zoomPlus" x="17" y="9" onmousedown="handleZoom(evt,'in')"/>
                <use id="zoomminus" xlink:href="#zoomMin" x="42" y="9" onmousedown="handleZoom(evt,'out')"/>
                <use id="reset" xlink:href="#resetDef" x="30" y="36" onmousedown="handleReset()"/>
                <g id="arrowUp" xlink:href="#dirArrow" transform="translate(30 24)" onmousedown="handlePan(0,-1)">
                  <use xlink:href="#rim" fill="#404040">
                        <set attributeName="fill" to="#808080" begin="arrowUp.mouseover" end="arrowUp.mouseout"/>
                  </use>
                  <path fill="none" stroke="white" stroke-width="1.5" d="M0,-3.0v7 M-2.5,-0.5L0,-3.0L2.5,-0.5"/>
                </g>
                <g id="arrowRight" xlink:href="#dirArrow" transform="rotate(90) translate(36 -43)" onmousedown="handlePan(1,0)">
                  <use xlink:href="#rim" fill="#404040">
                        <set attributeName="fill" to="#808080" begin="arrowRight.mouseover" end="arrowRight.mouseout"/>
                  </use>
                  <path fill="none" stroke="white" stroke-width="1.5" d="M0,-3.0v7 M-2.5,-0.5L0,-3.0L2.5,-0.5"/>
                </g>
                <g id="arrowDown" xlink:href="#dirArrow" transform="rotate(180) translate(-30 -48)" onmousedown="handlePan(0,1)">
                  <use xlink:href="#rim" fill="#404040">
                        <set attributeName="fill" to="#808080" begin="arrowDown.mouseover" end="arrowDown.mouseout"/>
                  </use>
                  <path fill="none" stroke="white" stroke-width="1.5" d="M0,-3.0v7 M-2.5,-0.5L0,-3.0L2.5,-0.5"/>
                </g>
                <g id="arrowLeft" xlink:href="#dirArrow" transform="rotate(270) translate(-36 17)" onmousedown="handlePan(-1,0)">
                  <use xlink:href="#rim" fill="#404040">
                        <set attributeName="fill" to="#808080" begin="arrowLeft.mouseover" end="arrowLeft.mouseout"/>
                  </use>
                  <path fill="none" stroke="white" stroke-width="1.5" d="M0,-3.0v7 M-2.5,-0.5L0,-3.0L2.5,-0.5"/>
                </g>
        </g>
        <svg viewBox="0 0 15 15" width="100%" height="30px" preserveAspectRatio="xMaxYMin meet">
         <g id="arrow_out" transform="scale(0.3 0.3)">
          <a xlink:href="asme_2linearelaslam_2main_8cpp__incl_org.svg" target="_base">
           <rect id="button" ry="5" rx="5" y="6" x="6" height="38" width="38"
                fill="#f2f5e9" fill-opacity="0.5" stroke="#606060" stroke-width="1.0"/>
           <path id="arrow"
             d="M 11.500037,31.436501 C 11.940474,20.09759 22.043105,11.32322 32.158766,21.979434 L 37.068811,17.246167 C 37.068811,17.246167 37.088388,32 37.088388,32 L 22.160133,31.978069 C 22.160133,31.978069 26.997745,27.140456 26.997745,27.140456 C 18.528582,18.264221 13.291696,25.230495 11.500037,31.436501 z"
             style="fill:#404040;"/>
          </a>
         </g>
        </svg>
</svg>
