<?xml version="1.0" encoding="UTF-8" standalone="no"?>
<!DOCTYPE svg PUBLIC "-//W3C//DTD SVG 1.1//EN"
 "http://www.w3.org/Graphics/SVG/1.1/DTD/svg11.dtd">
<!-- Generated by graphviz version 2.40.1 (20161225.0304)
 -->
<!-- Title: src/dirichletStripElongation_StochasticPolyconvexHGO.hpp Pages: 1 -->
<svg width="169pt" height="102pt"
 viewBox="0.00 0.00 169.07 102.00" xmlns="http://www.w3.org/2000/svg" xmlns:xlink="http://www.w3.org/1999/xlink">
<g id="graph0" class="graph" transform="scale(1 1) rotate(0) translate(4 98)">
<title>src/dirichletStripElongation_StochasticPolyconvexHGO.hpp</title>
<polygon fill="#ffffff" stroke="transparent" points="-4,4 -4,-98 165.0732,-98 165.0732,4 -4,4"/>
<!-- Node46 -->
<g id="node1" class="node">
<title>Node46</title>
<polygon fill="#bfbfbf" stroke="#000000" points="0,-65.5 0,-93.5 161.0732,-93.5 161.0732,-65.5 0,-65.5"/>
<text text-anchor="start" x="8" y="-81.5" font-family="Helvetica,sans-Serif" font-size="10.00" fill="#000000">src/dirichletStripElongation</text>
<text text-anchor="middle" x="80.5366" y="-71.5" font-family="Helvetica,sans-Serif" font-size="10.00" fill="#000000">_StochasticPolyconvexHGO.hpp</text>
</g>
<!-- Node47 -->
<g id="node2" class="node">
<title>Node47</title>
<g id="a_node2"><a xlink:href="../../dc/dba/arteries_2strip__dirichlet_2main_8cpp.html" target="_top" xlink:title="arteries/strip_dirichlet\l/main.cpp">
<polygon fill="#ffffff" stroke="#000000" points="25.0195,-.5 25.0195,-28.5 136.0537,-28.5 136.0537,-.5 25.0195,-.5"/>
<text text-anchor="start" x="33.0195" y="-16.5" font-family="Helvetica,sans-Serif" font-size="10.00" fill="#000000">arteries/strip_dirichlet</text>
<text text-anchor="middle" x="80.5366" y="-6.5" font-family="Helvetica,sans-Serif" font-size="10.00" fill="#000000">/main.cpp</text>
</a>
</g>
</g>
<!-- Node46&#45;&gt;Node47 -->
<g id="edge1" class="edge">
<title>Node46&#45;&gt;Node47</title>
<path fill="none" stroke="#191970" d="M80.5366,-55.1081C80.5366,-46.1539 80.5366,-36.3227 80.5366,-28.5765"/>
<polygon fill="#191970" stroke="#191970" points="77.0367,-55.3959 80.5366,-65.396 84.0367,-55.396 77.0367,-55.3959"/>
</g>
</g>
</svg>
