<?xml version="1.0" encoding="UTF-8" standalone="no"?>
<!DOCTYPE svg PUBLIC "-//W3C//DTD SVG 1.1//EN"
 "http://www.w3.org/Graphics/SVG/1.1/DTD/svg11.dtd">
<!-- Generated by graphviz version 2.40.1 (20161225.0304)
 -->
<!-- Title: src/Compressible_Mooney_Transverse_Isotropic.hpp Pages: 1 -->
<svg width="383pt" height="167pt"
 viewBox="0.00 0.00 382.67 167.00" xmlns="http://www.w3.org/2000/svg" xmlns:xlink="http://www.w3.org/1999/xlink">
<g id="graph0" class="graph" transform="scale(1 1) rotate(0) translate(4 163)">
<title>src/Compressible_Mooney_Transverse_Isotropic.hpp</title>
<polygon fill="#ffffff" stroke="transparent" points="-4,4 -4,-163 378.6719,-163 378.6719,4 -4,4"/>
<!-- Node38 -->
<g id="node1" class="node">
<title>Node38</title>
<polygon fill="#bfbfbf" stroke="#000000" points="167.0195,-130.5 167.0195,-158.5 301.3984,-158.5 301.3984,-130.5 167.0195,-130.5"/>
<text text-anchor="start" x="175.0195" y="-146.5" font-family="Helvetica,sans-Serif" font-size="10.00" fill="#000000">src/Compressible_Mooney</text>
<text text-anchor="middle" x="234.209" y="-136.5" font-family="Helvetica,sans-Serif" font-size="10.00" fill="#000000">_Transverse_Isotropic.hpp</text>
</g>
<!-- Node39 -->
<g id="node2" class="node">
<title>Node39</title>
<g id="a_node2"><a xlink:href="../../df/d27/nrl_2deterministic__random__search_2objective_function_8hpp.html" target="_top" xlink:title="nrl/deterministic_random\l_search/objectiveFunction.hpp">
<polygon fill="#ffffff" stroke="#000000" points="80.3892,-65.5 80.3892,-93.5 232.0288,-93.5 232.0288,-65.5 80.3892,-65.5"/>
<text text-anchor="start" x="88.3892" y="-81.5" font-family="Helvetica,sans-Serif" font-size="10.00" fill="#000000">nrl/deterministic_random</text>
<text text-anchor="middle" x="156.209" y="-71.5" font-family="Helvetica,sans-Serif" font-size="10.00" fill="#000000">_search/objectiveFunction.hpp</text>
</a>
</g>
</g>
<!-- Node38&#45;&gt;Node39 -->
<g id="edge1" class="edge">
<title>Node38&#45;&gt;Node39</title>
<path fill="none" stroke="#191970" d="M209.4688,-123.8832C197.6155,-114.0054 183.7241,-102.4293 173.1008,-93.5765"/>
<polygon fill="#191970" stroke="#191970" points="207.3613,-126.6829 217.2841,-130.396 211.8426,-121.3053 207.3613,-126.6829"/>
</g>
<!-- Node42 -->
<g id="node5" class="node">
<title>Node42</title>
<g id="a_node5"><a xlink:href="../../d5/d58/nrl_2forward__deterministic_2main_8cpp.html" target="_top" xlink:title="nrl/forward_deterministic\l/main.cpp">
<polygon fill="#ffffff" stroke="#000000" points="249.7461,-65.5 249.7461,-93.5 374.6719,-93.5 374.6719,-65.5 249.7461,-65.5"/>
<text text-anchor="start" x="257.7461" y="-81.5" font-family="Helvetica,sans-Serif" font-size="10.00" fill="#000000">nrl/forward_deterministic</text>
<text text-anchor="middle" x="312.209" y="-71.5" font-family="Helvetica,sans-Serif" font-size="10.00" fill="#000000">/main.cpp</text>
</a>
</g>
</g>
<!-- Node38&#45;&gt;Node42 -->
<g id="edge4" class="edge">
<title>Node38&#45;&gt;Node42</title>
<path fill="none" stroke="#191970" d="M258.9492,-123.8832C270.8025,-114.0054 284.6938,-102.4293 295.3172,-93.5765"/>
<polygon fill="#191970" stroke="#191970" points="256.5754,-121.3053 251.1338,-130.396 261.0567,-126.6829 256.5754,-121.3053"/>
</g>
<!-- Node40 -->
<g id="node3" class="node">
<title>Node40</title>
<g id="a_node3"><a xlink:href="../../de/de8/example__pnpoly__inverse__isoparam_8cpp.html" target="_top" xlink:title="examples/pnpoly/example\l_pnpoly_inverse_isoparam.cpp">
<polygon fill="#ffffff" stroke="#000000" points="0,-.5 0,-28.5 154.418,-28.5 154.418,-.5 0,-.5"/>
<text text-anchor="start" x="8" y="-16.5" font-family="Helvetica,sans-Serif" font-size="10.00" fill="#000000">examples/pnpoly/example</text>
<text text-anchor="middle" x="77.209" y="-6.5" font-family="Helvetica,sans-Serif" font-size="10.00" fill="#000000">_pnpoly_inverse_isoparam.cpp</text>
</a>
</g>
</g>
<!-- Node39&#45;&gt;Node40 -->
<g id="edge2" class="edge">
<title>Node39&#45;&gt;Node40</title>
<path fill="none" stroke="#191970" d="M131.1516,-58.8832C119.1464,-49.0054 105.0769,-37.4293 94.3174,-28.5765"/>
<polygon fill="#191970" stroke="#191970" points="129.1212,-61.745 139.0672,-65.396 133.5688,-56.3395 129.1212,-61.745"/>
</g>
<!-- Node41 -->
<g id="node4" class="node">
<title>Node41</title>
<g id="a_node4"><a xlink:href="../../d8/dc8/nrl_2deterministic__random__search_2main_8cpp.html" target="_top" xlink:title="nrl/deterministic_random\l_search/main.cpp">
<polygon fill="#ffffff" stroke="#000000" points="172.4653,-.5 172.4653,-28.5 297.9526,-28.5 297.9526,-.5 172.4653,-.5"/>
<text text-anchor="start" x="180.4653" y="-16.5" font-family="Helvetica,sans-Serif" font-size="10.00" fill="#000000">nrl/deterministic_random</text>
<text text-anchor="middle" x="235.209" y="-6.5" font-family="Helvetica,sans-Serif" font-size="10.00" fill="#000000">_search/main.cpp</text>
</a>
</g>
</g>
<!-- Node39&#45;&gt;Node41 -->
<g id="edge3" class="edge">
<title>Node39&#45;&gt;Node41</title>
<path fill="none" stroke="#191970" d="M181.2663,-58.8832C193.2716,-49.0054 207.3411,-37.4293 218.1006,-28.5765"/>
<polygon fill="#191970" stroke="#191970" points="178.8492,-56.3395 173.3508,-65.396 183.2967,-61.745 178.8492,-56.3395"/>
</g>
</g>
</svg>
