<?xml version="1.0" encoding="UTF-8" standalone="no"?>
<!DOCTYPE svg PUBLIC "-//W3C//DTD SVG 1.1//EN"
 "http://www.w3.org/Graphics/SVG/1.1/DTD/svg11.dtd">
<!-- Generated by graphviz version 2.40.1 (20161225.0304)
 -->
<!-- Title: src/Compressible_Mooney_Transverse_Isotropic.hpp Pages: 1 -->
<svg width="613pt" height="177pt"
 viewBox="0.00 0.00 612.67 177.00" xmlns="http://www.w3.org/2000/svg" xmlns:xlink="http://www.w3.org/1999/xlink">
<g id="graph0" class="graph" transform="scale(1 1) rotate(0) translate(4 173)">
<title>src/Compressible_Mooney_Transverse_Isotropic.hpp</title>
<polygon fill="#ffffff" stroke="transparent" points="-4,4 -4,-173 608.6719,-173 608.6719,4 -4,4"/>
<!-- Node38 -->
<g id="node1" class="node">
<title>Node38</title>
<polygon fill="#bfbfbf" stroke="#000000" points="328.0195,-140.5 328.0195,-168.5 462.3984,-168.5 462.3984,-140.5 328.0195,-140.5"/>
<text text-anchor="start" x="336.0195" y="-156.5" font-family="Helvetica,sans-Serif" font-size="10.00" fill="#000000">src/Compressible_Mooney</text>
<text text-anchor="middle" x="395.209" y="-146.5" font-family="Helvetica,sans-Serif" font-size="10.00" fill="#000000">_Transverse_Isotropic.hpp</text>
</g>
<!-- Node39 -->
<g id="node2" class="node">
<title>Node39</title>
<g id="a_node2"><a xlink:href="../../df/d27/nrl_2deterministic__random__search_2objective_function_8hpp.html" target="_top" xlink:title="nrl/deterministic_random\l_search/objectiveFunction.hpp">
<polygon fill="#ffffff" stroke="#000000" points="159.3892,-70.5 159.3892,-98.5 311.0288,-98.5 311.0288,-70.5 159.3892,-70.5"/>
<text text-anchor="start" x="167.3892" y="-86.5" font-family="Helvetica,sans-Serif" font-size="10.00" fill="#000000">nrl/deterministic_random</text>
<text text-anchor="middle" x="235.209" y="-76.5" font-family="Helvetica,sans-Serif" font-size="10.00" fill="#000000">_search/objectiveFunction.hpp</text>
</a>
</g>
</g>
<!-- Node38&#45;&gt;Node39 -->
<g id="edge1" class="edge">
<title>Node38&#45;&gt;Node39</title>
<path fill="none" stroke="#191970" d="M353.643,-136.3149C326.6872,-124.5217 292.0952,-109.3877 267.2658,-98.5249"/>
<polygon fill="#191970" stroke="#191970" points="352.2661,-139.5328 362.8306,-140.3345 355.0719,-133.1197 352.2661,-139.5328"/>
</g>
<!-- Node43 -->
<g id="node6" class="node">
<title>Node43</title>
<g id="a_node6"><a xlink:href="../../de/d26/objective_function__bak_8hpp.html" target="_top" xlink:title="nrl/deterministic_random\l_search/objectiveFunction\l_bak.hpp">
<polygon fill="#ffffff" stroke="#000000" points="329.1206,-65.5 329.1206,-103.5 461.2974,-103.5 461.2974,-65.5 329.1206,-65.5"/>
<text text-anchor="start" x="337.1206" y="-91.5" font-family="Helvetica,sans-Serif" font-size="10.00" fill="#000000">nrl/deterministic_random</text>
<text text-anchor="start" x="337.1206" y="-81.5" font-family="Helvetica,sans-Serif" font-size="10.00" fill="#000000">_search/objectiveFunction</text>
<text text-anchor="middle" x="395.209" y="-71.5" font-family="Helvetica,sans-Serif" font-size="10.00" fill="#000000">_bak.hpp</text>
</a>
</g>
</g>
<!-- Node38&#45;&gt;Node43 -->
<g id="edge5" class="edge">
<title>Node38&#45;&gt;Node43</title>
<path fill="none" stroke="#191970" d="M395.209,-130.0725C395.209,-121.4275 395.209,-111.8328 395.209,-103.6857"/>
<polygon fill="#191970" stroke="#191970" points="391.7091,-130.3344 395.209,-140.3345 398.7091,-130.3345 391.7091,-130.3344"/>
</g>
<!-- Node44 -->
<g id="node7" class="node">
<title>Node44</title>
<g id="a_node7"><a xlink:href="../../d5/d58/nrl_2forward__deterministic_2main_8cpp.html" target="_top" xlink:title="nrl/forward_deterministic\l/main.cpp">
<polygon fill="#ffffff" stroke="#000000" points="479.7461,-70.5 479.7461,-98.5 604.6719,-98.5 604.6719,-70.5 479.7461,-70.5"/>
<text text-anchor="start" x="487.7461" y="-86.5" font-family="Helvetica,sans-Serif" font-size="10.00" fill="#000000">nrl/forward_deterministic</text>
<text text-anchor="middle" x="542.209" y="-76.5" font-family="Helvetica,sans-Serif" font-size="10.00" fill="#000000">/main.cpp</text>
</a>
</g>
</g>
<!-- Node38&#45;&gt;Node44 -->
<g id="edge6" class="edge">
<title>Node38&#45;&gt;Node44</title>
<path fill="none" stroke="#191970" d="M434.0172,-136.0199C458.6003,-124.3137 489.9022,-109.408 512.5056,-98.6445"/>
<polygon fill="#191970" stroke="#191970" points="432.4805,-132.875 424.9566,-140.3345 435.49,-139.1951 432.4805,-132.875"/>
</g>
<!-- Node40 -->
<g id="node3" class="node">
<title>Node40</title>
<g id="a_node3"><a xlink:href="../../de/de8/example__pnpoly__inverse__isoparam_8cpp.html" target="_top" xlink:title="examples/pnpoly/example\l_pnpoly_inverse_isoparam.cpp">
<polygon fill="#ffffff" stroke="#000000" points="0,-.5 0,-28.5 154.418,-28.5 154.418,-.5 0,-.5"/>
<text text-anchor="start" x="8" y="-16.5" font-family="Helvetica,sans-Serif" font-size="10.00" fill="#000000">examples/pnpoly/example</text>
<text text-anchor="middle" x="77.209" y="-6.5" font-family="Helvetica,sans-Serif" font-size="10.00" fill="#000000">_pnpoly_inverse_isoparam.cpp</text>
</a>
</g>
</g>
<!-- Node39&#45;&gt;Node40 -->
<g id="edge2" class="edge">
<title>Node39&#45;&gt;Node40</title>
<path fill="none" stroke="#191970" d="M193.8134,-66.1602C167.2456,-54.3896 133.2771,-39.3403 108.8651,-28.5249"/>
<polygon fill="#191970" stroke="#191970" points="192.6747,-69.4838 203.2353,-70.3345 195.5102,-63.0837 192.6747,-69.4838"/>
</g>
<!-- Node41 -->
<g id="node4" class="node">
<title>Node41</title>
<g id="a_node4"><a xlink:href="../../d8/dc8/nrl_2deterministic__random__search_2main_8cpp.html" target="_top" xlink:title="nrl/deterministic_random\l_search/main.cpp">
<polygon fill="#ffffff" stroke="#000000" points="172.4653,-.5 172.4653,-28.5 297.9526,-28.5 297.9526,-.5 172.4653,-.5"/>
<text text-anchor="start" x="180.4653" y="-16.5" font-family="Helvetica,sans-Serif" font-size="10.00" fill="#000000">nrl/deterministic_random</text>
<text text-anchor="middle" x="235.209" y="-6.5" font-family="Helvetica,sans-Serif" font-size="10.00" fill="#000000">_search/main.cpp</text>
</a>
</g>
</g>
<!-- Node39&#45;&gt;Node41 -->
<g id="edge3" class="edge">
<title>Node39&#45;&gt;Node41</title>
<path fill="none" stroke="#191970" d="M235.209,-60.0725C235.209,-49.5646 235.209,-37.6536 235.209,-28.6445"/>
<polygon fill="#191970" stroke="#191970" points="231.7091,-60.3344 235.209,-70.3345 238.7091,-60.3345 231.7091,-60.3344"/>
</g>
<!-- Node42 -->
<g id="node5" class="node">
<title>Node42</title>
<g id="a_node5"><a xlink:href="../../da/dbf/main__bak_8cpp.html" target="_top" xlink:title="nrl/deterministic_random\l_search/main_bak.cpp">
<polygon fill="#ffffff" stroke="#000000" points="315.4653,-.5 315.4653,-28.5 440.9526,-28.5 440.9526,-.5 315.4653,-.5"/>
<text text-anchor="start" x="323.4653" y="-16.5" font-family="Helvetica,sans-Serif" font-size="10.00" fill="#000000">nrl/deterministic_random</text>
<text text-anchor="middle" x="378.209" y="-6.5" font-family="Helvetica,sans-Serif" font-size="10.00" fill="#000000">_search/main_bak.cpp</text>
</a>
</g>
</g>
<!-- Node39&#45;&gt;Node42 -->
<g id="edge4" class="edge">
<title>Node39&#45;&gt;Node42</title>
<path fill="none" stroke="#191970" d="M273.2776,-65.865C297.1435,-54.1824 327.4224,-39.3606 349.3138,-28.6445"/>
<polygon fill="#191970" stroke="#191970" points="271.59,-62.7942 264.1472,-70.3345 274.6676,-69.0814 271.59,-62.7942"/>
</g>
</g>
</svg>
