<?xml version="1.0" encoding="UTF-8" standalone="no"?>
<!DOCTYPE svg PUBLIC "-//W3C//DTD SVG 1.1//EN"
 "http://www.w3.org/Graphics/SVG/1.1/DTD/svg11.dtd">
<!-- Generated by graphviz version 2.40.1 (20161225.0304)
 -->
<!-- Title: cee530/manufactured/main.cpp Pages: 1 -->
<svg width="3398pt" height="397pt"
 viewBox="0.00 0.00 3398.00 397.00" xmlns="http://www.w3.org/2000/svg" xmlns:xlink="http://www.w3.org/1999/xlink">
<g id="graph0" class="graph" transform="scale(1 1) rotate(0) translate(4 393)">
<title>cee530/manufactured/main.cpp</title>
<polygon fill="#ffffff" stroke="transparent" points="-4,4 -4,-393 3394,-393 3394,4 -4,4"/>
<!-- Node0 -->
<g id="node1" class="node">
<title>Node0</title>
<polygon fill="#bfbfbf" stroke="#000000" points="1990,-358.5 1990,-388.5 2100,-388.5 2100,-358.5 1990,-358.5"/>
<text text-anchor="start" x="1998" y="-376.5" font-family="Helvetica,sans-Serif" font-size="10.00" fill="#000000">cee530/manufactured</text>
<text text-anchor="middle" x="2045" y="-365.5" font-family="Helvetica,sans-Serif" font-size="10.00" fill="#000000">/main.cpp</text>
</g>
<!-- Node1 -->
<g id="node2" class="node">
<title>Node1</title>
<polygon fill="#ffffff" stroke="#bfbfbf" points="1580,-297 1580,-316 1688,-316 1688,-297 1580,-297"/>
<text text-anchor="middle" x="1634" y="-304" font-family="Helvetica,sans-Serif" font-size="10.00" fill="#000000">Epetra_ConfigDefs.h</text>
</g>
<!-- Node0&#45;&gt;Node1 -->
<g id="edge1" class="edge">
<title>Node0&#45;&gt;Node1</title>
<path fill="none" stroke="#191970" d="M1989.8775,-366.974C1921.0293,-358.449 1799.7765,-342.2013 1697,-322 1691.543,-320.9274 1685.8474,-319.6919 1680.2083,-318.3964"/>
<polygon fill="#191970" stroke="#191970" points="1680.7201,-314.9208 1670.1826,-316.0216 1679.1066,-321.7324 1680.7201,-314.9208"/>
</g>
<!-- Node2 -->
<g id="node3" class="node">
<title>Node2</title>
<polygon fill="#ffffff" stroke="#bfbfbf" points="1706.5,-297 1706.5,-316 1819.5,-316 1819.5,-297 1706.5,-297"/>
<text text-anchor="middle" x="1763" y="-304" font-family="Helvetica,sans-Serif" font-size="10.00" fill="#000000">Epetra_SerialComm.h</text>
</g>
<!-- Node0&#45;&gt;Node2 -->
<g id="edge2" class="edge">
<title>Node0&#45;&gt;Node2</title>
<path fill="none" stroke="#191970" d="M1989.9581,-360.4227C1938.673,-348.2379 1862.854,-330.2242 1813.1922,-318.4251"/>
<polygon fill="#191970" stroke="#191970" points="1813.8553,-314.9853 1803.3171,-316.0789 1812.2372,-321.7957 1813.8553,-314.9853"/>
</g>
<!-- Node3 -->
<g id="node4" class="node">
<title>Node3</title>
<g id="a_node4"><a xlink:href="../../d4/d56/cee530_2manufactured_2manufactured_solution_8hpp.html" target="_top" xlink:title="manufacturedSolution.hpp">
<polygon fill="#ffffff" stroke="#000000" points="1838,-297 1838,-316 1968,-316 1968,-297 1838,-297"/>
<text text-anchor="middle" x="1903" y="-304" font-family="Helvetica,sans-Serif" font-size="10.00" fill="#000000">manufacturedSolution.hpp</text>
</a>
</g>
</g>
<!-- Node0&#45;&gt;Node3 -->
<g id="edge3" class="edge">
<title>Node0&#45;&gt;Node3</title>
<path fill="none" stroke="#191970" d="M2013.1324,-358.4639C1988.9847,-347.0702 1956.0543,-331.5327 1932.5061,-320.4219"/>
<polygon fill="#191970" stroke="#191970" points="1933.892,-317.2058 1923.3546,-316.1039 1930.9049,-323.5365 1933.892,-317.2058"/>
</g>
<!-- Node31 -->
<g id="node32" class="node">
<title>Node31</title>
<polygon fill="#ffffff" stroke="#bfbfbf" points="3290,-.5 3290,-19.5 3390,-19.5 3390,-.5 3290,-.5"/>
<text text-anchor="middle" x="3340" y="-7.5" font-family="Helvetica,sans-Serif" font-size="10.00" fill="#000000">Teuchos_RCP.hpp</text>
</g>
<!-- Node0&#45;&gt;Node31 -->
<g id="edge42" class="edge">
<title>Node0&#45;&gt;Node31</title>
<path fill="none" stroke="#191970" d="M2034.9531,-358.2753C2028.7499,-348.3033 2021.0406,-334.7926 2016,-322 2002.169,-286.8979 1996,-277.2287 1996,-239.5 1996,-239.5 1996,-239.5 1996,-122 1996,18.4295 3094.6578,-35.4284 3279.8676,-19.8311"/>
<polygon fill="#191970" stroke="#191970" points="3280.2395,-23.3114 3289.8325,-18.8142 3279.5289,-16.3475 3280.2395,-23.3114"/>
</g>
<!-- Node40 -->
<g id="node41" class="node">
<title>Node40</title>
<polygon fill="#ffffff" stroke="#bfbfbf" points="2024.5,-297 2024.5,-316 2163.5,-316 2163.5,-297 2024.5,-297"/>
<text text-anchor="middle" x="2094" y="-304" font-family="Helvetica,sans-Serif" font-size="10.00" fill="#000000">Teuchos_ParameterList.hpp</text>
</g>
<!-- Node0&#45;&gt;Node40 -->
<g id="edge43" class="edge">
<title>Node0&#45;&gt;Node40</title>
<path fill="none" stroke="#191970" d="M2056.1189,-358.2967C2063.5309,-348.1618 2073.3,-334.804 2081.061,-324.1921"/>
<polygon fill="#191970" stroke="#191970" points="2083.9339,-326.1928 2087.012,-316.055 2078.2837,-322.0606 2083.9339,-326.1928"/>
</g>
<!-- Node41 -->
<g id="node42" class="node">
<title>Node41</title>
<polygon fill="#ffffff" stroke="#bfbfbf" points="2182,-297 2182,-316 2358,-316 2358,-297 2182,-297"/>
<text text-anchor="middle" x="2270" y="-304" font-family="Helvetica,sans-Serif" font-size="10.00" fill="#000000">Teuchos_StandardCatchMacros.hpp</text>
</g>
<!-- Node0&#45;&gt;Node41 -->
<g id="edge44" class="edge">
<title>Node0&#45;&gt;Node41</title>
<path fill="none" stroke="#191970" d="M2095.4944,-358.4639C2135.5762,-346.5284 2190.929,-330.0456 2228.4664,-318.8678"/>
<polygon fill="#191970" stroke="#191970" points="2229.4941,-322.2137 2238.0793,-316.0053 2227.4963,-315.5049 2229.4941,-322.2137"/>
</g>
<!-- Node42 -->
<g id="node43" class="node">
<title>Node42</title>
<polygon fill="#ffffff" stroke="#bfbfbf" points="2375.5,-297 2375.5,-316 2560.5,-316 2560.5,-297 2375.5,-297"/>
<text text-anchor="middle" x="2468" y="-304" font-family="Helvetica,sans-Serif" font-size="10.00" fill="#000000">Teuchos_CommandLineProcessor.hpp</text>
</g>
<!-- Node0&#45;&gt;Node42 -->
<g id="edge45" class="edge">
<title>Node0&#45;&gt;Node42</title>
<path fill="none" stroke="#191970" d="M2100.2999,-364.7409C2176.6944,-352.6406 2314.5197,-330.8101 2398.003,-317.587"/>
<polygon fill="#191970" stroke="#191970" points="2398.5774,-321.0397 2407.9067,-316.0183 2397.4823,-314.1259 2398.5774,-321.0397"/>
</g>
<!-- Node43 -->
<g id="node44" class="node">
<title>Node43</title>
<polygon fill="#ffffff" stroke="#bfbfbf" points="2579,-291.5 2579,-321.5 2719,-321.5 2719,-291.5 2579,-291.5"/>
<text text-anchor="start" x="2587" y="-309.5" font-family="Helvetica,sans-Serif" font-size="10.00" fill="#000000">Teuchos_XMLParameterList</text>
<text text-anchor="middle" x="2649" y="-298.5" font-family="Helvetica,sans-Serif" font-size="10.00" fill="#000000">CoreHelpers.hpp</text>
</g>
<!-- Node0&#45;&gt;Node43 -->
<g id="edge46" class="edge">
<title>Node0&#45;&gt;Node43</title>
<path fill="none" stroke="#191970" d="M2100.0076,-369.8498C2194.0466,-363.2277 2391.9044,-347.6341 2568.8372,-322.0861"/>
<polygon fill="#191970" stroke="#191970" points="2569.4585,-325.5327 2578.8489,-320.6265 2568.4485,-318.6059 2569.4585,-325.5327"/>
</g>
<!-- Node4 -->
<g id="node5" class="node">
<title>Node4</title>
<g id="a_node5"><a xlink:href="../../de/d49/tensor__calculus_8hpp.html" target="_top" xlink:title="tensor_calculus.hpp">
<polygon fill="#ffffff" stroke="#000000" points="1688,-168.5 1688,-187.5 1792,-187.5 1792,-168.5 1688,-168.5"/>
<text text-anchor="middle" x="1740" y="-175.5" font-family="Helvetica,sans-Serif" font-size="10.00" fill="#000000">tensor_calculus.hpp</text>
</a>
</g>
</g>
<!-- Node3&#45;&gt;Node4 -->
<g id="edge4" class="edge">
<title>Node3&#45;&gt;Node4</title>
<path fill="none" stroke="#191970" d="M1889.4096,-296.8527C1875.1792,-286.6698 1852.2648,-270.042 1833,-255 1806.9238,-234.6396 1777.6518,-210.1171 1759.0359,-194.3034"/>
<polygon fill="#191970" stroke="#191970" points="1761.1639,-191.5183 1751.2823,-187.6967 1756.6239,-196.8464 1761.1639,-191.5183"/>
</g>
<!-- Node37 -->
<g id="node38" class="node">
<title>Node37</title>
<g id="a_node38"><a xlink:href="../../d4/d4c/linearelasticity__setup__pp_8hpp.html" target="_top" xlink:title="linearelasticity_setup\l_pp.hpp">
<polygon fill="#ffffff" stroke="#000000" points="1842,-224.5 1842,-254.5 1950,-254.5 1950,-224.5 1842,-224.5"/>
<text text-anchor="start" x="1850" y="-242.5" font-family="Helvetica,sans-Serif" font-size="10.00" fill="#000000">linearelasticity_setup</text>
<text text-anchor="middle" x="1896" y="-231.5" font-family="Helvetica,sans-Serif" font-size="10.00" fill="#000000">_pp.hpp</text>
</a>
</g>
</g>
<!-- Node3&#45;&gt;Node37 -->
<g id="edge38" class="edge">
<title>Node3&#45;&gt;Node37</title>
<path fill="none" stroke="#191970" d="M1901.9971,-296.9005C1901.1204,-288.5099 1899.8077,-275.9451 1898.6337,-264.7085"/>
<polygon fill="#191970" stroke="#191970" points="1902.0897,-264.1039 1897.5694,-254.5218 1895.1276,-264.8314 1902.0897,-264.1039"/>
</g>
<!-- Node5 -->
<g id="node6" class="node">
<title>Node5</title>
<g id="a_node6"><a xlink:href="../../d0/d02/meshpp_8hpp.html" target="_top" xlink:title="meshpp.hpp">
<polygon fill="#ffffff" stroke="#000000" points="1705,-56.5 1705,-75.5 1775,-75.5 1775,-56.5 1705,-56.5"/>
<text text-anchor="middle" x="1740" y="-63.5" font-family="Helvetica,sans-Serif" font-size="10.00" fill="#000000">meshpp.hpp</text>
</a>
</g>
</g>
<!-- Node4&#45;&gt;Node5 -->
<g id="edge5" class="edge">
<title>Node4&#45;&gt;Node5</title>
<path fill="none" stroke="#191970" d="M1740,-168.4509C1740,-150.184 1740,-109.9553 1740,-85.6976"/>
<polygon fill="#191970" stroke="#191970" points="1743.5001,-85.5249 1740,-75.5249 1736.5001,-85.5249 1743.5001,-85.5249"/>
</g>
<!-- Node6 -->
<g id="node7" class="node">
<title>Node6</title>
<polygon fill="#ffffff" stroke="#bfbfbf" points="0,-.5 0,-19.5 46,-19.5 46,-.5 0,-.5"/>
<text text-anchor="middle" x="23" y="-7.5" font-family="Helvetica,sans-Serif" font-size="10.00" fill="#000000">stdio.h</text>
</g>
<!-- Node5&#45;&gt;Node6 -->
<g id="edge6" class="edge">
<title>Node5&#45;&gt;Node6</title>
<path fill="none" stroke="#191970" d="M1704.9856,-65.6231C1482.2169,-63.15 265.5748,-48.4974 56.2336,-19.596"/>
<polygon fill="#191970" stroke="#191970" points="56.6509,-16.1193 46.2382,-18.0755 55.5981,-23.0397 56.6509,-16.1193"/>
</g>
<!-- Node7 -->
<g id="node8" class="node">
<title>Node7</title>
<polygon fill="#ffffff" stroke="#bfbfbf" points="64,-.5 64,-19.5 118,-19.5 118,-.5 64,-.5"/>
<text text-anchor="middle" x="91" y="-7.5" font-family="Helvetica,sans-Serif" font-size="10.00" fill="#000000">iostream</text>
</g>
<!-- Node5&#45;&gt;Node7 -->
<g id="edge7" class="edge">
<title>Node5&#45;&gt;Node7</title>
<path fill="none" stroke="#191970" d="M1704.723,-65.5071C1487.1547,-62.4006 330.63,-44.9 128.5423,-19.7361"/>
<polygon fill="#191970" stroke="#191970" points="128.752,-16.2321 118.3688,-18.3394 127.7998,-23.1671 128.752,-16.2321"/>
</g>
<!-- Node8 -->
<g id="node9" class="node">
<title>Node8</title>
<polygon fill="#ffffff" stroke="#bfbfbf" points="136.5,-.5 136.5,-19.5 185.5,-19.5 185.5,-.5 136.5,-.5"/>
<text text-anchor="middle" x="161" y="-7.5" font-family="Helvetica,sans-Serif" font-size="10.00" fill="#000000">istream</text>
</g>
<!-- Node5&#45;&gt;Node8 -->
<g id="edge8" class="edge">
<title>Node5&#45;&gt;Node8</title>
<path fill="none" stroke="#191970" d="M1704.8207,-65.4929C1493.0199,-62.3696 390.464,-45.0938 195.7706,-19.5239"/>
<polygon fill="#191970" stroke="#191970" points="196.1128,-16.037 185.7139,-18.0648 195.1077,-22.9645 196.1128,-16.037"/>
</g>
<!-- Node9 -->
<g id="node10" class="node">
<title>Node9</title>
<polygon fill="#ffffff" stroke="#bfbfbf" points="204,-.5 204,-19.5 254,-19.5 254,-.5 204,-.5"/>
<text text-anchor="middle" x="229" y="-7.5" font-family="Helvetica,sans-Serif" font-size="10.00" fill="#000000">fstream</text>
</g>
<!-- Node5&#45;&gt;Node9 -->
<g id="edge9" class="edge">
<title>Node5&#45;&gt;Node9</title>
<path fill="none" stroke="#191970" d="M1704.6794,-65.439C1498.2941,-62.091 451.3419,-44.12 264.2316,-19.625"/>
<polygon fill="#191970" stroke="#191970" points="264.4856,-16.1253 254.0867,-18.1534 263.4807,-23.0528 264.4856,-16.1253"/>
</g>
<!-- Node10 -->
<g id="node11" class="node">
<title>Node10</title>
<polygon fill="#ffffff" stroke="#bfbfbf" points="272,-.5 272,-19.5 316,-19.5 316,-.5 272,-.5"/>
<text text-anchor="middle" x="294" y="-7.5" font-family="Helvetica,sans-Serif" font-size="10.00" fill="#000000">vector</text>
</g>
<!-- Node5&#45;&gt;Node10 -->
<g id="edge10" class="edge">
<title>Node5&#45;&gt;Node10</title>
<path fill="none" stroke="#191970" d="M1704.8315,-65.4444C1504.0458,-62.1956 505.6635,-44.988 326.1274,-19.5394"/>
<polygon fill="#191970" stroke="#191970" points="326.5863,-16.0686 316.1634,-17.9695 325.4968,-22.9833 326.5863,-16.0686"/>
</g>
<!-- Node11 -->
<g id="node12" class="node">
<title>Node11</title>
<polygon fill="#ffffff" stroke="#bfbfbf" points="334,-.5 334,-19.5 384,-19.5 384,-.5 334,-.5"/>
<text text-anchor="middle" x="359" y="-7.5" font-family="Helvetica,sans-Serif" font-size="10.00" fill="#000000">iomanip</text>
</g>
<!-- Node5&#45;&gt;Node11 -->
<g id="edge11" class="edge">
<title>Node5&#45;&gt;Node11</title>
<path fill="none" stroke="#191970" d="M1704.9263,-65.3303C1510.3707,-61.5467 566.5783,-42.2702 394.1056,-19.6074"/>
<polygon fill="#191970" stroke="#191970" points="394.4889,-16.1263 384.0881,-18.1448 393.4775,-23.0529 394.4889,-16.1263"/>
</g>
<!-- Node12 -->
<g id="node13" class="node">
<title>Node12</title>
<polygon fill="#ffffff" stroke="#bfbfbf" points="402,-.5 402,-19.5 506,-19.5 506,-.5 402,-.5"/>
<text text-anchor="middle" x="454" y="-7.5" font-family="Helvetica,sans-Serif" font-size="10.00" fill="#000000">Epetra_MpiComm.h</text>
</g>
<!-- Node5&#45;&gt;Node12 -->
<g id="edge12" class="edge">
<title>Node5&#45;&gt;Node12</title>
<path fill="none" stroke="#191970" d="M1704.7921,-65.2731C1532.3715,-61.6235 775.2839,-44.537 516.2972,-19.9833"/>
<polygon fill="#191970" stroke="#191970" points="516.4796,-16.4846 506.1865,-18.9953 515.7987,-23.4514 516.4796,-16.4846"/>
</g>
<!-- Node13 -->
<g id="node14" class="node">
<title>Node13</title>
<polygon fill="#ffffff" stroke="#bfbfbf" points="524.5,-.5 524.5,-19.5 637.5,-19.5 637.5,-.5 524.5,-.5"/>
<text text-anchor="middle" x="581" y="-7.5" font-family="Helvetica,sans-Serif" font-size="10.00" fill="#000000">Epetra_FECrsGraph.h</text>
</g>
<!-- Node5&#45;&gt;Node13 -->
<g id="edge13" class="edge">
<title>Node5&#45;&gt;Node13</title>
<path fill="none" stroke="#191970" d="M1704.8843,-65.0352C1544.4504,-60.5496 879.4429,-41.0967 647.8704,-19.9545"/>
<polygon fill="#191970" stroke="#191970" points="648.1169,-16.4623 637.8331,-19.0105 647.4614,-23.4316 648.1169,-16.4623"/>
</g>
<!-- Node14 -->
<g id="node15" class="node">
<title>Node14</title>
<polygon fill="#ffffff" stroke="#bfbfbf" points="656,-.5 656,-19.5 770,-19.5 770,-.5 656,-.5"/>
<text text-anchor="middle" x="713" y="-7.5" font-family="Helvetica,sans-Serif" font-size="10.00" fill="#000000">Epetra_FECrsMatrix.h</text>
</g>
<!-- Node5&#45;&gt;Node14 -->
<g id="edge14" class="edge">
<title>Node5&#45;&gt;Node14</title>
<path fill="none" stroke="#191970" d="M1704.9978,-65.6194C1580.528,-63.9932 1147.598,-56.0072 780.2222,-20.0234"/>
<polygon fill="#191970" stroke="#191970" points="780.488,-16.5327 770.1923,-19.0323 779.7996,-23.4987 780.488,-16.5327"/>
</g>
<!-- Node15 -->
<g id="node16" class="node">
<title>Node15</title>
<polygon fill="#ffffff" stroke="#bfbfbf" points="788,-.5 788,-19.5 888,-19.5 888,-.5 788,-.5"/>
<text text-anchor="middle" x="838" y="-7.5" font-family="Helvetica,sans-Serif" font-size="10.00" fill="#000000">Epetra_FEVector.h</text>
</g>
<!-- Node5&#45;&gt;Node15 -->
<g id="edge15" class="edge">
<title>Node5&#45;&gt;Node15</title>
<path fill="none" stroke="#191970" d="M1704.9514,-65.5094C1590.4964,-63.6072 1217.2276,-55.0366 898.5201,-20.0482"/>
<polygon fill="#191970" stroke="#191970" points="898.4823,-16.5227 888.1574,-18.8991 897.7107,-23.48 898.4823,-16.5227"/>
</g>
<!-- Node16 -->
<g id="node17" class="node">
<title>Node16</title>
<polygon fill="#ffffff" stroke="#bfbfbf" points="906.5,-.5 906.5,-19.5 993.5,-19.5 993.5,-.5 906.5,-.5"/>
<text text-anchor="middle" x="950" y="-7.5" font-family="Helvetica,sans-Serif" font-size="10.00" fill="#000000">Epetra_Vector.h</text>
</g>
<!-- Node5&#45;&gt;Node16 -->
<g id="edge16" class="edge">
<title>Node5&#45;&gt;Node16</title>
<path fill="none" stroke="#191970" d="M1704.894,-65.4016C1599.894,-63.2756 1278.9995,-54.3336 1003.8088,-20.0903"/>
<polygon fill="#191970" stroke="#191970" points="1003.9867,-16.5851 993.6279,-18.8091 1003.1127,-23.5303 1003.9867,-16.5851"/>
</g>
<!-- Node17 -->
<g id="node18" class="node">
<title>Node17</title>
<polygon fill="#ffffff" stroke="#bfbfbf" points="1011.5,-.5 1011.5,-19.5 1088.5,-19.5 1088.5,-.5 1011.5,-.5"/>
<text text-anchor="middle" x="1050" y="-7.5" font-family="Helvetica,sans-Serif" font-size="10.00" fill="#000000">Epetra_Map.h</text>
</g>
<!-- Node5&#45;&gt;Node17 -->
<g id="edge17" class="edge">
<title>Node5&#45;&gt;Node17</title>
<path fill="none" stroke="#191970" d="M1704.9705,-65.1938C1609.2897,-62.6312 1335.3979,-52.8873 1098.8236,-20.0939"/>
<polygon fill="#191970" stroke="#191970" points="1099.0427,-16.5905 1088.6532,-18.6665 1098.0697,-23.5225 1099.0427,-16.5905"/>
</g>
<!-- Node18 -->
<g id="node19" class="node">
<title>Node18</title>
<polygon fill="#ffffff" stroke="#bfbfbf" points="1106.5,-.5 1106.5,-19.5 1245.5,-19.5 1245.5,-.5 1106.5,-.5"/>
<text text-anchor="middle" x="1176" y="-7.5" font-family="Helvetica,sans-Serif" font-size="10.00" fill="#000000">Epetra_SerialDenseMatrix.h</text>
</g>
<!-- Node5&#45;&gt;Node18 -->
<g id="edge18" class="edge">
<title>Node5&#45;&gt;Node18</title>
<path fill="none" stroke="#191970" d="M1704.9653,-63.0565C1626.603,-56.3914 1430.9812,-39.3006 1255.9424,-20.0745"/>
<polygon fill="#191970" stroke="#191970" points="1256.0963,-16.5703 1245.7728,-18.9524 1255.3286,-23.5281 1256.0963,-16.5703"/>
</g>
<!-- Node19 -->
<g id="node20" class="node">
<title>Node19</title>
<polygon fill="#ffffff" stroke="#bfbfbf" points="1264,-.5 1264,-19.5 1404,-19.5 1404,-.5 1264,-.5"/>
<text text-anchor="middle" x="1334" y="-7.5" font-family="Helvetica,sans-Serif" font-size="10.00" fill="#000000">Epetra_SerialDenseVector.h</text>
</g>
<!-- Node5&#45;&gt;Node19 -->
<g id="edge19" class="edge">
<title>Node5&#45;&gt;Node19</title>
<path fill="none" stroke="#191970" d="M1704.6804,-61.1283C1640.0341,-52.2116 1501.2339,-33.0667 1413.0316,-20.9009"/>
<polygon fill="#191970" stroke="#191970" points="1413.4509,-17.4257 1403.0664,-19.5264 1412.4943,-24.36 1413.4509,-17.4257"/>
</g>
<!-- Node20 -->
<g id="node21" class="node">
<title>Node20</title>
<polygon fill="#ffffff" stroke="#bfbfbf" points="1422,-.5 1422,-19.5 1574,-19.5 1574,-.5 1422,-.5"/>
<text text-anchor="middle" x="1498" y="-7.5" font-family="Helvetica,sans-Serif" font-size="10.00" fill="#000000">Epetra_IntSerialDenseVector.h</text>
</g>
<!-- Node5&#45;&gt;Node20 -->
<g id="edge20" class="edge">
<title>Node5&#45;&gt;Node20</title>
<path fill="none" stroke="#191970" d="M1704.8111,-57.8571C1663.898,-48.3896 1596.0178,-32.6818 1549.2494,-21.8594"/>
<polygon fill="#191970" stroke="#191970" points="1549.8462,-18.405 1539.3145,-19.5604 1548.268,-25.2248 1549.8462,-18.405"/>
</g>
<!-- Node21 -->
<g id="node22" class="node">
<title>Node21</title>
<polygon fill="#ffffff" stroke="#bfbfbf" points="1592,-.5 1592,-19.5 1678,-19.5 1678,-.5 1592,-.5"/>
<text text-anchor="middle" x="1635" y="-7.5" font-family="Helvetica,sans-Serif" font-size="10.00" fill="#000000">Epetra_Import.h</text>
</g>
<!-- Node5&#45;&gt;Node21 -->
<g id="edge21" class="edge">
<title>Node5&#45;&gt;Node21</title>
<path fill="none" stroke="#191970" d="M1721.7104,-56.2455C1705.2238,-47.4527 1680.7648,-34.4079 1662.0235,-24.4125"/>
<polygon fill="#191970" stroke="#191970" points="1663.5506,-21.2604 1653.08,-19.6427 1660.2565,-27.4368 1663.5506,-21.2604"/>
</g>
<!-- Node22 -->
<g id="node23" class="node">
<title>Node22</title>
<polygon fill="#ffffff" stroke="#bfbfbf" points="1696.5,-.5 1696.5,-19.5 1783.5,-19.5 1783.5,-.5 1696.5,-.5"/>
<text text-anchor="middle" x="1740" y="-7.5" font-family="Helvetica,sans-Serif" font-size="10.00" fill="#000000">Epetra_Export.h</text>
</g>
<!-- Node5&#45;&gt;Node22 -->
<g id="edge22" class="edge">
<title>Node5&#45;&gt;Node22</title>
<path fill="none" stroke="#191970" d="M1740,-56.2455C1740,-48.9382 1740,-38.6944 1740,-29.7046"/>
<polygon fill="#191970" stroke="#191970" points="1743.5001,-29.6426 1740,-19.6427 1736.5001,-29.6427 1743.5001,-29.6426"/>
</g>
<!-- Node23 -->
<g id="node24" class="node">
<title>Node23</title>
<polygon fill="#ffffff" stroke="#bfbfbf" points="1802,-.5 1802,-19.5 1882,-19.5 1882,-.5 1802,-.5"/>
<text text-anchor="middle" x="1842" y="-7.5" font-family="Helvetica,sans-Serif" font-size="10.00" fill="#000000">Epetra_Time.h</text>
</g>
<!-- Node5&#45;&gt;Node23 -->
<g id="edge23" class="edge">
<title>Node5&#45;&gt;Node23</title>
<path fill="none" stroke="#191970" d="M1757.767,-56.2455C1773.7095,-47.4928 1797.3259,-34.527 1815.4989,-24.5496"/>
<polygon fill="#191970" stroke="#191970" points="1817.3552,-27.5233 1824.4366,-19.6427 1813.9863,-21.3873 1817.3552,-27.5233"/>
</g>
<!-- Node24 -->
<g id="node25" class="node">
<title>Node24</title>
<polygon fill="#ffffff" stroke="#bfbfbf" points="1900.5,-.5 1900.5,-19.5 2047.5,-19.5 2047.5,-.5 1900.5,-.5"/>
<text text-anchor="middle" x="1974" y="-7.5" font-family="Helvetica,sans-Serif" font-size="10.00" fill="#000000">ml_MultiLevelPreconditioner.h</text>
</g>
<!-- Node5&#45;&gt;Node24 -->
<g id="edge24" class="edge">
<title>Node5&#45;&gt;Node24</title>
<path fill="none" stroke="#191970" d="M1775.0322,-57.6162C1814.6218,-48.1418 1879.3741,-32.6455 1924.2063,-21.9164"/>
<polygon fill="#191970" stroke="#191970" points="1925.1063,-25.3 1934.017,-19.5686 1923.477,-18.4922 1925.1063,-25.3"/>
</g>
<!-- Node25 -->
<g id="node26" class="node">
<title>Node25</title>
<polygon fill="#ffffff" stroke="#bfbfbf" points="2065.5,-.5 2065.5,-19.5 2156.5,-19.5 2156.5,-.5 2065.5,-.5"/>
<text text-anchor="middle" x="2111" y="-7.5" font-family="Helvetica,sans-Serif" font-size="10.00" fill="#000000">ml_epetra_utils.h</text>
</g>
<!-- Node5&#45;&gt;Node25 -->
<g id="edge25" class="edge">
<title>Node5&#45;&gt;Node25</title>
<path fill="none" stroke="#191970" d="M1775.2512,-61.3419C1832.0725,-53.7341 1947.6697,-37.8476 2055.3018,-20.2361"/>
<polygon fill="#191970" stroke="#191970" points="2056.0577,-23.6588 2065.3568,-18.5818 2054.9213,-16.7517 2056.0577,-23.6588"/>
</g>
<!-- Node26 -->
<g id="node27" class="node">
<title>Node26</title>
<polygon fill="#ffffff" stroke="#bfbfbf" points="2174.5,-.5 2174.5,-19.5 2245.5,-19.5 2245.5,-.5 2174.5,-.5"/>
<text text-anchor="middle" x="2210" y="-7.5" font-family="Helvetica,sans-Serif" font-size="10.00" fill="#000000">ml_include.h</text>
</g>
<!-- Node5&#45;&gt;Node26 -->
<g id="edge26" class="edge">
<title>Node5&#45;&gt;Node26</title>
<path fill="none" stroke="#191970" d="M1775.2544,-63.5831C1846.7906,-58.3809 2014.2617,-44.6874 2163.7728,-20.2305"/>
<polygon fill="#191970" stroke="#191970" points="2164.7557,-23.6155 2174.049,-18.5276 2163.6113,-16.7097 2164.7557,-23.6155"/>
</g>
<!-- Node27 -->
<g id="node28" class="node">
<title>Node27</title>
<polygon fill="#ffffff" stroke="#bfbfbf" points="2263.5,-.5 2263.5,-19.5 2400.5,-19.5 2400.5,-.5 2263.5,-.5"/>
<text text-anchor="middle" x="2332" y="-7.5" font-family="Helvetica,sans-Serif" font-size="10.00" fill="#000000">EpetraExt_RowMatrixOut.h</text>
</g>
<!-- Node5&#45;&gt;Node27 -->
<g id="edge27" class="edge">
<title>Node5&#45;&gt;Node27</title>
<path fill="none" stroke="#191970" d="M1775.0168,-63.359C1856.8445,-57.0833 2067.1835,-40.3485 2253.2082,-20.1646"/>
<polygon fill="#191970" stroke="#191970" points="2253.608,-23.6418 2263.1694,-19.0779 2252.8488,-16.6831 2253.608,-23.6418"/>
</g>
<!-- Node28 -->
<g id="node29" class="node">
<title>Node28</title>
<polygon fill="#ffffff" stroke="#bfbfbf" points="2418.5,-.5 2418.5,-19.5 2557.5,-19.5 2557.5,-.5 2418.5,-.5"/>
<text text-anchor="middle" x="2488" y="-7.5" font-family="Helvetica,sans-Serif" font-size="10.00" fill="#000000">EpetraExt_MultiVectorOut.h</text>
</g>
<!-- Node5&#45;&gt;Node28 -->
<g id="edge28" class="edge">
<title>Node5&#45;&gt;Node28</title>
<path fill="none" stroke="#191970" d="M1775.2931,-64.3118C1873.7223,-59.4473 2159.8128,-44.2445 2407.9844,-20.1521"/>
<polygon fill="#191970" stroke="#191970" points="2408.6701,-23.6018 2418.282,-19.1451 2407.9888,-16.635 2408.6701,-23.6018"/>
</g>
<!-- Node29 -->
<g id="node30" class="node">
<title>Node29</title>
<polygon fill="#ffffff" stroke="#bfbfbf" points="2576,-.5 2576,-19.5 2686,-19.5 2686,-.5 2576,-.5"/>
<text text-anchor="middle" x="2631" y="-7.5" font-family="Helvetica,sans-Serif" font-size="10.00" fill="#000000">EpetraExt_VectorIn.h</text>
</g>
<!-- Node5&#45;&gt;Node29 -->
<g id="edge29" class="edge">
<title>Node5&#45;&gt;Node29</title>
<path fill="none" stroke="#191970" d="M1775.131,-64.513C1909.325,-58.7618 2390.3939,-37.4766 2565.7758,-20.0068"/>
<polygon fill="#191970" stroke="#191970" points="2566.298,-23.4716 2575.8877,-18.9674 2565.5822,-16.5083 2566.298,-23.4716"/>
</g>
<!-- Node30 -->
<g id="node31" class="node">
<title>Node30</title>
<polygon fill="#ffffff" stroke="#bfbfbf" points="2704.5,-.5 2704.5,-19.5 2835.5,-19.5 2835.5,-.5 2704.5,-.5"/>
<text text-anchor="middle" x="2770" y="-7.5" font-family="Helvetica,sans-Serif" font-size="10.00" fill="#000000">EpetraExt_MultiVectorIn.h</text>
</g>
<!-- Node5&#45;&gt;Node30 -->
<g id="edge30" class="edge">
<title>Node5&#45;&gt;Node30</title>
<path fill="none" stroke="#191970" d="M1775.0652,-64.4871C1931.6818,-57.7069 2564.8038,-30.0445 2694.1808,-19.9334"/>
<polygon fill="#191970" stroke="#191970" points="2694.5124,-23.4179 2704.1852,-19.095 2693.9278,-16.4424 2694.5124,-23.4179"/>
</g>
<!-- Node5&#45;&gt;Node31 -->
<g id="edge31" class="edge">
<title>Node5&#45;&gt;Node31</title>
<path fill="none" stroke="#191970" d="M1775.2627,-64.3925C1822.3742,-62.2794 1908.4567,-58.5384 1982,-56 2555.8292,-36.1935 2704.4676,-75.9252 3279.6376,-19.9904"/>
<polygon fill="#191970" stroke="#191970" points="3280.2404,-23.4482 3289.8522,-18.9914 3279.559,-16.4815 3280.2404,-23.4482"/>
</g>
<!-- Node32 -->
<g id="node33" class="node">
<title>Node32</title>
<polygon fill="#ffffff" stroke="#bfbfbf" points="2853.5,-.5 2853.5,-19.5 2914.5,-19.5 2914.5,-.5 2853.5,-.5"/>
<text text-anchor="middle" x="2884" y="-7.5" font-family="Helvetica,sans-Serif" font-size="10.00" fill="#000000">Amesos.h</text>
</g>
<!-- Node5&#45;&gt;Node32 -->
<g id="edge32" class="edge">
<title>Node5&#45;&gt;Node32</title>
<path fill="none" stroke="#191970" d="M1775.1458,-64.5431C1952.4826,-57.1911 2744.1964,-24.3598 2843.3459,-19.114"/>
<polygon fill="#191970" stroke="#191970" points="2843.7077,-22.5982 2853.4665,-18.4733 2843.2653,-15.6122 2843.7077,-22.5982"/>
</g>
<!-- Node33 -->
<g id="node34" class="node">
<title>Node33</title>
<polygon fill="#ffffff" stroke="#bfbfbf" points="2932.5,-.5 2932.5,-19.5 2997.5,-19.5 2997.5,-.5 2932.5,-.5"/>
<text text-anchor="middle" x="2965" y="-7.5" font-family="Helvetica,sans-Serif" font-size="10.00" fill="#000000">AztecOO.h</text>
</g>
<!-- Node5&#45;&gt;Node33 -->
<g id="edge33" class="edge">
<title>Node5&#45;&gt;Node33</title>
<path fill="none" stroke="#191970" d="M1775.267,-64.5084C1822.3833,-62.5235 1908.4711,-58.9242 1982,-56 2397.2685,-39.485 2507.2852,-77.3134 2922.2684,-19.9828"/>
<polygon fill="#191970" stroke="#191970" points="2923.0186,-23.4122 2932.4406,-18.5669 2922.0536,-16.479 2923.0186,-23.4122"/>
</g>
<!-- Node34 -->
<g id="node35" class="node">
<title>Node34</title>
<polygon fill="#ffffff" stroke="#bfbfbf" points="3016,-.5 3016,-19.5 3132,-19.5 3132,-.5 3016,-.5"/>
<text text-anchor="middle" x="3074" y="-7.5" font-family="Helvetica,sans-Serif" font-size="10.00" fill="#000000">Amesos_BaseSolver.h</text>
</g>
<!-- Node5&#45;&gt;Node34 -->
<g id="edge34" class="edge">
<title>Node5&#45;&gt;Node34</title>
<path fill="none" stroke="#191970" d="M1775.2657,-64.4743C1822.3805,-62.4516 1908.4666,-58.8106 1982,-56 2434.1676,-38.7174 2551.3648,-61.3751 3005.8291,-20.0016"/>
<polygon fill="#191970" stroke="#191970" points="3006.3048,-23.4728 3015.9439,-19.0753 3005.6664,-16.502 3006.3048,-23.4728"/>
</g>
<!-- Node35 -->
<g id="node36" class="node">
<title>Node35</title>
<polygon fill="#ffffff" stroke="#bfbfbf" points="3150.5,-.5 3150.5,-19.5 3199.5,-19.5 3199.5,-.5 3150.5,-.5"/>
<text text-anchor="middle" x="3175" y="-7.5" font-family="Helvetica,sans-Serif" font-size="10.00" fill="#000000">metis.h</text>
</g>
<!-- Node5&#45;&gt;Node35 -->
<g id="edge35" class="edge">
<title>Node5&#45;&gt;Node35</title>
<path fill="none" stroke="#191970" d="M1775.264,-64.4295C1822.377,-62.3572 1908.4611,-58.6614 1982,-56 2236.242,-46.7988 2870.1863,-60.3327 3140.0572,-19.6572"/>
<polygon fill="#191970" stroke="#191970" points="3140.9448,-23.0611 3150.2855,-18.061 3139.8654,-16.1448 3140.9448,-23.0611"/>
</g>
<!-- Node36 -->
<g id="node37" class="node">
<title>Node36</title>
<g id="a_node37"><a xlink:href="../../d4/dbc/fepp_8hpp.html" target="_top" xlink:title="fepp.hpp">
<polygon fill="#ffffff" stroke="#000000" points="3218,-.5 3218,-19.5 3272,-19.5 3272,-.5 3218,-.5"/>
<text text-anchor="middle" x="3245" y="-7.5" font-family="Helvetica,sans-Serif" font-size="10.00" fill="#000000">fepp.hpp</text>
</a>
</g>
</g>
<!-- Node5&#45;&gt;Node36 -->
<g id="edge36" class="edge">
<title>Node5&#45;&gt;Node36</title>
<path fill="none" stroke="#191970" d="M1775.0523,-64.1326C1820.7311,-62.0005 1902.6106,-58.4868 1973,-56 2245.6139,-46.3686 2930.2847,-60.8019 3200,-20 3202.6156,-19.6043 3205.3114,-19.0809 3208.0319,-18.4806"/>
<polygon fill="#191970" stroke="#191970" points="3209.0152,-21.8432 3217.8922,-16.0597 3207.346,-15.0451 3209.0152,-21.8432"/>
</g>
<!-- Node36&#45;&gt;Node5 -->
<g id="edge37" class="edge">
<title>Node36&#45;&gt;Node5</title>
<path fill="none" stroke="#191970" d="M3220.7169,-19.5494C3219.8053,-19.7133 3218.8979,-19.8642 3218,-20 2948.2847,-60.8019 2263.6139,-46.3686 1991,-56 1919.4,-58.5296 1835.9111,-62.1216 1785.4212,-64.2414"/>
<polygon fill="#191970" stroke="#191970" points="1785.0091,-60.7555 1775.1642,-64.6704 1785.3018,-67.7493 1785.0091,-60.7555"/>
</g>
<!-- Node38 -->
<g id="node39" class="node">
<title>Node38</title>
<g id="a_node39"><a xlink:href="../../dd/d1b/_linear_finite_element_problem_8hpp.html" target="_top" xlink:title="LinearFiniteElementProblem.hpp">
<polygon fill="#ffffff" stroke="#000000" points="1810,-168.5 1810,-187.5 1968,-187.5 1968,-168.5 1810,-168.5"/>
<text text-anchor="middle" x="1889" y="-175.5" font-family="Helvetica,sans-Serif" font-size="10.00" fill="#000000">LinearFiniteElementProblem.hpp</text>
</a>
</g>
</g>
<!-- Node37&#45;&gt;Node38 -->
<g id="edge39" class="edge">
<title>Node37&#45;&gt;Node38</title>
<path fill="none" stroke="#191970" d="M1894.2697,-224.2977C1893.3587,-216.2945 1892.2307,-206.3843 1891.2524,-197.7889"/>
<polygon fill="#191970" stroke="#191970" points="1894.7293,-197.3869 1890.1208,-187.8469 1887.7742,-198.1786 1894.7293,-197.3869"/>
</g>
<!-- Node39 -->
<g id="node40" class="node">
<title>Node39</title>
<g id="a_node40"><a xlink:href="../../d0/d41/_base_class_f_e_m_8hpp.html" target="_top" xlink:title="BaseClassFEM.hpp">
<polygon fill="#ffffff" stroke="#000000" points="1803,-112.5 1803,-131.5 1907,-131.5 1907,-112.5 1803,-112.5"/>
<text text-anchor="middle" x="1855" y="-119.5" font-family="Helvetica,sans-Serif" font-size="10.00" fill="#000000">BaseClassFEM.hpp</text>
</a>
</g>
</g>
<!-- Node38&#45;&gt;Node39 -->
<g id="edge40" class="edge">
<title>Node38&#45;&gt;Node39</title>
<path fill="none" stroke="#191970" d="M1883.0777,-168.2455C1878.3973,-160.5367 1871.7327,-149.5598 1866.0711,-140.2348"/>
<polygon fill="#191970" stroke="#191970" points="1869.0361,-138.3741 1860.8545,-131.6427 1863.0525,-142.007 1869.0361,-138.3741"/>
</g>
<!-- Node39&#45;&gt;Node5 -->
<g id="edge41" class="edge">
<title>Node39&#45;&gt;Node5</title>
<path fill="none" stroke="#191970" d="M1835.2308,-112.3733C1816.8531,-103.4241 1789.2688,-89.9917 1768.5107,-79.8835"/>
<polygon fill="#191970" stroke="#191970" points="1770.0343,-76.7325 1759.5112,-75.5011 1766.9696,-83.026 1770.0343,-76.7325"/>
</g>
</g>
</svg>
