<?xml version="1.0" encoding="UTF-8" standalone="no"?>
<!DOCTYPE svg PUBLIC "-//W3C//DTD SVG 1.1//EN"
 "http://www.w3.org/Graphics/SVG/1.1/DTD/svg11.dtd">
<!-- Generated by graphviz version 2.40.1 (20161225.0304)
 -->
<!-- Title: ShapeObject3D Pages: 1 -->
<svg width="259pt" height="137pt"
 viewBox="0.00 0.00 259.36 137.00" xmlns="http://www.w3.org/2000/svg" xmlns:xlink="http://www.w3.org/1999/xlink">
<g id="graph0" class="graph" transform="scale(1 1) rotate(0) translate(4 133)">
<title>ShapeObject3D</title>
<polygon fill="#ffffff" stroke="transparent" points="-4,4 -4,-133 255.3643,-133 255.3643,4 -4,4"/>
<!-- Node0 -->
<g id="node1" class="node">
<title>Node0</title>
<polygon fill="#bfbfbf" stroke="#000000" points="75.271,-55.5 75.271,-73.5 161.8716,-73.5 161.8716,-55.5 75.271,-55.5"/>
<text text-anchor="middle" x="118.5713" y="-61.5" font-family="Helvetica,sans-Serif" font-size="10.00" fill="#000000">ShapeObject3D</text>
</g>
<!-- Node2 -->
<g id="node3" class="node">
<title>Node2</title>
<g id="a_node3"><a xlink:href="../../d3/dfc/class_linear_hexa.html" target="_top" xlink:title="LinearHexa">
<polygon fill="#ffffff" stroke="#000000" points="0,-.5 0,-18.5 67.1426,-18.5 67.1426,-.5 0,-.5"/>
<text text-anchor="middle" x="33.5713" y="-6.5" font-family="Helvetica,sans-Serif" font-size="10.00" fill="#000000">LinearHexa</text>
</a>
</g>
</g>
<!-- Node0&#45;&gt;Node2 -->
<g id="edge2" class="edge">
<title>Node0&#45;&gt;Node2</title>
<path fill="none" stroke="#191970" d="M96.0896,-49.953C80.7112,-40.0023 60.8006,-27.1189 47.6282,-18.5956"/>
<polygon fill="#191970" stroke="#191970" points="94.2382,-52.9238 104.5353,-55.4179 98.0409,-47.0468 94.2382,-52.9238"/>
</g>
<!-- Node3 -->
<g id="node4" class="node">
<title>Node3</title>
<g id="a_node4"><a xlink:href="../../d2/dec/class_linear_tetra.html" target="_top" xlink:title="LinearTetra">
<polygon fill="#ffffff" stroke="#000000" points="85.5566,-.5 85.5566,-18.5 151.5859,-18.5 151.5859,-.5 85.5566,-.5"/>
<text text-anchor="middle" x="118.5713" y="-6.5" font-family="Helvetica,sans-Serif" font-size="10.00" fill="#000000">LinearTetra</text>
</a>
</g>
</g>
<!-- Node0&#45;&gt;Node3 -->
<g id="edge3" class="edge">
<title>Node0&#45;&gt;Node3</title>
<path fill="none" stroke="#191970" d="M118.5713,-45.383C118.5713,-36.3738 118.5713,-26.0373 118.5713,-18.7795"/>
<polygon fill="#191970" stroke="#191970" points="115.0714,-45.4178 118.5713,-55.4179 122.0714,-45.4179 115.0714,-45.4178"/>
</g>
<!-- Node4 -->
<g id="node5" class="node">
<title>Node4</title>
<g id="a_node5"><a xlink:href="../../dd/db6/class_quadratic_tetra.html" target="_top" xlink:title="QuadraticTetra">
<polygon fill="#ffffff" stroke="#000000" points="169.7783,-.5 169.7783,-18.5 251.3643,-18.5 251.3643,-.5 169.7783,-.5"/>
<text text-anchor="middle" x="210.5713" y="-6.5" font-family="Helvetica,sans-Serif" font-size="10.00" fill="#000000">QuadraticTetra</text>
</a>
</g>
</g>
<!-- Node0&#45;&gt;Node4 -->
<g id="edge4" class="edge">
<title>Node0&#45;&gt;Node4</title>
<path fill="none" stroke="#191970" d="M142.439,-50.2313C159.1458,-40.2435 180.9664,-27.1986 195.3568,-18.5956"/>
<polygon fill="#191970" stroke="#191970" points="140.5504,-47.2825 133.7632,-55.4179 144.1423,-53.2907 140.5504,-47.2825"/>
</g>
<!-- Node1 -->
<g id="node2" class="node">
<title>Node1</title>
<g id="a_node2"><a xlink:href="../../d1/d2e/class_shape_object.html" target="_top" xlink:title="ShapeObject">
<polygon fill="#ffffff" stroke="#000000" points="81.6626,-110.5 81.6626,-128.5 155.48,-128.5 155.48,-110.5 81.6626,-110.5"/>
<text text-anchor="middle" x="118.5713" y="-116.5" font-family="Helvetica,sans-Serif" font-size="10.00" fill="#000000">ShapeObject</text>
</a>
</g>
</g>
<!-- Node1&#45;&gt;Node0 -->
<g id="edge1" class="edge">
<title>Node1&#45;&gt;Node0</title>
<path fill="none" stroke="#191970" d="M118.5713,-100.383C118.5713,-91.3738 118.5713,-81.0373 118.5713,-73.7795"/>
<polygon fill="#191970" stroke="#191970" points="115.0714,-100.4178 118.5713,-110.4179 122.0714,-100.4179 115.0714,-100.4178"/>
</g>
</g>
</svg>
