<?xml version="1.0" encoding="UTF-8" standalone="no"?>
<!DOCTYPE svg PUBLIC "-//W3C//DTD SVG 1.1//EN"
 "http://www.w3.org/Graphics/SVG/1.1/DTD/svg11.dtd">
<!-- Generated by graphviz version 2.40.1 (20161225.0304)
 -->
<!-- Title: manufactured Pages: 1 -->
<svg width="124pt" height="202pt"
 viewBox="0.00 0.00 124.06 202.00" xmlns="http://www.w3.org/2000/svg" xmlns:xlink="http://www.w3.org/1999/xlink">
<g id="graph0" class="graph" transform="scale(1 1) rotate(0) translate(4 198)">
<title>manufactured</title>
<polygon fill="#ffffff" stroke="transparent" points="-4,4 -4,-198 120.0586,-198 120.0586,4 -4,4"/>
<!-- Node0 -->
<g id="node1" class="node">
<title>Node0</title>
<polygon fill="#bfbfbf" stroke="#000000" points="19.4556,-.5 19.4556,-18.5 96.603,-18.5 96.603,-.5 19.4556,-.5"/>
<text text-anchor="middle" x="58.0293" y="-6.5" font-family="Helvetica,sans-Serif" font-size="10.00" fill="#000000">manufactured</text>
</g>
<!-- Node1 -->
<g id="node2" class="node">
<title>Node1</title>
<g id="a_node2"><a xlink:href="../../d9/df7/class_linearized_elasticity.html" target="_top" xlink:title="LinearizedElasticity">
<polygon fill="#ffffff" stroke="#000000" points="7.2314,-55.5 7.2314,-73.5 108.8271,-73.5 108.8271,-55.5 7.2314,-55.5"/>
<text text-anchor="middle" x="58.0293" y="-61.5" font-family="Helvetica,sans-Serif" font-size="10.00" fill="#000000">LinearizedElasticity</text>
</a>
</g>
</g>
<!-- Node1&#45;&gt;Node0 -->
<g id="edge1" class="edge">
<title>Node1&#45;&gt;Node0</title>
<path fill="none" stroke="#191970" d="M58.0293,-45.383C58.0293,-36.3738 58.0293,-26.0373 58.0293,-18.7795"/>
<polygon fill="#191970" stroke="#191970" points="54.5294,-45.4178 58.0293,-55.4179 61.5294,-45.4179 54.5294,-45.4178"/>
</g>
<!-- Node2 -->
<g id="node3" class="node">
<title>Node2</title>
<g id="a_node3"><a xlink:href="../../d3/d9f/class_linear___finite___element___problem.html" target="_top" xlink:title="Linear_Finite_Element\l_Problem">
<polygon fill="#ffffff" stroke="#000000" points="0,-110.5 0,-138.5 116.0586,-138.5 116.0586,-110.5 0,-110.5"/>
<text text-anchor="start" x="8" y="-126.5" font-family="Helvetica,sans-Serif" font-size="10.00" fill="#000000">Linear_Finite_Element</text>
<text text-anchor="middle" x="58.0293" y="-116.5" font-family="Helvetica,sans-Serif" font-size="10.00" fill="#000000">_Problem</text>
</a>
</g>
</g>
<!-- Node2&#45;&gt;Node1 -->
<g id="edge2" class="edge">
<title>Node2&#45;&gt;Node1</title>
<path fill="none" stroke="#191970" d="M58.0293,-100.2151C58.0293,-90.8253 58.0293,-80.6598 58.0293,-73.5842"/>
<polygon fill="#191970" stroke="#191970" points="54.5294,-100.2808 58.0293,-110.2808 61.5294,-100.2809 54.5294,-100.2808"/>
</g>
<!-- Node3 -->
<g id="node4" class="node">
<title>Node3</title>
<g id="a_node4"><a xlink:href="../../d2/d97/class_base_class_f_e_m.html" target="_top" xlink:title="BaseClassFEM">
<polygon fill="#ffffff" stroke="#000000" points="15.5762,-175.5 15.5762,-193.5 100.4824,-193.5 100.4824,-175.5 15.5762,-175.5"/>
<text text-anchor="middle" x="58.0293" y="-181.5" font-family="Helvetica,sans-Serif" font-size="10.00" fill="#000000">BaseClassFEM</text>
</a>
</g>
</g>
<!-- Node3&#45;&gt;Node2 -->
<g id="edge3" class="edge">
<title>Node3&#45;&gt;Node2</title>
<path fill="none" stroke="#191970" d="M58.0293,-165.1865C58.0293,-156.6283 58.0293,-146.7354 58.0293,-138.8477"/>
<polygon fill="#191970" stroke="#191970" points="54.5294,-165.3873 58.0293,-175.3873 61.5294,-165.3873 54.5294,-165.3873"/>
</g>
</g>
</svg>
