<?xml version="1.0" encoding="UTF-8" standalone="no"?>
<!DOCTYPE svg PUBLIC "-//W3C//DTD SVG 1.1//EN"
 "http://www.w3.org/Graphics/SVG/1.1/DTD/svg11.dtd">
<!-- Generated by graphviz version 2.40.1 (20161225.0304)
 -->
<!-- Title: BaseClassFEM Pages: 1 -->
<!--zoomable 459 -->
<svg id="main" version="1.1" xmlns="http://www.w3.org/2000/svg" xmlns:xlink="http://www.w3.org/1999/xlink" xml:space="preserve" onload="init(evt)">
<style type="text/css"><![CDATA[
.edge:hover path { stroke: red; }
.edge:hover polygon { stroke: red; fill: red; }
]]></style>
<script type="text/javascript"><![CDATA[
var edges = document.getElementsByTagName('g');
if (edges && edges.length) {
  for (var i=0;i<edges.length;i++) {
    if (edges[i].id.substr(0,4)=='edge') {
      edges[i].setAttribute('class','edge');
    }
  }
}
]]></script>
        <defs>
                <circle id="rim" cx="0" cy="0" r="7"/>
                <circle id="rim2" cx="0" cy="0" r="3.5"/>
                <g id="zoomPlus">
                        <use xlink:href="#rim" fill="#404040">
                                <set attributeName="fill" to="#808080" begin="zoomplus.mouseover" end="zoomplus.mouseout"/>
                        </use>
                        <path d="M-4,0h8M0,-4v8" fill="none" stroke="white" stroke-width="1.5" pointer-events="none"/>
                </g>
                <g id="zoomMin">
                        <use xlink:href="#rim" fill="#404040">
                                <set attributeName="fill" to="#808080" begin="zoomminus.mouseover" end="zoomminus.mouseout"/>
                        </use>
                        <path d="M-4,0h8" fill="none" stroke="white" stroke-width="1.5" pointer-events="none"/>
                </g>
                <g id="dirArrow">
                        <path fill="none" stroke="white" stroke-width="1.5" d="M0,-3.0v7 M-2.5,-0.5L0,-3.0L2.5,-0.5"/>
                </g>
               <g id="resetDef">
                       <use xlink:href="#rim2" fill="#404040">
                               <set attributeName="fill" to="#808080" begin="reset.mouseover" end="reset.mouseout"/>
                       </use>
               </g>
        </defs>

<script type="text/javascript">
var viewWidth = 781;
var viewHeight = 459;
var sectionId = 'dynsection-0';
</script>
<script xlink:href="../../svgpan.js"/>
<svg id="graph" class="graph">
<g id="viewport">
<title>BaseClassFEM</title>
<polygon fill="#ffffff" stroke="transparent" points="-4,4 -4,-455 777.1162,-455 777.1162,4 -4,4"/>
<!-- Node0 -->
<g id="node1" class="node">
<title>Node0</title>
<polygon fill="#bfbfbf" stroke="#000000" points="0,-128.5 0,-146.5 84.9063,-146.5 84.9063,-128.5 0,-128.5"/>
<text text-anchor="middle" x="42.4531" y="-134.5" font-family="Helvetica,sans-Serif" font-size="10.00" fill="#000000">BaseClassFEM</text>
</g>
<!-- Node1 -->
<g id="node2" class="node">
<title>Node1</title>
<g id="a_node2"><a xlink:href="../../d8/dc2/class_finite___element___problem.html" target="_top" xlink:title="Finite_Element_Problem">
<polygon fill="#ffffff" stroke="#000000" points="120.9063,-149.5 120.9063,-167.5 246.4033,-167.5 246.4033,-149.5 120.9063,-149.5"/>
<text text-anchor="middle" x="183.6548" y="-155.5" font-family="Helvetica,sans-Serif" font-size="10.00" fill="#000000">Finite_Element_Problem</text>
</a>
</g>
</g>
<!-- Node0&#45;&gt;Node1 -->
<g id="edge1" class="edge">
<title>Node0&#45;&gt;Node1</title>
<path fill="none" stroke="#191970" d="M95.2381,-145.3504C104.3169,-146.7006 113.8162,-148.1134 123.0804,-149.4912"/>
<polygon fill="#191970" stroke="#191970" points="95.6076,-141.8669 85.2015,-143.8577 94.5778,-148.7907 95.6076,-141.8669"/>
</g>
<!-- Node15 -->
<g id="node16" class="node">
<title>Node15</title>
<g id="a_node16"><a xlink:href="../../d3/d9f/class_linear___finite___element___problem.html" target="_top" xlink:title="Linear_Finite_Element\l_Problem">
<polygon fill="#ffffff" stroke="#000000" points="125.6255,-102.5 125.6255,-130.5 241.6841,-130.5 241.6841,-102.5 125.6255,-102.5"/>
<text text-anchor="start" x="133.6255" y="-118.5" font-family="Helvetica,sans-Serif" font-size="10.00" fill="#000000">Linear_Finite_Element</text>
<text text-anchor="middle" x="183.6548" y="-108.5" font-family="Helvetica,sans-Serif" font-size="10.00" fill="#000000">_Problem</text>
</a>
</g>
</g>
<!-- Node0&#45;&gt;Node15 -->
<g id="edge15" class="edge">
<title>Node0&#45;&gt;Node15</title>
<path fill="none" stroke="#191970" d="M95.2441,-129.6488C105.0861,-128.185 115.4222,-126.6478 125.417,-125.1613"/>
<polygon fill="#191970" stroke="#191970" points="94.5778,-126.2093 85.2015,-131.1423 95.6076,-133.1331 94.5778,-126.2093"/>
</g>
<!-- Node2 -->
<g id="node3" class="node">
<title>Node2</title>
<g id="a_node3"><a xlink:href="../../dc/d5a/classhyperelasticity.html" target="_top" xlink:title="hyperelasticity">
<polygon fill="#ffffff" stroke="#000000" points="293.5215,-149.5 293.5215,-167.5 372.8809,-167.5 372.8809,-149.5 293.5215,-149.5"/>
<text text-anchor="middle" x="333.2012" y="-155.5" font-family="Helvetica,sans-Serif" font-size="10.00" fill="#000000">hyperelasticity</text>
</a>
</g>
</g>
<!-- Node1&#45;&gt;Node2 -->
<g id="edge2" class="edge">
<title>Node1&#45;&gt;Node2</title>
<path fill="none" stroke="#191970" d="M256.713,-158.5C269.3216,-158.5 281.9953,-158.5 293.2989,-158.5"/>
<polygon fill="#191970" stroke="#191970" points="256.6425,-155.0001 246.6425,-158.5 256.6425,-162.0001 256.6425,-155.0001"/>
</g>
<!-- Node3 -->
<g id="node4" class="node">
<title>Node3</title>
<g id="a_node4"><a xlink:href="../../d1/d5c/classcompressible_hyperelasticity.html" target="_top" xlink:title="compressibleHyperelasticity">
<polygon fill="#ffffff" stroke="#000000" points="437.7871,-311.5 437.7871,-329.5 577.7178,-329.5 577.7178,-311.5 437.7871,-311.5"/>
<text text-anchor="middle" x="507.7524" y="-317.5" font-family="Helvetica,sans-Serif" font-size="10.00" fill="#000000">compressibleHyperelasticity</text>
</a>
</g>
</g>
<!-- Node2&#45;&gt;Node3 -->
<g id="edge3" class="edge">
<title>Node2&#45;&gt;Node3</title>
<path fill="none" stroke="#191970" d="M350.4552,-174.5134C386.6588,-208.1137 469.5514,-285.0458 497.9761,-311.4266"/>
<polygon fill="#191970" stroke="#191970" points="352.7966,-171.9113 343.0859,-167.674 348.0347,-177.042 352.7966,-171.9113"/>
</g>
<!-- Node10 -->
<g id="node11" class="node">
<title>Node10</title>
<g id="a_node11"><a xlink:href="../../d0/d85/classnearly_incompressible_hyperelasticity.html" target="_top" xlink:title="nearlyIncompressibleHyperelasticity">
<polygon fill="#ffffff" stroke="#000000" points="419.999,-148.5 419.999,-166.5 595.5059,-166.5 595.5059,-148.5 419.999,-148.5"/>
<text text-anchor="middle" x="507.7524" y="-154.5" font-family="Helvetica,sans-Serif" font-size="10.00" fill="#000000">nearlyIncompressibleHyperelasticity</text>
</a>
</g>
</g>
<!-- Node2&#45;&gt;Node10 -->
<g id="edge10" class="edge">
<title>Node2&#45;&gt;Node10</title>
<path fill="none" stroke="#191970" d="M383.4362,-158.2122C394.8831,-158.1466 407.3736,-158.0751 419.8805,-158.0034"/>
<polygon fill="#191970" stroke="#191970" points="383.2265,-154.7133 373.2468,-158.2706 383.2667,-161.7131 383.2265,-154.7133"/>
</g>
<!-- Node4 -->
<g id="node5" class="node">
<title>Node4</title>
<g id="a_node5"><a xlink:href="../../df/d4f/classcompressible_hyperelasticity__linear_patch_test.html" target="_top" xlink:title="compressibleHyperelasticity\l_linearPatchTest">
<polygon fill="#ffffff" stroke="#000000" points="632.3457,-422.5 632.3457,-450.5 772.2764,-450.5 772.2764,-422.5 632.3457,-422.5"/>
<text text-anchor="start" x="640.3457" y="-438.5" font-family="Helvetica,sans-Serif" font-size="10.00" fill="#000000">compressibleHyperelasticity</text>
<text text-anchor="middle" x="702.311" y="-428.5" font-family="Helvetica,sans-Serif" font-size="10.00" fill="#000000">_linearPatchTest</text>
</a>
</g>
</g>
<!-- Node3&#45;&gt;Node4 -->
<g id="edge4" class="edge">
<title>Node3&#45;&gt;Node4</title>
<path fill="none" stroke="#191970" d="M525.0669,-336.4906C547.9118,-356.8546 590.0895,-391.9766 631.5059,-413.5 637.9283,-416.8376 644.929,-419.8156 651.9478,-422.4316"/>
<polygon fill="#191970" stroke="#191970" points="527.3282,-333.8166 517.5623,-329.7082 522.6347,-339.01 527.3282,-333.8166"/>
</g>
<!-- Node5 -->
<g id="node6" class="node">
<title>Node5</title>
<g id="a_node6"><a xlink:href="../../d1/dbe/classmanufactured_solution.html" target="_top" xlink:title="manufacturedSolution">
<polygon fill="#ffffff" stroke="#000000" points="645.6685,-385.5 645.6685,-403.5 758.9536,-403.5 758.9536,-385.5 645.6685,-385.5"/>
<text text-anchor="middle" x="702.311" y="-391.5" font-family="Helvetica,sans-Serif" font-size="10.00" fill="#000000">manufacturedSolution</text>
</a>
</g>
</g>
<!-- Node3&#45;&gt;Node5 -->
<g id="edge5" class="edge">
<title>Node3&#45;&gt;Node5</title>
<path fill="none" stroke="#191970" d="M534.4754,-334.2502C559.1679,-346.5532 597.1217,-364.4552 631.5059,-376.5 641.0821,-379.8546 651.5878,-382.8704 661.5068,-385.4315"/>
<polygon fill="#191970" stroke="#191970" points="535.8885,-331.0431 525.3825,-329.6735 532.7413,-337.2957 535.8885,-331.0431"/>
</g>
<!-- Node6 -->
<g id="node7" class="node">
<title>Node6</title>
<g id="a_node7"><a xlink:href="../../dd/d20/classrubberblock.html" target="_top" xlink:title="rubberblock">
<polygon fill="#ffffff" stroke="#000000" points="668.1855,-348.5 668.1855,-366.5 736.4365,-366.5 736.4365,-348.5 668.1855,-348.5"/>
<text text-anchor="middle" x="702.311" y="-354.5" font-family="Helvetica,sans-Serif" font-size="10.00" fill="#000000">rubberblock</text>
</a>
</g>
</g>
<!-- Node3&#45;&gt;Node6 -->
<g id="edge6" class="edge">
<title>Node3&#45;&gt;Node6</title>
<path fill="none" stroke="#191970" d="M565.4401,-331.4707C598.8096,-337.8167 639.6731,-345.5879 668.0193,-350.9786"/>
<polygon fill="#191970" stroke="#191970" points="565.8247,-327.9812 555.3468,-329.5512 564.5168,-334.8579 565.8247,-327.9812"/>
</g>
<!-- Node7 -->
<g id="node8" class="node">
<title>Node7</title>
<g id="a_node8"><a xlink:href="../../d8/dd8/class_stochastic_homogenization.html" target="_top" xlink:title="StochasticHomogenization">
<polygon fill="#ffffff" stroke="#000000" points="635.1118,-311.5 635.1118,-329.5 769.5103,-329.5 769.5103,-311.5 635.1118,-311.5"/>
<text text-anchor="middle" x="702.311" y="-317.5" font-family="Helvetica,sans-Serif" font-size="10.00" fill="#000000">StochasticHomogenization</text>
</a>
</g>
</g>
<!-- Node3&#45;&gt;Node7 -->
<g id="edge7" class="edge">
<title>Node3&#45;&gt;Node7</title>
<path fill="none" stroke="#191970" d="M588.1473,-320.5C603.758,-320.5 619.9671,-320.5 635.0996,-320.5"/>
<polygon fill="#191970" stroke="#191970" points="587.9926,-317.0001 577.9926,-320.5 587.9925,-324.0001 587.9926,-317.0001"/>
</g>
<!-- Node8 -->
<g id="node9" class="node">
<title>Node8</title>
<g id="a_node9"><a xlink:href="../../de/dd1/class_t_i_mooney.html" target="_top" xlink:title="TIMooney">
<polygon fill="#ffffff" stroke="#000000" points="672.0796,-274.5 672.0796,-292.5 732.5425,-292.5 732.5425,-274.5 672.0796,-274.5"/>
<text text-anchor="middle" x="702.311" y="-280.5" font-family="Helvetica,sans-Serif" font-size="10.00" fill="#000000">TIMooney</text>
</a>
</g>
</g>
<!-- Node3&#45;&gt;Node8 -->
<g id="edge8" class="edge">
<title>Node3&#45;&gt;Node8</title>
<path fill="none" stroke="#191970" d="M565.4248,-309.5322C600.3411,-302.892 643.4668,-294.6906 671.872,-289.2887"/>
<polygon fill="#191970" stroke="#191970" points="564.5168,-306.1421 555.3468,-311.4488 565.8247,-313.0188 564.5168,-306.1421"/>
</g>
<!-- Node9 -->
<g id="node10" class="node">
<title>Node9</title>
<g id="a_node10"><a xlink:href="../../d1/dd7/class_t_i_mooney___random_field.html" target="_top" xlink:title="TIMooney_RandomField">
<polygon fill="#ffffff" stroke="#000000" points="639.5625,-237.5 639.5625,-255.5 765.0596,-255.5 765.0596,-237.5 639.5625,-237.5"/>
<text text-anchor="middle" x="702.311" y="-243.5" font-family="Helvetica,sans-Serif" font-size="10.00" fill="#000000">TIMooney_RandomField</text>
</a>
</g>
</g>
<!-- Node3&#45;&gt;Node9 -->
<g id="edge9" class="edge">
<title>Node3&#45;&gt;Node9</title>
<path fill="none" stroke="#191970" d="M534.9681,-306.9261C559.7151,-294.942 597.4601,-277.5505 631.5059,-265.5 641.9442,-261.8054 653.4652,-258.4275 664.1276,-255.5779"/>
<polygon fill="#191970" stroke="#191970" points="533.2869,-303.852 525.8393,-311.3876 536.3606,-310.1412 533.2869,-303.852"/>
</g>
<!-- Node11 -->
<g id="node12" class="node">
<title>Node11</title>
<g id="a_node12"><a xlink:href="../../da/d5f/class_dirichlet_inlet_outlet___polyconvex_h_g_o.html" target="_top" xlink:title="DirichletInletOutlet\l_PolyconvexHGO">
<polygon fill="#ffffff" stroke="#000000" points="653.4614,-190.5 653.4614,-218.5 751.1606,-218.5 751.1606,-190.5 653.4614,-190.5"/>
<text text-anchor="start" x="661.4614" y="-206.5" font-family="Helvetica,sans-Serif" font-size="10.00" fill="#000000">DirichletInletOutlet</text>
<text text-anchor="middle" x="702.311" y="-196.5" font-family="Helvetica,sans-Serif" font-size="10.00" fill="#000000">_PolyconvexHGO</text>
</a>
</g>
</g>
<!-- Node10&#45;&gt;Node11 -->
<g id="edge11" class="edge">
<title>Node10&#45;&gt;Node11</title>
<path fill="none" stroke="#191970" d="M554.9954,-168.9126C584.7267,-176.0949 623.0263,-185.347 653.1214,-192.6171"/>
<polygon fill="#191970" stroke="#191970" points="555.8076,-165.5082 545.2653,-166.5621 554.1638,-172.3125 555.8076,-165.5082"/>
</g>
<!-- Node12 -->
<g id="node13" class="node">
<title>Node12</title>
<g id="a_node13"><a xlink:href="../../d0/de4/class_dirichlet_strip_elongation___stochastic_polyconvex_h_g_o.html" target="_top" xlink:title="DirichletStripElongation\l_StochasticPolyconvexHGO">
<polygon fill="#ffffff" stroke="#000000" points="631.5059,-143.5 631.5059,-171.5 773.1162,-171.5 773.1162,-143.5 631.5059,-143.5"/>
<text text-anchor="start" x="639.5059" y="-159.5" font-family="Helvetica,sans-Serif" font-size="10.00" fill="#000000">DirichletStripElongation</text>
<text text-anchor="middle" x="702.311" y="-149.5" font-family="Helvetica,sans-Serif" font-size="10.00" fill="#000000">_StochasticPolyconvexHGO</text>
</a>
</g>
</g>
<!-- Node10&#45;&gt;Node12 -->
<g id="edge12" class="edge">
<title>Node10&#45;&gt;Node12</title>
<path fill="none" stroke="#191970" d="M605.7801,-157.5C614.429,-157.5 623.07,-157.5 631.4296,-157.5"/>
<polygon fill="#191970" stroke="#191970" points="605.6399,-154.0001 595.6398,-157.5 605.6398,-161.0001 605.6399,-154.0001"/>
</g>
<!-- Node13 -->
<g id="node14" class="node">
<title>Node13</title>
<g id="a_node14"><a xlink:href="../../de/d4c/class_neumann_inner_surface___polyconvex_h_g_o.html" target="_top" xlink:title="NeumannInnerSurface\l_PolyconvexHGO">
<polygon fill="#ffffff" stroke="#000000" points="644.0034,-96.5 644.0034,-124.5 760.6187,-124.5 760.6187,-96.5 644.0034,-96.5"/>
<text text-anchor="start" x="652.0034" y="-112.5" font-family="Helvetica,sans-Serif" font-size="10.00" fill="#000000">NeumannInnerSurface</text>
<text text-anchor="middle" x="702.311" y="-102.5" font-family="Helvetica,sans-Serif" font-size="10.00" fill="#000000">_PolyconvexHGO</text>
</a>
</g>
</g>
<!-- Node10&#45;&gt;Node13 -->
<g id="edge13" class="edge">
<title>Node10&#45;&gt;Node13</title>
<path fill="none" stroke="#191970" d="M564.8666,-146.3266C575.0935,-144.1718 585.634,-141.8502 595.5059,-139.5 614.4778,-134.9833 635.1953,-129.4894 653.2918,-124.5032"/>
<polygon fill="#191970" stroke="#191970" points="563.8603,-142.9608 554.7806,-148.4206 565.2834,-149.8146 563.8603,-142.9608"/>
</g>
<!-- Node14 -->
<g id="node15" class="node">
<title>Node14</title>
<g id="a_node15"><a xlink:href="../../dd/d43/class_neumann_inner_surface___stochastic_polyconvex_h_g_o.html" target="_top" xlink:title="NeumannInnerSurface\l_StochasticPolyconvexHGO">
<polygon fill="#ffffff" stroke="#000000" points="631.5059,-49.5 631.5059,-77.5 773.1162,-77.5 773.1162,-49.5 631.5059,-49.5"/>
<text text-anchor="start" x="639.5059" y="-65.5" font-family="Helvetica,sans-Serif" font-size="10.00" fill="#000000">NeumannInnerSurface</text>
<text text-anchor="middle" x="702.311" y="-55.5" font-family="Helvetica,sans-Serif" font-size="10.00" fill="#000000">_StochasticPolyconvexHGO</text>
</a>
</g>
</g>
<!-- Node10&#45;&gt;Node14 -->
<g id="edge14" class="edge">
<title>Node10&#45;&gt;Node14</title>
<path fill="none" stroke="#191970" d="M587.2204,-144.2562C590.0915,-142.8243 592.866,-141.2439 595.5059,-139.5 618.9597,-124.0067 609.0612,-104.4223 631.5059,-87.5 636.6878,-83.593 642.5466,-80.2967 648.6201,-77.5215"/>
<polygon fill="#191970" stroke="#191970" points="585.5594,-141.1611 577.7694,-148.3421 588.3372,-147.5864 585.5594,-141.1611"/>
</g>
<!-- Node16 -->
<g id="node17" class="node">
<title>Node16</title>
<g id="a_node17"><a xlink:href="../../d7/d76/classlaplace.html" target="_top" xlink:title="laplace">
<polygon fill="#ffffff" stroke="#000000" points="309.3564,-110.5 309.3564,-128.5 357.0459,-128.5 357.0459,-110.5 309.3564,-110.5"/>
<text text-anchor="middle" x="333.2012" y="-116.5" font-family="Helvetica,sans-Serif" font-size="10.00" fill="#000000">laplace</text>
</a>
</g>
</g>
<!-- Node15&#45;&gt;Node16 -->
<g id="edge16" class="edge">
<title>Node15&#45;&gt;Node16</title>
<path fill="none" stroke="#191970" d="M251.9048,-117.8691C272.4461,-118.2812 293.649,-118.7066 309.2491,-119.0195"/>
<polygon fill="#191970" stroke="#191970" points="251.9698,-114.3698 241.9015,-117.6685 251.8293,-121.3684 251.9698,-114.3698"/>
</g>
<!-- Node17 -->
<g id="node18" class="node">
<title>Node17</title>
<g id="a_node18"><a xlink:href="../../d9/df7/class_linearized_elasticity.html" target="_top" xlink:title="LinearizedElasticity">
<polygon fill="#ffffff" stroke="#000000" points="282.4033,-73.5 282.4033,-91.5 383.999,-91.5 383.999,-73.5 282.4033,-73.5"/>
<text text-anchor="middle" x="333.2012" y="-79.5" font-family="Helvetica,sans-Serif" font-size="10.00" fill="#000000">LinearizedElasticity</text>
</a>
</g>
</g>
<!-- Node15&#45;&gt;Node17 -->
<g id="edge17" class="edge">
<title>Node15&#45;&gt;Node17</title>
<path fill="none" stroke="#191970" d="M251.6933,-101.0312C265.9502,-97.7898 280.5362,-94.4736 293.3557,-91.559"/>
<polygon fill="#191970" stroke="#191970" points="250.8767,-97.6274 241.9015,-103.2574 252.4287,-104.4532 250.8767,-97.6274"/>
</g>
<!-- Node18 -->
<g id="node19" class="node">
<title>Node18</title>
<g id="a_node19"><a xlink:href="../../da/d18/class_a_s_m_e_s_b_v_p.html" target="_top" xlink:title="ASMESBVP">
<polygon fill="#ffffff" stroke="#000000" points="472.2427,-111.5 472.2427,-129.5 543.2622,-129.5 543.2622,-111.5 472.2427,-111.5"/>
<text text-anchor="middle" x="507.7524" y="-117.5" font-family="Helvetica,sans-Serif" font-size="10.00" fill="#000000">ASMESBVP</text>
</a>
</g>
</g>
<!-- Node17&#45;&gt;Node18 -->
<g id="edge18" class="edge">
<title>Node17&#45;&gt;Node18</title>
<path fill="none" stroke="#191970" d="M381.4288,-93.8305C393.9732,-96.7179 407.4802,-99.7742 419.999,-102.5 437.0187,-106.2058 455.9427,-110.1143 471.8471,-113.3389"/>
<polygon fill="#191970" stroke="#191970" points="382.1436,-90.4035 371.6121,-91.5607 380.5665,-97.2236 382.1436,-90.4035"/>
</g>
<!-- Node19 -->
<g id="node20" class="node">
<title>Node19</title>
<g id="a_node20"><a xlink:href="../../de/dcc/class_c_e_e_s_b_v_p.html" target="_top" xlink:title="CEESBVP">
<polygon fill="#ffffff" stroke="#000000" points="476.1318,-74.5 476.1318,-92.5 539.373,-92.5 539.373,-74.5 476.1318,-74.5"/>
<text text-anchor="middle" x="507.7524" y="-80.5" font-family="Helvetica,sans-Serif" font-size="10.00" fill="#000000">CEESBVP</text>
</a>
</g>
</g>
<!-- Node17&#45;&gt;Node19 -->
<g id="edge19" class="edge">
<title>Node17&#45;&gt;Node19</title>
<path fill="none" stroke="#191970" d="M394.4831,-82.8511C421.9744,-83.0086 453.2523,-83.1878 475.9646,-83.3179"/>
<polygon fill="#191970" stroke="#191970" points="394.1778,-79.3494 384.1579,-82.7919 394.1376,-86.3493 394.1778,-79.3494"/>
</g>
<!-- Node20 -->
<g id="node21" class="node">
<title>Node20</title>
<g id="a_node21"><a xlink:href="../../d2/d69/classlinear_patch_test.html" target="_top" xlink:title="linearPatchTest">
<polygon fill="#ffffff" stroke="#000000" points="465.5679,-37.5 465.5679,-55.5 549.937,-55.5 549.937,-37.5 465.5679,-37.5"/>
<text text-anchor="middle" x="507.7524" y="-43.5" font-family="Helvetica,sans-Serif" font-size="10.00" fill="#000000">linearPatchTest</text>
</a>
</g>
</g>
<!-- Node17&#45;&gt;Node20 -->
<g id="edge20" class="edge">
<title>Node17&#45;&gt;Node20</title>
<path fill="none" stroke="#191970" d="M387.0447,-71.3951C412.2909,-66.1883 441.934,-60.0746 465.5263,-55.2089"/>
<polygon fill="#191970" stroke="#191970" points="386.3347,-67.9678 377.2478,-73.4157 387.7487,-74.8235 386.3347,-67.9678"/>
</g>
<!-- Node21 -->
<g id="node22" class="node">
<title>Node21</title>
<g id="a_node22"><a xlink:href="../../d7/da3/classmanufactured.html" target="_top" xlink:title="manufactured">
<polygon fill="#ffffff" stroke="#000000" points="469.1787,-.5 469.1787,-18.5 546.3262,-18.5 546.3262,-.5 469.1787,-.5"/>
<text text-anchor="middle" x="507.7524" y="-6.5" font-family="Helvetica,sans-Serif" font-size="10.00" fill="#000000">manufactured</text>
</a>
</g>
</g>
<!-- Node17&#45;&gt;Node21 -->
<g id="edge21" class="edge">
<title>Node17&#45;&gt;Node21</title>
<path fill="none" stroke="#191970" d="M353.3415,-67.1653C370.2777,-54.9806 395.5723,-38.3949 419.999,-28.5 435.458,-22.2378 453.3245,-17.8912 468.8855,-14.9528"/>
<polygon fill="#191970" stroke="#191970" points="350.8321,-64.6662 344.851,-73.4113 354.9802,-70.3048 350.8321,-64.6662"/>
</g>
</g>
</svg>
        <g id="navigator" transform="translate(0 0)" fill="#404254">
                <rect fill="#f2f5e9" fill-opacity="0.5" stroke="#606060" stroke-width=".5" x="0" y="0" width="60" height="60"/>
                <use id="zoomplus" xlink:href="#zoomPlus" x="17" y="9" onmousedown="handleZoom(evt,'in')"/>
                <use id="zoomminus" xlink:href="#zoomMin" x="42" y="9" onmousedown="handleZoom(evt,'out')"/>
                <use id="reset" xlink:href="#resetDef" x="30" y="36" onmousedown="handleReset()"/>
                <g id="arrowUp" xlink:href="#dirArrow" transform="translate(30 24)" onmousedown="handlePan(0,-1)">
                  <use xlink:href="#rim" fill="#404040">
                        <set attributeName="fill" to="#808080" begin="arrowUp.mouseover" end="arrowUp.mouseout"/>
                  </use>
                  <path fill="none" stroke="white" stroke-width="1.5" d="M0,-3.0v7 M-2.5,-0.5L0,-3.0L2.5,-0.5"/>
                </g>
                <g id="arrowRight" xlink:href="#dirArrow" transform="rotate(90) translate(36 -43)" onmousedown="handlePan(1,0)">
                  <use xlink:href="#rim" fill="#404040">
                        <set attributeName="fill" to="#808080" begin="arrowRight.mouseover" end="arrowRight.mouseout"/>
                  </use>
                  <path fill="none" stroke="white" stroke-width="1.5" d="M0,-3.0v7 M-2.5,-0.5L0,-3.0L2.5,-0.5"/>
                </g>
                <g id="arrowDown" xlink:href="#dirArrow" transform="rotate(180) translate(-30 -48)" onmousedown="handlePan(0,1)">
                  <use xlink:href="#rim" fill="#404040">
                        <set attributeName="fill" to="#808080" begin="arrowDown.mouseover" end="arrowDown.mouseout"/>
                  </use>
                  <path fill="none" stroke="white" stroke-width="1.5" d="M0,-3.0v7 M-2.5,-0.5L0,-3.0L2.5,-0.5"/>
                </g>
                <g id="arrowLeft" xlink:href="#dirArrow" transform="rotate(270) translate(-36 17)" onmousedown="handlePan(-1,0)">
                  <use xlink:href="#rim" fill="#404040">
                        <set attributeName="fill" to="#808080" begin="arrowLeft.mouseover" end="arrowLeft.mouseout"/>
                  </use>
                  <path fill="none" stroke="white" stroke-width="1.5" d="M0,-3.0v7 M-2.5,-0.5L0,-3.0L2.5,-0.5"/>
                </g>
        </g>
        <svg viewBox="0 0 15 15" width="100%" height="30px" preserveAspectRatio="xMaxYMin meet">
         <g id="arrow_out" transform="scale(0.3 0.3)">
          <a xlink:href="class_base_class_f_e_m__inherit__graph_org.svg" target="_base">
           <rect id="button" ry="5" rx="5" y="6" x="6" height="38" width="38"
                fill="#f2f5e9" fill-opacity="0.5" stroke="#606060" stroke-width="1.0"/>
           <path id="arrow"
             d="M 11.500037,31.436501 C 11.940474,20.09759 22.043105,11.32322 32.158766,21.979434 L 37.068811,17.246167 C 37.068811,17.246167 37.088388,32 37.088388,32 L 22.160133,31.978069 C 22.160133,31.978069 26.997745,27.140456 26.997745,27.140456 C 18.528582,18.264221 13.291696,25.230495 11.500037,31.436501 z"
             style="fill:#404040;"/>
          </a>
         </g>
        </svg>
</svg>
