<?xml version="1.0" encoding="UTF-8" standalone="no"?>
<!DOCTYPE svg PUBLIC "-//W3C//DTD SVG 1.1//EN"
 "http://www.w3.org/Graphics/SVG/1.1/DTD/svg11.dtd">
<!-- Generated by graphviz version 2.40.1 (20161225.0304)
 -->
<!-- Title: ASMESBVP Pages: 1 -->
<svg width="124pt" height="270pt"
 viewBox="0.00 0.00 124.06 270.00" xmlns="http://www.w3.org/2000/svg" xmlns:xlink="http://www.w3.org/1999/xlink">
<g id="graph0" class="graph" transform="scale(1 1) rotate(0) translate(4 266)">
<title>ASMESBVP</title>
<polygon fill="#ffffff" stroke="transparent" points="-4,4 -4,-266 120.0586,-266 120.0586,4 -4,4"/>
<!-- Node4 -->
<g id="node1" class="node">
<title>Node4</title>
<polygon fill="#bfbfbf" stroke="#000000" points="22.5195,-.5 22.5195,-18.5 93.5391,-18.5 93.5391,-.5 22.5195,-.5"/>
<text text-anchor="middle" x="58.0293" y="-6.5" font-family="Helvetica,sans-Serif" font-size="10.00" fill="#000000">ASMESBVP</text>
</g>
<!-- Node5 -->
<g id="node2" class="node">
<title>Node5</title>
<g id="a_node2"><a xlink:href="../../d9/df7/class_linearized_elasticity.html" target="_top" xlink:title="LinearizedElasticity">
<polygon fill="#ffffff" stroke="#000000" points="7.2314,-56.5 7.2314,-74.5 108.8271,-74.5 108.8271,-56.5 7.2314,-56.5"/>
<text text-anchor="middle" x="58.0293" y="-62.5" font-family="Helvetica,sans-Serif" font-size="10.00" fill="#000000">LinearizedElasticity</text>
</a>
</g>
</g>
<!-- Node5&#45;&gt;Node4 -->
<g id="edge1" class="edge">
<title>Node5&#45;&gt;Node4</title>
<path fill="none" stroke="#191970" d="M58.0293,-46.2065C58.0293,-36.8384 58.0293,-26.0262 58.0293,-18.5752"/>
<polygon fill="#191970" stroke="#191970" points="54.5294,-46.2527 58.0293,-56.2527 61.5294,-46.2528 54.5294,-46.2527"/>
</g>
<!-- Node6 -->
<g id="node3" class="node">
<title>Node6</title>
<g id="a_node3"><a xlink:href="../../d3/d9f/class_linear___finite___element___problem.html" target="_top" xlink:title="Linear_Finite_Element\l_Problem">
<polygon fill="#ffffff" stroke="#000000" points="0,-112.5 0,-140.5 116.0586,-140.5 116.0586,-112.5 0,-112.5"/>
<text text-anchor="start" x="8" y="-128.5" font-family="Helvetica,sans-Serif" font-size="10.00" fill="#000000">Linear_Finite_Element</text>
<text text-anchor="middle" x="58.0293" y="-118.5" font-family="Helvetica,sans-Serif" font-size="10.00" fill="#000000">_Problem</text>
</a>
</g>
</g>
<!-- Node6&#45;&gt;Node5 -->
<g id="edge2" class="edge">
<title>Node6&#45;&gt;Node5</title>
<path fill="none" stroke="#191970" d="M58.0293,-102.1001C58.0293,-92.5157 58.0293,-82.0935 58.0293,-74.831"/>
<polygon fill="#191970" stroke="#191970" points="54.5294,-102.352 58.0293,-112.3521 61.5294,-102.3521 54.5294,-102.352"/>
</g>
<!-- Node7 -->
<g id="node4" class="node">
<title>Node7</title>
<g id="a_node4"><a xlink:href="../../d2/d97/class_base_class_f_e_m.html" target="_top" xlink:title="BaseClassFEM">
<polygon fill="#ffffff" stroke="#000000" points="15.5762,-178.5 15.5762,-196.5 100.4824,-196.5 100.4824,-178.5 15.5762,-178.5"/>
<text text-anchor="middle" x="58.0293" y="-184.5" font-family="Helvetica,sans-Serif" font-size="10.00" fill="#000000">BaseClassFEM</text>
</a>
</g>
</g>
<!-- Node7&#45;&gt;Node6 -->
<g id="edge3" class="edge">
<title>Node7&#45;&gt;Node6</title>
<path fill="none" stroke="#191970" d="M58.0293,-168.2842C58.0293,-159.3664 58.0293,-148.9504 58.0293,-140.7488"/>
<polygon fill="#191970" stroke="#191970" points="54.5294,-168.4992 58.0293,-178.4992 61.5294,-168.4993 54.5294,-168.4992"/>
</g>
<!-- Node8 -->
<g id="node5" class="node">
<title>Node8</title>
<g id="a_node5"><a xlink:href="../../d6/d6b/classmesh.html" target="_top" xlink:title="mesh">
<polygon fill="#ffffff" stroke="#000000" points="37.8027,-243.5 37.8027,-261.5 78.2559,-261.5 78.2559,-243.5 37.8027,-243.5"/>
<text text-anchor="middle" x="58.0293" y="-249.5" font-family="Helvetica,sans-Serif" font-size="10.00" fill="#000000">mesh</text>
</a>
</g>
</g>
<!-- Node8&#45;&gt;Node7 -->
<g id="edge4" class="edge">
<title>Node8&#45;&gt;Node7</title>
<path fill="none" stroke="#9a32cd" stroke-dasharray="5,2" d="M58.0293,-233.1265C58.0293,-221.1522 58.0293,-206.3205 58.0293,-196.8821"/>
<polygon fill="#9a32cd" stroke="#9a32cd" points="54.5294,-233.462 58.0293,-243.462 61.5294,-233.4621 54.5294,-233.462"/>
<text text-anchor="middle" x="71.645" y="-217" font-family="Helvetica,sans-Serif" font-size="10.00" fill="#000000"> Mesh</text>
</g>
</g>
</svg>
