<?xml version="1.0" encoding="UTF-8" standalone="no"?>
<!DOCTYPE svg PUBLIC "-//W3C//DTD SVG 1.1//EN"
 "http://www.w3.org/Graphics/SVG/1.1/DTD/svg11.dtd">
<!-- Generated by graphviz version 2.40.1 (20161225.0304)
 -->
<!-- Title: Newton_Raphson Pages: 1 -->
<svg width="133pt" height="213pt"
 viewBox="0.00 0.00 133.50 213.00" xmlns="http://www.w3.org/2000/svg" xmlns:xlink="http://www.w3.org/1999/xlink">
<g id="graph0" class="graph" transform="scale(1 1) rotate(0) translate(4 209)">
<title>Newton_Raphson</title>
<polygon fill="#ffffff" stroke="transparent" points="-4,4 -4,-209 129.4971,-209 129.4971,4 -4,4"/>
<!-- Node1 -->
<g id="node1" class="node">
<title>Node1</title>
<polygon fill="#bfbfbf" stroke="#000000" points="15,-.5 15,-18.5 110.4971,-18.5 110.4971,-.5 15,-.5"/>
<text text-anchor="middle" x="62.7485" y="-6.5" font-family="Helvetica,sans-Serif" font-size="10.00" fill="#000000">Newton_Raphson</text>
</g>
<!-- Node2 -->
<g id="node2" class="node">
<title>Node2</title>
<g id="a_node2"><a xlink:href="../../d8/dc2/class_finite___element___problem.html" target="_top" xlink:title="Finite_Element_Problem">
<polygon fill="#ffffff" stroke="#000000" points="0,-65.5 0,-83.5 125.4971,-83.5 125.4971,-65.5 0,-65.5"/>
<text text-anchor="middle" x="62.7485" y="-71.5" font-family="Helvetica,sans-Serif" font-size="10.00" fill="#000000">Finite_Element_Problem</text>
</a>
</g>
</g>
<!-- Node2&#45;&gt;Node1 -->
<g id="edge1" class="edge">
<title>Node2&#45;&gt;Node1</title>
<path fill="none" stroke="#9a32cd" stroke-dasharray="5,2" d="M62.7485,-55.1265C62.7485,-43.1522 62.7485,-28.3205 62.7485,-18.8821"/>
<polygon fill="#9a32cd" stroke="#9a32cd" points="59.2486,-55.462 62.7485,-65.462 66.2486,-55.4621 59.2486,-55.462"/>
<text text-anchor="middle" x="83.3149" y="-39" font-family="Helvetica,sans-Serif" font-size="10.00" fill="#000000"> interface</text>
</g>
<!-- Node3 -->
<g id="node3" class="node">
<title>Node3</title>
<g id="a_node3"><a xlink:href="../../d2/d97/class_base_class_f_e_m.html" target="_top" xlink:title="BaseClassFEM">
<polygon fill="#ffffff" stroke="#000000" points="20.2954,-121.5 20.2954,-139.5 105.2017,-139.5 105.2017,-121.5 20.2954,-121.5"/>
<text text-anchor="middle" x="62.7485" y="-127.5" font-family="Helvetica,sans-Serif" font-size="10.00" fill="#000000">BaseClassFEM</text>
</a>
</g>
</g>
<!-- Node3&#45;&gt;Node2 -->
<g id="edge2" class="edge">
<title>Node3&#45;&gt;Node2</title>
<path fill="none" stroke="#191970" d="M62.7485,-111.2065C62.7485,-101.8384 62.7485,-91.0262 62.7485,-83.5752"/>
<polygon fill="#191970" stroke="#191970" points="59.2486,-111.2527 62.7485,-121.2527 66.2486,-111.2528 59.2486,-111.2527"/>
</g>
<!-- Node4 -->
<g id="node4" class="node">
<title>Node4</title>
<g id="a_node4"><a xlink:href="../../d6/d6b/classmesh.html" target="_top" xlink:title="mesh">
<polygon fill="#ffffff" stroke="#000000" points="42.522,-186.5 42.522,-204.5 82.9751,-204.5 82.9751,-186.5 42.522,-186.5"/>
<text text-anchor="middle" x="62.7485" y="-192.5" font-family="Helvetica,sans-Serif" font-size="10.00" fill="#000000">mesh</text>
</a>
</g>
</g>
<!-- Node4&#45;&gt;Node3 -->
<g id="edge3" class="edge">
<title>Node4&#45;&gt;Node3</title>
<path fill="none" stroke="#9a32cd" stroke-dasharray="5,2" d="M62.7485,-176.1265C62.7485,-164.1522 62.7485,-149.3205 62.7485,-139.8821"/>
<polygon fill="#9a32cd" stroke="#9a32cd" points="59.2486,-176.462 62.7485,-186.462 66.2486,-176.4621 59.2486,-176.462"/>
<text text-anchor="middle" x="76.3643" y="-160" font-family="Helvetica,sans-Serif" font-size="10.00" fill="#000000"> Mesh</text>
</g>
</g>
</svg>
