<?xml version="1.0" encoding="UTF-8" standalone="no"?>
<!DOCTYPE svg PUBLIC "-//W3C//DTD SVG 1.1//EN"
 "http://www.w3.org/Graphics/SVG/1.1/DTD/svg11.dtd">
<!-- Generated by graphviz version 2.40.1 (20161225.0304)
 -->
<!-- Title: phaseFieldLinearizedElasticity Pages: 1 -->
<svg width="159pt" height="260pt"
 viewBox="0.00 0.00 158.52 260.00" xmlns="http://www.w3.org/2000/svg" xmlns:xlink="http://www.w3.org/1999/xlink">
<g id="graph0" class="graph" transform="scale(1 1) rotate(0) translate(4 256)">
<title>phaseFieldLinearizedElasticity</title>
<polygon fill="#ffffff" stroke="transparent" points="-4,4 -4,-256 154.5166,-256 154.5166,4 -4,4"/>
<!-- Node5 -->
<g id="node1" class="node">
<title>Node5</title>
<polygon fill="#bfbfbf" stroke="#000000" points="0,-.5 0,-18.5 150.5166,-18.5 150.5166,-.5 0,-.5"/>
<text text-anchor="middle" x="75.2583" y="-6.5" font-family="Helvetica,sans-Serif" font-size="10.00" fill="#000000">phaseFieldLinearizedElasticity</text>
</g>
<!-- Node6 -->
<g id="node2" class="node">
<title>Node6</title>
<g id="a_node2"><a xlink:href="../../d4/dfd/classlinearized_elasticity.html" target="_top" xlink:title="linearizedElasticity">
<polygon fill="#ffffff" stroke="#000000" points="26.1304,-56.5 26.1304,-74.5 124.3862,-74.5 124.3862,-56.5 26.1304,-56.5"/>
<text text-anchor="middle" x="75.2583" y="-62.5" font-family="Helvetica,sans-Serif" font-size="10.00" fill="#000000">linearizedElasticity</text>
</a>
</g>
</g>
<!-- Node6&#45;&gt;Node5 -->
<g id="edge1" class="edge">
<title>Node6&#45;&gt;Node5</title>
<path fill="none" stroke="#191970" d="M75.2583,-46.2065C75.2583,-36.8384 75.2583,-26.0262 75.2583,-18.5752"/>
<polygon fill="#191970" stroke="#191970" points="71.7584,-46.2527 75.2583,-56.2527 78.7584,-46.2528 71.7584,-46.2527"/>
</g>
<!-- Node7 -->
<g id="node3" class="node">
<title>Node7</title>
<g id="a_node3"><a xlink:href="../../dc/d01/classlinear_finite_element_problem.html" target="_top" xlink:title="linearFiniteElementProblem">
<polygon fill="#ffffff" stroke="#000000" points="5.8423,-112.5 5.8423,-130.5 144.6743,-130.5 144.6743,-112.5 5.8423,-112.5"/>
<text text-anchor="middle" x="75.2583" y="-118.5" font-family="Helvetica,sans-Serif" font-size="10.00" fill="#000000">linearFiniteElementProblem</text>
</a>
</g>
</g>
<!-- Node7&#45;&gt;Node6 -->
<g id="edge2" class="edge">
<title>Node7&#45;&gt;Node6</title>
<path fill="none" stroke="#191970" d="M75.2583,-102.2065C75.2583,-92.8384 75.2583,-82.0262 75.2583,-74.5752"/>
<polygon fill="#191970" stroke="#191970" points="71.7584,-102.2527 75.2583,-112.2527 78.7584,-102.2528 71.7584,-102.2527"/>
</g>
<!-- Node8 -->
<g id="node4" class="node">
<title>Node8</title>
<g id="a_node4"><a xlink:href="../../d2/d31/classbase_class_f_e_m.html" target="_top" xlink:title="baseClassFEM">
<polygon fill="#ffffff" stroke="#000000" points="33.3594,-168.5 33.3594,-186.5 117.1572,-186.5 117.1572,-168.5 33.3594,-168.5"/>
<text text-anchor="middle" x="75.2583" y="-174.5" font-family="Helvetica,sans-Serif" font-size="10.00" fill="#000000">baseClassFEM</text>
</a>
</g>
</g>
<!-- Node8&#45;&gt;Node7 -->
<g id="edge3" class="edge">
<title>Node8&#45;&gt;Node7</title>
<path fill="none" stroke="#191970" d="M75.2583,-158.2065C75.2583,-148.8384 75.2583,-138.0262 75.2583,-130.5752"/>
<polygon fill="#191970" stroke="#191970" points="71.7584,-158.2527 75.2583,-168.2527 78.7584,-158.2528 71.7584,-158.2527"/>
</g>
<!-- Node9 -->
<g id="node5" class="node">
<title>Node9</title>
<g id="a_node5"><a xlink:href="../../d6/d6b/classmesh.html" target="_top" xlink:title="mesh">
<polygon fill="#ffffff" stroke="#000000" points="55.0317,-233.5 55.0317,-251.5 95.4849,-251.5 95.4849,-233.5 55.0317,-233.5"/>
<text text-anchor="middle" x="75.2583" y="-239.5" font-family="Helvetica,sans-Serif" font-size="10.00" fill="#000000">mesh</text>
</a>
</g>
</g>
<!-- Node9&#45;&gt;Node8 -->
<g id="edge4" class="edge">
<title>Node9&#45;&gt;Node8</title>
<path fill="none" stroke="#9a32cd" stroke-dasharray="5,2" d="M75.2583,-223.1265C75.2583,-211.1522 75.2583,-196.3205 75.2583,-186.8821"/>
<polygon fill="#9a32cd" stroke="#9a32cd" points="71.7584,-223.462 75.2583,-233.462 78.7584,-223.4621 71.7584,-223.462"/>
<text text-anchor="middle" x="88.874" y="-207" font-family="Helvetica,sans-Serif" font-size="10.00" fill="#000000"> Mesh</text>
</g>
</g>
</svg>
