<?xml version="1.0" encoding="UTF-8" standalone="no"?>
<!DOCTYPE svg PUBLIC "-//W3C//DTD SVG 1.1//EN"
 "http://www.w3.org/Graphics/SVG/1.1/DTD/svg11.dtd">
<!-- Generated by graphviz version 2.40.1 (20161225.0304)
 -->
<!-- Title: examples/laplace_stratimikos/main.cpp Pages: 1 -->
<svg width="3399pt" height="330pt"
 viewBox="0.00 0.00 3399.00 330.00" xmlns="http://www.w3.org/2000/svg" xmlns:xlink="http://www.w3.org/1999/xlink">
<g id="graph0" class="graph" transform="scale(1 1) rotate(0) translate(4 326)">
<title>examples/laplace_stratimikos/main.cpp</title>
<polygon fill="#ffffff" stroke="transparent" points="-4,4 -4,-326 3395,-326 3395,4 -4,4"/>
<!-- Node0 -->
<g id="node1" class="node">
<title>Node0</title>
<polygon fill="#bfbfbf" stroke="#000000" points="1597,-291.5 1597,-321.5 1743,-321.5 1743,-291.5 1597,-291.5"/>
<text text-anchor="start" x="1605" y="-309.5" font-family="Helvetica,sans-Serif" font-size="10.00" fill="#000000">examples/laplace_stratimikos</text>
<text text-anchor="middle" x="1670" y="-298.5" font-family="Helvetica,sans-Serif" font-size="10.00" fill="#000000">/main.cpp</text>
</g>
<!-- Node1 -->
<g id="node2" class="node">
<title>Node1</title>
<polygon fill="#ffffff" stroke="#bfbfbf" points="1223,-230 1223,-249 1331,-249 1331,-230 1223,-230"/>
<text text-anchor="middle" x="1277" y="-237" font-family="Helvetica,sans-Serif" font-size="10.00" fill="#000000">Epetra_ConfigDefs.h</text>
</g>
<!-- Node0&#45;&gt;Node1 -->
<g id="edge1" class="edge">
<title>Node0&#45;&gt;Node1</title>
<path fill="none" stroke="#191970" d="M1596.9317,-296.9442C1529.8476,-287.7339 1427.8362,-272.6249 1340,-255 1334.6163,-253.9197 1328.9984,-252.6888 1323.4308,-251.4038"/>
<polygon fill="#191970" stroke="#191970" points="1324.0627,-247.9566 1313.5248,-249.0532 1322.4465,-254.7675 1324.0627,-247.9566"/>
</g>
<!-- Node2 -->
<g id="node3" class="node">
<title>Node2</title>
<polygon fill="#ffffff" stroke="#bfbfbf" points="1349.5,-230 1349.5,-249 1462.5,-249 1462.5,-230 1349.5,-230"/>
<text text-anchor="middle" x="1406" y="-237" font-family="Helvetica,sans-Serif" font-size="10.00" fill="#000000">Epetra_SerialComm.h</text>
</g>
<!-- Node0&#45;&gt;Node2 -->
<g id="edge2" class="edge">
<title>Node0&#45;&gt;Node2</title>
<path fill="none" stroke="#191970" d="M1610.7532,-291.4639C1563.2237,-279.4015 1497.3927,-262.6944 1453.3342,-251.5128"/>
<polygon fill="#191970" stroke="#191970" points="1454.0074,-248.0728 1443.4537,-249.0053 1452.2854,-254.8577 1454.0074,-248.0728"/>
</g>
<!-- Node3 -->
<g id="node4" class="node">
<title>Node3</title>
<polygon fill="#ffffff" stroke="#bfbfbf" points="0,-.5 0,-19.5 50,-19.5 50,-.5 0,-.5"/>
<text text-anchor="middle" x="25" y="-7.5" font-family="Helvetica,sans-Serif" font-size="10.00" fill="#000000">fstream</text>
</g>
<!-- Node0&#45;&gt;Node3 -->
<g id="edge3" class="edge">
<title>Node0&#45;&gt;Node3</title>
<path fill="none" stroke="#191970" d="M1598.5893,-291.4986C1574.6847,-283.7251 1549.2495,-272.1309 1530,-255 1501.3433,-229.4971 1491,-216.3615 1491,-178 1491,-178 1491,-178 1491,-122 1491,34.6324 261.6314,-45.313 60.1684,-19.5686"/>
<polygon fill="#191970" stroke="#191970" points="60.519,-16.0818 50.1063,-18.0382 59.4663,-23.0022 60.519,-16.0818"/>
</g>
<!-- Node4 -->
<g id="node5" class="node">
<title>Node4</title>
<g id="a_node5"><a xlink:href="../../d0/d02/meshpp_8hpp.html" target="_top" xlink:title="meshpp.hpp">
<polygon fill="#ffffff" stroke="#000000" points="1600,-56.5 1600,-75.5 1670,-75.5 1670,-56.5 1600,-56.5"/>
<text text-anchor="middle" x="1635" y="-63.5" font-family="Helvetica,sans-Serif" font-size="10.00" fill="#000000">meshpp.hpp</text>
</a>
</g>
</g>
<!-- Node0&#45;&gt;Node4 -->
<g id="edge4" class="edge">
<title>Node0&#45;&gt;Node4</title>
<path fill="none" stroke="#191970" d="M1597.3805,-291.4975C1578.1172,-283.8544 1559.501,-272.3386 1548,-255 1512.248,-201.101 1534.1806,-162.1705 1575,-112 1584.7697,-99.9922 1598.2721,-89.2852 1609.9943,-81.2291"/>
<polygon fill="#191970" stroke="#191970" points="1612.0982,-84.0343 1618.5201,-75.6076 1608.2449,-78.1903 1612.0982,-84.0343"/>
</g>
<!-- Node35 -->
<g id="node36" class="node">
<title>Node35</title>
<g id="a_node36"><a xlink:href="../../d5/d3f/laplacepp_8hpp.html" target="_top" xlink:title="laplacepp.hpp">
<polygon fill="#ffffff" stroke="#000000" points="1557.5,-230 1557.5,-249 1634.5,-249 1634.5,-230 1557.5,-230"/>
<text text-anchor="middle" x="1596" y="-237" font-family="Helvetica,sans-Serif" font-size="10.00" fill="#000000">laplacepp.hpp</text>
</a>
</g>
</g>
<!-- Node0&#45;&gt;Node35 -->
<g id="edge37" class="edge">
<title>Node0&#45;&gt;Node35</title>
<path fill="none" stroke="#191970" d="M1653.2083,-291.2967C1641.5668,-280.7564 1626.0752,-266.7303 1614.1491,-255.9323"/>
<polygon fill="#191970" stroke="#191970" points="1616.3154,-253.1722 1606.5533,-249.055 1611.6171,-258.3613 1616.3154,-253.1722"/>
</g>
<!-- Node38 -->
<g id="node39" class="node">
<title>Node38</title>
<polygon fill="#ffffff" stroke="#bfbfbf" points="1652.5,-230 1652.5,-249 1837.5,-249 1837.5,-230 1652.5,-230"/>
<text text-anchor="middle" x="1745" y="-237" font-family="Helvetica,sans-Serif" font-size="10.00" fill="#000000">Teuchos_CommandLineProcessor.hpp</text>
</g>
<!-- Node0&#45;&gt;Node38 -->
<g id="edge41" class="edge">
<title>Node0&#45;&gt;Node38</title>
<path fill="none" stroke="#191970" d="M1687.0187,-291.2967C1698.8175,-280.7564 1714.5184,-266.7303 1726.6057,-255.9323"/>
<polygon fill="#191970" stroke="#191970" points="1729.1783,-258.3273 1734.3041,-249.055 1724.5147,-253.107 1729.1783,-258.3273"/>
</g>
<!-- Node39 -->
<g id="node40" class="node">
<title>Node39</title>
<polygon fill="#ffffff" stroke="#bfbfbf" points="1855,-230 1855,-249 2031,-249 2031,-230 1855,-230"/>
<text text-anchor="middle" x="1943" y="-237" font-family="Helvetica,sans-Serif" font-size="10.00" fill="#000000">Teuchos_StandardCatchMacros.hpp</text>
</g>
<!-- Node0&#45;&gt;Node39 -->
<g id="edge42" class="edge">
<title>Node0&#45;&gt;Node39</title>
<path fill="none" stroke="#191970" d="M1731.2665,-291.4639C1780.5199,-279.3761 1848.7783,-262.624 1894.3396,-251.4423"/>
<polygon fill="#191970" stroke="#191970" points="1895.3919,-254.788 1904.2695,-249.0053 1893.7235,-247.9897 1895.3919,-254.788"/>
</g>
<!-- Node40 -->
<g id="node41" class="node">
<title>Node40</title>
<polygon fill="#ffffff" stroke="#bfbfbf" points="2049.5,-230 2049.5,-249 2188.5,-249 2188.5,-230 2049.5,-230"/>
<text text-anchor="middle" x="2119" y="-237" font-family="Helvetica,sans-Serif" font-size="10.00" fill="#000000">Teuchos_ParameterList.hpp</text>
</g>
<!-- Node0&#45;&gt;Node40 -->
<g id="edge43" class="edge">
<title>Node0&#45;&gt;Node40</title>
<path fill="none" stroke="#191970" d="M1743.1948,-297.5282C1817.9688,-288.0777 1937.3384,-272.2023 2040,-255 2047.3801,-253.7634 2055.1287,-252.366 2062.7687,-250.9293"/>
<polygon fill="#191970" stroke="#191970" points="2063.5453,-254.3443 2072.7098,-249.0281 2062.2303,-247.4689 2063.5453,-254.3443"/>
</g>
<!-- Node41 -->
<g id="node42" class="node">
<title>Node41</title>
<polygon fill="#ffffff" stroke="#bfbfbf" points="2207,-224.5 2207,-254.5 2347,-254.5 2347,-224.5 2207,-224.5"/>
<text text-anchor="start" x="2215" y="-242.5" font-family="Helvetica,sans-Serif" font-size="10.00" fill="#000000">Teuchos_XMLParameterList</text>
<text text-anchor="middle" x="2277" y="-231.5" font-family="Helvetica,sans-Serif" font-size="10.00" fill="#000000">CoreHelpers.hpp</text>
</g>
<!-- Node0&#45;&gt;Node41 -->
<g id="edge44" class="edge">
<title>Node0&#45;&gt;Node41</title>
<path fill="none" stroke="#191970" d="M1743.2972,-301.5969C1843.5077,-294.393 2029.0485,-279.2725 2196.8435,-255.0848"/>
<polygon fill="#191970" stroke="#191970" points="2197.4576,-258.5324 2206.8492,-253.6285 2196.4493,-251.6054 2197.4576,-258.5324"/>
</g>
<!-- Node42 -->
<g id="node43" class="node">
<title>Node42</title>
<polygon fill="#ffffff" stroke="#bfbfbf" points="2365.5,-224.5 2365.5,-254.5 2494.5,-254.5 2494.5,-224.5 2365.5,-224.5"/>
<text text-anchor="start" x="2373.5" y="-242.5" font-family="Helvetica,sans-Serif" font-size="10.00" fill="#000000">Stratimikos_DefaultLinear</text>
<text text-anchor="middle" x="2430" y="-231.5" font-family="Helvetica,sans-Serif" font-size="10.00" fill="#000000">SolverBuilder.hpp</text>
</g>
<!-- Node0&#45;&gt;Node42 -->
<g id="edge45" class="edge">
<title>Node0&#45;&gt;Node42</title>
<path fill="none" stroke="#191970" d="M1743.1876,-304.1664C1867.1486,-299.5196 2126.3917,-286.8054 2354.941,-255.025"/>
<polygon fill="#191970" stroke="#191970" points="2355.6978,-258.4531 2365.1131,-253.595 2354.7232,-251.5213 2355.6978,-258.4531"/>
</g>
<!-- Node4&#45;&gt;Node3 -->
<g id="edge8" class="edge">
<title>Node4&#45;&gt;Node3</title>
<path fill="none" stroke="#191970" d="M1599.9948,-62.8125C1573.8458,-60.5518 1537.2148,-57.6389 1505,-56 1187.274,-39.8356 393.0634,-69.16 60.2774,-19.7332"/>
<polygon fill="#191970" stroke="#191970" points="60.4986,-16.2263 50.0839,-18.1715 59.4385,-23.1456 60.4986,-16.2263"/>
</g>
<!-- Node5 -->
<g id="node6" class="node">
<title>Node5</title>
<polygon fill="#ffffff" stroke="#bfbfbf" points="68,-.5 68,-19.5 114,-19.5 114,-.5 68,-.5"/>
<text text-anchor="middle" x="91" y="-7.5" font-family="Helvetica,sans-Serif" font-size="10.00" fill="#000000">stdio.h</text>
</g>
<!-- Node4&#45;&gt;Node5 -->
<g id="edge5" class="edge">
<title>Node4&#45;&gt;Node5</title>
<path fill="none" stroke="#191970" d="M1599.9943,-62.8234C1573.845,-60.5682 1537.2139,-57.6575 1505,-56 1201.4864,-40.3833 442.6046,-69.6574 124.4451,-19.7335"/>
<polygon fill="#191970" stroke="#191970" points="124.6689,-16.2242 114.2377,-18.079 123.5488,-23.134 124.6689,-16.2242"/>
</g>
<!-- Node6 -->
<g id="node7" class="node">
<title>Node6</title>
<polygon fill="#ffffff" stroke="#bfbfbf" points="132,-.5 132,-19.5 186,-19.5 186,-.5 132,-.5"/>
<text text-anchor="middle" x="159" y="-7.5" font-family="Helvetica,sans-Serif" font-size="10.00" fill="#000000">iostream</text>
</g>
<!-- Node4&#45;&gt;Node6 -->
<g id="edge6" class="edge">
<title>Node4&#45;&gt;Node6</title>
<path fill="none" stroke="#191970" d="M1599.9936,-62.837C1573.8439,-60.5887 1537.2127,-57.6805 1505,-56 1217.4406,-40.998 499.3528,-62.7923 196.525,-19.8315"/>
<polygon fill="#191970" stroke="#191970" points="196.7704,-16.3301 186.3684,-18.3424 195.7549,-23.2561 196.7704,-16.3301"/>
</g>
<!-- Node7 -->
<g id="node8" class="node">
<title>Node7</title>
<polygon fill="#ffffff" stroke="#bfbfbf" points="204.5,-.5 204.5,-19.5 253.5,-19.5 253.5,-.5 204.5,-.5"/>
<text text-anchor="middle" x="229" y="-7.5" font-family="Helvetica,sans-Serif" font-size="10.00" fill="#000000">istream</text>
</g>
<!-- Node4&#45;&gt;Node7 -->
<g id="edge7" class="edge">
<title>Node4&#45;&gt;Node7</title>
<path fill="none" stroke="#191970" d="M1599.9928,-62.8513C1573.8428,-60.6101 1537.2114,-57.7048 1505,-56 1232.5012,-41.5783 551.8959,-62.8042 263.7953,-19.6303"/>
<polygon fill="#191970" stroke="#191970" points="264.1317,-16.1408 253.7135,-18.0672 263.0592,-23.0581 264.1317,-16.1408"/>
</g>
<!-- Node8 -->
<g id="node9" class="node">
<title>Node8</title>
<polygon fill="#ffffff" stroke="#bfbfbf" points="272,-.5 272,-19.5 316,-19.5 316,-.5 272,-.5"/>
<text text-anchor="middle" x="294" y="-7.5" font-family="Helvetica,sans-Serif" font-size="10.00" fill="#000000">vector</text>
</g>
<!-- Node4&#45;&gt;Node8 -->
<g id="edge9" class="edge">
<title>Node4&#45;&gt;Node8</title>
<path fill="none" stroke="#191970" d="M1599.992,-62.8657C1573.8416,-60.6319 1537.2101,-57.7293 1505,-56 1246.2309,-42.1075 599.5484,-64.1619 326.1267,-19.6558"/>
<polygon fill="#191970" stroke="#191970" points="326.6053,-16.1871 316.1625,-17.9751 325.441,-23.0896 326.6053,-16.1871"/>
</g>
<!-- Node9 -->
<g id="node10" class="node">
<title>Node9</title>
<polygon fill="#ffffff" stroke="#bfbfbf" points="334,-.5 334,-19.5 384,-19.5 384,-.5 334,-.5"/>
<text text-anchor="middle" x="359" y="-7.5" font-family="Helvetica,sans-Serif" font-size="10.00" fill="#000000">iomanip</text>
</g>
<!-- Node4&#45;&gt;Node9 -->
<g id="edge10" class="edge">
<title>Node4&#45;&gt;Node9</title>
<path fill="none" stroke="#191970" d="M1599.9911,-62.8834C1573.8402,-60.6585 1537.2085,-57.7593 1505,-56 1261.3821,-42.6932 653.4231,-58.7618 394.2848,-19.7434"/>
<polygon fill="#191970" stroke="#191970" points="394.5078,-16.2358 384.0873,-18.1499 393.427,-23.1519 394.5078,-16.2358"/>
</g>
<!-- Node10 -->
<g id="node11" class="node">
<title>Node10</title>
<polygon fill="#ffffff" stroke="#bfbfbf" points="402,-.5 402,-19.5 506,-19.5 506,-.5 402,-.5"/>
<text text-anchor="middle" x="454" y="-7.5" font-family="Helvetica,sans-Serif" font-size="10.00" fill="#000000">Epetra_MpiComm.h</text>
</g>
<!-- Node4&#45;&gt;Node10 -->
<g id="edge11" class="edge">
<title>Node4&#45;&gt;Node10</title>
<path fill="none" stroke="#191970" d="M1599.989,-62.9213C1573.837,-60.7154 1537.2049,-57.8234 1505,-56 1068.7402,-31.2989 954.8352,-63.2109 516.2765,-20.0011"/>
<polygon fill="#191970" stroke="#191970" points="516.483,-16.5045 506.1861,-18.9994 515.7914,-23.4702 516.483,-16.5045"/>
</g>
<!-- Node11 -->
<g id="node12" class="node">
<title>Node11</title>
<polygon fill="#ffffff" stroke="#bfbfbf" points="524.5,-.5 524.5,-19.5 637.5,-19.5 637.5,-.5 524.5,-.5"/>
<text text-anchor="middle" x="581" y="-7.5" font-family="Helvetica,sans-Serif" font-size="10.00" fill="#000000">Epetra_FECrsGraph.h</text>
</g>
<!-- Node4&#45;&gt;Node11 -->
<g id="edge12" class="edge">
<title>Node4&#45;&gt;Node11</title>
<path fill="none" stroke="#191970" d="M1599.9859,-62.9743C1573.8324,-60.7951 1537.1997,-57.9134 1505,-56 1127.3518,-33.5592 1028.6346,-56.2362 648.0245,-19.9892"/>
<polygon fill="#191970" stroke="#191970" points="648.1217,-16.4825 637.833,-19.011 647.4529,-23.4505 648.1217,-16.4825"/>
</g>
<!-- Node12 -->
<g id="node13" class="node">
<title>Node12</title>
<polygon fill="#ffffff" stroke="#bfbfbf" points="656,-.5 656,-19.5 770,-19.5 770,-.5 656,-.5"/>
<text text-anchor="middle" x="713" y="-7.5" font-family="Helvetica,sans-Serif" font-size="10.00" fill="#000000">Epetra_FECrsMatrix.h</text>
</g>
<!-- Node4&#45;&gt;Node12 -->
<g id="edge13" class="edge">
<title>Node4&#45;&gt;Node12</title>
<path fill="none" stroke="#191970" d="M1599.9815,-63.0466C1573.8257,-60.9038 1537.1922,-58.0359 1505,-56 1185.8871,-35.8183 1102.1601,-51.9021 780.2744,-20.0323"/>
<polygon fill="#191970" stroke="#191970" points="780.491,-16.5367 770.1929,-19.0263 779.7959,-23.5021 780.491,-16.5367"/>
</g>
<!-- Node13 -->
<g id="node14" class="node">
<title>Node13</title>
<polygon fill="#ffffff" stroke="#bfbfbf" points="788,-.5 788,-19.5 888,-19.5 888,-.5 788,-.5"/>
<text text-anchor="middle" x="838" y="-7.5" font-family="Helvetica,sans-Serif" font-size="10.00" fill="#000000">Epetra_FEVector.h</text>
</g>
<!-- Node4&#45;&gt;Node13 -->
<g id="edge14" class="edge">
<title>Node4&#45;&gt;Node13</title>
<path fill="none" stroke="#191970" d="M1599.9755,-63.1376C1573.8167,-61.0407 1537.182,-58.1904 1505,-56 1238.2261,-37.843 1167.6672,-50.3493 898.2398,-20.0271"/>
<polygon fill="#191970" stroke="#191970" points="898.4901,-16.5331 888.1592,-18.8832 897.7008,-23.4885 898.4901,-16.5331"/>
</g>
<!-- Node14 -->
<g id="node15" class="node">
<title>Node14</title>
<polygon fill="#ffffff" stroke="#bfbfbf" points="906.5,-.5 906.5,-19.5 993.5,-19.5 993.5,-.5 906.5,-.5"/>
<text text-anchor="middle" x="950" y="-7.5" font-family="Helvetica,sans-Serif" font-size="10.00" fill="#000000">Epetra_Vector.h</text>
</g>
<!-- Node4&#45;&gt;Node14 -->
<g id="edge15" class="edge">
<title>Node4&#45;&gt;Node14</title>
<path fill="none" stroke="#191970" d="M1599.9672,-63.2544C1573.8042,-61.2163 1537.1679,-58.3883 1505,-56 1284.7619,-39.6481 1225.9288,-48.9325 1003.6543,-20.0914"/>
<polygon fill="#191970" stroke="#191970" points="1004.0014,-16.6071 993.6317,-18.7797 1003.0929,-23.5479 1004.0014,-16.6071"/>
</g>
<!-- Node15 -->
<g id="node16" class="node">
<title>Node15</title>
<polygon fill="#ffffff" stroke="#bfbfbf" points="1011.5,-.5 1011.5,-19.5 1088.5,-19.5 1088.5,-.5 1011.5,-.5"/>
<text text-anchor="middle" x="1050" y="-7.5" font-family="Helvetica,sans-Serif" font-size="10.00" fill="#000000">Epetra_Map.h</text>
</g>
<!-- Node4&#45;&gt;Node15 -->
<g id="edge16" class="edge">
<title>Node4&#45;&gt;Node15</title>
<path fill="none" stroke="#191970" d="M1599.924,-63.2562C1493.6539,-54.9094 1178.0953,-29.8643 1098.6194,-19.9697"/>
<polygon fill="#191970" stroke="#191970" points="1099.0382,-16.4945 1088.6595,-18.6235 1098.1006,-23.4315 1099.0382,-16.4945"/>
</g>
<!-- Node16 -->
<g id="node17" class="node">
<title>Node16</title>
<polygon fill="#ffffff" stroke="#bfbfbf" points="1106.5,-.5 1106.5,-19.5 1245.5,-19.5 1245.5,-.5 1106.5,-.5"/>
<text text-anchor="middle" x="1176" y="-7.5" font-family="Helvetica,sans-Serif" font-size="10.00" fill="#000000">Epetra_SerialDenseMatrix.h</text>
</g>
<!-- Node4&#45;&gt;Node16 -->
<g id="edge17" class="edge">
<title>Node4&#45;&gt;Node16</title>
<path fill="none" stroke="#191970" d="M1599.8912,-61.8148C1534.4828,-54.0035 1389.272,-36.5963 1255.7826,-20.0916"/>
<polygon fill="#191970" stroke="#191970" points="1256.1384,-16.609 1245.7843,-18.8544 1255.2787,-23.556 1256.1384,-16.609"/>
</g>
<!-- Node17 -->
<g id="node18" class="node">
<title>Node17</title>
<polygon fill="#ffffff" stroke="#bfbfbf" points="1264,-.5 1264,-19.5 1404,-19.5 1404,-.5 1264,-.5"/>
<text text-anchor="middle" x="1334" y="-7.5" font-family="Helvetica,sans-Serif" font-size="10.00" fill="#000000">Epetra_SerialDenseVector.h</text>
</g>
<!-- Node4&#45;&gt;Node17 -->
<g id="edge18" class="edge">
<title>Node4&#45;&gt;Node17</title>
<path fill="none" stroke="#191970" d="M1599.8824,-59.4665C1549.7157,-50.1331 1456.8026,-32.847 1395.1854,-21.3833"/>
<polygon fill="#191970" stroke="#191970" points="1395.6699,-17.9135 1385.1984,-19.5253 1394.3895,-24.7954 1395.6699,-17.9135"/>
</g>
<!-- Node18 -->
<g id="node19" class="node">
<title>Node18</title>
<polygon fill="#ffffff" stroke="#bfbfbf" points="1422,-.5 1422,-19.5 1574,-19.5 1574,-.5 1422,-.5"/>
<text text-anchor="middle" x="1498" y="-7.5" font-family="Helvetica,sans-Serif" font-size="10.00" fill="#000000">Epetra_IntSerialDenseVector.h</text>
</g>
<!-- Node4&#45;&gt;Node18 -->
<g id="edge19" class="edge">
<title>Node4&#45;&gt;Node18</title>
<path fill="none" stroke="#191970" d="M1611.4489,-56.3733C1589.1609,-47.2629 1555.5063,-33.5062 1530.6363,-23.3404"/>
<polygon fill="#191970" stroke="#191970" points="1531.8247,-20.0451 1521.2438,-19.5011 1529.1761,-26.5247 1531.8247,-20.0451"/>
</g>
<!-- Node19 -->
<g id="node20" class="node">
<title>Node19</title>
<polygon fill="#ffffff" stroke="#bfbfbf" points="1592,-.5 1592,-19.5 1678,-19.5 1678,-.5 1592,-.5"/>
<text text-anchor="middle" x="1635" y="-7.5" font-family="Helvetica,sans-Serif" font-size="10.00" fill="#000000">Epetra_Import.h</text>
</g>
<!-- Node4&#45;&gt;Node19 -->
<g id="edge20" class="edge">
<title>Node4&#45;&gt;Node19</title>
<path fill="none" stroke="#191970" d="M1635,-56.2455C1635,-48.9382 1635,-38.6944 1635,-29.7046"/>
<polygon fill="#191970" stroke="#191970" points="1638.5001,-29.6426 1635,-19.6427 1631.5001,-29.6427 1638.5001,-29.6426"/>
</g>
<!-- Node20 -->
<g id="node21" class="node">
<title>Node20</title>
<polygon fill="#ffffff" stroke="#bfbfbf" points="1696.5,-.5 1696.5,-19.5 1783.5,-19.5 1783.5,-.5 1696.5,-.5"/>
<text text-anchor="middle" x="1740" y="-7.5" font-family="Helvetica,sans-Serif" font-size="10.00" fill="#000000">Epetra_Export.h</text>
</g>
<!-- Node4&#45;&gt;Node20 -->
<g id="edge21" class="edge">
<title>Node4&#45;&gt;Node20</title>
<path fill="none" stroke="#191970" d="M1653.2896,-56.2455C1669.7762,-47.4527 1694.2352,-34.4079 1712.9765,-24.4125"/>
<polygon fill="#191970" stroke="#191970" points="1714.7435,-27.4368 1721.92,-19.6427 1711.4494,-21.2604 1714.7435,-27.4368"/>
</g>
<!-- Node21 -->
<g id="node22" class="node">
<title>Node21</title>
<polygon fill="#ffffff" stroke="#bfbfbf" points="1802,-.5 1802,-19.5 1882,-19.5 1882,-.5 1802,-.5"/>
<text text-anchor="middle" x="1842" y="-7.5" font-family="Helvetica,sans-Serif" font-size="10.00" fill="#000000">Epetra_Time.h</text>
</g>
<!-- Node4&#45;&gt;Node21 -->
<g id="edge22" class="edge">
<title>Node4&#45;&gt;Node21</title>
<path fill="none" stroke="#191970" d="M1670.1147,-56.5004C1705.057,-47.0474 1758.8217,-32.5023 1796.904,-22.1999"/>
<polygon fill="#191970" stroke="#191970" points="1797.974,-25.5363 1806.713,-19.5462 1796.146,-18.7792 1797.974,-25.5363"/>
</g>
<!-- Node22 -->
<g id="node23" class="node">
<title>Node22</title>
<polygon fill="#ffffff" stroke="#bfbfbf" points="1900.5,-.5 1900.5,-19.5 2047.5,-19.5 2047.5,-.5 1900.5,-.5"/>
<text text-anchor="middle" x="1974" y="-7.5" font-family="Helvetica,sans-Serif" font-size="10.00" fill="#000000">ml_MultiLevelPreconditioner.h</text>
</g>
<!-- Node4&#45;&gt;Node22 -->
<g id="edge23" class="edge">
<title>Node4&#45;&gt;Node22</title>
<path fill="none" stroke="#191970" d="M1670.0021,-60.2179C1725.5486,-51.0421 1834.8783,-32.9817 1906.1624,-21.2062"/>
<polygon fill="#191970" stroke="#191970" points="1907.097,-24.5993 1916.3928,-19.5162 1905.956,-17.6929 1907.097,-24.5993"/>
</g>
<!-- Node23 -->
<g id="node24" class="node">
<title>Node23</title>
<polygon fill="#ffffff" stroke="#bfbfbf" points="2065.5,-.5 2065.5,-19.5 2156.5,-19.5 2156.5,-.5 2065.5,-.5"/>
<text text-anchor="middle" x="2111" y="-7.5" font-family="Helvetica,sans-Serif" font-size="10.00" fill="#000000">ml_epetra_utils.h</text>
</g>
<!-- Node4&#45;&gt;Node23 -->
<g id="edge24" class="edge">
<title>Node4&#45;&gt;Node23</title>
<path fill="none" stroke="#191970" d="M1670.1257,-63.0633C1741.0115,-56.945 1906.4339,-41.6977 2055.1513,-20.1888"/>
<polygon fill="#191970" stroke="#191970" points="2055.9852,-23.6042 2065.3747,-18.6963 2054.974,-16.6776 2055.9852,-23.6042"/>
</g>
<!-- Node24 -->
<g id="node25" class="node">
<title>Node24</title>
<polygon fill="#ffffff" stroke="#bfbfbf" points="2174.5,-.5 2174.5,-19.5 2245.5,-19.5 2245.5,-.5 2174.5,-.5"/>
<text text-anchor="middle" x="2210" y="-7.5" font-family="Helvetica,sans-Serif" font-size="10.00" fill="#000000">ml_include.h</text>
</g>
<!-- Node4&#45;&gt;Node24 -->
<g id="edge25" class="edge">
<title>Node4&#45;&gt;Node24</title>
<path fill="none" stroke="#191970" d="M1670.3064,-64.6153C1754.3543,-60.962 1972.9937,-49.359 2164.1158,-20.131"/>
<polygon fill="#191970" stroke="#191970" points="2164.7129,-23.5803 2174.0591,-18.5904 2163.6411,-16.6628 2164.7129,-23.5803"/>
</g>
<!-- Node25 -->
<g id="node26" class="node">
<title>Node25</title>
<polygon fill="#ffffff" stroke="#bfbfbf" points="2263.5,-.5 2263.5,-19.5 2400.5,-19.5 2400.5,-.5 2263.5,-.5"/>
<text text-anchor="middle" x="2332" y="-7.5" font-family="Helvetica,sans-Serif" font-size="10.00" fill="#000000">EpetraExt_RowMatrixOut.h</text>
</g>
<!-- Node4&#45;&gt;Node25 -->
<g id="edge26" class="edge">
<title>Node4&#45;&gt;Node25</title>
<path fill="none" stroke="#191970" d="M1670.0184,-64.08C1763.1558,-58.8291 2024.9075,-43.1306 2253.0241,-20.1586"/>
<polygon fill="#191970" stroke="#191970" points="2253.579,-23.6203 2263.1748,-19.1292 2252.8727,-16.6561 2253.579,-23.6203"/>
</g>
<!-- Node26 -->
<g id="node27" class="node">
<title>Node26</title>
<polygon fill="#ffffff" stroke="#bfbfbf" points="2418.5,-.5 2418.5,-19.5 2557.5,-19.5 2557.5,-.5 2418.5,-.5"/>
<text text-anchor="middle" x="2488" y="-7.5" font-family="Helvetica,sans-Serif" font-size="10.00" fill="#000000">EpetraExt_MultiVectorOut.h</text>
</g>
<!-- Node4&#45;&gt;Node26 -->
<g id="edge27" class="edge">
<title>Node4&#45;&gt;Node26</title>
<path fill="none" stroke="#191970" d="M1670.2111,-64.7664C1778.6165,-60.7873 2117.1051,-47.0086 2407.959,-20.1386"/>
<polygon fill="#191970" stroke="#191970" points="2408.6526,-23.5892 2418.2851,-19.1772 2408.0036,-16.6194 2408.6526,-23.5892"/>
</g>
<!-- Node27 -->
<g id="node28" class="node">
<title>Node27</title>
<polygon fill="#ffffff" stroke="#bfbfbf" points="2576,-.5 2576,-19.5 2686,-19.5 2686,-.5 2576,-.5"/>
<text text-anchor="middle" x="2631" y="-7.5" font-family="Helvetica,sans-Serif" font-size="10.00" fill="#000000">EpetraExt_VectorIn.h</text>
</g>
<!-- Node4&#45;&gt;Node27 -->
<g id="edge28" class="edge">
<title>Node4&#45;&gt;Node27</title>
<path fill="none" stroke="#191970" d="M1670.2259,-65.6013C1792.5867,-63.9342 2210.6406,-55.8778 2565.9259,-20.0045"/>
<polygon fill="#191970" stroke="#191970" points="2566.2962,-23.485 2575.89,-18.9894 2565.5867,-16.5211 2566.2962,-23.485"/>
</g>
<!-- Node28 -->
<g id="node29" class="node">
<title>Node28</title>
<polygon fill="#ffffff" stroke="#bfbfbf" points="2704.5,-.5 2704.5,-19.5 2835.5,-19.5 2835.5,-.5 2704.5,-.5"/>
<text text-anchor="middle" x="2770" y="-7.5" font-family="Helvetica,sans-Serif" font-size="10.00" fill="#000000">EpetraExt_MultiVectorIn.h</text>
</g>
<!-- Node4&#45;&gt;Node28 -->
<g id="edge29" class="edge">
<title>Node4&#45;&gt;Node28</title>
<path fill="none" stroke="#191970" d="M1670.3026,-65.61C1803.1136,-63.9026 2285.5179,-55.5375 2693.9466,-20.0106"/>
<polygon fill="#191970" stroke="#191970" points="2694.5307,-23.4729 2704.1867,-19.1128 2693.9192,-16.4996 2694.5307,-23.4729"/>
</g>
<!-- Node29 -->
<g id="node30" class="node">
<title>Node29</title>
<polygon fill="#ffffff" stroke="#bfbfbf" points="2854,-.5 2854,-19.5 2954,-19.5 2954,-.5 2854,-.5"/>
<text text-anchor="middle" x="2904" y="-7.5" font-family="Helvetica,sans-Serif" font-size="10.00" fill="#000000">Teuchos_RCP.hpp</text>
</g>
<!-- Node4&#45;&gt;Node29 -->
<g id="edge30" class="edge">
<title>Node4&#45;&gt;Node29</title>
<path fill="none" stroke="#191970" d="M1670.0656,-65.2829C1840.9384,-61.6958 2588.1179,-44.9166 2843.8642,-19.9605"/>
<polygon fill="#191970" stroke="#191970" points="2844.2493,-23.4395 2853.8487,-18.9559 2843.5485,-16.4747 2844.2493,-23.4395"/>
</g>
<!-- Node30 -->
<g id="node31" class="node">
<title>Node30</title>
<polygon fill="#ffffff" stroke="#bfbfbf" points="2972.5,-.5 2972.5,-19.5 3033.5,-19.5 3033.5,-.5 2972.5,-.5"/>
<text text-anchor="middle" x="3003" y="-7.5" font-family="Helvetica,sans-Serif" font-size="10.00" fill="#000000">Amesos.h</text>
</g>
<!-- Node4&#45;&gt;Node30 -->
<g id="edge31" class="edge">
<title>Node4&#45;&gt;Node30</title>
<path fill="none" stroke="#191970" d="M1670.1399,-65.7826C1851.3378,-64.5114 2682.0859,-56.818 2961.9952,-19.7889"/>
<polygon fill="#191970" stroke="#191970" points="2962.6852,-23.2271 2972.1178,-18.4026 2961.7354,-16.2919 2962.6852,-23.2271"/>
</g>
<!-- Node31 -->
<g id="node32" class="node">
<title>Node31</title>
<polygon fill="#ffffff" stroke="#bfbfbf" points="3051.5,-.5 3051.5,-19.5 3116.5,-19.5 3116.5,-.5 3051.5,-.5"/>
<text text-anchor="middle" x="3084" y="-7.5" font-family="Helvetica,sans-Serif" font-size="10.00" fill="#000000">AztecOO.h</text>
</g>
<!-- Node4&#45;&gt;Node31 -->
<g id="edge32" class="edge">
<title>Node4&#45;&gt;Node31</title>
<path fill="none" stroke="#191970" d="M1670.0432,-65.836C1857.5699,-64.8113 2744.7111,-58.0719 3041.149,-19.9528"/>
<polygon fill="#191970" stroke="#191970" points="3041.9918,-23.3716 3051.4429,-18.5835 3041.0687,-16.4328 3041.9918,-23.3716"/>
</g>
<!-- Node32 -->
<g id="node33" class="node">
<title>Node32</title>
<polygon fill="#ffffff" stroke="#bfbfbf" points="3135,-.5 3135,-19.5 3251,-19.5 3251,-.5 3135,-.5"/>
<text text-anchor="middle" x="3193" y="-7.5" font-family="Helvetica,sans-Serif" font-size="10.00" fill="#000000">Amesos_BaseSolver.h</text>
</g>
<!-- Node4&#45;&gt;Node32 -->
<g id="edge33" class="edge">
<title>Node4&#45;&gt;Node32</title>
<path fill="none" stroke="#191970" d="M1670.1077,-65.4772C1864.3193,-62.501 2809.3995,-46.9024 3124.8921,-19.9719"/>
<polygon fill="#191970" stroke="#191970" points="3125.2892,-23.4506 3134.9453,-19.0906 3124.6778,-16.4774 3125.2892,-23.4506"/>
</g>
<!-- Node33 -->
<g id="node34" class="node">
<title>Node33</title>
<polygon fill="#ffffff" stroke="#bfbfbf" points="3269.5,-.5 3269.5,-19.5 3318.5,-19.5 3318.5,-.5 3269.5,-.5"/>
<text text-anchor="middle" x="3294" y="-7.5" font-family="Helvetica,sans-Serif" font-size="10.00" fill="#000000">metis.h</text>
</g>
<!-- Node4&#45;&gt;Node33 -->
<g id="edge34" class="edge">
<title>Node4&#45;&gt;Node33</title>
<path fill="none" stroke="#191970" d="M1670.1845,-65.548C1888.5888,-62.6716 3056.0672,-46.2428 3259.314,-19.5138"/>
<polygon fill="#191970" stroke="#191970" points="3259.8919,-22.9667 3269.2868,-18.0692 3258.8883,-16.039 3259.8919,-22.9667"/>
</g>
<!-- Node34 -->
<g id="node35" class="node">
<title>Node34</title>
<g id="a_node35"><a xlink:href="../../d4/dbc/fepp_8hpp.html" target="_top" xlink:title="fepp.hpp">
<polygon fill="#ffffff" stroke="#000000" points="3337,-.5 3337,-19.5 3391,-19.5 3391,-.5 3337,-.5"/>
<text text-anchor="middle" x="3364" y="-7.5" font-family="Helvetica,sans-Serif" font-size="10.00" fill="#000000">fepp.hpp</text>
</a>
</g>
</g>
<!-- Node4&#45;&gt;Node34 -->
<g id="edge35" class="edge">
<title>Node4&#45;&gt;Node34</title>
<path fill="none" stroke="#191970" d="M1670.1015,-65.5307C1896.9362,-62.5279 3150.3524,-45.3257 3319,-20 3321.616,-19.6072 3324.3121,-19.0857 3327.0328,-18.4866"/>
<polygon fill="#191970" stroke="#191970" points="3328.0153,-21.8494 3336.8934,-16.0675 3326.3474,-15.051 3328.0153,-21.8494"/>
</g>
<!-- Node34&#45;&gt;Node4 -->
<g id="edge36" class="edge">
<title>Node34&#45;&gt;Node4</title>
<path fill="none" stroke="#191970" d="M3339.7173,-19.552C3338.8056,-19.7151 3337.8981,-19.8651 3337,-20 3169.6655,-45.1285 1934.3891,-62.2595 1680.499,-65.458"/>
<polygon fill="#191970" stroke="#191970" points="1680.1276,-61.9622 1670.1722,-65.5871 1680.2153,-68.9617 1680.1276,-61.9622"/>
</g>
<!-- Node36 -->
<g id="node37" class="node">
<title>Node36</title>
<g id="a_node37"><a xlink:href="../../d3/dd8/linear_finite_element_problem_8hpp.html" target="_top" xlink:title="linearFiniteElementProblem.hpp">
<polygon fill="#ffffff" stroke="#000000" points="1557.5,-168.5 1557.5,-187.5 1712.5,-187.5 1712.5,-168.5 1557.5,-168.5"/>
<text text-anchor="middle" x="1635" y="-175.5" font-family="Helvetica,sans-Serif" font-size="10.00" fill="#000000">linearFiniteElementProblem.hpp</text>
</a>
</g>
</g>
<!-- Node35&#45;&gt;Node36 -->
<g id="edge38" class="edge">
<title>Node35&#45;&gt;Node36</title>
<path fill="none" stroke="#191970" d="M1602.0938,-229.8906C1607.7843,-220.917 1616.4272,-207.2879 1623.4274,-196.2491"/>
<polygon fill="#191970" stroke="#191970" points="1626.4207,-198.0644 1628.8203,-187.7449 1620.5091,-194.3155 1626.4207,-198.0644"/>
</g>
<!-- Node37 -->
<g id="node38" class="node">
<title>Node37</title>
<g id="a_node38"><a xlink:href="../../dd/d80/base_class_f_e_m_8hpp.html" target="_top" xlink:title="baseClassFEM.hpp">
<polygon fill="#ffffff" stroke="#000000" points="1583.5,-112.5 1583.5,-131.5 1686.5,-131.5 1686.5,-112.5 1583.5,-112.5"/>
<text text-anchor="middle" x="1635" y="-119.5" font-family="Helvetica,sans-Serif" font-size="10.00" fill="#000000">baseClassFEM.hpp</text>
</a>
</g>
</g>
<!-- Node36&#45;&gt;Node37 -->
<g id="edge39" class="edge">
<title>Node36&#45;&gt;Node37</title>
<path fill="none" stroke="#191970" d="M1635,-168.2455C1635,-160.9382 1635,-150.6944 1635,-141.7046"/>
<polygon fill="#191970" stroke="#191970" points="1638.5001,-141.6426 1635,-131.6427 1631.5001,-141.6427 1638.5001,-141.6426"/>
</g>
<!-- Node37&#45;&gt;Node4 -->
<g id="edge40" class="edge">
<title>Node37&#45;&gt;Node4</title>
<path fill="none" stroke="#191970" d="M1635,-112.2455C1635,-104.9382 1635,-94.6944 1635,-85.7046"/>
<polygon fill="#191970" stroke="#191970" points="1638.5001,-85.6426 1635,-75.6427 1631.5001,-85.6427 1638.5001,-85.6426"/>
</g>
</g>
</svg>
