<?xml version="1.0" encoding="UTF-8" standalone="no"?>
<!DOCTYPE svg PUBLIC "-//W3C//DTD SVG 1.1//EN"
 "http://www.w3.org/Graphics/SVG/1.1/DTD/svg11.dtd">
<!-- Generated by graphviz version 2.40.1 (20161225.0304)
 -->
<!-- Title: cee530/manufactured/main.cpp Pages: 1 -->
<svg width="3410pt" height="397pt"
 viewBox="0.00 0.00 3409.78 397.00" xmlns="http://www.w3.org/2000/svg" xmlns:xlink="http://www.w3.org/1999/xlink">
<g id="graph0" class="graph" transform="scale(1 1) rotate(0) translate(4 393)">
<title>cee530/manufactured/main.cpp</title>
<polygon fill="#ffffff" stroke="transparent" points="-4,4 -4,-393 3405.7788,-393 3405.7788,4 -4,4"/>
<!-- Node0 -->
<g id="node1" class="node">
<title>Node0</title>
<polygon fill="#bfbfbf" stroke="#000000" points="1955.3647,-360.5 1955.3647,-388.5 2068.0981,-388.5 2068.0981,-360.5 1955.3647,-360.5"/>
<text text-anchor="start" x="1963.3647" y="-376.5" font-family="Helvetica,sans-Serif" font-size="10.00" fill="#000000">cee530/manufactured</text>
<text text-anchor="middle" x="2011.7314" y="-366.5" font-family="Helvetica,sans-Serif" font-size="10.00" fill="#000000">/main.cpp</text>
</g>
<!-- Node1 -->
<g id="node2" class="node">
<title>Node1</title>
<polygon fill="#ffffff" stroke="#bfbfbf" points="1579.3154,-300.5 1579.3154,-318.5 1688.1475,-318.5 1688.1475,-300.5 1579.3154,-300.5"/>
<text text-anchor="middle" x="1633.7314" y="-306.5" font-family="Helvetica,sans-Serif" font-size="10.00" fill="#000000">Epetra_ConfigDefs.h</text>
</g>
<!-- Node0&#45;&gt;Node1 -->
<g id="edge1" class="edge">
<title>Node0&#45;&gt;Node1</title>
<path fill="none" stroke="#191970" d="M1955.1021,-366.4956C1892.0801,-357.3313 1787.3117,-341.3332 1697.7314,-324 1692.6194,-323.0109 1687.2929,-321.9127 1681.9913,-320.7761"/>
<polygon fill="#191970" stroke="#191970" points="1682.4075,-317.2843 1671.8899,-318.5613 1680.9082,-324.1219 1682.4075,-317.2843"/>
</g>
<!-- Node2 -->
<g id="node3" class="node">
<title>Node2</title>
<polygon fill="#ffffff" stroke="#bfbfbf" points="1706.5444,-300.5 1706.5444,-318.5 1820.9185,-318.5 1820.9185,-300.5 1706.5444,-300.5"/>
<text text-anchor="middle" x="1763.7314" y="-306.5" font-family="Helvetica,sans-Serif" font-size="10.00" fill="#000000">Epetra_SerialComm.h</text>
</g>
<!-- Node0&#45;&gt;Node2 -->
<g id="edge2" class="edge">
<title>Node0&#45;&gt;Node2</title>
<path fill="none" stroke="#191970" d="M1958.2245,-360.476C1913.2722,-348.6942 1849.812,-332.0614 1807.7571,-321.039"/>
<polygon fill="#191970" stroke="#191970" points="1808.6365,-317.6513 1798.0759,-318.5016 1806.8617,-324.4226 1808.6365,-317.6513"/>
</g>
<!-- Node3 -->
<g id="node4" class="node">
<title>Node3</title>
<g id="a_node4"><a xlink:href="../../df/dae/manufactured_8hpp.html" target="_top" xlink:title="manufactured.hpp">
<polygon fill="#ffffff" stroke="#000000" points="1838.4263,-300.5 1838.4263,-318.5 1935.0366,-318.5 1935.0366,-300.5 1838.4263,-300.5"/>
<text text-anchor="middle" x="1886.7314" y="-306.5" font-family="Helvetica,sans-Serif" font-size="10.00" fill="#000000">manufactured.hpp</text>
</a>
</g>
</g>
<!-- Node0&#45;&gt;Node3 -->
<g id="edge3" class="edge">
<title>Node0&#45;&gt;Node3</title>
<path fill="none" stroke="#191970" d="M1984.6083,-360.396C1963.4374,-349.3871 1934.1916,-334.1793 1913.1917,-323.2594"/>
<polygon fill="#191970" stroke="#191970" points="1914.669,-320.0826 1904.182,-318.5743 1911.4395,-326.2931 1914.669,-320.0826"/>
</g>
<!-- Node31 -->
<g id="node32" class="node">
<title>Node31</title>
<polygon fill="#ffffff" stroke="#bfbfbf" points="3303.6841,-.5 3303.6841,-18.5 3401.7788,-18.5 3401.7788,-.5 3303.6841,-.5"/>
<text text-anchor="middle" x="3352.7314" y="-6.5" font-family="Helvetica,sans-Serif" font-size="10.00" fill="#000000">Teuchos_RCP.hpp</text>
</g>
<!-- Node0&#45;&gt;Node31 -->
<g id="edge42" class="edge">
<title>Node0&#45;&gt;Node31</title>
<path fill="none" stroke="#191970" d="M2001.5719,-360.0859C1995.0851,-350.3012 1986.9441,-336.852 1981.7314,-324 1968.0773,-290.3352 1962.7314,-280.8284 1962.7314,-244.5 1962.7314,-244.5 1962.7314,-244.5 1962.7314,-119.5 1962.7314,25.9856 3101.7907,-33.9815 3293.4443,-18.718"/>
<polygon fill="#191970" stroke="#191970" points="3293.9035,-22.19 3303.5194,-17.742 3293.2285,-15.2226 3293.9035,-22.19"/>
</g>
<!-- Node40 -->
<g id="node41" class="node">
<title>Node40</title>
<polygon fill="#ffffff" stroke="#bfbfbf" points="1990.4731,-300.5 1990.4731,-318.5 2130.9897,-318.5 2130.9897,-300.5 1990.4731,-300.5"/>
<text text-anchor="middle" x="2060.7314" y="-306.5" font-family="Helvetica,sans-Serif" font-size="10.00" fill="#000000">Teuchos_ParameterList.hpp</text>
</g>
<!-- Node0&#45;&gt;Node40 -->
<g id="edge43" class="edge">
<title>Node0&#45;&gt;Node40</title>
<path fill="none" stroke="#191970" d="M2022.3637,-360.396C2029.8403,-350.4781 2039.8859,-337.1522 2047.8227,-326.6239"/>
<polygon fill="#191970" stroke="#191970" points="2050.666,-328.6664 2053.8908,-318.5743 2045.0763,-324.4527 2050.666,-328.6664"/>
</g>
<!-- Node41 -->
<g id="node42" class="node">
<title>Node41</title>
<polygon fill="#ffffff" stroke="#bfbfbf" points="2148.8501,-300.5 2148.8501,-318.5 2326.6128,-318.5 2326.6128,-300.5 2148.8501,-300.5"/>
<text text-anchor="middle" x="2237.7314" y="-306.5" font-family="Helvetica,sans-Serif" font-size="10.00" fill="#000000">Teuchos_StandardCatchMacros.hpp</text>
</g>
<!-- Node0&#45;&gt;Node41 -->
<g id="edge44" class="edge">
<title>Node0&#45;&gt;Node41</title>
<path fill="none" stroke="#191970" d="M2060.4918,-360.476C2101.1107,-348.7936 2158.3122,-332.3418 2196.637,-321.3192"/>
<polygon fill="#191970" stroke="#191970" points="2197.7907,-324.6293 2206.4337,-318.5016 2195.8559,-317.902 2197.7907,-324.6293"/>
</g>
<!-- Node42 -->
<g id="node43" class="node">
<title>Node42</title>
<polygon fill="#ffffff" stroke="#bfbfbf" points="2344.8452,-300.5 2344.8452,-318.5 2532.6177,-318.5 2532.6177,-300.5 2344.8452,-300.5"/>
<text text-anchor="middle" x="2438.7314" y="-306.5" font-family="Helvetica,sans-Serif" font-size="10.00" fill="#000000">Teuchos_CommandLineProcessor.hpp</text>
</g>
<!-- Node0&#45;&gt;Node42 -->
<g id="edge45" class="edge">
<title>Node0&#45;&gt;Node42</title>
<path fill="none" stroke="#191970" d="M2068.4337,-365.8685C2146.1502,-354.0381 2285.6435,-332.8038 2369.4529,-320.0459"/>
<polygon fill="#191970" stroke="#191970" points="2370.0302,-323.4984 2379.3896,-318.5333 2368.9767,-316.5782 2370.0302,-323.4984"/>
</g>
<!-- Node43 -->
<g id="node44" class="node">
<title>Node43</title>
<polygon fill="#ffffff" stroke="#bfbfbf" points="2550.9238,-295.5 2550.9238,-323.5 2692.5391,-323.5 2692.5391,-295.5 2550.9238,-295.5"/>
<text text-anchor="start" x="2558.9238" y="-311.5" font-family="Helvetica,sans-Serif" font-size="10.00" fill="#000000">Teuchos_XMLParameterList</text>
<text text-anchor="middle" x="2621.7314" y="-301.5" font-family="Helvetica,sans-Serif" font-size="10.00" fill="#000000">CoreHelpers.hpp</text>
</g>
<!-- Node0&#45;&gt;Node43 -->
<g id="edge46" class="edge">
<title>Node0&#45;&gt;Node43</title>
<path fill="none" stroke="#191970" d="M2068.3889,-370.6773C2163.739,-363.8988 2362.4991,-348.2881 2540.6028,-324.0809"/>
<polygon fill="#191970" stroke="#191970" points="2541.2495,-327.5251 2550.6812,-322.6988 2540.2984,-320.59 2541.2495,-327.5251"/>
</g>
<!-- Node4 -->
<g id="node5" class="node">
<title>Node4</title>
<g id="a_node5"><a xlink:href="../../de/d49/tensor__calculus_8hpp.html" target="_top" xlink:title="tensor_calculus.hpp">
<polygon fill="#ffffff" stroke="#000000" points="1695.2588,-170.5 1695.2588,-188.5 1800.2041,-188.5 1800.2041,-170.5 1695.2588,-170.5"/>
<text text-anchor="middle" x="1747.7314" y="-176.5" font-family="Helvetica,sans-Serif" font-size="10.00" fill="#000000">tensor_calculus.hpp</text>
</a>
</g>
</g>
<!-- Node3&#45;&gt;Node4 -->
<g id="edge4" class="edge">
<title>Node3&#45;&gt;Node4</title>
<path fill="none" stroke="#191970" d="M1871.8016,-300.4116C1856.8613,-290.9757 1833.5921,-275.3322 1815.7314,-259 1794.6965,-239.7652 1773.8966,-214.2364 1760.9488,-197.3593"/>
<polygon fill="#191970" stroke="#191970" points="1763.4313,-194.8388 1754.6117,-188.9681 1757.8453,-199.0574 1763.4313,-194.8388"/>
</g>
<!-- Node37 -->
<g id="node38" class="node">
<title>Node37</title>
<g id="a_node38"><a xlink:href="../../d4/d4c/linearelasticity__setup__pp_8hpp.html" target="_top" xlink:title="linearelasticity_setup\l_pp.hpp">
<polygon fill="#ffffff" stroke="#000000" points="1824.3179,-230.5 1824.3179,-258.5 1933.145,-258.5 1933.145,-230.5 1824.3179,-230.5"/>
<text text-anchor="start" x="1832.3179" y="-246.5" font-family="Helvetica,sans-Serif" font-size="10.00" fill="#000000">linearelasticity_setup</text>
<text text-anchor="middle" x="1878.7314" y="-236.5" font-family="Helvetica,sans-Serif" font-size="10.00" fill="#000000">_pp.hpp</text>
</a>
</g>
</g>
<!-- Node3&#45;&gt;Node37 -->
<g id="edge38" class="edge">
<title>Node3&#45;&gt;Node37</title>
<path fill="none" stroke="#191970" d="M1885.6191,-300.462C1884.617,-292.3201 1883.0972,-279.9715 1881.7399,-268.9438"/>
<polygon fill="#191970" stroke="#191970" points="1885.2061,-268.4534 1880.5106,-258.9559 1878.2585,-269.3086 1885.2061,-268.4534"/>
</g>
<!-- Node5 -->
<g id="node6" class="node">
<title>Node5</title>
<g id="a_node6"><a xlink:href="../../d0/d02/meshpp_8hpp.html" target="_top" xlink:title="meshpp.hpp">
<polygon fill="#ffffff" stroke="#000000" points="1712.2119,-55.5 1712.2119,-73.5 1783.251,-73.5 1783.251,-55.5 1712.2119,-55.5"/>
<text text-anchor="middle" x="1747.7314" y="-61.5" font-family="Helvetica,sans-Serif" font-size="10.00" fill="#000000">meshpp.hpp</text>
</a>
</g>
</g>
<!-- Node4&#45;&gt;Node5 -->
<g id="edge5" class="edge">
<title>Node4&#45;&gt;Node5</title>
<path fill="none" stroke="#191970" d="M1747.7314,-170.4761C1747.7314,-151.9256 1747.7314,-109.142 1747.7314,-83.9748"/>
<polygon fill="#191970" stroke="#191970" points="1751.2315,-83.8013 1747.7314,-73.8014 1744.2315,-83.8014 1751.2315,-83.8013"/>
</g>
<!-- Node6 -->
<g id="node7" class="node">
<title>Node6</title>
<polygon fill="#ffffff" stroke="#bfbfbf" points="0,-.5 0,-18.5 45.4629,-18.5 45.4629,-.5 0,-.5"/>
<text text-anchor="middle" x="22.7314" y="-6.5" font-family="Helvetica,sans-Serif" font-size="10.00" fill="#000000">stdio.h</text>
</g>
<!-- Node5&#45;&gt;Node6 -->
<g id="edge6" class="edge">
<title>Node5&#45;&gt;Node6</title>
<path fill="none" stroke="#191970" d="M1712.188,-64.103C1487.4228,-61.5201 266.3676,-46.3892 55.6991,-18.5455"/>
<polygon fill="#191970" stroke="#191970" points="56.0371,-15.0579 45.6373,-17.0816 55.0292,-21.985 56.0371,-15.0579"/>
</g>
<!-- Node7 -->
<g id="node8" class="node">
<title>Node7</title>
<polygon fill="#ffffff" stroke="#bfbfbf" points="63.5591,-.5 63.5591,-18.5 117.9038,-18.5 117.9038,-.5 63.5591,-.5"/>
<text text-anchor="middle" x="90.7314" y="-6.5" font-family="Helvetica,sans-Serif" font-size="10.00" fill="#000000">iostream</text>
</g>
<!-- Node5&#45;&gt;Node7 -->
<g id="edge7" class="edge">
<title>Node5&#45;&gt;Node7</title>
<path fill="none" stroke="#191970" d="M1711.9472,-63.9744C1492.4471,-60.6882 331.1884,-42.3839 128.0469,-18.531"/>
<polygon fill="#191970" stroke="#191970" points="128.4393,-15.0527 118.0738,-17.2454 127.5442,-21.9953 128.4393,-15.0527"/>
</g>
<!-- Node8 -->
<g id="node9" class="node">
<title>Node8</title>
<polygon fill="#ffffff" stroke="#bfbfbf" points="136.3398,-.5 136.3398,-18.5 185.123,-18.5 185.123,-.5 136.3398,-.5"/>
<text text-anchor="middle" x="160.7314" y="-6.5" font-family="Helvetica,sans-Serif" font-size="10.00" fill="#000000">istream</text>
</g>
<!-- Node5&#45;&gt;Node8 -->
<g id="edge8" class="edge">
<title>Node5&#45;&gt;Node8</title>
<path fill="none" stroke="#191970" d="M1711.997,-63.9913C1498.105,-60.8762 390.2802,-43.7355 195.5036,-18.7613"/>
<polygon fill="#191970" stroke="#191970" points="195.8399,-15.2741 185.4478,-17.3365 194.8579,-22.2049 195.8399,-15.2741"/>
</g>
<!-- Node9 -->
<g id="node10" class="node">
<title>Node9</title>
<polygon fill="#ffffff" stroke="#bfbfbf" points="203.0615,-.5 203.0615,-18.5 252.4014,-18.5 252.4014,-.5 203.0615,-.5"/>
<text text-anchor="middle" x="227.7314" y="-6.5" font-family="Helvetica,sans-Serif" font-size="10.00" fill="#000000">fstream</text>
</g>
<!-- Node5&#45;&gt;Node9 -->
<g id="edge9" class="edge">
<title>Node5&#45;&gt;Node9</title>
<path fill="none" stroke="#191970" d="M1712.1738,-63.9437C1504.4027,-60.6236 450.4173,-42.8079 262.6262,-18.7764"/>
<polygon fill="#191970" stroke="#191970" points="262.8408,-15.2719 252.4484,-17.3329 261.8578,-22.2025 262.8408,-15.2719"/>
</g>
<!-- Node10 -->
<g id="node11" class="node">
<title>Node10</title>
<polygon fill="#ffffff" stroke="#bfbfbf" points="270.1157,-.5 270.1157,-18.5 313.3472,-18.5 313.3472,-.5 270.1157,-.5"/>
<text text-anchor="middle" x="291.7314" y="-6.5" font-family="Helvetica,sans-Serif" font-size="10.00" fill="#000000">vector</text>
</g>
<!-- Node5&#45;&gt;Node10 -->
<g id="edge10" class="edge">
<title>Node5&#45;&gt;Node10</title>
<path fill="none" stroke="#191970" d="M1711.955,-63.9461C1508.8411,-60.7245 503.749,-43.7346 323.514,-18.7044"/>
<polygon fill="#191970" stroke="#191970" points="323.9318,-15.2275 313.5148,-17.1604 322.8635,-22.1455 323.9318,-15.2275"/>
</g>
<!-- Node11 -->
<g id="node12" class="node">
<title>Node11</title>
<polygon fill="#ffffff" stroke="#bfbfbf" points="331.2217,-.5 331.2217,-18.5 382.2412,-18.5 382.2412,-.5 331.2217,-.5"/>
<text text-anchor="middle" x="356.7314" y="-6.5" font-family="Helvetica,sans-Serif" font-size="10.00" fill="#000000">iomanip</text>
</g>
<!-- Node5&#45;&gt;Node11 -->
<g id="edge11" class="edge">
<title>Node5&#45;&gt;Node11</title>
<path fill="none" stroke="#191970" d="M1712.1447,-64.4195C1527.603,-63.835 677.5241,-59.0541 392.4821,-18.6842"/>
<polygon fill="#191970" stroke="#191970" points="392.9846,-15.2205 382.5827,-17.233 391.9693,-22.1465 392.9846,-15.2205"/>
</g>
<!-- Node12 -->
<g id="node13" class="node">
<title>Node12</title>
<polygon fill="#ffffff" stroke="#bfbfbf" points="400.271,-.5 400.271,-18.5 505.1919,-18.5 505.1919,-.5 400.271,-.5"/>
<text text-anchor="middle" x="452.7314" y="-6.5" font-family="Helvetica,sans-Serif" font-size="10.00" fill="#000000">Epetra_MpiComm.h</text>
</g>
<!-- Node5&#45;&gt;Node12 -->
<g id="edge12" class="edge">
<title>Node5&#45;&gt;Node12</title>
<path fill="none" stroke="#191970" d="M1711.9769,-63.7506C1537.7459,-60.0132 775.8701,-42.6596 515.4218,-19.0316"/>
<polygon fill="#191970" stroke="#191970" points="515.5367,-15.5272 505.2544,-18.0813 514.8852,-22.4968 515.5367,-15.5272"/>
</g>
<!-- Node13 -->
<g id="node14" class="node">
<title>Node13</title>
<polygon fill="#ffffff" stroke="#bfbfbf" points="522.9878,-.5 522.9878,-18.5 638.4751,-18.5 638.4751,-.5 522.9878,-.5"/>
<text text-anchor="middle" x="580.7314" y="-6.5" font-family="Helvetica,sans-Serif" font-size="10.00" fill="#000000">Epetra_FECrsGraph.h</text>
</g>
<!-- Node5&#45;&gt;Node13 -->
<g id="edge13" class="edge">
<title>Node5&#45;&gt;Node13</title>
<path fill="none" stroke="#191970" d="M1712.0344,-64.3131C1575.4737,-63.3272 1072.9942,-57.2189 648.8003,-19.002"/>
<polygon fill="#191970" stroke="#191970" points="649.0704,-15.5122 638.7948,-18.0933 648.4372,-22.4835 649.0704,-15.5122"/>
</g>
<!-- Node14 -->
<g id="node15" class="node">
<title>Node14</title>
<polygon fill="#ffffff" stroke="#bfbfbf" points="656.2734,-.5 656.2734,-18.5 771.1895,-18.5 771.1895,-.5 656.2734,-.5"/>
<text text-anchor="middle" x="713.7314" y="-6.5" font-family="Helvetica,sans-Serif" font-size="10.00" fill="#000000">Epetra_FECrsMatrix.h</text>
</g>
<!-- Node5&#45;&gt;Node14 -->
<g id="edge14" class="edge">
<title>Node5&#45;&gt;Node14</title>
<path fill="none" stroke="#191970" d="M1712.045,-64.0577C1586.1226,-62.2369 1150.7147,-53.7332 781.369,-19.0705"/>
<polygon fill="#191970" stroke="#191970" points="781.5707,-15.5741 771.2854,-18.1161 780.911,-22.5429 781.5707,-15.5741"/>
</g>
<!-- Node15 -->
<g id="node16" class="node">
<title>Node15</title>
<polygon fill="#ffffff" stroke="#bfbfbf" points="788.7563,-.5 788.7563,-18.5 888.7065,-18.5 888.7065,-.5 788.7563,-.5"/>
<text text-anchor="middle" x="838.7314" y="-6.5" font-family="Helvetica,sans-Serif" font-size="10.00" fill="#000000">Epetra_FEVector.h</text>
</g>
<!-- Node5&#45;&gt;Node15 -->
<g id="edge15" class="edge">
<title>Node5&#45;&gt;Node15</title>
<path fill="none" stroke="#191970" d="M1711.9938,-63.9439C1596.0862,-61.8537 1220.0086,-52.8246 898.8582,-19.0077"/>
<polygon fill="#191970" stroke="#191970" points="899.2087,-15.5253 888.8948,-17.9487 898.4688,-22.4861 899.2087,-15.5253"/>
</g>
<!-- Node16 -->
<g id="node17" class="node">
<title>Node16</title>
<polygon fill="#ffffff" stroke="#bfbfbf" points="907.1455,-.5 907.1455,-18.5 994.3174,-18.5 994.3174,-.5 907.1455,-.5"/>
<text text-anchor="middle" x="950.7314" y="-6.5" font-family="Helvetica,sans-Serif" font-size="10.00" fill="#000000">Epetra_Vector.h</text>
</g>
<!-- Node5&#45;&gt;Node16 -->
<g id="edge16" class="edge">
<title>Node5&#45;&gt;Node16</title>
<path fill="none" stroke="#191970" d="M1711.9782,-63.787C1605.7832,-61.3573 1282.8585,-51.7157 1004.6376,-18.957"/>
<polygon fill="#191970" stroke="#191970" points="1004.6875,-15.4383 994.3439,-17.7319 1003.8601,-22.3893 1004.6875,-15.4383"/>
</g>
<!-- Node17 -->
<g id="node18" class="node">
<title>Node17</title>
<polygon fill="#ffffff" stroke="#bfbfbf" points="1012.3228,-.5 1012.3228,-18.5 1091.1401,-18.5 1091.1401,-.5 1012.3228,-.5"/>
<text text-anchor="middle" x="1051.7314" y="-6.5" font-family="Helvetica,sans-Serif" font-size="10.00" fill="#000000">Epetra_Map.h</text>
</g>
<!-- Node5&#45;&gt;Node17 -->
<g id="edge17" class="edge">
<title>Node5&#45;&gt;Node17</title>
<path fill="none" stroke="#191970" d="M1712.1002,-63.5651C1615.4147,-60.6956 1339.9155,-50.3103 1101.47,-19.0811"/>
<polygon fill="#191970" stroke="#191970" points="1101.592,-15.5667 1091.2188,-17.7225 1100.6723,-22.5061 1101.592,-15.5667"/>
</g>
<!-- Node18 -->
<g id="node19" class="node">
<title>Node18</title>
<polygon fill="#ffffff" stroke="#bfbfbf" points="1109.2021,-.5 1109.2021,-18.5 1250.2607,-18.5 1250.2607,-.5 1109.2021,-.5"/>
<text text-anchor="middle" x="1179.7314" y="-6.5" font-family="Helvetica,sans-Serif" font-size="10.00" fill="#000000">Epetra_SerialDenseMatrix.h</text>
</g>
<!-- Node5&#45;&gt;Node18 -->
<g id="edge18" class="edge">
<title>Node5&#45;&gt;Node18</title>
<path fill="none" stroke="#191970" d="M1712.1121,-61.5164C1632.915,-54.8115 1435.9855,-37.7471 1260.5478,-19.1717"/>
<polygon fill="#191970" stroke="#191970" points="1260.67,-15.665 1250.356,-18.0882 1259.9299,-22.6258 1260.67,-15.665"/>
</g>
<!-- Node19 -->
<g id="node20" class="node">
<title>Node19</title>
<polygon fill="#ffffff" stroke="#bfbfbf" points="1267.9092,-.5 1267.9092,-18.5 1409.5537,-18.5 1409.5537,-.5 1267.9092,-.5"/>
<text text-anchor="middle" x="1338.7314" y="-6.5" font-family="Helvetica,sans-Serif" font-size="10.00" fill="#000000">Epetra_SerialDenseVector.h</text>
</g>
<!-- Node5&#45;&gt;Node19 -->
<g id="edge19" class="edge">
<title>Node5&#45;&gt;Node19</title>
<path fill="none" stroke="#191970" d="M1712.1509,-59.7153C1646.3719,-50.8697 1504.381,-31.7756 1415.6817,-19.8478"/>
<polygon fill="#191970" stroke="#191970" points="1416.0486,-16.3657 1405.6713,-18.5017 1415.1156,-23.3033 1416.0486,-16.3657"/>
</g>
<!-- Node20 -->
<g id="node21" class="node">
<title>Node20</title>
<polygon fill="#ffffff" stroke="#bfbfbf" points="1427.3501,-.5 1427.3501,-18.5 1580.1128,-18.5 1580.1128,-.5 1427.3501,-.5"/>
<text text-anchor="middle" x="1503.7314" y="-6.5" font-family="Helvetica,sans-Serif" font-size="10.00" fill="#000000">Epetra_IntSerialDenseVector.h</text>
</g>
<!-- Node5&#45;&gt;Node20 -->
<g id="edge20" class="edge">
<title>Node5&#45;&gt;Node20</title>
<path fill="none" stroke="#191970" d="M1711.9904,-56.4436C1670.3079,-47.048 1601.1212,-31.4526 1554.0289,-20.8375"/>
<polygon fill="#191970" stroke="#191970" points="1554.564,-17.3704 1544.0391,-18.5857 1553.0247,-24.1991 1554.564,-17.3704"/>
</g>
<!-- Node21 -->
<g id="node22" class="node">
<title>Node21</title>
<polygon fill="#ffffff" stroke="#bfbfbf" points="1597.8794,-.5 1597.8794,-18.5 1685.5835,-18.5 1685.5835,-.5 1597.8794,-.5"/>
<text text-anchor="middle" x="1641.7314" y="-6.5" font-family="Helvetica,sans-Serif" font-size="10.00" fill="#000000">Epetra_Import.h</text>
</g>
<!-- Node5&#45;&gt;Node21 -->
<g id="edge21" class="edge">
<title>Node5&#45;&gt;Node21</title>
<path fill="none" stroke="#191970" d="M1730.2277,-55.4179C1713.3495,-46.6603 1687.5827,-33.2907 1668.1978,-23.2326"/>
<polygon fill="#191970" stroke="#191970" points="1669.7495,-20.0946 1659.2612,-18.5956 1666.5255,-26.308 1669.7495,-20.0946"/>
</g>
<!-- Node22 -->
<g id="node23" class="node">
<title>Node22</title>
<polygon fill="#ffffff" stroke="#bfbfbf" points="1703.5986,-.5 1703.5986,-18.5 1791.8643,-18.5 1791.8643,-.5 1703.5986,-.5"/>
<text text-anchor="middle" x="1747.7314" y="-6.5" font-family="Helvetica,sans-Serif" font-size="10.00" fill="#000000">Epetra_Export.h</text>
</g>
<!-- Node5&#45;&gt;Node22 -->
<g id="edge22" class="edge">
<title>Node5&#45;&gt;Node22</title>
<path fill="none" stroke="#191970" d="M1747.7314,-55.4179C1747.7314,-48.2164 1747.7314,-37.8962 1747.7314,-28.8632"/>
<polygon fill="#191970" stroke="#191970" points="1751.2315,-28.7794 1747.7314,-18.7795 1744.2315,-28.7795 1751.2315,-28.7794"/>
</g>
<!-- Node23 -->
<g id="node24" class="node">
<title>Node23</title>
<polygon fill="#ffffff" stroke="#bfbfbf" points="1810.1216,-.5 1810.1216,-18.5 1891.3413,-18.5 1891.3413,-.5 1810.1216,-.5"/>
<text text-anchor="middle" x="1850.7314" y="-6.5" font-family="Helvetica,sans-Serif" font-size="10.00" fill="#000000">Epetra_Time.h</text>
</g>
<!-- Node5&#45;&gt;Node23 -->
<g id="edge23" class="edge">
<title>Node5&#45;&gt;Node23</title>
<path fill="none" stroke="#191970" d="M1764.7398,-55.4179C1781.0658,-46.7001 1805.9504,-33.4122 1824.7569,-23.3699"/>
<polygon fill="#191970" stroke="#191970" points="1826.5253,-26.3934 1833.6978,-18.5956 1823.228,-20.2186 1826.5253,-26.3934"/>
</g>
<!-- Node24 -->
<g id="node25" class="node">
<title>Node24</title>
<polygon fill="#ffffff" stroke="#bfbfbf" points="1909.0273,-.5 1909.0273,-18.5 2058.4355,-18.5 2058.4355,-.5 1909.0273,-.5"/>
<text text-anchor="middle" x="1983.7314" y="-6.5" font-family="Helvetica,sans-Serif" font-size="10.00" fill="#000000">ml_MultiLevelPreconditioner.h</text>
</g>
<!-- Node5&#45;&gt;Node24 -->
<g id="edge24" class="edge">
<title>Node5&#45;&gt;Node24</title>
<path fill="none" stroke="#191970" d="M1783.3186,-56.2064C1823.7816,-46.7764 1890.0678,-31.3284 1935.2383,-20.8014"/>
<polygon fill="#191970" stroke="#191970" points="1936.1599,-24.1805 1945.1045,-18.502 1934.571,-17.3632 1936.1599,-24.1805"/>
</g>
<!-- Node25 -->
<g id="node26" class="node">
<title>Node25</title>
<polygon fill="#ffffff" stroke="#bfbfbf" points="2076.6553,-.5 2076.6553,-18.5 2168.8076,-18.5 2168.8076,-.5 2076.6553,-.5"/>
<text text-anchor="middle" x="2122.7314" y="-6.5" font-family="Helvetica,sans-Serif" font-size="10.00" fill="#000000">ml_epetra_utils.h</text>
</g>
<!-- Node5&#45;&gt;Node25 -->
<g id="edge25" class="edge">
<title>Node5&#45;&gt;Node25</title>
<path fill="none" stroke="#191970" d="M1783.298,-59.7952C1840.6314,-52.1344 1957.287,-36.2316 2066.3448,-19.1822"/>
<polygon fill="#191970" stroke="#191970" points="2067.1984,-22.5911 2076.5344,-17.5822 2066.1126,-15.6758 2067.1984,-22.5911"/>
</g>
<!-- Node26 -->
<g id="node27" class="node">
<title>Node26</title>
<polygon fill="#ffffff" stroke="#bfbfbf" points="2186.6602,-.5 2186.6602,-18.5 2258.8027,-18.5 2258.8027,-.5 2186.6602,-.5"/>
<text text-anchor="middle" x="2222.7314" y="-6.5" font-family="Helvetica,sans-Serif" font-size="10.00" fill="#000000">ml_include.h</text>
</g>
<!-- Node5&#45;&gt;Node26 -->
<g id="edge26" class="edge">
<title>Node5&#45;&gt;Node26</title>
<path fill="none" stroke="#191970" d="M1783.2884,-61.9795C1855.5167,-56.5925 2024.7359,-42.6149 2176.4732,-19.0605"/>
<polygon fill="#191970" stroke="#191970" points="2177.1055,-22.5042 2186.4414,-17.4951 2176.0195,-15.5889 2177.1055,-22.5042"/>
</g>
<!-- Node27 -->
<g id="node28" class="node">
<title>Node27</title>
<polygon fill="#ffffff" stroke="#bfbfbf" points="2277.1528,-.5 2277.1528,-18.5 2414.3101,-18.5 2414.3101,-.5 2277.1528,-.5"/>
<text text-anchor="middle" x="2345.7314" y="-6.5" font-family="Helvetica,sans-Serif" font-size="10.00" fill="#000000">EpetraExt_RowMatrixOut.h</text>
</g>
<!-- Node5&#45;&gt;Node27 -->
<g id="edge27" class="edge">
<title>Node5&#45;&gt;Node27</title>
<path fill="none" stroke="#191970" d="M1783.3922,-61.799C1866.2197,-55.4356 2078.2631,-38.6282 2266.7483,-19.0712"/>
<polygon fill="#191970" stroke="#191970" points="2267.2592,-22.537 2276.8423,-18.0189 2266.5333,-15.5748 2267.2592,-22.537"/>
</g>
<!-- Node28 -->
<g id="node29" class="node">
<title>Node28</title>
<polygon fill="#ffffff" stroke="#bfbfbf" points="2432.0322,-.5 2432.0322,-18.5 2571.4307,-18.5 2571.4307,-.5 2432.0322,-.5"/>
<text text-anchor="middle" x="2501.7314" y="-6.5" font-family="Helvetica,sans-Serif" font-size="10.00" fill="#000000">EpetraExt_MultiVectorOut.h</text>
</g>
<!-- Node5&#45;&gt;Node28 -->
<g id="edge28" class="edge">
<title>Node5&#45;&gt;Node28</title>
<path fill="none" stroke="#191970" d="M1783.3337,-62.7826C1882.6756,-57.846 2171.5228,-42.5084 2421.993,-19.1224"/>
<polygon fill="#191970" stroke="#191970" points="2422.382,-22.6014 2432.0105,-18.1808 2421.7268,-15.6321 2422.382,-22.6014"/>
</g>
<!-- Node29 -->
<g id="node30" class="node">
<title>Node29</title>
<polygon fill="#ffffff" stroke="#bfbfbf" points="2589.478,-.5 2589.478,-18.5 2699.9849,-18.5 2699.9849,-.5 2589.478,-.5"/>
<text text-anchor="middle" x="2644.7314" y="-6.5" font-family="Helvetica,sans-Serif" font-size="10.00" fill="#000000">EpetraExt_VectorIn.h</text>
</g>
<!-- Node5&#45;&gt;Node29 -->
<g id="edge29" class="edge">
<title>Node5&#45;&gt;Node29</title>
<path fill="none" stroke="#191970" d="M1783.6768,-62.7342C1928.2466,-55.6061 2464.6027,-28.9022 2579.2479,-18.9878"/>
<polygon fill="#191970" stroke="#191970" points="2579.6356,-22.4669 2589.2679,-18.0545 2578.9864,-15.497 2579.6356,-22.4669"/>
</g>
<!-- Node30 -->
<g id="node31" class="node">
<title>Node30</title>
<polygon fill="#ffffff" stroke="#bfbfbf" points="2717.9214,-.5 2717.9214,-18.5 2849.5415,-18.5 2849.5415,-.5 2717.9214,-.5"/>
<text text-anchor="middle" x="2783.7314" y="-6.5" font-family="Helvetica,sans-Serif" font-size="10.00" fill="#000000">EpetraExt_MultiVectorIn.h</text>
</g>
<!-- Node5&#45;&gt;Node30 -->
<g id="edge30" class="edge">
<title>Node5&#45;&gt;Node30</title>
<path fill="none" stroke="#191970" d="M1783.3021,-62.8182C1946.2576,-55.1133 2617.1183,-23.3903 2707.8538,-18.695"/>
<polygon fill="#191970" stroke="#191970" points="2708.123,-22.1856 2717.9127,-18.1345 2707.7334,-15.1964 2708.123,-22.1856"/>
</g>
<!-- Node5&#45;&gt;Node31 -->
<g id="edge31" class="edge">
<title>Node5&#45;&gt;Node31</title>
<path fill="none" stroke="#191970" d="M1783.3044,-62.5984C1823.4692,-60.5026 1890.7794,-57.1449 1948.7314,-55 2542.9586,-33.0071 2696.6137,-74.1869 3293.3861,-18.8685"/>
<polygon fill="#191970" stroke="#191970" points="3293.9065,-22.3353 3303.5385,-17.9221 3293.2567,-15.3655 3293.9065,-22.3353"/>
</g>
<!-- Node32 -->
<g id="node33" class="node">
<title>Node32</title>
<polygon fill="#ffffff" stroke="#bfbfbf" points="2867.5,-.5 2867.5,-18.5 2927.9629,-18.5 2927.9629,-.5 2867.5,-.5"/>
<text text-anchor="middle" x="2897.7314" y="-6.5" font-family="Helvetica,sans-Serif" font-size="10.00" fill="#000000">Amesos.h</text>
</g>
<!-- Node5&#45;&gt;Node32 -->
<g id="edge32" class="edge">
<title>Node5&#45;&gt;Node32</title>
<path fill="none" stroke="#191970" d="M1783.3099,-62.7357C1823.4797,-60.7629 1890.7943,-57.5151 1948.7314,-55 2349.7547,-37.591 2456.1278,-74.5536 2857.0563,-18.9658"/>
<polygon fill="#191970" stroke="#191970" points="2857.7667,-22.4006 2867.1862,-17.5504 2856.798,-15.468 2857.7667,-22.4006"/>
</g>
<!-- Node33 -->
<g id="node34" class="node">
<title>Node33</title>
<polygon fill="#ffffff" stroke="#bfbfbf" points="2946.2783,-.5 2946.2783,-18.5 3011.1846,-18.5 3011.1846,-.5 2946.2783,-.5"/>
<text text-anchor="middle" x="2978.7314" y="-6.5" font-family="Helvetica,sans-Serif" font-size="10.00" fill="#000000">AztecOO.h</text>
</g>
<!-- Node5&#45;&gt;Node33 -->
<g id="edge33" class="edge">
<title>Node5&#45;&gt;Node33</title>
<path fill="none" stroke="#191970" d="M1783.3085,-62.7022C1823.4769,-60.6994 1890.7904,-57.4248 1948.7314,-55 2384.427,-36.7665 2499.2715,-75.1267 2935.7775,-18.8563"/>
<polygon fill="#191970" stroke="#191970" points="2936.3543,-22.3109 2945.8204,-17.5523 2935.4529,-15.3691 2936.3543,-22.3109"/>
</g>
<!-- Node34 -->
<g id="node35" class="node">
<title>Node34</title>
<polygon fill="#ffffff" stroke="#bfbfbf" points="3029.4238,-.5 3029.4238,-18.5 3146.0391,-18.5 3146.0391,-.5 3029.4238,-.5"/>
<text text-anchor="middle" x="3087.7314" y="-6.5" font-family="Helvetica,sans-Serif" font-size="10.00" fill="#000000">Amesos_BaseSolver.h</text>
</g>
<!-- Node5&#45;&gt;Node34 -->
<g id="edge34" class="edge">
<title>Node5&#45;&gt;Node34</title>
<path fill="none" stroke="#191970" d="M1783.3072,-62.6719C1823.4746,-60.642 1890.7871,-57.3431 1948.7314,-55 2421.2421,-35.8932 2543.5053,-59.6643 3018.9458,-18.9604"/>
<polygon fill="#191970" stroke="#191970" points="3019.5077,-22.425 3029.1704,-18.0798 3018.9069,-15.4508 3019.5077,-22.425"/>
</g>
<!-- Node35 -->
<g id="node36" class="node">
<title>Node35</title>
<polygon fill="#ffffff" stroke="#bfbfbf" points="3163.6157,-.5 3163.6157,-18.5 3211.8472,-18.5 3211.8472,-.5 3163.6157,-.5"/>
<text text-anchor="middle" x="3187.7314" y="-6.5" font-family="Helvetica,sans-Serif" font-size="10.00" fill="#000000">metis.h</text>
</g>
<!-- Node5&#45;&gt;Node35 -->
<g id="edge35" class="edge">
<title>Node5&#45;&gt;Node35</title>
<path fill="none" stroke="#191970" d="M1783.3056,-62.6315C1823.4716,-60.5654 1890.7828,-57.2342 1948.7314,-55 2213.3813,-44.7966 2873.4547,-60.0306 3153.1816,-18.8025"/>
<polygon fill="#191970" stroke="#191970" points="3154.0182,-22.2154 3163.3763,-17.2479 3152.963,-15.2954 3154.0182,-22.2154"/>
</g>
<!-- Node36 -->
<g id="node37" class="node">
<title>Node36</title>
<g id="a_node37"><a xlink:href="../../d4/dbc/fepp_8hpp.html" target="_top" xlink:title="fepp.hpp">
<polygon fill="#ffffff" stroke="#000000" points="3230.2686,-.5 3230.2686,-18.5 3285.1943,-18.5 3285.1943,-.5 3230.2686,-.5"/>
<text text-anchor="middle" x="3257.7314" y="-6.5" font-family="Helvetica,sans-Serif" font-size="10.00" fill="#000000">fepp.hpp</text>
</a>
</g>
</g>
<!-- Node5&#45;&gt;Node36 -->
<g id="edge36" class="edge">
<title>Node5&#45;&gt;Node36</title>
<path fill="none" stroke="#191970" d="M1783.5169,-62.2456C1822.1439,-60.1548 1885.0975,-57.064 1939.7314,-55 2222.3097,-44.3244 2931.7109,-58.4071 3211.7314,-19 3214.502,-18.6101 3217.3642,-18.0907 3220.253,-17.4951"/>
<polygon fill="#191970" stroke="#191970" points="3221.1103,-20.8895 3230.0819,-15.2539 3219.554,-14.0647 3221.1103,-20.8895"/>
</g>
<!-- Node36&#45;&gt;Node5 -->
<g id="edge37" class="edge">
<title>Node36&#45;&gt;Node5</title>
<path fill="none" stroke="#191970" d="M3232.9153,-18.5034C3231.8462,-18.6856 3230.7822,-18.8521 3229.7314,-19 2949.7109,-58.4071 2240.3097,-44.3244 1957.7314,-55 1901.4539,-57.1261 1836.3487,-60.3417 1793.603,-62.4315"/>
<polygon fill="#191970" stroke="#191970" points="1793.3205,-58.9411 1783.503,-62.9243 1793.6617,-65.9328 1793.3205,-58.9411"/>
</g>
<!-- Node38 -->
<g id="node39" class="node">
<title>Node38</title>
<g id="a_node39"><a xlink:href="../../d9/dea/_linear___finite___element___problem_8hpp.html" target="_top" xlink:title="Linear_Finite_Element\l_Problem.hpp">
<polygon fill="#ffffff" stroke="#000000" points="1818.7021,-165.5 1818.7021,-193.5 1934.7607,-193.5 1934.7607,-165.5 1818.7021,-165.5"/>
<text text-anchor="start" x="1826.7021" y="-181.5" font-family="Helvetica,sans-Serif" font-size="10.00" fill="#000000">Linear_Finite_Element</text>
<text text-anchor="middle" x="1876.7314" y="-171.5" font-family="Helvetica,sans-Serif" font-size="10.00" fill="#000000">_Problem.hpp</text>
</a>
</g>
</g>
<!-- Node37&#45;&gt;Node38 -->
<g id="edge39" class="edge">
<title>Node37&#45;&gt;Node38</title>
<path fill="none" stroke="#191970" d="M1878.2975,-230.396C1878.059,-222.6448 1877.7564,-212.8122 1877.481,-203.8601"/>
<polygon fill="#191970" stroke="#191970" points="1880.9706,-203.4641 1877.1646,-193.5765 1873.9739,-203.6795 1880.9706,-203.4641"/>
</g>
<!-- Node39 -->
<g id="node40" class="node">
<title>Node39</title>
<g id="a_node40"><a xlink:href="../../d0/d41/_base_class_f_e_m_8hpp.html" target="_top" xlink:title="BaseClassFEM.hpp">
<polygon fill="#ffffff" stroke="#000000" points="1800.5469,-110.5 1800.5469,-128.5 1904.916,-128.5 1904.916,-110.5 1800.5469,-110.5"/>
<text text-anchor="middle" x="1852.7314" y="-116.5" font-family="Helvetica,sans-Serif" font-size="10.00" fill="#000000">BaseClassFEM.hpp</text>
</a>
</g>
</g>
<!-- Node38&#45;&gt;Node39 -->
<g id="edge40" class="edge">
<title>Node38&#45;&gt;Node39</title>
<path fill="none" stroke="#191970" d="M1871.0438,-165.2808C1867.7759,-157.1112 1863.635,-146.7588 1860.1178,-137.9658"/>
<polygon fill="#191970" stroke="#191970" points="1863.3288,-136.5691 1856.3651,-128.5842 1856.8294,-139.1689 1863.3288,-136.5691"/>
</g>
<!-- Node39&#45;&gt;Node5 -->
<g id="edge41" class="edge">
<title>Node39&#45;&gt;Node5</title>
<path fill="none" stroke="#191970" d="M1835.3928,-110.4179C1818.7498,-101.7001 1793.382,-88.4122 1774.2104,-78.3699"/>
<polygon fill="#191970" stroke="#191970" points="1775.5782,-75.1353 1765.0958,-73.5956 1772.3301,-81.3362 1775.5782,-75.1353"/>
</g>
</g>
</svg>
