<?xml version="1.0" encoding="UTF-8" standalone="no"?>
<!DOCTYPE svg PUBLIC "-//W3C//DTD SVG 1.1//EN"
 "http://www.w3.org/Graphics/SVG/1.1/DTD/svg11.dtd">
<!-- Generated by graphviz version 2.40.1 (20161225.0304)
 -->
<!-- Title: baseClassFEM Pages: 1 -->
<!--zoomable 434 -->
<svg id="main" version="1.1" xmlns="http://www.w3.org/2000/svg" xmlns:xlink="http://www.w3.org/1999/xlink" xml:space="preserve" onload="init(evt)">
<style type="text/css"><![CDATA[
.edge:hover path { stroke: red; }
.edge:hover polygon { stroke: red; fill: red; }
]]></style>
<script type="text/javascript"><![CDATA[
var edges = document.getElementsByTagName('g');
if (edges && edges.length) {
  for (var i=0;i<edges.length;i++) {
    if (edges[i].id.substr(0,4)=='edge') {
      edges[i].setAttribute('class','edge');
    }
  }
}
]]></script>
        <defs>
                <circle id="rim" cx="0" cy="0" r="7"/>
                <circle id="rim2" cx="0" cy="0" r="3.5"/>
                <g id="zoomPlus">
                        <use xlink:href="#rim" fill="#404040">
                                <set attributeName="fill" to="#808080" begin="zoomplus.mouseover" end="zoomplus.mouseout"/>
                        </use>
                        <path d="M-4,0h8M0,-4v8" fill="none" stroke="white" stroke-width="1.5" pointer-events="none"/>
                </g>
                <g id="zoomMin">
                        <use xlink:href="#rim" fill="#404040">
                                <set attributeName="fill" to="#808080" begin="zoomminus.mouseover" end="zoomminus.mouseout"/>
                        </use>
                        <path d="M-4,0h8" fill="none" stroke="white" stroke-width="1.5" pointer-events="none"/>
                </g>
                <g id="dirArrow">
                        <path fill="none" stroke="white" stroke-width="1.5" d="M0,-3.0v7 M-2.5,-0.5L0,-3.0L2.5,-0.5"/>
                </g>
               <g id="resetDef">
                       <use xlink:href="#rim2" fill="#404040">
                               <set attributeName="fill" to="#808080" begin="reset.mouseover" end="reset.mouseout"/>
                       </use>
               </g>
        </defs>

<script type="text/javascript">
var viewWidth = 805;
var viewHeight = 434;
var sectionId = 'dynsection-0';
</script>
<script xlink:href="../../svgpan.js"/>
<svg id="graph" class="graph">
<g id="viewport">
<title>baseClassFEM</title>
<polygon fill="#ffffff" stroke="transparent" points="-4,4 -4,-429.5 801,-429.5 801,4 -4,4"/>
<!-- Node0 -->
<g id="node1" class="node">
<title>Node0</title>
<polygon fill="#bfbfbf" stroke="#000000" points="0,-292 0,-311 84,-311 84,-292 0,-292"/>
<text text-anchor="middle" x="42" y="-299" font-family="Helvetica,sans-Serif" font-size="10.00" fill="#000000">baseClassFEM</text>
</g>
<!-- Node1 -->
<g id="node2" class="node">
<title>Node1</title>
<g id="a_node2"><a xlink:href="../../dc/d01/classlinear_finite_element_problem.html" target="_top" xlink:title="linearFiniteElementProblem">
<polygon fill="#ffffff" stroke="#000000" points="129.5,-330 129.5,-349 265.5,-349 265.5,-330 129.5,-330"/>
<text text-anchor="middle" x="197.5" y="-337" font-family="Helvetica,sans-Serif" font-size="10.00" fill="#000000">linearFiniteElementProblem</text>
</a>
</g>
</g>
<!-- Node0&#45;&gt;Node1 -->
<g id="edge1" class="edge">
<title>Node0&#45;&gt;Node1</title>
<path fill="none" stroke="#191970" d="M90.9742,-313.468C112.7652,-318.7931 138.0672,-324.9762 158.543,-329.9799"/>
<polygon fill="#191970" stroke="#191970" points="91.7843,-310.063 81.2392,-311.089 90.1225,-316.8629 91.7843,-310.063"/>
</g>
<!-- Node8 -->
<g id="node9" class="node">
<title>Node8</title>
<g id="a_node9"><a xlink:href="../../d3/d5b/classnon_linear_finite_element_problem.html" target="_top" xlink:title="nonLinearFiniteElementProblem">
<polygon fill="#ffffff" stroke="#000000" points="120,-273 120,-292 275,-292 275,-273 120,-273"/>
<text text-anchor="middle" x="197.5" y="-280" font-family="Helvetica,sans-Serif" font-size="10.00" fill="#000000">nonLinearFiniteElementProblem</text>
</a>
</g>
</g>
<!-- Node0&#45;&gt;Node8 -->
<g id="edge8" class="edge">
<title>Node0&#45;&gt;Node8</title>
<path fill="none" stroke="#191970" d="M94.2269,-295.1186C102.4431,-294.1147 111.0871,-293.0585 119.7313,-292.0023"/>
<polygon fill="#191970" stroke="#191970" points="93.5822,-291.6712 84.0805,-296.3583 94.4312,-298.6196 93.5822,-291.6712"/>
</g>
<!-- Node2 -->
<g id="node3" class="node">
<title>Node2</title>
<g id="a_node3"><a xlink:href="../../d7/d76/classlaplace.html" target="_top" xlink:title="laplace">
<polygon fill="#ffffff" stroke="#000000" points="336.5,-368 336.5,-387 383.5,-387 383.5,-368 336.5,-368"/>
<text text-anchor="middle" x="360" y="-375" font-family="Helvetica,sans-Serif" font-size="10.00" fill="#000000">laplace</text>
</a>
</g>
</g>
<!-- Node1&#45;&gt;Node2 -->
<g id="edge2" class="edge">
<title>Node1&#45;&gt;Node2</title>
<path fill="none" stroke="#191970" d="M248.5783,-351.4445C277.8597,-358.2918 313.2349,-366.5641 336.1535,-371.9236"/>
<polygon fill="#191970" stroke="#191970" points="249.0399,-347.9581 238.5056,-349.089 247.4459,-354.7742 249.0399,-347.9581"/>
</g>
<!-- Node3 -->
<g id="node4" class="node">
<title>Node3</title>
<g id="a_node4"><a xlink:href="../../d4/dfd/classlinearized_elasticity.html" target="_top" xlink:title="linearizedElasticity">
<polygon fill="#ffffff" stroke="#000000" points="311,-330 311,-349 409,-349 409,-330 311,-330"/>
<text text-anchor="middle" x="360" y="-337" font-family="Helvetica,sans-Serif" font-size="10.00" fill="#000000">linearizedElasticity</text>
</a>
</g>
</g>
<!-- Node1&#45;&gt;Node3 -->
<g id="edge3" class="edge">
<title>Node1&#45;&gt;Node3</title>
<path fill="none" stroke="#191970" d="M276.2699,-339.5C288.0694,-339.5 299.9388,-339.5 310.8812,-339.5"/>
<polygon fill="#191970" stroke="#191970" points="275.9437,-336.0001 265.9437,-339.5 275.9436,-343.0001 275.9437,-336.0001"/>
</g>
<!-- Node4 -->
<g id="node5" class="node">
<title>Node4</title>
<g id="a_node5"><a xlink:href="../../dd/d60/classasme_s_b_v_p.html" target="_top" xlink:title="asmeSBVP">
<polygon fill="#ffffff" stroke="#000000" points="498,-406 498,-425 566,-425 566,-406 498,-406"/>
<text text-anchor="middle" x="532" y="-413" font-family="Helvetica,sans-Serif" font-size="10.00" fill="#000000">asmeSBVP</text>
</a>
</g>
</g>
<!-- Node3&#45;&gt;Node4 -->
<g id="edge4" class="edge">
<title>Node3&#45;&gt;Node4</title>
<path fill="none" stroke="#191970" d="M400.1972,-353.3578C403.2622,-354.9309 406.2349,-356.6439 409,-358.5 428.3163,-371.4659 424.7384,-385.0674 445,-396.5 461.0229,-405.5409 480.9485,-410.2821 497.6862,-412.7674"/>
<polygon fill="#191970" stroke="#191970" points="401.389,-350.0536 390.8413,-349.0555 398.4644,-356.4134 401.389,-350.0536"/>
</g>
<!-- Node5 -->
<g id="node6" class="node">
<title>Node5</title>
<g id="a_node6"><a xlink:href="../../d2/d17/classcee_s_b_v_p.html" target="_top" xlink:title="ceeSBVP">
<polygon fill="#ffffff" stroke="#000000" points="502.5,-368 502.5,-387 561.5,-387 561.5,-368 502.5,-368"/>
<text text-anchor="middle" x="532" y="-375" font-family="Helvetica,sans-Serif" font-size="10.00" fill="#000000">ceeSBVP</text>
</a>
</g>
</g>
<!-- Node3&#45;&gt;Node5 -->
<g id="edge5" class="edge">
<title>Node3&#45;&gt;Node5</title>
<path fill="none" stroke="#191970" d="M412.1496,-351.1993C423.0045,-353.6226 434.3738,-356.1521 445,-358.5 464.021,-362.7029 485.3938,-367.3713 502.1956,-371.0288"/>
<polygon fill="#191970" stroke="#191970" points="412.8843,-347.7772 402.3616,-349.0119 411.3575,-354.6087 412.8843,-347.7772"/>
</g>
<!-- Node6 -->
<g id="node7" class="node">
<title>Node6</title>
<g id="a_node7"><a xlink:href="../../d2/d69/classlinear_patch_test.html" target="_top" xlink:title="linearPatchTest">
<polygon fill="#ffffff" stroke="#000000" points="489.5,-330 489.5,-349 574.5,-349 574.5,-330 489.5,-330"/>
<text text-anchor="middle" x="532" y="-337" font-family="Helvetica,sans-Serif" font-size="10.00" fill="#000000">linearPatchTest</text>
</a>
</g>
</g>
<!-- Node3&#45;&gt;Node6 -->
<g id="edge6" class="edge">
<title>Node3&#45;&gt;Node6</title>
<path fill="none" stroke="#191970" d="M419.3134,-339.5C442.3708,-339.5 468.2692,-339.5 489.4184,-339.5"/>
<polygon fill="#191970" stroke="#191970" points="419.2883,-336.0001 409.2883,-339.5 419.2883,-343.0001 419.2883,-336.0001"/>
</g>
<!-- Node7 -->
<g id="node8" class="node">
<title>Node7</title>
<g id="a_node8"><a xlink:href="../../d7/da3/classmanufactured.html" target="_top" xlink:title="manufactured">
<polygon fill="#ffffff" stroke="#000000" points="494,-292 494,-311 570,-311 570,-292 494,-292"/>
<text text-anchor="middle" x="532" y="-299" font-family="Helvetica,sans-Serif" font-size="10.00" fill="#000000">manufactured</text>
</a>
</g>
</g>
<!-- Node3&#45;&gt;Node7 -->
<g id="edge7" class="edge">
<title>Node3&#45;&gt;Node7</title>
<path fill="none" stroke="#191970" d="M412.1496,-327.8007C423.0045,-325.3774 434.3738,-322.8479 445,-320.5 461.0018,-316.9643 478.6681,-313.099 493.8769,-309.7834"/>
<polygon fill="#191970" stroke="#191970" points="411.3575,-324.3913 402.3616,-329.9881 412.8843,-331.2228 411.3575,-324.3913"/>
</g>
<!-- Node9 -->
<g id="node10" class="node">
<title>Node9</title>
<g id="a_node10"><a xlink:href="../../dc/d5a/classhyperelasticity.html" target="_top" xlink:title="hyperelasticity">
<polygon fill="#ffffff" stroke="#000000" points="320,-254 320,-273 400,-273 400,-254 320,-254"/>
<text text-anchor="middle" x="360" y="-261" font-family="Helvetica,sans-Serif" font-size="10.00" fill="#000000">hyperelasticity</text>
</a>
</g>
</g>
<!-- Node8&#45;&gt;Node9 -->
<g id="edge9" class="edge">
<title>Node8&#45;&gt;Node9</title>
<path fill="none" stroke="#191970" d="M285.4676,-272.2146C297.4037,-270.8189 309.1452,-269.4461 319.6521,-268.2176"/>
<polygon fill="#191970" stroke="#191970" points="284.9442,-268.7518 275.4183,-273.3896 285.7571,-275.7045 284.9442,-268.7518"/>
</g>
<!-- Node10 -->
<g id="node11" class="node">
<title>Node10</title>
<g id="a_node11"><a xlink:href="../../d1/d5c/classcompressible_hyperelasticity.html" target="_top" xlink:title="compressibleHyperelasticity">
<polygon fill="#ffffff" stroke="#000000" points="462,-254 462,-273 602,-273 602,-254 462,-254"/>
<text text-anchor="middle" x="532" y="-261" font-family="Helvetica,sans-Serif" font-size="10.00" fill="#000000">compressibleHyperelasticity</text>
</a>
</g>
</g>
<!-- Node9&#45;&gt;Node10 -->
<g id="edge10" class="edge">
<title>Node9&#45;&gt;Node10</title>
<path fill="none" stroke="#191970" d="M410.5775,-263.5C426.6621,-263.5 444.7499,-263.5 461.9548,-263.5"/>
<polygon fill="#191970" stroke="#191970" points="410.3264,-260.0001 400.3264,-263.5 410.3263,-267.0001 410.3264,-260.0001"/>
</g>
<!-- Node16 -->
<g id="node17" class="node">
<title>Node16</title>
<g id="a_node17"><a xlink:href="../../d0/d85/classnearly_incompressible_hyperelasticity.html" target="_top" xlink:title="nearlyIncompressibleHyperelasticity">
<polygon fill="#ffffff" stroke="#000000" points="445,-104 445,-123 619,-123 619,-104 445,-104"/>
<text text-anchor="middle" x="532" y="-111" font-family="Helvetica,sans-Serif" font-size="10.00" fill="#000000">nearlyIncompressibleHyperelasticity</text>
</a>
</g>
</g>
<!-- Node9&#45;&gt;Node16 -->
<g id="edge16" class="edge">
<title>Node9&#45;&gt;Node16</title>
<path fill="none" stroke="#191970" d="M378.8123,-247.094C414.7177,-215.7811 492.0087,-148.3761 520.8482,-123.2254"/>
<polygon fill="#191970" stroke="#191970" points="376.2572,-244.6782 371.021,-253.8886 380.8581,-249.9538 376.2572,-244.6782"/>
</g>
<!-- Node11 -->
<g id="node12" class="node">
<title>Node11</title>
<g id="a_node12"><a xlink:href="../../df/d4f/classcompressible_hyperelasticity__linear_patch_test.html" target="_top" xlink:title="compressibleHyperelasticity\l_linearPatchTest">
<polygon fill="#ffffff" stroke="#000000" points="656,-349.5 656,-379.5 796,-379.5 796,-349.5 656,-349.5"/>
<text text-anchor="start" x="664" y="-367.5" font-family="Helvetica,sans-Serif" font-size="10.00" fill="#000000">compressibleHyperelasticity</text>
<text text-anchor="middle" x="726" y="-356.5" font-family="Helvetica,sans-Serif" font-size="10.00" fill="#000000">_linearPatchTest</text>
</a>
</g>
</g>
<!-- Node10&#45;&gt;Node11 -->
<g id="edge11" class="edge">
<title>Node10&#45;&gt;Node11</title>
<path fill="none" stroke="#191970" d="M610.41,-277.3186C613.3994,-278.8713 616.2779,-280.5924 619,-282.5 643.5376,-299.6954 631.5707,-320.8226 655,-339.5 659.8027,-343.3286 665.2352,-346.5941 670.9041,-349.3742"/>
<polygon fill="#191970" stroke="#191970" points="611.7094,-274.0653 601.1543,-273.1485 608.8339,-280.4474 611.7094,-274.0653"/>
</g>
<!-- Node12 -->
<g id="node13" class="node">
<title>Node12</title>
<g id="a_node13"><a xlink:href="../../d1/dbe/classmanufactured_solution.html" target="_top" xlink:title="manufacturedSolution">
<polygon fill="#ffffff" stroke="#000000" points="670.5,-311 670.5,-330 781.5,-330 781.5,-311 670.5,-311"/>
<text text-anchor="middle" x="726" y="-318" font-family="Helvetica,sans-Serif" font-size="10.00" fill="#000000">manufacturedSolution</text>
</a>
</g>
</g>
<!-- Node10&#45;&gt;Node12 -->
<g id="edge12" class="edge">
<title>Node10&#45;&gt;Node12</title>
<path fill="none" stroke="#191970" d="M596.2723,-275.4648C604.0204,-277.5129 611.7508,-279.8512 619,-282.5 635.9928,-288.709 638.156,-294.8979 655,-301.5 664.2665,-305.132 674.4775,-308.3147 684.1972,-310.9846"/>
<polygon fill="#191970" stroke="#191970" points="597.033,-272.0474 586.4833,-273.0242 595.3395,-278.8395 597.033,-272.0474"/>
</g>
<!-- Node13 -->
<g id="node14" class="node">
<title>Node13</title>
<g id="a_node14"><a xlink:href="../../dd/d20/classrubberblock.html" target="_top" xlink:title="rubberblock">
<polygon fill="#ffffff" stroke="#000000" points="692.5,-273 692.5,-292 759.5,-292 759.5,-273 692.5,-273"/>
<text text-anchor="middle" x="726" y="-280" font-family="Helvetica,sans-Serif" font-size="10.00" fill="#000000">rubberblock</text>
</a>
</g>
</g>
<!-- Node10&#45;&gt;Node13 -->
<g id="edge13" class="edge">
<title>Node10&#45;&gt;Node13</title>
<path fill="none" stroke="#191970" d="M612.2758,-271.3621C640.349,-274.1115 670.3492,-277.0497 692.4845,-279.2176"/>
<polygon fill="#191970" stroke="#191970" points="612.332,-267.8509 602.0385,-270.3594 611.6497,-274.8176 612.332,-267.8509"/>
</g>
<!-- Node14 -->
<g id="node15" class="node">
<title>Node14</title>
<g id="a_node15"><a xlink:href="../../d8/d82/classti_mooney.html" target="_top" xlink:title="tiMooney">
<polygon fill="#ffffff" stroke="#000000" points="698,-235 698,-254 754,-254 754,-235 698,-235"/>
<text text-anchor="middle" x="726" y="-242" font-family="Helvetica,sans-Serif" font-size="10.00" fill="#000000">tiMooney</text>
</a>
</g>
</g>
<!-- Node10&#45;&gt;Node14 -->
<g id="edge14" class="edge">
<title>Node10&#45;&gt;Node14</title>
<path fill="none" stroke="#191970" d="M612.2134,-255.644C642.524,-252.6755 675.0901,-249.486 697.583,-247.2831"/>
<polygon fill="#191970" stroke="#191970" points="611.6497,-252.1824 602.0385,-256.6406 612.332,-259.1491 611.6497,-252.1824"/>
</g>
<!-- Node15 -->
<g id="node16" class="node">
<title>Node15</title>
<g id="a_node16"><a xlink:href="../../d1/dd7/class_t_i_mooney___random_field.html" target="_top" xlink:title="TIMooney_RandomField">
<polygon fill="#ffffff" stroke="#000000" points="664.5,-197 664.5,-216 787.5,-216 787.5,-197 664.5,-197"/>
<text text-anchor="middle" x="726" y="-204" font-family="Helvetica,sans-Serif" font-size="10.00" fill="#000000">TIMooney_RandomField</text>
</a>
</g>
</g>
<!-- Node10&#45;&gt;Node15 -->
<g id="edge15" class="edge">
<title>Node10&#45;&gt;Node15</title>
<path fill="none" stroke="#191970" d="M571.5609,-250.8575C595.6183,-243.2745 627.0005,-233.5684 655,-225.5 666.0351,-222.3201 678.0865,-219.0278 689.0756,-216.095"/>
<polygon fill="#191970" stroke="#191970" points="570.2095,-247.614 561.7303,-253.9665 572.3203,-254.2882 570.2095,-247.614"/>
</g>
<!-- Node17 -->
<g id="node18" class="node">
<title>Node17</title>
<g id="a_node18"><a xlink:href="../../da/d5f/class_dirichlet_inlet_outlet___polyconvex_h_g_o.html" target="_top" xlink:title="DirichletInletOutlet\l_PolyconvexHGO">
<polygon fill="#ffffff" stroke="#000000" points="677,-147.5 677,-177.5 775,-177.5 775,-147.5 677,-147.5"/>
<text text-anchor="start" x="685" y="-165.5" font-family="Helvetica,sans-Serif" font-size="10.00" fill="#000000">DirichletInletOutlet</text>
<text text-anchor="middle" x="726" y="-154.5" font-family="Helvetica,sans-Serif" font-size="10.00" fill="#000000">_PolyconvexHGO</text>
</a>
</g>
</g>
<!-- Node16&#45;&gt;Node17 -->
<g id="edge17" class="edge">
<title>Node16&#45;&gt;Node17</title>
<path fill="none" stroke="#191970" d="M579.9257,-125.605C609.4105,-133.0521 647.108,-142.5737 676.8213,-150.0786"/>
<polygon fill="#191970" stroke="#191970" points="580.4183,-122.1195 569.8657,-123.064 578.7041,-128.9064 580.4183,-122.1195"/>
</g>
<!-- Node18 -->
<g id="node19" class="node">
<title>Node18</title>
<g id="a_node19"><a xlink:href="../../d0/de4/class_dirichlet_strip_elongation___stochastic_polyconvex_h_g_o.html" target="_top" xlink:title="DirichletStripElongation\l_StochasticPolyconvexHGO">
<polygon fill="#ffffff" stroke="#000000" points="655,-98.5 655,-128.5 797,-128.5 797,-98.5 655,-98.5"/>
<text text-anchor="start" x="663" y="-116.5" font-family="Helvetica,sans-Serif" font-size="10.00" fill="#000000">DirichletStripElongation</text>
<text text-anchor="middle" x="726" y="-105.5" font-family="Helvetica,sans-Serif" font-size="10.00" fill="#000000">_StochasticPolyconvexHGO</text>
</a>
</g>
</g>
<!-- Node16&#45;&gt;Node18 -->
<g id="edge18" class="edge">
<title>Node16&#45;&gt;Node18</title>
<path fill="none" stroke="#191970" d="M629.215,-113.5C637.8709,-113.5 646.5246,-113.5 654.9002,-113.5"/>
<polygon fill="#191970" stroke="#191970" points="629.0692,-110.0001 619.0692,-113.5 629.0692,-117.0001 629.0692,-110.0001"/>
</g>
<!-- Node19 -->
<g id="node20" class="node">
<title>Node19</title>
<g id="a_node20"><a xlink:href="../../de/d4c/class_neumann_inner_surface___polyconvex_h_g_o.html" target="_top" xlink:title="NeumannInnerSurface\l_PolyconvexHGO">
<polygon fill="#ffffff" stroke="#000000" points="669,-49.5 669,-79.5 783,-79.5 783,-49.5 669,-49.5"/>
<text text-anchor="start" x="677" y="-67.5" font-family="Helvetica,sans-Serif" font-size="10.00" fill="#000000">NeumannInnerSurface</text>
<text text-anchor="middle" x="726" y="-56.5" font-family="Helvetica,sans-Serif" font-size="10.00" fill="#000000">_PolyconvexHGO</text>
</a>
</g>
</g>
<!-- Node16&#45;&gt;Node19 -->
<g id="edge19" class="edge">
<title>Node16&#45;&gt;Node19</title>
<path fill="none" stroke="#191970" d="M579.8086,-101.4246C606.6947,-94.6338 640.4376,-86.1111 668.7294,-78.9653"/>
<polygon fill="#191970" stroke="#191970" points="578.7041,-98.0936 569.8657,-103.936 580.4183,-104.8805 578.7041,-98.0936"/>
</g>
<!-- Node20 -->
<g id="node21" class="node">
<title>Node20</title>
<g id="a_node21"><a xlink:href="../../dd/d43/class_neumann_inner_surface___stochastic_polyconvex_h_g_o.html" target="_top" xlink:title="NeumannInnerSurface\l_StochasticPolyconvexHGO">
<polygon fill="#ffffff" stroke="#000000" points="655,-.5 655,-30.5 797,-30.5 797,-.5 655,-.5"/>
<text text-anchor="start" x="663" y="-18.5" font-family="Helvetica,sans-Serif" font-size="10.00" fill="#000000">NeumannInnerSurface</text>
<text text-anchor="middle" x="726" y="-7.5" font-family="Helvetica,sans-Serif" font-size="10.00" fill="#000000">_StochasticPolyconvexHGO</text>
</a>
</g>
</g>
<!-- Node16&#45;&gt;Node20 -->
<g id="edge20" class="edge">
<title>Node16&#45;&gt;Node20</title>
<path fill="none" stroke="#191970" d="M554.7104,-98.1677C578.8479,-82.3205 618.4937,-57.5569 655,-40.5 662.5774,-36.9596 670.8035,-33.6269 678.8805,-30.6194"/>
<polygon fill="#191970" stroke="#191970" points="552.6595,-95.328 546.2577,-103.77 556.5267,-101.1628 552.6595,-95.328"/>
</g>
</g>
</svg>
        <g id="navigator" transform="translate(0 0)" fill="#404254">
                <rect fill="#f2f5e9" fill-opacity="0.5" stroke="#606060" stroke-width=".5" x="0" y="0" width="60" height="60"/>
                <use id="zoomplus" xlink:href="#zoomPlus" x="17" y="9" onmousedown="handleZoom(evt,'in')"/>
                <use id="zoomminus" xlink:href="#zoomMin" x="42" y="9" onmousedown="handleZoom(evt,'out')"/>
                <use id="reset" xlink:href="#resetDef" x="30" y="36" onmousedown="handleReset()"/>
                <g id="arrowUp" xlink:href="#dirArrow" transform="translate(30 24)" onmousedown="handlePan(0,-1)">
                  <use xlink:href="#rim" fill="#404040">
                        <set attributeName="fill" to="#808080" begin="arrowUp.mouseover" end="arrowUp.mouseout"/>
                  </use>
                  <path fill="none" stroke="white" stroke-width="1.5" d="M0,-3.0v7 M-2.5,-0.5L0,-3.0L2.5,-0.5"/>
                </g>
                <g id="arrowRight" xlink:href="#dirArrow" transform="rotate(90) translate(36 -43)" onmousedown="handlePan(1,0)">
                  <use xlink:href="#rim" fill="#404040">
                        <set attributeName="fill" to="#808080" begin="arrowRight.mouseover" end="arrowRight.mouseout"/>
                  </use>
                  <path fill="none" stroke="white" stroke-width="1.5" d="M0,-3.0v7 M-2.5,-0.5L0,-3.0L2.5,-0.5"/>
                </g>
                <g id="arrowDown" xlink:href="#dirArrow" transform="rotate(180) translate(-30 -48)" onmousedown="handlePan(0,1)">
                  <use xlink:href="#rim" fill="#404040">
                        <set attributeName="fill" to="#808080" begin="arrowDown.mouseover" end="arrowDown.mouseout"/>
                  </use>
                  <path fill="none" stroke="white" stroke-width="1.5" d="M0,-3.0v7 M-2.5,-0.5L0,-3.0L2.5,-0.5"/>
                </g>
                <g id="arrowLeft" xlink:href="#dirArrow" transform="rotate(270) translate(-36 17)" onmousedown="handlePan(-1,0)">
                  <use xlink:href="#rim" fill="#404040">
                        <set attributeName="fill" to="#808080" begin="arrowLeft.mouseover" end="arrowLeft.mouseout"/>
                  </use>
                  <path fill="none" stroke="white" stroke-width="1.5" d="M0,-3.0v7 M-2.5,-0.5L0,-3.0L2.5,-0.5"/>
                </g>
        </g>
        <svg viewBox="0 0 15 15" width="100%" height="30px" preserveAspectRatio="xMaxYMin meet">
         <g id="arrow_out" transform="scale(0.3 0.3)">
          <a xlink:href="classbase_class_f_e_m__inherit__graph_org.svg" target="_base">
           <rect id="button" ry="5" rx="5" y="6" x="6" height="38" width="38"
                fill="#f2f5e9" fill-opacity="0.5" stroke="#606060" stroke-width="1.0"/>
           <path id="arrow"
             d="M 11.500037,31.436501 C 11.940474,20.09759 22.043105,11.32322 32.158766,21.979434 L 37.068811,17.246167 C 37.068811,17.246167 37.088388,32 37.088388,32 L 22.160133,31.978069 C 22.160133,31.978069 26.997745,27.140456 26.997745,27.140456 C 18.528582,18.264221 13.291696,25.230495 11.500037,31.436501 z"
             style="fill:#404040;"/>
          </a>
         </g>
        </svg>
</svg>
