<?xml version="1.0" encoding="UTF-8" standalone="no"?>
<!DOCTYPE svg PUBLIC "-//W3C//DTD SVG 1.1//EN"
 "http://www.w3.org/Graphics/SVG/1.1/DTD/svg11.dtd">
<!-- Generated by graphviz version 2.40.1 (20161225.0304)
 -->
<!-- Title: baseClassFEM Pages: 1 -->
<!--zoomable 434 -->
<svg id="main" version="1.1" xmlns="http://www.w3.org/2000/svg" xmlns:xlink="http://www.w3.org/1999/xlink" xml:space="preserve" onload="init(evt)">
<style type="text/css"><![CDATA[
.edge:hover path { stroke: red; }
.edge:hover polygon { stroke: red; fill: red; }
]]></style>
<script type="text/javascript"><![CDATA[
var edges = document.getElementsByTagName('g');
if (edges && edges.length) {
  for (var i=0;i<edges.length;i++) {
    if (edges[i].id.substr(0,4)=='edge') {
      edges[i].setAttribute('class','edge');
    }
  }
}
]]></script>
        <defs>
                <circle id="rim" cx="0" cy="0" r="7"/>
                <circle id="rim2" cx="0" cy="0" r="3.5"/>
                <g id="zoomPlus">
                        <use xlink:href="#rim" fill="#404040">
                                <set attributeName="fill" to="#808080" begin="zoomplus.mouseover" end="zoomplus.mouseout"/>
                        </use>
                        <path d="M-4,0h8M0,-4v8" fill="none" stroke="white" stroke-width="1.5" pointer-events="none"/>
                </g>
                <g id="zoomMin">
                        <use xlink:href="#rim" fill="#404040">
                                <set attributeName="fill" to="#808080" begin="zoomminus.mouseover" end="zoomminus.mouseout"/>
                        </use>
                        <path d="M-4,0h8" fill="none" stroke="white" stroke-width="1.5" pointer-events="none"/>
                </g>
                <g id="dirArrow">
                        <path fill="none" stroke="white" stroke-width="1.5" d="M0,-3.0v7 M-2.5,-0.5L0,-3.0L2.5,-0.5"/>
                </g>
               <g id="resetDef">
                       <use xlink:href="#rim2" fill="#404040">
                               <set attributeName="fill" to="#808080" begin="reset.mouseover" end="reset.mouseout"/>
                       </use>
               </g>
        </defs>

<script type="text/javascript">
var viewWidth = 808;
var viewHeight = 434;
var sectionId = 'dynsection-0';
</script>
<script xlink:href="../../svgpan.js"/>
<svg id="graph" class="graph">
<g id="viewport">
<title>baseClassFEM</title>
<polygon fill="#ffffff" stroke="transparent" points="-4,4 -4,-429.5 804,-429.5 804,4 -4,4"/>
<!-- Node0 -->
<g id="node1" class="node">
<title>Node0</title>
<polygon fill="#bfbfbf" stroke="#000000" points="0,-292 0,-311 84,-311 84,-292 0,-292"/>
<text text-anchor="middle" x="42" y="-299" font-family="Helvetica,sans-Serif" font-size="10.00" fill="#000000">baseClassFEM</text>
</g>
<!-- Node1 -->
<g id="node2" class="node">
<title>Node1</title>
<g id="a_node2"><a xlink:href="../../dc/d01/classlinear_finite_element_problem.html" target="_top" xlink:title="linearFiniteElementProblem">
<polygon fill="#ffffff" stroke="#000000" points="129.5,-330 129.5,-349 265.5,-349 265.5,-330 129.5,-330"/>
<text text-anchor="middle" x="197.5" y="-337" font-family="Helvetica,sans-Serif" font-size="10.00" fill="#000000">linearFiniteElementProblem</text>
</a>
</g>
</g>
<!-- Node0&#45;&gt;Node1 -->
<g id="edge1" class="edge">
<title>Node0&#45;&gt;Node1</title>
<path fill="none" stroke="#191970" d="M90.9742,-313.468C112.7652,-318.7931 138.0672,-324.9762 158.543,-329.9799"/>
<polygon fill="#191970" stroke="#191970" points="91.7843,-310.063 81.2392,-311.089 90.1225,-316.8629 91.7843,-310.063"/>
</g>
<!-- Node8 -->
<g id="node9" class="node">
<title>Node8</title>
<g id="a_node9"><a xlink:href="../../d3/d5b/classnon_linear_finite_element_problem.html" target="_top" xlink:title="nonLinearFiniteElementProblem">
<polygon fill="#ffffff" stroke="#000000" points="120,-273 120,-292 275,-292 275,-273 120,-273"/>
<text text-anchor="middle" x="197.5" y="-280" font-family="Helvetica,sans-Serif" font-size="10.00" fill="#000000">nonLinearFiniteElementProblem</text>
</a>
</g>
</g>
<!-- Node0&#45;&gt;Node8 -->
<g id="edge8" class="edge">
<title>Node0&#45;&gt;Node8</title>
<path fill="none" stroke="#191970" d="M94.2269,-295.1186C102.4431,-294.1147 111.0871,-293.0585 119.7313,-292.0023"/>
<polygon fill="#191970" stroke="#191970" points="93.5822,-291.6712 84.0805,-296.3583 94.4312,-298.6196 93.5822,-291.6712"/>
</g>
<!-- Node2 -->
<g id="node3" class="node">
<title>Node2</title>
<g id="a_node3"><a xlink:href="../../d7/d76/classlaplace.html" target="_top" xlink:title="laplace">
<polygon fill="#ffffff" stroke="#000000" points="338,-368 338,-387 385,-387 385,-368 338,-368"/>
<text text-anchor="middle" x="361.5" y="-375" font-family="Helvetica,sans-Serif" font-size="10.00" fill="#000000">laplace</text>
</a>
</g>
</g>
<!-- Node1&#45;&gt;Node2 -->
<g id="edge2" class="edge">
<title>Node1&#45;&gt;Node2</title>
<path fill="none" stroke="#191970" d="M248.7243,-351.369C278.5401,-358.2776 314.7058,-366.6574 337.9046,-372.0328"/>
<polygon fill="#191970" stroke="#191970" points="249.4161,-347.9367 238.8841,-349.089 247.836,-354.756 249.4161,-347.9367"/>
</g>
<!-- Node3 -->
<g id="node4" class="node">
<title>Node3</title>
<g id="a_node4"><a xlink:href="../../d9/df7/class_linearized_elasticity.html" target="_top" xlink:title="LinearizedElasticity">
<polygon fill="#ffffff" stroke="#000000" points="311,-330 311,-349 412,-349 412,-330 311,-330"/>
<text text-anchor="middle" x="361.5" y="-337" font-family="Helvetica,sans-Serif" font-size="10.00" fill="#000000">LinearizedElasticity</text>
</a>
</g>
</g>
<!-- Node1&#45;&gt;Node3 -->
<g id="edge3" class="edge">
<title>Node1&#45;&gt;Node3</title>
<path fill="none" stroke="#191970" d="M275.6304,-339.5C287.598,-339.5 299.6758,-339.5 310.841,-339.5"/>
<polygon fill="#191970" stroke="#191970" points="275.626,-336.0001 265.626,-339.5 275.626,-343.0001 275.626,-336.0001"/>
</g>
<!-- Node4 -->
<g id="node5" class="node">
<title>Node4</title>
<g id="a_node5"><a xlink:href="../../da/d18/class_a_s_m_e_s_b_v_p.html" target="_top" xlink:title="ASMESBVP">
<polygon fill="#ffffff" stroke="#000000" points="499,-406 499,-425 571,-425 571,-406 499,-406"/>
<text text-anchor="middle" x="535" y="-413" font-family="Helvetica,sans-Serif" font-size="10.00" fill="#000000">ASMESBVP</text>
</a>
</g>
</g>
<!-- Node3&#45;&gt;Node4 -->
<g id="edge4" class="edge">
<title>Node3&#45;&gt;Node4</title>
<path fill="none" stroke="#191970" d="M402.7685,-353.1986C405.9839,-354.8111 409.1028,-356.5764 412,-358.5 431.3812,-371.3687 427.7384,-385.0674 448,-396.5 463.4843,-405.237 482.6133,-409.9585 498.9878,-412.5091"/>
<polygon fill="#191970" stroke="#191970" points="404.1108,-349.9647 393.5552,-349.0548 401.2395,-356.3487 404.1108,-349.9647"/>
</g>
<!-- Node5 -->
<g id="node6" class="node">
<title>Node5</title>
<g id="a_node6"><a xlink:href="../../de/dcc/class_c_e_e_s_b_v_p.html" target="_top" xlink:title="CEESBVP">
<polygon fill="#ffffff" stroke="#000000" points="502.5,-368 502.5,-387 567.5,-387 567.5,-368 502.5,-368"/>
<text text-anchor="middle" x="535" y="-375" font-family="Helvetica,sans-Serif" font-size="10.00" fill="#000000">CEESBVP</text>
</a>
</g>
</g>
<!-- Node3&#45;&gt;Node5 -->
<g id="edge5" class="edge">
<title>Node3&#45;&gt;Node5</title>
<path fill="none" stroke="#191970" d="M414.9295,-351.2465C425.8688,-353.6486 437.3058,-356.1577 448,-358.5 465.9716,-362.4362 486.0342,-366.8184 502.3604,-370.3816"/>
<polygon fill="#191970" stroke="#191970" points="415.5769,-347.8053 405.0588,-349.0786 414.0752,-354.6424 415.5769,-347.8053"/>
</g>
<!-- Node6 -->
<g id="node7" class="node">
<title>Node6</title>
<g id="a_node7"><a xlink:href="../../d2/d69/classlinear_patch_test.html" target="_top" xlink:title="linearPatchTest">
<polygon fill="#ffffff" stroke="#000000" points="492.5,-330 492.5,-349 577.5,-349 577.5,-330 492.5,-330"/>
<text text-anchor="middle" x="535" y="-337" font-family="Helvetica,sans-Serif" font-size="10.00" fill="#000000">linearPatchTest</text>
</a>
</g>
</g>
<!-- Node3&#45;&gt;Node6 -->
<g id="edge6" class="edge">
<title>Node3&#45;&gt;Node6</title>
<path fill="none" stroke="#191970" d="M422.2415,-339.5C445.4324,-339.5 471.356,-339.5 492.4938,-339.5"/>
<polygon fill="#191970" stroke="#191970" points="422.1498,-336.0001 412.1498,-339.5 422.1498,-343.0001 422.1498,-336.0001"/>
</g>
<!-- Node7 -->
<g id="node8" class="node">
<title>Node7</title>
<g id="a_node8"><a xlink:href="../../d7/da3/classmanufactured.html" target="_top" xlink:title="manufactured">
<polygon fill="#ffffff" stroke="#000000" points="497,-292 497,-311 573,-311 573,-292 497,-292"/>
<text text-anchor="middle" x="535" y="-299" font-family="Helvetica,sans-Serif" font-size="10.00" fill="#000000">manufactured</text>
</a>
</g>
</g>
<!-- Node3&#45;&gt;Node7 -->
<g id="edge7" class="edge">
<title>Node3&#45;&gt;Node7</title>
<path fill="none" stroke="#191970" d="M414.9295,-327.7535C425.8688,-325.3514 437.3058,-322.8423 448,-320.5 464.0083,-316.9938 481.6757,-313.1337 496.8836,-309.8139"/>
<polygon fill="#191970" stroke="#191970" points="414.0752,-324.3576 405.0588,-329.9214 415.5769,-331.1947 414.0752,-324.3576"/>
</g>
<!-- Node9 -->
<g id="node10" class="node">
<title>Node9</title>
<g id="a_node10"><a xlink:href="../../dc/d5a/classhyperelasticity.html" target="_top" xlink:title="hyperelasticity">
<polygon fill="#ffffff" stroke="#000000" points="321.5,-254 321.5,-273 401.5,-273 401.5,-254 321.5,-254"/>
<text text-anchor="middle" x="361.5" y="-261" font-family="Helvetica,sans-Serif" font-size="10.00" fill="#000000">hyperelasticity</text>
</a>
</g>
</g>
<!-- Node8&#45;&gt;Node9 -->
<g id="edge9" class="edge">
<title>Node8&#45;&gt;Node9</title>
<path fill="none" stroke="#191970" d="M285.2431,-272.3346C297.7741,-270.8829 310.1253,-269.452 321.1185,-268.1783"/>
<polygon fill="#191970" stroke="#191970" points="284.7083,-268.8731 275.1776,-273.5008 285.5139,-275.8266 284.7083,-268.8731"/>
</g>
<!-- Node10 -->
<g id="node11" class="node">
<title>Node10</title>
<g id="a_node11"><a xlink:href="../../d1/d5c/classcompressible_hyperelasticity.html" target="_top" xlink:title="compressibleHyperelasticity">
<polygon fill="#ffffff" stroke="#000000" points="465,-254 465,-273 605,-273 605,-254 465,-254"/>
<text text-anchor="middle" x="535" y="-261" font-family="Helvetica,sans-Serif" font-size="10.00" fill="#000000">compressibleHyperelasticity</text>
</a>
</g>
</g>
<!-- Node9&#45;&gt;Node10 -->
<g id="edge10" class="edge">
<title>Node9&#45;&gt;Node10</title>
<path fill="none" stroke="#191970" d="M412.197,-263.5C428.6167,-263.5 447.1327,-263.5 464.7123,-263.5"/>
<polygon fill="#191970" stroke="#191970" points="411.7405,-260.0001 401.7405,-263.5 411.7404,-267.0001 411.7405,-260.0001"/>
</g>
<!-- Node16 -->
<g id="node17" class="node">
<title>Node16</title>
<g id="a_node17"><a xlink:href="../../d0/d85/classnearly_incompressible_hyperelasticity.html" target="_top" xlink:title="nearlyIncompressibleHyperelasticity">
<polygon fill="#ffffff" stroke="#000000" points="448,-104 448,-123 622,-123 622,-104 448,-104"/>
<text text-anchor="middle" x="535" y="-111" font-family="Helvetica,sans-Serif" font-size="10.00" fill="#000000">nearlyIncompressibleHyperelasticity</text>
</a>
</g>
</g>
<!-- Node9&#45;&gt;Node16 -->
<g id="edge16" class="edge">
<title>Node9&#45;&gt;Node16</title>
<path fill="none" stroke="#191970" d="M380.4763,-247.094C416.6949,-215.7811 494.6599,-148.3761 523.7509,-123.2254"/>
<polygon fill="#191970" stroke="#191970" points="377.8929,-244.7007 372.6171,-253.8886 382.471,-249.9961 377.8929,-244.7007"/>
</g>
<!-- Node11 -->
<g id="node12" class="node">
<title>Node11</title>
<g id="a_node12"><a xlink:href="../../df/d4f/classcompressible_hyperelasticity__linear_patch_test.html" target="_top" xlink:title="compressibleHyperelasticity\l_linearPatchTest">
<polygon fill="#ffffff" stroke="#000000" points="659,-349.5 659,-379.5 799,-379.5 799,-349.5 659,-349.5"/>
<text text-anchor="start" x="667" y="-367.5" font-family="Helvetica,sans-Serif" font-size="10.00" fill="#000000">compressibleHyperelasticity</text>
<text text-anchor="middle" x="729" y="-356.5" font-family="Helvetica,sans-Serif" font-size="10.00" fill="#000000">_linearPatchTest</text>
</a>
</g>
</g>
<!-- Node10&#45;&gt;Node11 -->
<g id="edge11" class="edge">
<title>Node10&#45;&gt;Node11</title>
<path fill="none" stroke="#191970" d="M613.41,-277.3186C616.3994,-278.8713 619.2779,-280.5924 622,-282.5 646.5376,-299.6954 634.5707,-320.8226 658,-339.5 662.8027,-343.3286 668.2352,-346.5941 673.9041,-349.3742"/>
<polygon fill="#191970" stroke="#191970" points="614.7094,-274.0653 604.1543,-273.1485 611.8339,-280.4474 614.7094,-274.0653"/>
</g>
<!-- Node12 -->
<g id="node13" class="node">
<title>Node12</title>
<g id="a_node13"><a xlink:href="../../d1/dbe/classmanufactured_solution.html" target="_top" xlink:title="manufacturedSolution">
<polygon fill="#ffffff" stroke="#000000" points="673.5,-311 673.5,-330 784.5,-330 784.5,-311 673.5,-311"/>
<text text-anchor="middle" x="729" y="-318" font-family="Helvetica,sans-Serif" font-size="10.00" fill="#000000">manufacturedSolution</text>
</a>
</g>
</g>
<!-- Node10&#45;&gt;Node12 -->
<g id="edge12" class="edge">
<title>Node10&#45;&gt;Node12</title>
<path fill="none" stroke="#191970" d="M599.2723,-275.4648C607.0204,-277.5129 614.7508,-279.8512 622,-282.5 638.9928,-288.709 641.156,-294.8979 658,-301.5 667.2665,-305.132 677.4775,-308.3147 687.1972,-310.9846"/>
<polygon fill="#191970" stroke="#191970" points="600.033,-272.0474 589.4833,-273.0242 598.3395,-278.8395 600.033,-272.0474"/>
</g>
<!-- Node13 -->
<g id="node14" class="node">
<title>Node13</title>
<g id="a_node14"><a xlink:href="../../dd/d20/classrubberblock.html" target="_top" xlink:title="rubberblock">
<polygon fill="#ffffff" stroke="#000000" points="695.5,-273 695.5,-292 762.5,-292 762.5,-273 695.5,-273"/>
<text text-anchor="middle" x="729" y="-280" font-family="Helvetica,sans-Serif" font-size="10.00" fill="#000000">rubberblock</text>
</a>
</g>
</g>
<!-- Node10&#45;&gt;Node13 -->
<g id="edge13" class="edge">
<title>Node10&#45;&gt;Node13</title>
<path fill="none" stroke="#191970" d="M615.2758,-271.3621C643.349,-274.1115 673.3492,-277.0497 695.4845,-279.2176"/>
<polygon fill="#191970" stroke="#191970" points="615.332,-267.8509 605.0385,-270.3594 614.6497,-274.8176 615.332,-267.8509"/>
</g>
<!-- Node14 -->
<g id="node15" class="node">
<title>Node14</title>
<g id="a_node15"><a xlink:href="../../de/dd1/class_t_i_mooney.html" target="_top" xlink:title="TIMooney">
<polygon fill="#ffffff" stroke="#000000" points="699,-235 699,-254 759,-254 759,-235 699,-235"/>
<text text-anchor="middle" x="729" y="-242" font-family="Helvetica,sans-Serif" font-size="10.00" fill="#000000">TIMooney</text>
</a>
</g>
</g>
<!-- Node10&#45;&gt;Node14 -->
<g id="edge14" class="edge">
<title>Node10&#45;&gt;Node14</title>
<path fill="none" stroke="#191970" d="M615.363,-255.6294C644.8541,-252.7411 676.4601,-249.6457 698.8339,-247.4544"/>
<polygon fill="#191970" stroke="#191970" points="614.6497,-252.1824 605.0385,-256.6406 615.332,-259.1491 614.6497,-252.1824"/>
</g>
<!-- Node15 -->
<g id="node16" class="node">
<title>Node15</title>
<g id="a_node16"><a xlink:href="../../d1/dd7/class_t_i_mooney___random_field.html" target="_top" xlink:title="TIMooney_RandomField">
<polygon fill="#ffffff" stroke="#000000" points="667.5,-197 667.5,-216 790.5,-216 790.5,-197 667.5,-197"/>
<text text-anchor="middle" x="729" y="-204" font-family="Helvetica,sans-Serif" font-size="10.00" fill="#000000">TIMooney_RandomField</text>
</a>
</g>
</g>
<!-- Node10&#45;&gt;Node15 -->
<g id="edge15" class="edge">
<title>Node10&#45;&gt;Node15</title>
<path fill="none" stroke="#191970" d="M574.5609,-250.8575C598.6183,-243.2745 630.0005,-233.5684 658,-225.5 669.0351,-222.3201 681.0865,-219.0278 692.0756,-216.095"/>
<polygon fill="#191970" stroke="#191970" points="573.2095,-247.614 564.7303,-253.9665 575.3203,-254.2882 573.2095,-247.614"/>
</g>
<!-- Node17 -->
<g id="node18" class="node">
<title>Node17</title>
<g id="a_node18"><a xlink:href="../../da/d5f/class_dirichlet_inlet_outlet___polyconvex_h_g_o.html" target="_top" xlink:title="DirichletInletOutlet\l_PolyconvexHGO">
<polygon fill="#ffffff" stroke="#000000" points="680,-147.5 680,-177.5 778,-177.5 778,-147.5 680,-147.5"/>
<text text-anchor="start" x="688" y="-165.5" font-family="Helvetica,sans-Serif" font-size="10.00" fill="#000000">DirichletInletOutlet</text>
<text text-anchor="middle" x="729" y="-154.5" font-family="Helvetica,sans-Serif" font-size="10.00" fill="#000000">_PolyconvexHGO</text>
</a>
</g>
</g>
<!-- Node16&#45;&gt;Node17 -->
<g id="edge17" class="edge">
<title>Node16&#45;&gt;Node17</title>
<path fill="none" stroke="#191970" d="M582.9257,-125.605C612.4105,-133.0521 650.108,-142.5737 679.8213,-150.0786"/>
<polygon fill="#191970" stroke="#191970" points="583.4183,-122.1195 572.8657,-123.064 581.7041,-128.9064 583.4183,-122.1195"/>
</g>
<!-- Node18 -->
<g id="node19" class="node">
<title>Node18</title>
<g id="a_node19"><a xlink:href="../../d0/de4/class_dirichlet_strip_elongation___stochastic_polyconvex_h_g_o.html" target="_top" xlink:title="DirichletStripElongation\l_StochasticPolyconvexHGO">
<polygon fill="#ffffff" stroke="#000000" points="658,-98.5 658,-128.5 800,-128.5 800,-98.5 658,-98.5"/>
<text text-anchor="start" x="666" y="-116.5" font-family="Helvetica,sans-Serif" font-size="10.00" fill="#000000">DirichletStripElongation</text>
<text text-anchor="middle" x="729" y="-105.5" font-family="Helvetica,sans-Serif" font-size="10.00" fill="#000000">_StochasticPolyconvexHGO</text>
</a>
</g>
</g>
<!-- Node16&#45;&gt;Node18 -->
<g id="edge18" class="edge">
<title>Node16&#45;&gt;Node18</title>
<path fill="none" stroke="#191970" d="M632.215,-113.5C640.8709,-113.5 649.5246,-113.5 657.9002,-113.5"/>
<polygon fill="#191970" stroke="#191970" points="632.0692,-110.0001 622.0692,-113.5 632.0692,-117.0001 632.0692,-110.0001"/>
</g>
<!-- Node19 -->
<g id="node20" class="node">
<title>Node19</title>
<g id="a_node20"><a xlink:href="../../de/d4c/class_neumann_inner_surface___polyconvex_h_g_o.html" target="_top" xlink:title="NeumannInnerSurface\l_PolyconvexHGO">
<polygon fill="#ffffff" stroke="#000000" points="672,-49.5 672,-79.5 786,-79.5 786,-49.5 672,-49.5"/>
<text text-anchor="start" x="680" y="-67.5" font-family="Helvetica,sans-Serif" font-size="10.00" fill="#000000">NeumannInnerSurface</text>
<text text-anchor="middle" x="729" y="-56.5" font-family="Helvetica,sans-Serif" font-size="10.00" fill="#000000">_PolyconvexHGO</text>
</a>
</g>
</g>
<!-- Node16&#45;&gt;Node19 -->
<g id="edge19" class="edge">
<title>Node16&#45;&gt;Node19</title>
<path fill="none" stroke="#191970" d="M582.8086,-101.4246C609.6947,-94.6338 643.4376,-86.1111 671.7294,-78.9653"/>
<polygon fill="#191970" stroke="#191970" points="581.7041,-98.0936 572.8657,-103.936 583.4183,-104.8805 581.7041,-98.0936"/>
</g>
<!-- Node20 -->
<g id="node21" class="node">
<title>Node20</title>
<g id="a_node21"><a xlink:href="../../dd/d43/class_neumann_inner_surface___stochastic_polyconvex_h_g_o.html" target="_top" xlink:title="NeumannInnerSurface\l_StochasticPolyconvexHGO">
<polygon fill="#ffffff" stroke="#000000" points="658,-.5 658,-30.5 800,-30.5 800,-.5 658,-.5"/>
<text text-anchor="start" x="666" y="-18.5" font-family="Helvetica,sans-Serif" font-size="10.00" fill="#000000">NeumannInnerSurface</text>
<text text-anchor="middle" x="729" y="-7.5" font-family="Helvetica,sans-Serif" font-size="10.00" fill="#000000">_StochasticPolyconvexHGO</text>
</a>
</g>
</g>
<!-- Node16&#45;&gt;Node20 -->
<g id="edge20" class="edge">
<title>Node16&#45;&gt;Node20</title>
<path fill="none" stroke="#191970" d="M557.7104,-98.1677C581.8479,-82.3205 621.4937,-57.5569 658,-40.5 665.5774,-36.9596 673.8035,-33.6269 681.8805,-30.6194"/>
<polygon fill="#191970" stroke="#191970" points="555.6595,-95.328 549.2577,-103.77 559.5267,-101.1628 555.6595,-95.328"/>
</g>
</g>
</svg>
        <g id="navigator" transform="translate(0 0)" fill="#404254">
                <rect fill="#f2f5e9" fill-opacity="0.5" stroke="#606060" stroke-width=".5" x="0" y="0" width="60" height="60"/>
                <use id="zoomplus" xlink:href="#zoomPlus" x="17" y="9" onmousedown="handleZoom(evt,'in')"/>
                <use id="zoomminus" xlink:href="#zoomMin" x="42" y="9" onmousedown="handleZoom(evt,'out')"/>
                <use id="reset" xlink:href="#resetDef" x="30" y="36" onmousedown="handleReset()"/>
                <g id="arrowUp" xlink:href="#dirArrow" transform="translate(30 24)" onmousedown="handlePan(0,-1)">
                  <use xlink:href="#rim" fill="#404040">
                        <set attributeName="fill" to="#808080" begin="arrowUp.mouseover" end="arrowUp.mouseout"/>
                  </use>
                  <path fill="none" stroke="white" stroke-width="1.5" d="M0,-3.0v7 M-2.5,-0.5L0,-3.0L2.5,-0.5"/>
                </g>
                <g id="arrowRight" xlink:href="#dirArrow" transform="rotate(90) translate(36 -43)" onmousedown="handlePan(1,0)">
                  <use xlink:href="#rim" fill="#404040">
                        <set attributeName="fill" to="#808080" begin="arrowRight.mouseover" end="arrowRight.mouseout"/>
                  </use>
                  <path fill="none" stroke="white" stroke-width="1.5" d="M0,-3.0v7 M-2.5,-0.5L0,-3.0L2.5,-0.5"/>
                </g>
                <g id="arrowDown" xlink:href="#dirArrow" transform="rotate(180) translate(-30 -48)" onmousedown="handlePan(0,1)">
                  <use xlink:href="#rim" fill="#404040">
                        <set attributeName="fill" to="#808080" begin="arrowDown.mouseover" end="arrowDown.mouseout"/>
                  </use>
                  <path fill="none" stroke="white" stroke-width="1.5" d="M0,-3.0v7 M-2.5,-0.5L0,-3.0L2.5,-0.5"/>
                </g>
                <g id="arrowLeft" xlink:href="#dirArrow" transform="rotate(270) translate(-36 17)" onmousedown="handlePan(-1,0)">
                  <use xlink:href="#rim" fill="#404040">
                        <set attributeName="fill" to="#808080" begin="arrowLeft.mouseover" end="arrowLeft.mouseout"/>
                  </use>
                  <path fill="none" stroke="white" stroke-width="1.5" d="M0,-3.0v7 M-2.5,-0.5L0,-3.0L2.5,-0.5"/>
                </g>
        </g>
        <svg viewBox="0 0 15 15" width="100%" height="30px" preserveAspectRatio="xMaxYMin meet">
         <g id="arrow_out" transform="scale(0.3 0.3)">
          <a xlink:href="classbase_class_f_e_m__inherit__graph_org.svg" target="_base">
           <rect id="button" ry="5" rx="5" y="6" x="6" height="38" width="38"
                fill="#f2f5e9" fill-opacity="0.5" stroke="#606060" stroke-width="1.0"/>
           <path id="arrow"
             d="M 11.500037,31.436501 C 11.940474,20.09759 22.043105,11.32322 32.158766,21.979434 L 37.068811,17.246167 C 37.068811,17.246167 37.088388,32 37.088388,32 L 22.160133,31.978069 C 22.160133,31.978069 26.997745,27.140456 26.997745,27.140456 C 18.528582,18.264221 13.291696,25.230495 11.500037,31.436501 z"
             style="fill:#404040;"/>
          </a>
         </g>
        </svg>
</svg>
