<?xml version="1.0" encoding="UTF-8" standalone="no"?>
<!DOCTYPE svg PUBLIC "-//W3C//DTD SVG 1.1//EN"
 "http://www.w3.org/Graphics/SVG/1.1/DTD/svg11.dtd">
<!-- Generated by graphviz version 2.40.1 (20161225.0304)
 -->
<!-- Title: baseClassFEM Pages: 1 -->
<!--zoomable 434 -->
<svg id="main" version="1.1" xmlns="http://www.w3.org/2000/svg" xmlns:xlink="http://www.w3.org/1999/xlink" xml:space="preserve" onload="init(evt)">
<style type="text/css"><![CDATA[
.edge:hover path { stroke: red; }
.edge:hover polygon { stroke: red; fill: red; }
]]></style>
<script type="text/javascript"><![CDATA[
var edges = document.getElementsByTagName('g');
if (edges && edges.length) {
  for (var i=0;i<edges.length;i++) {
    if (edges[i].id.substr(0,4)=='edge') {
      edges[i].setAttribute('class','edge');
    }
  }
}
]]></script>
        <defs>
                <circle id="rim" cx="0" cy="0" r="7"/>
                <circle id="rim2" cx="0" cy="0" r="3.5"/>
                <g id="zoomPlus">
                        <use xlink:href="#rim" fill="#404040">
                                <set attributeName="fill" to="#808080" begin="zoomplus.mouseover" end="zoomplus.mouseout"/>
                        </use>
                        <path d="M-4,0h8M0,-4v8" fill="none" stroke="white" stroke-width="1.5" pointer-events="none"/>
                </g>
                <g id="zoomMin">
                        <use xlink:href="#rim" fill="#404040">
                                <set attributeName="fill" to="#808080" begin="zoomminus.mouseover" end="zoomminus.mouseout"/>
                        </use>
                        <path d="M-4,0h8" fill="none" stroke="white" stroke-width="1.5" pointer-events="none"/>
                </g>
                <g id="dirArrow">
                        <path fill="none" stroke="white" stroke-width="1.5" d="M0,-3.0v7 M-2.5,-0.5L0,-3.0L2.5,-0.5"/>
                </g>
               <g id="resetDef">
                       <use xlink:href="#rim2" fill="#404040">
                               <set attributeName="fill" to="#808080" begin="reset.mouseover" end="reset.mouseout"/>
                       </use>
               </g>
        </defs>

<script type="text/javascript">
var viewWidth = 810;
var viewHeight = 434;
var sectionId = 'dynsection-0';
</script>
<script xlink:href="../../svgpan.js"/>
<svg id="graph" class="graph">
<g id="viewport">
<title>baseClassFEM</title>
<polygon fill="#ffffff" stroke="transparent" points="-4,4 -4,-429.5 806,-429.5 806,4 -4,4"/>
<!-- Node0 -->
<g id="node1" class="node">
<title>Node0</title>
<polygon fill="#bfbfbf" stroke="#000000" points="0,-292 0,-311 84,-311 84,-292 0,-292"/>
<text text-anchor="middle" x="42" y="-299" font-family="Helvetica,sans-Serif" font-size="10.00" fill="#000000">baseClassFEM</text>
</g>
<!-- Node1 -->
<g id="node2" class="node">
<title>Node1</title>
<g id="a_node2"><a xlink:href="../../d8/de3/class_linear_finite_element_problem.html" target="_top" xlink:title="LinearFiniteElementProblem">
<polygon fill="#ffffff" stroke="#000000" points="129,-330 129,-349 268,-349 268,-330 129,-330"/>
<text text-anchor="middle" x="198.5" y="-337" font-family="Helvetica,sans-Serif" font-size="10.00" fill="#000000">LinearFiniteElementProblem</text>
</a>
</g>
</g>
<!-- Node0&#45;&gt;Node1 -->
<g id="edge1" class="edge">
<title>Node0&#45;&gt;Node1</title>
<path fill="none" stroke="#191970" d="M91.2892,-313.468C113.2203,-318.7931 138.6849,-324.9762 159.2924,-329.9799"/>
<polygon fill="#191970" stroke="#191970" points="92.0351,-310.0475 81.4916,-311.089 90.3833,-316.8498 92.0351,-310.0475"/>
</g>
<!-- Node8 -->
<g id="node9" class="node">
<title>Node8</title>
<g id="a_node9"><a xlink:href="../../da/d1c/class_non_linear_finite_element_problem.html" target="_top" xlink:title="NonLinearFiniteElementProblem">
<polygon fill="#ffffff" stroke="#000000" points="120,-273 120,-292 277,-292 277,-273 120,-273"/>
<text text-anchor="middle" x="198.5" y="-280" font-family="Helvetica,sans-Serif" font-size="10.00" fill="#000000">NonLinearFiniteElementProblem</text>
</a>
</g>
</g>
<!-- Node0&#45;&gt;Node8 -->
<g id="edge8" class="edge">
<title>Node0&#45;&gt;Node8</title>
<path fill="none" stroke="#191970" d="M94.2872,-295.152C102.6385,-294.1381 111.4347,-293.0702 120.2312,-292.0023"/>
<polygon fill="#191970" stroke="#191970" points="93.8564,-291.6785 84.3512,-296.3583 94.7001,-298.6275 93.8564,-291.6785"/>
</g>
<!-- Node2 -->
<g id="node3" class="node">
<title>Node2</title>
<g id="a_node3"><a xlink:href="../../d7/d76/classlaplace.html" target="_top" xlink:title="laplace">
<polygon fill="#ffffff" stroke="#000000" points="340,-368 340,-387 387,-387 387,-368 340,-368"/>
<text text-anchor="middle" x="363.5" y="-375" font-family="Helvetica,sans-Serif" font-size="10.00" fill="#000000">laplace</text>
</a>
</g>
</g>
<!-- Node1&#45;&gt;Node2 -->
<g id="edge2" class="edge">
<title>Node1&#45;&gt;Node2</title>
<path fill="none" stroke="#191970" d="M250.0366,-351.369C280.0343,-358.2776 316.4205,-366.6574 339.7607,-372.0328"/>
<polygon fill="#191970" stroke="#191970" points="250.6669,-347.9226 240.1365,-349.089 249.0959,-354.7441 250.6669,-347.9226"/>
</g>
<!-- Node3 -->
<g id="node4" class="node">
<title>Node3</title>
<g id="a_node4"><a xlink:href="../../d9/df7/class_linearized_elasticity.html" target="_top" xlink:title="LinearizedElasticity">
<polygon fill="#ffffff" stroke="#000000" points="313,-330 313,-349 414,-349 414,-330 313,-330"/>
<text text-anchor="middle" x="363.5" y="-337" font-family="Helvetica,sans-Serif" font-size="10.00" fill="#000000">LinearizedElasticity</text>
</a>
</g>
</g>
<!-- Node1&#45;&gt;Node3 -->
<g id="edge3" class="edge">
<title>Node1&#45;&gt;Node3</title>
<path fill="none" stroke="#191970" d="M278.6866,-339.5C290.3516,-339.5 302.0783,-339.5 312.933,-339.5"/>
<polygon fill="#191970" stroke="#191970" points="278.4749,-336.0001 268.4749,-339.5 278.4748,-343.0001 278.4749,-336.0001"/>
</g>
<!-- Node4 -->
<g id="node5" class="node">
<title>Node4</title>
<g id="a_node5"><a xlink:href="../../da/d18/class_a_s_m_e_s_b_v_p.html" target="_top" xlink:title="ASMESBVP">
<polygon fill="#ffffff" stroke="#000000" points="501,-406 501,-425 573,-425 573,-406 501,-406"/>
<text text-anchor="middle" x="537" y="-413" font-family="Helvetica,sans-Serif" font-size="10.00" fill="#000000">ASMESBVP</text>
</a>
</g>
</g>
<!-- Node3&#45;&gt;Node4 -->
<g id="edge4" class="edge">
<title>Node3&#45;&gt;Node4</title>
<path fill="none" stroke="#191970" d="M404.7685,-353.1986C407.9839,-354.8111 411.1028,-356.5764 414,-358.5 433.3812,-371.3687 429.7384,-385.0674 450,-396.5 465.4843,-405.237 484.6133,-409.9585 500.9878,-412.5091"/>
<polygon fill="#191970" stroke="#191970" points="406.1108,-349.9647 395.5552,-349.0548 403.2395,-356.3487 406.1108,-349.9647"/>
</g>
<!-- Node5 -->
<g id="node6" class="node">
<title>Node5</title>
<g id="a_node6"><a xlink:href="../../de/dcc/class_c_e_e_s_b_v_p.html" target="_top" xlink:title="CEESBVP">
<polygon fill="#ffffff" stroke="#000000" points="504.5,-368 504.5,-387 569.5,-387 569.5,-368 504.5,-368"/>
<text text-anchor="middle" x="537" y="-375" font-family="Helvetica,sans-Serif" font-size="10.00" fill="#000000">CEESBVP</text>
</a>
</g>
</g>
<!-- Node3&#45;&gt;Node5 -->
<g id="edge5" class="edge">
<title>Node3&#45;&gt;Node5</title>
<path fill="none" stroke="#191970" d="M416.9295,-351.2465C427.8688,-353.6486 439.3058,-356.1577 450,-358.5 467.9716,-362.4362 488.0342,-366.8184 504.3604,-370.3816"/>
<polygon fill="#191970" stroke="#191970" points="417.5769,-347.8053 407.0588,-349.0786 416.0752,-354.6424 417.5769,-347.8053"/>
</g>
<!-- Node6 -->
<g id="node7" class="node">
<title>Node6</title>
<g id="a_node7"><a xlink:href="../../d2/d69/classlinear_patch_test.html" target="_top" xlink:title="linearPatchTest">
<polygon fill="#ffffff" stroke="#000000" points="494.5,-330 494.5,-349 579.5,-349 579.5,-330 494.5,-330"/>
<text text-anchor="middle" x="537" y="-337" font-family="Helvetica,sans-Serif" font-size="10.00" fill="#000000">linearPatchTest</text>
</a>
</g>
</g>
<!-- Node3&#45;&gt;Node6 -->
<g id="edge6" class="edge">
<title>Node3&#45;&gt;Node6</title>
<path fill="none" stroke="#191970" d="M424.2415,-339.5C447.4324,-339.5 473.356,-339.5 494.4938,-339.5"/>
<polygon fill="#191970" stroke="#191970" points="424.1498,-336.0001 414.1498,-339.5 424.1498,-343.0001 424.1498,-336.0001"/>
</g>
<!-- Node7 -->
<g id="node8" class="node">
<title>Node7</title>
<g id="a_node8"><a xlink:href="../../d7/da3/classmanufactured.html" target="_top" xlink:title="manufactured">
<polygon fill="#ffffff" stroke="#000000" points="499,-292 499,-311 575,-311 575,-292 499,-292"/>
<text text-anchor="middle" x="537" y="-299" font-family="Helvetica,sans-Serif" font-size="10.00" fill="#000000">manufactured</text>
</a>
</g>
</g>
<!-- Node3&#45;&gt;Node7 -->
<g id="edge7" class="edge">
<title>Node3&#45;&gt;Node7</title>
<path fill="none" stroke="#191970" d="M416.9295,-327.7535C427.8688,-325.3514 439.3058,-322.8423 450,-320.5 466.0083,-316.9938 483.6757,-313.1337 498.8836,-309.8139"/>
<polygon fill="#191970" stroke="#191970" points="416.0752,-324.3576 407.0588,-329.9214 417.5769,-331.1947 416.0752,-324.3576"/>
</g>
<!-- Node9 -->
<g id="node10" class="node">
<title>Node9</title>
<g id="a_node10"><a xlink:href="../../dc/d5a/classhyperelasticity.html" target="_top" xlink:title="hyperelasticity">
<polygon fill="#ffffff" stroke="#000000" points="323.5,-254 323.5,-273 403.5,-273 403.5,-254 323.5,-254"/>
<text text-anchor="middle" x="363.5" y="-261" font-family="Helvetica,sans-Serif" font-size="10.00" fill="#000000">hyperelasticity</text>
</a>
</g>
</g>
<!-- Node8&#45;&gt;Node9 -->
<g id="edge9" class="edge">
<title>Node8&#45;&gt;Node9</title>
<path fill="none" stroke="#191970" d="M287.2223,-272.2835C299.7776,-270.8377 312.1397,-269.4142 323.1365,-268.1479"/>
<polygon fill="#191970" stroke="#191970" points="286.668,-268.8241 277.1341,-273.4452 287.4688,-275.7781 286.668,-268.8241"/>
</g>
<!-- Node10 -->
<g id="node11" class="node">
<title>Node10</title>
<g id="a_node11"><a xlink:href="../../d1/d5c/classcompressible_hyperelasticity.html" target="_top" xlink:title="compressibleHyperelasticity">
<polygon fill="#ffffff" stroke="#000000" points="467,-254 467,-273 607,-273 607,-254 467,-254"/>
<text text-anchor="middle" x="537" y="-261" font-family="Helvetica,sans-Serif" font-size="10.00" fill="#000000">compressibleHyperelasticity</text>
</a>
</g>
</g>
<!-- Node9&#45;&gt;Node10 -->
<g id="edge10" class="edge">
<title>Node9&#45;&gt;Node10</title>
<path fill="none" stroke="#191970" d="M414.197,-263.5C430.6167,-263.5 449.1327,-263.5 466.7123,-263.5"/>
<polygon fill="#191970" stroke="#191970" points="413.7405,-260.0001 403.7405,-263.5 413.7404,-267.0001 413.7405,-260.0001"/>
</g>
<!-- Node16 -->
<g id="node17" class="node">
<title>Node16</title>
<g id="a_node17"><a xlink:href="../../d0/d85/classnearly_incompressible_hyperelasticity.html" target="_top" xlink:title="nearlyIncompressibleHyperelasticity">
<polygon fill="#ffffff" stroke="#000000" points="450,-104 450,-123 624,-123 624,-104 450,-104"/>
<text text-anchor="middle" x="537" y="-111" font-family="Helvetica,sans-Serif" font-size="10.00" fill="#000000">nearlyIncompressibleHyperelasticity</text>
</a>
</g>
</g>
<!-- Node9&#45;&gt;Node16 -->
<g id="edge16" class="edge">
<title>Node9&#45;&gt;Node16</title>
<path fill="none" stroke="#191970" d="M382.4763,-247.094C418.6949,-215.7811 496.6599,-148.3761 525.7509,-123.2254"/>
<polygon fill="#191970" stroke="#191970" points="379.8929,-244.7007 374.6171,-253.8886 384.471,-249.9961 379.8929,-244.7007"/>
</g>
<!-- Node11 -->
<g id="node12" class="node">
<title>Node11</title>
<g id="a_node12"><a xlink:href="../../df/d4f/classcompressible_hyperelasticity__linear_patch_test.html" target="_top" xlink:title="compressibleHyperelasticity\l_linearPatchTest">
<polygon fill="#ffffff" stroke="#000000" points="661,-349.5 661,-379.5 801,-379.5 801,-349.5 661,-349.5"/>
<text text-anchor="start" x="669" y="-367.5" font-family="Helvetica,sans-Serif" font-size="10.00" fill="#000000">compressibleHyperelasticity</text>
<text text-anchor="middle" x="731" y="-356.5" font-family="Helvetica,sans-Serif" font-size="10.00" fill="#000000">_linearPatchTest</text>
</a>
</g>
</g>
<!-- Node10&#45;&gt;Node11 -->
<g id="edge11" class="edge">
<title>Node10&#45;&gt;Node11</title>
<path fill="none" stroke="#191970" d="M615.41,-277.3186C618.3994,-278.8713 621.2779,-280.5924 624,-282.5 648.5376,-299.6954 636.5707,-320.8226 660,-339.5 664.8027,-343.3286 670.2352,-346.5941 675.9041,-349.3742"/>
<polygon fill="#191970" stroke="#191970" points="616.7094,-274.0653 606.1543,-273.1485 613.8339,-280.4474 616.7094,-274.0653"/>
</g>
<!-- Node12 -->
<g id="node13" class="node">
<title>Node12</title>
<g id="a_node13"><a xlink:href="../../d1/dbe/classmanufactured_solution.html" target="_top" xlink:title="manufacturedSolution">
<polygon fill="#ffffff" stroke="#000000" points="675.5,-311 675.5,-330 786.5,-330 786.5,-311 675.5,-311"/>
<text text-anchor="middle" x="731" y="-318" font-family="Helvetica,sans-Serif" font-size="10.00" fill="#000000">manufacturedSolution</text>
</a>
</g>
</g>
<!-- Node10&#45;&gt;Node12 -->
<g id="edge12" class="edge">
<title>Node10&#45;&gt;Node12</title>
<path fill="none" stroke="#191970" d="M601.2723,-275.4648C609.0204,-277.5129 616.7508,-279.8512 624,-282.5 640.9928,-288.709 643.156,-294.8979 660,-301.5 669.2665,-305.132 679.4775,-308.3147 689.1972,-310.9846"/>
<polygon fill="#191970" stroke="#191970" points="602.033,-272.0474 591.4833,-273.0242 600.3395,-278.8395 602.033,-272.0474"/>
</g>
<!-- Node13 -->
<g id="node14" class="node">
<title>Node13</title>
<g id="a_node14"><a xlink:href="../../dd/d20/classrubberblock.html" target="_top" xlink:title="rubberblock">
<polygon fill="#ffffff" stroke="#000000" points="697.5,-273 697.5,-292 764.5,-292 764.5,-273 697.5,-273"/>
<text text-anchor="middle" x="731" y="-280" font-family="Helvetica,sans-Serif" font-size="10.00" fill="#000000">rubberblock</text>
</a>
</g>
</g>
<!-- Node10&#45;&gt;Node13 -->
<g id="edge13" class="edge">
<title>Node10&#45;&gt;Node13</title>
<path fill="none" stroke="#191970" d="M617.2758,-271.3621C645.349,-274.1115 675.3492,-277.0497 697.4845,-279.2176"/>
<polygon fill="#191970" stroke="#191970" points="617.332,-267.8509 607.0385,-270.3594 616.6497,-274.8176 617.332,-267.8509"/>
</g>
<!-- Node14 -->
<g id="node15" class="node">
<title>Node14</title>
<g id="a_node15"><a xlink:href="../../de/dd1/class_t_i_mooney.html" target="_top" xlink:title="TIMooney">
<polygon fill="#ffffff" stroke="#000000" points="701,-235 701,-254 761,-254 761,-235 701,-235"/>
<text text-anchor="middle" x="731" y="-242" font-family="Helvetica,sans-Serif" font-size="10.00" fill="#000000">TIMooney</text>
</a>
</g>
</g>
<!-- Node10&#45;&gt;Node14 -->
<g id="edge14" class="edge">
<title>Node10&#45;&gt;Node14</title>
<path fill="none" stroke="#191970" d="M617.363,-255.6294C646.8541,-252.7411 678.4601,-249.6457 700.8339,-247.4544"/>
<polygon fill="#191970" stroke="#191970" points="616.6497,-252.1824 607.0385,-256.6406 617.332,-259.1491 616.6497,-252.1824"/>
</g>
<!-- Node15 -->
<g id="node16" class="node">
<title>Node15</title>
<g id="a_node16"><a xlink:href="../../d1/dd7/class_t_i_mooney___random_field.html" target="_top" xlink:title="TIMooney_RandomField">
<polygon fill="#ffffff" stroke="#000000" points="669.5,-197 669.5,-216 792.5,-216 792.5,-197 669.5,-197"/>
<text text-anchor="middle" x="731" y="-204" font-family="Helvetica,sans-Serif" font-size="10.00" fill="#000000">TIMooney_RandomField</text>
</a>
</g>
</g>
<!-- Node10&#45;&gt;Node15 -->
<g id="edge15" class="edge">
<title>Node10&#45;&gt;Node15</title>
<path fill="none" stroke="#191970" d="M576.5609,-250.8575C600.6183,-243.2745 632.0005,-233.5684 660,-225.5 671.0351,-222.3201 683.0865,-219.0278 694.0756,-216.095"/>
<polygon fill="#191970" stroke="#191970" points="575.2095,-247.614 566.7303,-253.9665 577.3203,-254.2882 575.2095,-247.614"/>
</g>
<!-- Node17 -->
<g id="node18" class="node">
<title>Node17</title>
<g id="a_node18"><a xlink:href="../../da/d5f/class_dirichlet_inlet_outlet___polyconvex_h_g_o.html" target="_top" xlink:title="DirichletInletOutlet\l_PolyconvexHGO">
<polygon fill="#ffffff" stroke="#000000" points="682,-147.5 682,-177.5 780,-177.5 780,-147.5 682,-147.5"/>
<text text-anchor="start" x="690" y="-165.5" font-family="Helvetica,sans-Serif" font-size="10.00" fill="#000000">DirichletInletOutlet</text>
<text text-anchor="middle" x="731" y="-154.5" font-family="Helvetica,sans-Serif" font-size="10.00" fill="#000000">_PolyconvexHGO</text>
</a>
</g>
</g>
<!-- Node16&#45;&gt;Node17 -->
<g id="edge17" class="edge">
<title>Node16&#45;&gt;Node17</title>
<path fill="none" stroke="#191970" d="M584.9257,-125.605C614.4105,-133.0521 652.108,-142.5737 681.8213,-150.0786"/>
<polygon fill="#191970" stroke="#191970" points="585.4183,-122.1195 574.8657,-123.064 583.7041,-128.9064 585.4183,-122.1195"/>
</g>
<!-- Node18 -->
<g id="node19" class="node">
<title>Node18</title>
<g id="a_node19"><a xlink:href="../../d0/de4/class_dirichlet_strip_elongation___stochastic_polyconvex_h_g_o.html" target="_top" xlink:title="DirichletStripElongation\l_StochasticPolyconvexHGO">
<polygon fill="#ffffff" stroke="#000000" points="660,-98.5 660,-128.5 802,-128.5 802,-98.5 660,-98.5"/>
<text text-anchor="start" x="668" y="-116.5" font-family="Helvetica,sans-Serif" font-size="10.00" fill="#000000">DirichletStripElongation</text>
<text text-anchor="middle" x="731" y="-105.5" font-family="Helvetica,sans-Serif" font-size="10.00" fill="#000000">_StochasticPolyconvexHGO</text>
</a>
</g>
</g>
<!-- Node16&#45;&gt;Node18 -->
<g id="edge18" class="edge">
<title>Node16&#45;&gt;Node18</title>
<path fill="none" stroke="#191970" d="M634.215,-113.5C642.8709,-113.5 651.5246,-113.5 659.9002,-113.5"/>
<polygon fill="#191970" stroke="#191970" points="634.0692,-110.0001 624.0692,-113.5 634.0692,-117.0001 634.0692,-110.0001"/>
</g>
<!-- Node19 -->
<g id="node20" class="node">
<title>Node19</title>
<g id="a_node20"><a xlink:href="../../de/d4c/class_neumann_inner_surface___polyconvex_h_g_o.html" target="_top" xlink:title="NeumannInnerSurface\l_PolyconvexHGO">
<polygon fill="#ffffff" stroke="#000000" points="674,-49.5 674,-79.5 788,-79.5 788,-49.5 674,-49.5"/>
<text text-anchor="start" x="682" y="-67.5" font-family="Helvetica,sans-Serif" font-size="10.00" fill="#000000">NeumannInnerSurface</text>
<text text-anchor="middle" x="731" y="-56.5" font-family="Helvetica,sans-Serif" font-size="10.00" fill="#000000">_PolyconvexHGO</text>
</a>
</g>
</g>
<!-- Node16&#45;&gt;Node19 -->
<g id="edge19" class="edge">
<title>Node16&#45;&gt;Node19</title>
<path fill="none" stroke="#191970" d="M584.8086,-101.4246C611.6947,-94.6338 645.4376,-86.1111 673.7294,-78.9653"/>
<polygon fill="#191970" stroke="#191970" points="583.7041,-98.0936 574.8657,-103.936 585.4183,-104.8805 583.7041,-98.0936"/>
</g>
<!-- Node20 -->
<g id="node21" class="node">
<title>Node20</title>
<g id="a_node21"><a xlink:href="../../dd/d43/class_neumann_inner_surface___stochastic_polyconvex_h_g_o.html" target="_top" xlink:title="NeumannInnerSurface\l_StochasticPolyconvexHGO">
<polygon fill="#ffffff" stroke="#000000" points="660,-.5 660,-30.5 802,-30.5 802,-.5 660,-.5"/>
<text text-anchor="start" x="668" y="-18.5" font-family="Helvetica,sans-Serif" font-size="10.00" fill="#000000">NeumannInnerSurface</text>
<text text-anchor="middle" x="731" y="-7.5" font-family="Helvetica,sans-Serif" font-size="10.00" fill="#000000">_StochasticPolyconvexHGO</text>
</a>
</g>
</g>
<!-- Node16&#45;&gt;Node20 -->
<g id="edge20" class="edge">
<title>Node16&#45;&gt;Node20</title>
<path fill="none" stroke="#191970" d="M559.7104,-98.1677C583.8479,-82.3205 623.4937,-57.5569 660,-40.5 667.5774,-36.9596 675.8035,-33.6269 683.8805,-30.6194"/>
<polygon fill="#191970" stroke="#191970" points="557.6595,-95.328 551.2577,-103.77 561.5267,-101.1628 557.6595,-95.328"/>
</g>
</g>
</svg>
        <g id="navigator" transform="translate(0 0)" fill="#404254">
                <rect fill="#f2f5e9" fill-opacity="0.5" stroke="#606060" stroke-width=".5" x="0" y="0" width="60" height="60"/>
                <use id="zoomplus" xlink:href="#zoomPlus" x="17" y="9" onmousedown="handleZoom(evt,'in')"/>
                <use id="zoomminus" xlink:href="#zoomMin" x="42" y="9" onmousedown="handleZoom(evt,'out')"/>
                <use id="reset" xlink:href="#resetDef" x="30" y="36" onmousedown="handleReset()"/>
                <g id="arrowUp" xlink:href="#dirArrow" transform="translate(30 24)" onmousedown="handlePan(0,-1)">
                  <use xlink:href="#rim" fill="#404040">
                        <set attributeName="fill" to="#808080" begin="arrowUp.mouseover" end="arrowUp.mouseout"/>
                  </use>
                  <path fill="none" stroke="white" stroke-width="1.5" d="M0,-3.0v7 M-2.5,-0.5L0,-3.0L2.5,-0.5"/>
                </g>
                <g id="arrowRight" xlink:href="#dirArrow" transform="rotate(90) translate(36 -43)" onmousedown="handlePan(1,0)">
                  <use xlink:href="#rim" fill="#404040">
                        <set attributeName="fill" to="#808080" begin="arrowRight.mouseover" end="arrowRight.mouseout"/>
                  </use>
                  <path fill="none" stroke="white" stroke-width="1.5" d="M0,-3.0v7 M-2.5,-0.5L0,-3.0L2.5,-0.5"/>
                </g>
                <g id="arrowDown" xlink:href="#dirArrow" transform="rotate(180) translate(-30 -48)" onmousedown="handlePan(0,1)">
                  <use xlink:href="#rim" fill="#404040">
                        <set attributeName="fill" to="#808080" begin="arrowDown.mouseover" end="arrowDown.mouseout"/>
                  </use>
                  <path fill="none" stroke="white" stroke-width="1.5" d="M0,-3.0v7 M-2.5,-0.5L0,-3.0L2.5,-0.5"/>
                </g>
                <g id="arrowLeft" xlink:href="#dirArrow" transform="rotate(270) translate(-36 17)" onmousedown="handlePan(-1,0)">
                  <use xlink:href="#rim" fill="#404040">
                        <set attributeName="fill" to="#808080" begin="arrowLeft.mouseover" end="arrowLeft.mouseout"/>
                  </use>
                  <path fill="none" stroke="white" stroke-width="1.5" d="M0,-3.0v7 M-2.5,-0.5L0,-3.0L2.5,-0.5"/>
                </g>
        </g>
        <svg viewBox="0 0 15 15" width="100%" height="30px" preserveAspectRatio="xMaxYMin meet">
         <g id="arrow_out" transform="scale(0.3 0.3)">
          <a xlink:href="classbase_class_f_e_m__inherit__graph_org.svg" target="_base">
           <rect id="button" ry="5" rx="5" y="6" x="6" height="38" width="38"
                fill="#f2f5e9" fill-opacity="0.5" stroke="#606060" stroke-width="1.0"/>
           <path id="arrow"
             d="M 11.500037,31.436501 C 11.940474,20.09759 22.043105,11.32322 32.158766,21.979434 L 37.068811,17.246167 C 37.068811,17.246167 37.088388,32 37.088388,32 L 22.160133,31.978069 C 22.160133,31.978069 26.997745,27.140456 26.997745,27.140456 C 18.528582,18.264221 13.291696,25.230495 11.500037,31.436501 z"
             style="fill:#404040;"/>
          </a>
         </g>
        </svg>
</svg>
