<?xml version="1.0" encoding="UTF-8" standalone="no"?>
<!DOCTYPE svg PUBLIC "-//W3C//DTD SVG 1.1//EN"
 "http://www.w3.org/Graphics/SVG/1.1/DTD/svg11.dtd">
<!-- Generated by graphviz version 2.40.1 (20161225.0304)
 -->
<!-- Title: src/laplacepp.hpp Pages: 1 -->
<!--zoomable 157 -->
<svg id="main" version="1.1" xmlns="http://www.w3.org/2000/svg" xmlns:xlink="http://www.w3.org/1999/xlink" xml:space="preserve" onload="init(evt)">
<style type="text/css"><![CDATA[
.edge:hover path { stroke: red; }
.edge:hover polygon { stroke: red; fill: red; }
]]></style>
<script type="text/javascript"><![CDATA[
var edges = document.getElementsByTagName('g');
if (edges && edges.length) {
  for (var i=0;i<edges.length;i++) {
    if (edges[i].id.substr(0,4)=='edge') {
      edges[i].setAttribute('class','edge');
    }
  }
}
]]></script>
        <defs>
                <circle id="rim" cx="0" cy="0" r="7"/>
                <circle id="rim2" cx="0" cy="0" r="3.5"/>
                <g id="zoomPlus">
                        <use xlink:href="#rim" fill="#404040">
                                <set attributeName="fill" to="#808080" begin="zoomplus.mouseover" end="zoomplus.mouseout"/>
                        </use>
                        <path d="M-4,0h8M0,-4v8" fill="none" stroke="white" stroke-width="1.5" pointer-events="none"/>
                </g>
                <g id="zoomMin">
                        <use xlink:href="#rim" fill="#404040">
                                <set attributeName="fill" to="#808080" begin="zoomminus.mouseover" end="zoomminus.mouseout"/>
                        </use>
                        <path d="M-4,0h8" fill="none" stroke="white" stroke-width="1.5" pointer-events="none"/>
                </g>
                <g id="dirArrow">
                        <path fill="none" stroke="white" stroke-width="1.5" d="M0,-3.0v7 M-2.5,-0.5L0,-3.0L2.5,-0.5"/>
                </g>
               <g id="resetDef">
                       <use xlink:href="#rim2" fill="#404040">
                               <set attributeName="fill" to="#808080" begin="reset.mouseover" end="reset.mouseout"/>
                       </use>
               </g>
        </defs>

<script type="text/javascript">
var viewWidth = 1274;
var viewHeight = 157;
var sectionId = 'dynsection-1';
</script>
<script xlink:href="../../svgpan.js"/>
<svg id="graph" class="graph">
<g id="viewport">
<title>src/laplacepp.hpp</title>
<polygon fill="#ffffff" stroke="transparent" points="-4,4 -4,-153 1270.0562,-153 1270.0562,4 -4,4"/>
<!-- Node35 -->
<g id="node1" class="node">
<title>Node35</title>
<polygon fill="#bfbfbf" stroke="#000000" points="472.1724,-130.5 472.1724,-148.5 566.5562,-148.5 566.5562,-130.5 472.1724,-130.5"/>
<text text-anchor="middle" x="519.3643" y="-136.5" font-family="Helvetica,sans-Serif" font-size="10.00" fill="#000000">src/laplacepp.hpp</text>
</g>
<!-- Node36 -->
<g id="node2" class="node">
<title>Node36</title>
<g id="a_node2"><a xlink:href="../../d4/d0f/examples_2laplace__aztec_2main_8cpp.html" target="_top" xlink:title="examples/laplace_aztec\l/main.cpp">
<polygon fill="#ffffff" stroke="#000000" points="0,-65.5 0,-93.5 122.7285,-93.5 122.7285,-65.5 0,-65.5"/>
<text text-anchor="start" x="8" y="-81.5" font-family="Helvetica,sans-Serif" font-size="10.00" fill="#000000">examples/laplace_aztec</text>
<text text-anchor="middle" x="61.3643" y="-71.5" font-family="Helvetica,sans-Serif" font-size="10.00" fill="#000000">/main.cpp</text>
</a>
</g>
</g>
<!-- Node35&#45;&gt;Node36 -->
<g id="edge1" class="edge">
<title>Node35&#45;&gt;Node36</title>
<path fill="none" stroke="#191970" d="M461.8496,-134.2687C386.0787,-127.0273 248.7879,-112.6981 132.3643,-94 129.2588,-93.5013 126.0829,-92.9616 122.8797,-92.3939"/>
<polygon fill="#191970" stroke="#191970" points="461.8386,-137.7833 472.1244,-135.2432 462.4995,-130.8146 461.8386,-137.7833"/>
</g>
<!-- Node37 -->
<g id="node3" class="node">
<title>Node37</title>
<g id="a_node3"><a xlink:href="../../d8/d16/examples_2laplace__stratimikos_2main_8cpp.html" target="_top" xlink:title="examples/laplace_stratimikos\l/main.cpp">
<polygon fill="#ffffff" stroke="#000000" points="141.0591,-65.5 141.0591,-93.5 287.6694,-93.5 287.6694,-65.5 141.0591,-65.5"/>
<text text-anchor="start" x="149.0591" y="-81.5" font-family="Helvetica,sans-Serif" font-size="10.00" fill="#000000">examples/laplace_stratimikos</text>
<text text-anchor="middle" x="214.3643" y="-71.5" font-family="Helvetica,sans-Serif" font-size="10.00" fill="#000000">/main.cpp</text>
</a>
</g>
</g>
<!-- Node35&#45;&gt;Node37 -->
<g id="edge2" class="edge">
<title>Node35&#45;&gt;Node37</title>
<path fill="none" stroke="#191970" d="M463.3887,-128.4884C413.3968,-118.6539 339.9069,-104.1969 285.7115,-93.5355"/>
<polygon fill="#191970" stroke="#191970" points="462.8849,-131.9563 473.3724,-130.4524 464.2361,-125.088 462.8849,-131.9563"/>
</g>
<!-- Node38 -->
<g id="node4" class="node">
<title>Node38</title>
<g id="a_node4"><a xlink:href="../../dd/d3d/dirichlet_inlet_outlet___polyconvex_h_g_o_8hpp.html" target="_top" xlink:title="src/dirichletInletOutlet\l_PolyconvexHGO.hpp">
<polygon fill="#ffffff" stroke="#000000" points="305.894,-65.5 305.894,-93.5 420.8345,-93.5 420.8345,-65.5 305.894,-65.5"/>
<text text-anchor="start" x="313.894" y="-81.5" font-family="Helvetica,sans-Serif" font-size="10.00" fill="#000000">src/dirichletInletOutlet</text>
<text text-anchor="middle" x="363.3643" y="-71.5" font-family="Helvetica,sans-Serif" font-size="10.00" fill="#000000">_PolyconvexHGO.hpp</text>
</a>
</g>
</g>
<!-- Node35&#45;&gt;Node38 -->
<g id="edge3" class="edge">
<title>Node35&#45;&gt;Node38</title>
<path fill="none" stroke="#191970" d="M486.1217,-126.7144C460.7685,-116.9632 425.8797,-103.5444 399.7747,-93.504"/>
<polygon fill="#191970" stroke="#191970" points="485.0813,-130.0641 495.6712,-130.3873 487.5942,-123.5307 485.0813,-130.0641"/>
</g>
<!-- Node40 -->
<g id="node6" class="node">
<title>Node40</title>
<g id="a_node6"><a xlink:href="../../d5/d0d/dirichlet_strip_elongation___stochastic_polyconvex_h_g_o_8hpp.html" target="_top" xlink:title="src/dirichletStripElongation\l_StochasticPolyconvexHGO.hpp">
<polygon fill="#ffffff" stroke="#000000" points="438.8276,-65.5 438.8276,-93.5 599.9009,-93.5 599.9009,-65.5 438.8276,-65.5"/>
<text text-anchor="start" x="446.8276" y="-81.5" font-family="Helvetica,sans-Serif" font-size="10.00" fill="#000000">src/dirichletStripElongation</text>
<text text-anchor="middle" x="519.3643" y="-71.5" font-family="Helvetica,sans-Serif" font-size="10.00" fill="#000000">_StochasticPolyconvexHGO.hpp</text>
</a>
</g>
</g>
<!-- Node35&#45;&gt;Node40 -->
<g id="edge5" class="edge">
<title>Node35&#45;&gt;Node40</title>
<path fill="none" stroke="#191970" d="M519.3643,-120.1865C519.3643,-111.6283 519.3643,-101.7354 519.3643,-93.8477"/>
<polygon fill="#191970" stroke="#191970" points="515.8644,-120.3873 519.3643,-130.3873 522.8644,-120.3873 515.8644,-120.3873"/>
</g>
<!-- Node42 -->
<g id="node8" class="node">
<title>Node42</title>
<g id="a_node8"><a xlink:href="../../dc/d31/laplacepp_8cpp.html" target="_top" xlink:title="src/laplacepp.cpp">
<polygon fill="#ffffff" stroke="#000000" points="617.4531,-70.5 617.4531,-88.5 711.2754,-88.5 711.2754,-70.5 617.4531,-70.5"/>
<text text-anchor="middle" x="664.3643" y="-76.5" font-family="Helvetica,sans-Serif" font-size="10.00" fill="#000000">src/laplacepp.cpp</text>
</a>
</g>
</g>
<!-- Node35&#45;&gt;Node42 -->
<g id="edge7" class="edge">
<title>Node35&#45;&gt;Node42</title>
<path fill="none" stroke="#191970" d="M550.6528,-126.553C578.3983,-115.0721 618.2009,-98.6021 642.6097,-88.5019"/>
<polygon fill="#191970" stroke="#191970" points="549.2886,-123.3297 541.3866,-130.3873 551.9651,-129.7978 549.2886,-123.3297"/>
</g>
<!-- Node43 -->
<g id="node9" class="node">
<title>Node43</title>
<g id="a_node9"><a xlink:href="../../d6/d14/neumann_inner_surface___polyconvex_h_g_o_8hpp.html" target="_top" xlink:title="src/neumannInnerSurface\l_PolyconvexHGO.hpp">
<polygon fill="#ffffff" stroke="#000000" points="728.8325,-65.5 728.8325,-93.5 859.896,-93.5 859.896,-65.5 728.8325,-65.5"/>
<text text-anchor="start" x="736.8325" y="-81.5" font-family="Helvetica,sans-Serif" font-size="10.00" fill="#000000">src/neumannInnerSurface</text>
<text text-anchor="middle" x="794.3643" y="-71.5" font-family="Helvetica,sans-Serif" font-size="10.00" fill="#000000">_PolyconvexHGO.hpp</text>
</a>
</g>
</g>
<!-- Node35&#45;&gt;Node43 -->
<g id="edge8" class="edge">
<title>Node35&#45;&gt;Node43</title>
<path fill="none" stroke="#191970" d="M570.6834,-128.3031C615.738,-118.473 681.4762,-104.1301 730.0348,-93.5355"/>
<polygon fill="#191970" stroke="#191970" points="569.8563,-124.9011 560.8323,-130.4524 571.3486,-131.7402 569.8563,-124.9011"/>
</g>
<!-- Node46 -->
<g id="node12" class="node">
<title>Node46</title>
<g id="a_node12"><a xlink:href="../../dc/da1/neumann_inner_surface___stochastic_polyconvex_h_g_o_8hpp.html" target="_top" xlink:title="src/neumannInnerSurface\l_StochasticPolyconvexHGO.hpp">
<polygon fill="#ffffff" stroke="#000000" points="934.8276,-65.5 934.8276,-93.5 1095.9009,-93.5 1095.9009,-65.5 934.8276,-65.5"/>
<text text-anchor="start" x="942.8276" y="-81.5" font-family="Helvetica,sans-Serif" font-size="10.00" fill="#000000">src/neumannInnerSurface</text>
<text text-anchor="middle" x="1015.3643" y="-71.5" font-family="Helvetica,sans-Serif" font-size="10.00" fill="#000000">_StochasticPolyconvexHGO.hpp</text>
</a>
</g>
</g>
<!-- Node35&#45;&gt;Node46 -->
<g id="edge11" class="edge">
<title>Node35&#45;&gt;Node46</title>
<path fill="none" stroke="#191970" d="M577.017,-132.5259C665.2688,-121.8503 834.1591,-101.42 934.578,-89.2725"/>
<polygon fill="#191970" stroke="#191970" points="576.4301,-129.0713 566.9228,-133.7469 577.2708,-136.0206 576.4301,-129.0713"/>
</g>
<!-- Node39 -->
<g id="node5" class="node">
<title>Node39</title>
<g id="a_node5"><a xlink:href="../../de/da1/arteries_2deterministic__dirichlet_2main_8cpp.html" target="_top" xlink:title="arteries/deterministic\l_dirichlet/main.cpp">
<polygon fill="#ffffff" stroke="#000000" points="309.2388,-.5 309.2388,-28.5 417.4897,-28.5 417.4897,-.5 309.2388,-.5"/>
<text text-anchor="start" x="317.2388" y="-16.5" font-family="Helvetica,sans-Serif" font-size="10.00" fill="#000000">arteries/deterministic</text>
<text text-anchor="middle" x="363.3643" y="-6.5" font-family="Helvetica,sans-Serif" font-size="10.00" fill="#000000">_dirichlet/main.cpp</text>
</a>
</g>
</g>
<!-- Node38&#45;&gt;Node39 -->
<g id="edge4" class="edge">
<title>Node38&#45;&gt;Node39</title>
<path fill="none" stroke="#191970" d="M363.3643,-55.1081C363.3643,-46.1539 363.3643,-36.3227 363.3643,-28.5765"/>
<polygon fill="#191970" stroke="#191970" points="359.8644,-55.3959 363.3643,-65.396 366.8644,-55.396 359.8644,-55.3959"/>
</g>
<!-- Node41 -->
<g id="node7" class="node">
<title>Node41</title>
<g id="a_node7"><a xlink:href="../../dc/dba/arteries_2strip__dirichlet_2main_8cpp.html" target="_top" xlink:title="arteries/strip_dirichlet\l/main.cpp">
<polygon fill="#ffffff" stroke="#000000" points="463.8472,-.5 463.8472,-28.5 574.8813,-28.5 574.8813,-.5 463.8472,-.5"/>
<text text-anchor="start" x="471.8472" y="-16.5" font-family="Helvetica,sans-Serif" font-size="10.00" fill="#000000">arteries/strip_dirichlet</text>
<text text-anchor="middle" x="519.3643" y="-6.5" font-family="Helvetica,sans-Serif" font-size="10.00" fill="#000000">/main.cpp</text>
</a>
</g>
</g>
<!-- Node40&#45;&gt;Node41 -->
<g id="edge6" class="edge">
<title>Node40&#45;&gt;Node41</title>
<path fill="none" stroke="#191970" d="M519.3643,-55.1081C519.3643,-46.1539 519.3643,-36.3227 519.3643,-28.5765"/>
<polygon fill="#191970" stroke="#191970" points="515.8644,-55.3959 519.3643,-65.396 522.8644,-55.396 515.8644,-55.3959"/>
</g>
<!-- Node44 -->
<g id="node10" class="node">
<title>Node44</title>
<g id="a_node10"><a xlink:href="../../d9/d81/arteries_2deterministic__neumann_2main_8cpp.html" target="_top" xlink:title="arteries/deterministic\l_neumann/main.cpp">
<polygon fill="#ffffff" stroke="#000000" points="599.2388,-.5 599.2388,-28.5 707.4897,-28.5 707.4897,-.5 599.2388,-.5"/>
<text text-anchor="start" x="607.2388" y="-16.5" font-family="Helvetica,sans-Serif" font-size="10.00" fill="#000000">arteries/deterministic</text>
<text text-anchor="middle" x="653.3643" y="-6.5" font-family="Helvetica,sans-Serif" font-size="10.00" fill="#000000">_neumann/main.cpp</text>
</a>
</g>
</g>
<!-- Node43&#45;&gt;Node44 -->
<g id="edge9" class="edge">
<title>Node43&#45;&gt;Node44</title>
<path fill="none" stroke="#191970" d="M754.5166,-61.1305C732.1127,-50.8025 704.5804,-38.1103 683.8994,-28.5765"/>
<polygon fill="#191970" stroke="#191970" points="753.2226,-64.3879 763.7694,-65.396 756.1532,-58.0309 753.2226,-64.3879"/>
</g>
<!-- Node45 -->
<g id="node11" class="node">
<title>Node45</title>
<g id="a_node11"><a xlink:href="../../db/db7/arteries_2vonmises_2main_8cpp.html" target="_top" xlink:title="arteries/vonmises/main.cpp">
<polygon fill="#ffffff" stroke="#000000" points="725.5073,-5.5 725.5073,-23.5 863.2212,-23.5 863.2212,-5.5 725.5073,-5.5"/>
<text text-anchor="middle" x="794.3643" y="-11.5" font-family="Helvetica,sans-Serif" font-size="10.00" fill="#000000">arteries/vonmises/main.cpp</text>
</a>
</g>
</g>
<!-- Node43&#45;&gt;Node45 -->
<g id="edge10" class="edge">
<title>Node43&#45;&gt;Node45</title>
<path fill="none" stroke="#191970" d="M794.3643,-55.3747C794.3643,-44.2832 794.3643,-31.7952 794.3643,-23.5743"/>
<polygon fill="#191970" stroke="#191970" points="790.8644,-55.3959 794.3643,-65.396 797.8644,-55.396 790.8644,-55.3959"/>
</g>
<!-- Node47 -->
<g id="node13" class="node">
<title>Node47</title>
<g id="a_node13"><a xlink:href="../../d5/da5/arteries_2boost__gmrf_2gmrf__gauss_2main_8cpp.html" target="_top" xlink:title="arteries/boost_gmrf\l/gmrf_gauss/main.cpp">
<polygon fill="#ffffff" stroke="#000000" points="881.1748,-.5 881.1748,-28.5 995.5537,-28.5 995.5537,-.5 881.1748,-.5"/>
<text text-anchor="start" x="889.1748" y="-16.5" font-family="Helvetica,sans-Serif" font-size="10.00" fill="#000000">arteries/boost_gmrf</text>
<text text-anchor="middle" x="938.3643" y="-6.5" font-family="Helvetica,sans-Serif" font-size="10.00" fill="#000000">/gmrf_gauss/main.cpp</text>
</a>
</g>
</g>
<!-- Node46&#45;&gt;Node47 -->
<g id="edge12" class="edge">
<title>Node46&#45;&gt;Node47</title>
<path fill="none" stroke="#191970" d="M990.9413,-58.8832C979.2399,-49.0054 965.5267,-37.4293 955.0395,-28.5765"/>
<polygon fill="#191970" stroke="#191970" points="988.7573,-61.6199 998.6564,-65.396 993.2727,-56.2709 988.7573,-61.6199"/>
</g>
<!-- Node48 -->
<g id="node14" class="node">
<title>Node48</title>
<g id="a_node14"><a xlink:href="../../d2/dbe/arteries_2boost__gmrf_2gmrf__nodes_2main_8cpp.html" target="_top" xlink:title="arteries/boost_gmrf\l/gmrf_nodes/main.cpp">
<polygon fill="#ffffff" stroke="#000000" points="1013.894,-.5 1013.894,-28.5 1128.8345,-28.5 1128.8345,-.5 1013.894,-.5"/>
<text text-anchor="start" x="1021.894" y="-16.5" font-family="Helvetica,sans-Serif" font-size="10.00" fill="#000000">arteries/boost_gmrf</text>
<text text-anchor="middle" x="1071.3643" y="-6.5" font-family="Helvetica,sans-Serif" font-size="10.00" fill="#000000">/gmrf_nodes/main.cpp</text>
</a>
</g>
</g>
<!-- Node46&#45;&gt;Node48 -->
<g id="edge13" class="edge">
<title>Node46&#45;&gt;Node48</title>
<path fill="none" stroke="#191970" d="M1034.1146,-57.7362C1042.4002,-48.119 1051.9031,-37.0888 1059.2368,-28.5765"/>
<polygon fill="#191970" stroke="#191970" points="1031.3909,-55.5354 1027.5154,-65.396 1036.6942,-60.1044 1031.3909,-55.5354"/>
</g>
<!-- Node49 -->
<g id="node15" class="node">
<title>Node49</title>
<g id="a_node15"><a xlink:href="../../da/df3/arteries_2gmrf__neumann_2main_8cpp.html" target="_top" xlink:title="arteries/gmrf_neumann\l/main.cpp">
<polygon fill="#ffffff" stroke="#000000" points="1146.6724,-.5 1146.6724,-28.5 1266.0562,-28.5 1266.0562,-.5 1146.6724,-.5"/>
<text text-anchor="start" x="1154.6724" y="-16.5" font-family="Helvetica,sans-Serif" font-size="10.00" fill="#000000">arteries/gmrf_neumann</text>
<text text-anchor="middle" x="1206.3643" y="-6.5" font-family="Helvetica,sans-Serif" font-size="10.00" fill="#000000">/main.cpp</text>
</a>
</g>
</g>
<!-- Node46&#45;&gt;Node49 -->
<g id="edge14" class="edge">
<title>Node46&#45;&gt;Node49</title>
<path fill="none" stroke="#191970" d="M1066.518,-62.0917C1097.3508,-51.5988 1136.1109,-38.4082 1165.001,-28.5765"/>
<polygon fill="#191970" stroke="#191970" points="1065.1476,-58.8608 1056.8084,-65.396 1067.4029,-65.4876 1065.1476,-58.8608"/>
</g>
</g>
</svg>
        <g id="navigator" transform="translate(0 0)" fill="#404254">
                <rect fill="#f2f5e9" fill-opacity="0.5" stroke="#606060" stroke-width=".5" x="0" y="0" width="60" height="60"/>
                <use id="zoomplus" xlink:href="#zoomPlus" x="17" y="9" onmousedown="handleZoom(evt,'in')"/>
                <use id="zoomminus" xlink:href="#zoomMin" x="42" y="9" onmousedown="handleZoom(evt,'out')"/>
                <use id="reset" xlink:href="#resetDef" x="30" y="36" onmousedown="handleReset()"/>
                <g id="arrowUp" xlink:href="#dirArrow" transform="translate(30 24)" onmousedown="handlePan(0,-1)">
                  <use xlink:href="#rim" fill="#404040">
                        <set attributeName="fill" to="#808080" begin="arrowUp.mouseover" end="arrowUp.mouseout"/>
                  </use>
                  <path fill="none" stroke="white" stroke-width="1.5" d="M0,-3.0v7 M-2.5,-0.5L0,-3.0L2.5,-0.5"/>
                </g>
                <g id="arrowRight" xlink:href="#dirArrow" transform="rotate(90) translate(36 -43)" onmousedown="handlePan(1,0)">
                  <use xlink:href="#rim" fill="#404040">
                        <set attributeName="fill" to="#808080" begin="arrowRight.mouseover" end="arrowRight.mouseout"/>
                  </use>
                  <path fill="none" stroke="white" stroke-width="1.5" d="M0,-3.0v7 M-2.5,-0.5L0,-3.0L2.5,-0.5"/>
                </g>
                <g id="arrowDown" xlink:href="#dirArrow" transform="rotate(180) translate(-30 -48)" onmousedown="handlePan(0,1)">
                  <use xlink:href="#rim" fill="#404040">
                        <set attributeName="fill" to="#808080" begin="arrowDown.mouseover" end="arrowDown.mouseout"/>
                  </use>
                  <path fill="none" stroke="white" stroke-width="1.5" d="M0,-3.0v7 M-2.5,-0.5L0,-3.0L2.5,-0.5"/>
                </g>
                <g id="arrowLeft" xlink:href="#dirArrow" transform="rotate(270) translate(-36 17)" onmousedown="handlePan(-1,0)">
                  <use xlink:href="#rim" fill="#404040">
                        <set attributeName="fill" to="#808080" begin="arrowLeft.mouseover" end="arrowLeft.mouseout"/>
                  </use>
                  <path fill="none" stroke="white" stroke-width="1.5" d="M0,-3.0v7 M-2.5,-0.5L0,-3.0L2.5,-0.5"/>
                </g>
        </g>
        <svg viewBox="0 0 15 15" width="100%" height="30px" preserveAspectRatio="xMaxYMin meet">
         <g id="arrow_out" transform="scale(0.3 0.3)">
          <a xlink:href="laplacepp_8hpp__dep__incl_org.svg" target="_base">
           <rect id="button" ry="5" rx="5" y="6" x="6" height="38" width="38"
                fill="#f2f5e9" fill-opacity="0.5" stroke="#606060" stroke-width="1.0"/>
           <path id="arrow"
             d="M 11.500037,31.436501 C 11.940474,20.09759 22.043105,11.32322 32.158766,21.979434 L 37.068811,17.246167 C 37.068811,17.246167 37.088388,32 37.088388,32 L 22.160133,31.978069 C 22.160133,31.978069 26.997745,27.140456 26.997745,27.140456 C 18.528582,18.264221 13.291696,25.230495 11.500037,31.436501 z"
             style="fill:#404040;"/>
          </a>
         </g>
        </svg>
</svg>
