<?xml version="1.0" encoding="UTF-8" standalone="no"?>
<!DOCTYPE svg PUBLIC "-//W3C//DTD SVG 1.1//EN"
 "http://www.w3.org/Graphics/SVG/1.1/DTD/svg11.dtd">
<!-- Generated by graphviz version 2.40.1 (20161225.0304)
 -->
<!-- Title: arteries/strip_dirichlet/main.cpp Pages: 1 -->
<svg width="2665pt" height="442pt"
 viewBox="0.00 0.00 2664.60 442.00" xmlns="http://www.w3.org/2000/svg" xmlns:xlink="http://www.w3.org/1999/xlink">
<g id="graph0" class="graph" transform="scale(1 1) rotate(0) translate(4 438)">
<title>arteries/strip_dirichlet/main.cpp</title>
<polygon fill="#ffffff" stroke="transparent" points="-4,4 -4,-438 2660.6006,-438 2660.6006,4 -4,4"/>
<!-- Node0 -->
<g id="node1" class="node">
<title>Node0</title>
<polygon fill="#bfbfbf" stroke="#000000" points="996.8745,-405.5 996.8745,-433.5 1107.9087,-433.5 1107.9087,-405.5 996.8745,-405.5"/>
<text text-anchor="start" x="1004.8745" y="-421.5" font-family="Helvetica,sans-Serif" font-size="10.00" fill="#000000">arteries/strip_dirichlet</text>
<text text-anchor="middle" x="1052.3916" y="-411.5" font-family="Helvetica,sans-Serif" font-size="10.00" fill="#000000">/main.cpp</text>
</g>
<!-- Node1 -->
<g id="node2" class="node">
<title>Node1</title>
<polygon fill="#ffffff" stroke="#bfbfbf" points="329.9756,-345.5 329.9756,-363.5 438.8076,-363.5 438.8076,-345.5 329.9756,-345.5"/>
<text text-anchor="middle" x="384.3916" y="-351.5" font-family="Helvetica,sans-Serif" font-size="10.00" fill="#000000">Epetra_ConfigDefs.h</text>
</g>
<!-- Node0&#45;&gt;Node1 -->
<g id="edge1" class="edge">
<title>Node0&#45;&gt;Node1</title>
<path fill="none" stroke="#191970" d="M996.7086,-417.44C889.8527,-412.9139 648.8439,-399.933 448.3916,-369 442.4769,-368.0873 436.2947,-366.9386 430.2039,-365.6892"/>
<polygon fill="#191970" stroke="#191970" points="430.6157,-362.1977 420.1031,-363.5153 429.1429,-369.041 430.6157,-362.1977"/>
</g>
<!-- Node2 -->
<g id="node3" class="node">
<title>Node2</title>
<polygon fill="#ffffff" stroke="#bfbfbf" points="457.2046,-345.5 457.2046,-363.5 571.5786,-363.5 571.5786,-345.5 457.2046,-345.5"/>
<text text-anchor="middle" x="514.3916" y="-351.5" font-family="Helvetica,sans-Serif" font-size="10.00" fill="#000000">Epetra_SerialComm.h</text>
</g>
<!-- Node0&#45;&gt;Node2 -->
<g id="edge2" class="edge">
<title>Node0&#45;&gt;Node2</title>
<path fill="none" stroke="#191970" d="M996.5407,-415.5191C907.9306,-408.7556 729.8552,-393.3387 580.3916,-369 574.5315,-368.0457 568.409,-366.9021 562.3568,-365.6812"/>
<polygon fill="#191970" stroke="#191970" points="562.8018,-362.1985 552.2965,-363.5735 561.3663,-369.0498 562.8018,-362.1985"/>
</g>
<!-- Node3 -->
<g id="node4" class="node">
<title>Node3</title>
<polygon fill="#ffffff" stroke="#bfbfbf" points="589.5054,-345.5 589.5054,-363.5 777.2778,-363.5 777.2778,-345.5 589.5054,-345.5"/>
<text text-anchor="middle" x="683.3916" y="-351.5" font-family="Helvetica,sans-Serif" font-size="10.00" fill="#000000">Teuchos_CommandLineProcessor.hpp</text>
</g>
<!-- Node0&#45;&gt;Node3 -->
<g id="edge3" class="edge">
<title>Node0&#45;&gt;Node3</title>
<path fill="none" stroke="#191970" d="M996.749,-409.6985C929.0093,-397.766 814.9818,-377.6798 744.753,-365.3089"/>
<polygon fill="#191970" stroke="#191970" points="745.1755,-361.8295 734.7199,-363.5416 743.9611,-368.7234 745.1755,-361.8295"/>
</g>
<!-- Node4 -->
<g id="node5" class="node">
<title>Node4</title>
<polygon fill="#ffffff" stroke="#bfbfbf" points="1128.5103,-280.5 1128.5103,-298.5 1306.2729,-298.5 1306.2729,-280.5 1128.5103,-280.5"/>
<text text-anchor="middle" x="1217.3916" y="-286.5" font-family="Helvetica,sans-Serif" font-size="10.00" fill="#000000">Teuchos_StandardCatchMacros.hpp</text>
</g>
<!-- Node0&#45;&gt;Node4 -->
<g id="edge4" class="edge">
<title>Node0&#45;&gt;Node4</title>
<path fill="none" stroke="#191970" d="M1070.3636,-405.3402C1101.5129,-380.7984 1165.2911,-330.5489 1197.6383,-305.0632"/>
<polygon fill="#191970" stroke="#191970" points="1200.1863,-307.5115 1205.8752,-298.5736 1195.8542,-302.0131 1200.1863,-307.5115"/>
</g>
<!-- Node5 -->
<g id="node6" class="node">
<title>Node5</title>
<polygon fill="#ffffff" stroke="#bfbfbf" points="1324.1333,-280.5 1324.1333,-298.5 1464.6499,-298.5 1464.6499,-280.5 1324.1333,-280.5"/>
<text text-anchor="middle" x="1394.3916" y="-286.5" font-family="Helvetica,sans-Serif" font-size="10.00" fill="#000000">Teuchos_ParameterList.hpp</text>
</g>
<!-- Node0&#45;&gt;Node5 -->
<g id="edge5" class="edge">
<title>Node0&#45;&gt;Node5</title>
<path fill="none" stroke="#191970" d="M1089.3165,-405.4642C1156.2085,-380.0374 1296.4551,-326.7273 1360.8116,-302.2643"/>
<polygon fill="#191970" stroke="#191970" points="1362.3622,-305.4193 1370.466,-298.5945 1359.8749,-298.8761 1362.3622,-305.4193"/>
</g>
<!-- Node6 -->
<g id="node7" class="node">
<title>Node6</title>
<polygon fill="#ffffff" stroke="#bfbfbf" points="1482.584,-275.5 1482.584,-303.5 1624.1992,-303.5 1624.1992,-275.5 1482.584,-275.5"/>
<text text-anchor="start" x="1490.584" y="-291.5" font-family="Helvetica,sans-Serif" font-size="10.00" fill="#000000">Teuchos_XMLParameterList</text>
<text text-anchor="middle" x="1553.3916" y="-281.5" font-family="Helvetica,sans-Serif" font-size="10.00" fill="#000000">CoreHelpers.hpp</text>
</g>
<!-- Node0&#45;&gt;Node6 -->
<g id="edge6" class="edge">
<title>Node0&#45;&gt;Node6</title>
<path fill="none" stroke="#191970" d="M1106.4834,-405.4642C1199.5619,-381.3121 1389.5943,-332.0023 1489.2105,-306.1538"/>
<polygon fill="#191970" stroke="#191970" points="1490.3462,-309.4751 1499.1465,-303.5756 1488.588,-302.6995 1490.3462,-309.4751"/>
</g>
<!-- Node7 -->
<g id="node8" class="node">
<title>Node7</title>
<g id="a_node8"><a xlink:href="../../d5/d0d/dirichlet_strip_elongation___stochastic_polyconvex_h_g_o_8hpp.html" target="_top" xlink:title="dirichletStripElongation\l_StochasticPolyconvexHGO.hpp">
<polygon fill="#ffffff" stroke="#000000" points="794.855,-340.5 794.855,-368.5 955.9282,-368.5 955.9282,-340.5 794.855,-340.5"/>
<text text-anchor="start" x="802.855" y="-356.5" font-family="Helvetica,sans-Serif" font-size="10.00" fill="#000000">dirichletStripElongation</text>
<text text-anchor="middle" x="875.3916" y="-346.5" font-family="Helvetica,sans-Serif" font-size="10.00" fill="#000000">_StochasticPolyconvexHGO.hpp</text>
</a>
</g>
</g>
<!-- Node0&#45;&gt;Node7 -->
<g id="edge7" class="edge">
<title>Node0&#45;&gt;Node7</title>
<path fill="none" stroke="#191970" d="M1013.9852,-405.396C987.4277,-395.6432 951.8963,-382.5949 923.4593,-372.152"/>
<polygon fill="#191970" stroke="#191970" points="924.3166,-368.7383 913.723,-368.5765 921.9035,-375.3093 924.3166,-368.7383"/>
</g>
<!-- Node51 -->
<g id="node41" class="node">
<title>Node51</title>
<polygon fill="#ffffff" stroke="#bfbfbf" points="993.8057,-275.5 993.8057,-303.5 1110.9775,-303.5 1110.9775,-275.5 993.8057,-275.5"/>
<text text-anchor="start" x="1001.8057" y="-291.5" font-family="Helvetica,sans-Serif" font-size="10.00" fill="#000000">boost/math/special</text>
<text text-anchor="middle" x="1052.3916" y="-281.5" font-family="Helvetica,sans-Serif" font-size="10.00" fill="#000000">_functions/gamma.hpp</text>
</g>
<!-- Node0&#45;&gt;Node51 -->
<g id="edge58" class="edge">
<title>Node0&#45;&gt;Node51</title>
<path fill="none" stroke="#191970" d="M1052.3916,-405.3402C1052.3916,-383.3618 1052.3916,-340.7655 1052.3916,-313.8021"/>
<polygon fill="#191970" stroke="#191970" points="1055.8917,-313.6423 1052.3916,-303.6423 1048.8917,-313.6423 1055.8917,-313.6423"/>
</g>
<!-- Node53 -->
<g id="node43" class="node">
<title>Node53</title>
<g id="a_node43"><a xlink:href="../../d1/d11/newton_raphson_8hpp.html" target="_top" xlink:title="newtonRaphson.hpp">
<polygon fill="#ffffff" stroke="#000000" points="1831.5225,-345.5 1831.5225,-363.5 1939.2607,-363.5 1939.2607,-345.5 1831.5225,-345.5"/>
<text text-anchor="middle" x="1885.3916" y="-351.5" font-family="Helvetica,sans-Serif" font-size="10.00" fill="#000000">newtonRaphson.hpp</text>
</a>
</g>
</g>
<!-- Node0&#45;&gt;Node53 -->
<g id="edge45" class="edge">
<title>Node0&#45;&gt;Node53</title>
<path fill="none" stroke="#191970" d="M1108.0159,-415.1596C1256.7533,-403.5534 1663.0575,-371.849 1821.2026,-359.5087"/>
<polygon fill="#191970" stroke="#191970" points="1821.5577,-362.9918 1831.2551,-358.7243 1821.0131,-356.013 1821.5577,-362.9918"/>
</g>
<!-- Node8 -->
<g id="node9" class="node">
<title>Node8</title>
<g id="a_node9"><a xlink:href="../../de/d49/tensor__calculus_8hpp.html" target="_top" xlink:title="tensor_calculus.hpp">
<polygon fill="#ffffff" stroke="#000000" points="912.9189,-165.5 912.9189,-183.5 1017.8643,-183.5 1017.8643,-165.5 912.9189,-165.5"/>
<text text-anchor="middle" x="965.3916" y="-171.5" font-family="Helvetica,sans-Serif" font-size="10.00" fill="#000000">tensor_calculus.hpp</text>
</a>
</g>
</g>
<!-- Node7&#45;&gt;Node8 -->
<g id="edge8" class="edge">
<title>Node7&#45;&gt;Node8</title>
<path fill="none" stroke="#191970" d="M905.4689,-340.4145C920.1834,-331.9482 936.7598,-319.7412 946.3916,-304 967.458,-269.5714 968.4377,-220.5748 967.0631,-193.8008"/>
<polygon fill="#191970" stroke="#191970" points="970.553,-193.5331 966.3815,-183.7941 963.5692,-194.0089 970.553,-193.5331"/>
</g>
<!-- Node41 -->
<g id="node31" class="node">
<title>Node41</title>
<g id="a_node31"><a xlink:href="../../d5/d3f/laplacepp_8hpp.html" target="_top" xlink:title="laplacepp.hpp">
<polygon fill="#ffffff" stroke="#000000" points="255.2539,-280.5 255.2539,-298.5 333.5293,-298.5 333.5293,-280.5 255.2539,-280.5"/>
<text text-anchor="middle" x="294.3916" y="-286.5" font-family="Helvetica,sans-Serif" font-size="10.00" fill="#000000">laplacepp.hpp</text>
</a>
</g>
</g>
<!-- Node7&#45;&gt;Node41 -->
<g id="edge30" class="edge">
<title>Node7&#45;&gt;Node41</title>
<path fill="none" stroke="#191970" d="M794.4248,-341.0247C791.7169,-340.6648 789.0334,-340.3218 786.3916,-340 589.8631,-316.0628 536.916,-340.8334 342.3916,-304 338.5092,-303.2649 334.4946,-302.3346 330.5166,-301.3014"/>
<polygon fill="#191970" stroke="#191970" points="331.374,-297.9069 320.8002,-298.5741 329.4822,-304.6464 331.374,-297.9069"/>
</g>
<!-- Node44 -->
<g id="node34" class="node">
<title>Node44</title>
<g id="a_node34"><a xlink:href="../../dc/de0/nearly_incompressible_hyperelasticity_8hpp.html" target="_top" xlink:title="nearlyIncompressibleHyperelasticity.hpp">
<polygon fill="#ffffff" stroke="#000000" points="601.2754,-280.5 601.2754,-298.5 795.5078,-298.5 795.5078,-280.5 601.2754,-280.5"/>
<text text-anchor="middle" x="698.3916" y="-286.5" font-family="Helvetica,sans-Serif" font-size="10.00" fill="#000000">nearlyIncompressibleHyperelasticity.hpp</text>
</a>
</g>
</g>
<!-- Node7&#45;&gt;Node44 -->
<g id="edge34" class="edge">
<title>Node7&#45;&gt;Node44</title>
<path fill="none" stroke="#191970" d="M836.9852,-340.396C805.927,-328.9904 762.5957,-313.0778 732.6913,-302.0959"/>
<polygon fill="#191970" stroke="#191970" points="733.6952,-298.7361 723.1016,-298.5743 731.2821,-305.3071 733.6952,-298.7361"/>
</g>
<!-- Node47 -->
<g id="node37" class="node">
<title>Node47</title>
<polygon fill="#ffffff" stroke="#bfbfbf" points="813.1948,-275.5 813.1948,-303.5 937.5884,-303.5 937.5884,-275.5 813.1948,-275.5"/>
<text text-anchor="start" x="821.1948" y="-291.5" font-family="Helvetica,sans-Serif" font-size="10.00" fill="#000000">boost/random/mersenne</text>
<text text-anchor="middle" x="875.3916" y="-281.5" font-family="Helvetica,sans-Serif" font-size="10.00" fill="#000000">_twister.hpp</text>
</g>
<!-- Node7&#45;&gt;Node47 -->
<g id="edge39" class="edge">
<title>Node7&#45;&gt;Node47</title>
<path fill="none" stroke="#191970" d="M875.3916,-340.396C875.3916,-332.6448 875.3916,-322.8122 875.3916,-313.8601"/>
<polygon fill="#191970" stroke="#191970" points="878.8917,-313.5765 875.3916,-303.5765 871.8917,-313.5765 878.8917,-313.5765"/>
</g>
<!-- Node48 -->
<g id="node38" class="node">
<title>Node48</title>
<polygon fill="#ffffff" stroke="#bfbfbf" points="6.7563,-275.5 6.7563,-303.5 120.0269,-303.5 120.0269,-275.5 6.7563,-275.5"/>
<text text-anchor="start" x="14.7563" y="-291.5" font-family="Helvetica,sans-Serif" font-size="10.00" fill="#000000">boost/random/uniform</text>
<text text-anchor="middle" x="63.3916" y="-281.5" font-family="Helvetica,sans-Serif" font-size="10.00" fill="#000000">_real_distribution.hpp</text>
</g>
<!-- Node7&#45;&gt;Node48 -->
<g id="edge40" class="edge">
<title>Node7&#45;&gt;Node48</title>
<path fill="none" stroke="#191970" d="M794.4352,-340.934C791.7244,-340.6 789.0374,-340.2871 786.3916,-340 498.4887,-308.7619 420.276,-343.2283 130.3274,-304.1279"/>
<polygon fill="#191970" stroke="#191970" points="130.7469,-300.6527 120.3651,-302.7669 129.7993,-307.5883 130.7469,-300.6527"/>
</g>
<!-- Node49 -->
<g id="node39" class="node">
<title>Node49</title>
<polygon fill="#ffffff" stroke="#bfbfbf" points="137.7021,-275.5 137.7021,-303.5 237.0811,-303.5 237.0811,-275.5 137.7021,-275.5"/>
<text text-anchor="start" x="145.7021" y="-291.5" font-family="Helvetica,sans-Serif" font-size="10.00" fill="#000000">boost/math/special</text>
<text text-anchor="middle" x="187.3916" y="-281.5" font-family="Helvetica,sans-Serif" font-size="10.00" fill="#000000">_functions/erf.hpp</text>
</g>
<!-- Node7&#45;&gt;Node49 -->
<g id="edge41" class="edge">
<title>Node7&#45;&gt;Node49</title>
<path fill="none" stroke="#191970" d="M794.4306,-340.9752C791.7211,-340.6294 789.0357,-340.3028 786.3916,-340 550.6883,-313.0044 485.8506,-340.0818 247.1873,-303.9193"/>
<polygon fill="#191970" stroke="#191970" points="247.5772,-300.4382 237.1616,-302.3788 246.514,-307.357 247.5772,-300.4382"/>
</g>
<!-- Node50 -->
<g id="node40" class="node">
<title>Node50</title>
<polygon fill="#ffffff" stroke="#bfbfbf" points="351.1455,-275.5 351.1455,-303.5 461.6377,-303.5 461.6377,-275.5 351.1455,-275.5"/>
<text text-anchor="start" x="359.1455" y="-291.5" font-family="Helvetica,sans-Serif" font-size="10.00" fill="#000000">boost/random/normal</text>
<text text-anchor="middle" x="406.3916" y="-281.5" font-family="Helvetica,sans-Serif" font-size="10.00" fill="#000000">_distribution.hpp</text>
</g>
<!-- Node7&#45;&gt;Node50 -->
<g id="edge42" class="edge">
<title>Node7&#45;&gt;Node50</title>
<path fill="none" stroke="#191970" d="M794.4102,-341.137C791.7065,-340.7449 789.0279,-340.3647 786.3916,-340 649.6539,-321.0835 611.525,-327.3375 472.0414,-304.1679"/>
<polygon fill="#191970" stroke="#191970" points="472.2628,-300.656 461.8207,-302.448 471.1012,-307.5589 472.2628,-300.656"/>
</g>
<!-- Node7&#45;&gt;Node51 -->
<g id="edge43" class="edge">
<title>Node7&#45;&gt;Node51</title>
<path fill="none" stroke="#191970" d="M913.798,-340.396C940.3555,-330.6432 975.8869,-317.5949 1004.3239,-307.152"/>
<polygon fill="#191970" stroke="#191970" points="1005.8797,-310.3093 1014.0602,-303.5765 1003.4666,-303.7383 1005.8797,-310.3093"/>
</g>
<!-- Node52 -->
<g id="node42" class="node">
<title>Node52</title>
<polygon fill="#ffffff" stroke="#bfbfbf" points="479.7466,-275.5 479.7466,-303.5 583.0366,-303.5 583.0366,-275.5 479.7466,-275.5"/>
<text text-anchor="start" x="487.7466" y="-291.5" font-family="Helvetica,sans-Serif" font-size="10.00" fill="#000000">boost/math/special</text>
<text text-anchor="middle" x="531.3916" y="-281.5" font-family="Helvetica,sans-Serif" font-size="10.00" fill="#000000">_functions/beta.hpp</text>
</g>
<!-- Node7&#45;&gt;Node52 -->
<g id="edge44" class="edge">
<title>Node7&#45;&gt;Node52</title>
<path fill="none" stroke="#191970" d="M794.6478,-341.3453C740.3454,-332.2056 666.9414,-319.2881 593.1946,-304.1005"/>
<polygon fill="#191970" stroke="#191970" points="593.7633,-300.6441 583.261,-302.0412 592.3423,-307.4983 593.7633,-300.6441"/>
</g>
<!-- Node9 -->
<g id="node10" class="node">
<title>Node9</title>
<g id="a_node10"><a xlink:href="../../d0/d02/meshpp_8hpp.html" target="_top" xlink:title="meshpp.hpp">
<polygon fill="#ffffff" stroke="#ff0000" points="879.8721,-55.5 879.8721,-73.5 950.9111,-73.5 950.9111,-55.5 879.8721,-55.5"/>
<text text-anchor="middle" x="915.3916" y="-61.5" font-family="Helvetica,sans-Serif" font-size="10.00" fill="#000000">meshpp.hpp</text>
</a>
</g>
</g>
<!-- Node8&#45;&gt;Node9 -->
<g id="edge9" class="edge">
<title>Node8&#45;&gt;Node9</title>
<path fill="none" stroke="#191970" d="M961.2999,-165.4982C953.1326,-147.5302 934.6623,-106.8954 923.8028,-83.0046"/>
<polygon fill="#191970" stroke="#191970" points="926.8642,-81.2815 919.5398,-73.6261 920.4916,-84.1781 926.8642,-81.2815"/>
</g>
<!-- Node10 -->
<g id="node11" class="node">
<title>Node10</title>
<polygon fill="#ffffff" stroke="#bfbfbf" points="1939.6602,-.5 1939.6602,-18.5 1985.123,-18.5 1985.123,-.5 1939.6602,-.5"/>
<text text-anchor="middle" x="1962.3916" y="-6.5" font-family="Helvetica,sans-Serif" font-size="10.00" fill="#000000">stdio.h</text>
</g>
<!-- Node9&#45;&gt;Node10 -->
<g id="edge10" class="edge">
<title>Node9&#45;&gt;Node10</title>
<path fill="none" stroke="#191970" d="M950.9577,-64.1102C1105.0935,-62.2394 1716.8004,-52.8958 1929.4047,-18.9025"/>
<polygon fill="#191970" stroke="#191970" points="1930.2385,-22.3118 1939.5254,-17.2124 1929.0855,-15.4074 1930.2385,-22.3118"/>
</g>
<!-- Node11 -->
<g id="node12" class="node">
<title>Node11</title>
<polygon fill="#ffffff" stroke="#bfbfbf" points="2003.2192,-.5 2003.2192,-18.5 2057.564,-18.5 2057.564,-.5 2003.2192,-.5"/>
<text text-anchor="middle" x="2030.3916" y="-6.5" font-family="Helvetica,sans-Serif" font-size="10.00" fill="#000000">iostream</text>
</g>
<!-- Node9&#45;&gt;Node11 -->
<g id="edge11" class="edge">
<title>Node9&#45;&gt;Node11</title>
<path fill="none" stroke="#191970" d="M950.9292,-64.0321C1110.9203,-61.7701 1766.0419,-50.8057 1992.8513,-18.8672"/>
<polygon fill="#191970" stroke="#191970" points="1993.6153,-22.2927 2003.0021,-17.3797 1992.6003,-15.3667 1993.6153,-22.2927"/>
</g>
<!-- Node12 -->
<g id="node13" class="node">
<title>Node12</title>
<polygon fill="#ffffff" stroke="#bfbfbf" points="0,-.5 0,-18.5 48.7832,-18.5 48.7832,-.5 0,-.5"/>
<text text-anchor="middle" x="24.3916" y="-6.5" font-family="Helvetica,sans-Serif" font-size="10.00" fill="#000000">istream</text>
</g>
<!-- Node9&#45;&gt;Node12 -->
<g id="edge12" class="edge">
<title>Node9&#45;&gt;Node12</title>
<path fill="none" stroke="#191970" d="M879.8259,-63.6915C741.5928,-60.3855 239.2131,-46.8095 59.2307,-18.9126"/>
<polygon fill="#191970" stroke="#191970" points="59.55,-15.4187 49.1184,-17.2717 58.4287,-22.3283 59.55,-15.4187"/>
</g>
<!-- Node13 -->
<g id="node14" class="node">
<title>Node13</title>
<polygon fill="#ffffff" stroke="#bfbfbf" points="66.7217,-.5 66.7217,-18.5 116.0615,-18.5 116.0615,-.5 66.7217,-.5"/>
<text text-anchor="middle" x="91.3916" y="-6.5" font-family="Helvetica,sans-Serif" font-size="10.00" fill="#000000">fstream</text>
</g>
<!-- Node9&#45;&gt;Node13 -->
<g id="edge13" class="edge">
<title>Node9&#45;&gt;Node13</title>
<path fill="none" stroke="#191970" d="M879.4432,-63.4965C747.8608,-59.6614 291.9341,-44.9096 126.1467,-18.9075"/>
<polygon fill="#191970" stroke="#191970" points="126.5558,-15.4279 116.1205,-17.2595 125.4204,-22.3352 126.5558,-15.4279"/>
</g>
<!-- Node14 -->
<g id="node15" class="node">
<title>Node14</title>
<polygon fill="#ffffff" stroke="#bfbfbf" points="133.7759,-.5 133.7759,-18.5 177.0073,-18.5 177.0073,-.5 133.7759,-.5"/>
<text text-anchor="middle" x="155.3916" y="-6.5" font-family="Helvetica,sans-Serif" font-size="10.00" fill="#000000">vector</text>
</g>
<!-- Node9&#45;&gt;Node14 -->
<g id="edge14" class="edge">
<title>Node9&#45;&gt;Node14</title>
<path fill="none" stroke="#191970" d="M879.5979,-63.4271C755.0325,-59.517 340.2022,-44.9736 187.3068,-18.8969"/>
<polygon fill="#191970" stroke="#191970" points="187.6501,-15.4026 177.1891,-17.0811 186.4136,-22.2926 187.6501,-15.4026"/>
</g>
<!-- Node15 -->
<g id="node16" class="node">
<title>Node15</title>
<polygon fill="#ffffff" stroke="#bfbfbf" points="194.8818,-.5 194.8818,-18.5 245.9014,-18.5 245.9014,-.5 194.8818,-.5"/>
<text text-anchor="middle" x="220.3916" y="-6.5" font-family="Helvetica,sans-Serif" font-size="10.00" fill="#000000">iomanip</text>
</g>
<!-- Node9&#45;&gt;Node15 -->
<g id="edge15" class="edge">
<title>Node9&#45;&gt;Node15</title>
<path fill="none" stroke="#191970" d="M879.8118,-62.9697C763.7094,-57.8351 395.855,-40.4192 256.3001,-18.7625"/>
<polygon fill="#191970" stroke="#191970" points="256.6918,-15.2802 246.2595,-17.1287 255.5675,-22.1894 256.6918,-15.2802"/>
</g>
<!-- Node16 -->
<g id="node17" class="node">
<title>Node16</title>
<polygon fill="#ffffff" stroke="#bfbfbf" points="263.9312,-.5 263.9312,-18.5 368.8521,-18.5 368.8521,-.5 263.9312,-.5"/>
<text text-anchor="middle" x="316.3916" y="-6.5" font-family="Helvetica,sans-Serif" font-size="10.00" fill="#000000">Epetra_MpiComm.h</text>
</g>
<!-- Node9&#45;&gt;Node16 -->
<g id="edge16" class="edge">
<title>Node9&#45;&gt;Node16</title>
<path fill="none" stroke="#191970" d="M879.7353,-62.3523C794.8298,-57.0526 573.8146,-42.1652 379.0654,-19.1308"/>
<polygon fill="#191970" stroke="#191970" points="379.276,-15.6312 368.9317,-17.9219 378.4467,-22.5819 379.276,-15.6312"/>
</g>
<!-- Node17 -->
<g id="node18" class="node">
<title>Node17</title>
<polygon fill="#ffffff" stroke="#bfbfbf" points="386.6479,-.5 386.6479,-18.5 502.1353,-18.5 502.1353,-.5 386.6479,-.5"/>
<text text-anchor="middle" x="444.3916" y="-6.5" font-family="Helvetica,sans-Serif" font-size="10.00" fill="#000000">Epetra_FECrsGraph.h</text>
</g>
<!-- Node9&#45;&gt;Node17 -->
<g id="edge17" class="edge">
<title>Node9&#45;&gt;Node17</title>
<path fill="none" stroke="#191970" d="M879.6822,-60.8262C810.848,-53.6694 654.7692,-37.0775 512.6869,-19.1348"/>
<polygon fill="#191970" stroke="#191970" points="512.8434,-15.6268 502.4825,-17.8408 511.9627,-22.5711 512.8434,-15.6268"/>
</g>
<!-- Node18 -->
<g id="node19" class="node">
<title>Node18</title>
<polygon fill="#ffffff" stroke="#bfbfbf" points="519.9336,-.5 519.9336,-18.5 634.8496,-18.5 634.8496,-.5 519.9336,-.5"/>
<text text-anchor="middle" x="577.3916" y="-6.5" font-family="Helvetica,sans-Serif" font-size="10.00" fill="#000000">Epetra_FECrsMatrix.h</text>
</g>
<!-- Node9&#45;&gt;Node18 -->
<g id="edge18" class="edge">
<title>Node9&#45;&gt;Node18</title>
<path fill="none" stroke="#191970" d="M879.8585,-58.718C823.7207,-49.5831 713.6388,-31.6704 642.8975,-20.1592"/>
<polygon fill="#191970" stroke="#191970" points="643.1892,-16.6607 632.7568,-18.5091 642.0648,-23.5699 643.1892,-16.6607"/>
</g>
<!-- Node19 -->
<g id="node20" class="node">
<title>Node19</title>
<polygon fill="#ffffff" stroke="#bfbfbf" points="652.4165,-.5 652.4165,-18.5 752.3667,-18.5 752.3667,-.5 652.4165,-.5"/>
<text text-anchor="middle" x="702.3916" y="-6.5" font-family="Helvetica,sans-Serif" font-size="10.00" fill="#000000">Epetra_FEVector.h</text>
</g>
<!-- Node9&#45;&gt;Node19 -->
<g id="edge19" class="edge">
<title>Node9&#45;&gt;Node19</title>
<path fill="none" stroke="#191970" d="M880.219,-55.4179C843.8051,-46.0152 786.802,-31.2961 747.1874,-21.067"/>
<polygon fill="#191970" stroke="#191970" points="747.82,-17.6156 737.2625,-18.5042 746.0698,-24.3933 747.82,-17.6156"/>
</g>
<!-- Node20 -->
<g id="node21" class="node">
<title>Node20</title>
<polygon fill="#ffffff" stroke="#bfbfbf" points="770.8057,-.5 770.8057,-18.5 857.9775,-18.5 857.9775,-.5 770.8057,-.5"/>
<text text-anchor="middle" x="814.3916" y="-6.5" font-family="Helvetica,sans-Serif" font-size="10.00" fill="#000000">Epetra_Vector.h</text>
</g>
<!-- Node9&#45;&gt;Node20 -->
<g id="edge20" class="edge">
<title>Node9&#45;&gt;Node20</title>
<path fill="none" stroke="#191970" d="M898.7135,-55.4179C882.7776,-46.7399 858.5257,-33.5334 840.1148,-23.5077"/>
<polygon fill="#191970" stroke="#191970" points="841.5506,-20.3043 831.0945,-18.5956 838.2029,-26.4519 841.5506,-20.3043"/>
</g>
<!-- Node21 -->
<g id="node22" class="node">
<title>Node21</title>
<polygon fill="#ffffff" stroke="#bfbfbf" points="875.9829,-.5 875.9829,-18.5 954.8003,-18.5 954.8003,-.5 875.9829,-.5"/>
<text text-anchor="middle" x="915.3916" y="-6.5" font-family="Helvetica,sans-Serif" font-size="10.00" fill="#000000">Epetra_Map.h</text>
</g>
<!-- Node9&#45;&gt;Node21 -->
<g id="edge21" class="edge">
<title>Node9&#45;&gt;Node21</title>
<path fill="none" stroke="#191970" d="M915.3916,-55.4179C915.3916,-48.2164 915.3916,-37.8962 915.3916,-28.8632"/>
<polygon fill="#191970" stroke="#191970" points="918.8917,-28.7794 915.3916,-18.7795 911.8917,-28.7795 918.8917,-28.7794"/>
</g>
<!-- Node22 -->
<g id="node23" class="node">
<title>Node22</title>
<polygon fill="#ffffff" stroke="#bfbfbf" points="972.8623,-.5 972.8623,-18.5 1113.9209,-18.5 1113.9209,-.5 972.8623,-.5"/>
<text text-anchor="middle" x="1043.3916" y="-6.5" font-family="Helvetica,sans-Serif" font-size="10.00" fill="#000000">Epetra_SerialDenseMatrix.h</text>
</g>
<!-- Node9&#45;&gt;Node22 -->
<g id="edge22" class="edge">
<title>Node9&#45;&gt;Node22</title>
<path fill="none" stroke="#191970" d="M936.5282,-55.4179C957.3726,-46.4613 989.4439,-32.6806 1013.0161,-22.552"/>
<polygon fill="#191970" stroke="#191970" points="1014.4176,-25.7592 1022.2236,-18.5956 1011.6541,-19.3278 1014.4176,-25.7592"/>
</g>
<!-- Node23 -->
<g id="node24" class="node">
<title>Node23</title>
<polygon fill="#ffffff" stroke="#bfbfbf" points="1131.5693,-.5 1131.5693,-18.5 1273.2139,-18.5 1273.2139,-.5 1131.5693,-.5"/>
<text text-anchor="middle" x="1202.3916" y="-6.5" font-family="Helvetica,sans-Serif" font-size="10.00" fill="#000000">Epetra_SerialDenseVector.h</text>
</g>
<!-- Node9&#45;&gt;Node23 -->
<g id="edge23" class="edge">
<title>Node9&#45;&gt;Node23</title>
<path fill="none" stroke="#191970" d="M951.1601,-57.6454C999.7815,-48.3277 1087.2883,-31.5581 1145.112,-20.4769"/>
<polygon fill="#191970" stroke="#191970" points="1146.029,-23.865 1155.1916,-18.5453 1144.7115,-16.9901 1146.029,-23.865"/>
</g>
<!-- Node24 -->
<g id="node25" class="node">
<title>Node24</title>
<polygon fill="#ffffff" stroke="#bfbfbf" points="1291.0103,-.5 1291.0103,-18.5 1443.7729,-18.5 1443.7729,-.5 1291.0103,-.5"/>
<text text-anchor="middle" x="1367.3916" y="-6.5" font-family="Helvetica,sans-Serif" font-size="10.00" fill="#000000">Epetra_IntSerialDenseVector.h</text>
</g>
<!-- Node9&#45;&gt;Node24 -->
<g id="edge24" class="edge">
<title>Node9&#45;&gt;Node24</title>
<path fill="none" stroke="#191970" d="M951.2371,-60.1383C1022.4976,-51.4672 1183.6581,-31.857 1283.2097,-19.7434"/>
<polygon fill="#191970" stroke="#191970" points="1283.7384,-23.205 1293.2423,-18.5226 1282.8928,-16.2562 1283.7384,-23.205"/>
</g>
<!-- Node25 -->
<g id="node26" class="node">
<title>Node25</title>
<polygon fill="#ffffff" stroke="#bfbfbf" points="1461.5396,-.5 1461.5396,-18.5 1549.2437,-18.5 1549.2437,-.5 1461.5396,-.5"/>
<text text-anchor="middle" x="1505.3916" y="-6.5" font-family="Helvetica,sans-Serif" font-size="10.00" fill="#000000">Epetra_Import.h</text>
</g>
<!-- Node9&#45;&gt;Node25 -->
<g id="edge25" class="edge">
<title>Node9&#45;&gt;Node25</title>
<path fill="none" stroke="#191970" d="M951.0167,-62.6281C1035.8403,-57.9261 1256.5985,-44.2476 1451.3471,-19.021"/>
<polygon fill="#191970" stroke="#191970" points="1452.0197,-22.4629 1461.4809,-17.6947 1451.1113,-15.5221 1452.0197,-22.4629"/>
</g>
<!-- Node26 -->
<g id="node27" class="node">
<title>Node26</title>
<polygon fill="#ffffff" stroke="#bfbfbf" points="1567.2588,-.5 1567.2588,-18.5 1655.5244,-18.5 1655.5244,-.5 1567.2588,-.5"/>
<text text-anchor="middle" x="1611.3916" y="-6.5" font-family="Helvetica,sans-Serif" font-size="10.00" fill="#000000">Epetra_Export.h</text>
</g>
<!-- Node9&#45;&gt;Node26 -->
<g id="edge26" class="edge">
<title>Node9&#45;&gt;Node26</title>
<path fill="none" stroke="#191970" d="M951.0711,-63.3121C1047.2556,-59.8258 1320.0851,-48.0614 1557.0125,-19.0462"/>
<polygon fill="#191970" stroke="#191970" points="1557.7048,-22.4873 1567.199,-17.7852 1556.8447,-15.5403 1557.7048,-22.4873"/>
</g>
<!-- Node27 -->
<g id="node28" class="node">
<title>Node27</title>
<polygon fill="#ffffff" stroke="#bfbfbf" points="1673.7817,-.5 1673.7817,-18.5 1755.0015,-18.5 1755.0015,-.5 1673.7817,-.5"/>
<text text-anchor="middle" x="1714.3916" y="-6.5" font-family="Helvetica,sans-Serif" font-size="10.00" fill="#000000">Epetra_Time.h</text>
</g>
<!-- Node9&#45;&gt;Node27 -->
<g id="edge27" class="edge">
<title>Node9&#45;&gt;Node27</title>
<path fill="none" stroke="#191970" d="M951.0173,-63.9408C1057.6251,-61.9277 1383.5471,-53.3029 1663.5865,-18.9355"/>
<polygon fill="#191970" stroke="#191970" points="1664.0356,-22.4067 1673.5286,-17.7021 1663.1737,-15.46 1664.0356,-22.4067"/>
</g>
<!-- Node28 -->
<g id="node29" class="node">
<title>Node28</title>
<polygon fill="#ffffff" stroke="#bfbfbf" points="1772.6875,-.5 1772.6875,-18.5 1922.0957,-18.5 1922.0957,-.5 1772.6875,-.5"/>
<text text-anchor="middle" x="1847.3916" y="-6.5" font-family="Helvetica,sans-Serif" font-size="10.00" fill="#000000">ml_MultiLevelPreconditioner.h</text>
</g>
<!-- Node9&#45;&gt;Node28 -->
<g id="edge28" class="edge">
<title>Node9&#45;&gt;Node28</title>
<path fill="none" stroke="#191970" d="M951.0319,-63.3615C1066.5782,-59.5074 1441.4472,-45.725 1761.8913,-19.169"/>
<polygon fill="#191970" stroke="#191970" points="1762.6364,-22.6191 1772.3106,-18.2994 1762.0541,-15.6434 1762.6364,-22.6191"/>
</g>
<!-- Node35 -->
<g id="node30" class="node">
<title>Node35</title>
<polygon fill="#ffffff" stroke="#bfbfbf" points="2183.3442,-.5 2183.3442,-18.5 2281.439,-18.5 2281.439,-.5 2183.3442,-.5"/>
<text text-anchor="middle" x="2232.3916" y="-6.5" font-family="Helvetica,sans-Serif" font-size="10.00" fill="#000000">Teuchos_RCP.hpp</text>
</g>
<!-- Node9&#45;&gt;Node35 -->
<g id="edge29" class="edge">
<title>Node9&#45;&gt;Node35</title>
<path fill="none" stroke="#191970" d="M951.2036,-63.3149C1092.7543,-58.5819 1626.9441,-40.2588 2066.3916,-19 2101.6218,-17.2957 2141.0381,-15.0541 2172.6188,-13.1764"/>
<polygon fill="#191970" stroke="#191970" points="2173.2378,-16.6457 2183.0109,-12.5548 2172.8198,-9.6582 2173.2378,-16.6457"/>
</g>
<!-- Node42 -->
<g id="node32" class="node">
<title>Node42</title>
<g id="a_node32"><a xlink:href="../../d3/dd8/linear_finite_element_problem_8hpp.html" target="_top" xlink:title="linearFiniteElementProblem.hpp">
<polygon fill="#ffffff" stroke="#000000" points="344.2441,-220.5 344.2441,-238.5 502.5391,-238.5 502.5391,-220.5 344.2441,-220.5"/>
<text text-anchor="middle" x="423.3916" y="-226.5" font-family="Helvetica,sans-Serif" font-size="10.00" fill="#000000">linearFiniteElementProblem.hpp</text>
</a>
</g>
</g>
<!-- Node41&#45;&gt;Node42 -->
<g id="edge31" class="edge">
<title>Node41&#45;&gt;Node42</title>
<path fill="none" stroke="#191970" d="M313.9839,-280.3873C335.5132,-270.3737 370.2944,-254.1964 394.8529,-242.7738"/>
<polygon fill="#191970" stroke="#191970" points="396.4464,-245.8928 404.0376,-238.5019 393.4943,-239.5457 396.4464,-245.8928"/>
</g>
<!-- Node43 -->
<g id="node33" class="node">
<title>Node43</title>
<g id="a_node33"><a xlink:href="../../dd/d80/base_class_f_e_m_8hpp.html" target="_top" xlink:title="baseClassFEM.hpp">
<polygon fill="#ffffff" stroke="#000000" points="753.7612,-110.5 753.7612,-128.5 857.022,-128.5 857.022,-110.5 753.7612,-110.5"/>
<text text-anchor="middle" x="805.3916" y="-116.5" font-family="Helvetica,sans-Serif" font-size="10.00" fill="#000000">baseClassFEM.hpp</text>
</a>
</g>
</g>
<!-- Node42&#45;&gt;Node43 -->
<g id="edge32" class="edge">
<title>Node42&#45;&gt;Node43</title>
<path fill="none" stroke="#191970" d="M454.6523,-220.4982C523.2916,-200.733 687.1799,-153.54 764.1431,-131.3779"/>
<polygon fill="#191970" stroke="#191970" points="765.3263,-134.6794 773.9673,-128.5489 763.3893,-127.9527 765.3263,-134.6794"/>
</g>
<!-- Node43&#45;&gt;Node9 -->
<g id="edge33" class="edge">
<title>Node43&#45;&gt;Node9</title>
<path fill="none" stroke="#191970" d="M823.5559,-110.4179C841.1506,-101.6205 868.0534,-88.1691 888.2004,-78.0956"/>
<polygon fill="#191970" stroke="#191970" points="889.8213,-81.1983 897.2004,-73.5956 886.6908,-74.9373 889.8213,-81.1983"/>
</g>
<!-- Node45 -->
<g id="node35" class="node">
<title>Node45</title>
<g id="a_node35"><a xlink:href="../../d2/d34/hyperelasticity_8hpp.html" target="_top" xlink:title="hyperelasticity.hpp">
<polygon fill="#ffffff" stroke="#000000" points="702.3491,-220.5 702.3491,-238.5 800.4341,-238.5 800.4341,-220.5 702.3491,-220.5"/>
<text text-anchor="middle" x="751.3916" y="-226.5" font-family="Helvetica,sans-Serif" font-size="10.00" fill="#000000">hyperelasticity.hpp</text>
</a>
</g>
</g>
<!-- Node44&#45;&gt;Node45 -->
<g id="edge35" class="edge">
<title>Node44&#45;&gt;Node45</title>
<path fill="none" stroke="#191970" d="M706.4412,-280.3873C714.3793,-271.4007 726.7025,-257.4499 736.4397,-246.4267"/>
<polygon fill="#191970" stroke="#191970" points="739.2691,-248.5104 743.2663,-238.6985 734.0227,-243.8761 739.2691,-248.5104"/>
</g>
<!-- Node46 -->
<g id="node36" class="node">
<title>Node46</title>
<g id="a_node36"><a xlink:href="../../da/da3/non_linear_finite_element_problem_8hpp.html" target="_top" xlink:title="nonLinearFiniteElementProblem.hpp">
<polygon fill="#ffffff" stroke="#000000" points="716.2319,-165.5 716.2319,-183.5 894.5513,-183.5 894.5513,-165.5 716.2319,-165.5"/>
<text text-anchor="middle" x="805.3916" y="-171.5" font-family="Helvetica,sans-Serif" font-size="10.00" fill="#000000">nonLinearFiniteElementProblem.hpp</text>
</a>
</g>
</g>
<!-- Node45&#45;&gt;Node46 -->
<g id="edge36" class="edge">
<title>Node45&#45;&gt;Node46</title>
<path fill="none" stroke="#191970" d="M760.3086,-220.4179C768.1562,-212.425 779.7756,-200.5903 789.2527,-190.9377"/>
<polygon fill="#191970" stroke="#191970" points="791.7724,-193.3672 796.2809,-183.7795 786.7774,-188.463 791.7724,-193.3672"/>
</g>
<!-- Node46&#45;&gt;Node9 -->
<g id="edge37" class="edge">
<title>Node46&#45;&gt;Node9</title>
<path fill="none" stroke="#191970" d="M819.8445,-165.408C832.8021,-156.8795 851.9415,-143.3235 866.3916,-129 880.8361,-114.6821 894.5988,-95.956 903.8399,-82.3721"/>
<polygon fill="#191970" stroke="#191970" points="906.8461,-84.1721 909.4681,-73.9068 901.0169,-80.2965 906.8461,-84.1721"/>
</g>
<!-- Node46&#45;&gt;Node43 -->
<g id="edge38" class="edge">
<title>Node46&#45;&gt;Node43</title>
<path fill="none" stroke="#191970" d="M805.3916,-165.4179C805.3916,-158.2164 805.3916,-147.8962 805.3916,-138.8632"/>
<polygon fill="#191970" stroke="#191970" points="808.8917,-138.7794 805.3916,-128.7795 801.8917,-138.7795 808.8917,-138.7794"/>
</g>
<!-- Node53&#45;&gt;Node4 -->
<g id="edge54" class="edge">
<title>Node53&#45;&gt;Node4</title>
<path fill="none" stroke="#191970" d="M1831.4509,-350.7784C1730.1414,-343.5541 1504.5711,-326.3563 1315.3916,-304 1305.4637,-302.8268 1294.992,-301.4388 1284.7352,-299.9941"/>
<polygon fill="#191970" stroke="#191970" points="1284.974,-296.4926 1274.5781,-298.5363 1283.9794,-303.4216 1284.974,-296.4926"/>
</g>
<!-- Node53&#45;&gt;Node5 -->
<g id="edge55" class="edge">
<title>Node53&#45;&gt;Node5</title>
<path fill="none" stroke="#191970" d="M1831.2621,-348.9047C1752.3685,-340.5141 1601.2584,-323.5534 1473.3916,-304 1466.1894,-302.8986 1458.6362,-301.6428 1451.1753,-300.3415"/>
<polygon fill="#191970" stroke="#191970" points="1451.5588,-296.8548 1441.1003,-298.5489 1450.3325,-303.7466 1451.5588,-296.8548"/>
</g>
<!-- Node53&#45;&gt;Node6 -->
<g id="edge56" class="edge">
<title>Node53&#45;&gt;Node6</title>
<path fill="none" stroke="#191970" d="M1839.2284,-345.462C1786.3768,-335.1146 1698.8227,-317.973 1634.5162,-305.3828"/>
<polygon fill="#191970" stroke="#191970" points="1634.8901,-301.8896 1624.4039,-303.403 1633.545,-308.7592 1634.8901,-301.8896"/>
</g>
<!-- Node53&#45;&gt;Node35 -->
<g id="edge47" class="edge">
<title>Node53&#45;&gt;Node35</title>
<path fill="none" stroke="#191970" d="M1939.2695,-351.6485C2049.5593,-345.33 2293.0969,-328.7264 2321.3916,-304 2347.1221,-281.5145 2340.3916,-263.671 2340.3916,-229.5 2340.3916,-229.5 2340.3916,-229.5 2340.3916,-119.5 2340.3916,-74.1929 2293.1634,-40.7048 2261.1696,-23.217"/>
<polygon fill="#191970" stroke="#191970" points="2262.6816,-20.0579 2252.2005,-18.51 2259.4287,-26.2561 2262.6816,-20.0579"/>
</g>
<!-- Node53&#45;&gt;Node46 -->
<g id="edge46" class="edge">
<title>Node53&#45;&gt;Node46</title>
<path fill="none" stroke="#191970" d="M1831.4346,-348.1538C1786.8675,-341.437 1722.8083,-328.3195 1671.3916,-304 1652.1864,-294.9161 1653.071,-283.005 1633.3916,-275 1599.7389,-261.3111 1109.8757,-207.309 899.8584,-184.6222"/>
<polygon fill="#191970" stroke="#191970" points="900.0863,-181.1266 889.7684,-183.5331 899.335,-188.0862 900.0863,-181.1266"/>
</g>
<!-- Node54 -->
<g id="node44" class="node">
<title>Node54</title>
<polygon fill="#ffffff" stroke="#bfbfbf" points="1968.8818,-280.5 1968.8818,-298.5 2019.9014,-298.5 2019.9014,-280.5 1968.8818,-280.5"/>
<text text-anchor="middle" x="1994.3916" y="-286.5" font-family="Helvetica,sans-Serif" font-size="10.00" fill="#000000">Ifpack.h</text>
</g>
<!-- Node53&#45;&gt;Node54 -->
<g id="edge48" class="edge">
<title>Node53&#45;&gt;Node54</title>
<path fill="none" stroke="#191970" d="M1900.5476,-345.462C1918.586,-334.7052 1948.9371,-316.6059 1970.2263,-303.9105"/>
<polygon fill="#191970" stroke="#191970" points="1972.2168,-306.7987 1979.013,-298.6708 1968.6315,-300.7865 1972.2168,-306.7987"/>
</g>
<!-- Node55 -->
<g id="node45" class="node">
<title>Node55</title>
<polygon fill="#ffffff" stroke="#bfbfbf" points="2038.1406,-280.5 2038.1406,-298.5 2168.6426,-298.5 2168.6426,-280.5 2038.1406,-280.5"/>
<text text-anchor="middle" x="2103.3916" y="-286.5" font-family="Helvetica,sans-Serif" font-size="10.00" fill="#000000">Ifpack_AdditiveSchwarz.h</text>
</g>
<!-- Node53&#45;&gt;Node55 -->
<g id="edge49" class="edge">
<title>Node53&#45;&gt;Node55</title>
<path fill="none" stroke="#191970" d="M1915.7036,-345.462C1954.1536,-333.9976 2020.5755,-314.1929 2063.2163,-301.4789"/>
<polygon fill="#191970" stroke="#191970" points="2064.4035,-304.7772 2072.9865,-298.5658 2062.4033,-298.0691 2064.4035,-304.7772"/>
</g>
<!-- Node56 -->
<g id="node46" class="node">
<title>Node56</title>
<polygon fill="#ffffff" stroke="#bfbfbf" points="2186.6357,-280.5 2186.6357,-298.5 2312.1475,-298.5 2312.1475,-280.5 2186.6357,-280.5"/>
<text text-anchor="middle" x="2249.3916" y="-286.5" font-family="Helvetica,sans-Serif" font-size="10.00" fill="#000000">BelosLinearProblem.hpp</text>
</g>
<!-- Node53&#45;&gt;Node56 -->
<g id="edge50" class="edge">
<title>Node53&#45;&gt;Node56</title>
<path fill="none" stroke="#191970" d="M1939.2892,-345.6345C1997.9462,-335.8798 2094.4581,-319.5194 2177.3916,-304 2183.2529,-302.9032 2189.3755,-301.7232 2195.4683,-300.527"/>
<polygon fill="#191970" stroke="#191970" points="2196.5138,-303.888 2205.6425,-298.5106 2195.1529,-297.0215 2196.5138,-303.888"/>
</g>
<!-- Node57 -->
<g id="node47" class="node">
<title>Node57</title>
<polygon fill="#ffffff" stroke="#bfbfbf" points="2368.3623,-280.5 2368.3623,-298.5 2514.4209,-298.5 2514.4209,-280.5 2368.3623,-280.5"/>
<text text-anchor="middle" x="2441.3916" y="-286.5" font-family="Helvetica,sans-Serif" font-size="10.00" fill="#000000">BelosBlockGmresSolMgr.hpp</text>
</g>
<!-- Node53&#45;&gt;Node57 -->
<g id="edge51" class="edge">
<title>Node53&#45;&gt;Node57</title>
<path fill="none" stroke="#191970" d="M1939.3239,-349.7162C2026.6868,-341.7372 2204.4932,-324.5442 2354.3916,-304 2362.7876,-302.8493 2371.6195,-301.5184 2380.3064,-300.1391"/>
<polygon fill="#191970" stroke="#191970" points="2381.0901,-303.5579 2390.4027,-298.5055 2379.972,-296.6478 2381.0901,-303.5579"/>
</g>
<!-- Node58 -->
<g id="node48" class="node">
<title>Node58</title>
<polygon fill="#ffffff" stroke="#bfbfbf" points="2532.1826,-280.5 2532.1826,-298.5 2656.6006,-298.5 2656.6006,-280.5 2532.1826,-280.5"/>
<text text-anchor="middle" x="2594.3916" y="-286.5" font-family="Helvetica,sans-Serif" font-size="10.00" fill="#000000">BelosEpetraAdapter.hpp</text>
</g>
<!-- Node53&#45;&gt;Node58 -->
<g id="edge52" class="edge">
<title>Node53&#45;&gt;Node58</title>
<path fill="none" stroke="#191970" d="M1939.4095,-352.4585C2049.6504,-347.8009 2308.3029,-334.3594 2523.3916,-304 2530.1711,-303.0431 2537.2769,-301.8377 2544.2637,-300.5328"/>
<polygon fill="#191970" stroke="#191970" points="2545.2163,-303.9132 2554.3634,-298.567 2543.8789,-297.0421 2545.2163,-303.9132"/>
</g>
<!-- Node59 -->
<g id="node49" class="node">
<title>Node59</title>
<polygon fill="#ffffff" stroke="#bfbfbf" points="1680.6792,-280.5 1680.6792,-298.5 1802.104,-298.5 1802.104,-280.5 1680.6792,-280.5"/>
<text text-anchor="middle" x="1741.3916" y="-286.5" font-family="Helvetica,sans-Serif" font-size="10.00" fill="#000000">BelosSolverFactory.hpp</text>
</g>
<!-- Node53&#45;&gt;Node59 -->
<g id="edge53" class="edge">
<title>Node53&#45;&gt;Node59</title>
<path fill="none" stroke="#191970" d="M1865.369,-345.462C1840.8973,-334.4158 1799.2721,-315.6266 1771.0728,-302.8977"/>
<polygon fill="#191970" stroke="#191970" points="1772.2628,-299.5949 1761.7084,-298.6708 1769.3829,-305.9751 1772.2628,-299.5949"/>
</g>
<!-- Node60 -->
<g id="node50" class="node">
<title>Node60</title>
<polygon fill="#ffffff" stroke="#bfbfbf" points="1820.1431,-275.5 1820.1431,-303.5 1950.6401,-303.5 1950.6401,-275.5 1820.1431,-275.5"/>
<text text-anchor="start" x="1828.1431" y="-291.5" font-family="Helvetica,sans-Serif" font-size="10.00" fill="#000000">Stratimikos_DefaultLinear</text>
<text text-anchor="middle" x="1885.3916" y="-281.5" font-family="Helvetica,sans-Serif" font-size="10.00" fill="#000000">SolverBuilder.hpp</text>
</g>
<!-- Node53&#45;&gt;Node60 -->
<g id="edge57" class="edge">
<title>Node53&#45;&gt;Node60</title>
<path fill="none" stroke="#191970" d="M1885.3916,-345.462C1885.3916,-337.404 1885.3916,-325.2257 1885.3916,-314.2852"/>
<polygon fill="#191970" stroke="#191970" points="1888.8917,-313.9558 1885.3916,-303.9559 1881.8917,-313.9559 1888.8917,-313.9558"/>
</g>
</g>
</svg>
