<?xml version="1.0" encoding="UTF-8" standalone="no"?>
<!DOCTYPE svg PUBLIC "-//W3C//DTD SVG 1.1//EN"
 "http://www.w3.org/Graphics/SVG/1.1/DTD/svg11.dtd">
<!-- Generated by graphviz version 2.40.1 (20161225.0304)
 -->
<!-- Title: src/Newton_Raphsonpp.hpp Pages: 1 -->
<svg width="3441pt" height="322pt"
 viewBox="0.00 0.00 3440.98 322.00" xmlns="http://www.w3.org/2000/svg" xmlns:xlink="http://www.w3.org/1999/xlink">
<g id="graph0" class="graph" transform="scale(1 1) rotate(0) translate(4 318)">
<title>src/Newton_Raphsonpp.hpp</title>
<polygon fill="#ffffff" stroke="transparent" points="-4,4 -4,-318 3436.98,-318 3436.98,4 -4,4"/>
<!-- Node0 -->
<g id="node1" class="node">
<title>Node0</title>
<polygon fill="#bfbfbf" stroke="#000000" points="2344.6357,-295.5 2344.6357,-313.5 2486.8271,-313.5 2486.8271,-295.5 2344.6357,-295.5"/>
<text text-anchor="middle" x="2415.7314" y="-301.5" font-family="Helvetica,sans-Serif" font-size="10.00" fill="#000000">src/Newton_Raphsonpp.hpp</text>
</g>
<!-- Node1 -->
<g id="node2" class="node">
<title>Node1</title>
<g id="a_node2"><a xlink:href="../../de/d9d/hyperelasticity__setup__pp_8hpp.html" target="_top" xlink:title="hyperelasticity_setup\l_pp.hpp">
<polygon fill="#ffffff" stroke="#000000" points="1815.0396,-230.5 1815.0396,-258.5 1924.4233,-258.5 1924.4233,-230.5 1815.0396,-230.5"/>
<text text-anchor="start" x="1823.0396" y="-246.5" font-family="Helvetica,sans-Serif" font-size="10.00" fill="#000000">hyperelasticity_setup</text>
<text text-anchor="middle" x="1869.7314" y="-236.5" font-family="Helvetica,sans-Serif" font-size="10.00" fill="#000000">_pp.hpp</text>
</a>
</g>
</g>
<!-- Node0&#45;&gt;Node1 -->
<g id="edge1" class="edge">
<title>Node0&#45;&gt;Node1</title>
<path fill="none" stroke="#191970" d="M2344.3087,-300.1928C2250.7659,-293.9794 2081.8297,-280.7905 1938.7314,-259 1937.4381,-258.8031 1936.1325,-258.5973 1934.8179,-258.3838"/>
<polygon fill="#191970" stroke="#191970" points="1935.0692,-254.8751 1924.6179,-256.613 1933.8718,-261.772 1935.0692,-254.8751"/>
</g>
<!-- Node2 -->
<g id="node3" class="node">
<title>Node2</title>
<g id="a_node3"><a xlink:href="../../d2/d8b/_finite___element___problem_8hpp.html" target="_top" xlink:title="Finite_Element_Problem.hpp">
<polygon fill="#ffffff" stroke="#000000" points="1675.2515,-175.5 1675.2515,-193.5 1820.2114,-193.5 1820.2114,-175.5 1675.2515,-175.5"/>
<text text-anchor="middle" x="1747.7314" y="-181.5" font-family="Helvetica,sans-Serif" font-size="10.00" fill="#000000">Finite_Element_Problem.hpp</text>
</a>
</g>
</g>
<!-- Node0&#45;&gt;Node2 -->
<g id="edge39" class="edge">
<title>Node0&#45;&gt;Node2</title>
<path fill="none" stroke="#191970" d="M2344.5488,-302.4209C2193.7793,-297.5538 1852.2134,-283.9047 1805.7314,-259 1782.5548,-246.5821 1765.6507,-220.4754 1756.2582,-202.7104"/>
<polygon fill="#191970" stroke="#191970" points="1759.3124,-200.9923 1751.7129,-193.61 1753.05,-204.1202 1759.3124,-200.9923"/>
</g>
<!-- Node29 -->
<g id="node30" class="node">
<title>Node29</title>
<polygon fill="#ffffff" stroke="#bfbfbf" points="3303.6841,-.5 3303.6841,-18.5 3401.7788,-18.5 3401.7788,-.5 3303.6841,-.5"/>
<text text-anchor="middle" x="3352.7314" y="-6.5" font-family="Helvetica,sans-Serif" font-size="10.00" fill="#000000">Teuchos_RCP.hpp</text>
</g>
<!-- Node0&#45;&gt;Node29 -->
<g id="edge40" class="edge">
<title>Node0&#45;&gt;Node29</title>
<path fill="none" stroke="#191970" d="M2344.2305,-301.6087C2225.8358,-296.1733 1999.3121,-282.7833 1971.7314,-259 1945.8532,-236.6847 1952.7314,-218.671 1952.7314,-184.5 1952.7314,-184.5 1952.7314,-184.5 1952.7314,-124.5 1952.7314,22.1142 3100.3407,-34.4816 3293.3709,-18.7314"/>
<polygon fill="#191970" stroke="#191970" points="3293.91,-22.1953 3303.518,-17.7304 3293.2227,-15.2292 3293.91,-22.1953"/>
</g>
<!-- Node37 -->
<g id="node38" class="node">
<title>Node37</title>
<polygon fill="#ffffff" stroke="#bfbfbf" points="1981.2217,-235.5 1981.2217,-253.5 2032.2412,-253.5 2032.2412,-235.5 1981.2217,-235.5"/>
<text text-anchor="middle" x="2006.7314" y="-241.5" font-family="Helvetica,sans-Serif" font-size="10.00" fill="#000000">Ifpack.h</text>
</g>
<!-- Node0&#45;&gt;Node37 -->
<g id="edge41" class="edge">
<title>Node0&#45;&gt;Node37</title>
<path fill="none" stroke="#191970" d="M2344.3455,-301.5743C2268.2767,-297.1294 2144.8493,-286.0909 2041.7314,-259 2039.7753,-258.4861 2037.7842,-257.8864 2035.7946,-257.2291"/>
<polygon fill="#191970" stroke="#191970" points="2036.6222,-253.8024 2026.0295,-253.5907 2034.1782,-260.3619 2036.6222,-253.8024"/>
</g>
<!-- Node38 -->
<g id="node39" class="node">
<title>Node38</title>
<polygon fill="#ffffff" stroke="#bfbfbf" points="2050.4805,-235.5 2050.4805,-253.5 2180.9824,-253.5 2180.9824,-235.5 2050.4805,-235.5"/>
<text text-anchor="middle" x="2115.7314" y="-241.5" font-family="Helvetica,sans-Serif" font-size="10.00" fill="#000000">Ifpack_AdditiveSchwarz.h</text>
</g>
<!-- Node0&#45;&gt;Node38 -->
<g id="edge42" class="edge">
<title>Node0&#45;&gt;Node38</title>
<path fill="none" stroke="#191970" d="M2370.4936,-295.4524C2317.0658,-284.7669 2228.2205,-266.9978 2170.8291,-255.5195"/>
<polygon fill="#191970" stroke="#191970" points="2171.3384,-252.0521 2160.8461,-253.5229 2169.9655,-258.9162 2171.3384,-252.0521"/>
</g>
<!-- Node39 -->
<g id="node40" class="node">
<title>Node39</title>
<polygon fill="#ffffff" stroke="#bfbfbf" points="2198.9756,-235.5 2198.9756,-253.5 2324.4873,-253.5 2324.4873,-235.5 2198.9756,-235.5"/>
<text text-anchor="middle" x="2261.7314" y="-241.5" font-family="Helvetica,sans-Serif" font-size="10.00" fill="#000000">BelosLinearProblem.hpp</text>
</g>
<!-- Node0&#45;&gt;Node39 -->
<g id="edge43" class="edge">
<title>Node0&#45;&gt;Node39</title>
<path fill="none" stroke="#191970" d="M2392.3422,-295.3873C2366.1856,-285.1964 2323.6441,-268.6218 2294.2558,-257.1718"/>
<polygon fill="#191970" stroke="#191970" points="2295.4247,-253.871 2284.8363,-253.5019 2292.8834,-260.3935 2295.4247,-253.871"/>
</g>
<!-- Node40 -->
<g id="node41" class="node">
<title>Node40</title>
<polygon fill="#ffffff" stroke="#bfbfbf" points="2342.7021,-235.5 2342.7021,-253.5 2488.7607,-253.5 2488.7607,-235.5 2342.7021,-235.5"/>
<text text-anchor="middle" x="2415.7314" y="-241.5" font-family="Helvetica,sans-Serif" font-size="10.00" fill="#000000">BelosBlockGmresSolMgr.hpp</text>
</g>
<!-- Node0&#45;&gt;Node40 -->
<g id="edge44" class="edge">
<title>Node0&#45;&gt;Node40</title>
<path fill="none" stroke="#191970" d="M2415.7314,-295.3873C2415.7314,-287.0174 2415.7314,-274.3414 2415.7314,-263.735"/>
<polygon fill="#191970" stroke="#191970" points="2419.2315,-263.6984 2415.7314,-253.6985 2412.2315,-263.6985 2419.2315,-263.6984"/>
</g>
<!-- Node41 -->
<g id="node42" class="node">
<title>Node41</title>
<polygon fill="#ffffff" stroke="#bfbfbf" points="2506.5225,-235.5 2506.5225,-253.5 2630.9404,-253.5 2630.9404,-235.5 2506.5225,-235.5"/>
<text text-anchor="middle" x="2568.7314" y="-241.5" font-family="Helvetica,sans-Serif" font-size="10.00" fill="#000000">BelosEpetraAdapter.hpp</text>
</g>
<!-- Node0&#45;&gt;Node41 -->
<g id="edge45" class="edge">
<title>Node0&#45;&gt;Node41</title>
<path fill="none" stroke="#191970" d="M2438.9689,-295.3873C2464.9555,-285.1964 2507.2208,-268.6218 2536.4183,-257.1718"/>
<polygon fill="#191970" stroke="#191970" points="2537.7448,-260.4112 2545.7767,-253.5019 2535.1891,-253.8944 2537.7448,-260.4112"/>
</g>
<!-- Node42 -->
<g id="node43" class="node">
<title>Node42</title>
<polygon fill="#ffffff" stroke="#bfbfbf" points="2649.019,-235.5 2649.019,-253.5 2770.4438,-253.5 2770.4438,-235.5 2649.019,-235.5"/>
<text text-anchor="middle" x="2709.7314" y="-241.5" font-family="Helvetica,sans-Serif" font-size="10.00" fill="#000000">BelosSolverFactory.hpp</text>
</g>
<!-- Node0&#45;&gt;Node42 -->
<g id="edge46" class="edge">
<title>Node0&#45;&gt;Node42</title>
<path fill="none" stroke="#191970" d="M2460.3668,-295.4861C2505.5831,-286.3426 2577.5337,-271.7588 2639.7314,-259 2645.0504,-257.9089 2650.5958,-256.7673 2656.1349,-255.6242"/>
<polygon fill="#191970" stroke="#191970" points="2656.9633,-259.027 2666.0482,-253.5758 2655.5467,-252.1719 2656.9633,-259.027"/>
</g>
<!-- Node43 -->
<g id="node44" class="node">
<title>Node43</title>
<polygon fill="#ffffff" stroke="#bfbfbf" points="2788.8501,-235.5 2788.8501,-253.5 2966.6128,-253.5 2966.6128,-235.5 2788.8501,-235.5"/>
<text text-anchor="middle" x="2877.7314" y="-241.5" font-family="Helvetica,sans-Serif" font-size="10.00" fill="#000000">Teuchos_StandardCatchMacros.hpp</text>
</g>
<!-- Node0&#45;&gt;Node43 -->
<g id="edge47" class="edge">
<title>Node0&#45;&gt;Node43</title>
<path fill="none" stroke="#191970" d="M2486.9366,-296.0804C2560.3598,-287.2857 2678.1382,-272.8636 2779.7314,-259 2788.9643,-257.7401 2798.6786,-256.364 2808.2571,-254.9773"/>
<polygon fill="#191970" stroke="#191970" points="2808.7734,-258.4391 2818.1638,-253.5328 2807.7634,-251.5124 2808.7734,-258.4391"/>
</g>
<!-- Node44 -->
<g id="node45" class="node">
<title>Node44</title>
<polygon fill="#ffffff" stroke="#bfbfbf" points="2984.4731,-235.5 2984.4731,-253.5 3124.9897,-253.5 3124.9897,-235.5 2984.4731,-235.5"/>
<text text-anchor="middle" x="3054.7314" y="-241.5" font-family="Helvetica,sans-Serif" font-size="10.00" fill="#000000">Teuchos_ParameterList.hpp</text>
</g>
<!-- Node0&#45;&gt;Node44 -->
<g id="edge48" class="edge">
<title>Node0&#45;&gt;Node44</title>
<path fill="none" stroke="#191970" d="M2487.1364,-301.0003C2593.8062,-295.2523 2800.9407,-282.0824 2975.7314,-259 2983.5077,-257.9731 2991.6807,-256.6974 2999.7007,-255.3318"/>
<polygon fill="#191970" stroke="#191970" points="3000.4941,-258.7461 3009.7362,-253.566 2999.281,-251.852 3000.4941,-258.7461"/>
</g>
<!-- Node45 -->
<g id="node46" class="node">
<title>Node45</title>
<polygon fill="#ffffff" stroke="#bfbfbf" points="3142.9238,-230.5 3142.9238,-258.5 3284.5391,-258.5 3284.5391,-230.5 3142.9238,-230.5"/>
<text text-anchor="start" x="3150.9238" y="-246.5" font-family="Helvetica,sans-Serif" font-size="10.00" fill="#000000">Teuchos_XMLParameterList</text>
<text text-anchor="middle" x="3213.7314" y="-236.5" font-family="Helvetica,sans-Serif" font-size="10.00" fill="#000000">CoreHelpers.hpp</text>
</g>
<!-- Node0&#45;&gt;Node45 -->
<g id="edge49" class="edge">
<title>Node0&#45;&gt;Node45</title>
<path fill="none" stroke="#191970" d="M2487.0658,-302.7199C2614.6216,-298.9364 2890.3328,-288.037 3132.6401,-259.0332"/>
<polygon fill="#191970" stroke="#191970" points="3133.1893,-262.4923 3142.6965,-257.8166 3132.3485,-255.543 3133.1893,-262.4923"/>
</g>
<!-- Node46 -->
<g id="node47" class="node">
<title>Node46</title>
<polygon fill="#ffffff" stroke="#bfbfbf" points="3302.4829,-230.5 3302.4829,-258.5 3432.98,-258.5 3432.98,-230.5 3302.4829,-230.5"/>
<text text-anchor="start" x="3310.4829" y="-246.5" font-family="Helvetica,sans-Serif" font-size="10.00" fill="#000000">Stratimikos_DefaultLinear</text>
<text text-anchor="middle" x="3367.7314" y="-236.5" font-family="Helvetica,sans-Serif" font-size="10.00" fill="#000000">SolverBuilder.hpp</text>
</g>
<!-- Node0&#45;&gt;Node46 -->
<g id="edge50" class="edge">
<title>Node0&#45;&gt;Node46</title>
<path fill="none" stroke="#191970" d="M2486.908,-302.1151C2663.6066,-295.989 3119.8822,-278.8601 3292.4701,-259.0039"/>
<polygon fill="#191970" stroke="#191970" points="3292.9271,-262.4742 3302.442,-257.814 3292.0977,-255.5235 3292.9271,-262.4742"/>
</g>
<!-- Node1&#45;&gt;Node2 -->
<g id="edge2" class="edge">
<title>Node1&#45;&gt;Node2</title>
<path fill="none" stroke="#191970" d="M1841.1279,-230.4327C1821.2758,-220.6693 1794.9747,-207.7344 1775.3424,-198.0792"/>
<polygon fill="#191970" stroke="#191970" points="1776.8161,-194.9036 1766.2979,-193.6311 1773.7268,-201.185 1776.8161,-194.9036"/>
</g>
<!-- Node35 -->
<g id="node36" class="node">
<title>Node35</title>
<g id="a_node36"><a xlink:href="../../d5/d3f/laplacepp_8hpp.html" target="_top" xlink:title="laplacepp.hpp">
<polygon fill="#ffffff" stroke="#000000" points="1838.5938,-175.5 1838.5938,-193.5 1916.8691,-193.5 1916.8691,-175.5 1838.5938,-175.5"/>
<text text-anchor="middle" x="1877.7314" y="-181.5" font-family="Helvetica,sans-Serif" font-size="10.00" fill="#000000">laplacepp.hpp</text>
</a>
</g>
</g>
<!-- Node1&#45;&gt;Node35 -->
<g id="edge36" class="edge">
<title>Node1&#45;&gt;Node35</title>
<path fill="none" stroke="#191970" d="M1871.6273,-230.2808C1872.6929,-222.2888 1874.0371,-212.2079 1875.1926,-203.5414"/>
<polygon fill="#191970" stroke="#191970" points="1878.6678,-203.9591 1876.5202,-193.5842 1871.7292,-203.0339 1878.6678,-203.9591"/>
</g>
<!-- Node3 -->
<g id="node4" class="node">
<title>Node3</title>
<g id="a_node4"><a xlink:href="../../d0/d02/meshpp_8hpp.html" target="_top" xlink:title="meshpp.hpp">
<polygon fill="#ffffff" stroke="#000000" points="1712.2119,-55.5 1712.2119,-73.5 1783.251,-73.5 1783.251,-55.5 1712.2119,-55.5"/>
<text text-anchor="middle" x="1747.7314" y="-61.5" font-family="Helvetica,sans-Serif" font-size="10.00" fill="#000000">meshpp.hpp</text>
</a>
</g>
</g>
<!-- Node2&#45;&gt;Node3 -->
<g id="edge3" class="edge">
<title>Node2&#45;&gt;Node3</title>
<path fill="none" stroke="#191970" d="M1747.7314,-175.4805C1747.7314,-156.1085 1747.7314,-110.155 1747.7314,-83.8576"/>
<polygon fill="#191970" stroke="#191970" points="1751.2315,-83.6241 1747.7314,-73.6242 1744.2315,-83.6242 1751.2315,-83.6241"/>
</g>
<!-- Node4 -->
<g id="node5" class="node">
<title>Node4</title>
<polygon fill="#ffffff" stroke="#bfbfbf" points="0,-.5 0,-18.5 45.4629,-18.5 45.4629,-.5 0,-.5"/>
<text text-anchor="middle" x="22.7314" y="-6.5" font-family="Helvetica,sans-Serif" font-size="10.00" fill="#000000">stdio.h</text>
</g>
<!-- Node3&#45;&gt;Node4 -->
<g id="edge4" class="edge">
<title>Node3&#45;&gt;Node4</title>
<path fill="none" stroke="#191970" d="M1712.188,-64.103C1487.4228,-61.5201 266.3676,-46.3892 55.6991,-18.5455"/>
<polygon fill="#191970" stroke="#191970" points="56.0371,-15.0579 45.6373,-17.0816 55.0292,-21.985 56.0371,-15.0579"/>
</g>
<!-- Node5 -->
<g id="node6" class="node">
<title>Node5</title>
<polygon fill="#ffffff" stroke="#bfbfbf" points="63.5591,-.5 63.5591,-18.5 117.9038,-18.5 117.9038,-.5 63.5591,-.5"/>
<text text-anchor="middle" x="90.7314" y="-6.5" font-family="Helvetica,sans-Serif" font-size="10.00" fill="#000000">iostream</text>
</g>
<!-- Node3&#45;&gt;Node5 -->
<g id="edge5" class="edge">
<title>Node3&#45;&gt;Node5</title>
<path fill="none" stroke="#191970" d="M1711.9472,-63.9744C1492.4471,-60.6882 331.1884,-42.3839 128.0469,-18.531"/>
<polygon fill="#191970" stroke="#191970" points="128.4393,-15.0527 118.0738,-17.2454 127.5442,-21.9953 128.4393,-15.0527"/>
</g>
<!-- Node6 -->
<g id="node7" class="node">
<title>Node6</title>
<polygon fill="#ffffff" stroke="#bfbfbf" points="136.3398,-.5 136.3398,-18.5 185.123,-18.5 185.123,-.5 136.3398,-.5"/>
<text text-anchor="middle" x="160.7314" y="-6.5" font-family="Helvetica,sans-Serif" font-size="10.00" fill="#000000">istream</text>
</g>
<!-- Node3&#45;&gt;Node6 -->
<g id="edge6" class="edge">
<title>Node3&#45;&gt;Node6</title>
<path fill="none" stroke="#191970" d="M1711.997,-63.9913C1498.105,-60.8762 390.2802,-43.7355 195.5036,-18.7613"/>
<polygon fill="#191970" stroke="#191970" points="195.8399,-15.2741 185.4478,-17.3365 194.8579,-22.2049 195.8399,-15.2741"/>
</g>
<!-- Node7 -->
<g id="node8" class="node">
<title>Node7</title>
<polygon fill="#ffffff" stroke="#bfbfbf" points="203.0615,-.5 203.0615,-18.5 252.4014,-18.5 252.4014,-.5 203.0615,-.5"/>
<text text-anchor="middle" x="227.7314" y="-6.5" font-family="Helvetica,sans-Serif" font-size="10.00" fill="#000000">fstream</text>
</g>
<!-- Node3&#45;&gt;Node7 -->
<g id="edge7" class="edge">
<title>Node3&#45;&gt;Node7</title>
<path fill="none" stroke="#191970" d="M1712.1738,-63.9437C1504.4027,-60.6236 450.4173,-42.8079 262.6262,-18.7764"/>
<polygon fill="#191970" stroke="#191970" points="262.8408,-15.2719 252.4484,-17.3329 261.8578,-22.2025 262.8408,-15.2719"/>
</g>
<!-- Node8 -->
<g id="node9" class="node">
<title>Node8</title>
<polygon fill="#ffffff" stroke="#bfbfbf" points="270.1157,-.5 270.1157,-18.5 313.3472,-18.5 313.3472,-.5 270.1157,-.5"/>
<text text-anchor="middle" x="291.7314" y="-6.5" font-family="Helvetica,sans-Serif" font-size="10.00" fill="#000000">vector</text>
</g>
<!-- Node3&#45;&gt;Node8 -->
<g id="edge8" class="edge">
<title>Node3&#45;&gt;Node8</title>
<path fill="none" stroke="#191970" d="M1711.955,-63.9461C1508.8411,-60.7245 503.749,-43.7346 323.514,-18.7044"/>
<polygon fill="#191970" stroke="#191970" points="323.9318,-15.2275 313.5148,-17.1604 322.8635,-22.1455 323.9318,-15.2275"/>
</g>
<!-- Node9 -->
<g id="node10" class="node">
<title>Node9</title>
<polygon fill="#ffffff" stroke="#bfbfbf" points="331.2217,-.5 331.2217,-18.5 382.2412,-18.5 382.2412,-.5 331.2217,-.5"/>
<text text-anchor="middle" x="356.7314" y="-6.5" font-family="Helvetica,sans-Serif" font-size="10.00" fill="#000000">iomanip</text>
</g>
<!-- Node3&#45;&gt;Node9 -->
<g id="edge9" class="edge">
<title>Node3&#45;&gt;Node9</title>
<path fill="none" stroke="#191970" d="M1712.1447,-64.4195C1527.603,-63.835 677.5241,-59.0541 392.4821,-18.6842"/>
<polygon fill="#191970" stroke="#191970" points="392.9846,-15.2205 382.5827,-17.233 391.9693,-22.1465 392.9846,-15.2205"/>
</g>
<!-- Node10 -->
<g id="node11" class="node">
<title>Node10</title>
<polygon fill="#ffffff" stroke="#bfbfbf" points="400.271,-.5 400.271,-18.5 505.1919,-18.5 505.1919,-.5 400.271,-.5"/>
<text text-anchor="middle" x="452.7314" y="-6.5" font-family="Helvetica,sans-Serif" font-size="10.00" fill="#000000">Epetra_MpiComm.h</text>
</g>
<!-- Node3&#45;&gt;Node10 -->
<g id="edge10" class="edge">
<title>Node3&#45;&gt;Node10</title>
<path fill="none" stroke="#191970" d="M1711.9769,-63.7506C1537.7459,-60.0132 775.8701,-42.6596 515.4218,-19.0316"/>
<polygon fill="#191970" stroke="#191970" points="515.5367,-15.5272 505.2544,-18.0813 514.8852,-22.4968 515.5367,-15.5272"/>
</g>
<!-- Node11 -->
<g id="node12" class="node">
<title>Node11</title>
<polygon fill="#ffffff" stroke="#bfbfbf" points="522.9878,-.5 522.9878,-18.5 638.4751,-18.5 638.4751,-.5 522.9878,-.5"/>
<text text-anchor="middle" x="580.7314" y="-6.5" font-family="Helvetica,sans-Serif" font-size="10.00" fill="#000000">Epetra_FECrsGraph.h</text>
</g>
<!-- Node3&#45;&gt;Node11 -->
<g id="edge11" class="edge">
<title>Node3&#45;&gt;Node11</title>
<path fill="none" stroke="#191970" d="M1712.0344,-64.3131C1575.4737,-63.3272 1072.9942,-57.2189 648.8003,-19.002"/>
<polygon fill="#191970" stroke="#191970" points="649.0704,-15.5122 638.7948,-18.0933 648.4372,-22.4835 649.0704,-15.5122"/>
</g>
<!-- Node12 -->
<g id="node13" class="node">
<title>Node12</title>
<polygon fill="#ffffff" stroke="#bfbfbf" points="656.2734,-.5 656.2734,-18.5 771.1895,-18.5 771.1895,-.5 656.2734,-.5"/>
<text text-anchor="middle" x="713.7314" y="-6.5" font-family="Helvetica,sans-Serif" font-size="10.00" fill="#000000">Epetra_FECrsMatrix.h</text>
</g>
<!-- Node3&#45;&gt;Node12 -->
<g id="edge12" class="edge">
<title>Node3&#45;&gt;Node12</title>
<path fill="none" stroke="#191970" d="M1712.045,-64.0577C1586.1226,-62.2369 1150.7147,-53.7332 781.369,-19.0705"/>
<polygon fill="#191970" stroke="#191970" points="781.5707,-15.5741 771.2854,-18.1161 780.911,-22.5429 781.5707,-15.5741"/>
</g>
<!-- Node13 -->
<g id="node14" class="node">
<title>Node13</title>
<polygon fill="#ffffff" stroke="#bfbfbf" points="788.7563,-.5 788.7563,-18.5 888.7065,-18.5 888.7065,-.5 788.7563,-.5"/>
<text text-anchor="middle" x="838.7314" y="-6.5" font-family="Helvetica,sans-Serif" font-size="10.00" fill="#000000">Epetra_FEVector.h</text>
</g>
<!-- Node3&#45;&gt;Node13 -->
<g id="edge13" class="edge">
<title>Node3&#45;&gt;Node13</title>
<path fill="none" stroke="#191970" d="M1711.9938,-63.9439C1596.0862,-61.8537 1220.0086,-52.8246 898.8582,-19.0077"/>
<polygon fill="#191970" stroke="#191970" points="899.2087,-15.5253 888.8948,-17.9487 898.4688,-22.4861 899.2087,-15.5253"/>
</g>
<!-- Node14 -->
<g id="node15" class="node">
<title>Node14</title>
<polygon fill="#ffffff" stroke="#bfbfbf" points="907.1455,-.5 907.1455,-18.5 994.3174,-18.5 994.3174,-.5 907.1455,-.5"/>
<text text-anchor="middle" x="950.7314" y="-6.5" font-family="Helvetica,sans-Serif" font-size="10.00" fill="#000000">Epetra_Vector.h</text>
</g>
<!-- Node3&#45;&gt;Node14 -->
<g id="edge14" class="edge">
<title>Node3&#45;&gt;Node14</title>
<path fill="none" stroke="#191970" d="M1711.9782,-63.787C1605.7832,-61.3573 1282.8585,-51.7157 1004.6376,-18.957"/>
<polygon fill="#191970" stroke="#191970" points="1004.6875,-15.4383 994.3439,-17.7319 1003.8601,-22.3893 1004.6875,-15.4383"/>
</g>
<!-- Node15 -->
<g id="node16" class="node">
<title>Node15</title>
<polygon fill="#ffffff" stroke="#bfbfbf" points="1012.3228,-.5 1012.3228,-18.5 1091.1401,-18.5 1091.1401,-.5 1012.3228,-.5"/>
<text text-anchor="middle" x="1051.7314" y="-6.5" font-family="Helvetica,sans-Serif" font-size="10.00" fill="#000000">Epetra_Map.h</text>
</g>
<!-- Node3&#45;&gt;Node15 -->
<g id="edge15" class="edge">
<title>Node3&#45;&gt;Node15</title>
<path fill="none" stroke="#191970" d="M1712.1002,-63.5651C1615.4147,-60.6956 1339.9155,-50.3103 1101.47,-19.0811"/>
<polygon fill="#191970" stroke="#191970" points="1101.592,-15.5667 1091.2188,-17.7225 1100.6723,-22.5061 1101.592,-15.5667"/>
</g>
<!-- Node16 -->
<g id="node17" class="node">
<title>Node16</title>
<polygon fill="#ffffff" stroke="#bfbfbf" points="1109.2021,-.5 1109.2021,-18.5 1250.2607,-18.5 1250.2607,-.5 1109.2021,-.5"/>
<text text-anchor="middle" x="1179.7314" y="-6.5" font-family="Helvetica,sans-Serif" font-size="10.00" fill="#000000">Epetra_SerialDenseMatrix.h</text>
</g>
<!-- Node3&#45;&gt;Node16 -->
<g id="edge16" class="edge">
<title>Node3&#45;&gt;Node16</title>
<path fill="none" stroke="#191970" d="M1712.1121,-61.5164C1632.915,-54.8115 1435.9855,-37.7471 1260.5478,-19.1717"/>
<polygon fill="#191970" stroke="#191970" points="1260.67,-15.665 1250.356,-18.0882 1259.9299,-22.6258 1260.67,-15.665"/>
</g>
<!-- Node17 -->
<g id="node18" class="node">
<title>Node17</title>
<polygon fill="#ffffff" stroke="#bfbfbf" points="1267.9092,-.5 1267.9092,-18.5 1409.5537,-18.5 1409.5537,-.5 1267.9092,-.5"/>
<text text-anchor="middle" x="1338.7314" y="-6.5" font-family="Helvetica,sans-Serif" font-size="10.00" fill="#000000">Epetra_SerialDenseVector.h</text>
</g>
<!-- Node3&#45;&gt;Node17 -->
<g id="edge17" class="edge">
<title>Node3&#45;&gt;Node17</title>
<path fill="none" stroke="#191970" d="M1712.1509,-59.7153C1646.3719,-50.8697 1504.381,-31.7756 1415.6817,-19.8478"/>
<polygon fill="#191970" stroke="#191970" points="1416.0486,-16.3657 1405.6713,-18.5017 1415.1156,-23.3033 1416.0486,-16.3657"/>
</g>
<!-- Node18 -->
<g id="node19" class="node">
<title>Node18</title>
<polygon fill="#ffffff" stroke="#bfbfbf" points="1427.3501,-.5 1427.3501,-18.5 1580.1128,-18.5 1580.1128,-.5 1427.3501,-.5"/>
<text text-anchor="middle" x="1503.7314" y="-6.5" font-family="Helvetica,sans-Serif" font-size="10.00" fill="#000000">Epetra_IntSerialDenseVector.h</text>
</g>
<!-- Node3&#45;&gt;Node18 -->
<g id="edge18" class="edge">
<title>Node3&#45;&gt;Node18</title>
<path fill="none" stroke="#191970" d="M1711.9904,-56.4436C1670.3079,-47.048 1601.1212,-31.4526 1554.0289,-20.8375"/>
<polygon fill="#191970" stroke="#191970" points="1554.564,-17.3704 1544.0391,-18.5857 1553.0247,-24.1991 1554.564,-17.3704"/>
</g>
<!-- Node19 -->
<g id="node20" class="node">
<title>Node19</title>
<polygon fill="#ffffff" stroke="#bfbfbf" points="1597.8794,-.5 1597.8794,-18.5 1685.5835,-18.5 1685.5835,-.5 1597.8794,-.5"/>
<text text-anchor="middle" x="1641.7314" y="-6.5" font-family="Helvetica,sans-Serif" font-size="10.00" fill="#000000">Epetra_Import.h</text>
</g>
<!-- Node3&#45;&gt;Node19 -->
<g id="edge19" class="edge">
<title>Node3&#45;&gt;Node19</title>
<path fill="none" stroke="#191970" d="M1730.2277,-55.4179C1713.3495,-46.6603 1687.5827,-33.2907 1668.1978,-23.2326"/>
<polygon fill="#191970" stroke="#191970" points="1669.7495,-20.0946 1659.2612,-18.5956 1666.5255,-26.308 1669.7495,-20.0946"/>
</g>
<!-- Node20 -->
<g id="node21" class="node">
<title>Node20</title>
<polygon fill="#ffffff" stroke="#bfbfbf" points="1703.5986,-.5 1703.5986,-18.5 1791.8643,-18.5 1791.8643,-.5 1703.5986,-.5"/>
<text text-anchor="middle" x="1747.7314" y="-6.5" font-family="Helvetica,sans-Serif" font-size="10.00" fill="#000000">Epetra_Export.h</text>
</g>
<!-- Node3&#45;&gt;Node20 -->
<g id="edge20" class="edge">
<title>Node3&#45;&gt;Node20</title>
<path fill="none" stroke="#191970" d="M1747.7314,-55.4179C1747.7314,-48.2164 1747.7314,-37.8962 1747.7314,-28.8632"/>
<polygon fill="#191970" stroke="#191970" points="1751.2315,-28.7794 1747.7314,-18.7795 1744.2315,-28.7795 1751.2315,-28.7794"/>
</g>
<!-- Node21 -->
<g id="node22" class="node">
<title>Node21</title>
<polygon fill="#ffffff" stroke="#bfbfbf" points="1810.1216,-.5 1810.1216,-18.5 1891.3413,-18.5 1891.3413,-.5 1810.1216,-.5"/>
<text text-anchor="middle" x="1850.7314" y="-6.5" font-family="Helvetica,sans-Serif" font-size="10.00" fill="#000000">Epetra_Time.h</text>
</g>
<!-- Node3&#45;&gt;Node21 -->
<g id="edge21" class="edge">
<title>Node3&#45;&gt;Node21</title>
<path fill="none" stroke="#191970" d="M1764.7398,-55.4179C1781.0658,-46.7001 1805.9504,-33.4122 1824.7569,-23.3699"/>
<polygon fill="#191970" stroke="#191970" points="1826.5253,-26.3934 1833.6978,-18.5956 1823.228,-20.2186 1826.5253,-26.3934"/>
</g>
<!-- Node22 -->
<g id="node23" class="node">
<title>Node22</title>
<polygon fill="#ffffff" stroke="#bfbfbf" points="1909.0273,-.5 1909.0273,-18.5 2058.4355,-18.5 2058.4355,-.5 1909.0273,-.5"/>
<text text-anchor="middle" x="1983.7314" y="-6.5" font-family="Helvetica,sans-Serif" font-size="10.00" fill="#000000">ml_MultiLevelPreconditioner.h</text>
</g>
<!-- Node3&#45;&gt;Node22 -->
<g id="edge22" class="edge">
<title>Node3&#45;&gt;Node22</title>
<path fill="none" stroke="#191970" d="M1783.3186,-56.2064C1823.7816,-46.7764 1890.0678,-31.3284 1935.2383,-20.8014"/>
<polygon fill="#191970" stroke="#191970" points="1936.1599,-24.1805 1945.1045,-18.502 1934.571,-17.3632 1936.1599,-24.1805"/>
</g>
<!-- Node23 -->
<g id="node24" class="node">
<title>Node23</title>
<polygon fill="#ffffff" stroke="#bfbfbf" points="2076.6553,-.5 2076.6553,-18.5 2168.8076,-18.5 2168.8076,-.5 2076.6553,-.5"/>
<text text-anchor="middle" x="2122.7314" y="-6.5" font-family="Helvetica,sans-Serif" font-size="10.00" fill="#000000">ml_epetra_utils.h</text>
</g>
<!-- Node3&#45;&gt;Node23 -->
<g id="edge23" class="edge">
<title>Node3&#45;&gt;Node23</title>
<path fill="none" stroke="#191970" d="M1783.298,-59.7952C1840.6314,-52.1344 1957.287,-36.2316 2066.3448,-19.1822"/>
<polygon fill="#191970" stroke="#191970" points="2067.1984,-22.5911 2076.5344,-17.5822 2066.1126,-15.6758 2067.1984,-22.5911"/>
</g>
<!-- Node24 -->
<g id="node25" class="node">
<title>Node24</title>
<polygon fill="#ffffff" stroke="#bfbfbf" points="2186.6602,-.5 2186.6602,-18.5 2258.8027,-18.5 2258.8027,-.5 2186.6602,-.5"/>
<text text-anchor="middle" x="2222.7314" y="-6.5" font-family="Helvetica,sans-Serif" font-size="10.00" fill="#000000">ml_include.h</text>
</g>
<!-- Node3&#45;&gt;Node24 -->
<g id="edge24" class="edge">
<title>Node3&#45;&gt;Node24</title>
<path fill="none" stroke="#191970" d="M1783.2884,-61.9795C1855.5167,-56.5925 2024.7359,-42.6149 2176.4732,-19.0605"/>
<polygon fill="#191970" stroke="#191970" points="2177.1055,-22.5042 2186.4414,-17.4951 2176.0195,-15.5889 2177.1055,-22.5042"/>
</g>
<!-- Node25 -->
<g id="node26" class="node">
<title>Node25</title>
<polygon fill="#ffffff" stroke="#bfbfbf" points="2277.1528,-.5 2277.1528,-18.5 2414.3101,-18.5 2414.3101,-.5 2277.1528,-.5"/>
<text text-anchor="middle" x="2345.7314" y="-6.5" font-family="Helvetica,sans-Serif" font-size="10.00" fill="#000000">EpetraExt_RowMatrixOut.h</text>
</g>
<!-- Node3&#45;&gt;Node25 -->
<g id="edge25" class="edge">
<title>Node3&#45;&gt;Node25</title>
<path fill="none" stroke="#191970" d="M1783.3922,-61.799C1866.2197,-55.4356 2078.2631,-38.6282 2266.7483,-19.0712"/>
<polygon fill="#191970" stroke="#191970" points="2267.2592,-22.537 2276.8423,-18.0189 2266.5333,-15.5748 2267.2592,-22.537"/>
</g>
<!-- Node26 -->
<g id="node27" class="node">
<title>Node26</title>
<polygon fill="#ffffff" stroke="#bfbfbf" points="2432.0322,-.5 2432.0322,-18.5 2571.4307,-18.5 2571.4307,-.5 2432.0322,-.5"/>
<text text-anchor="middle" x="2501.7314" y="-6.5" font-family="Helvetica,sans-Serif" font-size="10.00" fill="#000000">EpetraExt_MultiVectorOut.h</text>
</g>
<!-- Node3&#45;&gt;Node26 -->
<g id="edge26" class="edge">
<title>Node3&#45;&gt;Node26</title>
<path fill="none" stroke="#191970" d="M1783.3337,-62.7826C1882.6756,-57.846 2171.5228,-42.5084 2421.993,-19.1224"/>
<polygon fill="#191970" stroke="#191970" points="2422.382,-22.6014 2432.0105,-18.1808 2421.7268,-15.6321 2422.382,-22.6014"/>
</g>
<!-- Node27 -->
<g id="node28" class="node">
<title>Node27</title>
<polygon fill="#ffffff" stroke="#bfbfbf" points="2589.478,-.5 2589.478,-18.5 2699.9849,-18.5 2699.9849,-.5 2589.478,-.5"/>
<text text-anchor="middle" x="2644.7314" y="-6.5" font-family="Helvetica,sans-Serif" font-size="10.00" fill="#000000">EpetraExt_VectorIn.h</text>
</g>
<!-- Node3&#45;&gt;Node27 -->
<g id="edge27" class="edge">
<title>Node3&#45;&gt;Node27</title>
<path fill="none" stroke="#191970" d="M1783.4264,-62.6431C1930.5395,-54.9787 2486.1408,-25.9172 2579.153,-18.9081"/>
<polygon fill="#191970" stroke="#191970" points="2579.5977,-22.3831 2589.2679,-18.0545 2579.009,-15.4079 2579.5977,-22.3831"/>
</g>
<!-- Node28 -->
<g id="node29" class="node">
<title>Node28</title>
<polygon fill="#ffffff" stroke="#bfbfbf" points="2717.9214,-.5 2717.9214,-18.5 2849.5415,-18.5 2849.5415,-.5 2717.9214,-.5"/>
<text text-anchor="middle" x="2783.7314" y="-6.5" font-family="Helvetica,sans-Serif" font-size="10.00" fill="#000000">EpetraExt_MultiVectorIn.h</text>
</g>
<!-- Node3&#45;&gt;Node28 -->
<g id="edge28" class="edge">
<title>Node3&#45;&gt;Node28</title>
<path fill="none" stroke="#191970" d="M1783.284,-62.7C1821.6397,-60.7655 1884.5113,-57.6159 1938.7314,-55 2277.5877,-38.6517 2365.6986,-48.355 2707.7193,-19.0162"/>
<polygon fill="#191970" stroke="#191970" points="2708.2508,-22.4834 2717.9129,-18.1367 2707.649,-15.5093 2708.2508,-22.4834"/>
</g>
<!-- Node3&#45;&gt;Node29 -->
<g id="edge29" class="edge">
<title>Node3&#45;&gt;Node29</title>
<path fill="none" stroke="#191970" d="M1783.2748,-62.4859C1821.6227,-60.3705 1884.4877,-57.0693 1938.7314,-55 2537.3479,-32.1639 2692.1715,-74.5278 3293.3119,-18.8751"/>
<polygon fill="#191970" stroke="#191970" points="3293.9061,-22.335 3303.5385,-17.9229 3293.2571,-15.3651 3293.9061,-22.335"/>
</g>
<!-- Node30 -->
<g id="node31" class="node">
<title>Node30</title>
<polygon fill="#ffffff" stroke="#bfbfbf" points="2867.5,-.5 2867.5,-18.5 2927.9629,-18.5 2927.9629,-.5 2867.5,-.5"/>
<text text-anchor="middle" x="2897.7314" y="-6.5" font-family="Helvetica,sans-Serif" font-size="10.00" fill="#000000">Amesos.h</text>
</g>
<!-- Node3&#45;&gt;Node30 -->
<g id="edge30" class="edge">
<title>Node3&#45;&gt;Node30</title>
<path fill="none" stroke="#191970" d="M1783.2803,-62.6192C1821.6328,-60.6164 1884.5018,-57.4096 1938.7314,-55 2344.2364,-36.9822 2451.7509,-75.083 2857.2466,-18.9384"/>
<polygon fill="#191970" stroke="#191970" points="2857.7659,-22.4 2867.1863,-17.5517 2856.7986,-15.4671 2857.7659,-22.4"/>
</g>
<!-- Node31 -->
<g id="node32" class="node">
<title>Node31</title>
<polygon fill="#ffffff" stroke="#bfbfbf" points="2946.2783,-.5 2946.2783,-18.5 3011.1846,-18.5 3011.1846,-.5 2946.2783,-.5"/>
<text text-anchor="middle" x="2978.7314" y="-6.5" font-family="Helvetica,sans-Serif" font-size="10.00" fill="#000000">AztecOO.h</text>
</g>
<!-- Node3&#45;&gt;Node31 -->
<g id="edge31" class="edge">
<title>Node3&#45;&gt;Node31</title>
<path fill="none" stroke="#191970" d="M1783.2788,-62.5867C1821.6302,-60.5565 1884.4982,-57.3268 1938.7314,-55 2378.8115,-36.1192 2494.8389,-75.6025 2935.6779,-18.8683"/>
<polygon fill="#191970" stroke="#191970" points="2936.3535,-22.3101 2945.8205,-17.5535 2935.4535,-15.3682 2936.3535,-22.3101"/>
</g>
<!-- Node32 -->
<g id="node33" class="node">
<title>Node32</title>
<polygon fill="#ffffff" stroke="#bfbfbf" points="3029.4238,-.5 3029.4238,-18.5 3146.0391,-18.5 3146.0391,-.5 3029.4238,-.5"/>
<text text-anchor="middle" x="3087.7314" y="-6.5" font-family="Helvetica,sans-Serif" font-size="10.00" fill="#000000">Amesos_BaseSolver.h</text>
</g>
<!-- Node3&#45;&gt;Node32 -->
<g id="edge32" class="edge">
<title>Node3&#45;&gt;Node32</title>
<path fill="none" stroke="#191970" d="M1783.2776,-62.5574C1821.6279,-60.5023 1884.495,-57.2518 1938.7314,-55 2415.7452,-35.1956 2539.1177,-59.9704 3019.2062,-18.9376"/>
<polygon fill="#191970" stroke="#191970" points="3019.5071,-22.4247 3029.1705,-18.0809 3018.9074,-15.4505 3019.5071,-22.4247"/>
</g>
<!-- Node33 -->
<g id="node34" class="node">
<title>Node33</title>
<polygon fill="#ffffff" stroke="#bfbfbf" points="3163.6157,-.5 3163.6157,-18.5 3211.8472,-18.5 3211.8472,-.5 3163.6157,-.5"/>
<text text-anchor="middle" x="3187.7314" y="-6.5" font-family="Helvetica,sans-Serif" font-size="10.00" fill="#000000">metis.h</text>
</g>
<!-- Node3&#45;&gt;Node33 -->
<g id="edge33" class="edge">
<title>Node3&#45;&gt;Node33</title>
<path fill="none" stroke="#191970" d="M1783.276,-62.5181C1821.625,-60.4299 1884.4909,-57.1516 1938.7314,-55 2205.5622,-44.4154 2871.119,-60.3241 3153.0996,-18.814"/>
<polygon fill="#191970" stroke="#191970" points="3154.0175,-22.2147 3163.3764,-17.2486 3152.9634,-15.2945 3154.0175,-22.2147"/>
</g>
<!-- Node34 -->
<g id="node35" class="node">
<title>Node34</title>
<g id="a_node35"><a xlink:href="../../d4/dbc/fepp_8hpp.html" target="_top" xlink:title="fepp.hpp">
<polygon fill="#ffffff" stroke="#000000" points="3230.2686,-.5 3230.2686,-18.5 3285.1943,-18.5 3285.1943,-.5 3230.2686,-.5"/>
<text text-anchor="middle" x="3257.7314" y="-6.5" font-family="Helvetica,sans-Serif" font-size="10.00" fill="#000000">fepp.hpp</text>
</a>
</g>
</g>
<!-- Node3&#45;&gt;Node34 -->
<g id="edge34" class="edge">
<title>Node3&#45;&gt;Node34</title>
<path fill="none" stroke="#191970" d="M1783.5195,-62.1035C1820.2815,-60.0021 1878.8069,-56.9812 1929.7314,-55 2214.5172,-43.9204 2929.5068,-58.6855 3211.7314,-19 3214.502,-18.6104 3217.3643,-18.0912 3220.2531,-17.4957"/>
<polygon fill="#191970" stroke="#191970" points="3221.1103,-20.8902 3230.082,-15.2547 3219.5541,-14.0654 3221.1103,-20.8902"/>
</g>
<!-- Node34&#45;&gt;Node3 -->
<g id="edge35" class="edge">
<title>Node34&#45;&gt;Node3</title>
<path fill="none" stroke="#191970" d="M3232.9154,-18.5037C3231.8462,-18.6858 3230.7822,-18.8522 3229.7314,-19 2947.5068,-58.6855 2232.5172,-43.9204 1947.7314,-55 1895.0862,-57.0482 1834.3179,-60.2074 1793.5816,-62.3133"/>
<polygon fill="#191970" stroke="#191970" points="1793.2238,-58.827 1783.4175,-62.8379 1793.5846,-65.8177 1793.2238,-58.827"/>
</g>
<!-- Node36 -->
<g id="node37" class="node">
<title>Node36</title>
<g id="a_node37"><a xlink:href="../../d9/dea/_linear___finite___element___problem_8hpp.html" target="_top" xlink:title="Linear_Finite_Element\l_Problem.hpp">
<polygon fill="#ffffff" stroke="#000000" points="1796.7021,-110.5 1796.7021,-138.5 1912.7607,-138.5 1912.7607,-110.5 1796.7021,-110.5"/>
<text text-anchor="start" x="1804.7021" y="-126.5" font-family="Helvetica,sans-Serif" font-size="10.00" fill="#000000">Linear_Finite_Element</text>
<text text-anchor="middle" x="1854.7314" y="-116.5" font-family="Helvetica,sans-Serif" font-size="10.00" fill="#000000">_Problem.hpp</text>
</a>
</g>
</g>
<!-- Node35&#45;&gt;Node36 -->
<g id="edge37" class="edge">
<title>Node35&#45;&gt;Node36</title>
<path fill="none" stroke="#191970" d="M1874.2382,-175.3873C1871.4775,-168.1853 1867.4945,-157.795 1863.8465,-148.2784"/>
<polygon fill="#191970" stroke="#191970" points="1867.0789,-146.9323 1860.2314,-138.8477 1860.5427,-149.4379 1867.0789,-146.9323"/>
</g>
<!-- Node36&#45;&gt;Node3 -->
<g id="edge38" class="edge">
<title>Node36&#45;&gt;Node3</title>
<path fill="none" stroke="#191970" d="M1829.6447,-110.4327C1812.55,-100.8468 1790.003,-88.2037 1772.8925,-78.609"/>
<polygon fill="#191970" stroke="#191970" points="1774.4493,-75.4693 1764.0152,-73.6311 1771.0256,-81.5749 1774.4493,-75.4693"/>
</g>
</g>
</svg>
