<?xml version="1.0" encoding="UTF-8" standalone="no"?>
<!DOCTYPE svg PUBLIC "-//W3C//DTD SVG 1.1//EN"
 "http://www.w3.org/Graphics/SVG/1.1/DTD/svg11.dtd">
<!-- Generated by graphviz version 2.40.1 (20161225.0304)
 -->
<!-- Title: laplace Pages: 1 -->
<svg width="124pt" height="147pt"
 viewBox="0.00 0.00 124.06 147.00" xmlns="http://www.w3.org/2000/svg" xmlns:xlink="http://www.w3.org/1999/xlink">
<g id="graph0" class="graph" transform="scale(1 1) rotate(0) translate(4 143)">
<title>laplace</title>
<polygon fill="#ffffff" stroke="transparent" points="-4,4 -4,-143 120.0586,-143 120.0586,4 -4,4"/>
<!-- Node0 -->
<g id="node1" class="node">
<title>Node0</title>
<polygon fill="#bfbfbf" stroke="#000000" points="34.1846,-.5 34.1846,-18.5 81.874,-18.5 81.874,-.5 34.1846,-.5"/>
<text text-anchor="middle" x="58.0293" y="-6.5" font-family="Helvetica,sans-Serif" font-size="10.00" fill="#000000">laplace</text>
</g>
<!-- Node1 -->
<g id="node2" class="node">
<title>Node1</title>
<g id="a_node2"><a xlink:href="../../d3/d9f/class_linear___finite___element___problem.html" target="_top" xlink:title="Linear_Finite_Element\l_Problem">
<polygon fill="#ffffff" stroke="#000000" points="0,-55.5 0,-83.5 116.0586,-83.5 116.0586,-55.5 0,-55.5"/>
<text text-anchor="start" x="8" y="-71.5" font-family="Helvetica,sans-Serif" font-size="10.00" fill="#000000">Linear_Finite_Element</text>
<text text-anchor="middle" x="58.0293" y="-61.5" font-family="Helvetica,sans-Serif" font-size="10.00" fill="#000000">_Problem</text>
</a>
</g>
</g>
<!-- Node1&#45;&gt;Node0 -->
<g id="edge1" class="edge">
<title>Node1&#45;&gt;Node0</title>
<path fill="none" stroke="#191970" d="M58.0293,-45.2151C58.0293,-35.8253 58.0293,-25.6598 58.0293,-18.5842"/>
<polygon fill="#191970" stroke="#191970" points="54.5294,-45.2808 58.0293,-55.2808 61.5294,-45.2809 54.5294,-45.2808"/>
</g>
<!-- Node2 -->
<g id="node3" class="node">
<title>Node2</title>
<g id="a_node3"><a xlink:href="../../d2/d97/class_base_class_f_e_m.html" target="_top" xlink:title="BaseClassFEM">
<polygon fill="#ffffff" stroke="#000000" points="15.5762,-120.5 15.5762,-138.5 100.4824,-138.5 100.4824,-120.5 15.5762,-120.5"/>
<text text-anchor="middle" x="58.0293" y="-126.5" font-family="Helvetica,sans-Serif" font-size="10.00" fill="#000000">BaseClassFEM</text>
</a>
</g>
</g>
<!-- Node2&#45;&gt;Node1 -->
<g id="edge2" class="edge">
<title>Node2&#45;&gt;Node1</title>
<path fill="none" stroke="#191970" d="M58.0293,-110.1865C58.0293,-101.6283 58.0293,-91.7354 58.0293,-83.8477"/>
<polygon fill="#191970" stroke="#191970" points="54.5294,-110.3873 58.0293,-120.3873 61.5294,-110.3873 54.5294,-110.3873"/>
</g>
</g>
</svg>
