<?xml version="1.0" encoding="UTF-8" standalone="no"?>
<!DOCTYPE svg PUBLIC "-//W3C//DTD SVG 1.1//EN"
 "http://www.w3.org/Graphics/SVG/1.1/DTD/svg11.dtd">
<!-- Generated by graphviz version 2.40.1 (20161225.0304)
 -->
<!-- Title: src/shape/ShapeObject3D.hpp Pages: 1 -->
<!--zoomable 137 -->
<svg id="main" version="1.1" xmlns="http://www.w3.org/2000/svg" xmlns:xlink="http://www.w3.org/1999/xlink" xml:space="preserve" onload="init(evt)">
<style type="text/css"><![CDATA[
.edge:hover path { stroke: red; }
.edge:hover polygon { stroke: red; fill: red; }
]]></style>
<script type="text/javascript"><![CDATA[
var edges = document.getElementsByTagName('g');
if (edges && edges.length) {
  for (var i=0;i<edges.length;i++) {
    if (edges[i].id.substr(0,4)=='edge') {
      edges[i].setAttribute('class','edge');
    }
  }
}
]]></script>
        <defs>
                <circle id="rim" cx="0" cy="0" r="7"/>
                <circle id="rim2" cx="0" cy="0" r="3.5"/>
                <g id="zoomPlus">
                        <use xlink:href="#rim" fill="#404040">
                                <set attributeName="fill" to="#808080" begin="zoomplus.mouseover" end="zoomplus.mouseout"/>
                        </use>
                        <path d="M-4,0h8M0,-4v8" fill="none" stroke="white" stroke-width="1.5" pointer-events="none"/>
                </g>
                <g id="zoomMin">
                        <use xlink:href="#rim" fill="#404040">
                                <set attributeName="fill" to="#808080" begin="zoomminus.mouseover" end="zoomminus.mouseout"/>
                        </use>
                        <path d="M-4,0h8" fill="none" stroke="white" stroke-width="1.5" pointer-events="none"/>
                </g>
                <g id="dirArrow">
                        <path fill="none" stroke="white" stroke-width="1.5" d="M0,-3.0v7 M-2.5,-0.5L0,-3.0L2.5,-0.5"/>
                </g>
               <g id="resetDef">
                       <use xlink:href="#rim2" fill="#404040">
                               <set attributeName="fill" to="#808080" begin="reset.mouseover" end="reset.mouseout"/>
                       </use>
               </g>
        </defs>

<script type="text/javascript">
var viewWidth = 624;
var viewHeight = 137;
var sectionId = 'dynsection-1';
</script>
<script xlink:href="../../svgpan.js"/>
<svg id="graph" class="graph">
<g id="viewport">
<title>src/shape/ShapeObject3D.hpp</title>
<polygon fill="#ffffff" stroke="transparent" points="-4,4 -4,-133 620.1865,-133 620.1865,4 -4,4"/>
<!-- Node2 -->
<g id="node1" class="node">
<title>Node2</title>
<polygon fill="#bfbfbf" stroke="#000000" points="218.271,-110.5 218.271,-128.5 370.4673,-128.5 370.4673,-110.5 218.271,-110.5"/>
<text text-anchor="middle" x="294.3691" y="-116.5" font-family="Helvetica,sans-Serif" font-size="10.00" fill="#000000">src/shape/ShapeObject3D.hpp</text>
</g>
<!-- Node3 -->
<g id="node2" class="node">
<title>Node3</title>
<g id="a_node2"><a xlink:href="../../de/d58/_linear_hexa_8hpp.html" target="_top" xlink:title="src/shape/LinearHexa.hpp">
<polygon fill="#ffffff" stroke="#000000" points="0,-55.5 0,-73.5 132.7383,-73.5 132.7383,-55.5 0,-55.5"/>
<text text-anchor="middle" x="66.3691" y="-61.5" font-family="Helvetica,sans-Serif" font-size="10.00" fill="#000000">src/shape/LinearHexa.hpp</text>
</a>
</g>
</g>
<!-- Node2&#45;&gt;Node3 -->
<g id="edge1" class="edge">
<title>Node2&#45;&gt;Node3</title>
<path fill="none" stroke="#191970" d="M247.1398,-108.107C204.6236,-97.8509 142.9724,-82.9789 103.7838,-73.5255"/>
<polygon fill="#191970" stroke="#191970" points="246.4329,-111.5368 256.9749,-110.4795 248.0745,-104.732 246.4329,-111.5368"/>
</g>
<!-- Node5 -->
<g id="node4" class="node">
<title>Node5</title>
<g id="a_node4"><a xlink:href="../../db/d26/_linear_tetra_8hpp.html" target="_top" xlink:title="src/shape/LinearTetra.hpp">
<polygon fill="#ffffff" stroke="#000000" points="150.5566,-55.5 150.5566,-73.5 282.1816,-73.5 282.1816,-55.5 150.5566,-55.5"/>
<text text-anchor="middle" x="216.3691" y="-61.5" font-family="Helvetica,sans-Serif" font-size="10.00" fill="#000000">src/shape/LinearTetra.hpp</text>
</a>
</g>
</g>
<!-- Node2&#45;&gt;Node5 -->
<g id="edge3" class="edge">
<title>Node2&#45;&gt;Node5</title>
<path fill="none" stroke="#191970" d="M272.9433,-104.392C258.9461,-94.5222 241.1301,-81.9596 229.2684,-73.5956"/>
<polygon fill="#191970" stroke="#191970" points="271.2995,-107.5155 281.489,-110.4179 275.3334,-101.7947 271.2995,-107.5155"/>
</g>
<!-- Node7 -->
<g id="node6" class="node">
<title>Node7</title>
<g id="a_node6"><a xlink:href="../../d3/d51/_quadratic_tetra_8hpp.html" target="_top" xlink:title="src/shape/QuadraticTetra.hpp">
<polygon fill="#ffffff" stroke="#000000" points="299.7783,-55.5 299.7783,-73.5 446.96,-73.5 446.96,-55.5 299.7783,-55.5"/>
<text text-anchor="middle" x="373.3691" y="-61.5" font-family="Helvetica,sans-Serif" font-size="10.00" fill="#000000">src/shape/QuadraticTetra.hpp</text>
</a>
</g>
</g>
<!-- Node2&#45;&gt;Node7 -->
<g id="edge5" class="edge">
<title>Node2&#45;&gt;Node7</title>
<path fill="none" stroke="#191970" d="M315.6657,-104.6733C329.9021,-94.7619 348.1763,-82.0393 360.3045,-73.5956"/>
<polygon fill="#191970" stroke="#191970" points="313.6215,-101.8317 307.4144,-110.4179 317.6211,-107.5766 313.6215,-101.8317"/>
</g>
<!-- Node9 -->
<g id="node8" class="node">
<title>Node9</title>
<g id="a_node8"><a xlink:href="../../d6/df5/_shape_object3_d_8cpp.html" target="_top" xlink:title="src/shape/ShapeObject3D.cpp">
<polygon fill="#ffffff" stroke="#000000" points="464.5518,-55.5 464.5518,-73.5 616.1865,-73.5 616.1865,-55.5 464.5518,-55.5"/>
<text text-anchor="middle" x="540.3691" y="-61.5" font-family="Helvetica,sans-Serif" font-size="10.00" fill="#000000">src/shape/ShapeObject3D.cpp</text>
</a>
</g>
</g>
<!-- Node2&#45;&gt;Node9 -->
<g id="edge7" class="edge">
<title>Node2&#45;&gt;Node9</title>
<path fill="none" stroke="#191970" d="M344.7475,-108.2365C390.638,-97.9765 457.5398,-83.0187 500.0007,-73.5255"/>
<polygon fill="#191970" stroke="#191970" points="343.7109,-104.8818 334.7156,-110.4795 345.2383,-111.7131 343.7109,-104.8818"/>
</g>
<!-- Node4 -->
<g id="node3" class="node">
<title>Node4</title>
<g id="a_node3"><a xlink:href="../../d4/ddb/_linear_hexa_8cpp.html" target="_top" xlink:title="src/shape/LinearHexa.cpp">
<polygon fill="#ffffff" stroke="#000000" points=".2808,-.5 .2808,-18.5 132.4575,-18.5 132.4575,-.5 .2808,-.5"/>
<text text-anchor="middle" x="66.3691" y="-6.5" font-family="Helvetica,sans-Serif" font-size="10.00" fill="#000000">src/shape/LinearHexa.cpp</text>
</a>
</g>
</g>
<!-- Node3&#45;&gt;Node4 -->
<g id="edge2" class="edge">
<title>Node3&#45;&gt;Node4</title>
<path fill="none" stroke="#191970" d="M66.3691,-45.383C66.3691,-36.3738 66.3691,-26.0373 66.3691,-18.7795"/>
<polygon fill="#191970" stroke="#191970" points="62.8692,-45.4178 66.3691,-55.4179 69.8692,-45.4179 62.8692,-45.4178"/>
</g>
<!-- Node6 -->
<g id="node5" class="node">
<title>Node6</title>
<g id="a_node5"><a xlink:href="../../df/df0/_linear_tetra_8cpp.html" target="_top" xlink:title="src/shape/LinearTetra.cpp">
<polygon fill="#ffffff" stroke="#000000" points="150.8374,-.5 150.8374,-18.5 281.9009,-18.5 281.9009,-.5 150.8374,-.5"/>
<text text-anchor="middle" x="216.3691" y="-6.5" font-family="Helvetica,sans-Serif" font-size="10.00" fill="#000000">src/shape/LinearTetra.cpp</text>
</a>
</g>
</g>
<!-- Node5&#45;&gt;Node6 -->
<g id="edge4" class="edge">
<title>Node5&#45;&gt;Node6</title>
<path fill="none" stroke="#191970" d="M216.3691,-45.383C216.3691,-36.3738 216.3691,-26.0373 216.3691,-18.7795"/>
<polygon fill="#191970" stroke="#191970" points="212.8692,-45.4178 216.3691,-55.4179 219.8692,-45.4179 212.8692,-45.4178"/>
</g>
<!-- Node8 -->
<g id="node7" class="node">
<title>Node8</title>
<g id="a_node7"><a xlink:href="../../d0/d7b/_quadratic_tetra_8cpp.html" target="_top" xlink:title="src/shape/QuadraticTetra.cpp">
<polygon fill="#ffffff" stroke="#000000" points="300.0591,-.5 300.0591,-18.5 446.6792,-18.5 446.6792,-.5 300.0591,-.5"/>
<text text-anchor="middle" x="373.3691" y="-6.5" font-family="Helvetica,sans-Serif" font-size="10.00" fill="#000000">src/shape/QuadraticTetra.cpp</text>
</a>
</g>
</g>
<!-- Node7&#45;&gt;Node8 -->
<g id="edge6" class="edge">
<title>Node7&#45;&gt;Node8</title>
<path fill="none" stroke="#191970" d="M373.3691,-45.383C373.3691,-36.3738 373.3691,-26.0373 373.3691,-18.7795"/>
<polygon fill="#191970" stroke="#191970" points="369.8692,-45.4178 373.3691,-55.4179 376.8692,-45.4179 369.8692,-45.4178"/>
</g>
</g>
</svg>
        <g id="navigator" transform="translate(0 0)" fill="#404254">
                <rect fill="#f2f5e9" fill-opacity="0.5" stroke="#606060" stroke-width=".5" x="0" y="0" width="60" height="60"/>
                <use id="zoomplus" xlink:href="#zoomPlus" x="17" y="9" onmousedown="handleZoom(evt,'in')"/>
                <use id="zoomminus" xlink:href="#zoomMin" x="42" y="9" onmousedown="handleZoom(evt,'out')"/>
                <use id="reset" xlink:href="#resetDef" x="30" y="36" onmousedown="handleReset()"/>
                <g id="arrowUp" xlink:href="#dirArrow" transform="translate(30 24)" onmousedown="handlePan(0,-1)">
                  <use xlink:href="#rim" fill="#404040">
                        <set attributeName="fill" to="#808080" begin="arrowUp.mouseover" end="arrowUp.mouseout"/>
                  </use>
                  <path fill="none" stroke="white" stroke-width="1.5" d="M0,-3.0v7 M-2.5,-0.5L0,-3.0L2.5,-0.5"/>
                </g>
                <g id="arrowRight" xlink:href="#dirArrow" transform="rotate(90) translate(36 -43)" onmousedown="handlePan(1,0)">
                  <use xlink:href="#rim" fill="#404040">
                        <set attributeName="fill" to="#808080" begin="arrowRight.mouseover" end="arrowRight.mouseout"/>
                  </use>
                  <path fill="none" stroke="white" stroke-width="1.5" d="M0,-3.0v7 M-2.5,-0.5L0,-3.0L2.5,-0.5"/>
                </g>
                <g id="arrowDown" xlink:href="#dirArrow" transform="rotate(180) translate(-30 -48)" onmousedown="handlePan(0,1)">
                  <use xlink:href="#rim" fill="#404040">
                        <set attributeName="fill" to="#808080" begin="arrowDown.mouseover" end="arrowDown.mouseout"/>
                  </use>
                  <path fill="none" stroke="white" stroke-width="1.5" d="M0,-3.0v7 M-2.5,-0.5L0,-3.0L2.5,-0.5"/>
                </g>
                <g id="arrowLeft" xlink:href="#dirArrow" transform="rotate(270) translate(-36 17)" onmousedown="handlePan(-1,0)">
                  <use xlink:href="#rim" fill="#404040">
                        <set attributeName="fill" to="#808080" begin="arrowLeft.mouseover" end="arrowLeft.mouseout"/>
                  </use>
                  <path fill="none" stroke="white" stroke-width="1.5" d="M0,-3.0v7 M-2.5,-0.5L0,-3.0L2.5,-0.5"/>
                </g>
        </g>
        <svg viewBox="0 0 15 15" width="100%" height="30px" preserveAspectRatio="xMaxYMin meet">
         <g id="arrow_out" transform="scale(0.3 0.3)">
          <a xlink:href="_shape_object3_d_8hpp__dep__incl_org.svg" target="_base">
           <rect id="button" ry="5" rx="5" y="6" x="6" height="38" width="38"
                fill="#f2f5e9" fill-opacity="0.5" stroke="#606060" stroke-width="1.0"/>
           <path id="arrow"
             d="M 11.500037,31.436501 C 11.940474,20.09759 22.043105,11.32322 32.158766,21.979434 L 37.068811,17.246167 C 37.068811,17.246167 37.088388,32 37.088388,32 L 22.160133,31.978069 C 22.160133,31.978069 26.997745,27.140456 26.997745,27.140456 C 18.528582,18.264221 13.291696,25.230495 11.500037,31.436501 z"
             style="fill:#404040;"/>
          </a>
         </g>
        </svg>
</svg>
