<?xml version="1.0" encoding="UTF-8" standalone="no"?>
<!DOCTYPE svg PUBLIC "-//W3C//DTD SVG 1.1//EN"
 "http://www.w3.org/Graphics/SVG/1.1/DTD/svg11.dtd">
<!-- Generated by graphviz version 2.40.1 (20161225.0304)
 -->
<!-- Title: src/shinozukapp_layeredcomp_2d.hpp Pages: 1 -->
<!--zoomable 157 -->
<svg id="main" version="1.1" xmlns="http://www.w3.org/2000/svg" xmlns:xlink="http://www.w3.org/1999/xlink" xml:space="preserve" onload="init(evt)">
<style type="text/css"><![CDATA[
.edge:hover path { stroke: red; }
.edge:hover polygon { stroke: red; fill: red; }
]]></style>
<script type="text/javascript"><![CDATA[
var edges = document.getElementsByTagName('g');
if (edges && edges.length) {
  for (var i=0;i<edges.length;i++) {
    if (edges[i].id.substr(0,4)=='edge') {
      edges[i].setAttribute('class','edge');
    }
  }
}
]]></script>
        <defs>
                <circle id="rim" cx="0" cy="0" r="7"/>
                <circle id="rim2" cx="0" cy="0" r="3.5"/>
                <g id="zoomPlus">
                        <use xlink:href="#rim" fill="#404040">
                                <set attributeName="fill" to="#808080" begin="zoomplus.mouseover" end="zoomplus.mouseout"/>
                        </use>
                        <path d="M-4,0h8M0,-4v8" fill="none" stroke="white" stroke-width="1.5" pointer-events="none"/>
                </g>
                <g id="zoomMin">
                        <use xlink:href="#rim" fill="#404040">
                                <set attributeName="fill" to="#808080" begin="zoomminus.mouseover" end="zoomminus.mouseout"/>
                        </use>
                        <path d="M-4,0h8" fill="none" stroke="white" stroke-width="1.5" pointer-events="none"/>
                </g>
                <g id="dirArrow">
                        <path fill="none" stroke="white" stroke-width="1.5" d="M0,-3.0v7 M-2.5,-0.5L0,-3.0L2.5,-0.5"/>
                </g>
               <g id="resetDef">
                       <use xlink:href="#rim2" fill="#404040">
                               <set attributeName="fill" to="#808080" begin="reset.mouseover" end="reset.mouseout"/>
                       </use>
               </g>
        </defs>

<script type="text/javascript">
var viewWidth = 3409;
var viewHeight = 157;
var sectionId = 'dynsection-0';
</script>
<script xlink:href="../../svgpan.js"/>
<svg id="graph" class="graph">
<g id="viewport">
<title>src/shinozukapp_layeredcomp_2d.hpp</title>
<polygon fill="#ffffff" stroke="transparent" points="-4,4 -4,-153 3405.1943,-153 3405.1943,4 -4,4"/>
<!-- Node0 -->
<g id="node1" class="node">
<title>Node0</title>
<polygon fill="#bfbfbf" stroke="#000000" points="1996.1948,-120.5 1996.1948,-148.5 2147.2681,-148.5 2147.2681,-120.5 1996.1948,-120.5"/>
<text text-anchor="start" x="2004.1948" y="-136.5" font-family="Helvetica,sans-Serif" font-size="10.00" fill="#000000">src/shinozukapp_layeredcomp</text>
<text text-anchor="middle" x="2071.7314" y="-126.5" font-family="Helvetica,sans-Serif" font-size="10.00" fill="#000000">_2d.hpp</text>
</g>
<!-- Node1 -->
<g id="node2" class="node">
<title>Node1</title>
<g id="a_node2"><a xlink:href="../../d0/d02/meshpp_8hpp.html" target="_top" xlink:title="meshpp.hpp">
<polygon fill="#ffffff" stroke="#000000" points="1659.2119,-60.5 1659.2119,-78.5 1730.251,-78.5 1730.251,-60.5 1659.2119,-60.5"/>
<text text-anchor="middle" x="1694.7314" y="-66.5" font-family="Helvetica,sans-Serif" font-size="10.00" fill="#000000">meshpp.hpp</text>
</a>
</g>
</g>
<!-- Node0&#45;&gt;Node1 -->
<g id="edge1" class="edge">
<title>Node0&#45;&gt;Node1</title>
<path fill="none" stroke="#191970" d="M1995.912,-126.4857C1928.187,-118.4956 1826.5571,-104.4519 1739.7314,-84 1736.5357,-83.2472 1733.24,-82.3757 1729.9535,-81.4409"/>
<polygon fill="#191970" stroke="#191970" points="1730.8164,-78.0454 1720.2314,-78.5022 1728.791,-84.746 1730.8164,-78.0454"/>
</g>
<!-- Node33 -->
<g id="node34" class="node">
<title>Node33</title>
<polygon fill="#ffffff" stroke="#bfbfbf" points="1748.5347,-55.5 1748.5347,-83.5 1872.9282,-83.5 1872.9282,-55.5 1748.5347,-55.5"/>
<text text-anchor="start" x="1756.5347" y="-71.5" font-family="Helvetica,sans-Serif" font-size="10.00" fill="#000000">boost/random/mersenne</text>
<text text-anchor="middle" x="1810.7314" y="-61.5" font-family="Helvetica,sans-Serif" font-size="10.00" fill="#000000">_twister.hpp</text>
</g>
<!-- Node0&#45;&gt;Node33 -->
<g id="edge34" class="edge">
<title>Node0&#45;&gt;Node33</title>
<path fill="none" stroke="#191970" d="M2015.4197,-120.476C1974.8236,-110.3659 1919.8847,-96.6838 1877.1451,-86.0398"/>
<polygon fill="#191970" stroke="#191970" points="1877.9417,-82.6313 1867.3922,-83.6109 1876.25,-89.4239 1877.9417,-82.6313"/>
</g>
<!-- Node34 -->
<g id="node35" class="node">
<title>Node34</title>
<polygon fill="#ffffff" stroke="#bfbfbf" points="1891.0962,-55.5 1891.0962,-83.5 2004.3667,-83.5 2004.3667,-55.5 1891.0962,-55.5"/>
<text text-anchor="start" x="1899.0962" y="-71.5" font-family="Helvetica,sans-Serif" font-size="10.00" fill="#000000">boost/random/uniform</text>
<text text-anchor="middle" x="1947.7314" y="-61.5" font-family="Helvetica,sans-Serif" font-size="10.00" fill="#000000">_real_distribution.hpp</text>
</g>
<!-- Node0&#45;&gt;Node34 -->
<g id="edge35" class="edge">
<title>Node0&#45;&gt;Node34</title>
<path fill="none" stroke="#191970" d="M2044.8253,-120.396C2026.8699,-110.9839 2003.0594,-98.5026 1983.5116,-88.2557"/>
<polygon fill="#191970" stroke="#191970" points="1985.067,-85.1194 1974.5851,-83.5765 1981.817,-91.3192 1985.067,-85.1194"/>
</g>
<!-- Node35 -->
<g id="node36" class="node">
<title>Node35</title>
<polygon fill="#ffffff" stroke="#bfbfbf" points="2022.042,-55.5 2022.042,-83.5 2121.4209,-83.5 2121.4209,-55.5 2022.042,-55.5"/>
<text text-anchor="start" x="2030.042" y="-71.5" font-family="Helvetica,sans-Serif" font-size="10.00" fill="#000000">boost/math/special</text>
<text text-anchor="middle" x="2071.7314" y="-61.5" font-family="Helvetica,sans-Serif" font-size="10.00" fill="#000000">_functions/erf.hpp</text>
</g>
<!-- Node0&#45;&gt;Node35 -->
<g id="edge36" class="edge">
<title>Node0&#45;&gt;Node35</title>
<path fill="none" stroke="#191970" d="M2071.7314,-120.396C2071.7314,-112.6448 2071.7314,-102.8122 2071.7314,-93.8601"/>
<polygon fill="#191970" stroke="#191970" points="2075.2315,-93.5765 2071.7314,-83.5765 2068.2315,-93.5765 2075.2315,-93.5765"/>
</g>
<!-- Node36 -->
<g id="node37" class="node">
<title>Node36</title>
<polygon fill="#ffffff" stroke="#bfbfbf" points="2139.4854,-55.5 2139.4854,-83.5 2249.9775,-83.5 2249.9775,-55.5 2139.4854,-55.5"/>
<text text-anchor="start" x="2147.4854" y="-71.5" font-family="Helvetica,sans-Serif" font-size="10.00" fill="#000000">boost/random/normal</text>
<text text-anchor="middle" x="2194.7314" y="-61.5" font-family="Helvetica,sans-Serif" font-size="10.00" fill="#000000">_distribution.hpp</text>
</g>
<!-- Node0&#45;&gt;Node36 -->
<g id="edge37" class="edge">
<title>Node0&#45;&gt;Node36</title>
<path fill="none" stroke="#191970" d="M2098.4206,-120.396C2116.2312,-110.9839 2139.8496,-98.5026 2159.2398,-88.2557"/>
<polygon fill="#191970" stroke="#191970" points="2160.8883,-91.3433 2168.0944,-83.5765 2157.6177,-85.1543 2160.8883,-91.3433"/>
</g>
<!-- Node37 -->
<g id="node38" class="node">
<title>Node37</title>
<polygon fill="#ffffff" stroke="#bfbfbf" points="2268.1455,-55.5 2268.1455,-83.5 2385.3174,-83.5 2385.3174,-55.5 2268.1455,-55.5"/>
<text text-anchor="start" x="2276.1455" y="-71.5" font-family="Helvetica,sans-Serif" font-size="10.00" fill="#000000">boost/math/special</text>
<text text-anchor="middle" x="2326.7314" y="-61.5" font-family="Helvetica,sans-Serif" font-size="10.00" fill="#000000">_functions/gamma.hpp</text>
</g>
<!-- Node0&#45;&gt;Node37 -->
<g id="edge38" class="edge">
<title>Node0&#45;&gt;Node37</title>
<path fill="none" stroke="#191970" d="M2126.7487,-120.476C2166.328,-110.3871 2219.8615,-96.7413 2261.5806,-86.1071"/>
<polygon fill="#191970" stroke="#191970" points="2262.5476,-89.4726 2271.3732,-83.6109 2260.8185,-82.6895 2262.5476,-89.4726"/>
</g>
<!-- Node38 -->
<g id="node39" class="node">
<title>Node38</title>
<polygon fill="#ffffff" stroke="#bfbfbf" points="2403.0864,-55.5 2403.0864,-83.5 2506.3765,-83.5 2506.3765,-55.5 2403.0864,-55.5"/>
<text text-anchor="start" x="2411.0864" y="-71.5" font-family="Helvetica,sans-Serif" font-size="10.00" fill="#000000">boost/math/special</text>
<text text-anchor="middle" x="2454.7314" y="-61.5" font-family="Helvetica,sans-Serif" font-size="10.00" fill="#000000">_functions/beta.hpp</text>
</g>
<!-- Node0&#45;&gt;Node38 -->
<g id="edge39" class="edge">
<title>Node0&#45;&gt;Node38</title>
<path fill="none" stroke="#191970" d="M2147.4204,-124.4558C2210.7037,-115.647 2303.5298,-101.7744 2393.0306,-84.2528"/>
<polygon fill="#191970" stroke="#191970" points="2393.9485,-87.6392 2403.0803,-82.267 2392.5915,-80.772 2393.9485,-87.6392"/>
</g>
<!-- Node2 -->
<g id="node3" class="node">
<title>Node2</title>
<polygon fill="#ffffff" stroke="#bfbfbf" points="0,-.5 0,-18.5 45.4629,-18.5 45.4629,-.5 0,-.5"/>
<text text-anchor="middle" x="22.7314" y="-6.5" font-family="Helvetica,sans-Serif" font-size="10.00" fill="#000000">stdio.h</text>
</g>
<!-- Node1&#45;&gt;Node2 -->
<g id="edge2" class="edge">
<title>Node1&#45;&gt;Node2</title>
<path fill="none" stroke="#191970" d="M1658.8576,-68.9501C1437.4992,-65.4846 260.3646,-45.9877 55.6811,-18.5508"/>
<polygon fill="#191970" stroke="#191970" points="56.0427,-15.0664 45.6391,-17.0705 55.0217,-21.9916 56.0427,-15.0664"/>
</g>
<!-- Node3 -->
<g id="node4" class="node">
<title>Node3</title>
<polygon fill="#ffffff" stroke="#bfbfbf" points="63.5591,-.5 63.5591,-18.5 117.9038,-18.5 117.9038,-.5 63.5591,-.5"/>
<text text-anchor="middle" x="90.7314" y="-6.5" font-family="Helvetica,sans-Serif" font-size="10.00" fill="#000000">iostream</text>
</g>
<!-- Node1&#45;&gt;Node3 -->
<g id="edge3" class="edge">
<title>Node1&#45;&gt;Node3</title>
<path fill="none" stroke="#191970" d="M1659.1132,-69.4117C1457.6294,-68.7539 458.3993,-63.3414 128.1237,-18.6347"/>
<polygon fill="#191970" stroke="#191970" points="128.4634,-15.1482 118.0756,-17.2325 127.4959,-22.0811 128.4634,-15.1482"/>
</g>
<!-- Node4 -->
<g id="node5" class="node">
<title>Node4</title>
<polygon fill="#ffffff" stroke="#bfbfbf" points="136.3398,-.5 136.3398,-18.5 185.123,-18.5 185.123,-.5 136.3398,-.5"/>
<text text-anchor="middle" x="160.7314" y="-6.5" font-family="Helvetica,sans-Serif" font-size="10.00" fill="#000000">istream</text>
</g>
<!-- Node1&#45;&gt;Node4 -->
<g id="edge4" class="edge">
<title>Node1&#45;&gt;Node4</title>
<path fill="none" stroke="#191970" d="M1659.1848,-68.8293C1450.1806,-64.8175 384.245,-43.3896 195.4409,-18.7623"/>
<polygon fill="#191970" stroke="#191970" points="195.8463,-15.2847 185.4497,-17.3246 194.8492,-22.2133 195.8463,-15.2847"/>
</g>
<!-- Node5 -->
<g id="node6" class="node">
<title>Node5</title>
<polygon fill="#ffffff" stroke="#bfbfbf" points="203.0615,-.5 203.0615,-18.5 252.4014,-18.5 252.4014,-.5 203.0615,-.5"/>
<text text-anchor="middle" x="227.7314" y="-6.5" font-family="Helvetica,sans-Serif" font-size="10.00" fill="#000000">fstream</text>
</g>
<!-- Node1&#45;&gt;Node5 -->
<g id="edge5" class="edge">
<title>Node1&#45;&gt;Node5</title>
<path fill="none" stroke="#191970" d="M1659.011,-69.4267C1467.7707,-68.8568 562.7664,-63.8743 262.4475,-18.8693"/>
<polygon fill="#191970" stroke="#191970" points="262.8684,-15.3929 252.4503,-17.3203 261.7965,-22.3103 262.8684,-15.3929"/>
</g>
<!-- Node6 -->
<g id="node7" class="node">
<title>Node6</title>
<polygon fill="#ffffff" stroke="#bfbfbf" points="270.1157,-.5 270.1157,-18.5 313.3472,-18.5 313.3472,-.5 270.1157,-.5"/>
<text text-anchor="middle" x="291.7314" y="-6.5" font-family="Helvetica,sans-Serif" font-size="10.00" fill="#000000">vector</text>
</g>
<!-- Node1&#45;&gt;Node6 -->
<g id="edge6" class="edge">
<title>Node1&#45;&gt;Node6</title>
<path fill="none" stroke="#191970" d="M1658.9729,-68.7614C1460.5207,-64.587 497.4579,-43.3218 323.398,-18.6986"/>
<polygon fill="#191970" stroke="#191970" points="323.9387,-15.2406 313.5169,-17.1476 322.8533,-22.156 323.9387,-15.2406"/>
</g>
<!-- Node7 -->
<g id="node8" class="node">
<title>Node7</title>
<polygon fill="#ffffff" stroke="#bfbfbf" points="331.2217,-.5 331.2217,-18.5 382.2412,-18.5 382.2412,-.5 331.2217,-.5"/>
<text text-anchor="middle" x="356.7314" y="-6.5" font-family="Helvetica,sans-Serif" font-size="10.00" fill="#000000">iomanip</text>
</g>
<!-- Node1&#45;&gt;Node7 -->
<g id="edge7" class="edge">
<title>Node1&#45;&gt;Node7</title>
<path fill="none" stroke="#191970" d="M1659.0434,-69.2077C1478.7513,-67.5669 666.3164,-58.1754 392.4879,-18.6952"/>
<polygon fill="#191970" stroke="#191970" points="392.992,-15.2317 382.585,-17.2177 391.959,-22.1551 392.992,-15.2317"/>
</g>
<!-- Node8 -->
<g id="node9" class="node">
<title>Node8</title>
<polygon fill="#ffffff" stroke="#bfbfbf" points="400.271,-.5 400.271,-18.5 505.1919,-18.5 505.1919,-.5 400.271,-.5"/>
<text text-anchor="middle" x="452.7314" y="-6.5" font-family="Helvetica,sans-Serif" font-size="10.00" fill="#000000">Epetra_MpiComm.h</text>
</g>
<!-- Node1&#45;&gt;Node8 -->
<g id="edge8" class="edge">
<title>Node1&#45;&gt;Node8</title>
<path fill="none" stroke="#191970" d="M1659.1001,-68.5147C1489.7655,-63.7507 764.5888,-42.414 515.3439,-19.0349"/>
<polygon fill="#191970" stroke="#191970" points="515.5463,-15.5382 505.2563,-18.0615 514.8739,-22.5059 515.5463,-15.5382"/>
</g>
<!-- Node9 -->
<g id="node10" class="node">
<title>Node9</title>
<polygon fill="#ffffff" stroke="#bfbfbf" points="522.9878,-.5 522.9878,-18.5 638.4751,-18.5 638.4751,-.5 522.9878,-.5"/>
<text text-anchor="middle" x="580.7314" y="-6.5" font-family="Helvetica,sans-Serif" font-size="10.00" fill="#000000">Epetra_FECrsGraph.h</text>
</g>
<!-- Node1&#45;&gt;Node9 -->
<g id="edge9" class="edge">
<title>Node1&#45;&gt;Node9</title>
<path fill="none" stroke="#191970" d="M1658.9395,-68.9749C1526.4371,-66.7786 1051.1156,-56.6568 648.8819,-19.0197"/>
<polygon fill="#191970" stroke="#191970" points="649.0815,-15.523 638.7971,-18.0688 648.4243,-22.4921 649.0815,-15.523"/>
</g>
<!-- Node10 -->
<g id="node11" class="node">
<title>Node10</title>
<polygon fill="#ffffff" stroke="#bfbfbf" points="656.2734,-.5 656.2734,-18.5 771.1895,-18.5 771.1895,-.5 656.2734,-.5"/>
<text text-anchor="middle" x="713.7314" y="-6.5" font-family="Helvetica,sans-Serif" font-size="10.00" fill="#000000">Epetra_FECrsMatrix.h</text>
</g>
<!-- Node1&#45;&gt;Node10 -->
<g id="edge10" class="edge">
<title>Node1&#45;&gt;Node10</title>
<path fill="none" stroke="#191970" d="M1658.8917,-68.6537C1537.2388,-65.5424 1128.7823,-53.142 781.2921,-19.0767"/>
<polygon fill="#191970" stroke="#191970" points="781.5838,-15.5885 771.2881,-18.0883 780.8954,-22.5546 781.5838,-15.5885"/>
</g>
<!-- Node11 -->
<g id="node12" class="node">
<title>Node11</title>
<polygon fill="#ffffff" stroke="#bfbfbf" points="788.7563,-.5 788.7563,-18.5 888.7065,-18.5 888.7065,-.5 788.7563,-.5"/>
<text text-anchor="middle" x="838.7314" y="-6.5" font-family="Helvetica,sans-Serif" font-size="10.00" fill="#000000">Epetra_FEVector.h</text>
</g>
<!-- Node1&#45;&gt;Node11 -->
<g id="edge11" class="edge">
<title>Node1&#45;&gt;Node11</title>
<path fill="none" stroke="#191970" d="M1658.8774,-68.4599C1547.6554,-64.9727 1198.4874,-52.0657 899.0808,-19.0478"/>
<polygon fill="#191970" stroke="#191970" points="899.2242,-15.5423 888.8985,-17.915 898.4501,-22.4994 899.2242,-15.5423"/>
</g>
<!-- Node12 -->
<g id="node13" class="node">
<title>Node12</title>
<polygon fill="#ffffff" stroke="#bfbfbf" points="907.1455,-.5 907.1455,-18.5 994.3174,-18.5 994.3174,-.5 907.1455,-.5"/>
<text text-anchor="middle" x="950.7314" y="-6.5" font-family="Helvetica,sans-Serif" font-size="10.00" fill="#000000">Epetra_Vector.h</text>
</g>
<!-- Node1&#45;&gt;Node12 -->
<g id="edge12" class="edge">
<title>Node1&#45;&gt;Node12</title>
<path fill="none" stroke="#191970" d="M1659,-68.2062C1557.9578,-64.2679 1261.4178,-50.7816 1004.6194,-18.9751"/>
<polygon fill="#191970" stroke="#191970" points="1004.7061,-15.4588 994.349,-17.6905 1003.8372,-22.4046 1004.7061,-15.4588"/>
</g>
<!-- Node13 -->
<g id="node14" class="node">
<title>Node13</title>
<polygon fill="#ffffff" stroke="#bfbfbf" points="1012.3228,-.5 1012.3228,-18.5 1091.1401,-18.5 1091.1401,-.5 1012.3228,-.5"/>
<text text-anchor="middle" x="1051.7314" y="-6.5" font-family="Helvetica,sans-Serif" font-size="10.00" fill="#000000">Epetra_Map.h</text>
</g>
<!-- Node1&#45;&gt;Node13 -->
<g id="edge13" class="edge">
<title>Node1&#45;&gt;Node13</title>
<path fill="none" stroke="#191970" d="M1659.0326,-67.8512C1567.7706,-63.3421 1318.3909,-49.1729 1101.2152,-19.0755"/>
<polygon fill="#191970" stroke="#191970" points="1101.614,-15.5972 1091.2252,-17.6764 1100.6431,-22.5296 1101.614,-15.5972"/>
</g>
<!-- Node14 -->
<g id="node15" class="node">
<title>Node14</title>
<polygon fill="#ffffff" stroke="#bfbfbf" points="1109.2021,-.5 1109.2021,-18.5 1250.2607,-18.5 1250.2607,-.5 1109.2021,-.5"/>
<text text-anchor="middle" x="1179.7314" y="-6.5" font-family="Helvetica,sans-Serif" font-size="10.00" fill="#000000">Epetra_SerialDenseMatrix.h</text>
</g>
<!-- Node1&#45;&gt;Node14 -->
<g id="edge14" class="edge">
<title>Node1&#45;&gt;Node14</title>
<path fill="none" stroke="#191970" d="M1659.1203,-65.4286C1586.3334,-57.0956 1415.004,-37.4219 1260.5152,-19.2069"/>
<polygon fill="#191970" stroke="#191970" points="1260.7061,-15.7053 1250.3648,-18.0094 1259.8858,-22.657 1260.7061,-15.7053"/>
</g>
<!-- Node15 -->
<g id="node16" class="node">
<title>Node15</title>
<polygon fill="#ffffff" stroke="#bfbfbf" points="1267.9092,-.5 1267.9092,-18.5 1409.5537,-18.5 1409.5537,-.5 1267.9092,-.5"/>
<text text-anchor="middle" x="1338.7314" y="-6.5" font-family="Helvetica,sans-Serif" font-size="10.00" fill="#000000">Epetra_SerialDenseVector.h</text>
</g>
<!-- Node1&#45;&gt;Node15 -->
<g id="edge15" class="edge">
<title>Node1&#45;&gt;Node15</title>
<path fill="none" stroke="#191970" d="M1658.9668,-63.4723C1599.0161,-53.3682 1477.4657,-32.8822 1402.5678,-20.2589"/>
<polygon fill="#191970" stroke="#191970" points="1402.7629,-16.7425 1392.3202,-18.5318 1401.5995,-23.6452 1402.7629,-16.7425"/>
</g>
<!-- Node16 -->
<g id="node17" class="node">
<title>Node16</title>
<polygon fill="#ffffff" stroke="#bfbfbf" points="1427.3501,-.5 1427.3501,-18.5 1580.1128,-18.5 1580.1128,-.5 1427.3501,-.5"/>
<text text-anchor="middle" x="1503.7314" y="-6.5" font-family="Helvetica,sans-Serif" font-size="10.00" fill="#000000">Epetra_IntSerialDenseVector.h</text>
</g>
<!-- Node1&#45;&gt;Node16 -->
<g id="edge16" class="edge">
<title>Node1&#45;&gt;Node16</title>
<path fill="none" stroke="#191970" d="M1665.7227,-60.3873C1632.7176,-50.0192 1578.6779,-33.0434 1542.1834,-21.5791"/>
<polygon fill="#191970" stroke="#191970" points="1542.9767,-18.1598 1532.3874,-18.5019 1540.8788,-24.838 1542.9767,-18.1598"/>
</g>
<!-- Node17 -->
<g id="node18" class="node">
<title>Node17</title>
<polygon fill="#ffffff" stroke="#bfbfbf" points="1597.8794,-.5 1597.8794,-18.5 1685.5835,-18.5 1685.5835,-.5 1597.8794,-.5"/>
<text text-anchor="middle" x="1641.7314" y="-6.5" font-family="Helvetica,sans-Serif" font-size="10.00" fill="#000000">Epetra_Import.h</text>
</g>
<!-- Node1&#45;&gt;Node17 -->
<g id="edge17" class="edge">
<title>Node1&#45;&gt;Node17</title>
<path fill="none" stroke="#191970" d="M1686.6819,-60.3873C1678.7437,-51.4007 1666.4205,-37.4499 1656.6833,-26.4267"/>
<polygon fill="#191970" stroke="#191970" points="1659.1003,-23.8761 1649.8568,-18.6985 1653.854,-28.5104 1659.1003,-23.8761"/>
</g>
<!-- Node18 -->
<g id="node19" class="node">
<title>Node18</title>
<polygon fill="#ffffff" stroke="#bfbfbf" points="1703.5986,-.5 1703.5986,-18.5 1791.8643,-18.5 1791.8643,-.5 1703.5986,-.5"/>
<text text-anchor="middle" x="1747.7314" y="-6.5" font-family="Helvetica,sans-Serif" font-size="10.00" fill="#000000">Epetra_Export.h</text>
</g>
<!-- Node1&#45;&gt;Node18 -->
<g id="edge18" class="edge">
<title>Node1&#45;&gt;Node18</title>
<path fill="none" stroke="#191970" d="M1702.781,-60.3873C1710.7192,-51.4007 1723.0423,-37.4499 1732.7796,-26.4267"/>
<polygon fill="#191970" stroke="#191970" points="1735.6089,-28.5104 1739.6061,-18.6985 1730.3626,-23.8761 1735.6089,-28.5104"/>
</g>
<!-- Node19 -->
<g id="node20" class="node">
<title>Node19</title>
<polygon fill="#ffffff" stroke="#bfbfbf" points="1810.1216,-.5 1810.1216,-18.5 1891.3413,-18.5 1891.3413,-.5 1810.1216,-.5"/>
<text text-anchor="middle" x="1850.7314" y="-6.5" font-family="Helvetica,sans-Serif" font-size="10.00" fill="#000000">Epetra_Time.h</text>
</g>
<!-- Node1&#45;&gt;Node19 -->
<g id="edge19" class="edge">
<title>Node1&#45;&gt;Node19</title>
<path fill="none" stroke="#191970" d="M1718.4245,-60.3873C1744.9207,-50.1964 1788.0147,-33.6218 1817.7847,-22.1718"/>
<polygon fill="#191970" stroke="#191970" points="1819.2496,-25.3584 1827.3266,-18.5019 1816.7367,-18.825 1819.2496,-25.3584"/>
</g>
<!-- Node20 -->
<g id="node21" class="node">
<title>Node20</title>
<polygon fill="#ffffff" stroke="#bfbfbf" points="1909.0273,-.5 1909.0273,-18.5 2058.4355,-18.5 2058.4355,-.5 1909.0273,-.5"/>
<text text-anchor="middle" x="1983.7314" y="-6.5" font-family="Helvetica,sans-Serif" font-size="10.00" fill="#000000">ml_MultiLevelPreconditioner.h</text>
</g>
<!-- Node1&#45;&gt;Node20 -->
<g id="edge20" class="edge">
<title>Node1&#45;&gt;Node20</title>
<path fill="none" stroke="#191970" d="M1720.7429,-60.4977C1726.9232,-58.5319 1733.5251,-56.5718 1739.7314,-55 1797.7655,-40.3027 1864.6717,-28.1572 1913.7285,-20.1224"/>
<polygon fill="#191970" stroke="#191970" points="1914.294,-23.5766 1923.6047,-18.5208 1913.1734,-16.6668 1914.294,-23.5766"/>
</g>
<!-- Node21 -->
<g id="node22" class="node">
<title>Node21</title>
<polygon fill="#ffffff" stroke="#bfbfbf" points="2076.6553,-.5 2076.6553,-18.5 2168.8076,-18.5 2168.8076,-.5 2076.6553,-.5"/>
<text text-anchor="middle" x="2122.7314" y="-6.5" font-family="Helvetica,sans-Serif" font-size="10.00" fill="#000000">ml_epetra_utils.h</text>
</g>
<!-- Node1&#45;&gt;Node21 -->
<g id="edge21" class="edge">
<title>Node1&#45;&gt;Node21</title>
<path fill="none" stroke="#191970" d="M1719.716,-60.4593C1726.167,-58.3996 1733.1494,-56.4065 1739.7314,-55 1879.9257,-25.0427 1920.6957,-38.8336 2066.3423,-19.1036"/>
<polygon fill="#191970" stroke="#191970" points="2067.1253,-22.5286 2076.5505,-17.6895 2066.1648,-15.5948 2067.1253,-22.5286"/>
</g>
<!-- Node22 -->
<g id="node23" class="node">
<title>Node22</title>
<polygon fill="#ffffff" stroke="#bfbfbf" points="2186.6602,-.5 2186.6602,-18.5 2258.8027,-18.5 2258.8027,-.5 2186.6602,-.5"/>
<text text-anchor="middle" x="2222.7314" y="-6.5" font-family="Helvetica,sans-Serif" font-size="10.00" fill="#000000">ml_include.h</text>
</g>
<!-- Node1&#45;&gt;Node22 -->
<g id="edge22" class="edge">
<title>Node1&#45;&gt;Node22</title>
<path fill="none" stroke="#191970" d="M1719.2192,-60.4853C1725.8006,-58.3733 1732.9698,-56.3486 1739.7314,-55 1928.1019,-17.4303 1982.6552,-46.2373 2176.5141,-18.9969"/>
<polygon fill="#191970" stroke="#191970" points="2177.0521,-22.4557 2186.4526,-17.5688 2176.0565,-15.5268 2177.0521,-22.4557"/>
</g>
<!-- Node23 -->
<g id="node24" class="node">
<title>Node23</title>
<polygon fill="#ffffff" stroke="#bfbfbf" points="2277.1528,-.5 2277.1528,-18.5 2414.3101,-18.5 2414.3101,-.5 2277.1528,-.5"/>
<text text-anchor="middle" x="2345.7314" y="-6.5" font-family="Helvetica,sans-Serif" font-size="10.00" fill="#000000">EpetraExt_RowMatrixOut.h</text>
</g>
<!-- Node1&#45;&gt;Node23 -->
<g id="edge23" class="edge">
<title>Node1&#45;&gt;Node23</title>
<path fill="none" stroke="#191970" d="M1719.2067,-60.4214C1725.7882,-58.31 1732.9606,-56.3014 1739.7314,-55 1967.4439,-11.2307 2031.7586,-40.3743 2266.6225,-19.0416"/>
<polygon fill="#191970" stroke="#191970" points="2267.2165,-22.5015 2276.8495,-18.0907 2266.5684,-15.5316 2267.2165,-22.5015"/>
</g>
<!-- Node24 -->
<g id="node25" class="node">
<title>Node24</title>
<polygon fill="#ffffff" stroke="#bfbfbf" points="2432.0322,-.5 2432.0322,-18.5 2571.4307,-18.5 2571.4307,-.5 2432.0322,-.5"/>
<text text-anchor="middle" x="2501.7314" y="-6.5" font-family="Helvetica,sans-Serif" font-size="10.00" fill="#000000">EpetraExt_MultiVectorOut.h</text>
</g>
<!-- Node1&#45;&gt;Node24 -->
<g id="edge24" class="edge">
<title>Node1&#45;&gt;Node24</title>
<path fill="none" stroke="#191970" d="M1719.1933,-60.3504C1725.7749,-58.2394 1732.9507,-56.249 1739.7314,-55 2035.7538,-.4751 2118.6046,-44.4073 2421.6048,-19.1201"/>
<polygon fill="#191970" stroke="#191970" points="2422.3491,-22.5694 2432.0151,-18.2315 2421.7536,-15.5948 2422.3491,-22.5694"/>
</g>
<!-- Node25 -->
<g id="node26" class="node">
<title>Node25</title>
<polygon fill="#ffffff" stroke="#bfbfbf" points="2589.478,-.5 2589.478,-18.5 2699.9849,-18.5 2699.9849,-.5 2589.478,-.5"/>
<text text-anchor="middle" x="2644.7314" y="-6.5" font-family="Helvetica,sans-Serif" font-size="10.00" fill="#000000">EpetraExt_VectorIn.h</text>
</g>
<!-- Node1&#45;&gt;Node25 -->
<g id="edge25" class="edge">
<title>Node1&#45;&gt;Node25</title>
<path fill="none" stroke="#191970" d="M1718.716,-60.4563C1725.4248,-58.2894 1732.7831,-56.2446 1739.7314,-55 2104.7534,10.3859 2206.5169,-53.3735 2579.2914,-19.0316"/>
<polygon fill="#191970" stroke="#191970" points="2579.6427,-22.5141 2589.2719,-18.0947 2578.9885,-15.5447 2579.6427,-22.5141"/>
</g>
<!-- Node26 -->
<g id="node27" class="node">
<title>Node26</title>
<polygon fill="#ffffff" stroke="#bfbfbf" points="2717.9214,-.5 2717.9214,-18.5 2849.5415,-18.5 2849.5415,-.5 2717.9214,-.5"/>
<text text-anchor="middle" x="2783.7314" y="-6.5" font-family="Helvetica,sans-Serif" font-size="10.00" fill="#000000">EpetraExt_MultiVectorIn.h</text>
</g>
<!-- Node1&#45;&gt;Node26 -->
<g id="edge26" class="edge">
<title>Node1&#45;&gt;Node26</title>
<path fill="none" stroke="#191970" d="M1718.7114,-60.4303C1725.4201,-58.2634 1732.7796,-56.225 1739.7314,-55 2160.8401,19.2064 2277.384,-52.967 2707.6925,-18.9949"/>
<polygon fill="#191970" stroke="#191970" points="2708.2287,-22.4631 2717.9159,-18.1725 2707.6674,-15.4857 2708.2287,-22.4631"/>
</g>
<!-- Node27 -->
<g id="node28" class="node">
<title>Node27</title>
<polygon fill="#ffffff" stroke="#bfbfbf" points="2867.6841,-.5 2867.6841,-18.5 2965.7788,-18.5 2965.7788,-.5 2867.6841,-.5"/>
<text text-anchor="middle" x="2916.7314" y="-6.5" font-family="Helvetica,sans-Serif" font-size="10.00" fill="#000000">Teuchos_RCP.hpp</text>
</g>
<!-- Node1&#45;&gt;Node27 -->
<g id="edge27" class="edge">
<title>Node1&#45;&gt;Node27</title>
<path fill="none" stroke="#191970" d="M1718.7074,-60.4075C1725.4161,-58.2404 1732.7766,-56.2077 1739.7314,-55 1981.6266,-12.994 2594.6655,-42.3613 2857.0991,-18.989"/>
<polygon fill="#191970" stroke="#191970" points="2857.7968,-22.4392 2867.4277,-18.0237 2857.1454,-15.4695 2857.7968,-22.4392"/>
</g>
<!-- Node28 -->
<g id="node29" class="node">
<title>Node28</title>
<polygon fill="#ffffff" stroke="#bfbfbf" points="2983.5,-.5 2983.5,-18.5 3043.9629,-18.5 3043.9629,-.5 2983.5,-.5"/>
<text text-anchor="middle" x="3013.7314" y="-6.5" font-family="Helvetica,sans-Serif" font-size="10.00" fill="#000000">Amesos.h</text>
</g>
<!-- Node1&#45;&gt;Node28 -->
<g id="edge28" class="edge">
<title>Node1&#45;&gt;Node28</title>
<path fill="none" stroke="#191970" d="M1718.705,-60.3936C1725.4137,-58.2265 1732.7748,-56.1972 1739.7314,-55 2277.5948,37.5657 2428.6937,-90.7987 2973.1158,-18.9279"/>
<polygon fill="#191970" stroke="#191970" points="2973.7424,-22.3754 2983.1904,-17.5811 2972.8148,-15.4371 2973.7424,-22.3754"/>
</g>
<!-- Node29 -->
<g id="node30" class="node">
<title>Node29</title>
<polygon fill="#ffffff" stroke="#bfbfbf" points="3062.2783,-.5 3062.2783,-18.5 3127.1846,-18.5 3127.1846,-.5 3062.2783,-.5"/>
<text text-anchor="middle" x="3094.7314" y="-6.5" font-family="Helvetica,sans-Serif" font-size="10.00" fill="#000000">AztecOO.h</text>
</g>
<!-- Node1&#45;&gt;Node29 -->
<g id="edge29" class="edge">
<title>Node1&#45;&gt;Node29</title>
<path fill="none" stroke="#191970" d="M1718.7036,-60.3856C1725.4123,-58.2185 1732.7737,-56.1912 1739.7314,-55 2024.2017,-6.2963 2746.6511,-54.2683 3051.5961,-18.8213"/>
<polygon fill="#191970" stroke="#191970" points="3052.3182,-22.2594 3061.824,-17.5809 3051.4754,-15.3103 3052.3182,-22.2594"/>
</g>
<!-- Node30 -->
<g id="node31" class="node">
<title>Node30</title>
<polygon fill="#ffffff" stroke="#bfbfbf" points="3145.4238,-.5 3145.4238,-18.5 3262.0391,-18.5 3262.0391,-.5 3145.4238,-.5"/>
<text text-anchor="middle" x="3203.7314" y="-6.5" font-family="Helvetica,sans-Serif" font-size="10.00" fill="#000000">Amesos_BaseSolver.h</text>
</g>
<!-- Node1&#45;&gt;Node30 -->
<g id="edge30" class="edge">
<title>Node1&#45;&gt;Node30</title>
<path fill="none" stroke="#191970" d="M1718.7024,-60.3781C1725.411,-58.2109 1732.7728,-56.1855 1739.7314,-55 2042.3626,-3.4407 2809.736,-43.6258 3134.7429,-18.9364"/>
<polygon fill="#191970" stroke="#191970" points="3135.481,-22.389 3145.1729,-18.109 3134.9274,-15.4109 3135.481,-22.389"/>
</g>
<!-- Node31 -->
<g id="node32" class="node">
<title>Node31</title>
<polygon fill="#ffffff" stroke="#bfbfbf" points="3279.6157,-.5 3279.6157,-18.5 3327.8472,-18.5 3327.8472,-.5 3279.6157,-.5"/>
<text text-anchor="middle" x="3303.7314" y="-6.5" font-family="Helvetica,sans-Serif" font-size="10.00" fill="#000000">metis.h</text>
</g>
<!-- Node1&#45;&gt;Node31 -->
<g id="edge31" class="edge">
<title>Node1&#45;&gt;Node31</title>
<path fill="none" stroke="#191970" d="M1718.7006,-60.3676C1725.4093,-58.2004 1732.7714,-56.1776 1739.7314,-55 2072.0835,1.2343 2918.0225,-69.1325 3269.3841,-18.7523"/>
<polygon fill="#191970" stroke="#191970" points="3270.0028,-22.1989 3279.3791,-17.2657 3268.9729,-15.275 3270.0028,-22.1989"/>
</g>
<!-- Node32 -->
<g id="node33" class="node">
<title>Node32</title>
<g id="a_node33"><a xlink:href="../../d4/dbc/fepp_8hpp.html" target="_top" xlink:title="fepp.hpp">
<polygon fill="#ffffff" stroke="#000000" points="3346.2686,-.5 3346.2686,-18.5 3401.1943,-18.5 3401.1943,-.5 3346.2686,-.5"/>
<text text-anchor="middle" x="3373.7314" y="-6.5" font-family="Helvetica,sans-Serif" font-size="10.00" fill="#000000">fepp.hpp</text>
</a>
</g>
</g>
<!-- Node1&#45;&gt;Node32 -->
<g id="edge32" class="edge">
<title>Node1&#45;&gt;Node32</title>
<path fill="none" stroke="#191970" d="M1710.041,-60.3632C1716.4085,-58.1959 1723.7709,-56.1743 1730.7314,-55 2080.7644,4.0511 2976.0753,-67.4566 3327.7314,-19 3330.5031,-18.6181 3333.3661,-18.104 3336.2553,-17.5118"/>
<polygon fill="#191970" stroke="#191970" points="3337.1106,-20.9067 3346.0849,-15.2753 3335.5575,-14.0812 3337.1106,-20.9067"/>
</g>
<!-- Node32&#45;&gt;Node1 -->
<g id="edge33" class="edge">
<title>Node32&#45;&gt;Node1</title>
<path fill="none" stroke="#191970" d="M3348.9164,-18.5114C3347.8469,-18.6913 3346.7826,-18.8552 3345.7314,-19 2994.0753,-67.4566 2098.7644,4.0511 1748.7314,-55 1744.9249,-55.6422 1740.9981,-56.5378 1737.0681,-57.572"/>
<polygon fill="#191970" stroke="#191970" points="1736.0024,-54.2366 1727.3586,-60.3632 1737.9364,-60.9641 1736.0024,-54.2366"/>
</g>
</g>
</svg>
        <g id="navigator" transform="translate(0 0)" fill="#404254">
                <rect fill="#f2f5e9" fill-opacity="0.5" stroke="#606060" stroke-width=".5" x="0" y="0" width="60" height="60"/>
                <use id="zoomplus" xlink:href="#zoomPlus" x="17" y="9" onmousedown="handleZoom(evt,'in')"/>
                <use id="zoomminus" xlink:href="#zoomMin" x="42" y="9" onmousedown="handleZoom(evt,'out')"/>
                <use id="reset" xlink:href="#resetDef" x="30" y="36" onmousedown="handleReset()"/>
                <g id="arrowUp" xlink:href="#dirArrow" transform="translate(30 24)" onmousedown="handlePan(0,-1)">
                  <use xlink:href="#rim" fill="#404040">
                        <set attributeName="fill" to="#808080" begin="arrowUp.mouseover" end="arrowUp.mouseout"/>
                  </use>
                  <path fill="none" stroke="white" stroke-width="1.5" d="M0,-3.0v7 M-2.5,-0.5L0,-3.0L2.5,-0.5"/>
                </g>
                <g id="arrowRight" xlink:href="#dirArrow" transform="rotate(90) translate(36 -43)" onmousedown="handlePan(1,0)">
                  <use xlink:href="#rim" fill="#404040">
                        <set attributeName="fill" to="#808080" begin="arrowRight.mouseover" end="arrowRight.mouseout"/>
                  </use>
                  <path fill="none" stroke="white" stroke-width="1.5" d="M0,-3.0v7 M-2.5,-0.5L0,-3.0L2.5,-0.5"/>
                </g>
                <g id="arrowDown" xlink:href="#dirArrow" transform="rotate(180) translate(-30 -48)" onmousedown="handlePan(0,1)">
                  <use xlink:href="#rim" fill="#404040">
                        <set attributeName="fill" to="#808080" begin="arrowDown.mouseover" end="arrowDown.mouseout"/>
                  </use>
                  <path fill="none" stroke="white" stroke-width="1.5" d="M0,-3.0v7 M-2.5,-0.5L0,-3.0L2.5,-0.5"/>
                </g>
                <g id="arrowLeft" xlink:href="#dirArrow" transform="rotate(270) translate(-36 17)" onmousedown="handlePan(-1,0)">
                  <use xlink:href="#rim" fill="#404040">
                        <set attributeName="fill" to="#808080" begin="arrowLeft.mouseover" end="arrowLeft.mouseout"/>
                  </use>
                  <path fill="none" stroke="white" stroke-width="1.5" d="M0,-3.0v7 M-2.5,-0.5L0,-3.0L2.5,-0.5"/>
                </g>
        </g>
        <svg viewBox="0 0 15 15" width="100%" height="30px" preserveAspectRatio="xMaxYMin meet">
         <g id="arrow_out" transform="scale(0.3 0.3)">
          <a xlink:href="shinozukapp__layeredcomp__2d_8hpp__incl_org.svg" target="_base">
           <rect id="button" ry="5" rx="5" y="6" x="6" height="38" width="38"
                fill="#f2f5e9" fill-opacity="0.5" stroke="#606060" stroke-width="1.0"/>
           <path id="arrow"
             d="M 11.500037,31.436501 C 11.940474,20.09759 22.043105,11.32322 32.158766,21.979434 L 37.068811,17.246167 C 37.068811,17.246167 37.088388,32 37.088388,32 L 22.160133,31.978069 C 22.160133,31.978069 26.997745,27.140456 26.997745,27.140456 C 18.528582,18.264221 13.291696,25.230495 11.500037,31.436501 z"
             style="fill:#404040;"/>
          </a>
         </g>
        </svg>
</svg>
