<?xml version="1.0" encoding="UTF-8" standalone="no"?>
<!DOCTYPE svg PUBLIC "-//W3C//DTD SVG 1.1//EN"
 "http://www.w3.org/Graphics/SVG/1.1/DTD/svg11.dtd">
<!-- Generated by graphviz version 2.40.1 (20161225.0304)
 -->
<!-- Title: nrl/manufactured_solution/main.cpp Pages: 1 -->
<!--zoomable 377 -->
<svg id="main" version="1.1" xmlns="http://www.w3.org/2000/svg" xmlns:xlink="http://www.w3.org/1999/xlink" xml:space="preserve" onload="init(evt)">
<style type="text/css"><![CDATA[
.edge:hover path { stroke: red; }
.edge:hover polygon { stroke: red; fill: red; }
]]></style>
<script type="text/javascript"><![CDATA[
var edges = document.getElementsByTagName('g');
if (edges && edges.length) {
  for (var i=0;i<edges.length;i++) {
    if (edges[i].id.substr(0,4)=='edge') {
      edges[i].setAttribute('class','edge');
    }
  }
}
]]></script>
        <defs>
                <circle id="rim" cx="0" cy="0" r="7"/>
                <circle id="rim2" cx="0" cy="0" r="3.5"/>
                <g id="zoomPlus">
                        <use xlink:href="#rim" fill="#404040">
                                <set attributeName="fill" to="#808080" begin="zoomplus.mouseover" end="zoomplus.mouseout"/>
                        </use>
                        <path d="M-4,0h8M0,-4v8" fill="none" stroke="white" stroke-width="1.5" pointer-events="none"/>
                </g>
                <g id="zoomMin">
                        <use xlink:href="#rim" fill="#404040">
                                <set attributeName="fill" to="#808080" begin="zoomminus.mouseover" end="zoomminus.mouseout"/>
                        </use>
                        <path d="M-4,0h8" fill="none" stroke="white" stroke-width="1.5" pointer-events="none"/>
                </g>
                <g id="dirArrow">
                        <path fill="none" stroke="white" stroke-width="1.5" d="M0,-3.0v7 M-2.5,-0.5L0,-3.0L2.5,-0.5"/>
                </g>
               <g id="resetDef">
                       <use xlink:href="#rim2" fill="#404040">
                               <set attributeName="fill" to="#808080" begin="reset.mouseover" end="reset.mouseout"/>
                       </use>
               </g>
        </defs>

<script type="text/javascript">
var viewWidth = 3135;
var viewHeight = 377;
var sectionId = 'dynsection-0';
</script>
<script xlink:href="../../svgpan.js"/>
<svg id="graph" class="graph">
<g id="viewport">
<title>nrl/manufactured_solution/main.cpp</title>
<polygon fill="#ffffff" stroke="transparent" points="-4,4 -4,-373 3130.9629,-373 3130.9629,4 -4,4"/>
<!-- Node0 -->
<g id="node1" class="node">
<title>Node0</title>
<polygon fill="#bfbfbf" stroke="#000000" points="1719.9189,-340.5 1719.9189,-368.5 1850.9873,-368.5 1850.9873,-340.5 1719.9189,-340.5"/>
<text text-anchor="start" x="1727.9189" y="-356.5" font-family="Helvetica,sans-Serif" font-size="10.00" fill="#000000">nrl/manufactured_solution</text>
<text text-anchor="middle" x="1785.4531" y="-346.5" font-family="Helvetica,sans-Serif" font-size="10.00" fill="#000000">/main.cpp</text>
</g>
<!-- Node1 -->
<g id="node2" class="node">
<title>Node1</title>
<polygon fill="#ffffff" stroke="#bfbfbf" points="1601.0371,-285.5 1601.0371,-303.5 1709.8691,-303.5 1709.8691,-285.5 1601.0371,-285.5"/>
<text text-anchor="middle" x="1655.4531" y="-291.5" font-family="Helvetica,sans-Serif" font-size="10.00" fill="#000000">Epetra_ConfigDefs.h</text>
</g>
<!-- Node0&#45;&gt;Node1 -->
<g id="edge1" class="edge">
<title>Node0&#45;&gt;Node1</title>
<path fill="none" stroke="#191970" d="M1754.9739,-340.4327C1733.7239,-330.625 1705.5393,-317.6167 1684.5898,-307.9477"/>
<polygon fill="#191970" stroke="#191970" points="1685.7834,-304.6438 1675.2371,-303.6311 1682.85,-310.9996 1685.7834,-304.6438"/>
</g>
<!-- Node2 -->
<g id="node3" class="node">
<title>Node2</title>
<polygon fill="#ffffff" stroke="#bfbfbf" points="1728.2661,-285.5 1728.2661,-303.5 1842.6401,-303.5 1842.6401,-285.5 1728.2661,-285.5"/>
<text text-anchor="middle" x="1785.4531" y="-291.5" font-family="Helvetica,sans-Serif" font-size="10.00" fill="#000000">Epetra_SerialComm.h</text>
</g>
<!-- Node0&#45;&gt;Node2 -->
<g id="edge2" class="edge">
<title>Node0&#45;&gt;Node2</title>
<path fill="none" stroke="#191970" d="M1785.4531,-340.2808C1785.4531,-332.3776 1785.4531,-322.4316 1785.4531,-313.8308"/>
<polygon fill="#191970" stroke="#191970" points="1788.9532,-313.5842 1785.4531,-303.5842 1781.9532,-313.5842 1788.9532,-313.5842"/>
</g>
<!-- Node3 -->
<g id="node4" class="node">
<title>Node3</title>
<g id="a_node4"><a xlink:href="../../dc/de4/manufactured_solution_8hpp.html" target="_top" xlink:title="manufacturedSolution.hpp">
<polygon fill="#ffffff" stroke="#000000" points="1861.0791,-285.5 1861.0791,-303.5 1993.8271,-303.5 1993.8271,-285.5 1861.0791,-285.5"/>
<text text-anchor="middle" x="1927.4531" y="-291.5" font-family="Helvetica,sans-Serif" font-size="10.00" fill="#000000">manufacturedSolution.hpp</text>
</a>
</g>
</g>
<!-- Node0&#45;&gt;Node3 -->
<g id="edge3" class="edge">
<title>Node0&#45;&gt;Node3</title>
<path fill="none" stroke="#191970" d="M1818.7458,-340.4327C1842.2725,-330.4918 1873.5808,-317.263 1896.5544,-307.5558"/>
<polygon fill="#191970" stroke="#191970" points="1897.9938,-310.7473 1905.8429,-303.6311 1895.2692,-304.2993 1897.9938,-310.7473"/>
</g>
<!-- Node4 -->
<g id="node5" class="node">
<title>Node4</title>
<g id="a_node5"><a xlink:href="../../de/d49/tensor__calculus_8hpp.html" target="_top" xlink:title="tensor_calculus.hpp">
<polygon fill="#ffffff" stroke="#000000" points="1403.9805,-230.5 1403.9805,-248.5 1508.9258,-248.5 1508.9258,-230.5 1403.9805,-230.5"/>
<text text-anchor="middle" x="1456.4531" y="-236.5" font-family="Helvetica,sans-Serif" font-size="10.00" fill="#000000">tensor_calculus.hpp</text>
</a>
</g>
</g>
<!-- Node3&#45;&gt;Node4 -->
<g id="edge4" class="edge">
<title>Node3&#45;&gt;Node4</title>
<path fill="none" stroke="#191970" d="M1860.7319,-286.1023C1857.5958,-285.7256 1854.4906,-285.3565 1851.4531,-285 1705.7998,-267.9045 1668.9605,-267.2964 1523.4531,-249 1521.9961,-248.8168 1520.5216,-248.6288 1519.0348,-248.437"/>
<polygon fill="#191970" stroke="#191970" points="1519.4712,-244.9643 1509.099,-247.1245 1518.5545,-251.904 1519.4712,-244.9643"/>
</g>
<!-- Node37 -->
<g id="node35" class="node">
<title>Node37</title>
<g id="a_node35"><a xlink:href="../../d7/d17/_newton___raphsonpp_8hpp.html" target="_top" xlink:title="Newton_Raphsonpp.hpp">
<polygon fill="#ffffff" stroke="#000000" points="2098.4116,-230.5 2098.4116,-248.5 2224.4946,-248.5 2224.4946,-230.5 2098.4116,-230.5"/>
<text text-anchor="middle" x="2161.4531" y="-236.5" font-family="Helvetica,sans-Serif" font-size="10.00" fill="#000000">Newton_Raphsonpp.hpp</text>
</a>
</g>
</g>
<!-- Node3&#45;&gt;Node37 -->
<g id="edge34" class="edge">
<title>Node3&#45;&gt;Node37</title>
<path fill="none" stroke="#191970" d="M1965.8314,-285.4795C2006.1281,-276.008 2069.5834,-261.0933 2113.2342,-250.8335"/>
<polygon fill="#191970" stroke="#191970" points="2114.12,-254.2208 2123.0539,-248.5255 2112.5183,-247.4065 2114.12,-254.2208"/>
</g>
<!-- Node38 -->
<g id="node36" class="node">
<title>Node38</title>
<g id="a_node36"><a xlink:href="../../de/d9d/hyperelasticity__setup__pp_8hpp.html" target="_top" xlink:title="hyperelasticity_setup\l_pp.hpp">
<polygon fill="#ffffff" stroke="#000000" points="1249.7612,-165.5 1249.7612,-193.5 1359.145,-193.5 1359.145,-165.5 1249.7612,-165.5"/>
<text text-anchor="start" x="1257.7612" y="-181.5" font-family="Helvetica,sans-Serif" font-size="10.00" fill="#000000">hyperelasticity_setup</text>
<text text-anchor="middle" x="1304.4531" y="-171.5" font-family="Helvetica,sans-Serif" font-size="10.00" fill="#000000">_pp.hpp</text>
</a>
</g>
</g>
<!-- Node3&#45;&gt;Node38 -->
<g id="edge69" class="edge">
<title>Node3&#45;&gt;Node38</title>
<path fill="none" stroke="#191970" d="M1872.5487,-285.4707C1773.9113,-269.0655 1560.0107,-232.6538 1369.1642,-194.0938"/>
<polygon fill="#191970" stroke="#191970" points="1369.727,-190.6368 1359.2311,-192.0806 1368.3365,-197.4973 1369.727,-190.6368"/>
</g>
<!-- Node52 -->
<g id="node49" class="node">
<title>Node52</title>
<g id="a_node49"><a xlink:href="../../d5/d75/distributenrldata_8hpp.html" target="_top" xlink:title="distributenrldata.hpp">
<polygon fill="#ffffff" stroke="#000000" points="2880.1455,-110.5 2880.1455,-128.5 2986.7607,-128.5 2986.7607,-110.5 2880.1455,-110.5"/>
<text text-anchor="middle" x="2933.4531" y="-116.5" font-family="Helvetica,sans-Serif" font-size="10.00" fill="#000000">distributenrldata.hpp</text>
</a>
</g>
</g>
<!-- Node3&#45;&gt;Node52 -->
<g id="edge51" class="edge">
<title>Node3&#45;&gt;Node52</title>
<path fill="none" stroke="#191970" d="M1993.9019,-292.0867C2204.0922,-283.8623 2844.7705,-254.0495 2914.4531,-194 2930.2128,-180.419 2933.8254,-155.7601 2934.2402,-138.5464"/>
<polygon fill="#191970" stroke="#191970" points="2937.7397,-138.4678 2934.1465,-128.5009 2930.74,-138.5331 2937.7397,-138.4678"/>
</g>
<!-- Node5 -->
<g id="node6" class="node">
<title>Node5</title>
<g id="a_node6"><a xlink:href="../../d0/d02/meshpp_8hpp.html" target="_top" xlink:title="meshpp.hpp">
<polygon fill="#ffffff" stroke="#ff0000" points="1612.9336,-55.5 1612.9336,-73.5 1683.9727,-73.5 1683.9727,-55.5 1612.9336,-55.5"/>
<text text-anchor="middle" x="1648.4531" y="-61.5" font-family="Helvetica,sans-Serif" font-size="10.00" fill="#000000">meshpp.hpp</text>
</a>
</g>
</g>
<!-- Node4&#45;&gt;Node5 -->
<g id="edge5" class="edge">
<title>Node4&#45;&gt;Node5</title>
<path fill="none" stroke="#191970" d="M1403.852,-235.8595C1346.6474,-230.6764 1260.6441,-218.8872 1240.4531,-194 1225.3405,-175.3723 1251.5367,-114.1548 1256.4531,-110 1282.4868,-87.9996 1504.9154,-72.7091 1602.6766,-66.9906"/>
<polygon fill="#191970" stroke="#191970" points="1603.0691,-70.4739 1612.8509,-66.4038 1602.6659,-63.4855 1603.0691,-70.4739"/>
</g>
<!-- Node6 -->
<g id="node7" class="node">
<title>Node6</title>
<polygon fill="#ffffff" stroke="#bfbfbf" points="2817.7217,-.5 2817.7217,-18.5 2863.1846,-18.5 2863.1846,-.5 2817.7217,-.5"/>
<text text-anchor="middle" x="2840.4531" y="-6.5" font-family="Helvetica,sans-Serif" font-size="10.00" fill="#000000">stdio.h</text>
</g>
<!-- Node5&#45;&gt;Node6 -->
<g id="edge6" class="edge">
<title>Node5&#45;&gt;Node6</title>
<path fill="none" stroke="#191970" d="M1684.0963,-64.2971C1851.7554,-63.163 2563.5728,-56.2962 2807.3306,-18.6864"/>
<polygon fill="#191970" stroke="#191970" points="2808.223,-22.088 2817.5416,-17.0466 2807.1131,-15.1765 2808.223,-22.088"/>
</g>
<!-- Node7 -->
<g id="node8" class="node">
<title>Node7</title>
<polygon fill="#ffffff" stroke="#bfbfbf" points="2745.2808,-.5 2745.2808,-18.5 2799.6255,-18.5 2799.6255,-.5 2745.2808,-.5"/>
<text text-anchor="middle" x="2772.4531" y="-6.5" font-family="Helvetica,sans-Serif" font-size="10.00" fill="#000000">iostream</text>
</g>
<!-- Node5&#45;&gt;Node7 -->
<g id="edge7" class="edge">
<title>Node5&#45;&gt;Node7</title>
<path fill="none" stroke="#191970" d="M1684.0138,-64.0461C1844.9434,-61.836 2506.7162,-51.0328 2735.1657,-18.8311"/>
<polygon fill="#191970" stroke="#191970" points="2735.6769,-22.2936 2745.0638,-17.3807 2734.662,-15.3676 2735.6769,-22.2936"/>
</g>
<!-- Node8 -->
<g id="node9" class="node">
<title>Node8</title>
<polygon fill="#ffffff" stroke="#bfbfbf" points="2881.0615,-.5 2881.0615,-18.5 2929.8447,-18.5 2929.8447,-.5 2881.0615,-.5"/>
<text text-anchor="middle" x="2905.4531" y="-6.5" font-family="Helvetica,sans-Serif" font-size="10.00" fill="#000000">istream</text>
</g>
<!-- Node5&#45;&gt;Node8 -->
<g id="edge8" class="edge">
<title>Node5&#45;&gt;Node8</title>
<path fill="none" stroke="#191970" d="M1683.9945,-64.3431C1857.1754,-63.4032 2614.3232,-57.2308 2870.7276,-18.8697"/>
<polygon fill="#191970" stroke="#191970" points="2871.3894,-22.309 2880.7334,-17.315 2870.3145,-15.392 2871.3894,-22.309"/>
</g>
<!-- Node9 -->
<g id="node10" class="node">
<title>Node9</title>
<polygon fill="#ffffff" stroke="#bfbfbf" points="3008.7832,-.5 3008.7832,-18.5 3058.123,-18.5 3058.123,-.5 3008.7832,-.5"/>
<text text-anchor="middle" x="3033.4531" y="-6.5" font-family="Helvetica,sans-Serif" font-size="10.00" fill="#000000">fstream</text>
</g>
<!-- Node5&#45;&gt;Node9 -->
<g id="edge9" class="edge">
<title>Node5&#45;&gt;Node9</title>
<path fill="none" stroke="#191970" d="M1683.9811,-63.8281C1879.9762,-60.0529 2826.2819,-40.9156 2998.723,-18.7544"/>
<polygon fill="#191970" stroke="#191970" points="2999.3302,-22.2033 3008.7349,-17.3246 2998.3405,-15.2736 2999.3302,-22.2033"/>
</g>
<!-- Node10 -->
<g id="node11" class="node">
<title>Node10</title>
<polygon fill="#ffffff" stroke="#bfbfbf" points="2947.8374,-.5 2947.8374,-18.5 2991.0688,-18.5 2991.0688,-.5 2947.8374,-.5"/>
<text text-anchor="middle" x="2969.4531" y="-6.5" font-family="Helvetica,sans-Serif" font-size="10.00" fill="#000000">vector</text>
</g>
<!-- Node5&#45;&gt;Node10 -->
<g id="edge10" class="edge">
<title>Node5&#45;&gt;Node10</title>
<path fill="none" stroke="#191970" d="M1684.2525,-63.7971C1875.138,-59.9763 2770.414,-41.1135 2937.2775,-18.5326"/>
<polygon fill="#191970" stroke="#191970" points="2938.2443,-21.9263 2947.6085,-16.9703 2937.1976,-15.005 2938.2443,-21.9263"/>
</g>
<!-- Node11 -->
<g id="node12" class="node">
<title>Node11</title>
<polygon fill="#ffffff" stroke="#bfbfbf" points="3075.9434,-.5 3075.9434,-18.5 3126.9629,-18.5 3126.9629,-.5 3075.9434,-.5"/>
<text text-anchor="middle" x="3101.4531" y="-6.5" font-family="Helvetica,sans-Serif" font-size="10.00" fill="#000000">iomanip</text>
</g>
<!-- Node5&#45;&gt;Node11 -->
<g id="edge11" class="edge">
<title>Node5&#45;&gt;Node11</title>
<path fill="none" stroke="#191970" d="M1684.0423,-63.8708C1886.0945,-60.2317 2885.9537,-41.3103 3065.6338,-18.7972"/>
<polygon fill="#191970" stroke="#191970" points="3066.1812,-22.2549 3075.605,-17.4131 3065.2187,-15.3213 3066.1812,-22.2549"/>
</g>
<!-- Node12 -->
<g id="node13" class="node">
<title>Node12</title>
<polygon fill="#ffffff" stroke="#bfbfbf" points="82.9927,-.5 82.9927,-18.5 187.9136,-18.5 187.9136,-.5 82.9927,-.5"/>
<text text-anchor="middle" x="135.4531" y="-6.5" font-family="Helvetica,sans-Serif" font-size="10.00" fill="#000000">Epetra_MpiComm.h</text>
</g>
<!-- Node5&#45;&gt;Node12 -->
<g id="edge12" class="edge">
<title>Node5&#45;&gt;Node12</title>
<path fill="none" stroke="#191970" d="M1612.6823,-63.9777C1420.141,-61.0762 504.7158,-46.1188 198.1816,-19.0277"/>
<polygon fill="#191970" stroke="#191970" points="198.2501,-15.5195 187.9743,-18.0999 197.6164,-22.4908 198.2501,-15.5195"/>
</g>
<!-- Node13 -->
<g id="node14" class="node">
<title>Node13</title>
<polygon fill="#ffffff" stroke="#bfbfbf" points="205.7095,-.5 205.7095,-18.5 321.1968,-18.5 321.1968,-.5 205.7095,-.5"/>
<text text-anchor="middle" x="263.4531" y="-6.5" font-family="Helvetica,sans-Serif" font-size="10.00" fill="#000000">Epetra_FECrsGraph.h</text>
</g>
<!-- Node5&#45;&gt;Node13 -->
<g id="edge13" class="edge">
<title>Node5&#45;&gt;Node13</title>
<path fill="none" stroke="#191970" d="M1612.7309,-63.7818C1431.3343,-60.057 610.2805,-42.2482 331.5954,-18.9827"/>
<polygon fill="#191970" stroke="#191970" points="331.7769,-15.4855 321.5143,-18.1177 331.1784,-22.4599 331.7769,-15.4855"/>
</g>
<!-- Node14 -->
<g id="node15" class="node">
<title>Node14</title>
<polygon fill="#ffffff" stroke="#bfbfbf" points="338.9951,-.5 338.9951,-18.5 453.9111,-18.5 453.9111,-.5 338.9951,-.5"/>
<text text-anchor="middle" x="396.4531" y="-6.5" font-family="Helvetica,sans-Serif" font-size="10.00" fill="#000000">Epetra_FECrsMatrix.h</text>
</g>
<!-- Node5&#45;&gt;Node14 -->
<g id="edge14" class="edge">
<title>Node5&#45;&gt;Node14</title>
<path fill="none" stroke="#191970" d="M1612.6765,-63.6333C1442.6506,-59.4378 714.5036,-40.5921 464.1374,-19.0431"/>
<polygon fill="#191970" stroke="#191970" points="464.2742,-15.5416 454.0043,-18.1455 463.6564,-22.5143 464.2742,-15.5416"/>
</g>
<!-- Node15 -->
<g id="node16" class="node">
<title>Node15</title>
<polygon fill="#ffffff" stroke="#bfbfbf" points="471.478,-.5 471.478,-18.5 571.4282,-18.5 571.4282,-.5 471.478,-.5"/>
<text text-anchor="middle" x="521.4531" y="-6.5" font-family="Helvetica,sans-Serif" font-size="10.00" fill="#000000">Epetra_FEVector.h</text>
</g>
<!-- Node5&#45;&gt;Node15 -->
<g id="edge15" class="edge">
<title>Node5&#45;&gt;Node15</title>
<path fill="none" stroke="#191970" d="M1612.7979,-63.5432C1453.7628,-59.1907 807.459,-40.5797 581.7196,-18.984"/>
<polygon fill="#191970" stroke="#191970" points="581.9081,-15.4856 571.6126,-17.9861 581.2203,-22.4518 581.9081,-15.4856"/>
</g>
<!-- Node16 -->
<g id="node17" class="node">
<title>Node16</title>
<polygon fill="#ffffff" stroke="#bfbfbf" points="589.8672,-.5 589.8672,-18.5 677.0391,-18.5 677.0391,-.5 589.8672,-.5"/>
<text text-anchor="middle" x="633.4531" y="-6.5" font-family="Helvetica,sans-Serif" font-size="10.00" fill="#000000">Epetra_Vector.h</text>
</g>
<!-- Node5&#45;&gt;Node16 -->
<g id="edge16" class="edge">
<title>Node5&#45;&gt;Node16</title>
<path fill="none" stroke="#191970" d="M1612.8398,-63.4374C1464.0409,-58.9036 890.7686,-40.4736 687.0572,-18.8765"/>
<polygon fill="#191970" stroke="#191970" points="687.382,-15.3912 677.06,-17.7801 686.6187,-22.3495 687.382,-15.3912"/>
</g>
<!-- Node17 -->
<g id="node18" class="node">
<title>Node17</title>
<polygon fill="#ffffff" stroke="#bfbfbf" points="695.0444,-.5 695.0444,-18.5 773.8618,-18.5 773.8618,-.5 695.0444,-.5"/>
<text text-anchor="middle" x="734.4531" y="-6.5" font-family="Helvetica,sans-Serif" font-size="10.00" fill="#000000">Epetra_Map.h</text>
</g>
<!-- Node5&#45;&gt;Node17 -->
<g id="edge17" class="edge">
<title>Node5&#45;&gt;Node17</title>
<path fill="none" stroke="#191970" d="M1612.6584,-63.282C1473.4567,-58.4445 967.2855,-39.8879 784.0028,-18.8441"/>
<polygon fill="#191970" stroke="#191970" points="784.3023,-15.3551 773.9585,-17.6479 783.4745,-22.306 784.3023,-15.3551"/>
</g>
<!-- Node18 -->
<g id="node19" class="node">
<title>Node18</title>
<polygon fill="#ffffff" stroke="#bfbfbf" points="2426.9238,-.5 2426.9238,-18.5 2567.9824,-18.5 2567.9824,-.5 2426.9238,-.5"/>
<text text-anchor="middle" x="2497.4531" y="-6.5" font-family="Helvetica,sans-Serif" font-size="10.00" fill="#000000">Epetra_SerialDenseMatrix.h</text>
</g>
<!-- Node5&#45;&gt;Node18 -->
<g id="edge18" class="edge">
<title>Node5&#45;&gt;Node18</title>
<path fill="none" stroke="#191970" d="M1684.2034,-62.6665C1812.8291,-56.0268 2252.6198,-32.9423 2416.4224,-19.0221"/>
<polygon fill="#191970" stroke="#191970" points="2417.1474,-22.4724 2426.8064,-18.1188 2416.5407,-15.4987 2417.1474,-22.4724"/>
</g>
<!-- Node19 -->
<g id="node20" class="node">
<title>Node19</title>
<polygon fill="#ffffff" stroke="#bfbfbf" points="2585.6309,-.5 2585.6309,-18.5 2727.2754,-18.5 2727.2754,-.5 2585.6309,-.5"/>
<text text-anchor="middle" x="2656.4531" y="-6.5" font-family="Helvetica,sans-Serif" font-size="10.00" fill="#000000">Epetra_SerialDenseVector.h</text>
</g>
<!-- Node5&#45;&gt;Node19 -->
<g id="edge19" class="edge">
<title>Node5&#45;&gt;Node19</title>
<path fill="none" stroke="#191970" d="M1684.3819,-63.6551C1807.2708,-60.572 2222.2954,-48.5689 2575.2571,-19.1361"/>
<polygon fill="#191970" stroke="#191970" points="2575.7468,-22.6074 2585.4187,-18.2825 2575.1607,-15.632 2575.7468,-22.6074"/>
</g>
<!-- Node20 -->
<g id="node21" class="node">
<title>Node20</title>
<polygon fill="#ffffff" stroke="#bfbfbf" points="792.0718,-.5 792.0718,-18.5 944.8345,-18.5 944.8345,-.5 792.0718,-.5"/>
<text text-anchor="middle" x="868.4531" y="-6.5" font-family="Helvetica,sans-Serif" font-size="10.00" fill="#000000">Epetra_IntSerialDenseVector.h</text>
</g>
<!-- Node5&#45;&gt;Node20 -->
<g id="edge20" class="edge">
<title>Node5&#45;&gt;Node20</title>
<path fill="none" stroke="#191970" d="M1612.6009,-62.7354C1511.1991,-57.6205 1213.4775,-41.7485 955.2212,-19.1213"/>
<polygon fill="#191970" stroke="#191970" points="955.1609,-15.6025 944.8922,-18.2108 954.5462,-22.5754 955.1609,-15.6025"/>
</g>
<!-- Node21 -->
<g id="node22" class="node">
<title>Node21</title>
<polygon fill="#ffffff" stroke="#bfbfbf" points="962.6011,-.5 962.6011,-18.5 1050.3052,-18.5 1050.3052,-.5 962.6011,-.5"/>
<text text-anchor="middle" x="1006.4531" y="-6.5" font-family="Helvetica,sans-Serif" font-size="10.00" fill="#000000">Epetra_Import.h</text>
</g>
<!-- Node5&#45;&gt;Node21 -->
<g id="edge21" class="edge">
<title>Node5&#45;&gt;Node21</title>
<path fill="none" stroke="#191970" d="M1612.806,-62.9937C1522.2966,-58.9033 1276.1139,-46.1186 1060.5992,-19.0212"/>
<polygon fill="#191970" stroke="#191970" points="1060.722,-15.5087 1050.3605,-17.72 1059.8394,-22.4529 1060.722,-15.5087"/>
</g>
<!-- Node22 -->
<g id="node23" class="node">
<title>Node22</title>
<polygon fill="#ffffff" stroke="#bfbfbf" points="1068.3203,-.5 1068.3203,-18.5 1156.5859,-18.5 1156.5859,-.5 1068.3203,-.5"/>
<text text-anchor="middle" x="1112.4531" y="-6.5" font-family="Helvetica,sans-Serif" font-size="10.00" fill="#000000">Epetra_Export.h</text>
</g>
<!-- Node5&#45;&gt;Node22 -->
<g id="edge22" class="edge">
<title>Node5&#45;&gt;Node22</title>
<path fill="none" stroke="#191970" d="M1612.8874,-62.1704C1534.2966,-56.8037 1339.7452,-42.3167 1166.7079,-19.0713"/>
<polygon fill="#191970" stroke="#191970" points="1167.0356,-15.5838 1156.6559,-17.7077 1166.0946,-22.5203 1167.0356,-15.5838"/>
</g>
<!-- Node23 -->
<g id="node24" class="node">
<title>Node23</title>
<polygon fill="#ffffff" stroke="#bfbfbf" points="1174.8433,-.5 1174.8433,-18.5 1256.063,-18.5 1256.063,-.5 1174.8433,-.5"/>
<text text-anchor="middle" x="1215.4531" y="-6.5" font-family="Helvetica,sans-Serif" font-size="10.00" fill="#000000">Epetra_Time.h</text>
</g>
<!-- Node5&#45;&gt;Node23 -->
<g id="edge23" class="edge">
<title>Node5&#45;&gt;Node23</title>
<path fill="none" stroke="#191970" d="M1612.8634,-61.1663C1546.5832,-54.7671 1399.5501,-39.6758 1266.2973,-19.2035"/>
<polygon fill="#191970" stroke="#191970" points="1266.739,-15.7302 1256.3207,-17.6565 1265.6663,-22.6476 1266.739,-15.7302"/>
</g>
<!-- Node24 -->
<g id="node25" class="node">
<title>Node24</title>
<polygon fill="#ffffff" stroke="#bfbfbf" points="1273.749,-.5 1273.749,-18.5 1423.1572,-18.5 1423.1572,-.5 1273.749,-.5"/>
<text text-anchor="middle" x="1348.4531" y="-6.5" font-family="Helvetica,sans-Serif" font-size="10.00" fill="#000000">ml_MultiLevelPreconditioner.h</text>
</g>
<!-- Node5&#45;&gt;Node24 -->
<g id="edge24" class="edge">
<title>Node5&#45;&gt;Node24</title>
<path fill="none" stroke="#191970" d="M1612.8611,-57.9748C1562.2114,-48.689 1468.7138,-31.5478 1407.5642,-20.337"/>
<polygon fill="#191970" stroke="#191970" points="1408.1325,-16.883 1397.6653,-18.5222 1406.8702,-23.7682 1408.1325,-16.883"/>
</g>
<!-- Node25 -->
<g id="node26" class="node">
<title>Node25</title>
<polygon fill="#ffffff" stroke="#bfbfbf" points="1441.377,-.5 1441.377,-18.5 1533.5293,-18.5 1533.5293,-.5 1441.377,-.5"/>
<text text-anchor="middle" x="1487.4531" y="-6.5" font-family="Helvetica,sans-Serif" font-size="10.00" fill="#000000">ml_epetra_utils.h</text>
</g>
<!-- Node5&#45;&gt;Node25 -->
<g id="edge25" class="edge">
<title>Node5&#45;&gt;Node25</title>
<path fill="none" stroke="#191970" d="M1621.8672,-55.4179C1594.986,-46.2348 1553.2604,-31.9807 1523.4319,-21.7909"/>
<polygon fill="#191970" stroke="#191970" points="1524.4054,-18.4249 1513.8109,-18.5042 1522.1425,-25.0491 1524.4054,-18.4249"/>
</g>
<!-- Node26 -->
<g id="node27" class="node">
<title>Node26</title>
<polygon fill="#ffffff" stroke="#bfbfbf" points="1551.3818,-.5 1551.3818,-18.5 1623.5244,-18.5 1623.5244,-.5 1551.3818,-.5"/>
<text text-anchor="middle" x="1587.4531" y="-6.5" font-family="Helvetica,sans-Serif" font-size="10.00" fill="#000000">ml_include.h</text>
</g>
<!-- Node5&#45;&gt;Node26 -->
<g id="edge26" class="edge">
<title>Node5&#45;&gt;Node26</title>
<path fill="none" stroke="#191970" d="M1638.3802,-55.4179C1629.4276,-47.3458 1616.1293,-35.3556 1605.3668,-25.6517"/>
<polygon fill="#191970" stroke="#191970" points="1607.5155,-22.8764 1597.7449,-18.7795 1602.8281,-28.0753 1607.5155,-22.8764"/>
</g>
<!-- Node27 -->
<g id="node28" class="node">
<title>Node27</title>
<polygon fill="#ffffff" stroke="#bfbfbf" points="1641.8745,-.5 1641.8745,-18.5 1779.0317,-18.5 1779.0317,-.5 1641.8745,-.5"/>
<text text-anchor="middle" x="1710.4531" y="-6.5" font-family="Helvetica,sans-Serif" font-size="10.00" fill="#000000">EpetraExt_RowMatrixOut.h</text>
</g>
<!-- Node5&#45;&gt;Node27 -->
<g id="edge27" class="edge">
<title>Node5&#45;&gt;Node27</title>
<path fill="none" stroke="#191970" d="M1658.6912,-55.4179C1667.7905,-47.3458 1681.3068,-35.3556 1692.2458,-25.6517"/>
<polygon fill="#191970" stroke="#191970" points="1694.8345,-28.0339 1699.9926,-18.7795 1690.1892,-22.7974 1694.8345,-28.0339"/>
</g>
<!-- Node28 -->
<g id="node29" class="node">
<title>Node28</title>
<polygon fill="#ffffff" stroke="#bfbfbf" points="1796.7539,-.5 1796.7539,-18.5 1936.1523,-18.5 1936.1523,-.5 1796.7539,-.5"/>
<text text-anchor="middle" x="1866.4531" y="-6.5" font-family="Helvetica,sans-Serif" font-size="10.00" fill="#000000">EpetraExt_MultiVectorOut.h</text>
</g>
<!-- Node5&#45;&gt;Node28 -->
<g id="edge28" class="edge">
<title>Node5&#45;&gt;Node28</title>
<path fill="none" stroke="#191970" d="M1684.4514,-55.4179C1721.7992,-45.9953 1780.309,-31.2336 1820.8638,-21.0019"/>
<polygon fill="#191970" stroke="#191970" points="1821.9238,-24.3442 1830.7637,-18.5042 1820.2113,-17.5569 1821.9238,-24.3442"/>
</g>
<!-- Node29 -->
<g id="node30" class="node">
<title>Node29</title>
<polygon fill="#ffffff" stroke="#bfbfbf" points="1954.1997,-.5 1954.1997,-18.5 2064.7065,-18.5 2064.7065,-.5 1954.1997,-.5"/>
<text text-anchor="middle" x="2009.4531" y="-6.5" font-family="Helvetica,sans-Serif" font-size="10.00" fill="#000000">EpetraExt_VectorIn.h</text>
</g>
<!-- Node5&#45;&gt;Node29 -->
<g id="edge29" class="edge">
<title>Node5&#45;&gt;Node29</title>
<path fill="none" stroke="#191970" d="M1684.0552,-59.0759C1744.4043,-49.8814 1867.651,-31.1042 1943.9412,-19.481"/>
<polygon fill="#191970" stroke="#191970" points="1944.5644,-22.9266 1953.9231,-17.9602 1943.51,-16.0064 1944.5644,-22.9266"/>
</g>
<!-- Node30 -->
<g id="node31" class="node">
<title>Node30</title>
<polygon fill="#ffffff" stroke="#bfbfbf" points="2082.6431,-.5 2082.6431,-18.5 2214.2632,-18.5 2214.2632,-.5 2082.6431,-.5"/>
<text text-anchor="middle" x="2148.4531" y="-6.5" font-family="Helvetica,sans-Serif" font-size="10.00" fill="#000000">EpetraExt_MultiVectorIn.h</text>
</g>
<!-- Node5&#45;&gt;Node30 -->
<g id="edge30" class="edge">
<title>Node5&#45;&gt;Node30</title>
<path fill="none" stroke="#191970" d="M1684.0203,-60.927C1755.409,-53.7048 1921.4936,-36.6481 2072.2459,-19.1218"/>
<polygon fill="#191970" stroke="#191970" points="2073.0845,-22.5478 2082.6118,-17.913 2072.2737,-15.5949 2073.0845,-22.5478"/>
</g>
<!-- Node31 -->
<g id="node32" class="node">
<title>Node31</title>
<polygon fill="#ffffff" stroke="#bfbfbf" points="2310.4058,-.5 2310.4058,-18.5 2408.5005,-18.5 2408.5005,-.5 2310.4058,-.5"/>
<text text-anchor="middle" x="2359.4531" y="-6.5" font-family="Helvetica,sans-Serif" font-size="10.00" fill="#000000">Teuchos_RCP.hpp</text>
</g>
<!-- Node5&#45;&gt;Node31 -->
<g id="edge31" class="edge">
<title>Node5&#45;&gt;Node31</title>
<path fill="none" stroke="#191970" d="M1684.3079,-63.1714C1781.6589,-59.3152 2059.2162,-46.6681 2300.139,-19.0543"/>
<polygon fill="#191970" stroke="#191970" points="2300.6046,-22.5238 2310.1359,-17.8973 2299.7998,-15.5702 2300.6046,-22.5238"/>
</g>
<!-- Node32 -->
<g id="node33" class="node">
<title>Node32</title>
<polygon fill="#ffffff" stroke="#bfbfbf" points="2232.2217,-.5 2232.2217,-18.5 2292.6846,-18.5 2292.6846,-.5 2232.2217,-.5"/>
<text text-anchor="middle" x="2262.4531" y="-6.5" font-family="Helvetica,sans-Serif" font-size="10.00" fill="#000000">Amesos.h</text>
</g>
<!-- Node5&#45;&gt;Node32 -->
<g id="edge32" class="edge">
<title>Node5&#45;&gt;Node32</title>
<path fill="none" stroke="#191970" d="M1684.0197,-63.6615C1773.1593,-61.1398 2013.3415,-51.753 2221.9798,-19.0112"/>
<polygon fill="#191970" stroke="#191970" points="2222.5646,-22.4623 2231.8904,-17.4344 2221.4646,-15.5492 2222.5646,-22.4623"/>
</g>
<!-- Node33 -->
<g id="node34" class="node">
<title>Node33</title>
<polygon fill="#ffffff" stroke="#bfbfbf" points="0,-.5 0,-18.5 64.9063,-18.5 64.9063,-.5 0,-.5"/>
<text text-anchor="middle" x="32.4531" y="-6.5" font-family="Helvetica,sans-Serif" font-size="10.00" fill="#000000">AztecOO.h</text>
</g>
<!-- Node5&#45;&gt;Node33 -->
<g id="edge33" class="edge">
<title>Node5&#45;&gt;Node33</title>
<path fill="none" stroke="#191970" d="M1612.6957,-64.4067C1410.4215,-63.7384 407.2308,-58.5146 75.455,-18.821"/>
<polygon fill="#191970" stroke="#191970" points="75.7144,-15.3265 65.3611,-17.5762 74.8575,-22.2739 75.7144,-15.3265"/>
</g>
<!-- Node37&#45;&gt;Node31 -->
<g id="edge40" class="edge">
<title>Node37&#45;&gt;Node31</title>
<path fill="none" stroke="#191970" d="M2221.7315,-230.4863C2264.4675,-222.8262 2316.7333,-210.45 2331.4531,-194 2373.3513,-147.177 2367.8375,-65.4109 2362.7015,-28.5174"/>
<polygon fill="#191970" stroke="#191970" points="2366.155,-27.9469 2361.1727,-18.5967 2359.2367,-29.0132 2366.155,-27.9469"/>
</g>
<!-- Node37&#45;&gt;Node38 -->
<g id="edge35" class="edge">
<title>Node37&#45;&gt;Node38</title>
<path fill="none" stroke="#191970" d="M2098.3191,-237.2291C1939.8385,-231.3164 1527.254,-214.5575 1369.1934,-193.8865"/>
<polygon fill="#191970" stroke="#191970" points="1369.5366,-190.401 1359.1557,-192.5193 1368.5918,-197.3369 1369.5366,-190.401"/>
</g>
<!-- Node39 -->
<g id="node37" class="node">
<title>Node39</title>
<g id="a_node37"><a xlink:href="../../d2/d8b/_finite___element___problem_8hpp.html" target="_top" xlink:title="Finite_Element_Problem.hpp">
<polygon fill="#ffffff" stroke="#000000" points="1575.9731,-110.5 1575.9731,-128.5 1720.9331,-128.5 1720.9331,-110.5 1575.9731,-110.5"/>
<text text-anchor="middle" x="1648.4531" y="-116.5" font-family="Helvetica,sans-Serif" font-size="10.00" fill="#000000">Finite_Element_Problem.hpp</text>
</a>
</g>
</g>
<!-- Node37&#45;&gt;Node39 -->
<g id="edge39" class="edge">
<title>Node37&#45;&gt;Node39</title>
<path fill="none" stroke="#191970" d="M2221.929,-230.4978C2276.7804,-219.9323 2344.5249,-199.3447 2312.4531,-165 2292.893,-144.0537 1904.7496,-128.2432 1731.1423,-122.1909"/>
<polygon fill="#191970" stroke="#191970" points="1731.1425,-118.6889 1721.0274,-121.8408 1730.9003,-125.6847 1731.1425,-118.6889"/>
</g>
<!-- Node42 -->
<g id="node39" class="node">
<title>Node42</title>
<polygon fill="#ffffff" stroke="#bfbfbf" points="2397.9434,-170.5 2397.9434,-188.5 2448.9629,-188.5 2448.9629,-170.5 2397.9434,-170.5"/>
<text text-anchor="middle" x="2423.4531" y="-176.5" font-family="Helvetica,sans-Serif" font-size="10.00" fill="#000000">Ifpack.h</text>
</g>
<!-- Node37&#45;&gt;Node42 -->
<g id="edge41" class="edge">
<title>Node37&#45;&gt;Node42</title>
<path fill="none" stroke="#191970" d="M2216.7274,-230.4798C2261.9705,-222.5465 2327.413,-209.8093 2383.4531,-194 2385.8791,-193.3156 2388.3691,-192.556 2390.8629,-191.7535"/>
<polygon fill="#191970" stroke="#191970" points="2392.0362,-195.0514 2400.373,-188.5131 2389.7785,-188.4254 2392.0362,-195.0514"/>
</g>
<!-- Node43 -->
<g id="node40" class="node">
<title>Node43</title>
<polygon fill="#ffffff" stroke="#bfbfbf" points="2467.2021,-170.5 2467.2021,-188.5 2597.7041,-188.5 2597.7041,-170.5 2467.2021,-170.5"/>
<text text-anchor="middle" x="2532.4531" y="-176.5" font-family="Helvetica,sans-Serif" font-size="10.00" fill="#000000">Ifpack_AdditiveSchwarz.h</text>
</g>
<!-- Node37&#45;&gt;Node43 -->
<g id="edge42" class="edge">
<title>Node37&#45;&gt;Node43</title>
<path fill="none" stroke="#191970" d="M2224.7292,-230.5824C2284.9424,-221.9129 2378.0315,-208.0332 2458.4531,-194 2464.7161,-192.9071 2471.2658,-191.7071 2477.7681,-190.4799"/>
<polygon fill="#191970" stroke="#191970" points="2478.7354,-193.8584 2487.899,-188.5406 2477.4192,-186.9832 2478.7354,-193.8584"/>
</g>
<!-- Node44 -->
<g id="node41" class="node">
<title>Node44</title>
<polygon fill="#ffffff" stroke="#bfbfbf" points="2615.6973,-170.5 2615.6973,-188.5 2741.209,-188.5 2741.209,-170.5 2615.6973,-170.5"/>
<text text-anchor="middle" x="2678.4531" y="-176.5" font-family="Helvetica,sans-Serif" font-size="10.00" fill="#000000">BelosLinearProblem.hpp</text>
</g>
<!-- Node37&#45;&gt;Node44 -->
<g id="edge43" class="edge">
<title>Node37&#45;&gt;Node44</title>
<path fill="none" stroke="#191970" d="M2224.7032,-234.9716C2311.205,-228.3373 2471.1212,-214.4966 2606.4531,-194 2613.1448,-192.9865 2620.1568,-191.77 2627.0686,-190.4781"/>
<polygon fill="#191970" stroke="#191970" points="2627.9193,-193.8786 2637.0745,-188.5464 2626.5923,-187.0055 2627.9193,-193.8786"/>
</g>
<!-- Node45 -->
<g id="node42" class="node">
<title>Node45</title>
<polygon fill="#ffffff" stroke="#bfbfbf" points="2759.4238,-170.5 2759.4238,-188.5 2905.4824,-188.5 2905.4824,-170.5 2759.4238,-170.5"/>
<text text-anchor="middle" x="2832.4531" y="-176.5" font-family="Helvetica,sans-Serif" font-size="10.00" fill="#000000">BelosBlockGmresSolMgr.hpp</text>
</g>
<!-- Node37&#45;&gt;Node45 -->
<g id="edge44" class="edge">
<title>Node37&#45;&gt;Node45</title>
<path fill="none" stroke="#191970" d="M2224.8534,-236.6421C2332.9994,-231.3116 2559.9304,-218.145 2750.4531,-194 2758.6999,-192.9549 2767.379,-191.6477 2775.88,-190.249"/>
<polygon fill="#191970" stroke="#191970" points="2776.4679,-193.6993 2785.7412,-188.5751 2775.2964,-186.7981 2776.4679,-193.6993"/>
</g>
<!-- Node46 -->
<g id="node43" class="node">
<title>Node46</title>
<polygon fill="#ffffff" stroke="#bfbfbf" points="1377.2441,-170.5 1377.2441,-188.5 1501.6621,-188.5 1501.6621,-170.5 1377.2441,-170.5"/>
<text text-anchor="middle" x="1439.4531" y="-176.5" font-family="Helvetica,sans-Serif" font-size="10.00" fill="#000000">BelosEpetraAdapter.hpp</text>
</g>
<!-- Node37&#45;&gt;Node46 -->
<g id="edge45" class="edge">
<title>Node37&#45;&gt;Node46</title>
<path fill="none" stroke="#191970" d="M2098.3266,-237.8481C1981.7159,-234.185 1724.8626,-223.2572 1510.4531,-194 1503.5855,-193.0629 1496.3855,-191.8575 1489.3142,-190.5428"/>
<polygon fill="#191970" stroke="#191970" points="1489.5839,-187.0298 1479.0997,-188.5569 1488.2479,-193.9012 1489.5839,-187.0298"/>
</g>
<!-- Node47 -->
<g id="node44" class="node">
<title>Node47</title>
<polygon fill="#ffffff" stroke="#bfbfbf" points="1519.7407,-170.5 1519.7407,-188.5 1641.1655,-188.5 1641.1655,-170.5 1519.7407,-170.5"/>
<text text-anchor="middle" x="1580.4531" y="-176.5" font-family="Helvetica,sans-Serif" font-size="10.00" fill="#000000">BelosSolverFactory.hpp</text>
</g>
<!-- Node37&#45;&gt;Node47 -->
<g id="edge46" class="edge">
<title>Node37&#45;&gt;Node47</title>
<path fill="none" stroke="#191970" d="M2098.2432,-236.2252C2001.4391,-230.6801 1810.8166,-217.6678 1650.4531,-194 1643.7713,-193.0138 1636.767,-191.7917 1629.8791,-190.4784"/>
<polygon fill="#191970" stroke="#191970" points="1630.4117,-187.016 1619.9222,-188.506 1629.0515,-193.8826 1630.4117,-187.016"/>
</g>
<!-- Node48 -->
<g id="node45" class="node">
<title>Node48</title>
<polygon fill="#ffffff" stroke="#bfbfbf" points="1659.5718,-170.5 1659.5718,-188.5 1837.3345,-188.5 1837.3345,-170.5 1659.5718,-170.5"/>
<text text-anchor="middle" x="1748.4531" y="-176.5" font-family="Helvetica,sans-Serif" font-size="10.00" fill="#000000">Teuchos_StandardCatchMacros.hpp</text>
</g>
<!-- Node37&#45;&gt;Node48 -->
<g id="edge47" class="edge">
<title>Node37&#45;&gt;Node48</title>
<path fill="none" stroke="#191970" d="M2098.69,-230.4991C2035.1086,-221.3655 1933.9312,-206.7894 1846.4531,-194 1837.5797,-192.7027 1828.2555,-191.3323 1819.0323,-189.9725"/>
<polygon fill="#191970" stroke="#191970" points="1819.4937,-186.5028 1809.0898,-188.505 1818.4716,-193.4278 1819.4937,-186.5028"/>
</g>
<!-- Node49 -->
<g id="node46" class="node">
<title>Node49</title>
<polygon fill="#ffffff" stroke="#bfbfbf" points="1855.1948,-170.5 1855.1948,-188.5 1995.7114,-188.5 1995.7114,-170.5 1855.1948,-170.5"/>
<text text-anchor="middle" x="1925.4531" y="-176.5" font-family="Helvetica,sans-Serif" font-size="10.00" fill="#000000">Teuchos_ParameterList.hpp</text>
</g>
<!-- Node37&#45;&gt;Node49 -->
<g id="edge48" class="edge">
<title>Node37&#45;&gt;Node49</title>
<path fill="none" stroke="#191970" d="M2125.866,-230.4524C2084.4453,-219.9217 2015.9645,-202.5114 1970.775,-191.0225"/>
<polygon fill="#191970" stroke="#191970" points="1971.4974,-187.5949 1960.9433,-188.5229 1969.7726,-194.3791 1971.4974,-187.5949"/>
</g>
<!-- Node50 -->
<g id="node47" class="node">
<title>Node50</title>
<polygon fill="#ffffff" stroke="#bfbfbf" points="2013.6455,-165.5 2013.6455,-193.5 2155.2607,-193.5 2155.2607,-165.5 2013.6455,-165.5"/>
<text text-anchor="start" x="2021.6455" y="-181.5" font-family="Helvetica,sans-Serif" font-size="10.00" fill="#000000">Teuchos_XMLParameterList</text>
<text text-anchor="middle" x="2084.4531" y="-171.5" font-family="Helvetica,sans-Serif" font-size="10.00" fill="#000000">CoreHelpers.hpp</text>
</g>
<!-- Node37&#45;&gt;Node50 -->
<g id="edge49" class="edge">
<title>Node37&#45;&gt;Node50</title>
<path fill="none" stroke="#191970" d="M2149.7585,-230.3873C2139.3761,-222.2971 2123.8305,-210.1837 2110.5111,-199.8049"/>
<polygon fill="#191970" stroke="#191970" points="2112.6109,-197.004 2102.5716,-193.6183 2108.3083,-202.5256 2112.6109,-197.004"/>
</g>
<!-- Node51 -->
<g id="node48" class="node">
<title>Node51</title>
<polygon fill="#ffffff" stroke="#bfbfbf" points="2173.2046,-165.5 2173.2046,-193.5 2303.7017,-193.5 2303.7017,-165.5 2173.2046,-165.5"/>
<text text-anchor="start" x="2181.2046" y="-181.5" font-family="Helvetica,sans-Serif" font-size="10.00" fill="#000000">Stratimikos_DefaultLinear</text>
<text text-anchor="middle" x="2238.4531" y="-171.5" font-family="Helvetica,sans-Serif" font-size="10.00" fill="#000000">SolverBuilder.hpp</text>
</g>
<!-- Node37&#45;&gt;Node51 -->
<g id="edge50" class="edge">
<title>Node37&#45;&gt;Node51</title>
<path fill="none" stroke="#191970" d="M2173.1478,-230.3873C2183.5302,-222.2971 2199.0757,-210.1837 2212.3952,-199.8049"/>
<polygon fill="#191970" stroke="#191970" points="2214.5979,-202.5256 2220.3347,-193.6183 2210.2954,-197.004 2214.5979,-202.5256"/>
</g>
<!-- Node38&#45;&gt;Node39 -->
<g id="edge36" class="edge">
<title>Node38&#45;&gt;Node39</title>
<path fill="none" stroke="#191970" d="M1359.219,-166.8585C1362.3391,-166.2111 1365.4336,-165.5868 1368.4531,-165 1438.6864,-151.3509 1519.3788,-138.5402 1576.0412,-130.012"/>
<polygon fill="#191970" stroke="#191970" points="1576.6092,-133.4661 1585.9802,-128.5229 1575.5719,-126.5433 1576.6092,-133.4661"/>
</g>
<!-- Node40 -->
<g id="node38" class="node">
<title>Node40</title>
<g id="a_node38"><a xlink:href="../../d5/d3f/laplacepp_8hpp.html" target="_top" xlink:title="laplacepp.hpp">
<polygon fill="#ffffff" stroke="#ff0000" points="1265.3154,-110.5 1265.3154,-128.5 1343.5908,-128.5 1343.5908,-110.5 1265.3154,-110.5"/>
<text text-anchor="middle" x="1304.4531" y="-116.5" font-family="Helvetica,sans-Serif" font-size="10.00" fill="#000000">laplacepp.hpp</text>
</a>
</g>
</g>
<!-- Node38&#45;&gt;Node40 -->
<g id="edge38" class="edge">
<title>Node38&#45;&gt;Node40</title>
<path fill="none" stroke="#191970" d="M1304.4531,-165.2808C1304.4531,-157.3776 1304.4531,-147.4316 1304.4531,-138.8308"/>
<polygon fill="#191970" stroke="#191970" points="1307.9532,-138.5842 1304.4531,-128.5842 1300.9532,-138.5842 1307.9532,-138.5842"/>
</g>
<!-- Node39&#45;&gt;Node5 -->
<g id="edge37" class="edge">
<title>Node39&#45;&gt;Node5</title>
<path fill="none" stroke="#191970" d="M1648.4531,-110.4179C1648.4531,-103.2164 1648.4531,-92.8962 1648.4531,-83.8632"/>
<polygon fill="#191970" stroke="#191970" points="1651.9532,-83.7794 1648.4531,-73.7795 1644.9532,-83.7795 1651.9532,-83.7794"/>
</g>
<!-- Node52&#45;&gt;Node5 -->
<g id="edge68" class="edge">
<title>Node52&#45;&gt;Node5</title>
<path fill="none" stroke="#191970" d="M2879.8743,-117.2067C2668.0185,-108.139 1890.7818,-74.872 1693.9781,-66.4485"/>
<polygon fill="#191970" stroke="#191970" points="1694.1187,-62.9514 1683.9781,-66.0205 1693.8193,-69.945 1694.1187,-62.9514"/>
</g>
<!-- Node52&#45;&gt;Node6 -->
<g id="edge52" class="edge">
<title>Node52&#45;&gt;Node6</title>
<path fill="none" stroke="#191970" d="M2926.0006,-110.2344C2915.8292,-97.6337 2896.9737,-74.4358 2880.4531,-55 2872.3811,-45.5035 2863.2112,-35.0495 2855.6895,-26.5592"/>
<polygon fill="#191970" stroke="#191970" points="2858.0792,-23.9794 2848.8189,-18.8317 2852.8479,-28.6306 2858.0792,-23.9794"/>
</g>
<!-- Node52&#45;&gt;Node7 -->
<g id="edge53" class="edge">
<title>Node52&#45;&gt;Node7</title>
<path fill="none" stroke="#191970" d="M2879.8036,-110.7114C2839.6637,-102.9515 2789.537,-90.3353 2776.4531,-74 2766.3806,-61.4244 2766.3501,-42.6603 2768.2648,-28.6084"/>
<polygon fill="#191970" stroke="#191970" points="2771.7471,-29.0176 2770.0627,-18.5575 2764.8565,-27.7849 2771.7471,-29.0176"/>
</g>
<!-- Node52&#45;&gt;Node8 -->
<g id="edge54" class="edge">
<title>Node52&#45;&gt;Node8</title>
<path fill="none" stroke="#191970" d="M2931.1618,-110.4982C2926.6086,-92.6108 2916.3373,-52.2594 2910.2455,-28.3271"/>
<polygon fill="#191970" stroke="#191970" points="2913.6349,-27.4537 2907.7761,-18.6261 2906.8512,-29.1805 2913.6349,-27.4537"/>
</g>
<!-- Node52&#45;&gt;Node9 -->
<g id="edge55" class="edge">
<title>Node52&#45;&gt;Node9</title>
<path fill="none" stroke="#191970" d="M2941.6365,-110.4982C2958.4106,-92.0467 2996.9146,-49.6924 3018.3501,-26.1134"/>
<polygon fill="#191970" stroke="#191970" points="3021.0197,-28.3799 3025.1566,-18.6261 3015.8401,-23.6712 3021.0197,-28.3799"/>
</g>
<!-- Node52&#45;&gt;Node10 -->
<g id="edge56" class="edge">
<title>Node52&#45;&gt;Node10</title>
<path fill="none" stroke="#191970" d="M2936.3992,-110.4982C2942.2532,-92.6108 2955.4591,-52.2594 2963.2915,-28.3271"/>
<polygon fill="#191970" stroke="#191970" points="2966.6823,-29.2188 2966.4664,-18.6261 2960.0295,-27.0415 2966.6823,-29.2188"/>
</g>
<!-- Node52&#45;&gt;Node11 -->
<g id="edge57" class="edge">
<title>Node52&#45;&gt;Node11</title>
<path fill="none" stroke="#191970" d="M2947.2013,-110.4982C2976.1201,-91.5633 3043.4831,-47.4566 3078.8504,-24.2994"/>
<polygon fill="#191970" stroke="#191970" points="3081.0661,-27.0322 3087.515,-18.6261 3077.2315,-21.1759 3081.0661,-27.0322"/>
</g>
<!-- Node53 -->
<g id="node50" class="node">
<title>Node53</title>
<g id="a_node50"><a xlink:href="../../d2/d81/readnrldata_8hpp.html" target="_top" xlink:title="readnrldata.hpp">
<polygon fill="#ffffff" stroke="#000000" points="2785.4263,-55.5 2785.4263,-73.5 2871.48,-73.5 2871.48,-55.5 2785.4263,-55.5"/>
<text text-anchor="middle" x="2828.4531" y="-61.5" font-family="Helvetica,sans-Serif" font-size="10.00" fill="#000000">readnrldata.hpp</text>
</a>
</g>
</g>
<!-- Node52&#45;&gt;Node53 -->
<g id="edge58" class="edge">
<title>Node52&#45;&gt;Node53</title>
<path fill="none" stroke="#191970" d="M2916.1145,-110.4179C2899.4715,-101.7001 2874.1037,-88.4122 2854.9321,-78.3699"/>
<polygon fill="#191970" stroke="#191970" points="2856.2999,-75.1353 2845.8175,-73.5956 2853.0518,-81.3362 2856.2999,-75.1353"/>
</g>
<!-- Node53&#45;&gt;Node6 -->
<g id="edge59" class="edge">
<title>Node53&#45;&gt;Node6</title>
<path fill="none" stroke="#191970" d="M2830.4347,-55.4179C2832.0232,-48.1372 2834.3072,-37.669 2836.2933,-28.5659"/>
<polygon fill="#191970" stroke="#191970" points="2839.7163,-29.2957 2838.4285,-18.7795 2832.8772,-27.8035 2839.7163,-29.2957"/>
</g>
<!-- Node53&#45;&gt;Node7 -->
<g id="edge60" class="edge">
<title>Node53&#45;&gt;Node7</title>
<path fill="none" stroke="#191970" d="M2819.2059,-55.4179C2811.0677,-47.425 2799.0178,-35.5903 2789.1897,-25.9377"/>
<polygon fill="#191970" stroke="#191970" points="2791.4883,-23.2895 2781.9013,-18.7795 2786.5833,-28.2836 2791.4883,-23.2895"/>
</g>
<!-- Node53&#45;&gt;Node8 -->
<g id="edge61" class="edge">
<title>Node53&#45;&gt;Node8</title>
<path fill="none" stroke="#191970" d="M2841.1681,-55.4179C2852.8714,-47.0584 2870.4578,-34.4966 2884.2797,-24.6239"/>
<polygon fill="#191970" stroke="#191970" points="2886.6162,-27.2561 2892.7193,-18.5956 2882.5476,-21.56 2886.6162,-27.2561"/>
</g>
<!-- Node53&#45;&gt;Node9 -->
<g id="edge62" class="edge">
<title>Node53&#45;&gt;Node9</title>
<path fill="none" stroke="#191970" d="M2863.4319,-55.4842C2896.189,-46.9884 2946.7501,-33.7414 2998.8592,-19.405"/>
<polygon fill="#191970" stroke="#191970" points="2999.8945,-22.7502 3008.6032,-16.7162 2998.0324,-16.0024 2999.8945,-22.7502"/>
</g>
<!-- Node53&#45;&gt;Node10 -->
<g id="edge63" class="edge">
<title>Node53&#45;&gt;Node10</title>
<path fill="none" stroke="#191970" d="M2851.7364,-55.4179C2875.3181,-46.2193 2911.944,-31.9326 2938.0759,-21.7394"/>
<polygon fill="#191970" stroke="#191970" points="2939.4839,-24.947 2947.5283,-18.0522 2936.94,-18.4256 2939.4839,-24.947"/>
</g>
<!-- Node53&#45;&gt;Node11 -->
<g id="edge64" class="edge">
<title>Node53&#45;&gt;Node11</title>
<path fill="none" stroke="#191970" d="M2871.8604,-57.37C2917.8628,-49.5621 2992.8115,-36.1263 3066.0425,-19.1927"/>
<polygon fill="#191970" stroke="#191970" points="3066.9518,-22.5746 3075.8931,-16.8909 3065.359,-15.7582 3066.9518,-22.5746"/>
</g>
<!-- Node53&#45;&gt;Node18 -->
<g id="edge67" class="edge">
<title>Node53&#45;&gt;Node18</title>
<path fill="none" stroke="#191970" d="M2785.1807,-57.3097C2728.2929,-47.8571 2627.8728,-31.1709 2561.9935,-20.2242"/>
<polygon fill="#191970" stroke="#191970" points="2562.1673,-16.7052 2551.7288,-18.5186 2561.0198,-23.6105 2562.1673,-16.7052"/>
</g>
<!-- Node53&#45;&gt;Node19 -->
<g id="edge66" class="edge">
<title>Node53&#45;&gt;Node19</title>
<path fill="none" stroke="#191970" d="M2800.0508,-55.4179C2771.2081,-46.1949 2726.3686,-31.8567 2694.4752,-21.6582"/>
<polygon fill="#191970" stroke="#191970" points="2695.2027,-18.2163 2684.6117,-18.5042 2693.0706,-24.8837 2695.2027,-18.2163"/>
</g>
<!-- Node53&#45;&gt;Node31 -->
<g id="edge65" class="edge">
<title>Node53&#45;&gt;Node31</title>
<path fill="none" stroke="#191970" d="M2785.1655,-60.4564C2711.9018,-53.4494 2558.5726,-38.0819 2418.8248,-19.1307"/>
<polygon fill="#191970" stroke="#191970" points="2419.1694,-15.6454 2408.7878,-17.7601 2418.2222,-22.581 2419.1694,-15.6454"/>
</g>
</g>
</svg>
        <g id="navigator" transform="translate(0 0)" fill="#404254">
                <rect fill="#f2f5e9" fill-opacity="0.5" stroke="#606060" stroke-width=".5" x="0" y="0" width="60" height="60"/>
                <use id="zoomplus" xlink:href="#zoomPlus" x="17" y="9" onmousedown="handleZoom(evt,'in')"/>
                <use id="zoomminus" xlink:href="#zoomMin" x="42" y="9" onmousedown="handleZoom(evt,'out')"/>
                <use id="reset" xlink:href="#resetDef" x="30" y="36" onmousedown="handleReset()"/>
                <g id="arrowUp" xlink:href="#dirArrow" transform="translate(30 24)" onmousedown="handlePan(0,-1)">
                  <use xlink:href="#rim" fill="#404040">
                        <set attributeName="fill" to="#808080" begin="arrowUp.mouseover" end="arrowUp.mouseout"/>
                  </use>
                  <path fill="none" stroke="white" stroke-width="1.5" d="M0,-3.0v7 M-2.5,-0.5L0,-3.0L2.5,-0.5"/>
                </g>
                <g id="arrowRight" xlink:href="#dirArrow" transform="rotate(90) translate(36 -43)" onmousedown="handlePan(1,0)">
                  <use xlink:href="#rim" fill="#404040">
                        <set attributeName="fill" to="#808080" begin="arrowRight.mouseover" end="arrowRight.mouseout"/>
                  </use>
                  <path fill="none" stroke="white" stroke-width="1.5" d="M0,-3.0v7 M-2.5,-0.5L0,-3.0L2.5,-0.5"/>
                </g>
                <g id="arrowDown" xlink:href="#dirArrow" transform="rotate(180) translate(-30 -48)" onmousedown="handlePan(0,1)">
                  <use xlink:href="#rim" fill="#404040">
                        <set attributeName="fill" to="#808080" begin="arrowDown.mouseover" end="arrowDown.mouseout"/>
                  </use>
                  <path fill="none" stroke="white" stroke-width="1.5" d="M0,-3.0v7 M-2.5,-0.5L0,-3.0L2.5,-0.5"/>
                </g>
                <g id="arrowLeft" xlink:href="#dirArrow" transform="rotate(270) translate(-36 17)" onmousedown="handlePan(-1,0)">
                  <use xlink:href="#rim" fill="#404040">
                        <set attributeName="fill" to="#808080" begin="arrowLeft.mouseover" end="arrowLeft.mouseout"/>
                  </use>
                  <path fill="none" stroke="white" stroke-width="1.5" d="M0,-3.0v7 M-2.5,-0.5L0,-3.0L2.5,-0.5"/>
                </g>
        </g>
        <svg viewBox="0 0 15 15" width="100%" height="30px" preserveAspectRatio="xMaxYMin meet">
         <g id="arrow_out" transform="scale(0.3 0.3)">
          <a xlink:href="nrl_2manufactured__solution_2main_8cpp__incl_org.svg" target="_base">
           <rect id="button" ry="5" rx="5" y="6" x="6" height="38" width="38"
                fill="#f2f5e9" fill-opacity="0.5" stroke="#606060" stroke-width="1.0"/>
           <path id="arrow"
             d="M 11.500037,31.436501 C 11.940474,20.09759 22.043105,11.32322 32.158766,21.979434 L 37.068811,17.246167 C 37.068811,17.246167 37.088388,32 37.088388,32 L 22.160133,31.978069 C 22.160133,31.978069 26.997745,27.140456 26.997745,27.140456 C 18.528582,18.264221 13.291696,25.230495 11.500037,31.436501 z"
             style="fill:#404040;"/>
          </a>
         </g>
        </svg>
</svg>
