<?xml version="1.0" encoding="UTF-8" standalone="no"?>
<!DOCTYPE svg PUBLIC "-//W3C//DTD SVG 1.1//EN"
 "http://www.w3.org/Graphics/SVG/1.1/DTD/svg11.dtd">
<!-- Generated by graphviz version 2.40.1 (20161225.0304)
 -->
<!-- Title: Newton_Raphson Pages: 1 -->
<svg width="131pt" height="219pt"
 viewBox="0.00 0.00 131.00 219.00" xmlns="http://www.w3.org/2000/svg" xmlns:xlink="http://www.w3.org/1999/xlink">
<g id="graph0" class="graph" transform="scale(1 1) rotate(0) translate(4 215)">
<title>Newton_Raphson</title>
<polygon fill="#ffffff" stroke="transparent" points="-4,4 -4,-215 127,-215 127,4 -4,4"/>
<!-- Node1 -->
<g id="node1" class="node">
<title>Node1</title>
<polygon fill="#bfbfbf" stroke="#000000" points="14,-.5 14,-19.5 109,-19.5 109,-.5 14,-.5"/>
<text text-anchor="middle" x="61.5" y="-7.5" font-family="Helvetica,sans-Serif" font-size="10.00" fill="#000000">Newton_Raphson</text>
</g>
<!-- Node2 -->
<g id="node2" class="node">
<title>Node2</title>
<g id="a_node2"><a xlink:href="../../d8/dc2/class_finite___element___problem.html" target="_top" xlink:title="Finite_Element_Problem">
<polygon fill="#ffffff" stroke="#000000" points="0,-67.5 0,-86.5 123,-86.5 123,-67.5 0,-67.5"/>
<text text-anchor="middle" x="61.5" y="-74.5" font-family="Helvetica,sans-Serif" font-size="10.00" fill="#000000">Finite_Element_Problem</text>
</a>
</g>
</g>
<!-- Node2&#45;&gt;Node1 -->
<g id="edge1" class="edge">
<title>Node2&#45;&gt;Node1</title>
<path fill="none" stroke="#9a32cd" stroke-dasharray="5,2" d="M61.5,-57.1079C61.5,-44.714 61.5,-29.3263 61.5,-19.5817"/>
<polygon fill="#9a32cd" stroke="#9a32cd" points="58.0001,-57.4005 61.5,-67.4005 65.0001,-57.4006 58.0001,-57.4005"/>
<text text-anchor="middle" x="82" y="-41" font-family="Helvetica,sans-Serif" font-size="10.00" fill="#000000"> interface</text>
</g>
<!-- Node3 -->
<g id="node3" class="node">
<title>Node3</title>
<g id="a_node3"><a xlink:href="../../d2/d97/class_base_class_f_e_m.html" target="_top" xlink:title="BaseClassFEM">
<polygon fill="#ffffff" stroke="#000000" points="18.5,-124.5 18.5,-143.5 104.5,-143.5 104.5,-124.5 18.5,-124.5"/>
<text text-anchor="middle" x="61.5" y="-131.5" font-family="Helvetica,sans-Serif" font-size="10.00" fill="#000000">BaseClassFEM</text>
</a>
</g>
</g>
<!-- Node3&#45;&gt;Node2 -->
<g id="edge2" class="edge">
<title>Node3&#45;&gt;Node2</title>
<path fill="none" stroke="#191970" d="M61.5,-114.2342C61.5,-104.8491 61.5,-94.0651 61.5,-86.5265"/>
<polygon fill="#191970" stroke="#191970" points="58.0001,-114.3307 61.5,-124.3307 65.0001,-114.3308 58.0001,-114.3307"/>
</g>
<!-- Node4 -->
<g id="node4" class="node">
<title>Node4</title>
<g id="a_node4"><a xlink:href="../../d6/d6b/classmesh.html" target="_top" xlink:title="mesh">
<polygon fill="#ffffff" stroke="#000000" points="41,-191.5 41,-210.5 82,-210.5 82,-191.5 41,-191.5"/>
<text text-anchor="middle" x="61.5" y="-198.5" font-family="Helvetica,sans-Serif" font-size="10.00" fill="#000000">mesh</text>
</a>
</g>
</g>
<!-- Node4&#45;&gt;Node3 -->
<g id="edge3" class="edge">
<title>Node4&#45;&gt;Node3</title>
<path fill="none" stroke="#9a32cd" stroke-dasharray="5,2" d="M61.5,-181.1079C61.5,-168.714 61.5,-153.3263 61.5,-143.5817"/>
<polygon fill="#9a32cd" stroke="#9a32cd" points="58.0001,-181.4005 61.5,-191.4005 65.0001,-181.4006 58.0001,-181.4005"/>
<text text-anchor="middle" x="75.5" y="-165" font-family="Helvetica,sans-Serif" font-size="10.00" fill="#000000"> Mesh</text>
</g>
</g>
</svg>
