<?xml version="1.0" encoding="UTF-8" standalone="no"?>
<!DOCTYPE svg PUBLIC "-//W3C//DTD SVG 1.1//EN"
 "http://www.w3.org/Graphics/SVG/1.1/DTD/svg11.dtd">
<!-- Generated by graphviz version 2.40.1 (20161225.0304)
 -->
<!-- Title: examples/helloworld/main.cpp Pages: 1 -->
<svg width="969pt" height="102pt"
 viewBox="0.00 0.00 969.22 102.00" xmlns="http://www.w3.org/2000/svg" xmlns:xlink="http://www.w3.org/1999/xlink">
<g id="graph0" class="graph" transform="scale(1 1) rotate(0) translate(4 98)">
<title>examples/helloworld/main.cpp</title>
<polygon fill="#ffffff" stroke="transparent" points="-4,4 -4,-98 965.2236,-98 965.2236,4 -4,4"/>
<!-- Node0 -->
<g id="node1" class="node">
<title>Node0</title>
<polygon fill="#bfbfbf" stroke="#000000" points="400.1157,-65.5 400.1157,-93.5 506.7163,-93.5 506.7163,-65.5 400.1157,-65.5"/>
<text text-anchor="start" x="408.1157" y="-81.5" font-family="Helvetica,sans-Serif" font-size="10.00" fill="#000000">examples/helloworld</text>
<text text-anchor="middle" x="453.416" y="-71.5" font-family="Helvetica,sans-Serif" font-size="10.00" fill="#000000">/main.cpp</text>
</g>
<!-- Node1 -->
<g id="node2" class="node">
<title>Node1</title>
<polygon fill="#ffffff" stroke="#bfbfbf" points="0,-5.5 0,-23.5 108.832,-23.5 108.832,-5.5 0,-5.5"/>
<text text-anchor="middle" x="54.416" y="-11.5" font-family="Helvetica,sans-Serif" font-size="10.00" fill="#000000">Epetra_ConfigDefs.h</text>
</g>
<!-- Node0&#45;&gt;Node1 -->
<g id="edge1" class="edge">
<title>Node0&#45;&gt;Node1</title>
<path fill="none" stroke="#191970" d="M399.8343,-72.6534C333.5217,-63.8973 217.2541,-47.6204 118.416,-29 113.098,-27.9981 107.5501,-26.8688 102.0408,-25.6939"/>
<polygon fill="#191970" stroke="#191970" points="102.7403,-22.2643 92.2234,-23.5474 101.245,-29.1027 102.7403,-22.2643"/>
</g>
<!-- Node2 -->
<g id="node3" class="node">
<title>Node2</title>
<polygon fill="#ffffff" stroke="#bfbfbf" points="127.229,-5.5 127.229,-23.5 241.603,-23.5 241.603,-5.5 127.229,-5.5"/>
<text text-anchor="middle" x="184.416" y="-11.5" font-family="Helvetica,sans-Serif" font-size="10.00" fill="#000000">Epetra_SerialComm.h</text>
</g>
<!-- Node0&#45;&gt;Node2 -->
<g id="edge2" class="edge">
<title>Node0&#45;&gt;Node2</title>
<path fill="none" stroke="#191970" d="M399.9487,-66.5804C350.8441,-54.715 278.7656,-37.2982 231.7137,-25.9288"/>
<polygon fill="#191970" stroke="#191970" points="232.3219,-22.4751 221.7795,-23.5284 230.6777,-29.2793 232.3219,-22.4751"/>
</g>
<!-- Node3 -->
<g id="node4" class="node">
<title>Node3</title>
<polygon fill="#ffffff" stroke="#bfbfbf" points="259.5298,-5.5 259.5298,-23.5 447.3022,-23.5 447.3022,-5.5 259.5298,-5.5"/>
<text text-anchor="middle" x="353.416" y="-11.5" font-family="Helvetica,sans-Serif" font-size="10.00" fill="#000000">Teuchos_CommandLineProcessor.hpp</text>
</g>
<!-- Node0&#45;&gt;Node3 -->
<g id="edge3" class="edge">
<title>Node0&#45;&gt;Node3</title>
<path fill="none" stroke="#191970" d="M431.7175,-65.396C415.2386,-54.6846 392.6441,-39.9983 375.9606,-29.154"/>
<polygon fill="#191970" stroke="#191970" points="377.6684,-26.0897 367.3765,-23.5743 373.8535,-31.9588 377.6684,-26.0897"/>
</g>
<!-- Node4 -->
<g id="node5" class="node">
<title>Node4</title>
<polygon fill="#ffffff" stroke="#bfbfbf" points="465.5347,-5.5 465.5347,-23.5 643.2974,-23.5 643.2974,-5.5 465.5347,-5.5"/>
<text text-anchor="middle" x="554.416" y="-11.5" font-family="Helvetica,sans-Serif" font-size="10.00" fill="#000000">Teuchos_StandardCatchMacros.hpp</text>
</g>
<!-- Node0&#45;&gt;Node4 -->
<g id="edge4" class="edge">
<title>Node0&#45;&gt;Node4</title>
<path fill="none" stroke="#191970" d="M475.3315,-65.396C491.9753,-54.6846 514.7957,-39.9983 531.646,-29.154"/>
<polygon fill="#191970" stroke="#191970" points="533.801,-31.9293 540.3159,-23.5743 530.0127,-26.043 533.801,-31.9293"/>
</g>
<!-- Node5 -->
<g id="node6" class="node">
<title>Node5</title>
<polygon fill="#ffffff" stroke="#bfbfbf" points="661.1577,-5.5 661.1577,-23.5 801.6743,-23.5 801.6743,-5.5 661.1577,-5.5"/>
<text text-anchor="middle" x="731.416" y="-11.5" font-family="Helvetica,sans-Serif" font-size="10.00" fill="#000000">Teuchos_ParameterList.hpp</text>
</g>
<!-- Node0&#45;&gt;Node5 -->
<g id="edge5" class="edge">
<title>Node0&#45;&gt;Node5</title>
<path fill="none" stroke="#191970" d="M507.0172,-66.9673C557.943,-55.0602 633.8382,-37.315 682.9835,-25.8242"/>
<polygon fill="#191970" stroke="#191970" points="683.8025,-29.2271 692.743,-23.5422 682.2088,-22.411 683.8025,-29.2271"/>
</g>
<!-- Node6 -->
<g id="node7" class="node">
<title>Node6</title>
<polygon fill="#ffffff" stroke="#bfbfbf" points="819.6084,-.5 819.6084,-28.5 961.2236,-28.5 961.2236,-.5 819.6084,-.5"/>
<text text-anchor="start" x="827.6084" y="-16.5" font-family="Helvetica,sans-Serif" font-size="10.00" fill="#000000">Teuchos_XMLParameterList</text>
<text text-anchor="middle" x="890.416" y="-6.5" font-family="Helvetica,sans-Serif" font-size="10.00" fill="#000000">CoreHelpers.hpp</text>
</g>
<!-- Node0&#45;&gt;Node6 -->
<g id="edge6" class="edge">
<title>Node0&#45;&gt;Node6</title>
<path fill="none" stroke="#191970" d="M506.7387,-72.6136C574.6273,-63.7001 695.7808,-47.3053 809.4245,-29.1242"/>
<polygon fill="#191970" stroke="#191970" points="810.0229,-32.573 819.3405,-27.5301 808.9118,-25.6618 810.0229,-32.573"/>
</g>
</g>
</svg>
