<?xml version="1.0" encoding="UTF-8" standalone="no"?>
<!DOCTYPE svg PUBLIC "-//W3C//DTD SVG 1.1//EN"
 "http://www.w3.org/Graphics/SVG/1.1/DTD/svg11.dtd">
<!-- Generated by graphviz version 2.40.1 (20161225.0304)
 -->
<!-- Title: src/nearlyIncompressibleHyperelasticity.hpp Pages: 1 -->
<svg width="992pt" height="173pt"
 viewBox="0.00 0.00 992.00 173.00" xmlns="http://www.w3.org/2000/svg" xmlns:xlink="http://www.w3.org/1999/xlink">
<g id="graph0" class="graph" transform="scale(1 1) rotate(0) translate(4 169)">
<title>src/nearlyIncompressibleHyperelasticity.hpp</title>
<polygon fill="#ffffff" stroke="transparent" points="-4,4 -4,-169 988,-169 988,4 -4,4"/>
<!-- Node36 -->
<g id="node1" class="node">
<title>Node36</title>
<polygon fill="#bfbfbf" stroke="#000000" points="311.5,-134.5 311.5,-164.5 436.5,-164.5 436.5,-134.5 311.5,-134.5"/>
<text text-anchor="start" x="319.5" y="-152.5" font-family="Helvetica,sans-Serif" font-size="10.00" fill="#000000">src/nearlyIncompressible</text>
<text text-anchor="middle" x="374" y="-141.5" font-family="Helvetica,sans-Serif" font-size="10.00" fill="#000000">Hyperelasticity.hpp</text>
</g>
<!-- Node37 -->
<g id="node2" class="node">
<title>Node37</title>
<g id="a_node2"><a xlink:href="../../dd/d3d/dirichlet_inlet_outlet___polyconvex_h_g_o_8hpp.html" target="_top" xlink:title="src/dirichletInletOutlet\l_PolyconvexHGO.hpp">
<polygon fill="#ffffff" stroke="#000000" points="0,-67.5 0,-97.5 114,-97.5 114,-67.5 0,-67.5"/>
<text text-anchor="start" x="8" y="-85.5" font-family="Helvetica,sans-Serif" font-size="10.00" fill="#000000">src/dirichletInletOutlet</text>
<text text-anchor="middle" x="57" y="-74.5" font-family="Helvetica,sans-Serif" font-size="10.00" fill="#000000">_PolyconvexHGO.hpp</text>
</a>
</g>
</g>
<!-- Node36&#45;&gt;Node37 -->
<g id="edge1" class="edge">
<title>Node36&#45;&gt;Node37</title>
<path fill="none" stroke="#191970" d="M301.3843,-135.1659C251.2018,-125.1217 182.9519,-111.1875 123,-98 120.1262,-97.3679 117.1842,-96.7114 114.2149,-96.0413"/>
<polygon fill="#191970" stroke="#191970" points="300.9982,-138.6579 311.4901,-137.185 302.3697,-131.7935 300.9982,-138.6579"/>
</g>
<!-- Node39 -->
<g id="node4" class="node">
<title>Node39</title>
<g id="a_node4"><a xlink:href="../../d5/d0d/dirichlet_strip_elongation___stochastic_polyconvex_h_g_o_8hpp.html" target="_top" xlink:title="src/dirichletStripElongation\l_StochasticPolyconvexHGO.hpp">
<polygon fill="#ffffff" stroke="#000000" points="132.5,-67.5 132.5,-97.5 293.5,-97.5 293.5,-67.5 132.5,-67.5"/>
<text text-anchor="start" x="140.5" y="-85.5" font-family="Helvetica,sans-Serif" font-size="10.00" fill="#000000">src/dirichletStripElongation</text>
<text text-anchor="middle" x="213" y="-74.5" font-family="Helvetica,sans-Serif" font-size="10.00" fill="#000000">_StochasticPolyconvexHGO.hpp</text>
</a>
</g>
</g>
<!-- Node36&#45;&gt;Node39 -->
<g id="edge3" class="edge">
<title>Node36&#45;&gt;Node39</title>
<path fill="none" stroke="#191970" d="M328.5587,-130.5897C303.4767,-120.1518 272.7512,-107.3654 249.2891,-97.6017"/>
<polygon fill="#191970" stroke="#191970" points="327.2912,-133.8531 337.8685,-134.4639 329.9807,-127.3904 327.2912,-133.8531"/>
</g>
<!-- Node41 -->
<g id="node6" class="node">
<title>Node41</title>
<g id="a_node6"><a xlink:href="../../d8/d7d/nearly_incompressible_hyperelasticity_8cpp.html" target="_top" xlink:title="src/nearlyIncompressible\lHyperelasticity.cpp">
<polygon fill="#ffffff" stroke="#000000" points="311.5,-67.5 311.5,-97.5 436.5,-97.5 436.5,-67.5 311.5,-67.5"/>
<text text-anchor="start" x="319.5" y="-85.5" font-family="Helvetica,sans-Serif" font-size="10.00" fill="#000000">src/nearlyIncompressible</text>
<text text-anchor="middle" x="374" y="-74.5" font-family="Helvetica,sans-Serif" font-size="10.00" fill="#000000">Hyperelasticity.cpp</text>
</a>
</g>
</g>
<!-- Node36&#45;&gt;Node41 -->
<g id="edge5" class="edge">
<title>Node36&#45;&gt;Node41</title>
<path fill="none" stroke="#191970" d="M374,-124.0249C374,-115.128 374,-105.4287 374,-97.6432"/>
<polygon fill="#191970" stroke="#191970" points="370.5001,-124.2966 374,-134.2967 377.5001,-124.2967 370.5001,-124.2966"/>
</g>
<!-- Node42 -->
<g id="node7" class="node">
<title>Node42</title>
<g id="a_node7"><a xlink:href="../../d6/d14/neumann_inner_surface___polyconvex_h_g_o_8hpp.html" target="_top" xlink:title="src/neumannInnerSurface\l_PolyconvexHGO.hpp">
<polygon fill="#ffffff" stroke="#000000" points="455,-67.5 455,-97.5 583,-97.5 583,-67.5 455,-67.5"/>
<text text-anchor="start" x="463" y="-85.5" font-family="Helvetica,sans-Serif" font-size="10.00" fill="#000000">src/neumannInnerSurface</text>
<text text-anchor="middle" x="519" y="-74.5" font-family="Helvetica,sans-Serif" font-size="10.00" fill="#000000">_PolyconvexHGO.hpp</text>
</a>
</g>
</g>
<!-- Node36&#45;&gt;Node42 -->
<g id="edge6" class="edge">
<title>Node36&#45;&gt;Node42</title>
<path fill="none" stroke="#191970" d="M415.8236,-130.1746C438.2451,-119.8143 465.466,-107.2364 486.3172,-97.6017"/>
<polygon fill="#191970" stroke="#191970" points="414.1505,-127.0921 406.5408,-134.4639 417.0867,-133.4465 414.1505,-127.0921"/>
</g>
<!-- Node45 -->
<g id="node10" class="node">
<title>Node45</title>
<g id="a_node10"><a xlink:href="../../dc/da1/neumann_inner_surface___stochastic_polyconvex_h_g_o_8hpp.html" target="_top" xlink:title="src/neumannInnerSurface\l_StochasticPolyconvexHGO.hpp">
<polygon fill="#ffffff" stroke="#000000" points="656.5,-67.5 656.5,-97.5 817.5,-97.5 817.5,-67.5 656.5,-67.5"/>
<text text-anchor="start" x="664.5" y="-85.5" font-family="Helvetica,sans-Serif" font-size="10.00" fill="#000000">src/neumannInnerSurface</text>
<text text-anchor="middle" x="737" y="-74.5" font-family="Helvetica,sans-Serif" font-size="10.00" fill="#000000">_StochasticPolyconvexHGO.hpp</text>
</a>
</g>
</g>
<!-- Node36&#45;&gt;Node45 -->
<g id="edge9" class="edge">
<title>Node36&#45;&gt;Node45</title>
<path fill="none" stroke="#191970" d="M446.6854,-136.0842C507.2616,-124.9035 593.4723,-108.9913 656.2021,-97.4131"/>
<polygon fill="#191970" stroke="#191970" points="446.014,-132.649 436.8154,-137.906 447.2846,-139.5327 446.014,-132.649"/>
</g>
<!-- Node38 -->
<g id="node3" class="node">
<title>Node38</title>
<g id="a_node3"><a xlink:href="../../de/da1/arteries_2deterministic__dirichlet_2main_8cpp.html" target="_top" xlink:title="arteries/deterministic\l_dirichlet/main.cpp">
<polygon fill="#ffffff" stroke="#000000" points="3.5,-.5 3.5,-30.5 110.5,-30.5 110.5,-.5 3.5,-.5"/>
<text text-anchor="start" x="11.5" y="-18.5" font-family="Helvetica,sans-Serif" font-size="10.00" fill="#000000">arteries/deterministic</text>
<text text-anchor="middle" x="57" y="-7.5" font-family="Helvetica,sans-Serif" font-size="10.00" fill="#000000">_dirichlet/main.cpp</text>
</a>
</g>
</g>
<!-- Node37&#45;&gt;Node38 -->
<g id="edge2" class="edge">
<title>Node37&#45;&gt;Node38</title>
<path fill="none" stroke="#191970" d="M57,-57.0249C57,-48.128 57,-38.4287 57,-30.6432"/>
<polygon fill="#191970" stroke="#191970" points="53.5001,-57.2966 57,-67.2967 60.5001,-57.2967 53.5001,-57.2966"/>
</g>
<!-- Node40 -->
<g id="node5" class="node">
<title>Node40</title>
<g id="a_node5"><a xlink:href="../../dc/dba/arteries_2strip__dirichlet_2main_8cpp.html" target="_top" xlink:title="arteries/strip_dirichlet\l/main.cpp">
<polygon fill="#ffffff" stroke="#000000" points="158,-.5 158,-30.5 268,-30.5 268,-.5 158,-.5"/>
<text text-anchor="start" x="166" y="-18.5" font-family="Helvetica,sans-Serif" font-size="10.00" fill="#000000">arteries/strip_dirichlet</text>
<text text-anchor="middle" x="213" y="-7.5" font-family="Helvetica,sans-Serif" font-size="10.00" fill="#000000">/main.cpp</text>
</a>
</g>
</g>
<!-- Node39&#45;&gt;Node40 -->
<g id="edge4" class="edge">
<title>Node39&#45;&gt;Node40</title>
<path fill="none" stroke="#191970" d="M213,-57.0249C213,-48.128 213,-38.4287 213,-30.6432"/>
<polygon fill="#191970" stroke="#191970" points="209.5001,-57.2966 213,-67.2967 216.5001,-57.2967 209.5001,-57.2966"/>
</g>
<!-- Node43 -->
<g id="node8" class="node">
<title>Node43</title>
<g id="a_node8"><a xlink:href="../../d9/d81/arteries_2deterministic__neumann_2main_8cpp.html" target="_top" xlink:title="arteries/deterministic\l_neumann/main.cpp">
<polygon fill="#ffffff" stroke="#000000" points="325.5,-.5 325.5,-30.5 432.5,-30.5 432.5,-.5 325.5,-.5"/>
<text text-anchor="start" x="333.5" y="-18.5" font-family="Helvetica,sans-Serif" font-size="10.00" fill="#000000">arteries/deterministic</text>
<text text-anchor="middle" x="379" y="-7.5" font-family="Helvetica,sans-Serif" font-size="10.00" fill="#000000">_neumann/main.cpp</text>
</a>
</g>
</g>
<!-- Node42&#45;&gt;Node43 -->
<g id="edge7" class="edge">
<title>Node42&#45;&gt;Node43</title>
<path fill="none" stroke="#191970" d="M478.362,-63.0518C456.8498,-52.7567 430.819,-40.2991 410.7983,-30.7177"/>
<polygon fill="#191970" stroke="#191970" points="477.0501,-66.3041 487.5813,-67.4639 480.0719,-59.9899 477.0501,-66.3041"/>
</g>
<!-- Node44 -->
<g id="node9" class="node">
<title>Node44</title>
<g id="a_node9"><a xlink:href="../../db/db7/arteries_2vonmises_2main_8cpp.html" target="_top" xlink:title="arteries/vonmises/main.cpp">
<polygon fill="#ffffff" stroke="#000000" points="450.5,-6 450.5,-25 587.5,-25 587.5,-6 450.5,-6"/>
<text text-anchor="middle" x="519" y="-13" font-family="Helvetica,sans-Serif" font-size="10.00" fill="#000000">arteries/vonmises/main.cpp</text>
</a>
</g>
</g>
<!-- Node42&#45;&gt;Node44 -->
<g id="edge8" class="edge">
<title>Node42&#45;&gt;Node44</title>
<path fill="none" stroke="#191970" d="M519,-57.1199C519,-45.9072 519,-33.4031 519,-25.055"/>
<polygon fill="#191970" stroke="#191970" points="515.5001,-57.2966 519,-67.2967 522.5001,-57.2967 515.5001,-57.2966"/>
</g>
<!-- Node46 -->
<g id="node11" class="node">
<title>Node46</title>
<g id="a_node11"><a xlink:href="../../d5/da5/arteries_2boost__gmrf_2gmrf__gauss_2main_8cpp.html" target="_top" xlink:title="arteries/boost_gmrf\l/gmrf_gauss/main.cpp">
<polygon fill="#ffffff" stroke="#000000" points="605.5,-.5 605.5,-30.5 718.5,-30.5 718.5,-.5 605.5,-.5"/>
<text text-anchor="start" x="613.5" y="-18.5" font-family="Helvetica,sans-Serif" font-size="10.00" fill="#000000">arteries/boost_gmrf</text>
<text text-anchor="middle" x="662" y="-7.5" font-family="Helvetica,sans-Serif" font-size="10.00" fill="#000000">/gmrf_gauss/main.cpp</text>
</a>
</g>
</g>
<!-- Node45&#45;&gt;Node46 -->
<g id="edge10" class="edge">
<title>Node45&#45;&gt;Node46</title>
<path fill="none" stroke="#191970" d="M712.3692,-60.4965C701.4246,-50.7193 688.8157,-39.4554 678.9513,-30.6432"/>
<polygon fill="#191970" stroke="#191970" points="710.1919,-63.2447 719.9813,-67.2967 714.8555,-58.0243 710.1919,-63.2447"/>
</g>
<!-- Node47 -->
<g id="node12" class="node">
<title>Node47</title>
<g id="a_node12"><a xlink:href="../../d2/dbe/arteries_2boost__gmrf_2gmrf__nodes_2main_8cpp.html" target="_top" xlink:title="arteries/boost_gmrf\l/gmrf_nodes/main.cpp">
<polygon fill="#ffffff" stroke="#000000" points="736.5,-.5 736.5,-30.5 849.5,-30.5 849.5,-.5 736.5,-.5"/>
<text text-anchor="start" x="744.5" y="-18.5" font-family="Helvetica,sans-Serif" font-size="10.00" fill="#000000">arteries/boost_gmrf</text>
<text text-anchor="middle" x="793" y="-7.5" font-family="Helvetica,sans-Serif" font-size="10.00" fill="#000000">/gmrf_nodes/main.cpp</text>
</a>
</g>
</g>
<!-- Node45&#45;&gt;Node47 -->
<g id="edge11" class="edge">
<title>Node45&#45;&gt;Node47</title>
<path fill="none" stroke="#191970" d="M756.3485,-59.3509C764.2911,-49.8482 773.2636,-39.1132 780.343,-30.6432"/>
<polygon fill="#191970" stroke="#191970" points="753.4349,-57.3792 749.7073,-67.2967 758.8059,-61.8684 753.4349,-57.3792"/>
</g>
<!-- Node48 -->
<g id="node13" class="node">
<title>Node48</title>
<g id="a_node13"><a xlink:href="../../da/df3/arteries_2gmrf__neumann_2main_8cpp.html" target="_top" xlink:title="arteries/gmrf_neumann\l/main.cpp">
<polygon fill="#ffffff" stroke="#000000" points="868,-.5 868,-30.5 984,-30.5 984,-.5 868,-.5"/>
<text text-anchor="start" x="876" y="-18.5" font-family="Helvetica,sans-Serif" font-size="10.00" fill="#000000">arteries/gmrf_neumann</text>
<text text-anchor="middle" x="926" y="-7.5" font-family="Helvetica,sans-Serif" font-size="10.00" fill="#000000">/main.cpp</text>
</a>
</g>
</g>
<!-- Node45&#45;&gt;Node48 -->
<g id="edge12" class="edge">
<title>Node45&#45;&gt;Node48</title>
<path fill="none" stroke="#191970" d="M789.1802,-64.0023C818.8334,-53.4903 855.4932,-40.4945 883.3997,-30.6017"/>
<polygon fill="#191970" stroke="#191970" points="787.6711,-60.8237 779.4153,-67.4639 790.01,-67.4214 787.6711,-60.8237"/>
</g>
</g>
</svg>
