<?xml version="1.0" encoding="UTF-8" standalone="no"?>
<!DOCTYPE svg PUBLIC "-//W3C//DTD SVG 1.1//EN"
 "http://www.w3.org/Graphics/SVG/1.1/DTD/svg11.dtd">
<!-- Generated by graphviz version 2.40.1 (20161225.0304)
 -->
<!-- Title: src/nearlyIncompressibleHyperelasticity.hpp Pages: 1 -->
<!--zoomable 173 -->
<svg id="main" version="1.1" xmlns="http://www.w3.org/2000/svg" xmlns:xlink="http://www.w3.org/1999/xlink" xml:space="preserve" onload="init(evt)">
<style type="text/css"><![CDATA[
.edge:hover path { stroke: red; }
.edge:hover polygon { stroke: red; fill: red; }
]]></style>
<script type="text/javascript"><![CDATA[
var edges = document.getElementsByTagName('g');
if (edges && edges.length) {
  for (var i=0;i<edges.length;i++) {
    if (edges[i].id.substr(0,4)=='edge') {
      edges[i].setAttribute('class','edge');
    }
  }
}
]]></script>
        <defs>
                <circle id="rim" cx="0" cy="0" r="7"/>
                <circle id="rim2" cx="0" cy="0" r="3.5"/>
                <g id="zoomPlus">
                        <use xlink:href="#rim" fill="#404040">
                                <set attributeName="fill" to="#808080" begin="zoomplus.mouseover" end="zoomplus.mouseout"/>
                        </use>
                        <path d="M-4,0h8M0,-4v8" fill="none" stroke="white" stroke-width="1.5" pointer-events="none"/>
                </g>
                <g id="zoomMin">
                        <use xlink:href="#rim" fill="#404040">
                                <set attributeName="fill" to="#808080" begin="zoomminus.mouseover" end="zoomminus.mouseout"/>
                        </use>
                        <path d="M-4,0h8" fill="none" stroke="white" stroke-width="1.5" pointer-events="none"/>
                </g>
                <g id="dirArrow">
                        <path fill="none" stroke="white" stroke-width="1.5" d="M0,-3.0v7 M-2.5,-0.5L0,-3.0L2.5,-0.5"/>
                </g>
               <g id="resetDef">
                       <use xlink:href="#rim2" fill="#404040">
                               <set attributeName="fill" to="#808080" begin="reset.mouseover" end="reset.mouseout"/>
                       </use>
               </g>
        </defs>

<script type="text/javascript">
var viewWidth = 993;
var viewHeight = 173;
var sectionId = 'dynsection-1';
</script>
<script xlink:href="../../svgpan.js"/>
<svg id="graph" class="graph">
<g id="viewport">
<title>src/nearlyIncompressibleHyperelasticity.hpp</title>
<polygon fill="#ffffff" stroke="transparent" points="-4,4 -4,-169 989,-169 989,4 -4,4"/>
<!-- Node36 -->
<g id="node1" class="node">
<title>Node36</title>
<polygon fill="#bfbfbf" stroke="#000000" points="311.5,-134.5 311.5,-164.5 436.5,-164.5 436.5,-134.5 311.5,-134.5"/>
<text text-anchor="start" x="319.5" y="-152.5" font-family="Helvetica,sans-Serif" font-size="10.00" fill="#000000">src/nearlyIncompressible</text>
<text text-anchor="middle" x="374" y="-141.5" font-family="Helvetica,sans-Serif" font-size="10.00" fill="#000000">Hyperelasticity.hpp</text>
</g>
<!-- Node37 -->
<g id="node2" class="node">
<title>Node37</title>
<g id="a_node2"><a xlink:href="../../de/db1/_dirichlet_inlet_outlet___polyconvex_h_g_o_8hpp.html" target="_top" xlink:title="src/DirichletInletOutlet\l_PolyconvexHGO.hpp">
<polygon fill="#ffffff" stroke="#000000" points="0,-67.5 0,-97.5 114,-97.5 114,-67.5 0,-67.5"/>
<text text-anchor="start" x="8" y="-85.5" font-family="Helvetica,sans-Serif" font-size="10.00" fill="#000000">src/DirichletInletOutlet</text>
<text text-anchor="middle" x="57" y="-74.5" font-family="Helvetica,sans-Serif" font-size="10.00" fill="#000000">_PolyconvexHGO.hpp</text>
</a>
</g>
</g>
<!-- Node36&#45;&gt;Node37 -->
<g id="edge1" class="edge">
<title>Node36&#45;&gt;Node37</title>
<path fill="none" stroke="#191970" d="M301.3843,-135.1659C251.2018,-125.1217 182.9519,-111.1875 123,-98 120.1262,-97.3679 117.1842,-96.7114 114.2149,-96.0413"/>
<polygon fill="#191970" stroke="#191970" points="300.9982,-138.6579 311.4901,-137.185 302.3697,-131.7935 300.9982,-138.6579"/>
</g>
<!-- Node39 -->
<g id="node4" class="node">
<title>Node39</title>
<g id="a_node4"><a xlink:href="../../d5/d6a/_dirichlet_strip_elongation___stochastic_polyconvex_h_g_o_8hpp.html" target="_top" xlink:title="src/DirichletStripElongation\l_StochasticPolyconvexHGO.hpp">
<polygon fill="#ffffff" stroke="#000000" points="132.5,-67.5 132.5,-97.5 293.5,-97.5 293.5,-67.5 132.5,-67.5"/>
<text text-anchor="start" x="140.5" y="-85.5" font-family="Helvetica,sans-Serif" font-size="10.00" fill="#000000">src/DirichletStripElongation</text>
<text text-anchor="middle" x="213" y="-74.5" font-family="Helvetica,sans-Serif" font-size="10.00" fill="#000000">_StochasticPolyconvexHGO.hpp</text>
</a>
</g>
</g>
<!-- Node36&#45;&gt;Node39 -->
<g id="edge3" class="edge">
<title>Node36&#45;&gt;Node39</title>
<path fill="none" stroke="#191970" d="M328.5587,-130.5897C303.4767,-120.1518 272.7512,-107.3654 249.2891,-97.6017"/>
<polygon fill="#191970" stroke="#191970" points="327.2912,-133.8531 337.8685,-134.4639 329.9807,-127.3904 327.2912,-133.8531"/>
</g>
<!-- Node41 -->
<g id="node6" class="node">
<title>Node41</title>
<g id="a_node6"><a xlink:href="../../d8/d7d/nearly_incompressible_hyperelasticity_8cpp.html" target="_top" xlink:title="src/nearlyIncompressible\lHyperelasticity.cpp">
<polygon fill="#ffffff" stroke="#000000" points="311.5,-67.5 311.5,-97.5 436.5,-97.5 436.5,-67.5 311.5,-67.5"/>
<text text-anchor="start" x="319.5" y="-85.5" font-family="Helvetica,sans-Serif" font-size="10.00" fill="#000000">src/nearlyIncompressible</text>
<text text-anchor="middle" x="374" y="-74.5" font-family="Helvetica,sans-Serif" font-size="10.00" fill="#000000">Hyperelasticity.cpp</text>
</a>
</g>
</g>
<!-- Node36&#45;&gt;Node41 -->
<g id="edge5" class="edge">
<title>Node36&#45;&gt;Node41</title>
<path fill="none" stroke="#191970" d="M374,-124.0249C374,-115.128 374,-105.4287 374,-97.6432"/>
<polygon fill="#191970" stroke="#191970" points="370.5001,-124.2966 374,-134.2967 377.5001,-124.2967 370.5001,-124.2966"/>
</g>
<!-- Node42 -->
<g id="node7" class="node">
<title>Node42</title>
<g id="a_node7"><a xlink:href="../../da/ddf/_neumann_inner_surface___polyconvex_h_g_o_8hpp.html" target="_top" xlink:title="src/NeumannInnerSurface\l_PolyconvexHGO.hpp">
<polygon fill="#ffffff" stroke="#000000" points="454.5,-67.5 454.5,-97.5 585.5,-97.5 585.5,-67.5 454.5,-67.5"/>
<text text-anchor="start" x="462.5" y="-85.5" font-family="Helvetica,sans-Serif" font-size="10.00" fill="#000000">src/NeumannInnerSurface</text>
<text text-anchor="middle" x="520" y="-74.5" font-family="Helvetica,sans-Serif" font-size="10.00" fill="#000000">_PolyconvexHGO.hpp</text>
</a>
</g>
</g>
<!-- Node36&#45;&gt;Node42 -->
<g id="edge6" class="edge">
<title>Node36&#45;&gt;Node42</title>
<path fill="none" stroke="#191970" d="M416.1121,-130.1746C438.6882,-119.8143 466.0968,-107.2364 487.0918,-97.6017"/>
<polygon fill="#191970" stroke="#191970" points="414.3941,-127.112 406.7652,-134.4639 417.3138,-133.474 414.3941,-127.112"/>
</g>
<!-- Node45 -->
<g id="node10" class="node">
<title>Node45</title>
<g id="a_node10"><a xlink:href="../../da/d42/_neumann_inner_surface___stochastic_polyconvex_h_g_o_8hpp.html" target="_top" xlink:title="src/NeumannInnerSurface\l_StochasticPolyconvexHGO.hpp">
<polygon fill="#ffffff" stroke="#000000" points="658.5,-67.5 658.5,-97.5 819.5,-97.5 819.5,-67.5 658.5,-67.5"/>
<text text-anchor="start" x="666.5" y="-85.5" font-family="Helvetica,sans-Serif" font-size="10.00" fill="#000000">src/NeumannInnerSurface</text>
<text text-anchor="middle" x="739" y="-74.5" font-family="Helvetica,sans-Serif" font-size="10.00" fill="#000000">_StochasticPolyconvexHGO.hpp</text>
</a>
</g>
</g>
<!-- Node36&#45;&gt;Node45 -->
<g id="edge9" class="edge">
<title>Node36&#45;&gt;Node45</title>
<path fill="none" stroke="#191970" d="M446.6958,-136.1558C507.7794,-124.9432 594.9866,-108.9353 658.2361,-97.3251"/>
<polygon fill="#191970" stroke="#191970" points="445.9495,-132.7343 436.7457,-137.9823 447.2133,-139.6192 445.9495,-132.7343"/>
</g>
<!-- Node38 -->
<g id="node3" class="node">
<title>Node38</title>
<g id="a_node3"><a xlink:href="../../de/da1/arteries_2deterministic__dirichlet_2main_8cpp.html" target="_top" xlink:title="arteries/deterministic\l_dirichlet/main.cpp">
<polygon fill="#ffffff" stroke="#000000" points="3.5,-.5 3.5,-30.5 110.5,-30.5 110.5,-.5 3.5,-.5"/>
<text text-anchor="start" x="11.5" y="-18.5" font-family="Helvetica,sans-Serif" font-size="10.00" fill="#000000">arteries/deterministic</text>
<text text-anchor="middle" x="57" y="-7.5" font-family="Helvetica,sans-Serif" font-size="10.00" fill="#000000">_dirichlet/main.cpp</text>
</a>
</g>
</g>
<!-- Node37&#45;&gt;Node38 -->
<g id="edge2" class="edge">
<title>Node37&#45;&gt;Node38</title>
<path fill="none" stroke="#191970" d="M57,-57.0249C57,-48.128 57,-38.4287 57,-30.6432"/>
<polygon fill="#191970" stroke="#191970" points="53.5001,-57.2966 57,-67.2967 60.5001,-57.2967 53.5001,-57.2966"/>
</g>
<!-- Node40 -->
<g id="node5" class="node">
<title>Node40</title>
<g id="a_node5"><a xlink:href="../../dc/dba/arteries_2strip__dirichlet_2main_8cpp.html" target="_top" xlink:title="arteries/strip_dirichlet\l/main.cpp">
<polygon fill="#ffffff" stroke="#000000" points="158,-.5 158,-30.5 268,-30.5 268,-.5 158,-.5"/>
<text text-anchor="start" x="166" y="-18.5" font-family="Helvetica,sans-Serif" font-size="10.00" fill="#000000">arteries/strip_dirichlet</text>
<text text-anchor="middle" x="213" y="-7.5" font-family="Helvetica,sans-Serif" font-size="10.00" fill="#000000">/main.cpp</text>
</a>
</g>
</g>
<!-- Node39&#45;&gt;Node40 -->
<g id="edge4" class="edge">
<title>Node39&#45;&gt;Node40</title>
<path fill="none" stroke="#191970" d="M213,-57.0249C213,-48.128 213,-38.4287 213,-30.6432"/>
<polygon fill="#191970" stroke="#191970" points="209.5001,-57.2966 213,-67.2967 216.5001,-57.2967 209.5001,-57.2966"/>
</g>
<!-- Node43 -->
<g id="node8" class="node">
<title>Node43</title>
<g id="a_node8"><a xlink:href="../../d9/d81/arteries_2deterministic__neumann_2main_8cpp.html" target="_top" xlink:title="arteries/deterministic\l_neumann/main.cpp">
<polygon fill="#ffffff" stroke="#000000" points="326.5,-.5 326.5,-30.5 433.5,-30.5 433.5,-.5 326.5,-.5"/>
<text text-anchor="start" x="334.5" y="-18.5" font-family="Helvetica,sans-Serif" font-size="10.00" fill="#000000">arteries/deterministic</text>
<text text-anchor="middle" x="380" y="-7.5" font-family="Helvetica,sans-Serif" font-size="10.00" fill="#000000">_neumann/main.cpp</text>
</a>
</g>
</g>
<!-- Node42&#45;&gt;Node43 -->
<g id="edge7" class="edge">
<title>Node42&#45;&gt;Node43</title>
<path fill="none" stroke="#191970" d="M479.362,-63.0518C457.8498,-52.7567 431.819,-40.2991 411.7983,-30.7177"/>
<polygon fill="#191970" stroke="#191970" points="478.0501,-66.3041 488.5813,-67.4639 481.0719,-59.9899 478.0501,-66.3041"/>
</g>
<!-- Node44 -->
<g id="node9" class="node">
<title>Node44</title>
<g id="a_node9"><a xlink:href="../../db/db7/arteries_2vonmises_2main_8cpp.html" target="_top" xlink:title="arteries/vonmises/main.cpp">
<polygon fill="#ffffff" stroke="#000000" points="451.5,-6 451.5,-25 588.5,-25 588.5,-6 451.5,-6"/>
<text text-anchor="middle" x="520" y="-13" font-family="Helvetica,sans-Serif" font-size="10.00" fill="#000000">arteries/vonmises/main.cpp</text>
</a>
</g>
</g>
<!-- Node42&#45;&gt;Node44 -->
<g id="edge8" class="edge">
<title>Node42&#45;&gt;Node44</title>
<path fill="none" stroke="#191970" d="M520,-57.1199C520,-45.9072 520,-33.4031 520,-25.055"/>
<polygon fill="#191970" stroke="#191970" points="516.5001,-57.2966 520,-67.2967 523.5001,-57.2967 516.5001,-57.2966"/>
</g>
<!-- Node46 -->
<g id="node11" class="node">
<title>Node46</title>
<g id="a_node11"><a xlink:href="../../d5/da5/arteries_2boost__gmrf_2gmrf__gauss_2main_8cpp.html" target="_top" xlink:title="arteries/boost_gmrf\l/gmrf_gauss/main.cpp">
<polygon fill="#ffffff" stroke="#000000" points="606.5,-.5 606.5,-30.5 719.5,-30.5 719.5,-.5 606.5,-.5"/>
<text text-anchor="start" x="614.5" y="-18.5" font-family="Helvetica,sans-Serif" font-size="10.00" fill="#000000">arteries/boost_gmrf</text>
<text text-anchor="middle" x="663" y="-7.5" font-family="Helvetica,sans-Serif" font-size="10.00" fill="#000000">/gmrf_gauss/main.cpp</text>
</a>
</g>
</g>
<!-- Node45&#45;&gt;Node46 -->
<g id="edge10" class="edge">
<title>Node45&#45;&gt;Node46</title>
<path fill="none" stroke="#191970" d="M714.0408,-60.4965C702.9503,-50.7193 690.1733,-39.4554 680.1773,-30.6432"/>
<polygon fill="#191970" stroke="#191970" points="711.9386,-63.3091 721.7544,-67.2967 716.5677,-58.0582 711.9386,-63.3091"/>
</g>
<!-- Node47 -->
<g id="node12" class="node">
<title>Node47</title>
<g id="a_node12"><a xlink:href="../../d2/dbe/arteries_2boost__gmrf_2gmrf__nodes_2main_8cpp.html" target="_top" xlink:title="arteries/boost_gmrf\l/gmrf_nodes/main.cpp">
<polygon fill="#ffffff" stroke="#000000" points="737.5,-.5 737.5,-30.5 850.5,-30.5 850.5,-.5 737.5,-.5"/>
<text text-anchor="start" x="745.5" y="-18.5" font-family="Helvetica,sans-Serif" font-size="10.00" fill="#000000">arteries/boost_gmrf</text>
<text text-anchor="middle" x="794" y="-7.5" font-family="Helvetica,sans-Serif" font-size="10.00" fill="#000000">/gmrf_nodes/main.cpp</text>
</a>
</g>
</g>
<!-- Node45&#45;&gt;Node47 -->
<g id="edge11" class="edge">
<title>Node45&#45;&gt;Node47</title>
<path fill="none" stroke="#191970" d="M758.003,-59.3509C765.8037,-49.8482 774.616,-39.1132 781.569,-30.6432"/>
<polygon fill="#191970" stroke="#191970" points="755.1201,-57.3466 751.4804,-67.2967 760.5306,-61.7881 755.1201,-57.3466"/>
</g>
<!-- Node48 -->
<g id="node13" class="node">
<title>Node48</title>
<g id="a_node13"><a xlink:href="../../da/df3/arteries_2gmrf__neumann_2main_8cpp.html" target="_top" xlink:title="arteries/gmrf_neumann\l/main.cpp">
<polygon fill="#ffffff" stroke="#000000" points="869,-.5 869,-30.5 985,-30.5 985,-.5 869,-.5"/>
<text text-anchor="start" x="877" y="-18.5" font-family="Helvetica,sans-Serif" font-size="10.00" fill="#000000">arteries/gmrf_neumann</text>
<text text-anchor="middle" x="927" y="-7.5" font-family="Helvetica,sans-Serif" font-size="10.00" fill="#000000">/main.cpp</text>
</a>
</g>
</g>
<!-- Node45&#45;&gt;Node48 -->
<g id="edge12" class="edge">
<title>Node45&#45;&gt;Node48</title>
<path fill="none" stroke="#191970" d="M790.9041,-64.0023C820.4004,-53.4903 856.8663,-40.4945 884.6251,-30.6017"/>
<polygon fill="#191970" stroke="#191970" points="789.4356,-60.8099 781.1909,-67.4639 791.7855,-67.4037 789.4356,-60.8099"/>
</g>
</g>
</svg>
        <g id="navigator" transform="translate(0 0)" fill="#404254">
                <rect fill="#f2f5e9" fill-opacity="0.5" stroke="#606060" stroke-width=".5" x="0" y="0" width="60" height="60"/>
                <use id="zoomplus" xlink:href="#zoomPlus" x="17" y="9" onmousedown="handleZoom(evt,'in')"/>
                <use id="zoomminus" xlink:href="#zoomMin" x="42" y="9" onmousedown="handleZoom(evt,'out')"/>
                <use id="reset" xlink:href="#resetDef" x="30" y="36" onmousedown="handleReset()"/>
                <g id="arrowUp" xlink:href="#dirArrow" transform="translate(30 24)" onmousedown="handlePan(0,-1)">
                  <use xlink:href="#rim" fill="#404040">
                        <set attributeName="fill" to="#808080" begin="arrowUp.mouseover" end="arrowUp.mouseout"/>
                  </use>
                  <path fill="none" stroke="white" stroke-width="1.5" d="M0,-3.0v7 M-2.5,-0.5L0,-3.0L2.5,-0.5"/>
                </g>
                <g id="arrowRight" xlink:href="#dirArrow" transform="rotate(90) translate(36 -43)" onmousedown="handlePan(1,0)">
                  <use xlink:href="#rim" fill="#404040">
                        <set attributeName="fill" to="#808080" begin="arrowRight.mouseover" end="arrowRight.mouseout"/>
                  </use>
                  <path fill="none" stroke="white" stroke-width="1.5" d="M0,-3.0v7 M-2.5,-0.5L0,-3.0L2.5,-0.5"/>
                </g>
                <g id="arrowDown" xlink:href="#dirArrow" transform="rotate(180) translate(-30 -48)" onmousedown="handlePan(0,1)">
                  <use xlink:href="#rim" fill="#404040">
                        <set attributeName="fill" to="#808080" begin="arrowDown.mouseover" end="arrowDown.mouseout"/>
                  </use>
                  <path fill="none" stroke="white" stroke-width="1.5" d="M0,-3.0v7 M-2.5,-0.5L0,-3.0L2.5,-0.5"/>
                </g>
                <g id="arrowLeft" xlink:href="#dirArrow" transform="rotate(270) translate(-36 17)" onmousedown="handlePan(-1,0)">
                  <use xlink:href="#rim" fill="#404040">
                        <set attributeName="fill" to="#808080" begin="arrowLeft.mouseover" end="arrowLeft.mouseout"/>
                  </use>
                  <path fill="none" stroke="white" stroke-width="1.5" d="M0,-3.0v7 M-2.5,-0.5L0,-3.0L2.5,-0.5"/>
                </g>
        </g>
        <svg viewBox="0 0 15 15" width="100%" height="30px" preserveAspectRatio="xMaxYMin meet">
         <g id="arrow_out" transform="scale(0.3 0.3)">
          <a xlink:href="nearly_incompressible_hyperelasticity_8hpp__dep__incl_org.svg" target="_base">
           <rect id="button" ry="5" rx="5" y="6" x="6" height="38" width="38"
                fill="#f2f5e9" fill-opacity="0.5" stroke="#606060" stroke-width="1.0"/>
           <path id="arrow"
             d="M 11.500037,31.436501 C 11.940474,20.09759 22.043105,11.32322 32.158766,21.979434 L 37.068811,17.246167 C 37.068811,17.246167 37.088388,32 37.088388,32 L 22.160133,31.978069 C 22.160133,31.978069 26.997745,27.140456 26.997745,27.140456 C 18.528582,18.264221 13.291696,25.230495 11.500037,31.436501 z"
             style="fill:#404040;"/>
          </a>
         </g>
        </svg>
</svg>
