<?xml version="1.0" encoding="UTF-8" standalone="no"?>
<!DOCTYPE svg PUBLIC "-//W3C//DTD SVG 1.1//EN"
 "http://www.w3.org/Graphics/SVG/1.1/DTD/svg11.dtd">
<!-- Generated by graphviz version 2.40.1 (20161225.0304)
 -->
<!-- Title: src/Linear_Finite_Element_Problem.hpp Pages: 1 -->
<!--zoomable 372 -->
<svg id="main" version="1.1" xmlns="http://www.w3.org/2000/svg" xmlns:xlink="http://www.w3.org/1999/xlink" xml:space="preserve" onload="init(evt)">
<style type="text/css"><![CDATA[
.edge:hover path { stroke: red; }
.edge:hover polygon { stroke: red; fill: red; }
]]></style>
<script type="text/javascript"><![CDATA[
var edges = document.getElementsByTagName('g');
if (edges && edges.length) {
  for (var i=0;i<edges.length;i++) {
    if (edges[i].id.substr(0,4)=='edge') {
      edges[i].setAttribute('class','edge');
    }
  }
}
]]></script>
        <defs>
                <circle id="rim" cx="0" cy="0" r="7"/>
                <circle id="rim2" cx="0" cy="0" r="3.5"/>
                <g id="zoomPlus">
                        <use xlink:href="#rim" fill="#404040">
                                <set attributeName="fill" to="#808080" begin="zoomplus.mouseover" end="zoomplus.mouseout"/>
                        </use>
                        <path d="M-4,0h8M0,-4v8" fill="none" stroke="white" stroke-width="1.5" pointer-events="none"/>
                </g>
                <g id="zoomMin">
                        <use xlink:href="#rim" fill="#404040">
                                <set attributeName="fill" to="#808080" begin="zoomminus.mouseover" end="zoomminus.mouseout"/>
                        </use>
                        <path d="M-4,0h8" fill="none" stroke="white" stroke-width="1.5" pointer-events="none"/>
                </g>
                <g id="dirArrow">
                        <path fill="none" stroke="white" stroke-width="1.5" d="M0,-3.0v7 M-2.5,-0.5L0,-3.0L2.5,-0.5"/>
                </g>
               <g id="resetDef">
                       <use xlink:href="#rim2" fill="#404040">
                               <set attributeName="fill" to="#808080" begin="reset.mouseover" end="reset.mouseout"/>
                       </use>
               </g>
        </defs>

<script type="text/javascript">
var viewWidth = 1806;
var viewHeight = 372;
var sectionId = 'dynsection-1';
</script>
<script xlink:href="../../svgpan.js"/>
<svg id="graph" class="graph">
<g id="viewport">
<title>src/Linear_Finite_Element_Problem.hpp</title>
<polygon fill="#ffffff" stroke="transparent" points="-4,4 -4,-368 1802.3271,-368 1802.3271,4 -4,4"/>
<!-- Node33 -->
<g id="node1" class="node">
<title>Node33</title>
<polygon fill="#bfbfbf" stroke="#000000" points="1224.3867,-335.5 1224.3867,-363.5 1356.5537,-363.5 1356.5537,-335.5 1224.3867,-335.5"/>
<text text-anchor="start" x="1232.3867" y="-351.5" font-family="Helvetica,sans-Serif" font-size="10.00" fill="#000000">src/Linear_Finite_Element</text>
<text text-anchor="middle" x="1290.4702" y="-341.5" font-family="Helvetica,sans-Serif" font-size="10.00" fill="#000000">_Problem.hpp</text>
</g>
<!-- Node34 -->
<g id="node2" class="node">
<title>Node34</title>
<g id="a_node2"><a xlink:href="../../d5/d3f/laplacepp_8hpp.html" target="_top" xlink:title="src/laplacepp.hpp">
<polygon fill="#ffffff" stroke="#000000" points="1131.2783,-275.5 1131.2783,-293.5 1225.6621,-293.5 1225.6621,-275.5 1131.2783,-275.5"/>
<text text-anchor="middle" x="1178.4702" y="-281.5" font-family="Helvetica,sans-Serif" font-size="10.00" fill="#000000">src/laplacepp.hpp</text>
</a>
</g>
</g>
<!-- Node33&#45;&gt;Node34 -->
<g id="edge1" class="edge">
<title>Node33&#45;&gt;Node34</title>
<path fill="none" stroke="#191970" d="M1257.2771,-330.2361C1236.3865,-318.1121 1210.3887,-303.0241 1194.1059,-293.5743"/>
<polygon fill="#191970" stroke="#191970" points="1255.7621,-333.4036 1266.1679,-335.396 1259.2757,-327.3493 1255.7621,-333.4036"/>
</g>
<!-- Node61 -->
<g id="node29" class="node">
<title>Node61</title>
<g id="a_node29"><a xlink:href="../../d4/d4c/linearelasticity__setup__pp_8hpp.html" target="_top" xlink:title="src/linearelasticity\l_setup_pp.hpp">
<polygon fill="#ffffff" stroke="#000000" points="1455.0146,-270.5 1455.0146,-298.5 1549.9258,-298.5 1549.9258,-270.5 1455.0146,-270.5"/>
<text text-anchor="start" x="1463.0146" y="-286.5" font-family="Helvetica,sans-Serif" font-size="10.00" fill="#000000">src/linearelasticity</text>
<text text-anchor="middle" x="1502.4702" y="-276.5" font-family="Helvetica,sans-Serif" font-size="10.00" fill="#000000">_setup_pp.hpp</text>
</a>
</g>
</g>
<!-- Node33&#45;&gt;Node61 -->
<g id="edge37" class="edge">
<title>Node33&#45;&gt;Node61</title>
<path fill="none" stroke="#191970" d="M1346.0982,-332.4442C1380.4634,-321.9078 1424.0319,-308.5495 1456.4469,-298.6109"/>
<polygon fill="#191970" stroke="#191970" points="1344.7448,-329.1983 1336.2101,-335.476 1346.7968,-335.8908 1344.7448,-329.1983"/>
</g>
<!-- Node35 -->
<g id="node3" class="node">
<title>Node35</title>
<g id="a_node3"><a xlink:href="../../d4/d0f/examples_2laplace__aztec_2main_8cpp.html" target="_top" xlink:title="examples/laplace_aztec\l/main.cpp">
<polygon fill="#ffffff" stroke="#000000" points="825.106,-205.5 825.106,-233.5 947.8345,-233.5 947.8345,-205.5 825.106,-205.5"/>
<text text-anchor="start" x="833.106" y="-221.5" font-family="Helvetica,sans-Serif" font-size="10.00" fill="#000000">examples/laplace_aztec</text>
<text text-anchor="middle" x="886.4702" y="-211.5" font-family="Helvetica,sans-Serif" font-size="10.00" fill="#000000">/main.cpp</text>
</a>
</g>
</g>
<!-- Node34&#45;&gt;Node35 -->
<g id="edge2" class="edge">
<title>Node34&#45;&gt;Node35</title>
<path fill="none" stroke="#191970" d="M1127.9444,-273.2528C1078.0206,-262.1396 1001.5732,-245.1222 948.106,-233.2203"/>
<polygon fill="#191970" stroke="#191970" points="1127.3473,-276.7055 1137.8689,-275.462 1128.8683,-269.8727 1127.3473,-276.7055"/>
</g>
<!-- Node36 -->
<g id="node4" class="node">
<title>Node36</title>
<g id="a_node4"><a xlink:href="../../d8/d16/examples_2laplace__stratimikos_2main_8cpp.html" target="_top" xlink:title="examples/laplace_stratimikos\l/main.cpp">
<polygon fill="#ffffff" stroke="#000000" points="966.165,-205.5 966.165,-233.5 1112.7754,-233.5 1112.7754,-205.5 966.165,-205.5"/>
<text text-anchor="start" x="974.165" y="-221.5" font-family="Helvetica,sans-Serif" font-size="10.00" fill="#000000">examples/laplace_stratimikos</text>
<text text-anchor="middle" x="1039.4702" y="-211.5" font-family="Helvetica,sans-Serif" font-size="10.00" fill="#000000">/main.cpp</text>
</a>
</g>
</g>
<!-- Node34&#45;&gt;Node36 -->
<g id="edge3" class="edge">
<title>Node34&#45;&gt;Node36</title>
<path fill="none" stroke="#191970" d="M1150.062,-271.2156C1126.6326,-260.2594 1093.4818,-244.7572 1069.5937,-233.5865"/>
<polygon fill="#191970" stroke="#191970" points="1148.6017,-274.3965 1159.1429,-275.462 1151.567,-268.0555 1148.6017,-274.3965"/>
</g>
<!-- Node37 -->
<g id="node5" class="node">
<title>Node37</title>
<g id="a_node5"><a xlink:href="../../de/d9d/hyperelasticity__setup__pp_8hpp.html" target="_top" xlink:title="src/hyperelasticity\l_setup_pp.hpp">
<polygon fill="#ffffff" stroke="#000000" points="1130.7363,-205.5 1130.7363,-233.5 1226.2041,-233.5 1226.2041,-205.5 1130.7363,-205.5"/>
<text text-anchor="start" x="1138.7363" y="-221.5" font-family="Helvetica,sans-Serif" font-size="10.00" fill="#000000">src/hyperelasticity</text>
<text text-anchor="middle" x="1178.4702" y="-211.5" font-family="Helvetica,sans-Serif" font-size="10.00" fill="#000000">_setup_pp.hpp</text>
</a>
</g>
</g>
<!-- Node34&#45;&gt;Node37 -->
<g id="edge4" class="edge">
<title>Node34&#45;&gt;Node37</title>
<path fill="none" stroke="#191970" d="M1178.4702,-265.2652C1178.4702,-255.2384 1178.4702,-243.1782 1178.4702,-233.9559"/>
<polygon fill="#191970" stroke="#191970" points="1174.9703,-265.462 1178.4702,-275.462 1181.9703,-265.4621 1174.9703,-265.462"/>
</g>
<!-- Node60 -->
<g id="node28" class="node">
<title>Node60</title>
<g id="a_node28"><a xlink:href="../../dc/d31/laplacepp_8cpp.html" target="_top" xlink:title="src/laplacepp.cpp">
<polygon fill="#ffffff" stroke="#000000" points="1244.5591,-210.5 1244.5591,-228.5 1338.3813,-228.5 1338.3813,-210.5 1244.5591,-210.5"/>
<text text-anchor="middle" x="1291.4702" y="-216.5" font-family="Helvetica,sans-Serif" font-size="10.00" fill="#000000">src/laplacepp.cpp</text>
</a>
</g>
</g>
<!-- Node34&#45;&gt;Node60 -->
<g id="edge36" class="edge">
<title>Node34&#45;&gt;Node60</title>
<path fill="none" stroke="#191970" d="M1202.9558,-270.4154C1224.9615,-257.7572 1256.6381,-239.5362 1275.5272,-228.6708"/>
<polygon fill="#191970" stroke="#191970" points="1201.1055,-267.4419 1194.1824,-275.462 1204.5958,-273.5097 1201.1055,-267.4419"/>
</g>
<!-- Node38 -->
<g id="node6" class="node">
<title>Node38</title>
<g id="a_node6"><a xlink:href="../../d6/db8/_arteries___model_c__deterministic__dirichlet_8hpp.html" target="_top" xlink:title="src/Arteries_ModelC\l_deterministic_dirichlet.hpp">
<polygon fill="#ffffff" stroke="#000000" points="1376.8843,-135.5 1376.8843,-163.5 1514.0562,-163.5 1514.0562,-135.5 1376.8843,-135.5"/>
<text text-anchor="start" x="1384.8843" y="-151.5" font-family="Helvetica,sans-Serif" font-size="10.00" fill="#000000">src/Arteries_ModelC</text>
<text text-anchor="middle" x="1445.4702" y="-141.5" font-family="Helvetica,sans-Serif" font-size="10.00" fill="#000000">_deterministic_dirichlet.hpp</text>
</a>
</g>
</g>
<!-- Node37&#45;&gt;Node38 -->
<g id="edge5" class="edge">
<title>Node37&#45;&gt;Node38</title>
<path fill="none" stroke="#191970" d="M1236.0632,-204.4007C1282.2489,-192.2921 1346.5883,-175.4241 1391.7249,-163.5905"/>
<polygon fill="#191970" stroke="#191970" points="1234.9899,-201.0637 1226.2045,-206.9854 1236.7652,-207.8349 1234.9899,-201.0637"/>
</g>
<!-- Node40 -->
<g id="node8" class="node">
<title>Node40</title>
<g id="a_node8"><a xlink:href="../../dd/da4/_arteries___model_c__deterministic__neumann_8hpp.html" target="_top" xlink:title="src/Arteries_ModelC\l_deterministic_neumann.hpp">
<polygon fill="#ffffff" stroke="#000000" points="1532.2637,-135.5 1532.2637,-163.5 1676.6768,-163.5 1676.6768,-135.5 1532.2637,-135.5"/>
<text text-anchor="start" x="1540.2637" y="-151.5" font-family="Helvetica,sans-Serif" font-size="10.00" fill="#000000">src/Arteries_ModelC</text>
<text text-anchor="middle" x="1604.4702" y="-141.5" font-family="Helvetica,sans-Serif" font-size="10.00" fill="#000000">_deterministic_neumann.hpp</text>
</a>
</g>
</g>
<!-- Node37&#45;&gt;Node40 -->
<g id="edge7" class="edge">
<title>Node37&#45;&gt;Node40</title>
<path fill="none" stroke="#191970" d="M1236.4303,-204.9832C1364.0275,-181.593 1399.7873,-191.5449 1523.4702,-169 1532.0081,-167.4437 1540.9933,-165.5458 1549.7472,-163.5518"/>
<polygon fill="#191970" stroke="#191970" points="1235.4555,-201.6046 1226.2676,-206.8803 1236.7401,-208.4858 1235.4555,-201.6046"/>
</g>
<!-- Node43 -->
<g id="node11" class="node">
<title>Node43</title>
<g id="a_node11"><a xlink:href="../../de/d6d/_arteries___model_c__gmrf__dirichlet_8hpp.html" target="_top" xlink:title="src/Arteries_ModelC\l_gmrf_dirichlet.hpp">
<polygon fill="#ffffff" stroke="#000000" points="513.1797,-135.5 513.1797,-163.5 619.7607,-163.5 619.7607,-135.5 513.1797,-135.5"/>
<text text-anchor="start" x="521.1797" y="-151.5" font-family="Helvetica,sans-Serif" font-size="10.00" fill="#000000">src/Arteries_ModelC</text>
<text text-anchor="middle" x="566.4702" y="-141.5" font-family="Helvetica,sans-Serif" font-size="10.00" fill="#000000">_gmrf_dirichlet.hpp</text>
</a>
</g>
</g>
<!-- Node37&#45;&gt;Node43 -->
<g id="edge10" class="edge">
<title>Node37&#45;&gt;Node43</title>
<path fill="none" stroke="#191970" d="M1120.6104,-205.0388C949.9308,-176.088 903.5771,-186.5355 735.4702,-169 696.8414,-164.9706 653.3055,-159.9355 620.0963,-155.9911"/>
<polygon fill="#191970" stroke="#191970" points="1120.2447,-208.5271 1130.6928,-206.7698 1121.4293,-201.6281 1120.2447,-208.5271"/>
</g>
<!-- Node45 -->
<g id="node13" class="node">
<title>Node45</title>
<g id="a_node13"><a xlink:href="../../dd/d1f/_arteries___model_c__gmrf__neumann_8hpp.html" target="_top" xlink:title="src/Arteries_ModelC\l_gmrf_neumann.hpp">
<polygon fill="#ffffff" stroke="#000000" points="204.3276,-135.5 204.3276,-163.5 312.6128,-163.5 312.6128,-135.5 204.3276,-135.5"/>
<text text-anchor="start" x="212.3276" y="-151.5" font-family="Helvetica,sans-Serif" font-size="10.00" fill="#000000">src/Arteries_ModelC</text>
<text text-anchor="middle" x="258.4702" y="-141.5" font-family="Helvetica,sans-Serif" font-size="10.00" fill="#000000">_gmrf_neumann.hpp</text>
</a>
</g>
</g>
<!-- Node37&#45;&gt;Node45 -->
<g id="edge12" class="edge">
<title>Node37&#45;&gt;Node45</title>
<path fill="none" stroke="#191970" d="M1120.5263,-205.0773C848.2435,-163.5502 775.1658,-187.6239 504.4702,-169 438.435,-164.4568 362.5055,-158.2949 312.6765,-154.1228"/>
<polygon fill="#191970" stroke="#191970" points="1120.2964,-208.5831 1130.7129,-206.6472 1121.3627,-201.6648 1120.2964,-208.5831"/>
</g>
<!-- Node49 -->
<g id="node17" class="node">
<title>Node49</title>
<g id="a_node17"><a xlink:href="../../df/dc0/_compressible___mooney___transverse___isotropic_8hpp.html" target="_top" xlink:title="src/Compressible_Mooney\l_Transverse_Isotropic.hpp">
<polygon fill="#ffffff" stroke="#000000" points="744.2808,-135.5 744.2808,-163.5 878.6597,-163.5 878.6597,-135.5 744.2808,-135.5"/>
<text text-anchor="start" x="752.2808" y="-151.5" font-family="Helvetica,sans-Serif" font-size="10.00" fill="#000000">src/Compressible_Mooney</text>
<text text-anchor="middle" x="811.4702" y="-141.5" font-family="Helvetica,sans-Serif" font-size="10.00" fill="#000000">_Transverse_Isotropic.hpp</text>
</a>
</g>
</g>
<!-- Node37&#45;&gt;Node49 -->
<g id="edge16" class="edge">
<title>Node37&#45;&gt;Node49</title>
<path fill="none" stroke="#191970" d="M1120.6194,-204.906C1031.4423,-185.8244 939.573,-170.0317 878.8678,-160.1301"/>
<polygon fill="#191970" stroke="#191970" points="1120.1222,-208.3791 1130.6353,-207.0657 1121.5977,-201.5364 1120.1222,-208.3791"/>
</g>
<!-- Node53 -->
<g id="node21" class="node">
<title>Node53</title>
<g id="a_node21"><a xlink:href="../../d0/d77/_compressible___mooney___transverse___isotropic___random___field_8hpp.html" target="_top" xlink:title="src/Compressible_Mooney\l_Transverse_Isotropic\l_Random_Field.hpp">
<polygon fill="#ffffff" stroke="#000000" points="1111.2808,-130.5 1111.2808,-168.5 1245.6597,-168.5 1245.6597,-130.5 1111.2808,-130.5"/>
<text text-anchor="start" x="1119.2808" y="-156.5" font-family="Helvetica,sans-Serif" font-size="10.00" fill="#000000">src/Compressible_Mooney</text>
<text text-anchor="start" x="1119.2808" y="-146.5" font-family="Helvetica,sans-Serif" font-size="10.00" fill="#000000">_Transverse_Isotropic</text>
<text text-anchor="middle" x="1178.4702" y="-136.5" font-family="Helvetica,sans-Serif" font-size="10.00" fill="#000000">_Random_Field.hpp</text>
</a>
</g>
</g>
<!-- Node37&#45;&gt;Node53 -->
<g id="edge20" class="edge">
<title>Node37&#45;&gt;Node53</title>
<path fill="none" stroke="#191970" d="M1178.4702,-195.0725C1178.4702,-186.4275 1178.4702,-176.8328 1178.4702,-168.6857"/>
<polygon fill="#191970" stroke="#191970" points="1174.9703,-195.3344 1178.4702,-205.3345 1181.9703,-195.3345 1174.9703,-195.3344"/>
</g>
<!-- Node56 -->
<g id="node24" class="node">
<title>Node56</title>
<g id="a_node24"><a xlink:href="../../d0/d66/hyperelasticity__setup__pp_8cpp.html" target="_top" xlink:title="src/hyperelasticity\l_setup_pp.cpp">
<polygon fill="#ffffff" stroke="#000000" points="1263.7363,-135.5 1263.7363,-163.5 1359.2041,-163.5 1359.2041,-135.5 1263.7363,-135.5"/>
<text text-anchor="start" x="1271.7363" y="-151.5" font-family="Helvetica,sans-Serif" font-size="10.00" fill="#000000">src/hyperelasticity</text>
<text text-anchor="middle" x="1311.4702" y="-141.5" font-family="Helvetica,sans-Serif" font-size="10.00" fill="#000000">_setup_pp.cpp</text>
</a>
</g>
</g>
<!-- Node37&#45;&gt;Node56 -->
<g id="edge23" class="edge">
<title>Node37&#45;&gt;Node56</title>
<path fill="none" stroke="#191970" d="M1214.4674,-200.5541C1236.5714,-188.9204 1264.4153,-174.2657 1284.5957,-163.6445"/>
<polygon fill="#191970" stroke="#191970" points="1212.6038,-197.5797 1205.3847,-205.3345 1215.8641,-203.7742 1212.6038,-197.5797"/>
</g>
<!-- Node57 -->
<g id="node25" class="node">
<title>Node57</title>
<g id="a_node25"><a xlink:href="../../d7/d17/_newton___raphsonpp_8hpp.html" target="_top" xlink:title="src/Newton_Raphsonpp.hpp">
<polygon fill="#ffffff" stroke="#000000" points="951.3745,-140.5 951.3745,-158.5 1093.5659,-158.5 1093.5659,-140.5 951.3745,-140.5"/>
<text text-anchor="middle" x="1022.4702" y="-146.5" font-family="Helvetica,sans-Serif" font-size="10.00" fill="#000000">src/Newton_Raphsonpp.hpp</text>
</a>
</g>
</g>
<!-- Node37&#45;&gt;Node57 -->
<g id="edge24" class="edge">
<title>Node37&#45;&gt;Node57</title>
<path fill="none" stroke="#191970" d="M1137.757,-201.2312C1107.1616,-187.5025 1066.5574,-169.2827 1042.5999,-158.5325"/>
<polygon fill="#191970" stroke="#191970" points="1136.3448,-204.4337 1146.9013,-205.3345 1139.2106,-198.0472 1136.3448,-204.4337"/>
</g>
<!-- Node39 -->
<g id="node7" class="node">
<title>Node39</title>
<g id="a_node7"><a xlink:href="../../de/da1/arteries_2deterministic__dirichlet_2main_8cpp.html" target="_top" xlink:title="arteries/deterministic\l_dirichlet/main.cpp">
<polygon fill="#ffffff" stroke="#000000" points="1408.3447,-65.5 1408.3447,-93.5 1516.5957,-93.5 1516.5957,-65.5 1408.3447,-65.5"/>
<text text-anchor="start" x="1416.3447" y="-81.5" font-family="Helvetica,sans-Serif" font-size="10.00" fill="#000000">arteries/deterministic</text>
<text text-anchor="middle" x="1462.4702" y="-71.5" font-family="Helvetica,sans-Serif" font-size="10.00" fill="#000000">_dirichlet/main.cpp</text>
</a>
</g>
</g>
<!-- Node38&#45;&gt;Node39 -->
<g id="edge6" class="edge">
<title>Node38&#45;&gt;Node39</title>
<path fill="none" stroke="#191970" d="M1451.3221,-125.4038C1453.8936,-114.8157 1456.8242,-102.7484 1459.0351,-93.6445"/>
<polygon fill="#191970" stroke="#191970" points="1447.8693,-124.7909 1448.9104,-135.3345 1454.6716,-126.4429 1447.8693,-124.7909"/>
</g>
<!-- Node41 -->
<g id="node9" class="node">
<title>Node41</title>
<g id="a_node9"><a xlink:href="../../d9/d81/arteries_2deterministic__neumann_2main_8cpp.html" target="_top" xlink:title="arteries/deterministic\l_neumann/main.cpp">
<polygon fill="#ffffff" stroke="#000000" points="1534.3447,-65.5 1534.3447,-93.5 1642.5957,-93.5 1642.5957,-65.5 1534.3447,-65.5"/>
<text text-anchor="start" x="1542.3447" y="-81.5" font-family="Helvetica,sans-Serif" font-size="10.00" fill="#000000">arteries/deterministic</text>
<text text-anchor="middle" x="1588.4702" y="-71.5" font-family="Helvetica,sans-Serif" font-size="10.00" fill="#000000">_neumann/main.cpp</text>
</a>
</g>
</g>
<!-- Node40&#45;&gt;Node41 -->
<g id="edge8" class="edge">
<title>Node40&#45;&gt;Node41</title>
<path fill="none" stroke="#191970" d="M1598.9625,-125.4038C1596.5424,-114.8157 1593.7841,-102.7484 1591.7032,-93.6445"/>
<polygon fill="#191970" stroke="#191970" points="1595.592,-126.3658 1601.2324,-135.3345 1602.4161,-124.806 1595.592,-126.3658"/>
</g>
<!-- Node42 -->
<g id="node10" class="node">
<title>Node42</title>
<g id="a_node10"><a xlink:href="../../db/db7/arteries_2vonmises_2main_8cpp.html" target="_top" xlink:title="arteries/vonmises/main.cpp">
<polygon fill="#ffffff" stroke="#000000" points="1660.6133,-70.5 1660.6133,-88.5 1798.3271,-88.5 1798.3271,-70.5 1660.6133,-70.5"/>
<text text-anchor="middle" x="1729.4702" y="-76.5" font-family="Helvetica,sans-Serif" font-size="10.00" fill="#000000">arteries/vonmises/main.cpp</text>
</a>
</g>
</g>
<!-- Node40&#45;&gt;Node42 -->
<g id="edge9" class="edge">
<title>Node40&#45;&gt;Node42</title>
<path fill="none" stroke="#191970" d="M1638.689,-130.3375C1663.0047,-116.7207 1694.5577,-99.051 1713.3407,-88.5325"/>
<polygon fill="#191970" stroke="#191970" points="1636.7808,-127.3946 1629.7658,-135.3345 1640.201,-133.5021 1636.7808,-127.3946"/>
</g>
<!-- Node44 -->
<g id="node12" class="node">
<title>Node44</title>
<g id="a_node12"><a xlink:href="../../dc/dba/arteries_2strip__dirichlet_2main_8cpp.html" target="_top" xlink:title="arteries/strip_dirichlet\l/main.cpp">
<polygon fill="#ffffff" stroke="#000000" points="402.9531,-65.5 402.9531,-93.5 513.9873,-93.5 513.9873,-65.5 402.9531,-65.5"/>
<text text-anchor="start" x="410.9531" y="-81.5" font-family="Helvetica,sans-Serif" font-size="10.00" fill="#000000">arteries/strip_dirichlet</text>
<text text-anchor="middle" x="458.4702" y="-71.5" font-family="Helvetica,sans-Serif" font-size="10.00" fill="#000000">/main.cpp</text>
</a>
</g>
</g>
<!-- Node43&#45;&gt;Node44 -->
<g id="edge11" class="edge">
<title>Node43&#45;&gt;Node44</title>
<path fill="none" stroke="#191970" d="M535.7872,-129.6129C518.0835,-118.1382 496.2413,-103.9812 480.2931,-93.6445"/>
<polygon fill="#191970" stroke="#191970" points="534.3196,-132.8325 544.6148,-135.3345 538.1269,-126.9584 534.3196,-132.8325"/>
</g>
<!-- Node46 -->
<g id="node14" class="node">
<title>Node46</title>
<g id="a_node14"><a xlink:href="../../d5/da5/arteries_2boost__gmrf_2gmrf__gauss_2main_8cpp.html" target="_top" xlink:title="arteries/boost_gmrf\l/gmrf_gauss/main.cpp">
<polygon fill="#ffffff" stroke="#000000" points="133.2808,-65.5 133.2808,-93.5 247.6597,-93.5 247.6597,-65.5 133.2808,-65.5"/>
<text text-anchor="start" x="141.2808" y="-81.5" font-family="Helvetica,sans-Serif" font-size="10.00" fill="#000000">arteries/boost_gmrf</text>
<text text-anchor="middle" x="190.4702" y="-71.5" font-family="Helvetica,sans-Serif" font-size="10.00" fill="#000000">/gmrf_gauss/main.cpp</text>
</a>
</g>
</g>
<!-- Node45&#45;&gt;Node46 -->
<g id="edge13" class="edge">
<title>Node45&#45;&gt;Node46</title>
<path fill="none" stroke="#191970" d="M237.6015,-128.0175C226.7506,-116.8475 213.7914,-103.5071 204.2106,-93.6445"/>
<polygon fill="#191970" stroke="#191970" points="235.231,-130.6004 244.7094,-135.3345 240.252,-125.7229 235.231,-130.6004"/>
</g>
<!-- Node47 -->
<g id="node15" class="node">
<title>Node47</title>
<g id="a_node15"><a xlink:href="../../d2/dbe/arteries_2boost__gmrf_2gmrf__nodes_2main_8cpp.html" target="_top" xlink:title="arteries/boost_gmrf\l/gmrf_nodes/main.cpp">
<polygon fill="#ffffff" stroke="#000000" points="0,-65.5 0,-93.5 114.9404,-93.5 114.9404,-65.5 0,-65.5"/>
<text text-anchor="start" x="8" y="-81.5" font-family="Helvetica,sans-Serif" font-size="10.00" fill="#000000">arteries/boost_gmrf</text>
<text text-anchor="middle" x="57.4702" y="-71.5" font-family="Helvetica,sans-Serif" font-size="10.00" fill="#000000">/gmrf_nodes/main.cpp</text>
</a>
</g>
</g>
<!-- Node45&#45;&gt;Node47 -->
<g id="edge14" class="edge">
<title>Node45&#45;&gt;Node47</title>
<path fill="none" stroke="#191970" d="M208.0185,-131.9298C173.9116,-120.0517 129.4784,-104.5775 97.7416,-93.5249"/>
<polygon fill="#191970" stroke="#191970" points="207.2,-135.3508 217.7949,-135.3345 209.5023,-128.7402 207.2,-135.3508"/>
</g>
<!-- Node48 -->
<g id="node16" class="node">
<title>Node48</title>
<g id="a_node16"><a xlink:href="../../da/df3/arteries_2gmrf__neumann_2main_8cpp.html" target="_top" xlink:title="arteries/gmrf_neumann\l/main.cpp">
<polygon fill="#ffffff" stroke="#000000" points="265.7783,-65.5 265.7783,-93.5 385.1621,-93.5 385.1621,-65.5 265.7783,-65.5"/>
<text text-anchor="start" x="273.7783" y="-81.5" font-family="Helvetica,sans-Serif" font-size="10.00" fill="#000000">arteries/gmrf_neumann</text>
<text text-anchor="middle" x="325.4702" y="-71.5" font-family="Helvetica,sans-Serif" font-size="10.00" fill="#000000">/main.cpp</text>
</a>
</g>
</g>
<!-- Node45&#45;&gt;Node48 -->
<g id="edge15" class="edge">
<title>Node45&#45;&gt;Node48</title>
<path fill="none" stroke="#191970" d="M279.032,-128.0175C289.7234,-116.8475 302.492,-103.5071 311.9319,-93.6445"/>
<polygon fill="#191970" stroke="#191970" points="276.4148,-125.6901 272.0287,-135.3345 281.4717,-130.5304 276.4148,-125.6901"/>
</g>
<!-- Node50 -->
<g id="node18" class="node">
<title>Node50</title>
<g id="a_node18"><a xlink:href="../../d5/d58/nrl_2forward__deterministic_2main_8cpp.html" target="_top" xlink:title="nrl/forward_deterministic\l/main.cpp">
<polygon fill="#ffffff" stroke="#000000" points="749.0073,-65.5 749.0073,-93.5 873.9331,-93.5 873.9331,-65.5 749.0073,-65.5"/>
<text text-anchor="start" x="757.0073" y="-81.5" font-family="Helvetica,sans-Serif" font-size="10.00" fill="#000000">nrl/forward_deterministic</text>
<text text-anchor="middle" x="811.4702" y="-71.5" font-family="Helvetica,sans-Serif" font-size="10.00" fill="#000000">/main.cpp</text>
</a>
</g>
</g>
<!-- Node49&#45;&gt;Node50 -->
<g id="edge17" class="edge">
<title>Node49&#45;&gt;Node50</title>
<path fill="none" stroke="#191970" d="M811.4702,-125.0725C811.4702,-114.5646 811.4702,-102.6536 811.4702,-93.6445"/>
<polygon fill="#191970" stroke="#191970" points="807.9703,-125.3344 811.4702,-135.3345 814.9703,-125.3345 807.9703,-125.3344"/>
</g>
<!-- Node51 -->
<g id="node19" class="node">
<title>Node51</title>
<g id="a_node19"><a xlink:href="../../dd/dae/_random_search___deterministic_model_8hpp.html" target="_top" xlink:title="nrl/randomsearch_deterministicmodel\l/RandomSearch_DeterministicModel.hpp">
<polygon fill="#ffffff" stroke="#000000" points="532.3154,-65.5 532.3154,-93.5 730.625,-93.5 730.625,-65.5 532.3154,-65.5"/>
<text text-anchor="start" x="540.3154" y="-81.5" font-family="Helvetica,sans-Serif" font-size="10.00" fill="#000000">nrl/randomsearch_deterministicmodel</text>
<text text-anchor="middle" x="631.4702" y="-71.5" font-family="Helvetica,sans-Serif" font-size="10.00" fill="#000000">/RandomSearch_DeterministicModel.hpp</text>
</a>
</g>
</g>
<!-- Node49&#45;&gt;Node51 -->
<g id="edge18" class="edge">
<title>Node49&#45;&gt;Node51</title>
<path fill="none" stroke="#191970" d="M765.5011,-131.6231C735.0638,-119.7864 695.7112,-104.4826 667.5341,-93.5249"/>
<polygon fill="#191970" stroke="#191970" points="764.4559,-134.9719 775.0445,-135.3345 766.9931,-128.4479 764.4559,-134.9719"/>
</g>
<!-- Node52 -->
<g id="node20" class="node">
<title>Node52</title>
<g id="a_node20"><a xlink:href="../../d5/d17/nrl_2randomsearch__deterministicmodel_2main_8cpp.html" target="_top" xlink:title="nrl/randomsearch_deterministicmodel\l/main.cpp">
<polygon fill="#ffffff" stroke="#000000" points="803.1011,-.5 803.1011,-28.5 985.8394,-28.5 985.8394,-.5 803.1011,-.5"/>
<text text-anchor="start" x="811.1011" y="-16.5" font-family="Helvetica,sans-Serif" font-size="10.00" fill="#000000">nrl/randomsearch_deterministicmodel</text>
<text text-anchor="middle" x="894.4702" y="-6.5" font-family="Helvetica,sans-Serif" font-size="10.00" fill="#000000">/main.cpp</text>
</a>
</g>
</g>
<!-- Node51&#45;&gt;Node52 -->
<g id="edge19" class="edge">
<title>Node51&#45;&gt;Node52</title>
<path fill="none" stroke="#191970" d="M698.0233,-63.0515C741.0197,-52.425 796.3856,-38.7414 837.3753,-28.6109"/>
<polygon fill="#191970" stroke="#191970" points="697.0816,-59.6789 688.2135,-65.476 698.7612,-66.4744 697.0816,-59.6789"/>
</g>
<!-- Node54 -->
<g id="node22" class="node">
<title>Node54</title>
<g id="a_node22"><a xlink:href="../../df/df6/forward_costfunction_8hpp.html" target="_top" xlink:title="nrl/forward_randomfield\l/forwardCostfunction.hpp">
<polygon fill="#ffffff" stroke="#000000" points="1262.8843,-65.5 1262.8843,-93.5 1390.0562,-93.5 1390.0562,-65.5 1262.8843,-65.5"/>
<text text-anchor="start" x="1270.8843" y="-81.5" font-family="Helvetica,sans-Serif" font-size="10.00" fill="#000000">nrl/forward_randomfield</text>
<text text-anchor="middle" x="1326.4702" y="-71.5" font-family="Helvetica,sans-Serif" font-size="10.00" fill="#000000">/forwardCostfunction.hpp</text>
</a>
</g>
</g>
<!-- Node53&#45;&gt;Node54 -->
<g id="edge21" class="edge">
<title>Node53&#45;&gt;Node54</title>
<path fill="none" stroke="#191970" d="M1228.0516,-126.0493C1250.7002,-115.3372 1276.7857,-102.9994 1296.4088,-93.7183"/>
<polygon fill="#191970" stroke="#191970" points="1226.4553,-122.9326 1218.9119,-130.3722 1229.4482,-129.2605 1226.4553,-122.9326"/>
</g>
<!-- Node55 -->
<g id="node23" class="node">
<title>Node55</title>
<g id="a_node23"><a xlink:href="../../db/de3/nrl_2forward__randomfield_2main_8cpp.html" target="_top" xlink:title="nrl/forward_randomfield\l/main.cpp">
<polygon fill="#ffffff" stroke="#000000" points="1265.9458,-.5 1265.9458,-28.5 1386.9946,-28.5 1386.9946,-.5 1265.9458,-.5"/>
<text text-anchor="start" x="1273.9458" y="-16.5" font-family="Helvetica,sans-Serif" font-size="10.00" fill="#000000">nrl/forward_randomfield</text>
<text text-anchor="middle" x="1326.4702" y="-6.5" font-family="Helvetica,sans-Serif" font-size="10.00" fill="#000000">/main.cpp</text>
</a>
</g>
</g>
<!-- Node54&#45;&gt;Node55 -->
<g id="edge22" class="edge">
<title>Node54&#45;&gt;Node55</title>
<path fill="none" stroke="#191970" d="M1326.4702,-55.1081C1326.4702,-46.1539 1326.4702,-36.3227 1326.4702,-28.5765"/>
<polygon fill="#191970" stroke="#191970" points="1322.9703,-55.3959 1326.4702,-65.396 1329.9703,-55.396 1322.9703,-55.3959"/>
</g>
<!-- Node57&#45;&gt;Node39 -->
<g id="edge25" class="edge">
<title>Node57&#45;&gt;Node39</title>
<path fill="none" stroke="#191970" d="M1065.4751,-138.0265C1077.396,-135.1173 1090.3832,-132.1977 1102.4702,-130 1233.2916,-106.214 1268.4985,-116.9438 1399.4702,-94 1402.3445,-93.4965 1405.2849,-92.9457 1408.2481,-92.3624"/>
<polygon fill="#191970" stroke="#191970" points="1064.6107,-134.6348 1055.7556,-140.4518 1066.3054,-141.4266 1064.6107,-134.6348"/>
</g>
<!-- Node57&#45;&gt;Node41 -->
<g id="edge26" class="edge">
<title>Node57&#45;&gt;Node41</title>
<path fill="none" stroke="#191970" d="M1064.4528,-137.9785C1076.6367,-134.9861 1090.0152,-132.0355 1102.4702,-130 1288.6796,-99.5684 1339.0689,-123.2329 1525.4702,-94 1528.3531,-93.5479 1531.3002,-93.038 1534.2688,-92.4869"/>
<polygon fill="#191970" stroke="#191970" points="1063.3831,-134.6388 1054.5458,-140.4829 1065.0987,-141.4253 1063.3831,-134.6388"/>
</g>
<!-- Node57&#45;&gt;Node42 -->
<g id="edge29" class="edge">
<title>Node57&#45;&gt;Node42</title>
<path fill="none" stroke="#191970" d="M1064.105,-137.9022C1076.3746,-134.8791 1089.8856,-131.9314 1102.4702,-130 1344.1644,-92.9067 1408.8431,-124.3986 1651.4702,-94 1662.677,-92.5959 1674.7073,-90.6036 1685.8836,-88.544"/>
<polygon fill="#191970" stroke="#191970" points="1062.9659,-134.5804 1054.138,-140.4387 1064.6923,-141.3642 1062.9659,-134.5804"/>
</g>
<!-- Node57&#45;&gt;Node44 -->
<g id="edge28" class="edge">
<title>Node57&#45;&gt;Node44</title>
<path fill="none" stroke="#191970" d="M954.1287,-139.0208C932.8048,-135.9145 909.1844,-132.6407 887.4702,-130 726.0921,-110.3747 683.9859,-119.7445 523.4702,-94 520.3878,-93.5056 517.2326,-92.9542 514.0542,-92.3634"/>
<polygon fill="#191970" stroke="#191970" points="953.6681,-142.4906 964.0705,-140.4808 954.6852,-135.5649 953.6681,-142.4906"/>
</g>
<!-- Node57&#45;&gt;Node48 -->
<g id="edge27" class="edge">
<title>Node57&#45;&gt;Node48</title>
<path fill="none" stroke="#191970" d="M956.2531,-138.9827C934.3939,-135.7656 909.928,-132.4372 887.4702,-130 668.6174,-106.2496 611.4104,-125.0276 393.4702,-94 390.8411,-93.6257 388.1617,-93.2086 385.46,-92.759"/>
<polygon fill="#191970" stroke="#191970" points="956.0175,-142.4862 966.4242,-140.4988 957.0496,-135.5627 956.0175,-142.4862"/>
</g>
<!-- Node57&#45;&gt;Node50 -->
<g id="edge31" class="edge">
<title>Node57&#45;&gt;Node50</title>
<path fill="none" stroke="#191970" d="M985.4964,-137.2338C948.7251,-125.0348 892.3773,-106.3412 853.8263,-93.5518"/>
<polygon fill="#191970" stroke="#191970" points="984.7242,-140.6651 995.3176,-140.492 986.9284,-134.0212 984.7242,-140.6651"/>
</g>
<!-- Node57&#45;&gt;Node51 -->
<g id="edge34" class="edge">
<title>Node57&#45;&gt;Node51</title>
<path fill="none" stroke="#191970" d="M962.0699,-138.6866C894.3471,-126.5624 784.2979,-106.8604 709.9594,-93.5518"/>
<polygon fill="#191970" stroke="#191970" points="961.6939,-142.1749 972.1543,-140.492 962.9276,-135.2845 961.6939,-142.1749"/>
</g>
<!-- Node57&#45;&gt;Node52 -->
<g id="edge33" class="edge">
<title>Node57&#45;&gt;Node52</title>
<path fill="none" stroke="#191970" d="M1068.0842,-137.8524C1123.6991,-123.4367 1210.917,-100.047 1215.4702,-94 1223.223,-83.7035 1223.846,-74.7964 1215.4702,-65 1200.5998,-47.6072 1075.6367,-31.9759 986.1054,-22.8597"/>
<polygon fill="#191970" stroke="#191970" points="1066.9009,-134.5431 1058.0945,-140.4334 1068.6521,-141.3205 1066.9009,-134.5431"/>
</g>
<!-- Node57&#45;&gt;Node54 -->
<g id="edge32" class="edge">
<title>Node57&#45;&gt;Node54</title>
<path fill="none" stroke="#191970" d="M1068.931,-138.0308C1079.919,-135.3583 1091.6013,-132.5496 1102.4702,-130 1156.418,-117.3449 1217.8205,-103.5443 1262.6776,-93.5731"/>
<polygon fill="#191970" stroke="#191970" points="1067.9633,-134.6641 1059.0784,-140.4354 1069.6231,-141.4645 1067.9633,-134.6641"/>
</g>
<!-- Node58 -->
<g id="node26" class="node">
<title>Node58</title>
<g id="a_node26"><a xlink:href="../../de/de8/example__pnpoly__inverse__isoparam_8cpp.html" target="_top" xlink:title="examples/pnpoly/example\l_pnpoly_inverse_isoparam.cpp">
<polygon fill="#ffffff" stroke="#000000" points="892.2612,-65.5 892.2612,-93.5 1046.6792,-93.5 1046.6792,-65.5 892.2612,-65.5"/>
<text text-anchor="start" x="900.2612" y="-81.5" font-family="Helvetica,sans-Serif" font-size="10.00" fill="#000000">examples/pnpoly/example</text>
<text text-anchor="middle" x="969.4702" y="-71.5" font-family="Helvetica,sans-Serif" font-size="10.00" fill="#000000">_pnpoly_inverse_isoparam.cpp</text>
</a>
</g>
</g>
<!-- Node57&#45;&gt;Node58 -->
<g id="edge30" class="edge">
<title>Node57&#45;&gt;Node58</title>
<path fill="none" stroke="#191970" d="M1009.3319,-132.1475C1000.3779,-120.3214 988.6674,-104.8548 980.2594,-93.7499"/>
<polygon fill="#191970" stroke="#191970" points="1006.7146,-134.4889 1015.5414,-140.3487 1012.2954,-130.2634 1006.7146,-134.4889"/>
</g>
<!-- Node59 -->
<g id="node27" class="node">
<title>Node59</title>
<g id="a_node27"><a xlink:href="../../d5/dc7/_newton___raphsonpp_8cpp.html" target="_top" xlink:title="src/Newton_Raphsonpp.cpp">
<polygon fill="#ffffff" stroke="#000000" points="1064.6553,-70.5 1064.6553,-88.5 1206.2852,-88.5 1206.2852,-70.5 1064.6553,-70.5"/>
<text text-anchor="middle" x="1135.4702" y="-76.5" font-family="Helvetica,sans-Serif" font-size="10.00" fill="#000000">src/Newton_Raphsonpp.cpp</text>
</a>
</g>
</g>
<!-- Node57&#45;&gt;Node59 -->
<g id="edge35" class="edge">
<title>Node57&#45;&gt;Node59</title>
<path fill="none" stroke="#191970" d="M1045.8577,-135.0122C1068.3488,-121.0796 1101.6581,-100.4456 1120.6938,-88.6535"/>
<polygon fill="#191970" stroke="#191970" points="1043.9009,-132.1072 1037.243,-140.3487 1047.5872,-138.0579 1043.9009,-132.1072"/>
</g>
<!-- Node62 -->
<g id="node30" class="node">
<title>Node62</title>
<g id="a_node30"><a xlink:href="../../d4/d89/linearelasticity__setup__pp_8cpp.html" target="_top" xlink:title="src/linearelasticity\l_setup_pp.cpp">
<polygon fill="#ffffff" stroke="#000000" points="1455.0146,-205.5 1455.0146,-233.5 1549.9258,-233.5 1549.9258,-205.5 1455.0146,-205.5"/>
<text text-anchor="start" x="1463.0146" y="-221.5" font-family="Helvetica,sans-Serif" font-size="10.00" fill="#000000">src/linearelasticity</text>
<text text-anchor="middle" x="1502.4702" y="-211.5" font-family="Helvetica,sans-Serif" font-size="10.00" fill="#000000">_setup_pp.cpp</text>
</a>
</g>
</g>
<!-- Node61&#45;&gt;Node62 -->
<g id="edge38" class="edge">
<title>Node61&#45;&gt;Node62</title>
<path fill="none" stroke="#191970" d="M1502.4702,-260.1081C1502.4702,-251.1539 1502.4702,-241.3227 1502.4702,-233.5765"/>
<polygon fill="#191970" stroke="#191970" points="1498.9703,-260.3959 1502.4702,-270.396 1505.9703,-260.396 1498.9703,-260.3959"/>
</g>
<!-- Node63 -->
<g id="node31" class="node">
<title>Node63</title>
<g id="a_node31"><a xlink:href="../../dd/d0f/orthotropic_r_f__laminate_8hpp.html" target="_top" xlink:title="src/orthotropicRF_laminate.hpp">
<polygon fill="#ffffff" stroke="#000000" points="1617.7168,-210.5 1617.7168,-228.5 1773.2236,-228.5 1773.2236,-210.5 1617.7168,-210.5"/>
<text text-anchor="middle" x="1695.4702" y="-216.5" font-family="Helvetica,sans-Serif" font-size="10.00" fill="#000000">src/orthotropicRF_laminate.hpp</text>
</a>
</g>
</g>
<!-- Node61&#45;&gt;Node63 -->
<g id="edge39" class="edge">
<title>Node61&#45;&gt;Node63</title>
<path fill="none" stroke="#191970" d="M1553.938,-267.1663C1590.7982,-254.7522 1638.9579,-238.5326 1668.5265,-228.5743"/>
<polygon fill="#191970" stroke="#191970" points="1552.7082,-263.8872 1544.3483,-270.396 1554.9424,-270.5211 1552.7082,-263.8872"/>
</g>
<!-- Node64 -->
<g id="node32" class="node">
<title>Node64</title>
<g id="a_node32"><a xlink:href="../../d2/ded/asme_2linearelaslam_2main_8cpp.html" target="_top" xlink:title="asme/linearelaslam\l/main.cpp">
<polygon fill="#ffffff" stroke="#000000" points="1694.3965,-135.5 1694.3965,-163.5 1796.5439,-163.5 1796.5439,-135.5 1694.3965,-135.5"/>
<text text-anchor="start" x="1702.3965" y="-151.5" font-family="Helvetica,sans-Serif" font-size="10.00" fill="#000000">asme/linearelaslam</text>
<text text-anchor="middle" x="1745.4702" y="-141.5" font-family="Helvetica,sans-Serif" font-size="10.00" fill="#000000">/main.cpp</text>
</a>
</g>
</g>
<!-- Node63&#45;&gt;Node64 -->
<g id="edge40" class="edge">
<title>Node63&#45;&gt;Node64</title>
<path fill="none" stroke="#191970" d="M1707.8649,-202.1475C1716.3121,-190.3214 1727.3596,-174.8548 1735.2917,-163.7499"/>
<polygon fill="#191970" stroke="#191970" points="1704.9712,-200.177 1702.0068,-210.3487 1710.6673,-204.2457 1704.9712,-200.177"/>
</g>
</g>
</svg>
        <g id="navigator" transform="translate(0 0)" fill="#404254">
                <rect fill="#f2f5e9" fill-opacity="0.5" stroke="#606060" stroke-width=".5" x="0" y="0" width="60" height="60"/>
                <use id="zoomplus" xlink:href="#zoomPlus" x="17" y="9" onmousedown="handleZoom(evt,'in')"/>
                <use id="zoomminus" xlink:href="#zoomMin" x="42" y="9" onmousedown="handleZoom(evt,'out')"/>
                <use id="reset" xlink:href="#resetDef" x="30" y="36" onmousedown="handleReset()"/>
                <g id="arrowUp" xlink:href="#dirArrow" transform="translate(30 24)" onmousedown="handlePan(0,-1)">
                  <use xlink:href="#rim" fill="#404040">
                        <set attributeName="fill" to="#808080" begin="arrowUp.mouseover" end="arrowUp.mouseout"/>
                  </use>
                  <path fill="none" stroke="white" stroke-width="1.5" d="M0,-3.0v7 M-2.5,-0.5L0,-3.0L2.5,-0.5"/>
                </g>
                <g id="arrowRight" xlink:href="#dirArrow" transform="rotate(90) translate(36 -43)" onmousedown="handlePan(1,0)">
                  <use xlink:href="#rim" fill="#404040">
                        <set attributeName="fill" to="#808080" begin="arrowRight.mouseover" end="arrowRight.mouseout"/>
                  </use>
                  <path fill="none" stroke="white" stroke-width="1.5" d="M0,-3.0v7 M-2.5,-0.5L0,-3.0L2.5,-0.5"/>
                </g>
                <g id="arrowDown" xlink:href="#dirArrow" transform="rotate(180) translate(-30 -48)" onmousedown="handlePan(0,1)">
                  <use xlink:href="#rim" fill="#404040">
                        <set attributeName="fill" to="#808080" begin="arrowDown.mouseover" end="arrowDown.mouseout"/>
                  </use>
                  <path fill="none" stroke="white" stroke-width="1.5" d="M0,-3.0v7 M-2.5,-0.5L0,-3.0L2.5,-0.5"/>
                </g>
                <g id="arrowLeft" xlink:href="#dirArrow" transform="rotate(270) translate(-36 17)" onmousedown="handlePan(-1,0)">
                  <use xlink:href="#rim" fill="#404040">
                        <set attributeName="fill" to="#808080" begin="arrowLeft.mouseover" end="arrowLeft.mouseout"/>
                  </use>
                  <path fill="none" stroke="white" stroke-width="1.5" d="M0,-3.0v7 M-2.5,-0.5L0,-3.0L2.5,-0.5"/>
                </g>
        </g>
        <svg viewBox="0 0 15 15" width="100%" height="30px" preserveAspectRatio="xMaxYMin meet">
         <g id="arrow_out" transform="scale(0.3 0.3)">
          <a xlink:href="_linear___finite___element___problem_8hpp__dep__incl_org.svg" target="_base">
           <rect id="button" ry="5" rx="5" y="6" x="6" height="38" width="38"
                fill="#f2f5e9" fill-opacity="0.5" stroke="#606060" stroke-width="1.0"/>
           <path id="arrow"
             d="M 11.500037,31.436501 C 11.940474,20.09759 22.043105,11.32322 32.158766,21.979434 L 37.068811,17.246167 C 37.068811,17.246167 37.088388,32 37.088388,32 L 22.160133,31.978069 C 22.160133,31.978069 26.997745,27.140456 26.997745,27.140456 C 18.528582,18.264221 13.291696,25.230495 11.500037,31.436501 z"
             style="fill:#404040;"/>
          </a>
         </g>
        </svg>
</svg>
