<?xml version="1.0" encoding="UTF-8" standalone="no"?>
<!DOCTYPE svg PUBLIC "-//W3C//DTD SVG 1.1//EN"
 "http://www.w3.org/Graphics/SVG/1.1/DTD/svg11.dtd">
<!-- Generated by graphviz version 2.40.1 (20161225.0304)
 -->
<!-- Title: src/Linear_Finite_Element_Problem.hpp Pages: 1 -->
<svg width="1787pt" height="372pt"
 viewBox="0.00 0.00 1787.22 372.00" xmlns="http://www.w3.org/2000/svg" xmlns:xlink="http://www.w3.org/1999/xlink">
<g id="graph0" class="graph" transform="scale(1 1) rotate(0) translate(4 368)">
<title>src/Linear_Finite_Element_Problem.hpp</title>
<polygon fill="#ffffff" stroke="transparent" points="-4,4 -4,-368 1783.2236,-368 1783.2236,4 -4,4"/>
<!-- Node33 -->
<g id="node1" class="node">
<title>Node33</title>
<polygon fill="#bfbfbf" stroke="#000000" points="1346.3867,-335.5 1346.3867,-363.5 1478.5537,-363.5 1478.5537,-335.5 1346.3867,-335.5"/>
<text text-anchor="start" x="1354.3867" y="-351.5" font-family="Helvetica,sans-Serif" font-size="10.00" fill="#000000">src/Linear_Finite_Element</text>
<text text-anchor="middle" x="1412.4702" y="-341.5" font-family="Helvetica,sans-Serif" font-size="10.00" fill="#000000">_Problem.hpp</text>
</g>
<!-- Node34 -->
<g id="node2" class="node">
<title>Node34</title>
<g id="a_node2"><a xlink:href="../../d5/d3f/laplacepp_8hpp.html" target="_top" xlink:title="src/laplacepp.hpp">
<polygon fill="#ffffff" stroke="#000000" points="1219.2783,-275.5 1219.2783,-293.5 1313.6621,-293.5 1313.6621,-275.5 1219.2783,-275.5"/>
<text text-anchor="middle" x="1266.4702" y="-281.5" font-family="Helvetica,sans-Serif" font-size="10.00" fill="#000000">src/laplacepp.hpp</text>
</a>
</g>
</g>
<!-- Node33&#45;&gt;Node34 -->
<g id="edge1" class="edge">
<title>Node33&#45;&gt;Node34</title>
<path fill="none" stroke="#191970" d="M1371.3839,-331.2082C1343.801,-318.9281 1308.6493,-303.2784 1286.8525,-293.5743"/>
<polygon fill="#191970" stroke="#191970" points="1370.2313,-334.5262 1380.7904,-335.396 1373.0784,-328.1313 1370.2313,-334.5262"/>
</g>
<!-- Node60 -->
<g id="node28" class="node">
<title>Node60</title>
<g id="a_node28"><a xlink:href="../../d4/d4c/linearelasticity__setup__pp_8hpp.html" target="_top" xlink:title="src/linearelasticity\l_setup_pp.hpp">
<polygon fill="#ffffff" stroke="#000000" points="1511.0146,-270.5 1511.0146,-298.5 1605.9258,-298.5 1605.9258,-270.5 1511.0146,-270.5"/>
<text text-anchor="start" x="1519.0146" y="-286.5" font-family="Helvetica,sans-Serif" font-size="10.00" fill="#000000">src/linearelasticity</text>
<text text-anchor="middle" x="1558.4702" y="-276.5" font-family="Helvetica,sans-Serif" font-size="10.00" fill="#000000">_setup_pp.hpp</text>
</a>
</g>
</g>
<!-- Node33&#45;&gt;Node60 -->
<g id="edge37" class="edge">
<title>Node33&#45;&gt;Node60</title>
<path fill="none" stroke="#191970" d="M1453.4205,-331.2687C1476.6746,-320.9159 1505.3423,-308.1528 1526.8522,-298.5765"/>
<polygon fill="#191970" stroke="#191970" points="1451.862,-328.1313 1444.15,-335.396 1454.7091,-334.5262 1451.862,-328.1313"/>
</g>
<!-- Node35 -->
<g id="node3" class="node">
<title>Node35</title>
<g id="a_node3"><a xlink:href="../../d4/d0f/examples_2laplace__aztec_2main_8cpp.html" target="_top" xlink:title="examples/laplace_aztec\l/main.cpp">
<polygon fill="#ffffff" stroke="#000000" points="1205.106,-205.5 1205.106,-233.5 1327.8345,-233.5 1327.8345,-205.5 1205.106,-205.5"/>
<text text-anchor="start" x="1213.106" y="-221.5" font-family="Helvetica,sans-Serif" font-size="10.00" fill="#000000">examples/laplace_aztec</text>
<text text-anchor="middle" x="1266.4702" y="-211.5" font-family="Helvetica,sans-Serif" font-size="10.00" fill="#000000">/main.cpp</text>
</a>
</g>
</g>
<!-- Node34&#45;&gt;Node35 -->
<g id="edge2" class="edge">
<title>Node34&#45;&gt;Node35</title>
<path fill="none" stroke="#191970" d="M1266.4702,-265.2652C1266.4702,-255.2384 1266.4702,-243.1782 1266.4702,-233.9559"/>
<polygon fill="#191970" stroke="#191970" points="1262.9703,-265.462 1266.4702,-275.462 1269.9703,-265.4621 1262.9703,-265.462"/>
</g>
<!-- Node36 -->
<g id="node4" class="node">
<title>Node36</title>
<g id="a_node4"><a xlink:href="../../d8/d16/examples_2laplace__stratimikos_2main_8cpp.html" target="_top" xlink:title="examples/laplace_stratimikos\l/main.cpp">
<polygon fill="#ffffff" stroke="#000000" points="1346.165,-205.5 1346.165,-233.5 1492.7754,-233.5 1492.7754,-205.5 1346.165,-205.5"/>
<text text-anchor="start" x="1354.165" y="-221.5" font-family="Helvetica,sans-Serif" font-size="10.00" fill="#000000">examples/laplace_stratimikos</text>
<text text-anchor="middle" x="1419.4702" y="-211.5" font-family="Helvetica,sans-Serif" font-size="10.00" fill="#000000">/main.cpp</text>
</a>
</g>
</g>
<!-- Node34&#45;&gt;Node36 -->
<g id="edge3" class="edge">
<title>Node34&#45;&gt;Node36</title>
<path fill="none" stroke="#191970" d="M1297.0545,-271.5067C1322.8793,-260.5353 1359.7849,-244.8565 1386.3127,-233.5865"/>
<polygon fill="#191970" stroke="#191970" points="1295.5795,-268.3305 1287.7442,-275.462 1298.3166,-274.7732 1295.5795,-268.3305"/>
</g>
<!-- Node37 -->
<g id="node5" class="node">
<title>Node37</title>
<g id="a_node5"><a xlink:href="../../de/d9d/hyperelasticity__setup__pp_8hpp.html" target="_top" xlink:title="src/hyperelasticity\l_setup_pp.hpp">
<polygon fill="#ffffff" stroke="#000000" points="979.7363,-205.5 979.7363,-233.5 1075.2041,-233.5 1075.2041,-205.5 979.7363,-205.5"/>
<text text-anchor="start" x="987.7363" y="-221.5" font-family="Helvetica,sans-Serif" font-size="10.00" fill="#000000">src/hyperelasticity</text>
<text text-anchor="middle" x="1027.4702" y="-211.5" font-family="Helvetica,sans-Serif" font-size="10.00" fill="#000000">_setup_pp.hpp</text>
</a>
</g>
</g>
<!-- Node34&#45;&gt;Node37 -->
<g id="edge4" class="edge">
<title>Node34&#45;&gt;Node37</title>
<path fill="none" stroke="#191970" d="M1223.3761,-272.7799C1181.6474,-261.431 1118.5109,-244.26 1075.261,-232.4975"/>
<polygon fill="#191970" stroke="#191970" points="1222.6702,-276.2149 1233.2383,-275.462 1224.5073,-269.4603 1222.6702,-276.2149"/>
</g>
<!-- Node59 -->
<g id="node27" class="node">
<title>Node59</title>
<g id="a_node27"><a xlink:href="../../dc/d31/laplacepp_8cpp.html" target="_top" xlink:title="src/laplacepp.cpp">
<polygon fill="#ffffff" stroke="#000000" points="1093.5591,-210.5 1093.5591,-228.5 1187.3813,-228.5 1187.3813,-210.5 1093.5591,-210.5"/>
<text text-anchor="middle" x="1140.4702" y="-216.5" font-family="Helvetica,sans-Serif" font-size="10.00" fill="#000000">src/laplacepp.cpp</text>
</a>
</g>
</g>
<!-- Node34&#45;&gt;Node59 -->
<g id="edge36" class="edge">
<title>Node34&#45;&gt;Node59</title>
<path fill="none" stroke="#191970" d="M1239.8223,-270.7531C1215.2622,-258.0832 1179.4976,-239.6332 1158.2474,-228.6708"/>
<polygon fill="#191970" stroke="#191970" points="1238.4587,-273.9878 1248.9505,-275.462 1241.668,-267.7668 1238.4587,-273.9878"/>
</g>
<!-- Node38 -->
<g id="node6" class="node">
<title>Node38</title>
<g id="a_node6"><a xlink:href="../../d6/db8/_arteries___model_c__deterministic__dirichlet_8hpp.html" target="_top" xlink:title="src/Arteries_ModelC\l_deterministic_dirichlet.hpp">
<polygon fill="#ffffff" stroke="#000000" points="1453.8843,-135.5 1453.8843,-163.5 1591.0562,-163.5 1591.0562,-135.5 1453.8843,-135.5"/>
<text text-anchor="start" x="1461.8843" y="-151.5" font-family="Helvetica,sans-Serif" font-size="10.00" fill="#000000">src/Arteries_ModelC</text>
<text text-anchor="middle" x="1522.4702" y="-141.5" font-family="Helvetica,sans-Serif" font-size="10.00" fill="#000000">_deterministic_dirichlet.hpp</text>
</a>
</g>
</g>
<!-- Node37&#45;&gt;Node38 -->
<g id="edge5" class="edge">
<title>Node37&#45;&gt;Node38</title>
<path fill="none" stroke="#191970" d="M1085.4018,-205.0053C1230.1139,-179.3805 1269.9769,-189.1958 1411.4702,-169 1425.1258,-167.0509 1439.6784,-164.6964 1453.5983,-162.3077"/>
<polygon fill="#191970" stroke="#191970" points="1084.4811,-201.6146 1075.258,-206.8286 1085.7195,-208.5042 1084.4811,-201.6146"/>
</g>
<!-- Node40 -->
<g id="node8" class="node">
<title>Node40</title>
<g id="a_node8"><a xlink:href="../../dd/da4/_arteries___model_c__deterministic__neumann_8hpp.html" target="_top" xlink:title="src/Arteries_ModelC\l_deterministic_neumann.hpp">
<polygon fill="#ffffff" stroke="#000000" points="526.2637,-135.5 526.2637,-163.5 670.6768,-163.5 670.6768,-135.5 526.2637,-135.5"/>
<text text-anchor="start" x="534.2637" y="-151.5" font-family="Helvetica,sans-Serif" font-size="10.00" fill="#000000">src/Arteries_ModelC</text>
<text text-anchor="middle" x="598.4702" y="-141.5" font-family="Helvetica,sans-Serif" font-size="10.00" fill="#000000">_deterministic_neumann.hpp</text>
</a>
</g>
</g>
<!-- Node37&#45;&gt;Node40 -->
<g id="edge7" class="edge">
<title>Node37&#45;&gt;Node40</title>
<path fill="none" stroke="#191970" d="M969.4314,-211.2438C903.7935,-201.7489 793.7691,-185.3563 699.4702,-169 689.7045,-167.3061 679.4261,-165.4302 669.3162,-163.5307"/>
<polygon fill="#191970" stroke="#191970" points="969.1782,-214.7435 979.5755,-212.7074 970.1779,-207.8152 969.1782,-214.7435"/>
</g>
<!-- Node43 -->
<g id="node11" class="node">
<title>Node43</title>
<g id="a_node11"><a xlink:href="../../de/d6d/_arteries___model_c__gmrf__dirichlet_8hpp.html" target="_top" xlink:title="src/Arteries_ModelC\l_gmrf_dirichlet.hpp">
<polygon fill="#ffffff" stroke="#000000" points="708.1797,-135.5 708.1797,-163.5 814.7607,-163.5 814.7607,-135.5 708.1797,-135.5"/>
<text text-anchor="start" x="716.1797" y="-151.5" font-family="Helvetica,sans-Serif" font-size="10.00" fill="#000000">src/Arteries_ModelC</text>
<text text-anchor="middle" x="761.4702" y="-141.5" font-family="Helvetica,sans-Serif" font-size="10.00" fill="#000000">_gmrf_dirichlet.hpp</text>
</a>
</g>
</g>
<!-- Node37&#45;&gt;Node43 -->
<g id="edge10" class="edge">
<title>Node37&#45;&gt;Node43</title>
<path fill="none" stroke="#191970" d="M969.5874,-204.5913C931.0021,-194.6139 879.1693,-181.1361 833.4702,-169 826.8365,-167.2383 819.8635,-165.3703 812.976,-163.5154"/>
<polygon fill="#191970" stroke="#191970" points="969.0427,-208.0654 979.6004,-207.1787 970.7941,-201.288 969.0427,-208.0654"/>
</g>
<!-- Node45 -->
<g id="node13" class="node">
<title>Node45</title>
<g id="a_node13"><a xlink:href="../../dd/d1f/_arteries___model_c__gmrf__neumann_8hpp.html" target="_top" xlink:title="src/Arteries_ModelC\l_gmrf_neumann.hpp">
<polygon fill="#ffffff" stroke="#000000" points="204.3276,-135.5 204.3276,-163.5 312.6128,-163.5 312.6128,-135.5 204.3276,-135.5"/>
<text text-anchor="start" x="212.3276" y="-151.5" font-family="Helvetica,sans-Serif" font-size="10.00" fill="#000000">src/Arteries_ModelC</text>
<text text-anchor="middle" x="258.4702" y="-141.5" font-family="Helvetica,sans-Serif" font-size="10.00" fill="#000000">_gmrf_neumann.hpp</text>
</a>
</g>
</g>
<!-- Node37&#45;&gt;Node45 -->
<g id="edge12" class="edge">
<title>Node37&#45;&gt;Node45</title>
<path fill="none" stroke="#191970" d="M969.6959,-214.241C825.7687,-201.1397 452.7612,-167.1858 312.6895,-154.4354"/>
<polygon fill="#191970" stroke="#191970" points="969.3802,-217.7266 979.6564,-215.1476 970.0149,-210.7554 969.3802,-217.7266"/>
</g>
<!-- Node49 -->
<g id="node17" class="node">
<title>Node49</title>
<g id="a_node17"><a xlink:href="../../df/dc0/_compressible___mooney___transverse___isotropic_8hpp.html" target="_top" xlink:title="src/Compressible_Mooney\l_Transverse_Isotropic.hpp">
<polygon fill="#ffffff" stroke="#000000" points="1268.2808,-135.5 1268.2808,-163.5 1402.6597,-163.5 1402.6597,-135.5 1268.2808,-135.5"/>
<text text-anchor="start" x="1276.2808" y="-151.5" font-family="Helvetica,sans-Serif" font-size="10.00" fill="#000000">src/Compressible_Mooney</text>
<text text-anchor="middle" x="1335.4702" y="-141.5" font-family="Helvetica,sans-Serif" font-size="10.00" fill="#000000">_Transverse_Isotropic.hpp</text>
</a>
</g>
</g>
<!-- Node37&#45;&gt;Node49 -->
<g id="edge16" class="edge">
<title>Node37&#45;&gt;Node49</title>
<path fill="none" stroke="#191970" d="M1085.1697,-204.9054C1163.5262,-187.1542 1185.1235,-186.1744 1259.4702,-169 1266.77,-167.3137 1274.4411,-165.4519 1281.9871,-163.5679"/>
<polygon fill="#191970" stroke="#191970" points="1084.2939,-201.5153 1075.3252,-207.1556 1085.8537,-208.3393 1084.2939,-201.5153"/>
</g>
<!-- Node54 -->
<g id="node22" class="node">
<title>Node54</title>
<g id="a_node22"><a xlink:href="../../d0/d77/_compressible___mooney___transverse___isotropic___random___field_8hpp.html" target="_top" xlink:title="src/Compressible_Mooney\l_Transverse_Isotropic\l_Random_Field.hpp">
<polygon fill="#ffffff" stroke="#000000" points="1002.2808,-130.5 1002.2808,-168.5 1136.6597,-168.5 1136.6597,-130.5 1002.2808,-130.5"/>
<text text-anchor="start" x="1010.2808" y="-156.5" font-family="Helvetica,sans-Serif" font-size="10.00" fill="#000000">src/Compressible_Mooney</text>
<text text-anchor="start" x="1010.2808" y="-146.5" font-family="Helvetica,sans-Serif" font-size="10.00" fill="#000000">_Transverse_Isotropic</text>
<text text-anchor="middle" x="1069.4702" y="-136.5" font-family="Helvetica,sans-Serif" font-size="10.00" fill="#000000">_Random_Field.hpp</text>
</a>
</g>
</g>
<!-- Node37&#45;&gt;Node54 -->
<g id="edge21" class="edge">
<title>Node37&#45;&gt;Node54</title>
<path fill="none" stroke="#191970" d="M1041.2677,-196.5041C1046.6714,-187.498 1052.799,-177.2854 1057.9588,-168.6857"/>
<polygon fill="#191970" stroke="#191970" points="1038.1133,-194.9588 1035.9695,-205.3345 1044.1158,-198.5603 1038.1133,-194.9588"/>
</g>
<!-- Node56 -->
<g id="node24" class="node">
<title>Node56</title>
<g id="a_node24"><a xlink:href="../../d0/d66/hyperelasticity__setup__pp_8cpp.html" target="_top" xlink:title="src/hyperelasticity\l_setup_pp.cpp">
<polygon fill="#ffffff" stroke="#000000" points="1154.7363,-135.5 1154.7363,-163.5 1250.2041,-163.5 1250.2041,-135.5 1154.7363,-135.5"/>
<text text-anchor="start" x="1162.7363" y="-151.5" font-family="Helvetica,sans-Serif" font-size="10.00" fill="#000000">src/hyperelasticity</text>
<text text-anchor="middle" x="1202.4702" y="-141.5" font-family="Helvetica,sans-Serif" font-size="10.00" fill="#000000">_setup_pp.cpp</text>
</a>
</g>
</g>
<!-- Node37&#45;&gt;Node56 -->
<g id="edge23" class="edge">
<title>Node37&#45;&gt;Node56</title>
<path fill="none" stroke="#191970" d="M1072.5473,-201.4692C1102.0853,-189.654 1140.1323,-174.4352 1167.4081,-163.5249"/>
<polygon fill="#191970" stroke="#191970" points="1070.869,-198.3708 1062.8841,-205.3345 1073.4687,-204.8702 1070.869,-198.3708"/>
</g>
<!-- Node57 -->
<g id="node25" class="node">
<title>Node57</title>
<g id="a_node25"><a xlink:href="../../d7/d17/_newton___raphsonpp_8hpp.html" target="_top" xlink:title="src/Newton_Raphsonpp.hpp">
<polygon fill="#ffffff" stroke="#000000" points="842.3745,-140.5 842.3745,-158.5 984.5659,-158.5 984.5659,-140.5 842.3745,-140.5"/>
<text text-anchor="middle" x="913.4702" y="-146.5" font-family="Helvetica,sans-Serif" font-size="10.00" fill="#000000">src/Newton_Raphsonpp.hpp</text>
</a>
</g>
</g>
<!-- Node37&#45;&gt;Node57 -->
<g id="edge24" class="edge">
<title>Node37&#45;&gt;Node57</title>
<path fill="none" stroke="#191970" d="M995.675,-199.9766C973.5806,-186.4099 945.1595,-168.9583 928.1804,-158.5325"/>
<polygon fill="#191970" stroke="#191970" points="994.0475,-203.0844 1004.4006,-205.3345 997.7103,-197.1192 994.0475,-203.0844"/>
</g>
<!-- Node39 -->
<g id="node7" class="node">
<title>Node39</title>
<g id="a_node7"><a xlink:href="../../de/da1/arteries_2deterministic__dirichlet_2main_8cpp.html" target="_top" xlink:title="arteries/deterministic\l_dirichlet/main.cpp">
<polygon fill="#ffffff" stroke="#000000" points="1502.3447,-65.5 1502.3447,-93.5 1610.5957,-93.5 1610.5957,-65.5 1502.3447,-65.5"/>
<text text-anchor="start" x="1510.3447" y="-81.5" font-family="Helvetica,sans-Serif" font-size="10.00" fill="#000000">arteries/deterministic</text>
<text text-anchor="middle" x="1556.4702" y="-71.5" font-family="Helvetica,sans-Serif" font-size="10.00" fill="#000000">_dirichlet/main.cpp</text>
</a>
</g>
</g>
<!-- Node38&#45;&gt;Node39 -->
<g id="edge6" class="edge">
<title>Node38&#45;&gt;Node39</title>
<path fill="none" stroke="#191970" d="M1533.8536,-126.0636C1539.072,-115.3198 1545.086,-102.9381 1549.6,-93.6445"/>
<polygon fill="#191970" stroke="#191970" points="1530.5714,-124.8102 1529.3506,-135.3345 1536.868,-127.8685 1530.5714,-124.8102"/>
</g>
<!-- Node41 -->
<g id="node9" class="node">
<title>Node41</title>
<g id="a_node9"><a xlink:href="../../d9/d81/arteries_2deterministic__neumann_2main_8cpp.html" target="_top" xlink:title="arteries/deterministic\l_neumann/main.cpp">
<polygon fill="#ffffff" stroke="#000000" points="403.3447,-65.5 403.3447,-93.5 511.5957,-93.5 511.5957,-65.5 403.3447,-65.5"/>
<text text-anchor="start" x="411.3447" y="-81.5" font-family="Helvetica,sans-Serif" font-size="10.00" fill="#000000">arteries/deterministic</text>
<text text-anchor="middle" x="457.4702" y="-71.5" font-family="Helvetica,sans-Serif" font-size="10.00" fill="#000000">_neumann/main.cpp</text>
</a>
</g>
</g>
<!-- Node40&#45;&gt;Node41 -->
<g id="edge8" class="edge">
<title>Node40&#45;&gt;Node41</title>
<path fill="none" stroke="#191970" d="M560.934,-130.865C537.402,-119.1824 507.5465,-104.3606 485.9612,-93.6445"/>
<polygon fill="#191970" stroke="#191970" points="559.4234,-134.0226 569.9368,-135.3345 562.5362,-127.7528 559.4234,-134.0226"/>
</g>
<!-- Node42 -->
<g id="node10" class="node">
<title>Node42</title>
<g id="a_node10"><a xlink:href="../../db/db7/arteries_2vonmises_2main_8cpp.html" target="_top" xlink:title="arteries/vonmises/main.cpp">
<polygon fill="#ffffff" stroke="#000000" points="529.6133,-70.5 529.6133,-88.5 667.3271,-88.5 667.3271,-70.5 529.6133,-70.5"/>
<text text-anchor="middle" x="598.4702" y="-76.5" font-family="Helvetica,sans-Serif" font-size="10.00" fill="#000000">arteries/vonmises/main.cpp</text>
</a>
</g>
</g>
<!-- Node40&#45;&gt;Node42 -->
<g id="edge9" class="edge">
<title>Node40&#45;&gt;Node42</title>
<path fill="none" stroke="#191970" d="M598.4702,-125.007C598.4702,-112.4648 598.4702,-97.9386 598.4702,-88.7368"/>
<polygon fill="#191970" stroke="#191970" points="594.9703,-125.3344 598.4702,-135.3345 601.9703,-125.3345 594.9703,-125.3344"/>
</g>
<!-- Node44 -->
<g id="node12" class="node">
<title>Node44</title>
<g id="a_node12"><a xlink:href="../../dc/dba/arteries_2strip__dirichlet_2main_8cpp.html" target="_top" xlink:title="arteries/strip_dirichlet\l/main.cpp">
<polygon fill="#ffffff" stroke="#000000" points="684.9531,-65.5 684.9531,-93.5 795.9873,-93.5 795.9873,-65.5 684.9531,-65.5"/>
<text text-anchor="start" x="692.9531" y="-81.5" font-family="Helvetica,sans-Serif" font-size="10.00" fill="#000000">arteries/strip_dirichlet</text>
<text text-anchor="middle" x="740.4702" y="-71.5" font-family="Helvetica,sans-Serif" font-size="10.00" fill="#000000">/main.cpp</text>
</a>
</g>
</g>
<!-- Node43&#45;&gt;Node44 -->
<g id="edge11" class="edge">
<title>Node43&#45;&gt;Node44</title>
<path fill="none" stroke="#191970" d="M754.3405,-125.7342C751.1404,-115.0674 747.4732,-102.8433 744.7136,-93.6445"/>
<polygon fill="#191970" stroke="#191970" points="750.9946,-126.7619 757.2206,-135.3345 757.6994,-124.7504 750.9946,-126.7619"/>
</g>
<!-- Node46 -->
<g id="node14" class="node">
<title>Node46</title>
<g id="a_node14"><a xlink:href="../../d5/da5/arteries_2boost__gmrf_2gmrf__gauss_2main_8cpp.html" target="_top" xlink:title="arteries/boost_gmrf\l/gmrf_gauss/main.cpp">
<polygon fill="#ffffff" stroke="#000000" points="133.2808,-65.5 133.2808,-93.5 247.6597,-93.5 247.6597,-65.5 133.2808,-65.5"/>
<text text-anchor="start" x="141.2808" y="-81.5" font-family="Helvetica,sans-Serif" font-size="10.00" fill="#000000">arteries/boost_gmrf</text>
<text text-anchor="middle" x="190.4702" y="-71.5" font-family="Helvetica,sans-Serif" font-size="10.00" fill="#000000">/gmrf_gauss/main.cpp</text>
</a>
</g>
</g>
<!-- Node45&#45;&gt;Node46 -->
<g id="edge13" class="edge">
<title>Node45&#45;&gt;Node46</title>
<path fill="none" stroke="#191970" d="M237.6015,-128.0175C226.7506,-116.8475 213.7914,-103.5071 204.2106,-93.6445"/>
<polygon fill="#191970" stroke="#191970" points="235.231,-130.6004 244.7094,-135.3345 240.252,-125.7229 235.231,-130.6004"/>
</g>
<!-- Node47 -->
<g id="node15" class="node">
<title>Node47</title>
<g id="a_node15"><a xlink:href="../../d2/dbe/arteries_2boost__gmrf_2gmrf__nodes_2main_8cpp.html" target="_top" xlink:title="arteries/boost_gmrf\l/gmrf_nodes/main.cpp">
<polygon fill="#ffffff" stroke="#000000" points="0,-65.5 0,-93.5 114.9404,-93.5 114.9404,-65.5 0,-65.5"/>
<text text-anchor="start" x="8" y="-81.5" font-family="Helvetica,sans-Serif" font-size="10.00" fill="#000000">arteries/boost_gmrf</text>
<text text-anchor="middle" x="57.4702" y="-71.5" font-family="Helvetica,sans-Serif" font-size="10.00" fill="#000000">/gmrf_nodes/main.cpp</text>
</a>
</g>
</g>
<!-- Node45&#45;&gt;Node47 -->
<g id="edge14" class="edge">
<title>Node45&#45;&gt;Node47</title>
<path fill="none" stroke="#191970" d="M208.0185,-131.9298C173.9116,-120.0517 129.4784,-104.5775 97.7416,-93.5249"/>
<polygon fill="#191970" stroke="#191970" points="207.2,-135.3508 217.7949,-135.3345 209.5023,-128.7402 207.2,-135.3508"/>
</g>
<!-- Node48 -->
<g id="node16" class="node">
<title>Node48</title>
<g id="a_node16"><a xlink:href="../../da/df3/arteries_2gmrf__neumann_2main_8cpp.html" target="_top" xlink:title="arteries/gmrf_neumann\l/main.cpp">
<polygon fill="#ffffff" stroke="#000000" points="265.7783,-65.5 265.7783,-93.5 385.1621,-93.5 385.1621,-65.5 265.7783,-65.5"/>
<text text-anchor="start" x="273.7783" y="-81.5" font-family="Helvetica,sans-Serif" font-size="10.00" fill="#000000">arteries/gmrf_neumann</text>
<text text-anchor="middle" x="325.4702" y="-71.5" font-family="Helvetica,sans-Serif" font-size="10.00" fill="#000000">/main.cpp</text>
</a>
</g>
</g>
<!-- Node45&#45;&gt;Node48 -->
<g id="edge15" class="edge">
<title>Node45&#45;&gt;Node48</title>
<path fill="none" stroke="#191970" d="M279.032,-128.0175C289.7234,-116.8475 302.492,-103.5071 311.9319,-93.6445"/>
<polygon fill="#191970" stroke="#191970" points="276.4148,-125.6901 272.0287,-135.3345 281.4717,-130.5304 276.4148,-125.6901"/>
</g>
<!-- Node50 -->
<g id="node18" class="node">
<title>Node50</title>
<g id="a_node18"><a xlink:href="../../df/d27/nrl_2deterministic__random__search_2objective_function_8hpp.html" target="_top" xlink:title="nrl/deterministic_random\l_search/objectiveFunction.hpp">
<polygon fill="#ffffff" stroke="#000000" points="1332.6504,-65.5 1332.6504,-93.5 1484.29,-93.5 1484.29,-65.5 1332.6504,-65.5"/>
<text text-anchor="start" x="1340.6504" y="-81.5" font-family="Helvetica,sans-Serif" font-size="10.00" fill="#000000">nrl/deterministic_random</text>
<text text-anchor="middle" x="1408.4702" y="-71.5" font-family="Helvetica,sans-Serif" font-size="10.00" fill="#000000">_search/objectiveFunction.hpp</text>
</a>
</g>
</g>
<!-- Node49&#45;&gt;Node50 -->
<g id="edge17" class="edge">
<title>Node49&#45;&gt;Node50</title>
<path fill="none" stroke="#191970" d="M1357.538,-128.3391C1369.2543,-117.1043 1383.3354,-103.6019 1393.7195,-93.6445"/>
<polygon fill="#191970" stroke="#191970" points="1355.0383,-125.887 1350.2429,-135.3345 1359.8831,-130.9395 1355.0383,-125.887"/>
</g>
<!-- Node53 -->
<g id="node21" class="node">
<title>Node53</title>
<g id="a_node21"><a xlink:href="../../d5/d58/nrl_2forward__deterministic_2main_8cpp.html" target="_top" xlink:title="nrl/forward_deterministic\l/main.cpp">
<polygon fill="#ffffff" stroke="#000000" points="1190.0073,-65.5 1190.0073,-93.5 1314.9331,-93.5 1314.9331,-65.5 1190.0073,-65.5"/>
<text text-anchor="start" x="1198.0073" y="-81.5" font-family="Helvetica,sans-Serif" font-size="10.00" fill="#000000">nrl/forward_deterministic</text>
<text text-anchor="middle" x="1252.4702" y="-71.5" font-family="Helvetica,sans-Serif" font-size="10.00" fill="#000000">/main.cpp</text>
</a>
</g>
</g>
<!-- Node49&#45;&gt;Node53 -->
<g id="edge20" class="edge">
<title>Node49&#45;&gt;Node53</title>
<path fill="none" stroke="#191970" d="M1310.7593,-128.6595C1297.3635,-117.3618 1281.1606,-103.6968 1269.2415,-93.6445"/>
<polygon fill="#191970" stroke="#191970" points="1308.7731,-131.5629 1318.6739,-135.3345 1313.286,-126.2119 1308.7731,-131.5629"/>
</g>
<!-- Node51 -->
<g id="node19" class="node">
<title>Node51</title>
<g id="a_node19"><a xlink:href="../../de/de8/example__pnpoly__inverse__isoparam_8cpp.html" target="_top" xlink:title="examples/pnpoly/example\l_pnpoly_inverse_isoparam.cpp">
<polygon fill="#ffffff" stroke="#000000" points="960.2612,-.5 960.2612,-28.5 1114.6792,-28.5 1114.6792,-.5 960.2612,-.5"/>
<text text-anchor="start" x="968.2612" y="-16.5" font-family="Helvetica,sans-Serif" font-size="10.00" fill="#000000">examples/pnpoly/example</text>
<text text-anchor="middle" x="1037.4702" y="-6.5" font-family="Helvetica,sans-Serif" font-size="10.00" fill="#000000">_pnpoly_inverse_isoparam.cpp</text>
</a>
</g>
</g>
<!-- Node50&#45;&gt;Node51 -->
<g id="edge18" class="edge">
<title>Node50&#45;&gt;Node51</title>
<path fill="none" stroke="#191970" d="M1322.6255,-64.4598C1259.9158,-53.473 1175.5966,-38.7 1114.9361,-28.0722"/>
<polygon fill="#191970" stroke="#191970" points="1322.0436,-67.9111 1332.4976,-66.1894 1323.2516,-61.0161 1322.0436,-67.9111"/>
</g>
<!-- Node52 -->
<g id="node20" class="node">
<title>Node52</title>
<g id="a_node20"><a xlink:href="../../d8/dc8/nrl_2deterministic__random__search_2main_8cpp.html" target="_top" xlink:title="nrl/deterministic_random\l_search/main.cpp">
<polygon fill="#ffffff" stroke="#000000" points="1152.7266,-.5 1152.7266,-28.5 1278.2139,-28.5 1278.2139,-.5 1152.7266,-.5"/>
<text text-anchor="start" x="1160.7266" y="-16.5" font-family="Helvetica,sans-Serif" font-size="10.00" fill="#000000">nrl/deterministic_random</text>
<text text-anchor="middle" x="1215.4702" y="-6.5" font-family="Helvetica,sans-Serif" font-size="10.00" fill="#000000">_search/main.cpp</text>
</a>
</g>
</g>
<!-- Node50&#45;&gt;Node52 -->
<g id="edge19" class="edge">
<title>Node50&#45;&gt;Node52</title>
<path fill="none" stroke="#191970" d="M1356.7809,-62.0917C1325.6252,-51.5988 1286.4592,-38.4082 1257.2666,-28.5765"/>
<polygon fill="#191970" stroke="#191970" points="1355.998,-65.5211 1366.5921,-65.396 1358.2322,-58.8872 1355.998,-65.5211"/>
</g>
<!-- Node55 -->
<g id="node23" class="node">
<title>Node55</title>
<g id="a_node23"><a xlink:href="../../db/de3/nrl_2forward__randomfield_2main_8cpp.html" target="_top" xlink:title="nrl/forward_randomfield\l/main.cpp">
<polygon fill="#ffffff" stroke="#000000" points="1050.9458,-65.5 1050.9458,-93.5 1171.9946,-93.5 1171.9946,-65.5 1050.9458,-65.5"/>
<text text-anchor="start" x="1058.9458" y="-81.5" font-family="Helvetica,sans-Serif" font-size="10.00" fill="#000000">nrl/forward_randomfield</text>
<text text-anchor="middle" x="1111.4702" y="-71.5" font-family="Helvetica,sans-Serif" font-size="10.00" fill="#000000">/main.cpp</text>
</a>
</g>
</g>
<!-- Node54&#45;&gt;Node55 -->
<g id="edge22" class="edge">
<title>Node54&#45;&gt;Node55</title>
<path fill="none" stroke="#191970" d="M1086.207,-121.6053C1091.8925,-112.1295 1098.0133,-101.9282 1102.806,-93.9404"/>
<polygon fill="#191970" stroke="#191970" points="1083.0907,-119.9965 1080.9469,-130.3722 1089.0931,-123.598 1083.0907,-119.9965"/>
</g>
<!-- Node57&#45;&gt;Node39 -->
<g id="edge25" class="edge">
<title>Node57&#45;&gt;Node39</title>
<path fill="none" stroke="#191970" d="M955.1129,-137.9535C967.3827,-134.9316 980.8918,-131.9716 993.4702,-130 1213.5801,-95.4984 1273.1429,-127.0846 1493.4702,-94 1496.356,-93.5667 1499.3054,-93.0718 1502.2758,-92.5323"/>
<polygon fill="#191970" stroke="#191970" points="953.9754,-134.6312 945.1454,-140.4862 955.6994,-141.4157 953.9754,-134.6312"/>
</g>
<!-- Node57&#45;&gt;Node41 -->
<g id="edge26" class="edge">
<title>Node57&#45;&gt;Node41</title>
<path fill="none" stroke="#191970" d="M865.4585,-138.2129C851.9294,-135.2736 837.1664,-132.2921 823.4702,-130 689.7164,-107.6164 654.0775,-117.2426 520.4702,-94 517.5953,-93.4999 514.6545,-92.9518 511.6909,-92.3706"/>
<polygon fill="#191970" stroke="#191970" points="865.0058,-141.6973 875.5257,-140.4402 866.518,-134.8626 865.0058,-141.6973"/>
</g>
<!-- Node57&#45;&gt;Node42 -->
<g id="edge29" class="edge">
<title>Node57&#45;&gt;Node42</title>
<path fill="none" stroke="#191970" d="M862.9555,-138.2745C800.7637,-124.4541 696.3668,-101.2548 639.0997,-88.5288"/>
<polygon fill="#191970" stroke="#191970" points="862.4132,-141.7393 872.9343,-140.492 863.9318,-134.906 862.4132,-141.7393"/>
</g>
<!-- Node57&#45;&gt;Node44 -->
<g id="edge28" class="edge">
<title>Node57&#45;&gt;Node44</title>
<path fill="none" stroke="#191970" d="M881.5952,-136.6026C851.431,-124.3974 806.2661,-106.1226 775.1982,-93.5518"/>
<polygon fill="#191970" stroke="#191970" points="880.6249,-139.9856 891.2077,-140.492 883.2505,-133.4967 880.6249,-139.9856"/>
</g>
<!-- Node57&#45;&gt;Node48 -->
<g id="edge27" class="edge">
<title>Node57&#45;&gt;Node48</title>
<path fill="none" stroke="#191970" d="M867.0282,-138.2347C853.0915,-135.1803 837.7203,-132.1325 823.4702,-130 634.2405,-101.6824 583.7873,-121.7273 394.4702,-94 391.4423,-93.5565 388.3478,-93.0614 385.2285,-92.5289"/>
<polygon fill="#191970" stroke="#191970" points="866.3625,-141.6723 876.8862,-140.4469 867.8953,-134.8421 866.3625,-141.6723"/>
</g>
<!-- Node57&#45;&gt;Node50 -->
<g id="edge32" class="edge">
<title>Node57&#45;&gt;Node50</title>
<path fill="none" stroke="#191970" d="M956.1332,-138.0101C968.1425,-135.0739 981.2602,-132.1447 993.4702,-130 1138.7824,-104.4762 1177.3525,-114.4141 1323.4702,-94 1326.4354,-93.5857 1329.4561,-93.1477 1332.5056,-92.6921"/>
<polygon fill="#191970" stroke="#191970" points="955.1998,-134.6357 946.3502,-140.4611 956.901,-141.4259 955.1998,-134.6357"/>
</g>
<!-- Node57&#45;&gt;Node51 -->
<g id="edge30" class="edge">
<title>Node57&#45;&gt;Node51</title>
<path fill="none" stroke="#191970" d="M886.9698,-135.1212C859.7771,-118.4973 824.0006,-90.1865 843.4702,-65 858.0506,-46.1384 912.5855,-33.0018 960.1354,-24.8645"/>
<polygon fill="#191970" stroke="#191970" points="885.3749,-138.2435 895.7704,-140.2895 888.9197,-132.2074 885.3749,-138.2435"/>
</g>
<!-- Node57&#45;&gt;Node52 -->
<g id="edge31" class="edge">
<title>Node57&#45;&gt;Node52</title>
<path fill="none" stroke="#191970" d="M938.0043,-135.2665C956.3392,-124.4155 981.8584,-108.8562 1003.4702,-94 1020.9779,-81.965 1022.5015,-74.568 1041.4702,-65 1076.4353,-47.3633 1118.545,-34.937 1152.5803,-26.8246"/>
<polygon fill="#191970" stroke="#191970" points="936.2265,-132.2515 929.38,-140.337 939.7744,-138.2859 936.2265,-132.2515"/>
</g>
<!-- Node57&#45;&gt;Node53 -->
<g id="edge33" class="edge">
<title>Node57&#45;&gt;Node53</title>
<path fill="none" stroke="#191970" d="M958.5604,-138.0925C969.9282,-135.3314 982.1259,-132.4671 993.4702,-130 1076.6007,-111.921 1098.0143,-110.5117 1181.4702,-94 1184.1854,-93.4628 1186.9582,-92.9109 1189.7588,-92.3507"/>
<polygon fill="#191970" stroke="#191970" points="957.7048,-134.6985 948.8263,-140.4797 959.3722,-141.497 957.7048,-134.6985"/>
</g>
<!-- Node57&#45;&gt;Node55 -->
<g id="edge34" class="edge">
<title>Node57&#45;&gt;Node55</title>
<path fill="none" stroke="#191970" d="M948.6094,-137.0771C983.1235,-124.8751 1035.7025,-106.2866 1071.7238,-93.5518"/>
<polygon fill="#191970" stroke="#191970" points="947.2114,-133.8589 938.9499,-140.492 949.5447,-140.4586 947.2114,-133.8589"/>
</g>
<!-- Node58 -->
<g id="node26" class="node">
<title>Node58</title>
<g id="a_node26"><a xlink:href="../../d5/dc7/_newton___raphsonpp_8cpp.html" target="_top" xlink:title="src/Newton_Raphsonpp.cpp">
<polygon fill="#ffffff" stroke="#000000" points="852.6553,-70.5 852.6553,-88.5 994.2852,-88.5 994.2852,-70.5 852.6553,-70.5"/>
<text text-anchor="middle" x="923.4702" y="-76.5" font-family="Helvetica,sans-Serif" font-size="10.00" fill="#000000">src/Newton_Raphsonpp.cpp</text>
</a>
</g>
</g>
<!-- Node57&#45;&gt;Node58 -->
<g id="edge35" class="edge">
<title>Node57&#45;&gt;Node58</title>
<path fill="none" stroke="#191970" d="M916.2268,-130.2039C918.1483,-116.7531 920.6276,-99.3986 922.1307,-88.8769"/>
<polygon fill="#191970" stroke="#191970" points="912.727,-129.9542 914.7775,-140.3487 919.6567,-130.9442 912.727,-129.9542"/>
</g>
<!-- Node61 -->
<g id="node29" class="node">
<title>Node61</title>
<g id="a_node29"><a xlink:href="../../d4/d89/linearelasticity__setup__pp_8cpp.html" target="_top" xlink:title="src/linearelasticity\l_setup_pp.cpp">
<polygon fill="#ffffff" stroke="#000000" points="1511.0146,-205.5 1511.0146,-233.5 1605.9258,-233.5 1605.9258,-205.5 1511.0146,-205.5"/>
<text text-anchor="start" x="1519.0146" y="-221.5" font-family="Helvetica,sans-Serif" font-size="10.00" fill="#000000">src/linearelasticity</text>
<text text-anchor="middle" x="1558.4702" y="-211.5" font-family="Helvetica,sans-Serif" font-size="10.00" fill="#000000">_setup_pp.cpp</text>
</a>
</g>
</g>
<!-- Node60&#45;&gt;Node61 -->
<g id="edge38" class="edge">
<title>Node60&#45;&gt;Node61</title>
<path fill="none" stroke="#191970" d="M1558.4702,-260.1081C1558.4702,-251.1539 1558.4702,-241.3227 1558.4702,-233.5765"/>
<polygon fill="#191970" stroke="#191970" points="1554.9703,-260.3959 1558.4702,-270.396 1561.9703,-260.396 1554.9703,-260.3959"/>
</g>
<!-- Node62 -->
<g id="node30" class="node">
<title>Node62</title>
<g id="a_node30"><a xlink:href="../../dd/d0f/orthotropic_r_f__laminate_8hpp.html" target="_top" xlink:title="src/orthotropicRF_laminate.hpp">
<polygon fill="#ffffff" stroke="#000000" points="1623.7168,-210.5 1623.7168,-228.5 1779.2236,-228.5 1779.2236,-210.5 1623.7168,-210.5"/>
<text text-anchor="middle" x="1701.4702" y="-216.5" font-family="Helvetica,sans-Serif" font-size="10.00" fill="#000000">src/orthotropicRF_laminate.hpp</text>
</a>
</g>
</g>
<!-- Node60&#45;&gt;Node62 -->
<g id="edge39" class="edge">
<title>Node60&#45;&gt;Node62</title>
<path fill="none" stroke="#191970" d="M1598.7123,-266.2082C1625.7284,-253.9281 1660.1578,-238.2784 1681.5067,-228.5743"/>
<polygon fill="#191970" stroke="#191970" points="1597.1544,-263.0716 1589.4991,-270.396 1600.0511,-269.4442 1597.1544,-263.0716"/>
</g>
<!-- Node63 -->
<g id="node31" class="node">
<title>Node63</title>
<g id="a_node31"><a xlink:href="../../d2/ded/asme_2linearelaslam_2main_8cpp.html" target="_top" xlink:title="asme/linearelaslam\l/main.cpp">
<polygon fill="#ffffff" stroke="#000000" points="1650.3965,-135.5 1650.3965,-163.5 1752.5439,-163.5 1752.5439,-135.5 1650.3965,-135.5"/>
<text text-anchor="start" x="1658.3965" y="-151.5" font-family="Helvetica,sans-Serif" font-size="10.00" fill="#000000">asme/linearelaslam</text>
<text text-anchor="middle" x="1701.4702" y="-141.5" font-family="Helvetica,sans-Serif" font-size="10.00" fill="#000000">/main.cpp</text>
</a>
</g>
</g>
<!-- Node62&#45;&gt;Node63 -->
<g id="edge40" class="edge">
<title>Node62&#45;&gt;Node63</title>
<path fill="none" stroke="#191970" d="M1701.4702,-200.0243C1701.4702,-188.5169 1701.4702,-174.2016 1701.4702,-163.7499"/>
<polygon fill="#191970" stroke="#191970" points="1697.9703,-200.3487 1701.4702,-210.3487 1704.9703,-200.3488 1697.9703,-200.3487"/>
</g>
</g>
</svg>
