<?xml version="1.0" encoding="UTF-8" standalone="no"?>
<!DOCTYPE svg PUBLIC "-//W3C//DTD SVG 1.1//EN"
 "http://www.w3.org/Graphics/SVG/1.1/DTD/svg11.dtd">
<!-- Generated by graphviz version 2.40.1 (20161225.0304)
 -->
<!-- Title: src/Linear_Finite_Element_Problem.hpp Pages: 1 -->
<svg width="2061pt" height="382pt"
 viewBox="0.00 0.00 2060.78 382.00" xmlns="http://www.w3.org/2000/svg" xmlns:xlink="http://www.w3.org/1999/xlink">
<g id="graph0" class="graph" transform="scale(1 1) rotate(0) translate(4 378)">
<title>src/Linear_Finite_Element_Problem.hpp</title>
<polygon fill="#ffffff" stroke="transparent" points="-4,4 -4,-378 2056.7754,-378 2056.7754,4 -4,4"/>
<!-- Node33 -->
<g id="node1" class="node">
<title>Node33</title>
<polygon fill="#bfbfbf" stroke="#000000" points="613.2217,-345.5 613.2217,-373.5 745.3887,-373.5 745.3887,-345.5 613.2217,-345.5"/>
<text text-anchor="start" x="621.2217" y="-361.5" font-family="Helvetica,sans-Serif" font-size="10.00" fill="#000000">src/Linear_Finite_Element</text>
<text text-anchor="middle" x="679.3052" y="-351.5" font-family="Helvetica,sans-Serif" font-size="10.00" fill="#000000">_Problem.hpp</text>
</g>
<!-- Node34 -->
<g id="node2" class="node">
<title>Node34</title>
<g id="a_node2"><a xlink:href="../../d5/d3f/laplacepp_8hpp.html" target="_top" xlink:title="src/laplacepp.hpp">
<polygon fill="#ffffff" stroke="#000000" points="505.1133,-285.5 505.1133,-303.5 599.4971,-303.5 599.4971,-285.5 505.1133,-285.5"/>
<text text-anchor="middle" x="552.3052" y="-291.5" font-family="Helvetica,sans-Serif" font-size="10.00" fill="#000000">src/laplacepp.hpp</text>
</a>
</g>
</g>
<!-- Node33&#45;&gt;Node34 -->
<g id="edge1" class="edge">
<title>Node33&#45;&gt;Node34</title>
<path fill="none" stroke="#191970" d="M642.6194,-340.7238C618.7732,-328.5191 588.7469,-313.1513 570.035,-303.5743"/>
<polygon fill="#191970" stroke="#191970" points="641.2516,-343.9555 651.7481,-345.396 644.4409,-337.7242 641.2516,-343.9555"/>
</g>
<!-- Node63 -->
<g id="node31" class="node">
<title>Node63</title>
<g id="a_node31"><a xlink:href="../../d4/d4c/linearelasticity__setup__pp_8hpp.html" target="_top" xlink:title="src/linearelasticity\l_setup_pp.hpp">
<polygon fill="#ffffff" stroke="#000000" points="1343.8496,-280.5 1343.8496,-308.5 1438.7607,-308.5 1438.7607,-280.5 1343.8496,-280.5"/>
<text text-anchor="start" x="1351.8496" y="-296.5" font-family="Helvetica,sans-Serif" font-size="10.00" fill="#000000">src/linearelasticity</text>
<text text-anchor="middle" x="1391.3052" y="-286.5" font-family="Helvetica,sans-Serif" font-size="10.00" fill="#000000">_setup_pp.hpp</text>
</a>
</g>
</g>
<!-- Node33&#45;&gt;Node63 -->
<g id="edge44" class="edge">
<title>Node33&#45;&gt;Node63</title>
<path fill="none" stroke="#191970" d="M755.9692,-352.5012C903.5032,-339.0325 1222.9882,-309.866 1343.7645,-298.8401"/>
<polygon fill="#191970" stroke="#191970" points="755.2894,-349.0486 745.649,-353.4433 755.9259,-356.0196 755.2894,-349.0486"/>
</g>
<!-- Node35 -->
<g id="node3" class="node">
<title>Node35</title>
<g id="a_node3"><a xlink:href="../../d5/d35/arteries_2deterministic__neumann__stratimikos_2main_8cpp.html" target="_top" xlink:title="arteries/deterministic\l_neumann_stratimikos/main.cpp">
<polygon fill="#ffffff" stroke="#000000" points="76.3252,-70.5 76.3252,-98.5 236.2852,-98.5 236.2852,-70.5 76.3252,-70.5"/>
<text text-anchor="start" x="84.3252" y="-86.5" font-family="Helvetica,sans-Serif" font-size="10.00" fill="#000000">arteries/deterministic</text>
<text text-anchor="middle" x="156.3052" y="-76.5" font-family="Helvetica,sans-Serif" font-size="10.00" fill="#000000">_neumann_stratimikos/main.cpp</text>
</a>
</g>
</g>
<!-- Node34&#45;&gt;Node35 -->
<g id="edge2" class="edge">
<title>Node34&#45;&gt;Node35</title>
<path fill="none" stroke="#191970" d="M520.9346,-281.3669C473.4024,-261.1272 380.6878,-220.3096 305.3052,-179 258.0264,-153.0913 205.3302,-118.141 177.0121,-98.8273"/>
<polygon fill="#191970" stroke="#191970" points="519.7962,-284.6858 530.3692,-285.3663 522.5283,-278.2409 519.7962,-284.6858"/>
</g>
<!-- Node36 -->
<g id="node4" class="node">
<title>Node36</title>
<g id="a_node4"><a xlink:href="../../d4/d0f/examples_2laplace__aztec_2main_8cpp.html" target="_top" xlink:title="examples/laplace_aztec\l/main.cpp">
<polygon fill="#ffffff" stroke="#000000" points="803.9409,-215.5 803.9409,-243.5 926.6694,-243.5 926.6694,-215.5 803.9409,-215.5"/>
<text text-anchor="start" x="811.9409" y="-231.5" font-family="Helvetica,sans-Serif" font-size="10.00" fill="#000000">examples/laplace_aztec</text>
<text text-anchor="middle" x="865.3052" y="-221.5" font-family="Helvetica,sans-Serif" font-size="10.00" fill="#000000">/main.cpp</text>
</a>
</g>
</g>
<!-- Node34&#45;&gt;Node36 -->
<g id="edge3" class="edge">
<title>Node34&#45;&gt;Node36</title>
<path fill="none" stroke="#191970" d="M605.7172,-283.408C660.6636,-271.9975 746.1475,-254.2452 803.8632,-242.2595"/>
<polygon fill="#191970" stroke="#191970" points="604.9059,-280.0018 595.8265,-285.462 606.3293,-286.8555 604.9059,-280.0018"/>
</g>
<!-- Node37 -->
<g id="node5" class="node">
<title>Node37</title>
<g id="a_node5"><a xlink:href="../../d8/d16/examples_2laplace__stratimikos_2main_8cpp.html" target="_top" xlink:title="examples/laplace_stratimikos\l/main.cpp">
<polygon fill="#ffffff" stroke="#000000" points="0,-215.5 0,-243.5 146.6104,-243.5 146.6104,-215.5 0,-215.5"/>
<text text-anchor="start" x="8" y="-231.5" font-family="Helvetica,sans-Serif" font-size="10.00" fill="#000000">examples/laplace_stratimikos</text>
<text text-anchor="middle" x="73.3052" y="-221.5" font-family="Helvetica,sans-Serif" font-size="10.00" fill="#000000">/main.cpp</text>
</a>
</g>
</g>
<!-- Node34&#45;&gt;Node37 -->
<g id="edge4" class="edge">
<title>Node34&#45;&gt;Node37</title>
<path fill="none" stroke="#191970" d="M494.8233,-288.0742C417.5007,-279.2282 275.7723,-262.302 155.3052,-244 152.5895,-243.5874 149.8253,-243.1562 147.0346,-242.7114"/>
<polygon fill="#191970" stroke="#191970" points="494.5088,-291.561 504.8409,-289.2163 495.3017,-284.606 494.5088,-291.561"/>
</g>
<!-- Node38 -->
<g id="node6" class="node">
<title>Node38</title>
<g id="a_node6"><a xlink:href="../../de/d9d/hyperelasticity__setup__pp_8hpp.html" target="_top" xlink:title="src/hyperelasticity\l_setup_pp.hpp">
<polygon fill="#ffffff" stroke="#000000" points="690.5713,-215.5 690.5713,-243.5 786.0391,-243.5 786.0391,-215.5 690.5713,-215.5"/>
<text text-anchor="start" x="698.5713" y="-231.5" font-family="Helvetica,sans-Serif" font-size="10.00" fill="#000000">src/hyperelasticity</text>
<text text-anchor="middle" x="738.3052" y="-221.5" font-family="Helvetica,sans-Serif" font-size="10.00" fill="#000000">_setup_pp.hpp</text>
</a>
</g>
</g>
<!-- Node34&#45;&gt;Node38 -->
<g id="edge5" class="edge">
<title>Node34&#45;&gt;Node38</title>
<path fill="none" stroke="#191970" d="M587.8392,-282.0822C619.2959,-271.0893 665.1783,-255.0551 697.9961,-243.5865"/>
<polygon fill="#191970" stroke="#191970" points="586.4532,-278.8589 578.1677,-285.462 588.7625,-285.467 586.4532,-278.8589"/>
</g>
<!-- Node62 -->
<g id="node30" class="node">
<title>Node62</title>
<g id="a_node30"><a xlink:href="../../dc/d31/laplacepp_8cpp.html" target="_top" xlink:title="src/laplacepp.cpp">
<polygon fill="#ffffff" stroke="#000000" points="164.394,-220.5 164.394,-238.5 258.2163,-238.5 258.2163,-220.5 164.394,-220.5"/>
<text text-anchor="middle" x="211.3052" y="-226.5" font-family="Helvetica,sans-Serif" font-size="10.00" fill="#000000">src/laplacepp.cpp</text>
</a>
</g>
</g>
<!-- Node34&#45;&gt;Node62 -->
<g id="edge43" class="edge">
<title>Node34&#45;&gt;Node62</title>
<path fill="none" stroke="#191970" d="M494.8833,-285.0926C438.1582,-275.5762 349.0045,-260.0199 272.3052,-244 264.4202,-242.3531 255.9967,-240.4467 248.0049,-238.5685"/>
<polygon fill="#191970" stroke="#191970" points="494.6473,-288.6016 505.0875,-286.798 495.8012,-281.6974 494.6473,-288.6016"/>
</g>
<!-- Node39 -->
<g id="node7" class="node">
<title>Node39</title>
<g id="a_node7"><a xlink:href="../../d6/db8/_arteries___model_c__deterministic__dirichlet_8hpp.html" target="_top" xlink:title="src/Arteries_ModelC\l_deterministic_dirichlet.hpp">
<polygon fill="#ffffff" stroke="#000000" points="590.7192,-145.5 590.7192,-173.5 727.8911,-173.5 727.8911,-145.5 590.7192,-145.5"/>
<text text-anchor="start" x="598.7192" y="-161.5" font-family="Helvetica,sans-Serif" font-size="10.00" fill="#000000">src/Arteries_ModelC</text>
<text text-anchor="middle" x="659.3052" y="-151.5" font-family="Helvetica,sans-Serif" font-size="10.00" fill="#000000">_deterministic_dirichlet.hpp</text>
</a>
</g>
</g>
<!-- Node38&#45;&gt;Node39 -->
<g id="edge6" class="edge">
<title>Node38&#45;&gt;Node39</title>
<path fill="none" stroke="#191970" d="M714.7852,-208.6595C702.035,-197.3618 686.6129,-183.6968 675.2682,-173.6445"/>
<polygon fill="#191970" stroke="#191970" points="712.5126,-211.3221 722.3183,-215.3345 717.1549,-206.083 712.5126,-211.3221"/>
</g>
<!-- Node41 -->
<g id="node9" class="node">
<title>Node41</title>
<g id="a_node9"><a xlink:href="../../dd/da4/_arteries___model_c__deterministic__neumann_8hpp.html" target="_top" xlink:title="src/Arteries_ModelC\l_deterministic_neumann.hpp">
<polygon fill="#ffffff" stroke="#000000" points="428.0986,-145.5 428.0986,-173.5 572.5117,-173.5 572.5117,-145.5 428.0986,-145.5"/>
<text text-anchor="start" x="436.0986" y="-161.5" font-family="Helvetica,sans-Serif" font-size="10.00" fill="#000000">src/Arteries_ModelC</text>
<text text-anchor="middle" x="500.3052" y="-151.5" font-family="Helvetica,sans-Serif" font-size="10.00" fill="#000000">_deterministic_neumann.hpp</text>
</a>
</g>
</g>
<!-- Node38&#45;&gt;Node41 -->
<g id="edge8" class="edge">
<title>Node38&#45;&gt;Node41</title>
<path fill="none" stroke="#191970" d="M680.668,-212.5479C640.0617,-200.6049 586.3322,-184.8021 548.1052,-173.5588"/>
<polygon fill="#191970" stroke="#191970" points="679.8474,-215.9547 690.4286,-215.4187 681.8226,-209.2391 679.8474,-215.9547"/>
</g>
<!-- Node44 -->
<g id="node12" class="node">
<title>Node44</title>
<g id="a_node12"><a xlink:href="../../de/d6d/_arteries___model_c__gmrf__dirichlet_8hpp.html" target="_top" xlink:title="src/Arteries_ModelC\l_gmrf_dirichlet.hpp">
<polygon fill="#ffffff" stroke="#000000" points="906.0146,-145.5 906.0146,-173.5 1012.5957,-173.5 1012.5957,-145.5 906.0146,-145.5"/>
<text text-anchor="start" x="914.0146" y="-161.5" font-family="Helvetica,sans-Serif" font-size="10.00" fill="#000000">src/Arteries_ModelC</text>
<text text-anchor="middle" x="959.3052" y="-151.5" font-family="Helvetica,sans-Serif" font-size="10.00" fill="#000000">_gmrf_dirichlet.hpp</text>
</a>
</g>
</g>
<!-- Node38&#45;&gt;Node44 -->
<g id="edge12" class="edge">
<title>Node38&#45;&gt;Node44</title>
<path fill="none" stroke="#191970" d="M792.5443,-212.3202C830.1636,-200.4046 879.648,-184.7308 914.9194,-173.5588"/>
<polygon fill="#191970" stroke="#191970" points="791.2383,-209.0624 782.762,-215.4187 793.3521,-215.7356 791.2383,-209.0624"/>
</g>
<!-- Node46 -->
<g id="node14" class="node">
<title>Node46</title>
<g id="a_node14"><a xlink:href="../../dd/d1f/_arteries___model_c__gmrf__neumann_8hpp.html" target="_top" xlink:title="src/Arteries_ModelC\l_gmrf_neumann.hpp">
<polygon fill="#ffffff" stroke="#000000" points="1673.1626,-145.5 1673.1626,-173.5 1781.4478,-173.5 1781.4478,-145.5 1673.1626,-145.5"/>
<text text-anchor="start" x="1681.1626" y="-161.5" font-family="Helvetica,sans-Serif" font-size="10.00" fill="#000000">src/Arteries_ModelC</text>
<text text-anchor="middle" x="1727.3052" y="-151.5" font-family="Helvetica,sans-Serif" font-size="10.00" fill="#000000">_gmrf_neumann.hpp</text>
</a>
</g>
</g>
<!-- Node38&#45;&gt;Node46 -->
<g id="edge14" class="edge">
<title>Node38&#45;&gt;Node46</title>
<path fill="none" stroke="#191970" d="M796.2439,-215.0894C1106.4181,-168.8893 1189.5285,-200.0467 1498.3052,-179 1558.0179,-174.9299 1626.3757,-168.9347 1672.7468,-164.6677"/>
<polygon fill="#191970" stroke="#191970" points="795.4265,-211.6729 786.0587,-216.622 796.4681,-218.595 795.4265,-211.6729"/>
</g>
<!-- Node50 -->
<g id="node18" class="node">
<title>Node50</title>
<g id="a_node18"><a xlink:href="../../df/dc0/_compressible___mooney___transverse___isotropic_8hpp.html" target="_top" xlink:title="src/Compressible_Mooney\l_Transverse_Isotropic.hpp">
<polygon fill="#ffffff" stroke="#000000" points="1119.1157,-145.5 1119.1157,-173.5 1253.4946,-173.5 1253.4946,-145.5 1119.1157,-145.5"/>
<text text-anchor="start" x="1127.1157" y="-161.5" font-family="Helvetica,sans-Serif" font-size="10.00" fill="#000000">src/Compressible_Mooney</text>
<text text-anchor="middle" x="1186.3052" y="-151.5" font-family="Helvetica,sans-Serif" font-size="10.00" fill="#000000">_Transverse_Isotropic.hpp</text>
</a>
</g>
</g>
<!-- Node38&#45;&gt;Node50 -->
<g id="edge18" class="edge">
<title>Node38&#45;&gt;Node50</title>
<path fill="none" stroke="#191970" d="M796.0812,-215.0174C870.7321,-201.0529 1028.348,-179.9678 1118.9945,-168.1594"/>
<polygon fill="#191970" stroke="#191970" points="795.2706,-211.6091 786.1139,-216.9389 796.5957,-218.4826 795.2706,-211.6091"/>
</g>
<!-- Node57 -->
<g id="node25" class="node">
<title>Node57</title>
<g id="a_node25"><a xlink:href="../../d0/d77/_compressible___mooney___transverse___isotropic___random___field_8hpp.html" target="_top" xlink:title="src/Compressible_Mooney\l_Transverse_Isotropic\l_Random_Field.hpp">
<polygon fill="#ffffff" stroke="#000000" points="1355.1157,-140.5 1355.1157,-178.5 1489.4946,-178.5 1489.4946,-140.5 1355.1157,-140.5"/>
<text text-anchor="start" x="1363.1157" y="-166.5" font-family="Helvetica,sans-Serif" font-size="10.00" fill="#000000">src/Compressible_Mooney</text>
<text text-anchor="start" x="1363.1157" y="-156.5" font-family="Helvetica,sans-Serif" font-size="10.00" fill="#000000">_Transverse_Isotropic</text>
<text text-anchor="middle" x="1422.3052" y="-146.5" font-family="Helvetica,sans-Serif" font-size="10.00" fill="#000000">_Random_Field.hpp</text>
</a>
</g>
</g>
<!-- Node38&#45;&gt;Node57 -->
<g id="edge25" class="edge">
<title>Node38&#45;&gt;Node57</title>
<path fill="none" stroke="#191970" d="M796.0183,-215.0882C1002.455,-181.7792 1058.392,-199.2755 1262.3052,-179 1292.7965,-175.9682 1326.4766,-171.9623 1355.0389,-168.3704"/>
<polygon fill="#191970" stroke="#191970" points="795.3778,-211.6464 786.073,-216.7131 796.5066,-218.5548 795.3778,-211.6464"/>
</g>
<!-- Node59 -->
<g id="node27" class="node">
<title>Node59</title>
<g id="a_node27"><a xlink:href="../../d0/d66/hyperelasticity__setup__pp_8cpp.html" target="_top" xlink:title="src/hyperelasticity\l_setup_pp.cpp">
<polygon fill="#ffffff" stroke="#000000" points="314.5713,-145.5 314.5713,-173.5 410.0391,-173.5 410.0391,-145.5 314.5713,-145.5"/>
<text text-anchor="start" x="322.5713" y="-161.5" font-family="Helvetica,sans-Serif" font-size="10.00" fill="#000000">src/hyperelasticity</text>
<text text-anchor="middle" x="362.3052" y="-151.5" font-family="Helvetica,sans-Serif" font-size="10.00" fill="#000000">_setup_pp.cpp</text>
</a>
</g>
</g>
<!-- Node38&#45;&gt;Node59 -->
<g id="edge27" class="edge">
<title>Node38&#45;&gt;Node59</title>
<path fill="none" stroke="#191970" d="M680.5447,-223.3974C616.1801,-215.8959 509.3166,-201.3438 419.3052,-179 413.1132,-177.4629 406.6357,-175.5512 400.3604,-173.5307"/>
<polygon fill="#191970" stroke="#191970" points="680.1667,-226.8769 690.5008,-224.541 680.9655,-219.9227 680.1667,-226.8769"/>
</g>
<!-- Node60 -->
<g id="node28" class="node">
<title>Node60</title>
<g id="a_node28"><a xlink:href="../../d7/d17/_newton___raphsonpp_8hpp.html" target="_top" xlink:title="src/Newton_Raphsonpp.hpp">
<polygon fill="#ffffff" stroke="#000000" points="746.2095,-150.5 746.2095,-168.5 888.4009,-168.5 888.4009,-150.5 746.2095,-150.5"/>
<text text-anchor="middle" x="817.3052" y="-156.5" font-family="Helvetica,sans-Serif" font-size="10.00" fill="#000000">src/Newton_Raphsonpp.hpp</text>
</a>
</g>
</g>
<!-- Node38&#45;&gt;Node60 -->
<g id="edge28" class="edge">
<title>Node38&#45;&gt;Node60</title>
<path fill="none" stroke="#191970" d="M762.1486,-208.3729C777.0717,-195.1499 795.5518,-178.7751 806.8808,-168.7368"/>
<polygon fill="#191970" stroke="#191970" points="759.4554,-206.083 754.292,-215.3345 764.0977,-211.3222 759.4554,-206.083"/>
</g>
<!-- Node40 -->
<g id="node8" class="node">
<title>Node40</title>
<g id="a_node8"><a xlink:href="../../de/da1/arteries_2deterministic__dirichlet_2main_8cpp.html" target="_top" xlink:title="arteries/deterministic\l_dirichlet/main.cpp">
<polygon fill="#ffffff" stroke="#000000" points="536.1797,-70.5 536.1797,-98.5 644.4307,-98.5 644.4307,-70.5 536.1797,-70.5"/>
<text text-anchor="start" x="544.1797" y="-86.5" font-family="Helvetica,sans-Serif" font-size="10.00" fill="#000000">arteries/deterministic</text>
<text text-anchor="middle" x="590.3052" y="-76.5" font-family="Helvetica,sans-Serif" font-size="10.00" fill="#000000">_dirichlet/main.cpp</text>
</a>
</g>
</g>
<!-- Node39&#45;&gt;Node40 -->
<g id="edge7" class="edge">
<title>Node39&#45;&gt;Node40</title>
<path fill="none" stroke="#191970" d="M639.4865,-137.9579C627.8302,-125.288 613.4252,-109.6305 603.2254,-98.5437"/>
<polygon fill="#191970" stroke="#191970" points="636.9804,-140.4034 646.3268,-145.3931 642.132,-135.664 636.9804,-140.4034"/>
</g>
<!-- Node41&#45;&gt;Node35 -->
<g id="edge10" class="edge">
<title>Node41&#45;&gt;Node35</title>
<path fill="none" stroke="#191970" d="M432.8173,-143.0798C428.2482,-142.0215 423.7118,-140.986 419.3052,-140 342.2397,-122.756 322.5438,-120.4511 245.3052,-104 237.1056,-102.2536 228.4865,-100.3945 219.9729,-98.5442"/>
<polygon fill="#191970" stroke="#191970" points="432.2998,-146.5532 442.8341,-145.4226 433.894,-139.7371 432.2998,-146.5532"/>
</g>
<!-- Node42 -->
<g id="node10" class="node">
<title>Node42</title>
<g id="a_node10"><a xlink:href="../../d9/d81/arteries_2deterministic__neumann_2main_8cpp.html" target="_top" xlink:title="arteries/deterministic\l_neumann/main.cpp">
<polygon fill="#ffffff" stroke="#000000" points="410.1797,-70.5 410.1797,-98.5 518.4307,-98.5 518.4307,-70.5 410.1797,-70.5"/>
<text text-anchor="start" x="418.1797" y="-86.5" font-family="Helvetica,sans-Serif" font-size="10.00" fill="#000000">arteries/deterministic</text>
<text text-anchor="middle" x="464.3052" y="-76.5" font-family="Helvetica,sans-Serif" font-size="10.00" fill="#000000">_neumann/main.cpp</text>
</a>
</g>
</g>
<!-- Node41&#45;&gt;Node42 -->
<g id="edge9" class="edge">
<title>Node41&#45;&gt;Node42</title>
<path fill="none" stroke="#191970" d="M489.0952,-136.1459C483.1793,-123.8211 476.1168,-109.1075 471.0461,-98.5437"/>
<polygon fill="#191970" stroke="#191970" points="486.0512,-137.8924 493.5339,-145.3931 492.3618,-134.8633 486.0512,-137.8924"/>
</g>
<!-- Node43 -->
<g id="node11" class="node">
<title>Node43</title>
<g id="a_node11"><a xlink:href="../../db/db7/arteries_2vonmises_2main_8cpp.html" target="_top" xlink:title="arteries/vonmises/main.cpp">
<polygon fill="#ffffff" stroke="#000000" points="254.4482,-75.5 254.4482,-93.5 392.1621,-93.5 392.1621,-75.5 254.4482,-75.5"/>
<text text-anchor="middle" x="323.3052" y="-81.5" font-family="Helvetica,sans-Serif" font-size="10.00" fill="#000000">arteries/vonmises/main.cpp</text>
</a>
</g>
</g>
<!-- Node41&#45;&gt;Node43 -->
<g id="edge11" class="edge">
<title>Node41&#45;&gt;Node43</title>
<path fill="none" stroke="#191970" d="M457.3532,-141.3C421.73,-126.2054 372.5717,-105.3756 344.7574,-93.5899"/>
<polygon fill="#191970" stroke="#191970" points="456.4398,-144.7142 467.0128,-145.3931 459.1708,-138.2689 456.4398,-144.7142"/>
</g>
<!-- Node45 -->
<g id="node13" class="node">
<title>Node45</title>
<g id="a_node13"><a xlink:href="../../dc/dba/arteries_2strip__dirichlet_2main_8cpp.html" target="_top" xlink:title="arteries/strip_dirichlet\l/main.cpp">
<polygon fill="#ffffff" stroke="#000000" points="898.7881,-70.5 898.7881,-98.5 1009.8223,-98.5 1009.8223,-70.5 898.7881,-70.5"/>
<text text-anchor="start" x="906.7881" y="-86.5" font-family="Helvetica,sans-Serif" font-size="10.00" fill="#000000">arteries/strip_dirichlet</text>
<text text-anchor="middle" x="954.3052" y="-76.5" font-family="Helvetica,sans-Serif" font-size="10.00" fill="#000000">/main.cpp</text>
</a>
</g>
</g>
<!-- Node44&#45;&gt;Node45 -->
<g id="edge13" class="edge">
<title>Node44&#45;&gt;Node45</title>
<path fill="none" stroke="#191970" d="M957.6992,-135.4109C956.8878,-123.24 955.9317,-108.8983 955.2414,-98.5437"/>
<polygon fill="#191970" stroke="#191970" points="954.2072,-135.6481 958.3647,-145.3931 961.1917,-135.1824 954.2072,-135.6481"/>
</g>
<!-- Node47 -->
<g id="node15" class="node">
<title>Node47</title>
<g id="a_node15"><a xlink:href="../../d5/da5/arteries_2boost__gmrf_2gmrf__gauss_2main_8cpp.html" target="_top" xlink:title="arteries/boost_gmrf\l/gmrf_gauss/main.cpp">
<polygon fill="#ffffff" stroke="#000000" points="1805.1157,-70.5 1805.1157,-98.5 1919.4946,-98.5 1919.4946,-70.5 1805.1157,-70.5"/>
<text text-anchor="start" x="1813.1157" y="-86.5" font-family="Helvetica,sans-Serif" font-size="10.00" fill="#000000">arteries/boost_gmrf</text>
<text text-anchor="middle" x="1862.3052" y="-76.5" font-family="Helvetica,sans-Serif" font-size="10.00" fill="#000000">/gmrf_gauss/main.cpp</text>
</a>
</g>
</g>
<!-- Node46&#45;&gt;Node47 -->
<g id="edge15" class="edge">
<title>Node46&#45;&gt;Node47</title>
<path fill="none" stroke="#191970" d="M1761.6371,-140.4267C1785.1285,-127.3759 1815.7524,-110.3626 1837.0266,-98.5437"/>
<polygon fill="#191970" stroke="#191970" points="1759.7395,-137.477 1752.6976,-145.3931 1763.139,-143.5961 1759.7395,-137.477"/>
</g>
<!-- Node48 -->
<g id="node16" class="node">
<title>Node48</title>
<g id="a_node16"><a xlink:href="../../d2/dbe/arteries_2boost__gmrf_2gmrf__nodes_2main_8cpp.html" target="_top" xlink:title="arteries/boost_gmrf\l/gmrf_nodes/main.cpp">
<polygon fill="#ffffff" stroke="#000000" points="1937.835,-70.5 1937.835,-98.5 2052.7754,-98.5 2052.7754,-70.5 1937.835,-70.5"/>
<text text-anchor="start" x="1945.835" y="-86.5" font-family="Helvetica,sans-Serif" font-size="10.00" fill="#000000">arteries/boost_gmrf</text>
<text text-anchor="middle" x="1995.3052" y="-76.5" font-family="Helvetica,sans-Serif" font-size="10.00" fill="#000000">/gmrf_nodes/main.cpp</text>
</a>
</g>
</g>
<!-- Node46&#45;&gt;Node48 -->
<g id="edge16" class="edge">
<title>Node46&#45;&gt;Node48</title>
<path fill="none" stroke="#191970" d="M1781.7896,-142.4696C1784.6662,-141.6224 1787.518,-140.7944 1790.3052,-140 1851.2631,-122.6245 1867.2022,-120.8582 1928.3052,-104 1934.6114,-102.2601 1941.2384,-100.3866 1947.7701,-98.5132"/>
<polygon fill="#191970" stroke="#191970" points="1780.5518,-139.1864 1771.9722,-145.4026 1782.5557,-145.8935 1780.5518,-139.1864"/>
</g>
<!-- Node49 -->
<g id="node17" class="node">
<title>Node49</title>
<g id="a_node17"><a xlink:href="../../da/df3/arteries_2gmrf__neumann_2main_8cpp.html" target="_top" xlink:title="arteries/gmrf_neumann\l/main.cpp">
<polygon fill="#ffffff" stroke="#000000" points="1667.6133,-70.5 1667.6133,-98.5 1786.9971,-98.5 1786.9971,-70.5 1667.6133,-70.5"/>
<text text-anchor="start" x="1675.6133" y="-86.5" font-family="Helvetica,sans-Serif" font-size="10.00" fill="#000000">arteries/gmrf_neumann</text>
<text text-anchor="middle" x="1727.3052" y="-76.5" font-family="Helvetica,sans-Serif" font-size="10.00" fill="#000000">/main.cpp</text>
</a>
</g>
</g>
<!-- Node46&#45;&gt;Node49 -->
<g id="edge17" class="edge">
<title>Node46&#45;&gt;Node49</title>
<path fill="none" stroke="#191970" d="M1727.3052,-135.0415C1727.3052,-122.9507 1727.3052,-108.7938 1727.3052,-98.5437"/>
<polygon fill="#191970" stroke="#191970" points="1723.8053,-135.393 1727.3052,-145.3931 1730.8053,-135.3931 1723.8053,-135.393"/>
</g>
<!-- Node51 -->
<g id="node19" class="node">
<title>Node51</title>
<g id="a_node19"><a xlink:href="../../df/d27/nrl_2deterministic__random__search_2objective_function_8hpp.html" target="_top" xlink:title="nrl/deterministic_random\l_search/objectiveFunction.hpp">
<polygon fill="#ffffff" stroke="#000000" points="1027.4854,-70.5 1027.4854,-98.5 1179.125,-98.5 1179.125,-70.5 1027.4854,-70.5"/>
<text text-anchor="start" x="1035.4854" y="-86.5" font-family="Helvetica,sans-Serif" font-size="10.00" fill="#000000">nrl/deterministic_random</text>
<text text-anchor="middle" x="1103.3052" y="-76.5" font-family="Helvetica,sans-Serif" font-size="10.00" fill="#000000">_search/objectiveFunction.hpp</text>
</a>
</g>
</g>
<!-- Node50&#45;&gt;Node51 -->
<g id="edge19" class="edge">
<title>Node50&#45;&gt;Node51</title>
<path fill="none" stroke="#191970" d="M1163.2554,-138.6718C1149.0996,-125.8805 1131.3478,-109.8397 1118.8468,-98.5437"/>
<polygon fill="#191970" stroke="#191970" points="1160.9273,-141.2855 1170.6935,-145.3931 1165.6205,-136.0917 1160.9273,-141.2855"/>
</g>
<!-- Node55 -->
<g id="node23" class="node">
<title>Node55</title>
<g id="a_node23"><a xlink:href="../../de/d26/objective_function__bak_8hpp.html" target="_top" xlink:title="nrl/deterministic_random\l_search/objectiveFunction\l_bak.hpp">
<polygon fill="#ffffff" stroke="#000000" points="1235.2168,-65.5 1235.2168,-103.5 1367.3936,-103.5 1367.3936,-65.5 1235.2168,-65.5"/>
<text text-anchor="start" x="1243.2168" y="-91.5" font-family="Helvetica,sans-Serif" font-size="10.00" fill="#000000">nrl/deterministic_random</text>
<text text-anchor="start" x="1243.2168" y="-81.5" font-family="Helvetica,sans-Serif" font-size="10.00" fill="#000000">_search/objectiveFunction</text>
<text text-anchor="middle" x="1301.3052" y="-71.5" font-family="Helvetica,sans-Serif" font-size="10.00" fill="#000000">_bak.hpp</text>
</a>
</g>
</g>
<!-- Node50&#45;&gt;Node55 -->
<g id="edge23" class="edge">
<title>Node50&#45;&gt;Node55</title>
<path fill="none" stroke="#191970" d="M1216.4662,-139.8297C1233.6016,-128.6545 1254.959,-114.7258 1271.958,-103.6395"/>
<polygon fill="#191970" stroke="#191970" points="1214.4,-136.9987 1207.9358,-145.3931 1218.2239,-142.862 1214.4,-136.9987"/>
</g>
<!-- Node56 -->
<g id="node24" class="node">
<title>Node56</title>
<g id="a_node24"><a xlink:href="../../d5/d58/nrl_2forward__deterministic_2main_8cpp.html" target="_top" xlink:title="nrl/forward_deterministic\l/main.cpp">
<polygon fill="#ffffff" stroke="#000000" points="1385.8423,-70.5 1385.8423,-98.5 1510.7681,-98.5 1510.7681,-70.5 1385.8423,-70.5"/>
<text text-anchor="start" x="1393.8423" y="-86.5" font-family="Helvetica,sans-Serif" font-size="10.00" fill="#000000">nrl/forward_deterministic</text>
<text text-anchor="middle" x="1448.3052" y="-76.5" font-family="Helvetica,sans-Serif" font-size="10.00" fill="#000000">/main.cpp</text>
</a>
</g>
</g>
<!-- Node50&#45;&gt;Node56 -->
<g id="edge24" class="edge">
<title>Node50&#45;&gt;Node56</title>
<path fill="none" stroke="#191970" d="M1244.8976,-142.7274C1291.2984,-129.4447 1355.3703,-111.1035 1399.1283,-98.5773"/>
<polygon fill="#191970" stroke="#191970" points="1243.9286,-139.3641 1235.278,-145.4811 1245.8551,-146.0938 1243.9286,-139.3641"/>
</g>
<!-- Node52 -->
<g id="node20" class="node">
<title>Node52</title>
<g id="a_node20"><a xlink:href="../../de/de8/example__pnpoly__inverse__isoparam_8cpp.html" target="_top" xlink:title="examples/pnpoly/example\l_pnpoly_inverse_isoparam.cpp">
<polygon fill="#ffffff" stroke="#000000" points="1078.0962,-.5 1078.0962,-28.5 1232.5142,-28.5 1232.5142,-.5 1078.0962,-.5"/>
<text text-anchor="start" x="1086.0962" y="-16.5" font-family="Helvetica,sans-Serif" font-size="10.00" fill="#000000">examples/pnpoly/example</text>
<text text-anchor="middle" x="1155.3052" y="-6.5" font-family="Helvetica,sans-Serif" font-size="10.00" fill="#000000">_pnpoly_inverse_isoparam.cpp</text>
</a>
</g>
</g>
<!-- Node51&#45;&gt;Node52 -->
<g id="edge20" class="edge">
<title>Node51&#45;&gt;Node52</title>
<path fill="none" stroke="#191970" d="M1119.9856,-62.0456C1128.1309,-51.0807 1137.6827,-38.2226 1144.7978,-28.6445"/>
<polygon fill="#191970" stroke="#191970" points="1116.9818,-60.2199 1113.8282,-70.3345 1122.601,-64.3941 1116.9818,-60.2199"/>
</g>
<!-- Node53 -->
<g id="node21" class="node">
<title>Node53</title>
<g id="a_node21"><a xlink:href="../../d8/dc8/nrl_2deterministic__random__search_2main_8cpp.html" target="_top" xlink:title="nrl/deterministic_random\l_search/main.cpp">
<polygon fill="#ffffff" stroke="#000000" points="870.5615,-.5 870.5615,-28.5 996.0488,-28.5 996.0488,-.5 870.5615,-.5"/>
<text text-anchor="start" x="878.5615" y="-16.5" font-family="Helvetica,sans-Serif" font-size="10.00" fill="#000000">nrl/deterministic_random</text>
<text text-anchor="middle" x="933.3052" y="-6.5" font-family="Helvetica,sans-Serif" font-size="10.00" fill="#000000">_search/main.cpp</text>
</a>
</g>
</g>
<!-- Node51&#45;&gt;Node53 -->
<g id="edge21" class="edge">
<title>Node51&#45;&gt;Node53</title>
<path fill="none" stroke="#191970" d="M1059.5161,-66.4692C1030.822,-54.654 993.862,-39.4352 967.3656,-28.5249"/>
<polygon fill="#191970" stroke="#191970" points="1058.3237,-69.7633 1068.9031,-70.3345 1060.989,-63.2905 1058.3237,-69.7633"/>
</g>
<!-- Node54 -->
<g id="node22" class="node">
<title>Node54</title>
<g id="a_node22"><a xlink:href="../../da/dbf/main__bak_8cpp.html" target="_top" xlink:title="nrl/deterministic_random\l_search/main_bak.cpp">
<polygon fill="#ffffff" stroke="#000000" points="700.5615,-.5 700.5615,-28.5 826.0488,-28.5 826.0488,-.5 700.5615,-.5"/>
<text text-anchor="start" x="708.5615" y="-16.5" font-family="Helvetica,sans-Serif" font-size="10.00" fill="#000000">nrl/deterministic_random</text>
<text text-anchor="middle" x="763.3052" y="-6.5" font-family="Helvetica,sans-Serif" font-size="10.00" fill="#000000">_search/main_bak.cpp</text>
</a>
</g>
</g>
<!-- Node51&#45;&gt;Node54 -->
<g id="edge22" class="edge">
<title>Node51&#45;&gt;Node54</title>
<path fill="none" stroke="#191970" d="M1033.7018,-68.1535C1028.8337,-67.0683 1023.9984,-66.0074 1019.3052,-65 953.6421,-50.906 878.1784,-36.2001 826.2859,-26.3175"/>
<polygon fill="#191970" stroke="#191970" points="1033.1807,-71.6237 1043.7053,-70.4059 1034.7184,-64.7947 1033.1807,-71.6237"/>
</g>
<!-- Node58 -->
<g id="node26" class="node">
<title>Node58</title>
<g id="a_node26"><a xlink:href="../../db/de3/nrl_2forward__randomfield_2main_8cpp.html" target="_top" xlink:title="nrl/forward_randomfield\l/main.cpp">
<polygon fill="#ffffff" stroke="#000000" points="1528.7808,-70.5 1528.7808,-98.5 1649.8296,-98.5 1649.8296,-70.5 1528.7808,-70.5"/>
<text text-anchor="start" x="1536.7808" y="-86.5" font-family="Helvetica,sans-Serif" font-size="10.00" fill="#000000">nrl/forward_randomfield</text>
<text text-anchor="middle" x="1589.3052" y="-76.5" font-family="Helvetica,sans-Serif" font-size="10.00" fill="#000000">/main.cpp</text>
</a>
</g>
</g>
<!-- Node57&#45;&gt;Node58 -->
<g id="edge26" class="edge">
<title>Node57&#45;&gt;Node58</title>
<path fill="none" stroke="#191970" d="M1474.3195,-136.1403C1501.7018,-123.8428 1534.3768,-109.1684 1557.8846,-98.6111"/>
<polygon fill="#191970" stroke="#191970" points="1472.5668,-133.0906 1464.8784,-140.3803 1475.4346,-139.4762 1472.5668,-133.0906"/>
</g>
<!-- Node60&#45;&gt;Node35 -->
<g id="edge31" class="edge">
<title>Node60&#45;&gt;Node35</title>
<path fill="none" stroke="#191970" d="M775.661,-147.9629C763.3912,-144.9411 749.8824,-141.9789 737.3052,-140 520.7186,-105.9215 462.2756,-135.5427 245.3052,-104 235.4436,-102.5663 225.0457,-100.6573 214.9727,-98.5938"/>
<polygon fill="#191970" stroke="#191970" points="775.0747,-151.425 785.6286,-150.4949 776.7982,-144.6405 775.0747,-151.425"/>
</g>
<!-- Node60&#45;&gt;Node40 -->
<g id="edge29" class="edge">
<title>Node60&#45;&gt;Node40</title>
<path fill="none" stroke="#191970" d="M780.2002,-147.2406C739.8016,-133.8931 675.3026,-112.5828 632.8741,-98.5646"/>
<polygon fill="#191970" stroke="#191970" points="779.3305,-150.6393 789.9237,-150.4532 781.5265,-143.9927 779.3305,-150.6393"/>
</g>
<!-- Node60&#45;&gt;Node42 -->
<g id="edge30" class="edge">
<title>Node60&#45;&gt;Node42</title>
<path fill="none" stroke="#191970" d="M772.5724,-148.017C761.1117,-145.2346 748.7812,-142.3793 737.3052,-140 644.5822,-120.7758 619.3978,-126.0467 527.3052,-104 520.7356,-102.4273 513.8479,-100.5437 507.1377,-98.5761"/>
<polygon fill="#191970" stroke="#191970" points="771.8299,-151.4387 782.3766,-150.4296 773.5026,-144.6414 771.8299,-151.4387"/>
</g>
<!-- Node60&#45;&gt;Node43 -->
<g id="edge34" class="edge">
<title>Node60&#45;&gt;Node43</title>
<path fill="none" stroke="#191970" d="M774.6449,-147.9947C762.6356,-145.0584 749.5172,-142.1329 737.3052,-140 589.3568,-114.1599 549.1768,-130.2757 401.3052,-104 386.0503,-101.2893 369.36,-97.2632 355.347,-93.5721"/>
<polygon fill="#191970" stroke="#191970" points="773.8768,-151.4104 784.4277,-150.4466 775.5787,-144.6204 773.8768,-151.4104"/>
</g>
<!-- Node60&#45;&gt;Node45 -->
<g id="edge33" class="edge">
<title>Node60&#45;&gt;Node45</title>
<path fill="none" stroke="#191970" d="M842.8745,-145.5022C867.3554,-132.1002 904.0922,-111.9888 928.6138,-98.5646"/>
<polygon fill="#191970" stroke="#191970" points="840.9215,-142.5812 833.8306,-150.4532 844.2829,-148.7213 840.9215,-142.5812"/>
</g>
<!-- Node60&#45;&gt;Node49 -->
<g id="edge32" class="edge">
<title>Node60&#45;&gt;Node49</title>
<path fill="none" stroke="#191970" d="M858.5955,-147.8351C870.95,-144.7802 884.5929,-141.8323 897.3052,-140 1232.8818,-91.6319 1324.768,-159.1001 1659.3052,-104 1667.4243,-102.6627 1675.9514,-100.6898 1684.1167,-98.5054"/>
<polygon fill="#191970" stroke="#191970" points="857.3877,-144.5314 848.5694,-150.4042 859.1252,-151.3124 857.3877,-144.5314"/>
</g>
<!-- Node60&#45;&gt;Node51 -->
<g id="edge37" class="edge">
<title>Node60&#45;&gt;Node51</title>
<path fill="none" stroke="#191970" d="M861.4926,-147.9124C912.1902,-134.6176 995.3099,-112.8204 1049.6721,-98.5646"/>
<polygon fill="#191970" stroke="#191970" points="860.5886,-144.531 851.8035,-150.4532 862.3642,-151.3021 860.5886,-144.531"/>
</g>
<!-- Node60&#45;&gt;Node52 -->
<g id="edge35" class="edge">
<title>Node60&#45;&gt;Node52</title>
<path fill="none" stroke="#191970" d="M860.3137,-148.0462C872.2346,-145.1371 885.2208,-142.2126 897.3052,-140 961.3994,-128.2648 1145.1514,-152.8214 1188.3052,-104 1207.7182,-82.0373 1184.5113,-47.6601 1168.3395,-28.5344"/>
<polygon fill="#191970" stroke="#191970" points="859.4497,-144.6544 850.5939,-150.4704 861.1437,-151.4464 859.4497,-144.6544"/>
</g>
<!-- Node60&#45;&gt;Node53 -->
<g id="edge36" class="edge">
<title>Node60&#45;&gt;Node53</title>
<path fill="none" stroke="#191970" d="M829.7875,-142.4267C843.8927,-123.2986 867.7052,-91.4988 889.3052,-65 899.4441,-52.5616 911.4379,-38.8586 920.3405,-28.8689"/>
<polygon fill="#191970" stroke="#191970" points="826.9639,-140.3586 823.8638,-150.4898 832.6051,-144.5031 826.9639,-140.3586"/>
</g>
<!-- Node60&#45;&gt;Node54 -->
<g id="edge38" class="edge">
<title>Node60&#45;&gt;Node54</title>
<path fill="none" stroke="#191970" d="M777.4801,-147.2485C744.438,-136.1832 701.305,-119.3316 691.3052,-104 681.8359,-89.4818 683.3076,-80.378 691.3052,-65 699.6884,-48.8805 715.8355,-36.8351 730.7172,-28.5592"/>
<polygon fill="#191970" stroke="#191970" points="776.7699,-150.6989 787.3627,-150.4887 778.9508,-144.0473 776.7699,-150.6989"/>
</g>
<!-- Node60&#45;&gt;Node55 -->
<g id="edge39" class="edge">
<title>Node60&#45;&gt;Node55</title>
<path fill="none" stroke="#191970" d="M859.9709,-148.0261C871.9803,-145.09 885.0973,-142.1568 897.3052,-140 1039.9816,-114.7923 1078.6287,-129.2077 1221.3052,-104 1225.81,-103.2041 1230.4386,-102.3025 1235.0896,-101.334"/>
<polygon fill="#191970" stroke="#191970" points="859.038,-144.6516 850.1878,-150.4761 860.7385,-151.4419 859.038,-144.6516"/>
</g>
<!-- Node60&#45;&gt;Node56 -->
<g id="edge40" class="edge">
<title>Node60&#45;&gt;Node56</title>
<path fill="none" stroke="#191970" d="M859.275,-147.8992C871.4587,-144.9054 884.8402,-141.9739 897.3052,-140 1108.167,-106.6088 1165.8844,-140.0664 1376.3052,-104 1384.4743,-102.5998 1393.0588,-100.681 1401.3405,-98.5903"/>
<polygon fill="#191970" stroke="#191970" points="858.203,-144.5601 849.3689,-150.4091 859.9223,-151.3457 858.203,-144.5601"/>
</g>
<!-- Node60&#45;&gt;Node58 -->
<g id="edge41" class="edge">
<title>Node60&#45;&gt;Node58</title>
<path fill="none" stroke="#191970" d="M858.608,-147.9202C870.9629,-144.8677 884.6028,-141.8997 897.3052,-140 1171.1667,-99.0438 1246.1475,-149.4139 1519.3052,-104 1527.5187,-102.6345 1536.1498,-100.6769 1544.4373,-98.5234"/>
<polygon fill="#191970" stroke="#191970" points="857.403,-144.6156 848.5809,-150.4827 859.1362,-151.3977 857.403,-144.6156"/>
</g>
<!-- Node61 -->
<g id="node29" class="node">
<title>Node61</title>
<g id="a_node29"><a xlink:href="../../d5/dc7/_newton___raphsonpp_8cpp.html" target="_top" xlink:title="src/Newton_Raphsonpp.cpp">
<polygon fill="#ffffff" stroke="#000000" points="700.4902,-75.5 700.4902,-93.5 842.1201,-93.5 842.1201,-75.5 700.4902,-75.5"/>
<text text-anchor="middle" x="771.3052" y="-81.5" font-family="Helvetica,sans-Serif" font-size="10.00" fill="#000000">src/Newton_Raphsonpp.cpp</text>
</a>
</g>
</g>
<!-- Node60&#45;&gt;Node61 -->
<g id="edge42" class="edge">
<title>Node60&#45;&gt;Node61</title>
<path fill="none" stroke="#191970" d="M806.2097,-141.4096C796.9937,-126.3835 784.2573,-105.6176 776.9918,-93.7717"/>
<polygon fill="#191970" stroke="#191970" points="803.4528,-143.6091 811.6647,-150.3035 809.4199,-139.9492 803.4528,-143.6091"/>
</g>
<!-- Node64 -->
<g id="node32" class="node">
<title>Node64</title>
<g id="a_node32"><a xlink:href="../../d4/d89/linearelasticity__setup__pp_8cpp.html" target="_top" xlink:title="src/linearelasticity\l_setup_pp.cpp">
<polygon fill="#ffffff" stroke="#000000" points="1343.8496,-215.5 1343.8496,-243.5 1438.7607,-243.5 1438.7607,-215.5 1343.8496,-215.5"/>
<text text-anchor="start" x="1351.8496" y="-231.5" font-family="Helvetica,sans-Serif" font-size="10.00" fill="#000000">src/linearelasticity</text>
<text text-anchor="middle" x="1391.3052" y="-221.5" font-family="Helvetica,sans-Serif" font-size="10.00" fill="#000000">_setup_pp.cpp</text>
</a>
</g>
</g>
<!-- Node63&#45;&gt;Node64 -->
<g id="edge45" class="edge">
<title>Node63&#45;&gt;Node64</title>
<path fill="none" stroke="#191970" d="M1391.3052,-270.1081C1391.3052,-261.1539 1391.3052,-251.3227 1391.3052,-243.5765"/>
<polygon fill="#191970" stroke="#191970" points="1387.8053,-270.3959 1391.3052,-280.396 1394.8053,-270.396 1387.8053,-270.3959"/>
</g>
<!-- Node65 -->
<g id="node33" class="node">
<title>Node65</title>
<g id="a_node33"><a xlink:href="../../dd/d0f/orthotropic_r_f__laminate_8hpp.html" target="_top" xlink:title="src/orthotropicRF_laminate.hpp">
<polygon fill="#ffffff" stroke="#000000" points="1656.5518,-220.5 1656.5518,-238.5 1812.0586,-238.5 1812.0586,-220.5 1656.5518,-220.5"/>
<text text-anchor="middle" x="1734.3052" y="-226.5" font-family="Helvetica,sans-Serif" font-size="10.00" fill="#000000">src/orthotropicRF_laminate.hpp</text>
</a>
</g>
</g>
<!-- Node63&#45;&gt;Node65 -->
<g id="edge46" class="edge">
<title>Node63&#45;&gt;Node65</title>
<path fill="none" stroke="#191970" d="M1448.94,-283.578C1515.7334,-270.9203 1624.5629,-250.2966 1686.742,-238.5134"/>
<polygon fill="#191970" stroke="#191970" points="1448.1713,-280.1612 1438.9979,-285.462 1449.4747,-287.0388 1448.1713,-280.1612"/>
</g>
<!-- Node66 -->
<g id="node34" class="node">
<title>Node66</title>
<g id="a_node34"><a xlink:href="../../d2/ded/asme_2linearelaslam_2main_8cpp.html" target="_top" xlink:title="asme/linearelaslam\l/main.cpp">
<polygon fill="#ffffff" stroke="#000000" points="1799.2314,-145.5 1799.2314,-173.5 1901.3789,-173.5 1901.3789,-145.5 1799.2314,-145.5"/>
<text text-anchor="start" x="1807.2314" y="-161.5" font-family="Helvetica,sans-Serif" font-size="10.00" fill="#000000">asme/linearelaslam</text>
<text text-anchor="middle" x="1850.3052" y="-151.5" font-family="Helvetica,sans-Serif" font-size="10.00" fill="#000000">/main.cpp</text>
</a>
</g>
</g>
<!-- Node65&#45;&gt;Node66 -->
<g id="edge47" class="edge">
<title>Node65&#45;&gt;Node66</title>
<path fill="none" stroke="#191970" d="M1758.2948,-215.0235C1778.3363,-202.9295 1806.7551,-185.7802 1826.691,-173.7499"/>
<polygon fill="#191970" stroke="#191970" points="1756.2237,-212.1854 1749.4701,-220.3487 1759.8404,-218.1787 1756.2237,-212.1854"/>
</g>
</g>
</svg>
