<?xml version="1.0" encoding="UTF-8" standalone="no"?>
<!DOCTYPE svg PUBLIC "-//W3C//DTD SVG 1.1//EN"
 "http://www.w3.org/Graphics/SVG/1.1/DTD/svg11.dtd">
<!-- Generated by graphviz version 2.40.1 (20161225.0304)
 -->
<!-- Title: src/Linear_Finite_Element_Problem.hpp Pages: 1 -->
<svg width="1336pt" height="297pt"
 viewBox="0.00 0.00 1335.88 297.00" xmlns="http://www.w3.org/2000/svg" xmlns:xlink="http://www.w3.org/1999/xlink">
<g id="graph0" class="graph" transform="scale(1 1) rotate(0) translate(4 293)">
<title>src/Linear_Finite_Element_Problem.hpp</title>
<polygon fill="#ffffff" stroke="transparent" points="-4,4 -4,-293 1331.8789,-293 1331.8789,4 -4,4"/>
<!-- Node34 -->
<g id="node1" class="node">
<title>Node34</title>
<polygon fill="#bfbfbf" stroke="#000000" points="717.042,-260.5 717.042,-288.5 849.209,-288.5 849.209,-260.5 717.042,-260.5"/>
<text text-anchor="start" x="725.042" y="-276.5" font-family="Helvetica,sans-Serif" font-size="10.00" fill="#000000">src/Linear_Finite_Element</text>
<text text-anchor="middle" x="783.1255" y="-266.5" font-family="Helvetica,sans-Serif" font-size="10.00" fill="#000000">_Problem.hpp</text>
</g>
<!-- Node35 -->
<g id="node2" class="node">
<title>Node35</title>
<g id="a_node2"><a xlink:href="../../d5/d3f/laplacepp_8hpp.html" target="_top" xlink:title="src/laplacepp.hpp">
<polygon fill="#ffffff" stroke="#000000" points="481.9336,-200.5 481.9336,-218.5 576.3174,-218.5 576.3174,-200.5 481.9336,-200.5"/>
<text text-anchor="middle" x="529.1255" y="-206.5" font-family="Helvetica,sans-Serif" font-size="10.00" fill="#000000">src/laplacepp.hpp</text>
</a>
</g>
</g>
<!-- Node34&#45;&gt;Node35 -->
<g id="edge1" class="edge">
<title>Node34&#45;&gt;Node35</title>
<path fill="none" stroke="#191970" d="M718.4462,-257.9482C669.4538,-245.4108 604.0099,-228.6633 564.3008,-218.5016"/>
<polygon fill="#191970" stroke="#191970" points="717.7684,-261.3875 728.324,-260.476 719.5039,-254.606 717.7684,-261.3875"/>
</g>
<!-- Node52 -->
<g id="node19" class="node">
<title>Node52</title>
<g id="a_node19"><a xlink:href="../../d4/d4c/linearelasticity__setup__pp_8hpp.html" target="_top" xlink:title="src/linearelasticity\l_setup_pp.hpp">
<polygon fill="#ffffff" stroke="#000000" points="926.6699,-195.5 926.6699,-223.5 1021.5811,-223.5 1021.5811,-195.5 926.6699,-195.5"/>
<text text-anchor="start" x="934.6699" y="-211.5" font-family="Helvetica,sans-Serif" font-size="10.00" fill="#000000">src/linearelasticity</text>
<text text-anchor="middle" x="974.1255" y="-201.5" font-family="Helvetica,sans-Serif" font-size="10.00" fill="#000000">_setup_pp.hpp</text>
</a>
</g>
</g>
<!-- Node34&#45;&gt;Node52 -->
<g id="edge18" class="edge">
<title>Node34&#45;&gt;Node52</title>
<path fill="none" stroke="#191970" d="M834.2792,-257.0917C865.112,-246.5988 903.8721,-233.4082 932.7622,-223.5765"/>
<polygon fill="#191970" stroke="#191970" points="832.9089,-253.8608 824.5696,-260.396 835.1641,-260.4876 832.9089,-253.8608"/>
</g>
<!-- Node36 -->
<g id="node3" class="node">
<title>Node36</title>
<g id="a_node3"><a xlink:href="../../d4/d0f/examples_2laplace__aztec_2main_8cpp.html" target="_top" xlink:title="examples/laplace_aztec\l/main.cpp">
<polygon fill="#ffffff" stroke="#000000" points="175.7612,-130.5 175.7612,-158.5 298.4897,-158.5 298.4897,-130.5 175.7612,-130.5"/>
<text text-anchor="start" x="183.7612" y="-146.5" font-family="Helvetica,sans-Serif" font-size="10.00" fill="#000000">examples/laplace_aztec</text>
<text text-anchor="middle" x="237.1255" y="-136.5" font-family="Helvetica,sans-Serif" font-size="10.00" fill="#000000">/main.cpp</text>
</a>
</g>
</g>
<!-- Node35&#45;&gt;Node36 -->
<g id="edge2" class="edge">
<title>Node35&#45;&gt;Node36</title>
<path fill="none" stroke="#191970" d="M478.5997,-198.2528C428.6758,-187.1396 352.2285,-170.1222 298.7612,-158.2203"/>
<polygon fill="#191970" stroke="#191970" points="478.0025,-201.7055 488.5241,-200.462 479.5236,-194.8727 478.0025,-201.7055"/>
</g>
<!-- Node37 -->
<g id="node4" class="node">
<title>Node37</title>
<g id="a_node4"><a xlink:href="../../d8/d16/examples_2laplace__stratimikos_2main_8cpp.html" target="_top" xlink:title="examples/laplace_stratimikos\l/main.cpp">
<polygon fill="#ffffff" stroke="#000000" points="316.8203,-130.5 316.8203,-158.5 463.4307,-158.5 463.4307,-130.5 316.8203,-130.5"/>
<text text-anchor="start" x="324.8203" y="-146.5" font-family="Helvetica,sans-Serif" font-size="10.00" fill="#000000">examples/laplace_stratimikos</text>
<text text-anchor="middle" x="390.1255" y="-136.5" font-family="Helvetica,sans-Serif" font-size="10.00" fill="#000000">/main.cpp</text>
</a>
</g>
</g>
<!-- Node35&#45;&gt;Node37 -->
<g id="edge3" class="edge">
<title>Node35&#45;&gt;Node37</title>
<path fill="none" stroke="#191970" d="M500.7173,-196.2156C477.2879,-185.2594 444.1371,-169.7572 420.249,-158.5865"/>
<polygon fill="#191970" stroke="#191970" points="499.257,-199.3965 509.7981,-200.462 502.2222,-193.0555 499.257,-199.3965"/>
</g>
<!-- Node38 -->
<g id="node5" class="node">
<title>Node38</title>
<g id="a_node5"><a xlink:href="../../de/d9d/hyperelasticity__setup__pp_8hpp.html" target="_top" xlink:title="src/hyperelasticity\l_setup_pp.hpp">
<polygon fill="#ffffff" stroke="#000000" points="481.3916,-130.5 481.3916,-158.5 576.8594,-158.5 576.8594,-130.5 481.3916,-130.5"/>
<text text-anchor="start" x="489.3916" y="-146.5" font-family="Helvetica,sans-Serif" font-size="10.00" fill="#000000">src/hyperelasticity</text>
<text text-anchor="middle" x="529.1255" y="-136.5" font-family="Helvetica,sans-Serif" font-size="10.00" fill="#000000">_setup_pp.hpp</text>
</a>
</g>
</g>
<!-- Node35&#45;&gt;Node38 -->
<g id="edge4" class="edge">
<title>Node35&#45;&gt;Node38</title>
<path fill="none" stroke="#191970" d="M529.1255,-190.2652C529.1255,-180.2384 529.1255,-168.1782 529.1255,-158.9559"/>
<polygon fill="#191970" stroke="#191970" points="525.6256,-190.462 529.1255,-200.462 532.6256,-190.4621 525.6256,-190.462"/>
</g>
<!-- Node51 -->
<g id="node18" class="node">
<title>Node51</title>
<g id="a_node18"><a xlink:href="../../dc/d31/laplacepp_8cpp.html" target="_top" xlink:title="src/laplacepp.cpp">
<polygon fill="#ffffff" stroke="#000000" points="595.2144,-135.5 595.2144,-153.5 689.0366,-153.5 689.0366,-135.5 595.2144,-135.5"/>
<text text-anchor="middle" x="642.1255" y="-141.5" font-family="Helvetica,sans-Serif" font-size="10.00" fill="#000000">src/laplacepp.cpp</text>
</a>
</g>
</g>
<!-- Node35&#45;&gt;Node51 -->
<g id="edge17" class="edge">
<title>Node35&#45;&gt;Node51</title>
<path fill="none" stroke="#191970" d="M553.6111,-195.4154C575.6168,-182.7572 607.2934,-164.5362 626.1825,-153.6708"/>
<polygon fill="#191970" stroke="#191970" points="551.7607,-192.4419 544.8377,-200.462 555.2511,-198.5097 551.7607,-192.4419"/>
</g>
<!-- Node39 -->
<g id="node6" class="node">
<title>Node39</title>
<g id="a_node6"><a xlink:href="../../d6/db8/_arteries___model_c__deterministic__dirichlet_8hpp.html" target="_top" xlink:title="src/Arteries_ModelC\l_deterministic_dirichlet.hpp">
<polygon fill="#ffffff" stroke="#000000" points="39.5396,-65.5 39.5396,-93.5 176.7114,-93.5 176.7114,-65.5 39.5396,-65.5"/>
<text text-anchor="start" x="47.5396" y="-81.5" font-family="Helvetica,sans-Serif" font-size="10.00" fill="#000000">src/Arteries_ModelC</text>
<text text-anchor="middle" x="108.1255" y="-71.5" font-family="Helvetica,sans-Serif" font-size="10.00" fill="#000000">_deterministic_dirichlet.hpp</text>
</a>
</g>
</g>
<!-- Node38&#45;&gt;Node39 -->
<g id="edge5" class="edge">
<title>Node38&#45;&gt;Node39</title>
<path fill="none" stroke="#191970" d="M471.1939,-129.9558C362.8694,-109.1023 248.1836,-94.7487 176.9326,-86.7351"/>
<polygon fill="#191970" stroke="#191970" points="470.8342,-133.4514 481.3189,-131.9278 472.1725,-126.5805 470.8342,-133.4514"/>
</g>
<!-- Node41 -->
<g id="node8" class="node">
<title>Node41</title>
<g id="a_node8"><a xlink:href="../../dd/da4/_arteries___model_c__deterministic__neumann_8hpp.html" target="_top" xlink:title="src/Arteries_ModelC\l_deterministic_neumann.hpp">
<polygon fill="#ffffff" stroke="#000000" points="248.9189,-65.5 248.9189,-93.5 393.332,-93.5 393.332,-65.5 248.9189,-65.5"/>
<text text-anchor="start" x="256.9189" y="-81.5" font-family="Helvetica,sans-Serif" font-size="10.00" fill="#000000">src/Arteries_ModelC</text>
<text text-anchor="middle" x="321.1255" y="-71.5" font-family="Helvetica,sans-Serif" font-size="10.00" fill="#000000">_deterministic_neumann.hpp</text>
</a>
</g>
</g>
<!-- Node38&#45;&gt;Node41 -->
<g id="edge7" class="edge">
<title>Node38&#45;&gt;Node41</title>
<path fill="none" stroke="#191970" d="M474.5471,-127.4442C440.8303,-116.9078 398.0839,-103.5495 366.2804,-93.6109"/>
<polygon fill="#191970" stroke="#191970" points="473.6599,-130.8339 484.2487,-130.476 475.7478,-124.1525 473.6599,-130.8339"/>
</g>
<!-- Node44 -->
<g id="node11" class="node">
<title>Node44</title>
<g id="a_node11"><a xlink:href="../../de/d6d/_arteries___model_c__gmrf__dirichlet_8hpp.html" target="_top" xlink:title="src/Arteries_ModelC\l_gmrf_dirichlet.hpp">
<polygon fill="#ffffff" stroke="#000000" points="412.835,-65.5 412.835,-93.5 519.416,-93.5 519.416,-65.5 412.835,-65.5"/>
<text text-anchor="start" x="420.835" y="-81.5" font-family="Helvetica,sans-Serif" font-size="10.00" fill="#000000">src/Arteries_ModelC</text>
<text text-anchor="middle" x="466.1255" y="-71.5" font-family="Helvetica,sans-Serif" font-size="10.00" fill="#000000">_gmrf_dirichlet.hpp</text>
</a>
</g>
</g>
<!-- Node38&#45;&gt;Node44 -->
<g id="edge10" class="edge">
<title>Node38&#45;&gt;Node44</title>
<path fill="none" stroke="#191970" d="M508.3105,-123.0243C498.9241,-113.3398 488.1018,-102.1739 479.7689,-93.5765"/>
<polygon fill="#191970" stroke="#191970" points="505.9824,-125.6512 515.4554,-130.396 511.0089,-120.7793 505.9824,-125.6512"/>
</g>
<!-- Node46 -->
<g id="node13" class="node">
<title>Node46</title>
<g id="a_node13"><a xlink:href="../../dd/d1f/_arteries___model_c__gmrf__neumann_8hpp.html" target="_top" xlink:title="src/Arteries_ModelC\l_gmrf_neumann.hpp">
<polygon fill="#ffffff" stroke="#000000" points="537.9829,-65.5 537.9829,-93.5 646.2681,-93.5 646.2681,-65.5 537.9829,-65.5"/>
<text text-anchor="start" x="545.9829" y="-81.5" font-family="Helvetica,sans-Serif" font-size="10.00" fill="#000000">src/Arteries_ModelC</text>
<text text-anchor="middle" x="592.1255" y="-71.5" font-family="Helvetica,sans-Serif" font-size="10.00" fill="#000000">_gmrf_neumann.hpp</text>
</a>
</g>
</g>
<!-- Node38&#45;&gt;Node46 -->
<g id="edge12" class="edge">
<title>Node38&#45;&gt;Node46</title>
<path fill="none" stroke="#191970" d="M549.9404,-123.0243C559.3269,-113.3398 570.1492,-102.1739 578.4821,-93.5765"/>
<polygon fill="#191970" stroke="#191970" points="547.2421,-120.7793 542.7955,-130.396 552.2686,-125.6512 547.2421,-120.7793"/>
</g>
<!-- Node50 -->
<g id="node17" class="node">
<title>Node50</title>
<g id="a_node17"><a xlink:href="../../d0/d66/hyperelasticity__setup__pp_8cpp.html" target="_top" xlink:title="src/hyperelasticity\l_setup_pp.cpp">
<polygon fill="#ffffff" stroke="#000000" points="664.3916,-65.5 664.3916,-93.5 759.8594,-93.5 759.8594,-65.5 664.3916,-65.5"/>
<text text-anchor="start" x="672.3916" y="-81.5" font-family="Helvetica,sans-Serif" font-size="10.00" fill="#000000">src/hyperelasticity</text>
<text text-anchor="middle" x="712.1255" y="-71.5" font-family="Helvetica,sans-Serif" font-size="10.00" fill="#000000">_setup_pp.cpp</text>
</a>
</g>
</g>
<!-- Node38&#45;&gt;Node50 -->
<g id="edge16" class="edge">
<title>Node38&#45;&gt;Node50</title>
<path fill="none" stroke="#191970" d="M578.5207,-126.9553C607.9994,-116.4847 644.9345,-103.3656 672.4947,-93.5765"/>
<polygon fill="#191970" stroke="#191970" points="577.0855,-123.7507 568.8338,-130.396 579.4285,-130.347 577.0855,-123.7507"/>
</g>
<!-- Node40 -->
<g id="node7" class="node">
<title>Node40</title>
<g id="a_node7"><a xlink:href="../../de/da1/arteries_2deterministic__dirichlet_2main_8cpp.html" target="_top" xlink:title="arteries/deterministic\l_dirichlet/main.cpp">
<polygon fill="#ffffff" stroke="#000000" points="0,-.5 0,-28.5 108.251,-28.5 108.251,-.5 0,-.5"/>
<text text-anchor="start" x="8" y="-16.5" font-family="Helvetica,sans-Serif" font-size="10.00" fill="#000000">arteries/deterministic</text>
<text text-anchor="middle" x="54.1255" y="-6.5" font-family="Helvetica,sans-Serif" font-size="10.00" fill="#000000">_dirichlet/main.cpp</text>
</a>
</g>
</g>
<!-- Node39&#45;&gt;Node40 -->
<g id="edge6" class="edge">
<title>Node39&#45;&gt;Node40</title>
<path fill="none" stroke="#191970" d="M89.8047,-57.4472C81.872,-47.8986 72.8209,-37.0037 65.8198,-28.5765"/>
<polygon fill="#191970" stroke="#191970" points="87.3259,-59.9406 96.4083,-65.396 92.7102,-55.4675 87.3259,-59.9406"/>
</g>
<!-- Node42 -->
<g id="node9" class="node">
<title>Node42</title>
<g id="a_node9"><a xlink:href="../../d9/d81/arteries_2deterministic__neumann_2main_8cpp.html" target="_top" xlink:title="arteries/deterministic\l_neumann/main.cpp">
<polygon fill="#ffffff" stroke="#000000" points="126,-.5 126,-28.5 234.251,-28.5 234.251,-.5 126,-.5"/>
<text text-anchor="start" x="134" y="-16.5" font-family="Helvetica,sans-Serif" font-size="10.00" fill="#000000">arteries/deterministic</text>
<text text-anchor="middle" x="180.1255" y="-6.5" font-family="Helvetica,sans-Serif" font-size="10.00" fill="#000000">_neumann/main.cpp</text>
</a>
</g>
</g>
<!-- Node41&#45;&gt;Node42 -->
<g id="edge8" class="edge">
<title>Node41&#45;&gt;Node42</title>
<path fill="none" stroke="#191970" d="M281.2778,-61.1305C258.874,-50.8025 231.3416,-38.1103 210.6607,-28.5765"/>
<polygon fill="#191970" stroke="#191970" points="279.9838,-64.3879 290.5306,-65.396 282.9144,-58.0309 279.9838,-64.3879"/>
</g>
<!-- Node43 -->
<g id="node10" class="node">
<title>Node43</title>
<g id="a_node10"><a xlink:href="../../db/db7/arteries_2vonmises_2main_8cpp.html" target="_top" xlink:title="arteries/vonmises/main.cpp">
<polygon fill="#ffffff" stroke="#000000" points="252.2686,-5.5 252.2686,-23.5 389.9824,-23.5 389.9824,-5.5 252.2686,-5.5"/>
<text text-anchor="middle" x="321.1255" y="-11.5" font-family="Helvetica,sans-Serif" font-size="10.00" fill="#000000">arteries/vonmises/main.cpp</text>
</a>
</g>
</g>
<!-- Node41&#45;&gt;Node43 -->
<g id="edge9" class="edge">
<title>Node41&#45;&gt;Node43</title>
<path fill="none" stroke="#191970" d="M321.1255,-55.3747C321.1255,-44.2832 321.1255,-31.7952 321.1255,-23.5743"/>
<polygon fill="#191970" stroke="#191970" points="317.6256,-55.3959 321.1255,-65.396 324.6256,-55.396 317.6256,-55.3959"/>
</g>
<!-- Node45 -->
<g id="node12" class="node">
<title>Node45</title>
<g id="a_node12"><a xlink:href="../../dc/dba/arteries_2strip__dirichlet_2main_8cpp.html" target="_top" xlink:title="arteries/strip_dirichlet\l/main.cpp">
<polygon fill="#ffffff" stroke="#000000" points="407.6084,-.5 407.6084,-28.5 518.6426,-28.5 518.6426,-.5 407.6084,-.5"/>
<text text-anchor="start" x="415.6084" y="-16.5" font-family="Helvetica,sans-Serif" font-size="10.00" fill="#000000">arteries/strip_dirichlet</text>
<text text-anchor="middle" x="463.1255" y="-6.5" font-family="Helvetica,sans-Serif" font-size="10.00" fill="#000000">/main.cpp</text>
</a>
</g>
</g>
<!-- Node44&#45;&gt;Node45 -->
<g id="edge11" class="edge">
<title>Node44&#45;&gt;Node45</title>
<path fill="none" stroke="#191970" d="M465.0133,-55.4029C464.5964,-46.3703 464.1366,-36.4078 463.7752,-28.5765"/>
<polygon fill="#191970" stroke="#191970" points="461.5171,-55.568 465.4745,-65.396 468.5097,-55.2452 461.5171,-55.568"/>
</g>
<!-- Node47 -->
<g id="node14" class="node">
<title>Node47</title>
<g id="a_node14"><a xlink:href="../../d5/da5/arteries_2boost__gmrf_2gmrf__gauss_2main_8cpp.html" target="_top" xlink:title="arteries/boost_gmrf\l/gmrf_gauss/main.cpp">
<polygon fill="#ffffff" stroke="#000000" points="536.936,-.5 536.936,-28.5 651.3149,-28.5 651.3149,-.5 536.936,-.5"/>
<text text-anchor="start" x="544.936" y="-16.5" font-family="Helvetica,sans-Serif" font-size="10.00" fill="#000000">arteries/boost_gmrf</text>
<text text-anchor="middle" x="594.1255" y="-6.5" font-family="Helvetica,sans-Serif" font-size="10.00" fill="#000000">/gmrf_gauss/main.cpp</text>
</a>
</g>
</g>
<!-- Node46&#45;&gt;Node47 -->
<g id="edge13" class="edge">
<title>Node46&#45;&gt;Node47</title>
<path fill="none" stroke="#191970" d="M592.876,-55.1081C593.1515,-46.1539 593.454,-36.3227 593.6924,-28.5765"/>
<polygon fill="#191970" stroke="#191970" points="589.3688,-55.293 592.5595,-65.396 596.3654,-55.5084 589.3688,-55.293"/>
</g>
<!-- Node48 -->
<g id="node15" class="node">
<title>Node48</title>
<g id="a_node15"><a xlink:href="../../d2/dbe/arteries_2boost__gmrf_2gmrf__nodes_2main_8cpp.html" target="_top" xlink:title="arteries/boost_gmrf\l/gmrf_nodes/main.cpp">
<polygon fill="#ffffff" stroke="#000000" points="669.6553,-.5 669.6553,-28.5 784.5957,-28.5 784.5957,-.5 669.6553,-.5"/>
<text text-anchor="start" x="677.6553" y="-16.5" font-family="Helvetica,sans-Serif" font-size="10.00" fill="#000000">arteries/boost_gmrf</text>
<text text-anchor="middle" x="727.1255" y="-6.5" font-family="Helvetica,sans-Serif" font-size="10.00" fill="#000000">/gmrf_nodes/main.cpp</text>
</a>
</g>
</g>
<!-- Node46&#45;&gt;Node48 -->
<g id="edge14" class="edge">
<title>Node46&#45;&gt;Node48</title>
<path fill="none" stroke="#191970" d="M630.5651,-60.9921C651.9632,-50.6892 678.1772,-38.0677 697.8897,-28.5765"/>
<polygon fill="#191970" stroke="#191970" points="628.9101,-57.9042 621.4185,-65.396 631.9469,-64.2113 628.9101,-57.9042"/>
</g>
<!-- Node49 -->
<g id="node16" class="node">
<title>Node49</title>
<g id="a_node16"><a xlink:href="../../da/df3/arteries_2gmrf__neumann_2main_8cpp.html" target="_top" xlink:title="arteries/gmrf_neumann\l/main.cpp">
<polygon fill="#ffffff" stroke="#000000" points="802.4336,-.5 802.4336,-28.5 921.8174,-28.5 921.8174,-.5 802.4336,-.5"/>
<text text-anchor="start" x="810.4336" y="-16.5" font-family="Helvetica,sans-Serif" font-size="10.00" fill="#000000">arteries/gmrf_neumann</text>
<text text-anchor="middle" x="862.1255" y="-6.5" font-family="Helvetica,sans-Serif" font-size="10.00" fill="#000000">/main.cpp</text>
</a>
</g>
</g>
<!-- Node46&#45;&gt;Node49 -->
<g id="edge15" class="edge">
<title>Node46&#45;&gt;Node49</title>
<path fill="none" stroke="#191970" d="M656.3286,-64.0437C701.0668,-53.2734 760.2713,-39.0205 803.6902,-28.5678"/>
<polygon fill="#191970" stroke="#191970" points="655.3423,-60.6811 646.4392,-66.4245 656.9807,-67.4866 655.3423,-60.6811"/>
</g>
<!-- Node53 -->
<g id="node20" class="node">
<title>Node53</title>
<g id="a_node20"><a xlink:href="../../de/d5d/linear_patch_test_8hpp.html" target="_top" xlink:title="cee530/linearpatchtest\l/linearPatchTest.hpp">
<polygon fill="#ffffff" stroke="#000000" points="771.813,-130.5 771.813,-158.5 888.438,-158.5 888.438,-130.5 771.813,-130.5"/>
<text text-anchor="start" x="779.813" y="-146.5" font-family="Helvetica,sans-Serif" font-size="10.00" fill="#000000">cee530/linearpatchtest</text>
<text text-anchor="middle" x="830.1255" y="-136.5" font-family="Helvetica,sans-Serif" font-size="10.00" fill="#000000">/linearPatchTest.hpp</text>
</a>
</g>
</g>
<!-- Node52&#45;&gt;Node53 -->
<g id="edge19" class="edge">
<title>Node52&#45;&gt;Node53</title>
<path fill="none" stroke="#191970" d="M933.7361,-191.2687C910.8007,-180.9159 882.5256,-168.1528 861.3104,-158.5765"/>
<polygon fill="#191970" stroke="#191970" points="932.3252,-194.4718 942.8796,-195.396 935.2051,-188.0917 932.3252,-194.4718"/>
</g>
<!-- Node55 -->
<g id="node22" class="node">
<title>Node55</title>
<g id="a_node22"><a xlink:href="../../d4/d56/cee530_2manufactured_2manufactured_solution_8hpp.html" target="_top" xlink:title="cee530/manufactured\l/manufacturedSolution.hpp">
<polygon fill="#ffffff" stroke="#000000" points="906.3623,-130.5 906.3623,-158.5 1041.8887,-158.5 1041.8887,-130.5 906.3623,-130.5"/>
<text text-anchor="start" x="914.3623" y="-146.5" font-family="Helvetica,sans-Serif" font-size="10.00" fill="#000000">cee530/manufactured</text>
<text text-anchor="middle" x="974.1255" y="-136.5" font-family="Helvetica,sans-Serif" font-size="10.00" fill="#000000">/manufacturedSolution.hpp</text>
</a>
</g>
</g>
<!-- Node52&#45;&gt;Node55 -->
<g id="edge21" class="edge">
<title>Node52&#45;&gt;Node55</title>
<path fill="none" stroke="#191970" d="M974.1255,-185.1081C974.1255,-176.1539 974.1255,-166.3227 974.1255,-158.5765"/>
<polygon fill="#191970" stroke="#191970" points="970.6256,-185.3959 974.1255,-195.396 977.6256,-185.396 970.6256,-185.3959"/>
</g>
<!-- Node57 -->
<g id="node24" class="node">
<title>Node57</title>
<g id="a_node24"><a xlink:href="../../d4/d89/linearelasticity__setup__pp_8cpp.html" target="_top" xlink:title="src/linearelasticity\l_setup_pp.cpp">
<polygon fill="#ffffff" stroke="#000000" points="1059.6699,-130.5 1059.6699,-158.5 1154.5811,-158.5 1154.5811,-130.5 1059.6699,-130.5"/>
<text text-anchor="start" x="1067.6699" y="-146.5" font-family="Helvetica,sans-Serif" font-size="10.00" fill="#000000">src/linearelasticity</text>
<text text-anchor="middle" x="1107.1255" y="-136.5" font-family="Helvetica,sans-Serif" font-size="10.00" fill="#000000">_setup_pp.cpp</text>
</a>
</g>
</g>
<!-- Node52&#45;&gt;Node57 -->
<g id="edge23" class="edge">
<title>Node52&#45;&gt;Node57</title>
<path fill="none" stroke="#191970" d="M1011.9956,-190.9921C1033.0768,-180.6892 1058.9023,-168.0677 1078.3228,-158.5765"/>
<polygon fill="#191970" stroke="#191970" points="1010.4321,-187.8605 1002.9845,-195.396 1013.5058,-194.1496 1010.4321,-187.8605"/>
</g>
<!-- Node58 -->
<g id="node25" class="node">
<title>Node58</title>
<g id="a_node25"><a xlink:href="../../dd/d0f/orthotropic_r_f__laminate_8hpp.html" target="_top" xlink:title="src/orthotropicRF_laminate.hpp">
<polygon fill="#ffffff" stroke="#000000" points="1172.3721,-135.5 1172.3721,-153.5 1327.8789,-153.5 1327.8789,-135.5 1172.3721,-135.5"/>
<text text-anchor="middle" x="1250.1255" y="-141.5" font-family="Helvetica,sans-Serif" font-size="10.00" fill="#000000">src/orthotropicRF_laminate.hpp</text>
</a>
</g>
</g>
<!-- Node52&#45;&gt;Node58 -->
<g id="edge24" class="edge">
<title>Node52&#45;&gt;Node58</title>
<path fill="none" stroke="#191970" d="M1031.6733,-195.9471C1085.7405,-183.2138 1165.1254,-164.5181 1211.8288,-153.5192"/>
<polygon fill="#191970" stroke="#191970" points="1030.8173,-192.5528 1021.8859,-198.2521 1032.422,-199.3664 1030.8173,-192.5528"/>
</g>
<!-- Node54 -->
<g id="node21" class="node">
<title>Node54</title>
<g id="a_node21"><a xlink:href="../../d0/d30/cee530_2linearpatchtest_2main_8cpp.html" target="_top" xlink:title="cee530/linearpatchtest\l/main.cpp">
<polygon fill="#ffffff" stroke="#000000" points="777.813,-65.5 777.813,-93.5 894.438,-93.5 894.438,-65.5 777.813,-65.5"/>
<text text-anchor="start" x="785.813" y="-81.5" font-family="Helvetica,sans-Serif" font-size="10.00" fill="#000000">cee530/linearpatchtest</text>
<text text-anchor="middle" x="836.1255" y="-71.5" font-family="Helvetica,sans-Serif" font-size="10.00" fill="#000000">/main.cpp</text>
</a>
</g>
</g>
<!-- Node53&#45;&gt;Node54 -->
<g id="edge20" class="edge">
<title>Node53&#45;&gt;Node54</title>
<path fill="none" stroke="#191970" d="M832.3498,-120.4029C833.1836,-111.3703 834.1032,-101.4078 834.8261,-93.5765"/>
<polygon fill="#191970" stroke="#191970" points="828.8615,-120.1166 831.4274,-130.396 835.8318,-120.76 828.8615,-120.1166"/>
</g>
<!-- Node56 -->
<g id="node23" class="node">
<title>Node56</title>
<g id="a_node23"><a xlink:href="../../d8/d17/cee530_2manufactured_2main_8cpp.html" target="_top" xlink:title="cee530/manufactured\l/main.cpp">
<polygon fill="#ffffff" stroke="#000000" points="917.7588,-65.5 917.7588,-93.5 1030.4922,-93.5 1030.4922,-65.5 917.7588,-65.5"/>
<text text-anchor="start" x="925.7588" y="-81.5" font-family="Helvetica,sans-Serif" font-size="10.00" fill="#000000">cee530/manufactured</text>
<text text-anchor="middle" x="974.1255" y="-71.5" font-family="Helvetica,sans-Serif" font-size="10.00" fill="#000000">/main.cpp</text>
</a>
</g>
</g>
<!-- Node55&#45;&gt;Node56 -->
<g id="edge22" class="edge">
<title>Node55&#45;&gt;Node56</title>
<path fill="none" stroke="#191970" d="M974.1255,-120.1081C974.1255,-111.1539 974.1255,-101.3227 974.1255,-93.5765"/>
<polygon fill="#191970" stroke="#191970" points="970.6256,-120.3959 974.1255,-130.396 977.6256,-120.396 970.6256,-120.3959"/>
</g>
<!-- Node59 -->
<g id="node26" class="node">
<title>Node59</title>
<g id="a_node26"><a xlink:href="../../d2/ded/asme_2linearelaslam_2main_8cpp.html" target="_top" xlink:title="asme/linearelaslam\l/main.cpp">
<polygon fill="#ffffff" stroke="#000000" points="1199.0518,-65.5 1199.0518,-93.5 1301.1992,-93.5 1301.1992,-65.5 1199.0518,-65.5"/>
<text text-anchor="start" x="1207.0518" y="-81.5" font-family="Helvetica,sans-Serif" font-size="10.00" fill="#000000">asme/linearelaslam</text>
<text text-anchor="middle" x="1250.1255" y="-71.5" font-family="Helvetica,sans-Serif" font-size="10.00" fill="#000000">/main.cpp</text>
</a>
</g>
</g>
<!-- Node58&#45;&gt;Node59 -->
<g id="edge25" class="edge">
<title>Node58&#45;&gt;Node59</title>
<path fill="none" stroke="#191970" d="M1250.1255,-125.2652C1250.1255,-115.2384 1250.1255,-103.1782 1250.1255,-93.9559"/>
<polygon fill="#191970" stroke="#191970" points="1246.6256,-125.462 1250.1255,-135.462 1253.6256,-125.4621 1246.6256,-125.462"/>
</g>
</g>
</svg>
