<?xml version="1.0" encoding="UTF-8" standalone="no"?>
<!DOCTYPE svg PUBLIC "-//W3C//DTD SVG 1.1//EN"
 "http://www.w3.org/Graphics/SVG/1.1/DTD/svg11.dtd">
<!-- Generated by graphviz version 2.40.1 (20161225.0304)
 -->
<!-- Title: src/Linear_Finite_Element_Problem.hpp Pages: 1 -->
<svg width="1731pt" height="232pt"
 viewBox="0.00 0.00 1731.12 232.00" xmlns="http://www.w3.org/2000/svg" xmlns:xlink="http://www.w3.org/1999/xlink">
<g id="graph0" class="graph" transform="scale(1 1) rotate(0) translate(4 228)">
<title>src/Linear_Finite_Element_Problem.hpp</title>
<polygon fill="#ffffff" stroke="transparent" points="-4,4 -4,-228 1727.1177,-228 1727.1177,4 -4,4"/>
<!-- Node34 -->
<g id="node1" class="node">
<title>Node34</title>
<polygon fill="#bfbfbf" stroke="#000000" points="878.2808,-195.5 878.2808,-223.5 1010.4478,-223.5 1010.4478,-195.5 878.2808,-195.5"/>
<text text-anchor="start" x="886.2808" y="-211.5" font-family="Helvetica,sans-Serif" font-size="10.00" fill="#000000">src/Linear_Finite_Element</text>
<text text-anchor="middle" x="944.3643" y="-201.5" font-family="Helvetica,sans-Serif" font-size="10.00" fill="#000000">_Problem.hpp</text>
</g>
<!-- Node35 -->
<g id="node2" class="node">
<title>Node35</title>
<g id="a_node2"><a xlink:href="../../d5/d3f/laplacepp_8hpp.html" target="_top" xlink:title="src/laplacepp.hpp">
<polygon fill="#ffffff" stroke="#000000" points="545.1724,-135.5 545.1724,-153.5 639.5562,-153.5 639.5562,-135.5 545.1724,-135.5"/>
<text text-anchor="middle" x="592.3643" y="-141.5" font-family="Helvetica,sans-Serif" font-size="10.00" fill="#000000">src/laplacepp.hpp</text>
</a>
</g>
</g>
<!-- Node34&#45;&gt;Node35 -->
<g id="edge1" class="edge">
<title>Node34&#45;&gt;Node35</title>
<path fill="none" stroke="#191970" d="M868.1397,-195.4244C798.6713,-182.5965 698.2334,-164.0497 639.6852,-153.2382"/>
<polygon fill="#191970" stroke="#191970" points="867.6864,-198.8998 878.1558,-197.274 868.9576,-192.0162 867.6864,-198.8998"/>
</g>
<!-- Node49 -->
<g id="node16" class="node">
<title>Node49</title>
<g id="a_node16"><a xlink:href="../../d4/d4c/linearelasticity__setup__pp_8hpp.html" target="_top" xlink:title="src/linearelasticity\l_setup_pp.hpp">
<polygon fill="#ffffff" stroke="#000000" points="1321.9087,-130.5 1321.9087,-158.5 1416.8198,-158.5 1416.8198,-130.5 1321.9087,-130.5"/>
<text text-anchor="start" x="1329.9087" y="-146.5" font-family="Helvetica,sans-Serif" font-size="10.00" fill="#000000">src/linearelasticity</text>
<text text-anchor="middle" x="1369.3643" y="-136.5" font-family="Helvetica,sans-Serif" font-size="10.00" fill="#000000">_setup_pp.hpp</text>
</a>
</g>
</g>
<!-- Node34&#45;&gt;Node49 -->
<g id="edge15" class="edge">
<title>Node34&#45;&gt;Node49</title>
<path fill="none" stroke="#191970" d="M1020.9043,-197.7939C1108.3794,-184.4153 1248.8441,-162.9325 1321.8485,-151.7671"/>
<polygon fill="#191970" stroke="#191970" points="1020.1264,-194.3721 1010.7705,-199.3438 1021.1847,-201.2916 1020.1264,-194.3721"/>
</g>
<!-- Node36 -->
<g id="node3" class="node">
<title>Node36</title>
<g id="a_node3"><a xlink:href="../../d4/d0f/examples_2laplace__aztec_2main_8cpp.html" target="_top" xlink:title="examples/laplace_aztec\l/main.cpp">
<polygon fill="#ffffff" stroke="#000000" points="0,-65.5 0,-93.5 122.7285,-93.5 122.7285,-65.5 0,-65.5"/>
<text text-anchor="start" x="8" y="-81.5" font-family="Helvetica,sans-Serif" font-size="10.00" fill="#000000">examples/laplace_aztec</text>
<text text-anchor="middle" x="61.3643" y="-71.5" font-family="Helvetica,sans-Serif" font-size="10.00" fill="#000000">/main.cpp</text>
</a>
</g>
</g>
<!-- Node35&#45;&gt;Node36 -->
<g id="edge2" class="edge">
<title>Node35&#45;&gt;Node36</title>
<path fill="none" stroke="#191970" d="M534.9372,-139.9071C447.6565,-132.5408 276.5189,-116.5837 132.3643,-94 129.257,-93.5132 126.0794,-92.9832 122.8751,-92.4231"/>
<polygon fill="#191970" stroke="#191970" points="534.9009,-143.4162 545.158,-140.7627 535.4849,-136.4406 534.9009,-143.4162"/>
</g>
<!-- Node37 -->
<g id="node4" class="node">
<title>Node37</title>
<g id="a_node4"><a xlink:href="../../d8/d16/examples_2laplace__stratimikos_2main_8cpp.html" target="_top" xlink:title="examples/laplace_stratimikos\l/main.cpp">
<polygon fill="#ffffff" stroke="#000000" points="141.0591,-65.5 141.0591,-93.5 287.6694,-93.5 287.6694,-65.5 141.0591,-65.5"/>
<text text-anchor="start" x="149.0591" y="-81.5" font-family="Helvetica,sans-Serif" font-size="10.00" fill="#000000">examples/laplace_stratimikos</text>
<text text-anchor="middle" x="214.3643" y="-71.5" font-family="Helvetica,sans-Serif" font-size="10.00" fill="#000000">/main.cpp</text>
</a>
</g>
</g>
<!-- Node35&#45;&gt;Node37 -->
<g id="edge3" class="edge">
<title>Node35&#45;&gt;Node37</title>
<path fill="none" stroke="#191970" d="M535.1529,-134.7656C475.7125,-124.638 380.0077,-108.2925 297.3643,-94 294.1932,-93.4516 290.9542,-92.8903 287.6823,-92.3225"/>
<polygon fill="#191970" stroke="#191970" points="534.6496,-138.2302 545.0954,-136.4593 535.8251,-131.3296 534.6496,-138.2302"/>
</g>
<!-- Node38 -->
<g id="node5" class="node">
<title>Node38</title>
<g id="a_node5"><a xlink:href="../../de/db1/_dirichlet_inlet_outlet___polyconvex_h_g_o_8hpp.html" target="_top" xlink:title="src/DirichletInletOutlet\l_PolyconvexHGO.hpp">
<polygon fill="#ffffff" stroke="#000000" points="305.894,-65.5 305.894,-93.5 420.8345,-93.5 420.8345,-65.5 305.894,-65.5"/>
<text text-anchor="start" x="313.894" y="-81.5" font-family="Helvetica,sans-Serif" font-size="10.00" fill="#000000">src/DirichletInletOutlet</text>
<text text-anchor="middle" x="363.3643" y="-71.5" font-family="Helvetica,sans-Serif" font-size="10.00" fill="#000000">_PolyconvexHGO.hpp</text>
</a>
</g>
</g>
<!-- Node35&#45;&gt;Node38 -->
<g id="edge4" class="edge">
<title>Node35&#45;&gt;Node38</title>
<path fill="none" stroke="#191970" d="M550.6112,-132.6487C511.8476,-121.6459 454.0965,-105.2537 412.9921,-93.5865"/>
<polygon fill="#191970" stroke="#191970" points="549.9471,-136.0984 560.5228,-135.462 551.8585,-129.3644 549.9471,-136.0984"/>
</g>
<!-- Node40 -->
<g id="node7" class="node">
<title>Node40</title>
<g id="a_node7"><a xlink:href="../../d5/d6a/_dirichlet_strip_elongation___stochastic_polyconvex_h_g_o_8hpp.html" target="_top" xlink:title="src/DirichletStripElongation\l_StochasticPolyconvexHGO.hpp">
<polygon fill="#ffffff" stroke="#000000" points="438.8276,-65.5 438.8276,-93.5 599.9009,-93.5 599.9009,-65.5 438.8276,-65.5"/>
<text text-anchor="start" x="446.8276" y="-81.5" font-family="Helvetica,sans-Serif" font-size="10.00" fill="#000000">src/DirichletStripElongation</text>
<text text-anchor="middle" x="519.3643" y="-71.5" font-family="Helvetica,sans-Serif" font-size="10.00" fill="#000000">_StochasticPolyconvexHGO.hpp</text>
</a>
</g>
</g>
<!-- Node35&#45;&gt;Node40 -->
<g id="edge6" class="edge">
<title>Node35&#45;&gt;Node40</title>
<path fill="none" stroke="#191970" d="M574.5994,-128.682C562.6081,-118.0048 546.9154,-104.0319 535.3224,-93.7093"/>
<polygon fill="#191970" stroke="#191970" points="572.4179,-131.426 582.2139,-135.462 577.073,-126.198 572.4179,-131.426"/>
</g>
<!-- Node42 -->
<g id="node9" class="node">
<title>Node42</title>
<g id="a_node9"><a xlink:href="../../dc/d31/laplacepp_8cpp.html" target="_top" xlink:title="src/laplacepp.cpp">
<polygon fill="#ffffff" stroke="#000000" points="617.4531,-70.5 617.4531,-88.5 711.2754,-88.5 711.2754,-70.5 617.4531,-70.5"/>
<text text-anchor="middle" x="664.3643" y="-76.5" font-family="Helvetica,sans-Serif" font-size="10.00" fill="#000000">src/laplacepp.cpp</text>
</a>
</g>
</g>
<!-- Node35&#45;&gt;Node42 -->
<g id="edge8" class="edge">
<title>Node35&#45;&gt;Node42</title>
<path fill="none" stroke="#191970" d="M609.8329,-128.7297C623.637,-116.2676 642.4391,-99.2936 653.9717,-88.8821"/>
<polygon fill="#191970" stroke="#191970" points="607.4529,-126.163 602.3755,-135.462 612.1436,-131.3589 607.4529,-126.163"/>
</g>
<!-- Node43 -->
<g id="node10" class="node">
<title>Node43</title>
<g id="a_node10"><a xlink:href="../../da/ddf/_neumann_inner_surface___polyconvex_h_g_o_8hpp.html" target="_top" xlink:title="src/NeumannInnerSurface\l_PolyconvexHGO.hpp">
<polygon fill="#ffffff" stroke="#000000" points="729.0024,-65.5 729.0024,-93.5 861.7261,-93.5 861.7261,-65.5 729.0024,-65.5"/>
<text text-anchor="start" x="737.0024" y="-81.5" font-family="Helvetica,sans-Serif" font-size="10.00" fill="#000000">src/NeumannInnerSurface</text>
<text text-anchor="middle" x="795.3643" y="-71.5" font-family="Helvetica,sans-Serif" font-size="10.00" fill="#000000">_PolyconvexHGO.hpp</text>
</a>
</g>
</g>
<!-- Node35&#45;&gt;Node43 -->
<g id="edge9" class="edge">
<title>Node35&#45;&gt;Node43</title>
<path fill="none" stroke="#191970" d="M630.2578,-132.3666C664.6096,-121.3673 715.2436,-105.1544 751.371,-93.5865"/>
<polygon fill="#191970" stroke="#191970" points="629.0469,-129.0792 620.5905,-135.462 631.1816,-135.7458 629.0469,-129.0792"/>
</g>
<!-- Node45 -->
<g id="node12" class="node">
<title>Node45</title>
<g id="a_node12"><a xlink:href="../../da/d42/_neumann_inner_surface___stochastic_polyconvex_h_g_o_8hpp.html" target="_top" xlink:title="src/NeumannInnerSurface\l_StochasticPolyconvexHGO.hpp">
<polygon fill="#ffffff" stroke="#000000" points="879.8276,-65.5 879.8276,-93.5 1040.9009,-93.5 1040.9009,-65.5 879.8276,-65.5"/>
<text text-anchor="start" x="887.8276" y="-81.5" font-family="Helvetica,sans-Serif" font-size="10.00" fill="#000000">src/NeumannInnerSurface</text>
<text text-anchor="middle" x="960.3643" y="-71.5" font-family="Helvetica,sans-Serif" font-size="10.00" fill="#000000">_StochasticPolyconvexHGO.hpp</text>
</a>
</g>
</g>
<!-- Node35&#45;&gt;Node45 -->
<g id="edge11" class="edge">
<title>Node35&#45;&gt;Node45</title>
<path fill="none" stroke="#191970" d="M649.7344,-134.3667C711.8453,-123.396 811.3385,-105.8225 880.942,-93.5284"/>
<polygon fill="#191970" stroke="#191970" points="648.9592,-130.9493 639.7205,-136.1355 650.1768,-137.8426 648.9592,-130.9493"/>
</g>
<!-- Node39 -->
<g id="node6" class="node">
<title>Node39</title>
<g id="a_node6"><a xlink:href="../../de/da1/arteries_2deterministic__dirichlet_2main_8cpp.html" target="_top" xlink:title="arteries/deterministic\l_dirichlet/main.cpp">
<polygon fill="#ffffff" stroke="#000000" points="309.2388,-.5 309.2388,-28.5 417.4897,-28.5 417.4897,-.5 309.2388,-.5"/>
<text text-anchor="start" x="317.2388" y="-16.5" font-family="Helvetica,sans-Serif" font-size="10.00" fill="#000000">arteries/deterministic</text>
<text text-anchor="middle" x="363.3643" y="-6.5" font-family="Helvetica,sans-Serif" font-size="10.00" fill="#000000">_dirichlet/main.cpp</text>
</a>
</g>
</g>
<!-- Node38&#45;&gt;Node39 -->
<g id="edge5" class="edge">
<title>Node38&#45;&gt;Node39</title>
<path fill="none" stroke="#191970" d="M363.3643,-55.1081C363.3643,-46.1539 363.3643,-36.3227 363.3643,-28.5765"/>
<polygon fill="#191970" stroke="#191970" points="359.8644,-55.3959 363.3643,-65.396 366.8644,-55.396 359.8644,-55.3959"/>
</g>
<!-- Node41 -->
<g id="node8" class="node">
<title>Node41</title>
<g id="a_node8"><a xlink:href="../../dc/dba/arteries_2strip__dirichlet_2main_8cpp.html" target="_top" xlink:title="arteries/strip_dirichlet\l/main.cpp">
<polygon fill="#ffffff" stroke="#000000" points="463.8472,-.5 463.8472,-28.5 574.8813,-28.5 574.8813,-.5 463.8472,-.5"/>
<text text-anchor="start" x="471.8472" y="-16.5" font-family="Helvetica,sans-Serif" font-size="10.00" fill="#000000">arteries/strip_dirichlet</text>
<text text-anchor="middle" x="519.3643" y="-6.5" font-family="Helvetica,sans-Serif" font-size="10.00" fill="#000000">/main.cpp</text>
</a>
</g>
</g>
<!-- Node40&#45;&gt;Node41 -->
<g id="edge7" class="edge">
<title>Node40&#45;&gt;Node41</title>
<path fill="none" stroke="#191970" d="M519.3643,-55.1081C519.3643,-46.1539 519.3643,-36.3227 519.3643,-28.5765"/>
<polygon fill="#191970" stroke="#191970" points="515.8644,-55.3959 519.3643,-65.396 522.8644,-55.396 515.8644,-55.3959"/>
</g>
<!-- Node44 -->
<g id="node11" class="node">
<title>Node44</title>
<g id="a_node11"><a xlink:href="../../d9/d81/arteries_2deterministic__neumann_2main_8cpp.html" target="_top" xlink:title="arteries/deterministic\l_neumann/main.cpp">
<polygon fill="#ffffff" stroke="#000000" points="644.2388,-.5 644.2388,-28.5 752.4897,-28.5 752.4897,-.5 644.2388,-.5"/>
<text text-anchor="start" x="652.2388" y="-16.5" font-family="Helvetica,sans-Serif" font-size="10.00" fill="#000000">arteries/deterministic</text>
<text text-anchor="middle" x="698.3643" y="-6.5" font-family="Helvetica,sans-Serif" font-size="10.00" fill="#000000">_neumann/main.cpp</text>
</a>
</g>
</g>
<!-- Node43&#45;&gt;Node44 -->
<g id="edge10" class="edge">
<title>Node43&#45;&gt;Node44</title>
<path fill="none" stroke="#191970" d="M765.8668,-59.7337C750.857,-49.6755 732.9629,-37.6847 719.3707,-28.5765"/>
<polygon fill="#191970" stroke="#191970" points="764.061,-62.7367 774.3167,-65.396 767.9578,-56.9216 764.061,-62.7367"/>
</g>
<!-- Node46 -->
<g id="node13" class="node">
<title>Node46</title>
<g id="a_node13"><a xlink:href="../../d5/da5/arteries_2boost__gmrf_2gmrf__gauss_2main_8cpp.html" target="_top" xlink:title="arteries/boost_gmrf\l/gmrf_gauss/main.cpp">
<polygon fill="#ffffff" stroke="#000000" points="770.1748,-.5 770.1748,-28.5 884.5537,-28.5 884.5537,-.5 770.1748,-.5"/>
<text text-anchor="start" x="778.1748" y="-16.5" font-family="Helvetica,sans-Serif" font-size="10.00" fill="#000000">arteries/boost_gmrf</text>
<text text-anchor="middle" x="827.3643" y="-6.5" font-family="Helvetica,sans-Serif" font-size="10.00" fill="#000000">/gmrf_gauss/main.cpp</text>
</a>
</g>
</g>
<!-- Node45&#45;&gt;Node46 -->
<g id="edge12" class="edge">
<title>Node45&#45;&gt;Node46</title>
<path fill="none" stroke="#191970" d="M922.4942,-60.9921C901.413,-50.6892 875.5874,-38.0677 856.167,-28.5765"/>
<polygon fill="#191970" stroke="#191970" points="920.984,-64.1496 931.5052,-65.396 924.0576,-57.8605 920.984,-64.1496"/>
</g>
<!-- Node47 -->
<g id="node14" class="node">
<title>Node47</title>
<g id="a_node14"><a xlink:href="../../d2/dbe/arteries_2boost__gmrf_2gmrf__nodes_2main_8cpp.html" target="_top" xlink:title="arteries/boost_gmrf\l/gmrf_nodes/main.cpp">
<polygon fill="#ffffff" stroke="#000000" points="902.894,-.5 902.894,-28.5 1017.8345,-28.5 1017.8345,-.5 902.894,-.5"/>
<text text-anchor="start" x="910.894" y="-16.5" font-family="Helvetica,sans-Serif" font-size="10.00" fill="#000000">arteries/boost_gmrf</text>
<text text-anchor="middle" x="960.3643" y="-6.5" font-family="Helvetica,sans-Serif" font-size="10.00" fill="#000000">/gmrf_nodes/main.cpp</text>
</a>
</g>
</g>
<!-- Node45&#45;&gt;Node47 -->
<g id="edge13" class="edge">
<title>Node45&#45;&gt;Node47</title>
<path fill="none" stroke="#191970" d="M960.3643,-55.1081C960.3643,-46.1539 960.3643,-36.3227 960.3643,-28.5765"/>
<polygon fill="#191970" stroke="#191970" points="956.8644,-55.3959 960.3643,-65.396 963.8644,-55.396 956.8644,-55.3959"/>
</g>
<!-- Node48 -->
<g id="node15" class="node">
<title>Node48</title>
<g id="a_node15"><a xlink:href="../../da/df3/arteries_2gmrf__neumann_2main_8cpp.html" target="_top" xlink:title="arteries/gmrf_neumann\l/main.cpp">
<polygon fill="#ffffff" stroke="#000000" points="1035.6724,-.5 1035.6724,-28.5 1155.0562,-28.5 1155.0562,-.5 1035.6724,-.5"/>
<text text-anchor="start" x="1043.6724" y="-16.5" font-family="Helvetica,sans-Serif" font-size="10.00" fill="#000000">arteries/gmrf_neumann</text>
<text text-anchor="middle" x="1095.3643" y="-6.5" font-family="Helvetica,sans-Serif" font-size="10.00" fill="#000000">/main.cpp</text>
</a>
</g>
</g>
<!-- Node45&#45;&gt;Node48 -->
<g id="edge14" class="edge">
<title>Node45&#45;&gt;Node48</title>
<path fill="none" stroke="#191970" d="M998.8038,-60.9921C1020.202,-50.6892 1046.4159,-38.0677 1066.1284,-28.5765"/>
<polygon fill="#191970" stroke="#191970" points="997.1489,-57.9042 989.6572,-65.396 1000.1856,-64.2113 997.1489,-57.9042"/>
</g>
<!-- Node50 -->
<g id="node17" class="node">
<title>Node50</title>
<g id="a_node17"><a xlink:href="../../de/d5d/linear_patch_test_8hpp.html" target="_top" xlink:title="cee530/linearpatchtest\l/linearPatchTest.hpp">
<polygon fill="#ffffff" stroke="#000000" points="1167.0518,-65.5 1167.0518,-93.5 1283.6768,-93.5 1283.6768,-65.5 1167.0518,-65.5"/>
<text text-anchor="start" x="1175.0518" y="-81.5" font-family="Helvetica,sans-Serif" font-size="10.00" fill="#000000">cee530/linearpatchtest</text>
<text text-anchor="middle" x="1225.3643" y="-71.5" font-family="Helvetica,sans-Serif" font-size="10.00" fill="#000000">/linearPatchTest.hpp</text>
</a>
</g>
</g>
<!-- Node49&#45;&gt;Node50 -->
<g id="edge16" class="edge">
<title>Node49&#45;&gt;Node50</title>
<path fill="none" stroke="#191970" d="M1328.9749,-126.2687C1306.0394,-115.9159 1277.7644,-103.1528 1256.5491,-93.5765"/>
<polygon fill="#191970" stroke="#191970" points="1327.5639,-129.4718 1338.1184,-130.396 1330.4439,-123.0917 1327.5639,-129.4718"/>
</g>
<!-- Node52 -->
<g id="node19" class="node">
<title>Node52</title>
<g id="a_node19"><a xlink:href="../../d4/d56/cee530_2manufactured_2manufactured_solution_8hpp.html" target="_top" xlink:title="cee530/manufactured\l/manufacturedSolution.hpp">
<polygon fill="#ffffff" stroke="#000000" points="1301.6011,-65.5 1301.6011,-93.5 1437.1274,-93.5 1437.1274,-65.5 1301.6011,-65.5"/>
<text text-anchor="start" x="1309.6011" y="-81.5" font-family="Helvetica,sans-Serif" font-size="10.00" fill="#000000">cee530/manufactured</text>
<text text-anchor="middle" x="1369.3643" y="-71.5" font-family="Helvetica,sans-Serif" font-size="10.00" fill="#000000">/manufacturedSolution.hpp</text>
</a>
</g>
</g>
<!-- Node49&#45;&gt;Node52 -->
<g id="edge18" class="edge">
<title>Node49&#45;&gt;Node52</title>
<path fill="none" stroke="#191970" d="M1369.3643,-120.1081C1369.3643,-111.1539 1369.3643,-101.3227 1369.3643,-93.5765"/>
<polygon fill="#191970" stroke="#191970" points="1365.8644,-120.3959 1369.3643,-130.396 1372.8644,-120.396 1365.8644,-120.3959"/>
</g>
<!-- Node54 -->
<g id="node21" class="node">
<title>Node54</title>
<g id="a_node21"><a xlink:href="../../d4/d89/linearelasticity__setup__pp_8cpp.html" target="_top" xlink:title="src/linearelasticity\l_setup_pp.cpp">
<polygon fill="#ffffff" stroke="#000000" points="1454.9087,-65.5 1454.9087,-93.5 1549.8198,-93.5 1549.8198,-65.5 1454.9087,-65.5"/>
<text text-anchor="start" x="1462.9087" y="-81.5" font-family="Helvetica,sans-Serif" font-size="10.00" fill="#000000">src/linearelasticity</text>
<text text-anchor="middle" x="1502.3643" y="-71.5" font-family="Helvetica,sans-Serif" font-size="10.00" fill="#000000">_setup_pp.cpp</text>
</a>
</g>
</g>
<!-- Node49&#45;&gt;Node54 -->
<g id="edge20" class="edge">
<title>Node49&#45;&gt;Node54</title>
<path fill="none" stroke="#191970" d="M1407.2344,-125.9921C1428.3155,-115.6892 1454.1411,-103.0677 1473.5616,-93.5765"/>
<polygon fill="#191970" stroke="#191970" points="1405.6709,-122.8605 1398.2233,-130.396 1408.7446,-129.1496 1405.6709,-122.8605"/>
</g>
<!-- Node55 -->
<g id="node22" class="node">
<title>Node55</title>
<g id="a_node22"><a xlink:href="../../dd/d0f/orthotropic_r_f__laminate_8hpp.html" target="_top" xlink:title="src/orthotropicRF_laminate.hpp">
<polygon fill="#ffffff" stroke="#000000" points="1567.6108,-70.5 1567.6108,-88.5 1723.1177,-88.5 1723.1177,-70.5 1567.6108,-70.5"/>
<text text-anchor="middle" x="1645.3643" y="-76.5" font-family="Helvetica,sans-Serif" font-size="10.00" fill="#000000">src/orthotropicRF_laminate.hpp</text>
</a>
</g>
</g>
<!-- Node49&#45;&gt;Node55 -->
<g id="edge21" class="edge">
<title>Node49&#45;&gt;Node55</title>
<path fill="none" stroke="#191970" d="M1426.912,-130.9471C1480.9793,-118.2138 1560.3642,-99.5181 1607.0675,-88.5192"/>
<polygon fill="#191970" stroke="#191970" points="1426.0561,-127.5528 1417.1247,-133.2521 1427.6608,-134.3664 1426.0561,-127.5528"/>
</g>
<!-- Node51 -->
<g id="node18" class="node">
<title>Node51</title>
<g id="a_node18"><a xlink:href="../../d0/d30/cee530_2linearpatchtest_2main_8cpp.html" target="_top" xlink:title="cee530/linearpatchtest\l/main.cpp">
<polygon fill="#ffffff" stroke="#000000" points="1173.0518,-.5 1173.0518,-28.5 1289.6768,-28.5 1289.6768,-.5 1173.0518,-.5"/>
<text text-anchor="start" x="1181.0518" y="-16.5" font-family="Helvetica,sans-Serif" font-size="10.00" fill="#000000">cee530/linearpatchtest</text>
<text text-anchor="middle" x="1231.3643" y="-6.5" font-family="Helvetica,sans-Serif" font-size="10.00" fill="#000000">/main.cpp</text>
</a>
</g>
</g>
<!-- Node50&#45;&gt;Node51 -->
<g id="edge17" class="edge">
<title>Node50&#45;&gt;Node51</title>
<path fill="none" stroke="#191970" d="M1227.5886,-55.4029C1228.4224,-46.3703 1229.342,-36.4078 1230.0649,-28.5765"/>
<polygon fill="#191970" stroke="#191970" points="1224.1002,-55.1166 1226.6662,-65.396 1231.0706,-55.76 1224.1002,-55.1166"/>
</g>
<!-- Node53 -->
<g id="node20" class="node">
<title>Node53</title>
<g id="a_node20"><a xlink:href="../../d8/d17/cee530_2manufactured_2main_8cpp.html" target="_top" xlink:title="cee530/manufactured\l/main.cpp">
<polygon fill="#ffffff" stroke="#000000" points="1312.9976,-.5 1312.9976,-28.5 1425.731,-28.5 1425.731,-.5 1312.9976,-.5"/>
<text text-anchor="start" x="1320.9976" y="-16.5" font-family="Helvetica,sans-Serif" font-size="10.00" fill="#000000">cee530/manufactured</text>
<text text-anchor="middle" x="1369.3643" y="-6.5" font-family="Helvetica,sans-Serif" font-size="10.00" fill="#000000">/main.cpp</text>
</a>
</g>
</g>
<!-- Node52&#45;&gt;Node53 -->
<g id="edge19" class="edge">
<title>Node52&#45;&gt;Node53</title>
<path fill="none" stroke="#191970" d="M1369.3643,-55.1081C1369.3643,-46.1539 1369.3643,-36.3227 1369.3643,-28.5765"/>
<polygon fill="#191970" stroke="#191970" points="1365.8644,-55.3959 1369.3643,-65.396 1372.8644,-55.396 1365.8644,-55.3959"/>
</g>
<!-- Node56 -->
<g id="node23" class="node">
<title>Node56</title>
<g id="a_node23"><a xlink:href="../../d2/ded/asme_2linearelaslam_2main_8cpp.html" target="_top" xlink:title="asme/linearelaslam\l/main.cpp">
<polygon fill="#ffffff" stroke="#000000" points="1594.2905,-.5 1594.2905,-28.5 1696.438,-28.5 1696.438,-.5 1594.2905,-.5"/>
<text text-anchor="start" x="1602.2905" y="-16.5" font-family="Helvetica,sans-Serif" font-size="10.00" fill="#000000">asme/linearelaslam</text>
<text text-anchor="middle" x="1645.3643" y="-6.5" font-family="Helvetica,sans-Serif" font-size="10.00" fill="#000000">/main.cpp</text>
</a>
</g>
</g>
<!-- Node55&#45;&gt;Node56 -->
<g id="edge22" class="edge">
<title>Node55&#45;&gt;Node56</title>
<path fill="none" stroke="#191970" d="M1645.3643,-60.2652C1645.3643,-50.2384 1645.3643,-38.1782 1645.3643,-28.9559"/>
<polygon fill="#191970" stroke="#191970" points="1641.8644,-60.462 1645.3643,-70.462 1648.8644,-60.4621 1641.8644,-60.462"/>
</g>
</g>
</svg>
