<?xml version="1.0" encoding="UTF-8" standalone="no"?>
<!DOCTYPE svg PUBLIC "-//W3C//DTD SVG 1.1//EN"
 "http://www.w3.org/Graphics/SVG/1.1/DTD/svg11.dtd">
<!-- Generated by graphviz version 2.40.1 (20161225.0304)
 -->
<!-- Title: asme/linearelaslam/main.cpp Pages: 1 -->
<svg width="3062pt" height="285pt"
 viewBox="0.00 0.00 3062.00 285.00" xmlns="http://www.w3.org/2000/svg" xmlns:xlink="http://www.w3.org/1999/xlink">
<g id="graph0" class="graph" transform="scale(1 1) rotate(0) translate(4 281)">
<title>asme/linearelaslam/main.cpp</title>
<polygon fill="#ffffff" stroke="transparent" points="-4,4 -4,-281 3058,-281 3058,4 -4,4"/>
<!-- Node0 -->
<g id="node1" class="node">
<title>Node0</title>
<polygon fill="#bfbfbf" stroke="#000000" points="754.5,-246.5 754.5,-276.5 855.5,-276.5 855.5,-246.5 754.5,-246.5"/>
<text text-anchor="start" x="762.5" y="-264.5" font-family="Helvetica,sans-Serif" font-size="10.00" fill="#000000">asme/linearelaslam</text>
<text text-anchor="middle" x="805" y="-253.5" font-family="Helvetica,sans-Serif" font-size="10.00" fill="#000000">/main.cpp</text>
</g>
<!-- Node1 -->
<g id="node2" class="node">
<title>Node1</title>
<polygon fill="#ffffff" stroke="#bfbfbf" points="0,-185 0,-204 108,-204 108,-185 0,-185"/>
<text text-anchor="middle" x="54" y="-192" font-family="Helvetica,sans-Serif" font-size="10.00" fill="#000000">Epetra_ConfigDefs.h</text>
</g>
<!-- Node0&#45;&gt;Node1 -->
<g id="edge1" class="edge">
<title>Node0&#45;&gt;Node1</title>
<path fill="none" stroke="#191970" d="M754.1701,-260.5852C639.706,-257.8958 353.2784,-247.6404 117,-210 111.0142,-209.0464 104.7612,-207.8089 98.6178,-206.4488"/>
<polygon fill="#191970" stroke="#191970" points="98.9829,-202.94 88.4488,-204.0729 97.3902,-209.7564 98.9829,-202.94"/>
</g>
<!-- Node2 -->
<g id="node3" class="node">
<title>Node2</title>
<polygon fill="#ffffff" stroke="#bfbfbf" points="126.5,-185 126.5,-204 239.5,-204 239.5,-185 126.5,-185"/>
<text text-anchor="middle" x="183" y="-192" font-family="Helvetica,sans-Serif" font-size="10.00" fill="#000000">Epetra_SerialComm.h</text>
</g>
<!-- Node0&#45;&gt;Node2 -->
<g id="edge2" class="edge">
<title>Node0&#45;&gt;Node2</title>
<path fill="none" stroke="#191970" d="M754.2271,-258.8265C656.7885,-253.2383 436.9942,-238.4185 254,-210 247.1313,-208.9333 239.9307,-207.6079 232.8591,-206.1844"/>
<polygon fill="#191970" stroke="#191970" points="233.1492,-202.6694 222.6444,-204.0475 231.7158,-209.5211 233.1492,-202.6694"/>
</g>
<!-- Node3 -->
<g id="node4" class="node">
<title>Node3</title>
<polygon fill="#ffffff" stroke="#bfbfbf" points="239,-.5 239,-19.5 339,-19.5 339,-.5 239,-.5"/>
<text text-anchor="middle" x="289" y="-7.5" font-family="Helvetica,sans-Serif" font-size="10.00" fill="#000000">Teuchos_RCP.hpp</text>
</g>
<!-- Node0&#45;&gt;Node3 -->
<g id="edge3" class="edge">
<title>Node0&#45;&gt;Node3</title>
<path fill="none" stroke="#191970" d="M754.3092,-260.2441C630.0272,-256.6434 318.0127,-244.2489 287,-210 241.3112,-159.5436 266.7658,-69.0903 281.1997,-29.4788"/>
<polygon fill="#191970" stroke="#191970" points="284.5457,-30.5267 284.8286,-19.9356 278.0028,-28.0387 284.5457,-30.5267"/>
</g>
<!-- Node4 -->
<g id="node5" class="node">
<title>Node4</title>
<polygon fill="#ffffff" stroke="#bfbfbf" points="296,-185 296,-204 348,-204 348,-185 296,-185"/>
<text text-anchor="middle" x="322" y="-192" font-family="Helvetica,sans-Serif" font-size="10.00" fill="#000000">Ifpack.h</text>
</g>
<!-- Node0&#45;&gt;Node4 -->
<g id="edge4" class="edge">
<title>Node0&#45;&gt;Node4</title>
<path fill="none" stroke="#191970" d="M754.1354,-257.5972C653.1738,-249.5318 430.8435,-230.0934 357,-210 354.8118,-209.4046 352.585,-208.6924 350.3688,-207.9053"/>
<polygon fill="#191970" stroke="#191970" points="351.458,-204.5713 340.8734,-204.1038 348.8562,-211.0699 351.458,-204.5713"/>
</g>
<!-- Node5 -->
<g id="node6" class="node">
<title>Node5</title>
<polygon fill="#ffffff" stroke="#bfbfbf" points="366.5,-185 366.5,-204 497.5,-204 497.5,-185 366.5,-185"/>
<text text-anchor="middle" x="432" y="-192" font-family="Helvetica,sans-Serif" font-size="10.00" fill="#000000">Ifpack_AdditiveSchwarz.h</text>
</g>
<!-- Node0&#45;&gt;Node5 -->
<g id="edge5" class="edge">
<title>Node0&#45;&gt;Node5</title>
<path fill="none" stroke="#191970" d="M754.2904,-253.2547C694.9165,-243.4807 593.6597,-226.4385 507,-210 500.4174,-208.7514 493.5204,-207.3937 486.6877,-206.0184"/>
<polygon fill="#191970" stroke="#191970" points="487.264,-202.564 476.7672,-204.0013 485.8693,-209.4237 487.264,-202.564"/>
</g>
<!-- Node6 -->
<g id="node7" class="node">
<title>Node6</title>
<polygon fill="#ffffff" stroke="#bfbfbf" points="516,-185 516,-204 638,-204 638,-185 516,-185"/>
<text text-anchor="middle" x="577" y="-192" font-family="Helvetica,sans-Serif" font-size="10.00" fill="#000000">BelosLinearProblem.hpp</text>
</g>
<!-- Node0&#45;&gt;Node6 -->
<g id="edge6" class="edge">
<title>Node0&#45;&gt;Node6</title>
<path fill="none" stroke="#191970" d="M754.3994,-246.6305C713.8142,-234.7042 657.5099,-218.1586 619.2981,-206.9297"/>
<polygon fill="#191970" stroke="#191970" points="620.0928,-203.5153 609.5116,-204.0539 618.1192,-210.2313 620.0928,-203.5153"/>
</g>
<!-- Node7 -->
<g id="node8" class="node">
<title>Node7</title>
<polygon fill="#ffffff" stroke="#bfbfbf" points="656.5,-185 656.5,-204 801.5,-204 801.5,-185 656.5,-185"/>
<text text-anchor="middle" x="729" y="-192" font-family="Helvetica,sans-Serif" font-size="10.00" fill="#000000">BelosBlockGmresSolMgr.hpp</text>
</g>
<!-- Node0&#45;&gt;Node7 -->
<g id="edge7" class="edge">
<title>Node0&#45;&gt;Node7</title>
<path fill="none" stroke="#191970" d="M787.7544,-246.2967C775.7983,-235.7564 759.8881,-221.7303 747.6396,-210.9323"/>
<polygon fill="#191970" stroke="#191970" points="749.6543,-208.0425 739.8385,-204.055 745.0252,-213.2934 749.6543,-208.0425"/>
</g>
<!-- Node8 -->
<g id="node9" class="node">
<title>Node8</title>
<polygon fill="#ffffff" stroke="#bfbfbf" points="820,-185 820,-204 942,-204 942,-185 820,-185"/>
<text text-anchor="middle" x="881" y="-192" font-family="Helvetica,sans-Serif" font-size="10.00" fill="#000000">BelosEpetraAdapter.hpp</text>
</g>
<!-- Node0&#45;&gt;Node8 -->
<g id="edge8" class="edge">
<title>Node0&#45;&gt;Node8</title>
<path fill="none" stroke="#191970" d="M822.2456,-246.2967C834.2017,-235.7564 850.1119,-221.7303 862.3604,-210.9323"/>
<polygon fill="#191970" stroke="#191970" points="864.9748,-213.2934 870.1615,-204.055 860.3457,-208.0425 864.9748,-213.2934"/>
</g>
<!-- Node9 -->
<g id="node10" class="node">
<title>Node9</title>
<polygon fill="#ffffff" stroke="#bfbfbf" points="960.5,-185 960.5,-204 1081.5,-204 1081.5,-185 960.5,-185"/>
<text text-anchor="middle" x="1021" y="-192" font-family="Helvetica,sans-Serif" font-size="10.00" fill="#000000">BelosSolverFactory.hpp</text>
</g>
<!-- Node0&#45;&gt;Node9 -->
<g id="edge9" class="edge">
<title>Node0&#45;&gt;Node9</title>
<path fill="none" stroke="#191970" d="M853.4746,-246.4639C891.7894,-234.5792 944.6399,-218.1858 980.6668,-207.0108"/>
<polygon fill="#191970" stroke="#191970" points="981.8419,-210.3108 990.3561,-204.0053 979.7681,-203.6251 981.8419,-210.3108"/>
</g>
<!-- Node10 -->
<g id="node11" class="node">
<title>Node10</title>
<polygon fill="#ffffff" stroke="#bfbfbf" points="1100,-185 1100,-204 1276,-204 1276,-185 1100,-185"/>
<text text-anchor="middle" x="1188" y="-192" font-family="Helvetica,sans-Serif" font-size="10.00" fill="#000000">Teuchos_StandardCatchMacros.hpp</text>
</g>
<!-- Node0&#45;&gt;Node10 -->
<g id="edge10" class="edge">
<title>Node0&#45;&gt;Node10</title>
<path fill="none" stroke="#191970" d="M855.8594,-252.6029C924.8948,-240.5262 1048.2767,-218.9425 1123.6696,-205.7536"/>
<polygon fill="#191970" stroke="#191970" points="1124.2778,-209.2005 1133.525,-204.0296 1123.0715,-202.3052 1124.2778,-209.2005"/>
</g>
<!-- Node11 -->
<g id="node12" class="node">
<title>Node11</title>
<polygon fill="#ffffff" stroke="#bfbfbf" points="1294.5,-185 1294.5,-204 1433.5,-204 1433.5,-185 1294.5,-185"/>
<text text-anchor="middle" x="1364" y="-192" font-family="Helvetica,sans-Serif" font-size="10.00" fill="#000000">Teuchos_ParameterList.hpp</text>
</g>
<!-- Node0&#45;&gt;Node11 -->
<g id="edge11" class="edge">
<title>Node0&#45;&gt;Node11</title>
<path fill="none" stroke="#191970" d="M855.6337,-257.5237C943.3698,-250.3091 1129.2108,-233.595 1285,-210 1292.7733,-208.8227 1300.9447,-207.4144 1308.9639,-205.9335"/>
<polygon fill="#191970" stroke="#191970" points="1309.826,-209.3325 1318.9989,-204.0308 1308.5219,-202.4551 1309.826,-209.3325"/>
</g>
<!-- Node12 -->
<g id="node13" class="node">
<title>Node12</title>
<polygon fill="#ffffff" stroke="#bfbfbf" points="1452,-179.5 1452,-209.5 1592,-209.5 1592,-179.5 1452,-179.5"/>
<text text-anchor="start" x="1460" y="-197.5" font-family="Helvetica,sans-Serif" font-size="10.00" fill="#000000">Teuchos_XMLParameterList</text>
<text text-anchor="middle" x="1522" y="-186.5" font-family="Helvetica,sans-Serif" font-size="10.00" fill="#000000">CoreHelpers.hpp</text>
</g>
<!-- Node0&#45;&gt;Node12 -->
<g id="edge12" class="edge">
<title>Node0&#45;&gt;Node12</title>
<path fill="none" stroke="#191970" d="M855.5775,-259.3163C962.0587,-254.3074 1217.2746,-240.1385 1441.8385,-209.9094"/>
<polygon fill="#191970" stroke="#191970" points="1442.3956,-213.366 1451.8328,-208.5506 1441.4525,-206.4298 1442.3956,-213.366"/>
</g>
<!-- Node13 -->
<g id="node14" class="node">
<title>Node13</title>
<polygon fill="#ffffff" stroke="#bfbfbf" points="1610.5,-179.5 1610.5,-209.5 1739.5,-209.5 1739.5,-179.5 1610.5,-179.5"/>
<text text-anchor="start" x="1618.5" y="-197.5" font-family="Helvetica,sans-Serif" font-size="10.00" fill="#000000">Stratimikos_DefaultLinear</text>
<text text-anchor="middle" x="1675" y="-186.5" font-family="Helvetica,sans-Serif" font-size="10.00" fill="#000000">SolverBuilder.hpp</text>
</g>
<!-- Node0&#45;&gt;Node13 -->
<g id="edge13" class="edge">
<title>Node0&#45;&gt;Node13</title>
<path fill="none" stroke="#191970" d="M855.5383,-260.7138C980.3369,-258.2406 1313.1626,-248.4084 1599.9369,-210.0113"/>
<polygon fill="#191970" stroke="#191970" points="1600.6782,-213.443 1610.1185,-208.6333 1599.7394,-206.5062 1600.6782,-213.443"/>
</g>
<!-- Node14 -->
<g id="node15" class="node">
<title>Node14</title>
<g id="a_node15"><a xlink:href="../../dc/d64/asme_s_b_v_p_8hpp.html" target="_top" xlink:title="asmeSBVP.hpp">
<polygon fill="#ffffff" stroke="#000000" points="1758,-185 1758,-204 1844,-204 1844,-185 1758,-185"/>
<text text-anchor="middle" x="1801" y="-192" font-family="Helvetica,sans-Serif" font-size="10.00" fill="#000000">asmeSBVP.hpp</text>
</a>
</g>
</g>
<!-- Node0&#45;&gt;Node14 -->
<g id="edge14" class="edge">
<title>Node0&#45;&gt;Node14</title>
<path fill="none" stroke="#191970" d="M855.5576,-260.2715C1025.3096,-255.9069 1573.9678,-239.7912 1748,-210 1752.8812,-209.1644 1757.9504,-208.035 1762.9331,-206.7642"/>
<polygon fill="#191970" stroke="#191970" points="1764.2389,-210.0351 1772.9512,-204.0064 1762.3809,-203.2861 1764.2389,-210.0351"/>
</g>
<!-- Node15 -->
<g id="node16" class="node">
<title>Node15</title>
<g id="a_node16"><a xlink:href="../../d4/d27/shinozukapp__layeredcomp_8hpp.html" target="_top" xlink:title="shinozukapp_layeredcomp.hpp">
<polygon fill="#ffffff" stroke="#000000" points="1722.5,-123.5 1722.5,-142.5 1873.5,-142.5 1873.5,-123.5 1722.5,-123.5"/>
<text text-anchor="middle" x="1798" y="-130.5" font-family="Helvetica,sans-Serif" font-size="10.00" fill="#000000">shinozukapp_layeredcomp.hpp</text>
</a>
</g>
</g>
<!-- Node14&#45;&gt;Node15 -->
<g id="edge15" class="edge">
<title>Node14&#45;&gt;Node15</title>
<path fill="none" stroke="#191970" d="M1800.5313,-184.8906C1800.1154,-176.3657 1799.4946,-163.6392 1798.9719,-152.9235"/>
<polygon fill="#191970" stroke="#191970" points="1802.4585,-152.5624 1798.4754,-142.7449 1795.4668,-152.9035 1802.4585,-152.5624"/>
</g>
<!-- Node53 -->
<g id="node48" class="node">
<title>Node53</title>
<g id="a_node48"><a xlink:href="../../de/d49/tensor__calculus_8hpp.html" target="_top" xlink:title="tensor_calculus.hpp">
<polygon fill="#ffffff" stroke="#000000" points="1487,-123.5 1487,-142.5 1591,-142.5 1591,-123.5 1487,-123.5"/>
<text text-anchor="middle" x="1539" y="-130.5" font-family="Helvetica,sans-Serif" font-size="10.00" fill="#000000">tensor_calculus.hpp</text>
</a>
</g>
</g>
<!-- Node14&#45;&gt;Node53 -->
<g id="edge48" class="edge">
<title>Node14&#45;&gt;Node53</title>
<path fill="none" stroke="#191970" d="M1769.7087,-184.9667C1762.5971,-182.9067 1755.0584,-180.8067 1748,-179 1697.0181,-165.9507 1638.4695,-153.2593 1596.335,-144.5246"/>
<polygon fill="#191970" stroke="#191970" points="1597.0312,-141.0946 1586.5302,-142.5021 1595.6169,-147.9503 1597.0312,-141.0946"/>
</g>
<!-- Node54 -->
<g id="node49" class="node">
<title>Node54</title>
<g id="a_node49"><a xlink:href="../../d5/dfe/linearized_elasticity_8hpp.html" target="_top" xlink:title="linearizedElasticity.hpp">
<polygon fill="#ffffff" stroke="#000000" points="2078.5,-123.5 2078.5,-142.5 2195.5,-142.5 2195.5,-123.5 2078.5,-123.5"/>
<text text-anchor="middle" x="2137" y="-130.5" font-family="Helvetica,sans-Serif" font-size="10.00" fill="#000000">linearizedElasticity.hpp</text>
</a>
</g>
</g>
<!-- Node14&#45;&gt;Node54 -->
<g id="edge50" class="edge">
<title>Node14&#45;&gt;Node54</title>
<path fill="none" stroke="#191970" d="M1844.2383,-186.5859C1902.8227,-175.8628 2007.7782,-156.6522 2074.8174,-144.3816"/>
<polygon fill="#191970" stroke="#191970" points="2075.6241,-147.7922 2084.8305,-142.5489 2074.3638,-140.9066 2075.6241,-147.7922"/>
</g>
<!-- Node16 -->
<g id="node17" class="node">
<title>Node16</title>
<g id="a_node17"><a xlink:href="../../d0/d02/meshpp_8hpp.html" target="_top" xlink:title="meshpp.hpp">
<polygon fill="#ffffff" stroke="#ff0000" points="1388,-62 1388,-81 1458,-81 1458,-62 1388,-62"/>
<text text-anchor="middle" x="1423" y="-69" font-family="Helvetica,sans-Serif" font-size="10.00" fill="#000000">meshpp.hpp</text>
</a>
</g>
</g>
<!-- Node15&#45;&gt;Node16 -->
<g id="edge16" class="edge">
<title>Node15&#45;&gt;Node16</title>
<path fill="none" stroke="#191970" d="M1722.2595,-126.8324C1654.6403,-120.2984 1553.2564,-107.9615 1467,-87 1463.7733,-86.2159 1460.4516,-85.2853 1457.148,-84.2754"/>
<polygon fill="#191970" stroke="#191970" points="1457.9978,-80.8706 1447.4049,-81.0744 1455.8129,-87.5209 1457.9978,-80.8706"/>
</g>
<!-- Node47 -->
<g id="node42" class="node">
<title>Node47</title>
<polygon fill="#ffffff" stroke="#bfbfbf" points="1476,-56.5 1476,-86.5 1598,-86.5 1598,-56.5 1476,-56.5"/>
<text text-anchor="start" x="1484" y="-74.5" font-family="Helvetica,sans-Serif" font-size="10.00" fill="#000000">boost/random/mersenne</text>
<text text-anchor="middle" x="1537" y="-63.5" font-family="Helvetica,sans-Serif" font-size="10.00" fill="#000000">_twister.hpp</text>
</g>
<!-- Node15&#45;&gt;Node47 -->
<g id="edge42" class="edge">
<title>Node15&#45;&gt;Node47</title>
<path fill="none" stroke="#191970" d="M1757.5051,-123.4581C1717.6699,-114.0716 1656.0191,-99.5447 1608.023,-88.2353"/>
<polygon fill="#191970" stroke="#191970" points="1608.5373,-84.7607 1598.0011,-85.8738 1606.9318,-91.5741 1608.5373,-84.7607"/>
</g>
<!-- Node48 -->
<g id="node43" class="node">
<title>Node48</title>
<polygon fill="#ffffff" stroke="#bfbfbf" points="1616.5,-56.5 1616.5,-86.5 1727.5,-86.5 1727.5,-56.5 1616.5,-56.5"/>
<text text-anchor="start" x="1624.5" y="-74.5" font-family="Helvetica,sans-Serif" font-size="10.00" fill="#000000">boost/random/uniform</text>
<text text-anchor="middle" x="1672" y="-63.5" font-family="Helvetica,sans-Serif" font-size="10.00" fill="#000000">_real_distribution.hpp</text>
</g>
<!-- Node15&#45;&gt;Node48 -->
<g id="edge43" class="edge">
<title>Node15&#45;&gt;Node48</title>
<path fill="none" stroke="#191970" d="M1778.3125,-123.3906C1760.6284,-114.7591 1734.1194,-101.8202 1711.997,-91.0224"/>
<polygon fill="#191970" stroke="#191970" points="1713.345,-87.7857 1702.8231,-86.5446 1710.2745,-94.0763 1713.345,-87.7857"/>
</g>
<!-- Node49 -->
<g id="node44" class="node">
<title>Node49</title>
<polygon fill="#ffffff" stroke="#bfbfbf" points="1745.5,-56.5 1745.5,-86.5 1844.5,-86.5 1844.5,-56.5 1745.5,-56.5"/>
<text text-anchor="start" x="1753.5" y="-74.5" font-family="Helvetica,sans-Serif" font-size="10.00" fill="#000000">boost/math/special</text>
<text text-anchor="middle" x="1795" y="-63.5" font-family="Helvetica,sans-Serif" font-size="10.00" fill="#000000">_functions/erf.hpp</text>
</g>
<!-- Node15&#45;&gt;Node49 -->
<g id="edge44" class="edge">
<title>Node15&#45;&gt;Node49</title>
<path fill="none" stroke="#191970" d="M1797.5313,-123.3906C1797.1816,-116.2234 1796.6871,-106.0862 1796.2279,-96.671"/>
<polygon fill="#191970" stroke="#191970" points="1799.717,-96.3622 1795.7339,-86.5446 1792.7254,-96.7033 1799.717,-96.3622"/>
</g>
<!-- Node50 -->
<g id="node45" class="node">
<title>Node50</title>
<polygon fill="#ffffff" stroke="#bfbfbf" points="1863,-56.5 1863,-86.5 1971,-86.5 1971,-56.5 1863,-56.5"/>
<text text-anchor="start" x="1871" y="-74.5" font-family="Helvetica,sans-Serif" font-size="10.00" fill="#000000">boost/random/normal</text>
<text text-anchor="middle" x="1917" y="-63.5" font-family="Helvetica,sans-Serif" font-size="10.00" fill="#000000">_distribution.hpp</text>
</g>
<!-- Node15&#45;&gt;Node50 -->
<g id="edge45" class="edge">
<title>Node15&#45;&gt;Node50</title>
<path fill="none" stroke="#191970" d="M1816.5938,-123.3906C1833.2209,-114.7976 1858.1083,-101.9356 1878.945,-91.1671"/>
<polygon fill="#191970" stroke="#191970" points="1880.6125,-94.2451 1887.8893,-86.5446 1877.3986,-88.0265 1880.6125,-94.2451"/>
</g>
<!-- Node51 -->
<g id="node46" class="node">
<title>Node51</title>
<polygon fill="#ffffff" stroke="#bfbfbf" points="1989,-56.5 1989,-86.5 2105,-86.5 2105,-56.5 1989,-56.5"/>
<text text-anchor="start" x="1997" y="-74.5" font-family="Helvetica,sans-Serif" font-size="10.00" fill="#000000">boost/math/special</text>
<text text-anchor="middle" x="2047" y="-63.5" font-family="Helvetica,sans-Serif" font-size="10.00" fill="#000000">_functions/gamma.hpp</text>
</g>
<!-- Node15&#45;&gt;Node51 -->
<g id="edge46" class="edge">
<title>Node15&#45;&gt;Node51</title>
<path fill="none" stroke="#191970" d="M1836.633,-123.4581C1874.5573,-114.0913 1933.207,-99.6055 1978.9549,-88.3063"/>
<polygon fill="#191970" stroke="#191970" points="1979.9345,-91.6696 1988.8035,-85.8738 1978.256,-84.8738 1979.9345,-91.6696"/>
</g>
<!-- Node52 -->
<g id="node47" class="node">
<title>Node52</title>
<polygon fill="#ffffff" stroke="#bfbfbf" points="2123,-56.5 2123,-86.5 2225,-86.5 2225,-56.5 2123,-56.5"/>
<text text-anchor="start" x="2131" y="-74.5" font-family="Helvetica,sans-Serif" font-size="10.00" fill="#000000">boost/math/special</text>
<text text-anchor="middle" x="2174" y="-63.5" font-family="Helvetica,sans-Serif" font-size="10.00" fill="#000000">_functions/beta.hpp</text>
</g>
<!-- Node15&#45;&gt;Node52 -->
<g id="edge47" class="edge">
<title>Node15&#45;&gt;Node52</title>
<path fill="none" stroke="#191970" d="M1873.7359,-124.3135C1935.614,-116.6795 2025.5065,-104.3694 2112.6376,-87.1549"/>
<polygon fill="#191970" stroke="#191970" points="2113.5782,-90.5362 2122.6975,-85.1428 2112.2052,-83.6722 2113.5782,-90.5362"/>
</g>
<!-- Node16&#45;&gt;Node3 -->
<g id="edge41" class="edge">
<title>Node16&#45;&gt;Node3</title>
<path fill="none" stroke="#191970" d="M1387.5532,-70.987C1253.0858,-68.7861 761.7237,-58.4274 359,-20 355.7615,-19.691 352.4434,-19.3388 349.0969,-18.9557"/>
<polygon fill="#191970" stroke="#191970" points="349.3737,-15.4636 339.0232,-17.7258 348.5253,-22.412 349.3737,-15.4636"/>
</g>
<!-- Node17 -->
<g id="node18" class="node">
<title>Node17</title>
<polygon fill="#ffffff" stroke="#bfbfbf" points="368,-.5 368,-19.5 414,-19.5 414,-.5 368,-.5"/>
<text text-anchor="middle" x="391" y="-7.5" font-family="Helvetica,sans-Serif" font-size="10.00" fill="#000000">stdio.h</text>
</g>
<!-- Node16&#45;&gt;Node17 -->
<g id="edge17" class="edge">
<title>Node16&#45;&gt;Node17</title>
<path fill="none" stroke="#191970" d="M1387.987,-70.8761C1236.2495,-67.9944 634.0713,-54.6775 424.2398,-19.7421"/>
<polygon fill="#191970" stroke="#191970" points="424.7011,-16.2699 414.2499,-18.0082 423.504,-23.1668 424.7011,-16.2699"/>
</g>
<!-- Node18 -->
<g id="node19" class="node">
<title>Node18</title>
<polygon fill="#ffffff" stroke="#bfbfbf" points="432,-.5 432,-19.5 486,-19.5 486,-.5 432,-.5"/>
<text text-anchor="middle" x="459" y="-7.5" font-family="Helvetica,sans-Serif" font-size="10.00" fill="#000000">iostream</text>
</g>
<!-- Node16&#45;&gt;Node18 -->
<g id="edge18" class="edge">
<title>Node16&#45;&gt;Node18</title>
<path fill="none" stroke="#191970" d="M1387.5927,-70.5559C1242.4104,-66.5304 691.5706,-49.7058 496.5058,-19.875"/>
<polygon fill="#191970" stroke="#191970" points="496.8074,-16.379 486.3812,-18.2613 495.7056,-23.2918 496.8074,-16.379"/>
</g>
<!-- Node19 -->
<g id="node20" class="node">
<title>Node19</title>
<polygon fill="#ffffff" stroke="#bfbfbf" points="504.5,-.5 504.5,-19.5 553.5,-19.5 553.5,-.5 504.5,-.5"/>
<text text-anchor="middle" x="529" y="-7.5" font-family="Helvetica,sans-Serif" font-size="10.00" fill="#000000">istream</text>
</g>
<!-- Node16&#45;&gt;Node19 -->
<g id="edge19" class="edge">
<title>Node16&#45;&gt;Node19</title>
<path fill="none" stroke="#191970" d="M1387.8239,-70.4554C1249.8643,-66.1975 744.8549,-49.06 563.6539,-19.6571"/>
<polygon fill="#191970" stroke="#191970" points="564.1727,-16.1952 553.7287,-17.9763 563.0039,-23.0969 564.1727,-16.1952"/>
</g>
<!-- Node20 -->
<g id="node21" class="node">
<title>Node20</title>
<polygon fill="#ffffff" stroke="#bfbfbf" points="572,-.5 572,-19.5 622,-19.5 622,-.5 572,-.5"/>
<text text-anchor="middle" x="597" y="-7.5" font-family="Helvetica,sans-Serif" font-size="10.00" fill="#000000">fstream</text>
</g>
<!-- Node16&#45;&gt;Node20 -->
<g id="edge20" class="edge">
<title>Node16&#45;&gt;Node20</title>
<path fill="none" stroke="#191970" d="M1387.9168,-70.2513C1257.3668,-65.4476 799.0673,-47.1451 632.1957,-19.7863"/>
<polygon fill="#191970" stroke="#191970" points="632.5508,-16.2962 622.1031,-18.056 631.3679,-23.1955 632.5508,-16.2962"/>
</g>
<!-- Node21 -->
<g id="node22" class="node">
<title>Node21</title>
<polygon fill="#ffffff" stroke="#bfbfbf" points="640,-.5 640,-19.5 684,-19.5 684,-.5 640,-.5"/>
<text text-anchor="middle" x="662" y="-7.5" font-family="Helvetica,sans-Serif" font-size="10.00" fill="#000000">vector</text>
</g>
<!-- Node16&#45;&gt;Node21 -->
<g id="edge21" class="edge">
<title>Node16&#45;&gt;Node21</title>
<path fill="none" stroke="#191970" d="M1387.6382,-70.1379C1263.5913,-65.1874 847.9057,-47.1002 694.3458,-19.764"/>
<polygon fill="#191970" stroke="#191970" points="694.6554,-16.2613 684.1826,-17.865 693.3697,-23.1422 694.6554,-16.2613"/>
</g>
<!-- Node22 -->
<g id="node23" class="node">
<title>Node22</title>
<polygon fill="#ffffff" stroke="#bfbfbf" points="702,-.5 702,-19.5 752,-19.5 752,-.5 702,-.5"/>
<text text-anchor="middle" x="727" y="-7.5" font-family="Helvetica,sans-Serif" font-size="10.00" fill="#000000">iomanip</text>
</g>
<!-- Node16&#45;&gt;Node22 -->
<g id="edge22" class="edge">
<title>Node16&#45;&gt;Node22</title>
<path fill="none" stroke="#191970" d="M1387.709,-69.7276C1271.6651,-63.751 901.8329,-43.4862 762.156,-19.8036"/>
<polygon fill="#191970" stroke="#191970" points="762.5677,-16.322 752.1097,-18.0194 761.3436,-23.2142 762.5677,-16.322"/>
</g>
<!-- Node23 -->
<g id="node24" class="node">
<title>Node23</title>
<polygon fill="#ffffff" stroke="#bfbfbf" points="770,-.5 770,-19.5 874,-19.5 874,-.5 770,-.5"/>
<text text-anchor="middle" x="822" y="-7.5" font-family="Helvetica,sans-Serif" font-size="10.00" fill="#000000">Epetra_MpiComm.h</text>
</g>
<!-- Node16&#45;&gt;Node23 -->
<g id="edge23" class="edge">
<title>Node16&#45;&gt;Node23</title>
<path fill="none" stroke="#191970" d="M1387.8451,-68.9726C1303.0914,-62.7029 1080.6047,-45.1952 884.418,-20.1117"/>
<polygon fill="#191970" stroke="#191970" points="884.5747,-16.603 874.2094,-18.7964 883.6802,-23.5456 884.5747,-16.603"/>
</g>
<!-- Node24 -->
<g id="node25" class="node">
<title>Node24</title>
<polygon fill="#ffffff" stroke="#bfbfbf" points="892.5,-.5 892.5,-19.5 1005.5,-19.5 1005.5,-.5 892.5,-.5"/>
<text text-anchor="middle" x="949" y="-7.5" font-family="Helvetica,sans-Serif" font-size="10.00" fill="#000000">Epetra_FECrsGraph.h</text>
</g>
<!-- Node16&#45;&gt;Node24 -->
<g id="edge24" class="edge">
<title>Node16&#45;&gt;Node24</title>
<path fill="none" stroke="#191970" d="M1387.7603,-67.3504C1318.6119,-59.1435 1160.0548,-40.0075 1015.4562,-20.0347"/>
<polygon fill="#191970" stroke="#191970" points="1015.8981,-16.5625 1005.5123,-18.6567 1014.9372,-23.4963 1015.8981,-16.5625"/>
</g>
<!-- Node25 -->
<g id="node26" class="node">
<title>Node25</title>
<polygon fill="#ffffff" stroke="#bfbfbf" points="1024,-.5 1024,-19.5 1138,-19.5 1138,-.5 1024,-.5"/>
<text text-anchor="middle" x="1081" y="-7.5" font-family="Helvetica,sans-Serif" font-size="10.00" fill="#000000">Epetra_FECrsMatrix.h</text>
</g>
<!-- Node16&#45;&gt;Node25 -->
<g id="edge25" class="edge">
<title>Node16&#45;&gt;Node25</title>
<path fill="none" stroke="#191970" d="M1387.6881,-65.1501C1330.2674,-54.8244 1215.877,-34.2542 1144.1862,-21.3624"/>
<polygon fill="#191970" stroke="#191970" points="1144.3922,-17.8434 1133.9306,-19.5182 1143.1532,-24.7329 1144.3922,-17.8434"/>
</g>
<!-- Node26 -->
<g id="node27" class="node">
<title>Node26</title>
<polygon fill="#ffffff" stroke="#bfbfbf" points="1156,-.5 1156,-19.5 1256,-19.5 1256,-.5 1156,-.5"/>
<text text-anchor="middle" x="1206" y="-7.5" font-family="Helvetica,sans-Serif" font-size="10.00" fill="#000000">Epetra_FEVector.h</text>
</g>
<!-- Node16&#45;&gt;Node26 -->
<g id="edge26" class="edge">
<title>Node16&#45;&gt;Node26</title>
<path fill="none" stroke="#191970" d="M1389.0938,-61.8906C1351.4321,-51.2169 1290.5298,-33.9566 1249.4115,-22.3033"/>
<polygon fill="#191970" stroke="#191970" points="1250.2436,-18.9013 1239.6682,-19.5419 1248.3349,-25.6361 1250.2436,-18.9013"/>
</g>
<!-- Node27 -->
<g id="node28" class="node">
<title>Node27</title>
<polygon fill="#ffffff" stroke="#bfbfbf" points="1274.5,-.5 1274.5,-19.5 1361.5,-19.5 1361.5,-.5 1274.5,-.5"/>
<text text-anchor="middle" x="1318" y="-7.5" font-family="Helvetica,sans-Serif" font-size="10.00" fill="#000000">Epetra_Vector.h</text>
</g>
<!-- Node16&#45;&gt;Node27 -->
<g id="edge27" class="edge">
<title>Node16&#45;&gt;Node27</title>
<path fill="none" stroke="#191970" d="M1406.5938,-61.8906C1389.5647,-51.9165 1362.7159,-36.1908 1343.0349,-24.6633"/>
<polygon fill="#191970" stroke="#191970" points="1344.6888,-21.5759 1334.291,-19.5419 1341.151,-27.6161 1344.6888,-21.5759"/>
</g>
<!-- Node28 -->
<g id="node29" class="node">
<title>Node28</title>
<polygon fill="#ffffff" stroke="#bfbfbf" points="1379.5,-.5 1379.5,-19.5 1456.5,-19.5 1456.5,-.5 1379.5,-.5"/>
<text text-anchor="middle" x="1418" y="-7.5" font-family="Helvetica,sans-Serif" font-size="10.00" fill="#000000">Epetra_Map.h</text>
</g>
<!-- Node16&#45;&gt;Node28 -->
<g id="edge28" class="edge">
<title>Node16&#45;&gt;Node28</title>
<path fill="none" stroke="#191970" d="M1422.2188,-61.8906C1421.5257,-53.3657 1420.491,-40.6392 1419.6198,-29.9235"/>
<polygon fill="#191970" stroke="#191970" points="1423.0912,-29.4283 1418.7923,-19.7449 1416.1142,-29.9956 1423.0912,-29.4283"/>
</g>
<!-- Node29 -->
<g id="node30" class="node">
<title>Node29</title>
<polygon fill="#ffffff" stroke="#bfbfbf" points="1474.5,-.5 1474.5,-19.5 1613.5,-19.5 1613.5,-.5 1474.5,-.5"/>
<text text-anchor="middle" x="1544" y="-7.5" font-family="Helvetica,sans-Serif" font-size="10.00" fill="#000000">Epetra_SerialDenseMatrix.h</text>
</g>
<!-- Node16&#45;&gt;Node29 -->
<g id="edge29" class="edge">
<title>Node16&#45;&gt;Node29</title>
<path fill="none" stroke="#191970" d="M1441.9063,-61.8906C1461.7966,-51.7811 1493.3123,-35.7628 1516.0692,-24.1962"/>
<polygon fill="#191970" stroke="#191970" points="1517.8978,-27.193 1525.2265,-19.5419 1514.726,-20.9528 1517.8978,-27.193"/>
</g>
<!-- Node30 -->
<g id="node31" class="node">
<title>Node30</title>
<polygon fill="#ffffff" stroke="#bfbfbf" points="1632,-.5 1632,-19.5 1772,-19.5 1772,-.5 1632,-.5"/>
<text text-anchor="middle" x="1702" y="-7.5" font-family="Helvetica,sans-Serif" font-size="10.00" fill="#000000">Epetra_SerialDenseVector.h</text>
</g>
<!-- Node16&#45;&gt;Node30 -->
<g id="edge30" class="edge">
<title>Node16&#45;&gt;Node30</title>
<path fill="none" stroke="#191970" d="M1448.3948,-61.8485C1454.4394,-59.7483 1460.9049,-57.6606 1467,-56 1521.1848,-41.237 1583.621,-29.2457 1630.5123,-21.2116"/>
<polygon fill="#191970" stroke="#191970" points="1631.2987,-24.6283 1640.5738,-19.5075 1630.1297,-17.7266 1631.2987,-24.6283"/>
</g>
<!-- Node31 -->
<g id="node32" class="node">
<title>Node31</title>
<polygon fill="#ffffff" stroke="#bfbfbf" points="1790,-.5 1790,-19.5 1942,-19.5 1942,-.5 1790,-.5"/>
<text text-anchor="middle" x="1866" y="-7.5" font-family="Helvetica,sans-Serif" font-size="10.00" fill="#000000">Epetra_IntSerialDenseVector.h</text>
</g>
<!-- Node16&#45;&gt;Node31 -->
<g id="edge31" class="edge">
<title>Node16&#45;&gt;Node31</title>
<path fill="none" stroke="#191970" d="M1446.9189,-61.9796C1453.3543,-59.7211 1460.3705,-57.5273 1467,-56 1600.6761,-25.2044 1639.652,-35.6798 1779.3133,-20.1681"/>
<polygon fill="#191970" stroke="#191970" points="1780.0047,-23.6122 1789.5456,-19.0054 1779.2144,-16.6569 1780.0047,-23.6122"/>
</g>
<!-- Node32 -->
<g id="node33" class="node">
<title>Node32</title>
<polygon fill="#ffffff" stroke="#bfbfbf" points="1960,-.5 1960,-19.5 2046,-19.5 2046,-.5 1960,-.5"/>
<text text-anchor="middle" x="2003" y="-7.5" font-family="Helvetica,sans-Serif" font-size="10.00" fill="#000000">Epetra_Import.h</text>
</g>
<!-- Node16&#45;&gt;Node32 -->
<g id="edge32" class="edge">
<title>Node16&#45;&gt;Node32</title>
<path fill="none" stroke="#191970" d="M1446.4208,-61.9615C1452.9803,-59.6457 1460.1828,-57.4279 1467,-56 1674.9281,-12.4483 1735.3519,-47.3247 1949.9284,-19.9854"/>
<polygon fill="#191970" stroke="#191970" points="1950.4693,-23.4445 1959.9325,-18.6802 1949.5637,-16.5034 1950.4693,-23.4445"/>
</g>
<!-- Node33 -->
<g id="node34" class="node">
<title>Node33</title>
<polygon fill="#ffffff" stroke="#bfbfbf" points="2064.5,-.5 2064.5,-19.5 2151.5,-19.5 2151.5,-.5 2064.5,-.5"/>
<text text-anchor="middle" x="2108" y="-7.5" font-family="Helvetica,sans-Serif" font-size="10.00" fill="#000000">Epetra_Export.h</text>
</g>
<!-- Node16&#45;&gt;Node33 -->
<g id="edge33" class="edge">
<title>Node16&#45;&gt;Node33</title>
<path fill="none" stroke="#191970" d="M1446.4086,-61.9024C1452.9681,-59.5863 1460.1736,-57.3832 1467,-56 1720.3499,-4.6637 1793.3346,-51.1245 2054.2369,-19.9183"/>
<polygon fill="#191970" stroke="#191970" points="2054.8944,-23.364 2064.3954,-18.6756 2054.0443,-16.4158 2054.8944,-23.364"/>
</g>
<!-- Node34 -->
<g id="node35" class="node">
<title>Node34</title>
<polygon fill="#ffffff" stroke="#bfbfbf" points="2170,-.5 2170,-19.5 2250,-19.5 2250,-.5 2170,-.5"/>
<text text-anchor="middle" x="2210" y="-7.5" font-family="Helvetica,sans-Serif" font-size="10.00" fill="#000000">Epetra_Time.h</text>
</g>
<!-- Node16&#45;&gt;Node34 -->
<g id="edge34" class="edge">
<title>Node16&#45;&gt;Node34</title>
<path fill="none" stroke="#191970" d="M1446.4002,-61.8603C1452.9596,-59.5441 1460.1672,-57.3514 1467,-56 1766.7351,3.2823 1852.7683,-57.6511 2159.8863,-19.9406"/>
<polygon fill="#191970" stroke="#191970" points="2160.4827,-23.3934 2169.9699,-18.677 2159.6123,-16.4477 2160.4827,-23.3934"/>
</g>
<!-- Node35 -->
<g id="node36" class="node">
<title>Node35</title>
<polygon fill="#ffffff" stroke="#bfbfbf" points="2268.5,-.5 2268.5,-19.5 2415.5,-19.5 2415.5,-.5 2268.5,-.5"/>
<text text-anchor="middle" x="2342" y="-7.5" font-family="Helvetica,sans-Serif" font-size="10.00" fill="#000000">ml_MultiLevelPreconditioner.h</text>
</g>
<!-- Node16&#45;&gt;Node35 -->
<g id="edge35" class="edge">
<title>Node16&#45;&gt;Node35</title>
<path fill="none" stroke="#191970" d="M1445.9379,-61.9931C1452.6184,-59.6171 1460.0039,-57.3604 1467,-56 1809.5912,10.6195 1906.0088,-47.9567 2258.0392,-20.0033"/>
<polygon fill="#191970" stroke="#191970" points="2258.5789,-23.4711 2268.2628,-19.173 2258.0122,-16.494 2258.5789,-23.4711"/>
</g>
<!-- Node36 -->
<g id="node37" class="node">
<title>Node36</title>
<polygon fill="#ffffff" stroke="#bfbfbf" points="2433.5,-.5 2433.5,-19.5 2524.5,-19.5 2524.5,-.5 2433.5,-.5"/>
<text text-anchor="middle" x="2479" y="-7.5" font-family="Helvetica,sans-Serif" font-size="10.00" fill="#000000">ml_epetra_utils.h</text>
</g>
<!-- Node16&#45;&gt;Node36 -->
<g id="edge36" class="edge">
<title>Node16&#45;&gt;Node36</title>
<path fill="none" stroke="#191970" d="M1445.9311,-61.9576C1452.6115,-59.581 1459.9986,-57.3329 1467,-56 1882.2905,23.0633 1999.6824,-65.5111 2423.3394,-20.0255"/>
<polygon fill="#191970" stroke="#191970" points="2423.8436,-23.4913 2433.4043,-18.9259 2423.0833,-16.5327 2423.8436,-23.4913"/>
</g>
<!-- Node37 -->
<g id="node38" class="node">
<title>Node37</title>
<polygon fill="#ffffff" stroke="#bfbfbf" points="2542.5,-.5 2542.5,-19.5 2613.5,-19.5 2613.5,-.5 2542.5,-.5"/>
<text text-anchor="middle" x="2578" y="-7.5" font-family="Helvetica,sans-Serif" font-size="10.00" fill="#000000">ml_include.h</text>
</g>
<!-- Node16&#45;&gt;Node37 -->
<g id="edge37" class="edge">
<title>Node16&#45;&gt;Node37</title>
<path fill="none" stroke="#191970" d="M1445.9278,-61.9402C1452.6081,-59.5634 1459.9961,-57.3195 1467,-56 1929.9879,31.2246 2061.5666,-79.2666 2531.9669,-20.04"/>
<polygon fill="#191970" stroke="#191970" points="2532.606,-23.4869 2542.0815,-18.7471 2531.7183,-16.5434 2532.606,-23.4869"/>
</g>
<!-- Node38 -->
<g id="node39" class="node">
<title>Node38</title>
<polygon fill="#ffffff" stroke="#bfbfbf" points="2631.5,-.5 2631.5,-19.5 2768.5,-19.5 2768.5,-.5 2631.5,-.5"/>
<text text-anchor="middle" x="2700" y="-7.5" font-family="Helvetica,sans-Serif" font-size="10.00" fill="#000000">EpetraExt_RowMatrixOut.h</text>
</g>
<!-- Node16&#45;&gt;Node38 -->
<g id="edge38" class="edge">
<title>Node16&#45;&gt;Node38</title>
<path fill="none" stroke="#191970" d="M1445.9256,-61.9285C1452.6059,-59.5515 1459.9944,-57.3104 1467,-56 1716.4246,-9.3447 2350.4427,-39.7795 2620.9357,-20.0619"/>
<polygon fill="#191970" stroke="#191970" points="2621.4849,-23.5302 2631.1882,-19.2762 2620.9499,-16.5507 2621.4849,-23.5302"/>
</g>
<!-- Node39 -->
<g id="node40" class="node">
<title>Node39</title>
<polygon fill="#ffffff" stroke="#bfbfbf" points="2786.5,-.5 2786.5,-19.5 2925.5,-19.5 2925.5,-.5 2786.5,-.5"/>
<text text-anchor="middle" x="2856" y="-7.5" font-family="Helvetica,sans-Serif" font-size="10.00" fill="#000000">EpetraExt_MultiVectorOut.h</text>
</g>
<!-- Node16&#45;&gt;Node39 -->
<g id="edge39" class="edge">
<title>Node16&#45;&gt;Node39</title>
<path fill="none" stroke="#191970" d="M1445.9225,-61.9118C1452.6028,-59.5345 1459.992,-57.2975 1467,-56 1750.3543,-3.5373 2471.0045,-41.6807 2776.0621,-20.048"/>
<polygon fill="#191970" stroke="#191970" points="2776.5815,-23.5192 2786.2945,-19.2876 2776.0626,-16.5384 2776.5815,-23.5192"/>
</g>
<!-- Node40 -->
<g id="node41" class="node">
<title>Node40</title>
<polygon fill="#ffffff" stroke="#bfbfbf" points="2944,-.5 2944,-19.5 3054,-19.5 3054,-.5 2944,-.5"/>
<text text-anchor="middle" x="2999" y="-7.5" font-family="Helvetica,sans-Serif" font-size="10.00" fill="#000000">EpetraExt_VectorIn.h</text>
</g>
<!-- Node16&#45;&gt;Node40 -->
<g id="edge40" class="edge">
<title>Node16&#45;&gt;Node40</title>
<path fill="none" stroke="#191970" d="M1445.92,-61.8985C1452.6003,-59.521 1459.9901,-57.2872 1467,-56 1784.7411,2.3473 2593.5867,-48.2167 2933.7257,-19.9584"/>
<polygon fill="#191970" stroke="#191970" points="2934.2379,-23.4272 2943.8984,-19.0768 2933.6335,-16.4533 2934.2379,-23.4272"/>
</g>
<!-- Node53&#45;&gt;Node16 -->
<g id="edge49" class="edge">
<title>Node53&#45;&gt;Node16</title>
<path fill="none" stroke="#191970" d="M1520.875,-123.3906C1501.8917,-113.3262 1471.8627,-97.4057 1450.0693,-85.8514"/>
<polygon fill="#191970" stroke="#191970" points="1451.4723,-82.6338 1440.9977,-81.0419 1448.1934,-88.8184 1451.4723,-82.6338"/>
</g>
<!-- Node55 -->
<g id="node50" class="node">
<title>Node55</title>
<g id="a_node50"><a xlink:href="../../d3/dd8/linear_finite_element_problem_8hpp.html" target="_top" xlink:title="linearFiniteElementProblem.hpp">
<polygon fill="#ffffff" stroke="#ff0000" points="2243.5,-62 2243.5,-81 2398.5,-81 2398.5,-62 2243.5,-62"/>
<text text-anchor="middle" x="2321" y="-69" font-family="Helvetica,sans-Serif" font-size="10.00" fill="#000000">linearFiniteElementProblem.hpp</text>
</a>
</g>
</g>
<!-- Node54&#45;&gt;Node55 -->
<g id="edge51" class="edge">
<title>Node54&#45;&gt;Node55</title>
<path fill="none" stroke="#191970" d="M2165.75,-123.3906C2197.2117,-112.8749 2247.8008,-95.966 2282.6314,-84.3243"/>
<polygon fill="#191970" stroke="#191970" points="2284.0772,-87.5315 2292.4519,-81.0419 2281.8581,-80.8925 2284.0772,-87.5315"/>
</g>
</g>
</svg>
