<?xml version="1.0" encoding="UTF-8" standalone="no"?>
<!DOCTYPE svg PUBLIC "-//W3C//DTD SVG 1.1//EN"
 "http://www.w3.org/Graphics/SVG/1.1/DTD/svg11.dtd">
<!-- Generated by graphviz version 2.40.1 (20161225.0304)
 -->
<!-- Title: asme/linearelaslam/main.cpp Pages: 1 -->
<!--zoomable 285 -->
<svg id="main" version="1.1" xmlns="http://www.w3.org/2000/svg" xmlns:xlink="http://www.w3.org/1999/xlink" xml:space="preserve" onload="init(evt)">
<style type="text/css"><![CDATA[
.edge:hover path { stroke: red; }
.edge:hover polygon { stroke: red; fill: red; }
]]></style>
<script type="text/javascript"><![CDATA[
var edges = document.getElementsByTagName('g');
if (edges && edges.length) {
  for (var i=0;i<edges.length;i++) {
    if (edges[i].id.substr(0,4)=='edge') {
      edges[i].setAttribute('class','edge');
    }
  }
}
]]></script>
        <defs>
                <circle id="rim" cx="0" cy="0" r="7"/>
                <circle id="rim2" cx="0" cy="0" r="3.5"/>
                <g id="zoomPlus">
                        <use xlink:href="#rim" fill="#404040">
                                <set attributeName="fill" to="#808080" begin="zoomplus.mouseover" end="zoomplus.mouseout"/>
                        </use>
                        <path d="M-4,0h8M0,-4v8" fill="none" stroke="white" stroke-width="1.5" pointer-events="none"/>
                </g>
                <g id="zoomMin">
                        <use xlink:href="#rim" fill="#404040">
                                <set attributeName="fill" to="#808080" begin="zoomminus.mouseover" end="zoomminus.mouseout"/>
                        </use>
                        <path d="M-4,0h8" fill="none" stroke="white" stroke-width="1.5" pointer-events="none"/>
                </g>
                <g id="dirArrow">
                        <path fill="none" stroke="white" stroke-width="1.5" d="M0,-3.0v7 M-2.5,-0.5L0,-3.0L2.5,-0.5"/>
                </g>
               <g id="resetDef">
                       <use xlink:href="#rim2" fill="#404040">
                               <set attributeName="fill" to="#808080" begin="reset.mouseover" end="reset.mouseout"/>
                       </use>
               </g>
        </defs>

<script type="text/javascript">
var viewWidth = 3063;
var viewHeight = 285;
var sectionId = 'dynsection-0';
</script>
<script xlink:href="../../svgpan.js"/>
<svg id="graph" class="graph">
<g id="viewport">
<title>asme/linearelaslam/main.cpp</title>
<polygon fill="#ffffff" stroke="transparent" points="-4,4 -4,-281 3059,-281 3059,4 -4,4"/>
<!-- Node0 -->
<g id="node1" class="node">
<title>Node0</title>
<polygon fill="#bfbfbf" stroke="#000000" points="754.5,-246.5 754.5,-276.5 855.5,-276.5 855.5,-246.5 754.5,-246.5"/>
<text text-anchor="start" x="762.5" y="-264.5" font-family="Helvetica,sans-Serif" font-size="10.00" fill="#000000">asme/linearelaslam</text>
<text text-anchor="middle" x="805" y="-253.5" font-family="Helvetica,sans-Serif" font-size="10.00" fill="#000000">/main.cpp</text>
</g>
<!-- Node1 -->
<g id="node2" class="node">
<title>Node1</title>
<polygon fill="#ffffff" stroke="#bfbfbf" points="0,-185 0,-204 108,-204 108,-185 0,-185"/>
<text text-anchor="middle" x="54" y="-192" font-family="Helvetica,sans-Serif" font-size="10.00" fill="#000000">Epetra_ConfigDefs.h</text>
</g>
<!-- Node0&#45;&gt;Node1 -->
<g id="edge1" class="edge">
<title>Node0&#45;&gt;Node1</title>
<path fill="none" stroke="#191970" d="M754.1701,-260.5852C639.706,-257.8958 353.2784,-247.6404 117,-210 111.0142,-209.0464 104.7612,-207.8089 98.6178,-206.4488"/>
<polygon fill="#191970" stroke="#191970" points="98.9829,-202.94 88.4488,-204.0729 97.3902,-209.7564 98.9829,-202.94"/>
</g>
<!-- Node2 -->
<g id="node3" class="node">
<title>Node2</title>
<polygon fill="#ffffff" stroke="#bfbfbf" points="126.5,-185 126.5,-204 239.5,-204 239.5,-185 126.5,-185"/>
<text text-anchor="middle" x="183" y="-192" font-family="Helvetica,sans-Serif" font-size="10.00" fill="#000000">Epetra_SerialComm.h</text>
</g>
<!-- Node0&#45;&gt;Node2 -->
<g id="edge2" class="edge">
<title>Node0&#45;&gt;Node2</title>
<path fill="none" stroke="#191970" d="M754.2271,-258.8265C656.7885,-253.2383 436.9942,-238.4185 254,-210 247.1313,-208.9333 239.9307,-207.6079 232.8591,-206.1844"/>
<polygon fill="#191970" stroke="#191970" points="233.1492,-202.6694 222.6444,-204.0475 231.7158,-209.5211 233.1492,-202.6694"/>
</g>
<!-- Node3 -->
<g id="node4" class="node">
<title>Node3</title>
<polygon fill="#ffffff" stroke="#bfbfbf" points="240,-.5 240,-19.5 340,-19.5 340,-.5 240,-.5"/>
<text text-anchor="middle" x="290" y="-7.5" font-family="Helvetica,sans-Serif" font-size="10.00" fill="#000000">Teuchos_RCP.hpp</text>
</g>
<!-- Node0&#45;&gt;Node3 -->
<g id="edge3" class="edge">
<title>Node0&#45;&gt;Node3</title>
<path fill="none" stroke="#191970" d="M754.3092,-260.2441C630.0272,-256.6434 318.0127,-244.2489 287,-210 241.3084,-159.5404 267.3509,-69.0888 282.0603,-29.4782"/>
<polygon fill="#191970" stroke="#191970" points="285.4084,-30.5245 285.7564,-19.9353 278.8809,-27.9962 285.4084,-30.5245"/>
</g>
<!-- Node4 -->
<g id="node5" class="node">
<title>Node4</title>
<polygon fill="#ffffff" stroke="#bfbfbf" points="296,-185 296,-204 348,-204 348,-185 296,-185"/>
<text text-anchor="middle" x="322" y="-192" font-family="Helvetica,sans-Serif" font-size="10.00" fill="#000000">Ifpack.h</text>
</g>
<!-- Node0&#45;&gt;Node4 -->
<g id="edge4" class="edge">
<title>Node0&#45;&gt;Node4</title>
<path fill="none" stroke="#191970" d="M754.1354,-257.5972C653.1738,-249.5318 430.8435,-230.0934 357,-210 354.8118,-209.4046 352.585,-208.6924 350.3688,-207.9053"/>
<polygon fill="#191970" stroke="#191970" points="351.458,-204.5713 340.8734,-204.1038 348.8562,-211.0699 351.458,-204.5713"/>
</g>
<!-- Node5 -->
<g id="node6" class="node">
<title>Node5</title>
<polygon fill="#ffffff" stroke="#bfbfbf" points="366.5,-185 366.5,-204 497.5,-204 497.5,-185 366.5,-185"/>
<text text-anchor="middle" x="432" y="-192" font-family="Helvetica,sans-Serif" font-size="10.00" fill="#000000">Ifpack_AdditiveSchwarz.h</text>
</g>
<!-- Node0&#45;&gt;Node5 -->
<g id="edge5" class="edge">
<title>Node0&#45;&gt;Node5</title>
<path fill="none" stroke="#191970" d="M754.2904,-253.2547C694.9165,-243.4807 593.6597,-226.4385 507,-210 500.4174,-208.7514 493.5204,-207.3937 486.6877,-206.0184"/>
<polygon fill="#191970" stroke="#191970" points="487.264,-202.564 476.7672,-204.0013 485.8693,-209.4237 487.264,-202.564"/>
</g>
<!-- Node6 -->
<g id="node7" class="node">
<title>Node6</title>
<polygon fill="#ffffff" stroke="#bfbfbf" points="516,-185 516,-204 638,-204 638,-185 516,-185"/>
<text text-anchor="middle" x="577" y="-192" font-family="Helvetica,sans-Serif" font-size="10.00" fill="#000000">BelosLinearProblem.hpp</text>
</g>
<!-- Node0&#45;&gt;Node6 -->
<g id="edge6" class="edge">
<title>Node0&#45;&gt;Node6</title>
<path fill="none" stroke="#191970" d="M754.3994,-246.6305C713.8142,-234.7042 657.5099,-218.1586 619.2981,-206.9297"/>
<polygon fill="#191970" stroke="#191970" points="620.0928,-203.5153 609.5116,-204.0539 618.1192,-210.2313 620.0928,-203.5153"/>
</g>
<!-- Node7 -->
<g id="node8" class="node">
<title>Node7</title>
<polygon fill="#ffffff" stroke="#bfbfbf" points="656.5,-185 656.5,-204 801.5,-204 801.5,-185 656.5,-185"/>
<text text-anchor="middle" x="729" y="-192" font-family="Helvetica,sans-Serif" font-size="10.00" fill="#000000">BelosBlockGmresSolMgr.hpp</text>
</g>
<!-- Node0&#45;&gt;Node7 -->
<g id="edge7" class="edge">
<title>Node0&#45;&gt;Node7</title>
<path fill="none" stroke="#191970" d="M787.7544,-246.2967C775.7983,-235.7564 759.8881,-221.7303 747.6396,-210.9323"/>
<polygon fill="#191970" stroke="#191970" points="749.6543,-208.0425 739.8385,-204.055 745.0252,-213.2934 749.6543,-208.0425"/>
</g>
<!-- Node8 -->
<g id="node9" class="node">
<title>Node8</title>
<polygon fill="#ffffff" stroke="#bfbfbf" points="820,-185 820,-204 942,-204 942,-185 820,-185"/>
<text text-anchor="middle" x="881" y="-192" font-family="Helvetica,sans-Serif" font-size="10.00" fill="#000000">BelosEpetraAdapter.hpp</text>
</g>
<!-- Node0&#45;&gt;Node8 -->
<g id="edge8" class="edge">
<title>Node0&#45;&gt;Node8</title>
<path fill="none" stroke="#191970" d="M822.2456,-246.2967C834.2017,-235.7564 850.1119,-221.7303 862.3604,-210.9323"/>
<polygon fill="#191970" stroke="#191970" points="864.9748,-213.2934 870.1615,-204.055 860.3457,-208.0425 864.9748,-213.2934"/>
</g>
<!-- Node9 -->
<g id="node10" class="node">
<title>Node9</title>
<polygon fill="#ffffff" stroke="#bfbfbf" points="960.5,-185 960.5,-204 1081.5,-204 1081.5,-185 960.5,-185"/>
<text text-anchor="middle" x="1021" y="-192" font-family="Helvetica,sans-Serif" font-size="10.00" fill="#000000">BelosSolverFactory.hpp</text>
</g>
<!-- Node0&#45;&gt;Node9 -->
<g id="edge9" class="edge">
<title>Node0&#45;&gt;Node9</title>
<path fill="none" stroke="#191970" d="M853.4746,-246.4639C891.7894,-234.5792 944.6399,-218.1858 980.6668,-207.0108"/>
<polygon fill="#191970" stroke="#191970" points="981.8419,-210.3108 990.3561,-204.0053 979.7681,-203.6251 981.8419,-210.3108"/>
</g>
<!-- Node10 -->
<g id="node11" class="node">
<title>Node10</title>
<polygon fill="#ffffff" stroke="#bfbfbf" points="1100,-185 1100,-204 1276,-204 1276,-185 1100,-185"/>
<text text-anchor="middle" x="1188" y="-192" font-family="Helvetica,sans-Serif" font-size="10.00" fill="#000000">Teuchos_StandardCatchMacros.hpp</text>
</g>
<!-- Node0&#45;&gt;Node10 -->
<g id="edge10" class="edge">
<title>Node0&#45;&gt;Node10</title>
<path fill="none" stroke="#191970" d="M855.8594,-252.6029C924.8948,-240.5262 1048.2767,-218.9425 1123.6696,-205.7536"/>
<polygon fill="#191970" stroke="#191970" points="1124.2778,-209.2005 1133.525,-204.0296 1123.0715,-202.3052 1124.2778,-209.2005"/>
</g>
<!-- Node11 -->
<g id="node12" class="node">
<title>Node11</title>
<polygon fill="#ffffff" stroke="#bfbfbf" points="1294.5,-185 1294.5,-204 1433.5,-204 1433.5,-185 1294.5,-185"/>
<text text-anchor="middle" x="1364" y="-192" font-family="Helvetica,sans-Serif" font-size="10.00" fill="#000000">Teuchos_ParameterList.hpp</text>
</g>
<!-- Node0&#45;&gt;Node11 -->
<g id="edge11" class="edge">
<title>Node0&#45;&gt;Node11</title>
<path fill="none" stroke="#191970" d="M855.6337,-257.5237C943.3698,-250.3091 1129.2108,-233.595 1285,-210 1292.7733,-208.8227 1300.9447,-207.4144 1308.9639,-205.9335"/>
<polygon fill="#191970" stroke="#191970" points="1309.826,-209.3325 1318.9989,-204.0308 1308.5219,-202.4551 1309.826,-209.3325"/>
</g>
<!-- Node12 -->
<g id="node13" class="node">
<title>Node12</title>
<polygon fill="#ffffff" stroke="#bfbfbf" points="1452,-179.5 1452,-209.5 1592,-209.5 1592,-179.5 1452,-179.5"/>
<text text-anchor="start" x="1460" y="-197.5" font-family="Helvetica,sans-Serif" font-size="10.00" fill="#000000">Teuchos_XMLParameterList</text>
<text text-anchor="middle" x="1522" y="-186.5" font-family="Helvetica,sans-Serif" font-size="10.00" fill="#000000">CoreHelpers.hpp</text>
</g>
<!-- Node0&#45;&gt;Node12 -->
<g id="edge12" class="edge">
<title>Node0&#45;&gt;Node12</title>
<path fill="none" stroke="#191970" d="M855.5775,-259.3163C962.0587,-254.3074 1217.2746,-240.1385 1441.8385,-209.9094"/>
<polygon fill="#191970" stroke="#191970" points="1442.3956,-213.366 1451.8328,-208.5506 1441.4525,-206.4298 1442.3956,-213.366"/>
</g>
<!-- Node13 -->
<g id="node14" class="node">
<title>Node13</title>
<polygon fill="#ffffff" stroke="#bfbfbf" points="1610.5,-179.5 1610.5,-209.5 1739.5,-209.5 1739.5,-179.5 1610.5,-179.5"/>
<text text-anchor="start" x="1618.5" y="-197.5" font-family="Helvetica,sans-Serif" font-size="10.00" fill="#000000">Stratimikos_DefaultLinear</text>
<text text-anchor="middle" x="1675" y="-186.5" font-family="Helvetica,sans-Serif" font-size="10.00" fill="#000000">SolverBuilder.hpp</text>
</g>
<!-- Node0&#45;&gt;Node13 -->
<g id="edge13" class="edge">
<title>Node0&#45;&gt;Node13</title>
<path fill="none" stroke="#191970" d="M855.5383,-260.7138C980.3369,-258.2406 1313.1626,-248.4084 1599.9369,-210.0113"/>
<polygon fill="#191970" stroke="#191970" points="1600.6782,-213.443 1610.1185,-208.6333 1599.7394,-206.5062 1600.6782,-213.443"/>
</g>
<!-- Node14 -->
<g id="node15" class="node">
<title>Node14</title>
<g id="a_node15"><a xlink:href="../../d3/df7/_a_s_m_e_s_b_v_p_8hpp.html" target="_top" xlink:title="ASMESBVP.hpp">
<polygon fill="#ffffff" stroke="#000000" points="1757.5,-185 1757.5,-204 1848.5,-204 1848.5,-185 1757.5,-185"/>
<text text-anchor="middle" x="1803" y="-192" font-family="Helvetica,sans-Serif" font-size="10.00" fill="#000000">ASMESBVP.hpp</text>
</a>
</g>
</g>
<!-- Node0&#45;&gt;Node14 -->
<g id="edge14" class="edge">
<title>Node0&#45;&gt;Node14</title>
<path fill="none" stroke="#191970" d="M855.5467,-260.2069C1025.2639,-255.6355 1573.8236,-238.9359 1748,-210 1753.1287,-209.148 1758.4625,-207.9952 1763.7024,-206.7006"/>
<polygon fill="#191970" stroke="#191970" points="1764.8173,-210.0259 1773.5849,-204.0778 1763.0216,-203.2602 1764.8173,-210.0259"/>
</g>
<!-- Node15 -->
<g id="node16" class="node">
<title>Node15</title>
<g id="a_node16"><a xlink:href="../../d4/d27/shinozukapp__layeredcomp_8hpp.html" target="_top" xlink:title="shinozukapp_layeredcomp.hpp">
<polygon fill="#ffffff" stroke="#000000" points="1724.5,-123.5 1724.5,-142.5 1875.5,-142.5 1875.5,-123.5 1724.5,-123.5"/>
<text text-anchor="middle" x="1800" y="-130.5" font-family="Helvetica,sans-Serif" font-size="10.00" fill="#000000">shinozukapp_layeredcomp.hpp</text>
</a>
</g>
</g>
<!-- Node14&#45;&gt;Node15 -->
<g id="edge15" class="edge">
<title>Node14&#45;&gt;Node15</title>
<path fill="none" stroke="#191970" d="M1802.5313,-184.8906C1802.1154,-176.3657 1801.4946,-163.6392 1800.9719,-152.9235"/>
<polygon fill="#191970" stroke="#191970" points="1804.4585,-152.5624 1800.4754,-142.7449 1797.4668,-152.9035 1804.4585,-152.5624"/>
</g>
<!-- Node53 -->
<g id="node48" class="node">
<title>Node53</title>
<g id="a_node48"><a xlink:href="../../de/d49/tensor__calculus_8hpp.html" target="_top" xlink:title="tensor_calculus.hpp">
<polygon fill="#ffffff" stroke="#000000" points="1489,-123.5 1489,-142.5 1593,-142.5 1593,-123.5 1489,-123.5"/>
<text text-anchor="middle" x="1541" y="-130.5" font-family="Helvetica,sans-Serif" font-size="10.00" fill="#000000">tensor_calculus.hpp</text>
</a>
</g>
</g>
<!-- Node14&#45;&gt;Node53 -->
<g id="edge48" class="edge">
<title>Node14&#45;&gt;Node53</title>
<path fill="none" stroke="#191970" d="M1770.2165,-184.9363C1762.9234,-182.8995 1755.2152,-180.8169 1748,-179 1697.3751,-166.2521 1639.3192,-153.5124 1597.5988,-144.6834"/>
<polygon fill="#191970" stroke="#191970" points="1598.1324,-141.219 1587.6255,-142.5814 1596.6887,-148.0686 1598.1324,-141.219"/>
</g>
<!-- Node54 -->
<g id="node49" class="node">
<title>Node54</title>
<g id="a_node49"><a xlink:href="../../d5/dfe/linearized_elasticity_8hpp.html" target="_top" xlink:title="linearizedElasticity.hpp">
<polygon fill="#ffffff" stroke="#000000" points="2080.5,-123.5 2080.5,-142.5 2197.5,-142.5 2197.5,-123.5 2080.5,-123.5"/>
<text text-anchor="middle" x="2139" y="-130.5" font-family="Helvetica,sans-Serif" font-size="10.00" fill="#000000">linearizedElasticity.hpp</text>
</a>
</g>
</g>
<!-- Node14&#45;&gt;Node54 -->
<g id="edge50" class="edge">
<title>Node14&#45;&gt;Node54</title>
<path fill="none" stroke="#191970" d="M1848.6641,-186.1418C1907.8012,-175.3176 2011.1091,-156.4086 2077.2167,-144.3085"/>
<polygon fill="#191970" stroke="#191970" points="2077.8861,-147.7443 2087.0925,-142.5009 2076.6257,-140.8587 2077.8861,-147.7443"/>
</g>
<!-- Node16 -->
<g id="node17" class="node">
<title>Node16</title>
<g id="a_node17"><a xlink:href="../../d0/d02/meshpp_8hpp.html" target="_top" xlink:title="meshpp.hpp">
<polygon fill="#ffffff" stroke="#ff0000" points="1390,-62 1390,-81 1460,-81 1460,-62 1390,-62"/>
<text text-anchor="middle" x="1425" y="-69" font-family="Helvetica,sans-Serif" font-size="10.00" fill="#000000">meshpp.hpp</text>
</a>
</g>
</g>
<!-- Node15&#45;&gt;Node16 -->
<g id="edge16" class="edge">
<title>Node15&#45;&gt;Node16</title>
<path fill="none" stroke="#191970" d="M1724.2595,-126.8324C1656.6403,-120.2984 1555.2564,-107.9615 1469,-87 1465.7733,-86.2159 1462.4516,-85.2853 1459.148,-84.2754"/>
<polygon fill="#191970" stroke="#191970" points="1459.9978,-80.8706 1449.4049,-81.0744 1457.8129,-87.5209 1459.9978,-80.8706"/>
</g>
<!-- Node47 -->
<g id="node42" class="node">
<title>Node47</title>
<polygon fill="#ffffff" stroke="#bfbfbf" points="1478,-56.5 1478,-86.5 1600,-86.5 1600,-56.5 1478,-56.5"/>
<text text-anchor="start" x="1486" y="-74.5" font-family="Helvetica,sans-Serif" font-size="10.00" fill="#000000">boost/random/mersenne</text>
<text text-anchor="middle" x="1539" y="-63.5" font-family="Helvetica,sans-Serif" font-size="10.00" fill="#000000">_twister.hpp</text>
</g>
<!-- Node15&#45;&gt;Node47 -->
<g id="edge42" class="edge">
<title>Node15&#45;&gt;Node47</title>
<path fill="none" stroke="#191970" d="M1759.5051,-123.4581C1719.6699,-114.0716 1658.0191,-99.5447 1610.023,-88.2353"/>
<polygon fill="#191970" stroke="#191970" points="1610.5373,-84.7607 1600.0011,-85.8738 1608.9318,-91.5741 1610.5373,-84.7607"/>
</g>
<!-- Node48 -->
<g id="node43" class="node">
<title>Node48</title>
<polygon fill="#ffffff" stroke="#bfbfbf" points="1618.5,-56.5 1618.5,-86.5 1729.5,-86.5 1729.5,-56.5 1618.5,-56.5"/>
<text text-anchor="start" x="1626.5" y="-74.5" font-family="Helvetica,sans-Serif" font-size="10.00" fill="#000000">boost/random/uniform</text>
<text text-anchor="middle" x="1674" y="-63.5" font-family="Helvetica,sans-Serif" font-size="10.00" fill="#000000">_real_distribution.hpp</text>
</g>
<!-- Node15&#45;&gt;Node48 -->
<g id="edge43" class="edge">
<title>Node15&#45;&gt;Node48</title>
<path fill="none" stroke="#191970" d="M1780.3125,-123.3906C1762.6284,-114.7591 1736.1194,-101.8202 1713.997,-91.0224"/>
<polygon fill="#191970" stroke="#191970" points="1715.345,-87.7857 1704.8231,-86.5446 1712.2745,-94.0763 1715.345,-87.7857"/>
</g>
<!-- Node49 -->
<g id="node44" class="node">
<title>Node49</title>
<polygon fill="#ffffff" stroke="#bfbfbf" points="1747.5,-56.5 1747.5,-86.5 1846.5,-86.5 1846.5,-56.5 1747.5,-56.5"/>
<text text-anchor="start" x="1755.5" y="-74.5" font-family="Helvetica,sans-Serif" font-size="10.00" fill="#000000">boost/math/special</text>
<text text-anchor="middle" x="1797" y="-63.5" font-family="Helvetica,sans-Serif" font-size="10.00" fill="#000000">_functions/erf.hpp</text>
</g>
<!-- Node15&#45;&gt;Node49 -->
<g id="edge44" class="edge">
<title>Node15&#45;&gt;Node49</title>
<path fill="none" stroke="#191970" d="M1799.5313,-123.3906C1799.1816,-116.2234 1798.6871,-106.0862 1798.2279,-96.671"/>
<polygon fill="#191970" stroke="#191970" points="1801.717,-96.3622 1797.7339,-86.5446 1794.7254,-96.7033 1801.717,-96.3622"/>
</g>
<!-- Node50 -->
<g id="node45" class="node">
<title>Node50</title>
<polygon fill="#ffffff" stroke="#bfbfbf" points="1865,-56.5 1865,-86.5 1973,-86.5 1973,-56.5 1865,-56.5"/>
<text text-anchor="start" x="1873" y="-74.5" font-family="Helvetica,sans-Serif" font-size="10.00" fill="#000000">boost/random/normal</text>
<text text-anchor="middle" x="1919" y="-63.5" font-family="Helvetica,sans-Serif" font-size="10.00" fill="#000000">_distribution.hpp</text>
</g>
<!-- Node15&#45;&gt;Node50 -->
<g id="edge45" class="edge">
<title>Node15&#45;&gt;Node50</title>
<path fill="none" stroke="#191970" d="M1818.5938,-123.3906C1835.2209,-114.7976 1860.1083,-101.9356 1880.945,-91.1671"/>
<polygon fill="#191970" stroke="#191970" points="1882.6125,-94.2451 1889.8893,-86.5446 1879.3986,-88.0265 1882.6125,-94.2451"/>
</g>
<!-- Node51 -->
<g id="node46" class="node">
<title>Node51</title>
<polygon fill="#ffffff" stroke="#bfbfbf" points="1991,-56.5 1991,-86.5 2107,-86.5 2107,-56.5 1991,-56.5"/>
<text text-anchor="start" x="1999" y="-74.5" font-family="Helvetica,sans-Serif" font-size="10.00" fill="#000000">boost/math/special</text>
<text text-anchor="middle" x="2049" y="-63.5" font-family="Helvetica,sans-Serif" font-size="10.00" fill="#000000">_functions/gamma.hpp</text>
</g>
<!-- Node15&#45;&gt;Node51 -->
<g id="edge46" class="edge">
<title>Node15&#45;&gt;Node51</title>
<path fill="none" stroke="#191970" d="M1838.633,-123.4581C1876.5573,-114.0913 1935.207,-99.6055 1980.9549,-88.3063"/>
<polygon fill="#191970" stroke="#191970" points="1981.9345,-91.6696 1990.8035,-85.8738 1980.256,-84.8738 1981.9345,-91.6696"/>
</g>
<!-- Node52 -->
<g id="node47" class="node">
<title>Node52</title>
<polygon fill="#ffffff" stroke="#bfbfbf" points="2125,-56.5 2125,-86.5 2227,-86.5 2227,-56.5 2125,-56.5"/>
<text text-anchor="start" x="2133" y="-74.5" font-family="Helvetica,sans-Serif" font-size="10.00" fill="#000000">boost/math/special</text>
<text text-anchor="middle" x="2176" y="-63.5" font-family="Helvetica,sans-Serif" font-size="10.00" fill="#000000">_functions/beta.hpp</text>
</g>
<!-- Node15&#45;&gt;Node52 -->
<g id="edge47" class="edge">
<title>Node15&#45;&gt;Node52</title>
<path fill="none" stroke="#191970" d="M1875.7359,-124.3135C1937.614,-116.6795 2027.5065,-104.3694 2114.6376,-87.1549"/>
<polygon fill="#191970" stroke="#191970" points="2115.5782,-90.5362 2124.6975,-85.1428 2114.2052,-83.6722 2115.5782,-90.5362"/>
</g>
<!-- Node16&#45;&gt;Node3 -->
<g id="edge41" class="edge">
<title>Node16&#45;&gt;Node3</title>
<path fill="none" stroke="#191970" d="M1389.98,-70.9962C1256.0504,-68.8175 763.5629,-58.4983 360,-20 356.7615,-19.6911 353.4434,-19.3389 350.0969,-18.9559"/>
<polygon fill="#191970" stroke="#191970" points="350.3737,-15.4637 340.0232,-17.7261 349.5253,-22.4122 350.3737,-15.4637"/>
</g>
<!-- Node17 -->
<g id="node18" class="node">
<title>Node17</title>
<polygon fill="#ffffff" stroke="#bfbfbf" points="369,-.5 369,-19.5 415,-19.5 415,-.5 369,-.5"/>
<text text-anchor="middle" x="392" y="-7.5" font-family="Helvetica,sans-Serif" font-size="10.00" fill="#000000">stdio.h</text>
</g>
<!-- Node16&#45;&gt;Node17 -->
<g id="edge17" class="edge">
<title>Node16&#45;&gt;Node17</title>
<path fill="none" stroke="#191970" d="M1389.952,-70.8775C1238.0628,-68.0018 635.2828,-54.7061 425.2494,-19.7436"/>
<polygon fill="#191970" stroke="#191970" points="425.701,-16.2698 415.2498,-18.0084 424.5041,-23.1667 425.701,-16.2698"/>
</g>
<!-- Node18 -->
<g id="node19" class="node">
<title>Node18</title>
<polygon fill="#ffffff" stroke="#bfbfbf" points="433,-.5 433,-19.5 487,-19.5 487,-.5 433,-.5"/>
<text text-anchor="middle" x="460" y="-7.5" font-family="Helvetica,sans-Serif" font-size="10.00" fill="#000000">iostream</text>
</g>
<!-- Node16&#45;&gt;Node18 -->
<g id="edge18" class="edge">
<title>Node16&#45;&gt;Node18</title>
<path fill="none" stroke="#191970" d="M1389.5545,-70.5573C1244.2159,-66.5372 692.7827,-49.7312 497.5162,-19.8765"/>
<polygon fill="#191970" stroke="#191970" points="497.8074,-16.3789 487.3811,-18.2615 496.7057,-23.2916 497.8074,-16.3789"/>
</g>
<!-- Node19 -->
<g id="node20" class="node">
<title>Node19</title>
<polygon fill="#ffffff" stroke="#bfbfbf" points="505.5,-.5 505.5,-19.5 554.5,-19.5 554.5,-.5 505.5,-.5"/>
<text text-anchor="middle" x="530" y="-7.5" font-family="Helvetica,sans-Serif" font-size="10.00" fill="#000000">istream</text>
</g>
<!-- Node16&#45;&gt;Node19 -->
<g id="edge19" class="edge">
<title>Node16&#45;&gt;Node19</title>
<path fill="none" stroke="#191970" d="M1389.7831,-70.4569C1251.6631,-66.2049 746.0666,-49.0866 564.6648,-19.6587"/>
<polygon fill="#191970" stroke="#191970" points="565.1726,-16.195 554.7286,-17.9765 564.0041,-23.0968 565.1726,-16.195"/>
</g>
<!-- Node20 -->
<g id="node21" class="node">
<title>Node20</title>
<polygon fill="#ffffff" stroke="#bfbfbf" points="573,-.5 573,-19.5 623,-19.5 623,-.5 573,-.5"/>
<text text-anchor="middle" x="598" y="-7.5" font-family="Helvetica,sans-Serif" font-size="10.00" fill="#000000">fstream</text>
</g>
<!-- Node16&#45;&gt;Node20 -->
<g id="edge20" class="edge">
<title>Node16&#45;&gt;Node20</title>
<path fill="none" stroke="#191970" d="M1389.8725,-70.2529C1259.1577,-65.4553 800.2798,-47.1714 633.2077,-19.7881"/>
<polygon fill="#191970" stroke="#191970" points="633.5507,-16.2959 623.1031,-18.0562 632.3681,-23.1953 633.5507,-16.2959"/>
</g>
<!-- Node21 -->
<g id="node22" class="node">
<title>Node21</title>
<polygon fill="#ffffff" stroke="#bfbfbf" points="641,-.5 641,-19.5 685,-19.5 685,-.5 641,-.5"/>
<text text-anchor="middle" x="663" y="-7.5" font-family="Helvetica,sans-Serif" font-size="10.00" fill="#000000">vector</text>
</g>
<!-- Node16&#45;&gt;Node21 -->
<g id="edge21" class="edge">
<title>Node16&#45;&gt;Node21</title>
<path fill="none" stroke="#191970" d="M1389.5898,-70.1399C1265.3731,-65.1961 849.1182,-47.1285 695.3589,-19.7661"/>
<polygon fill="#191970" stroke="#191970" points="695.6552,-16.261 685.1826,-17.8653 694.3699,-23.142 695.6552,-16.261"/>
</g>
<!-- Node22 -->
<g id="node23" class="node">
<title>Node22</title>
<polygon fill="#ffffff" stroke="#bfbfbf" points="703,-.5 703,-19.5 753,-19.5 753,-.5 703,-.5"/>
<text text-anchor="middle" x="728" y="-7.5" font-family="Helvetica,sans-Serif" font-size="10.00" fill="#000000">iomanip</text>
</g>
<!-- Node16&#45;&gt;Node22 -->
<g id="edge22" class="edge">
<title>Node16&#45;&gt;Node22</title>
<path fill="none" stroke="#191970" d="M1389.6557,-69.7296C1273.4366,-63.7593 903.0458,-43.5119 763.1702,-19.8058"/>
<polygon fill="#191970" stroke="#191970" points="763.5676,-16.3217 753.1097,-18.0197 762.3439,-23.2139 763.5676,-16.3217"/>
</g>
<!-- Node23 -->
<g id="node24" class="node">
<title>Node23</title>
<polygon fill="#ffffff" stroke="#bfbfbf" points="771,-.5 771,-19.5 875,-19.5 875,-.5 771,-.5"/>
<text text-anchor="middle" x="823" y="-7.5" font-family="Helvetica,sans-Serif" font-size="10.00" fill="#000000">Epetra_MpiComm.h</text>
</g>
<!-- Node16&#45;&gt;Node23 -->
<g id="edge23" class="edge">
<title>Node16&#45;&gt;Node23</title>
<path fill="none" stroke="#191970" d="M1389.7799,-68.9762C1304.8267,-62.7114 1081.7481,-45.2058 885.143,-20.0762"/>
<polygon fill="#191970" stroke="#191970" points="885.5745,-16.603 875.2093,-18.797 884.6804,-23.5456 885.5745,-16.603"/>
</g>
<!-- Node24 -->
<g id="node25" class="node">
<title>Node24</title>
<polygon fill="#ffffff" stroke="#bfbfbf" points="893.5,-.5 893.5,-19.5 1006.5,-19.5 1006.5,-.5 893.5,-.5"/>
<text text-anchor="middle" x="950" y="-7.5" font-family="Helvetica,sans-Serif" font-size="10.00" fill="#000000">Epetra_FECrsGraph.h</text>
</g>
<!-- Node16&#45;&gt;Node24 -->
<g id="edge24" class="edge">
<title>Node16&#45;&gt;Node24</title>
<path fill="none" stroke="#191970" d="M1389.9462,-67.387C1320.7745,-59.2058 1161.5961,-40.0579 1016.4908,-20.039"/>
<polygon fill="#191970" stroke="#191970" points="1016.8976,-16.562 1006.5121,-18.6578 1015.9378,-23.4959 1016.8976,-16.562"/>
</g>
<!-- Node25 -->
<g id="node26" class="node">
<title>Node25</title>
<polygon fill="#ffffff" stroke="#bfbfbf" points="1025,-.5 1025,-19.5 1139,-19.5 1139,-.5 1025,-.5"/>
<text text-anchor="middle" x="1082" y="-7.5" font-family="Helvetica,sans-Serif" font-size="10.00" fill="#000000">Epetra_FECrsMatrix.h</text>
</g>
<!-- Node16&#45;&gt;Node25 -->
<g id="edge25" class="edge">
<title>Node16&#45;&gt;Node25</title>
<path fill="none" stroke="#191970" d="M1389.9049,-65.2074C1332.341,-54.8862 1217.0797,-34.2198 1145.0659,-21.3077"/>
<polygon fill="#191970" stroke="#191970" points="1145.6628,-17.859 1135.202,-19.5391 1144.4273,-24.7491 1145.6628,-17.859"/>
</g>
<!-- Node26 -->
<g id="node27" class="node">
<title>Node26</title>
<polygon fill="#ffffff" stroke="#bfbfbf" points="1157,-.5 1157,-19.5 1257,-19.5 1257,-.5 1157,-.5"/>
<text text-anchor="middle" x="1207" y="-7.5" font-family="Helvetica,sans-Serif" font-size="10.00" fill="#000000">Epetra_FEVector.h</text>
</g>
<!-- Node16&#45;&gt;Node26 -->
<g id="edge26" class="edge">
<title>Node16&#45;&gt;Node26</title>
<path fill="none" stroke="#191970" d="M1390.9375,-61.8906C1353.1023,-51.2169 1291.9194,-33.9566 1250.6115,-22.3033"/>
<polygon fill="#191970" stroke="#191970" points="1251.398,-18.8886 1240.8233,-19.5419 1249.4973,-25.6256 1251.398,-18.8886"/>
</g>
<!-- Node27 -->
<g id="node28" class="node">
<title>Node27</title>
<polygon fill="#ffffff" stroke="#bfbfbf" points="1275.5,-.5 1275.5,-19.5 1362.5,-19.5 1362.5,-.5 1275.5,-.5"/>
<text text-anchor="middle" x="1319" y="-7.5" font-family="Helvetica,sans-Serif" font-size="10.00" fill="#000000">Epetra_Vector.h</text>
</g>
<!-- Node16&#45;&gt;Node27 -->
<g id="edge27" class="edge">
<title>Node16&#45;&gt;Node27</title>
<path fill="none" stroke="#191970" d="M1408.4375,-61.8906C1391.2463,-51.9165 1364.1418,-36.1908 1344.2734,-24.6633"/>
<polygon fill="#191970" stroke="#191970" points="1345.8523,-21.533 1335.4462,-19.5419 1342.3394,-27.5877 1345.8523,-21.533"/>
</g>
<!-- Node28 -->
<g id="node29" class="node">
<title>Node28</title>
<polygon fill="#ffffff" stroke="#bfbfbf" points="1380.5,-.5 1380.5,-19.5 1457.5,-19.5 1457.5,-.5 1380.5,-.5"/>
<text text-anchor="middle" x="1419" y="-7.5" font-family="Helvetica,sans-Serif" font-size="10.00" fill="#000000">Epetra_Map.h</text>
</g>
<!-- Node16&#45;&gt;Node28 -->
<g id="edge28" class="edge">
<title>Node16&#45;&gt;Node28</title>
<path fill="none" stroke="#191970" d="M1424.0625,-61.8906C1423.2308,-53.3657 1421.9892,-40.6392 1420.9438,-29.9235"/>
<polygon fill="#191970" stroke="#191970" points="1424.4053,-29.3577 1419.9507,-19.7449 1417.4383,-30.0375 1424.4053,-29.3577"/>
</g>
<!-- Node29 -->
<g id="node30" class="node">
<title>Node29</title>
<polygon fill="#ffffff" stroke="#bfbfbf" points="1475.5,-.5 1475.5,-19.5 1614.5,-19.5 1614.5,-.5 1475.5,-.5"/>
<text text-anchor="middle" x="1545" y="-7.5" font-family="Helvetica,sans-Serif" font-size="10.00" fill="#000000">Epetra_SerialDenseMatrix.h</text>
</g>
<!-- Node16&#45;&gt;Node29 -->
<g id="edge29" class="edge">
<title>Node16&#45;&gt;Node29</title>
<path fill="none" stroke="#191970" d="M1443.75,-61.8906C1463.476,-51.7811 1494.7312,-35.7628 1517.3,-24.1962"/>
<polygon fill="#191970" stroke="#191970" points="1519.0787,-27.2176 1526.3817,-19.5419 1515.886,-20.9881 1519.0787,-27.2176"/>
</g>
<!-- Node30 -->
<g id="node31" class="node">
<title>Node30</title>
<polygon fill="#ffffff" stroke="#bfbfbf" points="1633,-.5 1633,-19.5 1773,-19.5 1773,-.5 1633,-.5"/>
<text text-anchor="middle" x="1703" y="-7.5" font-family="Helvetica,sans-Serif" font-size="10.00" fill="#000000">Epetra_SerialDenseVector.h</text>
</g>
<!-- Node16&#45;&gt;Node30 -->
<g id="edge30" class="edge">
<title>Node16&#45;&gt;Node30</title>
<path fill="none" stroke="#191970" d="M1450.3958,-61.8521C1456.4403,-59.7517 1462.9056,-57.6631 1469,-56 1522.9568,-41.2758 1585.1272,-29.2823 1631.8182,-21.2375"/>
<polygon fill="#191970" stroke="#191970" points="1632.5665,-24.6606 1641.8367,-19.531 1631.391,-17.76 1632.5665,-24.6606"/>
</g>
<!-- Node31 -->
<g id="node32" class="node">
<title>Node31</title>
<polygon fill="#ffffff" stroke="#bfbfbf" points="1791,-.5 1791,-19.5 1943,-19.5 1943,-.5 1791,-.5"/>
<text text-anchor="middle" x="1867" y="-7.5" font-family="Helvetica,sans-Serif" font-size="10.00" fill="#000000">Epetra_IntSerialDenseVector.h</text>
</g>
<!-- Node16&#45;&gt;Node31 -->
<g id="edge31" class="edge">
<title>Node16&#45;&gt;Node31</title>
<path fill="none" stroke="#191970" d="M1448.9193,-61.9812C1455.3547,-59.7227 1462.3708,-57.5285 1469,-56 1602.2503,-25.2771 1641.0994,-35.6586 1780.3437,-20.1653"/>
<polygon fill="#191970" stroke="#191970" points="1781.0054,-23.6127 1790.5455,-19.0041 1780.2138,-16.6576 1781.0054,-23.6127"/>
</g>
<!-- Node32 -->
<g id="node33" class="node">
<title>Node32</title>
<polygon fill="#ffffff" stroke="#bfbfbf" points="1961,-.5 1961,-19.5 2047,-19.5 2047,-.5 1961,-.5"/>
<text text-anchor="middle" x="2004" y="-7.5" font-family="Helvetica,sans-Serif" font-size="10.00" fill="#000000">Epetra_Import.h</text>
</g>
<!-- Node16&#45;&gt;Node32 -->
<g id="edge32" class="edge">
<title>Node16&#45;&gt;Node32</title>
<path fill="none" stroke="#191970" d="M1448.4209,-61.9622C1454.9805,-59.6464 1462.1829,-57.4284 1469,-56 1676.4976,-12.5219 1736.7972,-47.2861 1950.9482,-19.9831"/>
<polygon fill="#191970" stroke="#191970" points="1951.4696,-23.4448 1960.9324,-18.6797 1950.5635,-16.5037 1951.4696,-23.4448"/>
</g>
<!-- Node33 -->
<g id="node34" class="node">
<title>Node33</title>
<polygon fill="#ffffff" stroke="#bfbfbf" points="2065.5,-.5 2065.5,-19.5 2152.5,-19.5 2152.5,-.5 2065.5,-.5"/>
<text text-anchor="middle" x="2109" y="-7.5" font-family="Helvetica,sans-Serif" font-size="10.00" fill="#000000">Epetra_Export.h</text>
</g>
<!-- Node16&#45;&gt;Node33 -->
<g id="edge33" class="edge">
<title>Node16&#45;&gt;Node33</title>
<path fill="none" stroke="#191970" d="M1448.4087,-61.9028C1454.9682,-59.5868 1462.1737,-57.3836 1469,-56 1721.918,-4.7375 1794.7796,-51.0861 2055.2535,-19.9165"/>
<polygon fill="#191970" stroke="#191970" points="2055.8946,-23.3642 2065.3953,-18.6752 2055.0442,-16.416 2055.8946,-23.3642"/>
</g>
<!-- Node34 -->
<g id="node35" class="node">
<title>Node34</title>
<polygon fill="#ffffff" stroke="#bfbfbf" points="2171,-.5 2171,-19.5 2251,-19.5 2251,-.5 2171,-.5"/>
<text text-anchor="middle" x="2211" y="-7.5" font-family="Helvetica,sans-Serif" font-size="10.00" fill="#000000">Epetra_Time.h</text>
</g>
<!-- Node16&#45;&gt;Node34 -->
<g id="edge34" class="edge">
<title>Node16&#45;&gt;Node34</title>
<path fill="none" stroke="#191970" d="M1448.4002,-61.8606C1454.9597,-59.5444 1462.1673,-57.3517 1469,-56 1768.3021,3.2083 1854.2127,-57.609 2160.9004,-19.939"/>
<polygon fill="#191970" stroke="#191970" points="2161.4829,-23.3935 2170.9699,-18.6767 2160.6121,-16.4478 2161.4829,-23.3935"/>
</g>
<!-- Node35 -->
<g id="node36" class="node">
<title>Node35</title>
<polygon fill="#ffffff" stroke="#bfbfbf" points="2269.5,-.5 2269.5,-19.5 2416.5,-19.5 2416.5,-.5 2269.5,-.5"/>
<text text-anchor="middle" x="2343" y="-7.5" font-family="Helvetica,sans-Serif" font-size="10.00" fill="#000000">ml_MultiLevelPreconditioner.h</text>
</g>
<!-- Node16&#45;&gt;Node35 -->
<g id="edge35" class="edge">
<title>Node16&#45;&gt;Node35</title>
<path fill="none" stroke="#191970" d="M1447.938,-61.9934C1454.6185,-59.6174 1462.004,-57.3606 1469,-56 1811.1576,10.5453 1907.4544,-47.932 2259.0518,-20.0023"/>
<polygon fill="#191970" stroke="#191970" points="2259.5791,-23.4711 2269.2627,-19.1727 2259.0121,-16.4941 2259.5791,-23.4711"/>
</g>
<!-- Node36 -->
<g id="node37" class="node">
<title>Node36</title>
<polygon fill="#ffffff" stroke="#bfbfbf" points="2434.5,-.5 2434.5,-19.5 2525.5,-19.5 2525.5,-.5 2434.5,-.5"/>
<text text-anchor="middle" x="2480" y="-7.5" font-family="Helvetica,sans-Serif" font-size="10.00" fill="#000000">ml_epetra_utils.h</text>
</g>
<!-- Node16&#45;&gt;Node36 -->
<g id="edge36" class="edge">
<title>Node16&#45;&gt;Node36</title>
<path fill="none" stroke="#191970" d="M1447.9311,-61.9578C1454.6115,-59.5812 1461.9987,-57.3331 1469,-56 1883.8561,22.989 2001.1266,-65.4722 2424.3497,-20.0244"/>
<polygon fill="#191970" stroke="#191970" points="2424.8436,-23.4914 2434.4043,-18.9258 2424.0832,-16.5328 2424.8436,-23.4914"/>
</g>
<!-- Node37 -->
<g id="node38" class="node">
<title>Node37</title>
<polygon fill="#ffffff" stroke="#bfbfbf" points="2543.5,-.5 2543.5,-19.5 2614.5,-19.5 2614.5,-.5 2543.5,-.5"/>
<text text-anchor="middle" x="2579" y="-7.5" font-family="Helvetica,sans-Serif" font-size="10.00" fill="#000000">ml_include.h</text>
</g>
<!-- Node16&#45;&gt;Node37 -->
<g id="edge37" class="edge">
<title>Node16&#45;&gt;Node37</title>
<path fill="none" stroke="#191970" d="M1447.9278,-61.9404C1454.6082,-59.5635 1461.9961,-57.3196 1469,-56 1931.5531,31.1502 2063.0098,-79.2188 2532.9762,-20.0389"/>
<polygon fill="#191970" stroke="#191970" points="2533.6061,-23.487 2543.0814,-18.747 2532.7183,-16.5435 2533.6061,-23.487"/>
</g>
<!-- Node38 -->
<g id="node39" class="node">
<title>Node38</title>
<polygon fill="#ffffff" stroke="#bfbfbf" points="2632.5,-.5 2632.5,-19.5 2769.5,-19.5 2769.5,-.5 2632.5,-.5"/>
<text text-anchor="middle" x="2701" y="-7.5" font-family="Helvetica,sans-Serif" font-size="10.00" fill="#000000">EpetraExt_RowMatrixOut.h</text>
</g>
<!-- Node16&#45;&gt;Node38 -->
<g id="edge38" class="edge">
<title>Node16&#45;&gt;Node38</title>
<path fill="none" stroke="#191970" d="M1447.9256,-61.9286C1454.6059,-59.5516 1461.9944,-57.3105 1469,-56 1718.2084,-9.3816 2351.6786,-39.7664 2621.9443,-20.0613"/>
<polygon fill="#191970" stroke="#191970" points="2622.485,-23.5302 2632.1882,-19.2761 2621.9499,-16.5507 2622.485,-23.5302"/>
</g>
<!-- Node39 -->
<g id="node40" class="node">
<title>Node39</title>
<polygon fill="#ffffff" stroke="#bfbfbf" points="2787.5,-.5 2787.5,-19.5 2926.5,-19.5 2926.5,-.5 2787.5,-.5"/>
<text text-anchor="middle" x="2857" y="-7.5" font-family="Helvetica,sans-Serif" font-size="10.00" fill="#000000">EpetraExt_MultiVectorOut.h</text>
</g>
<!-- Node16&#45;&gt;Node39 -->
<g id="edge39" class="edge">
<title>Node16&#45;&gt;Node39</title>
<path fill="none" stroke="#191970" d="M1447.9225,-61.9119C1454.6028,-59.5346 1461.992,-57.2976 1469,-56 1752.1378,-3.5743 2472.2387,-41.6676 2777.0697,-20.0475"/>
<polygon fill="#191970" stroke="#191970" points="2777.5815,-23.5192 2787.2945,-19.2875 2777.0626,-16.5385 2777.5815,-23.5192"/>
</g>
<!-- Node40 -->
<g id="node41" class="node">
<title>Node40</title>
<polygon fill="#ffffff" stroke="#bfbfbf" points="2945,-.5 2945,-19.5 3055,-19.5 3055,-.5 2945,-.5"/>
<text text-anchor="middle" x="3000" y="-7.5" font-family="Helvetica,sans-Serif" font-size="10.00" fill="#000000">EpetraExt_VectorIn.h</text>
</g>
<!-- Node16&#45;&gt;Node40 -->
<g id="edge40" class="edge">
<title>Node16&#45;&gt;Node40</title>
<path fill="none" stroke="#191970" d="M1447.9201,-61.8986C1454.6003,-59.5211 1461.9901,-57.2873 1469,-56 1786.5243,2.3102 2594.8193,-48.2006 2934.7325,-19.9578"/>
<polygon fill="#191970" stroke="#191970" points="2935.238,-23.4272 2944.8984,-19.0768 2934.6335,-16.4533 2935.238,-23.4272"/>
</g>
<!-- Node53&#45;&gt;Node16 -->
<g id="edge49" class="edge">
<title>Node53&#45;&gt;Node16</title>
<path fill="none" stroke="#191970" d="M1522.875,-123.3906C1503.8917,-113.3262 1473.8627,-97.4057 1452.0693,-85.8514"/>
<polygon fill="#191970" stroke="#191970" points="1453.4723,-82.6338 1442.9977,-81.0419 1450.1934,-88.8184 1453.4723,-82.6338"/>
</g>
<!-- Node55 -->
<g id="node50" class="node">
<title>Node55</title>
<g id="a_node50"><a xlink:href="../../d3/dd8/linear_finite_element_problem_8hpp.html" target="_top" xlink:title="linearFiniteElementProblem.hpp">
<polygon fill="#ffffff" stroke="#ff0000" points="2245.5,-62 2245.5,-81 2400.5,-81 2400.5,-62 2245.5,-62"/>
<text text-anchor="middle" x="2323" y="-69" font-family="Helvetica,sans-Serif" font-size="10.00" fill="#000000">linearFiniteElementProblem.hpp</text>
</a>
</g>
</g>
<!-- Node54&#45;&gt;Node55 -->
<g id="edge51" class="edge">
<title>Node54&#45;&gt;Node55</title>
<path fill="none" stroke="#191970" d="M2167.75,-123.3906C2199.2117,-112.8749 2249.8008,-95.966 2284.6314,-84.3243"/>
<polygon fill="#191970" stroke="#191970" points="2286.0772,-87.5315 2294.4519,-81.0419 2283.8581,-80.8925 2286.0772,-87.5315"/>
</g>
</g>
</svg>
        <g id="navigator" transform="translate(0 0)" fill="#404254">
                <rect fill="#f2f5e9" fill-opacity="0.5" stroke="#606060" stroke-width=".5" x="0" y="0" width="60" height="60"/>
                <use id="zoomplus" xlink:href="#zoomPlus" x="17" y="9" onmousedown="handleZoom(evt,'in')"/>
                <use id="zoomminus" xlink:href="#zoomMin" x="42" y="9" onmousedown="handleZoom(evt,'out')"/>
                <use id="reset" xlink:href="#resetDef" x="30" y="36" onmousedown="handleReset()"/>
                <g id="arrowUp" xlink:href="#dirArrow" transform="translate(30 24)" onmousedown="handlePan(0,-1)">
                  <use xlink:href="#rim" fill="#404040">
                        <set attributeName="fill" to="#808080" begin="arrowUp.mouseover" end="arrowUp.mouseout"/>
                  </use>
                  <path fill="none" stroke="white" stroke-width="1.5" d="M0,-3.0v7 M-2.5,-0.5L0,-3.0L2.5,-0.5"/>
                </g>
                <g id="arrowRight" xlink:href="#dirArrow" transform="rotate(90) translate(36 -43)" onmousedown="handlePan(1,0)">
                  <use xlink:href="#rim" fill="#404040">
                        <set attributeName="fill" to="#808080" begin="arrowRight.mouseover" end="arrowRight.mouseout"/>
                  </use>
                  <path fill="none" stroke="white" stroke-width="1.5" d="M0,-3.0v7 M-2.5,-0.5L0,-3.0L2.5,-0.5"/>
                </g>
                <g id="arrowDown" xlink:href="#dirArrow" transform="rotate(180) translate(-30 -48)" onmousedown="handlePan(0,1)">
                  <use xlink:href="#rim" fill="#404040">
                        <set attributeName="fill" to="#808080" begin="arrowDown.mouseover" end="arrowDown.mouseout"/>
                  </use>
                  <path fill="none" stroke="white" stroke-width="1.5" d="M0,-3.0v7 M-2.5,-0.5L0,-3.0L2.5,-0.5"/>
                </g>
                <g id="arrowLeft" xlink:href="#dirArrow" transform="rotate(270) translate(-36 17)" onmousedown="handlePan(-1,0)">
                  <use xlink:href="#rim" fill="#404040">
                        <set attributeName="fill" to="#808080" begin="arrowLeft.mouseover" end="arrowLeft.mouseout"/>
                  </use>
                  <path fill="none" stroke="white" stroke-width="1.5" d="M0,-3.0v7 M-2.5,-0.5L0,-3.0L2.5,-0.5"/>
                </g>
        </g>
        <svg viewBox="0 0 15 15" width="100%" height="30px" preserveAspectRatio="xMaxYMin meet">
         <g id="arrow_out" transform="scale(0.3 0.3)">
          <a xlink:href="asme_2linearelaslam_2main_8cpp__incl_org.svg" target="_base">
           <rect id="button" ry="5" rx="5" y="6" x="6" height="38" width="38"
                fill="#f2f5e9" fill-opacity="0.5" stroke="#606060" stroke-width="1.0"/>
           <path id="arrow"
             d="M 11.500037,31.436501 C 11.940474,20.09759 22.043105,11.32322 32.158766,21.979434 L 37.068811,17.246167 C 37.068811,17.246167 37.088388,32 37.088388,32 L 22.160133,31.978069 C 22.160133,31.978069 26.997745,27.140456 26.997745,27.140456 C 18.528582,18.264221 13.291696,25.230495 11.500037,31.436501 z"
             style="fill:#404040;"/>
          </a>
         </g>
        </svg>
</svg>
