<?xml version="1.0" encoding="UTF-8" standalone="no"?>
<!DOCTYPE svg PUBLIC "-//W3C//DTD SVG 1.1//EN"
 "http://www.w3.org/Graphics/SVG/1.1/DTD/svg11.dtd">
<!-- Generated by graphviz version 2.40.1 (20161225.0304)
 -->
<!-- Title: nrl/forward_deterministic/main.cpp Pages: 1 -->
<!--zoomable 387 -->
<svg id="main" version="1.1" xmlns="http://www.w3.org/2000/svg" xmlns:xlink="http://www.w3.org/1999/xlink" xml:space="preserve" onload="init(evt)">
<style type="text/css"><![CDATA[
.edge:hover path { stroke: red; }
.edge:hover polygon { stroke: red; fill: red; }
]]></style>
<script type="text/javascript"><![CDATA[
var edges = document.getElementsByTagName('g');
if (edges && edges.length) {
  for (var i=0;i<edges.length;i++) {
    if (edges[i].id.substr(0,4)=='edge') {
      edges[i].setAttribute('class','edge');
    }
  }
}
]]></script>
        <defs>
                <circle id="rim" cx="0" cy="0" r="7"/>
                <circle id="rim2" cx="0" cy="0" r="3.5"/>
                <g id="zoomPlus">
                        <use xlink:href="#rim" fill="#404040">
                                <set attributeName="fill" to="#808080" begin="zoomplus.mouseover" end="zoomplus.mouseout"/>
                        </use>
                        <path d="M-4,0h8M0,-4v8" fill="none" stroke="white" stroke-width="1.5" pointer-events="none"/>
                </g>
                <g id="zoomMin">
                        <use xlink:href="#rim" fill="#404040">
                                <set attributeName="fill" to="#808080" begin="zoomminus.mouseover" end="zoomminus.mouseout"/>
                        </use>
                        <path d="M-4,0h8" fill="none" stroke="white" stroke-width="1.5" pointer-events="none"/>
                </g>
                <g id="dirArrow">
                        <path fill="none" stroke="white" stroke-width="1.5" d="M0,-3.0v7 M-2.5,-0.5L0,-3.0L2.5,-0.5"/>
                </g>
               <g id="resetDef">
                       <use xlink:href="#rim2" fill="#404040">
                               <set attributeName="fill" to="#808080" begin="reset.mouseover" end="reset.mouseout"/>
                       </use>
               </g>
        </defs>

<script type="text/javascript">
var viewWidth = 3304;
var viewHeight = 387;
var sectionId = 'dynsection-0';
</script>
<script xlink:href="../../svgpan.js"/>
<svg id="graph" class="graph">
<g id="viewport">
<title>nrl/forward_deterministic/main.cpp</title>
<polygon fill="#ffffff" stroke="transparent" points="-4,4 -4,-383 3299.98,-383 3299.98,4 -4,4"/>
<!-- Node0 -->
<g id="node1" class="node">
<title>Node0</title>
<polygon fill="#bfbfbf" stroke="#000000" points="1561.2686,-350.5 1561.2686,-378.5 1686.1943,-378.5 1686.1943,-350.5 1561.2686,-350.5"/>
<text text-anchor="start" x="1569.2686" y="-366.5" font-family="Helvetica,sans-Serif" font-size="10.00" fill="#000000">nrl/forward_deterministic</text>
<text text-anchor="middle" x="1623.7314" y="-356.5" font-family="Helvetica,sans-Serif" font-size="10.00" fill="#000000">/main.cpp</text>
</g>
<!-- Node1 -->
<g id="node2" class="node">
<title>Node1</title>
<polygon fill="#ffffff" stroke="#bfbfbf" points="1368.3154,-290.5 1368.3154,-308.5 1477.1475,-308.5 1477.1475,-290.5 1368.3154,-290.5"/>
<text text-anchor="middle" x="1422.7314" y="-296.5" font-family="Helvetica,sans-Serif" font-size="10.00" fill="#000000">Epetra_ConfigDefs.h</text>
</g>
<!-- Node0&#45;&gt;Node1 -->
<g id="edge1" class="edge">
<title>Node0&#45;&gt;Node1</title>
<path fill="none" stroke="#191970" d="M1580.1174,-350.396C1544.3879,-338.8416 1494.3551,-322.6619 1460.3609,-311.6687"/>
<polygon fill="#191970" stroke="#191970" points="1461.3838,-308.3211 1450.792,-308.5743 1459.2299,-314.9815 1461.3838,-308.3211"/>
</g>
<!-- Node2 -->
<g id="node3" class="node">
<title>Node2</title>
<polygon fill="#ffffff" stroke="#bfbfbf" points="1495.5444,-290.5 1495.5444,-308.5 1609.9185,-308.5 1609.9185,-290.5 1495.5444,-290.5"/>
<text text-anchor="middle" x="1552.7314" y="-296.5" font-family="Helvetica,sans-Serif" font-size="10.00" fill="#000000">Epetra_SerialComm.h</text>
</g>
<!-- Node0&#45;&gt;Node2 -->
<g id="edge2" class="edge">
<title>Node0&#45;&gt;Node2</title>
<path fill="none" stroke="#191970" d="M1608.3255,-350.396C1597.0588,-340.0814 1581.7657,-326.0807 1570.0711,-315.3743"/>
<polygon fill="#191970" stroke="#191970" points="1572.3827,-312.7453 1562.6434,-308.5743 1567.6559,-317.9084 1572.3827,-312.7453"/>
</g>
<!-- Node3 -->
<g id="node4" class="node">
<title>Node3</title>
<g id="a_node4"><a xlink:href="../../df/dc0/_compressible___mooney___transverse___isotropic_8hpp.html" target="_top" xlink:title="Compressible_Mooney\l_Transverse_Isotropic.hpp">
<polygon fill="#ffffff" stroke="#000000" points="1627.7178,-285.5 1627.7178,-313.5 1761.7451,-313.5 1761.7451,-285.5 1627.7178,-285.5"/>
<text text-anchor="start" x="1635.7178" y="-301.5" font-family="Helvetica,sans-Serif" font-size="10.00" fill="#000000">Compressible_Mooney</text>
<text text-anchor="middle" x="1694.7314" y="-291.5" font-family="Helvetica,sans-Serif" font-size="10.00" fill="#000000">_Transverse_Isotropic.hpp</text>
</a>
</g>
</g>
<!-- Node0&#45;&gt;Node3 -->
<g id="edge3" class="edge">
<title>Node0&#45;&gt;Node3</title>
<path fill="none" stroke="#191970" d="M1639.1374,-350.396C1648.7205,-341.6227 1661.2165,-330.1827 1671.9334,-320.3714"/>
<polygon fill="#191970" stroke="#191970" points="1674.3431,-322.9106 1679.3556,-313.5765 1669.6163,-317.7475 1674.3431,-322.9106"/>
</g>
<!-- Node42 -->
<g id="node40" class="node">
<title>Node42</title>
<g id="a_node40"><a xlink:href="../../d7/d17/_newton___raphsonpp_8hpp.html" target="_top" xlink:title="Newton_Raphsonpp.hpp">
<polygon fill="#ffffff" stroke="#000000" points="2138.6899,-290.5 2138.6899,-308.5 2264.7729,-308.5 2264.7729,-290.5 2138.6899,-290.5"/>
<text text-anchor="middle" x="2201.7314" y="-296.5" font-family="Helvetica,sans-Serif" font-size="10.00" fill="#000000">Newton_Raphsonpp.hpp</text>
</a>
</g>
</g>
<!-- Node0&#45;&gt;Node42 -->
<g id="edge41" class="edge">
<title>Node0&#45;&gt;Node42</title>
<path fill="none" stroke="#191970" d="M1686.4121,-357.4511C1794.0716,-345.3441 2013.5775,-320.6592 2128.2512,-307.7633"/>
<polygon fill="#191970" stroke="#191970" points="2128.7955,-311.2243 2138.3417,-306.6286 2128.0132,-304.2681 2128.7955,-311.2243"/>
</g>
<!-- Node4 -->
<g id="node5" class="node">
<title>Node4</title>
<g id="a_node5"><a xlink:href="../../de/d49/tensor__calculus_8hpp.html" target="_top" xlink:title="tensor_calculus.hpp">
<polygon fill="#ffffff" stroke="#000000" points="1471.2588,-110.5 1471.2588,-128.5 1576.2041,-128.5 1576.2041,-110.5 1471.2588,-110.5"/>
<text text-anchor="middle" x="1523.7314" y="-116.5" font-family="Helvetica,sans-Serif" font-size="10.00" fill="#000000">tensor_calculus.hpp</text>
</a>
</g>
</g>
<!-- Node3&#45;&gt;Node4 -->
<g id="edge4" class="edge">
<title>Node3&#45;&gt;Node4</title>
<path fill="none" stroke="#191970" d="M1664.0754,-285.4962C1627.9885,-267.3647 1569.0221,-232.2703 1537.7314,-184 1528.9664,-170.4787 1525.6065,-152.3495 1524.3582,-138.7549"/>
<polygon fill="#191970" stroke="#191970" points="1527.8412,-138.369 1523.7341,-128.6027 1520.8544,-138.7986 1527.8412,-138.369"/>
</g>
<!-- Node37 -->
<g id="node36" class="node">
<title>Node37</title>
<g id="a_node36"><a xlink:href="../../de/d9d/hyperelasticity__setup__pp_8hpp.html" target="_top" xlink:title="hyperelasticity_setup\l_pp.hpp">
<polygon fill="#ffffff" stroke="#000000" points="1640.0396,-220.5 1640.0396,-248.5 1749.4233,-248.5 1749.4233,-220.5 1640.0396,-220.5"/>
<text text-anchor="start" x="1648.0396" y="-236.5" font-family="Helvetica,sans-Serif" font-size="10.00" fill="#000000">hyperelasticity_setup</text>
<text text-anchor="middle" x="1694.7314" y="-226.5" font-family="Helvetica,sans-Serif" font-size="10.00" fill="#000000">_pp.hpp</text>
</a>
</g>
</g>
<!-- Node3&#45;&gt;Node37 -->
<g id="edge35" class="edge">
<title>Node3&#45;&gt;Node37</title>
<path fill="none" stroke="#191970" d="M1694.7314,-285.396C1694.7314,-277.6448 1694.7314,-267.8122 1694.7314,-258.8601"/>
<polygon fill="#191970" stroke="#191970" points="1698.2315,-258.5765 1694.7314,-248.5765 1691.2315,-258.5765 1698.2315,-258.5765"/>
</g>
<!-- Node5 -->
<g id="node6" class="node">
<title>Node5</title>
<g id="a_node6"><a xlink:href="../../d0/d02/meshpp_8hpp.html" target="_top" xlink:title="meshpp.hpp">
<polygon fill="#ffffff" stroke="#ff0000" points="1537.2119,-55.5 1537.2119,-73.5 1608.251,-73.5 1608.251,-55.5 1537.2119,-55.5"/>
<text text-anchor="middle" x="1572.7314" y="-61.5" font-family="Helvetica,sans-Serif" font-size="10.00" fill="#000000">meshpp.hpp</text>
</a>
</g>
</g>
<!-- Node4&#45;&gt;Node5 -->
<g id="edge5" class="edge">
<title>Node4&#45;&gt;Node5</title>
<path fill="none" stroke="#191970" d="M1531.8228,-110.4179C1538.8027,-102.5833 1549.0711,-91.0575 1557.5738,-81.5137"/>
<polygon fill="#191970" stroke="#191970" points="1560.4255,-83.5743 1564.4643,-73.7795 1555.1989,-78.9178 1560.4255,-83.5743"/>
</g>
<!-- Node6 -->
<g id="node7" class="node">
<title>Node6</title>
<polygon fill="#ffffff" stroke="#bfbfbf" points="0,-.5 0,-18.5 45.4629,-18.5 45.4629,-.5 0,-.5"/>
<text text-anchor="middle" x="22.7314" y="-6.5" font-family="Helvetica,sans-Serif" font-size="10.00" fill="#000000">stdio.h</text>
</g>
<!-- Node5&#45;&gt;Node6 -->
<g id="edge6" class="edge">
<title>Node5&#45;&gt;Node6</title>
<path fill="none" stroke="#191970" d="M1537.129,-63.9843C1326.5882,-60.8626 247.4555,-43.8418 55.7851,-18.5548"/>
<polygon fill="#191970" stroke="#191970" points="56.0396,-15.0549 45.6387,-17.0728 55.0279,-21.9814 56.0396,-15.0549"/>
</g>
<!-- Node7 -->
<g id="node8" class="node">
<title>Node7</title>
<polygon fill="#ffffff" stroke="#bfbfbf" points="63.5591,-.5 63.5591,-18.5 117.9038,-18.5 117.9038,-.5 63.5591,-.5"/>
<text text-anchor="middle" x="90.7314" y="-6.5" font-family="Helvetica,sans-Serif" font-size="10.00" fill="#000000">iostream</text>
</g>
<!-- Node5&#45;&gt;Node7 -->
<g id="edge7" class="edge">
<title>Node5&#45;&gt;Node7</title>
<path fill="none" stroke="#191970" d="M1537.0782,-64.4392C1345.1785,-63.9525 432.9102,-59.5796 128.2202,-18.6438"/>
<polygon fill="#191970" stroke="#191970" points="128.4618,-15.1439 118.0753,-17.2348 127.4987,-22.0773 128.4618,-15.1439"/>
</g>
<!-- Node8 -->
<g id="node9" class="node">
<title>Node8</title>
<polygon fill="#ffffff" stroke="#bfbfbf" points="136.3398,-.5 136.3398,-18.5 185.123,-18.5 185.123,-.5 136.3398,-.5"/>
<text text-anchor="middle" x="160.7314" y="-6.5" font-family="Helvetica,sans-Serif" font-size="10.00" fill="#000000">istream</text>
</g>
<!-- Node5&#45;&gt;Node8 -->
<g id="edge8" class="edge">
<title>Node5&#45;&gt;Node8</title>
<path fill="none" stroke="#191970" d="M1537.1579,-63.8523C1338.6378,-60.1688 370.6517,-41.2844 195.4003,-18.7467"/>
<polygon fill="#191970" stroke="#191970" points="195.8436,-15.2746 185.4494,-17.3264 194.8545,-22.2043 195.8436,-15.2746"/>
</g>
<!-- Node9 -->
<g id="node10" class="node">
<title>Node9</title>
<polygon fill="#ffffff" stroke="#bfbfbf" points="203.0615,-.5 203.0615,-18.5 252.4014,-18.5 252.4014,-.5 203.0615,-.5"/>
<text text-anchor="middle" x="227.7314" y="-6.5" font-family="Helvetica,sans-Serif" font-size="10.00" fill="#000000">fstream</text>
</g>
<!-- Node5&#45;&gt;Node9 -->
<g id="edge9" class="edge">
<title>Node5&#45;&gt;Node9</title>
<path fill="none" stroke="#191970" d="M1536.9753,-63.7845C1344.0652,-59.8555 430.2153,-40.3501 262.4088,-18.7476"/>
<polygon fill="#191970" stroke="#191970" points="262.8452,-15.2745 252.4501,-17.3218 261.8531,-22.2038 262.8452,-15.2745"/>
</g>
<!-- Node10 -->
<g id="node11" class="node">
<title>Node10</title>
<polygon fill="#ffffff" stroke="#bfbfbf" points="270.1157,-.5 270.1157,-18.5 313.3472,-18.5 313.3472,-.5 270.1157,-.5"/>
<text text-anchor="middle" x="291.7314" y="-6.5" font-family="Helvetica,sans-Serif" font-size="10.00" fill="#000000">vector</text>
</g>
<!-- Node5&#45;&gt;Node10 -->
<g id="edge10" class="edge">
<title>Node5&#45;&gt;Node10</title>
<path fill="none" stroke="#191970" d="M1537.0747,-63.7777C1349.9642,-59.9124 484.2676,-41.0746 323.4677,-18.6967"/>
<polygon fill="#191970" stroke="#191970" points="323.9359,-15.2275 313.5168,-17.1487 322.8599,-22.1443 323.9359,-15.2275"/>
</g>
<!-- Node11 -->
<g id="node12" class="node">
<title>Node11</title>
<polygon fill="#ffffff" stroke="#bfbfbf" points="331.2217,-.5 331.2217,-18.5 382.2412,-18.5 382.2412,-.5 331.2217,-.5"/>
<text text-anchor="middle" x="356.7314" y="-6.5" font-family="Helvetica,sans-Serif" font-size="10.00" fill="#000000">iomanip</text>
</g>
<!-- Node5&#45;&gt;Node11 -->
<g id="edge11" class="edge">
<title>Node5&#45;&gt;Node11</title>
<path fill="none" stroke="#191970" d="M1537.0345,-64.2136C1367.3984,-62.6886 641.0439,-54.2711 392.6365,-18.7127"/>
<polygon fill="#191970" stroke="#191970" points="392.9909,-15.227 382.5849,-17.2183 391.9615,-22.1509 392.9909,-15.227"/>
</g>
<!-- Node12 -->
<g id="node13" class="node">
<title>Node12</title>
<polygon fill="#ffffff" stroke="#bfbfbf" points="400.271,-.5 400.271,-18.5 505.1919,-18.5 505.1919,-.5 400.271,-.5"/>
<text text-anchor="middle" x="452.7314" y="-6.5" font-family="Helvetica,sans-Serif" font-size="10.00" fill="#000000">Epetra_MpiComm.h</text>
</g>
<!-- Node5&#45;&gt;Node12 -->
<g id="edge12" class="edge">
<title>Node5&#45;&gt;Node12</title>
<path fill="none" stroke="#191970" d="M1537.1109,-63.5048C1378.968,-59.0053 738.7427,-39.9149 515.262,-19.0253"/>
<polygon fill="#191970" stroke="#191970" points="515.5461,-15.5365 505.2564,-18.0609 514.8744,-22.5042 515.5461,-15.5365"/>
</g>
<!-- Node13 -->
<g id="node14" class="node">
<title>Node13</title>
<polygon fill="#ffffff" stroke="#bfbfbf" points="522.9878,-.5 522.9878,-18.5 638.4751,-18.5 638.4751,-.5 522.9878,-.5"/>
<text text-anchor="middle" x="580.7314" y="-6.5" font-family="Helvetica,sans-Serif" font-size="10.00" fill="#000000">Epetra_FECrsGraph.h</text>
</g>
<!-- Node5&#45;&gt;Node13 -->
<g id="edge13" class="edge">
<title>Node5&#45;&gt;Node13</title>
<path fill="none" stroke="#191970" d="M1536.933,-63.9197C1414.495,-61.6859 1001.0357,-52.0907 648.9343,-19.0254"/>
<polygon fill="#191970" stroke="#191970" points="649.0829,-15.5239 638.7974,-18.0654 648.4228,-22.4928 649.0829,-15.5239"/>
</g>
<!-- Node14 -->
<g id="node15" class="node">
<title>Node14</title>
<polygon fill="#ffffff" stroke="#bfbfbf" points="656.2734,-.5 656.2734,-18.5 771.1895,-18.5 771.1895,-.5 656.2734,-.5"/>
<text text-anchor="middle" x="713.7314" y="-6.5" font-family="Helvetica,sans-Serif" font-size="10.00" fill="#000000">Epetra_FECrsMatrix.h</text>
</g>
<!-- Node5&#45;&gt;Node14 -->
<g id="edge14" class="edge">
<title>Node5&#45;&gt;Node14</title>
<path fill="none" stroke="#191970" d="M1537.0787,-63.5427C1426.4763,-60.3428 1079.2199,-48.5632 781.4166,-19.0919"/>
<polygon fill="#191970" stroke="#191970" points="781.5871,-15.5916 771.2888,-18.0808 780.8916,-22.557 781.5871,-15.5916"/>
</g>
<!-- Node15 -->
<g id="node16" class="node">
<title>Node15</title>
<polygon fill="#ffffff" stroke="#bfbfbf" points="788.7563,-.5 788.7563,-18.5 888.7065,-18.5 888.7065,-.5 788.7563,-.5"/>
<text text-anchor="middle" x="838.7314" y="-6.5" font-family="Helvetica,sans-Serif" font-size="10.00" fill="#000000">Epetra_FEVector.h</text>
</g>
<!-- Node5&#45;&gt;Node15 -->
<g id="edge15" class="edge">
<title>Node5&#45;&gt;Node15</title>
<path fill="none" stroke="#191970" d="M1537.132,-63.2595C1437.8084,-59.552 1149.0869,-47.0972 898.9059,-19.0343"/>
<polygon fill="#191970" stroke="#191970" points="899.2304,-15.5487 888.9,-17.9012 898.4426,-22.5043 899.2304,-15.5487"/>
</g>
<!-- Node16 -->
<g id="node17" class="node">
<title>Node16</title>
<polygon fill="#ffffff" stroke="#bfbfbf" points="907.1455,-.5 907.1455,-18.5 994.3174,-18.5 994.3174,-.5 907.1455,-.5"/>
<text text-anchor="middle" x="950.7314" y="-6.5" font-family="Helvetica,sans-Serif" font-size="10.00" fill="#000000">Epetra_Vector.h</text>
</g>
<!-- Node5&#45;&gt;Node16 -->
<g id="edge16" class="edge">
<title>Node5&#45;&gt;Node16</title>
<path fill="none" stroke="#191970" d="M1536.9864,-62.8555C1448.5455,-58.5279 1212.2517,-45.3869 1004.5337,-18.975"/>
<polygon fill="#191970" stroke="#191970" points="1004.7166,-15.4698 994.352,-17.6667 1003.8243,-22.4127 1004.7166,-15.4698"/>
</g>
<!-- Node17 -->
<g id="node18" class="node">
<title>Node17</title>
<polygon fill="#ffffff" stroke="#bfbfbf" points="1012.3228,-.5 1012.3228,-18.5 1091.1401,-18.5 1091.1401,-.5 1012.3228,-.5"/>
<text text-anchor="middle" x="1051.7314" y="-6.5" font-family="Helvetica,sans-Serif" font-size="10.00" fill="#000000">Epetra_Map.h</text>
</g>
<!-- Node5&#45;&gt;Node17 -->
<g id="edge17" class="edge">
<title>Node5&#45;&gt;Node17</title>
<path fill="none" stroke="#191970" d="M1536.9836,-62.281C1459.4256,-57.2051 1269.7633,-43.3803 1101.2731,-19.1042"/>
<polygon fill="#191970" stroke="#191970" points="1101.6304,-15.6194 1091.2303,-17.641 1100.6211,-22.5462 1101.6304,-15.6194"/>
</g>
<!-- Node18 -->
<g id="node19" class="node">
<title>Node18</title>
<polygon fill="#ffffff" stroke="#bfbfbf" points="1109.2021,-.5 1109.2021,-18.5 1250.2607,-18.5 1250.2607,-.5 1109.2021,-.5"/>
<text text-anchor="middle" x="1179.7314" y="-6.5" font-family="Helvetica,sans-Serif" font-size="10.00" fill="#000000">Epetra_SerialDenseMatrix.h</text>
</g>
<!-- Node5&#45;&gt;Node18 -->
<g id="edge18" class="edge">
<title>Node5&#45;&gt;Node18</title>
<path fill="none" stroke="#191970" d="M1537.1622,-59.5221C1473.5234,-50.6159 1338.9372,-31.7807 1254.2851,-19.9337"/>
<polygon fill="#191970" stroke="#191970" points="1254.606,-16.4446 1244.2174,-18.5247 1253.6357,-23.377 1254.606,-16.4446"/>
</g>
<!-- Node19 -->
<g id="node20" class="node">
<title>Node19</title>
<polygon fill="#ffffff" stroke="#bfbfbf" points="1267.9092,-.5 1267.9092,-18.5 1409.5537,-18.5 1409.5537,-.5 1267.9092,-.5"/>
<text text-anchor="middle" x="1338.7314" y="-6.5" font-family="Helvetica,sans-Serif" font-size="10.00" fill="#000000">Epetra_SerialDenseVector.h</text>
</g>
<!-- Node5&#45;&gt;Node19 -->
<g id="edge19" class="edge">
<title>Node5&#45;&gt;Node19</title>
<path fill="none" stroke="#191970" d="M1537.1919,-56.1467C1497.1349,-46.7316 1431.788,-31.3723 1387.1015,-20.869"/>
<polygon fill="#191970" stroke="#191970" points="1387.8725,-17.4549 1377.3369,-18.5739 1386.2708,-24.2692 1387.8725,-17.4549"/>
</g>
<!-- Node20 -->
<g id="node21" class="node">
<title>Node20</title>
<polygon fill="#ffffff" stroke="#bfbfbf" points="1427.3501,-.5 1427.3501,-18.5 1580.1128,-18.5 1580.1128,-.5 1427.3501,-.5"/>
<text text-anchor="middle" x="1503.7314" y="-6.5" font-family="Helvetica,sans-Serif" font-size="10.00" fill="#000000">Epetra_IntSerialDenseVector.h</text>
</g>
<!-- Node5&#45;&gt;Node20 -->
<g id="edge20" class="edge">
<title>Node5&#45;&gt;Node20</title>
<path fill="none" stroke="#191970" d="M1561.3375,-55.4179C1551.0122,-47.1876 1535.5767,-34.8839 1523.2817,-25.0836"/>
<polygon fill="#191970" stroke="#191970" points="1525.3743,-22.2757 1515.3729,-18.7795 1521.0111,-27.7495 1525.3743,-22.2757"/>
</g>
<!-- Node21 -->
<g id="node22" class="node">
<title>Node21</title>
<polygon fill="#ffffff" stroke="#bfbfbf" points="1597.8794,-.5 1597.8794,-18.5 1685.5835,-18.5 1685.5835,-.5 1597.8794,-.5"/>
<text text-anchor="middle" x="1641.7314" y="-6.5" font-family="Helvetica,sans-Serif" font-size="10.00" fill="#000000">Epetra_Import.h</text>
</g>
<!-- Node5&#45;&gt;Node21 -->
<g id="edge21" class="edge">
<title>Node5&#45;&gt;Node21</title>
<path fill="none" stroke="#191970" d="M1584.1254,-55.4179C1594.4507,-47.1876 1609.8862,-34.8839 1622.1812,-25.0836"/>
<polygon fill="#191970" stroke="#191970" points="1624.4518,-27.7495 1630.0899,-18.7795 1620.0886,-22.2757 1624.4518,-27.7495"/>
</g>
<!-- Node22 -->
<g id="node23" class="node">
<title>Node22</title>
<polygon fill="#ffffff" stroke="#bfbfbf" points="1703.5986,-.5 1703.5986,-18.5 1791.8643,-18.5 1791.8643,-.5 1703.5986,-.5"/>
<text text-anchor="middle" x="1747.7314" y="-6.5" font-family="Helvetica,sans-Serif" font-size="10.00" fill="#000000">Epetra_Export.h</text>
</g>
<!-- Node5&#45;&gt;Node22 -->
<g id="edge22" class="edge">
<title>Node5&#45;&gt;Node22</title>
<path fill="none" stroke="#191970" d="M1601.6291,-55.4179C1631.102,-46.155 1676.9918,-31.7325 1709.4669,-21.526"/>
<polygon fill="#191970" stroke="#191970" points="1710.5912,-24.8415 1719.0817,-18.5042 1708.4923,-18.1636 1710.5912,-24.8415"/>
</g>
<!-- Node23 -->
<g id="node24" class="node">
<title>Node23</title>
<polygon fill="#ffffff" stroke="#bfbfbf" points="1810.1216,-.5 1810.1216,-18.5 1891.3413,-18.5 1891.3413,-.5 1810.1216,-.5"/>
<text text-anchor="middle" x="1850.7314" y="-6.5" font-family="Helvetica,sans-Serif" font-size="10.00" fill="#000000">Epetra_Time.h</text>
</g>
<!-- Node5&#45;&gt;Node23 -->
<g id="edge23" class="edge">
<title>Node5&#45;&gt;Node23</title>
<path fill="none" stroke="#191970" d="M1608.506,-57.4223C1657.1012,-47.8081 1744.2588,-30.5647 1799.7064,-19.5949"/>
<polygon fill="#191970" stroke="#191970" points="1800.5437,-22.9972 1809.6742,-17.6228 1799.185,-16.1303 1800.5437,-22.9972"/>
</g>
<!-- Node24 -->
<g id="node25" class="node">
<title>Node24</title>
<polygon fill="#ffffff" stroke="#bfbfbf" points="1909.0273,-.5 1909.0273,-18.5 2058.4355,-18.5 2058.4355,-.5 1909.0273,-.5"/>
<text text-anchor="middle" x="1983.7314" y="-6.5" font-family="Helvetica,sans-Serif" font-size="10.00" fill="#000000">ml_MultiLevelPreconditioner.h</text>
</g>
<!-- Node5&#45;&gt;Node24 -->
<g id="edge24" class="edge">
<title>Node5&#45;&gt;Node24</title>
<path fill="none" stroke="#191970" d="M1608.486,-59.7153C1674.5866,-50.8697 1817.2719,-31.7756 1906.4049,-19.8478"/>
<polygon fill="#191970" stroke="#191970" points="1907.0169,-23.2972 1916.4643,-18.5017 1906.0884,-16.3591 1907.0169,-23.2972"/>
</g>
<!-- Node25 -->
<g id="node26" class="node">
<title>Node25</title>
<polygon fill="#ffffff" stroke="#bfbfbf" points="2076.6553,-.5 2076.6553,-18.5 2168.8076,-18.5 2168.8076,-.5 2076.6553,-.5"/>
<text text-anchor="middle" x="2122.7314" y="-6.5" font-family="Helvetica,sans-Serif" font-size="10.00" fill="#000000">ml_epetra_utils.h</text>
</g>
<!-- Node5&#45;&gt;Node25 -->
<g id="edge25" class="edge">
<title>Node5&#45;&gt;Node25</title>
<path fill="none" stroke="#191970" d="M1608.2523,-62.2071C1688.2045,-56.8378 1888.5718,-42.2185 2066.4926,-19.071"/>
<polygon fill="#191970" stroke="#191970" points="2067.0995,-22.5214 2076.5586,-17.749 2066.1879,-15.581 2067.0995,-22.5214"/>
</g>
<!-- Node26 -->
<g id="node27" class="node">
<title>Node26</title>
<polygon fill="#ffffff" stroke="#bfbfbf" points="2186.6602,-.5 2186.6602,-18.5 2258.8027,-18.5 2258.8027,-.5 2186.6602,-.5"/>
<text text-anchor="middle" x="2222.7314" y="-6.5" font-family="Helvetica,sans-Serif" font-size="10.00" fill="#000000">ml_include.h</text>
</g>
<!-- Node5&#45;&gt;Node26 -->
<g id="edge26" class="edge">
<title>Node5&#45;&gt;Node26</title>
<path fill="none" stroke="#191970" d="M1608.3697,-63.4744C1700.6514,-60.467 1955.0608,-49.9391 2176.28,-19.0303"/>
<polygon fill="#191970" stroke="#191970" points="2177.0447,-22.4571 2186.4558,-17.5907 2176.0641,-15.5261 2177.0447,-22.4571"/>
</g>
<!-- Node27 -->
<g id="node28" class="node">
<title>Node27</title>
<polygon fill="#ffffff" stroke="#bfbfbf" points="2277.1528,-.5 2277.1528,-18.5 2414.3101,-18.5 2414.3101,-.5 2277.1528,-.5"/>
<text text-anchor="middle" x="2345.7314" y="-6.5" font-family="Helvetica,sans-Serif" font-size="10.00" fill="#000000">EpetraExt_RowMatrixOut.h</text>
</g>
<!-- Node5&#45;&gt;Node27 -->
<g id="edge27" class="edge">
<title>Node5&#45;&gt;Node27</title>
<path fill="none" stroke="#191970" d="M1608.595,-62.8601C1710.0767,-58.0691 2008.1135,-42.9594 2266.888,-19.0284"/>
<polygon fill="#191970" stroke="#191970" points="2267.218,-22.5129 2276.8504,-18.1008 2266.569,-15.543 2267.218,-22.5129"/>
</g>
<!-- Node28 -->
<g id="node29" class="node">
<title>Node28</title>
<polygon fill="#ffffff" stroke="#bfbfbf" points="2432.0322,-.5 2432.0322,-18.5 2571.4307,-18.5 2571.4307,-.5 2432.0322,-.5"/>
<text text-anchor="middle" x="2501.7314" y="-6.5" font-family="Helvetica,sans-Serif" font-size="10.00" fill="#000000">EpetraExt_MultiVectorOut.h</text>
</g>
<!-- Node5&#45;&gt;Node28 -->
<g id="edge28" class="edge">
<title>Node5&#45;&gt;Node28</title>
<path fill="none" stroke="#191970" d="M1608.3879,-62.917C1745.8156,-56.7667 2242.0172,-34.0937 2421.9013,-19.0933"/>
<polygon fill="#191970" stroke="#191970" points="2422.3494,-22.5679 2432.0149,-18.2286 2421.753,-15.5933 2422.3494,-22.5679"/>
</g>
<!-- Node29 -->
<g id="node30" class="node">
<title>Node29</title>
<polygon fill="#ffffff" stroke="#bfbfbf" points="2589.478,-.5 2589.478,-18.5 2699.9849,-18.5 2699.9849,-.5 2589.478,-.5"/>
<text text-anchor="middle" x="2644.7314" y="-6.5" font-family="Helvetica,sans-Serif" font-size="10.00" fill="#000000">EpetraExt_VectorIn.h</text>
</g>
<!-- Node5&#45;&gt;Node29 -->
<g id="edge29" class="edge">
<title>Node5&#45;&gt;Node29</title>
<path fill="none" stroke="#191970" d="M1608.4086,-62.9923C1774.9902,-55.9398 2472.3245,-26.2743 2579.077,-18.8911"/>
<polygon fill="#191970" stroke="#191970" points="2579.5774,-22.3626 2589.2711,-18.0868 2579.0268,-15.3843 2579.5774,-22.3626"/>
</g>
<!-- Node30 -->
<g id="node31" class="node">
<title>Node30</title>
<polygon fill="#ffffff" stroke="#bfbfbf" points="2717.9214,-.5 2717.9214,-18.5 2849.5415,-18.5 2849.5415,-.5 2717.9214,-.5"/>
<text text-anchor="middle" x="2783.7314" y="-6.5" font-family="Helvetica,sans-Serif" font-size="10.00" fill="#000000">EpetraExt_MultiVectorIn.h</text>
</g>
<!-- Node5&#45;&gt;Node30 -->
<g id="edge30" class="edge">
<title>Node5&#45;&gt;Node30</title>
<path fill="none" stroke="#191970" d="M1608.4298,-62.9993C1653.4799,-61.1099 1733.347,-57.7756 1801.7314,-55 2201.4821,-38.7749 2304.9744,-52.153 2707.7381,-19.0052"/>
<polygon fill="#191970" stroke="#191970" points="2708.2379,-22.4759 2717.9151,-18.163 2707.6605,-15.4998 2708.2379,-22.4759"/>
</g>
<!-- Node31 -->
<g id="node32" class="node">
<title>Node31</title>
<polygon fill="#ffffff" stroke="#bfbfbf" points="3163.6841,-.5 3163.6841,-18.5 3261.7788,-18.5 3261.7788,-.5 3163.6841,-.5"/>
<text text-anchor="middle" x="3212.7314" y="-6.5" font-family="Helvetica,sans-Serif" font-size="10.00" fill="#000000">Teuchos_RCP.hpp</text>
</g>
<!-- Node5&#45;&gt;Node31 -->
<g id="edge31" class="edge">
<title>Node5&#45;&gt;Node31</title>
<path fill="none" stroke="#191970" d="M1608.4244,-62.8549C1653.4689,-60.8166 1733.3303,-57.3287 1801.7314,-55 2399.5534,-34.6476 2554.1362,-75.2865 3153.2376,-19.0053"/>
<polygon fill="#191970" stroke="#191970" points="3153.8031,-22.4676 3163.4296,-18.0426 3153.1447,-15.4986 3153.8031,-22.4676"/>
</g>
<!-- Node32 -->
<g id="node33" class="node">
<title>Node32</title>
<polygon fill="#ffffff" stroke="#bfbfbf" points="2867.5,-.5 2867.5,-18.5 2927.9629,-18.5 2927.9629,-.5 2867.5,-.5"/>
<text text-anchor="middle" x="2897.7314" y="-6.5" font-family="Helvetica,sans-Serif" font-size="10.00" fill="#000000">Amesos.h</text>
</g>
<!-- Node5&#45;&gt;Node32 -->
<g id="edge32" class="edge">
<title>Node5&#45;&gt;Node32</title>
<path fill="none" stroke="#191970" d="M1608.4273,-62.9371C1653.4749,-60.9837 1733.3395,-57.5832 1801.7314,-55 2268.1211,-37.3839 2391.3135,-82.3146 2857.1704,-18.9389"/>
<polygon fill="#191970" stroke="#191970" points="2857.756,-22.3915 2867.1884,-17.5666 2856.8059,-15.4562 2857.756,-22.3915"/>
</g>
<!-- Node33 -->
<g id="node34" class="node">
<title>Node33</title>
<polygon fill="#ffffff" stroke="#bfbfbf" points="2946.2783,-.5 2946.2783,-18.5 3011.1846,-18.5 3011.1846,-.5 2946.2783,-.5"/>
<text text-anchor="middle" x="2978.7314" y="-6.5" font-family="Helvetica,sans-Serif" font-size="10.00" fill="#000000">AztecOO.h</text>
</g>
<!-- Node5&#45;&gt;Node33 -->
<g id="edge33" class="edge">
<title>Node5&#45;&gt;Node33</title>
<path fill="none" stroke="#191970" d="M1608.4264,-62.9113C1653.473,-60.9312 1733.3365,-57.5033 1801.7314,-55 2302.7672,-36.6618 2434.3727,-82.354 2935.7917,-18.846"/>
<polygon fill="#191970" stroke="#191970" points="2936.3452,-22.3038 2945.8223,-17.5673 2935.4599,-15.36 2936.3452,-22.3038"/>
</g>
<!-- Node34 -->
<g id="node35" class="node">
<title>Node34</title>
<polygon fill="#ffffff" stroke="#bfbfbf" points="3029.4238,-.5 3029.4238,-18.5 3146.0391,-18.5 3146.0391,-.5 3029.4238,-.5"/>
<text text-anchor="middle" x="3087.7314" y="-6.5" font-family="Helvetica,sans-Serif" font-size="10.00" fill="#000000">Amesos_BaseSolver.h</text>
</g>
<!-- Node5&#45;&gt;Node34 -->
<g id="edge34" class="edge">
<title>Node5&#45;&gt;Node34</title>
<path fill="none" stroke="#191970" d="M1608.4255,-62.8875C1653.4712,-60.8828 1733.3338,-57.4294 1801.7314,-55 2339.6565,-35.8932 2478.3905,-64.185 3019.1634,-18.9369"/>
<polygon fill="#191970" stroke="#191970" points="3019.5003,-22.421 3029.1717,-18.0949 3018.9135,-15.4456 3019.5003,-22.421"/>
</g>
<!-- Node38 -->
<g id="node37" class="node">
<title>Node38</title>
<g id="a_node37"><a xlink:href="../../d2/d8b/_finite___element___problem_8hpp.html" target="_top" xlink:title="Finite_Element_Problem.hpp">
<polygon fill="#ffffff" stroke="#000000" points="1643.2515,-165.5 1643.2515,-183.5 1788.2114,-183.5 1788.2114,-165.5 1643.2515,-165.5"/>
<text text-anchor="middle" x="1715.7314" y="-171.5" font-family="Helvetica,sans-Serif" font-size="10.00" fill="#000000">Finite_Element_Problem.hpp</text>
</a>
</g>
</g>
<!-- Node37&#45;&gt;Node38 -->
<g id="edge36" class="edge">
<title>Node37&#45;&gt;Node38</title>
<path fill="none" stroke="#191970" d="M1699.7082,-220.2808C1702.5365,-212.2 1706.1122,-201.9836 1709.1679,-193.2531"/>
<polygon fill="#191970" stroke="#191970" points="1712.5519,-194.179 1712.552,-183.5842 1705.9449,-191.8665 1712.5519,-194.179"/>
</g>
<!-- Node40 -->
<g id="node39" class="node">
<title>Node40</title>
<g id="a_node39"><a xlink:href="../../d5/d3f/laplacepp_8hpp.html" target="_top" xlink:title="laplacepp.hpp">
<polygon fill="#ffffff" stroke="#ff0000" points="1546.5938,-165.5 1546.5938,-183.5 1624.8691,-183.5 1624.8691,-165.5 1546.5938,-165.5"/>
<text text-anchor="middle" x="1585.7314" y="-171.5" font-family="Helvetica,sans-Serif" font-size="10.00" fill="#000000">laplacepp.hpp</text>
</a>
</g>
</g>
<!-- Node37&#45;&gt;Node40 -->
<g id="edge40" class="edge">
<title>Node37&#45;&gt;Node40</title>
<path fill="none" stroke="#191970" d="M1669.1758,-220.4327C1651.7616,-210.8468 1628.7931,-198.2037 1611.3628,-188.609"/>
<polygon fill="#191970" stroke="#191970" points="1612.7678,-185.3872 1602.3195,-183.6311 1609.3922,-191.5195 1612.7678,-185.3872"/>
</g>
<!-- Node38&#45;&gt;Node5 -->
<g id="edge37" class="edge">
<title>Node38&#45;&gt;Node5</title>
<path fill="none" stroke="#191970" d="M1696.6503,-165.3381C1680.0727,-156.9619 1655.7969,-143.6725 1636.7314,-129 1618.0964,-114.6588 1599.464,-95.1502 1587.1492,-81.3543"/>
<polygon fill="#191970" stroke="#191970" points="1589.5772,-78.8144 1580.3544,-73.5999 1584.3124,-83.4277 1589.5772,-78.8144"/>
</g>
<!-- Node39 -->
<g id="node38" class="node">
<title>Node39</title>
<g id="a_node38"><a xlink:href="../../d0/d41/_base_class_f_e_m_8hpp.html" target="_top" xlink:title="BaseClassFEM.hpp">
<polygon fill="#ffffff" stroke="#000000" points="1645.5469,-110.5 1645.5469,-128.5 1749.916,-128.5 1749.916,-110.5 1645.5469,-110.5"/>
<text text-anchor="middle" x="1697.7314" y="-116.5" font-family="Helvetica,sans-Serif" font-size="10.00" fill="#000000">BaseClassFEM.hpp</text>
</a>
</g>
</g>
<!-- Node38&#45;&gt;Node39 -->
<g id="edge38" class="edge">
<title>Node38&#45;&gt;Node39</title>
<path fill="none" stroke="#191970" d="M1712.7591,-165.4179C1710.3764,-158.1372 1706.9504,-147.669 1703.9712,-138.5659"/>
<polygon fill="#191970" stroke="#191970" points="1707.2052,-137.1948 1700.7684,-128.7795 1700.5524,-139.3721 1707.2052,-137.1948"/>
</g>
<!-- Node39&#45;&gt;Node5 -->
<g id="edge39" class="edge">
<title>Node39&#45;&gt;Node5</title>
<path fill="none" stroke="#191970" d="M1677.0902,-110.4179C1656.8248,-101.5011 1625.6929,-87.803 1602.7025,-77.6873"/>
<polygon fill="#191970" stroke="#191970" points="1603.9661,-74.4195 1593.4033,-73.5956 1601.1469,-80.8267 1603.9661,-74.4195"/>
</g>
<!-- Node42&#45;&gt;Node31 -->
<g id="edge44" class="edge">
<title>Node42&#45;&gt;Node31</title>
<path fill="none" stroke="#191970" d="M2138.6234,-294.6396C2039.6815,-286.4574 1856.9789,-268.8662 1834.7314,-249 1809.2434,-226.2401 1815.7314,-208.671 1815.7314,-174.5 1815.7314,-174.5 1815.7314,-174.5 1815.7314,-119.5 1815.7314,-47.0874 3007.6266,-28.8788 3153.1563,-18.7734"/>
<polygon fill="#191970" stroke="#191970" points="3153.7539,-22.2346 3163.4121,-17.8793 3153.1459,-15.2611 3153.7539,-22.2346"/>
</g>
<!-- Node42&#45;&gt;Node37 -->
<g id="edge42" class="edge">
<title>Node42&#45;&gt;Node37</title>
<path fill="none" stroke="#191970" d="M2138.3749,-294.0466C2052.9737,-286.2739 1896.3322,-270.5297 1763.7314,-249 1762.4401,-248.7903 1761.1364,-248.5729 1759.8234,-248.3487"/>
<polygon fill="#191970" stroke="#191970" points="1760.0953,-244.8415 1749.6334,-246.5146 1758.8552,-251.7308 1760.0953,-244.8415"/>
</g>
<!-- Node42&#45;&gt;Node38 -->
<g id="edge43" class="edge">
<title>Node42&#45;&gt;Node38</title>
<path fill="none" stroke="#191970" d="M2138.5625,-295.9905C2041.4507,-289.8496 1860.5379,-275.2421 1801.7314,-249 1786.1248,-242.0356 1752.3266,-210.4507 1732.0582,-190.7092"/>
<polygon fill="#191970" stroke="#191970" points="1734.3636,-188.0677 1724.7761,-183.5589 1729.4592,-193.0625 1734.3636,-188.0677"/>
</g>
<!-- Node43 -->
<g id="node41" class="node">
<title>Node43</title>
<polygon fill="#ffffff" stroke="#bfbfbf" points="1844.2217,-225.5 1844.2217,-243.5 1895.2412,-243.5 1895.2412,-225.5 1844.2217,-225.5"/>
<text text-anchor="middle" x="1869.7314" y="-231.5" font-family="Helvetica,sans-Serif" font-size="10.00" fill="#000000">Ifpack.h</text>
</g>
<!-- Node42&#45;&gt;Node43 -->
<g id="edge45" class="edge">
<title>Node42&#45;&gt;Node43</title>
<path fill="none" stroke="#191970" d="M2138.5253,-292.9213C2077.7632,-285.6255 1983.7607,-271.7759 1904.7314,-249 1902.8355,-248.4536 1900.9032,-247.8361 1898.9692,-247.1717"/>
<polygon fill="#191970" stroke="#191970" points="1900.0361,-243.8334 1889.4445,-243.5708 1897.5607,-250.3811 1900.0361,-243.8334"/>
</g>
<!-- Node44 -->
<g id="node42" class="node">
<title>Node44</title>
<polygon fill="#ffffff" stroke="#bfbfbf" points="1913.4805,-225.5 1913.4805,-243.5 2043.9824,-243.5 2043.9824,-225.5 1913.4805,-225.5"/>
<text text-anchor="middle" x="1978.7314" y="-231.5" font-family="Helvetica,sans-Serif" font-size="10.00" fill="#000000">Ifpack_AdditiveSchwarz.h</text>
</g>
<!-- Node42&#45;&gt;Node44 -->
<g id="edge46" class="edge">
<title>Node42&#45;&gt;Node44</title>
<path fill="none" stroke="#191970" d="M2170.7243,-290.462C2131.3094,-278.9734 2063.1602,-259.1093 2019.5525,-246.3985"/>
<polygon fill="#191970" stroke="#191970" points="2020.4139,-243.004 2009.8339,-243.5658 2018.455,-249.7243 2020.4139,-243.004"/>
</g>
<!-- Node45 -->
<g id="node43" class="node">
<title>Node45</title>
<polygon fill="#ffffff" stroke="#bfbfbf" points="2061.9756,-225.5 2061.9756,-243.5 2187.4873,-243.5 2187.4873,-225.5 2061.9756,-225.5"/>
<text text-anchor="middle" x="2124.7314" y="-231.5" font-family="Helvetica,sans-Serif" font-size="10.00" fill="#000000">BelosLinearProblem.hpp</text>
</g>
<!-- Node42&#45;&gt;Node45 -->
<g id="edge47" class="edge">
<title>Node42&#45;&gt;Node45</title>
<path fill="none" stroke="#191970" d="M2191.0249,-290.462C2178.7519,-280.1017 2158.4104,-262.9303 2143.4908,-250.3358"/>
<polygon fill="#191970" stroke="#191970" points="2145.7448,-247.6582 2135.8457,-243.8821 2141.2294,-253.0072 2145.7448,-247.6582"/>
</g>
<!-- Node46 -->
<g id="node44" class="node">
<title>Node46</title>
<polygon fill="#ffffff" stroke="#bfbfbf" points="2205.7021,-225.5 2205.7021,-243.5 2351.7607,-243.5 2351.7607,-225.5 2205.7021,-225.5"/>
<text text-anchor="middle" x="2278.7314" y="-231.5" font-family="Helvetica,sans-Serif" font-size="10.00" fill="#000000">BelosBlockGmresSolMgr.hpp</text>
</g>
<!-- Node42&#45;&gt;Node46 -->
<g id="edge48" class="edge">
<title>Node42&#45;&gt;Node46</title>
<path fill="none" stroke="#191970" d="M2212.438,-290.462C2224.711,-280.1017 2245.0525,-262.9303 2259.9721,-250.3358"/>
<polygon fill="#191970" stroke="#191970" points="2262.2335,-253.0072 2267.6172,-243.8821 2257.7181,-247.6582 2262.2335,-253.0072"/>
</g>
<!-- Node47 -->
<g id="node45" class="node">
<title>Node47</title>
<polygon fill="#ffffff" stroke="#bfbfbf" points="2369.5225,-225.5 2369.5225,-243.5 2493.9404,-243.5 2493.9404,-225.5 2369.5225,-225.5"/>
<text text-anchor="middle" x="2431.7314" y="-231.5" font-family="Helvetica,sans-Serif" font-size="10.00" fill="#000000">BelosEpetraAdapter.hpp</text>
</g>
<!-- Node42&#45;&gt;Node47 -->
<g id="edge49" class="edge">
<title>Node42&#45;&gt;Node47</title>
<path fill="none" stroke="#191970" d="M2233.712,-290.462C2274.4497,-278.9492 2344.9486,-259.0256 2389.9128,-246.3183"/>
<polygon fill="#191970" stroke="#191970" points="2390.9814,-249.6535 2399.6526,-243.5658 2389.0777,-242.9173 2390.9814,-249.6535"/>
</g>
<!-- Node48 -->
<g id="node46" class="node">
<title>Node48</title>
<polygon fill="#ffffff" stroke="#bfbfbf" points="2512.019,-225.5 2512.019,-243.5 2633.4438,-243.5 2633.4438,-225.5 2512.019,-225.5"/>
<text text-anchor="middle" x="2572.7314" y="-231.5" font-family="Helvetica,sans-Serif" font-size="10.00" fill="#000000">BelosSolverFactory.hpp</text>
</g>
<!-- Node42&#45;&gt;Node48 -->
<g id="edge50" class="edge">
<title>Node42&#45;&gt;Node48</title>
<path fill="none" stroke="#191970" d="M2259.5506,-290.4688C2320.2356,-280.8334 2418.3605,-264.8101 2502.7314,-249 2508.5143,-247.9164 2514.5558,-246.7368 2520.5619,-245.5341"/>
<polygon fill="#191970" stroke="#191970" points="2521.4799,-248.9192 2530.5844,-243.5009 2520.0881,-242.059 2521.4799,-248.9192"/>
</g>
<!-- Node49 -->
<g id="node47" class="node">
<title>Node49</title>
<polygon fill="#ffffff" stroke="#bfbfbf" points="2651.8501,-225.5 2651.8501,-243.5 2829.6128,-243.5 2829.6128,-225.5 2651.8501,-225.5"/>
<text text-anchor="middle" x="2740.7314" y="-231.5" font-family="Helvetica,sans-Serif" font-size="10.00" fill="#000000">Teuchos_StandardCatchMacros.hpp</text>
</g>
<!-- Node42&#45;&gt;Node49 -->
<g id="edge51" class="edge">
<title>Node42&#45;&gt;Node49</title>
<path fill="none" stroke="#191970" d="M2264.9816,-292.9177C2350.69,-283.8473 2508.4443,-266.6184 2642.7314,-249 2652.1605,-247.7629 2662.0883,-246.3838 2671.8594,-244.9817"/>
<polygon fill="#191970" stroke="#191970" points="2672.5636,-248.4162 2681.9577,-243.5172 2671.5589,-241.4887 2672.5636,-248.4162"/>
</g>
<!-- Node50 -->
<g id="node48" class="node">
<title>Node50</title>
<polygon fill="#ffffff" stroke="#bfbfbf" points="2847.4731,-225.5 2847.4731,-243.5 2987.9897,-243.5 2987.9897,-225.5 2847.4731,-225.5"/>
<text text-anchor="middle" x="2917.7314" y="-231.5" font-family="Helvetica,sans-Serif" font-size="10.00" fill="#000000">Teuchos_ParameterList.hpp</text>
</g>
<!-- Node42&#45;&gt;Node50 -->
<g id="edge52" class="edge">
<title>Node42&#45;&gt;Node50</title>
<path fill="none" stroke="#191970" d="M2264.7927,-296.6451C2379.4256,-290.9792 2629.4629,-276.4269 2838.7314,-249 2846.6934,-247.9565 2855.0707,-246.6488 2863.2737,-245.2485"/>
<polygon fill="#191970" stroke="#191970" points="2863.9134,-248.6897 2873.1535,-243.506 2862.6975,-241.7961 2863.9134,-248.6897"/>
</g>
<!-- Node51 -->
<g id="node49" class="node">
<title>Node51</title>
<polygon fill="#ffffff" stroke="#bfbfbf" points="3005.9238,-220.5 3005.9238,-248.5 3147.5391,-248.5 3147.5391,-220.5 3005.9238,-220.5"/>
<text text-anchor="start" x="3013.9238" y="-236.5" font-family="Helvetica,sans-Serif" font-size="10.00" fill="#000000">Teuchos_XMLParameterList</text>
<text text-anchor="middle" x="3076.7314" y="-226.5" font-family="Helvetica,sans-Serif" font-size="10.00" fill="#000000">CoreHelpers.hpp</text>
</g>
<!-- Node42&#45;&gt;Node51 -->
<g id="edge53" class="edge">
<title>Node42&#45;&gt;Node51</title>
<path fill="none" stroke="#191970" d="M2264.8264,-297.9746C2397.9957,-294.2174 2717.6707,-282.364 2995.419,-249.0606"/>
<polygon fill="#191970" stroke="#191970" points="2996.1898,-252.4929 3005.6965,-247.816 2995.3482,-245.5437 2996.1898,-252.4929"/>
</g>
<!-- Node52 -->
<g id="node50" class="node">
<title>Node52</title>
<polygon fill="#ffffff" stroke="#bfbfbf" points="3165.4829,-220.5 3165.4829,-248.5 3295.98,-248.5 3295.98,-220.5 3165.4829,-220.5"/>
<text text-anchor="start" x="3173.4829" y="-236.5" font-family="Helvetica,sans-Serif" font-size="10.00" fill="#000000">Stratimikos_DefaultLinear</text>
<text text-anchor="middle" x="3230.7314" y="-226.5" font-family="Helvetica,sans-Serif" font-size="10.00" fill="#000000">SolverBuilder.hpp</text>
</g>
<!-- Node42&#45;&gt;Node52 -->
<g id="edge54" class="edge">
<title>Node42&#45;&gt;Node52</title>
<path fill="none" stroke="#191970" d="M2265.0766,-297.3157C2446.0597,-290.8934 2964.1304,-271.1971 3155.2297,-249.0359"/>
<polygon fill="#191970" stroke="#191970" points="3155.9299,-252.4771 3165.4415,-247.8103 3155.0956,-245.527 3155.9299,-252.4771"/>
</g>
</g>
</svg>
        <g id="navigator" transform="translate(0 0)" fill="#404254">
                <rect fill="#f2f5e9" fill-opacity="0.5" stroke="#606060" stroke-width=".5" x="0" y="0" width="60" height="60"/>
                <use id="zoomplus" xlink:href="#zoomPlus" x="17" y="9" onmousedown="handleZoom(evt,'in')"/>
                <use id="zoomminus" xlink:href="#zoomMin" x="42" y="9" onmousedown="handleZoom(evt,'out')"/>
                <use id="reset" xlink:href="#resetDef" x="30" y="36" onmousedown="handleReset()"/>
                <g id="arrowUp" xlink:href="#dirArrow" transform="translate(30 24)" onmousedown="handlePan(0,-1)">
                  <use xlink:href="#rim" fill="#404040">
                        <set attributeName="fill" to="#808080" begin="arrowUp.mouseover" end="arrowUp.mouseout"/>
                  </use>
                  <path fill="none" stroke="white" stroke-width="1.5" d="M0,-3.0v7 M-2.5,-0.5L0,-3.0L2.5,-0.5"/>
                </g>
                <g id="arrowRight" xlink:href="#dirArrow" transform="rotate(90) translate(36 -43)" onmousedown="handlePan(1,0)">
                  <use xlink:href="#rim" fill="#404040">
                        <set attributeName="fill" to="#808080" begin="arrowRight.mouseover" end="arrowRight.mouseout"/>
                  </use>
                  <path fill="none" stroke="white" stroke-width="1.5" d="M0,-3.0v7 M-2.5,-0.5L0,-3.0L2.5,-0.5"/>
                </g>
                <g id="arrowDown" xlink:href="#dirArrow" transform="rotate(180) translate(-30 -48)" onmousedown="handlePan(0,1)">
                  <use xlink:href="#rim" fill="#404040">
                        <set attributeName="fill" to="#808080" begin="arrowDown.mouseover" end="arrowDown.mouseout"/>
                  </use>
                  <path fill="none" stroke="white" stroke-width="1.5" d="M0,-3.0v7 M-2.5,-0.5L0,-3.0L2.5,-0.5"/>
                </g>
                <g id="arrowLeft" xlink:href="#dirArrow" transform="rotate(270) translate(-36 17)" onmousedown="handlePan(-1,0)">
                  <use xlink:href="#rim" fill="#404040">
                        <set attributeName="fill" to="#808080" begin="arrowLeft.mouseover" end="arrowLeft.mouseout"/>
                  </use>
                  <path fill="none" stroke="white" stroke-width="1.5" d="M0,-3.0v7 M-2.5,-0.5L0,-3.0L2.5,-0.5"/>
                </g>
        </g>
        <svg viewBox="0 0 15 15" width="100%" height="30px" preserveAspectRatio="xMaxYMin meet">
         <g id="arrow_out" transform="scale(0.3 0.3)">
          <a xlink:href="nrl_2forward__deterministic_2main_8cpp__incl_org.svg" target="_base">
           <rect id="button" ry="5" rx="5" y="6" x="6" height="38" width="38"
                fill="#f2f5e9" fill-opacity="0.5" stroke="#606060" stroke-width="1.0"/>
           <path id="arrow"
             d="M 11.500037,31.436501 C 11.940474,20.09759 22.043105,11.32322 32.158766,21.979434 L 37.068811,17.246167 C 37.068811,17.246167 37.088388,32 37.088388,32 L 22.160133,31.978069 C 22.160133,31.978069 26.997745,27.140456 26.997745,27.140456 C 18.528582,18.264221 13.291696,25.230495 11.500037,31.436501 z"
             style="fill:#404040;"/>
          </a>
         </g>
        </svg>
</svg>
