<?xml version="1.0" encoding="UTF-8" standalone="no"?>
<!DOCTYPE svg PUBLIC "-//W3C//DTD SVG 1.1//EN"
 "http://www.w3.org/Graphics/SVG/1.1/DTD/svg11.dtd">
<!-- Generated by graphviz version 2.40.1 (20161225.0304)
 -->
<!-- Title: examples/damagefield/main.cpp Pages: 1 -->
<!--zoomable 330 -->
<svg id="main" version="1.1" xmlns="http://www.w3.org/2000/svg" xmlns:xlink="http://www.w3.org/1999/xlink" xml:space="preserve" onload="init(evt)">
<style type="text/css"><![CDATA[
.edge:hover path { stroke: red; }
.edge:hover polygon { stroke: red; fill: red; }
]]></style>
<script type="text/javascript"><![CDATA[
var edges = document.getElementsByTagName('g');
if (edges && edges.length) {
  for (var i=0;i<edges.length;i++) {
    if (edges[i].id.substr(0,4)=='edge') {
      edges[i].setAttribute('class','edge');
    }
  }
}
]]></script>
        <defs>
                <circle id="rim" cx="0" cy="0" r="7"/>
                <circle id="rim2" cx="0" cy="0" r="3.5"/>
                <g id="zoomPlus">
                        <use xlink:href="#rim" fill="#404040">
                                <set attributeName="fill" to="#808080" begin="zoomplus.mouseover" end="zoomplus.mouseout"/>
                        </use>
                        <path d="M-4,0h8M0,-4v8" fill="none" stroke="white" stroke-width="1.5" pointer-events="none"/>
                </g>
                <g id="zoomMin">
                        <use xlink:href="#rim" fill="#404040">
                                <set attributeName="fill" to="#808080" begin="zoomminus.mouseover" end="zoomminus.mouseout"/>
                        </use>
                        <path d="M-4,0h8" fill="none" stroke="white" stroke-width="1.5" pointer-events="none"/>
                </g>
                <g id="dirArrow">
                        <path fill="none" stroke="white" stroke-width="1.5" d="M0,-3.0v7 M-2.5,-0.5L0,-3.0L2.5,-0.5"/>
                </g>
               <g id="resetDef">
                       <use xlink:href="#rim2" fill="#404040">
                               <set attributeName="fill" to="#808080" begin="reset.mouseover" end="reset.mouseout"/>
                       </use>
               </g>
        </defs>

<script type="text/javascript">
var viewWidth = 3614;
var viewHeight = 330;
var sectionId = 'dynsection-0';
</script>
<script xlink:href="../../svgpan.js"/>
<svg id="graph" class="graph">
<g id="viewport">
<title>examples/damagefield/main.cpp</title>
<polygon fill="#ffffff" stroke="transparent" points="-4,4 -4,-326 3610,-326 3610,4 -4,4"/>
<!-- Node0 -->
<g id="node1" class="node">
<title>Node0</title>
<polygon fill="#bfbfbf" stroke="#000000" points="748,-291.5 748,-321.5 862,-321.5 862,-291.5 748,-291.5"/>
<text text-anchor="start" x="756" y="-309.5" font-family="Helvetica,sans-Serif" font-size="10.00" fill="#000000">examples/damagefield</text>
<text text-anchor="middle" x="805" y="-298.5" font-family="Helvetica,sans-Serif" font-size="10.00" fill="#000000">/main.cpp</text>
</g>
<!-- Node1 -->
<g id="node2" class="node">
<title>Node1</title>
<polygon fill="#ffffff" stroke="#bfbfbf" points="0,-230 0,-249 108,-249 108,-230 0,-230"/>
<text text-anchor="middle" x="54" y="-237" font-family="Helvetica,sans-Serif" font-size="10.00" fill="#000000">Epetra_ConfigDefs.h</text>
</g>
<!-- Node0&#45;&gt;Node1 -->
<g id="edge1" class="edge">
<title>Node0&#45;&gt;Node1</title>
<path fill="none" stroke="#191970" d="M747.996,-305.4368C629.6839,-302.528 349.1384,-291.9809 117,-255 111.0142,-254.0464 104.7612,-252.8089 98.6178,-251.4488"/>
<polygon fill="#191970" stroke="#191970" points="98.9829,-247.94 88.4488,-249.0729 97.3902,-254.7564 98.9829,-247.94"/>
</g>
<!-- Node2 -->
<g id="node3" class="node">
<title>Node2</title>
<polygon fill="#ffffff" stroke="#bfbfbf" points="126.5,-230 126.5,-249 239.5,-249 239.5,-230 126.5,-230"/>
<text text-anchor="middle" x="183" y="-237" font-family="Helvetica,sans-Serif" font-size="10.00" fill="#000000">Epetra_SerialComm.h</text>
</g>
<!-- Node0&#45;&gt;Node2 -->
<g id="edge2" class="edge">
<title>Node0&#45;&gt;Node2</title>
<path fill="none" stroke="#191970" d="M747.605,-303.4434C647.1138,-297.5781 432.9593,-282.7919 254,-255 247.1313,-253.9333 239.9307,-252.6079 232.8591,-251.1844"/>
<polygon fill="#191970" stroke="#191970" points="233.1492,-247.6694 222.6444,-249.0475 231.7158,-254.5211 233.1492,-247.6694"/>
</g>
<!-- Node3 -->
<g id="node4" class="node">
<title>Node3</title>
<polygon fill="#ffffff" stroke="#bfbfbf" points="216,-.5 216,-19.5 316,-19.5 316,-.5 216,-.5"/>
<text text-anchor="middle" x="266" y="-7.5" font-family="Helvetica,sans-Serif" font-size="10.00" fill="#000000">Teuchos_RCP.hpp</text>
</g>
<!-- Node0&#45;&gt;Node3 -->
<g id="edge3" class="edge">
<title>Node0&#45;&gt;Node3</title>
<path fill="none" stroke="#191970" d="M747.8215,-304.4894C620.3338,-299.4898 321.2785,-284.7017 287,-255 260.3605,-231.9174 268,-213.2487 268,-178 268,-178 268,-178 268,-122 268,-89.7064 267.1585,-52.1836 266.5672,-29.8029"/>
<polygon fill="#191970" stroke="#191970" points="270.0599,-29.4874 266.2866,-19.5873 263.0626,-29.6797 270.0599,-29.4874"/>
</g>
<!-- Node4 -->
<g id="node5" class="node">
<title>Node4</title>
<polygon fill="#ffffff" stroke="#bfbfbf" points="296,-230 296,-249 348,-249 348,-230 296,-230"/>
<text text-anchor="middle" x="322" y="-237" font-family="Helvetica,sans-Serif" font-size="10.00" fill="#000000">Ifpack.h</text>
</g>
<!-- Node0&#45;&gt;Node4 -->
<g id="edge4" class="edge">
<title>Node0&#45;&gt;Node4</title>
<path fill="none" stroke="#191970" d="M747.7882,-302.088C644.1381,-293.7361 429.3326,-274.6823 357,-255 354.8118,-254.4046 352.585,-253.6924 350.3688,-252.9053"/>
<polygon fill="#191970" stroke="#191970" points="351.458,-249.5713 340.8734,-249.1038 348.8562,-256.0699 351.458,-249.5713"/>
</g>
<!-- Node5 -->
<g id="node6" class="node">
<title>Node5</title>
<polygon fill="#ffffff" stroke="#bfbfbf" points="366.5,-230 366.5,-249 497.5,-249 497.5,-230 366.5,-230"/>
<text text-anchor="middle" x="432" y="-237" font-family="Helvetica,sans-Serif" font-size="10.00" fill="#000000">Ifpack_AdditiveSchwarz.h</text>
</g>
<!-- Node0&#45;&gt;Node5 -->
<g id="edge5" class="edge">
<title>Node0&#45;&gt;Node5</title>
<path fill="none" stroke="#191970" d="M747.7712,-297.18C687.7024,-287.2641 590.5647,-270.8514 507,-255 500.4174,-253.7514 493.5204,-252.3937 486.6877,-251.0184"/>
<polygon fill="#191970" stroke="#191970" points="487.264,-247.564 476.7672,-249.0013 485.8693,-254.4237 487.264,-247.564"/>
</g>
<!-- Node6 -->
<g id="node7" class="node">
<title>Node6</title>
<polygon fill="#ffffff" stroke="#bfbfbf" points="516,-230 516,-249 638,-249 638,-230 516,-230"/>
<text text-anchor="middle" x="577" y="-237" font-family="Helvetica,sans-Serif" font-size="10.00" fill="#000000">BelosLinearProblem.hpp</text>
</g>
<!-- Node0&#45;&gt;Node6 -->
<g id="edge6" class="edge">
<title>Node0&#45;&gt;Node6</title>
<path fill="none" stroke="#191970" d="M753.8323,-291.4639C713.2162,-279.5284 657.1253,-263.0456 619.0873,-251.8678"/>
<polygon fill="#191970" stroke="#191970" points="619.9275,-248.4667 609.3463,-249.0053 617.9539,-255.1828 619.9275,-248.4667"/>
</g>
<!-- Node7 -->
<g id="node8" class="node">
<title>Node7</title>
<polygon fill="#ffffff" stroke="#bfbfbf" points="656.5,-230 656.5,-249 801.5,-249 801.5,-230 656.5,-230"/>
<text text-anchor="middle" x="729" y="-237" font-family="Helvetica,sans-Serif" font-size="10.00" fill="#000000">BelosBlockGmresSolMgr.hpp</text>
</g>
<!-- Node0&#45;&gt;Node7 -->
<g id="edge7" class="edge">
<title>Node0&#45;&gt;Node7</title>
<path fill="none" stroke="#191970" d="M787.7544,-291.2967C775.7983,-280.7564 759.8881,-266.7303 747.6396,-255.9323"/>
<polygon fill="#191970" stroke="#191970" points="749.6543,-253.0425 739.8385,-249.055 745.0252,-258.2934 749.6543,-253.0425"/>
</g>
<!-- Node8 -->
<g id="node9" class="node">
<title>Node8</title>
<polygon fill="#ffffff" stroke="#bfbfbf" points="820,-230 820,-249 942,-249 942,-230 820,-230"/>
<text text-anchor="middle" x="881" y="-237" font-family="Helvetica,sans-Serif" font-size="10.00" fill="#000000">BelosEpetraAdapter.hpp</text>
</g>
<!-- Node0&#45;&gt;Node8 -->
<g id="edge8" class="edge">
<title>Node0&#45;&gt;Node8</title>
<path fill="none" stroke="#191970" d="M822.2456,-291.2967C834.2017,-280.7564 850.1119,-266.7303 862.3604,-255.9323"/>
<polygon fill="#191970" stroke="#191970" points="864.9748,-258.2934 870.1615,-249.055 860.3457,-253.0425 864.9748,-258.2934"/>
</g>
<!-- Node9 -->
<g id="node10" class="node">
<title>Node9</title>
<polygon fill="#ffffff" stroke="#bfbfbf" points="960.5,-230 960.5,-249 1081.5,-249 1081.5,-230 960.5,-230"/>
<text text-anchor="middle" x="1021" y="-237" font-family="Helvetica,sans-Serif" font-size="10.00" fill="#000000">BelosSolverFactory.hpp</text>
</g>
<!-- Node0&#45;&gt;Node9 -->
<g id="edge9" class="edge">
<title>Node0&#45;&gt;Node9</title>
<path fill="none" stroke="#191970" d="M853.4746,-291.4639C891.7894,-279.5792 944.6399,-263.1858 980.6668,-252.0108"/>
<polygon fill="#191970" stroke="#191970" points="981.8419,-255.3108 990.3561,-249.0053 979.7681,-248.6251 981.8419,-255.3108"/>
</g>
<!-- Node10 -->
<g id="node11" class="node">
<title>Node10</title>
<polygon fill="#ffffff" stroke="#bfbfbf" points="1100,-230 1100,-249 1276,-249 1276,-230 1100,-230"/>
<text text-anchor="middle" x="1188" y="-237" font-family="Helvetica,sans-Serif" font-size="10.00" fill="#000000">Teuchos_StandardCatchMacros.hpp</text>
</g>
<!-- Node0&#45;&gt;Node10 -->
<g id="edge10" class="edge">
<title>Node0&#45;&gt;Node10</title>
<path fill="none" stroke="#191970" d="M862.339,-296.4694C932.3949,-284.2142 1050.5903,-263.5377 1123.6781,-250.7521"/>
<polygon fill="#191970" stroke="#191970" points="1124.4348,-254.173 1133.682,-249.0021 1123.2285,-247.2777 1124.4348,-254.173"/>
</g>
<!-- Node11 -->
<g id="node12" class="node">
<title>Node11</title>
<polygon fill="#ffffff" stroke="#bfbfbf" points="1294.5,-230 1294.5,-249 1433.5,-249 1433.5,-230 1294.5,-230"/>
<text text-anchor="middle" x="1364" y="-237" font-family="Helvetica,sans-Serif" font-size="10.00" fill="#000000">Teuchos_ParameterList.hpp</text>
</g>
<!-- Node0&#45;&gt;Node11 -->
<g id="edge11" class="edge">
<title>Node0&#45;&gt;Node11</title>
<path fill="none" stroke="#191970" d="M862.1008,-301.9894C952.2492,-294.505 1132.9398,-278.0302 1285,-255 1292.7733,-253.8227 1300.9447,-252.4144 1308.9639,-250.9335"/>
<polygon fill="#191970" stroke="#191970" points="1309.826,-254.3325 1318.9989,-249.0308 1308.5219,-247.4551 1309.826,-254.3325"/>
</g>
<!-- Node12 -->
<g id="node13" class="node">
<title>Node12</title>
<polygon fill="#ffffff" stroke="#bfbfbf" points="1452,-224.5 1452,-254.5 1592,-254.5 1592,-224.5 1452,-224.5"/>
<text text-anchor="start" x="1460" y="-242.5" font-family="Helvetica,sans-Serif" font-size="10.00" fill="#000000">Teuchos_XMLParameterList</text>
<text text-anchor="middle" x="1522" y="-231.5" font-family="Helvetica,sans-Serif" font-size="10.00" fill="#000000">CoreHelpers.hpp</text>
</g>
<!-- Node0&#45;&gt;Node12 -->
<g id="edge12" class="edge">
<title>Node0&#45;&gt;Node12</title>
<path fill="none" stroke="#191970" d="M862.3303,-303.9958C972.5126,-298.7198 1221.6032,-284.551 1441.7055,-254.9274"/>
<polygon fill="#191970" stroke="#191970" points="1442.3955,-258.3659 1451.8328,-253.5506 1441.4525,-251.4297 1442.3955,-258.3659"/>
</g>
<!-- Node13 -->
<g id="node14" class="node">
<title>Node13</title>
<polygon fill="#ffffff" stroke="#bfbfbf" points="1610.5,-224.5 1610.5,-254.5 1739.5,-254.5 1739.5,-224.5 1610.5,-224.5"/>
<text text-anchor="start" x="1618.5" y="-242.5" font-family="Helvetica,sans-Serif" font-size="10.00" fill="#000000">Stratimikos_DefaultLinear</text>
<text text-anchor="middle" x="1675" y="-231.5" font-family="Helvetica,sans-Serif" font-size="10.00" fill="#000000">SolverBuilder.hpp</text>
</g>
<!-- Node0&#45;&gt;Node13 -->
<g id="edge13" class="edge">
<title>Node0&#45;&gt;Node13</title>
<path fill="none" stroke="#191970" d="M862.2246,-305.5782C991.9031,-302.8904 1318.1234,-292.7605 1600.1065,-254.9887"/>
<polygon fill="#191970" stroke="#191970" points="1600.6784,-258.4433 1610.1185,-253.6333 1599.7393,-251.5066 1600.6784,-258.4433"/>
</g>
<!-- Node14 -->
<g id="node15" class="node">
<title>Node14</title>
<g id="a_node15"><a xlink:href="../../d9/de5/damage_field_8hpp.html" target="_top" xlink:title="damageField.hpp">
<polygon fill="#ffffff" stroke="#000000" points="1772.5,-230 1772.5,-249 1863.5,-249 1863.5,-230 1772.5,-230"/>
<text text-anchor="middle" x="1818" y="-237" font-family="Helvetica,sans-Serif" font-size="10.00" fill="#000000">damageField.hpp</text>
</a>
</g>
</g>
<!-- Node0&#45;&gt;Node14 -->
<g id="edge14" class="edge">
<title>Node0&#45;&gt;Node14</title>
<path fill="none" stroke="#191970" d="M862.1676,-304.6045C1038.96,-298.549 1575.3059,-278.6737 1748,-255 1755.2912,-254.0005 1762.9483,-252.6359 1770.4135,-251.1281"/>
<polygon fill="#191970" stroke="#191970" points="1771.3663,-254.504 1780.4219,-249.0042 1769.9131,-247.6564 1771.3663,-254.504"/>
</g>
<!-- Node15 -->
<g id="node16" class="node">
<title>Node15</title>
<g id="a_node16"><a xlink:href="../../d3/dd8/linear_finite_element_problem_8hpp.html" target="_top" xlink:title="linearFiniteElementProblem.hpp">
<polygon fill="#ffffff" stroke="#000000" points="1748.5,-168.5 1748.5,-187.5 1903.5,-187.5 1903.5,-168.5 1748.5,-168.5"/>
<text text-anchor="middle" x="1826" y="-175.5" font-family="Helvetica,sans-Serif" font-size="10.00" fill="#000000">linearFiniteElementProblem.hpp</text>
</a>
</g>
</g>
<!-- Node14&#45;&gt;Node15 -->
<g id="edge15" class="edge">
<title>Node14&#45;&gt;Node15</title>
<path fill="none" stroke="#191970" d="M1819.25,-229.8906C1820.3589,-221.3657 1822.0144,-208.6392 1823.4083,-197.9235"/>
<polygon fill="#191970" stroke="#191970" points="1826.9131,-198.1128 1824.7324,-187.7449 1819.9716,-197.2098 1826.9131,-198.1128"/>
</g>
<!-- Node16 -->
<g id="node17" class="node">
<title>Node16</title>
<g id="a_node17"><a xlink:href="../../dd/d80/base_class_f_e_m_8hpp.html" target="_top" xlink:title="baseClassFEM.hpp">
<polygon fill="#ffffff" stroke="#000000" points="1776.5,-112.5 1776.5,-131.5 1879.5,-131.5 1879.5,-112.5 1776.5,-112.5"/>
<text text-anchor="middle" x="1828" y="-119.5" font-family="Helvetica,sans-Serif" font-size="10.00" fill="#000000">baseClassFEM.hpp</text>
</a>
</g>
</g>
<!-- Node15&#45;&gt;Node16 -->
<g id="edge16" class="edge">
<title>Node15&#45;&gt;Node16</title>
<path fill="none" stroke="#191970" d="M1826.3484,-168.2455C1826.6093,-160.9382 1826.9752,-150.6944 1827.2963,-141.7046"/>
<polygon fill="#191970" stroke="#191970" points="1830.7964,-141.7613 1827.6556,-131.6427 1823.8008,-141.5113 1830.7964,-141.7613"/>
</g>
<!-- Node17 -->
<g id="node18" class="node">
<title>Node17</title>
<g id="a_node18"><a xlink:href="../../d0/d02/meshpp_8hpp.html" target="_top" xlink:title="meshpp.hpp">
<polygon fill="#ffffff" stroke="#000000" points="1797,-56.5 1797,-75.5 1867,-75.5 1867,-56.5 1797,-56.5"/>
<text text-anchor="middle" x="1832" y="-63.5" font-family="Helvetica,sans-Serif" font-size="10.00" fill="#000000">meshpp.hpp</text>
</a>
</g>
</g>
<!-- Node16&#45;&gt;Node17 -->
<g id="edge17" class="edge">
<title>Node16&#45;&gt;Node17</title>
<path fill="none" stroke="#191970" d="M1828.6967,-112.2455C1829.2187,-104.9382 1829.9504,-94.6944 1830.5925,-85.7046"/>
<polygon fill="#191970" stroke="#191970" points="1834.0898,-85.8667 1831.3112,-75.6427 1827.1076,-85.3679 1834.0898,-85.8667"/>
</g>
<!-- Node17&#45;&gt;Node3 -->
<g id="edge43" class="edge">
<title>Node17&#45;&gt;Node3</title>
<path fill="none" stroke="#191970" d="M1796.8302,-65.5836C1601.2163,-63.1692 644.907,-50.0511 326.3004,-19.9677"/>
<polygon fill="#191970" stroke="#191970" points="326.4403,-16.4649 316.1487,-18.9817 325.7635,-23.4321 326.4403,-16.4649"/>
</g>
<!-- Node18 -->
<g id="node19" class="node">
<title>Node18</title>
<polygon fill="#ffffff" stroke="#bfbfbf" points="334,-.5 334,-19.5 380,-19.5 380,-.5 334,-.5"/>
<text text-anchor="middle" x="357" y="-7.5" font-family="Helvetica,sans-Serif" font-size="10.00" fill="#000000">stdio.h</text>
</g>
<!-- Node17&#45;&gt;Node18 -->
<g id="edge18" class="edge">
<title>Node17&#45;&gt;Node18</title>
<path fill="none" stroke="#191970" d="M1796.8159,-65.4488C1593.5574,-62.19 572.5731,-44.7874 390.1319,-19.5785"/>
<polygon fill="#191970" stroke="#191970" points="390.6552,-16.1179 380.2404,-18.0628 389.5948,-23.0372 390.6552,-16.1179"/>
</g>
<!-- Node19 -->
<g id="node20" class="node">
<title>Node19</title>
<polygon fill="#ffffff" stroke="#bfbfbf" points="398,-.5 398,-19.5 452,-19.5 452,-.5 398,-.5"/>
<text text-anchor="middle" x="425" y="-7.5" font-family="Helvetica,sans-Serif" font-size="10.00" fill="#000000">iostream</text>
</g>
<!-- Node17&#45;&gt;Node19 -->
<g id="edge19" class="edge">
<title>Node17&#45;&gt;Node19</title>
<path fill="none" stroke="#191970" d="M1796.9635,-65.322C1600.3538,-61.4525 637.1003,-41.6165 462.2994,-19.7038"/>
<polygon fill="#191970" stroke="#191970" points="462.7575,-16.2339 452.3711,-18.3248 461.7944,-23.1673 462.7575,-16.2339"/>
</g>
<!-- Node20 -->
<g id="node21" class="node">
<title>Node20</title>
<polygon fill="#ffffff" stroke="#bfbfbf" points="470.5,-.5 470.5,-19.5 519.5,-19.5 519.5,-.5 470.5,-.5"/>
<text text-anchor="middle" x="495" y="-7.5" font-family="Helvetica,sans-Serif" font-size="10.00" fill="#000000">istream</text>
</g>
<!-- Node17&#45;&gt;Node20 -->
<g id="edge20" class="edge">
<title>Node17&#45;&gt;Node20</title>
<path fill="none" stroke="#191970" d="M1796.8067,-65.2846C1605.9035,-61.3353 697.3709,-41.6381 529.6755,-19.5095"/>
<polygon fill="#191970" stroke="#191970" points="530.1187,-16.0371 519.7165,-18.0485 529.1026,-22.963 530.1187,-16.0371"/>
</g>
<!-- Node21 -->
<g id="node22" class="node">
<title>Node21</title>
<polygon fill="#ffffff" stroke="#bfbfbf" points="538,-.5 538,-19.5 588,-19.5 588,-.5 538,-.5"/>
<text text-anchor="middle" x="563" y="-7.5" font-family="Helvetica,sans-Serif" font-size="10.00" fill="#000000">fstream</text>
</g>
<!-- Node17&#45;&gt;Node21 -->
<g id="edge21" class="edge">
<title>Node17&#45;&gt;Node21</title>
<path fill="none" stroke="#191970" d="M1796.7189,-65.8689C1623.0887,-65.046 857.6426,-59.3033 598.2137,-19.7397"/>
<polygon fill="#191970" stroke="#191970" points="598.514,-16.2437 588.0895,-18.1358 597.4187,-23.1575 598.514,-16.2437"/>
</g>
<!-- Node22 -->
<g id="node23" class="node">
<title>Node22</title>
<polygon fill="#ffffff" stroke="#bfbfbf" points="606,-.5 606,-19.5 650,-19.5 650,-.5 606,-.5"/>
<text text-anchor="middle" x="628" y="-7.5" font-family="Helvetica,sans-Serif" font-size="10.00" fill="#000000">vector</text>
</g>
<!-- Node17&#45;&gt;Node22 -->
<g id="edge22" class="edge">
<title>Node17&#45;&gt;Node22</title>
<path fill="none" stroke="#191970" d="M1796.7914,-65.9106C1628.6629,-65.2896 905.898,-60.374 660.1099,-19.6646"/>
<polygon fill="#191970" stroke="#191970" points="660.6158,-16.2003 650.1667,-17.9511 659.4269,-23.0986 660.6158,-16.2003"/>
</g>
<!-- Node23 -->
<g id="node24" class="node">
<title>Node23</title>
<polygon fill="#ffffff" stroke="#bfbfbf" points="668,-.5 668,-19.5 718,-19.5 718,-.5 668,-.5"/>
<text text-anchor="middle" x="693" y="-7.5" font-family="Helvetica,sans-Serif" font-size="10.00" fill="#000000">iomanip</text>
</g>
<!-- Node17&#45;&gt;Node23 -->
<g id="edge23" class="edge">
<title>Node17&#45;&gt;Node23</title>
<path fill="none" stroke="#191970" d="M1796.9629,-65.6923C1635.3714,-64.0997 960.4149,-55.5066 728.1535,-19.7366"/>
<polygon fill="#191970" stroke="#191970" points="728.5197,-16.2507 718.0916,-18.1232 727.4113,-23.1624 728.5197,-16.2507"/>
</g>
<!-- Node24 -->
<g id="node25" class="node">
<title>Node24</title>
<polygon fill="#ffffff" stroke="#bfbfbf" points="736,-.5 736,-19.5 840,-19.5 840,-.5 736,-.5"/>
<text text-anchor="middle" x="788" y="-7.5" font-family="Helvetica,sans-Serif" font-size="10.00" fill="#000000">Epetra_MpiComm.h</text>
</g>
<!-- Node17&#45;&gt;Node24 -->
<g id="edge24" class="edge">
<title>Node17&#45;&gt;Node24</title>
<path fill="none" stroke="#191970" d="M1796.6236,-65.8216C1669.8088,-64.8713 1226.0293,-58.8692 850.1717,-20.0049"/>
<polygon fill="#191970" stroke="#191970" points="850.4991,-16.5202 840.1898,-18.9633 849.7725,-23.4824 850.4991,-16.5202"/>
</g>
<!-- Node25 -->
<g id="node26" class="node">
<title>Node25</title>
<polygon fill="#ffffff" stroke="#bfbfbf" points="858.5,-.5 858.5,-19.5 971.5,-19.5 971.5,-.5 858.5,-.5"/>
<text text-anchor="middle" x="915" y="-7.5" font-family="Helvetica,sans-Serif" font-size="10.00" fill="#000000">Epetra_FECrsGraph.h</text>
</g>
<!-- Node17&#45;&gt;Node25 -->
<g id="edge25" class="edge">
<title>Node17&#45;&gt;Node25</title>
<path fill="none" stroke="#191970" d="M1796.6423,-65.3089C1681.1163,-62.793 1304.1861,-52.55 981.8382,-19.9865"/>
<polygon fill="#191970" stroke="#191970" points="982.1408,-16.4993 971.8374,-18.9672 981.4309,-23.4632 982.1408,-16.4993"/>
</g>
<!-- Node26 -->
<g id="node27" class="node">
<title>Node26</title>
<polygon fill="#ffffff" stroke="#bfbfbf" points="990,-.5 990,-19.5 1104,-19.5 1104,-.5 990,-.5"/>
<text text-anchor="middle" x="1047" y="-7.5" font-family="Helvetica,sans-Serif" font-size="10.00" fill="#000000">Epetra_FECrsMatrix.h</text>
</g>
<!-- Node17&#45;&gt;Node26 -->
<g id="edge26" class="edge">
<title>Node17&#45;&gt;Node26</title>
<path fill="none" stroke="#191970" d="M1796.7443,-64.8252C1693.5154,-61.1564 1382.812,-48.4808 1114.5259,-20.0792"/>
<polygon fill="#191970" stroke="#191970" points="1114.5134,-16.5581 1104.1981,-18.9758 1113.7697,-23.5184 1114.5134,-16.5581"/>
</g>
<!-- Node27 -->
<g id="node28" class="node">
<title>Node27</title>
<polygon fill="#ffffff" stroke="#bfbfbf" points="1122,-.5 1122,-19.5 1222,-19.5 1222,-.5 1122,-.5"/>
<text text-anchor="middle" x="1172" y="-7.5" font-family="Helvetica,sans-Serif" font-size="10.00" fill="#000000">Epetra_FEVector.h</text>
</g>
<!-- Node17&#45;&gt;Node27 -->
<g id="edge27" class="edge">
<title>Node17&#45;&gt;Node27</title>
<path fill="none" stroke="#191970" d="M1796.6628,-64.427C1705.1468,-60.1121 1452.7597,-46.68 1232.3076,-20.0606"/>
<polygon fill="#191970" stroke="#191970" points="1232.5164,-16.5602 1222.1663,-18.8239 1231.669,-23.5088 1232.5164,-16.5602"/>
</g>
<!-- Node28 -->
<g id="node29" class="node">
<title>Node28</title>
<polygon fill="#ffffff" stroke="#bfbfbf" points="1240.5,-.5 1240.5,-19.5 1327.5,-19.5 1327.5,-.5 1240.5,-.5"/>
<text text-anchor="middle" x="1284" y="-7.5" font-family="Helvetica,sans-Serif" font-size="10.00" fill="#000000">Epetra_Vector.h</text>
</g>
<!-- Node17&#45;&gt;Node28 -->
<g id="edge28" class="edge">
<title>Node17&#45;&gt;Node28</title>
<path fill="none" stroke="#191970" d="M1796.9852,-63.9308C1717.2244,-58.9653 1515.7565,-44.9997 1337.7128,-20.1345"/>
<polygon fill="#191970" stroke="#191970" points="1338.032,-16.6449 1327.6409,-18.7125 1337.0534,-23.5762 1338.032,-16.6449"/>
</g>
<!-- Node29 -->
<g id="node30" class="node">
<title>Node29</title>
<polygon fill="#ffffff" stroke="#bfbfbf" points="1345.5,-.5 1345.5,-19.5 1422.5,-19.5 1422.5,-.5 1345.5,-.5"/>
<text text-anchor="middle" x="1384" y="-7.5" font-family="Helvetica,sans-Serif" font-size="10.00" fill="#000000">Epetra_Map.h</text>
</g>
<!-- Node17&#45;&gt;Node29 -->
<g id="edge29" class="edge">
<title>Node17&#45;&gt;Node29</title>
<path fill="none" stroke="#191970" d="M1796.9803,-63.1157C1728.7414,-57.2515 1573.0364,-42.6781 1432.7463,-20.1684"/>
<polygon fill="#191970" stroke="#191970" points="1433.1049,-16.6809 1422.6734,-18.534 1431.9837,-23.5905 1433.1049,-16.6809"/>
</g>
<!-- Node30 -->
<g id="node31" class="node">
<title>Node30</title>
<polygon fill="#ffffff" stroke="#bfbfbf" points="1440.5,-.5 1440.5,-19.5 1579.5,-19.5 1579.5,-.5 1440.5,-.5"/>
<text text-anchor="middle" x="1510" y="-7.5" font-family="Helvetica,sans-Serif" font-size="10.00" fill="#000000">Epetra_SerialDenseMatrix.h</text>
</g>
<!-- Node17&#45;&gt;Node30 -->
<g id="edge30" class="edge">
<title>Node17&#45;&gt;Node30</title>
<path fill="none" stroke="#191970" d="M1796.9274,-59.9004C1743.7487,-50.652 1641.8388,-32.9285 1574.8943,-21.286"/>
<polygon fill="#191970" stroke="#191970" points="1575.3242,-17.8083 1564.8723,-19.543 1574.1247,-24.7047 1575.3242,-17.8083"/>
</g>
<!-- Node31 -->
<g id="node32" class="node">
<title>Node31</title>
<polygon fill="#ffffff" stroke="#bfbfbf" points="1598,-.5 1598,-19.5 1738,-19.5 1738,-.5 1598,-.5"/>
<text text-anchor="middle" x="1668" y="-7.5" font-family="Helvetica,sans-Serif" font-size="10.00" fill="#000000">Epetra_SerialDenseVector.h</text>
</g>
<!-- Node17&#45;&gt;Node31 -->
<g id="edge31" class="edge">
<title>Node17&#45;&gt;Node31</title>
<path fill="none" stroke="#191970" d="M1803.8074,-56.3733C1776.6547,-47.1016 1735.4093,-33.0178 1705.4975,-22.804"/>
<polygon fill="#191970" stroke="#191970" points="1706.4192,-19.4204 1695.8247,-19.5011 1704.1572,-26.0449 1706.4192,-19.4204"/>
</g>
<!-- Node32 -->
<g id="node33" class="node">
<title>Node32</title>
<polygon fill="#ffffff" stroke="#bfbfbf" points="1756,-.5 1756,-19.5 1908,-19.5 1908,-.5 1756,-.5"/>
<text text-anchor="middle" x="1832" y="-7.5" font-family="Helvetica,sans-Serif" font-size="10.00" fill="#000000">Epetra_IntSerialDenseVector.h</text>
</g>
<!-- Node17&#45;&gt;Node32 -->
<g id="edge32" class="edge">
<title>Node17&#45;&gt;Node32</title>
<path fill="none" stroke="#191970" d="M1832,-56.2455C1832,-48.9382 1832,-38.6944 1832,-29.7046"/>
<polygon fill="#191970" stroke="#191970" points="1835.5001,-29.6426 1832,-19.6427 1828.5001,-29.6427 1835.5001,-29.6426"/>
</g>
<!-- Node33 -->
<g id="node34" class="node">
<title>Node33</title>
<polygon fill="#ffffff" stroke="#bfbfbf" points="1926,-.5 1926,-19.5 2012,-19.5 2012,-.5 1926,-.5"/>
<text text-anchor="middle" x="1969" y="-7.5" font-family="Helvetica,sans-Serif" font-size="10.00" fill="#000000">Epetra_Import.h</text>
</g>
<!-- Node17&#45;&gt;Node33 -->
<g id="edge33" class="edge">
<title>Node17&#45;&gt;Node33</title>
<path fill="none" stroke="#191970" d="M1855.5511,-56.3733C1877.8391,-47.2629 1911.4937,-33.5062 1936.3637,-23.3404"/>
<polygon fill="#191970" stroke="#191970" points="1937.8239,-26.5247 1945.7562,-19.5011 1935.1753,-20.0451 1937.8239,-26.5247"/>
</g>
<!-- Node34 -->
<g id="node35" class="node">
<title>Node34</title>
<polygon fill="#ffffff" stroke="#bfbfbf" points="2030.5,-.5 2030.5,-19.5 2117.5,-19.5 2117.5,-.5 2030.5,-.5"/>
<text text-anchor="middle" x="2074" y="-7.5" font-family="Helvetica,sans-Serif" font-size="10.00" fill="#000000">Epetra_Export.h</text>
</g>
<!-- Node17&#45;&gt;Node34 -->
<g id="edge34" class="edge">
<title>Node17&#45;&gt;Node34</title>
<path fill="none" stroke="#191970" d="M1867.1889,-57.8571C1908.102,-48.3896 1975.9822,-32.6818 2022.7506,-21.8594"/>
<polygon fill="#191970" stroke="#191970" points="2023.732,-25.2248 2032.6855,-19.5604 2022.1538,-18.405 2023.732,-25.2248"/>
</g>
<!-- Node35 -->
<g id="node36" class="node">
<title>Node35</title>
<polygon fill="#ffffff" stroke="#bfbfbf" points="2136,-.5 2136,-19.5 2216,-19.5 2216,-.5 2136,-.5"/>
<text text-anchor="middle" x="2176" y="-7.5" font-family="Helvetica,sans-Serif" font-size="10.00" fill="#000000">Epetra_Time.h</text>
</g>
<!-- Node17&#45;&gt;Node35 -->
<g id="edge35" class="edge">
<title>Node17&#45;&gt;Node35</title>
<path fill="none" stroke="#191970" d="M1867.0549,-61.0738C1920.623,-53.4284 2026.2919,-37.8854 2125.9811,-20.1204"/>
<polygon fill="#191970" stroke="#191970" points="2126.6927,-23.5487 2135.9179,-18.3385 2125.4571,-16.6586 2126.6927,-23.5487"/>
</g>
<!-- Node36 -->
<g id="node37" class="node">
<title>Node36</title>
<polygon fill="#ffffff" stroke="#bfbfbf" points="2234.5,-.5 2234.5,-19.5 2381.5,-19.5 2381.5,-.5 2234.5,-.5"/>
<text text-anchor="middle" x="2308" y="-7.5" font-family="Helvetica,sans-Serif" font-size="10.00" fill="#000000">ml_MultiLevelPreconditioner.h</text>
</g>
<!-- Node17&#45;&gt;Node36 -->
<g id="edge36" class="edge">
<title>Node17&#45;&gt;Node36</title>
<path fill="none" stroke="#191970" d="M1867.2332,-61.9165C1934.4061,-54.1225 2085.6927,-36.5268 2224.2803,-20.0823"/>
<polygon fill="#191970" stroke="#191970" points="2224.7177,-23.5551 2234.2353,-18.9005 2223.8924,-16.6039 2224.7177,-23.5551"/>
</g>
<!-- Node37 -->
<g id="node38" class="node">
<title>Node37</title>
<polygon fill="#ffffff" stroke="#bfbfbf" points="2399.5,-.5 2399.5,-19.5 2490.5,-19.5 2490.5,-.5 2399.5,-.5"/>
<text text-anchor="middle" x="2445" y="-7.5" font-family="Helvetica,sans-Serif" font-size="10.00" fill="#000000">ml_epetra_utils.h</text>
</g>
<!-- Node17&#45;&gt;Node37 -->
<g id="edge37" class="edge">
<title>Node17&#45;&gt;Node37</title>
<path fill="none" stroke="#191970" d="M1867.1251,-64.3446C1954.0304,-59.9854 2186.2105,-46.7338 2389.4264,-20.101"/>
<polygon fill="#191970" stroke="#191970" points="2389.9329,-23.5646 2399.3867,-18.7818 2389.0137,-16.6252 2389.9329,-23.5646"/>
</g>
<!-- Node38 -->
<g id="node39" class="node">
<title>Node38</title>
<polygon fill="#ffffff" stroke="#bfbfbf" points="2508.5,-.5 2508.5,-19.5 2579.5,-19.5 2579.5,-.5 2508.5,-.5"/>
<text text-anchor="middle" x="2544" y="-7.5" font-family="Helvetica,sans-Serif" font-size="10.00" fill="#000000">ml_include.h</text>
</g>
<!-- Node17&#45;&gt;Node38 -->
<g id="edge38" class="edge">
<title>Node17&#45;&gt;Node38</title>
<path fill="none" stroke="#191970" d="M1867.3326,-65.4881C1965.8411,-63.6541 2251.9526,-55.5567 2497.8648,-20.1317"/>
<polygon fill="#191970" stroke="#191970" points="2498.6773,-23.5503 2508.067,-18.6428 2497.6664,-16.6237 2498.6773,-23.5503"/>
</g>
<!-- Node39 -->
<g id="node40" class="node">
<title>Node39</title>
<polygon fill="#ffffff" stroke="#bfbfbf" points="2597.5,-.5 2597.5,-19.5 2734.5,-19.5 2734.5,-.5 2597.5,-.5"/>
<text text-anchor="middle" x="2666" y="-7.5" font-family="Helvetica,sans-Serif" font-size="10.00" fill="#000000">EpetraExt_RowMatrixOut.h</text>
</g>
<!-- Node17&#45;&gt;Node39 -->
<g id="edge39" class="edge">
<title>Node17&#45;&gt;Node39</title>
<path fill="none" stroke="#191970" d="M1867.1558,-64.7205C1973.8654,-60.6551 2303.601,-46.7551 2587.1138,-20.1276"/>
<polygon fill="#191970" stroke="#191970" points="2587.5536,-23.6017 2597.1793,-19.175 2586.894,-16.6328 2587.5536,-23.6017"/>
</g>
<!-- Node40 -->
<g id="node41" class="node">
<title>Node40</title>
<polygon fill="#ffffff" stroke="#bfbfbf" points="2752.5,-.5 2752.5,-19.5 2891.5,-19.5 2891.5,-.5 2752.5,-.5"/>
<text text-anchor="middle" x="2822" y="-7.5" font-family="Helvetica,sans-Serif" font-size="10.00" fill="#000000">EpetraExt_MultiVectorOut.h</text>
</g>
<!-- Node17&#45;&gt;Node40 -->
<g id="edge40" class="edge">
<title>Node17&#45;&gt;Node40</title>
<path fill="none" stroke="#191970" d="M1867.2797,-65.1996C1987.9467,-62.2553 2395.4527,-50.6098 2742.3022,-20.0933"/>
<polygon fill="#191970" stroke="#191970" points="2742.6361,-23.5775 2752.2879,-19.208 2742.0178,-16.6049 2742.6361,-23.5775"/>
</g>
<!-- Node41 -->
<g id="node42" class="node">
<title>Node41</title>
<polygon fill="#ffffff" stroke="#bfbfbf" points="2910,-.5 2910,-19.5 3020,-19.5 3020,-.5 2910,-.5"/>
<text text-anchor="middle" x="2965" y="-7.5" font-family="Helvetica,sans-Serif" font-size="10.00" fill="#000000">EpetraExt_VectorIn.h</text>
</g>
<!-- Node17&#45;&gt;Node41 -->
<g id="edge41" class="edge">
<title>Node17&#45;&gt;Node41</title>
<path fill="none" stroke="#191970" d="M1867.1478,-65.0181C2025.3932,-60.5172 2673.4665,-41.2068 2899.7605,-19.9912"/>
<polygon fill="#191970" stroke="#191970" points="2900.2755,-23.4578 2909.8922,-19.0117 2899.6018,-16.4903 2900.2755,-23.4578"/>
</g>
<!-- Node42 -->
<g id="node43" class="node">
<title>Node42</title>
<polygon fill="#ffffff" stroke="#bfbfbf" points="3038.5,-.5 3038.5,-19.5 3169.5,-19.5 3169.5,-.5 3038.5,-.5"/>
<text text-anchor="middle" x="3104" y="-7.5" font-family="Helvetica,sans-Serif" font-size="10.00" fill="#000000">EpetraExt_MultiVectorIn.h</text>
</g>
<!-- Node17&#45;&gt;Node42 -->
<g id="edge42" class="edge">
<title>Node17&#45;&gt;Node42</title>
<path fill="none" stroke="#191970" d="M1867.3263,-65.856C2010.6585,-65.0175 2562.9021,-59.3239 3027.91,-20.0071"/>
<polygon fill="#191970" stroke="#191970" points="3028.5216,-23.4677 3038.1884,-19.1313 3027.9273,-16.493 3028.5216,-23.4677"/>
</g>
<!-- Node43 -->
<g id="node44" class="node">
<title>Node43</title>
<polygon fill="#ffffff" stroke="#bfbfbf" points="3187.5,-.5 3187.5,-19.5 3248.5,-19.5 3248.5,-.5 3187.5,-.5"/>
<text text-anchor="middle" x="3218" y="-7.5" font-family="Helvetica,sans-Serif" font-size="10.00" fill="#000000">Amesos.h</text>
</g>
<!-- Node17&#45;&gt;Node43 -->
<g id="edge44" class="edge">
<title>Node17&#45;&gt;Node43</title>
<path fill="none" stroke="#191970" d="M1867.0366,-65.8315C2049.5815,-64.7991 2893.8448,-58.0891 3177.2231,-19.9248"/>
<polygon fill="#191970" stroke="#191970" points="3178.0492,-23.3435 3187.4697,-18.4954 3177.0821,-16.4106 3178.0492,-23.3435"/>
</g>
<!-- Node44 -->
<g id="node45" class="node">
<title>Node44</title>
<polygon fill="#ffffff" stroke="#bfbfbf" points="3266.5,-.5 3266.5,-19.5 3331.5,-19.5 3331.5,-.5 3266.5,-.5"/>
<text text-anchor="middle" x="3299" y="-7.5" font-family="Helvetica,sans-Serif" font-size="10.00" fill="#000000">AztecOO.h</text>
</g>
<!-- Node17&#45;&gt;Node44 -->
<g id="edge45" class="edge">
<title>Node17&#45;&gt;Node44</title>
<path fill="none" stroke="#191970" d="M1867.1767,-65.8521C2056.5129,-64.9078 2956.6094,-58.5047 3256.4602,-19.9123"/>
<polygon fill="#191970" stroke="#191970" points="3256.9917,-23.3725 3266.4431,-18.5848 3256.069,-16.4336 3256.9917,-23.3725"/>
</g>
<!-- Node45 -->
<g id="node46" class="node">
<title>Node45</title>
<polygon fill="#ffffff" stroke="#bfbfbf" points="3350,-.5 3350,-19.5 3466,-19.5 3466,-.5 3350,-.5"/>
<text text-anchor="middle" x="3408" y="-7.5" font-family="Helvetica,sans-Serif" font-size="10.00" fill="#000000">Amesos_BaseSolver.h</text>
</g>
<!-- Node17&#45;&gt;Node45 -->
<g id="edge46" class="edge">
<title>Node17&#45;&gt;Node45</title>
<path fill="none" stroke="#191970" d="M1867.2076,-65.4905C2063.0329,-62.5724 3020.3935,-47.1778 3339.7687,-19.982"/>
<polygon fill="#191970" stroke="#191970" points="3340.2884,-23.45 3349.9454,-19.0919 3339.6784,-16.4766 3340.2884,-23.45"/>
</g>
<!-- Node46 -->
<g id="node47" class="node">
<title>Node46</title>
<polygon fill="#ffffff" stroke="#bfbfbf" points="3484.5,-.5 3484.5,-19.5 3533.5,-19.5 3533.5,-.5 3484.5,-.5"/>
<text text-anchor="middle" x="3509" y="-7.5" font-family="Helvetica,sans-Serif" font-size="10.00" fill="#000000">metis.h</text>
</g>
<!-- Node17&#45;&gt;Node46 -->
<g id="edge47" class="edge">
<title>Node17&#45;&gt;Node46</title>
<path fill="none" stroke="#191970" d="M1867.2121,-65.5593C2087.1015,-62.7367 3268.6753,-46.5081 3474.2032,-19.5286"/>
<polygon fill="#191970" stroke="#191970" points="3474.891,-22.9656 3484.2869,-18.0701 3473.8889,-16.0377 3474.891,-22.9656"/>
</g>
<!-- Node47 -->
<g id="node48" class="node">
<title>Node47</title>
<g id="a_node48"><a xlink:href="../../d4/dbc/fepp_8hpp.html" target="_top" xlink:title="fepp.hpp">
<polygon fill="#ffffff" stroke="#000000" points="3552,-.5 3552,-19.5 3606,-19.5 3606,-.5 3552,-.5"/>
<text text-anchor="middle" x="3579" y="-7.5" font-family="Helvetica,sans-Serif" font-size="10.00" fill="#000000">fepp.hpp</text>
</a>
</g>
</g>
<!-- Node17&#45;&gt;Node47 -->
<g id="edge48" class="edge">
<title>Node17&#45;&gt;Node47</title>
<path fill="none" stroke="#191970" d="M1867.1294,-65.5419C2095.451,-62.5921 3363.4651,-45.5842 3534,-20 3536.6161,-19.6075 3539.3122,-19.0863 3542.0329,-18.4874"/>
<polygon fill="#191970" stroke="#191970" points="3543.0153,-21.8502 3551.8935,-16.0686 3541.3476,-15.0518 3543.0153,-21.8502"/>
</g>
<!-- Node47&#45;&gt;Node17 -->
<g id="edge49" class="edge">
<title>Node47&#45;&gt;Node17</title>
<path fill="none" stroke="#191970" d="M3554.7174,-19.5524C3553.8056,-19.7154 3552.8981,-19.8653 3552,-20 3382.7097,-45.3975 2131.901,-62.3434 1877.1664,-65.4751"/>
<polygon fill="#191970" stroke="#191970" points="1877.1097,-61.9754 1867.1532,-65.5973 1877.1952,-68.9749 1877.1097,-61.9754"/>
</g>
</g>
</svg>
        <g id="navigator" transform="translate(0 0)" fill="#404254">
                <rect fill="#f2f5e9" fill-opacity="0.5" stroke="#606060" stroke-width=".5" x="0" y="0" width="60" height="60"/>
                <use id="zoomplus" xlink:href="#zoomPlus" x="17" y="9" onmousedown="handleZoom(evt,'in')"/>
                <use id="zoomminus" xlink:href="#zoomMin" x="42" y="9" onmousedown="handleZoom(evt,'out')"/>
                <use id="reset" xlink:href="#resetDef" x="30" y="36" onmousedown="handleReset()"/>
                <g id="arrowUp" xlink:href="#dirArrow" transform="translate(30 24)" onmousedown="handlePan(0,-1)">
                  <use xlink:href="#rim" fill="#404040">
                        <set attributeName="fill" to="#808080" begin="arrowUp.mouseover" end="arrowUp.mouseout"/>
                  </use>
                  <path fill="none" stroke="white" stroke-width="1.5" d="M0,-3.0v7 M-2.5,-0.5L0,-3.0L2.5,-0.5"/>
                </g>
                <g id="arrowRight" xlink:href="#dirArrow" transform="rotate(90) translate(36 -43)" onmousedown="handlePan(1,0)">
                  <use xlink:href="#rim" fill="#404040">
                        <set attributeName="fill" to="#808080" begin="arrowRight.mouseover" end="arrowRight.mouseout"/>
                  </use>
                  <path fill="none" stroke="white" stroke-width="1.5" d="M0,-3.0v7 M-2.5,-0.5L0,-3.0L2.5,-0.5"/>
                </g>
                <g id="arrowDown" xlink:href="#dirArrow" transform="rotate(180) translate(-30 -48)" onmousedown="handlePan(0,1)">
                  <use xlink:href="#rim" fill="#404040">
                        <set attributeName="fill" to="#808080" begin="arrowDown.mouseover" end="arrowDown.mouseout"/>
                  </use>
                  <path fill="none" stroke="white" stroke-width="1.5" d="M0,-3.0v7 M-2.5,-0.5L0,-3.0L2.5,-0.5"/>
                </g>
                <g id="arrowLeft" xlink:href="#dirArrow" transform="rotate(270) translate(-36 17)" onmousedown="handlePan(-1,0)">
                  <use xlink:href="#rim" fill="#404040">
                        <set attributeName="fill" to="#808080" begin="arrowLeft.mouseover" end="arrowLeft.mouseout"/>
                  </use>
                  <path fill="none" stroke="white" stroke-width="1.5" d="M0,-3.0v7 M-2.5,-0.5L0,-3.0L2.5,-0.5"/>
                </g>
        </g>
        <svg viewBox="0 0 15 15" width="100%" height="30px" preserveAspectRatio="xMaxYMin meet">
         <g id="arrow_out" transform="scale(0.3 0.3)">
          <a xlink:href="examples_2damagefield_2main_8cpp__incl_org.svg" target="_base">
           <rect id="button" ry="5" rx="5" y="6" x="6" height="38" width="38"
                fill="#f2f5e9" fill-opacity="0.5" stroke="#606060" stroke-width="1.0"/>
           <path id="arrow"
             d="M 11.500037,31.436501 C 11.940474,20.09759 22.043105,11.32322 32.158766,21.979434 L 37.068811,17.246167 C 37.068811,17.246167 37.088388,32 37.088388,32 L 22.160133,31.978069 C 22.160133,31.978069 26.997745,27.140456 26.997745,27.140456 C 18.528582,18.264221 13.291696,25.230495 11.500037,31.436501 z"
             style="fill:#404040;"/>
          </a>
         </g>
        </svg>
</svg>
