<?xml version="1.0" encoding="UTF-8" standalone="no"?>
<!DOCTYPE svg PUBLIC "-//W3C//DTD SVG 1.1//EN"
 "http://www.w3.org/Graphics/SVG/1.1/DTD/svg11.dtd">
<!-- Generated by graphviz version 2.40.1 (20161225.0304)
 -->
<!-- Title: src/Compressible_Mooney_Transverse_Isotropic_Random_Field.hpp Pages: 1 -->
<svg width="142pt" height="177pt"
 viewBox="0.00 0.00 142.38 177.00" xmlns="http://www.w3.org/2000/svg" xmlns:xlink="http://www.w3.org/1999/xlink">
<g id="graph0" class="graph" transform="scale(1 1) rotate(0) translate(4 173)">
<title>src/Compressible_Mooney_Transverse_Isotropic_Random_Field.hpp</title>
<polygon fill="#ffffff" stroke="transparent" points="-4,4 -4,-173 138.3789,-173 138.3789,4 -4,4"/>
<!-- Node45 -->
<g id="node1" class="node">
<title>Node45</title>
<polygon fill="#bfbfbf" stroke="#000000" points="0,-130.5 0,-168.5 134.3789,-168.5 134.3789,-130.5 0,-130.5"/>
<text text-anchor="start" x="8" y="-156.5" font-family="Helvetica,sans-Serif" font-size="10.00" fill="#000000">src/Compressible_Mooney</text>
<text text-anchor="start" x="8" y="-146.5" font-family="Helvetica,sans-Serif" font-size="10.00" fill="#000000">_Transverse_Isotropic</text>
<text text-anchor="middle" x="67.1895" y="-136.5" font-family="Helvetica,sans-Serif" font-size="10.00" fill="#000000">_Random_Field.hpp</text>
</g>
<!-- Node46 -->
<g id="node2" class="node">
<title>Node46</title>
<g id="a_node2"><a xlink:href="../../df/df6/forward_costfunction_8hpp.html" target="_top" xlink:title="nrl/forward_randomfield\l/forwardCostfunction.hpp">
<polygon fill="#ffffff" stroke="#000000" points="3.6035,-65.5 3.6035,-93.5 130.7754,-93.5 130.7754,-65.5 3.6035,-65.5"/>
<text text-anchor="start" x="11.6035" y="-81.5" font-family="Helvetica,sans-Serif" font-size="10.00" fill="#000000">nrl/forward_randomfield</text>
<text text-anchor="middle" x="67.1895" y="-71.5" font-family="Helvetica,sans-Serif" font-size="10.00" fill="#000000">/forwardCostfunction.hpp</text>
</a>
</g>
</g>
<!-- Node45&#45;&gt;Node46 -->
<g id="edge1" class="edge">
<title>Node45&#45;&gt;Node46</title>
<path fill="none" stroke="#191970" d="M67.1895,-120.1346C67.1895,-111.0837 67.1895,-101.5165 67.1895,-93.9404"/>
<polygon fill="#191970" stroke="#191970" points="63.6896,-120.3722 67.1895,-130.3722 70.6896,-120.3722 63.6896,-120.3722"/>
</g>
<!-- Node47 -->
<g id="node3" class="node">
<title>Node47</title>
<g id="a_node3"><a xlink:href="../../db/de3/nrl_2forward__randomfield_2main_8cpp.html" target="_top" xlink:title="nrl/forward_randomfield\l/main.cpp">
<polygon fill="#ffffff" stroke="#000000" points="6.665,-.5 6.665,-28.5 127.7139,-28.5 127.7139,-.5 6.665,-.5"/>
<text text-anchor="start" x="14.665" y="-16.5" font-family="Helvetica,sans-Serif" font-size="10.00" fill="#000000">nrl/forward_randomfield</text>
<text text-anchor="middle" x="67.1895" y="-6.5" font-family="Helvetica,sans-Serif" font-size="10.00" fill="#000000">/main.cpp</text>
</a>
</g>
</g>
<!-- Node46&#45;&gt;Node47 -->
<g id="edge2" class="edge">
<title>Node46&#45;&gt;Node47</title>
<path fill="none" stroke="#191970" d="M67.1895,-55.1081C67.1895,-46.1539 67.1895,-36.3227 67.1895,-28.5765"/>
<polygon fill="#191970" stroke="#191970" points="63.6896,-55.3959 67.1895,-65.396 70.6896,-55.396 63.6896,-55.3959"/>
</g>
</g>
</svg>
