<?xml version="1.0" encoding="UTF-8" standalone="no"?>
<!DOCTYPE svg PUBLIC "-//W3C//DTD SVG 1.1//EN"
 "http://www.w3.org/Graphics/SVG/1.1/DTD/svg11.dtd">
<!-- Generated by graphviz version 2.40.1 (20161225.0304)
 -->
<!-- Title: src/linearizedElasticity.hpp Pages: 1 -->
<!--zoomable 162 -->
<svg id="main" version="1.1" xmlns="http://www.w3.org/2000/svg" xmlns:xlink="http://www.w3.org/1999/xlink" xml:space="preserve" onload="init(evt)">
<style type="text/css"><![CDATA[
.edge:hover path { stroke: red; }
.edge:hover polygon { stroke: red; fill: red; }
]]></style>
<script type="text/javascript"><![CDATA[
var edges = document.getElementsByTagName('g');
if (edges && edges.length) {
  for (var i=0;i<edges.length;i++) {
    if (edges[i].id.substr(0,4)=='edge') {
      edges[i].setAttribute('class','edge');
    }
  }
}
]]></script>
        <defs>
                <circle id="rim" cx="0" cy="0" r="7"/>
                <circle id="rim2" cx="0" cy="0" r="3.5"/>
                <g id="zoomPlus">
                        <use xlink:href="#rim" fill="#404040">
                                <set attributeName="fill" to="#808080" begin="zoomplus.mouseover" end="zoomplus.mouseout"/>
                        </use>
                        <path d="M-4,0h8M0,-4v8" fill="none" stroke="white" stroke-width="1.5" pointer-events="none"/>
                </g>
                <g id="zoomMin">
                        <use xlink:href="#rim" fill="#404040">
                                <set attributeName="fill" to="#808080" begin="zoomminus.mouseover" end="zoomminus.mouseout"/>
                        </use>
                        <path d="M-4,0h8" fill="none" stroke="white" stroke-width="1.5" pointer-events="none"/>
                </g>
                <g id="dirArrow">
                        <path fill="none" stroke="white" stroke-width="1.5" d="M0,-3.0v7 M-2.5,-0.5L0,-3.0L2.5,-0.5"/>
                </g>
               <g id="resetDef">
                       <use xlink:href="#rim2" fill="#404040">
                               <set attributeName="fill" to="#808080" begin="reset.mouseover" end="reset.mouseout"/>
                       </use>
               </g>
        </defs>

<script type="text/javascript">
var viewWidth = 846;
var viewHeight = 162;
var sectionId = 'dynsection-1';
</script>
<script xlink:href="../../svgpan.js"/>
<svg id="graph" class="graph">
<g id="viewport">
<title>src/linearizedElasticity.hpp</title>
<polygon fill="#ffffff" stroke="transparent" points="-4,4 -4,-158 842,-158 842,4 -4,4"/>
<!-- Node35 -->
<g id="node1" class="node">
<title>Node35</title>
<polygon fill="#bfbfbf" stroke="#000000" points="354.5,-134.5 354.5,-153.5 488.5,-153.5 488.5,-134.5 354.5,-134.5"/>
<text text-anchor="middle" x="421.5" y="-141.5" font-family="Helvetica,sans-Serif" font-size="10.00" fill="#000000">src/linearizedElasticity.hpp</text>
</g>
<!-- Node36 -->
<g id="node2" class="node">
<title>Node36</title>
<g id="a_node2"><a xlink:href="../../de/d5d/linear_patch_test_8hpp.html" target="_top" xlink:title="cee530/linearpatchtest\l/linearPatchTest.hpp">
<polygon fill="#ffffff" stroke="#000000" points="0,-67.5 0,-97.5 115,-97.5 115,-67.5 0,-67.5"/>
<text text-anchor="start" x="8" y="-85.5" font-family="Helvetica,sans-Serif" font-size="10.00" fill="#000000">cee530/linearpatchtest</text>
<text text-anchor="middle" x="57.5" y="-74.5" font-family="Helvetica,sans-Serif" font-size="10.00" fill="#000000">/linearPatchTest.hpp</text>
</a>
</g>
</g>
<!-- Node35&#45;&gt;Node36 -->
<g id="edge1" class="edge">
<title>Node35&#45;&gt;Node36</title>
<path fill="none" stroke="#191970" d="M344.1664,-133.7391C283.844,-125.3313 198.0665,-112.4884 123.5,-98 120.727,-97.4612 117.8939,-96.8872 115.0363,-96.2893"/>
<polygon fill="#191970" stroke="#191970" points="343.9871,-137.2476 354.3729,-135.1533 344.9479,-130.3139 343.9871,-137.2476"/>
</g>
<!-- Node38 -->
<g id="node4" class="node">
<title>Node38</title>
<g id="a_node4"><a xlink:href="../../d4/d56/cee530_2manufactured_2manufactured_solution_8hpp.html" target="_top" xlink:title="cee530/manufactured\l/manufacturedSolution.hpp">
<polygon fill="#ffffff" stroke="#000000" points="133,-67.5 133,-97.5 266,-97.5 266,-67.5 133,-67.5"/>
<text text-anchor="start" x="141" y="-85.5" font-family="Helvetica,sans-Serif" font-size="10.00" fill="#000000">cee530/manufactured</text>
<text text-anchor="middle" x="199.5" y="-74.5" font-family="Helvetica,sans-Serif" font-size="10.00" fill="#000000">/manufacturedSolution.hpp</text>
</a>
</g>
</g>
<!-- Node35&#45;&gt;Node38 -->
<g id="edge3" class="edge">
<title>Node35&#45;&gt;Node38</title>
<path fill="none" stroke="#191970" d="M376.7482,-131.6025C341.2726,-121.7748 291.5599,-108.0031 253.8073,-97.5446"/>
<polygon fill="#191970" stroke="#191970" points="376.241,-135.0938 386.8125,-134.3906 378.1099,-128.3479 376.241,-135.0938"/>
</g>
<!-- Node40 -->
<g id="node6" class="node">
<title>Node40</title>
<g id="a_node6"><a xlink:href="../../d4/d57/cee_s_b_v_p_8hpp.html" target="_top" xlink:title="cee530/sbvp/ceeSBVP.hpp">
<polygon fill="#ffffff" stroke="#000000" points="284,-73 284,-92 421,-92 421,-73 284,-73"/>
<text text-anchor="middle" x="352.5" y="-80" font-family="Helvetica,sans-Serif" font-size="10.00" fill="#000000">cee530/sbvp/ceeSBVP.hpp</text>
</a>
</g>
</g>
<!-- Node35&#45;&gt;Node40 -->
<g id="edge5" class="edge">
<title>Node35&#45;&gt;Node40</title>
<path fill="none" stroke="#191970" d="M403.0419,-127.5482C390.3992,-116.2798 374.0594,-101.716 363.4333,-92.2449"/>
<polygon fill="#191970" stroke="#191970" points="400.9248,-130.3497 410.7188,-134.3906 405.5824,-125.1241 400.9248,-130.3497"/>
</g>
<!-- Node42 -->
<g id="node8" class="node">
<title>Node42</title>
<g id="a_node8"><a xlink:href="../../dc/d64/asme_s_b_v_p_8hpp.html" target="_top" xlink:title="src/asmeSBVP.hpp">
<polygon fill="#ffffff" stroke="#000000" points="439,-73 439,-92 542,-92 542,-73 439,-73"/>
<text text-anchor="middle" x="490.5" y="-80" font-family="Helvetica,sans-Serif" font-size="10.00" fill="#000000">src/asmeSBVP.hpp</text>
</a>
</g>
</g>
<!-- Node35&#45;&gt;Node42 -->
<g id="edge7" class="edge">
<title>Node35&#45;&gt;Node42</title>
<path fill="none" stroke="#191970" d="M439.9581,-127.5482C452.6008,-116.2798 468.9406,-101.716 479.5667,-92.2449"/>
<polygon fill="#191970" stroke="#191970" points="437.4176,-125.1241 432.2813,-134.3906 442.0752,-130.3497 437.4176,-125.1241"/>
</g>
<!-- Node44 -->
<g id="node10" class="node">
<title>Node44</title>
<g id="a_node10"><a xlink:href="../../df/d96/linearized_elasticity_8cpp.html" target="_top" xlink:title="src/linearizedElasticity.cpp">
<polygon fill="#ffffff" stroke="#000000" points="560.5,-73 560.5,-92 694.5,-92 694.5,-73 560.5,-73"/>
<text text-anchor="middle" x="627.5" y="-80" font-family="Helvetica,sans-Serif" font-size="10.00" fill="#000000">src/linearizedElasticity.cpp</text>
</a>
</g>
</g>
<!-- Node35&#45;&gt;Node44 -->
<g id="edge9" class="edge">
<title>Node35&#45;&gt;Node44</title>
<path fill="none" stroke="#191970" d="M463.4554,-131.4745C502.5598,-119.8001 560.03,-102.6427 595.5385,-92.0419"/>
<polygon fill="#191970" stroke="#191970" points="462.2683,-128.1761 453.6875,-134.3906 464.2709,-134.8836 462.2683,-128.1761"/>
</g>
<!-- Node45 -->
<g id="node11" class="node">
<title>Node45</title>
<g id="a_node11"><a xlink:href="../../d1/dee/phase_field_linearized_elasticity_8hpp.html" target="_top" xlink:title="src/phaseFieldLinearized\lElasticity.hpp">
<polygon fill="#ffffff" stroke="#000000" points="713,-67.5 713,-97.5 838,-97.5 838,-67.5 713,-67.5"/>
<text text-anchor="start" x="721" y="-85.5" font-family="Helvetica,sans-Serif" font-size="10.00" fill="#000000">src/phaseFieldLinearized</text>
<text text-anchor="middle" x="775.5" y="-74.5" font-family="Helvetica,sans-Serif" font-size="10.00" fill="#000000">Elasticity.hpp</text>
</a>
</g>
</g>
<!-- Node35&#45;&gt;Node45 -->
<g id="edge10" class="edge">
<title>Node35&#45;&gt;Node45</title>
<path fill="none" stroke="#191970" d="M495.7804,-132.9283C552.7491,-124.1842 633.264,-111.2799 703.5,-98 706.5153,-97.4299 709.5981,-96.8304 712.7091,-96.2122"/>
<polygon fill="#191970" stroke="#191970" points="495.1369,-129.4859 485.7809,-134.4575 496.1951,-136.4055 495.1369,-129.4859"/>
</g>
<!-- Node37 -->
<g id="node3" class="node">
<title>Node37</title>
<g id="a_node3"><a xlink:href="../../d0/d30/cee530_2linearpatchtest_2main_8cpp.html" target="_top" xlink:title="cee530/linearpatchtest\l/main.cpp">
<polygon fill="#ffffff" stroke="#000000" points="0,-.5 0,-30.5 115,-30.5 115,-.5 0,-.5"/>
<text text-anchor="start" x="8" y="-18.5" font-family="Helvetica,sans-Serif" font-size="10.00" fill="#000000">cee530/linearpatchtest</text>
<text text-anchor="middle" x="57.5" y="-7.5" font-family="Helvetica,sans-Serif" font-size="10.00" fill="#000000">/main.cpp</text>
</a>
</g>
</g>
<!-- Node36&#45;&gt;Node37 -->
<g id="edge2" class="edge">
<title>Node36&#45;&gt;Node37</title>
<path fill="none" stroke="#191970" d="M57.5,-57.0249C57.5,-48.128 57.5,-38.4287 57.5,-30.6432"/>
<polygon fill="#191970" stroke="#191970" points="54.0001,-57.2966 57.5,-67.2967 61.0001,-57.2967 54.0001,-57.2966"/>
</g>
<!-- Node39 -->
<g id="node5" class="node">
<title>Node39</title>
<g id="a_node5"><a xlink:href="../../d8/d17/cee530_2manufactured_2main_8cpp.html" target="_top" xlink:title="cee530/manufactured\l/main.cpp">
<polygon fill="#ffffff" stroke="#000000" points="144.5,-.5 144.5,-30.5 254.5,-30.5 254.5,-.5 144.5,-.5"/>
<text text-anchor="start" x="152.5" y="-18.5" font-family="Helvetica,sans-Serif" font-size="10.00" fill="#000000">cee530/manufactured</text>
<text text-anchor="middle" x="199.5" y="-7.5" font-family="Helvetica,sans-Serif" font-size="10.00" fill="#000000">/main.cpp</text>
</a>
</g>
</g>
<!-- Node38&#45;&gt;Node39 -->
<g id="edge4" class="edge">
<title>Node38&#45;&gt;Node39</title>
<path fill="none" stroke="#191970" d="M199.5,-57.0249C199.5,-48.128 199.5,-38.4287 199.5,-30.6432"/>
<polygon fill="#191970" stroke="#191970" points="196.0001,-57.2966 199.5,-67.2967 203.0001,-57.2967 196.0001,-57.2966"/>
</g>
<!-- Node41 -->
<g id="node7" class="node">
<title>Node41</title>
<g id="a_node7"><a xlink:href="../../dc/d51/cee530_2sbvp_2main_8cpp.html" target="_top" xlink:title="cee530/sbvp/main.cpp">
<polygon fill="#ffffff" stroke="#000000" points="295,-6 295,-25 410,-25 410,-6 295,-6"/>
<text text-anchor="middle" x="352.5" y="-13" font-family="Helvetica,sans-Serif" font-size="10.00" fill="#000000">cee530/sbvp/main.cpp</text>
</a>
</g>
</g>
<!-- Node40&#45;&gt;Node41 -->
<g id="edge6" class="edge">
<title>Node40&#45;&gt;Node41</title>
<path fill="none" stroke="#191970" d="M352.5,-62.6079C352.5,-50.214 352.5,-34.8263 352.5,-25.0817"/>
<polygon fill="#191970" stroke="#191970" points="349.0001,-62.9005 352.5,-72.9005 356.0001,-62.9006 349.0001,-62.9005"/>
</g>
<!-- Node43 -->
<g id="node9" class="node">
<title>Node43</title>
<g id="a_node9"><a xlink:href="../../d2/ded/asme_2linearelaslam_2main_8cpp.html" target="_top" xlink:title="asme/linearelaslam\l/main.cpp">
<polygon fill="#ffffff" stroke="#000000" points="440,-.5 440,-30.5 541,-30.5 541,-.5 440,-.5"/>
<text text-anchor="start" x="448" y="-18.5" font-family="Helvetica,sans-Serif" font-size="10.00" fill="#000000">asme/linearelaslam</text>
<text text-anchor="middle" x="490.5" y="-7.5" font-family="Helvetica,sans-Serif" font-size="10.00" fill="#000000">/main.cpp</text>
</a>
</g>
</g>
<!-- Node42&#45;&gt;Node43 -->
<g id="edge8" class="edge">
<title>Node42&#45;&gt;Node43</title>
<path fill="none" stroke="#191970" d="M490.5,-62.7758C490.5,-52.4641 490.5,-40.0437 490.5,-30.5218"/>
<polygon fill="#191970" stroke="#191970" points="487.0001,-62.9005 490.5,-72.9005 494.0001,-62.9006 487.0001,-62.9005"/>
</g>
<!-- Node46 -->
<g id="node12" class="node">
<title>Node46</title>
<g id="a_node12"><a xlink:href="../../d4/d66/phase_field_linearized_elasticity_8cpp.html" target="_top" xlink:title="src/phaseFieldLinearized\lElasticity.cpp">
<polygon fill="#ffffff" stroke="#000000" points="713,-.5 713,-30.5 838,-30.5 838,-.5 713,-.5"/>
<text text-anchor="start" x="721" y="-18.5" font-family="Helvetica,sans-Serif" font-size="10.00" fill="#000000">src/phaseFieldLinearized</text>
<text text-anchor="middle" x="775.5" y="-7.5" font-family="Helvetica,sans-Serif" font-size="10.00" fill="#000000">Elasticity.cpp</text>
</a>
</g>
</g>
<!-- Node45&#45;&gt;Node46 -->
<g id="edge11" class="edge">
<title>Node45&#45;&gt;Node46</title>
<path fill="none" stroke="#191970" d="M775.5,-57.0249C775.5,-48.128 775.5,-38.4287 775.5,-30.6432"/>
<polygon fill="#191970" stroke="#191970" points="772.0001,-57.2966 775.5,-67.2967 779.0001,-57.2967 772.0001,-57.2966"/>
</g>
</g>
</svg>
        <g id="navigator" transform="translate(0 0)" fill="#404254">
                <rect fill="#f2f5e9" fill-opacity="0.5" stroke="#606060" stroke-width=".5" x="0" y="0" width="60" height="60"/>
                <use id="zoomplus" xlink:href="#zoomPlus" x="17" y="9" onmousedown="handleZoom(evt,'in')"/>
                <use id="zoomminus" xlink:href="#zoomMin" x="42" y="9" onmousedown="handleZoom(evt,'out')"/>
                <use id="reset" xlink:href="#resetDef" x="30" y="36" onmousedown="handleReset()"/>
                <g id="arrowUp" xlink:href="#dirArrow" transform="translate(30 24)" onmousedown="handlePan(0,-1)">
                  <use xlink:href="#rim" fill="#404040">
                        <set attributeName="fill" to="#808080" begin="arrowUp.mouseover" end="arrowUp.mouseout"/>
                  </use>
                  <path fill="none" stroke="white" stroke-width="1.5" d="M0,-3.0v7 M-2.5,-0.5L0,-3.0L2.5,-0.5"/>
                </g>
                <g id="arrowRight" xlink:href="#dirArrow" transform="rotate(90) translate(36 -43)" onmousedown="handlePan(1,0)">
                  <use xlink:href="#rim" fill="#404040">
                        <set attributeName="fill" to="#808080" begin="arrowRight.mouseover" end="arrowRight.mouseout"/>
                  </use>
                  <path fill="none" stroke="white" stroke-width="1.5" d="M0,-3.0v7 M-2.5,-0.5L0,-3.0L2.5,-0.5"/>
                </g>
                <g id="arrowDown" xlink:href="#dirArrow" transform="rotate(180) translate(-30 -48)" onmousedown="handlePan(0,1)">
                  <use xlink:href="#rim" fill="#404040">
                        <set attributeName="fill" to="#808080" begin="arrowDown.mouseover" end="arrowDown.mouseout"/>
                  </use>
                  <path fill="none" stroke="white" stroke-width="1.5" d="M0,-3.0v7 M-2.5,-0.5L0,-3.0L2.5,-0.5"/>
                </g>
                <g id="arrowLeft" xlink:href="#dirArrow" transform="rotate(270) translate(-36 17)" onmousedown="handlePan(-1,0)">
                  <use xlink:href="#rim" fill="#404040">
                        <set attributeName="fill" to="#808080" begin="arrowLeft.mouseover" end="arrowLeft.mouseout"/>
                  </use>
                  <path fill="none" stroke="white" stroke-width="1.5" d="M0,-3.0v7 M-2.5,-0.5L0,-3.0L2.5,-0.5"/>
                </g>
        </g>
        <svg viewBox="0 0 15 15" width="100%" height="30px" preserveAspectRatio="xMaxYMin meet">
         <g id="arrow_out" transform="scale(0.3 0.3)">
          <a xlink:href="linearized_elasticity_8hpp__dep__incl_org.svg" target="_base">
           <rect id="button" ry="5" rx="5" y="6" x="6" height="38" width="38"
                fill="#f2f5e9" fill-opacity="0.5" stroke="#606060" stroke-width="1.0"/>
           <path id="arrow"
             d="M 11.500037,31.436501 C 11.940474,20.09759 22.043105,11.32322 32.158766,21.979434 L 37.068811,17.246167 C 37.068811,17.246167 37.088388,32 37.088388,32 L 22.160133,31.978069 C 22.160133,31.978069 26.997745,27.140456 26.997745,27.140456 C 18.528582,18.264221 13.291696,25.230495 11.500037,31.436501 z"
             style="fill:#404040;"/>
          </a>
         </g>
        </svg>
</svg>
