<?xml version="1.0" encoding="UTF-8" standalone="no"?>
<!DOCTYPE svg PUBLIC "-//W3C//DTD SVG 1.1//EN"
 "http://www.w3.org/Graphics/SVG/1.1/DTD/svg11.dtd">
<!-- Generated by graphviz version 2.40.1 (20161225.0304)
 -->
<!-- Title: src/linearizedElasticity.hpp Pages: 1 -->
<svg width="713pt" height="162pt"
 viewBox="0.00 0.00 712.50 162.00" xmlns="http://www.w3.org/2000/svg" xmlns:xlink="http://www.w3.org/1999/xlink">
<g id="graph0" class="graph" transform="scale(1 1) rotate(0) translate(4 158)">
<title>src/linearizedElasticity.hpp</title>
<polygon fill="#ffffff" stroke="transparent" points="-4,4 -4,-158 708.5,-158 708.5,4 -4,4"/>
<!-- Node35 -->
<g id="node1" class="node">
<title>Node35</title>
<polygon fill="#bfbfbf" stroke="#000000" points="288.5,-134.5 288.5,-153.5 422.5,-153.5 422.5,-134.5 288.5,-134.5"/>
<text text-anchor="middle" x="355.5" y="-141.5" font-family="Helvetica,sans-Serif" font-size="10.00" fill="#000000">src/linearizedElasticity.hpp</text>
</g>
<!-- Node36 -->
<g id="node2" class="node">
<title>Node36</title>
<g id="a_node2"><a xlink:href="../../de/d5d/linear_patch_test_8hpp.html" target="_top" xlink:title="cee530/linearpatchtest\l/linearPatchTest.hpp">
<polygon fill="#ffffff" stroke="#000000" points="0,-67.5 0,-97.5 115,-97.5 115,-67.5 0,-67.5"/>
<text text-anchor="start" x="8" y="-85.5" font-family="Helvetica,sans-Serif" font-size="10.00" fill="#000000">cee530/linearpatchtest</text>
<text text-anchor="middle" x="57.5" y="-74.5" font-family="Helvetica,sans-Serif" font-size="10.00" fill="#000000">/linearPatchTest.hpp</text>
</a>
</g>
</g>
<!-- Node35&#45;&gt;Node36 -->
<g id="edge1" class="edge">
<title>Node35&#45;&gt;Node36</title>
<path fill="none" stroke="#191970" d="M294.7151,-132.5497C247.8445,-123.5749 181.4526,-110.5463 123.5,-98 120.7391,-97.4023 117.9159,-96.7804 115.0661,-96.1442"/>
<polygon fill="#191970" stroke="#191970" points="294.2271,-136.0197 304.7062,-134.458 295.5405,-129.144 294.2271,-136.0197"/>
</g>
<!-- Node38 -->
<g id="node4" class="node">
<title>Node38</title>
<g id="a_node4"><a xlink:href="../../d4/d56/cee530_2manufactured_2manufactured_solution_8hpp.html" target="_top" xlink:title="cee530/manufactured\l/manufacturedSolution.hpp">
<polygon fill="#ffffff" stroke="#000000" points="133,-67.5 133,-97.5 266,-97.5 266,-67.5 133,-67.5"/>
<text text-anchor="start" x="141" y="-85.5" font-family="Helvetica,sans-Serif" font-size="10.00" fill="#000000">cee530/manufactured</text>
<text text-anchor="middle" x="199.5" y="-74.5" font-family="Helvetica,sans-Serif" font-size="10.00" fill="#000000">/manufacturedSolution.hpp</text>
</a>
</g>
</g>
<!-- Node35&#45;&gt;Node38 -->
<g id="edge3" class="edge">
<title>Node35&#45;&gt;Node38</title>
<path fill="none" stroke="#191970" d="M321.7794,-130.7063C297.0326,-120.9503 263.3937,-107.6889 237.6619,-97.5446"/>
<polygon fill="#191970" stroke="#191970" points="320.5382,-133.9791 331.125,-134.3906 323.1055,-127.4669 320.5382,-133.9791"/>
</g>
<!-- Node40 -->
<g id="node6" class="node">
<title>Node40</title>
<g id="a_node6"><a xlink:href="../../d9/d6b/_c_e_e_s_b_v_p_8hpp.html" target="_top" xlink:title="cee530/sbvp/CEESBVP.hpp">
<polygon fill="#ffffff" stroke="#000000" points="284.5,-73 284.5,-92 426.5,-92 426.5,-73 284.5,-73"/>
<text text-anchor="middle" x="355.5" y="-80" font-family="Helvetica,sans-Serif" font-size="10.00" fill="#000000">cee530/sbvp/CEESBVP.hpp</text>
</a>
</g>
</g>
<!-- Node35&#45;&gt;Node40 -->
<g id="edge5" class="edge">
<title>Node35&#45;&gt;Node40</title>
<path fill="none" stroke="#191970" d="M355.5,-124.2462C355.5,-113.5519 355.5,-100.814 355.5,-92.2449"/>
<polygon fill="#191970" stroke="#191970" points="352.0001,-124.3906 355.5,-134.3906 359.0001,-124.3907 352.0001,-124.3906"/>
</g>
<!-- Node42 -->
<g id="node8" class="node">
<title>Node42</title>
<g id="a_node8"><a xlink:href="../../d3/df7/_a_s_m_e_s_b_v_p_8hpp.html" target="_top" xlink:title="src/ASMESBVP.hpp">
<polygon fill="#ffffff" stroke="#000000" points="445,-73 445,-92 552,-92 552,-73 445,-73"/>
<text text-anchor="middle" x="498.5" y="-80" font-family="Helvetica,sans-Serif" font-size="10.00" fill="#000000">src/ASMESBVP.hpp</text>
</a>
</g>
</g>
<!-- Node35&#45;&gt;Node42 -->
<g id="edge7" class="edge">
<title>Node35&#45;&gt;Node42</title>
<path fill="none" stroke="#191970" d="M387.2558,-130.3428C414.2952,-118.7139 452.4491,-102.3051 476.3131,-92.0419"/>
<polygon fill="#191970" stroke="#191970" points="385.6474,-127.2245 377.8438,-134.3906 388.413,-133.655 385.6474,-127.2245"/>
</g>
<!-- Node44 -->
<g id="node10" class="node">
<title>Node44</title>
<g id="a_node10"><a xlink:href="../../df/d96/linearized_elasticity_8cpp.html" target="_top" xlink:title="src/linearizedElasticity.cpp">
<polygon fill="#ffffff" stroke="#000000" points="570.5,-73 570.5,-92 704.5,-92 704.5,-73 570.5,-73"/>
<text text-anchor="middle" x="637.5" y="-80" font-family="Helvetica,sans-Serif" font-size="10.00" fill="#000000">src/linearizedElasticity.cpp</text>
</a>
</g>
</g>
<!-- Node35&#45;&gt;Node44 -->
<g id="edge9" class="edge">
<title>Node35&#45;&gt;Node44</title>
<path fill="none" stroke="#191970" d="M409.2394,-132.2802C462.7516,-120.61 543.8957,-102.9137 593.6443,-92.0643"/>
<polygon fill="#191970" stroke="#191970" points="408.2777,-128.9076 399.2531,-134.4581 409.7692,-135.7469 408.2777,-128.9076"/>
</g>
<!-- Node37 -->
<g id="node3" class="node">
<title>Node37</title>
<g id="a_node3"><a xlink:href="../../d0/d30/cee530_2linearpatchtest_2main_8cpp.html" target="_top" xlink:title="cee530/linearpatchtest\l/main.cpp">
<polygon fill="#ffffff" stroke="#000000" points="0,-.5 0,-30.5 115,-30.5 115,-.5 0,-.5"/>
<text text-anchor="start" x="8" y="-18.5" font-family="Helvetica,sans-Serif" font-size="10.00" fill="#000000">cee530/linearpatchtest</text>
<text text-anchor="middle" x="57.5" y="-7.5" font-family="Helvetica,sans-Serif" font-size="10.00" fill="#000000">/main.cpp</text>
</a>
</g>
</g>
<!-- Node36&#45;&gt;Node37 -->
<g id="edge2" class="edge">
<title>Node36&#45;&gt;Node37</title>
<path fill="none" stroke="#191970" d="M57.5,-57.0249C57.5,-48.128 57.5,-38.4287 57.5,-30.6432"/>
<polygon fill="#191970" stroke="#191970" points="54.0001,-57.2966 57.5,-67.2967 61.0001,-57.2967 54.0001,-57.2966"/>
</g>
<!-- Node39 -->
<g id="node5" class="node">
<title>Node39</title>
<g id="a_node5"><a xlink:href="../../d8/d17/cee530_2manufactured_2main_8cpp.html" target="_top" xlink:title="cee530/manufactured\l/main.cpp">
<polygon fill="#ffffff" stroke="#000000" points="144.5,-.5 144.5,-30.5 254.5,-30.5 254.5,-.5 144.5,-.5"/>
<text text-anchor="start" x="152.5" y="-18.5" font-family="Helvetica,sans-Serif" font-size="10.00" fill="#000000">cee530/manufactured</text>
<text text-anchor="middle" x="199.5" y="-7.5" font-family="Helvetica,sans-Serif" font-size="10.00" fill="#000000">/main.cpp</text>
</a>
</g>
</g>
<!-- Node38&#45;&gt;Node39 -->
<g id="edge4" class="edge">
<title>Node38&#45;&gt;Node39</title>
<path fill="none" stroke="#191970" d="M199.5,-57.0249C199.5,-48.128 199.5,-38.4287 199.5,-30.6432"/>
<polygon fill="#191970" stroke="#191970" points="196.0001,-57.2966 199.5,-67.2967 203.0001,-57.2967 196.0001,-57.2966"/>
</g>
<!-- Node41 -->
<g id="node7" class="node">
<title>Node41</title>
<g id="a_node7"><a xlink:href="../../dc/d51/cee530_2sbvp_2main_8cpp.html" target="_top" xlink:title="cee530/sbvp/main.cpp">
<polygon fill="#ffffff" stroke="#000000" points="298,-6 298,-25 413,-25 413,-6 298,-6"/>
<text text-anchor="middle" x="355.5" y="-13" font-family="Helvetica,sans-Serif" font-size="10.00" fill="#000000">cee530/sbvp/main.cpp</text>
</a>
</g>
</g>
<!-- Node40&#45;&gt;Node41 -->
<g id="edge6" class="edge">
<title>Node40&#45;&gt;Node41</title>
<path fill="none" stroke="#191970" d="M355.5,-62.6079C355.5,-50.214 355.5,-34.8263 355.5,-25.0817"/>
<polygon fill="#191970" stroke="#191970" points="352.0001,-62.9005 355.5,-72.9005 359.0001,-62.9006 352.0001,-62.9005"/>
</g>
<!-- Node43 -->
<g id="node9" class="node">
<title>Node43</title>
<g id="a_node9"><a xlink:href="../../d2/ded/asme_2linearelaslam_2main_8cpp.html" target="_top" xlink:title="asme/linearelaslam\l/main.cpp">
<polygon fill="#ffffff" stroke="#000000" points="448,-.5 448,-30.5 549,-30.5 549,-.5 448,-.5"/>
<text text-anchor="start" x="456" y="-18.5" font-family="Helvetica,sans-Serif" font-size="10.00" fill="#000000">asme/linearelaslam</text>
<text text-anchor="middle" x="498.5" y="-7.5" font-family="Helvetica,sans-Serif" font-size="10.00" fill="#000000">/main.cpp</text>
</a>
</g>
</g>
<!-- Node42&#45;&gt;Node43 -->
<g id="edge8" class="edge">
<title>Node42&#45;&gt;Node43</title>
<path fill="none" stroke="#191970" d="M498.5,-62.7758C498.5,-52.4641 498.5,-40.0437 498.5,-30.5218"/>
<polygon fill="#191970" stroke="#191970" points="495.0001,-62.9005 498.5,-72.9005 502.0001,-62.9006 495.0001,-62.9005"/>
</g>
</g>
</svg>
