<?xml version="1.0" encoding="UTF-8" standalone="no"?>
<!DOCTYPE svg PUBLIC "-//W3C//DTD SVG 1.1//EN"
 "http://www.w3.org/Graphics/SVG/1.1/DTD/svg11.dtd">
<!-- Generated by graphviz version 2.40.1 (20161225.0304)
 -->
<!-- Title: src/nrl_PCA_Likelihood.hpp Pages: 1 -->
<svg width="2294pt" height="462pt"
 viewBox="0.00 0.00 2294.16 462.00" xmlns="http://www.w3.org/2000/svg" xmlns:xlink="http://www.w3.org/1999/xlink">
<g id="graph0" class="graph" transform="scale(1 1) rotate(0) translate(4 458)">
<title>src/nrl_PCA_Likelihood.hpp</title>
<polygon fill="#ffffff" stroke="transparent" points="-4,4 -4,-458 2290.16,-458 2290.16,4 -4,4"/>
<!-- Node0 -->
<g id="node1" class="node">
<title>Node0</title>
<polygon fill="#bfbfbf" stroke="#000000" points="1092.9082,-435.5 1092.9082,-453.5 1232.3115,-453.5 1232.3115,-435.5 1092.9082,-435.5"/>
<text text-anchor="middle" x="1162.6099" y="-441.5" font-family="Helvetica,sans-Serif" font-size="10.00" fill="#000000">src/nrl_PCA_Likelihood.hpp</text>
</g>
<!-- Node1 -->
<g id="node2" class="node">
<title>Node1</title>
<polygon fill="#ffffff" stroke="#bfbfbf" points="694.3242,-370.5 694.3242,-388.5 740.8955,-388.5 740.8955,-370.5 694.3242,-370.5"/>
<text text-anchor="middle" x="717.6099" y="-376.5" font-family="Helvetica,sans-Serif" font-size="10.00" fill="#000000">math.h</text>
</g>
<!-- Node0&#45;&gt;Node1 -->
<g id="edge1" class="edge">
<title>Node0&#45;&gt;Node1</title>
<path fill="none" stroke="#191970" d="M1092.5292,-440.4691C991.7722,-434.0474 811.3159,-420.0329 749.6099,-399 745.8805,-397.7288 742.1247,-395.9677 738.5638,-394.0197"/>
<polygon fill="#191970" stroke="#191970" points="740.1034,-390.859 729.7447,-388.6346 736.4554,-396.8332 740.1034,-390.859"/>
</g>
<!-- Node2 -->
<g id="node3" class="node">
<title>Node2</title>
<g id="a_node3"><a xlink:href="../../d4/df3/compressible___mooney___transverse___isotropic___random___field_8hpp.html" target="_top" xlink:title="compressible_Mooney\l_Transverse_Isotropic\l_Random_Field.hpp">
<polygon fill="#ffffff" stroke="#000000" points="758.5854,-360.5 758.5854,-398.5 874.6343,-398.5 874.6343,-360.5 758.5854,-360.5"/>
<text text-anchor="start" x="766.5854" y="-386.5" font-family="Helvetica,sans-Serif" font-size="10.00" fill="#000000">compressible_Mooney</text>
<text text-anchor="start" x="766.5854" y="-376.5" font-family="Helvetica,sans-Serif" font-size="10.00" fill="#000000">_Transverse_Isotropic</text>
<text text-anchor="middle" x="816.6099" y="-366.5" font-family="Helvetica,sans-Serif" font-size="10.00" fill="#000000">_Random_Field.hpp</text>
</a>
</g>
</g>
<!-- Node0&#45;&gt;Node2 -->
<g id="edge2" class="edge">
<title>Node0&#45;&gt;Node2</title>
<path fill="none" stroke="#191970" d="M1096.9327,-435.4773C1041.2066,-427.3726 959.2832,-414.398 888.6099,-399 887.3287,-398.7209 886.0362,-398.4333 884.7354,-398.1384"/>
<polygon fill="#191970" stroke="#191970" points="885.1834,-394.6479 874.6463,-395.7527 883.5725,-401.46 885.1834,-394.6479"/>
</g>
<!-- Node37 -->
<g id="node28" class="node">
<title>Node37</title>
<polygon fill="#ffffff" stroke="#bfbfbf" points="606.4131,-230.5 606.4131,-258.5 730.8066,-258.5 730.8066,-230.5 606.4131,-230.5"/>
<text text-anchor="start" x="614.4131" y="-246.5" font-family="Helvetica,sans-Serif" font-size="10.00" fill="#000000">boost/random/mersenne</text>
<text text-anchor="middle" x="668.6099" y="-236.5" font-family="Helvetica,sans-Serif" font-size="10.00" fill="#000000">_twister.hpp</text>
</g>
<!-- Node0&#45;&gt;Node37 -->
<g id="edge71" class="edge">
<title>Node0&#45;&gt;Node37</title>
<path fill="none" stroke="#191970" d="M1140.1,-435.3867C1063.9417,-404.5534 815.0072,-303.7702 712.9076,-262.4343"/>
<polygon fill="#191970" stroke="#191970" points="714.0787,-259.1325 703.4961,-258.624 711.4518,-265.6209 714.0787,-259.1325"/>
</g>
<!-- Node38 -->
<g id="node29" class="node">
<title>Node38</title>
<polygon fill="#ffffff" stroke="#bfbfbf" points="1025.9746,-230.5 1025.9746,-258.5 1139.2451,-258.5 1139.2451,-230.5 1025.9746,-230.5"/>
<text text-anchor="start" x="1033.9746" y="-246.5" font-family="Helvetica,sans-Serif" font-size="10.00" fill="#000000">boost/random/uniform</text>
<text text-anchor="middle" x="1082.6099" y="-236.5" font-family="Helvetica,sans-Serif" font-size="10.00" fill="#000000">_real_distribution.hpp</text>
</g>
<!-- Node0&#45;&gt;Node38 -->
<g id="edge73" class="edge">
<title>Node0&#45;&gt;Node38</title>
<path fill="none" stroke="#191970" d="M1158.9645,-435.3867C1147.1676,-405.8943 1109.7713,-312.4037 1092.0714,-268.1538"/>
<polygon fill="#191970" stroke="#191970" points="1095.2788,-266.7481 1088.3151,-258.7632 1088.7794,-269.3478 1095.2788,-266.7481"/>
</g>
<!-- Node40 -->
<g id="node31" class="node">
<title>Node40</title>
<polygon fill="#ffffff" stroke="#bfbfbf" points="1157.3638,-230.5 1157.3638,-258.5 1267.856,-258.5 1267.856,-230.5 1157.3638,-230.5"/>
<text text-anchor="start" x="1165.3638" y="-246.5" font-family="Helvetica,sans-Serif" font-size="10.00" fill="#000000">boost/random/normal</text>
<text text-anchor="middle" x="1212.6099" y="-236.5" font-family="Helvetica,sans-Serif" font-size="10.00" fill="#000000">_distribution.hpp</text>
</g>
<!-- Node0&#45;&gt;Node40 -->
<g id="edge72" class="edge">
<title>Node0&#45;&gt;Node40</title>
<path fill="none" stroke="#191970" d="M1164.8882,-435.3867C1172.2303,-406.0184 1195.4374,-313.1898 1206.556,-268.7154"/>
<polygon fill="#191970" stroke="#191970" points="1210.0141,-269.3135 1209.0441,-258.7632 1203.2231,-267.6157 1210.0141,-269.3135"/>
</g>
<!-- Node41 -->
<g id="node32" class="node">
<title>Node41</title>
<polygon fill="#ffffff" stroke="#bfbfbf" points="1286.0239,-230.5 1286.0239,-258.5 1403.1958,-258.5 1403.1958,-230.5 1286.0239,-230.5"/>
<text text-anchor="start" x="1294.0239" y="-246.5" font-family="Helvetica,sans-Serif" font-size="10.00" fill="#000000">boost/math/special</text>
<text text-anchor="middle" x="1344.6099" y="-236.5" font-family="Helvetica,sans-Serif" font-size="10.00" fill="#000000">_functions/gamma.hpp</text>
</g>
<!-- Node0&#45;&gt;Node41 -->
<g id="edge74" class="edge">
<title>Node0&#45;&gt;Node41</title>
<path fill="none" stroke="#191970" d="M1170.903,-435.3867C1198.1366,-405.4596 1285.3377,-309.6343 1324.8356,-266.23"/>
<polygon fill="#191970" stroke="#191970" points="1327.4886,-268.5149 1331.6304,-258.7632 1322.3113,-263.8036 1327.4886,-268.5149"/>
</g>
<!-- Node47 -->
<g id="node38" class="node">
<title>Node47</title>
<g id="a_node38"><a xlink:href="../../d1/d11/newton_raphson_8hpp.html" target="_top" xlink:title="newtonRaphson.hpp">
<polygon fill="#ffffff" stroke="#000000" points="1424.7407,-235.5 1424.7407,-253.5 1532.479,-253.5 1532.479,-235.5 1424.7407,-235.5"/>
<text text-anchor="middle" x="1478.6099" y="-241.5" font-family="Helvetica,sans-Serif" font-size="10.00" fill="#000000">newtonRaphson.hpp</text>
</a>
</g>
</g>
<!-- Node0&#45;&gt;Node47 -->
<g id="edge40" class="edge">
<title>Node0&#45;&gt;Node47</title>
<path fill="none" stroke="#191970" d="M1177.6792,-435.337C1192.665,-426.2006 1216.2898,-411.7323 1236.6099,-399 1317.6747,-348.206 1413.2029,-286.7384 1455.9487,-259.148"/>
<polygon fill="#191970" stroke="#191970" points="1457.9771,-262.0046 1464.4791,-253.6395 1454.1797,-256.1241 1457.9771,-262.0046"/>
</g>
<!-- Node58 -->
<g id="node49" class="node">
<title>Node58</title>
<g id="a_node49"><a xlink:href="../../d5/d75/distributenrldata_8hpp.html" target="_top" xlink:title="distributenrldata.hpp">
<polygon fill="#ffffff" stroke="#000000" points="2049.3022,-110.5 2049.3022,-128.5 2155.9175,-128.5 2155.9175,-110.5 2049.3022,-110.5"/>
<text text-anchor="middle" x="2102.6099" y="-116.5" font-family="Helvetica,sans-Serif" font-size="10.00" fill="#000000">distributenrldata.hpp</text>
</a>
</g>
</g>
<!-- Node0&#45;&gt;Node58 -->
<g id="edge53" class="edge">
<title>Node0&#45;&gt;Node58</title>
<path fill="none" stroke="#191970" d="M1232.3721,-443.4737C1477.5001,-438.9567 2284.6099,-415.998 2284.6099,-309.5 2284.6099,-309.5 2284.6099,-309.5 2284.6099,-244.5 2284.6099,-208.1716 2290.8102,-191.1667 2265.6099,-165 2251.6125,-150.4659 2205.7088,-138.4293 2166.1679,-130.3945"/>
<polygon fill="#191970" stroke="#191970" points="2166.7645,-126.9447 2156.2755,-128.4388 2165.4069,-133.8118 2166.7645,-126.9447"/>
</g>
<!-- Node3 -->
<g id="node4" class="node">
<title>Node3</title>
<g id="a_node4"><a xlink:href="../../de/d49/tensor__calculus_8hpp.html" target="_top" xlink:title="tensor_calculus.hpp">
<polygon fill="#ffffff" stroke="#000000" points="606.1372,-110.5 606.1372,-128.5 711.0825,-128.5 711.0825,-110.5 606.1372,-110.5"/>
<text text-anchor="middle" x="658.6099" y="-116.5" font-family="Helvetica,sans-Serif" font-size="10.00" fill="#000000">tensor_calculus.hpp</text>
</a>
</g>
</g>
<!-- Node2&#45;&gt;Node3 -->
<g id="edge3" class="edge">
<title>Node2&#45;&gt;Node3</title>
<path fill="none" stroke="#191970" d="M769.7614,-360.441C711.3617,-335.6151 616.8503,-291.5473 597.6099,-259 572.7417,-216.9328 615.6046,-162.8718 641.3416,-136.0793"/>
<polygon fill="#191970" stroke="#191970" points="644.123,-138.2455 648.6852,-128.6832 639.1556,-133.3134 644.123,-138.2455"/>
</g>
<!-- Node36 -->
<g id="node27" class="node">
<title>Node36</title>
<g id="a_node27"><a xlink:href="../../d1/dac/shinozukapp__layeredcomp__2d_8hpp.html" target="_top" xlink:title="shinozukapp_layeredcomp\l_2d.hpp">
<polygon fill="#ffffff" stroke="#000000" points="930.1274,-295.5 930.1274,-323.5 1065.0923,-323.5 1065.0923,-295.5 930.1274,-295.5"/>
<text text-anchor="start" x="938.1274" y="-311.5" font-family="Helvetica,sans-Serif" font-size="10.00" fill="#000000">shinozukapp_layeredcomp</text>
<text text-anchor="middle" x="997.6099" y="-301.5" font-family="Helvetica,sans-Serif" font-size="10.00" fill="#000000">_2d.hpp</text>
</a>
</g>
</g>
<!-- Node2&#45;&gt;Node36 -->
<g id="edge26" class="edge">
<title>Node2&#45;&gt;Node36</title>
<path fill="none" stroke="#191970" d="M866.0689,-360.3722C892.7061,-350.0705 925.3614,-337.4414 951.4713,-327.3436"/>
<polygon fill="#191970" stroke="#191970" points="953.0672,-330.4791 961.1315,-323.6076 950.5423,-323.9504 953.0672,-330.4791"/>
</g>
<!-- Node43 -->
<g id="node34" class="node">
<title>Node43</title>
<g id="a_node34"><a xlink:href="../../da/d5c/compressible_hyperelasticity_8hpp.html" target="_top" xlink:title="compressibleHyperelasticity.hpp">
<polygon fill="#ffffff" stroke="#000000" points="390.2817,-300.5 390.2817,-318.5 548.938,-318.5 548.938,-300.5 390.2817,-300.5"/>
<text text-anchor="middle" x="469.6099" y="-306.5" font-family="Helvetica,sans-Serif" font-size="10.00" fill="#000000">compressibleHyperelasticity.hpp</text>
</a>
</g>
</g>
<!-- Node2&#45;&gt;Node43 -->
<g id="edge34" class="edge">
<title>Node2&#45;&gt;Node43</title>
<path fill="none" stroke="#191970" d="M758.2397,-362.121C755.3288,-361.3771 752.4402,-360.6652 749.6099,-360 678.8456,-343.3691 596.9106,-329.1706 540.033,-320.1039"/>
<polygon fill="#191970" stroke="#191970" points="540.491,-316.6329 530.0668,-318.5269 539.3969,-323.5469 540.491,-316.6329"/>
</g>
<!-- Node4 -->
<g id="node5" class="node">
<title>Node4</title>
<g id="a_node5"><a xlink:href="../../d0/d02/meshpp_8hpp.html" target="_top" xlink:title="meshpp.hpp">
<polygon fill="#ffffff" stroke="#ff0000" points="1060.0903,-55.5 1060.0903,-73.5 1131.1294,-73.5 1131.1294,-55.5 1060.0903,-55.5"/>
<text text-anchor="middle" x="1095.6099" y="-61.5" font-family="Helvetica,sans-Serif" font-size="10.00" fill="#000000">meshpp.hpp</text>
</a>
</g>
</g>
<!-- Node3&#45;&gt;Node4 -->
<g id="edge4" class="edge">
<title>Node3&#45;&gt;Node4</title>
<path fill="none" stroke="#191970" d="M711.1928,-111.8301C715.7292,-111.1991 720.2494,-110.5811 724.6099,-110 841.6219,-94.4052 979.6715,-77.9986 1049.7762,-69.8085"/>
<polygon fill="#191970" stroke="#191970" points="1050.4962,-73.2483 1060.0234,-68.6133 1049.6852,-66.2954 1050.4962,-73.2483"/>
</g>
<!-- Node5 -->
<g id="node6" class="node">
<title>Node5</title>
<polygon fill="#ffffff" stroke="#bfbfbf" points="2096.8784,-.5 2096.8784,-18.5 2142.3413,-18.5 2142.3413,-.5 2096.8784,-.5"/>
<text text-anchor="middle" x="2119.6099" y="-6.5" font-family="Helvetica,sans-Serif" font-size="10.00" fill="#000000">stdio.h</text>
</g>
<!-- Node4&#45;&gt;Node5 -->
<g id="edge5" class="edge">
<title>Node4&#45;&gt;Node5</title>
<path fill="none" stroke="#191970" d="M1131.1459,-64.068C1283.0615,-62.0402 1879.2587,-52.1965 2086.8598,-18.8662"/>
<polygon fill="#191970" stroke="#191970" points="2087.4593,-22.3146 2096.7432,-17.2097 2086.3022,-15.4109 2087.4593,-22.3146"/>
</g>
<!-- Node6 -->
<g id="node7" class="node">
<title>Node6</title>
<polygon fill="#ffffff" stroke="#bfbfbf" points="2160.4375,-.5 2160.4375,-18.5 2214.7822,-18.5 2214.7822,-.5 2160.4375,-.5"/>
<text text-anchor="middle" x="2187.6099" y="-6.5" font-family="Helvetica,sans-Serif" font-size="10.00" fill="#000000">iostream</text>
</g>
<!-- Node4&#45;&gt;Node6 -->
<g id="edge6" class="edge">
<title>Node4&#45;&gt;Node6</title>
<path fill="none" stroke="#191970" d="M1131.1911,-63.9938C1289.1498,-61.5913 1928.5294,-50.1913 2150.2941,-18.8369"/>
<polygon fill="#191970" stroke="#191970" points="2150.8358,-22.295 2160.22,-17.377 2149.8171,-15.3695 2150.8358,-22.295"/>
</g>
<!-- Node7 -->
<g id="node8" class="node">
<title>Node7</title>
<polygon fill="#ffffff" stroke="#bfbfbf" points="1584.2183,-.5 1584.2183,-18.5 1633.0015,-18.5 1633.0015,-.5 1584.2183,-.5"/>
<text text-anchor="middle" x="1608.6099" y="-6.5" font-family="Helvetica,sans-Serif" font-size="10.00" fill="#000000">istream</text>
</g>
<!-- Node4&#45;&gt;Node7 -->
<g id="edge7" class="edge">
<title>Node4&#45;&gt;Node7</title>
<path fill="none" stroke="#191970" d="M1131.155,-63.3872C1209.6571,-60.4484 1403.7535,-50.5391 1573.9773,-19.0188"/>
<polygon fill="#191970" stroke="#191970" points="1574.6825,-22.4476 1583.8628,-17.1586 1573.388,-15.5683 1574.6825,-22.4476"/>
</g>
<!-- Node8 -->
<g id="node9" class="node">
<title>Node8</title>
<polygon fill="#ffffff" stroke="#bfbfbf" points="1968.9399,-.5 1968.9399,-18.5 2018.2798,-18.5 2018.2798,-.5 1968.9399,-.5"/>
<text text-anchor="middle" x="1993.6099" y="-6.5" font-family="Helvetica,sans-Serif" font-size="10.00" fill="#000000">fstream</text>
</g>
<!-- Node4&#45;&gt;Node8 -->
<g id="edge8" class="edge">
<title>Node4&#45;&gt;Node8</title>
<path fill="none" stroke="#191970" d="M1131.4656,-63.7023C1270.8954,-60.435 1777.8072,-46.9779 1958.9627,-18.8821"/>
<polygon fill="#191970" stroke="#191970" points="1959.5727,-22.329 1968.8832,-17.2729 1958.4518,-15.4193 1959.5727,-22.329"/>
</g>
<!-- Node9 -->
<g id="node10" class="node">
<title>Node9</title>
<polygon fill="#ffffff" stroke="#bfbfbf" points="2035.9941,-.5 2035.9941,-18.5 2079.2256,-18.5 2079.2256,-.5 2035.9941,-.5"/>
<text text-anchor="middle" x="2057.6099" y="-6.5" font-family="Helvetica,sans-Serif" font-size="10.00" fill="#000000">vector</text>
</g>
<!-- Node4&#45;&gt;Node9 -->
<g id="edge9" class="edge">
<title>Node4&#45;&gt;Node9</title>
<path fill="none" stroke="#191970" d="M1131.1965,-63.9877C1277.1101,-61.702 1830.684,-51.1704 2025.6995,-18.871"/>
<polygon fill="#191970" stroke="#191970" points="2026.5639,-22.2734 2035.8188,-17.1162 2025.3678,-15.3764 2026.5639,-22.2734"/>
</g>
<!-- Node10 -->
<g id="node11" class="node">
<title>Node10</title>
<polygon fill="#ffffff" stroke="#bfbfbf" points="2233.1001,-.5 2233.1001,-18.5 2284.1196,-18.5 2284.1196,-.5 2233.1001,-.5"/>
<text text-anchor="middle" x="2258.6099" y="-6.5" font-family="Helvetica,sans-Serif" font-size="10.00" fill="#000000">iomanip</text>
</g>
<!-- Node4&#45;&gt;Node10 -->
<g id="edge10" class="edge">
<title>Node4&#45;&gt;Node10</title>
<path fill="none" stroke="#191970" d="M1131.3598,-64.1383C1296.3233,-62.3063 1985.6515,-52.8263 2222.8187,-18.6989"/>
<polygon fill="#191970" stroke="#191970" points="2223.3832,-22.1535 2232.7556,-17.213 2222.3479,-15.2304 2223.3832,-22.1535"/>
</g>
<!-- Node11 -->
<g id="node12" class="node">
<title>Node11</title>
<polygon fill="#ffffff" stroke="#bfbfbf" points="377.1494,-.5 377.1494,-18.5 482.0703,-18.5 482.0703,-.5 377.1494,-.5"/>
<text text-anchor="middle" x="429.6099" y="-6.5" font-family="Helvetica,sans-Serif" font-size="10.00" fill="#000000">Epetra_MpiComm.h</text>
</g>
<!-- Node4&#45;&gt;Node11 -->
<g id="edge11" class="edge">
<title>Node4&#45;&gt;Node11</title>
<path fill="none" stroke="#191970" d="M1060.0566,-62.8149C967.977,-58.2399 714.0095,-44.2821 492.3433,-19.1211"/>
<polygon fill="#191970" stroke="#191970" points="492.4797,-15.614 482.1463,-17.9531 491.683,-22.5685 492.4797,-15.614"/>
</g>
<!-- Node12 -->
<g id="node13" class="node">
<title>Node12</title>
<polygon fill="#ffffff" stroke="#bfbfbf" points="499.8662,-.5 499.8662,-18.5 615.3535,-18.5 615.3535,-.5 499.8662,-.5"/>
<text text-anchor="middle" x="557.6099" y="-6.5" font-family="Helvetica,sans-Serif" font-size="10.00" fill="#000000">Epetra_FECrsGraph.h</text>
</g>
<!-- Node4&#45;&gt;Node12 -->
<g id="edge12" class="edge">
<title>Node4&#45;&gt;Node12</title>
<path fill="none" stroke="#191970" d="M1059.8041,-61.5892C982.557,-55.1916 794.2844,-38.966 625.7416,-19.0893"/>
<polygon fill="#191970" stroke="#191970" points="626.0366,-15.5999 615.6938,-17.8972 625.2118,-22.5511 626.0366,-15.5999"/>
</g>
<!-- Node13 -->
<g id="node14" class="node">
<title>Node13</title>
<polygon fill="#ffffff" stroke="#bfbfbf" points="633.1519,-.5 633.1519,-18.5 748.0679,-18.5 748.0679,-.5 633.1519,-.5"/>
<text text-anchor="middle" x="690.6099" y="-6.5" font-family="Helvetica,sans-Serif" font-size="10.00" fill="#000000">Epetra_FECrsMatrix.h</text>
</g>
<!-- Node4&#45;&gt;Node13 -->
<g id="edge13" class="edge">
<title>Node4&#45;&gt;Node13</title>
<path fill="none" stroke="#191970" d="M1059.9657,-59.8296C999.927,-51.9381 874.5477,-35.3523 758.3343,-19.2304"/>
<polygon fill="#191970" stroke="#191970" points="758.5847,-15.7317 748.1982,-17.8222 757.6214,-22.6651 758.5847,-15.7317"/>
</g>
<!-- Node14 -->
<g id="node15" class="node">
<title>Node14</title>
<polygon fill="#ffffff" stroke="#bfbfbf" points="765.6348,-.5 765.6348,-18.5 865.585,-18.5 865.585,-.5 765.6348,-.5"/>
<text text-anchor="middle" x="815.6099" y="-6.5" font-family="Helvetica,sans-Serif" font-size="10.00" fill="#000000">Epetra_FEVector.h</text>
</g>
<!-- Node4&#45;&gt;Node14 -->
<g id="edge14" class="edge">
<title>Node4&#45;&gt;Node14</title>
<path fill="none" stroke="#191970" d="M1059.8633,-57.4783C1012.3963,-48.1545 928.0422,-31.5849 871.9622,-20.5692"/>
<polygon fill="#191970" stroke="#191970" points="872.3223,-17.0731 861.8351,-18.58 870.973,-23.9419 872.3223,-17.0731"/>
</g>
<!-- Node15 -->
<g id="node16" class="node">
<title>Node15</title>
<polygon fill="#ffffff" stroke="#bfbfbf" points="884.0239,-.5 884.0239,-18.5 971.1958,-18.5 971.1958,-.5 884.0239,-.5"/>
<text text-anchor="middle" x="927.6099" y="-6.5" font-family="Helvetica,sans-Serif" font-size="10.00" fill="#000000">Epetra_Vector.h</text>
</g>
<!-- Node4&#45;&gt;Node15 -->
<g id="edge15" class="edge">
<title>Node4&#45;&gt;Node15</title>
<path fill="none" stroke="#191970" d="M1067.8681,-55.4179C1039.6961,-46.1949 995.8994,-31.8567 964.7477,-21.6582"/>
<polygon fill="#191970" stroke="#191970" points="965.7063,-18.2893 955.1136,-18.5042 963.5283,-24.9419 965.7063,-18.2893"/>
</g>
<!-- Node16 -->
<g id="node17" class="node">
<title>Node16</title>
<polygon fill="#ffffff" stroke="#bfbfbf" points="989.2012,-.5 989.2012,-18.5 1068.0186,-18.5 1068.0186,-.5 989.2012,-.5"/>
<text text-anchor="middle" x="1028.6099" y="-6.5" font-family="Helvetica,sans-Serif" font-size="10.00" fill="#000000">Epetra_Map.h</text>
</g>
<!-- Node4&#45;&gt;Node16 -->
<g id="edge16" class="edge">
<title>Node4&#45;&gt;Node16</title>
<path fill="none" stroke="#191970" d="M1084.5462,-55.4179C1074.6166,-47.2667 1059.8198,-35.1201 1047.9387,-25.3669"/>
<polygon fill="#191970" stroke="#191970" points="1049.864,-22.4192 1039.9139,-18.7795 1045.4225,-27.8297 1049.864,-22.4192"/>
</g>
<!-- Node17 -->
<g id="node18" class="node">
<title>Node17</title>
<polygon fill="#ffffff" stroke="#bfbfbf" points="1810.0806,-.5 1810.0806,-18.5 1951.1392,-18.5 1951.1392,-.5 1810.0806,-.5"/>
<text text-anchor="middle" x="1880.6099" y="-6.5" font-family="Helvetica,sans-Serif" font-size="10.00" fill="#000000">Epetra_SerialDenseMatrix.h</text>
</g>
<!-- Node4&#45;&gt;Node17 -->
<g id="edge17" class="edge">
<title>Node4&#45;&gt;Node17</title>
<path fill="none" stroke="#191970" d="M1131.2948,-62.8993C1233.6553,-58.1592 1537.2365,-43.0626 1799.8842,-19.116"/>
<polygon fill="#191970" stroke="#191970" points="1800.3571,-22.5874 1809.9952,-18.1878 1799.7171,-15.6167 1800.3571,-22.5874"/>
</g>
<!-- Node18 -->
<g id="node19" class="node">
<title>Node18</title>
<polygon fill="#ffffff" stroke="#bfbfbf" points="1650.7876,-.5 1650.7876,-18.5 1792.4321,-18.5 1792.4321,-.5 1650.7876,-.5"/>
<text text-anchor="middle" x="1721.6099" y="-6.5" font-family="Helvetica,sans-Serif" font-size="10.00" fill="#000000">Epetra_SerialDenseVector.h</text>
</g>
<!-- Node4&#45;&gt;Node18 -->
<g id="edge18" class="edge">
<title>Node4&#45;&gt;Node18</title>
<path fill="none" stroke="#191970" d="M1131.4241,-61.9522C1217.2876,-55.7503 1441.8711,-38.9751 1640.488,-19.0826"/>
<polygon fill="#191970" stroke="#191970" points="1640.9249,-22.5564 1650.5241,-18.0725 1640.2238,-15.5916 1640.9249,-22.5564"/>
</g>
<!-- Node19 -->
<g id="node20" class="node">
<title>Node19</title>
<polygon fill="#ffffff" stroke="#bfbfbf" points="1086.2285,-.5 1086.2285,-18.5 1238.9912,-18.5 1238.9912,-.5 1086.2285,-.5"/>
<text text-anchor="middle" x="1162.6099" y="-6.5" font-family="Helvetica,sans-Serif" font-size="10.00" fill="#000000">Epetra_IntSerialDenseVector.h</text>
</g>
<!-- Node4&#45;&gt;Node19 -->
<g id="edge19" class="edge">
<title>Node4&#45;&gt;Node19</title>
<path fill="none" stroke="#191970" d="M1106.6736,-55.4179C1116.6031,-47.2667 1131.3999,-35.1201 1143.281,-25.3669"/>
<polygon fill="#191970" stroke="#191970" points="1145.7972,-27.8297 1151.3058,-18.7795 1141.3558,-22.4192 1145.7972,-27.8297"/>
</g>
<!-- Node20 -->
<g id="node21" class="node">
<title>Node20</title>
<polygon fill="#ffffff" stroke="#bfbfbf" points="1256.7578,-.5 1256.7578,-18.5 1344.4619,-18.5 1344.4619,-.5 1256.7578,-.5"/>
<text text-anchor="middle" x="1300.6099" y="-6.5" font-family="Helvetica,sans-Serif" font-size="10.00" fill="#000000">Epetra_Import.h</text>
</g>
<!-- Node4&#45;&gt;Node20 -->
<g id="edge20" class="edge">
<title>Node4&#45;&gt;Node20</title>
<path fill="none" stroke="#191970" d="M1129.4614,-55.4179C1164.4332,-46.0352 1219.1369,-31.3586 1257.2535,-21.1322"/>
<polygon fill="#191970" stroke="#191970" points="1258.2973,-24.476 1267.0487,-18.5042 1256.4833,-17.7151 1258.2973,-24.476"/>
</g>
<!-- Node21 -->
<g id="node22" class="node">
<title>Node21</title>
<polygon fill="#ffffff" stroke="#bfbfbf" points="1362.4771,-.5 1362.4771,-18.5 1450.7427,-18.5 1450.7427,-.5 1362.4771,-.5"/>
<text text-anchor="middle" x="1406.6099" y="-6.5" font-family="Helvetica,sans-Serif" font-size="10.00" fill="#000000">Epetra_Export.h</text>
</g>
<!-- Node4&#45;&gt;Node21 -->
<g id="edge21" class="edge">
<title>Node4&#45;&gt;Node21</title>
<path fill="none" stroke="#191970" d="M1131.5098,-58.2015C1179.4572,-49.7822 1267.3274,-34.3276 1352.2895,-19.2312"/>
<polygon fill="#191970" stroke="#191970" points="1353.132,-22.6364 1362.3651,-17.4402 1351.9069,-15.7445 1353.132,-22.6364"/>
</g>
<!-- Node22 -->
<g id="node23" class="node">
<title>Node22</title>
<polygon fill="#ffffff" stroke="#bfbfbf" points="0,-.5 0,-18.5 81.2197,-18.5 81.2197,-.5 0,-.5"/>
<text text-anchor="middle" x="40.6099" y="-6.5" font-family="Helvetica,sans-Serif" font-size="10.00" fill="#000000">Epetra_Time.h</text>
</g>
<!-- Node4&#45;&gt;Node22 -->
<g id="edge22" class="edge">
<title>Node4&#45;&gt;Node22</title>
<path fill="none" stroke="#191970" d="M1059.9445,-63.5879C906.7711,-59.5646 303.2877,-42.6018 91.5316,-19.0435"/>
<polygon fill="#191970" stroke="#191970" points="91.7817,-15.5493 81.4466,-17.8808 90.9799,-22.5032 91.7817,-15.5493"/>
</g>
<!-- Node23 -->
<g id="node24" class="node">
<title>Node23</title>
<polygon fill="#ffffff" stroke="#bfbfbf" points="98.9058,-.5 98.9058,-18.5 248.314,-18.5 248.314,-.5 98.9058,-.5"/>
<text text-anchor="middle" x="173.6099" y="-6.5" font-family="Helvetica,sans-Serif" font-size="10.00" fill="#000000">ml_MultiLevelPreconditioner.h</text>
</g>
<!-- Node4&#45;&gt;Node23 -->
<g id="edge23" class="edge">
<title>Node4&#45;&gt;Node23</title>
<path fill="none" stroke="#191970" d="M1060.0279,-63.3118C945.5134,-59.3304 576.0159,-45.2595 259.0025,-19.069"/>
<polygon fill="#191970" stroke="#191970" points="258.95,-15.5526 248.6943,-18.2115 258.3697,-22.5285 258.95,-15.5526"/>
</g>
<!-- Node24 -->
<g id="node25" class="node">
<title>Node24</title>
<polygon fill="#ffffff" stroke="#bfbfbf" points="266.5337,-.5 266.5337,-18.5 358.686,-18.5 358.686,-.5 266.5337,-.5"/>
<text text-anchor="middle" x="312.6099" y="-6.5" font-family="Helvetica,sans-Serif" font-size="10.00" fill="#000000">ml_epetra_utils.h</text>
</g>
<!-- Node4&#45;&gt;Node24 -->
<g id="edge24" class="edge">
<title>Node4&#45;&gt;Node24</title>
<path fill="none" stroke="#191970" d="M1059.9369,-63.6006C955.4399,-60.6834 640.8535,-49.8864 368.7668,-18.8741"/>
<polygon fill="#191970" stroke="#191970" points="369.0342,-15.3819 358.6995,-17.7151 368.2335,-22.3359 369.0342,-15.3819"/>
</g>
<!-- Node30 -->
<g id="node26" class="node">
<title>Node30</title>
<polygon fill="#ffffff" stroke="#bfbfbf" points="1468.5625,-.5 1468.5625,-18.5 1566.6572,-18.5 1566.6572,-.5 1468.5625,-.5"/>
<text text-anchor="middle" x="1517.6099" y="-6.5" font-family="Helvetica,sans-Serif" font-size="10.00" fill="#000000">Teuchos_RCP.hpp</text>
</g>
<!-- Node4&#45;&gt;Node30 -->
<g id="edge25" class="edge">
<title>Node4&#45;&gt;Node30</title>
<path fill="none" stroke="#191970" d="M1131.3205,-60.4923C1194.8793,-53.2606 1332.0486,-37.2083 1458.0574,-19.1814"/>
<polygon fill="#191970" stroke="#191970" points="1458.8688,-22.6008 1468.2686,-17.7126 1457.8721,-15.6721 1458.8688,-22.6008"/>
</g>
<!-- Node36&#45;&gt;Node4 -->
<g id="edge27" class="edge">
<title>Node36&#45;&gt;Node4</title>
<path fill="none" stroke="#191970" d="M998.5775,-295.4294C998.974,-277.4959 996.6962,-246.81 978.6099,-230 903.6169,-160.2991 696.3943,-247.066 757.6099,-165 792.836,-117.7757 966.1542,-84.7524 1050.0048,-71.2707"/>
<polygon fill="#191970" stroke="#191970" points="1050.6837,-74.7069 1060.0133,-69.6862 1049.589,-67.793 1050.6837,-74.7069"/>
</g>
<!-- Node36&#45;&gt;Node37 -->
<g id="edge28" class="edge">
<title>Node36&#45;&gt;Node37</title>
<path fill="none" stroke="#191970" d="M929.9495,-296.4129C880.2287,-286.7596 810.7493,-273.1952 740.8117,-259.2323"/>
<polygon fill="#191970" stroke="#191970" points="741.4342,-255.7876 730.9421,-257.2598 740.0622,-262.6518 741.4342,-255.7876"/>
</g>
<!-- Node36&#45;&gt;Node38 -->
<g id="edge29" class="edge">
<title>Node36&#45;&gt;Node38</title>
<path fill="none" stroke="#191970" d="M1016.0536,-295.396C1027.7491,-286.4524 1043.0686,-274.7375 1056.0614,-264.8018"/>
<polygon fill="#191970" stroke="#191970" points="1058.3846,-267.4313 1064.2021,-258.5765 1054.1324,-261.8708 1058.3846,-267.4313"/>
</g>
<!-- Node39 -->
<g id="node30" class="node">
<title>Node39</title>
<polygon fill="#ffffff" stroke="#bfbfbf" points="869.9204,-230.5 869.9204,-258.5 969.2993,-258.5 969.2993,-230.5 869.9204,-230.5"/>
<text text-anchor="start" x="877.9204" y="-246.5" font-family="Helvetica,sans-Serif" font-size="10.00" fill="#000000">boost/math/special</text>
<text text-anchor="middle" x="919.6099" y="-236.5" font-family="Helvetica,sans-Serif" font-size="10.00" fill="#000000">_functions/erf.hpp</text>
</g>
<!-- Node36&#45;&gt;Node39 -->
<g id="edge30" class="edge">
<title>Node36&#45;&gt;Node39</title>
<path fill="none" stroke="#191970" d="M980.685,-295.396C970.0549,-286.5375 956.1623,-274.9604 944.3132,-265.0861"/>
<polygon fill="#191970" stroke="#191970" points="946.4246,-262.2896 936.5017,-258.5765 941.9432,-267.6672 946.4246,-262.2896"/>
</g>
<!-- Node36&#45;&gt;Node40 -->
<g id="edge31" class="edge">
<title>Node36&#45;&gt;Node40</title>
<path fill="none" stroke="#191970" d="M1043.997,-295.476C1076.9453,-285.5149 1121.3631,-272.0862 1156.3383,-261.5123"/>
<polygon fill="#191970" stroke="#191970" points="1157.3761,-264.8551 1165.9353,-258.6109 1155.3503,-258.1546 1157.3761,-264.8551"/>
</g>
<!-- Node36&#45;&gt;Node41 -->
<g id="edge32" class="edge">
<title>Node36&#45;&gt;Node41</title>
<path fill="none" stroke="#191970" d="M1065.3737,-297.8404C1119.621,-288.3672 1197.9086,-274.3855 1275.6861,-259.1486"/>
<polygon fill="#191970" stroke="#191970" points="1276.5243,-262.5509 1285.661,-257.1869 1275.1735,-255.6824 1276.5243,-262.5509"/>
</g>
<!-- Node42 -->
<g id="node33" class="node">
<title>Node42</title>
<polygon fill="#ffffff" stroke="#bfbfbf" points="748.9648,-230.5 748.9648,-258.5 852.2549,-258.5 852.2549,-230.5 748.9648,-230.5"/>
<text text-anchor="start" x="756.9648" y="-246.5" font-family="Helvetica,sans-Serif" font-size="10.00" fill="#000000">boost/math/special</text>
<text text-anchor="middle" x="800.6099" y="-236.5" font-family="Helvetica,sans-Serif" font-size="10.00" fill="#000000">_functions/beta.hpp</text>
</g>
<!-- Node36&#45;&gt;Node42 -->
<g id="edge33" class="edge">
<title>Node36&#45;&gt;Node42</title>
<path fill="none" stroke="#191970" d="M954.8638,-295.396C924.9181,-285.5154 884.7213,-272.2525 852.8692,-261.7429"/>
<polygon fill="#191970" stroke="#191970" points="853.8656,-258.3862 843.2725,-258.5765 851.6722,-265.0337 853.8656,-258.3862"/>
</g>
<!-- Node44 -->
<g id="node35" class="node">
<title>Node44</title>
<g id="a_node35"><a xlink:href="../../d2/d34/hyperelasticity_8hpp.html" target="_top" xlink:title="hyperelasticity.hpp">
<polygon fill="#ffffff" stroke="#000000" points="415.5674,-235.5 415.5674,-253.5 513.6523,-253.5 513.6523,-235.5 415.5674,-235.5"/>
<text text-anchor="middle" x="464.6099" y="-241.5" font-family="Helvetica,sans-Serif" font-size="10.00" fill="#000000">hyperelasticity.hpp</text>
</a>
</g>
</g>
<!-- Node43&#45;&gt;Node44 -->
<g id="edge35" class="edge">
<title>Node43&#45;&gt;Node44</title>
<path fill="none" stroke="#191970" d="M468.9146,-300.462C468.1915,-291.061 467.0369,-276.0518 466.1055,-263.943"/>
<polygon fill="#191970" stroke="#191970" points="469.5883,-263.5842 465.3316,-253.8821 462.6089,-264.1212 469.5883,-263.5842"/>
</g>
<!-- Node45 -->
<g id="node36" class="node">
<title>Node45</title>
<g id="a_node36"><a xlink:href="../../da/da3/non_linear_finite_element_problem_8hpp.html" target="_top" xlink:title="nonLinearFiniteElementProblem.hpp">
<polygon fill="#ffffff" stroke="#000000" points="372.4502,-170.5 372.4502,-188.5 550.7695,-188.5 550.7695,-170.5 372.4502,-170.5"/>
<text text-anchor="middle" x="461.6099" y="-176.5" font-family="Helvetica,sans-Serif" font-size="10.00" fill="#000000">nonLinearFiniteElementProblem.hpp</text>
</a>
</g>
</g>
<!-- Node44&#45;&gt;Node45 -->
<g id="edge36" class="edge">
<title>Node44&#45;&gt;Node45</title>
<path fill="none" stroke="#191970" d="M464.1927,-235.462C463.7588,-226.061 463.0661,-211.0518 462.5072,-198.943"/>
<polygon fill="#191970" stroke="#191970" points="466.0003,-198.7101 462.0429,-188.8821 459.0077,-199.0329 466.0003,-198.7101"/>
</g>
<!-- Node45&#45;&gt;Node4 -->
<g id="edge37" class="edge">
<title>Node45&#45;&gt;Node4</title>
<path fill="none" stroke="#191970" d="M460.326,-170.1488C458.8286,-154.9688 458.4382,-125.141 475.6099,-110 497.0849,-91.0646 909.0329,-72.255 1049.3002,-66.3755"/>
<polygon fill="#191970" stroke="#191970" points="1049.8524,-69.8556 1059.6981,-65.9425 1049.5611,-62.8617 1049.8524,-69.8556"/>
</g>
<!-- Node46 -->
<g id="node37" class="node">
<title>Node46</title>
<g id="a_node37"><a xlink:href="../../dd/d80/base_class_f_e_m_8hpp.html" target="_top" xlink:title="baseClassFEM.hpp">
<polygon fill="#ffffff" stroke="#000000" points="484.9795,-110.5 484.9795,-128.5 588.2402,-128.5 588.2402,-110.5 484.9795,-110.5"/>
<text text-anchor="middle" x="536.6099" y="-116.5" font-family="Helvetica,sans-Serif" font-size="10.00" fill="#000000">baseClassFEM.hpp</text>
</a>
</g>
</g>
<!-- Node45&#45;&gt;Node46 -->
<g id="edge38" class="edge">
<title>Node45&#45;&gt;Node46</title>
<path fill="none" stroke="#191970" d="M473.0007,-170.3873C484.6745,-161.0483 503.0497,-146.3481 517.0551,-135.1438"/>
<polygon fill="#191970" stroke="#191970" points="519.4895,-137.6785 525.1118,-128.6985 515.1166,-132.2124 519.4895,-137.6785"/>
</g>
<!-- Node46&#45;&gt;Node4 -->
<g id="edge39" class="edge">
<title>Node46&#45;&gt;Node4</title>
<path fill="none" stroke="#191970" d="M588.4927,-111.1909C591.5748,-110.7685 594.6314,-110.3676 597.6099,-110 763.6215,-89.5099 961.8268,-74.0897 1049.7349,-67.7142"/>
<polygon fill="#191970" stroke="#191970" points="1050.1765,-71.1915 1059.8991,-66.9818 1049.6733,-64.2096 1050.1765,-71.1915"/>
</g>
<!-- Node47&#45;&gt;Node30 -->
<g id="edge42" class="edge">
<title>Node47&#45;&gt;Node30</title>
<path fill="none" stroke="#191970" d="M1532.6807,-241.344C1633.9482,-234.8787 1843.9841,-218.6311 1865.6099,-194 1912.1732,-140.9658 1657.4111,-53.5087 1556.9658,-21.6167"/>
<polygon fill="#191970" stroke="#191970" points="1557.7711,-18.2008 1547.1814,-18.5311 1555.6657,-24.8767 1557.7711,-18.2008"/>
</g>
<!-- Node47&#45;&gt;Node45 -->
<g id="edge41" class="edge">
<title>Node47&#45;&gt;Node45</title>
<path fill="none" stroke="#191970" d="M1442.4891,-235.4506C1432.838,-233.3389 1422.3752,-231.323 1412.6099,-230 1371.0138,-224.3647 796.8103,-195.8839 561.3036,-184.3551"/>
<polygon fill="#191970" stroke="#191970" points="561.1869,-180.8453 551.0278,-183.8523 560.8447,-187.8369 561.1869,-180.8453"/>
</g>
<!-- Node48 -->
<g id="node39" class="node">
<title>Node48</title>
<polygon fill="#ffffff" stroke="#bfbfbf" points="1913.1001,-170.5 1913.1001,-188.5 1964.1196,-188.5 1964.1196,-170.5 1913.1001,-170.5"/>
<text text-anchor="middle" x="1938.6099" y="-176.5" font-family="Helvetica,sans-Serif" font-size="10.00" fill="#000000">Ifpack.h</text>
</g>
<!-- Node47&#45;&gt;Node48 -->
<g id="edge43" class="edge">
<title>Node47&#45;&gt;Node48</title>
<path fill="none" stroke="#191970" d="M1532.6705,-241.944C1613.3158,-237.2485 1769.4727,-224.7431 1898.6099,-194 1901.2798,-193.3644 1904.0174,-192.6078 1906.7467,-191.7788"/>
<polygon fill="#191970" stroke="#191970" points="1908.0764,-195.025 1916.4591,-188.5458 1905.8655,-188.3833 1908.0764,-195.025"/>
</g>
<!-- Node49 -->
<g id="node40" class="node">
<title>Node49</title>
<polygon fill="#ffffff" stroke="#bfbfbf" points="1982.3589,-170.5 1982.3589,-188.5 2112.8608,-188.5 2112.8608,-170.5 1982.3589,-170.5"/>
<text text-anchor="middle" x="2047.6099" y="-176.5" font-family="Helvetica,sans-Serif" font-size="10.00" fill="#000000">Ifpack_AdditiveSchwarz.h</text>
</g>
<!-- Node47&#45;&gt;Node49 -->
<g id="edge44" class="edge">
<title>Node47&#45;&gt;Node49</title>
<path fill="none" stroke="#191970" d="M1532.6488,-240.6208C1623.8626,-233.7078 1814.0422,-217.7217 1973.6099,-194 1980.4831,-192.9782 1987.6873,-191.7568 1994.7898,-190.4625"/>
<polygon fill="#191970" stroke="#191970" points="1995.8917,-193.8167 2005.0726,-188.5287 1994.598,-186.9373 1995.8917,-193.8167"/>
</g>
<!-- Node50 -->
<g id="node41" class="node">
<title>Node50</title>
<polygon fill="#ffffff" stroke="#bfbfbf" points="2130.854,-170.5 2130.854,-188.5 2256.3657,-188.5 2256.3657,-170.5 2130.854,-170.5"/>
<text text-anchor="middle" x="2193.6099" y="-176.5" font-family="Helvetica,sans-Serif" font-size="10.00" fill="#000000">BelosLinearProblem.hpp</text>
</g>
<!-- Node47&#45;&gt;Node50 -->
<g id="edge45" class="edge">
<title>Node47&#45;&gt;Node50</title>
<path fill="none" stroke="#191970" d="M1532.6189,-242.4555C1643.4702,-237.7763 1904.518,-224.2729 2121.6099,-194 2128.4827,-193.0416 2135.6872,-191.8354 2142.7719,-190.5301"/>
<polygon fill="#191970" stroke="#191970" points="2143.8525,-193.8866 2153.0133,-188.564 2142.5328,-187.0121 2143.8525,-193.8866"/>
</g>
<!-- Node51 -->
<g id="node42" class="node">
<title>Node51</title>
<polygon fill="#ffffff" stroke="#bfbfbf" points="766.5806,-170.5 766.5806,-188.5 912.6392,-188.5 912.6392,-170.5 766.5806,-170.5"/>
<text text-anchor="middle" x="839.6099" y="-176.5" font-family="Helvetica,sans-Serif" font-size="10.00" fill="#000000">BelosBlockGmresSolMgr.hpp</text>
</g>
<!-- Node47&#45;&gt;Node51 -->
<g id="edge46" class="edge">
<title>Node47&#45;&gt;Node51</title>
<path fill="none" stroke="#191970" d="M1441.7797,-235.4329C1432.3218,-233.3737 1422.1292,-231.3874 1412.6099,-230 1196.0894,-198.4434 1138.735,-221.0854 921.6099,-194 913.2579,-192.9581 904.4638,-191.6402 895.8606,-190.2257"/>
<polygon fill="#191970" stroke="#191970" points="896.3317,-186.7557 885.8868,-188.5316 895.1595,-193.6568 896.3317,-186.7557"/>
</g>
<!-- Node52 -->
<g id="node43" class="node">
<title>Node52</title>
<polygon fill="#ffffff" stroke="#bfbfbf" points="930.4009,-170.5 930.4009,-188.5 1054.8188,-188.5 1054.8188,-170.5 930.4009,-170.5"/>
<text text-anchor="middle" x="992.6099" y="-176.5" font-family="Helvetica,sans-Serif" font-size="10.00" fill="#000000">BelosEpetraAdapter.hpp</text>
</g>
<!-- Node47&#45;&gt;Node52 -->
<g id="edge47" class="edge">
<title>Node47&#45;&gt;Node52</title>
<path fill="none" stroke="#191970" d="M1441.0565,-235.477C1431.7961,-233.4659 1421.876,-231.4908 1412.6099,-230 1258.6556,-205.23 1217.7432,-217.6296 1063.6099,-194 1057.0093,-192.9881 1050.0937,-191.7725 1043.2773,-190.4811"/>
<polygon fill="#191970" stroke="#191970" points="1043.896,-187.0359 1033.4099,-188.5498 1042.5514,-193.9055 1043.896,-187.0359"/>
</g>
<!-- Node53 -->
<g id="node44" class="node">
<title>Node53</title>
<polygon fill="#ffffff" stroke="#bfbfbf" points="1072.8975,-170.5 1072.8975,-188.5 1194.3223,-188.5 1194.3223,-170.5 1072.8975,-170.5"/>
<text text-anchor="middle" x="1133.6099" y="-176.5" font-family="Helvetica,sans-Serif" font-size="10.00" fill="#000000">BelosSolverFactory.hpp</text>
</g>
<!-- Node47&#45;&gt;Node53 -->
<g id="edge48" class="edge">
<title>Node47&#45;&gt;Node53</title>
<path fill="none" stroke="#191970" d="M1438.884,-235.4645C1430.2383,-233.5842 1421.1294,-231.6687 1412.6099,-230 1320.1107,-211.8825 1296.2162,-211.5619 1203.6099,-194 1197.9075,-192.9186 1191.9526,-191.7484 1186.0276,-190.558"/>
<polygon fill="#191970" stroke="#191970" points="1186.6313,-187.1092 1176.1345,-188.5475 1185.2372,-193.969 1186.6313,-187.1092"/>
</g>
<!-- Node54 -->
<g id="node45" class="node">
<title>Node54</title>
<polygon fill="#ffffff" stroke="#bfbfbf" points="1212.7285,-170.5 1212.7285,-188.5 1390.4912,-188.5 1390.4912,-170.5 1212.7285,-170.5"/>
<text text-anchor="middle" x="1301.6099" y="-176.5" font-family="Helvetica,sans-Serif" font-size="10.00" fill="#000000">Teuchos_StandardCatchMacros.hpp</text>
</g>
<!-- Node47&#45;&gt;Node54 -->
<g id="edge49" class="edge">
<title>Node47&#45;&gt;Node54</title>
<path fill="none" stroke="#191970" d="M1453.9988,-235.462C1423.3071,-224.1911 1370.6644,-204.859 1335.9985,-192.1286"/>
<polygon fill="#191970" stroke="#191970" points="1336.8902,-188.7276 1326.2966,-188.5658 1334.4771,-195.2985 1336.8902,-188.7276"/>
</g>
<!-- Node55 -->
<g id="node46" class="node">
<title>Node55</title>
<polygon fill="#ffffff" stroke="#bfbfbf" points="1408.3516,-170.5 1408.3516,-188.5 1548.8682,-188.5 1548.8682,-170.5 1408.3516,-170.5"/>
<text text-anchor="middle" x="1478.6099" y="-176.5" font-family="Helvetica,sans-Serif" font-size="10.00" fill="#000000">Teuchos_ParameterList.hpp</text>
</g>
<!-- Node47&#45;&gt;Node55 -->
<g id="edge50" class="edge">
<title>Node47&#45;&gt;Node55</title>
<path fill="none" stroke="#191970" d="M1478.6099,-235.462C1478.6099,-226.061 1478.6099,-211.0518 1478.6099,-198.943"/>
<polygon fill="#191970" stroke="#191970" points="1482.11,-198.8821 1478.6099,-188.8821 1475.11,-198.8822 1482.11,-198.8821"/>
</g>
<!-- Node56 -->
<g id="node47" class="node">
<title>Node56</title>
<polygon fill="#ffffff" stroke="#bfbfbf" points="1566.8022,-165.5 1566.8022,-193.5 1708.4175,-193.5 1708.4175,-165.5 1566.8022,-165.5"/>
<text text-anchor="start" x="1574.8022" y="-181.5" font-family="Helvetica,sans-Serif" font-size="10.00" fill="#000000">Teuchos_XMLParameterList</text>
<text text-anchor="middle" x="1637.6099" y="-171.5" font-family="Helvetica,sans-Serif" font-size="10.00" fill="#000000">CoreHelpers.hpp</text>
</g>
<!-- Node47&#45;&gt;Node56 -->
<g id="edge51" class="edge">
<title>Node47&#45;&gt;Node56</title>
<path fill="none" stroke="#191970" d="M1500.7181,-235.462C1524.6641,-225.6728 1563.485,-209.8026 1593.681,-197.4583"/>
<polygon fill="#191970" stroke="#191970" points="1595.2201,-200.6104 1603.1521,-193.5865 1592.5712,-194.1309 1595.2201,-200.6104"/>
</g>
<!-- Node57 -->
<g id="node48" class="node">
<title>Node57</title>
<polygon fill="#ffffff" stroke="#bfbfbf" points="1726.3613,-165.5 1726.3613,-193.5 1856.8584,-193.5 1856.8584,-165.5 1726.3613,-165.5"/>
<text text-anchor="start" x="1734.3613" y="-181.5" font-family="Helvetica,sans-Serif" font-size="10.00" fill="#000000">Stratimikos_DefaultLinear</text>
<text text-anchor="middle" x="1791.6099" y="-171.5" font-family="Helvetica,sans-Serif" font-size="10.00" fill="#000000">SolverBuilder.hpp</text>
</g>
<!-- Node47&#45;&gt;Node57 -->
<g id="edge52" class="edge">
<title>Node47&#45;&gt;Node57</title>
<path fill="none" stroke="#191970" d="M1522.1312,-235.462C1572.2534,-225.0533 1655.4811,-207.7696 1716.2034,-195.1595"/>
<polygon fill="#191970" stroke="#191970" points="1717.0464,-198.5592 1726.1259,-193.0989 1715.6231,-191.7054 1717.0464,-198.5592"/>
</g>
<!-- Node58&#45;&gt;Node4 -->
<g id="edge70" class="edge">
<title>Node58&#45;&gt;Node4</title>
<path fill="none" stroke="#191970" d="M2049.1802,-116.5818C1872.2258,-106.917 1307.1521,-76.0539 1141.6006,-67.0119"/>
<polygon fill="#191970" stroke="#191970" points="1141.4582,-63.499 1131.2821,-66.4483 1141.0764,-70.4886 1141.4582,-63.499"/>
</g>
<!-- Node58&#45;&gt;Node5 -->
<g id="edge54" class="edge">
<title>Node58&#45;&gt;Node5</title>
<path fill="none" stroke="#191970" d="M2106.2086,-110.2573C2109.561,-101.1813 2114.3686,-86.8646 2116.6099,-74 2119.2289,-58.9668 2119.9109,-41.684 2119.9753,-28.7945"/>
<polygon fill="#191970" stroke="#191970" points="2123.4752,-28.7409 2119.9061,-18.7653 2116.4753,-28.7893 2123.4752,-28.7409"/>
</g>
<!-- Node58&#45;&gt;Node6 -->
<g id="edge55" class="edge">
<title>Node58&#45;&gt;Node6</title>
<path fill="none" stroke="#191970" d="M2109.5658,-110.4982C2123.6992,-92.2079 2155.9818,-50.4304 2174.2916,-26.7354"/>
<polygon fill="#191970" stroke="#191970" points="2177.2128,-28.6791 2180.5578,-18.6261 2171.6738,-24.3989 2177.2128,-28.6791"/>
</g>
<!-- Node58&#45;&gt;Node7 -->
<g id="edge56" class="edge">
<title>Node58&#45;&gt;Node7</title>
<path fill="none" stroke="#191970" d="M2065.0511,-110.4816C2032.1179,-102.1975 1983.1474,-88.9624 1941.6099,-74 1921.9527,-66.9192 1918.7035,-60.7262 1898.6099,-55 1790.83,-24.2851 1756.3664,-41.943 1643.127,-19.0505"/>
<polygon fill="#191970" stroke="#191970" points="1643.5251,-15.5583 1633.0212,-16.9433 1642.0962,-22.4109 1643.5251,-15.5583"/>
</g>
<!-- Node58&#45;&gt;Node8 -->
<g id="edge57" class="edge">
<title>Node58&#45;&gt;Node8</title>
<path fill="none" stroke="#191970" d="M2095.211,-110.4109C2084.657,-97.6168 2064.4652,-73.7629 2045.6099,-55 2035.1138,-44.5554 2022.6499,-33.6046 2012.5562,-25.064"/>
<polygon fill="#191970" stroke="#191970" points="2014.647,-22.25 2004.7301,-18.5209 2010.157,-27.6203 2014.647,-22.25"/>
</g>
<!-- Node58&#45;&gt;Node9 -->
<g id="edge58" class="edge">
<title>Node58&#45;&gt;Node9</title>
<path fill="none" stroke="#191970" d="M2099.4102,-110.2282C2095.0027,-97.6205 2086.6885,-74.4147 2078.6099,-55 2074.8555,-45.9773 2070.3527,-36.1125 2066.4811,-27.8818"/>
<polygon fill="#191970" stroke="#191970" points="2069.6245,-26.342 2062.1644,-18.8189 2063.3047,-29.3522 2069.6245,-26.342"/>
</g>
<!-- Node58&#45;&gt;Node10 -->
<g id="edge59" class="edge">
<title>Node58&#45;&gt;Node10</title>
<path fill="none" stroke="#191970" d="M2115.376,-110.4982C2142.1149,-91.6439 2204.2488,-47.8315 2237.2007,-24.5962"/>
<polygon fill="#191970" stroke="#191970" points="2239.5117,-27.2493 2245.6673,-18.6261 2235.4778,-21.5285 2239.5117,-27.2493"/>
</g>
<!-- Node59 -->
<g id="node50" class="node">
<title>Node59</title>
<g id="a_node50"><a xlink:href="../../d2/d81/readnrldata_8hpp.html" target="_top" xlink:title="readnrldata.hpp">
<polygon fill="#ffffff" stroke="#000000" points="1950.583,-55.5 1950.583,-73.5 2036.6367,-73.5 2036.6367,-55.5 1950.583,-55.5"/>
<text text-anchor="middle" x="1993.6099" y="-61.5" font-family="Helvetica,sans-Serif" font-size="10.00" fill="#000000">readnrldata.hpp</text>
</a>
</g>
</g>
<!-- Node58&#45;&gt;Node59 -->
<g id="edge60" class="edge">
<title>Node58&#45;&gt;Node59</title>
<path fill="none" stroke="#191970" d="M2084.6107,-110.4179C2067.2548,-101.6603 2040.7588,-88.2907 2020.8253,-78.2326"/>
<polygon fill="#191970" stroke="#191970" points="2022.1403,-74.9758 2011.6357,-73.5956 2018.9869,-81.2253 2022.1403,-74.9758"/>
</g>
<!-- Node59&#45;&gt;Node5 -->
<g id="edge61" class="edge">
<title>Node59&#45;&gt;Node5</title>
<path fill="none" stroke="#191970" d="M2014.4162,-55.4179C2034.8438,-46.5011 2066.2247,-32.803 2089.3991,-22.6873"/>
<polygon fill="#191970" stroke="#191970" points="2091.0079,-25.804 2098.7726,-18.5956 2088.2075,-19.3885 2091.0079,-25.804"/>
</g>
<!-- Node59&#45;&gt;Node6 -->
<g id="edge62" class="edge">
<title>Node59&#45;&gt;Node6</title>
<path fill="none" stroke="#191970" d="M2025.645,-55.4179C2059.9766,-45.6847 2114.4026,-30.2546 2150.5551,-20.0052"/>
<polygon fill="#191970" stroke="#191970" points="2151.5693,-23.3557 2160.2355,-17.2608 2149.66,-16.6211 2151.5693,-23.3557"/>
</g>
<!-- Node59&#45;&gt;Node7 -->
<g id="edge63" class="edge">
<title>Node59&#45;&gt;Node7</title>
<path fill="none" stroke="#191970" d="M1950.3808,-57.0913C1945.7368,-56.3563 1941.0781,-55.6447 1936.6099,-55 1809.0714,-36.5988 1772.7964,-44.92 1642.9387,-19.0035"/>
<polygon fill="#191970" stroke="#191970" points="1643.5068,-15.5475 1633.0109,-16.9925 1642.117,-22.4082 1643.5068,-15.5475"/>
</g>
<!-- Node59&#45;&gt;Node8 -->
<g id="edge64" class="edge">
<title>Node59&#45;&gt;Node8</title>
<path fill="none" stroke="#191970" d="M1993.6099,-55.4179C1993.6099,-48.2164 1993.6099,-37.8962 1993.6099,-28.8632"/>
<polygon fill="#191970" stroke="#191970" points="1997.11,-28.7794 1993.6099,-18.7795 1990.11,-28.7795 1997.11,-28.7794"/>
</g>
<!-- Node59&#45;&gt;Node9 -->
<g id="edge65" class="edge">
<title>Node59&#45;&gt;Node9</title>
<path fill="none" stroke="#191970" d="M2004.1782,-55.4179C2013.6631,-47.2667 2027.7973,-35.1201 2039.1465,-25.3669"/>
<polygon fill="#191970" stroke="#191970" points="2041.5089,-27.9516 2046.812,-18.7795 2036.9465,-22.6427 2041.5089,-27.9516"/>
</g>
<!-- Node59&#45;&gt;Node10 -->
<g id="edge66" class="edge">
<title>Node59&#45;&gt;Node10</title>
<path fill="none" stroke="#191970" d="M2037.0417,-56.8416C2081.3468,-48.8215 2152.2799,-35.4106 2223.0638,-18.9951"/>
<polygon fill="#191970" stroke="#191970" points="2224.1083,-22.3454 2233.0479,-16.6592 2222.5135,-15.5294 2224.1083,-22.3454"/>
</g>
<!-- Node59&#45;&gt;Node17 -->
<g id="edge69" class="edge">
<title>Node59&#45;&gt;Node17</title>
<path fill="none" stroke="#191970" d="M1974.9502,-55.4179C1956.8756,-46.6205 1929.2391,-33.1691 1908.5426,-23.0956"/>
<polygon fill="#191970" stroke="#191970" points="1909.8205,-19.825 1899.2972,-18.5956 1906.757,-26.1191 1909.8205,-19.825"/>
</g>
<!-- Node59&#45;&gt;Node18 -->
<g id="edge68" class="edge">
<title>Node59&#45;&gt;Node18</title>
<path fill="none" stroke="#191970" d="M1950.5107,-55.7851C1903.3243,-46.2437 1827.5572,-30.9232 1776.2378,-20.5461"/>
<polygon fill="#191970" stroke="#191970" points="1776.811,-17.0912 1766.3157,-18.5398 1775.4236,-23.9524 1776.811,-17.0912"/>
</g>
<!-- Node59&#45;&gt;Node30 -->
<g id="edge67" class="edge">
<title>Node59&#45;&gt;Node30</title>
<path fill="none" stroke="#191970" d="M1950.338,-60.0894C1862.2214,-51.0606 1663.6349,-30.4606 1576.9458,-19.104"/>
<polygon fill="#191970" stroke="#191970" points="1577.3194,-15.6229 1566.9437,-17.7663 1576.3914,-22.5611 1577.3194,-15.6229"/>
</g>
</g>
</svg>
