<?xml version="1.0" encoding="UTF-8" standalone="no"?>
<!DOCTYPE svg PUBLIC "-//W3C//DTD SVG 1.1//EN"
 "http://www.w3.org/Graphics/SVG/1.1/DTD/svg11.dtd">
<!-- Generated by graphviz version 2.40.1 (20161225.0304)
 -->
<!-- Title: asme/linearelaslam/main.cpp Pages: 1 -->
<!--zoomable 277 -->
<svg id="main" version="1.1" xmlns="http://www.w3.org/2000/svg" xmlns:xlink="http://www.w3.org/1999/xlink" xml:space="preserve" onload="init(evt)">
<style type="text/css"><![CDATA[
.edge:hover path { stroke: red; }
.edge:hover polygon { stroke: red; fill: red; }
]]></style>
<script type="text/javascript"><![CDATA[
var edges = document.getElementsByTagName('g');
if (edges && edges.length) {
  for (var i=0;i<edges.length;i++) {
    if (edges[i].id.substr(0,4)=='edge') {
      edges[i].setAttribute('class','edge');
    }
  }
}
]]></script>
        <defs>
                <circle id="rim" cx="0" cy="0" r="7"/>
                <circle id="rim2" cx="0" cy="0" r="3.5"/>
                <g id="zoomPlus">
                        <use xlink:href="#rim" fill="#404040">
                                <set attributeName="fill" to="#808080" begin="zoomplus.mouseover" end="zoomplus.mouseout"/>
                        </use>
                        <path d="M-4,0h8M0,-4v8" fill="none" stroke="white" stroke-width="1.5" pointer-events="none"/>
                </g>
                <g id="zoomMin">
                        <use xlink:href="#rim" fill="#404040">
                                <set attributeName="fill" to="#808080" begin="zoomminus.mouseover" end="zoomminus.mouseout"/>
                        </use>
                        <path d="M-4,0h8" fill="none" stroke="white" stroke-width="1.5" pointer-events="none"/>
                </g>
                <g id="dirArrow">
                        <path fill="none" stroke="white" stroke-width="1.5" d="M0,-3.0v7 M-2.5,-0.5L0,-3.0L2.5,-0.5"/>
                </g>
               <g id="resetDef">
                       <use xlink:href="#rim2" fill="#404040">
                               <set attributeName="fill" to="#808080" begin="reset.mouseover" end="reset.mouseout"/>
                       </use>
               </g>
        </defs>

<script type="text/javascript">
var viewWidth = 3078;
var viewHeight = 277;
var sectionId = 'dynsection-0';
</script>
<script xlink:href="../../svgpan.js"/>
<svg id="graph" class="graph">
<g id="viewport">
<title>asme/linearelaslam/main.cpp</title>
<polygon fill="#ffffff" stroke="transparent" points="-4,4 -4,-273 3073.6694,-273 3073.6694,4 -4,4"/>
<!-- Node0 -->
<g id="node1" class="node">
<title>Node0</title>
<polygon fill="#bfbfbf" stroke="#000000" points="757.3423,-240.5 757.3423,-268.5 859.4897,-268.5 859.4897,-240.5 757.3423,-240.5"/>
<text text-anchor="start" x="765.3423" y="-256.5" font-family="Helvetica,sans-Serif" font-size="10.00" fill="#000000">asme/linearelaslam</text>
<text text-anchor="middle" x="808.416" y="-246.5" font-family="Helvetica,sans-Serif" font-size="10.00" fill="#000000">/main.cpp</text>
</g>
<!-- Node1 -->
<g id="node2" class="node">
<title>Node1</title>
<polygon fill="#ffffff" stroke="#bfbfbf" points="0,-180.5 0,-198.5 108.832,-198.5 108.832,-180.5 0,-180.5"/>
<text text-anchor="middle" x="54.416" y="-186.5" font-family="Helvetica,sans-Serif" font-size="10.00" fill="#000000">Epetra_ConfigDefs.h</text>
</g>
<!-- Node0&#45;&gt;Node1 -->
<g id="edge1" class="edge">
<title>Node0&#45;&gt;Node1</title>
<path fill="none" stroke="#191970" d="M757.0558,-253.3673C642.0717,-250.2585 355.4225,-239.3183 118.416,-204 112.4245,-203.1071 106.1608,-201.9597 99.9967,-200.7018"/>
<polygon fill="#191970" stroke="#191970" points="100.2945,-197.186 89.7822,-198.5063 98.8234,-204.0297 100.2945,-197.186"/>
</g>
<!-- Node2 -->
<g id="node3" class="node">
<title>Node2</title>
<polygon fill="#ffffff" stroke="#bfbfbf" points="127.229,-180.5 127.229,-198.5 241.603,-198.5 241.603,-180.5 127.229,-180.5"/>
<text text-anchor="middle" x="184.416" y="-186.5" font-family="Helvetica,sans-Serif" font-size="10.00" fill="#000000">Epetra_SerialComm.h</text>
</g>
<!-- Node0&#45;&gt;Node2 -->
<g id="edge2" class="edge">
<title>Node0&#45;&gt;Node2</title>
<path fill="none" stroke="#191970" d="M757.1111,-251.7124C659.184,-245.9722 439.0169,-231.0468 255.416,-204 248.726,-203.0145 241.7154,-201.8036 234.8136,-200.5054"/>
<polygon fill="#191970" stroke="#191970" points="235.315,-197.0373 224.8297,-198.557 233.9742,-203.9077 235.315,-197.0373"/>
</g>
<!-- Node3 -->
<g id="node4" class="node">
<title>Node3</title>
<polygon fill="#ffffff" stroke="#bfbfbf" points="242.3687,-.5 242.3687,-18.5 340.4634,-18.5 340.4634,-.5 242.3687,-.5"/>
<text text-anchor="middle" x="291.416" y="-6.5" font-family="Helvetica,sans-Serif" font-size="10.00" fill="#000000">Teuchos_RCP.hpp</text>
</g>
<!-- Node0&#45;&gt;Node3 -->
<g id="edge3" class="edge">
<title>Node0&#45;&gt;Node3</title>
<path fill="none" stroke="#191970" d="M757.0751,-253.3478C632.0153,-250.0124 319.5426,-238.2959 288.416,-204 243.812,-154.8544 269.4583,-66.5419 283.7826,-28.1593"/>
<polygon fill="#191970" stroke="#191970" points="287.0866,-29.3199 287.4548,-18.7315 280.564,-26.7792 287.0866,-29.3199"/>
</g>
<!-- Node4 -->
<g id="node5" class="node">
<title>Node4</title>
<polygon fill="#ffffff" stroke="#bfbfbf" points="297.9063,-180.5 297.9063,-198.5 348.9258,-198.5 348.9258,-180.5 297.9063,-180.5"/>
<text text-anchor="middle" x="323.416" y="-186.5" font-family="Helvetica,sans-Serif" font-size="10.00" fill="#000000">Ifpack.h</text>
</g>
<!-- Node0&#45;&gt;Node4 -->
<g id="edge4" class="edge">
<title>Node0&#45;&gt;Node4</title>
<path fill="none" stroke="#191970" d="M757.2997,-253.4124C672.9376,-250.5903 499.8225,-240.4473 358.416,-204 356.4575,-203.4952 354.4646,-202.9025 352.4736,-202.2502"/>
<polygon fill="#191970" stroke="#191970" points="353.2983,-198.823 342.7053,-198.6243 350.8624,-205.3855 353.2983,-198.823"/>
</g>
<!-- Node5 -->
<g id="node6" class="node">
<title>Node5</title>
<polygon fill="#ffffff" stroke="#bfbfbf" points="367.165,-180.5 367.165,-198.5 497.667,-198.5 497.667,-180.5 367.165,-180.5"/>
<text text-anchor="middle" x="432.416" y="-186.5" font-family="Helvetica,sans-Serif" font-size="10.00" fill="#000000">Ifpack_AdditiveSchwarz.h</text>
</g>
<!-- Node0&#45;&gt;Node5 -->
<g id="edge5" class="edge">
<title>Node0&#45;&gt;Node5</title>
<path fill="none" stroke="#191970" d="M757.3107,-246.3987C697.1926,-236.7657 594.4168,-219.9762 506.416,-204 500.2452,-202.8797 493.7925,-201.6709 487.3796,-200.446"/>
<polygon fill="#191970" stroke="#191970" points="487.8628,-196.9748 477.381,-198.5183 486.5375,-203.8482 487.8628,-196.9748"/>
</g>
<!-- Node6 -->
<g id="node7" class="node">
<title>Node6</title>
<polygon fill="#ffffff" stroke="#bfbfbf" points="515.6602,-180.5 515.6602,-198.5 641.1719,-198.5 641.1719,-180.5 515.6602,-180.5"/>
<text text-anchor="middle" x="578.416" y="-186.5" font-family="Helvetica,sans-Serif" font-size="10.00" fill="#000000">BelosLinearProblem.hpp</text>
</g>
<!-- Node0&#45;&gt;Node6 -->
<g id="edge6" class="edge">
<title>Node0&#45;&gt;Node6</title>
<path fill="none" stroke="#191970" d="M758.7926,-240.476C717.4548,-228.7936 659.2409,-212.3418 620.2378,-201.3192"/>
<polygon fill="#191970" stroke="#191970" points="620.8427,-197.8531 610.2677,-198.5016 618.9389,-204.5893 620.8427,-197.8531"/>
</g>
<!-- Node7 -->
<g id="node8" class="node">
<title>Node7</title>
<polygon fill="#ffffff" stroke="#bfbfbf" points="659.3867,-180.5 659.3867,-198.5 805.4453,-198.5 805.4453,-180.5 659.3867,-180.5"/>
<text text-anchor="middle" x="732.416" y="-186.5" font-family="Helvetica,sans-Serif" font-size="10.00" fill="#000000">BelosBlockGmresSolMgr.hpp</text>
</g>
<!-- Node0&#45;&gt;Node7 -->
<g id="edge7" class="edge">
<title>Node0&#45;&gt;Node7</title>
<path fill="none" stroke="#191970" d="M791.9251,-240.396C779.865,-230.0814 763.495,-216.0807 750.9768,-205.3743"/>
<polygon fill="#191970" stroke="#191970" points="752.9005,-202.4141 743.026,-198.5743 748.3507,-207.7339 752.9005,-202.4141"/>
</g>
<!-- Node8 -->
<g id="node9" class="node">
<title>Node8</title>
<polygon fill="#ffffff" stroke="#bfbfbf" points="823.207,-180.5 823.207,-198.5 947.625,-198.5 947.625,-180.5 823.207,-180.5"/>
<text text-anchor="middle" x="885.416" y="-186.5" font-family="Helvetica,sans-Serif" font-size="10.00" fill="#000000">BelosEpetraAdapter.hpp</text>
</g>
<!-- Node0&#45;&gt;Node8 -->
<g id="edge8" class="edge">
<title>Node0&#45;&gt;Node8</title>
<path fill="none" stroke="#191970" d="M825.1239,-240.396C837.4602,-229.9822 854.2475,-215.8111 866.9758,-205.0664"/>
<polygon fill="#191970" stroke="#191970" points="869.2827,-207.6994 874.6665,-198.5743 864.7673,-202.3504 869.2827,-207.6994"/>
</g>
<!-- Node9 -->
<g id="node10" class="node">
<title>Node9</title>
<polygon fill="#ffffff" stroke="#bfbfbf" points="965.7036,-180.5 965.7036,-198.5 1087.1284,-198.5 1087.1284,-180.5 965.7036,-180.5"/>
<text text-anchor="middle" x="1026.416" y="-186.5" font-family="Helvetica,sans-Serif" font-size="10.00" fill="#000000">BelosSolverFactory.hpp</text>
</g>
<!-- Node0&#45;&gt;Node9 -->
<g id="edge9" class="edge">
<title>Node0&#45;&gt;Node9</title>
<path fill="none" stroke="#191970" d="M855.4504,-240.476C894.4647,-228.8433 949.3388,-212.4817 986.3033,-201.4602"/>
<polygon fill="#191970" stroke="#191970" points="987.6432,-204.7131 996.2262,-198.5016 985.643,-198.0049 987.6432,-204.7131"/>
</g>
<!-- Node10 -->
<g id="node11" class="node">
<title>Node10</title>
<polygon fill="#ffffff" stroke="#bfbfbf" points="1105.5347,-180.5 1105.5347,-198.5 1283.2974,-198.5 1283.2974,-180.5 1105.5347,-180.5"/>
<text text-anchor="middle" x="1194.416" y="-186.5" font-family="Helvetica,sans-Serif" font-size="10.00" fill="#000000">Teuchos_StandardCatchMacros.hpp</text>
</g>
<!-- Node0&#45;&gt;Node10 -->
<g id="edge10" class="edge">
<title>Node0&#45;&gt;Node10</title>
<path fill="none" stroke="#191970" d="M859.6738,-245.8685C929.6424,-234.0862 1055.0031,-212.9763 1130.8631,-200.2019"/>
<polygon fill="#191970" stroke="#191970" points="1131.4922,-203.6453 1140.7721,-198.5333 1130.3297,-196.7425 1131.4922,-203.6453"/>
</g>
<!-- Node11 -->
<g id="node12" class="node">
<title>Node11</title>
<polygon fill="#ffffff" stroke="#bfbfbf" points="1301.1577,-180.5 1301.1577,-198.5 1441.6743,-198.5 1441.6743,-180.5 1301.1577,-180.5"/>
<text text-anchor="middle" x="1371.416" y="-186.5" font-family="Helvetica,sans-Serif" font-size="10.00" fill="#000000">Teuchos_ParameterList.hpp</text>
</g>
<!-- Node0&#45;&gt;Node11 -->
<g id="edge11" class="edge">
<title>Node0&#45;&gt;Node11</title>
<path fill="none" stroke="#191970" d="M859.7981,-250.4573C948.3696,-243.1943 1135.4107,-226.5649 1292.416,-204 1299.9018,-202.9241 1307.7614,-201.6534 1315.5005,-200.3185"/>
<polygon fill="#191970" stroke="#191970" points="1316.3263,-203.7268 1325.5635,-198.5378 1315.1065,-196.8339 1316.3263,-203.7268"/>
</g>
<!-- Node12 -->
<g id="node13" class="node">
<title>Node12</title>
<polygon fill="#ffffff" stroke="#bfbfbf" points="1459.6084,-175.5 1459.6084,-203.5 1601.2236,-203.5 1601.2236,-175.5 1459.6084,-175.5"/>
<text text-anchor="start" x="1467.6084" y="-191.5" font-family="Helvetica,sans-Serif" font-size="10.00" fill="#000000">Teuchos_XMLParameterList</text>
<text text-anchor="middle" x="1530.416" y="-181.5" font-family="Helvetica,sans-Serif" font-size="10.00" fill="#000000">CoreHelpers.hpp</text>
</g>
<!-- Node0&#45;&gt;Node12 -->
<g id="edge12" class="edge">
<title>Node0&#45;&gt;Node12</title>
<path fill="none" stroke="#191970" d="M859.7781,-252.2207C967.2933,-247.0688 1224.048,-232.775 1449.3474,-204.0507"/>
<polygon fill="#191970" stroke="#191970" points="1449.9027,-207.5082 1459.374,-202.76 1449.0089,-200.5655 1449.9027,-207.5082"/>
</g>
<!-- Node13 -->
<g id="node14" class="node">
<title>Node13</title>
<polygon fill="#ffffff" stroke="#bfbfbf" points="1619.1675,-175.5 1619.1675,-203.5 1749.6646,-203.5 1749.6646,-175.5 1619.1675,-175.5"/>
<text text-anchor="start" x="1627.1675" y="-191.5" font-family="Helvetica,sans-Serif" font-size="10.00" fill="#000000">Stratimikos_DefaultLinear</text>
<text text-anchor="middle" x="1684.416" y="-181.5" font-family="Helvetica,sans-Serif" font-size="10.00" fill="#000000">SolverBuilder.hpp</text>
</g>
<!-- Node0&#45;&gt;Node13 -->
<g id="edge13" class="edge">
<title>Node0&#45;&gt;Node13</title>
<path fill="none" stroke="#191970" d="M859.7735,-253.589C985.8093,-250.8555 1320.5256,-240.5835 1608.8837,-204.0838"/>
<polygon fill="#191970" stroke="#191970" points="1609.6464,-207.5148 1619.1215,-202.7743 1608.7583,-200.5714 1609.6464,-207.5148"/>
</g>
<!-- Node14 -->
<g id="node15" class="node">
<title>Node14</title>
<g id="a_node15"><a xlink:href="../../dc/d64/asme_s_b_v_p_8hpp.html" target="_top" xlink:title="asmeSBVP.hpp">
<polygon fill="#ffffff" stroke="#000000" points="1767.7627,-180.5 1767.7627,-198.5 1853.0693,-198.5 1853.0693,-180.5 1767.7627,-180.5"/>
<text text-anchor="middle" x="1810.416" y="-186.5" font-family="Helvetica,sans-Serif" font-size="10.00" fill="#000000">asmeSBVP.hpp</text>
</a>
</g>
</g>
<!-- Node0&#45;&gt;Node14 -->
<g id="edge14" class="edge">
<title>Node0&#45;&gt;Node14</title>
<path fill="none" stroke="#191970" d="M859.6324,-253.255C1030.9413,-248.8593 1583.0013,-232.7626 1758.416,-204 1762.9609,-203.2548 1767.677,-202.2614 1772.3311,-201.1425"/>
<polygon fill="#191970" stroke="#191970" points="1773.5339,-204.4462 1782.3301,-198.5405 1771.771,-197.6718 1773.5339,-204.4462"/>
</g>
<!-- Node15 -->
<g id="node16" class="node">
<title>Node15</title>
<g id="a_node16"><a xlink:href="../../d4/d27/shinozukapp__layeredcomp_8hpp.html" target="_top" xlink:title="shinozukapp_layeredcomp.hpp">
<polygon fill="#ffffff" stroke="#000000" points="1730.2021,-120.5 1730.2021,-138.5 1884.6299,-138.5 1884.6299,-120.5 1730.2021,-120.5"/>
<text text-anchor="middle" x="1807.416" y="-126.5" font-family="Helvetica,sans-Serif" font-size="10.00" fill="#000000">shinozukapp_layeredcomp.hpp</text>
</a>
</g>
</g>
<!-- Node14&#45;&gt;Node15 -->
<g id="edge15" class="edge">
<title>Node14&#45;&gt;Node15</title>
<path fill="none" stroke="#191970" d="M1809.9604,-180.3873C1809.5419,-172.0174 1808.9081,-159.3414 1808.3778,-148.735"/>
<polygon fill="#191970" stroke="#191970" points="1811.871,-148.5112 1807.8759,-138.6985 1804.8798,-148.8608 1811.871,-148.5112"/>
</g>
<!-- Node53 -->
<g id="node48" class="node">
<title>Node53</title>
<g id="a_node48"><a xlink:href="../../de/d49/tensor__calculus_8hpp.html" target="_top" xlink:title="tensor_calculus.hpp">
<polygon fill="#ffffff" stroke="#000000" points="1492.9434,-120.5 1492.9434,-138.5 1597.8887,-138.5 1597.8887,-120.5 1492.9434,-120.5"/>
<text text-anchor="middle" x="1545.416" y="-126.5" font-family="Helvetica,sans-Serif" font-size="10.00" fill="#000000">tensor_calculus.hpp</text>
</a>
</g>
</g>
<!-- Node14&#45;&gt;Node53 -->
<g id="edge48" class="edge">
<title>Node14&#45;&gt;Node53</title>
<path fill="none" stroke="#191970" d="M1779.1507,-180.4462C1772.3368,-178.5671 1765.1507,-176.6566 1758.416,-175 1705.5559,-161.9973 1644.7903,-149.2302 1601.7261,-140.5455"/>
<polygon fill="#191970" stroke="#191970" points="1602.2167,-137.0742 1591.7234,-138.5374 1600.8389,-143.9373 1602.2167,-137.0742"/>
</g>
<!-- Node54 -->
<g id="node49" class="node">
<title>Node54</title>
<g id="a_node49"><a xlink:href="../../d5/dfe/linearized_elasticity_8hpp.html" target="_top" xlink:title="linearizedElasticity.hpp">
<polygon fill="#ffffff" stroke="#000000" points="2091.9253,-120.5 2091.9253,-138.5 2208.9067,-138.5 2208.9067,-120.5 2091.9253,-120.5"/>
<text text-anchor="middle" x="2150.416" y="-126.5" font-family="Helvetica,sans-Serif" font-size="10.00" fill="#000000">linearizedElasticity.hpp</text>
</a>
</g>
</g>
<!-- Node14&#45;&gt;Node54 -->
<g id="edge50" class="edge">
<title>Node14&#45;&gt;Node54</title>
<path fill="none" stroke="#191970" d="M1853.133,-181.9617C1912.6783,-171.4537 2020.9723,-152.343 2089.121,-140.3168"/>
<polygon fill="#191970" stroke="#191970" points="2090.0472,-143.7075 2099.2868,-138.5228 2088.8307,-136.814 2090.0472,-143.7075"/>
</g>
<!-- Node16 -->
<g id="node17" class="node">
<title>Node16</title>
<g id="a_node17"><a xlink:href="../../d0/d02/meshpp_8hpp.html" target="_top" xlink:title="meshpp.hpp">
<polygon fill="#ffffff" stroke="#ff0000" points="1391.8965,-60.5 1391.8965,-78.5 1462.9355,-78.5 1462.9355,-60.5 1391.8965,-60.5"/>
<text text-anchor="middle" x="1427.416" y="-66.5" font-family="Helvetica,sans-Serif" font-size="10.00" fill="#000000">meshpp.hpp</text>
</a>
</g>
</g>
<!-- Node15&#45;&gt;Node16 -->
<g id="edge16" class="edge">
<title>Node15&#45;&gt;Node16</title>
<path fill="none" stroke="#191970" d="M1729.8846,-122.8909C1661.5376,-116.1372 1559.5574,-103.7938 1472.416,-84 1469.2143,-83.2728 1465.9146,-82.4188 1462.6255,-81.4954"/>
<polygon fill="#191970" stroke="#191970" points="1463.4834,-78.0987 1452.8993,-78.5745 1461.47,-84.8029 1463.4834,-78.0987"/>
</g>
<!-- Node47 -->
<g id="node42" class="node">
<title>Node47</title>
<polygon fill="#ffffff" stroke="#bfbfbf" points="1481.2192,-55.5 1481.2192,-83.5 1605.6128,-83.5 1605.6128,-55.5 1481.2192,-55.5"/>
<text text-anchor="start" x="1489.2192" y="-71.5" font-family="Helvetica,sans-Serif" font-size="10.00" fill="#000000">boost/random/mersenne</text>
<text text-anchor="middle" x="1543.416" y="-61.5" font-family="Helvetica,sans-Serif" font-size="10.00" fill="#000000">_twister.hpp</text>
</g>
<!-- Node15&#45;&gt;Node47 -->
<g id="edge42" class="edge">
<title>Node15&#45;&gt;Node47</title>
<path fill="none" stroke="#191970" d="M1767.6067,-120.4524C1727.3133,-111.2948 1664.1289,-96.9347 1615.0934,-85.7903"/>
<polygon fill="#191970" stroke="#191970" points="1615.6993,-82.3388 1605.1723,-83.5355 1614.1479,-89.1648 1615.6993,-82.3388"/>
</g>
<!-- Node48 -->
<g id="node43" class="node">
<title>Node48</title>
<polygon fill="#ffffff" stroke="#bfbfbf" points="1623.7808,-55.5 1623.7808,-83.5 1737.0513,-83.5 1737.0513,-55.5 1623.7808,-55.5"/>
<text text-anchor="start" x="1631.7808" y="-71.5" font-family="Helvetica,sans-Serif" font-size="10.00" fill="#000000">boost/random/uniform</text>
<text text-anchor="middle" x="1680.416" y="-61.5" font-family="Helvetica,sans-Serif" font-size="10.00" fill="#000000">_real_distribution.hpp</text>
</g>
<!-- Node15&#45;&gt;Node48 -->
<g id="edge43" class="edge">
<title>Node15&#45;&gt;Node48</title>
<path fill="none" stroke="#191970" d="M1788.1274,-120.3873C1769.9531,-111.801 1742.1866,-98.683 1719.3976,-87.9165"/>
<polygon fill="#191970" stroke="#191970" points="1720.8366,-84.7254 1710.2997,-83.6183 1717.8463,-91.0546 1720.8366,-84.7254"/>
</g>
<!-- Node49 -->
<g id="node44" class="node">
<title>Node49</title>
<polygon fill="#ffffff" stroke="#bfbfbf" points="1754.7266,-55.5 1754.7266,-83.5 1854.1055,-83.5 1854.1055,-55.5 1754.7266,-55.5"/>
<text text-anchor="start" x="1762.7266" y="-71.5" font-family="Helvetica,sans-Serif" font-size="10.00" fill="#000000">boost/math/special</text>
<text text-anchor="middle" x="1804.416" y="-61.5" font-family="Helvetica,sans-Serif" font-size="10.00" fill="#000000">_functions/erf.hpp</text>
</g>
<!-- Node15&#45;&gt;Node49 -->
<g id="edge44" class="edge">
<title>Node15&#45;&gt;Node49</title>
<path fill="none" stroke="#191970" d="M1806.9604,-120.3873C1806.6079,-113.3369 1806.1026,-103.2311 1805.635,-93.8806"/>
<polygon fill="#191970" stroke="#191970" points="1809.1285,-93.6604 1805.1334,-83.8477 1802.1372,-94.01 1809.1285,-93.6604"/>
</g>
<!-- Node50 -->
<g id="node45" class="node">
<title>Node50</title>
<polygon fill="#ffffff" stroke="#bfbfbf" points="1872.1699,-55.5 1872.1699,-83.5 1982.6621,-83.5 1982.6621,-55.5 1872.1699,-55.5"/>
<text text-anchor="start" x="1880.1699" y="-71.5" font-family="Helvetica,sans-Serif" font-size="10.00" fill="#000000">boost/random/normal</text>
<text text-anchor="middle" x="1927.416" y="-61.5" font-family="Helvetica,sans-Serif" font-size="10.00" fill="#000000">_distribution.hpp</text>
</g>
<!-- Node15&#45;&gt;Node50 -->
<g id="edge45" class="edge">
<title>Node15&#45;&gt;Node50</title>
<path fill="none" stroke="#191970" d="M1825.6414,-120.3873C1842.6614,-111.8773 1868.5844,-98.9158 1890.0077,-88.2042"/>
<polygon fill="#191970" stroke="#191970" points="1891.8004,-91.221 1899.1795,-83.6183 1888.6699,-84.96 1891.8004,-91.221"/>
</g>
<!-- Node51 -->
<g id="node46" class="node">
<title>Node51</title>
<polygon fill="#ffffff" stroke="#bfbfbf" points="2000.8301,-55.5 2000.8301,-83.5 2118.002,-83.5 2118.002,-55.5 2000.8301,-55.5"/>
<text text-anchor="start" x="2008.8301" y="-71.5" font-family="Helvetica,sans-Serif" font-size="10.00" fill="#000000">boost/math/special</text>
<text text-anchor="middle" x="2059.416" y="-61.5" font-family="Helvetica,sans-Serif" font-size="10.00" fill="#000000">_functions/gamma.hpp</text>
</g>
<!-- Node15&#45;&gt;Node51 -->
<g id="edge46" class="edge">
<title>Node15&#45;&gt;Node51</title>
<path fill="none" stroke="#191970" d="M1845.4158,-120.4524C1883.7974,-111.314 1943.9384,-96.9947 1990.7034,-85.8602"/>
<polygon fill="#191970" stroke="#191970" points="1991.5495,-89.2566 2000.4668,-83.5355 1989.9281,-82.447 1991.5495,-89.2566"/>
</g>
<!-- Node52 -->
<g id="node47" class="node">
<title>Node52</title>
<polygon fill="#ffffff" stroke="#bfbfbf" points="2135.771,-55.5 2135.771,-83.5 2239.061,-83.5 2239.061,-55.5 2135.771,-55.5"/>
<text text-anchor="start" x="2143.771" y="-71.5" font-family="Helvetica,sans-Serif" font-size="10.00" fill="#000000">boost/math/special</text>
<text text-anchor="middle" x="2187.416" y="-61.5" font-family="Helvetica,sans-Serif" font-size="10.00" fill="#000000">_functions/beta.hpp</text>
</g>
<!-- Node15&#45;&gt;Node52 -->
<g id="edge47" class="edge">
<title>Node15&#45;&gt;Node52</title>
<path fill="none" stroke="#191970" d="M1884.703,-120.6191C1947.3163,-112.9393 2037.991,-100.7243 2125.363,-84.2993"/>
<polygon fill="#191970" stroke="#191970" points="2126.2782,-87.688 2135.4484,-82.3815 2124.9705,-80.8113 2126.2782,-87.688"/>
</g>
<!-- Node16&#45;&gt;Node3 -->
<g id="edge41" class="edge">
<title>Node16&#45;&gt;Node3</title>
<path fill="none" stroke="#191970" d="M1391.8754,-68.9722C1257.0507,-66.7256 764.3711,-56.2924 360.416,-19 357.3249,-18.7146 354.1598,-18.391 350.9667,-18.0395"/>
<polygon fill="#191970" stroke="#191970" points="351.0701,-14.5277 340.7297,-16.8357 350.2525,-21.4798 351.0701,-14.5277"/>
</g>
<!-- Node17 -->
<g id="node18" class="node">
<title>Node17</title>
<polygon fill="#ffffff" stroke="#bfbfbf" points="369.6846,-.5 369.6846,-18.5 415.1475,-18.5 415.1475,-.5 369.6846,-.5"/>
<text text-anchor="middle" x="392.416" y="-6.5" font-family="Helvetica,sans-Serif" font-size="10.00" fill="#000000">stdio.h</text>
</g>
<!-- Node16&#45;&gt;Node17 -->
<g id="edge17" class="edge">
<title>Node16&#45;&gt;Node17</title>
<path fill="none" stroke="#191970" d="M1391.7893,-68.8434C1238.7923,-65.852 636.1107,-52.2681 425.3679,-18.6815"/>
<polygon fill="#191970" stroke="#191970" points="425.7711,-15.2006 415.3329,-17.0152 424.6244,-22.1061 425.7711,-15.2006"/>
</g>
<!-- Node18 -->
<g id="node19" class="node">
<title>Node18</title>
<polygon fill="#ffffff" stroke="#bfbfbf" points="433.2437,-.5 433.2437,-18.5 487.5884,-18.5 487.5884,-.5 433.2437,-.5"/>
<text text-anchor="middle" x="460.416" y="-6.5" font-family="Helvetica,sans-Serif" font-size="10.00" fill="#000000">iostream</text>
</g>
<!-- Node16&#45;&gt;Node18 -->
<g id="edge18" class="edge">
<title>Node16&#45;&gt;Node18</title>
<path fill="none" stroke="#191970" d="M1391.6969,-68.5025C1245.8048,-64.2857 694.0186,-46.9091 497.685,-18.6478"/>
<polygon fill="#191970" stroke="#191970" points="498.1784,-15.1827 487.7704,-17.1638 497.1421,-22.1056 498.1784,-15.1827"/>
</g>
<!-- Node19 -->
<g id="node20" class="node">
<title>Node19</title>
<polygon fill="#ffffff" stroke="#bfbfbf" points="506.0244,-.5 506.0244,-18.5 554.8076,-18.5 554.8076,-.5 506.0244,-.5"/>
<text text-anchor="middle" x="530.416" y="-6.5" font-family="Helvetica,sans-Serif" font-size="10.00" fill="#000000">istream</text>
</g>
<!-- Node16&#45;&gt;Node19 -->
<g id="edge19" class="edge">
<title>Node16&#45;&gt;Node19</title>
<path fill="none" stroke="#191970" d="M1391.6001,-68.4666C1252.3255,-64.2873 745.9803,-47.5558 565.0533,-18.8953"/>
<polygon fill="#191970" stroke="#191970" points="565.5824,-15.4353 555.1454,-17.257 564.4404,-22.3416 565.5824,-15.4353"/>
</g>
<!-- Node20 -->
<g id="node21" class="node">
<title>Node20</title>
<polygon fill="#ffffff" stroke="#bfbfbf" points="572.7461,-.5 572.7461,-18.5 622.0859,-18.5 622.0859,-.5 572.7461,-.5"/>
<text text-anchor="middle" x="597.416" y="-6.5" font-family="Helvetica,sans-Serif" font-size="10.00" fill="#000000">fstream</text>
</g>
<!-- Node16&#45;&gt;Node20 -->
<g id="edge20" class="edge">
<title>Node16&#45;&gt;Node20</title>
<path fill="none" stroke="#191970" d="M1391.6563,-68.2666C1259.6837,-63.5577 799.4156,-45.7057 632.256,-18.9367"/>
<polygon fill="#191970" stroke="#191970" points="632.5885,-15.4437 622.1477,-17.2436 631.4321,-22.3476 632.5885,-15.4437"/>
</g>
<!-- Node21 -->
<g id="node22" class="node">
<title>Node21</title>
<polygon fill="#ffffff" stroke="#bfbfbf" points="639.8003,-.5 639.8003,-18.5 683.0317,-18.5 683.0317,-.5 639.8003,-.5"/>
<text text-anchor="middle" x="661.416" y="-6.5" font-family="Helvetica,sans-Serif" font-size="10.00" fill="#000000">vector</text>
</g>
<!-- Node16&#45;&gt;Node21 -->
<g id="edge21" class="edge">
<title>Node16&#45;&gt;Node21</title>
<path fill="none" stroke="#191970" d="M1391.7688,-68.1795C1266.72,-63.3761 847.6698,-45.7906 693.4228,-18.9309"/>
<polygon fill="#191970" stroke="#191970" points="693.683,-15.4205 683.2166,-17.0648 692.424,-22.3064 693.683,-15.4205"/>
</g>
<!-- Node22 -->
<g id="node23" class="node">
<title>Node22</title>
<polygon fill="#ffffff" stroke="#bfbfbf" points="700.9063,-.5 700.9063,-18.5 751.9258,-18.5 751.9258,-.5 700.9063,-.5"/>
<text text-anchor="middle" x="726.416" y="-6.5" font-family="Helvetica,sans-Serif" font-size="10.00" fill="#000000">iomanip</text>
</g>
<!-- Node16&#45;&gt;Node22 -->
<g id="edge22" class="edge">
<title>Node16&#45;&gt;Node22</title>
<path fill="none" stroke="#191970" d="M1391.7476,-69.1629C1292.9859,-67.7292 1007.6328,-60.1994 762.4589,-18.8477"/>
<polygon fill="#191970" stroke="#191970" points="762.7342,-15.344 752.2873,-17.1085 761.5544,-22.2439 762.7342,-15.344"/>
</g>
<!-- Node23 -->
<g id="node24" class="node">
<title>Node23</title>
<polygon fill="#ffffff" stroke="#bfbfbf" points="769.9556,-.5 769.9556,-18.5 874.8765,-18.5 874.8765,-.5 769.9556,-.5"/>
<text text-anchor="middle" x="822.416" y="-6.5" font-family="Helvetica,sans-Serif" font-size="10.00" fill="#000000">Epetra_MpiComm.h</text>
</g>
<!-- Node16&#45;&gt;Node23 -->
<g id="edge23" class="edge">
<title>Node16&#45;&gt;Node23</title>
<path fill="none" stroke="#191970" d="M1391.6901,-66.9534C1306.0475,-60.6839 1082.0961,-43.3147 884.9218,-19.1253"/>
<polygon fill="#191970" stroke="#191970" points="885.3133,-15.6472 874.9595,-17.8944 884.4548,-22.5943 885.3133,-15.6472"/>
</g>
<!-- Node24 -->
<g id="node25" class="node">
<title>Node24</title>
<polygon fill="#ffffff" stroke="#bfbfbf" points="892.6724,-.5 892.6724,-18.5 1008.1597,-18.5 1008.1597,-.5 892.6724,-.5"/>
<text text-anchor="middle" x="950.416" y="-6.5" font-family="Helvetica,sans-Serif" font-size="10.00" fill="#000000">Epetra_FECrsGraph.h</text>
</g>
<!-- Node16&#45;&gt;Node24 -->
<g id="edge24" class="edge">
<title>Node16&#45;&gt;Node24</title>
<path fill="none" stroke="#191970" d="M1391.7407,-65.3285C1322.1268,-57.1404 1163.0575,-38.1948 1018.4552,-19.1188"/>
<polygon fill="#191970" stroke="#191970" points="1018.8843,-15.6451 1008.5118,-17.8038 1017.9665,-22.5847 1018.8843,-15.6451"/>
</g>
<!-- Node25 -->
<g id="node26" class="node">
<title>Node25</title>
<polygon fill="#ffffff" stroke="#bfbfbf" points="1025.958,-.5 1025.958,-18.5 1140.874,-18.5 1140.874,-.5 1025.958,-.5"/>
<text text-anchor="middle" x="1083.416" y="-6.5" font-family="Helvetica,sans-Serif" font-size="10.00" fill="#000000">Epetra_FECrsMatrix.h</text>
</g>
<!-- Node16&#45;&gt;Node25 -->
<g id="edge25" class="edge">
<title>Node16&#45;&gt;Node25</title>
<path fill="none" stroke="#191970" d="M1391.5755,-63.2487C1333.2673,-53.0787 1217.1716,-32.8295 1145.3116,-20.2957"/>
<polygon fill="#191970" stroke="#191970" points="1145.4951,-16.775 1135.0424,-18.5046 1144.2923,-23.6709 1145.4951,-16.775"/>
</g>
<!-- Node26 -->
<g id="node27" class="node">
<title>Node26</title>
<polygon fill="#ffffff" stroke="#bfbfbf" points="1158.4409,-.5 1158.4409,-18.5 1258.3911,-18.5 1258.3911,-.5 1158.4409,-.5"/>
<text text-anchor="middle" x="1208.416" y="-6.5" font-family="Helvetica,sans-Serif" font-size="10.00" fill="#000000">Epetra_FEVector.h</text>
</g>
<!-- Node16&#45;&gt;Node26 -->
<g id="edge26" class="edge">
<title>Node16&#45;&gt;Node26</title>
<path fill="none" stroke="#191970" d="M1394.1546,-60.3873C1355.9068,-49.9084 1293.0226,-32.6799 1251.1707,-21.2136"/>
<polygon fill="#191970" stroke="#191970" points="1251.8423,-17.7687 1241.2729,-18.5019 1249.9926,-24.5199 1251.8423,-17.7687"/>
</g>
<!-- Node27 -->
<g id="node28" class="node">
<title>Node27</title>
<polygon fill="#ffffff" stroke="#bfbfbf" points="1276.8301,-.5 1276.8301,-18.5 1364.002,-18.5 1364.002,-.5 1276.8301,-.5"/>
<text text-anchor="middle" x="1320.416" y="-6.5" font-family="Helvetica,sans-Serif" font-size="10.00" fill="#000000">Epetra_Vector.h</text>
</g>
<!-- Node16&#45;&gt;Node27 -->
<g id="edge27" class="edge">
<title>Node16&#45;&gt;Node27</title>
<path fill="none" stroke="#191970" d="M1411.165,-60.3873C1393.7025,-50.5952 1365.7291,-34.9092 1345.4519,-23.5388"/>
<polygon fill="#191970" stroke="#191970" points="1346.9035,-20.3401 1336.4694,-18.5019 1343.4798,-26.4457 1346.9035,-20.3401"/>
</g>
<!-- Node28 -->
<g id="node29" class="node">
<title>Node28</title>
<polygon fill="#ffffff" stroke="#bfbfbf" points="1382.0073,-.5 1382.0073,-18.5 1460.8247,-18.5 1460.8247,-.5 1382.0073,-.5"/>
<text text-anchor="middle" x="1421.416" y="-6.5" font-family="Helvetica,sans-Serif" font-size="10.00" fill="#000000">Epetra_Map.h</text>
</g>
<!-- Node16&#45;&gt;Node28 -->
<g id="edge28" class="edge">
<title>Node16&#45;&gt;Node28</title>
<path fill="none" stroke="#191970" d="M1426.5047,-60.3873C1425.6678,-52.0174 1424.4002,-39.3414 1423.3395,-28.735"/>
<polygon fill="#191970" stroke="#191970" points="1426.8136,-28.3005 1422.3359,-18.6985 1419.8484,-28.9971 1426.8136,-28.3005"/>
</g>
<!-- Node29 -->
<g id="node30" class="node">
<title>Node29</title>
<polygon fill="#ffffff" stroke="#bfbfbf" points="1478.8867,-.5 1478.8867,-18.5 1619.9453,-18.5 1619.9453,-.5 1478.8867,-.5"/>
<text text-anchor="middle" x="1549.416" y="-6.5" font-family="Helvetica,sans-Serif" font-size="10.00" fill="#000000">Epetra_SerialDenseMatrix.h</text>
</g>
<!-- Node16&#45;&gt;Node29 -->
<g id="edge29" class="edge">
<title>Node16&#45;&gt;Node29</title>
<path fill="none" stroke="#191970" d="M1445.9452,-60.3873C1466.2161,-50.418 1498.9092,-34.3394 1522.1171,-22.9257"/>
<polygon fill="#191970" stroke="#191970" points="1523.6833,-26.0559 1531.1122,-18.5019 1520.5941,-19.7744 1523.6833,-26.0559"/>
</g>
<!-- Node30 -->
<g id="node31" class="node">
<title>Node30</title>
<polygon fill="#ffffff" stroke="#bfbfbf" points="1637.5938,-.5 1637.5938,-18.5 1779.2383,-18.5 1779.2383,-.5 1637.5938,-.5"/>
<text text-anchor="middle" x="1708.416" y="-6.5" font-family="Helvetica,sans-Serif" font-size="10.00" fill="#000000">Epetra_SerialDenseVector.h</text>
</g>
<!-- Node16&#45;&gt;Node30 -->
<g id="edge30" class="edge">
<title>Node16&#45;&gt;Node30</title>
<path fill="none" stroke="#191970" d="M1453.9107,-60.3738C1459.9527,-58.4575 1466.3735,-56.5499 1472.416,-55 1528.8288,-40.53 1593.879,-28.3135 1641.3798,-20.1943"/>
<polygon fill="#191970" stroke="#191970" points="1641.9649,-23.6452 1651.2402,-18.5247 1640.7961,-16.7434 1641.9649,-23.6452"/>
</g>
<!-- Node31 -->
<g id="node32" class="node">
<title>Node31</title>
<polygon fill="#ffffff" stroke="#bfbfbf" points="1797.0347,-.5 1797.0347,-18.5 1949.7974,-18.5 1949.7974,-.5 1797.0347,-.5"/>
<text text-anchor="middle" x="1873.416" y="-6.5" font-family="Helvetica,sans-Serif" font-size="10.00" fill="#000000">Epetra_IntSerialDenseVector.h</text>
</g>
<!-- Node16&#45;&gt;Node31 -->
<g id="edge31" class="edge">
<title>Node16&#45;&gt;Node31</title>
<path fill="none" stroke="#191970" d="M1452.4042,-60.476C1458.8551,-58.416 1465.8366,-56.4185 1472.416,-55 1476.2427,-54.175 1670.3142,-32.3095 1787.032,-19.195"/>
<polygon fill="#191970" stroke="#191970" points="1787.487,-22.666 1797.0337,-18.0714 1786.7055,-15.7098 1787.487,-22.666"/>
</g>
<!-- Node32 -->
<g id="node33" class="node">
<title>Node32</title>
<polygon fill="#ffffff" stroke="#bfbfbf" points="1967.564,-.5 1967.564,-18.5 2055.2681,-18.5 2055.2681,-.5 1967.564,-.5"/>
<text text-anchor="middle" x="2011.416" y="-6.5" font-family="Helvetica,sans-Serif" font-size="10.00" fill="#000000">Epetra_Import.h</text>
</g>
<!-- Node16&#45;&gt;Node32 -->
<g id="edge32" class="edge">
<title>Node16&#45;&gt;Node32</title>
<path fill="none" stroke="#191970" d="M1451.8964,-60.4483C1458.4779,-58.3366 1465.649,-56.3213 1472.416,-55 1681.7758,-14.1216 1741.7243,-45.1719 1957.4517,-18.9795"/>
<polygon fill="#191970" stroke="#191970" points="1958.0174,-22.4362 1967.51,-17.7307 1957.1549,-15.4895 1958.0174,-22.4362"/>
</g>
<!-- Node33 -->
<g id="node34" class="node">
<title>Node33</title>
<polygon fill="#ffffff" stroke="#bfbfbf" points="2073.2832,-.5 2073.2832,-18.5 2161.5488,-18.5 2161.5488,-.5 2073.2832,-.5"/>
<text text-anchor="middle" x="2117.416" y="-6.5" font-family="Helvetica,sans-Serif" font-size="10.00" fill="#000000">Epetra_Export.h</text>
</g>
<!-- Node16&#45;&gt;Node33 -->
<g id="edge33" class="edge">
<title>Node16&#45;&gt;Node33</title>
<path fill="none" stroke="#191970" d="M1451.8848,-60.3878C1458.4664,-58.2766 1465.6405,-56.2766 1472.416,-55 1728.1669,-6.814 1800.8458,-49.2018 2063.0191,-19.0189"/>
<polygon fill="#191970" stroke="#191970" points="2063.7048,-22.4625 2073.2274,-17.8182 2062.887,-15.5104 2063.7048,-22.4625"/>
</g>
<!-- Node34 -->
<g id="node35" class="node">
<title>Node34</title>
<polygon fill="#ffffff" stroke="#bfbfbf" points="2179.8062,-.5 2179.8062,-18.5 2261.0259,-18.5 2261.0259,-.5 2179.8062,-.5"/>
<text text-anchor="middle" x="2220.416" y="-6.5" font-family="Helvetica,sans-Serif" font-size="10.00" fill="#000000">Epetra_Time.h</text>
</g>
<!-- Node16&#45;&gt;Node34 -->
<g id="edge34" class="edge">
<title>Node16&#45;&gt;Node34</title>
<path fill="none" stroke="#191970" d="M1451.4079,-60.4965C1458.1166,-58.3298 1465.4732,-56.275 1472.416,-55 1774.6591,.5062 1860.1707,-54.8621 2169.4033,-18.9357"/>
<polygon fill="#191970" stroke="#191970" points="2170.038,-22.3851 2179.5567,-17.7328 2169.2144,-15.4337 2170.038,-22.3851"/>
</g>
<!-- Node35 -->
<g id="node36" class="node">
<title>Node35</title>
<polygon fill="#ffffff" stroke="#bfbfbf" points="2278.7119,-.5 2278.7119,-18.5 2428.1201,-18.5 2428.1201,-.5 2278.7119,-.5"/>
<text text-anchor="middle" x="2353.416" y="-6.5" font-family="Helvetica,sans-Serif" font-size="10.00" fill="#000000">ml_MultiLevelPreconditioner.h</text>
</g>
<!-- Node16&#45;&gt;Node35 -->
<g id="edge35" class="edge">
<title>Node16&#45;&gt;Node35</title>
<path fill="none" stroke="#191970" d="M1451.4025,-60.4669C1458.1112,-58.3 1465.4691,-56.2526 1472.416,-55 1818.5673,7.4169 1914.7315,-46.1886 2268.3355,-19.1101"/>
<polygon fill="#191970" stroke="#191970" points="2268.6406,-22.597 2278.3373,-18.328 2268.0949,-15.6183 2268.6406,-22.597"/>
</g>
<!-- Node36 -->
<g id="node37" class="node">
<title>Node36</title>
<polygon fill="#ffffff" stroke="#bfbfbf" points="2446.3398,-.5 2446.3398,-18.5 2538.4922,-18.5 2538.4922,-.5 2446.3398,-.5"/>
<text text-anchor="middle" x="2492.416" y="-6.5" font-family="Helvetica,sans-Serif" font-size="10.00" fill="#000000">ml_epetra_utils.h</text>
</g>
<!-- Node16&#45;&gt;Node36 -->
<g id="edge36" class="edge">
<title>Node16&#45;&gt;Node36</title>
<path fill="none" stroke="#191970" d="M1451.3961,-60.431C1458.1048,-58.2641 1465.4643,-56.2256 1472.416,-55 1891.7831,18.9328 2008.7321,-62.3356 2436.1113,-18.98"/>
<polygon fill="#191970" stroke="#191970" points="2436.6768,-22.4403 2446.2649,-17.9325 2435.9585,-15.4772 2436.6768,-22.4403"/>
</g>
<!-- Node37 -->
<g id="node38" class="node">
<title>Node37</title>
<polygon fill="#ffffff" stroke="#bfbfbf" points="2556.3447,-.5 2556.3447,-18.5 2628.4873,-18.5 2628.4873,-.5 2556.3447,-.5"/>
<text text-anchor="middle" x="2592.416" y="-6.5" font-family="Helvetica,sans-Serif" font-size="10.00" fill="#000000">ml_include.h</text>
</g>
<!-- Node16&#45;&gt;Node37 -->
<g id="edge37" class="edge">
<title>Node16&#45;&gt;Node37</title>
<path fill="none" stroke="#191970" d="M1451.393,-60.4135C1458.1017,-58.2465 1465.462,-56.2123 1472.416,-55 1940.0246,26.5188 2071.0014,-75.1325 2545.9451,-18.9481"/>
<polygon fill="#191970" stroke="#191970" points="2546.6462,-22.3891 2556.1577,-17.722 2545.8117,-15.439 2546.6462,-22.3891"/>
</g>
<!-- Node38 -->
<g id="node39" class="node">
<title>Node38</title>
<polygon fill="#ffffff" stroke="#bfbfbf" points="2646.8374,-.5 2646.8374,-18.5 2783.9946,-18.5 2783.9946,-.5 2646.8374,-.5"/>
<text text-anchor="middle" x="2715.416" y="-6.5" font-family="Helvetica,sans-Serif" font-size="10.00" fill="#000000">EpetraExt_RowMatrixOut.h</text>
</g>
<!-- Node16&#45;&gt;Node38 -->
<g id="edge38" class="edge">
<title>Node16&#45;&gt;Node38</title>
<path fill="none" stroke="#191970" d="M1451.391,-60.4016C1458.0997,-58.2345 1465.4604,-56.2033 1472.416,-55 1724.3973,-11.4072 2362.6736,-37.9825 2636.1779,-18.9857"/>
<polygon fill="#191970" stroke="#191970" points="2636.8269,-22.4478 2646.546,-18.2301 2636.318,-15.4663 2636.8269,-22.4478"/>
</g>
<!-- Node39 -->
<g id="node40" class="node">
<title>Node39</title>
<polygon fill="#ffffff" stroke="#bfbfbf" points="2801.7168,-.5 2801.7168,-18.5 2941.1152,-18.5 2941.1152,-.5 2801.7168,-.5"/>
<text text-anchor="middle" x="2871.416" y="-6.5" font-family="Helvetica,sans-Serif" font-size="10.00" fill="#000000">EpetraExt_MultiVectorOut.h</text>
</g>
<!-- Node16&#45;&gt;Node39 -->
<g id="edge39" class="edge">
<title>Node16&#45;&gt;Node39</title>
<path fill="none" stroke="#191970" d="M1451.3881,-60.3848C1458.0968,-58.2177 1465.4582,-56.1906 1472.416,-55 1758.6223,-6.0235 2484.025,-39.9939 2791.3964,-19.0542"/>
<polygon fill="#191970" stroke="#191970" points="2791.981,-22.5215 2801.7068,-18.3193 2791.4832,-15.5393 2791.981,-22.5215"/>
</g>
<!-- Node40 -->
<g id="node41" class="node">
<title>Node40</title>
<polygon fill="#ffffff" stroke="#bfbfbf" points="2959.1626,-.5 2959.1626,-18.5 3069.6694,-18.5 3069.6694,-.5 2959.1626,-.5"/>
<text text-anchor="middle" x="3014.416" y="-6.5" font-family="Helvetica,sans-Serif" font-size="10.00" fill="#000000">EpetraExt_VectorIn.h</text>
</g>
<!-- Node16&#45;&gt;Node40 -->
<g id="edge40" class="edge">
<title>Node16&#45;&gt;Node40</title>
<path fill="none" stroke="#191970" d="M1451.3858,-60.3715C1458.0945,-58.2043 1465.4565,-56.1806 1472.416,-55 1793.1672,-.5895 2606.9847,-46.2624 2948.9825,-18.9861"/>
<polygon fill="#191970" stroke="#191970" points="2949.286,-22.4731 2958.9621,-18.1577 2948.7068,-15.4971 2949.286,-22.4731"/>
</g>
<!-- Node53&#45;&gt;Node16 -->
<g id="edge49" class="edge">
<title>Node53&#45;&gt;Node16</title>
<path fill="none" stroke="#191970" d="M1527.4944,-120.3873C1507.9752,-110.4623 1476.5477,-94.4822 1454.1198,-83.0782"/>
<polygon fill="#191970" stroke="#191970" points="1455.6199,-79.9145 1445.1197,-78.5019 1452.4472,-86.1542 1455.6199,-79.9145"/>
</g>
<!-- Node55 -->
<g id="node50" class="node">
<title>Node55</title>
<g id="a_node50"><a xlink:href="../../d3/dd8/linear_finite_element_problem_8hpp.html" target="_top" xlink:title="linearFiniteElementProblem.hpp">
<polygon fill="#ffffff" stroke="#ff0000" points="2257.2686,-60.5 2257.2686,-78.5 2415.5635,-78.5 2415.5635,-60.5 2257.2686,-60.5"/>
<text text-anchor="middle" x="2336.416" y="-66.5" font-family="Helvetica,sans-Serif" font-size="10.00" fill="#000000">linearFiniteElementProblem.hpp</text>
</a>
</g>
</g>
<!-- Node54&#45;&gt;Node55 -->
<g id="edge51" class="edge">
<title>Node54&#45;&gt;Node55</title>
<path fill="none" stroke="#191970" d="M2178.6654,-120.3873C2210.8065,-110.0192 2263.4316,-93.0434 2298.9707,-81.5791"/>
<polygon fill="#191970" stroke="#191970" points="2300.0676,-84.903 2308.5102,-78.5019 2297.9186,-78.241 2300.0676,-84.903"/>
</g>
</g>
</svg>
        <g id="navigator" transform="translate(0 0)" fill="#404254">
                <rect fill="#f2f5e9" fill-opacity="0.5" stroke="#606060" stroke-width=".5" x="0" y="0" width="60" height="60"/>
                <use id="zoomplus" xlink:href="#zoomPlus" x="17" y="9" onmousedown="handleZoom(evt,'in')"/>
                <use id="zoomminus" xlink:href="#zoomMin" x="42" y="9" onmousedown="handleZoom(evt,'out')"/>
                <use id="reset" xlink:href="#resetDef" x="30" y="36" onmousedown="handleReset()"/>
                <g id="arrowUp" xlink:href="#dirArrow" transform="translate(30 24)" onmousedown="handlePan(0,-1)">
                  <use xlink:href="#rim" fill="#404040">
                        <set attributeName="fill" to="#808080" begin="arrowUp.mouseover" end="arrowUp.mouseout"/>
                  </use>
                  <path fill="none" stroke="white" stroke-width="1.5" d="M0,-3.0v7 M-2.5,-0.5L0,-3.0L2.5,-0.5"/>
                </g>
                <g id="arrowRight" xlink:href="#dirArrow" transform="rotate(90) translate(36 -43)" onmousedown="handlePan(1,0)">
                  <use xlink:href="#rim" fill="#404040">
                        <set attributeName="fill" to="#808080" begin="arrowRight.mouseover" end="arrowRight.mouseout"/>
                  </use>
                  <path fill="none" stroke="white" stroke-width="1.5" d="M0,-3.0v7 M-2.5,-0.5L0,-3.0L2.5,-0.5"/>
                </g>
                <g id="arrowDown" xlink:href="#dirArrow" transform="rotate(180) translate(-30 -48)" onmousedown="handlePan(0,1)">
                  <use xlink:href="#rim" fill="#404040">
                        <set attributeName="fill" to="#808080" begin="arrowDown.mouseover" end="arrowDown.mouseout"/>
                  </use>
                  <path fill="none" stroke="white" stroke-width="1.5" d="M0,-3.0v7 M-2.5,-0.5L0,-3.0L2.5,-0.5"/>
                </g>
                <g id="arrowLeft" xlink:href="#dirArrow" transform="rotate(270) translate(-36 17)" onmousedown="handlePan(-1,0)">
                  <use xlink:href="#rim" fill="#404040">
                        <set attributeName="fill" to="#808080" begin="arrowLeft.mouseover" end="arrowLeft.mouseout"/>
                  </use>
                  <path fill="none" stroke="white" stroke-width="1.5" d="M0,-3.0v7 M-2.5,-0.5L0,-3.0L2.5,-0.5"/>
                </g>
        </g>
        <svg viewBox="0 0 15 15" width="100%" height="30px" preserveAspectRatio="xMaxYMin meet">
         <g id="arrow_out" transform="scale(0.3 0.3)">
          <a xlink:href="asme_2linearelaslam_2main_8cpp__incl_org.svg" target="_base">
           <rect id="button" ry="5" rx="5" y="6" x="6" height="38" width="38"
                fill="#f2f5e9" fill-opacity="0.5" stroke="#606060" stroke-width="1.0"/>
           <path id="arrow"
             d="M 11.500037,31.436501 C 11.940474,20.09759 22.043105,11.32322 32.158766,21.979434 L 37.068811,17.246167 C 37.068811,17.246167 37.088388,32 37.088388,32 L 22.160133,31.978069 C 22.160133,31.978069 26.997745,27.140456 26.997745,27.140456 C 18.528582,18.264221 13.291696,25.230495 11.500037,31.436501 z"
             style="fill:#404040;"/>
          </a>
         </g>
        </svg>
</svg>
