<?xml version="1.0" encoding="UTF-8" standalone="no"?>
<!DOCTYPE svg PUBLIC "-//W3C//DTD SVG 1.1//EN"
 "http://www.w3.org/Graphics/SVG/1.1/DTD/svg11.dtd">
<!-- Generated by graphviz version 2.40.1 (20161225.0304)
 -->
<!-- Title: arteries/boost_gmrf/gmrf_nodes/main.cpp Pages: 1 -->
<svg width="3399pt" height="229pt"
 viewBox="0.00 0.00 3399.00 229.00" xmlns="http://www.w3.org/2000/svg" xmlns:xlink="http://www.w3.org/1999/xlink">
<g id="graph0" class="graph" transform="scale(1 1) rotate(0) translate(4 225)">
<title>arteries/boost_gmrf/gmrf_nodes/main.cpp</title>
<polygon fill="#ffffff" stroke="transparent" points="-4,4 -4,-225 3395,-225 3395,4 -4,4"/>
<!-- Node0 -->
<g id="node1" class="node">
<title>Node0</title>
<polygon fill="#bfbfbf" stroke="#000000" points="1159.5,-190.5 1159.5,-220.5 1272.5,-220.5 1272.5,-190.5 1159.5,-190.5"/>
<text text-anchor="start" x="1167.5" y="-208.5" font-family="Helvetica,sans-Serif" font-size="10.00" fill="#000000">arteries/boost_gmrf</text>
<text text-anchor="middle" x="1216" y="-197.5" font-family="Helvetica,sans-Serif" font-size="10.00" fill="#000000">/gmrf_nodes/main.cpp</text>
</g>
<!-- Node1 -->
<g id="node2" class="node">
<title>Node1</title>
<polygon fill="#ffffff" stroke="#bfbfbf" points="492,-129 492,-148 600,-148 600,-129 492,-129"/>
<text text-anchor="middle" x="546" y="-136" font-family="Helvetica,sans-Serif" font-size="10.00" fill="#000000">Epetra_ConfigDefs.h</text>
</g>
<!-- Node0&#45;&gt;Node1 -->
<g id="edge1" class="edge">
<title>Node0&#45;&gt;Node1</title>
<path fill="none" stroke="#191970" d="M1159.1473,-203.6458C1051.2511,-199.4715 809.6315,-186.9834 609,-154 603.019,-153.0167 596.7688,-151.762 590.6267,-150.3933"/>
<polygon fill="#191970" stroke="#191970" points="590.9938,-146.8845 580.459,-148.0101 589.3964,-153.6998 590.9938,-146.8845"/>
</g>
<!-- Node2 -->
<g id="node3" class="node">
<title>Node2</title>
<polygon fill="#ffffff" stroke="#bfbfbf" points="618.5,-129 618.5,-148 731.5,-148 731.5,-129 618.5,-129"/>
<text text-anchor="middle" x="675" y="-136" font-family="Helvetica,sans-Serif" font-size="10.00" fill="#000000">Epetra_SerialComm.h</text>
</g>
<!-- Node0&#45;&gt;Node2 -->
<g id="edge2" class="edge">
<title>Node0&#45;&gt;Node2</title>
<path fill="none" stroke="#191970" d="M1159.2575,-201.6907C1069.7011,-195.156 890.3045,-179.945 740,-154 733.8481,-152.9381 727.4105,-151.6377 721.079,-150.2461"/>
<polygon fill="#191970" stroke="#191970" points="721.8017,-146.8211 711.2732,-148.0052 720.2422,-153.6452 721.8017,-146.8211"/>
</g>
<!-- Node3 -->
<g id="node4" class="node">
<title>Node3</title>
<polygon fill="#ffffff" stroke="#bfbfbf" points="749.5,-129 749.5,-148 934.5,-148 934.5,-129 749.5,-129"/>
<text text-anchor="middle" x="842" y="-136" font-family="Helvetica,sans-Serif" font-size="10.00" fill="#000000">Teuchos_CommandLineProcessor.hpp</text>
</g>
<!-- Node0&#45;&gt;Node3 -->
<g id="edge3" class="edge">
<title>Node0&#45;&gt;Node3</title>
<path fill="none" stroke="#191970" d="M1159.1974,-195.3241C1090.834,-183.0772 976.383,-162.574 905.2603,-149.8327"/>
<polygon fill="#191970" stroke="#191970" points="905.5524,-146.3294 895.0919,-148.0111 904.318,-153.2197 905.5524,-146.3294"/>
</g>
<!-- Node4 -->
<g id="node5" class="node">
<title>Node4</title>
<polygon fill="#ffffff" stroke="#bfbfbf" points="952,-129 952,-148 1128,-148 1128,-129 952,-129"/>
<text text-anchor="middle" x="1040" y="-136" font-family="Helvetica,sans-Serif" font-size="10.00" fill="#000000">Teuchos_StandardCatchMacros.hpp</text>
</g>
<!-- Node0&#45;&gt;Node4 -->
<g id="edge4" class="edge">
<title>Node0&#45;&gt;Node4</title>
<path fill="none" stroke="#191970" d="M1176.5022,-190.4639C1145.8164,-178.7824 1103.6882,-162.7449 1074.3814,-151.5884"/>
<polygon fill="#191970" stroke="#191970" points="1075.5601,-148.2921 1064.9691,-148.0053 1073.0696,-154.8341 1075.5601,-148.2921"/>
</g>
<!-- Node5 -->
<g id="node6" class="node">
<title>Node5</title>
<polygon fill="#ffffff" stroke="#bfbfbf" points="1146.5,-129 1146.5,-148 1285.5,-148 1285.5,-129 1146.5,-129"/>
<text text-anchor="middle" x="1216" y="-136" font-family="Helvetica,sans-Serif" font-size="10.00" fill="#000000">Teuchos_ParameterList.hpp</text>
</g>
<!-- Node0&#45;&gt;Node5 -->
<g id="edge5" class="edge">
<title>Node0&#45;&gt;Node5</title>
<path fill="none" stroke="#191970" d="M1216,-190.2967C1216,-180.7699 1216,-168.3954 1216,-158.1306"/>
<polygon fill="#191970" stroke="#191970" points="1219.5001,-158.0549 1216,-148.055 1212.5001,-158.055 1219.5001,-158.0549"/>
</g>
<!-- Node6 -->
<g id="node7" class="node">
<title>Node6</title>
<polygon fill="#ffffff" stroke="#bfbfbf" points="1304,-123.5 1304,-153.5 1444,-153.5 1444,-123.5 1304,-123.5"/>
<text text-anchor="start" x="1312" y="-141.5" font-family="Helvetica,sans-Serif" font-size="10.00" fill="#000000">Teuchos_XMLParameterList</text>
<text text-anchor="middle" x="1374" y="-130.5" font-family="Helvetica,sans-Serif" font-size="10.00" fill="#000000">CoreHelpers.hpp</text>
</g>
<!-- Node0&#45;&gt;Node6 -->
<g id="edge6" class="edge">
<title>Node0&#45;&gt;Node6</title>
<path fill="none" stroke="#191970" d="M1251.4583,-190.4639C1274.3499,-180.7567 1304.335,-168.0415 1328.914,-157.6188"/>
<polygon fill="#191970" stroke="#191970" points="1330.547,-160.728 1338.3871,-153.6017 1327.8142,-154.2835 1330.547,-160.728"/>
</g>
<!-- Node7 -->
<g id="node8" class="node">
<title>Node7</title>
<polygon fill="#ffffff" stroke="#bfbfbf" points="1462.5,-123.5 1462.5,-153.5 1623.5,-153.5 1623.5,-123.5 1462.5,-123.5"/>
<text text-anchor="start" x="1470.5" y="-141.5" font-family="Helvetica,sans-Serif" font-size="10.00" fill="#000000">beumannInnerSurface</text>
<text text-anchor="middle" x="1543" y="-130.5" font-family="Helvetica,sans-Serif" font-size="10.00" fill="#000000">_StochasticPolyconvexHGO.hpp</text>
</g>
<!-- Node0&#45;&gt;Node7 -->
<g id="edge7" class="edge">
<title>Node0&#45;&gt;Node7</title>
<path fill="none" stroke="#191970" d="M1272.5857,-193.906C1324.1664,-183.3375 1401.0275,-167.5892 1459.6367,-155.5806"/>
<polygon fill="#191970" stroke="#191970" points="1460.5229,-158.9718 1469.6168,-153.5357 1459.1178,-152.1142 1460.5229,-158.9718"/>
</g>
<!-- Node8 -->
<g id="node9" class="node">
<title>Node8</title>
<polygon fill="#ffffff" stroke="#bfbfbf" points="1518,-56.5 1518,-86.5 1634,-86.5 1634,-56.5 1518,-56.5"/>
<text text-anchor="start" x="1526" y="-74.5" font-family="Helvetica,sans-Serif" font-size="10.00" fill="#000000">boost/math/special</text>
<text text-anchor="middle" x="1576" y="-63.5" font-family="Helvetica,sans-Serif" font-size="10.00" fill="#000000">_functions/gamma.hpp</text>
</g>
<!-- Node0&#45;&gt;Node8 -->
<g id="edge8" class="edge">
<title>Node0&#45;&gt;Node8</title>
<path fill="none" stroke="#191970" d="M1272.8503,-202.5784C1381.1928,-196.4263 1608.5958,-180.4803 1632,-154 1648.9762,-134.7925 1627.5753,-110.2016 1606.5151,-92.8821"/>
<polygon fill="#191970" stroke="#191970" points="1608.5692,-90.045 1598.541,-86.6266 1604.2487,-95.5526 1608.5692,-90.045"/>
</g>
<!-- Node9 -->
<g id="node10" class="node">
<title>Node9</title>
<g id="a_node10"><a xlink:href="../../d7/de5/shinozukapp_8hpp.html" target="_top" xlink:title="shinozukapp.hpp">
<polygon fill="#ffffff" stroke="#000000" points="1823,-129 1823,-148 1913,-148 1913,-129 1823,-129"/>
<text text-anchor="middle" x="1868" y="-136" font-family="Helvetica,sans-Serif" font-size="10.00" fill="#000000">shinozukapp.hpp</text>
</a>
</g>
</g>
<!-- Node0&#45;&gt;Node9 -->
<g id="edge9" class="edge">
<title>Node0&#45;&gt;Node9</title>
<path fill="none" stroke="#191970" d="M1272.7202,-199.6714C1396.6003,-186.9414 1690.0428,-156.787 1812.656,-144.1872"/>
<polygon fill="#191970" stroke="#191970" points="1813.3434,-147.6351 1822.9332,-143.1311 1812.6278,-140.6717 1813.3434,-147.6351"/>
</g>
<!-- Node9&#45;&gt;Node8 -->
<g id="edge47" class="edge">
<title>Node9&#45;&gt;Node8</title>
<path fill="none" stroke="#191970" d="M1826.1102,-128.9426C1782.9496,-119.0884 1713.4465,-103.2008 1643.9119,-87.2072"/>
<polygon fill="#191970" stroke="#191970" points="1644.6329,-83.7818 1634.1027,-84.9504 1643.0633,-90.6036 1644.6329,-83.7818"/>
</g>
<!-- Node10 -->
<g id="node11" class="node">
<title>Node10</title>
<g id="a_node11"><a xlink:href="../../d0/d02/meshpp_8hpp.html" target="_top" xlink:title="meshpp.hpp">
<polygon fill="#ffffff" stroke="#000000" points="1652,-62 1652,-81 1722,-81 1722,-62 1652,-62"/>
<text text-anchor="middle" x="1687" y="-69" font-family="Helvetica,sans-Serif" font-size="10.00" fill="#000000">meshpp.hpp</text>
</a>
</g>
</g>
<!-- Node9&#45;&gt;Node10 -->
<g id="edge10" class="edge">
<title>Node9&#45;&gt;Node10</title>
<path fill="none" stroke="#191970" d="M1842.0671,-128.9005C1810.616,-117.2584 1757.4563,-97.5805 1722.2926,-84.5641"/>
<polygon fill="#191970" stroke="#191970" points="1723.4779,-81.2708 1712.8848,-81.0817 1721.0479,-87.8355 1723.4779,-81.2708"/>
</g>
<!-- Node42 -->
<g id="node43" class="node">
<title>Node42</title>
<polygon fill="#ffffff" stroke="#bfbfbf" points="1740,-56.5 1740,-86.5 1862,-86.5 1862,-56.5 1740,-56.5"/>
<text text-anchor="start" x="1748" y="-74.5" font-family="Helvetica,sans-Serif" font-size="10.00" fill="#000000">boost/random/mersenne</text>
<text text-anchor="middle" x="1801" y="-63.5" font-family="Helvetica,sans-Serif" font-size="10.00" fill="#000000">_twister.hpp</text>
</g>
<!-- Node9&#45;&gt;Node42 -->
<g id="edge43" class="edge">
<title>Node9&#45;&gt;Node42</title>
<path fill="none" stroke="#191970" d="M1858.4005,-128.9005C1849.2313,-119.7313 1835.0776,-105.5776 1823.1195,-93.6195"/>
<polygon fill="#191970" stroke="#191970" points="1825.5677,-91.118 1816.0218,-86.5218 1820.618,-96.0677 1825.5677,-91.118"/>
</g>
<!-- Node43 -->
<g id="node44" class="node">
<title>Node43</title>
<polygon fill="#ffffff" stroke="#bfbfbf" points="1880.5,-56.5 1880.5,-86.5 1991.5,-86.5 1991.5,-56.5 1880.5,-56.5"/>
<text text-anchor="start" x="1888.5" y="-74.5" font-family="Helvetica,sans-Serif" font-size="10.00" fill="#000000">boost/random/uniform</text>
<text text-anchor="middle" x="1936" y="-63.5" font-family="Helvetica,sans-Serif" font-size="10.00" fill="#000000">_real_distribution.hpp</text>
</g>
<!-- Node9&#45;&gt;Node43 -->
<g id="edge44" class="edge">
<title>Node9&#45;&gt;Node43</title>
<path fill="none" stroke="#191970" d="M1877.7427,-128.9005C1887.0488,-119.7313 1901.4138,-105.5776 1913.5504,-93.6195"/>
<polygon fill="#191970" stroke="#191970" points="1916.0872,-96.0334 1920.754,-86.5218 1911.1743,-91.0471 1916.0872,-96.0334"/>
</g>
<!-- Node44 -->
<g id="node45" class="node">
<title>Node44</title>
<polygon fill="#ffffff" stroke="#bfbfbf" points="2009.5,-56.5 2009.5,-86.5 2108.5,-86.5 2108.5,-56.5 2009.5,-56.5"/>
<text text-anchor="start" x="2017.5" y="-74.5" font-family="Helvetica,sans-Serif" font-size="10.00" fill="#000000">boost/math/special</text>
<text text-anchor="middle" x="2059" y="-63.5" font-family="Helvetica,sans-Serif" font-size="10.00" fill="#000000">_functions/erf.hpp</text>
</g>
<!-- Node9&#45;&gt;Node44 -->
<g id="edge45" class="edge">
<title>Node9&#45;&gt;Node44</title>
<path fill="none" stroke="#191970" d="M1895.3656,-128.9005C1924.2172,-118.7798 1970.3806,-102.5864 2006.3307,-89.9756"/>
<polygon fill="#191970" stroke="#191970" points="2007.899,-93.1346 2016.1768,-86.5218 2005.5819,-86.5292 2007.899,-93.1346"/>
</g>
<!-- Node45 -->
<g id="node46" class="node">
<title>Node45</title>
<polygon fill="#ffffff" stroke="#bfbfbf" points="2127,-56.5 2127,-86.5 2235,-86.5 2235,-56.5 2127,-56.5"/>
<text text-anchor="start" x="2135" y="-74.5" font-family="Helvetica,sans-Serif" font-size="10.00" fill="#000000">boost/random/normal</text>
<text text-anchor="middle" x="2181" y="-63.5" font-family="Helvetica,sans-Serif" font-size="10.00" fill="#000000">_distribution.hpp</text>
</g>
<!-- Node9&#45;&gt;Node45 -->
<g id="edge46" class="edge">
<title>Node9&#45;&gt;Node45</title>
<path fill="none" stroke="#191970" d="M1913.2745,-129.7123C1961.3827,-120.2543 2039.9067,-104.4748 2116.8707,-87.2127"/>
<polygon fill="#191970" stroke="#191970" points="2117.7488,-90.6026 2126.7349,-84.99 2116.2101,-83.7738 2117.7488,-90.6026"/>
</g>
<!-- Node46 -->
<g id="node47" class="node">
<title>Node46</title>
<polygon fill="#ffffff" stroke="#bfbfbf" points="2253,-56.5 2253,-86.5 2355,-86.5 2355,-56.5 2253,-56.5"/>
<text text-anchor="start" x="2261" y="-74.5" font-family="Helvetica,sans-Serif" font-size="10.00" fill="#000000">boost/math/special</text>
<text text-anchor="middle" x="2304" y="-63.5" font-family="Helvetica,sans-Serif" font-size="10.00" fill="#000000">_functions/beta.hpp</text>
</g>
<!-- Node9&#45;&gt;Node46 -->
<g id="edge48" class="edge">
<title>Node9&#45;&gt;Node46</title>
<path fill="none" stroke="#191970" d="M1913.1364,-134.0393C1982.14,-126.8441 2118.1231,-111.1858 2242.6158,-87.1434"/>
<polygon fill="#191970" stroke="#191970" points="2243.5604,-90.525 2252.7033,-85.1716 2242.2175,-83.655 2243.5604,-90.525"/>
</g>
<!-- Node11 -->
<g id="node12" class="node">
<title>Node11</title>
<polygon fill="#ffffff" stroke="#bfbfbf" points="0,-.5 0,-19.5 46,-19.5 46,-.5 0,-.5"/>
<text text-anchor="middle" x="23" y="-7.5" font-family="Helvetica,sans-Serif" font-size="10.00" fill="#000000">stdio.h</text>
</g>
<!-- Node10&#45;&gt;Node11 -->
<g id="edge11" class="edge">
<title>Node10&#45;&gt;Node11</title>
<path fill="none" stroke="#191970" d="M1664.0815,-61.8902C1657.4013,-59.5125 1650.0111,-57.2807 1643,-56 1298.9879,6.8422 419.8259,-75.6454 56.3117,-19.6968"/>
<polygon fill="#191970" stroke="#191970" points="56.6628,-16.2086 46.2361,-18.0884 55.5593,-23.1211 56.6628,-16.2086"/>
</g>
<!-- Node12 -->
<g id="node13" class="node">
<title>Node12</title>
<polygon fill="#ffffff" stroke="#bfbfbf" points="64,-.5 64,-19.5 118,-19.5 118,-.5 64,-.5"/>
<text text-anchor="middle" x="91" y="-7.5" font-family="Helvetica,sans-Serif" font-size="10.00" fill="#000000">iostream</text>
</g>
<!-- Node10&#45;&gt;Node12 -->
<g id="edge12" class="edge">
<title>Node10&#45;&gt;Node12</title>
<path fill="none" stroke="#191970" d="M1664.0806,-61.895C1657.4004,-59.5175 1650.0104,-57.2845 1643,-56 1314.6905,4.1563 476.4947,-68.0724 128.2724,-19.7796"/>
<polygon fill="#191970" stroke="#191970" points="128.7635,-16.3143 118.3668,-18.3532 127.7658,-23.2428 128.7635,-16.3143"/>
</g>
<!-- Node13 -->
<g id="node14" class="node">
<title>Node13</title>
<polygon fill="#ffffff" stroke="#bfbfbf" points="136.5,-.5 136.5,-19.5 185.5,-19.5 185.5,-.5 136.5,-.5"/>
<text text-anchor="middle" x="161" y="-7.5" font-family="Helvetica,sans-Serif" font-size="10.00" fill="#000000">istream</text>
</g>
<!-- Node10&#45;&gt;Node13 -->
<g id="edge13" class="edge">
<title>Node10&#45;&gt;Node13</title>
<path fill="none" stroke="#191970" d="M1664.0797,-61.9001C1657.3995,-59.5226 1650.0097,-57.2884 1643,-56 1329.6722,1.5917 529.6252,-68.3725 195.9317,-19.6327"/>
<polygon fill="#191970" stroke="#191970" points="196.124,-16.1218 185.7116,-18.0793 195.0721,-23.0423 196.124,-16.1218"/>
</g>
<!-- Node14 -->
<g id="node15" class="node">
<title>Node14</title>
<polygon fill="#ffffff" stroke="#bfbfbf" points="204,-.5 204,-19.5 254,-19.5 254,-.5 204,-.5"/>
<text text-anchor="middle" x="229" y="-7.5" font-family="Helvetica,sans-Serif" font-size="10.00" fill="#000000">fstream</text>
</g>
<!-- Node10&#45;&gt;Node14 -->
<g id="edge14" class="edge">
<title>Node10&#45;&gt;Node14</title>
<path fill="none" stroke="#191970" d="M1664.0787,-61.9056C1657.3984,-59.5282 1650.0089,-57.2927 1643,-56 1344.5581,-.9556 582.6443,-66.2502 264.297,-19.7235"/>
<polygon fill="#191970" stroke="#191970" points="264.4974,-16.2138 254.0844,-18.168 263.4433,-23.134 264.4974,-16.2138"/>
</g>
<!-- Node15 -->
<g id="node16" class="node">
<title>Node15</title>
<polygon fill="#ffffff" stroke="#bfbfbf" points="272,-.5 272,-19.5 316,-19.5 316,-.5 272,-.5"/>
<text text-anchor="middle" x="294" y="-7.5" font-family="Helvetica,sans-Serif" font-size="10.00" fill="#000000">vector</text>
</g>
<!-- Node10&#45;&gt;Node15 -->
<g id="edge15" class="edge">
<title>Node10&#45;&gt;Node15</title>
<path fill="none" stroke="#191970" d="M1664.0776,-61.9112C1657.3974,-59.5339 1650.0081,-57.297 1643,-56 1358.13,-3.2782 630.3794,-67.991 326.355,-19.6743"/>
<polygon fill="#191970" stroke="#191970" points="326.5988,-16.167 316.1609,-17.9839 325.4536,-23.0727 326.5988,-16.167"/>
</g>
<!-- Node16 -->
<g id="node17" class="node">
<title>Node16</title>
<polygon fill="#ffffff" stroke="#bfbfbf" points="334,-.5 334,-19.5 384,-19.5 384,-.5 334,-.5"/>
<text text-anchor="middle" x="359" y="-7.5" font-family="Helvetica,sans-Serif" font-size="10.00" fill="#000000">iomanip</text>
</g>
<!-- Node10&#45;&gt;Node16 -->
<g id="edge16" class="edge">
<title>Node10&#45;&gt;Node16</title>
<path fill="none" stroke="#191970" d="M1664.0764,-61.9179C1657.3961,-59.5407 1650.0072,-57.3022 1643,-56 1372.9867,-5.8204 683.8586,-62.2136 394.2191,-19.7141"/>
<polygon fill="#191970" stroke="#191970" points="394.5006,-16.2164 384.0856,-18.1602 393.4396,-23.1355 394.5006,-16.2164"/>
</g>
<!-- Node17 -->
<g id="node18" class="node">
<title>Node17</title>
<polygon fill="#ffffff" stroke="#bfbfbf" points="402,-.5 402,-19.5 506,-19.5 506,-.5 402,-.5"/>
<text text-anchor="middle" x="454" y="-7.5" font-family="Helvetica,sans-Serif" font-size="10.00" fill="#000000">Epetra_MpiComm.h</text>
</g>
<!-- Node10&#45;&gt;Node17 -->
<g id="edge17" class="edge">
<title>Node10&#45;&gt;Node17</title>
<path fill="none" stroke="#191970" d="M1664.0738,-61.932C1657.3934,-59.555 1650.0051,-57.3131 1643,-56 1399.6285,-10.3797 780.5925,-43.4739 516.206,-19.9505"/>
<polygon fill="#191970" stroke="#191970" points="516.4667,-16.4598 506.1846,-19.0147 515.8158,-23.4294 516.4667,-16.4598"/>
</g>
<!-- Node18 -->
<g id="node19" class="node">
<title>Node18</title>
<polygon fill="#ffffff" stroke="#bfbfbf" points="524.5,-.5 524.5,-19.5 637.5,-19.5 637.5,-.5 524.5,-.5"/>
<text text-anchor="middle" x="581" y="-7.5" font-family="Helvetica,sans-Serif" font-size="10.00" fill="#000000">Epetra_FECrsGraph.h</text>
</g>
<!-- Node10&#45;&gt;Node18 -->
<g id="edge18" class="edge">
<title>Node10&#45;&gt;Node18</title>
<path fill="none" stroke="#191970" d="M1664.0701,-61.9511C1657.3898,-59.5744 1650.0023,-57.3279 1643,-56 1428.5878,-15.3391 883.7869,-39.8789 648.1338,-19.9507"/>
<polygon fill="#191970" stroke="#191970" points="648.1024,-16.4341 637.831,-19.0321 647.4807,-23.4064 648.1024,-16.4341"/>
</g>
<!-- Node19 -->
<g id="node20" class="node">
<title>Node19</title>
<polygon fill="#ffffff" stroke="#bfbfbf" points="656,-.5 656,-19.5 770,-19.5 770,-.5 656,-.5"/>
<text text-anchor="middle" x="713" y="-7.5" font-family="Helvetica,sans-Serif" font-size="10.00" fill="#000000">Epetra_FECrsMatrix.h</text>
</g>
<!-- Node10&#45;&gt;Node19 -->
<g id="edge19" class="edge">
<title>Node10&#45;&gt;Node19</title>
<path fill="none" stroke="#191970" d="M1664.0654,-61.976C1657.3849,-59.5998 1649.9986,-57.3472 1643,-56 1268.8204,16.0282 1163.3611,-55.5967 780.1603,-19.9986"/>
<polygon fill="#191970" stroke="#191970" points="780.4757,-16.5129 770.1901,-19.0541 779.8155,-23.4817 780.4757,-16.5129"/>
</g>
<!-- Node20 -->
<g id="node21" class="node">
<title>Node20</title>
<polygon fill="#ffffff" stroke="#bfbfbf" points="788,-.5 788,-19.5 888,-19.5 888,-.5 788,-.5"/>
<text text-anchor="middle" x="838" y="-7.5" font-family="Helvetica,sans-Serif" font-size="10.00" fill="#000000">Epetra_FEVector.h</text>
</g>
<!-- Node10&#45;&gt;Node20 -->
<g id="edge20" class="edge">
<title>Node10&#45;&gt;Node20</title>
<path fill="none" stroke="#191970" d="M1663.603,-61.844C1657.0436,-59.5277 1649.8352,-57.3391 1643,-56 1320.5911,7.1629 1228.8808,-54.5079 898.5008,-20.0237"/>
<polygon fill="#191970" stroke="#191970" points="898.4698,-16.5007 888.1551,-18.9207 897.7276,-23.4612 898.4698,-16.5007"/>
</g>
<!-- Node21 -->
<g id="node22" class="node">
<title>Node21</title>
<polygon fill="#ffffff" stroke="#bfbfbf" points="906.5,-.5 906.5,-19.5 993.5,-19.5 993.5,-.5 906.5,-.5"/>
<text text-anchor="middle" x="950" y="-7.5" font-family="Helvetica,sans-Serif" font-size="10.00" fill="#000000">Epetra_Vector.h</text>
</g>
<!-- Node10&#45;&gt;Node21 -->
<g id="edge21" class="edge">
<title>Node10&#45;&gt;Node21</title>
<path fill="none" stroke="#191970" d="M1663.596,-61.8796C1657.0365,-59.5635 1649.8299,-57.366 1643,-56 1366.4824,-.695 1287.0369,-53.7477 1003.7882,-20.0639"/>
<polygon fill="#191970" stroke="#191970" points="1003.9747,-16.5609 993.6255,-18.8288 1003.1301,-23.5098 1003.9747,-16.5609"/>
</g>
<!-- Node22 -->
<g id="node23" class="node">
<title>Node22</title>
<polygon fill="#ffffff" stroke="#bfbfbf" points="1011.5,-.5 1011.5,-19.5 1088.5,-19.5 1088.5,-.5 1011.5,-.5"/>
<text text-anchor="middle" x="1050" y="-7.5" font-family="Helvetica,sans-Serif" font-size="10.00" fill="#000000">Epetra_Map.h</text>
</g>
<!-- Node10&#45;&gt;Node22 -->
<g id="edge22" class="edge">
<title>Node10&#45;&gt;Node22</title>
<path fill="none" stroke="#191970" d="M1663.5871,-61.9236C1657.0276,-59.6076 1649.8232,-57.3992 1643,-56 1408.0215,-7.8123 1339.7509,-52.1447 1098.7722,-20.0625"/>
<polygon fill="#191970" stroke="#191970" points="1099.0317,-16.5656 1088.6508,-18.6839 1098.0869,-23.5015 1099.0317,-16.5656"/>
</g>
<!-- Node23 -->
<g id="node24" class="node">
<title>Node23</title>
<polygon fill="#ffffff" stroke="#bfbfbf" points="1106.5,-.5 1106.5,-19.5 1245.5,-19.5 1245.5,-.5 1106.5,-.5"/>
<text text-anchor="middle" x="1176" y="-7.5" font-family="Helvetica,sans-Serif" font-size="10.00" fill="#000000">Epetra_SerialDenseMatrix.h</text>
</g>
<!-- Node10&#45;&gt;Node23 -->
<g id="edge23" class="edge">
<title>Node10&#45;&gt;Node23</title>
<path fill="none" stroke="#191970" d="M1663.1029,-61.8824C1656.6674,-59.6246 1649.6457,-57.4555 1643,-56 1476.9637,-19.636 1428.9274,-38.157 1255.7309,-20.0283"/>
<polygon fill="#191970" stroke="#191970" points="1256.0882,-16.5466 1245.7719,-18.9602 1255.3416,-23.5067 1256.0882,-16.5466"/>
</g>
<!-- Node24 -->
<g id="node25" class="node">
<title>Node24</title>
<polygon fill="#ffffff" stroke="#bfbfbf" points="1264,-.5 1264,-19.5 1404,-19.5 1404,-.5 1264,-.5"/>
<text text-anchor="middle" x="1334" y="-7.5" font-family="Helvetica,sans-Serif" font-size="10.00" fill="#000000">Epetra_SerialDenseVector.h</text>
</g>
<!-- Node10&#45;&gt;Node24 -->
<g id="edge24" class="edge">
<title>Node10&#45;&gt;Node24</title>
<path fill="none" stroke="#191970" d="M1662.5844,-61.9689C1656.2765,-59.7646 1649.4457,-57.5995 1643,-56 1600.9339,-45.5612 1490.9546,-30.2272 1414.2563,-20.1791"/>
<polygon fill="#191970" stroke="#191970" points="1414.5048,-16.6819 1404.136,-18.8586 1413.599,-23.6231 1414.5048,-16.6819"/>
</g>
<!-- Node25 -->
<g id="node26" class="node">
<title>Node25</title>
<polygon fill="#ffffff" stroke="#bfbfbf" points="1422,-.5 1422,-19.5 1574,-19.5 1574,-.5 1422,-.5"/>
<text text-anchor="middle" x="1498" y="-7.5" font-family="Helvetica,sans-Serif" font-size="10.00" fill="#000000">Epetra_IntSerialDenseVector.h</text>
</g>
<!-- Node10&#45;&gt;Node25 -->
<g id="edge25" class="edge">
<title>Node10&#45;&gt;Node25</title>
<path fill="none" stroke="#191970" d="M1660.0538,-61.8567C1654.4296,-59.8864 1648.5298,-57.8506 1643,-56 1607.9389,-44.2663 1567.8624,-31.6096 1538.7408,-22.5484"/>
<polygon fill="#191970" stroke="#191970" points="1539.5113,-19.1228 1528.9232,-19.5006 1537.4359,-25.8081 1539.5113,-19.1228"/>
</g>
<!-- Node26 -->
<g id="node27" class="node">
<title>Node26</title>
<polygon fill="#ffffff" stroke="#bfbfbf" points="1592,-.5 1592,-19.5 1678,-19.5 1678,-.5 1592,-.5"/>
<text text-anchor="middle" x="1635" y="-7.5" font-family="Helvetica,sans-Serif" font-size="10.00" fill="#000000">Epetra_Import.h</text>
</g>
<!-- Node10&#45;&gt;Node26 -->
<g id="edge26" class="edge">
<title>Node10&#45;&gt;Node26</title>
<path fill="none" stroke="#191970" d="M1678.875,-61.8906C1671.1358,-52.7376 1659.3013,-38.7409 1649.8728,-27.59"/>
<polygon fill="#191970" stroke="#191970" points="1652.3689,-25.1213 1643.2396,-19.7449 1647.0235,-29.6409 1652.3689,-25.1213"/>
</g>
<!-- Node27 -->
<g id="node28" class="node">
<title>Node27</title>
<polygon fill="#ffffff" stroke="#bfbfbf" points="1696.5,-.5 1696.5,-19.5 1783.5,-19.5 1783.5,-.5 1696.5,-.5"/>
<text text-anchor="middle" x="1740" y="-7.5" font-family="Helvetica,sans-Serif" font-size="10.00" fill="#000000">Epetra_Export.h</text>
</g>
<!-- Node10&#45;&gt;Node27 -->
<g id="edge27" class="edge">
<title>Node10&#45;&gt;Node27</title>
<path fill="none" stroke="#191970" d="M1695.2813,-61.8906C1703.1693,-52.7376 1715.2314,-38.7409 1724.8412,-27.59"/>
<polygon fill="#191970" stroke="#191970" points="1727.7251,-29.6049 1731.602,-19.7449 1722.4225,-25.0352 1727.7251,-29.6049"/>
</g>
<!-- Node28 -->
<g id="node29" class="node">
<title>Node28</title>
<polygon fill="#ffffff" stroke="#bfbfbf" points="1802,-.5 1802,-19.5 1882,-19.5 1882,-.5 1802,-.5"/>
<text text-anchor="middle" x="1842" y="-7.5" font-family="Helvetica,sans-Serif" font-size="10.00" fill="#000000">Epetra_Time.h</text>
</g>
<!-- Node10&#45;&gt;Node28 -->
<g id="edge28" class="edge">
<title>Node10&#45;&gt;Node28</title>
<path fill="none" stroke="#191970" d="M1711.2188,-61.8906C1737.3806,-51.5103 1779.2429,-34.9004 1808.5388,-23.2766"/>
<polygon fill="#191970" stroke="#191970" points="1809.9471,-26.4833 1817.9513,-19.5419 1807.3654,-19.9767 1809.9471,-26.4833"/>
</g>
<!-- Node29 -->
<g id="node30" class="node">
<title>Node29</title>
<polygon fill="#ffffff" stroke="#bfbfbf" points="1900.5,-.5 1900.5,-19.5 2047.5,-19.5 2047.5,-.5 1900.5,-.5"/>
<text text-anchor="middle" x="1974" y="-7.5" font-family="Helvetica,sans-Serif" font-size="10.00" fill="#000000">ml_MultiLevelPreconditioner.h</text>
</g>
<!-- Node10&#45;&gt;Node29 -->
<g id="edge29" class="edge">
<title>Node10&#45;&gt;Node29</title>
<path fill="none" stroke="#191970" d="M1711.9233,-61.9825C1718.1003,-59.8289 1724.7434,-57.6838 1731,-56 1786.6431,-41.0253 1850.7278,-29.1093 1899.1115,-21.1604"/>
<polygon fill="#191970" stroke="#191970" points="1899.879,-24.5817 1909.1891,-19.5248 1898.7575,-17.6722 1899.879,-24.5817"/>
</g>
<!-- Node30 -->
<g id="node31" class="node">
<title>Node30</title>
<polygon fill="#ffffff" stroke="#bfbfbf" points="2065.5,-.5 2065.5,-19.5 2156.5,-19.5 2156.5,-.5 2065.5,-.5"/>
<text text-anchor="middle" x="2111" y="-7.5" font-family="Helvetica,sans-Serif" font-size="10.00" fill="#000000">ml_epetra_utils.h</text>
</g>
<!-- Node10&#45;&gt;Node30 -->
<g id="edge30" class="edge">
<title>Node10&#45;&gt;Node30</title>
<path fill="none" stroke="#191970" d="M1710.9146,-61.9609C1717.35,-59.7025 1724.3673,-57.5135 1731,-56 1869.9247,-24.2999 1910.9588,-40.5153 2055.2611,-20.1542"/>
<polygon fill="#191970" stroke="#191970" points="2055.978,-23.587 2065.374,-18.6917 2054.976,-16.6591 2055.978,-23.587"/>
</g>
<!-- Node31 -->
<g id="node32" class="node">
<title>Node31</title>
<polygon fill="#ffffff" stroke="#bfbfbf" points="2174.5,-.5 2174.5,-19.5 2245.5,-19.5 2245.5,-.5 2174.5,-.5"/>
<text text-anchor="middle" x="2210" y="-7.5" font-family="Helvetica,sans-Serif" font-size="10.00" fill="#000000">ml_include.h</text>
</g>
<!-- Node10&#45;&gt;Node31 -->
<g id="edge31" class="edge">
<title>Node10&#45;&gt;Node31</title>
<path fill="none" stroke="#191970" d="M1710.4287,-61.999C1716.9883,-59.6834 1724.1888,-57.4563 1731,-56 1917.4646,-16.1328 1972.402,-48.4252 2163.9445,-20.1331"/>
<polygon fill="#191970" stroke="#191970" points="2164.6974,-23.5591 2174.0609,-18.6018 2163.6496,-16.638 2164.6974,-23.5591"/>
</g>
<!-- Node32 -->
<g id="node33" class="node">
<title>Node32</title>
<polygon fill="#ffffff" stroke="#bfbfbf" points="2263.5,-.5 2263.5,-19.5 2400.5,-19.5 2400.5,-.5 2263.5,-.5"/>
<text text-anchor="middle" x="2332" y="-7.5" font-family="Helvetica,sans-Serif" font-size="10.00" fill="#000000">EpetraExt_RowMatrixOut.h</text>
</g>
<!-- Node10&#45;&gt;Node32 -->
<g id="edge32" class="edge">
<title>Node10&#45;&gt;Node32</title>
<path fill="none" stroke="#191970" d="M1710.4155,-61.936C1716.975,-59.6201 1724.1788,-57.4086 1731,-56 1956.3768,-9.4577 2020.8823,-42.0889 2253.0669,-20.1284"/>
<polygon fill="#191970" stroke="#191970" points="2253.5613,-23.597 2263.1767,-19.1479 2252.8855,-16.6297 2253.5613,-23.597"/>
</g>
<!-- Node33 -->
<g id="node34" class="node">
<title>Node33</title>
<polygon fill="#ffffff" stroke="#bfbfbf" points="2418.5,-.5 2418.5,-19.5 2557.5,-19.5 2557.5,-.5 2418.5,-.5"/>
<text text-anchor="middle" x="2488" y="-7.5" font-family="Helvetica,sans-Serif" font-size="10.00" fill="#000000">EpetraExt_MultiVectorOut.h</text>
</g>
<!-- Node10&#45;&gt;Node33 -->
<g id="edge33" class="edge">
<title>Node10&#45;&gt;Node33</title>
<path fill="none" stroke="#191970" d="M1710.4012,-61.8654C1716.9607,-59.5493 1724.168,-57.3553 1731,-56 2024.0963,2.1434 2107.168,-46.1234 2407.9532,-20.1143"/>
<polygon fill="#191970" stroke="#191970" points="2408.6349,-23.5677 2418.2871,-19.1991 2408.0173,-16.595 2408.6349,-23.5677"/>
</g>
<!-- Node34 -->
<g id="node35" class="node">
<title>Node34</title>
<polygon fill="#ffffff" stroke="#bfbfbf" points="2576,-.5 2576,-19.5 2686,-19.5 2686,-.5 2576,-.5"/>
<text text-anchor="middle" x="2631" y="-7.5" font-family="Helvetica,sans-Serif" font-size="10.00" fill="#000000">EpetraExt_VectorIn.h</text>
</g>
<!-- Node10&#45;&gt;Node34 -->
<g id="edge34" class="edge">
<title>Node10&#45;&gt;Node34</title>
<path fill="none" stroke="#191970" d="M1709.9358,-61.9823C1716.6163,-59.6062 1724.0023,-57.3521 1731,-56 2092.8478,13.9158 2195.0795,-55.4871 2565.69,-20.0081"/>
<polygon fill="#191970" stroke="#191970" points="2566.2799,-23.4672 2575.8922,-19.0116 2565.5993,-16.5004 2566.2799,-23.4672"/>
</g>
<!-- Node35 -->
<g id="node36" class="node">
<title>Node35</title>
<polygon fill="#ffffff" stroke="#bfbfbf" points="2704.5,-.5 2704.5,-19.5 2835.5,-19.5 2835.5,-.5 2704.5,-.5"/>
<text text-anchor="middle" x="2770" y="-7.5" font-family="Helvetica,sans-Serif" font-size="10.00" fill="#000000">EpetraExt_MultiVectorIn.h</text>
</g>
<!-- Node10&#45;&gt;Node35 -->
<g id="edge35" class="edge">
<title>Node10&#45;&gt;Node35</title>
<path fill="none" stroke="#191970" d="M1709.9309,-61.9565C1716.6113,-59.5799 1723.9985,-57.3321 1731,-56 1938.5089,-16.5194 2465.6573,-37.5481 2694.1962,-19.9463"/>
<polygon fill="#191970" stroke="#191970" points="2694.5046,-23.4329 2704.1887,-19.1354 2693.9383,-16.4558 2694.5046,-23.4329"/>
</g>
<!-- Node36 -->
<g id="node37" class="node">
<title>Node36</title>
<polygon fill="#ffffff" stroke="#bfbfbf" points="2854,-.5 2854,-19.5 2954,-19.5 2954,-.5 2854,-.5"/>
<text text-anchor="middle" x="2904" y="-7.5" font-family="Helvetica,sans-Serif" font-size="10.00" fill="#000000">Teuchos_RCP.hpp</text>
</g>
<!-- Node10&#45;&gt;Node36 -->
<g id="edge36" class="edge">
<title>Node10&#45;&gt;Node36</title>
<path fill="none" stroke="#191970" d="M1709.9266,-61.9338C1716.6069,-59.5569 1723.9951,-57.3145 1731,-56 1971.2261,-10.9194 2582.165,-43.8579 2843.5629,-19.9639"/>
<polygon fill="#191970" stroke="#191970" points="2844.2312,-23.4159 2853.8507,-18.9755 2843.5617,-16.448 2844.2312,-23.4159"/>
</g>
<!-- Node37 -->
<g id="node38" class="node">
<title>Node37</title>
<polygon fill="#ffffff" stroke="#bfbfbf" points="2972.5,-.5 2972.5,-19.5 3033.5,-19.5 3033.5,-.5 2972.5,-.5"/>
<text text-anchor="middle" x="3003" y="-7.5" font-family="Helvetica,sans-Serif" font-size="10.00" fill="#000000">Amesos.h</text>
</g>
<!-- Node10&#45;&gt;Node37 -->
<g id="edge37" class="edge">
<title>Node10&#45;&gt;Node37</title>
<path fill="none" stroke="#191970" d="M1709.924,-61.9198C1716.6043,-59.5426 1723.9931,-57.3037 1731,-56 1997.1179,-6.4864 2675.5285,-56.2384 2962.0928,-19.754"/>
<polygon fill="#191970" stroke="#191970" points="2962.6694,-23.2082 2972.1202,-18.4195 2961.7458,-16.2694 2962.6694,-23.2082"/>
</g>
<!-- Node38 -->
<g id="node39" class="node">
<title>Node38</title>
<polygon fill="#ffffff" stroke="#bfbfbf" points="3051.5,-.5 3051.5,-19.5 3116.5,-19.5 3116.5,-.5 3051.5,-.5"/>
<text text-anchor="middle" x="3084" y="-7.5" font-family="Helvetica,sans-Serif" font-size="10.00" fill="#000000">AztecOO.h</text>
</g>
<!-- Node10&#45;&gt;Node38 -->
<g id="edge38" class="edge">
<title>Node10&#45;&gt;Node38</title>
<path fill="none" stroke="#191970" d="M1709.9225,-61.9117C1716.6027,-59.5345 1723.992,-57.2975 1731,-56 2014.5709,-3.5003 2737.4459,-57.532 3041.2564,-19.9167"/>
<polygon fill="#191970" stroke="#191970" points="3041.9765,-23.3528 3051.4451,-18.5992 3041.0788,-16.4106 3041.9765,-23.3528"/>
</g>
<!-- Node39 -->
<g id="node40" class="node">
<title>Node39</title>
<polygon fill="#ffffff" stroke="#bfbfbf" points="3135,-.5 3135,-19.5 3251,-19.5 3251,-.5 3135,-.5"/>
<text text-anchor="middle" x="3193" y="-7.5" font-family="Helvetica,sans-Serif" font-size="10.00" fill="#000000">Amesos_BaseSolver.h</text>
</g>
<!-- Node10&#45;&gt;Node39 -->
<g id="edge39" class="edge">
<title>Node10&#45;&gt;Node39</title>
<path fill="none" stroke="#191970" d="M1709.9211,-61.9044C1716.6013,-59.5269 1723.9909,-57.2917 1731,-56 2032.6914,-.4 2800.3426,-45.938 3124.5436,-19.9798"/>
<polygon fill="#191970" stroke="#191970" points="3125.2738,-23.431 3134.9469,-19.1086 3124.6897,-16.4554 3125.2738,-23.431"/>
</g>
<!-- Node40 -->
<g id="node41" class="node">
<title>Node40</title>
<polygon fill="#ffffff" stroke="#bfbfbf" points="3269.5,-.5 3269.5,-19.5 3318.5,-19.5 3318.5,-.5 3269.5,-.5"/>
<text text-anchor="middle" x="3294" y="-7.5" font-family="Helvetica,sans-Serif" font-size="10.00" fill="#000000">metis.h</text>
</g>
<!-- Node10&#45;&gt;Node40 -->
<g id="edge40" class="edge">
<title>Node10&#45;&gt;Node40</title>
<path fill="none" stroke="#191970" d="M1709.9192,-61.8941C1716.5994,-59.5165 1723.9895,-57.2838 1731,-56 2062.1294,4.6384 2907.8838,-70.9354 3259.2926,-19.5991"/>
<polygon fill="#191970" stroke="#191970" points="3259.9268,-23.0431 3269.289,-18.0832 3258.8772,-16.1222 3259.9268,-23.0431"/>
</g>
<!-- Node41 -->
<g id="node42" class="node">
<title>Node41</title>
<g id="a_node42"><a xlink:href="../../d4/dbc/fepp_8hpp.html" target="_top" xlink:title="fepp.hpp">
<polygon fill="#ffffff" stroke="#000000" points="3337,-.5 3337,-19.5 3391,-19.5 3391,-.5 3337,-.5"/>
<text text-anchor="middle" x="3364" y="-7.5" font-family="Helvetica,sans-Serif" font-size="10.00" fill="#000000">fepp.hpp</text>
</a>
</g>
</g>
<!-- Node10&#45;&gt;Node41 -->
<g id="edge41" class="edge">
<title>Node10&#45;&gt;Node41</title>
<path fill="none" stroke="#191970" d="M1701.284,-61.8896C1707.5986,-59.5119 1714.9888,-57.2803 1722,-56 2071.2045,7.7677 2967.8361,-71.9038 3319,-20 3321.6169,-19.6132 3324.3136,-19.0959 3327.0347,-18.4994"/>
<polygon fill="#191970" stroke="#191970" points="3328.0155,-21.8627 3336.8959,-16.0844 3326.3503,-15.0637 3328.0155,-21.8627"/>
</g>
<!-- Node41&#45;&gt;Node10 -->
<g id="edge42" class="edge">
<title>Node41&#45;&gt;Node10</title>
<path fill="none" stroke="#191970" d="M3339.7181,-19.5576C3338.8061,-19.719 3337.8984,-19.8672 3337,-20 2985.8361,-71.9038 2089.2045,7.7677 1740,-56 1736.1658,-56.7002 1732.2182,-57.6848 1728.2755,-58.8223"/>
<polygon fill="#191970" stroke="#191970" points="1727.0365,-55.5431 1718.5528,-61.8896 1729.1426,-62.2188 1727.0365,-55.5431"/>
</g>
</g>
</svg>
