<?xml version="1.0" encoding="UTF-8" standalone="no"?>
<!DOCTYPE svg PUBLIC "-//W3C//DTD SVG 1.1//EN"
 "http://www.w3.org/Graphics/SVG/1.1/DTD/svg11.dtd">
<!-- Generated by graphviz version 2.40.1 (20161225.0304)
 -->
<!-- Title: src/RandomGeneratorForPCA_andLikelihood.hpp Pages: 1 -->
<svg width="276pt" height="102pt"
 viewBox="0.00 0.00 275.96 102.00" xmlns="http://www.w3.org/2000/svg" xmlns:xlink="http://www.w3.org/1999/xlink">
<g id="graph0" class="graph" transform="scale(1 1) rotate(0) translate(4 98)">
<title>src/RandomGeneratorForPCA_andLikelihood.hpp</title>
<polygon fill="#ffffff" stroke="transparent" points="-4,4 -4,-98 271.9551,-98 271.9551,4 -4,4"/>
<!-- Node60 -->
<g id="node1" class="node">
<title>Node60</title>
<polygon fill="#bfbfbf" stroke="#000000" points="68.5171,-65.5 68.5171,-93.5 219.0093,-93.5 219.0093,-65.5 68.5171,-65.5"/>
<text text-anchor="start" x="76.5171" y="-81.5" font-family="Helvetica,sans-Serif" font-size="10.00" fill="#000000">src/RandomGeneratorForPCA</text>
<text text-anchor="middle" x="143.7632" y="-71.5" font-family="Helvetica,sans-Serif" font-size="10.00" fill="#000000">_andLikelihood.hpp</text>
</g>
<!-- Node61 -->
<g id="node2" class="node">
<title>Node61</title>
<g id="a_node2"><a xlink:href="../../d5/daf/nrl_2random__generator__for__pca__likelihood_2main_8cpp.html" target="_top" xlink:title="nrl/random_generator\l_for_pca_likelihood/main.cpp">
<polygon fill="#ffffff" stroke="#000000" points="0,-.5 0,-28.5 145.5264,-28.5 145.5264,-.5 0,-.5"/>
<text text-anchor="start" x="8" y="-16.5" font-family="Helvetica,sans-Serif" font-size="10.00" fill="#000000">nrl/random_generator</text>
<text text-anchor="middle" x="72.7632" y="-6.5" font-family="Helvetica,sans-Serif" font-size="10.00" fill="#000000">_for_pca_likelihood/main.cpp</text>
</a>
</g>
</g>
<!-- Node60&#45;&gt;Node61 -->
<g id="edge1" class="edge">
<title>Node60&#45;&gt;Node61</title>
<path fill="none" stroke="#191970" d="M120.9315,-58.5978C110.2108,-48.7831 97.716,-37.3442 88.1391,-28.5765"/>
<polygon fill="#191970" stroke="#191970" points="118.618,-61.225 128.3572,-65.396 123.3448,-56.0618 118.618,-61.225"/>
</g>
<!-- Node62 -->
<g id="node3" class="node">
<title>Node62</title>
<g id="a_node3"><a xlink:href="../../db/d7d/nrl_2testing__solutions_2main_8cpp.html" target="_top" xlink:title="nrl/testing_solutions\l/main.cpp">
<polygon fill="#ffffff" stroke="#000000" points="163.5713,-.5 163.5713,-28.5 267.9551,-28.5 267.9551,-.5 163.5713,-.5"/>
<text text-anchor="start" x="171.5713" y="-16.5" font-family="Helvetica,sans-Serif" font-size="10.00" fill="#000000">nrl/testing_solutions</text>
<text text-anchor="middle" x="215.7632" y="-6.5" font-family="Helvetica,sans-Serif" font-size="10.00" fill="#000000">/main.cpp</text>
</a>
</g>
</g>
<!-- Node60&#45;&gt;Node62 -->
<g id="edge2" class="edge">
<title>Node60&#45;&gt;Node62</title>
<path fill="none" stroke="#191970" d="M166.9164,-58.5978C177.7881,-48.7831 190.4589,-37.3442 200.1707,-28.5765"/>
<polygon fill="#191970" stroke="#191970" points="164.4634,-56.097 159.3861,-65.396 169.1542,-61.2929 164.4634,-56.097"/>
</g>
</g>
</svg>
