<?xml version="1.0" encoding="UTF-8" standalone="no"?>
<!DOCTYPE svg PUBLIC "-//W3C//DTD SVG 1.1//EN"
 "http://www.w3.org/Graphics/SVG/1.1/DTD/svg11.dtd">
<!-- Generated by graphviz version 2.40.1 (20161225.0304)
 -->
<!-- Title: nrl/randomsearch_deterministicmodel/RandomSearch_DeterministicModel.hpp Pages: 1 -->
<svg width="3155pt" height="387pt"
 viewBox="0.00 0.00 3154.66 387.00" xmlns="http://www.w3.org/2000/svg" xmlns:xlink="http://www.w3.org/1999/xlink">
<g id="graph0" class="graph" transform="scale(1 1) rotate(0) translate(4 383)">
<title>nrl/randomsearch_deterministicmodel/RandomSearch_DeterministicModel.hpp</title>
<polygon fill="#ffffff" stroke="transparent" points="-4,4 -4,-383 3150.6572,-383 3150.6572,4 -4,4"/>
<!-- Node0 -->
<g id="node1" class="node">
<title>Node0</title>
<polygon fill="#bfbfbf" stroke="#000000" points="2545.9165,-350.5 2545.9165,-378.5 2744.2261,-378.5 2744.2261,-350.5 2545.9165,-350.5"/>
<text text-anchor="start" x="2553.9165" y="-366.5" font-family="Helvetica,sans-Serif" font-size="10.00" fill="#000000">nrl/randomsearch_deterministicmodel</text>
<text text-anchor="middle" x="2645.0713" y="-356.5" font-family="Helvetica,sans-Serif" font-size="10.00" fill="#000000">/RandomSearch_DeterministicModel.hpp</text>
</g>
<!-- Node1 -->
<g id="node2" class="node">
<title>Node1</title>
<polygon fill="#ffffff" stroke="#bfbfbf" points="1234.7856,-290.5 1234.7856,-308.5 1281.3569,-308.5 1281.3569,-290.5 1234.7856,-290.5"/>
<text text-anchor="middle" x="1258.0713" y="-296.5" font-family="Helvetica,sans-Serif" font-size="10.00" fill="#000000">math.h</text>
</g>
<!-- Node0&#45;&gt;Node1 -->
<g id="edge1" class="edge">
<title>Node0&#45;&gt;Node1</title>
<path fill="none" stroke="#191970" d="M2545.9091,-363.015C2254.0632,-358.3352 1411.0114,-342.4897 1290.0713,-314 1288.1567,-313.549 1286.2166,-312.9815 1284.2879,-312.334"/>
<polygon fill="#191970" stroke="#191970" points="1285.4946,-309.0473 1274.9092,-308.5992 1282.9048,-315.5506 1285.4946,-309.0473"/>
</g>
<!-- Node2 -->
<g id="node3" class="node">
<title>Node2</title>
<g id="a_node3"><a xlink:href="../../df/dc0/_compressible___mooney___transverse___isotropic_8hpp.html" target="_top" xlink:title="Compressible_Mooney\l_Transverse_Isotropic.hpp">
<polygon fill="#ffffff" stroke="#000000" points="1299.0576,-285.5 1299.0576,-313.5 1433.085,-313.5 1433.085,-285.5 1299.0576,-285.5"/>
<text text-anchor="start" x="1307.0576" y="-301.5" font-family="Helvetica,sans-Serif" font-size="10.00" fill="#000000">Compressible_Mooney</text>
<text text-anchor="middle" x="1366.0713" y="-291.5" font-family="Helvetica,sans-Serif" font-size="10.00" fill="#000000">_Transverse_Isotropic.hpp</text>
</a>
</g>
</g>
<!-- Node0&#45;&gt;Node2 -->
<g id="edge2" class="edge">
<title>Node0&#45;&gt;Node2</title>
<path fill="none" stroke="#191970" d="M2545.7746,-359.4536C2299.5059,-346.938 1664.5897,-314.671 1443.4219,-303.431"/>
<polygon fill="#191970" stroke="#191970" points="1443.3709,-299.924 1433.2061,-302.9119 1443.0155,-306.915 1443.3709,-299.924"/>
</g>
<!-- Node41 -->
<g id="node34" class="node">
<title>Node41</title>
<g id="a_node34"><a xlink:href="../../d7/d17/_newton___raphsonpp_8hpp.html" target="_top" xlink:title="Newton_Raphsonpp.hpp">
<polygon fill="#ffffff" stroke="#000000" points="1792.0298,-290.5 1792.0298,-308.5 1918.1128,-308.5 1918.1128,-290.5 1792.0298,-290.5"/>
<text text-anchor="middle" x="1855.0713" y="-296.5" font-family="Helvetica,sans-Serif" font-size="10.00" fill="#000000">Newton_Raphsonpp.hpp</text>
</a>
</g>
</g>
<!-- Node0&#45;&gt;Node41 -->
<g id="edge35" class="edge">
<title>Node0&#45;&gt;Node41</title>
<path fill="none" stroke="#191970" d="M2545.8172,-356.3335C2385.01,-343.1025 2071.1891,-317.2818 1928.6564,-305.5545"/>
<polygon fill="#191970" stroke="#191970" points="1928.536,-302.0328 1918.2827,-304.7009 1927.962,-309.0093 1928.536,-302.0328"/>
</g>
<!-- Node52 -->
<g id="node45" class="node">
<title>Node52</title>
<g id="a_node45"><a xlink:href="../../d5/d75/distributenrldata_8hpp.html" target="_top" xlink:title="distributenrldata.hpp">
<polygon fill="#ffffff" stroke="#000000" points="2420.7637,-110.5 2420.7637,-128.5 2527.3789,-128.5 2527.3789,-110.5 2420.7637,-110.5"/>
<text text-anchor="middle" x="2474.0713" y="-116.5" font-family="Helvetica,sans-Serif" font-size="10.00" fill="#000000">distributenrldata.hpp</text>
</a>
</g>
</g>
<!-- Node0&#45;&gt;Node52 -->
<g id="edge49" class="edge">
<title>Node0&#45;&gt;Node52</title>
<path fill="none" stroke="#191970" d="M2637.206,-350.0879C2631.8542,-340.0788 2624.7419,-326.3706 2619.0713,-314 2600.2937,-273.0363 2606.5318,-257.1803 2581.0713,-220 2557.0669,-184.9461 2518.9527,-152.9292 2495.2837,-134.8583"/>
<polygon fill="#191970" stroke="#191970" points="2497.0812,-131.8317 2486.9791,-128.638 2492.8847,-137.4343 2497.0812,-131.8317"/>
</g>
<!-- Node54 -->
<g id="node47" class="node">
<title>Node54</title>
<polygon fill="#ffffff" stroke="#bfbfbf" points="2627.8745,-285.5 2627.8745,-313.5 2752.2681,-313.5 2752.2681,-285.5 2627.8745,-285.5"/>
<text text-anchor="start" x="2635.8745" y="-301.5" font-family="Helvetica,sans-Serif" font-size="10.00" fill="#000000">boost/random/mersenne</text>
<text text-anchor="middle" x="2690.0713" y="-291.5" font-family="Helvetica,sans-Serif" font-size="10.00" fill="#000000">_twister.hpp</text>
</g>
<!-- Node0&#45;&gt;Node54 -->
<g id="edge67" class="edge">
<title>Node0&#45;&gt;Node54</title>
<path fill="none" stroke="#191970" d="M2654.8356,-350.396C2660.6146,-342.0486 2668.0648,-331.2871 2674.625,-321.8113"/>
<polygon fill="#191970" stroke="#191970" points="2677.5116,-323.7907 2680.326,-313.5765 2671.7562,-319.8062 2677.5116,-323.7907"/>
</g>
<!-- Node55 -->
<g id="node48" class="node">
<title>Node55</title>
<polygon fill="#ffffff" stroke="#bfbfbf" points="2769.8252,-285.5 2769.8252,-313.5 2880.3174,-313.5 2880.3174,-285.5 2769.8252,-285.5"/>
<text text-anchor="start" x="2777.8252" y="-301.5" font-family="Helvetica,sans-Serif" font-size="10.00" fill="#000000">boost/random/normal</text>
<text text-anchor="middle" x="2825.0713" y="-291.5" font-family="Helvetica,sans-Serif" font-size="10.00" fill="#000000">_distribution.hpp</text>
</g>
<!-- Node0&#45;&gt;Node55 -->
<g id="edge68" class="edge">
<title>Node0&#45;&gt;Node55</title>
<path fill="none" stroke="#191970" d="M2684.1286,-350.396C2711.2543,-340.6006 2747.5857,-327.4809 2776.5673,-317.0153"/>
<polygon fill="#191970" stroke="#191970" points="2777.8734,-320.265 2786.0902,-313.5765 2775.4959,-313.6811 2777.8734,-320.265"/>
</g>
<!-- Node56 -->
<g id="node49" class="node">
<title>Node56</title>
<polygon fill="#ffffff" stroke="#bfbfbf" points="2898.436,-285.5 2898.436,-313.5 3011.7065,-313.5 3011.7065,-285.5 2898.436,-285.5"/>
<text text-anchor="start" x="2906.436" y="-301.5" font-family="Helvetica,sans-Serif" font-size="10.00" fill="#000000">boost/random/uniform</text>
<text text-anchor="middle" x="2955.0713" y="-291.5" font-family="Helvetica,sans-Serif" font-size="10.00" fill="#000000">_real_distribution.hpp</text>
</g>
<!-- Node0&#45;&gt;Node56 -->
<g id="edge69" class="edge">
<title>Node0&#45;&gt;Node56</title>
<path fill="none" stroke="#191970" d="M2714.0068,-350.4657C2760.5147,-340.9432 2823.5389,-327.9347 2888.2259,-314.1667"/>
<polygon fill="#191970" stroke="#191970" points="2889.1486,-317.5487 2898.1991,-312.0407 2887.6892,-310.7025 2889.1486,-317.5487"/>
</g>
<!-- Node57 -->
<g id="node50" class="node">
<title>Node57</title>
<polygon fill="#ffffff" stroke="#bfbfbf" points="3029.4854,-285.5 3029.4854,-313.5 3146.6572,-313.5 3146.6572,-285.5 3029.4854,-285.5"/>
<text text-anchor="start" x="3037.4854" y="-301.5" font-family="Helvetica,sans-Serif" font-size="10.00" fill="#000000">boost/math/special</text>
<text text-anchor="middle" x="3088.0713" y="-291.5" font-family="Helvetica,sans-Serif" font-size="10.00" fill="#000000">_functions/gamma.hpp</text>
</g>
<!-- Node0&#45;&gt;Node57 -->
<g id="edge70" class="edge">
<title>Node0&#45;&gt;Node57</title>
<path fill="none" stroke="#191970" d="M2744.3596,-353.3518C2817.834,-344.5911 2920.558,-331.2761 3019.1547,-314.2627"/>
<polygon fill="#191970" stroke="#191970" points="3020.0458,-317.6603 3029.2972,-312.4968 3018.845,-310.7641 3020.0458,-317.6603"/>
</g>
<!-- Node3 -->
<g id="node4" class="node">
<title>Node3</title>
<g id="a_node4"><a xlink:href="../../de/d49/tensor__calculus_8hpp.html" target="_top" xlink:title="tensor_calculus.hpp">
<polygon fill="#ffffff" stroke="#000000" points="835.5986,-165.5 835.5986,-183.5 940.5439,-183.5 940.5439,-165.5 835.5986,-165.5"/>
<text text-anchor="middle" x="888.0713" y="-171.5" font-family="Helvetica,sans-Serif" font-size="10.00" fill="#000000">tensor_calculus.hpp</text>
</a>
</g>
</g>
<!-- Node2&#45;&gt;Node3 -->
<g id="edge3" class="edge">
<title>Node2&#45;&gt;Node3</title>
<path fill="none" stroke="#191970" d="M1298.9922,-286.3447C1295.9812,-285.8669 1292.997,-285.4157 1290.0713,-285 1205.4349,-272.976 972.0453,-304.5543 907.0713,-249 891.259,-235.4802 887.6579,-210.808 887.2601,-193.5745"/>
<polygon fill="#191970" stroke="#191970" points="890.7604,-193.5518 887.3651,-183.5158 883.7608,-193.4786 890.7604,-193.5518"/>
</g>
<!-- Node36 -->
<g id="node30" class="node">
<title>Node36</title>
<g id="a_node30"><a xlink:href="../../de/d9d/hyperelasticity__setup__pp_8hpp.html" target="_top" xlink:title="hyperelasticity_setup\l_pp.hpp">
<polygon fill="#ffffff" stroke="#000000" points="916.3794,-220.5 916.3794,-248.5 1025.7632,-248.5 1025.7632,-220.5 916.3794,-220.5"/>
<text text-anchor="start" x="924.3794" y="-236.5" font-family="Helvetica,sans-Serif" font-size="10.00" fill="#000000">hyperelasticity_setup</text>
<text text-anchor="middle" x="971.0713" y="-226.5" font-family="Helvetica,sans-Serif" font-size="10.00" fill="#000000">_pp.hpp</text>
</a>
</g>
</g>
<!-- Node2&#45;&gt;Node36 -->
<g id="edge29" class="edge">
<title>Node2&#45;&gt;Node36</title>
<path fill="none" stroke="#191970" d="M1298.9643,-286.5251C1295.9609,-285.9985 1292.9859,-285.4876 1290.0713,-285 1179.353,-266.4762 1150.6125,-268.5531 1040.0713,-249 1038.7831,-248.7721 1037.4821,-248.538 1036.1718,-248.2986"/>
<polygon fill="#191970" stroke="#191970" points="1036.4734,-244.7936 1025.9971,-246.3738 1035.1722,-251.6716 1036.4734,-244.7936"/>
</g>
<!-- Node4 -->
<g id="node5" class="node">
<title>Node4</title>
<g id="a_node5"><a xlink:href="../../d0/d02/meshpp_8hpp.html" target="_top" xlink:title="meshpp.hpp">
<polygon fill="#ffffff" stroke="#ff0000" points="1343.5518,-55.5 1343.5518,-73.5 1414.5908,-73.5 1414.5908,-55.5 1343.5518,-55.5"/>
<text text-anchor="middle" x="1379.0713" y="-61.5" font-family="Helvetica,sans-Serif" font-size="10.00" fill="#000000">meshpp.hpp</text>
</a>
</g>
</g>
<!-- Node3&#45;&gt;Node4 -->
<g id="edge4" class="edge">
<title>Node3&#45;&gt;Node4</title>
<path fill="none" stroke="#191970" d="M928.2519,-165.4982C1018.7438,-145.2251 1238.036,-96.0965 1333.4536,-74.7199"/>
<polygon fill="#191970" stroke="#191970" points="1334.3853,-78.098 1343.3782,-72.4964 1332.8549,-71.2673 1334.3853,-78.098"/>
</g>
<!-- Node5 -->
<g id="node6" class="node">
<title>Node5</title>
<polygon fill="#ffffff" stroke="#bfbfbf" points="2147.3398,-.5 2147.3398,-18.5 2192.8027,-18.5 2192.8027,-.5 2147.3398,-.5"/>
<text text-anchor="middle" x="2170.0713" y="-6.5" font-family="Helvetica,sans-Serif" font-size="10.00" fill="#000000">stdio.h</text>
</g>
<!-- Node4&#45;&gt;Node5 -->
<g id="edge5" class="edge">
<title>Node4&#45;&gt;Node5</title>
<path fill="none" stroke="#191970" d="M1414.91,-63.4388C1542.7979,-59.4865 1977.141,-44.6021 2137.0218,-18.7096"/>
<polygon fill="#191970" stroke="#191970" points="2137.8776,-22.1144 2147.1498,-16.9882 2136.7046,-15.2134 2137.8776,-22.1144"/>
</g>
<!-- Node6 -->
<g id="node7" class="node">
<title>Node6</title>
<polygon fill="#ffffff" stroke="#bfbfbf" points="2210.8989,-.5 2210.8989,-18.5 2265.2437,-18.5 2265.2437,-.5 2210.8989,-.5"/>
<text text-anchor="middle" x="2238.0713" y="-6.5" font-family="Helvetica,sans-Serif" font-size="10.00" fill="#000000">iostream</text>
</g>
<!-- Node4&#45;&gt;Node6 -->
<g id="edge6" class="edge">
<title>Node4&#45;&gt;Node6</title>
<path fill="none" stroke="#191970" d="M1415.0309,-63.4829C1550.0976,-59.5148 2027.7743,-44.1149 2200.7091,-18.8627"/>
<polygon fill="#191970" stroke="#191970" points="2201.3184,-22.3103 2210.676,-17.3418 2200.2624,-15.3904 2201.3184,-22.3103"/>
</g>
<!-- Node7 -->
<g id="node8" class="node">
<title>Node7</title>
<polygon fill="#ffffff" stroke="#bfbfbf" points="2639.6797,-.5 2639.6797,-18.5 2688.4629,-18.5 2688.4629,-.5 2639.6797,-.5"/>
<text text-anchor="middle" x="2664.0713" y="-6.5" font-family="Helvetica,sans-Serif" font-size="10.00" fill="#000000">istream</text>
</g>
<!-- Node4&#45;&gt;Node7 -->
<g id="edge7" class="edge">
<title>Node4&#45;&gt;Node7</title>
<path fill="none" stroke="#191970" d="M1414.8332,-64.3763C1590.8306,-63.5909 2366.7208,-58.0259 2629.113,-18.9033"/>
<polygon fill="#191970" stroke="#191970" points="2630.0056,-22.3068 2639.3519,-17.3172 2628.934,-15.3893 2630.0056,-22.3068"/>
</g>
<!-- Node8 -->
<g id="node9" class="node">
<title>Node8</title>
<polygon fill="#ffffff" stroke="#bfbfbf" points="2442.4014,-.5 2442.4014,-18.5 2491.7412,-18.5 2491.7412,-.5 2442.4014,-.5"/>
<text text-anchor="middle" x="2467.0713" y="-6.5" font-family="Helvetica,sans-Serif" font-size="10.00" fill="#000000">fstream</text>
</g>
<!-- Node4&#45;&gt;Node8 -->
<g id="edge8" class="edge">
<title>Node4&#45;&gt;Node8</title>
<path fill="none" stroke="#191970" d="M1414.6354,-64.0978C1572.5156,-62.1416 2211.5504,-52.3778 2432.4626,-18.861"/>
<polygon fill="#191970" stroke="#191970" points="2433.0178,-22.3168 2442.3489,-17.2987 2431.9251,-15.4026 2433.0178,-22.3168"/>
</g>
<!-- Node9 -->
<g id="node10" class="node">
<title>Node9</title>
<polygon fill="#ffffff" stroke="#bfbfbf" points="2578.4556,-.5 2578.4556,-18.5 2621.687,-18.5 2621.687,-.5 2578.4556,-.5"/>
<text text-anchor="middle" x="2600.0713" y="-6.5" font-family="Helvetica,sans-Serif" font-size="10.00" fill="#000000">vector</text>
</g>
<!-- Node4&#45;&gt;Node9 -->
<g id="edge9" class="edge">
<title>Node4&#45;&gt;Node9</title>
<path fill="none" stroke="#191970" d="M1414.8153,-64.4247C1585.5008,-63.8712 2319.267,-59.2474 2568.2151,-18.8447"/>
<polygon fill="#191970" stroke="#191970" points="2569.0077,-22.2605 2578.2851,-17.1439 2567.8419,-15.3583 2569.0077,-22.2605"/>
</g>
<!-- Node10 -->
<g id="node11" class="node">
<title>Node10</title>
<polygon fill="#ffffff" stroke="#bfbfbf" points="2509.5615,-.5 2509.5615,-18.5 2560.5811,-18.5 2560.5811,-.5 2509.5615,-.5"/>
<text text-anchor="middle" x="2535.0713" y="-6.5" font-family="Helvetica,sans-Serif" font-size="10.00" fill="#000000">iomanip</text>
</g>
<!-- Node4&#45;&gt;Node10 -->
<g id="edge10" class="edge">
<title>Node4&#45;&gt;Node10</title>
<path fill="none" stroke="#191970" d="M1414.6366,-64.1666C1578.6661,-62.462 2263.8239,-53.471 2499.0311,-18.9466"/>
<polygon fill="#191970" stroke="#191970" points="2499.8629,-22.3602 2509.2195,-17.3898 2498.8056,-15.4405 2499.8629,-22.3602"/>
</g>
<!-- Node11 -->
<g id="node12" class="node">
<title>Node11</title>
<polygon fill="#ffffff" stroke="#bfbfbf" points="402.6108,-.5 402.6108,-18.5 507.5317,-18.5 507.5317,-.5 402.6108,-.5"/>
<text text-anchor="middle" x="455.0713" y="-6.5" font-family="Helvetica,sans-Serif" font-size="10.00" fill="#000000">Epetra_MpiComm.h</text>
</g>
<!-- Node4&#45;&gt;Node11 -->
<g id="edge11" class="edge">
<title>Node4&#45;&gt;Node11</title>
<path fill="none" stroke="#191970" d="M1343.2096,-63.9163C1226.0377,-61.7332 843.7468,-52.4314 517.7143,-19.0727"/>
<polygon fill="#191970" stroke="#191970" points="517.9062,-15.574 507.5995,-18.0282 517.1871,-22.537 517.9062,-15.574"/>
</g>
<!-- Node12 -->
<g id="node13" class="node">
<title>Node12</title>
<polygon fill="#ffffff" stroke="#bfbfbf" points="525.3276,-.5 525.3276,-18.5 640.8149,-18.5 640.8149,-.5 525.3276,-.5"/>
<text text-anchor="middle" x="583.0713" y="-6.5" font-family="Helvetica,sans-Serif" font-size="10.00" fill="#000000">Epetra_FECrsGraph.h</text>
</g>
<!-- Node4&#45;&gt;Node12 -->
<g id="edge12" class="edge">
<title>Node4&#45;&gt;Node12</title>
<path fill="none" stroke="#191970" d="M1343.3374,-63.2645C1238.6539,-59.434 923.4501,-46.3954 651.2145,-19.0391"/>
<polygon fill="#191970" stroke="#191970" points="651.4438,-15.5445 641.1419,-18.0183 650.738,-22.5088 651.4438,-15.5445"/>
</g>
<!-- Node13 -->
<g id="node14" class="node">
<title>Node13</title>
<polygon fill="#ffffff" stroke="#bfbfbf" points="658.6133,-.5 658.6133,-18.5 773.5293,-18.5 773.5293,-.5 658.6133,-.5"/>
<text text-anchor="middle" x="716.0713" y="-6.5" font-family="Helvetica,sans-Serif" font-size="10.00" fill="#000000">Epetra_FECrsMatrix.h</text>
</g>
<!-- Node4&#45;&gt;Node13 -->
<g id="edge13" class="edge">
<title>Node4&#45;&gt;Node13</title>
<path fill="none" stroke="#191970" d="M1343.33,-62.6123C1251.9431,-57.6071 1002.1183,-42.8036 783.684,-19.1155"/>
<polygon fill="#191970" stroke="#191970" points="783.9565,-15.6245 773.6354,-18.017 783.1958,-22.5831 783.9565,-15.6245"/>
</g>
<!-- Node14 -->
<g id="node15" class="node">
<title>Node14</title>
<polygon fill="#ffffff" stroke="#bfbfbf" points="791.0962,-.5 791.0962,-18.5 891.0464,-18.5 891.0464,-.5 791.0962,-.5"/>
<text text-anchor="middle" x="841.0713" y="-6.5" font-family="Helvetica,sans-Serif" font-size="10.00" fill="#000000">Epetra_FEVector.h</text>
</g>
<!-- Node4&#45;&gt;Node14 -->
<g id="edge14" class="edge">
<title>Node4&#45;&gt;Node14</title>
<path fill="none" stroke="#191970" d="M1343.53,-61.9181C1265.4519,-56.0757 1072.8951,-40.736 901.2244,-19.0757"/>
<polygon fill="#191970" stroke="#191970" points="901.613,-15.597 891.2512,-17.8071 900.7296,-22.5411 901.613,-15.597"/>
</g>
<!-- Node15 -->
<g id="node16" class="node">
<title>Node15</title>
<polygon fill="#ffffff" stroke="#bfbfbf" points="909.4854,-.5 909.4854,-18.5 996.6572,-18.5 996.6572,-.5 909.4854,-.5"/>
<text text-anchor="middle" x="953.0713" y="-6.5" font-family="Helvetica,sans-Serif" font-size="10.00" fill="#000000">Epetra_Vector.h</text>
</g>
<!-- Node4&#45;&gt;Node15 -->
<g id="edge15" class="edge">
<title>Node4&#45;&gt;Node15</title>
<path fill="none" stroke="#191970" d="M1343.495,-60.831C1278.7311,-54.0069 1137.0437,-38.4103 1006.8616,-19.0433"/>
<polygon fill="#191970" stroke="#191970" points="1007.1204,-15.5431 996.7121,-17.5221 1006.0828,-22.4657 1007.1204,-15.5431"/>
</g>
<!-- Node16 -->
<g id="node17" class="node">
<title>Node16</title>
<polygon fill="#ffffff" stroke="#bfbfbf" points="1014.6626,-.5 1014.6626,-18.5 1093.48,-18.5 1093.48,-.5 1014.6626,-.5"/>
<text text-anchor="middle" x="1054.0713" y="-6.5" font-family="Helvetica,sans-Serif" font-size="10.00" fill="#000000">Epetra_Map.h</text>
</g>
<!-- Node4&#45;&gt;Node16 -->
<g id="edge16" class="edge">
<title>Node4&#45;&gt;Node16</title>
<path fill="none" stroke="#191970" d="M1343.2886,-58.9303C1292.4607,-50.9469 1196.189,-35.5609 1103.7238,-19.0754"/>
<polygon fill="#191970" stroke="#191970" points="1104.0941,-15.5861 1093.6338,-17.2693 1102.8606,-22.4766 1104.0941,-15.5861"/>
</g>
<!-- Node17 -->
<g id="node18" class="node">
<title>Node17</title>
<polygon fill="#ffffff" stroke="#bfbfbf" points="1871.542,-.5 1871.542,-18.5 2012.6006,-18.5 2012.6006,-.5 1871.542,-.5"/>
<text text-anchor="middle" x="1942.0713" y="-6.5" font-family="Helvetica,sans-Serif" font-size="10.00" fill="#000000">Epetra_SerialDenseMatrix.h</text>
</g>
<!-- Node4&#45;&gt;Node17 -->
<g id="edge17" class="edge">
<title>Node4&#45;&gt;Node17</title>
<path fill="none" stroke="#191970" d="M1414.8508,-61.4287C1493.4649,-54.6163 1687.4123,-37.4581 1861.3079,-19.058"/>
<polygon fill="#191970" stroke="#191970" points="1861.8371,-22.5216 1871.4115,-17.9851 1861.0978,-15.5607 1861.8371,-22.5216"/>
</g>
<!-- Node18 -->
<g id="node19" class="node">
<title>Node18</title>
<polygon fill="#ffffff" stroke="#bfbfbf" points="2283.249,-.5 2283.249,-18.5 2424.8936,-18.5 2424.8936,-.5 2283.249,-.5"/>
<text text-anchor="middle" x="2354.0713" y="-6.5" font-family="Helvetica,sans-Serif" font-size="10.00" fill="#000000">Epetra_SerialDenseVector.h</text>
</g>
<!-- Node4&#45;&gt;Node18 -->
<g id="edge18" class="edge">
<title>Node4&#45;&gt;Node18</title>
<path fill="none" stroke="#191970" d="M1414.9401,-63.5449C1534.8486,-60.1687 1932.8842,-47.4814 2272.9526,-19.0382"/>
<polygon fill="#191970" stroke="#191970" points="2273.3257,-22.5192 2282.9966,-18.1921 2272.7381,-15.544 2273.3257,-22.5192"/>
</g>
<!-- Node19 -->
<g id="node20" class="node">
<title>Node19</title>
<polygon fill="#ffffff" stroke="#bfbfbf" points="1111.6899,-.5 1111.6899,-18.5 1264.4526,-18.5 1264.4526,-.5 1111.6899,-.5"/>
<text text-anchor="middle" x="1188.0713" y="-6.5" font-family="Helvetica,sans-Serif" font-size="10.00" fill="#000000">Epetra_IntSerialDenseVector.h</text>
</g>
<!-- Node4&#45;&gt;Node19 -->
<g id="edge19" class="edge">
<title>Node4&#45;&gt;Node19</title>
<path fill="none" stroke="#191970" d="M1347.5315,-55.4179C1315.2254,-46.115 1264.8465,-31.608 1229.3768,-21.3943"/>
<polygon fill="#191970" stroke="#191970" points="1229.9185,-17.9081 1219.3405,-18.5042 1227.9815,-24.6348 1229.9185,-17.9081"/>
</g>
<!-- Node20 -->
<g id="node21" class="node">
<title>Node20</title>
<polygon fill="#ffffff" stroke="#bfbfbf" points="1282.2192,-.5 1282.2192,-18.5 1369.9233,-18.5 1369.9233,-.5 1282.2192,-.5"/>
<text text-anchor="middle" x="1326.0713" y="-6.5" font-family="Helvetica,sans-Serif" font-size="10.00" fill="#000000">Epetra_Import.h</text>
</g>
<!-- Node4&#45;&gt;Node20 -->
<g id="edge20" class="edge">
<title>Node4&#45;&gt;Node20</title>
<path fill="none" stroke="#191970" d="M1370.3194,-55.4179C1362.6934,-47.5041 1351.4384,-35.8243 1342.1882,-26.2251"/>
<polygon fill="#191970" stroke="#191970" points="1344.4726,-23.5516 1335.0133,-18.7795 1339.432,-28.4089 1344.4726,-23.5516"/>
</g>
<!-- Node21 -->
<g id="node22" class="node">
<title>Node21</title>
<polygon fill="#ffffff" stroke="#bfbfbf" points="1387.9385,-.5 1387.9385,-18.5 1476.2041,-18.5 1476.2041,-.5 1387.9385,-.5"/>
<text text-anchor="middle" x="1432.0713" y="-6.5" font-family="Helvetica,sans-Serif" font-size="10.00" fill="#000000">Epetra_Export.h</text>
</g>
<!-- Node4&#45;&gt;Node21 -->
<g id="edge21" class="edge">
<title>Node4&#45;&gt;Node21</title>
<path fill="none" stroke="#191970" d="M1387.8232,-55.4179C1395.4491,-47.5041 1406.7042,-35.8243 1415.9544,-26.2251"/>
<polygon fill="#191970" stroke="#191970" points="1418.7106,-28.4089 1423.1293,-18.7795 1413.67,-23.5516 1418.7106,-28.4089"/>
</g>
<!-- Node22 -->
<g id="node23" class="node">
<title>Node22</title>
<polygon fill="#ffffff" stroke="#bfbfbf" points="1494.4614,-.5 1494.4614,-18.5 1575.6812,-18.5 1575.6812,-.5 1494.4614,-.5"/>
<text text-anchor="middle" x="1535.0713" y="-6.5" font-family="Helvetica,sans-Serif" font-size="10.00" fill="#000000">Epetra_Time.h</text>
</g>
<!-- Node4&#45;&gt;Node22 -->
<g id="edge22" class="edge">
<title>Node4&#45;&gt;Node22</title>
<path fill="none" stroke="#191970" d="M1404.8315,-55.4179C1430.7647,-46.2748 1470.9564,-32.1046 1499.8322,-21.924"/>
<polygon fill="#191970" stroke="#191970" points="1501.2648,-25.1302 1509.5321,-18.5042 1498.9373,-18.5285 1501.2648,-25.1302"/>
</g>
<!-- Node23 -->
<g id="node24" class="node">
<title>Node23</title>
<polygon fill="#ffffff" stroke="#bfbfbf" points="1593.3672,-.5 1593.3672,-18.5 1742.7754,-18.5 1742.7754,-.5 1593.3672,-.5"/>
<text text-anchor="middle" x="1668.0713" y="-6.5" font-family="Helvetica,sans-Serif" font-size="10.00" fill="#000000">ml_MultiLevelPreconditioner.h</text>
</g>
<!-- Node4&#45;&gt;Node23 -->
<g id="edge23" class="edge">
<title>Node4&#45;&gt;Node23</title>
<path fill="none" stroke="#191970" d="M1414.7982,-57.7008C1463.7353,-48.3875 1552.1791,-31.5556 1610.5199,-20.4527"/>
<polygon fill="#191970" stroke="#191970" points="1611.5186,-23.8255 1620.6879,-18.5176 1610.2098,-16.9489 1611.5186,-23.8255"/>
</g>
<!-- Node24 -->
<g id="node25" class="node">
<title>Node24</title>
<polygon fill="#ffffff" stroke="#bfbfbf" points="1760.9951,-.5 1760.9951,-18.5 1853.1475,-18.5 1853.1475,-.5 1760.9951,-.5"/>
<text text-anchor="middle" x="1807.0713" y="-6.5" font-family="Helvetica,sans-Serif" font-size="10.00" fill="#000000">ml_epetra_utils.h</text>
</g>
<!-- Node4&#45;&gt;Node24 -->
<g id="edge24" class="edge">
<title>Node4&#45;&gt;Node24</title>
<path fill="none" stroke="#191970" d="M1414.6365,-60.7566C1479.3827,-53.8131 1621.0422,-38.0295 1750.7712,-19.1321"/>
<polygon fill="#191970" stroke="#191970" points="1751.4982,-22.563 1760.8845,-17.649 1750.4824,-15.6371 1751.4982,-22.563"/>
</g>
<!-- Node25 -->
<g id="node26" class="node">
<title>Node25</title>
<polygon fill="#ffffff" stroke="#bfbfbf" points="0,-.5 0,-18.5 72.1426,-18.5 72.1426,-.5 0,-.5"/>
<text text-anchor="middle" x="36.0713" y="-6.5" font-family="Helvetica,sans-Serif" font-size="10.00" fill="#000000">ml_include.h</text>
</g>
<!-- Node4&#45;&gt;Node25 -->
<g id="edge25" class="edge">
<title>Node4&#45;&gt;Node25</title>
<path fill="none" stroke="#191970" d="M1343.2585,-64.0827C1163.3349,-61.8602 356.2487,-50.3621 82.6186,-18.9391"/>
<polygon fill="#191970" stroke="#191970" points="82.6733,-15.4211 72.3302,-17.717 81.8476,-22.3722 82.6733,-15.4211"/>
</g>
<!-- Node26 -->
<g id="node27" class="node">
<title>Node26</title>
<polygon fill="#ffffff" stroke="#bfbfbf" points="90.4927,-.5 90.4927,-18.5 227.6499,-18.5 227.6499,-.5 90.4927,-.5"/>
<text text-anchor="middle" x="159.0713" y="-6.5" font-family="Helvetica,sans-Serif" font-size="10.00" fill="#000000">EpetraExt_RowMatrixOut.h</text>
</g>
<!-- Node4&#45;&gt;Node26 -->
<g id="edge26" class="edge">
<title>Node4&#45;&gt;Node26</title>
<path fill="none" stroke="#191970" d="M1343.4532,-64.158C1203.7461,-62.5905 679.5549,-54.5914 237.9772,-19.0944"/>
<polygon fill="#191970" stroke="#191970" points="238.1392,-15.5962 227.8893,-18.2775 237.5741,-22.5734 238.1392,-15.5962"/>
</g>
<!-- Node27 -->
<g id="node28" class="node">
<title>Node27</title>
<polygon fill="#ffffff" stroke="#bfbfbf" points="245.3721,-.5 245.3721,-18.5 384.7705,-18.5 384.7705,-.5 245.3721,-.5"/>
<text text-anchor="middle" x="315.0713" y="-6.5" font-family="Helvetica,sans-Serif" font-size="10.00" fill="#000000">EpetraExt_MultiVectorOut.h</text>
</g>
<!-- Node4&#45;&gt;Node27 -->
<g id="edge27" class="edge">
<title>Node4&#45;&gt;Node27</title>
<path fill="none" stroke="#191970" d="M1343.2309,-63.796C1215.7417,-61.0912 772.1669,-49.9656 394.8509,-18.9991"/>
<polygon fill="#191970" stroke="#191970" points="395.0842,-15.5065 384.8298,-18.1707 394.5075,-22.4827 395.0842,-15.5065"/>
</g>
<!-- Node30 -->
<g id="node29" class="node">
<title>Node30</title>
<polygon fill="#ffffff" stroke="#bfbfbf" points="2031.0239,-.5 2031.0239,-18.5 2129.1187,-18.5 2129.1187,-.5 2031.0239,-.5"/>
<text text-anchor="middle" x="2080.0713" y="-6.5" font-family="Helvetica,sans-Serif" font-size="10.00" fill="#000000">Teuchos_RCP.hpp</text>
</g>
<!-- Node4&#45;&gt;Node30 -->
<g id="edge28" class="edge">
<title>Node4&#45;&gt;Node30</title>
<path fill="none" stroke="#191970" d="M1414.7283,-63.1258C1510.8569,-59.1768 1783.5594,-46.3614 2020.5637,-19.0783"/>
<polygon fill="#191970" stroke="#191970" points="2021.2247,-22.5251 2030.7536,-17.8937 2020.4163,-15.5719 2021.2247,-22.5251"/>
</g>
<!-- Node37 -->
<g id="node31" class="node">
<title>Node37</title>
<g id="a_node31"><a xlink:href="../../d2/d8b/_finite___element___problem_8hpp.html" target="_top" xlink:title="Finite_Element_Problem.hpp">
<polygon fill="#ffffff" stroke="#000000" points="1117.5913,-165.5 1117.5913,-183.5 1262.5513,-183.5 1262.5513,-165.5 1117.5913,-165.5"/>
<text text-anchor="middle" x="1190.0713" y="-171.5" font-family="Helvetica,sans-Serif" font-size="10.00" fill="#000000">Finite_Element_Problem.hpp</text>
</a>
</g>
</g>
<!-- Node36&#45;&gt;Node37 -->
<g id="edge30" class="edge">
<title>Node36&#45;&gt;Node37</title>
<path fill="none" stroke="#191970" d="M1022.4171,-220.4327C1060.4365,-210.0164 1111.6327,-195.99 1147.4104,-186.1879"/>
<polygon fill="#191970" stroke="#191970" points="1148.3493,-189.5598 1157.069,-183.5417 1146.4996,-182.8085 1148.3493,-189.5598"/>
</g>
<!-- Node39 -->
<g id="node33" class="node">
<title>Node39</title>
<g id="a_node33"><a xlink:href="../../d5/d3f/laplacepp_8hpp.html" target="_top" xlink:title="laplacepp.hpp">
<polygon fill="#ffffff" stroke="#ff0000" points="958.9336,-165.5 958.9336,-183.5 1037.209,-183.5 1037.209,-165.5 958.9336,-165.5"/>
<text text-anchor="middle" x="998.0713" y="-171.5" font-family="Helvetica,sans-Serif" font-size="10.00" fill="#000000">laplacepp.hpp</text>
</a>
</g>
</g>
<!-- Node36&#45;&gt;Node39 -->
<g id="edge34" class="edge">
<title>Node36&#45;&gt;Node39</title>
<path fill="none" stroke="#191970" d="M977.4699,-220.2808C981.1463,-212.1112 985.8048,-201.7588 989.7617,-192.9658"/>
<polygon fill="#191970" stroke="#191970" points="993.0714,-194.1397 993.9834,-183.5842 986.688,-191.2671 993.0714,-194.1397"/>
</g>
<!-- Node37&#45;&gt;Node4 -->
<g id="edge31" class="edge">
<title>Node37&#45;&gt;Node4</title>
<path fill="none" stroke="#191970" d="M1201.0966,-165.3894C1217.4445,-152.1461 1249.3844,-127.2772 1279.0713,-110 1300.7467,-97.3853 1326.5363,-85.726 1346.496,-77.3684"/>
<polygon fill="#191970" stroke="#191970" points="1347.8706,-80.5875 1355.7825,-73.541 1345.2032,-74.1156 1347.8706,-80.5875"/>
</g>
<!-- Node38 -->
<g id="node32" class="node">
<title>Node38</title>
<g id="a_node32"><a xlink:href="../../d0/d41/_base_class_f_e_m_8hpp.html" target="_top" xlink:title="BaseClassFEM.hpp">
<polygon fill="#ffffff" stroke="#000000" points="1287.8867,-110.5 1287.8867,-128.5 1392.2559,-128.5 1392.2559,-110.5 1287.8867,-110.5"/>
<text text-anchor="middle" x="1340.0713" y="-116.5" font-family="Helvetica,sans-Serif" font-size="10.00" fill="#000000">BaseClassFEM.hpp</text>
</a>
</g>
</g>
<!-- Node37&#45;&gt;Node38 -->
<g id="edge32" class="edge">
<title>Node37&#45;&gt;Node38</title>
<path fill="none" stroke="#191970" d="M1214.8407,-165.4179C1239.6676,-156.3147 1278.0851,-142.2283 1305.8232,-132.0576"/>
<polygon fill="#191970" stroke="#191970" points="1307.3305,-135.2329 1315.5144,-128.5042 1304.9207,-128.6608 1307.3305,-135.2329"/>
</g>
<!-- Node38&#45;&gt;Node4 -->
<g id="edge33" class="edge">
<title>Node38&#45;&gt;Node4</title>
<path fill="none" stroke="#191970" d="M1346.5113,-110.4179C1351.9546,-102.7415 1359.9104,-91.5217 1366.5952,-82.0945"/>
<polygon fill="#191970" stroke="#191970" points="1369.5621,-83.9613 1372.4913,-73.7795 1363.8519,-79.9123 1369.5621,-83.9613"/>
</g>
<!-- Node41&#45;&gt;Node30 -->
<g id="edge38" class="edge">
<title>Node41&#45;&gt;Node30</title>
<path fill="none" stroke="#191970" d="M1918.2692,-294.9979C2020.6374,-287.1415 2213.6888,-269.7685 2237.0713,-249 2262.6196,-226.3078 2256.0713,-208.671 2256.0713,-174.5 2256.0713,-174.5 2256.0713,-174.5 2256.0713,-119.5 2256.0713,-63.2554 2190.6372,-34.7038 2139.5648,-20.985"/>
<polygon fill="#191970" stroke="#191970" points="2140.1202,-17.5147 2129.5655,-18.4352 2138.3906,-24.2976 2140.1202,-17.5147"/>
</g>
<!-- Node41&#45;&gt;Node36 -->
<g id="edge36" class="edge">
<title>Node41&#45;&gt;Node36</title>
<path fill="none" stroke="#191970" d="M1792.0108,-296.7808C1626.9944,-289.4748 1185.2088,-268.6407 1040.0713,-249 1038.7749,-248.8246 1037.4664,-248.6385 1036.1492,-248.443"/>
<polygon fill="#191970" stroke="#191970" points="1036.3664,-244.9323 1025.9338,-246.7794 1035.2412,-251.8413 1036.3664,-244.9323"/>
</g>
<!-- Node41&#45;&gt;Node37 -->
<g id="edge37" class="edge">
<title>Node41&#45;&gt;Node37</title>
<path fill="none" stroke="#191970" d="M1791.7399,-297.7467C1609.8917,-292.4067 1097.5401,-275.0999 1073.0713,-249 1046.7902,-220.967 1098.7302,-198.9357 1141.5885,-186.3157"/>
<polygon fill="#191970" stroke="#191970" points="1142.7284,-189.6307 1151.3973,-183.5396 1140.8221,-182.8952 1142.7284,-189.6307"/>
</g>
<!-- Node42 -->
<g id="node35" class="node">
<title>Node42</title>
<polygon fill="#ffffff" stroke="#bfbfbf" points="1884.5615,-225.5 1884.5615,-243.5 1935.5811,-243.5 1935.5811,-225.5 1884.5615,-225.5"/>
<text text-anchor="middle" x="1910.0713" y="-231.5" font-family="Helvetica,sans-Serif" font-size="10.00" fill="#000000">Ifpack.h</text>
</g>
<!-- Node41&#45;&gt;Node42 -->
<g id="edge39" class="edge">
<title>Node41&#45;&gt;Node42</title>
<path fill="none" stroke="#191970" d="M1862.7188,-290.462C1871.1605,-280.4854 1884.9465,-264.1929 1895.4722,-251.7535"/>
<polygon fill="#191970" stroke="#191970" points="1898.345,-253.7768 1902.1326,-243.8821 1893.0012,-249.2552 1898.345,-253.7768"/>
</g>
<!-- Node43 -->
<g id="node36" class="node">
<title>Node43</title>
<polygon fill="#ffffff" stroke="#bfbfbf" points="1953.8203,-225.5 1953.8203,-243.5 2084.3223,-243.5 2084.3223,-225.5 1953.8203,-225.5"/>
<text text-anchor="middle" x="2019.0713" y="-231.5" font-family="Helvetica,sans-Serif" font-size="10.00" fill="#000000">Ifpack_AdditiveSchwarz.h</text>
</g>
<!-- Node41&#45;&gt;Node43 -->
<g id="edge40" class="edge">
<title>Node41&#45;&gt;Node43</title>
<path fill="none" stroke="#191970" d="M1877.8748,-290.462C1906.1903,-279.2394 1954.6702,-260.0248 1986.7938,-247.2929"/>
<polygon fill="#191970" stroke="#191970" points="1988.1909,-250.5041 1996.1977,-243.5658 1985.6116,-243.9966 1988.1909,-250.5041"/>
</g>
<!-- Node44 -->
<g id="node37" class="node">
<title>Node44</title>
<polygon fill="#ffffff" stroke="#bfbfbf" points="2102.3154,-225.5 2102.3154,-243.5 2227.8271,-243.5 2227.8271,-225.5 2102.3154,-225.5"/>
<text text-anchor="middle" x="2165.0713" y="-231.5" font-family="Helvetica,sans-Serif" font-size="10.00" fill="#000000">BelosLinearProblem.hpp</text>
</g>
<!-- Node41&#45;&gt;Node44 -->
<g id="edge41" class="edge">
<title>Node41&#45;&gt;Node44</title>
<path fill="none" stroke="#191970" d="M1898.1755,-290.462C1954.0843,-278.7392 2051.5825,-258.296 2111.9882,-245.6303"/>
<polygon fill="#191970" stroke="#191970" points="2113.0153,-248.9912 2122.0842,-243.5134 2111.5787,-242.1401 2113.0153,-248.9912"/>
</g>
<!-- Node45 -->
<g id="node38" class="node">
<title>Node45</title>
<polygon fill="#ffffff" stroke="#bfbfbf" points="2284.042,-225.5 2284.042,-243.5 2430.1006,-243.5 2430.1006,-225.5 2284.042,-225.5"/>
<text text-anchor="middle" x="2357.0713" y="-231.5" font-family="Helvetica,sans-Serif" font-size="10.00" fill="#000000">BelosBlockGmresSolMgr.hpp</text>
</g>
<!-- Node41&#45;&gt;Node45 -->
<g id="edge42" class="edge">
<title>Node41&#45;&gt;Node45</title>
<path fill="none" stroke="#191970" d="M1918.4635,-292.6646C1999.9613,-283.6755 2145.7915,-266.9094 2270.0713,-249 2278.1525,-247.8355 2286.6415,-246.527 2295.018,-245.1851"/>
<polygon fill="#191970" stroke="#191970" points="2295.8357,-248.5982 2305.1445,-243.5391 2294.7125,-241.6889 2295.8357,-248.5982"/>
</g>
<!-- Node46 -->
<g id="node39" class="node">
<title>Node46</title>
<polygon fill="#ffffff" stroke="#bfbfbf" points="2447.8623,-225.5 2447.8623,-243.5 2572.2803,-243.5 2572.2803,-225.5 2447.8623,-225.5"/>
<text text-anchor="middle" x="2510.0713" y="-231.5" font-family="Helvetica,sans-Serif" font-size="10.00" fill="#000000">BelosEpetraAdapter.hpp</text>
</g>
<!-- Node41&#45;&gt;Node46 -->
<g id="edge43" class="edge">
<title>Node41&#45;&gt;Node46</title>
<path fill="none" stroke="#191970" d="M1918.4319,-296.4175C2025.9314,-290.6529 2250.7323,-276.2823 2439.0713,-249 2445.8473,-248.0184 2452.951,-246.7989 2459.9369,-245.487"/>
<polygon fill="#191970" stroke="#191970" points="2460.8916,-248.8668 2470.0358,-243.5156 2459.5504,-241.9964 2460.8916,-248.8668"/>
</g>
<!-- Node47 -->
<g id="node40" class="node">
<title>Node47</title>
<polygon fill="#ffffff" stroke="#bfbfbf" points="1082.3589,-225.5 1082.3589,-243.5 1203.7837,-243.5 1203.7837,-225.5 1082.3589,-225.5"/>
<text text-anchor="middle" x="1143.0713" y="-231.5" font-family="Helvetica,sans-Serif" font-size="10.00" fill="#000000">BelosSolverFactory.hpp</text>
</g>
<!-- Node41&#45;&gt;Node47 -->
<g id="edge44" class="edge">
<title>Node41&#45;&gt;Node47</title>
<path fill="none" stroke="#191970" d="M1791.9051,-297.1678C1676.4763,-292.3212 1423.9303,-279.0107 1213.0713,-249 1206.302,-248.0365 1199.2042,-246.8162 1192.2329,-245.4942"/>
<polygon fill="#191970" stroke="#191970" points="1192.6517,-242.0093 1182.1626,-243.5026 1191.2936,-248.8763 1192.6517,-242.0093"/>
</g>
<!-- Node48 -->
<g id="node41" class="node">
<title>Node48</title>
<polygon fill="#ffffff" stroke="#bfbfbf" points="1222.1899,-225.5 1222.1899,-243.5 1399.9526,-243.5 1399.9526,-225.5 1222.1899,-225.5"/>
<text text-anchor="middle" x="1311.0713" y="-231.5" font-family="Helvetica,sans-Serif" font-size="10.00" fill="#000000">Teuchos_StandardCatchMacros.hpp</text>
</g>
<!-- Node41&#45;&gt;Node48 -->
<g id="edge45" class="edge">
<title>Node41&#45;&gt;Node48</title>
<path fill="none" stroke="#191970" d="M1791.8396,-293.0274C1705.3266,-284.0148 1545.259,-266.78 1409.0713,-249 1399.6414,-247.7689 1389.7132,-246.3931 1379.9419,-244.9927"/>
<polygon fill="#191970" stroke="#191970" points="1380.242,-241.4997 1369.8434,-243.5293 1379.2381,-248.4273 1380.242,-241.4997"/>
</g>
<!-- Node49 -->
<g id="node42" class="node">
<title>Node49</title>
<polygon fill="#ffffff" stroke="#bfbfbf" points="1417.813,-225.5 1417.813,-243.5 1558.3296,-243.5 1558.3296,-225.5 1417.813,-225.5"/>
<text text-anchor="middle" x="1488.0713" y="-231.5" font-family="Helvetica,sans-Serif" font-size="10.00" fill="#000000">Teuchos_ParameterList.hpp</text>
</g>
<!-- Node41&#45;&gt;Node49 -->
<g id="edge46" class="edge">
<title>Node41&#45;&gt;Node49</title>
<path fill="none" stroke="#191970" d="M1802.7588,-290.4557C1745.0331,-280.4455 1649.3883,-263.7712 1567.0713,-249 1560.524,-247.8251 1553.6736,-246.5846 1546.8605,-245.3438"/>
<polygon fill="#191970" stroke="#191970" points="1547.4108,-241.8865 1536.9447,-243.5331 1546.1533,-248.7726 1547.4108,-241.8865"/>
</g>
<!-- Node50 -->
<g id="node43" class="node">
<title>Node50</title>
<polygon fill="#ffffff" stroke="#bfbfbf" points="1576.2637,-220.5 1576.2637,-248.5 1717.8789,-248.5 1717.8789,-220.5 1576.2637,-220.5"/>
<text text-anchor="start" x="1584.2637" y="-236.5" font-family="Helvetica,sans-Serif" font-size="10.00" fill="#000000">Teuchos_XMLParameterList</text>
<text text-anchor="middle" x="1647.0713" y="-226.5" font-family="Helvetica,sans-Serif" font-size="10.00" fill="#000000">CoreHelpers.hpp</text>
</g>
<!-- Node41&#45;&gt;Node50 -->
<g id="edge47" class="edge">
<title>Node41&#45;&gt;Node50</title>
<path fill="none" stroke="#191970" d="M1826.1498,-290.462C1794.0783,-280.4397 1741.6103,-264.0434 1701.736,-251.5827"/>
<polygon fill="#191970" stroke="#191970" points="1702.7369,-248.2287 1692.1481,-248.5865 1700.649,-254.91 1702.7369,-248.2287"/>
</g>
<!-- Node51 -->
<g id="node44" class="node">
<title>Node51</title>
<polygon fill="#ffffff" stroke="#bfbfbf" points="1735.8228,-220.5 1735.8228,-248.5 1866.3198,-248.5 1866.3198,-220.5 1735.8228,-220.5"/>
<text text-anchor="start" x="1743.8228" y="-236.5" font-family="Helvetica,sans-Serif" font-size="10.00" fill="#000000">Stratimikos_DefaultLinear</text>
<text text-anchor="middle" x="1801.0713" y="-226.5" font-family="Helvetica,sans-Serif" font-size="10.00" fill="#000000">SolverBuilder.hpp</text>
</g>
<!-- Node41&#45;&gt;Node51 -->
<g id="edge48" class="edge">
<title>Node41&#45;&gt;Node51</title>
<path fill="none" stroke="#191970" d="M1847.5628,-290.462C1840.3803,-281.8164 1829.2574,-268.4278 1819.692,-256.9138"/>
<polygon fill="#191970" stroke="#191970" points="1822.1632,-254.4112 1813.0808,-248.9559 1816.7788,-258.8844 1822.1632,-254.4112"/>
</g>
<!-- Node52&#45;&gt;Node4 -->
<g id="edge66" class="edge">
<title>Node52&#45;&gt;Node4</title>
<path fill="none" stroke="#191970" d="M2420.5159,-116.81C2232.0046,-107.3414 1601.0335,-75.6488 1425.0141,-66.8076"/>
<polygon fill="#191970" stroke="#191970" points="1424.9669,-63.3009 1414.8039,-66.2948 1424.6157,-70.2921 1424.9669,-63.3009"/>
</g>
<!-- Node52&#45;&gt;Node5 -->
<g id="edge50" class="edge">
<title>Node52&#45;&gt;Node5</title>
<path fill="none" stroke="#191970" d="M2435.5806,-110.4515C2402.4244,-102.2411 2353.5076,-89.1295 2312.0713,-74 2310.6327,-73.4747 2240.2511,-41.4526 2199.13,-22.7322"/>
<polygon fill="#191970" stroke="#191970" points="2200.4063,-19.4677 2189.8549,-18.5094 2197.5058,-25.8385 2200.4063,-19.4677"/>
</g>
<!-- Node52&#45;&gt;Node6 -->
<g id="edge51" class="edge">
<title>Node52&#45;&gt;Node6</title>
<path fill="none" stroke="#191970" d="M2445.6912,-110.4824C2420.4096,-102.103 2382.6408,-88.7271 2351.0713,-74 2318.8294,-58.9592 2283.4881,-38.0115 2261.0652,-24.1183"/>
<polygon fill="#191970" stroke="#191970" points="2262.6276,-20.9674 2252.2929,-18.6338 2258.9166,-26.9029 2262.6276,-20.9674"/>
</g>
<!-- Node52&#45;&gt;Node7 -->
<g id="edge52" class="edge">
<title>Node52&#45;&gt;Node7</title>
<path fill="none" stroke="#191970" d="M2489.6198,-110.4982C2522.604,-91.4021 2599.8099,-46.704 2639.522,-23.7128"/>
<polygon fill="#191970" stroke="#191970" points="2641.4073,-26.6656 2648.308,-18.6261 2637.9,-20.6076 2641.4073,-26.6656"/>
</g>
<!-- Node52&#45;&gt;Node8 -->
<g id="edge53" class="edge">
<title>Node52&#45;&gt;Node8</title>
<path fill="none" stroke="#191970" d="M2473.4984,-110.4982C2472.3653,-92.6913 2469.8154,-52.6225 2468.29,-28.6515"/>
<polygon fill="#191970" stroke="#191970" points="2471.7802,-28.3836 2467.652,-18.6261 2464.7943,-28.8283 2471.7802,-28.3836"/>
</g>
<!-- Node52&#45;&gt;Node9 -->
<g id="edge54" class="edge">
<title>Node52&#45;&gt;Node9</title>
<path fill="none" stroke="#191970" d="M2484.3824,-110.4982C2505.7023,-91.8856 2554.8822,-48.9508 2581.7441,-25.4999"/>
<polygon fill="#191970" stroke="#191970" points="2584.3863,-27.8394 2589.6177,-18.6261 2579.7827,-22.5661 2584.3863,-27.8394"/>
</g>
<!-- Node52&#45;&gt;Node10 -->
<g id="edge55" class="edge">
<title>Node52&#45;&gt;Node10</title>
<path fill="none" stroke="#191970" d="M2479.0632,-110.4982C2489.072,-92.4496 2511.7634,-51.5306 2524.9873,-27.6843"/>
<polygon fill="#191970" stroke="#191970" points="2528.2216,-29.0689 2530.0104,-18.6261 2522.0998,-25.6741 2528.2216,-29.0689"/>
</g>
<!-- Node53 -->
<g id="node46" class="node">
<title>Node53</title>
<g id="a_node46"><a xlink:href="../../d2/d81/readnrldata_8hpp.html" target="_top" xlink:title="readnrldata.hpp">
<polygon fill="#ffffff" stroke="#000000" points="2360.0444,-55.5 2360.0444,-73.5 2446.0981,-73.5 2446.0981,-55.5 2360.0444,-55.5"/>
<text text-anchor="middle" x="2403.0713" y="-61.5" font-family="Helvetica,sans-Serif" font-size="10.00" fill="#000000">readnrldata.hpp</text>
</a>
</g>
</g>
<!-- Node52&#45;&gt;Node53 -->
<g id="edge56" class="edge">
<title>Node52&#45;&gt;Node53</title>
<path fill="none" stroke="#191970" d="M2462.3471,-110.4179C2451.7225,-102.1876 2435.8396,-89.8839 2423.1882,-80.0836"/>
<polygon fill="#191970" stroke="#191970" points="2425.0991,-77.1365 2415.0502,-73.7795 2420.8123,-82.6704 2425.0991,-77.1365"/>
</g>
<!-- Node53&#45;&gt;Node5 -->
<g id="edge57" class="edge">
<title>Node53&#45;&gt;Node5</title>
<path fill="none" stroke="#191970" d="M2359.7418,-55.5555C2321.0527,-47.3759 2262.6378,-34.5536 2203.0516,-19.1314"/>
<polygon fill="#191970" stroke="#191970" points="2203.6522,-15.6709 2193.0924,-16.5319 2201.8843,-22.444 2203.6522,-15.6709"/>
</g>
<!-- Node53&#45;&gt;Node6 -->
<g id="edge58" class="edge">
<title>Node53&#45;&gt;Node6</title>
<path fill="none" stroke="#191970" d="M2375.8249,-55.4179C2348.2758,-46.2348 2305.5135,-31.9807 2274.944,-21.7909"/>
<polygon fill="#191970" stroke="#191970" points="2275.6776,-18.3462 2265.0839,-18.5042 2273.4639,-24.9869 2275.6776,-18.3462"/>
</g>
<!-- Node53&#45;&gt;Node7 -->
<g id="edge59" class="edge">
<title>Node53&#45;&gt;Node7</title>
<path fill="none" stroke="#191970" d="M2446.1682,-57.0059C2490.1222,-49.1168 2560.467,-35.8153 2629.8435,-19.1563"/>
<polygon fill="#191970" stroke="#191970" points="2630.7307,-22.5427 2639.6236,-16.7836 2629.0803,-15.7401 2630.7307,-22.5427"/>
</g>
<!-- Node53&#45;&gt;Node8 -->
<g id="edge60" class="edge">
<title>Node53&#45;&gt;Node8</title>
<path fill="none" stroke="#191970" d="M2413.6396,-55.4179C2423.1246,-47.2667 2437.2588,-35.1201 2448.6079,-25.3669"/>
<polygon fill="#191970" stroke="#191970" points="2450.9704,-27.9516 2456.2734,-18.7795 2446.408,-22.6427 2450.9704,-27.9516"/>
</g>
<!-- Node53&#45;&gt;Node9 -->
<g id="edge61" class="edge">
<title>Node53&#45;&gt;Node9</title>
<path fill="none" stroke="#191970" d="M2437.7298,-55.4971C2469.5367,-47.1376 2518.1849,-34.1088 2568.4194,-19.4163"/>
<polygon fill="#191970" stroke="#191970" points="2569.5414,-22.7347 2578.1478,-16.5556 2567.5665,-16.019 2569.5414,-22.7347"/>
</g>
<!-- Node53&#45;&gt;Node10 -->
<g id="edge62" class="edge">
<title>Node53&#45;&gt;Node10</title>
<path fill="none" stroke="#191970" d="M2424.8684,-55.4179C2446.3642,-46.4613 2479.4377,-32.6806 2503.7465,-22.552"/>
<polygon fill="#191970" stroke="#191970" points="2505.3572,-25.6726 2513.2418,-18.5956 2502.6648,-19.2111 2505.3572,-25.6726"/>
</g>
<!-- Node53&#45;&gt;Node17 -->
<g id="edge65" class="edge">
<title>Node53&#45;&gt;Node17</title>
<path fill="none" stroke="#191970" d="M2359.7015,-59.3257C2282.7433,-50.1442 2121.1898,-30.8699 2023.1097,-19.1684"/>
<polygon fill="#191970" stroke="#191970" points="2023.286,-15.6647 2012.9417,-17.9553 2022.4567,-22.6154 2023.286,-15.6647"/>
</g>
<!-- Node53&#45;&gt;Node18 -->
<g id="edge64" class="edge">
<title>Node53&#45;&gt;Node18</title>
<path fill="none" stroke="#191970" d="M2394.9799,-55.4179C2388,-47.5833 2377.7316,-36.0575 2369.2289,-26.5137"/>
<polygon fill="#191970" stroke="#191970" points="2371.6039,-23.9178 2362.3384,-18.7795 2366.3772,-28.5743 2371.6039,-23.9178"/>
</g>
<!-- Node53&#45;&gt;Node30 -->
<g id="edge63" class="edge">
<title>Node53&#45;&gt;Node30</title>
<path fill="none" stroke="#191970" d="M2359.8452,-57.1395C2303.0607,-47.4703 2203.0927,-30.4479 2139.2991,-19.5852"/>
<polygon fill="#191970" stroke="#191970" points="2139.8291,-16.1252 2129.3834,-17.8968 2138.654,-23.0258 2139.8291,-16.1252"/>
</g>
</g>
</svg>
