<?xml version="1.0" encoding="UTF-8" standalone="no"?>
<!DOCTYPE svg PUBLIC "-//W3C//DTD SVG 1.1//EN"
 "http://www.w3.org/Graphics/SVG/1.1/DTD/svg11.dtd">
<!-- Generated by graphviz version 2.40.1 (20161225.0304)
 -->
<!-- Title: nrl/randomsearch_deterministicmodel/RandomSearch_DeterministicModel.hpp Pages: 1 -->
<svg width="3163pt" height="332pt"
 viewBox="0.00 0.00 3162.66 332.00" xmlns="http://www.w3.org/2000/svg" xmlns:xlink="http://www.w3.org/1999/xlink">
<g id="graph0" class="graph" transform="scale(1 1) rotate(0) translate(4 328)">
<title>nrl/randomsearch_deterministicmodel/RandomSearch_DeterministicModel.hpp</title>
<polygon fill="#ffffff" stroke="transparent" points="-4,4 -4,-328 3158.6621,-328 3158.6621,4 -4,4"/>
<!-- Node0 -->
<g id="node1" class="node">
<title>Node0</title>
<polygon fill="#bfbfbf" stroke="#000000" points="2553.9214,-295.5 2553.9214,-323.5 2752.231,-323.5 2752.231,-295.5 2553.9214,-295.5"/>
<text text-anchor="start" x="2561.9214" y="-311.5" font-family="Helvetica,sans-Serif" font-size="10.00" fill="#000000">nrl/randomsearch_deterministicmodel</text>
<text text-anchor="middle" x="2653.0762" y="-301.5" font-family="Helvetica,sans-Serif" font-size="10.00" fill="#000000">/RandomSearch_DeterministicModel.hpp</text>
</g>
<!-- Node1 -->
<g id="node2" class="node">
<title>Node1</title>
<polygon fill="#ffffff" stroke="#bfbfbf" points="1242.7905,-235.5 1242.7905,-253.5 1289.3618,-253.5 1289.3618,-235.5 1242.7905,-235.5"/>
<text text-anchor="middle" x="1266.0762" y="-241.5" font-family="Helvetica,sans-Serif" font-size="10.00" fill="#000000">math.h</text>
</g>
<!-- Node0&#45;&gt;Node1 -->
<g id="edge1" class="edge">
<title>Node0&#45;&gt;Node1</title>
<path fill="none" stroke="#191970" d="M2553.914,-308.015C2262.0681,-303.3352 1419.0163,-287.4897 1298.0762,-259 1296.1616,-258.549 1294.2215,-257.9815 1292.2928,-257.334"/>
<polygon fill="#191970" stroke="#191970" points="1293.4995,-254.0473 1282.9141,-253.5992 1290.9096,-260.5506 1293.4995,-254.0473"/>
</g>
<!-- Node2 -->
<g id="node3" class="node">
<title>Node2</title>
<g id="a_node3"><a xlink:href="../../df/dc0/_compressible___mooney___transverse___isotropic_8hpp.html" target="_top" xlink:title="Compressible_Mooney\l_Transverse_Isotropic.hpp">
<polygon fill="#ffffff" stroke="#000000" points="1307.0625,-230.5 1307.0625,-258.5 1441.0898,-258.5 1441.0898,-230.5 1307.0625,-230.5"/>
<text text-anchor="start" x="1315.0625" y="-246.5" font-family="Helvetica,sans-Serif" font-size="10.00" fill="#000000">Compressible_Mooney</text>
<text text-anchor="middle" x="1374.0762" y="-236.5" font-family="Helvetica,sans-Serif" font-size="10.00" fill="#000000">_Transverse_Isotropic.hpp</text>
</a>
</g>
</g>
<!-- Node0&#45;&gt;Node2 -->
<g id="edge2" class="edge">
<title>Node0&#45;&gt;Node2</title>
<path fill="none" stroke="#191970" d="M2553.7795,-304.4536C2307.5108,-291.938 1672.5946,-259.671 1451.4268,-248.431"/>
<polygon fill="#191970" stroke="#191970" points="1451.3758,-244.924 1441.211,-247.9119 1451.0204,-251.915 1451.3758,-244.924"/>
</g>
<!-- Node40 -->
<g id="node34" class="node">
<title>Node40</title>
<g id="a_node34"><a xlink:href="../../d7/d17/_newton___raphsonpp_8hpp.html" target="_top" xlink:title="Newton_Raphsonpp.hpp">
<polygon fill="#ffffff" stroke="#000000" points="1800.0347,-235.5 1800.0347,-253.5 1926.1177,-253.5 1926.1177,-235.5 1800.0347,-235.5"/>
<text text-anchor="middle" x="1863.0762" y="-241.5" font-family="Helvetica,sans-Serif" font-size="10.00" fill="#000000">Newton_Raphsonpp.hpp</text>
</a>
</g>
</g>
<!-- Node0&#45;&gt;Node40 -->
<g id="edge34" class="edge">
<title>Node0&#45;&gt;Node40</title>
<path fill="none" stroke="#191970" d="M2553.822,-301.3335C2393.0148,-288.1025 2079.194,-262.2818 1936.6613,-250.5545"/>
<polygon fill="#191970" stroke="#191970" points="1936.5409,-247.0328 1926.2876,-249.7009 1935.9668,-254.0093 1936.5409,-247.0328"/>
</g>
<!-- Node51 -->
<g id="node45" class="node">
<title>Node51</title>
<g id="a_node45"><a xlink:href="../../d5/d75/distributenrldata_8hpp.html" target="_top" xlink:title="distributenrldata.hpp">
<polygon fill="#ffffff" stroke="#000000" points="2546.7686,-110.5 2546.7686,-128.5 2653.3838,-128.5 2653.3838,-110.5 2546.7686,-110.5"/>
<text text-anchor="middle" x="2600.0762" y="-116.5" font-family="Helvetica,sans-Serif" font-size="10.00" fill="#000000">distributenrldata.hpp</text>
</a>
</g>
</g>
<!-- Node0&#45;&gt;Node51 -->
<g id="edge48" class="edge">
<title>Node0&#45;&gt;Node51</title>
<path fill="none" stroke="#191970" d="M2644.4344,-295.3994C2638.7361,-285.5294 2631.5286,-271.8594 2627.0762,-259 2612.6694,-217.3908 2605.2265,-165.9849 2602.0404,-138.6736"/>
<polygon fill="#191970" stroke="#191970" points="2605.4986,-138.1009 2600.9276,-128.5428 2598.5404,-138.8652 2605.4986,-138.1009"/>
</g>
<!-- Node53 -->
<g id="node47" class="node">
<title>Node53</title>
<polygon fill="#ffffff" stroke="#bfbfbf" points="2635.8794,-230.5 2635.8794,-258.5 2760.2729,-258.5 2760.2729,-230.5 2635.8794,-230.5"/>
<text text-anchor="start" x="2643.8794" y="-246.5" font-family="Helvetica,sans-Serif" font-size="10.00" fill="#000000">boost/random/mersenne</text>
<text text-anchor="middle" x="2698.0762" y="-236.5" font-family="Helvetica,sans-Serif" font-size="10.00" fill="#000000">_twister.hpp</text>
</g>
<!-- Node0&#45;&gt;Node53 -->
<g id="edge66" class="edge">
<title>Node0&#45;&gt;Node53</title>
<path fill="none" stroke="#191970" d="M2662.8405,-295.396C2668.6194,-287.0486 2676.0697,-276.2871 2682.6299,-266.8113"/>
<polygon fill="#191970" stroke="#191970" points="2685.5164,-268.7907 2688.3309,-258.5765 2679.7611,-264.8062 2685.5164,-268.7907"/>
</g>
<!-- Node54 -->
<g id="node48" class="node">
<title>Node54</title>
<polygon fill="#ffffff" stroke="#bfbfbf" points="2777.8301,-230.5 2777.8301,-258.5 2888.3223,-258.5 2888.3223,-230.5 2777.8301,-230.5"/>
<text text-anchor="start" x="2785.8301" y="-246.5" font-family="Helvetica,sans-Serif" font-size="10.00" fill="#000000">boost/random/normal</text>
<text text-anchor="middle" x="2833.0762" y="-236.5" font-family="Helvetica,sans-Serif" font-size="10.00" fill="#000000">_distribution.hpp</text>
</g>
<!-- Node0&#45;&gt;Node54 -->
<g id="edge67" class="edge">
<title>Node0&#45;&gt;Node54</title>
<path fill="none" stroke="#191970" d="M2692.1335,-295.396C2719.2591,-285.6006 2755.5906,-272.4809 2784.5722,-262.0153"/>
<polygon fill="#191970" stroke="#191970" points="2785.8783,-265.265 2794.0951,-258.5765 2783.5008,-258.6811 2785.8783,-265.265"/>
</g>
<!-- Node55 -->
<g id="node49" class="node">
<title>Node55</title>
<polygon fill="#ffffff" stroke="#bfbfbf" points="2906.4409,-230.5 2906.4409,-258.5 3019.7114,-258.5 3019.7114,-230.5 2906.4409,-230.5"/>
<text text-anchor="start" x="2914.4409" y="-246.5" font-family="Helvetica,sans-Serif" font-size="10.00" fill="#000000">boost/random/uniform</text>
<text text-anchor="middle" x="2963.0762" y="-236.5" font-family="Helvetica,sans-Serif" font-size="10.00" fill="#000000">_real_distribution.hpp</text>
</g>
<!-- Node0&#45;&gt;Node55 -->
<g id="edge68" class="edge">
<title>Node0&#45;&gt;Node55</title>
<path fill="none" stroke="#191970" d="M2722.0117,-295.4657C2768.5196,-285.9432 2831.5438,-272.9347 2896.2308,-259.1667"/>
<polygon fill="#191970" stroke="#191970" points="2897.1535,-262.5487 2906.204,-257.0407 2895.694,-255.7025 2897.1535,-262.5487"/>
</g>
<!-- Node56 -->
<g id="node50" class="node">
<title>Node56</title>
<polygon fill="#ffffff" stroke="#bfbfbf" points="3037.4902,-230.5 3037.4902,-258.5 3154.6621,-258.5 3154.6621,-230.5 3037.4902,-230.5"/>
<text text-anchor="start" x="3045.4902" y="-246.5" font-family="Helvetica,sans-Serif" font-size="10.00" fill="#000000">boost/math/special</text>
<text text-anchor="middle" x="3096.0762" y="-236.5" font-family="Helvetica,sans-Serif" font-size="10.00" fill="#000000">_functions/gamma.hpp</text>
</g>
<!-- Node0&#45;&gt;Node56 -->
<g id="edge69" class="edge">
<title>Node0&#45;&gt;Node56</title>
<path fill="none" stroke="#191970" d="M2752.3645,-298.3518C2825.8389,-289.5911 2928.5628,-276.2761 3027.1596,-259.2627"/>
<polygon fill="#191970" stroke="#191970" points="3028.0507,-262.6603 3037.3021,-257.4968 3026.8499,-255.7641 3028.0507,-262.6603"/>
</g>
<!-- Node3 -->
<g id="node4" class="node">
<title>Node3</title>
<g id="a_node4"><a xlink:href="../../de/d49/tensor__calculus_8hpp.html" target="_top" xlink:title="tensor_calculus.hpp">
<polygon fill="#ffffff" stroke="#000000" points="823.6035,-110.5 823.6035,-128.5 928.5488,-128.5 928.5488,-110.5 823.6035,-110.5"/>
<text text-anchor="middle" x="876.0762" y="-116.5" font-family="Helvetica,sans-Serif" font-size="10.00" fill="#000000">tensor_calculus.hpp</text>
</a>
</g>
</g>
<!-- Node2&#45;&gt;Node3 -->
<g id="edge3" class="edge">
<title>Node2&#45;&gt;Node3</title>
<path fill="none" stroke="#191970" d="M1306.997,-231.3447C1303.9861,-230.8669 1301.0019,-230.4157 1298.0762,-230 1213.4397,-217.976 986.0566,-241.6412 915.0762,-194 896.0033,-181.1985 885.6429,-155.9899 880.4903,-138.4615"/>
<polygon fill="#191970" stroke="#191970" points="883.856,-137.498 877.9237,-128.7197 877.087,-139.2815 883.856,-137.498"/>
</g>
<!-- Node36 -->
<g id="node31" class="node">
<title>Node36</title>
<g id="a_node31"><a xlink:href="../../de/d9d/hyperelasticity__setup__pp_8hpp.html" target="_top" xlink:title="hyperelasticity_setup\l_pp.hpp">
<polygon fill="#ffffff" stroke="#000000" points="924.3843,-165.5 924.3843,-193.5 1033.7681,-193.5 1033.7681,-165.5 924.3843,-165.5"/>
<text text-anchor="start" x="932.3843" y="-181.5" font-family="Helvetica,sans-Serif" font-size="10.00" fill="#000000">hyperelasticity_setup</text>
<text text-anchor="middle" x="979.0762" y="-171.5" font-family="Helvetica,sans-Serif" font-size="10.00" fill="#000000">_pp.hpp</text>
</a>
</g>
</g>
<!-- Node2&#45;&gt;Node36 -->
<g id="edge30" class="edge">
<title>Node2&#45;&gt;Node36</title>
<path fill="none" stroke="#191970" d="M1306.9691,-231.5251C1303.9658,-230.9985 1300.9908,-230.4876 1298.0762,-230 1187.3578,-211.4762 1158.6174,-213.5531 1048.0762,-194 1046.7879,-193.7721 1045.487,-193.538 1044.1767,-193.2986"/>
<polygon fill="#191970" stroke="#191970" points="1044.4783,-189.7936 1034.002,-191.3738 1043.1771,-196.6716 1044.4783,-189.7936"/>
</g>
<!-- Node4 -->
<g id="node5" class="node">
<title>Node4</title>
<g id="a_node5"><a xlink:href="../../d0/d02/meshpp_8hpp.html" target="_top" xlink:title="meshpp.hpp">
<polygon fill="#ffffff" stroke="#ff0000" points="1460.5566,-55.5 1460.5566,-73.5 1531.5957,-73.5 1531.5957,-55.5 1460.5566,-55.5"/>
<text text-anchor="middle" x="1496.0762" y="-61.5" font-family="Helvetica,sans-Serif" font-size="10.00" fill="#000000">meshpp.hpp</text>
</a>
</g>
</g>
<!-- Node3&#45;&gt;Node4 -->
<g id="edge4" class="edge">
<title>Node3&#45;&gt;Node4</title>
<path fill="none" stroke="#191970" d="M928.807,-111.1609C931.9403,-110.746 935.0478,-110.355 938.0762,-110 1127.66,-87.7741 1354.7545,-72.872 1450.2368,-67.137"/>
<polygon fill="#191970" stroke="#191970" points="1450.6371,-70.6195 1460.4111,-66.5308 1450.2206,-63.6319 1450.6371,-70.6195"/>
</g>
<!-- Node5 -->
<g id="node6" class="node">
<title>Node5</title>
<polygon fill="#ffffff" stroke="#bfbfbf" points="2577.3447,-.5 2577.3447,-18.5 2622.8076,-18.5 2622.8076,-.5 2577.3447,-.5"/>
<text text-anchor="middle" x="2600.0762" y="-6.5" font-family="Helvetica,sans-Serif" font-size="10.00" fill="#000000">stdio.h</text>
</g>
<!-- Node4&#45;&gt;Node5 -->
<g id="edge5" class="edge">
<title>Node4&#45;&gt;Node5</title>
<path fill="none" stroke="#191970" d="M1531.6763,-64.1647C1691.1965,-62.485 2341.8346,-53.701 2567.0822,-18.6714"/>
<polygon fill="#191970" stroke="#191970" points="2567.8519,-22.0924 2577.1631,-17.0375 2566.7319,-15.1825 2567.8519,-22.0924"/>
</g>
<!-- Node6 -->
<g id="node7" class="node">
<title>Node6</title>
<polygon fill="#ffffff" stroke="#bfbfbf" points="2344.9038,-.5 2344.9038,-18.5 2399.2485,-18.5 2399.2485,-.5 2344.9038,-.5"/>
<text text-anchor="middle" x="2372.0762" y="-6.5" font-family="Helvetica,sans-Serif" font-size="10.00" fill="#000000">iostream</text>
</g>
<!-- Node4&#45;&gt;Node6 -->
<g id="edge6" class="edge">
<title>Node4&#45;&gt;Node6</title>
<path fill="none" stroke="#191970" d="M1531.8232,-63.5351C1668.4287,-59.7001 2158.227,-44.5618 2334.7595,-18.8542"/>
<polygon fill="#191970" stroke="#191970" points="2335.3214,-22.3091 2344.6814,-17.3451 2334.2688,-15.3886 2335.3214,-22.3091"/>
</g>
<!-- Node7 -->
<g id="node8" class="node">
<title>Node7</title>
<polygon fill="#ffffff" stroke="#bfbfbf" points="2640.6846,-.5 2640.6846,-18.5 2689.4678,-18.5 2689.4678,-.5 2640.6846,-.5"/>
<text text-anchor="middle" x="2665.0762" y="-6.5" font-family="Helvetica,sans-Serif" font-size="10.00" fill="#000000">istream</text>
</g>
<!-- Node4&#45;&gt;Node7 -->
<g id="edge7" class="edge">
<title>Node4&#45;&gt;Node7</title>
<path fill="none" stroke="#191970" d="M1531.8108,-64.2228C1697.4918,-62.7637 2392.5457,-54.6861 2630.3921,-18.8678"/>
<polygon fill="#191970" stroke="#191970" points="2631.0173,-22.3126 2640.3552,-17.3071 2629.9339,-15.3969 2631.0173,-22.3126"/>
</g>
<!-- Node8 -->
<g id="node9" class="node">
<title>Node8</title>
<polygon fill="#ffffff" stroke="#bfbfbf" points="2768.4063,-.5 2768.4063,-18.5 2817.7461,-18.5 2817.7461,-.5 2768.4063,-.5"/>
<text text-anchor="middle" x="2793.0762" y="-6.5" font-family="Helvetica,sans-Serif" font-size="10.00" fill="#000000">fstream</text>
</g>
<!-- Node4&#45;&gt;Node8 -->
<g id="edge8" class="edge">
<title>Node4&#45;&gt;Node8</title>
<path fill="none" stroke="#191970" d="M1531.8835,-64.3905C1709.0753,-63.671 2493.8093,-58.365 2758.4102,-18.8592"/>
<polygon fill="#191970" stroke="#191970" points="2759.0107,-22.308 2768.3569,-17.3182 2757.9389,-15.3905 2759.0107,-22.308"/>
</g>
<!-- Node9 -->
<g id="node10" class="node">
<title>Node9</title>
<polygon fill="#ffffff" stroke="#bfbfbf" points="2707.4604,-.5 2707.4604,-18.5 2750.6919,-18.5 2750.6919,-.5 2707.4604,-.5"/>
<text text-anchor="middle" x="2729.0762" y="-6.5" font-family="Helvetica,sans-Serif" font-size="10.00" fill="#000000">vector</text>
</g>
<!-- Node4&#45;&gt;Node9 -->
<g id="edge9" class="edge">
<title>Node4&#45;&gt;Node9</title>
<path fill="none" stroke="#191970" d="M1531.8533,-64.3949C1703.5365,-63.7024 2444.6218,-58.5311 2697.0191,-18.642"/>
<polygon fill="#191970" stroke="#191970" points="2697.9307,-22.0392 2707.2304,-16.9631 2696.795,-15.1319 2697.9307,-22.0392"/>
</g>
<!-- Node10 -->
<g id="node11" class="node">
<title>Node10</title>
<polygon fill="#ffffff" stroke="#bfbfbf" points="2275.5664,-.5 2275.5664,-18.5 2326.5859,-18.5 2326.5859,-.5 2275.5664,-.5"/>
<text text-anchor="middle" x="2301.0762" y="-6.5" font-family="Helvetica,sans-Serif" font-size="10.00" fill="#000000">iomanip</text>
</g>
<!-- Node4&#45;&gt;Node10 -->
<g id="edge10" class="edge">
<title>Node4&#45;&gt;Node10</title>
<path fill="none" stroke="#191970" d="M1531.9605,-63.3615C1661.0548,-59.1164 2102.3291,-43.2761 2264.9133,-18.7835"/>
<polygon fill="#191970" stroke="#191970" points="2265.8811,-22.1741 2275.2131,-17.1577 2264.7897,-15.2597 2265.8811,-22.1741"/>
</g>
<!-- Node11 -->
<g id="node12" class="node">
<title>Node11</title>
<polygon fill="#ffffff" stroke="#bfbfbf" points="641.6157,-.5 641.6157,-18.5 746.5366,-18.5 746.5366,-.5 641.6157,-.5"/>
<text text-anchor="middle" x="694.0762" y="-6.5" font-family="Helvetica,sans-Serif" font-size="10.00" fill="#000000">Epetra_MpiComm.h</text>
</g>
<!-- Node4&#45;&gt;Node11 -->
<g id="edge11" class="edge">
<title>Node4&#45;&gt;Node11</title>
<path fill="none" stroke="#191970" d="M1460.4997,-63.4916C1354.8232,-60.2472 1033.4248,-48.5797 756.8405,-19.1002"/>
<polygon fill="#191970" stroke="#191970" points="756.9246,-15.5892 746.6075,-17.9991 756.1756,-22.549 756.9246,-15.5892"/>
</g>
<!-- Node12 -->
<g id="node13" class="node">
<title>Node12</title>
<polygon fill="#ffffff" stroke="#bfbfbf" points="764.3325,-.5 764.3325,-18.5 879.8198,-18.5 879.8198,-.5 764.3325,-.5"/>
<text text-anchor="middle" x="822.0762" y="-6.5" font-family="Helvetica,sans-Serif" font-size="10.00" fill="#000000">Epetra_FECrsGraph.h</text>
</g>
<!-- Node4&#45;&gt;Node12 -->
<g id="edge12" class="edge">
<title>Node4&#45;&gt;Node12</title>
<path fill="none" stroke="#191970" d="M1460.4241,-62.6523C1368.0847,-57.6908 1113.3753,-42.8872 890.4088,-19.0779"/>
<polygon fill="#191970" stroke="#191970" points="890.4686,-15.5642 880.1514,-17.9738 889.7194,-22.524 890.4686,-15.5642"/>
</g>
<!-- Node13 -->
<g id="node14" class="node">
<title>Node13</title>
<polygon fill="#ffffff" stroke="#bfbfbf" points="897.6182,-.5 897.6182,-18.5 1012.5342,-18.5 1012.5342,-.5 897.6182,-.5"/>
<text text-anchor="middle" x="955.0762" y="-6.5" font-family="Helvetica,sans-Serif" font-size="10.00" fill="#000000">Epetra_FECrsMatrix.h</text>
</g>
<!-- Node4&#45;&gt;Node13 -->
<g id="edge13" class="edge">
<title>Node4&#45;&gt;Node13</title>
<path fill="none" stroke="#191970" d="M1460.2618,-61.6538C1382.5412,-55.3517 1192.3835,-39.2542 1022.7592,-19.1567"/>
<polygon fill="#191970" stroke="#191970" points="1022.9919,-15.6597 1012.6478,-17.9509 1022.163,-22.6105 1022.9919,-15.6597"/>
</g>
<!-- Node14 -->
<g id="node15" class="node">
<title>Node14</title>
<polygon fill="#ffffff" stroke="#bfbfbf" points="1030.1011,-.5 1030.1011,-18.5 1130.0513,-18.5 1130.0513,-.5 1030.1011,-.5"/>
<text text-anchor="middle" x="1080.0762" y="-6.5" font-family="Helvetica,sans-Serif" font-size="10.00" fill="#000000">Epetra_FEVector.h</text>
</g>
<!-- Node4&#45;&gt;Node14 -->
<g id="edge14" class="edge">
<title>Node4&#45;&gt;Node14</title>
<path fill="none" stroke="#191970" d="M1460.5542,-60.365C1398.0056,-52.9988 1263.8904,-36.825 1140.2882,-19.1375"/>
<polygon fill="#191970" stroke="#191970" points="1140.6674,-15.6561 1130.2711,-17.6973 1139.6712,-22.5849 1140.6674,-15.6561"/>
</g>
<!-- Node15 -->
<g id="node16" class="node">
<title>Node15</title>
<polygon fill="#ffffff" stroke="#bfbfbf" points="1148.4902,-.5 1148.4902,-18.5 1235.6621,-18.5 1235.6621,-.5 1148.4902,-.5"/>
<text text-anchor="middle" x="1192.0762" y="-6.5" font-family="Helvetica,sans-Serif" font-size="10.00" fill="#000000">Epetra_Vector.h</text>
</g>
<!-- Node4&#45;&gt;Node15 -->
<g id="edge15" class="edge">
<title>Node4&#45;&gt;Node15</title>
<path fill="none" stroke="#191970" d="M1460.3096,-58.0291C1407.3065,-48.4397 1307.5315,-30.3883 1245.7414,-19.2092"/>
<polygon fill="#191970" stroke="#191970" points="1246.253,-15.745 1235.7896,-17.4087 1245.0067,-22.6332 1246.253,-15.745"/>
</g>
<!-- Node16 -->
<g id="node17" class="node">
<title>Node16</title>
<polygon fill="#ffffff" stroke="#bfbfbf" points="1253.6675,-.5 1253.6675,-18.5 1332.4849,-18.5 1332.4849,-.5 1253.6675,-.5"/>
<text text-anchor="middle" x="1293.0762" y="-6.5" font-family="Helvetica,sans-Serif" font-size="10.00" fill="#000000">Epetra_Map.h</text>
</g>
<!-- Node4&#45;&gt;Node16 -->
<g id="edge16" class="edge">
<title>Node4&#45;&gt;Node16</title>
<path fill="none" stroke="#191970" d="M1462.5549,-55.4179C1427.9243,-46.0352 1373.7543,-31.3586 1336.0095,-21.1322"/>
<polygon fill="#191970" stroke="#191970" points="1336.8772,-17.7412 1326.3099,-18.5042 1335.0466,-24.4976 1336.8772,-17.7412"/>
</g>
<!-- Node17 -->
<g id="node18" class="node">
<title>Node17</title>
<polygon fill="#ffffff" stroke="#bfbfbf" points="1999.5469,-.5 1999.5469,-18.5 2140.6055,-18.5 2140.6055,-.5 1999.5469,-.5"/>
<text text-anchor="middle" x="2070.0762" y="-6.5" font-family="Helvetica,sans-Serif" font-size="10.00" fill="#000000">Epetra_SerialDenseMatrix.h</text>
</g>
<!-- Node4&#45;&gt;Node17 -->
<g id="edge17" class="edge">
<title>Node4&#45;&gt;Node17</title>
<path fill="none" stroke="#191970" d="M1531.8277,-61.5596C1611.8345,-54.9052 1811.6276,-37.8751 1989.3943,-19.1556"/>
<polygon fill="#191970" stroke="#191970" points="1989.8755,-22.6243 1999.452,-18.0922 1989.1394,-15.6631 1989.8755,-22.6243"/>
</g>
<!-- Node18 -->
<g id="node19" class="node">
<title>Node18</title>
<polygon fill="#ffffff" stroke="#bfbfbf" points="2417.2539,-.5 2417.2539,-18.5 2558.8984,-18.5 2558.8984,-.5 2417.2539,-.5"/>
<text text-anchor="middle" x="2488.0762" y="-6.5" font-family="Helvetica,sans-Serif" font-size="10.00" fill="#000000">Epetra_SerialDenseVector.h</text>
</g>
<!-- Node4&#45;&gt;Node18 -->
<g id="edge18" class="edge">
<title>Node4&#45;&gt;Node18</title>
<path fill="none" stroke="#191970" d="M1531.7703,-63.5967C1652.9348,-60.3453 2059.7999,-47.9111 2407.0056,-19.0329"/>
<polygon fill="#191970" stroke="#191970" points="2407.3289,-22.5182 2417.0018,-18.1956 2406.7445,-15.5426 2407.3289,-22.5182"/>
</g>
<!-- Node19 -->
<g id="node20" class="node">
<title>Node19</title>
<polygon fill="#ffffff" stroke="#bfbfbf" points="1350.6948,-.5 1350.6948,-18.5 1503.4575,-18.5 1503.4575,-.5 1350.6948,-.5"/>
<text text-anchor="middle" x="1427.0762" y="-6.5" font-family="Helvetica,sans-Serif" font-size="10.00" fill="#000000">Epetra_IntSerialDenseVector.h</text>
</g>
<!-- Node4&#45;&gt;Node19 -->
<g id="edge19" class="edge">
<title>Node4&#45;&gt;Node19</title>
<path fill="none" stroke="#191970" d="M1484.6822,-55.4179C1474.3569,-47.1876 1458.9214,-34.8839 1446.6264,-25.0836"/>
<polygon fill="#191970" stroke="#191970" points="1448.719,-22.2757 1438.7177,-18.7795 1444.3558,-27.7495 1448.719,-22.2757"/>
</g>
<!-- Node20 -->
<g id="node21" class="node">
<title>Node20</title>
<polygon fill="#ffffff" stroke="#bfbfbf" points="1521.2241,-.5 1521.2241,-18.5 1608.9282,-18.5 1608.9282,-.5 1521.2241,-.5"/>
<text text-anchor="middle" x="1565.0762" y="-6.5" font-family="Helvetica,sans-Serif" font-size="10.00" fill="#000000">Epetra_Import.h</text>
</g>
<!-- Node4&#45;&gt;Node20 -->
<g id="edge20" class="edge">
<title>Node4&#45;&gt;Node20</title>
<path fill="none" stroke="#191970" d="M1507.4701,-55.4179C1517.7954,-47.1876 1533.2309,-34.8839 1545.5259,-25.0836"/>
<polygon fill="#191970" stroke="#191970" points="1547.7965,-27.7495 1553.4347,-18.7795 1543.4333,-22.2757 1547.7965,-27.7495"/>
</g>
<!-- Node21 -->
<g id="node22" class="node">
<title>Node21</title>
<polygon fill="#ffffff" stroke="#bfbfbf" points="1626.9434,-.5 1626.9434,-18.5 1715.209,-18.5 1715.209,-.5 1626.9434,-.5"/>
<text text-anchor="middle" x="1671.0762" y="-6.5" font-family="Helvetica,sans-Serif" font-size="10.00" fill="#000000">Epetra_Export.h</text>
</g>
<!-- Node4&#45;&gt;Node21 -->
<g id="edge21" class="edge">
<title>Node4&#45;&gt;Node21</title>
<path fill="none" stroke="#191970" d="M1524.9739,-55.4179C1554.4467,-46.155 1600.3365,-31.7325 1632.8116,-21.526"/>
<polygon fill="#191970" stroke="#191970" points="1633.9359,-24.8415 1642.4264,-18.5042 1631.8371,-18.1636 1633.9359,-24.8415"/>
</g>
<!-- Node22 -->
<g id="node23" class="node">
<title>Node22</title>
<polygon fill="#ffffff" stroke="#bfbfbf" points="1733.4663,-.5 1733.4663,-18.5 1814.686,-18.5 1814.686,-.5 1733.4663,-.5"/>
<text text-anchor="middle" x="1774.0762" y="-6.5" font-family="Helvetica,sans-Serif" font-size="10.00" fill="#000000">Epetra_Time.h</text>
</g>
<!-- Node4&#45;&gt;Node22 -->
<g id="edge22" class="edge">
<title>Node4&#45;&gt;Node22</title>
<path fill="none" stroke="#191970" d="M1531.8507,-57.4223C1580.4459,-47.8081 1667.6036,-30.5647 1723.0511,-19.5949"/>
<polygon fill="#191970" stroke="#191970" points="1723.8884,-22.9972 1733.0189,-17.6228 1722.5298,-16.1303 1723.8884,-22.9972"/>
</g>
<!-- Node23 -->
<g id="node24" class="node">
<title>Node23</title>
<polygon fill="#ffffff" stroke="#bfbfbf" points="1832.3721,-.5 1832.3721,-18.5 1981.7803,-18.5 1981.7803,-.5 1832.3721,-.5"/>
<text text-anchor="middle" x="1907.0762" y="-6.5" font-family="Helvetica,sans-Serif" font-size="10.00" fill="#000000">ml_MultiLevelPreconditioner.h</text>
</g>
<!-- Node4&#45;&gt;Node23 -->
<g id="edge23" class="edge">
<title>Node4&#45;&gt;Node23</title>
<path fill="none" stroke="#191970" d="M1531.8307,-59.7153C1597.9313,-50.8697 1740.6166,-31.7756 1829.7496,-19.8478"/>
<polygon fill="#191970" stroke="#191970" points="1830.3616,-23.2972 1839.809,-18.5017 1829.4331,-16.3591 1830.3616,-23.2972"/>
</g>
<!-- Node24 -->
<g id="node25" class="node">
<title>Node24</title>
<polygon fill="#ffffff" stroke="#bfbfbf" points="0,-.5 0,-18.5 92.1523,-18.5 92.1523,-.5 0,-.5"/>
<text text-anchor="middle" x="46.0762" y="-6.5" font-family="Helvetica,sans-Serif" font-size="10.00" fill="#000000">ml_epetra_utils.h</text>
</g>
<!-- Node4&#45;&gt;Node24 -->
<g id="edge24" class="edge">
<title>Node4&#45;&gt;Node24</title>
<path fill="none" stroke="#191970" d="M1460.4653,-64.0074C1272.8824,-61.3119 397.2018,-47.4552 102.4633,-18.9679"/>
<polygon fill="#191970" stroke="#191970" points="102.5233,-15.4566 92.2257,-17.9483 101.8296,-22.4222 102.5233,-15.4566"/>
</g>
<!-- Node25 -->
<g id="node26" class="node">
<title>Node25</title>
<polygon fill="#ffffff" stroke="#bfbfbf" points="110.0049,-.5 110.0049,-18.5 182.1475,-18.5 182.1475,-.5 110.0049,-.5"/>
<text text-anchor="middle" x="146.0762" y="-6.5" font-family="Helvetica,sans-Serif" font-size="10.00" fill="#000000">ml_include.h</text>
</g>
<!-- Node4&#45;&gt;Node25 -->
<g id="edge25" class="edge">
<title>Node4&#45;&gt;Node25</title>
<path fill="none" stroke="#191970" d="M1460.372,-64.0918C1279.993,-61.9037 467.0954,-50.5084 192.2749,-18.8988"/>
<polygon fill="#191970" stroke="#191970" points="192.6782,-15.4222 182.335,-17.7176 191.8521,-22.3733 192.6782,-15.4222"/>
</g>
<!-- Node26 -->
<g id="node27" class="node">
<title>Node26</title>
<polygon fill="#ffffff" stroke="#bfbfbf" points="200.4976,-.5 200.4976,-18.5 337.6548,-18.5 337.6548,-.5 200.4976,-.5"/>
<text text-anchor="middle" x="269.0762" y="-6.5" font-family="Helvetica,sans-Serif" font-size="10.00" fill="#000000">EpetraExt_RowMatrixOut.h</text>
</g>
<!-- Node4&#45;&gt;Node26 -->
<g id="edge26" class="edge">
<title>Node4&#45;&gt;Node26</title>
<path fill="none" stroke="#191970" d="M1460.2399,-64.1677C1319.6773,-62.6364 792.2758,-54.7535 348.0426,-19.0989"/>
<polygon fill="#191970" stroke="#191970" points="348.1437,-15.5958 337.8941,-18.2784 347.5794,-22.573 348.1437,-15.5958"/>
</g>
<!-- Node27 -->
<g id="node28" class="node">
<title>Node27</title>
<polygon fill="#ffffff" stroke="#bfbfbf" points="355.377,-.5 355.377,-18.5 494.7754,-18.5 494.7754,-.5 355.377,-.5"/>
<text text-anchor="middle" x="425.0762" y="-6.5" font-family="Helvetica,sans-Serif" font-size="10.00" fill="#000000">EpetraExt_MultiVectorOut.h</text>
</g>
<!-- Node4&#45;&gt;Node27 -->
<g id="edge27" class="edge">
<title>Node4&#45;&gt;Node27</title>
<path fill="none" stroke="#191970" d="M1460.4275,-63.8162C1332.6256,-61.1645 885.2985,-50.1567 504.9366,-19.0053"/>
<polygon fill="#191970" stroke="#191970" points="505.0886,-15.506 494.8346,-18.1719 504.513,-22.4823 505.0886,-15.506"/>
</g>
<!-- Node28 -->
<g id="node29" class="node">
<title>Node28</title>
<polygon fill="#ffffff" stroke="#bfbfbf" points="512.8228,-.5 512.8228,-18.5 623.3296,-18.5 623.3296,-.5 512.8228,-.5"/>
<text text-anchor="middle" x="568.0762" y="-6.5" font-family="Helvetica,sans-Serif" font-size="10.00" fill="#000000">EpetraExt_VectorIn.h</text>
</g>
<!-- Node4&#45;&gt;Node28 -->
<g id="edge28" class="edge">
<title>Node4&#45;&gt;Node28</title>
<path fill="none" stroke="#191970" d="M1460.2266,-63.7968C1343.0918,-61.2483 960.9018,-50.9537 633.5093,-18.9358"/>
<polygon fill="#191970" stroke="#191970" points="633.6471,-15.4324 623.3518,-17.9336 632.9598,-22.3986 633.6471,-15.4324"/>
</g>
<!-- Node30 -->
<g id="node30" class="node">
<title>Node30</title>
<polygon fill="#ffffff" stroke="#bfbfbf" points="2159.0288,-.5 2159.0288,-18.5 2257.1235,-18.5 2257.1235,-.5 2159.0288,-.5"/>
<text text-anchor="middle" x="2208.0762" y="-6.5" font-family="Helvetica,sans-Serif" font-size="10.00" fill="#000000">Teuchos_RCP.hpp</text>
</g>
<!-- Node4&#45;&gt;Node30 -->
<g id="edge29" class="edge">
<title>Node4&#45;&gt;Node30</title>
<path fill="none" stroke="#191970" d="M1531.6298,-63.1885C1628.8061,-59.3569 1907.1751,-46.7296 2148.7357,-19.0571"/>
<polygon fill="#191970" stroke="#191970" points="2149.2274,-22.5237 2158.759,-17.8977 2148.423,-15.57 2149.2274,-22.5237"/>
</g>
<!-- Node37 -->
<g id="node32" class="node">
<title>Node37</title>
<g id="a_node32"><a xlink:href="../../d2/d8b/_finite___element___problem_8hpp.html" target="_top" xlink:title="Finite_Element_Problem.hpp">
<polygon fill="#ffffff" stroke="#000000" points="1043.5962,-110.5 1043.5962,-128.5 1188.5562,-128.5 1188.5562,-110.5 1043.5962,-110.5"/>
<text text-anchor="middle" x="1116.0762" y="-116.5" font-family="Helvetica,sans-Serif" font-size="10.00" fill="#000000">Finite_Element_Problem.hpp</text>
</a>
</g>
</g>
<!-- Node36&#45;&gt;Node37 -->
<g id="edge31" class="edge">
<title>Node36&#45;&gt;Node37</title>
<path fill="none" stroke="#191970" d="M1011.1966,-165.4327C1033.7935,-155.5362 1063.8312,-142.381 1085.9681,-132.686"/>
<polygon fill="#191970" stroke="#191970" points="1087.471,-135.8488 1095.2269,-128.6311 1084.6628,-129.4368 1087.471,-135.8488"/>
</g>
<!-- Node38 -->
<g id="node33" class="node">
<title>Node38</title>
<g id="a_node33"><a xlink:href="../../d5/d3f/laplacepp_8hpp.html" target="_top" xlink:title="laplacepp.hpp">
<polygon fill="#ffffff" stroke="#ff0000" points="946.9385,-110.5 946.9385,-128.5 1025.2139,-128.5 1025.2139,-110.5 946.9385,-110.5"/>
<text text-anchor="middle" x="986.0762" y="-116.5" font-family="Helvetica,sans-Serif" font-size="10.00" fill="#000000">laplacepp.hpp</text>
</a>
</g>
</g>
<!-- Node36&#45;&gt;Node38 -->
<g id="edge33" class="edge">
<title>Node36&#45;&gt;Node38</title>
<path fill="none" stroke="#191970" d="M980.7351,-165.2808C981.6675,-157.2888 982.8436,-147.2079 983.8547,-138.5414"/>
<polygon fill="#191970" stroke="#191970" points="987.3339,-138.9224 985.0163,-128.5842 980.381,-138.1112 987.3339,-138.9224"/>
</g>
<!-- Node37&#45;&gt;Node4 -->
<g id="edge32" class="edge">
<title>Node37&#45;&gt;Node4</title>
<path fill="none" stroke="#191970" d="M1178.3999,-110.4795C1254.805,-99.4208 1382.4785,-80.9418 1450.3704,-71.1153"/>
<polygon fill="#191970" stroke="#191970" points="1450.9429,-74.569 1460.3384,-69.6726 1449.9401,-67.6412 1450.9429,-74.569"/>
</g>
<!-- Node40&#45;&gt;Node30 -->
<g id="edge37" class="edge">
<title>Node40&#45;&gt;Node30</title>
<path fill="none" stroke="#191970" d="M1926.4638,-240.6252C2029.6147,-233.6671 2224.4345,-217.5501 2245.0762,-194 2287.3779,-145.738 2242.9705,-62.9026 2220.0198,-26.9736"/>
<polygon fill="#191970" stroke="#191970" points="2222.8796,-24.9524 2214.4582,-18.5234 2217.0323,-28.8008 2222.8796,-24.9524"/>
</g>
<!-- Node40&#45;&gt;Node36 -->
<g id="edge35" class="edge">
<title>Node40&#45;&gt;Node36</title>
<path fill="none" stroke="#191970" d="M1800.0157,-241.7808C1634.9993,-234.4748 1193.2136,-213.6407 1048.0762,-194 1046.7798,-193.8246 1045.4713,-193.6385 1044.1541,-193.443"/>
<polygon fill="#191970" stroke="#191970" points="1044.3713,-189.9323 1033.9387,-191.7794 1043.2461,-196.8413 1044.3713,-189.9323"/>
</g>
<!-- Node40&#45;&gt;Node37 -->
<g id="edge36" class="edge">
<title>Node40&#45;&gt;Node37</title>
<path fill="none" stroke="#191970" d="M1799.7448,-242.7467C1617.8966,-237.4067 1105.5449,-220.0999 1081.0762,-194 1065.3695,-177.2463 1083.1747,-152.1689 1098.6074,-135.8201"/>
<polygon fill="#191970" stroke="#191970" points="1101.2536,-138.1231 1105.8356,-128.5703 1096.2965,-133.1808 1101.2536,-138.1231"/>
</g>
<!-- Node41 -->
<g id="node35" class="node">
<title>Node41</title>
<polygon fill="#ffffff" stroke="#bfbfbf" points="1892.5664,-170.5 1892.5664,-188.5 1943.5859,-188.5 1943.5859,-170.5 1892.5664,-170.5"/>
<text text-anchor="middle" x="1918.0762" y="-176.5" font-family="Helvetica,sans-Serif" font-size="10.00" fill="#000000">Ifpack.h</text>
</g>
<!-- Node40&#45;&gt;Node41 -->
<g id="edge38" class="edge">
<title>Node40&#45;&gt;Node41</title>
<path fill="none" stroke="#191970" d="M1870.7237,-235.462C1879.1654,-225.4854 1892.9514,-209.1929 1903.4771,-196.7535"/>
<polygon fill="#191970" stroke="#191970" points="1906.3498,-198.7768 1910.1374,-188.8821 1901.0061,-194.2552 1906.3498,-198.7768"/>
</g>
<!-- Node42 -->
<g id="node36" class="node">
<title>Node42</title>
<polygon fill="#ffffff" stroke="#bfbfbf" points="1961.8252,-170.5 1961.8252,-188.5 2092.3271,-188.5 2092.3271,-170.5 1961.8252,-170.5"/>
<text text-anchor="middle" x="2027.0762" y="-176.5" font-family="Helvetica,sans-Serif" font-size="10.00" fill="#000000">Ifpack_AdditiveSchwarz.h</text>
</g>
<!-- Node40&#45;&gt;Node42 -->
<g id="edge39" class="edge">
<title>Node40&#45;&gt;Node42</title>
<path fill="none" stroke="#191970" d="M1885.8797,-235.462C1914.1951,-224.2394 1962.6751,-205.0248 1994.7987,-192.2929"/>
<polygon fill="#191970" stroke="#191970" points="1996.1957,-195.5041 2004.2026,-188.5658 1993.6165,-188.9966 1996.1957,-195.5041"/>
</g>
<!-- Node43 -->
<g id="node37" class="node">
<title>Node43</title>
<polygon fill="#ffffff" stroke="#bfbfbf" points="2110.3203,-170.5 2110.3203,-188.5 2235.832,-188.5 2235.832,-170.5 2110.3203,-170.5"/>
<text text-anchor="middle" x="2173.0762" y="-176.5" font-family="Helvetica,sans-Serif" font-size="10.00" fill="#000000">BelosLinearProblem.hpp</text>
</g>
<!-- Node40&#45;&gt;Node43 -->
<g id="edge40" class="edge">
<title>Node40&#45;&gt;Node43</title>
<path fill="none" stroke="#191970" d="M1906.1803,-235.462C1962.0892,-223.7392 2059.5874,-203.296 2119.9931,-190.6303"/>
<polygon fill="#191970" stroke="#191970" points="2121.0202,-193.9912 2130.0891,-188.5134 2119.5836,-187.1401 2121.0202,-193.9912"/>
</g>
<!-- Node44 -->
<g id="node38" class="node">
<title>Node44</title>
<polygon fill="#ffffff" stroke="#bfbfbf" points="2292.0469,-170.5 2292.0469,-188.5 2438.1055,-188.5 2438.1055,-170.5 2292.0469,-170.5"/>
<text text-anchor="middle" x="2365.0762" y="-176.5" font-family="Helvetica,sans-Serif" font-size="10.00" fill="#000000">BelosBlockGmresSolMgr.hpp</text>
</g>
<!-- Node40&#45;&gt;Node44 -->
<g id="edge41" class="edge">
<title>Node40&#45;&gt;Node44</title>
<path fill="none" stroke="#191970" d="M1926.4684,-237.6646C2007.9662,-228.6755 2153.7964,-211.9094 2278.0762,-194 2286.1574,-192.8355 2294.6464,-191.527 2303.0229,-190.1851"/>
<polygon fill="#191970" stroke="#191970" points="2303.8405,-193.5982 2313.1494,-188.5391 2302.7174,-186.6889 2303.8405,-193.5982"/>
</g>
<!-- Node45 -->
<g id="node39" class="node">
<title>Node45</title>
<polygon fill="#ffffff" stroke="#bfbfbf" points="2455.8672,-170.5 2455.8672,-188.5 2580.2852,-188.5 2580.2852,-170.5 2455.8672,-170.5"/>
<text text-anchor="middle" x="2518.0762" y="-176.5" font-family="Helvetica,sans-Serif" font-size="10.00" fill="#000000">BelosEpetraAdapter.hpp</text>
</g>
<!-- Node40&#45;&gt;Node45 -->
<g id="edge42" class="edge">
<title>Node40&#45;&gt;Node45</title>
<path fill="none" stroke="#191970" d="M1926.4368,-241.4175C2033.9363,-235.6529 2258.7372,-221.2823 2447.0762,-194 2453.8522,-193.0184 2460.9559,-191.7989 2467.9417,-190.487"/>
<polygon fill="#191970" stroke="#191970" points="2468.8965,-193.8668 2478.0406,-188.5156 2467.5553,-186.9964 2468.8965,-193.8668"/>
</g>
<!-- Node46 -->
<g id="node40" class="node">
<title>Node46</title>
<polygon fill="#ffffff" stroke="#bfbfbf" points="1090.3638,-170.5 1090.3638,-188.5 1211.7886,-188.5 1211.7886,-170.5 1090.3638,-170.5"/>
<text text-anchor="middle" x="1151.0762" y="-176.5" font-family="Helvetica,sans-Serif" font-size="10.00" fill="#000000">BelosSolverFactory.hpp</text>
</g>
<!-- Node40&#45;&gt;Node46 -->
<g id="edge43" class="edge">
<title>Node40&#45;&gt;Node46</title>
<path fill="none" stroke="#191970" d="M1799.91,-242.1678C1684.4812,-237.3212 1431.9352,-224.0107 1221.0762,-194 1214.3068,-193.0365 1207.2091,-191.8162 1200.2378,-190.4942"/>
<polygon fill="#191970" stroke="#191970" points="1200.6566,-187.0093 1190.1675,-188.5026 1199.2984,-193.8763 1200.6566,-187.0093"/>
</g>
<!-- Node47 -->
<g id="node41" class="node">
<title>Node47</title>
<polygon fill="#ffffff" stroke="#bfbfbf" points="1230.1948,-170.5 1230.1948,-188.5 1407.9575,-188.5 1407.9575,-170.5 1230.1948,-170.5"/>
<text text-anchor="middle" x="1319.0762" y="-176.5" font-family="Helvetica,sans-Serif" font-size="10.00" fill="#000000">Teuchos_StandardCatchMacros.hpp</text>
</g>
<!-- Node40&#45;&gt;Node47 -->
<g id="edge44" class="edge">
<title>Node40&#45;&gt;Node47</title>
<path fill="none" stroke="#191970" d="M1799.8445,-238.0274C1713.3315,-229.0148 1553.2638,-211.78 1417.0762,-194 1407.6463,-192.7689 1397.7181,-191.3931 1387.9468,-189.9927"/>
<polygon fill="#191970" stroke="#191970" points="1388.2469,-186.4997 1377.8483,-188.5293 1387.243,-193.4273 1388.2469,-186.4997"/>
</g>
<!-- Node48 -->
<g id="node42" class="node">
<title>Node48</title>
<polygon fill="#ffffff" stroke="#bfbfbf" points="1425.8179,-170.5 1425.8179,-188.5 1566.3345,-188.5 1566.3345,-170.5 1425.8179,-170.5"/>
<text text-anchor="middle" x="1496.0762" y="-176.5" font-family="Helvetica,sans-Serif" font-size="10.00" fill="#000000">Teuchos_ParameterList.hpp</text>
</g>
<!-- Node40&#45;&gt;Node48 -->
<g id="edge45" class="edge">
<title>Node40&#45;&gt;Node48</title>
<path fill="none" stroke="#191970" d="M1810.7637,-235.4557C1753.038,-225.4455 1657.3932,-208.7712 1575.0762,-194 1568.5288,-192.8251 1561.6785,-191.5846 1554.8654,-190.3438"/>
<polygon fill="#191970" stroke="#191970" points="1555.4157,-186.8865 1544.9496,-188.5331 1554.1582,-193.7726 1555.4157,-186.8865"/>
</g>
<!-- Node49 -->
<g id="node43" class="node">
<title>Node49</title>
<polygon fill="#ffffff" stroke="#bfbfbf" points="1584.2686,-165.5 1584.2686,-193.5 1725.8838,-193.5 1725.8838,-165.5 1584.2686,-165.5"/>
<text text-anchor="start" x="1592.2686" y="-181.5" font-family="Helvetica,sans-Serif" font-size="10.00" fill="#000000">Teuchos_XMLParameterList</text>
<text text-anchor="middle" x="1655.0762" y="-171.5" font-family="Helvetica,sans-Serif" font-size="10.00" fill="#000000">CoreHelpers.hpp</text>
</g>
<!-- Node40&#45;&gt;Node49 -->
<g id="edge46" class="edge">
<title>Node40&#45;&gt;Node49</title>
<path fill="none" stroke="#191970" d="M1834.1547,-235.462C1802.0832,-225.4397 1749.6152,-209.0434 1709.7409,-196.5827"/>
<polygon fill="#191970" stroke="#191970" points="1710.7418,-193.2287 1700.153,-193.5865 1708.6538,-199.91 1710.7418,-193.2287"/>
</g>
<!-- Node50 -->
<g id="node44" class="node">
<title>Node50</title>
<polygon fill="#ffffff" stroke="#bfbfbf" points="1743.8276,-165.5 1743.8276,-193.5 1874.3247,-193.5 1874.3247,-165.5 1743.8276,-165.5"/>
<text text-anchor="start" x="1751.8276" y="-181.5" font-family="Helvetica,sans-Serif" font-size="10.00" fill="#000000">Stratimikos_DefaultLinear</text>
<text text-anchor="middle" x="1809.0762" y="-171.5" font-family="Helvetica,sans-Serif" font-size="10.00" fill="#000000">SolverBuilder.hpp</text>
</g>
<!-- Node40&#45;&gt;Node50 -->
<g id="edge47" class="edge">
<title>Node40&#45;&gt;Node50</title>
<path fill="none" stroke="#191970" d="M1855.5677,-235.462C1848.3852,-226.8164 1837.2623,-213.4278 1827.6969,-201.9138"/>
<polygon fill="#191970" stroke="#191970" points="1830.1681,-199.4112 1821.0857,-193.9559 1824.7837,-203.8844 1830.1681,-199.4112"/>
</g>
<!-- Node51&#45;&gt;Node4 -->
<g id="edge65" class="edge">
<title>Node51&#45;&gt;Node4</title>
<path fill="none" stroke="#191970" d="M2546.4549,-116.8286C2356.568,-107.3687 1718.0409,-75.558 1541.5894,-66.7674"/>
<polygon fill="#191970" stroke="#191970" points="1541.7636,-63.2718 1531.6018,-66.2698 1541.4152,-70.2632 1541.7636,-63.2718"/>
</g>
<!-- Node51&#45;&gt;Node5 -->
<g id="edge49" class="edge">
<title>Node51&#45;&gt;Node5</title>
<path fill="none" stroke="#191970" d="M2600.0762,-110.4982C2600.0762,-92.6913 2600.0762,-52.6225 2600.0762,-28.6515"/>
<polygon fill="#191970" stroke="#191970" points="2603.5763,-28.6261 2600.0762,-18.6261 2596.5763,-28.6262 2603.5763,-28.6261"/>
</g>
<!-- Node51&#45;&gt;Node6 -->
<g id="edge50" class="edge">
<title>Node51&#45;&gt;Node6</title>
<path fill="none" stroke="#191970" d="M2566.8458,-110.4943C2539.7923,-102.5694 2500.9958,-89.8365 2469.0762,-74 2440.7687,-59.9556 2410.88,-39.0264 2391.8862,-24.849"/>
<polygon fill="#191970" stroke="#191970" points="2393.8169,-21.9208 2383.7313,-18.6754 2389.5917,-27.5019 2393.8169,-21.9208"/>
</g>
<!-- Node51&#45;&gt;Node7 -->
<g id="edge51" class="edge">
<title>Node51&#45;&gt;Node7</title>
<path fill="none" stroke="#191970" d="M2605.3954,-110.4982C2616.1081,-92.369 2640.4561,-51.1647 2654.519,-27.3659"/>
<polygon fill="#191970" stroke="#191970" points="2657.6094,-29.016 2659.6835,-18.6261 2651.5829,-25.4549 2657.6094,-29.016"/>
</g>
<!-- Node51&#45;&gt;Node8 -->
<g id="edge52" class="edge">
<title>Node51&#45;&gt;Node8</title>
<path fill="none" stroke="#191970" d="M2615.8702,-110.4982C2649.3751,-91.4021 2727.8001,-46.704 2768.1392,-23.7128"/>
<polygon fill="#191970" stroke="#191970" points="2770.1091,-26.6187 2777.0639,-18.6261 2766.6429,-20.5371 2770.1091,-26.6187"/>
</g>
<!-- Node51&#45;&gt;Node9 -->
<g id="edge53" class="edge">
<title>Node51&#45;&gt;Node9</title>
<path fill="none" stroke="#191970" d="M2610.6328,-110.4982C2632.5548,-91.805 2683.2476,-48.5786 2710.6685,-25.1964"/>
<polygon fill="#191970" stroke="#191970" points="2713.0354,-27.7779 2718.3737,-18.6261 2708.4935,-22.4514 2713.0354,-27.7779"/>
</g>
<!-- Node51&#45;&gt;Node10 -->
<g id="edge54" class="edge">
<title>Node51&#45;&gt;Node10</title>
<path fill="none" stroke="#191970" d="M2557.9429,-110.4729C2523.5283,-102.5356 2473.9153,-89.7964 2432.0762,-74 2393.8447,-59.5657 2351.8176,-37.7343 2325.9347,-23.5452"/>
<polygon fill="#191970" stroke="#191970" points="2327.6103,-20.4723 2317.1662,-18.6913 2324.2201,-26.5966 2327.6103,-20.4723"/>
</g>
<!-- Node52 -->
<g id="node46" class="node">
<title>Node52</title>
<g id="a_node46"><a xlink:href="../../d2/d81/readnrldata_8hpp.html" target="_top" xlink:title="readnrldata.hpp">
<polygon fill="#ffffff" stroke="#000000" points="2478.0493,-55.5 2478.0493,-73.5 2564.103,-73.5 2564.103,-55.5 2478.0493,-55.5"/>
<text text-anchor="middle" x="2521.0762" y="-61.5" font-family="Helvetica,sans-Serif" font-size="10.00" fill="#000000">readnrldata.hpp</text>
</a>
</g>
</g>
<!-- Node51&#45;&gt;Node52 -->
<g id="edge55" class="edge">
<title>Node51&#45;&gt;Node52</title>
<path fill="none" stroke="#191970" d="M2587.0309,-110.4179C2574.9093,-101.9788 2556.6362,-89.257 2542.3955,-79.3426"/>
<polygon fill="#191970" stroke="#191970" points="2544.3476,-76.4369 2534.1408,-73.5956 2540.3479,-82.1818 2544.3476,-76.4369"/>
</g>
<!-- Node52&#45;&gt;Node5 -->
<g id="edge56" class="edge">
<title>Node52&#45;&gt;Node5</title>
<path fill="none" stroke="#191970" d="M2534.1214,-55.4179C2546.243,-46.9788 2564.5162,-34.257 2578.7568,-24.3426"/>
<polygon fill="#191970" stroke="#191970" points="2580.8044,-27.1818 2587.0115,-18.5956 2576.8048,-21.4369 2580.8044,-27.1818"/>
</g>
<!-- Node52&#45;&gt;Node6 -->
<g id="edge57" class="edge">
<title>Node52&#45;&gt;Node6</title>
<path fill="none" stroke="#191970" d="M2496.4719,-55.4179C2471.8841,-46.3419 2433.8768,-32.3123 2406.343,-22.1488"/>
<polygon fill="#191970" stroke="#191970" points="2407.3104,-18.7751 2396.717,-18.5956 2404.8863,-25.342 2407.3104,-18.7751"/>
</g>
<!-- Node52&#45;&gt;Node7 -->
<g id="edge58" class="edge">
<title>Node52&#45;&gt;Node7</title>
<path fill="none" stroke="#191970" d="M2544.8548,-55.4179C2568.5133,-46.3817 2605.0274,-32.4353 2631.6086,-22.2828"/>
<polygon fill="#191970" stroke="#191970" points="2633.1692,-25.4334 2641.2622,-18.5956 2630.6715,-18.8941 2633.1692,-25.4334"/>
</g>
<!-- Node52&#45;&gt;Node8 -->
<g id="edge59" class="edge">
<title>Node52&#45;&gt;Node8</title>
<path fill="none" stroke="#191970" d="M2564.5073,-57.4707C2610.5296,-49.7472 2685.4958,-36.3854 2758.4617,-19.2376"/>
<polygon fill="#191970" stroke="#191970" points="2759.3553,-22.6228 2768.2749,-16.9052 2757.7365,-15.8125 2759.3553,-22.6228"/>
</g>
<!-- Node52&#45;&gt;Node9 -->
<g id="edge60" class="edge">
<title>Node52&#45;&gt;Node9</title>
<path fill="none" stroke="#191970" d="M2558.1598,-55.4914C2592.0303,-47.1468 2643.7055,-34.1257 2697.688,-19.0145"/>
<polygon fill="#191970" stroke="#191970" points="2698.7561,-22.35 2707.4332,-16.2706 2696.8589,-15.612 2698.7561,-22.35"/>
</g>
<!-- Node52&#45;&gt;Node10 -->
<g id="edge61" class="edge">
<title>Node52&#45;&gt;Node10</title>
<path fill="none" stroke="#191970" d="M2483.0982,-55.44C2447.7012,-46.9333 2393.2,-33.6771 2336.5262,-19.0709"/>
<polygon fill="#191970" stroke="#191970" points="2337.2295,-15.6377 2326.6717,-16.523 2335.4772,-22.4148 2337.2295,-15.6377"/>
</g>
<!-- Node52&#45;&gt;Node17 -->
<g id="edge64" class="edge">
<title>Node52&#45;&gt;Node17</title>
<path fill="none" stroke="#191970" d="M2477.8324,-59.2264C2402.5594,-50.0467 2246.3608,-30.9981 2150.6351,-19.3243"/>
<polygon fill="#191970" stroke="#191970" points="2151.0558,-15.8497 2140.7056,-18.1133 2150.2084,-22.7982 2151.0558,-15.8497"/>
</g>
<!-- Node52&#45;&gt;Node18 -->
<g id="edge63" class="edge">
<title>Node52&#45;&gt;Node18</title>
<path fill="none" stroke="#191970" d="M2515.6269,-55.4179C2511.0686,-47.8207 2504.4278,-36.7527 2498.8081,-27.3866"/>
<polygon fill="#191970" stroke="#191970" points="2501.7901,-25.5536 2493.6438,-18.7795 2495.7876,-29.1552 2501.7901,-25.5536"/>
</g>
<!-- Node52&#45;&gt;Node30 -->
<g id="edge62" class="edge">
<title>Node52&#45;&gt;Node30</title>
<path fill="none" stroke="#191970" d="M2477.8835,-56.9102C2423.1563,-47.2936 2328.5856,-30.6758 2267.1938,-19.8881"/>
<polygon fill="#191970" stroke="#191970" points="2267.7166,-16.4264 2257.2618,-18.1428 2266.5051,-23.3208 2267.7166,-16.4264"/>
</g>
</g>
</svg>
