<?xml version="1.0" encoding="UTF-8" standalone="no"?>
<!DOCTYPE svg PUBLIC "-//W3C//DTD SVG 1.1//EN"
 "http://www.w3.org/Graphics/SVG/1.1/DTD/svg11.dtd">
<!-- Generated by graphviz version 2.40.1 (20161225.0304)
 -->
<!-- Title: nearlyIncompressibleHyperelasticity Pages: 1 -->
<svg width="791pt" height="186pt"
 viewBox="0.00 0.00 791.00 186.00" xmlns="http://www.w3.org/2000/svg" xmlns:xlink="http://www.w3.org/1999/xlink">
<g id="graph0" class="graph" transform="scale(1 1) rotate(0) translate(4 182)">
<title>nearlyIncompressibleHyperelasticity</title>
<polygon fill="#ffffff" stroke="transparent" points="-4,4 -4,-182 787,-182 787,4 -4,4"/>
<!-- Node0 -->
<g id="node1" class="node">
<title>Node0</title>
<polygon fill="#bfbfbf" stroke="#000000" points="431,-79 431,-98 605,-98 605,-79 431,-79"/>
<text text-anchor="middle" x="518" y="-86" font-family="Helvetica,sans-Serif" font-size="10.00" fill="#000000">nearlyIncompressibleHyperelasticity</text>
</g>
<!-- Node4 -->
<g id="node5" class="node">
<title>Node4</title>
<g id="a_node5"><a xlink:href="../../da/d5f/class_dirichlet_inlet_outlet___polyconvex_h_g_o.html" target="_top" xlink:title="DirichletInletOutlet\l_PolyconvexHGO">
<polygon fill="#ffffff" stroke="#000000" points="663,-147.5 663,-177.5 761,-177.5 761,-147.5 663,-147.5"/>
<text text-anchor="start" x="671" y="-165.5" font-family="Helvetica,sans-Serif" font-size="10.00" fill="#000000">DirichletInletOutlet</text>
<text text-anchor="middle" x="712" y="-154.5" font-family="Helvetica,sans-Serif" font-size="10.00" fill="#000000">_PolyconvexHGO</text>
</a>
</g>
</g>
<!-- Node0&#45;&gt;Node4 -->
<g id="edge4" class="edge">
<title>Node0&#45;&gt;Node4</title>
<path fill="none" stroke="#191970" d="M549.7628,-102.0249C574.4789,-112.3999 609.7193,-126.8672 641,-138.5 649.0491,-141.4933 657.667,-144.5384 666.0255,-147.4096"/>
<polygon fill="#191970" stroke="#191970" points="551.0846,-98.7839 540.5103,-98.1258 548.3662,-105.2345 551.0846,-98.7839"/>
</g>
<!-- Node5 -->
<g id="node6" class="node">
<title>Node5</title>
<g id="a_node6"><a xlink:href="../../d0/de4/class_dirichlet_strip_elongation___stochastic_polyconvex_h_g_o.html" target="_top" xlink:title="DirichletStripElongation\l_StochasticPolyconvexHGO">
<polygon fill="#ffffff" stroke="#000000" points="641,-98.5 641,-128.5 783,-128.5 783,-98.5 641,-98.5"/>
<text text-anchor="start" x="649" y="-116.5" font-family="Helvetica,sans-Serif" font-size="10.00" fill="#000000">DirichletStripElongation</text>
<text text-anchor="middle" x="712" y="-105.5" font-family="Helvetica,sans-Serif" font-size="10.00" fill="#000000">_StochasticPolyconvexHGO</text>
</a>
</g>
</g>
<!-- Node0&#45;&gt;Node5 -->
<g id="edge5" class="edge">
<title>Node0&#45;&gt;Node5</title>
<path fill="none" stroke="#191970" d="M602.1625,-99.3457C615.0682,-101.0088 628.2824,-102.7116 640.8696,-104.3337"/>
<polygon fill="#191970" stroke="#191970" points="602.2619,-95.8296 591.8965,-98.0227 601.3671,-102.7722 602.2619,-95.8296"/>
</g>
<!-- Node6 -->
<g id="node7" class="node">
<title>Node6</title>
<g id="a_node7"><a xlink:href="../../de/d4c/class_neumann_inner_surface___polyconvex_h_g_o.html" target="_top" xlink:title="NeumannInnerSurface\l_PolyconvexHGO">
<polygon fill="#ffffff" stroke="#000000" points="655,-49.5 655,-79.5 769,-79.5 769,-49.5 655,-49.5"/>
<text text-anchor="start" x="663" y="-67.5" font-family="Helvetica,sans-Serif" font-size="10.00" fill="#000000">NeumannInnerSurface</text>
<text text-anchor="middle" x="712" y="-56.5" font-family="Helvetica,sans-Serif" font-size="10.00" fill="#000000">_PolyconvexHGO</text>
</a>
</g>
</g>
<!-- Node0&#45;&gt;Node6 -->
<g id="edge6" class="edge">
<title>Node0&#45;&gt;Node6</title>
<path fill="none" stroke="#191970" d="M605.349,-77.6939C622.1567,-75.6146 639.3547,-73.487 654.8976,-71.5642"/>
<polygon fill="#191970" stroke="#191970" points="604.4472,-74.2787 594.9526,-78.9801 605.3067,-81.2258 604.4472,-74.2787"/>
</g>
<!-- Node7 -->
<g id="node8" class="node">
<title>Node7</title>
<g id="a_node8"><a xlink:href="../../dd/d43/class_neumann_inner_surface___stochastic_polyconvex_h_g_o.html" target="_top" xlink:title="NeumannInnerSurface\l_StochasticPolyconvexHGO">
<polygon fill="#ffffff" stroke="#000000" points="641,-.5 641,-30.5 783,-30.5 783,-.5 641,-.5"/>
<text text-anchor="start" x="649" y="-18.5" font-family="Helvetica,sans-Serif" font-size="10.00" fill="#000000">NeumannInnerSurface</text>
<text text-anchor="middle" x="712" y="-7.5" font-family="Helvetica,sans-Serif" font-size="10.00" fill="#000000">_StochasticPolyconvexHGO</text>
</a>
</g>
</g>
<!-- Node0&#45;&gt;Node7 -->
<g id="edge7" class="edge">
<title>Node0&#45;&gt;Node7</title>
<path fill="none" stroke="#191970" d="M550.2433,-75.111C574.95,-64.9843 609.9574,-50.9208 641,-39.5 649.1816,-36.4899 657.9439,-33.4115 666.4226,-30.5067"/>
<polygon fill="#191970" stroke="#191970" points="548.899,-71.8794 540.9822,-78.9203 551.5618,-78.3531 548.899,-71.8794"/>
</g>
<!-- Node1 -->
<g id="node2" class="node">
<title>Node1</title>
<g id="a_node2"><a xlink:href="../../dc/d5a/classhyperelasticity.html" target="_top" xlink:title="hyperelasticity">
<polygon fill="#ffffff" stroke="#000000" points="315,-79 315,-98 395,-98 395,-79 315,-79"/>
<text text-anchor="middle" x="355" y="-86" font-family="Helvetica,sans-Serif" font-size="10.00" fill="#000000">hyperelasticity</text>
</a>
</g>
</g>
<!-- Node1&#45;&gt;Node0 -->
<g id="edge1" class="edge">
<title>Node1&#45;&gt;Node0</title>
<path fill="none" stroke="#191970" d="M405.3565,-88.5C413.5342,-88.5 422.2042,-88.5 430.9599,-88.5"/>
<polygon fill="#191970" stroke="#191970" points="405.2922,-85.0001 395.2921,-88.5 405.2921,-92.0001 405.2922,-85.0001"/>
</g>
<!-- Node2 -->
<g id="node3" class="node">
<title>Node2</title>
<g id="a_node3"><a xlink:href="../../da/d1c/class_non_linear_finite_element_problem.html" target="_top" xlink:title="NonLinearFiniteElementProblem">
<polygon fill="#ffffff" stroke="#000000" points="122,-79 122,-98 279,-98 279,-79 122,-79"/>
<text text-anchor="middle" x="200.5" y="-86" font-family="Helvetica,sans-Serif" font-size="10.00" fill="#000000">NonLinearFiniteElementProblem</text>
</a>
</g>
</g>
<!-- Node2&#45;&gt;Node1 -->
<g id="edge2" class="edge">
<title>Node2&#45;&gt;Node1</title>
<path fill="none" stroke="#191970" d="M289.2224,-88.5C298.1258,-88.5 306.8212,-88.5 314.8213,-88.5"/>
<polygon fill="#191970" stroke="#191970" points="289.1079,-85.0001 279.1078,-88.5 289.1078,-92.0001 289.1079,-85.0001"/>
</g>
<!-- Node3 -->
<g id="node4" class="node">
<title>Node3</title>
<g id="a_node4"><a xlink:href="../../d2/d97/class_base_class_f_e_m.html" target="_top" xlink:title="BaseClassFEM">
<polygon fill="#ffffff" stroke="#000000" points="0,-79 0,-98 86,-98 86,-79 0,-79"/>
<text text-anchor="middle" x="43" y="-86" font-family="Helvetica,sans-Serif" font-size="10.00" fill="#000000">BaseClassFEM</text>
</a>
</g>
</g>
<!-- Node3&#45;&gt;Node2 -->
<g id="edge3" class="edge">
<title>Node3&#45;&gt;Node2</title>
<path fill="none" stroke="#191970" d="M96.2207,-88.5C104.4614,-88.5 113.1203,-88.5 121.7788,-88.5"/>
<polygon fill="#191970" stroke="#191970" points="96.0376,-85.0001 86.0376,-88.5 96.0375,-92.0001 96.0376,-85.0001"/>
</g>
</g>
</svg>
