<?xml version="1.0" encoding="UTF-8" standalone="no"?>
<!DOCTYPE svg PUBLIC "-//W3C//DTD SVG 1.1//EN"
 "http://www.w3.org/Graphics/SVG/1.1/DTD/svg11.dtd">
<!-- Generated by graphviz version 2.40.1 (20161225.0304)
 -->
<!-- Title: cee530/linearpatchtest/main.cpp Pages: 1 -->
<svg width="3884pt" height="397pt"
 viewBox="0.00 0.00 3884.00 397.00" xmlns="http://www.w3.org/2000/svg" xmlns:xlink="http://www.w3.org/1999/xlink">
<g id="graph0" class="graph" transform="scale(1 1) rotate(0) translate(4 393)">
<title>cee530/linearpatchtest/main.cpp</title>
<polygon fill="#ffffff" stroke="transparent" points="-4,4 -4,-393 3880,-393 3880,4 -4,4"/>
<!-- Node0 -->
<g id="node1" class="node">
<title>Node0</title>
<polygon fill="#bfbfbf" stroke="#000000" points="3144.5,-358.5 3144.5,-388.5 3259.5,-388.5 3259.5,-358.5 3144.5,-358.5"/>
<text text-anchor="start" x="3152.5" y="-376.5" font-family="Helvetica,sans-Serif" font-size="10.00" fill="#000000">cee530/linearpatchtest</text>
<text text-anchor="middle" x="3202" y="-365.5" font-family="Helvetica,sans-Serif" font-size="10.00" fill="#000000">/main.cpp</text>
</g>
<!-- Node1 -->
<g id="node2" class="node">
<title>Node1</title>
<polygon fill="#ffffff" stroke="#bfbfbf" points="2763,-297 2763,-316 2871,-316 2871,-297 2763,-297"/>
<text text-anchor="middle" x="2817" y="-304" font-family="Helvetica,sans-Serif" font-size="10.00" fill="#000000">Epetra_ConfigDefs.h</text>
</g>
<!-- Node0&#45;&gt;Node1 -->
<g id="edge1" class="edge">
<title>Node0&#45;&gt;Node1</title>
<path fill="none" stroke="#191970" d="M3144.4489,-365.7591C3079.8285,-356.7281 2971.9675,-340.6348 2880,-322 2874.6183,-320.9095 2869.0017,-319.6723 2863.4348,-318.3838"/>
<polygon fill="#191970" stroke="#191970" points="2864.0678,-314.9368 2853.5295,-316.0295 2862.4492,-321.7471 2864.0678,-314.9368"/>
</g>
<!-- Node2 -->
<g id="node3" class="node">
<title>Node2</title>
<polygon fill="#ffffff" stroke="#bfbfbf" points="2889.5,-297 2889.5,-316 3002.5,-316 3002.5,-297 2889.5,-297"/>
<text text-anchor="middle" x="2946" y="-304" font-family="Helvetica,sans-Serif" font-size="10.00" fill="#000000">Epetra_SerialComm.h</text>
</g>
<!-- Node0&#45;&gt;Node2 -->
<g id="edge2" class="edge">
<title>Node0&#45;&gt;Node2</title>
<path fill="none" stroke="#191970" d="M3144.5486,-358.4639C3098.5563,-346.4269 3034.892,-329.7647 2992.1699,-318.5835"/>
<polygon fill="#191970" stroke="#191970" points="2992.8791,-315.1513 2982.3187,-316.0053 2991.1067,-321.9232 2992.8791,-315.1513"/>
</g>
<!-- Node3 -->
<g id="node4" class="node">
<title>Node3</title>
<g id="a_node4"><a xlink:href="../../de/d5d/linear_patch_test_8hpp.html" target="_top" xlink:title="linearPatchTest.hpp">
<polygon fill="#ffffff" stroke="#000000" points="3021,-297 3021,-316 3125,-316 3125,-297 3021,-297"/>
<text text-anchor="middle" x="3073" y="-304" font-family="Helvetica,sans-Serif" font-size="10.00" fill="#000000">linearPatchTest.hpp</text>
</a>
</g>
</g>
<!-- Node0&#45;&gt;Node3 -->
<g id="edge3" class="edge">
<title>Node0&#45;&gt;Node3</title>
<path fill="none" stroke="#191970" d="M3173.0499,-358.4639C3151.3078,-347.1715 3121.7284,-331.8086 3100.3773,-320.7192"/>
<polygon fill="#191970" stroke="#191970" points="3101.9788,-317.6071 3091.4911,-316.1039 3098.7523,-323.8192 3101.9788,-317.6071"/>
</g>
<!-- Node33 -->
<g id="node34" class="node">
<title>Node33</title>
<polygon fill="#ffffff" stroke="#bfbfbf" points="3290,-.5 3290,-19.5 3390,-19.5 3390,-.5 3290,-.5"/>
<text text-anchor="middle" x="3340" y="-7.5" font-family="Helvetica,sans-Serif" font-size="10.00" fill="#000000">Teuchos_RCP.hpp</text>
</g>
<!-- Node0&#45;&gt;Node33 -->
<g id="edge40" class="edge">
<title>Node0&#45;&gt;Node33</title>
<path fill="none" stroke="#191970" d="M3191.9531,-358.2753C3185.7499,-348.3033 3178.0406,-334.7926 3173,-322 3159.169,-286.8979 3153,-277.2287 3153,-239.5 3153,-239.5 3153,-239.5 3153,-122 3153,-87.1761 3249.6517,-44.5361 3303.9843,-23.3173"/>
<polygon fill="#191970" stroke="#191970" points="3305.5309,-26.4723 3313.6041,-19.6113 3303.0144,-19.9403 3305.5309,-26.4723"/>
</g>
<!-- Node39 -->
<g id="node40" class="node">
<title>Node39</title>
<polygon fill="#ffffff" stroke="#bfbfbf" points="3181.5,-297 3181.5,-316 3320.5,-316 3320.5,-297 3181.5,-297"/>
<text text-anchor="middle" x="3251" y="-304" font-family="Helvetica,sans-Serif" font-size="10.00" fill="#000000">Teuchos_ParameterList.hpp</text>
</g>
<!-- Node0&#45;&gt;Node39 -->
<g id="edge41" class="edge">
<title>Node0&#45;&gt;Node39</title>
<path fill="none" stroke="#191970" d="M3213.1189,-358.2967C3220.5309,-348.1618 3230.3,-334.804 3238.061,-324.1921"/>
<polygon fill="#191970" stroke="#191970" points="3240.9339,-326.1928 3244.012,-316.055 3235.2837,-322.0606 3240.9339,-326.1928"/>
</g>
<!-- Node40 -->
<g id="node41" class="node">
<title>Node40</title>
<polygon fill="#ffffff" stroke="#bfbfbf" points="3339,-297 3339,-316 3515,-316 3515,-297 3339,-297"/>
<text text-anchor="middle" x="3427" y="-304" font-family="Helvetica,sans-Serif" font-size="10.00" fill="#000000">Teuchos_StandardCatchMacros.hpp</text>
</g>
<!-- Node0&#45;&gt;Node40 -->
<g id="edge42" class="edge">
<title>Node0&#45;&gt;Node40</title>
<path fill="none" stroke="#191970" d="M3252.4944,-358.4639C3292.5762,-346.5284 3347.929,-330.0456 3385.4664,-318.8678"/>
<polygon fill="#191970" stroke="#191970" points="3386.4941,-322.2137 3395.0793,-316.0053 3384.4963,-315.5049 3386.4941,-322.2137"/>
</g>
<!-- Node41 -->
<g id="node42" class="node">
<title>Node41</title>
<polygon fill="#ffffff" stroke="#bfbfbf" points="3532.5,-297 3532.5,-316 3717.5,-316 3717.5,-297 3532.5,-297"/>
<text text-anchor="middle" x="3625" y="-304" font-family="Helvetica,sans-Serif" font-size="10.00" fill="#000000">Teuchos_CommandLineProcessor.hpp</text>
</g>
<!-- Node0&#45;&gt;Node41 -->
<g id="edge43" class="edge">
<title>Node0&#45;&gt;Node41</title>
<path fill="none" stroke="#191970" d="M3259.9294,-364.3244C3336.7125,-352.1626 3472.0841,-330.7207 3554.6513,-317.6427"/>
<polygon fill="#191970" stroke="#191970" points="3555.3697,-321.0726 3564.699,-316.0512 3554.2746,-314.1588 3555.3697,-321.0726"/>
</g>
<!-- Node42 -->
<g id="node43" class="node">
<title>Node42</title>
<polygon fill="#ffffff" stroke="#bfbfbf" points="3736,-291.5 3736,-321.5 3876,-321.5 3876,-291.5 3736,-291.5"/>
<text text-anchor="start" x="3744" y="-309.5" font-family="Helvetica,sans-Serif" font-size="10.00" fill="#000000">Teuchos_XMLParameterList</text>
<text text-anchor="middle" x="3806" y="-298.5" font-family="Helvetica,sans-Serif" font-size="10.00" fill="#000000">CoreHelpers.hpp</text>
</g>
<!-- Node0&#45;&gt;Node42 -->
<g id="edge44" class="edge">
<title>Node0&#45;&gt;Node42</title>
<path fill="none" stroke="#191970" d="M3259.7076,-369.6592C3354.809,-362.9303 3550.5705,-347.3989 3725.926,-322.0734"/>
<polygon fill="#191970" stroke="#191970" points="3726.4586,-325.5328 3735.8489,-320.6265 3725.4485,-318.6061 3726.4586,-325.5328"/>
</g>
<!-- Node4 -->
<g id="node5" class="node">
<title>Node4</title>
<g id="a_node5"><a xlink:href="../../d4/d4c/linearelasticity__setup__pp_8hpp.html" target="_top" xlink:title="linearelasticity_setup\l_pp.hpp">
<polygon fill="#ffffff" stroke="#000000" points="3005,-224.5 3005,-254.5 3113,-254.5 3113,-224.5 3005,-224.5"/>
<text text-anchor="start" x="3013" y="-242.5" font-family="Helvetica,sans-Serif" font-size="10.00" fill="#000000">linearelasticity_setup</text>
<text text-anchor="middle" x="3059" y="-231.5" font-family="Helvetica,sans-Serif" font-size="10.00" fill="#000000">_pp.hpp</text>
</a>
</g>
</g>
<!-- Node3&#45;&gt;Node4 -->
<g id="edge4" class="edge">
<title>Node3&#45;&gt;Node4</title>
<path fill="none" stroke="#191970" d="M3070.9941,-296.9005C3069.2228,-288.4234 3066.5612,-275.6856 3064.1949,-264.3614"/>
<polygon fill="#191970" stroke="#191970" points="3067.6103,-263.5944 3062.1389,-254.5218 3060.7583,-265.0263 3067.6103,-263.5944"/>
</g>
<!-- Node5 -->
<g id="node6" class="node">
<title>Node5</title>
<g id="a_node6"><a xlink:href="../../dd/d1b/_linear_finite_element_problem_8hpp.html" target="_top" xlink:title="LinearFiniteElementProblem.hpp">
<polygon fill="#ffffff" stroke="#000000" points="2780,-168.5 2780,-187.5 2938,-187.5 2938,-168.5 2780,-168.5"/>
<text text-anchor="middle" x="2859" y="-175.5" font-family="Helvetica,sans-Serif" font-size="10.00" fill="#000000">LinearFiniteElementProblem.hpp</text>
</a>
</g>
</g>
<!-- Node4&#45;&gt;Node5 -->
<g id="edge5" class="edge">
<title>Node4&#45;&gt;Node5</title>
<path fill="none" stroke="#191970" d="M3010.0745,-224.4554C2976.2649,-214.059 2931.8079,-200.3884 2899.887,-190.5727"/>
<polygon fill="#191970" stroke="#191970" points="2900.5799,-187.1242 2889.9929,-187.5303 2898.5225,-193.815 2900.5799,-187.1242"/>
</g>
<!-- Node6 -->
<g id="node7" class="node">
<title>Node6</title>
<g id="a_node7"><a xlink:href="../../dd/d80/base_class_f_e_m_8hpp.html" target="_top" xlink:title="baseClassFEM.hpp">
<polygon fill="#ffffff" stroke="#000000" points="2434.5,-112.5 2434.5,-131.5 2537.5,-131.5 2537.5,-112.5 2434.5,-112.5"/>
<text text-anchor="middle" x="2486" y="-119.5" font-family="Helvetica,sans-Serif" font-size="10.00" fill="#000000">baseClassFEM.hpp</text>
</a>
</g>
</g>
<!-- Node5&#45;&gt;Node6 -->
<g id="edge6" class="edge">
<title>Node5&#45;&gt;Node6</title>
<path fill="none" stroke="#191970" d="M2795.3028,-168.4369C2726.1323,-158.052 2616.3911,-141.5761 2547.9236,-131.2968"/>
<polygon fill="#191970" stroke="#191970" points="2548.1255,-127.788 2537.7167,-129.7644 2547.0862,-134.7104 2548.1255,-127.788"/>
</g>
<!-- Node7 -->
<g id="node8" class="node">
<title>Node7</title>
<g id="a_node8"><a xlink:href="../../d0/d02/meshpp_8hpp.html" target="_top" xlink:title="meshpp.hpp">
<polygon fill="#ffffff" stroke="#000000" points="1705,-56.5 1705,-75.5 1775,-75.5 1775,-56.5 1705,-56.5"/>
<text text-anchor="middle" x="1740" y="-63.5" font-family="Helvetica,sans-Serif" font-size="10.00" fill="#000000">meshpp.hpp</text>
</a>
</g>
</g>
<!-- Node6&#45;&gt;Node7 -->
<g id="edge7" class="edge">
<title>Node6&#45;&gt;Node7</title>
<path fill="none" stroke="#191970" d="M2434.4301,-118.1288C2295.7112,-107.7156 1916.2605,-79.2313 1785.2184,-69.3944"/>
<polygon fill="#191970" stroke="#191970" points="1785.3622,-65.8955 1775.1283,-68.637 1784.8382,-72.8758 1785.3622,-65.8955"/>
</g>
<!-- Node8 -->
<g id="node9" class="node">
<title>Node8</title>
<polygon fill="#ffffff" stroke="#bfbfbf" points="0,-.5 0,-19.5 46,-19.5 46,-.5 0,-.5"/>
<text text-anchor="middle" x="23" y="-7.5" font-family="Helvetica,sans-Serif" font-size="10.00" fill="#000000">stdio.h</text>
</g>
<!-- Node7&#45;&gt;Node8 -->
<g id="edge8" class="edge">
<title>Node7&#45;&gt;Node8</title>
<path fill="none" stroke="#191970" d="M1704.9856,-65.6231C1482.2169,-63.15 265.5748,-48.4974 56.2336,-19.596"/>
<polygon fill="#191970" stroke="#191970" points="56.6509,-16.1193 46.2382,-18.0755 55.5981,-23.0397 56.6509,-16.1193"/>
</g>
<!-- Node9 -->
<g id="node10" class="node">
<title>Node9</title>
<polygon fill="#ffffff" stroke="#bfbfbf" points="64,-.5 64,-19.5 118,-19.5 118,-.5 64,-.5"/>
<text text-anchor="middle" x="91" y="-7.5" font-family="Helvetica,sans-Serif" font-size="10.00" fill="#000000">iostream</text>
</g>
<!-- Node7&#45;&gt;Node9 -->
<g id="edge9" class="edge">
<title>Node7&#45;&gt;Node9</title>
<path fill="none" stroke="#191970" d="M1704.723,-65.5071C1487.1547,-62.4006 330.63,-44.9 128.5423,-19.7361"/>
<polygon fill="#191970" stroke="#191970" points="128.752,-16.2321 118.3688,-18.3394 127.7998,-23.1671 128.752,-16.2321"/>
</g>
<!-- Node10 -->
<g id="node11" class="node">
<title>Node10</title>
<polygon fill="#ffffff" stroke="#bfbfbf" points="136.5,-.5 136.5,-19.5 185.5,-19.5 185.5,-.5 136.5,-.5"/>
<text text-anchor="middle" x="161" y="-7.5" font-family="Helvetica,sans-Serif" font-size="10.00" fill="#000000">istream</text>
</g>
<!-- Node7&#45;&gt;Node10 -->
<g id="edge10" class="edge">
<title>Node7&#45;&gt;Node10</title>
<path fill="none" stroke="#191970" d="M1704.8207,-65.4929C1493.0199,-62.3696 390.464,-45.0938 195.7706,-19.5239"/>
<polygon fill="#191970" stroke="#191970" points="196.1128,-16.037 185.7139,-18.0648 195.1077,-22.9645 196.1128,-16.037"/>
</g>
<!-- Node11 -->
<g id="node12" class="node">
<title>Node11</title>
<polygon fill="#ffffff" stroke="#bfbfbf" points="204,-.5 204,-19.5 254,-19.5 254,-.5 204,-.5"/>
<text text-anchor="middle" x="229" y="-7.5" font-family="Helvetica,sans-Serif" font-size="10.00" fill="#000000">fstream</text>
</g>
<!-- Node7&#45;&gt;Node11 -->
<g id="edge11" class="edge">
<title>Node7&#45;&gt;Node11</title>
<path fill="none" stroke="#191970" d="M1704.6794,-65.439C1498.2941,-62.091 451.3419,-44.12 264.2316,-19.625"/>
<polygon fill="#191970" stroke="#191970" points="264.4856,-16.1253 254.0867,-18.1534 263.4807,-23.0528 264.4856,-16.1253"/>
</g>
<!-- Node12 -->
<g id="node13" class="node">
<title>Node12</title>
<polygon fill="#ffffff" stroke="#bfbfbf" points="272,-.5 272,-19.5 316,-19.5 316,-.5 272,-.5"/>
<text text-anchor="middle" x="294" y="-7.5" font-family="Helvetica,sans-Serif" font-size="10.00" fill="#000000">vector</text>
</g>
<!-- Node7&#45;&gt;Node12 -->
<g id="edge12" class="edge">
<title>Node7&#45;&gt;Node12</title>
<path fill="none" stroke="#191970" d="M1704.8315,-65.4444C1504.0458,-62.1956 505.6635,-44.988 326.1274,-19.5394"/>
<polygon fill="#191970" stroke="#191970" points="326.5863,-16.0686 316.1634,-17.9695 325.4968,-22.9833 326.5863,-16.0686"/>
</g>
<!-- Node13 -->
<g id="node14" class="node">
<title>Node13</title>
<polygon fill="#ffffff" stroke="#bfbfbf" points="334,-.5 334,-19.5 384,-19.5 384,-.5 334,-.5"/>
<text text-anchor="middle" x="359" y="-7.5" font-family="Helvetica,sans-Serif" font-size="10.00" fill="#000000">iomanip</text>
</g>
<!-- Node7&#45;&gt;Node13 -->
<g id="edge13" class="edge">
<title>Node7&#45;&gt;Node13</title>
<path fill="none" stroke="#191970" d="M1704.9263,-65.3303C1510.3707,-61.5467 566.5783,-42.2702 394.1056,-19.6074"/>
<polygon fill="#191970" stroke="#191970" points="394.4889,-16.1263 384.0881,-18.1448 393.4775,-23.0529 394.4889,-16.1263"/>
</g>
<!-- Node14 -->
<g id="node15" class="node">
<title>Node14</title>
<polygon fill="#ffffff" stroke="#bfbfbf" points="402,-.5 402,-19.5 506,-19.5 506,-.5 402,-.5"/>
<text text-anchor="middle" x="454" y="-7.5" font-family="Helvetica,sans-Serif" font-size="10.00" fill="#000000">Epetra_MpiComm.h</text>
</g>
<!-- Node7&#45;&gt;Node14 -->
<g id="edge14" class="edge">
<title>Node7&#45;&gt;Node14</title>
<path fill="none" stroke="#191970" d="M1704.7921,-65.2731C1532.3715,-61.6235 775.2839,-44.537 516.2972,-19.9833"/>
<polygon fill="#191970" stroke="#191970" points="516.4796,-16.4846 506.1865,-18.9953 515.7987,-23.4514 516.4796,-16.4846"/>
</g>
<!-- Node15 -->
<g id="node16" class="node">
<title>Node15</title>
<polygon fill="#ffffff" stroke="#bfbfbf" points="524.5,-.5 524.5,-19.5 637.5,-19.5 637.5,-.5 524.5,-.5"/>
<text text-anchor="middle" x="581" y="-7.5" font-family="Helvetica,sans-Serif" font-size="10.00" fill="#000000">Epetra_FECrsGraph.h</text>
</g>
<!-- Node7&#45;&gt;Node15 -->
<g id="edge15" class="edge">
<title>Node7&#45;&gt;Node15</title>
<path fill="none" stroke="#191970" d="M1704.8843,-65.0352C1544.4504,-60.5496 879.4429,-41.0967 647.8704,-19.9545"/>
<polygon fill="#191970" stroke="#191970" points="648.1169,-16.4623 637.8331,-19.0105 647.4614,-23.4316 648.1169,-16.4623"/>
</g>
<!-- Node16 -->
<g id="node17" class="node">
<title>Node16</title>
<polygon fill="#ffffff" stroke="#bfbfbf" points="656,-.5 656,-19.5 770,-19.5 770,-.5 656,-.5"/>
<text text-anchor="middle" x="713" y="-7.5" font-family="Helvetica,sans-Serif" font-size="10.00" fill="#000000">Epetra_FECrsMatrix.h</text>
</g>
<!-- Node7&#45;&gt;Node16 -->
<g id="edge16" class="edge">
<title>Node7&#45;&gt;Node16</title>
<path fill="none" stroke="#191970" d="M1704.9978,-65.6194C1580.528,-63.9932 1147.598,-56.0072 780.2222,-20.0234"/>
<polygon fill="#191970" stroke="#191970" points="780.488,-16.5327 770.1923,-19.0323 779.7996,-23.4987 780.488,-16.5327"/>
</g>
<!-- Node17 -->
<g id="node18" class="node">
<title>Node17</title>
<polygon fill="#ffffff" stroke="#bfbfbf" points="788,-.5 788,-19.5 888,-19.5 888,-.5 788,-.5"/>
<text text-anchor="middle" x="838" y="-7.5" font-family="Helvetica,sans-Serif" font-size="10.00" fill="#000000">Epetra_FEVector.h</text>
</g>
<!-- Node7&#45;&gt;Node17 -->
<g id="edge17" class="edge">
<title>Node7&#45;&gt;Node17</title>
<path fill="none" stroke="#191970" d="M1704.9514,-65.5094C1590.4964,-63.6072 1217.2276,-55.0366 898.5201,-20.0482"/>
<polygon fill="#191970" stroke="#191970" points="898.4823,-16.5227 888.1574,-18.8991 897.7107,-23.48 898.4823,-16.5227"/>
</g>
<!-- Node18 -->
<g id="node19" class="node">
<title>Node18</title>
<polygon fill="#ffffff" stroke="#bfbfbf" points="906.5,-.5 906.5,-19.5 993.5,-19.5 993.5,-.5 906.5,-.5"/>
<text text-anchor="middle" x="950" y="-7.5" font-family="Helvetica,sans-Serif" font-size="10.00" fill="#000000">Epetra_Vector.h</text>
</g>
<!-- Node7&#45;&gt;Node18 -->
<g id="edge18" class="edge">
<title>Node7&#45;&gt;Node18</title>
<path fill="none" stroke="#191970" d="M1704.894,-65.4016C1599.894,-63.2756 1278.9995,-54.3336 1003.8088,-20.0903"/>
<polygon fill="#191970" stroke="#191970" points="1003.9867,-16.5851 993.6279,-18.8091 1003.1127,-23.5303 1003.9867,-16.5851"/>
</g>
<!-- Node19 -->
<g id="node20" class="node">
<title>Node19</title>
<polygon fill="#ffffff" stroke="#bfbfbf" points="1011.5,-.5 1011.5,-19.5 1088.5,-19.5 1088.5,-.5 1011.5,-.5"/>
<text text-anchor="middle" x="1050" y="-7.5" font-family="Helvetica,sans-Serif" font-size="10.00" fill="#000000">Epetra_Map.h</text>
</g>
<!-- Node7&#45;&gt;Node19 -->
<g id="edge19" class="edge">
<title>Node7&#45;&gt;Node19</title>
<path fill="none" stroke="#191970" d="M1704.9705,-65.1938C1609.2897,-62.6312 1335.3979,-52.8873 1098.8236,-20.0939"/>
<polygon fill="#191970" stroke="#191970" points="1099.0427,-16.5905 1088.6532,-18.6665 1098.0697,-23.5225 1099.0427,-16.5905"/>
</g>
<!-- Node20 -->
<g id="node21" class="node">
<title>Node20</title>
<polygon fill="#ffffff" stroke="#bfbfbf" points="1106.5,-.5 1106.5,-19.5 1245.5,-19.5 1245.5,-.5 1106.5,-.5"/>
<text text-anchor="middle" x="1176" y="-7.5" font-family="Helvetica,sans-Serif" font-size="10.00" fill="#000000">Epetra_SerialDenseMatrix.h</text>
</g>
<!-- Node7&#45;&gt;Node20 -->
<g id="edge20" class="edge">
<title>Node7&#45;&gt;Node20</title>
<path fill="none" stroke="#191970" d="M1704.9653,-63.0565C1626.603,-56.3914 1430.9812,-39.3006 1255.9424,-20.0745"/>
<polygon fill="#191970" stroke="#191970" points="1256.0963,-16.5703 1245.7728,-18.9524 1255.3286,-23.5281 1256.0963,-16.5703"/>
</g>
<!-- Node21 -->
<g id="node22" class="node">
<title>Node21</title>
<polygon fill="#ffffff" stroke="#bfbfbf" points="1264,-.5 1264,-19.5 1404,-19.5 1404,-.5 1264,-.5"/>
<text text-anchor="middle" x="1334" y="-7.5" font-family="Helvetica,sans-Serif" font-size="10.00" fill="#000000">Epetra_SerialDenseVector.h</text>
</g>
<!-- Node7&#45;&gt;Node21 -->
<g id="edge21" class="edge">
<title>Node7&#45;&gt;Node21</title>
<path fill="none" stroke="#191970" d="M1704.6804,-61.1283C1640.0341,-52.2116 1501.2339,-33.0667 1413.0316,-20.9009"/>
<polygon fill="#191970" stroke="#191970" points="1413.4509,-17.4257 1403.0664,-19.5264 1412.4943,-24.36 1413.4509,-17.4257"/>
</g>
<!-- Node22 -->
<g id="node23" class="node">
<title>Node22</title>
<polygon fill="#ffffff" stroke="#bfbfbf" points="1422,-.5 1422,-19.5 1574,-19.5 1574,-.5 1422,-.5"/>
<text text-anchor="middle" x="1498" y="-7.5" font-family="Helvetica,sans-Serif" font-size="10.00" fill="#000000">Epetra_IntSerialDenseVector.h</text>
</g>
<!-- Node7&#45;&gt;Node22 -->
<g id="edge22" class="edge">
<title>Node7&#45;&gt;Node22</title>
<path fill="none" stroke="#191970" d="M1704.8111,-57.8571C1663.898,-48.3896 1596.0178,-32.6818 1549.2494,-21.8594"/>
<polygon fill="#191970" stroke="#191970" points="1549.8462,-18.405 1539.3145,-19.5604 1548.268,-25.2248 1549.8462,-18.405"/>
</g>
<!-- Node23 -->
<g id="node24" class="node">
<title>Node23</title>
<polygon fill="#ffffff" stroke="#bfbfbf" points="1592,-.5 1592,-19.5 1678,-19.5 1678,-.5 1592,-.5"/>
<text text-anchor="middle" x="1635" y="-7.5" font-family="Helvetica,sans-Serif" font-size="10.00" fill="#000000">Epetra_Import.h</text>
</g>
<!-- Node7&#45;&gt;Node23 -->
<g id="edge23" class="edge">
<title>Node7&#45;&gt;Node23</title>
<path fill="none" stroke="#191970" d="M1721.7104,-56.2455C1705.2238,-47.4527 1680.7648,-34.4079 1662.0235,-24.4125"/>
<polygon fill="#191970" stroke="#191970" points="1663.5506,-21.2604 1653.08,-19.6427 1660.2565,-27.4368 1663.5506,-21.2604"/>
</g>
<!-- Node24 -->
<g id="node25" class="node">
<title>Node24</title>
<polygon fill="#ffffff" stroke="#bfbfbf" points="1696.5,-.5 1696.5,-19.5 1783.5,-19.5 1783.5,-.5 1696.5,-.5"/>
<text text-anchor="middle" x="1740" y="-7.5" font-family="Helvetica,sans-Serif" font-size="10.00" fill="#000000">Epetra_Export.h</text>
</g>
<!-- Node7&#45;&gt;Node24 -->
<g id="edge24" class="edge">
<title>Node7&#45;&gt;Node24</title>
<path fill="none" stroke="#191970" d="M1740,-56.2455C1740,-48.9382 1740,-38.6944 1740,-29.7046"/>
<polygon fill="#191970" stroke="#191970" points="1743.5001,-29.6426 1740,-19.6427 1736.5001,-29.6427 1743.5001,-29.6426"/>
</g>
<!-- Node25 -->
<g id="node26" class="node">
<title>Node25</title>
<polygon fill="#ffffff" stroke="#bfbfbf" points="1802,-.5 1802,-19.5 1882,-19.5 1882,-.5 1802,-.5"/>
<text text-anchor="middle" x="1842" y="-7.5" font-family="Helvetica,sans-Serif" font-size="10.00" fill="#000000">Epetra_Time.h</text>
</g>
<!-- Node7&#45;&gt;Node25 -->
<g id="edge25" class="edge">
<title>Node7&#45;&gt;Node25</title>
<path fill="none" stroke="#191970" d="M1757.767,-56.2455C1773.7095,-47.4928 1797.3259,-34.527 1815.4989,-24.5496"/>
<polygon fill="#191970" stroke="#191970" points="1817.3552,-27.5233 1824.4366,-19.6427 1813.9863,-21.3873 1817.3552,-27.5233"/>
</g>
<!-- Node26 -->
<g id="node27" class="node">
<title>Node26</title>
<polygon fill="#ffffff" stroke="#bfbfbf" points="1900.5,-.5 1900.5,-19.5 2047.5,-19.5 2047.5,-.5 1900.5,-.5"/>
<text text-anchor="middle" x="1974" y="-7.5" font-family="Helvetica,sans-Serif" font-size="10.00" fill="#000000">ml_MultiLevelPreconditioner.h</text>
</g>
<!-- Node7&#45;&gt;Node26 -->
<g id="edge26" class="edge">
<title>Node7&#45;&gt;Node26</title>
<path fill="none" stroke="#191970" d="M1775.0322,-57.6162C1814.6218,-48.1418 1879.3741,-32.6455 1924.2063,-21.9164"/>
<polygon fill="#191970" stroke="#191970" points="1925.1063,-25.3 1934.017,-19.5686 1923.477,-18.4922 1925.1063,-25.3"/>
</g>
<!-- Node27 -->
<g id="node28" class="node">
<title>Node27</title>
<polygon fill="#ffffff" stroke="#bfbfbf" points="2065.5,-.5 2065.5,-19.5 2156.5,-19.5 2156.5,-.5 2065.5,-.5"/>
<text text-anchor="middle" x="2111" y="-7.5" font-family="Helvetica,sans-Serif" font-size="10.00" fill="#000000">ml_epetra_utils.h</text>
</g>
<!-- Node7&#45;&gt;Node27 -->
<g id="edge27" class="edge">
<title>Node7&#45;&gt;Node27</title>
<path fill="none" stroke="#191970" d="M1775.1333,-61.2982C1831.7658,-53.6295 1946.9853,-37.6581 2055.2825,-20.0701"/>
<polygon fill="#191970" stroke="#191970" points="2056.0973,-23.4835 2065.4029,-18.4183 2054.9697,-16.5749 2056.0973,-23.4835"/>
</g>
<!-- Node28 -->
<g id="node29" class="node">
<title>Node28</title>
<polygon fill="#ffffff" stroke="#bfbfbf" points="2174.5,-.5 2174.5,-19.5 2245.5,-19.5 2245.5,-.5 2174.5,-.5"/>
<text text-anchor="middle" x="2210" y="-7.5" font-family="Helvetica,sans-Serif" font-size="10.00" fill="#000000">ml_include.h</text>
</g>
<!-- Node7&#45;&gt;Node28 -->
<g id="edge28" class="edge">
<title>Node7&#45;&gt;Node28</title>
<path fill="none" stroke="#191970" d="M1775.1622,-63.5205C1846.5844,-58.1993 2013.8949,-44.2856 2164.3252,-19.9474"/>
<polygon fill="#191970" stroke="#191970" points="2164.9052,-23.3991 2174.2082,-18.3292 2163.7741,-16.4911 2164.9052,-23.3991"/>
</g>
<!-- Node29 -->
<g id="node30" class="node">
<title>Node29</title>
<polygon fill="#ffffff" stroke="#bfbfbf" points="2263.5,-.5 2263.5,-19.5 2400.5,-19.5 2400.5,-.5 2263.5,-.5"/>
<text text-anchor="middle" x="2332" y="-7.5" font-family="Helvetica,sans-Serif" font-size="10.00" fill="#000000">EpetraExt_RowMatrixOut.h</text>
</g>
<!-- Node7&#45;&gt;Node29 -->
<g id="edge29" class="edge">
<title>Node7&#45;&gt;Node29</title>
<path fill="none" stroke="#191970" d="M1775.2558,-63.3124C1857.1412,-56.9699 2066.7649,-40.1573 2253.1328,-20.0587"/>
<polygon fill="#191970" stroke="#191970" points="2253.5489,-23.5342 2263.1135,-18.9768 2252.7945,-16.575 2253.5489,-23.5342"/>
</g>
<!-- Node30 -->
<g id="node31" class="node">
<title>Node30</title>
<polygon fill="#ffffff" stroke="#bfbfbf" points="2418.5,-.5 2418.5,-19.5 2557.5,-19.5 2557.5,-.5 2418.5,-.5"/>
<text text-anchor="middle" x="2488" y="-7.5" font-family="Helvetica,sans-Serif" font-size="10.00" fill="#000000">EpetraExt_MultiVectorOut.h</text>
</g>
<!-- Node7&#45;&gt;Node30 -->
<g id="edge30" class="edge">
<title>Node7&#45;&gt;Node30</title>
<path fill="none" stroke="#191970" d="M1775.2385,-64.2897C1873.5156,-59.3683 2159.1671,-44.032 2407.9153,-20.0528"/>
<polygon fill="#191970" stroke="#191970" points="2408.6225,-23.5007 2418.2374,-19.0507 2407.946,-16.5335 2408.6225,-23.5007"/>
</g>
<!-- Node31 -->
<g id="node32" class="node">
<title>Node31</title>
<polygon fill="#ffffff" stroke="#bfbfbf" points="2576,-.5 2576,-19.5 2686,-19.5 2686,-.5 2576,-.5"/>
<text text-anchor="middle" x="2631" y="-7.5" font-family="Helvetica,sans-Serif" font-size="10.00" fill="#000000">EpetraExt_VectorIn.h</text>
</g>
<!-- Node7&#45;&gt;Node31 -->
<g id="edge31" class="edge">
<title>Node7&#45;&gt;Node31</title>
<path fill="none" stroke="#191970" d="M1775.1192,-65.2625C1888.1344,-62.6318 2252.7173,-52.1421 2565.5564,-19.9334"/>
<polygon fill="#191970" stroke="#191970" points="2566.1442,-23.3913 2575.7289,-18.8765 2565.4207,-16.4288 2566.1442,-23.3913"/>
</g>
<!-- Node32 -->
<g id="node33" class="node">
<title>Node32</title>
<polygon fill="#ffffff" stroke="#bfbfbf" points="2704.5,-.5 2704.5,-19.5 2835.5,-19.5 2835.5,-.5 2704.5,-.5"/>
<text text-anchor="middle" x="2770" y="-7.5" font-family="Helvetica,sans-Serif" font-size="10.00" fill="#000000">EpetraExt_MultiVectorIn.h</text>
</g>
<!-- Node7&#45;&gt;Node32 -->
<g id="edge32" class="edge">
<title>Node7&#45;&gt;Node32</title>
<path fill="none" stroke="#191970" d="M1775.195,-65.3767C1899.3856,-62.9513 2328.8275,-52.6476 2694.2094,-19.9935"/>
<polygon fill="#191970" stroke="#191970" points="2694.5395,-23.4781 2704.1852,-19.095 2693.9115,-16.5063 2694.5395,-23.4781"/>
</g>
<!-- Node7&#45;&gt;Node33 -->
<g id="edge33" class="edge">
<title>Node7&#45;&gt;Node33</title>
<path fill="none" stroke="#191970" d="M1775.3055,-65.6093C1973.8341,-63.3131 2953.4995,-50.6424 3279.4657,-19.989"/>
<polygon fill="#191970" stroke="#191970" points="3280.2351,-23.4309 3289.8515,-18.984 3279.5609,-16.4635 3280.2351,-23.4309"/>
</g>
<!-- Node34 -->
<g id="node35" class="node">
<title>Node34</title>
<polygon fill="#ffffff" stroke="#bfbfbf" points="2853.5,-.5 2853.5,-19.5 2914.5,-19.5 2914.5,-.5 2853.5,-.5"/>
<text text-anchor="middle" x="2884" y="-7.5" font-family="Helvetica,sans-Serif" font-size="10.00" fill="#000000">Amesos.h</text>
</g>
<!-- Node7&#45;&gt;Node34 -->
<g id="edge34" class="edge">
<title>Node7&#45;&gt;Node34</title>
<path fill="none" stroke="#191970" d="M1775.249,-65.4957C1937.0497,-63.0353 2610.2708,-51.1771 2843.0292,-19.7933"/>
<polygon fill="#191970" stroke="#191970" points="2843.6969,-23.2341 2853.1147,-18.3807 2842.7258,-16.3017 2843.6969,-23.2341"/>
</g>
<!-- Node35 -->
<g id="node36" class="node">
<title>Node35</title>
<polygon fill="#ffffff" stroke="#bfbfbf" points="2932.5,-.5 2932.5,-19.5 2997.5,-19.5 2997.5,-.5 2932.5,-.5"/>
<text text-anchor="middle" x="2965" y="-7.5" font-family="Helvetica,sans-Serif" font-size="10.00" fill="#000000">AztecOO.h</text>
</g>
<!-- Node7&#45;&gt;Node35 -->
<g id="edge35" class="edge">
<title>Node7&#45;&gt;Node35</title>
<path fill="none" stroke="#191970" d="M1775.1662,-65.5569C1943.9249,-63.2916 2672.4652,-51.8948 2922.0018,-19.8195"/>
<polygon fill="#191970" stroke="#191970" points="2922.6498,-23.2642 2932.0997,-18.4738 2921.725,-16.3256 2922.6498,-23.2642"/>
</g>
<!-- Node36 -->
<g id="node37" class="node">
<title>Node36</title>
<polygon fill="#ffffff" stroke="#bfbfbf" points="3016,-.5 3016,-19.5 3132,-19.5 3132,-.5 3016,-.5"/>
<text text-anchor="middle" x="3074" y="-7.5" font-family="Helvetica,sans-Serif" font-size="10.00" fill="#000000">Amesos_BaseSolver.h</text>
</g>
<!-- Node7&#45;&gt;Node36 -->
<g id="edge36" class="edge">
<title>Node7&#45;&gt;Node36</title>
<path fill="none" stroke="#191970" d="M1775.1926,-65.2442C1951.1137,-61.3874 2736.961,-43.2084 3005.7036,-19.8878"/>
<polygon fill="#191970" stroke="#191970" points="3006.1624,-23.3608 3015.8116,-18.9856 3005.5401,-16.3886 3006.1624,-23.3608"/>
</g>
<!-- Node37 -->
<g id="node38" class="node">
<title>Node37</title>
<polygon fill="#ffffff" stroke="#bfbfbf" points="3150.5,-.5 3150.5,-19.5 3199.5,-19.5 3199.5,-.5 3150.5,-.5"/>
<text text-anchor="middle" x="3175" y="-7.5" font-family="Helvetica,sans-Serif" font-size="10.00" fill="#000000">metis.h</text>
</g>
<!-- Node7&#45;&gt;Node37 -->
<g id="edge37" class="edge">
<title>Node7&#45;&gt;Node37</title>
<path fill="none" stroke="#191970" d="M1775.1423,-65.3784C1974.6569,-61.7802 2961.9508,-43.0248 3140.3761,-19.5032"/>
<polygon fill="#191970" stroke="#191970" points="3140.8956,-22.9646 3150.2847,-18.0558 3139.8837,-16.0381 3140.8956,-22.9646"/>
</g>
<!-- Node38 -->
<g id="node39" class="node">
<title>Node38</title>
<g id="a_node39"><a xlink:href="../../d4/dbc/fepp_8hpp.html" target="_top" xlink:title="fepp.hpp">
<polygon fill="#ffffff" stroke="#000000" points="3218,-.5 3218,-19.5 3272,-19.5 3272,-.5 3218,-.5"/>
<text text-anchor="middle" x="3245" y="-7.5" font-family="Helvetica,sans-Serif" font-size="10.00" fill="#000000">fepp.hpp</text>
</a>
</g>
</g>
<!-- Node7&#45;&gt;Node38 -->
<g id="edge38" class="edge">
<title>Node7&#45;&gt;Node38</title>
<path fill="none" stroke="#191970" d="M1775.078,-65.3625C1983.6123,-61.6387 3054.8766,-42.1003 3200,-20 3202.6152,-19.6017 3205.3107,-19.0766 3208.0311,-18.4751"/>
<polygon fill="#191970" stroke="#191970" points="3209.0151,-21.8375 3217.8911,-16.0525 3207.3448,-15.0397 3209.0151,-21.8375"/>
</g>
<!-- Node38&#45;&gt;Node7 -->
<g id="edge39" class="edge">
<title>Node38&#45;&gt;Node7</title>
<path fill="none" stroke="#191970" d="M3220.7166,-19.547C3219.805,-19.7116 3218.8978,-19.8633 3218,-20 3073.9864,-41.9313 2017.9426,-61.3397 1785.2353,-65.2743"/>
<polygon fill="#191970" stroke="#191970" points="1785.0351,-61.7771 1775.0954,-65.4447 1785.1528,-68.7761 1785.0351,-61.7771"/>
</g>
</g>
</svg>
