<?xml version="1.0" encoding="UTF-8" standalone="no"?>
<!DOCTYPE svg PUBLIC "-//W3C//DTD SVG 1.1//EN"
 "http://www.w3.org/Graphics/SVG/1.1/DTD/svg11.dtd">
<!-- Generated by graphviz version 2.40.1 (20161225.0304)
 -->
<!-- Title: arteries/gmrf_neumann/main.cpp Pages: 1 -->
<svg width="2640pt" height="464pt"
 viewBox="0.00 0.00 2639.50 464.00" xmlns="http://www.w3.org/2000/svg" xmlns:xlink="http://www.w3.org/1999/xlink">
<g id="graph0" class="graph" transform="scale(1 1) rotate(0) translate(4 460)">
<title>arteries/gmrf_neumann/main.cpp</title>
<polygon fill="#ffffff" stroke="transparent" points="-4,4 -4,-460 2635.5,-460 2635.5,4 -4,4"/>
<!-- Node0 -->
<g id="node1" class="node">
<title>Node0</title>
<polygon fill="#bfbfbf" stroke="#000000" points="978.5,-425.5 978.5,-455.5 1094.5,-455.5 1094.5,-425.5 978.5,-425.5"/>
<text text-anchor="start" x="986.5" y="-443.5" font-family="Helvetica,sans-Serif" font-size="10.00" fill="#000000">arteries/gmrf_neumann</text>
<text text-anchor="middle" x="1036.5" y="-432.5" font-family="Helvetica,sans-Serif" font-size="10.00" fill="#000000">/main.cpp</text>
</g>
<!-- Node1 -->
<g id="node2" class="node">
<title>Node1</title>
<polygon fill="#ffffff" stroke="#bfbfbf" points="262.5,-364 262.5,-383 370.5,-383 370.5,-364 262.5,-364"/>
<text text-anchor="middle" x="316.5" y="-371" font-family="Helvetica,sans-Serif" font-size="10.00" fill="#000000">Epetra_ConfigDefs.h</text>
</g>
<!-- Node0&#45;&gt;Node1 -->
<g id="edge1" class="edge">
<title>Node0&#45;&gt;Node1</title>
<path fill="none" stroke="#191970" d="M978.1172,-439.1132C862.9451,-435.6757 598.6344,-424.3039 379.5,-389 373.5159,-388.0359 367.2638,-386.7923 361.1209,-385.4292"/>
<polygon fill="#191970" stroke="#191970" points="361.4867,-381.9203 350.9524,-383.0507 359.8924,-388.7364 361.4867,-381.9203"/>
</g>
<!-- Node2 -->
<g id="node3" class="node">
<title>Node2</title>
<polygon fill="#ffffff" stroke="#bfbfbf" points="389,-364 389,-383 502,-383 502,-364 389,-364"/>
<text text-anchor="middle" x="445.5" y="-371" font-family="Helvetica,sans-Serif" font-size="10.00" fill="#000000">Epetra_SerialComm.h</text>
</g>
<!-- Node0&#45;&gt;Node2 -->
<g id="edge2" class="edge">
<title>Node0&#45;&gt;Node2</title>
<path fill="none" stroke="#191970" d="M978.2939,-437.3245C881.0882,-431.4558 679.7789,-416.8868 511.5,-389 505.2514,-387.9645 498.7136,-386.6795 492.2841,-385.2955"/>
<polygon fill="#191970" stroke="#191970" points="492.8507,-381.8357 482.327,-383.061 491.3179,-388.6658 492.8507,-381.8357"/>
</g>
<!-- Node3 -->
<g id="node4" class="node">
<title>Node3</title>
<polygon fill="#ffffff" stroke="#bfbfbf" points="520,-364 520,-383 705,-383 705,-364 520,-364"/>
<text text-anchor="middle" x="612.5" y="-371" font-family="Helvetica,sans-Serif" font-size="10.00" fill="#000000">Teuchos_CommandLineProcessor.hpp</text>
</g>
<!-- Node0&#45;&gt;Node3 -->
<g id="edge3" class="edge">
<title>Node0&#45;&gt;Node3</title>
<path fill="none" stroke="#191970" d="M978.4336,-431.3244C901.469,-419.1626 765.7774,-397.7207 683.015,-384.6427"/>
<polygon fill="#191970" stroke="#191970" points="683.3673,-381.155 672.9435,-383.0512 682.2747,-388.0692 683.3673,-381.155"/>
</g>
<!-- Node4 -->
<g id="node5" class="node">
<title>Node4</title>
<polygon fill="#ffffff" stroke="#bfbfbf" points="1112.5,-297 1112.5,-316 1288.5,-316 1288.5,-297 1112.5,-297"/>
<text text-anchor="middle" x="1200.5" y="-304" font-family="Helvetica,sans-Serif" font-size="10.00" fill="#000000">Teuchos_StandardCatchMacros.hpp</text>
</g>
<!-- Node0&#45;&gt;Node4 -->
<g id="edge4" class="edge">
<title>Node0&#45;&gt;Node4</title>
<path fill="none" stroke="#191970" d="M1054.9941,-425.389C1086.2147,-399.8794 1149.082,-348.5122 1180.9807,-322.4487"/>
<polygon fill="#191970" stroke="#191970" points="1183.2164,-325.1418 1188.7456,-316.1042 1178.7873,-319.7211 1183.2164,-325.1418"/>
</g>
<!-- Node5 -->
<g id="node6" class="node">
<title>Node5</title>
<polygon fill="#ffffff" stroke="#bfbfbf" points="1307,-297 1307,-316 1446,-316 1446,-297 1307,-297"/>
<text text-anchor="middle" x="1376.5" y="-304" font-family="Helvetica,sans-Serif" font-size="10.00" fill="#000000">Teuchos_ParameterList.hpp</text>
</g>
<!-- Node0&#45;&gt;Node5 -->
<g id="edge5" class="edge">
<title>Node0&#45;&gt;Node5</title>
<path fill="none" stroke="#191970" d="M1074.8414,-425.389C1141.7705,-399.011 1278.8517,-344.9849 1342.5586,-319.8769"/>
<polygon fill="#191970" stroke="#191970" points="1344.1111,-323.0271 1352.1312,-316.1042 1341.5443,-316.5147 1344.1111,-323.0271"/>
</g>
<!-- Node6 -->
<g id="node7" class="node">
<title>Node6</title>
<polygon fill="#ffffff" stroke="#bfbfbf" points="1464.5,-291.5 1464.5,-321.5 1604.5,-321.5 1604.5,-291.5 1464.5,-291.5"/>
<text text-anchor="start" x="1472.5" y="-309.5" font-family="Helvetica,sans-Serif" font-size="10.00" fill="#000000">Teuchos_XMLParameterList</text>
<text text-anchor="middle" x="1534.5" y="-298.5" font-family="Helvetica,sans-Serif" font-size="10.00" fill="#000000">CoreHelpers.hpp</text>
</g>
<!-- Node0&#45;&gt;Node6 -->
<g id="edge6" class="edge">
<title>Node0&#45;&gt;Node6</title>
<path fill="none" stroke="#191970" d="M1092.6589,-425.389C1185.3739,-400.4416 1369.9981,-350.7636 1468.6894,-324.2081"/>
<polygon fill="#191970" stroke="#191970" points="1469.7993,-327.534 1478.5463,-321.5558 1467.9804,-320.7744 1469.7993,-327.534"/>
</g>
<!-- Node7 -->
<g id="node8" class="node">
<title>Node7</title>
<g id="a_node8"><a xlink:href="../../da/d42/_neumann_inner_surface___stochastic_polyconvex_h_g_o_8hpp.html" target="_top" xlink:title="NeumannInnerSurface\l_StochasticPolyconvexHGO.hpp">
<polygon fill="#ffffff" stroke="#000000" points="723,-358.5 723,-388.5 884,-388.5 884,-358.5 723,-358.5"/>
<text text-anchor="start" x="731" y="-376.5" font-family="Helvetica,sans-Serif" font-size="10.00" fill="#000000">NeumannInnerSurface</text>
<text text-anchor="middle" x="803.5" y="-365.5" font-family="Helvetica,sans-Serif" font-size="10.00" fill="#000000">_StochasticPolyconvexHGO.hpp</text>
</a>
</g>
</g>
<!-- Node0&#45;&gt;Node7 -->
<g id="edge7" class="edge">
<title>Node0&#45;&gt;Node7</title>
<path fill="none" stroke="#191970" d="M984.2103,-425.4639C949.108,-415.3701 902.6954,-402.024 865.6964,-391.3848"/>
<polygon fill="#191970" stroke="#191970" points="866.5956,-388.0016 856.0178,-388.6017 864.6611,-394.729 866.5956,-388.0016"/>
</g>
<!-- Node51 -->
<g id="node41" class="node">
<title>Node51</title>
<polygon fill="#ffffff" stroke="#bfbfbf" points="978.5,-291.5 978.5,-321.5 1094.5,-321.5 1094.5,-291.5 978.5,-291.5"/>
<text text-anchor="start" x="986.5" y="-309.5" font-family="Helvetica,sans-Serif" font-size="10.00" fill="#000000">boost/math/special</text>
<text text-anchor="middle" x="1036.5" y="-298.5" font-family="Helvetica,sans-Serif" font-size="10.00" fill="#000000">_functions/gamma.hpp</text>
</g>
<!-- Node0&#45;&gt;Node51 -->
<g id="edge58" class="edge">
<title>Node0&#45;&gt;Node51</title>
<path fill="none" stroke="#191970" d="M1036.5,-425.389C1036.5,-402.6691 1036.5,-359.438 1036.5,-331.8405"/>
<polygon fill="#191970" stroke="#191970" points="1040.0001,-331.7614 1036.5,-321.7614 1033.0001,-331.7614 1040.0001,-331.7614"/>
</g>
<!-- Node53 -->
<g id="node43" class="node">
<title>Node53</title>
<g id="a_node43"><a xlink:href="../../d7/d17/_newton___raphsonpp_8hpp.html" target="_top" xlink:title="Newton_Raphsonpp.hpp">
<polygon fill="#ffffff" stroke="#000000" points="1802.5,-364 1802.5,-383 1926.5,-383 1926.5,-364 1802.5,-364"/>
<text text-anchor="middle" x="1864.5" y="-371" font-family="Helvetica,sans-Serif" font-size="10.00" fill="#000000">Newton_Raphsonpp.hpp</text>
</a>
</g>
</g>
<!-- Node0&#45;&gt;Node53 -->
<g id="edge45" class="edge">
<title>Node0&#45;&gt;Node53</title>
<path fill="none" stroke="#191970" d="M1094.7234,-435.7887C1242.2243,-423.8532 1630.3358,-392.4481 1792.1001,-379.3584"/>
<polygon fill="#191970" stroke="#191970" points="1792.7378,-382.8184 1802.4229,-378.5231 1792.1732,-375.8412 1792.7378,-382.8184"/>
</g>
<!-- Node8 -->
<g id="node9" class="node">
<title>Node8</title>
<g id="a_node9"><a xlink:href="../../de/d49/tensor__calculus_8hpp.html" target="_top" xlink:title="tensor_calculus.hpp">
<polygon fill="#ffffff" stroke="#000000" points="595.5,-168.5 595.5,-187.5 699.5,-187.5 699.5,-168.5 595.5,-168.5"/>
<text text-anchor="middle" x="647.5" y="-175.5" font-family="Helvetica,sans-Serif" font-size="10.00" fill="#000000">tensor_calculus.hpp</text>
</a>
</g>
</g>
<!-- Node7&#45;&gt;Node8 -->
<g id="edge8" class="edge">
<title>Node7&#45;&gt;Node8</title>
<path fill="none" stroke="#191970" d="M722.5408,-359.0799C719.8307,-358.6995 717.1448,-358.338 714.5,-358 665.9534,-351.7951 308.6625,-357.9933 275.5,-322 182.41,-220.9638 456.9755,-190.0455 585.2942,-181.2459"/>
<polygon fill="#191970" stroke="#191970" points="585.64,-184.7307 595.3873,-180.5787 585.1782,-177.746 585.64,-184.7307"/>
</g>
<!-- Node41 -->
<g id="node31" class="node">
<title>Node41</title>
<g id="a_node31"><a xlink:href="../../dc/de0/nearly_incompressible_hyperelasticity_8hpp.html" target="_top" xlink:title="nearlyIncompressibleHyperelasticity.hpp">
<polygon fill="#ffffff" stroke="#000000" points="531,-297 531,-316 724,-316 724,-297 531,-297"/>
<text text-anchor="middle" x="627.5" y="-304" font-family="Helvetica,sans-Serif" font-size="10.00" fill="#000000">nearlyIncompressibleHyperelasticity.hpp</text>
</a>
</g>
</g>
<!-- Node7&#45;&gt;Node41 -->
<g id="edge30" class="edge">
<title>Node7&#45;&gt;Node41</title>
<path fill="none" stroke="#191970" d="M764.0022,-358.4639C733.3164,-346.7824 691.1882,-330.7449 661.8814,-319.5884"/>
<polygon fill="#191970" stroke="#191970" points="663.0601,-316.2921 652.4691,-316.0053 660.5696,-322.8341 663.0601,-316.2921"/>
</g>
<!-- Node45 -->
<g id="node35" class="node">
<title>Node45</title>
<g id="a_node35"><a xlink:href="../../d5/d3f/laplacepp_8hpp.html" target="_top" xlink:title="laplacepp.hpp">
<polygon fill="#ffffff" stroke="#000000" points="883,-297 883,-316 960,-316 960,-297 883,-297"/>
<text text-anchor="middle" x="921.5" y="-304" font-family="Helvetica,sans-Serif" font-size="10.00" fill="#000000">laplacepp.hpp</text>
</a>
</g>
</g>
<!-- Node7&#45;&gt;Node45 -->
<g id="edge36" class="edge">
<title>Node7&#45;&gt;Node45</title>
<path fill="none" stroke="#191970" d="M829.9815,-358.4639C849.602,-347.3234 876.2,-332.2212 895.6649,-321.1691"/>
<polygon fill="#191970" stroke="#191970" points="897.6178,-324.0851 904.5856,-316.1039 894.1615,-317.9979 897.6178,-324.0851"/>
</g>
<!-- Node47 -->
<g id="node37" class="node">
<title>Node47</title>
<polygon fill="#ffffff" stroke="#bfbfbf" points="742.5,-291.5 742.5,-321.5 864.5,-321.5 864.5,-291.5 742.5,-291.5"/>
<text text-anchor="start" x="750.5" y="-309.5" font-family="Helvetica,sans-Serif" font-size="10.00" fill="#000000">boost/random/mersenne</text>
<text text-anchor="middle" x="803.5" y="-298.5" font-family="Helvetica,sans-Serif" font-size="10.00" fill="#000000">_twister.hpp</text>
</g>
<!-- Node7&#45;&gt;Node47 -->
<g id="edge39" class="edge">
<title>Node7&#45;&gt;Node47</title>
<path fill="none" stroke="#191970" d="M803.5,-358.2967C803.5,-350.5013 803.5,-340.7991 803.5,-331.9064"/>
<polygon fill="#191970" stroke="#191970" points="807.0001,-331.6431 803.5,-321.6432 800.0001,-331.6432 807.0001,-331.6431"/>
</g>
<!-- Node48 -->
<g id="node38" class="node">
<title>Node48</title>
<polygon fill="#ffffff" stroke="#bfbfbf" points="0,-291.5 0,-321.5 111,-321.5 111,-291.5 0,-291.5"/>
<text text-anchor="start" x="8" y="-309.5" font-family="Helvetica,sans-Serif" font-size="10.00" fill="#000000">boost/random/uniform</text>
<text text-anchor="middle" x="55.5" y="-298.5" font-family="Helvetica,sans-Serif" font-size="10.00" fill="#000000">_real_distribution.hpp</text>
</g>
<!-- Node7&#45;&gt;Node48 -->
<g id="edge40" class="edge">
<title>Node7&#45;&gt;Node48</title>
<path fill="none" stroke="#191970" d="M722.5498,-359.0059C719.8372,-358.6467 717.1482,-358.3097 714.5,-358 454.7062,-327.615 383.2971,-360.4784 121.4296,-322.1281"/>
<polygon fill="#191970" stroke="#191970" points="121.6385,-318.6208 111.2326,-320.6132 120.6097,-325.5448 121.6385,-318.6208"/>
</g>
<!-- Node49 -->
<g id="node39" class="node">
<title>Node49</title>
<polygon fill="#ffffff" stroke="#bfbfbf" points="129,-291.5 129,-321.5 228,-321.5 228,-291.5 129,-291.5"/>
<text text-anchor="start" x="137" y="-309.5" font-family="Helvetica,sans-Serif" font-size="10.00" fill="#000000">boost/math/special</text>
<text text-anchor="middle" x="178.5" y="-298.5" font-family="Helvetica,sans-Serif" font-size="10.00" fill="#000000">_functions/erf.hpp</text>
</g>
<!-- Node7&#45;&gt;Node49 -->
<g id="edge41" class="edge">
<title>Node7&#45;&gt;Node49</title>
<path fill="none" stroke="#191970" d="M722.5433,-359.0602C719.8325,-358.6855 717.1457,-358.3305 714.5,-358 505.7355,-331.9212 450.3038,-354.8678 242.5,-322 241.1979,-321.794 239.8832,-321.5752 238.5598,-321.345"/>
<polygon fill="#191970" stroke="#191970" points="238.7838,-317.8246 228.3045,-319.3851 237.4697,-324.7001 238.7838,-317.8246"/>
</g>
<!-- Node50 -->
<g id="node40" class="node">
<title>Node50</title>
<polygon fill="#ffffff" stroke="#bfbfbf" points="284.5,-291.5 284.5,-321.5 392.5,-321.5 392.5,-291.5 284.5,-291.5"/>
<text text-anchor="start" x="292.5" y="-309.5" font-family="Helvetica,sans-Serif" font-size="10.00" fill="#000000">boost/random/normal</text>
<text text-anchor="middle" x="338.5" y="-298.5" font-family="Helvetica,sans-Serif" font-size="10.00" fill="#000000">_distribution.hpp</text>
</g>
<!-- Node7&#45;&gt;Node50 -->
<g id="edge42" class="edge">
<title>Node7&#45;&gt;Node50</title>
<path fill="none" stroke="#191970" d="M722.5254,-359.1928C719.8198,-358.7802 717.1389,-358.3812 714.5,-358 579.1587,-338.4482 541.0901,-346.38 402.833,-322.1025"/>
<polygon fill="#191970" stroke="#191970" points="403.1615,-318.606 392.7027,-320.298 401.9339,-325.4975 403.1615,-318.606"/>
</g>
<!-- Node7&#45;&gt;Node51 -->
<g id="edge43" class="edge">
<title>Node7&#45;&gt;Node51</title>
<path fill="none" stroke="#191970" d="M855.7897,-358.4639C890.892,-348.3701 937.3046,-335.024 974.3036,-324.3848"/>
<polygon fill="#191970" stroke="#191970" points="975.3389,-327.729 983.9822,-321.6017 973.4044,-321.0016 975.3389,-327.729"/>
</g>
<!-- Node52 -->
<g id="node42" class="node">
<title>Node52</title>
<polygon fill="#ffffff" stroke="#bfbfbf" points="410.5,-291.5 410.5,-321.5 512.5,-321.5 512.5,-291.5 410.5,-291.5"/>
<text text-anchor="start" x="418.5" y="-309.5" font-family="Helvetica,sans-Serif" font-size="10.00" fill="#000000">boost/math/special</text>
<text text-anchor="middle" x="461.5" y="-298.5" font-family="Helvetica,sans-Serif" font-size="10.00" fill="#000000">_functions/beta.hpp</text>
</g>
<!-- Node7&#45;&gt;Node52 -->
<g id="edge44" class="edge">
<title>Node7&#45;&gt;Node52</title>
<path fill="none" stroke="#191970" d="M722.9891,-359.3691C653.9192,-347.1308 559.8103,-330.1495 522.5,-322 522.3999,-321.9781 522.2998,-321.9562 522.1995,-321.9343"/>
<polygon fill="#191970" stroke="#191970" points="523.2223,-318.5775 512.6954,-319.7758 521.6719,-325.4037 523.2223,-318.5775"/>
</g>
<!-- Node9 -->
<g id="node10" class="node">
<title>Node9</title>
<g id="a_node10"><a xlink:href="../../d0/d02/meshpp_8hpp.html" target="_top" xlink:title="meshpp.hpp">
<polygon fill="#ffffff" stroke="#ff0000" points="1143.5,-56.5 1143.5,-75.5 1213.5,-75.5 1213.5,-56.5 1143.5,-56.5"/>
<text text-anchor="middle" x="1178.5" y="-63.5" font-family="Helvetica,sans-Serif" font-size="10.00" fill="#000000">meshpp.hpp</text>
</a>
</g>
</g>
<!-- Node8&#45;&gt;Node9 -->
<g id="edge9" class="edge">
<title>Node8&#45;&gt;Node9</title>
<path fill="none" stroke="#191970" d="M692.7728,-168.4509C793.1573,-147.2776 1033.4323,-96.5981 1133.5325,-75.4847"/>
<polygon fill="#191970" stroke="#191970" points="1134.2762,-78.9049 1143.3385,-73.4164 1132.8314,-72.0556 1134.2762,-78.9049"/>
</g>
<!-- Node10 -->
<g id="node11" class="node">
<title>Node10</title>
<polygon fill="#ffffff" stroke="#bfbfbf" points="2131.5,-.5 2131.5,-19.5 2177.5,-19.5 2177.5,-.5 2131.5,-.5"/>
<text text-anchor="middle" x="2154.5" y="-7.5" font-family="Helvetica,sans-Serif" font-size="10.00" fill="#000000">stdio.h</text>
</g>
<!-- Node9&#45;&gt;Node10 -->
<g id="edge10" class="edge">
<title>Node9&#45;&gt;Node10</title>
<path fill="none" stroke="#191970" d="M1213.5318,-65.483C1359.8152,-63.1444 1923.0582,-52.3033 2121.2489,-19.7345"/>
<polygon fill="#191970" stroke="#191970" points="2121.9886,-23.1588 2131.2515,-18.0159 2120.8032,-16.2599 2121.9886,-23.1588"/>
</g>
<!-- Node11 -->
<g id="node12" class="node">
<title>Node11</title>
<polygon fill="#ffffff" stroke="#bfbfbf" points="2195.5,-.5 2195.5,-19.5 2249.5,-19.5 2249.5,-.5 2195.5,-.5"/>
<text text-anchor="middle" x="2222.5" y="-7.5" font-family="Helvetica,sans-Serif" font-size="10.00" fill="#000000">iostream</text>
</g>
<!-- Node9&#45;&gt;Node11 -->
<g id="edge11" class="edge">
<title>Node9&#45;&gt;Node11</title>
<path fill="none" stroke="#191970" d="M1213.5057,-65.4603C1365.9124,-62.9507 1973.064,-51.2584 2185.0309,-19.8489"/>
<polygon fill="#191970" stroke="#191970" points="2185.7751,-23.2756 2195.1235,-18.2898 2184.7063,-16.3576 2185.7751,-23.2756"/>
</g>
<!-- Node12 -->
<g id="node13" class="node">
<title>Node12</title>
<polygon fill="#ffffff" stroke="#bfbfbf" points="202,-.5 202,-19.5 251,-19.5 251,-.5 202,-.5"/>
<text text-anchor="middle" x="226.5" y="-7.5" font-family="Helvetica,sans-Serif" font-size="10.00" fill="#000000">istream</text>
</g>
<!-- Node9&#45;&gt;Node12 -->
<g id="edge12" class="edge">
<title>Node9&#45;&gt;Node12</title>
<path fill="none" stroke="#191970" d="M1143.4641,-65.3492C999.8062,-62.5134 454.7656,-50.0762 261.2683,-19.6552"/>
<polygon fill="#191970" stroke="#191970" points="261.6589,-16.1726 251.2237,-18.005 260.524,-23.08 261.6589,-16.1726"/>
</g>
<!-- Node13 -->
<g id="node14" class="node">
<title>Node13</title>
<polygon fill="#ffffff" stroke="#bfbfbf" points="269.5,-.5 269.5,-19.5 319.5,-19.5 319.5,-.5 269.5,-.5"/>
<text text-anchor="middle" x="294.5" y="-7.5" font-family="Helvetica,sans-Serif" font-size="10.00" fill="#000000">fstream</text>
</g>
<!-- Node9&#45;&gt;Node13 -->
<g id="edge13" class="edge">
<title>Node9&#45;&gt;Node13</title>
<path fill="none" stroke="#191970" d="M1143.2611,-65.1824C1006.2987,-61.8394 508.5445,-48.1117 329.6506,-19.7553"/>
<polygon fill="#191970" stroke="#191970" points="330.0357,-16.2714 319.5977,-18.0873 328.8899,-23.177 330.0357,-16.2714"/>
</g>
<!-- Node14 -->
<g id="node15" class="node">
<title>Node14</title>
<polygon fill="#ffffff" stroke="#bfbfbf" points="337.5,-.5 337.5,-19.5 381.5,-19.5 381.5,-.5 337.5,-.5"/>
<text text-anchor="middle" x="359.5" y="-7.5" font-family="Helvetica,sans-Serif" font-size="10.00" fill="#000000">vector</text>
</g>
<!-- Node9&#45;&gt;Node14 -->
<g id="edge14" class="edge">
<title>Node9&#45;&gt;Node14</title>
<path fill="none" stroke="#191970" d="M1143.1189,-65.1265C1012.5476,-61.7217 557.2014,-48.1991 391.6858,-19.7077"/>
<polygon fill="#191970" stroke="#191970" points="392.1394,-16.2331 381.6763,-17.8984 390.8942,-23.1214 392.1394,-16.2331"/>
</g>
<!-- Node15 -->
<g id="node16" class="node">
<title>Node15</title>
<polygon fill="#ffffff" stroke="#bfbfbf" points="399.5,-.5 399.5,-19.5 449.5,-19.5 449.5,-.5 399.5,-.5"/>
<text text-anchor="middle" x="424.5" y="-7.5" font-family="Helvetica,sans-Serif" font-size="10.00" fill="#000000">iomanip</text>
</g>
<!-- Node9&#45;&gt;Node15 -->
<g id="edge15" class="edge">
<title>Node9&#45;&gt;Node15</title>
<path fill="none" stroke="#191970" d="M1143.2135,-64.7848C1020.4104,-60.3974 611.4273,-44.4194 459.6507,-19.7719"/>
<polygon fill="#191970" stroke="#191970" points="460.0485,-16.2893 449.6026,-18.0592 458.8723,-23.1898 460.0485,-16.2893"/>
</g>
<!-- Node16 -->
<g id="node17" class="node">
<title>Node16</title>
<polygon fill="#ffffff" stroke="#bfbfbf" points="467.5,-.5 467.5,-19.5 571.5,-19.5 571.5,-.5 467.5,-.5"/>
<text text-anchor="middle" x="519.5" y="-7.5" font-family="Helvetica,sans-Serif" font-size="10.00" fill="#000000">Epetra_MpiComm.h</text>
</g>
<!-- Node9&#45;&gt;Node16 -->
<g id="edge16" class="edge">
<title>Node9&#45;&gt;Node16</title>
<path fill="none" stroke="#191970" d="M1143.4099,-64.3162C1051.1346,-59.6676 794.1439,-45.2968 581.5,-20 581.3985,-19.9879 581.2969,-19.9758 581.1952,-19.9636"/>
<polygon fill="#191970" stroke="#191970" points="581.9174,-16.528 571.5512,-18.7168 581.0198,-23.4702 581.9174,-16.528"/>
</g>
<!-- Node17 -->
<g id="node18" class="node">
<title>Node17</title>
<polygon fill="#ffffff" stroke="#bfbfbf" points="590,-.5 590,-19.5 703,-19.5 703,-.5 590,-.5"/>
<text text-anchor="middle" x="646.5" y="-7.5" font-family="Helvetica,sans-Serif" font-size="10.00" fill="#000000">Epetra_FECrsGraph.h</text>
</g>
<!-- Node9&#45;&gt;Node17 -->
<g id="edge17" class="edge">
<title>Node9&#45;&gt;Node17</title>
<path fill="none" stroke="#191970" d="M1143.3559,-63.1591C1067.0916,-56.8593 880.5066,-40.7176 713.3227,-20.0469"/>
<polygon fill="#191970" stroke="#191970" points="713.7115,-16.5684 703.3557,-18.8063 712.8468,-23.5148 713.7115,-16.5684"/>
</g>
<!-- Node18 -->
<g id="node19" class="node">
<title>Node18</title>
<polygon fill="#ffffff" stroke="#bfbfbf" points="721.5,-.5 721.5,-19.5 835.5,-19.5 835.5,-.5 721.5,-.5"/>
<text text-anchor="middle" x="778.5" y="-7.5" font-family="Helvetica,sans-Serif" font-size="10.00" fill="#000000">Epetra_FECrsMatrix.h</text>
</g>
<!-- Node9&#45;&gt;Node18 -->
<g id="edge18" class="edge">
<title>Node9&#45;&gt;Node18</title>
<path fill="none" stroke="#191970" d="M1143.3746,-61.3212C1084.2112,-53.4059 960.6663,-36.7294 845.7542,-20.1673"/>
<polygon fill="#191970" stroke="#191970" points="846.128,-16.685 835.7304,-18.7196 845.1274,-23.6131 846.128,-16.685"/>
</g>
<!-- Node19 -->
<g id="node20" class="node">
<title>Node19</title>
<polygon fill="#ffffff" stroke="#bfbfbf" points="853.5,-.5 853.5,-19.5 953.5,-19.5 953.5,-.5 853.5,-.5"/>
<text text-anchor="middle" x="903.5" y="-7.5" font-family="Helvetica,sans-Serif" font-size="10.00" fill="#000000">Epetra_FEVector.h</text>
</g>
<!-- Node9&#45;&gt;Node19 -->
<g id="edge19" class="edge">
<title>Node9&#45;&gt;Node19</title>
<path fill="none" stroke="#191970" d="M1143.3917,-58.8507C1097.1814,-49.4406 1015.3753,-32.7819 960.3019,-21.5669"/>
<polygon fill="#191970" stroke="#191970" points="960.8414,-18.105 950.3441,-19.5392 959.4446,-24.9643 960.8414,-18.105"/>
</g>
<!-- Node20 -->
<g id="node21" class="node">
<title>Node20</title>
<polygon fill="#ffffff" stroke="#bfbfbf" points="972,-.5 972,-19.5 1059,-19.5 1059,-.5 972,-.5"/>
<text text-anchor="middle" x="1015.5" y="-7.5" font-family="Helvetica,sans-Serif" font-size="10.00" fill="#000000">Epetra_Vector.h</text>
</g>
<!-- Node9&#45;&gt;Node20 -->
<g id="edge20" class="edge">
<title>Node9&#45;&gt;Node20</title>
<path fill="none" stroke="#191970" d="M1150.4793,-56.3733C1123.4922,-47.1016 1082.4983,-33.0178 1052.7689,-22.804"/>
<polygon fill="#191970" stroke="#191970" points="1053.7497,-19.4403 1043.1551,-19.5011 1051.4752,-26.0605 1053.7497,-19.4403"/>
</g>
<!-- Node21 -->
<g id="node22" class="node">
<title>Node21</title>
<polygon fill="#ffffff" stroke="#bfbfbf" points="1077,-.5 1077,-19.5 1154,-19.5 1154,-.5 1077,-.5"/>
<text text-anchor="middle" x="1115.5" y="-7.5" font-family="Helvetica,sans-Serif" font-size="10.00" fill="#000000">Epetra_Map.h</text>
</g>
<!-- Node9&#45;&gt;Node21 -->
<g id="edge21" class="edge">
<title>Node9&#45;&gt;Node21</title>
<path fill="none" stroke="#191970" d="M1167.5262,-56.2455C1158.3118,-48.0549 1144.9468,-36.1749 1134.0703,-26.5069"/>
<polygon fill="#191970" stroke="#191970" points="1136.1474,-23.6704 1126.348,-19.6427 1131.4968,-28.9023 1136.1474,-23.6704"/>
</g>
<!-- Node22 -->
<g id="node23" class="node">
<title>Node22</title>
<polygon fill="#ffffff" stroke="#bfbfbf" points="1172,-.5 1172,-19.5 1311,-19.5 1311,-.5 1172,-.5"/>
<text text-anchor="middle" x="1241.5" y="-7.5" font-family="Helvetica,sans-Serif" font-size="10.00" fill="#000000">Epetra_SerialDenseMatrix.h</text>
</g>
<!-- Node9&#45;&gt;Node22 -->
<g id="edge22" class="edge">
<title>Node9&#45;&gt;Node22</title>
<path fill="none" stroke="#191970" d="M1189.4738,-56.2455C1198.6882,-48.0549 1212.0532,-36.1749 1222.9297,-26.5069"/>
<polygon fill="#191970" stroke="#191970" points="1225.5032,-28.9023 1230.652,-19.6427 1220.8526,-23.6704 1225.5032,-28.9023"/>
</g>
<!-- Node23 -->
<g id="node24" class="node">
<title>Node23</title>
<polygon fill="#ffffff" stroke="#bfbfbf" points="1329.5,-.5 1329.5,-19.5 1469.5,-19.5 1469.5,-.5 1329.5,-.5"/>
<text text-anchor="middle" x="1399.5" y="-7.5" font-family="Helvetica,sans-Serif" font-size="10.00" fill="#000000">Epetra_SerialDenseVector.h</text>
</g>
<!-- Node9&#45;&gt;Node23 -->
<g id="edge23" class="edge">
<title>Node9&#45;&gt;Node23</title>
<path fill="none" stroke="#191970" d="M1213.5181,-57.1266C1250.8482,-47.6674 1310.194,-32.6296 1351.7826,-22.0913"/>
<polygon fill="#191970" stroke="#191970" points="1352.8515,-25.4311 1361.6854,-19.582 1351.132,-18.6456 1352.8515,-25.4311"/>
</g>
<!-- Node24 -->
<g id="node25" class="node">
<title>Node24</title>
<polygon fill="#ffffff" stroke="#bfbfbf" points="1487.5,-.5 1487.5,-19.5 1639.5,-19.5 1639.5,-.5 1487.5,-.5"/>
<text text-anchor="middle" x="1563.5" y="-7.5" font-family="Helvetica,sans-Serif" font-size="10.00" fill="#000000">Epetra_IntSerialDenseVector.h</text>
</g>
<!-- Node9&#45;&gt;Node24 -->
<g id="edge24" class="edge">
<title>Node9&#45;&gt;Node24</title>
<path fill="none" stroke="#191970" d="M1213.6868,-60.8819C1275.5208,-51.8879 1404.965,-33.0596 1487.8722,-21.0004"/>
<polygon fill="#191970" stroke="#191970" points="1488.6029,-24.431 1497.9949,-19.528 1487.5953,-17.5039 1488.6029,-24.431"/>
</g>
<!-- Node25 -->
<g id="node26" class="node">
<title>Node25</title>
<polygon fill="#ffffff" stroke="#bfbfbf" points="1657.5,-.5 1657.5,-19.5 1743.5,-19.5 1743.5,-.5 1657.5,-.5"/>
<text text-anchor="middle" x="1700.5" y="-7.5" font-family="Helvetica,sans-Serif" font-size="10.00" fill="#000000">Epetra_Import.h</text>
</g>
<!-- Node9&#45;&gt;Node25 -->
<g id="edge25" class="edge">
<title>Node9&#45;&gt;Node25</title>
<path fill="none" stroke="#191970" d="M1213.7151,-63.6713C1290.5716,-58.3493 1479.2642,-43.9821 1647.3993,-20.0441"/>
<polygon fill="#191970" stroke="#191970" points="1648.022,-23.4907 1657.4217,-18.6022 1647.0251,-16.562 1648.022,-23.4907"/>
</g>
<!-- Node26 -->
<g id="node27" class="node">
<title>Node26</title>
<polygon fill="#ffffff" stroke="#bfbfbf" points="1762,-.5 1762,-19.5 1849,-19.5 1849,-.5 1762,-.5"/>
<text text-anchor="middle" x="1805.5" y="-7.5" font-family="Helvetica,sans-Serif" font-size="10.00" fill="#000000">Epetra_Export.h</text>
</g>
<!-- Node9&#45;&gt;Node26 -->
<g id="edge26" class="edge">
<title>Node9&#45;&gt;Node26</title>
<path fill="none" stroke="#191970" d="M1213.581,-64.4918C1302.0839,-60.4092 1541.7272,-47.6312 1751.9016,-19.9399"/>
<polygon fill="#191970" stroke="#191970" points="1752.4365,-23.3996 1761.8869,-18.61 1751.5123,-16.4609 1752.4365,-23.3996"/>
</g>
<!-- Node27 -->
<g id="node28" class="node">
<title>Node27</title>
<polygon fill="#ffffff" stroke="#bfbfbf" points="1867.5,-.5 1867.5,-19.5 1947.5,-19.5 1947.5,-.5 1867.5,-.5"/>
<text text-anchor="middle" x="1907.5" y="-7.5" font-family="Helvetica,sans-Serif" font-size="10.00" fill="#000000">Epetra_Time.h</text>
</g>
<!-- Node9&#45;&gt;Node27 -->
<g id="edge27" class="edge">
<title>Node9&#45;&gt;Node27</title>
<path fill="none" stroke="#191970" d="M1213.7017,-65.2781C1313.2376,-62.8853 1605.2999,-53.438 1857.3818,-19.979"/>
<polygon fill="#191970" stroke="#191970" points="1858.0179,-23.4251 1867.4631,-18.6251 1857.0862,-16.4874 1858.0179,-23.4251"/>
</g>
<!-- Node28 -->
<g id="node29" class="node">
<title>Node28</title>
<polygon fill="#ffffff" stroke="#bfbfbf" points="1966,-.5 1966,-19.5 2113,-19.5 2113,-.5 1966,-.5"/>
<text text-anchor="middle" x="2039.5" y="-7.5" font-family="Helvetica,sans-Serif" font-size="10.00" fill="#000000">ml_MultiLevelPreconditioner.h</text>
</g>
<!-- Node9&#45;&gt;Node28 -->
<g id="edge28" class="edge">
<title>Node9&#45;&gt;Node28</title>
<path fill="none" stroke="#191970" d="M1213.8388,-64.6773C1322.6927,-60.4406 1662.7097,-45.9928 1955.7904,-20.0104"/>
<polygon fill="#191970" stroke="#191970" points="1956.1091,-23.496 1965.7582,-19.1206 1955.4866,-16.5237 1956.1091,-23.496"/>
</g>
<!-- Node35 -->
<g id="node30" class="node">
<title>Node35</title>
<polygon fill="#ffffff" stroke="#bfbfbf" points="2267.5,-.5 2267.5,-19.5 2367.5,-19.5 2367.5,-.5 2267.5,-.5"/>
<text text-anchor="middle" x="2317.5" y="-7.5" font-family="Helvetica,sans-Serif" font-size="10.00" fill="#000000">Teuchos_RCP.hpp</text>
</g>
<!-- Node9&#45;&gt;Node35 -->
<g id="edge29" class="edge">
<title>Node9&#45;&gt;Node35</title>
<path fill="none" stroke="#191970" d="M1213.745,-65.0942C1373.1747,-60.9067 2028.6242,-42.7023 2257.1175,-19.9905"/>
<polygon fill="#191970" stroke="#191970" points="2257.7568,-23.4434 2267.347,-18.9402 2257.0418,-16.48 2257.7568,-23.4434"/>
</g>
<!-- Node42 -->
<g id="node32" class="node">
<title>Node42</title>
<g id="a_node32"><a xlink:href="../../d2/d34/hyperelasticity_8hpp.html" target="_top" xlink:title="hyperelasticity.hpp">
<polygon fill="#ffffff" stroke="#000000" points="893.5,-230 893.5,-249 991.5,-249 991.5,-230 893.5,-230"/>
<text text-anchor="middle" x="942.5" y="-237" font-family="Helvetica,sans-Serif" font-size="10.00" fill="#000000">hyperelasticity.hpp</text>
</a>
</g>
</g>
<!-- Node41&#45;&gt;Node42 -->
<g id="edge31" class="edge">
<title>Node41&#45;&gt;Node42</title>
<path fill="none" stroke="#191970" d="M672.2973,-296.9717C729.0139,-284.9082 826.6769,-264.1354 887.7553,-251.1441"/>
<polygon fill="#191970" stroke="#191970" points="888.5495,-254.5536 897.6025,-249.0496 887.0931,-247.7067 888.5495,-254.5536"/>
</g>
<!-- Node43 -->
<g id="node33" class="node">
<title>Node43</title>
<g id="a_node33"><a xlink:href="../../d2/d8b/_finite___element___problem_8hpp.html" target="_top" xlink:title="Finite_Element_Problem.hpp">
<polygon fill="#ffffff" stroke="#000000" points="1147.5,-168.5 1147.5,-187.5 1289.5,-187.5 1289.5,-168.5 1147.5,-168.5"/>
<text text-anchor="middle" x="1218.5" y="-175.5" font-family="Helvetica,sans-Serif" font-size="10.00" fill="#000000">Finite_Element_Problem.hpp</text>
</a>
</g>
</g>
<!-- Node42&#45;&gt;Node43 -->
<g id="edge32" class="edge">
<title>Node42&#45;&gt;Node43</title>
<path fill="none" stroke="#191970" d="M985.3222,-229.9581C1033.97,-219.1181 1113.385,-201.4224 1165.7958,-189.7439"/>
<polygon fill="#191970" stroke="#191970" points="1166.578,-193.1555 1175.5774,-187.5643 1165.0555,-186.3231 1166.578,-193.1555"/>
</g>
<!-- Node43&#45;&gt;Node9 -->
<g id="edge33" class="edge">
<title>Node43&#45;&gt;Node9</title>
<path fill="none" stroke="#191970" d="M1213.5652,-168.3063C1209.0099,-159.1164 1202.2511,-144.8446 1197.5,-132 1191.8123,-116.6231 1186.7532,-98.7243 1183.2882,-85.4486"/>
<polygon fill="#191970" stroke="#191970" points="1186.6263,-84.373 1180.7738,-75.5413 1179.8414,-86.095 1186.6263,-84.373"/>
</g>
<!-- Node44 -->
<g id="node34" class="node">
<title>Node44</title>
<g id="a_node34"><a xlink:href="../../d0/d41/_base_class_f_e_m_8hpp.html" target="_top" xlink:title="BaseClassFEM.hpp">
<polygon fill="#ffffff" stroke="#000000" points="1206.5,-112.5 1206.5,-131.5 1310.5,-131.5 1310.5,-112.5 1206.5,-112.5"/>
<text text-anchor="middle" x="1258.5" y="-119.5" font-family="Helvetica,sans-Serif" font-size="10.00" fill="#000000">BaseClassFEM.hpp</text>
</a>
</g>
</g>
<!-- Node43&#45;&gt;Node44 -->
<g id="edge34" class="edge">
<title>Node43&#45;&gt;Node44</title>
<path fill="none" stroke="#191970" d="M1225.4675,-168.2455C1231.0311,-160.4564 1238.978,-149.3308 1245.6829,-139.9439"/>
<polygon fill="#191970" stroke="#191970" points="1248.648,-141.8144 1251.6124,-131.6427 1242.9519,-137.7457 1248.648,-141.8144"/>
</g>
<!-- Node44&#45;&gt;Node9 -->
<g id="edge35" class="edge">
<title>Node44&#45;&gt;Node9</title>
<path fill="none" stroke="#191970" d="M1244.5651,-112.2455C1232.4053,-103.7337 1214.5536,-91.2375 1200.4715,-81.3801"/>
<polygon fill="#191970" stroke="#191970" points="1202.4747,-78.51 1192.2752,-75.6427 1198.4605,-84.2447 1202.4747,-78.51"/>
</g>
<!-- Node46 -->
<g id="node36" class="node">
<title>Node46</title>
<g id="a_node36"><a xlink:href="../../d9/dea/_linear___finite___element___problem_8hpp.html" target="_top" xlink:title="Linear_Finite_Element\l_Problem.hpp">
<polygon fill="#ffffff" stroke="#000000" points="1661,-224.5 1661,-254.5 1774,-254.5 1774,-224.5 1661,-224.5"/>
<text text-anchor="start" x="1669" y="-242.5" font-family="Helvetica,sans-Serif" font-size="10.00" fill="#000000">Linear_Finite_Element</text>
<text text-anchor="middle" x="1717.5" y="-231.5" font-family="Helvetica,sans-Serif" font-size="10.00" fill="#000000">_Problem.hpp</text>
</a>
</g>
</g>
<!-- Node45&#45;&gt;Node46 -->
<g id="edge37" class="edge">
<title>Node45&#45;&gt;Node46</title>
<path fill="none" stroke="#191970" d="M947.1058,-296.9594C954.2619,-294.6436 962.1052,-292.4263 969.5,-291 1099.1004,-266.0021 1492.7713,-248.2912 1650.8014,-242.0094"/>
<polygon fill="#191970" stroke="#191970" points="1651.0103,-245.504 1660.8645,-241.6122 1650.7342,-238.5094 1651.0103,-245.504"/>
</g>
<!-- Node46&#45;&gt;Node44 -->
<g id="edge38" class="edge">
<title>Node46&#45;&gt;Node44</title>
<path fill="none" stroke="#191970" d="M1660.7572,-224.9743C1569.2544,-201.5504 1390.7855,-155.8639 1305.748,-134.0951"/>
<polygon fill="#191970" stroke="#191970" points="1306.4085,-130.6514 1295.8529,-131.562 1304.6725,-137.4327 1306.4085,-130.6514"/>
</g>
<!-- Node53&#45;&gt;Node4 -->
<g id="edge54" class="edge">
<title>Node53&#45;&gt;Node4</title>
<path fill="none" stroke="#191970" d="M1802.379,-369.1982C1698.048,-361.6711 1481.1108,-344.7237 1298.5,-322 1288.2018,-320.7185 1277.3231,-319.1817 1266.7076,-317.5808"/>
<polygon fill="#191970" stroke="#191970" points="1267.0537,-314.093 1256.6379,-316.0325 1265.9898,-321.0117 1267.0537,-314.093"/>
</g>
<!-- Node53&#45;&gt;Node5 -->
<g id="edge55" class="edge">
<title>Node53&#45;&gt;Node5</title>
<path fill="none" stroke="#191970" d="M1802.296,-367.0085C1721.9632,-358.3181 1577.9171,-341.6928 1455.5,-322 1448.016,-320.7961 1440.1574,-319.4066 1432.4187,-317.9642"/>
<polygon fill="#191970" stroke="#191970" points="1432.8343,-314.4806 1422.3562,-316.0487 1431.5253,-321.3571 1432.8343,-314.4806"/>
</g>
<!-- Node53&#45;&gt;Node6 -->
<g id="edge56" class="edge">
<title>Node53&#45;&gt;Node6</title>
<path fill="none" stroke="#191970" d="M1817.5695,-363.9717C1764.7859,-353.255 1678.1498,-335.6653 1614.6037,-322.7635"/>
<polygon fill="#191970" stroke="#191970" points="1615.1083,-319.2946 1604.6119,-320.7348 1613.7155,-326.1546 1615.1083,-319.2946"/>
</g>
<!-- Node53&#45;&gt;Node35 -->
<g id="edge47" class="edge">
<title>Node53&#45;&gt;Node35</title>
<path fill="none" stroke="#191970" d="M1926.7865,-370.0404C2040.2199,-363.1736 2271.3562,-346.3539 2298.5,-322 2326.5063,-296.8723 2317.5,-277.1265 2317.5,-239.5 2317.5,-239.5 2317.5,-239.5 2317.5,-122 2317.5,-89.7116 2317.5,-52.1872 2317.5,-29.8048"/>
<polygon fill="#191970" stroke="#191970" points="2321.0001,-29.5883 2317.5,-19.5884 2314.0001,-29.5884 2321.0001,-29.5883"/>
</g>
<!-- Node53&#45;&gt;Node43 -->
<g id="edge46" class="edge">
<title>Node53&#45;&gt;Node43</title>
<path fill="none" stroke="#191970" d="M1802.2346,-365.6358C1758.6495,-358.4243 1699.9624,-345.2178 1652.5,-322 1632.6102,-312.2702 1633.1896,-301.1288 1613.5,-291 1506.7513,-236.0859 1369.638,-204.536 1288.2233,-189.3643"/>
<polygon fill="#191970" stroke="#191970" points="1288.5566,-185.8671 1278.0894,-187.5069 1287.2946,-192.7524 1288.5566,-185.8671"/>
</g>
<!-- Node54 -->
<g id="node44" class="node">
<title>Node54</title>
<polygon fill="#ffffff" stroke="#bfbfbf" points="1947.5,-297 1947.5,-316 1999.5,-316 1999.5,-297 1947.5,-297"/>
<text text-anchor="middle" x="1973.5" y="-304" font-family="Helvetica,sans-Serif" font-size="10.00" fill="#000000">Ifpack.h</text>
</g>
<!-- Node53&#45;&gt;Node54 -->
<g id="edge48" class="edge">
<title>Node53&#45;&gt;Node54</title>
<path fill="none" stroke="#191970" d="M1880.117,-363.9005C1898.1669,-352.8057 1928.0896,-334.4128 1949.1908,-321.4424"/>
<polygon fill="#191970" stroke="#191970" points="1951.2255,-324.3001 1957.9119,-316.0817 1947.5598,-318.3366 1951.2255,-324.3001"/>
</g>
<!-- Node55 -->
<g id="node45" class="node">
<title>Node55</title>
<polygon fill="#ffffff" stroke="#bfbfbf" points="2018,-297 2018,-316 2149,-316 2149,-297 2018,-297"/>
<text text-anchor="middle" x="2083.5" y="-304" font-family="Helvetica,sans-Serif" font-size="10.00" fill="#000000">Ifpack_AdditiveSchwarz.h</text>
</g>
<!-- Node53&#45;&gt;Node55 -->
<g id="edge49" class="edge">
<title>Node53&#45;&gt;Node55</title>
<path fill="none" stroke="#191970" d="M1895.8774,-363.9005C1934.4194,-352.1091 1999.9053,-332.0746 2042.4235,-319.0668"/>
<polygon fill="#191970" stroke="#191970" points="2043.6423,-322.3541 2052.1808,-316.0817 2041.5944,-315.6604 2043.6423,-322.3541"/>
</g>
<!-- Node56 -->
<g id="node46" class="node">
<title>Node56</title>
<polygon fill="#ffffff" stroke="#bfbfbf" points="2167.5,-297 2167.5,-316 2289.5,-316 2289.5,-297 2167.5,-297"/>
<text text-anchor="middle" x="2228.5" y="-304" font-family="Helvetica,sans-Serif" font-size="10.00" fill="#000000">BelosLinearProblem.hpp</text>
</g>
<!-- Node53&#45;&gt;Node56 -->
<g id="edge50" class="edge">
<title>Node53&#45;&gt;Node56</title>
<path fill="none" stroke="#191970" d="M1923.492,-363.9593C1982.9554,-354.1562 2077.2989,-338.0938 2158.5,-322 2164.3664,-320.8373 2170.4964,-319.5651 2176.5846,-318.2653"/>
<polygon fill="#191970" stroke="#191970" points="2177.7044,-321.604 2186.737,-316.0666 2176.2227,-314.7626 2177.7044,-321.604"/>
</g>
<!-- Node57 -->
<g id="node47" class="node">
<title>Node57</title>
<polygon fill="#ffffff" stroke="#bfbfbf" points="2346,-297 2346,-316 2491,-316 2491,-297 2346,-297"/>
<text text-anchor="middle" x="2418.5" y="-304" font-family="Helvetica,sans-Serif" font-size="10.00" fill="#000000">BelosBlockGmresSolMgr.hpp</text>
</g>
<!-- Node53&#45;&gt;Node57 -->
<g id="edge51" class="edge">
<title>Node53&#45;&gt;Node57</title>
<path fill="none" stroke="#191970" d="M1926.6096,-367.9755C2016.2459,-359.7023 2186.9853,-342.8184 2331.5,-322 2340.2161,-320.7444 2349.3973,-319.2726 2358.3968,-317.7447"/>
<polygon fill="#191970" stroke="#191970" points="2359.1899,-321.1596 2368.4459,-316.0044 2357.9953,-314.2622 2359.1899,-321.1596"/>
</g>
<!-- Node58 -->
<g id="node48" class="node">
<title>Node58</title>
<polygon fill="#ffffff" stroke="#bfbfbf" points="2509.5,-297 2509.5,-316 2631.5,-316 2631.5,-297 2509.5,-297"/>
<text text-anchor="middle" x="2570.5" y="-304" font-family="Helvetica,sans-Serif" font-size="10.00" fill="#000000">BelosEpetraAdapter.hpp</text>
</g>
<!-- Node53&#45;&gt;Node58 -->
<g id="edge52" class="edge">
<title>Node53&#45;&gt;Node58</title>
<path fill="none" stroke="#191970" d="M1926.6665,-371.2965C2040.8741,-366.6213 2291.5433,-353.443 2500.5,-322 2507.364,-320.9671 2514.5591,-319.6488 2521.6155,-318.2183"/>
<polygon fill="#191970" stroke="#191970" points="2522.7415,-321.5575 2531.7999,-316.0624 2521.2918,-314.7093 2522.7415,-321.5575"/>
</g>
<!-- Node59 -->
<g id="node49" class="node">
<title>Node59</title>
<polygon fill="#ffffff" stroke="#bfbfbf" points="1661,-297 1661,-316 1782,-316 1782,-297 1661,-297"/>
<text text-anchor="middle" x="1721.5" y="-304" font-family="Helvetica,sans-Serif" font-size="10.00" fill="#000000">BelosSolverFactory.hpp</text>
</g>
<!-- Node53&#45;&gt;Node59 -->
<g id="edge53" class="edge">
<title>Node53&#45;&gt;Node59</title>
<path fill="none" stroke="#191970" d="M1844.0116,-363.9005C1819.6944,-352.5072 1778.9514,-333.4178 1751.1831,-320.4075"/>
<polygon fill="#191970" stroke="#191970" points="1752.4907,-317.1551 1741.9504,-316.0817 1749.5208,-323.4938 1752.4907,-317.1551"/>
</g>
<!-- Node60 -->
<g id="node50" class="node">
<title>Node60</title>
<polygon fill="#ffffff" stroke="#bfbfbf" points="1800,-291.5 1800,-321.5 1929,-321.5 1929,-291.5 1800,-291.5"/>
<text text-anchor="start" x="1808" y="-309.5" font-family="Helvetica,sans-Serif" font-size="10.00" fill="#000000">Stratimikos_DefaultLinear</text>
<text text-anchor="middle" x="1864.5" y="-298.5" font-family="Helvetica,sans-Serif" font-size="10.00" fill="#000000">SolverBuilder.hpp</text>
</g>
<!-- Node53&#45;&gt;Node60 -->
<g id="edge57" class="edge">
<title>Node53&#45;&gt;Node60</title>
<path fill="none" stroke="#191970" d="M1864.5,-363.9005C1864.5,-355.5099 1864.5,-342.9451 1864.5,-331.7085"/>
<polygon fill="#191970" stroke="#191970" points="1868.0001,-331.5217 1864.5,-321.5218 1861.0001,-331.5218 1868.0001,-331.5217"/>
</g>
</g>
</svg>
