<?xml version="1.0" encoding="UTF-8" standalone="no"?>
<!DOCTYPE svg PUBLIC "-//W3C//DTD SVG 1.1//EN"
 "http://www.w3.org/Graphics/SVG/1.1/DTD/svg11.dtd">
<!-- Generated by graphviz version 2.40.1 (20161225.0304)
 -->
<!-- Title: nrl/forward_randomfield/forwardCostfunction.hpp Pages: 1 -->
<svg width="135pt" height="102pt"
 viewBox="0.00 0.00 135.17 102.00" xmlns="http://www.w3.org/2000/svg" xmlns:xlink="http://www.w3.org/1999/xlink">
<g id="graph0" class="graph" transform="scale(1 1) rotate(0) translate(4 98)">
<title>nrl/forward_randomfield/forwardCostfunction.hpp</title>
<polygon fill="#ffffff" stroke="transparent" points="-4,4 -4,-98 131.1719,-98 131.1719,4 -4,4"/>
<!-- Node60 -->
<g id="node1" class="node">
<title>Node60</title>
<polygon fill="#bfbfbf" stroke="#000000" points="0,-65.5 0,-93.5 127.1719,-93.5 127.1719,-65.5 0,-65.5"/>
<text text-anchor="start" x="8" y="-81.5" font-family="Helvetica,sans-Serif" font-size="10.00" fill="#000000">nrl/forward_randomfield</text>
<text text-anchor="middle" x="63.5859" y="-71.5" font-family="Helvetica,sans-Serif" font-size="10.00" fill="#000000">/forwardCostfunction.hpp</text>
</g>
<!-- Node61 -->
<g id="node2" class="node">
<title>Node61</title>
<g id="a_node2"><a xlink:href="../../db/de3/nrl_2forward__randomfield_2main_8cpp.html" target="_top" xlink:title="nrl/forward_randomfield\l/main.cpp">
<polygon fill="#ffffff" stroke="#000000" points="3.0615,-.5 3.0615,-28.5 124.1104,-28.5 124.1104,-.5 3.0615,-.5"/>
<text text-anchor="start" x="11.0615" y="-16.5" font-family="Helvetica,sans-Serif" font-size="10.00" fill="#000000">nrl/forward_randomfield</text>
<text text-anchor="middle" x="63.5859" y="-6.5" font-family="Helvetica,sans-Serif" font-size="10.00" fill="#000000">/main.cpp</text>
</a>
</g>
</g>
<!-- Node60&#45;&gt;Node61 -->
<g id="edge1" class="edge">
<title>Node60&#45;&gt;Node61</title>
<path fill="none" stroke="#191970" d="M63.5859,-55.1081C63.5859,-46.1539 63.5859,-36.3227 63.5859,-28.5765"/>
<polygon fill="#191970" stroke="#191970" points="60.086,-55.3959 63.5859,-65.396 67.086,-55.396 60.086,-55.3959"/>
</g>
</g>
</svg>
