<?xml version="1.0" encoding="UTF-8" standalone="no"?>
<!DOCTYPE svg PUBLIC "-//W3C//DTD SVG 1.1//EN"
 "http://www.w3.org/Graphics/SVG/1.1/DTD/svg11.dtd">
<!-- Generated by graphviz version 2.40.1 (20161225.0304)
 -->
<!-- Title: rubberblock Pages: 1 -->
<svg width="148pt" height="252pt"
 viewBox="0.00 0.00 148.00 252.00" xmlns="http://www.w3.org/2000/svg" xmlns:xlink="http://www.w3.org/1999/xlink">
<g id="graph0" class="graph" transform="scale(1 1) rotate(0) translate(4 248)">
<title>rubberblock</title>
<polygon fill="#ffffff" stroke="transparent" points="-4,4 -4,-248 144,-248 144,4 -4,4"/>
<!-- Node0 -->
<g id="node1" class="node">
<title>Node0</title>
<polygon fill="#bfbfbf" stroke="#000000" points="36.5,-.5 36.5,-19.5 103.5,-19.5 103.5,-.5 36.5,-.5"/>
<text text-anchor="middle" x="70" y="-7.5" font-family="Helvetica,sans-Serif" font-size="10.00" fill="#000000">rubberblock</text>
</g>
<!-- Node1 -->
<g id="node2" class="node">
<title>Node1</title>
<g id="a_node2"><a xlink:href="../../d1/d5c/classcompressible_hyperelasticity.html" target="_top" xlink:title="compressibleHyperelasticity">
<polygon fill="#ffffff" stroke="#000000" points="0,-56.5 0,-75.5 140,-75.5 140,-56.5 0,-56.5"/>
<text text-anchor="middle" x="70" y="-63.5" font-family="Helvetica,sans-Serif" font-size="10.00" fill="#000000">compressibleHyperelasticity</text>
</a>
</g>
</g>
<!-- Node1&#45;&gt;Node0 -->
<g id="edge1" class="edge">
<title>Node1&#45;&gt;Node0</title>
<path fill="none" stroke="#191970" d="M70,-46.1575C70,-37.155 70,-26.9199 70,-19.6427"/>
<polygon fill="#191970" stroke="#191970" points="66.5001,-46.2455 70,-56.2455 73.5001,-46.2456 66.5001,-46.2455"/>
</g>
<!-- Node2 -->
<g id="node3" class="node">
<title>Node2</title>
<g id="a_node3"><a xlink:href="../../dc/d5a/classhyperelasticity.html" target="_top" xlink:title="hyperelasticity">
<polygon fill="#ffffff" stroke="#000000" points="30,-112.5 30,-131.5 110,-131.5 110,-112.5 30,-112.5"/>
<text text-anchor="middle" x="70" y="-119.5" font-family="Helvetica,sans-Serif" font-size="10.00" fill="#000000">hyperelasticity</text>
</a>
</g>
</g>
<!-- Node2&#45;&gt;Node1 -->
<g id="edge2" class="edge">
<title>Node2&#45;&gt;Node1</title>
<path fill="none" stroke="#191970" d="M70,-102.1575C70,-93.155 70,-82.9199 70,-75.6427"/>
<polygon fill="#191970" stroke="#191970" points="66.5001,-102.2455 70,-112.2455 73.5001,-102.2456 66.5001,-102.2455"/>
</g>
<!-- Node3 -->
<g id="node4" class="node">
<title>Node3</title>
<g id="a_node4"><a xlink:href="../../d8/dc2/class_finite___element___problem.html" target="_top" xlink:title="Finite_Element_Problem">
<polygon fill="#ffffff" stroke="#000000" points="8.5,-168.5 8.5,-187.5 131.5,-187.5 131.5,-168.5 8.5,-168.5"/>
<text text-anchor="middle" x="70" y="-175.5" font-family="Helvetica,sans-Serif" font-size="10.00" fill="#000000">Finite_Element_Problem</text>
</a>
</g>
</g>
<!-- Node3&#45;&gt;Node2 -->
<g id="edge3" class="edge">
<title>Node3&#45;&gt;Node2</title>
<path fill="none" stroke="#191970" d="M70,-158.1575C70,-149.155 70,-138.9199 70,-131.6427"/>
<polygon fill="#191970" stroke="#191970" points="66.5001,-158.2455 70,-168.2455 73.5001,-158.2456 66.5001,-158.2455"/>
</g>
<!-- Node4 -->
<g id="node5" class="node">
<title>Node4</title>
<g id="a_node5"><a xlink:href="../../d2/d97/class_base_class_f_e_m.html" target="_top" xlink:title="BaseClassFEM">
<polygon fill="#ffffff" stroke="#000000" points="27,-224.5 27,-243.5 113,-243.5 113,-224.5 27,-224.5"/>
<text text-anchor="middle" x="70" y="-231.5" font-family="Helvetica,sans-Serif" font-size="10.00" fill="#000000">BaseClassFEM</text>
</a>
</g>
</g>
<!-- Node4&#45;&gt;Node3 -->
<g id="edge4" class="edge">
<title>Node4&#45;&gt;Node3</title>
<path fill="none" stroke="#191970" d="M70,-214.1575C70,-205.155 70,-194.9199 70,-187.6427"/>
<polygon fill="#191970" stroke="#191970" points="66.5001,-214.2455 70,-224.2455 73.5001,-214.2456 66.5001,-214.2455"/>
</g>
</g>
</svg>
