<?xml version="1.0" encoding="UTF-8" standalone="no"?>
<!DOCTYPE svg PUBLIC "-//W3C//DTD SVG 1.1//EN"
 "http://www.w3.org/Graphics/SVG/1.1/DTD/svg11.dtd">
<!-- Generated by graphviz version 2.40.1 (20161225.0304)
 -->
<!-- Title: nrl/randomsearch_deterministicmodel/RandomSearch_DeterministicModel.hpp Pages: 1 -->
<svg width="206pt" height="102pt"
 viewBox="0.00 0.00 206.31 102.00" xmlns="http://www.w3.org/2000/svg" xmlns:xlink="http://www.w3.org/1999/xlink">
<g id="graph0" class="graph" transform="scale(1 1) rotate(0) translate(4 98)">
<title>nrl/randomsearch_deterministicmodel/RandomSearch_DeterministicModel.hpp</title>
<polygon fill="#ffffff" stroke="transparent" points="-4,4 -4,-98 202.3096,-98 202.3096,4 -4,4"/>
<!-- Node58 -->
<g id="node1" class="node">
<title>Node58</title>
<polygon fill="#bfbfbf" stroke="#000000" points="0,-65.5 0,-93.5 198.3096,-93.5 198.3096,-65.5 0,-65.5"/>
<text text-anchor="start" x="8" y="-81.5" font-family="Helvetica,sans-Serif" font-size="10.00" fill="#000000">nrl/randomsearch_deterministicmodel</text>
<text text-anchor="middle" x="99.1548" y="-71.5" font-family="Helvetica,sans-Serif" font-size="10.00" fill="#000000">/RandomSearch_DeterministicModel.hpp</text>
</g>
<!-- Node59 -->
<g id="node2" class="node">
<title>Node59</title>
<g id="a_node2"><a xlink:href="../../d5/d17/nrl_2randomsearch__deterministicmodel_2main_8cpp.html" target="_top" xlink:title="nrl/randomsearch_deterministicmodel\l/main.cpp">
<polygon fill="#ffffff" stroke="#000000" points="7.7856,-.5 7.7856,-28.5 190.5239,-28.5 190.5239,-.5 7.7856,-.5"/>
<text text-anchor="start" x="15.7856" y="-16.5" font-family="Helvetica,sans-Serif" font-size="10.00" fill="#000000">nrl/randomsearch_deterministicmodel</text>
<text text-anchor="middle" x="99.1548" y="-6.5" font-family="Helvetica,sans-Serif" font-size="10.00" fill="#000000">/main.cpp</text>
</a>
</g>
</g>
<!-- Node58&#45;&gt;Node59 -->
<g id="edge1" class="edge">
<title>Node58&#45;&gt;Node59</title>
<path fill="none" stroke="#191970" d="M99.1548,-55.1081C99.1548,-46.1539 99.1548,-36.3227 99.1548,-28.5765"/>
<polygon fill="#191970" stroke="#191970" points="95.6549,-55.3959 99.1548,-65.396 102.6549,-55.396 95.6549,-55.3959"/>
</g>
</g>
</svg>
