<?xml version="1.0" encoding="UTF-8" standalone="no"?>
<!DOCTYPE svg PUBLIC "-//W3C//DTD SVG 1.1//EN"
 "http://www.w3.org/Graphics/SVG/1.1/DTD/svg11.dtd">
<!-- Generated by graphviz version 2.40.1 (20161225.0304)
 -->
<!-- Title: src/phaseFieldLinearizedElasticity.hpp Pages: 1 -->
<svg width="278pt" height="167pt"
 viewBox="0.00 0.00 277.79 167.00" xmlns="http://www.w3.org/2000/svg" xmlns:xlink="http://www.w3.org/1999/xlink">
<g id="graph0" class="graph" transform="scale(1 1) rotate(0) translate(4 163)">
<title>src/phaseFieldLinearizedElasticity.hpp</title>
<polygon fill="#ffffff" stroke="transparent" points="-4,4 -4,-163 273.7852,-163 273.7852,4 -4,4"/>
<!-- Node37 -->
<g id="node1" class="node">
<title>Node37</title>
<polygon fill="#bfbfbf" stroke="#000000" points="70.6133,-130.5 70.6133,-158.5 197.7852,-158.5 197.7852,-130.5 70.6133,-130.5"/>
<text text-anchor="start" x="78.6133" y="-146.5" font-family="Helvetica,sans-Serif" font-size="10.00" fill="#000000">src/phaseFieldLinearized</text>
<text text-anchor="middle" x="134.1992" y="-136.5" font-family="Helvetica,sans-Serif" font-size="10.00" fill="#000000">Elasticity.hpp</text>
</g>
<!-- Node38 -->
<g id="node2" class="node">
<title>Node38</title>
<g id="a_node2"><a xlink:href="../../d5/db0/phase_field_problem_8hpp.html" target="_top" xlink:title="examples/phasefield\l/phaseFieldProblem.hpp">
<polygon fill="#ffffff" stroke="#000000" points="0,-65.5 0,-93.5 124.3984,-93.5 124.3984,-65.5 0,-65.5"/>
<text text-anchor="start" x="8" y="-81.5" font-family="Helvetica,sans-Serif" font-size="10.00" fill="#000000">examples/phasefield</text>
<text text-anchor="middle" x="62.1992" y="-71.5" font-family="Helvetica,sans-Serif" font-size="10.00" fill="#000000">/phaseFieldProblem.hpp</text>
</a>
</g>
</g>
<!-- Node37&#45;&gt;Node38 -->
<g id="edge1" class="edge">
<title>Node37&#45;&gt;Node38</title>
<path fill="none" stroke="#191970" d="M111.046,-123.5978C100.1743,-113.7831 87.5035,-102.3442 77.7917,-93.5765"/>
<polygon fill="#191970" stroke="#191970" points="108.8082,-126.2929 118.5763,-130.396 113.499,-121.097 108.8082,-126.2929"/>
</g>
<!-- Node40 -->
<g id="node4" class="node">
<title>Node40</title>
<g id="a_node4"><a xlink:href="../../d4/d66/phase_field_linearized_elasticity_8cpp.html" target="_top" xlink:title="src/phaseFieldLinearized\lElasticity.cpp">
<polygon fill="#ffffff" stroke="#000000" points="142.6133,-65.5 142.6133,-93.5 269.7852,-93.5 269.7852,-65.5 142.6133,-65.5"/>
<text text-anchor="start" x="150.6133" y="-81.5" font-family="Helvetica,sans-Serif" font-size="10.00" fill="#000000">src/phaseFieldLinearized</text>
<text text-anchor="middle" x="206.1992" y="-71.5" font-family="Helvetica,sans-Serif" font-size="10.00" fill="#000000">Elasticity.cpp</text>
</a>
</g>
</g>
<!-- Node37&#45;&gt;Node40 -->
<g id="edge3" class="edge">
<title>Node37&#45;&gt;Node40</title>
<path fill="none" stroke="#191970" d="M157.3524,-123.5978C168.2241,-113.7831 180.8949,-102.3442 190.6068,-93.5765"/>
<polygon fill="#191970" stroke="#191970" points="154.8995,-121.097 149.8221,-130.396 159.5902,-126.2929 154.8995,-121.097"/>
</g>
<!-- Node39 -->
<g id="node3" class="node">
<title>Node39</title>
<g id="a_node3"><a xlink:href="../../d0/d2e/examples_2phasefield_2main_8cpp.html" target="_top" xlink:title="examples/phasefield\l/main.cpp">
<polygon fill="#ffffff" stroke="#000000" points="8.6157,-.5 8.6157,-28.5 115.7827,-28.5 115.7827,-.5 8.6157,-.5"/>
<text text-anchor="start" x="16.6157" y="-16.5" font-family="Helvetica,sans-Serif" font-size="10.00" fill="#000000">examples/phasefield</text>
<text text-anchor="middle" x="62.1992" y="-6.5" font-family="Helvetica,sans-Serif" font-size="10.00" fill="#000000">/main.cpp</text>
</a>
</g>
</g>
<!-- Node38&#45;&gt;Node39 -->
<g id="edge2" class="edge">
<title>Node38&#45;&gt;Node39</title>
<path fill="none" stroke="#191970" d="M62.1992,-55.1081C62.1992,-46.1539 62.1992,-36.3227 62.1992,-28.5765"/>
<polygon fill="#191970" stroke="#191970" points="58.6993,-55.3959 62.1992,-65.396 65.6993,-55.396 58.6993,-55.3959"/>
</g>
</g>
</svg>
