<?xml version="1.0" encoding="UTF-8" standalone="no"?>
<!DOCTYPE svg PUBLIC "-//W3C//DTD SVG 1.1//EN"
 "http://www.w3.org/Graphics/SVG/1.1/DTD/svg11.dtd">
<!-- Generated by graphviz version 2.40.1 (20161225.0304)
 -->
<!-- Title: src/Newton_Raphsonpp.cpp Pages: 1 -->
<!--zoomable 312 -->
<svg id="main" version="1.1" xmlns="http://www.w3.org/2000/svg" xmlns:xlink="http://www.w3.org/1999/xlink" xml:space="preserve" onload="init(evt)">
<style type="text/css"><![CDATA[
.edge:hover path { stroke: red; }
.edge:hover polygon { stroke: red; fill: red; }
]]></style>
<script type="text/javascript"><![CDATA[
var edges = document.getElementsByTagName('g');
if (edges && edges.length) {
  for (var i=0;i<edges.length;i++) {
    if (edges[i].id.substr(0,4)=='edge') {
      edges[i].setAttribute('class','edge');
    }
  }
}
]]></script>
        <defs>
                <circle id="rim" cx="0" cy="0" r="7"/>
                <circle id="rim2" cx="0" cy="0" r="3.5"/>
                <g id="zoomPlus">
                        <use xlink:href="#rim" fill="#404040">
                                <set attributeName="fill" to="#808080" begin="zoomplus.mouseover" end="zoomplus.mouseout"/>
                        </use>
                        <path d="M-4,0h8M0,-4v8" fill="none" stroke="white" stroke-width="1.5" pointer-events="none"/>
                </g>
                <g id="zoomMin">
                        <use xlink:href="#rim" fill="#404040">
                                <set attributeName="fill" to="#808080" begin="zoomminus.mouseover" end="zoomminus.mouseout"/>
                        </use>
                        <path d="M-4,0h8" fill="none" stroke="white" stroke-width="1.5" pointer-events="none"/>
                </g>
                <g id="dirArrow">
                        <path fill="none" stroke="white" stroke-width="1.5" d="M0,-3.0v7 M-2.5,-0.5L0,-3.0L2.5,-0.5"/>
                </g>
               <g id="resetDef">
                       <use xlink:href="#rim2" fill="#404040">
                               <set attributeName="fill" to="#808080" begin="reset.mouseover" end="reset.mouseout"/>
                       </use>
               </g>
        </defs>

<script type="text/javascript">
var viewWidth = 4128;
var viewHeight = 312;
var sectionId = 'dynsection-0';
</script>
<script xlink:href="../../svgpan.js"/>
<svg id="graph" class="graph">
<g id="viewport">
<title>src/Newton_Raphsonpp.cpp</title>
<polygon fill="#ffffff" stroke="transparent" points="-4,4 -4,-308 4123.98,-308 4123.98,4 -4,4"/>
<!-- Node0 -->
<g id="node1" class="node">
<title>Node0</title>
<polygon fill="#bfbfbf" stroke="#000000" points="3107.9165,-285.5 3107.9165,-303.5 3249.5464,-303.5 3249.5464,-285.5 3107.9165,-285.5"/>
<text text-anchor="middle" x="3178.7314" y="-291.5" font-family="Helvetica,sans-Serif" font-size="10.00" fill="#000000">src/Newton_Raphsonpp.cpp</text>
</g>
<!-- Node1 -->
<g id="node2" class="node">
<title>Node1</title>
<g id="a_node2"><a xlink:href="../../d7/d17/_newton___raphsonpp_8hpp.html" target="_top" xlink:title="Newton_Raphsonpp.hpp">
<polygon fill="#ffffff" stroke="#000000" points="3115.6899,-230.5 3115.6899,-248.5 3241.7729,-248.5 3241.7729,-230.5 3115.6899,-230.5"/>
<text text-anchor="middle" x="3178.7314" y="-236.5" font-family="Helvetica,sans-Serif" font-size="10.00" fill="#000000">Newton_Raphsonpp.hpp</text>
</a>
</g>
</g>
<!-- Node0&#45;&gt;Node1 -->
<g id="edge1" class="edge">
<title>Node0&#45;&gt;Node1</title>
<path fill="none" stroke="#191970" d="M3178.7314,-285.4179C3178.7314,-278.2164 3178.7314,-267.8962 3178.7314,-258.8632"/>
<polygon fill="#191970" stroke="#191970" points="3182.2315,-258.7794 3178.7314,-248.7795 3175.2315,-258.7795 3182.2315,-258.7794"/>
</g>
<!-- Node2 -->
<g id="node3" class="node">
<title>Node2</title>
<g id="a_node3"><a xlink:href="../../d2/d8b/_finite___element___problem_8hpp.html" target="_top" xlink:title="Finite_Element_Problem.hpp">
<polygon fill="#ffffff" stroke="#000000" points="1755.2515,-170.5 1755.2515,-188.5 1900.2114,-188.5 1900.2114,-170.5 1755.2515,-170.5"/>
<text text-anchor="middle" x="1827.7314" y="-176.5" font-family="Helvetica,sans-Serif" font-size="10.00" fill="#000000">Finite_Element_Problem.hpp</text>
</a>
</g>
</g>
<!-- Node1&#45;&gt;Node2 -->
<g id="edge2" class="edge">
<title>Node1&#45;&gt;Node2</title>
<path fill="none" stroke="#191970" d="M3115.382,-236.6866C2894.5143,-226.8775 2158.4408,-194.1873 1910.2535,-183.1649"/>
<polygon fill="#191970" stroke="#191970" points="1910.3622,-179.6664 1900.2167,-182.7192 1910.0516,-186.6595 1910.3622,-179.6664"/>
</g>
<!-- Node29 -->
<g id="node30" class="node">
<title>Node29</title>
<polygon fill="#ffffff" stroke="#bfbfbf" points="3303.6841,-.5 3303.6841,-18.5 3401.7788,-18.5 3401.7788,-.5 3303.6841,-.5"/>
<text text-anchor="middle" x="3352.7314" y="-6.5" font-family="Helvetica,sans-Serif" font-size="10.00" fill="#000000">Teuchos_RCP.hpp</text>
</g>
<!-- Node1&#45;&gt;Node29 -->
<g id="edge38" class="edge">
<title>Node1&#45;&gt;Node29</title>
<path fill="none" stroke="#191970" d="M3115.4173,-238.6447C2983.5306,-236.2046 2689.037,-227.0731 2658.7314,-194 2650.0239,-184.4973 2650.6753,-175.0609 2658.7314,-165 2678.9645,-139.7317 3131.8628,-51.4939 3294.9042,-20.4252"/>
<polygon fill="#191970" stroke="#191970" points="3295.588,-23.858 3304.7573,-18.55 3294.2792,-16.9814 3295.588,-23.858"/>
</g>
<!-- Node36 -->
<g id="node37" class="node">
<title>Node36</title>
<polygon fill="#ffffff" stroke="#bfbfbf" points="2668.2217,-170.5 2668.2217,-188.5 2719.2412,-188.5 2719.2412,-170.5 2668.2217,-170.5"/>
<text text-anchor="middle" x="2693.7314" y="-176.5" font-family="Helvetica,sans-Serif" font-size="10.00" fill="#000000">Ifpack.h</text>
</g>
<!-- Node1&#45;&gt;Node36 -->
<g id="edge39" class="edge">
<title>Node1&#45;&gt;Node36</title>
<path fill="none" stroke="#191970" d="M3115.4979,-235.3909C3009.4442,-228.1168 2800.3075,-212.0299 2728.7314,-194 2726.555,-193.4517 2724.3368,-192.792 2722.1268,-192.0602"/>
<polygon fill="#191970" stroke="#191970" points="2723.2365,-188.7386 2712.6441,-188.5134 2720.7842,-195.295 2723.2365,-188.7386"/>
</g>
<!-- Node37 -->
<g id="node38" class="node">
<title>Node37</title>
<polygon fill="#ffffff" stroke="#bfbfbf" points="2737.4805,-170.5 2737.4805,-188.5 2867.9824,-188.5 2867.9824,-170.5 2737.4805,-170.5"/>
<text text-anchor="middle" x="2802.7314" y="-176.5" font-family="Helvetica,sans-Serif" font-size="10.00" fill="#000000">Ifpack_AdditiveSchwarz.h</text>
</g>
<!-- Node1&#45;&gt;Node37 -->
<g id="edge40" class="edge">
<title>Node1&#45;&gt;Node37</title>
<path fill="none" stroke="#191970" d="M3115.5538,-230.8058C3054.3632,-222.1906 2959.0162,-208.2532 2876.7314,-194 2870.4672,-192.9149 2863.9166,-191.7197 2857.4138,-190.4952"/>
<polygon fill="#191970" stroke="#191970" points="2857.7618,-186.9985 2847.2825,-188.5586 2856.4475,-193.874 2857.7618,-186.9985"/>
</g>
<!-- Node38 -->
<g id="node39" class="node">
<title>Node38</title>
<polygon fill="#ffffff" stroke="#bfbfbf" points="2885.9756,-170.5 2885.9756,-188.5 3011.4873,-188.5 3011.4873,-170.5 2885.9756,-170.5"/>
<text text-anchor="middle" x="2948.7314" y="-176.5" font-family="Helvetica,sans-Serif" font-size="10.00" fill="#000000">BelosLinearProblem.hpp</text>
</g>
<!-- Node1&#45;&gt;Node38 -->
<g id="edge41" class="edge">
<title>Node1&#45;&gt;Node38</title>
<path fill="none" stroke="#191970" d="M3143.7994,-230.3873C3103.4606,-219.8641 3037.0287,-202.5341 2993.0772,-191.0685"/>
<polygon fill="#191970" stroke="#191970" points="2993.7983,-187.6395 2983.2386,-188.5019 2992.0313,-194.4128 2993.7983,-187.6395"/>
</g>
<!-- Node39 -->
<g id="node40" class="node">
<title>Node39</title>
<polygon fill="#ffffff" stroke="#bfbfbf" points="3029.7021,-170.5 3029.7021,-188.5 3175.7607,-188.5 3175.7607,-170.5 3029.7021,-170.5"/>
<text text-anchor="middle" x="3102.7314" y="-176.5" font-family="Helvetica,sans-Serif" font-size="10.00" fill="#000000">BelosBlockGmresSolMgr.hpp</text>
</g>
<!-- Node1&#45;&gt;Node39 -->
<g id="edge42" class="edge">
<title>Node1&#45;&gt;Node39</title>
<path fill="none" stroke="#191970" d="M3167.1887,-230.3873C3155.3593,-221.0483 3136.7391,-206.3481 3122.5469,-195.1438"/>
<polygon fill="#191970" stroke="#191970" points="3124.4005,-192.1479 3114.3828,-188.6985 3120.0629,-197.642 3124.4005,-192.1479"/>
</g>
<!-- Node40 -->
<g id="node41" class="node">
<title>Node40</title>
<polygon fill="#ffffff" stroke="#bfbfbf" points="3193.5225,-170.5 3193.5225,-188.5 3317.9404,-188.5 3317.9404,-170.5 3193.5225,-170.5"/>
<text text-anchor="middle" x="3255.7314" y="-176.5" font-family="Helvetica,sans-Serif" font-size="10.00" fill="#000000">BelosEpetraAdapter.hpp</text>
</g>
<!-- Node1&#45;&gt;Node40 -->
<g id="edge43" class="edge">
<title>Node1&#45;&gt;Node40</title>
<path fill="none" stroke="#191970" d="M3190.4261,-230.3873C3202.4808,-220.994 3221.496,-206.177 3235.9056,-194.9487"/>
<polygon fill="#191970" stroke="#191970" points="3238.4423,-197.4092 3244.179,-188.5019 3234.1397,-191.8876 3238.4423,-197.4092"/>
</g>
<!-- Node41 -->
<g id="node42" class="node">
<title>Node41</title>
<polygon fill="#ffffff" stroke="#bfbfbf" points="3336.019,-170.5 3336.019,-188.5 3457.4438,-188.5 3457.4438,-170.5 3336.019,-170.5"/>
<text text-anchor="middle" x="3396.7314" y="-176.5" font-family="Helvetica,sans-Serif" font-size="10.00" fill="#000000">BelosSolverFactory.hpp</text>
</g>
<!-- Node1&#45;&gt;Node41 -->
<g id="edge44" class="edge">
<title>Node1&#45;&gt;Node41</title>
<path fill="none" stroke="#191970" d="M3211.841,-230.3873C3249.9141,-219.9084 3312.5112,-202.6799 3354.172,-191.2136"/>
<polygon fill="#191970" stroke="#191970" points="3355.3119,-194.5301 3364.0246,-188.5019 3353.4544,-187.781 3355.3119,-194.5301"/>
</g>
<!-- Node42 -->
<g id="node43" class="node">
<title>Node42</title>
<polygon fill="#ffffff" stroke="#bfbfbf" points="3475.8501,-170.5 3475.8501,-188.5 3653.6128,-188.5 3653.6128,-170.5 3475.8501,-170.5"/>
<text text-anchor="middle" x="3564.7314" y="-176.5" font-family="Helvetica,sans-Serif" font-size="10.00" fill="#000000">Teuchos_StandardCatchMacros.hpp</text>
</g>
<!-- Node1&#45;&gt;Node42 -->
<g id="edge45" class="edge">
<title>Node1&#45;&gt;Node42</title>
<path fill="none" stroke="#191970" d="M3236.9375,-230.4524C3306.5352,-219.6341 3422.8427,-201.5553 3496.5722,-190.0947"/>
<polygon fill="#191970" stroke="#191970" points="3497.3402,-193.5174 3506.6839,-188.5229 3496.2649,-186.6005 3497.3402,-193.5174"/>
</g>
<!-- Node43 -->
<g id="node44" class="node">
<title>Node43</title>
<polygon fill="#ffffff" stroke="#bfbfbf" points="3671.4731,-170.5 3671.4731,-188.5 3811.9897,-188.5 3811.9897,-170.5 3671.4731,-170.5"/>
<text text-anchor="middle" x="3741.7314" y="-176.5" font-family="Helvetica,sans-Serif" font-size="10.00" fill="#000000">Teuchos_ParameterList.hpp</text>
</g>
<!-- Node1&#45;&gt;Node43 -->
<g id="edge46" class="edge">
<title>Node1&#45;&gt;Node43</title>
<path fill="none" stroke="#191970" d="M3241.9737,-235.3343C3334.5963,-228.8305 3512.4601,-214.8132 3662.7314,-194 3670.4039,-192.9373 3678.4661,-191.6532 3686.3878,-190.2936"/>
<polygon fill="#191970" stroke="#191970" points="3687.0678,-193.7278 3696.3068,-188.5423 3685.8506,-186.8344 3687.0678,-193.7278"/>
</g>
<!-- Node44 -->
<g id="node45" class="node">
<title>Node44</title>
<polygon fill="#ffffff" stroke="#bfbfbf" points="3829.9238,-165.5 3829.9238,-193.5 3971.5391,-193.5 3971.5391,-165.5 3829.9238,-165.5"/>
<text text-anchor="start" x="3837.9238" y="-181.5" font-family="Helvetica,sans-Serif" font-size="10.00" fill="#000000">Teuchos_XMLParameterList</text>
<text text-anchor="middle" x="3900.7314" y="-171.5" font-family="Helvetica,sans-Serif" font-size="10.00" fill="#000000">CoreHelpers.hpp</text>
</g>
<!-- Node1&#45;&gt;Node44 -->
<g id="edge47" class="edge">
<title>Node1&#45;&gt;Node44</title>
<path fill="none" stroke="#191970" d="M3241.8308,-237.3015C3355.4068,-232.8471 3601.9233,-220.913 3819.674,-194.0386"/>
<polygon fill="#191970" stroke="#191970" points="3820.2032,-197.4998 3829.6931,-192.7888 3819.3367,-190.5536 3820.2032,-197.4998"/>
</g>
<!-- Node45 -->
<g id="node46" class="node">
<title>Node45</title>
<polygon fill="#ffffff" stroke="#bfbfbf" points="3989.4829,-165.5 3989.4829,-193.5 4119.98,-193.5 4119.98,-165.5 3989.4829,-165.5"/>
<text text-anchor="start" x="3997.4829" y="-181.5" font-family="Helvetica,sans-Serif" font-size="10.00" fill="#000000">Stratimikos_DefaultLinear</text>
<text text-anchor="middle" x="4054.7314" y="-171.5" font-family="Helvetica,sans-Serif" font-size="10.00" fill="#000000">SolverBuilder.hpp</text>
</g>
<!-- Node1&#45;&gt;Node45 -->
<g id="edge48" class="edge">
<title>Node1&#45;&gt;Node45</title>
<path fill="none" stroke="#191970" d="M3241.9032,-238.8489C3376.0685,-236.831 3699.4091,-228.6019 3979.4949,-194.0372"/>
<polygon fill="#191970" stroke="#191970" points="3979.95,-197.5077 3989.4398,-192.7965 3979.0834,-190.5615 3979.95,-197.5077"/>
</g>
<!-- Node3 -->
<g id="node4" class="node">
<title>Node3</title>
<g id="a_node4"><a xlink:href="../../d0/d02/meshpp_8hpp.html" target="_top" xlink:title="meshpp.hpp">
<polygon fill="#ffffff" stroke="#000000" points="1712.2119,-55.5 1712.2119,-73.5 1783.251,-73.5 1783.251,-55.5 1712.2119,-55.5"/>
<text text-anchor="middle" x="1747.7314" y="-61.5" font-family="Helvetica,sans-Serif" font-size="10.00" fill="#000000">meshpp.hpp</text>
</a>
</g>
</g>
<!-- Node2&#45;&gt;Node3 -->
<g id="edge3" class="edge">
<title>Node2&#45;&gt;Node3</title>
<path fill="none" stroke="#191970" d="M1812.2161,-170.4287C1798.3491,-161.5515 1778.4612,-146.7914 1766.7314,-129 1757.6955,-115.2945 1752.8535,-97.1836 1750.3245,-83.6427"/>
<polygon fill="#191970" stroke="#191970" points="1753.7436,-82.8592 1748.7028,-73.5404 1746.8321,-83.9687 1753.7436,-82.8592"/>
</g>
<!-- Node35 -->
<g id="node36" class="node">
<title>Node35</title>
<g id="a_node36"><a xlink:href="../../d0/d41/_base_class_f_e_m_8hpp.html" target="_top" xlink:title="BaseClassFEM.hpp">
<polygon fill="#ffffff" stroke="#000000" points="1775.5469,-110.5 1775.5469,-128.5 1879.916,-128.5 1879.916,-110.5 1775.5469,-110.5"/>
<text text-anchor="middle" x="1827.7314" y="-116.5" font-family="Helvetica,sans-Serif" font-size="10.00" fill="#000000">BaseClassFEM.hpp</text>
</a>
</g>
</g>
<!-- Node2&#45;&gt;Node35 -->
<g id="edge36" class="edge">
<title>Node2&#45;&gt;Node35</title>
<path fill="none" stroke="#191970" d="M1827.7314,-170.3873C1827.7314,-162.0174 1827.7314,-149.3414 1827.7314,-138.735"/>
<polygon fill="#191970" stroke="#191970" points="1831.2315,-138.6984 1827.7314,-128.6985 1824.2315,-138.6985 1831.2315,-138.6984"/>
</g>
<!-- Node4 -->
<g id="node5" class="node">
<title>Node4</title>
<polygon fill="#ffffff" stroke="#bfbfbf" points="0,-.5 0,-18.5 45.4629,-18.5 45.4629,-.5 0,-.5"/>
<text text-anchor="middle" x="22.7314" y="-6.5" font-family="Helvetica,sans-Serif" font-size="10.00" fill="#000000">stdio.h</text>
</g>
<!-- Node3&#45;&gt;Node4 -->
<g id="edge4" class="edge">
<title>Node3&#45;&gt;Node4</title>
<path fill="none" stroke="#191970" d="M1712.188,-64.103C1487.4228,-61.5201 266.3676,-46.3892 55.6991,-18.5455"/>
<polygon fill="#191970" stroke="#191970" points="56.0371,-15.0579 45.6373,-17.0816 55.0292,-21.985 56.0371,-15.0579"/>
</g>
<!-- Node5 -->
<g id="node6" class="node">
<title>Node5</title>
<polygon fill="#ffffff" stroke="#bfbfbf" points="63.5591,-.5 63.5591,-18.5 117.9038,-18.5 117.9038,-.5 63.5591,-.5"/>
<text text-anchor="middle" x="90.7314" y="-6.5" font-family="Helvetica,sans-Serif" font-size="10.00" fill="#000000">iostream</text>
</g>
<!-- Node3&#45;&gt;Node5 -->
<g id="edge5" class="edge">
<title>Node3&#45;&gt;Node5</title>
<path fill="none" stroke="#191970" d="M1711.9472,-63.9744C1492.4471,-60.6882 331.1884,-42.3839 128.0469,-18.531"/>
<polygon fill="#191970" stroke="#191970" points="128.4393,-15.0527 118.0738,-17.2454 127.5442,-21.9953 128.4393,-15.0527"/>
</g>
<!-- Node6 -->
<g id="node7" class="node">
<title>Node6</title>
<polygon fill="#ffffff" stroke="#bfbfbf" points="136.3398,-.5 136.3398,-18.5 185.123,-18.5 185.123,-.5 136.3398,-.5"/>
<text text-anchor="middle" x="160.7314" y="-6.5" font-family="Helvetica,sans-Serif" font-size="10.00" fill="#000000">istream</text>
</g>
<!-- Node3&#45;&gt;Node6 -->
<g id="edge6" class="edge">
<title>Node3&#45;&gt;Node6</title>
<path fill="none" stroke="#191970" d="M1711.997,-63.9913C1498.105,-60.8762 390.2802,-43.7355 195.5036,-18.7613"/>
<polygon fill="#191970" stroke="#191970" points="195.8399,-15.2741 185.4478,-17.3365 194.8579,-22.2049 195.8399,-15.2741"/>
</g>
<!-- Node7 -->
<g id="node8" class="node">
<title>Node7</title>
<polygon fill="#ffffff" stroke="#bfbfbf" points="203.0615,-.5 203.0615,-18.5 252.4014,-18.5 252.4014,-.5 203.0615,-.5"/>
<text text-anchor="middle" x="227.7314" y="-6.5" font-family="Helvetica,sans-Serif" font-size="10.00" fill="#000000">fstream</text>
</g>
<!-- Node3&#45;&gt;Node7 -->
<g id="edge7" class="edge">
<title>Node3&#45;&gt;Node7</title>
<path fill="none" stroke="#191970" d="M1712.1738,-63.9437C1504.4027,-60.6236 450.4173,-42.8079 262.6262,-18.7764"/>
<polygon fill="#191970" stroke="#191970" points="262.8408,-15.2719 252.4484,-17.3329 261.8578,-22.2025 262.8408,-15.2719"/>
</g>
<!-- Node8 -->
<g id="node9" class="node">
<title>Node8</title>
<polygon fill="#ffffff" stroke="#bfbfbf" points="270.1157,-.5 270.1157,-18.5 313.3472,-18.5 313.3472,-.5 270.1157,-.5"/>
<text text-anchor="middle" x="291.7314" y="-6.5" font-family="Helvetica,sans-Serif" font-size="10.00" fill="#000000">vector</text>
</g>
<!-- Node3&#45;&gt;Node8 -->
<g id="edge8" class="edge">
<title>Node3&#45;&gt;Node8</title>
<path fill="none" stroke="#191970" d="M1711.955,-63.9461C1508.8411,-60.7245 503.749,-43.7346 323.514,-18.7044"/>
<polygon fill="#191970" stroke="#191970" points="323.9318,-15.2275 313.5148,-17.1604 322.8635,-22.1455 323.9318,-15.2275"/>
</g>
<!-- Node9 -->
<g id="node10" class="node">
<title>Node9</title>
<polygon fill="#ffffff" stroke="#bfbfbf" points="331.2217,-.5 331.2217,-18.5 382.2412,-18.5 382.2412,-.5 331.2217,-.5"/>
<text text-anchor="middle" x="356.7314" y="-6.5" font-family="Helvetica,sans-Serif" font-size="10.00" fill="#000000">iomanip</text>
</g>
<!-- Node3&#45;&gt;Node9 -->
<g id="edge9" class="edge">
<title>Node3&#45;&gt;Node9</title>
<path fill="none" stroke="#191970" d="M1712.1447,-64.4195C1527.603,-63.835 677.5241,-59.0541 392.4821,-18.6842"/>
<polygon fill="#191970" stroke="#191970" points="392.9846,-15.2205 382.5827,-17.233 391.9693,-22.1465 392.9846,-15.2205"/>
</g>
<!-- Node10 -->
<g id="node11" class="node">
<title>Node10</title>
<polygon fill="#ffffff" stroke="#bfbfbf" points="400.271,-.5 400.271,-18.5 505.1919,-18.5 505.1919,-.5 400.271,-.5"/>
<text text-anchor="middle" x="452.7314" y="-6.5" font-family="Helvetica,sans-Serif" font-size="10.00" fill="#000000">Epetra_MpiComm.h</text>
</g>
<!-- Node3&#45;&gt;Node10 -->
<g id="edge10" class="edge">
<title>Node3&#45;&gt;Node10</title>
<path fill="none" stroke="#191970" d="M1711.9769,-63.7506C1537.7459,-60.0132 775.8701,-42.6596 515.4218,-19.0316"/>
<polygon fill="#191970" stroke="#191970" points="515.5367,-15.5272 505.2544,-18.0813 514.8852,-22.4968 515.5367,-15.5272"/>
</g>
<!-- Node11 -->
<g id="node12" class="node">
<title>Node11</title>
<polygon fill="#ffffff" stroke="#bfbfbf" points="522.9878,-.5 522.9878,-18.5 638.4751,-18.5 638.4751,-.5 522.9878,-.5"/>
<text text-anchor="middle" x="580.7314" y="-6.5" font-family="Helvetica,sans-Serif" font-size="10.00" fill="#000000">Epetra_FECrsGraph.h</text>
</g>
<!-- Node3&#45;&gt;Node11 -->
<g id="edge11" class="edge">
<title>Node3&#45;&gt;Node11</title>
<path fill="none" stroke="#191970" d="M1712.0344,-64.3131C1575.4737,-63.3272 1072.9942,-57.2189 648.8003,-19.002"/>
<polygon fill="#191970" stroke="#191970" points="649.0704,-15.5122 638.7948,-18.0933 648.4372,-22.4835 649.0704,-15.5122"/>
</g>
<!-- Node12 -->
<g id="node13" class="node">
<title>Node12</title>
<polygon fill="#ffffff" stroke="#bfbfbf" points="656.2734,-.5 656.2734,-18.5 771.1895,-18.5 771.1895,-.5 656.2734,-.5"/>
<text text-anchor="middle" x="713.7314" y="-6.5" font-family="Helvetica,sans-Serif" font-size="10.00" fill="#000000">Epetra_FECrsMatrix.h</text>
</g>
<!-- Node3&#45;&gt;Node12 -->
<g id="edge12" class="edge">
<title>Node3&#45;&gt;Node12</title>
<path fill="none" stroke="#191970" d="M1712.045,-64.0577C1586.1226,-62.2369 1150.7147,-53.7332 781.369,-19.0705"/>
<polygon fill="#191970" stroke="#191970" points="781.5707,-15.5741 771.2854,-18.1161 780.911,-22.5429 781.5707,-15.5741"/>
</g>
<!-- Node13 -->
<g id="node14" class="node">
<title>Node13</title>
<polygon fill="#ffffff" stroke="#bfbfbf" points="788.7563,-.5 788.7563,-18.5 888.7065,-18.5 888.7065,-.5 788.7563,-.5"/>
<text text-anchor="middle" x="838.7314" y="-6.5" font-family="Helvetica,sans-Serif" font-size="10.00" fill="#000000">Epetra_FEVector.h</text>
</g>
<!-- Node3&#45;&gt;Node13 -->
<g id="edge13" class="edge">
<title>Node3&#45;&gt;Node13</title>
<path fill="none" stroke="#191970" d="M1711.9938,-63.9439C1596.0862,-61.8537 1220.0086,-52.8246 898.8582,-19.0077"/>
<polygon fill="#191970" stroke="#191970" points="899.2087,-15.5253 888.8948,-17.9487 898.4688,-22.4861 899.2087,-15.5253"/>
</g>
<!-- Node14 -->
<g id="node15" class="node">
<title>Node14</title>
<polygon fill="#ffffff" stroke="#bfbfbf" points="907.1455,-.5 907.1455,-18.5 994.3174,-18.5 994.3174,-.5 907.1455,-.5"/>
<text text-anchor="middle" x="950.7314" y="-6.5" font-family="Helvetica,sans-Serif" font-size="10.00" fill="#000000">Epetra_Vector.h</text>
</g>
<!-- Node3&#45;&gt;Node14 -->
<g id="edge14" class="edge">
<title>Node3&#45;&gt;Node14</title>
<path fill="none" stroke="#191970" d="M1711.9782,-63.787C1605.7832,-61.3573 1282.8585,-51.7157 1004.6376,-18.957"/>
<polygon fill="#191970" stroke="#191970" points="1004.6875,-15.4383 994.3439,-17.7319 1003.8601,-22.3893 1004.6875,-15.4383"/>
</g>
<!-- Node15 -->
<g id="node16" class="node">
<title>Node15</title>
<polygon fill="#ffffff" stroke="#bfbfbf" points="1012.3228,-.5 1012.3228,-18.5 1091.1401,-18.5 1091.1401,-.5 1012.3228,-.5"/>
<text text-anchor="middle" x="1051.7314" y="-6.5" font-family="Helvetica,sans-Serif" font-size="10.00" fill="#000000">Epetra_Map.h</text>
</g>
<!-- Node3&#45;&gt;Node15 -->
<g id="edge15" class="edge">
<title>Node3&#45;&gt;Node15</title>
<path fill="none" stroke="#191970" d="M1712.1002,-63.5651C1615.4147,-60.6956 1339.9155,-50.3103 1101.47,-19.0811"/>
<polygon fill="#191970" stroke="#191970" points="1101.592,-15.5667 1091.2188,-17.7225 1100.6723,-22.5061 1101.592,-15.5667"/>
</g>
<!-- Node16 -->
<g id="node17" class="node">
<title>Node16</title>
<polygon fill="#ffffff" stroke="#bfbfbf" points="1109.2021,-.5 1109.2021,-18.5 1250.2607,-18.5 1250.2607,-.5 1109.2021,-.5"/>
<text text-anchor="middle" x="1179.7314" y="-6.5" font-family="Helvetica,sans-Serif" font-size="10.00" fill="#000000">Epetra_SerialDenseMatrix.h</text>
</g>
<!-- Node3&#45;&gt;Node16 -->
<g id="edge16" class="edge">
<title>Node3&#45;&gt;Node16</title>
<path fill="none" stroke="#191970" d="M1712.1121,-61.5164C1632.915,-54.8115 1435.9855,-37.7471 1260.5478,-19.1717"/>
<polygon fill="#191970" stroke="#191970" points="1260.67,-15.665 1250.356,-18.0882 1259.9299,-22.6258 1260.67,-15.665"/>
</g>
<!-- Node17 -->
<g id="node18" class="node">
<title>Node17</title>
<polygon fill="#ffffff" stroke="#bfbfbf" points="1267.9092,-.5 1267.9092,-18.5 1409.5537,-18.5 1409.5537,-.5 1267.9092,-.5"/>
<text text-anchor="middle" x="1338.7314" y="-6.5" font-family="Helvetica,sans-Serif" font-size="10.00" fill="#000000">Epetra_SerialDenseVector.h</text>
</g>
<!-- Node3&#45;&gt;Node17 -->
<g id="edge17" class="edge">
<title>Node3&#45;&gt;Node17</title>
<path fill="none" stroke="#191970" d="M1712.1509,-59.7153C1646.3719,-50.8697 1504.381,-31.7756 1415.6817,-19.8478"/>
<polygon fill="#191970" stroke="#191970" points="1416.0486,-16.3657 1405.6713,-18.5017 1415.1156,-23.3033 1416.0486,-16.3657"/>
</g>
<!-- Node18 -->
<g id="node19" class="node">
<title>Node18</title>
<polygon fill="#ffffff" stroke="#bfbfbf" points="1427.3501,-.5 1427.3501,-18.5 1580.1128,-18.5 1580.1128,-.5 1427.3501,-.5"/>
<text text-anchor="middle" x="1503.7314" y="-6.5" font-family="Helvetica,sans-Serif" font-size="10.00" fill="#000000">Epetra_IntSerialDenseVector.h</text>
</g>
<!-- Node3&#45;&gt;Node18 -->
<g id="edge18" class="edge">
<title>Node3&#45;&gt;Node18</title>
<path fill="none" stroke="#191970" d="M1711.9904,-56.4436C1670.3079,-47.048 1601.1212,-31.4526 1554.0289,-20.8375"/>
<polygon fill="#191970" stroke="#191970" points="1554.564,-17.3704 1544.0391,-18.5857 1553.0247,-24.1991 1554.564,-17.3704"/>
</g>
<!-- Node19 -->
<g id="node20" class="node">
<title>Node19</title>
<polygon fill="#ffffff" stroke="#bfbfbf" points="1597.8794,-.5 1597.8794,-18.5 1685.5835,-18.5 1685.5835,-.5 1597.8794,-.5"/>
<text text-anchor="middle" x="1641.7314" y="-6.5" font-family="Helvetica,sans-Serif" font-size="10.00" fill="#000000">Epetra_Import.h</text>
</g>
<!-- Node3&#45;&gt;Node19 -->
<g id="edge19" class="edge">
<title>Node3&#45;&gt;Node19</title>
<path fill="none" stroke="#191970" d="M1730.2277,-55.4179C1713.3495,-46.6603 1687.5827,-33.2907 1668.1978,-23.2326"/>
<polygon fill="#191970" stroke="#191970" points="1669.7495,-20.0946 1659.2612,-18.5956 1666.5255,-26.308 1669.7495,-20.0946"/>
</g>
<!-- Node20 -->
<g id="node21" class="node">
<title>Node20</title>
<polygon fill="#ffffff" stroke="#bfbfbf" points="1703.5986,-.5 1703.5986,-18.5 1791.8643,-18.5 1791.8643,-.5 1703.5986,-.5"/>
<text text-anchor="middle" x="1747.7314" y="-6.5" font-family="Helvetica,sans-Serif" font-size="10.00" fill="#000000">Epetra_Export.h</text>
</g>
<!-- Node3&#45;&gt;Node20 -->
<g id="edge20" class="edge">
<title>Node3&#45;&gt;Node20</title>
<path fill="none" stroke="#191970" d="M1747.7314,-55.4179C1747.7314,-48.2164 1747.7314,-37.8962 1747.7314,-28.8632"/>
<polygon fill="#191970" stroke="#191970" points="1751.2315,-28.7794 1747.7314,-18.7795 1744.2315,-28.7795 1751.2315,-28.7794"/>
</g>
<!-- Node21 -->
<g id="node22" class="node">
<title>Node21</title>
<polygon fill="#ffffff" stroke="#bfbfbf" points="1810.1216,-.5 1810.1216,-18.5 1891.3413,-18.5 1891.3413,-.5 1810.1216,-.5"/>
<text text-anchor="middle" x="1850.7314" y="-6.5" font-family="Helvetica,sans-Serif" font-size="10.00" fill="#000000">Epetra_Time.h</text>
</g>
<!-- Node3&#45;&gt;Node21 -->
<g id="edge21" class="edge">
<title>Node3&#45;&gt;Node21</title>
<path fill="none" stroke="#191970" d="M1764.7398,-55.4179C1781.0658,-46.7001 1805.9504,-33.4122 1824.7569,-23.3699"/>
<polygon fill="#191970" stroke="#191970" points="1826.5253,-26.3934 1833.6978,-18.5956 1823.228,-20.2186 1826.5253,-26.3934"/>
</g>
<!-- Node22 -->
<g id="node23" class="node">
<title>Node22</title>
<polygon fill="#ffffff" stroke="#bfbfbf" points="1909.0273,-.5 1909.0273,-18.5 2058.4355,-18.5 2058.4355,-.5 1909.0273,-.5"/>
<text text-anchor="middle" x="1983.7314" y="-6.5" font-family="Helvetica,sans-Serif" font-size="10.00" fill="#000000">ml_MultiLevelPreconditioner.h</text>
</g>
<!-- Node3&#45;&gt;Node22 -->
<g id="edge22" class="edge">
<title>Node3&#45;&gt;Node22</title>
<path fill="none" stroke="#191970" d="M1783.3186,-56.2064C1823.7816,-46.7764 1890.0678,-31.3284 1935.2383,-20.8014"/>
<polygon fill="#191970" stroke="#191970" points="1936.1599,-24.1805 1945.1045,-18.502 1934.571,-17.3632 1936.1599,-24.1805"/>
</g>
<!-- Node23 -->
<g id="node24" class="node">
<title>Node23</title>
<polygon fill="#ffffff" stroke="#bfbfbf" points="2076.6553,-.5 2076.6553,-18.5 2168.8076,-18.5 2168.8076,-.5 2076.6553,-.5"/>
<text text-anchor="middle" x="2122.7314" y="-6.5" font-family="Helvetica,sans-Serif" font-size="10.00" fill="#000000">ml_epetra_utils.h</text>
</g>
<!-- Node3&#45;&gt;Node23 -->
<g id="edge23" class="edge">
<title>Node3&#45;&gt;Node23</title>
<path fill="none" stroke="#191970" d="M1783.298,-59.7952C1840.6314,-52.1344 1957.287,-36.2316 2066.3448,-19.1822"/>
<polygon fill="#191970" stroke="#191970" points="2067.1984,-22.5911 2076.5344,-17.5822 2066.1126,-15.6758 2067.1984,-22.5911"/>
</g>
<!-- Node24 -->
<g id="node25" class="node">
<title>Node24</title>
<polygon fill="#ffffff" stroke="#bfbfbf" points="2186.6602,-.5 2186.6602,-18.5 2258.8027,-18.5 2258.8027,-.5 2186.6602,-.5"/>
<text text-anchor="middle" x="2222.7314" y="-6.5" font-family="Helvetica,sans-Serif" font-size="10.00" fill="#000000">ml_include.h</text>
</g>
<!-- Node3&#45;&gt;Node24 -->
<g id="edge24" class="edge">
<title>Node3&#45;&gt;Node24</title>
<path fill="none" stroke="#191970" d="M1783.2884,-61.9795C1855.5167,-56.5925 2024.7359,-42.6149 2176.4732,-19.0605"/>
<polygon fill="#191970" stroke="#191970" points="2177.1055,-22.5042 2186.4414,-17.4951 2176.0195,-15.5889 2177.1055,-22.5042"/>
</g>
<!-- Node25 -->
<g id="node26" class="node">
<title>Node25</title>
<polygon fill="#ffffff" stroke="#bfbfbf" points="2277.1528,-.5 2277.1528,-18.5 2414.3101,-18.5 2414.3101,-.5 2277.1528,-.5"/>
<text text-anchor="middle" x="2345.7314" y="-6.5" font-family="Helvetica,sans-Serif" font-size="10.00" fill="#000000">EpetraExt_RowMatrixOut.h</text>
</g>
<!-- Node3&#45;&gt;Node25 -->
<g id="edge25" class="edge">
<title>Node3&#45;&gt;Node25</title>
<path fill="none" stroke="#191970" d="M1783.3922,-61.799C1866.2197,-55.4356 2078.2631,-38.6282 2266.7483,-19.0712"/>
<polygon fill="#191970" stroke="#191970" points="2267.2592,-22.537 2276.8423,-18.0189 2266.5333,-15.5748 2267.2592,-22.537"/>
</g>
<!-- Node26 -->
<g id="node27" class="node">
<title>Node26</title>
<polygon fill="#ffffff" stroke="#bfbfbf" points="2432.0322,-.5 2432.0322,-18.5 2571.4307,-18.5 2571.4307,-.5 2432.0322,-.5"/>
<text text-anchor="middle" x="2501.7314" y="-6.5" font-family="Helvetica,sans-Serif" font-size="10.00" fill="#000000">EpetraExt_MultiVectorOut.h</text>
</g>
<!-- Node3&#45;&gt;Node26 -->
<g id="edge26" class="edge">
<title>Node3&#45;&gt;Node26</title>
<path fill="none" stroke="#191970" d="M1783.3337,-62.7826C1882.6756,-57.846 2171.5228,-42.5084 2421.993,-19.1224"/>
<polygon fill="#191970" stroke="#191970" points="2422.382,-22.6014 2432.0105,-18.1808 2421.7268,-15.6321 2422.382,-22.6014"/>
</g>
<!-- Node27 -->
<g id="node28" class="node">
<title>Node27</title>
<polygon fill="#ffffff" stroke="#bfbfbf" points="2589.478,-.5 2589.478,-18.5 2699.9849,-18.5 2699.9849,-.5 2589.478,-.5"/>
<text text-anchor="middle" x="2644.7314" y="-6.5" font-family="Helvetica,sans-Serif" font-size="10.00" fill="#000000">EpetraExt_VectorIn.h</text>
</g>
<!-- Node3&#45;&gt;Node27 -->
<g id="edge27" class="edge">
<title>Node3&#45;&gt;Node27</title>
<path fill="none" stroke="#191970" d="M1783.5467,-63.7313C1897.9648,-61.0245 2265.0836,-50.3989 2579.0589,-19.082"/>
<polygon fill="#191970" stroke="#191970" points="2579.6687,-22.5384 2589.2679,-18.0545 2578.9676,-15.5736 2579.6687,-22.5384"/>
</g>
<!-- Node28 -->
<g id="node29" class="node">
<title>Node28</title>
<polygon fill="#ffffff" stroke="#bfbfbf" points="2717.9214,-.5 2717.9214,-18.5 2849.5415,-18.5 2849.5415,-.5 2717.9214,-.5"/>
<text text-anchor="middle" x="2783.7314" y="-6.5" font-family="Helvetica,sans-Serif" font-size="10.00" fill="#000000">EpetraExt_MultiVectorIn.h</text>
</g>
<!-- Node3&#45;&gt;Node28 -->
<g id="edge28" class="edge">
<title>Node3&#45;&gt;Node28</title>
<path fill="none" stroke="#191970" d="M1783.5777,-63.8198C1909.0938,-61.2236 2340.5825,-50.4922 2707.8845,-19.0008"/>
<polygon fill="#191970" stroke="#191970" points="2708.2511,-22.4823 2717.9127,-18.1345 2707.6485,-15.5083 2708.2511,-22.4823"/>
</g>
<!-- Node3&#45;&gt;Node29 -->
<g id="edge29" class="edge">
<title>Node3&#45;&gt;Node29</title>
<path fill="none" stroke="#191970" d="M1783.4767,-64.0813C1983.4789,-61.6438 2966.2013,-48.3925 3293.5752,-18.8361"/>
<polygon fill="#191970" stroke="#191970" points="3293.9035,-22.3208 3303.5375,-17.9123 3293.257,-15.3507 3293.9035,-22.3208"/>
</g>
<!-- Node30 -->
<g id="node31" class="node">
<title>Node30</title>
<polygon fill="#ffffff" stroke="#bfbfbf" points="2867.5,-.5 2867.5,-18.5 2927.9629,-18.5 2927.9629,-.5 2867.5,-.5"/>
<text text-anchor="middle" x="2897.7314" y="-6.5" font-family="Helvetica,sans-Serif" font-size="10.00" fill="#000000">Amesos.h</text>
</g>
<!-- Node3&#45;&gt;Node30 -->
<g id="edge30" class="edge">
<title>Node3&#45;&gt;Node30</title>
<path fill="none" stroke="#191970" d="M1783.4755,-63.9883C1946.7724,-61.5071 2623.5635,-49.6293 2857.0686,-18.9281"/>
<polygon fill="#191970" stroke="#191970" points="2857.7512,-22.3674 2867.1856,-17.5463 2856.8039,-15.4318 2857.7512,-22.3674"/>
</g>
<!-- Node31 -->
<g id="node32" class="node">
<title>Node31</title>
<polygon fill="#ffffff" stroke="#bfbfbf" points="2946.2783,-.5 2946.2783,-18.5 3011.1846,-18.5 3011.1846,-.5 2946.2783,-.5"/>
<text text-anchor="middle" x="2978.7314" y="-6.5" font-family="Helvetica,sans-Serif" font-size="10.00" fill="#000000">AztecOO.h</text>
</g>
<!-- Node3&#45;&gt;Node31 -->
<g id="edge31" class="edge">
<title>Node3&#45;&gt;Node31</title>
<path fill="none" stroke="#191970" d="M1783.3543,-64.0219C1953.4709,-61.6054 2684.8973,-49.6736 2935.6712,-18.8397"/>
<polygon fill="#191970" stroke="#191970" points="2936.3422,-22.2826 2945.8196,-17.5466 2935.4574,-15.3387 2936.3422,-22.2826"/>
</g>
<!-- Node32 -->
<g id="node33" class="node">
<title>Node32</title>
<polygon fill="#ffffff" stroke="#bfbfbf" points="3029.4238,-.5 3029.4238,-18.5 3146.0391,-18.5 3146.0391,-.5 3029.4238,-.5"/>
<text text-anchor="middle" x="3087.7314" y="-6.5" font-family="Helvetica,sans-Serif" font-size="10.00" fill="#000000">Amesos_BaseSolver.h</text>
</g>
<!-- Node3&#45;&gt;Node32 -->
<g id="edge32" class="edge">
<title>Node3&#45;&gt;Node32</title>
<path fill="none" stroke="#191970" d="M1783.3838,-63.7223C1960.7087,-59.7793 2749.4937,-41.3395 3019.0321,-18.9378"/>
<polygon fill="#191970" stroke="#191970" points="3019.504,-22.4103 3029.1697,-18.0717 3018.908,-15.4357 3019.504,-22.4103"/>
</g>
<!-- Node33 -->
<g id="node34" class="node">
<title>Node33</title>
<polygon fill="#ffffff" stroke="#bfbfbf" points="3163.6157,-.5 3163.6157,-18.5 3211.8472,-18.5 3211.8472,-.5 3163.6157,-.5"/>
<text text-anchor="middle" x="3187.7314" y="-6.5" font-family="Helvetica,sans-Serif" font-size="10.00" fill="#000000">metis.h</text>
</g>
<!-- Node3&#45;&gt;Node33 -->
<g id="edge33" class="edge">
<title>Node3&#45;&gt;Node33</title>
<path fill="none" stroke="#191970" d="M1783.3558,-63.8763C1984.48,-60.2862 2974.967,-41.668 3153.4661,-18.6567"/>
<polygon fill="#191970" stroke="#191970" points="3153.9708,-22.1202 3163.3752,-17.241 3152.9807,-15.1905 3153.9708,-22.1202"/>
</g>
<!-- Node34 -->
<g id="node35" class="node">
<title>Node34</title>
<g id="a_node35"><a xlink:href="../../d4/dbc/fepp_8hpp.html" target="_top" xlink:title="fepp.hpp">
<polygon fill="#ffffff" stroke="#000000" points="3230.2686,-.5 3230.2686,-18.5 3285.1943,-18.5 3285.1943,-.5 3230.2686,-.5"/>
<text text-anchor="middle" x="3257.7314" y="-6.5" font-family="Helvetica,sans-Serif" font-size="10.00" fill="#000000">fepp.hpp</text>
</a>
</g>
</g>
<!-- Node3&#45;&gt;Node34 -->
<g id="edge34" class="edge">
<title>Node3&#45;&gt;Node34</title>
<path fill="none" stroke="#191970" d="M1783.5896,-63.8212C1994.321,-59.9077 3066.1583,-39.6783 3211.7314,-19 3214.5015,-18.6065 3217.3634,-18.0847 3220.2519,-17.4876"/>
<polygon fill="#191970" stroke="#191970" points="3221.1101,-20.8818 3230.0805,-15.2442 3219.5524,-14.0573 3221.1101,-20.8818"/>
</g>
<!-- Node34&#45;&gt;Node3 -->
<g id="edge35" class="edge">
<title>Node34&#45;&gt;Node3</title>
<path fill="none" stroke="#191970" d="M3232.5142,-18.5678C3231.5801,-18.7247 3230.6507,-18.8694 3229.7314,-19 3085.1924,-39.5314 2027.502,-59.6203 1793.4534,-63.7353"/>
<polygon fill="#191970" stroke="#191970" points="1793.1891,-60.2393 1783.2519,-63.9137 1793.3116,-67.2383 1793.1891,-60.2393"/>
</g>
<!-- Node35&#45;&gt;Node3 -->
<g id="edge37" class="edge">
<title>Node35&#45;&gt;Node3</title>
<path fill="none" stroke="#191970" d="M1814.5211,-110.4179C1802.246,-101.9788 1783.7416,-89.257 1769.3206,-79.3426"/>
<polygon fill="#191970" stroke="#191970" points="1771.1847,-76.3768 1760.9614,-73.5956 1767.219,-82.1451 1771.1847,-76.3768"/>
</g>
</g>
</svg>
        <g id="navigator" transform="translate(0 0)" fill="#404254">
                <rect fill="#f2f5e9" fill-opacity="0.5" stroke="#606060" stroke-width=".5" x="0" y="0" width="60" height="60"/>
                <use id="zoomplus" xlink:href="#zoomPlus" x="17" y="9" onmousedown="handleZoom(evt,'in')"/>
                <use id="zoomminus" xlink:href="#zoomMin" x="42" y="9" onmousedown="handleZoom(evt,'out')"/>
                <use id="reset" xlink:href="#resetDef" x="30" y="36" onmousedown="handleReset()"/>
                <g id="arrowUp" xlink:href="#dirArrow" transform="translate(30 24)" onmousedown="handlePan(0,-1)">
                  <use xlink:href="#rim" fill="#404040">
                        <set attributeName="fill" to="#808080" begin="arrowUp.mouseover" end="arrowUp.mouseout"/>
                  </use>
                  <path fill="none" stroke="white" stroke-width="1.5" d="M0,-3.0v7 M-2.5,-0.5L0,-3.0L2.5,-0.5"/>
                </g>
                <g id="arrowRight" xlink:href="#dirArrow" transform="rotate(90) translate(36 -43)" onmousedown="handlePan(1,0)">
                  <use xlink:href="#rim" fill="#404040">
                        <set attributeName="fill" to="#808080" begin="arrowRight.mouseover" end="arrowRight.mouseout"/>
                  </use>
                  <path fill="none" stroke="white" stroke-width="1.5" d="M0,-3.0v7 M-2.5,-0.5L0,-3.0L2.5,-0.5"/>
                </g>
                <g id="arrowDown" xlink:href="#dirArrow" transform="rotate(180) translate(-30 -48)" onmousedown="handlePan(0,1)">
                  <use xlink:href="#rim" fill="#404040">
                        <set attributeName="fill" to="#808080" begin="arrowDown.mouseover" end="arrowDown.mouseout"/>
                  </use>
                  <path fill="none" stroke="white" stroke-width="1.5" d="M0,-3.0v7 M-2.5,-0.5L0,-3.0L2.5,-0.5"/>
                </g>
                <g id="arrowLeft" xlink:href="#dirArrow" transform="rotate(270) translate(-36 17)" onmousedown="handlePan(-1,0)">
                  <use xlink:href="#rim" fill="#404040">
                        <set attributeName="fill" to="#808080" begin="arrowLeft.mouseover" end="arrowLeft.mouseout"/>
                  </use>
                  <path fill="none" stroke="white" stroke-width="1.5" d="M0,-3.0v7 M-2.5,-0.5L0,-3.0L2.5,-0.5"/>
                </g>
        </g>
        <svg viewBox="0 0 15 15" width="100%" height="30px" preserveAspectRatio="xMaxYMin meet">
         <g id="arrow_out" transform="scale(0.3 0.3)">
          <a xlink:href="_newton___raphsonpp_8cpp__incl_org.svg" target="_base">
           <rect id="button" ry="5" rx="5" y="6" x="6" height="38" width="38"
                fill="#f2f5e9" fill-opacity="0.5" stroke="#606060" stroke-width="1.0"/>
           <path id="arrow"
             d="M 11.500037,31.436501 C 11.940474,20.09759 22.043105,11.32322 32.158766,21.979434 L 37.068811,17.246167 C 37.068811,17.246167 37.088388,32 37.088388,32 L 22.160133,31.978069 C 22.160133,31.978069 26.997745,27.140456 26.997745,27.140456 C 18.528582,18.264221 13.291696,25.230495 11.500037,31.436501 z"
             style="fill:#404040;"/>
          </a>
         </g>
        </svg>
</svg>
