<?xml version="1.0" encoding="UTF-8" standalone="no"?>
<!DOCTYPE svg PUBLIC "-//W3C//DTD SVG 1.1//EN"
 "http://www.w3.org/Graphics/SVG/1.1/DTD/svg11.dtd">
<!-- Generated by graphviz version 2.40.1 (20161225.0304)
 -->
<!-- Title: src/Newton_Raphsonpp.cpp Pages: 1 -->
<!--zoomable 432 -->
<svg id="main" version="1.1" xmlns="http://www.w3.org/2000/svg" xmlns:xlink="http://www.w3.org/1999/xlink" xml:space="preserve" onload="init(evt)">
<style type="text/css"><![CDATA[
.edge:hover path { stroke: red; }
.edge:hover polygon { stroke: red; fill: red; }
]]></style>
<script type="text/javascript"><![CDATA[
var edges = document.getElementsByTagName('g');
if (edges && edges.length) {
  for (var i=0;i<edges.length;i++) {
    if (edges[i].id.substr(0,4)=='edge') {
      edges[i].setAttribute('class','edge');
    }
  }
}
]]></script>
        <defs>
                <circle id="rim" cx="0" cy="0" r="7"/>
                <circle id="rim2" cx="0" cy="0" r="3.5"/>
                <g id="zoomPlus">
                        <use xlink:href="#rim" fill="#404040">
                                <set attributeName="fill" to="#808080" begin="zoomplus.mouseover" end="zoomplus.mouseout"/>
                        </use>
                        <path d="M-4,0h8M0,-4v8" fill="none" stroke="white" stroke-width="1.5" pointer-events="none"/>
                </g>
                <g id="zoomMin">
                        <use xlink:href="#rim" fill="#404040">
                                <set attributeName="fill" to="#808080" begin="zoomminus.mouseover" end="zoomminus.mouseout"/>
                        </use>
                        <path d="M-4,0h8" fill="none" stroke="white" stroke-width="1.5" pointer-events="none"/>
                </g>
                <g id="dirArrow">
                        <path fill="none" stroke="white" stroke-width="1.5" d="M0,-3.0v7 M-2.5,-0.5L0,-3.0L2.5,-0.5"/>
                </g>
               <g id="resetDef">
                       <use xlink:href="#rim2" fill="#404040">
                               <set attributeName="fill" to="#808080" begin="reset.mouseover" end="reset.mouseout"/>
                       </use>
               </g>
        </defs>

<script type="text/javascript">
var viewWidth = 3505;
var viewHeight = 432;
var sectionId = 'dynsection-0';
</script>
<script xlink:href="../../svgpan.js"/>
<svg id="graph" class="graph">
<g id="viewport">
<title>src/Newton_Raphsonpp.cpp</title>
<polygon fill="#ffffff" stroke="transparent" points="-4,4 -4,-428 3501.4209,-428 3501.4209,4 -4,4"/>
<!-- Node0 -->
<g id="node1" class="node">
<title>Node0</title>
<polygon fill="#bfbfbf" stroke="#000000" points="2409.3574,-405.5 2409.3574,-423.5 2550.9873,-423.5 2550.9873,-405.5 2409.3574,-405.5"/>
<text text-anchor="middle" x="2480.1724" y="-411.5" font-family="Helvetica,sans-Serif" font-size="10.00" fill="#000000">src/Newton_Raphsonpp.cpp</text>
</g>
<!-- Node1 -->
<g id="node2" class="node">
<title>Node1</title>
<g id="a_node2"><a xlink:href="../../d7/d17/_newton___raphsonpp_8hpp.html" target="_top" xlink:title="Newton_Raphsonpp.hpp">
<polygon fill="#ffffff" stroke="#000000" points="2417.1309,-350.5 2417.1309,-368.5 2543.2139,-368.5 2543.2139,-350.5 2417.1309,-350.5"/>
<text text-anchor="middle" x="2480.1724" y="-356.5" font-family="Helvetica,sans-Serif" font-size="10.00" fill="#000000">Newton_Raphsonpp.hpp</text>
</a>
</g>
</g>
<!-- Node0&#45;&gt;Node1 -->
<g id="edge1" class="edge">
<title>Node0&#45;&gt;Node1</title>
<path fill="none" stroke="#191970" d="M2480.1724,-405.4179C2480.1724,-398.2164 2480.1724,-387.8962 2480.1724,-378.8632"/>
<polygon fill="#191970" stroke="#191970" points="2483.6725,-378.7794 2480.1724,-368.7795 2476.6725,-378.7795 2483.6725,-378.7794"/>
</g>
<!-- Node2 -->
<g id="node3" class="node">
<title>Node2</title>
<g id="a_node3"><a xlink:href="../../de/d9d/hyperelasticity__setup__pp_8hpp.html" target="_top" xlink:title="hyperelasticity_setup\l_pp.hpp">
<polygon fill="#ffffff" stroke="#000000" points="1841.4805,-285.5 1841.4805,-313.5 1950.8643,-313.5 1950.8643,-285.5 1841.4805,-285.5"/>
<text text-anchor="start" x="1849.4805" y="-301.5" font-family="Helvetica,sans-Serif" font-size="10.00" fill="#000000">hyperelasticity_setup</text>
<text text-anchor="middle" x="1896.1724" y="-291.5" font-family="Helvetica,sans-Serif" font-size="10.00" fill="#000000">_pp.hpp</text>
</a>
</g>
</g>
<!-- Node1&#45;&gt;Node2 -->
<g id="edge2" class="edge">
<title>Node1&#45;&gt;Node2</title>
<path fill="none" stroke="#191970" d="M2416.8601,-356.338C2319.4128,-350.924 2126.977,-338.0616 1965.1724,-314 1963.8784,-313.8076 1962.5721,-313.6059 1961.257,-313.3962"/>
<polygon fill="#191970" stroke="#191970" points="1961.501,-309.8871 1951.0536,-311.6479 1960.3188,-316.7865 1961.501,-309.8871"/>
</g>
<!-- Node3 -->
<g id="node4" class="node">
<title>Node3</title>
<g id="a_node4"><a xlink:href="../../d2/d8b/_finite___element___problem_8hpp.html" target="_top" xlink:title="Finite_Element_Problem.hpp">
<polygon fill="#ffffff" stroke="#000000" points="1834.6924,-170.5 1834.6924,-188.5 1979.6523,-188.5 1979.6523,-170.5 1834.6924,-170.5"/>
<text text-anchor="middle" x="1907.1724" y="-176.5" font-family="Helvetica,sans-Serif" font-size="10.00" fill="#000000">Finite_Element_Problem.hpp</text>
</a>
</g>
</g>
<!-- Node1&#45;&gt;Node3 -->
<g id="edge43" class="edge">
<title>Node1&#45;&gt;Node3</title>
<path fill="none" stroke="#191970" d="M2416.8798,-356.382C2295.3548,-349.9721 2038.2155,-334.2042 2003.1724,-314 1956.9291,-287.3384 1927.1939,-228.3831 1914.3983,-198.1606"/>
<polygon fill="#191970" stroke="#191970" points="1917.5884,-196.714 1910.5795,-188.7688 1911.104,-199.3507 1917.5884,-196.714"/>
</g>
<!-- Node30 -->
<g id="node31" class="node">
<title>Node30</title>
<polygon fill="#ffffff" stroke="#bfbfbf" points="3303.125,-.5 3303.125,-18.5 3401.2197,-18.5 3401.2197,-.5 3303.125,-.5"/>
<text text-anchor="middle" x="3352.1724" y="-6.5" font-family="Helvetica,sans-Serif" font-size="10.00" fill="#000000">Teuchos_RCP.hpp</text>
</g>
<!-- Node1&#45;&gt;Node30 -->
<g id="edge44" class="edge">
<title>Node1&#45;&gt;Node30</title>
<path fill="none" stroke="#191970" d="M2416.9831,-356.9854C2301.2349,-351.8084 2064.4131,-338.3526 2036.1724,-314 2010.2942,-291.6847 2017.1724,-273.671 2017.1724,-239.5 2017.1724,-239.5 2017.1724,-239.5 2017.1724,-119.5 2017.1724,19.9783 3107.8585,-33.8224 3292.676,-18.8716"/>
<polygon fill="#191970" stroke="#191970" points="3293.2438,-22.3327 3302.8515,-17.867 3292.556,-15.3665 3293.2438,-22.3327"/>
</g>
<!-- Node39 -->
<g id="node40" class="node">
<title>Node39</title>
<polygon fill="#ffffff" stroke="#bfbfbf" points="2045.6626,-290.5 2045.6626,-308.5 2096.6821,-308.5 2096.6821,-290.5 2045.6626,-290.5"/>
<text text-anchor="middle" x="2071.1724" y="-296.5" font-family="Helvetica,sans-Serif" font-size="10.00" fill="#000000">Ifpack.h</text>
</g>
<!-- Node1&#45;&gt;Node39 -->
<g id="edge45" class="edge">
<title>Node1&#45;&gt;Node39</title>
<path fill="none" stroke="#191970" d="M2416.9908,-357.0388C2341.8318,-352.9203 2213.086,-342.0881 2106.1724,-314 2104.2163,-313.4861 2102.2251,-312.8864 2100.2355,-312.2291"/>
<polygon fill="#191970" stroke="#191970" points="2101.0632,-308.8024 2090.4704,-308.5907 2098.6191,-315.3619 2101.0632,-308.8024"/>
</g>
<!-- Node40 -->
<g id="node41" class="node">
<title>Node40</title>
<polygon fill="#ffffff" stroke="#bfbfbf" points="2114.9214,-290.5 2114.9214,-308.5 2245.4233,-308.5 2245.4233,-290.5 2114.9214,-290.5"/>
<text text-anchor="middle" x="2180.1724" y="-296.5" font-family="Helvetica,sans-Serif" font-size="10.00" fill="#000000">Ifpack_AdditiveSchwarz.h</text>
</g>
<!-- Node1&#45;&gt;Node40 -->
<g id="edge46" class="edge">
<title>Node1&#45;&gt;Node40</title>
<path fill="none" stroke="#191970" d="M2434.9345,-350.4524C2381.5067,-339.7669 2292.6614,-321.9978 2235.27,-310.5195"/>
<polygon fill="#191970" stroke="#191970" points="2235.7793,-307.0521 2225.287,-308.5229 2234.4064,-313.9162 2235.7793,-307.0521"/>
</g>
<!-- Node41 -->
<g id="node42" class="node">
<title>Node41</title>
<polygon fill="#ffffff" stroke="#bfbfbf" points="2263.4165,-290.5 2263.4165,-308.5 2388.9282,-308.5 2388.9282,-290.5 2263.4165,-290.5"/>
<text text-anchor="middle" x="2326.1724" y="-296.5" font-family="Helvetica,sans-Serif" font-size="10.00" fill="#000000">BelosLinearProblem.hpp</text>
</g>
<!-- Node1&#45;&gt;Node41 -->
<g id="edge47" class="edge">
<title>Node1&#45;&gt;Node41</title>
<path fill="none" stroke="#191970" d="M2456.7831,-350.3873C2430.6266,-340.1964 2388.085,-323.6218 2358.6967,-312.1718"/>
<polygon fill="#191970" stroke="#191970" points="2359.8656,-308.871 2349.2772,-308.5019 2357.3243,-315.3935 2359.8656,-308.871"/>
</g>
<!-- Node42 -->
<g id="node43" class="node">
<title>Node42</title>
<polygon fill="#ffffff" stroke="#bfbfbf" points="2407.1431,-290.5 2407.1431,-308.5 2553.2017,-308.5 2553.2017,-290.5 2407.1431,-290.5"/>
<text text-anchor="middle" x="2480.1724" y="-296.5" font-family="Helvetica,sans-Serif" font-size="10.00" fill="#000000">BelosBlockGmresSolMgr.hpp</text>
</g>
<!-- Node1&#45;&gt;Node42 -->
<g id="edge48" class="edge">
<title>Node1&#45;&gt;Node42</title>
<path fill="none" stroke="#191970" d="M2480.1724,-350.3873C2480.1724,-342.0174 2480.1724,-329.3414 2480.1724,-318.735"/>
<polygon fill="#191970" stroke="#191970" points="2483.6725,-318.6984 2480.1724,-308.6985 2476.6725,-318.6985 2483.6725,-318.6984"/>
</g>
<!-- Node43 -->
<g id="node44" class="node">
<title>Node43</title>
<polygon fill="#ffffff" stroke="#bfbfbf" points="2570.9634,-290.5 2570.9634,-308.5 2695.3813,-308.5 2695.3813,-290.5 2570.9634,-290.5"/>
<text text-anchor="middle" x="2633.1724" y="-296.5" font-family="Helvetica,sans-Serif" font-size="10.00" fill="#000000">BelosEpetraAdapter.hpp</text>
</g>
<!-- Node1&#45;&gt;Node43 -->
<g id="edge49" class="edge">
<title>Node1&#45;&gt;Node43</title>
<path fill="none" stroke="#191970" d="M2503.4098,-350.3873C2529.3964,-340.1964 2571.6617,-323.6218 2600.8592,-312.1718"/>
<polygon fill="#191970" stroke="#191970" points="2602.1857,-315.4112 2610.2176,-308.5019 2599.63,-308.8944 2602.1857,-315.4112"/>
</g>
<!-- Node44 -->
<g id="node45" class="node">
<title>Node44</title>
<polygon fill="#ffffff" stroke="#bfbfbf" points="2713.46,-290.5 2713.46,-308.5 2834.8848,-308.5 2834.8848,-290.5 2713.46,-290.5"/>
<text text-anchor="middle" x="2774.1724" y="-296.5" font-family="Helvetica,sans-Serif" font-size="10.00" fill="#000000">BelosSolverFactory.hpp</text>
</g>
<!-- Node1&#45;&gt;Node44 -->
<g id="edge50" class="edge">
<title>Node1&#45;&gt;Node44</title>
<path fill="none" stroke="#191970" d="M2524.8077,-350.4861C2570.0241,-341.3426 2641.9746,-326.7588 2704.1724,-314 2709.4913,-312.9089 2715.0367,-311.7673 2720.5758,-310.6242"/>
<polygon fill="#191970" stroke="#191970" points="2721.4042,-314.027 2730.4891,-308.5758 2719.9877,-307.1719 2721.4042,-314.027"/>
</g>
<!-- Node45 -->
<g id="node46" class="node">
<title>Node45</title>
<polygon fill="#ffffff" stroke="#bfbfbf" points="2853.291,-290.5 2853.291,-308.5 3031.0537,-308.5 3031.0537,-290.5 2853.291,-290.5"/>
<text text-anchor="middle" x="2942.1724" y="-296.5" font-family="Helvetica,sans-Serif" font-size="10.00" fill="#000000">Teuchos_StandardCatchMacros.hpp</text>
</g>
<!-- Node1&#45;&gt;Node45 -->
<g id="edge51" class="edge">
<title>Node1&#45;&gt;Node45</title>
<path fill="none" stroke="#191970" d="M2543.3567,-352.0399C2615.9997,-343.3614 2738.793,-328.3803 2844.1724,-314 2853.4052,-312.7401 2863.1195,-311.364 2872.698,-309.9773"/>
<polygon fill="#191970" stroke="#191970" points="2873.2143,-313.4391 2882.6047,-308.5328 2872.2043,-306.5124 2873.2143,-313.4391"/>
</g>
<!-- Node46 -->
<g id="node47" class="node">
<title>Node46</title>
<polygon fill="#ffffff" stroke="#bfbfbf" points="3048.9141,-290.5 3048.9141,-308.5 3189.4307,-308.5 3189.4307,-290.5 3048.9141,-290.5"/>
<text text-anchor="middle" x="3119.1724" y="-296.5" font-family="Helvetica,sans-Serif" font-size="10.00" fill="#000000">Teuchos_ParameterList.hpp</text>
</g>
<!-- Node1&#45;&gt;Node46 -->
<g id="edge52" class="edge">
<title>Node1&#45;&gt;Node46</title>
<path fill="none" stroke="#191970" d="M2543.3782,-356.4382C2647.338,-350.9377 2860.7882,-337.689 3040.1724,-314 3047.9486,-312.9731 3056.1216,-311.6974 3064.1416,-310.3318"/>
<polygon fill="#191970" stroke="#191970" points="3064.935,-313.7461 3074.1771,-308.566 3063.7219,-306.852 3064.935,-313.7461"/>
</g>
<!-- Node47 -->
<g id="node48" class="node">
<title>Node47</title>
<polygon fill="#ffffff" stroke="#bfbfbf" points="3207.3647,-285.5 3207.3647,-313.5 3348.98,-313.5 3348.98,-285.5 3207.3647,-285.5"/>
<text text-anchor="start" x="3215.3647" y="-301.5" font-family="Helvetica,sans-Serif" font-size="10.00" fill="#000000">Teuchos_XMLParameterList</text>
<text text-anchor="middle" x="3278.1724" y="-291.5" font-family="Helvetica,sans-Serif" font-size="10.00" fill="#000000">CoreHelpers.hpp</text>
</g>
<!-- Node1&#45;&gt;Node47 -->
<g id="edge53" class="edge">
<title>Node1&#45;&gt;Node47</title>
<path fill="none" stroke="#191970" d="M2543.3063,-357.9594C2666.8762,-354.4087 2949.4665,-343.6563 3196.8702,-314.0583"/>
<polygon fill="#191970" stroke="#191970" points="3197.63,-317.492 3207.1374,-312.8166 3196.7895,-310.5426 3197.63,-317.492"/>
</g>
<!-- Node48 -->
<g id="node49" class="node">
<title>Node48</title>
<polygon fill="#ffffff" stroke="#bfbfbf" points="3366.9238,-285.5 3366.9238,-313.5 3497.4209,-313.5 3497.4209,-285.5 3366.9238,-285.5"/>
<text text-anchor="start" x="3374.9238" y="-301.5" font-family="Helvetica,sans-Serif" font-size="10.00" fill="#000000">Stratimikos_DefaultLinear</text>
<text text-anchor="middle" x="3432.1724" y="-291.5" font-family="Helvetica,sans-Serif" font-size="10.00" fill="#000000">SolverBuilder.hpp</text>
</g>
<!-- Node1&#45;&gt;Node48 -->
<g id="edge54" class="edge">
<title>Node1&#45;&gt;Node48</title>
<path fill="none" stroke="#191970" d="M2543.3264,-357.3923C2713.7643,-351.522 3181.4928,-334.1613 3356.7615,-314.0209"/>
<polygon fill="#191970" stroke="#191970" points="3357.3677,-317.4735 3366.8829,-312.814 3356.5388,-310.5227 3357.3677,-317.4735"/>
</g>
<!-- Node2&#45;&gt;Node3 -->
<g id="edge3" class="edge">
<title>Node2&#45;&gt;Node3</title>
<path fill="none" stroke="#191970" d="M1897.4774,-285.2632C1899.4524,-263.7178 1903.2042,-222.7893 1905.4167,-198.6524"/>
<polygon fill="#191970" stroke="#191970" points="1908.9114,-198.8696 1906.3389,-188.5918 1901.9406,-198.2305 1908.9114,-198.8696"/>
</g>
<!-- Node37 -->
<g id="node38" class="node">
<title>Node37</title>
<g id="a_node38"><a xlink:href="../../d5/d3f/laplacepp_8hpp.html" target="_top" xlink:title="laplacepp.hpp">
<polygon fill="#ffffff" stroke="#000000" points="1755.0347,-230.5 1755.0347,-248.5 1833.3101,-248.5 1833.3101,-230.5 1755.0347,-230.5"/>
<text text-anchor="middle" x="1794.1724" y="-236.5" font-family="Helvetica,sans-Serif" font-size="10.00" fill="#000000">laplacepp.hpp</text>
</a>
</g>
</g>
<!-- Node2&#45;&gt;Node37 -->
<g id="edge39" class="edge">
<title>Node2&#45;&gt;Node37</title>
<path fill="none" stroke="#191970" d="M1872.2579,-285.4327C1856.1129,-275.9356 1834.8662,-263.4376 1818.6121,-253.8763"/>
<polygon fill="#191970" stroke="#191970" points="1820.0891,-250.6845 1809.6952,-248.6311 1816.5399,-256.7181 1820.0891,-250.6845"/>
</g>
<!-- Node4 -->
<g id="node5" class="node">
<title>Node4</title>
<g id="a_node5"><a xlink:href="../../d0/d02/meshpp_8hpp.html" target="_top" xlink:title="meshpp.hpp">
<polygon fill="#ffffff" stroke="#000000" points="1751.6528,-55.5 1751.6528,-73.5 1822.6919,-73.5 1822.6919,-55.5 1751.6528,-55.5"/>
<text text-anchor="middle" x="1787.1724" y="-61.5" font-family="Helvetica,sans-Serif" font-size="10.00" fill="#000000">meshpp.hpp</text>
</a>
</g>
</g>
<!-- Node3&#45;&gt;Node4 -->
<g id="edge4" class="edge">
<title>Node3&#45;&gt;Node4</title>
<path fill="none" stroke="#191970" d="M1907.0575,-170.2517C1906.3992,-155.7456 1903.126,-127.4965 1888.1724,-110 1873.8489,-93.2409 1852.1015,-82.3675 1832.4508,-75.4691"/>
<polygon fill="#191970" stroke="#191970" points="1833.3085,-72.0677 1822.7163,-72.3038 1831.1439,-78.7246 1833.3085,-72.0677"/>
</g>
<!-- Node36 -->
<g id="node37" class="node">
<title>Node36</title>
<g id="a_node37"><a xlink:href="../../d0/d41/_base_class_f_e_m_8hpp.html" target="_top" xlink:title="BaseClassFEM.hpp">
<polygon fill="#ffffff" stroke="#000000" points="1774.9878,-110.5 1774.9878,-128.5 1879.3569,-128.5 1879.3569,-110.5 1774.9878,-110.5"/>
<text text-anchor="middle" x="1827.1724" y="-116.5" font-family="Helvetica,sans-Serif" font-size="10.00" fill="#000000">BaseClassFEM.hpp</text>
</a>
</g>
</g>
<!-- Node3&#45;&gt;Node36 -->
<g id="edge37" class="edge">
<title>Node3&#45;&gt;Node36</title>
<path fill="none" stroke="#191970" d="M1895.0221,-170.3873C1882.3795,-160.9054 1862.3683,-145.897 1847.3483,-134.6319"/>
<polygon fill="#191970" stroke="#191970" points="1849.2749,-131.7019 1839.1749,-128.5019 1845.0749,-137.3019 1849.2749,-131.7019"/>
</g>
<!-- Node5 -->
<g id="node6" class="node">
<title>Node5</title>
<polygon fill="#ffffff" stroke="#bfbfbf" points="3239.4409,-.5 3239.4409,-18.5 3284.9038,-18.5 3284.9038,-.5 3239.4409,-.5"/>
<text text-anchor="middle" x="3262.1724" y="-6.5" font-family="Helvetica,sans-Serif" font-size="10.00" fill="#000000">stdio.h</text>
</g>
<!-- Node4&#45;&gt;Node5 -->
<g id="edge5" class="edge">
<title>Node4&#45;&gt;Node5</title>
<path fill="none" stroke="#191970" d="M1822.7121,-62.7774C1865.5134,-60.7398 1939.5911,-57.3308 2003.1724,-55 2272.5787,-45.1239 2944.8282,-61.7805 3229.3103,-18.6348"/>
<polygon fill="#191970" stroke="#191970" points="3229.9279,-22.0808 3239.2654,-17.0746 3228.844,-15.1652 3229.9279,-22.0808"/>
</g>
<!-- Node6 -->
<g id="node7" class="node">
<title>Node6</title>
<polygon fill="#ffffff" stroke="#bfbfbf" points="0,-.5 0,-18.5 54.3447,-18.5 54.3447,-.5 0,-.5"/>
<text text-anchor="middle" x="27.1724" y="-6.5" font-family="Helvetica,sans-Serif" font-size="10.00" fill="#000000">iostream</text>
</g>
<!-- Node4&#45;&gt;Node6 -->
<g id="edge6" class="edge">
<title>Node4&#45;&gt;Node6</title>
<path fill="none" stroke="#191970" d="M1751.3853,-64.0387C1523.5856,-61.039 278.9283,-43.691 64.484,-18.5315"/>
<polygon fill="#191970" stroke="#191970" points="64.8785,-15.0535 54.514,-17.2506 63.9865,-21.9964 64.8785,-15.0535"/>
</g>
<!-- Node7 -->
<g id="node8" class="node">
<title>Node7</title>
<polygon fill="#ffffff" stroke="#bfbfbf" points="72.7808,-.5 72.7808,-18.5 121.564,-18.5 121.564,-.5 72.7808,-.5"/>
<text text-anchor="middle" x="97.1724" y="-6.5" font-family="Helvetica,sans-Serif" font-size="10.00" fill="#000000">istream</text>
</g>
<!-- Node4&#45;&gt;Node7 -->
<g id="edge7" class="edge">
<title>Node4&#45;&gt;Node7</title>
<path fill="none" stroke="#191970" d="M1751.2971,-64.0591C1528.6047,-61.2514 338.2003,-45.1894 131.9999,-18.7696"/>
<polygon fill="#191970" stroke="#191970" points="132.2791,-15.2744 121.8879,-17.3415 131.3002,-22.2056 132.2791,-15.2744"/>
</g>
<!-- Node8 -->
<g id="node9" class="node">
<title>Node8</title>
<polygon fill="#ffffff" stroke="#bfbfbf" points="139.5024,-.5 139.5024,-18.5 188.8423,-18.5 188.8423,-.5 139.5024,-.5"/>
<text text-anchor="middle" x="164.1724" y="-6.5" font-family="Helvetica,sans-Serif" font-size="10.00" fill="#000000">fstream</text>
</g>
<!-- Node4&#45;&gt;Node8 -->
<g id="edge8" class="edge">
<title>Node4&#45;&gt;Node8</title>
<path fill="none" stroke="#191970" d="M1751.3293,-64.0151C1534.156,-61.0067 397.4058,-44.2359 198.8819,-18.7537"/>
<polygon fill="#191970" stroke="#191970" points="199.2804,-15.2753 188.8884,-17.3383 198.2988,-22.2061 199.2804,-15.2753"/>
</g>
<!-- Node9 -->
<g id="node10" class="node">
<title>Node9</title>
<polygon fill="#ffffff" stroke="#bfbfbf" points="206.5566,-.5 206.5566,-18.5 249.7881,-18.5 249.7881,-.5 206.5566,-.5"/>
<text text-anchor="middle" x="228.1724" y="-6.5" font-family="Helvetica,sans-Serif" font-size="10.00" fill="#000000">vector</text>
</g>
<!-- Node4&#45;&gt;Node9 -->
<g id="edge9" class="edge">
<title>Node4&#45;&gt;Node9</title>
<path fill="none" stroke="#191970" d="M1751.3057,-64.0271C1539.2027,-61.1534 452.0752,-45.3239 260.1094,-18.7271"/>
<polygon fill="#191970" stroke="#191970" points="260.3704,-15.2262 249.9547,-17.166 259.3068,-22.1449 260.3704,-15.2262"/>
</g>
<!-- Node10 -->
<g id="node11" class="node">
<title>Node10</title>
<polygon fill="#ffffff" stroke="#bfbfbf" points="267.6626,-.5 267.6626,-18.5 318.6821,-18.5 318.6821,-.5 267.6626,-.5"/>
<text text-anchor="middle" x="293.1724" y="-6.5" font-family="Helvetica,sans-Serif" font-size="10.00" fill="#000000">iomanip</text>
</g>
<!-- Node4&#45;&gt;Node10 -->
<g id="edge10" class="edge">
<title>Node4&#45;&gt;Node10</title>
<path fill="none" stroke="#191970" d="M1751.6109,-63.889C1546.1711,-60.2944 514.2066,-41.3349 329.0654,-18.6029"/>
<polygon fill="#191970" stroke="#191970" points="329.4024,-15.1167 319.0225,-17.24 328.461,-22.0531 329.4024,-15.1167"/>
</g>
<!-- Node11 -->
<g id="node12" class="node">
<title>Node11</title>
<polygon fill="#ffffff" stroke="#bfbfbf" points="336.7119,-.5 336.7119,-18.5 441.6328,-18.5 441.6328,-.5 336.7119,-.5"/>
<text text-anchor="middle" x="389.1724" y="-6.5" font-family="Helvetica,sans-Serif" font-size="10.00" fill="#000000">Epetra_MpiComm.h</text>
</g>
<!-- Node4&#45;&gt;Node11 -->
<g id="edge11" class="edge">
<title>Node4&#45;&gt;Node11</title>
<path fill="none" stroke="#191970" d="M1751.541,-63.8694C1568.7444,-60.5469 734.2017,-44.2957 451.9049,-19.0316"/>
<polygon fill="#191970" stroke="#191970" points="451.9734,-15.5231 441.6944,-18.0908 451.3311,-22.4936 451.9734,-15.5231"/>
</g>
<!-- Node12 -->
<g id="node13" class="node">
<title>Node12</title>
<polygon fill="#ffffff" stroke="#bfbfbf" points="459.4287,-.5 459.4287,-18.5 574.916,-18.5 574.916,-.5 459.4287,-.5"/>
<text text-anchor="middle" x="517.1724" y="-6.5" font-family="Helvetica,sans-Serif" font-size="10.00" fill="#000000">Epetra_FECrsGraph.h</text>
</g>
<!-- Node4&#45;&gt;Node12 -->
<g id="edge12" class="edge">
<title>Node4&#45;&gt;Node12</title>
<path fill="none" stroke="#191970" d="M1751.4623,-63.6469C1580.0861,-59.478 840.1569,-40.6066 585.5401,-19.0057"/>
<polygon fill="#191970" stroke="#191970" points="585.5011,-15.4891 575.2346,-18.1059 584.8922,-22.4625 585.5011,-15.4891"/>
</g>
<!-- Node13 -->
<g id="node14" class="node">
<title>Node13</title>
<polygon fill="#ffffff" stroke="#bfbfbf" points="592.7144,-.5 592.7144,-18.5 707.6304,-18.5 707.6304,-.5 592.7144,-.5"/>
<text text-anchor="middle" x="650.1724" y="-6.5" font-family="Helvetica,sans-Serif" font-size="10.00" fill="#000000">Epetra_FECrsMatrix.h</text>
</g>
<!-- Node4&#45;&gt;Node13 -->
<g id="edge13" class="edge">
<title>Node4&#45;&gt;Node13</title>
<path fill="none" stroke="#191970" d="M1751.4913,-64.2841C1617.2261,-63.1987 1129.4757,-56.7922 717.742,-19.0571"/>
<polygon fill="#191970" stroke="#191970" points="718.0045,-15.5666 707.7248,-18.1314 717.3603,-22.5369 718.0045,-15.5666"/>
</g>
<!-- Node14 -->
<g id="node15" class="node">
<title>Node14</title>
<polygon fill="#ffffff" stroke="#bfbfbf" points="725.1973,-.5 725.1973,-18.5 825.1475,-18.5 825.1475,-.5 725.1973,-.5"/>
<text text-anchor="middle" x="775.1724" y="-6.5" font-family="Helvetica,sans-Serif" font-size="10.00" fill="#000000">Epetra_FEVector.h</text>
</g>
<!-- Node4&#45;&gt;Node14 -->
<g id="edge14" class="edge">
<title>Node4&#45;&gt;Node14</title>
<path fill="none" stroke="#191970" d="M1751.5835,-64.2353C1627.0083,-63.0066 1198.9014,-56.2403 835.5245,-19.0221"/>
<polygon fill="#191970" stroke="#191970" points="835.6405,-15.5155 825.3336,-17.9685 834.9206,-22.4784 835.6405,-15.5155"/>
</g>
<!-- Node15 -->
<g id="node16" class="node">
<title>Node15</title>
<polygon fill="#ffffff" stroke="#bfbfbf" points="843.5864,-.5 843.5864,-18.5 930.7583,-18.5 930.7583,-.5 843.5864,-.5"/>
<text text-anchor="middle" x="887.1724" y="-6.5" font-family="Helvetica,sans-Serif" font-size="10.00" fill="#000000">Epetra_Vector.h</text>
</g>
<!-- Node4&#45;&gt;Node15 -->
<g id="edge15" class="edge">
<title>Node4&#45;&gt;Node15</title>
<path fill="none" stroke="#191970" d="M1751.5358,-64.1607C1635.9616,-62.728 1261.0069,-55.4731 940.7185,-18.9038"/>
<polygon fill="#191970" stroke="#191970" points="941.1169,-15.4266 930.7817,-17.7577 940.3148,-22.3805 941.1169,-15.4266"/>
</g>
<!-- Node16 -->
<g id="node17" class="node">
<title>Node16</title>
<polygon fill="#ffffff" stroke="#bfbfbf" points="948.7637,-.5 948.7637,-18.5 1027.5811,-18.5 1027.5811,-.5 948.7637,-.5"/>
<text text-anchor="middle" x="988.1724" y="-6.5" font-family="Helvetica,sans-Serif" font-size="10.00" fill="#000000">Epetra_Map.h</text>
</g>
<!-- Node4&#45;&gt;Node16 -->
<g id="edge16" class="edge">
<title>Node4&#45;&gt;Node16</title>
<path fill="none" stroke="#191970" d="M1751.4394,-64.0428C1644.5132,-62.3135 1317.6365,-54.3989 1037.5974,-19.0229"/>
<polygon fill="#191970" stroke="#191970" points="1038.0187,-15.5483 1027.6558,-17.7528 1037.1316,-22.4919 1038.0187,-15.5483"/>
</g>
<!-- Node17 -->
<g id="node18" class="node">
<title>Node17</title>
<polygon fill="#ffffff" stroke="#bfbfbf" points="1045.6431,-.5 1045.6431,-18.5 1186.7017,-18.5 1186.7017,-.5 1045.6431,-.5"/>
<text text-anchor="middle" x="1116.1724" y="-6.5" font-family="Helvetica,sans-Serif" font-size="10.00" fill="#000000">Epetra_SerialDenseMatrix.h</text>
</g>
<!-- Node4&#45;&gt;Node17 -->
<g id="edge17" class="edge">
<title>Node4&#45;&gt;Node17</title>
<path fill="none" stroke="#191970" d="M1751.4244,-62.29C1660.5967,-56.5599 1413.3633,-40.2456 1196.7561,-19.1219"/>
<polygon fill="#191970" stroke="#191970" points="1197.085,-15.6375 1186.7911,-18.1446 1196.4017,-22.604 1197.085,-15.6375"/>
</g>
<!-- Node18 -->
<g id="node19" class="node">
<title>Node18</title>
<polygon fill="#ffffff" stroke="#bfbfbf" points="1204.3501,-.5 1204.3501,-18.5 1345.9946,-18.5 1345.9946,-.5 1204.3501,-.5"/>
<text text-anchor="middle" x="1275.1724" y="-6.5" font-family="Helvetica,sans-Serif" font-size="10.00" fill="#000000">Epetra_SerialDenseVector.h</text>
</g>
<!-- Node4&#45;&gt;Node18 -->
<g id="edge18" class="edge">
<title>Node4&#45;&gt;Node18</title>
<path fill="none" stroke="#191970" d="M1751.5949,-60.9141C1679.2939,-53.5919 1509.746,-36.2444 1356.3463,-19.1196"/>
<polygon fill="#191970" stroke="#191970" points="1356.5939,-15.6255 1346.2667,-17.992 1355.8156,-22.5821 1356.5939,-15.6255"/>
</g>
<!-- Node19 -->
<g id="node20" class="node">
<title>Node19</title>
<polygon fill="#ffffff" stroke="#bfbfbf" points="1363.791,-.5 1363.791,-18.5 1516.5537,-18.5 1516.5537,-.5 1363.791,-.5"/>
<text text-anchor="middle" x="1440.1724" y="-6.5" font-family="Helvetica,sans-Serif" font-size="10.00" fill="#000000">Epetra_IntSerialDenseVector.h</text>
</g>
<!-- Node4&#45;&gt;Node19 -->
<g id="edge19" class="edge">
<title>Node4&#45;&gt;Node19</title>
<path fill="none" stroke="#191970" d="M1751.3442,-58.8212C1693.8742,-49.7121 1580.159,-31.6881 1507.2658,-20.1344"/>
<polygon fill="#191970" stroke="#191970" points="1507.6859,-16.6574 1497.2613,-18.5487 1506.59,-23.5711 1507.6859,-16.6574"/>
</g>
<!-- Node20 -->
<g id="node21" class="node">
<title>Node20</title>
<polygon fill="#ffffff" stroke="#bfbfbf" points="1534.3203,-.5 1534.3203,-18.5 1622.0244,-18.5 1622.0244,-.5 1534.3203,-.5"/>
<text text-anchor="middle" x="1578.1724" y="-6.5" font-family="Helvetica,sans-Serif" font-size="10.00" fill="#000000">Epetra_Import.h</text>
</g>
<!-- Node4&#45;&gt;Node20 -->
<g id="edge20" class="edge">
<title>Node4&#45;&gt;Node20</title>
<path fill="none" stroke="#191970" d="M1752.6603,-55.4179C1717.0061,-46.0352 1661.235,-31.3586 1622.3747,-21.1322"/>
<polygon fill="#191970" stroke="#191970" points="1622.9499,-17.6645 1612.3884,-18.5042 1621.1684,-24.434 1622.9499,-17.6645"/>
</g>
<!-- Node21 -->
<g id="node22" class="node">
<title>Node21</title>
<polygon fill="#ffffff" stroke="#bfbfbf" points="1640.0396,-.5 1640.0396,-18.5 1728.3052,-18.5 1728.3052,-.5 1640.0396,-.5"/>
<text text-anchor="middle" x="1684.1724" y="-6.5" font-family="Helvetica,sans-Serif" font-size="10.00" fill="#000000">Epetra_Export.h</text>
</g>
<!-- Node4&#45;&gt;Node21 -->
<g id="edge21" class="edge">
<title>Node4&#45;&gt;Node21</title>
<path fill="none" stroke="#191970" d="M1770.164,-55.4179C1753.838,-46.7001 1728.9534,-33.4122 1710.1469,-23.3699"/>
<polygon fill="#191970" stroke="#191970" points="1711.6758,-20.2186 1701.206,-18.5956 1708.3785,-26.3934 1711.6758,-20.2186"/>
</g>
<!-- Node22 -->
<g id="node23" class="node">
<title>Node22</title>
<polygon fill="#ffffff" stroke="#bfbfbf" points="1746.5625,-.5 1746.5625,-18.5 1827.7822,-18.5 1827.7822,-.5 1746.5625,-.5"/>
<text text-anchor="middle" x="1787.1724" y="-6.5" font-family="Helvetica,sans-Serif" font-size="10.00" fill="#000000">Epetra_Time.h</text>
</g>
<!-- Node4&#45;&gt;Node22 -->
<g id="edge22" class="edge">
<title>Node4&#45;&gt;Node22</title>
<path fill="none" stroke="#191970" d="M1787.1724,-55.4179C1787.1724,-48.2164 1787.1724,-37.8962 1787.1724,-28.8632"/>
<polygon fill="#191970" stroke="#191970" points="1790.6725,-28.7794 1787.1724,-18.7795 1783.6725,-28.7795 1790.6725,-28.7794"/>
</g>
<!-- Node23 -->
<g id="node24" class="node">
<title>Node23</title>
<polygon fill="#ffffff" stroke="#bfbfbf" points="1845.4683,-.5 1845.4683,-18.5 1994.8765,-18.5 1994.8765,-.5 1845.4683,-.5"/>
<text text-anchor="middle" x="1920.1724" y="-6.5" font-family="Helvetica,sans-Serif" font-size="10.00" fill="#000000">ml_MultiLevelPreconditioner.h</text>
</g>
<!-- Node4&#45;&gt;Node23 -->
<g id="edge23" class="edge">
<title>Node4&#45;&gt;Node23</title>
<path fill="none" stroke="#191970" d="M1809.1346,-55.4179C1830.8895,-46.4215 1864.4138,-32.5581 1888.9363,-22.4172"/>
<polygon fill="#191970" stroke="#191970" points="1890.274,-25.6515 1898.1775,-18.5956 1887.5989,-19.1828 1890.274,-25.6515"/>
</g>
<!-- Node24 -->
<g id="node25" class="node">
<title>Node24</title>
<polygon fill="#ffffff" stroke="#bfbfbf" points="2013.0962,-.5 2013.0962,-18.5 2105.2485,-18.5 2105.2485,-.5 2013.0962,-.5"/>
<text text-anchor="middle" x="2059.1724" y="-6.5" font-family="Helvetica,sans-Serif" font-size="10.00" fill="#000000">ml_epetra_utils.h</text>
</g>
<!-- Node4&#45;&gt;Node24 -->
<g id="edge24" class="edge">
<title>Node4&#45;&gt;Node24</title>
<path fill="none" stroke="#191970" d="M1822.7316,-57.3097C1868.9983,-47.9543 1950.3055,-31.5135 2004.4563,-20.5639"/>
<polygon fill="#191970" stroke="#191970" points="2005.4633,-23.9312 2014.5712,-18.5186 2004.0758,-17.0701 2005.4633,-23.9312"/>
</g>
<!-- Node25 -->
<g id="node26" class="node">
<title>Node25</title>
<polygon fill="#ffffff" stroke="#bfbfbf" points="2123.1011,-.5 2123.1011,-18.5 2195.2437,-18.5 2195.2437,-.5 2123.1011,-.5"/>
<text text-anchor="middle" x="2159.1724" y="-6.5" font-family="Helvetica,sans-Serif" font-size="10.00" fill="#000000">ml_include.h</text>
</g>
<!-- Node4&#45;&gt;Node25 -->
<g id="edge25" class="edge">
<title>Node4&#45;&gt;Node25</title>
<path fill="none" stroke="#191970" d="M1823.1068,-60.3326C1881.6801,-53.3591 2001.58,-38.332 2112.8188,-19.1409"/>
<polygon fill="#191970" stroke="#191970" points="2113.6136,-22.5552 2122.8652,-17.392 2112.413,-15.659 2113.6136,-22.5552"/>
</g>
<!-- Node26 -->
<g id="node27" class="node">
<title>Node26</title>
<polygon fill="#ffffff" stroke="#bfbfbf" points="2213.5938,-.5 2213.5938,-18.5 2350.751,-18.5 2350.751,-.5 2213.5938,-.5"/>
<text text-anchor="middle" x="2282.1724" y="-6.5" font-family="Helvetica,sans-Serif" font-size="10.00" fill="#000000">EpetraExt_RowMatrixOut.h</text>
</g>
<!-- Node4&#45;&gt;Node26 -->
<g id="edge26" class="edge">
<title>Node4&#45;&gt;Node26</title>
<path fill="none" stroke="#191970" d="M1822.8888,-60.7551C1893.373,-53.332 2055.5964,-36.0845 2203.1294,-19.1085"/>
<polygon fill="#191970" stroke="#191970" points="2203.7411,-22.5612 2213.2744,-17.9388 2202.9393,-15.6073 2203.7411,-22.5612"/>
</g>
<!-- Node27 -->
<g id="node28" class="node">
<title>Node27</title>
<polygon fill="#ffffff" stroke="#bfbfbf" points="2368.4731,-.5 2368.4731,-18.5 2507.8716,-18.5 2507.8716,-.5 2368.4731,-.5"/>
<text text-anchor="middle" x="2438.1724" y="-6.5" font-family="Helvetica,sans-Serif" font-size="10.00" fill="#000000">EpetraExt_MultiVectorOut.h</text>
</g>
<!-- Node4&#45;&gt;Node27 -->
<g id="edge27" class="edge">
<title>Node4&#45;&gt;Node27</title>
<path fill="none" stroke="#191970" d="M1822.7579,-62.1957C1911.3782,-56.3456 2149.2885,-39.9576 2358.207,-19.1643"/>
<polygon fill="#191970" stroke="#191970" points="2358.8458,-22.6179 2368.4474,-18.1391 2358.1485,-15.6527 2358.8458,-22.6179"/>
</g>
<!-- Node28 -->
<g id="node29" class="node">
<title>Node28</title>
<polygon fill="#ffffff" stroke="#bfbfbf" points="2525.9189,-.5 2525.9189,-18.5 2636.4258,-18.5 2636.4258,-.5 2525.9189,-.5"/>
<text text-anchor="middle" x="2581.1724" y="-6.5" font-family="Helvetica,sans-Serif" font-size="10.00" fill="#000000">EpetraExt_VectorIn.h</text>
</g>
<!-- Node4&#45;&gt;Node28 -->
<g id="edge28" class="edge">
<title>Node4&#45;&gt;Node28</title>
<path fill="none" stroke="#191970" d="M1822.8572,-62.68C1947.0605,-56.2834 2360.8278,-34.4416 2515.464,-19.0769"/>
<polygon fill="#191970" stroke="#191970" points="2516.1146,-22.5287 2525.7061,-18.0283 2515.4016,-15.5651 2516.1146,-22.5287"/>
</g>
<!-- Node29 -->
<g id="node30" class="node">
<title>Node29</title>
<polygon fill="#ffffff" stroke="#bfbfbf" points="2654.3623,-.5 2654.3623,-18.5 2785.9824,-18.5 2785.9824,-.5 2654.3623,-.5"/>
<text text-anchor="middle" x="2720.1724" y="-6.5" font-family="Helvetica,sans-Serif" font-size="10.00" fill="#000000">EpetraExt_MultiVectorIn.h</text>
</g>
<!-- Node4&#45;&gt;Node29 -->
<g id="edge29" class="edge">
<title>Node4&#45;&gt;Node29</title>
<path fill="none" stroke="#191970" d="M1823.1242,-62.9447C1961.7589,-56.894 2462.496,-34.532 2644.3823,-18.9875"/>
<polygon fill="#191970" stroke="#191970" points="2644.6957,-22.4735 2654.3517,-18.1133 2644.0842,-15.5003 2644.6957,-22.4735"/>
</g>
<!-- Node4&#45;&gt;Node30 -->
<g id="edge30" class="edge">
<title>Node4&#45;&gt;Node30</title>
<path fill="none" stroke="#191970" d="M1822.7115,-62.7616C1865.5122,-60.7086 1939.5894,-57.2846 2003.1724,-55 2573.4419,-34.5096 2721.0408,-73.0573 3292.7175,-19.0037"/>
<polygon fill="#191970" stroke="#191970" points="3293.2463,-22.4693 3302.8701,-18.0382 3292.5836,-15.5007 3293.2463,-22.4693"/>
</g>
<!-- Node31 -->
<g id="node32" class="node">
<title>Node31</title>
<polygon fill="#ffffff" stroke="#bfbfbf" points="2803.9409,-.5 2803.9409,-18.5 2864.4038,-18.5 2864.4038,-.5 2803.9409,-.5"/>
<text text-anchor="middle" x="2834.1724" y="-6.5" font-family="Helvetica,sans-Serif" font-size="10.00" fill="#000000">Amesos.h</text>
</g>
<!-- Node4&#45;&gt;Node31 -->
<g id="edge31" class="edge">
<title>Node4&#45;&gt;Node31</title>
<path fill="none" stroke="#191970" d="M1822.8108,-62.9145C1990.7649,-55.4398 2698.7931,-23.8989 2793.3722,-18.2715"/>
<polygon fill="#191970" stroke="#191970" points="2793.9017,-21.7426 2803.6248,-17.534 2793.3994,-14.7606 2793.9017,-21.7426"/>
</g>
<!-- Node32 -->
<g id="node33" class="node">
<title>Node32</title>
<polygon fill="#ffffff" stroke="#bfbfbf" points="2882.7192,-.5 2882.7192,-18.5 2947.6255,-18.5 2947.6255,-.5 2882.7192,-.5"/>
<text text-anchor="middle" x="2915.1724" y="-6.5" font-family="Helvetica,sans-Serif" font-size="10.00" fill="#000000">AztecOO.h</text>
</g>
<!-- Node4&#45;&gt;Node32 -->
<g id="edge32" class="edge">
<title>Node4&#45;&gt;Node32</title>
<path fill="none" stroke="#191970" d="M1822.7173,-62.9084C1865.5236,-60.9981 1939.6063,-57.713 2003.1724,-55 2386.5141,-38.6389 2487.8113,-69.3645 2872.7029,-18.7773"/>
<polygon fill="#191970" stroke="#191970" points="2873.2641,-22.2336 2882.7181,-17.4511 2872.3451,-15.2942 2873.2641,-22.2336"/>
</g>
<!-- Node33 -->
<g id="node34" class="node">
<title>Node33</title>
<polygon fill="#ffffff" stroke="#bfbfbf" points="2965.8647,-.5 2965.8647,-18.5 3082.48,-18.5 3082.48,-.5 2965.8647,-.5"/>
<text text-anchor="middle" x="3024.1724" y="-6.5" font-family="Helvetica,sans-Serif" font-size="10.00" fill="#000000">Amesos_BaseSolver.h</text>
</g>
<!-- Node4&#45;&gt;Node33 -->
<g id="edge33" class="edge">
<title>Node4&#45;&gt;Node33</title>
<path fill="none" stroke="#191970" d="M1822.7156,-62.8692C1865.5204,-60.9208 1939.6015,-57.5987 2003.1724,-55 2423.3677,-37.8232 2532.2697,-56.0809 2955.5524,-18.9516"/>
<polygon fill="#191970" stroke="#191970" points="2955.9563,-22.4297 2965.61,-18.0642 2955.341,-15.4568 2955.9563,-22.4297"/>
</g>
<!-- Node34 -->
<g id="node35" class="node">
<title>Node34</title>
<polygon fill="#ffffff" stroke="#bfbfbf" points="3100.0566,-.5 3100.0566,-18.5 3148.2881,-18.5 3148.2881,-.5 3100.0566,-.5"/>
<text text-anchor="middle" x="3124.1724" y="-6.5" font-family="Helvetica,sans-Serif" font-size="10.00" fill="#000000">metis.h</text>
</g>
<!-- Node4&#45;&gt;Node34 -->
<g id="edge34" class="edge">
<title>Node4&#45;&gt;Node34</title>
<path fill="none" stroke="#191970" d="M1822.7136,-62.8182C1865.5164,-60.8203 1939.5956,-57.4498 2003.1724,-55 2241.7162,-45.808 2836.2759,-56.4613 3089.8375,-18.7754"/>
<polygon fill="#191970" stroke="#191970" points="3090.465,-22.2201 3099.8158,-17.2389 3089.3996,-15.3016 3090.465,-22.2201"/>
</g>
<!-- Node35 -->
<g id="node36" class="node">
<title>Node35</title>
<g id="a_node36"><a xlink:href="../../d4/dbc/fepp_8hpp.html" target="_top" xlink:title="fepp.hpp">
<polygon fill="#ffffff" stroke="#000000" points="3166.7095,-.5 3166.7095,-18.5 3221.6353,-18.5 3221.6353,-.5 3166.7095,-.5"/>
<text text-anchor="middle" x="3194.1724" y="-6.5" font-family="Helvetica,sans-Serif" font-size="10.00" fill="#000000">fepp.hpp</text>
</a>
</g>
</g>
<!-- Node4&#45;&gt;Node35 -->
<g id="edge35" class="edge">
<title>Node4&#45;&gt;Node35</title>
<path fill="none" stroke="#191970" d="M1823.0071,-62.4649C1864.352,-60.4225 1933.9692,-57.2629 1994.1724,-55 2250.5605,-45.3631 2894.1586,-55.1217 3148.1724,-19 3150.9424,-18.6061 3153.8042,-18.084 3156.6927,-17.4867"/>
<polygon fill="#191970" stroke="#191970" points="3157.551,-20.8809 3166.5213,-15.2431 3155.9931,-14.0565 3157.551,-20.8809"/>
</g>
<!-- Node35&#45;&gt;Node4 -->
<g id="edge36" class="edge">
<title>Node35&#45;&gt;Node4</title>
<path fill="none" stroke="#191970" d="M3168.9551,-18.5674C3168.0209,-18.7244 3167.0916,-18.8693 3166.1724,-19 2912.1586,-55.1217 2268.5605,-45.3631 2012.1724,-55 1950.404,-57.3217 1878.7257,-60.5874 1833.0494,-62.6219"/>
<polygon fill="#191970" stroke="#191970" points="1832.7007,-59.1339 1822.8658,-63.0739 1833.0112,-66.127 1832.7007,-59.1339"/>
</g>
<!-- Node36&#45;&gt;Node4 -->
<g id="edge38" class="edge">
<title>Node36&#45;&gt;Node4</title>
<path fill="none" stroke="#191970" d="M1820.5672,-110.4179C1814.9844,-102.7415 1806.8245,-91.5217 1799.9684,-82.0945"/>
<polygon fill="#191970" stroke="#191970" points="1802.6334,-79.8082 1793.9211,-73.7795 1796.9722,-83.9255 1802.6334,-79.8082"/>
</g>
<!-- Node38 -->
<g id="node39" class="node">
<title>Node38</title>
<g id="a_node39"><a xlink:href="../../d9/dea/_linear___finite___element___problem_8hpp.html" target="_top" xlink:title="Linear_Finite_Element\l_Problem.hpp">
<polygon fill="#ffffff" stroke="#000000" points="1700.1431,-165.5 1700.1431,-193.5 1816.2017,-193.5 1816.2017,-165.5 1700.1431,-165.5"/>
<text text-anchor="start" x="1708.1431" y="-181.5" font-family="Helvetica,sans-Serif" font-size="10.00" fill="#000000">Linear_Finite_Element</text>
<text text-anchor="middle" x="1758.1724" y="-171.5" font-family="Helvetica,sans-Serif" font-size="10.00" fill="#000000">_Problem.hpp</text>
</a>
</g>
</g>
<!-- Node37&#45;&gt;Node38 -->
<g id="edge40" class="edge">
<title>Node37&#45;&gt;Node38</title>
<path fill="none" stroke="#191970" d="M1788.7047,-230.3873C1784.2926,-223.0337 1777.886,-212.3561 1772.0795,-202.6786"/>
<polygon fill="#191970" stroke="#191970" points="1774.9272,-200.6219 1766.781,-193.8477 1768.9247,-204.2234 1774.9272,-200.6219"/>
</g>
<!-- Node38&#45;&gt;Node4 -->
<g id="edge41" class="edge">
<title>Node38&#45;&gt;Node4</title>
<path fill="none" stroke="#191970" d="M1758.4892,-165.4033C1759.1106,-151.1815 1760.9233,-128.7107 1766.1724,-110 1768.812,-100.5906 1773.1783,-90.6785 1777.2478,-82.5164"/>
<polygon fill="#191970" stroke="#191970" points="1780.3892,-84.0622 1781.9285,-73.5797 1774.1882,-80.8143 1780.3892,-84.0622"/>
</g>
<!-- Node38&#45;&gt;Node36 -->
<g id="edge42" class="edge">
<title>Node38&#45;&gt;Node36</title>
<path fill="none" stroke="#191970" d="M1774.5244,-165.2808C1784.9407,-156.2232 1798.4425,-144.4825 1809.1649,-135.1586"/>
<polygon fill="#191970" stroke="#191970" points="1811.4761,-137.7871 1816.7255,-128.5842 1806.8828,-132.5049 1811.4761,-137.7871"/>
</g>
</g>
</svg>
        <g id="navigator" transform="translate(0 0)" fill="#404254">
                <rect fill="#f2f5e9" fill-opacity="0.5" stroke="#606060" stroke-width=".5" x="0" y="0" width="60" height="60"/>
                <use id="zoomplus" xlink:href="#zoomPlus" x="17" y="9" onmousedown="handleZoom(evt,'in')"/>
                <use id="zoomminus" xlink:href="#zoomMin" x="42" y="9" onmousedown="handleZoom(evt,'out')"/>
                <use id="reset" xlink:href="#resetDef" x="30" y="36" onmousedown="handleReset()"/>
                <g id="arrowUp" xlink:href="#dirArrow" transform="translate(30 24)" onmousedown="handlePan(0,-1)">
                  <use xlink:href="#rim" fill="#404040">
                        <set attributeName="fill" to="#808080" begin="arrowUp.mouseover" end="arrowUp.mouseout"/>
                  </use>
                  <path fill="none" stroke="white" stroke-width="1.5" d="M0,-3.0v7 M-2.5,-0.5L0,-3.0L2.5,-0.5"/>
                </g>
                <g id="arrowRight" xlink:href="#dirArrow" transform="rotate(90) translate(36 -43)" onmousedown="handlePan(1,0)">
                  <use xlink:href="#rim" fill="#404040">
                        <set attributeName="fill" to="#808080" begin="arrowRight.mouseover" end="arrowRight.mouseout"/>
                  </use>
                  <path fill="none" stroke="white" stroke-width="1.5" d="M0,-3.0v7 M-2.5,-0.5L0,-3.0L2.5,-0.5"/>
                </g>
                <g id="arrowDown" xlink:href="#dirArrow" transform="rotate(180) translate(-30 -48)" onmousedown="handlePan(0,1)">
                  <use xlink:href="#rim" fill="#404040">
                        <set attributeName="fill" to="#808080" begin="arrowDown.mouseover" end="arrowDown.mouseout"/>
                  </use>
                  <path fill="none" stroke="white" stroke-width="1.5" d="M0,-3.0v7 M-2.5,-0.5L0,-3.0L2.5,-0.5"/>
                </g>
                <g id="arrowLeft" xlink:href="#dirArrow" transform="rotate(270) translate(-36 17)" onmousedown="handlePan(-1,0)">
                  <use xlink:href="#rim" fill="#404040">
                        <set attributeName="fill" to="#808080" begin="arrowLeft.mouseover" end="arrowLeft.mouseout"/>
                  </use>
                  <path fill="none" stroke="white" stroke-width="1.5" d="M0,-3.0v7 M-2.5,-0.5L0,-3.0L2.5,-0.5"/>
                </g>
        </g>
        <svg viewBox="0 0 15 15" width="100%" height="30px" preserveAspectRatio="xMaxYMin meet">
         <g id="arrow_out" transform="scale(0.3 0.3)">
          <a xlink:href="_newton___raphsonpp_8cpp__incl_org.svg" target="_base">
           <rect id="button" ry="5" rx="5" y="6" x="6" height="38" width="38"
                fill="#f2f5e9" fill-opacity="0.5" stroke="#606060" stroke-width="1.0"/>
           <path id="arrow"
             d="M 11.500037,31.436501 C 11.940474,20.09759 22.043105,11.32322 32.158766,21.979434 L 37.068811,17.246167 C 37.068811,17.246167 37.088388,32 37.088388,32 L 22.160133,31.978069 C 22.160133,31.978069 26.997745,27.140456 26.997745,27.140456 C 18.528582,18.264221 13.291696,25.230495 11.500037,31.436501 z"
             style="fill:#404040;"/>
          </a>
         </g>
        </svg>
</svg>
