<?xml version="1.0" encoding="UTF-8" standalone="no"?>
<!DOCTYPE svg PUBLIC "-//W3C//DTD SVG 1.1//EN"
 "http://www.w3.org/Graphics/SVG/1.1/DTD/svg11.dtd">
<!-- Generated by graphviz version 2.40.1 (20161225.0304)
 -->
<!-- Title: src/Newton_Raphsonpp.cpp Pages: 1 -->
<svg width="3516pt" height="432pt"
 viewBox="0.00 0.00 3516.42 432.00" xmlns="http://www.w3.org/2000/svg" xmlns:xlink="http://www.w3.org/1999/xlink">
<g id="graph0" class="graph" transform="scale(1 1) rotate(0) translate(4 428)">
<title>src/Newton_Raphsonpp.cpp</title>
<polygon fill="#ffffff" stroke="transparent" points="-4,4 -4,-428 3512.4209,-428 3512.4209,4 -4,4"/>
<!-- Node0 -->
<g id="node1" class="node">
<title>Node0</title>
<polygon fill="#bfbfbf" stroke="#000000" points="2420.3574,-405.5 2420.3574,-423.5 2561.9873,-423.5 2561.9873,-405.5 2420.3574,-405.5"/>
<text text-anchor="middle" x="2491.1724" y="-411.5" font-family="Helvetica,sans-Serif" font-size="10.00" fill="#000000">src/Newton_Raphsonpp.cpp</text>
</g>
<!-- Node1 -->
<g id="node2" class="node">
<title>Node1</title>
<g id="a_node2"><a xlink:href="../../d7/d17/_newton___raphsonpp_8hpp.html" target="_top" xlink:title="Newton_Raphsonpp.hpp">
<polygon fill="#ffffff" stroke="#000000" points="2428.1309,-350.5 2428.1309,-368.5 2554.2139,-368.5 2554.2139,-350.5 2428.1309,-350.5"/>
<text text-anchor="middle" x="2491.1724" y="-356.5" font-family="Helvetica,sans-Serif" font-size="10.00" fill="#000000">Newton_Raphsonpp.hpp</text>
</a>
</g>
</g>
<!-- Node0&#45;&gt;Node1 -->
<g id="edge1" class="edge">
<title>Node0&#45;&gt;Node1</title>
<path fill="none" stroke="#191970" d="M2491.1724,-405.4179C2491.1724,-398.2164 2491.1724,-387.8962 2491.1724,-378.8632"/>
<polygon fill="#191970" stroke="#191970" points="2494.6725,-378.7794 2491.1724,-368.7795 2487.6725,-378.7795 2494.6725,-378.7794"/>
</g>
<!-- Node2 -->
<g id="node3" class="node">
<title>Node2</title>
<g id="a_node3"><a xlink:href="../../de/d9d/hyperelasticity__setup__pp_8hpp.html" target="_top" xlink:title="hyperelasticity_setup\l_pp.hpp">
<polygon fill="#ffffff" stroke="#000000" points="1852.4805,-285.5 1852.4805,-313.5 1961.8643,-313.5 1961.8643,-285.5 1852.4805,-285.5"/>
<text text-anchor="start" x="1860.4805" y="-301.5" font-family="Helvetica,sans-Serif" font-size="10.00" fill="#000000">hyperelasticity_setup</text>
<text text-anchor="middle" x="1907.1724" y="-291.5" font-family="Helvetica,sans-Serif" font-size="10.00" fill="#000000">_pp.hpp</text>
</a>
</g>
</g>
<!-- Node1&#45;&gt;Node2 -->
<g id="edge2" class="edge">
<title>Node1&#45;&gt;Node2</title>
<path fill="none" stroke="#191970" d="M2427.8601,-356.338C2330.4128,-350.924 2137.977,-338.0616 1976.1724,-314 1974.8784,-313.8076 1973.5721,-313.6059 1972.257,-313.3962"/>
<polygon fill="#191970" stroke="#191970" points="1972.501,-309.8871 1962.0536,-311.6479 1971.3188,-316.7865 1972.501,-309.8871"/>
</g>
<!-- Node3 -->
<g id="node4" class="node">
<title>Node3</title>
<g id="a_node4"><a xlink:href="../../d2/d8b/_finite___element___problem_8hpp.html" target="_top" xlink:title="Finite_Element_Problem.hpp">
<polygon fill="#ffffff" stroke="#000000" points="1845.6924,-170.5 1845.6924,-188.5 1990.6523,-188.5 1990.6523,-170.5 1845.6924,-170.5"/>
<text text-anchor="middle" x="1918.1724" y="-176.5" font-family="Helvetica,sans-Serif" font-size="10.00" fill="#000000">Finite_Element_Problem.hpp</text>
</a>
</g>
</g>
<!-- Node1&#45;&gt;Node3 -->
<g id="edge42" class="edge">
<title>Node1&#45;&gt;Node3</title>
<path fill="none" stroke="#191970" d="M2427.8798,-356.382C2306.3548,-349.9721 2049.2155,-334.2042 2014.1724,-314 1967.9291,-287.3384 1938.1939,-228.3831 1925.3983,-198.1606"/>
<polygon fill="#191970" stroke="#191970" points="1928.5884,-196.714 1921.5795,-188.7688 1922.104,-199.3507 1928.5884,-196.714"/>
</g>
<!-- Node30 -->
<g id="node31" class="node">
<title>Node30</title>
<polygon fill="#ffffff" stroke="#bfbfbf" points="3303.125,-.5 3303.125,-18.5 3401.2197,-18.5 3401.2197,-.5 3303.125,-.5"/>
<text text-anchor="middle" x="3352.1724" y="-6.5" font-family="Helvetica,sans-Serif" font-size="10.00" fill="#000000">Teuchos_RCP.hpp</text>
</g>
<!-- Node1&#45;&gt;Node30 -->
<g id="edge43" class="edge">
<title>Node1&#45;&gt;Node30</title>
<path fill="none" stroke="#191970" d="M2427.9831,-356.9854C2312.2349,-351.8084 2075.4131,-338.3526 2047.1724,-314 2021.2942,-291.6847 2028.1724,-273.671 2028.1724,-239.5 2028.1724,-239.5 2028.1724,-239.5 2028.1724,-119.5 2028.1724,18.7843 3109.4617,-33.7753 3292.7589,-18.8652"/>
<polygon fill="#191970" stroke="#191970" points="3293.2453,-22.3342 3302.8513,-17.8647 3292.5547,-15.3684 3293.2453,-22.3342"/>
</g>
<!-- Node39 -->
<g id="node40" class="node">
<title>Node39</title>
<polygon fill="#ffffff" stroke="#bfbfbf" points="2056.6626,-290.5 2056.6626,-308.5 2107.6821,-308.5 2107.6821,-290.5 2056.6626,-290.5"/>
<text text-anchor="middle" x="2082.1724" y="-296.5" font-family="Helvetica,sans-Serif" font-size="10.00" fill="#000000">Ifpack.h</text>
</g>
<!-- Node1&#45;&gt;Node39 -->
<g id="edge44" class="edge">
<title>Node1&#45;&gt;Node39</title>
<path fill="none" stroke="#191970" d="M2427.9908,-357.0388C2352.8318,-352.9203 2224.086,-342.0881 2117.1724,-314 2115.2163,-313.4861 2113.2251,-312.8864 2111.2355,-312.2291"/>
<polygon fill="#191970" stroke="#191970" points="2112.0632,-308.8024 2101.4704,-308.5907 2109.6191,-315.3619 2112.0632,-308.8024"/>
</g>
<!-- Node40 -->
<g id="node41" class="node">
<title>Node40</title>
<polygon fill="#ffffff" stroke="#bfbfbf" points="2125.9214,-290.5 2125.9214,-308.5 2256.4233,-308.5 2256.4233,-290.5 2125.9214,-290.5"/>
<text text-anchor="middle" x="2191.1724" y="-296.5" font-family="Helvetica,sans-Serif" font-size="10.00" fill="#000000">Ifpack_AdditiveSchwarz.h</text>
</g>
<!-- Node1&#45;&gt;Node40 -->
<g id="edge45" class="edge">
<title>Node1&#45;&gt;Node40</title>
<path fill="none" stroke="#191970" d="M2445.9345,-350.4524C2392.5067,-339.7669 2303.6614,-321.9978 2246.27,-310.5195"/>
<polygon fill="#191970" stroke="#191970" points="2246.7793,-307.0521 2236.287,-308.5229 2245.4064,-313.9162 2246.7793,-307.0521"/>
</g>
<!-- Node41 -->
<g id="node42" class="node">
<title>Node41</title>
<polygon fill="#ffffff" stroke="#bfbfbf" points="2274.4165,-290.5 2274.4165,-308.5 2399.9282,-308.5 2399.9282,-290.5 2274.4165,-290.5"/>
<text text-anchor="middle" x="2337.1724" y="-296.5" font-family="Helvetica,sans-Serif" font-size="10.00" fill="#000000">BelosLinearProblem.hpp</text>
</g>
<!-- Node1&#45;&gt;Node41 -->
<g id="edge46" class="edge">
<title>Node1&#45;&gt;Node41</title>
<path fill="none" stroke="#191970" d="M2467.7831,-350.3873C2441.6266,-340.1964 2399.085,-323.6218 2369.6967,-312.1718"/>
<polygon fill="#191970" stroke="#191970" points="2370.8656,-308.871 2360.2772,-308.5019 2368.3243,-315.3935 2370.8656,-308.871"/>
</g>
<!-- Node42 -->
<g id="node43" class="node">
<title>Node42</title>
<polygon fill="#ffffff" stroke="#bfbfbf" points="2418.1431,-290.5 2418.1431,-308.5 2564.2017,-308.5 2564.2017,-290.5 2418.1431,-290.5"/>
<text text-anchor="middle" x="2491.1724" y="-296.5" font-family="Helvetica,sans-Serif" font-size="10.00" fill="#000000">BelosBlockGmresSolMgr.hpp</text>
</g>
<!-- Node1&#45;&gt;Node42 -->
<g id="edge47" class="edge">
<title>Node1&#45;&gt;Node42</title>
<path fill="none" stroke="#191970" d="M2491.1724,-350.3873C2491.1724,-342.0174 2491.1724,-329.3414 2491.1724,-318.735"/>
<polygon fill="#191970" stroke="#191970" points="2494.6725,-318.6984 2491.1724,-308.6985 2487.6725,-318.6985 2494.6725,-318.6984"/>
</g>
<!-- Node43 -->
<g id="node44" class="node">
<title>Node43</title>
<polygon fill="#ffffff" stroke="#bfbfbf" points="2581.9634,-290.5 2581.9634,-308.5 2706.3813,-308.5 2706.3813,-290.5 2581.9634,-290.5"/>
<text text-anchor="middle" x="2644.1724" y="-296.5" font-family="Helvetica,sans-Serif" font-size="10.00" fill="#000000">BelosEpetraAdapter.hpp</text>
</g>
<!-- Node1&#45;&gt;Node43 -->
<g id="edge48" class="edge">
<title>Node1&#45;&gt;Node43</title>
<path fill="none" stroke="#191970" d="M2514.4098,-350.3873C2540.3964,-340.1964 2582.6617,-323.6218 2611.8592,-312.1718"/>
<polygon fill="#191970" stroke="#191970" points="2613.1857,-315.4112 2621.2176,-308.5019 2610.63,-308.8944 2613.1857,-315.4112"/>
</g>
<!-- Node44 -->
<g id="node45" class="node">
<title>Node44</title>
<polygon fill="#ffffff" stroke="#bfbfbf" points="2724.46,-290.5 2724.46,-308.5 2845.8848,-308.5 2845.8848,-290.5 2724.46,-290.5"/>
<text text-anchor="middle" x="2785.1724" y="-296.5" font-family="Helvetica,sans-Serif" font-size="10.00" fill="#000000">BelosSolverFactory.hpp</text>
</g>
<!-- Node1&#45;&gt;Node44 -->
<g id="edge49" class="edge">
<title>Node1&#45;&gt;Node44</title>
<path fill="none" stroke="#191970" d="M2535.8077,-350.4861C2581.0241,-341.3426 2652.9746,-326.7588 2715.1724,-314 2720.4913,-312.9089 2726.0367,-311.7673 2731.5758,-310.6242"/>
<polygon fill="#191970" stroke="#191970" points="2732.4042,-314.027 2741.4891,-308.5758 2730.9877,-307.1719 2732.4042,-314.027"/>
</g>
<!-- Node45 -->
<g id="node46" class="node">
<title>Node45</title>
<polygon fill="#ffffff" stroke="#bfbfbf" points="2864.291,-290.5 2864.291,-308.5 3042.0537,-308.5 3042.0537,-290.5 2864.291,-290.5"/>
<text text-anchor="middle" x="2953.1724" y="-296.5" font-family="Helvetica,sans-Serif" font-size="10.00" fill="#000000">Teuchos_StandardCatchMacros.hpp</text>
</g>
<!-- Node1&#45;&gt;Node45 -->
<g id="edge50" class="edge">
<title>Node1&#45;&gt;Node45</title>
<path fill="none" stroke="#191970" d="M2554.3567,-352.0399C2626.9997,-343.3614 2749.793,-328.3803 2855.1724,-314 2864.4052,-312.7401 2874.1195,-311.364 2883.698,-309.9773"/>
<polygon fill="#191970" stroke="#191970" points="2884.2143,-313.4391 2893.6047,-308.5328 2883.2043,-306.5124 2884.2143,-313.4391"/>
</g>
<!-- Node46 -->
<g id="node47" class="node">
<title>Node46</title>
<polygon fill="#ffffff" stroke="#bfbfbf" points="3059.9141,-290.5 3059.9141,-308.5 3200.4307,-308.5 3200.4307,-290.5 3059.9141,-290.5"/>
<text text-anchor="middle" x="3130.1724" y="-296.5" font-family="Helvetica,sans-Serif" font-size="10.00" fill="#000000">Teuchos_ParameterList.hpp</text>
</g>
<!-- Node1&#45;&gt;Node46 -->
<g id="edge51" class="edge">
<title>Node1&#45;&gt;Node46</title>
<path fill="none" stroke="#191970" d="M2554.3782,-356.4382C2658.338,-350.9377 2871.7882,-337.689 3051.1724,-314 3058.9486,-312.9731 3067.1216,-311.6974 3075.1416,-310.3318"/>
<polygon fill="#191970" stroke="#191970" points="3075.935,-313.7461 3085.1771,-308.566 3074.7219,-306.852 3075.935,-313.7461"/>
</g>
<!-- Node47 -->
<g id="node48" class="node">
<title>Node47</title>
<polygon fill="#ffffff" stroke="#bfbfbf" points="3218.3647,-285.5 3218.3647,-313.5 3359.98,-313.5 3359.98,-285.5 3218.3647,-285.5"/>
<text text-anchor="start" x="3226.3647" y="-301.5" font-family="Helvetica,sans-Serif" font-size="10.00" fill="#000000">Teuchos_XMLParameterList</text>
<text text-anchor="middle" x="3289.1724" y="-291.5" font-family="Helvetica,sans-Serif" font-size="10.00" fill="#000000">CoreHelpers.hpp</text>
</g>
<!-- Node1&#45;&gt;Node47 -->
<g id="edge52" class="edge">
<title>Node1&#45;&gt;Node47</title>
<path fill="none" stroke="#191970" d="M2554.3063,-357.9594C2677.8762,-354.4087 2960.4665,-343.6563 3207.8702,-314.0583"/>
<polygon fill="#191970" stroke="#191970" points="3208.63,-317.492 3218.1374,-312.8166 3207.7895,-310.5426 3208.63,-317.492"/>
</g>
<!-- Node48 -->
<g id="node49" class="node">
<title>Node48</title>
<polygon fill="#ffffff" stroke="#bfbfbf" points="3377.9238,-285.5 3377.9238,-313.5 3508.4209,-313.5 3508.4209,-285.5 3377.9238,-285.5"/>
<text text-anchor="start" x="3385.9238" y="-301.5" font-family="Helvetica,sans-Serif" font-size="10.00" fill="#000000">Stratimikos_DefaultLinear</text>
<text text-anchor="middle" x="3443.1724" y="-291.5" font-family="Helvetica,sans-Serif" font-size="10.00" fill="#000000">SolverBuilder.hpp</text>
</g>
<!-- Node1&#45;&gt;Node48 -->
<g id="edge53" class="edge">
<title>Node1&#45;&gt;Node48</title>
<path fill="none" stroke="#191970" d="M2554.3264,-357.3923C2724.7643,-351.522 3192.4928,-334.1613 3367.7615,-314.0209"/>
<polygon fill="#191970" stroke="#191970" points="3368.3677,-317.4735 3377.8829,-312.814 3367.5388,-310.5227 3368.3677,-317.4735"/>
</g>
<!-- Node2&#45;&gt;Node3 -->
<g id="edge3" class="edge">
<title>Node2&#45;&gt;Node3</title>
<path fill="none" stroke="#191970" d="M1908.4774,-285.2632C1910.4524,-263.7178 1914.2042,-222.7893 1916.4167,-198.6524"/>
<polygon fill="#191970" stroke="#191970" points="1919.9114,-198.8696 1917.3389,-188.5918 1912.9406,-198.2305 1919.9114,-198.8696"/>
</g>
<!-- Node37 -->
<g id="node38" class="node">
<title>Node37</title>
<g id="a_node38"><a xlink:href="../../d5/d3f/laplacepp_8hpp.html" target="_top" xlink:title="laplacepp.hpp">
<polygon fill="#ffffff" stroke="#000000" points="1766.0347,-230.5 1766.0347,-248.5 1844.3101,-248.5 1844.3101,-230.5 1766.0347,-230.5"/>
<text text-anchor="middle" x="1805.1724" y="-236.5" font-family="Helvetica,sans-Serif" font-size="10.00" fill="#000000">laplacepp.hpp</text>
</a>
</g>
</g>
<!-- Node2&#45;&gt;Node37 -->
<g id="edge39" class="edge">
<title>Node2&#45;&gt;Node37</title>
<path fill="none" stroke="#191970" d="M1883.2579,-285.4327C1867.1129,-275.9356 1845.8662,-263.4376 1829.6121,-253.8763"/>
<polygon fill="#191970" stroke="#191970" points="1831.0891,-250.6845 1820.6952,-248.6311 1827.5399,-256.7181 1831.0891,-250.6845"/>
</g>
<!-- Node4 -->
<g id="node5" class="node">
<title>Node4</title>
<g id="a_node5"><a xlink:href="../../d0/d02/meshpp_8hpp.html" target="_top" xlink:title="meshpp.hpp">
<polygon fill="#ffffff" stroke="#000000" points="1751.6528,-55.5 1751.6528,-73.5 1822.6919,-73.5 1822.6919,-55.5 1751.6528,-55.5"/>
<text text-anchor="middle" x="1787.1724" y="-61.5" font-family="Helvetica,sans-Serif" font-size="10.00" fill="#000000">meshpp.hpp</text>
</a>
</g>
</g>
<!-- Node3&#45;&gt;Node4 -->
<g id="edge4" class="edge">
<title>Node3&#45;&gt;Node4</title>
<path fill="none" stroke="#191970" d="M1909.501,-170.0819C1896.6433,-156.3087 1871.5223,-130.1246 1848.1724,-110 1835.7314,-99.2776 1820.989,-88.2396 1809.1139,-79.721"/>
<polygon fill="#191970" stroke="#191970" points="1810.8607,-76.6692 1800.6775,-73.7447 1806.8144,-82.3813 1810.8607,-76.6692"/>
</g>
<!-- Node36 -->
<g id="node37" class="node">
<title>Node36</title>
<g id="a_node37"><a xlink:href="../../d0/d41/_base_class_f_e_m_8hpp.html" target="_top" xlink:title="BaseClassFEM.hpp">
<polygon fill="#ffffff" stroke="#000000" points="1734.9878,-110.5 1734.9878,-128.5 1839.3569,-128.5 1839.3569,-110.5 1734.9878,-110.5"/>
<text text-anchor="middle" x="1787.1724" y="-116.5" font-family="Helvetica,sans-Serif" font-size="10.00" fill="#000000">BaseClassFEM.hpp</text>
</a>
</g>
</g>
<!-- Node3&#45;&gt;Node36 -->
<g id="edge37" class="edge">
<title>Node3&#45;&gt;Node36</title>
<path fill="none" stroke="#191970" d="M1898.2763,-170.3873C1876.4132,-160.3737 1841.0928,-144.1964 1816.1535,-132.7738"/>
<polygon fill="#191970" stroke="#191970" points="1817.3757,-129.484 1806.8265,-128.5019 1814.4607,-135.8482 1817.3757,-129.484"/>
</g>
<!-- Node5 -->
<g id="node6" class="node">
<title>Node5</title>
<polygon fill="#ffffff" stroke="#bfbfbf" points="3239.4409,-.5 3239.4409,-18.5 3284.9038,-18.5 3284.9038,-.5 3239.4409,-.5"/>
<text text-anchor="middle" x="3262.1724" y="-6.5" font-family="Helvetica,sans-Serif" font-size="10.00" fill="#000000">stdio.h</text>
</g>
<!-- Node4&#45;&gt;Node5 -->
<g id="edge5" class="edge">
<title>Node4&#45;&gt;Node5</title>
<path fill="none" stroke="#191970" d="M1822.9448,-62.8676C1867.6668,-60.858 1946.5687,-57.4152 2014.1724,-55 2281.0427,-45.4657 2946.7318,-61.4294 3228.9785,-18.6856"/>
<polygon fill="#191970" stroke="#191970" points="3229.9276,-22.0797 3239.2652,-17.0739 3228.844,-15.164 3229.9276,-22.0797"/>
</g>
<!-- Node6 -->
<g id="node7" class="node">
<title>Node6</title>
<polygon fill="#ffffff" stroke="#bfbfbf" points="0,-.5 0,-18.5 54.3447,-18.5 54.3447,-.5 0,-.5"/>
<text text-anchor="middle" x="27.1724" y="-6.5" font-family="Helvetica,sans-Serif" font-size="10.00" fill="#000000">iostream</text>
</g>
<!-- Node4&#45;&gt;Node6 -->
<g id="edge6" class="edge">
<title>Node4&#45;&gt;Node6</title>
<path fill="none" stroke="#191970" d="M1751.3853,-64.0387C1523.5856,-61.039 278.9283,-43.691 64.484,-18.5315"/>
<polygon fill="#191970" stroke="#191970" points="64.8785,-15.0535 54.514,-17.2506 63.9865,-21.9964 64.8785,-15.0535"/>
</g>
<!-- Node7 -->
<g id="node8" class="node">
<title>Node7</title>
<polygon fill="#ffffff" stroke="#bfbfbf" points="72.7808,-.5 72.7808,-18.5 121.564,-18.5 121.564,-.5 72.7808,-.5"/>
<text text-anchor="middle" x="97.1724" y="-6.5" font-family="Helvetica,sans-Serif" font-size="10.00" fill="#000000">istream</text>
</g>
<!-- Node4&#45;&gt;Node7 -->
<g id="edge7" class="edge">
<title>Node4&#45;&gt;Node7</title>
<path fill="none" stroke="#191970" d="M1751.2971,-64.0591C1528.6047,-61.2514 338.2003,-45.1894 131.9999,-18.7696"/>
<polygon fill="#191970" stroke="#191970" points="132.2791,-15.2744 121.8879,-17.3415 131.3002,-22.2056 132.2791,-15.2744"/>
</g>
<!-- Node8 -->
<g id="node9" class="node">
<title>Node8</title>
<polygon fill="#ffffff" stroke="#bfbfbf" points="139.5024,-.5 139.5024,-18.5 188.8423,-18.5 188.8423,-.5 139.5024,-.5"/>
<text text-anchor="middle" x="164.1724" y="-6.5" font-family="Helvetica,sans-Serif" font-size="10.00" fill="#000000">fstream</text>
</g>
<!-- Node4&#45;&gt;Node8 -->
<g id="edge8" class="edge">
<title>Node4&#45;&gt;Node8</title>
<path fill="none" stroke="#191970" d="M1751.3293,-64.0151C1534.156,-61.0067 397.4058,-44.2359 198.8819,-18.7537"/>
<polygon fill="#191970" stroke="#191970" points="199.2804,-15.2753 188.8884,-17.3383 198.2988,-22.2061 199.2804,-15.2753"/>
</g>
<!-- Node9 -->
<g id="node10" class="node">
<title>Node9</title>
<polygon fill="#ffffff" stroke="#bfbfbf" points="206.5566,-.5 206.5566,-18.5 249.7881,-18.5 249.7881,-.5 206.5566,-.5"/>
<text text-anchor="middle" x="228.1724" y="-6.5" font-family="Helvetica,sans-Serif" font-size="10.00" fill="#000000">vector</text>
</g>
<!-- Node4&#45;&gt;Node9 -->
<g id="edge9" class="edge">
<title>Node4&#45;&gt;Node9</title>
<path fill="none" stroke="#191970" d="M1751.3057,-64.0271C1539.2027,-61.1534 452.0752,-45.3239 260.1094,-18.7271"/>
<polygon fill="#191970" stroke="#191970" points="260.3704,-15.2262 249.9547,-17.166 259.3068,-22.1449 260.3704,-15.2262"/>
</g>
<!-- Node10 -->
<g id="node11" class="node">
<title>Node10</title>
<polygon fill="#ffffff" stroke="#bfbfbf" points="267.6626,-.5 267.6626,-18.5 318.6821,-18.5 318.6821,-.5 267.6626,-.5"/>
<text text-anchor="middle" x="293.1724" y="-6.5" font-family="Helvetica,sans-Serif" font-size="10.00" fill="#000000">iomanip</text>
</g>
<!-- Node4&#45;&gt;Node10 -->
<g id="edge10" class="edge">
<title>Node4&#45;&gt;Node10</title>
<path fill="none" stroke="#191970" d="M1751.6109,-63.889C1546.1711,-60.2944 514.2066,-41.3349 329.0654,-18.6029"/>
<polygon fill="#191970" stroke="#191970" points="329.4024,-15.1167 319.0225,-17.24 328.461,-22.0531 329.4024,-15.1167"/>
</g>
<!-- Node11 -->
<g id="node12" class="node">
<title>Node11</title>
<polygon fill="#ffffff" stroke="#bfbfbf" points="336.7119,-.5 336.7119,-18.5 441.6328,-18.5 441.6328,-.5 336.7119,-.5"/>
<text text-anchor="middle" x="389.1724" y="-6.5" font-family="Helvetica,sans-Serif" font-size="10.00" fill="#000000">Epetra_MpiComm.h</text>
</g>
<!-- Node4&#45;&gt;Node11 -->
<g id="edge11" class="edge">
<title>Node4&#45;&gt;Node11</title>
<path fill="none" stroke="#191970" d="M1751.541,-63.8694C1568.7444,-60.5469 734.2017,-44.2957 451.9049,-19.0316"/>
<polygon fill="#191970" stroke="#191970" points="451.9734,-15.5231 441.6944,-18.0908 451.3311,-22.4936 451.9734,-15.5231"/>
</g>
<!-- Node12 -->
<g id="node13" class="node">
<title>Node12</title>
<polygon fill="#ffffff" stroke="#bfbfbf" points="459.4287,-.5 459.4287,-18.5 574.916,-18.5 574.916,-.5 459.4287,-.5"/>
<text text-anchor="middle" x="517.1724" y="-6.5" font-family="Helvetica,sans-Serif" font-size="10.00" fill="#000000">Epetra_FECrsGraph.h</text>
</g>
<!-- Node4&#45;&gt;Node12 -->
<g id="edge12" class="edge">
<title>Node4&#45;&gt;Node12</title>
<path fill="none" stroke="#191970" d="M1751.4623,-63.6469C1580.0861,-59.478 840.1569,-40.6066 585.5401,-19.0057"/>
<polygon fill="#191970" stroke="#191970" points="585.5011,-15.4891 575.2346,-18.1059 584.8922,-22.4625 585.5011,-15.4891"/>
</g>
<!-- Node13 -->
<g id="node14" class="node">
<title>Node13</title>
<polygon fill="#ffffff" stroke="#bfbfbf" points="592.7144,-.5 592.7144,-18.5 707.6304,-18.5 707.6304,-.5 592.7144,-.5"/>
<text text-anchor="middle" x="650.1724" y="-6.5" font-family="Helvetica,sans-Serif" font-size="10.00" fill="#000000">Epetra_FECrsMatrix.h</text>
</g>
<!-- Node4&#45;&gt;Node13 -->
<g id="edge13" class="edge">
<title>Node4&#45;&gt;Node13</title>
<path fill="none" stroke="#191970" d="M1751.4913,-64.2841C1617.2261,-63.1987 1129.4757,-56.7922 717.742,-19.0571"/>
<polygon fill="#191970" stroke="#191970" points="718.0045,-15.5666 707.7248,-18.1314 717.3603,-22.5369 718.0045,-15.5666"/>
</g>
<!-- Node14 -->
<g id="node15" class="node">
<title>Node14</title>
<polygon fill="#ffffff" stroke="#bfbfbf" points="725.1973,-.5 725.1973,-18.5 825.1475,-18.5 825.1475,-.5 725.1973,-.5"/>
<text text-anchor="middle" x="775.1724" y="-6.5" font-family="Helvetica,sans-Serif" font-size="10.00" fill="#000000">Epetra_FEVector.h</text>
</g>
<!-- Node4&#45;&gt;Node14 -->
<g id="edge14" class="edge">
<title>Node4&#45;&gt;Node14</title>
<path fill="none" stroke="#191970" d="M1751.5835,-64.2353C1627.0083,-63.0066 1198.9014,-56.2403 835.5245,-19.0221"/>
<polygon fill="#191970" stroke="#191970" points="835.6405,-15.5155 825.3336,-17.9685 834.9206,-22.4784 835.6405,-15.5155"/>
</g>
<!-- Node15 -->
<g id="node16" class="node">
<title>Node15</title>
<polygon fill="#ffffff" stroke="#bfbfbf" points="843.5864,-.5 843.5864,-18.5 930.7583,-18.5 930.7583,-.5 843.5864,-.5"/>
<text text-anchor="middle" x="887.1724" y="-6.5" font-family="Helvetica,sans-Serif" font-size="10.00" fill="#000000">Epetra_Vector.h</text>
</g>
<!-- Node4&#45;&gt;Node15 -->
<g id="edge15" class="edge">
<title>Node4&#45;&gt;Node15</title>
<path fill="none" stroke="#191970" d="M1751.5358,-64.1607C1635.9616,-62.728 1261.0069,-55.4731 940.7185,-18.9038"/>
<polygon fill="#191970" stroke="#191970" points="941.1169,-15.4266 930.7817,-17.7577 940.3148,-22.3805 941.1169,-15.4266"/>
</g>
<!-- Node16 -->
<g id="node17" class="node">
<title>Node16</title>
<polygon fill="#ffffff" stroke="#bfbfbf" points="948.7637,-.5 948.7637,-18.5 1027.5811,-18.5 1027.5811,-.5 948.7637,-.5"/>
<text text-anchor="middle" x="988.1724" y="-6.5" font-family="Helvetica,sans-Serif" font-size="10.00" fill="#000000">Epetra_Map.h</text>
</g>
<!-- Node4&#45;&gt;Node16 -->
<g id="edge16" class="edge">
<title>Node4&#45;&gt;Node16</title>
<path fill="none" stroke="#191970" d="M1751.4394,-64.0428C1644.5132,-62.3135 1317.6365,-54.3989 1037.5974,-19.0229"/>
<polygon fill="#191970" stroke="#191970" points="1038.0187,-15.5483 1027.6558,-17.7528 1037.1316,-22.4919 1038.0187,-15.5483"/>
</g>
<!-- Node17 -->
<g id="node18" class="node">
<title>Node17</title>
<polygon fill="#ffffff" stroke="#bfbfbf" points="1045.6431,-.5 1045.6431,-18.5 1186.7017,-18.5 1186.7017,-.5 1045.6431,-.5"/>
<text text-anchor="middle" x="1116.1724" y="-6.5" font-family="Helvetica,sans-Serif" font-size="10.00" fill="#000000">Epetra_SerialDenseMatrix.h</text>
</g>
<!-- Node4&#45;&gt;Node17 -->
<g id="edge17" class="edge">
<title>Node4&#45;&gt;Node17</title>
<path fill="none" stroke="#191970" d="M1751.4244,-62.29C1660.5967,-56.5599 1413.3633,-40.2456 1196.7561,-19.1219"/>
<polygon fill="#191970" stroke="#191970" points="1197.085,-15.6375 1186.7911,-18.1446 1196.4017,-22.604 1197.085,-15.6375"/>
</g>
<!-- Node18 -->
<g id="node19" class="node">
<title>Node18</title>
<polygon fill="#ffffff" stroke="#bfbfbf" points="1204.3501,-.5 1204.3501,-18.5 1345.9946,-18.5 1345.9946,-.5 1204.3501,-.5"/>
<text text-anchor="middle" x="1275.1724" y="-6.5" font-family="Helvetica,sans-Serif" font-size="10.00" fill="#000000">Epetra_SerialDenseVector.h</text>
</g>
<!-- Node4&#45;&gt;Node18 -->
<g id="edge18" class="edge">
<title>Node4&#45;&gt;Node18</title>
<path fill="none" stroke="#191970" d="M1751.5949,-60.9141C1679.2939,-53.5919 1509.746,-36.2444 1356.3463,-19.1196"/>
<polygon fill="#191970" stroke="#191970" points="1356.5939,-15.6255 1346.2667,-17.992 1355.8156,-22.5821 1356.5939,-15.6255"/>
</g>
<!-- Node19 -->
<g id="node20" class="node">
<title>Node19</title>
<polygon fill="#ffffff" stroke="#bfbfbf" points="1363.791,-.5 1363.791,-18.5 1516.5537,-18.5 1516.5537,-.5 1363.791,-.5"/>
<text text-anchor="middle" x="1440.1724" y="-6.5" font-family="Helvetica,sans-Serif" font-size="10.00" fill="#000000">Epetra_IntSerialDenseVector.h</text>
</g>
<!-- Node4&#45;&gt;Node19 -->
<g id="edge19" class="edge">
<title>Node4&#45;&gt;Node19</title>
<path fill="none" stroke="#191970" d="M1751.3442,-58.8212C1693.8742,-49.7121 1580.159,-31.6881 1507.2658,-20.1344"/>
<polygon fill="#191970" stroke="#191970" points="1507.6859,-16.6574 1497.2613,-18.5487 1506.59,-23.5711 1507.6859,-16.6574"/>
</g>
<!-- Node20 -->
<g id="node21" class="node">
<title>Node20</title>
<polygon fill="#ffffff" stroke="#bfbfbf" points="1534.3203,-.5 1534.3203,-18.5 1622.0244,-18.5 1622.0244,-.5 1534.3203,-.5"/>
<text text-anchor="middle" x="1578.1724" y="-6.5" font-family="Helvetica,sans-Serif" font-size="10.00" fill="#000000">Epetra_Import.h</text>
</g>
<!-- Node4&#45;&gt;Node20 -->
<g id="edge20" class="edge">
<title>Node4&#45;&gt;Node20</title>
<path fill="none" stroke="#191970" d="M1752.6603,-55.4179C1717.0061,-46.0352 1661.235,-31.3586 1622.3747,-21.1322"/>
<polygon fill="#191970" stroke="#191970" points="1622.9499,-17.6645 1612.3884,-18.5042 1621.1684,-24.434 1622.9499,-17.6645"/>
</g>
<!-- Node21 -->
<g id="node22" class="node">
<title>Node21</title>
<polygon fill="#ffffff" stroke="#bfbfbf" points="1640.0396,-.5 1640.0396,-18.5 1728.3052,-18.5 1728.3052,-.5 1640.0396,-.5"/>
<text text-anchor="middle" x="1684.1724" y="-6.5" font-family="Helvetica,sans-Serif" font-size="10.00" fill="#000000">Epetra_Export.h</text>
</g>
<!-- Node4&#45;&gt;Node21 -->
<g id="edge21" class="edge">
<title>Node4&#45;&gt;Node21</title>
<path fill="none" stroke="#191970" d="M1770.164,-55.4179C1753.838,-46.7001 1728.9534,-33.4122 1710.1469,-23.3699"/>
<polygon fill="#191970" stroke="#191970" points="1711.6758,-20.2186 1701.206,-18.5956 1708.3785,-26.3934 1711.6758,-20.2186"/>
</g>
<!-- Node22 -->
<g id="node23" class="node">
<title>Node22</title>
<polygon fill="#ffffff" stroke="#bfbfbf" points="1746.5625,-.5 1746.5625,-18.5 1827.7822,-18.5 1827.7822,-.5 1746.5625,-.5"/>
<text text-anchor="middle" x="1787.1724" y="-6.5" font-family="Helvetica,sans-Serif" font-size="10.00" fill="#000000">Epetra_Time.h</text>
</g>
<!-- Node4&#45;&gt;Node22 -->
<g id="edge22" class="edge">
<title>Node4&#45;&gt;Node22</title>
<path fill="none" stroke="#191970" d="M1787.1724,-55.4179C1787.1724,-48.2164 1787.1724,-37.8962 1787.1724,-28.8632"/>
<polygon fill="#191970" stroke="#191970" points="1790.6725,-28.7794 1787.1724,-18.7795 1783.6725,-28.7795 1790.6725,-28.7794"/>
</g>
<!-- Node23 -->
<g id="node24" class="node">
<title>Node23</title>
<polygon fill="#ffffff" stroke="#bfbfbf" points="1845.4683,-.5 1845.4683,-18.5 1994.8765,-18.5 1994.8765,-.5 1845.4683,-.5"/>
<text text-anchor="middle" x="1920.1724" y="-6.5" font-family="Helvetica,sans-Serif" font-size="10.00" fill="#000000">ml_MultiLevelPreconditioner.h</text>
</g>
<!-- Node4&#45;&gt;Node23 -->
<g id="edge23" class="edge">
<title>Node4&#45;&gt;Node23</title>
<path fill="none" stroke="#191970" d="M1809.1346,-55.4179C1830.8895,-46.4215 1864.4138,-32.5581 1888.9363,-22.4172"/>
<polygon fill="#191970" stroke="#191970" points="1890.274,-25.6515 1898.1775,-18.5956 1887.5989,-19.1828 1890.274,-25.6515"/>
</g>
<!-- Node24 -->
<g id="node25" class="node">
<title>Node24</title>
<polygon fill="#ffffff" stroke="#bfbfbf" points="2013.0962,-.5 2013.0962,-18.5 2105.2485,-18.5 2105.2485,-.5 2013.0962,-.5"/>
<text text-anchor="middle" x="2059.1724" y="-6.5" font-family="Helvetica,sans-Serif" font-size="10.00" fill="#000000">ml_epetra_utils.h</text>
</g>
<!-- Node4&#45;&gt;Node24 -->
<g id="edge24" class="edge">
<title>Node4&#45;&gt;Node24</title>
<path fill="none" stroke="#191970" d="M1822.7316,-57.3097C1868.9983,-47.9543 1950.3055,-31.5135 2004.4563,-20.5639"/>
<polygon fill="#191970" stroke="#191970" points="2005.4633,-23.9312 2014.5712,-18.5186 2004.0758,-17.0701 2005.4633,-23.9312"/>
</g>
<!-- Node25 -->
<g id="node26" class="node">
<title>Node25</title>
<polygon fill="#ffffff" stroke="#bfbfbf" points="2123.1011,-.5 2123.1011,-18.5 2195.2437,-18.5 2195.2437,-.5 2123.1011,-.5"/>
<text text-anchor="middle" x="2159.1724" y="-6.5" font-family="Helvetica,sans-Serif" font-size="10.00" fill="#000000">ml_include.h</text>
</g>
<!-- Node4&#45;&gt;Node25 -->
<g id="edge25" class="edge">
<title>Node4&#45;&gt;Node25</title>
<path fill="none" stroke="#191970" d="M1823.1068,-60.3326C1881.6801,-53.3591 2001.58,-38.332 2112.8188,-19.1409"/>
<polygon fill="#191970" stroke="#191970" points="2113.6136,-22.5552 2122.8652,-17.392 2112.413,-15.659 2113.6136,-22.5552"/>
</g>
<!-- Node26 -->
<g id="node27" class="node">
<title>Node26</title>
<polygon fill="#ffffff" stroke="#bfbfbf" points="2213.5938,-.5 2213.5938,-18.5 2350.751,-18.5 2350.751,-.5 2213.5938,-.5"/>
<text text-anchor="middle" x="2282.1724" y="-6.5" font-family="Helvetica,sans-Serif" font-size="10.00" fill="#000000">EpetraExt_RowMatrixOut.h</text>
</g>
<!-- Node4&#45;&gt;Node26 -->
<g id="edge26" class="edge">
<title>Node4&#45;&gt;Node26</title>
<path fill="none" stroke="#191970" d="M1822.8888,-60.7551C1893.373,-53.332 2055.5964,-36.0845 2203.1294,-19.1085"/>
<polygon fill="#191970" stroke="#191970" points="2203.7411,-22.5612 2213.2744,-17.9388 2202.9393,-15.6073 2203.7411,-22.5612"/>
</g>
<!-- Node27 -->
<g id="node28" class="node">
<title>Node27</title>
<polygon fill="#ffffff" stroke="#bfbfbf" points="2368.4731,-.5 2368.4731,-18.5 2507.8716,-18.5 2507.8716,-.5 2368.4731,-.5"/>
<text text-anchor="middle" x="2438.1724" y="-6.5" font-family="Helvetica,sans-Serif" font-size="10.00" fill="#000000">EpetraExt_MultiVectorOut.h</text>
</g>
<!-- Node4&#45;&gt;Node27 -->
<g id="edge27" class="edge">
<title>Node4&#45;&gt;Node27</title>
<path fill="none" stroke="#191970" d="M1822.7579,-62.1957C1911.3782,-56.3456 2149.2885,-39.9576 2358.207,-19.1643"/>
<polygon fill="#191970" stroke="#191970" points="2358.8458,-22.6179 2368.4474,-18.1391 2358.1485,-15.6527 2358.8458,-22.6179"/>
</g>
<!-- Node28 -->
<g id="node29" class="node">
<title>Node28</title>
<polygon fill="#ffffff" stroke="#bfbfbf" points="2525.9189,-.5 2525.9189,-18.5 2636.4258,-18.5 2636.4258,-.5 2525.9189,-.5"/>
<text text-anchor="middle" x="2581.1724" y="-6.5" font-family="Helvetica,sans-Serif" font-size="10.00" fill="#000000">EpetraExt_VectorIn.h</text>
</g>
<!-- Node4&#45;&gt;Node28 -->
<g id="edge28" class="edge">
<title>Node4&#45;&gt;Node28</title>
<path fill="none" stroke="#191970" d="M1822.8572,-62.68C1947.0605,-56.2834 2360.8278,-34.4416 2515.464,-19.0769"/>
<polygon fill="#191970" stroke="#191970" points="2516.1146,-22.5287 2525.7061,-18.0283 2515.4016,-15.5651 2516.1146,-22.5287"/>
</g>
<!-- Node29 -->
<g id="node30" class="node">
<title>Node29</title>
<polygon fill="#ffffff" stroke="#bfbfbf" points="2654.3623,-.5 2654.3623,-18.5 2785.9824,-18.5 2785.9824,-.5 2654.3623,-.5"/>
<text text-anchor="middle" x="2720.1724" y="-6.5" font-family="Helvetica,sans-Serif" font-size="10.00" fill="#000000">EpetraExt_MultiVectorIn.h</text>
</g>
<!-- Node4&#45;&gt;Node29 -->
<g id="edge29" class="edge">
<title>Node4&#45;&gt;Node29</title>
<path fill="none" stroke="#191970" d="M1823.1242,-62.9447C1961.7589,-56.894 2462.496,-34.532 2644.3823,-18.9875"/>
<polygon fill="#191970" stroke="#191970" points="2644.6957,-22.4735 2654.3517,-18.1133 2644.0842,-15.5003 2644.6957,-22.4735"/>
</g>
<!-- Node4&#45;&gt;Node30 -->
<g id="edge30" class="edge">
<title>Node4&#45;&gt;Node30</title>
<path fill="none" stroke="#191970" d="M1822.9442,-62.8513C1867.6657,-60.825 1946.5669,-57.3652 2014.1724,-55 2579.6056,-35.2178 2725.9271,-72.6739 3292.8026,-18.9961"/>
<polygon fill="#191970" stroke="#191970" points="3293.2468,-22.4697 3302.87,-18.0374 3292.5832,-15.5012 3293.2468,-22.4697"/>
</g>
<!-- Node31 -->
<g id="node32" class="node">
<title>Node31</title>
<polygon fill="#ffffff" stroke="#bfbfbf" points="2803.9409,-.5 2803.9409,-18.5 2864.4038,-18.5 2864.4038,-.5 2803.9409,-.5"/>
<text text-anchor="middle" x="2834.1724" y="-6.5" font-family="Helvetica,sans-Serif" font-size="10.00" fill="#000000">Amesos.h</text>
</g>
<!-- Node4&#45;&gt;Node31 -->
<g id="edge31" class="edge">
<title>Node4&#45;&gt;Node31</title>
<path fill="none" stroke="#191970" d="M1822.9723,-62.979C1990.9676,-55.8302 2696.7322,-25.6693 2793.6651,-18.4571"/>
<polygon fill="#191970" stroke="#191970" points="2793.9905,-21.942 2803.6248,-17.534 2793.3444,-14.9719 2793.9905,-21.942"/>
</g>
<!-- Node32 -->
<g id="node33" class="node">
<title>Node32</title>
<polygon fill="#ffffff" stroke="#bfbfbf" points="2882.7192,-.5 2882.7192,-18.5 2947.6255,-18.5 2947.6255,-.5 2882.7192,-.5"/>
<text text-anchor="middle" x="2915.1724" y="-6.5" font-family="Helvetica,sans-Serif" font-size="10.00" fill="#000000">AztecOO.h</text>
</g>
<!-- Node4&#45;&gt;Node32 -->
<g id="edge32" class="edge">
<title>Node4&#45;&gt;Node32</title>
<path fill="none" stroke="#191970" d="M1822.9962,-62.9991C1999.7943,-55.5918 2774.4289,-23.137 2872.5633,-18.0655"/>
<polygon fill="#191970" stroke="#191970" points="2872.9482,-21.5487 2882.7178,-17.4494 2872.5242,-14.5615 2872.9482,-21.5487"/>
</g>
<!-- Node33 -->
<g id="node34" class="node">
<title>Node33</title>
<polygon fill="#ffffff" stroke="#bfbfbf" points="2965.8647,-.5 2965.8647,-18.5 3082.48,-18.5 3082.48,-.5 2965.8647,-.5"/>
<text text-anchor="middle" x="3024.1724" y="-6.5" font-family="Helvetica,sans-Serif" font-size="10.00" fill="#000000">Amesos_BaseSolver.h</text>
</g>
<!-- Node4&#45;&gt;Node33 -->
<g id="edge33" class="edge">
<title>Node4&#45;&gt;Node33</title>
<path fill="none" stroke="#191970" d="M1822.9484,-62.9626C1867.6741,-61.0499 1946.5797,-57.706 2014.1724,-55 2429.4365,-38.3756 2537.1111,-55.7474 2955.357,-18.9695"/>
<polygon fill="#191970" stroke="#191970" points="2955.9571,-22.4301 2965.6098,-18.0626 2955.3403,-15.4574 2955.9571,-22.4301"/>
</g>
<!-- Node34 -->
<g id="node35" class="node">
<title>Node34</title>
<polygon fill="#ffffff" stroke="#bfbfbf" points="3100.0566,-.5 3100.0566,-18.5 3148.2881,-18.5 3148.2881,-.5 3100.0566,-.5"/>
<text text-anchor="middle" x="3124.1724" y="-6.5" font-family="Helvetica,sans-Serif" font-size="10.00" fill="#000000">metis.h</text>
</g>
<!-- Node4&#45;&gt;Node34 -->
<g id="edge34" class="edge">
<title>Node4&#45;&gt;Node34</title>
<path fill="none" stroke="#191970" d="M1822.9464,-62.9098C1867.6699,-60.9432 1946.5734,-57.5443 2014.1724,-55 2250.1983,-46.1166 2838.2745,-56.127 3089.5621,-18.8169"/>
<polygon fill="#191970" stroke="#191970" points="3090.4649,-22.2192 3099.8157,-17.238 3089.3995,-15.3008 3090.4649,-22.2192"/>
</g>
<!-- Node35 -->
<g id="node36" class="node">
<title>Node35</title>
<g id="a_node36"><a xlink:href="../../d4/dbc/fepp_8hpp.html" target="_top" xlink:title="fepp.hpp">
<polygon fill="#ffffff" stroke="#000000" points="3166.7095,-.5 3166.7095,-18.5 3221.6353,-18.5 3221.6353,-.5 3166.7095,-.5"/>
<text text-anchor="middle" x="3194.1724" y="-6.5" font-family="Helvetica,sans-Serif" font-size="10.00" fill="#000000">fepp.hpp</text>
</a>
</g>
</g>
<!-- Node4&#45;&gt;Node35 -->
<g id="edge35" class="edge">
<title>Node4&#45;&gt;Node35</title>
<path fill="none" stroke="#191970" d="M1822.7673,-62.6011C1866.0049,-60.583 1940.7244,-57.3634 2005.1724,-55 2259.1276,-45.6869 2896.5829,-54.8155 3148.1724,-19 3150.9423,-18.6057 3153.8041,-18.0833 3156.6926,-17.4859"/>
<polygon fill="#191970" stroke="#191970" points="3157.551,-20.88 3166.5211,-15.242 3155.9929,-14.0556 3157.551,-20.88"/>
</g>
<!-- Node35&#45;&gt;Node4 -->
<g id="edge36" class="edge">
<title>Node35&#45;&gt;Node4</title>
<path fill="none" stroke="#191970" d="M3168.955,-18.5671C3168.0209,-18.7242 3167.0916,-18.8691 3166.1724,-19 2914.5829,-54.8155 2277.1276,-45.6869 2023.1724,-55 1957.2543,-57.4174 1880.5908,-60.7304 1832.8406,-62.7373"/>
<polygon fill="#191970" stroke="#191970" points="1832.657,-59.2418 1822.8122,-63.1571 1832.9499,-66.2357 1832.657,-59.2418"/>
</g>
<!-- Node36&#45;&gt;Node4 -->
<g id="edge38" class="edge">
<title>Node36&#45;&gt;Node4</title>
<path fill="none" stroke="#191970" d="M1787.1724,-110.4179C1787.1724,-103.2164 1787.1724,-92.8962 1787.1724,-83.8632"/>
<polygon fill="#191970" stroke="#191970" points="1790.6725,-83.7794 1787.1724,-73.7795 1783.6725,-83.7795 1790.6725,-83.7794"/>
</g>
<!-- Node38 -->
<g id="node39" class="node">
<title>Node38</title>
<g id="a_node39"><a xlink:href="../../d9/dea/_linear___finite___element___problem_8hpp.html" target="_top" xlink:title="Linear_Finite_Element\l_Problem.hpp">
<polygon fill="#ffffff" stroke="#000000" points="1711.1431,-165.5 1711.1431,-193.5 1827.2017,-193.5 1827.2017,-165.5 1711.1431,-165.5"/>
<text text-anchor="start" x="1719.1431" y="-181.5" font-family="Helvetica,sans-Serif" font-size="10.00" fill="#000000">Linear_Finite_Element</text>
<text text-anchor="middle" x="1769.1724" y="-171.5" font-family="Helvetica,sans-Serif" font-size="10.00" fill="#000000">_Problem.hpp</text>
</a>
</g>
</g>
<!-- Node37&#45;&gt;Node38 -->
<g id="edge40" class="edge">
<title>Node37&#45;&gt;Node38</title>
<path fill="none" stroke="#191970" d="M1799.7047,-230.3873C1795.2926,-223.0337 1788.886,-212.3561 1783.0795,-202.6786"/>
<polygon fill="#191970" stroke="#191970" points="1785.9272,-200.6219 1777.781,-193.8477 1779.9247,-204.2234 1785.9272,-200.6219"/>
</g>
<!-- Node38&#45;&gt;Node36 -->
<g id="edge41" class="edge">
<title>Node38&#45;&gt;Node36</title>
<path fill="none" stroke="#191970" d="M1773.4381,-165.2808C1775.8624,-157.2 1778.9273,-146.9836 1781.5464,-138.2531"/>
<polygon fill="#191970" stroke="#191970" points="1784.926,-139.1682 1784.4471,-128.5842 1778.2212,-137.1567 1784.926,-139.1682"/>
</g>
</g>
</svg>
