<?xml version="1.0" encoding="UTF-8" standalone="no"?>
<!DOCTYPE svg PUBLIC "-//W3C//DTD SVG 1.1//EN"
 "http://www.w3.org/Graphics/SVG/1.1/DTD/svg11.dtd">
<!-- Generated by graphviz version 2.40.1 (20161225.0304)
 -->
<!-- Title: DirichletStripElongation_PolyconvexHGO Pages: 1 -->
<svg width="133pt" height="147pt"
 viewBox="0.00 0.00 133.50 147.00" xmlns="http://www.w3.org/2000/svg" xmlns:xlink="http://www.w3.org/1999/xlink">
<g id="graph0" class="graph" transform="scale(1 1) rotate(0) translate(4 143)">
<title>DirichletStripElongation_PolyconvexHGO</title>
<polygon fill="#ffffff" stroke="transparent" points="-4,4 -4,-143 129.4971,-143 129.4971,4 -4,4"/>
<!-- Node0 -->
<g id="node1" class="node">
<title>Node0</title>
<polygon fill="#bfbfbf" stroke="#000000" points="2.7783,-.5 2.7783,-28.5 122.7188,-28.5 122.7188,-.5 2.7783,-.5"/>
<text text-anchor="start" x="10.7783" y="-16.5" font-family="Helvetica,sans-Serif" font-size="10.00" fill="#000000">DirichletStripElongation</text>
<text text-anchor="middle" x="62.7485" y="-6.5" font-family="Helvetica,sans-Serif" font-size="10.00" fill="#000000">_PolyconvexHGO</text>
</g>
<!-- Node1 -->
<g id="node2" class="node">
<title>Node1</title>
<g id="a_node2"><a xlink:href="../../d8/daf/classhyperelasticity__setup.html" target="_top" xlink:title="hyperelasticity_setup">
<polygon fill="#ffffff" stroke="#000000" points="8.0566,-65.5 8.0566,-83.5 117.4404,-83.5 117.4404,-65.5 8.0566,-65.5"/>
<text text-anchor="middle" x="62.7485" y="-71.5" font-family="Helvetica,sans-Serif" font-size="10.00" fill="#000000">hyperelasticity_setup</text>
</a>
</g>
</g>
<!-- Node1&#45;&gt;Node0 -->
<g id="edge1" class="edge">
<title>Node1&#45;&gt;Node0</title>
<path fill="none" stroke="#191970" d="M62.7485,-55.1865C62.7485,-46.6283 62.7485,-36.7354 62.7485,-28.8477"/>
<polygon fill="#191970" stroke="#191970" points="59.2486,-55.3873 62.7485,-65.3873 66.2486,-55.3873 59.2486,-55.3873"/>
</g>
<!-- Node2 -->
<g id="node3" class="node">
<title>Node2</title>
<g id="a_node3"><a xlink:href="../../d8/dc2/class_finite___element___problem.html" target="_top" xlink:title="Finite_Element_Problem">
<polygon fill="#ffffff" stroke="#000000" points="0,-120.5 0,-138.5 125.4971,-138.5 125.4971,-120.5 0,-120.5"/>
<text text-anchor="middle" x="62.7485" y="-126.5" font-family="Helvetica,sans-Serif" font-size="10.00" fill="#000000">Finite_Element_Problem</text>
</a>
</g>
</g>
<!-- Node2&#45;&gt;Node1 -->
<g id="edge2" class="edge">
<title>Node2&#45;&gt;Node1</title>
<path fill="none" stroke="#191970" d="M62.7485,-110.383C62.7485,-101.3738 62.7485,-91.0373 62.7485,-83.7795"/>
<polygon fill="#191970" stroke="#191970" points="59.2486,-110.4178 62.7485,-120.4179 66.2486,-110.4179 59.2486,-110.4178"/>
</g>
</g>
</svg>
