<?xml version="1.0" encoding="UTF-8" standalone="no"?>
<!DOCTYPE svg PUBLIC "-//W3C//DTD SVG 1.1//EN"
 "http://www.w3.org/Graphics/SVG/1.1/DTD/svg11.dtd">
<!-- Generated by graphviz version 2.40.1 (20161225.0304)
 -->
<!-- Title: NeumannInnerSurface_StochasticPolyconvexHGO Pages: 1 -->
<svg width="322pt" height="353pt"
 viewBox="0.00 0.00 322.00 353.00" xmlns="http://www.w3.org/2000/svg" xmlns:xlink="http://www.w3.org/1999/xlink">
<g id="graph0" class="graph" transform="scale(1 1) rotate(0) translate(4 349)">
<title>NeumannInnerSurface_StochasticPolyconvexHGO</title>
<polygon fill="#ffffff" stroke="transparent" points="-4,4 -4,-349 318,-349 318,4 -4,4"/>
<!-- Node5 -->
<g id="node1" class="node">
<title>Node5</title>
<polygon fill="#bfbfbf" stroke="#000000" points="109.5,-.5 109.5,-30.5 251.5,-30.5 251.5,-.5 109.5,-.5"/>
<text text-anchor="start" x="117.5" y="-18.5" font-family="Helvetica,sans-Serif" font-size="10.00" fill="#000000">NeumannInnerSurface</text>
<text text-anchor="middle" x="180.5" y="-7.5" font-family="Helvetica,sans-Serif" font-size="10.00" fill="#000000">_StochasticPolyconvexHGO</text>
</g>
<!-- Node6 -->
<g id="node2" class="node">
<title>Node6</title>
<g id="a_node2"><a xlink:href="../../d0/d85/classnearly_incompressible_hyperelasticity.html" target="_top" xlink:title="nearlyIncompressibleHyperelasticity">
<polygon fill="#ffffff" stroke="#000000" points="31.5,-68.5 31.5,-87.5 205.5,-87.5 205.5,-68.5 31.5,-68.5"/>
<text text-anchor="middle" x="118.5" y="-75.5" font-family="Helvetica,sans-Serif" font-size="10.00" fill="#000000">nearlyIncompressibleHyperelasticity</text>
</a>
</g>
</g>
<!-- Node6&#45;&gt;Node5 -->
<g id="edge1" class="edge">
<title>Node6&#45;&gt;Node5</title>
<path fill="none" stroke="#191970" d="M135.4264,-60.9371C144.7716,-51.5165 156.2829,-39.9124 165.3331,-30.7892"/>
<polygon fill="#191970" stroke="#191970" points="132.7453,-58.67 128.1875,-68.2344 137.7149,-63.5999 132.7453,-58.67"/>
</g>
<!-- Node7 -->
<g id="node3" class="node">
<title>Node7</title>
<g id="a_node3"><a xlink:href="../../dc/d5a/classhyperelasticity.html" target="_top" xlink:title="hyperelasticity">
<polygon fill="#ffffff" stroke="#000000" points="70.5,-144.5 70.5,-163.5 150.5,-163.5 150.5,-144.5 70.5,-144.5"/>
<text text-anchor="middle" x="110.5" y="-151.5" font-family="Helvetica,sans-Serif" font-size="10.00" fill="#000000">hyperelasticity</text>
</a>
</g>
</g>
<!-- Node7&#45;&gt;Node6 -->
<g id="edge2" class="edge">
<title>Node7&#45;&gt;Node6</title>
<path fill="none" stroke="#191970" d="M112.5909,-134.1362C114.1604,-119.2258 116.2422,-99.4488 117.4698,-87.7874"/>
<polygon fill="#191970" stroke="#191970" points="109.0794,-134.0631 111.5132,-144.3745 116.0409,-134.7959 109.0794,-134.0631"/>
</g>
<!-- Node8 -->
<g id="node4" class="node">
<title>Node8</title>
<g id="a_node4"><a xlink:href="../../da/d1c/class_non_linear_finite_element_problem.html" target="_top" xlink:title="NonLinearFiniteElementProblem">
<polygon fill="#ffffff" stroke="#000000" points="0,-201.5 0,-220.5 157,-220.5 157,-201.5 0,-201.5"/>
<text text-anchor="middle" x="78.5" y="-208.5" font-family="Helvetica,sans-Serif" font-size="10.00" fill="#000000">NonLinearFiniteElementProblem</text>
</a>
</g>
</g>
<!-- Node8&#45;&gt;Node7 -->
<g id="edge3" class="edge">
<title>Node8&#45;&gt;Node7</title>
<path fill="none" stroke="#191970" d="M88.914,-192.45C94.3355,-182.7929 100.7356,-171.3929 105.1518,-163.5265"/>
<polygon fill="#191970" stroke="#191970" points="85.7718,-190.8975 83.9284,-201.3307 91.8757,-194.3243 85.7718,-190.8975"/>
</g>
<!-- Node9 -->
<g id="node5" class="node">
<title>Node9</title>
<g id="a_node5"><a xlink:href="../../d2/d97/class_base_class_f_e_m.html" target="_top" xlink:title="BaseClassFEM">
<polygon fill="#ffffff" stroke="#000000" points="117.5,-258.5 117.5,-277.5 203.5,-277.5 203.5,-258.5 117.5,-258.5"/>
<text text-anchor="middle" x="160.5" y="-265.5" font-family="Helvetica,sans-Serif" font-size="10.00" fill="#000000">BaseClassFEM</text>
</a>
</g>
</g>
<!-- Node9&#45;&gt;Node8 -->
<g id="edge4" class="edge">
<title>Node9&#45;&gt;Node8</title>
<path fill="none" stroke="#191970" d="M138.0654,-252.4052C123.3933,-242.2063 104.7001,-229.2123 92.2048,-220.5265"/>
<polygon fill="#191970" stroke="#191970" points="136.381,-255.4969 146.5898,-258.3307 140.3764,-249.7491 136.381,-255.4969"/>
</g>
<!-- Node12 -->
<g id="node8" class="node">
<title>Node12</title>
<g id="a_node8"><a xlink:href="../../d8/de3/class_linear_finite_element_problem.html" target="_top" xlink:title="LinearFiniteElementProblem">
<polygon fill="#ffffff" stroke="#000000" points="175,-201.5 175,-220.5 314,-220.5 314,-201.5 175,-201.5"/>
<text text-anchor="middle" x="244.5" y="-208.5" font-family="Helvetica,sans-Serif" font-size="10.00" fill="#000000">LinearFiniteElementProblem</text>
</a>
</g>
</g>
<!-- Node9&#45;&gt;Node12 -->
<g id="edge8" class="edge">
<title>Node9&#45;&gt;Node12</title>
<path fill="none" stroke="#191970" d="M183.0576,-252.6931C198.1499,-242.4518 217.5401,-229.2942 230.461,-220.5265"/>
<polygon fill="#191970" stroke="#191970" points="181.059,-249.8195 174.7495,-258.3307 184.9895,-255.6118 181.059,-249.8195"/>
</g>
<!-- Node10 -->
<g id="node6" class="node">
<title>Node10</title>
<g id="a_node6"><a xlink:href="../../d6/d6b/classmesh.html" target="_top" xlink:title="mesh">
<polygon fill="#ffffff" stroke="#000000" points="140,-325.5 140,-344.5 181,-344.5 181,-325.5 140,-325.5"/>
<text text-anchor="middle" x="160.5" y="-332.5" font-family="Helvetica,sans-Serif" font-size="10.00" fill="#000000">mesh</text>
</a>
</g>
</g>
<!-- Node10&#45;&gt;Node9 -->
<g id="edge5" class="edge">
<title>Node10&#45;&gt;Node9</title>
<path fill="none" stroke="#9a32cd" stroke-dasharray="5,2" d="M160.5,-315.1079C160.5,-302.714 160.5,-287.3263 160.5,-277.5817"/>
<polygon fill="#9a32cd" stroke="#9a32cd" points="157.0001,-315.4005 160.5,-325.4005 164.0001,-315.4006 157.0001,-315.4005"/>
<text text-anchor="middle" x="174.5" y="-299" font-family="Helvetica,sans-Serif" font-size="10.00" fill="#000000"> Mesh</text>
</g>
<!-- Node11 -->
<g id="node7" class="node">
<title>Node11</title>
<g id="a_node7"><a xlink:href="../../d7/d76/classlaplace.html" target="_top" xlink:title="laplace">
<polygon fill="#ffffff" stroke="#000000" points="219,-106.5 219,-125.5 266,-125.5 266,-106.5 219,-106.5"/>
<text text-anchor="middle" x="242.5" y="-113.5" font-family="Helvetica,sans-Serif" font-size="10.00" fill="#000000">laplace</text>
</a>
</g>
</g>
<!-- Node11&#45;&gt;Node5 -->
<g id="edge6" class="edge">
<title>Node11&#45;&gt;Node5</title>
<path fill="none" stroke="#9a32cd" stroke-dasharray="5,2" d="M231.9958,-97.5322C226.8243,-88.5599 220.4385,-77.6559 214.5,-68 206.6496,-55.2354 197.3829,-40.9768 190.5081,-30.5441"/>
<polygon fill="#9a32cd" stroke="#9a32cd" points="229.0446,-99.4219 237.0521,-106.3595 235.1187,-95.9425 229.0446,-99.4219"/>
<text text-anchor="middle" x="244" y="-75.5" font-family="Helvetica,sans-Serif" font-size="10.00" fill="#000000"> Laplace</text>
</g>
<!-- Node12&#45;&gt;Node11 -->
<g id="edge7" class="edge">
<title>Node12&#45;&gt;Node11</title>
<path fill="none" stroke="#191970" d="M244.0783,-190.968C243.6557,-170.897 243.0233,-140.8572 242.7024,-125.614"/>
<polygon fill="#191970" stroke="#191970" points="240.5837,-191.2671 244.2935,-201.1911 247.5821,-191.1197 240.5837,-191.2671"/>
</g>
</g>
</svg>
