<?xml version="1.0" encoding="UTF-8" standalone="no"?>
<!DOCTYPE svg PUBLIC "-//W3C//DTD SVG 1.1//EN"
 "http://www.w3.org/Graphics/SVG/1.1/DTD/svg11.dtd">
<!-- Generated by graphviz version 2.40.1 (20161225.0304)
 -->
<!-- Title: src/distributenrldata.hpp Pages: 1 -->
<svg width="3399pt" height="140pt"
 viewBox="0.00 0.00 3398.50 140.00" xmlns="http://www.w3.org/2000/svg" xmlns:xlink="http://www.w3.org/1999/xlink">
<g id="graph0" class="graph" transform="scale(1 1) rotate(0) translate(4 136)">
<title>src/distributenrldata.hpp</title>
<polygon fill="#ffffff" stroke="transparent" points="-4,4 -4,-136 3394.5,-136 3394.5,4 -4,4"/>
<!-- Node0 -->
<g id="node1" class="node">
<title>Node0</title>
<polygon fill="#bfbfbf" stroke="#000000" points="234.5,-112.5 234.5,-131.5 355.5,-131.5 355.5,-112.5 234.5,-112.5"/>
<text text-anchor="middle" x="295" y="-119.5" font-family="Helvetica,sans-Serif" font-size="10.00" fill="#000000">src/distributenrldata.hpp</text>
</g>
<!-- Node1 -->
<g id="node2" class="node">
<title>Node1</title>
<polygon fill="#ffffff" stroke="#bfbfbf" points="0,-.5 0,-19.5 46,-19.5 46,-.5 0,-.5"/>
<text text-anchor="middle" x="23" y="-7.5" font-family="Helvetica,sans-Serif" font-size="10.00" fill="#000000">stdio.h</text>
</g>
<!-- Node0&#45;&gt;Node1 -->
<g id="edge1" class="edge">
<title>Node0&#45;&gt;Node1</title>
<path fill="none" stroke="#191970" d="M269.5833,-112.3714C245.6204,-103.2275 208.7472,-88.9868 177,-76 134.2437,-58.5097 85.2695,-37.32 54.2467,-23.752"/>
<polygon fill="#191970" stroke="#191970" points="55.3999,-20.4361 44.8358,-19.6289 52.5908,-26.8477 55.3999,-20.4361"/>
</g>
<!-- Node2 -->
<g id="node3" class="node">
<title>Node2</title>
<polygon fill="#ffffff" stroke="#bfbfbf" points="64,-.5 64,-19.5 118,-19.5 118,-.5 64,-.5"/>
<text text-anchor="middle" x="91" y="-7.5" font-family="Helvetica,sans-Serif" font-size="10.00" fill="#000000">iostream</text>
</g>
<!-- Node0&#45;&gt;Node2 -->
<g id="edge2" class="edge">
<title>Node0&#45;&gt;Node2</title>
<path fill="none" stroke="#191970" d="M277.6071,-112.4509C241.7757,-92.7788 159.5519,-47.6363 117.2294,-24.4005"/>
<polygon fill="#191970" stroke="#191970" points="118.7991,-21.2695 108.3489,-19.5249 115.4303,-27.4056 118.7991,-21.2695"/>
</g>
<!-- Node3 -->
<g id="node4" class="node">
<title>Node3</title>
<polygon fill="#ffffff" stroke="#bfbfbf" points="204.5,-.5 204.5,-19.5 253.5,-19.5 253.5,-.5 204.5,-.5"/>
<text text-anchor="middle" x="229" y="-7.5" font-family="Helvetica,sans-Serif" font-size="10.00" fill="#000000">istream</text>
</g>
<!-- Node0&#45;&gt;Node3 -->
<g id="edge3" class="edge">
<title>Node0&#45;&gt;Node3</title>
<path fill="none" stroke="#191970" d="M289.3729,-112.4509C278.4136,-93.8533 254.0399,-52.4919 239.8407,-28.3964"/>
<polygon fill="#191970" stroke="#191970" points="242.7052,-26.3633 234.6129,-19.5249 236.6745,-29.9172 242.7052,-26.3633"/>
</g>
<!-- Node4 -->
<g id="node5" class="node">
<title>Node4</title>
<polygon fill="#ffffff" stroke="#bfbfbf" points="136,-.5 136,-19.5 186,-19.5 186,-.5 136,-.5"/>
<text text-anchor="middle" x="161" y="-7.5" font-family="Helvetica,sans-Serif" font-size="10.00" fill="#000000">fstream</text>
</g>
<!-- Node0&#45;&gt;Node4 -->
<g id="edge4" class="edge">
<title>Node0&#45;&gt;Node4</title>
<path fill="none" stroke="#191970" d="M283.5752,-112.4509C260.6323,-93.2747 208.733,-49.8962 180.3807,-26.1988"/>
<polygon fill="#191970" stroke="#191970" points="182.3133,-23.2525 172.3958,-19.5249 177.8241,-28.6235 182.3133,-23.2525"/>
</g>
<!-- Node5 -->
<g id="node6" class="node">
<title>Node5</title>
<polygon fill="#ffffff" stroke="#bfbfbf" points="547,-.5 547,-19.5 591,-19.5 591,-.5 547,-.5"/>
<text text-anchor="middle" x="569" y="-7.5" font-family="Helvetica,sans-Serif" font-size="10.00" fill="#000000">vector</text>
</g>
<!-- Node0&#45;&gt;Node5 -->
<g id="edge5" class="edge">
<title>Node0&#45;&gt;Node5</title>
<path fill="none" stroke="#191970" d="M318.3611,-112.4509C367.5616,-92.3398 481.8855,-45.6088 537.4946,-22.8781"/>
<polygon fill="#191970" stroke="#191970" points="538.9171,-26.0778 546.8493,-19.0543 536.2684,-19.5983 538.9171,-26.0778"/>
</g>
<!-- Node6 -->
<g id="node7" class="node">
<title>Node6</title>
<polygon fill="#ffffff" stroke="#bfbfbf" points="767,-.5 767,-19.5 817,-19.5 817,-.5 767,-.5"/>
<text text-anchor="middle" x="792" y="-7.5" font-family="Helvetica,sans-Serif" font-size="10.00" fill="#000000">iomanip</text>
</g>
<!-- Node0&#45;&gt;Node6 -->
<g id="edge6" class="edge">
<title>Node0&#45;&gt;Node6</title>
<path fill="none" stroke="#191970" d="M343.5867,-112.4497C426.467,-95.9072 600.5936,-60.061 757.0028,-20.1349"/>
<polygon fill="#191970" stroke="#191970" points="757.9856,-23.4962 766.8028,-17.6219 756.2468,-16.7156 757.9856,-23.4962"/>
</g>
<!-- Node7 -->
<g id="node8" class="node">
<title>Node7</title>
<g id="a_node8"><a xlink:href="../../d2/d81/readnrldata_8hpp.html" target="_top" xlink:title="readnrldata.hpp">
<polygon fill="#ffffff" stroke="#000000" points="278.5,-56.5 278.5,-75.5 361.5,-75.5 361.5,-56.5 278.5,-56.5"/>
<text text-anchor="middle" x="320" y="-63.5" font-family="Helvetica,sans-Serif" font-size="10.00" fill="#000000">readnrldata.hpp</text>
</a>
</g>
</g>
<!-- Node0&#45;&gt;Node7 -->
<g id="edge7" class="edge">
<title>Node0&#45;&gt;Node7</title>
<path fill="none" stroke="#191970" d="M299.3547,-112.2455C302.7244,-104.6973 307.493,-94.0158 311.5983,-84.8197"/>
<polygon fill="#191970" stroke="#191970" points="314.8147,-86.2009 315.6952,-75.6427 308.4227,-83.3473 314.8147,-86.2009"/>
</g>
<!-- Node11 -->
<g id="node12" class="node">
<title>Node11</title>
<g id="a_node12"><a xlink:href="../../d0/d02/meshpp_8hpp.html" target="_top" xlink:title="meshpp.hpp">
<polygon fill="#ffffff" stroke="#000000" points="1585,-56.5 1585,-75.5 1655,-75.5 1655,-56.5 1585,-56.5"/>
<text text-anchor="middle" x="1620" y="-63.5" font-family="Helvetica,sans-Serif" font-size="10.00" fill="#000000">meshpp.hpp</text>
</a>
</g>
</g>
<!-- Node0&#45;&gt;Node11 -->
<g id="edge17" class="edge">
<title>Node0&#45;&gt;Node11</title>
<path fill="none" stroke="#191970" d="M355.8121,-119.4298C582.5924,-109.8451 1376.1364,-76.3067 1574.695,-67.9148"/>
<polygon fill="#191970" stroke="#191970" points="1574.9319,-71.408 1584.7751,-67.4888 1574.6362,-64.4142 1574.9319,-71.408"/>
</g>
<!-- Node7&#45;&gt;Node1 -->
<g id="edge8" class="edge">
<title>Node7&#45;&gt;Node1</title>
<path fill="none" stroke="#191970" d="M278.3435,-60.4926C227.8532,-53.4387 140.0727,-39.9637 56.2547,-20.0686"/>
<polygon fill="#191970" stroke="#191970" points="56.8615,-16.6147 46.3199,-17.6752 55.222,-23.42 56.8615,-16.6147"/>
</g>
<!-- Node7&#45;&gt;Node2 -->
<g id="edge9" class="edge">
<title>Node7&#45;&gt;Node2</title>
<path fill="none" stroke="#191970" d="M278.4772,-56.5708C241.4594,-48.0601 185.5623,-34.9542 128.0857,-20.2164"/>
<polygon fill="#191970" stroke="#191970" points="128.655,-16.7488 118.098,-17.6428 126.9083,-23.5274 128.655,-16.7488"/>
</g>
<!-- Node7&#45;&gt;Node3 -->
<g id="edge10" class="edge">
<title>Node7&#45;&gt;Node3</title>
<path fill="none" stroke="#191970" d="M304.149,-56.2455C290.1868,-47.6534 269.6272,-35.0014 253.5404,-25.1018"/>
<polygon fill="#191970" stroke="#191970" points="255.0203,-21.9029 244.6693,-19.6427 251.3516,-27.8645 255.0203,-21.9029"/>
</g>
<!-- Node7&#45;&gt;Node4 -->
<g id="edge11" class="edge">
<title>Node7&#45;&gt;Node4</title>
<path fill="none" stroke="#191970" d="M292.6669,-56.3733C265.9006,-46.9461 225.009,-32.544 195.9045,-22.2934"/>
<polygon fill="#191970" stroke="#191970" points="196.7388,-18.8766 186.144,-18.8557 194.4133,-25.479 196.7388,-18.8766"/>
</g>
<!-- Node7&#45;&gt;Node5 -->
<g id="edge12" class="edge">
<title>Node7&#45;&gt;Node5</title>
<path fill="none" stroke="#191970" d="M361.69,-58.5403C403.7234,-50.7228 470.6168,-37.4753 536.9513,-20.0853"/>
<polygon fill="#191970" stroke="#191970" points="537.9637,-23.4378 546.7312,-17.4897 536.168,-16.6721 537.9637,-23.4378"/>
</g>
<!-- Node7&#45;&gt;Node6 -->
<g id="edge13" class="edge">
<title>Node7&#45;&gt;Node6</title>
<path fill="none" stroke="#191970" d="M361.7414,-64.1396C438.3907,-60.1793 606.7399,-48.9545 757.0051,-19.8827"/>
<polygon fill="#191970" stroke="#191970" points="757.7386,-23.3055 766.8755,-17.9418 756.388,-16.437 757.7386,-23.3055"/>
</g>
<!-- Node8 -->
<g id="node9" class="node">
<title>Node8</title>
<polygon fill="#ffffff" stroke="#bfbfbf" points="429,-.5 429,-19.5 529,-19.5 529,-.5 429,-.5"/>
<text text-anchor="middle" x="479" y="-7.5" font-family="Helvetica,sans-Serif" font-size="10.00" fill="#000000">Teuchos_RCP.hpp</text>
</g>
<!-- Node7&#45;&gt;Node8 -->
<g id="edge14" class="edge">
<title>Node7&#45;&gt;Node8</title>
<path fill="none" stroke="#191970" d="M347.3331,-56.3733C373.5434,-47.1419 413.2984,-33.1402 442.2668,-22.9375"/>
<polygon fill="#191970" stroke="#191970" points="443.7542,-26.1244 452.0236,-19.5011 441.4288,-19.5219 443.7542,-26.1244"/>
</g>
<!-- Node9 -->
<g id="node10" class="node">
<title>Node9</title>
<polygon fill="#ffffff" stroke="#bfbfbf" points="609,-.5 609,-19.5 749,-19.5 749,-.5 609,-.5"/>
<text text-anchor="middle" x="679" y="-7.5" font-family="Helvetica,sans-Serif" font-size="10.00" fill="#000000">Epetra_SerialDenseVector.h</text>
</g>
<!-- Node7&#45;&gt;Node9 -->
<g id="edge15" class="edge">
<title>Node7&#45;&gt;Node9</title>
<path fill="none" stroke="#191970" d="M361.5326,-59.5214C421.7318,-50.131 534.0641,-32.6084 607.6796,-21.1252"/>
<polygon fill="#191970" stroke="#191970" points="608.4596,-24.5459 617.8006,-19.5464 607.3806,-17.6296 608.4596,-24.5459"/>
</g>
<!-- Node10 -->
<g id="node11" class="node">
<title>Node10</title>
<polygon fill="#ffffff" stroke="#bfbfbf" points="271.5,-.5 271.5,-19.5 410.5,-19.5 410.5,-.5 271.5,-.5"/>
<text text-anchor="middle" x="341" y="-7.5" font-family="Helvetica,sans-Serif" font-size="10.00" fill="#000000">Epetra_SerialDenseMatrix.h</text>
</g>
<!-- Node7&#45;&gt;Node10 -->
<g id="edge16" class="edge">
<title>Node7&#45;&gt;Node10</title>
<path fill="none" stroke="#191970" d="M323.6579,-56.2455C326.4584,-48.7776 330.409,-38.2427 333.8324,-29.1137"/>
<polygon fill="#191970" stroke="#191970" points="337.1499,-30.2349 337.384,-19.6427 330.5955,-27.777 337.1499,-30.2349"/>
</g>
<!-- Node11&#45;&gt;Node1 -->
<g id="edge18" class="edge">
<title>Node11&#45;&gt;Node1</title>
<path fill="none" stroke="#191970" d="M1584.7127,-65.541C1371.0141,-62.6859 252.9162,-46.6544 56.3853,-19.6151"/>
<polygon fill="#191970" stroke="#191970" points="56.6522,-16.1154 46.2392,-18.0697 55.5982,-23.0356 56.6522,-16.1154"/>
</g>
<!-- Node11&#45;&gt;Node2 -->
<g id="edge19" class="edge">
<title>Node11&#45;&gt;Node2</title>
<path fill="none" stroke="#191970" d="M1584.9895,-65.4251C1377.9482,-61.9598 316.7423,-43.2651 128.3425,-19.71"/>
<polygon fill="#191970" stroke="#191970" points="128.7547,-16.2338 118.3698,-18.3327 127.797,-23.1679 128.7547,-16.2338"/>
</g>
<!-- Node11&#45;&gt;Node3 -->
<g id="edge20" class="edge">
<title>Node11&#45;&gt;Node3</title>
<path fill="none" stroke="#191970" d="M1584.9633,-65.3584C1389.5375,-61.7086 437.025,-42.963 263.7593,-19.7398"/>
<polygon fill="#191970" stroke="#191970" points="264.1089,-16.2533 253.702,-18.2395 263.0761,-23.1767 264.1089,-16.2533"/>
</g>
<!-- Node11&#45;&gt;Node4 -->
<g id="edge21" class="edge">
<title>Node11&#45;&gt;Node4</title>
<path fill="none" stroke="#191970" d="M1584.927,-65.4004C1383.5535,-61.8885 377.3558,-43.381 196.146,-19.6133"/>
<polygon fill="#191970" stroke="#191970" points="196.4869,-16.1261 186.0872,-18.1501 195.4793,-23.0532 196.4869,-16.1261"/>
</g>
<!-- Node11&#45;&gt;Node5 -->
<g id="edge22" class="edge">
<title>Node11&#45;&gt;Node5</title>
<path fill="none" stroke="#191970" d="M1584.8076,-65.6708C1430.811,-64.0403 814.8317,-55.495 601.0425,-19.6619"/>
<polygon fill="#191970" stroke="#191970" points="601.6231,-16.2104 591.1696,-17.9349 600.4169,-23.1057 601.6231,-16.2104"/>
</g>
<!-- Node11&#45;&gt;Node6 -->
<g id="edge23" class="edge">
<title>Node11&#45;&gt;Node6</title>
<path fill="none" stroke="#191970" d="M1584.8803,-64.9922C1451.4571,-61.0039 976.0469,-45.2967 827,-20 826.8988,-19.9828 826.7974,-19.9654 826.6959,-19.9479"/>
<polygon fill="#191970" stroke="#191970" points="827.5946,-16.5612 817.0824,-17.8823 826.124,-23.405 827.5946,-16.5612"/>
</g>
<!-- Node11&#45;&gt;Node8 -->
<g id="edge43" class="edge">
<title>Node11&#45;&gt;Node8</title>
<path fill="none" stroke="#191970" d="M1584.96,-65.1027C1425.7084,-60.9352 768.4374,-42.7468 539.4063,-19.9928"/>
<polygon fill="#191970" stroke="#191970" points="539.4581,-16.4798 529.153,-18.9405 538.7433,-23.4432 539.4581,-16.4798"/>
</g>
<!-- Node11&#45;&gt;Node9 -->
<g id="edge31" class="edge">
<title>Node11&#45;&gt;Node9</title>
<path fill="none" stroke="#191970" d="M1584.6277,-65.0334C1468.1884,-61.6571 1086.1172,-49.0313 759.3214,-20.0581"/>
<polygon fill="#191970" stroke="#191970" points="759.4544,-16.5562 749.1826,-19.1524 758.8315,-23.5284 759.4544,-16.5562"/>
</g>
<!-- Node11&#45;&gt;Node10 -->
<g id="edge30" class="edge">
<title>Node11&#45;&gt;Node10</title>
<path fill="none" stroke="#191970" d="M1584.5923,-65.7748C1440.9285,-64.6239 887.3929,-57.8914 421.0599,-20.0095"/>
<polygon fill="#191970" stroke="#191970" points="421.0044,-16.4933 410.7522,-19.1658 420.4334,-23.47 421.0044,-16.4933"/>
</g>
<!-- Node12 -->
<g id="node13" class="node">
<title>Node12</title>
<polygon fill="#ffffff" stroke="#bfbfbf" points="2799,-.5 2799,-19.5 2903,-19.5 2903,-.5 2799,-.5"/>
<text text-anchor="middle" x="2851" y="-7.5" font-family="Helvetica,sans-Serif" font-size="10.00" fill="#000000">Epetra_MpiComm.h</text>
</g>
<!-- Node11&#45;&gt;Node12 -->
<g id="edge24" class="edge">
<title>Node11&#45;&gt;Node12</title>
<path fill="none" stroke="#191970" d="M1655.0211,-65.2061C1822.2688,-61.3269 2541.4167,-43.6299 2788.8003,-19.9762"/>
<polygon fill="#191970" stroke="#191970" points="2789.2045,-23.4534 2798.8128,-18.9892 2788.5177,-16.4872 2789.2045,-23.4534"/>
</g>
<!-- Node13 -->
<g id="node14" class="node">
<title>Node13</title>
<polygon fill="#ffffff" stroke="#bfbfbf" points="2921.5,-.5 2921.5,-19.5 3034.5,-19.5 3034.5,-.5 2921.5,-.5"/>
<text text-anchor="middle" x="2978" y="-7.5" font-family="Helvetica,sans-Serif" font-size="10.00" fill="#000000">Epetra_FECrsGraph.h</text>
</g>
<!-- Node11&#45;&gt;Node13 -->
<g id="edge25" class="edge">
<title>Node11&#45;&gt;Node13</title>
<path fill="none" stroke="#191970" d="M1655.0217,-65.298C1832.7726,-61.6528 2637.0074,-44.1567 2910.8703,-19.9704"/>
<polygon fill="#191970" stroke="#191970" points="2911.5271,-23.4252 2921.1692,-19.034 2910.8933,-16.4539 2911.5271,-23.4252"/>
</g>
<!-- Node14 -->
<g id="node15" class="node">
<title>Node14</title>
<polygon fill="#ffffff" stroke="#bfbfbf" points="3053,-.5 3053,-19.5 3167,-19.5 3167,-.5 3053,-.5"/>
<text text-anchor="middle" x="3110" y="-7.5" font-family="Helvetica,sans-Serif" font-size="10.00" fill="#000000">Epetra_FECrsMatrix.h</text>
</g>
<!-- Node11&#45;&gt;Node14 -->
<g id="edge26" class="edge">
<title>Node11&#45;&gt;Node14</title>
<path fill="none" stroke="#191970" d="M1655.0794,-65.4297C1843.899,-62.2751 2741.6328,-46.1839 3042.7843,-19.9837"/>
<polygon fill="#191970" stroke="#191970" points="3043.1644,-23.4638 3052.8129,-19.0871 3042.541,-16.4916 3043.1644,-23.4638"/>
</g>
<!-- Node15 -->
<g id="node16" class="node">
<title>Node15</title>
<polygon fill="#ffffff" stroke="#bfbfbf" points="3185,-.5 3185,-19.5 3285,-19.5 3285,-.5 3185,-.5"/>
<text text-anchor="middle" x="3235" y="-7.5" font-family="Helvetica,sans-Serif" font-size="10.00" fill="#000000">Epetra_FEVector.h</text>
</g>
<!-- Node11&#45;&gt;Node15 -->
<g id="edge27" class="edge">
<title>Node11&#45;&gt;Node15</title>
<path fill="none" stroke="#191970" d="M1655.3193,-65.6209C1855.1196,-63.3764 2846.0996,-50.8933 3174.8488,-19.9526"/>
<polygon fill="#191970" stroke="#191970" points="3175.2351,-23.4317 3184.8516,-18.985 3174.561,-16.4642 3175.2351,-23.4317"/>
</g>
<!-- Node16 -->
<g id="node17" class="node">
<title>Node16</title>
<polygon fill="#ffffff" stroke="#bfbfbf" points="3303.5,-.5 3303.5,-19.5 3390.5,-19.5 3390.5,-.5 3303.5,-.5"/>
<text text-anchor="middle" x="3347" y="-7.5" font-family="Helvetica,sans-Serif" font-size="10.00" fill="#000000">Epetra_Vector.h</text>
</g>
<!-- Node11&#45;&gt;Node16 -->
<g id="edge28" class="edge">
<title>Node11&#45;&gt;Node16</title>
<path fill="none" stroke="#191970" d="M1655.2231,-65.7954C1863.7731,-64.47 2939.3617,-56.0182 3293.4003,-19.8442"/>
<polygon fill="#191970" stroke="#191970" points="3293.8292,-23.3185 3303.409,-18.7933 3293.0981,-16.3568 3293.8292,-23.3185"/>
</g>
<!-- Node17 -->
<g id="node18" class="node">
<title>Node17</title>
<polygon fill="#ffffff" stroke="#bfbfbf" points="835.5,-.5 835.5,-19.5 912.5,-19.5 912.5,-.5 835.5,-.5"/>
<text text-anchor="middle" x="874" y="-7.5" font-family="Helvetica,sans-Serif" font-size="10.00" fill="#000000">Epetra_Map.h</text>
</g>
<!-- Node11&#45;&gt;Node17 -->
<g id="edge29" class="edge">
<title>Node11&#45;&gt;Node17</title>
<path fill="none" stroke="#191970" d="M1584.9652,-65.4176C1483.8043,-63.3704 1182.4725,-54.7008 922.6923,-19.9"/>
<polygon fill="#191970" stroke="#191970" points="923.0717,-16.4195 912.6922,-18.5445 922.1314,-23.3561 923.0717,-16.4195"/>
</g>
<!-- Node18 -->
<g id="node19" class="node">
<title>Node18</title>
<polygon fill="#ffffff" stroke="#bfbfbf" points="931,-.5 931,-19.5 1083,-19.5 1083,-.5 931,-.5"/>
<text text-anchor="middle" x="1007" y="-7.5" font-family="Helvetica,sans-Serif" font-size="10.00" fill="#000000">Epetra_IntSerialDenseVector.h</text>
</g>
<!-- Node11&#45;&gt;Node18 -->
<g id="edge32" class="edge">
<title>Node11&#45;&gt;Node18</title>
<path fill="none" stroke="#191970" d="M1584.7445,-63.2986C1501.298,-56.8253 1284.924,-39.5766 1093.4098,-20.1206"/>
<polygon fill="#191970" stroke="#191970" points="1093.7473,-16.6369 1083.4436,-19.1038 1093.0367,-23.6008 1093.7473,-16.6369"/>
</g>
<!-- Node19 -->
<g id="node20" class="node">
<title>Node19</title>
<polygon fill="#ffffff" stroke="#bfbfbf" points="1101,-.5 1101,-19.5 1187,-19.5 1187,-.5 1101,-.5"/>
<text text-anchor="middle" x="1144" y="-7.5" font-family="Helvetica,sans-Serif" font-size="10.00" fill="#000000">Epetra_Import.h</text>
</g>
<!-- Node11&#45;&gt;Node19 -->
<g id="edge33" class="edge">
<title>Node11&#45;&gt;Node19</title>
<path fill="none" stroke="#191970" d="M1584.7849,-63.1082C1512.0873,-56.9323 1340.216,-41.2649 1197,-20 1196.8987,-19.985 1196.7973,-19.9699 1196.6958,-19.9547"/>
<polygon fill="#191970" stroke="#191970" points="1197.4779,-16.5354 1187.051,-18.4142 1196.3738,-23.4477 1197.4779,-16.5354"/>
</g>
<!-- Node20 -->
<g id="node21" class="node">
<title>Node20</title>
<polygon fill="#ffffff" stroke="#bfbfbf" points="1205.5,-.5 1205.5,-19.5 1292.5,-19.5 1292.5,-.5 1205.5,-.5"/>
<text text-anchor="middle" x="1249" y="-7.5" font-family="Helvetica,sans-Serif" font-size="10.00" fill="#000000">Epetra_Export.h</text>
</g>
<!-- Node11&#45;&gt;Node20 -->
<g id="edge34" class="edge">
<title>Node11&#45;&gt;Node20</title>
<path fill="none" stroke="#191970" d="M1584.6305,-61.3872C1527.6202,-53.8426 1411.6445,-38.0441 1302.8159,-20.0773"/>
<polygon fill="#191970" stroke="#191970" points="1303.0847,-16.5741 1292.6464,-18.3885 1301.9379,-23.4795 1303.0847,-16.5741"/>
</g>
<!-- Node21 -->
<g id="node22" class="node">
<title>Node21</title>
<polygon fill="#ffffff" stroke="#bfbfbf" points="1311,-.5 1311,-19.5 1391,-19.5 1391,-.5 1311,-.5"/>
<text text-anchor="middle" x="1351" y="-7.5" font-family="Helvetica,sans-Serif" font-size="10.00" fill="#000000">Epetra_Time.h</text>
</g>
<!-- Node11&#45;&gt;Node21 -->
<g id="edge35" class="edge">
<title>Node11&#45;&gt;Node21</title>
<path fill="none" stroke="#191970" d="M1584.8329,-58.679C1538.0062,-48.9307 1454.8853,-31.6267 1401.3993,-20.492"/>
<polygon fill="#191970" stroke="#191970" points="1401.9483,-17.0314 1391.4449,-18.4197 1400.5216,-23.8845 1401.9483,-17.0314"/>
</g>
<!-- Node22 -->
<g id="node23" class="node">
<title>Node22</title>
<polygon fill="#ffffff" stroke="#bfbfbf" points="1409.5,-.5 1409.5,-19.5 1556.5,-19.5 1556.5,-.5 1409.5,-.5"/>
<text text-anchor="middle" x="1483" y="-7.5" font-family="Helvetica,sans-Serif" font-size="10.00" fill="#000000">ml_MultiLevelPreconditioner.h</text>
</g>
<!-- Node11&#45;&gt;Node22 -->
<g id="edge36" class="edge">
<title>Node11&#45;&gt;Node22</title>
<path fill="none" stroke="#191970" d="M1596.4489,-56.3733C1574.1609,-47.2629 1540.5063,-33.5062 1515.6363,-23.3404"/>
<polygon fill="#191970" stroke="#191970" points="1516.8247,-20.0451 1506.2438,-19.5011 1514.1761,-26.5247 1516.8247,-20.0451"/>
</g>
<!-- Node23 -->
<g id="node24" class="node">
<title>Node23</title>
<polygon fill="#ffffff" stroke="#bfbfbf" points="1574.5,-.5 1574.5,-19.5 1665.5,-19.5 1665.5,-.5 1574.5,-.5"/>
<text text-anchor="middle" x="1620" y="-7.5" font-family="Helvetica,sans-Serif" font-size="10.00" fill="#000000">ml_epetra_utils.h</text>
</g>
<!-- Node11&#45;&gt;Node23 -->
<g id="edge37" class="edge">
<title>Node11&#45;&gt;Node23</title>
<path fill="none" stroke="#191970" d="M1620,-56.2455C1620,-48.9382 1620,-38.6944 1620,-29.7046"/>
<polygon fill="#191970" stroke="#191970" points="1623.5001,-29.6426 1620,-19.6427 1616.5001,-29.6427 1623.5001,-29.6426"/>
</g>
<!-- Node24 -->
<g id="node25" class="node">
<title>Node24</title>
<polygon fill="#ffffff" stroke="#bfbfbf" points="1683.5,-.5 1683.5,-19.5 1754.5,-19.5 1754.5,-.5 1683.5,-.5"/>
<text text-anchor="middle" x="1719" y="-7.5" font-family="Helvetica,sans-Serif" font-size="10.00" fill="#000000">ml_include.h</text>
</g>
<!-- Node11&#45;&gt;Node24 -->
<g id="edge38" class="edge">
<title>Node11&#45;&gt;Node24</title>
<path fill="none" stroke="#191970" d="M1637.2445,-56.2455C1652.5761,-47.5731 1675.2199,-34.7645 1692.7916,-24.825"/>
<polygon fill="#191970" stroke="#191970" points="1694.9724,-27.6126 1701.9531,-19.6427 1691.5259,-21.5198 1694.9724,-27.6126"/>
</g>
<!-- Node25 -->
<g id="node26" class="node">
<title>Node25</title>
<polygon fill="#ffffff" stroke="#bfbfbf" points="1772.5,-.5 1772.5,-19.5 1909.5,-19.5 1909.5,-.5 1772.5,-.5"/>
<text text-anchor="middle" x="1841" y="-7.5" font-family="Helvetica,sans-Serif" font-size="10.00" fill="#000000">EpetraExt_RowMatrixOut.h</text>
</g>
<!-- Node11&#45;&gt;Node25 -->
<g id="edge39" class="edge">
<title>Node11&#45;&gt;Node25</title>
<path fill="none" stroke="#191970" d="M1655.0181,-57.1266C1692.3482,-47.6674 1751.694,-32.6296 1793.2826,-22.0913"/>
<polygon fill="#191970" stroke="#191970" points="1794.3515,-25.4311 1803.1854,-19.582 1792.632,-18.6456 1794.3515,-25.4311"/>
</g>
<!-- Node26 -->
<g id="node27" class="node">
<title>Node26</title>
<polygon fill="#ffffff" stroke="#bfbfbf" points="1927.5,-.5 1927.5,-19.5 2066.5,-19.5 2066.5,-.5 1927.5,-.5"/>
<text text-anchor="middle" x="1997" y="-7.5" font-family="Helvetica,sans-Serif" font-size="10.00" fill="#000000">EpetraExt_MultiVectorOut.h</text>
</g>
<!-- Node11&#45;&gt;Node26 -->
<g id="edge40" class="edge">
<title>Node11&#45;&gt;Node26</title>
<path fill="none" stroke="#191970" d="M1655.1287,-60.7819C1715.8688,-51.7595 1841.7649,-33.0588 1922.6606,-21.0425"/>
<polygon fill="#191970" stroke="#191970" points="1923.4075,-24.47 1932.7847,-19.5386 1922.379,-17.546 1923.4075,-24.47"/>
</g>
<!-- Node27 -->
<g id="node28" class="node">
<title>Node27</title>
<polygon fill="#ffffff" stroke="#bfbfbf" points="2085,-.5 2085,-19.5 2195,-19.5 2195,-.5 2085,-.5"/>
<text text-anchor="middle" x="2140" y="-7.5" font-family="Helvetica,sans-Serif" font-size="10.00" fill="#000000">EpetraExt_VectorIn.h</text>
</g>
<!-- Node11&#45;&gt;Node27 -->
<g id="edge41" class="edge">
<title>Node11&#45;&gt;Node27</title>
<path fill="none" stroke="#191970" d="M1655.2605,-63.102C1730.3667,-56.7876 1911.8934,-40.7745 2074.6707,-20.1131"/>
<polygon fill="#191970" stroke="#191970" points="2075.3938,-23.5493 2084.8692,-18.8093 2074.506,-16.6058 2075.3938,-23.5493"/>
</g>
<!-- Node28 -->
<g id="node29" class="node">
<title>Node28</title>
<polygon fill="#ffffff" stroke="#bfbfbf" points="2213.5,-.5 2213.5,-19.5 2344.5,-19.5 2344.5,-.5 2213.5,-.5"/>
<text text-anchor="middle" x="2279" y="-7.5" font-family="Helvetica,sans-Serif" font-size="10.00" fill="#000000">EpetraExt_MultiVectorIn.h</text>
</g>
<!-- Node11&#45;&gt;Node28 -->
<g id="edge42" class="edge">
<title>Node11&#45;&gt;Node28</title>
<path fill="none" stroke="#191970" d="M1655.2798,-63.8869C1744.8702,-58.3788 1988.6395,-42.5046 2202.9898,-20.0551"/>
<polygon fill="#191970" stroke="#191970" points="2203.5962,-23.5106 2213.174,-18.9811 2202.862,-16.5492 2203.5962,-23.5106"/>
</g>
<!-- Node29 -->
<g id="node30" class="node">
<title>Node29</title>
<polygon fill="#ffffff" stroke="#bfbfbf" points="2362.5,-.5 2362.5,-19.5 2423.5,-19.5 2423.5,-.5 2362.5,-.5"/>
<text text-anchor="middle" x="2393" y="-7.5" font-family="Helvetica,sans-Serif" font-size="10.00" fill="#000000">Amesos.h</text>
</g>
<!-- Node11&#45;&gt;Node29 -->
<g id="edge44" class="edge">
<title>Node11&#45;&gt;Node29</title>
<path fill="none" stroke="#191970" d="M1655.0661,-64.6799C1779.0731,-59.8779 2197.3177,-42.512 2352.2044,-19.9731"/>
<polygon fill="#191970" stroke="#191970" points="2353.0982,-23.3775 2362.4571,-18.4114 2352.044,-16.4573 2353.0982,-23.3775"/>
</g>
<!-- Node30 -->
<g id="node31" class="node">
<title>Node30</title>
<polygon fill="#ffffff" stroke="#bfbfbf" points="2441.5,-.5 2441.5,-19.5 2506.5,-19.5 2506.5,-.5 2441.5,-.5"/>
<text text-anchor="middle" x="2474" y="-7.5" font-family="Helvetica,sans-Serif" font-size="10.00" fill="#000000">AztecOO.h</text>
</g>
<!-- Node11&#45;&gt;Node30 -->
<g id="edge45" class="edge">
<title>Node11&#45;&gt;Node30</title>
<path fill="none" stroke="#191970" d="M1655.0461,-64.8708C1787.7219,-60.4664 2259.9286,-43.5813 2431.3115,-19.9676"/>
<polygon fill="#191970" stroke="#191970" points="2432.0328,-23.3999 2441.4327,-18.512 2431.0363,-16.4712 2432.0328,-23.3999"/>
</g>
<!-- Node31 -->
<g id="node32" class="node">
<title>Node31</title>
<polygon fill="#ffffff" stroke="#bfbfbf" points="2525,-.5 2525,-19.5 2641,-19.5 2641,-.5 2525,-.5"/>
<text text-anchor="middle" x="2583" y="-7.5" font-family="Helvetica,sans-Serif" font-size="10.00" fill="#000000">Amesos_BaseSolver.h</text>
</g>
<!-- Node11&#45;&gt;Node31 -->
<g id="edge46" class="edge">
<title>Node11&#45;&gt;Node31</title>
<path fill="none" stroke="#191970" d="M1655.1024,-65.4197C1774.2216,-63.1927 2174.0898,-53.6091 2514.8736,-20.0183"/>
<polygon fill="#191970" stroke="#191970" points="2515.3338,-23.4899 2524.9383,-19.0175 2514.6411,-16.5242 2515.3338,-23.4899"/>
</g>
<!-- Node32 -->
<g id="node33" class="node">
<title>Node32</title>
<polygon fill="#ffffff" stroke="#bfbfbf" points="2659.5,-.5 2659.5,-19.5 2708.5,-19.5 2708.5,-.5 2659.5,-.5"/>
<text text-anchor="middle" x="2684" y="-7.5" font-family="Helvetica,sans-Serif" font-size="10.00" fill="#000000">metis.h</text>
</g>
<!-- Node11&#45;&gt;Node32 -->
<g id="edge47" class="edge">
<title>Node11&#45;&gt;Node32</title>
<path fill="none" stroke="#191970" d="M1655.2518,-65.5666C1810.225,-63.4891 2432.4947,-53.3033 2649.2665,-19.6417"/>
<polygon fill="#191970" stroke="#191970" points="2649.9667,-23.074 2659.279,-18.021 2648.8481,-16.164 2649.9667,-23.074"/>
</g>
<!-- Node33 -->
<g id="node34" class="node">
<title>Node33</title>
<g id="a_node34"><a xlink:href="../../d4/dbc/fepp_8hpp.html" target="_top" xlink:title="fepp.hpp">
<polygon fill="#ffffff" stroke="#000000" points="2727,-.5 2727,-19.5 2781,-19.5 2781,-.5 2727,-.5"/>
<text text-anchor="middle" x="2754" y="-7.5" font-family="Helvetica,sans-Serif" font-size="10.00" fill="#000000">fepp.hpp</text>
</a>
</g>
</g>
<!-- Node11&#45;&gt;Node33 -->
<g id="edge48" class="edge">
<title>Node11&#45;&gt;Node33</title>
<path fill="none" stroke="#191970" d="M1655.1289,-65.5734C1817.8574,-63.5059 2498.2745,-53.2306 2709,-20 2711.613,-19.5879 2714.3071,-19.0534 2717.0265,-18.4458"/>
<polygon fill="#191970" stroke="#191970" points="2718.0144,-21.8071 2726.8851,-16.014 2716.3379,-15.0108 2718.0144,-21.8071"/>
</g>
<!-- Node33&#45;&gt;Node11 -->
<g id="edge49" class="edge">
<title>Node33&#45;&gt;Node11</title>
<path fill="none" stroke="#191970" d="M2729.7146,-19.5343C2728.8036,-19.7026 2727.897,-19.8585 2727,-20 2517.965,-52.9641 1846.7439,-63.3396 1665.433,-65.5221"/>
<polygon fill="#191970" stroke="#191970" points="1665.1464,-62.0251 1655.1884,-65.6428 1665.229,-69.0246 1665.1464,-62.0251"/>
</g>
</g>
</svg>
