<?xml version="1.0" encoding="UTF-8" standalone="no"?>
<!DOCTYPE svg PUBLIC "-//W3C//DTD SVG 1.1//EN"
 "http://www.w3.org/Graphics/SVG/1.1/DTD/svg11.dtd">
<!-- Generated by graphviz version 2.40.1 (20161225.0304)
 -->
<!-- Title: src/RandomGeneratorForPCA_andLikelihood.hpp Pages: 1 -->
<svg width="2285pt" height="486pt"
 viewBox="0.00 0.00 2284.74 486.00" xmlns="http://www.w3.org/2000/svg" xmlns:xlink="http://www.w3.org/1999/xlink">
<g id="graph0" class="graph" transform="scale(1 1) rotate(0) translate(4 482)">
<title>src/RandomGeneratorForPCA_andLikelihood.hpp</title>
<polygon fill="#ffffff" stroke="transparent" points="-4,4 -4,-482 2280.7376,-482 2280.7376,4 -4,4"/>
<!-- Node0 -->
<g id="node1" class="node">
<title>Node0</title>
<polygon fill="#bfbfbf" stroke="#000000" points="1079,-447.5 1079,-477.5 1227,-477.5 1227,-447.5 1079,-447.5"/>
<text text-anchor="start" x="1087" y="-465.5" font-family="Helvetica,sans-Serif" font-size="10.00" fill="#000000">src/RandomGeneratorForPCA</text>
<text text-anchor="middle" x="1153" y="-454.5" font-family="Helvetica,sans-Serif" font-size="10.00" fill="#000000">_andLikelihood.hpp</text>
</g>
<!-- Node1 -->
<g id="node2" class="node">
<title>Node1</title>
<polygon fill="#ffffff" stroke="#bfbfbf" points="688.5,-380.5 688.5,-399.5 735.5,-399.5 735.5,-380.5 688.5,-380.5"/>
<text text-anchor="middle" x="712" y="-387.5" font-family="Helvetica,sans-Serif" font-size="10.00" fill="#000000">math.h</text>
</g>
<!-- Node0&#45;&gt;Node1 -->
<g id="edge1" class="edge">
<title>Node0&#45;&gt;Node1</title>
<path fill="none" stroke="#191970" d="M1078.675,-457.0406C978.1874,-448.9889 804.6891,-432.5279 745,-411 740.8318,-409.4967 736.6445,-407.3954 732.7187,-405.0987"/>
<polygon fill="#191970" stroke="#191970" points="734.4643,-402.0596 724.165,-399.5743 730.6665,-407.9398 734.4643,-402.0596"/>
</g>
<!-- Node2 -->
<g id="node3" class="node">
<title>Node2</title>
<g id="a_node3"><a xlink:href="../../d4/df3/compressible___mooney___transverse___isotropic___random___field_8hpp.html" target="_top" xlink:title="compressible_Mooney\l_Transverse_Isotropic\l_Random_Field.hpp">
<polygon fill="#ffffff" stroke="#000000" points="754,-369.5 754,-410.5 868,-410.5 868,-369.5 754,-369.5"/>
<text text-anchor="start" x="762" y="-398.5" font-family="Helvetica,sans-Serif" font-size="10.00" fill="#000000">compressible_Mooney</text>
<text text-anchor="start" x="762" y="-387.5" font-family="Helvetica,sans-Serif" font-size="10.00" fill="#000000">_Transverse_Isotropic</text>
<text text-anchor="middle" x="811" y="-376.5" font-family="Helvetica,sans-Serif" font-size="10.00" fill="#000000">_Random_Field.hpp</text>
</a>
</g>
</g>
<!-- Node0&#45;&gt;Node2 -->
<g id="edge2" class="edge">
<title>Node0&#45;&gt;Node2</title>
<path fill="none" stroke="#191970" d="M1078.961,-450.4835C1024.2447,-441.1062 948.0928,-427.012 882,-411 880.7351,-410.6936 879.4592,-410.3785 878.1751,-410.056"/>
<polygon fill="#191970" stroke="#191970" points="878.7781,-406.5962 868.2183,-407.4569 877.0101,-413.3692 878.7781,-406.5962"/>
</g>
<!-- Node37 -->
<g id="node28" class="node">
<title>Node37</title>
<polygon fill="#ffffff" stroke="#bfbfbf" points="602,-235.5 602,-265.5 724,-265.5 724,-235.5 602,-235.5"/>
<text text-anchor="start" x="610" y="-253.5" font-family="Helvetica,sans-Serif" font-size="10.00" fill="#000000">boost/random/mersenne</text>
<text text-anchor="middle" x="663" y="-242.5" font-family="Helvetica,sans-Serif" font-size="10.00" fill="#000000">_twister.hpp</text>
</g>
<!-- Node0&#45;&gt;Node37 -->
<g id="edge71" class="edge">
<title>Node0&#45;&gt;Node37</title>
<path fill="none" stroke="#191970" d="M1118.1532,-447.4234C1030.9756,-409.7057 803.5459,-311.3076 707.178,-269.6137"/>
<polygon fill="#191970" stroke="#191970" points="708.5646,-266.4002 697.9969,-265.6415 705.785,-272.8246 708.5646,-266.4002"/>
</g>
<!-- Node38 -->
<g id="node29" class="node">
<title>Node38</title>
<polygon fill="#ffffff" stroke="#bfbfbf" points="1018.5,-235.5 1018.5,-265.5 1129.5,-265.5 1129.5,-235.5 1018.5,-235.5"/>
<text text-anchor="start" x="1026.5" y="-253.5" font-family="Helvetica,sans-Serif" font-size="10.00" fill="#000000">boost/random/uniform</text>
<text text-anchor="middle" x="1074" y="-242.5" font-family="Helvetica,sans-Serif" font-size="10.00" fill="#000000">_real_distribution.hpp</text>
</g>
<!-- Node0&#45;&gt;Node38 -->
<g id="edge73" class="edge">
<title>Node0&#45;&gt;Node38</title>
<path fill="none" stroke="#191970" d="M1147.3185,-447.2535C1133.7958,-410.9646 1099.6019,-319.2037 1083.1368,-275.0189"/>
<polygon fill="#191970" stroke="#191970" points="1086.4016,-273.7567 1079.63,-265.6084 1079.8422,-276.2011 1086.4016,-273.7567"/>
</g>
<!-- Node40 -->
<g id="node31" class="node">
<title>Node40</title>
<polygon fill="#ffffff" stroke="#bfbfbf" points="1148,-235.5 1148,-265.5 1256,-265.5 1256,-235.5 1148,-235.5"/>
<text text-anchor="start" x="1156" y="-253.5" font-family="Helvetica,sans-Serif" font-size="10.00" fill="#000000">boost/random/normal</text>
<text text-anchor="middle" x="1202" y="-242.5" font-family="Helvetica,sans-Serif" font-size="10.00" fill="#000000">_distribution.hpp</text>
</g>
<!-- Node0&#45;&gt;Node40 -->
<g id="edge72" class="edge">
<title>Node0&#45;&gt;Node40</title>
<path fill="none" stroke="#191970" d="M1156.524,-447.2535C1164.8762,-411.1174 1185.942,-319.9754 1196.2033,-275.5796"/>
<polygon fill="#191970" stroke="#191970" points="1199.666,-276.1397 1198.508,-265.6084 1192.8458,-274.5633 1199.666,-276.1397"/>
</g>
<!-- Node41 -->
<g id="node32" class="node">
<title>Node41</title>
<polygon fill="#ffffff" stroke="#bfbfbf" points="1274,-235.5 1274,-265.5 1390,-265.5 1390,-235.5 1274,-235.5"/>
<text text-anchor="start" x="1282" y="-253.5" font-family="Helvetica,sans-Serif" font-size="10.00" fill="#000000">boost/math/special</text>
<text text-anchor="middle" x="1332" y="-242.5" font-family="Helvetica,sans-Serif" font-size="10.00" fill="#000000">_functions/gamma.hpp</text>
</g>
<!-- Node0&#45;&gt;Node41 -->
<g id="edge74" class="edge">
<title>Node0&#45;&gt;Node41</title>
<path fill="none" stroke="#191970" d="M1165.8732,-447.2535C1196.9004,-410.5062 1275.9555,-316.8767 1312.692,-273.3675"/>
<polygon fill="#191970" stroke="#191970" points="1315.4663,-275.5071 1319.2434,-265.6084 1310.1178,-270.9911 1315.4663,-275.5071"/>
</g>
<!-- Node47 -->
<g id="node38" class="node">
<title>Node47</title>
<g id="a_node38"><a xlink:href="../../d7/d17/_newton___raphsonpp_8hpp.html" target="_top" xlink:title="Newton_Raphsonpp.hpp">
<polygon fill="#ffffff" stroke="#000000" points="1411,-241 1411,-260 1535,-260 1535,-241 1411,-241"/>
<text text-anchor="middle" x="1473" y="-248" font-family="Helvetica,sans-Serif" font-size="10.00" fill="#000000">Newton_Raphsonpp.hpp</text>
</a>
</g>
</g>
<!-- Node0&#45;&gt;Node47 -->
<g id="edge40" class="edge">
<title>Node0&#45;&gt;Node47</title>
<path fill="none" stroke="#191970" d="M1175.7571,-447.4234C1234.4442,-408.5432 1390.4573,-305.1845 1449.7191,-265.9236"/>
<polygon fill="#191970" stroke="#191970" points="1451.9663,-268.6333 1458.3698,-260.1925 1448.1002,-262.7977 1451.9663,-268.6333"/>
</g>
<!-- Node58 -->
<g id="node49" class="node">
<title>Node58</title>
<g id="a_node49"><a xlink:href="../../d5/d75/distributenrldata_8hpp.html" target="_top" xlink:title="distributenrldata.hpp">
<polygon fill="#ffffff" stroke="#000000" points="2041,-112.5 2041,-131.5 2145,-131.5 2145,-112.5 2041,-112.5"/>
<text text-anchor="middle" x="2093" y="-119.5" font-family="Helvetica,sans-Serif" font-size="10.00" fill="#000000">distributenrldata.hpp</text>
</a>
</g>
</g>
<!-- Node0&#45;&gt;Node58 -->
<g id="edge53" class="edge">
<title>Node0&#45;&gt;Node58</title>
<path fill="none" stroke="#191970" d="M1227.0515,-460.7424C1477.1567,-453.8369 2275,-423.5009 2275,-317.5 2275,-317.5 2275,-317.5 2275,-250.5 2275,-212.8735 2281.9503,-195.2458 2256,-168 2241.8853,-153.1806 2194.9253,-140.8765 2155.0134,-132.734"/>
<polygon fill="#191970" stroke="#191970" points="2155.5326,-129.2689 2145.0425,-130.7546 2154.1695,-136.1349 2155.5326,-129.2689"/>
</g>
<!-- Node3 -->
<g id="node4" class="node">
<title>Node3</title>
<g id="a_node4"><a xlink:href="../../de/d49/tensor__calculus_8hpp.html" target="_top" xlink:title="tensor_calculus.hpp">
<polygon fill="#ffffff" stroke="#000000" points="605,-112.5 605,-131.5 709,-131.5 709,-112.5 605,-112.5"/>
<text text-anchor="middle" x="657" y="-119.5" font-family="Helvetica,sans-Serif" font-size="10.00" fill="#000000">tensor_calculus.hpp</text>
</a>
</g>
</g>
<!-- Node2&#45;&gt;Node3 -->
<g id="edge3" class="edge">
<title>Node2&#45;&gt;Node3</title>
<path fill="none" stroke="#191970" d="M762.5781,-369.3903C704.299,-343.4783 611.8817,-298.4626 593,-266 567.5859,-222.3065 612.1926,-166.6746 638.9864,-139.0962"/>
<polygon fill="#191970" stroke="#191970" points="641.706,-141.3271 646.3159,-131.7877 636.7633,-136.3703 641.706,-141.3271"/>
</g>
<!-- Node36 -->
<g id="node27" class="node">
<title>Node36</title>
<g id="a_node27"><a xlink:href="../../d1/dac/shinozukapp__layeredcomp__2d_8hpp.html" target="_top" xlink:title="shinozukapp_layeredcomp\l_2d.hpp">
<polygon fill="#ffffff" stroke="#000000" points="924,-302.5 924,-332.5 1056,-332.5 1056,-302.5 924,-302.5"/>
<text text-anchor="start" x="932" y="-320.5" font-family="Helvetica,sans-Serif" font-size="10.00" fill="#000000">shinozukapp_layeredcomp</text>
<text text-anchor="middle" x="990" y="-309.5" font-family="Helvetica,sans-Serif" font-size="10.00" fill="#000000">_2d.hpp</text>
</a>
</g>
</g>
<!-- Node2&#45;&gt;Node36 -->
<g id="edge26" class="edge">
<title>Node2&#45;&gt;Node36</title>
<path fill="none" stroke="#191970" d="M861.8154,-369.4183C887.4777,-359.0244 918.3943,-346.5023 943.4347,-336.3602"/>
<polygon fill="#191970" stroke="#191970" points="944.7661,-339.5972 952.7208,-332.5991 942.1383,-333.1092 944.7661,-339.5972"/>
</g>
<!-- Node43 -->
<g id="node34" class="node">
<title>Node43</title>
<g id="a_node34"><a xlink:href="../../da/d5c/compressible_hyperelasticity_8hpp.html" target="_top" xlink:title="compressibleHyperelasticity.hpp">
<polygon fill="#ffffff" stroke="#000000" points="386,-308 386,-327 544,-327 544,-308 386,-308"/>
<text text-anchor="middle" x="465" y="-315" font-family="Helvetica,sans-Serif" font-size="10.00" fill="#000000">compressibleHyperelasticity.hpp</text>
</a>
</g>
</g>
<!-- Node2&#45;&gt;Node43 -->
<g id="edge34" class="edge">
<title>Node2&#45;&gt;Node43</title>
<path fill="none" stroke="#191970" d="M753.7472,-371.5536C750.4604,-370.6512 747.1945,-369.7924 744,-369 704.6423,-359.2377 600.4978,-340.729 531.1859,-328.7632"/>
<polygon fill="#191970" stroke="#191970" points="531.6733,-325.2957 521.2242,-327.047 530.4848,-332.194 531.6733,-325.2957"/>
</g>
<!-- Node4 -->
<g id="node5" class="node">
<title>Node4</title>
<g id="a_node5"><a xlink:href="../../d0/d02/meshpp_8hpp.html" target="_top" xlink:title="meshpp.hpp">
<polygon fill="#ffffff" stroke="#ff0000" points="1052,-56.5 1052,-75.5 1122,-75.5 1122,-56.5 1052,-56.5"/>
<text text-anchor="middle" x="1087" y="-63.5" font-family="Helvetica,sans-Serif" font-size="10.00" fill="#000000">meshpp.hpp</text>
</a>
</g>
</g>
<!-- Node3&#45;&gt;Node4 -->
<g id="edge4" class="edge">
<title>Node3&#45;&gt;Node4</title>
<path fill="none" stroke="#191970" d="M709.2215,-113.9661C713.8787,-113.2864 718.5232,-112.6219 723,-112 837.6201,-96.0766 972.8753,-79.5871 1041.7524,-71.3544"/>
<polygon fill="#191970" stroke="#191970" points="1042.3083,-74.813 1051.8232,-70.1529 1041.479,-67.8622 1042.3083,-74.813"/>
</g>
<!-- Node5 -->
<g id="node6" class="node">
<title>Node5</title>
<polygon fill="#ffffff" stroke="#bfbfbf" points="2090,-.5 2090,-19.5 2136,-19.5 2136,-.5 2090,-.5"/>
<text text-anchor="middle" x="2113" y="-7.5" font-family="Helvetica,sans-Serif" font-size="10.00" fill="#000000">stdio.h</text>
</g>
<!-- Node4&#45;&gt;Node5 -->
<g id="edge5" class="edge">
<title>Node4&#45;&gt;Node5</title>
<path fill="none" stroke="#191970" d="M1122.0586,-65.5819C1273.3018,-63.5963 1871.2813,-53.8325 2079.8237,-19.7185"/>
<polygon fill="#191970" stroke="#191970" points="2080.4847,-23.1564 2089.7527,-18.0227 2079.3062,-16.2563 2080.4847,-23.1564"/>
</g>
<!-- Node6 -->
<g id="node7" class="node">
<title>Node6</title>
<polygon fill="#ffffff" stroke="#bfbfbf" points="2154,-.5 2154,-19.5 2208,-19.5 2208,-.5 2154,-.5"/>
<text text-anchor="middle" x="2181" y="-7.5" font-family="Helvetica,sans-Serif" font-size="10.00" fill="#000000">iostream</text>
</g>
<!-- Node4&#45;&gt;Node6 -->
<g id="edge6" class="edge">
<title>Node4&#45;&gt;Node6</title>
<path fill="none" stroke="#191970" d="M1122.1222,-65.5458C1279.5028,-63.3486 1921.4353,-52.6224 2143.678,-19.824"/>
<polygon fill="#191970" stroke="#191970" points="2144.2719,-23.2739 2153.6245,-18.296 2143.2089,-16.3551 2144.2719,-23.2739"/>
</g>
<!-- Node7 -->
<g id="node8" class="node">
<title>Node7</title>
<polygon fill="#ffffff" stroke="#bfbfbf" points="1576.5,-.5 1576.5,-19.5 1625.5,-19.5 1625.5,-.5 1576.5,-.5"/>
<text text-anchor="middle" x="1601" y="-7.5" font-family="Helvetica,sans-Serif" font-size="10.00" fill="#000000">istream</text>
</g>
<!-- Node4&#45;&gt;Node7 -->
<g id="edge7" class="edge">
<title>Node4&#45;&gt;Node7</title>
<path fill="none" stroke="#191970" d="M1122.2582,-64.9176C1200.5891,-62.0237 1395.0156,-52.1381 1566.3037,-19.7812"/>
<polygon fill="#191970" stroke="#191970" points="1567.0913,-23.194 1576.252,-17.8713 1565.7714,-16.3196 1567.0913,-23.194"/>
</g>
<!-- Node8 -->
<g id="node9" class="node">
<title>Node8</title>
<polygon fill="#ffffff" stroke="#bfbfbf" points="1960,-.5 1960,-19.5 2010,-19.5 2010,-.5 1960,-.5"/>
<text text-anchor="middle" x="1985" y="-7.5" font-family="Helvetica,sans-Serif" font-size="10.00" fill="#000000">fstream</text>
</g>
<!-- Node4&#45;&gt;Node8 -->
<g id="edge8" class="edge">
<title>Node4&#45;&gt;Node8</title>
<path fill="none" stroke="#191970" d="M1122.3378,-65.2157C1260.9322,-61.9731 1768.2678,-48.501 1949.9521,-19.7376"/>
<polygon fill="#191970" stroke="#191970" points="1950.6089,-23.1766 1959.9028,-18.0898 1949.4653,-16.2706 1950.6089,-23.1766"/>
</g>
<!-- Node9 -->
<g id="node10" class="node">
<title>Node9</title>
<polygon fill="#ffffff" stroke="#bfbfbf" points="2028,-.5 2028,-19.5 2072,-19.5 2072,-.5 2028,-.5"/>
<text text-anchor="middle" x="2050" y="-7.5" font-family="Helvetica,sans-Serif" font-size="10.00" fill="#000000">vector</text>
</g>
<!-- Node4&#45;&gt;Node9 -->
<g id="edge9" class="edge">
<title>Node4&#45;&gt;Node9</title>
<path fill="none" stroke="#191970" d="M1122.0912,-65.4991C1267.3233,-63.2397 1822.4764,-52.7185 2017.9618,-19.6676"/>
<polygon fill="#191970" stroke="#191970" points="2018.5905,-23.1109 2027.8283,-17.9232 2017.3716,-16.2178 2018.5905,-23.1109"/>
</g>
<!-- Node10 -->
<g id="node11" class="node">
<title>Node10</title>
<polygon fill="#ffffff" stroke="#bfbfbf" points="2226,-.5 2226,-19.5 2276,-19.5 2276,-.5 2226,-.5"/>
<text text-anchor="middle" x="2251" y="-7.5" font-family="Helvetica,sans-Serif" font-size="10.00" fill="#000000">iomanip</text>
</g>
<!-- Node4&#45;&gt;Node10 -->
<g id="edge10" class="edge">
<title>Node4&#45;&gt;Node10</title>
<path fill="none" stroke="#191970" d="M1122.2727,-65.7275C1286.5976,-64.283 1978.7009,-56.2184 2215.9692,-19.7164"/>
<polygon fill="#191970" stroke="#191970" points="2216.5875,-23.1621 2225.9088,-18.1259 2215.4814,-16.25 2216.5875,-23.1621"/>
</g>
<!-- Node11 -->
<g id="node12" class="node">
<title>Node11</title>
<polygon fill="#ffffff" stroke="#bfbfbf" points="373,-.5 373,-19.5 477,-19.5 477,-.5 373,-.5"/>
<text text-anchor="middle" x="425" y="-7.5" font-family="Helvetica,sans-Serif" font-size="10.00" fill="#000000">Epetra_MpiComm.h</text>
</g>
<!-- Node4&#45;&gt;Node11 -->
<g id="edge11" class="edge">
<title>Node4&#45;&gt;Node11</title>
<path fill="none" stroke="#191970" d="M1051.6708,-64.3607C960.1739,-59.8885 707.8286,-46.1121 487.3442,-20.0704"/>
<polygon fill="#191970" stroke="#191970" points="487.5454,-16.5697 477.2013,-18.8609 486.7166,-23.5204 487.5454,-16.5697"/>
</g>
<!-- Node12 -->
<g id="node13" class="node">
<title>Node12</title>
<polygon fill="#ffffff" stroke="#bfbfbf" points="495.5,-.5 495.5,-19.5 608.5,-19.5 608.5,-.5 495.5,-.5"/>
<text text-anchor="middle" x="552" y="-7.5" font-family="Helvetica,sans-Serif" font-size="10.00" fill="#000000">Epetra_FECrsGraph.h</text>
</g>
<!-- Node4&#45;&gt;Node12 -->
<g id="edge12" class="edge">
<title>Node4&#45;&gt;Node12</title>
<path fill="none" stroke="#191970" d="M1051.9236,-63.1947C975.3559,-56.9348 787.2985,-40.8194 618.8949,-20.0549"/>
<polygon fill="#191970" stroke="#191970" points="619.2105,-16.5673 608.8554,-18.8085 618.348,-23.514 619.2105,-16.5673"/>
</g>
<!-- Node13 -->
<g id="node14" class="node">
<title>Node13</title>
<polygon fill="#ffffff" stroke="#bfbfbf" points="627,-.5 627,-19.5 741,-19.5 741,-.5 627,-.5"/>
<text text-anchor="middle" x="684" y="-7.5" font-family="Helvetica,sans-Serif" font-size="10.00" fill="#000000">Epetra_FECrsMatrix.h</text>
</g>
<!-- Node4&#45;&gt;Node13 -->
<g id="edge13" class="edge">
<title>Node4&#45;&gt;Node13</title>
<path fill="none" stroke="#191970" d="M1051.5573,-61.3366C991.8598,-53.4439 867.2014,-36.8002 751.3365,-20.177"/>
<polygon fill="#191970" stroke="#191970" points="751.6262,-16.6828 741.2298,-18.7238 750.6299,-23.6115 751.6262,-16.6828"/>
</g>
<!-- Node14 -->
<g id="node15" class="node">
<title>Node14</title>
<polygon fill="#ffffff" stroke="#bfbfbf" points="759,-.5 759,-19.5 859,-19.5 859,-.5 759,-.5"/>
<text text-anchor="middle" x="809" y="-7.5" font-family="Helvetica,sans-Serif" font-size="10.00" fill="#000000">Epetra_FEVector.h</text>
</g>
<!-- Node4&#45;&gt;Node14 -->
<g id="edge14" class="edge">
<title>Node4&#45;&gt;Node14</title>
<path fill="none" stroke="#191970" d="M1051.7911,-58.9076C1005.1635,-49.515 922.3339,-32.8299 866.5485,-21.5925"/>
<polygon fill="#191970" stroke="#191970" points="866.956,-18.1044 856.4617,-19.5606 865.5736,-24.9665 866.956,-18.1044"/>
</g>
<!-- Node15 -->
<g id="node16" class="node">
<title>Node15</title>
<polygon fill="#ffffff" stroke="#bfbfbf" points="877.5,-.5 877.5,-19.5 964.5,-19.5 964.5,-.5 877.5,-.5"/>
<text text-anchor="middle" x="921" y="-7.5" font-family="Helvetica,sans-Serif" font-size="10.00" fill="#000000">Epetra_Vector.h</text>
</g>
<!-- Node4&#45;&gt;Node15 -->
<g id="edge15" class="edge">
<title>Node4&#45;&gt;Node15</title>
<path fill="none" stroke="#191970" d="M1058.4636,-56.3733C1030.9798,-47.1016 989.2314,-33.0178 958.9548,-22.804"/>
<polygon fill="#191970" stroke="#191970" points="959.7582,-19.3813 949.164,-19.5011 957.5206,-26.0141 959.7582,-19.3813"/>
</g>
<!-- Node16 -->
<g id="node17" class="node">
<title>Node16</title>
<polygon fill="#ffffff" stroke="#bfbfbf" points="982.5,-.5 982.5,-19.5 1059.5,-19.5 1059.5,-.5 982.5,-.5"/>
<text text-anchor="middle" x="1021" y="-7.5" font-family="Helvetica,sans-Serif" font-size="10.00" fill="#000000">Epetra_Map.h</text>
</g>
<!-- Node4&#45;&gt;Node16 -->
<g id="edge16" class="edge">
<title>Node4&#45;&gt;Node16</title>
<path fill="none" stroke="#191970" d="M1075.5037,-56.2455C1065.7558,-47.9746 1051.5741,-35.9416 1040.1202,-26.2232"/>
<polygon fill="#191970" stroke="#191970" points="1042.2541,-23.4437 1032.3646,-19.6427 1037.7253,-28.7813 1042.2541,-23.4437"/>
</g>
<!-- Node17 -->
<g id="node18" class="node">
<title>Node17</title>
<polygon fill="#ffffff" stroke="#bfbfbf" points="1802.5,-.5 1802.5,-19.5 1941.5,-19.5 1941.5,-.5 1802.5,-.5"/>
<text text-anchor="middle" x="1872" y="-7.5" font-family="Helvetica,sans-Serif" font-size="10.00" fill="#000000">Epetra_SerialDenseMatrix.h</text>
</g>
<!-- Node4&#45;&gt;Node17 -->
<g id="edge17" class="edge">
<title>Node4&#45;&gt;Node17</title>
<path fill="none" stroke="#191970" d="M1122.322,-64.4602C1224.3365,-59.8513 1528.3809,-44.9772 1792.0867,-20.0316"/>
<polygon fill="#191970" stroke="#191970" points="1792.6158,-23.4971 1802.2388,-19.0643 1791.9518,-16.5287 1792.6158,-23.4971"/>
</g>
<!-- Node18 -->
<g id="node19" class="node">
<title>Node18</title>
<polygon fill="#ffffff" stroke="#bfbfbf" points="1644,-.5 1644,-19.5 1784,-19.5 1784,-.5 1644,-.5"/>
<text text-anchor="middle" x="1714" y="-7.5" font-family="Helvetica,sans-Serif" font-size="10.00" fill="#000000">Epetra_SerialDenseVector.h</text>
</g>
<!-- Node4&#45;&gt;Node18 -->
<g id="edge18" class="edge">
<title>Node4&#45;&gt;Node18</title>
<path fill="none" stroke="#191970" d="M1122.3098,-63.5547C1208.0202,-57.5079 1434.1046,-40.8937 1633.7204,-20.098"/>
<polygon fill="#191970" stroke="#191970" points="1634.2257,-23.5643 1643.8066,-19.0412 1633.4963,-16.6024 1634.2257,-23.5643"/>
</g>
<!-- Node19 -->
<g id="node20" class="node">
<title>Node19</title>
<polygon fill="#ffffff" stroke="#bfbfbf" points="1078,-.5 1078,-19.5 1230,-19.5 1230,-.5 1078,-.5"/>
<text text-anchor="middle" x="1154" y="-7.5" font-family="Helvetica,sans-Serif" font-size="10.00" fill="#000000">Epetra_IntSerialDenseVector.h</text>
</g>
<!-- Node4&#45;&gt;Node19 -->
<g id="edge19" class="edge">
<title>Node4&#45;&gt;Node19</title>
<path fill="none" stroke="#191970" d="M1098.6705,-56.2455C1108.5661,-47.9746 1122.9627,-35.9416 1134.5901,-26.2232"/>
<polygon fill="#191970" stroke="#191970" points="1137.035,-28.7413 1142.4632,-19.6427 1132.5458,-23.3703 1137.035,-28.7413"/>
</g>
<!-- Node20 -->
<g id="node21" class="node">
<title>Node20</title>
<polygon fill="#ffffff" stroke="#bfbfbf" points="1248,-.5 1248,-19.5 1334,-19.5 1334,-.5 1248,-.5"/>
<text text-anchor="middle" x="1291" y="-7.5" font-family="Helvetica,sans-Serif" font-size="10.00" fill="#000000">Epetra_Import.h</text>
</g>
<!-- Node4&#45;&gt;Node20 -->
<g id="edge20" class="edge">
<title>Node4&#45;&gt;Node20</title>
<path fill="none" stroke="#191970" d="M1122.0689,-56.3733C1156.4315,-46.9404 1208.9392,-32.5265 1246.2851,-22.2747"/>
<polygon fill="#191970" stroke="#191970" points="1247.672,-25.5235 1256.3888,-19.5011 1245.819,-18.7732 1247.672,-25.5235"/>
</g>
<!-- Node21 -->
<g id="node22" class="node">
<title>Node21</title>
<polygon fill="#ffffff" stroke="#bfbfbf" points="1352.5,-.5 1352.5,-19.5 1439.5,-19.5 1439.5,-.5 1352.5,-.5"/>
<text text-anchor="middle" x="1396" y="-7.5" font-family="Helvetica,sans-Serif" font-size="10.00" fill="#000000">Epetra_Export.h</text>
</g>
<!-- Node4&#45;&gt;Node21 -->
<g id="edge21" class="edge">
<title>Node4&#45;&gt;Node21</title>
<path fill="none" stroke="#191970" d="M1122.2156,-59.7721C1169.7056,-51.3515 1257.1836,-35.7638 1342.2433,-20.1273"/>
<polygon fill="#191970" stroke="#191970" points="1343.1317,-23.5227 1352.3329,-18.2702 1341.8645,-16.6383 1343.1317,-23.5227"/>
</g>
<!-- Node22 -->
<g id="node23" class="node">
<title>Node22</title>
<polygon fill="#ffffff" stroke="#bfbfbf" points="0,-.5 0,-19.5 80,-19.5 80,-.5 0,-.5"/>
<text text-anchor="middle" x="40" y="-7.5" font-family="Helvetica,sans-Serif" font-size="10.00" fill="#000000">Epetra_Time.h</text>
</g>
<!-- Node4&#45;&gt;Node22 -->
<g id="edge22" class="edge">
<title>Node4&#45;&gt;Node22</title>
<path fill="none" stroke="#191970" d="M1051.8715,-65.1136C900.3164,-61.1786 300.9902,-44.4511 90.0741,-19.9081"/>
<polygon fill="#191970" stroke="#191970" points="90.375,-16.4191 80.0277,-18.696 89.5365,-23.3687 90.375,-16.4191"/>
</g>
<!-- Node23 -->
<g id="node24" class="node">
<title>Node23</title>
<polygon fill="#ffffff" stroke="#bfbfbf" points="98.5,-.5 98.5,-19.5 245.5,-19.5 245.5,-.5 98.5,-.5"/>
<text text-anchor="middle" x="172" y="-7.5" font-family="Helvetica,sans-Serif" font-size="10.00" fill="#000000">ml_MultiLevelPreconditioner.h</text>
</g>
<!-- Node4&#45;&gt;Node23 -->
<g id="edge23" class="edge">
<title>Node4&#45;&gt;Node23</title>
<path fill="none" stroke="#191970" d="M1051.6211,-64.8846C937.7623,-61.1177 570.3953,-47.5839 255.9571,-20.1248"/>
<polygon fill="#191970" stroke="#191970" points="256.0012,-16.6153 245.7329,-19.2254 255.3877,-23.5883 256.0012,-16.6153"/>
</g>
<!-- Node24 -->
<g id="node25" class="node">
<title>Node24</title>
<polygon fill="#ffffff" stroke="#bfbfbf" points="263.5,-.5 263.5,-19.5 354.5,-19.5 354.5,-.5 263.5,-.5"/>
<text text-anchor="middle" x="309" y="-7.5" font-family="Helvetica,sans-Serif" font-size="10.00" fill="#000000">ml_epetra_utils.h</text>
</g>
<!-- Node4&#45;&gt;Node24 -->
<g id="edge24" class="edge">
<title>Node4&#45;&gt;Node24</title>
<path fill="none" stroke="#191970" d="M1051.88,-65.2126C948.2906,-62.5835 634.8877,-52.4304 364.5581,-19.9199"/>
<polygon fill="#191970" stroke="#191970" points="364.9054,-16.4365 354.5562,-18.7044 364.0609,-23.3853 364.9054,-16.4365"/>
</g>
<!-- Node30 -->
<g id="node26" class="node">
<title>Node30</title>
<polygon fill="#ffffff" stroke="#bfbfbf" points="1458,-.5 1458,-19.5 1558,-19.5 1558,-.5 1458,-.5"/>
<text text-anchor="middle" x="1508" y="-7.5" font-family="Helvetica,sans-Serif" font-size="10.00" fill="#000000">Teuchos_RCP.hpp</text>
</g>
<!-- Node4&#45;&gt;Node30 -->
<g id="edge25" class="edge">
<title>Node4&#45;&gt;Node30</title>
<path fill="none" stroke="#191970" d="M1122.1636,-61.974C1186.7909,-54.4735 1328.7647,-37.5264 1448,-20 1448.1012,-19.9851 1448.2025,-19.9702 1448.3039,-19.9553"/>
<polygon fill="#191970" stroke="#191970" points="1448.5716,-23.4549 1457.9323,-18.4923 1447.52,-16.5343 1448.5716,-23.4549"/>
</g>
<!-- Node36&#45;&gt;Node4 -->
<g id="edge27" class="edge">
<title>Node36&#45;&gt;Node4</title>
<path fill="none" stroke="#191970" d="M990.945,-302.2617C991.2023,-283.5788 988.5508,-252.2754 970,-235 897.0645,-167.0791 696.8067,-248.181 756,-168 790.2922,-121.5492 959.3948,-87.391 1041.7569,-73.2215"/>
<polygon fill="#191970" stroke="#191970" points="1042.5571,-76.6359 1051.8314,-71.5137 1041.3871,-69.7344 1042.5571,-76.6359"/>
</g>
<!-- Node36&#45;&gt;Node37 -->
<g id="edge28" class="edge">
<title>Node36&#45;&gt;Node37</title>
<path fill="none" stroke="#191970" d="M923.8993,-304.6343C874.2808,-294.8889 804.4031,-280.9799 734.0029,-266.1904"/>
<polygon fill="#191970" stroke="#191970" points="734.5744,-262.7341 724.0677,-264.0981 733.1318,-269.5838 734.5744,-262.7341"/>
</g>
<!-- Node36&#45;&gt;Node38 -->
<g id="edge29" class="edge">
<title>Node36&#45;&gt;Node38</title>
<path fill="none" stroke="#191970" d="M1009.0609,-302.2967C1020.2304,-293.3876 1034.5223,-281.9882 1046.8533,-272.1527"/>
<polygon fill="#191970" stroke="#191970" points="1049.3792,-274.615 1055.0145,-265.6432 1045.0143,-269.1426 1049.3792,-274.615"/>
</g>
<!-- Node39 -->
<g id="node30" class="node">
<title>Node39</title>
<polygon fill="#ffffff" stroke="#bfbfbf" points="862.5,-235.5 862.5,-265.5 961.5,-265.5 961.5,-235.5 862.5,-235.5"/>
<text text-anchor="start" x="870.5" y="-253.5" font-family="Helvetica,sans-Serif" font-size="10.00" fill="#000000">boost/math/special</text>
<text text-anchor="middle" x="912" y="-242.5" font-family="Helvetica,sans-Serif" font-size="10.00" fill="#000000">_functions/erf.hpp</text>
</g>
<!-- Node36&#45;&gt;Node39 -->
<g id="edge30" class="edge">
<title>Node36&#45;&gt;Node39</title>
<path fill="none" stroke="#191970" d="M972.3006,-302.2967C962.0286,-293.4733 948.9128,-282.2072 937.5384,-272.4368"/>
<polygon fill="#191970" stroke="#191970" points="939.4957,-269.5041 929.6294,-265.6432 934.9345,-274.8141 939.4957,-269.5041"/>
</g>
<!-- Node36&#45;&gt;Node40 -->
<g id="edge31" class="edge">
<title>Node36&#45;&gt;Node40</title>
<path fill="none" stroke="#191970" d="M1037.5769,-302.4639C1069.2437,-292.456 1111.0269,-279.2509 1144.5479,-268.657"/>
<polygon fill="#191970" stroke="#191970" points="1145.7351,-271.9525 1154.2156,-265.6017 1143.6257,-265.2779 1145.7351,-271.9525"/>
</g>
<!-- Node36&#45;&gt;Node41 -->
<g id="edge32" class="edge">
<title>Node36&#45;&gt;Node41</title>
<path fill="none" stroke="#191970" d="M1056.2781,-305.8975C1109.7871,-296.3445 1187.252,-282.0975 1264.0766,-266.148"/>
<polygon fill="#191970" stroke="#191970" points="1264.8542,-269.5612 1273.9284,-264.0924 1263.4244,-262.7088 1264.8542,-269.5612"/>
</g>
<!-- Node42 -->
<g id="node33" class="node">
<title>Node42</title>
<polygon fill="#ffffff" stroke="#bfbfbf" points="742,-235.5 742,-265.5 844,-265.5 844,-235.5 742,-235.5"/>
<text text-anchor="start" x="750" y="-253.5" font-family="Helvetica,sans-Serif" font-size="10.00" fill="#000000">boost/math/special</text>
<text text-anchor="middle" x="793" y="-242.5" font-family="Helvetica,sans-Serif" font-size="10.00" fill="#000000">_functions/beta.hpp</text>
</g>
<!-- Node36&#45;&gt;Node42 -->
<g id="edge33" class="edge">
<title>Node36&#45;&gt;Node42</title>
<path fill="none" stroke="#191970" d="M945.7894,-302.4639C916.6158,-292.5419 878.2022,-279.4774 847.1909,-268.9304"/>
<polygon fill="#191970" stroke="#191970" points="847.9979,-265.508 837.4035,-265.6017 845.7439,-272.1352 847.9979,-265.508"/>
</g>
<!-- Node44 -->
<g id="node35" class="node">
<title>Node44</title>
<g id="a_node35"><a xlink:href="../../d2/d34/hyperelasticity_8hpp.html" target="_top" xlink:title="hyperelasticity.hpp">
<polygon fill="#ffffff" stroke="#000000" points="412,-241 412,-260 510,-260 510,-241 412,-241"/>
<text text-anchor="middle" x="461" y="-248" font-family="Helvetica,sans-Serif" font-size="10.00" fill="#000000">hyperelasticity.hpp</text>
</a>
</g>
</g>
<!-- Node43&#45;&gt;Node44 -->
<g id="edge35" class="edge">
<title>Node43&#45;&gt;Node44</title>
<path fill="none" stroke="#191970" d="M464.4269,-307.9005C463.8447,-298.149 462.926,-282.7597 462.1862,-270.3695"/>
<polygon fill="#191970" stroke="#191970" points="465.6619,-269.8553 461.572,-260.0817 458.6743,-270.2725 465.6619,-269.8553"/>
</g>
<!-- Node45 -->
<g id="node36" class="node">
<title>Node45</title>
<g id="a_node36"><a xlink:href="../../da/da3/non_linear_finite_element_problem_8hpp.html" target="_top" xlink:title="nonLinearFiniteElementProblem.hpp">
<polygon fill="#ffffff" stroke="#000000" points="372.5,-174 372.5,-193 545.5,-193 545.5,-174 372.5,-174"/>
<text text-anchor="middle" x="459" y="-181" font-family="Helvetica,sans-Serif" font-size="10.00" fill="#000000">nonLinearFiniteElementProblem.hpp</text>
</a>
</g>
</g>
<!-- Node44&#45;&gt;Node45 -->
<g id="edge36" class="edge">
<title>Node44&#45;&gt;Node45</title>
<path fill="none" stroke="#191970" d="M460.7134,-240.9005C460.4224,-231.149 459.963,-215.7597 459.5931,-203.3695"/>
<polygon fill="#191970" stroke="#191970" points="463.0829,-202.9727 459.286,-193.0817 456.086,-203.1817 463.0829,-202.9727"/>
</g>
<!-- Node45&#45;&gt;Node4 -->
<g id="edge37" class="edge">
<title>Node45&#45;&gt;Node4</title>
<path fill="none" stroke="#191970" d="M457.7711,-173.8728C456.3776,-158.246 456.2555,-127.5459 474,-112 516.4,-74.8533 906.3467,-67.6894 1041.2955,-66.3201"/>
<polygon fill="#191970" stroke="#191970" points="1041.72,-69.8163 1051.6862,-66.2211 1041.6533,-62.8166 1041.72,-69.8163"/>
</g>
<!-- Node46 -->
<g id="node37" class="node">
<title>Node46</title>
<g id="a_node37"><a xlink:href="../../dd/d80/base_class_f_e_m_8hpp.html" target="_top" xlink:title="baseClassFEM.hpp">
<polygon fill="#ffffff" stroke="#000000" points="483.5,-112.5 483.5,-131.5 586.5,-131.5 586.5,-112.5 483.5,-112.5"/>
<text text-anchor="middle" x="535" y="-119.5" font-family="Helvetica,sans-Serif" font-size="10.00" fill="#000000">baseClassFEM.hpp</text>
</a>
</g>
</g>
<!-- Node45&#45;&gt;Node46 -->
<g id="edge38" class="edge">
<title>Node45&#45;&gt;Node46</title>
<path fill="none" stroke="#191970" d="M470.875,-173.8906C482.6297,-164.3786 500.8486,-149.6357 514.8672,-138.2917"/>
<polygon fill="#191970" stroke="#191970" points="517.3856,-140.7562 522.9576,-131.7449 512.9822,-135.3146 517.3856,-140.7562"/>
</g>
<!-- Node46&#45;&gt;Node4 -->
<g id="edge39" class="edge">
<title>Node46&#45;&gt;Node4</title>
<path fill="none" stroke="#191970" d="M586.548,-113.2926C589.7431,-112.8326 592.9133,-112.3971 596,-112 759.6068,-90.9513 955.0622,-75.5301 1041.7568,-69.1883"/>
<polygon fill="#191970" stroke="#191970" points="1042.0606,-72.6755 1051.7807,-68.4601 1041.5534,-65.6939 1042.0606,-72.6755"/>
</g>
<!-- Node47&#45;&gt;Node30 -->
<g id="edge42" class="edge">
<title>Node47&#45;&gt;Node30</title>
<path fill="none" stroke="#191970" d="M1535.2308,-246.6063C1638.7516,-239.4893 1837.0992,-222.8828 1858,-199 1867.0736,-188.6319 1865.4741,-179.5743 1858,-168 1822.3854,-112.8471 1634.4093,-49.0388 1549.5882,-22.5374"/>
<polygon fill="#191970" stroke="#191970" points="1550.602,-19.1874 1540.014,-19.5678 1548.5283,-25.8732 1550.602,-19.1874"/>
</g>
<!-- Node47&#45;&gt;Node45 -->
<g id="edge41" class="edge">
<title>Node47&#45;&gt;Node45</title>
<path fill="none" stroke="#191970" d="M1432.864,-240.9366C1421.9364,-238.6499 1410.0621,-236.453 1399,-235 1378.3048,-232.2817 791.7625,-201.0916 555.8681,-188.6135"/>
<polygon fill="#191970" stroke="#191970" points="555.7539,-185.1027 545.583,-188.0696 555.3842,-192.0929 555.7539,-185.1027"/>
</g>
<!-- Node48 -->
<g id="node39" class="node">
<title>Node48</title>
<polygon fill="#ffffff" stroke="#bfbfbf" points="1905,-174 1905,-193 1957,-193 1957,-174 1905,-174"/>
<text text-anchor="middle" x="1931" y="-181" font-family="Helvetica,sans-Serif" font-size="10.00" fill="#000000">Ifpack.h</text>
</g>
<!-- Node47&#45;&gt;Node48 -->
<g id="edge43" class="edge">
<title>Node47&#45;&gt;Node48</title>
<path fill="none" stroke="#191970" d="M1535.1414,-247.6382C1617.564,-242.7595 1767.077,-230.1332 1891,-199 1893.8441,-198.2855 1896.7596,-197.4241 1899.6572,-196.4779"/>
<polygon fill="#191970" stroke="#191970" points="1901.0739,-199.6884 1909.3105,-193.0244 1898.7159,-193.0974 1901.0739,-199.6884"/>
</g>
<!-- Node49 -->
<g id="node40" class="node">
<title>Node49</title>
<polygon fill="#ffffff" stroke="#bfbfbf" points="1975.5,-174 1975.5,-193 2106.5,-193 2106.5,-174 1975.5,-174"/>
<text text-anchor="middle" x="2041" y="-181" font-family="Helvetica,sans-Serif" font-size="10.00" fill="#000000">Ifpack_AdditiveSchwarz.h</text>
</g>
<!-- Node47&#45;&gt;Node49 -->
<g id="edge44" class="edge">
<title>Node47&#45;&gt;Node49</title>
<path fill="none" stroke="#191970" d="M1535.1285,-246.0089C1628.8607,-238.7825 1811.868,-222.9165 1966,-199 1973.3998,-197.8518 1981.1737,-196.4586 1988.799,-194.9837"/>
<polygon fill="#191970" stroke="#191970" points="1989.5706,-198.3989 1998.6935,-193.0117 1988.2023,-191.5339 1989.5706,-198.3989"/>
</g>
<!-- Node50 -->
<g id="node41" class="node">
<title>Node50</title>
<polygon fill="#ffffff" stroke="#bfbfbf" points="2125,-174 2125,-193 2247,-193 2247,-174 2125,-174"/>
<text text-anchor="middle" x="2186" y="-181" font-family="Helvetica,sans-Serif" font-size="10.00" fill="#000000">BelosLinearProblem.hpp</text>
</g>
<!-- Node47&#45;&gt;Node50 -->
<g id="edge45" class="edge">
<title>Node47&#45;&gt;Node50</title>
<path fill="none" stroke="#191970" d="M1535.3976,-248.3635C1650.6515,-243.7836 1904.4676,-230.7358 2116,-199 2122.8644,-197.9701 2130.0598,-196.6535 2137.1163,-195.2238"/>
<polygon fill="#191970" stroke="#191970" points="2138.2421,-198.5631 2147.3008,-193.0685 2136.7928,-191.7148 2138.2421,-198.5631"/>
</g>
<!-- Node51 -->
<g id="node42" class="node">
<title>Node51</title>
<polygon fill="#ffffff" stroke="#bfbfbf" points="765.5,-174 765.5,-193 910.5,-193 910.5,-174 765.5,-174"/>
<text text-anchor="middle" x="838" y="-181" font-family="Helvetica,sans-Serif" font-size="10.00" fill="#000000">BelosBlockGmresSolMgr.hpp</text>
</g>
<!-- Node47&#45;&gt;Node51 -->
<g id="edge46" class="edge">
<title>Node47&#45;&gt;Node51</title>
<path fill="none" stroke="#191970" d="M1432.0706,-240.9253C1421.3578,-238.6949 1409.7869,-236.5283 1399,-235 1187.6217,-205.0516 1131.6624,-226.8698 920,-199 911.3377,-197.8594 902.2062,-196.3961 893.3073,-194.8254"/>
<polygon fill="#191970" stroke="#191970" points="893.862,-191.3689 883.3963,-193.0178 892.606,-198.2553 893.862,-191.3689"/>
</g>
<!-- Node52 -->
<g id="node43" class="node">
<title>Node52</title>
<polygon fill="#ffffff" stroke="#bfbfbf" points="929,-174 929,-193 1051,-193 1051,-174 929,-174"/>
<text text-anchor="middle" x="990" y="-181" font-family="Helvetica,sans-Serif" font-size="10.00" fill="#000000">BelosEpetraAdapter.hpp</text>
</g>
<!-- Node47&#45;&gt;Node52 -->
<g id="edge47" class="edge">
<title>Node47&#45;&gt;Node52</title>
<path fill="none" stroke="#191970" d="M1431.2608,-240.9911C1420.7676,-238.8121 1409.5027,-236.6533 1399,-235 1249.3293,-211.4392 1209.5336,-223.4164 1060,-199 1053.3146,-197.9084 1046.3081,-196.5804 1039.4192,-195.1659"/>
<polygon fill="#191970" stroke="#191970" points="1039.9707,-191.705 1029.4615,-193.049 1038.5151,-198.552 1039.9707,-191.705"/>
</g>
<!-- Node53 -->
<g id="node44" class="node">
<title>Node53</title>
<polygon fill="#ffffff" stroke="#bfbfbf" points="1069.5,-174 1069.5,-193 1190.5,-193 1190.5,-174 1069.5,-174"/>
<text text-anchor="middle" x="1130" y="-181" font-family="Helvetica,sans-Serif" font-size="10.00" fill="#000000">BelosSolverFactory.hpp</text>
</g>
<!-- Node47&#45;&gt;Node53 -->
<g id="edge48" class="edge">
<title>Node47&#45;&gt;Node53</title>
<path fill="none" stroke="#191970" d="M1428.4305,-240.9576C1418.7386,-238.9404 1408.5334,-236.8604 1399,-235 1310.784,-217.7852 1288.1161,-216.719 1200,-199 1194.1369,-197.821 1188.0089,-196.5386 1181.9219,-195.2331"/>
<polygon fill="#191970" stroke="#191970" points="1182.2857,-191.7306 1171.7707,-193.0284 1180.8,-198.5711 1182.2857,-191.7306"/>
</g>
<!-- Node54 -->
<g id="node45" class="node">
<title>Node54</title>
<polygon fill="#ffffff" stroke="#bfbfbf" points="1209,-174 1209,-193 1385,-193 1385,-174 1209,-174"/>
<text text-anchor="middle" x="1297" y="-181" font-family="Helvetica,sans-Serif" font-size="10.00" fill="#000000">Teuchos_StandardCatchMacros.hpp</text>
</g>
<!-- Node47&#45;&gt;Node54 -->
<g id="edge49" class="edge">
<title>Node47&#45;&gt;Node54</title>
<path fill="none" stroke="#191970" d="M1447.7835,-240.9005C1417.3319,-229.3082 1365.9515,-209.7486 1331.757,-196.7313"/>
<polygon fill="#191970" stroke="#191970" points="1332.7607,-193.3685 1322.1697,-193.0817 1330.2702,-199.9105 1332.7607,-193.3685"/>
</g>
<!-- Node55 -->
<g id="node46" class="node">
<title>Node55</title>
<polygon fill="#ffffff" stroke="#bfbfbf" points="1403.5,-174 1403.5,-193 1542.5,-193 1542.5,-174 1403.5,-174"/>
<text text-anchor="middle" x="1473" y="-181" font-family="Helvetica,sans-Serif" font-size="10.00" fill="#000000">Teuchos_ParameterList.hpp</text>
</g>
<!-- Node47&#45;&gt;Node55 -->
<g id="edge50" class="edge">
<title>Node47&#45;&gt;Node55</title>
<path fill="none" stroke="#191970" d="M1473,-240.9005C1473,-231.149 1473,-215.7597 1473,-203.3695"/>
<polygon fill="#191970" stroke="#191970" points="1476.5001,-203.0816 1473,-193.0817 1469.5001,-203.0817 1476.5001,-203.0816"/>
</g>
<!-- Node56 -->
<g id="node47" class="node">
<title>Node56</title>
<polygon fill="#ffffff" stroke="#bfbfbf" points="1561,-168.5 1561,-198.5 1701,-198.5 1701,-168.5 1561,-168.5"/>
<text text-anchor="start" x="1569" y="-186.5" font-family="Helvetica,sans-Serif" font-size="10.00" fill="#000000">Teuchos_XMLParameterList</text>
<text text-anchor="middle" x="1631" y="-175.5" font-family="Helvetica,sans-Serif" font-size="10.00" fill="#000000">CoreHelpers.hpp</text>
</g>
<!-- Node47&#45;&gt;Node56 -->
<g id="edge51" class="edge">
<title>Node47&#45;&gt;Node56</title>
<path fill="none" stroke="#191970" d="M1495.6375,-240.9005C1519.1983,-230.9096 1556.715,-215.0006 1586.2827,-202.4624"/>
<polygon fill="#191970" stroke="#191970" points="1587.7355,-205.6481 1595.5755,-198.5218 1585.0027,-199.2036 1587.7355,-205.6481"/>
</g>
<!-- Node57 -->
<g id="node48" class="node">
<title>Node57</title>
<polygon fill="#ffffff" stroke="#bfbfbf" points="1719.5,-168.5 1719.5,-198.5 1848.5,-198.5 1848.5,-168.5 1719.5,-168.5"/>
<text text-anchor="start" x="1727.5" y="-186.5" font-family="Helvetica,sans-Serif" font-size="10.00" fill="#000000">Stratimikos_DefaultLinear</text>
<text text-anchor="middle" x="1784" y="-175.5" font-family="Helvetica,sans-Serif" font-size="10.00" fill="#000000">SolverBuilder.hpp</text>
</g>
<!-- Node47&#45;&gt;Node57 -->
<g id="edge52" class="edge">
<title>Node47&#45;&gt;Node57</title>
<path fill="none" stroke="#191970" d="M1517.2284,-240.9717C1567.2677,-230.1915 1649.5897,-212.4566 1709.5707,-199.5346"/>
<polygon fill="#191970" stroke="#191970" points="1710.3325,-202.9509 1719.371,-197.4233 1708.8582,-196.1079 1710.3325,-202.9509"/>
</g>
<!-- Node58&#45;&gt;Node4 -->
<g id="edge70" class="edge">
<title>Node58&#45;&gt;Node4</title>
<path fill="none" stroke="#191970" d="M2040.681,-119.0876C1864.9632,-109.3061 1297.7297,-77.7305 1132.5362,-68.5348"/>
<polygon fill="#191970" stroke="#191970" points="1132.4242,-65.0233 1122.2451,-67.962 1132.035,-72.0124 1132.4242,-65.0233"/>
</g>
<!-- Node58&#45;&gt;Node5 -->
<g id="edge54" class="edge">
<title>Node58&#45;&gt;Node5</title>
<path fill="none" stroke="#191970" d="M2096.5961,-112.277C2099.8494,-103.0664 2104.5016,-88.7806 2107,-76 2109.9707,-60.8036 2111.4761,-43.3451 2112.2359,-30.2024"/>
<polygon fill="#191970" stroke="#191970" points="2115.7455,-30.0857 2112.7298,-19.9292 2108.7536,-29.7495 2115.7455,-30.0857"/>
</g>
<!-- Node58&#45;&gt;Node6 -->
<g id="edge55" class="edge">
<title>Node58&#45;&gt;Node6</title>
<path fill="none" stroke="#191970" d="M2100.5028,-112.4509C2115.3101,-93.6054 2148.4833,-51.3849 2167.2957,-27.4419"/>
<polygon fill="#191970" stroke="#191970" points="2170.09,-29.5505 2173.5162,-19.5249 2164.5858,-25.2257 2170.09,-29.5505"/>
</g>
<!-- Node58&#45;&gt;Node7 -->
<g id="edge56" class="edge">
<title>Node58&#45;&gt;Node7</title>
<path fill="none" stroke="#191970" d="M2054.5106,-112.4479C2022.2057,-104.039 1975.0486,-90.8448 1935,-76 1914.8582,-68.5341 1911.6255,-62.0018 1891,-56 1783.8028,-24.807 1749.2557,-43.1629 1635.8913,-19.8857"/>
<polygon fill="#191970" stroke="#191970" points="1636.2828,-16.391 1625.7744,-17.742 1634.8317,-23.2389 1636.2828,-16.391"/>
</g>
<!-- Node58&#45;&gt;Node8 -->
<g id="edge57" class="edge">
<title>Node58&#45;&gt;Node8</title>
<path fill="none" stroke="#191970" d="M2085.2401,-112.2716C2074.5901,-99.0976 2054.6379,-75.0437 2036,-56 2025.9659,-45.7474 2014.0988,-34.9715 2004.3378,-26.4287"/>
<polygon fill="#191970" stroke="#191970" points="2006.573,-23.7344 1996.7204,-19.8385 2001.993,-29.0282 2006.573,-23.7344"/>
</g>
<!-- Node58&#45;&gt;Node9 -->
<g id="edge58" class="edge">
<title>Node58&#45;&gt;Node9</title>
<path fill="none" stroke="#191970" d="M2089.553,-112.1107C2085.005,-99.1602 2076.6762,-75.7773 2069,-56 2065.5707,-47.1646 2061.592,-37.4557 2058.1642,-29.2439"/>
<polygon fill="#191970" stroke="#191970" points="2061.3041,-27.6814 2054.1999,-19.8213 2054.8519,-30.396 2061.3041,-27.6814"/>
</g>
<!-- Node58&#45;&gt;Node10 -->
<g id="edge59" class="edge">
<title>Node58&#45;&gt;Node10</title>
<path fill="none" stroke="#191970" d="M2106.471,-112.4509C2133.7563,-93.1094 2195.7754,-49.1465 2229.0064,-25.5904"/>
<polygon fill="#191970" stroke="#191970" points="2231.429,-28.1633 2237.5631,-19.5249 2227.3808,-22.4526 2231.429,-28.1633"/>
</g>
<!-- Node59 -->
<g id="node50" class="node">
<title>Node59</title>
<g id="a_node50"><a xlink:href="../../d2/d81/readnrldata_8hpp.html" target="_top" xlink:title="readnrldata.hpp">
<polygon fill="#ffffff" stroke="#000000" points="1943.5,-56.5 1943.5,-75.5 2026.5,-75.5 2026.5,-56.5 1943.5,-56.5"/>
<text text-anchor="middle" x="1985" y="-63.5" font-family="Helvetica,sans-Serif" font-size="10.00" fill="#000000">readnrldata.hpp</text>
</a>
</g>
</g>
<!-- Node58&#45;&gt;Node59 -->
<g id="edge60" class="edge">
<title>Node58&#45;&gt;Node59</title>
<path fill="none" stroke="#191970" d="M2074.1878,-112.2455C2057.1527,-103.4125 2031.8425,-90.2887 2012.5319,-80.2758"/>
<polygon fill="#191970" stroke="#191970" points="2014.0853,-77.1388 2003.5966,-75.6427 2010.863,-83.353 2014.0853,-77.1388"/>
</g>
<!-- Node59&#45;&gt;Node5 -->
<g id="edge61" class="edge">
<title>Node59&#45;&gt;Node5</title>
<path fill="none" stroke="#191970" d="M2007.004,-56.3733C2027.6435,-47.3435 2058.7158,-33.7494 2081.8889,-23.6111"/>
<polygon fill="#191970" stroke="#191970" points="2083.5245,-26.7159 2091.2831,-19.5011 2080.7187,-20.3028 2083.5245,-26.7159"/>
</g>
<!-- Node59&#45;&gt;Node6 -->
<g id="edge62" class="edge">
<title>Node59&#45;&gt;Node6</title>
<path fill="none" stroke="#191970" d="M2018.6936,-56.3733C2053.6096,-46.3973 2108.0243,-30.8502 2144.0853,-20.5471"/>
<polygon fill="#191970" stroke="#191970" points="2145.0845,-23.9017 2153.7382,-17.7891 2143.1614,-17.171 2145.0845,-23.9017"/>
</g>
<!-- Node59&#45;&gt;Node7 -->
<g id="edge63" class="edge">
<title>Node59&#45;&gt;Node7</title>
<path fill="none" stroke="#191970" d="M1943.4519,-58.3191C1938.5864,-57.4972 1933.6878,-56.705 1929,-56 1801.9996,-36.8998 1765.6755,-46.1801 1635.7001,-19.8397"/>
<polygon fill="#191970" stroke="#191970" points="1636.2637,-16.3824 1625.7634,-17.7942 1634.8524,-23.2386 1636.2637,-16.3824"/>
</g>
<!-- Node59&#45;&gt;Node8 -->
<g id="edge64" class="edge">
<title>Node59&#45;&gt;Node8</title>
<path fill="none" stroke="#191970" d="M1985,-56.2455C1985,-48.9382 1985,-38.6944 1985,-29.7046"/>
<polygon fill="#191970" stroke="#191970" points="1988.5001,-29.6426 1985,-19.6427 1981.5001,-29.6427 1988.5001,-29.6426"/>
</g>
<!-- Node59&#45;&gt;Node9 -->
<g id="edge65" class="edge">
<title>Node59&#45;&gt;Node9</title>
<path fill="none" stroke="#191970" d="M1996.3221,-56.2455C2005.9223,-47.9746 2019.8892,-35.9416 2031.1695,-26.2232"/>
<polygon fill="#191970" stroke="#191970" points="2033.516,-28.8214 2038.8076,-19.6427 2028.947,-23.5182 2033.516,-28.8214"/>
</g>
<!-- Node59&#45;&gt;Node10 -->
<g id="edge66" class="edge">
<title>Node59&#45;&gt;Node10</title>
<path fill="none" stroke="#191970" d="M2026.739,-58.8967C2071.2818,-51.0569 2144.093,-37.5006 2215.7216,-20.1543"/>
<polygon fill="#191970" stroke="#191970" points="2216.9374,-23.4601 2225.8178,-17.6817 2215.2723,-16.661 2216.9374,-23.4601"/>
</g>
<!-- Node59&#45;&gt;Node17 -->
<g id="edge69" class="edge">
<title>Node59&#45;&gt;Node17</title>
<path fill="none" stroke="#191970" d="M1965.5746,-56.3733C1947.5979,-47.4644 1920.6559,-34.1127 1900.291,-24.0203"/>
<polygon fill="#191970" stroke="#191970" points="1901.6861,-20.8055 1891.1719,-19.5011 1898.5778,-27.0776 1901.6861,-20.8055"/>
</g>
<!-- Node59&#45;&gt;Node18 -->
<g id="edge68" class="edge">
<title>Node59&#45;&gt;Node18</title>
<path fill="none" stroke="#191970" d="M1943.2502,-57.3727C1896.899,-47.7946 1821.8407,-32.2844 1770.3157,-21.6372"/>
<polygon fill="#191970" stroke="#191970" points="1770.8413,-18.1719 1760.3399,-19.5758 1769.4247,-25.0271 1770.8413,-18.1719"/>
</g>
<!-- Node59&#45;&gt;Node30 -->
<g id="edge67" class="edge">
<title>Node59&#45;&gt;Node30</title>
<path fill="none" stroke="#191970" d="M1943.4886,-61.553C1845.3702,-51.0228 1604.6148,-25.0668 1568,-20 1567.8987,-19.986 1567.7972,-19.9719 1567.6957,-19.9578"/>
<polygon fill="#191970" stroke="#191970" points="1568.4584,-16.532 1558.0586,-18.5557 1567.4505,-23.4591 1568.4584,-16.532"/>
</g>
</g>
</svg>
