<?xml version="1.0" encoding="UTF-8" standalone="no"?>
<!DOCTYPE svg PUBLIC "-//W3C//DTD SVG 1.1//EN"
 "http://www.w3.org/Graphics/SVG/1.1/DTD/svg11.dtd">
<!-- Generated by graphviz version 2.40.1 (20161225.0304)
 -->
<!-- Title: LinearizedElasticity Pages: 1 -->
<svg width="147pt" height="209pt"
 viewBox="0.00 0.00 147.00 209.00" xmlns="http://www.w3.org/2000/svg" xmlns:xlink="http://www.w3.org/1999/xlink">
<g id="graph0" class="graph" transform="scale(1 1) rotate(0) translate(4 205)">
<title>LinearizedElasticity</title>
<polygon fill="#ffffff" stroke="transparent" points="-4,4 -4,-205 143,-205 143,4 -4,4"/>
<!-- Node7 -->
<g id="node1" class="node">
<title>Node7</title>
<polygon fill="#bfbfbf" stroke="#000000" points="19,-.5 19,-19.5 120,-19.5 120,-.5 19,-.5"/>
<text text-anchor="middle" x="69.5" y="-7.5" font-family="Helvetica,sans-Serif" font-size="10.00" fill="#000000">LinearizedElasticity</text>
</g>
<!-- Node8 -->
<g id="node2" class="node">
<title>Node8</title>
<g id="a_node2"><a xlink:href="../../d8/de3/class_linear_finite_element_problem.html" target="_top" xlink:title="LinearFiniteElementProblem">
<polygon fill="#ffffff" stroke="#000000" points="0,-57.5 0,-76.5 139,-76.5 139,-57.5 0,-57.5"/>
<text text-anchor="middle" x="69.5" y="-64.5" font-family="Helvetica,sans-Serif" font-size="10.00" fill="#000000">LinearFiniteElementProblem</text>
</a>
</g>
</g>
<!-- Node8&#45;&gt;Node7 -->
<g id="edge1" class="edge">
<title>Node8&#45;&gt;Node7</title>
<path fill="none" stroke="#191970" d="M69.5,-47.2342C69.5,-37.8491 69.5,-27.0651 69.5,-19.5265"/>
<polygon fill="#191970" stroke="#191970" points="66.0001,-47.3307 69.5,-57.3307 73.0001,-47.3308 66.0001,-47.3307"/>
</g>
<!-- Node9 -->
<g id="node3" class="node">
<title>Node9</title>
<g id="a_node3"><a xlink:href="../../d2/d31/classbase_class_f_e_m.html" target="_top" xlink:title="baseClassFEM">
<polygon fill="#ffffff" stroke="#000000" points="27.5,-114.5 27.5,-133.5 111.5,-133.5 111.5,-114.5 27.5,-114.5"/>
<text text-anchor="middle" x="69.5" y="-121.5" font-family="Helvetica,sans-Serif" font-size="10.00" fill="#000000">baseClassFEM</text>
</a>
</g>
</g>
<!-- Node9&#45;&gt;Node8 -->
<g id="edge2" class="edge">
<title>Node9&#45;&gt;Node8</title>
<path fill="none" stroke="#191970" d="M69.5,-104.2342C69.5,-94.8491 69.5,-84.0651 69.5,-76.5265"/>
<polygon fill="#191970" stroke="#191970" points="66.0001,-104.3307 69.5,-114.3307 73.0001,-104.3308 66.0001,-104.3307"/>
</g>
<!-- Node10 -->
<g id="node4" class="node">
<title>Node10</title>
<g id="a_node4"><a xlink:href="../../d6/d6b/classmesh.html" target="_top" xlink:title="mesh">
<polygon fill="#ffffff" stroke="#000000" points="49,-181.5 49,-200.5 90,-200.5 90,-181.5 49,-181.5"/>
<text text-anchor="middle" x="69.5" y="-188.5" font-family="Helvetica,sans-Serif" font-size="10.00" fill="#000000">mesh</text>
</a>
</g>
</g>
<!-- Node10&#45;&gt;Node9 -->
<g id="edge3" class="edge">
<title>Node10&#45;&gt;Node9</title>
<path fill="none" stroke="#9a32cd" stroke-dasharray="5,2" d="M69.5,-171.1079C69.5,-158.714 69.5,-143.3263 69.5,-133.5817"/>
<polygon fill="#9a32cd" stroke="#9a32cd" points="66.0001,-171.4005 69.5,-181.4005 73.0001,-171.4006 66.0001,-171.4005"/>
<text text-anchor="middle" x="83.5" y="-155" font-family="Helvetica,sans-Serif" font-size="10.00" fill="#000000"> Mesh</text>
</g>
</g>
</svg>
