<?xml version="1.0" encoding="UTF-8" standalone="no"?>
<!DOCTYPE svg PUBLIC "-//W3C//DTD SVG 1.1//EN"
 "http://www.w3.org/Graphics/SVG/1.1/DTD/svg11.dtd">
<!-- Generated by graphviz version 2.40.1 (20161225.0304)
 -->
<!-- Title: LinearizedElasticity Pages: 1 -->
<svg width="124pt" height="214pt"
 viewBox="0.00 0.00 124.06 214.00" xmlns="http://www.w3.org/2000/svg" xmlns:xlink="http://www.w3.org/1999/xlink">
<g id="graph0" class="graph" transform="scale(1 1) rotate(0) translate(4 210)">
<title>LinearizedElasticity</title>
<polygon fill="#ffffff" stroke="transparent" points="-4,4 -4,-210 120.0586,-210 120.0586,4 -4,4"/>
<!-- Node6 -->
<g id="node1" class="node">
<title>Node6</title>
<polygon fill="#bfbfbf" stroke="#000000" points="7.2314,-.5 7.2314,-18.5 108.8271,-18.5 108.8271,-.5 7.2314,-.5"/>
<text text-anchor="middle" x="58.0293" y="-6.5" font-family="Helvetica,sans-Serif" font-size="10.00" fill="#000000">LinearizedElasticity</text>
</g>
<!-- Node7 -->
<g id="node2" class="node">
<title>Node7</title>
<g id="a_node2"><a xlink:href="../../d3/d9f/class_linear___finite___element___problem.html" target="_top" xlink:title="Linear_Finite_Element\l_Problem">
<polygon fill="#ffffff" stroke="#000000" points="0,-56.5 0,-84.5 116.0586,-84.5 116.0586,-56.5 0,-56.5"/>
<text text-anchor="start" x="8" y="-72.5" font-family="Helvetica,sans-Serif" font-size="10.00" fill="#000000">Linear_Finite_Element</text>
<text text-anchor="middle" x="58.0293" y="-62.5" font-family="Helvetica,sans-Serif" font-size="10.00" fill="#000000">_Problem</text>
</a>
</g>
</g>
<!-- Node7&#45;&gt;Node6 -->
<g id="edge1" class="edge">
<title>Node7&#45;&gt;Node6</title>
<path fill="none" stroke="#191970" d="M58.0293,-46.1001C58.0293,-36.5157 58.0293,-26.0935 58.0293,-18.831"/>
<polygon fill="#191970" stroke="#191970" points="54.5294,-46.352 58.0293,-56.3521 61.5294,-46.3521 54.5294,-46.352"/>
</g>
<!-- Node8 -->
<g id="node3" class="node">
<title>Node8</title>
<g id="a_node3"><a xlink:href="../../d2/d97/class_base_class_f_e_m.html" target="_top" xlink:title="BaseClassFEM">
<polygon fill="#ffffff" stroke="#000000" points="15.5762,-122.5 15.5762,-140.5 100.4824,-140.5 100.4824,-122.5 15.5762,-122.5"/>
<text text-anchor="middle" x="58.0293" y="-128.5" font-family="Helvetica,sans-Serif" font-size="10.00" fill="#000000">BaseClassFEM</text>
</a>
</g>
</g>
<!-- Node8&#45;&gt;Node7 -->
<g id="edge2" class="edge">
<title>Node8&#45;&gt;Node7</title>
<path fill="none" stroke="#191970" d="M58.0293,-112.2842C58.0293,-103.3664 58.0293,-92.9504 58.0293,-84.7488"/>
<polygon fill="#191970" stroke="#191970" points="54.5294,-112.4992 58.0293,-122.4992 61.5294,-112.4993 54.5294,-112.4992"/>
</g>
<!-- Node9 -->
<g id="node4" class="node">
<title>Node9</title>
<g id="a_node4"><a xlink:href="../../d6/d6b/classmesh.html" target="_top" xlink:title="mesh">
<polygon fill="#ffffff" stroke="#000000" points="37.8027,-187.5 37.8027,-205.5 78.2559,-205.5 78.2559,-187.5 37.8027,-187.5"/>
<text text-anchor="middle" x="58.0293" y="-193.5" font-family="Helvetica,sans-Serif" font-size="10.00" fill="#000000">mesh</text>
</a>
</g>
</g>
<!-- Node9&#45;&gt;Node8 -->
<g id="edge3" class="edge">
<title>Node9&#45;&gt;Node8</title>
<path fill="none" stroke="#9a32cd" stroke-dasharray="5,2" d="M58.0293,-177.1265C58.0293,-165.1522 58.0293,-150.3205 58.0293,-140.8821"/>
<polygon fill="#9a32cd" stroke="#9a32cd" points="54.5294,-177.462 58.0293,-187.462 61.5294,-177.4621 54.5294,-177.462"/>
<text text-anchor="middle" x="71.645" y="-161" font-family="Helvetica,sans-Serif" font-size="10.00" fill="#000000"> Mesh</text>
</g>
</g>
</svg>
