<?xml version="1.0" encoding="UTF-8" standalone="no"?>
<!DOCTYPE svg PUBLIC "-//W3C//DTD SVG 1.1//EN"
 "http://www.w3.org/Graphics/SVG/1.1/DTD/svg11.dtd">
<!-- Generated by graphviz version 2.40.1 (20161225.0304)
 -->
<!-- Title: src/shinozukapp_layeredcomp_2d.hpp Pages: 1 -->
<svg width="506pt" height="251pt"
 viewBox="0.00 0.00 506.00 251.00" xmlns="http://www.w3.org/2000/svg" xmlns:xlink="http://www.w3.org/1999/xlink">
<g id="graph0" class="graph" transform="scale(1 1) rotate(0) translate(4 247)">
<title>src/shinozukapp_layeredcomp_2d.hpp</title>
<polygon fill="#ffffff" stroke="transparent" points="-4,4 -4,-247 502,-247 502,4 -4,4"/>
<!-- Node39 -->
<g id="node1" class="node">
<title>Node39</title>
<polygon fill="#bfbfbf" stroke="#000000" points="152.5,-212.5 152.5,-242.5 301.5,-242.5 301.5,-212.5 152.5,-212.5"/>
<text text-anchor="start" x="160.5" y="-230.5" font-family="Helvetica,sans-Serif" font-size="10.00" fill="#000000">src/shinozukapp_layeredcomp</text>
<text text-anchor="middle" x="227" y="-219.5" font-family="Helvetica,sans-Serif" font-size="10.00" fill="#000000">_2d.hpp</text>
</g>
<!-- Node40 -->
<g id="node2" class="node">
<title>Node40</title>
<g id="a_node2"><a xlink:href="../../d9/d6b/_c_e_e_s_b_v_p_8hpp.html" target="_top" xlink:title="cee530/sbvp/CEESBVP.hpp">
<polygon fill="#ffffff" stroke="#000000" points="0,-145.5 0,-164.5 142,-164.5 142,-145.5 0,-145.5"/>
<text text-anchor="middle" x="71" y="-152.5" font-family="Helvetica,sans-Serif" font-size="10.00" fill="#000000">cee530/sbvp/CEESBVP.hpp</text>
</a>
</g>
</g>
<!-- Node39&#45;&gt;Node40 -->
<g id="edge1" class="edge">
<title>Node39&#45;&gt;Node40</title>
<path fill="none" stroke="#191970" d="M185.24,-208.0923C155.0708,-194.0714 115.6009,-175.728 91.8341,-164.6825"/>
<polygon fill="#191970" stroke="#191970" points="184.1331,-211.4373 194.6767,-212.478 187.0833,-205.0894 184.1331,-211.4373"/>
</g>
<!-- Node42 -->
<g id="node4" class="node">
<title>Node42</title>
<g id="a_node4"><a xlink:href="../../d0/d77/_compressible___mooney___transverse___isotropic___random___field_8hpp.html" target="_top" xlink:title="src/Compressible_Mooney\l_Transverse_Isotropic\l_Random_Field.hpp">
<polygon fill="#ffffff" stroke="#000000" points="160.5,-134.5 160.5,-175.5 293.5,-175.5 293.5,-134.5 160.5,-134.5"/>
<text text-anchor="start" x="168.5" y="-163.5" font-family="Helvetica,sans-Serif" font-size="10.00" fill="#000000">src/Compressible_Mooney</text>
<text text-anchor="start" x="168.5" y="-152.5" font-family="Helvetica,sans-Serif" font-size="10.00" fill="#000000">_Transverse_Isotropic</text>
<text text-anchor="middle" x="227" y="-141.5" font-family="Helvetica,sans-Serif" font-size="10.00" fill="#000000">_Random_Field.hpp</text>
</a>
</g>
</g>
<!-- Node39&#45;&gt;Node42 -->
<g id="edge3" class="edge">
<title>Node39&#45;&gt;Node42</title>
<path fill="none" stroke="#191970" d="M227,-202.4016C227,-193.6173 227,-183.8652 227,-175.5015"/>
<polygon fill="#191970" stroke="#191970" points="223.5001,-202.4779 227,-212.478 230.5001,-202.478 223.5001,-202.4779"/>
</g>
<!-- Node47 -->
<g id="node9" class="node">
<title>Node47</title>
<g id="a_node9"><a xlink:href="../../db/d39/shinozukapp__layeredcomp__2d_8cpp.html" target="_top" xlink:title="src/shinozukapp_layeredcomp\l_2d.cpp">
<polygon fill="#ffffff" stroke="#000000" points="311.5,-140 311.5,-170 460.5,-170 460.5,-140 311.5,-140"/>
<text text-anchor="start" x="319.5" y="-158" font-family="Helvetica,sans-Serif" font-size="10.00" fill="#000000">src/shinozukapp_layeredcomp</text>
<text text-anchor="middle" x="386" y="-147" font-family="Helvetica,sans-Serif" font-size="10.00" fill="#000000">_2d.cpp</text>
</a>
</g>
</g>
<!-- Node39&#45;&gt;Node47 -->
<g id="edge8" class="edge">
<title>Node39&#45;&gt;Node47</title>
<path fill="none" stroke="#191970" d="M269.2748,-208.2237C295.5389,-196.248 328.804,-181.0799 353.0973,-170.0028"/>
<polygon fill="#191970" stroke="#191970" points="267.5916,-205.1445 259.9449,-212.478 270.4958,-211.5137 267.5916,-205.1445"/>
</g>
<!-- Node41 -->
<g id="node3" class="node">
<title>Node41</title>
<g id="a_node3"><a xlink:href="../../dc/d51/cee530_2sbvp_2main_8cpp.html" target="_top" xlink:title="cee530/sbvp/main.cpp">
<polygon fill="#ffffff" stroke="#000000" points="13.5,-73 13.5,-92 128.5,-92 128.5,-73 13.5,-73"/>
<text text-anchor="middle" x="71" y="-80" font-family="Helvetica,sans-Serif" font-size="10.00" fill="#000000">cee530/sbvp/main.cpp</text>
</a>
</g>
</g>
<!-- Node40&#45;&gt;Node41 -->
<g id="edge2" class="edge">
<title>Node40&#45;&gt;Node41</title>
<path fill="none" stroke="#191970" d="M71,-135.1054C71,-121.1237 71,-103.0346 71,-92.1228"/>
<polygon fill="#191970" stroke="#191970" points="67.5001,-135.2223 71,-145.2223 74.5001,-135.2224 67.5001,-135.2223"/>
</g>
<!-- Node43 -->
<g id="node5" class="node">
<title>Node43</title>
<g id="a_node5"><a xlink:href="../../d2/d16/nrl_2randomfields_2main_8cpp.html" target="_top" xlink:title="nrl/randomfields/main.cpp">
<polygon fill="#ffffff" stroke="#000000" points="155,-73 155,-92 283,-92 283,-73 155,-73"/>
<text text-anchor="middle" x="219" y="-80" font-family="Helvetica,sans-Serif" font-size="10.00" fill="#000000">nrl/randomfields/main.cpp</text>
</a>
</g>
</g>
<!-- Node42&#45;&gt;Node43 -->
<g id="edge4" class="edge">
<title>Node42&#45;&gt;Node43</title>
<path fill="none" stroke="#191970" d="M223.5967,-124.1575C222.3218,-112.6039 220.9642,-100.3007 220.0577,-92.0853"/>
<polygon fill="#191970" stroke="#191970" points="220.1532,-124.8626 224.7289,-134.4183 227.1109,-124.0948 220.1532,-124.8626"/>
</g>
<!-- Node44 -->
<g id="node6" class="node">
<title>Node44</title>
<g id="a_node6"><a xlink:href="../../d9/dc1/_random_generator_for_p_c_a__and_likelihood_8hpp.html" target="_top" xlink:title="src/RandomGeneratorForPCA\l_andLikelihood.hpp">
<polygon fill="#ffffff" stroke="#000000" points="301,-67.5 301,-97.5 449,-97.5 449,-67.5 301,-67.5"/>
<text text-anchor="start" x="309" y="-85.5" font-family="Helvetica,sans-Serif" font-size="10.00" fill="#000000">src/RandomGeneratorForPCA</text>
<text text-anchor="middle" x="375" y="-74.5" font-family="Helvetica,sans-Serif" font-size="10.00" fill="#000000">_andLikelihood.hpp</text>
</a>
</g>
</g>
<!-- Node42&#45;&gt;Node44 -->
<g id="edge5" class="edge">
<title>Node42&#45;&gt;Node44</title>
<path fill="none" stroke="#191970" d="M278.2214,-129.9084C300.1872,-119.1482 325.12,-106.9345 344.177,-97.5991"/>
<polygon fill="#191970" stroke="#191970" points="276.4556,-126.876 269.015,-134.4183 279.5351,-133.1622 276.4556,-126.876"/>
</g>
<!-- Node45 -->
<g id="node7" class="node">
<title>Node45</title>
<g id="a_node7"><a xlink:href="../../d5/daf/nrl_2random__generator__for__pca__likelihood_2main_8cpp.html" target="_top" xlink:title="nrl/random_generator\l_for_pca_likelihood/main.cpp">
<polygon fill="#ffffff" stroke="#000000" points="232.5,-.5 232.5,-30.5 375.5,-30.5 375.5,-.5 232.5,-.5"/>
<text text-anchor="start" x="240.5" y="-18.5" font-family="Helvetica,sans-Serif" font-size="10.00" fill="#000000">nrl/random_generator</text>
<text text-anchor="middle" x="304" y="-7.5" font-family="Helvetica,sans-Serif" font-size="10.00" fill="#000000">_for_pca_likelihood/main.cpp</text>
</a>
</g>
</g>
<!-- Node44&#45;&gt;Node45 -->
<g id="edge6" class="edge">
<title>Node44&#45;&gt;Node45</title>
<path fill="none" stroke="#191970" d="M351.3806,-60.2113C341.0905,-50.5009 329.2949,-39.3698 320.0472,-30.6432"/>
<polygon fill="#191970" stroke="#191970" points="349.2139,-62.979 358.889,-67.2967 354.0181,-57.8879 349.2139,-62.979"/>
</g>
<!-- Node46 -->
<g id="node8" class="node">
<title>Node46</title>
<g id="a_node8"><a xlink:href="../../db/d7d/nrl_2testing__solutions_2main_8cpp.html" target="_top" xlink:title="nrl/testing_solutions\l/main.cpp">
<polygon fill="#ffffff" stroke="#000000" points="394,-.5 394,-30.5 498,-30.5 498,-.5 394,-.5"/>
<text text-anchor="start" x="402" y="-18.5" font-family="Helvetica,sans-Serif" font-size="10.00" fill="#000000">nrl/testing_solutions</text>
<text text-anchor="middle" x="446" y="-7.5" font-family="Helvetica,sans-Serif" font-size="10.00" fill="#000000">/main.cpp</text>
</a>
</g>
</g>
<!-- Node44&#45;&gt;Node46 -->
<g id="edge7" class="edge">
<title>Node44&#45;&gt;Node46</title>
<path fill="none" stroke="#191970" d="M398.6194,-60.2113C408.9095,-50.5009 420.7051,-39.3698 429.9528,-30.6432"/>
<polygon fill="#191970" stroke="#191970" points="395.9819,-57.8879 391.111,-67.2967 400.7861,-62.979 395.9819,-57.8879"/>
</g>
</g>
</svg>
