<?xml version="1.0" encoding="UTF-8" standalone="no"?>
<!DOCTYPE svg PUBLIC "-//W3C//DTD SVG 1.1//EN"
 "http://www.w3.org/Graphics/SVG/1.1/DTD/svg11.dtd">
<!-- Generated by graphviz version 2.40.1 (20161225.0304)
 -->
<!-- Title: laplace Pages: 1 -->
<svg width="147pt" height="137pt"
 viewBox="0.00 0.00 146.83 137.00" xmlns="http://www.w3.org/2000/svg" xmlns:xlink="http://www.w3.org/1999/xlink">
<g id="graph0" class="graph" transform="scale(1 1) rotate(0) translate(4 133)">
<title>laplace</title>
<polygon fill="#ffffff" stroke="transparent" points="-4,4 -4,-133 142.832,-133 142.832,4 -4,4"/>
<!-- Node0 -->
<g id="node1" class="node">
<title>Node0</title>
<polygon fill="#bfbfbf" stroke="#000000" points="45.5713,-.5 45.5713,-18.5 93.2607,-18.5 93.2607,-.5 45.5713,-.5"/>
<text text-anchor="middle" x="69.416" y="-6.5" font-family="Helvetica,sans-Serif" font-size="10.00" fill="#000000">laplace</text>
</g>
<!-- Node1 -->
<g id="node2" class="node">
<title>Node1</title>
<g id="a_node2"><a xlink:href="../../dc/d01/classlinear_finite_element_problem.html" target="_top" xlink:title="linearFiniteElementProblem">
<polygon fill="#ffffff" stroke="#000000" points="0,-55.5 0,-73.5 138.832,-73.5 138.832,-55.5 0,-55.5"/>
<text text-anchor="middle" x="69.416" y="-61.5" font-family="Helvetica,sans-Serif" font-size="10.00" fill="#000000">linearFiniteElementProblem</text>
</a>
</g>
</g>
<!-- Node1&#45;&gt;Node0 -->
<g id="edge1" class="edge">
<title>Node1&#45;&gt;Node0</title>
<path fill="none" stroke="#191970" d="M69.416,-45.383C69.416,-36.3738 69.416,-26.0373 69.416,-18.7795"/>
<polygon fill="#191970" stroke="#191970" points="65.9161,-45.4178 69.416,-55.4179 72.9161,-45.4179 65.9161,-45.4178"/>
</g>
<!-- Node2 -->
<g id="node3" class="node">
<title>Node2</title>
<g id="a_node3"><a xlink:href="../../d2/d31/classbase_class_f_e_m.html" target="_top" xlink:title="baseClassFEM">
<polygon fill="#ffffff" stroke="#000000" points="27.5171,-110.5 27.5171,-128.5 111.3149,-128.5 111.3149,-110.5 27.5171,-110.5"/>
<text text-anchor="middle" x="69.416" y="-116.5" font-family="Helvetica,sans-Serif" font-size="10.00" fill="#000000">baseClassFEM</text>
</a>
</g>
</g>
<!-- Node2&#45;&gt;Node1 -->
<g id="edge2" class="edge">
<title>Node2&#45;&gt;Node1</title>
<path fill="none" stroke="#191970" d="M69.416,-100.383C69.416,-91.3738 69.416,-81.0373 69.416,-73.7795"/>
<polygon fill="#191970" stroke="#191970" points="65.9161,-100.4178 69.416,-110.4179 72.9161,-100.4179 65.9161,-100.4178"/>
</g>
</g>
</svg>
