<?xml version="1.0" encoding="UTF-8" standalone="no"?>
<!DOCTYPE svg PUBLIC "-//W3C//DTD SVG 1.1//EN"
 "http://www.w3.org/Graphics/SVG/1.1/DTD/svg11.dtd">
<!-- Generated by graphviz version 2.40.1 (20161225.0304)
 -->
<!-- Title: arteries/gmrf_neumann/main.cpp Pages: 1 -->
<svg width="2658pt" height="452pt"
 viewBox="0.00 0.00 2657.84 452.00" xmlns="http://www.w3.org/2000/svg" xmlns:xlink="http://www.w3.org/1999/xlink">
<g id="graph0" class="graph" transform="scale(1 1) rotate(0) translate(4 448)">
<title>arteries/gmrf_neumann/main.cpp</title>
<polygon fill="#ffffff" stroke="transparent" points="-4,4 -4,-448 2653.8442,-448 2653.8442,4 -4,4"/>
<!-- Node0 -->
<g id="node1" class="node">
<title>Node0</title>
<polygon fill="#bfbfbf" stroke="#000000" points="985.9434,-415.5 985.9434,-443.5 1105.3271,-443.5 1105.3271,-415.5 985.9434,-415.5"/>
<text text-anchor="start" x="993.9434" y="-431.5" font-family="Helvetica,sans-Serif" font-size="10.00" fill="#000000">arteries/gmrf_neumann</text>
<text text-anchor="middle" x="1045.6353" y="-421.5" font-family="Helvetica,sans-Serif" font-size="10.00" fill="#000000">/main.cpp</text>
</g>
<!-- Node1 -->
<g id="node2" class="node">
<title>Node1</title>
<polygon fill="#ffffff" stroke="#bfbfbf" points="265.2192,-355.5 265.2192,-373.5 374.0513,-373.5 374.0513,-355.5 265.2192,-355.5"/>
<text text-anchor="middle" x="319.6353" y="-361.5" font-family="Helvetica,sans-Serif" font-size="10.00" fill="#000000">Epetra_ConfigDefs.h</text>
</g>
<!-- Node0&#45;&gt;Node1 -->
<g id="edge1" class="edge">
<title>Node0&#45;&gt;Node1</title>
<path fill="none" stroke="#191970" d="M985.5126,-427.8638C868.8562,-424.0385 603.9003,-412.1701 383.6353,-379 377.7172,-378.1088 371.5331,-376.9728 365.4413,-375.73"/>
<polygon fill="#191970" stroke="#191970" points="365.8515,-372.2384 355.3397,-373.5619 364.3825,-379.0825 365.8515,-372.2384"/>
</g>
<!-- Node2 -->
<g id="node3" class="node">
<title>Node2</title>
<polygon fill="#ffffff" stroke="#bfbfbf" points="392.4482,-355.5 392.4482,-373.5 506.8223,-373.5 506.8223,-355.5 392.4482,-355.5"/>
<text text-anchor="middle" x="449.6353" y="-361.5" font-family="Helvetica,sans-Serif" font-size="10.00" fill="#000000">Epetra_SerialComm.h</text>
</g>
<!-- Node0&#45;&gt;Node2 -->
<g id="edge2" class="edge">
<title>Node0&#45;&gt;Node2</title>
<path fill="none" stroke="#191970" d="M985.7273,-426.1663C887.2114,-420.1532 685.0219,-405.5763 515.6353,-379 509.6955,-378.0681 503.4888,-376.9281 497.3601,-375.7008"/>
<polygon fill="#191970" stroke="#191970" points="497.6849,-372.1932 487.1804,-373.5742 496.2533,-379.0453 497.6849,-372.1932"/>
</g>
<!-- Node3 -->
<g id="node4" class="node">
<title>Node3</title>
<polygon fill="#ffffff" stroke="#bfbfbf" points="524.749,-355.5 524.749,-373.5 712.5215,-373.5 712.5215,-355.5 524.749,-355.5"/>
<text text-anchor="middle" x="618.6353" y="-361.5" font-family="Helvetica,sans-Serif" font-size="10.00" fill="#000000">Teuchos_CommandLineProcessor.hpp</text>
</g>
<!-- Node0&#45;&gt;Node3 -->
<g id="edge3" class="edge">
<title>Node0&#45;&gt;Node3</title>
<path fill="none" stroke="#191970" d="M985.8131,-420.3936C907.5944,-408.4868 770.8328,-387.6682 688.1128,-375.0762"/>
<polygon fill="#191970" stroke="#191970" points="688.4654,-371.5896 678.0525,-373.5448 687.4119,-378.5099 688.4654,-371.5896"/>
</g>
<!-- Node4 -->
<g id="node5" class="node">
<title>Node4</title>
<polygon fill="#ffffff" stroke="#bfbfbf" points="1121.7539,-290.5 1121.7539,-308.5 1299.5166,-308.5 1299.5166,-290.5 1121.7539,-290.5"/>
<text text-anchor="middle" x="1210.6353" y="-296.5" font-family="Helvetica,sans-Serif" font-size="10.00" fill="#000000">Teuchos_StandardCatchMacros.hpp</text>
</g>
<!-- Node0&#45;&gt;Node4 -->
<g id="edge4" class="edge">
<title>Node0&#45;&gt;Node4</title>
<path fill="none" stroke="#191970" d="M1063.6072,-415.3402C1094.7565,-390.7984 1158.5347,-340.5489 1190.8819,-315.0632"/>
<polygon fill="#191970" stroke="#191970" points="1193.4299,-317.5115 1199.1188,-308.5736 1189.0978,-312.0131 1193.4299,-317.5115"/>
</g>
<!-- Node5 -->
<g id="node6" class="node">
<title>Node5</title>
<polygon fill="#ffffff" stroke="#bfbfbf" points="1317.377,-290.5 1317.377,-308.5 1457.8936,-308.5 1457.8936,-290.5 1317.377,-290.5"/>
<text text-anchor="middle" x="1387.6353" y="-296.5" font-family="Helvetica,sans-Serif" font-size="10.00" fill="#000000">Teuchos_ParameterList.hpp</text>
</g>
<!-- Node0&#45;&gt;Node5 -->
<g id="edge5" class="edge">
<title>Node0&#45;&gt;Node5</title>
<path fill="none" stroke="#191970" d="M1082.5602,-415.4642C1149.4522,-390.0374 1289.6988,-336.7273 1354.0553,-312.2643"/>
<polygon fill="#191970" stroke="#191970" points="1355.6058,-315.4193 1363.7097,-308.5945 1353.1186,-308.8761 1355.6058,-315.4193"/>
</g>
<!-- Node6 -->
<g id="node7" class="node">
<title>Node6</title>
<polygon fill="#ffffff" stroke="#bfbfbf" points="1475.8276,-285.5 1475.8276,-313.5 1617.4429,-313.5 1617.4429,-285.5 1475.8276,-285.5"/>
<text text-anchor="start" x="1483.8276" y="-301.5" font-family="Helvetica,sans-Serif" font-size="10.00" fill="#000000">Teuchos_XMLParameterList</text>
<text text-anchor="middle" x="1546.6353" y="-291.5" font-family="Helvetica,sans-Serif" font-size="10.00" fill="#000000">CoreHelpers.hpp</text>
</g>
<!-- Node0&#45;&gt;Node6 -->
<g id="edge6" class="edge">
<title>Node0&#45;&gt;Node6</title>
<path fill="none" stroke="#191970" d="M1099.727,-415.4642C1192.8055,-391.3121 1382.838,-342.0023 1482.4542,-316.1538"/>
<polygon fill="#191970" stroke="#191970" points="1483.5898,-319.4751 1492.3902,-313.5756 1481.8316,-312.6995 1483.5898,-319.4751"/>
</g>
<!-- Node7 -->
<g id="node8" class="node">
<title>Node7</title>
<g id="a_node8"><a xlink:href="../../da/d42/_neumann_inner_surface___stochastic_polyconvex_h_g_o_8hpp.html" target="_top" xlink:title="NeumannInnerSurface\l_StochasticPolyconvexHGO.hpp">
<polygon fill="#ffffff" stroke="#000000" points="730.0986,-350.5 730.0986,-378.5 891.1719,-378.5 891.1719,-350.5 730.0986,-350.5"/>
<text text-anchor="start" x="738.0986" y="-366.5" font-family="Helvetica,sans-Serif" font-size="10.00" fill="#000000">NeumannInnerSurface</text>
<text text-anchor="middle" x="810.6353" y="-356.5" font-family="Helvetica,sans-Serif" font-size="10.00" fill="#000000">_StochasticPolyconvexHGO.hpp</text>
</a>
</g>
</g>
<!-- Node0&#45;&gt;Node7 -->
<g id="edge7" class="edge">
<title>Node0&#45;&gt;Node7</title>
<path fill="none" stroke="#191970" d="M994.9331,-415.476C958.7658,-405.4723 909.955,-391.9714 871.6519,-381.3769"/>
<polygon fill="#191970" stroke="#191970" points="872.2228,-377.9035 861.6516,-378.6109 870.3567,-384.6502 872.2228,-377.9035"/>
</g>
<!-- Node51 -->
<g id="node41" class="node">
<title>Node51</title>
<polygon fill="#ffffff" stroke="#bfbfbf" points="987.0493,-285.5 987.0493,-313.5 1104.2212,-313.5 1104.2212,-285.5 987.0493,-285.5"/>
<text text-anchor="start" x="995.0493" y="-301.5" font-family="Helvetica,sans-Serif" font-size="10.00" fill="#000000">boost/math/special</text>
<text text-anchor="middle" x="1045.6353" y="-291.5" font-family="Helvetica,sans-Serif" font-size="10.00" fill="#000000">_functions/gamma.hpp</text>
</g>
<!-- Node0&#45;&gt;Node51 -->
<g id="edge58" class="edge">
<title>Node0&#45;&gt;Node51</title>
<path fill="none" stroke="#191970" d="M1045.6353,-415.3402C1045.6353,-393.3618 1045.6353,-350.7655 1045.6353,-323.8021"/>
<polygon fill="#191970" stroke="#191970" points="1049.1354,-323.6423 1045.6353,-313.6423 1042.1354,-323.6423 1049.1354,-323.6423"/>
</g>
<!-- Node53 -->
<g id="node43" class="node">
<title>Node53</title>
<g id="a_node43"><a xlink:href="../../d7/d17/_newton___raphsonpp_8hpp.html" target="_top" xlink:title="Newton_Raphsonpp.hpp">
<polygon fill="#ffffff" stroke="#000000" points="1815.5938,-355.5 1815.5938,-373.5 1941.6768,-373.5 1941.6768,-355.5 1815.5938,-355.5"/>
<text text-anchor="middle" x="1878.6353" y="-361.5" font-family="Helvetica,sans-Serif" font-size="10.00" fill="#000000">Newton_Raphsonpp.hpp</text>
</a>
</g>
</g>
<!-- Node0&#45;&gt;Node53 -->
<g id="edge45" class="edge">
<title>Node0&#45;&gt;Node53</title>
<path fill="none" stroke="#191970" d="M1105.5426,-424.8254C1254.6577,-413.1897 1642.1479,-382.9534 1804.9226,-370.2519"/>
<polygon fill="#191970" stroke="#191970" points="1805.617,-373.7084 1815.3144,-369.441 1805.0724,-366.7296 1805.617,-373.7084"/>
</g>
<!-- Node8 -->
<g id="node9" class="node">
<title>Node8</title>
<g id="a_node9"><a xlink:href="../../de/d49/tensor__calculus_8hpp.html" target="_top" xlink:title="tensor_calculus.hpp">
<polygon fill="#ffffff" stroke="#000000" points="600.1626,-165.5 600.1626,-183.5 705.1079,-183.5 705.1079,-165.5 600.1626,-165.5"/>
<text text-anchor="middle" x="652.6353" y="-171.5" font-family="Helvetica,sans-Serif" font-size="10.00" fill="#000000">tensor_calculus.hpp</text>
</a>
</g>
</g>
<!-- Node7&#45;&gt;Node8 -->
<g id="edge8" class="edge">
<title>Node7&#45;&gt;Node8</title>
<path fill="none" stroke="#191970" d="M729.6684,-351.0247C726.9605,-350.6648 724.2771,-350.3218 721.6353,-350 672.5031,-344.0157 311.1897,-350.3852 277.6353,-314 184.2169,-212.7006 460.7644,-184.6293 589.992,-177.1245"/>
<polygon fill="#191970" stroke="#191970" points="590.3664,-180.6092 600.1565,-176.559 589.9775,-173.62 590.3664,-180.6092"/>
</g>
<!-- Node41 -->
<g id="node31" class="node">
<title>Node41</title>
<g id="a_node31"><a xlink:href="../../dc/de0/nearly_incompressible_hyperelasticity_8hpp.html" target="_top" xlink:title="nearlyIncompressibleHyperelasticity.hpp">
<polygon fill="#ffffff" stroke="#000000" points="536.519,-290.5 536.519,-308.5 730.7515,-308.5 730.7515,-290.5 536.519,-290.5"/>
<text text-anchor="middle" x="633.6353" y="-296.5" font-family="Helvetica,sans-Serif" font-size="10.00" fill="#000000">nearlyIncompressibleHyperelasticity.hpp</text>
</a>
</g>
</g>
<!-- Node7&#45;&gt;Node41 -->
<g id="edge30" class="edge">
<title>Node7&#45;&gt;Node41</title>
<path fill="none" stroke="#191970" d="M772.2289,-350.396C741.1706,-338.9904 697.8393,-323.0778 667.9349,-312.0959"/>
<polygon fill="#191970" stroke="#191970" points="668.9389,-308.7361 658.3453,-308.5743 666.5258,-315.3071 668.9389,-308.7361"/>
</g>
<!-- Node45 -->
<g id="node35" class="node">
<title>Node45</title>
<g id="a_node35"><a xlink:href="../../d5/d3f/laplacepp_8hpp.html" target="_top" xlink:title="laplacepp.hpp">
<polygon fill="#ffffff" stroke="#000000" points="890.4976,-290.5 890.4976,-308.5 968.7729,-308.5 968.7729,-290.5 890.4976,-290.5"/>
<text text-anchor="middle" x="929.6353" y="-296.5" font-family="Helvetica,sans-Serif" font-size="10.00" fill="#000000">laplacepp.hpp</text>
</a>
</g>
</g>
<!-- Node7&#45;&gt;Node45 -->
<g id="edge36" class="edge">
<title>Node7&#45;&gt;Node45</title>
<path fill="none" stroke="#191970" d="M836.4565,-350.396C856.5204,-339.4367 884.2025,-324.3162 904.1744,-313.4072"/>
<polygon fill="#191970" stroke="#191970" points="905.924,-316.4397 913.0223,-308.5743 902.5683,-310.2964 905.924,-316.4397"/>
</g>
<!-- Node47 -->
<g id="node37" class="node">
<title>Node47</title>
<polygon fill="#ffffff" stroke="#bfbfbf" points="748.4385,-285.5 748.4385,-313.5 872.832,-313.5 872.832,-285.5 748.4385,-285.5"/>
<text text-anchor="start" x="756.4385" y="-301.5" font-family="Helvetica,sans-Serif" font-size="10.00" fill="#000000">boost/random/mersenne</text>
<text text-anchor="middle" x="810.6353" y="-291.5" font-family="Helvetica,sans-Serif" font-size="10.00" fill="#000000">_twister.hpp</text>
</g>
<!-- Node7&#45;&gt;Node47 -->
<g id="edge39" class="edge">
<title>Node7&#45;&gt;Node47</title>
<path fill="none" stroke="#191970" d="M810.6353,-350.396C810.6353,-342.6448 810.6353,-332.8122 810.6353,-323.8601"/>
<polygon fill="#191970" stroke="#191970" points="814.1354,-323.5765 810.6353,-313.5765 807.1354,-323.5765 814.1354,-323.5765"/>
</g>
<!-- Node48 -->
<g id="node38" class="node">
<title>Node48</title>
<polygon fill="#ffffff" stroke="#bfbfbf" points="0,-285.5 0,-313.5 113.2705,-313.5 113.2705,-285.5 0,-285.5"/>
<text text-anchor="start" x="8" y="-301.5" font-family="Helvetica,sans-Serif" font-size="10.00" fill="#000000">boost/random/uniform</text>
<text text-anchor="middle" x="56.6353" y="-291.5" font-family="Helvetica,sans-Serif" font-size="10.00" fill="#000000">_real_distribution.hpp</text>
</g>
<!-- Node7&#45;&gt;Node48 -->
<g id="edge40" class="edge">
<title>Node7&#45;&gt;Node48</title>
<path fill="none" stroke="#191970" d="M729.6769,-350.9522C726.9666,-350.613 724.2803,-350.2941 721.6353,-350 459.4954,-320.8579 387.9862,-350.4303 123.895,-314.1809"/>
<polygon fill="#191970" stroke="#191970" points="123.9982,-310.6616 113.6112,-312.7496 123.0332,-317.5948 123.9982,-310.6616"/>
</g>
<!-- Node49 -->
<g id="node39" class="node">
<title>Node49</title>
<polygon fill="#ffffff" stroke="#bfbfbf" points="130.9458,-285.5 130.9458,-313.5 230.3247,-313.5 230.3247,-285.5 130.9458,-285.5"/>
<text text-anchor="start" x="138.9458" y="-301.5" font-family="Helvetica,sans-Serif" font-size="10.00" fill="#000000">boost/math/special</text>
<text text-anchor="middle" x="180.6353" y="-291.5" font-family="Helvetica,sans-Serif" font-size="10.00" fill="#000000">_functions/erf.hpp</text>
</g>
<!-- Node7&#45;&gt;Node49 -->
<g id="edge41" class="edge">
<title>Node7&#45;&gt;Node49</title>
<path fill="none" stroke="#191970" d="M729.6707,-351.0055C726.9622,-350.651 724.278,-350.3144 721.6353,-350 510.5212,-324.8833 454.8805,-345.5744 244.6353,-314 243.3361,-313.8049 242.0241,-313.5979 240.7031,-313.3806"/>
<polygon fill="#191970" stroke="#191970" points="240.9241,-309.8642 230.462,-311.5355 239.6829,-316.7532 240.9241,-309.8642"/>
</g>
<!-- Node50 -->
<g id="node40" class="node">
<title>Node50</title>
<polygon fill="#ffffff" stroke="#bfbfbf" points="286.3892,-285.5 286.3892,-313.5 396.8813,-313.5 396.8813,-285.5 286.3892,-285.5"/>
<text text-anchor="start" x="294.3892" y="-301.5" font-family="Helvetica,sans-Serif" font-size="10.00" fill="#000000">boost/random/normal</text>
<text text-anchor="middle" x="341.6353" y="-291.5" font-family="Helvetica,sans-Serif" font-size="10.00" fill="#000000">_distribution.hpp</text>
</g>
<!-- Node7&#45;&gt;Node50 -->
<g id="edge42" class="edge">
<title>Node7&#45;&gt;Node50</title>
<path fill="none" stroke="#191970" d="M729.6538,-351.137C726.9501,-350.7449 724.2715,-350.3647 721.6353,-350 584.8976,-331.0835 546.7687,-337.3375 407.2851,-314.1679"/>
<polygon fill="#191970" stroke="#191970" points="407.5065,-310.656 397.0643,-312.448 406.3449,-317.5589 407.5065,-310.656"/>
</g>
<!-- Node7&#45;&gt;Node51 -->
<g id="edge43" class="edge">
<title>Node7&#45;&gt;Node51</title>
<path fill="none" stroke="#191970" d="M861.3374,-350.476C897.5047,-340.4723 946.3156,-326.9714 984.6186,-316.3769"/>
<polygon fill="#191970" stroke="#191970" points="985.9138,-319.6502 994.6189,-313.6109 984.0477,-312.9035 985.9138,-319.6502"/>
</g>
<!-- Node52 -->
<g id="node42" class="node">
<title>Node52</title>
<polygon fill="#ffffff" stroke="#bfbfbf" points="414.9902,-285.5 414.9902,-313.5 518.2803,-313.5 518.2803,-285.5 414.9902,-285.5"/>
<text text-anchor="start" x="422.9902" y="-301.5" font-family="Helvetica,sans-Serif" font-size="10.00" fill="#000000">boost/math/special</text>
<text text-anchor="middle" x="466.6353" y="-291.5" font-family="Helvetica,sans-Serif" font-size="10.00" fill="#000000">_functions/beta.hpp</text>
</g>
<!-- Node7&#45;&gt;Node52 -->
<g id="edge44" class="edge">
<title>Node7&#45;&gt;Node52</title>
<path fill="none" stroke="#191970" d="M729.8914,-351.3453C675.589,-342.2056 602.185,-329.2881 528.4382,-314.1005"/>
<polygon fill="#191970" stroke="#191970" points="529.0069,-310.6441 518.5046,-312.0412 527.5859,-317.4983 529.0069,-310.6441"/>
</g>
<!-- Node9 -->
<g id="node10" class="node">
<title>Node9</title>
<g id="a_node10"><a xlink:href="../../d0/d02/meshpp_8hpp.html" target="_top" xlink:title="meshpp.hpp">
<polygon fill="#ffffff" stroke="#ff0000" points="1153.1157,-55.5 1153.1157,-73.5 1224.1548,-73.5 1224.1548,-55.5 1153.1157,-55.5"/>
<text text-anchor="middle" x="1188.6353" y="-61.5" font-family="Helvetica,sans-Serif" font-size="10.00" fill="#000000">meshpp.hpp</text>
</a>
</g>
</g>
<!-- Node8&#45;&gt;Node9 -->
<g id="edge9" class="edge">
<title>Node8&#45;&gt;Node9</title>
<path fill="none" stroke="#191970" d="M696.4984,-165.4982C796.5716,-144.9608 1040.9391,-94.8108 1142.8406,-73.8982"/>
<polygon fill="#191970" stroke="#191970" points="1143.7316,-77.2883 1152.8238,-71.8494 1142.3243,-70.4312 1143.7316,-77.2883"/>
</g>
<!-- Node10 -->
<g id="node11" class="node">
<title>Node10</title>
<polygon fill="#ffffff" stroke="#bfbfbf" points="2148.9038,-.5 2148.9038,-18.5 2194.3667,-18.5 2194.3667,-.5 2148.9038,-.5"/>
<text text-anchor="middle" x="2171.6353" y="-6.5" font-family="Helvetica,sans-Serif" font-size="10.00" fill="#000000">stdio.h</text>
</g>
<!-- Node9&#45;&gt;Node10 -->
<g id="edge10" class="edge">
<title>Node9&#45;&gt;Node10</title>
<path fill="none" stroke="#191970" d="M1224.2124,-63.9863C1372.1132,-61.6712 1939.5315,-50.965 2138.7161,-18.8966"/>
<polygon fill="#191970" stroke="#191970" points="2139.4875,-22.3161 2148.7677,-17.2045 2138.3254,-15.4132 2139.4875,-22.3161"/>
</g>
<!-- Node11 -->
<g id="node12" class="node">
<title>Node11</title>
<polygon fill="#ffffff" stroke="#bfbfbf" points="2212.4629,-.5 2212.4629,-18.5 2266.8076,-18.5 2266.8076,-.5 2212.4629,-.5"/>
<text text-anchor="middle" x="2239.6353" y="-6.5" font-family="Helvetica,sans-Serif" font-size="10.00" fill="#000000">iostream</text>
</g>
<!-- Node9&#45;&gt;Node11 -->
<g id="edge11" class="edge">
<title>Node9&#45;&gt;Node11</title>
<path fill="none" stroke="#191970" d="M1224.3991,-63.9192C1378.69,-61.2589 1988.7756,-49.114 2202.0873,-18.8724"/>
<polygon fill="#191970" stroke="#191970" points="2202.8635,-22.2958 2212.2446,-17.372 2201.8405,-15.371 2202.8635,-22.2958"/>
</g>
<!-- Node12 -->
<g id="node13" class="node">
<title>Node12</title>
<polygon fill="#ffffff" stroke="#bfbfbf" points="209.2437,-.5 209.2437,-18.5 258.0269,-18.5 258.0269,-.5 209.2437,-.5"/>
<text text-anchor="middle" x="233.6353" y="-6.5" font-family="Helvetica,sans-Serif" font-size="10.00" fill="#000000">istream</text>
</g>
<!-- Node9&#45;&gt;Node12 -->
<g id="edge12" class="edge">
<title>Node9&#45;&gt;Node12</title>
<path fill="none" stroke="#191970" d="M1152.9537,-63.8401C1007.929,-60.9911 461.5996,-48.5987 268.3881,-18.893"/>
<polygon fill="#191970" stroke="#191970" points="268.7891,-15.4126 258.3604,-17.2818 267.6785,-22.3239 268.7891,-15.4126"/>
</g>
<!-- Node13 -->
<g id="node14" class="node">
<title>Node13</title>
<polygon fill="#ffffff" stroke="#bfbfbf" points="275.9653,-.5 275.9653,-18.5 325.3052,-18.5 325.3052,-.5 275.9653,-.5"/>
<text text-anchor="middle" x="300.6353" y="-6.5" font-family="Helvetica,sans-Serif" font-size="10.00" fill="#000000">fstream</text>
</g>
<!-- Node9&#45;&gt;Node13 -->
<g id="edge13" class="edge">
<title>Node9&#45;&gt;Node13</title>
<path fill="none" stroke="#191970" d="M1152.7148,-63.6753C1014.284,-60.332 514.5998,-46.7007 335.4294,-18.906"/>
<polygon fill="#191970" stroke="#191970" points="335.7939,-15.4194 325.3622,-17.2712 334.6719,-22.3289 335.7939,-15.4194"/>
</g>
<!-- Node14 -->
<g id="node15" class="node">
<title>Node14</title>
<polygon fill="#ffffff" stroke="#bfbfbf" points="343.0195,-.5 343.0195,-18.5 386.251,-18.5 386.251,-.5 343.0195,-.5"/>
<text text-anchor="middle" x="364.6353" y="-6.5" font-family="Helvetica,sans-Serif" font-size="10.00" fill="#000000">vector</text>
</g>
<!-- Node9&#45;&gt;Node14 -->
<g id="edge14" class="edge">
<title>Node9&#45;&gt;Node14</title>
<path fill="none" stroke="#191970" d="M1152.9898,-63.6379C1021.4419,-60.2769 562.6833,-46.9225 396.4794,-18.8752"/>
<polygon fill="#191970" stroke="#191970" points="396.8877,-15.3931 386.4303,-17.0942 395.666,-22.2857 396.8877,-15.3931"/>
</g>
<!-- Node15 -->
<g id="node16" class="node">
<title>Node15</title>
<polygon fill="#ffffff" stroke="#bfbfbf" points="404.1255,-.5 404.1255,-18.5 455.145,-18.5 455.145,-.5 404.1255,-.5"/>
<text text-anchor="middle" x="429.6353" y="-6.5" font-family="Helvetica,sans-Serif" font-size="10.00" fill="#000000">iomanip</text>
</g>
<!-- Node9&#45;&gt;Node15 -->
<g id="edge15" class="edge">
<title>Node9&#45;&gt;Node15</title>
<path fill="none" stroke="#191970" d="M1152.7325,-63.2062C1028.7696,-58.5923 618.4581,-42.0627 465.621,-18.7634"/>
<polygon fill="#191970" stroke="#191970" points="465.927,-15.268 455.5001,-17.1467 464.8228,-22.1803 465.927,-15.268"/>
</g>
<!-- Node16 -->
<g id="node17" class="node">
<title>Node16</title>
<polygon fill="#ffffff" stroke="#bfbfbf" points="473.1748,-.5 473.1748,-18.5 578.0957,-18.5 578.0957,-.5 473.1748,-.5"/>
<text text-anchor="middle" x="525.6353" y="-6.5" font-family="Helvetica,sans-Serif" font-size="10.00" fill="#000000">Epetra_MpiComm.h</text>
</g>
<!-- Node9&#45;&gt;Node16 -->
<g id="edge16" class="edge">
<title>Node9&#45;&gt;Node16</title>
<path fill="none" stroke="#191970" d="M1152.919,-62.7884C1061.0113,-58.1734 808.6572,-44.1708 588.3084,-19.1149"/>
<polygon fill="#191970" stroke="#191970" points="588.5057,-15.6147 578.1719,-17.9518 587.7077,-22.5691 588.5057,-15.6147"/>
</g>
<!-- Node17 -->
<g id="node18" class="node">
<title>Node17</title>
<polygon fill="#ffffff" stroke="#bfbfbf" points="595.8916,-.5 595.8916,-18.5 711.3789,-18.5 711.3789,-.5 595.8916,-.5"/>
<text text-anchor="middle" x="653.6353" y="-6.5" font-family="Helvetica,sans-Serif" font-size="10.00" fill="#000000">Epetra_FECrsGraph.h</text>
</g>
<!-- Node9&#45;&gt;Node17 -->
<g id="edge17" class="edge">
<title>Node9&#45;&gt;Node17</title>
<path fill="none" stroke="#191970" d="M1153.0581,-61.5783C1076.3041,-55.1596 889.2326,-38.8951 721.7067,-19.0831"/>
<polygon fill="#191970" stroke="#191970" points="722.063,-15.6009 711.7195,-17.895 721.236,-22.5519 722.063,-15.6009"/>
</g>
<!-- Node18 -->
<g id="node19" class="node">
<title>Node18</title>
<polygon fill="#ffffff" stroke="#bfbfbf" points="729.1772,-.5 729.1772,-18.5 844.0933,-18.5 844.0933,-.5 729.1772,-.5"/>
<text text-anchor="middle" x="786.6353" y="-6.5" font-family="Helvetica,sans-Serif" font-size="10.00" fill="#000000">Epetra_FECrsMatrix.h</text>
</g>
<!-- Node9&#45;&gt;Node18 -->
<g id="edge18" class="edge">
<title>Node9&#45;&gt;Node18</title>
<path fill="none" stroke="#191970" d="M1152.8182,-59.7498C1093.1188,-51.8104 969.2239,-35.2414 854.2524,-19.2177"/>
<polygon fill="#191970" stroke="#191970" points="854.6119,-15.734 844.2241,-17.8182 853.6444,-22.6668 854.6119,-15.734"/>
</g>
<!-- Node19 -->
<g id="node20" class="node">
<title>Node19</title>
<polygon fill="#ffffff" stroke="#bfbfbf" points="861.6602,-.5 861.6602,-18.5 961.6104,-18.5 961.6104,-.5 861.6602,-.5"/>
<text text-anchor="middle" x="911.6353" y="-6.5" font-family="Helvetica,sans-Serif" font-size="10.00" fill="#000000">Epetra_FEVector.h</text>
</g>
<!-- Node9&#45;&gt;Node19 -->
<g id="edge19" class="edge">
<title>Node9&#45;&gt;Node19</title>
<path fill="none" stroke="#191970" d="M1152.9894,-57.4223C1105.9446,-48.0813 1022.6282,-31.5383 967.2603,-20.5447"/>
<polygon fill="#191970" stroke="#191970" points="967.7524,-17.0741 957.2622,-18.5595 966.389,-23.9401 967.7524,-17.0741"/>
</g>
<!-- Node20 -->
<g id="node21" class="node">
<title>Node20</title>
<polygon fill="#ffffff" stroke="#bfbfbf" points="980.0493,-.5 980.0493,-18.5 1067.2212,-18.5 1067.2212,-.5 980.0493,-.5"/>
<text text-anchor="middle" x="1023.6353" y="-6.5" font-family="Helvetica,sans-Serif" font-size="10.00" fill="#000000">Epetra_Vector.h</text>
</g>
<!-- Node9&#45;&gt;Node20 -->
<g id="edge20" class="edge">
<title>Node9&#45;&gt;Node20</title>
<path fill="none" stroke="#191970" d="M1161.3889,-55.4179C1133.8397,-46.2348 1091.0775,-31.9807 1060.5079,-21.7909"/>
<polygon fill="#191970" stroke="#191970" points="1061.2415,-18.3462 1050.6479,-18.5042 1059.0279,-24.9869 1061.2415,-18.3462"/>
</g>
<!-- Node21 -->
<g id="node22" class="node">
<title>Node21</title>
<polygon fill="#ffffff" stroke="#bfbfbf" points="1085.2266,-.5 1085.2266,-18.5 1164.0439,-18.5 1164.0439,-.5 1085.2266,-.5"/>
<text text-anchor="middle" x="1124.6353" y="-6.5" font-family="Helvetica,sans-Serif" font-size="10.00" fill="#000000">Epetra_Map.h</text>
</g>
<!-- Node9&#45;&gt;Node21 -->
<g id="edge21" class="edge">
<title>Node9&#45;&gt;Node21</title>
<path fill="none" stroke="#191970" d="M1178.067,-55.4179C1168.582,-47.2667 1154.4478,-35.1201 1143.0986,-25.3669"/>
<polygon fill="#191970" stroke="#191970" points="1145.2986,-22.6427 1135.4332,-18.7795 1140.7362,-27.9516 1145.2986,-22.6427"/>
</g>
<!-- Node22 -->
<g id="node23" class="node">
<title>Node22</title>
<polygon fill="#ffffff" stroke="#bfbfbf" points="1182.106,-.5 1182.106,-18.5 1323.1646,-18.5 1323.1646,-.5 1182.106,-.5"/>
<text text-anchor="middle" x="1252.6353" y="-6.5" font-family="Helvetica,sans-Serif" font-size="10.00" fill="#000000">Epetra_SerialDenseMatrix.h</text>
</g>
<!-- Node9&#45;&gt;Node22 -->
<g id="edge22" class="edge">
<title>Node9&#45;&gt;Node22</title>
<path fill="none" stroke="#191970" d="M1199.2036,-55.4179C1208.6885,-47.2667 1222.8227,-35.1201 1234.1719,-25.3669"/>
<polygon fill="#191970" stroke="#191970" points="1236.5343,-27.9516 1241.8373,-18.7795 1231.9719,-22.6427 1236.5343,-27.9516"/>
</g>
<!-- Node23 -->
<g id="node24" class="node">
<title>Node23</title>
<polygon fill="#ffffff" stroke="#bfbfbf" points="1340.813,-.5 1340.813,-18.5 1482.4575,-18.5 1482.4575,-.5 1340.813,-.5"/>
<text text-anchor="middle" x="1411.6353" y="-6.5" font-family="Helvetica,sans-Serif" font-size="10.00" fill="#000000">Epetra_SerialDenseVector.h</text>
</g>
<!-- Node9&#45;&gt;Node23 -->
<g id="edge23" class="edge">
<title>Node9&#45;&gt;Node23</title>
<path fill="none" stroke="#191970" d="M1224.4641,-55.6633C1262.5672,-46.2657 1322.9935,-31.3623 1364.8344,-21.0428"/>
<polygon fill="#191970" stroke="#191970" points="1365.9111,-24.3822 1374.782,-18.5894 1364.2348,-17.5859 1365.9111,-24.3822"/>
</g>
<!-- Node24 -->
<g id="node25" class="node">
<title>Node24</title>
<polygon fill="#ffffff" stroke="#bfbfbf" points="1500.2539,-.5 1500.2539,-18.5 1653.0166,-18.5 1653.0166,-.5 1500.2539,-.5"/>
<text text-anchor="middle" x="1576.6353" y="-6.5" font-family="Helvetica,sans-Serif" font-size="10.00" fill="#000000">Epetra_IntSerialDenseVector.h</text>
</g>
<!-- Node9&#45;&gt;Node24 -->
<g id="edge24" class="edge">
<title>Node9&#45;&gt;Node24</title>
<path fill="none" stroke="#191970" d="M1224.4419,-59.4243C1287.5381,-50.4803 1419.713,-31.7441 1502.986,-19.94"/>
<polygon fill="#191970" stroke="#191970" points="1503.4811,-23.4049 1512.8909,-18.5359 1502.4986,-16.4741 1503.4811,-23.4049"/>
</g>
<!-- Node25 -->
<g id="node26" class="node">
<title>Node25</title>
<polygon fill="#ffffff" stroke="#bfbfbf" points="1670.7832,-.5 1670.7832,-18.5 1758.4873,-18.5 1758.4873,-.5 1670.7832,-.5"/>
<text text-anchor="middle" x="1714.6353" y="-6.5" font-family="Helvetica,sans-Serif" font-size="10.00" fill="#000000">Epetra_Import.h</text>
</g>
<!-- Node9&#45;&gt;Node25 -->
<g id="edge25" class="edge">
<title>Node9&#45;&gt;Node25</title>
<path fill="none" stroke="#191970" d="M1224.3521,-62.0631C1301.8496,-56.5611 1491.3997,-41.9467 1660.6312,-19.035"/>
<polygon fill="#191970" stroke="#191970" points="1661.2856,-22.4782 1670.7194,-17.656 1660.3374,-15.5427 1661.2856,-22.4782"/>
</g>
<!-- Node26 -->
<g id="node27" class="node">
<title>Node26</title>
<polygon fill="#ffffff" stroke="#bfbfbf" points="1776.5024,-.5 1776.5024,-18.5 1864.7681,-18.5 1864.7681,-.5 1776.5024,-.5"/>
<text text-anchor="middle" x="1820.6353" y="-6.5" font-family="Helvetica,sans-Serif" font-size="10.00" fill="#000000">Epetra_Export.h</text>
</g>
<!-- Node9&#45;&gt;Node26 -->
<g id="edge26" class="edge">
<title>Node9&#45;&gt;Node26</title>
<path fill="none" stroke="#191970" d="M1224.3401,-62.9254C1313.8495,-58.7155 1555.1712,-45.7455 1766.4041,-19.0413"/>
<polygon fill="#191970" stroke="#191970" points="1766.9635,-22.4984 1776.4394,-17.7593 1766.0764,-15.5548 1766.9635,-22.4984"/>
</g>
<!-- Node27 -->
<g id="node28" class="node">
<title>Node27</title>
<polygon fill="#ffffff" stroke="#bfbfbf" points="1883.0254,-.5 1883.0254,-18.5 1964.2451,-18.5 1964.2451,-.5 1883.0254,-.5"/>
<text text-anchor="middle" x="1923.6353" y="-6.5" font-family="Helvetica,sans-Serif" font-size="10.00" fill="#000000">Epetra_Time.h</text>
</g>
<!-- Node9&#45;&gt;Node27 -->
<g id="edge27" class="edge">
<title>Node9&#45;&gt;Node27</title>
<path fill="none" stroke="#191970" d="M1224.4386,-63.6537C1324.9976,-60.9516 1618.6637,-50.833 1872.6135,-18.9717"/>
<polygon fill="#191970" stroke="#191970" points="1873.2899,-22.414 1882.7698,-17.6831 1872.4088,-15.4697 1873.2899,-22.414"/>
</g>
<!-- Node28 -->
<g id="node29" class="node">
<title>Node28</title>
<polygon fill="#ffffff" stroke="#bfbfbf" points="1981.9312,-.5 1981.9312,-18.5 2131.3394,-18.5 2131.3394,-.5 1981.9312,-.5"/>
<text text-anchor="middle" x="2056.6353" y="-6.5" font-family="Helvetica,sans-Serif" font-size="10.00" fill="#000000">ml_MultiLevelPreconditioner.h</text>
</g>
<!-- Node9&#45;&gt;Node28 -->
<g id="edge28" class="edge">
<title>Node9&#45;&gt;Node28</title>
<path fill="none" stroke="#191970" d="M1224.2858,-63.1464C1334.1014,-58.8258 1677.1321,-44.201 1971.5405,-19.1426"/>
<polygon fill="#191970" stroke="#191970" points="1971.8883,-22.6257 1981.553,-18.2847 1971.2907,-15.6513 1971.8883,-22.6257"/>
</g>
<!-- Node35 -->
<g id="node30" class="node">
<title>Node35</title>
<polygon fill="#ffffff" stroke="#bfbfbf" points="2284.5879,-.5 2284.5879,-18.5 2382.6826,-18.5 2382.6826,-.5 2284.5879,-.5"/>
<text text-anchor="middle" x="2333.6353" y="-6.5" font-family="Helvetica,sans-Serif" font-size="10.00" fill="#000000">Teuchos_RCP.hpp</text>
</g>
<!-- Node9&#45;&gt;Node35 -->
<g id="edge29" class="edge">
<title>Node9&#45;&gt;Node35</title>
<path fill="none" stroke="#191970" d="M1224.3783,-63.5843C1385.3034,-59.3739 2044.3451,-41.1708 2274.0449,-19.0153"/>
<polygon fill="#191970" stroke="#191970" points="2274.7245,-22.4651 2284.3283,-17.991 2274.0306,-15.4995 2274.7245,-22.4651"/>
</g>
<!-- Node42 -->
<g id="node32" class="node">
<title>Node42</title>
<g id="a_node32"><a xlink:href="../../d2/d34/hyperelasticity_8hpp.html" target="_top" xlink:title="hyperelasticity.hpp">
<polygon fill="#ffffff" stroke="#000000" points="901.5928,-225.5 901.5928,-243.5 999.6777,-243.5 999.6777,-225.5 901.5928,-225.5"/>
<text text-anchor="middle" x="950.6353" y="-231.5" font-family="Helvetica,sans-Serif" font-size="10.00" fill="#000000">hyperelasticity.hpp</text>
</a>
</g>
</g>
<!-- Node41&#45;&gt;Node42 -->
<g id="edge31" class="edge">
<title>Node41&#45;&gt;Node42</title>
<path fill="none" stroke="#191970" d="M677.7127,-290.462C735.0021,-278.715 834.996,-258.2115 896.7359,-245.5519"/>
<polygon fill="#191970" stroke="#191970" points="897.5844,-248.9508 906.6775,-243.5134 896.1782,-242.0935 897.5844,-248.9508"/>
</g>
<!-- Node43 -->
<g id="node33" class="node">
<title>Node43</title>
<g id="a_node33"><a xlink:href="../../d2/d8b/_finite___element___problem_8hpp.html" target="_top" xlink:title="Finite_Element_Problem.hpp">
<polygon fill="#ffffff" stroke="#000000" points="1156.1553,-165.5 1156.1553,-183.5 1301.1152,-183.5 1301.1152,-165.5 1156.1553,-165.5"/>
<text text-anchor="middle" x="1228.6353" y="-171.5" font-family="Helvetica,sans-Serif" font-size="10.00" fill="#000000">Finite_Element_Problem.hpp</text>
</a>
</g>
</g>
<!-- Node42&#45;&gt;Node43 -->
<g id="edge32" class="edge">
<title>Node42&#45;&gt;Node43</title>
<path fill="none" stroke="#191970" d="M992.5557,-225.4524C1041.8604,-214.8111 1123.7141,-197.1448 1176.916,-185.6624"/>
<polygon fill="#191970" stroke="#191970" points="1177.7925,-189.0539 1186.829,-183.5229 1176.3156,-182.2115 1177.7925,-189.0539"/>
</g>
<!-- Node43&#45;&gt;Node9 -->
<g id="edge33" class="edge">
<title>Node43&#45;&gt;Node9</title>
<path fill="none" stroke="#191970" d="M1223.8848,-165.2587C1219.3365,-156.1837 1212.4704,-141.8676 1207.6353,-129 1201.9892,-113.9745 1196.927,-96.4823 1193.4503,-83.5078"/>
<polygon fill="#191970" stroke="#191970" points="1196.8354,-82.618 1190.9247,-73.8252 1190.062,-84.3848 1196.8354,-82.618"/>
</g>
<!-- Node44 -->
<g id="node34" class="node">
<title>Node44</title>
<g id="a_node34"><a xlink:href="../../d0/d41/_base_class_f_e_m_8hpp.html" target="_top" xlink:title="BaseClassFEM.hpp">
<polygon fill="#ffffff" stroke="#000000" points="1216.4507,-110.5 1216.4507,-128.5 1320.8198,-128.5 1320.8198,-110.5 1216.4507,-110.5"/>
<text text-anchor="middle" x="1268.6353" y="-116.5" font-family="Helvetica,sans-Serif" font-size="10.00" fill="#000000">BaseClassFEM.hpp</text>
</a>
</g>
</g>
<!-- Node43&#45;&gt;Node44 -->
<g id="edge34" class="edge">
<title>Node43&#45;&gt;Node44</title>
<path fill="none" stroke="#191970" d="M1235.2404,-165.4179C1240.8232,-157.7415 1248.9831,-146.5217 1255.8393,-137.0945"/>
<polygon fill="#191970" stroke="#191970" points="1258.8354,-138.9255 1261.8866,-128.7795 1253.1742,-134.8082 1258.8354,-138.9255"/>
</g>
<!-- Node44&#45;&gt;Node9 -->
<g id="edge35" class="edge">
<title>Node44&#45;&gt;Node9</title>
<path fill="none" stroke="#191970" d="M1255.4249,-110.4179C1243.1498,-101.9788 1224.6454,-89.257 1210.2244,-79.3426"/>
<polygon fill="#191970" stroke="#191970" points="1212.0886,-76.3768 1201.8653,-73.5956 1208.1228,-82.1451 1212.0886,-76.3768"/>
</g>
<!-- Node46 -->
<g id="node36" class="node">
<title>Node46</title>
<g id="a_node36"><a xlink:href="../../d9/dea/_linear___finite___element___problem_8hpp.html" target="_top" xlink:title="Linear_Finite_Element\l_Problem.hpp">
<polygon fill="#ffffff" stroke="#000000" points="1673.606,-220.5 1673.606,-248.5 1789.6646,-248.5 1789.6646,-220.5 1673.606,-220.5"/>
<text text-anchor="start" x="1681.606" y="-236.5" font-family="Helvetica,sans-Serif" font-size="10.00" fill="#000000">Linear_Finite_Element</text>
<text text-anchor="middle" x="1731.6353" y="-226.5" font-family="Helvetica,sans-Serif" font-size="10.00" fill="#000000">_Problem.hpp</text>
</a>
</g>
</g>
<!-- Node45&#45;&gt;Node46 -->
<g id="edge37" class="edge">
<title>Node45&#45;&gt;Node46</title>
<path fill="none" stroke="#191970" d="M955.7802,-290.433C962.8002,-288.3215 970.4411,-286.31 977.6353,-285 1108.1984,-261.2251 1503.2907,-243.4889 1663.276,-237.095"/>
<polygon fill="#191970" stroke="#191970" points="1663.6154,-240.5843 1673.4686,-236.6903 1663.3376,-233.5899 1663.6154,-240.5843"/>
</g>
<!-- Node46&#45;&gt;Node44 -->
<g id="edge38" class="edge">
<title>Node46&#45;&gt;Node44</title>
<path fill="none" stroke="#191970" d="M1674.8624,-220.3987C1582.1621,-197.3738 1400.0968,-152.1524 1314.7924,-130.9645"/>
<polygon fill="#191970" stroke="#191970" points="1315.4305,-127.5167 1304.8817,-128.5029 1313.7431,-134.3103 1315.4305,-127.5167"/>
</g>
<!-- Node53&#45;&gt;Node4 -->
<g id="edge54" class="edge">
<title>Node53&#45;&gt;Node4</title>
<path fill="none" stroke="#191970" d="M1815.2498,-360.1018C1709.8894,-352.5181 1492.1418,-335.6859 1308.6353,-314 1298.7074,-312.8268 1288.2356,-311.4388 1277.9788,-309.9941"/>
<polygon fill="#191970" stroke="#191970" points="1278.2176,-306.4926 1267.8218,-308.5363 1277.2231,-313.4216 1278.2176,-306.4926"/>
</g>
<!-- Node53&#45;&gt;Node5 -->
<g id="edge55" class="edge">
<title>Node53&#45;&gt;Node5</title>
<path fill="none" stroke="#191970" d="M1815.3042,-357.9221C1734.2802,-349.2348 1589.6937,-332.8181 1466.6353,-314 1459.433,-312.8986 1451.8798,-311.6428 1444.419,-310.3415"/>
<polygon fill="#191970" stroke="#191970" points="1444.8024,-306.8548 1434.3439,-308.5489 1443.5762,-313.7466 1444.8024,-306.8548"/>
</g>
<!-- Node53&#45;&gt;Node6 -->
<g id="edge56" class="edge">
<title>Node53&#45;&gt;Node6</title>
<path fill="none" stroke="#191970" d="M1832.4721,-355.462C1779.6205,-345.1146 1692.0663,-327.973 1627.7598,-315.3828"/>
<polygon fill="#191970" stroke="#191970" points="1628.1337,-311.8896 1617.6475,-313.403 1626.7887,-318.7592 1628.1337,-311.8896"/>
</g>
<!-- Node53&#45;&gt;Node35 -->
<g id="edge47" class="edge">
<title>Node53&#45;&gt;Node35</title>
<path fill="none" stroke="#191970" d="M1942.0767,-361.1352C2056.3085,-354.5017 2287.312,-338.2441 2314.6353,-314 2341.8088,-289.8888 2333.6353,-270.8284 2333.6353,-234.5 2333.6353,-234.5 2333.6353,-234.5 2333.6353,-119.5 2333.6353,-87.7718 2333.6353,-50.8957 2333.6353,-28.917"/>
<polygon fill="#191970" stroke="#191970" points="2337.1354,-28.6266 2333.6353,-18.6267 2330.1354,-28.6267 2337.1354,-28.6266"/>
</g>
<!-- Node53&#45;&gt;Node43 -->
<g id="edge46" class="edge">
<title>Node53&#45;&gt;Node43</title>
<path fill="none" stroke="#191970" d="M1815.4513,-356.7135C1771.5696,-349.6258 1712.6012,-336.6873 1664.6353,-314 1645.43,-304.9161 1645.6594,-294.4573 1626.6353,-285 1517.9463,-230.9683 1378.9956,-200.0801 1297.3134,-185.3516"/>
<polygon fill="#191970" stroke="#191970" points="1297.6114,-181.85 1287.1539,-183.55 1296.3891,-188.7424 1297.6114,-181.85"/>
</g>
<!-- Node54 -->
<g id="node44" class="node">
<title>Node54</title>
<polygon fill="#ffffff" stroke="#bfbfbf" points="1962.1255,-290.5 1962.1255,-308.5 2013.145,-308.5 2013.145,-290.5 1962.1255,-290.5"/>
<text text-anchor="middle" x="1987.6353" y="-296.5" font-family="Helvetica,sans-Serif" font-size="10.00" fill="#000000">Ifpack.h</text>
</g>
<!-- Node53&#45;&gt;Node54 -->
<g id="edge48" class="edge">
<title>Node53&#45;&gt;Node54</title>
<path fill="none" stroke="#191970" d="M1893.7912,-355.462C1911.8296,-344.7052 1942.1808,-326.6059 1963.47,-313.9105"/>
<polygon fill="#191970" stroke="#191970" points="1965.4604,-316.7987 1972.2566,-308.6708 1961.8752,-310.7865 1965.4604,-316.7987"/>
</g>
<!-- Node55 -->
<g id="node45" class="node">
<title>Node55</title>
<polygon fill="#ffffff" stroke="#bfbfbf" points="2031.3843,-290.5 2031.3843,-308.5 2161.8862,-308.5 2161.8862,-290.5 2031.3843,-290.5"/>
<text text-anchor="middle" x="2096.6353" y="-296.5" font-family="Helvetica,sans-Serif" font-size="10.00" fill="#000000">Ifpack_AdditiveSchwarz.h</text>
</g>
<!-- Node53&#45;&gt;Node55 -->
<g id="edge49" class="edge">
<title>Node53&#45;&gt;Node55</title>
<path fill="none" stroke="#191970" d="M1908.9472,-355.462C1947.3973,-343.9976 2013.8191,-324.1929 2056.4599,-311.4789"/>
<polygon fill="#191970" stroke="#191970" points="2057.6471,-314.7772 2066.2301,-308.5658 2055.6469,-308.0691 2057.6471,-314.7772"/>
</g>
<!-- Node56 -->
<g id="node46" class="node">
<title>Node56</title>
<polygon fill="#ffffff" stroke="#bfbfbf" points="2179.8794,-290.5 2179.8794,-308.5 2305.3911,-308.5 2305.3911,-290.5 2179.8794,-290.5"/>
<text text-anchor="middle" x="2242.6353" y="-296.5" font-family="Helvetica,sans-Serif" font-size="10.00" fill="#000000">BelosLinearProblem.hpp</text>
</g>
<!-- Node53&#45;&gt;Node56 -->
<g id="edge50" class="edge">
<title>Node53&#45;&gt;Node56</title>
<path fill="none" stroke="#191970" d="M1933.6101,-355.4553C1992.3664,-345.6803 2088.2075,-329.4248 2170.6353,-314 2176.4966,-312.9032 2182.6192,-311.7232 2188.712,-310.527"/>
<polygon fill="#191970" stroke="#191970" points="2189.7575,-313.888 2198.8862,-308.5106 2188.3965,-307.0215 2189.7575,-313.888"/>
</g>
<!-- Node57 -->
<g id="node47" class="node">
<title>Node57</title>
<polygon fill="#ffffff" stroke="#bfbfbf" points="2361.606,-290.5 2361.606,-308.5 2507.6646,-308.5 2507.6646,-290.5 2361.606,-290.5"/>
<text text-anchor="middle" x="2434.6353" y="-296.5" font-family="Helvetica,sans-Serif" font-size="10.00" fill="#000000">BelosBlockGmresSolMgr.hpp</text>
</g>
<!-- Node53&#45;&gt;Node57 -->
<g id="edge51" class="edge">
<title>Node53&#45;&gt;Node57</title>
<path fill="none" stroke="#191970" d="M1941.7398,-358.875C2031.9287,-350.5701 2202.8079,-333.8492 2347.6353,-314 2356.0313,-312.8493 2364.8632,-311.5184 2373.5501,-310.1391"/>
<polygon fill="#191970" stroke="#191970" points="2374.3338,-313.5579 2383.6464,-308.5055 2373.2157,-306.6478 2374.3338,-313.5579"/>
</g>
<!-- Node58 -->
<g id="node48" class="node">
<title>Node58</title>
<polygon fill="#ffffff" stroke="#bfbfbf" points="2525.4263,-290.5 2525.4263,-308.5 2649.8442,-308.5 2649.8442,-290.5 2525.4263,-290.5"/>
<text text-anchor="middle" x="2587.6353" y="-296.5" font-family="Helvetica,sans-Serif" font-size="10.00" fill="#000000">BelosEpetraAdapter.hpp</text>
</g>
<!-- Node53&#45;&gt;Node58 -->
<g id="edge52" class="edge">
<title>Node53&#45;&gt;Node58</title>
<path fill="none" stroke="#191970" d="M1941.8518,-362.0641C2056.7544,-357.0668 2307.3226,-343.5441 2516.6353,-314 2523.4148,-313.0431 2530.5205,-311.8377 2537.5074,-310.5328"/>
<polygon fill="#191970" stroke="#191970" points="2538.46,-313.9132 2547.6071,-308.567 2537.1226,-307.0421 2538.46,-313.9132"/>
</g>
<!-- Node59 -->
<g id="node49" class="node">
<title>Node59</title>
<polygon fill="#ffffff" stroke="#bfbfbf" points="1673.9229,-290.5 1673.9229,-308.5 1795.3477,-308.5 1795.3477,-290.5 1673.9229,-290.5"/>
<text text-anchor="middle" x="1734.6353" y="-296.5" font-family="Helvetica,sans-Serif" font-size="10.00" fill="#000000">BelosSolverFactory.hpp</text>
</g>
<!-- Node53&#45;&gt;Node59 -->
<g id="edge53" class="edge">
<title>Node53&#45;&gt;Node59</title>
<path fill="none" stroke="#191970" d="M1858.6127,-355.462C1834.1409,-344.4158 1792.5158,-325.6266 1764.3164,-312.8977"/>
<polygon fill="#191970" stroke="#191970" points="1765.5065,-309.5949 1754.952,-308.6708 1762.6265,-315.9751 1765.5065,-309.5949"/>
</g>
<!-- Node60 -->
<g id="node50" class="node">
<title>Node60</title>
<polygon fill="#ffffff" stroke="#bfbfbf" points="1813.3867,-285.5 1813.3867,-313.5 1943.8838,-313.5 1943.8838,-285.5 1813.3867,-285.5"/>
<text text-anchor="start" x="1821.3867" y="-301.5" font-family="Helvetica,sans-Serif" font-size="10.00" fill="#000000">Stratimikos_DefaultLinear</text>
<text text-anchor="middle" x="1878.6353" y="-291.5" font-family="Helvetica,sans-Serif" font-size="10.00" fill="#000000">SolverBuilder.hpp</text>
</g>
<!-- Node53&#45;&gt;Node60 -->
<g id="edge57" class="edge">
<title>Node53&#45;&gt;Node60</title>
<path fill="none" stroke="#191970" d="M1878.6353,-355.462C1878.6353,-347.404 1878.6353,-335.2257 1878.6353,-324.2852"/>
<polygon fill="#191970" stroke="#191970" points="1882.1354,-323.9558 1878.6353,-313.9559 1875.1354,-323.9559 1882.1354,-323.9558"/>
</g>
</g>
</svg>
