<?xml version="1.0" encoding="UTF-8" standalone="no"?>
<!DOCTYPE svg PUBLIC "-//W3C//DTD SVG 1.1//EN"
 "http://www.w3.org/Graphics/SVG/1.1/DTD/svg11.dtd">
<!-- Generated by graphviz version 2.40.1 (20161225.0304)
 -->
<!-- Title: src/shape/QuadraticTetra.cpp Pages: 1 -->
<svg width="155pt" height="192pt"
 viewBox="0.00 0.00 154.62 192.00" xmlns="http://www.w3.org/2000/svg" xmlns:xlink="http://www.w3.org/1999/xlink">
<g id="graph0" class="graph" transform="scale(1 1) rotate(0) translate(4 188)">
<title>src/shape/QuadraticTetra.cpp</title>
<polygon fill="#ffffff" stroke="transparent" points="-4,4 -4,-188 150.6201,-188 150.6201,4 -4,4"/>
<!-- Node0 -->
<g id="node1" class="node">
<title>Node0</title>
<polygon fill="#bfbfbf" stroke="#000000" points="0,-165.5 0,-183.5 146.6201,-183.5 146.6201,-165.5 0,-165.5"/>
<text text-anchor="middle" x="73.3101" y="-171.5" font-family="Helvetica,sans-Serif" font-size="10.00" fill="#000000">src/shape/QuadraticTetra.cpp</text>
</g>
<!-- Node1 -->
<g id="node2" class="node">
<title>Node1</title>
<g id="a_node2"><a xlink:href="../../d3/d51/_quadratic_tetra_8hpp.html" target="_top" xlink:title="QuadraticTetra.hpp">
<polygon fill="#ffffff" stroke="#000000" points="22.7856,-110.5 22.7856,-128.5 123.8345,-128.5 123.8345,-110.5 22.7856,-110.5"/>
<text text-anchor="middle" x="73.3101" y="-116.5" font-family="Helvetica,sans-Serif" font-size="10.00" fill="#000000">QuadraticTetra.hpp</text>
</a>
</g>
</g>
<!-- Node0&#45;&gt;Node1 -->
<g id="edge1" class="edge">
<title>Node0&#45;&gt;Node1</title>
<path fill="none" stroke="#191970" d="M73.3101,-165.4179C73.3101,-158.2164 73.3101,-147.8962 73.3101,-138.8632"/>
<polygon fill="#191970" stroke="#191970" points="76.8102,-138.7794 73.3101,-128.7795 69.8102,-138.7795 76.8102,-138.7794"/>
</g>
<!-- Node2 -->
<g id="node3" class="node">
<title>Node2</title>
<g id="a_node3"><a xlink:href="../../dc/dc6/_shape_object3_d_8hpp.html" target="_top" xlink:title="ShapeObject3D.hpp">
<polygon fill="#ffffff" stroke="#000000" points="20.2783,-55.5 20.2783,-73.5 126.3418,-73.5 126.3418,-55.5 20.2783,-55.5"/>
<text text-anchor="middle" x="73.3101" y="-61.5" font-family="Helvetica,sans-Serif" font-size="10.00" fill="#000000">ShapeObject3D.hpp</text>
</a>
</g>
</g>
<!-- Node1&#45;&gt;Node2 -->
<g id="edge2" class="edge">
<title>Node1&#45;&gt;Node2</title>
<path fill="none" stroke="#191970" d="M73.3101,-110.4179C73.3101,-103.2164 73.3101,-92.8962 73.3101,-83.8632"/>
<polygon fill="#191970" stroke="#191970" points="76.8102,-83.7794 73.3101,-73.7795 69.8102,-83.7795 76.8102,-83.7794"/>
</g>
<!-- Node3 -->
<g id="node4" class="node">
<title>Node3</title>
<g id="a_node4"><a xlink:href="../../de/da7/_shape_object_8hpp.html" target="_top" xlink:title="ShapeObject.hpp">
<polygon fill="#ffffff" stroke="#000000" points="26.6699,-.5 26.6699,-18.5 119.9502,-18.5 119.9502,-.5 26.6699,-.5"/>
<text text-anchor="middle" x="73.3101" y="-6.5" font-family="Helvetica,sans-Serif" font-size="10.00" fill="#000000">ShapeObject.hpp</text>
</a>
</g>
</g>
<!-- Node2&#45;&gt;Node3 -->
<g id="edge3" class="edge">
<title>Node2&#45;&gt;Node3</title>
<path fill="none" stroke="#191970" d="M73.3101,-55.4179C73.3101,-48.2164 73.3101,-37.8962 73.3101,-28.8632"/>
<polygon fill="#191970" stroke="#191970" points="76.8102,-28.7794 73.3101,-18.7795 69.8102,-28.7795 76.8102,-28.7794"/>
</g>
</g>
</svg>
