<?xml version="1.0" encoding="UTF-8" standalone="no"?>
<!DOCTYPE svg PUBLIC "-//W3C//DTD SVG 1.1//EN"
 "http://www.w3.org/Graphics/SVG/1.1/DTD/svg11.dtd">
<!-- Generated by graphviz version 2.40.1 (20161225.0304)
 -->
<!-- Title: src/hyperelasticity.cpp Pages: 1 -->
<svg width="3399pt" height="308pt"
 viewBox="0.00 0.00 3399.00 308.00" xmlns="http://www.w3.org/2000/svg" xmlns:xlink="http://www.w3.org/1999/xlink">
<g id="graph0" class="graph" transform="scale(1 1) rotate(0) translate(4 304)">
<title>src/hyperelasticity.cpp</title>
<polygon fill="#ffffff" stroke="transparent" points="-4,4 -4,-304 3395,-304 3395,4 -4,4"/>
<!-- Node0 -->
<g id="node1" class="node">
<title>Node0</title>
<polygon fill="#bfbfbf" stroke="#000000" points="2534.5,-280.5 2534.5,-299.5 2649.5,-299.5 2649.5,-280.5 2534.5,-280.5"/>
<text text-anchor="middle" x="2592" y="-287.5" font-family="Helvetica,sans-Serif" font-size="10.00" fill="#000000">src/hyperelasticity.cpp</text>
</g>
<!-- Node1 -->
<g id="node2" class="node">
<title>Node1</title>
<g id="a_node2"><a xlink:href="../../d2/d34/hyperelasticity_8hpp.html" target="_top" xlink:title="hyperelasticity.hpp">
<polygon fill="#ffffff" stroke="#000000" points="2505,-224.5 2505,-243.5 2603,-243.5 2603,-224.5 2505,-224.5"/>
<text text-anchor="middle" x="2554" y="-231.5" font-family="Helvetica,sans-Serif" font-size="10.00" fill="#000000">hyperelasticity.hpp</text>
</a>
</g>
</g>
<!-- Node0&#45;&gt;Node1 -->
<g id="edge1" class="edge">
<title>Node0&#45;&gt;Node1</title>
<path fill="none" stroke="#191970" d="M2585.3809,-280.2455C2580.0954,-272.4564 2572.5459,-261.3308 2566.1762,-251.9439"/>
<polygon fill="#191970" stroke="#191970" points="2569.0545,-249.9522 2560.5432,-243.6427 2563.2621,-253.8827 2569.0545,-249.9522"/>
</g>
<!-- Node34 -->
<g id="node35" class="node">
<title>Node34</title>
<g id="a_node35"><a xlink:href="../../d4/dbc/fepp_8hpp.html" target="_top" xlink:title="fepp.hpp">
<polygon fill="#ffffff" stroke="#000000" points="3337,-.5 3337,-19.5 3391,-19.5 3391,-.5 3337,-.5"/>
<text text-anchor="middle" x="3364" y="-7.5" font-family="Helvetica,sans-Serif" font-size="10.00" fill="#000000">fepp.hpp</text>
</a>
</g>
</g>
<!-- Node0&#45;&gt;Node34 -->
<g id="edge38" class="edge">
<title>Node0&#45;&gt;Node34</title>
<path fill="none" stroke="#191970" d="M2601.0625,-280.3829C2617.375,-262.0212 2650,-220.0423 2650,-178 2650,-178 2650,-178 2650,-122 2650,27.3119 3158.0212,-48.5865 3327.0341,-19.7896"/>
<polygon fill="#191970" stroke="#191970" points="3327.7961,-23.2074 3336.9605,-17.8909 3326.4809,-16.3321 3327.7961,-23.2074"/>
</g>
<!-- Node2 -->
<g id="node3" class="node">
<title>Node2</title>
<g id="a_node3"><a xlink:href="../../d4/d16/_non_linear_finite_element_problem_8hpp.html" target="_top" xlink:title="NonLinearFiniteElementProblem.hpp">
<polygon fill="#ffffff" stroke="#000000" points="1732,-168.5 1732,-187.5 1908,-187.5 1908,-168.5 1732,-168.5"/>
<text text-anchor="middle" x="1820" y="-175.5" font-family="Helvetica,sans-Serif" font-size="10.00" fill="#000000">NonLinearFiniteElementProblem.hpp</text>
</a>
</g>
</g>
<!-- Node1&#45;&gt;Node2 -->
<g id="edge2" class="edge">
<title>Node1&#45;&gt;Node2</title>
<path fill="none" stroke="#191970" d="M2504.9865,-230.2605C2385.5411,-221.1475 2077.5844,-197.6522 1918.4511,-185.5113"/>
<polygon fill="#191970" stroke="#191970" points="1918.4253,-181.9992 1908.188,-184.7282 1917.8928,-188.9789 1918.4253,-181.9992"/>
</g>
<!-- Node3 -->
<g id="node4" class="node">
<title>Node3</title>
<g id="a_node4"><a xlink:href="../../d0/d02/meshpp_8hpp.html" target="_top" xlink:title="meshpp.hpp">
<polygon fill="#ffffff" stroke="#000000" points="1705,-56.5 1705,-75.5 1775,-75.5 1775,-56.5 1705,-56.5"/>
<text text-anchor="middle" x="1740" y="-63.5" font-family="Helvetica,sans-Serif" font-size="10.00" fill="#000000">meshpp.hpp</text>
</a>
</g>
</g>
<!-- Node2&#45;&gt;Node3 -->
<g id="edge3" class="edge">
<title>Node2&#45;&gt;Node3</title>
<path fill="none" stroke="#191970" d="M1801.6876,-168.4926C1788.0213,-160.4993 1769.8991,-147.8464 1759,-132 1749.5095,-118.2015 1744.7136,-99.6772 1742.3177,-85.7662"/>
<polygon fill="#191970" stroke="#191970" points="1745.768,-85.1704 1740.867,-75.7773 1738.8407,-86.1765 1745.768,-85.1704"/>
</g>
<!-- Node35 -->
<g id="node36" class="node">
<title>Node35</title>
<g id="a_node36"><a xlink:href="../../d0/d41/_base_class_f_e_m_8hpp.html" target="_top" xlink:title="BaseClassFEM.hpp">
<polygon fill="#ffffff" stroke="#000000" points="1768,-112.5 1768,-131.5 1872,-131.5 1872,-112.5 1768,-112.5"/>
<text text-anchor="middle" x="1820" y="-119.5" font-family="Helvetica,sans-Serif" font-size="10.00" fill="#000000">BaseClassFEM.hpp</text>
</a>
</g>
</g>
<!-- Node2&#45;&gt;Node35 -->
<g id="edge36" class="edge">
<title>Node2&#45;&gt;Node35</title>
<path fill="none" stroke="#191970" d="M1820,-168.2455C1820,-160.9382 1820,-150.6944 1820,-141.7046"/>
<polygon fill="#191970" stroke="#191970" points="1823.5001,-141.6426 1820,-131.6427 1816.5001,-141.6427 1823.5001,-141.6426"/>
</g>
<!-- Node4 -->
<g id="node5" class="node">
<title>Node4</title>
<polygon fill="#ffffff" stroke="#bfbfbf" points="0,-.5 0,-19.5 46,-19.5 46,-.5 0,-.5"/>
<text text-anchor="middle" x="23" y="-7.5" font-family="Helvetica,sans-Serif" font-size="10.00" fill="#000000">stdio.h</text>
</g>
<!-- Node3&#45;&gt;Node4 -->
<g id="edge4" class="edge">
<title>Node3&#45;&gt;Node4</title>
<path fill="none" stroke="#191970" d="M1704.9856,-65.6231C1482.2169,-63.15 265.5748,-48.4974 56.2336,-19.596"/>
<polygon fill="#191970" stroke="#191970" points="56.6509,-16.1193 46.2382,-18.0755 55.5981,-23.0397 56.6509,-16.1193"/>
</g>
<!-- Node5 -->
<g id="node6" class="node">
<title>Node5</title>
<polygon fill="#ffffff" stroke="#bfbfbf" points="64,-.5 64,-19.5 118,-19.5 118,-.5 64,-.5"/>
<text text-anchor="middle" x="91" y="-7.5" font-family="Helvetica,sans-Serif" font-size="10.00" fill="#000000">iostream</text>
</g>
<!-- Node3&#45;&gt;Node5 -->
<g id="edge5" class="edge">
<title>Node3&#45;&gt;Node5</title>
<path fill="none" stroke="#191970" d="M1704.723,-65.5071C1487.1547,-62.4006 330.63,-44.9 128.5423,-19.7361"/>
<polygon fill="#191970" stroke="#191970" points="128.752,-16.2321 118.3688,-18.3394 127.7998,-23.1671 128.752,-16.2321"/>
</g>
<!-- Node6 -->
<g id="node7" class="node">
<title>Node6</title>
<polygon fill="#ffffff" stroke="#bfbfbf" points="136.5,-.5 136.5,-19.5 185.5,-19.5 185.5,-.5 136.5,-.5"/>
<text text-anchor="middle" x="161" y="-7.5" font-family="Helvetica,sans-Serif" font-size="10.00" fill="#000000">istream</text>
</g>
<!-- Node3&#45;&gt;Node6 -->
<g id="edge6" class="edge">
<title>Node3&#45;&gt;Node6</title>
<path fill="none" stroke="#191970" d="M1704.8207,-65.4929C1493.0199,-62.3696 390.464,-45.0938 195.7706,-19.5239"/>
<polygon fill="#191970" stroke="#191970" points="196.1128,-16.037 185.7139,-18.0648 195.1077,-22.9645 196.1128,-16.037"/>
</g>
<!-- Node7 -->
<g id="node8" class="node">
<title>Node7</title>
<polygon fill="#ffffff" stroke="#bfbfbf" points="204,-.5 204,-19.5 254,-19.5 254,-.5 204,-.5"/>
<text text-anchor="middle" x="229" y="-7.5" font-family="Helvetica,sans-Serif" font-size="10.00" fill="#000000">fstream</text>
</g>
<!-- Node3&#45;&gt;Node7 -->
<g id="edge7" class="edge">
<title>Node3&#45;&gt;Node7</title>
<path fill="none" stroke="#191970" d="M1704.6794,-65.439C1498.2941,-62.091 451.3419,-44.12 264.2316,-19.625"/>
<polygon fill="#191970" stroke="#191970" points="264.4856,-16.1253 254.0867,-18.1534 263.4807,-23.0528 264.4856,-16.1253"/>
</g>
<!-- Node8 -->
<g id="node9" class="node">
<title>Node8</title>
<polygon fill="#ffffff" stroke="#bfbfbf" points="272,-.5 272,-19.5 316,-19.5 316,-.5 272,-.5"/>
<text text-anchor="middle" x="294" y="-7.5" font-family="Helvetica,sans-Serif" font-size="10.00" fill="#000000">vector</text>
</g>
<!-- Node3&#45;&gt;Node8 -->
<g id="edge8" class="edge">
<title>Node3&#45;&gt;Node8</title>
<path fill="none" stroke="#191970" d="M1704.8315,-65.4444C1504.0458,-62.1956 505.6635,-44.988 326.1274,-19.5394"/>
<polygon fill="#191970" stroke="#191970" points="326.5863,-16.0686 316.1634,-17.9695 325.4968,-22.9833 326.5863,-16.0686"/>
</g>
<!-- Node9 -->
<g id="node10" class="node">
<title>Node9</title>
<polygon fill="#ffffff" stroke="#bfbfbf" points="334,-.5 334,-19.5 384,-19.5 384,-.5 334,-.5"/>
<text text-anchor="middle" x="359" y="-7.5" font-family="Helvetica,sans-Serif" font-size="10.00" fill="#000000">iomanip</text>
</g>
<!-- Node3&#45;&gt;Node9 -->
<g id="edge9" class="edge">
<title>Node3&#45;&gt;Node9</title>
<path fill="none" stroke="#191970" d="M1704.9263,-65.3303C1510.3707,-61.5467 566.5783,-42.2702 394.1056,-19.6074"/>
<polygon fill="#191970" stroke="#191970" points="394.4889,-16.1263 384.0881,-18.1448 393.4775,-23.0529 394.4889,-16.1263"/>
</g>
<!-- Node10 -->
<g id="node11" class="node">
<title>Node10</title>
<polygon fill="#ffffff" stroke="#bfbfbf" points="402,-.5 402,-19.5 506,-19.5 506,-.5 402,-.5"/>
<text text-anchor="middle" x="454" y="-7.5" font-family="Helvetica,sans-Serif" font-size="10.00" fill="#000000">Epetra_MpiComm.h</text>
</g>
<!-- Node3&#45;&gt;Node10 -->
<g id="edge10" class="edge">
<title>Node3&#45;&gt;Node10</title>
<path fill="none" stroke="#191970" d="M1704.7921,-65.2731C1532.3715,-61.6235 775.2839,-44.537 516.2972,-19.9833"/>
<polygon fill="#191970" stroke="#191970" points="516.4796,-16.4846 506.1865,-18.9953 515.7987,-23.4514 516.4796,-16.4846"/>
</g>
<!-- Node11 -->
<g id="node12" class="node">
<title>Node11</title>
<polygon fill="#ffffff" stroke="#bfbfbf" points="524.5,-.5 524.5,-19.5 637.5,-19.5 637.5,-.5 524.5,-.5"/>
<text text-anchor="middle" x="581" y="-7.5" font-family="Helvetica,sans-Serif" font-size="10.00" fill="#000000">Epetra_FECrsGraph.h</text>
</g>
<!-- Node3&#45;&gt;Node11 -->
<g id="edge11" class="edge">
<title>Node3&#45;&gt;Node11</title>
<path fill="none" stroke="#191970" d="M1704.8843,-65.0352C1544.4504,-60.5496 879.4429,-41.0967 647.8704,-19.9545"/>
<polygon fill="#191970" stroke="#191970" points="648.1169,-16.4623 637.8331,-19.0105 647.4614,-23.4316 648.1169,-16.4623"/>
</g>
<!-- Node12 -->
<g id="node13" class="node">
<title>Node12</title>
<polygon fill="#ffffff" stroke="#bfbfbf" points="656,-.5 656,-19.5 770,-19.5 770,-.5 656,-.5"/>
<text text-anchor="middle" x="713" y="-7.5" font-family="Helvetica,sans-Serif" font-size="10.00" fill="#000000">Epetra_FECrsMatrix.h</text>
</g>
<!-- Node3&#45;&gt;Node12 -->
<g id="edge12" class="edge">
<title>Node3&#45;&gt;Node12</title>
<path fill="none" stroke="#191970" d="M1704.9978,-65.6194C1580.528,-63.9932 1147.598,-56.0072 780.2222,-20.0234"/>
<polygon fill="#191970" stroke="#191970" points="780.488,-16.5327 770.1923,-19.0323 779.7996,-23.4987 780.488,-16.5327"/>
</g>
<!-- Node13 -->
<g id="node14" class="node">
<title>Node13</title>
<polygon fill="#ffffff" stroke="#bfbfbf" points="788,-.5 788,-19.5 888,-19.5 888,-.5 788,-.5"/>
<text text-anchor="middle" x="838" y="-7.5" font-family="Helvetica,sans-Serif" font-size="10.00" fill="#000000">Epetra_FEVector.h</text>
</g>
<!-- Node3&#45;&gt;Node13 -->
<g id="edge13" class="edge">
<title>Node3&#45;&gt;Node13</title>
<path fill="none" stroke="#191970" d="M1704.9514,-65.5094C1590.4964,-63.6072 1217.2276,-55.0366 898.5201,-20.0482"/>
<polygon fill="#191970" stroke="#191970" points="898.4823,-16.5227 888.1574,-18.8991 897.7107,-23.48 898.4823,-16.5227"/>
</g>
<!-- Node14 -->
<g id="node15" class="node">
<title>Node14</title>
<polygon fill="#ffffff" stroke="#bfbfbf" points="906.5,-.5 906.5,-19.5 993.5,-19.5 993.5,-.5 906.5,-.5"/>
<text text-anchor="middle" x="950" y="-7.5" font-family="Helvetica,sans-Serif" font-size="10.00" fill="#000000">Epetra_Vector.h</text>
</g>
<!-- Node3&#45;&gt;Node14 -->
<g id="edge14" class="edge">
<title>Node3&#45;&gt;Node14</title>
<path fill="none" stroke="#191970" d="M1704.894,-65.4016C1599.894,-63.2756 1278.9995,-54.3336 1003.8088,-20.0903"/>
<polygon fill="#191970" stroke="#191970" points="1003.9867,-16.5851 993.6279,-18.8091 1003.1127,-23.5303 1003.9867,-16.5851"/>
</g>
<!-- Node15 -->
<g id="node16" class="node">
<title>Node15</title>
<polygon fill="#ffffff" stroke="#bfbfbf" points="1011.5,-.5 1011.5,-19.5 1088.5,-19.5 1088.5,-.5 1011.5,-.5"/>
<text text-anchor="middle" x="1050" y="-7.5" font-family="Helvetica,sans-Serif" font-size="10.00" fill="#000000">Epetra_Map.h</text>
</g>
<!-- Node3&#45;&gt;Node15 -->
<g id="edge15" class="edge">
<title>Node3&#45;&gt;Node15</title>
<path fill="none" stroke="#191970" d="M1704.9705,-65.1938C1609.2897,-62.6312 1335.3979,-52.8873 1098.8236,-20.0939"/>
<polygon fill="#191970" stroke="#191970" points="1099.0427,-16.5905 1088.6532,-18.6665 1098.0697,-23.5225 1099.0427,-16.5905"/>
</g>
<!-- Node16 -->
<g id="node17" class="node">
<title>Node16</title>
<polygon fill="#ffffff" stroke="#bfbfbf" points="1106.5,-.5 1106.5,-19.5 1245.5,-19.5 1245.5,-.5 1106.5,-.5"/>
<text text-anchor="middle" x="1176" y="-7.5" font-family="Helvetica,sans-Serif" font-size="10.00" fill="#000000">Epetra_SerialDenseMatrix.h</text>
</g>
<!-- Node3&#45;&gt;Node16 -->
<g id="edge16" class="edge">
<title>Node3&#45;&gt;Node16</title>
<path fill="none" stroke="#191970" d="M1704.9653,-63.0565C1626.603,-56.3914 1430.9812,-39.3006 1255.9424,-20.0745"/>
<polygon fill="#191970" stroke="#191970" points="1256.0963,-16.5703 1245.7728,-18.9524 1255.3286,-23.5281 1256.0963,-16.5703"/>
</g>
<!-- Node17 -->
<g id="node18" class="node">
<title>Node17</title>
<polygon fill="#ffffff" stroke="#bfbfbf" points="1264,-.5 1264,-19.5 1404,-19.5 1404,-.5 1264,-.5"/>
<text text-anchor="middle" x="1334" y="-7.5" font-family="Helvetica,sans-Serif" font-size="10.00" fill="#000000">Epetra_SerialDenseVector.h</text>
</g>
<!-- Node3&#45;&gt;Node17 -->
<g id="edge17" class="edge">
<title>Node3&#45;&gt;Node17</title>
<path fill="none" stroke="#191970" d="M1704.6804,-61.1283C1640.0341,-52.2116 1501.2339,-33.0667 1413.0316,-20.9009"/>
<polygon fill="#191970" stroke="#191970" points="1413.4509,-17.4257 1403.0664,-19.5264 1412.4943,-24.36 1413.4509,-17.4257"/>
</g>
<!-- Node18 -->
<g id="node19" class="node">
<title>Node18</title>
<polygon fill="#ffffff" stroke="#bfbfbf" points="1422,-.5 1422,-19.5 1574,-19.5 1574,-.5 1422,-.5"/>
<text text-anchor="middle" x="1498" y="-7.5" font-family="Helvetica,sans-Serif" font-size="10.00" fill="#000000">Epetra_IntSerialDenseVector.h</text>
</g>
<!-- Node3&#45;&gt;Node18 -->
<g id="edge18" class="edge">
<title>Node3&#45;&gt;Node18</title>
<path fill="none" stroke="#191970" d="M1704.8111,-57.8571C1663.898,-48.3896 1596.0178,-32.6818 1549.2494,-21.8594"/>
<polygon fill="#191970" stroke="#191970" points="1549.8462,-18.405 1539.3145,-19.5604 1548.268,-25.2248 1549.8462,-18.405"/>
</g>
<!-- Node19 -->
<g id="node20" class="node">
<title>Node19</title>
<polygon fill="#ffffff" stroke="#bfbfbf" points="1592,-.5 1592,-19.5 1678,-19.5 1678,-.5 1592,-.5"/>
<text text-anchor="middle" x="1635" y="-7.5" font-family="Helvetica,sans-Serif" font-size="10.00" fill="#000000">Epetra_Import.h</text>
</g>
<!-- Node3&#45;&gt;Node19 -->
<g id="edge19" class="edge">
<title>Node3&#45;&gt;Node19</title>
<path fill="none" stroke="#191970" d="M1721.7104,-56.2455C1705.2238,-47.4527 1680.7648,-34.4079 1662.0235,-24.4125"/>
<polygon fill="#191970" stroke="#191970" points="1663.5506,-21.2604 1653.08,-19.6427 1660.2565,-27.4368 1663.5506,-21.2604"/>
</g>
<!-- Node20 -->
<g id="node21" class="node">
<title>Node20</title>
<polygon fill="#ffffff" stroke="#bfbfbf" points="1696.5,-.5 1696.5,-19.5 1783.5,-19.5 1783.5,-.5 1696.5,-.5"/>
<text text-anchor="middle" x="1740" y="-7.5" font-family="Helvetica,sans-Serif" font-size="10.00" fill="#000000">Epetra_Export.h</text>
</g>
<!-- Node3&#45;&gt;Node20 -->
<g id="edge20" class="edge">
<title>Node3&#45;&gt;Node20</title>
<path fill="none" stroke="#191970" d="M1740,-56.2455C1740,-48.9382 1740,-38.6944 1740,-29.7046"/>
<polygon fill="#191970" stroke="#191970" points="1743.5001,-29.6426 1740,-19.6427 1736.5001,-29.6427 1743.5001,-29.6426"/>
</g>
<!-- Node21 -->
<g id="node22" class="node">
<title>Node21</title>
<polygon fill="#ffffff" stroke="#bfbfbf" points="1802,-.5 1802,-19.5 1882,-19.5 1882,-.5 1802,-.5"/>
<text text-anchor="middle" x="1842" y="-7.5" font-family="Helvetica,sans-Serif" font-size="10.00" fill="#000000">Epetra_Time.h</text>
</g>
<!-- Node3&#45;&gt;Node21 -->
<g id="edge21" class="edge">
<title>Node3&#45;&gt;Node21</title>
<path fill="none" stroke="#191970" d="M1757.767,-56.2455C1773.7095,-47.4928 1797.3259,-34.527 1815.4989,-24.5496"/>
<polygon fill="#191970" stroke="#191970" points="1817.3552,-27.5233 1824.4366,-19.6427 1813.9863,-21.3873 1817.3552,-27.5233"/>
</g>
<!-- Node22 -->
<g id="node23" class="node">
<title>Node22</title>
<polygon fill="#ffffff" stroke="#bfbfbf" points="1900.5,-.5 1900.5,-19.5 2047.5,-19.5 2047.5,-.5 1900.5,-.5"/>
<text text-anchor="middle" x="1974" y="-7.5" font-family="Helvetica,sans-Serif" font-size="10.00" fill="#000000">ml_MultiLevelPreconditioner.h</text>
</g>
<!-- Node3&#45;&gt;Node22 -->
<g id="edge22" class="edge">
<title>Node3&#45;&gt;Node22</title>
<path fill="none" stroke="#191970" d="M1775.0322,-57.6162C1814.6218,-48.1418 1879.3741,-32.6455 1924.2063,-21.9164"/>
<polygon fill="#191970" stroke="#191970" points="1925.1063,-25.3 1934.017,-19.5686 1923.477,-18.4922 1925.1063,-25.3"/>
</g>
<!-- Node23 -->
<g id="node24" class="node">
<title>Node23</title>
<polygon fill="#ffffff" stroke="#bfbfbf" points="2065.5,-.5 2065.5,-19.5 2156.5,-19.5 2156.5,-.5 2065.5,-.5"/>
<text text-anchor="middle" x="2111" y="-7.5" font-family="Helvetica,sans-Serif" font-size="10.00" fill="#000000">ml_epetra_utils.h</text>
</g>
<!-- Node3&#45;&gt;Node23 -->
<g id="edge23" class="edge">
<title>Node3&#45;&gt;Node23</title>
<path fill="none" stroke="#191970" d="M1775.2512,-61.3419C1832.0725,-53.7341 1947.6697,-37.8476 2055.3018,-20.2361"/>
<polygon fill="#191970" stroke="#191970" points="2056.0577,-23.6588 2065.3568,-18.5818 2054.9213,-16.7517 2056.0577,-23.6588"/>
</g>
<!-- Node24 -->
<g id="node25" class="node">
<title>Node24</title>
<polygon fill="#ffffff" stroke="#bfbfbf" points="2174.5,-.5 2174.5,-19.5 2245.5,-19.5 2245.5,-.5 2174.5,-.5"/>
<text text-anchor="middle" x="2210" y="-7.5" font-family="Helvetica,sans-Serif" font-size="10.00" fill="#000000">ml_include.h</text>
</g>
<!-- Node3&#45;&gt;Node24 -->
<g id="edge24" class="edge">
<title>Node3&#45;&gt;Node24</title>
<path fill="none" stroke="#191970" d="M1775.2544,-63.5831C1846.7906,-58.3809 2014.2617,-44.6874 2163.7728,-20.2305"/>
<polygon fill="#191970" stroke="#191970" points="2164.7557,-23.6155 2174.049,-18.5276 2163.6113,-16.7097 2164.7557,-23.6155"/>
</g>
<!-- Node25 -->
<g id="node26" class="node">
<title>Node25</title>
<polygon fill="#ffffff" stroke="#bfbfbf" points="2263.5,-.5 2263.5,-19.5 2400.5,-19.5 2400.5,-.5 2263.5,-.5"/>
<text text-anchor="middle" x="2332" y="-7.5" font-family="Helvetica,sans-Serif" font-size="10.00" fill="#000000">EpetraExt_RowMatrixOut.h</text>
</g>
<!-- Node3&#45;&gt;Node25 -->
<g id="edge25" class="edge">
<title>Node3&#45;&gt;Node25</title>
<path fill="none" stroke="#191970" d="M1775.0168,-63.359C1856.8445,-57.0833 2067.1835,-40.3485 2253.2082,-20.1646"/>
<polygon fill="#191970" stroke="#191970" points="2253.608,-23.6418 2263.1694,-19.0779 2252.8488,-16.6831 2253.608,-23.6418"/>
</g>
<!-- Node26 -->
<g id="node27" class="node">
<title>Node26</title>
<polygon fill="#ffffff" stroke="#bfbfbf" points="2418.5,-.5 2418.5,-19.5 2557.5,-19.5 2557.5,-.5 2418.5,-.5"/>
<text text-anchor="middle" x="2488" y="-7.5" font-family="Helvetica,sans-Serif" font-size="10.00" fill="#000000">EpetraExt_MultiVectorOut.h</text>
</g>
<!-- Node3&#45;&gt;Node26 -->
<g id="edge26" class="edge">
<title>Node3&#45;&gt;Node26</title>
<path fill="none" stroke="#191970" d="M1775.2931,-64.3118C1873.7223,-59.4473 2159.8128,-44.2445 2407.9844,-20.1521"/>
<polygon fill="#191970" stroke="#191970" points="2408.6701,-23.6018 2418.282,-19.1451 2407.9888,-16.635 2408.6701,-23.6018"/>
</g>
<!-- Node27 -->
<g id="node28" class="node">
<title>Node27</title>
<polygon fill="#ffffff" stroke="#bfbfbf" points="2576,-.5 2576,-19.5 2686,-19.5 2686,-.5 2576,-.5"/>
<text text-anchor="middle" x="2631" y="-7.5" font-family="Helvetica,sans-Serif" font-size="10.00" fill="#000000">EpetraExt_VectorIn.h</text>
</g>
<!-- Node3&#45;&gt;Node27 -->
<g id="edge27" class="edge">
<title>Node3&#45;&gt;Node27</title>
<path fill="none" stroke="#191970" d="M1775.1648,-65.2941C1888.3261,-62.7585 2253.3753,-52.5236 2565.7313,-20.0337"/>
<polygon fill="#191970" stroke="#191970" points="2566.3078,-23.4925 2575.8877,-18.9674 2565.5769,-16.5308 2566.3078,-23.4925"/>
</g>
<!-- Node28 -->
<g id="node29" class="node">
<title>Node28</title>
<polygon fill="#ffffff" stroke="#bfbfbf" points="2704.5,-.5 2704.5,-19.5 2835.5,-19.5 2835.5,-.5 2704.5,-.5"/>
<text text-anchor="middle" x="2770" y="-7.5" font-family="Helvetica,sans-Serif" font-size="10.00" fill="#000000">EpetraExt_MultiVectorIn.h</text>
</g>
<!-- Node3&#45;&gt;Node28 -->
<g id="edge28" class="edge">
<title>Node3&#45;&gt;Node28</title>
<path fill="none" stroke="#191970" d="M1775.195,-65.3767C1899.3856,-62.9513 2328.8275,-52.6476 2694.2094,-19.9935"/>
<polygon fill="#191970" stroke="#191970" points="2694.5395,-23.4781 2704.1852,-19.095 2693.9115,-16.5063 2694.5395,-23.4781"/>
</g>
<!-- Node29 -->
<g id="node30" class="node">
<title>Node29</title>
<polygon fill="#ffffff" stroke="#bfbfbf" points="2854,-.5 2854,-19.5 2954,-19.5 2954,-.5 2854,-.5"/>
<text text-anchor="middle" x="2904" y="-7.5" font-family="Helvetica,sans-Serif" font-size="10.00" fill="#000000">Teuchos_RCP.hpp</text>
</g>
<!-- Node3&#45;&gt;Node29 -->
<g id="edge29" class="edge">
<title>Node3&#45;&gt;Node29</title>
<path fill="none" stroke="#191970" d="M1775.2356,-65.1333C1936.9817,-61.0643 2610.0518,-43.122 2843.7205,-19.9791"/>
<polygon fill="#191970" stroke="#191970" points="2844.2553,-23.4427 2853.8474,-18.9435 2843.5432,-16.479 2844.2553,-23.4427"/>
</g>
<!-- Node30 -->
<g id="node31" class="node">
<title>Node30</title>
<polygon fill="#ffffff" stroke="#bfbfbf" points="2972.5,-.5 2972.5,-19.5 3033.5,-19.5 3033.5,-.5 2972.5,-.5"/>
<text text-anchor="middle" x="3003" y="-7.5" font-family="Helvetica,sans-Serif" font-size="10.00" fill="#000000">Amesos.h</text>
</g>
<!-- Node3&#45;&gt;Node30 -->
<g id="edge30" class="edge">
<title>Node3&#45;&gt;Node30</title>
<path fill="none" stroke="#191970" d="M1775.1977,-65.6612C1947.5608,-63.8538 2704.3123,-54.1638 2962.0561,-19.7845"/>
<polygon fill="#191970" stroke="#191970" points="2962.6902,-23.2302 2972.1165,-18.3933 2961.7313,-16.2962 2962.6902,-23.2302"/>
</g>
<!-- Node31 -->
<g id="node32" class="node">
<title>Node31</title>
<polygon fill="#ffffff" stroke="#bfbfbf" points="3051.5,-.5 3051.5,-19.5 3116.5,-19.5 3116.5,-.5 3051.5,-.5"/>
<text text-anchor="middle" x="3084" y="-7.5" font-family="Helvetica,sans-Serif" font-size="10.00" fill="#000000">AztecOO.h</text>
</g>
<!-- Node3&#45;&gt;Node31 -->
<g id="edge31" class="edge">
<title>Node3&#45;&gt;Node31</title>
<path fill="none" stroke="#191970" d="M1775.0696,-65.7291C1953.9679,-64.2018 2766.793,-55.4758 3041.1288,-19.9591"/>
<polygon fill="#191970" stroke="#191970" points="3041.996,-23.3742 3051.4418,-18.5756 3041.0653,-16.4363 3041.996,-23.3742"/>
</g>
<!-- Node32 -->
<g id="node33" class="node">
<title>Node32</title>
<polygon fill="#ffffff" stroke="#bfbfbf" points="3135,-.5 3135,-19.5 3251,-19.5 3251,-.5 3135,-.5"/>
<text text-anchor="middle" x="3193" y="-7.5" font-family="Helvetica,sans-Serif" font-size="10.00" fill="#000000">Amesos_BaseSolver.h</text>
</g>
<!-- Node3&#45;&gt;Node32 -->
<g id="edge32" class="edge">
<title>Node3&#45;&gt;Node32</title>
<path fill="none" stroke="#191970" d="M1775.0617,-65.3838C1960.7249,-62.0385 2831.3216,-45.3043 3124.7519,-19.9865"/>
<polygon fill="#191970" stroke="#191970" points="3125.293,-23.4523 3134.9445,-19.0822 3124.6743,-16.4797 3125.293,-23.4523"/>
</g>
<!-- Node33 -->
<g id="node34" class="node">
<title>Node33</title>
<polygon fill="#ffffff" stroke="#bfbfbf" points="3269.5,-.5 3269.5,-19.5 3318.5,-19.5 3318.5,-.5 3269.5,-.5"/>
<text text-anchor="middle" x="3294" y="-7.5" font-family="Helvetica,sans-Serif" font-size="10.00" fill="#000000">metis.h</text>
</g>
<!-- Node3&#45;&gt;Node33 -->
<g id="edge33" class="edge">
<title>Node3&#45;&gt;Node33</title>
<path fill="none" stroke="#191970" d="M1775.3008,-65.4726C1985.2689,-62.2654 3066.8708,-44.7374 3259.1087,-19.5395"/>
<polygon fill="#191970" stroke="#191970" points="3259.8918,-22.9626 3269.2859,-18.0634 3258.887,-16.0351 3259.8918,-22.9626"/>
</g>
<!-- Node3&#45;&gt;Node34 -->
<g id="edge34" class="edge">
<title>Node3&#45;&gt;Node34</title>
<path fill="none" stroke="#191970" d="M1775.2259,-65.4558C1993.9891,-62.1216 3161.4219,-43.808 3319,-20 3321.6156,-19.6048 3324.3115,-19.0818 3327.0321,-18.4816"/>
<polygon fill="#191970" stroke="#191970" points="3328.0152,-21.8443 3336.8924,-16.061 3326.3463,-15.0461 3328.0152,-21.8443"/>
</g>
<!-- Node34&#45;&gt;Node3 -->
<g id="edge35" class="edge">
<title>Node34&#45;&gt;Node3</title>
<path fill="none" stroke="#191970" d="M3339.717,-19.5498C3338.8053,-19.7136 3337.8979,-19.8643 3337,-20 3180.6385,-43.6242 2029.9555,-61.8385 1785.5197,-65.3759"/>
<polygon fill="#191970" stroke="#191970" points="1785.174,-61.8804 1775.2254,-65.5239 1785.2747,-68.8797 1785.174,-61.8804"/>
</g>
<!-- Node35&#45;&gt;Node3 -->
<g id="edge37" class="edge">
<title>Node35&#45;&gt;Node3</title>
<path fill="none" stroke="#191970" d="M1806.0651,-112.2455C1793.9053,-103.7337 1776.0536,-91.2375 1761.9715,-81.3801"/>
<polygon fill="#191970" stroke="#191970" points="1763.9747,-78.51 1753.7752,-75.6427 1759.9605,-84.2447 1763.9747,-78.51"/>
</g>
</g>
</svg>
