<?xml version="1.0" encoding="UTF-8" standalone="no"?>
<!DOCTYPE svg PUBLIC "-//W3C//DTD SVG 1.1//EN"
 "http://www.w3.org/Graphics/SVG/1.1/DTD/svg11.dtd">
<!-- Generated by graphviz version 2.40.1 (20161225.0304)
 -->
<!-- Title: compressibleHyperelasticity Pages: 1 -->
<svg width="753pt" height="192pt"
 viewBox="0.00 0.00 753.00 191.50" xmlns="http://www.w3.org/2000/svg" xmlns:xlink="http://www.w3.org/1999/xlink">
<g id="graph0" class="graph" transform="scale(1 1) rotate(0) translate(4 187.5)">
<title>compressibleHyperelasticity</title>
<polygon fill="#ffffff" stroke="transparent" points="-4,4 -4,-187.5 749,-187.5 749,4 -4,4"/>
<!-- Node0 -->
<g id="node1" class="node">
<title>Node0</title>
<polygon fill="#bfbfbf" stroke="#000000" points="429,-76.5 429,-95.5 569,-95.5 569,-76.5 429,-76.5"/>
<text text-anchor="middle" x="499" y="-83.5" font-family="Helvetica,sans-Serif" font-size="10.00" fill="#000000">compressibleHyperelasticity</text>
</g>
<!-- Node4 -->
<g id="node5" class="node">
<title>Node4</title>
<g id="a_node5"><a xlink:href="../../df/d4f/classcompressible_hyperelasticity__linear_patch_test.html" target="_top" xlink:title="compressibleHyperelasticity\l_linearPatchTest">
<polygon fill="#ffffff" stroke="#000000" points="605,-153 605,-183 745,-183 745,-153 605,-153"/>
<text text-anchor="start" x="613" y="-171" font-family="Helvetica,sans-Serif" font-size="10.00" fill="#000000">compressibleHyperelasticity</text>
<text text-anchor="middle" x="675" y="-160" font-family="Helvetica,sans-Serif" font-size="10.00" fill="#000000">_linearPatchTest</text>
</a>
</g>
</g>
<!-- Node0&#45;&gt;Node4 -->
<g id="edge4" class="edge">
<title>Node0&#45;&gt;Node4</title>
<path fill="none" stroke="#191970" d="M523.8119,-100.7198C544.9615,-112.9296 576.3918,-130.286 605,-143 612.901,-146.5113 621.461,-149.8971 629.794,-152.9825"/>
<polygon fill="#191970" stroke="#191970" points="525.5432,-97.6778 515.1405,-95.6692 522.02,-103.7266 525.5432,-97.6778"/>
</g>
<!-- Node5 -->
<g id="node6" class="node">
<title>Node5</title>
<g id="a_node6"><a xlink:href="../../d1/dbe/classmanufactured_solution.html" target="_top" xlink:title="manufacturedSolution">
<polygon fill="#ffffff" stroke="#000000" points="619.5,-114.5 619.5,-133.5 730.5,-133.5 730.5,-114.5 619.5,-114.5"/>
<text text-anchor="middle" x="675" y="-121.5" font-family="Helvetica,sans-Serif" font-size="10.00" fill="#000000">manufacturedSolution</text>
</a>
</g>
</g>
<!-- Node0&#45;&gt;Node5 -->
<g id="edge5" class="edge">
<title>Node0&#45;&gt;Node5</title>
<path fill="none" stroke="#191970" d="M553.433,-97.7526C578.3194,-103.1258 607.4188,-109.4086 630.9071,-114.4799"/>
<polygon fill="#191970" stroke="#191970" points="553.9257,-94.2784 543.4122,-95.589 552.4483,-101.1207 553.9257,-94.2784"/>
</g>
<!-- Node6 -->
<g id="node7" class="node">
<title>Node6</title>
<g id="a_node7"><a xlink:href="../../dd/d20/classrubberblock.html" target="_top" xlink:title="rubberblock">
<polygon fill="#ffffff" stroke="#000000" points="641.5,-76.5 641.5,-95.5 708.5,-95.5 708.5,-76.5 641.5,-76.5"/>
<text text-anchor="middle" x="675" y="-83.5" font-family="Helvetica,sans-Serif" font-size="10.00" fill="#000000">rubberblock</text>
</a>
</g>
</g>
<!-- Node0&#45;&gt;Node6 -->
<g id="edge6" class="edge">
<title>Node0&#45;&gt;Node6</title>
<path fill="none" stroke="#191970" d="M579.0824,-86C601.0283,-86 623.6363,-86 641.3874,-86"/>
<polygon fill="#191970" stroke="#191970" points="579.0656,-82.5001 569.0656,-86 579.0655,-89.5001 579.0656,-82.5001"/>
</g>
<!-- Node7 -->
<g id="node8" class="node">
<title>Node7</title>
<g id="a_node8"><a xlink:href="../../de/dd1/class_t_i_mooney.html" target="_top" xlink:title="TIMooney">
<polygon fill="#ffffff" stroke="#000000" points="645,-38.5 645,-57.5 705,-57.5 705,-38.5 645,-38.5"/>
<text text-anchor="middle" x="675" y="-45.5" font-family="Helvetica,sans-Serif" font-size="10.00" fill="#000000">TIMooney</text>
</a>
</g>
</g>
<!-- Node0&#45;&gt;Node7 -->
<g id="edge7" class="edge">
<title>Node0&#45;&gt;Node7</title>
<path fill="none" stroke="#191970" d="M553.3813,-74.2586C583.5532,-67.7442 619.9308,-59.8899 644.9944,-54.4785"/>
<polygon fill="#191970" stroke="#191970" points="552.4483,-70.8793 543.4122,-76.411 553.9257,-77.7216 552.4483,-70.8793"/>
</g>
<!-- Node8 -->
<g id="node9" class="node">
<title>Node8</title>
<g id="a_node9"><a xlink:href="../../d1/dd7/class_t_i_mooney___random_field.html" target="_top" xlink:title="TIMooney_RandomField">
<polygon fill="#ffffff" stroke="#000000" points="613.5,-.5 613.5,-19.5 736.5,-19.5 736.5,-.5 613.5,-.5"/>
<text text-anchor="middle" x="675" y="-7.5" font-family="Helvetica,sans-Serif" font-size="10.00" fill="#000000">TIMooney_RandomField</text>
</a>
</g>
</g>
<!-- Node0&#45;&gt;Node8 -->
<g id="edge8" class="edge">
<title>Node0&#45;&gt;Node8</title>
<path fill="none" stroke="#191970" d="M522.839,-71.1359C543.8391,-58.5463 575.5797,-40.7239 605,-29 614.1243,-25.364 624.187,-22.1798 633.769,-19.5097"/>
<polygon fill="#191970" stroke="#191970" points="520.9938,-68.1616 514.264,-76.3445 524.6279,-74.1444 520.9938,-68.1616"/>
</g>
<!-- Node1 -->
<g id="node2" class="node">
<title>Node1</title>
<g id="a_node2"><a xlink:href="../../dc/d5a/classhyperelasticity.html" target="_top" xlink:title="hyperelasticity">
<polygon fill="#ffffff" stroke="#000000" points="313,-76.5 313,-95.5 393,-95.5 393,-76.5 313,-76.5"/>
<text text-anchor="middle" x="353" y="-83.5" font-family="Helvetica,sans-Serif" font-size="10.00" fill="#000000">hyperelasticity</text>
</a>
</g>
</g>
<!-- Node1&#45;&gt;Node0 -->
<g id="edge1" class="edge">
<title>Node1&#45;&gt;Node0</title>
<path fill="none" stroke="#191970" d="M403.4273,-86C411.644,-86 420.2838,-86 428.8707,-86"/>
<polygon fill="#191970" stroke="#191970" points="403.2817,-82.5001 393.2816,-86 403.2816,-89.5001 403.2817,-82.5001"/>
</g>
<!-- Node2 -->
<g id="node3" class="node">
<title>Node2</title>
<g id="a_node3"><a xlink:href="../../da/d1c/class_non_linear_finite_element_problem.html" target="_top" xlink:title="NonLinearFiniteElementProblem">
<polygon fill="#ffffff" stroke="#000000" points="120,-76.5 120,-95.5 277,-95.5 277,-76.5 120,-76.5"/>
<text text-anchor="middle" x="198.5" y="-83.5" font-family="Helvetica,sans-Serif" font-size="10.00" fill="#000000">NonLinearFiniteElementProblem</text>
</a>
</g>
</g>
<!-- Node2&#45;&gt;Node1 -->
<g id="edge2" class="edge">
<title>Node2&#45;&gt;Node1</title>
<path fill="none" stroke="#191970" d="M287.2224,-86C296.1258,-86 304.8212,-86 312.8213,-86"/>
<polygon fill="#191970" stroke="#191970" points="287.1079,-82.5001 277.1078,-86 287.1078,-89.5001 287.1079,-82.5001"/>
</g>
<!-- Node3 -->
<g id="node4" class="node">
<title>Node3</title>
<g id="a_node4"><a xlink:href="../../d2/d31/classbase_class_f_e_m.html" target="_top" xlink:title="baseClassFEM">
<polygon fill="#ffffff" stroke="#000000" points="0,-76.5 0,-95.5 84,-95.5 84,-76.5 0,-76.5"/>
<text text-anchor="middle" x="42" y="-83.5" font-family="Helvetica,sans-Serif" font-size="10.00" fill="#000000">baseClassFEM</text>
</a>
</g>
</g>
<!-- Node3&#45;&gt;Node2 -->
<g id="edge3" class="edge">
<title>Node3&#45;&gt;Node2</title>
<path fill="none" stroke="#191970" d="M94.4776,-86C102.6765,-86 111.3004,-86 119.9294,-86"/>
<polygon fill="#191970" stroke="#191970" points="94.3512,-82.5001 84.3512,-86 94.3511,-89.5001 94.3512,-82.5001"/>
</g>
</g>
</svg>
