<?xml version="1.0" encoding="UTF-8" standalone="no"?>
<!DOCTYPE svg PUBLIC "-//W3C//DTD SVG 1.1//EN"
 "http://www.w3.org/Graphics/SVG/1.1/DTD/svg11.dtd">
<!-- Generated by graphviz version 2.40.1 (20161225.0304)
 -->
<!-- Title: compressibleHyperelasticity Pages: 1 -->
<svg width="721pt" height="192pt"
 viewBox="0.00 0.00 721.00 191.50" xmlns="http://www.w3.org/2000/svg" xmlns:xlink="http://www.w3.org/1999/xlink">
<g id="graph0" class="graph" transform="scale(1 1) rotate(0) translate(4 187.5)">
<title>compressibleHyperelasticity</title>
<polygon fill="#ffffff" stroke="transparent" points="-4,4 -4,-187.5 717,-187.5 717,4 -4,4"/>
<!-- Node0 -->
<g id="node1" class="node">
<title>Node0</title>
<polygon fill="#bfbfbf" stroke="#000000" points="397,-76.5 397,-95.5 537,-95.5 537,-76.5 397,-76.5"/>
<text text-anchor="middle" x="467" y="-83.5" font-family="Helvetica,sans-Serif" font-size="10.00" fill="#000000">compressibleHyperelasticity</text>
</g>
<!-- Node4 -->
<g id="node5" class="node">
<title>Node4</title>
<g id="a_node5"><a xlink:href="../../df/d4f/classcompressible_hyperelasticity__linear_patch_test.html" target="_top" xlink:title="compressibleHyperelasticity\l_linearPatchTest">
<polygon fill="#ffffff" stroke="#000000" points="573,-153 573,-183 713,-183 713,-153 573,-153"/>
<text text-anchor="start" x="581" y="-171" font-family="Helvetica,sans-Serif" font-size="10.00" fill="#000000">compressibleHyperelasticity</text>
<text text-anchor="middle" x="643" y="-160" font-family="Helvetica,sans-Serif" font-size="10.00" fill="#000000">_linearPatchTest</text>
</a>
</g>
</g>
<!-- Node0&#45;&gt;Node4 -->
<g id="edge4" class="edge">
<title>Node0&#45;&gt;Node4</title>
<path fill="none" stroke="#191970" d="M491.8119,-100.7198C512.9615,-112.9296 544.3918,-130.286 573,-143 580.901,-146.5113 589.461,-149.8971 597.794,-152.9825"/>
<polygon fill="#191970" stroke="#191970" points="493.5432,-97.6778 483.1405,-95.6692 490.02,-103.7266 493.5432,-97.6778"/>
</g>
<!-- Node5 -->
<g id="node6" class="node">
<title>Node5</title>
<g id="a_node6"><a xlink:href="../../d1/dbe/classmanufactured_solution.html" target="_top" xlink:title="manufacturedSolution">
<polygon fill="#ffffff" stroke="#000000" points="587.5,-114.5 587.5,-133.5 698.5,-133.5 698.5,-114.5 587.5,-114.5"/>
<text text-anchor="middle" x="643" y="-121.5" font-family="Helvetica,sans-Serif" font-size="10.00" fill="#000000">manufacturedSolution</text>
</a>
</g>
</g>
<!-- Node0&#45;&gt;Node5 -->
<g id="edge5" class="edge">
<title>Node0&#45;&gt;Node5</title>
<path fill="none" stroke="#191970" d="M521.433,-97.7526C546.3194,-103.1258 575.4188,-109.4086 598.9071,-114.4799"/>
<polygon fill="#191970" stroke="#191970" points="521.9257,-94.2784 511.4122,-95.589 520.4483,-101.1207 521.9257,-94.2784"/>
</g>
<!-- Node6 -->
<g id="node7" class="node">
<title>Node6</title>
<g id="a_node7"><a xlink:href="../../dd/d20/classrubberblock.html" target="_top" xlink:title="rubberblock">
<polygon fill="#ffffff" stroke="#000000" points="609.5,-76.5 609.5,-95.5 676.5,-95.5 676.5,-76.5 609.5,-76.5"/>
<text text-anchor="middle" x="643" y="-83.5" font-family="Helvetica,sans-Serif" font-size="10.00" fill="#000000">rubberblock</text>
</a>
</g>
</g>
<!-- Node0&#45;&gt;Node6 -->
<g id="edge6" class="edge">
<title>Node0&#45;&gt;Node6</title>
<path fill="none" stroke="#191970" d="M547.0824,-86C569.0283,-86 591.6363,-86 609.3874,-86"/>
<polygon fill="#191970" stroke="#191970" points="547.0656,-82.5001 537.0656,-86 547.0655,-89.5001 547.0656,-82.5001"/>
</g>
<!-- Node7 -->
<g id="node8" class="node">
<title>Node7</title>
<g id="a_node8"><a xlink:href="../../de/dd1/class_t_i_mooney.html" target="_top" xlink:title="TIMooney">
<polygon fill="#ffffff" stroke="#000000" points="613,-38.5 613,-57.5 673,-57.5 673,-38.5 613,-38.5"/>
<text text-anchor="middle" x="643" y="-45.5" font-family="Helvetica,sans-Serif" font-size="10.00" fill="#000000">TIMooney</text>
</a>
</g>
</g>
<!-- Node0&#45;&gt;Node7 -->
<g id="edge7" class="edge">
<title>Node0&#45;&gt;Node7</title>
<path fill="none" stroke="#191970" d="M521.3813,-74.2586C551.5532,-67.7442 587.9308,-59.8899 612.9944,-54.4785"/>
<polygon fill="#191970" stroke="#191970" points="520.4483,-70.8793 511.4122,-76.411 521.9257,-77.7216 520.4483,-70.8793"/>
</g>
<!-- Node8 -->
<g id="node9" class="node">
<title>Node8</title>
<g id="a_node9"><a xlink:href="../../d1/dd7/class_t_i_mooney___random_field.html" target="_top" xlink:title="TIMooney_RandomField">
<polygon fill="#ffffff" stroke="#000000" points="581.5,-.5 581.5,-19.5 704.5,-19.5 704.5,-.5 581.5,-.5"/>
<text text-anchor="middle" x="643" y="-7.5" font-family="Helvetica,sans-Serif" font-size="10.00" fill="#000000">TIMooney_RandomField</text>
</a>
</g>
</g>
<!-- Node0&#45;&gt;Node8 -->
<g id="edge8" class="edge">
<title>Node0&#45;&gt;Node8</title>
<path fill="none" stroke="#191970" d="M490.839,-71.1359C511.8391,-58.5463 543.5797,-40.7239 573,-29 582.1243,-25.364 592.187,-22.1798 601.769,-19.5097"/>
<polygon fill="#191970" stroke="#191970" points="488.9938,-68.1616 482.264,-76.3445 492.6279,-74.1444 488.9938,-68.1616"/>
</g>
<!-- Node1 -->
<g id="node2" class="node">
<title>Node1</title>
<g id="a_node2"><a xlink:href="../../dc/d5a/classhyperelasticity.html" target="_top" xlink:title="hyperelasticity">
<polygon fill="#ffffff" stroke="#000000" points="281,-76.5 281,-95.5 361,-95.5 361,-76.5 281,-76.5"/>
<text text-anchor="middle" x="321" y="-83.5" font-family="Helvetica,sans-Serif" font-size="10.00" fill="#000000">hyperelasticity</text>
</a>
</g>
</g>
<!-- Node1&#45;&gt;Node0 -->
<g id="edge1" class="edge">
<title>Node1&#45;&gt;Node0</title>
<path fill="none" stroke="#191970" d="M371.4273,-86C379.644,-86 388.2838,-86 396.8707,-86"/>
<polygon fill="#191970" stroke="#191970" points="371.2817,-82.5001 361.2816,-86 371.2816,-89.5001 371.2817,-82.5001"/>
</g>
<!-- Node2 -->
<g id="node3" class="node">
<title>Node2</title>
<g id="a_node3"><a xlink:href="../../d8/dc2/class_finite___element___problem.html" target="_top" xlink:title="Finite_Element_Problem">
<polygon fill="#ffffff" stroke="#000000" points="122,-76.5 122,-95.5 245,-95.5 245,-76.5 122,-76.5"/>
<text text-anchor="middle" x="183.5" y="-83.5" font-family="Helvetica,sans-Serif" font-size="10.00" fill="#000000">Finite_Element_Problem</text>
</a>
</g>
</g>
<!-- Node2&#45;&gt;Node1 -->
<g id="edge2" class="edge">
<title>Node2&#45;&gt;Node1</title>
<path fill="none" stroke="#191970" d="M255.0194,-86C263.8887,-86 272.6965,-86 280.851,-86"/>
<polygon fill="#191970" stroke="#191970" points="255.011,-82.5001 245.011,-86 255.0109,-89.5001 255.011,-82.5001"/>
</g>
<!-- Node3 -->
<g id="node4" class="node">
<title>Node3</title>
<g id="a_node4"><a xlink:href="../../d2/d97/class_base_class_f_e_m.html" target="_top" xlink:title="BaseClassFEM">
<polygon fill="#ffffff" stroke="#000000" points="0,-76.5 0,-95.5 86,-95.5 86,-76.5 0,-76.5"/>
<text text-anchor="middle" x="43" y="-83.5" font-family="Helvetica,sans-Serif" font-size="10.00" fill="#000000">BaseClassFEM</text>
</a>
</g>
</g>
<!-- Node3&#45;&gt;Node2 -->
<g id="edge3" class="edge">
<title>Node3&#45;&gt;Node2</title>
<path fill="none" stroke="#191970" d="M96.531,-86C104.7741,-86 113.3432,-86 121.7477,-86"/>
<polygon fill="#191970" stroke="#191970" points="96.3011,-82.5001 86.3011,-86 96.301,-89.5001 96.3011,-82.5001"/>
</g>
</g>
</svg>
