<?xml version="1.0" encoding="UTF-8" standalone="no"?>
<!DOCTYPE svg PUBLIC "-//W3C//DTD SVG 1.1//EN"
 "http://www.w3.org/Graphics/SVG/1.1/DTD/svg11.dtd">
<!-- Generated by graphviz version 2.40.1 (20161225.0304)
 -->
<!-- Title: arteries/gmrf_neumann/main.cpp Pages: 1 -->
<!--zoomable 442 -->
<svg id="main" version="1.1" xmlns="http://www.w3.org/2000/svg" xmlns:xlink="http://www.w3.org/1999/xlink" xml:space="preserve" onload="init(evt)">
<style type="text/css"><![CDATA[
.edge:hover path { stroke: red; }
.edge:hover polygon { stroke: red; fill: red; }
]]></style>
<script type="text/javascript"><![CDATA[
var edges = document.getElementsByTagName('g');
if (edges && edges.length) {
  for (var i=0;i<edges.length;i++) {
    if (edges[i].id.substr(0,4)=='edge') {
      edges[i].setAttribute('class','edge');
    }
  }
}
]]></script>
        <defs>
                <circle id="rim" cx="0" cy="0" r="7"/>
                <circle id="rim2" cx="0" cy="0" r="3.5"/>
                <g id="zoomPlus">
                        <use xlink:href="#rim" fill="#404040">
                                <set attributeName="fill" to="#808080" begin="zoomplus.mouseover" end="zoomplus.mouseout"/>
                        </use>
                        <path d="M-4,0h8M0,-4v8" fill="none" stroke="white" stroke-width="1.5" pointer-events="none"/>
                </g>
                <g id="zoomMin">
                        <use xlink:href="#rim" fill="#404040">
                                <set attributeName="fill" to="#808080" begin="zoomminus.mouseover" end="zoomminus.mouseout"/>
                        </use>
                        <path d="M-4,0h8" fill="none" stroke="white" stroke-width="1.5" pointer-events="none"/>
                </g>
                <g id="dirArrow">
                        <path fill="none" stroke="white" stroke-width="1.5" d="M0,-3.0v7 M-2.5,-0.5L0,-3.0L2.5,-0.5"/>
                </g>
               <g id="resetDef">
                       <use xlink:href="#rim2" fill="#404040">
                               <set attributeName="fill" to="#808080" begin="reset.mouseover" end="reset.mouseout"/>
                       </use>
               </g>
        </defs>

<script type="text/javascript">
var viewWidth = 2658;
var viewHeight = 442;
var sectionId = 'dynsection-0';
</script>
<script xlink:href="../../svgpan.js"/>
<svg id="graph" class="graph">
<g id="viewport">
<title>arteries/gmrf_neumann/main.cpp</title>
<polygon fill="#ffffff" stroke="transparent" points="-4,4 -4,-438 2653.8442,-438 2653.8442,4 -4,4"/>
<!-- Node0 -->
<g id="node1" class="node">
<title>Node0</title>
<polygon fill="#bfbfbf" stroke="#000000" points="985.9434,-405.5 985.9434,-433.5 1105.3271,-433.5 1105.3271,-405.5 985.9434,-405.5"/>
<text text-anchor="start" x="993.9434" y="-421.5" font-family="Helvetica,sans-Serif" font-size="10.00" fill="#000000">arteries/gmrf_neumann</text>
<text text-anchor="middle" x="1045.6353" y="-411.5" font-family="Helvetica,sans-Serif" font-size="10.00" fill="#000000">/main.cpp</text>
</g>
<!-- Node1 -->
<g id="node2" class="node">
<title>Node1</title>
<polygon fill="#ffffff" stroke="#bfbfbf" points="265.2192,-345.5 265.2192,-363.5 374.0513,-363.5 374.0513,-345.5 265.2192,-345.5"/>
<text text-anchor="middle" x="319.6353" y="-351.5" font-family="Helvetica,sans-Serif" font-size="10.00" fill="#000000">Epetra_ConfigDefs.h</text>
</g>
<!-- Node0&#45;&gt;Node1 -->
<g id="edge1" class="edge">
<title>Node0&#45;&gt;Node1</title>
<path fill="none" stroke="#191970" d="M985.5126,-417.8638C868.8562,-414.0385 603.9003,-402.1701 383.6353,-369 377.7172,-368.1088 371.5331,-366.9728 365.4413,-365.73"/>
<polygon fill="#191970" stroke="#191970" points="365.8515,-362.2384 355.3397,-363.5619 364.3825,-369.0825 365.8515,-362.2384"/>
</g>
<!-- Node2 -->
<g id="node3" class="node">
<title>Node2</title>
<polygon fill="#ffffff" stroke="#bfbfbf" points="392.4482,-345.5 392.4482,-363.5 506.8223,-363.5 506.8223,-345.5 392.4482,-345.5"/>
<text text-anchor="middle" x="449.6353" y="-351.5" font-family="Helvetica,sans-Serif" font-size="10.00" fill="#000000">Epetra_SerialComm.h</text>
</g>
<!-- Node0&#45;&gt;Node2 -->
<g id="edge2" class="edge">
<title>Node0&#45;&gt;Node2</title>
<path fill="none" stroke="#191970" d="M985.7273,-416.1663C887.2114,-410.1532 685.0219,-395.5763 515.6353,-369 509.6955,-368.0681 503.4888,-366.9281 497.3601,-365.7008"/>
<polygon fill="#191970" stroke="#191970" points="497.6849,-362.1932 487.1804,-363.5742 496.2533,-369.0453 497.6849,-362.1932"/>
</g>
<!-- Node3 -->
<g id="node4" class="node">
<title>Node3</title>
<polygon fill="#ffffff" stroke="#bfbfbf" points="524.749,-345.5 524.749,-363.5 712.5215,-363.5 712.5215,-345.5 524.749,-345.5"/>
<text text-anchor="middle" x="618.6353" y="-351.5" font-family="Helvetica,sans-Serif" font-size="10.00" fill="#000000">Teuchos_CommandLineProcessor.hpp</text>
</g>
<!-- Node0&#45;&gt;Node3 -->
<g id="edge3" class="edge">
<title>Node0&#45;&gt;Node3</title>
<path fill="none" stroke="#191970" d="M985.8131,-410.3936C907.5944,-398.4868 770.8328,-377.6682 688.1128,-365.0762"/>
<polygon fill="#191970" stroke="#191970" points="688.4654,-361.5896 678.0525,-363.5448 687.4119,-368.5099 688.4654,-361.5896"/>
</g>
<!-- Node4 -->
<g id="node5" class="node">
<title>Node4</title>
<polygon fill="#ffffff" stroke="#bfbfbf" points="1121.7539,-280.5 1121.7539,-298.5 1299.5166,-298.5 1299.5166,-280.5 1121.7539,-280.5"/>
<text text-anchor="middle" x="1210.6353" y="-286.5" font-family="Helvetica,sans-Serif" font-size="10.00" fill="#000000">Teuchos_StandardCatchMacros.hpp</text>
</g>
<!-- Node0&#45;&gt;Node4 -->
<g id="edge4" class="edge">
<title>Node0&#45;&gt;Node4</title>
<path fill="none" stroke="#191970" d="M1063.6072,-405.3402C1094.7565,-380.7984 1158.5347,-330.5489 1190.8819,-305.0632"/>
<polygon fill="#191970" stroke="#191970" points="1193.4299,-307.5115 1199.1188,-298.5736 1189.0978,-302.0131 1193.4299,-307.5115"/>
</g>
<!-- Node5 -->
<g id="node6" class="node">
<title>Node5</title>
<polygon fill="#ffffff" stroke="#bfbfbf" points="1317.377,-280.5 1317.377,-298.5 1457.8936,-298.5 1457.8936,-280.5 1317.377,-280.5"/>
<text text-anchor="middle" x="1387.6353" y="-286.5" font-family="Helvetica,sans-Serif" font-size="10.00" fill="#000000">Teuchos_ParameterList.hpp</text>
</g>
<!-- Node0&#45;&gt;Node5 -->
<g id="edge5" class="edge">
<title>Node0&#45;&gt;Node5</title>
<path fill="none" stroke="#191970" d="M1082.5602,-405.4642C1149.4522,-380.0374 1289.6988,-326.7273 1354.0553,-302.2643"/>
<polygon fill="#191970" stroke="#191970" points="1355.6058,-305.4193 1363.7097,-298.5945 1353.1186,-298.8761 1355.6058,-305.4193"/>
</g>
<!-- Node6 -->
<g id="node7" class="node">
<title>Node6</title>
<polygon fill="#ffffff" stroke="#bfbfbf" points="1475.8276,-275.5 1475.8276,-303.5 1617.4429,-303.5 1617.4429,-275.5 1475.8276,-275.5"/>
<text text-anchor="start" x="1483.8276" y="-291.5" font-family="Helvetica,sans-Serif" font-size="10.00" fill="#000000">Teuchos_XMLParameterList</text>
<text text-anchor="middle" x="1546.6353" y="-281.5" font-family="Helvetica,sans-Serif" font-size="10.00" fill="#000000">CoreHelpers.hpp</text>
</g>
<!-- Node0&#45;&gt;Node6 -->
<g id="edge6" class="edge">
<title>Node0&#45;&gt;Node6</title>
<path fill="none" stroke="#191970" d="M1099.727,-405.4642C1192.8055,-381.3121 1382.838,-332.0023 1482.4542,-306.1538"/>
<polygon fill="#191970" stroke="#191970" points="1483.5898,-309.4751 1492.3902,-303.5756 1481.8316,-302.6995 1483.5898,-309.4751"/>
</g>
<!-- Node7 -->
<g id="node8" class="node">
<title>Node7</title>
<g id="a_node8"><a xlink:href="../../dc/da1/neumann_inner_surface___stochastic_polyconvex_h_g_o_8hpp.html" target="_top" xlink:title="neumannInnerSurface\l_StochasticPolyconvexHGO.hpp">
<polygon fill="#ffffff" stroke="#000000" points="730.0986,-340.5 730.0986,-368.5 891.1719,-368.5 891.1719,-340.5 730.0986,-340.5"/>
<text text-anchor="start" x="738.0986" y="-356.5" font-family="Helvetica,sans-Serif" font-size="10.00" fill="#000000">neumannInnerSurface</text>
<text text-anchor="middle" x="810.6353" y="-346.5" font-family="Helvetica,sans-Serif" font-size="10.00" fill="#000000">_StochasticPolyconvexHGO.hpp</text>
</a>
</g>
</g>
<!-- Node0&#45;&gt;Node7 -->
<g id="edge7" class="edge">
<title>Node0&#45;&gt;Node7</title>
<path fill="none" stroke="#191970" d="M994.9331,-405.476C958.7658,-395.4723 909.955,-381.9714 871.6519,-371.3769"/>
<polygon fill="#191970" stroke="#191970" points="872.2228,-367.9035 861.6516,-368.6109 870.3567,-374.6502 872.2228,-367.9035"/>
</g>
<!-- Node51 -->
<g id="node41" class="node">
<title>Node51</title>
<polygon fill="#ffffff" stroke="#bfbfbf" points="987.0493,-275.5 987.0493,-303.5 1104.2212,-303.5 1104.2212,-275.5 987.0493,-275.5"/>
<text text-anchor="start" x="995.0493" y="-291.5" font-family="Helvetica,sans-Serif" font-size="10.00" fill="#000000">boost/math/special</text>
<text text-anchor="middle" x="1045.6353" y="-281.5" font-family="Helvetica,sans-Serif" font-size="10.00" fill="#000000">_functions/gamma.hpp</text>
</g>
<!-- Node0&#45;&gt;Node51 -->
<g id="edge58" class="edge">
<title>Node0&#45;&gt;Node51</title>
<path fill="none" stroke="#191970" d="M1045.6353,-405.3402C1045.6353,-383.3618 1045.6353,-340.7655 1045.6353,-313.8021"/>
<polygon fill="#191970" stroke="#191970" points="1049.1354,-313.6423 1045.6353,-303.6423 1042.1354,-313.6423 1049.1354,-313.6423"/>
</g>
<!-- Node53 -->
<g id="node43" class="node">
<title>Node53</title>
<g id="a_node43"><a xlink:href="../../d1/d11/newton_raphson_8hpp.html" target="_top" xlink:title="newtonRaphson.hpp">
<polygon fill="#ffffff" stroke="#000000" points="1824.7661,-345.5 1824.7661,-363.5 1932.5044,-363.5 1932.5044,-345.5 1824.7661,-345.5"/>
<text text-anchor="middle" x="1878.6353" y="-351.5" font-family="Helvetica,sans-Serif" font-size="10.00" fill="#000000">newtonRaphson.hpp</text>
</a>
</g>
</g>
<!-- Node0&#45;&gt;Node53 -->
<g id="edge45" class="edge">
<title>Node0&#45;&gt;Node53</title>
<path fill="none" stroke="#191970" d="M1105.5426,-414.8254C1257.6086,-402.9595 1657.5774,-371.7494 1814.3185,-359.5187"/>
<polygon fill="#191970" stroke="#191970" points="1815.0342,-362.9736 1824.7316,-358.7062 1814.4896,-355.9948 1815.0342,-362.9736"/>
</g>
<!-- Node8 -->
<g id="node9" class="node">
<title>Node8</title>
<g id="a_node9"><a xlink:href="../../de/d49/tensor__calculus_8hpp.html" target="_top" xlink:title="tensor_calculus.hpp">
<polygon fill="#ffffff" stroke="#000000" points="591.1626,-165.5 591.1626,-183.5 696.1079,-183.5 696.1079,-165.5 591.1626,-165.5"/>
<text text-anchor="middle" x="643.6353" y="-171.5" font-family="Helvetica,sans-Serif" font-size="10.00" fill="#000000">tensor_calculus.hpp</text>
</a>
</g>
</g>
<!-- Node7&#45;&gt;Node8 -->
<g id="edge8" class="edge">
<title>Node7&#45;&gt;Node8</title>
<path fill="none" stroke="#191970" d="M729.6684,-341.0247C726.9605,-340.6648 724.2771,-340.3218 721.6353,-340 672.5031,-334.0157 311.1897,-340.3852 277.6353,-304 187.413,-206.1664 454.0919,-182.2109 580.7979,-176.3707"/>
<polygon fill="#191970" stroke="#191970" points="581.3029,-179.8521 591.141,-175.9199 580.998,-172.8588 581.3029,-179.8521"/>
</g>
<!-- Node41 -->
<g id="node31" class="node">
<title>Node41</title>
<g id="a_node31"><a xlink:href="../../dc/de0/nearly_incompressible_hyperelasticity_8hpp.html" target="_top" xlink:title="nearlyIncompressibleHyperelasticity.hpp">
<polygon fill="#ffffff" stroke="#000000" points="536.519,-280.5 536.519,-298.5 730.7515,-298.5 730.7515,-280.5 536.519,-280.5"/>
<text text-anchor="middle" x="633.6353" y="-286.5" font-family="Helvetica,sans-Serif" font-size="10.00" fill="#000000">nearlyIncompressibleHyperelasticity.hpp</text>
</a>
</g>
</g>
<!-- Node7&#45;&gt;Node41 -->
<g id="edge30" class="edge">
<title>Node7&#45;&gt;Node41</title>
<path fill="none" stroke="#191970" d="M772.2289,-340.396C741.1706,-328.9904 697.8393,-313.0778 667.9349,-302.0959"/>
<polygon fill="#191970" stroke="#191970" points="668.9389,-298.7361 658.3453,-298.5743 666.5258,-305.3071 668.9389,-298.7361"/>
</g>
<!-- Node45 -->
<g id="node35" class="node">
<title>Node45</title>
<g id="a_node35"><a xlink:href="../../d5/d3f/laplacepp_8hpp.html" target="_top" xlink:title="laplacepp.hpp">
<polygon fill="#ffffff" stroke="#000000" points="890.4976,-280.5 890.4976,-298.5 968.7729,-298.5 968.7729,-280.5 890.4976,-280.5"/>
<text text-anchor="middle" x="929.6353" y="-286.5" font-family="Helvetica,sans-Serif" font-size="10.00" fill="#000000">laplacepp.hpp</text>
</a>
</g>
</g>
<!-- Node7&#45;&gt;Node45 -->
<g id="edge36" class="edge">
<title>Node7&#45;&gt;Node45</title>
<path fill="none" stroke="#191970" d="M836.4565,-340.396C856.5204,-329.4367 884.2025,-314.3162 904.1744,-303.4072"/>
<polygon fill="#191970" stroke="#191970" points="905.924,-306.4397 913.0223,-298.5743 902.5683,-300.2964 905.924,-306.4397"/>
</g>
<!-- Node47 -->
<g id="node37" class="node">
<title>Node47</title>
<polygon fill="#ffffff" stroke="#bfbfbf" points="748.4385,-275.5 748.4385,-303.5 872.832,-303.5 872.832,-275.5 748.4385,-275.5"/>
<text text-anchor="start" x="756.4385" y="-291.5" font-family="Helvetica,sans-Serif" font-size="10.00" fill="#000000">boost/random/mersenne</text>
<text text-anchor="middle" x="810.6353" y="-281.5" font-family="Helvetica,sans-Serif" font-size="10.00" fill="#000000">_twister.hpp</text>
</g>
<!-- Node7&#45;&gt;Node47 -->
<g id="edge39" class="edge">
<title>Node7&#45;&gt;Node47</title>
<path fill="none" stroke="#191970" d="M810.6353,-340.396C810.6353,-332.6448 810.6353,-322.8122 810.6353,-313.8601"/>
<polygon fill="#191970" stroke="#191970" points="814.1354,-313.5765 810.6353,-303.5765 807.1354,-313.5765 814.1354,-313.5765"/>
</g>
<!-- Node48 -->
<g id="node38" class="node">
<title>Node48</title>
<polygon fill="#ffffff" stroke="#bfbfbf" points="0,-275.5 0,-303.5 113.2705,-303.5 113.2705,-275.5 0,-275.5"/>
<text text-anchor="start" x="8" y="-291.5" font-family="Helvetica,sans-Serif" font-size="10.00" fill="#000000">boost/random/uniform</text>
<text text-anchor="middle" x="56.6353" y="-281.5" font-family="Helvetica,sans-Serif" font-size="10.00" fill="#000000">_real_distribution.hpp</text>
</g>
<!-- Node7&#45;&gt;Node48 -->
<g id="edge40" class="edge">
<title>Node7&#45;&gt;Node48</title>
<path fill="none" stroke="#191970" d="M729.6769,-340.9522C726.9666,-340.613 724.2803,-340.2941 721.6353,-340 459.4954,-310.8579 387.9862,-340.4303 123.895,-304.1809"/>
<polygon fill="#191970" stroke="#191970" points="123.9982,-300.6616 113.6112,-302.7496 123.0332,-307.5948 123.9982,-300.6616"/>
</g>
<!-- Node49 -->
<g id="node39" class="node">
<title>Node49</title>
<polygon fill="#ffffff" stroke="#bfbfbf" points="130.9458,-275.5 130.9458,-303.5 230.3247,-303.5 230.3247,-275.5 130.9458,-275.5"/>
<text text-anchor="start" x="138.9458" y="-291.5" font-family="Helvetica,sans-Serif" font-size="10.00" fill="#000000">boost/math/special</text>
<text text-anchor="middle" x="180.6353" y="-281.5" font-family="Helvetica,sans-Serif" font-size="10.00" fill="#000000">_functions/erf.hpp</text>
</g>
<!-- Node7&#45;&gt;Node49 -->
<g id="edge41" class="edge">
<title>Node7&#45;&gt;Node49</title>
<path fill="none" stroke="#191970" d="M729.6707,-341.0055C726.9622,-340.651 724.278,-340.3144 721.6353,-340 510.5212,-314.8833 454.8805,-335.5744 244.6353,-304 243.3361,-303.8049 242.0241,-303.5979 240.7031,-303.3806"/>
<polygon fill="#191970" stroke="#191970" points="240.9241,-299.8642 230.462,-301.5355 239.6829,-306.7532 240.9241,-299.8642"/>
</g>
<!-- Node50 -->
<g id="node40" class="node">
<title>Node50</title>
<polygon fill="#ffffff" stroke="#bfbfbf" points="286.3892,-275.5 286.3892,-303.5 396.8813,-303.5 396.8813,-275.5 286.3892,-275.5"/>
<text text-anchor="start" x="294.3892" y="-291.5" font-family="Helvetica,sans-Serif" font-size="10.00" fill="#000000">boost/random/normal</text>
<text text-anchor="middle" x="341.6353" y="-281.5" font-family="Helvetica,sans-Serif" font-size="10.00" fill="#000000">_distribution.hpp</text>
</g>
<!-- Node7&#45;&gt;Node50 -->
<g id="edge42" class="edge">
<title>Node7&#45;&gt;Node50</title>
<path fill="none" stroke="#191970" d="M729.6538,-341.137C726.9501,-340.7449 724.2715,-340.3647 721.6353,-340 584.8976,-321.0835 546.7687,-327.3375 407.2851,-304.1679"/>
<polygon fill="#191970" stroke="#191970" points="407.5065,-300.656 397.0643,-302.448 406.3449,-307.5589 407.5065,-300.656"/>
</g>
<!-- Node7&#45;&gt;Node51 -->
<g id="edge43" class="edge">
<title>Node7&#45;&gt;Node51</title>
<path fill="none" stroke="#191970" d="M861.3374,-340.476C897.5047,-330.4723 946.3156,-316.9714 984.6186,-306.3769"/>
<polygon fill="#191970" stroke="#191970" points="985.9138,-309.6502 994.6189,-303.6109 984.0477,-302.9035 985.9138,-309.6502"/>
</g>
<!-- Node52 -->
<g id="node42" class="node">
<title>Node52</title>
<polygon fill="#ffffff" stroke="#bfbfbf" points="414.9902,-275.5 414.9902,-303.5 518.2803,-303.5 518.2803,-275.5 414.9902,-275.5"/>
<text text-anchor="start" x="422.9902" y="-291.5" font-family="Helvetica,sans-Serif" font-size="10.00" fill="#000000">boost/math/special</text>
<text text-anchor="middle" x="466.6353" y="-281.5" font-family="Helvetica,sans-Serif" font-size="10.00" fill="#000000">_functions/beta.hpp</text>
</g>
<!-- Node7&#45;&gt;Node52 -->
<g id="edge44" class="edge">
<title>Node7&#45;&gt;Node52</title>
<path fill="none" stroke="#191970" d="M729.8914,-341.3453C675.589,-332.2056 602.185,-319.2881 528.4382,-304.1005"/>
<polygon fill="#191970" stroke="#191970" points="529.0069,-300.6441 518.5046,-302.0412 527.5859,-307.4983 529.0069,-300.6441"/>
</g>
<!-- Node9 -->
<g id="node10" class="node">
<title>Node9</title>
<g id="a_node10"><a xlink:href="../../d0/d02/meshpp_8hpp.html" target="_top" xlink:title="meshpp.hpp">
<polygon fill="#ffffff" stroke="#ff0000" points="1153.1157,-55.5 1153.1157,-73.5 1224.1548,-73.5 1224.1548,-55.5 1153.1157,-55.5"/>
<text text-anchor="middle" x="1188.6353" y="-61.5" font-family="Helvetica,sans-Serif" font-size="10.00" fill="#000000">meshpp.hpp</text>
</a>
</g>
</g>
<!-- Node8&#45;&gt;Node9 -->
<g id="edge9" class="edge">
<title>Node8&#45;&gt;Node9</title>
<path fill="none" stroke="#191970" d="M688.2349,-165.4982C790.2342,-144.9112 1039.6604,-94.5683 1142.8199,-73.7471"/>
<polygon fill="#191970" stroke="#191970" points="1143.8092,-77.1181 1152.919,-71.7088 1142.4242,-70.2565 1143.8092,-77.1181"/>
</g>
<!-- Node10 -->
<g id="node11" class="node">
<title>Node10</title>
<polygon fill="#ffffff" stroke="#bfbfbf" points="2148.9038,-.5 2148.9038,-18.5 2194.3667,-18.5 2194.3667,-.5 2148.9038,-.5"/>
<text text-anchor="middle" x="2171.6353" y="-6.5" font-family="Helvetica,sans-Serif" font-size="10.00" fill="#000000">stdio.h</text>
</g>
<!-- Node9&#45;&gt;Node10 -->
<g id="edge10" class="edge">
<title>Node9&#45;&gt;Node10</title>
<path fill="none" stroke="#191970" d="M1224.2124,-63.9863C1372.1132,-61.6712 1939.5315,-50.965 2138.7161,-18.8966"/>
<polygon fill="#191970" stroke="#191970" points="2139.4875,-22.3161 2148.7677,-17.2045 2138.3254,-15.4132 2139.4875,-22.3161"/>
</g>
<!-- Node11 -->
<g id="node12" class="node">
<title>Node11</title>
<polygon fill="#ffffff" stroke="#bfbfbf" points="2212.4629,-.5 2212.4629,-18.5 2266.8076,-18.5 2266.8076,-.5 2212.4629,-.5"/>
<text text-anchor="middle" x="2239.6353" y="-6.5" font-family="Helvetica,sans-Serif" font-size="10.00" fill="#000000">iostream</text>
</g>
<!-- Node9&#45;&gt;Node11 -->
<g id="edge11" class="edge">
<title>Node9&#45;&gt;Node11</title>
<path fill="none" stroke="#191970" d="M1224.3991,-63.9192C1378.69,-61.2589 1988.7756,-49.114 2202.0873,-18.8724"/>
<polygon fill="#191970" stroke="#191970" points="2202.8635,-22.2958 2212.2446,-17.372 2201.8405,-15.371 2202.8635,-22.2958"/>
</g>
<!-- Node12 -->
<g id="node13" class="node">
<title>Node12</title>
<polygon fill="#ffffff" stroke="#bfbfbf" points="209.2437,-.5 209.2437,-18.5 258.0269,-18.5 258.0269,-.5 209.2437,-.5"/>
<text text-anchor="middle" x="233.6353" y="-6.5" font-family="Helvetica,sans-Serif" font-size="10.00" fill="#000000">istream</text>
</g>
<!-- Node9&#45;&gt;Node12 -->
<g id="edge12" class="edge">
<title>Node9&#45;&gt;Node12</title>
<path fill="none" stroke="#191970" d="M1152.9537,-63.8401C1007.929,-60.9911 461.5996,-48.5987 268.3881,-18.893"/>
<polygon fill="#191970" stroke="#191970" points="268.7891,-15.4126 258.3604,-17.2818 267.6785,-22.3239 268.7891,-15.4126"/>
</g>
<!-- Node13 -->
<g id="node14" class="node">
<title>Node13</title>
<polygon fill="#ffffff" stroke="#bfbfbf" points="275.9653,-.5 275.9653,-18.5 325.3052,-18.5 325.3052,-.5 275.9653,-.5"/>
<text text-anchor="middle" x="300.6353" y="-6.5" font-family="Helvetica,sans-Serif" font-size="10.00" fill="#000000">fstream</text>
</g>
<!-- Node9&#45;&gt;Node13 -->
<g id="edge13" class="edge">
<title>Node9&#45;&gt;Node13</title>
<path fill="none" stroke="#191970" d="M1152.7148,-63.6753C1014.284,-60.332 514.5998,-46.7007 335.4294,-18.906"/>
<polygon fill="#191970" stroke="#191970" points="335.7939,-15.4194 325.3622,-17.2712 334.6719,-22.3289 335.7939,-15.4194"/>
</g>
<!-- Node14 -->
<g id="node15" class="node">
<title>Node14</title>
<polygon fill="#ffffff" stroke="#bfbfbf" points="343.0195,-.5 343.0195,-18.5 386.251,-18.5 386.251,-.5 343.0195,-.5"/>
<text text-anchor="middle" x="364.6353" y="-6.5" font-family="Helvetica,sans-Serif" font-size="10.00" fill="#000000">vector</text>
</g>
<!-- Node9&#45;&gt;Node14 -->
<g id="edge14" class="edge">
<title>Node9&#45;&gt;Node14</title>
<path fill="none" stroke="#191970" d="M1152.9898,-63.6379C1021.4419,-60.2769 562.6833,-46.9225 396.4794,-18.8752"/>
<polygon fill="#191970" stroke="#191970" points="396.8877,-15.3931 386.4303,-17.0942 395.666,-22.2857 396.8877,-15.3931"/>
</g>
<!-- Node15 -->
<g id="node16" class="node">
<title>Node15</title>
<polygon fill="#ffffff" stroke="#bfbfbf" points="404.1255,-.5 404.1255,-18.5 455.145,-18.5 455.145,-.5 404.1255,-.5"/>
<text text-anchor="middle" x="429.6353" y="-6.5" font-family="Helvetica,sans-Serif" font-size="10.00" fill="#000000">iomanip</text>
</g>
<!-- Node9&#45;&gt;Node15 -->
<g id="edge15" class="edge">
<title>Node9&#45;&gt;Node15</title>
<path fill="none" stroke="#191970" d="M1152.7325,-63.2062C1028.7696,-58.5923 618.4581,-42.0627 465.621,-18.7634"/>
<polygon fill="#191970" stroke="#191970" points="465.927,-15.268 455.5001,-17.1467 464.8228,-22.1803 465.927,-15.268"/>
</g>
<!-- Node16 -->
<g id="node17" class="node">
<title>Node16</title>
<polygon fill="#ffffff" stroke="#bfbfbf" points="473.1748,-.5 473.1748,-18.5 578.0957,-18.5 578.0957,-.5 473.1748,-.5"/>
<text text-anchor="middle" x="525.6353" y="-6.5" font-family="Helvetica,sans-Serif" font-size="10.00" fill="#000000">Epetra_MpiComm.h</text>
</g>
<!-- Node9&#45;&gt;Node16 -->
<g id="edge16" class="edge">
<title>Node9&#45;&gt;Node16</title>
<path fill="none" stroke="#191970" d="M1152.919,-62.7884C1061.0113,-58.1734 808.6572,-44.1708 588.3084,-19.1149"/>
<polygon fill="#191970" stroke="#191970" points="588.5057,-15.6147 578.1719,-17.9518 587.7077,-22.5691 588.5057,-15.6147"/>
</g>
<!-- Node17 -->
<g id="node18" class="node">
<title>Node17</title>
<polygon fill="#ffffff" stroke="#bfbfbf" points="595.8916,-.5 595.8916,-18.5 711.3789,-18.5 711.3789,-.5 595.8916,-.5"/>
<text text-anchor="middle" x="653.6353" y="-6.5" font-family="Helvetica,sans-Serif" font-size="10.00" fill="#000000">Epetra_FECrsGraph.h</text>
</g>
<!-- Node9&#45;&gt;Node17 -->
<g id="edge17" class="edge">
<title>Node9&#45;&gt;Node17</title>
<path fill="none" stroke="#191970" d="M1153.0581,-61.5783C1076.3041,-55.1596 889.2326,-38.8951 721.7067,-19.0831"/>
<polygon fill="#191970" stroke="#191970" points="722.063,-15.6009 711.7195,-17.895 721.236,-22.5519 722.063,-15.6009"/>
</g>
<!-- Node18 -->
<g id="node19" class="node">
<title>Node18</title>
<polygon fill="#ffffff" stroke="#bfbfbf" points="729.1772,-.5 729.1772,-18.5 844.0933,-18.5 844.0933,-.5 729.1772,-.5"/>
<text text-anchor="middle" x="786.6353" y="-6.5" font-family="Helvetica,sans-Serif" font-size="10.00" fill="#000000">Epetra_FECrsMatrix.h</text>
</g>
<!-- Node9&#45;&gt;Node18 -->
<g id="edge18" class="edge">
<title>Node9&#45;&gt;Node18</title>
<path fill="none" stroke="#191970" d="M1152.8182,-59.7498C1093.1188,-51.8104 969.2239,-35.2414 854.2524,-19.2177"/>
<polygon fill="#191970" stroke="#191970" points="854.6119,-15.734 844.2241,-17.8182 853.6444,-22.6668 854.6119,-15.734"/>
</g>
<!-- Node19 -->
<g id="node20" class="node">
<title>Node19</title>
<polygon fill="#ffffff" stroke="#bfbfbf" points="861.6602,-.5 861.6602,-18.5 961.6104,-18.5 961.6104,-.5 861.6602,-.5"/>
<text text-anchor="middle" x="911.6353" y="-6.5" font-family="Helvetica,sans-Serif" font-size="10.00" fill="#000000">Epetra_FEVector.h</text>
</g>
<!-- Node9&#45;&gt;Node19 -->
<g id="edge19" class="edge">
<title>Node9&#45;&gt;Node19</title>
<path fill="none" stroke="#191970" d="M1152.9894,-57.4223C1105.9446,-48.0813 1022.6282,-31.5383 967.2603,-20.5447"/>
<polygon fill="#191970" stroke="#191970" points="967.7524,-17.0741 957.2622,-18.5595 966.389,-23.9401 967.7524,-17.0741"/>
</g>
<!-- Node20 -->
<g id="node21" class="node">
<title>Node20</title>
<polygon fill="#ffffff" stroke="#bfbfbf" points="980.0493,-.5 980.0493,-18.5 1067.2212,-18.5 1067.2212,-.5 980.0493,-.5"/>
<text text-anchor="middle" x="1023.6353" y="-6.5" font-family="Helvetica,sans-Serif" font-size="10.00" fill="#000000">Epetra_Vector.h</text>
</g>
<!-- Node9&#45;&gt;Node20 -->
<g id="edge20" class="edge">
<title>Node9&#45;&gt;Node20</title>
<path fill="none" stroke="#191970" d="M1161.3889,-55.4179C1133.8397,-46.2348 1091.0775,-31.9807 1060.5079,-21.7909"/>
<polygon fill="#191970" stroke="#191970" points="1061.2415,-18.3462 1050.6479,-18.5042 1059.0279,-24.9869 1061.2415,-18.3462"/>
</g>
<!-- Node21 -->
<g id="node22" class="node">
<title>Node21</title>
<polygon fill="#ffffff" stroke="#bfbfbf" points="1085.2266,-.5 1085.2266,-18.5 1164.0439,-18.5 1164.0439,-.5 1085.2266,-.5"/>
<text text-anchor="middle" x="1124.6353" y="-6.5" font-family="Helvetica,sans-Serif" font-size="10.00" fill="#000000">Epetra_Map.h</text>
</g>
<!-- Node9&#45;&gt;Node21 -->
<g id="edge21" class="edge">
<title>Node9&#45;&gt;Node21</title>
<path fill="none" stroke="#191970" d="M1178.067,-55.4179C1168.582,-47.2667 1154.4478,-35.1201 1143.0986,-25.3669"/>
<polygon fill="#191970" stroke="#191970" points="1145.2986,-22.6427 1135.4332,-18.7795 1140.7362,-27.9516 1145.2986,-22.6427"/>
</g>
<!-- Node22 -->
<g id="node23" class="node">
<title>Node22</title>
<polygon fill="#ffffff" stroke="#bfbfbf" points="1182.106,-.5 1182.106,-18.5 1323.1646,-18.5 1323.1646,-.5 1182.106,-.5"/>
<text text-anchor="middle" x="1252.6353" y="-6.5" font-family="Helvetica,sans-Serif" font-size="10.00" fill="#000000">Epetra_SerialDenseMatrix.h</text>
</g>
<!-- Node9&#45;&gt;Node22 -->
<g id="edge22" class="edge">
<title>Node9&#45;&gt;Node22</title>
<path fill="none" stroke="#191970" d="M1199.2036,-55.4179C1208.6885,-47.2667 1222.8227,-35.1201 1234.1719,-25.3669"/>
<polygon fill="#191970" stroke="#191970" points="1236.5343,-27.9516 1241.8373,-18.7795 1231.9719,-22.6427 1236.5343,-27.9516"/>
</g>
<!-- Node23 -->
<g id="node24" class="node">
<title>Node23</title>
<polygon fill="#ffffff" stroke="#bfbfbf" points="1340.813,-.5 1340.813,-18.5 1482.4575,-18.5 1482.4575,-.5 1340.813,-.5"/>
<text text-anchor="middle" x="1411.6353" y="-6.5" font-family="Helvetica,sans-Serif" font-size="10.00" fill="#000000">Epetra_SerialDenseVector.h</text>
</g>
<!-- Node9&#45;&gt;Node23 -->
<g id="edge23" class="edge">
<title>Node9&#45;&gt;Node23</title>
<path fill="none" stroke="#191970" d="M1224.4641,-55.6633C1262.5672,-46.2657 1322.9935,-31.3623 1364.8344,-21.0428"/>
<polygon fill="#191970" stroke="#191970" points="1365.9111,-24.3822 1374.782,-18.5894 1364.2348,-17.5859 1365.9111,-24.3822"/>
</g>
<!-- Node24 -->
<g id="node25" class="node">
<title>Node24</title>
<polygon fill="#ffffff" stroke="#bfbfbf" points="1500.2539,-.5 1500.2539,-18.5 1653.0166,-18.5 1653.0166,-.5 1500.2539,-.5"/>
<text text-anchor="middle" x="1576.6353" y="-6.5" font-family="Helvetica,sans-Serif" font-size="10.00" fill="#000000">Epetra_IntSerialDenseVector.h</text>
</g>
<!-- Node9&#45;&gt;Node24 -->
<g id="edge24" class="edge">
<title>Node9&#45;&gt;Node24</title>
<path fill="none" stroke="#191970" d="M1224.4419,-59.4243C1287.5381,-50.4803 1419.713,-31.7441 1502.986,-19.94"/>
<polygon fill="#191970" stroke="#191970" points="1503.4811,-23.4049 1512.8909,-18.5359 1502.4986,-16.4741 1503.4811,-23.4049"/>
</g>
<!-- Node25 -->
<g id="node26" class="node">
<title>Node25</title>
<polygon fill="#ffffff" stroke="#bfbfbf" points="1670.7832,-.5 1670.7832,-18.5 1758.4873,-18.5 1758.4873,-.5 1670.7832,-.5"/>
<text text-anchor="middle" x="1714.6353" y="-6.5" font-family="Helvetica,sans-Serif" font-size="10.00" fill="#000000">Epetra_Import.h</text>
</g>
<!-- Node9&#45;&gt;Node25 -->
<g id="edge25" class="edge">
<title>Node9&#45;&gt;Node25</title>
<path fill="none" stroke="#191970" d="M1224.3521,-62.0631C1301.8496,-56.5611 1491.3997,-41.9467 1660.6312,-19.035"/>
<polygon fill="#191970" stroke="#191970" points="1661.2856,-22.4782 1670.7194,-17.656 1660.3374,-15.5427 1661.2856,-22.4782"/>
</g>
<!-- Node26 -->
<g id="node27" class="node">
<title>Node26</title>
<polygon fill="#ffffff" stroke="#bfbfbf" points="1776.5024,-.5 1776.5024,-18.5 1864.7681,-18.5 1864.7681,-.5 1776.5024,-.5"/>
<text text-anchor="middle" x="1820.6353" y="-6.5" font-family="Helvetica,sans-Serif" font-size="10.00" fill="#000000">Epetra_Export.h</text>
</g>
<!-- Node9&#45;&gt;Node26 -->
<g id="edge26" class="edge">
<title>Node9&#45;&gt;Node26</title>
<path fill="none" stroke="#191970" d="M1224.3401,-62.9254C1313.8495,-58.7155 1555.1712,-45.7455 1766.4041,-19.0413"/>
<polygon fill="#191970" stroke="#191970" points="1766.9635,-22.4984 1776.4394,-17.7593 1766.0764,-15.5548 1766.9635,-22.4984"/>
</g>
<!-- Node27 -->
<g id="node28" class="node">
<title>Node27</title>
<polygon fill="#ffffff" stroke="#bfbfbf" points="1883.0254,-.5 1883.0254,-18.5 1964.2451,-18.5 1964.2451,-.5 1883.0254,-.5"/>
<text text-anchor="middle" x="1923.6353" y="-6.5" font-family="Helvetica,sans-Serif" font-size="10.00" fill="#000000">Epetra_Time.h</text>
</g>
<!-- Node9&#45;&gt;Node27 -->
<g id="edge27" class="edge">
<title>Node9&#45;&gt;Node27</title>
<path fill="none" stroke="#191970" d="M1224.4386,-63.6537C1324.9976,-60.9516 1618.6637,-50.833 1872.6135,-18.9717"/>
<polygon fill="#191970" stroke="#191970" points="1873.2899,-22.414 1882.7698,-17.6831 1872.4088,-15.4697 1873.2899,-22.414"/>
</g>
<!-- Node28 -->
<g id="node29" class="node">
<title>Node28</title>
<polygon fill="#ffffff" stroke="#bfbfbf" points="1981.9312,-.5 1981.9312,-18.5 2131.3394,-18.5 2131.3394,-.5 1981.9312,-.5"/>
<text text-anchor="middle" x="2056.6353" y="-6.5" font-family="Helvetica,sans-Serif" font-size="10.00" fill="#000000">ml_MultiLevelPreconditioner.h</text>
</g>
<!-- Node9&#45;&gt;Node28 -->
<g id="edge28" class="edge">
<title>Node9&#45;&gt;Node28</title>
<path fill="none" stroke="#191970" d="M1224.2858,-63.1464C1334.1014,-58.8258 1677.1321,-44.201 1971.5405,-19.1426"/>
<polygon fill="#191970" stroke="#191970" points="1971.8883,-22.6257 1981.553,-18.2847 1971.2907,-15.6513 1971.8883,-22.6257"/>
</g>
<!-- Node35 -->
<g id="node30" class="node">
<title>Node35</title>
<polygon fill="#ffffff" stroke="#bfbfbf" points="2284.5879,-.5 2284.5879,-18.5 2382.6826,-18.5 2382.6826,-.5 2284.5879,-.5"/>
<text text-anchor="middle" x="2333.6353" y="-6.5" font-family="Helvetica,sans-Serif" font-size="10.00" fill="#000000">Teuchos_RCP.hpp</text>
</g>
<!-- Node9&#45;&gt;Node35 -->
<g id="edge29" class="edge">
<title>Node9&#45;&gt;Node35</title>
<path fill="none" stroke="#191970" d="M1224.3783,-63.5843C1385.3034,-59.3739 2044.3451,-41.1708 2274.0449,-19.0153"/>
<polygon fill="#191970" stroke="#191970" points="2274.7245,-22.4651 2284.3283,-17.991 2274.0306,-15.4995 2274.7245,-22.4651"/>
</g>
<!-- Node42 -->
<g id="node32" class="node">
<title>Node42</title>
<g id="a_node32"><a xlink:href="../../d2/d34/hyperelasticity_8hpp.html" target="_top" xlink:title="hyperelasticity.hpp">
<polygon fill="#ffffff" stroke="#000000" points="901.5928,-220.5 901.5928,-238.5 999.6777,-238.5 999.6777,-220.5 901.5928,-220.5"/>
<text text-anchor="middle" x="950.6353" y="-226.5" font-family="Helvetica,sans-Serif" font-size="10.00" fill="#000000">hyperelasticity.hpp</text>
</a>
</g>
</g>
<!-- Node41&#45;&gt;Node42 -->
<g id="edge31" class="edge">
<title>Node41&#45;&gt;Node42</title>
<path fill="none" stroke="#191970" d="M681.4366,-280.4524C738.0089,-269.7447 832.1607,-251.9242 892.7917,-240.4483"/>
<polygon fill="#191970" stroke="#191970" points="893.7895,-243.8217 902.9641,-238.5229 892.4876,-236.9438 893.7895,-243.8217"/>
</g>
<!-- Node43 -->
<g id="node33" class="node">
<title>Node43</title>
<g id="a_node33"><a xlink:href="../../da/da3/non_linear_finite_element_problem_8hpp.html" target="_top" xlink:title="nonLinearFiniteElementProblem.hpp">
<polygon fill="#ffffff" stroke="#000000" points="1139.4756,-165.5 1139.4756,-183.5 1317.7949,-183.5 1317.7949,-165.5 1139.4756,-165.5"/>
<text text-anchor="middle" x="1228.6353" y="-171.5" font-family="Helvetica,sans-Serif" font-size="10.00" fill="#000000">nonLinearFiniteElementProblem.hpp</text>
</a>
</g>
</g>
<!-- Node42&#45;&gt;Node43 -->
<g id="edge32" class="edge">
<title>Node42&#45;&gt;Node43</title>
<path fill="none" stroke="#191970" d="M996.23,-220.4795C1044.6078,-210.9083 1121.081,-195.7787 1172.9792,-185.5111"/>
<polygon fill="#191970" stroke="#191970" points="1173.8851,-188.8998 1183.0156,-183.5255 1172.5264,-182.0329 1173.8851,-188.8998"/>
</g>
<!-- Node43&#45;&gt;Node9 -->
<g id="edge33" class="edge">
<title>Node43&#45;&gt;Node9</title>
<path fill="none" stroke="#191970" d="M1223.8848,-165.2587C1219.3365,-156.1837 1212.4704,-141.8676 1207.6353,-129 1201.9892,-113.9745 1196.927,-96.4823 1193.4503,-83.5078"/>
<polygon fill="#191970" stroke="#191970" points="1196.8354,-82.618 1190.9247,-73.8252 1190.062,-84.3848 1196.8354,-82.618"/>
</g>
<!-- Node44 -->
<g id="node34" class="node">
<title>Node44</title>
<g id="a_node34"><a xlink:href="../../dd/d80/base_class_f_e_m_8hpp.html" target="_top" xlink:title="baseClassFEM.hpp">
<polygon fill="#ffffff" stroke="#000000" points="1217.0049,-110.5 1217.0049,-128.5 1320.2656,-128.5 1320.2656,-110.5 1217.0049,-110.5"/>
<text text-anchor="middle" x="1268.6353" y="-116.5" font-family="Helvetica,sans-Serif" font-size="10.00" fill="#000000">baseClassFEM.hpp</text>
</a>
</g>
</g>
<!-- Node43&#45;&gt;Node44 -->
<g id="edge34" class="edge">
<title>Node43&#45;&gt;Node44</title>
<path fill="none" stroke="#191970" d="M1235.2404,-165.4179C1240.8232,-157.7415 1248.9831,-146.5217 1255.8393,-137.0945"/>
<polygon fill="#191970" stroke="#191970" points="1258.8354,-138.9255 1261.8866,-128.7795 1253.1742,-134.8082 1258.8354,-138.9255"/>
</g>
<!-- Node44&#45;&gt;Node9 -->
<g id="edge35" class="edge">
<title>Node44&#45;&gt;Node9</title>
<path fill="none" stroke="#191970" d="M1255.4249,-110.4179C1243.1498,-101.9788 1224.6454,-89.257 1210.2244,-79.3426"/>
<polygon fill="#191970" stroke="#191970" points="1212.0886,-76.3768 1201.8653,-73.5956 1208.1228,-82.1451 1212.0886,-76.3768"/>
</g>
<!-- Node46 -->
<g id="node36" class="node">
<title>Node46</title>
<g id="a_node36"><a xlink:href="../../d3/dd8/linear_finite_element_problem_8hpp.html" target="_top" xlink:title="linearFiniteElementProblem.hpp">
<polygon fill="#ffffff" stroke="#000000" points="1673.4878,-220.5 1673.4878,-238.5 1831.7827,-238.5 1831.7827,-220.5 1673.4878,-220.5"/>
<text text-anchor="middle" x="1752.6353" y="-226.5" font-family="Helvetica,sans-Serif" font-size="10.00" fill="#000000">linearFiniteElementProblem.hpp</text>
</a>
</g>
</g>
<!-- Node45&#45;&gt;Node46 -->
<g id="edge37" class="edge">
<title>Node45&#45;&gt;Node46</title>
<path fill="none" stroke="#191970" d="M955.5225,-280.4684C962.611,-278.3294 970.3501,-276.2956 977.6353,-275 1106.9284,-252.0059 1488.4439,-237.6541 1663.28,-232.111"/>
<polygon fill="#191970" stroke="#191970" points="1663.5937,-235.6029 1673.4787,-231.7902 1663.3736,-228.6064 1663.5937,-235.6029"/>
</g>
<!-- Node46&#45;&gt;Node44 -->
<g id="edge38" class="edge">
<title>Node46&#45;&gt;Node44</title>
<path fill="none" stroke="#191970" d="M1713.0275,-220.4982C1625.2617,-200.5515 1414.5872,-152.6709 1318.2393,-130.7736"/>
<polygon fill="#191970" stroke="#191970" points="1318.9773,-127.3522 1308.4503,-128.5489 1317.4259,-134.1781 1318.9773,-127.3522"/>
</g>
<!-- Node53&#45;&gt;Node4 -->
<g id="edge54" class="edge">
<title>Node53&#45;&gt;Node4</title>
<path fill="none" stroke="#191970" d="M1824.6945,-350.7784C1723.3851,-343.5541 1497.8147,-326.3563 1308.6353,-304 1298.7074,-302.8268 1288.2356,-301.4388 1277.9788,-299.9941"/>
<polygon fill="#191970" stroke="#191970" points="1278.2176,-296.4926 1267.8218,-298.5363 1277.2231,-303.4216 1278.2176,-296.4926"/>
</g>
<!-- Node53&#45;&gt;Node5 -->
<g id="edge55" class="edge">
<title>Node53&#45;&gt;Node5</title>
<path fill="none" stroke="#191970" d="M1824.5058,-348.9047C1745.6122,-340.5141 1594.5021,-323.5534 1466.6353,-304 1459.433,-302.8986 1451.8798,-301.6428 1444.419,-300.3415"/>
<polygon fill="#191970" stroke="#191970" points="1444.8024,-296.8548 1434.3439,-298.5489 1443.5762,-303.7466 1444.8024,-296.8548"/>
</g>
<!-- Node53&#45;&gt;Node6 -->
<g id="edge56" class="edge">
<title>Node53&#45;&gt;Node6</title>
<path fill="none" stroke="#191970" d="M1832.4721,-345.462C1779.6205,-335.1146 1692.0663,-317.973 1627.7598,-305.3828"/>
<polygon fill="#191970" stroke="#191970" points="1628.1337,-301.8896 1617.6475,-303.403 1626.7887,-308.7592 1628.1337,-301.8896"/>
</g>
<!-- Node53&#45;&gt;Node35 -->
<g id="edge47" class="edge">
<title>Node53&#45;&gt;Node35</title>
<path fill="none" stroke="#191970" d="M1932.5132,-351.6485C2042.8029,-345.33 2286.3405,-328.7264 2314.6353,-304 2340.3657,-281.5145 2333.6353,-263.671 2333.6353,-229.5 2333.6353,-229.5 2333.6353,-229.5 2333.6353,-119.5 2333.6353,-87.7718 2333.6353,-50.8957 2333.6353,-28.917"/>
<polygon fill="#191970" stroke="#191970" points="2337.1354,-28.6266 2333.6353,-18.6267 2330.1354,-28.6267 2337.1354,-28.6266"/>
</g>
<!-- Node53&#45;&gt;Node43 -->
<g id="edge46" class="edge">
<title>Node53&#45;&gt;Node43</title>
<path fill="none" stroke="#191970" d="M1824.6782,-348.1538C1780.1112,-341.437 1716.052,-328.3195 1664.6353,-304 1645.43,-294.9161 1645.7691,-284.2334 1626.6353,-275 1523.1242,-225.0488 1392.0784,-198.1484 1309.2705,-185.0799"/>
<polygon fill="#191970" stroke="#191970" points="1309.5838,-181.5868 1299.1662,-183.5162 1308.5132,-188.5045 1309.5838,-181.5868"/>
</g>
<!-- Node54 -->
<g id="node44" class="node">
<title>Node54</title>
<polygon fill="#ffffff" stroke="#bfbfbf" points="1962.1255,-280.5 1962.1255,-298.5 2013.145,-298.5 2013.145,-280.5 1962.1255,-280.5"/>
<text text-anchor="middle" x="1987.6353" y="-286.5" font-family="Helvetica,sans-Serif" font-size="10.00" fill="#000000">Ifpack.h</text>
</g>
<!-- Node53&#45;&gt;Node54 -->
<g id="edge48" class="edge">
<title>Node53&#45;&gt;Node54</title>
<path fill="none" stroke="#191970" d="M1893.7912,-345.462C1911.8296,-334.7052 1942.1808,-316.6059 1963.47,-303.9105"/>
<polygon fill="#191970" stroke="#191970" points="1965.4604,-306.7987 1972.2566,-298.6708 1961.8752,-300.7865 1965.4604,-306.7987"/>
</g>
<!-- Node55 -->
<g id="node45" class="node">
<title>Node55</title>
<polygon fill="#ffffff" stroke="#bfbfbf" points="2031.3843,-280.5 2031.3843,-298.5 2161.8862,-298.5 2161.8862,-280.5 2031.3843,-280.5"/>
<text text-anchor="middle" x="2096.6353" y="-286.5" font-family="Helvetica,sans-Serif" font-size="10.00" fill="#000000">Ifpack_AdditiveSchwarz.h</text>
</g>
<!-- Node53&#45;&gt;Node55 -->
<g id="edge49" class="edge">
<title>Node53&#45;&gt;Node55</title>
<path fill="none" stroke="#191970" d="M1908.9472,-345.462C1947.3973,-333.9976 2013.8191,-314.1929 2056.4599,-301.4789"/>
<polygon fill="#191970" stroke="#191970" points="2057.6471,-304.7772 2066.2301,-298.5658 2055.6469,-298.0691 2057.6471,-304.7772"/>
</g>
<!-- Node56 -->
<g id="node46" class="node">
<title>Node56</title>
<polygon fill="#ffffff" stroke="#bfbfbf" points="2179.8794,-280.5 2179.8794,-298.5 2305.3911,-298.5 2305.3911,-280.5 2179.8794,-280.5"/>
<text text-anchor="middle" x="2242.6353" y="-286.5" font-family="Helvetica,sans-Serif" font-size="10.00" fill="#000000">BelosLinearProblem.hpp</text>
</g>
<!-- Node53&#45;&gt;Node56 -->
<g id="edge50" class="edge">
<title>Node53&#45;&gt;Node56</title>
<path fill="none" stroke="#191970" d="M1932.5329,-345.6345C1991.1899,-335.8798 2087.7018,-319.5194 2170.6353,-304 2176.4966,-302.9032 2182.6192,-301.7232 2188.712,-300.527"/>
<polygon fill="#191970" stroke="#191970" points="2189.7575,-303.888 2198.8862,-298.5106 2188.3965,-297.0215 2189.7575,-303.888"/>
</g>
<!-- Node57 -->
<g id="node47" class="node">
<title>Node57</title>
<polygon fill="#ffffff" stroke="#bfbfbf" points="2361.606,-280.5 2361.606,-298.5 2507.6646,-298.5 2507.6646,-280.5 2361.606,-280.5"/>
<text text-anchor="middle" x="2434.6353" y="-286.5" font-family="Helvetica,sans-Serif" font-size="10.00" fill="#000000">BelosBlockGmresSolMgr.hpp</text>
</g>
<!-- Node53&#45;&gt;Node57 -->
<g id="edge51" class="edge">
<title>Node53&#45;&gt;Node57</title>
<path fill="none" stroke="#191970" d="M1932.5676,-349.7162C2019.9304,-341.7372 2197.7369,-324.5442 2347.6353,-304 2356.0313,-302.8493 2364.8632,-301.5184 2373.5501,-300.1391"/>
<polygon fill="#191970" stroke="#191970" points="2374.3338,-303.5579 2383.6464,-298.5055 2373.2157,-296.6478 2374.3338,-303.5579"/>
</g>
<!-- Node58 -->
<g id="node48" class="node">
<title>Node58</title>
<polygon fill="#ffffff" stroke="#bfbfbf" points="2525.4263,-280.5 2525.4263,-298.5 2649.8442,-298.5 2649.8442,-280.5 2525.4263,-280.5"/>
<text text-anchor="middle" x="2587.6353" y="-286.5" font-family="Helvetica,sans-Serif" font-size="10.00" fill="#000000">BelosEpetraAdapter.hpp</text>
</g>
<!-- Node53&#45;&gt;Node58 -->
<g id="edge52" class="edge">
<title>Node53&#45;&gt;Node58</title>
<path fill="none" stroke="#191970" d="M1932.6532,-352.4585C2042.894,-347.8009 2301.5466,-334.3594 2516.6353,-304 2523.4148,-303.0431 2530.5205,-301.8377 2537.5074,-300.5328"/>
<polygon fill="#191970" stroke="#191970" points="2538.46,-303.9132 2547.6071,-298.567 2537.1226,-297.0421 2538.46,-303.9132"/>
</g>
<!-- Node59 -->
<g id="node49" class="node">
<title>Node59</title>
<polygon fill="#ffffff" stroke="#bfbfbf" points="1673.9229,-280.5 1673.9229,-298.5 1795.3477,-298.5 1795.3477,-280.5 1673.9229,-280.5"/>
<text text-anchor="middle" x="1734.6353" y="-286.5" font-family="Helvetica,sans-Serif" font-size="10.00" fill="#000000">BelosSolverFactory.hpp</text>
</g>
<!-- Node53&#45;&gt;Node59 -->
<g id="edge53" class="edge">
<title>Node53&#45;&gt;Node59</title>
<path fill="none" stroke="#191970" d="M1858.6127,-345.462C1834.1409,-334.4158 1792.5158,-315.6266 1764.3164,-302.8977"/>
<polygon fill="#191970" stroke="#191970" points="1765.5065,-299.5949 1754.952,-298.6708 1762.6265,-305.9751 1765.5065,-299.5949"/>
</g>
<!-- Node60 -->
<g id="node50" class="node">
<title>Node60</title>
<polygon fill="#ffffff" stroke="#bfbfbf" points="1813.3867,-275.5 1813.3867,-303.5 1943.8838,-303.5 1943.8838,-275.5 1813.3867,-275.5"/>
<text text-anchor="start" x="1821.3867" y="-291.5" font-family="Helvetica,sans-Serif" font-size="10.00" fill="#000000">Stratimikos_DefaultLinear</text>
<text text-anchor="middle" x="1878.6353" y="-281.5" font-family="Helvetica,sans-Serif" font-size="10.00" fill="#000000">SolverBuilder.hpp</text>
</g>
<!-- Node53&#45;&gt;Node60 -->
<g id="edge57" class="edge">
<title>Node53&#45;&gt;Node60</title>
<path fill="none" stroke="#191970" d="M1878.6353,-345.462C1878.6353,-337.404 1878.6353,-325.2257 1878.6353,-314.2852"/>
<polygon fill="#191970" stroke="#191970" points="1882.1354,-313.9558 1878.6353,-303.9559 1875.1354,-313.9559 1882.1354,-313.9558"/>
</g>
</g>
</svg>
        <g id="navigator" transform="translate(0 0)" fill="#404254">
                <rect fill="#f2f5e9" fill-opacity="0.5" stroke="#606060" stroke-width=".5" x="0" y="0" width="60" height="60"/>
                <use id="zoomplus" xlink:href="#zoomPlus" x="17" y="9" onmousedown="handleZoom(evt,'in')"/>
                <use id="zoomminus" xlink:href="#zoomMin" x="42" y="9" onmousedown="handleZoom(evt,'out')"/>
                <use id="reset" xlink:href="#resetDef" x="30" y="36" onmousedown="handleReset()"/>
                <g id="arrowUp" xlink:href="#dirArrow" transform="translate(30 24)" onmousedown="handlePan(0,-1)">
                  <use xlink:href="#rim" fill="#404040">
                        <set attributeName="fill" to="#808080" begin="arrowUp.mouseover" end="arrowUp.mouseout"/>
                  </use>
                  <path fill="none" stroke="white" stroke-width="1.5" d="M0,-3.0v7 M-2.5,-0.5L0,-3.0L2.5,-0.5"/>
                </g>
                <g id="arrowRight" xlink:href="#dirArrow" transform="rotate(90) translate(36 -43)" onmousedown="handlePan(1,0)">
                  <use xlink:href="#rim" fill="#404040">
                        <set attributeName="fill" to="#808080" begin="arrowRight.mouseover" end="arrowRight.mouseout"/>
                  </use>
                  <path fill="none" stroke="white" stroke-width="1.5" d="M0,-3.0v7 M-2.5,-0.5L0,-3.0L2.5,-0.5"/>
                </g>
                <g id="arrowDown" xlink:href="#dirArrow" transform="rotate(180) translate(-30 -48)" onmousedown="handlePan(0,1)">
                  <use xlink:href="#rim" fill="#404040">
                        <set attributeName="fill" to="#808080" begin="arrowDown.mouseover" end="arrowDown.mouseout"/>
                  </use>
                  <path fill="none" stroke="white" stroke-width="1.5" d="M0,-3.0v7 M-2.5,-0.5L0,-3.0L2.5,-0.5"/>
                </g>
                <g id="arrowLeft" xlink:href="#dirArrow" transform="rotate(270) translate(-36 17)" onmousedown="handlePan(-1,0)">
                  <use xlink:href="#rim" fill="#404040">
                        <set attributeName="fill" to="#808080" begin="arrowLeft.mouseover" end="arrowLeft.mouseout"/>
                  </use>
                  <path fill="none" stroke="white" stroke-width="1.5" d="M0,-3.0v7 M-2.5,-0.5L0,-3.0L2.5,-0.5"/>
                </g>
        </g>
        <svg viewBox="0 0 15 15" width="100%" height="30px" preserveAspectRatio="xMaxYMin meet">
         <g id="arrow_out" transform="scale(0.3 0.3)">
          <a xlink:href="arteries_2gmrf__neumann_2main_8cpp__incl_org.svg" target="_base">
           <rect id="button" ry="5" rx="5" y="6" x="6" height="38" width="38"
                fill="#f2f5e9" fill-opacity="0.5" stroke="#606060" stroke-width="1.0"/>
           <path id="arrow"
             d="M 11.500037,31.436501 C 11.940474,20.09759 22.043105,11.32322 32.158766,21.979434 L 37.068811,17.246167 C 37.068811,17.246167 37.088388,32 37.088388,32 L 22.160133,31.978069 C 22.160133,31.978069 26.997745,27.140456 26.997745,27.140456 C 18.528582,18.264221 13.291696,25.230495 11.500037,31.436501 z"
             style="fill:#404040;"/>
          </a>
         </g>
        </svg>
</svg>
