<?xml version="1.0" encoding="UTF-8" standalone="no"?>
<!DOCTYPE svg PUBLIC "-//W3C//DTD SVG 1.1//EN"
 "http://www.w3.org/Graphics/SVG/1.1/DTD/svg11.dtd">
<!-- Generated by graphviz version 2.40.1 (20161225.0304)
 -->
<!-- Title: arteries/vonmises/main.cpp Pages: 1 -->
<!--zoomable 442 -->
<svg id="main" version="1.1" xmlns="http://www.w3.org/2000/svg" xmlns:xlink="http://www.w3.org/1999/xlink" xml:space="preserve" onload="init(evt)">
<style type="text/css"><![CDATA[
.edge:hover path { stroke: red; }
.edge:hover polygon { stroke: red; fill: red; }
]]></style>
<script type="text/javascript"><![CDATA[
var edges = document.getElementsByTagName('g');
if (edges && edges.length) {
  for (var i=0;i<edges.length;i++) {
    if (edges[i].id.substr(0,4)=='edge') {
      edges[i].setAttribute('class','edge');
    }
  }
}
]]></script>
        <defs>
                <circle id="rim" cx="0" cy="0" r="7"/>
                <circle id="rim2" cx="0" cy="0" r="3.5"/>
                <g id="zoomPlus">
                        <use xlink:href="#rim" fill="#404040">
                                <set attributeName="fill" to="#808080" begin="zoomplus.mouseover" end="zoomplus.mouseout"/>
                        </use>
                        <path d="M-4,0h8M0,-4v8" fill="none" stroke="white" stroke-width="1.5" pointer-events="none"/>
                </g>
                <g id="zoomMin">
                        <use xlink:href="#rim" fill="#404040">
                                <set attributeName="fill" to="#808080" begin="zoomminus.mouseover" end="zoomminus.mouseout"/>
                        </use>
                        <path d="M-4,0h8" fill="none" stroke="white" stroke-width="1.5" pointer-events="none"/>
                </g>
                <g id="dirArrow">
                        <path fill="none" stroke="white" stroke-width="1.5" d="M0,-3.0v7 M-2.5,-0.5L0,-3.0L2.5,-0.5"/>
                </g>
               <g id="resetDef">
                       <use xlink:href="#rim2" fill="#404040">
                               <set attributeName="fill" to="#808080" begin="reset.mouseover" end="reset.mouseout"/>
                       </use>
               </g>
        </defs>

<script type="text/javascript">
var viewWidth = 3182;
var viewHeight = 442;
var sectionId = 'dynsection-0';
</script>
<script xlink:href="../../svgpan.js"/>
<svg id="graph" class="graph">
<g id="viewport">
<title>arteries/vonmises/main.cpp</title>
<polygon fill="#ffffff" stroke="transparent" points="-4,4 -4,-438 3178,-438 3178,4 -4,4"/>
<!-- Node0 -->
<g id="node1" class="node">
<title>Node0</title>
<polygon fill="#bfbfbf" stroke="#000000" points="1743,-414.5 1743,-433.5 1880,-433.5 1880,-414.5 1743,-414.5"/>
<text text-anchor="middle" x="1811.5" y="-421.5" font-family="Helvetica,sans-Serif" font-size="10.00" fill="#000000">arteries/vonmises/main.cpp</text>
</g>
<!-- Node1 -->
<g id="node2" class="node">
<title>Node1</title>
<polygon fill="#ffffff" stroke="#bfbfbf" points="1208.5,-353 1208.5,-372 1316.5,-372 1316.5,-353 1208.5,-353"/>
<text text-anchor="middle" x="1262.5" y="-360" font-family="Helvetica,sans-Serif" font-size="10.00" fill="#000000">Epetra_ConfigDefs.h</text>
</g>
<!-- Node0&#45;&gt;Node1 -->
<g id="edge1" class="edge">
<title>Node0&#45;&gt;Node1</title>
<path fill="none" stroke="#191970" d="M1742.6722,-420.6749C1648.1208,-415.3832 1472.9863,-402.9838 1325.5,-378 1319.595,-376.9997 1313.4252,-375.7463 1307.3552,-374.388"/>
<polygon fill="#191970" stroke="#191970" points="1307.8336,-370.9053 1297.2986,-372.0293 1306.2352,-377.7204 1307.8336,-370.9053"/>
</g>
<!-- Node2 -->
<g id="node3" class="node">
<title>Node2</title>
<polygon fill="#ffffff" stroke="#bfbfbf" points="1335,-353 1335,-372 1448,-372 1448,-353 1335,-353"/>
<text text-anchor="middle" x="1391.5" y="-360" font-family="Helvetica,sans-Serif" font-size="10.00" fill="#000000">Epetra_SerialComm.h</text>
</g>
<!-- Node0&#45;&gt;Node2 -->
<g id="edge2" class="edge">
<title>Node0&#45;&gt;Node2</title>
<path fill="none" stroke="#191970" d="M1742.7806,-417.2632C1671.0244,-409.7227 1555.3724,-396.1424 1456.5,-378 1450.6521,-376.9269 1444.5405,-375.6623 1438.5052,-374.3258"/>
<polygon fill="#191970" stroke="#191970" points="1439.0094,-370.8507 1428.4804,-372.0299 1437.4466,-377.6741 1439.0094,-370.8507"/>
</g>
<!-- Node3 -->
<g id="node4" class="node">
<title>Node3</title>
<polygon fill="#ffffff" stroke="#bfbfbf" points="1466,-353 1466,-372 1651,-372 1651,-353 1466,-353"/>
<text text-anchor="middle" x="1558.5" y="-360" font-family="Helvetica,sans-Serif" font-size="10.00" fill="#000000">Teuchos_CommandLineProcessor.hpp</text>
</g>
<!-- Node0&#45;&gt;Node3 -->
<g id="edge3" class="edge">
<title>Node0&#45;&gt;Node3</title>
<path fill="none" stroke="#191970" d="M1772.2463,-414.4581C1727.9306,-403.6857 1655.7624,-386.1428 1607.714,-374.4631"/>
<polygon fill="#191970" stroke="#191970" points="1608.3895,-371.0254 1597.8457,-372.0643 1606.736,-377.8274 1608.3895,-371.0254"/>
</g>
<!-- Node4 -->
<g id="node5" class="node">
<title>Node4</title>
<polygon fill="#ffffff" stroke="#bfbfbf" points="1654.5,-286 1654.5,-305 1830.5,-305 1830.5,-286 1654.5,-286"/>
<text text-anchor="middle" x="1742.5" y="-293" font-family="Helvetica,sans-Serif" font-size="10.00" fill="#000000">Teuchos_StandardCatchMacros.hpp</text>
</g>
<!-- Node0&#45;&gt;Node4 -->
<g id="edge4" class="edge">
<title>Node0&#45;&gt;Node4</title>
<path fill="none" stroke="#191970" d="M1810.752,-414.4116C1809.226,-399.2416 1804.7854,-369.1569 1792.5,-347 1785.0616,-333.5847 1773.2163,-321.1636 1762.922,-311.8822"/>
<polygon fill="#191970" stroke="#191970" points="1764.9727,-309.0291 1755.1124,-305.1528 1760.4033,-314.332 1764.9727,-309.0291"/>
</g>
<!-- Node5 -->
<g id="node6" class="node">
<title>Node5</title>
<polygon fill="#ffffff" stroke="#bfbfbf" points="1849,-286 1849,-305 1988,-305 1988,-286 1849,-286"/>
<text text-anchor="middle" x="1918.5" y="-293" font-family="Helvetica,sans-Serif" font-size="10.00" fill="#000000">Teuchos_ParameterList.hpp</text>
</g>
<!-- Node0&#45;&gt;Node5 -->
<g id="edge5" class="edge">
<title>Node0&#45;&gt;Node5</title>
<path fill="none" stroke="#191970" d="M1819.5424,-414.3416C1837.4354,-392.8533 1880.7614,-340.8216 1903.6935,-313.2817"/>
<polygon fill="#191970" stroke="#191970" points="1906.655,-315.1948 1910.3643,-305.2705 1901.2757,-310.7155 1906.655,-315.1948"/>
</g>
<!-- Node6 -->
<g id="node7" class="node">
<title>Node6</title>
<polygon fill="#ffffff" stroke="#bfbfbf" points="2006.5,-280.5 2006.5,-310.5 2146.5,-310.5 2146.5,-280.5 2006.5,-280.5"/>
<text text-anchor="start" x="2014.5" y="-298.5" font-family="Helvetica,sans-Serif" font-size="10.00" fill="#000000">Teuchos_XMLParameterList</text>
<text text-anchor="middle" x="2076.5" y="-287.5" font-family="Helvetica,sans-Serif" font-size="10.00" fill="#000000">CoreHelpers.hpp</text>
</g>
<!-- Node0&#45;&gt;Node6 -->
<g id="edge6" class="edge">
<title>Node0&#45;&gt;Node6</title>
<path fill="none" stroke="#191970" d="M1831.4181,-414.3416C1874.7461,-393.3316 1978.2892,-343.123 2035.963,-315.1566"/>
<polygon fill="#191970" stroke="#191970" points="2037.6795,-318.2141 2045.1504,-310.7016 2034.6253,-311.9155 2037.6795,-318.2141"/>
</g>
<!-- Node7 -->
<g id="node8" class="node">
<title>Node7</title>
<g id="a_node8"><a xlink:href="../../d6/d14/neumann_inner_surface___polyconvex_h_g_o_8hpp.html" target="_top" xlink:title="neumannInnerSurface\l_PolyconvexHGO.hpp">
<polygon fill="#ffffff" stroke="#000000" points="1669.5,-347.5 1669.5,-377.5 1783.5,-377.5 1783.5,-347.5 1669.5,-347.5"/>
<text text-anchor="start" x="1677.5" y="-365.5" font-family="Helvetica,sans-Serif" font-size="10.00" fill="#000000">neumannInnerSurface</text>
<text text-anchor="middle" x="1726.5" y="-354.5" font-family="Helvetica,sans-Serif" font-size="10.00" fill="#000000">_PolyconvexHGO.hpp</text>
</a>
</g>
</g>
<!-- Node0&#45;&gt;Node7 -->
<g id="edge7" class="edge">
<title>Node0&#45;&gt;Node7</title>
<path fill="none" stroke="#191970" d="M1798.2188,-414.3906C1786.8216,-406.1444 1769.9908,-393.9669 1755.4977,-383.4807"/>
<polygon fill="#191970" stroke="#191970" points="1757.4468,-380.5709 1747.2933,-377.5446 1753.3435,-386.2421 1757.4468,-380.5709"/>
</g>
<!-- Node47 -->
<g id="node42" class="node">
<title>Node47</title>
<g id="a_node42"><a xlink:href="../../d1/d11/newton_raphson_8hpp.html" target="_top" xlink:title="newtonRaphson.hpp">
<polygon fill="#ffffff" stroke="#000000" points="2268.5,-353 2268.5,-372 2374.5,-372 2374.5,-353 2268.5,-353"/>
<text text-anchor="middle" x="2321.5" y="-360" font-family="Helvetica,sans-Serif" font-size="10.00" fill="#000000">newtonRaphson.hpp</text>
</a>
</g>
</g>
<!-- Node0&#45;&gt;Node47 -->
<g id="edge44" class="edge">
<title>Node0&#45;&gt;Node47</title>
<path fill="none" stroke="#191970" d="M1880.0161,-415.7378C1979.3553,-403.7586 2161.9958,-381.7343 2258.2756,-370.1241"/>
<polygon fill="#191970" stroke="#191970" points="2258.9389,-373.5696 2268.448,-368.8975 2258.1008,-366.6199 2258.9389,-373.5696"/>
</g>
<!-- Node55 -->
<g id="node50" class="node">
<title>Node55</title>
<polygon fill="#ffffff" stroke="#bfbfbf" points="2392.5,-347.5 2392.5,-377.5 2508.5,-377.5 2508.5,-347.5 2392.5,-347.5"/>
<text text-anchor="start" x="2400.5" y="-365.5" font-family="Helvetica,sans-Serif" font-size="10.00" fill="#000000">boost/math/special</text>
<text text-anchor="middle" x="2450.5" y="-354.5" font-family="Helvetica,sans-Serif" font-size="10.00" fill="#000000">_functions/gamma.hpp</text>
</g>
<!-- Node0&#45;&gt;Node55 -->
<g id="edge57" class="edge">
<title>Node0&#45;&gt;Node55</title>
<path fill="none" stroke="#191970" d="M1880.1176,-421.7425C1985.9761,-417.5409 2195.5568,-406.3691 2382.4854,-378.0075"/>
<polygon fill="#191970" stroke="#191970" points="2383.1448,-381.4473 2392.4969,-376.4685 2382.0812,-374.5286 2383.1448,-381.4473"/>
</g>
<!-- Node8 -->
<g id="node9" class="node">
<title>Node8</title>
<g id="a_node9"><a xlink:href="../../de/d49/tensor__calculus_8hpp.html" target="_top" xlink:title="tensor_calculus.hpp">
<polygon fill="#ffffff" stroke="#000000" points="1574.5,-168.5 1574.5,-187.5 1678.5,-187.5 1678.5,-168.5 1574.5,-168.5"/>
<text text-anchor="middle" x="1626.5" y="-175.5" font-family="Helvetica,sans-Serif" font-size="10.00" fill="#000000">tensor_calculus.hpp</text>
</a>
</g>
</g>
<!-- Node7&#45;&gt;Node8 -->
<g id="edge8" class="edge">
<title>Node7&#45;&gt;Node8</title>
<path fill="none" stroke="#191970" d="M1689.3095,-347.4939C1673.2938,-339.1289 1655.8927,-327.101 1645.5,-311 1622.9316,-276.0355 1622.5922,-225.2053 1624.4591,-197.6078"/>
<polygon fill="#191970" stroke="#191970" points="1627.948,-197.8857 1625.3041,-187.6261 1620.973,-197.2952 1627.948,-197.8857"/>
</g>
<!-- Node41 -->
<g id="node36" class="node">
<title>Node41</title>
<g id="a_node36"><a xlink:href="../../d5/d3f/laplacepp_8hpp.html" target="_top" xlink:title="laplacepp.hpp">
<polygon fill="#ffffff" stroke="#000000" points="1310,-286 1310,-305 1387,-305 1387,-286 1310,-286"/>
<text text-anchor="middle" x="1348.5" y="-293" font-family="Helvetica,sans-Serif" font-size="10.00" fill="#000000">laplacepp.hpp</text>
</a>
</g>
</g>
<!-- Node7&#45;&gt;Node41 -->
<g id="edge35" class="edge">
<title>Node7&#45;&gt;Node41</title>
<path fill="none" stroke="#191970" d="M1669.19,-348.8772C1665.9178,-348.2131 1662.6707,-347.5817 1659.5,-347 1543.0246,-325.6322 1510.8802,-337.6557 1395.5,-311 1391.8532,-310.1575 1388.0865,-309.1529 1384.3464,-308.0658"/>
<polygon fill="#191970" stroke="#191970" points="1385.1966,-304.6651 1374.6088,-305.0499 1383.1257,-311.3518 1385.1966,-304.6651"/>
</g>
<!-- Node44 -->
<g id="node39" class="node">
<title>Node44</title>
<g id="a_node39"><a xlink:href="../../dc/de0/nearly_incompressible_hyperelasticity_8hpp.html" target="_top" xlink:title="nearlyIncompressibleHyperelasticity.hpp">
<polygon fill="#ffffff" stroke="#000000" points="1405,-286 1405,-305 1598,-305 1598,-286 1405,-286"/>
<text text-anchor="middle" x="1501.5" y="-293" font-family="Helvetica,sans-Serif" font-size="10.00" fill="#000000">nearlyIncompressibleHyperelasticity.hpp</text>
</a>
</g>
</g>
<!-- Node7&#45;&gt;Node44 -->
<g id="edge39" class="edge">
<title>Node7&#45;&gt;Node44</title>
<path fill="none" stroke="#191970" d="M1676.0056,-347.4639C1635.9238,-335.5284 1580.571,-319.0456 1543.0336,-307.8678"/>
<polygon fill="#191970" stroke="#191970" points="1544.0037,-304.5049 1533.4207,-305.0053 1542.0059,-311.2137 1544.0037,-304.5049"/>
</g>
<!-- Node9 -->
<g id="node10" class="node">
<title>Node9</title>
<g id="a_node10"><a xlink:href="../../d0/d02/meshpp_8hpp.html" target="_top" xlink:title="meshpp.hpp">
<polygon fill="#ffffff" stroke="#ff0000" points="1394.5,-56.5 1394.5,-75.5 1464.5,-75.5 1464.5,-56.5 1394.5,-56.5"/>
<text text-anchor="middle" x="1429.5" y="-63.5" font-family="Helvetica,sans-Serif" font-size="10.00" fill="#000000">meshpp.hpp</text>
</a>
</g>
</g>
<!-- Node8&#45;&gt;Node9 -->
<g id="edge9" class="edge">
<title>Node8&#45;&gt;Node9</title>
<path fill="none" stroke="#191970" d="M1609.7039,-168.4509C1575.1747,-148.8201 1496.033,-103.8259 1455.0875,-80.5472"/>
<polygon fill="#191970" stroke="#191970" points="1456.6767,-77.4247 1446.2536,-75.5249 1453.217,-83.51 1456.6767,-77.4247"/>
</g>
<!-- Node10 -->
<g id="node11" class="node">
<title>Node10</title>
<polygon fill="#ffffff" stroke="#bfbfbf" points="2567.5,-.5 2567.5,-19.5 2613.5,-19.5 2613.5,-.5 2567.5,-.5"/>
<text text-anchor="middle" x="2590.5" y="-7.5" font-family="Helvetica,sans-Serif" font-size="10.00" fill="#000000">stdio.h</text>
</g>
<!-- Node9&#45;&gt;Node10 -->
<g id="edge10" class="edge">
<title>Node9&#45;&gt;Node10</title>
<path fill="none" stroke="#191970" d="M1464.7548,-65.8051C1628.9945,-64.7102 2320.7158,-57.9863 2557.3435,-19.7072"/>
<polygon fill="#191970" stroke="#191970" points="2557.9755,-23.1501 2567.2554,-18.0381 2556.813,-16.2473 2557.9755,-23.1501"/>
</g>
<!-- Node11 -->
<g id="node12" class="node">
<title>Node11</title>
<polygon fill="#ffffff" stroke="#bfbfbf" points="2631.5,-.5 2631.5,-19.5 2685.5,-19.5 2685.5,-.5 2631.5,-.5"/>
<text text-anchor="middle" x="2658.5" y="-7.5" font-family="Helvetica,sans-Serif" font-size="10.00" fill="#000000">iostream</text>
</g>
<!-- Node9&#45;&gt;Node11 -->
<g id="edge11" class="edge">
<title>Node9&#45;&gt;Node11</title>
<path fill="none" stroke="#191970" d="M1464.7034,-65.7449C1634.4684,-64.3487 2370.3168,-56.3616 2620.9853,-19.8453"/>
<polygon fill="#191970" stroke="#191970" points="2621.7631,-23.2675 2631.1267,-18.3103 2620.7155,-16.3463 2621.7631,-23.2675"/>
</g>
<!-- Node12 -->
<g id="node13" class="node">
<title>Node12</title>
<polygon fill="#ffffff" stroke="#bfbfbf" points="0,-.5 0,-19.5 49,-19.5 49,-.5 0,-.5"/>
<text text-anchor="middle" x="24.5" y="-7.5" font-family="Helvetica,sans-Serif" font-size="10.00" fill="#000000">istream</text>
</g>
<!-- Node9&#45;&gt;Node12 -->
<g id="edge12" class="edge">
<title>Node9&#45;&gt;Node12</title>
<path fill="none" stroke="#191970" d="M1394.4586,-65.3533C1197.8218,-61.6556 234.4448,-42.6055 59.174,-19.5096"/>
<polygon fill="#191970" stroke="#191970" points="59.6168,-16.0372 49.2157,-18.0537 58.6041,-22.9636 59.6168,-16.0372"/>
</g>
<!-- Node13 -->
<g id="node14" class="node">
<title>Node13</title>
<polygon fill="#ffffff" stroke="#bfbfbf" points="67.5,-.5 67.5,-19.5 117.5,-19.5 117.5,-.5 67.5,-.5"/>
<text text-anchor="middle" x="92.5" y="-7.5" font-family="Helvetica,sans-Serif" font-size="10.00" fill="#000000">fstream</text>
</g>
<!-- Node9&#45;&gt;Node13 -->
<g id="edge13" class="edge">
<title>Node9&#45;&gt;Node13</title>
<path fill="none" stroke="#191970" d="M1394.3067,-65.2846C1203.4035,-61.3353 294.8709,-41.6381 127.5241,-19.5965"/>
<polygon fill="#191970" stroke="#191970" points="127.9903,-16.1275 117.5886,-18.1414 126.9759,-23.0536 127.9903,-16.1275"/>
</g>
<!-- Node14 -->
<g id="node15" class="node">
<title>Node14</title>
<polygon fill="#ffffff" stroke="#bfbfbf" points="135.5,-.5 135.5,-19.5 179.5,-19.5 179.5,-.5 135.5,-.5"/>
<text text-anchor="middle" x="157.5" y="-7.5" font-family="Helvetica,sans-Serif" font-size="10.00" fill="#000000">vector</text>
</g>
<!-- Node9&#45;&gt;Node14 -->
<g id="edge14" class="edge">
<title>Node9&#45;&gt;Node14</title>
<path fill="none" stroke="#191970" d="M1394.437,-65.2752C1209.4639,-61.3762 349.7844,-42.2965 189.5839,-19.5319"/>
<polygon fill="#191970" stroke="#191970" points="190.0908,-16.0686 179.6656,-17.957 188.993,-22.982 190.0908,-16.0686"/>
</g>
<!-- Node15 -->
<g id="node16" class="node">
<title>Node15</title>
<polygon fill="#ffffff" stroke="#bfbfbf" points="197.5,-.5 197.5,-19.5 247.5,-19.5 247.5,-.5 197.5,-.5"/>
<text text-anchor="middle" x="222.5" y="-7.5" font-family="Helvetica,sans-Serif" font-size="10.00" fill="#000000">iomanip</text>
</g>
<!-- Node9&#45;&gt;Node15 -->
<g id="edge15" class="edge">
<title>Node9&#45;&gt;Node15</title>
<path fill="none" stroke="#191970" d="M1394.3121,-65.7891C1226.2796,-64.606 503.8912,-57.4853 257.5569,-19.7184"/>
<polygon fill="#191970" stroke="#191970" points="258.0167,-16.2476 247.5905,-18.1302 256.915,-23.1603 258.0167,-16.2476"/>
</g>
<!-- Node16 -->
<g id="node17" class="node">
<title>Node16</title>
<polygon fill="#ffffff" stroke="#bfbfbf" points="265.5,-.5 265.5,-19.5 369.5,-19.5 369.5,-.5 265.5,-.5"/>
<text text-anchor="middle" x="317.5" y="-7.5" font-family="Helvetica,sans-Serif" font-size="10.00" fill="#000000">Epetra_MpiComm.h</text>
</g>
<!-- Node9&#45;&gt;Node16 -->
<g id="edge16" class="edge">
<title>Node9&#45;&gt;Node16</title>
<path fill="none" stroke="#191970" d="M1394.4108,-65.0255C1237.901,-60.5941 601.8616,-41.6642 379.6385,-19.9757"/>
<polygon fill="#191970" stroke="#191970" points="379.9891,-16.4934 369.6887,-18.9738 379.2877,-23.4582 379.9891,-16.4934"/>
</g>
<!-- Node17 -->
<g id="node18" class="node">
<title>Node17</title>
<polygon fill="#ffffff" stroke="#bfbfbf" points="388,-.5 388,-19.5 501,-19.5 501,-.5 388,-.5"/>
<text text-anchor="middle" x="444.5" y="-7.5" font-family="Helvetica,sans-Serif" font-size="10.00" fill="#000000">Epetra_FECrsGraph.h</text>
</g>
<!-- Node9&#45;&gt;Node17 -->
<g id="edge17" class="edge">
<title>Node9&#45;&gt;Node17</title>
<path fill="none" stroke="#191970" d="M1394.3478,-65.5097C1273.203,-63.5525 861.7632,-54.6852 511.4222,-19.9894"/>
<polygon fill="#191970" stroke="#191970" points="511.6344,-16.4933 501.3359,-18.9817 510.9384,-23.4586 511.6344,-16.4933"/>
</g>
<!-- Node18 -->
<g id="node19" class="node">
<title>Node18</title>
<polygon fill="#ffffff" stroke="#bfbfbf" points="519.5,-.5 519.5,-19.5 633.5,-19.5 633.5,-.5 519.5,-.5"/>
<text text-anchor="middle" x="576.5" y="-7.5" font-family="Helvetica,sans-Serif" font-size="10.00" fill="#000000">Epetra_FECrsMatrix.h</text>
</g>
<!-- Node9&#45;&gt;Node18 -->
<g id="edge18" class="edge">
<title>Node9&#45;&gt;Node18</title>
<path fill="none" stroke="#191970" d="M1394.4985,-65.1025C1285.1369,-62.0554 939.9672,-50.5988 643.7694,-20.0437"/>
<polygon fill="#191970" stroke="#191970" points="644.0047,-16.5494 633.6961,-18.9952 643.2799,-23.5118 644.0047,-16.5494"/>
</g>
<!-- Node19 -->
<g id="node20" class="node">
<title>Node19</title>
<polygon fill="#ffffff" stroke="#bfbfbf" points="651.5,-.5 651.5,-19.5 751.5,-19.5 751.5,-.5 651.5,-.5"/>
<text text-anchor="middle" x="701.5" y="-7.5" font-family="Helvetica,sans-Serif" font-size="10.00" fill="#000000">Epetra_FEVector.h</text>
</g>
<!-- Node9&#45;&gt;Node19 -->
<g id="edge19" class="edge">
<title>Node9&#45;&gt;Node19</title>
<path fill="none" stroke="#191970" d="M1394.2055,-64.808C1295.7838,-61.222 1009.7935,-49.0167 761.947,-20.0641"/>
<polygon fill="#191970" stroke="#191970" points="762.0044,-16.5467 751.6631,-18.8505 761.1839,-23.4984 762.0044,-16.5467"/>
</g>
<!-- Node20 -->
<g id="node21" class="node">
<title>Node20</title>
<polygon fill="#ffffff" stroke="#bfbfbf" points="770,-.5 770,-19.5 857,-19.5 857,-.5 770,-.5"/>
<text text-anchor="middle" x="813.5" y="-7.5" font-family="Helvetica,sans-Serif" font-size="10.00" fill="#000000">Epetra_Vector.h</text>
</g>
<!-- Node9&#45;&gt;Node20 -->
<g id="edge20" class="edge">
<title>Node9&#45;&gt;Node20</title>
<path fill="none" stroke="#191970" d="M1394.3758,-64.4636C1306.9252,-60.3552 1072.283,-47.5962 867.1881,-20.1103"/>
<polygon fill="#191970" stroke="#191970" points="867.5155,-16.6227 857.136,-18.7479 866.5753,-23.5593 867.5155,-16.6227"/>
</g>
<!-- Node21 -->
<g id="node22" class="node">
<title>Node21</title>
<polygon fill="#ffffff" stroke="#bfbfbf" points="875,-.5 875,-19.5 952,-19.5 952,-.5 875,-.5"/>
<text text-anchor="middle" x="913.5" y="-7.5" font-family="Helvetica,sans-Serif" font-size="10.00" fill="#000000">Epetra_Map.h</text>
</g>
<!-- Node9&#45;&gt;Node21 -->
<g id="edge21" class="edge">
<title>Node9&#45;&gt;Node21</title>
<path fill="none" stroke="#191970" d="M1394.325,-63.9C1317.5633,-59.0282 1129.1442,-45.4999 962.1203,-20.116"/>
<polygon fill="#191970" stroke="#191970" points="962.5812,-16.6458 952.1653,-18.5849 961.517,-23.5644 962.5812,-16.6458"/>
</g>
<!-- Node22 -->
<g id="node23" class="node">
<title>Node22</title>
<polygon fill="#ffffff" stroke="#bfbfbf" points="970,-.5 970,-19.5 1109,-19.5 1109,-.5 970,-.5"/>
<text text-anchor="middle" x="1039.5" y="-7.5" font-family="Helvetica,sans-Serif" font-size="10.00" fill="#000000">Epetra_SerialDenseMatrix.h</text>
</g>
<!-- Node9&#45;&gt;Node22 -->
<g id="edge22" class="edge">
<title>Node9&#45;&gt;Node22</title>
<path fill="none" stroke="#191970" d="M1394.2023,-60.9316C1331.6799,-51.954 1200.1508,-33.0678 1116.0159,-20.9869"/>
<polygon fill="#191970" stroke="#191970" points="1116.3942,-17.5054 1105.9983,-19.5485 1115.3993,-24.4343 1116.3942,-17.5054"/>
</g>
<!-- Node23 -->
<g id="node24" class="node">
<title>Node23</title>
<polygon fill="#ffffff" stroke="#bfbfbf" points="1127.5,-.5 1127.5,-19.5 1267.5,-19.5 1267.5,-.5 1127.5,-.5"/>
<text text-anchor="middle" x="1197.5" y="-7.5" font-family="Helvetica,sans-Serif" font-size="10.00" fill="#000000">Epetra_SerialDenseVector.h</text>
</g>
<!-- Node9&#45;&gt;Node23 -->
<g id="edge23" class="edge">
<title>Node9&#45;&gt;Node23</title>
<path fill="none" stroke="#191970" d="M1394.2642,-57.4948C1354.9858,-48.0138 1291.1815,-32.6128 1246.9239,-21.9299"/>
<polygon fill="#191970" stroke="#191970" points="1247.5004,-18.4686 1236.9583,-19.5244 1245.8578,-25.2732 1247.5004,-18.4686"/>
</g>
<!-- Node24 -->
<g id="node25" class="node">
<title>Node24</title>
<polygon fill="#ffffff" stroke="#bfbfbf" points="1285.5,-.5 1285.5,-19.5 1437.5,-19.5 1437.5,-.5 1285.5,-.5"/>
<text text-anchor="middle" x="1361.5" y="-7.5" font-family="Helvetica,sans-Serif" font-size="10.00" fill="#000000">Epetra_IntSerialDenseVector.h</text>
</g>
<!-- Node9&#45;&gt;Node24 -->
<g id="edge24" class="edge">
<title>Node9&#45;&gt;Node24</title>
<path fill="none" stroke="#191970" d="M1417.6553,-56.2455C1407.612,-47.9746 1393.0005,-35.9416 1381.1996,-26.2232"/>
<polygon fill="#191970" stroke="#191970" points="1383.1533,-23.298 1373.209,-19.6427 1378.7033,-28.7015 1383.1533,-23.298"/>
</g>
<!-- Node25 -->
<g id="node26" class="node">
<title>Node25</title>
<polygon fill="#ffffff" stroke="#bfbfbf" points="1455.5,-.5 1455.5,-19.5 1541.5,-19.5 1541.5,-.5 1455.5,-.5"/>
<text text-anchor="middle" x="1498.5" y="-7.5" font-family="Helvetica,sans-Serif" font-size="10.00" fill="#000000">Epetra_Import.h</text>
</g>
<!-- Node9&#45;&gt;Node25 -->
<g id="edge25" class="edge">
<title>Node9&#45;&gt;Node25</title>
<path fill="none" stroke="#191970" d="M1441.5189,-56.2455C1451.7098,-47.9746 1466.5362,-35.9416 1478.5107,-26.2232"/>
<polygon fill="#191970" stroke="#191970" points="1481.0598,-28.662 1486.6188,-19.6427 1476.6486,-23.2268 1481.0598,-28.662"/>
</g>
<!-- Node26 -->
<g id="node27" class="node">
<title>Node26</title>
<polygon fill="#ffffff" stroke="#bfbfbf" points="1560,-.5 1560,-19.5 1647,-19.5 1647,-.5 1560,-.5"/>
<text text-anchor="middle" x="1603.5" y="-7.5" font-family="Helvetica,sans-Serif" font-size="10.00" fill="#000000">Epetra_Export.h</text>
</g>
<!-- Node9&#45;&gt;Node26 -->
<g id="edge26" class="edge">
<title>Node9&#45;&gt;Node26</title>
<path fill="none" stroke="#191970" d="M1459.4117,-56.3733C1488.3452,-47.0613 1532.3611,-32.8953 1564.1293,-22.671"/>
<polygon fill="#191970" stroke="#191970" points="1565.5318,-25.8965 1573.9787,-19.5011 1563.3872,-19.2331 1565.5318,-25.8965"/>
</g>
<!-- Node27 -->
<g id="node28" class="node">
<title>Node27</title>
<polygon fill="#ffffff" stroke="#bfbfbf" points="1665.5,-.5 1665.5,-19.5 1745.5,-19.5 1745.5,-.5 1665.5,-.5"/>
<text text-anchor="middle" x="1705.5" y="-7.5" font-family="Helvetica,sans-Serif" font-size="10.00" fill="#000000">Epetra_Time.h</text>
</g>
<!-- Node9&#45;&gt;Node27 -->
<g id="edge27" class="edge">
<title>Node9&#45;&gt;Node27</title>
<path fill="none" stroke="#191970" d="M1464.7359,-58.8507C1513.0297,-49.052 1600.0602,-31.3936 1655.198,-20.2062"/>
<polygon fill="#191970" stroke="#191970" points="1656.0014,-23.6146 1665.1058,-18.1959 1654.6095,-16.7544 1656.0014,-23.6146"/>
</g>
<!-- Node28 -->
<g id="node29" class="node">
<title>Node28</title>
<polygon fill="#ffffff" stroke="#bfbfbf" points="1764,-.5 1764,-19.5 1911,-19.5 1911,-.5 1764,-.5"/>
<text text-anchor="middle" x="1837.5" y="-7.5" font-family="Helvetica,sans-Serif" font-size="10.00" fill="#000000">ml_MultiLevelPreconditioner.h</text>
</g>
<!-- Node9&#45;&gt;Node28 -->
<g id="edge28" class="edge">
<title>Node9&#45;&gt;Node28</title>
<path fill="none" stroke="#191970" d="M1464.639,-61.177C1529.4087,-52.287 1669.1048,-33.1131 1757.9115,-20.9239"/>
<polygon fill="#191970" stroke="#191970" points="1758.5141,-24.3741 1767.9452,-19.5467 1757.5621,-17.4391 1758.5141,-24.3741"/>
</g>
<!-- Node29 -->
<g id="node30" class="node">
<title>Node29</title>
<polygon fill="#ffffff" stroke="#bfbfbf" points="1929,-.5 1929,-19.5 2020,-19.5 2020,-.5 1929,-.5"/>
<text text-anchor="middle" x="1974.5" y="-7.5" font-family="Helvetica,sans-Serif" font-size="10.00" fill="#000000">ml_epetra_utils.h</text>
</g>
<!-- Node9&#45;&gt;Node29 -->
<g id="edge29" class="edge">
<title>Node9&#45;&gt;Node29</title>
<path fill="none" stroke="#191970" d="M1464.6751,-63.7438C1543.8462,-58.4416 1742.2406,-43.9036 1918.9329,-19.9658"/>
<polygon fill="#191970" stroke="#191970" points="1919.4968,-23.4213 1928.93,-18.598 1918.5478,-16.4859 1919.4968,-23.4213"/>
</g>
<!-- Node30 -->
<g id="node31" class="node">
<title>Node30</title>
<polygon fill="#ffffff" stroke="#bfbfbf" points="2038,-.5 2038,-19.5 2109,-19.5 2109,-.5 2038,-.5"/>
<text text-anchor="middle" x="2073.5" y="-7.5" font-family="Helvetica,sans-Serif" font-size="10.00" fill="#000000">ml_include.h</text>
</g>
<!-- Node9&#45;&gt;Node30 -->
<g id="edge30" class="edge">
<title>Node9&#45;&gt;Node30</title>
<path fill="none" stroke="#191970" d="M1464.5334,-65.1116C1555.8317,-62.4148 1808.6362,-52.5057 2027.4971,-20.1286"/>
<polygon fill="#191970" stroke="#191970" points="2028.1929,-23.5635 2037.5636,-18.6197 2027.1552,-16.6408 2028.1929,-23.5635"/>
</g>
<!-- Node31 -->
<g id="node32" class="node">
<title>Node31</title>
<polygon fill="#ffffff" stroke="#bfbfbf" points="2127,-.5 2127,-19.5 2264,-19.5 2264,-.5 2127,-.5"/>
<text text-anchor="middle" x="2195.5" y="-7.5" font-family="Helvetica,sans-Serif" font-size="10.00" fill="#000000">EpetraExt_RowMatrixOut.h</text>
</g>
<!-- Node9&#45;&gt;Node31 -->
<g id="edge31" class="edge">
<title>Node9&#45;&gt;Node31</title>
<path fill="none" stroke="#191970" d="M1464.6984,-64.4283C1564.9254,-59.7875 1860.6097,-44.9489 2116.4455,-20.1536"/>
<polygon fill="#191970" stroke="#191970" points="2117.0649,-23.6099 2126.6773,-19.1545 2116.3845,-16.643 2117.0649,-23.6099"/>
</g>
<!-- Node32 -->
<g id="node33" class="node">
<title>Node32</title>
<polygon fill="#ffffff" stroke="#bfbfbf" points="2282,-.5 2282,-19.5 2421,-19.5 2421,-.5 2282,-.5"/>
<text text-anchor="middle" x="2351.5" y="-7.5" font-family="Helvetica,sans-Serif" font-size="10.00" fill="#000000">EpetraExt_MultiVectorOut.h</text>
</g>
<!-- Node9&#45;&gt;Node32 -->
<g id="edge32" class="edge">
<title>Node9&#45;&gt;Node32</title>
<path fill="none" stroke="#191970" d="M1464.5391,-65.0079C1578.9737,-61.5738 1952.2611,-48.8421 2271.4094,-20.1348"/>
<polygon fill="#191970" stroke="#191970" points="2272.1435,-23.5827 2281.7866,-19.1939 2271.5114,-16.6113 2272.1435,-23.5827"/>
</g>
<!-- Node33 -->
<g id="node34" class="node">
<title>Node33</title>
<polygon fill="#ffffff" stroke="#bfbfbf" points="2439.5,-.5 2439.5,-19.5 2549.5,-19.5 2549.5,-.5 2439.5,-.5"/>
<text text-anchor="middle" x="2494.5" y="-7.5" font-family="Helvetica,sans-Serif" font-size="10.00" fill="#000000">EpetraExt_VectorIn.h</text>
</g>
<!-- Node9&#45;&gt;Node33 -->
<g id="edge33" class="edge">
<title>Node9&#45;&gt;Node33</title>
<path fill="none" stroke="#191970" d="M1464.62,-65.7705C1592.516,-64.6438 2045.5349,-58.1079 2429.2019,-20.022"/>
<polygon fill="#191970" stroke="#191970" points="2429.7898,-23.4807 2439.3912,-19.0014 2429.0921,-16.5155 2429.7898,-23.4807"/>
</g>
<!-- Node35 -->
<g id="node35" class="node">
<title>Node35</title>
<polygon fill="#ffffff" stroke="#bfbfbf" points="2703.5,-.5 2703.5,-19.5 2803.5,-19.5 2803.5,-.5 2703.5,-.5"/>
<text text-anchor="middle" x="2753.5" y="-7.5" font-family="Helvetica,sans-Serif" font-size="10.00" fill="#000000">Teuchos_RCP.hpp</text>
</g>
<!-- Node9&#45;&gt;Node35 -->
<g id="edge34" class="edge">
<title>Node9&#45;&gt;Node35</title>
<path fill="none" stroke="#191970" d="M1464.6749,-65.3474C1640.5058,-61.9908 2425.9319,-45.8591 2693.2949,-19.9653"/>
<polygon fill="#191970" stroke="#191970" points="2693.7464,-23.4377 2703.3492,-18.9616 2693.051,-16.4723 2693.7464,-23.4377"/>
</g>
<!-- Node42 -->
<g id="node37" class="node">
<title>Node42</title>
<g id="a_node37"><a xlink:href="../../d3/dd8/linear_finite_element_problem_8hpp.html" target="_top" xlink:title="linearFiniteElementProblem.hpp">
<polygon fill="#ffffff" stroke="#000000" points="1274,-224.5 1274,-243.5 1429,-243.5 1429,-224.5 1274,-224.5"/>
<text text-anchor="middle" x="1351.5" y="-231.5" font-family="Helvetica,sans-Serif" font-size="10.00" fill="#000000">linearFiniteElementProblem.hpp</text>
</a>
</g>
</g>
<!-- Node41&#45;&gt;Node42 -->
<g id="edge36" class="edge">
<title>Node41&#45;&gt;Node42</title>
<path fill="none" stroke="#191970" d="M1348.9688,-285.8906C1349.3846,-277.3657 1350.0054,-264.6392 1350.5281,-253.9235"/>
<polygon fill="#191970" stroke="#191970" points="1354.0332,-253.9035 1351.0246,-243.7449 1347.0415,-253.5624 1354.0332,-253.9035"/>
</g>
<!-- Node43 -->
<g id="node38" class="node">
<title>Node43</title>
<g id="a_node38"><a xlink:href="../../dd/d80/base_class_f_e_m_8hpp.html" target="_top" xlink:title="baseClassFEM.hpp">
<polygon fill="#ffffff" stroke="#000000" points="1338,-112.5 1338,-131.5 1441,-131.5 1441,-112.5 1338,-112.5"/>
<text text-anchor="middle" x="1389.5" y="-119.5" font-family="Helvetica,sans-Serif" font-size="10.00" fill="#000000">baseClassFEM.hpp</text>
</a>
</g>
</g>
<!-- Node42&#45;&gt;Node43 -->
<g id="edge37" class="edge">
<title>Node42&#45;&gt;Node43</title>
<path fill="none" stroke="#191970" d="M1354.7402,-224.1466C1358.9962,-211.2349 1366.7249,-187.8939 1373.5,-168 1376.5283,-159.1081 1379.9414,-149.2709 1382.835,-140.9833"/>
<polygon fill="#191970" stroke="#191970" points="1386.1533,-142.0972 1386.1545,-131.5024 1379.5465,-139.784 1386.1533,-142.0972"/>
</g>
<!-- Node43&#45;&gt;Node9 -->
<g id="edge38" class="edge">
<title>Node43&#45;&gt;Node9</title>
<path fill="none" stroke="#191970" d="M1396.4675,-112.2455C1402.0311,-104.4564 1409.978,-93.3308 1416.6829,-83.9439"/>
<polygon fill="#191970" stroke="#191970" points="1419.648,-85.8144 1422.6124,-75.6427 1413.9519,-81.7457 1419.648,-85.8144"/>
</g>
<!-- Node45 -->
<g id="node40" class="node">
<title>Node45</title>
<g id="a_node40"><a xlink:href="../../d2/d34/hyperelasticity_8hpp.html" target="_top" xlink:title="hyperelasticity.hpp">
<polygon fill="#ffffff" stroke="#000000" points="1449.5,-224.5 1449.5,-243.5 1547.5,-243.5 1547.5,-224.5 1449.5,-224.5"/>
<text text-anchor="middle" x="1498.5" y="-231.5" font-family="Helvetica,sans-Serif" font-size="10.00" fill="#000000">hyperelasticity.hpp</text>
</a>
</g>
</g>
<!-- Node44&#45;&gt;Node45 -->
<g id="edge40" class="edge">
<title>Node44&#45;&gt;Node45</title>
<path fill="none" stroke="#191970" d="M1501.0313,-285.8906C1500.6154,-277.3657 1499.9946,-264.6392 1499.4719,-253.9235"/>
<polygon fill="#191970" stroke="#191970" points="1502.9585,-253.5624 1498.9754,-243.7449 1495.9668,-253.9035 1502.9585,-253.5624"/>
</g>
<!-- Node46 -->
<g id="node41" class="node">
<title>Node46</title>
<g id="a_node41"><a xlink:href="../../da/da3/non_linear_finite_element_problem_8hpp.html" target="_top" xlink:title="nonLinearFiniteElementProblem.hpp">
<polygon fill="#ffffff" stroke="#000000" points="1383,-168.5 1383,-187.5 1556,-187.5 1556,-168.5 1383,-168.5"/>
<text text-anchor="middle" x="1469.5" y="-175.5" font-family="Helvetica,sans-Serif" font-size="10.00" fill="#000000">nonLinearFiniteElementProblem.hpp</text>
</a>
</g>
</g>
<!-- Node45&#45;&gt;Node46 -->
<g id="edge41" class="edge">
<title>Node45&#45;&gt;Node46</title>
<path fill="none" stroke="#191970" d="M1493.4486,-224.2455C1489.4981,-216.617 1483.8903,-205.7881 1479.0942,-196.5267"/>
<polygon fill="#191970" stroke="#191970" points="1482.2001,-194.9131 1474.4935,-187.6427 1475.9841,-198.1321 1482.2001,-194.9131"/>
</g>
<!-- Node46&#45;&gt;Node9 -->
<g id="edge42" class="edge">
<title>Node46&#45;&gt;Node9</title>
<path fill="none" stroke="#191970" d="M1466.9909,-168.487C1463.4961,-155.5571 1456.7688,-131.7789 1449.5,-112 1446.1685,-102.9347 1441.9699,-93.0906 1438.2807,-84.8438"/>
<polygon fill="#191970" stroke="#191970" points="1441.4608,-83.3818 1434.126,-75.7365 1435.0922,-86.2872 1441.4608,-83.3818"/>
</g>
<!-- Node46&#45;&gt;Node43 -->
<g id="edge43" class="edge">
<title>Node46&#45;&gt;Node43</title>
<path fill="none" stroke="#191970" d="M1455.5651,-168.2455C1443.4053,-159.7337 1425.5536,-147.2375 1411.4715,-137.3801"/>
<polygon fill="#191970" stroke="#191970" points="1413.4747,-134.51 1403.2752,-131.6427 1409.4605,-140.2447 1413.4747,-134.51"/>
</g>
<!-- Node47&#45;&gt;Node4 -->
<g id="edge53" class="edge">
<title>Node47&#45;&gt;Node4</title>
<path fill="none" stroke="#191970" d="M2268.2557,-357.7239C2179.293,-349.5393 1994.8693,-331.6996 1839.5,-311 1829.6108,-309.6825 1819.176,-308.1577 1808.9614,-306.5892"/>
<polygon fill="#191970" stroke="#191970" points="1809.2684,-303.0949 1798.8485,-305.0122 1808.1898,-310.0113 1809.2684,-303.0949"/>
</g>
<!-- Node47&#45;&gt;Node5 -->
<g id="edge54" class="edge">
<title>Node47&#45;&gt;Node5</title>
<path fill="none" stroke="#191970" d="M2268.366,-354.6562C2204.1022,-345.0305 2092.6948,-327.8987 1997.5,-311 1990.4042,-309.7404 1982.9619,-308.3593 1975.6005,-306.9569"/>
<polygon fill="#191970" stroke="#191970" points="1976.1342,-303.4955 1965.6526,-305.0407 1974.8101,-310.3691 1976.1342,-303.4955"/>
</g>
<!-- Node47&#45;&gt;Node6 -->
<g id="edge55" class="edge">
<title>Node47&#45;&gt;Node6</title>
<path fill="none" stroke="#191970" d="M2286.6577,-352.9717C2248.9166,-342.6507 2187.8641,-325.9547 2141.2641,-313.211"/>
<polygon fill="#191970" stroke="#191970" points="2142.1222,-309.8172 2131.5531,-310.5553 2140.2757,-316.5693 2142.1222,-309.8172"/>
</g>
<!-- Node47&#45;&gt;Node35 -->
<g id="edge46" class="edge">
<title>Node47&#45;&gt;Node35</title>
<path fill="none" stroke="#191970" d="M2350.4114,-352.9252C2370.4601,-344.8263 2396.2095,-331.261 2411.5,-311 2432.7333,-282.8643 2430.5,-269.2487 2430.5,-234 2430.5,-234 2430.5,-234 2430.5,-122 2430.5,-93.4321 2613.1966,-44.485 2703.785,-21.9709"/>
<polygon fill="#191970" stroke="#191970" points="2704.7016,-25.3498 2713.5699,-19.5529 2703.0222,-18.5542 2704.7016,-25.3498"/>
</g>
<!-- Node47&#45;&gt;Node46 -->
<g id="edge45" class="edge">
<title>Node47&#45;&gt;Node46</title>
<path fill="none" stroke="#191970" d="M2291.1135,-352.9349C2264.6483,-343.9703 2225.7318,-329.2333 2194.5,-311 2175.3781,-299.8365 2175.8104,-288.818 2155.5,-280 2101.7615,-256.6687 1733.2416,-209.8591 1559.6225,-188.7546"/>
<polygon fill="#191970" stroke="#191970" points="1559.8317,-185.2544 1549.4829,-187.5244 1558.9885,-192.2035 1559.8317,-185.2544"/>
</g>
<!-- Node48 -->
<g id="node43" class="node">
<title>Node48</title>
<polygon fill="#ffffff" stroke="#bfbfbf" points="2350.5,-286 2350.5,-305 2402.5,-305 2402.5,-286 2350.5,-286"/>
<text text-anchor="middle" x="2376.5" y="-293" font-family="Helvetica,sans-Serif" font-size="10.00" fill="#000000">Ifpack.h</text>
</g>
<!-- Node47&#45;&gt;Node48 -->
<g id="edge47" class="edge">
<title>Node47&#45;&gt;Node48</title>
<path fill="none" stroke="#191970" d="M2329.3802,-352.9005C2337.8752,-342.552 2351.5824,-325.8542 2362.028,-313.1295"/>
<polygon fill="#191970" stroke="#191970" points="2364.9947,-315.0317 2368.6345,-305.0817 2359.5842,-310.5902 2364.9947,-315.0317"/>
</g>
<!-- Node49 -->
<g id="node44" class="node">
<title>Node49</title>
<polygon fill="#ffffff" stroke="#bfbfbf" points="2459,-286 2459,-305 2590,-305 2590,-286 2459,-286"/>
<text text-anchor="middle" x="2524.5" y="-293" font-family="Helvetica,sans-Serif" font-size="10.00" fill="#000000">Ifpack_AdditiveSchwarz.h</text>
</g>
<!-- Node47&#45;&gt;Node49 -->
<g id="edge48" class="edge">
<title>Node47&#45;&gt;Node49</title>
<path fill="none" stroke="#191970" d="M2350.585,-352.9005C2386.1604,-341.1589 2446.5008,-321.2436 2485.9245,-308.2318"/>
<polygon fill="#191970" stroke="#191970" points="2487.0698,-311.5396 2495.469,-305.0817 2484.8759,-304.8923 2487.0698,-311.5396"/>
</g>
<!-- Node50 -->
<g id="node45" class="node">
<title>Node50</title>
<polygon fill="#ffffff" stroke="#bfbfbf" points="2608.5,-286 2608.5,-305 2730.5,-305 2730.5,-286 2608.5,-286"/>
<text text-anchor="middle" x="2669.5" y="-293" font-family="Helvetica,sans-Serif" font-size="10.00" fill="#000000">BelosLinearProblem.hpp</text>
</g>
<!-- Node47&#45;&gt;Node50 -->
<g id="edge49" class="edge">
<title>Node47&#45;&gt;Node50</title>
<path fill="none" stroke="#191970" d="M2357.4513,-352.9959C2365.9616,-350.8896 2375.0271,-348.7623 2383.5,-347 2478.7851,-327.1819 2503.9555,-329.5268 2599.5,-311 2605.5945,-309.8182 2611.9712,-308.5086 2618.2889,-307.1658"/>
<polygon fill="#191970" stroke="#191970" points="2619.0837,-310.5749 2628.119,-305.042 2617.6054,-303.7328 2619.0837,-310.5749"/>
</g>
<!-- Node51 -->
<g id="node46" class="node">
<title>Node51</title>
<polygon fill="#ffffff" stroke="#bfbfbf" points="2749,-286 2749,-305 2894,-305 2894,-286 2749,-286"/>
<text text-anchor="middle" x="2821.5" y="-293" font-family="Helvetica,sans-Serif" font-size="10.00" fill="#000000">BelosBlockGmresSolMgr.hpp</text>
</g>
<!-- Node47&#45;&gt;Node51 -->
<g id="edge50" class="edge">
<title>Node47&#45;&gt;Node51</title>
<path fill="none" stroke="#191970" d="M2356.0703,-352.9212C2364.9555,-350.7178 2374.5376,-348.565 2383.5,-347 2540.1586,-319.6438 2582.1123,-333.7898 2739.5,-311 2747.7447,-309.8062 2756.4226,-308.3667 2764.9232,-306.8521"/>
<polygon fill="#191970" stroke="#191970" points="2765.5762,-310.2908 2774.784,-305.0498 2764.3176,-303.4048 2765.5762,-310.2908"/>
</g>
<!-- Node52 -->
<g id="node47" class="node">
<title>Node52</title>
<polygon fill="#ffffff" stroke="#bfbfbf" points="2912.5,-286 2912.5,-305 3034.5,-305 3034.5,-286 2912.5,-286"/>
<text text-anchor="middle" x="2973.5" y="-293" font-family="Helvetica,sans-Serif" font-size="10.00" fill="#000000">BelosEpetraAdapter.hpp</text>
</g>
<!-- Node47&#45;&gt;Node52 -->
<g id="edge51" class="edge">
<title>Node47&#45;&gt;Node52</title>
<path fill="none" stroke="#191970" d="M2355.0651,-352.966C2364.2208,-350.6793 2374.1852,-348.475 2383.5,-347 2612.3132,-310.7666 2674.2174,-344.1336 2903.5,-311 2910.6143,-309.9719 2918.0811,-308.6189 2925.3793,-307.1398"/>
<polygon fill="#191970" stroke="#191970" points="2926.1206,-310.5605 2935.1779,-305.0635 2924.6695,-303.7126 2926.1206,-310.5605"/>
</g>
<!-- Node53 -->
<g id="node48" class="node">
<title>Node53</title>
<polygon fill="#ffffff" stroke="#bfbfbf" points="3053,-286 3053,-305 3174,-305 3174,-286 3053,-286"/>
<text text-anchor="middle" x="3113.5" y="-293" font-family="Helvetica,sans-Serif" font-size="10.00" fill="#000000">BelosSolverFactory.hpp</text>
</g>
<!-- Node47&#45;&gt;Node53 -->
<g id="edge52" class="edge">
<title>Node47&#45;&gt;Node53</title>
<path fill="none" stroke="#191970" d="M2354.7282,-352.9555C2363.9721,-350.6397 2374.0649,-348.4234 2383.5,-347 2673.9823,-303.1766 2752.4513,-350.8884 3043.5,-311 3050.7912,-310.0007 3058.4484,-308.6363 3065.9136,-307.1286"/>
<polygon fill="#191970" stroke="#191970" points="3066.8664,-310.5044 3075.922,-305.0047 3065.4132,-303.6569 3066.8664,-310.5044"/>
</g>
<!-- Node54 -->
<g id="node49" class="node">
<title>Node54</title>
<polygon fill="#ffffff" stroke="#bfbfbf" points="2203,-280.5 2203,-310.5 2332,-310.5 2332,-280.5 2203,-280.5"/>
<text text-anchor="start" x="2211" y="-298.5" font-family="Helvetica,sans-Serif" font-size="10.00" fill="#000000">Stratimikos_DefaultLinear</text>
<text text-anchor="middle" x="2267.5" y="-287.5" font-family="Helvetica,sans-Serif" font-size="10.00" fill="#000000">SolverBuilder.hpp</text>
</g>
<!-- Node47&#45;&gt;Node54 -->
<g id="edge56" class="edge">
<title>Node47&#45;&gt;Node54</title>
<path fill="none" stroke="#191970" d="M2313.7631,-352.9005C2306.5822,-343.9908 2295.608,-330.3748 2286.1501,-318.6399"/>
<polygon fill="#191970" stroke="#191970" points="2288.6075,-316.1114 2279.6071,-310.5218 2283.1573,-320.5041 2288.6075,-316.1114"/>
</g>
</g>
</svg>
        <g id="navigator" transform="translate(0 0)" fill="#404254">
                <rect fill="#f2f5e9" fill-opacity="0.5" stroke="#606060" stroke-width=".5" x="0" y="0" width="60" height="60"/>
                <use id="zoomplus" xlink:href="#zoomPlus" x="17" y="9" onmousedown="handleZoom(evt,'in')"/>
                <use id="zoomminus" xlink:href="#zoomMin" x="42" y="9" onmousedown="handleZoom(evt,'out')"/>
                <use id="reset" xlink:href="#resetDef" x="30" y="36" onmousedown="handleReset()"/>
                <g id="arrowUp" xlink:href="#dirArrow" transform="translate(30 24)" onmousedown="handlePan(0,-1)">
                  <use xlink:href="#rim" fill="#404040">
                        <set attributeName="fill" to="#808080" begin="arrowUp.mouseover" end="arrowUp.mouseout"/>
                  </use>
                  <path fill="none" stroke="white" stroke-width="1.5" d="M0,-3.0v7 M-2.5,-0.5L0,-3.0L2.5,-0.5"/>
                </g>
                <g id="arrowRight" xlink:href="#dirArrow" transform="rotate(90) translate(36 -43)" onmousedown="handlePan(1,0)">
                  <use xlink:href="#rim" fill="#404040">
                        <set attributeName="fill" to="#808080" begin="arrowRight.mouseover" end="arrowRight.mouseout"/>
                  </use>
                  <path fill="none" stroke="white" stroke-width="1.5" d="M0,-3.0v7 M-2.5,-0.5L0,-3.0L2.5,-0.5"/>
                </g>
                <g id="arrowDown" xlink:href="#dirArrow" transform="rotate(180) translate(-30 -48)" onmousedown="handlePan(0,1)">
                  <use xlink:href="#rim" fill="#404040">
                        <set attributeName="fill" to="#808080" begin="arrowDown.mouseover" end="arrowDown.mouseout"/>
                  </use>
                  <path fill="none" stroke="white" stroke-width="1.5" d="M0,-3.0v7 M-2.5,-0.5L0,-3.0L2.5,-0.5"/>
                </g>
                <g id="arrowLeft" xlink:href="#dirArrow" transform="rotate(270) translate(-36 17)" onmousedown="handlePan(-1,0)">
                  <use xlink:href="#rim" fill="#404040">
                        <set attributeName="fill" to="#808080" begin="arrowLeft.mouseover" end="arrowLeft.mouseout"/>
                  </use>
                  <path fill="none" stroke="white" stroke-width="1.5" d="M0,-3.0v7 M-2.5,-0.5L0,-3.0L2.5,-0.5"/>
                </g>
        </g>
        <svg viewBox="0 0 15 15" width="100%" height="30px" preserveAspectRatio="xMaxYMin meet">
         <g id="arrow_out" transform="scale(0.3 0.3)">
          <a xlink:href="arteries_2vonmises_2main_8cpp__incl_org.svg" target="_base">
           <rect id="button" ry="5" rx="5" y="6" x="6" height="38" width="38"
                fill="#f2f5e9" fill-opacity="0.5" stroke="#606060" stroke-width="1.0"/>
           <path id="arrow"
             d="M 11.500037,31.436501 C 11.940474,20.09759 22.043105,11.32322 32.158766,21.979434 L 37.068811,17.246167 C 37.068811,17.246167 37.088388,32 37.088388,32 L 22.160133,31.978069 C 22.160133,31.978069 26.997745,27.140456 26.997745,27.140456 C 18.528582,18.264221 13.291696,25.230495 11.500037,31.436501 z"
             style="fill:#404040;"/>
          </a>
         </g>
        </svg>
</svg>
