<?xml version="1.0" encoding="UTF-8" standalone="no"?>
<!DOCTYPE svg PUBLIC "-//W3C//DTD SVG 1.1//EN"
 "http://www.w3.org/Graphics/SVG/1.1/DTD/svg11.dtd">
<!-- Generated by graphviz version 2.40.1 (20161225.0304)
 -->
<!-- Title: arteries/vonmises/main.cpp Pages: 1 -->
<svg width="3166pt" height="453pt"
 viewBox="0.00 0.00 3166.00 453.00" xmlns="http://www.w3.org/2000/svg" xmlns:xlink="http://www.w3.org/1999/xlink">
<g id="graph0" class="graph" transform="scale(1 1) rotate(0) translate(4 449)">
<title>arteries/vonmises/main.cpp</title>
<polygon fill="#ffffff" stroke="transparent" points="-4,4 -4,-449 3162,-449 3162,4 -4,4"/>
<!-- Node0 -->
<g id="node1" class="node">
<title>Node0</title>
<polygon fill="#bfbfbf" stroke="#000000" points="1727,-425.5 1727,-444.5 1864,-444.5 1864,-425.5 1727,-425.5"/>
<text text-anchor="middle" x="1795.5" y="-432.5" font-family="Helvetica,sans-Serif" font-size="10.00" fill="#000000">arteries/vonmises/main.cpp</text>
</g>
<!-- Node1 -->
<g id="node2" class="node">
<title>Node1</title>
<polygon fill="#ffffff" stroke="#bfbfbf" points="1192.5,-364 1192.5,-383 1300.5,-383 1300.5,-364 1192.5,-364"/>
<text text-anchor="middle" x="1246.5" y="-371" font-family="Helvetica,sans-Serif" font-size="10.00" fill="#000000">Epetra_ConfigDefs.h</text>
</g>
<!-- Node0&#45;&gt;Node1 -->
<g id="edge1" class="edge">
<title>Node0&#45;&gt;Node1</title>
<path fill="none" stroke="#191970" d="M1726.6722,-431.6749C1632.1208,-426.3832 1456.9863,-413.9838 1309.5,-389 1303.595,-387.9997 1297.4252,-386.7463 1291.3552,-385.388"/>
<polygon fill="#191970" stroke="#191970" points="1291.8336,-381.9053 1281.2986,-383.0293 1290.2352,-388.7204 1291.8336,-381.9053"/>
</g>
<!-- Node2 -->
<g id="node3" class="node">
<title>Node2</title>
<polygon fill="#ffffff" stroke="#bfbfbf" points="1319,-364 1319,-383 1432,-383 1432,-364 1319,-364"/>
<text text-anchor="middle" x="1375.5" y="-371" font-family="Helvetica,sans-Serif" font-size="10.00" fill="#000000">Epetra_SerialComm.h</text>
</g>
<!-- Node0&#45;&gt;Node2 -->
<g id="edge2" class="edge">
<title>Node0&#45;&gt;Node2</title>
<path fill="none" stroke="#191970" d="M1726.7806,-428.2632C1655.0244,-420.7227 1539.3724,-407.1424 1440.5,-389 1434.6521,-387.9269 1428.5405,-386.6623 1422.5052,-385.3258"/>
<polygon fill="#191970" stroke="#191970" points="1423.0094,-381.8507 1412.4804,-383.0299 1421.4466,-388.6741 1423.0094,-381.8507"/>
</g>
<!-- Node3 -->
<g id="node4" class="node">
<title>Node3</title>
<polygon fill="#ffffff" stroke="#bfbfbf" points="1450,-364 1450,-383 1635,-383 1635,-364 1450,-364"/>
<text text-anchor="middle" x="1542.5" y="-371" font-family="Helvetica,sans-Serif" font-size="10.00" fill="#000000">Teuchos_CommandLineProcessor.hpp</text>
</g>
<!-- Node0&#45;&gt;Node3 -->
<g id="edge3" class="edge">
<title>Node0&#45;&gt;Node3</title>
<path fill="none" stroke="#191970" d="M1756.2463,-425.4581C1711.9306,-414.6857 1639.7624,-397.1428 1591.714,-385.4631"/>
<polygon fill="#191970" stroke="#191970" points="1592.3895,-382.0254 1581.8457,-383.0643 1590.736,-388.8274 1592.3895,-382.0254"/>
</g>
<!-- Node4 -->
<g id="node5" class="node">
<title>Node4</title>
<polygon fill="#ffffff" stroke="#bfbfbf" points="1638.5,-297 1638.5,-316 1814.5,-316 1814.5,-297 1638.5,-297"/>
<text text-anchor="middle" x="1726.5" y="-304" font-family="Helvetica,sans-Serif" font-size="10.00" fill="#000000">Teuchos_StandardCatchMacros.hpp</text>
</g>
<!-- Node0&#45;&gt;Node4 -->
<g id="edge4" class="edge">
<title>Node0&#45;&gt;Node4</title>
<path fill="none" stroke="#191970" d="M1794.752,-425.4116C1793.226,-410.2416 1788.7854,-380.1569 1776.5,-358 1769.0616,-344.5847 1757.2163,-332.1636 1746.922,-322.8822"/>
<polygon fill="#191970" stroke="#191970" points="1748.9727,-320.0291 1739.1124,-316.1528 1744.4033,-325.332 1748.9727,-320.0291"/>
</g>
<!-- Node5 -->
<g id="node6" class="node">
<title>Node5</title>
<polygon fill="#ffffff" stroke="#bfbfbf" points="1833,-297 1833,-316 1972,-316 1972,-297 1833,-297"/>
<text text-anchor="middle" x="1902.5" y="-304" font-family="Helvetica,sans-Serif" font-size="10.00" fill="#000000">Teuchos_ParameterList.hpp</text>
</g>
<!-- Node0&#45;&gt;Node5 -->
<g id="edge5" class="edge">
<title>Node0&#45;&gt;Node5</title>
<path fill="none" stroke="#191970" d="M1803.5424,-425.3416C1821.4354,-403.8533 1864.7614,-351.8216 1887.6935,-324.2817"/>
<polygon fill="#191970" stroke="#191970" points="1890.655,-326.1948 1894.3643,-316.2705 1885.2757,-321.7155 1890.655,-326.1948"/>
</g>
<!-- Node6 -->
<g id="node7" class="node">
<title>Node6</title>
<polygon fill="#ffffff" stroke="#bfbfbf" points="1990.5,-291.5 1990.5,-321.5 2130.5,-321.5 2130.5,-291.5 1990.5,-291.5"/>
<text text-anchor="start" x="1998.5" y="-309.5" font-family="Helvetica,sans-Serif" font-size="10.00" fill="#000000">Teuchos_XMLParameterList</text>
<text text-anchor="middle" x="2060.5" y="-298.5" font-family="Helvetica,sans-Serif" font-size="10.00" fill="#000000">CoreHelpers.hpp</text>
</g>
<!-- Node0&#45;&gt;Node6 -->
<g id="edge6" class="edge">
<title>Node0&#45;&gt;Node6</title>
<path fill="none" stroke="#191970" d="M1815.4181,-425.3416C1858.7461,-404.3316 1962.2892,-354.123 2019.963,-326.1566"/>
<polygon fill="#191970" stroke="#191970" points="2021.6795,-329.2141 2029.1504,-321.7016 2018.6253,-322.9155 2021.6795,-329.2141"/>
</g>
<!-- Node7 -->
<g id="node8" class="node">
<title>Node7</title>
<g id="a_node8"><a xlink:href="../../da/ddf/_neumann_inner_surface___polyconvex_h_g_o_8hpp.html" target="_top" xlink:title="NeumannInnerSurface\l_PolyconvexHGO.hpp">
<polygon fill="#ffffff" stroke="#000000" points="1653.5,-358.5 1653.5,-388.5 1767.5,-388.5 1767.5,-358.5 1653.5,-358.5"/>
<text text-anchor="start" x="1661.5" y="-376.5" font-family="Helvetica,sans-Serif" font-size="10.00" fill="#000000">NeumannInnerSurface</text>
<text text-anchor="middle" x="1710.5" y="-365.5" font-family="Helvetica,sans-Serif" font-size="10.00" fill="#000000">_PolyconvexHGO.hpp</text>
</a>
</g>
</g>
<!-- Node0&#45;&gt;Node7 -->
<g id="edge7" class="edge">
<title>Node0&#45;&gt;Node7</title>
<path fill="none" stroke="#191970" d="M1782.2188,-425.3906C1770.8216,-417.1444 1753.9908,-404.9669 1739.4977,-394.4807"/>
<polygon fill="#191970" stroke="#191970" points="1741.4468,-391.5709 1731.2933,-388.5446 1737.3435,-397.2421 1741.4468,-391.5709"/>
</g>
<!-- Node47 -->
<g id="node42" class="node">
<title>Node47</title>
<g id="a_node42"><a xlink:href="../../d7/d17/_newton___raphsonpp_8hpp.html" target="_top" xlink:title="Newton_Raphsonpp.hpp">
<polygon fill="#ffffff" stroke="#000000" points="2243.5,-364 2243.5,-383 2367.5,-383 2367.5,-364 2243.5,-364"/>
<text text-anchor="middle" x="2305.5" y="-371" font-family="Helvetica,sans-Serif" font-size="10.00" fill="#000000">Newton_Raphsonpp.hpp</text>
</a>
</g>
</g>
<!-- Node0&#45;&gt;Node47 -->
<g id="edge44" class="edge">
<title>Node0&#45;&gt;Node47</title>
<path fill="none" stroke="#191970" d="M1864.0161,-426.7378C1960.3074,-415.1262 2134.8666,-394.0764 2233.1744,-382.2216"/>
<polygon fill="#191970" stroke="#191970" points="2233.8092,-385.6705 2243.3182,-380.9984 2232.9711,-378.7209 2233.8092,-385.6705"/>
</g>
<!-- Node55 -->
<g id="node50" class="node">
<title>Node55</title>
<polygon fill="#ffffff" stroke="#bfbfbf" points="2385.5,-358.5 2385.5,-388.5 2501.5,-388.5 2501.5,-358.5 2385.5,-358.5"/>
<text text-anchor="start" x="2393.5" y="-376.5" font-family="Helvetica,sans-Serif" font-size="10.00" fill="#000000">boost/math/special</text>
<text text-anchor="middle" x="2443.5" y="-365.5" font-family="Helvetica,sans-Serif" font-size="10.00" fill="#000000">_functions/gamma.hpp</text>
</g>
<!-- Node0&#45;&gt;Node55 -->
<g id="edge57" class="edge">
<title>Node0&#45;&gt;Node55</title>
<path fill="none" stroke="#191970" d="M1864.3039,-432.8549C1971.587,-428.7824 2185.2884,-417.7537 2375.593,-388.9895"/>
<polygon fill="#191970" stroke="#191970" points="2376.1425,-392.4462 2385.4976,-387.473 2375.083,-385.5269 2376.1425,-392.4462"/>
</g>
<!-- Node8 -->
<g id="node9" class="node">
<title>Node8</title>
<g id="a_node9"><a xlink:href="../../de/d49/tensor__calculus_8hpp.html" target="_top" xlink:title="tensor_calculus.hpp">
<polygon fill="#ffffff" stroke="#000000" points="1558.5,-168.5 1558.5,-187.5 1662.5,-187.5 1662.5,-168.5 1558.5,-168.5"/>
<text text-anchor="middle" x="1610.5" y="-175.5" font-family="Helvetica,sans-Serif" font-size="10.00" fill="#000000">tensor_calculus.hpp</text>
</a>
</g>
</g>
<!-- Node7&#45;&gt;Node8 -->
<g id="edge8" class="edge">
<title>Node7&#45;&gt;Node8</title>
<path fill="none" stroke="#191970" d="M1672.8123,-358.3255C1656.8967,-349.9803 1639.7167,-338.016 1629.5,-322 1604.9568,-283.5253 1605.6192,-227.4832 1608.1153,-197.9402"/>
<polygon fill="#191970" stroke="#191970" points="1611.629,-197.9802 1609.1516,-187.6791 1604.6644,-197.2768 1611.629,-197.9802"/>
</g>
<!-- Node41 -->
<g id="node36" class="node">
<title>Node41</title>
<g id="a_node36"><a xlink:href="../../d5/d3f/laplacepp_8hpp.html" target="_top" xlink:title="laplacepp.hpp">
<polygon fill="#ffffff" stroke="#000000" points="1294,-297 1294,-316 1371,-316 1371,-297 1294,-297"/>
<text text-anchor="middle" x="1332.5" y="-304" font-family="Helvetica,sans-Serif" font-size="10.00" fill="#000000">laplacepp.hpp</text>
</a>
</g>
</g>
<!-- Node7&#45;&gt;Node41 -->
<g id="edge35" class="edge">
<title>Node7&#45;&gt;Node41</title>
<path fill="none" stroke="#191970" d="M1653.19,-359.8772C1649.9178,-359.2131 1646.6707,-358.5817 1643.5,-358 1527.0246,-336.6322 1494.8802,-348.6557 1379.5,-322 1375.8532,-321.1575 1372.0865,-320.1529 1368.3464,-319.0658"/>
<polygon fill="#191970" stroke="#191970" points="1369.1966,-315.6651 1358.6088,-316.0499 1367.1257,-322.3518 1369.1966,-315.6651"/>
</g>
<!-- Node44 -->
<g id="node39" class="node">
<title>Node44</title>
<g id="a_node39"><a xlink:href="../../dc/de0/nearly_incompressible_hyperelasticity_8hpp.html" target="_top" xlink:title="nearlyIncompressibleHyperelasticity.hpp">
<polygon fill="#ffffff" stroke="#000000" points="1389,-297 1389,-316 1582,-316 1582,-297 1389,-297"/>
<text text-anchor="middle" x="1485.5" y="-304" font-family="Helvetica,sans-Serif" font-size="10.00" fill="#000000">nearlyIncompressibleHyperelasticity.hpp</text>
</a>
</g>
</g>
<!-- Node7&#45;&gt;Node44 -->
<g id="edge39" class="edge">
<title>Node7&#45;&gt;Node44</title>
<path fill="none" stroke="#191970" d="M1660.0056,-358.4639C1619.9238,-346.5284 1564.571,-330.0456 1527.0336,-318.8678"/>
<polygon fill="#191970" stroke="#191970" points="1528.0037,-315.5049 1517.4207,-316.0053 1526.0059,-322.2137 1528.0037,-315.5049"/>
</g>
<!-- Node9 -->
<g id="node10" class="node">
<title>Node9</title>
<g id="a_node10"><a xlink:href="../../d0/d02/meshpp_8hpp.html" target="_top" xlink:title="meshpp.hpp">
<polygon fill="#ffffff" stroke="#ff0000" points="1394.5,-56.5 1394.5,-75.5 1464.5,-75.5 1464.5,-56.5 1394.5,-56.5"/>
<text text-anchor="middle" x="1429.5" y="-63.5" font-family="Helvetica,sans-Serif" font-size="10.00" fill="#000000">meshpp.hpp</text>
</a>
</g>
</g>
<!-- Node8&#45;&gt;Node9 -->
<g id="edge9" class="edge">
<title>Node8&#45;&gt;Node9</title>
<path fill="none" stroke="#191970" d="M1595.068,-168.4509C1563.5436,-148.9441 1491.5462,-104.3932 1453.7263,-80.9909"/>
<polygon fill="#191970" stroke="#191970" points="1455.2383,-77.8106 1444.8929,-75.5249 1451.5549,-83.7631 1455.2383,-77.8106"/>
</g>
<!-- Node10 -->
<g id="node11" class="node">
<title>Node10</title>
<polygon fill="#ffffff" stroke="#bfbfbf" points="2567.5,-.5 2567.5,-19.5 2613.5,-19.5 2613.5,-.5 2567.5,-.5"/>
<text text-anchor="middle" x="2590.5" y="-7.5" font-family="Helvetica,sans-Serif" font-size="10.00" fill="#000000">stdio.h</text>
</g>
<!-- Node9&#45;&gt;Node10 -->
<g id="edge10" class="edge">
<title>Node9&#45;&gt;Node10</title>
<path fill="none" stroke="#191970" d="M1464.7548,-65.8051C1628.9945,-64.7102 2320.7158,-57.9863 2557.3435,-19.7072"/>
<polygon fill="#191970" stroke="#191970" points="2557.9755,-23.1501 2567.2554,-18.0381 2556.813,-16.2473 2557.9755,-23.1501"/>
</g>
<!-- Node11 -->
<g id="node12" class="node">
<title>Node11</title>
<polygon fill="#ffffff" stroke="#bfbfbf" points="2631.5,-.5 2631.5,-19.5 2685.5,-19.5 2685.5,-.5 2631.5,-.5"/>
<text text-anchor="middle" x="2658.5" y="-7.5" font-family="Helvetica,sans-Serif" font-size="10.00" fill="#000000">iostream</text>
</g>
<!-- Node9&#45;&gt;Node11 -->
<g id="edge11" class="edge">
<title>Node9&#45;&gt;Node11</title>
<path fill="none" stroke="#191970" d="M1464.7034,-65.7449C1634.4684,-64.3487 2370.3168,-56.3616 2620.9853,-19.8453"/>
<polygon fill="#191970" stroke="#191970" points="2621.7631,-23.2675 2631.1267,-18.3103 2620.7155,-16.3463 2621.7631,-23.2675"/>
</g>
<!-- Node12 -->
<g id="node13" class="node">
<title>Node12</title>
<polygon fill="#ffffff" stroke="#bfbfbf" points="0,-.5 0,-19.5 49,-19.5 49,-.5 0,-.5"/>
<text text-anchor="middle" x="24.5" y="-7.5" font-family="Helvetica,sans-Serif" font-size="10.00" fill="#000000">istream</text>
</g>
<!-- Node9&#45;&gt;Node12 -->
<g id="edge12" class="edge">
<title>Node9&#45;&gt;Node12</title>
<path fill="none" stroke="#191970" d="M1394.4586,-65.3533C1197.8218,-61.6556 234.4448,-42.6055 59.174,-19.5096"/>
<polygon fill="#191970" stroke="#191970" points="59.6168,-16.0372 49.2157,-18.0537 58.6041,-22.9636 59.6168,-16.0372"/>
</g>
<!-- Node13 -->
<g id="node14" class="node">
<title>Node13</title>
<polygon fill="#ffffff" stroke="#bfbfbf" points="67.5,-.5 67.5,-19.5 117.5,-19.5 117.5,-.5 67.5,-.5"/>
<text text-anchor="middle" x="92.5" y="-7.5" font-family="Helvetica,sans-Serif" font-size="10.00" fill="#000000">fstream</text>
</g>
<!-- Node9&#45;&gt;Node13 -->
<g id="edge13" class="edge">
<title>Node9&#45;&gt;Node13</title>
<path fill="none" stroke="#191970" d="M1394.3067,-65.2846C1203.4035,-61.3353 294.8709,-41.6381 127.5241,-19.5965"/>
<polygon fill="#191970" stroke="#191970" points="127.9903,-16.1275 117.5886,-18.1414 126.9759,-23.0536 127.9903,-16.1275"/>
</g>
<!-- Node14 -->
<g id="node15" class="node">
<title>Node14</title>
<polygon fill="#ffffff" stroke="#bfbfbf" points="135.5,-.5 135.5,-19.5 179.5,-19.5 179.5,-.5 135.5,-.5"/>
<text text-anchor="middle" x="157.5" y="-7.5" font-family="Helvetica,sans-Serif" font-size="10.00" fill="#000000">vector</text>
</g>
<!-- Node9&#45;&gt;Node14 -->
<g id="edge14" class="edge">
<title>Node9&#45;&gt;Node14</title>
<path fill="none" stroke="#191970" d="M1394.437,-65.2752C1209.4639,-61.3762 349.7844,-42.2965 189.5839,-19.5319"/>
<polygon fill="#191970" stroke="#191970" points="190.0908,-16.0686 179.6656,-17.957 188.993,-22.982 190.0908,-16.0686"/>
</g>
<!-- Node15 -->
<g id="node16" class="node">
<title>Node15</title>
<polygon fill="#ffffff" stroke="#bfbfbf" points="197.5,-.5 197.5,-19.5 247.5,-19.5 247.5,-.5 197.5,-.5"/>
<text text-anchor="middle" x="222.5" y="-7.5" font-family="Helvetica,sans-Serif" font-size="10.00" fill="#000000">iomanip</text>
</g>
<!-- Node9&#45;&gt;Node15 -->
<g id="edge15" class="edge">
<title>Node9&#45;&gt;Node15</title>
<path fill="none" stroke="#191970" d="M1394.3121,-65.7891C1226.2796,-64.606 503.8912,-57.4853 257.5569,-19.7184"/>
<polygon fill="#191970" stroke="#191970" points="258.0167,-16.2476 247.5905,-18.1302 256.915,-23.1603 258.0167,-16.2476"/>
</g>
<!-- Node16 -->
<g id="node17" class="node">
<title>Node16</title>
<polygon fill="#ffffff" stroke="#bfbfbf" points="265.5,-.5 265.5,-19.5 369.5,-19.5 369.5,-.5 265.5,-.5"/>
<text text-anchor="middle" x="317.5" y="-7.5" font-family="Helvetica,sans-Serif" font-size="10.00" fill="#000000">Epetra_MpiComm.h</text>
</g>
<!-- Node9&#45;&gt;Node16 -->
<g id="edge16" class="edge">
<title>Node9&#45;&gt;Node16</title>
<path fill="none" stroke="#191970" d="M1394.4108,-65.0255C1237.901,-60.5941 601.8616,-41.6642 379.6385,-19.9757"/>
<polygon fill="#191970" stroke="#191970" points="379.9891,-16.4934 369.6887,-18.9738 379.2877,-23.4582 379.9891,-16.4934"/>
</g>
<!-- Node17 -->
<g id="node18" class="node">
<title>Node17</title>
<polygon fill="#ffffff" stroke="#bfbfbf" points="388,-.5 388,-19.5 501,-19.5 501,-.5 388,-.5"/>
<text text-anchor="middle" x="444.5" y="-7.5" font-family="Helvetica,sans-Serif" font-size="10.00" fill="#000000">Epetra_FECrsGraph.h</text>
</g>
<!-- Node9&#45;&gt;Node17 -->
<g id="edge17" class="edge">
<title>Node9&#45;&gt;Node17</title>
<path fill="none" stroke="#191970" d="M1394.3478,-65.5097C1273.203,-63.5525 861.7632,-54.6852 511.4222,-19.9894"/>
<polygon fill="#191970" stroke="#191970" points="511.6344,-16.4933 501.3359,-18.9817 510.9384,-23.4586 511.6344,-16.4933"/>
</g>
<!-- Node18 -->
<g id="node19" class="node">
<title>Node18</title>
<polygon fill="#ffffff" stroke="#bfbfbf" points="519.5,-.5 519.5,-19.5 633.5,-19.5 633.5,-.5 519.5,-.5"/>
<text text-anchor="middle" x="576.5" y="-7.5" font-family="Helvetica,sans-Serif" font-size="10.00" fill="#000000">Epetra_FECrsMatrix.h</text>
</g>
<!-- Node9&#45;&gt;Node18 -->
<g id="edge18" class="edge">
<title>Node9&#45;&gt;Node18</title>
<path fill="none" stroke="#191970" d="M1394.4985,-65.1025C1285.1369,-62.0554 939.9672,-50.5988 643.7694,-20.0437"/>
<polygon fill="#191970" stroke="#191970" points="644.0047,-16.5494 633.6961,-18.9952 643.2799,-23.5118 644.0047,-16.5494"/>
</g>
<!-- Node19 -->
<g id="node20" class="node">
<title>Node19</title>
<polygon fill="#ffffff" stroke="#bfbfbf" points="651.5,-.5 651.5,-19.5 751.5,-19.5 751.5,-.5 651.5,-.5"/>
<text text-anchor="middle" x="701.5" y="-7.5" font-family="Helvetica,sans-Serif" font-size="10.00" fill="#000000">Epetra_FEVector.h</text>
</g>
<!-- Node9&#45;&gt;Node19 -->
<g id="edge19" class="edge">
<title>Node9&#45;&gt;Node19</title>
<path fill="none" stroke="#191970" d="M1394.2055,-64.808C1295.7838,-61.222 1009.7935,-49.0167 761.947,-20.0641"/>
<polygon fill="#191970" stroke="#191970" points="762.0044,-16.5467 751.6631,-18.8505 761.1839,-23.4984 762.0044,-16.5467"/>
</g>
<!-- Node20 -->
<g id="node21" class="node">
<title>Node20</title>
<polygon fill="#ffffff" stroke="#bfbfbf" points="770,-.5 770,-19.5 857,-19.5 857,-.5 770,-.5"/>
<text text-anchor="middle" x="813.5" y="-7.5" font-family="Helvetica,sans-Serif" font-size="10.00" fill="#000000">Epetra_Vector.h</text>
</g>
<!-- Node9&#45;&gt;Node20 -->
<g id="edge20" class="edge">
<title>Node9&#45;&gt;Node20</title>
<path fill="none" stroke="#191970" d="M1394.3758,-64.4636C1306.9252,-60.3552 1072.283,-47.5962 867.1881,-20.1103"/>
<polygon fill="#191970" stroke="#191970" points="867.5155,-16.6227 857.136,-18.7479 866.5753,-23.5593 867.5155,-16.6227"/>
</g>
<!-- Node21 -->
<g id="node22" class="node">
<title>Node21</title>
<polygon fill="#ffffff" stroke="#bfbfbf" points="875,-.5 875,-19.5 952,-19.5 952,-.5 875,-.5"/>
<text text-anchor="middle" x="913.5" y="-7.5" font-family="Helvetica,sans-Serif" font-size="10.00" fill="#000000">Epetra_Map.h</text>
</g>
<!-- Node9&#45;&gt;Node21 -->
<g id="edge21" class="edge">
<title>Node9&#45;&gt;Node21</title>
<path fill="none" stroke="#191970" d="M1394.325,-63.9C1317.5633,-59.0282 1129.1442,-45.4999 962.1203,-20.116"/>
<polygon fill="#191970" stroke="#191970" points="962.5812,-16.6458 952.1653,-18.5849 961.517,-23.5644 962.5812,-16.6458"/>
</g>
<!-- Node22 -->
<g id="node23" class="node">
<title>Node22</title>
<polygon fill="#ffffff" stroke="#bfbfbf" points="970,-.5 970,-19.5 1109,-19.5 1109,-.5 970,-.5"/>
<text text-anchor="middle" x="1039.5" y="-7.5" font-family="Helvetica,sans-Serif" font-size="10.00" fill="#000000">Epetra_SerialDenseMatrix.h</text>
</g>
<!-- Node9&#45;&gt;Node22 -->
<g id="edge22" class="edge">
<title>Node9&#45;&gt;Node22</title>
<path fill="none" stroke="#191970" d="M1394.2023,-60.9316C1331.6799,-51.954 1200.1508,-33.0678 1116.0159,-20.9869"/>
<polygon fill="#191970" stroke="#191970" points="1116.3942,-17.5054 1105.9983,-19.5485 1115.3993,-24.4343 1116.3942,-17.5054"/>
</g>
<!-- Node23 -->
<g id="node24" class="node">
<title>Node23</title>
<polygon fill="#ffffff" stroke="#bfbfbf" points="1127.5,-.5 1127.5,-19.5 1267.5,-19.5 1267.5,-.5 1127.5,-.5"/>
<text text-anchor="middle" x="1197.5" y="-7.5" font-family="Helvetica,sans-Serif" font-size="10.00" fill="#000000">Epetra_SerialDenseVector.h</text>
</g>
<!-- Node9&#45;&gt;Node23 -->
<g id="edge23" class="edge">
<title>Node9&#45;&gt;Node23</title>
<path fill="none" stroke="#191970" d="M1394.2642,-57.4948C1354.9858,-48.0138 1291.1815,-32.6128 1246.9239,-21.9299"/>
<polygon fill="#191970" stroke="#191970" points="1247.5004,-18.4686 1236.9583,-19.5244 1245.8578,-25.2732 1247.5004,-18.4686"/>
</g>
<!-- Node24 -->
<g id="node25" class="node">
<title>Node24</title>
<polygon fill="#ffffff" stroke="#bfbfbf" points="1285.5,-.5 1285.5,-19.5 1437.5,-19.5 1437.5,-.5 1285.5,-.5"/>
<text text-anchor="middle" x="1361.5" y="-7.5" font-family="Helvetica,sans-Serif" font-size="10.00" fill="#000000">Epetra_IntSerialDenseVector.h</text>
</g>
<!-- Node9&#45;&gt;Node24 -->
<g id="edge24" class="edge">
<title>Node9&#45;&gt;Node24</title>
<path fill="none" stroke="#191970" d="M1417.6553,-56.2455C1407.612,-47.9746 1393.0005,-35.9416 1381.1996,-26.2232"/>
<polygon fill="#191970" stroke="#191970" points="1383.1533,-23.298 1373.209,-19.6427 1378.7033,-28.7015 1383.1533,-23.298"/>
</g>
<!-- Node25 -->
<g id="node26" class="node">
<title>Node25</title>
<polygon fill="#ffffff" stroke="#bfbfbf" points="1455.5,-.5 1455.5,-19.5 1541.5,-19.5 1541.5,-.5 1455.5,-.5"/>
<text text-anchor="middle" x="1498.5" y="-7.5" font-family="Helvetica,sans-Serif" font-size="10.00" fill="#000000">Epetra_Import.h</text>
</g>
<!-- Node9&#45;&gt;Node25 -->
<g id="edge25" class="edge">
<title>Node9&#45;&gt;Node25</title>
<path fill="none" stroke="#191970" d="M1441.5189,-56.2455C1451.7098,-47.9746 1466.5362,-35.9416 1478.5107,-26.2232"/>
<polygon fill="#191970" stroke="#191970" points="1481.0598,-28.662 1486.6188,-19.6427 1476.6486,-23.2268 1481.0598,-28.662"/>
</g>
<!-- Node26 -->
<g id="node27" class="node">
<title>Node26</title>
<polygon fill="#ffffff" stroke="#bfbfbf" points="1560,-.5 1560,-19.5 1647,-19.5 1647,-.5 1560,-.5"/>
<text text-anchor="middle" x="1603.5" y="-7.5" font-family="Helvetica,sans-Serif" font-size="10.00" fill="#000000">Epetra_Export.h</text>
</g>
<!-- Node9&#45;&gt;Node26 -->
<g id="edge26" class="edge">
<title>Node9&#45;&gt;Node26</title>
<path fill="none" stroke="#191970" d="M1459.4117,-56.3733C1488.3452,-47.0613 1532.3611,-32.8953 1564.1293,-22.671"/>
<polygon fill="#191970" stroke="#191970" points="1565.5318,-25.8965 1573.9787,-19.5011 1563.3872,-19.2331 1565.5318,-25.8965"/>
</g>
<!-- Node27 -->
<g id="node28" class="node">
<title>Node27</title>
<polygon fill="#ffffff" stroke="#bfbfbf" points="1665.5,-.5 1665.5,-19.5 1745.5,-19.5 1745.5,-.5 1665.5,-.5"/>
<text text-anchor="middle" x="1705.5" y="-7.5" font-family="Helvetica,sans-Serif" font-size="10.00" fill="#000000">Epetra_Time.h</text>
</g>
<!-- Node9&#45;&gt;Node27 -->
<g id="edge27" class="edge">
<title>Node9&#45;&gt;Node27</title>
<path fill="none" stroke="#191970" d="M1464.7359,-58.8507C1513.0297,-49.052 1600.0602,-31.3936 1655.198,-20.2062"/>
<polygon fill="#191970" stroke="#191970" points="1656.0014,-23.6146 1665.1058,-18.1959 1654.6095,-16.7544 1656.0014,-23.6146"/>
</g>
<!-- Node28 -->
<g id="node29" class="node">
<title>Node28</title>
<polygon fill="#ffffff" stroke="#bfbfbf" points="1764,-.5 1764,-19.5 1911,-19.5 1911,-.5 1764,-.5"/>
<text text-anchor="middle" x="1837.5" y="-7.5" font-family="Helvetica,sans-Serif" font-size="10.00" fill="#000000">ml_MultiLevelPreconditioner.h</text>
</g>
<!-- Node9&#45;&gt;Node28 -->
<g id="edge28" class="edge">
<title>Node9&#45;&gt;Node28</title>
<path fill="none" stroke="#191970" d="M1464.639,-61.177C1529.4087,-52.287 1669.1048,-33.1131 1757.9115,-20.9239"/>
<polygon fill="#191970" stroke="#191970" points="1758.5141,-24.3741 1767.9452,-19.5467 1757.5621,-17.4391 1758.5141,-24.3741"/>
</g>
<!-- Node29 -->
<g id="node30" class="node">
<title>Node29</title>
<polygon fill="#ffffff" stroke="#bfbfbf" points="1929,-.5 1929,-19.5 2020,-19.5 2020,-.5 1929,-.5"/>
<text text-anchor="middle" x="1974.5" y="-7.5" font-family="Helvetica,sans-Serif" font-size="10.00" fill="#000000">ml_epetra_utils.h</text>
</g>
<!-- Node9&#45;&gt;Node29 -->
<g id="edge29" class="edge">
<title>Node9&#45;&gt;Node29</title>
<path fill="none" stroke="#191970" d="M1464.6751,-63.7438C1543.8462,-58.4416 1742.2406,-43.9036 1918.9329,-19.9658"/>
<polygon fill="#191970" stroke="#191970" points="1919.4968,-23.4213 1928.93,-18.598 1918.5478,-16.4859 1919.4968,-23.4213"/>
</g>
<!-- Node30 -->
<g id="node31" class="node">
<title>Node30</title>
<polygon fill="#ffffff" stroke="#bfbfbf" points="2038,-.5 2038,-19.5 2109,-19.5 2109,-.5 2038,-.5"/>
<text text-anchor="middle" x="2073.5" y="-7.5" font-family="Helvetica,sans-Serif" font-size="10.00" fill="#000000">ml_include.h</text>
</g>
<!-- Node9&#45;&gt;Node30 -->
<g id="edge30" class="edge">
<title>Node9&#45;&gt;Node30</title>
<path fill="none" stroke="#191970" d="M1464.5334,-65.1116C1555.8317,-62.4148 1808.6362,-52.5057 2027.4971,-20.1286"/>
<polygon fill="#191970" stroke="#191970" points="2028.1929,-23.5635 2037.5636,-18.6197 2027.1552,-16.6408 2028.1929,-23.5635"/>
</g>
<!-- Node31 -->
<g id="node32" class="node">
<title>Node31</title>
<polygon fill="#ffffff" stroke="#bfbfbf" points="2127,-.5 2127,-19.5 2264,-19.5 2264,-.5 2127,-.5"/>
<text text-anchor="middle" x="2195.5" y="-7.5" font-family="Helvetica,sans-Serif" font-size="10.00" fill="#000000">EpetraExt_RowMatrixOut.h</text>
</g>
<!-- Node9&#45;&gt;Node31 -->
<g id="edge31" class="edge">
<title>Node9&#45;&gt;Node31</title>
<path fill="none" stroke="#191970" d="M1464.6984,-64.4283C1564.9254,-59.7875 1860.6097,-44.9489 2116.4455,-20.1536"/>
<polygon fill="#191970" stroke="#191970" points="2117.0649,-23.6099 2126.6773,-19.1545 2116.3845,-16.643 2117.0649,-23.6099"/>
</g>
<!-- Node32 -->
<g id="node33" class="node">
<title>Node32</title>
<polygon fill="#ffffff" stroke="#bfbfbf" points="2282,-.5 2282,-19.5 2421,-19.5 2421,-.5 2282,-.5"/>
<text text-anchor="middle" x="2351.5" y="-7.5" font-family="Helvetica,sans-Serif" font-size="10.00" fill="#000000">EpetraExt_MultiVectorOut.h</text>
</g>
<!-- Node9&#45;&gt;Node32 -->
<g id="edge32" class="edge">
<title>Node9&#45;&gt;Node32</title>
<path fill="none" stroke="#191970" d="M1464.5391,-65.0079C1578.9737,-61.5738 1952.2611,-48.8421 2271.4094,-20.1348"/>
<polygon fill="#191970" stroke="#191970" points="2272.1435,-23.5827 2281.7866,-19.1939 2271.5114,-16.6113 2272.1435,-23.5827"/>
</g>
<!-- Node33 -->
<g id="node34" class="node">
<title>Node33</title>
<polygon fill="#ffffff" stroke="#bfbfbf" points="2439.5,-.5 2439.5,-19.5 2549.5,-19.5 2549.5,-.5 2439.5,-.5"/>
<text text-anchor="middle" x="2494.5" y="-7.5" font-family="Helvetica,sans-Serif" font-size="10.00" fill="#000000">EpetraExt_VectorIn.h</text>
</g>
<!-- Node9&#45;&gt;Node33 -->
<g id="edge33" class="edge">
<title>Node9&#45;&gt;Node33</title>
<path fill="none" stroke="#191970" d="M1464.62,-65.7705C1592.516,-64.6438 2045.5349,-58.1079 2429.2019,-20.022"/>
<polygon fill="#191970" stroke="#191970" points="2429.7898,-23.4807 2439.3912,-19.0014 2429.0921,-16.5155 2429.7898,-23.4807"/>
</g>
<!-- Node35 -->
<g id="node35" class="node">
<title>Node35</title>
<polygon fill="#ffffff" stroke="#bfbfbf" points="2703.5,-.5 2703.5,-19.5 2803.5,-19.5 2803.5,-.5 2703.5,-.5"/>
<text text-anchor="middle" x="2753.5" y="-7.5" font-family="Helvetica,sans-Serif" font-size="10.00" fill="#000000">Teuchos_RCP.hpp</text>
</g>
<!-- Node9&#45;&gt;Node35 -->
<g id="edge34" class="edge">
<title>Node9&#45;&gt;Node35</title>
<path fill="none" stroke="#191970" d="M1464.6749,-65.3474C1640.5058,-61.9908 2425.9319,-45.8591 2693.2949,-19.9653"/>
<polygon fill="#191970" stroke="#191970" points="2693.7464,-23.4377 2703.3492,-18.9616 2693.051,-16.4723 2693.7464,-23.4377"/>
</g>
<!-- Node42 -->
<g id="node37" class="node">
<title>Node42</title>
<g id="a_node37"><a xlink:href="../../d9/dea/_linear___finite___element___problem_8hpp.html" target="_top" xlink:title="Linear_Finite_Element\l_Problem.hpp">
<polygon fill="#ffffff" stroke="#000000" points="1282,-224.5 1282,-254.5 1395,-254.5 1395,-224.5 1282,-224.5"/>
<text text-anchor="start" x="1290" y="-242.5" font-family="Helvetica,sans-Serif" font-size="10.00" fill="#000000">Linear_Finite_Element</text>
<text text-anchor="middle" x="1338.5" y="-231.5" font-family="Helvetica,sans-Serif" font-size="10.00" fill="#000000">_Problem.hpp</text>
</a>
</g>
</g>
<!-- Node41&#45;&gt;Node42 -->
<g id="edge36" class="edge">
<title>Node41&#45;&gt;Node42</title>
<path fill="none" stroke="#191970" d="M1333.3597,-296.9005C1334.1111,-288.5099 1335.2363,-275.9451 1336.2425,-264.7085"/>
<polygon fill="#191970" stroke="#191970" points="1339.7488,-264.7941 1337.1548,-254.5218 1332.7767,-264.1697 1339.7488,-264.7941"/>
</g>
<!-- Node43 -->
<g id="node38" class="node">
<title>Node43</title>
<g id="a_node38"><a xlink:href="../../d0/d41/_base_class_f_e_m_8hpp.html" target="_top" xlink:title="BaseClassFEM.hpp">
<polygon fill="#ffffff" stroke="#000000" points="1337.5,-112.5 1337.5,-131.5 1441.5,-131.5 1441.5,-112.5 1337.5,-112.5"/>
<text text-anchor="middle" x="1389.5" y="-119.5" font-family="Helvetica,sans-Serif" font-size="10.00" fill="#000000">BaseClassFEM.hpp</text>
</a>
</g>
</g>
<!-- Node42&#45;&gt;Node43 -->
<g id="edge37" class="edge">
<title>Node42&#45;&gt;Node43</title>
<path fill="none" stroke="#191970" d="M1345.1674,-224.1389C1354.4394,-202.7768 1371.2171,-164.1224 1381.261,-140.982"/>
<polygon fill="#191970" stroke="#191970" points="1384.5798,-142.1262 1385.3508,-131.5595 1378.1586,-139.3391 1384.5798,-142.1262"/>
</g>
<!-- Node43&#45;&gt;Node9 -->
<g id="edge38" class="edge">
<title>Node43&#45;&gt;Node9</title>
<path fill="none" stroke="#191970" d="M1396.4675,-112.2455C1402.0311,-104.4564 1409.978,-93.3308 1416.6829,-83.9439"/>
<polygon fill="#191970" stroke="#191970" points="1419.648,-85.8144 1422.6124,-75.6427 1413.9519,-81.7457 1419.648,-85.8144"/>
</g>
<!-- Node45 -->
<g id="node40" class="node">
<title>Node45</title>
<g id="a_node40"><a xlink:href="../../d2/d34/hyperelasticity_8hpp.html" target="_top" xlink:title="hyperelasticity.hpp">
<polygon fill="#ffffff" stroke="#000000" points="1428.5,-230 1428.5,-249 1526.5,-249 1526.5,-230 1428.5,-230"/>
<text text-anchor="middle" x="1477.5" y="-237" font-family="Helvetica,sans-Serif" font-size="10.00" fill="#000000">hyperelasticity.hpp</text>
</a>
</g>
</g>
<!-- Node44&#45;&gt;Node45 -->
<g id="edge40" class="edge">
<title>Node44&#45;&gt;Node45</title>
<path fill="none" stroke="#191970" d="M1484.3538,-296.9005C1483.1894,-287.149 1481.3519,-271.7597 1479.8725,-259.3695"/>
<polygon fill="#191970" stroke="#191970" points="1483.3051,-258.5961 1478.6441,-249.0817 1476.3545,-259.4261 1483.3051,-258.5961"/>
</g>
<!-- Node46 -->
<g id="node41" class="node">
<title>Node46</title>
<g id="a_node41"><a xlink:href="../../d2/d8b/_finite___element___problem_8hpp.html" target="_top" xlink:title="Finite_Element_Problem.hpp">
<polygon fill="#ffffff" stroke="#000000" points="1398.5,-168.5 1398.5,-187.5 1540.5,-187.5 1540.5,-168.5 1398.5,-168.5"/>
<text text-anchor="middle" x="1469.5" y="-175.5" font-family="Helvetica,sans-Serif" font-size="10.00" fill="#000000">Finite_Element_Problem.hpp</text>
</a>
</g>
</g>
<!-- Node45&#45;&gt;Node46 -->
<g id="edge41" class="edge">
<title>Node45&#45;&gt;Node46</title>
<path fill="none" stroke="#191970" d="M1476.25,-229.8906C1475.1411,-221.3657 1473.4856,-208.6392 1472.0917,-197.9235"/>
<polygon fill="#191970" stroke="#191970" points="1475.5284,-197.2098 1470.7676,-187.7449 1468.5869,-198.1128 1475.5284,-197.2098"/>
</g>
<!-- Node46&#45;&gt;Node9 -->
<g id="edge42" class="edge">
<title>Node46&#45;&gt;Node9</title>
<path fill="none" stroke="#191970" d="M1467.2262,-168.4587C1464.0306,-155.4968 1457.7803,-131.6824 1450.5,-112 1447.1223,-102.8683 1442.7298,-93.0152 1438.8357,-84.7797"/>
<polygon fill="#191970" stroke="#191970" points="1441.944,-83.1678 1434.4348,-75.6937 1435.6441,-86.2193 1441.944,-83.1678"/>
</g>
<!-- Node46&#45;&gt;Node43 -->
<g id="edge43" class="edge">
<title>Node46&#45;&gt;Node43</title>
<path fill="none" stroke="#191970" d="M1455.5651,-168.2455C1443.4053,-159.7337 1425.5536,-147.2375 1411.4715,-137.3801"/>
<polygon fill="#191970" stroke="#191970" points="1413.4747,-134.51 1403.2752,-131.6427 1409.4605,-140.2447 1413.4747,-134.51"/>
</g>
<!-- Node47&#45;&gt;Node4 -->
<g id="edge53" class="edge">
<title>Node47&#45;&gt;Node4</title>
<path fill="none" stroke="#191970" d="M2243.365,-367.9031C2151.4409,-359.3869 1973.8641,-342.0328 1823.5,-322 1813.6108,-320.6825 1803.176,-319.1577 1792.9614,-317.5892"/>
<polygon fill="#191970" stroke="#191970" points="1793.2684,-314.0949 1782.8485,-316.0122 1792.1898,-321.0113 1793.2684,-314.0949"/>
</g>
<!-- Node47&#45;&gt;Node5 -->
<g id="edge54" class="edge">
<title>Node47&#45;&gt;Node5</title>
<path fill="none" stroke="#191970" d="M2243.2753,-364.2916C2177.9633,-354.4666 2072.3486,-338.1272 1981.5,-322 1974.4042,-320.7404 1966.9619,-319.3593 1959.6005,-317.9569"/>
<polygon fill="#191970" stroke="#191970" points="1960.1342,-314.4955 1949.6526,-316.0407 1958.8101,-321.3691 1960.1342,-314.4955"/>
</g>
<!-- Node47&#45;&gt;Node6 -->
<g id="edge55" class="edge">
<title>Node47&#45;&gt;Node6</title>
<path fill="none" stroke="#191970" d="M2270.6577,-363.9717C2232.9166,-353.6507 2171.8641,-336.9547 2125.2641,-324.211"/>
<polygon fill="#191970" stroke="#191970" points="2126.1222,-320.8172 2115.5531,-321.5553 2124.2757,-327.5693 2126.1222,-320.8172"/>
</g>
<!-- Node47&#45;&gt;Node35 -->
<g id="edge46" class="edge">
<title>Node47&#45;&gt;Node35</title>
<path fill="none" stroke="#191970" d="M2334.5071,-363.9969C2354.6021,-355.9326 2380.3677,-342.3794 2395.5,-322 2417.9312,-291.7909 2414.5,-277.1265 2414.5,-239.5 2414.5,-239.5 2414.5,-239.5 2414.5,-122 2414.5,-92.2101 2605.6747,-44.0012 2700.8959,-21.8366"/>
<polygon fill="#191970" stroke="#191970" points="2701.9552,-25.1841 2710.9087,-19.5197 2700.377,-18.3643 2701.9552,-25.1841"/>
</g>
<!-- Node47&#45;&gt;Node46 -->
<g id="edge45" class="edge">
<title>Node47&#45;&gt;Node46</title>
<path fill="none" stroke="#191970" d="M2275.1135,-363.9349C2248.6483,-354.9703 2209.7318,-340.2333 2178.5,-322 2159.3781,-310.8365 2159.7236,-300.0154 2139.5,-291 2086.0415,-267.1689 1712.7716,-212.3707 1547.7029,-188.9449"/>
<polygon fill="#191970" stroke="#191970" points="1548.0055,-185.4528 1537.6133,-187.5153 1547.0234,-192.3836 1548.0055,-185.4528"/>
</g>
<!-- Node48 -->
<g id="node43" class="node">
<title>Node48</title>
<polygon fill="#ffffff" stroke="#bfbfbf" points="2334.5,-297 2334.5,-316 2386.5,-316 2386.5,-297 2334.5,-297"/>
<text text-anchor="middle" x="2360.5" y="-304" font-family="Helvetica,sans-Serif" font-size="10.00" fill="#000000">Ifpack.h</text>
</g>
<!-- Node47&#45;&gt;Node48 -->
<g id="edge47" class="edge">
<title>Node47&#45;&gt;Node48</title>
<path fill="none" stroke="#191970" d="M2313.3802,-363.9005C2321.8752,-353.552 2335.5824,-336.8542 2346.028,-324.1295"/>
<polygon fill="#191970" stroke="#191970" points="2348.9947,-326.0317 2352.6345,-316.0817 2343.5842,-321.5902 2348.9947,-326.0317"/>
</g>
<!-- Node49 -->
<g id="node44" class="node">
<title>Node49</title>
<polygon fill="#ffffff" stroke="#bfbfbf" points="2443,-297 2443,-316 2574,-316 2574,-297 2443,-297"/>
<text text-anchor="middle" x="2508.5" y="-304" font-family="Helvetica,sans-Serif" font-size="10.00" fill="#000000">Ifpack_AdditiveSchwarz.h</text>
</g>
<!-- Node47&#45;&gt;Node49 -->
<g id="edge48" class="edge">
<title>Node47&#45;&gt;Node49</title>
<path fill="none" stroke="#191970" d="M2334.585,-363.9005C2370.1604,-352.1589 2430.5008,-332.2436 2469.9245,-319.2318"/>
<polygon fill="#191970" stroke="#191970" points="2471.0698,-322.5396 2479.469,-316.0817 2468.8759,-315.8923 2471.0698,-322.5396"/>
</g>
<!-- Node50 -->
<g id="node45" class="node">
<title>Node50</title>
<polygon fill="#ffffff" stroke="#bfbfbf" points="2592.5,-297 2592.5,-316 2714.5,-316 2714.5,-297 2592.5,-297"/>
<text text-anchor="middle" x="2653.5" y="-304" font-family="Helvetica,sans-Serif" font-size="10.00" fill="#000000">BelosLinearProblem.hpp</text>
</g>
<!-- Node47&#45;&gt;Node50 -->
<g id="edge49" class="edge">
<title>Node47&#45;&gt;Node50</title>
<path fill="none" stroke="#191970" d="M2347.863,-363.9413C2357.2753,-361.9042 2367.2142,-359.8202 2376.5,-358 2468.137,-340.0375 2491.8898,-340.0988 2583.5,-322 2589.3671,-320.8409 2595.4976,-319.5709 2601.586,-318.2724"/>
<polygon fill="#191970" stroke="#191970" points="2602.7054,-321.6113 2611.7386,-316.0749 2601.2245,-314.7697 2602.7054,-321.6113"/>
</g>
<!-- Node51 -->
<g id="node46" class="node">
<title>Node51</title>
<polygon fill="#ffffff" stroke="#bfbfbf" points="2733,-297 2733,-316 2878,-316 2878,-297 2733,-297"/>
<text text-anchor="middle" x="2805.5" y="-304" font-family="Helvetica,sans-Serif" font-size="10.00" fill="#000000">BelosBlockGmresSolMgr.hpp</text>
</g>
<!-- Node47&#45;&gt;Node51 -->
<g id="edge50" class="edge">
<title>Node47&#45;&gt;Node51</title>
<path fill="none" stroke="#191970" d="M2345.5283,-363.9439C2355.5966,-361.7661 2366.4096,-359.6197 2376.5,-358 2529.5903,-333.4267 2570.0793,-344.4186 2723.5,-322 2731.7432,-320.7955 2740.4202,-319.3501 2748.9203,-317.8328"/>
<polygon fill="#191970" stroke="#191970" points="2749.5741,-321.2713 2758.7809,-316.0287 2748.3143,-314.3856 2749.5741,-321.2713"/>
</g>
<!-- Node52 -->
<g id="node47" class="node">
<title>Node52</title>
<polygon fill="#ffffff" stroke="#bfbfbf" points="2896.5,-297 2896.5,-316 3018.5,-316 3018.5,-297 2896.5,-297"/>
<text text-anchor="middle" x="2957.5" y="-304" font-family="Helvetica,sans-Serif" font-size="10.00" fill="#000000">BelosEpetraAdapter.hpp</text>
</g>
<!-- Node47&#45;&gt;Node52 -->
<g id="edge51" class="edge">
<title>Node47&#45;&gt;Node52</title>
<path fill="none" stroke="#191970" d="M2344.3771,-363.9515C2354.7592,-361.6932 2366.0096,-359.5065 2376.5,-358 2601.8619,-325.6355 2662.1865,-354.6996 2887.5,-322 2894.6137,-320.9676 2902.0801,-319.6122 2909.3781,-318.1321"/>
<polygon fill="#191970" stroke="#191970" points="2910.1198,-321.5527 2919.1766,-316.055 2908.6682,-314.7049 2910.1198,-321.5527"/>
</g>
<!-- Node53 -->
<g id="node48" class="node">
<title>Node53</title>
<polygon fill="#ffffff" stroke="#bfbfbf" points="3037,-297 3037,-316 3158,-316 3158,-297 3037,-297"/>
<text text-anchor="middle" x="3097.5" y="-304" font-family="Helvetica,sans-Serif" font-size="10.00" fill="#000000">BelosSolverFactory.hpp</text>
</g>
<!-- Node47&#45;&gt;Node53 -->
<g id="edge52" class="edge">
<title>Node47&#45;&gt;Node53</title>
<path fill="none" stroke="#191970" d="M2343.9917,-363.9249C2354.4763,-361.6383 2365.8735,-359.4443 2376.5,-358 2663.6353,-318.9731 2740.4231,-361.454 3027.5,-322 3034.7061,-321.0096 3042.2698,-319.6638 3049.6524,-318.1763"/>
<polygon fill="#191970" stroke="#191970" points="3050.4982,-321.5749 3059.5568,-316.0802 3049.0488,-314.7266 3050.4982,-321.5749"/>
</g>
<!-- Node54 -->
<g id="node49" class="node">
<title>Node54</title>
<polygon fill="#ffffff" stroke="#bfbfbf" points="2187,-291.5 2187,-321.5 2316,-321.5 2316,-291.5 2187,-291.5"/>
<text text-anchor="start" x="2195" y="-309.5" font-family="Helvetica,sans-Serif" font-size="10.00" fill="#000000">Stratimikos_DefaultLinear</text>
<text text-anchor="middle" x="2251.5" y="-298.5" font-family="Helvetica,sans-Serif" font-size="10.00" fill="#000000">SolverBuilder.hpp</text>
</g>
<!-- Node47&#45;&gt;Node54 -->
<g id="edge56" class="edge">
<title>Node47&#45;&gt;Node54</title>
<path fill="none" stroke="#191970" d="M2297.7631,-363.9005C2290.5822,-354.9908 2279.608,-341.3748 2270.1501,-329.6399"/>
<polygon fill="#191970" stroke="#191970" points="2272.6075,-327.1114 2263.6071,-321.5218 2267.1573,-331.5041 2272.6075,-327.1114"/>
</g>
</g>
</svg>
