<?xml version="1.0" encoding="UTF-8" standalone="no"?>
<!DOCTYPE svg PUBLIC "-//W3C//DTD SVG 1.1//EN"
 "http://www.w3.org/Graphics/SVG/1.1/DTD/svg11.dtd">
<!-- Generated by graphviz version 2.40.1 (20161225.0304)
 -->
<!-- Title: Finite_Element_Problem Pages: 1 -->
<svg width="133pt" height="148pt"
 viewBox="0.00 0.00 133.50 148.00" xmlns="http://www.w3.org/2000/svg" xmlns:xlink="http://www.w3.org/1999/xlink">
<g id="graph0" class="graph" transform="scale(1 1) rotate(0) translate(4 144)">
<title>Finite_Element_Problem</title>
<polygon fill="#ffffff" stroke="transparent" points="-4,4 -4,-144 129.4971,-144 129.4971,4 -4,4"/>
<!-- Node13 -->
<g id="node1" class="node">
<title>Node13</title>
<polygon fill="#bfbfbf" stroke="#000000" points="0,-.5 0,-18.5 125.4971,-18.5 125.4971,-.5 0,-.5"/>
<text text-anchor="middle" x="62.7485" y="-6.5" font-family="Helvetica,sans-Serif" font-size="10.00" fill="#000000">Finite_Element_Problem</text>
</g>
<!-- Node14 -->
<g id="node2" class="node">
<title>Node14</title>
<g id="a_node2"><a xlink:href="../../d2/d97/class_base_class_f_e_m.html" target="_top" xlink:title="BaseClassFEM">
<polygon fill="#ffffff" stroke="#000000" points="20.2954,-56.5 20.2954,-74.5 105.2017,-74.5 105.2017,-56.5 20.2954,-56.5"/>
<text text-anchor="middle" x="62.7485" y="-62.5" font-family="Helvetica,sans-Serif" font-size="10.00" fill="#000000">BaseClassFEM</text>
</a>
</g>
</g>
<!-- Node14&#45;&gt;Node13 -->
<g id="edge1" class="edge">
<title>Node14&#45;&gt;Node13</title>
<path fill="none" stroke="#191970" d="M62.7485,-46.2065C62.7485,-36.8384 62.7485,-26.0262 62.7485,-18.5752"/>
<polygon fill="#191970" stroke="#191970" points="59.2486,-46.2527 62.7485,-56.2527 66.2486,-46.2528 59.2486,-46.2527"/>
</g>
<!-- Node15 -->
<g id="node3" class="node">
<title>Node15</title>
<g id="a_node3"><a xlink:href="../../d6/d6b/classmesh.html" target="_top" xlink:title="mesh">
<polygon fill="#ffffff" stroke="#000000" points="42.522,-121.5 42.522,-139.5 82.9751,-139.5 82.9751,-121.5 42.522,-121.5"/>
<text text-anchor="middle" x="62.7485" y="-127.5" font-family="Helvetica,sans-Serif" font-size="10.00" fill="#000000">mesh</text>
</a>
</g>
</g>
<!-- Node15&#45;&gt;Node14 -->
<g id="edge2" class="edge">
<title>Node15&#45;&gt;Node14</title>
<path fill="none" stroke="#9a32cd" stroke-dasharray="5,2" d="M62.7485,-111.1265C62.7485,-99.1522 62.7485,-84.3205 62.7485,-74.8821"/>
<polygon fill="#9a32cd" stroke="#9a32cd" points="59.2486,-111.462 62.7485,-121.462 66.2486,-111.4621 59.2486,-111.462"/>
<text text-anchor="middle" x="76.3643" y="-95" font-family="Helvetica,sans-Serif" font-size="10.00" fill="#000000"> Mesh</text>
</g>
</g>
</svg>
