<?xml version="1.0" encoding="UTF-8" standalone="no"?>
<!DOCTYPE svg PUBLIC "-//W3C//DTD SVG 1.1//EN"
 "http://www.w3.org/Graphics/SVG/1.1/DTD/svg11.dtd">
<!-- Generated by graphviz version 2.40.1 (20161225.0304)
 -->
<!-- Title: src/Arteries_ModelC_gmrf_neumann.hpp Pages: 1 -->
<svg width="3409pt" height="387pt"
 viewBox="0.00 0.00 3409.19 387.00" xmlns="http://www.w3.org/2000/svg" xmlns:xlink="http://www.w3.org/1999/xlink">
<g id="graph0" class="graph" transform="scale(1 1) rotate(0) translate(4 383)">
<title>src/Arteries_ModelC_gmrf_neumann.hpp</title>
<polygon fill="#ffffff" stroke="transparent" points="-4,4 -4,-383 3405.1943,-383 3405.1943,4 -4,4"/>
<!-- Node0 -->
<g id="node1" class="node">
<title>Node0</title>
<polygon fill="#bfbfbf" stroke="#000000" points="1945.5889,-350.5 1945.5889,-378.5 2053.874,-378.5 2053.874,-350.5 1945.5889,-350.5"/>
<text text-anchor="start" x="1953.5889" y="-366.5" font-family="Helvetica,sans-Serif" font-size="10.00" fill="#000000">src/Arteries_ModelC</text>
<text text-anchor="middle" x="1999.7314" y="-356.5" font-family="Helvetica,sans-Serif" font-size="10.00" fill="#000000">_gmrf_neumann.hpp</text>
</g>
<!-- Node1 -->
<g id="node2" class="node">
<title>Node1</title>
<g id="a_node2"><a xlink:href="../../de/d49/tensor__calculus_8hpp.html" target="_top" xlink:title="tensor_calculus.hpp">
<polygon fill="#ffffff" stroke="#000000" points="1518.2588,-230.5 1518.2588,-248.5 1623.2041,-248.5 1623.2041,-230.5 1518.2588,-230.5"/>
<text text-anchor="middle" x="1570.7314" y="-236.5" font-family="Helvetica,sans-Serif" font-size="10.00" fill="#000000">tensor_calculus.hpp</text>
</a>
</g>
</g>
<!-- Node0&#45;&gt;Node1 -->
<g id="edge1" class="edge">
<title>Node0&#45;&gt;Node1</title>
<path fill="none" stroke="#191970" d="M1945.3359,-360.6223C1842.7544,-352.8735 1628.5617,-334.4535 1601.7314,-314 1584.3672,-300.7627 1576.6558,-276.029 1573.2799,-258.7042"/>
<polygon fill="#191970" stroke="#191970" points="1576.6935,-257.8907 1571.6296,-248.5844 1569.7848,-259.0174 1576.6935,-257.8907"/>
</g>
<!-- Node34 -->
<g id="node35" class="node">
<title>Node34</title>
<g id="a_node35"><a xlink:href="../../de/d9d/hyperelasticity__setup__pp_8hpp.html" target="_top" xlink:title="hyperelasticity_setup\l_pp.hpp">
<polygon fill="#ffffff" stroke="#000000" points="1611.0396,-285.5 1611.0396,-313.5 1720.4233,-313.5 1720.4233,-285.5 1611.0396,-285.5"/>
<text text-anchor="start" x="1619.0396" y="-301.5" font-family="Helvetica,sans-Serif" font-size="10.00" fill="#000000">hyperelasticity_setup</text>
<text text-anchor="middle" x="1665.7314" y="-291.5" font-family="Helvetica,sans-Serif" font-size="10.00" fill="#000000">_pp.hpp</text>
</a>
</g>
</g>
<!-- Node0&#45;&gt;Node34 -->
<g id="edge35" class="edge">
<title>Node0&#45;&gt;Node34</title>
<path fill="none" stroke="#191970" d="M1945.5685,-354.9923C1893.1023,-345.6419 1811.0548,-330.6504 1730.3481,-314.0832"/>
<polygon fill="#191970" stroke="#191970" points="1731.0154,-310.6472 1720.5146,-312.0553 1729.6015,-317.503 1731.0154,-310.6472"/>
</g>
<!-- Node39 -->
<g id="node40" class="node">
<title>Node39</title>
<polygon fill="#ffffff" stroke="#bfbfbf" points="1738.5347,-285.5 1738.5347,-313.5 1862.9282,-313.5 1862.9282,-285.5 1738.5347,-285.5"/>
<text text-anchor="start" x="1746.5347" y="-301.5" font-family="Helvetica,sans-Serif" font-size="10.00" fill="#000000">boost/random/mersenne</text>
<text text-anchor="middle" x="1800.7314" y="-291.5" font-family="Helvetica,sans-Serif" font-size="10.00" fill="#000000">_twister.hpp</text>
</g>
<!-- Node0&#45;&gt;Node39 -->
<g id="edge44" class="edge">
<title>Node0&#45;&gt;Node39</title>
<path fill="none" stroke="#191970" d="M1956.5514,-350.396C1926.3017,-340.5154 1885.6968,-327.2525 1853.5213,-316.7429"/>
<polygon fill="#191970" stroke="#191970" points="1854.4197,-313.3545 1843.8272,-313.5765 1852.2462,-320.0085 1854.4197,-313.3545"/>
</g>
<!-- Node40 -->
<g id="node41" class="node">
<title>Node40</title>
<polygon fill="#ffffff" stroke="#bfbfbf" points="1881.0962,-285.5 1881.0962,-313.5 1994.3667,-313.5 1994.3667,-285.5 1881.0962,-285.5"/>
<text text-anchor="start" x="1889.0962" y="-301.5" font-family="Helvetica,sans-Serif" font-size="10.00" fill="#000000">boost/random/uniform</text>
<text text-anchor="middle" x="1937.7314" y="-291.5" font-family="Helvetica,sans-Serif" font-size="10.00" fill="#000000">_real_distribution.hpp</text>
</g>
<!-- Node0&#45;&gt;Node40 -->
<g id="edge45" class="edge">
<title>Node0&#45;&gt;Node40</title>
<path fill="none" stroke="#191970" d="M1986.2784,-350.396C1978.0725,-341.7931 1967.4209,-330.626 1958.1864,-320.9448"/>
<polygon fill="#191970" stroke="#191970" points="1960.593,-318.3969 1951.1583,-313.5765 1955.5278,-323.2284 1960.593,-318.3969"/>
</g>
<!-- Node41 -->
<g id="node42" class="node">
<title>Node41</title>
<polygon fill="#ffffff" stroke="#bfbfbf" points="2012.042,-285.5 2012.042,-313.5 2111.4209,-313.5 2111.4209,-285.5 2012.042,-285.5"/>
<text text-anchor="start" x="2020.042" y="-301.5" font-family="Helvetica,sans-Serif" font-size="10.00" fill="#000000">boost/math/special</text>
<text text-anchor="middle" x="2061.7314" y="-291.5" font-family="Helvetica,sans-Serif" font-size="10.00" fill="#000000">_functions/erf.hpp</text>
</g>
<!-- Node0&#45;&gt;Node41 -->
<g id="edge46" class="edge">
<title>Node0&#45;&gt;Node41</title>
<path fill="none" stroke="#191970" d="M2013.1845,-350.396C2021.3904,-341.7931 2032.042,-330.626 2041.2764,-320.9448"/>
<polygon fill="#191970" stroke="#191970" points="2043.9351,-323.2284 2048.3046,-313.5765 2038.8698,-318.3969 2043.9351,-323.2284"/>
</g>
<!-- Node42 -->
<g id="node43" class="node">
<title>Node42</title>
<polygon fill="#ffffff" stroke="#bfbfbf" points="2129.4854,-285.5 2129.4854,-313.5 2239.9775,-313.5 2239.9775,-285.5 2129.4854,-285.5"/>
<text text-anchor="start" x="2137.4854" y="-301.5" font-family="Helvetica,sans-Serif" font-size="10.00" fill="#000000">boost/random/normal</text>
<text text-anchor="middle" x="2184.7314" y="-291.5" font-family="Helvetica,sans-Serif" font-size="10.00" fill="#000000">_distribution.hpp</text>
</g>
<!-- Node0&#45;&gt;Node42 -->
<g id="edge47" class="edge">
<title>Node0&#45;&gt;Node42</title>
<path fill="none" stroke="#191970" d="M2039.8737,-350.396C2067.7528,-340.6006 2105.0935,-327.4809 2134.8801,-317.0153"/>
<polygon fill="#191970" stroke="#191970" points="2136.3932,-320.1935 2144.6675,-313.5765 2134.0727,-313.5893 2136.3932,-320.1935"/>
</g>
<!-- Node43 -->
<g id="node44" class="node">
<title>Node43</title>
<polygon fill="#ffffff" stroke="#bfbfbf" points="2258.1455,-285.5 2258.1455,-313.5 2375.3174,-313.5 2375.3174,-285.5 2258.1455,-285.5"/>
<text text-anchor="start" x="2266.1455" y="-301.5" font-family="Helvetica,sans-Serif" font-size="10.00" fill="#000000">boost/math/special</text>
<text text-anchor="middle" x="2316.7314" y="-291.5" font-family="Helvetica,sans-Serif" font-size="10.00" fill="#000000">_functions/gamma.hpp</text>
</g>
<!-- Node0&#45;&gt;Node43 -->
<g id="edge48" class="edge">
<title>Node0&#45;&gt;Node43</title>
<path fill="none" stroke="#191970" d="M2054.1661,-353.6228C2102.4644,-343.9348 2175.2131,-329.2525 2248.291,-314.0801"/>
<polygon fill="#191970" stroke="#191970" points="2249.0556,-317.496 2258.1339,-312.0339 2247.6308,-310.6425 2249.0556,-317.496"/>
</g>
<!-- Node44 -->
<g id="node45" class="node">
<title>Node44</title>
<polygon fill="#ffffff" stroke="#bfbfbf" points="2393.0864,-285.5 2393.0864,-313.5 2496.3765,-313.5 2496.3765,-285.5 2393.0864,-285.5"/>
<text text-anchor="start" x="2401.0864" y="-301.5" font-family="Helvetica,sans-Serif" font-size="10.00" fill="#000000">boost/math/special</text>
<text text-anchor="middle" x="2444.7314" y="-291.5" font-family="Helvetica,sans-Serif" font-size="10.00" fill="#000000">_functions/beta.hpp</text>
</g>
<!-- Node0&#45;&gt;Node44 -->
<g id="edge49" class="edge">
<title>Node0&#45;&gt;Node44</title>
<path fill="none" stroke="#191970" d="M2053.8961,-359.2376C2126.7031,-351.7567 2260.3048,-336.6004 2382.8408,-314.2481"/>
<polygon fill="#191970" stroke="#191970" points="2383.5713,-317.6725 2392.7703,-312.4163 2382.3013,-310.7886 2383.5713,-317.6725"/>
</g>
<!-- Node2 -->
<g id="node3" class="node">
<title>Node2</title>
<g id="a_node3"><a xlink:href="../../d0/d02/meshpp_8hpp.html" target="_top" xlink:title="meshpp.hpp">
<polygon fill="#ffffff" stroke="#000000" points="1659.2119,-55.5 1659.2119,-73.5 1730.251,-73.5 1730.251,-55.5 1659.2119,-55.5"/>
<text text-anchor="middle" x="1694.7314" y="-61.5" font-family="Helvetica,sans-Serif" font-size="10.00" fill="#000000">meshpp.hpp</text>
</a>
</g>
</g>
<!-- Node1&#45;&gt;Node2 -->
<g id="edge2" class="edge">
<title>Node1&#45;&gt;Node2</title>
<path fill="none" stroke="#191970" d="M1570.6349,-230.156C1570.8718,-215.3869 1572.9498,-186.1558 1584.7314,-165 1605.6718,-127.3984 1645.8579,-96.2214 1671.4274,-79.0012"/>
<polygon fill="#191970" stroke="#191970" points="1673.3648,-81.9162 1679.8066,-73.5046 1669.5253,-76.0631 1673.3648,-81.9162"/>
</g>
<!-- Node3 -->
<g id="node4" class="node">
<title>Node3</title>
<polygon fill="#ffffff" stroke="#bfbfbf" points="0,-.5 0,-18.5 45.4629,-18.5 45.4629,-.5 0,-.5"/>
<text text-anchor="middle" x="22.7314" y="-6.5" font-family="Helvetica,sans-Serif" font-size="10.00" fill="#000000">stdio.h</text>
</g>
<!-- Node2&#45;&gt;Node3 -->
<g id="edge3" class="edge">
<title>Node2&#45;&gt;Node3</title>
<path fill="none" stroke="#191970" d="M1658.8583,-64.0659C1437.5038,-61.3141 260.3892,-45.6004 55.681,-18.5424"/>
<polygon fill="#191970" stroke="#191970" points="56.0379,-15.0576 45.6377,-17.0791 55.0286,-21.9844 56.0379,-15.0576"/>
</g>
<!-- Node4 -->
<g id="node5" class="node">
<title>Node4</title>
<polygon fill="#ffffff" stroke="#bfbfbf" points="63.5591,-.5 63.5591,-18.5 117.9038,-18.5 117.9038,-.5 63.5591,-.5"/>
<text text-anchor="middle" x="90.7314" y="-6.5" font-family="Helvetica,sans-Serif" font-size="10.00" fill="#000000">iostream</text>
</g>
<!-- Node2&#45;&gt;Node4 -->
<g id="edge4" class="edge">
<title>Node2&#45;&gt;Node4</title>
<path fill="none" stroke="#191970" d="M1659.0624,-63.9399C1444.2047,-60.5044 325.2655,-41.7163 128.0144,-18.5268"/>
<polygon fill="#191970" stroke="#191970" points="128.4403,-15.0528 118.0742,-17.2424 127.5432,-21.9951 128.4403,-15.0528"/>
</g>
<!-- Node5 -->
<g id="node6" class="node">
<title>Node5</title>
<polygon fill="#ffffff" stroke="#bfbfbf" points="136.3398,-.5 136.3398,-18.5 185.123,-18.5 185.123,-.5 136.3398,-.5"/>
<text text-anchor="middle" x="160.7314" y="-6.5" font-family="Helvetica,sans-Serif" font-size="10.00" fill="#000000">istream</text>
</g>
<!-- Node2&#45;&gt;Node5 -->
<g id="edge5" class="edge">
<title>Node2&#45;&gt;Node5</title>
<path fill="none" stroke="#191970" d="M1659.1855,-63.9547C1450.185,-60.6791 384.2674,-42.9931 195.4408,-18.7528"/>
<polygon fill="#191970" stroke="#191970" points="195.841,-15.2745 185.4482,-17.3337 194.8568,-22.205 195.841,-15.2745"/>
</g>
<!-- Node6 -->
<g id="node7" class="node">
<title>Node6</title>
<polygon fill="#ffffff" stroke="#bfbfbf" points="203.0615,-.5 203.0615,-18.5 252.4014,-18.5 252.4014,-.5 203.0615,-.5"/>
<text text-anchor="middle" x="227.7314" y="-6.5" font-family="Helvetica,sans-Serif" font-size="10.00" fill="#000000">fstream</text>
</g>
<!-- Node2&#45;&gt;Node6 -->
<g id="edge6" class="edge">
<title>Node2&#45;&gt;Node6</title>
<path fill="none" stroke="#191970" d="M1659.102,-63.8994C1455.683,-60.4014 444.1866,-42.0576 262.5289,-18.7635"/>
<polygon fill="#191970" stroke="#191970" points="262.8421,-15.2729 252.4488,-17.3298 261.8563,-22.2032 262.8421,-15.2729"/>
</g>
<!-- Node7 -->
<g id="node8" class="node">
<title>Node7</title>
<polygon fill="#ffffff" stroke="#bfbfbf" points="270.1157,-.5 270.1157,-18.5 313.3472,-18.5 313.3472,-.5 270.1157,-.5"/>
<text text-anchor="middle" x="291.7314" y="-6.5" font-family="Helvetica,sans-Serif" font-size="10.00" fill="#000000">vector</text>
</g>
<!-- Node2&#45;&gt;Node7 -->
<g id="edge7" class="edge">
<title>Node2&#45;&gt;Node7</title>
<path fill="none" stroke="#191970" d="M1658.9737,-63.8992C1460.5257,-60.4887 497.4823,-42.9172 323.398,-18.6877"/>
<polygon fill="#191970" stroke="#191970" points="323.9332,-15.229 313.5153,-17.1571 322.8618,-22.1465 323.9332,-15.229"/>
</g>
<!-- Node8 -->
<g id="node9" class="node">
<title>Node8</title>
<polygon fill="#ffffff" stroke="#bfbfbf" points="331.2217,-.5 331.2217,-18.5 382.2412,-18.5 382.2412,-.5 331.2217,-.5"/>
<text text-anchor="middle" x="356.7314" y="-6.5" font-family="Helvetica,sans-Serif" font-size="10.00" fill="#000000">iomanip</text>
</g>
<!-- Node2&#45;&gt;Node8 -->
<g id="edge8" class="edge">
<title>Node2&#45;&gt;Node8</title>
<path fill="none" stroke="#191970" d="M1659.0448,-64.3628C1478.7597,-63.5027 666.3539,-57.5959 392.4876,-18.6867"/>
<polygon fill="#191970" stroke="#191970" points="392.9864,-15.2225 382.5833,-17.229 391.967,-22.1479 392.9864,-15.2225"/>
</g>
<!-- Node9 -->
<g id="node10" class="node">
<title>Node9</title>
<polygon fill="#ffffff" stroke="#bfbfbf" points="400.271,-.5 400.271,-18.5 505.1919,-18.5 505.1919,-.5 400.271,-.5"/>
<text text-anchor="middle" x="452.7314" y="-6.5" font-family="Helvetica,sans-Serif" font-size="10.00" fill="#000000">Epetra_MpiComm.h</text>
</g>
<!-- Node2&#45;&gt;Node9 -->
<g id="edge9" class="edge">
<title>Node2&#45;&gt;Node9</title>
<path fill="none" stroke="#191970" d="M1659.1004,-63.6857C1489.7674,-59.7313 764.5967,-41.8271 515.3429,-19.0267"/>
<polygon fill="#191970" stroke="#191970" points="515.5393,-15.5298 505.2549,-18.0757 514.8823,-22.4989 515.5393,-15.5298"/>
</g>
<!-- Node10 -->
<g id="node11" class="node">
<title>Node10</title>
<polygon fill="#ffffff" stroke="#bfbfbf" points="522.9878,-.5 522.9878,-18.5 638.4751,-18.5 638.4751,-.5 522.9878,-.5"/>
<text text-anchor="middle" x="580.7314" y="-6.5" font-family="Helvetica,sans-Serif" font-size="10.00" fill="#000000">Epetra_FECrsGraph.h</text>
</g>
<!-- Node2&#45;&gt;Node10 -->
<g id="edge10" class="edge">
<title>Node2&#45;&gt;Node10</title>
<path fill="none" stroke="#191970" d="M1658.9396,-64.2071C1526.4376,-62.8572 1051.1174,-55.6574 648.8804,-19.0122"/>
<polygon fill="#191970" stroke="#191970" points="649.0737,-15.5153 638.7955,-18.0858 648.4334,-22.4859 649.0737,-15.5153"/>
</g>
<!-- Node11 -->
<g id="node12" class="node">
<title>Node11</title>
<polygon fill="#ffffff" stroke="#bfbfbf" points="656.2734,-.5 656.2734,-18.5 771.1895,-18.5 771.1895,-.5 656.2734,-.5"/>
<text text-anchor="middle" x="713.7314" y="-6.5" font-family="Helvetica,sans-Serif" font-size="10.00" fill="#000000">Epetra_FECrsMatrix.h</text>
</g>
<!-- Node2&#45;&gt;Node11 -->
<g id="edge11" class="edge">
<title>Node2&#45;&gt;Node11</title>
<path fill="none" stroke="#191970" d="M1658.8912,-63.919C1537.2367,-61.6936 1128.776,-52.1478 781.2902,-19.0674"/>
<polygon fill="#191970" stroke="#191970" points="781.575,-15.5787 771.2862,-18.1068 780.9059,-22.5467 781.575,-15.5787"/>
</g>
<!-- Node12 -->
<g id="node13" class="node">
<title>Node12</title>
<polygon fill="#ffffff" stroke="#bfbfbf" points="788.7563,-.5 788.7563,-18.5 888.7065,-18.5 888.7065,-.5 788.7563,-.5"/>
<text text-anchor="middle" x="838.7314" y="-6.5" font-family="Helvetica,sans-Serif" font-size="10.00" fill="#000000">Epetra_FEVector.h</text>
</g>
<!-- Node2&#45;&gt;Node12 -->
<g id="edge12" class="edge">
<title>Node2&#45;&gt;Node12</title>
<path fill="none" stroke="#191970" d="M1658.8766,-63.7636C1547.6523,-61.2019 1198.4782,-51.075 899.0782,-19.0366"/>
<polygon fill="#191970" stroke="#191970" points="899.2142,-15.5311 888.8961,-17.9365 898.4622,-22.4906 899.2142,-15.5311"/>
</g>
<!-- Node13 -->
<g id="node14" class="node">
<title>Node13</title>
<polygon fill="#ffffff" stroke="#bfbfbf" points="907.1455,-.5 907.1455,-18.5 994.3174,-18.5 994.3174,-.5 907.1455,-.5"/>
<text text-anchor="middle" x="950.7314" y="-6.5" font-family="Helvetica,sans-Serif" font-size="10.00" fill="#000000">Epetra_Vector.h</text>
</g>
<!-- Node2&#45;&gt;Node13 -->
<g id="edge13" class="edge">
<title>Node2&#45;&gt;Node13</title>
<path fill="none" stroke="#191970" d="M1658.9986,-63.554C1557.953,-60.5804 1261.4046,-49.7945 1004.6159,-18.9621"/>
<polygon fill="#191970" stroke="#191970" points="1004.6947,-15.4461 994.3458,-17.7156 1003.8513,-22.3951 1004.6947,-15.4461"/>
</g>
<!-- Node14 -->
<g id="node15" class="node">
<title>Node14</title>
<polygon fill="#ffffff" stroke="#bfbfbf" points="1012.3228,-.5 1012.3228,-18.5 1091.1401,-18.5 1091.1401,-.5 1012.3228,-.5"/>
<text text-anchor="middle" x="1051.7314" y="-6.5" font-family="Helvetica,sans-Serif" font-size="10.00" fill="#000000">Epetra_Map.h</text>
</g>
<!-- Node2&#45;&gt;Node14 -->
<g id="edge14" class="edge">
<title>Node2&#45;&gt;Node14</title>
<path fill="none" stroke="#191970" d="M1659.0303,-63.253C1567.7629,-59.7495 1318.3715,-48.192 1101.2108,-19.0586"/>
<polygon fill="#191970" stroke="#191970" points="1101.6014,-15.5796 1091.2215,-17.7028 1100.6599,-22.516 1101.6014,-15.5796"/>
</g>
<!-- Node15 -->
<g id="node16" class="node">
<title>Node15</title>
<polygon fill="#ffffff" stroke="#bfbfbf" points="1109.2021,-.5 1109.2021,-18.5 1250.2607,-18.5 1250.2607,-.5 1109.2021,-.5"/>
<text text-anchor="middle" x="1179.7314" y="-6.5" font-family="Helvetica,sans-Serif" font-size="10.00" fill="#000000">Epetra_SerialDenseMatrix.h</text>
</g>
<!-- Node2&#45;&gt;Node15 -->
<g id="edge15" class="edge">
<title>Node2&#45;&gt;Node15</title>
<path fill="none" stroke="#191970" d="M1659.1059,-60.9734C1586.2929,-53.7245 1414.9176,-36.4523 1260.5054,-19.1862"/>
<polygon fill="#191970" stroke="#191970" points="1260.688,-15.6848 1250.3603,-18.049 1259.9081,-22.6413 1260.688,-15.6848"/>
</g>
<!-- Node16 -->
<g id="node17" class="node">
<title>Node16</title>
<polygon fill="#ffffff" stroke="#bfbfbf" points="1267.9092,-.5 1267.9092,-18.5 1409.5537,-18.5 1409.5537,-.5 1267.9092,-.5"/>
<text text-anchor="middle" x="1338.7314" y="-6.5" font-family="Helvetica,sans-Serif" font-size="10.00" fill="#000000">Epetra_SerialDenseVector.h</text>
</g>
<!-- Node2&#45;&gt;Node16 -->
<g id="edge16" class="edge">
<title>Node2&#45;&gt;Node16</title>
<path fill="none" stroke="#191970" d="M1658.9668,-58.9746C1600.2791,-49.9076 1482.5598,-31.7207 1407.3626,-20.1031"/>
<polygon fill="#191970" stroke="#191970" points="1407.4619,-16.577 1397.0447,-18.5091 1406.3931,-23.4949 1407.4619,-16.577"/>
</g>
<!-- Node17 -->
<g id="node18" class="node">
<title>Node17</title>
<polygon fill="#ffffff" stroke="#bfbfbf" points="1427.3501,-.5 1427.3501,-18.5 1580.1128,-18.5 1580.1128,-.5 1427.3501,-.5"/>
<text text-anchor="middle" x="1503.7314" y="-6.5" font-family="Helvetica,sans-Serif" font-size="10.00" fill="#000000">Epetra_IntSerialDenseVector.h</text>
</g>
<!-- Node2&#45;&gt;Node17 -->
<g id="edge17" class="edge">
<title>Node2&#45;&gt;Node17</title>
<path fill="none" stroke="#191970" d="M1663.1917,-55.4179C1630.8855,-46.115 1580.5066,-31.608 1545.0369,-21.3943"/>
<polygon fill="#191970" stroke="#191970" points="1545.5787,-17.9081 1535.0006,-18.5042 1543.6416,-24.6348 1545.5787,-17.9081"/>
</g>
<!-- Node18 -->
<g id="node19" class="node">
<title>Node18</title>
<polygon fill="#ffffff" stroke="#bfbfbf" points="1597.8794,-.5 1597.8794,-18.5 1685.5835,-18.5 1685.5835,-.5 1597.8794,-.5"/>
<text text-anchor="middle" x="1641.7314" y="-6.5" font-family="Helvetica,sans-Serif" font-size="10.00" fill="#000000">Epetra_Import.h</text>
</g>
<!-- Node2&#45;&gt;Node18 -->
<g id="edge18" class="edge">
<title>Node2&#45;&gt;Node18</title>
<path fill="none" stroke="#191970" d="M1685.9796,-55.4179C1678.3536,-47.5041 1667.0985,-35.8243 1657.8484,-26.2251"/>
<polygon fill="#191970" stroke="#191970" points="1660.1327,-23.5516 1650.6735,-18.7795 1655.0921,-28.4089 1660.1327,-23.5516"/>
</g>
<!-- Node19 -->
<g id="node20" class="node">
<title>Node19</title>
<polygon fill="#ffffff" stroke="#bfbfbf" points="1703.5986,-.5 1703.5986,-18.5 1791.8643,-18.5 1791.8643,-.5 1703.5986,-.5"/>
<text text-anchor="middle" x="1747.7314" y="-6.5" font-family="Helvetica,sans-Serif" font-size="10.00" fill="#000000">Epetra_Export.h</text>
</g>
<!-- Node2&#45;&gt;Node19 -->
<g id="edge19" class="edge">
<title>Node2&#45;&gt;Node19</title>
<path fill="none" stroke="#191970" d="M1703.4833,-55.4179C1711.1093,-47.5041 1722.3644,-35.8243 1731.6145,-26.2251"/>
<polygon fill="#191970" stroke="#191970" points="1734.3707,-28.4089 1738.7894,-18.7795 1729.3302,-23.5516 1734.3707,-28.4089"/>
</g>
<!-- Node20 -->
<g id="node21" class="node">
<title>Node20</title>
<polygon fill="#ffffff" stroke="#bfbfbf" points="1810.1216,-.5 1810.1216,-18.5 1891.3413,-18.5 1891.3413,-.5 1810.1216,-.5"/>
<text text-anchor="middle" x="1850.7314" y="-6.5" font-family="Helvetica,sans-Serif" font-size="10.00" fill="#000000">Epetra_Time.h</text>
</g>
<!-- Node2&#45;&gt;Node20 -->
<g id="edge20" class="edge">
<title>Node2&#45;&gt;Node20</title>
<path fill="none" stroke="#191970" d="M1720.4917,-55.4179C1746.4249,-46.2748 1786.6166,-32.1046 1815.4924,-21.924"/>
<polygon fill="#191970" stroke="#191970" points="1816.925,-25.1302 1825.1922,-18.5042 1814.5974,-18.5285 1816.925,-25.1302"/>
</g>
<!-- Node21 -->
<g id="node22" class="node">
<title>Node21</title>
<polygon fill="#ffffff" stroke="#bfbfbf" points="1909.0273,-.5 1909.0273,-18.5 2058.4355,-18.5 2058.4355,-.5 1909.0273,-.5"/>
<text text-anchor="middle" x="1983.7314" y="-6.5" font-family="Helvetica,sans-Serif" font-size="10.00" fill="#000000">ml_MultiLevelPreconditioner.h</text>
</g>
<!-- Node2&#45;&gt;Node21 -->
<g id="edge21" class="edge">
<title>Node2&#45;&gt;Node21</title>
<path fill="none" stroke="#191970" d="M1730.4584,-57.7008C1779.3954,-48.3875 1867.8393,-31.5556 1926.1801,-20.4527"/>
<polygon fill="#191970" stroke="#191970" points="1927.1787,-23.8255 1936.3481,-18.5176 1925.87,-16.9489 1927.1787,-23.8255"/>
</g>
<!-- Node22 -->
<g id="node23" class="node">
<title>Node22</title>
<polygon fill="#ffffff" stroke="#bfbfbf" points="2076.6553,-.5 2076.6553,-18.5 2168.8076,-18.5 2168.8076,-.5 2076.6553,-.5"/>
<text text-anchor="middle" x="2122.7314" y="-6.5" font-family="Helvetica,sans-Serif" font-size="10.00" fill="#000000">ml_epetra_utils.h</text>
</g>
<!-- Node2&#45;&gt;Node22 -->
<g id="edge22" class="edge">
<title>Node2&#45;&gt;Node22</title>
<path fill="none" stroke="#191970" d="M1730.2967,-60.7566C1795.0428,-53.8131 1936.7024,-38.0295 2066.4313,-19.1321"/>
<polygon fill="#191970" stroke="#191970" points="2067.1583,-22.563 2076.5446,-17.649 2066.1426,-15.6371 2067.1583,-22.563"/>
</g>
<!-- Node23 -->
<g id="node24" class="node">
<title>Node23</title>
<polygon fill="#ffffff" stroke="#bfbfbf" points="2186.6602,-.5 2186.6602,-18.5 2258.8027,-18.5 2258.8027,-.5 2186.6602,-.5"/>
<text text-anchor="middle" x="2222.7314" y="-6.5" font-family="Helvetica,sans-Serif" font-size="10.00" fill="#000000">ml_include.h</text>
</g>
<!-- Node2&#45;&gt;Node23 -->
<g id="edge23" class="edge">
<title>Node2&#45;&gt;Node23</title>
<path fill="none" stroke="#191970" d="M1730.3506,-62.5405C1809.0479,-57.9124 2003.8003,-44.8179 2176.42,-19.0465"/>
<polygon fill="#191970" stroke="#191970" points="2177.0823,-22.4863 2186.447,-17.5313 2176.0363,-15.5648 2177.0823,-22.4863"/>
</g>
<!-- Node24 -->
<g id="node25" class="node">
<title>Node24</title>
<polygon fill="#ffffff" stroke="#bfbfbf" points="2277.1528,-.5 2277.1528,-18.5 2414.3101,-18.5 2414.3101,-.5 2277.1528,-.5"/>
<text text-anchor="middle" x="2345.7314" y="-6.5" font-family="Helvetica,sans-Serif" font-size="10.00" fill="#000000">EpetraExt_RowMatrixOut.h</text>
</g>
<!-- Node2&#45;&gt;Node24 -->
<g id="edge24" class="edge">
<title>Node2&#45;&gt;Node24</title>
<path fill="none" stroke="#191970" d="M1730.317,-62.1957C1818.9813,-56.3427 2057.0837,-39.9414 2266.8773,-19.0473"/>
<polygon fill="#191970" stroke="#191970" points="2267.244,-22.5281 2276.8454,-18.0489 2266.5464,-15.563 2267.244,-22.5281"/>
</g>
<!-- Node25 -->
<g id="node26" class="node">
<title>Node25</title>
<polygon fill="#ffffff" stroke="#bfbfbf" points="2432.0322,-.5 2432.0322,-18.5 2571.4307,-18.5 2571.4307,-.5 2432.0322,-.5"/>
<text text-anchor="middle" x="2501.7314" y="-6.5" font-family="Helvetica,sans-Serif" font-size="10.00" fill="#000000">EpetraExt_MultiVectorOut.h</text>
</g>
<!-- Node2&#45;&gt;Node25 -->
<g id="edge25" class="edge">
<title>Node2&#45;&gt;Node25</title>
<path fill="none" stroke="#191970" d="M1730.4413,-63.0171C1835.0596,-58.5142 2150.1034,-43.8255 2421.9539,-19.1183"/>
<polygon fill="#191970" stroke="#191970" points="2422.3728,-22.5946 2432.0121,-18.1977 2421.7347,-15.6238 2422.3728,-22.5946"/>
</g>
<!-- Node26 -->
<g id="node27" class="node">
<title>Node26</title>
<polygon fill="#ffffff" stroke="#bfbfbf" points="2589.478,-.5 2589.478,-18.5 2699.9849,-18.5 2699.9849,-.5 2589.478,-.5"/>
<text text-anchor="middle" x="2644.7314" y="-6.5" font-family="Helvetica,sans-Serif" font-size="10.00" fill="#000000">EpetraExt_VectorIn.h</text>
</g>
<!-- Node2&#45;&gt;Node26 -->
<g id="edge26" class="edge">
<title>Node2&#45;&gt;Node26</title>
<path fill="none" stroke="#191970" d="M1730.2736,-63.8997C1849.0243,-61.6356 2243.023,-52.0402 2578.8505,-19.097"/>
<polygon fill="#191970" stroke="#191970" points="2579.6625,-22.5339 2589.269,-18.0656 2578.9728,-15.5679 2579.6625,-22.5339"/>
</g>
<!-- Node27 -->
<g id="node28" class="node">
<title>Node27</title>
<polygon fill="#ffffff" stroke="#bfbfbf" points="2717.9214,-.5 2717.9214,-18.5 2849.5415,-18.5 2849.5415,-.5 2717.9214,-.5"/>
<text text-anchor="middle" x="2783.7314" y="-6.5" font-family="Helvetica,sans-Serif" font-size="10.00" fill="#000000">EpetraExt_MultiVectorIn.h</text>
</g>
<!-- Node2&#45;&gt;Node27 -->
<g id="edge27" class="edge">
<title>Node2&#45;&gt;Node27</title>
<path fill="none" stroke="#191970" d="M1730.273,-63.9487C1859.743,-61.7209 2318.4822,-51.9065 2707.8615,-18.9997"/>
<polygon fill="#191970" stroke="#191970" points="2708.2465,-22.4797 2717.9135,-18.1437 2707.6525,-15.5049 2708.2465,-22.4797"/>
</g>
<!-- Node28 -->
<g id="node29" class="node">
<title>Node28</title>
<polygon fill="#ffffff" stroke="#bfbfbf" points="2867.6841,-.5 2867.6841,-18.5 2965.7788,-18.5 2965.7788,-.5 2867.6841,-.5"/>
<text text-anchor="middle" x="2916.7314" y="-6.5" font-family="Helvetica,sans-Serif" font-size="10.00" fill="#000000">Teuchos_RCP.hpp</text>
</g>
<!-- Node2&#45;&gt;Node28 -->
<g id="edge28" class="edge">
<title>Node2&#45;&gt;Node28</title>
<path fill="none" stroke="#191970" d="M1730.4173,-63.6991C1898.2891,-59.8419 2611.1473,-42.4409 2857.1183,-19.0136"/>
<polygon fill="#191970" stroke="#191970" points="2857.8158,-22.462 2867.4254,-18.0004 2857.131,-15.4956 2857.8158,-22.462"/>
</g>
<!-- Node29 -->
<g id="node30" class="node">
<title>Node29</title>
<polygon fill="#ffffff" stroke="#bfbfbf" points="2983.5,-.5 2983.5,-18.5 3043.9629,-18.5 3043.9629,-.5 2983.5,-.5"/>
<text text-anchor="middle" x="3013.7314" y="-6.5" font-family="Helvetica,sans-Serif" font-size="10.00" fill="#000000">Amesos.h</text>
</g>
<!-- Node2&#45;&gt;Node29 -->
<g id="edge29" class="edge">
<title>Node2&#45;&gt;Node29</title>
<path fill="none" stroke="#191970" d="M1730.3641,-64.2125C1908.4772,-62.6281 2704.0239,-53.7747 2973.0727,-18.9197"/>
<polygon fill="#191970" stroke="#191970" points="2973.7422,-22.3613 2983.1878,-17.5622 2972.8111,-15.4235 2973.7422,-22.3613"/>
</g>
<!-- Node30 -->
<g id="node31" class="node">
<title>Node30</title>
<polygon fill="#ffffff" stroke="#bfbfbf" points="3062.2783,-.5 3062.2783,-18.5 3127.1846,-18.5 3127.1846,-.5 3062.2783,-.5"/>
<text text-anchor="middle" x="3094.7314" y="-6.5" font-family="Helvetica,sans-Serif" font-size="10.00" fill="#000000">AztecOO.h</text>
</g>
<!-- Node2&#45;&gt;Node30 -->
<g id="edge30" class="edge">
<title>Node2&#45;&gt;Node30</title>
<path fill="none" stroke="#191970" d="M1730.3422,-64.2178C1915.013,-62.6177 2765.7398,-53.5365 3051.8828,-18.8079"/>
<polygon fill="#191970" stroke="#191970" points="3052.3348,-22.2787 3061.8216,-17.5616 3051.4638,-15.3331 3052.3348,-22.2787"/>
</g>
<!-- Node31 -->
<g id="node32" class="node">
<title>Node31</title>
<polygon fill="#ffffff" stroke="#bfbfbf" points="3145.4238,-.5 3145.4238,-18.5 3262.0391,-18.5 3262.0391,-.5 3145.4238,-.5"/>
<text text-anchor="middle" x="3203.7314" y="-6.5" font-family="Helvetica,sans-Serif" font-size="10.00" fill="#000000">Amesos_BaseSolver.h</text>
</g>
<!-- Node2&#45;&gt;Node31 -->
<g id="edge31" class="edge">
<title>Node2&#45;&gt;Node31</title>
<path fill="none" stroke="#191970" d="M1730.5419,-63.8911C1922.2767,-60.5524 2829.7836,-43.7411 3135.0059,-18.9357"/>
<polygon fill="#191970" stroke="#191970" points="3135.4968,-22.407 3145.1711,-18.0874 3134.9146,-15.4312 3135.4968,-22.407"/>
</g>
<!-- Node32 -->
<g id="node33" class="node">
<title>Node32</title>
<polygon fill="#ffffff" stroke="#bfbfbf" points="3279.6157,-.5 3279.6157,-18.5 3327.8472,-18.5 3327.8472,-.5 3279.6157,-.5"/>
<text text-anchor="middle" x="3303.7314" y="-6.5" font-family="Helvetica,sans-Serif" font-size="10.00" fill="#000000">metis.h</text>
</g>
<!-- Node2&#45;&gt;Node32 -->
<g id="edge32" class="edge">
<title>Node2&#45;&gt;Node32</title>
<path fill="none" stroke="#191970" d="M1730.259,-64.0098C1945.5204,-60.97 3072.263,-44.0449 3269.4483,-18.6604"/>
<polygon fill="#191970" stroke="#191970" points="3269.9681,-22.1218 3279.3768,-17.2507 3268.984,-15.1913 3269.9681,-22.1218"/>
</g>
<!-- Node33 -->
<g id="node34" class="node">
<title>Node33</title>
<g id="a_node34"><a xlink:href="../../d4/dbc/fepp_8hpp.html" target="_top" xlink:title="fepp.hpp">
<polygon fill="#ffffff" stroke="#000000" points="3346.2686,-.5 3346.2686,-18.5 3401.1943,-18.5 3401.1943,-.5 3346.2686,-.5"/>
<text text-anchor="middle" x="3373.7314" y="-6.5" font-family="Helvetica,sans-Serif" font-size="10.00" fill="#000000">fepp.hpp</text>
</a>
</g>
</g>
<!-- Node2&#45;&gt;Node33 -->
<g id="edge33" class="edge">
<title>Node2&#45;&gt;Node33</title>
<path fill="none" stroke="#191970" d="M1730.498,-63.9548C1955.0042,-60.5808 3164.3761,-41.9396 3327.7314,-19 3330.5021,-18.6109 3333.3644,-18.0921 3336.2532,-17.4968"/>
<polygon fill="#191970" stroke="#191970" points="3337.1103,-20.8913 3346.0822,-15.2561 3335.5544,-14.0664 3337.1103,-20.8913"/>
</g>
<!-- Node33&#45;&gt;Node2 -->
<g id="edge34" class="edge">
<title>Node33&#45;&gt;Node2</title>
<path fill="none" stroke="#191970" d="M3348.9155,-18.5042C3347.8462,-18.6862 3346.7822,-18.8524 3345.7314,-19 3183.5582,-41.7736 1990.4524,-60.3108 1740.5229,-63.8791"/>
<polygon fill="#191970" stroke="#191970" points="1740.2921,-60.3819 1730.3429,-64.0236 1740.3915,-67.3812 1740.2921,-60.3819"/>
</g>
<!-- Node35 -->
<g id="node36" class="node">
<title>Node35</title>
<g id="a_node36"><a xlink:href="../../d2/d8b/_finite___element___problem_8hpp.html" target="_top" xlink:title="Finite_Element_Problem.hpp">
<polygon fill="#ffffff" stroke="#000000" points="1593.2515,-170.5 1593.2515,-188.5 1738.2114,-188.5 1738.2114,-170.5 1593.2515,-170.5"/>
<text text-anchor="middle" x="1665.7314" y="-176.5" font-family="Helvetica,sans-Serif" font-size="10.00" fill="#000000">Finite_Element_Problem.hpp</text>
</a>
</g>
</g>
<!-- Node34&#45;&gt;Node35 -->
<g id="edge36" class="edge">
<title>Node34&#45;&gt;Node35</title>
<path fill="none" stroke="#191970" d="M1665.7314,-285.2632C1665.7314,-263.7178 1665.7314,-222.7893 1665.7314,-198.6524"/>
<polygon fill="#191970" stroke="#191970" points="1669.2315,-198.5918 1665.7314,-188.5918 1662.2315,-198.5918 1669.2315,-198.5918"/>
</g>
<!-- Node37 -->
<g id="node38" class="node">
<title>Node37</title>
<g id="a_node38"><a xlink:href="../../d5/d3f/laplacepp_8hpp.html" target="_top" xlink:title="laplacepp.hpp">
<polygon fill="#ffffff" stroke="#000000" points="1734.5938,-230.5 1734.5938,-248.5 1812.8691,-248.5 1812.8691,-230.5 1734.5938,-230.5"/>
<text text-anchor="middle" x="1773.7314" y="-236.5" font-family="Helvetica,sans-Serif" font-size="10.00" fill="#000000">laplacepp.hpp</text>
</a>
</g>
</g>
<!-- Node34&#45;&gt;Node37 -->
<g id="edge40" class="edge">
<title>Node34&#45;&gt;Node37</title>
<path fill="none" stroke="#191970" d="M1691.0526,-285.4327C1708.3071,-275.8468 1731.0648,-263.2037 1748.3352,-253.609"/>
<polygon fill="#191970" stroke="#191970" points="1750.2537,-256.5471 1757.2955,-248.6311 1746.8542,-250.428 1750.2537,-256.5471"/>
</g>
<!-- Node35&#45;&gt;Node2 -->
<g id="edge37" class="edge">
<title>Node35&#45;&gt;Node2</title>
<path fill="none" stroke="#191970" d="M1665.8667,-170.3264C1666.2702,-156.8579 1667.8263,-131.0495 1673.7314,-110 1676.3711,-100.5906 1680.7374,-90.6785 1684.8069,-82.5164"/>
<polygon fill="#191970" stroke="#191970" points="1687.9483,-84.0622 1689.4876,-73.5797 1681.7473,-80.8143 1687.9483,-84.0622"/>
</g>
<!-- Node36 -->
<g id="node37" class="node">
<title>Node36</title>
<g id="a_node37"><a xlink:href="../../d0/d41/_base_class_f_e_m_8hpp.html" target="_top" xlink:title="BaseClassFEM.hpp">
<polygon fill="#ffffff" stroke="#000000" points="1682.5469,-110.5 1682.5469,-128.5 1786.916,-128.5 1786.916,-110.5 1682.5469,-110.5"/>
<text text-anchor="middle" x="1734.7314" y="-116.5" font-family="Helvetica,sans-Serif" font-size="10.00" fill="#000000">BaseClassFEM.hpp</text>
</a>
</g>
</g>
<!-- Node35&#45;&gt;Node36 -->
<g id="edge38" class="edge">
<title>Node35&#45;&gt;Node36</title>
<path fill="none" stroke="#191970" d="M1676.2111,-170.3873C1686.8496,-161.1364 1703.5377,-146.625 1716.3753,-135.4618"/>
<polygon fill="#191970" stroke="#191970" points="1718.9038,-137.9014 1724.1532,-128.6985 1714.3105,-132.6192 1718.9038,-137.9014"/>
</g>
<!-- Node36&#45;&gt;Node2 -->
<g id="edge39" class="edge">
<title>Node36&#45;&gt;Node2</title>
<path fill="none" stroke="#191970" d="M1728.1263,-110.4179C1722.5435,-102.7415 1714.3836,-91.5217 1707.5274,-82.0945"/>
<polygon fill="#191970" stroke="#191970" points="1710.1925,-79.8082 1701.4801,-73.7795 1704.5313,-83.9255 1710.1925,-79.8082"/>
</g>
<!-- Node38 -->
<g id="node39" class="node">
<title>Node38</title>
<g id="a_node39"><a xlink:href="../../d9/dea/_linear___finite___element___problem_8hpp.html" target="_top" xlink:title="Linear_Finite_Element\l_Problem.hpp">
<polygon fill="#ffffff" stroke="#000000" points="1756.7021,-165.5 1756.7021,-193.5 1872.7607,-193.5 1872.7607,-165.5 1756.7021,-165.5"/>
<text text-anchor="start" x="1764.7021" y="-181.5" font-family="Helvetica,sans-Serif" font-size="10.00" fill="#000000">Linear_Finite_Element</text>
<text text-anchor="middle" x="1814.7314" y="-171.5" font-family="Helvetica,sans-Serif" font-size="10.00" fill="#000000">_Problem.hpp</text>
</a>
</g>
</g>
<!-- Node37&#45;&gt;Node38 -->
<g id="edge41" class="edge">
<title>Node37&#45;&gt;Node38</title>
<path fill="none" stroke="#191970" d="M1779.9585,-230.3873C1785.0352,-222.9579 1792.4304,-212.1356 1799.0971,-202.3796"/>
<polygon fill="#191970" stroke="#191970" points="1802.175,-204.0788 1804.9272,-193.8477 1796.3955,-200.1294 1802.175,-204.0788"/>
</g>
<!-- Node38&#45;&gt;Node2 -->
<g id="edge42" class="edge">
<title>Node38&#45;&gt;Node2</title>
<path fill="none" stroke="#191970" d="M1814.3191,-165.3453C1813.1578,-150.0262 1809.141,-125.6898 1795.7314,-110 1781.408,-93.2409 1759.6606,-82.3675 1740.0099,-75.4691"/>
<polygon fill="#191970" stroke="#191970" points="1740.8676,-72.0677 1730.2754,-72.3038 1738.703,-78.7246 1740.8676,-72.0677"/>
</g>
<!-- Node38&#45;&gt;Node36 -->
<g id="edge43" class="edge">
<title>Node38&#45;&gt;Node36</title>
<path fill="none" stroke="#191970" d="M1795.7726,-165.2808C1783.4589,-156.0456 1767.4261,-144.021 1754.8821,-134.613"/>
<polygon fill="#191970" stroke="#191970" points="1756.9437,-131.7842 1746.8437,-128.5842 1752.7437,-137.3842 1756.9437,-131.7842"/>
</g>
</g>
</svg>
