<?xml version="1.0" encoding="UTF-8" standalone="no"?>
<!DOCTYPE svg PUBLIC "-//W3C//DTD SVG 1.1//EN"
 "http://www.w3.org/Graphics/SVG/1.1/DTD/svg11.dtd">
<!-- Generated by graphviz version 2.40.1 (20161225.0304)
 -->
<!-- Title: src/tensor_calculus.hpp Pages: 1 -->
<svg width="1858pt" height="232pt"
 viewBox="0.00 0.00 1858.46 232.00" xmlns="http://www.w3.org/2000/svg" xmlns:xlink="http://www.w3.org/1999/xlink">
<g id="graph0" class="graph" transform="scale(1 1) rotate(0) translate(4 228)">
<title>src/tensor_calculus.hpp</title>
<polygon fill="#ffffff" stroke="transparent" points="-4,4 -4,-228 1854.4551,-228 1854.4551,4 -4,4"/>
<!-- Node33 -->
<g id="node1" class="node">
<title>Node33</title>
<polygon fill="#bfbfbf" stroke="#000000" points="727.2363,-205.5 727.2363,-223.5 848.29,-223.5 848.29,-205.5 727.2363,-205.5"/>
<text text-anchor="middle" x="787.7632" y="-211.5" font-family="Helvetica,sans-Serif" font-size="10.00" fill="#000000">src/tensor_calculus.hpp</text>
</g>
<!-- Node34 -->
<g id="node2" class="node">
<title>Node34</title>
<g id="a_node2"><a xlink:href="../../d4/d56/cee530_2manufactured_2manufactured_solution_8hpp.html" target="_top" xlink:title="cee530/manufactured\l/manufacturedSolution.hpp">
<polygon fill="#ffffff" stroke="#000000" points="0,-135.5 0,-163.5 135.5264,-163.5 135.5264,-135.5 0,-135.5"/>
<text text-anchor="start" x="8" y="-151.5" font-family="Helvetica,sans-Serif" font-size="10.00" fill="#000000">cee530/manufactured</text>
<text text-anchor="middle" x="67.7632" y="-141.5" font-family="Helvetica,sans-Serif" font-size="10.00" fill="#000000">/manufacturedSolution.hpp</text>
</a>
</g>
</g>
<!-- Node33&#45;&gt;Node34 -->
<g id="edge1" class="edge">
<title>Node33&#45;&gt;Node34</title>
<path fill="none" stroke="#191970" d="M717.0048,-213.585C598.0811,-211.1352 350.9025,-202.1267 144.7632,-169 136.0493,-167.5997 126.8799,-165.6808 118.0273,-163.5901"/>
<polygon fill="#191970" stroke="#191970" points="717.0052,-217.0856 727.0721,-213.7829 717.1428,-210.0869 717.0052,-217.0856"/>
</g>
<!-- Node36 -->
<g id="node4" class="node">
<title>Node36</title>
<g id="a_node4"><a xlink:href="../../d9/d6b/_c_e_e_s_b_v_p_8hpp.html" target="_top" xlink:title="cee530/sbvp/CEESBVP.hpp">
<polygon fill="#ffffff" stroke="#000000" points="153.312,-140.5 153.312,-158.5 294.2144,-158.5 294.2144,-140.5 153.312,-140.5"/>
<text text-anchor="middle" x="223.7632" y="-146.5" font-family="Helvetica,sans-Serif" font-size="10.00" fill="#000000">cee530/sbvp/CEESBVP.hpp</text>
</a>
</g>
</g>
<!-- Node33&#45;&gt;Node36 -->
<g id="edge3" class="edge">
<title>Node33&#45;&gt;Node36</title>
<path fill="none" stroke="#191970" d="M716.8446,-211.1502C621.9805,-205.9177 448.784,-193.7303 302.7632,-169 287.1632,-166.358 270.0921,-162.2953 255.823,-158.5607"/>
<polygon fill="#191970" stroke="#191970" points="716.7225,-214.6487 726.8972,-211.6948 717.1012,-207.6589 716.7225,-214.6487"/>
</g>
<!-- Node37 -->
<g id="node5" class="node">
<title>Node37</title>
<g id="a_node5"><a xlink:href="../../de/d4a/rubberblock_8hpp.html" target="_top" xlink:title="examples/rubberblock\l/rubberblock.hpp">
<polygon fill="#ffffff" stroke="#000000" points="311.8496,-135.5 311.8496,-163.5 425.6768,-163.5 425.6768,-135.5 311.8496,-135.5"/>
<text text-anchor="start" x="319.8496" y="-151.5" font-family="Helvetica,sans-Serif" font-size="10.00" fill="#000000">examples/rubberblock</text>
<text text-anchor="middle" x="368.7632" y="-141.5" font-family="Helvetica,sans-Serif" font-size="10.00" fill="#000000">/rubberblock.hpp</text>
</a>
</g>
</g>
<!-- Node33&#45;&gt;Node37 -->
<g id="edge4" class="edge">
<title>Node33&#45;&gt;Node37</title>
<path fill="none" stroke="#191970" d="M716.7322,-208.6917C645.0487,-202.0485 531.4359,-189.3762 434.7632,-169 427.6316,-167.4968 420.1513,-165.6029 412.8934,-163.5897"/>
<polygon fill="#191970" stroke="#191970" points="716.7205,-212.2051 726.9972,-209.6283 717.3566,-205.2341 716.7205,-212.2051"/>
</g>
<!-- Node39 -->
<g id="node7" class="node">
<title>Node39</title>
<g id="a_node7"><a xlink:href="../../da/dcd/nrl_2manufactured__solution_2manufactured_solution_8hpp.html" target="_top" xlink:title="nrl/manufactured_solution\l/manufacturedSolution.hpp">
<polygon fill="#ffffff" stroke="#000000" points="444,-135.5 444,-163.5 579.5264,-163.5 579.5264,-135.5 444,-135.5"/>
<text text-anchor="start" x="452" y="-151.5" font-family="Helvetica,sans-Serif" font-size="10.00" fill="#000000">nrl/manufactured_solution</text>
<text text-anchor="middle" x="511.7632" y="-141.5" font-family="Helvetica,sans-Serif" font-size="10.00" fill="#000000">/manufacturedSolution.hpp</text>
</a>
</g>
</g>
<!-- Node33&#45;&gt;Node39 -->
<g id="edge6" class="edge">
<title>Node33&#45;&gt;Node39</title>
<path fill="none" stroke="#191970" d="M736.4207,-203.2268C695.9669,-194.2461 638.1755,-181.1993 587.7632,-169 580.6137,-167.2699 573.0989,-165.402 565.6909,-163.5315"/>
<polygon fill="#191970" stroke="#191970" points="735.7966,-206.6733 746.317,-205.4194 737.3109,-199.839 735.7966,-206.6733"/>
</g>
<!-- Node41 -->
<g id="node9" class="node">
<title>Node41</title>
<g id="a_node9"><a xlink:href="../../d3/df7/_a_s_m_e_s_b_v_p_8hpp.html" target="_top" xlink:title="src/ASMESBVP.hpp">
<polygon fill="#ffffff" stroke="#000000" points="597.1123,-140.5 597.1123,-158.5 702.4141,-158.5 702.4141,-140.5 597.1123,-140.5"/>
<text text-anchor="middle" x="649.7632" y="-146.5" font-family="Helvetica,sans-Serif" font-size="10.00" fill="#000000">src/ASMESBVP.hpp</text>
</a>
</g>
</g>
<!-- Node33&#45;&gt;Node41 -->
<g id="edge8" class="edge">
<title>Node33&#45;&gt;Node41</title>
<path fill="none" stroke="#191970" d="M759.2887,-201.0881C732.3728,-188.4103 692.7134,-169.7302 669.2334,-158.6708"/>
<polygon fill="#191970" stroke="#191970" points="758.0368,-204.3672 768.5749,-205.462 761.0196,-198.0345 758.0368,-204.3672"/>
</g>
<!-- Node43 -->
<g id="node11" class="node">
<title>Node43</title>
<g id="a_node11"><a xlink:href="../../df/dc0/_compressible___mooney___transverse___isotropic_8hpp.html" target="_top" xlink:title="src/Compressible_Mooney\l_Transverse_Isotropic.hpp">
<polygon fill="#ffffff" stroke="#000000" points="720.5737,-135.5 720.5737,-163.5 854.9526,-163.5 854.9526,-135.5 720.5737,-135.5"/>
<text text-anchor="start" x="728.5737" y="-151.5" font-family="Helvetica,sans-Serif" font-size="10.00" fill="#000000">src/Compressible_Mooney</text>
<text text-anchor="middle" x="787.7632" y="-141.5" font-family="Helvetica,sans-Serif" font-size="10.00" fill="#000000">_Transverse_Isotropic.hpp</text>
</a>
</g>
</g>
<!-- Node33&#45;&gt;Node43 -->
<g id="edge10" class="edge">
<title>Node33&#45;&gt;Node43</title>
<path fill="none" stroke="#191970" d="M787.7632,-195.2652C787.7632,-185.2384 787.7632,-173.1782 787.7632,-163.9559"/>
<polygon fill="#191970" stroke="#191970" points="784.2633,-195.462 787.7632,-205.462 791.2633,-195.4621 784.2633,-195.462"/>
</g>
<!-- Node47 -->
<g id="node15" class="node">
<title>Node47</title>
<g id="a_node15"><a xlink:href="../../d0/d77/_compressible___mooney___transverse___isotropic___random___field_8hpp.html" target="_top" xlink:title="src/Compressible_Mooney\l_Transverse_Isotropic\l_Random_Field.hpp">
<polygon fill="#ffffff" stroke="#000000" points="872.5737,-130.5 872.5737,-168.5 1006.9526,-168.5 1006.9526,-130.5 872.5737,-130.5"/>
<text text-anchor="start" x="880.5737" y="-156.5" font-family="Helvetica,sans-Serif" font-size="10.00" fill="#000000">src/Compressible_Mooney</text>
<text text-anchor="start" x="880.5737" y="-146.5" font-family="Helvetica,sans-Serif" font-size="10.00" fill="#000000">_Transverse_Isotropic</text>
<text text-anchor="middle" x="939.7632" y="-136.5" font-family="Helvetica,sans-Serif" font-size="10.00" fill="#000000">_Random_Field.hpp</text>
</a>
</g>
</g>
<!-- Node33&#45;&gt;Node47 -->
<g id="edge14" class="edge">
<title>Node33&#45;&gt;Node47</title>
<path fill="none" stroke="#191970" d="M818.1007,-201.5267C840.1325,-192.1052 870.3002,-179.2045 895.0828,-168.6068"/>
<polygon fill="#191970" stroke="#191970" points="816.7165,-198.312 808.8981,-205.462 819.4689,-204.7482 816.7165,-198.312"/>
</g>
<!-- Node50 -->
<g id="node18" class="node">
<title>Node50</title>
<g id="a_node18"><a xlink:href="../../de/db1/_dirichlet_inlet_outlet___polyconvex_h_g_o_8hpp.html" target="_top" xlink:title="src/DirichletInletOutlet\l_PolyconvexHGO.hpp">
<polygon fill="#ffffff" stroke="#000000" points="1025.293,-135.5 1025.293,-163.5 1140.2334,-163.5 1140.2334,-135.5 1025.293,-135.5"/>
<text text-anchor="start" x="1033.293" y="-151.5" font-family="Helvetica,sans-Serif" font-size="10.00" fill="#000000">src/DirichletInletOutlet</text>
<text text-anchor="middle" x="1082.7632" y="-141.5" font-family="Helvetica,sans-Serif" font-size="10.00" fill="#000000">_PolyconvexHGO.hpp</text>
</a>
</g>
</g>
<!-- Node33&#45;&gt;Node50 -->
<g id="edge17" class="edge">
<title>Node33&#45;&gt;Node50</title>
<path fill="none" stroke="#191970" d="M849.7792,-203.6191C895.8107,-195.181 959.9957,-182.653 1015.7632,-169 1022.4704,-167.3579 1029.5124,-165.4804 1036.4076,-163.5536"/>
<polygon fill="#191970" stroke="#191970" points="848.8693,-200.2272 839.6581,-205.4622 850.1234,-207.1139 848.8693,-200.2272"/>
</g>
<!-- Node52 -->
<g id="node20" class="node">
<title>Node52</title>
<g id="a_node20"><a xlink:href="../../d5/d6a/_dirichlet_strip_elongation___stochastic_polyconvex_h_g_o_8hpp.html" target="_top" xlink:title="src/DirichletStripElongation\l_StochasticPolyconvexHGO.hpp">
<polygon fill="#ffffff" stroke="#000000" points="1158.2266,-135.5 1158.2266,-163.5 1319.2998,-163.5 1319.2998,-135.5 1158.2266,-135.5"/>
<text text-anchor="start" x="1166.2266" y="-151.5" font-family="Helvetica,sans-Serif" font-size="10.00" fill="#000000">src/DirichletStripElongation</text>
<text text-anchor="middle" x="1238.7632" y="-141.5" font-family="Helvetica,sans-Serif" font-size="10.00" fill="#000000">_StochasticPolyconvexHGO.hpp</text>
</a>
</g>
</g>
<!-- Node33&#45;&gt;Node52 -->
<g id="edge19" class="edge">
<title>Node33&#45;&gt;Node52</title>
<path fill="none" stroke="#191970" d="M858.3613,-207.4598C931.3307,-199.7486 1048.4102,-186.1615 1148.7632,-169 1158.0609,-167.41 1167.8533,-165.5171 1177.4186,-163.5454"/>
<polygon fill="#191970" stroke="#191970" points="857.9442,-203.9842 848.364,-208.5086 858.6747,-210.946 857.9442,-203.9842"/>
</g>
<!-- Node54 -->
<g id="node22" class="node">
<title>Node54</title>
<g id="a_node22"><a xlink:href="../../da/ddf/_neumann_inner_surface___polyconvex_h_g_o_8hpp.html" target="_top" xlink:title="src/NeumannInnerSurface\l_PolyconvexHGO.hpp">
<polygon fill="#ffffff" stroke="#000000" points="1337.4014,-135.5 1337.4014,-163.5 1470.125,-163.5 1470.125,-135.5 1337.4014,-135.5"/>
<text text-anchor="start" x="1345.4014" y="-151.5" font-family="Helvetica,sans-Serif" font-size="10.00" fill="#000000">src/NeumannInnerSurface</text>
<text text-anchor="middle" x="1403.7632" y="-141.5" font-family="Helvetica,sans-Serif" font-size="10.00" fill="#000000">_PolyconvexHGO.hpp</text>
</a>
</g>
</g>
<!-- Node33&#45;&gt;Node54 -->
<g id="edge21" class="edge">
<title>Node33&#45;&gt;Node54</title>
<path fill="none" stroke="#191970" d="M858.6854,-212.3862C962.5265,-208.4228 1161.7441,-197.5216 1328.7632,-169 1337.2507,-167.5506 1346.182,-165.6071 1354.8046,-163.5073"/>
<polygon fill="#191970" stroke="#191970" points="858.497,-208.8907 848.6338,-212.7594 858.7568,-215.8858 858.497,-208.8907"/>
</g>
<!-- Node56 -->
<g id="node24" class="node">
<title>Node56</title>
<g id="a_node24"><a xlink:href="../../da/d42/_neumann_inner_surface___stochastic_polyconvex_h_g_o_8hpp.html" target="_top" xlink:title="src/NeumannInnerSurface\l_StochasticPolyconvexHGO.hpp">
<polygon fill="#ffffff" stroke="#000000" points="1518.2266,-135.5 1518.2266,-163.5 1679.2998,-163.5 1679.2998,-135.5 1518.2266,-135.5"/>
<text text-anchor="start" x="1526.2266" y="-151.5" font-family="Helvetica,sans-Serif" font-size="10.00" fill="#000000">src/NeumannInnerSurface</text>
<text text-anchor="middle" x="1598.7632" y="-141.5" font-family="Helvetica,sans-Serif" font-size="10.00" fill="#000000">_StochasticPolyconvexHGO.hpp</text>
</a>
</g>
</g>
<!-- Node33&#45;&gt;Node56 -->
<g id="edge23" class="edge">
<title>Node33&#45;&gt;Node56</title>
<path fill="none" stroke="#191970" d="M858.7118,-212.0615C984.1284,-207.2533 1253.0713,-194.7087 1478.7632,-169 1491.8701,-167.507 1505.7296,-165.5807 1519.1932,-163.5217"/>
<polygon fill="#191970" stroke="#191970" points="858.3394,-208.573 848.479,-212.4487 858.6042,-215.5679 858.3394,-208.573"/>
</g>
<!-- Node35 -->
<g id="node3" class="node">
<title>Node35</title>
<g id="a_node3"><a xlink:href="../../d8/d17/cee530_2manufactured_2main_8cpp.html" target="_top" xlink:title="cee530/manufactured\l/main.cpp">
<polygon fill="#ffffff" stroke="#000000" points="11.3965,-65.5 11.3965,-93.5 124.1299,-93.5 124.1299,-65.5 11.3965,-65.5"/>
<text text-anchor="start" x="19.3965" y="-81.5" font-family="Helvetica,sans-Serif" font-size="10.00" fill="#000000">cee530/manufactured</text>
<text text-anchor="middle" x="67.7632" y="-71.5" font-family="Helvetica,sans-Serif" font-size="10.00" fill="#000000">/main.cpp</text>
</a>
</g>
</g>
<!-- Node34&#45;&gt;Node35 -->
<g id="edge2" class="edge">
<title>Node34&#45;&gt;Node35</title>
<path fill="none" stroke="#191970" d="M67.7632,-125.0725C67.7632,-114.5646 67.7632,-102.6536 67.7632,-93.6445"/>
<polygon fill="#191970" stroke="#191970" points="64.2633,-125.3344 67.7632,-135.3345 71.2633,-125.3345 64.2633,-125.3344"/>
</g>
<!-- Node38 -->
<g id="node6" class="node">
<title>Node38</title>
<g id="a_node6"><a xlink:href="../../d4/d7f/examples_2rubberblock_2main_8cpp.html" target="_top" xlink:title="examples/rubberblock\l/main.cpp">
<polygon fill="#ffffff" stroke="#000000" points="158.8496,-65.5 158.8496,-93.5 272.6768,-93.5 272.6768,-65.5 158.8496,-65.5"/>
<text text-anchor="start" x="166.8496" y="-81.5" font-family="Helvetica,sans-Serif" font-size="10.00" fill="#000000">examples/rubberblock</text>
<text text-anchor="middle" x="215.7632" y="-71.5" font-family="Helvetica,sans-Serif" font-size="10.00" fill="#000000">/main.cpp</text>
</a>
</g>
</g>
<!-- Node37&#45;&gt;Node38 -->
<g id="edge5" class="edge">
<title>Node37&#45;&gt;Node38</title>
<path fill="none" stroke="#191970" d="M328.6776,-131.1602C302.9505,-119.3896 270.057,-104.3403 246.4175,-93.5249"/>
<polygon fill="#191970" stroke="#191970" points="327.2517,-134.3567 337.8014,-135.3345 330.164,-127.9913 327.2517,-134.3567"/>
</g>
<!-- Node40 -->
<g id="node8" class="node">
<title>Node40</title>
<g id="a_node8"><a xlink:href="../../d4/db6/nrl_2manufactured__solution_2main_8cpp.html" target="_top" xlink:title="nrl/manufactured_solution\l/main.cpp">
<polygon fill="#ffffff" stroke="#000000" points="290.229,-65.5 290.229,-93.5 421.2974,-93.5 421.2974,-65.5 290.229,-65.5"/>
<text text-anchor="start" x="298.229" y="-81.5" font-family="Helvetica,sans-Serif" font-size="10.00" fill="#000000">nrl/manufactured_solution</text>
<text text-anchor="middle" x="355.7632" y="-71.5" font-family="Helvetica,sans-Serif" font-size="10.00" fill="#000000">/main.cpp</text>
</a>
</g>
</g>
<!-- Node39&#45;&gt;Node40 -->
<g id="edge7" class="edge">
<title>Node39&#45;&gt;Node40</title>
<path fill="none" stroke="#191970" d="M470.8916,-131.1602C444.6601,-119.3896 411.1215,-104.3403 387.0186,-93.5249"/>
<polygon fill="#191970" stroke="#191970" points="469.6378,-134.4337 480.1943,-135.3345 472.5036,-128.0472 469.6378,-134.4337"/>
</g>
<!-- Node42 -->
<g id="node10" class="node">
<title>Node42</title>
<g id="a_node10"><a xlink:href="../../d2/ded/asme_2linearelaslam_2main_8cpp.html" target="_top" xlink:title="asme/linearelaslam\l/main.cpp">
<polygon fill="#ffffff" stroke="#000000" points="439.6895,-65.5 439.6895,-93.5 541.8369,-93.5 541.8369,-65.5 439.6895,-65.5"/>
<text text-anchor="start" x="447.6895" y="-81.5" font-family="Helvetica,sans-Serif" font-size="10.00" fill="#000000">asme/linearelaslam</text>
<text text-anchor="middle" x="490.7632" y="-71.5" font-family="Helvetica,sans-Serif" font-size="10.00" fill="#000000">/main.cpp</text>
</a>
</g>
</g>
<!-- Node41&#45;&gt;Node42 -->
<g id="edge9" class="edge">
<title>Node41&#45;&gt;Node42</title>
<path fill="none" stroke="#191970" d="M620.1052,-136.443C592.3837,-124.2386 551.1104,-106.0679 522.6808,-93.5518"/>
<polygon fill="#191970" stroke="#191970" points="618.7396,-139.666 629.3022,-140.492 621.5602,-133.2593 618.7396,-139.666"/>
</g>
<!-- Node44 -->
<g id="node12" class="node">
<title>Node44</title>
<g id="a_node12"><a xlink:href="../../d5/d58/nrl_2forward__deterministic_2main_8cpp.html" target="_top" xlink:title="nrl/forward_deterministic\l/main.cpp">
<polygon fill="#ffffff" stroke="#000000" points="560.3003,-65.5 560.3003,-93.5 685.2261,-93.5 685.2261,-65.5 560.3003,-65.5"/>
<text text-anchor="start" x="568.3003" y="-81.5" font-family="Helvetica,sans-Serif" font-size="10.00" fill="#000000">nrl/forward_deterministic</text>
<text text-anchor="middle" x="622.7632" y="-71.5" font-family="Helvetica,sans-Serif" font-size="10.00" fill="#000000">/main.cpp</text>
</a>
</g>
</g>
<!-- Node43&#45;&gt;Node44 -->
<g id="edge11" class="edge">
<title>Node43&#45;&gt;Node44</title>
<path fill="none" stroke="#191970" d="M744.8983,-131.3149C717.1001,-119.5217 681.4271,-104.3877 655.8218,-93.5249"/>
<polygon fill="#191970" stroke="#191970" points="743.8002,-134.6509 754.373,-135.3345 746.5341,-128.2069 743.8002,-134.6509"/>
</g>
<!-- Node45 -->
<g id="node13" class="node">
<title>Node45</title>
<g id="a_node13"><a xlink:href="../../dd/dae/_random_search___deterministic_model_8hpp.html" target="_top" xlink:title="nrl/randomsearch_deterministicmodel\l/RandomSearch_DeterministicModel.hpp">
<polygon fill="#ffffff" stroke="#000000" points="703.6084,-65.5 703.6084,-93.5 901.918,-93.5 901.918,-65.5 703.6084,-65.5"/>
<text text-anchor="start" x="711.6084" y="-81.5" font-family="Helvetica,sans-Serif" font-size="10.00" fill="#000000">nrl/randomsearch_deterministicmodel</text>
<text text-anchor="middle" x="802.7632" y="-71.5" font-family="Helvetica,sans-Serif" font-size="10.00" fill="#000000">/RandomSearch_DeterministicModel.hpp</text>
</a>
</g>
</g>
<!-- Node43&#45;&gt;Node45 -->
<g id="edge12" class="edge">
<title>Node43&#45;&gt;Node45</title>
<path fill="none" stroke="#191970" d="M792.9266,-125.4038C795.1955,-114.8157 797.7814,-102.7484 799.7322,-93.6445"/>
<polygon fill="#191970" stroke="#191970" points="789.4717,-124.8231 790.7987,-135.3345 796.3163,-126.2898 789.4717,-124.8231"/>
</g>
<!-- Node46 -->
<g id="node14" class="node">
<title>Node46</title>
<g id="a_node14"><a xlink:href="../../d5/d17/nrl_2randomsearch__deterministicmodel_2main_8cpp.html" target="_top" xlink:title="nrl/randomsearch_deterministicmodel\l/main.cpp">
<polygon fill="#ffffff" stroke="#000000" points="711.394,-.5 711.394,-28.5 894.1323,-28.5 894.1323,-.5 711.394,-.5"/>
<text text-anchor="start" x="719.394" y="-16.5" font-family="Helvetica,sans-Serif" font-size="10.00" fill="#000000">nrl/randomsearch_deterministicmodel</text>
<text text-anchor="middle" x="802.7632" y="-6.5" font-family="Helvetica,sans-Serif" font-size="10.00" fill="#000000">/main.cpp</text>
</a>
</g>
</g>
<!-- Node45&#45;&gt;Node46 -->
<g id="edge13" class="edge">
<title>Node45&#45;&gt;Node46</title>
<path fill="none" stroke="#191970" d="M802.7632,-55.1081C802.7632,-46.1539 802.7632,-36.3227 802.7632,-28.5765"/>
<polygon fill="#191970" stroke="#191970" points="799.2633,-55.3959 802.7632,-65.396 806.2633,-55.396 799.2633,-55.3959"/>
</g>
<!-- Node48 -->
<g id="node16" class="node">
<title>Node48</title>
<g id="a_node16"><a xlink:href="../../df/df6/forward_costfunction_8hpp.html" target="_top" xlink:title="nrl/forward_randomfield\l/forwardCostfunction.hpp">
<polygon fill="#ffffff" stroke="#000000" points="920.1772,-65.5 920.1772,-93.5 1047.3491,-93.5 1047.3491,-65.5 920.1772,-65.5"/>
<text text-anchor="start" x="928.1772" y="-81.5" font-family="Helvetica,sans-Serif" font-size="10.00" fill="#000000">nrl/forward_randomfield</text>
<text text-anchor="middle" x="983.7632" y="-71.5" font-family="Helvetica,sans-Serif" font-size="10.00" fill="#000000">/forwardCostfunction.hpp</text>
</a>
</g>
</g>
<!-- Node47&#45;&gt;Node48 -->
<g id="edge15" class="edge">
<title>Node47&#45;&gt;Node48</title>
<path fill="none" stroke="#191970" d="M957.1129,-121.8981C963.1209,-112.34 969.6137,-102.0106 974.6864,-93.9404"/>
<polygon fill="#191970" stroke="#191970" points="954.1449,-120.0432 951.7864,-130.3722 960.0714,-123.7684 954.1449,-120.0432"/>
</g>
<!-- Node49 -->
<g id="node17" class="node">
<title>Node49</title>
<g id="a_node17"><a xlink:href="../../db/de3/nrl_2forward__randomfield_2main_8cpp.html" target="_top" xlink:title="nrl/forward_randomfield\l/main.cpp">
<polygon fill="#ffffff" stroke="#000000" points="923.2388,-.5 923.2388,-28.5 1044.2876,-28.5 1044.2876,-.5 923.2388,-.5"/>
<text text-anchor="start" x="931.2388" y="-16.5" font-family="Helvetica,sans-Serif" font-size="10.00" fill="#000000">nrl/forward_randomfield</text>
<text text-anchor="middle" x="983.7632" y="-6.5" font-family="Helvetica,sans-Serif" font-size="10.00" fill="#000000">/main.cpp</text>
</a>
</g>
</g>
<!-- Node48&#45;&gt;Node49 -->
<g id="edge16" class="edge">
<title>Node48&#45;&gt;Node49</title>
<path fill="none" stroke="#191970" d="M983.7632,-55.1081C983.7632,-46.1539 983.7632,-36.3227 983.7632,-28.5765"/>
<polygon fill="#191970" stroke="#191970" points="980.2633,-55.3959 983.7632,-65.396 987.2633,-55.396 980.2633,-55.3959"/>
</g>
<!-- Node51 -->
<g id="node19" class="node">
<title>Node51</title>
<g id="a_node19"><a xlink:href="../../de/da1/arteries_2deterministic__dirichlet_2main_8cpp.html" target="_top" xlink:title="arteries/deterministic\l_dirichlet/main.cpp">
<polygon fill="#ffffff" stroke="#000000" points="1065.6377,-65.5 1065.6377,-93.5 1173.8887,-93.5 1173.8887,-65.5 1065.6377,-65.5"/>
<text text-anchor="start" x="1073.6377" y="-81.5" font-family="Helvetica,sans-Serif" font-size="10.00" fill="#000000">arteries/deterministic</text>
<text text-anchor="middle" x="1119.7632" y="-71.5" font-family="Helvetica,sans-Serif" font-size="10.00" fill="#000000">_dirichlet/main.cpp</text>
</a>
</g>
</g>
<!-- Node50&#45;&gt;Node51 -->
<g id="edge18" class="edge">
<title>Node50&#45;&gt;Node51</title>
<path fill="none" stroke="#191970" d="M1094.9774,-126.392C1100.6961,-115.5728 1107.3244,-103.0329 1112.2868,-93.6445"/>
<polygon fill="#191970" stroke="#191970" points="1091.8295,-124.8579 1090.2507,-135.3345 1098.0181,-128.1291 1091.8295,-124.8579"/>
</g>
<!-- Node53 -->
<g id="node21" class="node">
<title>Node53</title>
<g id="a_node21"><a xlink:href="../../dc/dba/arteries_2strip__dirichlet_2main_8cpp.html" target="_top" xlink:title="arteries/strip_dirichlet\l/main.cpp">
<polygon fill="#ffffff" stroke="#000000" points="1192.2461,-65.5 1192.2461,-93.5 1303.2803,-93.5 1303.2803,-65.5 1192.2461,-65.5"/>
<text text-anchor="start" x="1200.2461" y="-81.5" font-family="Helvetica,sans-Serif" font-size="10.00" fill="#000000">arteries/strip_dirichlet</text>
<text text-anchor="middle" x="1247.7632" y="-71.5" font-family="Helvetica,sans-Serif" font-size="10.00" fill="#000000">/main.cpp</text>
</a>
</g>
</g>
<!-- Node52&#45;&gt;Node53 -->
<g id="edge20" class="edge">
<title>Node52&#45;&gt;Node53</title>
<path fill="none" stroke="#191970" d="M1241.8613,-125.4038C1243.2226,-114.8157 1244.7741,-102.7484 1245.9446,-93.6445"/>
<polygon fill="#191970" stroke="#191970" points="1238.3883,-124.9697 1240.5845,-135.3345 1245.3312,-125.8625 1238.3883,-124.9697"/>
</g>
<!-- Node55 -->
<g id="node23" class="node">
<title>Node55</title>
<g id="a_node23"><a xlink:href="../../d9/d81/arteries_2deterministic__neumann_2main_8cpp.html" target="_top" xlink:title="arteries/deterministic\l_neumann/main.cpp">
<polygon fill="#ffffff" stroke="#000000" points="1339.6377,-65.5 1339.6377,-93.5 1447.8887,-93.5 1447.8887,-65.5 1339.6377,-65.5"/>
<text text-anchor="start" x="1347.6377" y="-81.5" font-family="Helvetica,sans-Serif" font-size="10.00" fill="#000000">arteries/deterministic</text>
<text text-anchor="middle" x="1393.7632" y="-71.5" font-family="Helvetica,sans-Serif" font-size="10.00" fill="#000000">_neumann/main.cpp</text>
</a>
</g>
</g>
<!-- Node54&#45;&gt;Node55 -->
<g id="edge22" class="edge">
<title>Node54&#45;&gt;Node55</title>
<path fill="none" stroke="#191970" d="M1400.3209,-125.4038C1398.8083,-114.8157 1397.0844,-102.7484 1395.7838,-93.6445"/>
<polygon fill="#191970" stroke="#191970" points="1396.8604,-125.93 1401.7395,-135.3345 1403.7901,-124.94 1396.8604,-125.93"/>
</g>
<!-- Node57 -->
<g id="node25" class="node">
<title>Node57</title>
<g id="a_node25"><a xlink:href="../../d5/da5/arteries_2boost__gmrf_2gmrf__gauss_2main_8cpp.html" target="_top" xlink:title="arteries/boost_gmrf\l/gmrf_gauss/main.cpp">
<polygon fill="#ffffff" stroke="#000000" points="1465.5737,-65.5 1465.5737,-93.5 1579.9526,-93.5 1579.9526,-65.5 1465.5737,-65.5"/>
<text text-anchor="start" x="1473.5737" y="-81.5" font-family="Helvetica,sans-Serif" font-size="10.00" fill="#000000">arteries/boost_gmrf</text>
<text text-anchor="middle" x="1522.7632" y="-71.5" font-family="Helvetica,sans-Serif" font-size="10.00" fill="#000000">/gmrf_gauss/main.cpp</text>
</a>
</g>
</g>
<!-- Node56&#45;&gt;Node57 -->
<g id="edge24" class="edge">
<title>Node56&#45;&gt;Node57</title>
<path fill="none" stroke="#191970" d="M1575.7885,-128.3391C1563.5907,-117.1043 1548.931,-103.6019 1538.12,-93.6445"/>
<polygon fill="#191970" stroke="#191970" points="1573.6568,-131.1341 1583.3834,-135.3345 1578.3991,-125.9852 1573.6568,-131.1341"/>
</g>
<!-- Node58 -->
<g id="node26" class="node">
<title>Node58</title>
<g id="a_node26"><a xlink:href="../../d2/dbe/arteries_2boost__gmrf_2gmrf__nodes_2main_8cpp.html" target="_top" xlink:title="arteries/boost_gmrf\l/gmrf_nodes/main.cpp">
<polygon fill="#ffffff" stroke="#000000" points="1598.293,-65.5 1598.293,-93.5 1713.2334,-93.5 1713.2334,-65.5 1598.293,-65.5"/>
<text text-anchor="start" x="1606.293" y="-81.5" font-family="Helvetica,sans-Serif" font-size="10.00" fill="#000000">arteries/boost_gmrf</text>
<text text-anchor="middle" x="1655.7632" y="-71.5" font-family="Helvetica,sans-Serif" font-size="10.00" fill="#000000">/gmrf_nodes/main.cpp</text>
</a>
</g>
</g>
<!-- Node56&#45;&gt;Node58 -->
<g id="edge25" class="edge">
<title>Node56&#45;&gt;Node58</title>
<path fill="none" stroke="#191970" d="M1616.7827,-127.3707C1625.7684,-116.3357 1636.369,-103.3174 1644.2455,-93.6445"/>
<polygon fill="#191970" stroke="#191970" points="1613.8983,-125.3701 1610.298,-135.3345 1619.3263,-129.7901 1613.8983,-125.3701"/>
</g>
<!-- Node59 -->
<g id="node27" class="node">
<title>Node59</title>
<g id="a_node27"><a xlink:href="../../da/df3/arteries_2gmrf__neumann_2main_8cpp.html" target="_top" xlink:title="arteries/gmrf_neumann\l/main.cpp">
<polygon fill="#ffffff" stroke="#000000" points="1731.0713,-65.5 1731.0713,-93.5 1850.4551,-93.5 1850.4551,-65.5 1731.0713,-65.5"/>
<text text-anchor="start" x="1739.0713" y="-81.5" font-family="Helvetica,sans-Serif" font-size="10.00" fill="#000000">arteries/gmrf_neumann</text>
<text text-anchor="middle" x="1790.7632" y="-71.5" font-family="Helvetica,sans-Serif" font-size="10.00" fill="#000000">/main.cpp</text>
</a>
</g>
</g>
<!-- Node56&#45;&gt;Node59 -->
<g id="edge26" class="edge">
<title>Node56&#45;&gt;Node59</title>
<path fill="none" stroke="#191970" d="M1647.3759,-131.7766C1679.8997,-119.919 1722.1094,-104.53 1752.295,-93.5249"/>
<polygon fill="#191970" stroke="#191970" points="1645.8135,-128.6208 1637.6172,-135.3345 1648.2112,-135.1974 1645.8135,-128.6208"/>
</g>
</g>
</svg>
