<?xml version="1.0" encoding="UTF-8" standalone="no"?>
<!DOCTYPE svg PUBLIC "-//W3C//DTD SVG 1.1//EN"
 "http://www.w3.org/Graphics/SVG/1.1/DTD/svg11.dtd">
<!-- Generated by graphviz version 2.40.1 (20161225.0304)
 -->
<!-- Title: compressibleHyperelasticity Pages: 1 -->
<svg width="167pt" height="260pt"
 viewBox="0.00 0.00 166.86 260.00" xmlns="http://www.w3.org/2000/svg" xmlns:xlink="http://www.w3.org/1999/xlink">
<g id="graph0" class="graph" transform="scale(1 1) rotate(0) translate(4 256)">
<title>compressibleHyperelasticity</title>
<polygon fill="#ffffff" stroke="transparent" points="-4,4 -4,-256 162.8564,-256 162.8564,4 -4,4"/>
<!-- Node10 -->
<g id="node1" class="node">
<title>Node10</title>
<polygon fill="#bfbfbf" stroke="#000000" points="9.4629,-.5 9.4629,-18.5 149.3936,-18.5 149.3936,-.5 9.4629,-.5"/>
<text text-anchor="middle" x="79.4282" y="-6.5" font-family="Helvetica,sans-Serif" font-size="10.00" fill="#000000">compressibleHyperelasticity</text>
</g>
<!-- Node11 -->
<g id="node2" class="node">
<title>Node11</title>
<g id="a_node2"><a xlink:href="../../dc/d5a/classhyperelasticity.html" target="_top" xlink:title="hyperelasticity">
<polygon fill="#ffffff" stroke="#000000" points="39.7485,-56.5 39.7485,-74.5 119.1079,-74.5 119.1079,-56.5 39.7485,-56.5"/>
<text text-anchor="middle" x="79.4282" y="-62.5" font-family="Helvetica,sans-Serif" font-size="10.00" fill="#000000">hyperelasticity</text>
</a>
</g>
</g>
<!-- Node11&#45;&gt;Node10 -->
<g id="edge1" class="edge">
<title>Node11&#45;&gt;Node10</title>
<path fill="none" stroke="#191970" d="M79.4282,-46.2065C79.4282,-36.8384 79.4282,-26.0262 79.4282,-18.5752"/>
<polygon fill="#191970" stroke="#191970" points="75.9283,-46.2527 79.4282,-56.2527 82.9283,-46.2528 75.9283,-46.2527"/>
</g>
<!-- Node12 -->
<g id="node3" class="node">
<title>Node12</title>
<g id="a_node3"><a xlink:href="../../d3/d5b/classnon_linear_finite_element_problem.html" target="_top" xlink:title="nonLinearFiniteElementProblem">
<polygon fill="#ffffff" stroke="#000000" points="0,-112.5 0,-130.5 158.8564,-130.5 158.8564,-112.5 0,-112.5"/>
<text text-anchor="middle" x="79.4282" y="-118.5" font-family="Helvetica,sans-Serif" font-size="10.00" fill="#000000">nonLinearFiniteElementProblem</text>
</a>
</g>
</g>
<!-- Node12&#45;&gt;Node11 -->
<g id="edge2" class="edge">
<title>Node12&#45;&gt;Node11</title>
<path fill="none" stroke="#191970" d="M79.4282,-102.2065C79.4282,-92.8384 79.4282,-82.0262 79.4282,-74.5752"/>
<polygon fill="#191970" stroke="#191970" points="75.9283,-102.2527 79.4282,-112.2527 82.9283,-102.2528 75.9283,-102.2527"/>
</g>
<!-- Node13 -->
<g id="node4" class="node">
<title>Node13</title>
<g id="a_node4"><a xlink:href="../../d2/d31/classbase_class_f_e_m.html" target="_top" xlink:title="baseClassFEM">
<polygon fill="#ffffff" stroke="#000000" points="37.5293,-168.5 37.5293,-186.5 121.3271,-186.5 121.3271,-168.5 37.5293,-168.5"/>
<text text-anchor="middle" x="79.4282" y="-174.5" font-family="Helvetica,sans-Serif" font-size="10.00" fill="#000000">baseClassFEM</text>
</a>
</g>
</g>
<!-- Node13&#45;&gt;Node12 -->
<g id="edge3" class="edge">
<title>Node13&#45;&gt;Node12</title>
<path fill="none" stroke="#191970" d="M79.4282,-158.2065C79.4282,-148.8384 79.4282,-138.0262 79.4282,-130.5752"/>
<polygon fill="#191970" stroke="#191970" points="75.9283,-158.2527 79.4282,-168.2527 82.9283,-158.2528 75.9283,-158.2527"/>
</g>
<!-- Node14 -->
<g id="node5" class="node">
<title>Node14</title>
<g id="a_node5"><a xlink:href="../../d6/d6b/classmesh.html" target="_top" xlink:title="mesh">
<polygon fill="#ffffff" stroke="#000000" points="59.2017,-233.5 59.2017,-251.5 99.6548,-251.5 99.6548,-233.5 59.2017,-233.5"/>
<text text-anchor="middle" x="79.4282" y="-239.5" font-family="Helvetica,sans-Serif" font-size="10.00" fill="#000000">mesh</text>
</a>
</g>
</g>
<!-- Node14&#45;&gt;Node13 -->
<g id="edge4" class="edge">
<title>Node14&#45;&gt;Node13</title>
<path fill="none" stroke="#9a32cd" stroke-dasharray="5,2" d="M79.4282,-223.1265C79.4282,-211.1522 79.4282,-196.3205 79.4282,-186.8821"/>
<polygon fill="#9a32cd" stroke="#9a32cd" points="75.9283,-223.462 79.4282,-233.462 82.9283,-223.4621 75.9283,-223.462"/>
<text text-anchor="middle" x="93.0439" y="-207" font-family="Helvetica,sans-Serif" font-size="10.00" fill="#000000"> Mesh</text>
</g>
</g>
</svg>
