<?xml version="1.0" encoding="UTF-8" standalone="no"?>
<!DOCTYPE svg PUBLIC "-//W3C//DTD SVG 1.1//EN"
 "http://www.w3.org/Graphics/SVG/1.1/DTD/svg11.dtd">
<!-- Generated by graphviz version 2.40.1 (20161225.0304)
 -->
<!-- Title: uqnonlinhom/Jacobi/polynomials/jacobi_polynomial.cpp Pages: 1 -->
<!--zoomable 102 -->
<svg id="main" version="1.1" xmlns="http://www.w3.org/2000/svg" xmlns:xlink="http://www.w3.org/1999/xlink" xml:space="preserve" onload="init(evt)">
<style type="text/css"><![CDATA[
.edge:hover path { stroke: red; }
.edge:hover polygon { stroke: red; fill: red; }
]]></style>
<script type="text/javascript"><![CDATA[
var edges = document.getElementsByTagName('g');
if (edges && edges.length) {
  for (var i=0;i<edges.length;i++) {
    if (edges[i].id.substr(0,4)=='edge') {
      edges[i].setAttribute('class','edge');
    }
  }
}
]]></script>
        <defs>
                <circle id="rim" cx="0" cy="0" r="7"/>
                <circle id="rim2" cx="0" cy="0" r="3.5"/>
                <g id="zoomPlus">
                        <use xlink:href="#rim" fill="#404040">
                                <set attributeName="fill" to="#808080" begin="zoomplus.mouseover" end="zoomplus.mouseout"/>
                        </use>
                        <path d="M-4,0h8M0,-4v8" fill="none" stroke="white" stroke-width="1.5" pointer-events="none"/>
                </g>
                <g id="zoomMin">
                        <use xlink:href="#rim" fill="#404040">
                                <set attributeName="fill" to="#808080" begin="zoomminus.mouseover" end="zoomminus.mouseout"/>
                        </use>
                        <path d="M-4,0h8" fill="none" stroke="white" stroke-width="1.5" pointer-events="none"/>
                </g>
                <g id="dirArrow">
                        <path fill="none" stroke="white" stroke-width="1.5" d="M0,-3.0v7 M-2.5,-0.5L0,-3.0L2.5,-0.5"/>
                </g>
               <g id="resetDef">
                       <use xlink:href="#rim2" fill="#404040">
                               <set attributeName="fill" to="#808080" begin="reset.mouseover" end="reset.mouseout"/>
                       </use>
               </g>
        </defs>

<script type="text/javascript">
var viewWidth = 646;
var viewHeight = 102;
var sectionId = 'dynsection-0';
</script>
<script xlink:href="../../svgpan.js"/>
<svg id="graph" class="graph">
<g id="viewport">
<title>uqnonlinhom/Jacobi/polynomials/jacobi_polynomial.cpp</title>
<polygon fill="#ffffff" stroke="transparent" points="-4,4 -4,-98 641.6499,-98 641.6499,4 -4,4"/>
<!-- Node0 -->
<g id="node1" class="node">
<title>Node0</title>
<polygon fill="#bfbfbf" stroke="#000000" points="236.6973,-55.5 236.6973,-93.5 341.6475,-93.5 341.6475,-55.5 236.6973,-55.5"/>
<text text-anchor="start" x="244.6973" y="-81.5" font-family="Helvetica,sans-Serif" font-size="10.00" fill="#000000">uqnonlinhom/Jacobi</text>
<text text-anchor="start" x="244.6973" y="-71.5" font-family="Helvetica,sans-Serif" font-size="10.00" fill="#000000">/polynomials/jacobi</text>
<text text-anchor="middle" x="289.1724" y="-61.5" font-family="Helvetica,sans-Serif" font-size="10.00" fill="#000000">_polynomial.cpp</text>
</g>
<!-- Node1 -->
<g id="node2" class="node">
<title>Node1</title>
<polygon fill="#ffffff" stroke="#bfbfbf" points="0,-.5 0,-18.5 44.3447,-18.5 44.3447,-.5 0,-.5"/>
<text text-anchor="middle" x="22.1724" y="-6.5" font-family="Helvetica,sans-Serif" font-size="10.00" fill="#000000">cstdlib</text>
</g>
<!-- Node0&#45;&gt;Node1 -->
<g id="edge1" class="edge">
<title>Node0&#45;&gt;Node1</title>
<path fill="none" stroke="#191970" d="M236.4304,-63.1492C190.6856,-53.0668 122.5031,-37.4718 54.5012,-19.2366"/>
<polygon fill="#191970" stroke="#191970" points="55.0388,-15.7565 44.4721,-16.5274 53.2132,-22.5142 55.0388,-15.7565"/>
</g>
<!-- Node2 -->
<g id="node3" class="node">
<title>Node2</title>
<polygon fill="#ffffff" stroke="#bfbfbf" points="62.5566,-.5 62.5566,-18.5 105.7881,-18.5 105.7881,-.5 62.5566,-.5"/>
<text text-anchor="middle" x="84.1724" y="-6.5" font-family="Helvetica,sans-Serif" font-size="10.00" fill="#000000">cmath</text>
</g>
<!-- Node0&#45;&gt;Node2 -->
<g id="edge2" class="edge">
<title>Node0&#45;&gt;Node2</title>
<path fill="none" stroke="#191970" d="M236.646,-57.8453C198.4309,-45.7283 147.9456,-29.7208 115.758,-19.515"/>
<polygon fill="#191970" stroke="#191970" points="116.5794,-16.1037 105.9892,-16.4175 114.4636,-22.7763 116.5794,-16.1037"/>
</g>
<!-- Node3 -->
<g id="node4" class="node">
<title>Node3</title>
<polygon fill="#ffffff" stroke="#bfbfbf" points="124,-.5 124,-18.5 178.3447,-18.5 178.3447,-.5 124,-.5"/>
<text text-anchor="middle" x="151.1724" y="-6.5" font-family="Helvetica,sans-Serif" font-size="10.00" fill="#000000">iostream</text>
</g>
<!-- Node0&#45;&gt;Node3 -->
<g id="edge3" class="edge">
<title>Node0&#45;&gt;Node3</title>
<path fill="none" stroke="#191970" d="M248.5142,-55.3494C226.377,-44.9225 199.529,-32.2767 179.6409,-22.9091"/>
<polygon fill="#191970" stroke="#191970" points="181.0259,-19.6927 170.4878,-18.5978 178.0431,-26.0254 181.0259,-19.6927"/>
</g>
<!-- Node4 -->
<g id="node5" class="node">
<title>Node4</title>
<polygon fill="#ffffff" stroke="#bfbfbf" points="196.5024,-.5 196.5024,-18.5 245.8423,-18.5 245.8423,-.5 196.5024,-.5"/>
<text text-anchor="middle" x="221.1724" y="-6.5" font-family="Helvetica,sans-Serif" font-size="10.00" fill="#000000">fstream</text>
</g>
<!-- Node0&#45;&gt;Node4 -->
<g id="edge4" class="edge">
<title>Node0&#45;&gt;Node4</title>
<path fill="none" stroke="#191970" d="M269.1379,-55.3494C259.2214,-45.8704 247.3865,-34.5576 237.9537,-25.541"/>
<polygon fill="#191970" stroke="#191970" points="240.3373,-22.9776 230.6901,-18.5978 235.5004,-28.0378 240.3373,-22.9776"/>
</g>
<!-- Node5 -->
<g id="node6" class="node">
<title>Node5</title>
<polygon fill="#ffffff" stroke="#bfbfbf" points="263.3916,-.5 263.3916,-18.5 314.9531,-18.5 314.9531,-.5 263.3916,-.5"/>
<text text-anchor="middle" x="289.1724" y="-6.5" font-family="Helvetica,sans-Serif" font-size="10.00" fill="#000000">sstream</text>
</g>
<!-- Node0&#45;&gt;Node5 -->
<g id="edge5" class="edge">
<title>Node0&#45;&gt;Node5</title>
<path fill="none" stroke="#191970" d="M289.1724,-55.3494C289.1724,-47.0079 289.1724,-37.2463 289.1724,-28.879"/>
<polygon fill="#191970" stroke="#191970" points="292.6725,-28.5978 289.1724,-18.5978 285.6725,-28.5979 292.6725,-28.5978"/>
</g>
<!-- Node6 -->
<g id="node7" class="node">
<title>Node6</title>
<polygon fill="#ffffff" stroke="#bfbfbf" points="332.6626,-.5 332.6626,-18.5 383.6821,-18.5 383.6821,-.5 332.6626,-.5"/>
<text text-anchor="middle" x="358.1724" y="-6.5" font-family="Helvetica,sans-Serif" font-size="10.00" fill="#000000">iomanip</text>
</g>
<!-- Node0&#45;&gt;Node6 -->
<g id="edge6" class="edge">
<title>Node0&#45;&gt;Node6</title>
<path fill="none" stroke="#191970" d="M309.5014,-55.3494C319.5638,-45.8704 331.5728,-34.5576 341.1442,-25.541"/>
<polygon fill="#191970" stroke="#191970" points="343.6357,-28.0024 348.5146,-18.5978 338.8358,-22.9072 343.6357,-28.0024"/>
</g>
<!-- Node7 -->
<g id="node8" class="node">
<title>Node7</title>
<polygon fill="#ffffff" stroke="#bfbfbf" points="401.2266,-.5 401.2266,-18.5 441.1182,-18.5 441.1182,-.5 401.2266,-.5"/>
<text text-anchor="middle" x="421.1724" y="-6.5" font-family="Helvetica,sans-Serif" font-size="10.00" fill="#000000">ctime</text>
</g>
<!-- Node0&#45;&gt;Node7 -->
<g id="edge7" class="edge">
<title>Node0&#45;&gt;Node7</title>
<path fill="none" stroke="#191970" d="M328.0628,-55.3494C349.1412,-44.9699 374.6848,-32.3916 393.6818,-23.037"/>
<polygon fill="#191970" stroke="#191970" points="395.2716,-26.1555 402.6967,-18.5978 392.1792,-19.8756 395.2716,-26.1555"/>
</g>
<!-- Node8 -->
<g id="node9" class="node">
<title>Node8</title>
<polygon fill="#ffffff" stroke="#bfbfbf" points="459.4458,-.5 459.4458,-18.5 504.8989,-18.5 504.8989,-.5 459.4458,-.5"/>
<text text-anchor="middle" x="482.1724" y="-6.5" font-family="Helvetica,sans-Serif" font-size="10.00" fill="#000000">cstring</text>
</g>
<!-- Node0&#45;&gt;Node8 -->
<g id="edge8" class="edge">
<title>Node0&#45;&gt;Node8</title>
<path fill="none" stroke="#191970" d="M341.6555,-56.8243C376.0041,-45.2562 419.8218,-30.4989 449.3193,-20.5645"/>
<polygon fill="#191970" stroke="#191970" points="450.7568,-23.7736 459.1166,-17.2649 448.5225,-17.1397 450.7568,-23.7736"/>
</g>
<!-- Node9 -->
<g id="node10" class="node">
<title>Node9</title>
<g id="a_node10"><a xlink:href="../../dd/d34/jacobi__polynomial_8hpp.html" target="_top" xlink:title="jacobi_polynomial.hpp">
<polygon fill="#ffffff" stroke="#000000" points="522.6948,-.5 522.6948,-18.5 637.6499,-18.5 637.6499,-.5 522.6948,-.5"/>
<text text-anchor="middle" x="580.1724" y="-6.5" font-family="Helvetica,sans-Serif" font-size="10.00" fill="#000000">jacobi_polynomial.hpp</text>
</a>
</g>
</g>
<!-- Node0&#45;&gt;Node9 -->
<g id="edge9" class="edge">
<title>Node0&#45;&gt;Node9</title>
<path fill="none" stroke="#191970" d="M341.8703,-62.729C395.2628,-50.8028 477.2697,-32.4851 529.8089,-20.7496"/>
<polygon fill="#191970" stroke="#191970" points="530.588,-24.1619 539.5845,-18.566 529.062,-17.3302 530.588,-24.1619"/>
</g>
</g>
</svg>
        <g id="navigator" transform="translate(0 0)" fill="#404254">
                <rect fill="#f2f5e9" fill-opacity="0.5" stroke="#606060" stroke-width=".5" x="0" y="0" width="60" height="60"/>
                <use id="zoomplus" xlink:href="#zoomPlus" x="17" y="9" onmousedown="handleZoom(evt,'in')"/>
                <use id="zoomminus" xlink:href="#zoomMin" x="42" y="9" onmousedown="handleZoom(evt,'out')"/>
                <use id="reset" xlink:href="#resetDef" x="30" y="36" onmousedown="handleReset()"/>
                <g id="arrowUp" xlink:href="#dirArrow" transform="translate(30 24)" onmousedown="handlePan(0,-1)">
                  <use xlink:href="#rim" fill="#404040">
                        <set attributeName="fill" to="#808080" begin="arrowUp.mouseover" end="arrowUp.mouseout"/>
                  </use>
                  <path fill="none" stroke="white" stroke-width="1.5" d="M0,-3.0v7 M-2.5,-0.5L0,-3.0L2.5,-0.5"/>
                </g>
                <g id="arrowRight" xlink:href="#dirArrow" transform="rotate(90) translate(36 -43)" onmousedown="handlePan(1,0)">
                  <use xlink:href="#rim" fill="#404040">
                        <set attributeName="fill" to="#808080" begin="arrowRight.mouseover" end="arrowRight.mouseout"/>
                  </use>
                  <path fill="none" stroke="white" stroke-width="1.5" d="M0,-3.0v7 M-2.5,-0.5L0,-3.0L2.5,-0.5"/>
                </g>
                <g id="arrowDown" xlink:href="#dirArrow" transform="rotate(180) translate(-30 -48)" onmousedown="handlePan(0,1)">
                  <use xlink:href="#rim" fill="#404040">
                        <set attributeName="fill" to="#808080" begin="arrowDown.mouseover" end="arrowDown.mouseout"/>
                  </use>
                  <path fill="none" stroke="white" stroke-width="1.5" d="M0,-3.0v7 M-2.5,-0.5L0,-3.0L2.5,-0.5"/>
                </g>
                <g id="arrowLeft" xlink:href="#dirArrow" transform="rotate(270) translate(-36 17)" onmousedown="handlePan(-1,0)">
                  <use xlink:href="#rim" fill="#404040">
                        <set attributeName="fill" to="#808080" begin="arrowLeft.mouseover" end="arrowLeft.mouseout"/>
                  </use>
                  <path fill="none" stroke="white" stroke-width="1.5" d="M0,-3.0v7 M-2.5,-0.5L0,-3.0L2.5,-0.5"/>
                </g>
        </g>
        <svg viewBox="0 0 15 15" width="100%" height="30px" preserveAspectRatio="xMaxYMin meet">
         <g id="arrow_out" transform="scale(0.3 0.3)">
          <a xlink:href="jacobi__polynomial_8cpp__incl_org.svg" target="_base">
           <rect id="button" ry="5" rx="5" y="6" x="6" height="38" width="38"
                fill="#f2f5e9" fill-opacity="0.5" stroke="#606060" stroke-width="1.0"/>
           <path id="arrow"
             d="M 11.500037,31.436501 C 11.940474,20.09759 22.043105,11.32322 32.158766,21.979434 L 37.068811,17.246167 C 37.068811,17.246167 37.088388,32 37.088388,32 L 22.160133,31.978069 C 22.160133,31.978069 26.997745,27.140456 26.997745,27.140456 C 18.528582,18.264221 13.291696,25.230495 11.500037,31.436501 z"
             style="fill:#404040;"/>
          </a>
         </g>
        </svg>
</svg>
