<?xml version="1.0" encoding="UTF-8" standalone="no"?>
<!DOCTYPE svg PUBLIC "-//W3C//DTD SVG 1.1//EN"
 "http://www.w3.org/Graphics/SVG/1.1/DTD/svg11.dtd">
<!-- Generated by graphviz version 2.40.1 (20161225.0304)
 -->
<!-- Title: arteries/deterministic_dirichlet/main.cpp Pages: 1 -->
<svg width="3136pt" height="464pt"
 viewBox="0.00 0.00 3135.50 464.00" xmlns="http://www.w3.org/2000/svg" xmlns:xlink="http://www.w3.org/1999/xlink">
<g id="graph0" class="graph" transform="scale(1 1) rotate(0) translate(4 460)">
<title>arteries/deterministic_dirichlet/main.cpp</title>
<polygon fill="#ffffff" stroke="transparent" points="-4,4 -4,-460 3131.5,-460 3131.5,4 -4,4"/>
<!-- Node0 -->
<g id="node1" class="node">
<title>Node0</title>
<polygon fill="#bfbfbf" stroke="#000000" points="1400.5,-425.5 1400.5,-455.5 1507.5,-455.5 1507.5,-425.5 1400.5,-425.5"/>
<text text-anchor="start" x="1408.5" y="-443.5" font-family="Helvetica,sans-Serif" font-size="10.00" fill="#000000">arteries/deterministic</text>
<text text-anchor="middle" x="1454" y="-432.5" font-family="Helvetica,sans-Serif" font-size="10.00" fill="#000000">_dirichlet/main.cpp</text>
</g>
<!-- Node1 -->
<g id="node2" class="node">
<title>Node1</title>
<polygon fill="#ffffff" stroke="#bfbfbf" points="1205,-364 1205,-383 1313,-383 1313,-364 1205,-364"/>
<text text-anchor="middle" x="1259" y="-371" font-family="Helvetica,sans-Serif" font-size="10.00" fill="#000000">Epetra_ConfigDefs.h</text>
</g>
<!-- Node0&#45;&gt;Node1 -->
<g id="edge1" class="edge">
<title>Node0&#45;&gt;Node1</title>
<path fill="none" stroke="#191970" d="M1410.2382,-425.4639C1375.9441,-413.6808 1328.7509,-397.4657 1296.2492,-386.2984"/>
<polygon fill="#191970" stroke="#191970" points="1297.2593,-382.9447 1286.6646,-383.0053 1294.9846,-389.5649 1297.2593,-382.9447"/>
</g>
<!-- Node2 -->
<g id="node3" class="node">
<title>Node2</title>
<polygon fill="#ffffff" stroke="#bfbfbf" points="1331.5,-364 1331.5,-383 1444.5,-383 1444.5,-364 1331.5,-364"/>
<text text-anchor="middle" x="1388" y="-371" font-family="Helvetica,sans-Serif" font-size="10.00" fill="#000000">Epetra_SerialComm.h</text>
</g>
<!-- Node0&#45;&gt;Node2 -->
<g id="edge2" class="edge">
<title>Node0&#45;&gt;Node2</title>
<path fill="none" stroke="#191970" d="M1439.0236,-425.2967C1428.7405,-414.8578 1415.0892,-400.9997 1404.4947,-390.2446"/>
<polygon fill="#191970" stroke="#191970" points="1406.9235,-387.7228 1397.4124,-383.055 1401.9367,-392.6352 1406.9235,-387.7228"/>
</g>
<!-- Node3 -->
<g id="node4" class="node">
<title>Node3</title>
<g id="a_node4"><a xlink:href="../../de/db1/_dirichlet_inlet_outlet___polyconvex_h_g_o_8hpp.html" target="_top" xlink:title="DirichletInletOutlet\l_PolyconvexHGO.hpp">
<polygon fill="#ffffff" stroke="#000000" points="1463,-358.5 1463,-388.5 1577,-388.5 1577,-358.5 1463,-358.5"/>
<text text-anchor="start" x="1471" y="-376.5" font-family="Helvetica,sans-Serif" font-size="10.00" fill="#000000">DirichletInletOutlet</text>
<text text-anchor="middle" x="1520" y="-365.5" font-family="Helvetica,sans-Serif" font-size="10.00" fill="#000000">_PolyconvexHGO.hpp</text>
</a>
</g>
</g>
<!-- Node0&#45;&gt;Node3 -->
<g id="edge3" class="edge">
<title>Node0&#45;&gt;Node3</title>
<path fill="none" stroke="#191970" d="M1468.9764,-425.2967C1477.4993,-416.6446 1488.336,-405.6438 1497.8283,-396.0076"/>
<polygon fill="#191970" stroke="#191970" points="1500.5585,-398.2234 1505.0828,-388.6432 1495.5717,-393.311 1500.5585,-398.2234"/>
</g>
<!-- Node43 -->
<g id="node40" class="node">
<title>Node43</title>
<g id="a_node40"><a xlink:href="../../d7/d17/_newton___raphsonpp_8hpp.html" target="_top" xlink:title="Newton_Raphsonpp.hpp">
<polygon fill="#ffffff" stroke="#000000" points="2055,-241 2055,-260 2179,-260 2179,-241 2055,-241"/>
<text text-anchor="middle" x="2117" y="-248" font-family="Helvetica,sans-Serif" font-size="10.00" fill="#000000">Newton_Raphsonpp.hpp</text>
</a>
</g>
</g>
<!-- Node0&#45;&gt;Node43 -->
<g id="edge42" class="edge">
<title>Node0&#45;&gt;Node43</title>
<path fill="none" stroke="#191970" d="M1506.5787,-425.4322C1633.9526,-388.9299 1957.143,-296.3112 2074.003,-262.8219"/>
<polygon fill="#191970" stroke="#191970" points="2075.0363,-266.1667 2083.6852,-260.0472 2073.1079,-259.4376 2075.0363,-266.1667"/>
</g>
<!-- Node4 -->
<g id="node5" class="node">
<title>Node4</title>
<g id="a_node5"><a xlink:href="../../de/d49/tensor__calculus_8hpp.html" target="_top" xlink:title="tensor_calculus.hpp">
<polygon fill="#ffffff" stroke="#000000" points="1303,-112.5 1303,-131.5 1407,-131.5 1407,-112.5 1303,-112.5"/>
<text text-anchor="middle" x="1355" y="-119.5" font-family="Helvetica,sans-Serif" font-size="10.00" fill="#000000">tensor_calculus.hpp</text>
</a>
</g>
</g>
<!-- Node3&#45;&gt;Node4 -->
<g id="edge4" class="edge">
<title>Node3&#45;&gt;Node4</title>
<path fill="none" stroke="#191970" d="M1470.3714,-358.3961C1440.0427,-348.1884 1405.1805,-334.3679 1395,-322 1351.1683,-268.7506 1350.8791,-180.7555 1353.248,-141.7104"/>
<polygon fill="#191970" stroke="#191970" points="1356.7443,-141.8892 1353.9879,-131.6592 1349.7632,-141.3752 1356.7443,-141.8892"/>
</g>
<!-- Node37 -->
<g id="node34" class="node">
<title>Node37</title>
<g id="a_node34"><a xlink:href="../../d5/d3f/laplacepp_8hpp.html" target="_top" xlink:title="laplacepp.hpp">
<polygon fill="#ffffff" stroke="#000000" points="1404.5,-302.5 1404.5,-321.5 1481.5,-321.5 1481.5,-302.5 1404.5,-302.5"/>
<text text-anchor="middle" x="1443" y="-309.5" font-family="Helvetica,sans-Serif" font-size="10.00" fill="#000000">laplacepp.hpp</text>
</a>
</g>
</g>
<!-- Node3&#45;&gt;Node37 -->
<g id="edge33" class="edge">
<title>Node3&#45;&gt;Node37</title>
<path fill="none" stroke="#191970" d="M1500.9663,-358.2977C1489.4985,-349.1384 1474.9038,-337.4816 1463.2281,-328.1562"/>
<polygon fill="#191970" stroke="#191970" points="1465.3266,-325.3529 1455.3287,-321.8469 1460.9581,-330.8225 1465.3266,-325.3529"/>
</g>
<!-- Node40 -->
<g id="node37" class="node">
<title>Node40</title>
<g id="a_node37"><a xlink:href="../../dc/de0/nearly_incompressible_hyperelasticity_8hpp.html" target="_top" xlink:title="nearlyIncompressibleHyperelasticity.hpp">
<polygon fill="#ffffff" stroke="#000000" points="1499.5,-302.5 1499.5,-321.5 1692.5,-321.5 1692.5,-302.5 1499.5,-302.5"/>
<text text-anchor="middle" x="1596" y="-309.5" font-family="Helvetica,sans-Serif" font-size="10.00" fill="#000000">nearlyIncompressibleHyperelasticity.hpp</text>
</a>
</g>
</g>
<!-- Node3&#45;&gt;Node40 -->
<g id="edge37" class="edge">
<title>Node3&#45;&gt;Node40</title>
<path fill="none" stroke="#191970" d="M1538.7865,-358.2977C1550.1053,-349.1384 1564.5105,-337.4816 1576.0346,-328.1562"/>
<polygon fill="#191970" stroke="#191970" points="1578.2595,-330.8583 1583.8314,-321.8469 1573.8561,-325.4167 1578.2595,-330.8583"/>
</g>
<!-- Node5 -->
<g id="node6" class="node">
<title>Node5</title>
<g id="a_node6"><a xlink:href="../../d0/d02/meshpp_8hpp.html" target="_top" xlink:title="meshpp.hpp">
<polygon fill="#ffffff" stroke="#ff0000" points="1381,-56.5 1381,-75.5 1451,-75.5 1451,-56.5 1381,-56.5"/>
<text text-anchor="middle" x="1416" y="-63.5" font-family="Helvetica,sans-Serif" font-size="10.00" fill="#000000">meshpp.hpp</text>
</a>
</g>
</g>
<!-- Node4&#45;&gt;Node5 -->
<g id="edge5" class="edge">
<title>Node4&#45;&gt;Node5</title>
<path fill="none" stroke="#191970" d="M1365.6254,-112.2455C1374.5473,-104.0549 1387.488,-92.1749 1398.0192,-82.5069"/>
<polygon fill="#191970" stroke="#191970" points="1400.4968,-84.9837 1405.4964,-75.6427 1395.7629,-79.8271 1400.4968,-84.9837"/>
</g>
<!-- Node6 -->
<g id="node7" class="node">
<title>Node6</title>
<polygon fill="#ffffff" stroke="#bfbfbf" points="0,-.5 0,-19.5 46,-19.5 46,-.5 0,-.5"/>
<text text-anchor="middle" x="23" y="-7.5" font-family="Helvetica,sans-Serif" font-size="10.00" fill="#000000">stdio.h</text>
</g>
<!-- Node5&#45;&gt;Node6 -->
<g id="edge6" class="edge">
<title>Node5&#45;&gt;Node6</title>
<path fill="none" stroke="#191970" d="M1380.8829,-65.3777C1185.0091,-61.8331 230.3181,-43.5661 56.3423,-19.6067"/>
<polygon fill="#191970" stroke="#191970" points="56.6563,-16.114 46.2413,-18.0574 55.595,-23.0331 56.6563,-16.114"/>
</g>
<!-- Node7 -->
<g id="node8" class="node">
<title>Node7</title>
<polygon fill="#ffffff" stroke="#bfbfbf" points="64,-.5 64,-19.5 118,-19.5 118,-.5 64,-.5"/>
<text text-anchor="middle" x="91" y="-7.5" font-family="Helvetica,sans-Serif" font-size="10.00" fill="#000000">iostream</text>
</g>
<!-- Node5&#45;&gt;Node7 -->
<g id="edge7" class="edge">
<title>Node5&#45;&gt;Node7</title>
<path fill="none" stroke="#191970" d="M1380.9895,-65.8629C1203.3058,-64.9998 399.5046,-59.0515 128.5572,-19.8475"/>
<polygon fill="#191970" stroke="#191970" points="128.7808,-16.3419 118.372,-18.3186 127.7416,-23.2644 128.7808,-16.3419"/>
</g>
<!-- Node8 -->
<g id="node9" class="node">
<title>Node8</title>
<polygon fill="#ffffff" stroke="#bfbfbf" points="136.5,-.5 136.5,-19.5 185.5,-19.5 185.5,-.5 136.5,-.5"/>
<text text-anchor="middle" x="161" y="-7.5" font-family="Helvetica,sans-Serif" font-size="10.00" fill="#000000">istream</text>
</g>
<!-- Node5&#45;&gt;Node8 -->
<g id="edge8" class="edge">
<title>Node5&#45;&gt;Node8</title>
<path fill="none" stroke="#191970" d="M1380.8304,-65.852C1208.6093,-64.9505 452.5338,-58.8977 195.7398,-19.6331"/>
<polygon fill="#191970" stroke="#191970" points="196.1429,-16.1533 185.7177,-18.0416 195.0449,-23.0667 196.1429,-16.1533"/>
</g>
<!-- Node9 -->
<g id="node10" class="node">
<title>Node9</title>
<polygon fill="#ffffff" stroke="#bfbfbf" points="204,-.5 204,-19.5 254,-19.5 254,-.5 204,-.5"/>
<text text-anchor="middle" x="229" y="-7.5" font-family="Helvetica,sans-Serif" font-size="10.00" fill="#000000">fstream</text>
</g>
<!-- Node5&#45;&gt;Node9 -->
<g id="edge9" class="edge">
<title>Node5&#45;&gt;Node9</title>
<path fill="none" stroke="#191970" d="M1380.854,-65.7617C1214.7307,-64.4601 506.5845,-56.9056 264.2422,-19.7477"/>
<polygon fill="#191970" stroke="#191970" points="264.5174,-16.2475 254.0908,-18.1282 263.4145,-23.16 264.5174,-16.2475"/>
</g>
<!-- Node10 -->
<g id="node11" class="node">
<title>Node10</title>
<polygon fill="#ffffff" stroke="#bfbfbf" points="272,-.5 272,-19.5 316,-19.5 316,-.5 272,-.5"/>
<text text-anchor="middle" x="294" y="-7.5" font-family="Helvetica,sans-Serif" font-size="10.00" fill="#000000">vector</text>
</g>
<!-- Node5&#45;&gt;Node10 -->
<g id="edge10" class="edge">
<title>Node5&#45;&gt;Node10</title>
<path fill="none" stroke="#191970" d="M1380.8444,-65.7907C1220.2443,-64.6425 554.7223,-57.757 326.0728,-19.6627"/>
<polygon fill="#191970" stroke="#191970" points="326.6195,-16.2053 316.1681,-17.9429 325.4219,-23.1021 326.6195,-16.2053"/>
</g>
<!-- Node11 -->
<g id="node12" class="node">
<title>Node11</title>
<polygon fill="#ffffff" stroke="#bfbfbf" points="334,-.5 334,-19.5 384,-19.5 384,-.5 334,-.5"/>
<text text-anchor="middle" x="359" y="-7.5" font-family="Helvetica,sans-Serif" font-size="10.00" fill="#000000">iomanip</text>
</g>
<!-- Node5&#45;&gt;Node11 -->
<g id="edge11" class="edge">
<title>Node5&#45;&gt;Node11</title>
<path fill="none" stroke="#191970" d="M1380.9876,-65.5575C1227.0672,-63.4411 609.0249,-53.1141 394.0233,-19.7212"/>
<polygon fill="#191970" stroke="#191970" points="394.5241,-16.2568 384.0932,-18.1136 393.4053,-23.1668 394.5241,-16.2568"/>
</g>
<!-- Node12 -->
<g id="node13" class="node">
<title>Node12</title>
<polygon fill="#ffffff" stroke="#bfbfbf" points="402,-.5 402,-19.5 506,-19.5 506,-.5 402,-.5"/>
<text text-anchor="middle" x="454" y="-7.5" font-family="Helvetica,sans-Serif" font-size="10.00" fill="#000000">Epetra_MpiComm.h</text>
</g>
<!-- Node5&#45;&gt;Node12 -->
<g id="edge12" class="edge">
<title>Node5&#45;&gt;Node12</title>
<path fill="none" stroke="#191970" d="M1380.683,-65.6107C1260.8396,-63.9915 858.5723,-56.1189 516.2999,-20.0248"/>
<polygon fill="#191970" stroke="#191970" points="516.5057,-16.527 506.1914,-18.9486 515.7647,-23.4877 516.5057,-16.527"/>
</g>
<!-- Node13 -->
<g id="node14" class="node">
<title>Node13</title>
<polygon fill="#ffffff" stroke="#bfbfbf" points="524.5,-.5 524.5,-19.5 637.5,-19.5 637.5,-.5 524.5,-.5"/>
<text text-anchor="middle" x="581" y="-7.5" font-family="Helvetica,sans-Serif" font-size="10.00" fill="#000000">Epetra_FECrsGraph.h</text>
</g>
<!-- Node5&#45;&gt;Node13 -->
<g id="edge13" class="edge">
<title>Node5&#45;&gt;Node13</title>
<path fill="none" stroke="#191970" d="M1380.6475,-65.0256C1272.5844,-61.8055 936.9686,-50.0146 648.0955,-20.021"/>
<polygon fill="#191970" stroke="#191970" points="648.1499,-16.5076 637.8396,-18.9463 647.4203,-23.4695 648.1499,-16.5076"/>
</g>
<!-- Node14 -->
<g id="node15" class="node">
<title>Node14</title>
<polygon fill="#ffffff" stroke="#bfbfbf" points="656,-.5 656,-19.5 770,-19.5 770,-.5 656,-.5"/>
<text text-anchor="middle" x="713" y="-7.5" font-family="Helvetica,sans-Serif" font-size="10.00" fill="#000000">Epetra_FECrsMatrix.h</text>
</g>
<!-- Node5&#45;&gt;Node14 -->
<g id="edge14" class="edge">
<title>Node5&#45;&gt;Node14</title>
<path fill="none" stroke="#191970" d="M1380.6931,-64.4223C1285.5046,-59.962 1015.4447,-45.9429 780.3111,-20.0692"/>
<polygon fill="#191970" stroke="#191970" points="780.5264,-16.5717 770.2013,-18.947 779.7541,-23.529 780.5264,-16.5717"/>
</g>
<!-- Node15 -->
<g id="node16" class="node">
<title>Node15</title>
<polygon fill="#ffffff" stroke="#bfbfbf" points="788,-.5 788,-19.5 888,-19.5 888,-.5 788,-.5"/>
<text text-anchor="middle" x="838" y="-7.5" font-family="Helvetica,sans-Serif" font-size="10.00" fill="#000000">Epetra_FEVector.h</text>
</g>
<!-- Node5&#45;&gt;Node15 -->
<g id="edge15" class="edge">
<title>Node5&#45;&gt;Node15</title>
<path fill="none" stroke="#191970" d="M1380.9663,-63.8601C1298.6083,-58.6232 1086.0964,-43.9102 898.2311,-20.071"/>
<polygon fill="#191970" stroke="#191970" points="898.5351,-16.5815 888.1715,-18.7826 897.6458,-23.5247 898.5351,-16.5815"/>
</g>
<!-- Node16 -->
<g id="node17" class="node">
<title>Node16</title>
<polygon fill="#ffffff" stroke="#bfbfbf" points="906.5,-.5 906.5,-19.5 993.5,-19.5 993.5,-.5 906.5,-.5"/>
<text text-anchor="middle" x="950" y="-7.5" font-family="Helvetica,sans-Serif" font-size="10.00" fill="#000000">Epetra_Vector.h</text>
</g>
<!-- Node5&#45;&gt;Node16 -->
<g id="edge16" class="edge">
<title>Node5&#45;&gt;Node16</title>
<path fill="none" stroke="#191970" d="M1380.9835,-63.0544C1311.1186,-56.9741 1149.272,-41.8715 1003.6596,-20.1615"/>
<polygon fill="#191970" stroke="#191970" points="1004.0591,-16.6822 993.6494,-18.6545 1003.017,-23.6042 1004.0591,-16.6822"/>
</g>
<!-- Node17 -->
<g id="node18" class="node">
<title>Node17</title>
<polygon fill="#ffffff" stroke="#bfbfbf" points="1011.5,-.5 1011.5,-19.5 1088.5,-19.5 1088.5,-.5 1011.5,-.5"/>
<text text-anchor="middle" x="1050" y="-7.5" font-family="Helvetica,sans-Serif" font-size="10.00" fill="#000000">Epetra_Map.h</text>
</g>
<!-- Node5&#45;&gt;Node17 -->
<g id="edge17" class="edge">
<title>Node5&#45;&gt;Node17</title>
<path fill="none" stroke="#191970" d="M1380.9475,-61.7196C1323.8687,-54.5815 1207.0856,-39.2791 1098.8031,-20.2385"/>
<polygon fill="#191970" stroke="#191970" points="1099.1463,-16.7448 1088.6887,-18.4444 1097.9237,-23.6372 1099.1463,-16.7448"/>
</g>
<!-- Node18 -->
<g id="node19" class="node">
<title>Node18</title>
<polygon fill="#ffffff" stroke="#bfbfbf" points="1106.5,-.5 1106.5,-19.5 1245.5,-19.5 1245.5,-.5 1106.5,-.5"/>
<text text-anchor="middle" x="1176" y="-7.5" font-family="Helvetica,sans-Serif" font-size="10.00" fill="#000000">Epetra_SerialDenseMatrix.h</text>
</g>
<!-- Node5&#45;&gt;Node18 -->
<g id="edge18" class="edge">
<title>Node5&#45;&gt;Node18</title>
<path fill="none" stroke="#191970" d="M1380.8449,-57.7971C1340.2096,-48.3156 1272.9991,-32.6331 1226.7114,-21.8327"/>
<polygon fill="#191970" stroke="#191970" points="1227.4127,-18.4024 1216.879,-19.5384 1225.822,-25.2192 1227.4127,-18.4024"/>
</g>
<!-- Node19 -->
<g id="node20" class="node">
<title>Node19</title>
<polygon fill="#ffffff" stroke="#bfbfbf" points="1264,-.5 1264,-19.5 1404,-19.5 1404,-.5 1264,-.5"/>
<text text-anchor="middle" x="1334" y="-7.5" font-family="Helvetica,sans-Serif" font-size="10.00" fill="#000000">Epetra_SerialDenseVector.h</text>
</g>
<!-- Node5&#45;&gt;Node19 -->
<g id="edge19" class="edge">
<title>Node5&#45;&gt;Node19</title>
<path fill="none" stroke="#191970" d="M1401.7167,-56.2455C1389.253,-47.7337 1370.9549,-35.2375 1356.5208,-25.3801"/>
<polygon fill="#191970" stroke="#191970" points="1358.3515,-22.392 1348.1196,-19.6427 1354.4038,-28.1726 1358.3515,-22.392"/>
</g>
<!-- Node20 -->
<g id="node21" class="node">
<title>Node20</title>
<polygon fill="#ffffff" stroke="#bfbfbf" points="1422,-.5 1422,-19.5 1574,-19.5 1574,-.5 1422,-.5"/>
<text text-anchor="middle" x="1498" y="-7.5" font-family="Helvetica,sans-Serif" font-size="10.00" fill="#000000">Epetra_IntSerialDenseVector.h</text>
</g>
<!-- Node5&#45;&gt;Node20 -->
<g id="edge20" class="edge">
<title>Node5&#45;&gt;Node20</title>
<path fill="none" stroke="#191970" d="M1430.2833,-56.2455C1442.747,-47.7337 1461.0451,-35.2375 1475.4792,-25.3801"/>
<polygon fill="#191970" stroke="#191970" points="1477.5962,-28.1726 1483.8804,-19.6427 1473.6485,-22.392 1477.5962,-28.1726"/>
</g>
<!-- Node21 -->
<g id="node22" class="node">
<title>Node21</title>
<polygon fill="#ffffff" stroke="#bfbfbf" points="1592,-.5 1592,-19.5 1678,-19.5 1678,-.5 1592,-.5"/>
<text text-anchor="middle" x="1635" y="-7.5" font-family="Helvetica,sans-Serif" font-size="10.00" fill="#000000">Epetra_Import.h</text>
</g>
<!-- Node5&#45;&gt;Node21 -->
<g id="edge21" class="edge">
<title>Node5&#45;&gt;Node21</title>
<path fill="none" stroke="#191970" d="M1451.1861,-57.0026C1488.2707,-47.5198 1546.8871,-32.5311 1587.9303,-22.0361"/>
<polygon fill="#191970" stroke="#191970" points="1588.8811,-25.4056 1597.7023,-19.5373 1587.1469,-18.6239 1588.8811,-25.4056"/>
</g>
<!-- Node22 -->
<g id="node23" class="node">
<title>Node22</title>
<polygon fill="#ffffff" stroke="#bfbfbf" points="1696.5,-.5 1696.5,-19.5 1783.5,-19.5 1783.5,-.5 1696.5,-.5"/>
<text text-anchor="middle" x="1740" y="-7.5" font-family="Helvetica,sans-Serif" font-size="10.00" fill="#000000">Epetra_Export.h</text>
</g>
<!-- Node5&#45;&gt;Node22 -->
<g id="edge22" class="edge">
<title>Node5&#45;&gt;Node22</title>
<path fill="none" stroke="#191970" d="M1451.1162,-60.2507C1501.0013,-52.0371 1595.502,-36.3076 1686.4174,-20.0792"/>
<polygon fill="#191970" stroke="#191970" points="1687.1119,-23.5106 1696.3389,-18.3036 1685.8787,-16.6201 1687.1119,-23.5106"/>
</g>
<!-- Node23 -->
<g id="node24" class="node">
<title>Node23</title>
<polygon fill="#ffffff" stroke="#bfbfbf" points="1802,-.5 1802,-19.5 1882,-19.5 1882,-.5 1802,-.5"/>
<text text-anchor="middle" x="1842" y="-7.5" font-family="Helvetica,sans-Serif" font-size="10.00" fill="#000000">Epetra_Time.h</text>
</g>
<!-- Node5&#45;&gt;Node23 -->
<g id="edge23" class="edge">
<title>Node5&#45;&gt;Node23</title>
<path fill="none" stroke="#191970" d="M1451.1151,-62.6002C1517.7796,-55.9476 1667.1739,-40.0887 1792,-20 1792.1011,-19.9837 1792.2022,-19.9674 1792.3035,-19.951"/>
<polygon fill="#191970" stroke="#191970" points="1792.6713,-23.4394 1801.9312,-18.2911 1791.4819,-16.5411 1792.6713,-23.4394"/>
</g>
<!-- Node24 -->
<g id="node25" class="node">
<title>Node24</title>
<polygon fill="#ffffff" stroke="#bfbfbf" points="1900.5,-.5 1900.5,-19.5 2047.5,-19.5 2047.5,-.5 1900.5,-.5"/>
<text text-anchor="middle" x="1974" y="-7.5" font-family="Helvetica,sans-Serif" font-size="10.00" fill="#000000">ml_MultiLevelPreconditioner.h</text>
</g>
<!-- Node5&#45;&gt;Node24 -->
<g id="edge24" class="edge">
<title>Node5&#45;&gt;Node24</title>
<path fill="none" stroke="#191970" d="M1451.1865,-62.8759C1528.4592,-55.9543 1719.0412,-38.5505 1890.0488,-20.0818"/>
<polygon fill="#191970" stroke="#191970" points="1890.6793,-23.5341 1900.244,-18.9769 1889.9251,-16.5748 1890.6793,-23.5341"/>
</g>
<!-- Node25 -->
<g id="node26" class="node">
<title>Node25</title>
<polygon fill="#ffffff" stroke="#bfbfbf" points="2065.5,-.5 2065.5,-19.5 2156.5,-19.5 2156.5,-.5 2065.5,-.5"/>
<text text-anchor="middle" x="2111" y="-7.5" font-family="Helvetica,sans-Serif" font-size="10.00" fill="#000000">ml_epetra_utils.h</text>
</g>
<!-- Node5&#45;&gt;Node25 -->
<g id="edge25" class="edge">
<title>Node5&#45;&gt;Node25</title>
<path fill="none" stroke="#191970" d="M1451.2265,-64.8516C1546.8178,-61.4424 1819.2272,-49.7811 2055.2441,-20.1055"/>
<polygon fill="#191970" stroke="#191970" points="2055.9123,-23.5488 2065.3911,-18.8156 2055.0295,-16.6047 2055.9123,-23.5488"/>
</g>
<!-- Node26 -->
<g id="node27" class="node">
<title>Node26</title>
<polygon fill="#ffffff" stroke="#bfbfbf" points="2174.5,-.5 2174.5,-19.5 2245.5,-19.5 2245.5,-.5 2174.5,-.5"/>
<text text-anchor="middle" x="2210" y="-7.5" font-family="Helvetica,sans-Serif" font-size="10.00" fill="#000000">ml_include.h</text>
</g>
<!-- Node5&#45;&gt;Node26 -->
<g id="edge26" class="edge">
<title>Node5&#45;&gt;Node26</title>
<path fill="none" stroke="#191970" d="M1451.1607,-64.1802C1584.8318,-57.2176 2058.8014,-32.1112 2163.8491,-19.9738"/>
<polygon fill="#191970" stroke="#191970" points="2164.5958,-23.4068 2174.0703,-18.6651 2163.7067,-16.4635 2164.5958,-23.4068"/>
</g>
<!-- Node27 -->
<g id="node28" class="node">
<title>Node27</title>
<polygon fill="#ffffff" stroke="#bfbfbf" points="2263.5,-.5 2263.5,-19.5 2400.5,-19.5 2400.5,-.5 2263.5,-.5"/>
<text text-anchor="middle" x="2332" y="-7.5" font-family="Helvetica,sans-Serif" font-size="10.00" fill="#000000">EpetraExt_RowMatrixOut.h</text>
</g>
<!-- Node5&#45;&gt;Node27 -->
<g id="edge27" class="edge">
<title>Node5&#45;&gt;Node27</title>
<path fill="none" stroke="#191970" d="M1451.1569,-64.4224C1586.6586,-58.2888 2075.9018,-35.6381 2253.2125,-20.0924"/>
<polygon fill="#191970" stroke="#191970" points="2253.5352,-23.5776 2263.1812,-19.1952 2252.9077,-16.6057 2253.5352,-23.5776"/>
</g>
<!-- Node28 -->
<g id="node29" class="node">
<title>Node28</title>
<polygon fill="#ffffff" stroke="#bfbfbf" points="2418.5,-.5 2418.5,-19.5 2557.5,-19.5 2557.5,-.5 2418.5,-.5"/>
<text text-anchor="middle" x="2488" y="-7.5" font-family="Helvetica,sans-Serif" font-size="10.00" fill="#000000">EpetraExt_MultiVectorOut.h</text>
</g>
<!-- Node5&#45;&gt;Node28 -->
<g id="edge28" class="edge">
<title>Node5&#45;&gt;Node28</title>
<path fill="none" stroke="#191970" d="M1451.009,-64.4189C1615.9491,-56.9649 2311.2627,-25.4898 2408.149,-19.8836"/>
<polygon fill="#191970" stroke="#191970" points="2408.5381,-23.3657 2418.2892,-19.2224 2408.0826,-16.3805 2408.5381,-23.3657"/>
</g>
<!-- Node29 -->
<g id="node30" class="node">
<title>Node29</title>
<polygon fill="#ffffff" stroke="#bfbfbf" points="2576,-.5 2576,-19.5 2686,-19.5 2686,-.5 2576,-.5"/>
<text text-anchor="middle" x="2631" y="-7.5" font-family="Helvetica,sans-Serif" font-size="10.00" fill="#000000">EpetraExt_VectorIn.h</text>
</g>
<!-- Node5&#45;&gt;Node29 -->
<g id="edge29" class="edge">
<title>Node5&#45;&gt;Node29</title>
<path fill="none" stroke="#191970" d="M1451.229,-64.3831C1495.6872,-62.356 1574.5062,-58.8066 1642,-56 2049.7553,-39.0443 2155.8068,-59.4895 2565.8422,-20.0003"/>
<polygon fill="#191970" stroke="#191970" points="2566.2779,-23.4745 2575.8937,-19.0261 2565.6026,-16.5072 2566.2779,-23.4745"/>
</g>
<!-- Node30 -->
<g id="node31" class="node">
<title>Node30</title>
<polygon fill="#ffffff" stroke="#bfbfbf" points="2704.5,-.5 2704.5,-19.5 2835.5,-19.5 2835.5,-.5 2704.5,-.5"/>
<text text-anchor="middle" x="2770" y="-7.5" font-family="Helvetica,sans-Serif" font-size="10.00" fill="#000000">EpetraExt_MultiVectorIn.h</text>
</g>
<!-- Node5&#45;&gt;Node30 -->
<g id="edge30" class="edge">
<title>Node5&#45;&gt;Node30</title>
<path fill="none" stroke="#191970" d="M1451.2269,-64.3316C1495.6829,-62.2514 1574.4997,-58.6472 1642,-56 2106.6009,-37.7798 2226.6581,-58.6913 2694.1363,-19.9843"/>
<polygon fill="#191970" stroke="#191970" points="2694.5147,-23.465 2704.1897,-19.1471 2693.9337,-16.4891 2694.5147,-23.465"/>
</g>
<!-- Node31 -->
<g id="node32" class="node">
<title>Node31</title>
<polygon fill="#ffffff" stroke="#bfbfbf" points="2933,-.5 2933,-19.5 3033,-19.5 3033,-.5 2933,-.5"/>
<text text-anchor="middle" x="2983" y="-7.5" font-family="Helvetica,sans-Serif" font-size="10.00" fill="#000000">Teuchos_RCP.hpp</text>
</g>
<!-- Node5&#45;&gt;Node31 -->
<g id="edge31" class="edge">
<title>Node5&#45;&gt;Node31</title>
<path fill="none" stroke="#191970" d="M1451.2244,-64.2651C1495.6778,-62.1162 1574.492,-58.4412 1642,-56 2208.2924,-35.5217 2355.0167,-75.2914 2922.7692,-19.9781"/>
<polygon fill="#191970" stroke="#191970" points="2923.2411,-23.4487 2932.8521,-18.9901 2922.5584,-16.482 2923.2411,-23.4487"/>
</g>
<!-- Node32 -->
<g id="node33" class="node">
<title>Node32</title>
<polygon fill="#ffffff" stroke="#bfbfbf" points="2853.5,-.5 2853.5,-19.5 2914.5,-19.5 2914.5,-.5 2853.5,-.5"/>
<text text-anchor="middle" x="2884" y="-7.5" font-family="Helvetica,sans-Serif" font-size="10.00" fill="#000000">Amesos.h</text>
</g>
<!-- Node5&#45;&gt;Node32 -->
<g id="edge32" class="edge">
<title>Node5&#45;&gt;Node32</title>
<path fill="none" stroke="#191970" d="M1451.2251,-64.2852C1495.6793,-62.157 1574.4943,-58.5034 1642,-56 1906.0067,-46.2094 2563.8614,-57.1689 2843.287,-19.9114"/>
<polygon fill="#191970" stroke="#191970" points="2844.043,-23.3404 2853.4715,-18.5079 2843.0873,-16.4059 2844.043,-23.3404"/>
</g>
<!-- Node38 -->
<g id="node35" class="node">
<title>Node38</title>
<g id="a_node35"><a xlink:href="../../d9/dea/_linear___finite___element___problem_8hpp.html" target="_top" xlink:title="Linear_Finite_Element\l_Problem.hpp">
<polygon fill="#ffffff" stroke="#000000" points="1395.5,-235.5 1395.5,-265.5 1508.5,-265.5 1508.5,-235.5 1395.5,-235.5"/>
<text text-anchor="start" x="1403.5" y="-253.5" font-family="Helvetica,sans-Serif" font-size="10.00" fill="#000000">Linear_Finite_Element</text>
<text text-anchor="middle" x="1452" y="-242.5" font-family="Helvetica,sans-Serif" font-size="10.00" fill="#000000">_Problem.hpp</text>
</a>
</g>
</g>
<!-- Node37&#45;&gt;Node38 -->
<g id="edge34" class="edge">
<title>Node37&#45;&gt;Node38</title>
<path fill="none" stroke="#191970" d="M1444.4063,-302.3906C1445.4551,-295.2234 1446.9386,-285.0862 1448.3164,-275.671"/>
<polygon fill="#191970" stroke="#191970" points="1451.8134,-275.946 1449.7984,-265.5446 1444.8872,-274.9324 1451.8134,-275.946"/>
</g>
<!-- Node39 -->
<g id="node36" class="node">
<title>Node39</title>
<g id="a_node36"><a xlink:href="../../d0/d41/_base_class_f_e_m_8hpp.html" target="_top" xlink:title="BaseClassFEM.hpp">
<polygon fill="#ffffff" stroke="#000000" points="1425,-112.5 1425,-131.5 1529,-131.5 1529,-112.5 1425,-112.5"/>
<text text-anchor="middle" x="1477" y="-119.5" font-family="Helvetica,sans-Serif" font-size="10.00" fill="#000000">BaseClassFEM.hpp</text>
</a>
</g>
</g>
<!-- Node38&#45;&gt;Node39 -->
<g id="edge35" class="edge">
<title>Node38&#45;&gt;Node39</title>
<path fill="none" stroke="#191970" d="M1454.966,-235.2548C1459.4952,-211.9744 1468.1361,-167.5607 1473.1456,-141.8117"/>
<polygon fill="#191970" stroke="#191970" points="1476.6317,-142.2202 1475.1059,-131.7358 1469.7605,-140.8833 1476.6317,-142.2202"/>
</g>
<!-- Node39&#45;&gt;Node5 -->
<g id="edge36" class="edge">
<title>Node39&#45;&gt;Node5</title>
<path fill="none" stroke="#191970" d="M1466.3746,-112.2455C1457.4527,-104.0549 1444.512,-92.1749 1433.9808,-82.5069"/>
<polygon fill="#191970" stroke="#191970" points="1436.2371,-79.8271 1426.5036,-75.6427 1431.5032,-84.9837 1436.2371,-79.8271"/>
</g>
<!-- Node41 -->
<g id="node38" class="node">
<title>Node41</title>
<g id="a_node38"><a xlink:href="../../d2/d34/hyperelasticity_8hpp.html" target="_top" xlink:title="hyperelasticity.hpp">
<polygon fill="#ffffff" stroke="#000000" points="1537,-241 1537,-260 1635,-260 1635,-241 1537,-241"/>
<text text-anchor="middle" x="1586" y="-248" font-family="Helvetica,sans-Serif" font-size="10.00" fill="#000000">hyperelasticity.hpp</text>
</a>
</g>
</g>
<!-- Node40&#45;&gt;Node41 -->
<g id="edge38" class="edge">
<title>Node40&#45;&gt;Node41</title>
<path fill="none" stroke="#191970" d="M1594.4375,-302.3906C1593.0513,-293.8657 1590.982,-281.1392 1589.2396,-270.4235"/>
<polygon fill="#191970" stroke="#191970" points="1592.6442,-269.5535 1587.5845,-260.2449 1585.7349,-270.677 1592.6442,-269.5535"/>
</g>
<!-- Node42 -->
<g id="node39" class="node">
<title>Node42</title>
<g id="a_node39"><a xlink:href="../../d2/d8b/_finite___element___problem_8hpp.html" target="_top" xlink:title="Finite_Element_Problem.hpp">
<polygon fill="#ffffff" stroke="#000000" points="1486,-174 1486,-193 1628,-193 1628,-174 1486,-174"/>
<text text-anchor="middle" x="1557" y="-181" font-family="Helvetica,sans-Serif" font-size="10.00" fill="#000000">Finite_Element_Problem.hpp</text>
</a>
</g>
</g>
<!-- Node41&#45;&gt;Node42 -->
<g id="edge39" class="edge">
<title>Node41&#45;&gt;Node42</title>
<path fill="none" stroke="#191970" d="M1581.845,-240.9005C1577.5381,-230.95 1570.6903,-215.1292 1565.2735,-202.6147"/>
<polygon fill="#191970" stroke="#191970" points="1568.3316,-200.8686 1561.1473,-193.0817 1561.9075,-203.6492 1568.3316,-200.8686"/>
</g>
<!-- Node42&#45;&gt;Node5 -->
<g id="edge40" class="edge">
<title>Node42&#45;&gt;Node5</title>
<path fill="none" stroke="#191970" d="M1557.0973,-173.8745C1556.7297,-158.7987 1553.8476,-129.532 1538,-112 1518.2345,-90.1337 1487.0118,-78.6107 1461.1013,-72.566"/>
<polygon fill="#191970" stroke="#191970" points="1461.6127,-69.0965 1451.103,-70.4371 1460.1548,-75.943 1461.6127,-69.0965"/>
</g>
<!-- Node42&#45;&gt;Node39 -->
<g id="edge41" class="edge">
<title>Node42&#45;&gt;Node39</title>
<path fill="none" stroke="#191970" d="M1544.5,-173.8906C1531.9364,-164.2324 1512.3577,-149.1812 1497.5151,-137.771"/>
<polygon fill="#191970" stroke="#191970" points="1499.4735,-134.8618 1489.4122,-131.5419 1495.2072,-140.4115 1499.4735,-134.8618"/>
</g>
<!-- Node43&#45;&gt;Node31 -->
<g id="edge44" class="edge">
<title>Node43&#45;&gt;Node31</title>
<path fill="none" stroke="#191970" d="M2054.8229,-247.759C1939.0394,-242.0136 1699.8179,-226.8774 1675,-199 1665.8387,-188.7093 1665.8488,-178.2996 1675,-168 1858.4672,38.4906 2628.9964,-57.4912 2922.5742,-20.0695"/>
<polygon fill="#191970" stroke="#191970" points="2923.3756,-23.493 2932.8147,-18.6813 2922.4352,-16.5564 2923.3756,-23.493"/>
</g>
<!-- Node43&#45;&gt;Node42 -->
<g id="edge43" class="edge">
<title>Node43&#45;&gt;Node42</title>
<path fill="none" stroke="#191970" d="M2054.9539,-245.2169C1964.0786,-237.1522 1789.5529,-220.4236 1642,-199 1633.571,-197.7762 1624.6995,-196.3327 1615.9964,-194.8272"/>
<polygon fill="#191970" stroke="#191970" points="1616.3505,-191.3356 1605.8938,-193.0409 1615.1316,-198.2287 1616.3505,-191.3356"/>
</g>
<!-- Node44 -->
<g id="node41" class="node">
<title>Node44</title>
<polygon fill="#ffffff" stroke="#bfbfbf" points="1684,-174 1684,-193 1736,-193 1736,-174 1684,-174"/>
<text text-anchor="middle" x="1710" y="-181" font-family="Helvetica,sans-Serif" font-size="10.00" fill="#000000">Ifpack.h</text>
</g>
<!-- Node43&#45;&gt;Node44 -->
<g id="edge45" class="edge">
<title>Node43&#45;&gt;Node44</title>
<path fill="none" stroke="#191970" d="M2054.6939,-247.194C1979.9115,-242.0172 1851.2931,-229.2468 1745,-199 1742.8188,-198.3793 1740.5972,-197.6487 1738.3847,-196.8484"/>
<polygon fill="#191970" stroke="#191970" points="1739.4801,-193.5163 1728.8969,-193.0196 1736.8604,-200.0076 1739.4801,-193.5163"/>
</g>
<!-- Node45 -->
<g id="node42" class="node">
<title>Node45</title>
<polygon fill="#ffffff" stroke="#bfbfbf" points="1754.5,-174 1754.5,-193 1885.5,-193 1885.5,-174 1754.5,-174"/>
<text text-anchor="middle" x="1820" y="-181" font-family="Helvetica,sans-Serif" font-size="10.00" fill="#000000">Ifpack_AdditiveSchwarz.h</text>
</g>
<!-- Node43&#45;&gt;Node45 -->
<g id="edge46" class="edge">
<title>Node43&#45;&gt;Node45</title>
<path fill="none" stroke="#191970" d="M2074.7626,-240.9717C2021.583,-228.975 1930.223,-208.3651 1872.5761,-195.3606"/>
<polygon fill="#191970" stroke="#191970" points="1873.0977,-191.8904 1862.5726,-193.1039 1871.5572,-198.7188 1873.0977,-191.8904"/>
</g>
<!-- Node46 -->
<g id="node43" class="node">
<title>Node46</title>
<polygon fill="#ffffff" stroke="#bfbfbf" points="1904,-174 1904,-193 2026,-193 2026,-174 1904,-174"/>
<text text-anchor="middle" x="1965" y="-181" font-family="Helvetica,sans-Serif" font-size="10.00" fill="#000000">BelosLinearProblem.hpp</text>
</g>
<!-- Node43&#45;&gt;Node46 -->
<g id="edge47" class="edge">
<title>Node43&#45;&gt;Node46</title>
<path fill="none" stroke="#191970" d="M2095.2221,-240.9005C2069.2616,-229.4574 2025.6887,-210.2509 1996.1654,-197.2374"/>
<polygon fill="#191970" stroke="#191970" points="1997.2997,-193.9125 1986.7375,-193.0817 1994.4763,-200.3178 1997.2997,-193.9125"/>
</g>
<!-- Node47 -->
<g id="node44" class="node">
<title>Node47</title>
<polygon fill="#ffffff" stroke="#bfbfbf" points="2044.5,-174 2044.5,-193 2189.5,-193 2189.5,-174 2044.5,-174"/>
<text text-anchor="middle" x="2117" y="-181" font-family="Helvetica,sans-Serif" font-size="10.00" fill="#000000">BelosBlockGmresSolMgr.hpp</text>
</g>
<!-- Node43&#45;&gt;Node47 -->
<g id="edge48" class="edge">
<title>Node43&#45;&gt;Node47</title>
<path fill="none" stroke="#191970" d="M2117,-240.9005C2117,-231.149 2117,-215.7597 2117,-203.3695"/>
<polygon fill="#191970" stroke="#191970" points="2120.5001,-203.0816 2117,-193.0817 2113.5001,-203.0817 2120.5001,-203.0816"/>
</g>
<!-- Node48 -->
<g id="node45" class="node">
<title>Node48</title>
<polygon fill="#ffffff" stroke="#bfbfbf" points="2208,-174 2208,-193 2330,-193 2330,-174 2208,-174"/>
<text text-anchor="middle" x="2269" y="-181" font-family="Helvetica,sans-Serif" font-size="10.00" fill="#000000">BelosEpetraAdapter.hpp</text>
</g>
<!-- Node43&#45;&gt;Node48 -->
<g id="edge49" class="edge">
<title>Node43&#45;&gt;Node48</title>
<path fill="none" stroke="#191970" d="M2138.7779,-240.9005C2164.7384,-229.4574 2208.3113,-210.2509 2237.8346,-197.2374"/>
<polygon fill="#191970" stroke="#191970" points="2239.5237,-200.3178 2247.2625,-193.0817 2236.7003,-193.9125 2239.5237,-200.3178"/>
</g>
<!-- Node49 -->
<g id="node46" class="node">
<title>Node49</title>
<polygon fill="#ffffff" stroke="#bfbfbf" points="2348.5,-174 2348.5,-193 2469.5,-193 2469.5,-174 2348.5,-174"/>
<text text-anchor="middle" x="2409" y="-181" font-family="Helvetica,sans-Serif" font-size="10.00" fill="#000000">BelosSolverFactory.hpp</text>
</g>
<!-- Node43&#45;&gt;Node49 -->
<g id="edge50" class="edge">
<title>Node43&#45;&gt;Node49</title>
<path fill="none" stroke="#191970" d="M2158.5264,-240.9717C2210.8107,-228.975 2300.6326,-208.3651 2357.3091,-195.3606"/>
<polygon fill="#191970" stroke="#191970" points="2358.1802,-198.7518 2367.1441,-193.1039 2356.6146,-191.929 2358.1802,-198.7518"/>
</g>
<!-- Node50 -->
<g id="node47" class="node">
<title>Node50</title>
<polygon fill="#ffffff" stroke="#bfbfbf" points="2488,-174 2488,-193 2664,-193 2664,-174 2488,-174"/>
<text text-anchor="middle" x="2576" y="-181" font-family="Helvetica,sans-Serif" font-size="10.00" fill="#000000">Teuchos_StandardCatchMacros.hpp</text>
</g>
<!-- Node43&#45;&gt;Node50 -->
<g id="edge51" class="edge">
<title>Node43&#45;&gt;Node50</title>
<path fill="none" stroke="#191970" d="M2179.1814,-241.9837C2251.3339,-232.0252 2373.8631,-214.8776 2479,-199 2488.2613,-197.6014 2498.0134,-196.0894 2507.6194,-194.5772"/>
<polygon fill="#191970" stroke="#191970" points="2508.2202,-198.0258 2517.5504,-193.0059 2507.1262,-191.1118 2508.2202,-198.0258"/>
</g>
<!-- Node51 -->
<g id="node48" class="node">
<title>Node51</title>
<polygon fill="#ffffff" stroke="#bfbfbf" points="2682.5,-174 2682.5,-193 2821.5,-193 2821.5,-174 2682.5,-174"/>
<text text-anchor="middle" x="2752" y="-181" font-family="Helvetica,sans-Serif" font-size="10.00" fill="#000000">Teuchos_ParameterList.hpp</text>
</g>
<!-- Node43&#45;&gt;Node51 -->
<g id="edge52" class="edge">
<title>Node43&#45;&gt;Node51</title>
<path fill="none" stroke="#191970" d="M2179.3634,-246.7935C2282.4631,-240.2026 2494.7714,-224.6713 2673,-199 2680.9664,-197.8525 2689.3463,-196.437 2697.5504,-194.9321"/>
<polygon fill="#191970" stroke="#191970" points="2698.2553,-198.3609 2707.431,-193.064 2696.9548,-191.4828 2698.2553,-198.3609"/>
</g>
<!-- Node52 -->
<g id="node49" class="node">
<title>Node52</title>
<polygon fill="#ffffff" stroke="#bfbfbf" points="2840,-168.5 2840,-198.5 2980,-198.5 2980,-168.5 2840,-168.5"/>
<text text-anchor="start" x="2848" y="-186.5" font-family="Helvetica,sans-Serif" font-size="10.00" fill="#000000">Teuchos_XMLParameterList</text>
<text text-anchor="middle" x="2910" y="-175.5" font-family="Helvetica,sans-Serif" font-size="10.00" fill="#000000">CoreHelpers.hpp</text>
</g>
<!-- Node43&#45;&gt;Node52 -->
<g id="edge53" class="edge">
<title>Node43&#45;&gt;Node52</title>
<path fill="none" stroke="#191970" d="M2179.3389,-248.5561C2302.0295,-244.1755 2583.5698,-231.3806 2829.6501,-199.0758"/>
<polygon fill="#191970" stroke="#191970" points="2830.4093,-202.5059 2839.8622,-197.7212 2829.4887,-195.5667 2830.4093,-202.5059"/>
</g>
<!-- Node53 -->
<g id="node50" class="node">
<title>Node53</title>
<polygon fill="#ffffff" stroke="#bfbfbf" points="2998.5,-168.5 2998.5,-198.5 3127.5,-198.5 3127.5,-168.5 2998.5,-168.5"/>
<text text-anchor="start" x="3006.5" y="-186.5" font-family="Helvetica,sans-Serif" font-size="10.00" fill="#000000">Stratimikos_DefaultLinear</text>
<text text-anchor="middle" x="3063" y="-175.5" font-family="Helvetica,sans-Serif" font-size="10.00" fill="#000000">SolverBuilder.hpp</text>
</g>
<!-- Node43&#45;&gt;Node53 -->
<g id="edge54" class="edge">
<title>Node43&#45;&gt;Node53</title>
<path fill="none" stroke="#191970" d="M2179.1503,-249.9691C2320.9802,-248.081 2679.425,-239.4786 2988.0842,-198.9847"/>
<polygon fill="#191970" stroke="#191970" points="2988.6679,-202.438 2998.1213,-197.6542 2987.748,-195.4987 2988.6679,-202.438"/>
</g>
</g>
</svg>
