<?xml version="1.0" encoding="UTF-8" standalone="no"?>
<!DOCTYPE svg PUBLIC "-//W3C//DTD SVG 1.1//EN"
 "http://www.w3.org/Graphics/SVG/1.1/DTD/svg11.dtd">
<!-- Generated by graphviz version 2.40.1 (20161225.0304)
 -->
<!-- Title: OrthotropicRF_Laminate Pages: 1 -->
<svg width="133pt" height="214pt"
 viewBox="0.00 0.00 133.49 214.00" xmlns="http://www.w3.org/2000/svg" xmlns:xlink="http://www.w3.org/1999/xlink">
<g id="graph0" class="graph" transform="scale(1 1) rotate(0) translate(4 210)">
<title>OrthotropicRF_Laminate</title>
<polygon fill="#ffffff" stroke="transparent" points="-4,4 -4,-210 129.4922,-210 129.4922,4 -4,4"/>
<!-- Node3 -->
<g id="node1" class="node">
<title>Node3</title>
<polygon fill="#bfbfbf" stroke="#000000" points="0,-.5 0,-18.5 125.4922,-18.5 125.4922,-.5 0,-.5"/>
<text text-anchor="middle" x="62.7461" y="-6.5" font-family="Helvetica,sans-Serif" font-size="10.00" fill="#000000">OrthotropicRF_Laminate</text>
</g>
<!-- Node4 -->
<g id="node2" class="node">
<title>Node4</title>
<g id="a_node2"><a xlink:href="../../d9/df7/class_linearized_elasticity.html" target="_top" xlink:title="LinearizedElasticity">
<polygon fill="#ffffff" stroke="#000000" points="11.9482,-56.5 11.9482,-74.5 113.5439,-74.5 113.5439,-56.5 11.9482,-56.5"/>
<text text-anchor="middle" x="62.7461" y="-62.5" font-family="Helvetica,sans-Serif" font-size="10.00" fill="#000000">LinearizedElasticity</text>
</a>
</g>
</g>
<!-- Node4&#45;&gt;Node3 -->
<g id="edge1" class="edge">
<title>Node4&#45;&gt;Node3</title>
<path fill="none" stroke="#191970" d="M62.7461,-46.2065C62.7461,-36.8384 62.7461,-26.0262 62.7461,-18.5752"/>
<polygon fill="#191970" stroke="#191970" points="59.2462,-46.2527 62.7461,-56.2527 66.2462,-46.2528 59.2462,-46.2527"/>
</g>
<!-- Node5 -->
<g id="node3" class="node">
<title>Node5</title>
<g id="a_node3"><a xlink:href="../../d3/d9f/class_linear___finite___element___problem.html" target="_top" xlink:title="Linear_Finite_Element\l_Problem">
<polygon fill="#ffffff" stroke="#000000" points="4.7168,-112.5 4.7168,-140.5 120.7754,-140.5 120.7754,-112.5 4.7168,-112.5"/>
<text text-anchor="start" x="12.7168" y="-128.5" font-family="Helvetica,sans-Serif" font-size="10.00" fill="#000000">Linear_Finite_Element</text>
<text text-anchor="middle" x="62.7461" y="-118.5" font-family="Helvetica,sans-Serif" font-size="10.00" fill="#000000">_Problem</text>
</a>
</g>
</g>
<!-- Node5&#45;&gt;Node4 -->
<g id="edge2" class="edge">
<title>Node5&#45;&gt;Node4</title>
<path fill="none" stroke="#191970" d="M62.7461,-102.1001C62.7461,-92.5157 62.7461,-82.0935 62.7461,-74.831"/>
<polygon fill="#191970" stroke="#191970" points="59.2462,-102.352 62.7461,-112.3521 66.2462,-102.3521 59.2462,-102.352"/>
</g>
<!-- Node6 -->
<g id="node4" class="node">
<title>Node6</title>
<g id="a_node4"><a xlink:href="../../d6/d6b/classmesh.html" target="_top" xlink:title="mesh">
<polygon fill="#ffffff" stroke="#000000" points="42.5195,-187.5 42.5195,-205.5 82.9727,-205.5 82.9727,-187.5 42.5195,-187.5"/>
<text text-anchor="middle" x="62.7461" y="-193.5" font-family="Helvetica,sans-Serif" font-size="10.00" fill="#000000">mesh</text>
</a>
</g>
</g>
<!-- Node6&#45;&gt;Node5 -->
<g id="edge3" class="edge">
<title>Node6&#45;&gt;Node5</title>
<path fill="none" stroke="#9a32cd" stroke-dasharray="5,2" d="M62.7461,-177.0243C62.7461,-165.5169 62.7461,-151.2016 62.7461,-140.7499"/>
<polygon fill="#9a32cd" stroke="#9a32cd" points="59.2462,-177.3487 62.7461,-187.3487 66.2462,-177.3488 59.2462,-177.3487"/>
<text text-anchor="middle" x="76.3618" y="-161" font-family="Helvetica,sans-Serif" font-size="10.00" fill="#000000"> Mesh</text>
</g>
</g>
</svg>
