<?xml version="1.0" encoding="UTF-8" standalone="no"?>
<!DOCTYPE svg PUBLIC "-//W3C//DTD SVG 1.1//EN"
 "http://www.w3.org/Graphics/SVG/1.1/DTD/svg11.dtd">
<!-- Generated by graphviz version 2.40.1 (20161225.0304)
 -->
<!-- Title: src/damageField.cpp Pages: 1 -->
<!--zoomable 196 -->
<svg id="main" version="1.1" xmlns="http://www.w3.org/2000/svg" xmlns:xlink="http://www.w3.org/1999/xlink" xml:space="preserve" onload="init(evt)">
<style type="text/css"><![CDATA[
.edge:hover path { stroke: red; }
.edge:hover polygon { stroke: red; fill: red; }
]]></style>
<script type="text/javascript"><![CDATA[
var edges = document.getElementsByTagName('g');
if (edges && edges.length) {
  for (var i=0;i<edges.length;i++) {
    if (edges[i].id.substr(0,4)=='edge') {
      edges[i].setAttribute('class','edge');
    }
  }
}
]]></script>
        <defs>
                <circle id="rim" cx="0" cy="0" r="7"/>
                <circle id="rim2" cx="0" cy="0" r="3.5"/>
                <g id="zoomPlus">
                        <use xlink:href="#rim" fill="#404040">
                                <set attributeName="fill" to="#808080" begin="zoomplus.mouseover" end="zoomplus.mouseout"/>
                        </use>
                        <path d="M-4,0h8M0,-4v8" fill="none" stroke="white" stroke-width="1.5" pointer-events="none"/>
                </g>
                <g id="zoomMin">
                        <use xlink:href="#rim" fill="#404040">
                                <set attributeName="fill" to="#808080" begin="zoomminus.mouseover" end="zoomminus.mouseout"/>
                        </use>
                        <path d="M-4,0h8" fill="none" stroke="white" stroke-width="1.5" pointer-events="none"/>
                </g>
                <g id="dirArrow">
                        <path fill="none" stroke="white" stroke-width="1.5" d="M0,-3.0v7 M-2.5,-0.5L0,-3.0L2.5,-0.5"/>
                </g>
               <g id="resetDef">
                       <use xlink:href="#rim2" fill="#404040">
                               <set attributeName="fill" to="#808080" begin="reset.mouseover" end="reset.mouseout"/>
                       </use>
               </g>
        </defs>

<script type="text/javascript">
var viewWidth = 3327;
var viewHeight = 196;
var sectionId = 'dynsection-0';
</script>
<script xlink:href="../../svgpan.js"/>
<svg id="graph" class="graph">
<g id="viewport">
<title>src/damageField.cpp</title>
<polygon fill="#ffffff" stroke="transparent" points="-4,4 -4,-192 3322.5,-192 3322.5,4 -4,4"/>
<!-- Node0 -->
<g id="node1" class="node">
<title>Node0</title>
<polygon fill="#bfbfbf" stroke="#000000" points="1466.5,-168.5 1466.5,-187.5 1573.5,-187.5 1573.5,-168.5 1466.5,-168.5"/>
<text text-anchor="middle" x="1520" y="-175.5" font-family="Helvetica,sans-Serif" font-size="10.00" fill="#000000">src/damageField.cpp</text>
</g>
<!-- Node1 -->
<g id="node2" class="node">
<title>Node1</title>
<g id="a_node2"><a xlink:href="../../d9/de5/damage_field_8hpp.html" target="_top" xlink:title="damageField.hpp">
<polygon fill="#ffffff" stroke="#000000" points="1429.5,-112.5 1429.5,-131.5 1520.5,-131.5 1520.5,-112.5 1429.5,-112.5"/>
<text text-anchor="middle" x="1475" y="-119.5" font-family="Helvetica,sans-Serif" font-size="10.00" fill="#000000">damageField.hpp</text>
</a>
</g>
</g>
<!-- Node0&#45;&gt;Node1 -->
<g id="edge1" class="edge">
<title>Node0&#45;&gt;Node1</title>
<path fill="none" stroke="#191970" d="M1512.1616,-168.2455C1505.838,-160.3761 1496.7776,-149.101 1489.1864,-139.6542"/>
<polygon fill="#191970" stroke="#191970" points="1491.7408,-137.2454 1482.7486,-131.6427 1486.2842,-141.6302 1491.7408,-137.2454"/>
</g>
<!-- Node2 -->
<g id="node3" class="node">
<title>Node2</title>
<g id="a_node3"><a xlink:href="../../d4/dbc/fepp_8hpp.html" target="_top" xlink:title="fepp.hpp">
<polygon fill="#ffffff" stroke="#000000" points="1539,-112.5 1539,-131.5 1593,-131.5 1593,-112.5 1539,-112.5"/>
<text text-anchor="middle" x="1566" y="-119.5" font-family="Helvetica,sans-Serif" font-size="10.00" fill="#000000">fepp.hpp</text>
</a>
</g>
</g>
<!-- Node0&#45;&gt;Node2 -->
<g id="edge2" class="edge">
<title>Node0&#45;&gt;Node2</title>
<path fill="none" stroke="#191970" d="M1528.0126,-168.2455C1534.4768,-160.3761 1543.7385,-149.101 1551.4983,-139.6542"/>
<polygon fill="#191970" stroke="#191970" points="1554.4364,-141.5916 1558.0792,-131.6427 1549.0273,-137.1484 1554.4364,-141.5916"/>
</g>
<!-- Node3 -->
<g id="node4" class="node">
<title>Node3</title>
<g id="a_node4"><a xlink:href="../../d0/d02/meshpp_8hpp.html" target="_top" xlink:title="meshpp.hpp">
<polygon fill="#ffffff" stroke="#000000" points="1531,-56.5 1531,-75.5 1601,-75.5 1601,-56.5 1531,-56.5"/>
<text text-anchor="middle" x="1566" y="-63.5" font-family="Helvetica,sans-Serif" font-size="10.00" fill="#000000">meshpp.hpp</text>
</a>
</g>
</g>
<!-- Node2&#45;&gt;Node3 -->
<g id="edge3" class="edge">
<title>Node2&#45;&gt;Node3</title>
<path fill="none" stroke="#191970" d="M1560.7332,-112.2455C1559.3221,-104.9382 1558.9179,-94.6944 1559.5205,-85.7046"/>
<polygon fill="#191970" stroke="#191970" points="1563.0111,-85.9945 1560.7549,-75.6427 1556.0632,-85.1421 1563.0111,-85.9945"/>
</g>
<!-- Node3&#45;&gt;Node2 -->
<g id="edge34" class="edge">
<title>Node3&#45;&gt;Node2</title>
<path fill="none" stroke="#191970" d="M1571.2451,-75.6427C1572.6665,-82.9199 1573.081,-93.155 1572.4887,-102.1575"/>
<polygon fill="#191970" stroke="#191970" points="1568.9947,-101.8972 1571.2668,-112.2455 1575.9439,-102.739 1568.9947,-101.8972"/>
</g>
<!-- Node4 -->
<g id="node5" class="node">
<title>Node4</title>
<polygon fill="#ffffff" stroke="#bfbfbf" points="0,-.5 0,-19.5 46,-19.5 46,-.5 0,-.5"/>
<text text-anchor="middle" x="23" y="-7.5" font-family="Helvetica,sans-Serif" font-size="10.00" fill="#000000">stdio.h</text>
</g>
<!-- Node3&#45;&gt;Node4 -->
<g id="edge4" class="edge">
<title>Node3&#45;&gt;Node4</title>
<path fill="none" stroke="#191970" d="M1530.9024,-65.5041C1322.144,-62.4796 246.784,-45.8349 56.3188,-19.6051"/>
<polygon fill="#191970" stroke="#191970" points="56.6533,-16.1158 46.2397,-18.0668 55.5971,-23.0356 56.6533,-16.1158"/>
</g>
<!-- Node5 -->
<g id="node6" class="node">
<title>Node5</title>
<polygon fill="#ffffff" stroke="#bfbfbf" points="64,-.5 64,-19.5 118,-19.5 118,-.5 64,-.5"/>
<text text-anchor="middle" x="91" y="-7.5" font-family="Helvetica,sans-Serif" font-size="10.00" fill="#000000">iostream</text>
</g>
<!-- Node3&#45;&gt;Node5 -->
<g id="edge5" class="edge">
<title>Node3&#45;&gt;Node5</title>
<path fill="none" stroke="#191970" d="M1530.924,-65.3807C1328.39,-61.7391 311.4314,-42.5454 128.5218,-19.732"/>
<polygon fill="#191970" stroke="#191970" points="128.7553,-16.231 118.3704,-18.3294 127.7972,-23.1652 128.7553,-16.231"/>
</g>
<!-- Node6 -->
<g id="node7" class="node">
<title>Node6</title>
<polygon fill="#ffffff" stroke="#bfbfbf" points="136.5,-.5 136.5,-19.5 185.5,-19.5 185.5,-.5 136.5,-.5"/>
<text text-anchor="middle" x="161" y="-7.5" font-family="Helvetica,sans-Serif" font-size="10.00" fill="#000000">istream</text>
</g>
<!-- Node3&#45;&gt;Node6 -->
<g id="edge6" class="edge">
<title>Node3&#45;&gt;Node6</title>
<path fill="none" stroke="#191970" d="M1530.9586,-65.3533C1334.3218,-61.6556 370.9448,-42.6055 195.674,-19.5096"/>
<polygon fill="#191970" stroke="#191970" points="196.1168,-16.0372 185.7157,-18.0537 195.1041,-22.9636 196.1168,-16.0372"/>
</g>
<!-- Node7 -->
<g id="node8" class="node">
<title>Node7</title>
<polygon fill="#ffffff" stroke="#bfbfbf" points="204,-.5 204,-19.5 254,-19.5 254,-.5 204,-.5"/>
<text text-anchor="middle" x="229" y="-7.5" font-family="Helvetica,sans-Serif" font-size="10.00" fill="#000000">fstream</text>
</g>
<!-- Node3&#45;&gt;Node7 -->
<g id="edge7" class="edge">
<title>Node3&#45;&gt;Node7</title>
<path fill="none" stroke="#191970" d="M1530.8067,-65.2846C1339.9035,-61.3353 431.3709,-41.6381 264.0241,-19.5965"/>
<polygon fill="#191970" stroke="#191970" points="264.4903,-16.1275 254.0886,-18.1414 263.4759,-23.0536 264.4903,-16.1275"/>
</g>
<!-- Node8 -->
<g id="node9" class="node">
<title>Node8</title>
<polygon fill="#ffffff" stroke="#bfbfbf" points="272,-.5 272,-19.5 316,-19.5 316,-.5 272,-.5"/>
<text text-anchor="middle" x="294" y="-7.5" font-family="Helvetica,sans-Serif" font-size="10.00" fill="#000000">vector</text>
</g>
<!-- Node3&#45;&gt;Node8 -->
<g id="edge8" class="edge">
<title>Node3&#45;&gt;Node8</title>
<path fill="none" stroke="#191970" d="M1530.937,-65.2752C1345.9639,-61.3762 486.2844,-42.2965 326.0839,-19.5319"/>
<polygon fill="#191970" stroke="#191970" points="326.5908,-16.0686 316.1656,-17.957 325.493,-22.982 326.5908,-16.0686"/>
</g>
<!-- Node9 -->
<g id="node10" class="node">
<title>Node9</title>
<polygon fill="#ffffff" stroke="#bfbfbf" points="334,-.5 334,-19.5 384,-19.5 384,-.5 334,-.5"/>
<text text-anchor="middle" x="359" y="-7.5" font-family="Helvetica,sans-Serif" font-size="10.00" fill="#000000">iomanip</text>
</g>
<!-- Node3&#45;&gt;Node9 -->
<g id="edge9" class="edge">
<title>Node3&#45;&gt;Node9</title>
<path fill="none" stroke="#191970" d="M1530.8121,-65.7891C1362.7796,-64.606 640.3912,-57.4853 394.0569,-19.7184"/>
<polygon fill="#191970" stroke="#191970" points="394.5167,-16.2476 384.0905,-18.1302 393.415,-23.1603 394.5167,-16.2476"/>
</g>
<!-- Node10 -->
<g id="node11" class="node">
<title>Node10</title>
<polygon fill="#ffffff" stroke="#bfbfbf" points="402,-.5 402,-19.5 506,-19.5 506,-.5 402,-.5"/>
<text text-anchor="middle" x="454" y="-7.5" font-family="Helvetica,sans-Serif" font-size="10.00" fill="#000000">Epetra_MpiComm.h</text>
</g>
<!-- Node3&#45;&gt;Node10 -->
<g id="edge10" class="edge">
<title>Node3&#45;&gt;Node10</title>
<path fill="none" stroke="#191970" d="M1530.9108,-65.0255C1374.401,-60.5941 738.3616,-41.6642 516.1385,-19.9757"/>
<polygon fill="#191970" stroke="#191970" points="516.4891,-16.4934 506.1887,-18.9738 515.7877,-23.4582 516.4891,-16.4934"/>
</g>
<!-- Node11 -->
<g id="node12" class="node">
<title>Node11</title>
<polygon fill="#ffffff" stroke="#bfbfbf" points="524.5,-.5 524.5,-19.5 637.5,-19.5 637.5,-.5 524.5,-.5"/>
<text text-anchor="middle" x="581" y="-7.5" font-family="Helvetica,sans-Serif" font-size="10.00" fill="#000000">Epetra_FECrsGraph.h</text>
</g>
<!-- Node3&#45;&gt;Node11 -->
<g id="edge11" class="edge">
<title>Node3&#45;&gt;Node11</title>
<path fill="none" stroke="#191970" d="M1530.8478,-65.5097C1409.703,-63.5525 998.2632,-54.6852 647.9222,-19.9894"/>
<polygon fill="#191970" stroke="#191970" points="648.1344,-16.4933 637.8359,-18.9817 647.4384,-23.4586 648.1344,-16.4933"/>
</g>
<!-- Node12 -->
<g id="node13" class="node">
<title>Node12</title>
<polygon fill="#ffffff" stroke="#bfbfbf" points="656,-.5 656,-19.5 770,-19.5 770,-.5 656,-.5"/>
<text text-anchor="middle" x="713" y="-7.5" font-family="Helvetica,sans-Serif" font-size="10.00" fill="#000000">Epetra_FECrsMatrix.h</text>
</g>
<!-- Node3&#45;&gt;Node12 -->
<g id="edge12" class="edge">
<title>Node3&#45;&gt;Node12</title>
<path fill="none" stroke="#191970" d="M1530.9985,-65.1025C1421.6369,-62.0554 1076.4672,-50.5988 780.2694,-20.0437"/>
<polygon fill="#191970" stroke="#191970" points="780.5047,-16.5494 770.1961,-18.9952 779.7799,-23.5118 780.5047,-16.5494"/>
</g>
<!-- Node13 -->
<g id="node14" class="node">
<title>Node13</title>
<polygon fill="#ffffff" stroke="#bfbfbf" points="788,-.5 788,-19.5 888,-19.5 888,-.5 788,-.5"/>
<text text-anchor="middle" x="838" y="-7.5" font-family="Helvetica,sans-Serif" font-size="10.00" fill="#000000">Epetra_FEVector.h</text>
</g>
<!-- Node3&#45;&gt;Node13 -->
<g id="edge13" class="edge">
<title>Node3&#45;&gt;Node13</title>
<path fill="none" stroke="#191970" d="M1530.7055,-64.808C1432.2838,-61.222 1146.2935,-49.0167 898.447,-20.0641"/>
<polygon fill="#191970" stroke="#191970" points="898.5044,-16.5467 888.1631,-18.8505 897.6839,-23.4984 898.5044,-16.5467"/>
</g>
<!-- Node14 -->
<g id="node15" class="node">
<title>Node14</title>
<polygon fill="#ffffff" stroke="#bfbfbf" points="906.5,-.5 906.5,-19.5 993.5,-19.5 993.5,-.5 906.5,-.5"/>
<text text-anchor="middle" x="950" y="-7.5" font-family="Helvetica,sans-Serif" font-size="10.00" fill="#000000">Epetra_Vector.h</text>
</g>
<!-- Node3&#45;&gt;Node14 -->
<g id="edge14" class="edge">
<title>Node3&#45;&gt;Node14</title>
<path fill="none" stroke="#191970" d="M1530.8758,-64.4636C1443.4252,-60.3552 1208.783,-47.5962 1003.6881,-20.1103"/>
<polygon fill="#191970" stroke="#191970" points="1004.0155,-16.6227 993.636,-18.7479 1003.0753,-23.5593 1004.0155,-16.6227"/>
</g>
<!-- Node15 -->
<g id="node16" class="node">
<title>Node15</title>
<polygon fill="#ffffff" stroke="#bfbfbf" points="1011.5,-.5 1011.5,-19.5 1088.5,-19.5 1088.5,-.5 1011.5,-.5"/>
<text text-anchor="middle" x="1050" y="-7.5" font-family="Helvetica,sans-Serif" font-size="10.00" fill="#000000">Epetra_Map.h</text>
</g>
<!-- Node3&#45;&gt;Node15 -->
<g id="edge15" class="edge">
<title>Node3&#45;&gt;Node15</title>
<path fill="none" stroke="#191970" d="M1530.825,-63.9C1454.0633,-59.0282 1265.6442,-45.4999 1098.6203,-20.116"/>
<polygon fill="#191970" stroke="#191970" points="1099.0812,-16.6458 1088.6653,-18.5849 1098.017,-23.5644 1099.0812,-16.6458"/>
</g>
<!-- Node16 -->
<g id="node17" class="node">
<title>Node16</title>
<polygon fill="#ffffff" stroke="#bfbfbf" points="1106.5,-.5 1106.5,-19.5 1245.5,-19.5 1245.5,-.5 1106.5,-.5"/>
<text text-anchor="middle" x="1176" y="-7.5" font-family="Helvetica,sans-Serif" font-size="10.00" fill="#000000">Epetra_SerialDenseMatrix.h</text>
</g>
<!-- Node3&#45;&gt;Node16 -->
<g id="edge16" class="edge">
<title>Node3&#45;&gt;Node16</title>
<path fill="none" stroke="#191970" d="M1530.7023,-60.9316C1468.1799,-51.954 1336.6508,-33.0678 1252.5159,-20.9869"/>
<polygon fill="#191970" stroke="#191970" points="1252.8942,-17.5054 1242.4983,-19.5485 1251.8993,-24.4343 1252.8942,-17.5054"/>
</g>
<!-- Node17 -->
<g id="node18" class="node">
<title>Node17</title>
<polygon fill="#ffffff" stroke="#bfbfbf" points="1264,-.5 1264,-19.5 1404,-19.5 1404,-.5 1264,-.5"/>
<text text-anchor="middle" x="1334" y="-7.5" font-family="Helvetica,sans-Serif" font-size="10.00" fill="#000000">Epetra_SerialDenseVector.h</text>
</g>
<!-- Node3&#45;&gt;Node17 -->
<g id="edge17" class="edge">
<title>Node3&#45;&gt;Node17</title>
<path fill="none" stroke="#191970" d="M1530.7642,-57.4948C1491.4858,-48.0138 1427.6815,-32.6128 1383.4239,-21.9299"/>
<polygon fill="#191970" stroke="#191970" points="1384.0004,-18.4686 1373.4583,-19.5244 1382.3578,-25.2732 1384.0004,-18.4686"/>
</g>
<!-- Node18 -->
<g id="node19" class="node">
<title>Node18</title>
<polygon fill="#ffffff" stroke="#bfbfbf" points="1422,-.5 1422,-19.5 1574,-19.5 1574,-.5 1422,-.5"/>
<text text-anchor="middle" x="1498" y="-7.5" font-family="Helvetica,sans-Serif" font-size="10.00" fill="#000000">Epetra_IntSerialDenseVector.h</text>
</g>
<!-- Node3&#45;&gt;Node18 -->
<g id="edge18" class="edge">
<title>Node3&#45;&gt;Node18</title>
<path fill="none" stroke="#191970" d="M1554.1553,-56.2455C1544.112,-47.9746 1529.5005,-35.9416 1517.6996,-26.2232"/>
<polygon fill="#191970" stroke="#191970" points="1519.6533,-23.298 1509.709,-19.6427 1515.2033,-28.7015 1519.6533,-23.298"/>
</g>
<!-- Node19 -->
<g id="node20" class="node">
<title>Node19</title>
<polygon fill="#ffffff" stroke="#bfbfbf" points="1592,-.5 1592,-19.5 1678,-19.5 1678,-.5 1592,-.5"/>
<text text-anchor="middle" x="1635" y="-7.5" font-family="Helvetica,sans-Serif" font-size="10.00" fill="#000000">Epetra_Import.h</text>
</g>
<!-- Node3&#45;&gt;Node19 -->
<g id="edge19" class="edge">
<title>Node3&#45;&gt;Node19</title>
<path fill="none" stroke="#191970" d="M1578.0189,-56.2455C1588.2098,-47.9746 1603.0362,-35.9416 1615.0107,-26.2232"/>
<polygon fill="#191970" stroke="#191970" points="1617.5598,-28.662 1623.1188,-19.6427 1613.1486,-23.2268 1617.5598,-28.662"/>
</g>
<!-- Node20 -->
<g id="node21" class="node">
<title>Node20</title>
<polygon fill="#ffffff" stroke="#bfbfbf" points="1696.5,-.5 1696.5,-19.5 1783.5,-19.5 1783.5,-.5 1696.5,-.5"/>
<text text-anchor="middle" x="1740" y="-7.5" font-family="Helvetica,sans-Serif" font-size="10.00" fill="#000000">Epetra_Export.h</text>
</g>
<!-- Node3&#45;&gt;Node20 -->
<g id="edge20" class="edge">
<title>Node3&#45;&gt;Node20</title>
<path fill="none" stroke="#191970" d="M1595.9117,-56.3733C1624.8452,-47.0613 1668.8611,-32.8953 1700.6293,-22.671"/>
<polygon fill="#191970" stroke="#191970" points="1702.0318,-25.8965 1710.4787,-19.5011 1699.8872,-19.2331 1702.0318,-25.8965"/>
</g>
<!-- Node21 -->
<g id="node22" class="node">
<title>Node21</title>
<polygon fill="#ffffff" stroke="#bfbfbf" points="1802,-.5 1802,-19.5 1882,-19.5 1882,-.5 1802,-.5"/>
<text text-anchor="middle" x="1842" y="-7.5" font-family="Helvetica,sans-Serif" font-size="10.00" fill="#000000">Epetra_Time.h</text>
</g>
<!-- Node3&#45;&gt;Node21 -->
<g id="edge21" class="edge">
<title>Node3&#45;&gt;Node21</title>
<path fill="none" stroke="#191970" d="M1601.0018,-58.9227C1643.6747,-50.2909 1718.2655,-35.1919 1791.9703,-20.2075"/>
<polygon fill="#191970" stroke="#191970" points="1792.7876,-23.613 1801.8896,-18.1905 1791.3927,-16.7534 1792.7876,-23.613"/>
</g>
<!-- Node22 -->
<g id="node23" class="node">
<title>Node22</title>
<polygon fill="#ffffff" stroke="#bfbfbf" points="1900.5,-.5 1900.5,-19.5 2047.5,-19.5 2047.5,-.5 1900.5,-.5"/>
<text text-anchor="middle" x="1974" y="-7.5" font-family="Helvetica,sans-Serif" font-size="10.00" fill="#000000">ml_MultiLevelPreconditioner.h</text>
</g>
<!-- Node3&#45;&gt;Node22 -->
<g id="edge22" class="edge">
<title>Node3&#45;&gt;Node22</title>
<path fill="none" stroke="#191970" d="M1601.139,-61.177C1665.9087,-52.287 1805.6048,-33.1131 1894.4115,-20.9239"/>
<polygon fill="#191970" stroke="#191970" points="1895.0141,-24.3741 1904.4452,-19.5467 1894.0621,-17.4391 1895.0141,-24.3741"/>
</g>
<!-- Node23 -->
<g id="node24" class="node">
<title>Node23</title>
<polygon fill="#ffffff" stroke="#bfbfbf" points="2065.5,-.5 2065.5,-19.5 2156.5,-19.5 2156.5,-.5 2065.5,-.5"/>
<text text-anchor="middle" x="2111" y="-7.5" font-family="Helvetica,sans-Serif" font-size="10.00" fill="#000000">ml_epetra_utils.h</text>
</g>
<!-- Node3&#45;&gt;Node23 -->
<g id="edge23" class="edge">
<title>Node3&#45;&gt;Node23</title>
<path fill="none" stroke="#191970" d="M1601.2524,-63.7873C1680.5963,-58.5735 1879.4171,-44.2052 2055.4246,-20.1216"/>
<polygon fill="#191970" stroke="#191970" points="2055.9552,-23.5816 2065.3817,-18.7452 2054.9966,-16.6475 2055.9552,-23.5816"/>
</g>
<!-- Node24 -->
<g id="node25" class="node">
<title>Node24</title>
<polygon fill="#ffffff" stroke="#bfbfbf" points="2174.5,-.5 2174.5,-19.5 2245.5,-19.5 2245.5,-.5 2174.5,-.5"/>
<text text-anchor="middle" x="2210" y="-7.5" font-family="Helvetica,sans-Serif" font-size="10.00" fill="#000000">ml_include.h</text>
</g>
<!-- Node3&#45;&gt;Node24 -->
<g id="edge24" class="edge">
<title>Node3&#45;&gt;Node24</title>
<path fill="none" stroke="#191970" d="M1601.0334,-65.1116C1692.3317,-62.4148 1945.1362,-52.5057 2163.9971,-20.1286"/>
<polygon fill="#191970" stroke="#191970" points="2164.6929,-23.5635 2174.0636,-18.6197 2163.6552,-16.6408 2164.6929,-23.5635"/>
</g>
<!-- Node25 -->
<g id="node26" class="node">
<title>Node25</title>
<polygon fill="#ffffff" stroke="#bfbfbf" points="2263.5,-.5 2263.5,-19.5 2400.5,-19.5 2400.5,-.5 2263.5,-.5"/>
<text text-anchor="middle" x="2332" y="-7.5" font-family="Helvetica,sans-Serif" font-size="10.00" fill="#000000">EpetraExt_RowMatrixOut.h</text>
</g>
<!-- Node3&#45;&gt;Node25 -->
<g id="edge25" class="edge">
<title>Node3&#45;&gt;Node25</title>
<path fill="none" stroke="#191970" d="M1601.1984,-64.4283C1701.4254,-59.7875 1997.1097,-44.9489 2252.9455,-20.1536"/>
<polygon fill="#191970" stroke="#191970" points="2253.5649,-23.6099 2263.1773,-19.1545 2252.8845,-16.643 2253.5649,-23.6099"/>
</g>
<!-- Node26 -->
<g id="node27" class="node">
<title>Node26</title>
<polygon fill="#ffffff" stroke="#bfbfbf" points="2418.5,-.5 2418.5,-19.5 2557.5,-19.5 2557.5,-.5 2418.5,-.5"/>
<text text-anchor="middle" x="2488" y="-7.5" font-family="Helvetica,sans-Serif" font-size="10.00" fill="#000000">EpetraExt_MultiVectorOut.h</text>
</g>
<!-- Node3&#45;&gt;Node26 -->
<g id="edge26" class="edge">
<title>Node3&#45;&gt;Node26</title>
<path fill="none" stroke="#191970" d="M1601.0391,-65.0079C1715.4737,-61.5738 2088.7611,-48.8421 2407.9094,-20.1348"/>
<polygon fill="#191970" stroke="#191970" points="2408.6435,-23.5827 2418.2866,-19.1939 2408.0114,-16.6113 2408.6435,-23.5827"/>
</g>
<!-- Node27 -->
<g id="node28" class="node">
<title>Node27</title>
<polygon fill="#ffffff" stroke="#bfbfbf" points="2576,-.5 2576,-19.5 2686,-19.5 2686,-.5 2576,-.5"/>
<text text-anchor="middle" x="2631" y="-7.5" font-family="Helvetica,sans-Serif" font-size="10.00" fill="#000000">EpetraExt_VectorIn.h</text>
</g>
<!-- Node3&#45;&gt;Node27 -->
<g id="edge27" class="edge">
<title>Node3&#45;&gt;Node27</title>
<path fill="none" stroke="#191970" d="M1601.12,-65.7705C1729.016,-64.6438 2182.0349,-58.1079 2565.7019,-20.022"/>
<polygon fill="#191970" stroke="#191970" points="2566.2898,-23.4807 2575.8912,-19.0014 2565.5921,-16.5155 2566.2898,-23.4807"/>
</g>
<!-- Node28 -->
<g id="node29" class="node">
<title>Node28</title>
<polygon fill="#ffffff" stroke="#bfbfbf" points="2704.5,-.5 2704.5,-19.5 2835.5,-19.5 2835.5,-.5 2704.5,-.5"/>
<text text-anchor="middle" x="2770" y="-7.5" font-family="Helvetica,sans-Serif" font-size="10.00" fill="#000000">EpetraExt_MultiVectorIn.h</text>
</g>
<!-- Node3&#45;&gt;Node28 -->
<g id="edge28" class="edge">
<title>Node3&#45;&gt;Node28</title>
<path fill="none" stroke="#191970" d="M1601.1924,-65.7423C1739.2275,-64.4845 2257.1245,-57.4508 2694.2024,-19.9851"/>
<polygon fill="#191970" stroke="#191970" points="2694.5259,-23.4703 2704.1876,-19.1227 2693.9235,-16.4963 2694.5259,-23.4703"/>
</g>
<!-- Node29 -->
<g id="node30" class="node">
<title>Node29</title>
<polygon fill="#ffffff" stroke="#bfbfbf" points="2854,-.5 2854,-19.5 2954,-19.5 2954,-.5 2854,-.5"/>
<text text-anchor="middle" x="2904" y="-7.5" font-family="Helvetica,sans-Serif" font-size="10.00" fill="#000000">Teuchos_RCP.hpp</text>
</g>
<!-- Node3&#45;&gt;Node29 -->
<g id="edge29" class="edge">
<title>Node3&#45;&gt;Node29</title>
<path fill="none" stroke="#191970" d="M1601.2674,-65.3617C1778.4539,-62.0603 2573.3011,-46.1001 2843.6818,-19.9758"/>
<polygon fill="#191970" stroke="#191970" points="2844.2456,-23.437 2853.8494,-18.963 2843.5517,-16.4715 2844.2456,-23.437"/>
</g>
<!-- Node30 -->
<g id="node31" class="node">
<title>Node30</title>
<polygon fill="#ffffff" stroke="#bfbfbf" points="2972.5,-.5 2972.5,-19.5 3033.5,-19.5 3033.5,-.5 2972.5,-.5"/>
<text text-anchor="middle" x="3003" y="-7.5" font-family="Helvetica,sans-Serif" font-size="10.00" fill="#000000">Amesos.h</text>
</g>
<!-- Node3&#45;&gt;Node30 -->
<g id="edge30" class="edge">
<title>Node3&#45;&gt;Node30</title>
<path fill="none" stroke="#191970" d="M1601.0826,-65.8525C1787.8292,-64.9159 2667.3208,-58.571 2961.8887,-19.8008"/>
<polygon fill="#191970" stroke="#191970" points="2962.6822,-23.2251 2972.1186,-18.4079 2961.7378,-16.2891 2962.6822,-23.2251"/>
</g>
<!-- Node31 -->
<g id="node32" class="node">
<title>Node31</title>
<polygon fill="#ffffff" stroke="#bfbfbf" points="3051.5,-.5 3051.5,-19.5 3116.5,-19.5 3116.5,-.5 3051.5,-.5"/>
<text text-anchor="middle" x="3084" y="-7.5" font-family="Helvetica,sans-Serif" font-size="10.00" fill="#000000">AztecOO.h</text>
</g>
<!-- Node3&#45;&gt;Node31 -->
<g id="edge31" class="edge">
<title>Node3&#45;&gt;Node31</title>
<path fill="none" stroke="#191970" d="M1601.1453,-65.8976C1794.4125,-65.1856 2730.1049,-59.7771 3041.0908,-19.9583"/>
<polygon fill="#191970" stroke="#191970" points="3041.9892,-23.37 3051.4436,-18.5881 3041.0708,-16.4305 3041.9892,-23.37"/>
</g>
<!-- Node32 -->
<g id="node33" class="node">
<title>Node32</title>
<polygon fill="#ffffff" stroke="#bfbfbf" points="3135,-.5 3135,-19.5 3251,-19.5 3251,-.5 3135,-.5"/>
<text text-anchor="middle" x="3193" y="-7.5" font-family="Helvetica,sans-Serif" font-size="10.00" fill="#000000">Amesos_BaseSolver.h</text>
</g>
<!-- Node3&#45;&gt;Node32 -->
<g id="edge32" class="edge">
<title>Node3&#45;&gt;Node32</title>
<path fill="none" stroke="#191970" d="M1601.072,-65.5327C1800.5738,-62.7898 2794.7803,-47.9627 3124.9009,-19.9697"/>
<polygon fill="#191970" stroke="#191970" points="3125.2869,-23.4495 3134.9457,-19.0955 3124.6799,-16.4758 3125.2869,-23.4495"/>
</g>
<!-- Node33 -->
<g id="node34" class="node">
<title>Node33</title>
<polygon fill="#ffffff" stroke="#bfbfbf" points="3269.5,-.5 3269.5,-19.5 3318.5,-19.5 3318.5,-.5 3269.5,-.5"/>
<text text-anchor="middle" x="3294" y="-7.5" font-family="Helvetica,sans-Serif" font-size="10.00" fill="#000000">metis.h</text>
</g>
<!-- Node3&#45;&gt;Node33 -->
<g id="edge33" class="edge">
<title>Node3&#45;&gt;Node33</title>
<path fill="none" stroke="#191970" d="M1601.1957,-65.5913C1825.1185,-62.92 3048.0748,-47.2479 3259.2029,-19.5293"/>
<polygon fill="#191970" stroke="#191970" points="3259.8905,-22.9664 3269.2873,-18.0726 3258.8896,-16.0383 3259.8905,-22.9664"/>
</g>
</g>
</svg>
        <g id="navigator" transform="translate(0 0)" fill="#404254">
                <rect fill="#f2f5e9" fill-opacity="0.5" stroke="#606060" stroke-width=".5" x="0" y="0" width="60" height="60"/>
                <use id="zoomplus" xlink:href="#zoomPlus" x="17" y="9" onmousedown="handleZoom(evt,'in')"/>
                <use id="zoomminus" xlink:href="#zoomMin" x="42" y="9" onmousedown="handleZoom(evt,'out')"/>
                <use id="reset" xlink:href="#resetDef" x="30" y="36" onmousedown="handleReset()"/>
                <g id="arrowUp" xlink:href="#dirArrow" transform="translate(30 24)" onmousedown="handlePan(0,-1)">
                  <use xlink:href="#rim" fill="#404040">
                        <set attributeName="fill" to="#808080" begin="arrowUp.mouseover" end="arrowUp.mouseout"/>
                  </use>
                  <path fill="none" stroke="white" stroke-width="1.5" d="M0,-3.0v7 M-2.5,-0.5L0,-3.0L2.5,-0.5"/>
                </g>
                <g id="arrowRight" xlink:href="#dirArrow" transform="rotate(90) translate(36 -43)" onmousedown="handlePan(1,0)">
                  <use xlink:href="#rim" fill="#404040">
                        <set attributeName="fill" to="#808080" begin="arrowRight.mouseover" end="arrowRight.mouseout"/>
                  </use>
                  <path fill="none" stroke="white" stroke-width="1.5" d="M0,-3.0v7 M-2.5,-0.5L0,-3.0L2.5,-0.5"/>
                </g>
                <g id="arrowDown" xlink:href="#dirArrow" transform="rotate(180) translate(-30 -48)" onmousedown="handlePan(0,1)">
                  <use xlink:href="#rim" fill="#404040">
                        <set attributeName="fill" to="#808080" begin="arrowDown.mouseover" end="arrowDown.mouseout"/>
                  </use>
                  <path fill="none" stroke="white" stroke-width="1.5" d="M0,-3.0v7 M-2.5,-0.5L0,-3.0L2.5,-0.5"/>
                </g>
                <g id="arrowLeft" xlink:href="#dirArrow" transform="rotate(270) translate(-36 17)" onmousedown="handlePan(-1,0)">
                  <use xlink:href="#rim" fill="#404040">
                        <set attributeName="fill" to="#808080" begin="arrowLeft.mouseover" end="arrowLeft.mouseout"/>
                  </use>
                  <path fill="none" stroke="white" stroke-width="1.5" d="M0,-3.0v7 M-2.5,-0.5L0,-3.0L2.5,-0.5"/>
                </g>
        </g>
        <svg viewBox="0 0 15 15" width="100%" height="30px" preserveAspectRatio="xMaxYMin meet">
         <g id="arrow_out" transform="scale(0.3 0.3)">
          <a xlink:href="damage_field_8cpp__incl_org.svg" target="_base">
           <rect id="button" ry="5" rx="5" y="6" x="6" height="38" width="38"
                fill="#f2f5e9" fill-opacity="0.5" stroke="#606060" stroke-width="1.0"/>
           <path id="arrow"
             d="M 11.500037,31.436501 C 11.940474,20.09759 22.043105,11.32322 32.158766,21.979434 L 37.068811,17.246167 C 37.068811,17.246167 37.088388,32 37.088388,32 L 22.160133,31.978069 C 22.160133,31.978069 26.997745,27.140456 26.997745,27.140456 C 18.528582,18.264221 13.291696,25.230495 11.500037,31.436501 z"
             style="fill:#404040;"/>
          </a>
         </g>
        </svg>
</svg>
