<?xml version="1.0" encoding="UTF-8" standalone="no"?>
<!DOCTYPE svg PUBLIC "-//W3C//DTD SVG 1.1//EN"
 "http://www.w3.org/Graphics/SVG/1.1/DTD/svg11.dtd">
<!-- Generated by graphviz version 2.40.1 (20161225.0304)
 -->
<!-- Title: src/readnrldata.hpp Pages: 1 -->
<svg width="1197pt" height="222pt"
 viewBox="0.00 0.00 1197.44 222.00" xmlns="http://www.w3.org/2000/svg" xmlns:xlink="http://www.w3.org/1999/xlink">
<g id="graph0" class="graph" transform="scale(1 1) rotate(0) translate(4 218)">
<title>src/readnrldata.hpp</title>
<polygon fill="#ffffff" stroke="transparent" points="-4,4 -4,-218 1193.438,-218 1193.438,4 -4,4"/>
<!-- Node10 -->
<g id="node1" class="node">
<title>Node10</title>
<polygon fill="#bfbfbf" stroke="#000000" points="454.165,-195.5 454.165,-213.5 556.3271,-213.5 556.3271,-195.5 454.165,-195.5"/>
<text text-anchor="middle" x="505.2461" y="-201.5" font-family="Helvetica,sans-Serif" font-size="10.00" fill="#000000">src/readnrldata.hpp</text>
</g>
<!-- Node11 -->
<g id="node2" class="node">
<title>Node11</title>
<g id="a_node2"><a xlink:href="../../d6/d9c/nrl_2importdata_2main_8cpp.html" target="_top" xlink:title="nrl/importdata/main.cpp">
<polygon fill="#ffffff" stroke="#000000" points="0,-75.5 0,-93.5 120.4922,-93.5 120.4922,-75.5 0,-75.5"/>
<text text-anchor="middle" x="60.2461" y="-81.5" font-family="Helvetica,sans-Serif" font-size="10.00" fill="#000000">nrl/importdata/main.cpp</text>
</a>
</g>
</g>
<!-- Node10&#45;&gt;Node11 -->
<g id="edge1" class="edge">
<title>Node10&#45;&gt;Node11</title>
<path fill="none" stroke="#191970" d="M460.8702,-192.8578C390.481,-174.3416 248.9397,-136.9077 129.2461,-104 117.0031,-100.634 103.5623,-96.8546 91.8218,-93.5256"/>
<polygon fill="#191970" stroke="#191970" points="460.1668,-196.2917 470.7281,-195.4496 461.9468,-189.5218 460.1668,-196.2917"/>
</g>
<!-- Node12 -->
<g id="node3" class="node">
<title>Node12</title>
<g id="a_node3"><a xlink:href="../../d5/d75/distributenrldata_8hpp.html" target="_top" xlink:title="src/distributenrldata.hpp">
<polygon fill="#ffffff" stroke="#000000" points="443.8843,-140.5 443.8843,-158.5 566.6079,-158.5 566.6079,-140.5 443.8843,-140.5"/>
<text text-anchor="middle" x="505.2461" y="-146.5" font-family="Helvetica,sans-Serif" font-size="10.00" fill="#000000">src/distributenrldata.hpp</text>
</a>
</g>
</g>
<!-- Node10&#45;&gt;Node12 -->
<g id="edge2" class="edge">
<title>Node10&#45;&gt;Node12</title>
<path fill="none" stroke="#191970" d="M505.2461,-185.383C505.2461,-176.3738 505.2461,-166.0373 505.2461,-158.7795"/>
<polygon fill="#191970" stroke="#191970" points="501.7462,-185.4178 505.2461,-195.4179 508.7462,-185.4179 501.7462,-185.4178"/>
</g>
<!-- Node25 -->
<g id="node16" class="node">
<title>Node25</title>
<g id="a_node16"><a xlink:href="../../de/d89/readnrldata_8cpp.html" target="_top" xlink:title="src/readnrldata.cpp">
<polygon fill="#ffffff" stroke="#000000" points="584.4458,-140.5 584.4458,-158.5 686.0464,-158.5 686.0464,-140.5 584.4458,-140.5"/>
<text text-anchor="middle" x="635.2461" y="-146.5" font-family="Helvetica,sans-Serif" font-size="10.00" fill="#000000">src/readnrldata.cpp</text>
</a>
</g>
</g>
<!-- Node10&#45;&gt;Node25 -->
<g id="edge16" class="edge">
<title>Node10&#45;&gt;Node25</title>
<path fill="none" stroke="#191970" d="M536.0602,-191.4633C559.992,-181.3383 592.5658,-167.5571 613.7473,-158.5956"/>
<polygon fill="#191970" stroke="#191970" points="534.5589,-188.298 526.7129,-195.4179 537.2864,-194.7448 534.5589,-188.298"/>
</g>
<!-- Node12&#45;&gt;Node11 -->
<g id="edge9" class="edge">
<title>Node12&#45;&gt;Node11</title>
<path fill="none" stroke="#191970" d="M433.1466,-144.1169C357.0663,-137.6594 233.9221,-124.9929 129.2461,-104 115.6982,-101.283 100.9266,-97.256 88.5396,-93.5659"/>
<polygon fill="#191970" stroke="#191970" points="433.306,-147.6423 443.5627,-144.9871 433.8889,-140.6666 433.306,-147.6423"/>
</g>
<!-- Node13 -->
<g id="node4" class="node">
<title>Node13</title>
<g id="a_node4"><a xlink:href="../../da/d89/forward_deterministic_cost_function_8hpp.html" target="_top" xlink:title="nrl/hide/forward_deterministic\l/forwardDeterministicCostFunction.hpp">
<polygon fill="#ffffff" stroke="#000000" points="138.1011,-70.5 138.1011,-98.5 326.3911,-98.5 326.3911,-70.5 138.1011,-70.5"/>
<text text-anchor="start" x="146.1011" y="-86.5" font-family="Helvetica,sans-Serif" font-size="10.00" fill="#000000">nrl/hide/forward_deterministic</text>
<text text-anchor="middle" x="232.2461" y="-76.5" font-family="Helvetica,sans-Serif" font-size="10.00" fill="#000000">/forwardDeterministicCostFunction.hpp</text>
</a>
</g>
</g>
<!-- Node12&#45;&gt;Node13 -->
<g id="edge3" class="edge">
<title>Node12&#45;&gt;Node13</title>
<path fill="none" stroke="#191970" d="M457.5038,-138.1328C411.2179,-127.1123 340.8933,-110.3684 291.1522,-98.5253"/>
<polygon fill="#191970" stroke="#191970" points="456.7479,-141.5506 467.2866,-140.462 458.3692,-134.7409 456.7479,-141.5506"/>
</g>
<!-- Node15 -->
<g id="node6" class="node">
<title>Node15</title>
<g id="a_node6"><a xlink:href="../../df/df6/forward_costfunction_8hpp.html" target="_top" xlink:title="nrl/hide/forward_randomfield\l/forwardCostfunction.hpp">
<polygon fill="#ffffff" stroke="#000000" points="344.8794,-70.5 344.8794,-98.5 487.6128,-98.5 487.6128,-70.5 344.8794,-70.5"/>
<text text-anchor="start" x="352.8794" y="-86.5" font-family="Helvetica,sans-Serif" font-size="10.00" fill="#000000">nrl/hide/forward_randomfield</text>
<text text-anchor="middle" x="416.2461" y="-76.5" font-family="Helvetica,sans-Serif" font-size="10.00" fill="#000000">/forwardCostfunction.hpp</text>
</a>
</g>
</g>
<!-- Node12&#45;&gt;Node15 -->
<g id="edge5" class="edge">
<title>Node12&#45;&gt;Node15</title>
<path fill="none" stroke="#191970" d="M484.426,-134.2943C469.7057,-123.5436 450.1077,-109.2304 435.7019,-98.7093"/>
<polygon fill="#191970" stroke="#191970" points="482.7312,-137.3906 492.871,-140.462 486.8597,-131.7376 482.7312,-137.3906"/>
</g>
<!-- Node17 -->
<g id="node8" class="node">
<title>Node17</title>
<g id="a_node8"><a xlink:href="../../dd/dae/_random_search___deterministic_model_8hpp.html" target="_top" xlink:title="nrl/hide/randomSearch\l_deterministicModel/RandomSearch\l_DeterministicModel.hpp">
<polygon fill="#ffffff" stroke="#000000" points="505.6528,-65.5 505.6528,-103.5 682.8394,-103.5 682.8394,-65.5 505.6528,-65.5"/>
<text text-anchor="start" x="513.6528" y="-91.5" font-family="Helvetica,sans-Serif" font-size="10.00" fill="#000000">nrl/hide/randomSearch</text>
<text text-anchor="start" x="513.6528" y="-81.5" font-family="Helvetica,sans-Serif" font-size="10.00" fill="#000000">_deterministicModel/RandomSearch</text>
<text text-anchor="middle" x="594.2461" y="-71.5" font-family="Helvetica,sans-Serif" font-size="10.00" fill="#000000">_DeterministicModel.hpp</text>
</a>
</g>
</g>
<!-- Node12&#45;&gt;Node17 -->
<g id="edge7" class="edge">
<title>Node12&#45;&gt;Node17</title>
<path fill="none" stroke="#191970" d="M526.0393,-134.3139C538.5846,-125.1517 554.6799,-113.3966 568.0845,-103.6068"/>
<polygon fill="#191970" stroke="#191970" points="523.6325,-131.7376 517.6212,-140.462 527.761,-137.3906 523.6325,-131.7376"/>
</g>
<!-- Node19 -->
<g id="node10" class="node">
<title>Node19</title>
<g id="a_node10"><a xlink:href="../../da/dcd/nrl_2manufactured__solution_2manufactured_solution_8hpp.html" target="_top" xlink:title="nrl/manufactured_solution\l/manufacturedSolution.hpp">
<polygon fill="#ffffff" stroke="#000000" points="700.4829,-70.5 700.4829,-98.5 836.0093,-98.5 836.0093,-70.5 700.4829,-70.5"/>
<text text-anchor="start" x="708.4829" y="-86.5" font-family="Helvetica,sans-Serif" font-size="10.00" fill="#000000">nrl/manufactured_solution</text>
<text text-anchor="middle" x="768.2461" y="-76.5" font-family="Helvetica,sans-Serif" font-size="10.00" fill="#000000">/manufacturedSolution.hpp</text>
</a>
</g>
</g>
<!-- Node12&#45;&gt;Node19 -->
<g id="edge10" class="edge">
<title>Node12&#45;&gt;Node19</title>
<path fill="none" stroke="#191970" d="M552.6168,-138.1467C590.4433,-129.0392 644.7848,-115.8623 692.2461,-104 699.2502,-102.2494 706.6117,-100.3879 713.8824,-98.5363"/>
<polygon fill="#191970" stroke="#191970" points="551.7924,-134.7451 542.8884,-140.487 553.4297,-141.551 551.7924,-134.7451"/>
</g>
<!-- Node21 -->
<g id="node12" class="node">
<title>Node21</title>
<g id="a_node12"><a xlink:href="../../d0/da3/distributenrldata_8cpp.html" target="_top" xlink:title="src/distributenrldata.cpp">
<polygon fill="#ffffff" stroke="#000000" points="854.165,-75.5 854.165,-93.5 976.3271,-93.5 976.3271,-75.5 854.165,-75.5"/>
<text text-anchor="middle" x="915.2461" y="-81.5" font-family="Helvetica,sans-Serif" font-size="10.00" fill="#000000">src/distributenrldata.cpp</text>
</a>
</g>
</g>
<!-- Node12&#45;&gt;Node21 -->
<g id="edge12" class="edge">
<title>Node12&#45;&gt;Node21</title>
<path fill="none" stroke="#191970" d="M576.6722,-139.8275C696.9449,-124.074 729.7756,-127.6617 845.2461,-104 858.8407,-101.2143 873.6766,-97.2222 886.1771,-93.5748"/>
<polygon fill="#191970" stroke="#191970" points="576.1574,-136.3651 566.7051,-141.1509 577.0788,-143.3042 576.1574,-136.3651"/>
</g>
<!-- Node22 -->
<g id="node13" class="node">
<title>Node22</title>
<g id="a_node13"><a xlink:href="../../d6/d6e/nrl___p_c_a___likelihood_8hpp.html" target="_top" xlink:title="src/nrl_PCA_Likelihood.hpp">
<polygon fill="#ffffff" stroke="#000000" points="994.5444,-75.5 994.5444,-93.5 1133.9478,-93.5 1133.9478,-75.5 994.5444,-75.5"/>
<text text-anchor="middle" x="1064.2461" y="-81.5" font-family="Helvetica,sans-Serif" font-size="10.00" fill="#000000">src/nrl_PCA_Likelihood.hpp</text>
</a>
</g>
</g>
<!-- Node12&#45;&gt;Node22 -->
<g id="edge13" class="edge">
<title>Node12&#45;&gt;Node22</title>
<path fill="none" stroke="#191970" d="M576.8648,-139.8744C758.808,-120.1971 808.0608,-133.4654 985.2461,-104 1000.9933,-101.3813 1018.2309,-97.275 1032.5751,-93.5047"/>
<polygon fill="#191970" stroke="#191970" points="576.243,-136.4216 566.6858,-140.9944 577.0087,-143.3796 576.243,-136.4216"/>
</g>
<!-- Node14 -->
<g id="node5" class="node">
<title>Node14</title>
<g id="a_node5"><a xlink:href="../../d3/d86/nrl_2hide_2forward__deterministic_2main_8cpp.html" target="_top" xlink:title="nrl/hide/forward_deterministic\l/main.cpp">
<polygon fill="#ffffff" stroke="#000000" points="158.9409,-.5 158.9409,-28.5 305.5513,-28.5 305.5513,-.5 158.9409,-.5"/>
<text text-anchor="start" x="166.9409" y="-16.5" font-family="Helvetica,sans-Serif" font-size="10.00" fill="#000000">nrl/hide/forward_deterministic</text>
<text text-anchor="middle" x="232.2461" y="-6.5" font-family="Helvetica,sans-Serif" font-size="10.00" fill="#000000">/main.cpp</text>
</a>
</g>
</g>
<!-- Node13&#45;&gt;Node14 -->
<g id="edge4" class="edge">
<title>Node13&#45;&gt;Node14</title>
<path fill="none" stroke="#191970" d="M232.2461,-60.0725C232.2461,-49.5646 232.2461,-37.6536 232.2461,-28.6445"/>
<polygon fill="#191970" stroke="#191970" points="228.7462,-60.3344 232.2461,-70.3345 235.7462,-60.3345 228.7462,-60.3344"/>
</g>
<!-- Node16 -->
<g id="node7" class="node">
<title>Node16</title>
<g id="a_node7"><a xlink:href="../../dd/daf/nrl_2hide_2forward__randomfield_2main_8cpp.html" target="_top" xlink:title="nrl/hide/forward_randomfield\l/main.cpp">
<polygon fill="#ffffff" stroke="#000000" points="344.8794,-.5 344.8794,-28.5 487.6128,-28.5 487.6128,-.5 344.8794,-.5"/>
<text text-anchor="start" x="352.8794" y="-16.5" font-family="Helvetica,sans-Serif" font-size="10.00" fill="#000000">nrl/hide/forward_randomfield</text>
<text text-anchor="middle" x="416.2461" y="-6.5" font-family="Helvetica,sans-Serif" font-size="10.00" fill="#000000">/main.cpp</text>
</a>
</g>
</g>
<!-- Node15&#45;&gt;Node16 -->
<g id="edge6" class="edge">
<title>Node15&#45;&gt;Node16</title>
<path fill="none" stroke="#191970" d="M416.2461,-60.0725C416.2461,-49.5646 416.2461,-37.6536 416.2461,-28.6445"/>
<polygon fill="#191970" stroke="#191970" points="412.7462,-60.3344 416.2461,-70.3345 419.7462,-60.3345 412.7462,-60.3344"/>
</g>
<!-- Node18 -->
<g id="node9" class="node">
<title>Node18</title>
<g id="a_node9"><a xlink:href="../../d0/d99/nrl_2hide_2random_search__deterministic_model_2main_8cpp.html" target="_top" xlink:title="nrl/hide/randomSearch\l_deterministicModel/main.cpp">
<polygon fill="#ffffff" stroke="#000000" points="520.106,-.5 520.106,-28.5 668.3862,-28.5 668.3862,-.5 520.106,-.5"/>
<text text-anchor="start" x="528.106" y="-16.5" font-family="Helvetica,sans-Serif" font-size="10.00" fill="#000000">nrl/hide/randomSearch</text>
<text text-anchor="middle" x="594.2461" y="-6.5" font-family="Helvetica,sans-Serif" font-size="10.00" fill="#000000">_deterministicModel/main.cpp</text>
</a>
</g>
</g>
<!-- Node17&#45;&gt;Node18 -->
<g id="edge8" class="edge">
<title>Node17&#45;&gt;Node18</title>
<path fill="none" stroke="#191970" d="M594.2461,-55.1346C594.2461,-46.0837 594.2461,-36.5165 594.2461,-28.9404"/>
<polygon fill="#191970" stroke="#191970" points="590.7462,-55.3722 594.2461,-65.3722 597.7462,-55.3722 590.7462,-55.3722"/>
</g>
<!-- Node20 -->
<g id="node11" class="node">
<title>Node20</title>
<g id="a_node11"><a xlink:href="../../d4/db6/nrl_2manufactured__solution_2main_8cpp.html" target="_top" xlink:title="nrl/manufactured_solution\l/main.cpp">
<polygon fill="#ffffff" stroke="#000000" points="702.7119,-.5 702.7119,-28.5 833.7803,-28.5 833.7803,-.5 702.7119,-.5"/>
<text text-anchor="start" x="710.7119" y="-16.5" font-family="Helvetica,sans-Serif" font-size="10.00" fill="#000000">nrl/manufactured_solution</text>
<text text-anchor="middle" x="768.2461" y="-6.5" font-family="Helvetica,sans-Serif" font-size="10.00" fill="#000000">/main.cpp</text>
</a>
</g>
</g>
<!-- Node19&#45;&gt;Node20 -->
<g id="edge11" class="edge">
<title>Node19&#45;&gt;Node20</title>
<path fill="none" stroke="#191970" d="M768.2461,-60.0725C768.2461,-49.5646 768.2461,-37.6536 768.2461,-28.6445"/>
<polygon fill="#191970" stroke="#191970" points="764.7462,-60.3344 768.2461,-70.3345 771.7462,-60.3345 764.7462,-60.3344"/>
</g>
<!-- Node23 -->
<g id="node14" class="node">
<title>Node23</title>
<g id="a_node14"><a xlink:href="../../d5/daf/nrl_2random__generator__for__pca__likelihood_2main_8cpp.html" target="_top" xlink:title="nrl/random_generator\l_for_pca_likelihood/main.cpp">
<polygon fill="#ffffff" stroke="#000000" points="921.4829,-.5 921.4829,-28.5 1067.0093,-28.5 1067.0093,-.5 921.4829,-.5"/>
<text text-anchor="start" x="929.4829" y="-16.5" font-family="Helvetica,sans-Serif" font-size="10.00" fill="#000000">nrl/random_generator</text>
<text text-anchor="middle" x="994.2461" y="-6.5" font-family="Helvetica,sans-Serif" font-size="10.00" fill="#000000">_for_pca_likelihood/main.cpp</text>
</a>
</g>
</g>
<!-- Node22&#45;&gt;Node23 -->
<g id="edge14" class="edge">
<title>Node22&#45;&gt;Node23</title>
<path fill="none" stroke="#191970" d="M1047.9274,-68.1813C1035.9811,-56.235 1019.9275,-40.1814 1008.496,-28.7499"/>
<polygon fill="#191970" stroke="#191970" points="1045.5488,-70.7525 1055.0948,-75.3487 1050.4986,-65.8027 1045.5488,-70.7525"/>
</g>
<!-- Node24 -->
<g id="node15" class="node">
<title>Node24</title>
<g id="a_node15"><a xlink:href="../../db/d7d/nrl_2testing__solutions_2main_8cpp.html" target="_top" xlink:title="nrl/testing_solutions\l/main.cpp">
<polygon fill="#ffffff" stroke="#000000" points="1085.0542,-.5 1085.0542,-28.5 1189.438,-28.5 1189.438,-.5 1085.0542,-.5"/>
<text text-anchor="start" x="1093.0542" y="-16.5" font-family="Helvetica,sans-Serif" font-size="10.00" fill="#000000">nrl/testing_solutions</text>
<text text-anchor="middle" x="1137.2461" y="-6.5" font-family="Helvetica,sans-Serif" font-size="10.00" fill="#000000">/main.cpp</text>
</a>
</g>
</g>
<!-- Node22&#45;&gt;Node24 -->
<g id="edge15" class="edge">
<title>Node22&#45;&gt;Node24</title>
<path fill="none" stroke="#191970" d="M1081.2642,-68.1813C1093.7225,-56.235 1110.464,-40.1814 1122.3855,-28.7499"/>
<polygon fill="#191970" stroke="#191970" points="1078.585,-65.9012 1073.7896,-75.3487 1083.4299,-70.9537 1078.585,-65.9012"/>
</g>
</g>
</svg>
