<?xml version="1.0" encoding="UTF-8" standalone="no"?>
<!DOCTYPE svg PUBLIC "-//W3C//DTD SVG 1.1//EN"
 "http://www.w3.org/Graphics/SVG/1.1/DTD/svg11.dtd">
<!-- Generated by graphviz version 2.40.1 (20161225.0304)
 -->
<!-- Title: arteries/deterministic_neumann/main.cpp Pages: 1 -->
<!--zoomable 464 -->
<svg id="main" version="1.1" xmlns="http://www.w3.org/2000/svg" xmlns:xlink="http://www.w3.org/1999/xlink" xml:space="preserve" onload="init(evt)">
<style type="text/css"><![CDATA[
.edge:hover path { stroke: red; }
.edge:hover polygon { stroke: red; fill: red; }
]]></style>
<script type="text/javascript"><![CDATA[
var edges = document.getElementsByTagName('g');
if (edges && edges.length) {
  for (var i=0;i<edges.length;i++) {
    if (edges[i].id.substr(0,4)=='edge') {
      edges[i].setAttribute('class','edge');
    }
  }
}
]]></script>
        <defs>
                <circle id="rim" cx="0" cy="0" r="7"/>
                <circle id="rim2" cx="0" cy="0" r="3.5"/>
                <g id="zoomPlus">
                        <use xlink:href="#rim" fill="#404040">
                                <set attributeName="fill" to="#808080" begin="zoomplus.mouseover" end="zoomplus.mouseout"/>
                        </use>
                        <path d="M-4,0h8M0,-4v8" fill="none" stroke="white" stroke-width="1.5" pointer-events="none"/>
                </g>
                <g id="zoomMin">
                        <use xlink:href="#rim" fill="#404040">
                                <set attributeName="fill" to="#808080" begin="zoomminus.mouseover" end="zoomminus.mouseout"/>
                        </use>
                        <path d="M-4,0h8" fill="none" stroke="white" stroke-width="1.5" pointer-events="none"/>
                </g>
                <g id="dirArrow">
                        <path fill="none" stroke="white" stroke-width="1.5" d="M0,-3.0v7 M-2.5,-0.5L0,-3.0L2.5,-0.5"/>
                </g>
               <g id="resetDef">
                       <use xlink:href="#rim2" fill="#404040">
                               <set attributeName="fill" to="#808080" begin="reset.mouseover" end="reset.mouseout"/>
                       </use>
               </g>
        </defs>

<script type="text/javascript">
var viewWidth = 3235;
var viewHeight = 464;
var sectionId = 'dynsection-0';
</script>
<script xlink:href="../../svgpan.js"/>
<svg id="graph" class="graph">
<g id="viewport">
<title>arteries/deterministic_neumann/main.cpp</title>
<polygon fill="#ffffff" stroke="transparent" points="-4,4 -4,-460 3231,-460 3231,4 -4,4"/>
<!-- Node0 -->
<g id="node1" class="node">
<title>Node0</title>
<polygon fill="#bfbfbf" stroke="#000000" points="1699,-425.5 1699,-455.5 1806,-455.5 1806,-425.5 1699,-425.5"/>
<text text-anchor="start" x="1707" y="-443.5" font-family="Helvetica,sans-Serif" font-size="10.00" fill="#000000">arteries/deterministic</text>
<text text-anchor="middle" x="1752.5" y="-432.5" font-family="Helvetica,sans-Serif" font-size="10.00" fill="#000000">_neumann/main.cpp</text>
</g>
<!-- Node1 -->
<g id="node2" class="node">
<title>Node1</title>
<polygon fill="#ffffff" stroke="#bfbfbf" points="1192.5,-364 1192.5,-383 1300.5,-383 1300.5,-364 1192.5,-364"/>
<text text-anchor="middle" x="1246.5" y="-371" font-family="Helvetica,sans-Serif" font-size="10.00" fill="#000000">Epetra_ConfigDefs.h</text>
</g>
<!-- Node0&#45;&gt;Node1 -->
<g id="edge1" class="edge">
<title>Node0&#45;&gt;Node1</title>
<path fill="none" stroke="#191970" d="M1698.9932,-436.4619C1615.399,-429.6635 1448.9417,-414.1562 1309.5,-389 1303.7481,-387.9623 1297.7395,-386.7085 1291.8147,-385.3687"/>
<polygon fill="#191970" stroke="#191970" points="1292.5185,-381.9388 1281.9827,-383.0559 1290.9156,-388.7528 1292.5185,-381.9388"/>
</g>
<!-- Node2 -->
<g id="node3" class="node">
<title>Node2</title>
<polygon fill="#ffffff" stroke="#bfbfbf" points="1319,-364 1319,-383 1432,-383 1432,-364 1319,-364"/>
<text text-anchor="middle" x="1375.5" y="-371" font-family="Helvetica,sans-Serif" font-size="10.00" fill="#000000">Epetra_SerialComm.h</text>
</g>
<!-- Node0&#45;&gt;Node2 -->
<g id="edge2" class="edge">
<title>Node0&#45;&gt;Node2</title>
<path fill="none" stroke="#191970" d="M1698.7386,-432.8036C1636.3954,-423.6064 1530.645,-407.1644 1440.5,-389 1435.027,-387.8972 1429.3146,-386.6612 1423.6463,-385.3812"/>
<polygon fill="#191970" stroke="#191970" points="1424.0834,-381.89 1413.5521,-383.0487 1422.5073,-388.7103 1424.0834,-381.89"/>
</g>
<!-- Node3 -->
<g id="node4" class="node">
<title>Node3</title>
<polygon fill="#ffffff" stroke="#bfbfbf" points="1450,-364 1450,-383 1635,-383 1635,-364 1450,-364"/>
<text text-anchor="middle" x="1542.5" y="-371" font-family="Helvetica,sans-Serif" font-size="10.00" fill="#000000">Teuchos_CommandLineProcessor.hpp</text>
</g>
<!-- Node0&#45;&gt;Node3 -->
<g id="edge3" class="edge">
<title>Node0&#45;&gt;Node3</title>
<path fill="none" stroke="#191970" d="M1705.3719,-425.4639C1668.2806,-413.63 1617.1779,-397.3258 1582.1628,-386.1543"/>
<polygon fill="#191970" stroke="#191970" points="1582.8834,-382.7105 1572.2927,-383.0053 1580.7557,-389.3793 1582.8834,-382.7105"/>
</g>
<!-- Node4 -->
<g id="node5" class="node">
<title>Node4</title>
<polygon fill="#ffffff" stroke="#bfbfbf" points="1707.5,-297 1707.5,-316 1883.5,-316 1883.5,-297 1707.5,-297"/>
<text text-anchor="middle" x="1795.5" y="-304" font-family="Helvetica,sans-Serif" font-size="10.00" fill="#000000">Teuchos_StandardCatchMacros.hpp</text>
</g>
<!-- Node0&#45;&gt;Node4 -->
<g id="edge4" class="edge">
<title>Node0&#45;&gt;Node4</title>
<path fill="none" stroke="#191970" d="M1760.7281,-425.0756C1765.8273,-415.0239 1772.2015,-401.4995 1776.5,-389 1783.6458,-368.2211 1788.9252,-343.5757 1792.0812,-326.6661"/>
<polygon fill="#191970" stroke="#191970" points="1795.613,-326.7973 1793.9237,-316.338 1788.7218,-325.5679 1795.613,-326.7973"/>
</g>
<!-- Node5 -->
<g id="node6" class="node">
<title>Node5</title>
<polygon fill="#ffffff" stroke="#bfbfbf" points="1902,-297 1902,-316 2041,-316 2041,-297 1902,-297"/>
<text text-anchor="middle" x="1971.5" y="-304" font-family="Helvetica,sans-Serif" font-size="10.00" fill="#000000">Teuchos_ParameterList.hpp</text>
</g>
<!-- Node0&#45;&gt;Node5 -->
<g id="edge5" class="edge">
<title>Node0&#45;&gt;Node5</title>
<path fill="none" stroke="#191970" d="M1777.1964,-425.389C1819.4196,-399.5538 1904.9885,-347.1965 1947.0455,-321.463"/>
<polygon fill="#191970" stroke="#191970" points="1949.1004,-324.3089 1955.8036,-316.1042 1945.447,-318.338 1949.1004,-324.3089"/>
</g>
<!-- Node6 -->
<g id="node7" class="node">
<title>Node6</title>
<polygon fill="#ffffff" stroke="#bfbfbf" points="2059.5,-291.5 2059.5,-321.5 2199.5,-321.5 2199.5,-291.5 2059.5,-291.5"/>
<text text-anchor="start" x="2067.5" y="-309.5" font-family="Helvetica,sans-Serif" font-size="10.00" fill="#000000">Teuchos_XMLParameterList</text>
<text text-anchor="middle" x="2129.5" y="-298.5" font-family="Helvetica,sans-Serif" font-size="10.00" fill="#000000">CoreHelpers.hpp</text>
</g>
<!-- Node0&#45;&gt;Node6 -->
<g id="edge6" class="edge">
<title>Node0&#45;&gt;Node6</title>
<path fill="none" stroke="#191970" d="M1795.0139,-425.389C1864.4927,-400.6936 2002.1509,-351.7646 2077.3958,-325.0198"/>
<polygon fill="#191970" stroke="#191970" points="2078.8912,-328.2029 2087.1415,-321.5558 2076.5468,-321.6071 2078.8912,-328.2029"/>
</g>
<!-- Node7 -->
<g id="node8" class="node">
<title>Node7</title>
<g id="a_node8"><a xlink:href="../../da/ddf/_neumann_inner_surface___polyconvex_h_g_o_8hpp.html" target="_top" xlink:title="NeumannInnerSurface\l_PolyconvexHGO.hpp">
<polygon fill="#ffffff" stroke="#000000" points="1653.5,-358.5 1653.5,-388.5 1767.5,-388.5 1767.5,-358.5 1653.5,-358.5"/>
<text text-anchor="start" x="1661.5" y="-376.5" font-family="Helvetica,sans-Serif" font-size="10.00" fill="#000000">NeumannInnerSurface</text>
<text text-anchor="middle" x="1710.5" y="-365.5" font-family="Helvetica,sans-Serif" font-size="10.00" fill="#000000">_PolyconvexHGO.hpp</text>
</a>
</g>
</g>
<!-- Node0&#45;&gt;Node7 -->
<g id="edge7" class="edge">
<title>Node0&#45;&gt;Node7</title>
<path fill="none" stroke="#191970" d="M1742.9695,-425.2967C1737.7607,-416.9873 1731.1937,-406.5115 1725.3308,-397.1587"/>
<polygon fill="#191970" stroke="#191970" points="1728.2696,-395.2571 1719.9927,-388.6432 1722.3386,-398.975 1728.2696,-395.2571"/>
</g>
<!-- Node47 -->
<g id="node43" class="node">
<title>Node47</title>
<g id="a_node43"><a xlink:href="../../d7/d17/_newton___raphsonpp_8hpp.html" target="_top" xlink:title="Newton_Raphsonpp.hpp">
<polygon fill="#ffffff" stroke="#000000" points="2367.5,-364 2367.5,-383 2491.5,-383 2491.5,-364 2367.5,-364"/>
<text text-anchor="middle" x="2429.5" y="-371" font-family="Helvetica,sans-Serif" font-size="10.00" fill="#000000">Newton_Raphsonpp.hpp</text>
</a>
</g>
</g>
<!-- Node0&#45;&gt;Node47 -->
<g id="edge45" class="edge">
<title>Node0&#45;&gt;Node47</title>
<path fill="none" stroke="#191970" d="M1806.1889,-435.1866C1927.0119,-423.2292 2220.3837,-394.1954 2357.1184,-380.6633"/>
<polygon fill="#191970" stroke="#191970" points="2357.4777,-384.145 2367.0843,-379.677 2356.7882,-377.179 2357.4777,-384.145"/>
</g>
<!-- Node8 -->
<g id="node9" class="node">
<title>Node8</title>
<g id="a_node9"><a xlink:href="../../de/d49/tensor__calculus_8hpp.html" target="_top" xlink:title="tensor_calculus.hpp">
<polygon fill="#ffffff" stroke="#000000" points="1627.5,-168.5 1627.5,-187.5 1731.5,-187.5 1731.5,-168.5 1627.5,-168.5"/>
<text text-anchor="middle" x="1679.5" y="-175.5" font-family="Helvetica,sans-Serif" font-size="10.00" fill="#000000">tensor_calculus.hpp</text>
</a>
</g>
</g>
<!-- Node7&#45;&gt;Node8 -->
<g id="edge8" class="edge">
<title>Node7&#45;&gt;Node8</title>
<path fill="none" stroke="#191970" d="M1706.5357,-358.258C1703.9829,-348.0506 1700.736,-334.2836 1698.5,-322 1690.4825,-277.9543 1684.4472,-225.743 1681.5009,-197.8761"/>
<polygon fill="#191970" stroke="#191970" points="1684.9721,-197.4161 1680.4619,-187.8292 1678.0092,-198.1362 1684.9721,-197.4161"/>
</g>
<!-- Node41 -->
<g id="node37" class="node">
<title>Node41</title>
<g id="a_node37"><a xlink:href="../../d5/d3f/laplacepp_8hpp.html" target="_top" xlink:title="laplacepp.hpp">
<polygon fill="#ffffff" stroke="#000000" points="1363,-297 1363,-316 1440,-316 1440,-297 1363,-297"/>
<text text-anchor="middle" x="1401.5" y="-304" font-family="Helvetica,sans-Serif" font-size="10.00" fill="#000000">laplacepp.hpp</text>
</a>
</g>
</g>
<!-- Node7&#45;&gt;Node41 -->
<g id="edge36" class="edge">
<title>Node7&#45;&gt;Node41</title>
<path fill="none" stroke="#191970" d="M1653.1551,-360.0558C1649.8918,-359.3462 1646.6561,-358.6561 1643.5,-358 1557.2133,-340.0635 1533.8793,-343.8516 1448.5,-322 1445.1523,-321.1432 1441.6964,-320.1731 1438.249,-319.1463"/>
<polygon fill="#191970" stroke="#191970" points="1439.2413,-315.7896 1428.6526,-316.15 1437.155,-322.4714 1439.2413,-315.7896"/>
</g>
<!-- Node44 -->
<g id="node40" class="node">
<title>Node44</title>
<g id="a_node40"><a xlink:href="../../dc/de0/nearly_incompressible_hyperelasticity_8hpp.html" target="_top" xlink:title="nearlyIncompressibleHyperelasticity.hpp">
<polygon fill="#ffffff" stroke="#000000" points="1458,-297 1458,-316 1651,-316 1651,-297 1458,-297"/>
<text text-anchor="middle" x="1554.5" y="-304" font-family="Helvetica,sans-Serif" font-size="10.00" fill="#000000">nearlyIncompressibleHyperelasticity.hpp</text>
</a>
</g>
</g>
<!-- Node7&#45;&gt;Node44 -->
<g id="edge40" class="edge">
<title>Node7&#45;&gt;Node44</title>
<path fill="none" stroke="#191970" d="M1675.4906,-358.4639C1648.7262,-346.969 1612.1411,-331.2561 1586.2277,-320.1266"/>
<polygon fill="#191970" stroke="#191970" points="1587.431,-316.8343 1576.8614,-316.1039 1584.6685,-323.2662 1587.431,-316.8343"/>
</g>
<!-- Node9 -->
<g id="node10" class="node">
<title>Node9</title>
<g id="a_node10"><a xlink:href="../../d0/d02/meshpp_8hpp.html" target="_top" xlink:title="meshpp.hpp">
<polygon fill="#ffffff" stroke="#ff0000" points="1463.5,-56.5 1463.5,-75.5 1533.5,-75.5 1533.5,-56.5 1463.5,-56.5"/>
<text text-anchor="middle" x="1498.5" y="-63.5" font-family="Helvetica,sans-Serif" font-size="10.00" fill="#000000">meshpp.hpp</text>
</a>
</g>
</g>
<!-- Node8&#45;&gt;Node9 -->
<g id="edge9" class="edge">
<title>Node8&#45;&gt;Node9</title>
<path fill="none" stroke="#191970" d="M1664.068,-168.4509C1632.5436,-148.9441 1560.5462,-104.3932 1522.7263,-80.9909"/>
<polygon fill="#191970" stroke="#191970" points="1524.2383,-77.8106 1513.8929,-75.5249 1520.5549,-83.7631 1524.2383,-77.8106"/>
</g>
<!-- Node10 -->
<g id="node11" class="node">
<title>Node10</title>
<polygon fill="#ffffff" stroke="#bfbfbf" points="2717.5,-.5 2717.5,-19.5 2763.5,-19.5 2763.5,-.5 2717.5,-.5"/>
<text text-anchor="middle" x="2740.5" y="-7.5" font-family="Helvetica,sans-Serif" font-size="10.00" fill="#000000">stdio.h</text>
</g>
<!-- Node9&#45;&gt;Node10 -->
<g id="edge10" class="edge">
<title>Node9&#45;&gt;Node10</title>
<path fill="none" stroke="#191970" d="M1533.6528,-65.917C1704.9374,-65.3239 2453.7629,-60.5111 2707.3605,-19.7007"/>
<polygon fill="#191970" stroke="#191970" points="2707.971,-23.1473 2717.2567,-18.0457 2706.8163,-16.2432 2707.971,-23.1473"/>
</g>
<!-- Node11 -->
<g id="node12" class="node">
<title>Node11</title>
<polygon fill="#ffffff" stroke="#bfbfbf" points="2781.5,-.5 2781.5,-19.5 2835.5,-19.5 2835.5,-.5 2781.5,-.5"/>
<text text-anchor="middle" x="2808.5" y="-7.5" font-family="Helvetica,sans-Serif" font-size="10.00" fill="#000000">iostream</text>
</g>
<!-- Node9&#45;&gt;Node11 -->
<g id="edge11" class="edge">
<title>Node9&#45;&gt;Node11</title>
<path fill="none" stroke="#191970" d="M1533.692,-65.8448C1710.4904,-64.8978 2503.4821,-58.6179 2771.0685,-19.8298"/>
<polygon fill="#191970" stroke="#191970" points="2771.7594,-23.2654 2781.1278,-18.3174 2770.7185,-16.3432 2771.7594,-23.2654"/>
</g>
<!-- Node12 -->
<g id="node13" class="node">
<title>Node12</title>
<polygon fill="#ffffff" stroke="#bfbfbf" points="0,-.5 0,-19.5 49,-19.5 49,-.5 0,-.5"/>
<text text-anchor="middle" x="24.5" y="-7.5" font-family="Helvetica,sans-Serif" font-size="10.00" fill="#000000">istream</text>
</g>
<!-- Node9&#45;&gt;Node12 -->
<g id="edge12" class="edge">
<title>Node9&#45;&gt;Node12</title>
<path fill="none" stroke="#191970" d="M1463.3948,-65.4125C1260.5913,-61.9488 241.8822,-43.5825 59.1282,-19.5041"/>
<polygon fill="#191970" stroke="#191970" points="59.6154,-16.0382 49.2149,-18.0584 58.6052,-22.9649 59.6154,-16.0382"/>
</g>
<!-- Node13 -->
<g id="node14" class="node">
<title>Node13</title>
<polygon fill="#ffffff" stroke="#bfbfbf" points="67.5,-.5 67.5,-19.5 117.5,-19.5 117.5,-.5 67.5,-.5"/>
<text text-anchor="middle" x="92.5" y="-7.5" font-family="Helvetica,sans-Serif" font-size="10.00" fill="#000000">fstream</text>
</g>
<!-- Node9&#45;&gt;Node13 -->
<g id="edge13" class="edge">
<title>Node9&#45;&gt;Node13</title>
<path fill="none" stroke="#191970" d="M1463.4331,-65.3538C1266.6529,-61.6584 302.5733,-42.6193 127.5306,-19.5977"/>
<polygon fill="#191970" stroke="#191970" points="127.9885,-16.1275 117.5878,-18.1465 126.9775,-23.0541 127.9885,-16.1275"/>
</g>
<!-- Node14 -->
<g id="node15" class="node">
<title>Node14</title>
<polygon fill="#ffffff" stroke="#bfbfbf" points="135.5,-.5 135.5,-19.5 179.5,-19.5 179.5,-.5 135.5,-.5"/>
<text text-anchor="middle" x="157.5" y="-7.5" font-family="Helvetica,sans-Serif" font-size="10.00" fill="#000000">vector</text>
</g>
<!-- Node9&#45;&gt;Node14 -->
<g id="edge14" class="edge">
<title>Node9&#45;&gt;Node14</title>
<path fill="none" stroke="#191970" d="M1463.4286,-65.3482C1272.1517,-61.7176 357.6148,-43.3624 189.634,-19.5394"/>
<polygon fill="#191970" stroke="#191970" points="190.0887,-16.0678 179.6647,-17.9624 188.995,-22.9819 190.0887,-16.0678"/>
</g>
<!-- Node15 -->
<g id="node16" class="node">
<title>Node15</title>
<polygon fill="#ffffff" stroke="#bfbfbf" points="197.5,-.5 197.5,-19.5 247.5,-19.5 247.5,-.5 197.5,-.5"/>
<text text-anchor="middle" x="222.5" y="-7.5" font-family="Helvetica,sans-Serif" font-size="10.00" fill="#000000">iomanip</text>
</g>
<!-- Node9&#45;&gt;Node15 -->
<g id="edge15" class="edge">
<title>Node9&#45;&gt;Node15</title>
<path fill="none" stroke="#191970" d="M1463.3111,-65.8779C1289.2666,-65.0966 518.7744,-59.5169 257.7747,-19.7487"/>
<polygon fill="#191970" stroke="#191970" points="258.0137,-16.243 247.5895,-18.1364 256.9192,-23.1569 258.0137,-16.243"/>
</g>
<!-- Node16 -->
<g id="node17" class="node">
<title>Node16</title>
<polygon fill="#ffffff" stroke="#bfbfbf" points="265.5,-.5 265.5,-19.5 369.5,-19.5 369.5,-.5 265.5,-.5"/>
<text text-anchor="middle" x="317.5" y="-7.5" font-family="Helvetica,sans-Serif" font-size="10.00" fill="#000000">Epetra_MpiComm.h</text>
</g>
<!-- Node9&#45;&gt;Node16 -->
<g id="edge16" class="edge">
<title>Node9&#45;&gt;Node16</title>
<path fill="none" stroke="#191970" d="M1463.3414,-65.1322C1300.4009,-61.0233 616.9785,-42.8115 379.9593,-20.0033"/>
<polygon fill="#191970" stroke="#191970" points="379.9848,-16.4887 369.6878,-18.9831 379.2928,-23.4544 379.9848,-16.4887"/>
</g>
<!-- Node17 -->
<g id="node18" class="node">
<title>Node17</title>
<polygon fill="#ffffff" stroke="#bfbfbf" points="388,-.5 388,-19.5 501,-19.5 501,-.5 388,-.5"/>
<text text-anchor="middle" x="444.5" y="-7.5" font-family="Helvetica,sans-Serif" font-size="10.00" fill="#000000">Epetra_FECrsGraph.h</text>
</g>
<!-- Node9&#45;&gt;Node17 -->
<g id="edge17" class="edge">
<title>Node9&#45;&gt;Node17</title>
<path fill="none" stroke="#191970" d="M1463.4019,-65.6825C1336.5895,-64.2584 890.1116,-56.8408 511.3927,-19.9818"/>
<polygon fill="#191970" stroke="#191970" points="511.6288,-16.4882 501.3347,-18.9943 510.9448,-23.4547 511.6288,-16.4882"/>
</g>
<!-- Node18 -->
<g id="node19" class="node">
<title>Node18</title>
<polygon fill="#ffffff" stroke="#bfbfbf" points="519.5,-.5 519.5,-19.5 633.5,-19.5 633.5,-.5 519.5,-.5"/>
<text text-anchor="middle" x="576.5" y="-7.5" font-family="Helvetica,sans-Serif" font-size="10.00" fill="#000000">Epetra_FECrsMatrix.h</text>
</g>
<!-- Node9&#45;&gt;Node18 -->
<g id="edge18" class="edge">
<title>Node9&#45;&gt;Node18</title>
<path fill="none" stroke="#191970" d="M1463.3445,-65.3287C1347.6252,-62.8621 967.9656,-52.7252 643.7528,-20.035"/>
<polygon fill="#191970" stroke="#191970" points="643.9973,-16.5419 633.6944,-19.0117 643.2887,-23.506 643.9973,-16.5419"/>
</g>
<!-- Node19 -->
<g id="node20" class="node">
<title>Node19</title>
<polygon fill="#ffffff" stroke="#bfbfbf" points="651.5,-.5 651.5,-19.5 751.5,-19.5 751.5,-.5 651.5,-.5"/>
<text text-anchor="middle" x="701.5" y="-7.5" font-family="Helvetica,sans-Serif" font-size="10.00" fill="#000000">Epetra_FEVector.h</text>
</g>
<!-- Node9&#45;&gt;Node19 -->
<g id="edge19" class="edge">
<title>Node9&#45;&gt;Node19</title>
<path fill="none" stroke="#191970" d="M1463.427,-65.129C1358.5188,-62.2453 1037.8542,-51.4068 761.8712,-20.0446"/>
<polygon fill="#191970" stroke="#191970" points="761.9944,-16.5359 751.6605,-18.8725 761.196,-23.4902 761.9944,-16.5359"/>
</g>
<!-- Node20 -->
<g id="node21" class="node">
<title>Node20</title>
<polygon fill="#ffffff" stroke="#bfbfbf" points="770,-.5 770,-19.5 857,-19.5 857,-.5 770,-.5"/>
<text text-anchor="middle" x="813.5" y="-7.5" font-family="Helvetica,sans-Serif" font-size="10.00" fill="#000000">Epetra_Vector.h</text>
</g>
<!-- Node9&#45;&gt;Node20 -->
<g id="edge20" class="edge">
<title>Node9&#45;&gt;Node20</title>
<path fill="none" stroke="#191970" d="M1463.356,-64.8948C1368.6191,-61.6076 1099.923,-50.2536 867.1401,-20.0877"/>
<polygon fill="#191970" stroke="#191970" points="867.5022,-16.6053 857.1322,-18.7762 866.5926,-23.546 867.5022,-16.6053"/>
</g>
<!-- Node21 -->
<g id="node22" class="node">
<title>Node21</title>
<polygon fill="#ffffff" stroke="#bfbfbf" points="875,-.5 875,-19.5 952,-19.5 952,-.5 875,-.5"/>
<text text-anchor="middle" x="913.5" y="-7.5" font-family="Helvetica,sans-Serif" font-size="10.00" fill="#000000">Epetra_Map.h</text>
</g>
<!-- Node9&#45;&gt;Node21 -->
<g id="edge21" class="edge">
<title>Node9&#45;&gt;Node21</title>
<path fill="none" stroke="#191970" d="M1463.3916,-64.5116C1378.7677,-60.6014 1156.7286,-48.4218 962.2764,-20.1147"/>
<polygon fill="#191970" stroke="#191970" points="962.563,-16.6192 952.1595,-18.6235 961.5422,-23.5444 962.563,-16.6192"/>
</g>
<!-- Node22 -->
<g id="node23" class="node">
<title>Node22</title>
<polygon fill="#ffffff" stroke="#bfbfbf" points="970,-.5 970,-19.5 1109,-19.5 1109,-.5 970,-.5"/>
<text text-anchor="middle" x="1039.5" y="-7.5" font-family="Helvetica,sans-Serif" font-size="10.00" fill="#000000">Epetra_SerialDenseMatrix.h</text>
</g>
<!-- Node9&#45;&gt;Node22 -->
<g id="edge22" class="edge">
<title>Node9&#45;&gt;Node22</title>
<path fill="none" stroke="#191970" d="M1463.3912,-61.8148C1397.9828,-54.0035 1252.772,-36.5963 1119.2826,-20.0916"/>
<polygon fill="#191970" stroke="#191970" points="1119.6384,-16.609 1109.2843,-18.8544 1118.7787,-23.556 1119.6384,-16.609"/>
</g>
<!-- Node23 -->
<g id="node24" class="node">
<title>Node23</title>
<polygon fill="#ffffff" stroke="#bfbfbf" points="1127.5,-.5 1127.5,-19.5 1267.5,-19.5 1267.5,-.5 1127.5,-.5"/>
<text text-anchor="middle" x="1197.5" y="-7.5" font-family="Helvetica,sans-Serif" font-size="10.00" fill="#000000">Epetra_SerialDenseVector.h</text>
</g>
<!-- Node9&#45;&gt;Node23 -->
<g id="edge23" class="edge">
<title>Node9&#45;&gt;Node23</title>
<path fill="none" stroke="#191970" d="M1463.3824,-59.4665C1413.2157,-50.1331 1320.3026,-32.847 1258.6854,-21.3833"/>
<polygon fill="#191970" stroke="#191970" points="1259.1699,-17.9135 1248.6984,-19.5253 1257.8895,-24.7954 1259.1699,-17.9135"/>
</g>
<!-- Node24 -->
<g id="node25" class="node">
<title>Node24</title>
<polygon fill="#ffffff" stroke="#bfbfbf" points="1285.5,-.5 1285.5,-19.5 1437.5,-19.5 1437.5,-.5 1285.5,-.5"/>
<text text-anchor="middle" x="1361.5" y="-7.5" font-family="Helvetica,sans-Serif" font-size="10.00" fill="#000000">Epetra_IntSerialDenseVector.h</text>
</g>
<!-- Node9&#45;&gt;Node24 -->
<g id="edge24" class="edge">
<title>Node9&#45;&gt;Node24</title>
<path fill="none" stroke="#191970" d="M1474.9489,-56.3733C1452.6609,-47.2629 1419.0063,-33.5062 1394.1363,-23.3404"/>
<polygon fill="#191970" stroke="#191970" points="1395.3247,-20.0451 1384.7438,-19.5011 1392.6761,-26.5247 1395.3247,-20.0451"/>
</g>
<!-- Node25 -->
<g id="node26" class="node">
<title>Node25</title>
<polygon fill="#ffffff" stroke="#bfbfbf" points="1455.5,-.5 1455.5,-19.5 1541.5,-19.5 1541.5,-.5 1455.5,-.5"/>
<text text-anchor="middle" x="1498.5" y="-7.5" font-family="Helvetica,sans-Serif" font-size="10.00" fill="#000000">Epetra_Import.h</text>
</g>
<!-- Node9&#45;&gt;Node25 -->
<g id="edge25" class="edge">
<title>Node9&#45;&gt;Node25</title>
<path fill="none" stroke="#191970" d="M1498.5,-56.2455C1498.5,-48.9382 1498.5,-38.6944 1498.5,-29.7046"/>
<polygon fill="#191970" stroke="#191970" points="1502.0001,-29.6426 1498.5,-19.6427 1495.0001,-29.6427 1502.0001,-29.6426"/>
</g>
<!-- Node26 -->
<g id="node27" class="node">
<title>Node26</title>
<polygon fill="#ffffff" stroke="#bfbfbf" points="1560,-.5 1560,-19.5 1647,-19.5 1647,-.5 1560,-.5"/>
<text text-anchor="middle" x="1603.5" y="-7.5" font-family="Helvetica,sans-Serif" font-size="10.00" fill="#000000">Epetra_Export.h</text>
</g>
<!-- Node9&#45;&gt;Node26 -->
<g id="edge26" class="edge">
<title>Node9&#45;&gt;Node26</title>
<path fill="none" stroke="#191970" d="M1516.7896,-56.2455C1533.2762,-47.4527 1557.7352,-34.4079 1576.4765,-24.4125"/>
<polygon fill="#191970" stroke="#191970" points="1578.2435,-27.4368 1585.42,-19.6427 1574.9494,-21.2604 1578.2435,-27.4368"/>
</g>
<!-- Node27 -->
<g id="node28" class="node">
<title>Node27</title>
<polygon fill="#ffffff" stroke="#bfbfbf" points="1665.5,-.5 1665.5,-19.5 1745.5,-19.5 1745.5,-.5 1665.5,-.5"/>
<text text-anchor="middle" x="1705.5" y="-7.5" font-family="Helvetica,sans-Serif" font-size="10.00" fill="#000000">Epetra_Time.h</text>
</g>
<!-- Node9&#45;&gt;Node27 -->
<g id="edge27" class="edge">
<title>Node9&#45;&gt;Node27</title>
<path fill="none" stroke="#191970" d="M1533.6147,-56.5004C1568.557,-47.0474 1622.3217,-32.5023 1660.404,-22.1999"/>
<polygon fill="#191970" stroke="#191970" points="1661.474,-25.5363 1670.213,-19.5462 1659.646,-18.7792 1661.474,-25.5363"/>
</g>
<!-- Node28 -->
<g id="node29" class="node">
<title>Node28</title>
<polygon fill="#ffffff" stroke="#bfbfbf" points="1764,-.5 1764,-19.5 1911,-19.5 1911,-.5 1764,-.5"/>
<text text-anchor="middle" x="1837.5" y="-7.5" font-family="Helvetica,sans-Serif" font-size="10.00" fill="#000000">ml_MultiLevelPreconditioner.h</text>
</g>
<!-- Node9&#45;&gt;Node28 -->
<g id="edge28" class="edge">
<title>Node9&#45;&gt;Node28</title>
<path fill="none" stroke="#191970" d="M1533.5021,-60.2179C1589.0486,-51.0421 1698.3783,-32.9817 1769.6624,-21.2062"/>
<polygon fill="#191970" stroke="#191970" points="1770.597,-24.5993 1779.8928,-19.5162 1769.456,-17.6929 1770.597,-24.5993"/>
</g>
<!-- Node29 -->
<g id="node30" class="node">
<title>Node29</title>
<polygon fill="#ffffff" stroke="#bfbfbf" points="1929,-.5 1929,-19.5 2020,-19.5 2020,-.5 1929,-.5"/>
<text text-anchor="middle" x="1974.5" y="-7.5" font-family="Helvetica,sans-Serif" font-size="10.00" fill="#000000">ml_epetra_utils.h</text>
</g>
<!-- Node9&#45;&gt;Node29 -->
<g id="edge29" class="edge">
<title>Node9&#45;&gt;Node29</title>
<path fill="none" stroke="#191970" d="M1533.5367,-63.0199C1604.244,-56.8235 1769.2563,-41.4408 1918.6506,-20.0296"/>
<polygon fill="#191970" stroke="#191970" points="1919.5263,-23.4395 1928.9224,-18.5442 1918.5244,-16.5116 1919.5263,-23.4395"/>
</g>
<!-- Node30 -->
<g id="node31" class="node">
<title>Node30</title>
<polygon fill="#ffffff" stroke="#bfbfbf" points="2038,-.5 2038,-19.5 2109,-19.5 2109,-.5 2038,-.5"/>
<text text-anchor="middle" x="2073.5" y="-7.5" font-family="Helvetica,sans-Serif" font-size="10.00" fill="#000000">ml_include.h</text>
</g>
<!-- Node9&#45;&gt;Node30 -->
<g id="edge30" class="edge">
<title>Node9&#45;&gt;Node30</title>
<path fill="none" stroke="#191970" d="M1533.7309,-64.5525C1617.6011,-60.7631 1835.7894,-48.8846 2027.732,-19.9247"/>
<polygon fill="#191970" stroke="#191970" points="2028.3627,-23.369 2037.7193,-18.3986 2027.3053,-16.4493 2028.3627,-23.369"/>
</g>
<!-- Node31 -->
<g id="node32" class="node">
<title>Node31</title>
<polygon fill="#ffffff" stroke="#bfbfbf" points="2127,-.5 2127,-19.5 2264,-19.5 2264,-.5 2127,-.5"/>
<text text-anchor="middle" x="2195.5" y="-7.5" font-family="Helvetica,sans-Serif" font-size="10.00" fill="#000000">EpetraExt_RowMatrixOut.h</text>
</g>
<!-- Node9&#45;&gt;Node31 -->
<g id="edge31" class="edge">
<title>Node9&#45;&gt;Node31</title>
<path fill="none" stroke="#191970" d="M1533.5184,-64.08C1626.6558,-58.8291 1888.4075,-43.1306 2116.5241,-20.1586"/>
<polygon fill="#191970" stroke="#191970" points="2117.079,-23.6203 2126.6748,-19.1292 2116.3727,-16.6561 2117.079,-23.6203"/>
</g>
<!-- Node32 -->
<g id="node33" class="node">
<title>Node32</title>
<polygon fill="#ffffff" stroke="#bfbfbf" points="2282,-.5 2282,-19.5 2421,-19.5 2421,-.5 2282,-.5"/>
<text text-anchor="middle" x="2351.5" y="-7.5" font-family="Helvetica,sans-Serif" font-size="10.00" fill="#000000">EpetraExt_MultiVectorOut.h</text>
</g>
<!-- Node9&#45;&gt;Node32 -->
<g id="edge32" class="edge">
<title>Node9&#45;&gt;Node32</title>
<path fill="none" stroke="#191970" d="M1533.7111,-64.7664C1642.1165,-60.7873 1980.6051,-47.0086 2271.459,-20.1386"/>
<polygon fill="#191970" stroke="#191970" points="2272.1526,-23.5892 2281.7851,-19.1772 2271.5036,-16.6194 2272.1526,-23.5892"/>
</g>
<!-- Node33 -->
<g id="node34" class="node">
<title>Node33</title>
<polygon fill="#ffffff" stroke="#bfbfbf" points="2439.5,-.5 2439.5,-19.5 2549.5,-19.5 2549.5,-.5 2439.5,-.5"/>
<text text-anchor="middle" x="2494.5" y="-7.5" font-family="Helvetica,sans-Serif" font-size="10.00" fill="#000000">EpetraExt_VectorIn.h</text>
</g>
<!-- Node9&#45;&gt;Node33 -->
<g id="edge33" class="edge">
<title>Node9&#45;&gt;Node33</title>
<path fill="none" stroke="#191970" d="M1533.7259,-65.6013C1656.0867,-63.9342 2074.1406,-55.8778 2429.4259,-20.0045"/>
<polygon fill="#191970" stroke="#191970" points="2429.7962,-23.485 2439.39,-18.9894 2429.0867,-16.5211 2429.7962,-23.485"/>
</g>
<!-- Node34 -->
<g id="node35" class="node">
<title>Node34</title>
<polygon fill="#ffffff" stroke="#bfbfbf" points="2568,-.5 2568,-19.5 2699,-19.5 2699,-.5 2568,-.5"/>
<text text-anchor="middle" x="2633.5" y="-7.5" font-family="Helvetica,sans-Serif" font-size="10.00" fill="#000000">EpetraExt_MultiVectorIn.h</text>
</g>
<!-- Node9&#45;&gt;Node34 -->
<g id="edge34" class="edge">
<title>Node9&#45;&gt;Node34</title>
<path fill="none" stroke="#191970" d="M1533.8026,-65.61C1666.6136,-63.9026 2149.0179,-55.5375 2557.4466,-20.0106"/>
<polygon fill="#191970" stroke="#191970" points="2558.0307,-23.4729 2567.6867,-19.1128 2557.4192,-16.4996 2558.0307,-23.4729"/>
</g>
<!-- Node35 -->
<g id="node36" class="node">
<title>Node35</title>
<polygon fill="#ffffff" stroke="#bfbfbf" points="2853.5,-.5 2853.5,-19.5 2953.5,-19.5 2953.5,-.5 2853.5,-.5"/>
<text text-anchor="middle" x="2903.5" y="-7.5" font-family="Helvetica,sans-Serif" font-size="10.00" fill="#000000">Teuchos_RCP.hpp</text>
</g>
<!-- Node9&#45;&gt;Node35 -->
<g id="edge35" class="edge">
<title>Node9&#45;&gt;Node35</title>
<path fill="none" stroke="#191970" d="M1533.7664,-65.4343C1716.5656,-62.406 2558.4006,-47.2598 2843.0544,-19.9858"/>
<polygon fill="#191970" stroke="#191970" points="2843.7424,-23.435 2853.35,-18.9691 2843.0544,-16.4689 2843.7424,-23.435"/>
</g>
<!-- Node42 -->
<g id="node38" class="node">
<title>Node42</title>
<g id="a_node38"><a xlink:href="../../d9/dea/_linear___finite___element___problem_8hpp.html" target="_top" xlink:title="Linear_Finite_Element\l_Problem.hpp">
<polygon fill="#ffffff" stroke="#000000" points="1351,-224.5 1351,-254.5 1464,-254.5 1464,-224.5 1351,-224.5"/>
<text text-anchor="start" x="1359" y="-242.5" font-family="Helvetica,sans-Serif" font-size="10.00" fill="#000000">Linear_Finite_Element</text>
<text text-anchor="middle" x="1407.5" y="-231.5" font-family="Helvetica,sans-Serif" font-size="10.00" fill="#000000">_Problem.hpp</text>
</a>
</g>
</g>
<!-- Node41&#45;&gt;Node42 -->
<g id="edge37" class="edge">
<title>Node41&#45;&gt;Node42</title>
<path fill="none" stroke="#191970" d="M1402.3597,-296.9005C1403.1111,-288.5099 1404.2363,-275.9451 1405.2425,-264.7085"/>
<polygon fill="#191970" stroke="#191970" points="1408.7488,-264.7941 1406.1548,-254.5218 1401.7767,-264.1697 1408.7488,-264.7941"/>
</g>
<!-- Node43 -->
<g id="node39" class="node">
<title>Node43</title>
<g id="a_node39"><a xlink:href="../../d0/d41/_base_class_f_e_m_8hpp.html" target="_top" xlink:title="BaseClassFEM.hpp">
<polygon fill="#ffffff" stroke="#000000" points="1406.5,-112.5 1406.5,-131.5 1510.5,-131.5 1510.5,-112.5 1406.5,-112.5"/>
<text text-anchor="middle" x="1458.5" y="-119.5" font-family="Helvetica,sans-Serif" font-size="10.00" fill="#000000">BaseClassFEM.hpp</text>
</a>
</g>
</g>
<!-- Node42&#45;&gt;Node43 -->
<g id="edge38" class="edge">
<title>Node42&#45;&gt;Node43</title>
<path fill="none" stroke="#191970" d="M1414.1674,-224.1389C1423.4394,-202.7768 1440.2171,-164.1224 1450.261,-140.982"/>
<polygon fill="#191970" stroke="#191970" points="1453.5798,-142.1262 1454.3508,-131.5595 1447.1586,-139.3391 1453.5798,-142.1262"/>
</g>
<!-- Node43&#45;&gt;Node9 -->
<g id="edge39" class="edge">
<title>Node43&#45;&gt;Node9</title>
<path fill="none" stroke="#191970" d="M1465.4675,-112.2455C1471.0311,-104.4564 1478.978,-93.3308 1485.6829,-83.9439"/>
<polygon fill="#191970" stroke="#191970" points="1488.648,-85.8144 1491.6124,-75.6427 1482.9519,-81.7457 1488.648,-85.8144"/>
</g>
<!-- Node45 -->
<g id="node41" class="node">
<title>Node45</title>
<g id="a_node41"><a xlink:href="../../d2/d34/hyperelasticity_8hpp.html" target="_top" xlink:title="hyperelasticity.hpp">
<polygon fill="#ffffff" stroke="#000000" points="1497.5,-230 1497.5,-249 1595.5,-249 1595.5,-230 1497.5,-230"/>
<text text-anchor="middle" x="1546.5" y="-237" font-family="Helvetica,sans-Serif" font-size="10.00" fill="#000000">hyperelasticity.hpp</text>
</a>
</g>
</g>
<!-- Node44&#45;&gt;Node45 -->
<g id="edge41" class="edge">
<title>Node44&#45;&gt;Node45</title>
<path fill="none" stroke="#191970" d="M1553.3538,-296.9005C1552.1894,-287.149 1550.3519,-271.7597 1548.8725,-259.3695"/>
<polygon fill="#191970" stroke="#191970" points="1552.3051,-258.5961 1547.6441,-249.0817 1545.3545,-259.4261 1552.3051,-258.5961"/>
</g>
<!-- Node46 -->
<g id="node42" class="node">
<title>Node46</title>
<g id="a_node42"><a xlink:href="../../d2/d8b/_finite___element___problem_8hpp.html" target="_top" xlink:title="Finite_Element_Problem.hpp">
<polygon fill="#ffffff" stroke="#000000" points="1467.5,-168.5 1467.5,-187.5 1609.5,-187.5 1609.5,-168.5 1467.5,-168.5"/>
<text text-anchor="middle" x="1538.5" y="-175.5" font-family="Helvetica,sans-Serif" font-size="10.00" fill="#000000">Finite_Element_Problem.hpp</text>
</a>
</g>
</g>
<!-- Node45&#45;&gt;Node46 -->
<g id="edge42" class="edge">
<title>Node45&#45;&gt;Node46</title>
<path fill="none" stroke="#191970" d="M1545.25,-229.8906C1544.1411,-221.3657 1542.4856,-208.6392 1541.0917,-197.9235"/>
<polygon fill="#191970" stroke="#191970" points="1544.5284,-197.2098 1539.7676,-187.7449 1537.5869,-198.1128 1544.5284,-197.2098"/>
</g>
<!-- Node46&#45;&gt;Node9 -->
<g id="edge43" class="edge">
<title>Node46&#45;&gt;Node9</title>
<path fill="none" stroke="#191970" d="M1536.2262,-168.4587C1533.0306,-155.4968 1526.7803,-131.6824 1519.5,-112 1516.1223,-102.8683 1511.7298,-93.0152 1507.8357,-84.7797"/>
<polygon fill="#191970" stroke="#191970" points="1510.944,-83.1678 1503.4348,-75.6937 1504.6441,-86.2193 1510.944,-83.1678"/>
</g>
<!-- Node46&#45;&gt;Node43 -->
<g id="edge44" class="edge">
<title>Node46&#45;&gt;Node43</title>
<path fill="none" stroke="#191970" d="M1524.5651,-168.2455C1512.4053,-159.7337 1494.5536,-147.2375 1480.4715,-137.3801"/>
<polygon fill="#191970" stroke="#191970" points="1482.4747,-134.51 1472.2752,-131.6427 1478.4605,-140.2447 1482.4747,-134.51"/>
</g>
<!-- Node47&#45;&gt;Node4 -->
<g id="edge54" class="edge">
<title>Node47&#45;&gt;Node4</title>
<path fill="none" stroke="#191970" d="M2367.3426,-368.8152C2267.1703,-360.9784 2063.9047,-343.8918 1892.5,-322 1882.3726,-320.7065 1871.677,-319.1703 1861.233,-317.5757"/>
<polygon fill="#191970" stroke="#191970" points="1861.7425,-314.113 1851.3235,-316.035 1860.667,-321.0299 1861.7425,-314.113"/>
</g>
<!-- Node47&#45;&gt;Node5 -->
<g id="edge55" class="edge">
<title>Node47&#45;&gt;Node5</title>
<path fill="none" stroke="#191970" d="M2367.2937,-366.1837C2292.0694,-357.0742 2161.6998,-340.4476 2050.5,-322 2043.1179,-320.7753 2035.3682,-319.385 2027.7275,-317.9518"/>
<polygon fill="#191970" stroke="#191970" points="2028.265,-314.4912 2017.786,-316.0534 2026.952,-321.367 2028.265,-314.4912"/>
</g>
<!-- Node47&#45;&gt;Node6 -->
<g id="edge56" class="edge">
<title>Node47&#45;&gt;Node6</title>
<path fill="none" stroke="#191970" d="M2386.8359,-363.9717C2340.139,-353.5427 2264.2971,-336.6047 2207.0182,-323.8124"/>
<polygon fill="#191970" stroke="#191970" points="2207.4345,-320.3192 2196.912,-321.5553 2205.9087,-327.1509 2207.4345,-320.3192"/>
</g>
<!-- Node47&#45;&gt;Node35 -->
<g id="edge47" class="edge">
<title>Node47&#45;&gt;Node35</title>
<path fill="none" stroke="#191970" d="M2437.6546,-363.8925C2445.6378,-354.006 2457.5795,-337.8517 2464.5,-322 2479.5546,-287.5165 2483.5,-277.1265 2483.5,-239.5 2483.5,-239.5 2483.5,-239.5 2483.5,-122 2483.5,-103.2974 2735.4221,-46.385 2849.0506,-21.6662"/>
<polygon fill="#191970" stroke="#191970" points="2849.92,-25.059 2858.9503,-19.5179 2848.4355,-18.2183 2849.92,-25.059"/>
</g>
<!-- Node47&#45;&gt;Node46 -->
<g id="edge46" class="edge">
<title>Node47&#45;&gt;Node46</title>
<path fill="none" stroke="#191970" d="M2374.8462,-363.9374C2337.5633,-356.0221 2287.8267,-342.6717 2247.5,-322 2227.7959,-311.8995 2228.7236,-300.0154 2208.5,-291 2155.0415,-267.1689 1781.7716,-212.3707 1616.7029,-188.9449"/>
<polygon fill="#191970" stroke="#191970" points="1617.0055,-185.4528 1606.6133,-187.5153 1616.0234,-192.3836 1617.0055,-185.4528"/>
</g>
<!-- Node48 -->
<g id="node44" class="node">
<title>Node48</title>
<polygon fill="#ffffff" stroke="#bfbfbf" points="2403.5,-297 2403.5,-316 2455.5,-316 2455.5,-297 2403.5,-297"/>
<text text-anchor="middle" x="2429.5" y="-304" font-family="Helvetica,sans-Serif" font-size="10.00" fill="#000000">Ifpack.h</text>
</g>
<!-- Node47&#45;&gt;Node48 -->
<g id="edge48" class="edge">
<title>Node47&#45;&gt;Node48</title>
<path fill="none" stroke="#191970" d="M2429.5,-363.9005C2429.5,-354.149 2429.5,-338.7597 2429.5,-326.3695"/>
<polygon fill="#191970" stroke="#191970" points="2433.0001,-326.0816 2429.5,-316.0817 2426.0001,-326.0817 2433.0001,-326.0816"/>
</g>
<!-- Node49 -->
<g id="node45" class="node">
<title>Node49</title>
<polygon fill="#ffffff" stroke="#bfbfbf" points="2512,-297 2512,-316 2643,-316 2643,-297 2512,-297"/>
<text text-anchor="middle" x="2577.5" y="-304" font-family="Helvetica,sans-Serif" font-size="10.00" fill="#000000">Ifpack_AdditiveSchwarz.h</text>
</g>
<!-- Node47&#45;&gt;Node49 -->
<g id="edge49" class="edge">
<title>Node47&#45;&gt;Node49</title>
<path fill="none" stroke="#191970" d="M2450.7048,-363.9005C2475.9821,-352.4574 2518.4084,-333.2509 2547.1548,-320.2374"/>
<polygon fill="#191970" stroke="#191970" points="2548.668,-323.3943 2556.3345,-316.0817 2545.7811,-317.0173 2548.668,-323.3943"/>
</g>
<!-- Node50 -->
<g id="node46" class="node">
<title>Node50</title>
<polygon fill="#ffffff" stroke="#bfbfbf" points="2661.5,-297 2661.5,-316 2783.5,-316 2783.5,-297 2661.5,-297"/>
<text text-anchor="middle" x="2722.5" y="-304" font-family="Helvetica,sans-Serif" font-size="10.00" fill="#000000">BelosLinearProblem.hpp</text>
</g>
<!-- Node47&#45;&gt;Node50 -->
<g id="edge50" class="edge">
<title>Node47&#45;&gt;Node50</title>
<path fill="none" stroke="#191970" d="M2471.1686,-363.9717C2523.6319,-351.975 2613.7615,-331.3651 2670.632,-318.3606"/>
<polygon fill="#191970" stroke="#191970" points="2671.5326,-321.7451 2680.5008,-316.1039 2669.9722,-314.9212 2671.5326,-321.7451"/>
</g>
<!-- Node51 -->
<g id="node47" class="node">
<title>Node51</title>
<polygon fill="#ffffff" stroke="#bfbfbf" points="2802,-297 2802,-316 2947,-316 2947,-297 2802,-297"/>
<text text-anchor="middle" x="2874.5" y="-304" font-family="Helvetica,sans-Serif" font-size="10.00" fill="#000000">BelosBlockGmresSolMgr.hpp</text>
</g>
<!-- Node47&#45;&gt;Node51 -->
<g id="edge51" class="edge">
<title>Node47&#45;&gt;Node51</title>
<path fill="none" stroke="#191970" d="M2491.6148,-365.5696C2564.0031,-356.1234 2687.1545,-339.4199 2792.5,-322 2800.1384,-320.7369 2808.1609,-319.3258 2816.0742,-317.8834"/>
<polygon fill="#191970" stroke="#191970" points="2816.805,-321.3077 2826.0024,-316.0485 2815.5328,-314.4243 2816.805,-321.3077"/>
</g>
<!-- Node52 -->
<g id="node48" class="node">
<title>Node52</title>
<polygon fill="#ffffff" stroke="#bfbfbf" points="2965.5,-297 2965.5,-316 3087.5,-316 3087.5,-297 2965.5,-297"/>
<text text-anchor="middle" x="3026.5" y="-304" font-family="Helvetica,sans-Serif" font-size="10.00" fill="#000000">BelosEpetraAdapter.hpp</text>
</g>
<!-- Node47&#45;&gt;Node52 -->
<g id="edge52" class="edge">
<title>Node47&#45;&gt;Node52</title>
<path fill="none" stroke="#191970" d="M2491.8722,-369.8468C2590.8258,-363.5032 2789.6758,-348.5221 2956.5,-322 2963.2725,-320.9233 2970.3721,-319.5921 2977.3443,-318.1659"/>
<polygon fill="#191970" stroke="#191970" points="2978.3607,-321.5282 2987.4153,-316.0269 2976.9063,-314.6809 2978.3607,-321.5282"/>
</g>
<!-- Node53 -->
<g id="node49" class="node">
<title>Node53</title>
<polygon fill="#ffffff" stroke="#bfbfbf" points="3106,-297 3106,-316 3227,-316 3227,-297 3106,-297"/>
<text text-anchor="middle" x="3166.5" y="-304" font-family="Helvetica,sans-Serif" font-size="10.00" fill="#000000">BelosSolverFactory.hpp</text>
</g>
<!-- Node47&#45;&gt;Node53 -->
<g id="edge53" class="edge">
<title>Node47&#45;&gt;Node53</title>
<path fill="none" stroke="#191970" d="M2491.8983,-371.6139C2610.3355,-367.3862 2875.6386,-354.8121 3096.5,-322 3103.6102,-320.9437 3111.0747,-319.5752 3118.3718,-318.0891"/>
<polygon fill="#191970" stroke="#191970" points="3119.1152,-321.5093 3128.1697,-316.0079 3117.6607,-314.6621 3119.1152,-321.5093"/>
</g>
<!-- Node54 -->
<g id="node50" class="node">
<title>Node54</title>
<polygon fill="#ffffff" stroke="#bfbfbf" points="2256,-291.5 2256,-321.5 2385,-321.5 2385,-291.5 2256,-291.5"/>
<text text-anchor="start" x="2264" y="-309.5" font-family="Helvetica,sans-Serif" font-size="10.00" fill="#000000">Stratimikos_DefaultLinear</text>
<text text-anchor="middle" x="2320.5" y="-298.5" font-family="Helvetica,sans-Serif" font-size="10.00" fill="#000000">SolverBuilder.hpp</text>
</g>
<!-- Node47&#45;&gt;Node54 -->
<g id="edge57" class="edge">
<title>Node47&#45;&gt;Node54</title>
<path fill="none" stroke="#191970" d="M2413.883,-363.9005C2398.1919,-354.2556 2373.5284,-339.0954 2353.4876,-326.7768"/>
<polygon fill="#191970" stroke="#191970" points="2355.2905,-323.7767 2344.9384,-321.5218 2351.6248,-329.7402 2355.2905,-323.7767"/>
</g>
</g>
</svg>
        <g id="navigator" transform="translate(0 0)" fill="#404254">
                <rect fill="#f2f5e9" fill-opacity="0.5" stroke="#606060" stroke-width=".5" x="0" y="0" width="60" height="60"/>
                <use id="zoomplus" xlink:href="#zoomPlus" x="17" y="9" onmousedown="handleZoom(evt,'in')"/>
                <use id="zoomminus" xlink:href="#zoomMin" x="42" y="9" onmousedown="handleZoom(evt,'out')"/>
                <use id="reset" xlink:href="#resetDef" x="30" y="36" onmousedown="handleReset()"/>
                <g id="arrowUp" xlink:href="#dirArrow" transform="translate(30 24)" onmousedown="handlePan(0,-1)">
                  <use xlink:href="#rim" fill="#404040">
                        <set attributeName="fill" to="#808080" begin="arrowUp.mouseover" end="arrowUp.mouseout"/>
                  </use>
                  <path fill="none" stroke="white" stroke-width="1.5" d="M0,-3.0v7 M-2.5,-0.5L0,-3.0L2.5,-0.5"/>
                </g>
                <g id="arrowRight" xlink:href="#dirArrow" transform="rotate(90) translate(36 -43)" onmousedown="handlePan(1,0)">
                  <use xlink:href="#rim" fill="#404040">
                        <set attributeName="fill" to="#808080" begin="arrowRight.mouseover" end="arrowRight.mouseout"/>
                  </use>
                  <path fill="none" stroke="white" stroke-width="1.5" d="M0,-3.0v7 M-2.5,-0.5L0,-3.0L2.5,-0.5"/>
                </g>
                <g id="arrowDown" xlink:href="#dirArrow" transform="rotate(180) translate(-30 -48)" onmousedown="handlePan(0,1)">
                  <use xlink:href="#rim" fill="#404040">
                        <set attributeName="fill" to="#808080" begin="arrowDown.mouseover" end="arrowDown.mouseout"/>
                  </use>
                  <path fill="none" stroke="white" stroke-width="1.5" d="M0,-3.0v7 M-2.5,-0.5L0,-3.0L2.5,-0.5"/>
                </g>
                <g id="arrowLeft" xlink:href="#dirArrow" transform="rotate(270) translate(-36 17)" onmousedown="handlePan(-1,0)">
                  <use xlink:href="#rim" fill="#404040">
                        <set attributeName="fill" to="#808080" begin="arrowLeft.mouseover" end="arrowLeft.mouseout"/>
                  </use>
                  <path fill="none" stroke="white" stroke-width="1.5" d="M0,-3.0v7 M-2.5,-0.5L0,-3.0L2.5,-0.5"/>
                </g>
        </g>
        <svg viewBox="0 0 15 15" width="100%" height="30px" preserveAspectRatio="xMaxYMin meet">
         <g id="arrow_out" transform="scale(0.3 0.3)">
          <a xlink:href="arteries_2deterministic__neumann_2main_8cpp__incl_org.svg" target="_base">
           <rect id="button" ry="5" rx="5" y="6" x="6" height="38" width="38"
                fill="#f2f5e9" fill-opacity="0.5" stroke="#606060" stroke-width="1.0"/>
           <path id="arrow"
             d="M 11.500037,31.436501 C 11.940474,20.09759 22.043105,11.32322 32.158766,21.979434 L 37.068811,17.246167 C 37.068811,17.246167 37.088388,32 37.088388,32 L 22.160133,31.978069 C 22.160133,31.978069 26.997745,27.140456 26.997745,27.140456 C 18.528582,18.264221 13.291696,25.230495 11.500037,31.436501 z"
             style="fill:#404040;"/>
          </a>
         </g>
        </svg>
</svg>
