<?xml version="1.0" encoding="UTF-8" standalone="no"?>
<!DOCTYPE svg PUBLIC "-//W3C//DTD SVG 1.1//EN"
 "http://www.w3.org/Graphics/SVG/1.1/DTD/svg11.dtd">
<!-- Generated by graphviz version 2.40.1 (20161225.0304)
 -->
<!-- Title: phaseFieldLinearizedElasticity Pages: 1 -->
<svg width="157pt" height="252pt"
 viewBox="0.00 0.00 157.00 252.00" xmlns="http://www.w3.org/2000/svg" xmlns:xlink="http://www.w3.org/1999/xlink">
<g id="graph0" class="graph" transform="scale(1 1) rotate(0) translate(4 248)">
<title>phaseFieldLinearizedElasticity</title>
<polygon fill="#ffffff" stroke="transparent" points="-4,4 -4,-248 153,-248 153,4 -4,4"/>
<!-- Node0 -->
<g id="node1" class="node">
<title>Node0</title>
<polygon fill="#bfbfbf" stroke="#000000" points="0,-56.5 0,-75.5 149,-75.5 149,-56.5 0,-56.5"/>
<text text-anchor="middle" x="74.5" y="-63.5" font-family="Helvetica,sans-Serif" font-size="10.00" fill="#000000">phaseFieldLinearizedElasticity</text>
</g>
<!-- Node4 -->
<g id="node5" class="node">
<title>Node4</title>
<g id="a_node5"><a xlink:href="../../df/dad/classphase_field_problem.html" target="_top" xlink:title="phaseFieldProblem">
<polygon fill="#ffffff" stroke="#000000" points="24.5,-.5 24.5,-19.5 124.5,-19.5 124.5,-.5 24.5,-.5"/>
<text text-anchor="middle" x="74.5" y="-7.5" font-family="Helvetica,sans-Serif" font-size="10.00" fill="#000000">phaseFieldProblem</text>
</a>
</g>
</g>
<!-- Node0&#45;&gt;Node4 -->
<g id="edge4" class="edge">
<title>Node0&#45;&gt;Node4</title>
<path fill="none" stroke="#191970" d="M74.5,-46.1575C74.5,-37.155 74.5,-26.9199 74.5,-19.6427"/>
<polygon fill="#191970" stroke="#191970" points="71.0001,-46.2455 74.5,-56.2455 78.0001,-46.2456 71.0001,-46.2455"/>
</g>
<!-- Node1 -->
<g id="node2" class="node">
<title>Node1</title>
<g id="a_node2"><a xlink:href="../../d4/dfd/classlinearized_elasticity.html" target="_top" xlink:title="linearizedElasticity">
<polygon fill="#ffffff" stroke="#000000" points="25.5,-112.5 25.5,-131.5 123.5,-131.5 123.5,-112.5 25.5,-112.5"/>
<text text-anchor="middle" x="74.5" y="-119.5" font-family="Helvetica,sans-Serif" font-size="10.00" fill="#000000">linearizedElasticity</text>
</a>
</g>
</g>
<!-- Node1&#45;&gt;Node0 -->
<g id="edge1" class="edge">
<title>Node1&#45;&gt;Node0</title>
<path fill="none" stroke="#191970" d="M74.5,-102.1575C74.5,-93.155 74.5,-82.9199 74.5,-75.6427"/>
<polygon fill="#191970" stroke="#191970" points="71.0001,-102.2455 74.5,-112.2455 78.0001,-102.2456 71.0001,-102.2455"/>
</g>
<!-- Node2 -->
<g id="node3" class="node">
<title>Node2</title>
<g id="a_node3"><a xlink:href="../../dc/d01/classlinear_finite_element_problem.html" target="_top" xlink:title="linearFiniteElementProblem">
<polygon fill="#ffffff" stroke="#000000" points="6.5,-168.5 6.5,-187.5 142.5,-187.5 142.5,-168.5 6.5,-168.5"/>
<text text-anchor="middle" x="74.5" y="-175.5" font-family="Helvetica,sans-Serif" font-size="10.00" fill="#000000">linearFiniteElementProblem</text>
</a>
</g>
</g>
<!-- Node2&#45;&gt;Node1 -->
<g id="edge2" class="edge">
<title>Node2&#45;&gt;Node1</title>
<path fill="none" stroke="#191970" d="M74.5,-158.1575C74.5,-149.155 74.5,-138.9199 74.5,-131.6427"/>
<polygon fill="#191970" stroke="#191970" points="71.0001,-158.2455 74.5,-168.2455 78.0001,-158.2456 71.0001,-158.2455"/>
</g>
<!-- Node3 -->
<g id="node4" class="node">
<title>Node3</title>
<g id="a_node4"><a xlink:href="../../d2/d31/classbase_class_f_e_m.html" target="_top" xlink:title="baseClassFEM">
<polygon fill="#ffffff" stroke="#000000" points="32.5,-224.5 32.5,-243.5 116.5,-243.5 116.5,-224.5 32.5,-224.5"/>
<text text-anchor="middle" x="74.5" y="-231.5" font-family="Helvetica,sans-Serif" font-size="10.00" fill="#000000">baseClassFEM</text>
</a>
</g>
</g>
<!-- Node3&#45;&gt;Node2 -->
<g id="edge3" class="edge">
<title>Node3&#45;&gt;Node2</title>
<path fill="none" stroke="#191970" d="M74.5,-214.1575C74.5,-205.155 74.5,-194.9199 74.5,-187.6427"/>
<polygon fill="#191970" stroke="#191970" points="71.0001,-214.2455 74.5,-224.2455 78.0001,-214.2456 71.0001,-214.2455"/>
</g>
</g>
</svg>
