<?xml version="1.0" encoding="UTF-8" standalone="no"?>
<!DOCTYPE svg PUBLIC "-//W3C//DTD SVG 1.1//EN"
 "http://www.w3.org/Graphics/SVG/1.1/DTD/svg11.dtd">
<!-- Generated by graphviz version 2.40.1 (20161225.0304)
 -->
<!-- Title: hyperelasticity Pages: 1 -->
<svg width="131pt" height="209pt"
 viewBox="0.00 0.00 131.00 209.00" xmlns="http://www.w3.org/2000/svg" xmlns:xlink="http://www.w3.org/1999/xlink">
<g id="graph0" class="graph" transform="scale(1 1) rotate(0) translate(4 205)">
<title>hyperelasticity</title>
<polygon fill="#ffffff" stroke="transparent" points="-4,4 -4,-205 127,-205 127,4 -4,4"/>
<!-- Node14 -->
<g id="node1" class="node">
<title>Node14</title>
<polygon fill="#bfbfbf" stroke="#000000" points="21.5,-.5 21.5,-19.5 101.5,-19.5 101.5,-.5 21.5,-.5"/>
<text text-anchor="middle" x="61.5" y="-7.5" font-family="Helvetica,sans-Serif" font-size="10.00" fill="#000000">hyperelasticity</text>
</g>
<!-- Node15 -->
<g id="node2" class="node">
<title>Node15</title>
<g id="a_node2"><a xlink:href="../../d8/dc2/class_finite___element___problem.html" target="_top" xlink:title="Finite_Element_Problem">
<polygon fill="#ffffff" stroke="#000000" points="0,-57.5 0,-76.5 123,-76.5 123,-57.5 0,-57.5"/>
<text text-anchor="middle" x="61.5" y="-64.5" font-family="Helvetica,sans-Serif" font-size="10.00" fill="#000000">Finite_Element_Problem</text>
</a>
</g>
</g>
<!-- Node15&#45;&gt;Node14 -->
<g id="edge1" class="edge">
<title>Node15&#45;&gt;Node14</title>
<path fill="none" stroke="#191970" d="M61.5,-47.2342C61.5,-37.8491 61.5,-27.0651 61.5,-19.5265"/>
<polygon fill="#191970" stroke="#191970" points="58.0001,-47.3307 61.5,-57.3307 65.0001,-47.3308 58.0001,-47.3307"/>
</g>
<!-- Node16 -->
<g id="node3" class="node">
<title>Node16</title>
<g id="a_node3"><a xlink:href="../../d2/d97/class_base_class_f_e_m.html" target="_top" xlink:title="BaseClassFEM">
<polygon fill="#ffffff" stroke="#000000" points="18.5,-114.5 18.5,-133.5 104.5,-133.5 104.5,-114.5 18.5,-114.5"/>
<text text-anchor="middle" x="61.5" y="-121.5" font-family="Helvetica,sans-Serif" font-size="10.00" fill="#000000">BaseClassFEM</text>
</a>
</g>
</g>
<!-- Node16&#45;&gt;Node15 -->
<g id="edge2" class="edge">
<title>Node16&#45;&gt;Node15</title>
<path fill="none" stroke="#191970" d="M61.5,-104.2342C61.5,-94.8491 61.5,-84.0651 61.5,-76.5265"/>
<polygon fill="#191970" stroke="#191970" points="58.0001,-104.3307 61.5,-114.3307 65.0001,-104.3308 58.0001,-104.3307"/>
</g>
<!-- Node17 -->
<g id="node4" class="node">
<title>Node17</title>
<g id="a_node4"><a xlink:href="../../d6/d6b/classmesh.html" target="_top" xlink:title="mesh">
<polygon fill="#ffffff" stroke="#000000" points="41,-181.5 41,-200.5 82,-200.5 82,-181.5 41,-181.5"/>
<text text-anchor="middle" x="61.5" y="-188.5" font-family="Helvetica,sans-Serif" font-size="10.00" fill="#000000">mesh</text>
</a>
</g>
</g>
<!-- Node17&#45;&gt;Node16 -->
<g id="edge3" class="edge">
<title>Node17&#45;&gt;Node16</title>
<path fill="none" stroke="#9a32cd" stroke-dasharray="5,2" d="M61.5,-171.1079C61.5,-158.714 61.5,-143.3263 61.5,-133.5817"/>
<polygon fill="#9a32cd" stroke="#9a32cd" points="58.0001,-171.4005 61.5,-181.4005 65.0001,-171.4006 58.0001,-171.4005"/>
<text text-anchor="middle" x="75.5" y="-155" font-family="Helvetica,sans-Serif" font-size="10.00" fill="#000000"> Mesh</text>
</g>
</g>
</svg>
