<?xml version="1.0" encoding="UTF-8" standalone="no"?>
<!DOCTYPE svg PUBLIC "-//W3C//DTD SVG 1.1//EN"
 "http://www.w3.org/Graphics/SVG/1.1/DTD/svg11.dtd">
<!-- Generated by graphviz version 2.40.1 (20161225.0304)
 -->
<!-- Title: hyperelasticity Pages: 1 -->
<svg width="165pt" height="209pt"
 viewBox="0.00 0.00 165.00 209.00" xmlns="http://www.w3.org/2000/svg" xmlns:xlink="http://www.w3.org/1999/xlink">
<g id="graph0" class="graph" transform="scale(1 1) rotate(0) translate(4 205)">
<title>hyperelasticity</title>
<polygon fill="#ffffff" stroke="transparent" points="-4,4 -4,-205 161,-205 161,4 -4,4"/>
<!-- Node14 -->
<g id="node1" class="node">
<title>Node14</title>
<polygon fill="#bfbfbf" stroke="#000000" points="38.5,-.5 38.5,-19.5 118.5,-19.5 118.5,-.5 38.5,-.5"/>
<text text-anchor="middle" x="78.5" y="-7.5" font-family="Helvetica,sans-Serif" font-size="10.00" fill="#000000">hyperelasticity</text>
</g>
<!-- Node15 -->
<g id="node2" class="node">
<title>Node15</title>
<g id="a_node2"><a xlink:href="../../da/d1c/class_non_linear_finite_element_problem.html" target="_top" xlink:title="NonLinearFiniteElementProblem">
<polygon fill="#ffffff" stroke="#000000" points="0,-57.5 0,-76.5 157,-76.5 157,-57.5 0,-57.5"/>
<text text-anchor="middle" x="78.5" y="-64.5" font-family="Helvetica,sans-Serif" font-size="10.00" fill="#000000">NonLinearFiniteElementProblem</text>
</a>
</g>
</g>
<!-- Node15&#45;&gt;Node14 -->
<g id="edge1" class="edge">
<title>Node15&#45;&gt;Node14</title>
<path fill="none" stroke="#191970" d="M78.5,-47.2342C78.5,-37.8491 78.5,-27.0651 78.5,-19.5265"/>
<polygon fill="#191970" stroke="#191970" points="75.0001,-47.3307 78.5,-57.3307 82.0001,-47.3308 75.0001,-47.3307"/>
</g>
<!-- Node16 -->
<g id="node3" class="node">
<title>Node16</title>
<g id="a_node3"><a xlink:href="../../d2/d31/classbase_class_f_e_m.html" target="_top" xlink:title="baseClassFEM">
<polygon fill="#ffffff" stroke="#000000" points="36.5,-114.5 36.5,-133.5 120.5,-133.5 120.5,-114.5 36.5,-114.5"/>
<text text-anchor="middle" x="78.5" y="-121.5" font-family="Helvetica,sans-Serif" font-size="10.00" fill="#000000">baseClassFEM</text>
</a>
</g>
</g>
<!-- Node16&#45;&gt;Node15 -->
<g id="edge2" class="edge">
<title>Node16&#45;&gt;Node15</title>
<path fill="none" stroke="#191970" d="M78.5,-104.2342C78.5,-94.8491 78.5,-84.0651 78.5,-76.5265"/>
<polygon fill="#191970" stroke="#191970" points="75.0001,-104.3307 78.5,-114.3307 82.0001,-104.3308 75.0001,-104.3307"/>
</g>
<!-- Node17 -->
<g id="node4" class="node">
<title>Node17</title>
<g id="a_node4"><a xlink:href="../../d6/d6b/classmesh.html" target="_top" xlink:title="mesh">
<polygon fill="#ffffff" stroke="#000000" points="58,-181.5 58,-200.5 99,-200.5 99,-181.5 58,-181.5"/>
<text text-anchor="middle" x="78.5" y="-188.5" font-family="Helvetica,sans-Serif" font-size="10.00" fill="#000000">mesh</text>
</a>
</g>
</g>
<!-- Node17&#45;&gt;Node16 -->
<g id="edge3" class="edge">
<title>Node17&#45;&gt;Node16</title>
<path fill="none" stroke="#9a32cd" stroke-dasharray="5,2" d="M78.5,-171.1079C78.5,-158.714 78.5,-143.3263 78.5,-133.5817"/>
<polygon fill="#9a32cd" stroke="#9a32cd" points="75.0001,-171.4005 78.5,-181.4005 82.0001,-171.4006 75.0001,-171.4005"/>
<text text-anchor="middle" x="92.5" y="-155" font-family="Helvetica,sans-Serif" font-size="10.00" fill="#000000"> Mesh</text>
</g>
</g>
</svg>
