<?xml version="1.0" encoding="UTF-8" standalone="no"?>
<!DOCTYPE svg PUBLIC "-//W3C//DTD SVG 1.1//EN"
 "http://www.w3.org/Graphics/SVG/1.1/DTD/svg11.dtd">
<!-- Generated by graphviz version 2.40.1 (20161225.0304)
 -->
<!-- Title: arteries/deterministic_dirichlet/main.cpp Pages: 1 -->
<svg width="3150pt" height="452pt"
 viewBox="0.00 0.00 3149.98 452.00" xmlns="http://www.w3.org/2000/svg" xmlns:xlink="http://www.w3.org/1999/xlink">
<g id="graph0" class="graph" transform="scale(1 1) rotate(0) translate(4 448)">
<title>arteries/deterministic_dirichlet/main.cpp</title>
<polygon fill="#ffffff" stroke="transparent" points="-4,4 -4,-448 3145.98,-448 3145.98,4 -4,4"/>
<!-- Node0 -->
<g id="node1" class="node">
<title>Node0</title>
<polygon fill="#bfbfbf" stroke="#000000" points="1402.606,-415.5 1402.606,-443.5 1510.8569,-443.5 1510.8569,-415.5 1402.606,-415.5"/>
<text text-anchor="start" x="1410.606" y="-431.5" font-family="Helvetica,sans-Serif" font-size="10.00" fill="#000000">arteries/deterministic</text>
<text text-anchor="middle" x="1456.7314" y="-421.5" font-family="Helvetica,sans-Serif" font-size="10.00" fill="#000000">_dirichlet/main.cpp</text>
</g>
<!-- Node1 -->
<g id="node2" class="node">
<title>Node1</title>
<polygon fill="#ffffff" stroke="#bfbfbf" points="1206.3154,-355.5 1206.3154,-373.5 1315.1475,-373.5 1315.1475,-355.5 1206.3154,-355.5"/>
<text text-anchor="middle" x="1260.7314" y="-361.5" font-family="Helvetica,sans-Serif" font-size="10.00" fill="#000000">Epetra_ConfigDefs.h</text>
</g>
<!-- Node0&#45;&gt;Node1 -->
<g id="edge1" class="edge">
<title>Node0&#45;&gt;Node1</title>
<path fill="none" stroke="#191970" d="M1414.2024,-415.396C1379.5111,-403.8912 1330.992,-387.8007 1297.8525,-376.8106"/>
<polygon fill="#191970" stroke="#191970" points="1298.6874,-373.4 1288.094,-373.5743 1296.4839,-380.0442 1298.6874,-373.4"/>
</g>
<!-- Node2 -->
<g id="node3" class="node">
<title>Node2</title>
<polygon fill="#ffffff" stroke="#bfbfbf" points="1333.5444,-355.5 1333.5444,-373.5 1447.9185,-373.5 1447.9185,-355.5 1333.5444,-355.5"/>
<text text-anchor="middle" x="1390.7314" y="-361.5" font-family="Helvetica,sans-Serif" font-size="10.00" fill="#000000">Epetra_SerialComm.h</text>
</g>
<!-- Node0&#45;&gt;Node2 -->
<g id="edge2" class="edge">
<title>Node0&#45;&gt;Node2</title>
<path fill="none" stroke="#191970" d="M1442.4104,-415.396C1432.0378,-405.1805 1417.9941,-391.3496 1407.1645,-380.6841"/>
<polygon fill="#191970" stroke="#191970" points="1409.5261,-378.0975 1399.9454,-373.5743 1404.6143,-383.0849 1409.5261,-378.0975"/>
</g>
<!-- Node3 -->
<g id="node4" class="node">
<title>Node3</title>
<g id="a_node4"><a xlink:href="../../de/db1/_dirichlet_inlet_outlet___polyconvex_h_g_o_8hpp.html" target="_top" xlink:title="DirichletInletOutlet\l_PolyconvexHGO.hpp">
<polygon fill="#ffffff" stroke="#000000" points="1466.2612,-350.5 1466.2612,-378.5 1581.2017,-378.5 1581.2017,-350.5 1466.2612,-350.5"/>
<text text-anchor="start" x="1474.2612" y="-366.5" font-family="Helvetica,sans-Serif" font-size="10.00" fill="#000000">DirichletInletOutlet</text>
<text text-anchor="middle" x="1523.7314" y="-356.5" font-family="Helvetica,sans-Serif" font-size="10.00" fill="#000000">_PolyconvexHGO.hpp</text>
</a>
</g>
</g>
<!-- Node0&#45;&gt;Node3 -->
<g id="edge3" class="edge">
<title>Node0&#45;&gt;Node3</title>
<path fill="none" stroke="#191970" d="M1471.2694,-415.396C1480.2248,-406.7079 1491.8759,-395.4046 1501.9228,-385.6576"/>
<polygon fill="#191970" stroke="#191970" points="1504.4815,-388.0518 1509.2218,-378.5765 1499.6073,-383.0276 1504.4815,-388.0518"/>
</g>
<!-- Node43 -->
<g id="node40" class="node">
<title>Node43</title>
<g id="a_node40"><a xlink:href="../../d7/d17/_newton___raphsonpp_8hpp.html" target="_top" xlink:title="Newton_Raphsonpp.hpp">
<polygon fill="#ffffff" stroke="#000000" points="2061.6899,-235.5 2061.6899,-253.5 2187.7729,-253.5 2187.7729,-235.5 2061.6899,-235.5"/>
<text text-anchor="middle" x="2124.7314" y="-241.5" font-family="Helvetica,sans-Serif" font-size="10.00" fill="#000000">Newton_Raphsonpp.hpp</text>
</a>
</g>
</g>
<!-- Node0&#45;&gt;Node43 -->
<g id="edge42" class="edge">
<title>Node0&#45;&gt;Node43</title>
<path fill="none" stroke="#191970" d="M1507.4883,-415.4431C1634.5539,-380.2528 1964.5738,-288.855 2082.2648,-256.261"/>
<polygon fill="#191970" stroke="#191970" points="2083.3009,-259.6059 2092.0039,-253.5638 2081.4325,-252.8598 2083.3009,-259.6059"/>
</g>
<!-- Node4 -->
<g id="node5" class="node">
<title>Node4</title>
<g id="a_node5"><a xlink:href="../../de/d49/tensor__calculus_8hpp.html" target="_top" xlink:title="tensor_calculus.hpp">
<polygon fill="#ffffff" stroke="#000000" points="1306.2588,-110.5 1306.2588,-128.5 1411.2041,-128.5 1411.2041,-110.5 1306.2588,-110.5"/>
<text text-anchor="middle" x="1358.7314" y="-116.5" font-family="Helvetica,sans-Serif" font-size="10.00" fill="#000000">tensor_calculus.hpp</text>
</a>
</g>
</g>
<!-- Node3&#45;&gt;Node4 -->
<g id="edge4" class="edge">
<title>Node3&#45;&gt;Node4</title>
<path fill="none" stroke="#191970" d="M1476.1256,-350.4349C1445.3623,-340.4092 1409.1839,-326.5404 1398.7314,-314 1355.9249,-262.6424 1355.0197,-177.4731 1357.0967,-139.1961"/>
<polygon fill="#191970" stroke="#191970" points="1360.6094,-139.1257 1357.794,-128.9118 1353.6255,-138.6522 1360.6094,-139.1257"/>
</g>
<!-- Node37 -->
<g id="node34" class="node">
<title>Node37</title>
<g id="a_node34"><a xlink:href="../../d5/d3f/laplacepp_8hpp.html" target="_top" xlink:title="laplacepp.hpp">
<polygon fill="#ffffff" stroke="#000000" points="1407.5938,-295.5 1407.5938,-313.5 1485.8691,-313.5 1485.8691,-295.5 1407.5938,-295.5"/>
<text text-anchor="middle" x="1446.7314" y="-301.5" font-family="Helvetica,sans-Serif" font-size="10.00" fill="#000000">laplacepp.hpp</text>
</a>
</g>
</g>
<!-- Node3&#45;&gt;Node37 -->
<g id="edge33" class="edge">
<title>Node3&#45;&gt;Node37</title>
<path fill="none" stroke="#191970" d="M1505.4835,-350.2808C1493.7455,-341.1344 1478.4965,-329.252 1466.4757,-319.8851"/>
<polygon fill="#191970" stroke="#191970" points="1468.4288,-316.9699 1458.3895,-313.5842 1464.1262,-322.4915 1468.4288,-316.9699"/>
</g>
<!-- Node40 -->
<g id="node37" class="node">
<title>Node40</title>
<g id="a_node37"><a xlink:href="../../dc/de0/nearly_incompressible_hyperelasticity_8hpp.html" target="_top" xlink:title="nearlyIncompressibleHyperelasticity.hpp">
<polygon fill="#ffffff" stroke="#000000" points="1503.6152,-295.5 1503.6152,-313.5 1697.8477,-313.5 1697.8477,-295.5 1503.6152,-295.5"/>
<text text-anchor="middle" x="1600.7314" y="-301.5" font-family="Helvetica,sans-Serif" font-size="10.00" fill="#000000">nearlyIncompressibleHyperelasticity.hpp</text>
</a>
</g>
</g>
<!-- Node3&#45;&gt;Node40 -->
<g id="edge37" class="edge">
<title>Node3&#45;&gt;Node40</title>
<path fill="none" stroke="#191970" d="M1541.9794,-350.2808C1553.7173,-341.1344 1568.9664,-329.252 1580.9872,-319.8851"/>
<polygon fill="#191970" stroke="#191970" points="1583.3367,-322.4915 1589.0734,-313.5842 1579.0341,-316.9699 1583.3367,-322.4915"/>
</g>
<!-- Node5 -->
<g id="node6" class="node">
<title>Node5</title>
<g id="a_node6"><a xlink:href="../../d0/d02/meshpp_8hpp.html" target="_top" xlink:title="meshpp.hpp">
<polygon fill="#ffffff" stroke="#ff0000" points="1385.2119,-55.5 1385.2119,-73.5 1456.251,-73.5 1456.251,-55.5 1385.2119,-55.5"/>
<text text-anchor="middle" x="1420.7314" y="-61.5" font-family="Helvetica,sans-Serif" font-size="10.00" fill="#000000">meshpp.hpp</text>
</a>
</g>
</g>
<!-- Node4&#45;&gt;Node5 -->
<g id="edge5" class="edge">
<title>Node4&#45;&gt;Node5</title>
<path fill="none" stroke="#191970" d="M1368.9695,-110.4179C1378.0689,-102.3458 1391.5851,-90.3556 1402.5241,-80.6517"/>
<polygon fill="#191970" stroke="#191970" points="1405.1129,-83.0339 1410.271,-73.7795 1400.4675,-77.7974 1405.1129,-83.0339"/>
</g>
<!-- Node6 -->
<g id="node7" class="node">
<title>Node6</title>
<polygon fill="#ffffff" stroke="#bfbfbf" points="0,-.5 0,-18.5 45.4629,-18.5 45.4629,-.5 0,-.5"/>
<text text-anchor="middle" x="22.7314" y="-6.5" font-family="Helvetica,sans-Serif" font-size="10.00" fill="#000000">stdio.h</text>
</g>
<!-- Node5&#45;&gt;Node6 -->
<g id="edge6" class="edge">
<title>Node5&#45;&gt;Node6</title>
<path fill="none" stroke="#191970" d="M1385.1623,-63.8579C1187.7603,-60.2234 229.7817,-41.637 55.5398,-18.5212"/>
<polygon fill="#191970" stroke="#191970" points="56.0435,-15.0577 45.6403,-17.0634 55.0236,-21.983 56.0435,-15.0577"/>
</g>
<!-- Node7 -->
<g id="node8" class="node">
<title>Node7</title>
<polygon fill="#ffffff" stroke="#bfbfbf" points="63.5591,-.5 63.5591,-18.5 117.9038,-18.5 117.9038,-.5 63.5591,-.5"/>
<text text-anchor="middle" x="90.7314" y="-6.5" font-family="Helvetica,sans-Serif" font-size="10.00" fill="#000000">iostream</text>
</g>
<!-- Node5&#45;&gt;Node7 -->
<g id="edge7" class="edge">
<title>Node5&#45;&gt;Node7</title>
<path fill="none" stroke="#191970" d="M1385.029,-64.2859C1205.6638,-63.0539 401.1331,-55.628 128.3341,-18.6639"/>
<polygon fill="#191970" stroke="#191970" points="128.4666,-15.1482 118.077,-17.2232 127.4929,-22.0802 128.4666,-15.1482"/>
</g>
<!-- Node8 -->
<g id="node9" class="node">
<title>Node8</title>
<polygon fill="#ffffff" stroke="#bfbfbf" points="136.3398,-.5 136.3398,-18.5 185.123,-18.5 185.123,-.5 136.3398,-.5"/>
<text text-anchor="middle" x="160.7314" y="-6.5" font-family="Helvetica,sans-Serif" font-size="10.00" fill="#000000">istream</text>
</g>
<!-- Node5&#45;&gt;Node8 -->
<g id="edge8" class="edge">
<title>Node5&#45;&gt;Node8</title>
<path fill="none" stroke="#191970" d="M1385.103,-64.3463C1211.4978,-63.422 452.4949,-57.3115 195.4807,-18.8732"/>
<polygon fill="#191970" stroke="#191970" points="195.8699,-15.3917 185.4512,-17.3152 194.7954,-22.3088 195.8699,-15.3917"/>
</g>
<!-- Node9 -->
<g id="node10" class="node">
<title>Node9</title>
<polygon fill="#ffffff" stroke="#bfbfbf" points="203.0615,-.5 203.0615,-18.5 252.4014,-18.5 252.4014,-.5 203.0615,-.5"/>
<text text-anchor="middle" x="227.7314" y="-6.5" font-family="Helvetica,sans-Serif" font-size="10.00" fill="#000000">fstream</text>
</g>
<!-- Node5&#45;&gt;Node9 -->
<g id="edge9" class="edge">
<title>Node5&#45;&gt;Node9</title>
<path fill="none" stroke="#191970" d="M1385.0947,-64.2579C1217.4648,-62.9449 505.7603,-55.3864 262.6355,-18.8996"/>
<polygon fill="#191970" stroke="#191970" points="262.8724,-15.3942 252.4521,-17.3094 261.7923,-22.3104 262.8724,-15.3942"/>
</g>
<!-- Node10 -->
<g id="node11" class="node">
<title>Node10</title>
<polygon fill="#ffffff" stroke="#bfbfbf" points="270.1157,-.5 270.1157,-18.5 313.3472,-18.5 313.3472,-.5 270.1157,-.5"/>
<text text-anchor="middle" x="291.7314" y="-6.5" font-family="Helvetica,sans-Serif" font-size="10.00" fill="#000000">vector</text>
</g>
<!-- Node5&#45;&gt;Node10 -->
<g id="edge10" class="edge">
<title>Node5&#45;&gt;Node10</title>
<path fill="none" stroke="#191970" d="M1385.0486,-64.2926C1222.8088,-63.158 553.1077,-56.3602 323.4659,-18.8298"/>
<polygon fill="#191970" stroke="#191970" points="323.9648,-15.3645 313.5191,-17.1356 322.7893,-22.2651 323.9648,-15.3645"/>
</g>
<!-- Node11 -->
<g id="node12" class="node">
<title>Node11</title>
<polygon fill="#ffffff" stroke="#bfbfbf" points="331.2217,-.5 331.2217,-18.5 382.2412,-18.5 382.2412,-.5 331.2217,-.5"/>
<text text-anchor="middle" x="356.7314" y="-6.5" font-family="Helvetica,sans-Serif" font-size="10.00" fill="#000000">iomanip</text>
</g>
<!-- Node5&#45;&gt;Node11 -->
<g id="edge11" class="edge">
<title>Node5&#45;&gt;Node11</title>
<path fill="none" stroke="#191970" d="M1385.0013,-63.9783C1229.3628,-61.5461 609.0978,-50.1553 392.5888,-18.7139"/>
<polygon fill="#191970" stroke="#191970" points="392.9984,-15.2362 382.5875,-17.2015 391.9517,-22.1575 392.9984,-15.2362"/>
</g>
<!-- Node12 -->
<g id="node13" class="node">
<title>Node12</title>
<polygon fill="#ffffff" stroke="#bfbfbf" points="400.271,-.5 400.271,-18.5 505.1919,-18.5 505.1919,-.5 400.271,-.5"/>
<text text-anchor="middle" x="452.7314" y="-6.5" font-family="Helvetica,sans-Serif" font-size="10.00" fill="#000000">Epetra_MpiComm.h</text>
</g>
<!-- Node5&#45;&gt;Node12 -->
<g id="edge12" class="edge">
<title>Node5&#45;&gt;Node12</title>
<path fill="none" stroke="#191970" d="M1385.1899,-64.0495C1264.5824,-62.2397 859.732,-53.8665 515.4273,-19.0738"/>
<polygon fill="#191970" stroke="#191970" points="515.5624,-15.5695 505.2588,-18.0367 514.852,-22.5334 515.5624,-15.5695"/>
</g>
<!-- Node13 -->
<g id="node14" class="node">
<title>Node13</title>
<polygon fill="#ffffff" stroke="#bfbfbf" points="522.9878,-.5 522.9878,-18.5 638.4751,-18.5 638.4751,-.5 522.9878,-.5"/>
<text text-anchor="middle" x="580.7314" y="-6.5" font-family="Helvetica,sans-Serif" font-size="10.00" fill="#000000">Epetra_FECrsGraph.h</text>
</g>
<!-- Node5&#45;&gt;Node13 -->
<g id="edge13" class="edge">
<title>Node5&#45;&gt;Node13</title>
<path fill="none" stroke="#191970" d="M1385.2072,-63.4468C1276.6164,-60.0075 939.3428,-47.6955 649.1051,-19.0566"/>
<polygon fill="#191970" stroke="#191970" points="649.0983,-15.5387 638.8008,-18.0309 648.4049,-22.5043 649.0983,-15.5387"/>
</g>
<!-- Node14 -->
<g id="node15" class="node">
<title>Node14</title>
<polygon fill="#ffffff" stroke="#bfbfbf" points="656.2734,-.5 656.2734,-18.5 771.1895,-18.5 771.1895,-.5 656.2734,-.5"/>
<text text-anchor="middle" x="713.7314" y="-6.5" font-family="Helvetica,sans-Serif" font-size="10.00" fill="#000000">Epetra_FECrsMatrix.h</text>
</g>
<!-- Node5&#45;&gt;Node14 -->
<g id="edge14" class="edge">
<title>Node5&#45;&gt;Node14</title>
<path fill="none" stroke="#191970" d="M1384.8605,-62.8626C1288.7842,-58.2835 1017.4597,-44.0825 781.4413,-19.1171"/>
<polygon fill="#191970" stroke="#191970" points="781.6084,-15.6152 771.2936,-18.0347 780.8659,-22.5757 781.6084,-15.6152"/>
</g>
<!-- Node15 -->
<g id="node16" class="node">
<title>Node15</title>
<polygon fill="#ffffff" stroke="#bfbfbf" points="788.7563,-.5 788.7563,-18.5 888.7065,-18.5 888.7065,-.5 788.7563,-.5"/>
<text text-anchor="middle" x="838.7314" y="-6.5" font-family="Helvetica,sans-Serif" font-size="10.00" fill="#000000">Epetra_FEVector.h</text>
</g>
<!-- Node5&#45;&gt;Node15 -->
<g id="edge15" class="edge">
<title>Node5&#45;&gt;Node15</title>
<path fill="none" stroke="#191970" d="M1385.1256,-62.3009C1301.931,-56.9703 1088.1343,-42.1599 899.0339,-19.0811"/>
<polygon fill="#191970" stroke="#191970" points="899.2608,-15.5827 888.908,-17.8343 898.4053,-22.5302 899.2608,-15.5827"/>
</g>
<!-- Node16 -->
<g id="node17" class="node">
<title>Node16</title>
<polygon fill="#ffffff" stroke="#bfbfbf" points="907.1455,-.5 907.1455,-18.5 994.3174,-18.5 994.3174,-.5 907.1455,-.5"/>
<text text-anchor="middle" x="950.7314" y="-6.5" font-family="Helvetica,sans-Serif" font-size="10.00" fill="#000000">Epetra_Vector.h</text>
</g>
<!-- Node5&#45;&gt;Node16 -->
<g id="edge16" class="edge">
<title>Node5&#45;&gt;Node16</title>
<path fill="none" stroke="#191970" d="M1385.2051,-61.4533C1314.7182,-55.2296 1151.9978,-39.9732 1004.507,-19.0195"/>
<polygon fill="#191970" stroke="#191970" points="1004.7611,-15.5203 994.3657,-17.5662 1003.7681,-22.4495 1004.7611,-15.5203"/>
</g>
<!-- Node17 -->
<g id="node18" class="node">
<title>Node17</title>
<polygon fill="#ffffff" stroke="#bfbfbf" points="1012.3228,-.5 1012.3228,-18.5 1091.1401,-18.5 1091.1401,-.5 1012.3228,-.5"/>
<text text-anchor="middle" x="1051.7314" y="-6.5" font-family="Helvetica,sans-Serif" font-size="10.00" fill="#000000">Epetra_Map.h</text>
</g>
<!-- Node5&#45;&gt;Node17 -->
<g id="edge17" class="edge">
<title>Node5&#45;&gt;Node17</title>
<path fill="none" stroke="#191970" d="M1385.007,-60.0835C1327.4292,-52.8248 1210.3182,-37.4818 1101.425,-19.2183"/>
<polygon fill="#191970" stroke="#191970" points="1101.696,-15.7145 1091.2526,-17.4994 1100.5297,-22.6167 1101.696,-15.7145"/>
</g>
<!-- Node18 -->
<g id="node19" class="node">
<title>Node18</title>
<polygon fill="#ffffff" stroke="#bfbfbf" points="1109.2021,-.5 1109.2021,-18.5 1250.2607,-18.5 1250.2607,-.5 1109.2021,-.5"/>
<text text-anchor="middle" x="1179.7314" y="-6.5" font-family="Helvetica,sans-Serif" font-size="10.00" fill="#000000">Epetra_SerialDenseMatrix.h</text>
</g>
<!-- Node5&#45;&gt;Node18 -->
<g id="edge18" class="edge">
<title>Node5&#45;&gt;Node18</title>
<path fill="none" stroke="#191970" d="M1385.1711,-56.3846C1343.9407,-46.9751 1275.7164,-31.4053 1229.2981,-20.8119"/>
<polygon fill="#191970" stroke="#191970" points="1229.9798,-17.3776 1219.4517,-18.5648 1228.4223,-24.2021 1229.9798,-17.3776"/>
</g>
<!-- Node19 -->
<g id="node20" class="node">
<title>Node19</title>
<polygon fill="#ffffff" stroke="#bfbfbf" points="1267.9092,-.5 1267.9092,-18.5 1409.5537,-18.5 1409.5537,-.5 1267.9092,-.5"/>
<text text-anchor="middle" x="1338.7314" y="-6.5" font-family="Helvetica,sans-Serif" font-size="10.00" fill="#000000">Epetra_SerialDenseVector.h</text>
</g>
<!-- Node5&#45;&gt;Node19 -->
<g id="edge19" class="edge">
<title>Node5&#45;&gt;Node19</title>
<path fill="none" stroke="#191970" d="M1407.1908,-55.4179C1394.6089,-46.9788 1375.6418,-34.257 1360.8604,-24.3426"/>
<polygon fill="#191970" stroke="#191970" points="1362.5467,-21.2593 1352.2922,-18.5956 1358.6475,-27.0727 1362.5467,-21.2593"/>
</g>
<!-- Node20 -->
<g id="node21" class="node">
<title>Node20</title>
<polygon fill="#ffffff" stroke="#bfbfbf" points="1427.3501,-.5 1427.3501,-18.5 1580.1128,-18.5 1580.1128,-.5 1427.3501,-.5"/>
<text text-anchor="middle" x="1503.7314" y="-6.5" font-family="Helvetica,sans-Serif" font-size="10.00" fill="#000000">Epetra_IntSerialDenseVector.h</text>
</g>
<!-- Node5&#45;&gt;Node20 -->
<g id="edge20" class="edge">
<title>Node5&#45;&gt;Node20</title>
<path fill="none" stroke="#191970" d="M1434.4372,-55.4179C1447.1726,-46.9788 1466.3709,-34.257 1481.3327,-24.3426"/>
<polygon fill="#191970" stroke="#191970" points="1483.6027,-27.037 1490.0053,-18.5956 1479.736,-21.2019 1483.6027,-27.037"/>
</g>
<!-- Node21 -->
<g id="node22" class="node">
<title>Node21</title>
<polygon fill="#ffffff" stroke="#bfbfbf" points="1597.8794,-.5 1597.8794,-18.5 1685.5835,-18.5 1685.5835,-.5 1597.8794,-.5"/>
<text text-anchor="middle" x="1641.7314" y="-6.5" font-family="Helvetica,sans-Serif" font-size="10.00" fill="#000000">Epetra_Import.h</text>
</g>
<!-- Node5&#45;&gt;Node21 -->
<g id="edge21" class="edge">
<title>Node5&#45;&gt;Node21</title>
<path fill="none" stroke="#191970" d="M1456.7308,-55.5409C1494.5837,-46.1205 1554.2692,-31.2666 1595.5632,-20.9898"/>
<polygon fill="#191970" stroke="#191970" points="1596.5212,-24.3582 1605.38,-18.5467 1594.8307,-17.5654 1596.5212,-24.3582"/>
</g>
<!-- Node22 -->
<g id="node23" class="node">
<title>Node22</title>
<polygon fill="#ffffff" stroke="#bfbfbf" points="1703.5986,-.5 1703.5986,-18.5 1791.8643,-18.5 1791.8643,-.5 1703.5986,-.5"/>
<text text-anchor="middle" x="1747.7314" y="-6.5" font-family="Helvetica,sans-Serif" font-size="10.00" fill="#000000">Epetra_Export.h</text>
</g>
<!-- Node5&#45;&gt;Node22 -->
<g id="edge22" class="edge">
<title>Node5&#45;&gt;Node22</title>
<path fill="none" stroke="#191970" d="M1456.6613,-58.684C1507.2031,-50.4699 1602.4373,-34.8721 1693.5514,-19.1878"/>
<polygon fill="#191970" stroke="#191970" points="1694.2329,-22.622 1703.4925,-17.4733 1693.0431,-15.7239 1694.2329,-22.622"/>
</g>
<!-- Node23 -->
<g id="node24" class="node">
<title>Node23</title>
<polygon fill="#ffffff" stroke="#bfbfbf" points="1810.1216,-.5 1810.1216,-18.5 1891.3413,-18.5 1891.3413,-.5 1810.1216,-.5"/>
<text text-anchor="middle" x="1850.7314" y="-6.5" font-family="Helvetica,sans-Serif" font-size="10.00" fill="#000000">Epetra_Time.h</text>
</g>
<!-- Node5&#45;&gt;Node23 -->
<g id="edge23" class="edge">
<title>Node5&#45;&gt;Node23</title>
<path fill="none" stroke="#191970" d="M1456.4679,-61.0471C1522.298,-54.5079 1667.3499,-39.2692 1800.1659,-18.9907"/>
<polygon fill="#191970" stroke="#191970" points="1800.7619,-22.4403 1810.1126,-17.4589 1799.6964,-15.5218 1800.7619,-22.4403"/>
</g>
<!-- Node24 -->
<g id="node25" class="node">
<title>Node24</title>
<polygon fill="#ffffff" stroke="#bfbfbf" points="1909.0273,-.5 1909.0273,-18.5 2058.4355,-18.5 2058.4355,-.5 1909.0273,-.5"/>
<text text-anchor="middle" x="1983.7314" y="-6.5" font-family="Helvetica,sans-Serif" font-size="10.00" fill="#000000">ml_MultiLevelPreconditioner.h</text>
</g>
<!-- Node5&#45;&gt;Node24 -->
<g id="edge24" class="edge">
<title>Node5&#45;&gt;Node24</title>
<path fill="none" stroke="#191970" d="M1456.2828,-61.3684C1534.3966,-54.4365 1727.117,-37.0542 1898.6714,-19.2015"/>
<polygon fill="#191970" stroke="#191970" points="1899.0548,-22.6806 1908.6374,-18.1614 1898.3281,-15.7184 1899.0548,-22.6806"/>
</g>
<!-- Node25 -->
<g id="node26" class="node">
<title>Node25</title>
<polygon fill="#ffffff" stroke="#bfbfbf" points="2076.6553,-.5 2076.6553,-18.5 2168.8076,-18.5 2168.8076,-.5 2076.6553,-.5"/>
<text text-anchor="middle" x="2122.7314" y="-6.5" font-family="Helvetica,sans-Serif" font-size="10.00" fill="#000000">ml_epetra_utils.h</text>
</g>
<!-- Node5&#45;&gt;Node25 -->
<g id="edge25" class="edge">
<title>Node5&#45;&gt;Node25</title>
<path fill="none" stroke="#191970" d="M1456.2693,-63.2603C1552.7097,-59.6283 1827.5643,-47.5 2066.3033,-19.0571"/>
<polygon fill="#191970" stroke="#191970" points="2067.0578,-22.4916 2076.5677,-17.8213 2066.2211,-15.5418 2067.0578,-22.4916"/>
</g>
<!-- Node26 -->
<g id="node27" class="node">
<title>Node26</title>
<polygon fill="#ffffff" stroke="#bfbfbf" points="2186.6602,-.5 2186.6602,-18.5 2258.8027,-18.5 2258.8027,-.5 2186.6602,-.5"/>
<text text-anchor="middle" x="2222.7314" y="-6.5" font-family="Helvetica,sans-Serif" font-size="10.00" fill="#000000">ml_include.h</text>
</g>
<!-- Node5&#45;&gt;Node26 -->
<g id="edge26" class="edge">
<title>Node5&#45;&gt;Node26</title>
<path fill="none" stroke="#191970" d="M1456.4171,-63.0578C1583.7678,-57.8039 2016.3651,-39.011 2176.3264,-18.9605"/>
<polygon fill="#191970" stroke="#191970" points="2176.9992,-22.4025 2186.4624,-17.6381 2176.0936,-15.4613 2176.9992,-22.4025"/>
</g>
<!-- Node27 -->
<g id="node28" class="node">
<title>Node27</title>
<polygon fill="#ffffff" stroke="#bfbfbf" points="2277.1528,-.5 2277.1528,-18.5 2414.3101,-18.5 2414.3101,-.5 2277.1528,-.5"/>
<text text-anchor="middle" x="2345.7314" y="-6.5" font-family="Helvetica,sans-Serif" font-size="10.00" fill="#000000">EpetraExt_RowMatrixOut.h</text>
</g>
<!-- Node5&#45;&gt;Node27 -->
<g id="edge27" class="edge">
<title>Node5&#45;&gt;Node27</title>
<path fill="none" stroke="#191970" d="M1456.6965,-62.8929C1594.1474,-56.7014 2087.0909,-34.0313 2266.7505,-19.0106"/>
<polygon fill="#191970" stroke="#191970" points="2267.1898,-22.4859 2276.8544,-18.1447 2266.592,-15.5115 2267.1898,-22.4859"/>
</g>
<!-- Node28 -->
<g id="node29" class="node">
<title>Node28</title>
<polygon fill="#ffffff" stroke="#bfbfbf" points="2432.0322,-.5 2432.0322,-18.5 2571.4307,-18.5 2571.4307,-.5 2432.0322,-.5"/>
<text text-anchor="middle" x="2501.7314" y="-6.5" font-family="Helvetica,sans-Serif" font-size="10.00" fill="#000000">EpetraExt_MultiVectorOut.h</text>
</g>
<!-- Node5&#45;&gt;Node28 -->
<g id="edge28" class="edge">
<title>Node5&#45;&gt;Node28</title>
<path fill="none" stroke="#191970" d="M1456.516,-62.9531C1622.7762,-55.7566 2315.8967,-25.6491 2421.8985,-18.9671"/>
<polygon fill="#191970" stroke="#191970" points="2422.287,-22.4485 2432.0173,-18.2566 2421.7966,-15.4657 2422.287,-22.4485"/>
</g>
<!-- Node29 -->
<g id="node30" class="node">
<title>Node29</title>
<polygon fill="#ffffff" stroke="#bfbfbf" points="2589.478,-.5 2589.478,-18.5 2699.9849,-18.5 2699.9849,-.5 2589.478,-.5"/>
<text text-anchor="middle" x="2644.7314" y="-6.5" font-family="Helvetica,sans-Serif" font-size="10.00" fill="#000000">EpetraExt_VectorIn.h</text>
</g>
<!-- Node5&#45;&gt;Node29 -->
<g id="edge29" class="edge">
<title>Node5&#45;&gt;Node29</title>
<path fill="none" stroke="#191970" d="M1456.5076,-62.9667C1501.2335,-61.0581 1580.1393,-57.7184 1647.7314,-55 2059.0309,-38.4585 2165.8333,-57.2151 2579.1415,-19.0504"/>
<polygon fill="#191970" stroke="#191970" points="2579.6399,-22.5192 2589.2732,-18.1091 2578.9923,-15.5492 2579.6399,-22.5192"/>
</g>
<!-- Node30 -->
<g id="node31" class="node">
<title>Node30</title>
<polygon fill="#ffffff" stroke="#bfbfbf" points="2717.9214,-.5 2717.9214,-18.5 2849.5415,-18.5 2849.5415,-.5 2717.9214,-.5"/>
<text text-anchor="middle" x="2783.7314" y="-6.5" font-family="Helvetica,sans-Serif" font-size="10.00" fill="#000000">EpetraExt_MultiVectorIn.h</text>
</g>
<!-- Node5&#45;&gt;Node30 -->
<g id="edge30" class="edge">
<title>Node5&#45;&gt;Node30</title>
<path fill="none" stroke="#191970" d="M1456.5056,-62.9153C1501.2294,-60.9544 1580.1331,-57.5613 1647.7314,-55 2115.8819,-37.2619 2236.7065,-56.4105 2707.786,-18.9936"/>
<polygon fill="#191970" stroke="#191970" points="2708.2273,-22.4696 2717.9169,-18.1845 2707.6699,-15.4918 2708.2273,-22.4696"/>
</g>
<!-- Node31 -->
<g id="node32" class="node">
<title>Node31</title>
<polygon fill="#ffffff" stroke="#bfbfbf" points="2945.6841,-.5 2945.6841,-18.5 3043.7788,-18.5 3043.7788,-.5 2945.6841,-.5"/>
<text text-anchor="middle" x="2994.7314" y="-6.5" font-family="Helvetica,sans-Serif" font-size="10.00" fill="#000000">Teuchos_RCP.hpp</text>
</g>
<!-- Node5&#45;&gt;Node31 -->
<g id="edge31" class="edge">
<title>Node5&#45;&gt;Node31</title>
<path fill="none" stroke="#191970" d="M1456.5032,-62.8491C1501.2246,-60.8206 1580.1257,-57.3586 1647.7314,-55 2217.1392,-35.1347 2364.4886,-72.9934 2935.292,-19.0024"/>
<polygon fill="#191970" stroke="#191970" points="2935.8055,-22.4694 2945.4291,-18.0381 2935.1426,-15.5009 2935.8055,-22.4694"/>
</g>
<!-- Node32 -->
<g id="node33" class="node">
<title>Node32</title>
<polygon fill="#ffffff" stroke="#bfbfbf" points="2867.5,-.5 2867.5,-18.5 2927.9629,-18.5 2927.9629,-.5 2867.5,-.5"/>
<text text-anchor="middle" x="2897.7314" y="-6.5" font-family="Helvetica,sans-Serif" font-size="10.00" fill="#000000">Amesos.h</text>
</g>
<!-- Node5&#45;&gt;Node32 -->
<g id="edge32" class="edge">
<title>Node5&#45;&gt;Node32</title>
<path fill="none" stroke="#191970" d="M1456.5039,-62.8689C1501.226,-60.8607 1580.1279,-57.4194 1647.7314,-55 1913.5048,-45.4886 2575.5044,-54.8228 2856.9324,-18.9309"/>
<polygon fill="#191970" stroke="#191970" points="2857.733,-22.3557 2867.1902,-17.5794 2856.8186,-15.4157 2857.733,-22.3557"/>
</g>
<!-- Node38 -->
<g id="node35" class="node">
<title>Node38</title>
<g id="a_node35"><a xlink:href="../../d9/dea/_linear___finite___element___problem_8hpp.html" target="_top" xlink:title="Linear_Finite_Element\l_Problem.hpp">
<polygon fill="#ffffff" stroke="#000000" points="1397.7021,-230.5 1397.7021,-258.5 1513.7607,-258.5 1513.7607,-230.5 1397.7021,-230.5"/>
<text text-anchor="start" x="1405.7021" y="-246.5" font-family="Helvetica,sans-Serif" font-size="10.00" fill="#000000">Linear_Finite_Element</text>
<text text-anchor="middle" x="1455.7314" y="-236.5" font-family="Helvetica,sans-Serif" font-size="10.00" fill="#000000">_Problem.hpp</text>
</a>
</g>
</g>
<!-- Node37&#45;&gt;Node38 -->
<g id="edge34" class="edge">
<title>Node37&#45;&gt;Node38</title>
<path fill="none" stroke="#191970" d="M1448.0984,-295.3873C1449.1559,-288.3369 1450.6718,-278.2311 1452.0744,-268.8806"/>
<polygon fill="#191970" stroke="#191970" points="1455.5571,-269.2562 1453.5793,-258.8477 1448.6345,-268.2178 1455.5571,-269.2562"/>
</g>
<!-- Node39 -->
<g id="node36" class="node">
<title>Node39</title>
<g id="a_node36"><a xlink:href="../../d0/d41/_base_class_f_e_m_8hpp.html" target="_top" xlink:title="BaseClassFEM.hpp">
<polygon fill="#ffffff" stroke="#000000" points="1429.5469,-110.5 1429.5469,-128.5 1533.916,-128.5 1533.916,-110.5 1429.5469,-110.5"/>
<text text-anchor="middle" x="1481.7314" y="-116.5" font-family="Helvetica,sans-Serif" font-size="10.00" fill="#000000">BaseClassFEM.hpp</text>
</a>
</g>
</g>
<!-- Node38&#45;&gt;Node39 -->
<g id="edge35" class="edge">
<title>Node38&#45;&gt;Node39</title>
<path fill="none" stroke="#191970" d="M1458.714,-230.1609C1463.4081,-207.5929 1472.5238,-163.7677 1477.765,-138.5696"/>
<polygon fill="#191970" stroke="#191970" points="1481.2005,-139.2392 1479.8104,-128.736 1474.3472,-137.8136 1481.2005,-139.2392"/>
</g>
<!-- Node39&#45;&gt;Node5 -->
<g id="edge36" class="edge">
<title>Node39&#45;&gt;Node5</title>
<path fill="none" stroke="#191970" d="M1471.6585,-110.4179C1462.7059,-102.3458 1449.4077,-90.3556 1438.6451,-80.6517"/>
<polygon fill="#191970" stroke="#191970" points="1440.7939,-77.8764 1431.0232,-73.7795 1436.1064,-83.0753 1440.7939,-77.8764"/>
</g>
<!-- Node41 -->
<g id="node38" class="node">
<title>Node41</title>
<g id="a_node38"><a xlink:href="../../d2/d34/hyperelasticity_8hpp.html" target="_top" xlink:title="hyperelasticity.hpp">
<polygon fill="#ffffff" stroke="#000000" points="1541.689,-235.5 1541.689,-253.5 1639.7739,-253.5 1639.7739,-235.5 1541.689,-235.5"/>
<text text-anchor="middle" x="1590.7314" y="-241.5" font-family="Helvetica,sans-Serif" font-size="10.00" fill="#000000">hyperelasticity.hpp</text>
</a>
</g>
</g>
<!-- Node40&#45;&gt;Node41 -->
<g id="edge38" class="edge">
<title>Node40&#45;&gt;Node41</title>
<path fill="none" stroke="#191970" d="M1599.2127,-295.3873C1597.8177,-287.0174 1595.705,-274.3414 1593.9373,-263.735"/>
<polygon fill="#191970" stroke="#191970" points="1597.361,-262.987 1592.2645,-253.6985 1590.4562,-264.1378 1597.361,-262.987"/>
</g>
<!-- Node42 -->
<g id="node39" class="node">
<title>Node42</title>
<g id="a_node39"><a xlink:href="../../d2/d8b/_finite___element___problem_8hpp.html" target="_top" xlink:title="Finite_Element_Problem.hpp">
<polygon fill="#ffffff" stroke="#000000" points="1489.2515,-170.5 1489.2515,-188.5 1634.2114,-188.5 1634.2114,-170.5 1489.2515,-170.5"/>
<text text-anchor="middle" x="1561.7314" y="-176.5" font-family="Helvetica,sans-Serif" font-size="10.00" fill="#000000">Finite_Element_Problem.hpp</text>
</a>
</g>
</g>
<!-- Node41&#45;&gt;Node42 -->
<g id="edge39" class="edge">
<title>Node41&#45;&gt;Node42</title>
<path fill="none" stroke="#191970" d="M1586.6991,-235.462C1582.4192,-225.8691 1575.534,-210.4368 1570.0769,-198.2053"/>
<polygon fill="#191970" stroke="#191970" points="1573.1881,-196.5884 1565.9173,-188.8821 1566.7955,-199.4405 1573.1881,-196.5884"/>
</g>
<!-- Node42&#45;&gt;Node5 -->
<g id="edge40" class="edge">
<title>Node42&#45;&gt;Node5</title>
<path fill="none" stroke="#191970" d="M1561.7523,-170.1318C1561.2798,-155.4614 1558.2567,-126.9913 1542.7314,-110 1523.0104,-88.4166 1492.0775,-77.0283 1466.2947,-71.0425"/>
<polygon fill="#191970" stroke="#191970" points="1466.846,-67.5817 1456.3377,-68.9332 1465.3953,-74.4297 1466.846,-67.5817"/>
</g>
<!-- Node42&#45;&gt;Node39 -->
<g id="edge41" class="edge">
<title>Node42&#45;&gt;Node39</title>
<path fill="none" stroke="#191970" d="M1549.5812,-170.3873C1536.9386,-160.9054 1516.9274,-145.897 1501.9073,-134.6319"/>
<polygon fill="#191970" stroke="#191970" points="1503.834,-131.7019 1493.7339,-128.5019 1499.6339,-137.3019 1503.834,-131.7019"/>
</g>
<!-- Node43&#45;&gt;Node31 -->
<g id="edge44" class="edge">
<title>Node43&#45;&gt;Node31</title>
<path fill="none" stroke="#191970" d="M2061.3733,-241.8824C1944.7386,-236.4093 1705.6275,-221.8882 1680.7314,-194 1672.148,-184.385 1672.1599,-174.6256 1680.7314,-165 1865.4093,42.3887 2639.9999,-55.5761 2935.1006,-19.0968"/>
<polygon fill="#191970" stroke="#191970" points="2935.9367,-22.517 2945.3943,-17.7417 2935.023,-15.5769 2935.9367,-22.517"/>
</g>
<!-- Node43&#45;&gt;Node42 -->
<g id="edge43" class="edge">
<title>Node43&#45;&gt;Node42</title>
<path fill="none" stroke="#191970" d="M2061.3114,-239.0377C1969.7795,-230.8701 1795.4127,-214.2478 1647.7314,-194 1639.4294,-192.8617 1630.6975,-191.538 1622.1098,-190.1621"/>
<polygon fill="#191970" stroke="#191970" points="1622.5626,-186.6897 1612.129,-188.5309 1621.4336,-193.5981 1622.5626,-186.6897"/>
</g>
<!-- Node44 -->
<g id="node41" class="node">
<title>Node44</title>
<polygon fill="#ffffff" stroke="#bfbfbf" points="1690.2217,-170.5 1690.2217,-188.5 1741.2412,-188.5 1741.2412,-170.5 1690.2217,-170.5"/>
<text text-anchor="middle" x="1715.7314" y="-176.5" font-family="Helvetica,sans-Serif" font-size="10.00" fill="#000000">Ifpack.h</text>
</g>
<!-- Node43&#45;&gt;Node44 -->
<g id="edge45" class="edge">
<title>Node43&#45;&gt;Node44</title>
<path fill="none" stroke="#191970" d="M2061.5476,-240.9592C1986.3863,-235.6098 1857.6384,-222.8392 1750.7314,-194 1748.7788,-193.4732 1746.7902,-192.8638 1744.8025,-192.1992"/>
<polygon fill="#191970" stroke="#191970" points="1745.6345,-188.7734 1735.0422,-188.5432 1743.179,-195.3286 1745.6345,-188.7734"/>
</g>
<!-- Node45 -->
<g id="node42" class="node">
<title>Node45</title>
<polygon fill="#ffffff" stroke="#bfbfbf" points="1759.4805,-170.5 1759.4805,-188.5 1889.9824,-188.5 1889.9824,-170.5 1759.4805,-170.5"/>
<text text-anchor="middle" x="1824.7314" y="-176.5" font-family="Helvetica,sans-Serif" font-size="10.00" fill="#000000">Ifpack_AdditiveSchwarz.h</text>
</g>
<!-- Node43&#45;&gt;Node45 -->
<g id="edge46" class="edge">
<title>Node43&#45;&gt;Node45</title>
<path fill="none" stroke="#191970" d="M2083.0177,-235.462C2028.9885,-223.7557 1934.8246,-203.3535 1876.349,-190.6838"/>
<polygon fill="#191970" stroke="#191970" points="1877.0878,-187.2627 1866.5734,-188.5658 1875.6054,-194.104 1877.0878,-187.2627"/>
</g>
<!-- Node46 -->
<g id="node43" class="node">
<title>Node46</title>
<polygon fill="#ffffff" stroke="#bfbfbf" points="1907.9756,-170.5 1907.9756,-188.5 2033.4873,-188.5 2033.4873,-170.5 1907.9756,-170.5"/>
<text text-anchor="middle" x="1970.7314" y="-176.5" font-family="Helvetica,sans-Serif" font-size="10.00" fill="#000000">BelosLinearProblem.hpp</text>
</g>
<!-- Node43&#45;&gt;Node46 -->
<g id="edge47" class="edge">
<title>Node43&#45;&gt;Node46</title>
<path fill="none" stroke="#191970" d="M2103.3184,-235.462C2076.9187,-224.3193 2031.8525,-205.2978 2001.6869,-192.5656"/>
<polygon fill="#191970" stroke="#191970" points="2003.0331,-189.3349 1992.4591,-188.6708 2000.311,-195.784 2003.0331,-189.3349"/>
</g>
<!-- Node47 -->
<g id="node44" class="node">
<title>Node47</title>
<polygon fill="#ffffff" stroke="#bfbfbf" points="2051.7021,-170.5 2051.7021,-188.5 2197.7607,-188.5 2197.7607,-170.5 2051.7021,-170.5"/>
<text text-anchor="middle" x="2124.7314" y="-176.5" font-family="Helvetica,sans-Serif" font-size="10.00" fill="#000000">BelosBlockGmresSolMgr.hpp</text>
</g>
<!-- Node43&#45;&gt;Node47 -->
<g id="edge48" class="edge">
<title>Node43&#45;&gt;Node47</title>
<path fill="none" stroke="#191970" d="M2124.7314,-235.462C2124.7314,-226.061 2124.7314,-211.0518 2124.7314,-198.943"/>
<polygon fill="#191970" stroke="#191970" points="2128.2315,-198.8821 2124.7314,-188.8821 2121.2315,-198.8822 2128.2315,-198.8821"/>
</g>
<!-- Node48 -->
<g id="node45" class="node">
<title>Node48</title>
<polygon fill="#ffffff" stroke="#bfbfbf" points="2215.5225,-170.5 2215.5225,-188.5 2339.9404,-188.5 2339.9404,-170.5 2215.5225,-170.5"/>
<text text-anchor="middle" x="2277.7314" y="-176.5" font-family="Helvetica,sans-Serif" font-size="10.00" fill="#000000">BelosEpetraAdapter.hpp</text>
</g>
<!-- Node43&#45;&gt;Node48 -->
<g id="edge49" class="edge">
<title>Node43&#45;&gt;Node48</title>
<path fill="none" stroke="#191970" d="M2146.0054,-235.462C2172.1202,-224.3675 2216.62,-205.4624 2246.5869,-192.7313"/>
<polygon fill="#191970" stroke="#191970" points="2248.3096,-195.8023 2256.1449,-188.6708 2245.5725,-189.3596 2248.3096,-195.8023"/>
</g>
<!-- Node49 -->
<g id="node46" class="node">
<title>Node49</title>
<polygon fill="#ffffff" stroke="#bfbfbf" points="2358.019,-170.5 2358.019,-188.5 2479.4438,-188.5 2479.4438,-170.5 2358.019,-170.5"/>
<text text-anchor="middle" x="2418.7314" y="-176.5" font-family="Helvetica,sans-Serif" font-size="10.00" fill="#000000">BelosSolverFactory.hpp</text>
</g>
<!-- Node43&#45;&gt;Node49 -->
<g id="edge50" class="edge">
<title>Node43&#45;&gt;Node49</title>
<path fill="none" stroke="#191970" d="M2165.6109,-235.462C2218.4501,-223.7799 2310.459,-203.4378 2367.7906,-190.7624"/>
<polygon fill="#191970" stroke="#191970" points="2368.7177,-194.1421 2377.7264,-188.5658 2367.2065,-187.3071 2368.7177,-194.1421"/>
</g>
<!-- Node50 -->
<g id="node47" class="node">
<title>Node50</title>
<polygon fill="#ffffff" stroke="#bfbfbf" points="2497.8501,-170.5 2497.8501,-188.5 2675.6128,-188.5 2675.6128,-170.5 2497.8501,-170.5"/>
<text text-anchor="middle" x="2586.7314" y="-176.5" font-family="Helvetica,sans-Serif" font-size="10.00" fill="#000000">Teuchos_StandardCatchMacros.hpp</text>
</g>
<!-- Node43&#45;&gt;Node50 -->
<g id="edge51" class="edge">
<title>Node43&#45;&gt;Node50</title>
<path fill="none" stroke="#191970" d="M2187.8838,-235.9147C2260.4975,-226.0023 2383.264,-209.1182 2488.7314,-194 2497.6709,-192.7186 2507.0661,-191.3528 2516.354,-189.9912"/>
<polygon fill="#191970" stroke="#191970" points="2516.979,-193.437 2526.3635,-188.5195 2515.9607,-186.5115 2516.979,-193.437"/>
</g>
<!-- Node51 -->
<g id="node48" class="node">
<title>Node51</title>
<polygon fill="#ffffff" stroke="#bfbfbf" points="2693.4731,-170.5 2693.4731,-188.5 2833.9897,-188.5 2833.9897,-170.5 2693.4731,-170.5"/>
<text text-anchor="middle" x="2763.7314" y="-176.5" font-family="Helvetica,sans-Serif" font-size="10.00" fill="#000000">Teuchos_ParameterList.hpp</text>
</g>
<!-- Node43&#45;&gt;Node51 -->
<g id="edge52" class="edge">
<title>Node43&#45;&gt;Node51</title>
<path fill="none" stroke="#191970" d="M2187.9306,-240.6945C2291.8809,-234.0109 2505.3178,-218.5024 2684.7314,-194 2692.4059,-192.9519 2700.4693,-191.676 2708.3915,-190.3204"/>
<polygon fill="#191970" stroke="#191970" points="2709.0703,-193.7548 2718.3109,-188.572 2707.8551,-186.8611 2709.0703,-193.7548"/>
</g>
<!-- Node52 -->
<g id="node49" class="node">
<title>Node52</title>
<polygon fill="#ffffff" stroke="#bfbfbf" points="2851.9238,-165.5 2851.9238,-193.5 2993.5391,-193.5 2993.5391,-165.5 2851.9238,-165.5"/>
<text text-anchor="start" x="2859.9238" y="-181.5" font-family="Helvetica,sans-Serif" font-size="10.00" fill="#000000">Teuchos_XMLParameterList</text>
<text text-anchor="middle" x="2922.7314" y="-171.5" font-family="Helvetica,sans-Serif" font-size="10.00" fill="#000000">CoreHelpers.hpp</text>
</g>
<!-- Node43&#45;&gt;Node52 -->
<g id="edge53" class="edge">
<title>Node43&#45;&gt;Node52</title>
<path fill="none" stroke="#191970" d="M2187.8639,-242.3751C2311.4313,-237.7124 2594.0173,-224.5714 2841.4259,-194.0693"/>
<polygon fill="#191970" stroke="#191970" points="2842.2025,-197.4997 2851.6933,-192.7908 2841.3375,-190.5533 2842.2025,-197.4997"/>
</g>
<!-- Node53 -->
<g id="node50" class="node">
<title>Node53</title>
<polygon fill="#ffffff" stroke="#bfbfbf" points="3011.4829,-165.5 3011.4829,-193.5 3141.98,-193.5 3141.98,-165.5 3011.4829,-165.5"/>
<text text-anchor="start" x="3019.4829" y="-181.5" font-family="Helvetica,sans-Serif" font-size="10.00" fill="#000000">Stratimikos_DefaultLinear</text>
<text text-anchor="middle" x="3076.7314" y="-171.5" font-family="Helvetica,sans-Serif" font-size="10.00" fill="#000000">SolverBuilder.hpp</text>
</g>
<!-- Node43&#45;&gt;Node53 -->
<g id="edge54" class="edge">
<title>Node43&#45;&gt;Node53</title>
<path fill="none" stroke="#191970" d="M2187.8132,-243.8104C2330.9142,-241.6121 2691.1604,-232.509 3001.3525,-194.0568"/>
<polygon fill="#191970" stroke="#191970" points="3001.9518,-197.5091 3011.4394,-192.7937 3001.082,-190.5634 3001.9518,-197.5091"/>
</g>
</g>
</svg>
