<?xml version="1.0" encoding="UTF-8" standalone="no"?>
<!DOCTYPE svg PUBLIC "-//W3C//DTD SVG 1.1//EN"
 "http://www.w3.org/Graphics/SVG/1.1/DTD/svg11.dtd">
<!-- Generated by graphviz version 2.40.1 (20161225.0304)
 -->
<!-- Title: arteries/vonmises/main.cpp Pages: 1 -->
<svg width="3330pt" height="322pt"
 viewBox="0.00 0.00 3330.42 322.00" xmlns="http://www.w3.org/2000/svg" xmlns:xlink="http://www.w3.org/1999/xlink">
<g id="graph0" class="graph" transform="scale(1 1) rotate(0) translate(4 318)">
<title>arteries/vonmises/main.cpp</title>
<polygon fill="#ffffff" stroke="transparent" points="-4,4 -4,-318 3326.4209,-318 3326.4209,4 -4,4"/>
<!-- Node0 -->
<g id="node1" class="node">
<title>Node0</title>
<polygon fill="#bfbfbf" stroke="#000000" points="1953.5347,-295.5 1953.5347,-313.5 2091.2485,-313.5 2091.2485,-295.5 1953.5347,-295.5"/>
<text text-anchor="middle" x="2022.3916" y="-301.5" font-family="Helvetica,sans-Serif" font-size="10.00" fill="#000000">arteries/vonmises/main.cpp</text>
</g>
<!-- Node1 -->
<g id="node2" class="node">
<title>Node1</title>
<polygon fill="#ffffff" stroke="#bfbfbf" points="1376.9756,-235.5 1376.9756,-253.5 1485.8076,-253.5 1485.8076,-235.5 1376.9756,-235.5"/>
<text text-anchor="middle" x="1431.3916" y="-241.5" font-family="Helvetica,sans-Serif" font-size="10.00" fill="#000000">Epetra_ConfigDefs.h</text>
</g>
<!-- Node0&#45;&gt;Node1 -->
<g id="edge1" class="edge">
<title>Node0&#45;&gt;Node1</title>
<path fill="none" stroke="#191970" d="M1953.3932,-301.554C1852.3715,-296.5605 1658.4969,-284.396 1495.3916,-259 1489.5502,-258.0905 1483.4474,-256.9539 1477.4291,-255.7197"/>
<polygon fill="#191970" stroke="#191970" points="1477.9538,-252.2527 1467.4416,-253.5734 1476.483,-259.0964 1477.9538,-252.2527"/>
</g>
<!-- Node2 -->
<g id="node3" class="node">
<title>Node2</title>
<polygon fill="#ffffff" stroke="#bfbfbf" points="1504.2046,-235.5 1504.2046,-253.5 1618.5786,-253.5 1618.5786,-235.5 1504.2046,-235.5"/>
<text text-anchor="middle" x="1561.3916" y="-241.5" font-family="Helvetica,sans-Serif" font-size="10.00" fill="#000000">Epetra_SerialComm.h</text>
</g>
<!-- Node0&#45;&gt;Node2 -->
<g id="edge2" class="edge">
<title>Node0&#45;&gt;Node2</title>
<path fill="none" stroke="#191970" d="M1953.2356,-298.6788C1874.1459,-291.5251 1740.9266,-277.9603 1627.3916,-259 1621.5354,-258.022 1615.4152,-256.864 1609.3643,-255.6354"/>
<polygon fill="#191970" stroke="#191970" points="1609.8115,-252.153 1599.3053,-253.5204 1608.3711,-259.0032 1609.8115,-252.153"/>
</g>
<!-- Node3 -->
<g id="node4" class="node">
<title>Node3</title>
<polygon fill="#ffffff" stroke="#bfbfbf" points="1636.5054,-235.5 1636.5054,-253.5 1824.2778,-253.5 1824.2778,-235.5 1636.5054,-235.5"/>
<text text-anchor="middle" x="1730.3916" y="-241.5" font-family="Helvetica,sans-Serif" font-size="10.00" fill="#000000">Teuchos_CommandLineProcessor.hpp</text>
</g>
<!-- Node0&#45;&gt;Node3 -->
<g id="edge3" class="edge">
<title>Node0&#45;&gt;Node3</title>
<path fill="none" stroke="#191970" d="M1978.3601,-295.4524C1926.4647,-284.789 1840.2389,-267.0714 1784.3673,-255.5909"/>
<polygon fill="#191970" stroke="#191970" points="1784.8031,-252.1074 1774.3032,-253.5229 1783.3941,-258.9641 1784.8031,-252.1074"/>
</g>
<!-- Node4 -->
<g id="node5" class="node">
<title>Node4</title>
<polygon fill="#ffffff" stroke="#bfbfbf" points="1794.5103,-170.5 1794.5103,-188.5 1972.2729,-188.5 1972.2729,-170.5 1794.5103,-170.5"/>
<text text-anchor="middle" x="1883.3916" y="-176.5" font-family="Helvetica,sans-Serif" font-size="10.00" fill="#000000">Teuchos_StandardCatchMacros.hpp</text>
</g>
<!-- Node0&#45;&gt;Node4 -->
<g id="edge4" class="edge">
<title>Node0&#45;&gt;Node4</title>
<path fill="none" stroke="#191970" d="M2022.5413,-295.0548C2022.283,-279.615 2019.5953,-248.8105 2003.3916,-230 1987.063,-211.0445 1962.4209,-199.0399 1939.707,-191.5191"/>
<polygon fill="#191970" stroke="#191970" points="1940.7077,-188.1651 1930.1204,-188.5632 1938.6451,-194.8544 1940.7077,-188.1651"/>
</g>
<!-- Node5 -->
<g id="node6" class="node">
<title>Node5</title>
<polygon fill="#ffffff" stroke="#bfbfbf" points="1990.1333,-170.5 1990.1333,-188.5 2130.6499,-188.5 2130.6499,-170.5 1990.1333,-170.5"/>
<text text-anchor="middle" x="2060.3916" y="-176.5" font-family="Helvetica,sans-Serif" font-size="10.00" fill="#000000">Teuchos_ParameterList.hpp</text>
</g>
<!-- Node0&#45;&gt;Node5 -->
<g id="edge5" class="edge">
<title>Node0&#45;&gt;Node5</title>
<path fill="none" stroke="#191970" d="M2025.1948,-295.4399C2028.0314,-286.2603 2032.5363,-271.6492 2036.3916,-259 2042.6756,-238.3825 2049.8049,-214.7331 2054.6493,-198.6243"/>
<polygon fill="#191970" stroke="#191970" points="2058.0735,-199.3909 2057.5995,-188.8067 2051.3696,-197.3764 2058.0735,-199.3909"/>
</g>
<!-- Node6 -->
<g id="node7" class="node">
<title>Node6</title>
<polygon fill="#ffffff" stroke="#bfbfbf" points="2148.584,-165.5 2148.584,-193.5 2290.1992,-193.5 2290.1992,-165.5 2148.584,-165.5"/>
<text text-anchor="start" x="2156.584" y="-181.5" font-family="Helvetica,sans-Serif" font-size="10.00" fill="#000000">Teuchos_XMLParameterList</text>
<text text-anchor="middle" x="2219.3916" y="-171.5" font-family="Helvetica,sans-Serif" font-size="10.00" fill="#000000">CoreHelpers.hpp</text>
</g>
<!-- Node0&#45;&gt;Node6 -->
<g id="edge6" class="edge">
<title>Node0&#45;&gt;Node6</title>
<path fill="none" stroke="#191970" d="M2036.8775,-295.3085C2068.7327,-275.0958 2145.46,-226.4109 2188.6032,-199.0358"/>
<polygon fill="#191970" stroke="#191970" points="2190.703,-201.8486 2197.2715,-193.5356 2186.9526,-195.938 2190.703,-201.8486"/>
</g>
<!-- Node7 -->
<g id="node8" class="node">
<title>Node7</title>
<g id="a_node8"><a xlink:href="../../dd/da4/_arteries___model_c__deterministic__neumann_8hpp.html" target="_top" xlink:title="Arteries_ModelC_deterministic\l_neumann.hpp">
<polygon fill="#ffffff" stroke="#000000" points="1842.3105,-230.5 1842.3105,-258.5 1994.4727,-258.5 1994.4727,-230.5 1842.3105,-230.5"/>
<text text-anchor="start" x="1850.3105" y="-246.5" font-family="Helvetica,sans-Serif" font-size="10.00" fill="#000000">Arteries_ModelC_deterministic</text>
<text text-anchor="middle" x="1918.3916" y="-236.5" font-family="Helvetica,sans-Serif" font-size="10.00" fill="#000000">_neumann.hpp</text>
</a>
</g>
</g>
<!-- Node0&#45;&gt;Node7 -->
<g id="edge7" class="edge">
<title>Node0&#45;&gt;Node7</title>
<path fill="none" stroke="#191970" d="M2006.5962,-295.3873C1992.0441,-286.9918 1969.9821,-274.2637 1951.5636,-263.6377"/>
<polygon fill="#191970" stroke="#191970" points="1953.2742,-260.5839 1942.8633,-258.6183 1949.7761,-266.6472 1953.2742,-260.5839"/>
</g>
<!-- Node45 -->
<g id="node42" class="node">
<title>Node45</title>
<g id="a_node42"><a xlink:href="../../d7/d17/_newton___raphsonpp_8hpp.html" target="_top" xlink:title="Newton_Raphsonpp.hpp">
<polygon fill="#ffffff" stroke="#000000" points="2448.3501,-235.5 2448.3501,-253.5 2574.4331,-253.5 2574.4331,-235.5 2448.3501,-235.5"/>
<text text-anchor="middle" x="2511.3916" y="-241.5" font-family="Helvetica,sans-Serif" font-size="10.00" fill="#000000">Newton_Raphsonpp.hpp</text>
</a>
</g>
</g>
<!-- Node0&#45;&gt;Node45 -->
<g id="edge42" class="edge">
<title>Node0&#45;&gt;Node45</title>
<path fill="none" stroke="#191970" d="M2091.4162,-296.0307C2183.1147,-284.7794 2344.4124,-264.9882 2438.1765,-253.4835"/>
<polygon fill="#191970" stroke="#191970" points="2438.6511,-256.9516 2448.1504,-252.2597 2437.7985,-250.0037 2438.6511,-256.9516"/>
</g>
<!-- Node53 -->
<g id="node50" class="node">
<title>Node53</title>
<polygon fill="#ffffff" stroke="#bfbfbf" points="2592.8057,-230.5 2592.8057,-258.5 2709.9775,-258.5 2709.9775,-230.5 2592.8057,-230.5"/>
<text text-anchor="start" x="2600.8057" y="-246.5" font-family="Helvetica,sans-Serif" font-size="10.00" fill="#000000">boost/math/special</text>
<text text-anchor="middle" x="2651.3916" y="-236.5" font-family="Helvetica,sans-Serif" font-size="10.00" fill="#000000">_functions/gamma.hpp</text>
</g>
<!-- Node0&#45;&gt;Node53 -->
<g id="edge56" class="edge">
<title>Node0&#45;&gt;Node53</title>
<path fill="none" stroke="#191970" d="M2091.3719,-301.7762C2195.6223,-297.0256 2399.6455,-285.2572 2582.4368,-259.007"/>
<polygon fill="#191970" stroke="#191970" points="2583.1115,-262.4458 2592.5039,-257.5433 2582.1043,-255.5186 2583.1115,-262.4458"/>
</g>
<!-- Node8 -->
<g id="node9" class="node">
<title>Node8</title>
<g id="a_node9"><a xlink:href="../../de/d49/tensor__calculus_8hpp.html" target="_top" xlink:title="tensor_calculus.hpp">
<polygon fill="#ffffff" stroke="#000000" points="1558.9189,-110.5 1558.9189,-128.5 1663.8643,-128.5 1663.8643,-110.5 1558.9189,-110.5"/>
<text text-anchor="middle" x="1611.3916" y="-116.5" font-family="Helvetica,sans-Serif" font-size="10.00" fill="#000000">tensor_calculus.hpp</text>
</a>
</g>
</g>
<!-- Node7&#45;&gt;Node8 -->
<g id="edge8" class="edge">
<title>Node7&#45;&gt;Node8</title>
<path fill="none" stroke="#191970" d="M1842.1188,-231.2827C1767.8736,-218.1811 1665.0938,-199.3191 1657.3916,-194 1637.7109,-180.4087 1624.8456,-155.3811 1617.8525,-138.1096"/>
<polygon fill="#191970" stroke="#191970" points="1621.0455,-136.6569 1614.2487,-128.5295 1614.4938,-139.1215 1621.0455,-136.6569"/>
</g>
<!-- Node41 -->
<g id="node39" class="node">
<title>Node41</title>
<g id="a_node39"><a xlink:href="../../de/d9d/hyperelasticity__setup__pp_8hpp.html" target="_top" xlink:title="hyperelasticity_setup\l_pp.hpp">
<polygon fill="#ffffff" stroke="#000000" points="1666.6997,-165.5 1666.6997,-193.5 1776.0835,-193.5 1776.0835,-165.5 1666.6997,-165.5"/>
<text text-anchor="start" x="1674.6997" y="-181.5" font-family="Helvetica,sans-Serif" font-size="10.00" fill="#000000">hyperelasticity_setup</text>
<text text-anchor="middle" x="1721.3916" y="-171.5" font-family="Helvetica,sans-Serif" font-size="10.00" fill="#000000">_pp.hpp</text>
</a>
</g>
</g>
<!-- Node7&#45;&gt;Node41 -->
<g id="edge38" class="edge">
<title>Node7&#45;&gt;Node41</title>
<path fill="none" stroke="#191970" d="M1875.6455,-230.396C1845.6999,-220.5154 1805.503,-207.2525 1773.6509,-196.7429"/>
<polygon fill="#191970" stroke="#191970" points="1774.6474,-193.3862 1764.0542,-193.5765 1772.454,-200.0337 1774.6474,-193.3862"/>
</g>
<!-- Node9 -->
<g id="node10" class="node">
<title>Node9</title>
<g id="a_node10"><a xlink:href="../../d0/d02/meshpp_8hpp.html" target="_top" xlink:title="meshpp.hpp">
<polygon fill="#ffffff" stroke="#ff0000" points="1575.8721,-55.5 1575.8721,-73.5 1646.9111,-73.5 1646.9111,-55.5 1575.8721,-55.5"/>
<text text-anchor="middle" x="1611.3916" y="-61.5" font-family="Helvetica,sans-Serif" font-size="10.00" fill="#000000">meshpp.hpp</text>
</a>
</g>
</g>
<!-- Node8&#45;&gt;Node9 -->
<g id="edge9" class="edge">
<title>Node8&#45;&gt;Node9</title>
<path fill="none" stroke="#191970" d="M1611.3916,-110.4179C1611.3916,-103.2164 1611.3916,-92.8962 1611.3916,-83.8632"/>
<polygon fill="#191970" stroke="#191970" points="1614.8917,-83.7794 1611.3916,-73.7795 1607.8917,-83.7795 1614.8917,-83.7794"/>
</g>
<!-- Node10 -->
<g id="node11" class="node">
<title>Node10</title>
<polygon fill="#ffffff" stroke="#bfbfbf" points="2892.6602,-.5 2892.6602,-18.5 2938.123,-18.5 2938.123,-.5 2892.6602,-.5"/>
<text text-anchor="middle" x="2915.3916" y="-6.5" font-family="Helvetica,sans-Serif" font-size="10.00" fill="#000000">stdio.h</text>
</g>
<!-- Node9&#45;&gt;Node10 -->
<g id="edge10" class="edge">
<title>Node9&#45;&gt;Node10</title>
<path fill="none" stroke="#191970" d="M1647.0045,-63.7634C1835.8832,-59.7863 2717.7218,-40.3178 2882.2909,-18.5597"/>
<polygon fill="#191970" stroke="#191970" points="2883.0995,-21.9784 2892.4817,-17.0564 2882.0779,-15.0533 2883.0995,-21.9784"/>
</g>
<!-- Node11 -->
<g id="node12" class="node">
<title>Node11</title>
<polygon fill="#ffffff" stroke="#bfbfbf" points="2956.2192,-.5 2956.2192,-18.5 3010.564,-18.5 3010.564,-.5 2956.2192,-.5"/>
<text text-anchor="middle" x="2983.3916" y="-6.5" font-family="Helvetica,sans-Serif" font-size="10.00" fill="#000000">iostream</text>
</g>
<!-- Node9&#45;&gt;Node11 -->
<g id="edge11" class="edge">
<title>Node9&#45;&gt;Node11</title>
<path fill="none" stroke="#191970" d="M1647.0562,-64.3649C1830.0143,-63.5097 2665.183,-57.6014 2945.8564,-18.8547"/>
<polygon fill="#191970" stroke="#191970" points="2946.6019,-22.2838 2956.0056,-17.4031 2945.6108,-15.3543 2946.6019,-22.2838"/>
</g>
<!-- Node12 -->
<g id="node13" class="node">
<title>Node12</title>
<polygon fill="#ffffff" stroke="#bfbfbf" points="0,-.5 0,-18.5 48.7832,-18.5 48.7832,-.5 0,-.5"/>
<text text-anchor="middle" x="24.3916" y="-6.5" font-family="Helvetica,sans-Serif" font-size="10.00" fill="#000000">istream</text>
</g>
<!-- Node9&#45;&gt;Node12 -->
<g id="edge12" class="edge">
<title>Node9&#45;&gt;Node12</title>
<path fill="none" stroke="#191970" d="M1575.6571,-63.9913C1361.7651,-60.8762 253.9403,-43.7355 59.1637,-18.7613"/>
<polygon fill="#191970" stroke="#191970" points="59.5001,-15.2741 49.1079,-17.3365 58.518,-22.2049 59.5001,-15.2741"/>
</g>
<!-- Node13 -->
<g id="node14" class="node">
<title>Node13</title>
<polygon fill="#ffffff" stroke="#bfbfbf" points="66.7217,-.5 66.7217,-18.5 116.0615,-18.5 116.0615,-.5 66.7217,-.5"/>
<text text-anchor="middle" x="91.3916" y="-6.5" font-family="Helvetica,sans-Serif" font-size="10.00" fill="#000000">fstream</text>
</g>
<!-- Node9&#45;&gt;Node13 -->
<g id="edge13" class="edge">
<title>Node9&#45;&gt;Node13</title>
<path fill="none" stroke="#191970" d="M1575.8339,-63.9437C1368.0629,-60.6236 314.0775,-42.8079 126.2864,-18.7764"/>
<polygon fill="#191970" stroke="#191970" points="126.5009,-15.2719 116.1085,-17.3329 125.5179,-22.2025 126.5009,-15.2719"/>
</g>
<!-- Node14 -->
<g id="node15" class="node">
<title>Node14</title>
<polygon fill="#ffffff" stroke="#bfbfbf" points="133.7759,-.5 133.7759,-18.5 177.0073,-18.5 177.0073,-.5 133.7759,-.5"/>
<text text-anchor="middle" x="155.3916" y="-6.5" font-family="Helvetica,sans-Serif" font-size="10.00" fill="#000000">vector</text>
</g>
<!-- Node9&#45;&gt;Node14 -->
<g id="edge14" class="edge">
<title>Node9&#45;&gt;Node14</title>
<path fill="none" stroke="#191970" d="M1575.6151,-63.9461C1372.5013,-60.7245 367.4092,-43.7346 187.1741,-18.7044"/>
<polygon fill="#191970" stroke="#191970" points="187.5919,-15.2275 177.1749,-17.1604 186.5236,-22.1455 187.5919,-15.2275"/>
</g>
<!-- Node15 -->
<g id="node16" class="node">
<title>Node15</title>
<polygon fill="#ffffff" stroke="#bfbfbf" points="194.8818,-.5 194.8818,-18.5 245.9014,-18.5 245.9014,-.5 194.8818,-.5"/>
<text text-anchor="middle" x="220.3916" y="-6.5" font-family="Helvetica,sans-Serif" font-size="10.00" fill="#000000">iomanip</text>
</g>
<!-- Node9&#45;&gt;Node15 -->
<g id="edge15" class="edge">
<title>Node9&#45;&gt;Node15</title>
<path fill="none" stroke="#191970" d="M1575.8049,-64.4195C1391.2632,-63.835 541.1843,-59.0541 256.1423,-18.6842"/>
<polygon fill="#191970" stroke="#191970" points="256.6448,-15.2205 246.2428,-17.233 255.6294,-22.1465 256.6448,-15.2205"/>
</g>
<!-- Node16 -->
<g id="node17" class="node">
<title>Node16</title>
<polygon fill="#ffffff" stroke="#bfbfbf" points="263.9312,-.5 263.9312,-18.5 368.8521,-18.5 368.8521,-.5 263.9312,-.5"/>
<text text-anchor="middle" x="316.3916" y="-6.5" font-family="Helvetica,sans-Serif" font-size="10.00" fill="#000000">Epetra_MpiComm.h</text>
</g>
<!-- Node9&#45;&gt;Node16 -->
<g id="edge16" class="edge">
<title>Node9&#45;&gt;Node16</title>
<path fill="none" stroke="#191970" d="M1575.6371,-63.7506C1401.4061,-60.0132 639.5303,-42.6596 379.082,-19.0316"/>
<polygon fill="#191970" stroke="#191970" points="379.1969,-15.5272 368.9145,-18.0813 378.5454,-22.4968 379.1969,-15.5272"/>
</g>
<!-- Node17 -->
<g id="node18" class="node">
<title>Node17</title>
<polygon fill="#ffffff" stroke="#bfbfbf" points="386.6479,-.5 386.6479,-18.5 502.1353,-18.5 502.1353,-.5 386.6479,-.5"/>
<text text-anchor="middle" x="444.3916" y="-6.5" font-family="Helvetica,sans-Serif" font-size="10.00" fill="#000000">Epetra_FECrsGraph.h</text>
</g>
<!-- Node9&#45;&gt;Node17 -->
<g id="edge17" class="edge">
<title>Node9&#45;&gt;Node17</title>
<path fill="none" stroke="#191970" d="M1575.6945,-64.3131C1439.1338,-63.3272 936.6544,-57.2189 512.4605,-19.002"/>
<polygon fill="#191970" stroke="#191970" points="512.7306,-15.5122 502.455,-18.0933 512.0973,-22.4835 512.7306,-15.5122"/>
</g>
<!-- Node18 -->
<g id="node19" class="node">
<title>Node18</title>
<polygon fill="#ffffff" stroke="#bfbfbf" points="519.9336,-.5 519.9336,-18.5 634.8496,-18.5 634.8496,-.5 519.9336,-.5"/>
<text text-anchor="middle" x="577.3916" y="-6.5" font-family="Helvetica,sans-Serif" font-size="10.00" fill="#000000">Epetra_FECrsMatrix.h</text>
</g>
<!-- Node9&#45;&gt;Node18 -->
<g id="edge18" class="edge">
<title>Node9&#45;&gt;Node18</title>
<path fill="none" stroke="#191970" d="M1575.7051,-64.0577C1449.7828,-62.2369 1014.3748,-53.7332 645.0291,-19.0705"/>
<polygon fill="#191970" stroke="#191970" points="645.2309,-15.5741 634.9455,-18.1161 644.5712,-22.5429 645.2309,-15.5741"/>
</g>
<!-- Node19 -->
<g id="node20" class="node">
<title>Node19</title>
<polygon fill="#ffffff" stroke="#bfbfbf" points="652.4165,-.5 652.4165,-18.5 752.3667,-18.5 752.3667,-.5 652.4165,-.5"/>
<text text-anchor="middle" x="702.3916" y="-6.5" font-family="Helvetica,sans-Serif" font-size="10.00" fill="#000000">Epetra_FEVector.h</text>
</g>
<!-- Node9&#45;&gt;Node19 -->
<g id="edge19" class="edge">
<title>Node9&#45;&gt;Node19</title>
<path fill="none" stroke="#191970" d="M1575.6539,-63.9439C1459.7463,-61.8537 1083.6688,-52.8246 762.5184,-19.0077"/>
<polygon fill="#191970" stroke="#191970" points="762.8689,-15.5253 752.5549,-17.9487 762.1289,-22.4861 762.8689,-15.5253"/>
</g>
<!-- Node20 -->
<g id="node21" class="node">
<title>Node20</title>
<polygon fill="#ffffff" stroke="#bfbfbf" points="770.8057,-.5 770.8057,-18.5 857.9775,-18.5 857.9775,-.5 770.8057,-.5"/>
<text text-anchor="middle" x="814.3916" y="-6.5" font-family="Helvetica,sans-Serif" font-size="10.00" fill="#000000">Epetra_Vector.h</text>
</g>
<!-- Node9&#45;&gt;Node20 -->
<g id="edge20" class="edge">
<title>Node9&#45;&gt;Node20</title>
<path fill="none" stroke="#191970" d="M1575.6383,-63.787C1469.4434,-61.3573 1146.5187,-51.7157 868.2977,-18.957"/>
<polygon fill="#191970" stroke="#191970" points="868.3476,-15.4383 858.004,-17.7319 867.5203,-22.3893 868.3476,-15.4383"/>
</g>
<!-- Node21 -->
<g id="node22" class="node">
<title>Node21</title>
<polygon fill="#ffffff" stroke="#bfbfbf" points="875.9829,-.5 875.9829,-18.5 954.8003,-18.5 954.8003,-.5 875.9829,-.5"/>
<text text-anchor="middle" x="915.3916" y="-6.5" font-family="Helvetica,sans-Serif" font-size="10.00" fill="#000000">Epetra_Map.h</text>
</g>
<!-- Node9&#45;&gt;Node21 -->
<g id="edge21" class="edge">
<title>Node9&#45;&gt;Node21</title>
<path fill="none" stroke="#191970" d="M1575.7604,-63.5651C1479.0748,-60.6956 1203.5757,-50.3103 965.1302,-19.0811"/>
<polygon fill="#191970" stroke="#191970" points="965.2522,-15.5667 954.879,-17.7225 964.3324,-22.5061 965.2522,-15.5667"/>
</g>
<!-- Node22 -->
<g id="node23" class="node">
<title>Node22</title>
<polygon fill="#ffffff" stroke="#bfbfbf" points="972.8623,-.5 972.8623,-18.5 1113.9209,-18.5 1113.9209,-.5 972.8623,-.5"/>
<text text-anchor="middle" x="1043.3916" y="-6.5" font-family="Helvetica,sans-Serif" font-size="10.00" fill="#000000">Epetra_SerialDenseMatrix.h</text>
</g>
<!-- Node9&#45;&gt;Node22 -->
<g id="edge22" class="edge">
<title>Node9&#45;&gt;Node22</title>
<path fill="none" stroke="#191970" d="M1575.7723,-61.5164C1496.5751,-54.8115 1299.6456,-37.7471 1124.208,-19.1717"/>
<polygon fill="#191970" stroke="#191970" points="1124.3301,-15.665 1114.0161,-18.0882 1123.5901,-22.6258 1124.3301,-15.665"/>
</g>
<!-- Node23 -->
<g id="node24" class="node">
<title>Node23</title>
<polygon fill="#ffffff" stroke="#bfbfbf" points="1131.5693,-.5 1131.5693,-18.5 1273.2139,-18.5 1273.2139,-.5 1131.5693,-.5"/>
<text text-anchor="middle" x="1202.3916" y="-6.5" font-family="Helvetica,sans-Serif" font-size="10.00" fill="#000000">Epetra_SerialDenseVector.h</text>
</g>
<!-- Node9&#45;&gt;Node23 -->
<g id="edge23" class="edge">
<title>Node9&#45;&gt;Node23</title>
<path fill="none" stroke="#191970" d="M1575.811,-59.7153C1510.0321,-50.8697 1368.0411,-31.7756 1279.3418,-19.8478"/>
<polygon fill="#191970" stroke="#191970" points="1279.7087,-16.3657 1269.3314,-18.5017 1278.7757,-23.3033 1279.7087,-16.3657"/>
</g>
<!-- Node24 -->
<g id="node25" class="node">
<title>Node24</title>
<polygon fill="#ffffff" stroke="#bfbfbf" points="1291.0103,-.5 1291.0103,-18.5 1443.7729,-18.5 1443.7729,-.5 1291.0103,-.5"/>
<text text-anchor="middle" x="1367.3916" y="-6.5" font-family="Helvetica,sans-Serif" font-size="10.00" fill="#000000">Epetra_IntSerialDenseVector.h</text>
</g>
<!-- Node9&#45;&gt;Node24 -->
<g id="edge24" class="edge">
<title>Node9&#45;&gt;Node24</title>
<path fill="none" stroke="#191970" d="M1575.6506,-56.4436C1533.9681,-47.048 1464.7814,-31.4526 1417.689,-20.8375"/>
<polygon fill="#191970" stroke="#191970" points="1418.2242,-17.3704 1407.6993,-18.5857 1416.6849,-24.1991 1418.2242,-17.3704"/>
</g>
<!-- Node25 -->
<g id="node26" class="node">
<title>Node25</title>
<polygon fill="#ffffff" stroke="#bfbfbf" points="1461.5396,-.5 1461.5396,-18.5 1549.2437,-18.5 1549.2437,-.5 1461.5396,-.5"/>
<text text-anchor="middle" x="1505.3916" y="-6.5" font-family="Helvetica,sans-Serif" font-size="10.00" fill="#000000">Epetra_Import.h</text>
</g>
<!-- Node9&#45;&gt;Node25 -->
<g id="edge25" class="edge">
<title>Node9&#45;&gt;Node25</title>
<path fill="none" stroke="#191970" d="M1593.8879,-55.4179C1577.0096,-46.6603 1551.2428,-33.2907 1531.858,-23.2326"/>
<polygon fill="#191970" stroke="#191970" points="1533.4096,-20.0946 1522.9213,-18.5956 1530.1857,-26.308 1533.4096,-20.0946"/>
</g>
<!-- Node26 -->
<g id="node27" class="node">
<title>Node26</title>
<polygon fill="#ffffff" stroke="#bfbfbf" points="1567.2588,-.5 1567.2588,-18.5 1655.5244,-18.5 1655.5244,-.5 1567.2588,-.5"/>
<text text-anchor="middle" x="1611.3916" y="-6.5" font-family="Helvetica,sans-Serif" font-size="10.00" fill="#000000">Epetra_Export.h</text>
</g>
<!-- Node9&#45;&gt;Node26 -->
<g id="edge26" class="edge">
<title>Node9&#45;&gt;Node26</title>
<path fill="none" stroke="#191970" d="M1611.3916,-55.4179C1611.3916,-48.2164 1611.3916,-37.8962 1611.3916,-28.8632"/>
<polygon fill="#191970" stroke="#191970" points="1614.8917,-28.7794 1611.3916,-18.7795 1607.8917,-28.7795 1614.8917,-28.7794"/>
</g>
<!-- Node27 -->
<g id="node28" class="node">
<title>Node27</title>
<polygon fill="#ffffff" stroke="#bfbfbf" points="1673.7817,-.5 1673.7817,-18.5 1755.0015,-18.5 1755.0015,-.5 1673.7817,-.5"/>
<text text-anchor="middle" x="1714.3916" y="-6.5" font-family="Helvetica,sans-Serif" font-size="10.00" fill="#000000">Epetra_Time.h</text>
</g>
<!-- Node9&#45;&gt;Node27 -->
<g id="edge27" class="edge">
<title>Node9&#45;&gt;Node27</title>
<path fill="none" stroke="#191970" d="M1628.4,-55.4179C1644.7259,-46.7001 1669.6106,-33.4122 1688.417,-23.3699"/>
<polygon fill="#191970" stroke="#191970" points="1690.1854,-26.3934 1697.358,-18.5956 1686.8882,-20.2186 1690.1854,-26.3934"/>
</g>
<!-- Node28 -->
<g id="node29" class="node">
<title>Node28</title>
<polygon fill="#ffffff" stroke="#bfbfbf" points="1772.6875,-.5 1772.6875,-18.5 1922.0957,-18.5 1922.0957,-.5 1772.6875,-.5"/>
<text text-anchor="middle" x="1847.3916" y="-6.5" font-family="Helvetica,sans-Serif" font-size="10.00" fill="#000000">ml_MultiLevelPreconditioner.h</text>
</g>
<!-- Node9&#45;&gt;Node28 -->
<g id="edge28" class="edge">
<title>Node9&#45;&gt;Node28</title>
<path fill="none" stroke="#191970" d="M1646.9787,-56.2064C1687.4418,-46.7764 1753.7279,-31.3284 1798.8985,-20.8014"/>
<polygon fill="#191970" stroke="#191970" points="1799.82,-24.1805 1808.7646,-18.502 1798.2312,-17.3632 1799.82,-24.1805"/>
</g>
<!-- Node29 -->
<g id="node30" class="node">
<title>Node29</title>
<polygon fill="#ffffff" stroke="#bfbfbf" points="1940.3154,-.5 1940.3154,-18.5 2032.4678,-18.5 2032.4678,-.5 1940.3154,-.5"/>
<text text-anchor="middle" x="1986.3916" y="-6.5" font-family="Helvetica,sans-Serif" font-size="10.00" fill="#000000">ml_epetra_utils.h</text>
</g>
<!-- Node9&#45;&gt;Node29 -->
<g id="edge29" class="edge">
<title>Node9&#45;&gt;Node29</title>
<path fill="none" stroke="#191970" d="M1646.9581,-59.7952C1704.2915,-52.1344 1820.9472,-36.2316 1930.005,-19.1822"/>
<polygon fill="#191970" stroke="#191970" points="1930.8586,-22.5911 1940.1946,-17.5822 1929.7727,-15.6758 1930.8586,-22.5911"/>
</g>
<!-- Node30 -->
<g id="node31" class="node">
<title>Node30</title>
<polygon fill="#ffffff" stroke="#bfbfbf" points="2050.3203,-.5 2050.3203,-18.5 2122.4629,-18.5 2122.4629,-.5 2050.3203,-.5"/>
<text text-anchor="middle" x="2086.3916" y="-6.5" font-family="Helvetica,sans-Serif" font-size="10.00" fill="#000000">ml_include.h</text>
</g>
<!-- Node9&#45;&gt;Node30 -->
<g id="edge30" class="edge">
<title>Node9&#45;&gt;Node30</title>
<path fill="none" stroke="#191970" d="M1646.9486,-61.9795C1719.1769,-56.5925 1888.396,-42.6149 2040.1334,-19.0605"/>
<polygon fill="#191970" stroke="#191970" points="2040.7656,-22.5042 2050.1016,-17.4951 2039.6796,-15.5889 2040.7656,-22.5042"/>
</g>
<!-- Node31 -->
<g id="node32" class="node">
<title>Node31</title>
<polygon fill="#ffffff" stroke="#bfbfbf" points="2140.813,-.5 2140.813,-18.5 2277.9702,-18.5 2277.9702,-.5 2140.813,-.5"/>
<text text-anchor="middle" x="2209.3916" y="-6.5" font-family="Helvetica,sans-Serif" font-size="10.00" fill="#000000">EpetraExt_RowMatrixOut.h</text>
</g>
<!-- Node9&#45;&gt;Node31 -->
<g id="edge31" class="edge">
<title>Node9&#45;&gt;Node31</title>
<path fill="none" stroke="#191970" d="M1647.0524,-61.799C1729.8798,-55.4356 1941.9233,-38.6282 2130.4085,-19.0712"/>
<polygon fill="#191970" stroke="#191970" points="2130.9193,-22.537 2140.5025,-18.0189 2130.1934,-15.5748 2130.9193,-22.537"/>
</g>
<!-- Node32 -->
<g id="node33" class="node">
<title>Node32</title>
<polygon fill="#ffffff" stroke="#bfbfbf" points="2295.6924,-.5 2295.6924,-18.5 2435.0908,-18.5 2435.0908,-.5 2295.6924,-.5"/>
<text text-anchor="middle" x="2365.3916" y="-6.5" font-family="Helvetica,sans-Serif" font-size="10.00" fill="#000000">EpetraExt_MultiVectorOut.h</text>
</g>
<!-- Node9&#45;&gt;Node32 -->
<g id="edge32" class="edge">
<title>Node9&#45;&gt;Node32</title>
<path fill="none" stroke="#191970" d="M1646.9938,-62.7826C1746.3357,-57.846 2035.183,-42.5084 2285.6531,-19.1224"/>
<polygon fill="#191970" stroke="#191970" points="2286.0421,-22.6014 2295.6707,-18.1808 2285.387,-15.6321 2286.0421,-22.6014"/>
</g>
<!-- Node33 -->
<g id="node34" class="node">
<title>Node33</title>
<polygon fill="#ffffff" stroke="#bfbfbf" points="2453.1382,-.5 2453.1382,-18.5 2563.645,-18.5 2563.645,-.5 2453.1382,-.5"/>
<text text-anchor="middle" x="2508.3916" y="-6.5" font-family="Helvetica,sans-Serif" font-size="10.00" fill="#000000">EpetraExt_VectorIn.h</text>
</g>
<!-- Node9&#45;&gt;Node33 -->
<g id="edge33" class="edge">
<title>Node9&#45;&gt;Node33</title>
<path fill="none" stroke="#191970" d="M1647.2069,-63.7313C1761.6249,-61.0245 2128.7438,-50.3989 2442.719,-19.082"/>
<polygon fill="#191970" stroke="#191970" points="2443.3289,-22.5384 2452.9281,-18.0545 2442.6278,-15.5736 2443.3289,-22.5384"/>
</g>
<!-- Node34 -->
<g id="node35" class="node">
<title>Node34</title>
<polygon fill="#ffffff" stroke="#bfbfbf" points="2581.5815,-.5 2581.5815,-18.5 2713.2017,-18.5 2713.2017,-.5 2581.5815,-.5"/>
<text text-anchor="middle" x="2647.3916" y="-6.5" font-family="Helvetica,sans-Serif" font-size="10.00" fill="#000000">EpetraExt_MultiVectorIn.h</text>
</g>
<!-- Node9&#45;&gt;Node34 -->
<g id="edge34" class="edge">
<title>Node9&#45;&gt;Node34</title>
<path fill="none" stroke="#191970" d="M1647.2379,-63.8198C1772.7539,-61.2236 2204.2426,-50.4922 2571.5446,-19.0008"/>
<polygon fill="#191970" stroke="#191970" points="2571.9112,-22.4823 2581.5728,-18.1345 2571.3087,-15.5083 2571.9112,-22.4823"/>
</g>
<!-- Node35 -->
<g id="node36" class="node">
<title>Node35</title>
<polygon fill="#ffffff" stroke="#bfbfbf" points="3028.3442,-.5 3028.3442,-18.5 3126.439,-18.5 3126.439,-.5 3028.3442,-.5"/>
<text text-anchor="middle" x="3077.3916" y="-6.5" font-family="Helvetica,sans-Serif" font-size="10.00" fill="#000000">Teuchos_RCP.hpp</text>
</g>
<!-- Node9&#45;&gt;Node35 -->
<g id="edge35" class="edge">
<title>Node9&#45;&gt;Node35</title>
<path fill="none" stroke="#191970" d="M1647.0162,-63.9777C1835.6589,-61.1172 2720.215,-46.501 3017.7532,-19.0068"/>
<polygon fill="#191970" stroke="#191970" points="3018.4644,-22.455 3028.0879,-18.0233 3017.8012,-15.4865 3018.4644,-22.455"/>
</g>
<!-- Node36 -->
<g id="node37" class="node">
<title>Node36</title>
<polygon fill="#ffffff" stroke="#bfbfbf" points="2731.1602,-.5 2731.1602,-18.5 2791.623,-18.5 2791.623,-.5 2731.1602,-.5"/>
<text text-anchor="middle" x="2761.3916" y="-6.5" font-family="Helvetica,sans-Serif" font-size="10.00" fill="#000000">Amesos.h</text>
</g>
<!-- Node9&#45;&gt;Node36 -->
<g id="edge36" class="edge">
<title>Node9&#45;&gt;Node36</title>
<path fill="none" stroke="#191970" d="M1647.1357,-63.9883C1810.4326,-61.5071 2487.2237,-49.6293 2720.7288,-18.9281"/>
<polygon fill="#191970" stroke="#191970" points="2721.4114,-22.3674 2730.8457,-17.5463 2720.4641,-15.4318 2721.4114,-22.3674"/>
</g>
<!-- Node37 -->
<g id="node38" class="node">
<title>Node37</title>
<polygon fill="#ffffff" stroke="#bfbfbf" points="2809.9385,-.5 2809.9385,-18.5 2874.8447,-18.5 2874.8447,-.5 2809.9385,-.5"/>
<text text-anchor="middle" x="2842.3916" y="-6.5" font-family="Helvetica,sans-Serif" font-size="10.00" fill="#000000">AztecOO.h</text>
</g>
<!-- Node9&#45;&gt;Node37 -->
<g id="edge37" class="edge">
<title>Node9&#45;&gt;Node37</title>
<path fill="none" stroke="#191970" d="M1647.0145,-64.0219C1817.1311,-61.6054 2548.5574,-49.6736 2799.3314,-18.8397"/>
<polygon fill="#191970" stroke="#191970" points="2800.0024,-22.2826 2809.4798,-17.5466 2799.1175,-15.3387 2800.0024,-22.2826"/>
</g>
<!-- Node42 -->
<g id="node40" class="node">
<title>Node42</title>
<g id="a_node40"><a xlink:href="../../d2/d8b/_finite___element___problem_8hpp.html" target="_top" xlink:title="Finite_Element_Problem.hpp">
<polygon fill="#ffffff" stroke="#000000" points="1778.9116,-110.5 1778.9116,-128.5 1923.8716,-128.5 1923.8716,-110.5 1778.9116,-110.5"/>
<text text-anchor="middle" x="1851.3916" y="-116.5" font-family="Helvetica,sans-Serif" font-size="10.00" fill="#000000">Finite_Element_Problem.hpp</text>
</a>
</g>
</g>
<!-- Node41&#45;&gt;Node42 -->
<g id="edge39" class="edge">
<title>Node41&#45;&gt;Node42</title>
<path fill="none" stroke="#191970" d="M1751.8708,-165.4327C1773.1209,-155.625 1801.3054,-142.6167 1822.2549,-132.9477"/>
<polygon fill="#191970" stroke="#191970" points="1823.9948,-135.9996 1831.6076,-128.6311 1821.0613,-129.6438 1823.9948,-135.9996"/>
</g>
<!-- Node43 -->
<g id="node41" class="node">
<title>Node43</title>
<g id="a_node41"><a xlink:href="../../d5/d3f/laplacepp_8hpp.html" target="_top" xlink:title="laplacepp.hpp">
<polygon fill="#ffffff" stroke="#ff0000" points="1682.2539,-110.5 1682.2539,-128.5 1760.5293,-128.5 1760.5293,-110.5 1682.2539,-110.5"/>
<text text-anchor="middle" x="1721.3916" y="-116.5" font-family="Helvetica,sans-Serif" font-size="10.00" fill="#000000">laplacepp.hpp</text>
</a>
</g>
</g>
<!-- Node41&#45;&gt;Node43 -->
<g id="edge41" class="edge">
<title>Node41&#45;&gt;Node43</title>
<path fill="none" stroke="#191970" d="M1721.3916,-165.2808C1721.3916,-157.3776 1721.3916,-147.4316 1721.3916,-138.8308"/>
<polygon fill="#191970" stroke="#191970" points="1724.8917,-138.5842 1721.3916,-128.5842 1717.8917,-138.5842 1724.8917,-138.5842"/>
</g>
<!-- Node42&#45;&gt;Node9 -->
<g id="edge40" class="edge">
<title>Node42&#45;&gt;Node9</title>
<path fill="none" stroke="#191970" d="M1812.0292,-110.4795C1769.4996,-100.7331 1701.8186,-85.2228 1657.0007,-74.9521"/>
<polygon fill="#191970" stroke="#191970" points="1657.7742,-71.5387 1647.245,-72.7164 1656.2105,-78.3618 1657.7742,-71.5387"/>
</g>
<!-- Node45&#45;&gt;Node4 -->
<g id="edge52" class="edge">
<title>Node45&#45;&gt;Node4</title>
<path fill="none" stroke="#191970" d="M2448.0495,-239.5341C2348.5279,-231.4909 2149.5334,-214.4356 1981.3916,-194 1971.5317,-192.8016 1961.1331,-191.4061 1950.9408,-189.9632"/>
<polygon fill="#191970" stroke="#191970" points="1951.2413,-186.4705 1940.8447,-188.5102 1950.2441,-193.3991 1951.2413,-186.4705"/>
</g>
<!-- Node45&#45;&gt;Node5 -->
<g id="edge53" class="edge">
<title>Node45&#45;&gt;Node5</title>
<path fill="none" stroke="#191970" d="M2448.0713,-236.8166C2373.9362,-227.6098 2247.519,-211.2528 2139.3916,-194 2132.2913,-192.8671 2124.8464,-191.6023 2117.4836,-190.3047"/>
<polygon fill="#191970" stroke="#191970" points="2117.9948,-186.8407 2107.5346,-188.5243 2116.7616,-193.7312 2117.9948,-186.8407"/>
</g>
<!-- Node45&#45;&gt;Node6 -->
<g id="edge54" class="edge">
<title>Node45&#45;&gt;Node6</title>
<path fill="none" stroke="#191970" d="M2470.7903,-235.462C2424.7411,-225.2114 2348.7387,-208.293 2292.3345,-195.7373"/>
<polygon fill="#191970" stroke="#191970" points="2292.919,-192.2818 2282.3974,-193.5253 2291.3979,-199.1146 2292.919,-192.2818"/>
</g>
<!-- Node45&#45;&gt;Node35 -->
<g id="edge45" class="edge">
<title>Node45&#45;&gt;Node35</title>
<path fill="none" stroke="#191970" d="M2555.1045,-235.4547C2620.5753,-221.8571 2737.4337,-197.3727 2746.3916,-194 2778.8001,-181.798 2981.7956,-64.8672 3052.8581,-23.7294"/>
<polygon fill="#191970" stroke="#191970" points="3054.7057,-26.7041 3061.6046,-18.6631 3051.1971,-20.6468 3054.7057,-26.7041"/>
</g>
<!-- Node45&#45;&gt;Node41 -->
<g id="edge43" class="edge">
<title>Node45&#45;&gt;Node41</title>
<path fill="none" stroke="#191970" d="M2447.919,-243.352C2322.9538,-240.3823 2036.2067,-230.0586 1786.1043,-193.9366"/>
<polygon fill="#191970" stroke="#191970" points="1786.5015,-190.4575 1776.1005,-192.475 1785.4895,-197.384 1786.5015,-190.4575"/>
</g>
<!-- Node45&#45;&gt;Node42 -->
<g id="edge44" class="edge">
<title>Node45&#45;&gt;Node42</title>
<path fill="none" stroke="#191970" d="M2553.2746,-235.4825C2615.8134,-221.9224 2726.6193,-197.488 2729.3916,-194 2737.4114,-183.9101 2738.2665,-174.3467 2729.3916,-165 2702.2637,-136.4299 2147.6493,-124.3464 1934.1547,-120.7413"/>
<polygon fill="#191970" stroke="#191970" points="1934.0007,-117.2383 1923.9437,-120.571 1933.8839,-124.2374 1934.0007,-117.2383"/>
</g>
<!-- Node46 -->
<g id="node43" class="node">
<title>Node46</title>
<polygon fill="#ffffff" stroke="#bfbfbf" points="2814.8818,-170.5 2814.8818,-188.5 2865.9014,-188.5 2865.9014,-170.5 2814.8818,-170.5"/>
<text text-anchor="middle" x="2840.3916" y="-176.5" font-family="Helvetica,sans-Serif" font-size="10.00" fill="#000000">Ifpack.h</text>
</g>
<!-- Node45&#45;&gt;Node46 -->
<g id="edge46" class="edge">
<title>Node45&#45;&gt;Node46</title>
<path fill="none" stroke="#191970" d="M2555.1318,-235.4414C2564.4479,-233.582 2574.2364,-231.6808 2583.3916,-230 2679.5472,-212.347 2705.8171,-218.7627 2800.3916,-194 2802.9819,-193.3218 2805.6407,-192.5449 2808.2966,-191.7109"/>
<polygon fill="#191970" stroke="#191970" points="2809.4176,-195.0266 2817.7749,-188.5146 2807.1808,-188.3936 2809.4176,-195.0266"/>
</g>
<!-- Node47 -->
<g id="node44" class="node">
<title>Node47</title>
<polygon fill="#ffffff" stroke="#bfbfbf" points="2884.1406,-170.5 2884.1406,-188.5 3014.6426,-188.5 3014.6426,-170.5 2884.1406,-170.5"/>
<text text-anchor="middle" x="2949.3916" y="-176.5" font-family="Helvetica,sans-Serif" font-size="10.00" fill="#000000">Ifpack_AdditiveSchwarz.h</text>
</g>
<!-- Node45&#45;&gt;Node47 -->
<g id="edge47" class="edge">
<title>Node45&#45;&gt;Node47</title>
<path fill="none" stroke="#191970" d="M2553.5536,-235.4505C2563.3245,-233.5088 2573.6999,-231.571 2583.3916,-230 2712.4672,-209.0772 2746.2617,-214.5848 2875.3916,-194 2882.08,-192.9338 2889.0872,-191.7064 2896.0112,-190.4264"/>
<polygon fill="#191970" stroke="#191970" points="2896.8749,-193.8251 2906.0494,-188.5262 2895.5729,-186.9473 2896.8749,-193.8251"/>
</g>
<!-- Node48 -->
<g id="node45" class="node">
<title>Node48</title>
<polygon fill="#ffffff" stroke="#bfbfbf" points="3032.6357,-170.5 3032.6357,-188.5 3158.1475,-188.5 3158.1475,-170.5 3032.6357,-170.5"/>
<text text-anchor="middle" x="3095.3916" y="-176.5" font-family="Helvetica,sans-Serif" font-size="10.00" fill="#000000">BelosLinearProblem.hpp</text>
</g>
<!-- Node45&#45;&gt;Node48 -->
<g id="edge48" class="edge">
<title>Node45&#45;&gt;Node48</title>
<path fill="none" stroke="#191970" d="M2551.9914,-235.4594C2562.2013,-233.4246 2573.1646,-231.4431 2583.3916,-230 2777.6759,-202.5847 2829.1073,-221.4153 3023.3916,-194 3030.2628,-193.0304 3037.4665,-191.8178 3044.5507,-190.5092"/>
<polygon fill="#191970" stroke="#191970" points="3045.6323,-193.8655 3054.7918,-188.5406 3044.3109,-186.9913 3045.6323,-193.8655"/>
</g>
<!-- Node49 -->
<g id="node46" class="node">
<title>Node49</title>
<polygon fill="#ffffff" stroke="#bfbfbf" points="3176.3623,-170.5 3176.3623,-188.5 3322.4209,-188.5 3322.4209,-170.5 3176.3623,-170.5"/>
<text text-anchor="middle" x="3249.3916" y="-176.5" font-family="Helvetica,sans-Serif" font-size="10.00" fill="#000000">BelosBlockGmresSolMgr.hpp</text>
</g>
<!-- Node45&#45;&gt;Node49 -->
<g id="edge49" class="edge">
<title>Node45&#45;&gt;Node49</title>
<path fill="none" stroke="#191970" d="M2551.2169,-235.466C2561.6401,-233.3806 2572.8978,-231.3735 2583.3916,-230 2841.2405,-196.2506 2909.1607,-224.6902 3167.3916,-194 3175.8526,-192.9944 3184.7641,-191.6833 3193.47,-190.2607"/>
<polygon fill="#191970" stroke="#191970" points="3194.282,-193.673 3203.5564,-188.551 3193.1121,-186.7715 3194.282,-193.673"/>
</g>
<!-- Node50 -->
<g id="node47" class="node">
<title>Node50</title>
<polygon fill="#ffffff" stroke="#bfbfbf" points="2308.1826,-170.5 2308.1826,-188.5 2432.6006,-188.5 2432.6006,-170.5 2308.1826,-170.5"/>
<text text-anchor="middle" x="2370.3916" y="-176.5" font-family="Helvetica,sans-Serif" font-size="10.00" fill="#000000">BelosEpetraAdapter.hpp</text>
</g>
<!-- Node45&#45;&gt;Node50 -->
<g id="edge50" class="edge">
<title>Node45&#45;&gt;Node50</title>
<path fill="none" stroke="#191970" d="M2491.7862,-235.462C2467.8242,-224.4158 2427.0663,-205.6266 2399.4544,-192.8977"/>
<polygon fill="#191970" stroke="#191970" points="2400.8319,-189.6788 2390.2851,-188.6708 2397.9013,-196.0358 2400.8319,-189.6788"/>
</g>
<!-- Node51 -->
<g id="node48" class="node">
<title>Node51</title>
<polygon fill="#ffffff" stroke="#bfbfbf" points="2450.6792,-170.5 2450.6792,-188.5 2572.104,-188.5 2572.104,-170.5 2450.6792,-170.5"/>
<text text-anchor="middle" x="2511.3916" y="-176.5" font-family="Helvetica,sans-Serif" font-size="10.00" fill="#000000">BelosSolverFactory.hpp</text>
</g>
<!-- Node45&#45;&gt;Node51 -->
<g id="edge51" class="edge">
<title>Node45&#45;&gt;Node51</title>
<path fill="none" stroke="#191970" d="M2511.3916,-235.462C2511.3916,-226.061 2511.3916,-211.0518 2511.3916,-198.943"/>
<polygon fill="#191970" stroke="#191970" points="2514.8917,-198.8821 2511.3916,-188.8821 2507.8917,-198.8822 2514.8917,-198.8821"/>
</g>
<!-- Node52 -->
<g id="node49" class="node">
<title>Node52</title>
<polygon fill="#ffffff" stroke="#bfbfbf" points="2590.1431,-165.5 2590.1431,-193.5 2720.6401,-193.5 2720.6401,-165.5 2590.1431,-165.5"/>
<text text-anchor="start" x="2598.1431" y="-181.5" font-family="Helvetica,sans-Serif" font-size="10.00" fill="#000000">Stratimikos_DefaultLinear</text>
<text text-anchor="middle" x="2655.3916" y="-171.5" font-family="Helvetica,sans-Serif" font-size="10.00" fill="#000000">SolverBuilder.hpp</text>
</g>
<!-- Node45&#45;&gt;Node52 -->
<g id="edge55" class="edge">
<title>Node45&#45;&gt;Node52</title>
<path fill="none" stroke="#191970" d="M2531.4142,-235.462C2552.9134,-225.7575 2587.6519,-210.077 2614.8949,-197.7797"/>
<polygon fill="#191970" stroke="#191970" points="2616.5101,-200.8908 2624.1846,-193.5865 2613.6301,-194.5107 2616.5101,-200.8908"/>
</g>
</g>
</svg>
