<?xml version="1.0" encoding="UTF-8" standalone="no"?>
<!DOCTYPE svg PUBLIC "-//W3C//DTD SVG 1.1//EN"
 "http://www.w3.org/Graphics/SVG/1.1/DTD/svg11.dtd">
<!-- Generated by graphviz version 2.40.1 (20161225.0304)
 -->
<!-- Title: src/readnrldata.hpp Pages: 1 -->
<svg width="629pt" height="218pt"
 viewBox="0.00 0.00 628.50 218.00" xmlns="http://www.w3.org/2000/svg" xmlns:xlink="http://www.w3.org/1999/xlink">
<g id="graph0" class="graph" transform="scale(1 1) rotate(0) translate(4 214)">
<title>src/readnrldata.hpp</title>
<polygon fill="#ffffff" stroke="transparent" points="-4,4 -4,-214 624.5,-214 624.5,4 -4,4"/>
<!-- Node10 -->
<g id="node1" class="node">
<title>Node10</title>
<polygon fill="#bfbfbf" stroke="#000000" points="153.5,-190.5 153.5,-209.5 253.5,-209.5 253.5,-190.5 153.5,-190.5"/>
<text text-anchor="middle" x="203.5" y="-197.5" font-family="Helvetica,sans-Serif" font-size="10.00" fill="#000000">src/readnrldata.hpp</text>
</g>
<!-- Node11 -->
<g id="node2" class="node">
<title>Node11</title>
<g id="a_node2"><a xlink:href="../../d6/d9c/nrl_2importdata_2main_8cpp.html" target="_top" xlink:title="nrl/importdata/main.cpp">
<polygon fill="#ffffff" stroke="#000000" points="0,-73 0,-92 119,-92 119,-73 0,-73"/>
<text text-anchor="middle" x="59.5" y="-80" font-family="Helvetica,sans-Serif" font-size="10.00" fill="#000000">nrl/importdata/main.cpp</text>
</a>
</g>
</g>
<!-- Node10&#45;&gt;Node11 -->
<g id="edge1" class="edge">
<title>Node10&#45;&gt;Node11</title>
<path fill="none" stroke="#191970" d="M178.1933,-184.9717C164.5283,-176.466 147.6155,-165.2937 133.5,-154 108.3915,-133.9108 82.0074,-106.7236 68.5547,-92.3517"/>
<polygon fill="#191970" stroke="#191970" points="176.7049,-188.1644 187.0605,-190.403 180.3611,-182.1951 176.7049,-188.1644"/>
</g>
<!-- Node12 -->
<g id="node3" class="node">
<title>Node12</title>
<g id="a_node3"><a xlink:href="../../d5/d75/distributenrldata_8hpp.html" target="_top" xlink:title="src/distributenrldata.hpp">
<polygon fill="#ffffff" stroke="#000000" points="143,-134.5 143,-153.5 264,-153.5 264,-134.5 143,-134.5"/>
<text text-anchor="middle" x="203.5" y="-141.5" font-family="Helvetica,sans-Serif" font-size="10.00" fill="#000000">src/distributenrldata.hpp</text>
</a>
</g>
</g>
<!-- Node10&#45;&gt;Node12 -->
<g id="edge2" class="edge">
<title>Node10&#45;&gt;Node12</title>
<path fill="none" stroke="#191970" d="M203.5,-180.1575C203.5,-171.155 203.5,-160.9199 203.5,-153.6427"/>
<polygon fill="#191970" stroke="#191970" points="200.0001,-180.2455 203.5,-190.2455 207.0001,-180.2456 200.0001,-180.2455"/>
</g>
<!-- Node19 -->
<g id="node10" class="node">
<title>Node19</title>
<g id="a_node10"><a xlink:href="../../de/d89/readnrldata_8cpp.html" target="_top" xlink:title="src/readnrldata.cpp">
<polygon fill="#ffffff" stroke="#000000" points="282.5,-134.5 282.5,-153.5 382.5,-153.5 382.5,-134.5 282.5,-134.5"/>
<text text-anchor="middle" x="332.5" y="-141.5" font-family="Helvetica,sans-Serif" font-size="10.00" fill="#000000">src/readnrldata.cpp</text>
</a>
</g>
</g>
<!-- Node10&#45;&gt;Node19 -->
<g id="edge10" class="edge">
<title>Node10&#45;&gt;Node19</title>
<path fill="none" stroke="#191970" d="M234.8671,-186.3833C258.3284,-176.1985 289.8185,-162.5284 310.6135,-153.5011"/>
<polygon fill="#191970" stroke="#191970" points="233.4551,-183.1806 225.6759,-190.3733 236.2426,-189.6017 233.4551,-183.1806"/>
</g>
<!-- Node12&#45;&gt;Node11 -->
<g id="edge3" class="edge">
<title>Node12&#45;&gt;Node11</title>
<path fill="none" stroke="#191970" d="M171.5222,-130.3428C144.2936,-118.7139 105.873,-102.3051 81.842,-92.0419"/>
<polygon fill="#191970" stroke="#191970" points="170.4289,-133.6817 181,-134.3906 173.1783,-127.2442 170.4289,-133.6817"/>
</g>
<!-- Node13 -->
<g id="node4" class="node">
<title>Node13</title>
<g id="a_node4"><a xlink:href="../../da/dcd/nrl_2manufactured__solution_2manufactured_solution_8hpp.html" target="_top" xlink:title="nrl/manufactured_solution\l/manufacturedSolution.hpp">
<polygon fill="#ffffff" stroke="#000000" points="137,-67.5 137,-97.5 270,-97.5 270,-67.5 137,-67.5"/>
<text text-anchor="start" x="145" y="-85.5" font-family="Helvetica,sans-Serif" font-size="10.00" fill="#000000">nrl/manufactured_solution</text>
<text text-anchor="middle" x="203.5" y="-74.5" font-family="Helvetica,sans-Serif" font-size="10.00" fill="#000000">/manufacturedSolution.hpp</text>
</a>
</g>
</g>
<!-- Node12&#45;&gt;Node13 -->
<g id="edge4" class="edge">
<title>Node12&#45;&gt;Node13</title>
<path fill="none" stroke="#191970" d="M203.5,-124.3693C203.5,-115.681 203.5,-105.6241 203.5,-97.5446"/>
<polygon fill="#191970" stroke="#191970" points="200.0001,-124.3906 203.5,-134.3906 207.0001,-124.3907 200.0001,-124.3906"/>
</g>
<!-- Node15 -->
<g id="node6" class="node">
<title>Node15</title>
<g id="a_node6"><a xlink:href="../../d0/da3/distributenrldata_8cpp.html" target="_top" xlink:title="src/distributenrldata.cpp">
<polygon fill="#ffffff" stroke="#000000" points="288,-73 288,-92 409,-92 409,-73 288,-73"/>
<text text-anchor="middle" x="348.5" y="-80" font-family="Helvetica,sans-Serif" font-size="10.00" fill="#000000">src/distributenrldata.cpp</text>
</a>
</g>
</g>
<!-- Node12&#45;&gt;Node15 -->
<g id="edge6" class="edge">
<title>Node12&#45;&gt;Node15</title>
<path fill="none" stroke="#191970" d="M235.6999,-130.3428C263.1176,-118.7139 301.805,-102.3051 326.0028,-92.0419"/>
<polygon fill="#191970" stroke="#191970" points="233.9958,-127.2637 226.1563,-134.3906 236.7291,-133.708 233.9958,-127.2637"/>
</g>
<!-- Node16 -->
<g id="node7" class="node">
<title>Node16</title>
<g id="a_node7"><a xlink:href="../../d6/d6e/nrl___p_c_a___likelihood_8hpp.html" target="_top" xlink:title="src/nrl_PCA_Likelihood.hpp">
<polygon fill="#ffffff" stroke="#000000" points="427,-73 427,-92 564,-92 564,-73 427,-73"/>
<text text-anchor="middle" x="495.5" y="-80" font-family="Helvetica,sans-Serif" font-size="10.00" fill="#000000">src/nrl_PCA_Likelihood.hpp</text>
</a>
</g>
</g>
<!-- Node12&#45;&gt;Node16 -->
<g id="edge7" class="edge">
<title>Node12&#45;&gt;Node16</title>
<path fill="none" stroke="#191970" d="M258.7998,-132.3529C314.2054,-120.6836 398.4693,-102.9363 450.0891,-92.0643"/>
<polygon fill="#191970" stroke="#191970" points="257.8686,-128.9722 248.8046,-134.4581 259.3113,-135.8219 257.8686,-128.9722"/>
</g>
<!-- Node14 -->
<g id="node5" class="node">
<title>Node14</title>
<g id="a_node5"><a xlink:href="../../d4/db6/nrl_2manufactured__solution_2main_8cpp.html" target="_top" xlink:title="nrl/manufactured_solution\l/main.cpp">
<polygon fill="#ffffff" stroke="#000000" points="139.5,-.5 139.5,-30.5 267.5,-30.5 267.5,-.5 139.5,-.5"/>
<text text-anchor="start" x="147.5" y="-18.5" font-family="Helvetica,sans-Serif" font-size="10.00" fill="#000000">nrl/manufactured_solution</text>
<text text-anchor="middle" x="203.5" y="-7.5" font-family="Helvetica,sans-Serif" font-size="10.00" fill="#000000">/main.cpp</text>
</a>
</g>
</g>
<!-- Node13&#45;&gt;Node14 -->
<g id="edge5" class="edge">
<title>Node13&#45;&gt;Node14</title>
<path fill="none" stroke="#191970" d="M203.5,-57.0249C203.5,-48.128 203.5,-38.4287 203.5,-30.6432"/>
<polygon fill="#191970" stroke="#191970" points="200.0001,-57.2966 203.5,-67.2967 207.0001,-57.2967 200.0001,-57.2966"/>
</g>
<!-- Node17 -->
<g id="node8" class="node">
<title>Node17</title>
<g id="a_node8"><a xlink:href="../../d5/daf/nrl_2random__generator__for__pca__likelihood_2main_8cpp.html" target="_top" xlink:title="nrl/random_generator\l_for_pca_likelihood/main.cpp">
<polygon fill="#ffffff" stroke="#000000" points="355,-.5 355,-30.5 498,-30.5 498,-.5 355,-.5"/>
<text text-anchor="start" x="363" y="-18.5" font-family="Helvetica,sans-Serif" font-size="10.00" fill="#000000">nrl/random_generator</text>
<text text-anchor="middle" x="426.5" y="-7.5" font-family="Helvetica,sans-Serif" font-size="10.00" fill="#000000">_for_pca_likelihood/main.cpp</text>
</a>
</g>
</g>
<!-- Node16&#45;&gt;Node17 -->
<g id="edge8" class="edge">
<title>Node16&#45;&gt;Node17</title>
<path fill="none" stroke="#191970" d="M478.1731,-65.6753C467.0442,-54.8691 452.7152,-40.9553 441.9702,-30.5218"/>
<polygon fill="#191970" stroke="#191970" points="476.0015,-68.4452 485.614,-72.9005 480.8779,-63.4232 476.0015,-68.4452"/>
</g>
<!-- Node18 -->
<g id="node9" class="node">
<title>Node18</title>
<g id="a_node9"><a xlink:href="../../db/d7d/nrl_2testing__solutions_2main_8cpp.html" target="_top" xlink:title="nrl/testing_solutions\l/main.cpp">
<polygon fill="#ffffff" stroke="#000000" points="516.5,-.5 516.5,-30.5 620.5,-30.5 620.5,-.5 516.5,-.5"/>
<text text-anchor="start" x="524.5" y="-18.5" font-family="Helvetica,sans-Serif" font-size="10.00" fill="#000000">nrl/testing_solutions</text>
<text text-anchor="middle" x="568.5" y="-7.5" font-family="Helvetica,sans-Serif" font-size="10.00" fill="#000000">/main.cpp</text>
</a>
</g>
</g>
<!-- Node16&#45;&gt;Node18 -->
<g id="edge9" class="edge">
<title>Node16&#45;&gt;Node18</title>
<path fill="none" stroke="#191970" d="M513.4894,-65.9892C525.3106,-55.1395 540.6547,-41.0566 552.133,-30.5218"/>
<polygon fill="#191970" stroke="#191970" points="510.9599,-63.5601 505.9591,-72.9005 515.6931,-68.7173 510.9599,-63.5601"/>
</g>
</g>
</svg>
