<?xml version="1.0" encoding="UTF-8" standalone="no"?>
<!DOCTYPE svg PUBLIC "-//W3C//DTD SVG 1.1//EN"
 "http://www.w3.org/Graphics/SVG/1.1/DTD/svg11.dtd">
<!-- Generated by graphviz version 2.40.1 (20161225.0304)
 -->
<!-- Title: src/readnrldata.hpp Pages: 1 -->
<!--zoomable 218 -->
<svg id="main" version="1.1" xmlns="http://www.w3.org/2000/svg" xmlns:xlink="http://www.w3.org/1999/xlink" xml:space="preserve" onload="init(evt)">
<style type="text/css"><![CDATA[
.edge:hover path { stroke: red; }
.edge:hover polygon { stroke: red; fill: red; }
]]></style>
<script type="text/javascript"><![CDATA[
var edges = document.getElementsByTagName('g');
if (edges && edges.length) {
  for (var i=0;i<edges.length;i++) {
    if (edges[i].id.substr(0,4)=='edge') {
      edges[i].setAttribute('class','edge');
    }
  }
}
]]></script>
        <defs>
                <circle id="rim" cx="0" cy="0" r="7"/>
                <circle id="rim2" cx="0" cy="0" r="3.5"/>
                <g id="zoomPlus">
                        <use xlink:href="#rim" fill="#404040">
                                <set attributeName="fill" to="#808080" begin="zoomplus.mouseover" end="zoomplus.mouseout"/>
                        </use>
                        <path d="M-4,0h8M0,-4v8" fill="none" stroke="white" stroke-width="1.5" pointer-events="none"/>
                </g>
                <g id="zoomMin">
                        <use xlink:href="#rim" fill="#404040">
                                <set attributeName="fill" to="#808080" begin="zoomminus.mouseover" end="zoomminus.mouseout"/>
                        </use>
                        <path d="M-4,0h8" fill="none" stroke="white" stroke-width="1.5" pointer-events="none"/>
                </g>
                <g id="dirArrow">
                        <path fill="none" stroke="white" stroke-width="1.5" d="M0,-3.0v7 M-2.5,-0.5L0,-3.0L2.5,-0.5"/>
                </g>
               <g id="resetDef">
                       <use xlink:href="#rim2" fill="#404040">
                               <set attributeName="fill" to="#808080" begin="reset.mouseover" end="reset.mouseout"/>
                       </use>
               </g>
        </defs>

<script type="text/javascript">
var viewWidth = 633;
var viewHeight = 218;
var sectionId = 'dynsection-1';
</script>
<script xlink:href="../../svgpan.js"/>
<svg id="graph" class="graph">
<g id="viewport">
<title>src/readnrldata.hpp</title>
<polygon fill="#ffffff" stroke="transparent" points="-4,4 -4,-214 628.5,-214 628.5,4 -4,4"/>
<!-- Node10 -->
<g id="node1" class="node">
<title>Node10</title>
<polygon fill="#bfbfbf" stroke="#000000" points="153.5,-190.5 153.5,-209.5 253.5,-209.5 253.5,-190.5 153.5,-190.5"/>
<text text-anchor="middle" x="203.5" y="-197.5" font-family="Helvetica,sans-Serif" font-size="10.00" fill="#000000">src/readnrldata.hpp</text>
</g>
<!-- Node11 -->
<g id="node2" class="node">
<title>Node11</title>
<g id="a_node2"><a xlink:href="../../d6/d9c/nrl_2importdata_2main_8cpp.html" target="_top" xlink:title="nrl/importdata/main.cpp">
<polygon fill="#ffffff" stroke="#000000" points="0,-73 0,-92 119,-92 119,-73 0,-73"/>
<text text-anchor="middle" x="59.5" y="-80" font-family="Helvetica,sans-Serif" font-size="10.00" fill="#000000">nrl/importdata/main.cpp</text>
</a>
</g>
</g>
<!-- Node10&#45;&gt;Node11 -->
<g id="edge1" class="edge">
<title>Node10&#45;&gt;Node11</title>
<path fill="none" stroke="#191970" d="M178.1933,-184.9717C164.5283,-176.466 147.6155,-165.2937 133.5,-154 108.3915,-133.9108 82.0074,-106.7236 68.5547,-92.3517"/>
<polygon fill="#191970" stroke="#191970" points="176.7049,-188.1644 187.0605,-190.403 180.3611,-182.1951 176.7049,-188.1644"/>
</g>
<!-- Node12 -->
<g id="node3" class="node">
<title>Node12</title>
<g id="a_node3"><a xlink:href="../../d5/d75/distributenrldata_8hpp.html" target="_top" xlink:title="src/distributenrldata.hpp">
<polygon fill="#ffffff" stroke="#000000" points="143,-134.5 143,-153.5 264,-153.5 264,-134.5 143,-134.5"/>
<text text-anchor="middle" x="203.5" y="-141.5" font-family="Helvetica,sans-Serif" font-size="10.00" fill="#000000">src/distributenrldata.hpp</text>
</a>
</g>
</g>
<!-- Node10&#45;&gt;Node12 -->
<g id="edge2" class="edge">
<title>Node10&#45;&gt;Node12</title>
<path fill="none" stroke="#191970" d="M203.5,-180.1575C203.5,-171.155 203.5,-160.9199 203.5,-153.6427"/>
<polygon fill="#191970" stroke="#191970" points="200.0001,-180.2455 203.5,-190.2455 207.0001,-180.2456 200.0001,-180.2455"/>
</g>
<!-- Node19 -->
<g id="node10" class="node">
<title>Node19</title>
<g id="a_node10"><a xlink:href="../../de/d89/readnrldata_8cpp.html" target="_top" xlink:title="src/readnrldata.cpp">
<polygon fill="#ffffff" stroke="#000000" points="282.5,-134.5 282.5,-153.5 382.5,-153.5 382.5,-134.5 282.5,-134.5"/>
<text text-anchor="middle" x="332.5" y="-141.5" font-family="Helvetica,sans-Serif" font-size="10.00" fill="#000000">src/readnrldata.cpp</text>
</a>
</g>
</g>
<!-- Node10&#45;&gt;Node19 -->
<g id="edge10" class="edge">
<title>Node10&#45;&gt;Node19</title>
<path fill="none" stroke="#191970" d="M234.8671,-186.3833C258.3284,-176.1985 289.8185,-162.5284 310.6135,-153.5011"/>
<polygon fill="#191970" stroke="#191970" points="233.4551,-183.1806 225.6759,-190.3733 236.2426,-189.6017 233.4551,-183.1806"/>
</g>
<!-- Node12&#45;&gt;Node11 -->
<g id="edge3" class="edge">
<title>Node12&#45;&gt;Node11</title>
<path fill="none" stroke="#191970" d="M171.5222,-130.3428C144.2936,-118.7139 105.873,-102.3051 81.842,-92.0419"/>
<polygon fill="#191970" stroke="#191970" points="170.4289,-133.6817 181,-134.3906 173.1783,-127.2442 170.4289,-133.6817"/>
</g>
<!-- Node13 -->
<g id="node4" class="node">
<title>Node13</title>
<g id="a_node4"><a xlink:href="../../da/dcd/nrl_2manufactured__solution_2manufactured_solution_8hpp.html" target="_top" xlink:title="nrl/manufactured_solution\l/manufacturedSolution.hpp">
<polygon fill="#ffffff" stroke="#000000" points="137,-67.5 137,-97.5 270,-97.5 270,-67.5 137,-67.5"/>
<text text-anchor="start" x="145" y="-85.5" font-family="Helvetica,sans-Serif" font-size="10.00" fill="#000000">nrl/manufactured_solution</text>
<text text-anchor="middle" x="203.5" y="-74.5" font-family="Helvetica,sans-Serif" font-size="10.00" fill="#000000">/manufacturedSolution.hpp</text>
</a>
</g>
</g>
<!-- Node12&#45;&gt;Node13 -->
<g id="edge4" class="edge">
<title>Node12&#45;&gt;Node13</title>
<path fill="none" stroke="#191970" d="M203.5,-124.3693C203.5,-115.681 203.5,-105.6241 203.5,-97.5446"/>
<polygon fill="#191970" stroke="#191970" points="200.0001,-124.3906 203.5,-134.3906 207.0001,-124.3907 200.0001,-124.3906"/>
</g>
<!-- Node15 -->
<g id="node6" class="node">
<title>Node15</title>
<g id="a_node6"><a xlink:href="../../d0/da3/distributenrldata_8cpp.html" target="_top" xlink:title="src/distributenrldata.cpp">
<polygon fill="#ffffff" stroke="#000000" points="288,-73 288,-92 409,-92 409,-73 288,-73"/>
<text text-anchor="middle" x="348.5" y="-80" font-family="Helvetica,sans-Serif" font-size="10.00" fill="#000000">src/distributenrldata.cpp</text>
</a>
</g>
</g>
<!-- Node12&#45;&gt;Node15 -->
<g id="edge6" class="edge">
<title>Node12&#45;&gt;Node15</title>
<path fill="none" stroke="#191970" d="M235.6999,-130.3428C263.1176,-118.7139 301.805,-102.3051 326.0028,-92.0419"/>
<polygon fill="#191970" stroke="#191970" points="233.9958,-127.2637 226.1563,-134.3906 236.7291,-133.708 233.9958,-127.2637"/>
</g>
<!-- Node16 -->
<g id="node7" class="node">
<title>Node16</title>
<g id="a_node7"><a xlink:href="../../d9/dc1/_random_generator_for_p_c_a__and_likelihood_8hpp.html" target="_top" xlink:title="src/RandomGeneratorForPCA\l_andLikelihood.hpp">
<polygon fill="#ffffff" stroke="#000000" points="427.5,-67.5 427.5,-97.5 575.5,-97.5 575.5,-67.5 427.5,-67.5"/>
<text text-anchor="start" x="435.5" y="-85.5" font-family="Helvetica,sans-Serif" font-size="10.00" fill="#000000">src/RandomGeneratorForPCA</text>
<text text-anchor="middle" x="501.5" y="-74.5" font-family="Helvetica,sans-Serif" font-size="10.00" fill="#000000">_andLikelihood.hpp</text>
</a>
</g>
</g>
<!-- Node12&#45;&gt;Node16 -->
<g id="edge7" class="edge">
<title>Node12&#45;&gt;Node16</title>
<path fill="none" stroke="#191970" d="M259.6123,-132.4198C307.4753,-122.542 376.6115,-108.274 428.7235,-97.5193"/>
<polygon fill="#191970" stroke="#191970" points="258.8217,-129.0091 249.7355,-134.4581 260.2366,-135.8646 258.8217,-129.0091"/>
</g>
<!-- Node14 -->
<g id="node5" class="node">
<title>Node14</title>
<g id="a_node5"><a xlink:href="../../d4/db6/nrl_2manufactured__solution_2main_8cpp.html" target="_top" xlink:title="nrl/manufactured_solution\l/main.cpp">
<polygon fill="#ffffff" stroke="#000000" points="139.5,-.5 139.5,-30.5 267.5,-30.5 267.5,-.5 139.5,-.5"/>
<text text-anchor="start" x="147.5" y="-18.5" font-family="Helvetica,sans-Serif" font-size="10.00" fill="#000000">nrl/manufactured_solution</text>
<text text-anchor="middle" x="203.5" y="-7.5" font-family="Helvetica,sans-Serif" font-size="10.00" fill="#000000">/main.cpp</text>
</a>
</g>
</g>
<!-- Node13&#45;&gt;Node14 -->
<g id="edge5" class="edge">
<title>Node13&#45;&gt;Node14</title>
<path fill="none" stroke="#191970" d="M203.5,-57.0249C203.5,-48.128 203.5,-38.4287 203.5,-30.6432"/>
<polygon fill="#191970" stroke="#191970" points="200.0001,-57.2966 203.5,-67.2967 207.0001,-57.2967 200.0001,-57.2966"/>
</g>
<!-- Node17 -->
<g id="node8" class="node">
<title>Node17</title>
<g id="a_node8"><a xlink:href="../../d5/daf/nrl_2random__generator__for__pca__likelihood_2main_8cpp.html" target="_top" xlink:title="nrl/random_generator\l_for_pca_likelihood/main.cpp">
<polygon fill="#ffffff" stroke="#000000" points="359,-.5 359,-30.5 502,-30.5 502,-.5 359,-.5"/>
<text text-anchor="start" x="367" y="-18.5" font-family="Helvetica,sans-Serif" font-size="10.00" fill="#000000">nrl/random_generator</text>
<text text-anchor="middle" x="430.5" y="-7.5" font-family="Helvetica,sans-Serif" font-size="10.00" fill="#000000">_for_pca_likelihood/main.cpp</text>
</a>
</g>
</g>
<!-- Node16&#45;&gt;Node17 -->
<g id="edge8" class="edge">
<title>Node16&#45;&gt;Node17</title>
<path fill="none" stroke="#191970" d="M477.8806,-60.2113C467.5905,-50.5009 455.7949,-39.3698 446.5472,-30.6432"/>
<polygon fill="#191970" stroke="#191970" points="475.7139,-62.979 485.389,-67.2967 480.5181,-57.8879 475.7139,-62.979"/>
</g>
<!-- Node18 -->
<g id="node9" class="node">
<title>Node18</title>
<g id="a_node9"><a xlink:href="../../db/d7d/nrl_2testing__solutions_2main_8cpp.html" target="_top" xlink:title="nrl/testing_solutions\l/main.cpp">
<polygon fill="#ffffff" stroke="#000000" points="520.5,-.5 520.5,-30.5 624.5,-30.5 624.5,-.5 520.5,-.5"/>
<text text-anchor="start" x="528.5" y="-18.5" font-family="Helvetica,sans-Serif" font-size="10.00" fill="#000000">nrl/testing_solutions</text>
<text text-anchor="middle" x="572.5" y="-7.5" font-family="Helvetica,sans-Serif" font-size="10.00" fill="#000000">/main.cpp</text>
</a>
</g>
</g>
<!-- Node16&#45;&gt;Node18 -->
<g id="edge9" class="edge">
<title>Node16&#45;&gt;Node18</title>
<path fill="none" stroke="#191970" d="M525.1194,-60.2113C535.4095,-50.5009 547.2051,-39.3698 556.4528,-30.6432"/>
<polygon fill="#191970" stroke="#191970" points="522.4819,-57.8879 517.611,-67.2967 527.2861,-62.979 522.4819,-57.8879"/>
</g>
</g>
</svg>
        <g id="navigator" transform="translate(0 0)" fill="#404254">
                <rect fill="#f2f5e9" fill-opacity="0.5" stroke="#606060" stroke-width=".5" x="0" y="0" width="60" height="60"/>
                <use id="zoomplus" xlink:href="#zoomPlus" x="17" y="9" onmousedown="handleZoom(evt,'in')"/>
                <use id="zoomminus" xlink:href="#zoomMin" x="42" y="9" onmousedown="handleZoom(evt,'out')"/>
                <use id="reset" xlink:href="#resetDef" x="30" y="36" onmousedown="handleReset()"/>
                <g id="arrowUp" xlink:href="#dirArrow" transform="translate(30 24)" onmousedown="handlePan(0,-1)">
                  <use xlink:href="#rim" fill="#404040">
                        <set attributeName="fill" to="#808080" begin="arrowUp.mouseover" end="arrowUp.mouseout"/>
                  </use>
                  <path fill="none" stroke="white" stroke-width="1.5" d="M0,-3.0v7 M-2.5,-0.5L0,-3.0L2.5,-0.5"/>
                </g>
                <g id="arrowRight" xlink:href="#dirArrow" transform="rotate(90) translate(36 -43)" onmousedown="handlePan(1,0)">
                  <use xlink:href="#rim" fill="#404040">
                        <set attributeName="fill" to="#808080" begin="arrowRight.mouseover" end="arrowRight.mouseout"/>
                  </use>
                  <path fill="none" stroke="white" stroke-width="1.5" d="M0,-3.0v7 M-2.5,-0.5L0,-3.0L2.5,-0.5"/>
                </g>
                <g id="arrowDown" xlink:href="#dirArrow" transform="rotate(180) translate(-30 -48)" onmousedown="handlePan(0,1)">
                  <use xlink:href="#rim" fill="#404040">
                        <set attributeName="fill" to="#808080" begin="arrowDown.mouseover" end="arrowDown.mouseout"/>
                  </use>
                  <path fill="none" stroke="white" stroke-width="1.5" d="M0,-3.0v7 M-2.5,-0.5L0,-3.0L2.5,-0.5"/>
                </g>
                <g id="arrowLeft" xlink:href="#dirArrow" transform="rotate(270) translate(-36 17)" onmousedown="handlePan(-1,0)">
                  <use xlink:href="#rim" fill="#404040">
                        <set attributeName="fill" to="#808080" begin="arrowLeft.mouseover" end="arrowLeft.mouseout"/>
                  </use>
                  <path fill="none" stroke="white" stroke-width="1.5" d="M0,-3.0v7 M-2.5,-0.5L0,-3.0L2.5,-0.5"/>
                </g>
        </g>
        <svg viewBox="0 0 15 15" width="100%" height="30px" preserveAspectRatio="xMaxYMin meet">
         <g id="arrow_out" transform="scale(0.3 0.3)">
          <a xlink:href="readnrldata_8hpp__dep__incl_org.svg" target="_base">
           <rect id="button" ry="5" rx="5" y="6" x="6" height="38" width="38"
                fill="#f2f5e9" fill-opacity="0.5" stroke="#606060" stroke-width="1.0"/>
           <path id="arrow"
             d="M 11.500037,31.436501 C 11.940474,20.09759 22.043105,11.32322 32.158766,21.979434 L 37.068811,17.246167 C 37.068811,17.246167 37.088388,32 37.088388,32 L 22.160133,31.978069 C 22.160133,31.978069 26.997745,27.140456 26.997745,27.140456 C 18.528582,18.264221 13.291696,25.230495 11.500037,31.436501 z"
             style="fill:#404040;"/>
          </a>
         </g>
        </svg>
</svg>
