<?xml version="1.0" encoding="UTF-8" standalone="no"?>
<!DOCTYPE svg PUBLIC "-//W3C//DTD SVG 1.1//EN"
 "http://www.w3.org/Graphics/SVG/1.1/DTD/svg11.dtd">
<!-- Generated by graphviz version 2.40.1 (20161225.0304)
 -->
<!-- Title: ShapeObject2D Pages: 1 -->
<svg width="315pt" height="137pt"
 viewBox="0.00 0.00 314.59 137.00" xmlns="http://www.w3.org/2000/svg" xmlns:xlink="http://www.w3.org/1999/xlink">
<g id="graph0" class="graph" transform="scale(1 1) rotate(0) translate(4 133)">
<title>ShapeObject2D</title>
<polygon fill="#ffffff" stroke="transparent" points="-4,4 -4,-133 310.5874,-133 310.5874,4 -4,4"/>
<!-- Node0 -->
<g id="node1" class="node">
<title>Node0</title>
<polygon fill="#bfbfbf" stroke="#000000" points="110.729,-55.5 110.729,-73.5 197.3296,-73.5 197.3296,-55.5 110.729,-55.5"/>
<text text-anchor="middle" x="154.0293" y="-61.5" font-family="Helvetica,sans-Serif" font-size="10.00" fill="#000000">ShapeObject2D</text>
</g>
<!-- Node2 -->
<g id="node3" class="node">
<title>Node2</title>
<g id="a_node3"><a xlink:href="../../d9/dd3/class_linear_quadrangle.html" target="_top" xlink:title="LinearQuadrangle">
<polygon fill="#ffffff" stroke="#000000" points="0,-.5 0,-18.5 96.0586,-18.5 96.0586,-.5 0,-.5"/>
<text text-anchor="middle" x="48.0293" y="-6.5" font-family="Helvetica,sans-Serif" font-size="10.00" fill="#000000">LinearQuadrangle</text>
</a>
</g>
</g>
<!-- Node0&#45;&gt;Node2 -->
<g id="edge2" class="edge">
<title>Node0&#45;&gt;Node2</title>
<path fill="none" stroke="#191970" d="M127.5928,-50.7829C108.2145,-40.7282 82.4464,-27.3579 65.559,-18.5956"/>
<polygon fill="#191970" stroke="#191970" points="126.0373,-53.9189 136.5256,-55.4179 129.2612,-47.7055 126.0373,-53.9189"/>
</g>
<!-- Node3 -->
<g id="node4" class="node">
<title>Node3</title>
<g id="a_node4"><a xlink:href="../../da/d61/class_linear_triangle.html" target="_top" xlink:title="LinearTriangle">
<polygon fill="#ffffff" stroke="#000000" points="114.2495,-.5 114.2495,-18.5 193.8091,-18.5 193.8091,-.5 114.2495,-.5"/>
<text text-anchor="middle" x="154.0293" y="-6.5" font-family="Helvetica,sans-Serif" font-size="10.00" fill="#000000">LinearTriangle</text>
</a>
</g>
</g>
<!-- Node0&#45;&gt;Node3 -->
<g id="edge3" class="edge">
<title>Node0&#45;&gt;Node3</title>
<path fill="none" stroke="#191970" d="M154.0293,-45.383C154.0293,-36.3738 154.0293,-26.0373 154.0293,-18.7795"/>
<polygon fill="#191970" stroke="#191970" points="150.5294,-45.4178 154.0293,-55.4179 157.5294,-45.4179 150.5294,-45.4178"/>
</g>
<!-- Node4 -->
<g id="node5" class="node">
<title>Node4</title>
<g id="a_node5"><a xlink:href="../../d1/d80/class_quadratic_triangle.html" target="_top" xlink:title="QuadraticTriangle">
<polygon fill="#ffffff" stroke="#000000" points="211.4712,-.5 211.4712,-18.5 306.5874,-18.5 306.5874,-.5 211.4712,-.5"/>
<text text-anchor="middle" x="259.0293" y="-6.5" font-family="Helvetica,sans-Serif" font-size="10.00" fill="#000000">QuadraticTriangle</text>
</a>
</g>
</g>
<!-- Node0&#45;&gt;Node4 -->
<g id="edge4" class="edge">
<title>Node0&#45;&gt;Node4</title>
<path fill="none" stroke="#191970" d="M180.4786,-50.6456C199.6438,-40.6067 225.0129,-27.3181 241.6649,-18.5956"/>
<polygon fill="#191970" stroke="#191970" points="178.6022,-47.6773 171.3679,-55.4179 181.8503,-53.8782 178.6022,-47.6773"/>
</g>
<!-- Node1 -->
<g id="node2" class="node">
<title>Node1</title>
<g id="a_node2"><a xlink:href="../../d1/d2e/class_shape_object.html" target="_top" xlink:title="ShapeObject">
<polygon fill="#ffffff" stroke="#000000" points="117.1206,-110.5 117.1206,-128.5 190.938,-128.5 190.938,-110.5 117.1206,-110.5"/>
<text text-anchor="middle" x="154.0293" y="-116.5" font-family="Helvetica,sans-Serif" font-size="10.00" fill="#000000">ShapeObject</text>
</a>
</g>
</g>
<!-- Node1&#45;&gt;Node0 -->
<g id="edge1" class="edge">
<title>Node1&#45;&gt;Node0</title>
<path fill="none" stroke="#191970" d="M154.0293,-100.383C154.0293,-91.3738 154.0293,-81.0373 154.0293,-73.7795"/>
<polygon fill="#191970" stroke="#191970" points="150.5294,-100.4178 154.0293,-110.4179 157.5294,-100.4179 150.5294,-100.4178"/>
</g>
</g>
</svg>
