<?xml version="1.0" encoding="UTF-8" standalone="no"?>
<!DOCTYPE svg PUBLIC "-//W3C//DTD SVG 1.1//EN"
 "http://www.w3.org/Graphics/SVG/1.1/DTD/svg11.dtd">
<!-- Generated by graphviz version 2.40.1 (20161225.0304)
 -->
<!-- Title: src/damageField.hpp Pages: 1 -->
<svg width="391pt" height="162pt"
 viewBox="0.00 0.00 390.50 162.00" xmlns="http://www.w3.org/2000/svg" xmlns:xlink="http://www.w3.org/1999/xlink">
<g id="graph0" class="graph" transform="scale(1 1) rotate(0) translate(4 158)">
<title>src/damageField.hpp</title>
<polygon fill="#ffffff" stroke="transparent" points="-4,4 -4,-158 386.5,-158 386.5,4 -4,4"/>
<!-- Node35 -->
<g id="node1" class="node">
<title>Node35</title>
<polygon fill="#bfbfbf" stroke="#000000" points="132.5,-134.5 132.5,-153.5 239.5,-153.5 239.5,-134.5 132.5,-134.5"/>
<text text-anchor="middle" x="186" y="-141.5" font-family="Helvetica,sans-Serif" font-size="10.00" fill="#000000">src/damageField.hpp</text>
</g>
<!-- Node36 -->
<g id="node2" class="node">
<title>Node36</title>
<g id="a_node2"><a xlink:href="../../d9/d28/examples_2damagefield_2main_8cpp.html" target="_top" xlink:title="examples/damagefield\l/main.cpp">
<polygon fill="#ffffff" stroke="#000000" points="0,-67.5 0,-97.5 114,-97.5 114,-67.5 0,-67.5"/>
<text text-anchor="start" x="8" y="-85.5" font-family="Helvetica,sans-Serif" font-size="10.00" fill="#000000">examples/damagefield</text>
<text text-anchor="middle" x="57" y="-74.5" font-family="Helvetica,sans-Serif" font-size="10.00" fill="#000000">/main.cpp</text>
</a>
</g>
</g>
<!-- Node35&#45;&gt;Node36 -->
<g id="edge1" class="edge">
<title>Node35&#45;&gt;Node36</title>
<path fill="none" stroke="#191970" d="M156.7468,-130.0537C136.4243,-120.3651 109.3644,-107.4644 88.557,-97.5446"/>
<polygon fill="#191970" stroke="#191970" points="155.3109,-133.2465 165.8438,-134.3906 158.3233,-126.9278 155.3109,-133.2465"/>
</g>
<!-- Node37 -->
<g id="node3" class="node">
<title>Node37</title>
<g id="a_node3"><a xlink:href="../../dd/ddf/damage_field_8cpp.html" target="_top" xlink:title="src/damageField.cpp">
<polygon fill="#ffffff" stroke="#000000" points="132.5,-73 132.5,-92 239.5,-92 239.5,-73 132.5,-73"/>
<text text-anchor="middle" x="186" y="-80" font-family="Helvetica,sans-Serif" font-size="10.00" fill="#000000">src/damageField.cpp</text>
</a>
</g>
</g>
<!-- Node35&#45;&gt;Node37 -->
<g id="edge2" class="edge">
<title>Node35&#45;&gt;Node37</title>
<path fill="none" stroke="#191970" d="M186,-124.2462C186,-113.5519 186,-100.814 186,-92.2449"/>
<polygon fill="#191970" stroke="#191970" points="182.5001,-124.3906 186,-134.3906 189.5001,-124.3907 182.5001,-124.3906"/>
</g>
<!-- Node38 -->
<g id="node4" class="node">
<title>Node38</title>
<g id="a_node4"><a xlink:href="../../d1/dee/phase_field_linearized_elasticity_8hpp.html" target="_top" xlink:title="src/phaseFieldLinearized\lElasticity.hpp">
<polygon fill="#ffffff" stroke="#000000" points="257.5,-67.5 257.5,-97.5 382.5,-97.5 382.5,-67.5 257.5,-67.5"/>
<text text-anchor="start" x="265.5" y="-85.5" font-family="Helvetica,sans-Serif" font-size="10.00" fill="#000000">src/phaseFieldLinearized</text>
<text text-anchor="middle" x="320" y="-74.5" font-family="Helvetica,sans-Serif" font-size="10.00" fill="#000000">Elasticity.hpp</text>
</a>
</g>
</g>
<!-- Node35&#45;&gt;Node38 -->
<g id="edge3" class="edge">
<title>Node35&#45;&gt;Node38</title>
<path fill="none" stroke="#191970" d="M216.1009,-130.185C237.2427,-120.4819 265.5081,-107.5093 287.2199,-97.5446"/>
<polygon fill="#191970" stroke="#191970" points="214.5661,-127.0384 206.9375,-134.3906 217.486,-133.4003 214.5661,-127.0384"/>
</g>
<!-- Node39 -->
<g id="node5" class="node">
<title>Node39</title>
<g id="a_node5"><a xlink:href="../../d4/d66/phase_field_linearized_elasticity_8cpp.html" target="_top" xlink:title="src/phaseFieldLinearized\lElasticity.cpp">
<polygon fill="#ffffff" stroke="#000000" points="257.5,-.5 257.5,-30.5 382.5,-30.5 382.5,-.5 257.5,-.5"/>
<text text-anchor="start" x="265.5" y="-18.5" font-family="Helvetica,sans-Serif" font-size="10.00" fill="#000000">src/phaseFieldLinearized</text>
<text text-anchor="middle" x="320" y="-7.5" font-family="Helvetica,sans-Serif" font-size="10.00" fill="#000000">Elasticity.cpp</text>
</a>
</g>
</g>
<!-- Node38&#45;&gt;Node39 -->
<g id="edge4" class="edge">
<title>Node38&#45;&gt;Node39</title>
<path fill="none" stroke="#191970" d="M320,-57.0249C320,-48.128 320,-38.4287 320,-30.6432"/>
<polygon fill="#191970" stroke="#191970" points="316.5001,-57.2966 320,-67.2967 323.5001,-57.2967 316.5001,-57.2966"/>
</g>
</g>
</svg>
