<?xml version="1.0" encoding="UTF-8" standalone="no"?>
<!DOCTYPE svg PUBLIC "-//W3C//DTD SVG 1.1//EN"
 "http://www.w3.org/Graphics/SVG/1.1/DTD/svg11.dtd">
<!-- Generated by graphviz version 2.40.1 (20161225.0304)
 -->
<!-- Title: nrl/deterministic_random_search/objectiveFunction.hpp Pages: 1 -->
<svg width="449pt" height="102pt"
 viewBox="0.00 0.00 448.95 102.00" xmlns="http://www.w3.org/2000/svg" xmlns:xlink="http://www.w3.org/1999/xlink">
<g id="graph0" class="graph" transform="scale(1 1) rotate(0) translate(4 98)">
<title>nrl/deterministic_random_search/objectiveFunction.hpp</title>
<polygon fill="#ffffff" stroke="transparent" points="-4,4 -4,-98 444.9526,-98 444.9526,4 -4,4"/>
<!-- Node57 -->
<g id="node1" class="node">
<title>Node57</title>
<polygon fill="#bfbfbf" stroke="#000000" points="159.3892,-65.5 159.3892,-93.5 311.0288,-93.5 311.0288,-65.5 159.3892,-65.5"/>
<text text-anchor="start" x="167.3892" y="-81.5" font-family="Helvetica,sans-Serif" font-size="10.00" fill="#000000">nrl/deterministic_random</text>
<text text-anchor="middle" x="235.209" y="-71.5" font-family="Helvetica,sans-Serif" font-size="10.00" fill="#000000">_search/objectiveFunction.hpp</text>
</g>
<!-- Node58 -->
<g id="node2" class="node">
<title>Node58</title>
<g id="a_node2"><a xlink:href="../../de/de8/example__pnpoly__inverse__isoparam_8cpp.html" target="_top" xlink:title="examples/pnpoly/example\l_pnpoly_inverse_isoparam.cpp">
<polygon fill="#ffffff" stroke="#000000" points="0,-.5 0,-28.5 154.418,-28.5 154.418,-.5 0,-.5"/>
<text text-anchor="start" x="8" y="-16.5" font-family="Helvetica,sans-Serif" font-size="10.00" fill="#000000">examples/pnpoly/example</text>
<text text-anchor="middle" x="77.209" y="-6.5" font-family="Helvetica,sans-Serif" font-size="10.00" fill="#000000">_pnpoly_inverse_isoparam.cpp</text>
</a>
</g>
</g>
<!-- Node57&#45;&gt;Node58 -->
<g id="edge1" class="edge">
<title>Node57&#45;&gt;Node58</title>
<path fill="none" stroke="#191970" d="M191.5626,-61.5442C166.2797,-51.143 134.9105,-38.238 111.4257,-28.5765"/>
<polygon fill="#191970" stroke="#191970" points="190.3457,-64.8282 200.9253,-65.396 193.009,-58.3546 190.3457,-64.8282"/>
</g>
<!-- Node59 -->
<g id="node3" class="node">
<title>Node59</title>
<g id="a_node3"><a xlink:href="../../d8/dc8/nrl_2deterministic__random__search_2main_8cpp.html" target="_top" xlink:title="nrl/deterministic_random\l_search/main.cpp">
<polygon fill="#ffffff" stroke="#000000" points="172.4653,-.5 172.4653,-28.5 297.9526,-28.5 297.9526,-.5 172.4653,-.5"/>
<text text-anchor="start" x="180.4653" y="-16.5" font-family="Helvetica,sans-Serif" font-size="10.00" fill="#000000">nrl/deterministic_random</text>
<text text-anchor="middle" x="235.209" y="-6.5" font-family="Helvetica,sans-Serif" font-size="10.00" fill="#000000">_search/main.cpp</text>
</a>
</g>
</g>
<!-- Node57&#45;&gt;Node59 -->
<g id="edge2" class="edge">
<title>Node57&#45;&gt;Node59</title>
<path fill="none" stroke="#191970" d="M235.209,-55.1081C235.209,-46.1539 235.209,-36.3227 235.209,-28.5765"/>
<polygon fill="#191970" stroke="#191970" points="231.7091,-55.3959 235.209,-65.396 238.7091,-55.396 231.7091,-55.3959"/>
</g>
<!-- Node60 -->
<g id="node4" class="node">
<title>Node60</title>
<g id="a_node4"><a xlink:href="../../da/dbf/main__bak_8cpp.html" target="_top" xlink:title="nrl/deterministic_random\l_search/main_bak.cpp">
<polygon fill="#ffffff" stroke="#000000" points="315.4653,-.5 315.4653,-28.5 440.9526,-28.5 440.9526,-.5 315.4653,-.5"/>
<text text-anchor="start" x="323.4653" y="-16.5" font-family="Helvetica,sans-Serif" font-size="10.00" fill="#000000">nrl/deterministic_random</text>
<text text-anchor="middle" x="378.209" y="-6.5" font-family="Helvetica,sans-Serif" font-size="10.00" fill="#000000">_search/main_bak.cpp</text>
</a>
</g>
</g>
<!-- Node57&#45;&gt;Node60 -->
<g id="edge3" class="edge">
<title>Node57&#45;&gt;Node60</title>
<path fill="none" stroke="#191970" d="M275.6218,-61.1305C298.3435,-50.8025 326.2664,-38.1103 347.2407,-28.5765"/>
<polygon fill="#191970" stroke="#191970" points="273.8932,-58.0716 266.2379,-65.396 276.7899,-64.4442 273.8932,-58.0716"/>
</g>
</g>
</svg>
