<?xml version="1.0" encoding="UTF-8" standalone="no"?>
<!DOCTYPE svg PUBLIC "-//W3C//DTD SVG 1.1//EN"
 "http://www.w3.org/Graphics/SVG/1.1/DTD/svg11.dtd">
<!-- Generated by graphviz version 2.40.1 (20161225.0304)
 -->
<!-- Title: src/Compressible_Mooney_Transverse_Isotropic.hpp Pages: 1 -->
<svg width="374pt" height="177pt"
 viewBox="0.00 0.00 374.39 177.00" xmlns="http://www.w3.org/2000/svg" xmlns:xlink="http://www.w3.org/1999/xlink">
<g id="graph0" class="graph" transform="scale(1 1) rotate(0) translate(4 173)">
<title>src/Compressible_Mooney_Transverse_Isotropic.hpp</title>
<polygon fill="#ffffff" stroke="transparent" points="-4,4 -4,-173 370.3936,-173 370.3936,4 -4,4"/>
<!-- Node38 -->
<g id="node1" class="node">
<title>Node38</title>
<polygon fill="#bfbfbf" stroke="#000000" points="114.6108,-140.5 114.6108,-168.5 248.9897,-168.5 248.9897,-140.5 114.6108,-140.5"/>
<text text-anchor="start" x="122.6108" y="-156.5" font-family="Helvetica,sans-Serif" font-size="10.00" fill="#000000">src/Compressible_Mooney</text>
<text text-anchor="middle" x="181.8003" y="-146.5" font-family="Helvetica,sans-Serif" font-size="10.00" fill="#000000">_Transverse_Isotropic.hpp</text>
</g>
<!-- Node39 -->
<g id="node2" class="node">
<title>Node39</title>
<g id="a_node2"><a xlink:href="../../da/d89/forward_deterministic_cost_function_8hpp.html" target="_top" xlink:title="nrl/old_tests/forward\l_deterministic/forwardDeterministic\lCostFunction.hpp">
<polygon fill="#ffffff" stroke="#000000" points="0,-65.5 0,-103.5 171.6006,-103.5 171.6006,-65.5 0,-65.5"/>
<text text-anchor="start" x="8" y="-91.5" font-family="Helvetica,sans-Serif" font-size="10.00" fill="#000000">nrl/old_tests/forward</text>
<text text-anchor="start" x="8" y="-81.5" font-family="Helvetica,sans-Serif" font-size="10.00" fill="#000000">_deterministic/forwardDeterministic</text>
<text text-anchor="middle" x="85.8003" y="-71.5" font-family="Helvetica,sans-Serif" font-size="10.00" fill="#000000">CostFunction.hpp</text>
</a>
</g>
</g>
<!-- Node38&#45;&gt;Node39 -->
<g id="edge1" class="edge">
<title>Node38&#45;&gt;Node39</title>
<path fill="none" stroke="#191970" d="M154.1039,-134.3047C140.885,-124.6659 125.1475,-113.1906 112.1121,-103.6857"/>
<polygon fill="#191970" stroke="#191970" points="152.231,-137.2707 162.3733,-140.3345 156.3553,-131.6147 152.231,-137.2707"/>
</g>
<!-- Node41 -->
<g id="node4" class="node">
<title>Node41</title>
<g id="a_node4"><a xlink:href="../../dd/dae/_random_search___deterministic_model_8hpp.html" target="_top" xlink:title="nrl/old_tests/randomSearch\l_deterministicModel/RandomSearch\l_DeterministicModel.hpp">
<polygon fill="#ffffff" stroke="#000000" points="189.207,-65.5 189.207,-103.5 366.3936,-103.5 366.3936,-65.5 189.207,-65.5"/>
<text text-anchor="start" x="197.207" y="-91.5" font-family="Helvetica,sans-Serif" font-size="10.00" fill="#000000">nrl/old_tests/randomSearch</text>
<text text-anchor="start" x="197.207" y="-81.5" font-family="Helvetica,sans-Serif" font-size="10.00" fill="#000000">_deterministicModel/RandomSearch</text>
<text text-anchor="middle" x="277.8003" y="-71.5" font-family="Helvetica,sans-Serif" font-size="10.00" fill="#000000">_DeterministicModel.hpp</text>
</a>
</g>
</g>
<!-- Node38&#45;&gt;Node41 -->
<g id="edge3" class="edge">
<title>Node38&#45;&gt;Node41</title>
<path fill="none" stroke="#191970" d="M209.4966,-134.3047C222.7156,-124.6659 238.4531,-113.1906 251.4885,-103.6857"/>
<polygon fill="#191970" stroke="#191970" points="207.2453,-131.6147 201.2273,-140.3345 211.3695,-137.2707 207.2453,-131.6147"/>
</g>
<!-- Node40 -->
<g id="node3" class="node">
<title>Node40</title>
<g id="a_node3"><a xlink:href="../../df/d49/nrl_2old__tests_2forward__deterministic_2main_8cpp.html" target="_top" xlink:title="nrl/old_tests/forward\l_deterministic/main.cpp">
<polygon fill="#ffffff" stroke="#000000" points="25.2783,-.5 25.2783,-28.5 146.3223,-28.5 146.3223,-.5 25.2783,-.5"/>
<text text-anchor="start" x="33.2783" y="-16.5" font-family="Helvetica,sans-Serif" font-size="10.00" fill="#000000">nrl/old_tests/forward</text>
<text text-anchor="middle" x="85.8003" y="-6.5" font-family="Helvetica,sans-Serif" font-size="10.00" fill="#000000">_deterministic/main.cpp</text>
</a>
</g>
</g>
<!-- Node39&#45;&gt;Node40 -->
<g id="edge2" class="edge">
<title>Node39&#45;&gt;Node40</title>
<path fill="none" stroke="#191970" d="M85.8003,-55.1346C85.8003,-46.0837 85.8003,-36.5165 85.8003,-28.9404"/>
<polygon fill="#191970" stroke="#191970" points="82.3004,-55.3722 85.8003,-65.3722 89.3004,-55.3722 82.3004,-55.3722"/>
</g>
<!-- Node42 -->
<g id="node5" class="node">
<title>Node42</title>
<g id="a_node5"><a xlink:href="../../db/d61/nrl_2old__tests_2random_search__deterministic_model_2main_8cpp.html" target="_top" xlink:title="nrl/old_tests/randomSearch\l_deterministicModel/main.cpp">
<polygon fill="#ffffff" stroke="#000000" points="203.6602,-.5 203.6602,-28.5 351.9404,-28.5 351.9404,-.5 203.6602,-.5"/>
<text text-anchor="start" x="211.6602" y="-16.5" font-family="Helvetica,sans-Serif" font-size="10.00" fill="#000000">nrl/old_tests/randomSearch</text>
<text text-anchor="middle" x="277.8003" y="-6.5" font-family="Helvetica,sans-Serif" font-size="10.00" fill="#000000">_deterministicModel/main.cpp</text>
</a>
</g>
</g>
<!-- Node41&#45;&gt;Node42 -->
<g id="edge4" class="edge">
<title>Node41&#45;&gt;Node42</title>
<path fill="none" stroke="#191970" d="M277.8003,-55.1346C277.8003,-46.0837 277.8003,-36.5165 277.8003,-28.9404"/>
<polygon fill="#191970" stroke="#191970" points="274.3004,-55.3722 277.8003,-65.3722 281.3004,-55.3722 274.3004,-55.3722"/>
</g>
</g>
</svg>
