<?xml version="1.0" encoding="UTF-8" standalone="no"?>
<!DOCTYPE svg PUBLIC "-//W3C//DTD SVG 1.1//EN"
 "http://www.w3.org/Graphics/SVG/1.1/DTD/svg11.dtd">
<!-- Generated by graphviz version 2.40.1 (20161225.0304)
 -->
<!-- Title: asme/linearelaslam Pages: 1 -->
<svg width="114pt" height="150pt"
 viewBox="0.00 0.00 114.00 150.00" xmlns="http://www.w3.org/2000/svg" xmlns:xlink="http://www.w3.org/1999/xlink">
<g id="graph0" class="graph" transform="scale(1 1) rotate(0) translate(4 146)">
<title>asme/linearelaslam</title>
<polygon fill="#ffffff" stroke="transparent" points="-4,4 -4,-146 110,-146 110,4 -4,4"/>
<g id="clust1" class="cluster">
<title>clusterdir_d69c5998c88a6f19c159cfeabb096535</title>
<g id="a_clust1"><a xlink:href="dir_d69c5998c88a6f19c159cfeabb096535.html" target="_top" xlink:title="asme">
<polygon fill="#ddddee" stroke="#000000" points="8,-64 8,-134 98,-134 98,-64 8,-64"/>
<text text-anchor="middle" x="53" y="-122" font-family="Helvetica,sans-Serif" font-size="10.00" fill="#000000">asme</text>
</a>
</g>
</g>
<!-- dir_4bc77408f794b18442a5f1f58a7c3261 -->
<g id="node1" class="node">
<title>dir_4bc77408f794b18442a5f1f58a7c3261</title>
<g id="a_node1"><a xlink:href="dir_4bc77408f794b18442a5f1f58a7c3261.html" target="_top" xlink:title="linearelaslam">
<polygon fill="#eeeeff" stroke="#000000" points="90.4161,-108 15.5839,-108 15.5839,-72 90.4161,-72 90.4161,-108"/>
<text text-anchor="middle" x="53" y="-87" font-family="Helvetica,sans-Serif" font-size="10.00" fill="#000000">linearelaslam</text>
</a>
</g>
</g>
<!-- dir_68267d1309a1af8e8297ef4c3efbcdba -->
<g id="node2" class="node">
<title>dir_68267d1309a1af8e8297ef4c3efbcdba</title>
<g id="a_node2"><a xlink:href="dir_68267d1309a1af8e8297ef4c3efbcdba.html" target="_top" xlink:title="src">
<polygon fill="none" stroke="#000000" points="80,-36 26,-36 26,0 80,0 80,-36"/>
<text text-anchor="middle" x="53" y="-15" font-family="Helvetica,sans-Serif" font-size="10.00" fill="#000000">src</text>
</a>
</g>
</g>
<!-- dir_4bc77408f794b18442a5f1f58a7c3261&#45;&gt;dir_68267d1309a1af8e8297ef4c3efbcdba -->
<g id="edge1" class="edge">
<title>dir_4bc77408f794b18442a5f1f58a7c3261&#45;&gt;dir_68267d1309a1af8e8297ef4c3efbcdba</title>
<path fill="none" stroke="#000000" d="M53,-71.8314C53,-64.131 53,-54.9743 53,-46.4166"/>
<polygon fill="#000000" stroke="#000000" points="56.5001,-46.4132 53,-36.4133 49.5001,-46.4133 56.5001,-46.4132"/>
<g id="a_edge1&#45;headlabel"><a xlink:href="dir_000011_000033.html" target="_top" xlink:title="1">
<text text-anchor="middle" x="59.3393" y="-47.0079" font-family="Helvetica,sans-Serif" font-size="10.00" fill="#000000">1</text>
</a>
</g>
</g>
</g>
</svg>
