<?xml version="1.0" encoding="UTF-8" standalone="no"?>
<!DOCTYPE svg PUBLIC "-//W3C//DTD SVG 1.1//EN"
 "http://www.w3.org/Graphics/SVG/1.1/DTD/svg11.dtd">
<!-- Generated by graphviz version 2.40.1 (20161225.0304)
 -->
<!-- Title: examples Pages: 1 -->
<!--zoomable 204 -->
<svg id="main" version="1.1" xmlns="http://www.w3.org/2000/svg" xmlns:xlink="http://www.w3.org/1999/xlink" xml:space="preserve" onload="init(evt)">
<style type="text/css"><![CDATA[
.edge:hover path { stroke: red; }
.edge:hover polygon { stroke: red; fill: red; }
]]></style>
<script type="text/javascript"><![CDATA[
var edges = document.getElementsByTagName('g');
if (edges && edges.length) {
  for (var i=0;i<edges.length;i++) {
    if (edges[i].id.substr(0,4)=='edge') {
      edges[i].setAttribute('class','edge');
    }
  }
}
]]></script>
        <defs>
                <circle id="rim" cx="0" cy="0" r="7"/>
                <circle id="rim2" cx="0" cy="0" r="3.5"/>
                <g id="zoomPlus">
                        <use xlink:href="#rim" fill="#404040">
                                <set attributeName="fill" to="#808080" begin="zoomplus.mouseover" end="zoomplus.mouseout"/>
                        </use>
                        <path d="M-4,0h8M0,-4v8" fill="none" stroke="white" stroke-width="1.5" pointer-events="none"/>
                </g>
                <g id="zoomMin">
                        <use xlink:href="#rim" fill="#404040">
                                <set attributeName="fill" to="#808080" begin="zoomminus.mouseover" end="zoomminus.mouseout"/>
                        </use>
                        <path d="M-4,0h8" fill="none" stroke="white" stroke-width="1.5" pointer-events="none"/>
                </g>
                <g id="dirArrow">
                        <path fill="none" stroke="white" stroke-width="1.5" d="M0,-3.0v7 M-2.5,-0.5L0,-3.0L2.5,-0.5"/>
                </g>
               <g id="resetDef">
                       <use xlink:href="#rim2" fill="#404040">
                               <set attributeName="fill" to="#808080" begin="reset.mouseover" end="reset.mouseout"/>
                       </use>
               </g>
        </defs>

<script type="text/javascript">
var viewWidth = 712;
var viewHeight = 204;
var sectionId = 'dynsection-0';
</script>
<script xlink:href="svgpan.js"/>
<svg id="graph" class="graph">
<g id="viewport">
<title>examples</title>
<polygon fill="#ffffff" stroke="transparent" points="-4,4 -4,-200 708,-200 708,4 -4,4"/>
<g id="clust1" class="cluster">
<title>clusterdir_d28a4824dc47e487b107a5db32ef43c4</title>
<g id="a_clust1"><a xlink:href="dir_d28a4824dc47e487b107a5db32ef43c4.html" target="_top">
<polygon fill="#eeeeff" stroke="#000000" points="8,-136 8,-188 696,-188 696,-136 8,-136"/>
</a>
</g>
</g>
<!-- dir_d28a4824dc47e487b107a5db32ef43c4 -->
<g id="node1" class="node">
<title>dir_d28a4824dc47e487b107a5db32ef43c4</title>
<text text-anchor="middle" x="659" y="-159" font-family="Helvetica,sans-Serif" font-size="10.00" fill="#000000">examples</text>
</g>
<!-- dir_80b6b24927811b768b2b1153b134fc73 -->
<g id="node2" class="node">
<title>dir_80b6b24927811b768b2b1153b134fc73</title>
<g id="a_node2"><a xlink:href="dir_80b6b24927811b768b2b1153b134fc73.html" target="_top" xlink:title="boost_icdf">
<polygon fill="#ffffff" stroke="#000000" points="611.5873,-180 550.4127,-180 550.4127,-144 611.5873,-144 611.5873,-180"/>
<text text-anchor="middle" x="581" y="-159" font-family="Helvetica,sans-Serif" font-size="10.00" fill="#000000">boost_icdf</text>
</a>
</g>
</g>
<!-- dir_340d80f5c403622618e77b12e8a2b08e -->
<g id="node3" class="node">
<title>dir_340d80f5c403622618e77b12e8a2b08e</title>
<g id="a_node3"><a xlink:href="dir_340d80f5c403622618e77b12e8a2b08e.html" target="_top" xlink:title="helloworld">
<polygon fill="#ffffff" stroke="#000000" points="532.5244,-180 471.4756,-180 471.4756,-144 532.5244,-144 532.5244,-180"/>
<text text-anchor="middle" x="502" y="-159" font-family="Helvetica,sans-Serif" font-size="10.00" fill="#000000">helloworld</text>
</a>
</g>
</g>
<!-- dir_f10601d333117ad3387ae2ca710b02a2 -->
<g id="node4" class="node">
<title>dir_f10601d333117ad3387ae2ca710b02a2</title>
<g id="a_node4"><a xlink:href="dir_f10601d333117ad3387ae2ca710b02a2.html" target="_top" xlink:title="hypersphere">
<polygon fill="#ffffff" stroke="#000000" points="87.592,-180 16.408,-180 16.408,-144 87.592,-144 87.592,-180"/>
<text text-anchor="middle" x="52" y="-159" font-family="Helvetica,sans-Serif" font-size="10.00" fill="#000000">hypersphere</text>
</a>
</g>
</g>
<!-- dir_68267d1309a1af8e8297ef4c3efbcdba -->
<g id="node9" class="node">
<title>dir_68267d1309a1af8e8297ef4c3efbcdba</title>
<g id="a_node9"><a xlink:href="dir_68267d1309a1af8e8297ef4c3efbcdba.html" target="_top" xlink:title="src">
<polygon fill="none" stroke="#000000" points="297,-36 243,-36 243,0 297,0 297,-36"/>
<text text-anchor="middle" x="270" y="-15" font-family="Helvetica,sans-Serif" font-size="10.00" fill="#000000">src</text>
</a>
</g>
</g>
<!-- dir_f10601d333117ad3387ae2ca710b02a2&#45;&gt;dir_68267d1309a1af8e8297ef4c3efbcdba -->
<g id="edge2" class="edge">
<title>dir_f10601d333117ad3387ae2ca710b02a2&#45;&gt;dir_68267d1309a1af8e8297ef4c3efbcdba</title>
<path fill="none" stroke="#000000" d="M79.3396,-143.8817C106.7935,-125.6937 150.3123,-96.8795 188,-72 203.0791,-62.0455 219.7295,-51.0764 234.0648,-41.6396"/>
<polygon fill="#000000" stroke="#000000" points="236.2277,-44.4061 242.6565,-35.9846 232.3792,-38.559 236.2277,-44.4061"/>
<g id="a_edge2&#45;headlabel"><a xlink:href="dir_000015_000026.html" target="_top" xlink:title="1">
<text text-anchor="middle" x="234.7861" y="-45.754" font-family="Helvetica,sans-Serif" font-size="10.00" fill="#000000">1</text>
</a>
</g>
</g>
<!-- dir_cd8ef039d5048938024b82241a5b3733 -->
<g id="node5" class="node">
<title>dir_cd8ef039d5048938024b82241a5b3733</title>
<g id="a_node5"><a xlink:href="dir_cd8ef039d5048938024b82241a5b3733.html" target="_top" xlink:title="laplace_aztec">
<polygon fill="#ffffff" stroke="#000000" points="182.6525,-180 105.3475,-180 105.3475,-144 182.6525,-144 182.6525,-180"/>
<text text-anchor="middle" x="144" y="-159" font-family="Helvetica,sans-Serif" font-size="10.00" fill="#000000">laplace_aztec</text>
</a>
</g>
</g>
<!-- dir_cd8ef039d5048938024b82241a5b3733&#45;&gt;dir_68267d1309a1af8e8297ef4c3efbcdba -->
<g id="edge1" class="edge">
<title>dir_cd8ef039d5048938024b82241a5b3733&#45;&gt;dir_68267d1309a1af8e8297ef4c3efbcdba</title>
<path fill="none" stroke="#000000" d="M159.958,-143.7623C182.1118,-118.4436 222.2966,-72.5182 247.4906,-43.7251"/>
<polygon fill="#000000" stroke="#000000" points="250.2205,-45.9202 254.1716,-36.0896 244.9525,-41.3106 250.2205,-45.9202"/>
<g id="a_edge1&#45;headlabel"><a xlink:href="dir_000016_000026.html" target="_top" xlink:title="2">
<text text-anchor="middle" x="249.9903" y="-47.495" font-family="Helvetica,sans-Serif" font-size="10.00" fill="#000000">2</text>
</a>
</g>
</g>
<!-- dir_07c1c62ff1691032888f90a78fe1cc62 -->
<g id="node6" class="node">
<title>dir_07c1c62ff1691032888f90a78fe1cc62</title>
<g id="a_node6"><a xlink:href="dir_07c1c62ff1691032888f90a78fe1cc62.html" target="_top" xlink:title="laplace_stratimikos">
<polygon fill="#ffffff" stroke="#000000" points="301.5342,-180 200.4658,-180 200.4658,-144 301.5342,-144 301.5342,-180"/>
<text text-anchor="middle" x="251" y="-159" font-family="Helvetica,sans-Serif" font-size="10.00" fill="#000000">laplace_stratimikos</text>
</a>
</g>
</g>
<!-- dir_07c1c62ff1691032888f90a78fe1cc62&#45;&gt;dir_68267d1309a1af8e8297ef4c3efbcdba -->
<g id="edge7" class="edge">
<title>dir_07c1c62ff1691032888f90a78fe1cc62&#45;&gt;dir_68267d1309a1af8e8297ef4c3efbcdba</title>
<path fill="none" stroke="#000000" d="M253.4064,-143.7623C256.6471,-119.201 262.4465,-75.2474 266.2588,-46.3541"/>
<polygon fill="#000000" stroke="#000000" points="269.7749,-46.4616 267.6132,-36.0896 262.8351,-45.5458 269.7749,-46.4616"/>
<g id="a_edge7&#45;headlabel"><a xlink:href="dir_000017_000026.html" target="_top" xlink:title="2">
<text text-anchor="middle" x="272.1197" y="-47.3967" font-family="Helvetica,sans-Serif" font-size="10.00" fill="#000000">2</text>
</a>
</g>
</g>
<!-- dir_27c7937b3ae10dbbde05069b03f9259f -->
<g id="node7" class="node">
<title>dir_27c7937b3ae10dbbde05069b03f9259f</title>
<g id="a_node7"><a xlink:href="dir_27c7937b3ae10dbbde05069b03f9259f.html" target="_top" xlink:title="pnpoly">
<polygon fill="#ffffff" stroke="#000000" points="374,-180 320,-180 320,-144 374,-144 374,-180"/>
<text text-anchor="middle" x="347" y="-159" font-family="Helvetica,sans-Serif" font-size="10.00" fill="#000000">pnpoly</text>
</a>
</g>
</g>
<!-- dir_27c7937b3ae10dbbde05069b03f9259f&#45;&gt;dir_68267d1309a1af8e8297ef4c3efbcdba -->
<g id="edge4" class="edge">
<title>dir_27c7937b3ae10dbbde05069b03f9259f&#45;&gt;dir_68267d1309a1af8e8297ef4c3efbcdba</title>
<path fill="none" stroke="#000000" d="M333.115,-143.5473C325.7686,-133.3563 316.8729,-120.3024 310,-108 298.6716,-87.7223 288.1027,-63.6228 280.677,-45.4673"/>
<polygon fill="#000000" stroke="#000000" points="283.8697,-44.0255 276.8902,-36.0545 277.3755,-46.6382 283.8697,-44.0255"/>
<g id="a_edge4&#45;headlabel"><a xlink:href="dir_000025_000026.html" target="_top" xlink:title="1">
<text text-anchor="middle" x="287.8453" y="-43.3007" font-family="Helvetica,sans-Serif" font-size="10.00" fill="#000000">1</text>
</a>
</g>
</g>
<!-- dir_c7a8522d1517ff6e908be401e03740f7 -->
<g id="node10" class="node">
<title>dir_c7a8522d1517ff6e908be401e03740f7</title>
<g id="a_node10"><a xlink:href="dir_c7a8522d1517ff6e908be401e03740f7.html" target="_top" xlink:title="nrl">
<polygon fill="#ffffff" stroke="#ff0000" points="373,-108 319,-108 319,-72 373,-72 373,-108"/>
<text text-anchor="middle" x="346" y="-87" font-family="Helvetica,sans-Serif" font-size="10.00" fill="#000000">nrl</text>
</a>
</g>
</g>
<!-- dir_27c7937b3ae10dbbde05069b03f9259f&#45;&gt;dir_c7a8522d1517ff6e908be401e03740f7 -->
<g id="edge5" class="edge">
<title>dir_27c7937b3ae10dbbde05069b03f9259f&#45;&gt;dir_c7a8522d1517ff6e908be401e03740f7</title>
<path fill="none" stroke="#000000" d="M346.7477,-143.8314C346.6407,-136.131 346.5135,-126.9743 346.3947,-118.4166"/>
<polygon fill="#000000" stroke="#000000" points="349.8944,-118.3637 346.2557,-108.4133 342.8951,-118.4609 349.8944,-118.3637"/>
<g id="a_edge5&#45;headlabel"><a xlink:href="dir_000025_000019.html" target="_top" xlink:title="1">
<text text-anchor="middle" x="352.7832" y="-118.9185" font-family="Helvetica,sans-Serif" font-size="10.00" fill="#000000">1</text>
</a>
</g>
</g>
<!-- dir_ae28b799a51708cf0b4582bd24c82773 -->
<g id="node8" class="node">
<title>dir_ae28b799a51708cf0b4582bd24c82773</title>
<g id="a_node8"><a xlink:href="dir_ae28b799a51708cf0b4582bd24c82773.html" target="_top" xlink:title="shinozuka">
<polygon fill="#ffffff" stroke="#000000" points="453.5293,-180 392.4707,-180 392.4707,-144 453.5293,-144 453.5293,-180"/>
<text text-anchor="middle" x="423" y="-159" font-family="Helvetica,sans-Serif" font-size="10.00" fill="#000000">shinozuka</text>
</a>
</g>
</g>
<!-- dir_ae28b799a51708cf0b4582bd24c82773&#45;&gt;dir_68267d1309a1af8e8297ef4c3efbcdba -->
<g id="edge6" class="edge">
<title>dir_ae28b799a51708cf0b4582bd24c82773&#45;&gt;dir_68267d1309a1af8e8297ef4c3efbcdba</title>
<path fill="none" stroke="#000000" d="M418.6517,-143.6444C413.1181,-123.7842 401.8131,-92.2498 382,-72 361.301,-50.8449 330.6469,-36.8605 306.6388,-28.4342"/>
<polygon fill="#000000" stroke="#000000" points="307.7311,-25.109 297.1374,-25.2636 305.5153,-31.7491 307.7311,-25.109"/>
<g id="a_edge6&#45;headlabel"><a xlink:href="dir_000018_000026.html" target="_top" xlink:title="1">
<text text-anchor="middle" x="312.0396" y="-20.5535" font-family="Helvetica,sans-Serif" font-size="10.00" fill="#000000">1</text>
</a>
</g>
</g>
<!-- dir_c7a8522d1517ff6e908be401e03740f7&#45;&gt;dir_68267d1309a1af8e8297ef4c3efbcdba -->
<g id="edge3" class="edge">
<title>dir_c7a8522d1517ff6e908be401e03740f7&#45;&gt;dir_68267d1309a1af8e8297ef4c3efbcdba</title>
<path fill="none" stroke="#000000" d="M326.822,-71.8314C317.6412,-63.1337 306.4994,-52.5783 296.5224,-43.1265"/>
<polygon fill="#000000" stroke="#000000" points="298.8385,-40.4995 289.1719,-36.1628 294.0243,-45.5811 298.8385,-40.4995"/>
<g id="a_edge3&#45;headlabel"><a xlink:href="dir_000019_000026.html" target="_top" xlink:title="11">
<text text-anchor="middle" x="303.4007" y="-37.9104" font-family="Helvetica,sans-Serif" font-size="10.00" fill="#000000">11</text>
</a>
</g>
</g>
</g>
</svg>
        <g id="navigator" transform="translate(0 0)" fill="#404254">
                <rect fill="#f2f5e9" fill-opacity="0.5" stroke="#606060" stroke-width=".5" x="0" y="0" width="60" height="60"/>
                <use id="zoomplus" xlink:href="#zoomPlus" x="17" y="9" onmousedown="handleZoom(evt,'in')"/>
                <use id="zoomminus" xlink:href="#zoomMin" x="42" y="9" onmousedown="handleZoom(evt,'out')"/>
                <use id="reset" xlink:href="#resetDef" x="30" y="36" onmousedown="handleReset()"/>
                <g id="arrowUp" xlink:href="#dirArrow" transform="translate(30 24)" onmousedown="handlePan(0,-1)">
                  <use xlink:href="#rim" fill="#404040">
                        <set attributeName="fill" to="#808080" begin="arrowUp.mouseover" end="arrowUp.mouseout"/>
                  </use>
                  <path fill="none" stroke="white" stroke-width="1.5" d="M0,-3.0v7 M-2.5,-0.5L0,-3.0L2.5,-0.5"/>
                </g>
                <g id="arrowRight" xlink:href="#dirArrow" transform="rotate(90) translate(36 -43)" onmousedown="handlePan(1,0)">
                  <use xlink:href="#rim" fill="#404040">
                        <set attributeName="fill" to="#808080" begin="arrowRight.mouseover" end="arrowRight.mouseout"/>
                  </use>
                  <path fill="none" stroke="white" stroke-width="1.5" d="M0,-3.0v7 M-2.5,-0.5L0,-3.0L2.5,-0.5"/>
                </g>
                <g id="arrowDown" xlink:href="#dirArrow" transform="rotate(180) translate(-30 -48)" onmousedown="handlePan(0,1)">
                  <use xlink:href="#rim" fill="#404040">
                        <set attributeName="fill" to="#808080" begin="arrowDown.mouseover" end="arrowDown.mouseout"/>
                  </use>
                  <path fill="none" stroke="white" stroke-width="1.5" d="M0,-3.0v7 M-2.5,-0.5L0,-3.0L2.5,-0.5"/>
                </g>
                <g id="arrowLeft" xlink:href="#dirArrow" transform="rotate(270) translate(-36 17)" onmousedown="handlePan(-1,0)">
                  <use xlink:href="#rim" fill="#404040">
                        <set attributeName="fill" to="#808080" begin="arrowLeft.mouseover" end="arrowLeft.mouseout"/>
                  </use>
                  <path fill="none" stroke="white" stroke-width="1.5" d="M0,-3.0v7 M-2.5,-0.5L0,-3.0L2.5,-0.5"/>
                </g>
        </g>
        <svg viewBox="0 0 15 15" width="100%" height="30px" preserveAspectRatio="xMaxYMin meet">
         <g id="arrow_out" transform="scale(0.3 0.3)">
          <a xlink:href="dir_d28a4824dc47e487b107a5db32ef43c4_dep_org.svg" target="_base">
           <rect id="button" ry="5" rx="5" y="6" x="6" height="38" width="38"
                fill="#f2f5e9" fill-opacity="0.5" stroke="#606060" stroke-width="1.0"/>
           <path id="arrow"
             d="M 11.500037,31.436501 C 11.940474,20.09759 22.043105,11.32322 32.158766,21.979434 L 37.068811,17.246167 C 37.068811,17.246167 37.088388,32 37.088388,32 L 22.160133,31.978069 C 22.160133,31.978069 26.997745,27.140456 26.997745,27.140456 C 18.528582,18.264221 13.291696,25.230495 11.500037,31.436501 z"
             style="fill:#404040;"/>
          </a>
         </g>
        </svg>
</svg>
