<?xml version="1.0" encoding="UTF-8" standalone="no"?>
<!DOCTYPE svg PUBLIC "-//W3C//DTD SVG 1.1//EN"
 "http://www.w3.org/Graphics/SVG/1.1/DTD/svg11.dtd">
<!-- Generated by graphviz version 2.40.1 (20161225.0304)
 -->
<!-- Title: nrl Pages: 1 -->
<svg width="609pt" height="132pt"
 viewBox="0.00 0.00 609.00 132.00" xmlns="http://www.w3.org/2000/svg" xmlns:xlink="http://www.w3.org/1999/xlink">
<g id="graph0" class="graph" transform="scale(1 1) rotate(0) translate(4 128)">
<title>nrl</title>
<polygon fill="#ffffff" stroke="transparent" points="-4,4 -4,-128 605,-128 605,4 -4,4"/>
<g id="clust1" class="cluster">
<title>clusterdir_c7a8522d1517ff6e908be401e03740f7</title>
<g id="a_clust1"><a xlink:href="dir_c7a8522d1517ff6e908be401e03740f7.html" target="_top">
<polygon fill="#eeeeff" stroke="#000000" points="8,-64 8,-116 593,-116 593,-64 8,-64"/>
</a>
</g>
</g>
<!-- dir_c7a8522d1517ff6e908be401e03740f7 -->
<g id="node1" class="node">
<title>dir_c7a8522d1517ff6e908be401e03740f7</title>
<text text-anchor="middle" x="558" y="-87" font-family="Helvetica,sans-Serif" font-size="10.00" fill="#000000">nrl</text>
</g>
<!-- dir_5dbc30f61afb635da05869f09521faf3 -->
<g id="node2" class="node">
<title>dir_5dbc30f61afb635da05869f09521faf3</title>
<g id="a_node2"><a xlink:href="dir_5dbc30f61afb635da05869f09521faf3.html" target="_top" xlink:title="deterministic_random_search">
<polygon fill="#ffffff" stroke="#000000" points="512.672,-108 365.328,-108 365.328,-72 512.672,-72 512.672,-108"/>
<text text-anchor="middle" x="439" y="-87" font-family="Helvetica,sans-Serif" font-size="10.00" fill="#000000">deterministic_random_search</text>
</a>
</g>
</g>
<!-- dir_68267d1309a1af8e8297ef4c3efbcdba -->
<g id="node6" class="node">
<title>dir_68267d1309a1af8e8297ef4c3efbcdba</title>
<g id="a_node6"><a xlink:href="dir_68267d1309a1af8e8297ef4c3efbcdba.html" target="_top" xlink:title="src">
<polygon fill="none" stroke="#000000" points="255,-36 201,-36 201,0 255,0 255,-36"/>
<text text-anchor="middle" x="228" y="-15" font-family="Helvetica,sans-Serif" font-size="10.00" fill="#000000">src</text>
</a>
</g>
</g>
<!-- dir_5dbc30f61afb635da05869f09521faf3&#45;&gt;dir_68267d1309a1af8e8297ef4c3efbcdba -->
<g id="edge2" class="edge">
<title>dir_5dbc30f61afb635da05869f09521faf3&#45;&gt;dir_68267d1309a1af8e8297ef4c3efbcdba</title>
<path fill="none" stroke="#000000" d="M386.0281,-71.9243C348.3032,-59.0513 298.5477,-42.0731 265.0276,-30.635"/>
<polygon fill="#000000" stroke="#000000" points="265.7719,-27.1909 255.1774,-27.2738 263.5112,-33.8158 265.7719,-27.1909"/>
<g id="a_edge2&#45;headlabel"><a xlink:href="dir_000022_000027.html" target="_top" xlink:title="3">
<text text-anchor="middle" x="270.0908" y="-22.6646" font-family="Helvetica,sans-Serif" font-size="10.00" fill="#000000">3</text>
</a>
</g>
</g>
<!-- dir_b43ef149110c1447347a780ca6ab8da1 -->
<g id="node3" class="node">
<title>dir_b43ef149110c1447347a780ca6ab8da1</title>
<g id="a_node3"><a xlink:href="dir_b43ef149110c1447347a780ca6ab8da1.html" target="_top" xlink:title="forward_deterministic">
<polygon fill="#ffffff" stroke="#000000" points="347.5342,-108 236.4658,-108 236.4658,-72 347.5342,-72 347.5342,-108"/>
<text text-anchor="middle" x="292" y="-87" font-family="Helvetica,sans-Serif" font-size="10.00" fill="#000000">forward_deterministic</text>
</a>
</g>
</g>
<!-- dir_b43ef149110c1447347a780ca6ab8da1&#45;&gt;dir_68267d1309a1af8e8297ef4c3efbcdba -->
<g id="edge4" class="edge">
<title>dir_b43ef149110c1447347a780ca6ab8da1&#45;&gt;dir_68267d1309a1af8e8297ef4c3efbcdba</title>
<path fill="none" stroke="#000000" d="M275.8501,-71.8314C268.3283,-63.3694 259.2435,-53.1489 251.0196,-43.8971"/>
<polygon fill="#000000" stroke="#000000" points="253.627,-41.5621 244.3673,-36.4133 248.3951,-46.2127 253.627,-41.5621"/>
<g id="a_edge4&#45;headlabel"><a xlink:href="dir_000023_000027.html" target="_top" xlink:title="2">
<text text-anchor="middle" x="258.1372" y="-39.3624" font-family="Helvetica,sans-Serif" font-size="10.00" fill="#000000">2</text>
</a>
</g>
</g>
<!-- dir_d5fe13ae0ac77c9aa1aa7d2b8e8e1c29 -->
<g id="node4" class="node">
<title>dir_d5fe13ae0ac77c9aa1aa7d2b8e8e1c29</title>
<g id="a_node4"><a xlink:href="dir_d5fe13ae0ac77c9aa1aa7d2b8e8e1c29.html" target="_top" xlink:title="forward_randomfield">
<polygon fill="#ffffff" stroke="#000000" points="218.6573,-108 111.3427,-108 111.3427,-72 218.6573,-72 218.6573,-108"/>
<text text-anchor="middle" x="165" y="-87" font-family="Helvetica,sans-Serif" font-size="10.00" fill="#000000">forward_randomfield</text>
</a>
</g>
</g>
<!-- dir_d5fe13ae0ac77c9aa1aa7d2b8e8e1c29&#45;&gt;dir_68267d1309a1af8e8297ef4c3efbcdba -->
<g id="edge3" class="edge">
<title>dir_d5fe13ae0ac77c9aa1aa7d2b8e8e1c29&#45;&gt;dir_68267d1309a1af8e8297ef4c3efbcdba</title>
<path fill="none" stroke="#000000" d="M180.8976,-71.8314C188.2278,-63.454 197.066,-53.3531 205.0969,-44.1749"/>
<polygon fill="#000000" stroke="#000000" points="207.9373,-46.2438 211.8884,-36.4133 202.6693,-41.6343 207.9373,-46.2438"/>
<g id="a_edge3&#45;headlabel"><a xlink:href="dir_000024_000027.html" target="_top" xlink:title="2">
<text text-anchor="middle" x="207.7071" y="-47.8187" font-family="Helvetica,sans-Serif" font-size="10.00" fill="#000000">2</text>
</a>
</g>
</g>
<!-- dir_0913f0f28d3172d51c1e84b77cef5d0a -->
<g id="node5" class="node">
<title>dir_0913f0f28d3172d51c1e84b77cef5d0a</title>
<g id="a_node5"><a xlink:href="dir_0913f0f28d3172d51c1e84b77cef5d0a.html" target="_top" xlink:title="shinozuka_2d">
<polygon fill="#ffffff" stroke="#000000" points="93.7144,-108 16.2856,-108 16.2856,-72 93.7144,-72 93.7144,-108"/>
<text text-anchor="middle" x="55" y="-87" font-family="Helvetica,sans-Serif" font-size="10.00" fill="#000000">shinozuka_2d</text>
</a>
</g>
</g>
<!-- dir_0913f0f28d3172d51c1e84b77cef5d0a&#45;&gt;dir_68267d1309a1af8e8297ef4c3efbcdba -->
<g id="edge1" class="edge">
<title>dir_0913f0f28d3172d51c1e84b77cef5d0a&#45;&gt;dir_68267d1309a1af8e8297ef4c3efbcdba</title>
<path fill="none" stroke="#000000" d="M86.0015,-71.9676C91.2698,-69.1593 96.7392,-66.3979 102,-64 131.3695,-50.6134 165.871,-38.2383 191.3385,-29.7034"/>
<polygon fill="#000000" stroke="#000000" points="192.5768,-32.9803 200.9697,-26.5141 190.3764,-26.3351 192.5768,-32.9803"/>
<g id="a_edge1&#45;headlabel"><a xlink:href="dir_000025_000027.html" target="_top" xlink:title="1">
<text text-anchor="middle" x="190.057" y="-33.8055" font-family="Helvetica,sans-Serif" font-size="10.00" fill="#000000">1</text>
</a>
</g>
</g>
</g>
</svg>
