<?xml version="1.0" encoding="UTF-8" standalone="no"?>
<!DOCTYPE svg PUBLIC "-//W3C//DTD SVG 1.1//EN"
 "http://www.w3.org/Graphics/SVG/1.1/DTD/svg11.dtd">
<!-- Generated by graphviz version 2.40.1 (20161225.0304)
 -->
<!-- Title: arteries/deterministic_neumann_stratimikos Pages: 1 -->
<svg width="212pt" height="150pt"
 viewBox="0.00 0.00 212.00 150.00" xmlns="http://www.w3.org/2000/svg" xmlns:xlink="http://www.w3.org/1999/xlink">
<g id="graph0" class="graph" transform="scale(1 1) rotate(0) translate(4 146)">
<title>arteries/deterministic_neumann_stratimikos</title>
<polygon fill="#ffffff" stroke="transparent" points="-4,4 -4,-146 208,-146 208,4 -4,4"/>
<g id="clust1" class="cluster">
<title>clusterdir_e931e8f60c90172cdc270a15876352a9</title>
<g id="a_clust1"><a xlink:href="dir_e931e8f60c90172cdc270a15876352a9.html" target="_top" xlink:title="arteries">
<polygon fill="#ddddee" stroke="#000000" points="8,-64 8,-134 196,-134 196,-64 8,-64"/>
<text text-anchor="middle" x="102" y="-122" font-family="Helvetica,sans-Serif" font-size="10.00" fill="#000000">arteries</text>
</a>
</g>
</g>
<!-- dir_70b5f875b26ebe8441b3d1f7a01a0a41 -->
<g id="node1" class="node">
<title>dir_70b5f875b26ebe8441b3d1f7a01a0a41</title>
<g id="a_node1"><a xlink:href="dir_70b5f875b26ebe8441b3d1f7a01a0a41.html" target="_top" xlink:title="deterministic_neumann_stratimikos">
<polygon fill="#eeeeff" stroke="#000000" points="188.2336,-108 15.7664,-108 15.7664,-72 188.2336,-72 188.2336,-108"/>
<text text-anchor="middle" x="102" y="-87" font-family="Helvetica,sans-Serif" font-size="10.00" fill="#000000">deterministic_neumann_stratimikos</text>
</a>
</g>
</g>
<!-- dir_68267d1309a1af8e8297ef4c3efbcdba -->
<g id="node2" class="node">
<title>dir_68267d1309a1af8e8297ef4c3efbcdba</title>
<g id="a_node2"><a xlink:href="dir_68267d1309a1af8e8297ef4c3efbcdba.html" target="_top" xlink:title="src">
<polygon fill="none" stroke="#000000" points="129,-36 75,-36 75,0 129,0 129,-36"/>
<text text-anchor="middle" x="102" y="-15" font-family="Helvetica,sans-Serif" font-size="10.00" fill="#000000">src</text>
</a>
</g>
</g>
<!-- dir_70b5f875b26ebe8441b3d1f7a01a0a41&#45;&gt;dir_68267d1309a1af8e8297ef4c3efbcdba -->
<g id="edge1" class="edge">
<title>dir_70b5f875b26ebe8441b3d1f7a01a0a41&#45;&gt;dir_68267d1309a1af8e8297ef4c3efbcdba</title>
<path fill="none" stroke="#000000" d="M102,-71.8314C102,-64.131 102,-54.9743 102,-46.4166"/>
<polygon fill="#000000" stroke="#000000" points="105.5001,-46.4132 102,-36.4133 98.5001,-46.4133 105.5001,-46.4132"/>
<g id="a_edge1&#45;headlabel"><a xlink:href="dir_000006_000028.html" target="_top" xlink:title="4">
<text text-anchor="middle" x="108.3393" y="-47.0079" font-family="Helvetica,sans-Serif" font-size="10.00" fill="#000000">4</text>
</a>
</g>
</g>
</g>
</svg>
