<?xml version="1.0" encoding="UTF-8" standalone="no"?>
<!DOCTYPE svg PUBLIC "-//W3C//DTD SVG 1.1//EN"
 "http://www.w3.org/Graphics/SVG/1.1/DTD/svg11.dtd">
<!-- Generated by graphviz version 2.40.1 (20161225.0304)
 -->
<!-- Title: nrl/forward_deterministic Pages: 1 -->
<svg width="152pt" height="150pt"
 viewBox="0.00 0.00 152.00 150.00" xmlns="http://www.w3.org/2000/svg" xmlns:xlink="http://www.w3.org/1999/xlink">
<g id="graph0" class="graph" transform="scale(1 1) rotate(0) translate(4 146)">
<title>nrl/forward_deterministic</title>
<polygon fill="#ffffff" stroke="transparent" points="-4,4 -4,-146 148,-146 148,4 -4,4"/>
<g id="clust1" class="cluster">
<title>clusterdir_c7a8522d1517ff6e908be401e03740f7</title>
<g id="a_clust1"><a xlink:href="dir_c7a8522d1517ff6e908be401e03740f7.html" target="_top" xlink:title="nrl">
<polygon fill="#ddddee" stroke="#000000" points="8,-64 8,-134 136,-134 136,-64 8,-64"/>
<text text-anchor="middle" x="72" y="-122" font-family="Helvetica,sans-Serif" font-size="10.00" fill="#000000">nrl</text>
</a>
</g>
</g>
<!-- dir_b43ef149110c1447347a780ca6ab8da1 -->
<g id="node1" class="node">
<title>dir_b43ef149110c1447347a780ca6ab8da1</title>
<g id="a_node1"><a xlink:href="dir_b43ef149110c1447347a780ca6ab8da1.html" target="_top" xlink:title="forward_deterministic">
<polygon fill="#eeeeff" stroke="#000000" points="127.5342,-108 16.4658,-108 16.4658,-72 127.5342,-72 127.5342,-108"/>
<text text-anchor="middle" x="72" y="-87" font-family="Helvetica,sans-Serif" font-size="10.00" fill="#000000">forward_deterministic</text>
</a>
</g>
</g>
<!-- dir_68267d1309a1af8e8297ef4c3efbcdba -->
<g id="node2" class="node">
<title>dir_68267d1309a1af8e8297ef4c3efbcdba</title>
<g id="a_node2"><a xlink:href="dir_68267d1309a1af8e8297ef4c3efbcdba.html" target="_top" xlink:title="src">
<polygon fill="none" stroke="#000000" points="99,-36 45,-36 45,0 99,0 99,-36"/>
<text text-anchor="middle" x="72" y="-15" font-family="Helvetica,sans-Serif" font-size="10.00" fill="#000000">src</text>
</a>
</g>
</g>
<!-- dir_b43ef149110c1447347a780ca6ab8da1&#45;&gt;dir_68267d1309a1af8e8297ef4c3efbcdba -->
<g id="edge1" class="edge">
<title>dir_b43ef149110c1447347a780ca6ab8da1&#45;&gt;dir_68267d1309a1af8e8297ef4c3efbcdba</title>
<path fill="none" stroke="#000000" d="M72,-71.8314C72,-64.131 72,-54.9743 72,-46.4166"/>
<polygon fill="#000000" stroke="#000000" points="75.5001,-46.4132 72,-36.4133 68.5001,-46.4133 75.5001,-46.4132"/>
<g id="a_edge1&#45;headlabel"><a xlink:href="dir_000022_000027.html" target="_top" xlink:title="2">
<text text-anchor="middle" x="78.3393" y="-47.0079" font-family="Helvetica,sans-Serif" font-size="10.00" fill="#000000">2</text>
</a>
</g>
</g>
</g>
</svg>
