<?xml version="1.0" encoding="UTF-8" standalone="no"?>
<!DOCTYPE svg PUBLIC "-//W3C//DTD SVG 1.1//EN"
 "http://www.w3.org/Graphics/SVG/1.1/DTD/svg11.dtd">
<!-- Generated by graphviz version 2.40.1 (20161225.0304)
 -->
<!-- Title: Graphical Class Hierarchy Pages: 1 -->
<svg width="611pt" height="511pt"
 viewBox="0.00 0.00 611.29 511.00" xmlns="http://www.w3.org/2000/svg" xmlns:xlink="http://www.w3.org/1999/xlink">
<g id="graph0" class="graph" transform="scale(1 1) rotate(0) translate(4 507)">
<title>Graphical Class Hierarchy</title>
<polygon fill="#ffffff" stroke="transparent" points="-4,4 -4,-507 607.2939,-507 607.2939,4 -4,4"/>
<!-- Node0 -->
<g id="node1" class="node">
<title>Node0</title>
<g id="a_node1"><a xlink:href="d2/d97/class_base_class_f_e_m.html" target="_top" xlink:title="BaseClassFEM">
<polygon fill="#ffffff" stroke="#000000" points="0,-215.5 0,-233.5 84.9063,-233.5 84.9063,-215.5 0,-215.5"/>
<text text-anchor="middle" x="42.4531" y="-221.5" font-family="Helvetica,sans-Serif" font-size="10.00" fill="#000000">BaseClassFEM</text>
</a>
</g>
</g>
<!-- Node1 -->
<g id="node2" class="node">
<title>Node1</title>
<g id="a_node2"><a xlink:href="d8/dc2/class_finite___element___problem.html" target="_top" xlink:title="Finite_Element_Problem">
<polygon fill="#ffffff" stroke="#000000" points="120.9063,-254.5 120.9063,-272.5 246.4033,-272.5 246.4033,-254.5 120.9063,-254.5"/>
<text text-anchor="middle" x="183.6548" y="-260.5" font-family="Helvetica,sans-Serif" font-size="10.00" fill="#000000">Finite_Element_Problem</text>
</a>
</g>
</g>
<!-- Node0&#45;&gt;Node1 -->
<g id="edge1" class="edge">
<title>Node0&#45;&gt;Node1</title>
<path fill="none" stroke="#191970" d="M84.8682,-236.2151C105.9249,-242.031 130.9837,-248.9522 150.5938,-254.3685"/>
<polygon fill="#191970" stroke="#191970" points="85.7735,-232.8341 75.2025,-233.5454 83.9098,-239.5815 85.7735,-232.8341"/>
</g>
<!-- Node14 -->
<g id="node15" class="node">
<title>Node14</title>
<g id="a_node15"><a xlink:href="d3/d9f/class_linear___finite___element___problem.html" target="_top" xlink:title="Linear_Finite_Element\l_Problem">
<polygon fill="#ffffff" stroke="#000000" points="125.6255,-129.5 125.6255,-157.5 241.6841,-157.5 241.6841,-129.5 125.6255,-129.5"/>
<text text-anchor="start" x="133.6255" y="-145.5" font-family="Helvetica,sans-Serif" font-size="10.00" fill="#000000">Linear_Finite_Element</text>
<text text-anchor="middle" x="183.6548" y="-135.5" font-family="Helvetica,sans-Serif" font-size="10.00" fill="#000000">_Problem</text>
</a>
</g>
</g>
<!-- Node0&#45;&gt;Node14 -->
<g id="edge14" class="edge">
<title>Node0&#45;&gt;Node14</title>
<path fill="none" stroke="#191970" d="M67.183,-210.3138C93.005,-195.501 133.2632,-172.407 159.0417,-157.6193"/>
<polygon fill="#191970" stroke="#191970" points="65.3088,-207.3538 58.3763,-215.3657 68.792,-213.4257 65.3088,-207.3538"/>
</g>
<!-- Node2 -->
<g id="node3" class="node">
<title>Node2</title>
<g id="a_node3"><a xlink:href="dc/d5a/classhyperelasticity.html" target="_top" xlink:title="hyperelasticity">
<polygon fill="#ffffff" stroke="#000000" points="297.4155,-447.5 297.4155,-465.5 376.7749,-465.5 376.7749,-447.5 297.4155,-447.5"/>
<text text-anchor="middle" x="337.0952" y="-453.5" font-family="Helvetica,sans-Serif" font-size="10.00" fill="#000000">hyperelasticity</text>
</a>
</g>
</g>
<!-- Node1&#45;&gt;Node2 -->
<g id="edge2" class="edge">
<title>Node1&#45;&gt;Node2</title>
<path fill="none" stroke="#191970" d="M197.1431,-280.4659C228.524,-319.9372 305.5912,-416.8737 329.7373,-447.2451"/>
<polygon fill="#191970" stroke="#191970" points="199.8126,-278.1995 190.8497,-272.5499 194.3333,-282.5557 199.8126,-278.1995"/>
</g>
<!-- Node5 -->
<g id="node6" class="node">
<title>Node5</title>
<g id="a_node6"><a xlink:href="d8/daf/classhyperelasticity__setup.html" target="_top" xlink:title="hyperelasticity_setup">
<polygon fill="#ffffff" stroke="#000000" points="282.4033,-254.5 282.4033,-272.5 391.7871,-272.5 391.7871,-254.5 282.4033,-254.5"/>
<text text-anchor="middle" x="337.0952" y="-260.5" font-family="Helvetica,sans-Serif" font-size="10.00" fill="#000000">hyperelasticity_setup</text>
</a>
</g>
</g>
<!-- Node1&#45;&gt;Node5 -->
<g id="edge5" class="edge">
<title>Node1&#45;&gt;Node5</title>
<path fill="none" stroke="#191970" d="M256.7838,-263.5C265.2551,-263.5 273.7849,-263.5 281.9588,-263.5"/>
<polygon fill="#191970" stroke="#191970" points="256.5076,-260.0001 246.5076,-263.5 256.5076,-267.0001 256.5076,-260.0001"/>
</g>
<!-- Node3 -->
<g id="node4" class="node">
<title>Node3</title>
<g id="a_node4"><a xlink:href="d1/d5c/classcompressible_hyperelasticity.html" target="_top" xlink:title="compressibleHyperelasticity">
<polygon fill="#ffffff" stroke="#000000" points="445.5752,-484.5 445.5752,-502.5 585.5059,-502.5 585.5059,-484.5 445.5752,-484.5"/>
<text text-anchor="middle" x="515.5405" y="-490.5" font-family="Helvetica,sans-Serif" font-size="10.00" fill="#000000">compressibleHyperelasticity</text>
</a>
</g>
</g>
<!-- Node2&#45;&gt;Node3 -->
<g id="edge3" class="edge">
<title>Node2&#45;&gt;Node3</title>
<path fill="none" stroke="#191970" d="M386.7608,-466.9442C400.0828,-469.735 414.4816,-472.7416 427.7871,-475.5 441.9495,-478.436 457.4031,-481.6143 471.3408,-484.4714"/>
<polygon fill="#191970" stroke="#191970" points="387.3247,-463.4864 376.8193,-464.8599 385.8883,-470.3375 387.3247,-463.4864"/>
</g>
<!-- Node4 -->
<g id="node5" class="node">
<title>Node4</title>
<g id="a_node5"><a xlink:href="d0/d85/classnearly_incompressible_hyperelasticity.html" target="_top" xlink:title="nearlyIncompressibleHyperelasticity">
<polygon fill="#ffffff" stroke="#000000" points="427.7871,-447.5 427.7871,-465.5 603.2939,-465.5 603.2939,-447.5 427.7871,-447.5"/>
<text text-anchor="middle" x="515.5405" y="-453.5" font-family="Helvetica,sans-Serif" font-size="10.00" fill="#000000">nearlyIncompressibleHyperelasticity</text>
</a>
</g>
</g>
<!-- Node2&#45;&gt;Node4 -->
<g id="edge4" class="edge">
<title>Node2&#45;&gt;Node4</title>
<path fill="none" stroke="#191970" d="M387.3456,-456.5C399.8853,-456.5 413.7031,-456.5 427.4839,-456.5"/>
<polygon fill="#191970" stroke="#191970" points="387.1419,-453.0001 377.1418,-456.5 387.1418,-460.0001 387.1419,-453.0001"/>
</g>
<!-- Node6 -->
<g id="node7" class="node">
<title>Node6</title>
<g id="a_node7"><a xlink:href="da/d5f/class_dirichlet_inlet_outlet___polyconvex_h_g_o.html" target="_top" xlink:title="DirichletInletOutlet\l_PolyconvexHGO">
<polygon fill="#ffffff" stroke="#000000" points="466.6909,-400.5 466.6909,-428.5 564.3901,-428.5 564.3901,-400.5 466.6909,-400.5"/>
<text text-anchor="start" x="474.6909" y="-416.5" font-family="Helvetica,sans-Serif" font-size="10.00" fill="#000000">DirichletInletOutlet</text>
<text text-anchor="middle" x="515.5405" y="-406.5" font-family="Helvetica,sans-Serif" font-size="10.00" fill="#000000">_PolyconvexHGO</text>
</a>
</g>
</g>
<!-- Node5&#45;&gt;Node6 -->
<g id="edge6" class="edge">
<title>Node5&#45;&gt;Node6</title>
<path fill="none" stroke="#191970" d="M345.0875,-282.0249C358.1756,-310.1123 386.879,-363.1908 427.7871,-391.5 439.1839,-399.3868 453.1147,-404.5692 466.4907,-407.9746"/>
<polygon fill="#191970" stroke="#191970" points="348.1369,-280.2719 340.843,-272.5875 341.7528,-283.1432 348.1369,-280.2719"/>
</g>
<!-- Node7 -->
<g id="node8" class="node">
<title>Node7</title>
<g id="a_node8"><a xlink:href="d0/de4/class_dirichlet_strip_elongation___stochastic_polyconvex_h_g_o.html" target="_top" xlink:title="DirichletStripElongation\l_StochasticPolyconvexHGO">
<polygon fill="#ffffff" stroke="#000000" points="444.7354,-353.5 444.7354,-381.5 586.3457,-381.5 586.3457,-353.5 444.7354,-353.5"/>
<text text-anchor="start" x="452.7354" y="-369.5" font-family="Helvetica,sans-Serif" font-size="10.00" fill="#000000">DirichletStripElongation</text>
<text text-anchor="middle" x="515.5405" y="-359.5" font-family="Helvetica,sans-Serif" font-size="10.00" fill="#000000">_StochasticPolyconvexHGO</text>
</a>
</g>
</g>
<!-- Node5&#45;&gt;Node7 -->
<g id="edge7" class="edge">
<title>Node5&#45;&gt;Node7</title>
<path fill="none" stroke="#191970" d="M351.2435,-280.1825C367.7695,-298.6119 396.818,-327.875 427.7871,-344.5 434.1703,-347.9266 441.0929,-350.8645 448.1549,-353.3785"/>
<polygon fill="#191970" stroke="#191970" points="353.791,-277.7789 344.5698,-272.5617 348.5249,-282.3906 353.791,-277.7789"/>
</g>
<!-- Node8 -->
<g id="node9" class="node">
<title>Node8</title>
<g id="a_node9"><a xlink:href="d1/dbe/classmanufactured_solution.html" target="_top" xlink:title="manufacturedSolution">
<polygon fill="#ffffff" stroke="#000000" points="458.8979,-316.5 458.8979,-334.5 572.1831,-334.5 572.1831,-316.5 458.8979,-316.5"/>
<text text-anchor="middle" x="515.5405" y="-322.5" font-family="Helvetica,sans-Serif" font-size="10.00" fill="#000000">manufacturedSolution</text>
</a>
</g>
</g>
<!-- Node5&#45;&gt;Node8 -->
<g id="edge8" class="edge">
<title>Node5&#45;&gt;Node8</title>
<path fill="none" stroke="#191970" d="M361.7674,-277.5548C379.6145,-287.1977 404.5746,-299.6266 427.7871,-307.5 438.244,-311.0468 449.6505,-314.0108 460.6756,-316.4425"/>
<polygon fill="#191970" stroke="#191970" points="363.0888,-274.287 352.6405,-272.531 359.7132,-280.4194 363.0888,-274.287"/>
</g>
<!-- Node9 -->
<g id="node10" class="node">
<title>Node9</title>
<g id="a_node10"><a xlink:href="de/d4c/class_neumann_inner_surface___polyconvex_h_g_o.html" target="_top" xlink:title="NeumannInnerSurface\l_PolyconvexHGO">
<polygon fill="#ffffff" stroke="#000000" points="457.2329,-269.5 457.2329,-297.5 573.8481,-297.5 573.8481,-269.5 457.2329,-269.5"/>
<text text-anchor="start" x="465.2329" y="-285.5" font-family="Helvetica,sans-Serif" font-size="10.00" fill="#000000">NeumannInnerSurface</text>
<text text-anchor="middle" x="515.5405" y="-275.5" font-family="Helvetica,sans-Serif" font-size="10.00" fill="#000000">_PolyconvexHGO</text>
</a>
</g>
</g>
<!-- Node5&#45;&gt;Node9 -->
<g id="edge9" class="edge">
<title>Node5&#45;&gt;Node9</title>
<path fill="none" stroke="#191970" d="M402.1786,-270.7945C420.1193,-272.8053 439.4681,-274.9739 457.0134,-276.9403"/>
<polygon fill="#191970" stroke="#191970" points="402.4184,-267.2995 392.0907,-269.6639 401.6387,-274.256 402.4184,-267.2995"/>
</g>
<!-- Node10 -->
<g id="node11" class="node">
<title>Node10</title>
<g id="a_node11"><a xlink:href="dd/d43/class_neumann_inner_surface___stochastic_polyconvex_h_g_o.html" target="_top" xlink:title="NeumannInnerSurface\l_StochasticPolyconvexHGO">
<polygon fill="#ffffff" stroke="#000000" points="444.7354,-222.5 444.7354,-250.5 586.3457,-250.5 586.3457,-222.5 444.7354,-222.5"/>
<text text-anchor="start" x="452.7354" y="-238.5" font-family="Helvetica,sans-Serif" font-size="10.00" fill="#000000">NeumannInnerSurface</text>
<text text-anchor="middle" x="515.5405" y="-228.5" font-family="Helvetica,sans-Serif" font-size="10.00" fill="#000000">_StochasticPolyconvexHGO</text>
</a>
</g>
</g>
<!-- Node5&#45;&gt;Node10 -->
<g id="edge10" class="edge">
<title>Node5&#45;&gt;Node10</title>
<path fill="none" stroke="#191970" d="M402.003,-253.679C415.8503,-251.5838 430.5435,-249.3606 444.6037,-247.2332"/>
<polygon fill="#191970" stroke="#191970" points="401.4546,-250.2221 392.0907,-255.1788 402.5019,-257.1433 401.4546,-250.2221"/>
</g>
<!-- Node11 -->
<g id="node12" class="node">
<title>Node11</title>
<g id="a_node12"><a xlink:href="dd/d20/classrubberblock.html" target="_top" xlink:title="rubberblock">
<polygon fill="#ffffff" stroke="#000000" points="481.415,-185.5 481.415,-203.5 549.666,-203.5 549.666,-185.5 481.415,-185.5"/>
<text text-anchor="middle" x="515.5405" y="-191.5" font-family="Helvetica,sans-Serif" font-size="10.00" fill="#000000">rubberblock</text>
</a>
</g>
</g>
<!-- Node5&#45;&gt;Node11 -->
<g id="edge11" class="edge">
<title>Node5&#45;&gt;Node11</title>
<path fill="none" stroke="#191970" d="M359.1523,-248.9482C376.9977,-237.775 403.1274,-222.7409 427.7871,-213.5 444.8653,-207.1002 464.6627,-202.5815 481.1265,-199.5613"/>
<polygon fill="#191970" stroke="#191970" points="357.1745,-246.0583 350.6272,-254.388 360.9399,-251.9593 357.1745,-246.0583"/>
</g>
<!-- Node12 -->
<g id="node13" class="node">
<title>Node12</title>
<g id="a_node13"><a xlink:href="de/dd1/class_t_i_mooney.html" target="_top" xlink:title="TIMooney">
<polygon fill="#ffffff" stroke="#000000" points="485.3091,-148.5 485.3091,-166.5 545.772,-166.5 545.772,-148.5 485.3091,-148.5"/>
<text text-anchor="middle" x="515.5405" y="-154.5" font-family="Helvetica,sans-Serif" font-size="10.00" fill="#000000">TIMooney</text>
</a>
</g>
</g>
<!-- Node5&#45;&gt;Node12 -->
<g id="edge12" class="edge">
<title>Node5&#45;&gt;Node12</title>
<path fill="none" stroke="#191970" d="M349.8755,-246.4916C365.8399,-226.5174 395.0678,-193.9069 427.7871,-176.5 445.5397,-167.0555 467.6835,-162.3048 485.2852,-159.9156"/>
<polygon fill="#191970" stroke="#191970" points="347.0704,-244.3973 343.6912,-254.4388 352.5948,-248.6963 347.0704,-244.3973"/>
</g>
<!-- Node13 -->
<g id="node14" class="node">
<title>Node13</title>
<g id="a_node14"><a xlink:href="d1/dd7/class_t_i_mooney___random_field.html" target="_top" xlink:title="TIMooney_RandomField">
<polygon fill="#ffffff" stroke="#000000" points="452.792,-111.5 452.792,-129.5 578.2891,-129.5 578.2891,-111.5 452.792,-111.5"/>
<text text-anchor="middle" x="515.5405" y="-117.5" font-family="Helvetica,sans-Serif" font-size="10.00" fill="#000000">TIMooney_RandomField</text>
</a>
</g>
</g>
<!-- Node5&#45;&gt;Node13 -->
<g id="edge13" class="edge">
<title>Node5&#45;&gt;Node13</title>
<path fill="none" stroke="#191970" d="M345.2936,-244.9358C358.4877,-217.3392 387.1347,-165.918 427.7871,-139.5 435.2373,-134.6585 443.7203,-131.031 452.4068,-128.317"/>
<polygon fill="#191970" stroke="#191970" points="342.0104,-243.6975 341.0006,-254.2441 348.367,-246.6292 342.0104,-243.6975"/>
</g>
<!-- Node15 -->
<g id="node16" class="node">
<title>Node15</title>
<g id="a_node16"><a xlink:href="d7/d76/classlaplace.html" target="_top" xlink:title="laplace">
<polygon fill="#ffffff" stroke="#000000" points="313.2505,-134.5 313.2505,-152.5 360.9399,-152.5 360.9399,-134.5 313.2505,-134.5"/>
<text text-anchor="middle" x="337.0952" y="-140.5" font-family="Helvetica,sans-Serif" font-size="10.00" fill="#000000">laplace</text>
</a>
</g>
</g>
<!-- Node14&#45;&gt;Node15 -->
<g id="edge15" class="edge">
<title>Node14&#45;&gt;Node15</title>
<path fill="none" stroke="#191970" d="M252.3673,-143.5C274.1719,-143.5 296.8487,-143.5 313.2491,-143.5"/>
<polygon fill="#191970" stroke="#191970" points="252.1018,-140.0001 242.1018,-143.5 252.1017,-147.0001 252.1018,-140.0001"/>
</g>
<!-- Node16 -->
<g id="node17" class="node">
<title>Node16</title>
<g id="a_node17"><a xlink:href="d9/df7/class_linearized_elasticity.html" target="_top" xlink:title="LinearizedElasticity">
<polygon fill="#ffffff" stroke="#000000" points="286.2974,-56.5 286.2974,-74.5 387.8931,-74.5 387.8931,-56.5 286.2974,-56.5"/>
<text text-anchor="middle" x="337.0952" y="-62.5" font-family="Helvetica,sans-Serif" font-size="10.00" fill="#000000">LinearizedElasticity</text>
</a>
</g>
</g>
<!-- Node14&#45;&gt;Node16 -->
<g id="edge16" class="edge">
<title>Node14&#45;&gt;Node16</title>
<path fill="none" stroke="#191970" d="M220.6904,-124.6733C251.85,-108.8336 295.061,-86.8677 319.1097,-74.6428"/>
<polygon fill="#191970" stroke="#191970" points="218.77,-121.7232 211.4417,-129.3748 221.9421,-127.9632 218.77,-121.7232"/>
</g>
<!-- Node17 -->
<g id="node18" class="node">
<title>Node17</title>
<g id="a_node18"><a xlink:href="d2/d69/classlinear_patch_test.html" target="_top" xlink:title="linearPatchTest">
<polygon fill="#ffffff" stroke="#000000" points="473.356,-74.5 473.356,-92.5 557.7251,-92.5 557.7251,-74.5 473.356,-74.5"/>
<text text-anchor="middle" x="515.5405" y="-80.5" font-family="Helvetica,sans-Serif" font-size="10.00" fill="#000000">linearPatchTest</text>
</a>
</g>
</g>
<!-- Node16&#45;&gt;Node17 -->
<g id="edge17" class="edge">
<title>Node16&#45;&gt;Node17</title>
<path fill="none" stroke="#191970" d="M398.2226,-71.666C422.8916,-74.1544 450.7517,-76.9647 473.1304,-79.222"/>
<polygon fill="#191970" stroke="#191970" points="398.5313,-68.1795 388.2305,-70.6581 397.8287,-75.1441 398.5313,-68.1795"/>
</g>
<!-- Node18 -->
<g id="node19" class="node">
<title>Node18</title>
<g id="a_node19"><a xlink:href="d7/da3/classmanufactured.html" target="_top" xlink:title="manufactured">
<polygon fill="#ffffff" stroke="#000000" points="476.9668,-37.5 476.9668,-55.5 554.1143,-55.5 554.1143,-37.5 476.9668,-37.5"/>
<text text-anchor="middle" x="515.5405" y="-43.5" font-family="Helvetica,sans-Serif" font-size="10.00" fill="#000000">manufactured</text>
</a>
</g>
</g>
<!-- Node16&#45;&gt;Node18 -->
<g id="edge18" class="edge">
<title>Node16&#45;&gt;Node18</title>
<path fill="none" stroke="#191970" d="M398.3852,-58.9741C424.4128,-56.2028 453.9674,-53.056 476.8807,-50.6163"/>
<polygon fill="#191970" stroke="#191970" points="397.8037,-55.5162 388.2305,-60.0554 398.5449,-62.4768 397.8037,-55.5162"/>
</g>
<!-- Node19 -->
<g id="node20" class="node">
<title>Node19</title>
<g id="a_node20"><a xlink:href="d0/daf/class_orthotropic_r_f___laminate.html" target="_top" xlink:title="OrthotropicRF_Laminate">
<polygon fill="#ffffff" stroke="#000000" points="452.7944,-.5 452.7944,-18.5 578.2866,-18.5 578.2866,-.5 452.7944,-.5"/>
<text text-anchor="middle" x="515.5405" y="-6.5" font-family="Helvetica,sans-Serif" font-size="10.00" fill="#000000">OrthotropicRF_Laminate</text>
</a>
</g>
</g>
<!-- Node16&#45;&gt;Node19 -->
<g id="edge19" class="edge">
<title>Node16&#45;&gt;Node19</title>
<path fill="none" stroke="#191970" d="M365.7152,-52.3246C383.3355,-44.5918 406.5429,-35.0784 427.7871,-28.5 440.1462,-24.6729 453.7156,-21.3302 466.4114,-18.5601"/>
<polygon fill="#191970" stroke="#191970" points="364.2596,-49.1414 356.5488,-56.4075 367.1078,-55.5358 364.2596,-49.1414"/>
</g>
</g>
</svg>
