<?xml version="1.0" encoding="UTF-8" standalone="no"?>
<!DOCTYPE svg PUBLIC "-//W3C//DTD SVG 1.1//EN"
 "http://www.w3.org/Graphics/SVG/1.1/DTD/svg11.dtd">
<!-- Generated by graphviz version 2.40.1 (20161225.0304)
 -->
<!-- Title: Graphical Class Hierarchy Pages: 1 -->
<svg width="773pt" height="418pt"
 viewBox="0.00 0.00 772.79 418.00" xmlns="http://www.w3.org/2000/svg" xmlns:xlink="http://www.w3.org/1999/xlink">
<g id="graph0" class="graph" transform="scale(1 1) rotate(0) translate(4 414)">
<title>Graphical Class Hierarchy</title>
<polygon fill="#ffffff" stroke="transparent" points="-4,4 -4,-414 768.791,-414 768.791,4 -4,4"/>
<!-- Node0 -->
<g id="node1" class="node">
<title>Node0</title>
<g id="a_node1"><a xlink:href="d2/d97/class_base_class_f_e_m.html" target="_top" xlink:title="BaseClassFEM">
<polygon fill="#ffffff" stroke="#000000" points="0,-167.5 0,-185.5 84.9063,-185.5 84.9063,-167.5 0,-167.5"/>
<text text-anchor="middle" x="42.4531" y="-173.5" font-family="Helvetica,sans-Serif" font-size="10.00" fill="#000000">BaseClassFEM</text>
</a>
</g>
</g>
<!-- Node1 -->
<g id="node2" class="node">
<title>Node1</title>
<g id="a_node2"><a xlink:href="d8/dc2/class_finite___element___problem.html" target="_top" xlink:title="Finite_Element_Problem">
<polygon fill="#ffffff" stroke="#000000" points="120.9063,-198.5 120.9063,-216.5 246.4033,-216.5 246.4033,-198.5 120.9063,-198.5"/>
<text text-anchor="middle" x="183.6548" y="-204.5" font-family="Helvetica,sans-Serif" font-size="10.00" fill="#000000">Finite_Element_Problem</text>
</a>
</g>
</g>
<!-- Node0&#45;&gt;Node1 -->
<g id="edge1" class="edge">
<title>Node0&#45;&gt;Node1</title>
<path fill="none" stroke="#191970" d="M93.5024,-187.7076C109.6487,-191.2524 127.2761,-195.1224 142.6267,-198.4925"/>
<polygon fill="#191970" stroke="#191970" points="94.192,-184.2757 83.6741,-185.5498 92.6909,-191.1129 94.192,-184.2757"/>
</g>
<!-- Node14 -->
<g id="node15" class="node">
<title>Node14</title>
<g id="a_node15"><a xlink:href="d3/d9f/class_linear___finite___element___problem.html" target="_top" xlink:title="Linear_Finite_Element\l_Problem">
<polygon fill="#ffffff" stroke="#000000" points="125.6255,-113.5 125.6255,-141.5 241.6841,-141.5 241.6841,-113.5 125.6255,-113.5"/>
<text text-anchor="start" x="133.6255" y="-129.5" font-family="Helvetica,sans-Serif" font-size="10.00" fill="#000000">Linear_Finite_Element</text>
<text text-anchor="middle" x="183.6548" y="-119.5" font-family="Helvetica,sans-Serif" font-size="10.00" fill="#000000">_Problem</text>
</a>
</g>
</g>
<!-- Node0&#45;&gt;Node14 -->
<g id="edge14" class="edge">
<title>Node0&#45;&gt;Node14</title>
<path fill="none" stroke="#191970" d="M78.2445,-164.0796C98.0195,-157.2173 122.6539,-148.6686 143.1344,-141.5614"/>
<polygon fill="#191970" stroke="#191970" points="76.981,-160.8133 68.6812,-167.3983 79.276,-167.4264 76.981,-160.8133"/>
</g>
<!-- Node2 -->
<g id="node3" class="node">
<title>Node2</title>
<g id="a_node3"><a xlink:href="dc/d5a/classhyperelasticity.html" target="_top" xlink:title="hyperelasticity">
<polygon fill="#ffffff" stroke="#000000" points="297.4155,-299.5 297.4155,-317.5 376.7749,-317.5 376.7749,-299.5 297.4155,-299.5"/>
<text text-anchor="middle" x="337.0952" y="-305.5" font-family="Helvetica,sans-Serif" font-size="10.00" fill="#000000">hyperelasticity</text>
</a>
</g>
</g>
<!-- Node1&#45;&gt;Node2 -->
<g id="edge2" class="edge">
<title>Node1&#45;&gt;Node2</title>
<path fill="none" stroke="#191970" d="M206.2878,-222.3978C238.5753,-243.6507 296.8743,-282.0252 323.3497,-299.4522"/>
<polygon fill="#191970" stroke="#191970" points="207.8195,-219.2159 197.5422,-216.6412 203.9707,-225.0629 207.8195,-219.2159"/>
</g>
<!-- Node9 -->
<g id="node10" class="node">
<title>Node9</title>
<g id="a_node10"><a xlink:href="d8/daf/classhyperelasticity__setup.html" target="_top" xlink:title="hyperelasticity_setup">
<polygon fill="#ffffff" stroke="#000000" points="282.4033,-198.5 282.4033,-216.5 391.7871,-216.5 391.7871,-198.5 282.4033,-198.5"/>
<text text-anchor="middle" x="337.0952" y="-204.5" font-family="Helvetica,sans-Serif" font-size="10.00" fill="#000000">hyperelasticity_setup</text>
</a>
</g>
</g>
<!-- Node1&#45;&gt;Node9 -->
<g id="edge9" class="edge">
<title>Node1&#45;&gt;Node9</title>
<path fill="none" stroke="#191970" d="M256.7838,-207.5C265.2551,-207.5 273.7849,-207.5 281.9588,-207.5"/>
<polygon fill="#191970" stroke="#191970" points="256.5076,-204.0001 246.5076,-207.5 256.5076,-211.0001 256.5076,-204.0001"/>
</g>
<!-- Node3 -->
<g id="node4" class="node">
<title>Node3</title>
<g id="a_node4"><a xlink:href="d1/d5c/classcompressible_hyperelasticity.html" target="_top" xlink:title="compressibleHyperelasticity">
<polygon fill="#ffffff" stroke="#000000" points="445.5752,-336.5 445.5752,-354.5 585.5059,-354.5 585.5059,-336.5 445.5752,-336.5"/>
<text text-anchor="middle" x="515.5405" y="-342.5" font-family="Helvetica,sans-Serif" font-size="10.00" fill="#000000">compressibleHyperelasticity</text>
</a>
</g>
</g>
<!-- Node2&#45;&gt;Node3 -->
<g id="edge3" class="edge">
<title>Node2&#45;&gt;Node3</title>
<path fill="none" stroke="#191970" d="M386.7608,-318.9442C400.0828,-321.735 414.4816,-324.7416 427.7871,-327.5 441.9495,-330.436 457.4031,-333.6143 471.3408,-336.4714"/>
<polygon fill="#191970" stroke="#191970" points="387.3247,-315.4864 376.8193,-316.8599 385.8883,-322.3375 387.3247,-315.4864"/>
</g>
<!-- Node8 -->
<g id="node9" class="node">
<title>Node8</title>
<g id="a_node9"><a xlink:href="d0/d85/classnearly_incompressible_hyperelasticity.html" target="_top" xlink:title="nearlyIncompressibleHyperelasticity">
<polygon fill="#ffffff" stroke="#000000" points="427.7871,-299.5 427.7871,-317.5 603.2939,-317.5 603.2939,-299.5 427.7871,-299.5"/>
<text text-anchor="middle" x="515.5405" y="-305.5" font-family="Helvetica,sans-Serif" font-size="10.00" fill="#000000">nearlyIncompressibleHyperelasticity</text>
</a>
</g>
</g>
<!-- Node2&#45;&gt;Node8 -->
<g id="edge8" class="edge">
<title>Node2&#45;&gt;Node8</title>
<path fill="none" stroke="#191970" d="M387.3456,-308.5C399.8853,-308.5 413.7031,-308.5 427.4839,-308.5"/>
<polygon fill="#191970" stroke="#191970" points="387.1419,-305.0001 377.1418,-308.5 387.1418,-312.0001 387.1419,-305.0001"/>
</g>
<!-- Node4 -->
<g id="node5" class="node">
<title>Node4</title>
<g id="a_node5"><a xlink:href="d1/dbe/classmanufactured_solution.html" target="_top" xlink:title="manufacturedSolution">
<polygon fill="#ffffff" stroke="#000000" points="645.3999,-391.5 645.3999,-409.5 758.6851,-409.5 758.6851,-391.5 645.3999,-391.5"/>
<text text-anchor="middle" x="702.0425" y="-397.5" font-family="Helvetica,sans-Serif" font-size="10.00" fill="#000000">manufacturedSolution</text>
</a>
</g>
</g>
<!-- Node3&#45;&gt;Node4 -->
<g id="edge4" class="edge">
<title>Node3&#45;&gt;Node4</title>
<path fill="none" stroke="#191970" d="M555.1018,-357.4506C579.3781,-364.7534 611.1113,-374.245 639.2939,-382.5 649.3001,-385.4309 660.2183,-388.5799 670.1008,-391.4118"/>
<polygon fill="#191970" stroke="#191970" points="556.1055,-354.0976 545.521,-354.5657 554.0872,-360.8004 556.1055,-354.0976"/>
</g>
<!-- Node5 -->
<g id="node6" class="node">
<title>Node5</title>
<g id="a_node6"><a xlink:href="dd/d20/classrubberblock.html" target="_top" xlink:title="rubberblock">
<polygon fill="#ffffff" stroke="#000000" points="667.917,-354.5 667.917,-372.5 736.168,-372.5 736.168,-354.5 667.917,-354.5"/>
<text text-anchor="middle" x="702.0425" y="-360.5" font-family="Helvetica,sans-Serif" font-size="10.00" fill="#000000">rubberblock</text>
</a>
</g>
</g>
<!-- Node3&#45;&gt;Node5 -->
<g id="edge5" class="edge">
<title>Node3&#45;&gt;Node5</title>
<path fill="none" stroke="#191970" d="M595.5078,-353.2179C620.8161,-355.6605 647.457,-358.2318 667.7673,-360.192"/>
<polygon fill="#191970" stroke="#191970" points="595.8076,-349.7307 585.5176,-352.2537 595.1351,-356.6983 595.8076,-349.7307"/>
</g>
<!-- Node6 -->
<g id="node7" class="node">
<title>Node6</title>
<g id="a_node7"><a xlink:href="de/dd1/class_t_i_mooney.html" target="_top" xlink:title="TIMooney">
<polygon fill="#ffffff" stroke="#000000" points="671.811,-317.5 671.811,-335.5 732.2739,-335.5 732.2739,-317.5 671.811,-317.5"/>
<text text-anchor="middle" x="702.0425" y="-323.5" font-family="Helvetica,sans-Serif" font-size="10.00" fill="#000000">TIMooney</text>
</a>
</g>
</g>
<!-- Node3&#45;&gt;Node6 -->
<g id="edge6" class="edge">
<title>Node3&#45;&gt;Node6</title>
<path fill="none" stroke="#191970" d="M595.7449,-337.3291C622.6693,-334.5862 651.0739,-331.6925 671.7406,-329.587"/>
<polygon fill="#191970" stroke="#191970" points="595.1113,-333.8755 585.5176,-338.371 595.8209,-340.8394 595.1113,-333.8755"/>
</g>
<!-- Node7 -->
<g id="node8" class="node">
<title>Node7</title>
<g id="a_node8"><a xlink:href="d1/dd7/class_t_i_mooney___random_field.html" target="_top" xlink:title="TIMooney_RandomField">
<polygon fill="#ffffff" stroke="#000000" points="639.2939,-280.5 639.2939,-298.5 764.791,-298.5 764.791,-280.5 639.2939,-280.5"/>
<text text-anchor="middle" x="702.0425" y="-286.5" font-family="Helvetica,sans-Serif" font-size="10.00" fill="#000000">TIMooney_RandomField</text>
</a>
</g>
</g>
<!-- Node3&#45;&gt;Node7 -->
<g id="edge7" class="edge">
<title>Node3&#45;&gt;Node7</title>
<path fill="none" stroke="#191970" d="M581.8641,-333.9959C589.1779,-332.1085 596.4492,-329.9518 603.2939,-327.5 620.3259,-321.399 622.5596,-315.3752 639.2939,-308.5 648.3483,-304.78 658.4007,-301.4152 667.7588,-298.5867"/>
<polygon fill="#191970" stroke="#191970" points="580.7976,-330.6529 571.9004,-336.4054 582.443,-337.4568 580.7976,-330.6529"/>
</g>
<!-- Node10 -->
<g id="node11" class="node">
<title>Node10</title>
<g id="a_node11"><a xlink:href="da/d5f/class_dirichlet_inlet_outlet___polyconvex_h_g_o.html" target="_top" xlink:title="DirichletInletOutlet\l_PolyconvexHGO">
<polygon fill="#ffffff" stroke="#000000" points="466.6909,-252.5 466.6909,-280.5 564.3901,-280.5 564.3901,-252.5 466.6909,-252.5"/>
<text text-anchor="start" x="474.6909" y="-268.5" font-family="Helvetica,sans-Serif" font-size="10.00" fill="#000000">DirichletInletOutlet</text>
<text text-anchor="middle" x="515.5405" y="-258.5" font-family="Helvetica,sans-Serif" font-size="10.00" fill="#000000">_PolyconvexHGO</text>
</a>
</g>
</g>
<!-- Node9&#45;&gt;Node10 -->
<g id="edge10" class="edge">
<title>Node9&#45;&gt;Node10</title>
<path fill="none" stroke="#191970" d="M367.3752,-220.59C384.8437,-227.8705 407.3356,-236.7883 427.7871,-243.5 440.2075,-247.5761 453.7985,-251.4268 466.4954,-254.7698"/>
<polygon fill="#191970" stroke="#191970" points="368.2982,-217.1808 357.7238,-216.5215 365.5791,-223.6311 368.2982,-217.1808"/>
</g>
<!-- Node11 -->
<g id="node12" class="node">
<title>Node11</title>
<g id="a_node12"><a xlink:href="d0/de4/class_dirichlet_strip_elongation___stochastic_polyconvex_h_g_o.html" target="_top" xlink:title="DirichletStripElongation\l_StochasticPolyconvexHGO">
<polygon fill="#ffffff" stroke="#000000" points="444.7354,-205.5 444.7354,-233.5 586.3457,-233.5 586.3457,-205.5 444.7354,-205.5"/>
<text text-anchor="start" x="452.7354" y="-221.5" font-family="Helvetica,sans-Serif" font-size="10.00" fill="#000000">DirichletStripElongation</text>
<text text-anchor="middle" x="515.5405" y="-211.5" font-family="Helvetica,sans-Serif" font-size="10.00" fill="#000000">_StochasticPolyconvexHGO</text>
</a>
</g>
</g>
<!-- Node9&#45;&gt;Node11 -->
<g id="edge11" class="edge">
<title>Node9&#45;&gt;Node11</title>
<path fill="none" stroke="#191970" d="M402.4066,-211.892C416.1355,-212.8153 430.68,-213.7933 444.6037,-214.7297"/>
<polygon fill="#191970" stroke="#191970" points="402.3031,-208.3772 392.0907,-211.1983 401.8333,-215.3615 402.3031,-208.3772"/>
</g>
<!-- Node12 -->
<g id="node13" class="node">
<title>Node12</title>
<g id="a_node13"><a xlink:href="de/d4c/class_neumann_inner_surface___polyconvex_h_g_o.html" target="_top" xlink:title="NeumannInnerSurface\l_PolyconvexHGO">
<polygon fill="#ffffff" stroke="#000000" points="457.2329,-158.5 457.2329,-186.5 573.8481,-186.5 573.8481,-158.5 457.2329,-158.5"/>
<text text-anchor="start" x="465.2329" y="-174.5" font-family="Helvetica,sans-Serif" font-size="10.00" fill="#000000">NeumannInnerSurface</text>
<text text-anchor="middle" x="515.5405" y="-164.5" font-family="Helvetica,sans-Serif" font-size="10.00" fill="#000000">_PolyconvexHGO</text>
</a>
</g>
</g>
<!-- Node9&#45;&gt;Node12 -->
<g id="edge12" class="edge">
<title>Node9&#45;&gt;Node12</title>
<path fill="none" stroke="#191970" d="M393.0894,-196.5174C413.4001,-192.5337 436.3908,-188.0243 456.9217,-183.9974"/>
<polygon fill="#191970" stroke="#191970" points="392.1887,-193.1273 383.0493,-198.4866 393.536,-199.9964 392.1887,-193.1273"/>
</g>
<!-- Node13 -->
<g id="node14" class="node">
<title>Node13</title>
<g id="a_node14"><a xlink:href="dd/d43/class_neumann_inner_surface___stochastic_polyconvex_h_g_o.html" target="_top" xlink:title="NeumannInnerSurface\l_StochasticPolyconvexHGO">
<polygon fill="#ffffff" stroke="#000000" points="444.7354,-111.5 444.7354,-139.5 586.3457,-139.5 586.3457,-111.5 444.7354,-111.5"/>
<text text-anchor="start" x="452.7354" y="-127.5" font-family="Helvetica,sans-Serif" font-size="10.00" fill="#000000">NeumannInnerSurface</text>
<text text-anchor="middle" x="515.5405" y="-117.5" font-family="Helvetica,sans-Serif" font-size="10.00" fill="#000000">_StochasticPolyconvexHGO</text>
</a>
</g>
</g>
<!-- Node9&#45;&gt;Node13 -->
<g id="edge13" class="edge">
<title>Node9&#45;&gt;Node13</title>
<path fill="none" stroke="#191970" d="M356.7598,-192.0314C374.4473,-178.7912 401.6034,-160.0847 427.7871,-148.5 435.4206,-145.1226 443.6546,-142.1579 451.9134,-139.5797"/>
<polygon fill="#191970" stroke="#191970" points="354.2544,-189.5406 348.4288,-198.3901 358.5015,-195.105 354.2544,-189.5406"/>
</g>
<!-- Node15 -->
<g id="node16" class="node">
<title>Node15</title>
<g id="a_node16"><a xlink:href="d7/d76/classlaplace.html" target="_top" xlink:title="laplace">
<polygon fill="#ffffff" stroke="#000000" points="313.2505,-118.5 313.2505,-136.5 360.9399,-136.5 360.9399,-118.5 313.2505,-118.5"/>
<text text-anchor="middle" x="337.0952" y="-124.5" font-family="Helvetica,sans-Serif" font-size="10.00" fill="#000000">laplace</text>
</a>
</g>
</g>
<!-- Node14&#45;&gt;Node15 -->
<g id="edge15" class="edge">
<title>Node14&#45;&gt;Node15</title>
<path fill="none" stroke="#191970" d="M252.3673,-127.5C274.1719,-127.5 296.8487,-127.5 313.2491,-127.5"/>
<polygon fill="#191970" stroke="#191970" points="252.1018,-124.0001 242.1018,-127.5 252.1017,-131.0001 252.1018,-124.0001"/>
</g>
<!-- Node16 -->
<g id="node17" class="node">
<title>Node16</title>
<g id="a_node17"><a xlink:href="d9/df7/class_linearized_elasticity.html" target="_top" xlink:title="LinearizedElasticity">
<polygon fill="#ffffff" stroke="#000000" points="286.2974,-56.5 286.2974,-74.5 387.8931,-74.5 387.8931,-56.5 286.2974,-56.5"/>
<text text-anchor="middle" x="337.0952" y="-62.5" font-family="Helvetica,sans-Serif" font-size="10.00" fill="#000000">LinearizedElasticity</text>
</a>
</g>
</g>
<!-- Node14&#45;&gt;Node16 -->
<g id="edge16" class="edge">
<title>Node14&#45;&gt;Node16</title>
<path fill="none" stroke="#191970" d="M227.8112,-109.6579C256.2641,-98.1611 292.054,-83.6996 314.7606,-74.5247"/>
<polygon fill="#191970" stroke="#191970" points="226.4333,-106.4397 218.4728,-113.4312 229.0558,-112.9299 226.4333,-106.4397"/>
</g>
<!-- Node17 -->
<g id="node18" class="node">
<title>Node17</title>
<g id="a_node18"><a xlink:href="d2/d69/classlinear_patch_test.html" target="_top" xlink:title="linearPatchTest">
<polygon fill="#ffffff" stroke="#000000" points="473.356,-74.5 473.356,-92.5 557.7251,-92.5 557.7251,-74.5 473.356,-74.5"/>
<text text-anchor="middle" x="515.5405" y="-80.5" font-family="Helvetica,sans-Serif" font-size="10.00" fill="#000000">linearPatchTest</text>
</a>
</g>
</g>
<!-- Node16&#45;&gt;Node17 -->
<g id="edge17" class="edge">
<title>Node16&#45;&gt;Node17</title>
<path fill="none" stroke="#191970" d="M398.2226,-71.666C422.8916,-74.1544 450.7517,-76.9647 473.1304,-79.222"/>
<polygon fill="#191970" stroke="#191970" points="398.5313,-68.1795 388.2305,-70.6581 397.8287,-75.1441 398.5313,-68.1795"/>
</g>
<!-- Node18 -->
<g id="node19" class="node">
<title>Node18</title>
<g id="a_node19"><a xlink:href="d7/da3/classmanufactured.html" target="_top" xlink:title="manufactured">
<polygon fill="#ffffff" stroke="#000000" points="476.9668,-37.5 476.9668,-55.5 554.1143,-55.5 554.1143,-37.5 476.9668,-37.5"/>
<text text-anchor="middle" x="515.5405" y="-43.5" font-family="Helvetica,sans-Serif" font-size="10.00" fill="#000000">manufactured</text>
</a>
</g>
</g>
<!-- Node16&#45;&gt;Node18 -->
<g id="edge18" class="edge">
<title>Node16&#45;&gt;Node18</title>
<path fill="none" stroke="#191970" d="M398.3852,-58.9741C424.4128,-56.2028 453.9674,-53.056 476.8807,-50.6163"/>
<polygon fill="#191970" stroke="#191970" points="397.8037,-55.5162 388.2305,-60.0554 398.5449,-62.4768 397.8037,-55.5162"/>
</g>
<!-- Node19 -->
<g id="node20" class="node">
<title>Node19</title>
<g id="a_node20"><a xlink:href="d0/daf/class_orthotropic_r_f___laminate.html" target="_top" xlink:title="OrthotropicRF_Laminate">
<polygon fill="#ffffff" stroke="#000000" points="452.7944,-.5 452.7944,-18.5 578.2866,-18.5 578.2866,-.5 452.7944,-.5"/>
<text text-anchor="middle" x="515.5405" y="-6.5" font-family="Helvetica,sans-Serif" font-size="10.00" fill="#000000">OrthotropicRF_Laminate</text>
</a>
</g>
</g>
<!-- Node16&#45;&gt;Node19 -->
<g id="edge19" class="edge">
<title>Node16&#45;&gt;Node19</title>
<path fill="none" stroke="#191970" d="M364.9738,-52.1561C382.6505,-44.1151 406.1799,-34.1732 427.7871,-27.5 439.0804,-24.0122 451.4025,-21.0088 463.1471,-18.5097"/>
<polygon fill="#191970" stroke="#191970" points="363.4131,-49.0216 355.8049,-56.3949 366.3506,-55.3755 363.4131,-49.0216"/>
</g>
</g>
</svg>
