<?xml version="1.0" encoding="UTF-8" standalone="no"?>
<!DOCTYPE svg PUBLIC "-//W3C//DTD SVG 1.1//EN"
 "http://www.w3.org/Graphics/SVG/1.1/DTD/svg11.dtd">
<!-- Generated by graphviz version 2.40.1 (20161225.0304)
 -->
<!-- Title: Graphical Class Hierarchy Pages: 1 -->
<svg width="456pt" height="326pt"
 viewBox="0.00 0.00 456.49 326.00" xmlns="http://www.w3.org/2000/svg" xmlns:xlink="http://www.w3.org/1999/xlink">
<g id="graph0" class="graph" transform="scale(1 1) rotate(0) translate(4 322)">
<title>Graphical Class Hierarchy</title>
<polygon fill="#ffffff" stroke="transparent" points="-4,4 -4,-322 452.4912,-322 452.4912,4 -4,4"/>
<!-- Node0 -->
<g id="node1" class="node">
<title>Node0</title>
<g id="a_node1"><a xlink:href="d8/dc2/class_finite___element___problem.html" target="_top" xlink:title="Finite_Element_Problem">
<polygon fill="#ffffff" stroke="#000000" points="0,-139.5 0,-157.5 125.4971,-157.5 125.4971,-139.5 0,-139.5"/>
<text text-anchor="middle" x="62.7485" y="-145.5" font-family="Helvetica,sans-Serif" font-size="10.00" fill="#000000">Finite_Element_Problem</text>
</a>
</g>
</g>
<!-- Node1 -->
<g id="node2" class="node">
<title>Node1</title>
<g id="a_node2"><a xlink:href="d8/daf/classhyperelasticity__setup.html" target="_top" xlink:title="hyperelasticity_setup">
<polygon fill="#ffffff" stroke="#000000" points="161.4971,-139.5 161.4971,-157.5 270.8809,-157.5 270.8809,-139.5 161.4971,-139.5"/>
<text text-anchor="middle" x="216.189" y="-145.5" font-family="Helvetica,sans-Serif" font-size="10.00" fill="#000000">hyperelasticity_setup</text>
</a>
</g>
</g>
<!-- Node0&#45;&gt;Node1 -->
<g id="edge1" class="edge">
<title>Node0&#45;&gt;Node1</title>
<path fill="none" stroke="#191970" d="M135.8776,-148.5C144.3488,-148.5 152.8786,-148.5 161.0526,-148.5"/>
<polygon fill="#191970" stroke="#191970" points="135.6014,-145.0001 125.6014,-148.5 135.6013,-152.0001 135.6014,-145.0001"/>
</g>
<!-- Node2 -->
<g id="node3" class="node">
<title>Node2</title>
<g id="a_node3"><a xlink:href="da/d5f/class_dirichlet_inlet_outlet___polyconvex_h_g_o.html" target="_top" xlink:title="DirichletInletOutlet\l_PolyconvexHGO">
<polygon fill="#ffffff" stroke="#000000" points="328.8364,-289.5 328.8364,-317.5 426.5356,-317.5 426.5356,-289.5 328.8364,-289.5"/>
<text text-anchor="start" x="336.8364" y="-305.5" font-family="Helvetica,sans-Serif" font-size="10.00" fill="#000000">DirichletInletOutlet</text>
<text text-anchor="middle" x="377.686" y="-295.5" font-family="Helvetica,sans-Serif" font-size="10.00" fill="#000000">_PolyconvexHGO</text>
</a>
</g>
</g>
<!-- Node1&#45;&gt;Node2 -->
<g id="edge2" class="edge">
<title>Node1&#45;&gt;Node2</title>
<path fill="none" stroke="#191970" d="M224.0611,-166.9333C237.1389,-195.4057 266.0082,-249.9766 306.8809,-280.5 313.405,-285.3722 321.0062,-289.2393 328.7591,-292.3009"/>
<polygon fill="#191970" stroke="#191970" points="227.2247,-165.4334 219.9645,-157.7171 220.8281,-168.2767 227.2247,-165.4334"/>
</g>
<!-- Node3 -->
<g id="node4" class="node">
<title>Node3</title>
<g id="a_node4"><a xlink:href="d0/de4/class_dirichlet_strip_elongation___stochastic_polyconvex_h_g_o.html" target="_top" xlink:title="DirichletStripElongation\l_StochasticPolyconvexHGO">
<polygon fill="#ffffff" stroke="#000000" points="306.8809,-242.5 306.8809,-270.5 448.4912,-270.5 448.4912,-242.5 306.8809,-242.5"/>
<text text-anchor="start" x="314.8809" y="-258.5" font-family="Helvetica,sans-Serif" font-size="10.00" fill="#000000">DirichletStripElongation</text>
<text text-anchor="middle" x="377.686" y="-248.5" font-family="Helvetica,sans-Serif" font-size="10.00" fill="#000000">_StochasticPolyconvexHGO</text>
</a>
</g>
</g>
<!-- Node1&#45;&gt;Node3 -->
<g id="edge3" class="edge">
<title>Node1&#45;&gt;Node3</title>
<path fill="none" stroke="#191970" d="M230.0921,-165.4059C246.5838,-184.4494 275.7838,-215.1312 306.8809,-233.5 312.6676,-236.9182 319.0249,-239.8967 325.4822,-242.4732"/>
<polygon fill="#191970" stroke="#191970" points="232.5817,-162.93 223.4479,-157.5612 227.2402,-167.4541 232.5817,-162.93"/>
</g>
<!-- Node4 -->
<g id="node5" class="node">
<title>Node4</title>
<g id="a_node5"><a xlink:href="d1/dbe/classmanufactured_solution.html" target="_top" xlink:title="manufacturedSolution">
<polygon fill="#ffffff" stroke="#000000" points="321.0435,-205.5 321.0435,-223.5 434.3286,-223.5 434.3286,-205.5 321.0435,-205.5"/>
<text text-anchor="middle" x="377.686" y="-211.5" font-family="Helvetica,sans-Serif" font-size="10.00" fill="#000000">manufacturedSolution</text>
</a>
</g>
</g>
<!-- Node1&#45;&gt;Node4 -->
<g id="edge4" class="edge">
<title>Node1&#45;&gt;Node4</title>
<path fill="none" stroke="#191970" d="M239.3641,-162.7449C257.2716,-173.2571 282.9586,-187.2802 306.8809,-196.5 315.8755,-199.9666 325.7699,-202.9613 335.2372,-205.4588"/>
<polygon fill="#191970" stroke="#191970" points="241.1404,-159.7291 230.7593,-157.6118 237.5542,-165.7407 241.1404,-159.7291"/>
</g>
<!-- Node5 -->
<g id="node6" class="node">
<title>Node5</title>
<g id="a_node6"><a xlink:href="de/d4c/class_neumann_inner_surface___polyconvex_h_g_o.html" target="_top" xlink:title="NeumannInnerSurface\l_PolyconvexHGO">
<polygon fill="#ffffff" stroke="#000000" points="319.3784,-158.5 319.3784,-186.5 435.9937,-186.5 435.9937,-158.5 319.3784,-158.5"/>
<text text-anchor="start" x="327.3784" y="-174.5" font-family="Helvetica,sans-Serif" font-size="10.00" fill="#000000">NeumannInnerSurface</text>
<text text-anchor="middle" x="377.686" y="-164.5" font-family="Helvetica,sans-Serif" font-size="10.00" fill="#000000">_PolyconvexHGO</text>
</a>
</g>
</g>
<!-- Node1&#45;&gt;Node5 -->
<g id="edge5" class="edge">
<title>Node1&#45;&gt;Node5</title>
<path fill="none" stroke="#191970" d="M281.2494,-158.1686C293.8074,-160.0348 306.8919,-161.9793 319.224,-163.812"/>
<polygon fill="#191970" stroke="#191970" points="281.7213,-154.7004 271.3154,-156.6923 280.6923,-161.6243 281.7213,-154.7004"/>
</g>
<!-- Node6 -->
<g id="node7" class="node">
<title>Node6</title>
<g id="a_node7"><a xlink:href="dd/d43/class_neumann_inner_surface___stochastic_polyconvex_h_g_o.html" target="_top" xlink:title="NeumannInnerSurface\l_StochasticPolyconvexHGO">
<polygon fill="#ffffff" stroke="#000000" points="306.8809,-111.5 306.8809,-139.5 448.4912,-139.5 448.4912,-111.5 306.8809,-111.5"/>
<text text-anchor="start" x="314.8809" y="-127.5" font-family="Helvetica,sans-Serif" font-size="10.00" fill="#000000">NeumannInnerSurface</text>
<text text-anchor="middle" x="377.686" y="-117.5" font-family="Helvetica,sans-Serif" font-size="10.00" fill="#000000">_StochasticPolyconvexHGO</text>
</a>
</g>
</g>
<!-- Node1&#45;&gt;Node6 -->
<g id="edge6" class="edge">
<title>Node1&#45;&gt;Node6</title>
<path fill="none" stroke="#191970" d="M281.3862,-139.2148C289.7576,-138.0225 298.3607,-136.7973 306.8171,-135.593"/>
<polygon fill="#191970" stroke="#191970" points="280.722,-135.774 271.3154,-140.649 281.709,-142.704 280.722,-135.774"/>
</g>
<!-- Node7 -->
<g id="node8" class="node">
<title>Node7</title>
<g id="a_node8"><a xlink:href="dd/d20/classrubberblock.html" target="_top" xlink:title="rubberblock">
<polygon fill="#ffffff" stroke="#000000" points="343.5605,-74.5 343.5605,-92.5 411.8115,-92.5 411.8115,-74.5 343.5605,-74.5"/>
<text text-anchor="middle" x="377.686" y="-80.5" font-family="Helvetica,sans-Serif" font-size="10.00" fill="#000000">rubberblock</text>
</a>
</g>
</g>
<!-- Node1&#45;&gt;Node7 -->
<g id="edge7" class="edge">
<title>Node1&#45;&gt;Node7</title>
<path fill="none" stroke="#191970" d="M240.9355,-134.1837C258.8177,-124.2807 283.7892,-111.3446 306.8809,-102.5 318.5286,-98.0387 331.6347,-94.2087 343.3757,-91.1805"/>
<polygon fill="#191970" stroke="#191970" points="238.7881,-131.3757 231.7873,-139.3281 242.2193,-137.4772 238.7881,-131.3757"/>
</g>
<!-- Node8 -->
<g id="node9" class="node">
<title>Node8</title>
<g id="a_node9"><a xlink:href="de/dd1/class_t_i_mooney.html" target="_top" xlink:title="TIMooney">
<polygon fill="#ffffff" stroke="#000000" points="347.4546,-37.5 347.4546,-55.5 407.9175,-55.5 407.9175,-37.5 347.4546,-37.5"/>
<text text-anchor="middle" x="377.686" y="-43.5" font-family="Helvetica,sans-Serif" font-size="10.00" fill="#000000">TIMooney</text>
</a>
</g>
</g>
<!-- Node1&#45;&gt;Node8 -->
<g id="edge8" class="edge">
<title>Node1&#45;&gt;Node8</title>
<path fill="none" stroke="#191970" d="M230.0116,-131.7191C246.4289,-112.8711 275.5601,-82.678 306.8809,-65.5 319.2677,-58.7064 334.2244,-54.2321 347.1937,-51.343"/>
<polygon fill="#191970" stroke="#191970" points="227.2127,-129.6076 223.401,-139.4931 232.5454,-134.1423 227.2127,-129.6076"/>
</g>
<!-- Node9 -->
<g id="node10" class="node">
<title>Node9</title>
<g id="a_node10"><a xlink:href="d1/dd7/class_t_i_mooney___random_field.html" target="_top" xlink:title="TIMooney_RandomField">
<polygon fill="#ffffff" stroke="#000000" points="314.9375,-.5 314.9375,-18.5 440.4346,-18.5 440.4346,-.5 314.9375,-.5"/>
<text text-anchor="middle" x="377.686" y="-6.5" font-family="Helvetica,sans-Serif" font-size="10.00" fill="#000000">TIMooney_RandomField</text>
</a>
</g>
</g>
<!-- Node1&#45;&gt;Node9 -->
<g id="edge9" class="edge">
<title>Node1&#45;&gt;Node9</title>
<path fill="none" stroke="#191970" d="M224.9117,-130.3884C238.6115,-103.9028 267.7053,-54.8945 306.8809,-28.5 313.0029,-24.3753 319.9854,-21.1443 327.1241,-18.6138"/>
<polygon fill="#191970" stroke="#191970" points="221.7759,-128.8339 220.426,-139.3424 228.0344,-131.9693 221.7759,-128.8339"/>
</g>
</g>
</svg>
