<?xml version="1.0" encoding="UTF-8" standalone="no"?>
<!DOCTYPE svg PUBLIC "-//W3C//DTD SVG 1.1//EN"
 "http://www.w3.org/Graphics/SVG/1.1/DTD/svg11.dtd">
<!-- Generated by graphviz version 2.40.1 (20161225.0304)
 -->
<!-- Title: arteries/strip_dirichlet/main.cpp Pages: 1 -->
<!--zoomable 453 -->
<svg id="main" version="1.1" xmlns="http://www.w3.org/2000/svg" xmlns:xlink="http://www.w3.org/1999/xlink" xml:space="preserve" onload="init(evt)">
<style type="text/css"><![CDATA[
.edge:hover path { stroke: red; }
.edge:hover polygon { stroke: red; fill: red; }
]]></style>
<script type="text/javascript"><![CDATA[
var edges = document.getElementsByTagName('g');
if (edges && edges.length) {
  for (var i=0;i<edges.length;i++) {
    if (edges[i].id.substr(0,4)=='edge') {
      edges[i].setAttribute('class','edge');
    }
  }
}
]]></script>
        <defs>
                <circle id="rim" cx="0" cy="0" r="7"/>
                <circle id="rim2" cx="0" cy="0" r="3.5"/>
                <g id="zoomPlus">
                        <use xlink:href="#rim" fill="#404040">
                                <set attributeName="fill" to="#808080" begin="zoomplus.mouseover" end="zoomplus.mouseout"/>
                        </use>
                        <path d="M-4,0h8M0,-4v8" fill="none" stroke="white" stroke-width="1.5" pointer-events="none"/>
                </g>
                <g id="zoomMin">
                        <use xlink:href="#rim" fill="#404040">
                                <set attributeName="fill" to="#808080" begin="zoomminus.mouseover" end="zoomminus.mouseout"/>
                        </use>
                        <path d="M-4,0h8" fill="none" stroke="white" stroke-width="1.5" pointer-events="none"/>
                </g>
                <g id="dirArrow">
                        <path fill="none" stroke="white" stroke-width="1.5" d="M0,-3.0v7 M-2.5,-0.5L0,-3.0L2.5,-0.5"/>
                </g>
               <g id="resetDef">
                       <use xlink:href="#rim2" fill="#404040">
                               <set attributeName="fill" to="#808080" begin="reset.mouseover" end="reset.mouseout"/>
                       </use>
               </g>
        </defs>

<script type="text/javascript">
var viewWidth = 2651;
var viewHeight = 453;
var sectionId = 'dynsection-0';
</script>
<script xlink:href="../../svgpan.js"/>
<svg id="graph" class="graph">
<g id="viewport">
<title>arteries/strip_dirichlet/main.cpp</title>
<polygon fill="#ffffff" stroke="transparent" points="-4,4 -4,-449 2646.5,-449 2646.5,4 -4,4"/>
<!-- Node0 -->
<g id="node1" class="node">
<title>Node0</title>
<polygon fill="#bfbfbf" stroke="#000000" points="992.5,-414.5 992.5,-444.5 1102.5,-444.5 1102.5,-414.5 992.5,-414.5"/>
<text text-anchor="start" x="1000.5" y="-432.5" font-family="Helvetica,sans-Serif" font-size="10.00" fill="#000000">arteries/strip_dirichlet</text>
<text text-anchor="middle" x="1047.5" y="-421.5" font-family="Helvetica,sans-Serif" font-size="10.00" fill="#000000">/main.cpp</text>
</g>
<!-- Node1 -->
<g id="node2" class="node">
<title>Node1</title>
<polygon fill="#ffffff" stroke="#bfbfbf" points="331.5,-353 331.5,-372 439.5,-372 439.5,-353 331.5,-353"/>
<text text-anchor="middle" x="385.5" y="-360" font-family="Helvetica,sans-Serif" font-size="10.00" fill="#000000">Epetra_ConfigDefs.h</text>
</g>
<!-- Node0&#45;&gt;Node1 -->
<g id="edge1" class="edge">
<title>Node0&#45;&gt;Node1</title>
<path fill="none" stroke="#191970" d="M992.2248,-427.6194C886.1633,-423.3777 647.0029,-410.7482 448.5,-378 442.5196,-377.0134 436.2697,-375.7567 430.1278,-374.387"/>
<polygon fill="#191970" stroke="#191970" points="430.4951,-370.8782 419.9601,-372.003 428.8971,-377.6934 430.4951,-370.8782"/>
</g>
<!-- Node2 -->
<g id="node3" class="node">
<title>Node2</title>
<polygon fill="#ffffff" stroke="#bfbfbf" points="458,-353 458,-372 571,-372 571,-353 458,-353"/>
<text text-anchor="middle" x="514.5" y="-360" font-family="Helvetica,sans-Serif" font-size="10.00" fill="#000000">Epetra_SerialComm.h</text>
</g>
<!-- Node0&#45;&gt;Node2 -->
<g id="edge2" class="edge">
<title>Node0&#45;&gt;Node2</title>
<path fill="none" stroke="#191970" d="M992.2011,-425.5773C904.4755,-418.8667 728.2141,-403.3944 580.5,-378 574.3339,-376.94 567.8829,-375.6518 561.5312,-374.2761"/>
<polygon fill="#191970" stroke="#191970" points="562.211,-370.8416 551.6868,-372.0622 560.6751,-377.6711 562.211,-370.8416"/>
</g>
<!-- Node3 -->
<g id="node4" class="node">
<title>Node3</title>
<polygon fill="#ffffff" stroke="#bfbfbf" points="589,-353 589,-372 774,-372 774,-353 589,-353"/>
<text text-anchor="middle" x="681.5" y="-360" font-family="Helvetica,sans-Serif" font-size="10.00" fill="#000000">Teuchos_CommandLineProcessor.hpp</text>
</g>
<!-- Node0&#45;&gt;Node3 -->
<g id="edge3" class="edge">
<title>Node0&#45;&gt;Node3</title>
<path fill="none" stroke="#191970" d="M992.3098,-419.3969C925.5014,-407.1669 813.3005,-386.6274 743.5507,-373.859"/>
<polygon fill="#191970" stroke="#191970" points="744.045,-370.3914 733.5782,-372.0334 742.7845,-377.277 744.045,-370.3914"/>
</g>
<!-- Node4 -->
<g id="node5" class="node">
<title>Node4</title>
<polygon fill="#ffffff" stroke="#bfbfbf" points="1123.5,-286 1123.5,-305 1299.5,-305 1299.5,-286 1123.5,-286"/>
<text text-anchor="middle" x="1211.5" y="-293" font-family="Helvetica,sans-Serif" font-size="10.00" fill="#000000">Teuchos_StandardCatchMacros.hpp</text>
</g>
<!-- Node0&#45;&gt;Node4 -->
<g id="edge4" class="edge">
<title>Node0&#45;&gt;Node4</title>
<path fill="none" stroke="#191970" d="M1065.9941,-414.389C1097.2147,-388.8794 1160.082,-337.5122 1191.9807,-311.4487"/>
<polygon fill="#191970" stroke="#191970" points="1194.2164,-314.1418 1199.7456,-305.1042 1189.7873,-308.7211 1194.2164,-314.1418"/>
</g>
<!-- Node5 -->
<g id="node6" class="node">
<title>Node5</title>
<polygon fill="#ffffff" stroke="#bfbfbf" points="1318,-286 1318,-305 1457,-305 1457,-286 1318,-286"/>
<text text-anchor="middle" x="1387.5" y="-293" font-family="Helvetica,sans-Serif" font-size="10.00" fill="#000000">Teuchos_ParameterList.hpp</text>
</g>
<!-- Node0&#45;&gt;Node5 -->
<g id="edge5" class="edge">
<title>Node0&#45;&gt;Node5</title>
<path fill="none" stroke="#191970" d="M1085.8414,-414.389C1152.7705,-388.011 1289.8517,-333.9849 1353.5586,-308.8769"/>
<polygon fill="#191970" stroke="#191970" points="1355.1111,-312.0271 1363.1312,-305.1042 1352.5443,-305.5147 1355.1111,-312.0271"/>
</g>
<!-- Node6 -->
<g id="node7" class="node">
<title>Node6</title>
<polygon fill="#ffffff" stroke="#bfbfbf" points="1475.5,-280.5 1475.5,-310.5 1615.5,-310.5 1615.5,-280.5 1475.5,-280.5"/>
<text text-anchor="start" x="1483.5" y="-298.5" font-family="Helvetica,sans-Serif" font-size="10.00" fill="#000000">Teuchos_XMLParameterList</text>
<text text-anchor="middle" x="1545.5" y="-287.5" font-family="Helvetica,sans-Serif" font-size="10.00" fill="#000000">CoreHelpers.hpp</text>
</g>
<!-- Node0&#45;&gt;Node6 -->
<g id="edge6" class="edge">
<title>Node0&#45;&gt;Node6</title>
<path fill="none" stroke="#191970" d="M1102.6975,-414.6477C1195.1225,-389.7783 1380.7779,-339.8228 1479.7872,-313.1818"/>
<polygon fill="#191970" stroke="#191970" points="1480.9271,-316.4996 1489.6742,-310.5214 1479.1083,-309.74 1480.9271,-316.4996"/>
</g>
<!-- Node7 -->
<g id="node8" class="node">
<title>Node7</title>
<g id="a_node8"><a xlink:href="../../d5/d6a/_dirichlet_strip_elongation___stochastic_polyconvex_h_g_o_8hpp.html" target="_top" xlink:title="DirichletStripElongation\l_StochasticPolyconvexHGO.hpp">
<polygon fill="#ffffff" stroke="#000000" points="792,-347.5 792,-377.5 953,-377.5 953,-347.5 792,-347.5"/>
<text text-anchor="start" x="800" y="-365.5" font-family="Helvetica,sans-Serif" font-size="10.00" fill="#000000">DirichletStripElongation</text>
<text text-anchor="middle" x="872.5" y="-354.5" font-family="Helvetica,sans-Serif" font-size="10.00" fill="#000000">_StochasticPolyconvexHGO.hpp</text>
</a>
</g>
</g>
<!-- Node0&#45;&gt;Node7 -->
<g id="edge7" class="edge">
<title>Node0&#45;&gt;Node7</title>
<path fill="none" stroke="#191970" d="M1008.2266,-414.4639C982.5354,-404.6278 948.7775,-391.7034 921.3561,-381.2049"/>
<polygon fill="#191970" stroke="#191970" points="922.5351,-377.9086 911.9447,-377.6017 920.0322,-384.4459 922.5351,-377.9086"/>
</g>
<!-- Node51 -->
<g id="node41" class="node">
<title>Node51</title>
<polygon fill="#ffffff" stroke="#bfbfbf" points="989.5,-280.5 989.5,-310.5 1105.5,-310.5 1105.5,-280.5 989.5,-280.5"/>
<text text-anchor="start" x="997.5" y="-298.5" font-family="Helvetica,sans-Serif" font-size="10.00" fill="#000000">boost/math/special</text>
<text text-anchor="middle" x="1047.5" y="-287.5" font-family="Helvetica,sans-Serif" font-size="10.00" fill="#000000">_functions/gamma.hpp</text>
</g>
<!-- Node0&#45;&gt;Node51 -->
<g id="edge58" class="edge">
<title>Node0&#45;&gt;Node51</title>
<path fill="none" stroke="#191970" d="M1047.5,-414.389C1047.5,-391.6691 1047.5,-348.438 1047.5,-320.8405"/>
<polygon fill="#191970" stroke="#191970" points="1051.0001,-320.7614 1047.5,-310.7614 1044.0001,-320.7614 1051.0001,-320.7614"/>
</g>
<!-- Node53 -->
<g id="node43" class="node">
<title>Node53</title>
<g id="a_node43"><a xlink:href="../../d7/d17/_newton___raphsonpp_8hpp.html" target="_top" xlink:title="Newton_Raphsonpp.hpp">
<polygon fill="#ffffff" stroke="#000000" points="1813.5,-353 1813.5,-372 1937.5,-372 1937.5,-353 1813.5,-353"/>
<text text-anchor="middle" x="1875.5" y="-360" font-family="Helvetica,sans-Serif" font-size="10.00" fill="#000000">Newton_Raphsonpp.hpp</text>
</a>
</g>
</g>
<!-- Node0&#45;&gt;Node53 -->
<g id="edge45" class="edge">
<title>Node0&#45;&gt;Node53</title>
<path fill="none" stroke="#191970" d="M1102.7905,-425.026C1247.9792,-413.2777 1640.073,-381.5503 1802.9887,-368.3675"/>
<polygon fill="#191970" stroke="#191970" points="1803.6981,-371.8216 1813.3832,-367.5264 1803.1335,-364.8444 1803.6981,-371.8216"/>
</g>
<!-- Node8 -->
<g id="node9" class="node">
<title>Node8</title>
<g id="a_node9"><a xlink:href="../../de/d49/tensor__calculus_8hpp.html" target="_top" xlink:title="tensor_calculus.hpp">
<polygon fill="#ffffff" stroke="#000000" points="909.5,-168.5 909.5,-187.5 1013.5,-187.5 1013.5,-168.5 909.5,-168.5"/>
<text text-anchor="middle" x="961.5" y="-175.5" font-family="Helvetica,sans-Serif" font-size="10.00" fill="#000000">tensor_calculus.hpp</text>
</a>
</g>
</g>
<!-- Node7&#45;&gt;Node8 -->
<g id="edge8" class="edge">
<title>Node7&#45;&gt;Node8</title>
<path fill="none" stroke="#191970" d="M902.9063,-347.4933C917.2422,-338.8231 933.204,-326.5362 942.5,-311 963.7724,-275.4476 964.6723,-225.2017 963.2294,-197.7681"/>
<polygon fill="#191970" stroke="#191970" points="966.7021,-197.2514 962.5202,-187.5169 959.7188,-197.7346 966.7021,-197.2514"/>
</g>
<!-- Node41 -->
<g id="node31" class="node">
<title>Node41</title>
<g id="a_node31"><a xlink:href="../../d5/d3f/laplacepp_8hpp.html" target="_top" xlink:title="laplacepp.hpp">
<polygon fill="#ffffff" stroke="#000000" points="258,-286 258,-305 335,-305 335,-286 258,-286"/>
<text text-anchor="middle" x="296.5" y="-293" font-family="Helvetica,sans-Serif" font-size="10.00" fill="#000000">laplacepp.hpp</text>
</a>
</g>
</g>
<!-- Node7&#45;&gt;Node41 -->
<g id="edge30" class="edge">
<title>Node7&#45;&gt;Node41</title>
<path fill="none" stroke="#191970" d="M791.5408,-348.0799C788.8307,-347.6995 786.1448,-347.338 783.5,-347 589.3137,-322.1803 536.4764,-349.3331 344.5,-311 340.3941,-310.1801 336.1475,-309.1259 331.9561,-307.9533"/>
<polygon fill="#191970" stroke="#191970" points="332.9531,-304.5984 322.3682,-305.0574 330.9291,-311.2994 332.9531,-304.5984"/>
</g>
<!-- Node44 -->
<g id="node34" class="node">
<title>Node44</title>
<g id="a_node34"><a xlink:href="../../dc/de0/nearly_incompressible_hyperelasticity_8hpp.html" target="_top" xlink:title="nearlyIncompressibleHyperelasticity.hpp">
<polygon fill="#ffffff" stroke="#000000" points="600,-286 600,-305 793,-305 793,-286 600,-286"/>
<text text-anchor="middle" x="696.5" y="-293" font-family="Helvetica,sans-Serif" font-size="10.00" fill="#000000">nearlyIncompressibleHyperelasticity.hpp</text>
</a>
</g>
</g>
<!-- Node7&#45;&gt;Node44 -->
<g id="edge34" class="edge">
<title>Node7&#45;&gt;Node44</title>
<path fill="none" stroke="#191970" d="M833.0022,-347.4639C802.3164,-335.7824 760.1882,-319.7449 730.8814,-308.5884"/>
<polygon fill="#191970" stroke="#191970" points="732.0601,-305.2921 721.4691,-305.0053 729.5696,-311.8341 732.0601,-305.2921"/>
</g>
<!-- Node47 -->
<g id="node37" class="node">
<title>Node47</title>
<polygon fill="#ffffff" stroke="#bfbfbf" points="811.5,-280.5 811.5,-310.5 933.5,-310.5 933.5,-280.5 811.5,-280.5"/>
<text text-anchor="start" x="819.5" y="-298.5" font-family="Helvetica,sans-Serif" font-size="10.00" fill="#000000">boost/random/mersenne</text>
<text text-anchor="middle" x="872.5" y="-287.5" font-family="Helvetica,sans-Serif" font-size="10.00" fill="#000000">_twister.hpp</text>
</g>
<!-- Node7&#45;&gt;Node47 -->
<g id="edge39" class="edge">
<title>Node7&#45;&gt;Node47</title>
<path fill="none" stroke="#191970" d="M872.5,-347.2967C872.5,-339.5013 872.5,-329.7991 872.5,-320.9064"/>
<polygon fill="#191970" stroke="#191970" points="876.0001,-320.6431 872.5,-310.6432 869.0001,-320.6432 876.0001,-320.6431"/>
</g>
<!-- Node48 -->
<g id="node38" class="node">
<title>Node48</title>
<polygon fill="#ffffff" stroke="#bfbfbf" points="12,-280.5 12,-310.5 123,-310.5 123,-280.5 12,-280.5"/>
<text text-anchor="start" x="20" y="-298.5" font-family="Helvetica,sans-Serif" font-size="10.00" fill="#000000">boost/random/uniform</text>
<text text-anchor="middle" x="67.5" y="-287.5" font-family="Helvetica,sans-Serif" font-size="10.00" fill="#000000">_real_distribution.hpp</text>
</g>
<!-- Node7&#45;&gt;Node48 -->
<g id="edge40" class="edge">
<title>Node7&#45;&gt;Node48</title>
<path fill="none" stroke="#191970" d="M791.552,-347.9876C788.8387,-347.6336 786.149,-347.3027 783.5,-347 498.5368,-314.4324 420.4382,-352.4215 133.5252,-311.1332"/>
<polygon fill="#191970" stroke="#191970" points="133.6307,-307.6116 123.23,-309.6308 132.6197,-314.5382 133.6307,-307.6116"/>
</g>
<!-- Node49 -->
<g id="node39" class="node">
<title>Node49</title>
<polygon fill="#ffffff" stroke="#bfbfbf" points="141,-280.5 141,-310.5 240,-310.5 240,-280.5 141,-280.5"/>
<text text-anchor="start" x="149" y="-298.5" font-family="Helvetica,sans-Serif" font-size="10.00" fill="#000000">boost/math/special</text>
<text text-anchor="middle" x="190.5" y="-287.5" font-family="Helvetica,sans-Serif" font-size="10.00" fill="#000000">_functions/erf.hpp</text>
</g>
<!-- Node7&#45;&gt;Node49 -->
<g id="edge41" class="edge">
<title>Node7&#45;&gt;Node49</title>
<path fill="none" stroke="#191970" d="M791.5471,-348.0293C788.8352,-347.6634 786.1472,-347.3187 783.5,-347 550.1277,-318.9055 485.3742,-349.099 249.9261,-311.0375"/>
<polygon fill="#191970" stroke="#191970" points="250.4706,-307.5801 240.0358,-309.4151 249.3373,-314.4878 250.4706,-307.5801"/>
</g>
<!-- Node50 -->
<g id="node40" class="node">
<title>Node50</title>
<polygon fill="#ffffff" stroke="#bfbfbf" points="353.5,-280.5 353.5,-310.5 461.5,-310.5 461.5,-280.5 353.5,-280.5"/>
<text text-anchor="start" x="361.5" y="-298.5" font-family="Helvetica,sans-Serif" font-size="10.00" fill="#000000">boost/random/normal</text>
<text text-anchor="middle" x="407.5" y="-287.5" font-family="Helvetica,sans-Serif" font-size="10.00" fill="#000000">_distribution.hpp</text>
</g>
<!-- Node7&#45;&gt;Node50 -->
<g id="edge42" class="edge">
<title>Node7&#45;&gt;Node50</title>
<path fill="none" stroke="#191970" d="M791.5254,-348.1928C788.8198,-347.7802 786.1389,-347.3812 783.5,-347 648.1587,-327.4482 610.0901,-335.38 471.833,-311.1025"/>
<polygon fill="#191970" stroke="#191970" points="472.1615,-307.606 461.7027,-309.298 470.9339,-314.4975 472.1615,-307.606"/>
</g>
<!-- Node7&#45;&gt;Node51 -->
<g id="edge43" class="edge">
<title>Node7&#45;&gt;Node51</title>
<path fill="none" stroke="#191970" d="M911.7734,-347.4639C937.4646,-337.6278 971.2225,-324.7034 998.6439,-314.2049"/>
<polygon fill="#191970" stroke="#191970" points="999.9678,-317.4459 1008.0553,-310.6017 997.4649,-310.9086 999.9678,-317.4459"/>
</g>
<!-- Node52 -->
<g id="node42" class="node">
<title>Node52</title>
<polygon fill="#ffffff" stroke="#bfbfbf" points="479.5,-280.5 479.5,-310.5 581.5,-310.5 581.5,-280.5 479.5,-280.5"/>
<text text-anchor="start" x="487.5" y="-298.5" font-family="Helvetica,sans-Serif" font-size="10.00" fill="#000000">boost/math/special</text>
<text text-anchor="middle" x="530.5" y="-287.5" font-family="Helvetica,sans-Serif" font-size="10.00" fill="#000000">_functions/beta.hpp</text>
</g>
<!-- Node7&#45;&gt;Node52 -->
<g id="edge44" class="edge">
<title>Node7&#45;&gt;Node52</title>
<path fill="none" stroke="#191970" d="M791.9891,-348.3691C722.9192,-336.1308 628.8103,-319.1495 591.5,-311 591.3999,-310.9781 591.2998,-310.9562 591.1995,-310.9343"/>
<polygon fill="#191970" stroke="#191970" points="592.2223,-307.5775 581.6954,-308.7758 590.6719,-314.4037 592.2223,-307.5775"/>
</g>
<!-- Node9 -->
<g id="node10" class="node">
<title>Node9</title>
<g id="a_node10"><a xlink:href="../../d0/d02/meshpp_8hpp.html" target="_top" xlink:title="meshpp.hpp">
<polygon fill="#ffffff" stroke="#ff0000" points="878.5,-56.5 878.5,-75.5 948.5,-75.5 948.5,-56.5 878.5,-56.5"/>
<text text-anchor="middle" x="913.5" y="-63.5" font-family="Helvetica,sans-Serif" font-size="10.00" fill="#000000">meshpp.hpp</text>
</a>
</g>
</g>
<!-- Node8&#45;&gt;Node9 -->
<g id="edge9" class="edge">
<title>Node8&#45;&gt;Node9</title>
<path fill="none" stroke="#191970" d="M957.4075,-168.4509C949.4726,-149.936 931.8682,-108.8591 921.5223,-84.7187"/>
<polygon fill="#191970" stroke="#191970" points="924.7384,-83.3376 917.5821,-75.5249 918.3043,-86.0951 924.7384,-83.3376"/>
</g>
<!-- Node10 -->
<g id="node11" class="node">
<title>Node10</title>
<polygon fill="#ffffff" stroke="#bfbfbf" points="1929.5,-.5 1929.5,-19.5 1975.5,-19.5 1975.5,-.5 1929.5,-.5"/>
<text text-anchor="middle" x="1952.5" y="-7.5" font-family="Helvetica,sans-Serif" font-size="10.00" fill="#000000">stdio.h</text>
</g>
<!-- Node9&#45;&gt;Node10 -->
<g id="edge10" class="edge">
<title>Node9&#45;&gt;Node10</title>
<path fill="none" stroke="#191970" d="M948.7559,-65.6037C1101.5465,-63.7027 1707.9073,-54.222 1919.1938,-19.7388"/>
<polygon fill="#191970" stroke="#191970" points="1919.9832,-23.1548 1929.253,-18.0244 1918.8071,-16.2543 1919.9832,-23.1548"/>
</g>
<!-- Node11 -->
<g id="node12" class="node">
<title>Node11</title>
<polygon fill="#ffffff" stroke="#bfbfbf" points="1993.5,-.5 1993.5,-19.5 2047.5,-19.5 2047.5,-.5 1993.5,-.5"/>
<text text-anchor="middle" x="2020.5" y="-7.5" font-family="Helvetica,sans-Serif" font-size="10.00" fill="#000000">iostream</text>
</g>
<!-- Node9&#45;&gt;Node11 -->
<g id="edge11" class="edge">
<title>Node9&#45;&gt;Node11</title>
<path fill="none" stroke="#191970" d="M948.5148,-65.5686C1106.8936,-63.4557 1757.9171,-52.9923 1983.0494,-19.8422"/>
<polygon fill="#191970" stroke="#191970" points="1983.7706,-23.2726 1993.1247,-18.2976 1982.7098,-16.3534 1983.7706,-23.2726"/>
</g>
<!-- Node12 -->
<g id="node13" class="node">
<title>Node12</title>
<polygon fill="#ffffff" stroke="#bfbfbf" points="0,-.5 0,-19.5 49,-19.5 49,-.5 0,-.5"/>
<text text-anchor="middle" x="24.5" y="-7.5" font-family="Helvetica,sans-Serif" font-size="10.00" fill="#000000">istream</text>
</g>
<!-- Node9&#45;&gt;Node12 -->
<g id="edge12" class="edge">
<title>Node9&#45;&gt;Node12</title>
<path fill="none" stroke="#191970" d="M878.0539,-65.1902C740.2862,-61.8766 239.6051,-48.2442 59.3557,-19.6749"/>
<polygon fill="#191970" stroke="#191970" points="59.6636,-16.1782 49.2256,-17.9941 58.5178,-23.0838 59.6636,-16.1782"/>
</g>
<!-- Node13 -->
<g id="node14" class="node">
<title>Node13</title>
<polygon fill="#ffffff" stroke="#bfbfbf" points="67.5,-.5 67.5,-19.5 117.5,-19.5 117.5,-.5 67.5,-.5"/>
<text text-anchor="middle" x="92.5" y="-7.5" font-family="Helvetica,sans-Serif" font-size="10.00" fill="#000000">fstream</text>
</g>
<!-- Node9&#45;&gt;Node13 -->
<g id="edge13" class="edge">
<title>Node9&#45;&gt;Node13</title>
<path fill="none" stroke="#191970" d="M878.1855,-65.0045C747.8566,-61.1682 293.3257,-46.3094 127.6224,-19.7579"/>
<polygon fill="#191970" stroke="#191970" points="128.0414,-16.2794 117.5998,-18.0748 126.8821,-23.1827 128.0414,-16.2794"/>
</g>
<!-- Node14 -->
<g id="node15" class="node">
<title>Node14</title>
<polygon fill="#ffffff" stroke="#bfbfbf" points="135.5,-.5 135.5,-19.5 179.5,-19.5 179.5,-.5 135.5,-.5"/>
<text text-anchor="middle" x="157.5" y="-7.5" font-family="Helvetica,sans-Serif" font-size="10.00" fill="#000000">vector</text>
</g>
<!-- Node9&#45;&gt;Node14 -->
<g id="edge14" class="edge">
<title>Node9&#45;&gt;Node14</title>
<path fill="none" stroke="#191970" d="M878.3823,-64.9283C755.1913,-60.993 342.3713,-46.2758 189.7785,-19.7329"/>
<polygon fill="#191970" stroke="#191970" points="190.1456,-16.242 179.6789,-17.8845 188.8854,-23.1276 190.1456,-16.242"/>
</g>
<!-- Node15 -->
<g id="node16" class="node">
<title>Node15</title>
<polygon fill="#ffffff" stroke="#bfbfbf" points="197.5,-.5 197.5,-19.5 247.5,-19.5 247.5,-.5 197.5,-.5"/>
<text text-anchor="middle" x="222.5" y="-7.5" font-family="Helvetica,sans-Serif" font-size="10.00" fill="#000000">iomanip</text>
</g>
<!-- Node9&#45;&gt;Node15 -->
<g id="edge15" class="edge">
<title>Node9&#45;&gt;Node15</title>
<path fill="none" stroke="#191970" d="M878.4768,-64.5481C763.3131,-59.6213 396.2846,-42.6677 257.5823,-19.7716"/>
<polygon fill="#191970" stroke="#191970" points="258.0567,-16.3018 247.6057,-18.0417 256.8606,-23.1988 258.0567,-16.3018"/>
</g>
<!-- Node16 -->
<g id="node17" class="node">
<title>Node16</title>
<polygon fill="#ffffff" stroke="#bfbfbf" points="265.5,-.5 265.5,-19.5 369.5,-19.5 369.5,-.5 265.5,-.5"/>
<text text-anchor="middle" x="317.5" y="-7.5" font-family="Helvetica,sans-Serif" font-size="10.00" fill="#000000">Epetra_MpiComm.h</text>
</g>
<!-- Node9&#45;&gt;Node16 -->
<g id="edge16" class="edge">
<title>Node9&#45;&gt;Node16</title>
<path fill="none" stroke="#191970" d="M878.3486,-63.9143C794.1288,-58.7169 573.9862,-43.9473 379.8094,-20.0817"/>
<polygon fill="#191970" stroke="#191970" points="380.0601,-16.586 369.7053,-18.8286 379.1985,-23.5328 380.0601,-16.586"/>
</g>
<!-- Node17 -->
<g id="node18" class="node">
<title>Node17</title>
<polygon fill="#ffffff" stroke="#bfbfbf" points="388,-.5 388,-19.5 501,-19.5 501,-.5 388,-.5"/>
<text text-anchor="middle" x="444.5" y="-7.5" font-family="Helvetica,sans-Serif" font-size="10.00" fill="#000000">Epetra_FECrsGraph.h</text>
</g>
<!-- Node9&#45;&gt;Node17 -->
<g id="edge17" class="edge">
<title>Node9&#45;&gt;Node17</title>
<path fill="none" stroke="#191970" d="M878.408,-62.4326C810.0062,-55.3846 653.8218,-38.8288 511.2467,-20.0564"/>
<polygon fill="#191970" stroke="#191970" points="511.379,-16.5434 501.0062,-18.701 510.4605,-23.4829 511.379,-16.5434"/>
</g>
<!-- Node18 -->
<g id="node19" class="node">
<title>Node18</title>
<polygon fill="#ffffff" stroke="#bfbfbf" points="519.5,-.5 519.5,-19.5 633.5,-19.5 633.5,-.5 519.5,-.5"/>
<text text-anchor="middle" x="576.5" y="-7.5" font-family="Helvetica,sans-Serif" font-size="10.00" fill="#000000">Epetra_FECrsMatrix.h</text>
</g>
<!-- Node9&#45;&gt;Node18 -->
<g id="edge18" class="edge">
<title>Node9&#45;&gt;Node18</title>
<path fill="none" stroke="#191970" d="M878.3888,-60.1655C823.0346,-50.9672 714.5179,-32.9347 643.7924,-21.1821"/>
<polygon fill="#191970" stroke="#191970" points="644.081,-17.6822 633.6425,-19.4955 642.9335,-24.5875 644.081,-17.6822"/>
</g>
<!-- Node19 -->
<g id="node20" class="node">
<title>Node19</title>
<polygon fill="#ffffff" stroke="#bfbfbf" points="651.5,-.5 651.5,-19.5 751.5,-19.5 751.5,-.5 651.5,-.5"/>
<text text-anchor="middle" x="701.5" y="-7.5" font-family="Helvetica,sans-Serif" font-size="10.00" fill="#000000">Epetra_FEVector.h</text>
</g>
<!-- Node9&#45;&gt;Node19 -->
<g id="edge19" class="edge">
<title>Node9&#45;&gt;Node19</title>
<path fill="none" stroke="#191970" d="M878.4925,-56.7527C842.6824,-47.2935 786.8661,-32.5495 747.5052,-22.1523"/>
<polygon fill="#191970" stroke="#191970" points="748.1866,-18.7123 737.6243,-19.5423 746.3988,-25.4802 748.1866,-18.7123"/>
</g>
<!-- Node20 -->
<g id="node21" class="node">
<title>Node20</title>
<polygon fill="#ffffff" stroke="#bfbfbf" points="770,-.5 770,-19.5 857,-19.5 857,-.5 770,-.5"/>
<text text-anchor="middle" x="813.5" y="-7.5" font-family="Helvetica,sans-Serif" font-size="10.00" fill="#000000">Epetra_Vector.h</text>
</g>
<!-- Node9&#45;&gt;Node20 -->
<g id="edge20" class="edge">
<title>Node9&#45;&gt;Node20</title>
<path fill="none" stroke="#191970" d="M896.0813,-56.2455C880.4515,-47.4928 857.2981,-34.527 839.4815,-24.5496"/>
<polygon fill="#191970" stroke="#191970" points="841.1543,-21.475 830.7191,-19.6427 837.734,-27.5825 841.1543,-21.475"/>
</g>
<!-- Node21 -->
<g id="node22" class="node">
<title>Node21</title>
<polygon fill="#ffffff" stroke="#bfbfbf" points="875,-.5 875,-19.5 952,-19.5 952,-.5 875,-.5"/>
<text text-anchor="middle" x="913.5" y="-7.5" font-family="Helvetica,sans-Serif" font-size="10.00" fill="#000000">Epetra_Map.h</text>
</g>
<!-- Node9&#45;&gt;Node21 -->
<g id="edge21" class="edge">
<title>Node9&#45;&gt;Node21</title>
<path fill="none" stroke="#191970" d="M913.5,-56.2455C913.5,-48.9382 913.5,-38.6944 913.5,-29.7046"/>
<polygon fill="#191970" stroke="#191970" points="917.0001,-29.6426 913.5,-19.6427 910.0001,-29.6427 917.0001,-29.6426"/>
</g>
<!-- Node22 -->
<g id="node23" class="node">
<title>Node22</title>
<polygon fill="#ffffff" stroke="#bfbfbf" points="970,-.5 970,-19.5 1109,-19.5 1109,-.5 970,-.5"/>
<text text-anchor="middle" x="1039.5" y="-7.5" font-family="Helvetica,sans-Serif" font-size="10.00" fill="#000000">Epetra_SerialDenseMatrix.h</text>
</g>
<!-- Node9&#45;&gt;Node22 -->
<g id="edge22" class="edge">
<title>Node9&#45;&gt;Node22</title>
<path fill="none" stroke="#191970" d="M935.1602,-56.3733C955.4772,-47.3435 986.064,-33.7494 1008.875,-23.6111"/>
<polygon fill="#191970" stroke="#191970" points="1010.4059,-26.7609 1018.1225,-19.5011 1007.5628,-20.3642 1010.4059,-26.7609"/>
</g>
<!-- Node23 -->
<g id="node24" class="node">
<title>Node23</title>
<polygon fill="#ffffff" stroke="#bfbfbf" points="1127.5,-.5 1127.5,-19.5 1267.5,-19.5 1267.5,-.5 1127.5,-.5"/>
<text text-anchor="middle" x="1197.5" y="-7.5" font-family="Helvetica,sans-Serif" font-size="10.00" fill="#000000">Epetra_SerialDenseVector.h</text>
</g>
<!-- Node9&#45;&gt;Node23 -->
<g id="edge23" class="edge">
<title>Node9&#45;&gt;Node23</title>
<path fill="none" stroke="#191970" d="M948.6088,-59.0771C996.2092,-49.6911 1081.8457,-32.8051 1139.1827,-21.4992"/>
<polygon fill="#191970" stroke="#191970" points="1140.0561,-24.8944 1149.1901,-19.5259 1138.7019,-18.0267 1140.0561,-24.8944"/>
</g>
<!-- Node24 -->
<g id="node25" class="node">
<title>Node24</title>
<polygon fill="#ffffff" stroke="#bfbfbf" points="1285.5,-.5 1285.5,-19.5 1437.5,-19.5 1437.5,-.5 1285.5,-.5"/>
<text text-anchor="middle" x="1361.5" y="-7.5" font-family="Helvetica,sans-Serif" font-size="10.00" fill="#000000">Epetra_IntSerialDenseVector.h</text>
</g>
<!-- Node9&#45;&gt;Node24 -->
<g id="edge24" class="edge">
<title>Node9&#45;&gt;Node24</title>
<path fill="none" stroke="#191970" d="M948.6538,-61.6058C1018.4523,-52.881 1176.3162,-33.148 1275.3545,-20.7682"/>
<polygon fill="#191970" stroke="#191970" points="1275.8557,-24.2329 1285.3443,-19.5195 1274.9874,-17.2869 1275.8557,-24.2329"/>
</g>
<!-- Node25 -->
<g id="node26" class="node">
<title>Node25</title>
<polygon fill="#ffffff" stroke="#bfbfbf" points="1455.5,-.5 1455.5,-19.5 1541.5,-19.5 1541.5,-.5 1455.5,-.5"/>
<text text-anchor="middle" x="1498.5" y="-7.5" font-family="Helvetica,sans-Serif" font-size="10.00" fill="#000000">Epetra_Import.h</text>
</g>
<!-- Node9&#45;&gt;Node25 -->
<g id="edge25" class="edge">
<title>Node9&#45;&gt;Node25</title>
<path fill="none" stroke="#191970" d="M948.5634,-64.2375C1032.5631,-59.7453 1252.0754,-46.4103 1445.3693,-20.0285"/>
<polygon fill="#191970" stroke="#191970" points="1445.9995,-23.4748 1455.4271,-18.6405 1445.0425,-16.5405 1445.9995,-23.4748"/>
</g>
<!-- Node26 -->
<g id="node27" class="node">
<title>Node26</title>
<polygon fill="#ffffff" stroke="#bfbfbf" points="1560,-.5 1560,-19.5 1647,-19.5 1647,-.5 1560,-.5"/>
<text text-anchor="middle" x="1603.5" y="-7.5" font-family="Helvetica,sans-Serif" font-size="10.00" fill="#000000">Epetra_Export.h</text>
</g>
<!-- Node9&#45;&gt;Node26 -->
<g id="edge26" class="edge">
<title>Node9&#45;&gt;Node26</title>
<path fill="none" stroke="#191970" d="M948.5119,-64.8787C1043.5198,-61.5372 1314.2591,-50.0307 1549.7648,-19.9454"/>
<polygon fill="#191970" stroke="#191970" points="1550.4213,-23.3897 1559.8905,-18.6374 1549.5245,-16.4474 1550.4213,-23.3897"/>
</g>
<!-- Node27 -->
<g id="node28" class="node">
<title>Node27</title>
<polygon fill="#ffffff" stroke="#bfbfbf" points="1665.5,-.5 1665.5,-19.5 1745.5,-19.5 1745.5,-.5 1665.5,-.5"/>
<text text-anchor="middle" x="1705.5" y="-7.5" font-family="Helvetica,sans-Serif" font-size="10.00" fill="#000000">Epetra_Time.h</text>
</g>
<!-- Node9&#45;&gt;Node27 -->
<g id="edge27" class="edge">
<title>Node9&#45;&gt;Node27</title>
<path fill="none" stroke="#191970" d="M948.8621,-65.5581C1054.624,-63.8671 1377.819,-56.0139 1655.2034,-19.9923"/>
<polygon fill="#191970" stroke="#191970" points="1656.0068,-23.417 1665.4656,-18.6439 1655.0948,-16.4766 1656.0068,-23.417"/>
</g>
<!-- Node28 -->
<g id="node29" class="node">
<title>Node28</title>
<polygon fill="#ffffff" stroke="#bfbfbf" points="1764,-.5 1764,-19.5 1911,-19.5 1911,-.5 1764,-.5"/>
<text text-anchor="middle" x="1837.5" y="-7.5" font-family="Helvetica,sans-Serif" font-size="10.00" fill="#000000">ml_MultiLevelPreconditioner.h</text>
</g>
<!-- Node9&#45;&gt;Node28 -->
<g id="edge28" class="edge">
<title>Node9&#45;&gt;Node28</title>
<path fill="none" stroke="#191970" d="M948.8105,-64.8942C1063.2865,-61.1349 1434.6731,-47.5708 1753.3959,-20.0394"/>
<polygon fill="#191970" stroke="#191970" points="1754.1008,-23.4914 1763.7598,-19.1376 1753.494,-16.5177 1754.1008,-23.4914"/>
</g>
<!-- Node35 -->
<g id="node30" class="node">
<title>Node35</title>
<polygon fill="#ffffff" stroke="#bfbfbf" points="2172.5,-.5 2172.5,-19.5 2272.5,-19.5 2272.5,-.5 2172.5,-.5"/>
<text text-anchor="middle" x="2222.5" y="-7.5" font-family="Helvetica,sans-Serif" font-size="10.00" fill="#000000">Teuchos_RCP.hpp</text>
</g>
<!-- Node9&#45;&gt;Node35 -->
<g id="edge29" class="edge">
<title>Node9&#45;&gt;Node35</title>
<path fill="none" stroke="#191970" d="M948.587,-64.8433C1088.4319,-60.1792 1619.6385,-41.947 2056.5,-20 2091.4741,-18.243 2130.5702,-15.9061 2162.0317,-13.9333"/>
<polygon fill="#191970" stroke="#191970" points="2162.6319,-17.4025 2172.3916,-13.2796 2162.191,-10.4164 2162.6319,-17.4025"/>
</g>
<!-- Node42 -->
<g id="node32" class="node">
<title>Node42</title>
<g id="a_node32"><a xlink:href="../../dd/d1b/_linear_finite_element_problem_8hpp.html" target="_top" xlink:title="LinearFiniteElementProblem.hpp">
<polygon fill="#ffffff" stroke="#000000" points="344.5,-224.5 344.5,-243.5 502.5,-243.5 502.5,-224.5 344.5,-224.5"/>
<text text-anchor="middle" x="423.5" y="-231.5" font-family="Helvetica,sans-Serif" font-size="10.00" fill="#000000">LinearFiniteElementProblem.hpp</text>
</a>
</g>
</g>
<!-- Node41&#45;&gt;Node42 -->
<g id="edge31" class="edge">
<title>Node41&#45;&gt;Node42</title>
<path fill="none" stroke="#191970" d="M316.3438,-285.8906C337.3136,-275.7359 370.5944,-259.6196 394.5036,-248.0416"/>
<polygon fill="#191970" stroke="#191970" points="396.3208,-251.0504 403.7956,-243.5419 393.2699,-244.7502 396.3208,-251.0504"/>
</g>
<!-- Node43 -->
<g id="node33" class="node">
<title>Node43</title>
<g id="a_node33"><a xlink:href="../../dd/d80/base_class_f_e_m_8hpp.html" target="_top" xlink:title="baseClassFEM.hpp">
<polygon fill="#ffffff" stroke="#000000" points="753,-112.5 753,-131.5 856,-131.5 856,-112.5 753,-112.5"/>
<text text-anchor="middle" x="804.5" y="-119.5" font-family="Helvetica,sans-Serif" font-size="10.00" fill="#000000">baseClassFEM.hpp</text>
</a>
</g>
</g>
<!-- Node42&#45;&gt;Node43 -->
<g id="edge32" class="edge">
<title>Node42&#45;&gt;Node43</title>
<path fill="none" stroke="#191970" d="M455.9838,-224.4509C524.8725,-204.2002 685.5774,-156.9589 762.2896,-134.4083"/>
<polygon fill="#191970" stroke="#191970" points="763.4914,-137.7032 772.0984,-131.5249 761.5172,-130.9873 763.4914,-137.7032"/>
</g>
<!-- Node43&#45;&gt;Node9 -->
<g id="edge33" class="edge">
<title>Node43&#45;&gt;Node9</title>
<path fill="none" stroke="#191970" d="M823.4864,-112.2455C840.6792,-103.4125 866.2238,-90.2887 885.7132,-80.2758"/>
<polygon fill="#191970" stroke="#191970" points="887.4359,-83.3257 894.7312,-75.6427 884.237,-77.0993 887.4359,-83.3257"/>
</g>
<!-- Node45 -->
<g id="node35" class="node">
<title>Node45</title>
<g id="a_node35"><a xlink:href="../../d2/d34/hyperelasticity_8hpp.html" target="_top" xlink:title="hyperelasticity.hpp">
<polygon fill="#ffffff" stroke="#000000" points="701.5,-224.5 701.5,-243.5 799.5,-243.5 799.5,-224.5 701.5,-224.5"/>
<text text-anchor="middle" x="750.5" y="-231.5" font-family="Helvetica,sans-Serif" font-size="10.00" fill="#000000">hyperelasticity.hpp</text>
</a>
</g>
</g>
<!-- Node44&#45;&gt;Node45 -->
<g id="edge35" class="edge">
<title>Node44&#45;&gt;Node45</title>
<path fill="none" stroke="#191970" d="M704.9375,-285.8906C713.0531,-276.6478 725.5055,-262.466 735.3424,-251.2628"/>
<polygon fill="#191970" stroke="#191970" points="737.9755,-253.5686 741.9435,-243.7449 732.7154,-248.95 737.9755,-253.5686"/>
</g>
<!-- Node46 -->
<g id="node36" class="node">
<title>Node46</title>
<g id="a_node36"><a xlink:href="../../da/da3/non_linear_finite_element_problem_8hpp.html" target="_top" xlink:title="nonLinearFiniteElementProblem.hpp">
<polygon fill="#ffffff" stroke="#000000" points="718,-168.5 718,-187.5 891,-187.5 891,-168.5 718,-168.5"/>
<text text-anchor="middle" x="804.5" y="-175.5" font-family="Helvetica,sans-Serif" font-size="10.00" fill="#000000">nonLinearFiniteElementProblem.hpp</text>
</a>
</g>
</g>
<!-- Node45&#45;&gt;Node46 -->
<g id="edge36" class="edge">
<title>Node45&#45;&gt;Node46</title>
<path fill="none" stroke="#191970" d="M759.9061,-224.2455C767.6493,-216.2155 778.812,-204.6394 788.0318,-195.0781"/>
<polygon fill="#191970" stroke="#191970" points="790.7798,-197.2706 795.2017,-187.6427 785.7409,-192.4117 790.7798,-197.2706"/>
</g>
<!-- Node46&#45;&gt;Node9 -->
<g id="edge37" class="edge">
<title>Node46&#45;&gt;Node9</title>
<path fill="none" stroke="#191970" d="M819.7824,-168.3416C832.7607,-159.7218 851.4609,-146.2844 865.5,-132 879.8631,-117.3859 893.3172,-98.2195 902.3053,-84.3087"/>
<polygon fill="#191970" stroke="#191970" points="905.399,-85.9642 907.7705,-75.6382 899.4772,-82.2315 905.399,-85.9642"/>
</g>
<!-- Node46&#45;&gt;Node43 -->
<g id="edge38" class="edge">
<title>Node46&#45;&gt;Node43</title>
<path fill="none" stroke="#191970" d="M804.5,-168.2455C804.5,-160.9382 804.5,-150.6944 804.5,-141.7046"/>
<polygon fill="#191970" stroke="#191970" points="808.0001,-141.6426 804.5,-131.6427 801.0001,-141.6427 808.0001,-141.6426"/>
</g>
<!-- Node53&#45;&gt;Node4 -->
<g id="edge54" class="edge">
<title>Node53&#45;&gt;Node4</title>
<path fill="none" stroke="#191970" d="M1813.379,-358.1982C1709.048,-350.6711 1492.1108,-333.7237 1309.5,-311 1299.2018,-309.7185 1288.3231,-308.1817 1277.7076,-306.5808"/>
<polygon fill="#191970" stroke="#191970" points="1278.0537,-303.093 1267.6379,-305.0325 1276.9898,-310.0117 1278.0537,-303.093"/>
</g>
<!-- Node53&#45;&gt;Node5 -->
<g id="edge55" class="edge">
<title>Node53&#45;&gt;Node5</title>
<path fill="none" stroke="#191970" d="M1813.296,-356.0085C1732.9632,-347.3181 1588.9171,-330.6928 1466.5,-311 1459.016,-309.7961 1451.1574,-308.4066 1443.4187,-306.9642"/>
<polygon fill="#191970" stroke="#191970" points="1443.8343,-303.4806 1433.3562,-305.0487 1442.5253,-310.3571 1443.8343,-303.4806"/>
</g>
<!-- Node53&#45;&gt;Node6 -->
<g id="edge56" class="edge">
<title>Node53&#45;&gt;Node6</title>
<path fill="none" stroke="#191970" d="M1828.5695,-352.9717C1775.7859,-342.255 1689.1498,-324.6653 1625.6037,-311.7635"/>
<polygon fill="#191970" stroke="#191970" points="1626.1083,-308.2946 1615.6119,-309.7348 1624.7155,-315.1546 1626.1083,-308.2946"/>
</g>
<!-- Node53&#45;&gt;Node35 -->
<g id="edge47" class="edge">
<title>Node53&#45;&gt;Node35</title>
<path fill="none" stroke="#191970" d="M1937.7514,-359.001C2051.126,-352.0681 2282.1674,-335.142 2309.5,-311 2335.9188,-287.6651 2328.5,-269.2487 2328.5,-234 2328.5,-234 2328.5,-234 2328.5,-122 2328.5,-76.9213 2282.6435,-42.6897 2251.2528,-24.5376"/>
<polygon fill="#191970" stroke="#191970" points="2252.8786,-21.437 2242.4378,-19.6372 2249.4774,-27.5552 2252.8786,-21.437"/>
</g>
<!-- Node53&#45;&gt;Node46 -->
<g id="edge46" class="edge">
<title>Node53&#45;&gt;Node46</title>
<path fill="none" stroke="#191970" d="M1813.2346,-354.6358C1769.6495,-347.4243 1710.9624,-334.2178 1663.5,-311 1643.6102,-301.2702 1644.9142,-288.5752 1624.5,-280 1591.479,-266.1292 1110.8505,-211.8149 901.1534,-188.6076"/>
<polygon fill="#191970" stroke="#191970" points="901.396,-185.1131 891.0718,-187.4927 900.6265,-192.0707 901.396,-185.1131"/>
</g>
<!-- Node54 -->
<g id="node44" class="node">
<title>Node54</title>
<polygon fill="#ffffff" stroke="#bfbfbf" points="1958.5,-286 1958.5,-305 2010.5,-305 2010.5,-286 1958.5,-286"/>
<text text-anchor="middle" x="1984.5" y="-293" font-family="Helvetica,sans-Serif" font-size="10.00" fill="#000000">Ifpack.h</text>
</g>
<!-- Node53&#45;&gt;Node54 -->
<g id="edge48" class="edge">
<title>Node53&#45;&gt;Node54</title>
<path fill="none" stroke="#191970" d="M1891.117,-352.9005C1909.1669,-341.8057 1939.0896,-323.4128 1960.1908,-310.4424"/>
<polygon fill="#191970" stroke="#191970" points="1962.2255,-313.3001 1968.9119,-305.0817 1958.5598,-307.3366 1962.2255,-313.3001"/>
</g>
<!-- Node55 -->
<g id="node45" class="node">
<title>Node55</title>
<polygon fill="#ffffff" stroke="#bfbfbf" points="2029,-286 2029,-305 2160,-305 2160,-286 2029,-286"/>
<text text-anchor="middle" x="2094.5" y="-293" font-family="Helvetica,sans-Serif" font-size="10.00" fill="#000000">Ifpack_AdditiveSchwarz.h</text>
</g>
<!-- Node53&#45;&gt;Node55 -->
<g id="edge49" class="edge">
<title>Node53&#45;&gt;Node55</title>
<path fill="none" stroke="#191970" d="M1906.8774,-352.9005C1945.4194,-341.1091 2010.9053,-321.0746 2053.4235,-308.0668"/>
<polygon fill="#191970" stroke="#191970" points="2054.6423,-311.3541 2063.1808,-305.0817 2052.5944,-304.6604 2054.6423,-311.3541"/>
</g>
<!-- Node56 -->
<g id="node46" class="node">
<title>Node56</title>
<polygon fill="#ffffff" stroke="#bfbfbf" points="2178.5,-286 2178.5,-305 2300.5,-305 2300.5,-286 2178.5,-286"/>
<text text-anchor="middle" x="2239.5" y="-293" font-family="Helvetica,sans-Serif" font-size="10.00" fill="#000000">BelosLinearProblem.hpp</text>
</g>
<!-- Node53&#45;&gt;Node56 -->
<g id="edge50" class="edge">
<title>Node53&#45;&gt;Node56</title>
<path fill="none" stroke="#191970" d="M1934.492,-352.9593C1993.9554,-343.1562 2088.2989,-327.0938 2169.5,-311 2175.3664,-309.8373 2181.4964,-308.5651 2187.5846,-307.2653"/>
<polygon fill="#191970" stroke="#191970" points="2188.7044,-310.604 2197.737,-305.0666 2187.2227,-303.7626 2188.7044,-310.604"/>
</g>
<!-- Node57 -->
<g id="node47" class="node">
<title>Node57</title>
<polygon fill="#ffffff" stroke="#bfbfbf" points="2357,-286 2357,-305 2502,-305 2502,-286 2357,-286"/>
<text text-anchor="middle" x="2429.5" y="-293" font-family="Helvetica,sans-Serif" font-size="10.00" fill="#000000">BelosBlockGmresSolMgr.hpp</text>
</g>
<!-- Node53&#45;&gt;Node57 -->
<g id="edge51" class="edge">
<title>Node53&#45;&gt;Node57</title>
<path fill="none" stroke="#191970" d="M1937.6096,-356.9755C2027.2459,-348.7023 2197.9853,-331.8184 2342.5,-311 2351.2161,-309.7444 2360.3973,-308.2726 2369.3968,-306.7447"/>
<polygon fill="#191970" stroke="#191970" points="2370.1899,-310.1596 2379.4459,-305.0044 2368.9953,-303.2622 2370.1899,-310.1596"/>
</g>
<!-- Node58 -->
<g id="node48" class="node">
<title>Node58</title>
<polygon fill="#ffffff" stroke="#bfbfbf" points="2520.5,-286 2520.5,-305 2642.5,-305 2642.5,-286 2520.5,-286"/>
<text text-anchor="middle" x="2581.5" y="-293" font-family="Helvetica,sans-Serif" font-size="10.00" fill="#000000">BelosEpetraAdapter.hpp</text>
</g>
<!-- Node53&#45;&gt;Node58 -->
<g id="edge52" class="edge">
<title>Node53&#45;&gt;Node58</title>
<path fill="none" stroke="#191970" d="M1937.6665,-360.2965C2051.8741,-355.6213 2302.5433,-342.443 2511.5,-311 2518.364,-309.9671 2525.5591,-308.6488 2532.6155,-307.2183"/>
<polygon fill="#191970" stroke="#191970" points="2533.7415,-310.5575 2542.7999,-305.0624 2532.2918,-303.7093 2533.7415,-310.5575"/>
</g>
<!-- Node59 -->
<g id="node49" class="node">
<title>Node59</title>
<polygon fill="#ffffff" stroke="#bfbfbf" points="1672,-286 1672,-305 1793,-305 1793,-286 1672,-286"/>
<text text-anchor="middle" x="1732.5" y="-293" font-family="Helvetica,sans-Serif" font-size="10.00" fill="#000000">BelosSolverFactory.hpp</text>
</g>
<!-- Node53&#45;&gt;Node59 -->
<g id="edge53" class="edge">
<title>Node53&#45;&gt;Node59</title>
<path fill="none" stroke="#191970" d="M1855.0116,-352.9005C1830.6944,-341.5072 1789.9514,-322.4178 1762.1831,-309.4075"/>
<polygon fill="#191970" stroke="#191970" points="1763.4907,-306.1551 1752.9504,-305.0817 1760.5208,-312.4938 1763.4907,-306.1551"/>
</g>
<!-- Node60 -->
<g id="node50" class="node">
<title>Node60</title>
<polygon fill="#ffffff" stroke="#bfbfbf" points="1811,-280.5 1811,-310.5 1940,-310.5 1940,-280.5 1811,-280.5"/>
<text text-anchor="start" x="1819" y="-298.5" font-family="Helvetica,sans-Serif" font-size="10.00" fill="#000000">Stratimikos_DefaultLinear</text>
<text text-anchor="middle" x="1875.5" y="-287.5" font-family="Helvetica,sans-Serif" font-size="10.00" fill="#000000">SolverBuilder.hpp</text>
</g>
<!-- Node53&#45;&gt;Node60 -->
<g id="edge57" class="edge">
<title>Node53&#45;&gt;Node60</title>
<path fill="none" stroke="#191970" d="M1875.5,-352.9005C1875.5,-344.5099 1875.5,-331.9451 1875.5,-320.7085"/>
<polygon fill="#191970" stroke="#191970" points="1879.0001,-320.5217 1875.5,-310.5218 1872.0001,-320.5218 1879.0001,-320.5217"/>
</g>
</g>
</svg>
        <g id="navigator" transform="translate(0 0)" fill="#404254">
                <rect fill="#f2f5e9" fill-opacity="0.5" stroke="#606060" stroke-width=".5" x="0" y="0" width="60" height="60"/>
                <use id="zoomplus" xlink:href="#zoomPlus" x="17" y="9" onmousedown="handleZoom(evt,'in')"/>
                <use id="zoomminus" xlink:href="#zoomMin" x="42" y="9" onmousedown="handleZoom(evt,'out')"/>
                <use id="reset" xlink:href="#resetDef" x="30" y="36" onmousedown="handleReset()"/>
                <g id="arrowUp" xlink:href="#dirArrow" transform="translate(30 24)" onmousedown="handlePan(0,-1)">
                  <use xlink:href="#rim" fill="#404040">
                        <set attributeName="fill" to="#808080" begin="arrowUp.mouseover" end="arrowUp.mouseout"/>
                  </use>
                  <path fill="none" stroke="white" stroke-width="1.5" d="M0,-3.0v7 M-2.5,-0.5L0,-3.0L2.5,-0.5"/>
                </g>
                <g id="arrowRight" xlink:href="#dirArrow" transform="rotate(90) translate(36 -43)" onmousedown="handlePan(1,0)">
                  <use xlink:href="#rim" fill="#404040">
                        <set attributeName="fill" to="#808080" begin="arrowRight.mouseover" end="arrowRight.mouseout"/>
                  </use>
                  <path fill="none" stroke="white" stroke-width="1.5" d="M0,-3.0v7 M-2.5,-0.5L0,-3.0L2.5,-0.5"/>
                </g>
                <g id="arrowDown" xlink:href="#dirArrow" transform="rotate(180) translate(-30 -48)" onmousedown="handlePan(0,1)">
                  <use xlink:href="#rim" fill="#404040">
                        <set attributeName="fill" to="#808080" begin="arrowDown.mouseover" end="arrowDown.mouseout"/>
                  </use>
                  <path fill="none" stroke="white" stroke-width="1.5" d="M0,-3.0v7 M-2.5,-0.5L0,-3.0L2.5,-0.5"/>
                </g>
                <g id="arrowLeft" xlink:href="#dirArrow" transform="rotate(270) translate(-36 17)" onmousedown="handlePan(-1,0)">
                  <use xlink:href="#rim" fill="#404040">
                        <set attributeName="fill" to="#808080" begin="arrowLeft.mouseover" end="arrowLeft.mouseout"/>
                  </use>
                  <path fill="none" stroke="white" stroke-width="1.5" d="M0,-3.0v7 M-2.5,-0.5L0,-3.0L2.5,-0.5"/>
                </g>
        </g>
        <svg viewBox="0 0 15 15" width="100%" height="30px" preserveAspectRatio="xMaxYMin meet">
         <g id="arrow_out" transform="scale(0.3 0.3)">
          <a xlink:href="arteries_2strip__dirichlet_2main_8cpp__incl_org.svg" target="_base">
           <rect id="button" ry="5" rx="5" y="6" x="6" height="38" width="38"
                fill="#f2f5e9" fill-opacity="0.5" stroke="#606060" stroke-width="1.0"/>
           <path id="arrow"
             d="M 11.500037,31.436501 C 11.940474,20.09759 22.043105,11.32322 32.158766,21.979434 L 37.068811,17.246167 C 37.068811,17.246167 37.088388,32 37.088388,32 L 22.160133,31.978069 C 22.160133,31.978069 26.997745,27.140456 26.997745,27.140456 C 18.528582,18.264221 13.291696,25.230495 11.500037,31.436501 z"
             style="fill:#404040;"/>
          </a>
         </g>
        </svg>
</svg>
