<?xml version="1.0" encoding="UTF-8" standalone="no"?>
<!DOCTYPE svg PUBLIC "-//W3C//DTD SVG 1.1//EN"
 "http://www.w3.org/Graphics/SVG/1.1/DTD/svg11.dtd">
<!-- Generated by graphviz version 2.40.1 (20161225.0304)
 -->
<!-- Title: arteries/strip_dirichlet/main.cpp Pages: 1 -->
<!--zoomable 464 -->
<svg id="main" version="1.1" xmlns="http://www.w3.org/2000/svg" xmlns:xlink="http://www.w3.org/1999/xlink" xml:space="preserve" onload="init(evt)">
<style type="text/css"><![CDATA[
.edge:hover path { stroke: red; }
.edge:hover polygon { stroke: red; fill: red; }
]]></style>
<script type="text/javascript"><![CDATA[
var edges = document.getElementsByTagName('g');
if (edges && edges.length) {
  for (var i=0;i<edges.length;i++) {
    if (edges[i].id.substr(0,4)=='edge') {
      edges[i].setAttribute('class','edge');
    }
  }
}
]]></script>
        <defs>
                <circle id="rim" cx="0" cy="0" r="7"/>
                <circle id="rim2" cx="0" cy="0" r="3.5"/>
                <g id="zoomPlus">
                        <use xlink:href="#rim" fill="#404040">
                                <set attributeName="fill" to="#808080" begin="zoomplus.mouseover" end="zoomplus.mouseout"/>
                        </use>
                        <path d="M-4,0h8M0,-4v8" fill="none" stroke="white" stroke-width="1.5" pointer-events="none"/>
                </g>
                <g id="zoomMin">
                        <use xlink:href="#rim" fill="#404040">
                                <set attributeName="fill" to="#808080" begin="zoomminus.mouseover" end="zoomminus.mouseout"/>
                        </use>
                        <path d="M-4,0h8" fill="none" stroke="white" stroke-width="1.5" pointer-events="none"/>
                </g>
                <g id="dirArrow">
                        <path fill="none" stroke="white" stroke-width="1.5" d="M0,-3.0v7 M-2.5,-0.5L0,-3.0L2.5,-0.5"/>
                </g>
               <g id="resetDef">
                       <use xlink:href="#rim2" fill="#404040">
                               <set attributeName="fill" to="#808080" begin="reset.mouseover" end="reset.mouseout"/>
                       </use>
               </g>
        </defs>

<script type="text/javascript">
var viewWidth = 2639;
var viewHeight = 464;
var sectionId = 'dynsection-0';
</script>
<script xlink:href="../../svgpan.js"/>
<svg id="graph" class="graph">
<g id="viewport">
<title>arteries/strip_dirichlet/main.cpp</title>
<polygon fill="#ffffff" stroke="transparent" points="-4,4 -4,-460 2634.5,-460 2634.5,4 -4,4"/>
<!-- Node0 -->
<g id="node1" class="node">
<title>Node0</title>
<polygon fill="#bfbfbf" stroke="#000000" points="980.5,-425.5 980.5,-455.5 1090.5,-455.5 1090.5,-425.5 980.5,-425.5"/>
<text text-anchor="start" x="988.5" y="-443.5" font-family="Helvetica,sans-Serif" font-size="10.00" fill="#000000">arteries/strip_dirichlet</text>
<text text-anchor="middle" x="1035.5" y="-432.5" font-family="Helvetica,sans-Serif" font-size="10.00" fill="#000000">/main.cpp</text>
</g>
<!-- Node1 -->
<g id="node2" class="node">
<title>Node1</title>
<polygon fill="#ffffff" stroke="#bfbfbf" points="319.5,-364 319.5,-383 427.5,-383 427.5,-364 319.5,-364"/>
<text text-anchor="middle" x="373.5" y="-371" font-family="Helvetica,sans-Serif" font-size="10.00" fill="#000000">Epetra_ConfigDefs.h</text>
</g>
<!-- Node0&#45;&gt;Node1 -->
<g id="edge1" class="edge">
<title>Node0&#45;&gt;Node1</title>
<path fill="none" stroke="#191970" d="M980.2248,-438.6194C874.1633,-434.3777 635.0029,-421.7482 436.5,-389 430.5196,-388.0134 424.2697,-386.7567 418.1278,-385.387"/>
<polygon fill="#191970" stroke="#191970" points="418.4951,-381.8782 407.9601,-383.003 416.8971,-388.6934 418.4951,-381.8782"/>
</g>
<!-- Node2 -->
<g id="node3" class="node">
<title>Node2</title>
<polygon fill="#ffffff" stroke="#bfbfbf" points="446,-364 446,-383 559,-383 559,-364 446,-364"/>
<text text-anchor="middle" x="502.5" y="-371" font-family="Helvetica,sans-Serif" font-size="10.00" fill="#000000">Epetra_SerialComm.h</text>
</g>
<!-- Node0&#45;&gt;Node2 -->
<g id="edge2" class="edge">
<title>Node0&#45;&gt;Node2</title>
<path fill="none" stroke="#191970" d="M980.2011,-436.5773C892.4755,-429.8667 716.2141,-414.3944 568.5,-389 562.3339,-387.94 555.8829,-386.6518 549.5312,-385.2761"/>
<polygon fill="#191970" stroke="#191970" points="550.211,-381.8416 539.6868,-383.0622 548.6751,-388.6711 550.211,-381.8416"/>
</g>
<!-- Node3 -->
<g id="node4" class="node">
<title>Node3</title>
<polygon fill="#ffffff" stroke="#bfbfbf" points="577,-364 577,-383 762,-383 762,-364 577,-364"/>
<text text-anchor="middle" x="669.5" y="-371" font-family="Helvetica,sans-Serif" font-size="10.00" fill="#000000">Teuchos_CommandLineProcessor.hpp</text>
</g>
<!-- Node0&#45;&gt;Node3 -->
<g id="edge3" class="edge">
<title>Node0&#45;&gt;Node3</title>
<path fill="none" stroke="#191970" d="M980.3098,-430.3969C913.5014,-418.1669 801.3005,-397.6274 731.5507,-384.859"/>
<polygon fill="#191970" stroke="#191970" points="732.045,-381.3914 721.5782,-383.0334 730.7845,-388.277 732.045,-381.3914"/>
</g>
<!-- Node4 -->
<g id="node5" class="node">
<title>Node4</title>
<polygon fill="#ffffff" stroke="#bfbfbf" points="1111.5,-297 1111.5,-316 1287.5,-316 1287.5,-297 1111.5,-297"/>
<text text-anchor="middle" x="1199.5" y="-304" font-family="Helvetica,sans-Serif" font-size="10.00" fill="#000000">Teuchos_StandardCatchMacros.hpp</text>
</g>
<!-- Node0&#45;&gt;Node4 -->
<g id="edge4" class="edge">
<title>Node0&#45;&gt;Node4</title>
<path fill="none" stroke="#191970" d="M1053.9941,-425.389C1085.2147,-399.8794 1148.082,-348.5122 1179.9807,-322.4487"/>
<polygon fill="#191970" stroke="#191970" points="1182.2164,-325.1418 1187.7456,-316.1042 1177.7873,-319.7211 1182.2164,-325.1418"/>
</g>
<!-- Node5 -->
<g id="node6" class="node">
<title>Node5</title>
<polygon fill="#ffffff" stroke="#bfbfbf" points="1306,-297 1306,-316 1445,-316 1445,-297 1306,-297"/>
<text text-anchor="middle" x="1375.5" y="-304" font-family="Helvetica,sans-Serif" font-size="10.00" fill="#000000">Teuchos_ParameterList.hpp</text>
</g>
<!-- Node0&#45;&gt;Node5 -->
<g id="edge5" class="edge">
<title>Node0&#45;&gt;Node5</title>
<path fill="none" stroke="#191970" d="M1073.8414,-425.389C1140.7705,-399.011 1277.8517,-344.9849 1341.5586,-319.8769"/>
<polygon fill="#191970" stroke="#191970" points="1343.1111,-323.0271 1351.1312,-316.1042 1340.5443,-316.5147 1343.1111,-323.0271"/>
</g>
<!-- Node6 -->
<g id="node7" class="node">
<title>Node6</title>
<polygon fill="#ffffff" stroke="#bfbfbf" points="1463.5,-291.5 1463.5,-321.5 1603.5,-321.5 1603.5,-291.5 1463.5,-291.5"/>
<text text-anchor="start" x="1471.5" y="-309.5" font-family="Helvetica,sans-Serif" font-size="10.00" fill="#000000">Teuchos_XMLParameterList</text>
<text text-anchor="middle" x="1533.5" y="-298.5" font-family="Helvetica,sans-Serif" font-size="10.00" fill="#000000">CoreHelpers.hpp</text>
</g>
<!-- Node0&#45;&gt;Node6 -->
<g id="edge6" class="edge">
<title>Node0&#45;&gt;Node6</title>
<path fill="none" stroke="#191970" d="M1090.6975,-425.6477C1183.1225,-400.7783 1368.7779,-350.8228 1467.7872,-324.1818"/>
<polygon fill="#191970" stroke="#191970" points="1468.9271,-327.4996 1477.6742,-321.5214 1467.1083,-320.74 1468.9271,-327.4996"/>
</g>
<!-- Node7 -->
<g id="node8" class="node">
<title>Node7</title>
<g id="a_node8"><a xlink:href="../../d5/d6a/_dirichlet_strip_elongation___stochastic_polyconvex_h_g_o_8hpp.html" target="_top" xlink:title="DirichletStripElongation\l_StochasticPolyconvexHGO.hpp">
<polygon fill="#ffffff" stroke="#000000" points="780,-358.5 780,-388.5 941,-388.5 941,-358.5 780,-358.5"/>
<text text-anchor="start" x="788" y="-376.5" font-family="Helvetica,sans-Serif" font-size="10.00" fill="#000000">DirichletStripElongation</text>
<text text-anchor="middle" x="860.5" y="-365.5" font-family="Helvetica,sans-Serif" font-size="10.00" fill="#000000">_StochasticPolyconvexHGO.hpp</text>
</a>
</g>
</g>
<!-- Node0&#45;&gt;Node7 -->
<g id="edge7" class="edge">
<title>Node0&#45;&gt;Node7</title>
<path fill="none" stroke="#191970" d="M996.2266,-425.4639C970.5354,-415.6278 936.7775,-402.7034 909.3561,-392.2049"/>
<polygon fill="#191970" stroke="#191970" points="910.5351,-388.9086 899.9447,-388.6017 908.0322,-395.4459 910.5351,-388.9086"/>
</g>
<!-- Node51 -->
<g id="node41" class="node">
<title>Node51</title>
<polygon fill="#ffffff" stroke="#bfbfbf" points="977.5,-291.5 977.5,-321.5 1093.5,-321.5 1093.5,-291.5 977.5,-291.5"/>
<text text-anchor="start" x="985.5" y="-309.5" font-family="Helvetica,sans-Serif" font-size="10.00" fill="#000000">boost/math/special</text>
<text text-anchor="middle" x="1035.5" y="-298.5" font-family="Helvetica,sans-Serif" font-size="10.00" fill="#000000">_functions/gamma.hpp</text>
</g>
<!-- Node0&#45;&gt;Node51 -->
<g id="edge58" class="edge">
<title>Node0&#45;&gt;Node51</title>
<path fill="none" stroke="#191970" d="M1035.5,-425.389C1035.5,-402.6691 1035.5,-359.438 1035.5,-331.8405"/>
<polygon fill="#191970" stroke="#191970" points="1039.0001,-331.7614 1035.5,-321.7614 1032.0001,-331.7614 1039.0001,-331.7614"/>
</g>
<!-- Node53 -->
<g id="node43" class="node">
<title>Node53</title>
<g id="a_node43"><a xlink:href="../../d7/d17/_newton___raphsonpp_8hpp.html" target="_top" xlink:title="Newton_Raphsonpp.hpp">
<polygon fill="#ffffff" stroke="#000000" points="1801.5,-364 1801.5,-383 1925.5,-383 1925.5,-364 1801.5,-364"/>
<text text-anchor="middle" x="1863.5" y="-371" font-family="Helvetica,sans-Serif" font-size="10.00" fill="#000000">Newton_Raphsonpp.hpp</text>
</a>
</g>
</g>
<!-- Node0&#45;&gt;Node53 -->
<g id="edge45" class="edge">
<title>Node0&#45;&gt;Node53</title>
<path fill="none" stroke="#191970" d="M1090.7905,-436.026C1235.9792,-424.2777 1628.073,-392.5503 1790.9887,-379.3675"/>
<polygon fill="#191970" stroke="#191970" points="1791.6981,-382.8216 1801.3832,-378.5264 1791.1335,-375.8444 1791.6981,-382.8216"/>
</g>
<!-- Node8 -->
<g id="node9" class="node">
<title>Node8</title>
<g id="a_node9"><a xlink:href="../../de/d49/tensor__calculus_8hpp.html" target="_top" xlink:title="tensor_calculus.hpp">
<polygon fill="#ffffff" stroke="#000000" points="897.5,-168.5 897.5,-187.5 1001.5,-187.5 1001.5,-168.5 897.5,-168.5"/>
<text text-anchor="middle" x="949.5" y="-175.5" font-family="Helvetica,sans-Serif" font-size="10.00" fill="#000000">tensor_calculus.hpp</text>
</a>
</g>
</g>
<!-- Node7&#45;&gt;Node8 -->
<g id="edge8" class="edge">
<title>Node7&#45;&gt;Node8</title>
<path fill="none" stroke="#191970" d="M891.336,-358.318C905.5962,-349.6707 921.3641,-337.4559 930.5,-322 953.7218,-282.7137 953.6063,-227.0075 951.5442,-197.731"/>
<polygon fill="#191970" stroke="#191970" points="955.0144,-197.2329 950.6701,-187.5696 948.0401,-197.8328 955.0144,-197.2329"/>
</g>
<!-- Node41 -->
<g id="node31" class="node">
<title>Node41</title>
<g id="a_node31"><a xlink:href="../../d5/d3f/laplacepp_8hpp.html" target="_top" xlink:title="laplacepp.hpp">
<polygon fill="#ffffff" stroke="#000000" points="246,-297 246,-316 323,-316 323,-297 246,-297"/>
<text text-anchor="middle" x="284.5" y="-304" font-family="Helvetica,sans-Serif" font-size="10.00" fill="#000000">laplacepp.hpp</text>
</a>
</g>
</g>
<!-- Node7&#45;&gt;Node41 -->
<g id="edge30" class="edge">
<title>Node7&#45;&gt;Node41</title>
<path fill="none" stroke="#191970" d="M779.5408,-359.0799C776.8307,-358.6995 774.1448,-358.338 771.5,-358 577.3137,-333.1803 524.4764,-360.3331 332.5,-322 328.3941,-321.1801 324.1475,-320.1259 319.9561,-318.9533"/>
<polygon fill="#191970" stroke="#191970" points="320.9531,-315.5984 310.3682,-316.0574 318.9291,-322.2994 320.9531,-315.5984"/>
</g>
<!-- Node44 -->
<g id="node34" class="node">
<title>Node44</title>
<g id="a_node34"><a xlink:href="../../dc/de0/nearly_incompressible_hyperelasticity_8hpp.html" target="_top" xlink:title="nearlyIncompressibleHyperelasticity.hpp">
<polygon fill="#ffffff" stroke="#000000" points="588,-297 588,-316 781,-316 781,-297 588,-297"/>
<text text-anchor="middle" x="684.5" y="-304" font-family="Helvetica,sans-Serif" font-size="10.00" fill="#000000">nearlyIncompressibleHyperelasticity.hpp</text>
</a>
</g>
</g>
<!-- Node7&#45;&gt;Node44 -->
<g id="edge34" class="edge">
<title>Node7&#45;&gt;Node44</title>
<path fill="none" stroke="#191970" d="M821.0022,-358.4639C790.3164,-346.7824 748.1882,-330.7449 718.8814,-319.5884"/>
<polygon fill="#191970" stroke="#191970" points="720.0601,-316.2921 709.4691,-316.0053 717.5696,-322.8341 720.0601,-316.2921"/>
</g>
<!-- Node47 -->
<g id="node37" class="node">
<title>Node47</title>
<polygon fill="#ffffff" stroke="#bfbfbf" points="799.5,-291.5 799.5,-321.5 921.5,-321.5 921.5,-291.5 799.5,-291.5"/>
<text text-anchor="start" x="807.5" y="-309.5" font-family="Helvetica,sans-Serif" font-size="10.00" fill="#000000">boost/random/mersenne</text>
<text text-anchor="middle" x="860.5" y="-298.5" font-family="Helvetica,sans-Serif" font-size="10.00" fill="#000000">_twister.hpp</text>
</g>
<!-- Node7&#45;&gt;Node47 -->
<g id="edge39" class="edge">
<title>Node7&#45;&gt;Node47</title>
<path fill="none" stroke="#191970" d="M860.5,-358.2967C860.5,-350.5013 860.5,-340.7991 860.5,-331.9064"/>
<polygon fill="#191970" stroke="#191970" points="864.0001,-331.6431 860.5,-321.6432 857.0001,-331.6432 864.0001,-331.6431"/>
</g>
<!-- Node48 -->
<g id="node38" class="node">
<title>Node48</title>
<polygon fill="#ffffff" stroke="#bfbfbf" points="0,-291.5 0,-321.5 111,-321.5 111,-291.5 0,-291.5"/>
<text text-anchor="start" x="8" y="-309.5" font-family="Helvetica,sans-Serif" font-size="10.00" fill="#000000">boost/random/uniform</text>
<text text-anchor="middle" x="55.5" y="-298.5" font-family="Helvetica,sans-Serif" font-size="10.00" fill="#000000">_real_distribution.hpp</text>
</g>
<!-- Node7&#45;&gt;Node48 -->
<g id="edge40" class="edge">
<title>Node7&#45;&gt;Node48</title>
<path fill="none" stroke="#191970" d="M779.552,-358.9876C776.8387,-358.6336 774.149,-358.3027 771.5,-358 486.5368,-325.4324 408.4382,-363.4215 121.5252,-322.1332"/>
<polygon fill="#191970" stroke="#191970" points="121.6307,-318.6116 111.23,-320.6308 120.6197,-325.5382 121.6307,-318.6116"/>
</g>
<!-- Node49 -->
<g id="node39" class="node">
<title>Node49</title>
<polygon fill="#ffffff" stroke="#bfbfbf" points="129,-291.5 129,-321.5 228,-321.5 228,-291.5 129,-291.5"/>
<text text-anchor="start" x="137" y="-309.5" font-family="Helvetica,sans-Serif" font-size="10.00" fill="#000000">boost/math/special</text>
<text text-anchor="middle" x="178.5" y="-298.5" font-family="Helvetica,sans-Serif" font-size="10.00" fill="#000000">_functions/erf.hpp</text>
</g>
<!-- Node7&#45;&gt;Node49 -->
<g id="edge41" class="edge">
<title>Node7&#45;&gt;Node49</title>
<path fill="none" stroke="#191970" d="M779.5471,-359.0293C776.8352,-358.6634 774.1472,-358.3187 771.5,-358 538.1277,-329.9055 473.3742,-360.099 237.9261,-322.0375"/>
<polygon fill="#191970" stroke="#191970" points="238.4706,-318.5801 228.0358,-320.4151 237.3373,-325.4878 238.4706,-318.5801"/>
</g>
<!-- Node50 -->
<g id="node40" class="node">
<title>Node50</title>
<polygon fill="#ffffff" stroke="#bfbfbf" points="341.5,-291.5 341.5,-321.5 449.5,-321.5 449.5,-291.5 341.5,-291.5"/>
<text text-anchor="start" x="349.5" y="-309.5" font-family="Helvetica,sans-Serif" font-size="10.00" fill="#000000">boost/random/normal</text>
<text text-anchor="middle" x="395.5" y="-298.5" font-family="Helvetica,sans-Serif" font-size="10.00" fill="#000000">_distribution.hpp</text>
</g>
<!-- Node7&#45;&gt;Node50 -->
<g id="edge42" class="edge">
<title>Node7&#45;&gt;Node50</title>
<path fill="none" stroke="#191970" d="M779.5254,-359.1928C776.8198,-358.7802 774.1389,-358.3812 771.5,-358 636.1587,-338.4482 598.0901,-346.38 459.833,-322.1025"/>
<polygon fill="#191970" stroke="#191970" points="460.1615,-318.606 449.7027,-320.298 458.9339,-325.4975 460.1615,-318.606"/>
</g>
<!-- Node7&#45;&gt;Node51 -->
<g id="edge43" class="edge">
<title>Node7&#45;&gt;Node51</title>
<path fill="none" stroke="#191970" d="M899.7734,-358.4639C925.4646,-348.6278 959.2225,-335.7034 986.6439,-325.2049"/>
<polygon fill="#191970" stroke="#191970" points="987.9678,-328.4459 996.0553,-321.6017 985.4649,-321.9086 987.9678,-328.4459"/>
</g>
<!-- Node52 -->
<g id="node42" class="node">
<title>Node52</title>
<polygon fill="#ffffff" stroke="#bfbfbf" points="467.5,-291.5 467.5,-321.5 569.5,-321.5 569.5,-291.5 467.5,-291.5"/>
<text text-anchor="start" x="475.5" y="-309.5" font-family="Helvetica,sans-Serif" font-size="10.00" fill="#000000">boost/math/special</text>
<text text-anchor="middle" x="518.5" y="-298.5" font-family="Helvetica,sans-Serif" font-size="10.00" fill="#000000">_functions/beta.hpp</text>
</g>
<!-- Node7&#45;&gt;Node52 -->
<g id="edge44" class="edge">
<title>Node7&#45;&gt;Node52</title>
<path fill="none" stroke="#191970" d="M779.9891,-359.3691C710.9192,-347.1308 616.8103,-330.1495 579.5,-322 579.3999,-321.9781 579.2998,-321.9562 579.1995,-321.9343"/>
<polygon fill="#191970" stroke="#191970" points="580.2223,-318.5775 569.6954,-319.7758 578.6719,-325.4037 580.2223,-318.5775"/>
</g>
<!-- Node9 -->
<g id="node10" class="node">
<title>Node9</title>
<g id="a_node10"><a xlink:href="../../d0/d02/meshpp_8hpp.html" target="_top" xlink:title="meshpp.hpp">
<polygon fill="#ffffff" stroke="#ff0000" points="878.5,-56.5 878.5,-75.5 948.5,-75.5 948.5,-56.5 878.5,-56.5"/>
<text text-anchor="middle" x="913.5" y="-63.5" font-family="Helvetica,sans-Serif" font-size="10.00" fill="#000000">meshpp.hpp</text>
</a>
</g>
</g>
<!-- Node8&#45;&gt;Node9 -->
<g id="edge9" class="edge">
<title>Node8&#45;&gt;Node9</title>
<path fill="none" stroke="#191970" d="M946.4307,-168.4509C940.5326,-150.1013 927.5113,-109.5908 919.7259,-85.3693"/>
<polygon fill="#191970" stroke="#191970" points="922.9538,-83.9741 916.5616,-75.5249 916.2896,-86.1162 922.9538,-83.9741"/>
</g>
<!-- Node10 -->
<g id="node11" class="node">
<title>Node10</title>
<polygon fill="#ffffff" stroke="#bfbfbf" points="1929.5,-.5 1929.5,-19.5 1975.5,-19.5 1975.5,-.5 1929.5,-.5"/>
<text text-anchor="middle" x="1952.5" y="-7.5" font-family="Helvetica,sans-Serif" font-size="10.00" fill="#000000">stdio.h</text>
</g>
<!-- Node9&#45;&gt;Node10 -->
<g id="edge10" class="edge">
<title>Node9&#45;&gt;Node10</title>
<path fill="none" stroke="#191970" d="M948.7559,-65.6037C1101.5465,-63.7027 1707.9073,-54.222 1919.1938,-19.7388"/>
<polygon fill="#191970" stroke="#191970" points="1919.9832,-23.1548 1929.253,-18.0244 1918.8071,-16.2543 1919.9832,-23.1548"/>
</g>
<!-- Node11 -->
<g id="node12" class="node">
<title>Node11</title>
<polygon fill="#ffffff" stroke="#bfbfbf" points="1993.5,-.5 1993.5,-19.5 2047.5,-19.5 2047.5,-.5 1993.5,-.5"/>
<text text-anchor="middle" x="2020.5" y="-7.5" font-family="Helvetica,sans-Serif" font-size="10.00" fill="#000000">iostream</text>
</g>
<!-- Node9&#45;&gt;Node11 -->
<g id="edge11" class="edge">
<title>Node9&#45;&gt;Node11</title>
<path fill="none" stroke="#191970" d="M948.5148,-65.5686C1106.8936,-63.4557 1757.9171,-52.9923 1983.0494,-19.8422"/>
<polygon fill="#191970" stroke="#191970" points="1983.7706,-23.2726 1993.1247,-18.2976 1982.7098,-16.3534 1983.7706,-23.2726"/>
</g>
<!-- Node12 -->
<g id="node13" class="node">
<title>Node12</title>
<polygon fill="#ffffff" stroke="#bfbfbf" points="0,-.5 0,-19.5 49,-19.5 49,-.5 0,-.5"/>
<text text-anchor="middle" x="24.5" y="-7.5" font-family="Helvetica,sans-Serif" font-size="10.00" fill="#000000">istream</text>
</g>
<!-- Node9&#45;&gt;Node12 -->
<g id="edge12" class="edge">
<title>Node9&#45;&gt;Node12</title>
<path fill="none" stroke="#191970" d="M878.0539,-65.1902C740.2862,-61.8766 239.6051,-48.2442 59.3557,-19.6749"/>
<polygon fill="#191970" stroke="#191970" points="59.6636,-16.1782 49.2256,-17.9941 58.5178,-23.0838 59.6636,-16.1782"/>
</g>
<!-- Node13 -->
<g id="node14" class="node">
<title>Node13</title>
<polygon fill="#ffffff" stroke="#bfbfbf" points="67.5,-.5 67.5,-19.5 117.5,-19.5 117.5,-.5 67.5,-.5"/>
<text text-anchor="middle" x="92.5" y="-7.5" font-family="Helvetica,sans-Serif" font-size="10.00" fill="#000000">fstream</text>
</g>
<!-- Node9&#45;&gt;Node13 -->
<g id="edge13" class="edge">
<title>Node9&#45;&gt;Node13</title>
<path fill="none" stroke="#191970" d="M878.1855,-65.0045C747.8566,-61.1682 293.3257,-46.3094 127.6224,-19.7579"/>
<polygon fill="#191970" stroke="#191970" points="128.0414,-16.2794 117.5998,-18.0748 126.8821,-23.1827 128.0414,-16.2794"/>
</g>
<!-- Node14 -->
<g id="node15" class="node">
<title>Node14</title>
<polygon fill="#ffffff" stroke="#bfbfbf" points="135.5,-.5 135.5,-19.5 179.5,-19.5 179.5,-.5 135.5,-.5"/>
<text text-anchor="middle" x="157.5" y="-7.5" font-family="Helvetica,sans-Serif" font-size="10.00" fill="#000000">vector</text>
</g>
<!-- Node9&#45;&gt;Node14 -->
<g id="edge14" class="edge">
<title>Node9&#45;&gt;Node14</title>
<path fill="none" stroke="#191970" d="M878.3823,-64.9283C755.1913,-60.993 342.3713,-46.2758 189.7785,-19.7329"/>
<polygon fill="#191970" stroke="#191970" points="190.1456,-16.242 179.6789,-17.8845 188.8854,-23.1276 190.1456,-16.242"/>
</g>
<!-- Node15 -->
<g id="node16" class="node">
<title>Node15</title>
<polygon fill="#ffffff" stroke="#bfbfbf" points="197.5,-.5 197.5,-19.5 247.5,-19.5 247.5,-.5 197.5,-.5"/>
<text text-anchor="middle" x="222.5" y="-7.5" font-family="Helvetica,sans-Serif" font-size="10.00" fill="#000000">iomanip</text>
</g>
<!-- Node9&#45;&gt;Node15 -->
<g id="edge15" class="edge">
<title>Node9&#45;&gt;Node15</title>
<path fill="none" stroke="#191970" d="M878.4768,-64.5481C763.3131,-59.6213 396.2846,-42.6677 257.5823,-19.7716"/>
<polygon fill="#191970" stroke="#191970" points="258.0567,-16.3018 247.6057,-18.0417 256.8606,-23.1988 258.0567,-16.3018"/>
</g>
<!-- Node16 -->
<g id="node17" class="node">
<title>Node16</title>
<polygon fill="#ffffff" stroke="#bfbfbf" points="265.5,-.5 265.5,-19.5 369.5,-19.5 369.5,-.5 265.5,-.5"/>
<text text-anchor="middle" x="317.5" y="-7.5" font-family="Helvetica,sans-Serif" font-size="10.00" fill="#000000">Epetra_MpiComm.h</text>
</g>
<!-- Node9&#45;&gt;Node16 -->
<g id="edge16" class="edge">
<title>Node9&#45;&gt;Node16</title>
<path fill="none" stroke="#191970" d="M878.3486,-63.9143C794.1288,-58.7169 573.9862,-43.9473 379.8094,-20.0817"/>
<polygon fill="#191970" stroke="#191970" points="380.0601,-16.586 369.7053,-18.8286 379.1985,-23.5328 380.0601,-16.586"/>
</g>
<!-- Node17 -->
<g id="node18" class="node">
<title>Node17</title>
<polygon fill="#ffffff" stroke="#bfbfbf" points="388,-.5 388,-19.5 501,-19.5 501,-.5 388,-.5"/>
<text text-anchor="middle" x="444.5" y="-7.5" font-family="Helvetica,sans-Serif" font-size="10.00" fill="#000000">Epetra_FECrsGraph.h</text>
</g>
<!-- Node9&#45;&gt;Node17 -->
<g id="edge17" class="edge">
<title>Node9&#45;&gt;Node17</title>
<path fill="none" stroke="#191970" d="M878.408,-62.4326C810.0062,-55.3846 653.8218,-38.8288 511.2467,-20.0564"/>
<polygon fill="#191970" stroke="#191970" points="511.379,-16.5434 501.0062,-18.701 510.4605,-23.4829 511.379,-16.5434"/>
</g>
<!-- Node18 -->
<g id="node19" class="node">
<title>Node18</title>
<polygon fill="#ffffff" stroke="#bfbfbf" points="519.5,-.5 519.5,-19.5 633.5,-19.5 633.5,-.5 519.5,-.5"/>
<text text-anchor="middle" x="576.5" y="-7.5" font-family="Helvetica,sans-Serif" font-size="10.00" fill="#000000">Epetra_FECrsMatrix.h</text>
</g>
<!-- Node9&#45;&gt;Node18 -->
<g id="edge18" class="edge">
<title>Node9&#45;&gt;Node18</title>
<path fill="none" stroke="#191970" d="M878.3888,-60.1655C823.0346,-50.9672 714.5179,-32.9347 643.7924,-21.1821"/>
<polygon fill="#191970" stroke="#191970" points="644.081,-17.6822 633.6425,-19.4955 642.9335,-24.5875 644.081,-17.6822"/>
</g>
<!-- Node19 -->
<g id="node20" class="node">
<title>Node19</title>
<polygon fill="#ffffff" stroke="#bfbfbf" points="651.5,-.5 651.5,-19.5 751.5,-19.5 751.5,-.5 651.5,-.5"/>
<text text-anchor="middle" x="701.5" y="-7.5" font-family="Helvetica,sans-Serif" font-size="10.00" fill="#000000">Epetra_FEVector.h</text>
</g>
<!-- Node9&#45;&gt;Node19 -->
<g id="edge19" class="edge">
<title>Node9&#45;&gt;Node19</title>
<path fill="none" stroke="#191970" d="M878.4925,-56.7527C842.6824,-47.2935 786.8661,-32.5495 747.5052,-22.1523"/>
<polygon fill="#191970" stroke="#191970" points="748.1866,-18.7123 737.6243,-19.5423 746.3988,-25.4802 748.1866,-18.7123"/>
</g>
<!-- Node20 -->
<g id="node21" class="node">
<title>Node20</title>
<polygon fill="#ffffff" stroke="#bfbfbf" points="770,-.5 770,-19.5 857,-19.5 857,-.5 770,-.5"/>
<text text-anchor="middle" x="813.5" y="-7.5" font-family="Helvetica,sans-Serif" font-size="10.00" fill="#000000">Epetra_Vector.h</text>
</g>
<!-- Node9&#45;&gt;Node20 -->
<g id="edge20" class="edge">
<title>Node9&#45;&gt;Node20</title>
<path fill="none" stroke="#191970" d="M896.0813,-56.2455C880.4515,-47.4928 857.2981,-34.527 839.4815,-24.5496"/>
<polygon fill="#191970" stroke="#191970" points="841.1543,-21.475 830.7191,-19.6427 837.734,-27.5825 841.1543,-21.475"/>
</g>
<!-- Node21 -->
<g id="node22" class="node">
<title>Node21</title>
<polygon fill="#ffffff" stroke="#bfbfbf" points="875,-.5 875,-19.5 952,-19.5 952,-.5 875,-.5"/>
<text text-anchor="middle" x="913.5" y="-7.5" font-family="Helvetica,sans-Serif" font-size="10.00" fill="#000000">Epetra_Map.h</text>
</g>
<!-- Node9&#45;&gt;Node21 -->
<g id="edge21" class="edge">
<title>Node9&#45;&gt;Node21</title>
<path fill="none" stroke="#191970" d="M913.5,-56.2455C913.5,-48.9382 913.5,-38.6944 913.5,-29.7046"/>
<polygon fill="#191970" stroke="#191970" points="917.0001,-29.6426 913.5,-19.6427 910.0001,-29.6427 917.0001,-29.6426"/>
</g>
<!-- Node22 -->
<g id="node23" class="node">
<title>Node22</title>
<polygon fill="#ffffff" stroke="#bfbfbf" points="970,-.5 970,-19.5 1109,-19.5 1109,-.5 970,-.5"/>
<text text-anchor="middle" x="1039.5" y="-7.5" font-family="Helvetica,sans-Serif" font-size="10.00" fill="#000000">Epetra_SerialDenseMatrix.h</text>
</g>
<!-- Node9&#45;&gt;Node22 -->
<g id="edge22" class="edge">
<title>Node9&#45;&gt;Node22</title>
<path fill="none" stroke="#191970" d="M935.1602,-56.3733C955.4772,-47.3435 986.064,-33.7494 1008.875,-23.6111"/>
<polygon fill="#191970" stroke="#191970" points="1010.4059,-26.7609 1018.1225,-19.5011 1007.5628,-20.3642 1010.4059,-26.7609"/>
</g>
<!-- Node23 -->
<g id="node24" class="node">
<title>Node23</title>
<polygon fill="#ffffff" stroke="#bfbfbf" points="1127.5,-.5 1127.5,-19.5 1267.5,-19.5 1267.5,-.5 1127.5,-.5"/>
<text text-anchor="middle" x="1197.5" y="-7.5" font-family="Helvetica,sans-Serif" font-size="10.00" fill="#000000">Epetra_SerialDenseVector.h</text>
</g>
<!-- Node9&#45;&gt;Node23 -->
<g id="edge23" class="edge">
<title>Node9&#45;&gt;Node23</title>
<path fill="none" stroke="#191970" d="M948.6088,-59.0771C996.2092,-49.6911 1081.8457,-32.8051 1139.1827,-21.4992"/>
<polygon fill="#191970" stroke="#191970" points="1140.0561,-24.8944 1149.1901,-19.5259 1138.7019,-18.0267 1140.0561,-24.8944"/>
</g>
<!-- Node24 -->
<g id="node25" class="node">
<title>Node24</title>
<polygon fill="#ffffff" stroke="#bfbfbf" points="1285.5,-.5 1285.5,-19.5 1437.5,-19.5 1437.5,-.5 1285.5,-.5"/>
<text text-anchor="middle" x="1361.5" y="-7.5" font-family="Helvetica,sans-Serif" font-size="10.00" fill="#000000">Epetra_IntSerialDenseVector.h</text>
</g>
<!-- Node9&#45;&gt;Node24 -->
<g id="edge24" class="edge">
<title>Node9&#45;&gt;Node24</title>
<path fill="none" stroke="#191970" d="M948.6538,-61.6058C1018.4523,-52.881 1176.3162,-33.148 1275.3545,-20.7682"/>
<polygon fill="#191970" stroke="#191970" points="1275.8557,-24.2329 1285.3443,-19.5195 1274.9874,-17.2869 1275.8557,-24.2329"/>
</g>
<!-- Node25 -->
<g id="node26" class="node">
<title>Node25</title>
<polygon fill="#ffffff" stroke="#bfbfbf" points="1455.5,-.5 1455.5,-19.5 1541.5,-19.5 1541.5,-.5 1455.5,-.5"/>
<text text-anchor="middle" x="1498.5" y="-7.5" font-family="Helvetica,sans-Serif" font-size="10.00" fill="#000000">Epetra_Import.h</text>
</g>
<!-- Node9&#45;&gt;Node25 -->
<g id="edge25" class="edge">
<title>Node9&#45;&gt;Node25</title>
<path fill="none" stroke="#191970" d="M948.5634,-64.2375C1032.5631,-59.7453 1252.0754,-46.4103 1445.3693,-20.0285"/>
<polygon fill="#191970" stroke="#191970" points="1445.9995,-23.4748 1455.4271,-18.6405 1445.0425,-16.5405 1445.9995,-23.4748"/>
</g>
<!-- Node26 -->
<g id="node27" class="node">
<title>Node26</title>
<polygon fill="#ffffff" stroke="#bfbfbf" points="1560,-.5 1560,-19.5 1647,-19.5 1647,-.5 1560,-.5"/>
<text text-anchor="middle" x="1603.5" y="-7.5" font-family="Helvetica,sans-Serif" font-size="10.00" fill="#000000">Epetra_Export.h</text>
</g>
<!-- Node9&#45;&gt;Node26 -->
<g id="edge26" class="edge">
<title>Node9&#45;&gt;Node26</title>
<path fill="none" stroke="#191970" d="M948.5119,-64.8787C1043.5198,-61.5372 1314.2591,-50.0307 1549.7648,-19.9454"/>
<polygon fill="#191970" stroke="#191970" points="1550.4213,-23.3897 1559.8905,-18.6374 1549.5245,-16.4474 1550.4213,-23.3897"/>
</g>
<!-- Node27 -->
<g id="node28" class="node">
<title>Node27</title>
<polygon fill="#ffffff" stroke="#bfbfbf" points="1665.5,-.5 1665.5,-19.5 1745.5,-19.5 1745.5,-.5 1665.5,-.5"/>
<text text-anchor="middle" x="1705.5" y="-7.5" font-family="Helvetica,sans-Serif" font-size="10.00" fill="#000000">Epetra_Time.h</text>
</g>
<!-- Node9&#45;&gt;Node27 -->
<g id="edge27" class="edge">
<title>Node9&#45;&gt;Node27</title>
<path fill="none" stroke="#191970" d="M948.8621,-65.5581C1054.624,-63.8671 1377.819,-56.0139 1655.2034,-19.9923"/>
<polygon fill="#191970" stroke="#191970" points="1656.0068,-23.417 1665.4656,-18.6439 1655.0948,-16.4766 1656.0068,-23.417"/>
</g>
<!-- Node28 -->
<g id="node29" class="node">
<title>Node28</title>
<polygon fill="#ffffff" stroke="#bfbfbf" points="1764,-.5 1764,-19.5 1911,-19.5 1911,-.5 1764,-.5"/>
<text text-anchor="middle" x="1837.5" y="-7.5" font-family="Helvetica,sans-Serif" font-size="10.00" fill="#000000">ml_MultiLevelPreconditioner.h</text>
</g>
<!-- Node9&#45;&gt;Node28 -->
<g id="edge28" class="edge">
<title>Node9&#45;&gt;Node28</title>
<path fill="none" stroke="#191970" d="M948.8105,-64.8942C1063.2865,-61.1349 1434.6731,-47.5708 1753.3959,-20.0394"/>
<polygon fill="#191970" stroke="#191970" points="1754.1008,-23.4914 1763.7598,-19.1376 1753.494,-16.5177 1754.1008,-23.4914"/>
</g>
<!-- Node35 -->
<g id="node30" class="node">
<title>Node35</title>
<polygon fill="#ffffff" stroke="#bfbfbf" points="2166.5,-.5 2166.5,-19.5 2266.5,-19.5 2266.5,-.5 2166.5,-.5"/>
<text text-anchor="middle" x="2216.5" y="-7.5" font-family="Helvetica,sans-Serif" font-size="10.00" fill="#000000">Teuchos_RCP.hpp</text>
</g>
<!-- Node9&#45;&gt;Node35 -->
<g id="edge29" class="edge">
<title>Node9&#45;&gt;Node35</title>
<path fill="none" stroke="#191970" d="M948.5885,-64.8721C1088.4388,-60.3165 1619.6635,-42.4386 2056.5,-20 2089.4445,-18.3078 2126.1806,-16.0389 2156.1354,-14.0901"/>
<polygon fill="#191970" stroke="#191970" points="2156.6809,-17.562 2166.4306,-13.4156 2156.2232,-10.577 2156.6809,-17.562"/>
</g>
<!-- Node42 -->
<g id="node32" class="node">
<title>Node42</title>
<g id="a_node32"><a xlink:href="../../d9/dea/_linear___finite___element___problem_8hpp.html" target="_top" xlink:title="Linear_Finite_Element\l_Problem.hpp">
<polygon fill="#ffffff" stroke="#000000" points="366,-224.5 366,-254.5 479,-254.5 479,-224.5 366,-224.5"/>
<text text-anchor="start" x="374" y="-242.5" font-family="Helvetica,sans-Serif" font-size="10.00" fill="#000000">Linear_Finite_Element</text>
<text text-anchor="middle" x="422.5" y="-231.5" font-family="Helvetica,sans-Serif" font-size="10.00" fill="#000000">_Problem.hpp</text>
</a>
</g>
</g>
<!-- Node41&#45;&gt;Node42 -->
<g id="edge31" class="edge">
<title>Node41&#45;&gt;Node42</title>
<path fill="none" stroke="#191970" d="M304.272,-296.9005C324.5832,-287.0393 356.7691,-271.4128 382.4335,-258.9526"/>
<polygon fill="#191970" stroke="#191970" points="384.0925,-262.0379 391.5597,-254.5218 381.0352,-255.7408 384.0925,-262.0379"/>
</g>
<!-- Node43 -->
<g id="node33" class="node">
<title>Node43</title>
<g id="a_node33"><a xlink:href="../../d0/d41/_base_class_f_e_m_8hpp.html" target="_top" xlink:title="BaseClassFEM.hpp">
<polygon fill="#ffffff" stroke="#000000" points="756.5,-112.5 756.5,-131.5 860.5,-131.5 860.5,-112.5 756.5,-112.5"/>
<text text-anchor="middle" x="808.5" y="-119.5" font-family="Helvetica,sans-Serif" font-size="10.00" fill="#000000">BaseClassFEM.hpp</text>
</a>
</g>
</g>
<!-- Node42&#45;&gt;Node43 -->
<g id="edge32" class="edge">
<title>Node42&#45;&gt;Node43</title>
<path fill="none" stroke="#191970" d="M471.7792,-224.4992C548.7453,-201.0704 696.0611,-156.2269 767.5576,-134.463"/>
<polygon fill="#191970" stroke="#191970" points="768.5804,-137.8103 777.1277,-131.5499 766.5418,-131.1137 768.5804,-137.8103"/>
</g>
<!-- Node43&#45;&gt;Node9 -->
<g id="edge33" class="edge">
<title>Node43&#45;&gt;Node9</title>
<path fill="none" stroke="#191970" d="M826.7896,-112.2455C843.2762,-103.4527 867.7352,-90.4079 886.4765,-80.4125"/>
<polygon fill="#191970" stroke="#191970" points="888.2435,-83.4368 895.42,-75.6427 884.9494,-77.2604 888.2435,-83.4368"/>
</g>
<!-- Node45 -->
<g id="node35" class="node">
<title>Node45</title>
<g id="a_node35"><a xlink:href="../../d2/d34/hyperelasticity_8hpp.html" target="_top" xlink:title="hyperelasticity.hpp">
<polygon fill="#ffffff" stroke="#000000" points="697.5,-230 697.5,-249 795.5,-249 795.5,-230 697.5,-230"/>
<text text-anchor="middle" x="746.5" y="-237" font-family="Helvetica,sans-Serif" font-size="10.00" fill="#000000">hyperelasticity.hpp</text>
</a>
</g>
</g>
<!-- Node44&#45;&gt;Node45 -->
<g id="edge35" class="edge">
<title>Node44&#45;&gt;Node45</title>
<path fill="none" stroke="#191970" d="M693.3831,-296.9005C703.0514,-286.4525 718.7088,-269.5325 730.5248,-256.7635"/>
<polygon fill="#191970" stroke="#191970" points="733.4103,-258.7985 737.6334,-249.0817 728.2726,-254.0441 733.4103,-258.7985"/>
</g>
<!-- Node46 -->
<g id="node36" class="node">
<title>Node46</title>
<g id="a_node36"><a xlink:href="../../d2/d8b/_finite___element___problem_8hpp.html" target="_top" xlink:title="Finite_Element_Problem.hpp">
<polygon fill="#ffffff" stroke="#000000" points="737.5,-168.5 737.5,-187.5 879.5,-187.5 879.5,-168.5 737.5,-168.5"/>
<text text-anchor="middle" x="808.5" y="-175.5" font-family="Helvetica,sans-Serif" font-size="10.00" fill="#000000">Finite_Element_Problem.hpp</text>
</a>
</g>
</g>
<!-- Node45&#45;&gt;Node46 -->
<g id="edge36" class="edge">
<title>Node45&#45;&gt;Node46</title>
<path fill="none" stroke="#191970" d="M756.1875,-229.8906C765.5959,-220.5581 780.0807,-206.1902 791.4249,-194.9374"/>
<polygon fill="#191970" stroke="#191970" points="794.0411,-197.2722 798.6759,-187.7449 789.1114,-192.3024 794.0411,-197.2722"/>
</g>
<!-- Node46&#45;&gt;Node9 -->
<g id="edge37" class="edge">
<title>Node46&#45;&gt;Node9</title>
<path fill="none" stroke="#191970" d="M823.931,-168.4846C837.0021,-159.9543 855.7551,-146.5678 869.5,-132 883.0366,-117.6529 895.1997,-98.6991 903.2887,-84.785"/>
<polygon fill="#191970" stroke="#191970" points="906.5584,-86.112 908.42,-75.682 900.4605,-82.6746 906.5584,-86.112"/>
</g>
<!-- Node46&#45;&gt;Node43 -->
<g id="edge38" class="edge">
<title>Node46&#45;&gt;Node43</title>
<path fill="none" stroke="#191970" d="M808.5,-168.2455C808.5,-160.9382 808.5,-150.6944 808.5,-141.7046"/>
<polygon fill="#191970" stroke="#191970" points="812.0001,-141.6426 808.5,-131.6427 805.0001,-141.6427 812.0001,-141.6426"/>
</g>
<!-- Node53&#45;&gt;Node4 -->
<g id="edge54" class="edge">
<title>Node53&#45;&gt;Node4</title>
<path fill="none" stroke="#191970" d="M1801.379,-369.1982C1697.048,-361.6711 1480.1108,-344.7237 1297.5,-322 1287.2018,-320.7185 1276.3231,-319.1817 1265.7076,-317.5808"/>
<polygon fill="#191970" stroke="#191970" points="1266.0537,-314.093 1255.6379,-316.0325 1264.9898,-321.0117 1266.0537,-314.093"/>
</g>
<!-- Node53&#45;&gt;Node5 -->
<g id="edge55" class="edge">
<title>Node53&#45;&gt;Node5</title>
<path fill="none" stroke="#191970" d="M1801.296,-367.0085C1720.9632,-358.3181 1576.9171,-341.6928 1454.5,-322 1447.016,-320.7961 1439.1574,-319.4066 1431.4187,-317.9642"/>
<polygon fill="#191970" stroke="#191970" points="1431.8343,-314.4806 1421.3562,-316.0487 1430.5253,-321.3571 1431.8343,-314.4806"/>
</g>
<!-- Node53&#45;&gt;Node6 -->
<g id="edge56" class="edge">
<title>Node53&#45;&gt;Node6</title>
<path fill="none" stroke="#191970" d="M1816.5695,-363.9717C1763.7859,-353.255 1677.1498,-335.6653 1613.6037,-322.7635"/>
<polygon fill="#191970" stroke="#191970" points="1614.1083,-319.2946 1603.6119,-320.7348 1612.7155,-326.1546 1614.1083,-319.2946"/>
</g>
<!-- Node53&#45;&gt;Node35 -->
<g id="edge47" class="edge">
<title>Node53&#45;&gt;Node35</title>
<path fill="none" stroke="#191970" d="M1925.7865,-370.0404C2039.2199,-363.1736 2270.3562,-346.3539 2297.5,-322 2325.5063,-296.8723 2316.5,-277.1265 2316.5,-239.5 2316.5,-239.5 2316.5,-239.5 2316.5,-122 2316.5,-78.0606 2273.1447,-43.4269 2243.5285,-24.8942"/>
<polygon fill="#191970" stroke="#191970" points="2245.2145,-21.824 2234.8415,-19.6672 2241.6055,-27.8219 2245.2145,-21.824"/>
</g>
<!-- Node53&#45;&gt;Node46 -->
<g id="edge46" class="edge">
<title>Node53&#45;&gt;Node46</title>
<path fill="none" stroke="#191970" d="M1801.2346,-365.6358C1757.6495,-358.4243 1698.9624,-345.2178 1651.5,-322 1631.6102,-312.2702 1632.8454,-299.737 1612.5,-291 1579.4406,-276.8032 1087.5738,-213.3581 889.8735,-188.2637"/>
<polygon fill="#191970" stroke="#191970" points="890.1929,-184.7763 879.832,-186.99 889.312,-191.7207 890.1929,-184.7763"/>
</g>
<!-- Node54 -->
<g id="node44" class="node">
<title>Node54</title>
<polygon fill="#ffffff" stroke="#bfbfbf" points="1946.5,-297 1946.5,-316 1998.5,-316 1998.5,-297 1946.5,-297"/>
<text text-anchor="middle" x="1972.5" y="-304" font-family="Helvetica,sans-Serif" font-size="10.00" fill="#000000">Ifpack.h</text>
</g>
<!-- Node53&#45;&gt;Node54 -->
<g id="edge48" class="edge">
<title>Node53&#45;&gt;Node54</title>
<path fill="none" stroke="#191970" d="M1879.117,-363.9005C1897.1669,-352.8057 1927.0896,-334.4128 1948.1908,-321.4424"/>
<polygon fill="#191970" stroke="#191970" points="1950.2255,-324.3001 1956.9119,-316.0817 1946.5598,-318.3366 1950.2255,-324.3001"/>
</g>
<!-- Node55 -->
<g id="node45" class="node">
<title>Node55</title>
<polygon fill="#ffffff" stroke="#bfbfbf" points="2017,-297 2017,-316 2148,-316 2148,-297 2017,-297"/>
<text text-anchor="middle" x="2082.5" y="-304" font-family="Helvetica,sans-Serif" font-size="10.00" fill="#000000">Ifpack_AdditiveSchwarz.h</text>
</g>
<!-- Node53&#45;&gt;Node55 -->
<g id="edge49" class="edge">
<title>Node53&#45;&gt;Node55</title>
<path fill="none" stroke="#191970" d="M1894.8774,-363.9005C1933.4194,-352.1091 1998.9053,-332.0746 2041.4235,-319.0668"/>
<polygon fill="#191970" stroke="#191970" points="2042.6423,-322.3541 2051.1808,-316.0817 2040.5944,-315.6604 2042.6423,-322.3541"/>
</g>
<!-- Node56 -->
<g id="node46" class="node">
<title>Node56</title>
<polygon fill="#ffffff" stroke="#bfbfbf" points="2166.5,-297 2166.5,-316 2288.5,-316 2288.5,-297 2166.5,-297"/>
<text text-anchor="middle" x="2227.5" y="-304" font-family="Helvetica,sans-Serif" font-size="10.00" fill="#000000">BelosLinearProblem.hpp</text>
</g>
<!-- Node53&#45;&gt;Node56 -->
<g id="edge50" class="edge">
<title>Node53&#45;&gt;Node56</title>
<path fill="none" stroke="#191970" d="M1922.492,-363.9593C1981.9554,-354.1562 2076.2989,-338.0938 2157.5,-322 2163.3664,-320.8373 2169.4964,-319.5651 2175.5846,-318.2653"/>
<polygon fill="#191970" stroke="#191970" points="2176.7044,-321.604 2185.737,-316.0666 2175.2227,-314.7626 2176.7044,-321.604"/>
</g>
<!-- Node57 -->
<g id="node47" class="node">
<title>Node57</title>
<polygon fill="#ffffff" stroke="#bfbfbf" points="2345,-297 2345,-316 2490,-316 2490,-297 2345,-297"/>
<text text-anchor="middle" x="2417.5" y="-304" font-family="Helvetica,sans-Serif" font-size="10.00" fill="#000000">BelosBlockGmresSolMgr.hpp</text>
</g>
<!-- Node53&#45;&gt;Node57 -->
<g id="edge51" class="edge">
<title>Node53&#45;&gt;Node57</title>
<path fill="none" stroke="#191970" d="M1925.6096,-367.9755C2015.2459,-359.7023 2185.9853,-342.8184 2330.5,-322 2339.2161,-320.7444 2348.3973,-319.2726 2357.3968,-317.7447"/>
<polygon fill="#191970" stroke="#191970" points="2358.1899,-321.1596 2367.4459,-316.0044 2356.9953,-314.2622 2358.1899,-321.1596"/>
</g>
<!-- Node58 -->
<g id="node48" class="node">
<title>Node58</title>
<polygon fill="#ffffff" stroke="#bfbfbf" points="2508.5,-297 2508.5,-316 2630.5,-316 2630.5,-297 2508.5,-297"/>
<text text-anchor="middle" x="2569.5" y="-304" font-family="Helvetica,sans-Serif" font-size="10.00" fill="#000000">BelosEpetraAdapter.hpp</text>
</g>
<!-- Node53&#45;&gt;Node58 -->
<g id="edge52" class="edge">
<title>Node53&#45;&gt;Node58</title>
<path fill="none" stroke="#191970" d="M1925.6665,-371.2965C2039.8741,-366.6213 2290.5433,-353.443 2499.5,-322 2506.364,-320.9671 2513.5591,-319.6488 2520.6155,-318.2183"/>
<polygon fill="#191970" stroke="#191970" points="2521.7415,-321.5575 2530.7999,-316.0624 2520.2918,-314.7093 2521.7415,-321.5575"/>
</g>
<!-- Node59 -->
<g id="node49" class="node">
<title>Node59</title>
<polygon fill="#ffffff" stroke="#bfbfbf" points="1660,-297 1660,-316 1781,-316 1781,-297 1660,-297"/>
<text text-anchor="middle" x="1720.5" y="-304" font-family="Helvetica,sans-Serif" font-size="10.00" fill="#000000">BelosSolverFactory.hpp</text>
</g>
<!-- Node53&#45;&gt;Node59 -->
<g id="edge53" class="edge">
<title>Node53&#45;&gt;Node59</title>
<path fill="none" stroke="#191970" d="M1843.0116,-363.9005C1818.6944,-352.5072 1777.9514,-333.4178 1750.1831,-320.4075"/>
<polygon fill="#191970" stroke="#191970" points="1751.4907,-317.1551 1740.9504,-316.0817 1748.5208,-323.4938 1751.4907,-317.1551"/>
</g>
<!-- Node60 -->
<g id="node50" class="node">
<title>Node60</title>
<polygon fill="#ffffff" stroke="#bfbfbf" points="1799,-291.5 1799,-321.5 1928,-321.5 1928,-291.5 1799,-291.5"/>
<text text-anchor="start" x="1807" y="-309.5" font-family="Helvetica,sans-Serif" font-size="10.00" fill="#000000">Stratimikos_DefaultLinear</text>
<text text-anchor="middle" x="1863.5" y="-298.5" font-family="Helvetica,sans-Serif" font-size="10.00" fill="#000000">SolverBuilder.hpp</text>
</g>
<!-- Node53&#45;&gt;Node60 -->
<g id="edge57" class="edge">
<title>Node53&#45;&gt;Node60</title>
<path fill="none" stroke="#191970" d="M1863.5,-363.9005C1863.5,-355.5099 1863.5,-342.9451 1863.5,-331.7085"/>
<polygon fill="#191970" stroke="#191970" points="1867.0001,-331.5217 1863.5,-321.5218 1860.0001,-331.5218 1867.0001,-331.5217"/>
</g>
</g>
</svg>
        <g id="navigator" transform="translate(0 0)" fill="#404254">
                <rect fill="#f2f5e9" fill-opacity="0.5" stroke="#606060" stroke-width=".5" x="0" y="0" width="60" height="60"/>
                <use id="zoomplus" xlink:href="#zoomPlus" x="17" y="9" onmousedown="handleZoom(evt,'in')"/>
                <use id="zoomminus" xlink:href="#zoomMin" x="42" y="9" onmousedown="handleZoom(evt,'out')"/>
                <use id="reset" xlink:href="#resetDef" x="30" y="36" onmousedown="handleReset()"/>
                <g id="arrowUp" xlink:href="#dirArrow" transform="translate(30 24)" onmousedown="handlePan(0,-1)">
                  <use xlink:href="#rim" fill="#404040">
                        <set attributeName="fill" to="#808080" begin="arrowUp.mouseover" end="arrowUp.mouseout"/>
                  </use>
                  <path fill="none" stroke="white" stroke-width="1.5" d="M0,-3.0v7 M-2.5,-0.5L0,-3.0L2.5,-0.5"/>
                </g>
                <g id="arrowRight" xlink:href="#dirArrow" transform="rotate(90) translate(36 -43)" onmousedown="handlePan(1,0)">
                  <use xlink:href="#rim" fill="#404040">
                        <set attributeName="fill" to="#808080" begin="arrowRight.mouseover" end="arrowRight.mouseout"/>
                  </use>
                  <path fill="none" stroke="white" stroke-width="1.5" d="M0,-3.0v7 M-2.5,-0.5L0,-3.0L2.5,-0.5"/>
                </g>
                <g id="arrowDown" xlink:href="#dirArrow" transform="rotate(180) translate(-30 -48)" onmousedown="handlePan(0,1)">
                  <use xlink:href="#rim" fill="#404040">
                        <set attributeName="fill" to="#808080" begin="arrowDown.mouseover" end="arrowDown.mouseout"/>
                  </use>
                  <path fill="none" stroke="white" stroke-width="1.5" d="M0,-3.0v7 M-2.5,-0.5L0,-3.0L2.5,-0.5"/>
                </g>
                <g id="arrowLeft" xlink:href="#dirArrow" transform="rotate(270) translate(-36 17)" onmousedown="handlePan(-1,0)">
                  <use xlink:href="#rim" fill="#404040">
                        <set attributeName="fill" to="#808080" begin="arrowLeft.mouseover" end="arrowLeft.mouseout"/>
                  </use>
                  <path fill="none" stroke="white" stroke-width="1.5" d="M0,-3.0v7 M-2.5,-0.5L0,-3.0L2.5,-0.5"/>
                </g>
        </g>
        <svg viewBox="0 0 15 15" width="100%" height="30px" preserveAspectRatio="xMaxYMin meet">
         <g id="arrow_out" transform="scale(0.3 0.3)">
          <a xlink:href="arteries_2strip__dirichlet_2main_8cpp__incl_org.svg" target="_base">
           <rect id="button" ry="5" rx="5" y="6" x="6" height="38" width="38"
                fill="#f2f5e9" fill-opacity="0.5" stroke="#606060" stroke-width="1.0"/>
           <path id="arrow"
             d="M 11.500037,31.436501 C 11.940474,20.09759 22.043105,11.32322 32.158766,21.979434 L 37.068811,17.246167 C 37.068811,17.246167 37.088388,32 37.088388,32 L 22.160133,31.978069 C 22.160133,31.978069 26.997745,27.140456 26.997745,27.140456 C 18.528582,18.264221 13.291696,25.230495 11.500037,31.436501 z"
             style="fill:#404040;"/>
          </a>
         </g>
        </svg>
</svg>
