<?xml version="1.0" encoding="UTF-8" standalone="no"?>
<!DOCTYPE svg PUBLIC "-//W3C//DTD SVG 1.1//EN"
 "http://www.w3.org/Graphics/SVG/1.1/DTD/svg11.dtd">
<!-- Generated by graphviz version 2.40.1 (20161225.0304)
 -->
<!-- Title: src/Arteries_ModelC_gmrf_neumann.hpp Pages: 1 -->
<svg width="393pt" height="102pt"
 viewBox="0.00 0.00 392.88 102.00" xmlns="http://www.w3.org/2000/svg" xmlns:xlink="http://www.w3.org/1999/xlink">
<g id="graph0" class="graph" transform="scale(1 1) rotate(0) translate(4 98)">
<title>src/Arteries_ModelC_gmrf_neumann.hpp</title>
<polygon fill="#ffffff" stroke="transparent" points="-4,4 -4,-98 388.8813,-98 388.8813,4 -4,4"/>
<!-- Node44 -->
<g id="node1" class="node">
<title>Node44</title>
<polygon fill="#bfbfbf" stroke="#000000" points="136.0469,-65.5 136.0469,-93.5 244.332,-93.5 244.332,-65.5 136.0469,-65.5"/>
<text text-anchor="start" x="144.0469" y="-81.5" font-family="Helvetica,sans-Serif" font-size="10.00" fill="#000000">src/Arteries_ModelC</text>
<text text-anchor="middle" x="190.1895" y="-71.5" font-family="Helvetica,sans-Serif" font-size="10.00" fill="#000000">_gmrf_neumann.hpp</text>
</g>
<!-- Node45 -->
<g id="node2" class="node">
<title>Node45</title>
<g id="a_node2"><a xlink:href="../../d5/da5/arteries_2boost__gmrf_2gmrf__gauss_2main_8cpp.html" target="_top" xlink:title="arteries/boost_gmrf\l/gmrf_gauss/main.cpp">
<polygon fill="#ffffff" stroke="#000000" points="0,-.5 0,-28.5 114.3789,-28.5 114.3789,-.5 0,-.5"/>
<text text-anchor="start" x="8" y="-16.5" font-family="Helvetica,sans-Serif" font-size="10.00" fill="#000000">arteries/boost_gmrf</text>
<text text-anchor="middle" x="57.1895" y="-6.5" font-family="Helvetica,sans-Serif" font-size="10.00" fill="#000000">/gmrf_gauss/main.cpp</text>
</a>
</g>
</g>
<!-- Node44&#45;&gt;Node45 -->
<g id="edge1" class="edge">
<title>Node44&#45;&gt;Node45</title>
<path fill="none" stroke="#191970" d="M152.3193,-60.9921C131.2382,-50.6892 105.4126,-38.0677 85.9922,-28.5765"/>
<polygon fill="#191970" stroke="#191970" points="150.8092,-64.1496 161.3304,-65.396 153.8828,-57.8605 150.8092,-64.1496"/>
</g>
<!-- Node46 -->
<g id="node3" class="node">
<title>Node46</title>
<g id="a_node3"><a xlink:href="../../d2/dbe/arteries_2boost__gmrf_2gmrf__nodes_2main_8cpp.html" target="_top" xlink:title="arteries/boost_gmrf\l/gmrf_nodes/main.cpp">
<polygon fill="#ffffff" stroke="#000000" points="132.7192,-.5 132.7192,-28.5 247.6597,-28.5 247.6597,-.5 132.7192,-.5"/>
<text text-anchor="start" x="140.7192" y="-16.5" font-family="Helvetica,sans-Serif" font-size="10.00" fill="#000000">arteries/boost_gmrf</text>
<text text-anchor="middle" x="190.1895" y="-6.5" font-family="Helvetica,sans-Serif" font-size="10.00" fill="#000000">/gmrf_nodes/main.cpp</text>
</a>
</g>
</g>
<!-- Node44&#45;&gt;Node46 -->
<g id="edge2" class="edge">
<title>Node44&#45;&gt;Node46</title>
<path fill="none" stroke="#191970" d="M190.1895,-55.1081C190.1895,-46.1539 190.1895,-36.3227 190.1895,-28.5765"/>
<polygon fill="#191970" stroke="#191970" points="186.6896,-55.3959 190.1895,-65.396 193.6896,-55.396 186.6896,-55.3959"/>
</g>
<!-- Node47 -->
<g id="node4" class="node">
<title>Node47</title>
<g id="a_node4"><a xlink:href="../../da/df3/arteries_2gmrf__neumann_2main_8cpp.html" target="_top" xlink:title="arteries/gmrf_neumann\l/main.cpp">
<polygon fill="#ffffff" stroke="#000000" points="265.4976,-.5 265.4976,-28.5 384.8813,-28.5 384.8813,-.5 265.4976,-.5"/>
<text text-anchor="start" x="273.4976" y="-16.5" font-family="Helvetica,sans-Serif" font-size="10.00" fill="#000000">arteries/gmrf_neumann</text>
<text text-anchor="middle" x="325.1895" y="-6.5" font-family="Helvetica,sans-Serif" font-size="10.00" fill="#000000">/main.cpp</text>
</a>
</g>
</g>
<!-- Node44&#45;&gt;Node47 -->
<g id="edge3" class="edge">
<title>Node44&#45;&gt;Node47</title>
<path fill="none" stroke="#191970" d="M228.629,-60.9921C250.0272,-50.6892 276.2411,-38.0677 295.9536,-28.5765"/>
<polygon fill="#191970" stroke="#191970" points="226.9741,-57.9042 219.4824,-65.396 230.0108,-64.2113 226.9741,-57.9042"/>
</g>
</g>
</svg>
