<?xml version="1.0" encoding="UTF-8" standalone="no"?>
<!DOCTYPE svg PUBLIC "-//W3C//DTD SVG 1.1//EN"
 "http://www.w3.org/Graphics/SVG/1.1/DTD/svg11.dtd">
<!-- Generated by graphviz version 2.40.1 (20161225.0304)
 -->
<!-- Title: Linear_Finite_Element_Problem Pages: 1 -->
<svg width="124pt" height="158pt"
 viewBox="0.00 0.00 124.06 158.00" xmlns="http://www.w3.org/2000/svg" xmlns:xlink="http://www.w3.org/1999/xlink">
<g id="graph0" class="graph" transform="scale(1 1) rotate(0) translate(4 154)">
<title>Linear_Finite_Element_Problem</title>
<polygon fill="#ffffff" stroke="transparent" points="-4,4 -4,-154 120.0586,-154 120.0586,4 -4,4"/>
<!-- Node5 -->
<g id="node1" class="node">
<title>Node5</title>
<polygon fill="#bfbfbf" stroke="#000000" points="0,-.5 0,-28.5 116.0586,-28.5 116.0586,-.5 0,-.5"/>
<text text-anchor="start" x="8" y="-16.5" font-family="Helvetica,sans-Serif" font-size="10.00" fill="#000000">Linear_Finite_Element</text>
<text text-anchor="middle" x="58.0293" y="-6.5" font-family="Helvetica,sans-Serif" font-size="10.00" fill="#000000">_Problem</text>
</g>
<!-- Node6 -->
<g id="node2" class="node">
<title>Node6</title>
<g id="a_node2"><a xlink:href="../../d2/d97/class_base_class_f_e_m.html" target="_top" xlink:title="BaseClassFEM">
<polygon fill="#ffffff" stroke="#000000" points="15.5762,-66.5 15.5762,-84.5 100.4824,-84.5 100.4824,-66.5 15.5762,-66.5"/>
<text text-anchor="middle" x="58.0293" y="-72.5" font-family="Helvetica,sans-Serif" font-size="10.00" fill="#000000">BaseClassFEM</text>
</a>
</g>
</g>
<!-- Node6&#45;&gt;Node5 -->
<g id="edge1" class="edge">
<title>Node6&#45;&gt;Node5</title>
<path fill="none" stroke="#191970" d="M58.0293,-56.2842C58.0293,-47.3664 58.0293,-36.9504 58.0293,-28.7488"/>
<polygon fill="#191970" stroke="#191970" points="54.5294,-56.4992 58.0293,-66.4992 61.5294,-56.4993 54.5294,-56.4992"/>
</g>
<!-- Node7 -->
<g id="node3" class="node">
<title>Node7</title>
<g id="a_node3"><a xlink:href="../../d6/d6b/classmesh.html" target="_top" xlink:title="mesh">
<polygon fill="#ffffff" stroke="#000000" points="37.8027,-131.5 37.8027,-149.5 78.2559,-149.5 78.2559,-131.5 37.8027,-131.5"/>
<text text-anchor="middle" x="58.0293" y="-137.5" font-family="Helvetica,sans-Serif" font-size="10.00" fill="#000000">mesh</text>
</a>
</g>
</g>
<!-- Node7&#45;&gt;Node6 -->
<g id="edge2" class="edge">
<title>Node7&#45;&gt;Node6</title>
<path fill="none" stroke="#9a32cd" stroke-dasharray="5,2" d="M58.0293,-121.1265C58.0293,-109.1522 58.0293,-94.3205 58.0293,-84.8821"/>
<polygon fill="#9a32cd" stroke="#9a32cd" points="54.5294,-121.462 58.0293,-131.462 61.5294,-121.4621 54.5294,-121.462"/>
<text text-anchor="middle" x="71.645" y="-105" font-family="Helvetica,sans-Serif" font-size="10.00" fill="#000000"> Mesh</text>
</g>
</g>
</svg>
