<?xml version="1.0" encoding="UTF-8" standalone="no"?>
<!DOCTYPE svg PUBLIC "-//W3C//DTD SVG 1.1//EN"
 "http://www.w3.org/Graphics/SVG/1.1/DTD/svg11.dtd">
<!-- Generated by graphviz version 2.40.1 (20161225.0304)
 -->
<!-- Title: arteries/deterministic_neumann/main.cpp Pages: 1 -->
<!--zoomable 387 -->
<svg id="main" version="1.1" xmlns="http://www.w3.org/2000/svg" xmlns:xlink="http://www.w3.org/1999/xlink" xml:space="preserve" onload="init(evt)">
<style type="text/css"><![CDATA[
.edge:hover path { stroke: red; }
.edge:hover polygon { stroke: red; fill: red; }
]]></style>
<script type="text/javascript"><![CDATA[
var edges = document.getElementsByTagName('g');
if (edges && edges.length) {
  for (var i=0;i<edges.length;i++) {
    if (edges[i].id.substr(0,4)=='edge') {
      edges[i].setAttribute('class','edge');
    }
  }
}
]]></script>
        <defs>
                <circle id="rim" cx="0" cy="0" r="7"/>
                <circle id="rim2" cx="0" cy="0" r="3.5"/>
                <g id="zoomPlus">
                        <use xlink:href="#rim" fill="#404040">
                                <set attributeName="fill" to="#808080" begin="zoomplus.mouseover" end="zoomplus.mouseout"/>
                        </use>
                        <path d="M-4,0h8M0,-4v8" fill="none" stroke="white" stroke-width="1.5" pointer-events="none"/>
                </g>
                <g id="zoomMin">
                        <use xlink:href="#rim" fill="#404040">
                                <set attributeName="fill" to="#808080" begin="zoomminus.mouseover" end="zoomminus.mouseout"/>
                        </use>
                        <path d="M-4,0h8" fill="none" stroke="white" stroke-width="1.5" pointer-events="none"/>
                </g>
                <g id="dirArrow">
                        <path fill="none" stroke="white" stroke-width="1.5" d="M0,-3.0v7 M-2.5,-0.5L0,-3.0L2.5,-0.5"/>
                </g>
               <g id="resetDef">
                       <use xlink:href="#rim2" fill="#404040">
                               <set attributeName="fill" to="#808080" begin="reset.mouseover" end="reset.mouseout"/>
                       </use>
               </g>
        </defs>

<script type="text/javascript">
var viewWidth = 3328;
var viewHeight = 387;
var sectionId = 'dynsection-0';
</script>
<script xlink:href="../../svgpan.js"/>
<svg id="graph" class="graph">
<g id="viewport">
<title>arteries/deterministic_neumann/main.cpp</title>
<polygon fill="#ffffff" stroke="transparent" points="-4,4 -4,-383 3323.8076,-383 3323.8076,4 -4,4"/>
<!-- Node0 -->
<g id="node1" class="node">
<title>Node0</title>
<polygon fill="#bfbfbf" stroke="#000000" points="440.2905,-350.5 440.2905,-378.5 548.5415,-378.5 548.5415,-350.5 440.2905,-350.5"/>
<text text-anchor="start" x="448.2905" y="-366.5" font-family="Helvetica,sans-Serif" font-size="10.00" fill="#000000">arteries/deterministic</text>
<text text-anchor="middle" x="494.416" y="-356.5" font-family="Helvetica,sans-Serif" font-size="10.00" fill="#000000">_neumann/main.cpp</text>
</g>
<!-- Node1 -->
<g id="node2" class="node">
<title>Node1</title>
<polygon fill="#ffffff" stroke="#bfbfbf" points="0,-290.5 0,-308.5 108.832,-308.5 108.832,-290.5 0,-290.5"/>
<text text-anchor="middle" x="54.416" y="-296.5" font-family="Helvetica,sans-Serif" font-size="10.00" fill="#000000">Epetra_ConfigDefs.h</text>
</g>
<!-- Node0&#45;&gt;Node1 -->
<g id="edge1" class="edge">
<title>Node0&#45;&gt;Node1</title>
<path fill="none" stroke="#191970" d="M440.0072,-358.7365C366.6718,-350.6165 232.1776,-334.4844 118.416,-314 113.0201,-313.0284 107.3911,-311.9096 101.8075,-310.7334"/>
<polygon fill="#191970" stroke="#191970" points="102.3811,-307.2765 91.866,-308.5736 100.8949,-314.1169 102.3811,-307.2765"/>
</g>
<!-- Node2 -->
<g id="node3" class="node">
<title>Node2</title>
<polygon fill="#ffffff" stroke="#bfbfbf" points="127.229,-290.5 127.229,-308.5 241.603,-308.5 241.603,-290.5 127.229,-290.5"/>
<text text-anchor="middle" x="184.416" y="-296.5" font-family="Helvetica,sans-Serif" font-size="10.00" fill="#000000">Epetra_SerialComm.h</text>
</g>
<!-- Node0&#45;&gt;Node2 -->
<g id="edge2" class="edge">
<title>Node0&#45;&gt;Node2</title>
<path fill="none" stroke="#191970" d="M440.1061,-353.4569C390.6327,-343.3503 315.5687,-327.8986 250.416,-314 245.452,-312.941 240.2806,-311.8259 235.1139,-310.7037"/>
<polygon fill="#191970" stroke="#191970" points="235.7556,-307.2615 225.2394,-308.5501 234.2639,-314.1007 235.7556,-307.2615"/>
</g>
<!-- Node3 -->
<g id="node4" class="node">
<title>Node3</title>
<polygon fill="#ffffff" stroke="#bfbfbf" points="259.5298,-290.5 259.5298,-308.5 447.3022,-308.5 447.3022,-290.5 259.5298,-290.5"/>
<text text-anchor="middle" x="353.416" y="-296.5" font-family="Helvetica,sans-Serif" font-size="10.00" fill="#000000">Teuchos_CommandLineProcessor.hpp</text>
</g>
<!-- Node0&#45;&gt;Node3 -->
<g id="edge3" class="edge">
<title>Node0&#45;&gt;Node3</title>
<path fill="none" stroke="#191970" d="M463.8211,-350.396C439.6177,-339.2383 406.0578,-323.7675 382.308,-312.819"/>
<polygon fill="#191970" stroke="#191970" points="383.6471,-309.5823 373.1003,-308.5743 380.7165,-315.9394 383.6471,-309.5823"/>
</g>
<!-- Node4 -->
<g id="node5" class="node">
<title>Node4</title>
<polygon fill="#ffffff" stroke="#bfbfbf" points="126.5347,-225.5 126.5347,-243.5 304.2974,-243.5 304.2974,-225.5 126.5347,-225.5"/>
<text text-anchor="middle" x="215.416" y="-231.5" font-family="Helvetica,sans-Serif" font-size="10.00" fill="#000000">Teuchos_StandardCatchMacros.hpp</text>
</g>
<!-- Node0&#45;&gt;Node4 -->
<g id="edge4" class="edge">
<title>Node0&#45;&gt;Node4</title>
<path fill="none" stroke="#191970" d="M491.6608,-350.3156C487.382,-332.2591 477.3502,-301.4403 456.416,-285 442.6451,-274.1852 347.7881,-256.5287 281.2753,-245.2175"/>
<polygon fill="#191970" stroke="#191970" points="281.7142,-241.7421 271.2709,-243.5275 280.5482,-248.6443 281.7142,-241.7421"/>
</g>
<!-- Node5 -->
<g id="node6" class="node">
<title>Node5</title>
<polygon fill="#ffffff" stroke="#bfbfbf" points="322.1577,-225.5 322.1577,-243.5 462.6743,-243.5 462.6743,-225.5 322.1577,-225.5"/>
<text text-anchor="middle" x="392.416" y="-231.5" font-family="Helvetica,sans-Serif" font-size="10.00" fill="#000000">Teuchos_ParameterList.hpp</text>
</g>
<!-- Node0&#45;&gt;Node5 -->
<g id="edge5" class="edge">
<title>Node0&#45;&gt;Node5</title>
<path fill="none" stroke="#191970" d="M497.443,-350.2841C500.235,-333.298 502.237,-304.7063 489.416,-285 477.6357,-266.8933 457.1664,-254.9062 438.0586,-247.1756"/>
<polygon fill="#191970" stroke="#191970" points="439.1312,-243.84 428.5388,-243.6129 436.6777,-250.3959 439.1312,-243.84"/>
</g>
<!-- Node6 -->
<g id="node7" class="node">
<title>Node6</title>
<polygon fill="#ffffff" stroke="#bfbfbf" points="480.6084,-220.5 480.6084,-248.5 622.2236,-248.5 622.2236,-220.5 480.6084,-220.5"/>
<text text-anchor="start" x="488.6084" y="-236.5" font-family="Helvetica,sans-Serif" font-size="10.00" fill="#000000">Teuchos_XMLParameterList</text>
<text text-anchor="middle" x="551.416" y="-226.5" font-family="Helvetica,sans-Serif" font-size="10.00" fill="#000000">CoreHelpers.hpp</text>
</g>
<!-- Node0&#45;&gt;Node6 -->
<g id="edge6" class="edge">
<title>Node0&#45;&gt;Node6</title>
<path fill="none" stroke="#191970" d="M505.406,-350.1249C512.4632,-340.3567 521.4007,-326.9112 527.416,-314 535.757,-296.0971 542.0436,-274.5892 546.0861,-258.4613"/>
<polygon fill="#191970" stroke="#191970" points="549.4908,-259.2721 548.4175,-248.7317 542.6835,-257.6408 549.4908,-259.2721"/>
</g>
<!-- Node7 -->
<g id="node8" class="node">
<title>Node7</title>
<g id="a_node8"><a xlink:href="../../dd/da4/_arteries___model_c__deterministic__neumann_8hpp.html" target="_top" xlink:title="Arteries_ModelC_deterministic\l_neumann.hpp">
<polygon fill="#ffffff" stroke="#000000" points="1650.335,-285.5 1650.335,-313.5 1802.4971,-313.5 1802.4971,-285.5 1650.335,-285.5"/>
<text text-anchor="start" x="1658.335" y="-301.5" font-family="Helvetica,sans-Serif" font-size="10.00" fill="#000000">Arteries_ModelC_deterministic</text>
<text text-anchor="middle" x="1726.416" y="-291.5" font-family="Helvetica,sans-Serif" font-size="10.00" fill="#000000">_neumann.hpp</text>
</a>
</g>
</g>
<!-- Node0&#45;&gt;Node7 -->
<g id="edge7" class="edge">
<title>Node0&#45;&gt;Node7</title>
<path fill="none" stroke="#191970" d="M548.5438,-361.6442C742.2259,-351.4256 1401.8903,-316.6219 1639.8976,-304.0647"/>
<polygon fill="#191970" stroke="#191970" points="1640.4283,-307.5417 1650.23,-303.5196 1640.0594,-300.5514 1640.4283,-307.5417"/>
</g>
<!-- Node46 -->
<g id="node43" class="node">
<title>Node46</title>
<g id="a_node43"><a xlink:href="../../d7/d17/_newton___raphsonpp_8hpp.html" target="_top" xlink:title="Newton_Raphsonpp.hpp">
<polygon fill="#ffffff" stroke="#000000" points="898.3745,-290.5 898.3745,-308.5 1024.4575,-308.5 1024.4575,-290.5 898.3745,-290.5"/>
<text text-anchor="middle" x="961.416" y="-296.5" font-family="Helvetica,sans-Serif" font-size="10.00" fill="#000000">Newton_Raphsonpp.hpp</text>
</a>
</g>
</g>
<!-- Node0&#45;&gt;Node46 -->
<g id="edge44" class="edge">
<title>Node0&#45;&gt;Node46</title>
<path fill="none" stroke="#191970" d="M548.9008,-356.9165C632.9376,-345.2197 794.2878,-322.762 888.3615,-309.6682"/>
<polygon fill="#191970" stroke="#191970" points="888.9479,-313.1204 898.3699,-308.2752 887.9828,-306.1872 888.9479,-313.1204"/>
</g>
<!-- Node8 -->
<g id="node9" class="node">
<title>Node8</title>
<g id="a_node9"><a xlink:href="../../de/d49/tensor__calculus_8hpp.html" target="_top" xlink:title="tensor_calculus.hpp">
<polygon fill="#ffffff" stroke="#000000" points="1756.9434,-110.5 1756.9434,-128.5 1861.8887,-128.5 1861.8887,-110.5 1756.9434,-110.5"/>
<text text-anchor="middle" x="1809.416" y="-116.5" font-family="Helvetica,sans-Serif" font-size="10.00" fill="#000000">tensor_calculus.hpp</text>
</a>
</g>
</g>
<!-- Node7&#45;&gt;Node8 -->
<g id="edge8" class="edge">
<title>Node7&#45;&gt;Node8</title>
<path fill="none" stroke="#191970" d="M1752.5842,-285.3944C1766.0942,-276.7153 1781.5605,-264.3162 1790.416,-249 1810.5287,-214.2137 1811.9213,-165.6956 1810.8591,-139.014"/>
<polygon fill="#191970" stroke="#191970" points="1814.3361,-138.5058 1810.279,-128.7186 1807.3472,-138.8997 1814.3361,-138.5058"/>
</g>
<!-- Node41 -->
<g id="node39" class="node">
<title>Node41</title>
<g id="a_node39"><a xlink:href="../../de/d9d/hyperelasticity__setup__pp_8hpp.html" target="_top" xlink:title="hyperelasticity_setup\l_pp.hpp">
<polygon fill="#ffffff" stroke="#000000" points="1671.7241,-220.5 1671.7241,-248.5 1781.1079,-248.5 1781.1079,-220.5 1671.7241,-220.5"/>
<text text-anchor="start" x="1679.7241" y="-236.5" font-family="Helvetica,sans-Serif" font-size="10.00" fill="#000000">hyperelasticity_setup</text>
<text text-anchor="middle" x="1726.416" y="-226.5" font-family="Helvetica,sans-Serif" font-size="10.00" fill="#000000">_pp.hpp</text>
</a>
</g>
</g>
<!-- Node7&#45;&gt;Node41 -->
<g id="edge38" class="edge">
<title>Node7&#45;&gt;Node41</title>
<path fill="none" stroke="#191970" d="M1726.416,-285.396C1726.416,-277.6448 1726.416,-267.8122 1726.416,-258.8601"/>
<polygon fill="#191970" stroke="#191970" points="1729.9161,-258.5765 1726.416,-248.5765 1722.9161,-258.5765 1729.9161,-258.5765"/>
</g>
<!-- Node9 -->
<g id="node10" class="node">
<title>Node9</title>
<g id="a_node10"><a xlink:href="../../d0/d02/meshpp_8hpp.html" target="_top" xlink:title="meshpp.hpp">
<polygon fill="#ffffff" stroke="#ff0000" points="1711.8965,-55.5 1711.8965,-73.5 1782.9355,-73.5 1782.9355,-55.5 1711.8965,-55.5"/>
<text text-anchor="middle" x="1747.416" y="-61.5" font-family="Helvetica,sans-Serif" font-size="10.00" fill="#000000">meshpp.hpp</text>
</a>
</g>
</g>
<!-- Node8&#45;&gt;Node9 -->
<g id="edge9" class="edge">
<title>Node8&#45;&gt;Node9</title>
<path fill="none" stroke="#191970" d="M1799.178,-110.4179C1790.0786,-102.3458 1776.5623,-90.3556 1765.6234,-80.6517"/>
<polygon fill="#191970" stroke="#191970" points="1767.6799,-77.7974 1757.8765,-73.7795 1763.0346,-83.0339 1767.6799,-77.7974"/>
</g>
<!-- Node10 -->
<g id="node11" class="node">
<title>Node10</title>
<polygon fill="#ffffff" stroke="#bfbfbf" points="3134.6846,-.5 3134.6846,-18.5 3180.1475,-18.5 3180.1475,-.5 3134.6846,-.5"/>
<text text-anchor="middle" x="3157.416" y="-6.5" font-family="Helvetica,sans-Serif" font-size="10.00" fill="#000000">stdio.h</text>
</g>
<!-- Node9&#45;&gt;Node10 -->
<g id="edge10" class="edge">
<title>Node9&#45;&gt;Node10</title>
<path fill="none" stroke="#191970" d="M1782.9666,-63.8692C1981.3579,-60.2784 2948.7114,-41.8158 3124.5198,-18.5329"/>
<polygon fill="#191970" stroke="#191970" points="3125.123,-21.9819 3134.5073,-17.0642 3124.1045,-15.0564 3125.123,-21.9819"/>
</g>
<!-- Node11 -->
<g id="node12" class="node">
<title>Node11</title>
<polygon fill="#ffffff" stroke="#bfbfbf" points="3198.2437,-.5 3198.2437,-18.5 3252.5884,-18.5 3252.5884,-.5 3198.2437,-.5"/>
<text text-anchor="middle" x="3225.416" y="-6.5" font-family="Helvetica,sans-Serif" font-size="10.00" fill="#000000">iostream</text>
</g>
<!-- Node9&#45;&gt;Node11 -->
<g id="edge11" class="edge">
<title>Node9&#45;&gt;Node11</title>
<path fill="none" stroke="#191970" d="M1783.237,-63.8554C1987.7507,-60.1118 3004.7029,-40.6258 3187.8639,-18.7537"/>
<polygon fill="#191970" stroke="#191970" points="3188.5757,-22.1901 3198.0311,-17.4104 3187.6588,-15.2504 3188.5757,-22.1901"/>
</g>
<!-- Node12 -->
<g id="node13" class="node">
<title>Node12</title>
<polygon fill="#ffffff" stroke="#bfbfbf" points="3271.0244,-.5 3271.0244,-18.5 3319.8076,-18.5 3319.8076,-.5 3271.0244,-.5"/>
<text text-anchor="middle" x="3295.416" y="-6.5" font-family="Helvetica,sans-Serif" font-size="10.00" fill="#000000">istream</text>
</g>
<!-- Node9&#45;&gt;Node12 -->
<g id="edge12" class="edge">
<title>Node9&#45;&gt;Node12</title>
<path fill="none" stroke="#191970" d="M1783.2672,-63.9432C1994.0627,-60.6014 3069.1399,-42.5991 3260.5498,-18.5639"/>
<polygon fill="#191970" stroke="#191970" points="3261.2613,-21.9988 3270.6853,-17.1574 3260.2991,-15.0653 3261.2613,-21.9988"/>
</g>
<!-- Node13 -->
<g id="node14" class="node">
<title>Node13</title>
<polygon fill="#ffffff" stroke="#bfbfbf" points="308.7461,-.5 308.7461,-18.5 358.0859,-18.5 358.0859,-.5 308.7461,-.5"/>
<text text-anchor="middle" x="333.416" y="-6.5" font-family="Helvetica,sans-Serif" font-size="10.00" fill="#000000">fstream</text>
</g>
<!-- Node9&#45;&gt;Node13 -->
<g id="edge13" class="edge">
<title>Node9&#45;&gt;Node13</title>
<path fill="none" stroke="#191970" d="M1711.7908,-63.8531C1512.9829,-60.1744 543.5932,-41.3114 368.0986,-18.7485"/>
<polygon fill="#191970" stroke="#191970" points="368.5281,-15.2744 358.1339,-17.3265 367.5392,-22.2042 368.5281,-15.2744"/>
</g>
<!-- Node14 -->
<g id="node15" class="node">
<title>Node14</title>
<polygon fill="#ffffff" stroke="#bfbfbf" points="375.8003,-.5 375.8003,-18.5 419.0317,-18.5 419.0317,-.5 375.8003,-.5"/>
<text text-anchor="middle" x="397.416" y="-6.5" font-family="Helvetica,sans-Serif" font-size="10.00" fill="#000000">vector</text>
</g>
<!-- Node9&#45;&gt;Node14 -->
<g id="edge14" class="edge">
<title>Node9&#45;&gt;Node14</title>
<path fill="none" stroke="#191970" d="M1711.7564,-63.8502C1518.3251,-60.2495 597.7727,-42.1223 429.2008,-18.7038"/>
<polygon fill="#191970" stroke="#191970" points="429.6186,-15.2268 419.2005,-17.1537 428.5463,-22.1442 429.6186,-15.2268"/>
</g>
<!-- Node15 -->
<g id="node16" class="node">
<title>Node15</title>
<polygon fill="#ffffff" stroke="#bfbfbf" points="436.9063,-.5 436.9063,-18.5 487.9258,-18.5 487.9258,-.5 436.9063,-.5"/>
<text text-anchor="middle" x="462.416" y="-6.5" font-family="Helvetica,sans-Serif" font-size="10.00" fill="#000000">iomanip</text>
</g>
<!-- Node9&#45;&gt;Node15 -->
<g id="edge15" class="edge">
<title>Node9&#45;&gt;Node15</title>
<path fill="none" stroke="#191970" d="M1711.7225,-64.3015C1536.0602,-63.159 761.6269,-56.1539 498.5365,-18.7405"/>
<polygon fill="#191970" stroke="#191970" points="498.6725,-15.2227 488.2685,-17.2246 497.6501,-22.1476 498.6725,-15.2227"/>
</g>
<!-- Node16 -->
<g id="node17" class="node">
<title>Node16</title>
<polygon fill="#ffffff" stroke="#bfbfbf" points="505.9556,-.5 505.9556,-18.5 610.8765,-18.5 610.8765,-.5 505.9556,-.5"/>
<text text-anchor="middle" x="558.416" y="-6.5" font-family="Helvetica,sans-Serif" font-size="10.00" fill="#000000">Epetra_MpiComm.h</text>
</g>
<!-- Node9&#45;&gt;Node16 -->
<g id="edge16" class="edge">
<title>Node9&#45;&gt;Node16</title>
<path fill="none" stroke="#191970" d="M1711.7324,-63.6104C1547.0651,-59.4221 858.8625,-40.9876 620.912,-19.0185"/>
<polygon fill="#191970" stroke="#191970" points="621.2267,-15.5327 610.9401,-18.0697 620.5636,-22.5012 621.2267,-15.5327"/>
</g>
<!-- Node17 -->
<g id="node18" class="node">
<title>Node17</title>
<polygon fill="#ffffff" stroke="#bfbfbf" points="628.6724,-.5 628.6724,-18.5 744.1597,-18.5 744.1597,-.5 628.6724,-.5"/>
<text text-anchor="middle" x="686.416" y="-6.5" font-family="Helvetica,sans-Serif" font-size="10.00" fill="#000000">Epetra_FECrsGraph.h</text>
</g>
<!-- Node9&#45;&gt;Node17 -->
<g id="edge17" class="edge">
<title>Node9&#45;&gt;Node17</title>
<path fill="none" stroke="#191970" d="M1711.6714,-64.0914C1583.5308,-62.3681 1135.0618,-54.1107 754.5856,-19.0174"/>
<polygon fill="#191970" stroke="#191970" points="754.762,-15.5188 744.4808,-18.0775 754.1137,-22.4887 754.762,-15.5188"/>
</g>
<!-- Node18 -->
<g id="node19" class="node">
<title>Node18</title>
<polygon fill="#ffffff" stroke="#bfbfbf" points="761.958,-.5 761.958,-18.5 876.874,-18.5 876.874,-.5 761.958,-.5"/>
<text text-anchor="middle" x="819.416" y="-6.5" font-family="Helvetica,sans-Serif" font-size="10.00" fill="#000000">Epetra_FECrsMatrix.h</text>
</g>
<!-- Node9&#45;&gt;Node18 -->
<g id="edge18" class="edge">
<title>Node9&#45;&gt;Node18</title>
<path fill="none" stroke="#191970" d="M1711.6107,-63.767C1594.62,-61.1275 1212.8955,-50.5854 887.0799,-19.0823"/>
<polygon fill="#191970" stroke="#191970" points="887.2644,-15.5838 876.9718,-18.0964 886.5848,-22.5507 887.2644,-15.5838"/>
</g>
<!-- Node19 -->
<g id="node20" class="node">
<title>Node19</title>
<polygon fill="#ffffff" stroke="#bfbfbf" points="894.4409,-.5 894.4409,-18.5 994.3911,-18.5 994.3911,-.5 894.4409,-.5"/>
<text text-anchor="middle" x="944.416" y="-6.5" font-family="Helvetica,sans-Serif" font-size="10.00" fill="#000000">Epetra_FEVector.h</text>
</g>
<!-- Node9&#45;&gt;Node19 -->
<g id="edge19" class="edge">
<title>Node9&#45;&gt;Node19</title>
<path fill="none" stroke="#191970" d="M1711.6884,-63.5643C1605.5643,-60.5202 1282.8157,-49.3509 1004.8658,-19.0545"/>
<polygon fill="#191970" stroke="#191970" points="1004.9051,-15.5378 994.5822,-17.9225 1004.1392,-22.4958 1004.9051,-15.5378"/>
</g>
<!-- Node20 -->
<g id="node21" class="node">
<title>Node20</title>
<polygon fill="#ffffff" stroke="#bfbfbf" points="1012.8301,-.5 1012.8301,-18.5 1100.002,-18.5 1100.002,-.5 1012.8301,-.5"/>
<text text-anchor="middle" x="1056.416" y="-6.5" font-family="Helvetica,sans-Serif" font-size="10.00" fill="#000000">Epetra_Vector.h</text>
</g>
<!-- Node9&#45;&gt;Node20 -->
<g id="edge20" class="edge">
<title>Node9&#45;&gt;Node20</title>
<path fill="none" stroke="#191970" d="M1711.6634,-63.282C1615.9145,-59.737 1345.584,-47.8707 1110.1553,-18.9533"/>
<polygon fill="#191970" stroke="#191970" points="1110.3878,-15.4554 1100.0328,-17.6966 1109.5254,-22.402 1110.3878,-15.4554"/>
</g>
<!-- Node21 -->
<g id="node22" class="node">
<title>Node21</title>
<polygon fill="#ffffff" stroke="#bfbfbf" points="1118.0073,-.5 1118.0073,-18.5 1196.8247,-18.5 1196.8247,-.5 1118.0073,-.5"/>
<text text-anchor="middle" x="1157.416" y="-6.5" font-family="Helvetica,sans-Serif" font-size="10.00" fill="#000000">Epetra_Map.h</text>
</g>
<!-- Node9&#45;&gt;Node21 -->
<g id="edge21" class="edge">
<title>Node9&#45;&gt;Node21</title>
<path fill="none" stroke="#191970" d="M1711.7505,-62.8859C1626.3104,-58.7248 1403.0467,-46.1089 1207.1042,-19.1012"/>
<polygon fill="#191970" stroke="#191970" points="1207.2969,-15.5942 1196.9093,-17.6793 1206.33,-22.5271 1207.2969,-15.5942"/>
</g>
<!-- Node22 -->
<g id="node23" class="node">
<title>Node22</title>
<polygon fill="#ffffff" stroke="#bfbfbf" points="1214.8867,-.5 1214.8867,-18.5 1355.9453,-18.5 1355.9453,-.5 1214.8867,-.5"/>
<text text-anchor="middle" x="1285.416" y="-6.5" font-family="Helvetica,sans-Serif" font-size="10.00" fill="#000000">Epetra_SerialDenseMatrix.h</text>
</g>
<!-- Node9&#45;&gt;Node22 -->
<g id="edge22" class="edge">
<title>Node9&#45;&gt;Node22</title>
<path fill="none" stroke="#191970" d="M1711.7722,-60.2828C1645.729,-52.4653 1499.6018,-35.1506 1366.0518,-19.1943"/>
<polygon fill="#191970" stroke="#191970" points="1366.3953,-15.7105 1356.0506,-17.9991 1365.5646,-22.6611 1366.3953,-15.7105"/>
</g>
<!-- Node23 -->
<g id="node24" class="node">
<title>Node23</title>
<polygon fill="#ffffff" stroke="#bfbfbf" points="1373.5938,-.5 1373.5938,-18.5 1515.2383,-18.5 1515.2383,-.5 1373.5938,-.5"/>
<text text-anchor="middle" x="1444.416" y="-6.5" font-family="Helvetica,sans-Serif" font-size="10.00" fill="#000000">Epetra_SerialDenseVector.h</text>
</g>
<!-- Node9&#45;&gt;Node23 -->
<g id="edge23" class="edge">
<title>Node9&#45;&gt;Node23</title>
<path fill="none" stroke="#191970" d="M1711.7671,-58.0291C1660.7166,-48.7625 1566.1336,-31.5939 1504.2493,-20.3608"/>
<polygon fill="#191970" stroke="#191970" points="1504.6955,-16.8847 1494.2312,-18.5424 1503.4453,-23.7722 1504.6955,-16.8847"/>
</g>
<!-- Node24 -->
<g id="node25" class="node">
<title>Node24</title>
<polygon fill="#ffffff" stroke="#bfbfbf" points="1533.0347,-.5 1533.0347,-18.5 1685.7974,-18.5 1685.7974,-.5 1533.0347,-.5"/>
<text text-anchor="middle" x="1609.416" y="-6.5" font-family="Helvetica,sans-Serif" font-size="10.00" fill="#000000">Epetra_IntSerialDenseVector.h</text>
</g>
<!-- Node9&#45;&gt;Node24 -->
<g id="edge24" class="edge">
<title>Node9&#45;&gt;Node24</title>
<path fill="none" stroke="#191970" d="M1724.6281,-55.4179C1702.0553,-46.4215 1667.2708,-32.5581 1641.8263,-22.4172"/>
<polygon fill="#191970" stroke="#191970" points="1642.823,-19.0467 1632.2378,-18.5956 1640.2313,-25.5493 1642.823,-19.0467"/>
</g>
<!-- Node25 -->
<g id="node26" class="node">
<title>Node25</title>
<polygon fill="#ffffff" stroke="#bfbfbf" points="1703.564,-.5 1703.564,-18.5 1791.2681,-18.5 1791.2681,-.5 1703.564,-.5"/>
<text text-anchor="middle" x="1747.416" y="-6.5" font-family="Helvetica,sans-Serif" font-size="10.00" fill="#000000">Epetra_Import.h</text>
</g>
<!-- Node9&#45;&gt;Node25 -->
<g id="edge25" class="edge">
<title>Node9&#45;&gt;Node25</title>
<path fill="none" stroke="#191970" d="M1747.416,-55.4179C1747.416,-48.2164 1747.416,-37.8962 1747.416,-28.8632"/>
<polygon fill="#191970" stroke="#191970" points="1750.9161,-28.7794 1747.416,-18.7795 1743.9161,-28.7795 1750.9161,-28.7794"/>
</g>
<!-- Node26 -->
<g id="node27" class="node">
<title>Node26</title>
<polygon fill="#ffffff" stroke="#bfbfbf" points="1809.2832,-.5 1809.2832,-18.5 1897.5488,-18.5 1897.5488,-.5 1809.2832,-.5"/>
<text text-anchor="middle" x="1853.416" y="-6.5" font-family="Helvetica,sans-Serif" font-size="10.00" fill="#000000">Epetra_Export.h</text>
</g>
<!-- Node9&#45;&gt;Node26 -->
<g id="edge26" class="edge">
<title>Node9&#45;&gt;Node26</title>
<path fill="none" stroke="#191970" d="M1764.9198,-55.4179C1781.798,-46.6603 1807.5648,-33.2907 1826.9496,-23.2326"/>
<polygon fill="#191970" stroke="#191970" points="1828.622,-26.308 1835.8863,-18.5956 1825.398,-20.0946 1828.622,-26.308"/>
</g>
<!-- Node27 -->
<g id="node28" class="node">
<title>Node27</title>
<polygon fill="#ffffff" stroke="#bfbfbf" points="1915.8062,-.5 1915.8062,-18.5 1997.0259,-18.5 1997.0259,-.5 1915.8062,-.5"/>
<text text-anchor="middle" x="1956.416" y="-6.5" font-family="Helvetica,sans-Serif" font-size="10.00" fill="#000000">Epetra_Time.h</text>
</g>
<!-- Node9&#45;&gt;Node27 -->
<g id="edge27" class="edge">
<title>Node9&#45;&gt;Node27</title>
<path fill="none" stroke="#191970" d="M1781.9281,-55.4179C1817.5823,-46.0352 1873.3533,-31.3586 1912.2137,-21.1322"/>
<polygon fill="#191970" stroke="#191970" points="1913.42,-24.434 1922.2,-18.5042 1911.6385,-17.6645 1913.42,-24.434"/>
</g>
<!-- Node28 -->
<g id="node29" class="node">
<title>Node28</title>
<polygon fill="#ffffff" stroke="#bfbfbf" points="2014.7119,-.5 2014.7119,-18.5 2164.1201,-18.5 2164.1201,-.5 2014.7119,-.5"/>
<text text-anchor="middle" x="2089.416" y="-6.5" font-family="Helvetica,sans-Serif" font-size="10.00" fill="#000000">ml_MultiLevelPreconditioner.h</text>
</g>
<!-- Node9&#45;&gt;Node28 -->
<g id="edge28" class="edge">
<title>Node9&#45;&gt;Node28</title>
<path fill="none" stroke="#191970" d="M1783.0482,-58.7697C1839.7129,-49.6569 1951.2724,-31.7161 2022.9916,-20.1823"/>
<polygon fill="#191970" stroke="#191970" points="2023.9553,-23.5724 2033.2727,-18.5289 2022.8438,-16.6612 2023.9553,-23.5724"/>
</g>
<!-- Node29 -->
<g id="node30" class="node">
<title>Node29</title>
<polygon fill="#ffffff" stroke="#bfbfbf" points="2182.3398,-.5 2182.3398,-18.5 2274.4922,-18.5 2274.4922,-.5 2182.3398,-.5"/>
<text text-anchor="middle" x="2228.416" y="-6.5" font-family="Helvetica,sans-Serif" font-size="10.00" fill="#000000">ml_epetra_utils.h</text>
</g>
<!-- Node9&#45;&gt;Node29 -->
<g id="edge29" class="edge">
<title>Node9&#45;&gt;Node29</title>
<path fill="none" stroke="#191970" d="M1783.1365,-61.471C1854.8177,-55.2234 2021.5076,-39.8443 2171.8971,-19.1352"/>
<polygon fill="#191970" stroke="#191970" points="2172.8129,-22.5417 2182.2364,-17.6993 2171.85,-15.6083 2172.8129,-22.5417"/>
</g>
<!-- Node30 -->
<g id="node31" class="node">
<title>Node30</title>
<polygon fill="#ffffff" stroke="#bfbfbf" points="2292.3447,-.5 2292.3447,-18.5 2364.4873,-18.5 2364.4873,-.5 2292.3447,-.5"/>
<text text-anchor="middle" x="2328.416" y="-6.5" font-family="Helvetica,sans-Serif" font-size="10.00" fill="#000000">ml_include.h</text>
</g>
<!-- Node9&#45;&gt;Node30 -->
<g id="edge30" class="edge">
<title>Node9&#45;&gt;Node30</title>
<path fill="none" stroke="#191970" d="M1783.0269,-62.9976C1867.8054,-59.0966 2088.3807,-47.038 2282.0588,-19.0355"/>
<polygon fill="#191970" stroke="#191970" points="2282.7484,-22.472 2292.136,-17.5604 2281.7344,-15.5458 2282.7484,-22.472"/>
</g>
<!-- Node31 -->
<g id="node32" class="node">
<title>Node31</title>
<polygon fill="#ffffff" stroke="#bfbfbf" points="2382.8374,-.5 2382.8374,-18.5 2519.9946,-18.5 2519.9946,-.5 2382.8374,-.5"/>
<text text-anchor="middle" x="2451.416" y="-6.5" font-family="Helvetica,sans-Serif" font-size="10.00" fill="#000000">EpetraExt_RowMatrixOut.h</text>
</g>
<!-- Node9&#45;&gt;Node31 -->
<g id="edge31" class="edge">
<title>Node9&#45;&gt;Node31</title>
<path fill="none" stroke="#191970" d="M1783.1109,-62.5155C1877.4308,-57.1416 2141.2997,-41.2656 2372.2547,-19.0681"/>
<polygon fill="#191970" stroke="#191970" points="2372.9159,-22.5206 2382.5324,-18.074 2372.2419,-15.5531 2372.9159,-22.5206"/>
</g>
<!-- Node32 -->
<g id="node33" class="node">
<title>Node32</title>
<polygon fill="#ffffff" stroke="#bfbfbf" points="2537.7168,-.5 2537.7168,-18.5 2677.1152,-18.5 2677.1152,-.5 2537.7168,-.5"/>
<text text-anchor="middle" x="2607.416" y="-6.5" font-family="Helvetica,sans-Serif" font-size="10.00" fill="#000000">EpetraExt_MultiVectorOut.h</text>
</g>
<!-- Node9&#45;&gt;Node32 -->
<g id="edge32" class="edge">
<title>Node9&#45;&gt;Node32</title>
<path fill="none" stroke="#191970" d="M1782.9383,-63.232C1892.357,-59.1571 2234.1354,-45.164 2527.7137,-19.1049"/>
<polygon fill="#191970" stroke="#191970" points="2528.0494,-22.5889 2537.698,-18.2123 2527.426,-15.6167 2528.0494,-22.5889"/>
</g>
<!-- Node33 -->
<g id="node34" class="node">
<title>Node33</title>
<polygon fill="#ffffff" stroke="#bfbfbf" points="2695.1626,-.5 2695.1626,-18.5 2805.6694,-18.5 2805.6694,-.5 2695.1626,-.5"/>
<text text-anchor="middle" x="2750.416" y="-6.5" font-family="Helvetica,sans-Serif" font-size="10.00" fill="#000000">EpetraExt_VectorIn.h</text>
</g>
<!-- Node9&#45;&gt;Node33 -->
<g id="edge33" class="edge">
<title>Node9&#45;&gt;Node33</title>
<path fill="none" stroke="#191970" d="M1783.3294,-64.0382C1907.1287,-62.1766 2327.6636,-53.6157 2684.9348,-19.0533"/>
<polygon fill="#191970" stroke="#191970" points="2685.3418,-22.5303 2694.9546,-18.0755 2684.6619,-15.5634 2685.3418,-22.5303"/>
</g>
<!-- Node34 -->
<g id="node35" class="node">
<title>Node34</title>
<polygon fill="#ffffff" stroke="#bfbfbf" points="2823.606,-.5 2823.606,-18.5 2955.2261,-18.5 2955.2261,-.5 2823.606,-.5"/>
<text text-anchor="middle" x="2889.416" y="-6.5" font-family="Helvetica,sans-Serif" font-size="10.00" fill="#000000">EpetraExt_MultiVectorIn.h</text>
</g>
<!-- Node9&#45;&gt;Node34 -->
<g id="edge34" class="edge">
<title>Node9&#45;&gt;Node34</title>
<path fill="none" stroke="#191970" d="M1782.9445,-64.0596C1916.6397,-62.1765 2402.3558,-53.2978 2813.5934,-18.9929"/>
<polygon fill="#191970" stroke="#191970" points="2813.927,-22.4773 2823.5988,-18.152 2813.3407,-15.5019 2813.927,-22.4773"/>
</g>
<!-- Node35 -->
<g id="node36" class="node">
<title>Node35</title>
<polygon fill="#ffffff" stroke="#bfbfbf" points="192.3687,-.5 192.3687,-18.5 290.4634,-18.5 290.4634,-.5 192.3687,-.5"/>
<text text-anchor="middle" x="241.416" y="-6.5" font-family="Helvetica,sans-Serif" font-size="10.00" fill="#000000">Teuchos_RCP.hpp</text>
</g>
<!-- Node9&#45;&gt;Node35 -->
<g id="edge35" class="edge">
<title>Node9&#45;&gt;Node35</title>
<path fill="none" stroke="#191970" d="M1711.7401,-64.0135C1519.7102,-61.2996 606.7239,-47.164 300.9031,-18.9917"/>
<polygon fill="#191970" stroke="#191970" points="301.0052,-15.4857 290.7195,-18.0263 300.3445,-22.4545 301.0052,-15.4857"/>
</g>
<!-- Node36 -->
<g id="node37" class="node">
<title>Node36</title>
<polygon fill="#ffffff" stroke="#bfbfbf" points="2973.1846,-.5 2973.1846,-18.5 3033.6475,-18.5 3033.6475,-.5 2973.1846,-.5"/>
<text text-anchor="middle" x="3003.416" y="-6.5" font-family="Helvetica,sans-Serif" font-size="10.00" fill="#000000">Amesos.h</text>
</g>
<!-- Node9&#45;&gt;Node36 -->
<g id="edge36" class="edge">
<title>Node9&#45;&gt;Node36</title>
<path fill="none" stroke="#191970" d="M1783.0143,-64.1371C1955.6207,-62.2318 2707.1962,-52.2258 2962.8916,-18.9048"/>
<polygon fill="#191970" stroke="#191970" points="2963.4301,-22.3639 2972.8716,-17.5568 2962.4931,-15.4269 2963.4301,-22.3639"/>
</g>
<!-- Node37 -->
<g id="node38" class="node">
<title>Node37</title>
<polygon fill="#ffffff" stroke="#bfbfbf" points="3051.9629,-.5 3051.9629,-18.5 3116.8691,-18.5 3116.8691,-.5 3051.9629,-.5"/>
<text text-anchor="middle" x="3084.416" y="-6.5" font-family="Helvetica,sans-Serif" font-size="10.00" fill="#000000">AztecOO.h</text>
</g>
<!-- Node9&#45;&gt;Node37 -->
<g id="edge37" class="edge">
<title>Node9&#45;&gt;Node37</title>
<path fill="none" stroke="#191970" d="M1783.1547,-64.1494C1962.705,-62.2521 2768.1003,-52.0911 3041.2356,-18.8502"/>
<polygon fill="#191970" stroke="#191970" points="3042.0214,-22.279 3051.5055,-17.5565 3041.1464,-15.3339 3042.0214,-22.279"/>
</g>
<!-- Node42 -->
<g id="node40" class="node">
<title>Node42</title>
<g id="a_node40"><a xlink:href="../../d2/d8b/_finite___element___problem_8hpp.html" target="_top" xlink:title="Finite_Element_Problem.hpp">
<polygon fill="#ffffff" stroke="#000000" points="1533.936,-165.5 1533.936,-183.5 1678.896,-183.5 1678.896,-165.5 1533.936,-165.5"/>
<text text-anchor="middle" x="1606.416" y="-171.5" font-family="Helvetica,sans-Serif" font-size="10.00" fill="#000000">Finite_Element_Problem.hpp</text>
</a>
</g>
</g>
<!-- Node41&#45;&gt;Node42 -->
<g id="edge39" class="edge">
<title>Node41&#45;&gt;Node42</title>
<path fill="none" stroke="#191970" d="M1698.2813,-220.4327C1678.8434,-210.7137 1653.1198,-197.8519 1633.8381,-188.211"/>
<polygon fill="#191970" stroke="#191970" points="1635.1877,-184.9728 1624.6781,-183.6311 1632.0572,-191.2337 1635.1877,-184.9728"/>
</g>
<!-- Node44 -->
<g id="node42" class="node">
<title>Node44</title>
<g id="a_node42"><a xlink:href="../../d5/d3f/laplacepp_8hpp.html" target="_top" xlink:title="laplacepp.hpp">
<polygon fill="#ffffff" stroke="#ff0000" points="1697.2783,-165.5 1697.2783,-183.5 1775.5537,-183.5 1775.5537,-165.5 1697.2783,-165.5"/>
<text text-anchor="middle" x="1736.416" y="-171.5" font-family="Helvetica,sans-Serif" font-size="10.00" fill="#000000">laplacepp.hpp</text>
</a>
</g>
</g>
<!-- Node41&#45;&gt;Node44 -->
<g id="edge43" class="edge">
<title>Node41&#45;&gt;Node44</title>
<path fill="none" stroke="#191970" d="M1728.7859,-220.2808C1730.1179,-212.2888 1731.798,-202.2079 1733.2424,-193.5414"/>
<polygon fill="#191970" stroke="#191970" points="1736.7103,-194.0236 1734.902,-183.5842 1729.8055,-192.8727 1736.7103,-194.0236"/>
</g>
<!-- Node42&#45;&gt;Node9 -->
<g id="edge40" class="edge">
<title>Node42&#45;&gt;Node9</title>
<path fill="none" stroke="#191970" d="M1606.6301,-165.3437C1607.439,-151.5864 1610.9316,-125.5434 1625.416,-110 1645.2798,-88.684 1676.0675,-77.2985 1701.7439,-71.2473"/>
<polygon fill="#191970" stroke="#191970" points="1702.6238,-74.6381 1711.6613,-69.1087 1701.1482,-67.7954 1702.6238,-74.6381"/>
</g>
<!-- Node43 -->
<g id="node41" class="node">
<title>Node43</title>
<g id="a_node41"><a xlink:href="../../d0/d41/_base_class_f_e_m_8hpp.html" target="_top" xlink:title="BaseClassFEM.hpp">
<polygon fill="#ffffff" stroke="#000000" points="1634.2314,-110.5 1634.2314,-128.5 1738.6006,-128.5 1738.6006,-110.5 1634.2314,-110.5"/>
<text text-anchor="middle" x="1686.416" y="-116.5" font-family="Helvetica,sans-Serif" font-size="10.00" fill="#000000">BaseClassFEM.hpp</text>
</a>
</g>
</g>
<!-- Node42&#45;&gt;Node43 -->
<g id="edge41" class="edge">
<title>Node42&#45;&gt;Node43</title>
<path fill="none" stroke="#191970" d="M1619.6264,-165.4179C1631.9014,-156.9788 1650.4059,-144.257 1664.8268,-134.3426"/>
<polygon fill="#191970" stroke="#191970" points="1666.9284,-137.1451 1673.186,-128.5956 1662.9627,-131.3768 1666.9284,-137.1451"/>
</g>
<!-- Node43&#45;&gt;Node9 -->
<g id="edge42" class="edge">
<title>Node43&#45;&gt;Node9</title>
<path fill="none" stroke="#191970" d="M1696.4889,-110.4179C1705.4415,-102.3458 1718.7398,-90.3556 1729.5023,-80.6517"/>
<polygon fill="#191970" stroke="#191970" points="1732.0411,-83.0753 1737.1243,-73.7795 1727.3536,-77.8764 1732.0411,-83.0753"/>
</g>
<!-- Node46&#45;&gt;Node4 -->
<g id="edge54" class="edge">
<title>Node46&#45;&gt;Node4</title>
<path fill="none" stroke="#191970" d="M898.2692,-296.0327C782.218,-289.3375 527.3038,-273.1285 313.416,-249 303.1843,-247.8458 292.3786,-246.4384 281.8269,-244.9594"/>
<polygon fill="#191970" stroke="#191970" points="282.2104,-241.4787 271.8152,-243.5254 281.2179,-248.408 282.2104,-241.4787"/>
</g>
<!-- Node46&#45;&gt;Node5 -->
<g id="edge55" class="edge">
<title>Node46&#45;&gt;Node5</title>
<path fill="none" stroke="#191970" d="M898.1804,-294.5867C804.6437,-286.9564 624.0119,-270.8328 471.416,-249 463.9296,-247.9289 456.0696,-246.6608 448.3302,-245.3273"/>
<polygon fill="#191970" stroke="#191970" points="448.7239,-241.8427 438.2672,-243.5477 447.5048,-248.7357 448.7239,-241.8427"/>
</g>
<!-- Node46&#45;&gt;Node6 -->
<g id="edge56" class="edge">
<title>Node46&#45;&gt;Node6</title>
<path fill="none" stroke="#191970" d="M898.9913,-290.4685C834.7113,-281.0506 731.3788,-265.5841 632.373,-249.1346"/>
<polygon fill="#191970" stroke="#191970" points="632.9378,-245.6805 622.4984,-247.4882 631.7866,-252.5852 632.9378,-245.6805"/>
</g>
<!-- Node46&#45;&gt;Node35 -->
<g id="edge47" class="edge">
<title>Node46&#45;&gt;Node35</title>
<path fill="none" stroke="#191970" d="M959.0862,-290.4748C954.0127,-270.0008 942.416,-218.4013 942.416,-174.5 942.416,-174.5 942.416,-174.5 942.416,-119.5 942.416,22.0165 463.4842,-39.0749 301.0089,-19.0489"/>
<polygon fill="#191970" stroke="#191970" points="301.163,-15.5362 290.773,-17.6095 300.1882,-22.468 301.163,-15.5362"/>
</g>
<!-- Node46&#45;&gt;Node41 -->
<g id="edge45" class="edge">
<title>Node46&#45;&gt;Node41</title>
<path fill="none" stroke="#191970" d="M1024.7027,-298.2165C1146.4903,-295.036 1421.9332,-284.3991 1661.5917,-249.1368"/>
<polygon fill="#191970" stroke="#191970" points="1662.161,-252.5907 1671.5365,-247.6562 1661.1301,-245.6671 1662.161,-252.5907"/>
</g>
<!-- Node46&#45;&gt;Node42 -->
<g id="edge46" class="edge">
<title>Node46&#45;&gt;Node42</title>
<path fill="none" stroke="#191970" d="M962.7597,-290.4539C965.8232,-273.3894 975.046,-236.6676 999.416,-220 1041.666,-191.1036 1367.6406,-179.8846 1523.6827,-176.137"/>
<polygon fill="#191970" stroke="#191970" points="1523.7956,-179.6354 1533.7104,-175.9008 1523.6307,-172.6373 1523.7956,-179.6354"/>
</g>
<!-- Node47 -->
<g id="node44" class="node">
<title>Node47</title>
<polygon fill="#ffffff" stroke="#bfbfbf" points="1602.9063,-225.5 1602.9063,-243.5 1653.9258,-243.5 1653.9258,-225.5 1602.9063,-225.5"/>
<text text-anchor="middle" x="1628.416" y="-231.5" font-family="Helvetica,sans-Serif" font-size="10.00" fill="#000000">Ifpack.h</text>
</g>
<!-- Node46&#45;&gt;Node47 -->
<g id="edge48" class="edge">
<title>Node46&#45;&gt;Node47</title>
<path fill="none" stroke="#191970" d="M1024.5825,-296.9616C1162.4814,-291.0124 1486.6691,-274.6987 1593.416,-249 1595.5981,-248.4747 1597.8204,-247.8317 1600.0334,-247.1119"/>
<polygon fill="#191970" stroke="#191970" points="1601.3651,-250.351 1609.5222,-243.5898 1598.9292,-243.7885 1601.3651,-250.351"/>
</g>
<!-- Node48 -->
<g id="node45" class="node">
<title>Node48</title>
<polygon fill="#ffffff" stroke="#bfbfbf" points="640.165,-225.5 640.165,-243.5 770.667,-243.5 770.667,-225.5 640.165,-225.5"/>
<text text-anchor="middle" x="705.416" y="-231.5" font-family="Helvetica,sans-Serif" font-size="10.00" fill="#000000">Ifpack_AdditiveSchwarz.h</text>
</g>
<!-- Node46&#45;&gt;Node48 -->
<g id="edge49" class="edge">
<title>Node46&#45;&gt;Node48</title>
<path fill="none" stroke="#191970" d="M925.8203,-290.462C880.1917,-278.8766 801.0187,-258.7741 751.0192,-246.0789"/>
<polygon fill="#191970" stroke="#191970" points="751.675,-242.6344 741.1211,-243.5658 749.9522,-249.4192 751.675,-242.6344"/>
</g>
<!-- Node49 -->
<g id="node46" class="node">
<title>Node49</title>
<polygon fill="#ffffff" stroke="#bfbfbf" points="788.6602,-225.5 788.6602,-243.5 914.1719,-243.5 914.1719,-225.5 788.6602,-225.5"/>
<text text-anchor="middle" x="851.416" y="-231.5" font-family="Helvetica,sans-Serif" font-size="10.00" fill="#000000">BelosLinearProblem.hpp</text>
</g>
<!-- Node46&#45;&gt;Node49 -->
<g id="edge50" class="edge">
<title>Node46&#45;&gt;Node49</title>
<path fill="none" stroke="#191970" d="M946.121,-290.462C927.9171,-279.7052 897.2875,-261.6059 875.803,-248.9105"/>
<polygon fill="#191970" stroke="#191970" points="877.3256,-245.7448 866.9358,-243.6708 873.7645,-251.7713 877.3256,-245.7448"/>
</g>
<!-- Node50 -->
<g id="node47" class="node">
<title>Node50</title>
<polygon fill="#ffffff" stroke="#bfbfbf" points="1008.3867,-225.5 1008.3867,-243.5 1154.4453,-243.5 1154.4453,-225.5 1008.3867,-225.5"/>
<text text-anchor="middle" x="1081.416" y="-231.5" font-family="Helvetica,sans-Serif" font-size="10.00" fill="#000000">BelosBlockGmresSolMgr.hpp</text>
</g>
<!-- Node46&#45;&gt;Node50 -->
<g id="edge51" class="edge">
<title>Node46&#45;&gt;Node50</title>
<path fill="none" stroke="#191970" d="M978.1015,-290.462C998.1384,-279.6087 1031.9748,-261.2806 1055.4402,-248.5702"/>
<polygon fill="#191970" stroke="#191970" points="1057.3595,-251.5112 1064.4854,-243.6708 1054.0254,-245.3561 1057.3595,-251.5112"/>
</g>
<!-- Node51 -->
<g id="node48" class="node">
<title>Node51</title>
<polygon fill="#ffffff" stroke="#bfbfbf" points="1172.207,-225.5 1172.207,-243.5 1296.625,-243.5 1296.625,-225.5 1172.207,-225.5"/>
<text text-anchor="middle" x="1234.416" y="-231.5" font-family="Helvetica,sans-Serif" font-size="10.00" fill="#000000">BelosEpetraAdapter.hpp</text>
</g>
<!-- Node46&#45;&gt;Node51 -->
<g id="edge52" class="edge">
<title>Node46&#45;&gt;Node51</title>
<path fill="none" stroke="#191970" d="M999.3755,-290.462C1048.2373,-278.8283 1133.1704,-258.6061 1186.4508,-245.9203"/>
<polygon fill="#191970" stroke="#191970" points="1187.4225,-249.2869 1196.3399,-243.5658 1185.8011,-242.4772 1187.4225,-249.2869"/>
</g>
<!-- Node52 -->
<g id="node49" class="node">
<title>Node52</title>
<polygon fill="#ffffff" stroke="#bfbfbf" points="1314.7036,-225.5 1314.7036,-243.5 1436.1284,-243.5 1436.1284,-225.5 1314.7036,-225.5"/>
<text text-anchor="middle" x="1375.416" y="-231.5" font-family="Helvetica,sans-Serif" font-size="10.00" fill="#000000">BelosSolverFactory.hpp</text>
</g>
<!-- Node46&#45;&gt;Node52 -->
<g id="edge53" class="edge">
<title>Node46&#45;&gt;Node52</title>
<path fill="none" stroke="#191970" d="M1024.6812,-291.3417C1093.8262,-282.1623 1207.7853,-266.2627 1305.416,-249 1311.2879,-247.9618 1317.4215,-246.8025 1323.5116,-245.6041"/>
<polygon fill="#191970" stroke="#191970" points="1324.5508,-248.9654 1333.666,-243.5651 1323.1726,-242.1024 1324.5508,-248.9654"/>
</g>
<!-- Node53 -->
<g id="node50" class="node">
<title>Node53</title>
<polygon fill="#ffffff" stroke="#bfbfbf" points="1454.1675,-220.5 1454.1675,-248.5 1584.6646,-248.5 1584.6646,-220.5 1454.1675,-220.5"/>
<text text-anchor="start" x="1462.1675" y="-236.5" font-family="Helvetica,sans-Serif" font-size="10.00" fill="#000000">Stratimikos_DefaultLinear</text>
<text text-anchor="middle" x="1519.416" y="-226.5" font-family="Helvetica,sans-Serif" font-size="10.00" fill="#000000">SolverBuilder.hpp</text>
</g>
<!-- Node46&#45;&gt;Node53 -->
<g id="edge57" class="edge">
<title>Node46&#45;&gt;Node53</title>
<path fill="none" stroke="#191970" d="M1024.6817,-294.7174C1115.3427,-287.4614 1287.6279,-272.1777 1443.8362,-249.1551"/>
<polygon fill="#191970" stroke="#191970" points="1444.7252,-252.5614 1454.1011,-247.6274 1443.6948,-245.6376 1444.7252,-252.5614"/>
</g>
</g>
</svg>
        <g id="navigator" transform="translate(0 0)" fill="#404254">
                <rect fill="#f2f5e9" fill-opacity="0.5" stroke="#606060" stroke-width=".5" x="0" y="0" width="60" height="60"/>
                <use id="zoomplus" xlink:href="#zoomPlus" x="17" y="9" onmousedown="handleZoom(evt,'in')"/>
                <use id="zoomminus" xlink:href="#zoomMin" x="42" y="9" onmousedown="handleZoom(evt,'out')"/>
                <use id="reset" xlink:href="#resetDef" x="30" y="36" onmousedown="handleReset()"/>
                <g id="arrowUp" xlink:href="#dirArrow" transform="translate(30 24)" onmousedown="handlePan(0,-1)">
                  <use xlink:href="#rim" fill="#404040">
                        <set attributeName="fill" to="#808080" begin="arrowUp.mouseover" end="arrowUp.mouseout"/>
                  </use>
                  <path fill="none" stroke="white" stroke-width="1.5" d="M0,-3.0v7 M-2.5,-0.5L0,-3.0L2.5,-0.5"/>
                </g>
                <g id="arrowRight" xlink:href="#dirArrow" transform="rotate(90) translate(36 -43)" onmousedown="handlePan(1,0)">
                  <use xlink:href="#rim" fill="#404040">
                        <set attributeName="fill" to="#808080" begin="arrowRight.mouseover" end="arrowRight.mouseout"/>
                  </use>
                  <path fill="none" stroke="white" stroke-width="1.5" d="M0,-3.0v7 M-2.5,-0.5L0,-3.0L2.5,-0.5"/>
                </g>
                <g id="arrowDown" xlink:href="#dirArrow" transform="rotate(180) translate(-30 -48)" onmousedown="handlePan(0,1)">
                  <use xlink:href="#rim" fill="#404040">
                        <set attributeName="fill" to="#808080" begin="arrowDown.mouseover" end="arrowDown.mouseout"/>
                  </use>
                  <path fill="none" stroke="white" stroke-width="1.5" d="M0,-3.0v7 M-2.5,-0.5L0,-3.0L2.5,-0.5"/>
                </g>
                <g id="arrowLeft" xlink:href="#dirArrow" transform="rotate(270) translate(-36 17)" onmousedown="handlePan(-1,0)">
                  <use xlink:href="#rim" fill="#404040">
                        <set attributeName="fill" to="#808080" begin="arrowLeft.mouseover" end="arrowLeft.mouseout"/>
                  </use>
                  <path fill="none" stroke="white" stroke-width="1.5" d="M0,-3.0v7 M-2.5,-0.5L0,-3.0L2.5,-0.5"/>
                </g>
        </g>
        <svg viewBox="0 0 15 15" width="100%" height="30px" preserveAspectRatio="xMaxYMin meet">
         <g id="arrow_out" transform="scale(0.3 0.3)">
          <a xlink:href="arteries_2deterministic__neumann_2main_8cpp__incl_org.svg" target="_base">
           <rect id="button" ry="5" rx="5" y="6" x="6" height="38" width="38"
                fill="#f2f5e9" fill-opacity="0.5" stroke="#606060" stroke-width="1.0"/>
           <path id="arrow"
             d="M 11.500037,31.436501 C 11.940474,20.09759 22.043105,11.32322 32.158766,21.979434 L 37.068811,17.246167 C 37.068811,17.246167 37.088388,32 37.088388,32 L 22.160133,31.978069 C 22.160133,31.978069 26.997745,27.140456 26.997745,27.140456 C 18.528582,18.264221 13.291696,25.230495 11.500037,31.436501 z"
             style="fill:#404040;"/>
          </a>
         </g>
        </svg>
</svg>
