<?xml version="1.0" encoding="UTF-8" standalone="no"?>
<!DOCTYPE svg PUBLIC "-//W3C//DTD SVG 1.1//EN"
 "http://www.w3.org/Graphics/SVG/1.1/DTD/svg11.dtd">
<!-- Generated by graphviz version 2.40.1 (20161225.0304)
 -->
<!-- Title: arteries/deterministic_neumann/main.cpp Pages: 1 -->
<svg width="3381pt" height="332pt"
 viewBox="0.00 0.00 3381.42 332.00" xmlns="http://www.w3.org/2000/svg" xmlns:xlink="http://www.w3.org/1999/xlink">
<g id="graph0" class="graph" transform="scale(1 1) rotate(0) translate(4 328)">
<title>arteries/deterministic_neumann/main.cpp</title>
<polygon fill="#ffffff" stroke="transparent" points="-4,4 -4,-328 3377.4209,-328 3377.4209,4 -4,4"/>
<!-- Node0 -->
<g id="node1" class="node">
<title>Node0</title>
<polygon fill="#bfbfbf" stroke="#000000" points="1863.2661,-295.5 1863.2661,-323.5 1971.5171,-323.5 1971.5171,-295.5 1863.2661,-295.5"/>
<text text-anchor="start" x="1871.2661" y="-311.5" font-family="Helvetica,sans-Serif" font-size="10.00" fill="#000000">arteries/deterministic</text>
<text text-anchor="middle" x="1917.3916" y="-301.5" font-family="Helvetica,sans-Serif" font-size="10.00" fill="#000000">_neumann/main.cpp</text>
</g>
<!-- Node1 -->
<g id="node2" class="node">
<title>Node1</title>
<polygon fill="#ffffff" stroke="#bfbfbf" points="1323.9756,-235.5 1323.9756,-253.5 1432.8076,-253.5 1432.8076,-235.5 1323.9756,-235.5"/>
<text text-anchor="middle" x="1378.3916" y="-241.5" font-family="Helvetica,sans-Serif" font-size="10.00" fill="#000000">Epetra_ConfigDefs.h</text>
</g>
<!-- Node0&#45;&gt;Node1 -->
<g id="edge1" class="edge">
<title>Node0&#45;&gt;Node1</title>
<path fill="none" stroke="#191970" d="M1862.9737,-305.794C1774.4054,-299.2969 1593.7445,-284.1028 1442.3916,-259 1436.6315,-258.0447 1430.6127,-256.8907 1424.6696,-255.6559"/>
<polygon fill="#191970" stroke="#191970" points="1425.3121,-252.214 1414.7984,-253.5224 1423.8333,-259.0561 1425.3121,-252.214"/>
</g>
<!-- Node2 -->
<g id="node3" class="node">
<title>Node2</title>
<polygon fill="#ffffff" stroke="#bfbfbf" points="1451.2046,-235.5 1451.2046,-253.5 1565.5786,-253.5 1565.5786,-235.5 1451.2046,-235.5"/>
<text text-anchor="middle" x="1508.3916" y="-241.5" font-family="Helvetica,sans-Serif" font-size="10.00" fill="#000000">Epetra_SerialComm.h</text>
</g>
<!-- Node0&#45;&gt;Node2 -->
<g id="edge2" class="edge">
<title>Node0&#45;&gt;Node2</title>
<path fill="none" stroke="#191970" d="M1863.1384,-302.7071C1795.3583,-293.9461 1675.928,-277.6046 1574.3916,-259 1568.9103,-257.9957 1563.1909,-256.8648 1557.5104,-255.689"/>
<polygon fill="#191970" stroke="#191970" points="1557.8961,-252.193 1547.3874,-253.5416 1556.4434,-259.0406 1557.8961,-252.193"/>
</g>
<!-- Node3 -->
<g id="node4" class="node">
<title>Node3</title>
<polygon fill="#ffffff" stroke="#bfbfbf" points="1583.5054,-235.5 1583.5054,-253.5 1771.2778,-253.5 1771.2778,-235.5 1583.5054,-235.5"/>
<text text-anchor="middle" x="1677.3916" y="-241.5" font-family="Helvetica,sans-Serif" font-size="10.00" fill="#000000">Teuchos_CommandLineProcessor.hpp</text>
</g>
<!-- Node0&#45;&gt;Node3 -->
<g id="edge3" class="edge">
<title>Node0&#45;&gt;Node3</title>
<path fill="none" stroke="#191970" d="M1865.6107,-295.476C1822.292,-283.7439 1761.2133,-267.2017 1720.5133,-256.1788"/>
<polygon fill="#191970" stroke="#191970" points="1721.1954,-252.7375 1710.6281,-253.5016 1719.3654,-259.4941 1721.1954,-252.7375"/>
</g>
<!-- Node4 -->
<g id="node5" class="node">
<title>Node4</title>
<polygon fill="#ffffff" stroke="#bfbfbf" points="1845.5103,-170.5 1845.5103,-188.5 2023.2729,-188.5 2023.2729,-170.5 1845.5103,-170.5"/>
<text text-anchor="middle" x="1934.3916" y="-176.5" font-family="Helvetica,sans-Serif" font-size="10.00" fill="#000000">Teuchos_StandardCatchMacros.hpp</text>
</g>
<!-- Node0&#45;&gt;Node4 -->
<g id="edge4" class="edge">
<title>Node0&#45;&gt;Node4</title>
<path fill="none" stroke="#191970" d="M1930.0035,-295.1885C1937.5327,-285.6564 1946.3865,-272.4506 1950.3916,-259 1956.456,-238.6335 1949.8072,-214.6467 1943.3285,-198.3887"/>
<polygon fill="#191970" stroke="#191970" points="1946.4197,-196.7195 1939.2309,-188.9367 1939.9972,-199.5037 1946.4197,-196.7195"/>
</g>
<!-- Node5 -->
<g id="node6" class="node">
<title>Node5</title>
<polygon fill="#ffffff" stroke="#bfbfbf" points="2041.1333,-170.5 2041.1333,-188.5 2181.6499,-188.5 2181.6499,-170.5 2041.1333,-170.5"/>
<text text-anchor="middle" x="2111.3916" y="-176.5" font-family="Helvetica,sans-Serif" font-size="10.00" fill="#000000">Teuchos_ParameterList.hpp</text>
</g>
<!-- Node0&#45;&gt;Node5 -->
<g id="edge5" class="edge">
<title>Node0&#45;&gt;Node5</title>
<path fill="none" stroke="#191970" d="M1938.5223,-295.3402C1975.4594,-270.5886 2051.4186,-219.6881 2089.1335,-194.4152"/>
<polygon fill="#191970" stroke="#191970" points="2091.4921,-197.0479 2097.8511,-188.5736 2087.5954,-191.2328 2091.4921,-197.0479"/>
</g>
<!-- Node6 -->
<g id="node7" class="node">
<title>Node6</title>
<polygon fill="#ffffff" stroke="#bfbfbf" points="2199.584,-165.5 2199.584,-193.5 2341.1992,-193.5 2341.1992,-165.5 2199.584,-165.5"/>
<text text-anchor="start" x="2207.584" y="-181.5" font-family="Helvetica,sans-Serif" font-size="10.00" fill="#000000">Teuchos_XMLParameterList</text>
<text text-anchor="middle" x="2270.3916" y="-171.5" font-family="Helvetica,sans-Serif" font-size="10.00" fill="#000000">CoreHelpers.hpp</text>
</g>
<!-- Node0&#45;&gt;Node6 -->
<g id="edge6" class="edge">
<title>Node0&#45;&gt;Node6</title>
<path fill="none" stroke="#191970" d="M1955.5042,-295.4642C2020.2915,-271.6049 2151.7456,-223.194 2222.5901,-197.104"/>
<polygon fill="#191970" stroke="#191970" points="2223.9967,-200.3158 2232.171,-193.5756 2221.5776,-193.7471 2223.9967,-200.3158"/>
</g>
<!-- Node7 -->
<g id="node8" class="node">
<title>Node7</title>
<g id="a_node8"><a xlink:href="../../dd/da4/_arteries___model_c__deterministic__neumann_8hpp.html" target="_top" xlink:title="Arteries_ModelC_deterministic\l_neumann.hpp">
<polygon fill="#ffffff" stroke="#000000" points="1789.3105,-230.5 1789.3105,-258.5 1941.4727,-258.5 1941.4727,-230.5 1789.3105,-230.5"/>
<text text-anchor="start" x="1797.3105" y="-246.5" font-family="Helvetica,sans-Serif" font-size="10.00" fill="#000000">Arteries_ModelC_deterministic</text>
<text text-anchor="middle" x="1865.3916" y="-236.5" font-family="Helvetica,sans-Serif" font-size="10.00" fill="#000000">_neumann.hpp</text>
</a>
</g>
</g>
<!-- Node0&#45;&gt;Node7 -->
<g id="edge7" class="edge">
<title>Node0&#45;&gt;Node7</title>
<path fill="none" stroke="#191970" d="M1906.1084,-295.396C1899.3623,-286.9634 1890.6454,-276.0673 1883.0089,-266.5216"/>
<polygon fill="#191970" stroke="#191970" points="1885.6328,-264.1988 1876.6528,-258.5765 1880.1667,-268.5717 1885.6328,-264.1988"/>
</g>
<!-- Node45 -->
<g id="node43" class="node">
<title>Node45</title>
<g id="a_node43"><a xlink:href="../../d7/d17/_newton___raphsonpp_8hpp.html" target="_top" xlink:title="Newton_Raphsonpp.hpp">
<polygon fill="#ffffff" stroke="#000000" points="2571.3501,-235.5 2571.3501,-253.5 2697.4331,-253.5 2697.4331,-235.5 2571.3501,-235.5"/>
<text text-anchor="middle" x="2634.3916" y="-241.5" font-family="Helvetica,sans-Serif" font-size="10.00" fill="#000000">Newton_Raphsonpp.hpp</text>
</a>
</g>
</g>
<!-- Node0&#45;&gt;Node45 -->
<g id="edge43" class="edge">
<title>Node0&#45;&gt;Node45</title>
<path fill="none" stroke="#191970" d="M1971.577,-304.5878C2098.8554,-293.0493 2417.0101,-264.2068 2561.2504,-251.1307"/>
<polygon fill="#191970" stroke="#191970" points="2561.687,-254.6055 2571.3301,-250.2169 2561.0549,-247.6341 2561.687,-254.6055"/>
</g>
<!-- Node8 -->
<g id="node9" class="node">
<title>Node8</title>
<g id="a_node9"><a xlink:href="../../de/d49/tensor__calculus_8hpp.html" target="_top" xlink:title="tensor_calculus.hpp">
<polygon fill="#ffffff" stroke="#000000" points="1609.9189,-110.5 1609.9189,-128.5 1714.8643,-128.5 1714.8643,-110.5 1609.9189,-110.5"/>
<text text-anchor="middle" x="1662.3916" y="-116.5" font-family="Helvetica,sans-Serif" font-size="10.00" fill="#000000">tensor_calculus.hpp</text>
</a>
</g>
</g>
<!-- Node7&#45;&gt;Node8 -->
<g id="edge8" class="edge">
<title>Node7&#45;&gt;Node8</title>
<path fill="none" stroke="#191970" d="M1789.0655,-231.4327C1761.5592,-223.9111 1731.6092,-212.1845 1708.3916,-194 1689.7601,-179.4075 1676.7771,-155.01 1669.4631,-138.1305"/>
<polygon fill="#191970" stroke="#191970" points="1672.6551,-136.6885 1665.642,-128.747 1666.172,-139.3286 1672.6551,-136.6885"/>
</g>
<!-- Node41 -->
<g id="node40" class="node">
<title>Node41</title>
<g id="a_node40"><a xlink:href="../../de/d9d/hyperelasticity__setup__pp_8hpp.html" target="_top" xlink:title="hyperelasticity_setup\l_pp.hpp">
<polygon fill="#ffffff" stroke="#000000" points="1717.6997,-165.5 1717.6997,-193.5 1827.0835,-193.5 1827.0835,-165.5 1717.6997,-165.5"/>
<text text-anchor="start" x="1725.6997" y="-181.5" font-family="Helvetica,sans-Serif" font-size="10.00" fill="#000000">hyperelasticity_setup</text>
<text text-anchor="middle" x="1772.3916" y="-171.5" font-family="Helvetica,sans-Serif" font-size="10.00" fill="#000000">_pp.hpp</text>
</a>
</g>
</g>
<!-- Node7&#45;&gt;Node41 -->
<g id="edge39" class="edge">
<title>Node7&#45;&gt;Node41</title>
<path fill="none" stroke="#191970" d="M1845.212,-230.396C1832.2939,-221.3672 1815.3348,-209.5141 1801.0333,-199.5184"/>
<polygon fill="#191970" stroke="#191970" points="1802.7334,-196.4365 1792.5318,-193.5765 1798.7232,-202.174 1802.7334,-196.4365"/>
</g>
<!-- Node9 -->
<g id="node10" class="node">
<title>Node9</title>
<g id="a_node10"><a xlink:href="../../d0/d02/meshpp_8hpp.html" target="_top" xlink:title="meshpp.hpp">
<polygon fill="#ffffff" stroke="#ff0000" points="1626.8721,-55.5 1626.8721,-73.5 1697.9111,-73.5 1697.9111,-55.5 1626.8721,-55.5"/>
<text text-anchor="middle" x="1662.3916" y="-61.5" font-family="Helvetica,sans-Serif" font-size="10.00" fill="#000000">meshpp.hpp</text>
</a>
</g>
</g>
<!-- Node8&#45;&gt;Node9 -->
<g id="edge9" class="edge">
<title>Node8&#45;&gt;Node9</title>
<path fill="none" stroke="#191970" d="M1662.3916,-110.4179C1662.3916,-103.2164 1662.3916,-92.8962 1662.3916,-83.8632"/>
<polygon fill="#191970" stroke="#191970" points="1665.8917,-83.7794 1662.3916,-73.7795 1658.8917,-83.7795 1665.8917,-83.7794"/>
</g>
<!-- Node10 -->
<g id="node11" class="node">
<title>Node10</title>
<polygon fill="#ffffff" stroke="#bfbfbf" points="3027.6602,-.5 3027.6602,-18.5 3073.123,-18.5 3073.123,-.5 3027.6602,-.5"/>
<text text-anchor="middle" x="3050.3916" y="-6.5" font-family="Helvetica,sans-Serif" font-size="10.00" fill="#000000">stdio.h</text>
</g>
<!-- Node9&#45;&gt;Node10 -->
<g id="edge10" class="edge">
<title>Node9&#45;&gt;Node10</title>
<path fill="none" stroke="#191970" d="M1698.0274,-63.8473C1894.6174,-60.1757 2843.7903,-41.5047 3017.3981,-18.5457"/>
<polygon fill="#191970" stroke="#191970" points="3018.0983,-21.9804 3027.4827,-17.0627 3017.0798,-15.0549 3018.0983,-21.9804"/>
</g>
<!-- Node11 -->
<g id="node12" class="node">
<title>Node11</title>
<polygon fill="#ffffff" stroke="#bfbfbf" points="3091.2192,-.5 3091.2192,-18.5 3145.564,-18.5 3145.564,-.5 3091.2192,-.5"/>
<text text-anchor="middle" x="3118.3916" y="-6.5" font-family="Helvetica,sans-Serif" font-size="10.00" fill="#000000">iostream</text>
</g>
<!-- Node9&#45;&gt;Node11 -->
<g id="edge11" class="edge">
<title>Node9&#45;&gt;Node11</title>
<path fill="none" stroke="#191970" d="M1698.0013,-63.8407C1900.1705,-60.0346 2900.6169,-40.3402 3080.9926,-18.7353"/>
<polygon fill="#191970" stroke="#191970" points="3081.5527,-22.1918 3091.0065,-17.4089 3080.6335,-15.2524 3081.5527,-22.1918"/>
</g>
<!-- Node12 -->
<g id="node13" class="node">
<title>Node12</title>
<polygon fill="#ffffff" stroke="#bfbfbf" points="0,-.5 0,-18.5 48.7832,-18.5 48.7832,-.5 0,-.5"/>
<text text-anchor="middle" x="24.3916" y="-6.5" font-family="Helvetica,sans-Serif" font-size="10.00" fill="#000000">istream</text>
</g>
<!-- Node9&#45;&gt;Node12 -->
<g id="edge12" class="edge">
<title>Node9&#45;&gt;Node12</title>
<path fill="none" stroke="#191970" d="M1626.5709,-64.0257C1408.2517,-61.0643 259.6446,-44.454 59.1969,-18.7661"/>
<polygon fill="#191970" stroke="#191970" points="59.4992,-15.2741 49.1076,-17.3391 58.5188,-22.2051 59.4992,-15.2741"/>
</g>
<!-- Node13 -->
<g id="node14" class="node">
<title>Node13</title>
<polygon fill="#ffffff" stroke="#bfbfbf" points="66.7217,-.5 66.7217,-18.5 116.0615,-18.5 116.0615,-.5 66.7217,-.5"/>
<text text-anchor="middle" x="91.3916" y="-6.5" font-family="Helvetica,sans-Serif" font-size="10.00" fill="#000000">fstream</text>
</g>
<!-- Node9&#45;&gt;Node13 -->
<g id="edge13" class="edge">
<title>Node9&#45;&gt;Node13</title>
<path fill="none" stroke="#191970" d="M1626.6748,-63.9799C1414.1265,-60.8148 318.7903,-43.5046 126.0592,-18.7477"/>
<polygon fill="#191970" stroke="#191970" points="126.5006,-15.2754 116.1081,-17.3357 125.5171,-22.206 126.5006,-15.2754"/>
</g>
<!-- Node14 -->
<g id="node15" class="node">
<title>Node14</title>
<polygon fill="#ffffff" stroke="#bfbfbf" points="133.7759,-.5 133.7759,-18.5 177.0073,-18.5 177.0073,-.5 133.7759,-.5"/>
<text text-anchor="middle" x="155.3916" y="-6.5" font-family="Helvetica,sans-Serif" font-size="10.00" fill="#000000">vector</text>
</g>
<!-- Node9&#45;&gt;Node14 -->
<g id="edge14" class="edge">
<title>Node9&#45;&gt;Node14</title>
<path fill="none" stroke="#191970" d="M1626.7214,-63.9898C1419.4806,-60.9488 373.3738,-44.5267 187.2596,-18.7168"/>
<polygon fill="#191970" stroke="#191970" points="187.5907,-15.2266 177.1744,-17.1632 186.5249,-22.145 187.5907,-15.2266"/>
</g>
<!-- Node15 -->
<g id="node16" class="node">
<title>Node15</title>
<polygon fill="#ffffff" stroke="#bfbfbf" points="194.8818,-.5 194.8818,-18.5 245.9014,-18.5 245.9014,-.5 194.8818,-.5"/>
<text text-anchor="middle" x="220.3916" y="-6.5" font-family="Helvetica,sans-Serif" font-size="10.00" fill="#000000">iomanip</text>
</g>
<!-- Node9&#45;&gt;Node15 -->
<g id="edge15" class="edge">
<title>Node9&#45;&gt;Node15</title>
<path fill="none" stroke="#191970" d="M1626.7722,-63.8441C1425.6752,-60.0765 435.3139,-40.6409 256.1907,-18.5911"/>
<polygon fill="#191970" stroke="#191970" points="256.6231,-15.1178 246.2423,-17.2366 255.6787,-22.0538 256.6231,-15.1178"/>
</g>
<!-- Node16 -->
<g id="node17" class="node">
<title>Node16</title>
<polygon fill="#ffffff" stroke="#bfbfbf" points="263.9312,-.5 263.9312,-18.5 368.8521,-18.5 368.8521,-.5 263.9312,-.5"/>
<text text-anchor="middle" x="316.3916" y="-6.5" font-family="Helvetica,sans-Serif" font-size="10.00" fill="#000000">Epetra_MpiComm.h</text>
</g>
<!-- Node9&#45;&gt;Node16 -->
<g id="edge16" class="edge">
<title>Node9&#45;&gt;Node16</title>
<path fill="none" stroke="#191970" d="M1626.6671,-63.8113C1448.0878,-60.2816 650.3728,-43.4676 379.1145,-19.0326"/>
<polygon fill="#191970" stroke="#191970" points="379.1947,-15.5251 368.9141,-18.0862 378.5479,-22.4951 379.1947,-15.5251"/>
</g>
<!-- Node17 -->
<g id="node18" class="node">
<title>Node17</title>
<polygon fill="#ffffff" stroke="#bfbfbf" points="386.6479,-.5 386.6479,-18.5 502.1353,-18.5 502.1353,-.5 386.6479,-.5"/>
<text text-anchor="middle" x="444.3916" y="-6.5" font-family="Helvetica,sans-Serif" font-size="10.00" fill="#000000">Epetra_FECrsGraph.h</text>
</g>
<!-- Node9&#45;&gt;Node17 -->
<g id="edge17" class="edge">
<title>Node9&#45;&gt;Node17</title>
<path fill="none" stroke="#191970" d="M1626.8337,-63.5811C1460.3682,-59.2056 756.2925,-39.8652 512.6645,-18.9998"/>
<polygon fill="#191970" stroke="#191970" points="512.7231,-15.4915 502.4544,-18.0998 512.1084,-22.4644 512.7231,-15.4915"/>
</g>
<!-- Node18 -->
<g id="node19" class="node">
<title>Node18</title>
<polygon fill="#ffffff" stroke="#bfbfbf" points="519.9336,-.5 519.9336,-18.5 634.8496,-18.5 634.8496,-.5 519.9336,-.5"/>
<text text-anchor="middle" x="577.3916" y="-6.5" font-family="Helvetica,sans-Serif" font-size="10.00" fill="#000000">Epetra_FECrsMatrix.h</text>
</g>
<!-- Node9&#45;&gt;Node18 -->
<g id="edge18" class="edge">
<title>Node9&#45;&gt;Node18</title>
<path fill="none" stroke="#191970" d="M1626.6552,-64.1748C1496.4795,-62.7231 1035.276,-55.2422 645.0191,-19.0658"/>
<polygon fill="#191970" stroke="#191970" points="645.2271,-15.5701 634.9448,-18.1241 644.5755,-22.5397 645.2271,-15.5701"/>
</g>
<!-- Node19 -->
<g id="node20" class="node">
<title>Node19</title>
<polygon fill="#ffffff" stroke="#bfbfbf" points="652.4165,-.5 652.4165,-18.5 752.3667,-18.5 752.3667,-.5 652.4165,-.5"/>
<text text-anchor="middle" x="702.3916" y="-6.5" font-family="Helvetica,sans-Serif" font-size="10.00" fill="#000000">Epetra_FEVector.h</text>
</g>
<!-- Node9&#45;&gt;Node19 -->
<g id="edge19" class="edge">
<title>Node9&#45;&gt;Node19</title>
<path fill="none" stroke="#191970" d="M1626.6561,-64.0956C1506.3035,-62.4382 1104.6142,-54.5081 762.6533,-19.0171"/>
<polygon fill="#191970" stroke="#191970" points="762.8641,-15.5202 752.5538,-17.959 762.1347,-22.4821 762.8641,-15.5202"/>
</g>
<!-- Node20 -->
<g id="node21" class="node">
<title>Node20</title>
<polygon fill="#ffffff" stroke="#bfbfbf" points="770.8057,-.5 770.8057,-18.5 857.9775,-18.5 857.9775,-.5 770.8057,-.5"/>
<text text-anchor="middle" x="814.3916" y="-6.5" font-family="Helvetica,sans-Serif" font-size="10.00" fill="#000000">Epetra_Vector.h</text>
</g>
<!-- Node9&#45;&gt;Node20 -->
<g id="edge20" class="edge">
<title>Node9&#45;&gt;Node20</title>
<path fill="none" stroke="#191970" d="M1626.6014,-63.9825C1515.5828,-62.0535 1167.0952,-53.5645 868.1685,-18.9356"/>
<polygon fill="#191970" stroke="#191970" points="868.3416,-15.4321 858.0024,-17.7455 867.5276,-22.3846 868.3416,-15.4321"/>
</g>
<!-- Node21 -->
<g id="node22" class="node">
<title>Node21</title>
<polygon fill="#ffffff" stroke="#bfbfbf" points="875.9829,-.5 875.9829,-18.5 954.8003,-18.5 954.8003,-.5 875.9829,-.5"/>
<text text-anchor="middle" x="915.3916" y="-6.5" font-family="Helvetica,sans-Serif" font-size="10.00" fill="#000000">Epetra_Map.h</text>
</g>
<!-- Node9&#45;&gt;Node21 -->
<g id="edge21" class="edge">
<title>Node9&#45;&gt;Node21</title>
<path fill="none" stroke="#191970" d="M1626.5869,-63.8157C1524.6033,-61.5178 1223.7795,-52.315 964.8442,-19.0344"/>
<polygon fill="#191970" stroke="#191970" points="965.2447,-15.5571 954.8769,-17.7386 964.3422,-22.4987 965.2447,-15.5571"/>
</g>
<!-- Node22 -->
<g id="node23" class="node">
<title>Node22</title>
<polygon fill="#ffffff" stroke="#bfbfbf" points="972.8623,-.5 972.8623,-18.5 1113.9209,-18.5 1113.9209,-.5 972.8623,-.5"/>
<text text-anchor="middle" x="1043.3916" y="-6.5" font-family="Helvetica,sans-Serif" font-size="10.00" fill="#000000">Epetra_SerialDenseMatrix.h</text>
</g>
<!-- Node9&#45;&gt;Node22 -->
<g id="edge22" class="edge">
<title>Node9&#45;&gt;Node22</title>
<path fill="none" stroke="#191970" d="M1626.6501,-61.9309C1541.5317,-55.7179 1319.9026,-38.9833 1124.1968,-19.1558"/>
<polygon fill="#191970" stroke="#191970" points="1124.3161,-15.6499 1114.013,-18.1188 1123.6069,-22.6139 1124.3161,-15.6499"/>
</g>
<!-- Node23 -->
<g id="node24" class="node">
<title>Node23</title>
<polygon fill="#ffffff" stroke="#bfbfbf" points="1131.5693,-.5 1131.5693,-18.5 1273.2139,-18.5 1273.2139,-.5 1131.5693,-.5"/>
<text text-anchor="middle" x="1202.3916" y="-6.5" font-family="Helvetica,sans-Serif" font-size="10.00" fill="#000000">Epetra_SerialDenseVector.h</text>
</g>
<!-- Node9&#45;&gt;Node23 -->
<g id="edge23" class="edge">
<title>Node9&#45;&gt;Node23</title>
<path fill="none" stroke="#191970" d="M1626.6789,-60.23C1553.5152,-51.4822 1384.9748,-31.3306 1283.7154,-19.2235"/>
<polygon fill="#191970" stroke="#191970" points="1283.8721,-15.7174 1273.5272,-18.0053 1283.041,-22.6679 1283.8721,-15.7174"/>
</g>
<!-- Node24 -->
<g id="node25" class="node">
<title>Node24</title>
<polygon fill="#ffffff" stroke="#bfbfbf" points="1291.0103,-.5 1291.0103,-18.5 1443.7729,-18.5 1443.7729,-.5 1291.0103,-.5"/>
<text text-anchor="middle" x="1367.3916" y="-6.5" font-family="Helvetica,sans-Serif" font-size="10.00" fill="#000000">Epetra_IntSerialDenseVector.h</text>
</g>
<!-- Node9&#45;&gt;Node24 -->
<g id="edge24" class="edge">
<title>Node9&#45;&gt;Node24</title>
<path fill="none" stroke="#191970" d="M1626.8077,-57.8657C1576.9746,-48.5748 1485.7962,-31.5754 1425.8942,-20.4073"/>
<polygon fill="#191970" stroke="#191970" points="1426.2982,-16.9223 1415.8261,-18.5302 1425.0152,-23.8038 1426.2982,-16.9223"/>
</g>
<!-- Node25 -->
<g id="node26" class="node">
<title>Node25</title>
<polygon fill="#ffffff" stroke="#bfbfbf" points="1461.5396,-.5 1461.5396,-18.5 1549.2437,-18.5 1549.2437,-.5 1461.5396,-.5"/>
<text text-anchor="middle" x="1505.3916" y="-6.5" font-family="Helvetica,sans-Serif" font-size="10.00" fill="#000000">Epetra_Import.h</text>
</g>
<!-- Node9&#45;&gt;Node25 -->
<g id="edge25" class="edge">
<title>Node9&#45;&gt;Node25</title>
<path fill="none" stroke="#191970" d="M1636.4662,-55.4179C1610.3668,-46.2748 1569.9174,-32.1046 1540.8566,-21.924"/>
<polygon fill="#191970" stroke="#191970" points="1541.6894,-18.5073 1531.0945,-18.5042 1539.375,-25.1136 1541.6894,-18.5073"/>
</g>
<!-- Node26 -->
<g id="node27" class="node">
<title>Node26</title>
<polygon fill="#ffffff" stroke="#bfbfbf" points="1567.2588,-.5 1567.2588,-18.5 1655.5244,-18.5 1655.5244,-.5 1567.2588,-.5"/>
<text text-anchor="middle" x="1611.3916" y="-6.5" font-family="Helvetica,sans-Serif" font-size="10.00" fill="#000000">Epetra_Export.h</text>
</g>
<!-- Node9&#45;&gt;Node26 -->
<g id="edge26" class="edge">
<title>Node9&#45;&gt;Node26</title>
<path fill="none" stroke="#191970" d="M1653.97,-55.4179C1646.6318,-47.5041 1635.8014,-35.8243 1626.9003,-26.2251"/>
<polygon fill="#191970" stroke="#191970" points="1629.3621,-23.7324 1619.9962,-18.7795 1624.2292,-28.492 1629.3621,-23.7324"/>
</g>
<!-- Node27 -->
<g id="node28" class="node">
<title>Node27</title>
<polygon fill="#ffffff" stroke="#bfbfbf" points="1673.7817,-.5 1673.7817,-18.5 1755.0015,-18.5 1755.0015,-.5 1673.7817,-.5"/>
<text text-anchor="middle" x="1714.3916" y="-6.5" font-family="Helvetica,sans-Serif" font-size="10.00" fill="#000000">Epetra_Time.h</text>
</g>
<!-- Node9&#45;&gt;Node27 -->
<g id="edge27" class="edge">
<title>Node9&#45;&gt;Node27</title>
<path fill="none" stroke="#191970" d="M1670.9783,-55.4179C1678.4604,-47.5041 1689.5032,-35.8243 1698.5788,-26.2251"/>
<polygon fill="#191970" stroke="#191970" points="1701.2914,-28.4505 1705.6183,-18.7795 1696.2049,-23.6414 1701.2914,-28.4505"/>
</g>
<!-- Node28 -->
<g id="node29" class="node">
<title>Node28</title>
<polygon fill="#ffffff" stroke="#bfbfbf" points="1772.6875,-.5 1772.6875,-18.5 1922.0957,-18.5 1922.0957,-.5 1772.6875,-.5"/>
<text text-anchor="middle" x="1847.3916" y="-6.5" font-family="Helvetica,sans-Serif" font-size="10.00" fill="#000000">ml_MultiLevelPreconditioner.h</text>
</g>
<!-- Node9&#45;&gt;Node28 -->
<g id="edge28" class="edge">
<title>Node9&#45;&gt;Node28</title>
<path fill="none" stroke="#191970" d="M1692.9406,-55.4179C1724.2319,-46.115 1773.0282,-31.608 1807.3837,-21.3943"/>
<polygon fill="#191970" stroke="#191970" points="1808.5168,-24.7089 1817.1047,-18.5042 1806.5219,-17.9991 1808.5168,-24.7089"/>
</g>
<!-- Node29 -->
<g id="node30" class="node">
<title>Node29</title>
<polygon fill="#ffffff" stroke="#bfbfbf" points="1940.3154,-.5 1940.3154,-18.5 2032.4678,-18.5 2032.4678,-.5 1940.3154,-.5"/>
<text text-anchor="middle" x="1986.3916" y="-6.5" font-family="Helvetica,sans-Serif" font-size="10.00" fill="#000000">ml_epetra_utils.h</text>
</g>
<!-- Node9&#45;&gt;Node29 -->
<g id="edge29" class="edge">
<title>Node9&#45;&gt;Node29</title>
<path fill="none" stroke="#191970" d="M1698.0788,-58.5043C1747.7409,-50.1518 1840.784,-34.4712 1930.148,-19.2083"/>
<polygon fill="#191970" stroke="#191970" points="1930.9126,-22.6285 1940.1801,-17.494 1929.7334,-15.7285 1930.9126,-22.6285"/>
</g>
<!-- Node30 -->
<g id="node31" class="node">
<title>Node30</title>
<polygon fill="#ffffff" stroke="#bfbfbf" points="2050.3203,-.5 2050.3203,-18.5 2122.4629,-18.5 2122.4629,-.5 2050.3203,-.5"/>
<text text-anchor="middle" x="2086.3916" y="-6.5" font-family="Helvetica,sans-Serif" font-size="10.00" fill="#000000">ml_include.h</text>
</g>
<!-- Node9&#45;&gt;Node30 -->
<g id="edge30" class="edge">
<title>Node9&#45;&gt;Node30</title>
<path fill="none" stroke="#191970" d="M1698.072,-61.2803C1763.7247,-55.1266 1908.2687,-40.5122 2039.8394,-19.1354"/>
<polygon fill="#191970" stroke="#191970" points="2040.794,-22.5256 2050.0944,-17.4509 2039.6593,-15.6181 2040.794,-22.5256"/>
</g>
<!-- Node31 -->
<g id="node32" class="node">
<title>Node31</title>
<polygon fill="#ffffff" stroke="#bfbfbf" points="2140.813,-.5 2140.813,-18.5 2277.9702,-18.5 2277.9702,-.5 2140.813,-.5"/>
<text text-anchor="middle" x="2209.3916" y="-6.5" font-family="Helvetica,sans-Serif" font-size="10.00" fill="#000000">EpetraExt_RowMatrixOut.h</text>
</g>
<!-- Node9&#45;&gt;Node31 -->
<g id="edge31" class="edge">
<title>Node9&#45;&gt;Node31</title>
<path fill="none" stroke="#191970" d="M1698.0177,-61.3438C1774.8832,-54.4695 1962.2575,-37.3654 2130.47,-19.0778"/>
<polygon fill="#191970" stroke="#191970" points="2130.9373,-22.5477 2140.4987,-17.9836 2130.178,-15.589 2130.9373,-22.5477"/>
</g>
<!-- Node32 -->
<g id="node33" class="node">
<title>Node32</title>
<polygon fill="#ffffff" stroke="#bfbfbf" points="2295.6924,-.5 2295.6924,-18.5 2435.0908,-18.5 2435.0908,-.5 2295.6924,-.5"/>
<text text-anchor="middle" x="2365.3916" y="-6.5" font-family="Helvetica,sans-Serif" font-size="10.00" fill="#000000">EpetraExt_MultiVectorOut.h</text>
</g>
<!-- Node9&#45;&gt;Node32 -->
<g id="edge32" class="edge">
<title>Node9&#45;&gt;Node32</title>
<path fill="none" stroke="#191970" d="M1698.0294,-62.5131C1792.1985,-57.1333 2055.6454,-41.2443 2285.4432,-19.1513"/>
<polygon fill="#191970" stroke="#191970" points="2286.0525,-22.6088 2295.6689,-18.1619 2285.3782,-15.6413 2286.0525,-22.6088"/>
</g>
<!-- Node33 -->
<g id="node34" class="node">
<title>Node33</title>
<polygon fill="#ffffff" stroke="#bfbfbf" points="2453.1382,-.5 2453.1382,-18.5 2563.645,-18.5 2563.645,-.5 2453.1382,-.5"/>
<text text-anchor="middle" x="2508.3916" y="-6.5" font-family="Helvetica,sans-Serif" font-size="10.00" fill="#000000">EpetraExt_VectorIn.h</text>
</g>
<!-- Node9&#45;&gt;Node33 -->
<g id="edge33" class="edge">
<title>Node9&#45;&gt;Node33</title>
<path fill="none" stroke="#191970" d="M1697.9456,-63.5614C1807.4555,-60.431 2149.4683,-48.8672 2442.946,-19.0649"/>
<polygon fill="#191970" stroke="#191970" points="2443.3356,-22.5434 2452.9268,-18.0424 2442.6221,-15.5799 2443.3356,-22.5434"/>
</g>
<!-- Node34 -->
<g id="node35" class="node">
<title>Node34</title>
<polygon fill="#ffffff" stroke="#bfbfbf" points="2581.5815,-.5 2581.5815,-18.5 2713.2017,-18.5 2713.2017,-.5 2581.5815,-.5"/>
<text text-anchor="middle" x="2647.3916" y="-6.5" font-family="Helvetica,sans-Serif" font-size="10.00" fill="#000000">EpetraExt_MultiVectorIn.h</text>
</g>
<!-- Node9&#45;&gt;Node34 -->
<g id="edge34" class="edge">
<title>Node9&#45;&gt;Node34</title>
<path fill="none" stroke="#191970" d="M1698.016,-63.6929C1818.942,-60.7474 2224.9915,-49.1747 2571.5931,-19"/>
<polygon fill="#191970" stroke="#191970" points="2571.9161,-22.4852 2581.572,-18.1246 2571.3043,-15.5119 2571.9161,-22.4852"/>
</g>
<!-- Node35 -->
<g id="node36" class="node">
<title>Node35</title>
<polygon fill="#ffffff" stroke="#bfbfbf" points="3163.3442,-.5 3163.3442,-18.5 3261.439,-18.5 3261.439,-.5 3163.3442,-.5"/>
<text text-anchor="middle" x="3212.3916" y="-6.5" font-family="Helvetica,sans-Serif" font-size="10.00" fill="#000000">Teuchos_RCP.hpp</text>
</g>
<!-- Node9&#45;&gt;Node35 -->
<g id="edge35" class="edge">
<title>Node9&#45;&gt;Node35</title>
<path fill="none" stroke="#191970" d="M1698.174,-64.0501C1893.9892,-61.4921 2838.1299,-47.8934 3153.0537,-18.9768"/>
<polygon fill="#191970" stroke="#191970" points="3153.4617,-22.454 3163.0884,-18.0294 3152.8037,-15.485 3153.4617,-22.454"/>
</g>
<!-- Node36 -->
<g id="node37" class="node">
<title>Node36</title>
<polygon fill="#ffffff" stroke="#bfbfbf" points="2731.1602,-.5 2731.1602,-18.5 2791.623,-18.5 2791.623,-.5 2731.1602,-.5"/>
<text text-anchor="middle" x="2761.3916" y="-6.5" font-family="Helvetica,sans-Serif" font-size="10.00" fill="#000000">Amesos.h</text>
</g>
<!-- Node9&#45;&gt;Node36 -->
<g id="edge36" class="edge">
<title>Node9&#45;&gt;Node36</title>
<path fill="none" stroke="#191970" d="M1698.0942,-63.9079C1856.5941,-61.137 2498.1858,-48.3857 2720.8772,-18.9114"/>
<polygon fill="#191970" stroke="#191970" points="2721.4151,-22.3704 2730.8449,-17.5405 2720.4613,-15.4357 2721.4151,-22.3704"/>
</g>
<!-- Node37 -->
<g id="node38" class="node">
<title>Node37</title>
<polygon fill="#ffffff" stroke="#bfbfbf" points="2809.9385,-.5 2809.9385,-18.5 2874.8447,-18.5 2874.8447,-.5 2809.9385,-.5"/>
<text text-anchor="middle" x="2842.3916" y="-6.5" font-family="Helvetica,sans-Serif" font-size="10.00" fill="#000000">AztecOO.h</text>
</g>
<!-- Node9&#45;&gt;Node37 -->
<g id="edge37" class="edge">
<title>Node9&#45;&gt;Node37</title>
<path fill="none" stroke="#191970" d="M1698.1486,-63.9493C1863.9397,-61.2634 2559.5238,-48.5028 2799.8661,-18.7483"/>
<polygon fill="#191970" stroke="#191970" points="2800.4648,-22.2003 2809.9379,-17.4556 2799.5737,-15.2572 2800.4648,-22.2003"/>
</g>
<!-- Node38 -->
<g id="node39" class="node">
<title>Node38</title>
<polygon fill="#ffffff" stroke="#bfbfbf" points="2893.084,-.5 2893.084,-18.5 3009.6992,-18.5 3009.6992,-.5 2893.084,-.5"/>
<text text-anchor="middle" x="2951.3916" y="-6.5" font-family="Helvetica,sans-Serif" font-size="10.00" fill="#000000">Amesos_BaseSolver.h</text>
</g>
<!-- Node9&#45;&gt;Node38 -->
<g id="edge38" class="edge">
<title>Node9&#45;&gt;Node38</title>
<path fill="none" stroke="#191970" d="M1698.0524,-63.6611C1870.9699,-59.5193 2623.9968,-40.6159 2882.7269,-18.9365"/>
<polygon fill="#191970" stroke="#191970" points="2883.1667,-22.4116 2892.8294,-18.0661 2882.5658,-15.4375 2883.1667,-22.4116"/>
</g>
<!-- Node42 -->
<g id="node41" class="node">
<title>Node42</title>
<g id="a_node41"><a xlink:href="../../d2/d8b/_finite___element___problem_8hpp.html" target="_top" xlink:title="Finite_Element_Problem.hpp">
<polygon fill="#ffffff" stroke="#000000" points="1829.9116,-110.5 1829.9116,-128.5 1974.8716,-128.5 1974.8716,-110.5 1829.9116,-110.5"/>
<text text-anchor="middle" x="1902.3916" y="-116.5" font-family="Helvetica,sans-Serif" font-size="10.00" fill="#000000">Finite_Element_Problem.hpp</text>
</a>
</g>
</g>
<!-- Node41&#45;&gt;Node42 -->
<g id="edge40" class="edge">
<title>Node41&#45;&gt;Node42</title>
<path fill="none" stroke="#191970" d="M1802.8708,-165.4327C1824.1209,-155.625 1852.3054,-142.6167 1873.2549,-132.9477"/>
<polygon fill="#191970" stroke="#191970" points="1874.9948,-135.9996 1882.6076,-128.6311 1872.0613,-129.6438 1874.9948,-135.9996"/>
</g>
<!-- Node43 -->
<g id="node42" class="node">
<title>Node43</title>
<g id="a_node42"><a xlink:href="../../d5/d3f/laplacepp_8hpp.html" target="_top" xlink:title="laplacepp.hpp">
<polygon fill="#ffffff" stroke="#ff0000" points="1733.2539,-110.5 1733.2539,-128.5 1811.5293,-128.5 1811.5293,-110.5 1733.2539,-110.5"/>
<text text-anchor="middle" x="1772.3916" y="-116.5" font-family="Helvetica,sans-Serif" font-size="10.00" fill="#000000">laplacepp.hpp</text>
</a>
</g>
</g>
<!-- Node41&#45;&gt;Node43 -->
<g id="edge42" class="edge">
<title>Node41&#45;&gt;Node43</title>
<path fill="none" stroke="#191970" d="M1772.3916,-165.2808C1772.3916,-157.3776 1772.3916,-147.4316 1772.3916,-138.8308"/>
<polygon fill="#191970" stroke="#191970" points="1775.8917,-138.5842 1772.3916,-128.5842 1768.8917,-138.5842 1775.8917,-138.5842"/>
</g>
<!-- Node42&#45;&gt;Node9 -->
<g id="edge41" class="edge">
<title>Node42&#45;&gt;Node9</title>
<path fill="none" stroke="#191970" d="M1863.0292,-110.4795C1820.4996,-100.7331 1752.8186,-85.2228 1708.0007,-74.9521"/>
<polygon fill="#191970" stroke="#191970" points="1708.7742,-71.5387 1698.245,-72.7164 1707.2105,-78.3618 1708.7742,-71.5387"/>
</g>
<!-- Node45&#45;&gt;Node4 -->
<g id="edge53" class="edge">
<title>Node45&#45;&gt;Node4</title>
<path fill="none" stroke="#191970" d="M2570.9904,-240.5048C2461.1087,-233.2851 2228.2588,-216.6826 2032.3916,-194 2022.2281,-192.823 2011.4962,-191.41 2001.0089,-189.9343"/>
<polygon fill="#191970" stroke="#191970" points="2001.4514,-186.4621 1991.0556,-188.5059 2000.457,-193.3911 2001.4514,-186.4621"/>
</g>
<!-- Node45&#45;&gt;Node5 -->
<g id="edge54" class="edge">
<title>Node45&#45;&gt;Node5</title>
<path fill="none" stroke="#191970" d="M2571.3491,-238.697C2485.1165,-230.4479 2325.6444,-214.0803 2190.3916,-194 2183.0068,-192.9036 2175.2556,-191.6316 2167.6142,-190.3054"/>
<polygon fill="#191970" stroke="#191970" points="2168.1298,-186.8423 2157.6721,-188.541 2166.9066,-193.7346 2168.1298,-186.8423"/>
</g>
<!-- Node45&#45;&gt;Node6 -->
<g id="edge55" class="edge">
<title>Node45&#45;&gt;Node6</title>
<path fill="none" stroke="#191970" d="M2583.3354,-235.474C2528.5878,-225.7837 2438.8164,-209.8602 2351.564,-194.2073"/>
<polygon fill="#191970" stroke="#191970" points="2351.9504,-190.7208 2341.4894,-192.3991 2350.7138,-197.6107 2351.9504,-190.7208"/>
</g>
<!-- Node45&#45;&gt;Node35 -->
<g id="edge46" class="edge">
<title>Node45&#45;&gt;Node35</title>
<path fill="none" stroke="#191970" d="M2669.5226,-235.4909C2703.1297,-226.4517 2754.976,-211.4002 2798.3916,-194 2825.1435,-183.2783 2830.2885,-177.2166 2856.3916,-165 2975.2574,-109.369 3119.1082,-48.4657 3181.283,-22.4476"/>
<polygon fill="#191970" stroke="#191970" points="3182.6668,-25.6627 3190.544,-18.5775 3179.9677,-19.204 3182.6668,-25.6627"/>
</g>
<!-- Node45&#45;&gt;Node41 -->
<g id="edge44" class="edge">
<title>Node45&#45;&gt;Node41</title>
<path fill="none" stroke="#191970" d="M2571.155,-241.8052C2411.8937,-234.8131 1996.2892,-215.2425 1837.1997,-193.9057"/>
<polygon fill="#191970" stroke="#191970" points="1837.4846,-190.4116 1827.0972,-192.4978 1836.5184,-197.3446 1837.4846,-190.4116"/>
</g>
<!-- Node45&#45;&gt;Node42 -->
<g id="edge45" class="edge">
<title>Node45&#45;&gt;Node42</title>
<path fill="none" stroke="#191970" d="M2685.1536,-235.4508C2739.5914,-223.6877 2813.9769,-200.3709 2780.3916,-165 2753.2637,-136.4299 2198.6493,-124.3464 1985.1547,-120.7413"/>
<polygon fill="#191970" stroke="#191970" points="1985.0007,-117.2383 1974.9437,-120.571 1984.8839,-124.2374 1985.0007,-117.2383"/>
</g>
<!-- Node46 -->
<g id="node44" class="node">
<title>Node46</title>
<polygon fill="#ffffff" stroke="#bfbfbf" points="2865.8818,-170.5 2865.8818,-188.5 2916.9014,-188.5 2916.9014,-170.5 2865.8818,-170.5"/>
<text text-anchor="middle" x="2891.3916" y="-176.5" font-family="Helvetica,sans-Serif" font-size="10.00" fill="#000000">Ifpack.h</text>
</g>
<!-- Node45&#45;&gt;Node46 -->
<g id="edge47" class="edge">
<title>Node45&#45;&gt;Node46</title>
<path fill="none" stroke="#191970" d="M2680.5273,-235.4285C2724.7428,-226.3441 2793.1682,-211.261 2851.3916,-194 2853.6623,-193.3268 2855.9916,-192.5948 2858.3293,-191.8293"/>
<polygon fill="#191970" stroke="#191970" points="2859.5356,-195.1157 2867.8574,-188.5583 2857.2627,-188.495 2859.5356,-195.1157"/>
</g>
<!-- Node47 -->
<g id="node45" class="node">
<title>Node47</title>
<polygon fill="#ffffff" stroke="#bfbfbf" points="2935.1406,-170.5 2935.1406,-188.5 3065.6426,-188.5 3065.6426,-170.5 2935.1406,-170.5"/>
<text text-anchor="middle" x="3000.3916" y="-176.5" font-family="Helvetica,sans-Serif" font-size="10.00" fill="#000000">Ifpack_AdditiveSchwarz.h</text>
</g>
<!-- Node45&#45;&gt;Node47 -->
<g id="edge48" class="edge">
<title>Node45&#45;&gt;Node47</title>
<path fill="none" stroke="#191970" d="M2688.811,-235.4603C2747.5055,-225.6236 2843.6707,-209.2555 2926.3916,-194 2932.4748,-192.8781 2938.8333,-191.6764 2945.1583,-190.4626"/>
<polygon fill="#191970" stroke="#191970" points="2945.8718,-193.8895 2955.0256,-188.5548 2944.543,-187.0168 2945.8718,-193.8895"/>
</g>
<!-- Node48 -->
<g id="node46" class="node">
<title>Node48</title>
<polygon fill="#ffffff" stroke="#bfbfbf" points="3083.6357,-170.5 3083.6357,-188.5 3209.1475,-188.5 3209.1475,-170.5 3083.6357,-170.5"/>
<text text-anchor="middle" x="3146.3916" y="-176.5" font-family="Helvetica,sans-Serif" font-size="10.00" fill="#000000">BelosLinearProblem.hpp</text>
</g>
<!-- Node45&#45;&gt;Node48 -->
<g id="edge49" class="edge">
<title>Node45&#45;&gt;Node48</title>
<path fill="none" stroke="#191970" d="M2697.6455,-238.933C2783.3255,-231.0066 2940.9083,-215.0626 3074.3916,-194 3080.9922,-192.9585 3087.9077,-191.7357 3094.7325,-190.4496"/>
<polygon fill="#191970" stroke="#191970" points="3095.4681,-193.8722 3104.6195,-188.5336 3094.1363,-187.0001 3095.4681,-193.8722"/>
</g>
<!-- Node49 -->
<g id="node47" class="node">
<title>Node49</title>
<polygon fill="#ffffff" stroke="#bfbfbf" points="3227.3623,-170.5 3227.3623,-188.5 3373.4209,-188.5 3373.4209,-170.5 3227.3623,-170.5"/>
<text text-anchor="middle" x="3300.3916" y="-176.5" font-family="Helvetica,sans-Serif" font-size="10.00" fill="#000000">BelosBlockGmresSolMgr.hpp</text>
</g>
<!-- Node45&#45;&gt;Node49 -->
<g id="edge50" class="edge">
<title>Node45&#45;&gt;Node49</title>
<path fill="none" stroke="#191970" d="M2697.6773,-240.8745C2805.0662,-234.3097 3029.7085,-218.7906 3218.3916,-194 3226.6335,-192.9171 3235.3099,-191.5892 3243.8097,-190.1809"/>
<polygon fill="#191970" stroke="#191970" points="3244.4001,-193.6308 3253.67,-188.5006 3243.2242,-186.7303 3244.4001,-193.6308"/>
</g>
<!-- Node50 -->
<g id="node48" class="node">
<title>Node50</title>
<polygon fill="#ffffff" stroke="#bfbfbf" points="2359.1826,-170.5 2359.1826,-188.5 2483.6006,-188.5 2483.6006,-170.5 2359.1826,-170.5"/>
<text text-anchor="middle" x="2421.3916" y="-176.5" font-family="Helvetica,sans-Serif" font-size="10.00" fill="#000000">BelosEpetraAdapter.hpp</text>
</g>
<!-- Node45&#45;&gt;Node50 -->
<g id="edge51" class="edge">
<title>Node45&#45;&gt;Node50</title>
<path fill="none" stroke="#191970" d="M2604.7749,-235.462C2567.286,-224.0218 2502.582,-204.2764 2460.9095,-191.5594"/>
<polygon fill="#191970" stroke="#191970" points="2461.6855,-188.137 2451.0994,-188.5658 2459.6423,-194.8322 2461.6855,-188.137"/>
</g>
<!-- Node51 -->
<g id="node49" class="node">
<title>Node51</title>
<polygon fill="#ffffff" stroke="#bfbfbf" points="2501.6792,-170.5 2501.6792,-188.5 2623.104,-188.5 2623.104,-170.5 2501.6792,-170.5"/>
<text text-anchor="middle" x="2562.3916" y="-176.5" font-family="Helvetica,sans-Serif" font-size="10.00" fill="#000000">BelosSolverFactory.hpp</text>
</g>
<!-- Node45&#45;&gt;Node51 -->
<g id="edge52" class="edge">
<title>Node45&#45;&gt;Node51</title>
<path fill="none" stroke="#191970" d="M2624.3803,-235.462C2613.0105,-225.1976 2594.2352,-208.2477 2580.3217,-195.6869"/>
<polygon fill="#191970" stroke="#191970" points="2582.5522,-192.9853 2572.7841,-188.8821 2577.8615,-198.1812 2582.5522,-192.9853"/>
</g>
<!-- Node52 -->
<g id="node50" class="node">
<title>Node52</title>
<polygon fill="#ffffff" stroke="#bfbfbf" points="2641.1431,-165.5 2641.1431,-193.5 2771.6401,-193.5 2771.6401,-165.5 2641.1431,-165.5"/>
<text text-anchor="start" x="2649.1431" y="-181.5" font-family="Helvetica,sans-Serif" font-size="10.00" fill="#000000">Stratimikos_DefaultLinear</text>
<text text-anchor="middle" x="2706.3916" y="-171.5" font-family="Helvetica,sans-Serif" font-size="10.00" fill="#000000">SolverBuilder.hpp</text>
</g>
<!-- Node45&#45;&gt;Node52 -->
<g id="edge56" class="edge">
<title>Node45&#45;&gt;Node52</title>
<path fill="none" stroke="#191970" d="M2644.4029,-235.462C2654.3225,-226.5068 2669.8789,-212.4628 2682.9258,-200.6844"/>
<polygon fill="#191970" stroke="#191970" points="2685.5747,-203.0083 2690.6521,-193.7093 2680.884,-197.8124 2685.5747,-203.0083"/>
</g>
</g>
</svg>
