<?xml version="1.0" encoding="UTF-8" standalone="no"?>
<!DOCTYPE svg PUBLIC "-//W3C//DTD SVG 1.1//EN"
 "http://www.w3.org/Graphics/SVG/1.1/DTD/svg11.dtd">
<!-- Generated by graphviz version 2.40.1 (20161225.0304)
 -->
<!-- Title: arteries/deterministic_neumann/main.cpp Pages: 1 -->
<svg width="3252pt" height="452pt"
 viewBox="0.00 0.00 3252.10 452.00" xmlns="http://www.w3.org/2000/svg" xmlns:xlink="http://www.w3.org/1999/xlink">
<g id="graph0" class="graph" transform="scale(1 1) rotate(0) translate(4 448)">
<title>arteries/deterministic_neumann/main.cpp</title>
<polygon fill="#ffffff" stroke="transparent" points="-4,4 -4,-448 3248.104,-448 3248.104,4 -4,4"/>
<!-- Node0 -->
<g id="node1" class="node">
<title>Node0</title>
<polygon fill="#bfbfbf" stroke="#000000" points="1708.2661,-415.5 1708.2661,-443.5 1816.5171,-443.5 1816.5171,-415.5 1708.2661,-415.5"/>
<text text-anchor="start" x="1716.2661" y="-431.5" font-family="Helvetica,sans-Serif" font-size="10.00" fill="#000000">arteries/deterministic</text>
<text text-anchor="middle" x="1762.3916" y="-421.5" font-family="Helvetica,sans-Serif" font-size="10.00" fill="#000000">_neumann/main.cpp</text>
</g>
<!-- Node1 -->
<g id="node2" class="node">
<title>Node1</title>
<polygon fill="#ffffff" stroke="#bfbfbf" points="1195.9756,-355.5 1195.9756,-373.5 1304.8076,-373.5 1304.8076,-355.5 1195.9756,-355.5"/>
<text text-anchor="middle" x="1250.3916" y="-361.5" font-family="Helvetica,sans-Serif" font-size="10.00" fill="#000000">Epetra_ConfigDefs.h</text>
</g>
<!-- Node0&#45;&gt;Node1 -->
<g id="edge1" class="edge">
<title>Node0&#45;&gt;Node1</title>
<path fill="none" stroke="#191970" d="M1707.9864,-425.3206C1623.4056,-418.3841 1455.4282,-402.8507 1314.3916,-379 1308.8452,-378.062 1303.0575,-376.9465 1297.328,-375.7568"/>
<polygon fill="#191970" stroke="#191970" points="1297.6557,-372.247 1287.1422,-373.5575 1296.1782,-379.0893 1297.6557,-372.247"/>
</g>
<!-- Node2 -->
<g id="node3" class="node">
<title>Node2</title>
<polygon fill="#ffffff" stroke="#bfbfbf" points="1323.2046,-355.5 1323.2046,-373.5 1437.5786,-373.5 1437.5786,-355.5 1323.2046,-355.5"/>
<text text-anchor="middle" x="1380.3916" y="-361.5" font-family="Helvetica,sans-Serif" font-size="10.00" fill="#000000">Epetra_SerialComm.h</text>
</g>
<!-- Node0&#45;&gt;Node2 -->
<g id="edge2" class="edge">
<title>Node0&#45;&gt;Node2</title>
<path fill="none" stroke="#191970" d="M1707.9872,-421.7818C1644.8877,-412.6042 1537.8213,-396.3341 1446.3916,-379 1440.9887,-377.9757 1435.3515,-376.8403 1429.7471,-375.6689"/>
<polygon fill="#191970" stroke="#191970" points="1430.2621,-372.2001 1419.7521,-373.5377 1428.8023,-379.0462 1430.2621,-372.2001"/>
</g>
<!-- Node3 -->
<g id="node4" class="node">
<title>Node3</title>
<polygon fill="#ffffff" stroke="#bfbfbf" points="1455.5054,-355.5 1455.5054,-373.5 1643.2778,-373.5 1643.2778,-355.5 1455.5054,-355.5"/>
<text text-anchor="middle" x="1549.3916" y="-361.5" font-family="Helvetica,sans-Serif" font-size="10.00" fill="#000000">Teuchos_CommandLineProcessor.hpp</text>
</g>
<!-- Node0&#45;&gt;Node3 -->
<g id="edge3" class="edge">
<title>Node0&#45;&gt;Node3</title>
<path fill="none" stroke="#191970" d="M1716.436,-415.476C1678.3166,-403.8433 1624.701,-387.4817 1588.5843,-376.4602"/>
<polygon fill="#191970" stroke="#191970" points="1589.4752,-373.0728 1578.889,-373.5016 1587.432,-379.768 1589.4752,-373.0728"/>
</g>
<!-- Node4 -->
<g id="node5" class="node">
<title>Node4</title>
<polygon fill="#ffffff" stroke="#bfbfbf" points="1716.5103,-290.5 1716.5103,-308.5 1894.2729,-308.5 1894.2729,-290.5 1716.5103,-290.5"/>
<text text-anchor="middle" x="1805.3916" y="-296.5" font-family="Helvetica,sans-Serif" font-size="10.00" fill="#000000">Teuchos_StandardCatchMacros.hpp</text>
</g>
<!-- Node0&#45;&gt;Node4 -->
<g id="edge4" class="edge">
<title>Node0&#45;&gt;Node4</title>
<path fill="none" stroke="#191970" d="M1770.1479,-415.255C1775.3094,-405.3206 1781.9354,-391.6329 1786.3916,-379 1793.449,-358.993 1798.7433,-335.2411 1801.9269,-318.9413"/>
<polygon fill="#191970" stroke="#191970" points="1805.3909,-319.4581 1803.7895,-308.985 1798.5102,-318.1709 1805.3909,-319.4581"/>
</g>
<!-- Node5 -->
<g id="node6" class="node">
<title>Node5</title>
<polygon fill="#ffffff" stroke="#bfbfbf" points="1912.1333,-290.5 1912.1333,-308.5 2052.6499,-308.5 2052.6499,-290.5 1912.1333,-290.5"/>
<text text-anchor="middle" x="1982.3916" y="-296.5" font-family="Helvetica,sans-Serif" font-size="10.00" fill="#000000">Teuchos_ParameterList.hpp</text>
</g>
<!-- Node0&#45;&gt;Node5 -->
<g id="edge5" class="edge">
<title>Node0&#45;&gt;Node5</title>
<path fill="none" stroke="#191970" d="M1786.3543,-415.3402C1828.5966,-390.3789 1915.8442,-338.8235 1958.2285,-313.7782"/>
<polygon fill="#191970" stroke="#191970" points="1960.2076,-316.6741 1967.0364,-308.5736 1956.6465,-310.6477 1960.2076,-316.6741"/>
</g>
<!-- Node6 -->
<g id="node7" class="node">
<title>Node6</title>
<polygon fill="#ffffff" stroke="#bfbfbf" points="2070.584,-285.5 2070.584,-313.5 2212.1992,-313.5 2212.1992,-285.5 2070.584,-285.5"/>
<text text-anchor="start" x="2078.584" y="-301.5" font-family="Helvetica,sans-Serif" font-size="10.00" fill="#000000">Teuchos_XMLParameterList</text>
<text text-anchor="middle" x="2141.3916" y="-291.5" font-family="Helvetica,sans-Serif" font-size="10.00" fill="#000000">CoreHelpers.hpp</text>
</g>
<!-- Node0&#45;&gt;Node6 -->
<g id="edge6" class="edge">
<title>Node0&#45;&gt;Node6</title>
<path fill="none" stroke="#191970" d="M1803.3113,-415.4642C1873.0128,-391.5561 2014.5844,-342.9959 2090.5351,-316.9442"/>
<polygon fill="#191970" stroke="#191970" points="2092.0325,-320.1308 2100.3559,-313.5756 2089.7613,-313.5095 2092.0325,-320.1308"/>
</g>
<!-- Node7 -->
<g id="node8" class="node">
<title>Node7</title>
<g id="a_node8"><a xlink:href="../../da/ddf/_neumann_inner_surface___polyconvex_h_g_o_8hpp.html" target="_top" xlink:title="NeumannInnerSurface\l_PolyconvexHGO.hpp">
<polygon fill="#ffffff" stroke="#000000" points="1661.084,-350.5 1661.084,-378.5 1777.6992,-378.5 1777.6992,-350.5 1661.084,-350.5"/>
<text text-anchor="start" x="1669.084" y="-366.5" font-family="Helvetica,sans-Serif" font-size="10.00" fill="#000000">NeumannInnerSurface</text>
<text text-anchor="middle" x="1719.3916" y="-356.5" font-family="Helvetica,sans-Serif" font-size="10.00" fill="#000000">_PolyconvexHGO.hpp</text>
</a>
</g>
</g>
<!-- Node0&#45;&gt;Node7 -->
<g id="edge7" class="edge">
<title>Node0&#45;&gt;Node7</title>
<path fill="none" stroke="#191970" d="M1753.0612,-415.396C1747.5955,-407.1338 1740.5651,-396.5065 1734.3435,-387.1017"/>
<polygon fill="#191970" stroke="#191970" points="1737.1402,-384.9856 1728.7038,-378.5765 1731.3021,-388.8478 1737.1402,-384.9856"/>
</g>
<!-- Node47 -->
<g id="node43" class="node">
<title>Node47</title>
<g id="a_node43"><a xlink:href="../../d7/d17/_newton___raphsonpp_8hpp.html" target="_top" xlink:title="Newton_Raphsonpp.hpp">
<polygon fill="#ffffff" stroke="#000000" points="2379.3501,-355.5 2379.3501,-373.5 2505.4331,-373.5 2505.4331,-355.5 2379.3501,-355.5"/>
<text text-anchor="middle" x="2442.3916" y="-361.5" font-family="Helvetica,sans-Serif" font-size="10.00" fill="#000000">Newton_Raphsonpp.hpp</text>
</a>
</g>
</g>
<!-- Node0&#45;&gt;Node47 -->
<g id="edge45" class="edge">
<title>Node0&#45;&gt;Node47</title>
<path fill="none" stroke="#191970" d="M1816.6036,-424.318C1938.0077,-412.7132 2231.8261,-384.6276 2369.2479,-371.4917"/>
<polygon fill="#191970" stroke="#191970" points="2369.6443,-374.9698 2379.2659,-370.5341 2368.9782,-368.0016 2369.6443,-374.9698"/>
</g>
<!-- Node8 -->
<g id="node9" class="node">
<title>Node8</title>
<g id="a_node9"><a xlink:href="../../de/d49/tensor__calculus_8hpp.html" target="_top" xlink:title="tensor_calculus.hpp">
<polygon fill="#ffffff" stroke="#000000" points="1635.9189,-165.5 1635.9189,-183.5 1740.8643,-183.5 1740.8643,-165.5 1635.9189,-165.5"/>
<text text-anchor="middle" x="1688.3916" y="-171.5" font-family="Helvetica,sans-Serif" font-size="10.00" fill="#000000">tensor_calculus.hpp</text>
</a>
</g>
</g>
<!-- Node7&#45;&gt;Node8 -->
<g id="edge8" class="edge">
<title>Node7&#45;&gt;Node8</title>
<path fill="none" stroke="#191970" d="M1715.6572,-350.4298C1713.0761,-340.3428 1709.704,-326.4024 1707.3916,-314 1699.4339,-271.3198 1693.372,-220.708 1690.4061,-193.7185"/>
<polygon fill="#191970" stroke="#191970" points="1693.8769,-193.2585 1689.3281,-183.6899 1686.917,-194.0067 1693.8769,-193.2585"/>
</g>
<!-- Node41 -->
<g id="node37" class="node">
<title>Node41</title>
<g id="a_node37"><a xlink:href="../../d5/d3f/laplacepp_8hpp.html" target="_top" xlink:title="laplacepp.hpp">
<polygon fill="#ffffff" stroke="#000000" points="1370.2539,-290.5 1370.2539,-308.5 1448.5293,-308.5 1448.5293,-290.5 1370.2539,-290.5"/>
<text text-anchor="middle" x="1409.3916" y="-296.5" font-family="Helvetica,sans-Serif" font-size="10.00" fill="#000000">laplacepp.hpp</text>
</a>
</g>
</g>
<!-- Node7&#45;&gt;Node41 -->
<g id="edge36" class="edge">
<title>Node7&#45;&gt;Node41</title>
<path fill="none" stroke="#191970" d="M1660.948,-351.7417C1658.0565,-351.145 1655.1922,-350.5614 1652.3916,-350 1565.9796,-332.6772 1543.0393,-334.7746 1457.3916,-314 1454.0327,-313.1853 1450.5612,-312.2745 1447.0927,-311.3171"/>
<polygon fill="#191970" stroke="#191970" points="1447.9997,-307.9361 1437.4219,-308.5362 1446.0652,-314.6635 1447.9997,-307.9361"/>
</g>
<!-- Node44 -->
<g id="node40" class="node">
<title>Node44</title>
<g id="a_node40"><a xlink:href="../../dc/de0/nearly_incompressible_hyperelasticity_8hpp.html" target="_top" xlink:title="nearlyIncompressibleHyperelasticity.hpp">
<polygon fill="#ffffff" stroke="#000000" points="1466.2754,-290.5 1466.2754,-308.5 1660.5078,-308.5 1660.5078,-290.5 1466.2754,-290.5"/>
<text text-anchor="middle" x="1563.3916" y="-296.5" font-family="Helvetica,sans-Serif" font-size="10.00" fill="#000000">nearlyIncompressibleHyperelasticity.hpp</text>
</a>
</g>
</g>
<!-- Node7&#45;&gt;Node44 -->
<g id="edge40" class="edge">
<title>Node7&#45;&gt;Node44</title>
<path fill="none" stroke="#191970" d="M1685.5419,-350.396C1658.5256,-339.1392 1620.9727,-323.4921 1594.6591,-312.5281"/>
<polygon fill="#191970" stroke="#191970" points="1595.7469,-309.1897 1585.1699,-308.5743 1593.0545,-315.6513 1595.7469,-309.1897"/>
</g>
<!-- Node9 -->
<g id="node10" class="node">
<title>Node9</title>
<g id="a_node10"><a xlink:href="../../d0/d02/meshpp_8hpp.html" target="_top" xlink:title="meshpp.hpp">
<polygon fill="#ffffff" stroke="#ff0000" points="1469.8721,-55.5 1469.8721,-73.5 1540.9111,-73.5 1540.9111,-55.5 1469.8721,-55.5"/>
<text text-anchor="middle" x="1505.3916" y="-61.5" font-family="Helvetica,sans-Serif" font-size="10.00" fill="#000000">meshpp.hpp</text>
</a>
</g>
</g>
<!-- Node8&#45;&gt;Node9 -->
<g id="edge9" class="edge">
<title>Node8&#45;&gt;Node9</title>
<path fill="none" stroke="#191970" d="M1673.4159,-165.4982C1641.781,-146.4827 1567.9123,-102.0807 1529.5226,-79.005"/>
<polygon fill="#191970" stroke="#191970" points="1530.9482,-75.7783 1520.5742,-73.6261 1527.3418,-81.7778 1530.9482,-75.7783"/>
</g>
<!-- Node10 -->
<g id="node11" class="node">
<title>Node10</title>
<polygon fill="#ffffff" stroke="#bfbfbf" points="2731.6602,-.5 2731.6602,-18.5 2777.123,-18.5 2777.123,-.5 2731.6602,-.5"/>
<text text-anchor="middle" x="2754.3916" y="-6.5" font-family="Helvetica,sans-Serif" font-size="10.00" fill="#000000">stdio.h</text>
</g>
<!-- Node9&#45;&gt;Node10 -->
<g id="edge10" class="edge">
<title>Node9&#45;&gt;Node10</title>
<path fill="none" stroke="#191970" d="M1541.0257,-64.3731C1713.8002,-63.5764 2466.045,-57.9811 2721.5106,-18.6465"/>
<polygon fill="#191970" stroke="#191970" points="2722.1592,-22.0873 2731.4809,-17.0518 2721.0536,-15.1752 2722.1592,-22.0873"/>
</g>
<!-- Node11 -->
<g id="node12" class="node">
<title>Node11</title>
<polygon fill="#ffffff" stroke="#bfbfbf" points="2795.2192,-.5 2795.2192,-18.5 2849.564,-18.5 2849.564,-.5 2795.2192,-.5"/>
<text text-anchor="middle" x="2822.3916" y="-6.5" font-family="Helvetica,sans-Serif" font-size="10.00" fill="#000000">iostream</text>
</g>
<!-- Node9&#45;&gt;Node11 -->
<g id="edge11" class="edge">
<title>Node9&#45;&gt;Node11</title>
<path fill="none" stroke="#191970" d="M1541.0651,-64.3044C1719.3804,-63.1658 2515.8066,-56.1365 2784.889,-18.8522"/>
<polygon fill="#191970" stroke="#191970" points="2785.6044,-22.2855 2795.005,-17.3989 2784.6089,-15.3566 2785.6044,-22.2855"/>
</g>
<!-- Node12 -->
<g id="node13" class="node">
<title>Node12</title>
<polygon fill="#ffffff" stroke="#bfbfbf" points="0,-.5 0,-18.5 48.7832,-18.5 48.7832,-.5 0,-.5"/>
<text text-anchor="middle" x="24.3916" y="-6.5" font-family="Helvetica,sans-Serif" font-size="10.00" fill="#000000">istream</text>
</g>
<!-- Node9&#45;&gt;Node12 -->
<g id="edge12" class="edge">
<title>Node9&#45;&gt;Node12</title>
<path fill="none" stroke="#191970" d="M1469.7546,-63.911C1265.0407,-60.4582 241.7406,-42.2414 59.0149,-18.7413"/>
<polygon fill="#191970" stroke="#191970" points="59.5024,-15.2755 49.1089,-17.3307 58.5155,-22.2056 59.5024,-15.2755"/>
</g>
<!-- Node13 -->
<g id="node14" class="node">
<title>Node13</title>
<polygon fill="#ffffff" stroke="#bfbfbf" points="66.7217,-.5 66.7217,-18.5 116.0615,-18.5 116.0615,-.5 66.7217,-.5"/>
<text text-anchor="middle" x="91.3916" y="-6.5" font-family="Helvetica,sans-Serif" font-size="10.00" fill="#000000">fstream</text>
</g>
<!-- Node9&#45;&gt;Node13 -->
<g id="edge13" class="edge">
<title>Node9&#45;&gt;Node13</title>
<path fill="none" stroke="#191970" d="M1469.7664,-63.8531C1270.9585,-60.1744 301.5688,-41.3114 126.0742,-18.7485"/>
<polygon fill="#191970" stroke="#191970" points="126.5037,-15.2744 116.1095,-17.3265 125.5148,-22.2042 126.5037,-15.2744"/>
</g>
<!-- Node14 -->
<g id="node15" class="node">
<title>Node14</title>
<polygon fill="#ffffff" stroke="#bfbfbf" points="133.7759,-.5 133.7759,-18.5 177.0073,-18.5 177.0073,-.5 133.7759,-.5"/>
<text text-anchor="middle" x="155.3916" y="-6.5" font-family="Helvetica,sans-Serif" font-size="10.00" fill="#000000">vector</text>
</g>
<!-- Node9&#45;&gt;Node14 -->
<g id="edge14" class="edge">
<title>Node9&#45;&gt;Node14</title>
<path fill="none" stroke="#191970" d="M1469.732,-63.8502C1276.3007,-60.2495 355.7483,-42.1223 187.1764,-18.7038"/>
<polygon fill="#191970" stroke="#191970" points="187.5942,-15.2268 177.1761,-17.1537 186.5219,-22.1442 187.5942,-15.2268"/>
</g>
<!-- Node15 -->
<g id="node16" class="node">
<title>Node15</title>
<polygon fill="#ffffff" stroke="#bfbfbf" points="194.8818,-.5 194.8818,-18.5 245.9014,-18.5 245.9014,-.5 194.8818,-.5"/>
<text text-anchor="middle" x="220.3916" y="-6.5" font-family="Helvetica,sans-Serif" font-size="10.00" fill="#000000">iomanip</text>
</g>
<!-- Node9&#45;&gt;Node15 -->
<g id="edge15" class="edge">
<title>Node9&#45;&gt;Node15</title>
<path fill="none" stroke="#191970" d="M1469.6981,-64.3015C1294.0358,-63.159 519.6024,-56.1539 256.5121,-18.7405"/>
<polygon fill="#191970" stroke="#191970" points="256.6481,-15.2227 246.2441,-17.2246 255.6257,-22.1476 256.6481,-15.2227"/>
</g>
<!-- Node16 -->
<g id="node17" class="node">
<title>Node16</title>
<polygon fill="#ffffff" stroke="#bfbfbf" points="263.9312,-.5 263.9312,-18.5 368.8521,-18.5 368.8521,-.5 263.9312,-.5"/>
<text text-anchor="middle" x="316.3916" y="-6.5" font-family="Helvetica,sans-Serif" font-size="10.00" fill="#000000">Epetra_MpiComm.h</text>
</g>
<!-- Node9&#45;&gt;Node16 -->
<g id="edge16" class="edge">
<title>Node9&#45;&gt;Node16</title>
<path fill="none" stroke="#191970" d="M1469.708,-63.6104C1305.0407,-59.4221 616.8381,-40.9876 378.8875,-19.0185"/>
<polygon fill="#191970" stroke="#191970" points="379.2023,-15.5327 368.9157,-18.0697 378.5391,-22.5012 379.2023,-15.5327"/>
</g>
<!-- Node17 -->
<g id="node18" class="node">
<title>Node17</title>
<polygon fill="#ffffff" stroke="#bfbfbf" points="386.6479,-.5 386.6479,-18.5 502.1353,-18.5 502.1353,-.5 386.6479,-.5"/>
<text text-anchor="middle" x="444.3916" y="-6.5" font-family="Helvetica,sans-Serif" font-size="10.00" fill="#000000">Epetra_FECrsGraph.h</text>
</g>
<!-- Node9&#45;&gt;Node17 -->
<g id="edge17" class="edge">
<title>Node9&#45;&gt;Node17</title>
<path fill="none" stroke="#191970" d="M1469.647,-64.0914C1341.5064,-62.3681 893.0374,-54.1107 512.5611,-19.0174"/>
<polygon fill="#191970" stroke="#191970" points="512.7376,-15.5188 502.4564,-18.0775 512.0893,-22.4887 512.7376,-15.5188"/>
</g>
<!-- Node18 -->
<g id="node19" class="node">
<title>Node18</title>
<polygon fill="#ffffff" stroke="#bfbfbf" points="519.9336,-.5 519.9336,-18.5 634.8496,-18.5 634.8496,-.5 519.9336,-.5"/>
<text text-anchor="middle" x="577.3916" y="-6.5" font-family="Helvetica,sans-Serif" font-size="10.00" fill="#000000">Epetra_FECrsMatrix.h</text>
</g>
<!-- Node9&#45;&gt;Node18 -->
<g id="edge18" class="edge">
<title>Node9&#45;&gt;Node18</title>
<path fill="none" stroke="#191970" d="M1469.5863,-63.767C1352.5956,-61.1275 970.8711,-50.5854 645.0555,-19.0823"/>
<polygon fill="#191970" stroke="#191970" points="645.24,-15.5838 634.9474,-18.0964 644.5604,-22.5507 645.24,-15.5838"/>
</g>
<!-- Node19 -->
<g id="node20" class="node">
<title>Node19</title>
<polygon fill="#ffffff" stroke="#bfbfbf" points="652.4165,-.5 652.4165,-18.5 752.3667,-18.5 752.3667,-.5 652.4165,-.5"/>
<text text-anchor="middle" x="702.3916" y="-6.5" font-family="Helvetica,sans-Serif" font-size="10.00" fill="#000000">Epetra_FEVector.h</text>
</g>
<!-- Node9&#45;&gt;Node19 -->
<g id="edge19" class="edge">
<title>Node9&#45;&gt;Node19</title>
<path fill="none" stroke="#191970" d="M1469.664,-63.5643C1363.5399,-60.5202 1040.7913,-49.3509 762.8414,-19.0545"/>
<polygon fill="#191970" stroke="#191970" points="762.8807,-15.5378 752.5578,-17.9225 762.1148,-22.4958 762.8807,-15.5378"/>
</g>
<!-- Node20 -->
<g id="node21" class="node">
<title>Node20</title>
<polygon fill="#ffffff" stroke="#bfbfbf" points="770.8057,-.5 770.8057,-18.5 857.9775,-18.5 857.9775,-.5 770.8057,-.5"/>
<text text-anchor="middle" x="814.3916" y="-6.5" font-family="Helvetica,sans-Serif" font-size="10.00" fill="#000000">Epetra_Vector.h</text>
</g>
<!-- Node9&#45;&gt;Node20 -->
<g id="edge20" class="edge">
<title>Node9&#45;&gt;Node20</title>
<path fill="none" stroke="#191970" d="M1469.639,-63.282C1373.8901,-59.737 1103.5596,-47.8707 868.1309,-18.9533"/>
<polygon fill="#191970" stroke="#191970" points="868.3634,-15.4554 858.0083,-17.6966 867.5009,-22.402 868.3634,-15.4554"/>
</g>
<!-- Node21 -->
<g id="node22" class="node">
<title>Node21</title>
<polygon fill="#ffffff" stroke="#bfbfbf" points="875.9829,-.5 875.9829,-18.5 954.8003,-18.5 954.8003,-.5 875.9829,-.5"/>
<text text-anchor="middle" x="915.3916" y="-6.5" font-family="Helvetica,sans-Serif" font-size="10.00" fill="#000000">Epetra_Map.h</text>
</g>
<!-- Node9&#45;&gt;Node21 -->
<g id="edge21" class="edge">
<title>Node9&#45;&gt;Node21</title>
<path fill="none" stroke="#191970" d="M1469.7261,-62.8859C1384.2859,-58.7248 1161.0222,-46.1089 965.0798,-19.1012"/>
<polygon fill="#191970" stroke="#191970" points="965.2725,-15.5942 954.8849,-17.6793 964.3056,-22.5271 965.2725,-15.5942"/>
</g>
<!-- Node22 -->
<g id="node23" class="node">
<title>Node22</title>
<polygon fill="#ffffff" stroke="#bfbfbf" points="972.8623,-.5 972.8623,-18.5 1113.9209,-18.5 1113.9209,-.5 972.8623,-.5"/>
<text text-anchor="middle" x="1043.3916" y="-6.5" font-family="Helvetica,sans-Serif" font-size="10.00" fill="#000000">Epetra_SerialDenseMatrix.h</text>
</g>
<!-- Node9&#45;&gt;Node22 -->
<g id="edge22" class="edge">
<title>Node9&#45;&gt;Node22</title>
<path fill="none" stroke="#191970" d="M1469.7478,-60.2828C1403.7046,-52.4653 1257.5774,-35.1506 1124.0274,-19.1943"/>
<polygon fill="#191970" stroke="#191970" points="1124.3709,-15.7105 1114.0262,-17.9991 1123.5402,-22.6611 1124.3709,-15.7105"/>
</g>
<!-- Node23 -->
<g id="node24" class="node">
<title>Node23</title>
<polygon fill="#ffffff" stroke="#bfbfbf" points="1131.5693,-.5 1131.5693,-18.5 1273.2139,-18.5 1273.2139,-.5 1131.5693,-.5"/>
<text text-anchor="middle" x="1202.3916" y="-6.5" font-family="Helvetica,sans-Serif" font-size="10.00" fill="#000000">Epetra_SerialDenseVector.h</text>
</g>
<!-- Node9&#45;&gt;Node23 -->
<g id="edge23" class="edge">
<title>Node9&#45;&gt;Node23</title>
<path fill="none" stroke="#191970" d="M1469.7427,-58.0291C1418.6922,-48.7625 1324.1092,-31.5939 1262.2249,-20.3608"/>
<polygon fill="#191970" stroke="#191970" points="1262.6711,-16.8847 1252.2068,-18.5424 1261.4209,-23.7722 1262.6711,-16.8847"/>
</g>
<!-- Node24 -->
<g id="node25" class="node">
<title>Node24</title>
<polygon fill="#ffffff" stroke="#bfbfbf" points="1291.0103,-.5 1291.0103,-18.5 1443.7729,-18.5 1443.7729,-.5 1291.0103,-.5"/>
<text text-anchor="middle" x="1367.3916" y="-6.5" font-family="Helvetica,sans-Serif" font-size="10.00" fill="#000000">Epetra_IntSerialDenseVector.h</text>
</g>
<!-- Node9&#45;&gt;Node24 -->
<g id="edge24" class="edge">
<title>Node9&#45;&gt;Node24</title>
<path fill="none" stroke="#191970" d="M1482.6037,-55.4179C1460.0309,-46.4215 1425.2464,-32.5581 1399.8019,-22.4172"/>
<polygon fill="#191970" stroke="#191970" points="1400.7986,-19.0467 1390.2133,-18.5956 1398.2069,-25.5493 1400.7986,-19.0467"/>
</g>
<!-- Node25 -->
<g id="node26" class="node">
<title>Node25</title>
<polygon fill="#ffffff" stroke="#bfbfbf" points="1461.5396,-.5 1461.5396,-18.5 1549.2437,-18.5 1549.2437,-.5 1461.5396,-.5"/>
<text text-anchor="middle" x="1505.3916" y="-6.5" font-family="Helvetica,sans-Serif" font-size="10.00" fill="#000000">Epetra_Import.h</text>
</g>
<!-- Node9&#45;&gt;Node25 -->
<g id="edge25" class="edge">
<title>Node9&#45;&gt;Node25</title>
<path fill="none" stroke="#191970" d="M1505.3916,-55.4179C1505.3916,-48.2164 1505.3916,-37.8962 1505.3916,-28.8632"/>
<polygon fill="#191970" stroke="#191970" points="1508.8917,-28.7794 1505.3916,-18.7795 1501.8917,-28.7795 1508.8917,-28.7794"/>
</g>
<!-- Node26 -->
<g id="node27" class="node">
<title>Node26</title>
<polygon fill="#ffffff" stroke="#bfbfbf" points="1567.2588,-.5 1567.2588,-18.5 1655.5244,-18.5 1655.5244,-.5 1567.2588,-.5"/>
<text text-anchor="middle" x="1611.3916" y="-6.5" font-family="Helvetica,sans-Serif" font-size="10.00" fill="#000000">Epetra_Export.h</text>
</g>
<!-- Node9&#45;&gt;Node26 -->
<g id="edge26" class="edge">
<title>Node9&#45;&gt;Node26</title>
<path fill="none" stroke="#191970" d="M1522.8953,-55.4179C1539.7736,-46.6603 1565.5404,-33.2907 1584.9252,-23.2326"/>
<polygon fill="#191970" stroke="#191970" points="1586.5975,-26.308 1593.8619,-18.5956 1583.3736,-20.0946 1586.5975,-26.308"/>
</g>
<!-- Node27 -->
<g id="node28" class="node">
<title>Node27</title>
<polygon fill="#ffffff" stroke="#bfbfbf" points="1673.7817,-.5 1673.7817,-18.5 1755.0015,-18.5 1755.0015,-.5 1673.7817,-.5"/>
<text text-anchor="middle" x="1714.3916" y="-6.5" font-family="Helvetica,sans-Serif" font-size="10.00" fill="#000000">Epetra_Time.h</text>
</g>
<!-- Node9&#45;&gt;Node27 -->
<g id="edge27" class="edge">
<title>Node9&#45;&gt;Node27</title>
<path fill="none" stroke="#191970" d="M1539.9037,-55.4179C1575.5579,-46.0352 1631.3289,-31.3586 1670.1893,-21.1322"/>
<polygon fill="#191970" stroke="#191970" points="1671.3956,-24.434 1680.1756,-18.5042 1669.6141,-17.6645 1671.3956,-24.434"/>
</g>
<!-- Node28 -->
<g id="node29" class="node">
<title>Node28</title>
<polygon fill="#ffffff" stroke="#bfbfbf" points="1772.6875,-.5 1772.6875,-18.5 1922.0957,-18.5 1922.0957,-.5 1772.6875,-.5"/>
<text text-anchor="middle" x="1847.3916" y="-6.5" font-family="Helvetica,sans-Serif" font-size="10.00" fill="#000000">ml_MultiLevelPreconditioner.h</text>
</g>
<!-- Node9&#45;&gt;Node28 -->
<g id="edge28" class="edge">
<title>Node9&#45;&gt;Node28</title>
<path fill="none" stroke="#191970" d="M1541.0238,-58.7697C1597.6885,-49.6569 1709.248,-31.7161 1780.9671,-20.1823"/>
<polygon fill="#191970" stroke="#191970" points="1781.9309,-23.5724 1791.2483,-18.5289 1780.8194,-16.6612 1781.9309,-23.5724"/>
</g>
<!-- Node29 -->
<g id="node30" class="node">
<title>Node29</title>
<polygon fill="#ffffff" stroke="#bfbfbf" points="1940.3154,-.5 1940.3154,-18.5 2032.4678,-18.5 2032.4678,-.5 1940.3154,-.5"/>
<text text-anchor="middle" x="1986.3916" y="-6.5" font-family="Helvetica,sans-Serif" font-size="10.00" fill="#000000">ml_epetra_utils.h</text>
</g>
<!-- Node9&#45;&gt;Node29 -->
<g id="edge29" class="edge">
<title>Node9&#45;&gt;Node29</title>
<path fill="none" stroke="#191970" d="M1541.1121,-61.471C1612.7933,-55.2234 1779.4832,-39.8443 1929.8727,-19.1352"/>
<polygon fill="#191970" stroke="#191970" points="1930.7885,-22.5417 1940.212,-17.6993 1929.8256,-15.6083 1930.7885,-22.5417"/>
</g>
<!-- Node30 -->
<g id="node31" class="node">
<title>Node30</title>
<polygon fill="#ffffff" stroke="#bfbfbf" points="2050.3203,-.5 2050.3203,-18.5 2122.4629,-18.5 2122.4629,-.5 2050.3203,-.5"/>
<text text-anchor="middle" x="2086.3916" y="-6.5" font-family="Helvetica,sans-Serif" font-size="10.00" fill="#000000">ml_include.h</text>
</g>
<!-- Node9&#45;&gt;Node30 -->
<g id="edge30" class="edge">
<title>Node9&#45;&gt;Node30</title>
<path fill="none" stroke="#191970" d="M1541.0024,-62.9976C1625.781,-59.0966 1846.3563,-47.038 2040.0344,-19.0355"/>
<polygon fill="#191970" stroke="#191970" points="2040.724,-22.472 2050.1115,-17.5604 2039.71,-15.5458 2040.724,-22.472"/>
</g>
<!-- Node31 -->
<g id="node32" class="node">
<title>Node31</title>
<polygon fill="#ffffff" stroke="#bfbfbf" points="2140.813,-.5 2140.813,-18.5 2277.9702,-18.5 2277.9702,-.5 2140.813,-.5"/>
<text text-anchor="middle" x="2209.3916" y="-6.5" font-family="Helvetica,sans-Serif" font-size="10.00" fill="#000000">EpetraExt_RowMatrixOut.h</text>
</g>
<!-- Node9&#45;&gt;Node31 -->
<g id="edge31" class="edge">
<title>Node9&#45;&gt;Node31</title>
<path fill="none" stroke="#191970" d="M1541.0865,-62.5155C1635.4064,-57.1416 1899.2752,-41.2656 2130.2302,-19.0681"/>
<polygon fill="#191970" stroke="#191970" points="2130.8915,-22.5206 2140.508,-18.074 2130.2175,-15.5531 2130.8915,-22.5206"/>
</g>
<!-- Node32 -->
<g id="node33" class="node">
<title>Node32</title>
<polygon fill="#ffffff" stroke="#bfbfbf" points="2295.6924,-.5 2295.6924,-18.5 2435.0908,-18.5 2435.0908,-.5 2295.6924,-.5"/>
<text text-anchor="middle" x="2365.3916" y="-6.5" font-family="Helvetica,sans-Serif" font-size="10.00" fill="#000000">EpetraExt_MultiVectorOut.h</text>
</g>
<!-- Node9&#45;&gt;Node32 -->
<g id="edge32" class="edge">
<title>Node9&#45;&gt;Node32</title>
<path fill="none" stroke="#191970" d="M1540.9139,-63.232C1650.3326,-59.1571 1992.1109,-45.164 2285.6892,-19.1049"/>
<polygon fill="#191970" stroke="#191970" points="2286.025,-22.5889 2295.6736,-18.2123 2285.4016,-15.6167 2286.025,-22.5889"/>
</g>
<!-- Node33 -->
<g id="node34" class="node">
<title>Node33</title>
<polygon fill="#ffffff" stroke="#bfbfbf" points="2453.1382,-.5 2453.1382,-18.5 2563.645,-18.5 2563.645,-.5 2453.1382,-.5"/>
<text text-anchor="middle" x="2508.3916" y="-6.5" font-family="Helvetica,sans-Serif" font-size="10.00" fill="#000000">EpetraExt_VectorIn.h</text>
</g>
<!-- Node9&#45;&gt;Node33 -->
<g id="edge33" class="edge">
<title>Node9&#45;&gt;Node33</title>
<path fill="none" stroke="#191970" d="M1541.305,-64.0382C1665.1043,-62.1766 2085.6392,-53.6157 2442.9104,-19.0533"/>
<polygon fill="#191970" stroke="#191970" points="2443.3174,-22.5303 2452.9302,-18.0755 2442.6375,-15.5634 2443.3174,-22.5303"/>
</g>
<!-- Node34 -->
<g id="node35" class="node">
<title>Node34</title>
<polygon fill="#ffffff" stroke="#bfbfbf" points="2581.5815,-.5 2581.5815,-18.5 2713.2017,-18.5 2713.2017,-.5 2581.5815,-.5"/>
<text text-anchor="middle" x="2647.3916" y="-6.5" font-family="Helvetica,sans-Serif" font-size="10.00" fill="#000000">EpetraExt_MultiVectorIn.h</text>
</g>
<!-- Node9&#45;&gt;Node34 -->
<g id="edge34" class="edge">
<title>Node9&#45;&gt;Node34</title>
<path fill="none" stroke="#191970" d="M1540.9201,-64.0596C1674.6152,-62.1765 2160.3314,-53.2978 2571.569,-18.9929"/>
<polygon fill="#191970" stroke="#191970" points="2571.9026,-22.4773 2581.5743,-18.152 2571.3163,-15.5019 2571.9026,-22.4773"/>
</g>
<!-- Node35 -->
<g id="node36" class="node">
<title>Node35</title>
<polygon fill="#ffffff" stroke="#bfbfbf" points="2867.3442,-.5 2867.3442,-18.5 2965.439,-18.5 2965.439,-.5 2867.3442,-.5"/>
<text text-anchor="middle" x="2916.3916" y="-6.5" font-family="Helvetica,sans-Serif" font-size="10.00" fill="#000000">Teuchos_RCP.hpp</text>
</g>
<!-- Node9&#45;&gt;Node35 -->
<g id="edge35" class="edge">
<title>Node9&#45;&gt;Node35</title>
<path fill="none" stroke="#191970" d="M1541.1453,-63.9217C1725.5152,-60.8458 2570.8952,-45.576 2856.7484,-19.0089"/>
<polygon fill="#191970" stroke="#191970" points="2857.4666,-22.4563 2867.0874,-18.0188 2856.7993,-15.4881 2857.4666,-22.4563"/>
</g>
<!-- Node42 -->
<g id="node38" class="node">
<title>Node42</title>
<g id="a_node38"><a xlink:href="../../d9/dea/_linear___finite___element___problem_8hpp.html" target="_top" xlink:title="Linear_Finite_Element\l_Problem.hpp">
<polygon fill="#ffffff" stroke="#000000" points="1356.3623,-220.5 1356.3623,-248.5 1472.4209,-248.5 1472.4209,-220.5 1356.3623,-220.5"/>
<text text-anchor="start" x="1364.3623" y="-236.5" font-family="Helvetica,sans-Serif" font-size="10.00" fill="#000000">Linear_Finite_Element</text>
<text text-anchor="middle" x="1414.3916" y="-226.5" font-family="Helvetica,sans-Serif" font-size="10.00" fill="#000000">_Problem.hpp</text>
</a>
</g>
</g>
<!-- Node41&#45;&gt;Node42 -->
<g id="edge37" class="edge">
<title>Node41&#45;&gt;Node42</title>
<path fill="none" stroke="#191970" d="M1410.0868,-290.462C1410.7131,-282.3201 1411.663,-269.9715 1412.5113,-258.9438"/>
<polygon fill="#191970" stroke="#191970" points="1416.0022,-259.1949 1413.2796,-248.9559 1409.0229,-258.6579 1416.0022,-259.1949"/>
</g>
<!-- Node43 -->
<g id="node39" class="node">
<title>Node43</title>
<g id="a_node39"><a xlink:href="../../d0/d41/_base_class_f_e_m_8hpp.html" target="_top" xlink:title="BaseClassFEM.hpp">
<polygon fill="#ffffff" stroke="#000000" points="1413.207,-110.5 1413.207,-128.5 1517.5762,-128.5 1517.5762,-110.5 1413.207,-110.5"/>
<text text-anchor="middle" x="1465.3916" y="-116.5" font-family="Helvetica,sans-Serif" font-size="10.00" fill="#000000">BaseClassFEM.hpp</text>
</a>
</g>
</g>
<!-- Node42&#45;&gt;Node43 -->
<g id="edge38" class="edge">
<title>Node42&#45;&gt;Node43</title>
<path fill="none" stroke="#191970" d="M1420.6452,-220.3987C1429.8255,-199.6982 1446.9623,-161.0564 1457.1569,-138.0684"/>
<polygon fill="#191970" stroke="#191970" points="1460.4443,-139.289 1461.2989,-128.7286 1454.0453,-136.4511 1460.4443,-139.289"/>
</g>
<!-- Node43&#45;&gt;Node9 -->
<g id="edge39" class="edge">
<title>Node43&#45;&gt;Node9</title>
<path fill="none" stroke="#191970" d="M1471.9968,-110.4179C1477.5796,-102.7415 1485.7394,-91.5217 1492.5956,-82.0945"/>
<polygon fill="#191970" stroke="#191970" points="1495.5917,-83.9255 1498.6429,-73.7795 1489.9306,-79.8082 1495.5917,-83.9255"/>
</g>
<!-- Node45 -->
<g id="node41" class="node">
<title>Node45</title>
<g id="a_node41"><a xlink:href="../../d2/d34/hyperelasticity_8hpp.html" target="_top" xlink:title="hyperelasticity.hpp">
<polygon fill="#ffffff" stroke="#000000" points="1505.3491,-225.5 1505.3491,-243.5 1603.4341,-243.5 1603.4341,-225.5 1505.3491,-225.5"/>
<text text-anchor="middle" x="1554.3916" y="-231.5" font-family="Helvetica,sans-Serif" font-size="10.00" fill="#000000">hyperelasticity.hpp</text>
</a>
</g>
</g>
<!-- Node44&#45;&gt;Node45 -->
<g id="edge41" class="edge">
<title>Node44&#45;&gt;Node45</title>
<path fill="none" stroke="#191970" d="M1562.1402,-290.462C1560.8385,-281.061 1558.7603,-266.0518 1557.0837,-253.943"/>
<polygon fill="#191970" stroke="#191970" points="1560.5292,-253.3076 1555.6907,-243.8821 1553.5954,-254.2677 1560.5292,-253.3076"/>
</g>
<!-- Node46 -->
<g id="node42" class="node">
<title>Node46</title>
<g id="a_node42"><a xlink:href="../../d2/d8b/_finite___element___problem_8hpp.html" target="_top" xlink:title="Finite_Element_Problem.hpp">
<polygon fill="#ffffff" stroke="#000000" points="1472.9116,-165.5 1472.9116,-183.5 1617.8716,-183.5 1617.8716,-165.5 1472.9116,-165.5"/>
<text text-anchor="middle" x="1545.3916" y="-171.5" font-family="Helvetica,sans-Serif" font-size="10.00" fill="#000000">Finite_Element_Problem.hpp</text>
</a>
</g>
</g>
<!-- Node45&#45;&gt;Node46 -->
<g id="edge42" class="edge">
<title>Node45&#45;&gt;Node46</title>
<path fill="none" stroke="#191970" d="M1553.0247,-225.3873C1551.7692,-217.0174 1549.8678,-204.3414 1548.2768,-193.735"/>
<polygon fill="#191970" stroke="#191970" points="1551.7161,-193.0686 1546.7714,-183.6985 1544.7936,-194.1071 1551.7161,-193.0686"/>
</g>
<!-- Node46&#45;&gt;Node9 -->
<g id="edge43" class="edge">
<title>Node46&#45;&gt;Node9</title>
<path fill="none" stroke="#191970" d="M1543.1021,-165.1748C1539.8889,-152.5067 1533.6185,-129.2326 1526.3916,-110 1522.9541,-100.8519 1518.4901,-90.9718 1514.5622,-82.7633"/>
<polygon fill="#191970" stroke="#191970" points="1517.6849,-81.1815 1510.1421,-73.7413 1511.3988,-84.2614 1517.6849,-81.1815"/>
</g>
<!-- Node46&#45;&gt;Node43 -->
<g id="edge44" class="edge">
<title>Node46&#45;&gt;Node43</title>
<path fill="none" stroke="#191970" d="M1532.1812,-165.4179C1519.9062,-156.9788 1501.4017,-144.257 1486.9808,-134.3426"/>
<polygon fill="#191970" stroke="#191970" points="1488.8449,-131.3768 1478.6216,-128.5956 1484.8792,-137.1451 1488.8449,-131.3768"/>
</g>
<!-- Node47&#45;&gt;Node4 -->
<g id="edge54" class="edge">
<title>Node47&#45;&gt;Node4</title>
<path fill="none" stroke="#191970" d="M2379.2093,-359.6822C2278.4142,-351.7486 2075.0793,-334.7292 1903.3916,-314 1893.5307,-312.8094 1883.1317,-311.4181 1872.9391,-309.9772"/>
<polygon fill="#191970" stroke="#191970" points="1873.2393,-306.4844 1862.8429,-308.5254 1872.2428,-313.4132 1873.2393,-306.4844"/>
</g>
<!-- Node47&#45;&gt;Node5 -->
<g id="edge55" class="edge">
<title>Node47&#45;&gt;Node5</title>
<path fill="none" stroke="#191970" d="M2379.2186,-357.1027C2303.5254,-348.014 2172.9397,-331.6185 2061.3916,-314 2054.2896,-312.8783 2046.8436,-311.6202 2039.4802,-310.3261"/>
<polygon fill="#191970" stroke="#191970" points="2039.9904,-306.8619 2029.5307,-308.5487 2038.7593,-313.7528 2039.9904,-306.8619"/>
</g>
<!-- Node47&#45;&gt;Node6 -->
<g id="edge56" class="edge">
<title>Node47&#45;&gt;Node6</title>
<path fill="none" stroke="#191970" d="M2400.5388,-355.462C2352.9721,-345.1901 2274.4008,-328.2229 2216.2218,-315.6593"/>
<polygon fill="#191970" stroke="#191970" points="2216.8528,-312.215 2206.3393,-313.5253 2215.3752,-319.0573 2216.8528,-312.215"/>
</g>
<!-- Node47&#45;&gt;Node35 -->
<g id="edge47" class="edge">
<title>Node47&#45;&gt;Node35</title>
<path fill="none" stroke="#191970" d="M2450.2307,-355.4553C2458.1973,-345.8088 2470.34,-329.7767 2477.3916,-314 2492.2157,-280.8338 2496.3916,-270.8284 2496.3916,-234.5 2496.3916,-234.5 2496.3916,-234.5 2496.3916,-119.5 2496.3916,-100.7508 2750.1672,-44.6848 2863.1883,-20.6451"/>
<polygon fill="#191970" stroke="#191970" points="2863.9703,-24.0572 2873.0261,-18.5579 2862.5175,-17.2096 2863.9703,-24.0572"/>
</g>
<!-- Node47&#45;&gt;Node46 -->
<g id="edge46" class="edge">
<title>Node47&#45;&gt;Node46</title>
<path fill="none" stroke="#191970" d="M2389.1814,-355.4225C2351.5806,-347.6883 2300.7255,-334.5077 2259.3916,-314 2240.3601,-304.5575 2240.9018,-293.409 2221.3916,-285 2166.972,-261.5447 1787.4726,-207.6244 1622.1123,-184.9002"/>
<polygon fill="#191970" stroke="#191970" points="1622.3953,-181.4063 1612.0124,-183.5144 1621.4438,-188.3413 1622.3953,-181.4063"/>
</g>
<!-- Node48 -->
<g id="node44" class="node">
<title>Node48</title>
<polygon fill="#ffffff" stroke="#bfbfbf" points="2416.8818,-290.5 2416.8818,-308.5 2467.9014,-308.5 2467.9014,-290.5 2416.8818,-290.5"/>
<text text-anchor="middle" x="2442.3916" y="-296.5" font-family="Helvetica,sans-Serif" font-size="10.00" fill="#000000">Ifpack.h</text>
</g>
<!-- Node47&#45;&gt;Node48 -->
<g id="edge48" class="edge">
<title>Node47&#45;&gt;Node48</title>
<path fill="none" stroke="#191970" d="M2442.3916,-355.462C2442.3916,-346.061 2442.3916,-331.0518 2442.3916,-318.943"/>
<polygon fill="#191970" stroke="#191970" points="2445.8917,-318.8821 2442.3916,-308.8821 2438.8917,-318.8822 2445.8917,-318.8821"/>
</g>
<!-- Node49 -->
<g id="node45" class="node">
<title>Node49</title>
<polygon fill="#ffffff" stroke="#bfbfbf" points="2524.1406,-290.5 2524.1406,-308.5 2654.6426,-308.5 2654.6426,-290.5 2524.1406,-290.5"/>
<text text-anchor="middle" x="2589.3916" y="-296.5" font-family="Helvetica,sans-Serif" font-size="10.00" fill="#000000">Ifpack_AdditiveSchwarz.h</text>
</g>
<!-- Node47&#45;&gt;Node49 -->
<g id="edge49" class="edge">
<title>Node47&#45;&gt;Node49</title>
<path fill="none" stroke="#191970" d="M2462.8313,-355.462C2487.922,-344.3675 2530.6767,-325.4624 2559.4684,-312.7313"/>
<polygon fill="#191970" stroke="#191970" points="2560.9212,-315.9159 2568.6516,-308.6708 2558.0903,-309.5138 2560.9212,-315.9159"/>
</g>
<!-- Node50 -->
<g id="node46" class="node">
<title>Node50</title>
<polygon fill="#ffffff" stroke="#bfbfbf" points="2672.6357,-290.5 2672.6357,-308.5 2798.1475,-308.5 2798.1475,-290.5 2672.6357,-290.5"/>
<text text-anchor="middle" x="2735.3916" y="-296.5" font-family="Helvetica,sans-Serif" font-size="10.00" fill="#000000">BelosLinearProblem.hpp</text>
</g>
<!-- Node47&#45;&gt;Node50 -->
<g id="edge50" class="edge">
<title>Node47&#45;&gt;Node50</title>
<path fill="none" stroke="#191970" d="M2483.132,-355.462C2535.7915,-343.7799 2627.4874,-323.4378 2684.624,-310.7624"/>
<polygon fill="#191970" stroke="#191970" points="2685.5214,-314.1485 2694.526,-308.5658 2684.0053,-307.3147 2685.5214,-314.1485"/>
</g>
<!-- Node51 -->
<g id="node47" class="node">
<title>Node51</title>
<polygon fill="#ffffff" stroke="#bfbfbf" points="2816.3623,-290.5 2816.3623,-308.5 2962.4209,-308.5 2962.4209,-290.5 2816.3623,-290.5"/>
<text text-anchor="middle" x="2889.3916" y="-296.5" font-family="Helvetica,sans-Serif" font-size="10.00" fill="#000000">BelosBlockGmresSolMgr.hpp</text>
</g>
<!-- Node47&#45;&gt;Node51 -->
<g id="edge51" class="edge">
<title>Node47&#45;&gt;Node51</title>
<path fill="none" stroke="#191970" d="M2505.4724,-356.5033C2578.319,-347.0991 2701.7024,-330.6498 2807.3916,-314 2814.7395,-312.8424 2822.4463,-311.5644 2830.0708,-310.2612"/>
<polygon fill="#191970" stroke="#191970" points="2830.7527,-313.6953 2840.0095,-308.5414 2829.5591,-306.7978 2830.7527,-313.6953"/>
</g>
<!-- Node52 -->
<g id="node48" class="node">
<title>Node52</title>
<polygon fill="#ffffff" stroke="#bfbfbf" points="2980.1826,-290.5 2980.1826,-308.5 3104.6006,-308.5 3104.6006,-290.5 2980.1826,-290.5"/>
<text text-anchor="middle" x="3042.3916" y="-296.5" font-family="Helvetica,sans-Serif" font-size="10.00" fill="#000000">BelosEpetraAdapter.hpp</text>
</g>
<!-- Node47&#45;&gt;Node52 -->
<g id="edge52" class="edge">
<title>Node47&#45;&gt;Node52</title>
<path fill="none" stroke="#191970" d="M2505.764,-360.6357C2605.2994,-354.0753 2804.1852,-338.9827 2971.3916,-314 2978.0796,-313.0007 2985.089,-311.7819 2991.9902,-310.4797"/>
<polygon fill="#191970" stroke="#191970" points="2992.8309,-313.8817 3001.9736,-308.5281 2991.4878,-307.0117 2992.8309,-313.8817"/>
</g>
<!-- Node53 -->
<g id="node49" class="node">
<title>Node53</title>
<polygon fill="#ffffff" stroke="#bfbfbf" points="3122.6792,-290.5 3122.6792,-308.5 3244.104,-308.5 3244.104,-290.5 3122.6792,-290.5"/>
<text text-anchor="middle" x="3183.3916" y="-296.5" font-family="Helvetica,sans-Serif" font-size="10.00" fill="#000000">BelosSolverFactory.hpp</text>
</g>
<!-- Node47&#45;&gt;Node53 -->
<g id="edge53" class="edge">
<title>Node47&#45;&gt;Node53</title>
<path fill="none" stroke="#191970" d="M2505.5889,-362.465C2624.8969,-358.0212 2891.2771,-345.2298 3113.3916,-314 3120.1626,-313.048 3127.2612,-311.8342 3134.233,-310.5153"/>
<polygon fill="#191970" stroke="#191970" points="3135.1714,-313.8977 3144.3036,-308.5262 3133.8149,-307.0304 3135.1714,-313.8977"/>
</g>
<!-- Node54 -->
<g id="node50" class="node">
<title>Node54</title>
<polygon fill="#ffffff" stroke="#bfbfbf" points="2268.1431,-285.5 2268.1431,-313.5 2398.6401,-313.5 2398.6401,-285.5 2268.1431,-285.5"/>
<text text-anchor="start" x="2276.1431" y="-301.5" font-family="Helvetica,sans-Serif" font-size="10.00" fill="#000000">Stratimikos_DefaultLinear</text>
<text text-anchor="middle" x="2333.3916" y="-291.5" font-family="Helvetica,sans-Serif" font-size="10.00" fill="#000000">SolverBuilder.hpp</text>
</g>
<!-- Node47&#45;&gt;Node54 -->
<g id="edge57" class="edge">
<title>Node47&#45;&gt;Node54</title>
<path fill="none" stroke="#191970" d="M2427.2356,-355.462C2411.4393,-346.0422 2386.2008,-330.9917 2365.8742,-318.8704"/>
<polygon fill="#191970" stroke="#191970" points="2367.6009,-315.825 2357.2195,-313.7093 2364.0157,-321.8372 2367.6009,-315.825"/>
</g>
</g>
</svg>
