<?xml version="1.0" encoding="UTF-8" standalone="no"?>
<!DOCTYPE svg PUBLIC "-//W3C//DTD SVG 1.1//EN"
 "http://www.w3.org/Graphics/SVG/1.1/DTD/svg11.dtd">
<!-- Generated by graphviz version 2.40.1 (20161225.0304)
 -->
<!-- Title: src/shinozukapp_2d.hpp Pages: 1 -->
<svg width="284pt" height="82pt"
 viewBox="0.00 0.00 284.40 82.00" xmlns="http://www.w3.org/2000/svg" xmlns:xlink="http://www.w3.org/1999/xlink">
<g id="graph0" class="graph" transform="scale(1 1) rotate(0) translate(4 78)">
<title>src/shinozukapp_2d.hpp</title>
<polygon fill="#ffffff" stroke="transparent" points="-4,4 -4,-78 280.4033,-78 280.4033,4 -4,4"/>
<!-- Node39 -->
<g id="node1" class="node">
<title>Node39</title>
<polygon fill="#bfbfbf" stroke="#000000" points="78.2759,-55.5 78.2759,-73.5 202.6841,-73.5 202.6841,-55.5 78.2759,-55.5"/>
<text text-anchor="middle" x="140.48" y="-61.5" font-family="Helvetica,sans-Serif" font-size="10.00" fill="#000000">src/shinozukapp_2d.hpp</text>
</g>
<!-- Node40 -->
<g id="node2" class="node">
<title>Node40</title>
<g id="a_node2"><a xlink:href="../../df/dd5/nrl_2shinozuka__2d_2main_8cpp.html" target="_top" xlink:title="nrl/shinozuka_2d/main.cpp">
<polygon fill="#ffffff" stroke="#000000" points="0,-.5 0,-18.5 134.96,-18.5 134.96,-.5 0,-.5"/>
<text text-anchor="middle" x="67.48" y="-6.5" font-family="Helvetica,sans-Serif" font-size="10.00" fill="#000000">nrl/shinozuka_2d/main.cpp</text>
</a>
</g>
</g>
<!-- Node39&#45;&gt;Node40 -->
<g id="edge1" class="edge">
<title>Node39&#45;&gt;Node40</title>
<path fill="none" stroke="#191970" d="M120.1064,-49.15C107.1521,-39.3899 90.8057,-27.0742 79.7963,-18.7795"/>
<polygon fill="#191970" stroke="#191970" points="118.3325,-52.1957 128.4255,-55.4179 122.5448,-46.6049 118.3325,-52.1957"/>
</g>
<!-- Node41 -->
<g id="node3" class="node">
<title>Node41</title>
<g id="a_node3"><a xlink:href="../../df/ddb/shinozukapp__2d_8cpp.html" target="_top" xlink:title="src/shinozukapp_2d.cpp">
<polygon fill="#ffffff" stroke="#000000" points="152.5566,-.5 152.5566,-18.5 276.4033,-18.5 276.4033,-.5 152.5566,-.5"/>
<text text-anchor="middle" x="214.48" y="-6.5" font-family="Helvetica,sans-Serif" font-size="10.00" fill="#000000">src/shinozukapp_2d.cpp</text>
</a>
</g>
</g>
<!-- Node39&#45;&gt;Node41 -->
<g id="edge2" class="edge">
<title>Node39&#45;&gt;Node41</title>
<path fill="none" stroke="#191970" d="M160.8071,-49.392C174.0865,-39.5222 190.9888,-26.9596 202.2422,-18.5956"/>
<polygon fill="#191970" stroke="#191970" points="158.6377,-46.6435 152.6996,-55.4179 162.8134,-52.2617 158.6377,-46.6435"/>
</g>
</g>
</svg>
