<?xml version="1.0" encoding="UTF-8" standalone="no"?>
<!DOCTYPE svg PUBLIC "-//W3C//DTD SVG 1.1//EN"
 "http://www.w3.org/Graphics/SVG/1.1/DTD/svg11.dtd">
<!-- Generated by graphviz version 2.40.1 (20161225.0304)
 -->
<!-- Title: nrl/hide/test_parallel_shinozuka Pages: 1 -->
<svg width="160pt" height="150pt"
 viewBox="0.00 0.00 160.00 150.00" xmlns="http://www.w3.org/2000/svg" xmlns:xlink="http://www.w3.org/1999/xlink">
<g id="graph0" class="graph" transform="scale(1 1) rotate(0) translate(4 146)">
<title>nrl/hide/test_parallel_shinozuka</title>
<polygon fill="#ffffff" stroke="transparent" points="-4,4 -4,-146 156,-146 156,4 -4,4"/>
<g id="clust1" class="cluster">
<title>clusterdir_2de9a9b21e104b5cb3d5cab580c97bc2</title>
<g id="a_clust1"><a xlink:href="dir_2de9a9b21e104b5cb3d5cab580c97bc2.html" target="_top" xlink:title="hide">
<polygon fill="#ddddee" stroke="#000000" points="8,-64 8,-134 144,-134 144,-64 8,-64"/>
<text text-anchor="middle" x="76" y="-122" font-family="Helvetica,sans-Serif" font-size="10.00" fill="#000000">hide</text>
</a>
</g>
</g>
<!-- dir_04222a0388cb0192e524e6c5971c6f6f -->
<g id="node1" class="node">
<title>dir_04222a0388cb0192e524e6c5971c6f6f</title>
<g id="a_node1"><a xlink:href="dir_04222a0388cb0192e524e6c5971c6f6f.html" target="_top" xlink:title="test_parallel_shinozuka">
<polygon fill="#eeeeff" stroke="#000000" points="136.0127,-108 15.9873,-108 15.9873,-72 136.0127,-72 136.0127,-108"/>
<text text-anchor="middle" x="76" y="-87" font-family="Helvetica,sans-Serif" font-size="10.00" fill="#000000">test_parallel_shinozuka</text>
</a>
</g>
</g>
<!-- dir_68267d1309a1af8e8297ef4c3efbcdba -->
<g id="node2" class="node">
<title>dir_68267d1309a1af8e8297ef4c3efbcdba</title>
<g id="a_node2"><a xlink:href="dir_68267d1309a1af8e8297ef4c3efbcdba.html" target="_top" xlink:title="src">
<polygon fill="#ffffff" stroke="#ff0000" points="103,-36 49,-36 49,0 103,0 103,-36"/>
<text text-anchor="middle" x="76" y="-15" font-family="Helvetica,sans-Serif" font-size="10.00" fill="#000000">src</text>
</a>
</g>
</g>
<!-- dir_04222a0388cb0192e524e6c5971c6f6f&#45;&gt;dir_68267d1309a1af8e8297ef4c3efbcdba -->
<g id="edge1" class="edge">
<title>dir_04222a0388cb0192e524e6c5971c6f6f&#45;&gt;dir_68267d1309a1af8e8297ef4c3efbcdba</title>
<path fill="none" stroke="#000000" d="M76,-71.8314C76,-64.131 76,-54.9743 76,-46.4166"/>
<polygon fill="#000000" stroke="#000000" points="79.5001,-46.4132 76,-36.4133 72.5001,-46.4133 79.5001,-46.4132"/>
<g id="a_edge1&#45;headlabel"><a xlink:href="dir_000030_000040.html" target="_top" xlink:title="1">
<text text-anchor="middle" x="82.3393" y="-47.0079" font-family="Helvetica,sans-Serif" font-size="10.00" fill="#000000">1</text>
</a>
</g>
</g>
</g>
</svg>
