<?xml version="1.0" encoding="UTF-8" standalone="no"?>
<!DOCTYPE svg PUBLIC "-//W3C//DTD SVG 1.1//EN"
 "http://www.w3.org/Graphics/SVG/1.1/DTD/svg11.dtd">
<!-- Generated by graphviz version 2.40.1 (20161225.0304)
 -->
<!-- Title: nrl/linearpatchtest Pages: 1 -->
<svg width="122pt" height="150pt"
 viewBox="0.00 0.00 122.00 150.00" xmlns="http://www.w3.org/2000/svg" xmlns:xlink="http://www.w3.org/1999/xlink">
<g id="graph0" class="graph" transform="scale(1 1) rotate(0) translate(4 146)">
<title>nrl/linearpatchtest</title>
<polygon fill="#ffffff" stroke="transparent" points="-4,4 -4,-146 118,-146 118,4 -4,4"/>
<g id="clust1" class="cluster">
<title>clusterdir_c7a8522d1517ff6e908be401e03740f7</title>
<g id="a_clust1"><a xlink:href="dir_c7a8522d1517ff6e908be401e03740f7.html" target="_top" xlink:title="nrl">
<polygon fill="#ddddee" stroke="#000000" points="8,-64 8,-134 106,-134 106,-64 8,-64"/>
<text text-anchor="middle" x="57" y="-122" font-family="Helvetica,sans-Serif" font-size="10.00" fill="#000000">nrl</text>
</a>
</g>
</g>
<!-- dir_774c88b65af546d4cd4242c2af16a6a2 -->
<g id="node1" class="node">
<title>dir_774c88b65af546d4cd4242c2af16a6a2</title>
<g id="a_node1"><a xlink:href="dir_774c88b65af546d4cd4242c2af16a6a2.html" target="_top" xlink:title="linearpatchtest">
<polygon fill="#eeeeff" stroke="#000000" points="97.5391,-108 16.4609,-108 16.4609,-72 97.5391,-72 97.5391,-108"/>
<text text-anchor="middle" x="57" y="-87" font-family="Helvetica,sans-Serif" font-size="10.00" fill="#000000">linearpatchtest</text>
</a>
</g>
</g>
<!-- dir_68267d1309a1af8e8297ef4c3efbcdba -->
<g id="node2" class="node">
<title>dir_68267d1309a1af8e8297ef4c3efbcdba</title>
<g id="a_node2"><a xlink:href="dir_68267d1309a1af8e8297ef4c3efbcdba.html" target="_top" xlink:title="src">
<polygon fill="#ffffff" stroke="#ff0000" points="84,-36 30,-36 30,0 84,0 84,-36"/>
<text text-anchor="middle" x="57" y="-15" font-family="Helvetica,sans-Serif" font-size="10.00" fill="#000000">src</text>
</a>
</g>
</g>
<!-- dir_774c88b65af546d4cd4242c2af16a6a2&#45;&gt;dir_68267d1309a1af8e8297ef4c3efbcdba -->
<g id="edge1" class="edge">
<title>dir_774c88b65af546d4cd4242c2af16a6a2&#45;&gt;dir_68267d1309a1af8e8297ef4c3efbcdba</title>
<path fill="none" stroke="#000000" d="M57,-71.8314C57,-64.131 57,-54.9743 57,-46.4166"/>
<polygon fill="#000000" stroke="#000000" points="60.5001,-46.4132 57,-36.4133 53.5001,-46.4133 60.5001,-46.4132"/>
<g id="a_edge1&#45;headlabel"><a xlink:href="dir_000032_000040.html" target="_top" xlink:title="3">
<text text-anchor="middle" x="63.3393" y="-47.0079" font-family="Helvetica,sans-Serif" font-size="10.00" fill="#000000">3</text>
</a>
</g>
</g>
</g>
</svg>
