<?xml version="1.0" encoding="UTF-8" standalone="no"?>
<!DOCTYPE svg PUBLIC "-//W3C//DTD SVG 1.1//EN"
 "http://www.w3.org/Graphics/SVG/1.1/DTD/svg11.dtd">
<!-- Generated by graphviz version 2.40.1 (20161225.0304)
 -->
<!-- Title: cee530 Pages: 1 -->
<svg width="361pt" height="132pt"
 viewBox="0.00 0.00 361.00 132.00" xmlns="http://www.w3.org/2000/svg" xmlns:xlink="http://www.w3.org/1999/xlink">
<g id="graph0" class="graph" transform="scale(1 1) rotate(0) translate(4 128)">
<title>cee530</title>
<polygon fill="#ffffff" stroke="transparent" points="-4,4 -4,-128 357,-128 357,4 -4,4"/>
<g id="clust1" class="cluster">
<title>clusterdir_7629948f1edcf328469dc8b2f3a59e08</title>
<g id="a_clust1"><a xlink:href="dir_7629948f1edcf328469dc8b2f3a59e08.html" target="_top">
<polygon fill="#eeeeff" stroke="#000000" points="8,-64 8,-116 345,-116 345,-64 8,-64"/>
</a>
</g>
</g>
<!-- dir_7629948f1edcf328469dc8b2f3a59e08 -->
<g id="node1" class="node">
<title>dir_7629948f1edcf328469dc8b2f3a59e08</title>
<text text-anchor="middle" x="310" y="-87" font-family="Helvetica,sans-Serif" font-size="10.00" fill="#000000">cee530</text>
</g>
<!-- dir_4bfb8e2eec3da9bdf0cd97fa922de6bd -->
<g id="node2" class="node">
<title>dir_4bfb8e2eec3da9bdf0cd97fa922de6bd</title>
<g id="a_node2"><a xlink:href="dir_4bfb8e2eec3da9bdf0cd97fa922de6bd.html" target="_top" xlink:title="linearpatchtest">
<polygon fill="#ffffff" stroke="#000000" points="264.5391,-108 183.4609,-108 183.4609,-72 264.5391,-72 264.5391,-108"/>
<text text-anchor="middle" x="224" y="-87" font-family="Helvetica,sans-Serif" font-size="10.00" fill="#000000">linearpatchtest</text>
</a>
</g>
</g>
<!-- dir_68267d1309a1af8e8297ef4c3efbcdba -->
<g id="node5" class="node">
<title>dir_68267d1309a1af8e8297ef4c3efbcdba</title>
<g id="a_node5"><a xlink:href="dir_68267d1309a1af8e8297ef4c3efbcdba.html" target="_top" xlink:title="src">
<polygon fill="#ffffff" stroke="#ff0000" points="154,-36 100,-36 100,0 154,0 154,-36"/>
<text text-anchor="middle" x="127" y="-15" font-family="Helvetica,sans-Serif" font-size="10.00" fill="#000000">src</text>
</a>
</g>
</g>
<!-- dir_4bfb8e2eec3da9bdf0cd97fa922de6bd&#45;&gt;dir_68267d1309a1af8e8297ef4c3efbcdba -->
<g id="edge3" class="edge">
<title>dir_4bfb8e2eec3da9bdf0cd97fa922de6bd&#45;&gt;dir_68267d1309a1af8e8297ef4c3efbcdba</title>
<path fill="none" stroke="#000000" d="M199.5228,-71.8314C187.4605,-62.8779 172.746,-51.9558 159.7314,-42.2955"/>
<polygon fill="#000000" stroke="#000000" points="161.5852,-39.3127 151.4694,-36.1628 157.413,-44.9335 161.5852,-39.3127"/>
<g id="a_edge3&#45;headlabel"><a xlink:href="dir_000013_000040.html" target="_top" xlink:title="1">
<text text-anchor="middle" x="166.1638" y="-36.1752" font-family="Helvetica,sans-Serif" font-size="10.00" fill="#000000">1</text>
</a>
</g>
</g>
<!-- dir_bd2758cd5d5936f7b17768f0eeefeafd -->
<g id="node3" class="node">
<title>dir_bd2758cd5d5936f7b17768f0eeefeafd</title>
<g id="a_node3"><a xlink:href="dir_bd2758cd5d5936f7b17768f0eeefeafd.html" target="_top" xlink:title="manufactured">
<polygon fill="#ffffff" stroke="#000000" points="165.6476,-108 88.3524,-108 88.3524,-72 165.6476,-72 165.6476,-108"/>
<text text-anchor="middle" x="127" y="-87" font-family="Helvetica,sans-Serif" font-size="10.00" fill="#000000">manufactured</text>
</a>
</g>
</g>
<!-- dir_bd2758cd5d5936f7b17768f0eeefeafd&#45;&gt;dir_68267d1309a1af8e8297ef4c3efbcdba -->
<g id="edge2" class="edge">
<title>dir_bd2758cd5d5936f7b17768f0eeefeafd&#45;&gt;dir_68267d1309a1af8e8297ef4c3efbcdba</title>
<path fill="none" stroke="#000000" d="M127,-71.8314C127,-64.131 127,-54.9743 127,-46.4166"/>
<polygon fill="#000000" stroke="#000000" points="130.5001,-46.4132 127,-36.4133 123.5001,-46.4133 130.5001,-46.4132"/>
<g id="a_edge2&#45;headlabel"><a xlink:href="dir_000014_000040.html" target="_top" xlink:title="2">
<text text-anchor="middle" x="133.3393" y="-47.0079" font-family="Helvetica,sans-Serif" font-size="10.00" fill="#000000">2</text>
</a>
</g>
</g>
<!-- dir_615ee0cc16b20d6e6683fc855e0036c9 -->
<g id="node4" class="node">
<title>dir_615ee0cc16b20d6e6683fc855e0036c9</title>
<g id="a_node4"><a xlink:href="dir_615ee0cc16b20d6e6683fc855e0036c9.html" target="_top" xlink:title="sbvp">
<polygon fill="#ffffff" stroke="#000000" points="70,-108 16,-108 16,-72 70,-72 70,-108"/>
<text text-anchor="middle" x="43" y="-87" font-family="Helvetica,sans-Serif" font-size="10.00" fill="#000000">sbvp</text>
</a>
</g>
</g>
<!-- dir_615ee0cc16b20d6e6683fc855e0036c9&#45;&gt;dir_68267d1309a1af8e8297ef4c3efbcdba -->
<g id="edge1" class="edge">
<title>dir_615ee0cc16b20d6e6683fc855e0036c9&#45;&gt;dir_68267d1309a1af8e8297ef4c3efbcdba</title>
<path fill="none" stroke="#000000" d="M64.1967,-71.8314C74.4434,-63.0485 86.9003,-52.3712 98.0097,-42.8489"/>
<polygon fill="#000000" stroke="#000000" points="100.4952,-45.3282 105.81,-36.1628 95.9397,-40.0134 100.4952,-45.3282"/>
<g id="a_edge1&#45;headlabel"><a xlink:href="dir_000015_000040.html" target="_top" xlink:title="3">
<text text-anchor="middle" x="99.6138" y="-46.8232" font-family="Helvetica,sans-Serif" font-size="10.00" fill="#000000">3</text>
</a>
</g>
</g>
</g>
</svg>
