<?xml version="1.0" encoding="UTF-8" standalone="no"?>
<!DOCTYPE svg PUBLIC "-//W3C//DTD SVG 1.1//EN"
 "http://www.w3.org/Graphics/SVG/1.1/DTD/svg11.dtd">
<!-- Generated by graphviz version 2.40.1 (20161225.0304)
 -->
<!-- Title: nrl/randomsearch_deterministicmodel Pages: 1 -->
<svg width="208pt" height="150pt"
 viewBox="0.00 0.00 208.00 150.00" xmlns="http://www.w3.org/2000/svg" xmlns:xlink="http://www.w3.org/1999/xlink">
<g id="graph0" class="graph" transform="scale(1 1) rotate(0) translate(4 146)">
<title>nrl/randomsearch_deterministicmodel</title>
<polygon fill="#ffffff" stroke="transparent" points="-4,4 -4,-146 204,-146 204,4 -4,4"/>
<g id="clust1" class="cluster">
<title>clusterdir_c7a8522d1517ff6e908be401e03740f7</title>
<g id="a_clust1"><a xlink:href="dir_c7a8522d1517ff6e908be401e03740f7.html" target="_top" xlink:title="nrl">
<polygon fill="#ddddee" stroke="#000000" points="8,-64 8,-134 192,-134 192,-64 8,-64"/>
<text text-anchor="middle" x="100" y="-122" font-family="Helvetica,sans-Serif" font-size="10.00" fill="#000000">nrl</text>
</a>
</g>
</g>
<!-- dir_6863ff112bf0dda02013335d4def024b -->
<g id="node1" class="node">
<title>dir_6863ff112bf0dda02013335d4def024b</title>
<g id="a_node1"><a xlink:href="dir_6863ff112bf0dda02013335d4def024b.html" target="_top" xlink:title="randomsearch_deterministicmodel">
<polygon fill="#eeeeff" stroke="#000000" points="184.3467,-108 15.6533,-108 15.6533,-72 184.3467,-72 184.3467,-108"/>
<text text-anchor="middle" x="100" y="-87" font-family="Helvetica,sans-Serif" font-size="10.00" fill="#000000">randomsearch_deterministicmodel</text>
</a>
</g>
</g>
<!-- dir_68267d1309a1af8e8297ef4c3efbcdba -->
<g id="node2" class="node">
<title>dir_68267d1309a1af8e8297ef4c3efbcdba</title>
<g id="a_node2"><a xlink:href="dir_68267d1309a1af8e8297ef4c3efbcdba.html" target="_top" xlink:title="src">
<polygon fill="#ffffff" stroke="#ff0000" points="127,-36 73,-36 73,0 127,0 127,-36"/>
<text text-anchor="middle" x="100" y="-15" font-family="Helvetica,sans-Serif" font-size="10.00" fill="#000000">src</text>
</a>
</g>
</g>
<!-- dir_6863ff112bf0dda02013335d4def024b&#45;&gt;dir_68267d1309a1af8e8297ef4c3efbcdba -->
<g id="edge1" class="edge">
<title>dir_6863ff112bf0dda02013335d4def024b&#45;&gt;dir_68267d1309a1af8e8297ef4c3efbcdba</title>
<path fill="none" stroke="#000000" d="M100,-71.8314C100,-64.131 100,-54.9743 100,-46.4166"/>
<polygon fill="#000000" stroke="#000000" points="103.5001,-46.4132 100,-36.4133 96.5001,-46.4133 103.5001,-46.4132"/>
<g id="a_edge1&#45;headlabel"><a xlink:href="dir_000032_000037.html" target="_top" xlink:title="4">
<text text-anchor="middle" x="106.3393" y="-47.0079" font-family="Helvetica,sans-Serif" font-size="10.00" fill="#000000">4</text>
</a>
</g>
</g>
</g>
</svg>
