<?xml version="1.0" encoding="UTF-8" standalone="no"?>
<!DOCTYPE svg PUBLIC "-//W3C//DTD SVG 1.1//EN"
 "http://www.w3.org/Graphics/SVG/1.1/DTD/svg11.dtd">
<!-- Generated by graphviz version 2.40.1 (20161225.0304)
 -->
<!-- Title: nrl/hide/randomSearch_deterministicModel Pages: 1 -->
<svg width="210pt" height="150pt"
 viewBox="0.00 0.00 210.00 150.00" xmlns="http://www.w3.org/2000/svg" xmlns:xlink="http://www.w3.org/1999/xlink">
<g id="graph0" class="graph" transform="scale(1 1) rotate(0) translate(4 146)">
<title>nrl/hide/randomSearch_deterministicModel</title>
<polygon fill="#ffffff" stroke="transparent" points="-4,4 -4,-146 206,-146 206,4 -4,4"/>
<g id="clust1" class="cluster">
<title>clusterdir_2de9a9b21e104b5cb3d5cab580c97bc2</title>
<g id="a_clust1"><a xlink:href="dir_2de9a9b21e104b5cb3d5cab580c97bc2.html" target="_top" xlink:title="hide">
<polygon fill="#ddddee" stroke="#000000" points="8,-64 8,-134 194,-134 194,-64 8,-64"/>
<text text-anchor="middle" x="101" y="-122" font-family="Helvetica,sans-Serif" font-size="10.00" fill="#000000">hide</text>
</a>
</g>
</g>
<!-- dir_0c51409a9eace5bf10f43cce163fe5ba -->
<g id="node1" class="node">
<title>dir_0c51409a9eace5bf10f43cce163fe5ba</title>
<g id="a_node1"><a xlink:href="dir_0c51409a9eace5bf10f43cce163fe5ba.html" target="_top" xlink:title="randomSearch_deterministicModel">
<polygon fill="#eeeeff" stroke="#000000" points="186.0173,-108 15.9827,-108 15.9827,-72 186.0173,-72 186.0173,-108"/>
<text text-anchor="middle" x="101" y="-87" font-family="Helvetica,sans-Serif" font-size="10.00" fill="#000000">randomSearch_deterministicModel</text>
</a>
</g>
</g>
<!-- dir_68267d1309a1af8e8297ef4c3efbcdba -->
<g id="node2" class="node">
<title>dir_68267d1309a1af8e8297ef4c3efbcdba</title>
<g id="a_node2"><a xlink:href="dir_68267d1309a1af8e8297ef4c3efbcdba.html" target="_top" xlink:title="src">
<polygon fill="#ffffff" stroke="#ff0000" points="128,-36 74,-36 74,0 128,0 128,-36"/>
<text text-anchor="middle" x="101" y="-15" font-family="Helvetica,sans-Serif" font-size="10.00" fill="#000000">src</text>
</a>
</g>
</g>
<!-- dir_0c51409a9eace5bf10f43cce163fe5ba&#45;&gt;dir_68267d1309a1af8e8297ef4c3efbcdba -->
<g id="edge1" class="edge">
<title>dir_0c51409a9eace5bf10f43cce163fe5ba&#45;&gt;dir_68267d1309a1af8e8297ef4c3efbcdba</title>
<path fill="none" stroke="#000000" d="M101,-71.8314C101,-64.131 101,-54.9743 101,-46.4166"/>
<polygon fill="#000000" stroke="#000000" points="104.5001,-46.4132 101,-36.4133 97.5001,-46.4133 104.5001,-46.4132"/>
<g id="a_edge1&#45;headlabel"><a xlink:href="dir_000029_000040.html" target="_top" xlink:title="2">
<text text-anchor="middle" x="107.3393" y="-47.0079" font-family="Helvetica,sans-Serif" font-size="10.00" fill="#000000">2</text>
</a>
</g>
</g>
</g>
</svg>
