<?xml version="1.0" encoding="UTF-8" standalone="no"?>
<!DOCTYPE svg PUBLIC "-//W3C//DTD SVG 1.1//EN"
 "http://www.w3.org/Graphics/SVG/1.1/DTD/svg11.dtd">
<!-- Generated by graphviz version 2.40.1 (20161225.0304)
 -->
<!-- Title: nrl/hide Pages: 1 -->
<svg width="692pt" height="158pt"
 viewBox="0.00 0.00 692.00 158.00" xmlns="http://www.w3.org/2000/svg" xmlns:xlink="http://www.w3.org/1999/xlink">
<g id="graph0" class="graph" transform="scale(1 1) rotate(0) translate(4 154)">
<title>nrl/hide</title>
<polygon fill="#ffffff" stroke="transparent" points="-4,4 -4,-154 688,-154 688,4 -4,4"/>
<g id="clust1" class="cluster">
<title>clusterdir_c7a8522d1517ff6e908be401e03740f7</title>
<g id="a_clust1"><a xlink:href="dir_c7a8522d1517ff6e908be401e03740f7.html" target="_top" xlink:title="nrl">
<polygon fill="#ddddee" stroke="#000000" points="8,-56 8,-142 676,-142 676,-56 8,-56"/>
<text text-anchor="middle" x="342" y="-130" font-family="Helvetica,sans-Serif" font-size="10.00" fill="#000000">nrl</text>
</a>
</g>
</g>
<g id="clust2" class="cluster">
<title>clusterdir_2de9a9b21e104b5cb3d5cab580c97bc2</title>
<g id="a_clust2"><a xlink:href="dir_2de9a9b21e104b5cb3d5cab580c97bc2.html" target="_top">
<polygon fill="#eeeeff" stroke="#000000" points="16,-64 16,-116 668,-116 668,-64 16,-64"/>
</a>
</g>
</g>
<!-- dir_2de9a9b21e104b5cb3d5cab580c97bc2 -->
<g id="node1" class="node">
<title>dir_2de9a9b21e104b5cb3d5cab580c97bc2</title>
<text text-anchor="middle" x="633" y="-87" font-family="Helvetica,sans-Serif" font-size="10.00" fill="#000000">hide</text>
</g>
<!-- dir_76bd6ab2c0e8d370344e27065c2e72b1 -->
<g id="node2" class="node">
<title>dir_76bd6ab2c0e8d370344e27065c2e72b1</title>
<g id="a_node2"><a xlink:href="dir_76bd6ab2c0e8d370344e27065c2e72b1.html" target="_top" xlink:title="forward_deterministic">
<polygon fill="#ffffff" stroke="#000000" points="587.5342,-108 476.4658,-108 476.4658,-72 587.5342,-72 587.5342,-108"/>
<text text-anchor="middle" x="532" y="-87" font-family="Helvetica,sans-Serif" font-size="10.00" fill="#000000">forward_deterministic</text>
</a>
</g>
</g>
<!-- dir_68267d1309a1af8e8297ef4c3efbcdba -->
<g id="node6" class="node">
<title>dir_68267d1309a1af8e8297ef4c3efbcdba</title>
<g id="a_node6"><a xlink:href="dir_68267d1309a1af8e8297ef4c3efbcdba.html" target="_top" xlink:title="src">
<polygon fill="#ffffff" stroke="#ff0000" points="353,-36 299,-36 299,0 353,0 353,-36"/>
<text text-anchor="middle" x="326" y="-15" font-family="Helvetica,sans-Serif" font-size="10.00" fill="#000000">src</text>
</a>
</g>
</g>
<!-- dir_76bd6ab2c0e8d370344e27065c2e72b1&#45;&gt;dir_68267d1309a1af8e8297ef4c3efbcdba -->
<g id="edge3" class="edge">
<title>dir_76bd6ab2c0e8d370344e27065c2e72b1&#45;&gt;dir_68267d1309a1af8e8297ef4c3efbcdba</title>
<path fill="none" stroke="#000000" d="M501.4213,-71.941C491.0494,-66.3099 479.2395,-60.423 468,-56 433.4193,-42.3919 392.2343,-31.9698 363.1469,-25.5122"/>
<polygon fill="#000000" stroke="#000000" points="363.5272,-22.0133 353.0125,-23.3139 362.0433,-28.8543 363.5272,-22.0133"/>
<g id="a_edge3&#45;headlabel"><a xlink:href="dir_000027_000040.html" target="_top" xlink:title="2">
<text text-anchor="middle" x="367.642" y="-17.0005" font-family="Helvetica,sans-Serif" font-size="10.00" fill="#000000">2</text>
</a>
</g>
</g>
<!-- dir_0dc7f06fea30161588f909912881d9d7 -->
<g id="node3" class="node">
<title>dir_0dc7f06fea30161588f909912881d9d7</title>
<g id="a_node3"><a xlink:href="dir_0dc7f06fea30161588f909912881d9d7.html" target="_top" xlink:title="forward_randomfield">
<polygon fill="#ffffff" stroke="#000000" points="458.6573,-108 351.3427,-108 351.3427,-72 458.6573,-72 458.6573,-108"/>
<text text-anchor="middle" x="405" y="-87" font-family="Helvetica,sans-Serif" font-size="10.00" fill="#000000">forward_randomfield</text>
</a>
</g>
</g>
<!-- dir_0dc7f06fea30161588f909912881d9d7&#45;&gt;dir_68267d1309a1af8e8297ef4c3efbcdba -->
<g id="edge2" class="edge">
<title>dir_0dc7f06fea30161588f909912881d9d7&#45;&gt;dir_68267d1309a1af8e8297ef4c3efbcdba</title>
<path fill="none" stroke="#000000" d="M385.065,-71.8314C375.5217,-63.1337 363.9401,-52.5783 353.5694,-43.1265"/>
<polygon fill="#000000" stroke="#000000" points="355.6772,-40.3121 345.9287,-36.1628 350.962,-45.4857 355.6772,-40.3121"/>
<g id="a_edge2&#45;headlabel"><a xlink:href="dir_000028_000040.html" target="_top" xlink:title="2">
<text text-anchor="middle" x="360.2465" y="-37.6349" font-family="Helvetica,sans-Serif" font-size="10.00" fill="#000000">2</text>
</a>
</g>
</g>
<!-- dir_0c51409a9eace5bf10f43cce163fe5ba -->
<g id="node4" class="node">
<title>dir_0c51409a9eace5bf10f43cce163fe5ba</title>
<g id="a_node4"><a xlink:href="dir_0c51409a9eace5bf10f43cce163fe5ba.html" target="_top" xlink:title="randomSearch_deterministicModel">
<polygon fill="#ffffff" stroke="#000000" points="333.0173,-108 162.9827,-108 162.9827,-72 333.0173,-72 333.0173,-108"/>
<text text-anchor="middle" x="248" y="-87" font-family="Helvetica,sans-Serif" font-size="10.00" fill="#000000">randomSearch_deterministicModel</text>
</a>
</g>
</g>
<!-- dir_0c51409a9eace5bf10f43cce163fe5ba&#45;&gt;dir_68267d1309a1af8e8297ef4c3efbcdba -->
<g id="edge4" class="edge">
<title>dir_0c51409a9eace5bf10f43cce163fe5ba&#45;&gt;dir_68267d1309a1af8e8297ef4c3efbcdba</title>
<path fill="none" stroke="#000000" d="M267.6827,-71.8314C277.1051,-63.1337 288.5401,-52.5783 298.7796,-43.1265"/>
<polygon fill="#000000" stroke="#000000" points="301.3495,-45.5175 306.3236,-36.1628 296.6016,-40.3738 301.3495,-45.5175"/>
<g id="a_edge4&#45;headlabel"><a xlink:href="dir_000029_000040.html" target="_top" xlink:title="2">
<text text-anchor="middle" x="300.634" y="-47.0419" font-family="Helvetica,sans-Serif" font-size="10.00" fill="#000000">2</text>
</a>
</g>
</g>
<!-- dir_04222a0388cb0192e524e6c5971c6f6f -->
<g id="node5" class="node">
<title>dir_04222a0388cb0192e524e6c5971c6f6f</title>
<g id="a_node5"><a xlink:href="dir_04222a0388cb0192e524e6c5971c6f6f.html" target="_top" xlink:title="test_parallel_shinozuka">
<polygon fill="#ffffff" stroke="#000000" points="144.0127,-108 23.9873,-108 23.9873,-72 144.0127,-72 144.0127,-108"/>
<text text-anchor="middle" x="84" y="-87" font-family="Helvetica,sans-Serif" font-size="10.00" fill="#000000">test_parallel_shinozuka</text>
</a>
</g>
</g>
<!-- dir_04222a0388cb0192e524e6c5971c6f6f&#45;&gt;dir_68267d1309a1af8e8297ef4c3efbcdba -->
<g id="edge1" class="edge">
<title>dir_04222a0388cb0192e524e6c5971c6f6f&#45;&gt;dir_68267d1309a1af8e8297ef4c3efbcdba</title>
<path fill="none" stroke="#000000" d="M117.1421,-71.9282C128.5749,-66.2303 141.6225,-60.306 154,-56 199.3473,-40.2241 253.7658,-29.5058 289.0728,-23.5754"/>
<polygon fill="#000000" stroke="#000000" points="289.64,-27.0292 298.9427,-21.9588 288.5085,-20.1212 289.64,-27.0292"/>
<g id="a_edge1&#45;headlabel"><a xlink:href="dir_000030_000040.html" target="_top" xlink:title="1">
<text text-anchor="middle" x="286.5515" y="-27.4121" font-family="Helvetica,sans-Serif" font-size="10.00" fill="#000000">1</text>
</a>
</g>
</g>
</g>
</svg>
