<?xml version="1.0" encoding="UTF-8" standalone="no"?>
<!DOCTYPE svg PUBLIC "-//W3C//DTD SVG 1.1//EN"
 "http://www.w3.org/Graphics/SVG/1.1/DTD/svg11.dtd">
<!-- Generated by graphviz version 2.40.1 (20161225.0304)
 -->
<!-- Title: examples/laplace_stratimikos/main.cpp Pages: 1 -->
<!--zoomable 277 -->
<svg id="main" version="1.1" xmlns="http://www.w3.org/2000/svg" xmlns:xlink="http://www.w3.org/1999/xlink" xml:space="preserve" onload="init(evt)">
<style type="text/css"><![CDATA[
.edge:hover path { stroke: red; }
.edge:hover polygon { stroke: red; fill: red; }
]]></style>
<script type="text/javascript"><![CDATA[
var edges = document.getElementsByTagName('g');
if (edges && edges.length) {
  for (var i=0;i<edges.length;i++) {
    if (edges[i].id.substr(0,4)=='edge') {
      edges[i].setAttribute('class','edge');
    }
  }
}
]]></script>
        <defs>
                <circle id="rim" cx="0" cy="0" r="7"/>
                <circle id="rim2" cx="0" cy="0" r="3.5"/>
                <g id="zoomPlus">
                        <use xlink:href="#rim" fill="#404040">
                                <set attributeName="fill" to="#808080" begin="zoomplus.mouseover" end="zoomplus.mouseout"/>
                        </use>
                        <path d="M-4,0h8M0,-4v8" fill="none" stroke="white" stroke-width="1.5" pointer-events="none"/>
                </g>
                <g id="zoomMin">
                        <use xlink:href="#rim" fill="#404040">
                                <set attributeName="fill" to="#808080" begin="zoomminus.mouseover" end="zoomminus.mouseout"/>
                        </use>
                        <path d="M-4,0h8" fill="none" stroke="white" stroke-width="1.5" pointer-events="none"/>
                </g>
                <g id="dirArrow">
                        <path fill="none" stroke="white" stroke-width="1.5" d="M0,-3.0v7 M-2.5,-0.5L0,-3.0L2.5,-0.5"/>
                </g>
               <g id="resetDef">
                       <use xlink:href="#rim2" fill="#404040">
                               <set attributeName="fill" to="#808080" begin="reset.mouseover" end="reset.mouseout"/>
                       </use>
               </g>
        </defs>

<script type="text/javascript">
var viewWidth = 3409;
var viewHeight = 277;
var sectionId = 'dynsection-0';
</script>
<script xlink:href="../../svgpan.js"/>
<svg id="graph" class="graph">
<g id="viewport">
<title>examples/laplace_stratimikos/main.cpp</title>
<polygon fill="#ffffff" stroke="transparent" points="-4,4 -4,-273 3405.1328,-273 3405.1328,4 -4,4"/>
<!-- Node0 -->
<g id="node1" class="node">
<title>Node0</title>
<polygon fill="#bfbfbf" stroke="#000000" points="1624.3647,-240.5 1624.3647,-268.5 1770.9751,-268.5 1770.9751,-240.5 1624.3647,-240.5"/>
<text text-anchor="start" x="1632.3647" y="-256.5" font-family="Helvetica,sans-Serif" font-size="10.00" fill="#000000">examples/laplace_stratimikos</text>
<text text-anchor="middle" x="1697.6699" y="-246.5" font-family="Helvetica,sans-Serif" font-size="10.00" fill="#000000">/main.cpp</text>
</g>
<!-- Node1 -->
<g id="node2" class="node">
<title>Node1</title>
<polygon fill="#ffffff" stroke="#bfbfbf" points="1248.2539,-180.5 1248.2539,-198.5 1357.0859,-198.5 1357.0859,-180.5 1248.2539,-180.5"/>
<text text-anchor="middle" x="1302.6699" y="-186.5" font-family="Helvetica,sans-Serif" font-size="10.00" fill="#000000">Epetra_ConfigDefs.h</text>
</g>
<!-- Node0&#45;&gt;Node1 -->
<g id="edge1" class="edge">
<title>Node0&#45;&gt;Node1</title>
<path fill="none" stroke="#191970" d="M1624.1202,-244.813C1556.874,-235.5926 1454.7709,-220.6789 1366.6699,-204 1361.3528,-202.9934 1355.8055,-201.8611 1350.2964,-200.6845"/>
<polygon fill="#191970" stroke="#191970" points="1350.9965,-197.2549 1340.4795,-198.5362 1349.5,-204.0931 1350.9965,-197.2549"/>
</g>
<!-- Node2 -->
<g id="node3" class="node">
<title>Node2</title>
<polygon fill="#ffffff" stroke="#bfbfbf" points="1375.4829,-180.5 1375.4829,-198.5 1489.8569,-198.5 1489.8569,-180.5 1375.4829,-180.5"/>
<text text-anchor="middle" x="1432.6699" y="-186.5" font-family="Helvetica,sans-Serif" font-size="10.00" fill="#000000">Epetra_SerialComm.h</text>
</g>
<!-- Node0&#45;&gt;Node2 -->
<g id="edge2" class="edge">
<title>Node0&#45;&gt;Node2</title>
<path fill="none" stroke="#191970" d="M1640.4951,-240.476C1592.2588,-228.6444 1524.0786,-211.921 1479.1458,-200.8997"/>
<polygon fill="#191970" stroke="#191970" points="1479.9145,-197.4846 1469.3686,-198.5016 1478.2469,-204.2831 1479.9145,-197.4846"/>
</g>
<!-- Node3 -->
<g id="node4" class="node">
<title>Node3</title>
<polygon fill="#ffffff" stroke="#bfbfbf" points="0,-.5 0,-18.5 49.3398,-18.5 49.3398,-.5 0,-.5"/>
<text text-anchor="middle" x="24.6699" y="-6.5" font-family="Helvetica,sans-Serif" font-size="10.00" fill="#000000">fstream</text>
</g>
<!-- Node0&#45;&gt;Node3 -->
<g id="edge3" class="edge">
<title>Node0&#45;&gt;Node3</title>
<path fill="none" stroke="#191970" d="M1654.9254,-240.4558C1626.9546,-230.9305 1589.7777,-217.6324 1557.6699,-204 1530.7751,-192.5809 1526.7317,-183.1405 1498.6699,-175 883.3126,3.5098 691.8193,-141.656 59.7032,-19.1308"/>
<polygon fill="#191970" stroke="#191970" points="59.9096,-15.605 49.424,-17.1223 58.5672,-22.4751 59.9096,-15.605"/>
</g>
<!-- Node4 -->
<g id="node5" class="node">
<title>Node4</title>
<g id="a_node5"><a xlink:href="../../d0/d02/meshpp_8hpp.html" target="_top" xlink:title="meshpp.hpp">
<polygon fill="#ffffff" stroke="#000000" points="1606.1504,-55.5 1606.1504,-73.5 1677.1895,-73.5 1677.1895,-55.5 1606.1504,-55.5"/>
<text text-anchor="middle" x="1641.6699" y="-61.5" font-family="Helvetica,sans-Serif" font-size="10.00" fill="#000000">meshpp.hpp</text>
</a>
</g>
</g>
<!-- Node0&#45;&gt;Node4 -->
<g id="edge4" class="edge">
<title>Node0&#45;&gt;Node4</title>
<path fill="none" stroke="#191970" d="M1625.1471,-240.4743C1605.4992,-232.9979 1586.4319,-221.5438 1574.6699,-204 1551.4054,-169.2992 1555.1146,-146.9185 1574.6699,-110 1582.1029,-95.9673 1596.0174,-85.4606 1609.248,-78.0999"/>
<polygon fill="#191970" stroke="#191970" points="1610.9105,-81.1808 1618.2103,-73.502 1607.7152,-74.9526 1610.9105,-81.1808"/>
</g>
<!-- Node35 -->
<g id="node36" class="node">
<title>Node35</title>
<g id="a_node36"><a xlink:href="../../d5/d3f/laplacepp_8hpp.html" target="_top" xlink:title="laplacepp.hpp">
<polygon fill="#ffffff" stroke="#000000" points="1583.5322,-180.5 1583.5322,-198.5 1661.8076,-198.5 1661.8076,-180.5 1583.5322,-180.5"/>
<text text-anchor="middle" x="1622.6699" y="-186.5" font-family="Helvetica,sans-Serif" font-size="10.00" fill="#000000">laplacepp.hpp</text>
</a>
</g>
</g>
<!-- Node0&#45;&gt;Node35 -->
<g id="edge37" class="edge">
<title>Node0&#45;&gt;Node35</title>
<path fill="none" stroke="#191970" d="M1681.396,-240.396C1669.4946,-230.0814 1653.3399,-216.0807 1640.9864,-205.3743"/>
<polygon fill="#191970" stroke="#191970" points="1642.9895,-202.4787 1633.1403,-198.5743 1638.4049,-207.7686 1642.9895,-202.4787"/>
</g>
<!-- Node37 -->
<g id="node38" class="node">
<title>Node37</title>
<polygon fill="#ffffff" stroke="#bfbfbf" points="1679.7837,-180.5 1679.7837,-198.5 1867.5562,-198.5 1867.5562,-180.5 1679.7837,-180.5"/>
<text text-anchor="middle" x="1773.6699" y="-186.5" font-family="Helvetica,sans-Serif" font-size="10.00" fill="#000000">Teuchos_CommandLineProcessor.hpp</text>
</g>
<!-- Node0&#45;&gt;Node37 -->
<g id="edge40" class="edge">
<title>Node0&#45;&gt;Node37</title>
<path fill="none" stroke="#191970" d="M1714.1608,-240.396C1726.2209,-230.0814 1742.591,-216.0807 1755.1092,-205.3743"/>
<polygon fill="#191970" stroke="#191970" points="1757.7352,-207.7339 1763.06,-198.5743 1753.1854,-202.4141 1757.7352,-207.7339"/>
</g>
<!-- Node38 -->
<g id="node39" class="node">
<title>Node38</title>
<polygon fill="#ffffff" stroke="#bfbfbf" points="1885.7886,-180.5 1885.7886,-198.5 2063.5513,-198.5 2063.5513,-180.5 1885.7886,-180.5"/>
<text text-anchor="middle" x="1974.6699" y="-186.5" font-family="Helvetica,sans-Serif" font-size="10.00" fill="#000000">Teuchos_StandardCatchMacros.hpp</text>
</g>
<!-- Node0&#45;&gt;Node38 -->
<g id="edge41" class="edge">
<title>Node0&#45;&gt;Node38</title>
<path fill="none" stroke="#191970" d="M1757.4338,-240.476C1807.9603,-228.6196 1879.4216,-211.8507 1926.3852,-200.8304"/>
<polygon fill="#191970" stroke="#191970" points="1927.3735,-204.1936 1936.3094,-198.5016 1925.7743,-197.3787 1927.3735,-204.1936"/>
</g>
<!-- Node39 -->
<g id="node40" class="node">
<title>Node39</title>
<polygon fill="#ffffff" stroke="#bfbfbf" points="2081.4116,-180.5 2081.4116,-198.5 2221.9282,-198.5 2221.9282,-180.5 2081.4116,-180.5"/>
<text text-anchor="middle" x="2151.6699" y="-186.5" font-family="Helvetica,sans-Serif" font-size="10.00" fill="#000000">Teuchos_ParameterList.hpp</text>
</g>
<!-- Node0&#45;&gt;Node39 -->
<g id="edge42" class="edge">
<title>Node0&#45;&gt;Node39</title>
<path fill="none" stroke="#191970" d="M1771.1144,-245.6601C1846.8261,-236.301 1968.2183,-220.6091 2072.6699,-204 2079.7708,-202.8709 2087.2161,-201.6084 2094.579,-200.312"/>
<polygon fill="#191970" stroke="#191970" points="2095.3007,-203.7385 2104.5283,-198.5326 2094.0682,-196.8479 2095.3007,-203.7385"/>
</g>
<!-- Node40 -->
<g id="node41" class="node">
<title>Node40</title>
<polygon fill="#ffffff" stroke="#bfbfbf" points="2239.8623,-175.5 2239.8623,-203.5 2381.4775,-203.5 2381.4775,-175.5 2239.8623,-175.5"/>
<text text-anchor="start" x="2247.8623" y="-191.5" font-family="Helvetica,sans-Serif" font-size="10.00" fill="#000000">Teuchos_XMLParameterList</text>
<text text-anchor="middle" x="2310.6699" y="-181.5" font-family="Helvetica,sans-Serif" font-size="10.00" fill="#000000">CoreHelpers.hpp</text>
</g>
<!-- Node0&#45;&gt;Node40 -->
<g id="edge43" class="edge">
<title>Node0&#45;&gt;Node40</title>
<path fill="none" stroke="#191970" d="M1771.1811,-249.5175C1872.1841,-242.2299 2059.7225,-227.1185 2229.4961,-204.0866"/>
<polygon fill="#191970" stroke="#191970" points="2230.1871,-207.5247 2239.62,-202.7008 2229.2376,-200.5894 2230.1871,-207.5247"/>
</g>
<!-- Node41 -->
<g id="node42" class="node">
<title>Node41</title>
<polygon fill="#ffffff" stroke="#bfbfbf" points="2399.4214,-175.5 2399.4214,-203.5 2529.9185,-203.5 2529.9185,-175.5 2399.4214,-175.5"/>
<text text-anchor="start" x="2407.4214" y="-191.5" font-family="Helvetica,sans-Serif" font-size="10.00" fill="#000000">Stratimikos_DefaultLinear</text>
<text text-anchor="middle" x="2464.6699" y="-181.5" font-family="Helvetica,sans-Serif" font-size="10.00" fill="#000000">SolverBuilder.hpp</text>
</g>
<!-- Node0&#45;&gt;Node41 -->
<g id="edge44" class="edge">
<title>Node0&#45;&gt;Node41</title>
<path fill="none" stroke="#191970" d="M1771.0549,-252.0653C1896.0767,-247.2772 2158.4723,-234.4507 2389.4383,-204.0595"/>
<polygon fill="#191970" stroke="#191970" points="2389.9193,-207.5264 2399.3708,-202.739 2388.9967,-200.5874 2389.9193,-207.5264"/>
</g>
<!-- Node4&#45;&gt;Node3 -->
<g id="edge8" class="edge">
<title>Node4&#45;&gt;Node3</title>
<path fill="none" stroke="#191970" d="M1606.0408,-60.862C1584.528,-58.8052 1556.5507,-56.3769 1531.6699,-55 1207.792,-37.0764 397.9537,-68.0958 59.5048,-18.8678"/>
<polygon fill="#191970" stroke="#191970" points="59.7928,-15.3719 49.3842,-17.3498 58.7544,-22.2945 59.7928,-15.3719"/>
</g>
<!-- Node5 -->
<g id="node6" class="node">
<title>Node5</title>
<polygon fill="#ffffff" stroke="#bfbfbf" points="66.9385,-.5 66.9385,-18.5 112.4014,-18.5 112.4014,-.5 66.9385,-.5"/>
<text text-anchor="middle" x="89.6699" y="-6.5" font-family="Helvetica,sans-Serif" font-size="10.00" fill="#000000">stdio.h</text>
</g>
<!-- Node4&#45;&gt;Node5 -->
<g id="edge5" class="edge">
<title>Node4&#45;&gt;Node5</title>
<path fill="none" stroke="#191970" d="M1606.0403,-60.872C1584.5272,-58.8188 1556.5499,-56.3907 1531.6699,-55 1221.9319,-37.6868 447.3471,-67.4043 122.525,-18.6268"/>
<polygon fill="#191970" stroke="#191970" points="122.9932,-15.1577 112.5752,-17.0854 121.9215,-22.0752 122.9932,-15.1577"/>
</g>
<!-- Node6 -->
<g id="node7" class="node">
<title>Node6</title>
<polygon fill="#ffffff" stroke="#bfbfbf" points="130.4976,-.5 130.4976,-18.5 184.8423,-18.5 184.8423,-.5 130.4976,-.5"/>
<text text-anchor="middle" x="157.6699" y="-6.5" font-family="Helvetica,sans-Serif" font-size="10.00" fill="#000000">iostream</text>
</g>
<!-- Node4&#45;&gt;Node6 -->
<g id="edge6" class="edge">
<title>Node4&#45;&gt;Node6</title>
<path fill="none" stroke="#191970" d="M1606.0396,-60.8846C1584.5263,-58.8358 1556.5489,-56.408 1531.6699,-55 1238.1137,-38.3862 504.9905,-59.7485 194.9607,-18.6114"/>
<polygon fill="#191970" stroke="#191970" points="195.3942,-15.1381 185.0118,-17.249 194.4445,-22.0734 195.3942,-15.1381"/>
</g>
<!-- Node7 -->
<g id="node8" class="node">
<title>Node7</title>
<polygon fill="#ffffff" stroke="#bfbfbf" points="203.2783,-.5 203.2783,-18.5 252.0615,-18.5 252.0615,-.5 203.2783,-.5"/>
<text text-anchor="middle" x="227.6699" y="-6.5" font-family="Helvetica,sans-Serif" font-size="10.00" fill="#000000">istream</text>
</g>
<!-- Node4&#45;&gt;Node7 -->
<g id="edge7" class="edge">
<title>Node4&#45;&gt;Node7</title>
<path fill="none" stroke="#191970" d="M1606.0389,-60.8972C1584.5253,-58.8529 1556.5479,-56.4254 1531.6699,-55 1252.8807,-39.0265 556.4453,-61.8807 262.6653,-18.8962"/>
<polygon fill="#191970" stroke="#191970" points="262.7973,-15.3763 252.3859,-17.3391 261.7489,-22.2974 262.7973,-15.3763"/>
</g>
<!-- Node8 -->
<g id="node9" class="node">
<title>Node8</title>
<polygon fill="#ffffff" stroke="#bfbfbf" points="270.0542,-.5 270.0542,-18.5 313.2856,-18.5 313.2856,-.5 270.0542,-.5"/>
<text text-anchor="middle" x="291.6699" y="-6.5" font-family="Helvetica,sans-Serif" font-size="10.00" fill="#000000">vector</text>
</g>
<!-- Node4&#45;&gt;Node8 -->
<g id="edge9" class="edge">
<title>Node4&#45;&gt;Node8</title>
<path fill="none" stroke="#191970" d="M1606.0381,-60.9101C1584.5243,-58.8704 1556.5469,-56.4432 1531.6699,-55 1266.3918,-39.6108 603.3299,-63.4417 323.6441,-18.8507"/>
<polygon fill="#191970" stroke="#191970" points="323.8892,-15.3438 313.4523,-17.166 322.7476,-22.2501 323.8892,-15.3438"/>
</g>
<!-- Node9 -->
<g id="node10" class="node">
<title>Node9</title>
<polygon fill="#ffffff" stroke="#bfbfbf" points="331.1602,-.5 331.1602,-18.5 382.1797,-18.5 382.1797,-.5 331.1602,-.5"/>
<text text-anchor="middle" x="356.6699" y="-6.5" font-family="Helvetica,sans-Serif" font-size="10.00" fill="#000000">iomanip</text>
</g>
<!-- Node4&#45;&gt;Node9 -->
<g id="edge10" class="edge">
<title>Node4&#45;&gt;Node9</title>
<path fill="none" stroke="#191970" d="M1606.0371,-60.9266C1584.523,-58.8927 1556.5456,-56.4659 1531.6699,-55 1281.8614,-40.2795 658.4416,-56.0415 392.5965,-18.7056"/>
<polygon fill="#191970" stroke="#191970" points="392.9202,-15.216 382.5203,-17.2389 391.9118,-22.1429 392.9202,-15.216"/>
</g>
<!-- Node10 -->
<g id="node11" class="node">
<title>Node10</title>
<polygon fill="#ffffff" stroke="#bfbfbf" points="400.2095,-.5 400.2095,-18.5 505.1304,-18.5 505.1304,-.5 400.2095,-.5"/>
<text text-anchor="middle" x="452.6699" y="-6.5" font-family="Helvetica,sans-Serif" font-size="10.00" fill="#000000">Epetra_MpiComm.h</text>
</g>
<!-- Node4&#45;&gt;Node10 -->
<g id="edge11" class="edge">
<title>Node4&#45;&gt;Node10</title>
<path fill="none" stroke="#191970" d="M1606.0351,-60.9608C1584.5202,-58.939 1556.5428,-56.5129 1531.6699,-55 1083.0875,-27.7154 966.0679,-61.4091 515.2264,-19.0367"/>
<polygon fill="#191970" stroke="#191970" points="515.4779,-15.545 505.1924,-18.0863 514.8178,-22.5138 515.4779,-15.545"/>
</g>
<!-- Node11 -->
<g id="node12" class="node">
<title>Node11</title>
<polygon fill="#ffffff" stroke="#bfbfbf" points="522.9263,-.5 522.9263,-18.5 638.4136,-18.5 638.4136,-.5 522.9263,-.5"/>
<text text-anchor="middle" x="580.6699" y="-6.5" font-family="Helvetica,sans-Serif" font-size="10.00" fill="#000000">Epetra_FECrsGraph.h</text>
</g>
<!-- Node4&#45;&gt;Node11 -->
<g id="edge12" class="edge">
<title>Node4&#45;&gt;Node11</title>
<path fill="none" stroke="#191970" d="M1606.0321,-61.0092C1584.5161,-59.0046 1556.5386,-56.5794 1531.6699,-55 1142.5993,-30.2898 1040.9955,-54.2295 648.9352,-19.0192"/>
<polygon fill="#191970" stroke="#191970" points="649.0079,-15.5115 638.7331,-18.0955 648.3767,-22.483 649.0079,-15.5115"/>
</g>
<!-- Node12 -->
<g id="node13" class="node">
<title>Node12</title>
<polygon fill="#ffffff" stroke="#bfbfbf" points="656.2119,-.5 656.2119,-18.5 771.1279,-18.5 771.1279,-.5 656.2119,-.5"/>
<text text-anchor="middle" x="713.6699" y="-6.5" font-family="Helvetica,sans-Serif" font-size="10.00" fill="#000000">Epetra_FECrsMatrix.h</text>
</g>
<!-- Node4&#45;&gt;Node12 -->
<g id="edge13" class="edge">
<title>Node4&#45;&gt;Node12</title>
<path fill="none" stroke="#191970" d="M1606.0279,-61.0736C1584.5104,-59.0919 1556.5328,-56.6681 1531.6699,-55 1201.2388,-32.8303 1114.5241,-50.5014 781.6498,-19.1048"/>
<polygon fill="#191970" stroke="#191970" points="781.5106,-15.5759 771.2241,-18.1131 780.8477,-22.5444 781.5106,-15.5759"/>
</g>
<!-- Node13 -->
<g id="node14" class="node">
<title>Node13</title>
<polygon fill="#ffffff" stroke="#bfbfbf" points="788.6948,-.5 788.6948,-18.5 888.645,-18.5 888.645,-.5 788.6948,-.5"/>
<text text-anchor="middle" x="838.6699" y="-6.5" font-family="Helvetica,sans-Serif" font-size="10.00" fill="#000000">Epetra_FEVector.h</text>
</g>
<!-- Node4&#45;&gt;Node13 -->
<g id="edge14" class="edge">
<title>Node4&#45;&gt;Node13</title>
<path fill="none" stroke="#191970" d="M1606.0223,-61.1539C1584.5029,-59.2006 1556.5252,-56.7786 1531.6699,-55 1253.457,-35.0918 1179.9657,-49.1356 898.9204,-19.0273"/>
<polygon fill="#191970" stroke="#191970" points="899.1526,-15.5321 888.8345,-17.9375 898.4006,-22.4916 899.1526,-15.5321"/>
</g>
<!-- Node14 -->
<g id="node15" class="node">
<title>Node14</title>
<polygon fill="#ffffff" stroke="#bfbfbf" points="907.084,-.5 907.084,-18.5 994.2559,-18.5 994.2559,-.5 907.084,-.5"/>
<text text-anchor="middle" x="950.6699" y="-6.5" font-family="Helvetica,sans-Serif" font-size="10.00" fill="#000000">Epetra_Vector.h</text>
</g>
<!-- Node4&#45;&gt;Node14 -->
<g id="edge15" class="edge">
<title>Node4&#45;&gt;Node14</title>
<path fill="none" stroke="#191970" d="M1606.0147,-61.2564C1584.4926,-59.3395 1556.5147,-56.9197 1531.6699,-55 1300.4782,-37.1366 1238.848,-47.4893 1004.4918,-18.9611"/>
<polygon fill="#191970" stroke="#191970" points="1004.6374,-15.4527 994.2853,-17.7075 1003.784,-22.4005 1004.6374,-15.4527"/>
</g>
<!-- Node15 -->
<g id="node16" class="node">
<title>Node15</title>
<polygon fill="#ffffff" stroke="#bfbfbf" points="1012.2612,-.5 1012.2612,-18.5 1091.0786,-18.5 1091.0786,-.5 1012.2612,-.5"/>
<text text-anchor="middle" x="1051.6699" y="-6.5" font-family="Helvetica,sans-Serif" font-size="10.00" fill="#000000">Epetra_Map.h</text>
</g>
<!-- Node4&#45;&gt;Node15 -->
<g id="edge16" class="edge">
<title>Node4&#45;&gt;Node15</title>
<path fill="none" stroke="#191970" d="M1606.0037,-61.3924C1584.4776,-59.5236 1556.4995,-57.1067 1531.6699,-55 1342.975,-38.9896 1292.1942,-45.5116 1101.2513,-19.0896"/>
<polygon fill="#191970" stroke="#191970" points="1101.5509,-15.5976 1091.163,-17.6813 1100.583,-22.5303 1101.5509,-15.5976"/>
</g>
<!-- Node16 -->
<g id="node17" class="node">
<title>Node16</title>
<polygon fill="#ffffff" stroke="#bfbfbf" points="1109.1406,-.5 1109.1406,-18.5 1250.1992,-18.5 1250.1992,-.5 1109.1406,-.5"/>
<text text-anchor="middle" x="1179.6699" y="-6.5" font-family="Helvetica,sans-Serif" font-size="10.00" fill="#000000">Epetra_SerialDenseMatrix.h</text>
</g>
<!-- Node4&#45;&gt;Node16 -->
<g id="edge17" class="edge">
<title>Node4&#45;&gt;Node16</title>
<path fill="none" stroke="#191970" d="M1606.0261,-60.2828C1539.9829,-52.4653 1393.8557,-35.1506 1260.3057,-19.1943"/>
<polygon fill="#191970" stroke="#191970" points="1260.6492,-15.7105 1250.3045,-17.9991 1259.8185,-22.6611 1260.6492,-15.7105"/>
</g>
<!-- Node17 -->
<g id="node18" class="node">
<title>Node17</title>
<polygon fill="#ffffff" stroke="#bfbfbf" points="1267.8477,-.5 1267.8477,-18.5 1409.4922,-18.5 1409.4922,-.5 1267.8477,-.5"/>
<text text-anchor="middle" x="1338.6699" y="-6.5" font-family="Helvetica,sans-Serif" font-size="10.00" fill="#000000">Epetra_SerialDenseVector.h</text>
</g>
<!-- Node4&#45;&gt;Node17 -->
<g id="edge18" class="edge">
<title>Node4&#45;&gt;Node17</title>
<path fill="none" stroke="#191970" d="M1606.021,-58.0291C1554.9705,-48.7625 1460.3875,-31.5939 1398.5032,-20.3608"/>
<polygon fill="#191970" stroke="#191970" points="1398.9494,-16.8847 1388.4851,-18.5424 1397.6992,-23.7722 1398.9494,-16.8847"/>
</g>
<!-- Node18 -->
<g id="node19" class="node">
<title>Node18</title>
<polygon fill="#ffffff" stroke="#bfbfbf" points="1427.2886,-.5 1427.2886,-18.5 1580.0513,-18.5 1580.0513,-.5 1427.2886,-.5"/>
<text text-anchor="middle" x="1503.6699" y="-6.5" font-family="Helvetica,sans-Serif" font-size="10.00" fill="#000000">Epetra_IntSerialDenseVector.h</text>
</g>
<!-- Node4&#45;&gt;Node18 -->
<g id="edge19" class="edge">
<title>Node4&#45;&gt;Node18</title>
<path fill="none" stroke="#191970" d="M1618.882,-55.4179C1596.3092,-46.4215 1561.5247,-32.5581 1536.0803,-22.4172"/>
<polygon fill="#191970" stroke="#191970" points="1537.0769,-19.0467 1526.4917,-18.5956 1534.4853,-25.5493 1537.0769,-19.0467"/>
</g>
<!-- Node19 -->
<g id="node20" class="node">
<title>Node19</title>
<polygon fill="#ffffff" stroke="#bfbfbf" points="1597.8179,-.5 1597.8179,-18.5 1685.522,-18.5 1685.522,-.5 1597.8179,-.5"/>
<text text-anchor="middle" x="1641.6699" y="-6.5" font-family="Helvetica,sans-Serif" font-size="10.00" fill="#000000">Epetra_Import.h</text>
</g>
<!-- Node4&#45;&gt;Node19 -->
<g id="edge20" class="edge">
<title>Node4&#45;&gt;Node19</title>
<path fill="none" stroke="#191970" d="M1641.6699,-55.4179C1641.6699,-48.2164 1641.6699,-37.8962 1641.6699,-28.8632"/>
<polygon fill="#191970" stroke="#191970" points="1645.17,-28.7794 1641.6699,-18.7795 1638.17,-28.7795 1645.17,-28.7794"/>
</g>
<!-- Node20 -->
<g id="node21" class="node">
<title>Node20</title>
<polygon fill="#ffffff" stroke="#bfbfbf" points="1703.5371,-.5 1703.5371,-18.5 1791.8027,-18.5 1791.8027,-.5 1703.5371,-.5"/>
<text text-anchor="middle" x="1747.6699" y="-6.5" font-family="Helvetica,sans-Serif" font-size="10.00" fill="#000000">Epetra_Export.h</text>
</g>
<!-- Node4&#45;&gt;Node20 -->
<g id="edge21" class="edge">
<title>Node4&#45;&gt;Node20</title>
<path fill="none" stroke="#191970" d="M1659.1737,-55.4179C1676.0519,-46.6603 1701.8187,-33.2907 1721.2035,-23.2326"/>
<polygon fill="#191970" stroke="#191970" points="1722.8759,-26.308 1730.1402,-18.5956 1719.6519,-20.0946 1722.8759,-26.308"/>
</g>
<!-- Node21 -->
<g id="node22" class="node">
<title>Node21</title>
<polygon fill="#ffffff" stroke="#bfbfbf" points="1810.0601,-.5 1810.0601,-18.5 1891.2798,-18.5 1891.2798,-.5 1810.0601,-.5"/>
<text text-anchor="middle" x="1850.6699" y="-6.5" font-family="Helvetica,sans-Serif" font-size="10.00" fill="#000000">Epetra_Time.h</text>
</g>
<!-- Node4&#45;&gt;Node21 -->
<g id="edge22" class="edge">
<title>Node4&#45;&gt;Node21</title>
<path fill="none" stroke="#191970" d="M1676.182,-55.4179C1711.8362,-46.0352 1767.6072,-31.3586 1806.4676,-21.1322"/>
<polygon fill="#191970" stroke="#191970" points="1807.6739,-24.434 1816.4539,-18.5042 1805.8924,-17.6645 1807.6739,-24.434"/>
</g>
<!-- Node22 -->
<g id="node23" class="node">
<title>Node22</title>
<polygon fill="#ffffff" stroke="#bfbfbf" points="1908.9658,-.5 1908.9658,-18.5 2058.374,-18.5 2058.374,-.5 1908.9658,-.5"/>
<text text-anchor="middle" x="1983.6699" y="-6.5" font-family="Helvetica,sans-Serif" font-size="10.00" fill="#000000">ml_MultiLevelPreconditioner.h</text>
</g>
<!-- Node4&#45;&gt;Node22 -->
<g id="edge23" class="edge">
<title>Node4&#45;&gt;Node22</title>
<path fill="none" stroke="#191970" d="M1677.3021,-58.7697C1733.9668,-49.6569 1845.5264,-31.7161 1917.2455,-20.1823"/>
<polygon fill="#191970" stroke="#191970" points="1918.2092,-23.5724 1927.5266,-18.5289 1917.0977,-16.6612 1918.2092,-23.5724"/>
</g>
<!-- Node23 -->
<g id="node24" class="node">
<title>Node23</title>
<polygon fill="#ffffff" stroke="#bfbfbf" points="2076.5938,-.5 2076.5938,-18.5 2168.7461,-18.5 2168.7461,-.5 2076.5938,-.5"/>
<text text-anchor="middle" x="2122.6699" y="-6.5" font-family="Helvetica,sans-Serif" font-size="10.00" fill="#000000">ml_epetra_utils.h</text>
</g>
<!-- Node4&#45;&gt;Node23 -->
<g id="edge24" class="edge">
<title>Node4&#45;&gt;Node23</title>
<path fill="none" stroke="#191970" d="M1677.3904,-61.471C1749.0716,-55.2234 1915.7615,-39.8443 2066.151,-19.1352"/>
<polygon fill="#191970" stroke="#191970" points="2067.0669,-22.5417 2076.4903,-17.6993 2066.1039,-15.6083 2067.0669,-22.5417"/>
</g>
<!-- Node24 -->
<g id="node25" class="node">
<title>Node24</title>
<polygon fill="#ffffff" stroke="#bfbfbf" points="2186.5986,-.5 2186.5986,-18.5 2258.7412,-18.5 2258.7412,-.5 2186.5986,-.5"/>
<text text-anchor="middle" x="2222.6699" y="-6.5" font-family="Helvetica,sans-Serif" font-size="10.00" fill="#000000">ml_include.h</text>
</g>
<!-- Node4&#45;&gt;Node24 -->
<g id="edge25" class="edge">
<title>Node4&#45;&gt;Node24</title>
<path fill="none" stroke="#191970" d="M1677.2808,-62.9976C1762.0593,-59.0966 1982.6346,-47.038 2176.3127,-19.0355"/>
<polygon fill="#191970" stroke="#191970" points="2177.0023,-22.472 2186.3899,-17.5604 2175.9883,-15.5458 2177.0023,-22.472"/>
</g>
<!-- Node25 -->
<g id="node26" class="node">
<title>Node25</title>
<polygon fill="#ffffff" stroke="#bfbfbf" points="2277.0913,-.5 2277.0913,-18.5 2414.2485,-18.5 2414.2485,-.5 2277.0913,-.5"/>
<text text-anchor="middle" x="2345.6699" y="-6.5" font-family="Helvetica,sans-Serif" font-size="10.00" fill="#000000">EpetraExt_RowMatrixOut.h</text>
</g>
<!-- Node4&#45;&gt;Node25 -->
<g id="edge26" class="edge">
<title>Node4&#45;&gt;Node25</title>
<path fill="none" stroke="#191970" d="M1677.3648,-62.5155C1771.6847,-57.1416 2035.5536,-41.2656 2266.5086,-19.0681"/>
<polygon fill="#191970" stroke="#191970" points="2267.1698,-22.5206 2276.7863,-18.074 2266.4958,-15.5531 2267.1698,-22.5206"/>
</g>
<!-- Node26 -->
<g id="node27" class="node">
<title>Node26</title>
<polygon fill="#ffffff" stroke="#bfbfbf" points="2431.9707,-.5 2431.9707,-18.5 2571.3691,-18.5 2571.3691,-.5 2431.9707,-.5"/>
<text text-anchor="middle" x="2501.6699" y="-6.5" font-family="Helvetica,sans-Serif" font-size="10.00" fill="#000000">EpetraExt_MultiVectorOut.h</text>
</g>
<!-- Node4&#45;&gt;Node26 -->
<g id="edge27" class="edge">
<title>Node4&#45;&gt;Node26</title>
<path fill="none" stroke="#191970" d="M1677.1922,-63.232C1786.6109,-59.1571 2128.3893,-45.164 2421.9676,-19.1049"/>
<polygon fill="#191970" stroke="#191970" points="2422.3033,-22.5889 2431.9519,-18.2123 2421.6799,-15.6167 2422.3033,-22.5889"/>
</g>
<!-- Node27 -->
<g id="node28" class="node">
<title>Node27</title>
<polygon fill="#ffffff" stroke="#bfbfbf" points="2589.4165,-.5 2589.4165,-18.5 2699.9233,-18.5 2699.9233,-.5 2589.4165,-.5"/>
<text text-anchor="middle" x="2644.6699" y="-6.5" font-family="Helvetica,sans-Serif" font-size="10.00" fill="#000000">EpetraExt_VectorIn.h</text>
</g>
<!-- Node4&#45;&gt;Node27 -->
<g id="edge28" class="edge">
<title>Node4&#45;&gt;Node27</title>
<path fill="none" stroke="#191970" d="M1677.5833,-64.0382C1801.3826,-62.1766 2221.9175,-53.6157 2579.1887,-19.0533"/>
<polygon fill="#191970" stroke="#191970" points="2579.5957,-22.5303 2589.2085,-18.0755 2578.9158,-15.5634 2579.5957,-22.5303"/>
</g>
<!-- Node28 -->
<g id="node29" class="node">
<title>Node28</title>
<polygon fill="#ffffff" stroke="#bfbfbf" points="2717.8599,-.5 2717.8599,-18.5 2849.48,-18.5 2849.48,-.5 2717.8599,-.5"/>
<text text-anchor="middle" x="2783.6699" y="-6.5" font-family="Helvetica,sans-Serif" font-size="10.00" fill="#000000">EpetraExt_MultiVectorIn.h</text>
</g>
<!-- Node4&#45;&gt;Node28 -->
<g id="edge29" class="edge">
<title>Node4&#45;&gt;Node28</title>
<path fill="none" stroke="#191970" d="M1677.1984,-64.0596C1810.8936,-62.1765 2296.6097,-53.2978 2707.8473,-18.9929"/>
<polygon fill="#191970" stroke="#191970" points="2708.181,-22.4773 2717.8527,-18.152 2707.5946,-15.5019 2708.181,-22.4773"/>
</g>
<!-- Node29 -->
<g id="node30" class="node">
<title>Node29</title>
<polygon fill="#ffffff" stroke="#bfbfbf" points="2867.6226,-.5 2867.6226,-18.5 2965.7173,-18.5 2965.7173,-.5 2867.6226,-.5"/>
<text text-anchor="middle" x="2916.6699" y="-6.5" font-family="Helvetica,sans-Serif" font-size="10.00" fill="#000000">Teuchos_RCP.hpp</text>
</g>
<!-- Node4&#45;&gt;Node29 -->
<g id="edge30" class="edge">
<title>Node4&#45;&gt;Node29</title>
<path fill="none" stroke="#191970" d="M1677.2245,-63.7716C1849.6255,-60.1489 2600.3841,-43.3107 2857.3331,-18.9851"/>
<polygon fill="#191970" stroke="#191970" points="2857.7517,-22.4609 2867.3645,-18.0061 2857.0718,-15.494 2857.7517,-22.4609"/>
</g>
<!-- Node30 -->
<g id="node31" class="node">
<title>Node30</title>
<polygon fill="#ffffff" stroke="#bfbfbf" points="2983.4385,-.5 2983.4385,-18.5 3043.9014,-18.5 3043.9014,-.5 2983.4385,-.5"/>
<text text-anchor="middle" x="3013.6699" y="-6.5" font-family="Helvetica,sans-Serif" font-size="10.00" fill="#000000">Amesos.h</text>
</g>
<!-- Node4&#45;&gt;Node30 -->
<g id="edge31" class="edge">
<title>Node4&#45;&gt;Node30</title>
<path fill="none" stroke="#191970" d="M1677.2416,-64.2712C1859.7245,-62.9492 2692.7484,-55.0844 2972.9927,-18.9201"/>
<polygon fill="#191970" stroke="#191970" points="2973.6784,-22.3597 2983.1269,-17.5664 2972.7514,-15.4214 2973.6784,-22.3597"/>
</g>
<!-- Node31 -->
<g id="node32" class="node">
<title>Node31</title>
<polygon fill="#ffffff" stroke="#bfbfbf" points="3062.2168,-.5 3062.2168,-18.5 3127.123,-18.5 3127.123,-.5 3062.2168,-.5"/>
<text text-anchor="middle" x="3094.6699" y="-6.5" font-family="Helvetica,sans-Serif" font-size="10.00" fill="#000000">AztecOO.h</text>
</g>
<!-- Node4&#45;&gt;Node31 -->
<g id="edge32" class="edge">
<title>Node4&#45;&gt;Node31</title>
<path fill="none" stroke="#191970" d="M1677.403,-64.2688C1866.6156,-62.906 2753.7813,-54.7559 3051.4233,-18.8545"/>
<polygon fill="#191970" stroke="#191970" points="3052.2705,-22.276 3061.7606,-17.5656 3051.4043,-15.3298 3052.2705,-22.276"/>
</g>
<!-- Node32 -->
<g id="node33" class="node">
<title>Node32</title>
<polygon fill="#ffffff" stroke="#bfbfbf" points="3145.3623,-.5 3145.3623,-18.5 3261.9775,-18.5 3261.9775,-.5 3145.3623,-.5"/>
<text text-anchor="middle" x="3203.6699" y="-6.5" font-family="Helvetica,sans-Serif" font-size="10.00" fill="#000000">Amesos_BaseSolver.h</text>
</g>
<!-- Node4&#45;&gt;Node32 -->
<g id="edge33" class="edge">
<title>Node4&#45;&gt;Node32</title>
<path fill="none" stroke="#191970" d="M1677.4899,-63.937C1873.5124,-60.7766 2818.6729,-44.497 3135.0283,-18.9278"/>
<polygon fill="#191970" stroke="#191970" points="3135.4335,-22.4063 3145.1099,-18.0916 3134.8548,-15.4303 3135.4335,-22.4063"/>
</g>
<!-- Node33 -->
<g id="node34" class="node">
<title>Node33</title>
<polygon fill="#ffffff" stroke="#bfbfbf" points="3279.5542,-.5 3279.5542,-18.5 3327.7856,-18.5 3327.7856,-.5 3279.5542,-.5"/>
<text text-anchor="middle" x="3303.6699" y="-6.5" font-family="Helvetica,sans-Serif" font-size="10.00" fill="#000000">metis.h</text>
</g>
<!-- Node4&#45;&gt;Node33 -->
<g id="edge34" class="edge">
<title>Node4&#45;&gt;Node33</title>
<path fill="none" stroke="#191970" d="M1677.2997,-64.0442C1897.1531,-61.1614 3066.2903,-44.7927 3269.3544,-18.6651"/>
<polygon fill="#191970" stroke="#191970" points="3269.9058,-22.1221 3279.3156,-17.2533 3268.9234,-15.1913 3269.9058,-22.1221"/>
</g>
<!-- Node34 -->
<g id="node35" class="node">
<title>Node34</title>
<g id="a_node35"><a xlink:href="../../d4/dbc/fepp_8hpp.html" target="_top" xlink:title="fepp.hpp">
<polygon fill="#ffffff" stroke="#000000" points="3346.207,-.5 3346.207,-18.5 3401.1328,-18.5 3401.1328,-.5 3346.207,-.5"/>
<text text-anchor="middle" x="3373.6699" y="-6.5" font-family="Helvetica,sans-Serif" font-size="10.00" fill="#000000">fepp.hpp</text>
</a>
</g>
</g>
<!-- Node4&#45;&gt;Node34 -->
<g id="edge35" class="edge">
<title>Node4&#45;&gt;Node34</title>
<path fill="none" stroke="#191970" d="M1677.5469,-63.989C1906.5834,-60.7677 3158.7623,-42.6448 3327.6699,-19 3330.4408,-18.6121 3333.3032,-18.0941 3336.192,-17.4993"/>
<polygon fill="#191970" stroke="#191970" points="3337.0488,-20.8939 3346.0211,-15.2593 3335.4934,-14.0689 3337.0488,-20.8939"/>
</g>
<!-- Node34&#45;&gt;Node4 -->
<g id="edge36" class="edge">
<title>Node34&#45;&gt;Node4</title>
<path fill="none" stroke="#191970" d="M3348.8541,-18.5054C3347.7848,-18.6871 3346.7208,-18.8529 3345.6699,-19 3177.9034,-42.485 1941.4531,-60.5226 1687.2432,-63.9217"/>
<polygon fill="#191970" stroke="#191970" points="1687.1963,-60.4219 1677.2437,-64.0546 1687.2894,-67.4213 1687.1963,-60.4219"/>
</g>
<!-- Node36 -->
<g id="node37" class="node">
<title>Node36</title>
<g id="a_node37"><a xlink:href="../../d9/dea/_linear___finite___element___problem_8hpp.html" target="_top" xlink:title="Linear_Finite_Element\l_Problem.hpp">
<polygon fill="#ffffff" stroke="#000000" points="1583.6406,-110.5 1583.6406,-138.5 1699.6992,-138.5 1699.6992,-110.5 1583.6406,-110.5"/>
<text text-anchor="start" x="1591.6406" y="-126.5" font-family="Helvetica,sans-Serif" font-size="10.00" fill="#000000">Linear_Finite_Element</text>
<text text-anchor="middle" x="1641.6699" y="-116.5" font-family="Helvetica,sans-Serif" font-size="10.00" fill="#000000">_Problem.hpp</text>
</a>
</g>
</g>
<!-- Node35&#45;&gt;Node36 -->
<g id="edge38" class="edge">
<title>Node35&#45;&gt;Node36</title>
<path fill="none" stroke="#191970" d="M1625.3118,-180.462C1627.7163,-172.2361 1631.3759,-159.7165 1634.6244,-148.6031"/>
<polygon fill="#191970" stroke="#191970" points="1637.998,-149.5362 1637.4444,-138.9559 1631.2792,-147.5722 1637.998,-149.5362"/>
</g>
<!-- Node36&#45;&gt;Node4 -->
<g id="edge39" class="edge">
<title>Node36&#45;&gt;Node4</title>
<path fill="none" stroke="#191970" d="M1641.6699,-110.2808C1641.6699,-102.3776 1641.6699,-92.4316 1641.6699,-83.8308"/>
<polygon fill="#191970" stroke="#191970" points="1645.17,-83.5842 1641.6699,-73.5842 1638.17,-83.5842 1645.17,-83.5842"/>
</g>
</g>
</svg>
        <g id="navigator" transform="translate(0 0)" fill="#404254">
                <rect fill="#f2f5e9" fill-opacity="0.5" stroke="#606060" stroke-width=".5" x="0" y="0" width="60" height="60"/>
                <use id="zoomplus" xlink:href="#zoomPlus" x="17" y="9" onmousedown="handleZoom(evt,'in')"/>
                <use id="zoomminus" xlink:href="#zoomMin" x="42" y="9" onmousedown="handleZoom(evt,'out')"/>
                <use id="reset" xlink:href="#resetDef" x="30" y="36" onmousedown="handleReset()"/>
                <g id="arrowUp" xlink:href="#dirArrow" transform="translate(30 24)" onmousedown="handlePan(0,-1)">
                  <use xlink:href="#rim" fill="#404040">
                        <set attributeName="fill" to="#808080" begin="arrowUp.mouseover" end="arrowUp.mouseout"/>
                  </use>
                  <path fill="none" stroke="white" stroke-width="1.5" d="M0,-3.0v7 M-2.5,-0.5L0,-3.0L2.5,-0.5"/>
                </g>
                <g id="arrowRight" xlink:href="#dirArrow" transform="rotate(90) translate(36 -43)" onmousedown="handlePan(1,0)">
                  <use xlink:href="#rim" fill="#404040">
                        <set attributeName="fill" to="#808080" begin="arrowRight.mouseover" end="arrowRight.mouseout"/>
                  </use>
                  <path fill="none" stroke="white" stroke-width="1.5" d="M0,-3.0v7 M-2.5,-0.5L0,-3.0L2.5,-0.5"/>
                </g>
                <g id="arrowDown" xlink:href="#dirArrow" transform="rotate(180) translate(-30 -48)" onmousedown="handlePan(0,1)">
                  <use xlink:href="#rim" fill="#404040">
                        <set attributeName="fill" to="#808080" begin="arrowDown.mouseover" end="arrowDown.mouseout"/>
                  </use>
                  <path fill="none" stroke="white" stroke-width="1.5" d="M0,-3.0v7 M-2.5,-0.5L0,-3.0L2.5,-0.5"/>
                </g>
                <g id="arrowLeft" xlink:href="#dirArrow" transform="rotate(270) translate(-36 17)" onmousedown="handlePan(-1,0)">
                  <use xlink:href="#rim" fill="#404040">
                        <set attributeName="fill" to="#808080" begin="arrowLeft.mouseover" end="arrowLeft.mouseout"/>
                  </use>
                  <path fill="none" stroke="white" stroke-width="1.5" d="M0,-3.0v7 M-2.5,-0.5L0,-3.0L2.5,-0.5"/>
                </g>
        </g>
        <svg viewBox="0 0 15 15" width="100%" height="30px" preserveAspectRatio="xMaxYMin meet">
         <g id="arrow_out" transform="scale(0.3 0.3)">
          <a xlink:href="examples_2laplace__stratimikos_2main_8cpp__incl_org.svg" target="_base">
           <rect id="button" ry="5" rx="5" y="6" x="6" height="38" width="38"
                fill="#f2f5e9" fill-opacity="0.5" stroke="#606060" stroke-width="1.0"/>
           <path id="arrow"
             d="M 11.500037,31.436501 C 11.940474,20.09759 22.043105,11.32322 32.158766,21.979434 L 37.068811,17.246167 C 37.068811,17.246167 37.088388,32 37.088388,32 L 22.160133,31.978069 C 22.160133,31.978069 26.997745,27.140456 26.997745,27.140456 C 18.528582,18.264221 13.291696,25.230495 11.500037,31.436501 z"
             style="fill:#404040;"/>
          </a>
         </g>
        </svg>
</svg>
