<?xml version="1.0" encoding="UTF-8" standalone="no"?>
<!DOCTYPE svg PUBLIC "-//W3C//DTD SVG 1.1//EN"
 "http://www.w3.org/Graphics/SVG/1.1/DTD/svg11.dtd">
<!-- Generated by graphviz version 2.40.1 (20161225.0304)
 -->
<!-- Title: examples/mesh/main.cpp Pages: 1 -->
<!--zoomable 140 -->
<svg id="main" version="1.1" xmlns="http://www.w3.org/2000/svg" xmlns:xlink="http://www.w3.org/1999/xlink" xml:space="preserve" onload="init(evt)">
<style type="text/css"><![CDATA[
.edge:hover path { stroke: red; }
.edge:hover polygon { stroke: red; fill: red; }
]]></style>
<script type="text/javascript"><![CDATA[
var edges = document.getElementsByTagName('g');
if (edges && edges.length) {
  for (var i=0;i<edges.length;i++) {
    if (edges[i].id.substr(0,4)=='edge') {
      edges[i].setAttribute('class','edge');
    }
  }
}
]]></script>
        <defs>
                <circle id="rim" cx="0" cy="0" r="7"/>
                <circle id="rim2" cx="0" cy="0" r="3.5"/>
                <g id="zoomPlus">
                        <use xlink:href="#rim" fill="#404040">
                                <set attributeName="fill" to="#808080" begin="zoomplus.mouseover" end="zoomplus.mouseout"/>
                        </use>
                        <path d="M-4,0h8M0,-4v8" fill="none" stroke="white" stroke-width="1.5" pointer-events="none"/>
                </g>
                <g id="zoomMin">
                        <use xlink:href="#rim" fill="#404040">
                                <set attributeName="fill" to="#808080" begin="zoomminus.mouseover" end="zoomminus.mouseout"/>
                        </use>
                        <path d="M-4,0h8" fill="none" stroke="white" stroke-width="1.5" pointer-events="none"/>
                </g>
                <g id="dirArrow">
                        <path fill="none" stroke="white" stroke-width="1.5" d="M0,-3.0v7 M-2.5,-0.5L0,-3.0L2.5,-0.5"/>
                </g>
               <g id="resetDef">
                       <use xlink:href="#rim2" fill="#404040">
                               <set attributeName="fill" to="#808080" begin="reset.mouseover" end="reset.mouseout"/>
                       </use>
               </g>
        </defs>

<script type="text/javascript">
var viewWidth = 3399;
var viewHeight = 140;
var sectionId = 'dynsection-0';
</script>
<script xlink:href="../../svgpan.js"/>
<svg id="graph" class="graph">
<g id="viewport">
<title>examples/mesh/main.cpp</title>
<polygon fill="#ffffff" stroke="transparent" points="-4,4 -4,-136 3395,-136 3395,4 -4,4"/>
<!-- Node0 -->
<g id="node1" class="node">
<title>Node0</title>
<polygon fill="#bfbfbf" stroke="#000000" points="1513,-112.5 1513,-131.5 1641,-131.5 1641,-112.5 1513,-112.5"/>
<text text-anchor="middle" x="1577" y="-119.5" font-family="Helvetica,sans-Serif" font-size="10.00" fill="#000000">examples/mesh/main.cpp</text>
</g>
<!-- Node1 -->
<g id="node2" class="node">
<title>Node1</title>
<polygon fill="#ffffff" stroke="#bfbfbf" points="1394,-56.5 1394,-75.5 1502,-75.5 1502,-56.5 1394,-56.5"/>
<text text-anchor="middle" x="1448" y="-63.5" font-family="Helvetica,sans-Serif" font-size="10.00" fill="#000000">Epetra_ConfigDefs.h</text>
</g>
<!-- Node0&#45;&gt;Node1 -->
<g id="edge1" class="edge">
<title>Node0&#45;&gt;Node1</title>
<path fill="none" stroke="#191970" d="M1554.8241,-112.3733C1534.0234,-103.3435 1502.7083,-89.7494 1479.3542,-79.6111"/>
<polygon fill="#191970" stroke="#191970" points="1480.4532,-76.2727 1469.8865,-75.5011 1477.6657,-82.6938 1480.4532,-76.2727"/>
</g>
<!-- Node2 -->
<g id="node3" class="node">
<title>Node2</title>
<polygon fill="#ffffff" stroke="#bfbfbf" points="1520.5,-56.5 1520.5,-75.5 1633.5,-75.5 1633.5,-56.5 1520.5,-56.5"/>
<text text-anchor="middle" x="1577" y="-63.5" font-family="Helvetica,sans-Serif" font-size="10.00" fill="#000000">Epetra_SerialComm.h</text>
</g>
<!-- Node0&#45;&gt;Node2 -->
<g id="edge2" class="edge">
<title>Node0&#45;&gt;Node2</title>
<path fill="none" stroke="#191970" d="M1577,-112.2455C1577,-104.9382 1577,-94.6944 1577,-85.7046"/>
<polygon fill="#191970" stroke="#191970" points="1580.5001,-85.6426 1577,-75.6427 1573.5001,-85.6427 1580.5001,-85.6426"/>
</g>
<!-- Node3 -->
<g id="node4" class="node">
<title>Node3</title>
<g id="a_node4"><a xlink:href="../../d0/d02/meshpp_8hpp.html" target="_top" xlink:title="meshpp.hpp">
<polygon fill="#ffffff" stroke="#000000" points="1652,-56.5 1652,-75.5 1722,-75.5 1722,-56.5 1652,-56.5"/>
<text text-anchor="middle" x="1687" y="-63.5" font-family="Helvetica,sans-Serif" font-size="10.00" fill="#000000">meshpp.hpp</text>
</a>
</g>
</g>
<!-- Node0&#45;&gt;Node3 -->
<g id="edge3" class="edge">
<title>Node0&#45;&gt;Node3</title>
<path fill="none" stroke="#191970" d="M1596.1605,-112.2455C1613.5111,-103.4125 1639.2901,-90.2887 1658.9583,-80.2758"/>
<polygon fill="#191970" stroke="#191970" points="1660.7353,-83.2986 1668.059,-75.6427 1657.5595,-77.0605 1660.7353,-83.2986"/>
</g>
<!-- Node4 -->
<g id="node5" class="node">
<title>Node4</title>
<polygon fill="#ffffff" stroke="#bfbfbf" points="0,-.5 0,-19.5 46,-19.5 46,-.5 0,-.5"/>
<text text-anchor="middle" x="23" y="-7.5" font-family="Helvetica,sans-Serif" font-size="10.00" fill="#000000">stdio.h</text>
</g>
<!-- Node3&#45;&gt;Node4 -->
<g id="edge4" class="edge">
<title>Node3&#45;&gt;Node4</title>
<path fill="none" stroke="#191970" d="M1651.7399,-57.4792C1648.4614,-56.8945 1645.178,-56.3854 1642,-56 1295.0568,-13.9283 419.5374,-75.9979 56.3047,-19.7012"/>
<polygon fill="#191970" stroke="#191970" points="56.6639,-16.2142 46.2361,-18.0884 55.5566,-23.1261 56.6639,-16.2142"/>
</g>
<!-- Node5 -->
<g id="node6" class="node">
<title>Node5</title>
<polygon fill="#ffffff" stroke="#bfbfbf" points="64,-.5 64,-19.5 118,-19.5 118,-.5 64,-.5"/>
<text text-anchor="middle" x="91" y="-7.5" font-family="Helvetica,sans-Serif" font-size="10.00" fill="#000000">iostream</text>
</g>
<!-- Node3&#45;&gt;Node5 -->
<g id="edge5" class="edge">
<title>Node3&#45;&gt;Node5</title>
<path fill="none" stroke="#191970" d="M1651.7394,-57.4828C1648.4611,-56.8973 1645.1777,-56.3871 1642,-56 1310.8922,-15.6676 476.2065,-68.4204 128.2652,-19.7841"/>
<polygon fill="#191970" stroke="#191970" points="128.7647,-16.32 118.3668,-18.3532 127.7631,-23.248 128.7647,-16.32"/>
</g>
<!-- Node6 -->
<g id="node7" class="node">
<title>Node6</title>
<polygon fill="#ffffff" stroke="#bfbfbf" points="136.5,-.5 136.5,-19.5 185.5,-19.5 185.5,-.5 136.5,-.5"/>
<text text-anchor="middle" x="161" y="-7.5" font-family="Helvetica,sans-Serif" font-size="10.00" fill="#000000">istream</text>
</g>
<!-- Node3&#45;&gt;Node6 -->
<g id="edge6" class="edge">
<title>Node3&#45;&gt;Node6</title>
<path fill="none" stroke="#191970" d="M1651.739,-57.4866C1648.4607,-56.9003 1645.1775,-56.3889 1642,-56 1326.0006,-17.329 529.3346,-68.7295 195.9239,-19.6376"/>
<polygon fill="#191970" stroke="#191970" points="196.1252,-16.1279 185.7116,-18.0793 195.0692,-23.0478 196.1252,-16.1279"/>
</g>
<!-- Node7 -->
<g id="node8" class="node">
<title>Node7</title>
<polygon fill="#ffffff" stroke="#bfbfbf" points="204,-.5 204,-19.5 254,-19.5 254,-.5 204,-.5"/>
<text text-anchor="middle" x="229" y="-7.5" font-family="Helvetica,sans-Serif" font-size="10.00" fill="#000000">fstream</text>
</g>
<!-- Node3&#45;&gt;Node7 -->
<g id="edge7" class="edge">
<title>Node3&#45;&gt;Node7</title>
<path fill="none" stroke="#191970" d="M1651.7384,-57.4908C1648.4603,-56.9036 1645.1773,-56.3908 1642,-56 1036.905,18.4262 870.5107,-113.8017 264.3947,-19.7824"/>
<polygon fill="#191970" stroke="#191970" points="264.5055,-16.2572 254.0844,-18.168 263.4225,-23.1729 264.5055,-16.2572"/>
</g>
<!-- Node8 -->
<g id="node9" class="node">
<title>Node8</title>
<polygon fill="#ffffff" stroke="#bfbfbf" points="272,-.5 272,-19.5 316,-19.5 316,-.5 272,-.5"/>
<text text-anchor="middle" x="294" y="-7.5" font-family="Helvetica,sans-Serif" font-size="10.00" fill="#000000">vector</text>
</g>
<!-- Node3&#45;&gt;Node8 -->
<g id="edge8" class="edge">
<title>Node3&#45;&gt;Node8</title>
<path fill="none" stroke="#191970" d="M1651.7379,-57.495C1648.4599,-56.9069 1645.177,-56.3928 1642,-56 1354.699,-20.4831 630.0879,-68.3437 326.3465,-19.6796"/>
<polygon fill="#191970" stroke="#191970" points="326.6,-16.1737 316.1609,-17.9838 325.4503,-23.0787 326.6,-16.1737"/>
</g>
<!-- Node9 -->
<g id="node10" class="node">
<title>Node9</title>
<polygon fill="#ffffff" stroke="#bfbfbf" points="334,-.5 334,-19.5 384,-19.5 384,-.5 334,-.5"/>
<text text-anchor="middle" x="359" y="-7.5" font-family="Helvetica,sans-Serif" font-size="10.00" fill="#000000">iomanip</text>
</g>
<!-- Node3&#45;&gt;Node9 -->
<g id="edge9" class="edge">
<title>Node3&#45;&gt;Node9</title>
<path fill="none" stroke="#191970" d="M1651.7373,-57.5C1648.4594,-56.9109 1645.1768,-56.3951 1642,-56 1094.2683,12.1255 943.3128,-105.6154 394.2463,-19.7649"/>
<polygon fill="#191970" stroke="#191970" points="394.5092,-16.2631 384.0856,-18.1601 393.4172,-23.1774 394.5092,-16.2631"/>
</g>
<!-- Node10 -->
<g id="node11" class="node">
<title>Node10</title>
<polygon fill="#ffffff" stroke="#bfbfbf" points="402,-.5 402,-19.5 506,-19.5 506,-.5 402,-.5"/>
<text text-anchor="middle" x="454" y="-7.5" font-family="Helvetica,sans-Serif" font-size="10.00" fill="#000000">Epetra_MpiComm.h</text>
</g>
<!-- Node3&#45;&gt;Node10 -->
<g id="edge10" class="edge">
<title>Node3&#45;&gt;Node10</title>
<path fill="none" stroke="#191970" d="M1651.736,-57.5106C1648.4584,-56.9193 1645.1761,-56.4001 1642,-56 1148.0621,6.2167 1015.5214,-67.6536 516.1736,-19.9798"/>
<polygon fill="#191970" stroke="#191970" points="516.4749,-16.4927 506.1846,-19.0146 515.8016,-23.4603 516.4749,-16.4927"/>
</g>
<!-- Node11 -->
<g id="node12" class="node">
<title>Node11</title>
<polygon fill="#ffffff" stroke="#bfbfbf" points="524.5,-.5 524.5,-19.5 637.5,-19.5 637.5,-.5 524.5,-.5"/>
<text text-anchor="middle" x="581" y="-7.5" font-family="Helvetica,sans-Serif" font-size="10.00" fill="#000000">Epetra_FECrsGraph.h</text>
</g>
<!-- Node3&#45;&gt;Node11 -->
<g id="edge11" class="edge">
<title>Node3&#45;&gt;Node11</title>
<path fill="none" stroke="#191970" d="M1651.7342,-57.5249C1648.4569,-56.9306 1645.1753,-56.4068 1642,-56 1206.3976,-.1945 1089.3549,-60.2892 647.9857,-19.972"/>
<polygon fill="#191970" stroke="#191970" points="648.1111,-16.4687 637.831,-19.0319 647.4658,-23.4389 648.1111,-16.4687"/>
</g>
<!-- Node12 -->
<g id="node13" class="node">
<title>Node12</title>
<polygon fill="#ffffff" stroke="#bfbfbf" points="656,-.5 656,-19.5 770,-19.5 770,-.5 656,-.5"/>
<text text-anchor="middle" x="713" y="-7.5" font-family="Helvetica,sans-Serif" font-size="10.00" fill="#000000">Epetra_FECrsMatrix.h</text>
</g>
<!-- Node3&#45;&gt;Node12 -->
<g id="edge12" class="edge">
<title>Node3&#45;&gt;Node12</title>
<path fill="none" stroke="#191970" d="M1651.7317,-57.5437C1648.455,-56.9454 1645.1741,-56.4156 1642,-56 1264.6117,-6.5922 1162.8539,-55.9505 780.1483,-20.0025"/>
<polygon fill="#191970" stroke="#191970" points="780.477,-16.5181 770.1902,-19.0539 779.8132,-23.4866 780.477,-16.5181"/>
</g>
<!-- Node13 -->
<g id="node14" class="node">
<title>Node13</title>
<polygon fill="#ffffff" stroke="#bfbfbf" points="788,-.5 788,-19.5 888,-19.5 888,-.5 788,-.5"/>
<text text-anchor="middle" x="838" y="-7.5" font-family="Helvetica,sans-Serif" font-size="10.00" fill="#000000">Epetra_FEVector.h</text>
</g>
<!-- Node3&#45;&gt;Node13 -->
<g id="edge13" class="edge">
<title>Node3&#45;&gt;Node13</title>
<path fill="none" stroke="#191970" d="M1651.7288,-57.566C1648.4527,-56.9631 1645.1728,-56.426 1642,-56 1316.8201,-12.3364 1228.3701,-54.8713 898.4863,-20.0285"/>
<polygon fill="#191970" stroke="#191970" points="898.4713,-16.5069 888.1551,-18.9205 897.7248,-23.467 898.4713,-16.5069"/>
</g>
<!-- Node14 -->
<g id="node15" class="node">
<title>Node14</title>
<polygon fill="#ffffff" stroke="#bfbfbf" points="906.5,-.5 906.5,-19.5 993.5,-19.5 993.5,-.5 906.5,-.5"/>
<text text-anchor="middle" x="950" y="-7.5" font-family="Helvetica,sans-Serif" font-size="10.00" fill="#000000">Epetra_Vector.h</text>
</g>
<!-- Node3&#45;&gt;Node14 -->
<g id="edge14" class="edge">
<title>Node3&#45;&gt;Node14</title>
<path fill="none" stroke="#191970" d="M1651.7251,-57.5928C1648.4498,-56.9842 1645.171,-56.4386 1642,-56 1363.0992,-17.4276 1286.5261,-54.0987 1003.7716,-20.0691"/>
<polygon fill="#191970" stroke="#191970" points="1003.9764,-16.5681 993.6255,-18.8285 1003.1268,-23.5164 1003.9764,-16.5681"/>
</g>
<!-- Node15 -->
<g id="node16" class="node">
<title>Node15</title>
<polygon fill="#ffffff" stroke="#bfbfbf" points="1011.5,-.5 1011.5,-19.5 1088.5,-19.5 1088.5,-.5 1011.5,-.5"/>
<text text-anchor="middle" x="1050" y="-7.5" font-family="Helvetica,sans-Serif" font-size="10.00" fill="#000000">Epetra_Map.h</text>
</g>
<!-- Node3&#45;&gt;Node15 -->
<g id="edge15" class="edge">
<title>Node3&#45;&gt;Node15</title>
<path fill="none" stroke="#191970" d="M1651.7205,-57.6258C1648.4461,-57.0103 1645.1689,-56.454 1642,-56 1404.9893,-22.0405 1339.2389,-52.4886 1098.7529,-20.0682"/>
<polygon fill="#191970" stroke="#191970" points="1099.0336,-16.5741 1088.6509,-18.6835 1098.0829,-23.5092 1099.0336,-16.5741"/>
</g>
<!-- Node16 -->
<g id="node17" class="node">
<title>Node16</title>
<polygon fill="#ffffff" stroke="#bfbfbf" points="1106.5,-.5 1106.5,-19.5 1245.5,-19.5 1245.5,-.5 1106.5,-.5"/>
<text text-anchor="middle" x="1176" y="-7.5" font-family="Helvetica,sans-Serif" font-size="10.00" fill="#000000">Epetra_SerialDenseMatrix.h</text>
</g>
<!-- Node3&#45;&gt;Node16 -->
<g id="edge16" class="edge">
<title>Node3&#45;&gt;Node16</title>
<path fill="none" stroke="#191970" d="M1651.7069,-57.7164C1648.4354,-57.0819 1645.1625,-56.4965 1642,-56 1474.5971,-29.7205 1428.4568,-38.4952 1255.9624,-20.0639"/>
<polygon fill="#191970" stroke="#191970" points="1256.091,-16.5574 1245.772,-18.9593 1255.3366,-23.5167 1256.091,-16.5574"/>
</g>
<!-- Node17 -->
<g id="node18" class="node">
<title>Node17</title>
<polygon fill="#ffffff" stroke="#bfbfbf" points="1264,-.5 1264,-19.5 1404,-19.5 1404,-.5 1264,-.5"/>
<text text-anchor="middle" x="1334" y="-7.5" font-family="Helvetica,sans-Serif" font-size="10.00" fill="#000000">Epetra_SerialDenseVector.h</text>
</g>
<!-- Node3&#45;&gt;Node17 -->
<g id="edge17" class="edge">
<title>Node3&#45;&gt;Node17</title>
<path fill="none" stroke="#191970" d="M1651.6748,-57.9034C1648.4101,-57.2297 1645.1475,-56.584 1642,-56 1565.0832,-41.7282 1476.7194,-28.8942 1414.4211,-20.432"/>
<polygon fill="#191970" stroke="#191970" points="1414.6441,-16.9304 1404.2655,-19.0599 1413.7068,-23.8674 1414.6441,-16.9304"/>
</g>
<!-- Node18 -->
<g id="node19" class="node">
<title>Node18</title>
<polygon fill="#ffffff" stroke="#bfbfbf" points="1422,-.5 1422,-19.5 1574,-19.5 1574,-.5 1422,-.5"/>
<text text-anchor="middle" x="1498" y="-7.5" font-family="Helvetica,sans-Serif" font-size="10.00" fill="#000000">Epetra_IntSerialDenseVector.h</text>
</g>
<!-- Node3&#45;&gt;Node18 -->
<g id="edge18" class="edge">
<title>Node3&#45;&gt;Node18</title>
<path fill="none" stroke="#191970" d="M1654.5097,-56.3733C1622.8098,-46.9807 1574.4424,-32.6496 1539.8714,-22.4064"/>
<polygon fill="#191970" stroke="#191970" points="1540.6486,-18.9863 1530.0663,-19.5011 1538.6599,-25.6979 1540.6486,-18.9863"/>
</g>
<!-- Node19 -->
<g id="node20" class="node">
<title>Node19</title>
<polygon fill="#ffffff" stroke="#bfbfbf" points="1592,-.5 1592,-19.5 1678,-19.5 1678,-.5 1592,-.5"/>
<text text-anchor="middle" x="1635" y="-7.5" font-family="Helvetica,sans-Serif" font-size="10.00" fill="#000000">Epetra_Import.h</text>
</g>
<!-- Node3&#45;&gt;Node19 -->
<g id="edge19" class="edge">
<title>Node3&#45;&gt;Node19</title>
<path fill="none" stroke="#191970" d="M1677.9423,-56.2455C1670.4858,-48.2155 1659.7366,-36.6394 1650.8583,-27.0781"/>
<polygon fill="#191970" stroke="#191970" points="1653.3232,-24.589 1643.9539,-19.6427 1648.1937,-29.3522 1653.3232,-24.589"/>
</g>
<!-- Node20 -->
<g id="node21" class="node">
<title>Node20</title>
<polygon fill="#ffffff" stroke="#bfbfbf" points="1696.5,-.5 1696.5,-19.5 1783.5,-19.5 1783.5,-.5 1696.5,-.5"/>
<text text-anchor="middle" x="1740" y="-7.5" font-family="Helvetica,sans-Serif" font-size="10.00" fill="#000000">Epetra_Export.h</text>
</g>
<!-- Node3&#45;&gt;Node20 -->
<g id="edge20" class="edge">
<title>Node3&#45;&gt;Node20</title>
<path fill="none" stroke="#191970" d="M1696.2319,-56.2455C1703.8317,-48.2155 1714.7877,-36.6394 1723.8368,-27.0781"/>
<polygon fill="#191970" stroke="#191970" points="1726.5421,-29.3115 1730.8739,-19.6427 1721.458,-24.4998 1726.5421,-29.3115"/>
</g>
<!-- Node21 -->
<g id="node22" class="node">
<title>Node21</title>
<polygon fill="#ffffff" stroke="#bfbfbf" points="1802,-.5 1802,-19.5 1882,-19.5 1882,-.5 1802,-.5"/>
<text text-anchor="middle" x="1842" y="-7.5" font-family="Helvetica,sans-Serif" font-size="10.00" fill="#000000">Epetra_Time.h</text>
</g>
<!-- Node3&#45;&gt;Node21 -->
<g id="edge21" class="edge">
<title>Node3&#45;&gt;Node21</title>
<path fill="none" stroke="#191970" d="M1713.6454,-56.3733C1739.1964,-47.1419 1777.9512,-33.1402 1806.1909,-22.9375"/>
<polygon fill="#191970" stroke="#191970" points="1807.4865,-26.1909 1815.7022,-19.5011 1805.1079,-19.6074 1807.4865,-26.1909"/>
</g>
<!-- Node22 -->
<g id="node23" class="node">
<title>Node22</title>
<polygon fill="#ffffff" stroke="#bfbfbf" points="1900.5,-.5 1900.5,-19.5 2047.5,-19.5 2047.5,-.5 1900.5,-.5"/>
<text text-anchor="middle" x="1974" y="-7.5" font-family="Helvetica,sans-Serif" font-size="10.00" fill="#000000">ml_MultiLevelPreconditioner.h</text>
</g>
<!-- Node3&#45;&gt;Node22 -->
<g id="edge22" class="edge">
<title>Node3&#45;&gt;Node22</title>
<path fill="none" stroke="#191970" d="M1722.1918,-59.1333C1770.2012,-49.7656 1856.8791,-32.8529 1914.9369,-21.5245"/>
<polygon fill="#191970" stroke="#191970" points="1915.9259,-24.8976 1925.0704,-19.5472 1914.5852,-18.0272 1915.9259,-24.8976"/>
</g>
<!-- Node23 -->
<g id="node24" class="node">
<title>Node23</title>
<polygon fill="#ffffff" stroke="#bfbfbf" points="2065.5,-.5 2065.5,-19.5 2156.5,-19.5 2156.5,-.5 2065.5,-.5"/>
<text text-anchor="middle" x="2111" y="-7.5" font-family="Helvetica,sans-Serif" font-size="10.00" fill="#000000">ml_epetra_utils.h</text>
</g>
<!-- Node3&#45;&gt;Node23 -->
<g id="edge23" class="edge">
<title>Node3&#45;&gt;Node23</title>
<path fill="none" stroke="#191970" d="M1722.0401,-62.3458C1786.1745,-55.5057 1926.9495,-39.7905 2055.3582,-20.1875"/>
<polygon fill="#191970" stroke="#191970" points="2056.0159,-23.6275 2065.3674,-18.6475 2054.9514,-16.7089 2056.0159,-23.6275"/>
</g>
<!-- Node24 -->
<g id="node25" class="node">
<title>Node24</title>
<polygon fill="#ffffff" stroke="#bfbfbf" points="2174.5,-.5 2174.5,-19.5 2245.5,-19.5 2245.5,-.5 2174.5,-.5"/>
<text text-anchor="middle" x="2210" y="-7.5" font-family="Helvetica,sans-Serif" font-size="10.00" fill="#000000">ml_include.h</text>
</g>
<!-- Node3&#45;&gt;Node24 -->
<g id="edge24" class="edge">
<title>Node3&#45;&gt;Node24</title>
<path fill="none" stroke="#191970" d="M1722.0539,-64.1716C1799.9589,-59.7792 1993.4819,-47.0523 2164.1426,-20.1457"/>
<polygon fill="#191970" stroke="#191970" points="2164.7319,-23.5961 2174.0547,-18.5627 2163.6278,-16.6837 2164.7319,-23.5961"/>
</g>
<!-- Node25 -->
<g id="node26" class="node">
<title>Node25</title>
<polygon fill="#ffffff" stroke="#bfbfbf" points="2263.5,-.5 2263.5,-19.5 2400.5,-19.5 2400.5,-.5 2263.5,-.5"/>
<text text-anchor="middle" x="2332" y="-7.5" font-family="Helvetica,sans-Serif" font-size="10.00" fill="#000000">EpetraExt_RowMatrixOut.h</text>
</g>
<!-- Node3&#45;&gt;Node25 -->
<g id="edge25" class="edge">
<title>Node3&#45;&gt;Node25</title>
<path fill="none" stroke="#191970" d="M1722.2839,-63.7381C1810.1512,-57.9779 2046.0282,-41.7351 2253.0263,-20.1699"/>
<polygon fill="#191970" stroke="#191970" points="2253.5919,-23.6299 2263.1724,-19.1062 2252.8619,-16.6681 2253.5919,-23.6299"/>
</g>
<!-- Node26 -->
<g id="node27" class="node">
<title>Node26</title>
<polygon fill="#ffffff" stroke="#bfbfbf" points="2418.5,-.5 2418.5,-19.5 2557.5,-19.5 2557.5,-.5 2418.5,-.5"/>
<text text-anchor="middle" x="2488" y="-7.5" font-family="Helvetica,sans-Serif" font-size="10.00" fill="#000000">EpetraExt_MultiVectorOut.h</text>
</g>
<!-- Node3&#45;&gt;Node26 -->
<g id="edge26" class="edge">
<title>Node3&#45;&gt;Node26</title>
<path fill="none" stroke="#191970" d="M1722.0495,-64.5662C1825.4459,-60.1674 2138.3722,-45.6426 2408.2968,-20.1139"/>
<polygon fill="#191970" stroke="#191970" points="2408.6607,-23.5952 2418.2837,-19.1624 2407.9968,-16.6267 2408.6607,-23.5952"/>
</g>
<!-- Node27 -->
<g id="node28" class="node">
<title>Node27</title>
<polygon fill="#ffffff" stroke="#bfbfbf" points="2576,-.5 2576,-19.5 2686,-19.5 2686,-.5 2576,-.5"/>
<text text-anchor="middle" x="2631" y="-7.5" font-family="Helvetica,sans-Serif" font-size="10.00" fill="#000000">EpetraExt_VectorIn.h</text>
</g>
<!-- Node3&#45;&gt;Node27 -->
<g id="edge27" class="edge">
<title>Node3&#45;&gt;Node27</title>
<path fill="none" stroke="#191970" d="M1722.3112,-65.456C1840.2883,-63.3639 2231.7037,-54.2093 2565.5323,-20.049"/>
<polygon fill="#191970" stroke="#191970" points="2566.3015,-23.4882 2575.8889,-18.9792 2565.5822,-16.5253 2566.3015,-23.4882"/>
</g>
<!-- Node28 -->
<g id="node29" class="node">
<title>Node28</title>
<polygon fill="#ffffff" stroke="#bfbfbf" points="2704.5,-.5 2704.5,-19.5 2835.5,-19.5 2835.5,-.5 2704.5,-.5"/>
<text text-anchor="middle" x="2770" y="-7.5" font-family="Helvetica,sans-Serif" font-size="10.00" fill="#000000">EpetraExt_MultiVectorIn.h</text>
</g>
<!-- Node3&#45;&gt;Node28 -->
<g id="edge28" class="edge">
<title>Node3&#45;&gt;Node28</title>
<path fill="none" stroke="#191970" d="M1722.3385,-65.4988C1851.0674,-63.4392 2307.1671,-54.0961 2694.1948,-19.9917"/>
<polygon fill="#191970" stroke="#191970" points="2694.5349,-23.4754 2704.186,-19.1044 2693.9156,-16.5028 2694.5349,-23.4754"/>
</g>
<!-- Node29 -->
<g id="node30" class="node">
<title>Node29</title>
<polygon fill="#ffffff" stroke="#bfbfbf" points="2854,-.5 2854,-19.5 2954,-19.5 2954,-.5 2854,-.5"/>
<text text-anchor="middle" x="2904" y="-7.5" font-family="Helvetica,sans-Serif" font-size="10.00" fill="#000000">Teuchos_RCP.hpp</text>
</g>
<!-- Node3&#45;&gt;Node29 -->
<g id="edge29" class="edge">
<title>Node3&#45;&gt;Node29</title>
<path fill="none" stroke="#191970" d="M1722.2236,-65.2106C1888.7252,-61.3872 2598.6125,-44.0324 2843.5829,-19.9902"/>
<polygon fill="#191970" stroke="#191970" points="2844.2519,-23.4404 2853.8481,-18.95 2843.5461,-16.476 2844.2519,-23.4404"/>
</g>
<!-- Node30 -->
<g id="node31" class="node">
<title>Node30</title>
<polygon fill="#ffffff" stroke="#bfbfbf" points="2972.5,-.5 2972.5,-19.5 3033.5,-19.5 3033.5,-.5 2972.5,-.5"/>
<text text-anchor="middle" x="3003" y="-7.5" font-family="Helvetica,sans-Serif" font-size="10.00" fill="#000000">Amesos.h</text>
</g>
<!-- Node3&#45;&gt;Node30 -->
<g id="edge30" class="edge">
<title>Node3&#45;&gt;Node30</title>
<path fill="none" stroke="#191970" d="M1722.2291,-65.7245C1899.2166,-64.1907 2693.0896,-55.4984 2962.0064,-19.7891"/>
<polygon fill="#191970" stroke="#191970" points="2962.6875,-23.2285 2972.1172,-18.3982 2961.7335,-16.2938 2962.6875,-23.2285"/>
</g>
<!-- Node31 -->
<g id="node32" class="node">
<title>Node31</title>
<polygon fill="#ffffff" stroke="#bfbfbf" points="3051.5,-.5 3051.5,-19.5 3116.5,-19.5 3116.5,-.5 3051.5,-.5"/>
<text text-anchor="middle" x="3084" y="-7.5" font-family="Helvetica,sans-Serif" font-size="10.00" fill="#000000">AztecOO.h</text>
</g>
<!-- Node3&#45;&gt;Node31 -->
<g id="edge31" class="edge">
<title>Node3&#45;&gt;Node31</title>
<path fill="none" stroke="#191970" d="M1722.2628,-65.7837C1905.9874,-64.5096 2755.7216,-56.7717 3041.1224,-19.958"/>
<polygon fill="#191970" stroke="#191970" points="3041.9937,-23.3728 3051.4424,-18.5798 3041.0671,-16.4344 3041.9937,-23.3728"/>
</g>
<!-- Node32 -->
<g id="node33" class="node">
<title>Node32</title>
<polygon fill="#ffffff" stroke="#bfbfbf" points="3135,-.5 3135,-19.5 3251,-19.5 3251,-.5 3135,-.5"/>
<text text-anchor="middle" x="3193" y="-7.5" font-family="Helvetica,sans-Serif" font-size="10.00" fill="#000000">Amesos_BaseSolver.h</text>
</g>
<!-- Node3&#45;&gt;Node32 -->
<g id="edge32" class="edge">
<title>Node3&#45;&gt;Node32</title>
<path fill="none" stroke="#191970" d="M1722.1324,-65.4318C1912.2477,-62.2739 2820.2438,-46.1084 3124.8028,-19.9807"/>
<polygon fill="#191970" stroke="#191970" points="3125.291,-23.4514 3134.9449,-19.0866 3124.6762,-16.4784 3125.291,-23.4514"/>
</g>
<!-- Node33 -->
<g id="node34" class="node">
<title>Node33</title>
<polygon fill="#ffffff" stroke="#bfbfbf" points="3269.5,-.5 3269.5,-19.5 3318.5,-19.5 3318.5,-.5 3269.5,-.5"/>
<text text-anchor="middle" x="3294" y="-7.5" font-family="Helvetica,sans-Serif" font-size="10.00" fill="#000000">metis.h</text>
</g>
<!-- Node3&#45;&gt;Node33 -->
<g id="edge33" class="edge">
<title>Node3&#45;&gt;Node33</title>
<path fill="none" stroke="#191970" d="M1722.1086,-65.5139C1936.0873,-62.4806 3061.8549,-45.4932 3259.3401,-19.5097"/>
<polygon fill="#191970" stroke="#191970" points="3259.8926,-22.9663 3269.2864,-18.0664 3258.8874,-16.0388 3259.8926,-22.9663"/>
</g>
<!-- Node34 -->
<g id="node35" class="node">
<title>Node34</title>
<g id="a_node35"><a xlink:href="../../d4/dbc/fepp_8hpp.html" target="_top" xlink:title="fepp.hpp">
<polygon fill="#ffffff" stroke="#000000" points="3337,-.5 3337,-19.5 3391,-19.5 3391,-.5 3337,-.5"/>
<text text-anchor="middle" x="3364" y="-7.5" font-family="Helvetica,sans-Serif" font-size="10.00" fill="#000000">fepp.hpp</text>
</a>
</g>
</g>
<!-- Node3&#45;&gt;Node34 -->
<g id="edge34" class="edge">
<title>Node3&#45;&gt;Node34</title>
<path fill="none" stroke="#191970" d="M1722.0259,-65.4968C1944.5405,-62.3378 3155.8032,-44.5789 3319,-20 3321.6158,-19.606 3324.3118,-19.0838 3327.0324,-18.4842"/>
<polygon fill="#191970" stroke="#191970" points="3328.0153,-21.8469 3336.8929,-16.0644 3326.3469,-15.0487 3328.0153,-21.8469"/>
</g>
<!-- Node34&#45;&gt;Node3 -->
<g id="edge35" class="edge">
<title>Node34&#45;&gt;Node3</title>
<path fill="none" stroke="#191970" d="M3339.7172,-19.551C3338.8055,-19.7144 3337.898,-19.8648 3337,-20 3175.0722,-44.3878 1981.3144,-62.0612 1732.3712,-65.4205"/>
<polygon fill="#191970" stroke="#191970" points="1732.1869,-61.9225 1722.2347,-65.5563 1732.2807,-68.9219 1732.1869,-61.9225"/>
</g>
</g>
</svg>
        <g id="navigator" transform="translate(0 0)" fill="#404254">
                <rect fill="#f2f5e9" fill-opacity="0.5" stroke="#606060" stroke-width=".5" x="0" y="0" width="60" height="60"/>
                <use id="zoomplus" xlink:href="#zoomPlus" x="17" y="9" onmousedown="handleZoom(evt,'in')"/>
                <use id="zoomminus" xlink:href="#zoomMin" x="42" y="9" onmousedown="handleZoom(evt,'out')"/>
                <use id="reset" xlink:href="#resetDef" x="30" y="36" onmousedown="handleReset()"/>
                <g id="arrowUp" xlink:href="#dirArrow" transform="translate(30 24)" onmousedown="handlePan(0,-1)">
                  <use xlink:href="#rim" fill="#404040">
                        <set attributeName="fill" to="#808080" begin="arrowUp.mouseover" end="arrowUp.mouseout"/>
                  </use>
                  <path fill="none" stroke="white" stroke-width="1.5" d="M0,-3.0v7 M-2.5,-0.5L0,-3.0L2.5,-0.5"/>
                </g>
                <g id="arrowRight" xlink:href="#dirArrow" transform="rotate(90) translate(36 -43)" onmousedown="handlePan(1,0)">
                  <use xlink:href="#rim" fill="#404040">
                        <set attributeName="fill" to="#808080" begin="arrowRight.mouseover" end="arrowRight.mouseout"/>
                  </use>
                  <path fill="none" stroke="white" stroke-width="1.5" d="M0,-3.0v7 M-2.5,-0.5L0,-3.0L2.5,-0.5"/>
                </g>
                <g id="arrowDown" xlink:href="#dirArrow" transform="rotate(180) translate(-30 -48)" onmousedown="handlePan(0,1)">
                  <use xlink:href="#rim" fill="#404040">
                        <set attributeName="fill" to="#808080" begin="arrowDown.mouseover" end="arrowDown.mouseout"/>
                  </use>
                  <path fill="none" stroke="white" stroke-width="1.5" d="M0,-3.0v7 M-2.5,-0.5L0,-3.0L2.5,-0.5"/>
                </g>
                <g id="arrowLeft" xlink:href="#dirArrow" transform="rotate(270) translate(-36 17)" onmousedown="handlePan(-1,0)">
                  <use xlink:href="#rim" fill="#404040">
                        <set attributeName="fill" to="#808080" begin="arrowLeft.mouseover" end="arrowLeft.mouseout"/>
                  </use>
                  <path fill="none" stroke="white" stroke-width="1.5" d="M0,-3.0v7 M-2.5,-0.5L0,-3.0L2.5,-0.5"/>
                </g>
        </g>
        <svg viewBox="0 0 15 15" width="100%" height="30px" preserveAspectRatio="xMaxYMin meet">
         <g id="arrow_out" transform="scale(0.3 0.3)">
          <a xlink:href="examples_2mesh_2main_8cpp__incl_org.svg" target="_base">
           <rect id="button" ry="5" rx="5" y="6" x="6" height="38" width="38"
                fill="#f2f5e9" fill-opacity="0.5" stroke="#606060" stroke-width="1.0"/>
           <path id="arrow"
             d="M 11.500037,31.436501 C 11.940474,20.09759 22.043105,11.32322 32.158766,21.979434 L 37.068811,17.246167 C 37.068811,17.246167 37.088388,32 37.088388,32 L 22.160133,31.978069 C 22.160133,31.978069 26.997745,27.140456 26.997745,27.140456 C 18.528582,18.264221 13.291696,25.230495 11.500037,31.436501 z"
             style="fill:#404040;"/>
          </a>
         </g>
        </svg>
</svg>
