<?xml version="1.0" encoding="UTF-8" standalone="no"?>
<!DOCTYPE svg PUBLIC "-//W3C//DTD SVG 1.1//EN"
 "http://www.w3.org/Graphics/SVG/1.1/DTD/svg11.dtd">
<!-- Generated by graphviz version 2.40.1 (20161225.0304)
 -->
<!-- Title: phaseFieldLinearizedElasticity Pages: 1 -->
<svg width="157pt" height="266pt"
 viewBox="0.00 0.00 157.00 266.00" xmlns="http://www.w3.org/2000/svg" xmlns:xlink="http://www.w3.org/1999/xlink">
<g id="graph0" class="graph" transform="scale(1 1) rotate(0) translate(4 262)">
<title>phaseFieldLinearizedElasticity</title>
<polygon fill="#ffffff" stroke="transparent" points="-4,4 -4,-262 153,-262 153,4 -4,4"/>
<!-- Node5 -->
<g id="node1" class="node">
<title>Node5</title>
<polygon fill="#bfbfbf" stroke="#000000" points="0,-.5 0,-19.5 149,-19.5 149,-.5 0,-.5"/>
<text text-anchor="middle" x="74.5" y="-7.5" font-family="Helvetica,sans-Serif" font-size="10.00" fill="#000000">phaseFieldLinearizedElasticity</text>
</g>
<!-- Node6 -->
<g id="node2" class="node">
<title>Node6</title>
<g id="a_node2"><a xlink:href="../../d4/dfd/classlinearized_elasticity.html" target="_top" xlink:title="linearizedElasticity">
<polygon fill="#ffffff" stroke="#000000" points="25.5,-57.5 25.5,-76.5 123.5,-76.5 123.5,-57.5 25.5,-57.5"/>
<text text-anchor="middle" x="74.5" y="-64.5" font-family="Helvetica,sans-Serif" font-size="10.00" fill="#000000">linearizedElasticity</text>
</a>
</g>
</g>
<!-- Node6&#45;&gt;Node5 -->
<g id="edge1" class="edge">
<title>Node6&#45;&gt;Node5</title>
<path fill="none" stroke="#191970" d="M74.5,-47.2342C74.5,-37.8491 74.5,-27.0651 74.5,-19.5265"/>
<polygon fill="#191970" stroke="#191970" points="71.0001,-47.3307 74.5,-57.3307 78.0001,-47.3308 71.0001,-47.3307"/>
</g>
<!-- Node7 -->
<g id="node3" class="node">
<title>Node7</title>
<g id="a_node3"><a xlink:href="../../dc/d01/classlinear_finite_element_problem.html" target="_top" xlink:title="linearFiniteElementProblem">
<polygon fill="#ffffff" stroke="#000000" points="6.5,-114.5 6.5,-133.5 142.5,-133.5 142.5,-114.5 6.5,-114.5"/>
<text text-anchor="middle" x="74.5" y="-121.5" font-family="Helvetica,sans-Serif" font-size="10.00" fill="#000000">linearFiniteElementProblem</text>
</a>
</g>
</g>
<!-- Node7&#45;&gt;Node6 -->
<g id="edge2" class="edge">
<title>Node7&#45;&gt;Node6</title>
<path fill="none" stroke="#191970" d="M74.5,-104.2342C74.5,-94.8491 74.5,-84.0651 74.5,-76.5265"/>
<polygon fill="#191970" stroke="#191970" points="71.0001,-104.3307 74.5,-114.3307 78.0001,-104.3308 71.0001,-104.3307"/>
</g>
<!-- Node8 -->
<g id="node4" class="node">
<title>Node8</title>
<g id="a_node4"><a xlink:href="../../d2/d31/classbase_class_f_e_m.html" target="_top" xlink:title="baseClassFEM">
<polygon fill="#ffffff" stroke="#000000" points="32.5,-171.5 32.5,-190.5 116.5,-190.5 116.5,-171.5 32.5,-171.5"/>
<text text-anchor="middle" x="74.5" y="-178.5" font-family="Helvetica,sans-Serif" font-size="10.00" fill="#000000">baseClassFEM</text>
</a>
</g>
</g>
<!-- Node8&#45;&gt;Node7 -->
<g id="edge3" class="edge">
<title>Node8&#45;&gt;Node7</title>
<path fill="none" stroke="#191970" d="M74.5,-161.2342C74.5,-151.8491 74.5,-141.0651 74.5,-133.5265"/>
<polygon fill="#191970" stroke="#191970" points="71.0001,-161.3307 74.5,-171.3307 78.0001,-161.3308 71.0001,-161.3307"/>
</g>
<!-- Node9 -->
<g id="node5" class="node">
<title>Node9</title>
<g id="a_node5"><a xlink:href="../../d6/d6b/classmesh.html" target="_top" xlink:title="mesh">
<polygon fill="#ffffff" stroke="#000000" points="54,-238.5 54,-257.5 95,-257.5 95,-238.5 54,-238.5"/>
<text text-anchor="middle" x="74.5" y="-245.5" font-family="Helvetica,sans-Serif" font-size="10.00" fill="#000000">mesh</text>
</a>
</g>
</g>
<!-- Node9&#45;&gt;Node8 -->
<g id="edge4" class="edge">
<title>Node9&#45;&gt;Node8</title>
<path fill="none" stroke="#9a32cd" stroke-dasharray="5,2" d="M74.5,-228.1079C74.5,-215.714 74.5,-200.3263 74.5,-190.5817"/>
<polygon fill="#9a32cd" stroke="#9a32cd" points="71.0001,-228.4005 74.5,-238.4005 78.0001,-228.4006 71.0001,-228.4005"/>
<text text-anchor="middle" x="88.5" y="-212" font-family="Helvetica,sans-Serif" font-size="10.00" fill="#000000"> Mesh</text>
</g>
</g>
</svg>
