<?xml version="1.0" encoding="UTF-8" standalone="no"?>
<!DOCTYPE svg PUBLIC "-//W3C//DTD SVG 1.1//EN"
 "http://www.w3.org/Graphics/SVG/1.1/DTD/svg11.dtd">
<!-- Generated by graphviz version 2.40.1 (20161225.0304)
 -->
<!-- Title: linearFiniteElementProblem Pages: 1 -->
<svg width="521pt" height="247pt"
 viewBox="0.00 0.00 521.16 247.00" xmlns="http://www.w3.org/2000/svg" xmlns:xlink="http://www.w3.org/1999/xlink">
<g id="graph0" class="graph" transform="scale(1 1) rotate(0) translate(4 243)">
<title>linearFiniteElementProblem</title>
<polygon fill="#ffffff" stroke="transparent" points="-4,4 -4,-243 517.1646,-243 517.1646,4 -4,4"/>
<!-- Node0 -->
<g id="node1" class="node">
<title>Node0</title>
<polygon fill="#bfbfbf" stroke="#000000" points="46.4902,-165.5 46.4902,-183.5 185.3223,-183.5 185.3223,-165.5 46.4902,-165.5"/>
<text text-anchor="middle" x="115.9063" y="-171.5" font-family="Helvetica,sans-Serif" font-size="10.00" fill="#000000">linearFiniteElementProblem</text>
</g>
<!-- Node2 -->
<g id="node3" class="node">
<title>Node2</title>
<g id="a_node3"><a xlink:href="../../dd/dc8/classdamage_field.html" target="_top" xlink:title="damageField">
<polygon fill="#ffffff" stroke="#000000" points="0,-110.5 0,-128.5 73.8125,-128.5 73.8125,-110.5 0,-110.5"/>
<text text-anchor="middle" x="36.9063" y="-116.5" font-family="Helvetica,sans-Serif" font-size="10.00" fill="#000000">damageField</text>
</a>
</g>
</g>
<!-- Node0&#45;&gt;Node2 -->
<g id="edge2" class="edge">
<title>Node0&#45;&gt;Node2</title>
<path fill="none" stroke="#191970" d="M94.6097,-159.6733C80.3733,-149.7619 62.099,-137.0393 49.9709,-128.5956"/>
<polygon fill="#191970" stroke="#191970" points="92.6542,-162.5766 102.861,-165.4179 96.6539,-156.8317 92.6542,-162.5766"/>
</g>
<!-- Node3 -->
<g id="node4" class="node">
<title>Node3</title>
<g id="a_node4"><a xlink:href="../../d7/d76/classlaplace.html" target="_top" xlink:title="laplace">
<polygon fill="#ffffff" stroke="#000000" points="92.0615,-110.5 92.0615,-128.5 139.751,-128.5 139.751,-110.5 92.0615,-110.5"/>
<text text-anchor="middle" x="115.9063" y="-116.5" font-family="Helvetica,sans-Serif" font-size="10.00" fill="#000000">laplace</text>
</a>
</g>
</g>
<!-- Node0&#45;&gt;Node3 -->
<g id="edge3" class="edge">
<title>Node0&#45;&gt;Node3</title>
<path fill="none" stroke="#191970" d="M115.9063,-155.383C115.9063,-146.3738 115.9063,-136.0373 115.9063,-128.7795"/>
<polygon fill="#191970" stroke="#191970" points="112.4063,-155.4178 115.9063,-165.4179 119.4063,-155.4179 112.4063,-155.4178"/>
</g>
<!-- Node4 -->
<g id="node5" class="node">
<title>Node4</title>
<g id="a_node5"><a xlink:href="../../d4/dfd/classlinearized_elasticity.html" target="_top" xlink:title="linearizedElasticity">
<polygon fill="#ffffff" stroke="#000000" points="157.7783,-110.5 157.7783,-128.5 256.0342,-128.5 256.0342,-110.5 157.7783,-110.5"/>
<text text-anchor="middle" x="206.9063" y="-116.5" font-family="Helvetica,sans-Serif" font-size="10.00" fill="#000000">linearizedElasticity</text>
</a>
</g>
</g>
<!-- Node0&#45;&gt;Node4 -->
<g id="edge4" class="edge">
<title>Node0&#45;&gt;Node4</title>
<path fill="none" stroke="#191970" d="M139.5145,-160.2313C156.0398,-150.2435 177.6231,-137.1986 191.8571,-128.5956"/>
<polygon fill="#191970" stroke="#191970" points="137.6809,-157.2498 130.933,-165.4179 141.3018,-163.2406 137.6809,-157.2498"/>
</g>
<!-- Node1 -->
<g id="node2" class="node">
<title>Node1</title>
<g id="a_node2"><a xlink:href="../../d2/d31/classbase_class_f_e_m.html" target="_top" xlink:title="baseClassFEM">
<polygon fill="#ffffff" stroke="#000000" points="74.0073,-220.5 74.0073,-238.5 157.8052,-238.5 157.8052,-220.5 74.0073,-220.5"/>
<text text-anchor="middle" x="115.9063" y="-226.5" font-family="Helvetica,sans-Serif" font-size="10.00" fill="#000000">baseClassFEM</text>
</a>
</g>
</g>
<!-- Node1&#45;&gt;Node0 -->
<g id="edge1" class="edge">
<title>Node1&#45;&gt;Node0</title>
<path fill="none" stroke="#191970" d="M115.9063,-210.383C115.9063,-201.3738 115.9063,-191.0373 115.9063,-183.7795"/>
<polygon fill="#191970" stroke="#191970" points="112.4063,-210.4178 115.9063,-220.4179 119.4063,-210.4179 112.4063,-210.4178"/>
</g>
<!-- Node5 -->
<g id="node6" class="node">
<title>Node5</title>
<g id="a_node6"><a xlink:href="../../dd/d60/classasme_s_b_v_p.html" target="_top" xlink:title="asmeSBVP">
<polygon fill="#ffffff" stroke="#000000" points="2.3398,-55.5 2.3398,-73.5 69.4727,-73.5 69.4727,-55.5 2.3398,-55.5"/>
<text text-anchor="middle" x="35.9063" y="-61.5" font-family="Helvetica,sans-Serif" font-size="10.00" fill="#000000">asmeSBVP</text>
</a>
</g>
</g>
<!-- Node4&#45;&gt;Node5 -->
<g id="edge5" class="edge">
<title>Node4&#45;&gt;Node5</title>
<path fill="none" stroke="#191970" d="M168.8366,-107.2554C137.0563,-97.0336 92.4863,-82.6983 63.9012,-73.5042"/>
<polygon fill="#191970" stroke="#191970" points="168.0777,-110.6878 178.6691,-110.4179 170.2211,-104.024 168.0777,-110.6878"/>
</g>
<!-- Node6 -->
<g id="node7" class="node">
<title>Node6</title>
<g id="a_node7"><a xlink:href="../../d2/d17/classcee_s_b_v_p.html" target="_top" xlink:title="ceeSBVP">
<polygon fill="#ffffff" stroke="#000000" points="87.5049,-55.5 87.5049,-73.5 146.3076,-73.5 146.3076,-55.5 87.5049,-55.5"/>
<text text-anchor="middle" x="116.9063" y="-61.5" font-family="Helvetica,sans-Serif" font-size="10.00" fill="#000000">ceeSBVP</text>
</a>
</g>
</g>
<!-- Node4&#45;&gt;Node6 -->
<g id="edge6" class="edge">
<title>Node4&#45;&gt;Node6</title>
<path fill="none" stroke="#191970" d="M183.1021,-104.953C166.8191,-95.0023 145.7373,-82.1189 131.79,-73.5956"/>
<polygon fill="#191970" stroke="#191970" points="181.6867,-108.1898 192.0446,-110.4179 185.3368,-102.2168 181.6867,-108.1898"/>
</g>
<!-- Node7 -->
<g id="node8" class="node">
<title>Node7</title>
<g id="a_node8"><a xlink:href="../../d2/d69/classlinear_patch_test.html" target="_top" xlink:title="linearPatchTest">
<polygon fill="#ffffff" stroke="#000000" points="164.7217,-55.5 164.7217,-73.5 249.0908,-73.5 249.0908,-55.5 164.7217,-55.5"/>
<text text-anchor="middle" x="206.9063" y="-61.5" font-family="Helvetica,sans-Serif" font-size="10.00" fill="#000000">linearPatchTest</text>
</a>
</g>
</g>
<!-- Node4&#45;&gt;Node7 -->
<g id="edge7" class="edge">
<title>Node4&#45;&gt;Node7</title>
<path fill="none" stroke="#191970" d="M206.9063,-100.383C206.9063,-91.3738 206.9063,-81.0373 206.9063,-73.7795"/>
<polygon fill="#191970" stroke="#191970" points="203.4063,-100.4178 206.9063,-110.4179 210.4063,-100.4179 203.4063,-100.4178"/>
</g>
<!-- Node8 -->
<g id="node9" class="node">
<title>Node8</title>
<g id="a_node9"><a xlink:href="../../d7/da3/classmanufactured.html" target="_top" xlink:title="manufactured">
<polygon fill="#ffffff" stroke="#000000" points="267.3325,-55.5 267.3325,-73.5 344.48,-73.5 344.48,-55.5 267.3325,-55.5"/>
<text text-anchor="middle" x="305.9063" y="-61.5" font-family="Helvetica,sans-Serif" font-size="10.00" fill="#000000">manufactured</text>
</a>
</g>
</g>
<!-- Node4&#45;&gt;Node8 -->
<g id="edge8" class="edge">
<title>Node4&#45;&gt;Node8</title>
<path fill="none" stroke="#191970" d="M232.092,-105.5079C250.1325,-95.4854 273.9054,-82.2783 289.5341,-73.5956"/>
<polygon fill="#191970" stroke="#191970" points="230.2959,-102.5018 223.2541,-110.4179 233.6954,-108.6209 230.2959,-102.5018"/>
</g>
<!-- Node9 -->
<g id="node10" class="node">
<title>Node9</title>
<g id="a_node10"><a xlink:href="../../d3/d02/classphase_field_linearized_elasticity.html" target="_top" xlink:title="phaseFieldLinearizedElasticity">
<polygon fill="#ffffff" stroke="#000000" points="362.6479,-55.5 362.6479,-73.5 513.1646,-73.5 513.1646,-55.5 362.6479,-55.5"/>
<text text-anchor="middle" x="437.9063" y="-61.5" font-family="Helvetica,sans-Serif" font-size="10.00" fill="#000000">phaseFieldLinearizedElasticity</text>
</a>
</g>
</g>
<!-- Node4&#45;&gt;Node9 -->
<g id="edge9" class="edge">
<title>Node4&#45;&gt;Node9</title>
<path fill="none" stroke="#191970" d="M254.757,-108.107C297.8326,-97.8509 360.295,-82.9789 399.9993,-73.5255"/>
<polygon fill="#191970" stroke="#191970" points="253.7099,-104.7584 244.7925,-110.4795 255.3313,-111.568 253.7099,-104.7584"/>
</g>
<!-- Node10 -->
<g id="node11" class="node">
<title>Node10</title>
<g id="a_node11"><a xlink:href="../../df/dad/classphase_field_problem.html" target="_top" xlink:title="phaseFieldProblem">
<polygon fill="#ffffff" stroke="#000000" points="386.8276,-.5 386.8276,-18.5 488.9849,-18.5 488.9849,-.5 386.8276,-.5"/>
<text text-anchor="middle" x="437.9063" y="-6.5" font-family="Helvetica,sans-Serif" font-size="10.00" fill="#000000">phaseFieldProblem</text>
</a>
</g>
</g>
<!-- Node9&#45;&gt;Node10 -->
<g id="edge10" class="edge">
<title>Node9&#45;&gt;Node10</title>
<path fill="none" stroke="#191970" d="M437.9063,-45.383C437.9063,-36.3738 437.9063,-26.0373 437.9063,-18.7795"/>
<polygon fill="#191970" stroke="#191970" points="434.4063,-45.4178 437.9063,-55.4179 441.4063,-45.4179 434.4063,-45.4178"/>
</g>
</g>
</svg>
