<?xml version="1.0" encoding="UTF-8" standalone="no"?>
<!DOCTYPE svg PUBLIC "-//W3C//DTD SVG 1.1//EN"
 "http://www.w3.org/Graphics/SVG/1.1/DTD/svg11.dtd">
<!-- Generated by graphviz version 2.40.1 (20161225.0304)
 -->
<!-- Title: src/shape/LinearTriangle.hpp Pages: 1 -->
<svg width="153pt" height="137pt"
 viewBox="0.00 0.00 153.16 137.00" xmlns="http://www.w3.org/2000/svg" xmlns:xlink="http://www.w3.org/1999/xlink">
<g id="graph0" class="graph" transform="scale(1 1) rotate(0) translate(4 133)">
<title>src/shape/LinearTriangle.hpp</title>
<polygon fill="#ffffff" stroke="transparent" points="-4,4 -4,-133 149.1553,-133 149.1553,4 -4,4"/>
<!-- Node0 -->
<g id="node1" class="node">
<title>Node0</title>
<polygon fill="#bfbfbf" stroke="#000000" points="0,-110.5 0,-128.5 145.1553,-128.5 145.1553,-110.5 0,-110.5"/>
<text text-anchor="middle" x="72.5776" y="-116.5" font-family="Helvetica,sans-Serif" font-size="10.00" fill="#000000">src/shape/LinearTriangle.hpp</text>
</g>
<!-- Node1 -->
<g id="node2" class="node">
<title>Node1</title>
<g id="a_node2"><a xlink:href="../../de/d27/_shape_object2_d_8hpp.html" target="_top" xlink:title="ShapeObject2D.hpp">
<polygon fill="#ffffff" stroke="#000000" points="19.5459,-55.5 19.5459,-73.5 125.6094,-73.5 125.6094,-55.5 19.5459,-55.5"/>
<text text-anchor="middle" x="72.5776" y="-61.5" font-family="Helvetica,sans-Serif" font-size="10.00" fill="#000000">ShapeObject2D.hpp</text>
</a>
</g>
</g>
<!-- Node0&#45;&gt;Node1 -->
<g id="edge1" class="edge">
<title>Node0&#45;&gt;Node1</title>
<path fill="none" stroke="#191970" d="M72.5776,-110.4179C72.5776,-103.2164 72.5776,-92.8962 72.5776,-83.8632"/>
<polygon fill="#191970" stroke="#191970" points="76.0777,-83.7794 72.5776,-73.7795 69.0777,-83.7795 76.0777,-83.7794"/>
</g>
<!-- Node2 -->
<g id="node3" class="node">
<title>Node2</title>
<g id="a_node3"><a xlink:href="../../de/da7/_shape_object_8hpp.html" target="_top" xlink:title="ShapeObject.hpp">
<polygon fill="#ffffff" stroke="#000000" points="25.9375,-.5 25.9375,-18.5 119.2178,-18.5 119.2178,-.5 25.9375,-.5"/>
<text text-anchor="middle" x="72.5776" y="-6.5" font-family="Helvetica,sans-Serif" font-size="10.00" fill="#000000">ShapeObject.hpp</text>
</a>
</g>
</g>
<!-- Node1&#45;&gt;Node2 -->
<g id="edge2" class="edge">
<title>Node1&#45;&gt;Node2</title>
<path fill="none" stroke="#191970" d="M72.5776,-55.4179C72.5776,-48.2164 72.5776,-37.8962 72.5776,-28.8632"/>
<polygon fill="#191970" stroke="#191970" points="76.0777,-28.7794 72.5776,-18.7795 69.0777,-28.7795 76.0777,-28.7794"/>
</g>
</g>
</svg>
