<?xml version="1.0" encoding="UTF-8" standalone="no"?>
<!DOCTYPE svg PUBLIC "-//W3C//DTD SVG 1.1//EN"
 "http://www.w3.org/Graphics/SVG/1.1/DTD/svg11.dtd">
<!-- Generated by graphviz version 2.40.1 (20161225.0304)
 -->
<!-- Title: src/nonLinearFiniteElementProblem.hpp Pages: 1 -->
<!--zoomable 385 -->
<svg id="main" version="1.1" xmlns="http://www.w3.org/2000/svg" xmlns:xlink="http://www.w3.org/1999/xlink" xml:space="preserve" onload="init(evt)">
<style type="text/css"><![CDATA[
.edge:hover path { stroke: red; }
.edge:hover polygon { stroke: red; fill: red; }
]]></style>
<script type="text/javascript"><![CDATA[
var edges = document.getElementsByTagName('g');
if (edges && edges.length) {
  for (var i=0;i<edges.length;i++) {
    if (edges[i].id.substr(0,4)=='edge') {
      edges[i].setAttribute('class','edge');
    }
  }
}
]]></script>
        <defs>
                <circle id="rim" cx="0" cy="0" r="7"/>
                <circle id="rim2" cx="0" cy="0" r="3.5"/>
                <g id="zoomPlus">
                        <use xlink:href="#rim" fill="#404040">
                                <set attributeName="fill" to="#808080" begin="zoomplus.mouseover" end="zoomplus.mouseout"/>
                        </use>
                        <path d="M-4,0h8M0,-4v8" fill="none" stroke="white" stroke-width="1.5" pointer-events="none"/>
                </g>
                <g id="zoomMin">
                        <use xlink:href="#rim" fill="#404040">
                                <set attributeName="fill" to="#808080" begin="zoomminus.mouseover" end="zoomminus.mouseout"/>
                        </use>
                        <path d="M-4,0h8" fill="none" stroke="white" stroke-width="1.5" pointer-events="none"/>
                </g>
                <g id="dirArrow">
                        <path fill="none" stroke="white" stroke-width="1.5" d="M0,-3.0v7 M-2.5,-0.5L0,-3.0L2.5,-0.5"/>
                </g>
               <g id="resetDef">
                       <use xlink:href="#rim2" fill="#404040">
                               <set attributeName="fill" to="#808080" begin="reset.mouseover" end="reset.mouseout"/>
                       </use>
               </g>
        </defs>

<script type="text/javascript">
var viewWidth = 2017;
var viewHeight = 385;
var sectionId = 'dynsection-1';
</script>
<script xlink:href="../../svgpan.js"/>
<svg id="graph" class="graph">
<g id="viewport">
<title>src/nonLinearFiniteElementProblem.hpp</title>
<polygon fill="#ffffff" stroke="transparent" points="-4,4 -4,-381 2012.5,-381 2012.5,4 -4,4"/>
<!-- Node34 -->
<g id="node1" class="node">
<title>Node34</title>
<polygon fill="#bfbfbf" stroke="#000000" points="938,-346.5 938,-376.5 1073,-376.5 1073,-346.5 938,-346.5"/>
<text text-anchor="start" x="946" y="-364.5" font-family="Helvetica,sans-Serif" font-size="10.00" fill="#000000">src/nonLinearFiniteElement</text>
<text text-anchor="middle" x="1005.5" y="-353.5" font-family="Helvetica,sans-Serif" font-size="10.00" fill="#000000">Problem.hpp</text>
</g>
<!-- Node35 -->
<g id="node2" class="node">
<title>Node35</title>
<g id="a_node2"><a xlink:href="../../d2/d34/hyperelasticity_8hpp.html" target="_top" xlink:title="src/hyperelasticity.hpp">
<polygon fill="#ffffff" stroke="#000000" points="905,-290.5 905,-309.5 1020,-309.5 1020,-290.5 905,-290.5"/>
<text text-anchor="middle" x="962.5" y="-297.5" font-family="Helvetica,sans-Serif" font-size="10.00" fill="#000000">src/hyperelasticity.hpp</text>
</a>
</g>
</g>
<!-- Node34&#45;&gt;Node35 -->
<g id="edge1" class="edge">
<title>Node34&#45;&gt;Node35</title>
<path fill="none" stroke="#191970" d="M989.1216,-338.0751C982.2784,-328.2877 974.7001,-317.449 969.3848,-309.8469"/>
<polygon fill="#191970" stroke="#191970" points="986.2722,-340.1079 994.8708,-346.2977 992.009,-336.0967 986.2722,-340.1079"/>
</g>
<!-- Node64 -->
<g id="node31" class="node">
<title>Node64</title>
<g id="a_node31"><a xlink:href="../../d1/d11/newton_raphson_8hpp.html" target="_top" xlink:title="src/newtonRaphson.hpp">
<polygon fill="#ffffff" stroke="#000000" points="987.5,-156.5 987.5,-175.5 1109.5,-175.5 1109.5,-156.5 987.5,-156.5"/>
<text text-anchor="middle" x="1048.5" y="-163.5" font-family="Helvetica,sans-Serif" font-size="10.00" fill="#000000">src/newtonRaphson.hpp</text>
</a>
</g>
</g>
<!-- Node34&#45;&gt;Node64 -->
<g id="edge30" class="edge">
<title>Node34&#45;&gt;Node64</title>
<path fill="none" stroke="#191970" d="M1018.1512,-336.9665C1022.0041,-328.6002 1025.9026,-319.0663 1028.5,-310 1042.6112,-260.7443 1046.9189,-199.058 1048.0977,-175.6271"/>
<polygon fill="#191970" stroke="#191970" points="1014.9126,-335.625 1013.7298,-346.1536 1021.2202,-338.6606 1014.9126,-335.625"/>
</g>
<!-- Node36 -->
<g id="node3" class="node">
<title>Node36</title>
<g id="a_node3"><a xlink:href="../../da/d5c/compressible_hyperelasticity_8hpp.html" target="_top" xlink:title="src/compressibleHyperelasticity.hpp">
<polygon fill="#ffffff" stroke="#000000" points="1388,-229 1388,-248 1563,-248 1563,-229 1388,-229"/>
<text text-anchor="middle" x="1475.5" y="-236" font-family="Helvetica,sans-Serif" font-size="10.00" fill="#000000">src/compressibleHyperelasticity.hpp</text>
</a>
</g>
</g>
<!-- Node35&#45;&gt;Node36 -->
<g id="edge2" class="edge">
<title>Node35&#45;&gt;Node36</title>
<path fill="none" stroke="#191970" d="M1030.3693,-291.8636C1124.872,-280.5343 1295.7577,-260.048 1396.0712,-248.0222"/>
<polygon fill="#191970" stroke="#191970" points="1029.8627,-288.3992 1020.3504,-293.0647 1030.696,-295.3494 1029.8627,-288.3992"/>
</g>
<!-- Node50 -->
<g id="node17" class="node">
<title>Node50</title>
<g id="a_node17"><a xlink:href="../../dc/de0/nearly_incompressible_hyperelasticity_8hpp.html" target="_top" xlink:title="src/nearlyIncompressible\lHyperelasticity.hpp">
<polygon fill="#ffffff" stroke="#000000" points="517,-223.5 517,-253.5 642,-253.5 642,-223.5 517,-223.5"/>
<text text-anchor="start" x="525" y="-241.5" font-family="Helvetica,sans-Serif" font-size="10.00" fill="#000000">src/nearlyIncompressible</text>
<text text-anchor="middle" x="579.5" y="-230.5" font-family="Helvetica,sans-Serif" font-size="10.00" fill="#000000">Hyperelasticity.hpp</text>
</a>
</g>
</g>
<!-- Node35&#45;&gt;Node50 -->
<g id="edge16" class="edge">
<title>Node35&#45;&gt;Node50</title>
<path fill="none" stroke="#191970" d="M894.5037,-289.0815C823.0475,-277.6075 711.5807,-259.7088 642.187,-248.5659"/>
<polygon fill="#191970" stroke="#191970" points="894.3179,-292.5965 904.7463,-290.7262 895.4278,-285.685 894.3179,-292.5965"/>
</g>
<!-- Node63 -->
<g id="node30" class="node">
<title>Node63</title>
<g id="a_node30"><a xlink:href="../../d1/dc9/hyperelasticity_8cpp.html" target="_top" xlink:title="src/hyperelasticity.cpp">
<polygon fill="#ffffff" stroke="#000000" points="905,-229 905,-248 1020,-248 1020,-229 905,-229"/>
<text text-anchor="middle" x="962.5" y="-236" font-family="Helvetica,sans-Serif" font-size="10.00" fill="#000000">src/hyperelasticity.cpp</text>
</a>
</g>
</g>
<!-- Node35&#45;&gt;Node63 -->
<g id="edge29" class="edge">
<title>Node35&#45;&gt;Node63</title>
<path fill="none" stroke="#191970" d="M962.5,-280.2462C962.5,-269.5519 962.5,-256.814 962.5,-248.2449"/>
<polygon fill="#191970" stroke="#191970" points="959.0001,-280.3906 962.5,-290.3906 966.0001,-280.3907 959.0001,-280.3906"/>
</g>
<!-- Node37 -->
<g id="node4" class="node">
<title>Node37</title>
<g id="a_node4"><a xlink:href="../../de/d4a/rubberblock_8hpp.html" target="_top" xlink:title="examples/rubberblock\l/rubberblock.hpp">
<polygon fill="#ffffff" stroke="#000000" points="1185.5,-151 1185.5,-181 1297.5,-181 1297.5,-151 1185.5,-151"/>
<text text-anchor="start" x="1193.5" y="-169" font-family="Helvetica,sans-Serif" font-size="10.00" fill="#000000">examples/rubberblock</text>
<text text-anchor="middle" x="1241.5" y="-158" font-family="Helvetica,sans-Serif" font-size="10.00" fill="#000000">/rubberblock.hpp</text>
</a>
</g>
</g>
<!-- Node36&#45;&gt;Node37 -->
<g id="edge3" class="edge">
<title>Node36&#45;&gt;Node37</title>
<path fill="none" stroke="#191970" d="M1434.0156,-226.069C1399.7677,-215.7558 1349.9156,-200.6274 1306.5,-187 1300.39,-185.0822 1293.9655,-183.0391 1287.6311,-181.0088"/>
<polygon fill="#191970" stroke="#191970" points="1433.096,-229.4472 1443.6803,-228.9762 1435.1124,-222.7439 1433.096,-229.4472"/>
</g>
<!-- Node39 -->
<g id="node6" class="node">
<title>Node39</title>
<g id="a_node6"><a xlink:href="../../dd/dc1/compressible_hyperelasticity__linear_patch_test_8hpp.html" target="_top" xlink:title="nrl/linearpatchtest\l/compressibleHyperelasticity\l_linearPatchTest.hpp">
<polygon fill="#ffffff" stroke="#000000" points="1413,-67.5 1413,-108.5 1556,-108.5 1556,-67.5 1413,-67.5"/>
<text text-anchor="start" x="1421" y="-96.5" font-family="Helvetica,sans-Serif" font-size="10.00" fill="#000000">nrl/linearpatchtest</text>
<text text-anchor="start" x="1421" y="-85.5" font-family="Helvetica,sans-Serif" font-size="10.00" fill="#000000">/compressibleHyperelasticity</text>
<text text-anchor="middle" x="1484.5" y="-74.5" font-family="Helvetica,sans-Serif" font-size="10.00" fill="#000000">_linearPatchTest.hpp</text>
</a>
</g>
</g>
<!-- Node36&#45;&gt;Node39 -->
<g id="edge5" class="edge">
<title>Node36&#45;&gt;Node39</title>
<path fill="none" stroke="#191970" d="M1476.6892,-218.6131C1478.3988,-190.0262 1481.5351,-137.5793 1483.268,-108.601"/>
<polygon fill="#191970" stroke="#191970" points="1473.1938,-218.4341 1476.0905,-228.6253 1480.1813,-218.8521 1473.1938,-218.4341"/>
</g>
<!-- Node41 -->
<g id="node8" class="node">
<title>Node41</title>
<g id="a_node8"><a xlink:href="../../da/dcd/nrl_2manufactured__solution_2manufactured_solution_8hpp.html" target="_top" xlink:title="nrl/manufactured_solution\l/manufacturedSolution.hpp">
<polygon fill="#ffffff" stroke="#000000" points="1574,-73 1574,-103 1707,-103 1707,-73 1574,-73"/>
<text text-anchor="start" x="1582" y="-91" font-family="Helvetica,sans-Serif" font-size="10.00" fill="#000000">nrl/manufactured_solution</text>
<text text-anchor="middle" x="1640.5" y="-80" font-family="Helvetica,sans-Serif" font-size="10.00" fill="#000000">/manufacturedSolution.hpp</text>
</a>
</g>
</g>
<!-- Node36&#45;&gt;Node41 -->
<g id="edge7" class="edge">
<title>Node36&#45;&gt;Node41</title>
<path fill="none" stroke="#191970" d="M1568.5701,-227.4468C1618.6494,-219.3781 1673.2244,-206.4091 1688.5,-187 1709.2915,-160.5824 1678.8072,-123.696 1657.7241,-103.2219"/>
<polygon fill="#191970" stroke="#191970" points="1567.9692,-223.9981 1558.6271,-228.9957 1569.0467,-230.9147 1567.9692,-223.9981"/>
</g>
<!-- Node43 -->
<g id="node10" class="node">
<title>Node43</title>
<g id="a_node10"><a xlink:href="../../dd/d2e/compressible___mooney___transverse___isotropic_8hpp.html" target="_top" xlink:title="src/compressible_Mooney\l_Transverse_Isotropic.hpp">
<polygon fill="#ffffff" stroke="#000000" points="1315.5,-151 1315.5,-181 1447.5,-181 1447.5,-151 1315.5,-151"/>
<text text-anchor="start" x="1323.5" y="-169" font-family="Helvetica,sans-Serif" font-size="10.00" fill="#000000">src/compressible_Mooney</text>
<text text-anchor="middle" x="1381.5" y="-158" font-family="Helvetica,sans-Serif" font-size="10.00" fill="#000000">_Transverse_Isotropic.hpp</text>
</a>
</g>
</g>
<!-- Node36&#45;&gt;Node43 -->
<g id="edge9" class="edge">
<title>Node36&#45;&gt;Node43</title>
<path fill="none" stroke="#191970" d="M1454.6394,-222.4107C1438.679,-210.1008 1416.8218,-193.2429 1401.1661,-181.168"/>
<polygon fill="#191970" stroke="#191970" points="1452.7668,-225.3865 1462.8227,-228.7223 1457.0419,-219.8436 1452.7668,-225.3865"/>
</g>
<!-- Node44 -->
<g id="node11" class="node">
<title>Node44</title>
<g id="a_node11"><a xlink:href="../../d4/df3/compressible___mooney___transverse___isotropic___random___field_8hpp.html" target="_top" xlink:title="src/compressible_Mooney\l_Transverse_Isotropic\l_Random_Field.hpp">
<polygon fill="#ffffff" stroke="#000000" points="1736,-145.5 1736,-186.5 1867,-186.5 1867,-145.5 1736,-145.5"/>
<text text-anchor="start" x="1744" y="-174.5" font-family="Helvetica,sans-Serif" font-size="10.00" fill="#000000">src/compressible_Mooney</text>
<text text-anchor="start" x="1744" y="-163.5" font-family="Helvetica,sans-Serif" font-size="10.00" fill="#000000">_Transverse_Isotropic</text>
<text text-anchor="middle" x="1801.5" y="-152.5" font-family="Helvetica,sans-Serif" font-size="10.00" fill="#000000">_Random_Field.hpp</text>
</a>
</g>
</g>
<!-- Node36&#45;&gt;Node44 -->
<g id="edge10" class="edge">
<title>Node36&#45;&gt;Node44</title>
<path fill="none" stroke="#191970" d="M1534.6478,-226.9863C1584.5934,-217.0562 1657.928,-201.9882 1721.5,-187 1726.1122,-185.9126 1730.8646,-184.7566 1735.6445,-183.5677"/>
<polygon fill="#191970" stroke="#191970" points="1533.7977,-223.5866 1524.6688,-228.9638 1535.1585,-230.4531 1533.7977,-223.5866"/>
</g>
<!-- Node49 -->
<g id="node16" class="node">
<title>Node49</title>
<g id="a_node16"><a xlink:href="../../d8/db8/compressible_hyperelasticity_8cpp.html" target="_top" xlink:title="src/compressibleHyperelasticity.cpp">
<polygon fill="#ffffff" stroke="#000000" points="1504,-156.5 1504,-175.5 1679,-175.5 1679,-156.5 1504,-156.5"/>
<text text-anchor="middle" x="1591.5" y="-163.5" font-family="Helvetica,sans-Serif" font-size="10.00" fill="#000000">src/compressibleHyperelasticity.cpp</text>
</a>
</g>
</g>
<!-- Node36&#45;&gt;Node49 -->
<g id="edge15" class="edge">
<title>Node36&#45;&gt;Node49</title>
<path fill="none" stroke="#191970" d="M1499.6662,-223.3961C1522.6626,-209.0233 1556.5702,-187.8311 1576.1036,-175.6228"/>
<polygon fill="#191970" stroke="#191970" points="1497.7693,-220.4543 1491.1443,-228.7223 1501.4793,-226.3903 1497.7693,-220.4543"/>
</g>
<!-- Node38 -->
<g id="node5" class="node">
<title>Node38</title>
<g id="a_node5"><a xlink:href="../../d4/d7f/examples_2rubberblock_2main_8cpp.html" target="_top" xlink:title="examples/rubberblock\l/main.cpp">
<polygon fill="#ffffff" stroke="#000000" points="1282.5,-73 1282.5,-103 1394.5,-103 1394.5,-73 1282.5,-73"/>
<text text-anchor="start" x="1290.5" y="-91" font-family="Helvetica,sans-Serif" font-size="10.00" fill="#000000">examples/rubberblock</text>
<text text-anchor="middle" x="1338.5" y="-80" font-family="Helvetica,sans-Serif" font-size="10.00" fill="#000000">/main.cpp</text>
</a>
</g>
</g>
<!-- Node37&#45;&gt;Node38 -->
<g id="edge4" class="edge">
<title>Node37&#45;&gt;Node38</title>
<path fill="none" stroke="#191970" d="M1268.2814,-144.4644C1284.5463,-131.3854 1304.9182,-115.0039 1319.5239,-103.2592"/>
<polygon fill="#191970" stroke="#191970" points="1265.8023,-141.9667 1260.2026,-150.9608 1270.1889,-147.4218 1265.8023,-141.9667"/>
</g>
<!-- Node40 -->
<g id="node7" class="node">
<title>Node40</title>
<g id="a_node7"><a xlink:href="../../da/dce/nrl_2linearpatchtest_2main_8cpp.html" target="_top" xlink:title="nrl/linearpatchtest\l/main.cpp">
<polygon fill="#ffffff" stroke="#000000" points="1437.5,-.5 1437.5,-30.5 1531.5,-30.5 1531.5,-.5 1437.5,-.5"/>
<text text-anchor="start" x="1445.5" y="-18.5" font-family="Helvetica,sans-Serif" font-size="10.00" fill="#000000">nrl/linearpatchtest</text>
<text text-anchor="middle" x="1484.5" y="-7.5" font-family="Helvetica,sans-Serif" font-size="10.00" fill="#000000">/main.cpp</text>
</a>
</g>
</g>
<!-- Node39&#45;&gt;Node40 -->
<g id="edge6" class="edge">
<title>Node39&#45;&gt;Node40</title>
<path fill="none" stroke="#191970" d="M1484.5,-57.3279C1484.5,-48.0871 1484.5,-38.3508 1484.5,-30.5991"/>
<polygon fill="#191970" stroke="#191970" points="1481.0001,-57.4183 1484.5,-67.4183 1488.0001,-57.4184 1481.0001,-57.4183"/>
</g>
<!-- Node42 -->
<g id="node9" class="node">
<title>Node42</title>
<g id="a_node9"><a xlink:href="../../d4/db6/nrl_2manufactured__solution_2main_8cpp.html" target="_top" xlink:title="nrl/manufactured_solution\l/main.cpp">
<polygon fill="#ffffff" stroke="#000000" points="1575.5,-.5 1575.5,-30.5 1703.5,-30.5 1703.5,-.5 1575.5,-.5"/>
<text text-anchor="start" x="1583.5" y="-18.5" font-family="Helvetica,sans-Serif" font-size="10.00" fill="#000000">nrl/manufactured_solution</text>
<text text-anchor="middle" x="1639.5" y="-7.5" font-family="Helvetica,sans-Serif" font-size="10.00" fill="#000000">/main.cpp</text>
</a>
</g>
</g>
<!-- Node41&#45;&gt;Node42 -->
<g id="edge8" class="edge">
<title>Node41&#45;&gt;Node42</title>
<path fill="none" stroke="#191970" d="M1640.153,-62.8409C1640.0043,-52.0601 1639.8356,-39.8309 1639.7069,-30.5028"/>
<polygon fill="#191970" stroke="#191970" points="1636.6551,-63.0272 1640.2928,-72.978 1643.6545,-62.9306 1636.6551,-63.0272"/>
</g>
<!-- Node45 -->
<g id="node12" class="node">
<title>Node45</title>
<g id="a_node12"><a xlink:href="../../d2/d16/nrl_2randomfields_2main_8cpp.html" target="_top" xlink:title="nrl/randomfields/main.cpp">
<polygon fill="#ffffff" stroke="#000000" points="1880.5,-78.5 1880.5,-97.5 2008.5,-97.5 2008.5,-78.5 1880.5,-78.5"/>
<text text-anchor="middle" x="1944.5" y="-85.5" font-family="Helvetica,sans-Serif" font-size="10.00" fill="#000000">nrl/randomfields/main.cpp</text>
</a>
</g>
</g>
<!-- Node44&#45;&gt;Node45 -->
<g id="edge11" class="edge">
<title>Node44&#45;&gt;Node45</title>
<path fill="none" stroke="#191970" d="M1848.3227,-140.4603C1875.1726,-125.815 1907.3142,-108.2831 1926.8051,-97.6517"/>
<polygon fill="#191970" stroke="#191970" points="1846.5489,-137.441 1839.4459,-145.3022 1849.9009,-143.5863 1846.5489,-137.441"/>
</g>
<!-- Node46 -->
<g id="node13" class="node">
<title>Node46</title>
<g id="a_node13"><a xlink:href="../../d6/d6e/nrl___p_c_a___likelihood_8hpp.html" target="_top" xlink:title="src/nrl_PCA_Likelihood.hpp">
<polygon fill="#ffffff" stroke="#000000" points="1725,-78.5 1725,-97.5 1862,-97.5 1862,-78.5 1725,-78.5"/>
<text text-anchor="middle" x="1793.5" y="-85.5" font-family="Helvetica,sans-Serif" font-size="10.00" fill="#000000">src/nrl_PCA_Likelihood.hpp</text>
</a>
</g>
</g>
<!-- Node44&#45;&gt;Node46 -->
<g id="edge12" class="edge">
<title>Node44&#45;&gt;Node46</title>
<path fill="none" stroke="#191970" d="M1798.3073,-134.8707C1796.949,-121.6273 1795.4611,-107.1205 1794.5059,-97.8072"/>
<polygon fill="#191970" stroke="#191970" points="1794.854,-135.5067 1799.3561,-145.0974 1801.8175,-134.7925 1794.854,-135.5067"/>
</g>
<!-- Node47 -->
<g id="node14" class="node">
<title>Node47</title>
<g id="a_node14"><a xlink:href="../../d5/daf/nrl_2random__generator__for__pca__likelihood_2main_8cpp.html" target="_top" xlink:title="nrl/random_generator\l_for_pca_likelihood/main.cpp">
<polygon fill="#ffffff" stroke="#000000" points="1722,-.5 1722,-30.5 1865,-30.5 1865,-.5 1722,-.5"/>
<text text-anchor="start" x="1730" y="-18.5" font-family="Helvetica,sans-Serif" font-size="10.00" fill="#000000">nrl/random_generator</text>
<text text-anchor="middle" x="1793.5" y="-7.5" font-family="Helvetica,sans-Serif" font-size="10.00" fill="#000000">_for_pca_likelihood/main.cpp</text>
</a>
</g>
</g>
<!-- Node46&#45;&gt;Node47 -->
<g id="edge13" class="edge">
<title>Node46&#45;&gt;Node47</title>
<path fill="none" stroke="#191970" d="M1793.5,-68.0177C1793.5,-56.2164 1793.5,-41.513 1793.5,-30.668"/>
<polygon fill="#191970" stroke="#191970" points="1790.0001,-68.2223 1793.5,-78.2223 1797.0001,-68.2224 1790.0001,-68.2223"/>
</g>
<!-- Node48 -->
<g id="node15" class="node">
<title>Node48</title>
<g id="a_node15"><a xlink:href="../../db/d7d/nrl_2testing__solutions_2main_8cpp.html" target="_top" xlink:title="nrl/testing_solutions\l/main.cpp">
<polygon fill="#ffffff" stroke="#000000" points="1883.5,-.5 1883.5,-30.5 1987.5,-30.5 1987.5,-.5 1883.5,-.5"/>
<text text-anchor="start" x="1891.5" y="-18.5" font-family="Helvetica,sans-Serif" font-size="10.00" fill="#000000">nrl/testing_solutions</text>
<text text-anchor="middle" x="1935.5" y="-7.5" font-family="Helvetica,sans-Serif" font-size="10.00" fill="#000000">/main.cpp</text>
</a>
</g>
</g>
<!-- Node46&#45;&gt;Node48 -->
<g id="edge14" class="edge">
<title>Node46&#45;&gt;Node48</title>
<path fill="none" stroke="#191970" d="M1821.4392,-73.7353C1845.8166,-61.2891 1881.0771,-43.2864 1905.9259,-30.5995"/>
<polygon fill="#191970" stroke="#191970" points="1819.6713,-70.708 1812.3565,-78.3726 1822.8544,-76.9425 1819.6713,-70.708"/>
</g>
<!-- Node51 -->
<g id="node18" class="node">
<title>Node51</title>
<g id="a_node18"><a xlink:href="../../dd/d3d/dirichlet_inlet_outlet___polyconvex_h_g_o_8hpp.html" target="_top" xlink:title="src/dirichletInletOutlet\l_PolyconvexHGO.hpp">
<polygon fill="#ffffff" stroke="#000000" points="600.5,-151 600.5,-181 714.5,-181 714.5,-151 600.5,-151"/>
<text text-anchor="start" x="608.5" y="-169" font-family="Helvetica,sans-Serif" font-size="10.00" fill="#000000">src/dirichletInletOutlet</text>
<text text-anchor="middle" x="657.5" y="-158" font-family="Helvetica,sans-Serif" font-size="10.00" fill="#000000">_PolyconvexHGO.hpp</text>
</a>
</g>
</g>
<!-- Node50&#45;&gt;Node51 -->
<g id="edge17" class="edge">
<title>Node50&#45;&gt;Node51</title>
<path fill="none" stroke="#191970" d="M602.9991,-216.6579C615.3915,-205.1393 630.2779,-191.3026 641.3591,-181.0028"/>
<polygon fill="#191970" stroke="#191970" points="600.6034,-214.1062 595.6617,-223.478 605.3691,-219.2334 600.6034,-214.1062"/>
</g>
<!-- Node53 -->
<g id="node20" class="node">
<title>Node53</title>
<g id="a_node20"><a xlink:href="../../d5/d0d/dirichlet_strip_elongation___stochastic_polyconvex_h_g_o_8hpp.html" target="_top" xlink:title="src/dirichletStripElongation\l_StochasticPolyconvexHGO.hpp">
<polygon fill="#ffffff" stroke="#000000" points="421,-151 421,-181 582,-181 582,-151 421,-151"/>
<text text-anchor="start" x="429" y="-169" font-family="Helvetica,sans-Serif" font-size="10.00" fill="#000000">src/dirichletStripElongation</text>
<text text-anchor="middle" x="501.5" y="-158" font-family="Helvetica,sans-Serif" font-size="10.00" fill="#000000">_StochasticPolyconvexHGO.hpp</text>
</a>
</g>
</g>
<!-- Node50&#45;&gt;Node53 -->
<g id="edge19" class="edge">
<title>Node50&#45;&gt;Node53</title>
<path fill="none" stroke="#191970" d="M556.0009,-216.6579C543.6085,-205.1393 528.7221,-191.3026 517.6409,-181.0028"/>
<polygon fill="#191970" stroke="#191970" points="553.6309,-219.2334 563.3383,-223.478 558.3966,-214.1062 553.6309,-219.2334"/>
</g>
<!-- Node55 -->
<g id="node22" class="node">
<title>Node55</title>
<g id="a_node22"><a xlink:href="../../d8/d7d/nearly_incompressible_hyperelasticity_8cpp.html" target="_top" xlink:title="src/nearlyIncompressible\lHyperelasticity.cpp">
<polygon fill="#ffffff" stroke="#000000" points="278,-151 278,-181 403,-181 403,-151 278,-151"/>
<text text-anchor="start" x="286" y="-169" font-family="Helvetica,sans-Serif" font-size="10.00" fill="#000000">src/nearlyIncompressible</text>
<text text-anchor="middle" x="340.5" y="-158" font-family="Helvetica,sans-Serif" font-size="10.00" fill="#000000">Hyperelasticity.cpp</text>
</a>
</g>
</g>
<!-- Node50&#45;&gt;Node55 -->
<g id="edge21" class="edge">
<title>Node50&#45;&gt;Node55</title>
<path fill="none" stroke="#191970" d="M520.3251,-220.5495C480.2231,-208.3846 427.8352,-192.4929 389.9575,-181.0028"/>
<polygon fill="#191970" stroke="#191970" points="519.3936,-223.9243 529.979,-223.478 521.4257,-217.2257 519.3936,-223.9243"/>
</g>
<!-- Node56 -->
<g id="node23" class="node">
<title>Node56</title>
<g id="a_node23"><a xlink:href="../../d6/d14/neumann_inner_surface___polyconvex_h_g_o_8hpp.html" target="_top" xlink:title="src/neumannInnerSurface\l_PolyconvexHGO.hpp">
<polygon fill="#ffffff" stroke="#000000" points="732.5,-151 732.5,-181 860.5,-181 860.5,-151 732.5,-151"/>
<text text-anchor="start" x="740.5" y="-169" font-family="Helvetica,sans-Serif" font-size="10.00" fill="#000000">src/neumannInnerSurface</text>
<text text-anchor="middle" x="796.5" y="-158" font-family="Helvetica,sans-Serif" font-size="10.00" fill="#000000">_PolyconvexHGO.hpp</text>
</a>
</g>
</g>
<!-- Node50&#45;&gt;Node56 -->
<g id="edge22" class="edge">
<title>Node50&#45;&gt;Node56</title>
<path fill="none" stroke="#191970" d="M634.3862,-220.1624C670.6426,-208.0491 717.5676,-192.3714 751.5951,-181.0028"/>
<polygon fill="#191970" stroke="#191970" points="632.8381,-216.9894 624.4625,-223.478 635.0563,-223.6287 632.8381,-216.9894"/>
</g>
<!-- Node59 -->
<g id="node26" class="node">
<title>Node59</title>
<g id="a_node26"><a xlink:href="../../dc/da1/neumann_inner_surface___stochastic_polyconvex_h_g_o_8hpp.html" target="_top" xlink:title="src/neumannInnerSurface\l_StochasticPolyconvexHGO.hpp">
<polygon fill="#ffffff" stroke="#000000" points="99,-151 99,-181 260,-181 260,-151 99,-151"/>
<text text-anchor="start" x="107" y="-169" font-family="Helvetica,sans-Serif" font-size="10.00" fill="#000000">src/neumannInnerSurface</text>
<text text-anchor="middle" x="179.5" y="-158" font-family="Helvetica,sans-Serif" font-size="10.00" fill="#000000">_StochasticPolyconvexHGO.hpp</text>
</a>
</g>
</g>
<!-- Node50&#45;&gt;Node59 -->
<g id="edge25" class="edge">
<title>Node50&#45;&gt;Node59</title>
<path fill="none" stroke="#191970" d="M506.4654,-227.8331C443.2791,-218.2644 349.5743,-203.2583 268.5,-187 259.4718,-185.1895 249.9662,-183.1215 240.6627,-181.0055"/>
<polygon fill="#191970" stroke="#191970" points="506.317,-231.3502 516.727,-229.3799 507.3604,-224.4284 506.317,-231.3502"/>
</g>
<!-- Node52 -->
<g id="node19" class="node">
<title>Node52</title>
<g id="a_node19"><a xlink:href="../../de/da1/arteries_2deterministic__dirichlet_2main_8cpp.html" target="_top" xlink:title="arteries/deterministic\l_dirichlet/main.cpp">
<polygon fill="#ffffff" stroke="#000000" points="568,-73 568,-103 675,-103 675,-73 568,-73"/>
<text text-anchor="start" x="576" y="-91" font-family="Helvetica,sans-Serif" font-size="10.00" fill="#000000">arteries/deterministic</text>
<text text-anchor="middle" x="621.5" y="-80" font-family="Helvetica,sans-Serif" font-size="10.00" fill="#000000">_dirichlet/main.cpp</text>
</a>
</g>
</g>
<!-- Node51&#45;&gt;Node52 -->
<g id="edge18" class="edge">
<title>Node51&#45;&gt;Node52</title>
<path fill="none" stroke="#191970" d="M646.2082,-141.5344C640.4258,-129.0058 633.5655,-114.1419 628.5427,-103.2592"/>
<polygon fill="#191970" stroke="#191970" points="643.1903,-143.3479 650.5588,-150.9608 649.5461,-140.4145 643.1903,-143.3479"/>
</g>
<!-- Node54 -->
<g id="node21" class="node">
<title>Node54</title>
<g id="a_node21"><a xlink:href="../../dc/dba/arteries_2strip__dirichlet_2main_8cpp.html" target="_top" xlink:title="arteries/strip_dirichlet\l/main.cpp">
<polygon fill="#ffffff" stroke="#000000" points="439.5,-73 439.5,-103 549.5,-103 549.5,-73 439.5,-73"/>
<text text-anchor="start" x="447.5" y="-91" font-family="Helvetica,sans-Serif" font-size="10.00" fill="#000000">arteries/strip_dirichlet</text>
<text text-anchor="middle" x="494.5" y="-80" font-family="Helvetica,sans-Serif" font-size="10.00" fill="#000000">/main.cpp</text>
</a>
</g>
</g>
<!-- Node53&#45;&gt;Node54 -->
<g id="edge20" class="edge">
<title>Node53&#45;&gt;Node54</title>
<path fill="none" stroke="#191970" d="M499.2373,-140.7875C498.1273,-128.4187 496.8267,-113.9264 495.8694,-103.2592"/>
<polygon fill="#191970" stroke="#191970" points="495.7704,-141.3137 500.1503,-150.9608 502.7424,-140.688 495.7704,-141.3137"/>
</g>
<!-- Node57 -->
<g id="node24" class="node">
<title>Node57</title>
<g id="a_node24"><a xlink:href="../../d9/d81/arteries_2deterministic__neumann_2main_8cpp.html" target="_top" xlink:title="arteries/deterministic\l_neumann/main.cpp">
<polygon fill="#ffffff" stroke="#000000" points="693,-73 693,-103 800,-103 800,-73 693,-73"/>
<text text-anchor="start" x="701" y="-91" font-family="Helvetica,sans-Serif" font-size="10.00" fill="#000000">arteries/deterministic</text>
<text text-anchor="middle" x="746.5" y="-80" font-family="Helvetica,sans-Serif" font-size="10.00" fill="#000000">_neumann/main.cpp</text>
</a>
</g>
</g>
<!-- Node56&#45;&gt;Node57 -->
<g id="edge23" class="edge">
<title>Node56&#45;&gt;Node57</title>
<path fill="none" stroke="#191970" d="M781.2922,-142.2759C773.1641,-129.596 763.3958,-114.3574 756.2815,-103.2592"/>
<polygon fill="#191970" stroke="#191970" points="778.5162,-144.4309 786.8595,-150.9608 784.4094,-140.6532 778.5162,-144.4309"/>
</g>
<!-- Node58 -->
<g id="node25" class="node">
<title>Node58</title>
<g id="a_node25"><a xlink:href="../../db/db7/arteries_2vonmises_2main_8cpp.html" target="_top" xlink:title="arteries/vonmises/main.cpp">
<polygon fill="#ffffff" stroke="#000000" points="818,-78.5 818,-97.5 955,-97.5 955,-78.5 818,-78.5"/>
<text text-anchor="middle" x="886.5" y="-85.5" font-family="Helvetica,sans-Serif" font-size="10.00" fill="#000000">arteries/vonmises/main.cpp</text>
</a>
</g>
</g>
<!-- Node56&#45;&gt;Node58 -->
<g id="edge24" class="edge">
<title>Node56&#45;&gt;Node58</title>
<path fill="none" stroke="#191970" d="M821.566,-144.2761C839.257,-128.9439 862.0994,-109.1472 875.4417,-97.5839"/>
<polygon fill="#191970" stroke="#191970" points="819.1176,-141.7666 813.8529,-150.9608 823.7021,-147.0564 819.1176,-141.7666"/>
</g>
<!-- Node60 -->
<g id="node27" class="node">
<title>Node60</title>
<g id="a_node27"><a xlink:href="../../d5/da5/arteries_2boost__gmrf_2gmrf__gauss_2main_8cpp.html" target="_top" xlink:title="arteries/boost_gmrf\l/gmrf_gauss/main.cpp">
<polygon fill="#ffffff" stroke="#000000" points="0,-73 0,-103 113,-103 113,-73 0,-73"/>
<text text-anchor="start" x="8" y="-91" font-family="Helvetica,sans-Serif" font-size="10.00" fill="#000000">arteries/boost_gmrf</text>
<text text-anchor="middle" x="56.5" y="-80" font-family="Helvetica,sans-Serif" font-size="10.00" fill="#000000">/gmrf_gauss/main.cpp</text>
</a>
</g>
</g>
<!-- Node59&#45;&gt;Node60 -->
<g id="edge26" class="edge">
<title>Node59&#45;&gt;Node60</title>
<path fill="none" stroke="#191970" d="M147.2309,-145.5367C126.343,-132.2907 99.5928,-115.3272 80.5625,-103.2592"/>
<polygon fill="#191970" stroke="#191970" points="145.4648,-148.5611 155.7844,-150.9608 149.2137,-142.6496 145.4648,-148.5611"/>
</g>
<!-- Node61 -->
<g id="node28" class="node">
<title>Node61</title>
<g id="a_node28"><a xlink:href="../../d2/dbe/arteries_2boost__gmrf_2gmrf__nodes_2main_8cpp.html" target="_top" xlink:title="arteries/boost_gmrf\l/gmrf_nodes/main.cpp">
<polygon fill="#ffffff" stroke="#000000" points="131,-73 131,-103 244,-103 244,-73 131,-73"/>
<text text-anchor="start" x="139" y="-91" font-family="Helvetica,sans-Serif" font-size="10.00" fill="#000000">arteries/boost_gmrf</text>
<text text-anchor="middle" x="187.5" y="-80" font-family="Helvetica,sans-Serif" font-size="10.00" fill="#000000">/gmrf_nodes/main.cpp</text>
</a>
</g>
</g>
<!-- Node59&#45;&gt;Node61 -->
<g id="edge27" class="edge">
<title>Node59&#45;&gt;Node61</title>
<path fill="none" stroke="#191970" d="M182.0859,-140.7875C183.3545,-128.4187 184.8409,-113.9264 185.935,-103.2592"/>
<polygon fill="#191970" stroke="#191970" points="178.5811,-140.6559 181.0425,-150.9608 185.5446,-141.3701 178.5811,-140.6559"/>
</g>
<!-- Node62 -->
<g id="node29" class="node">
<title>Node62</title>
<g id="a_node29"><a xlink:href="../../da/df3/arteries_2gmrf__neumann_2main_8cpp.html" target="_top" xlink:title="arteries/gmrf_neumann\l/main.cpp">
<polygon fill="#ffffff" stroke="#000000" points="291.5,-73 291.5,-103 407.5,-103 407.5,-73 291.5,-73"/>
<text text-anchor="start" x="299.5" y="-91" font-family="Helvetica,sans-Serif" font-size="10.00" fill="#000000">arteries/gmrf_neumann</text>
<text text-anchor="middle" x="349.5" y="-80" font-family="Helvetica,sans-Serif" font-size="10.00" fill="#000000">/main.cpp</text>
</a>
</g>
</g>
<!-- Node59&#45;&gt;Node62 -->
<g id="edge28" class="edge">
<title>Node59&#45;&gt;Node62</title>
<path fill="none" stroke="#191970" d="M221.448,-146.7533C250.7792,-133.2954 289.4035,-115.5737 316.5333,-103.1259"/>
<polygon fill="#191970" stroke="#191970" points="219.9071,-143.6094 212.2777,-150.9608 222.8263,-149.9717 219.9071,-143.6094"/>
</g>
<!-- Node64&#45;&gt;Node38 -->
<g id="edge37" class="edge">
<title>Node64&#45;&gt;Node38</title>
<path fill="none" stroke="#191970" d="M1099.33,-154.112C1145.0976,-143.1736 1214.0983,-126.1007 1273.5,-109 1279.8819,-107.1628 1286.582,-105.1244 1293.1558,-103.0609"/>
<polygon fill="#191970" stroke="#191970" points="1098.2762,-150.765 1089.3587,-156.4859 1099.8974,-157.5747 1098.2762,-150.765"/>
</g>
<!-- Node64&#45;&gt;Node39 -->
<g id="edge38" class="edge">
<title>Node64&#45;&gt;Node39</title>
<path fill="none" stroke="#191970" d="M1116.1562,-154.831C1135.6312,-151.6347 1156.9056,-148.1611 1176.5,-145 1277.3459,-128.731 1303.4991,-129.8421 1403.5,-109 1406.4866,-108.3775 1409.5282,-107.7159 1412.5958,-107.0257"/>
<polygon fill="#191970" stroke="#191970" points="1115.4548,-151.3992 1106.1545,-156.474 1116.5896,-158.3066 1115.4548,-151.3992"/>
</g>
<!-- Node64&#45;&gt;Node41 -->
<g id="edge39" class="edge">
<title>Node64&#45;&gt;Node41</title>
<path fill="none" stroke="#191970" d="M1111.2681,-154.7984C1131.9925,-151.3417 1155.1929,-147.7303 1176.5,-145 1348.7195,-122.9314 1394.7603,-140.5363 1565.5,-109 1574.0099,-107.4282 1582.9523,-105.3298 1591.5792,-103.0663"/>
<polygon fill="#191970" stroke="#191970" points="1110.5906,-151.3631 1101.3124,-156.4783 1111.7554,-158.2655 1110.5906,-151.3631"/>
</g>
<!-- Node64&#45;&gt;Node46 -->
<g id="edge41" class="edge">
<title>Node64&#45;&gt;Node46</title>
<path fill="none" stroke="#191970" d="M1109.5541,-154.7564C1130.6948,-151.1899 1154.5828,-147.5226 1176.5,-145 1415.4552,-117.4974 1479.29,-148.8426 1716.5,-109 1732.3513,-106.3376 1749.6471,-101.7762 1763.8238,-97.5835"/>
<polygon fill="#191970" stroke="#191970" points="1108.6824,-151.3547 1099.4174,-156.4936 1109.8649,-158.2541 1108.6824,-151.3547"/>
</g>
<!-- Node64&#45;&gt;Node52 -->
<g id="edge31" class="edge">
<title>Node64&#45;&gt;Node52</title>
<path fill="none" stroke="#191970" d="M977.3335,-158.5522C903.2461,-149.9474 784.1841,-133.7188 683.5,-109 676.6572,-107.32 669.4922,-105.222 662.5626,-103.0071"/>
<polygon fill="#191970" stroke="#191970" points="977.1489,-162.0539 987.4825,-159.7159 977.9463,-155.0995 977.1489,-162.0539"/>
</g>
<!-- Node64&#45;&gt;Node54 -->
<g id="edge34" class="edge">
<title>Node64&#45;&gt;Node54</title>
<path fill="none" stroke="#191970" d="M977.24,-157.6144C944.4313,-153.7601 904.9886,-149.1357 869.5,-145 731.2902,-128.8934 694.4074,-138.8425 558.5,-109 551.19,-107.3949 543.535,-105.2798 536.1644,-103.0101"/>
<polygon fill="#191970" stroke="#191970" points="976.8572,-161.0934 987.1973,-158.7844 977.6741,-154.1412 976.8572,-161.0934"/>
</g>
<!-- Node64&#45;&gt;Node57 -->
<g id="edge32" class="edge">
<title>Node64&#45;&gt;Node57</title>
<path fill="none" stroke="#191970" d="M992.549,-154.2638C943.662,-143.641 870.9423,-126.9475 808.5,-109 802.2743,-107.2106 795.7472,-105.1769 789.3617,-103.0965"/>
<polygon fill="#191970" stroke="#191970" points="992.0933,-157.746 1002.6069,-156.4367 993.5715,-150.9039 992.0933,-157.746"/>
</g>
<!-- Node64&#45;&gt;Node58 -->
<g id="edge35" class="edge">
<title>Node64&#45;&gt;Node58</title>
<path fill="none" stroke="#191970" d="M1019.5749,-152.0731C986.8996,-136.3405 934.5975,-111.158 906.2732,-97.5204"/>
<polygon fill="#191970" stroke="#191970" points="1018.1072,-155.251 1028.6356,-156.4357 1021.144,-148.9439 1018.1072,-155.251"/>
</g>
<!-- Node64&#45;&gt;Node62 -->
<g id="edge33" class="edge">
<title>Node64&#45;&gt;Node62</title>
<path fill="none" stroke="#191970" d="M977.2991,-157.0679C944.5023,-153.1025 905.0527,-148.5421 869.5,-145 674.6984,-125.5918 623.5181,-141.6855 430.5,-109 421.333,-107.4477 411.6869,-105.359 402.3744,-103.0992"/>
<polygon fill="#191970" stroke="#191970" points="976.9028,-160.5454 987.2521,-158.2777 977.7475,-153.5966 976.9028,-160.5454"/>
</g>
<!-- Node65 -->
<g id="node32" class="node">
<title>Node65</title>
<g id="a_node32"><a xlink:href="../../de/de8/example__pnpoly__inverse__isoparam_8cpp.html" target="_top" xlink:title="examples/pnpoly/example\l_pnpoly_inverse_isoparam.cpp">
<polygon fill="#ffffff" stroke="#000000" points="973,-73 973,-103 1124,-103 1124,-73 973,-73"/>
<text text-anchor="start" x="981" y="-91" font-family="Helvetica,sans-Serif" font-size="10.00" fill="#000000">examples/pnpoly/example</text>
<text text-anchor="middle" x="1048.5" y="-80" font-family="Helvetica,sans-Serif" font-size="10.00" fill="#000000">_pnpoly_inverse_isoparam.cpp</text>
</a>
</g>
</g>
<!-- Node64&#45;&gt;Node65 -->
<g id="edge36" class="edge">
<title>Node64&#45;&gt;Node65</title>
<path fill="none" stroke="#191970" d="M1048.5,-146.3751C1048.5,-133.0215 1048.5,-115.6052 1048.5,-103.2824"/>
<polygon fill="#191970" stroke="#191970" points="1045.0001,-146.4356 1048.5,-156.4357 1052.0001,-146.4357 1045.0001,-146.4356"/>
</g>
<!-- Node66 -->
<g id="node33" class="node">
<title>Node66</title>
<g id="a_node33"><a xlink:href="../../d6/d90/newton_raphson_8cpp.html" target="_top" xlink:title="src/newtonRaphson.cpp">
<polygon fill="#ffffff" stroke="#000000" points="1142.5,-78.5 1142.5,-97.5 1264.5,-97.5 1264.5,-78.5 1142.5,-78.5"/>
<text text-anchor="middle" x="1203.5" y="-85.5" font-family="Helvetica,sans-Serif" font-size="10.00" fill="#000000">src/newtonRaphson.cpp</text>
</a>
</g>
</g>
<!-- Node64&#45;&gt;Node66 -->
<g id="edge40" class="edge">
<title>Node64&#45;&gt;Node66</title>
<path fill="none" stroke="#191970" d="M1076.5525,-151.8833C1107.7464,-136.1857 1157.2923,-111.2529 1184.3385,-97.6426"/>
<polygon fill="#191970" stroke="#191970" points="1074.8654,-148.814 1067.506,-156.4357 1078.0121,-155.0669 1074.8654,-148.814"/>
</g>
</g>
</svg>
        <g id="navigator" transform="translate(0 0)" fill="#404254">
                <rect fill="#f2f5e9" fill-opacity="0.5" stroke="#606060" stroke-width=".5" x="0" y="0" width="60" height="60"/>
                <use id="zoomplus" xlink:href="#zoomPlus" x="17" y="9" onmousedown="handleZoom(evt,'in')"/>
                <use id="zoomminus" xlink:href="#zoomMin" x="42" y="9" onmousedown="handleZoom(evt,'out')"/>
                <use id="reset" xlink:href="#resetDef" x="30" y="36" onmousedown="handleReset()"/>
                <g id="arrowUp" xlink:href="#dirArrow" transform="translate(30 24)" onmousedown="handlePan(0,-1)">
                  <use xlink:href="#rim" fill="#404040">
                        <set attributeName="fill" to="#808080" begin="arrowUp.mouseover" end="arrowUp.mouseout"/>
                  </use>
                  <path fill="none" stroke="white" stroke-width="1.5" d="M0,-3.0v7 M-2.5,-0.5L0,-3.0L2.5,-0.5"/>
                </g>
                <g id="arrowRight" xlink:href="#dirArrow" transform="rotate(90) translate(36 -43)" onmousedown="handlePan(1,0)">
                  <use xlink:href="#rim" fill="#404040">
                        <set attributeName="fill" to="#808080" begin="arrowRight.mouseover" end="arrowRight.mouseout"/>
                  </use>
                  <path fill="none" stroke="white" stroke-width="1.5" d="M0,-3.0v7 M-2.5,-0.5L0,-3.0L2.5,-0.5"/>
                </g>
                <g id="arrowDown" xlink:href="#dirArrow" transform="rotate(180) translate(-30 -48)" onmousedown="handlePan(0,1)">
                  <use xlink:href="#rim" fill="#404040">
                        <set attributeName="fill" to="#808080" begin="arrowDown.mouseover" end="arrowDown.mouseout"/>
                  </use>
                  <path fill="none" stroke="white" stroke-width="1.5" d="M0,-3.0v7 M-2.5,-0.5L0,-3.0L2.5,-0.5"/>
                </g>
                <g id="arrowLeft" xlink:href="#dirArrow" transform="rotate(270) translate(-36 17)" onmousedown="handlePan(-1,0)">
                  <use xlink:href="#rim" fill="#404040">
                        <set attributeName="fill" to="#808080" begin="arrowLeft.mouseover" end="arrowLeft.mouseout"/>
                  </use>
                  <path fill="none" stroke="white" stroke-width="1.5" d="M0,-3.0v7 M-2.5,-0.5L0,-3.0L2.5,-0.5"/>
                </g>
        </g>
        <svg viewBox="0 0 15 15" width="100%" height="30px" preserveAspectRatio="xMaxYMin meet">
         <g id="arrow_out" transform="scale(0.3 0.3)">
          <a xlink:href="non_linear_finite_element_problem_8hpp__dep__incl_org.svg" target="_base">
           <rect id="button" ry="5" rx="5" y="6" x="6" height="38" width="38"
                fill="#f2f5e9" fill-opacity="0.5" stroke="#606060" stroke-width="1.0"/>
           <path id="arrow"
             d="M 11.500037,31.436501 C 11.940474,20.09759 22.043105,11.32322 32.158766,21.979434 L 37.068811,17.246167 C 37.068811,17.246167 37.088388,32 37.088388,32 L 22.160133,31.978069 C 22.160133,31.978069 26.997745,27.140456 26.997745,27.140456 C 18.528582,18.264221 13.291696,25.230495 11.500037,31.436501 z"
             style="fill:#404040;"/>
          </a>
         </g>
        </svg>
</svg>
