<?xml version="1.0" encoding="UTF-8" standalone="no"?>
<!DOCTYPE svg PUBLIC "-//W3C//DTD SVG 1.1//EN"
 "http://www.w3.org/Graphics/SVG/1.1/DTD/svg11.dtd">
<!-- Generated by graphviz version 2.40.1 (20161225.0304)
 -->
<!-- Title: CEESBVP Pages: 1 -->
<svg width="121pt" height="277pt"
 viewBox="0.00 0.00 121.00 277.00" xmlns="http://www.w3.org/2000/svg" xmlns:xlink="http://www.w3.org/1999/xlink">
<g id="graph0" class="graph" transform="scale(1 1) rotate(0) translate(4 273)">
<title>CEESBVP</title>
<polygon fill="#ffffff" stroke="transparent" points="-4,4 -4,-273 117,-273 117,4 -4,4"/>
<!-- Node4 -->
<g id="node1" class="node">
<title>Node4</title>
<polygon fill="#bfbfbf" stroke="#000000" points="24,-.5 24,-19.5 89,-19.5 89,-.5 24,-.5"/>
<text text-anchor="middle" x="56.5" y="-7.5" font-family="Helvetica,sans-Serif" font-size="10.00" fill="#000000">CEESBVP</text>
</g>
<!-- Node5 -->
<g id="node2" class="node">
<title>Node5</title>
<g id="a_node2"><a xlink:href="../../d9/df7/class_linearized_elasticity.html" target="_top" xlink:title="LinearizedElasticity">
<polygon fill="#ffffff" stroke="#000000" points="6,-57.5 6,-76.5 107,-76.5 107,-57.5 6,-57.5"/>
<text text-anchor="middle" x="56.5" y="-64.5" font-family="Helvetica,sans-Serif" font-size="10.00" fill="#000000">LinearizedElasticity</text>
</a>
</g>
</g>
<!-- Node5&#45;&gt;Node4 -->
<g id="edge1" class="edge">
<title>Node5&#45;&gt;Node4</title>
<path fill="none" stroke="#191970" d="M56.5,-47.2342C56.5,-37.8491 56.5,-27.0651 56.5,-19.5265"/>
<polygon fill="#191970" stroke="#191970" points="53.0001,-47.3307 56.5,-57.3307 60.0001,-47.3308 53.0001,-47.3307"/>
</g>
<!-- Node6 -->
<g id="node3" class="node">
<title>Node6</title>
<g id="a_node3"><a xlink:href="../../d3/d9f/class_linear___finite___element___problem.html" target="_top" xlink:title="Linear_Finite_Element\l_Problem">
<polygon fill="#ffffff" stroke="#000000" points="0,-114.5 0,-144.5 113,-144.5 113,-114.5 0,-114.5"/>
<text text-anchor="start" x="8" y="-132.5" font-family="Helvetica,sans-Serif" font-size="10.00" fill="#000000">Linear_Finite_Element</text>
<text text-anchor="middle" x="56.5" y="-121.5" font-family="Helvetica,sans-Serif" font-size="10.00" fill="#000000">_Problem</text>
</a>
</g>
</g>
<!-- Node6&#45;&gt;Node5 -->
<g id="edge2" class="edge">
<title>Node6&#45;&gt;Node5</title>
<path fill="none" stroke="#191970" d="M56.5,-104.3498C56.5,-94.6481 56.5,-84.1303 56.5,-76.7356"/>
<polygon fill="#191970" stroke="#191970" points="53.0001,-104.3705 56.5,-114.3705 60.0001,-104.3705 53.0001,-104.3705"/>
</g>
<!-- Node7 -->
<g id="node4" class="node">
<title>Node7</title>
<g id="a_node4"><a xlink:href="../../d2/d97/class_base_class_f_e_m.html" target="_top" xlink:title="BaseClassFEM">
<polygon fill="#ffffff" stroke="#000000" points="13.5,-182.5 13.5,-201.5 99.5,-201.5 99.5,-182.5 13.5,-182.5"/>
<text text-anchor="middle" x="56.5" y="-189.5" font-family="Helvetica,sans-Serif" font-size="10.00" fill="#000000">BaseClassFEM</text>
</a>
</g>
</g>
<!-- Node7&#45;&gt;Node6 -->
<g id="edge3" class="edge">
<title>Node7&#45;&gt;Node6</title>
<path fill="none" stroke="#191970" d="M56.5,-172.0501C56.5,-163.2205 56.5,-153.0001 56.5,-144.7892"/>
<polygon fill="#191970" stroke="#191970" points="53.0001,-172.2343 56.5,-182.2344 60.0001,-172.2344 53.0001,-172.2343"/>
</g>
<!-- Node8 -->
<g id="node5" class="node">
<title>Node8</title>
<g id="a_node5"><a xlink:href="../../d6/d6b/classmesh.html" target="_top" xlink:title="mesh">
<polygon fill="#ffffff" stroke="#000000" points="36,-249.5 36,-268.5 77,-268.5 77,-249.5 36,-249.5"/>
<text text-anchor="middle" x="56.5" y="-256.5" font-family="Helvetica,sans-Serif" font-size="10.00" fill="#000000">mesh</text>
</a>
</g>
</g>
<!-- Node8&#45;&gt;Node7 -->
<g id="edge4" class="edge">
<title>Node8&#45;&gt;Node7</title>
<path fill="none" stroke="#9a32cd" stroke-dasharray="5,2" d="M56.5,-239.1079C56.5,-226.714 56.5,-211.3263 56.5,-201.5817"/>
<polygon fill="#9a32cd" stroke="#9a32cd" points="53.0001,-239.4005 56.5,-249.4005 60.0001,-239.4006 53.0001,-239.4005"/>
<text text-anchor="middle" x="70.5" y="-223" font-family="Helvetica,sans-Serif" font-size="10.00" fill="#000000"> Mesh</text>
</g>
</g>
</svg>
