<?xml version="1.0" encoding="UTF-8" standalone="no"?>
<!DOCTYPE svg PUBLIC "-//W3C//DTD SVG 1.1//EN"
 "http://www.w3.org/Graphics/SVG/1.1/DTD/svg11.dtd">
<!-- Generated by graphviz version 2.40.1 (20161225.0304)
 -->
<!-- Title: src/Newton_Raphsonpp.hpp Pages: 1 -->
<svg width="1351pt" height="157pt"
 viewBox="0.00 0.00 1350.94 157.00" xmlns="http://www.w3.org/2000/svg" xmlns:xlink="http://www.w3.org/1999/xlink">
<g id="graph0" class="graph" transform="scale(1 1) rotate(0) translate(4 153)">
<title>src/Newton_Raphsonpp.hpp</title>
<polygon fill="#ffffff" stroke="transparent" points="-4,4 -4,-153 1346.9404,-153 1346.9404,4 -4,4"/>
<!-- Node47 -->
<g id="node1" class="node">
<title>Node47</title>
<polygon fill="#bfbfbf" stroke="#000000" points="613.0298,-130.5 613.0298,-148.5 755.2212,-148.5 755.2212,-130.5 613.0298,-130.5"/>
<text text-anchor="middle" x="684.1255" y="-136.5" font-family="Helvetica,sans-Serif" font-size="10.00" fill="#000000">src/Newton_Raphsonpp.hpp</text>
</g>
<!-- Node48 -->
<g id="node2" class="node">
<title>Node48</title>
<g id="a_node2"><a xlink:href="../../de/da1/arteries_2deterministic__dirichlet_2main_8cpp.html" target="_top" xlink:title="arteries/deterministic\l_dirichlet/main.cpp">
<polygon fill="#ffffff" stroke="#000000" points="0,-65.5 0,-93.5 108.251,-93.5 108.251,-65.5 0,-65.5"/>
<text text-anchor="start" x="8" y="-81.5" font-family="Helvetica,sans-Serif" font-size="10.00" fill="#000000">arteries/deterministic</text>
<text text-anchor="middle" x="54.1255" y="-71.5" font-family="Helvetica,sans-Serif" font-size="10.00" fill="#000000">_dirichlet/main.cpp</text>
</a>
</g>
</g>
<!-- Node47&#45;&gt;Node48 -->
<g id="edge1" class="edge">
<title>Node47&#45;&gt;Node48</title>
<path fill="none" stroke="#191970" d="M602.9533,-136.7153C492.4919,-132.0779 288.9034,-120.5149 117.1255,-94 114.2415,-93.5548 111.2936,-93.0505 108.3243,-92.5037"/>
<polygon fill="#191970" stroke="#191970" points="602.887,-140.2154 613.0225,-137.1296 603.1749,-133.2213 602.887,-140.2154"/>
</g>
<!-- Node49 -->
<g id="node3" class="node">
<title>Node49</title>
<g id="a_node3"><a xlink:href="../../d9/d81/arteries_2deterministic__neumann_2main_8cpp.html" target="_top" xlink:title="arteries/deterministic\l_neumann/main.cpp">
<polygon fill="#ffffff" stroke="#000000" points="126,-65.5 126,-93.5 234.251,-93.5 234.251,-65.5 126,-65.5"/>
<text text-anchor="start" x="134" y="-81.5" font-family="Helvetica,sans-Serif" font-size="10.00" fill="#000000">arteries/deterministic</text>
<text text-anchor="middle" x="180.1255" y="-71.5" font-family="Helvetica,sans-Serif" font-size="10.00" fill="#000000">_neumann/main.cpp</text>
</a>
</g>
</g>
<!-- Node47&#45;&gt;Node49 -->
<g id="edge2" class="edge">
<title>Node47&#45;&gt;Node49</title>
<path fill="none" stroke="#191970" d="M602.7241,-134.1251C513.9219,-127.559 367.7814,-114.6948 243.1255,-94 240.2468,-93.5221 237.303,-92.9917 234.337,-92.4244"/>
<polygon fill="#191970" stroke="#191970" points="602.5028,-137.6182 612.7313,-134.8563 603.0129,-130.6368 602.5028,-137.6182"/>
</g>
<!-- Node50 -->
<g id="node4" class="node">
<title>Node50</title>
<g id="a_node4"><a xlink:href="../../da/df3/arteries_2gmrf__neumann_2main_8cpp.html" target="_top" xlink:title="arteries/gmrf_neumann\l/main.cpp">
<polygon fill="#ffffff" stroke="#000000" points="252.4336,-65.5 252.4336,-93.5 371.8174,-93.5 371.8174,-65.5 252.4336,-65.5"/>
<text text-anchor="start" x="260.4336" y="-81.5" font-family="Helvetica,sans-Serif" font-size="10.00" fill="#000000">arteries/gmrf_neumann</text>
<text text-anchor="middle" x="312.1255" y="-71.5" font-family="Helvetica,sans-Serif" font-size="10.00" fill="#000000">/main.cpp</text>
</a>
</g>
</g>
<!-- Node47&#45;&gt;Node50 -->
<g id="edge3" class="edge">
<title>Node47&#45;&gt;Node50</title>
<path fill="none" stroke="#191970" d="M605.6871,-129.1111C544.1694,-120.6376 456.4776,-107.8408 380.1255,-94 377.5125,-93.5263 374.8464,-93.027 372.1556,-92.5099"/>
<polygon fill="#191970" stroke="#191970" points="605.3286,-132.5946 615.7113,-130.4855 606.2795,-125.6595 605.3286,-132.5946"/>
</g>
<!-- Node51 -->
<g id="node5" class="node">
<title>Node51</title>
<g id="a_node5"><a xlink:href="../../dc/dba/arteries_2strip__dirichlet_2main_8cpp.html" target="_top" xlink:title="arteries/strip_dirichlet\l/main.cpp">
<polygon fill="#ffffff" stroke="#000000" points="389.6084,-65.5 389.6084,-93.5 500.6426,-93.5 500.6426,-65.5 389.6084,-65.5"/>
<text text-anchor="start" x="397.6084" y="-81.5" font-family="Helvetica,sans-Serif" font-size="10.00" fill="#000000">arteries/strip_dirichlet</text>
<text text-anchor="middle" x="445.1255" y="-71.5" font-family="Helvetica,sans-Serif" font-size="10.00" fill="#000000">/main.cpp</text>
</a>
</g>
</g>
<!-- Node47&#45;&gt;Node51 -->
<g id="edge4" class="edge">
<title>Node47&#45;&gt;Node51</title>
<path fill="none" stroke="#191970" d="M638.2846,-127.9918C599.1693,-118.1721 542.7922,-104.0188 501.0336,-93.5355"/>
<polygon fill="#191970" stroke="#191970" points="637.5347,-131.4121 648.086,-130.4524 639.2392,-124.6228 637.5347,-131.4121"/>
</g>
<!-- Node52 -->
<g id="node6" class="node">
<title>Node52</title>
<g id="a_node6"><a xlink:href="../../db/db7/arteries_2vonmises_2main_8cpp.html" target="_top" xlink:title="arteries/vonmises/main.cpp">
<polygon fill="#ffffff" stroke="#000000" points="518.2686,-70.5 518.2686,-88.5 655.9824,-88.5 655.9824,-70.5 518.2686,-70.5"/>
<text text-anchor="middle" x="587.1255" y="-76.5" font-family="Helvetica,sans-Serif" font-size="10.00" fill="#000000">arteries/vonmises/main.cpp</text>
</a>
</g>
</g>
<!-- Node47&#45;&gt;Node52 -->
<g id="edge5" class="edge">
<title>Node47&#45;&gt;Node52</title>
<path fill="none" stroke="#191970" d="M660.7184,-125.0214C642.3279,-113.6458 617.2941,-98.161 601.6785,-88.5019"/>
<polygon fill="#191970" stroke="#191970" points="659.0475,-128.1033 669.3933,-130.3873 662.7299,-122.1501 659.0475,-128.1033"/>
</g>
<!-- Node53 -->
<g id="node7" class="node">
<title>Node53</title>
<g id="a_node7"><a xlink:href="../../de/de8/example__pnpoly__inverse__isoparam_8cpp.html" target="_top" xlink:title="examples/pnpoly/example\l_pnpoly_inverse_isoparam.cpp">
<polygon fill="#ffffff" stroke="#000000" points="631.9165,-.5 631.9165,-28.5 786.3345,-28.5 786.3345,-.5 631.9165,-.5"/>
<text text-anchor="start" x="639.9165" y="-16.5" font-family="Helvetica,sans-Serif" font-size="10.00" fill="#000000">examples/pnpoly/example</text>
<text text-anchor="middle" x="709.1255" y="-6.5" font-family="Helvetica,sans-Serif" font-size="10.00" fill="#000000">_pnpoly_inverse_isoparam.cpp</text>
</a>
</g>
</g>
<!-- Node47&#45;&gt;Node53 -->
<g id="edge6" class="edge">
<title>Node47&#45;&gt;Node53</title>
<path fill="none" stroke="#191970" d="M687.9754,-120.2506C693.0176,-95.0393 701.7444,-51.4052 706.2497,-28.8791"/>
<polygon fill="#191970" stroke="#191970" points="684.5338,-119.6124 686.0046,-130.1047 691.3978,-120.9853 684.5338,-119.6124"/>
</g>
<!-- Node54 -->
<g id="node8" class="node">
<title>Node54</title>
<g id="a_node8"><a xlink:href="../../d8/dc8/nrl_2deterministic__random__search_2main_8cpp.html" target="_top" xlink:title="nrl/deterministic_random\l_search/main.cpp">
<polygon fill="#ffffff" stroke="#000000" points="816.3818,-.5 816.3818,-28.5 941.8691,-28.5 941.8691,-.5 816.3818,-.5"/>
<text text-anchor="start" x="824.3818" y="-16.5" font-family="Helvetica,sans-Serif" font-size="10.00" fill="#000000">nrl/deterministic_random</text>
<text text-anchor="middle" x="879.1255" y="-6.5" font-family="Helvetica,sans-Serif" font-size="10.00" fill="#000000">_search/main.cpp</text>
</a>
</g>
</g>
<!-- Node47&#45;&gt;Node54 -->
<g id="edge7" class="edge">
<title>Node47&#45;&gt;Node54</title>
<path fill="none" stroke="#191970" d="M765.4451,-129.5297C809.9299,-122.2904 858.8424,-110.7885 873.1255,-94 888.5522,-75.8673 885.9578,-46.2129 882.5942,-28.7044"/>
<polygon fill="#191970" stroke="#191970" points="764.781,-126.091 755.4448,-131.0995 765.8666,-133.0063 764.781,-126.091"/>
</g>
<!-- Node55 -->
<g id="node9" class="node">
<title>Node55</title>
<g id="a_node9"><a xlink:href="../../df/d27/nrl_2deterministic__random__search_2objective_function_8hpp.html" target="_top" xlink:title="nrl/deterministic_random\l_search/objectiveFunction.hpp">
<polygon fill="#ffffff" stroke="#000000" points="712.3057,-65.5 712.3057,-93.5 863.9453,-93.5 863.9453,-65.5 712.3057,-65.5"/>
<text text-anchor="start" x="720.3057" y="-81.5" font-family="Helvetica,sans-Serif" font-size="10.00" fill="#000000">nrl/deterministic_random</text>
<text text-anchor="middle" x="788.1255" y="-71.5" font-family="Helvetica,sans-Serif" font-size="10.00" fill="#000000">_search/objectiveFunction.hpp</text>
</a>
</g>
</g>
<!-- Node47&#45;&gt;Node55 -->
<g id="edge8" class="edge">
<title>Node47&#45;&gt;Node55</title>
<path fill="none" stroke="#191970" d="M708.9988,-125.15C725.5478,-115.6025 747.188,-103.1178 763.6538,-93.6183"/>
<polygon fill="#191970" stroke="#191970" points="706.8337,-122.3584 699.9208,-130.3873 710.3318,-128.4217 706.8337,-122.3584"/>
</g>
<!-- Node56 -->
<g id="node10" class="node">
<title>Node56</title>
<g id="a_node10"><a xlink:href="../../d5/d58/nrl_2forward__deterministic_2main_8cpp.html" target="_top" xlink:title="nrl/forward_deterministic\l/main.cpp">
<polygon fill="#ffffff" stroke="#000000" points="919.6626,-65.5 919.6626,-93.5 1044.5884,-93.5 1044.5884,-65.5 919.6626,-65.5"/>
<text text-anchor="start" x="927.6626" y="-81.5" font-family="Helvetica,sans-Serif" font-size="10.00" fill="#000000">nrl/forward_deterministic</text>
<text text-anchor="middle" x="982.1255" y="-71.5" font-family="Helvetica,sans-Serif" font-size="10.00" fill="#000000">/main.cpp</text>
</a>
</g>
</g>
<!-- Node47&#45;&gt;Node56 -->
<g id="edge11" class="edge">
<title>Node47&#45;&gt;Node56</title>
<path fill="none" stroke="#191970" d="M738.9198,-128.4676C789.9463,-118.1938 865.9634,-102.8883 919.3977,-92.1298"/>
<polygon fill="#191970" stroke="#191970" points="738.1742,-125.0474 729.0618,-130.4524 739.5559,-131.9097 738.1742,-125.0474"/>
</g>
<!-- Node57 -->
<g id="node11" class="node">
<title>Node57</title>
<g id="a_node11"><a xlink:href="../../db/de3/nrl_2forward__randomfield_2main_8cpp.html" target="_top" xlink:title="nrl/forward_randomfield\l/main.cpp">
<polygon fill="#ffffff" stroke="#000000" points="1062.6011,-65.5 1062.6011,-93.5 1183.6499,-93.5 1183.6499,-65.5 1062.6011,-65.5"/>
<text text-anchor="start" x="1070.6011" y="-81.5" font-family="Helvetica,sans-Serif" font-size="10.00" fill="#000000">nrl/forward_randomfield</text>
<text text-anchor="middle" x="1123.1255" y="-71.5" font-family="Helvetica,sans-Serif" font-size="10.00" fill="#000000">/main.cpp</text>
</a>
</g>
</g>
<!-- Node47&#45;&gt;Node57 -->
<g id="edge12" class="edge">
<title>Node47&#45;&gt;Node57</title>
<path fill="none" stroke="#191970" d="M765.7678,-131.3655C840.7225,-123.4395 954.7391,-110.2281 1053.1255,-94 1056.1868,-93.4951 1059.3178,-92.9505 1062.4756,-92.3788"/>
<polygon fill="#191970" stroke="#191970" points="765.036,-127.923 755.4563,-132.4486 765.7673,-134.8847 765.036,-127.923"/>
</g>
<!-- Node58 -->
<g id="node12" class="node">
<title>Node58</title>
<g id="a_node12"><a xlink:href="../../d5/dc7/_newton___raphsonpp_8cpp.html" target="_top" xlink:title="src/Newton_Raphsonpp.cpp">
<polygon fill="#ffffff" stroke="#000000" points="1201.3105,-70.5 1201.3105,-88.5 1342.9404,-88.5 1342.9404,-70.5 1201.3105,-70.5"/>
<text text-anchor="middle" x="1272.1255" y="-76.5" font-family="Helvetica,sans-Serif" font-size="10.00" fill="#000000">src/Newton_Raphsonpp.cpp</text>
</a>
</g>
</g>
<!-- Node47&#45;&gt;Node58 -->
<g id="edge13" class="edge">
<title>Node47&#45;&gt;Node58</title>
<path fill="none" stroke="#191970" d="M765.6979,-134.5388C866.4389,-127.876 1042.9052,-114.4557 1193.1255,-94 1204.179,-92.4948 1216.0389,-90.5144 1227.1218,-88.5027"/>
<polygon fill="#191970" stroke="#191970" points="765.3402,-131.0547 755.5906,-135.2014 765.7981,-138.0397 765.3402,-131.0547"/>
</g>
<!-- Node55&#45;&gt;Node53 -->
<g id="edge9" class="edge">
<title>Node55&#45;&gt;Node53</title>
<path fill="none" stroke="#191970" d="M763.0681,-58.8832C751.0629,-49.0054 736.9934,-37.4293 726.2339,-28.5765"/>
<polygon fill="#191970" stroke="#191970" points="761.0377,-61.745 770.9837,-65.396 765.4853,-56.3395 761.0377,-61.745"/>
</g>
<!-- Node55&#45;&gt;Node54 -->
<g id="edge10" class="edge">
<title>Node55&#45;&gt;Node54</title>
<path fill="none" stroke="#191970" d="M816.1939,-59.4511C830.1931,-49.4517 846.7861,-37.5995 859.4184,-28.5765"/>
<polygon fill="#191970" stroke="#191970" points="813.9741,-56.7355 807.8711,-65.396 818.0428,-62.4316 813.9741,-56.7355"/>
</g>
</g>
</svg>
