<?xml version="1.0" encoding="UTF-8" standalone="no"?>
<!DOCTYPE svg PUBLIC "-//W3C//DTD SVG 1.1//EN"
 "http://www.w3.org/Graphics/SVG/1.1/DTD/svg11.dtd">
<!-- Generated by graphviz version 2.40.1 (20161225.0304)
 -->
<!-- Title: src/Newton_Raphsonpp.hpp Pages: 1 -->
<svg width="1718pt" height="167pt"
 viewBox="0.00 0.00 1717.94 167.00" xmlns="http://www.w3.org/2000/svg" xmlns:xlink="http://www.w3.org/1999/xlink">
<g id="graph0" class="graph" transform="scale(1 1) rotate(0) translate(4 163)">
<title>src/Newton_Raphsonpp.hpp</title>
<polygon fill="#ffffff" stroke="transparent" points="-4,4 -4,-163 1713.9404,-163 1713.9404,4 -4,4"/>
<!-- Node47 -->
<g id="node1" class="node">
<title>Node47</title>
<polygon fill="#bfbfbf" stroke="#000000" points="843.0298,-140.5 843.0298,-158.5 985.2212,-158.5 985.2212,-140.5 843.0298,-140.5"/>
<text text-anchor="middle" x="914.1255" y="-146.5" font-family="Helvetica,sans-Serif" font-size="10.00" fill="#000000">src/Newton_Raphsonpp.hpp</text>
</g>
<!-- Node48 -->
<g id="node2" class="node">
<title>Node48</title>
<g id="a_node2"><a xlink:href="../../de/da1/arteries_2deterministic__dirichlet_2main_8cpp.html" target="_top" xlink:title="arteries/deterministic\l_dirichlet/main.cpp">
<polygon fill="#ffffff" stroke="#000000" points="0,-70.5 0,-98.5 108.251,-98.5 108.251,-70.5 0,-70.5"/>
<text text-anchor="start" x="8" y="-86.5" font-family="Helvetica,sans-Serif" font-size="10.00" fill="#000000">arteries/deterministic</text>
<text text-anchor="middle" x="54.1255" y="-76.5" font-family="Helvetica,sans-Serif" font-size="10.00" fill="#000000">_dirichlet/main.cpp</text>
</a>
</g>
</g>
<!-- Node47&#45;&gt;Node48 -->
<g id="edge1" class="edge">
<title>Node47&#45;&gt;Node48</title>
<path fill="none" stroke="#191970" d="M832.816,-147.3652C658.2982,-142.374 252.6892,-128.4723 117.1255,-104 109.689,-102.6576 101.8996,-100.7112 94.4334,-98.5615"/>
<polygon fill="#191970" stroke="#191970" points="832.8711,-150.868 842.9663,-147.6528 833.0695,-143.8708 832.8711,-150.868"/>
</g>
<!-- Node49 -->
<g id="node3" class="node">
<title>Node49</title>
<g id="a_node3"><a xlink:href="../../d9/d81/arteries_2deterministic__neumann_2main_8cpp.html" target="_top" xlink:title="arteries/deterministic\l_neumann/main.cpp">
<polygon fill="#ffffff" stroke="#000000" points="126,-70.5 126,-98.5 234.251,-98.5 234.251,-70.5 126,-70.5"/>
<text text-anchor="start" x="134" y="-86.5" font-family="Helvetica,sans-Serif" font-size="10.00" fill="#000000">arteries/deterministic</text>
<text text-anchor="middle" x="180.1255" y="-76.5" font-family="Helvetica,sans-Serif" font-size="10.00" fill="#000000">_neumann/main.cpp</text>
</a>
</g>
</g>
<!-- Node47&#45;&gt;Node49 -->
<g id="edge2" class="edge">
<title>Node47&#45;&gt;Node49</title>
<path fill="none" stroke="#191970" d="M832.4934,-146.3401C679.2416,-140.0144 353.9355,-124.6152 243.1255,-104 235.8089,-102.6388 228.1462,-100.7117 220.785,-98.5938"/>
<polygon fill="#191970" stroke="#191970" points="832.645,-149.8491 842.78,-146.7617 832.9318,-142.855 832.645,-149.8491"/>
</g>
<!-- Node50 -->
<g id="node4" class="node">
<title>Node50</title>
<g id="a_node4"><a xlink:href="../../d5/d35/arteries_2deterministic__neumann__stratimikos_2main_8cpp.html" target="_top" xlink:title="arteries/deterministic\l_neumann_stratimikos/main.cpp">
<polygon fill="#ffffff" stroke="#000000" points="252.1455,-70.5 252.1455,-98.5 412.1055,-98.5 412.1055,-70.5 252.1455,-70.5"/>
<text text-anchor="start" x="260.1455" y="-86.5" font-family="Helvetica,sans-Serif" font-size="10.00" fill="#000000">arteries/deterministic</text>
<text text-anchor="middle" x="332.1255" y="-76.5" font-family="Helvetica,sans-Serif" font-size="10.00" fill="#000000">_neumann_stratimikos/main.cpp</text>
</a>
</g>
</g>
<!-- Node47&#45;&gt;Node50 -->
<g id="edge3" class="edge">
<title>Node47&#45;&gt;Node50</title>
<path fill="none" stroke="#191970" d="M832.6189,-145.0741C734.547,-139.0359 565.0977,-126.3283 421.1255,-104 411.4342,-102.497 401.2169,-100.5783 391.2968,-98.5333"/>
<polygon fill="#191970" stroke="#191970" points="832.5646,-148.5771 842.7585,-145.6902 832.9893,-141.59 832.5646,-148.5771"/>
</g>
<!-- Node51 -->
<g id="node5" class="node">
<title>Node51</title>
<g id="a_node5"><a xlink:href="../../da/df3/arteries_2gmrf__neumann_2main_8cpp.html" target="_top" xlink:title="arteries/gmrf_neumann\l/main.cpp">
<polygon fill="#ffffff" stroke="#000000" points="430.4336,-70.5 430.4336,-98.5 549.8174,-98.5 549.8174,-70.5 430.4336,-70.5"/>
<text text-anchor="start" x="438.4336" y="-86.5" font-family="Helvetica,sans-Serif" font-size="10.00" fill="#000000">arteries/gmrf_neumann</text>
<text text-anchor="middle" x="490.1255" y="-76.5" font-family="Helvetica,sans-Serif" font-size="10.00" fill="#000000">/main.cpp</text>
</a>
</g>
</g>
<!-- Node47&#45;&gt;Node51 -->
<g id="edge4" class="edge">
<title>Node47&#45;&gt;Node51</title>
<path fill="none" stroke="#191970" d="M833.0283,-142.68C760.4932,-135.7412 651.5272,-123.2444 558.1255,-104 550.788,-102.4882 543.0863,-100.5897 535.6107,-98.5746"/>
<polygon fill="#191970" stroke="#191970" points="832.7315,-146.1675 843.0161,-143.6223 833.3891,-139.1984 832.7315,-146.1675"/>
</g>
<!-- Node52 -->
<g id="node6" class="node">
<title>Node52</title>
<g id="a_node6"><a xlink:href="../../dc/dba/arteries_2strip__dirichlet_2main_8cpp.html" target="_top" xlink:title="arteries/strip_dirichlet\l/main.cpp">
<polygon fill="#ffffff" stroke="#000000" points="567.6084,-70.5 567.6084,-98.5 678.6426,-98.5 678.6426,-70.5 567.6084,-70.5"/>
<text text-anchor="start" x="575.6084" y="-86.5" font-family="Helvetica,sans-Serif" font-size="10.00" fill="#000000">arteries/strip_dirichlet</text>
<text text-anchor="middle" x="623.1255" y="-76.5" font-family="Helvetica,sans-Serif" font-size="10.00" fill="#000000">/main.cpp</text>
</a>
</g>
</g>
<!-- Node47&#45;&gt;Node52 -->
<g id="edge5" class="edge">
<title>Node47&#45;&gt;Node52</title>
<path fill="none" stroke="#191970" d="M851.431,-138.6407C805.6432,-130.2963 742.2032,-117.8752 687.1255,-104 680.7053,-102.3826 673.9712,-100.5188 667.3814,-98.5983"/>
<polygon fill="#191970" stroke="#191970" points="851.0423,-142.1271 861.5056,-140.4629 852.2883,-135.2389 851.0423,-142.1271"/>
</g>
<!-- Node53 -->
<g id="node7" class="node">
<title>Node53</title>
<g id="a_node7"><a xlink:href="../../db/db7/arteries_2vonmises_2main_8cpp.html" target="_top" xlink:title="arteries/vonmises/main.cpp">
<polygon fill="#ffffff" stroke="#000000" points="696.2686,-75.5 696.2686,-93.5 833.9824,-93.5 833.9824,-75.5 696.2686,-75.5"/>
<text text-anchor="middle" x="765.1255" y="-81.5" font-family="Helvetica,sans-Serif" font-size="10.00" fill="#000000">arteries/vonmises/main.cpp</text>
</a>
</g>
</g>
<!-- Node47&#45;&gt;Node53 -->
<g id="edge6" class="edge">
<title>Node47&#45;&gt;Node53</title>
<path fill="none" stroke="#191970" d="M884.1428,-136.4203C855.0725,-123.7386 811.7217,-104.8272 786.1477,-93.6708"/>
<polygon fill="#191970" stroke="#191970" points="882.8424,-139.6715 893.4077,-140.462 885.6414,-133.2554 882.8424,-139.6715"/>
</g>
<!-- Node54 -->
<g id="node8" class="node">
<title>Node54</title>
<g id="a_node8"><a xlink:href="../../de/de8/example__pnpoly__inverse__isoparam_8cpp.html" target="_top" xlink:title="examples/pnpoly/example\l_pnpoly_inverse_isoparam.cpp">
<polygon fill="#ffffff" stroke="#000000" points="757.9165,-.5 757.9165,-28.5 912.3345,-28.5 912.3345,-.5 757.9165,-.5"/>
<text text-anchor="start" x="765.9165" y="-16.5" font-family="Helvetica,sans-Serif" font-size="10.00" fill="#000000">examples/pnpoly/example</text>
<text text-anchor="middle" x="835.1255" y="-6.5" font-family="Helvetica,sans-Serif" font-size="10.00" fill="#000000">_pnpoly_inverse_isoparam.cpp</text>
</a>
</g>
</g>
<!-- Node47&#45;&gt;Node54 -->
<g id="edge7" class="edge">
<title>Node47&#45;&gt;Node54</title>
<path fill="none" stroke="#191970" d="M900.6352,-132.2192C894.3882,-123.8953 887.0545,-113.6461 881.1255,-104 865.299,-78.2513 849.8557,-46.4307 841.5053,-28.5037"/>
<polygon fill="#191970" stroke="#191970" points="898.0162,-134.5564 906.8695,-140.3763 903.5779,-130.3057 898.0162,-134.5564"/>
</g>
<!-- Node55 -->
<g id="node9" class="node">
<title>Node55</title>
<g id="a_node9"><a xlink:href="../../d8/dc8/nrl_2deterministic__random__search_2main_8cpp.html" target="_top" xlink:title="nrl/deterministic_random\l_search/main.cpp">
<polygon fill="#ffffff" stroke="#000000" points="930.3818,-.5 930.3818,-28.5 1055.8691,-28.5 1055.8691,-.5 930.3818,-.5"/>
<text text-anchor="start" x="938.3818" y="-16.5" font-family="Helvetica,sans-Serif" font-size="10.00" fill="#000000">nrl/deterministic_random</text>
<text text-anchor="middle" x="993.1255" y="-6.5" font-family="Helvetica,sans-Serif" font-size="10.00" fill="#000000">_search/main.cpp</text>
</a>
</g>
</g>
<!-- Node47&#45;&gt;Node55 -->
<g id="edge8" class="edge">
<title>Node47&#45;&gt;Node55</title>
<path fill="none" stroke="#191970" d="M968.9166,-138.1661C1002.5625,-129.9698 1041.0814,-117.9194 1051.1255,-104 1061.2682,-89.944 1058.3072,-80.7755 1051.1255,-65 1044.2106,-49.8106 1030.2203,-37.4145 1017.7127,-28.7053"/>
<polygon fill="#191970" stroke="#191970" points="968.0547,-134.7733 959.1273,-140.4788 969.6642,-141.5858 968.0547,-134.7733"/>
</g>
<!-- Node56 -->
<g id="node10" class="node">
<title>Node56</title>
<g id="a_node10"><a xlink:href="../../df/d27/nrl_2deterministic__random__search_2objective_function_8hpp.html" target="_top" xlink:title="nrl/deterministic_random\l_search/objectiveFunction.hpp">
<polygon fill="#ffffff" stroke="#000000" points="890.3057,-70.5 890.3057,-98.5 1041.9453,-98.5 1041.9453,-70.5 890.3057,-70.5"/>
<text text-anchor="start" x="898.3057" y="-86.5" font-family="Helvetica,sans-Serif" font-size="10.00" fill="#000000">nrl/deterministic_random</text>
<text text-anchor="middle" x="966.1255" y="-76.5" font-family="Helvetica,sans-Serif" font-size="10.00" fill="#000000">_search/objectiveFunction.hpp</text>
</a>
</g>
</g>
<!-- Node47&#45;&gt;Node56 -->
<g id="edge9" class="edge">
<title>Node47&#45;&gt;Node56</title>
<path fill="none" stroke="#191970" d="M927.7314,-132.4927C936.0695,-122.07 946.6276,-108.8724 954.5608,-98.9559"/>
<polygon fill="#191970" stroke="#191970" points="924.8698,-130.4669 921.3559,-140.462 930.3359,-134.8398 924.8698,-130.4669"/>
</g>
<!-- Node57 -->
<g id="node11" class="node">
<title>Node57</title>
<g id="a_node11"><a xlink:href="../../da/dbf/main__bak_8cpp.html" target="_top" xlink:title="nrl/deterministic_random\l_search/main_bak.cpp">
<polygon fill="#ffffff" stroke="#000000" points="1073.3818,-.5 1073.3818,-28.5 1198.8691,-28.5 1198.8691,-.5 1073.3818,-.5"/>
<text text-anchor="start" x="1081.3818" y="-16.5" font-family="Helvetica,sans-Serif" font-size="10.00" fill="#000000">nrl/deterministic_random</text>
<text text-anchor="middle" x="1136.1255" y="-6.5" font-family="Helvetica,sans-Serif" font-size="10.00" fill="#000000">_search/main_bak.cpp</text>
</a>
</g>
</g>
<!-- Node47&#45;&gt;Node57 -->
<g id="edge13" class="edge">
<title>Node47&#45;&gt;Node57</title>
<path fill="none" stroke="#191970" d="M986.0916,-138.1448C1013.4885,-131.3808 1043.9113,-120.7146 1068.1255,-104 1096.8723,-84.1566 1118.6642,-48.3058 1129.1726,-28.5345"/>
<polygon fill="#191970" stroke="#191970" points="985.095,-134.7833 976.152,-140.4643 986.6858,-141.6001 985.095,-134.7833"/>
</g>
<!-- Node58 -->
<g id="node12" class="node">
<title>Node58</title>
<g id="a_node12"><a xlink:href="../../de/d26/objective_function__bak_8hpp.html" target="_top" xlink:title="nrl/deterministic_random\l_search/objectiveFunction\l_bak.hpp">
<polygon fill="#ffffff" stroke="#000000" points="1136.0371,-65.5 1136.0371,-103.5 1268.2139,-103.5 1268.2139,-65.5 1136.0371,-65.5"/>
<text text-anchor="start" x="1144.0371" y="-91.5" font-family="Helvetica,sans-Serif" font-size="10.00" fill="#000000">nrl/deterministic_random</text>
<text text-anchor="start" x="1144.0371" y="-81.5" font-family="Helvetica,sans-Serif" font-size="10.00" fill="#000000">_search/objectiveFunction</text>
<text text-anchor="middle" x="1202.1255" y="-71.5" font-family="Helvetica,sans-Serif" font-size="10.00" fill="#000000">_bak.hpp</text>
</a>
</g>
</g>
<!-- Node47&#45;&gt;Node58 -->
<g id="edge14" class="edge">
<title>Node47&#45;&gt;Node58</title>
<path fill="none" stroke="#191970" d="M966.8394,-138.3301C1008.9325,-129.3237 1069.3901,-116.1932 1122.1255,-104 1126.5825,-102.9695 1131.1752,-101.8919 1135.8001,-100.7951"/>
<polygon fill="#191970" stroke="#191970" points="965.8648,-134.9593 956.8166,-140.471 967.3271,-141.8048 965.8648,-134.9593"/>
</g>
<!-- Node59 -->
<g id="node13" class="node">
<title>Node59</title>
<g id="a_node13"><a xlink:href="../../d5/d58/nrl_2forward__deterministic_2main_8cpp.html" target="_top" xlink:title="nrl/forward_deterministic\l/main.cpp">
<polygon fill="#ffffff" stroke="#000000" points="1286.6626,-70.5 1286.6626,-98.5 1411.5884,-98.5 1411.5884,-70.5 1286.6626,-70.5"/>
<text text-anchor="start" x="1294.6626" y="-86.5" font-family="Helvetica,sans-Serif" font-size="10.00" fill="#000000">nrl/forward_deterministic</text>
<text text-anchor="middle" x="1349.1255" y="-76.5" font-family="Helvetica,sans-Serif" font-size="10.00" fill="#000000">/main.cpp</text>
</a>
</g>
</g>
<!-- Node47&#45;&gt;Node59 -->
<g id="edge15" class="edge">
<title>Node47&#45;&gt;Node59</title>
<path fill="none" stroke="#191970" d="M995.7159,-142.5619C1069.6291,-135.4989 1181.3048,-122.8848 1277.1255,-104 1284.8761,-102.4725 1293.0211,-100.5657 1300.9324,-98.5472"/>
<polygon fill="#191970" stroke="#191970" points="995.1696,-139.0979 985.5426,-143.5218 995.8272,-146.0669 995.1696,-139.0979"/>
</g>
<!-- Node60 -->
<g id="node14" class="node">
<title>Node60</title>
<g id="a_node14"><a xlink:href="../../db/de3/nrl_2forward__randomfield_2main_8cpp.html" target="_top" xlink:title="nrl/forward_randomfield\l/main.cpp">
<polygon fill="#ffffff" stroke="#000000" points="1429.6011,-70.5 1429.6011,-98.5 1550.6499,-98.5 1550.6499,-70.5 1429.6011,-70.5"/>
<text text-anchor="start" x="1437.6011" y="-86.5" font-family="Helvetica,sans-Serif" font-size="10.00" fill="#000000">nrl/forward_randomfield</text>
<text text-anchor="middle" x="1490.1255" y="-76.5" font-family="Helvetica,sans-Serif" font-size="10.00" fill="#000000">/main.cpp</text>
</a>
</g>
</g>
<!-- Node47&#45;&gt;Node60 -->
<g id="edge16" class="edge">
<title>Node47&#45;&gt;Node60</title>
<path fill="none" stroke="#191970" d="M995.5714,-146.7373C1096.0747,-142.284 1271.8588,-131.0844 1420.1255,-104 1428.068,-102.5491 1436.4142,-100.6049 1444.4659,-98.5048"/>
<polygon fill="#191970" stroke="#191970" points="995.3268,-143.2445 985.487,-147.1727 995.6287,-150.238 995.3268,-143.2445"/>
</g>
<!-- Node61 -->
<g id="node15" class="node">
<title>Node61</title>
<g id="a_node15"><a xlink:href="../../d5/dc7/_newton___raphsonpp_8cpp.html" target="_top" xlink:title="src/Newton_Raphsonpp.cpp">
<polygon fill="#ffffff" stroke="#000000" points="1568.3105,-75.5 1568.3105,-93.5 1709.9404,-93.5 1709.9404,-75.5 1568.3105,-75.5"/>
<text text-anchor="middle" x="1639.1255" y="-81.5" font-family="Helvetica,sans-Serif" font-size="10.00" fill="#000000">src/Newton_Raphsonpp.cpp</text>
</a>
</g>
</g>
<!-- Node47&#45;&gt;Node61 -->
<g id="edge17" class="edge">
<title>Node47&#45;&gt;Node61</title>
<path fill="none" stroke="#191970" d="M995.3994,-148.2411C1118.3468,-145.332 1358.6575,-135.719 1560.1255,-104 1576.0342,-101.4953 1593.4402,-97.3545 1607.8552,-93.5313"/>
<polygon fill="#191970" stroke="#191970" points="995.2297,-144.744 985.3121,-148.4709 995.3892,-151.7421 995.2297,-144.744"/>
</g>
<!-- Node56&#45;&gt;Node54 -->
<g id="edge10" class="edge">
<title>Node56&#45;&gt;Node54</title>
<path fill="none" stroke="#191970" d="M930.6696,-65.5541C908.898,-53.9204 881.4728,-39.2657 861.5959,-28.6445"/>
<polygon fill="#191970" stroke="#191970" points="929.1464,-68.7085 939.6157,-70.3345 932.4454,-62.5346 929.1464,-68.7085"/>
</g>
<!-- Node56&#45;&gt;Node55 -->
<g id="edge11" class="edge">
<title>Node56&#45;&gt;Node55</title>
<path fill="none" stroke="#191970" d="M975.2923,-60.7342C979.4066,-50.0674 984.1217,-37.8433 987.6698,-28.6445"/>
<polygon fill="#191970" stroke="#191970" points="971.9226,-59.7449 971.5893,-70.3345 978.4536,-62.264 971.9226,-59.7449"/>
</g>
<!-- Node56&#45;&gt;Node57 -->
<g id="edge12" class="edge">
<title>Node56&#45;&gt;Node57</title>
<path fill="none" stroke="#191970" d="M1009.9146,-66.4692C1038.6087,-54.654 1075.5687,-39.4352 1102.0651,-28.5249"/>
<polygon fill="#191970" stroke="#191970" points="1008.4417,-63.2905 1000.5275,-70.3345 1011.107,-69.7633 1008.4417,-63.2905"/>
</g>
</g>
</svg>
