<?xml version="1.0" encoding="UTF-8" standalone="no"?>
<!DOCTYPE svg PUBLIC "-//W3C//DTD SVG 1.1//EN"
 "http://www.w3.org/Graphics/SVG/1.1/DTD/svg11.dtd">
<!-- Generated by graphviz version 2.40.1 (20161225.0304)
 -->
<!-- Title: src/Newton_Raphsonpp.hpp Pages: 1 -->
<!--zoomable 157 -->
<svg id="main" version="1.1" xmlns="http://www.w3.org/2000/svg" xmlns:xlink="http://www.w3.org/1999/xlink" xml:space="preserve" onload="init(evt)">
<style type="text/css"><![CDATA[
.edge:hover path { stroke: red; }
.edge:hover polygon { stroke: red; fill: red; }
]]></style>
<script type="text/javascript"><![CDATA[
var edges = document.getElementsByTagName('g');
if (edges && edges.length) {
  for (var i=0;i<edges.length;i++) {
    if (edges[i].id.substr(0,4)=='edge') {
      edges[i].setAttribute('class','edge');
    }
  }
}
]]></script>
        <defs>
                <circle id="rim" cx="0" cy="0" r="7"/>
                <circle id="rim2" cx="0" cy="0" r="3.5"/>
                <g id="zoomPlus">
                        <use xlink:href="#rim" fill="#404040">
                                <set attributeName="fill" to="#808080" begin="zoomplus.mouseover" end="zoomplus.mouseout"/>
                        </use>
                        <path d="M-4,0h8M0,-4v8" fill="none" stroke="white" stroke-width="1.5" pointer-events="none"/>
                </g>
                <g id="zoomMin">
                        <use xlink:href="#rim" fill="#404040">
                                <set attributeName="fill" to="#808080" begin="zoomminus.mouseover" end="zoomminus.mouseout"/>
                        </use>
                        <path d="M-4,0h8" fill="none" stroke="white" stroke-width="1.5" pointer-events="none"/>
                </g>
                <g id="dirArrow">
                        <path fill="none" stroke="white" stroke-width="1.5" d="M0,-3.0v7 M-2.5,-0.5L0,-3.0L2.5,-0.5"/>
                </g>
               <g id="resetDef">
                       <use xlink:href="#rim2" fill="#404040">
                               <set attributeName="fill" to="#808080" begin="reset.mouseover" end="reset.mouseout"/>
                       </use>
               </g>
        </defs>

<script type="text/javascript">
var viewWidth = 1529;
var viewHeight = 157;
var sectionId = 'dynsection-1';
</script>
<script xlink:href="../../svgpan.js"/>
<svg id="graph" class="graph">
<g id="viewport">
<title>src/Newton_Raphsonpp.hpp</title>
<polygon fill="#ffffff" stroke="transparent" points="-4,4 -4,-153 1524.9404,-153 1524.9404,4 -4,4"/>
<!-- Node47 -->
<g id="node1" class="node">
<title>Node47</title>
<polygon fill="#bfbfbf" stroke="#000000" points="742.0298,-130.5 742.0298,-148.5 884.2212,-148.5 884.2212,-130.5 742.0298,-130.5"/>
<text text-anchor="middle" x="813.1255" y="-136.5" font-family="Helvetica,sans-Serif" font-size="10.00" fill="#000000">src/Newton_Raphsonpp.hpp</text>
</g>
<!-- Node48 -->
<g id="node2" class="node">
<title>Node48</title>
<g id="a_node2"><a xlink:href="../../de/da1/arteries_2deterministic__dirichlet_2main_8cpp.html" target="_top" xlink:title="arteries/deterministic\l_dirichlet/main.cpp">
<polygon fill="#ffffff" stroke="#000000" points="0,-65.5 0,-93.5 108.251,-93.5 108.251,-65.5 0,-65.5"/>
<text text-anchor="start" x="8" y="-81.5" font-family="Helvetica,sans-Serif" font-size="10.00" fill="#000000">arteries/deterministic</text>
<text text-anchor="middle" x="54.1255" y="-71.5" font-family="Helvetica,sans-Serif" font-size="10.00" fill="#000000">_dirichlet/main.cpp</text>
</a>
</g>
</g>
<!-- Node47&#45;&gt;Node48 -->
<g id="edge1" class="edge">
<title>Node47&#45;&gt;Node48</title>
<path fill="none" stroke="#191970" d="M731.5366,-138.4122C601.0764,-135.7216 337.7367,-126.3837 117.1255,-94 114.2383,-93.5762 111.2878,-93.0889 108.3165,-92.5554"/>
<polygon fill="#191970" stroke="#191970" points="731.7724,-141.9175 741.8399,-138.6166 731.9113,-134.9189 731.7724,-141.9175"/>
</g>
<!-- Node49 -->
<g id="node3" class="node">
<title>Node49</title>
<g id="a_node3"><a xlink:href="../../d9/d81/arteries_2deterministic__neumann_2main_8cpp.html" target="_top" xlink:title="arteries/deterministic\l_neumann/main.cpp">
<polygon fill="#ffffff" stroke="#000000" points="126,-65.5 126,-93.5 234.251,-93.5 234.251,-65.5 126,-65.5"/>
<text text-anchor="start" x="134" y="-81.5" font-family="Helvetica,sans-Serif" font-size="10.00" fill="#000000">arteries/deterministic</text>
<text text-anchor="middle" x="180.1255" y="-71.5" font-family="Helvetica,sans-Serif" font-size="10.00" fill="#000000">_neumann/main.cpp</text>
</a>
</g>
</g>
<!-- Node47&#45;&gt;Node49 -->
<g id="edge2" class="edge">
<title>Node47&#45;&gt;Node49</title>
<path fill="none" stroke="#191970" d="M731.5237,-136.7455C620.4779,-132.1424 415.8121,-120.6181 243.1255,-94 240.2414,-93.5555 237.2934,-93.0516 234.3241,-92.5052"/>
<polygon fill="#191970" stroke="#191970" points="731.5124,-140.2478 741.6463,-137.1566 731.7966,-133.2536 731.5124,-140.2478"/>
</g>
<!-- Node50 -->
<g id="node4" class="node">
<title>Node50</title>
<g id="a_node4"><a xlink:href="../../d5/d35/arteries_2deterministic__neumann__stratimikos_2main_8cpp.html" target="_top" xlink:title="arteries/deterministic\l_neumann_stratimikos/main.cpp">
<polygon fill="#ffffff" stroke="#000000" points="252.1455,-65.5 252.1455,-93.5 412.1055,-93.5 412.1055,-65.5 252.1455,-65.5"/>
<text text-anchor="start" x="260.1455" y="-81.5" font-family="Helvetica,sans-Serif" font-size="10.00" fill="#000000">arteries/deterministic</text>
<text text-anchor="middle" x="332.1255" y="-71.5" font-family="Helvetica,sans-Serif" font-size="10.00" fill="#000000">_neumann_stratimikos/main.cpp</text>
</a>
</g>
</g>
<!-- Node47&#45;&gt;Node50 -->
<g id="edge3" class="edge">
<title>Node47&#45;&gt;Node50</title>
<path fill="none" stroke="#191970" d="M731.408,-131.1206C652.0137,-122.7186 528.1149,-108.9166 421.1255,-94 418.1795,-93.5893 415.1806,-93.1596 412.1528,-92.7162"/>
<polygon fill="#191970" stroke="#191970" points="731.5154,-134.6513 741.8273,-132.2193 732.2495,-127.6899 731.5154,-134.6513"/>
</g>
<!-- Node51 -->
<g id="node5" class="node">
<title>Node51</title>
<g id="a_node5"><a xlink:href="../../da/df3/arteries_2gmrf__neumann_2main_8cpp.html" target="_top" xlink:title="arteries/gmrf_neumann\l/main.cpp">
<polygon fill="#ffffff" stroke="#000000" points="430.4336,-65.5 430.4336,-93.5 549.8174,-93.5 549.8174,-65.5 430.4336,-65.5"/>
<text text-anchor="start" x="438.4336" y="-81.5" font-family="Helvetica,sans-Serif" font-size="10.00" fill="#000000">arteries/gmrf_neumann</text>
<text text-anchor="middle" x="490.1255" y="-71.5" font-family="Helvetica,sans-Serif" font-size="10.00" fill="#000000">/main.cpp</text>
</a>
</g>
</g>
<!-- Node47&#45;&gt;Node51 -->
<g id="edge4" class="edge">
<title>Node47&#45;&gt;Node51</title>
<path fill="none" stroke="#191970" d="M749.2863,-128.7197C697.6405,-119.8516 623.0826,-106.7171 558.1255,-94 555.5194,-93.4898 552.8589,-92.9602 550.1728,-92.4183"/>
<polygon fill="#191970" stroke="#191970" points="748.853,-132.1964 759.3004,-130.4351 750.0349,-125.2969 748.853,-132.1964"/>
</g>
<!-- Node52 -->
<g id="node6" class="node">
<title>Node52</title>
<g id="a_node6"><a xlink:href="../../dc/dba/arteries_2strip__dirichlet_2main_8cpp.html" target="_top" xlink:title="arteries/strip_dirichlet\l/main.cpp">
<polygon fill="#ffffff" stroke="#000000" points="567.6084,-65.5 567.6084,-93.5 678.6426,-93.5 678.6426,-65.5 567.6084,-65.5"/>
<text text-anchor="start" x="575.6084" y="-81.5" font-family="Helvetica,sans-Serif" font-size="10.00" fill="#000000">arteries/strip_dirichlet</text>
<text text-anchor="middle" x="623.1255" y="-71.5" font-family="Helvetica,sans-Serif" font-size="10.00" fill="#000000">/main.cpp</text>
</a>
</g>
</g>
<!-- Node47&#45;&gt;Node52 -->
<g id="edge5" class="edge">
<title>Node47&#45;&gt;Node52</title>
<path fill="none" stroke="#191970" d="M774.67,-127.3562C743.6443,-117.5586 699.9695,-103.7665 667.4716,-93.504"/>
<polygon fill="#191970" stroke="#191970" points="773.6788,-130.7134 784.2686,-130.3873 775.7867,-124.0384 773.6788,-130.7134"/>
</g>
<!-- Node53 -->
<g id="node7" class="node">
<title>Node53</title>
<g id="a_node7"><a xlink:href="../../db/db7/arteries_2vonmises_2main_8cpp.html" target="_top" xlink:title="arteries/vonmises/main.cpp">
<polygon fill="#ffffff" stroke="#000000" points="696.2686,-70.5 696.2686,-88.5 833.9824,-88.5 833.9824,-70.5 696.2686,-70.5"/>
<text text-anchor="middle" x="765.1255" y="-76.5" font-family="Helvetica,sans-Serif" font-size="10.00" fill="#000000">arteries/vonmises/main.cpp</text>
</a>
</g>
</g>
<!-- Node47&#45;&gt;Node53 -->
<g id="edge6" class="edge">
<title>Node47&#45;&gt;Node53</title>
<path fill="none" stroke="#191970" d="M799.4085,-122.3537C790.6459,-111.4005 779.628,-97.6281 772.4843,-88.6985"/>
<polygon fill="#191970" stroke="#191970" points="796.8553,-124.765 805.8353,-130.3873 802.3214,-120.3921 796.8553,-124.765"/>
</g>
<!-- Node54 -->
<g id="node8" class="node">
<title>Node54</title>
<g id="a_node8"><a xlink:href="../../de/de8/example__pnpoly__inverse__isoparam_8cpp.html" target="_top" xlink:title="examples/pnpoly/example\l_pnpoly_inverse_isoparam.cpp">
<polygon fill="#ffffff" stroke="#000000" points="809.9165,-.5 809.9165,-28.5 964.3345,-28.5 964.3345,-.5 809.9165,-.5"/>
<text text-anchor="start" x="817.9165" y="-16.5" font-family="Helvetica,sans-Serif" font-size="10.00" fill="#000000">examples/pnpoly/example</text>
<text text-anchor="middle" x="887.1255" y="-6.5" font-family="Helvetica,sans-Serif" font-size="10.00" fill="#000000">_pnpoly_inverse_isoparam.cpp</text>
</a>
</g>
</g>
<!-- Node47&#45;&gt;Node54 -->
<g id="edge7" class="edge">
<title>Node47&#45;&gt;Node54</title>
<path fill="none" stroke="#191970" d="M825.3054,-121.724C830.8893,-113.4007 837.5019,-103.2927 843.1255,-94 856.6832,-71.5964 871.159,-44.82 879.6616,-28.7619"/>
<polygon fill="#191970" stroke="#191970" points="822.2576,-119.9826 819.5458,-130.2246 828.0527,-123.9092 822.2576,-119.9826"/>
</g>
<!-- Node55 -->
<g id="node9" class="node">
<title>Node55</title>
<g id="a_node9"><a xlink:href="../../d8/dc8/nrl_2deterministic__random__search_2main_8cpp.html" target="_top" xlink:title="nrl/deterministic_random\l_search/main.cpp">
<polygon fill="#ffffff" stroke="#000000" points="994.3818,-.5 994.3818,-28.5 1119.8691,-28.5 1119.8691,-.5 994.3818,-.5"/>
<text text-anchor="start" x="1002.3818" y="-16.5" font-family="Helvetica,sans-Serif" font-size="10.00" fill="#000000">nrl/deterministic_random</text>
<text text-anchor="middle" x="1057.1255" y="-6.5" font-family="Helvetica,sans-Serif" font-size="10.00" fill="#000000">_search/main.cpp</text>
</a>
</g>
</g>
<!-- Node47&#45;&gt;Node55 -->
<g id="edge8" class="edge">
<title>Node47&#45;&gt;Node55</title>
<path fill="none" stroke="#191970" d="M894.2572,-134.3595C954.811,-128.6946 1030.496,-117.1162 1051.1255,-94 1067.0693,-76.1343 1064.2041,-46.1091 1060.6703,-28.5177"/>
<polygon fill="#191970" stroke="#191970" points="893.9447,-130.8734 884.2968,-135.2516 894.5692,-137.8455 893.9447,-130.8734"/>
</g>
<!-- Node56 -->
<g id="node10" class="node">
<title>Node56</title>
<g id="a_node10"><a xlink:href="../../df/d27/nrl_2deterministic__random__search_2objective_function_8hpp.html" target="_top" xlink:title="nrl/deterministic_random\l_search/objectiveFunction.hpp">
<polygon fill="#ffffff" stroke="#000000" points="890.3057,-65.5 890.3057,-93.5 1041.9453,-93.5 1041.9453,-65.5 890.3057,-65.5"/>
<text text-anchor="start" x="898.3057" y="-81.5" font-family="Helvetica,sans-Serif" font-size="10.00" fill="#000000">nrl/deterministic_random</text>
<text text-anchor="middle" x="966.1255" y="-71.5" font-family="Helvetica,sans-Serif" font-size="10.00" fill="#000000">_search/objectiveFunction.hpp</text>
</a>
</g>
</g>
<!-- Node47&#45;&gt;Node56 -->
<g id="edge9" class="edge">
<title>Node47&#45;&gt;Node56</title>
<path fill="none" stroke="#191970" d="M845.7287,-126.7144C870.5944,-116.9632 904.8123,-103.5444 930.4152,-93.504"/>
<polygon fill="#191970" stroke="#191970" points="844.3948,-123.4779 836.3629,-130.3873 846.9505,-129.9948 844.3948,-123.4779"/>
</g>
<!-- Node57 -->
<g id="node11" class="node">
<title>Node57</title>
<g id="a_node11"><a xlink:href="../../d5/d58/nrl_2forward__deterministic_2main_8cpp.html" target="_top" xlink:title="nrl/forward_deterministic\l/main.cpp">
<polygon fill="#ffffff" stroke="#000000" points="1097.6626,-65.5 1097.6626,-93.5 1222.5884,-93.5 1222.5884,-65.5 1097.6626,-65.5"/>
<text text-anchor="start" x="1105.6626" y="-81.5" font-family="Helvetica,sans-Serif" font-size="10.00" fill="#000000">nrl/forward_deterministic</text>
<text text-anchor="middle" x="1160.1255" y="-71.5" font-family="Helvetica,sans-Serif" font-size="10.00" fill="#000000">/main.cpp</text>
</a>
</g>
</g>
<!-- Node47&#45;&gt;Node57 -->
<g id="edge12" class="edge">
<title>Node47&#45;&gt;Node57</title>
<path fill="none" stroke="#191970" d="M878.9342,-128.8699C933.8571,-119.8978 1014.1684,-106.5447 1084.1255,-94 1088.4886,-93.2176 1092.9897,-92.396 1097.5208,-91.5582"/>
<polygon fill="#191970" stroke="#191970" points="878.2887,-125.4289 868.9826,-130.4931 879.4156,-132.3376 878.2887,-125.4289"/>
</g>
<!-- Node58 -->
<g id="node12" class="node">
<title>Node58</title>
<g id="a_node12"><a xlink:href="../../db/de3/nrl_2forward__randomfield_2main_8cpp.html" target="_top" xlink:title="nrl/forward_randomfield\l/main.cpp">
<polygon fill="#ffffff" stroke="#000000" points="1240.6011,-65.5 1240.6011,-93.5 1361.6499,-93.5 1361.6499,-65.5 1240.6011,-65.5"/>
<text text-anchor="start" x="1248.6011" y="-81.5" font-family="Helvetica,sans-Serif" font-size="10.00" fill="#000000">nrl/forward_randomfield</text>
<text text-anchor="middle" x="1301.1255" y="-71.5" font-family="Helvetica,sans-Serif" font-size="10.00" fill="#000000">/main.cpp</text>
</a>
</g>
</g>
<!-- Node47&#45;&gt;Node58 -->
<g id="edge13" class="edge">
<title>Node47&#45;&gt;Node58</title>
<path fill="none" stroke="#191970" d="M894.4423,-132.9726C978.8976,-125.65 1114.7164,-112.3491 1231.1255,-94 1234.1903,-93.5169 1237.3242,-92.9899 1240.4842,-92.4321"/>
<polygon fill="#191970" stroke="#191970" points="894.0656,-129.492 884.4022,-133.8359 894.6654,-136.4663 894.0656,-129.492"/>
</g>
<!-- Node59 -->
<g id="node13" class="node">
<title>Node59</title>
<g id="a_node13"><a xlink:href="../../d5/dc7/_newton___raphsonpp_8cpp.html" target="_top" xlink:title="src/Newton_Raphsonpp.cpp">
<polygon fill="#ffffff" stroke="#000000" points="1379.3105,-70.5 1379.3105,-88.5 1520.9404,-88.5 1520.9404,-70.5 1379.3105,-70.5"/>
<text text-anchor="middle" x="1450.1255" y="-76.5" font-family="Helvetica,sans-Serif" font-size="10.00" fill="#000000">src/Newton_Raphsonpp.cpp</text>
</a>
</g>
</g>
<!-- Node47&#45;&gt;Node59 -->
<g id="edge14" class="edge">
<title>Node47&#45;&gt;Node59</title>
<path fill="none" stroke="#191970" d="M894.529,-135.4232C1003.432,-129.3848 1202.401,-116.3062 1371.1255,-94 1382.1848,-92.5379 1394.0468,-90.5736 1405.13,-88.5638"/>
<polygon fill="#191970" stroke="#191970" points="894.0684,-131.9431 884.2752,-135.9856 894.4519,-138.9326 894.0684,-131.9431"/>
</g>
<!-- Node56&#45;&gt;Node54 -->
<g id="edge10" class="edge">
<title>Node56&#45;&gt;Node54</title>
<path fill="none" stroke="#191970" d="M941.0681,-58.8832C929.0629,-49.0054 914.9934,-37.4293 904.2339,-28.5765"/>
<polygon fill="#191970" stroke="#191970" points="939.0377,-61.745 948.9837,-65.396 943.4853,-56.3395 939.0377,-61.745"/>
</g>
<!-- Node56&#45;&gt;Node55 -->
<g id="edge11" class="edge">
<title>Node56&#45;&gt;Node55</title>
<path fill="none" stroke="#191970" d="M994.1939,-59.4511C1008.1931,-49.4517 1024.7861,-37.5995 1037.4184,-28.5765"/>
<polygon fill="#191970" stroke="#191970" points="991.9741,-56.7355 985.8711,-65.396 996.0428,-62.4316 991.9741,-56.7355"/>
</g>
</g>
</svg>
        <g id="navigator" transform="translate(0 0)" fill="#404254">
                <rect fill="#f2f5e9" fill-opacity="0.5" stroke="#606060" stroke-width=".5" x="0" y="0" width="60" height="60"/>
                <use id="zoomplus" xlink:href="#zoomPlus" x="17" y="9" onmousedown="handleZoom(evt,'in')"/>
                <use id="zoomminus" xlink:href="#zoomMin" x="42" y="9" onmousedown="handleZoom(evt,'out')"/>
                <use id="reset" xlink:href="#resetDef" x="30" y="36" onmousedown="handleReset()"/>
                <g id="arrowUp" xlink:href="#dirArrow" transform="translate(30 24)" onmousedown="handlePan(0,-1)">
                  <use xlink:href="#rim" fill="#404040">
                        <set attributeName="fill" to="#808080" begin="arrowUp.mouseover" end="arrowUp.mouseout"/>
                  </use>
                  <path fill="none" stroke="white" stroke-width="1.5" d="M0,-3.0v7 M-2.5,-0.5L0,-3.0L2.5,-0.5"/>
                </g>
                <g id="arrowRight" xlink:href="#dirArrow" transform="rotate(90) translate(36 -43)" onmousedown="handlePan(1,0)">
                  <use xlink:href="#rim" fill="#404040">
                        <set attributeName="fill" to="#808080" begin="arrowRight.mouseover" end="arrowRight.mouseout"/>
                  </use>
                  <path fill="none" stroke="white" stroke-width="1.5" d="M0,-3.0v7 M-2.5,-0.5L0,-3.0L2.5,-0.5"/>
                </g>
                <g id="arrowDown" xlink:href="#dirArrow" transform="rotate(180) translate(-30 -48)" onmousedown="handlePan(0,1)">
                  <use xlink:href="#rim" fill="#404040">
                        <set attributeName="fill" to="#808080" begin="arrowDown.mouseover" end="arrowDown.mouseout"/>
                  </use>
                  <path fill="none" stroke="white" stroke-width="1.5" d="M0,-3.0v7 M-2.5,-0.5L0,-3.0L2.5,-0.5"/>
                </g>
                <g id="arrowLeft" xlink:href="#dirArrow" transform="rotate(270) translate(-36 17)" onmousedown="handlePan(-1,0)">
                  <use xlink:href="#rim" fill="#404040">
                        <set attributeName="fill" to="#808080" begin="arrowLeft.mouseover" end="arrowLeft.mouseout"/>
                  </use>
                  <path fill="none" stroke="white" stroke-width="1.5" d="M0,-3.0v7 M-2.5,-0.5L0,-3.0L2.5,-0.5"/>
                </g>
        </g>
        <svg viewBox="0 0 15 15" width="100%" height="30px" preserveAspectRatio="xMaxYMin meet">
         <g id="arrow_out" transform="scale(0.3 0.3)">
          <a xlink:href="_newton___raphsonpp_8hpp__dep__incl_org.svg" target="_base">
           <rect id="button" ry="5" rx="5" y="6" x="6" height="38" width="38"
                fill="#f2f5e9" fill-opacity="0.5" stroke="#606060" stroke-width="1.0"/>
           <path id="arrow"
             d="M 11.500037,31.436501 C 11.940474,20.09759 22.043105,11.32322 32.158766,21.979434 L 37.068811,17.246167 C 37.068811,17.246167 37.088388,32 37.088388,32 L 22.160133,31.978069 C 22.160133,31.978069 26.997745,27.140456 26.997745,27.140456 C 18.528582,18.264221 13.291696,25.230495 11.500037,31.436501 z"
             style="fill:#404040;"/>
          </a>
         </g>
        </svg>
</svg>
