<?xml version="1.0" encoding="UTF-8" standalone="no"?>
<!DOCTYPE svg PUBLIC "-//W3C//DTD SVG 1.1//EN"
 "http://www.w3.org/Graphics/SVG/1.1/DTD/svg11.dtd">
<!-- Generated by graphviz version 2.40.1 (20161225.0304)
 -->
<!-- Title: TIMooney Pages: 1 -->
<svg width="165pt" height="252pt"
 viewBox="0.00 0.00 165.00 252.00" xmlns="http://www.w3.org/2000/svg" xmlns:xlink="http://www.w3.org/1999/xlink">
<g id="graph0" class="graph" transform="scale(1 1) rotate(0) translate(4 248)">
<title>TIMooney</title>
<polygon fill="#ffffff" stroke="transparent" points="-4,4 -4,-248 161,-248 161,4 -4,4"/>
<!-- Node0 -->
<g id="node1" class="node">
<title>Node0</title>
<polygon fill="#bfbfbf" stroke="#000000" points="48.5,-.5 48.5,-19.5 108.5,-19.5 108.5,-.5 48.5,-.5"/>
<text text-anchor="middle" x="78.5" y="-7.5" font-family="Helvetica,sans-Serif" font-size="10.00" fill="#000000">TIMooney</text>
</g>
<!-- Node1 -->
<g id="node2" class="node">
<title>Node1</title>
<g id="a_node2"><a xlink:href="../../d1/d5c/classcompressible_hyperelasticity.html" target="_top" xlink:title="compressibleHyperelasticity">
<polygon fill="#ffffff" stroke="#000000" points="8.5,-56.5 8.5,-75.5 148.5,-75.5 148.5,-56.5 8.5,-56.5"/>
<text text-anchor="middle" x="78.5" y="-63.5" font-family="Helvetica,sans-Serif" font-size="10.00" fill="#000000">compressibleHyperelasticity</text>
</a>
</g>
</g>
<!-- Node1&#45;&gt;Node0 -->
<g id="edge1" class="edge">
<title>Node1&#45;&gt;Node0</title>
<path fill="none" stroke="#191970" d="M78.5,-46.1575C78.5,-37.155 78.5,-26.9199 78.5,-19.6427"/>
<polygon fill="#191970" stroke="#191970" points="75.0001,-46.2455 78.5,-56.2455 82.0001,-46.2456 75.0001,-46.2455"/>
</g>
<!-- Node2 -->
<g id="node3" class="node">
<title>Node2</title>
<g id="a_node3"><a xlink:href="../../dc/d5a/classhyperelasticity.html" target="_top" xlink:title="hyperelasticity">
<polygon fill="#ffffff" stroke="#000000" points="38.5,-112.5 38.5,-131.5 118.5,-131.5 118.5,-112.5 38.5,-112.5"/>
<text text-anchor="middle" x="78.5" y="-119.5" font-family="Helvetica,sans-Serif" font-size="10.00" fill="#000000">hyperelasticity</text>
</a>
</g>
</g>
<!-- Node2&#45;&gt;Node1 -->
<g id="edge2" class="edge">
<title>Node2&#45;&gt;Node1</title>
<path fill="none" stroke="#191970" d="M78.5,-102.1575C78.5,-93.155 78.5,-82.9199 78.5,-75.6427"/>
<polygon fill="#191970" stroke="#191970" points="75.0001,-102.2455 78.5,-112.2455 82.0001,-102.2456 75.0001,-102.2455"/>
</g>
<!-- Node3 -->
<g id="node4" class="node">
<title>Node3</title>
<g id="a_node4"><a xlink:href="../../da/d1c/class_non_linear_finite_element_problem.html" target="_top" xlink:title="NonLinearFiniteElementProblem">
<polygon fill="#ffffff" stroke="#000000" points="0,-168.5 0,-187.5 157,-187.5 157,-168.5 0,-168.5"/>
<text text-anchor="middle" x="78.5" y="-175.5" font-family="Helvetica,sans-Serif" font-size="10.00" fill="#000000">NonLinearFiniteElementProblem</text>
</a>
</g>
</g>
<!-- Node3&#45;&gt;Node2 -->
<g id="edge3" class="edge">
<title>Node3&#45;&gt;Node2</title>
<path fill="none" stroke="#191970" d="M78.5,-158.1575C78.5,-149.155 78.5,-138.9199 78.5,-131.6427"/>
<polygon fill="#191970" stroke="#191970" points="75.0001,-158.2455 78.5,-168.2455 82.0001,-158.2456 75.0001,-158.2455"/>
</g>
<!-- Node4 -->
<g id="node5" class="node">
<title>Node4</title>
<g id="a_node5"><a xlink:href="../../d2/d31/classbase_class_f_e_m.html" target="_top" xlink:title="baseClassFEM">
<polygon fill="#ffffff" stroke="#000000" points="36.5,-224.5 36.5,-243.5 120.5,-243.5 120.5,-224.5 36.5,-224.5"/>
<text text-anchor="middle" x="78.5" y="-231.5" font-family="Helvetica,sans-Serif" font-size="10.00" fill="#000000">baseClassFEM</text>
</a>
</g>
</g>
<!-- Node4&#45;&gt;Node3 -->
<g id="edge4" class="edge">
<title>Node4&#45;&gt;Node3</title>
<path fill="none" stroke="#191970" d="M78.5,-214.1575C78.5,-205.155 78.5,-194.9199 78.5,-187.6427"/>
<polygon fill="#191970" stroke="#191970" points="75.0001,-214.2455 78.5,-224.2455 82.0001,-214.2456 75.0001,-214.2455"/>
</g>
</g>
</svg>
