<?xml version="1.0" encoding="UTF-8" standalone="no"?>
<!DOCTYPE svg PUBLIC "-//W3C//DTD SVG 1.1//EN"
 "http://www.w3.org/Graphics/SVG/1.1/DTD/svg11.dtd">
<!-- Generated by graphviz version 2.40.1 (20161225.0304)
 -->
<!-- Title: src/linearelasticity_setup_pp.cpp Pages: 1 -->
<svg width="3409pt" height="277pt"
 viewBox="0.00 0.00 3409.19 277.00" xmlns="http://www.w3.org/2000/svg" xmlns:xlink="http://www.w3.org/1999/xlink">
<g id="graph0" class="graph" transform="scale(1 1) rotate(0) translate(4 273)">
<title>src/linearelasticity_setup_pp.cpp</title>
<polygon fill="#ffffff" stroke="transparent" points="-4,4 -4,-273 3405.1943,-273 3405.1943,4 -4,4"/>
<!-- Node0 -->
<g id="node1" class="node">
<title>Node0</title>
<polygon fill="#bfbfbf" stroke="#000000" points="2898.2759,-240.5 2898.2759,-268.5 2993.187,-268.5 2993.187,-240.5 2898.2759,-240.5"/>
<text text-anchor="start" x="2906.2759" y="-256.5" font-family="Helvetica,sans-Serif" font-size="10.00" fill="#000000">src/linearelasticity</text>
<text text-anchor="middle" x="2945.7314" y="-246.5" font-family="Helvetica,sans-Serif" font-size="10.00" fill="#000000">_setup_pp.cpp</text>
</g>
<!-- Node1 -->
<g id="node2" class="node">
<title>Node1</title>
<g id="a_node2"><a xlink:href="../../d4/d4c/linearelasticity__setup__pp_8hpp.html" target="_top" xlink:title="linearelasticity_setup\l_pp.hpp">
<polygon fill="#ffffff" stroke="#000000" points="2850.3179,-175.5 2850.3179,-203.5 2959.145,-203.5 2959.145,-175.5 2850.3179,-175.5"/>
<text text-anchor="start" x="2858.3179" y="-191.5" font-family="Helvetica,sans-Serif" font-size="10.00" fill="#000000">linearelasticity_setup</text>
<text text-anchor="middle" x="2904.7314" y="-181.5" font-family="Helvetica,sans-Serif" font-size="10.00" fill="#000000">_pp.hpp</text>
</a>
</g>
</g>
<!-- Node0&#45;&gt;Node1 -->
<g id="edge1" class="edge">
<title>Node0&#45;&gt;Node1</title>
<path fill="none" stroke="#191970" d="M2936.8351,-240.396C2931.6235,-232.1338 2924.9202,-221.5065 2918.9879,-212.1017"/>
<polygon fill="#191970" stroke="#191970" points="2921.9059,-210.1672 2913.6105,-203.5765 2915.9853,-213.9018 2921.9059,-210.1672"/>
</g>
<!-- Node34 -->
<g id="node35" class="node">
<title>Node34</title>
<g id="a_node35"><a xlink:href="../../d4/dbc/fepp_8hpp.html" target="_top" xlink:title="fepp.hpp">
<polygon fill="#ffffff" stroke="#000000" points="3346.2686,-.5 3346.2686,-18.5 3401.1943,-18.5 3401.1943,-.5 3346.2686,-.5"/>
<text text-anchor="middle" x="3373.7314" y="-6.5" font-family="Helvetica,sans-Serif" font-size="10.00" fill="#000000">fepp.hpp</text>
</a>
</g>
</g>
<!-- Node0&#45;&gt;Node34 -->
<g id="edge36" class="edge">
<title>Node0&#45;&gt;Node34</title>
<path fill="none" stroke="#191970" d="M2970.2798,-240.4478C3045.5703,-197.3492 3272.7141,-67.3253 3348.6785,-23.841"/>
<polygon fill="#191970" stroke="#191970" points="3350.6322,-26.7556 3357.5721,-18.7501 3347.1546,-20.6805 3350.6322,-26.7556"/>
</g>
<!-- Node2 -->
<g id="node3" class="node">
<title>Node2</title>
<g id="a_node3"><a xlink:href="../../d9/dea/_linear___finite___element___problem_8hpp.html" target="_top" xlink:title="Linear_Finite_Element\l_Problem.hpp">
<polygon fill="#ffffff" stroke="#000000" points="2459.7021,-110.5 2459.7021,-138.5 2575.7607,-138.5 2575.7607,-110.5 2459.7021,-110.5"/>
<text text-anchor="start" x="2467.7021" y="-126.5" font-family="Helvetica,sans-Serif" font-size="10.00" fill="#000000">Linear_Finite_Element</text>
<text text-anchor="middle" x="2517.7314" y="-116.5" font-family="Helvetica,sans-Serif" font-size="10.00" fill="#000000">_Problem.hpp</text>
</a>
</g>
</g>
<!-- Node1&#45;&gt;Node2 -->
<g id="edge2" class="edge">
<title>Node1&#45;&gt;Node2</title>
<path fill="none" stroke="#191970" d="M2850.1046,-180.3249C2780.8549,-168.6939 2661.4501,-148.6388 2586.189,-135.998"/>
<polygon fill="#191970" stroke="#191970" points="2586.3137,-132.47 2575.8721,-134.2652 2585.1542,-139.3733 2586.3137,-132.47"/>
</g>
<!-- Node3 -->
<g id="node4" class="node">
<title>Node3</title>
<g id="a_node4"><a xlink:href="../../d0/d02/meshpp_8hpp.html" target="_top" xlink:title="meshpp.hpp">
<polygon fill="#ffffff" stroke="#000000" points="1712.2119,-55.5 1712.2119,-73.5 1783.251,-73.5 1783.251,-55.5 1712.2119,-55.5"/>
<text text-anchor="middle" x="1747.7314" y="-61.5" font-family="Helvetica,sans-Serif" font-size="10.00" fill="#000000">meshpp.hpp</text>
</a>
</g>
</g>
<!-- Node2&#45;&gt;Node3 -->
<g id="edge3" class="edge">
<title>Node2&#45;&gt;Node3</title>
<path fill="none" stroke="#191970" d="M2459.5407,-119.9657C2312.1777,-108.4828 1926.5566,-78.4344 1793.5871,-68.0732"/>
<polygon fill="#191970" stroke="#191970" points="1793.5915,-64.563 1783.3498,-67.2755 1793.0476,-71.5418 1793.5915,-64.563"/>
</g>
<!-- Node4 -->
<g id="node5" class="node">
<title>Node4</title>
<polygon fill="#ffffff" stroke="#bfbfbf" points="0,-.5 0,-18.5 45.4629,-18.5 45.4629,-.5 0,-.5"/>
<text text-anchor="middle" x="22.7314" y="-6.5" font-family="Helvetica,sans-Serif" font-size="10.00" fill="#000000">stdio.h</text>
</g>
<!-- Node3&#45;&gt;Node4 -->
<g id="edge4" class="edge">
<title>Node3&#45;&gt;Node4</title>
<path fill="none" stroke="#191970" d="M1712.188,-64.103C1487.4228,-61.5201 266.3676,-46.3892 55.6991,-18.5455"/>
<polygon fill="#191970" stroke="#191970" points="56.0371,-15.0579 45.6373,-17.0816 55.0292,-21.985 56.0371,-15.0579"/>
</g>
<!-- Node5 -->
<g id="node6" class="node">
<title>Node5</title>
<polygon fill="#ffffff" stroke="#bfbfbf" points="63.5591,-.5 63.5591,-18.5 117.9038,-18.5 117.9038,-.5 63.5591,-.5"/>
<text text-anchor="middle" x="90.7314" y="-6.5" font-family="Helvetica,sans-Serif" font-size="10.00" fill="#000000">iostream</text>
</g>
<!-- Node3&#45;&gt;Node5 -->
<g id="edge5" class="edge">
<title>Node3&#45;&gt;Node5</title>
<path fill="none" stroke="#191970" d="M1711.9472,-63.9744C1492.4471,-60.6882 331.1884,-42.3839 128.0469,-18.531"/>
<polygon fill="#191970" stroke="#191970" points="128.4393,-15.0527 118.0738,-17.2454 127.5442,-21.9953 128.4393,-15.0527"/>
</g>
<!-- Node6 -->
<g id="node7" class="node">
<title>Node6</title>
<polygon fill="#ffffff" stroke="#bfbfbf" points="136.3398,-.5 136.3398,-18.5 185.123,-18.5 185.123,-.5 136.3398,-.5"/>
<text text-anchor="middle" x="160.7314" y="-6.5" font-family="Helvetica,sans-Serif" font-size="10.00" fill="#000000">istream</text>
</g>
<!-- Node3&#45;&gt;Node6 -->
<g id="edge6" class="edge">
<title>Node3&#45;&gt;Node6</title>
<path fill="none" stroke="#191970" d="M1711.997,-63.9913C1498.105,-60.8762 390.2802,-43.7355 195.5036,-18.7613"/>
<polygon fill="#191970" stroke="#191970" points="195.8399,-15.2741 185.4478,-17.3365 194.8579,-22.2049 195.8399,-15.2741"/>
</g>
<!-- Node7 -->
<g id="node8" class="node">
<title>Node7</title>
<polygon fill="#ffffff" stroke="#bfbfbf" points="203.0615,-.5 203.0615,-18.5 252.4014,-18.5 252.4014,-.5 203.0615,-.5"/>
<text text-anchor="middle" x="227.7314" y="-6.5" font-family="Helvetica,sans-Serif" font-size="10.00" fill="#000000">fstream</text>
</g>
<!-- Node3&#45;&gt;Node7 -->
<g id="edge7" class="edge">
<title>Node3&#45;&gt;Node7</title>
<path fill="none" stroke="#191970" d="M1712.1738,-63.9437C1504.4027,-60.6236 450.4173,-42.8079 262.6262,-18.7764"/>
<polygon fill="#191970" stroke="#191970" points="262.8408,-15.2719 252.4484,-17.3329 261.8578,-22.2025 262.8408,-15.2719"/>
</g>
<!-- Node8 -->
<g id="node9" class="node">
<title>Node8</title>
<polygon fill="#ffffff" stroke="#bfbfbf" points="270.1157,-.5 270.1157,-18.5 313.3472,-18.5 313.3472,-.5 270.1157,-.5"/>
<text text-anchor="middle" x="291.7314" y="-6.5" font-family="Helvetica,sans-Serif" font-size="10.00" fill="#000000">vector</text>
</g>
<!-- Node3&#45;&gt;Node8 -->
<g id="edge8" class="edge">
<title>Node3&#45;&gt;Node8</title>
<path fill="none" stroke="#191970" d="M1711.955,-63.9461C1508.8411,-60.7245 503.749,-43.7346 323.514,-18.7044"/>
<polygon fill="#191970" stroke="#191970" points="323.9318,-15.2275 313.5148,-17.1604 322.8635,-22.1455 323.9318,-15.2275"/>
</g>
<!-- Node9 -->
<g id="node10" class="node">
<title>Node9</title>
<polygon fill="#ffffff" stroke="#bfbfbf" points="331.2217,-.5 331.2217,-18.5 382.2412,-18.5 382.2412,-.5 331.2217,-.5"/>
<text text-anchor="middle" x="356.7314" y="-6.5" font-family="Helvetica,sans-Serif" font-size="10.00" fill="#000000">iomanip</text>
</g>
<!-- Node3&#45;&gt;Node9 -->
<g id="edge9" class="edge">
<title>Node3&#45;&gt;Node9</title>
<path fill="none" stroke="#191970" d="M1712.1447,-64.4195C1527.603,-63.835 677.5241,-59.0541 392.4821,-18.6842"/>
<polygon fill="#191970" stroke="#191970" points="392.9846,-15.2205 382.5827,-17.233 391.9693,-22.1465 392.9846,-15.2205"/>
</g>
<!-- Node10 -->
<g id="node11" class="node">
<title>Node10</title>
<polygon fill="#ffffff" stroke="#bfbfbf" points="400.271,-.5 400.271,-18.5 505.1919,-18.5 505.1919,-.5 400.271,-.5"/>
<text text-anchor="middle" x="452.7314" y="-6.5" font-family="Helvetica,sans-Serif" font-size="10.00" fill="#000000">Epetra_MpiComm.h</text>
</g>
<!-- Node3&#45;&gt;Node10 -->
<g id="edge10" class="edge">
<title>Node3&#45;&gt;Node10</title>
<path fill="none" stroke="#191970" d="M1711.9769,-63.7506C1537.7459,-60.0132 775.8701,-42.6596 515.4218,-19.0316"/>
<polygon fill="#191970" stroke="#191970" points="515.5367,-15.5272 505.2544,-18.0813 514.8852,-22.4968 515.5367,-15.5272"/>
</g>
<!-- Node11 -->
<g id="node12" class="node">
<title>Node11</title>
<polygon fill="#ffffff" stroke="#bfbfbf" points="522.9878,-.5 522.9878,-18.5 638.4751,-18.5 638.4751,-.5 522.9878,-.5"/>
<text text-anchor="middle" x="580.7314" y="-6.5" font-family="Helvetica,sans-Serif" font-size="10.00" fill="#000000">Epetra_FECrsGraph.h</text>
</g>
<!-- Node3&#45;&gt;Node11 -->
<g id="edge11" class="edge">
<title>Node3&#45;&gt;Node11</title>
<path fill="none" stroke="#191970" d="M1712.0344,-64.3131C1575.4737,-63.3272 1072.9942,-57.2189 648.8003,-19.002"/>
<polygon fill="#191970" stroke="#191970" points="649.0704,-15.5122 638.7948,-18.0933 648.4372,-22.4835 649.0704,-15.5122"/>
</g>
<!-- Node12 -->
<g id="node13" class="node">
<title>Node12</title>
<polygon fill="#ffffff" stroke="#bfbfbf" points="656.2734,-.5 656.2734,-18.5 771.1895,-18.5 771.1895,-.5 656.2734,-.5"/>
<text text-anchor="middle" x="713.7314" y="-6.5" font-family="Helvetica,sans-Serif" font-size="10.00" fill="#000000">Epetra_FECrsMatrix.h</text>
</g>
<!-- Node3&#45;&gt;Node12 -->
<g id="edge12" class="edge">
<title>Node3&#45;&gt;Node12</title>
<path fill="none" stroke="#191970" d="M1712.045,-64.0577C1586.1226,-62.2369 1150.7147,-53.7332 781.369,-19.0705"/>
<polygon fill="#191970" stroke="#191970" points="781.5707,-15.5741 771.2854,-18.1161 780.911,-22.5429 781.5707,-15.5741"/>
</g>
<!-- Node13 -->
<g id="node14" class="node">
<title>Node13</title>
<polygon fill="#ffffff" stroke="#bfbfbf" points="788.7563,-.5 788.7563,-18.5 888.7065,-18.5 888.7065,-.5 788.7563,-.5"/>
<text text-anchor="middle" x="838.7314" y="-6.5" font-family="Helvetica,sans-Serif" font-size="10.00" fill="#000000">Epetra_FEVector.h</text>
</g>
<!-- Node3&#45;&gt;Node13 -->
<g id="edge13" class="edge">
<title>Node3&#45;&gt;Node13</title>
<path fill="none" stroke="#191970" d="M1711.9938,-63.9439C1596.0862,-61.8537 1220.0086,-52.8246 898.8582,-19.0077"/>
<polygon fill="#191970" stroke="#191970" points="899.2087,-15.5253 888.8948,-17.9487 898.4688,-22.4861 899.2087,-15.5253"/>
</g>
<!-- Node14 -->
<g id="node15" class="node">
<title>Node14</title>
<polygon fill="#ffffff" stroke="#bfbfbf" points="907.1455,-.5 907.1455,-18.5 994.3174,-18.5 994.3174,-.5 907.1455,-.5"/>
<text text-anchor="middle" x="950.7314" y="-6.5" font-family="Helvetica,sans-Serif" font-size="10.00" fill="#000000">Epetra_Vector.h</text>
</g>
<!-- Node3&#45;&gt;Node14 -->
<g id="edge14" class="edge">
<title>Node3&#45;&gt;Node14</title>
<path fill="none" stroke="#191970" d="M1711.9782,-63.787C1605.7832,-61.3573 1282.8585,-51.7157 1004.6376,-18.957"/>
<polygon fill="#191970" stroke="#191970" points="1004.6875,-15.4383 994.3439,-17.7319 1003.8601,-22.3893 1004.6875,-15.4383"/>
</g>
<!-- Node15 -->
<g id="node16" class="node">
<title>Node15</title>
<polygon fill="#ffffff" stroke="#bfbfbf" points="1012.3228,-.5 1012.3228,-18.5 1091.1401,-18.5 1091.1401,-.5 1012.3228,-.5"/>
<text text-anchor="middle" x="1051.7314" y="-6.5" font-family="Helvetica,sans-Serif" font-size="10.00" fill="#000000">Epetra_Map.h</text>
</g>
<!-- Node3&#45;&gt;Node15 -->
<g id="edge15" class="edge">
<title>Node3&#45;&gt;Node15</title>
<path fill="none" stroke="#191970" d="M1712.1002,-63.5651C1615.4147,-60.6956 1339.9155,-50.3103 1101.47,-19.0811"/>
<polygon fill="#191970" stroke="#191970" points="1101.592,-15.5667 1091.2188,-17.7225 1100.6723,-22.5061 1101.592,-15.5667"/>
</g>
<!-- Node16 -->
<g id="node17" class="node">
<title>Node16</title>
<polygon fill="#ffffff" stroke="#bfbfbf" points="1109.2021,-.5 1109.2021,-18.5 1250.2607,-18.5 1250.2607,-.5 1109.2021,-.5"/>
<text text-anchor="middle" x="1179.7314" y="-6.5" font-family="Helvetica,sans-Serif" font-size="10.00" fill="#000000">Epetra_SerialDenseMatrix.h</text>
</g>
<!-- Node3&#45;&gt;Node16 -->
<g id="edge16" class="edge">
<title>Node3&#45;&gt;Node16</title>
<path fill="none" stroke="#191970" d="M1712.1121,-61.5164C1632.915,-54.8115 1435.9855,-37.7471 1260.5478,-19.1717"/>
<polygon fill="#191970" stroke="#191970" points="1260.67,-15.665 1250.356,-18.0882 1259.9299,-22.6258 1260.67,-15.665"/>
</g>
<!-- Node17 -->
<g id="node18" class="node">
<title>Node17</title>
<polygon fill="#ffffff" stroke="#bfbfbf" points="1267.9092,-.5 1267.9092,-18.5 1409.5537,-18.5 1409.5537,-.5 1267.9092,-.5"/>
<text text-anchor="middle" x="1338.7314" y="-6.5" font-family="Helvetica,sans-Serif" font-size="10.00" fill="#000000">Epetra_SerialDenseVector.h</text>
</g>
<!-- Node3&#45;&gt;Node17 -->
<g id="edge17" class="edge">
<title>Node3&#45;&gt;Node17</title>
<path fill="none" stroke="#191970" d="M1712.1509,-59.7153C1646.3719,-50.8697 1504.381,-31.7756 1415.6817,-19.8478"/>
<polygon fill="#191970" stroke="#191970" points="1416.0486,-16.3657 1405.6713,-18.5017 1415.1156,-23.3033 1416.0486,-16.3657"/>
</g>
<!-- Node18 -->
<g id="node19" class="node">
<title>Node18</title>
<polygon fill="#ffffff" stroke="#bfbfbf" points="1427.3501,-.5 1427.3501,-18.5 1580.1128,-18.5 1580.1128,-.5 1427.3501,-.5"/>
<text text-anchor="middle" x="1503.7314" y="-6.5" font-family="Helvetica,sans-Serif" font-size="10.00" fill="#000000">Epetra_IntSerialDenseVector.h</text>
</g>
<!-- Node3&#45;&gt;Node18 -->
<g id="edge18" class="edge">
<title>Node3&#45;&gt;Node18</title>
<path fill="none" stroke="#191970" d="M1711.9904,-56.4436C1670.3079,-47.048 1601.1212,-31.4526 1554.0289,-20.8375"/>
<polygon fill="#191970" stroke="#191970" points="1554.564,-17.3704 1544.0391,-18.5857 1553.0247,-24.1991 1554.564,-17.3704"/>
</g>
<!-- Node19 -->
<g id="node20" class="node">
<title>Node19</title>
<polygon fill="#ffffff" stroke="#bfbfbf" points="1597.8794,-.5 1597.8794,-18.5 1685.5835,-18.5 1685.5835,-.5 1597.8794,-.5"/>
<text text-anchor="middle" x="1641.7314" y="-6.5" font-family="Helvetica,sans-Serif" font-size="10.00" fill="#000000">Epetra_Import.h</text>
</g>
<!-- Node3&#45;&gt;Node19 -->
<g id="edge19" class="edge">
<title>Node3&#45;&gt;Node19</title>
<path fill="none" stroke="#191970" d="M1730.2277,-55.4179C1713.3495,-46.6603 1687.5827,-33.2907 1668.1978,-23.2326"/>
<polygon fill="#191970" stroke="#191970" points="1669.7495,-20.0946 1659.2612,-18.5956 1666.5255,-26.308 1669.7495,-20.0946"/>
</g>
<!-- Node20 -->
<g id="node21" class="node">
<title>Node20</title>
<polygon fill="#ffffff" stroke="#bfbfbf" points="1703.5986,-.5 1703.5986,-18.5 1791.8643,-18.5 1791.8643,-.5 1703.5986,-.5"/>
<text text-anchor="middle" x="1747.7314" y="-6.5" font-family="Helvetica,sans-Serif" font-size="10.00" fill="#000000">Epetra_Export.h</text>
</g>
<!-- Node3&#45;&gt;Node20 -->
<g id="edge20" class="edge">
<title>Node3&#45;&gt;Node20</title>
<path fill="none" stroke="#191970" d="M1747.7314,-55.4179C1747.7314,-48.2164 1747.7314,-37.8962 1747.7314,-28.8632"/>
<polygon fill="#191970" stroke="#191970" points="1751.2315,-28.7794 1747.7314,-18.7795 1744.2315,-28.7795 1751.2315,-28.7794"/>
</g>
<!-- Node21 -->
<g id="node22" class="node">
<title>Node21</title>
<polygon fill="#ffffff" stroke="#bfbfbf" points="1810.1216,-.5 1810.1216,-18.5 1891.3413,-18.5 1891.3413,-.5 1810.1216,-.5"/>
<text text-anchor="middle" x="1850.7314" y="-6.5" font-family="Helvetica,sans-Serif" font-size="10.00" fill="#000000">Epetra_Time.h</text>
</g>
<!-- Node3&#45;&gt;Node21 -->
<g id="edge21" class="edge">
<title>Node3&#45;&gt;Node21</title>
<path fill="none" stroke="#191970" d="M1764.7398,-55.4179C1781.0658,-46.7001 1805.9504,-33.4122 1824.7569,-23.3699"/>
<polygon fill="#191970" stroke="#191970" points="1826.5253,-26.3934 1833.6978,-18.5956 1823.228,-20.2186 1826.5253,-26.3934"/>
</g>
<!-- Node22 -->
<g id="node23" class="node">
<title>Node22</title>
<polygon fill="#ffffff" stroke="#bfbfbf" points="1909.0273,-.5 1909.0273,-18.5 2058.4355,-18.5 2058.4355,-.5 1909.0273,-.5"/>
<text text-anchor="middle" x="1983.7314" y="-6.5" font-family="Helvetica,sans-Serif" font-size="10.00" fill="#000000">ml_MultiLevelPreconditioner.h</text>
</g>
<!-- Node3&#45;&gt;Node22 -->
<g id="edge22" class="edge">
<title>Node3&#45;&gt;Node22</title>
<path fill="none" stroke="#191970" d="M1783.3186,-56.2064C1823.7816,-46.7764 1890.0678,-31.3284 1935.2383,-20.8014"/>
<polygon fill="#191970" stroke="#191970" points="1936.1599,-24.1805 1945.1045,-18.502 1934.571,-17.3632 1936.1599,-24.1805"/>
</g>
<!-- Node23 -->
<g id="node24" class="node">
<title>Node23</title>
<polygon fill="#ffffff" stroke="#bfbfbf" points="2076.6553,-.5 2076.6553,-18.5 2168.8076,-18.5 2168.8076,-.5 2076.6553,-.5"/>
<text text-anchor="middle" x="2122.7314" y="-6.5" font-family="Helvetica,sans-Serif" font-size="10.00" fill="#000000">ml_epetra_utils.h</text>
</g>
<!-- Node3&#45;&gt;Node23 -->
<g id="edge23" class="edge">
<title>Node3&#45;&gt;Node23</title>
<path fill="none" stroke="#191970" d="M1783.298,-59.7952C1840.6314,-52.1344 1957.287,-36.2316 2066.3448,-19.1822"/>
<polygon fill="#191970" stroke="#191970" points="2067.1984,-22.5911 2076.5344,-17.5822 2066.1126,-15.6758 2067.1984,-22.5911"/>
</g>
<!-- Node24 -->
<g id="node25" class="node">
<title>Node24</title>
<polygon fill="#ffffff" stroke="#bfbfbf" points="2186.6602,-.5 2186.6602,-18.5 2258.8027,-18.5 2258.8027,-.5 2186.6602,-.5"/>
<text text-anchor="middle" x="2222.7314" y="-6.5" font-family="Helvetica,sans-Serif" font-size="10.00" fill="#000000">ml_include.h</text>
</g>
<!-- Node3&#45;&gt;Node24 -->
<g id="edge24" class="edge">
<title>Node3&#45;&gt;Node24</title>
<path fill="none" stroke="#191970" d="M1783.2884,-61.9795C1855.5167,-56.5925 2024.7359,-42.6149 2176.4732,-19.0605"/>
<polygon fill="#191970" stroke="#191970" points="2177.1055,-22.5042 2186.4414,-17.4951 2176.0195,-15.5889 2177.1055,-22.5042"/>
</g>
<!-- Node25 -->
<g id="node26" class="node">
<title>Node25</title>
<polygon fill="#ffffff" stroke="#bfbfbf" points="2277.1528,-.5 2277.1528,-18.5 2414.3101,-18.5 2414.3101,-.5 2277.1528,-.5"/>
<text text-anchor="middle" x="2345.7314" y="-6.5" font-family="Helvetica,sans-Serif" font-size="10.00" fill="#000000">EpetraExt_RowMatrixOut.h</text>
</g>
<!-- Node3&#45;&gt;Node25 -->
<g id="edge25" class="edge">
<title>Node3&#45;&gt;Node25</title>
<path fill="none" stroke="#191970" d="M1783.3922,-61.799C1866.2197,-55.4356 2078.2631,-38.6282 2266.7483,-19.0712"/>
<polygon fill="#191970" stroke="#191970" points="2267.2592,-22.537 2276.8423,-18.0189 2266.5333,-15.5748 2267.2592,-22.537"/>
</g>
<!-- Node26 -->
<g id="node27" class="node">
<title>Node26</title>
<polygon fill="#ffffff" stroke="#bfbfbf" points="2432.0322,-.5 2432.0322,-18.5 2571.4307,-18.5 2571.4307,-.5 2432.0322,-.5"/>
<text text-anchor="middle" x="2501.7314" y="-6.5" font-family="Helvetica,sans-Serif" font-size="10.00" fill="#000000">EpetraExt_MultiVectorOut.h</text>
</g>
<!-- Node3&#45;&gt;Node26 -->
<g id="edge26" class="edge">
<title>Node3&#45;&gt;Node26</title>
<path fill="none" stroke="#191970" d="M1783.3337,-62.7826C1882.6756,-57.846 2171.5228,-42.5084 2421.993,-19.1224"/>
<polygon fill="#191970" stroke="#191970" points="2422.382,-22.6014 2432.0105,-18.1808 2421.7268,-15.6321 2422.382,-22.6014"/>
</g>
<!-- Node27 -->
<g id="node28" class="node">
<title>Node27</title>
<polygon fill="#ffffff" stroke="#bfbfbf" points="2589.478,-.5 2589.478,-18.5 2699.9849,-18.5 2699.9849,-.5 2589.478,-.5"/>
<text text-anchor="middle" x="2644.7314" y="-6.5" font-family="Helvetica,sans-Serif" font-size="10.00" fill="#000000">EpetraExt_VectorIn.h</text>
</g>
<!-- Node3&#45;&gt;Node27 -->
<g id="edge27" class="edge">
<title>Node3&#45;&gt;Node27</title>
<path fill="none" stroke="#191970" d="M1783.5467,-63.7313C1897.9648,-61.0245 2265.0836,-50.3989 2579.0589,-19.082"/>
<polygon fill="#191970" stroke="#191970" points="2579.6687,-22.5384 2589.2679,-18.0545 2578.9676,-15.5736 2579.6687,-22.5384"/>
</g>
<!-- Node28 -->
<g id="node29" class="node">
<title>Node28</title>
<polygon fill="#ffffff" stroke="#bfbfbf" points="2717.9214,-.5 2717.9214,-18.5 2849.5415,-18.5 2849.5415,-.5 2717.9214,-.5"/>
<text text-anchor="middle" x="2783.7314" y="-6.5" font-family="Helvetica,sans-Serif" font-size="10.00" fill="#000000">EpetraExt_MultiVectorIn.h</text>
</g>
<!-- Node3&#45;&gt;Node28 -->
<g id="edge28" class="edge">
<title>Node3&#45;&gt;Node28</title>
<path fill="none" stroke="#191970" d="M1783.5777,-63.8198C1909.0938,-61.2236 2340.5825,-50.4922 2707.8845,-19.0008"/>
<polygon fill="#191970" stroke="#191970" points="2708.2511,-22.4823 2717.9127,-18.1345 2707.6485,-15.5083 2708.2511,-22.4823"/>
</g>
<!-- Node29 -->
<g id="node30" class="node">
<title>Node29</title>
<polygon fill="#ffffff" stroke="#bfbfbf" points="2867.6841,-.5 2867.6841,-18.5 2965.7788,-18.5 2965.7788,-.5 2867.6841,-.5"/>
<text text-anchor="middle" x="2916.7314" y="-6.5" font-family="Helvetica,sans-Serif" font-size="10.00" fill="#000000">Teuchos_RCP.hpp</text>
</g>
<!-- Node3&#45;&gt;Node29 -->
<g id="edge29" class="edge">
<title>Node3&#45;&gt;Node29</title>
<path fill="none" stroke="#191970" d="M1783.4311,-63.6225C1946.5318,-59.5249 2622.5842,-41.5608 2857.2546,-19.0031"/>
<polygon fill="#191970" stroke="#191970" points="2857.8192,-22.4644 2867.4248,-17.9941 2857.128,-15.4986 2857.8192,-22.4644"/>
</g>
<!-- Node30 -->
<g id="node31" class="node">
<title>Node30</title>
<polygon fill="#ffffff" stroke="#bfbfbf" points="2983.5,-.5 2983.5,-18.5 3043.9629,-18.5 3043.9629,-.5 2983.5,-.5"/>
<text text-anchor="middle" x="3013.7314" y="-6.5" font-family="Helvetica,sans-Serif" font-size="10.00" fill="#000000">Amesos.h</text>
</g>
<!-- Node3&#45;&gt;Node30 -->
<g id="edge30" class="edge">
<title>Node3&#45;&gt;Node30</title>
<path fill="none" stroke="#191970" d="M1783.3305,-64.1496C1956.7969,-62.2964 2715.2449,-52.4733 2973.1223,-18.9154"/>
<polygon fill="#191970" stroke="#191970" points="2973.7449,-22.3632 2983.1872,-17.5577 2972.809,-15.4261 2973.7449,-22.3632"/>
</g>
<!-- Node31 -->
<g id="node32" class="node">
<title>Node31</title>
<polygon fill="#ffffff" stroke="#bfbfbf" points="3062.2783,-.5 3062.2783,-18.5 3127.1846,-18.5 3127.1846,-.5 3062.2783,-.5"/>
<text text-anchor="middle" x="3094.7314" y="-6.5" font-family="Helvetica,sans-Serif" font-size="10.00" fill="#000000">AztecOO.h</text>
</g>
<!-- Node3&#45;&gt;Node31 -->
<g id="edge31" class="edge">
<title>Node3&#45;&gt;Node31</title>
<path fill="none" stroke="#191970" d="M1783.4442,-64.1608C1963.8658,-62.311 2776.9392,-52.3138 3051.8768,-18.8102"/>
<polygon fill="#191970" stroke="#191970" points="3052.337,-22.28 3061.821,-17.5573 3051.4619,-15.3349 3052.337,-22.28"/>
</g>
<!-- Node32 -->
<g id="node33" class="node">
<title>Node32</title>
<polygon fill="#ffffff" stroke="#bfbfbf" points="3145.4238,-.5 3145.4238,-18.5 3262.0391,-18.5 3262.0391,-.5 3145.4238,-.5"/>
<text text-anchor="middle" x="3203.7314" y="-6.5" font-family="Helvetica,sans-Serif" font-size="10.00" fill="#000000">Amesos_BaseSolver.h</text>
</g>
<!-- Node3&#45;&gt;Node32 -->
<g id="edge32" class="edge">
<title>Node3&#45;&gt;Node32</title>
<path fill="none" stroke="#191970" d="M1783.4598,-63.8431C1970.6823,-60.3234 2840.8536,-42.9894 3134.9537,-18.9412"/>
<polygon fill="#191970" stroke="#191970" points="3135.4988,-22.4078 3145.1707,-18.0829 3134.9128,-15.4324 3135.4988,-22.4078"/>
</g>
<!-- Node33 -->
<g id="node34" class="node">
<title>Node33</title>
<polygon fill="#ffffff" stroke="#bfbfbf" points="3279.6157,-.5 3279.6157,-18.5 3327.8472,-18.5 3327.8472,-.5 3279.6157,-.5"/>
<text text-anchor="middle" x="3303.7314" y="-6.5" font-family="Helvetica,sans-Serif" font-size="10.00" fill="#000000">metis.h</text>
</g>
<!-- Node3&#45;&gt;Node33 -->
<g id="edge33" class="edge">
<title>Node3&#45;&gt;Node33</title>
<path fill="none" stroke="#191970" d="M1783.4483,-63.9688C1994.6665,-60.7573 3077.2757,-43.3049 3269.2178,-18.6895"/>
<polygon fill="#191970" stroke="#191970" points="3269.9673,-22.1183 3279.3763,-17.2479 3268.9837,-15.1877 3269.9673,-22.1183"/>
</g>
<!-- Node3&#45;&gt;Node34 -->
<g id="edge34" class="edge">
<title>Node3&#45;&gt;Node34</title>
<path fill="none" stroke="#191970" d="M1783.3305,-63.9192C2003.1049,-60.3903 3169.9112,-41.2367 3327.7314,-19 3330.5019,-18.6096 3333.3641,-18.0899 3336.2528,-17.4941"/>
<polygon fill="#191970" stroke="#191970" points="3337.1103,-20.8885 3346.0817,-15.2526 3335.5538,-14.0638 3337.1103,-20.8885"/>
</g>
<!-- Node34&#45;&gt;Node3 -->
<g id="edge35" class="edge">
<title>Node34&#45;&gt;Node3</title>
<path fill="none" stroke="#191970" d="M3348.9153,-18.503C3347.8461,-18.6853 3346.7822,-18.852 3345.7314,-19 3189.1291,-41.0651 2039.0529,-60.0945 1793.6657,-63.8347"/>
<polygon fill="#191970" stroke="#191970" points="1793.2736,-60.3401 1783.3278,-63.9913 1793.3797,-67.3393 1793.2736,-60.3401"/>
</g>
</g>
</svg>
