<?xml version="1.0" encoding="UTF-8" standalone="no"?>
<!DOCTYPE svg PUBLIC "-//W3C//DTD SVG 1.1//EN"
 "http://www.w3.org/Graphics/SVG/1.1/DTD/svg11.dtd">
<!-- Generated by graphviz version 2.40.1 (20161225.0304)
 -->
<!-- Title: src/laplacepp.hpp Pages: 1 -->
<svg width="930pt" height="222pt"
 viewBox="0.00 0.00 929.82 222.00" xmlns="http://www.w3.org/2000/svg" xmlns:xlink="http://www.w3.org/1999/xlink">
<g id="graph0" class="graph" transform="scale(1 1) rotate(0) translate(4 218)">
<title>src/laplacepp.hpp</title>
<polygon fill="#ffffff" stroke="transparent" points="-4,4 -4,-218 925.8174,-218 925.8174,4 -4,4"/>
<!-- Node35 -->
<g id="node1" class="node">
<title>Node35</title>
<polygon fill="#bfbfbf" stroke="#000000" points="345.9336,-195.5 345.9336,-213.5 440.3174,-213.5 440.3174,-195.5 345.9336,-195.5"/>
<text text-anchor="middle" x="393.1255" y="-201.5" font-family="Helvetica,sans-Serif" font-size="10.00" fill="#000000">src/laplacepp.hpp</text>
</g>
<!-- Node36 -->
<g id="node2" class="node">
<title>Node36</title>
<g id="a_node2"><a xlink:href="../../d4/d0f/examples_2laplace__aztec_2main_8cpp.html" target="_top" xlink:title="examples/laplace_aztec\l/main.cpp">
<polygon fill="#ffffff" stroke="#000000" points="109.7612,-130.5 109.7612,-158.5 232.4897,-158.5 232.4897,-130.5 109.7612,-130.5"/>
<text text-anchor="start" x="117.7612" y="-146.5" font-family="Helvetica,sans-Serif" font-size="10.00" fill="#000000">examples/laplace_aztec</text>
<text text-anchor="middle" x="171.1255" y="-136.5" font-family="Helvetica,sans-Serif" font-size="10.00" fill="#000000">/main.cpp</text>
</a>
</g>
</g>
<!-- Node35&#45;&gt;Node36 -->
<g id="edge1" class="edge">
<title>Node35&#45;&gt;Node36</title>
<path fill="none" stroke="#191970" d="M349.5981,-192.7358C313.2699,-182.9174 261.4047,-168.8998 222.9404,-158.504"/>
<polygon fill="#191970" stroke="#191970" points="348.8416,-196.1569 359.4085,-195.3873 350.668,-189.3994 348.8416,-196.1569"/>
</g>
<!-- Node37 -->
<g id="node3" class="node">
<title>Node37</title>
<g id="a_node3"><a xlink:href="../../d8/d16/examples_2laplace__stratimikos_2main_8cpp.html" target="_top" xlink:title="examples/laplace_stratimikos\l/main.cpp">
<polygon fill="#ffffff" stroke="#000000" points="250.8203,-130.5 250.8203,-158.5 397.4307,-158.5 397.4307,-130.5 250.8203,-130.5"/>
<text text-anchor="start" x="258.8203" y="-146.5" font-family="Helvetica,sans-Serif" font-size="10.00" fill="#000000">examples/laplace_stratimikos</text>
<text text-anchor="middle" x="324.1255" y="-136.5" font-family="Helvetica,sans-Serif" font-size="10.00" fill="#000000">/main.cpp</text>
</a>
</g>
</g>
<!-- Node35&#45;&gt;Node37 -->
<g id="edge2" class="edge">
<title>Node35&#45;&gt;Node37</title>
<path fill="none" stroke="#191970" d="M375.0624,-188.7929C364.309,-179.4422 350.7755,-167.6739 340.3615,-158.6183"/>
<polygon fill="#191970" stroke="#191970" points="372.8032,-191.4666 382.6459,-195.3873 377.3964,-186.1843 372.8032,-191.4666"/>
</g>
<!-- Node38 -->
<g id="node4" class="node">
<title>Node38</title>
<g id="a_node4"><a xlink:href="../../de/d9d/hyperelasticity__setup__pp_8hpp.html" target="_top" xlink:title="src/hyperelasticity\l_setup_pp.hpp">
<polygon fill="#ffffff" stroke="#000000" points="415.3916,-130.5 415.3916,-158.5 510.8594,-158.5 510.8594,-130.5 415.3916,-130.5"/>
<text text-anchor="start" x="423.3916" y="-146.5" font-family="Helvetica,sans-Serif" font-size="10.00" fill="#000000">src/hyperelasticity</text>
<text text-anchor="middle" x="463.1255" y="-136.5" font-family="Helvetica,sans-Serif" font-size="10.00" fill="#000000">_setup_pp.hpp</text>
</a>
</g>
</g>
<!-- Node35&#45;&gt;Node38 -->
<g id="edge3" class="edge">
<title>Node35&#45;&gt;Node38</title>
<path fill="none" stroke="#191970" d="M411.4504,-188.7929C422.3596,-179.4422 436.0893,-167.6739 446.6542,-158.6183"/>
<polygon fill="#191970" stroke="#191970" points="409.0718,-186.2219 403.757,-195.3873 413.6274,-191.5367 409.0718,-186.2219"/>
</g>
<!-- Node51 -->
<g id="node17" class="node">
<title>Node51</title>
<g id="a_node17"><a xlink:href="../../dc/d31/laplacepp_8cpp.html" target="_top" xlink:title="src/laplacepp.cpp">
<polygon fill="#ffffff" stroke="#000000" points="529.2144,-135.5 529.2144,-153.5 623.0366,-153.5 623.0366,-135.5 529.2144,-135.5"/>
<text text-anchor="middle" x="576.1255" y="-141.5" font-family="Helvetica,sans-Serif" font-size="10.00" fill="#000000">src/laplacepp.cpp</text>
</a>
</g>
</g>
<!-- Node35&#45;&gt;Node51 -->
<g id="edge16" class="edge">
<title>Node35&#45;&gt;Node51</title>
<path fill="none" stroke="#191970" d="M430.7929,-192.15C465.8697,-180.6494 517.3261,-163.7785 548.6698,-153.5019"/>
<polygon fill="#191970" stroke="#191970" points="429.3311,-188.9459 420.9192,-195.3873 431.512,-195.5975 429.3311,-188.9459"/>
</g>
<!-- Node39 -->
<g id="node5" class="node">
<title>Node39</title>
<g id="a_node5"><a xlink:href="../../d6/db8/_arteries___model_c__deterministic__dirichlet_8hpp.html" target="_top" xlink:title="src/Arteries_ModelC\l_deterministic_dirichlet.hpp">
<polygon fill="#ffffff" stroke="#000000" points="39.5396,-65.5 39.5396,-93.5 176.7114,-93.5 176.7114,-65.5 39.5396,-65.5"/>
<text text-anchor="start" x="47.5396" y="-81.5" font-family="Helvetica,sans-Serif" font-size="10.00" fill="#000000">src/Arteries_ModelC</text>
<text text-anchor="middle" x="108.1255" y="-71.5" font-family="Helvetica,sans-Serif" font-size="10.00" fill="#000000">_deterministic_dirichlet.hpp</text>
</a>
</g>
</g>
<!-- Node38&#45;&gt;Node39 -->
<g id="edge4" class="edge">
<title>Node38&#45;&gt;Node39</title>
<path fill="none" stroke="#191970" d="M405.3066,-129.9283C321.107,-112.3503 235.0619,-98.3839 176.7762,-89.5125"/>
<polygon fill="#191970" stroke="#191970" points="404.7907,-133.3964 415.2975,-132.0331 406.2338,-126.5467 404.7907,-133.3964"/>
</g>
<!-- Node41 -->
<g id="node7" class="node">
<title>Node41</title>
<g id="a_node7"><a xlink:href="../../dd/da4/_arteries___model_c__deterministic__neumann_8hpp.html" target="_top" xlink:title="src/Arteries_ModelC\l_deterministic_neumann.hpp">
<polygon fill="#ffffff" stroke="#000000" points="247.9189,-65.5 247.9189,-93.5 392.332,-93.5 392.332,-65.5 247.9189,-65.5"/>
<text text-anchor="start" x="255.9189" y="-81.5" font-family="Helvetica,sans-Serif" font-size="10.00" fill="#000000">src/Arteries_ModelC</text>
<text text-anchor="middle" x="320.1255" y="-71.5" font-family="Helvetica,sans-Serif" font-size="10.00" fill="#000000">_deterministic_neumann.hpp</text>
</a>
</g>
</g>
<!-- Node38&#45;&gt;Node41 -->
<g id="edge6" class="edge">
<title>Node38&#45;&gt;Node41</title>
<path fill="none" stroke="#191970" d="M422.7126,-126.1305C399.991,-115.8025 372.0681,-103.1103 351.0938,-93.5765"/>
<polygon fill="#191970" stroke="#191970" points="421.5446,-129.4442 432.0966,-130.396 424.4413,-123.0716 421.5446,-129.4442"/>
</g>
<!-- Node44 -->
<g id="node10" class="node">
<title>Node44</title>
<g id="a_node10"><a xlink:href="../../de/d6d/_arteries___model_c__gmrf__dirichlet_8hpp.html" target="_top" xlink:title="src/Arteries_ModelC\l_gmrf_dirichlet.hpp">
<polygon fill="#ffffff" stroke="#000000" points="409.835,-65.5 409.835,-93.5 516.416,-93.5 516.416,-65.5 409.835,-65.5"/>
<text text-anchor="start" x="417.835" y="-81.5" font-family="Helvetica,sans-Serif" font-size="10.00" fill="#000000">src/Arteries_ModelC</text>
<text text-anchor="middle" x="463.1255" y="-71.5" font-family="Helvetica,sans-Serif" font-size="10.00" fill="#000000">_gmrf_dirichlet.hpp</text>
</a>
</g>
</g>
<!-- Node38&#45;&gt;Node44 -->
<g id="edge9" class="edge">
<title>Node38&#45;&gt;Node44</title>
<path fill="none" stroke="#191970" d="M463.1255,-120.1081C463.1255,-111.1539 463.1255,-101.3227 463.1255,-93.5765"/>
<polygon fill="#191970" stroke="#191970" points="459.6256,-120.3959 463.1255,-130.396 466.6256,-120.396 459.6256,-120.3959"/>
</g>
<!-- Node46 -->
<g id="node12" class="node">
<title>Node46</title>
<g id="a_node12"><a xlink:href="../../dd/d1f/_arteries___model_c__gmrf__neumann_8hpp.html" target="_top" xlink:title="src/Arteries_ModelC\l_gmrf_neumann.hpp">
<polygon fill="#ffffff" stroke="#000000" points="539.9829,-65.5 539.9829,-93.5 648.2681,-93.5 648.2681,-65.5 539.9829,-65.5"/>
<text text-anchor="start" x="547.9829" y="-81.5" font-family="Helvetica,sans-Serif" font-size="10.00" fill="#000000">src/Arteries_ModelC</text>
<text text-anchor="middle" x="594.1255" y="-71.5" font-family="Helvetica,sans-Serif" font-size="10.00" fill="#000000">_gmrf_neumann.hpp</text>
</a>
</g>
</g>
<!-- Node38&#45;&gt;Node46 -->
<g id="edge11" class="edge">
<title>Node38&#45;&gt;Node46</title>
<path fill="none" stroke="#191970" d="M500.7057,-125.8533C521.4183,-115.5761 546.7133,-103.0252 565.7559,-93.5765"/>
<polygon fill="#191970" stroke="#191970" points="498.9528,-122.8159 491.5505,-130.396 502.0641,-129.0864 498.9528,-122.8159"/>
</g>
<!-- Node50 -->
<g id="node16" class="node">
<title>Node50</title>
<g id="a_node16"><a xlink:href="../../d0/d66/hyperelasticity__setup__pp_8cpp.html" target="_top" xlink:title="src/hyperelasticity\l_setup_pp.cpp">
<polygon fill="#ffffff" stroke="#000000" points="666.3916,-65.5 666.3916,-93.5 761.8594,-93.5 761.8594,-65.5 666.3916,-65.5"/>
<text text-anchor="start" x="674.3916" y="-81.5" font-family="Helvetica,sans-Serif" font-size="10.00" fill="#000000">src/hyperelasticity</text>
<text text-anchor="middle" x="714.1255" y="-71.5" font-family="Helvetica,sans-Serif" font-size="10.00" fill="#000000">_setup_pp.cpp</text>
</a>
</g>
</g>
<!-- Node38&#45;&gt;Node50 -->
<g id="edge15" class="edge">
<title>Node38&#45;&gt;Node50</title>
<path fill="none" stroke="#191970" d="M520.6225,-129.6103C564.6268,-118.2148 624.6105,-102.6812 666.0747,-91.9434"/>
<polygon fill="#191970" stroke="#191970" points="519.7307,-126.2257 510.9275,-132.121 521.4856,-133.0022 519.7307,-126.2257"/>
</g>
<!-- Node40 -->
<g id="node6" class="node">
<title>Node40</title>
<g id="a_node6"><a xlink:href="../../de/da1/arteries_2deterministic__dirichlet_2main_8cpp.html" target="_top" xlink:title="arteries/deterministic\l_dirichlet/main.cpp">
<polygon fill="#ffffff" stroke="#000000" points="0,-.5 0,-28.5 108.251,-28.5 108.251,-.5 0,-.5"/>
<text text-anchor="start" x="8" y="-16.5" font-family="Helvetica,sans-Serif" font-size="10.00" fill="#000000">arteries/deterministic</text>
<text text-anchor="middle" x="54.1255" y="-6.5" font-family="Helvetica,sans-Serif" font-size="10.00" fill="#000000">_dirichlet/main.cpp</text>
</a>
</g>
</g>
<!-- Node39&#45;&gt;Node40 -->
<g id="edge5" class="edge">
<title>Node39&#45;&gt;Node40</title>
<path fill="none" stroke="#191970" d="M89.8047,-57.4472C81.872,-47.8986 72.8209,-37.0037 65.8198,-28.5765"/>
<polygon fill="#191970" stroke="#191970" points="87.3259,-59.9406 96.4083,-65.396 92.7102,-55.4675 87.3259,-59.9406"/>
</g>
<!-- Node42 -->
<g id="node8" class="node">
<title>Node42</title>
<g id="a_node8"><a xlink:href="../../d9/d81/arteries_2deterministic__neumann_2main_8cpp.html" target="_top" xlink:title="arteries/deterministic\l_neumann/main.cpp">
<polygon fill="#ffffff" stroke="#000000" points="126,-.5 126,-28.5 234.251,-28.5 234.251,-.5 126,-.5"/>
<text text-anchor="start" x="134" y="-16.5" font-family="Helvetica,sans-Serif" font-size="10.00" fill="#000000">arteries/deterministic</text>
<text text-anchor="middle" x="180.1255" y="-6.5" font-family="Helvetica,sans-Serif" font-size="10.00" fill="#000000">_neumann/main.cpp</text>
</a>
</g>
</g>
<!-- Node41&#45;&gt;Node42 -->
<g id="edge7" class="edge">
<title>Node41&#45;&gt;Node42</title>
<path fill="none" stroke="#191970" d="M280.5604,-61.1305C258.3155,-50.8025 230.9784,-38.1103 210.4441,-28.5765"/>
<polygon fill="#191970" stroke="#191970" points="279.2036,-64.3593 289.7476,-65.396 282.1514,-58.0103 279.2036,-64.3593"/>
</g>
<!-- Node43 -->
<g id="node9" class="node">
<title>Node43</title>
<g id="a_node9"><a xlink:href="../../db/db7/arteries_2vonmises_2main_8cpp.html" target="_top" xlink:title="arteries/vonmises/main.cpp">
<polygon fill="#ffffff" stroke="#000000" points="252.2686,-5.5 252.2686,-23.5 389.9824,-23.5 389.9824,-5.5 252.2686,-5.5"/>
<text text-anchor="middle" x="321.1255" y="-11.5" font-family="Helvetica,sans-Serif" font-size="10.00" fill="#000000">arteries/vonmises/main.cpp</text>
</a>
</g>
</g>
<!-- Node41&#45;&gt;Node43 -->
<g id="edge8" class="edge">
<title>Node41&#45;&gt;Node43</title>
<path fill="none" stroke="#191970" d="M320.4966,-55.3747C320.6673,-44.2832 320.8594,-31.7952 320.9859,-23.5743"/>
<polygon fill="#191970" stroke="#191970" points="316.9968,-55.3433 320.3425,-65.396 323.996,-55.451 316.9968,-55.3433"/>
</g>
<!-- Node45 -->
<g id="node11" class="node">
<title>Node45</title>
<g id="a_node11"><a xlink:href="../../dc/dba/arteries_2strip__dirichlet_2main_8cpp.html" target="_top" xlink:title="arteries/strip_dirichlet\l/main.cpp">
<polygon fill="#ffffff" stroke="#000000" points="407.6084,-.5 407.6084,-28.5 518.6426,-28.5 518.6426,-.5 407.6084,-.5"/>
<text text-anchor="start" x="415.6084" y="-16.5" font-family="Helvetica,sans-Serif" font-size="10.00" fill="#000000">arteries/strip_dirichlet</text>
<text text-anchor="middle" x="463.1255" y="-6.5" font-family="Helvetica,sans-Serif" font-size="10.00" fill="#000000">/main.cpp</text>
</a>
</g>
</g>
<!-- Node44&#45;&gt;Node45 -->
<g id="edge10" class="edge">
<title>Node44&#45;&gt;Node45</title>
<path fill="none" stroke="#191970" d="M463.1255,-55.1081C463.1255,-46.1539 463.1255,-36.3227 463.1255,-28.5765"/>
<polygon fill="#191970" stroke="#191970" points="459.6256,-55.3959 463.1255,-65.396 466.6256,-55.396 459.6256,-55.3959"/>
</g>
<!-- Node47 -->
<g id="node13" class="node">
<title>Node47</title>
<g id="a_node13"><a xlink:href="../../d5/da5/arteries_2boost__gmrf_2gmrf__gauss_2main_8cpp.html" target="_top" xlink:title="arteries/boost_gmrf\l/gmrf_gauss/main.cpp">
<polygon fill="#ffffff" stroke="#000000" points="536.936,-.5 536.936,-28.5 651.3149,-28.5 651.3149,-.5 536.936,-.5"/>
<text text-anchor="start" x="544.936" y="-16.5" font-family="Helvetica,sans-Serif" font-size="10.00" fill="#000000">arteries/boost_gmrf</text>
<text text-anchor="middle" x="594.1255" y="-6.5" font-family="Helvetica,sans-Serif" font-size="10.00" fill="#000000">/gmrf_gauss/main.cpp</text>
</a>
</g>
</g>
<!-- Node46&#45;&gt;Node47 -->
<g id="edge12" class="edge">
<title>Node46&#45;&gt;Node47</title>
<path fill="none" stroke="#191970" d="M594.1255,-55.1081C594.1255,-46.1539 594.1255,-36.3227 594.1255,-28.5765"/>
<polygon fill="#191970" stroke="#191970" points="590.6256,-55.3959 594.1255,-65.396 597.6256,-55.396 590.6256,-55.3959"/>
</g>
<!-- Node48 -->
<g id="node14" class="node">
<title>Node48</title>
<g id="a_node14"><a xlink:href="../../d2/dbe/arteries_2boost__gmrf_2gmrf__nodes_2main_8cpp.html" target="_top" xlink:title="arteries/boost_gmrf\l/gmrf_nodes/main.cpp">
<polygon fill="#ffffff" stroke="#000000" points="669.6553,-.5 669.6553,-28.5 784.5957,-28.5 784.5957,-.5 669.6553,-.5"/>
<text text-anchor="start" x="677.6553" y="-16.5" font-family="Helvetica,sans-Serif" font-size="10.00" fill="#000000">arteries/boost_gmrf</text>
<text text-anchor="middle" x="727.1255" y="-6.5" font-family="Helvetica,sans-Serif" font-size="10.00" fill="#000000">/gmrf_nodes/main.cpp</text>
</a>
</g>
</g>
<!-- Node46&#45;&gt;Node48 -->
<g id="edge13" class="edge">
<title>Node46&#45;&gt;Node48</title>
<path fill="none" stroke="#191970" d="M631.9956,-60.9921C653.0768,-50.6892 678.9023,-38.0677 698.3228,-28.5765"/>
<polygon fill="#191970" stroke="#191970" points="630.4321,-57.8605 622.9845,-65.396 633.5058,-64.1496 630.4321,-57.8605"/>
</g>
<!-- Node49 -->
<g id="node15" class="node">
<title>Node49</title>
<g id="a_node15"><a xlink:href="../../da/df3/arteries_2gmrf__neumann_2main_8cpp.html" target="_top" xlink:title="arteries/gmrf_neumann\l/main.cpp">
<polygon fill="#ffffff" stroke="#000000" points="802.4336,-.5 802.4336,-28.5 921.8174,-28.5 921.8174,-.5 802.4336,-.5"/>
<text text-anchor="start" x="810.4336" y="-16.5" font-family="Helvetica,sans-Serif" font-size="10.00" fill="#000000">arteries/gmrf_neumann</text>
<text text-anchor="middle" x="862.1255" y="-6.5" font-family="Helvetica,sans-Serif" font-size="10.00" fill="#000000">/main.cpp</text>
</a>
</g>
</g>
<!-- Node46&#45;&gt;Node49 -->
<g id="edge14" class="edge">
<title>Node46&#45;&gt;Node49</title>
<path fill="none" stroke="#191970" d="M658.1794,-63.9645C702.5953,-53.192 761.2577,-38.9642 804.2622,-28.534"/>
<polygon fill="#191970" stroke="#191970" points="657.2525,-60.5878 648.3593,-66.3463 658.9025,-67.3906 657.2525,-60.5878"/>
</g>
</g>
</svg>
