<?xml version="1.0" encoding="UTF-8" standalone="no"?>
<!DOCTYPE svg PUBLIC "-//W3C//DTD SVG 1.1//EN"
 "http://www.w3.org/Graphics/SVG/1.1/DTD/svg11.dtd">
<!-- Generated by graphviz version 2.40.1 (20161225.0304)
 -->
<!-- Title: src/laplacepp.hpp Pages: 1 -->
<!--zoomable 297 -->
<svg id="main" version="1.1" xmlns="http://www.w3.org/2000/svg" xmlns:xlink="http://www.w3.org/1999/xlink" xml:space="preserve" onload="init(evt)">
<style type="text/css"><![CDATA[
.edge:hover path { stroke: red; }
.edge:hover polygon { stroke: red; fill: red; }
]]></style>
<script type="text/javascript"><![CDATA[
var edges = document.getElementsByTagName('g');
if (edges && edges.length) {
  for (var i=0;i<edges.length;i++) {
    if (edges[i].id.substr(0,4)=='edge') {
      edges[i].setAttribute('class','edge');
    }
  }
}
]]></script>
        <defs>
                <circle id="rim" cx="0" cy="0" r="7"/>
                <circle id="rim2" cx="0" cy="0" r="3.5"/>
                <g id="zoomPlus">
                        <use xlink:href="#rim" fill="#404040">
                                <set attributeName="fill" to="#808080" begin="zoomplus.mouseover" end="zoomplus.mouseout"/>
                        </use>
                        <path d="M-4,0h8M0,-4v8" fill="none" stroke="white" stroke-width="1.5" pointer-events="none"/>
                </g>
                <g id="zoomMin">
                        <use xlink:href="#rim" fill="#404040">
                                <set attributeName="fill" to="#808080" begin="zoomminus.mouseover" end="zoomminus.mouseout"/>
                        </use>
                        <path d="M-4,0h8" fill="none" stroke="white" stroke-width="1.5" pointer-events="none"/>
                </g>
                <g id="dirArrow">
                        <path fill="none" stroke="white" stroke-width="1.5" d="M0,-3.0v7 M-2.5,-0.5L0,-3.0L2.5,-0.5"/>
                </g>
               <g id="resetDef">
                       <use xlink:href="#rim2" fill="#404040">
                               <set attributeName="fill" to="#808080" begin="reset.mouseover" end="reset.mouseout"/>
                       </use>
               </g>
        </defs>

<script type="text/javascript">
var viewWidth = 2090;
var viewHeight = 297;
var sectionId = 'dynsection-1';
</script>
<script xlink:href="../../svgpan.js"/>
<svg id="graph" class="graph">
<g id="viewport">
<title>src/laplacepp.hpp</title>
<polygon fill="#ffffff" stroke="transparent" points="-4,4 -4,-293 2086.3838,-293 2086.3838,4 -4,4"/>
<!-- Node35 -->
<g id="node1" class="node">
<title>Node35</title>
<polygon fill="#bfbfbf" stroke="#000000" points="708.7217,-270.5 708.7217,-288.5 803.1055,-288.5 803.1055,-270.5 708.7217,-270.5"/>
<text text-anchor="middle" x="755.9136" y="-276.5" font-family="Helvetica,sans-Serif" font-size="10.00" fill="#000000">src/laplacepp.hpp</text>
</g>
<!-- Node36 -->
<g id="node2" class="node">
<title>Node36</title>
<g id="a_node2"><a xlink:href="../../d4/d0f/examples_2laplace__aztec_2main_8cpp.html" target="_top" xlink:title="examples/laplace_aztec\l/main.cpp">
<polygon fill="#ffffff" stroke="#000000" points="472.5493,-205.5 472.5493,-233.5 595.2778,-233.5 595.2778,-205.5 472.5493,-205.5"/>
<text text-anchor="start" x="480.5493" y="-221.5" font-family="Helvetica,sans-Serif" font-size="10.00" fill="#000000">examples/laplace_aztec</text>
<text text-anchor="middle" x="533.9136" y="-211.5" font-family="Helvetica,sans-Serif" font-size="10.00" fill="#000000">/main.cpp</text>
</a>
</g>
</g>
<!-- Node35&#45;&gt;Node36 -->
<g id="edge1" class="edge">
<title>Node35&#45;&gt;Node36</title>
<path fill="none" stroke="#191970" d="M712.3862,-267.7358C676.058,-257.9174 624.1928,-243.8998 585.7285,-233.504"/>
<polygon fill="#191970" stroke="#191970" points="711.6297,-271.1569 722.1966,-270.3873 713.4561,-264.3994 711.6297,-271.1569"/>
</g>
<!-- Node37 -->
<g id="node3" class="node">
<title>Node37</title>
<g id="a_node3"><a xlink:href="../../d8/d16/examples_2laplace__stratimikos_2main_8cpp.html" target="_top" xlink:title="examples/laplace_stratimikos\l/main.cpp">
<polygon fill="#ffffff" stroke="#000000" points="613.6084,-205.5 613.6084,-233.5 760.2188,-233.5 760.2188,-205.5 613.6084,-205.5"/>
<text text-anchor="start" x="621.6084" y="-221.5" font-family="Helvetica,sans-Serif" font-size="10.00" fill="#000000">examples/laplace_stratimikos</text>
<text text-anchor="middle" x="686.9136" y="-211.5" font-family="Helvetica,sans-Serif" font-size="10.00" fill="#000000">/main.cpp</text>
</a>
</g>
</g>
<!-- Node35&#45;&gt;Node37 -->
<g id="edge2" class="edge">
<title>Node35&#45;&gt;Node37</title>
<path fill="none" stroke="#191970" d="M737.8505,-263.7929C727.0971,-254.4422 713.5635,-242.6739 703.1496,-233.6183"/>
<polygon fill="#191970" stroke="#191970" points="735.5912,-266.4666 745.434,-270.3873 740.1845,-261.1843 735.5912,-266.4666"/>
</g>
<!-- Node38 -->
<g id="node4" class="node">
<title>Node38</title>
<g id="a_node4"><a xlink:href="../../de/d9d/hyperelasticity__setup__pp_8hpp.html" target="_top" xlink:title="src/hyperelasticity\l_setup_pp.hpp">
<polygon fill="#ffffff" stroke="#000000" points="778.1797,-205.5 778.1797,-233.5 873.6475,-233.5 873.6475,-205.5 778.1797,-205.5"/>
<text text-anchor="start" x="786.1797" y="-221.5" font-family="Helvetica,sans-Serif" font-size="10.00" fill="#000000">src/hyperelasticity</text>
<text text-anchor="middle" x="825.9136" y="-211.5" font-family="Helvetica,sans-Serif" font-size="10.00" fill="#000000">_setup_pp.hpp</text>
</a>
</g>
</g>
<!-- Node35&#45;&gt;Node38 -->
<g id="edge3" class="edge">
<title>Node35&#45;&gt;Node38</title>
<path fill="none" stroke="#191970" d="M774.2385,-263.7929C785.1477,-254.4422 798.8774,-242.6739 809.4422,-233.6183"/>
<polygon fill="#191970" stroke="#191970" points="771.8599,-261.2219 766.5451,-270.3873 776.4154,-266.5367 771.8599,-261.2219"/>
</g>
<!-- Node65 -->
<g id="node31" class="node">
<title>Node65</title>
<g id="a_node31"><a xlink:href="../../dc/d31/laplacepp_8cpp.html" target="_top" xlink:title="src/laplacepp.cpp">
<polygon fill="#ffffff" stroke="#000000" points="892.0024,-210.5 892.0024,-228.5 985.8247,-228.5 985.8247,-210.5 892.0024,-210.5"/>
<text text-anchor="middle" x="938.9136" y="-216.5" font-family="Helvetica,sans-Serif" font-size="10.00" fill="#000000">src/laplacepp.cpp</text>
</a>
</g>
</g>
<!-- Node35&#45;&gt;Node65 -->
<g id="edge41" class="edge">
<title>Node35&#45;&gt;Node65</title>
<path fill="none" stroke="#191970" d="M793.581,-267.15C828.6578,-255.6494 880.1141,-238.7785 911.4579,-228.5019"/>
<polygon fill="#191970" stroke="#191970" points="792.1192,-263.9459 783.7073,-270.3873 794.3001,-270.5975 792.1192,-263.9459"/>
</g>
<!-- Node39 -->
<g id="node5" class="node">
<title>Node39</title>
<g id="a_node5"><a xlink:href="../../de/d4a/rubberblock_8hpp.html" target="_top" xlink:title="examples/rubberblock\l/rubberblock.hpp">
<polygon fill="#ffffff" stroke="#000000" points="27,-135.5 27,-163.5 140.8271,-163.5 140.8271,-135.5 27,-135.5"/>
<text text-anchor="start" x="35" y="-151.5" font-family="Helvetica,sans-Serif" font-size="10.00" fill="#000000">examples/rubberblock</text>
<text text-anchor="middle" x="83.9136" y="-141.5" font-family="Helvetica,sans-Serif" font-size="10.00" fill="#000000">/rubberblock.hpp</text>
</a>
</g>
</g>
<!-- Node38&#45;&gt;Node39 -->
<g id="edge4" class="edge">
<title>Node38&#45;&gt;Node39</title>
<path fill="none" stroke="#191970" d="M767.9961,-205.0646C542.8024,-169.4446 481.8949,-189.2848 258.9136,-169 219.4883,-165.4134 175.1689,-160.4656 140.9955,-156.4514"/>
<polygon fill="#191970" stroke="#191970" points="767.7218,-208.5652 778.1494,-206.6903 768.8286,-201.6532 767.7218,-208.5652"/>
</g>
<!-- Node41 -->
<g id="node7" class="node">
<title>Node41</title>
<g id="a_node7"><a xlink:href="../../dc/de4/manufactured_solution_8hpp.html" target="_top" xlink:title="nrl/manufactured_solution\l/manufacturedSolution.hpp">
<polygon fill="#ffffff" stroke="#000000" points="132.1504,-65.5 132.1504,-93.5 267.6768,-93.5 267.6768,-65.5 132.1504,-65.5"/>
<text text-anchor="start" x="140.1504" y="-81.5" font-family="Helvetica,sans-Serif" font-size="10.00" fill="#000000">nrl/manufactured_solution</text>
<text text-anchor="middle" x="199.9136" y="-71.5" font-family="Helvetica,sans-Serif" font-size="10.00" fill="#000000">/manufacturedSolution.hpp</text>
</a>
</g>
</g>
<!-- Node38&#45;&gt;Node41 -->
<g id="edge6" class="edge">
<title>Node38&#45;&gt;Node41</title>
<path fill="none" stroke="#191970" d="M768.2038,-205.1134C579.9565,-175.3781 520.7628,-227.6651 343.9136,-169 293.3454,-152.2253 242.2992,-114.4307 216.7296,-93.7251"/>
<polygon fill="#191970" stroke="#191970" points="767.7072,-208.5787 778.1413,-206.7399 768.8379,-201.6706 767.7072,-208.5787"/>
</g>
<!-- Node43 -->
<g id="node9" class="node">
<title>Node43</title>
<g id="a_node9"><a xlink:href="../../d6/db8/_arteries___model_c__deterministic__dirichlet_8hpp.html" target="_top" xlink:title="src/Arteries_ModelC\l_deterministic_dirichlet.hpp">
<polygon fill="#ffffff" stroke="#000000" points="353.3276,-135.5 353.3276,-163.5 490.4995,-163.5 490.4995,-135.5 353.3276,-135.5"/>
<text text-anchor="start" x="361.3276" y="-151.5" font-family="Helvetica,sans-Serif" font-size="10.00" fill="#000000">src/Arteries_ModelC</text>
<text text-anchor="middle" x="421.9136" y="-141.5" font-family="Helvetica,sans-Serif" font-size="10.00" fill="#000000">_deterministic_dirichlet.hpp</text>
</a>
</g>
</g>
<!-- Node38&#45;&gt;Node43 -->
<g id="edge8" class="edge">
<title>Node38&#45;&gt;Node43</title>
<path fill="none" stroke="#191970" d="M768.1073,-204.9678C660.1446,-183.7033 630.4332,-186.5343 525.9136,-169 514.4998,-167.0852 502.4054,-164.9319 490.6564,-162.7734"/>
<polygon fill="#191970" stroke="#191970" points="767.6092,-208.4373 778.1006,-206.9602 768.978,-201.5724 767.6092,-208.4373"/>
</g>
<!-- Node45 -->
<g id="node11" class="node">
<title>Node45</title>
<g id="a_node11"><a xlink:href="../../dd/da4/_arteries___model_c__deterministic__neumann_8hpp.html" target="_top" xlink:title="src/Arteries_ModelC\l_deterministic_neumann.hpp">
<polygon fill="#ffffff" stroke="#000000" points="534.707,-135.5 534.707,-163.5 679.1201,-163.5 679.1201,-135.5 534.707,-135.5"/>
<text text-anchor="start" x="542.707" y="-151.5" font-family="Helvetica,sans-Serif" font-size="10.00" fill="#000000">src/Arteries_ModelC</text>
<text text-anchor="middle" x="606.9136" y="-141.5" font-family="Helvetica,sans-Serif" font-size="10.00" fill="#000000">_deterministic_neumann.hpp</text>
</a>
</g>
</g>
<!-- Node38&#45;&gt;Node45 -->
<g id="edge10" class="edge">
<title>Node38&#45;&gt;Node45</title>
<path fill="none" stroke="#191970" d="M772.1653,-202.3202C734.8865,-190.4046 685.8498,-174.7308 650.8977,-163.5588"/>
<polygon fill="#191970" stroke="#191970" points="771.2682,-205.7078 781.8591,-205.4187 773.3995,-199.0402 771.2682,-205.7078"/>
</g>
<!-- Node48 -->
<g id="node14" class="node">
<title>Node48</title>
<g id="a_node14"><a xlink:href="../../de/d6d/_arteries___model_c__gmrf__dirichlet_8hpp.html" target="_top" xlink:title="src/Arteries_ModelC\l_gmrf_dirichlet.hpp">
<polygon fill="#ffffff" stroke="#000000" points="700.623,-135.5 700.623,-163.5 807.2041,-163.5 807.2041,-135.5 700.623,-135.5"/>
<text text-anchor="start" x="708.623" y="-151.5" font-family="Helvetica,sans-Serif" font-size="10.00" fill="#000000">src/Arteries_ModelC</text>
<text text-anchor="middle" x="753.9136" y="-141.5" font-family="Helvetica,sans-Serif" font-size="10.00" fill="#000000">_gmrf_dirichlet.hpp</text>
</a>
</g>
</g>
<!-- Node38&#45;&gt;Node48 -->
<g id="edge13" class="edge">
<title>Node38&#45;&gt;Node48</title>
<path fill="none" stroke="#191970" d="M804.1481,-198.3391C792.5923,-187.1043 778.7041,-173.6019 768.4622,-163.6445"/>
<polygon fill="#191970" stroke="#191970" points="801.7335,-200.8731 811.3433,-205.3345 806.6131,-195.8541 801.7335,-200.8731"/>
</g>
<!-- Node50 -->
<g id="node16" class="node">
<title>Node50</title>
<g id="a_node16"><a xlink:href="../../dd/d1f/_arteries___model_c__gmrf__neumann_8hpp.html" target="_top" xlink:title="src/Arteries_ModelC\l_gmrf_neumann.hpp">
<polygon fill="#ffffff" stroke="#000000" points="1702.771,-135.5 1702.771,-163.5 1811.0562,-163.5 1811.0562,-135.5 1702.771,-135.5"/>
<text text-anchor="start" x="1710.771" y="-151.5" font-family="Helvetica,sans-Serif" font-size="10.00" fill="#000000">src/Arteries_ModelC</text>
<text text-anchor="middle" x="1756.9136" y="-141.5" font-family="Helvetica,sans-Serif" font-size="10.00" fill="#000000">_gmrf_neumann.hpp</text>
</a>
</g>
</g>
<!-- Node38&#45;&gt;Node50 -->
<g id="edge15" class="edge">
<title>Node38&#45;&gt;Node50</title>
<path fill="none" stroke="#191970" d="M883.6614,-205.1221C1202.8154,-157.9271 1288.744,-197.3316 1605.9136,-169 1638.0339,-166.1308 1673.8334,-161.5676 1702.5105,-157.5767"/>
<polygon fill="#191970" stroke="#191970" points="883.0386,-201.6762 873.6663,-206.617 884.074,-208.5992 883.0386,-201.6762"/>
</g>
<!-- Node54 -->
<g id="node20" class="node">
<title>Node54</title>
<g id="a_node20"><a xlink:href="../../df/dc0/_compressible___mooney___transverse___isotropic_8hpp.html" target="_top" xlink:title="src/Compressible_Mooney\l_Transverse_Isotropic.hpp">
<polygon fill="#ffffff" stroke="#000000" points="1224.7241,-135.5 1224.7241,-163.5 1359.103,-163.5 1359.103,-135.5 1224.7241,-135.5"/>
<text text-anchor="start" x="1232.7241" y="-151.5" font-family="Helvetica,sans-Serif" font-size="10.00" fill="#000000">src/Compressible_Mooney</text>
<text text-anchor="middle" x="1291.9136" y="-141.5" font-family="Helvetica,sans-Serif" font-size="10.00" fill="#000000">_Transverse_Isotropic.hpp</text>
</a>
</g>
</g>
<!-- Node38&#45;&gt;Node54 -->
<g id="edge19" class="edge">
<title>Node38&#45;&gt;Node54</title>
<path fill="none" stroke="#191970" d="M883.5363,-205.0194C1009.4336,-180.9405 1145.268,-164.737 1224.5797,-156.2508"/>
<polygon fill="#191970" stroke="#191970" points="882.872,-201.5829 873.7181,-206.9173 884.2006,-208.4557 882.872,-201.5829"/>
</g>
<!-- Node58 -->
<g id="node24" class="node">
<title>Node58</title>
<g id="a_node24"><a xlink:href="../../d0/d77/_compressible___mooney___transverse___isotropic___random___field_8hpp.html" target="_top" xlink:title="src/Compressible_Mooney\l_Transverse_Isotropic\l_Random_Field.hpp">
<polygon fill="#ffffff" stroke="#000000" points="1462.7241,-130.5 1462.7241,-168.5 1597.103,-168.5 1597.103,-130.5 1462.7241,-130.5"/>
<text text-anchor="start" x="1470.7241" y="-156.5" font-family="Helvetica,sans-Serif" font-size="10.00" fill="#000000">src/Compressible_Mooney</text>
<text text-anchor="start" x="1470.7241" y="-146.5" font-family="Helvetica,sans-Serif" font-size="10.00" fill="#000000">_Transverse_Isotropic</text>
<text text-anchor="middle" x="1529.9136" y="-136.5" font-family="Helvetica,sans-Serif" font-size="10.00" fill="#000000">_Random_Field.hpp</text>
</a>
</g>
</g>
<!-- Node38&#45;&gt;Node58 -->
<g id="edge23" class="edge">
<title>Node38&#45;&gt;Node58</title>
<path fill="none" stroke="#191970" d="M883.6736,-205.0848C1097.9939,-170.81 1156.0363,-189.6045 1367.9136,-169 1399.0691,-165.9702 1433.5114,-161.9229 1462.5984,-158.3009"/>
<polygon fill="#191970" stroke="#191970" points="882.9917,-201.6495 873.6798,-206.7031 884.1107,-208.5595 882.9917,-201.6495"/>
</g>
<!-- Node61 -->
<g id="node27" class="node">
<title>Node61</title>
<g id="a_node27"><a xlink:href="../../d0/d66/hyperelasticity__setup__pp_8cpp.html" target="_top" xlink:title="src/hyperelasticity\l_setup_pp.cpp">
<polygon fill="#ffffff" stroke="#000000" points="1829.1797,-135.5 1829.1797,-163.5 1924.6475,-163.5 1924.6475,-135.5 1829.1797,-135.5"/>
<text text-anchor="start" x="1837.1797" y="-151.5" font-family="Helvetica,sans-Serif" font-size="10.00" fill="#000000">src/hyperelasticity</text>
<text text-anchor="middle" x="1876.9136" y="-141.5" font-family="Helvetica,sans-Serif" font-size="10.00" fill="#000000">_setup_pp.cpp</text>
</a>
</g>
</g>
<!-- Node38&#45;&gt;Node61 -->
<g id="edge26" class="edge">
<title>Node38&#45;&gt;Node61</title>
<path fill="none" stroke="#191970" d="M883.7935,-205.1269C1297.2361,-146.8965 1413.4987,-244.6413 1819.9136,-169 1826.8027,-167.7178 1833.9902,-165.7711 1840.8478,-163.5955"/>
<polygon fill="#191970" stroke="#191970" points="883.0638,-201.6955 873.6604,-206.5768 884.0553,-208.625 883.0638,-201.6955"/>
</g>
<!-- Node62 -->
<g id="node28" class="node">
<title>Node62</title>
<g id="a_node28"><a xlink:href="../../d7/d17/_newton___raphsonpp_8hpp.html" target="_top" xlink:title="src/Newton_Raphsonpp.hpp">
<polygon fill="#ffffff" stroke="#000000" points="826.8179,-140.5 826.8179,-158.5 969.0093,-158.5 969.0093,-140.5 826.8179,-140.5"/>
<text text-anchor="middle" x="897.9136" y="-146.5" font-family="Helvetica,sans-Serif" font-size="10.00" fill="#000000">src/Newton_Raphsonpp.hpp</text>
</a>
</g>
</g>
<!-- Node38&#45;&gt;Node62 -->
<g id="edge27" class="edge">
<title>Node38&#45;&gt;Node62</title>
<path fill="none" stroke="#191970" d="M848.0229,-198.0048C861.5564,-184.8472 878.1834,-168.6822 888.4129,-158.7368"/>
<polygon fill="#191970" stroke="#191970" points="845.214,-195.8542 840.4838,-205.3345 850.0936,-200.8731 845.214,-195.8542"/>
</g>
<!-- Node40 -->
<g id="node6" class="node">
<title>Node40</title>
<g id="a_node6"><a xlink:href="../../d4/d7f/examples_2rubberblock_2main_8cpp.html" target="_top" xlink:title="examples/rubberblock\l/main.cpp">
<polygon fill="#ffffff" stroke="#000000" points="0,-65.5 0,-93.5 113.8271,-93.5 113.8271,-65.5 0,-65.5"/>
<text text-anchor="start" x="8" y="-81.5" font-family="Helvetica,sans-Serif" font-size="10.00" fill="#000000">examples/rubberblock</text>
<text text-anchor="middle" x="56.9136" y="-71.5" font-family="Helvetica,sans-Serif" font-size="10.00" fill="#000000">/main.cpp</text>
</a>
</g>
</g>
<!-- Node39&#45;&gt;Node40 -->
<g id="edge5" class="edge">
<title>Node39&#45;&gt;Node40</title>
<path fill="none" stroke="#191970" d="M74.7468,-125.7342C70.6324,-115.0674 65.9174,-102.8433 62.3693,-93.6445"/>
<polygon fill="#191970" stroke="#191970" points="71.5854,-127.264 78.4497,-135.3345 78.1164,-124.7449 71.5854,-127.264"/>
</g>
<!-- Node42 -->
<g id="node8" class="node">
<title>Node42</title>
<g id="a_node8"><a xlink:href="../../d4/db6/nrl_2manufactured__solution_2main_8cpp.html" target="_top" xlink:title="nrl/manufactured_solution\l/main.cpp">
<polygon fill="#ffffff" stroke="#000000" points="134.3794,-.5 134.3794,-28.5 265.4478,-28.5 265.4478,-.5 134.3794,-.5"/>
<text text-anchor="start" x="142.3794" y="-16.5" font-family="Helvetica,sans-Serif" font-size="10.00" fill="#000000">nrl/manufactured_solution</text>
<text text-anchor="middle" x="199.9136" y="-6.5" font-family="Helvetica,sans-Serif" font-size="10.00" fill="#000000">/main.cpp</text>
</a>
</g>
</g>
<!-- Node41&#45;&gt;Node42 -->
<g id="edge7" class="edge">
<title>Node41&#45;&gt;Node42</title>
<path fill="none" stroke="#191970" d="M199.9136,-55.1081C199.9136,-46.1539 199.9136,-36.3227 199.9136,-28.5765"/>
<polygon fill="#191970" stroke="#191970" points="196.4137,-55.3959 199.9136,-65.396 203.4137,-55.396 196.4137,-55.3959"/>
</g>
<!-- Node44 -->
<g id="node10" class="node">
<title>Node44</title>
<g id="a_node10"><a xlink:href="../../de/da1/arteries_2deterministic__dirichlet_2main_8cpp.html" target="_top" xlink:title="arteries/deterministic\l_dirichlet/main.cpp">
<polygon fill="#ffffff" stroke="#000000" points="285.7881,-65.5 285.7881,-93.5 394.0391,-93.5 394.0391,-65.5 285.7881,-65.5"/>
<text text-anchor="start" x="293.7881" y="-81.5" font-family="Helvetica,sans-Serif" font-size="10.00" fill="#000000">arteries/deterministic</text>
<text text-anchor="middle" x="339.9136" y="-71.5" font-family="Helvetica,sans-Serif" font-size="10.00" fill="#000000">_dirichlet/main.cpp</text>
</a>
</g>
</g>
<!-- Node43&#45;&gt;Node44 -->
<g id="edge9" class="edge">
<title>Node43&#45;&gt;Node44</title>
<path fill="none" stroke="#191970" d="M397.5004,-128.6595C384.266,-117.3618 368.2583,-103.6968 356.4828,-93.6445"/>
<polygon fill="#191970" stroke="#191970" points="395.4416,-131.5038 405.3197,-135.3345 399.9864,-126.1798 395.4416,-131.5038"/>
</g>
<!-- Node46 -->
<g id="node12" class="node">
<title>Node46</title>
<g id="a_node12"><a xlink:href="../../d9/d81/arteries_2deterministic__neumann_2main_8cpp.html" target="_top" xlink:title="arteries/deterministic\l_neumann/main.cpp">
<polygon fill="#ffffff" stroke="#000000" points="411.7881,-65.5 411.7881,-93.5 520.0391,-93.5 520.0391,-65.5 411.7881,-65.5"/>
<text text-anchor="start" x="419.7881" y="-81.5" font-family="Helvetica,sans-Serif" font-size="10.00" fill="#000000">arteries/deterministic</text>
<text text-anchor="middle" x="465.9136" y="-71.5" font-family="Helvetica,sans-Serif" font-size="10.00" fill="#000000">_neumann/main.cpp</text>
</a>
</g>
</g>
<!-- Node45&#45;&gt;Node46 -->
<g id="edge11" class="edge">
<title>Node45&#45;&gt;Node46</title>
<path fill="none" stroke="#191970" d="M569.3774,-130.865C545.8453,-119.1824 515.9899,-104.3606 494.4046,-93.6445"/>
<polygon fill="#191970" stroke="#191970" points="567.8668,-134.0226 578.3801,-135.3345 570.9795,-127.7528 567.8668,-134.0226"/>
</g>
<!-- Node47 -->
<g id="node13" class="node">
<title>Node47</title>
<g id="a_node13"><a xlink:href="../../db/db7/arteries_2vonmises_2main_8cpp.html" target="_top" xlink:title="arteries/vonmises/main.cpp">
<polygon fill="#ffffff" stroke="#000000" points="538.0566,-70.5 538.0566,-88.5 675.7705,-88.5 675.7705,-70.5 538.0566,-70.5"/>
<text text-anchor="middle" x="606.9136" y="-76.5" font-family="Helvetica,sans-Serif" font-size="10.00" fill="#000000">arteries/vonmises/main.cpp</text>
</a>
</g>
</g>
<!-- Node45&#45;&gt;Node47 -->
<g id="edge12" class="edge">
<title>Node45&#45;&gt;Node47</title>
<path fill="none" stroke="#191970" d="M606.9136,-125.007C606.9136,-112.4648 606.9136,-97.9386 606.9136,-88.7368"/>
<polygon fill="#191970" stroke="#191970" points="603.4137,-125.3344 606.9136,-135.3345 610.4137,-125.3345 603.4137,-125.3344"/>
</g>
<!-- Node49 -->
<g id="node15" class="node">
<title>Node49</title>
<g id="a_node15"><a xlink:href="../../dc/dba/arteries_2strip__dirichlet_2main_8cpp.html" target="_top" xlink:title="arteries/strip_dirichlet\l/main.cpp">
<polygon fill="#ffffff" stroke="#000000" points="693.3965,-65.5 693.3965,-93.5 804.4307,-93.5 804.4307,-65.5 693.3965,-65.5"/>
<text text-anchor="start" x="701.3965" y="-81.5" font-family="Helvetica,sans-Serif" font-size="10.00" fill="#000000">arteries/strip_dirichlet</text>
<text text-anchor="middle" x="748.9136" y="-71.5" font-family="Helvetica,sans-Serif" font-size="10.00" fill="#000000">/main.cpp</text>
</a>
</g>
</g>
<!-- Node48&#45;&gt;Node49 -->
<g id="edge14" class="edge">
<title>Node48&#45;&gt;Node49</title>
<path fill="none" stroke="#191970" d="M752.1688,-125.0725C751.4182,-114.5646 750.5674,-102.6536 749.9239,-93.6445"/>
<polygon fill="#191970" stroke="#191970" points="748.6981,-125.6093 752.9017,-135.3345 755.6803,-125.1105 748.6981,-125.6093"/>
</g>
<!-- Node51 -->
<g id="node17" class="node">
<title>Node51</title>
<g id="a_node17"><a xlink:href="../../d5/da5/arteries_2boost__gmrf_2gmrf__gauss_2main_8cpp.html" target="_top" xlink:title="arteries/boost_gmrf\l/gmrf_gauss/main.cpp">
<polygon fill="#ffffff" stroke="#000000" points="1834.7241,-65.5 1834.7241,-93.5 1949.103,-93.5 1949.103,-65.5 1834.7241,-65.5"/>
<text text-anchor="start" x="1842.7241" y="-81.5" font-family="Helvetica,sans-Serif" font-size="10.00" fill="#000000">arteries/boost_gmrf</text>
<text text-anchor="middle" x="1891.9136" y="-71.5" font-family="Helvetica,sans-Serif" font-size="10.00" fill="#000000">/gmrf_gauss/main.cpp</text>
</a>
</g>
</g>
<!-- Node50&#45;&gt;Node51 -->
<g id="edge16" class="edge">
<title>Node50&#45;&gt;Node51</title>
<path fill="none" stroke="#191970" d="M1793.1519,-130.7097C1815.636,-119.0513 1844.0596,-104.3132 1864.6349,-93.6445"/>
<polygon fill="#191970" stroke="#191970" points="1791.4993,-127.6241 1784.2328,-135.3345 1794.7215,-133.8384 1791.4993,-127.6241"/>
</g>
<!-- Node52 -->
<g id="node18" class="node">
<title>Node52</title>
<g id="a_node18"><a xlink:href="../../d2/dbe/arteries_2boost__gmrf_2gmrf__nodes_2main_8cpp.html" target="_top" xlink:title="arteries/boost_gmrf\l/gmrf_nodes/main.cpp">
<polygon fill="#ffffff" stroke="#000000" points="1967.4434,-65.5 1967.4434,-93.5 2082.3838,-93.5 2082.3838,-65.5 1967.4434,-65.5"/>
<text text-anchor="start" x="1975.4434" y="-81.5" font-family="Helvetica,sans-Serif" font-size="10.00" fill="#000000">arteries/boost_gmrf</text>
<text text-anchor="middle" x="2024.9136" y="-71.5" font-family="Helvetica,sans-Serif" font-size="10.00" fill="#000000">/gmrf_nodes/main.cpp</text>
</a>
</g>
</g>
<!-- Node50&#45;&gt;Node52 -->
<g id="edge17" class="edge">
<title>Node50&#45;&gt;Node52</title>
<path fill="none" stroke="#191970" d="M1810.9314,-132.5548C1813.965,-131.6735 1816.9746,-130.8161 1819.9136,-130 1869.3587,-116.2703 1926.0331,-102.4543 1967.242,-92.7526"/>
<polygon fill="#191970" stroke="#191970" points="1809.8134,-129.2355 1801.2177,-135.4294 1811.7999,-135.9478 1809.8134,-129.2355"/>
</g>
<!-- Node53 -->
<g id="node19" class="node">
<title>Node53</title>
<g id="a_node19"><a xlink:href="../../da/df3/arteries_2gmrf__neumann_2main_8cpp.html" target="_top" xlink:title="arteries/gmrf_neumann\l/main.cpp">
<polygon fill="#ffffff" stroke="#000000" points="1697.2217,-65.5 1697.2217,-93.5 1816.6055,-93.5 1816.6055,-65.5 1697.2217,-65.5"/>
<text text-anchor="start" x="1705.2217" y="-81.5" font-family="Helvetica,sans-Serif" font-size="10.00" fill="#000000">arteries/gmrf_neumann</text>
<text text-anchor="middle" x="1756.9136" y="-71.5" font-family="Helvetica,sans-Serif" font-size="10.00" fill="#000000">/main.cpp</text>
</a>
</g>
</g>
<!-- Node50&#45;&gt;Node53 -->
<g id="edge18" class="edge">
<title>Node50&#45;&gt;Node53</title>
<path fill="none" stroke="#191970" d="M1756.9136,-125.0725C1756.9136,-114.5646 1756.9136,-102.6536 1756.9136,-93.6445"/>
<polygon fill="#191970" stroke="#191970" points="1753.4137,-125.3344 1756.9136,-135.3345 1760.4137,-125.3345 1753.4137,-125.3344"/>
</g>
<!-- Node55 -->
<g id="node21" class="node">
<title>Node55</title>
<g id="a_node21"><a xlink:href="../../d5/d58/nrl_2forward__deterministic_2main_8cpp.html" target="_top" xlink:title="nrl/forward_deterministic\l/main.cpp">
<polygon fill="#ffffff" stroke="#000000" points="1409.4507,-65.5 1409.4507,-93.5 1534.3765,-93.5 1534.3765,-65.5 1409.4507,-65.5"/>
<text text-anchor="start" x="1417.4507" y="-81.5" font-family="Helvetica,sans-Serif" font-size="10.00" fill="#000000">nrl/forward_deterministic</text>
<text text-anchor="middle" x="1471.9136" y="-71.5" font-family="Helvetica,sans-Serif" font-size="10.00" fill="#000000">/main.cpp</text>
</a>
</g>
</g>
<!-- Node54&#45;&gt;Node55 -->
<g id="edge20" class="edge">
<title>Node54&#45;&gt;Node55</title>
<path fill="none" stroke="#191970" d="M1337.8827,-131.6231C1368.32,-119.7864 1407.6726,-104.4826 1435.8496,-93.5249"/>
<polygon fill="#191970" stroke="#191970" points="1336.3907,-128.4479 1328.3393,-135.3345 1338.9279,-134.9719 1336.3907,-128.4479"/>
</g>
<!-- Node56 -->
<g id="node22" class="node">
<title>Node56</title>
<g id="a_node22"><a xlink:href="../../dd/dae/_random_search___deterministic_model_8hpp.html" target="_top" xlink:title="nrl/randomsearch_deterministicmodel\l/RandomSearch_DeterministicModel.hpp">
<polygon fill="#ffffff" stroke="#000000" points="1192.7588,-65.5 1192.7588,-93.5 1391.0684,-93.5 1391.0684,-65.5 1192.7588,-65.5"/>
<text text-anchor="start" x="1200.7588" y="-81.5" font-family="Helvetica,sans-Serif" font-size="10.00" fill="#000000">nrl/randomsearch_deterministicmodel</text>
<text text-anchor="middle" x="1291.9136" y="-71.5" font-family="Helvetica,sans-Serif" font-size="10.00" fill="#000000">/RandomSearch_DeterministicModel.hpp</text>
</a>
</g>
</g>
<!-- Node54&#45;&gt;Node56 -->
<g id="edge21" class="edge">
<title>Node54&#45;&gt;Node56</title>
<path fill="none" stroke="#191970" d="M1291.9136,-125.0725C1291.9136,-114.5646 1291.9136,-102.6536 1291.9136,-93.6445"/>
<polygon fill="#191970" stroke="#191970" points="1288.4137,-125.3344 1291.9136,-135.3345 1295.4137,-125.3345 1288.4137,-125.3344"/>
</g>
<!-- Node57 -->
<g id="node23" class="node">
<title>Node57</title>
<g id="a_node23"><a xlink:href="../../d5/d17/nrl_2randomsearch__deterministicmodel_2main_8cpp.html" target="_top" xlink:title="nrl/randomsearch_deterministicmodel\l/main.cpp">
<polygon fill="#ffffff" stroke="#000000" points="1136.5444,-.5 1136.5444,-28.5 1319.2827,-28.5 1319.2827,-.5 1136.5444,-.5"/>
<text text-anchor="start" x="1144.5444" y="-16.5" font-family="Helvetica,sans-Serif" font-size="10.00" fill="#000000">nrl/randomsearch_deterministicmodel</text>
<text text-anchor="middle" x="1227.9136" y="-6.5" font-family="Helvetica,sans-Serif" font-size="10.00" fill="#000000">/main.cpp</text>
</a>
</g>
</g>
<!-- Node56&#45;&gt;Node57 -->
<g id="edge22" class="edge">
<title>Node56&#45;&gt;Node57</title>
<path fill="none" stroke="#191970" d="M1270.7682,-58.0243C1261.2328,-48.3398 1250.2387,-37.1739 1241.7735,-28.5765"/>
<polygon fill="#191970" stroke="#191970" points="1268.5165,-60.7259 1278.0265,-65.396 1273.5044,-55.8146 1268.5165,-60.7259"/>
</g>
<!-- Node59 -->
<g id="node25" class="node">
<title>Node59</title>
<g id="a_node25"><a xlink:href="../../df/df6/forward_costfunction_8hpp.html" target="_top" xlink:title="nrl/forward_randomfield\l/forwardCostfunction.hpp">
<polygon fill="#ffffff" stroke="#000000" points="1552.3276,-65.5 1552.3276,-93.5 1679.4995,-93.5 1679.4995,-65.5 1552.3276,-65.5"/>
<text text-anchor="start" x="1560.3276" y="-81.5" font-family="Helvetica,sans-Serif" font-size="10.00" fill="#000000">nrl/forward_randomfield</text>
<text text-anchor="middle" x="1615.9136" y="-71.5" font-family="Helvetica,sans-Serif" font-size="10.00" fill="#000000">/forwardCostfunction.hpp</text>
</a>
</g>
</g>
<!-- Node58&#45;&gt;Node59 -->
<g id="edge24" class="edge">
<title>Node58&#45;&gt;Node59</title>
<path fill="none" stroke="#191970" d="M1561.3815,-123.8866C1573.8894,-113.7057 1587.803,-102.3807 1598.4454,-93.7183"/>
<polygon fill="#191970" stroke="#191970" points="1558.9596,-121.345 1553.4135,-130.3722 1563.3786,-126.7739 1558.9596,-121.345"/>
</g>
<!-- Node60 -->
<g id="node26" class="node">
<title>Node60</title>
<g id="a_node26"><a xlink:href="../../db/de3/nrl_2forward__randomfield_2main_8cpp.html" target="_top" xlink:title="nrl/forward_randomfield\l/main.cpp">
<polygon fill="#ffffff" stroke="#000000" points="1555.3892,-.5 1555.3892,-28.5 1676.438,-28.5 1676.438,-.5 1555.3892,-.5"/>
<text text-anchor="start" x="1563.3892" y="-16.5" font-family="Helvetica,sans-Serif" font-size="10.00" fill="#000000">nrl/forward_randomfield</text>
<text text-anchor="middle" x="1615.9136" y="-6.5" font-family="Helvetica,sans-Serif" font-size="10.00" fill="#000000">/main.cpp</text>
</a>
</g>
</g>
<!-- Node59&#45;&gt;Node60 -->
<g id="edge25" class="edge">
<title>Node59&#45;&gt;Node60</title>
<path fill="none" stroke="#191970" d="M1615.9136,-55.1081C1615.9136,-46.1539 1615.9136,-36.3227 1615.9136,-28.5765"/>
<polygon fill="#191970" stroke="#191970" points="1612.4137,-55.3959 1615.9136,-65.396 1619.4137,-55.396 1612.4137,-55.3959"/>
</g>
<!-- Node62&#45;&gt;Node40 -->
<g id="edge34" class="edge">
<title>Node62&#45;&gt;Node40</title>
<path fill="none" stroke="#191970" d="M855.9493,-137.9738C843.1855,-134.8879 829.057,-131.8882 815.9136,-130 510.6325,-86.143 428.5607,-135.2289 122.9136,-94 120.007,-93.6079 117.0387,-93.1542 114.0484,-92.6545"/>
<polygon fill="#191970" stroke="#191970" points="855.298,-141.4186 865.8482,-140.4476 856.9952,-134.6274 855.298,-141.4186"/>
</g>
<!-- Node62&#45;&gt;Node41 -->
<g id="edge37" class="edge">
<title>Node62&#45;&gt;Node41</title>
<path fill="none" stroke="#191970" d="M855.5982,-138.0148C842.9215,-134.9607 828.9286,-131.9681 815.9136,-130 578.5231,-94.1026 515.0871,-124.2693 276.9136,-94 273.9448,-93.6227 270.9176,-93.2032 267.864,-92.7514"/>
<polygon fill="#191970" stroke="#191970" points="854.8897,-141.4452 865.4386,-140.459 856.5772,-134.6516 854.8897,-141.4452"/>
</g>
<!-- Node62&#45;&gt;Node44 -->
<g id="edge28" class="edge">
<title>Node62&#45;&gt;Node44</title>
<path fill="none" stroke="#191970" d="M854.9037,-138.0206C842.4043,-135.0255 828.68,-132.063 815.9136,-130 634.0215,-100.6076 584.911,-122.733 402.9136,-94 400.0312,-93.5449 397.0844,-93.0327 394.1161,-92.4797"/>
<polygon fill="#191970" stroke="#191970" points="854.077,-141.4215 864.6237,-140.4131 855.7501,-134.6244 854.077,-141.4215"/>
</g>
<!-- Node62&#45;&gt;Node46 -->
<g id="edge29" class="edge">
<title>Node62&#45;&gt;Node46</title>
<path fill="none" stroke="#191970" d="M853.48,-138.004C841.3527,-135.121 828.1752,-132.2202 815.9136,-130 689.4154,-107.0954 655.494,-116.446 528.9136,-94 526.0403,-93.4905 523.1008,-92.9349 520.1382,-92.3479"/>
<polygon fill="#191970" stroke="#191970" points="852.8334,-141.4486 863.3768,-140.4061 854.4845,-134.6461 852.8334,-141.4486"/>
</g>
<!-- Node62&#45;&gt;Node47 -->
<g id="edge32" class="edge">
<title>Node62&#45;&gt;Node47</title>
<path fill="none" stroke="#191970" d="M850.5491,-138.1065C793.0993,-124.2869 697.4171,-101.2706 644.6782,-88.5843"/>
<polygon fill="#191970" stroke="#191970" points="849.9249,-141.5561 860.4661,-140.492 851.5621,-134.7502 849.9249,-141.5561"/>
</g>
<!-- Node62&#45;&gt;Node49 -->
<g id="edge31" class="edge">
<title>Node62&#45;&gt;Node49</title>
<path fill="none" stroke="#191970" d="M869.4374,-136.1219C843.4682,-123.9216 805.2327,-105.9586 778.8238,-93.5518"/>
<polygon fill="#191970" stroke="#191970" points="868.2003,-139.4077 878.7395,-140.492 871.1768,-133.072 868.2003,-139.4077"/>
</g>
<!-- Node62&#45;&gt;Node53 -->
<g id="edge30" class="edge">
<title>Node62&#45;&gt;Node53</title>
<path fill="none" stroke="#191970" d="M979.3708,-144.4348C1167.2326,-132.6595 1620.0629,-103.7074 1688.9136,-94 1691.5432,-93.6292 1694.223,-93.2151 1696.925,-92.7678"/>
<polygon fill="#191970" stroke="#191970" points="979.0362,-140.9488 969.2746,-145.067 979.4738,-147.9351 979.0362,-140.9488"/>
</g>
<!-- Node62&#45;&gt;Node55 -->
<g id="edge35" class="edge">
<title>Node62&#45;&gt;Node55</title>
<path fill="none" stroke="#191970" d="M979.2433,-142.7419C1078.7722,-133.9577 1252.2801,-116.9806 1399.9136,-94 1402.9374,-93.5293 1406.0271,-93.0194 1409.1436,-92.4819"/>
<polygon fill="#191970" stroke="#191970" points="978.9106,-139.2575 969.2546,-143.6179 979.5221,-146.2308 978.9106,-139.2575"/>
</g>
<!-- Node62&#45;&gt;Node56 -->
<g id="edge39" class="edge">
<title>Node62&#45;&gt;Node56</title>
<path fill="none" stroke="#191970" d="M958.7774,-138.6866C1027.0197,-126.5624 1137.9133,-106.8604 1212.8221,-93.5518"/>
<polygon fill="#191970" stroke="#191970" points="957.8491,-135.2967 948.6156,-140.492 959.0737,-142.1887 957.8491,-135.2967"/>
</g>
<!-- Node62&#45;&gt;Node57 -->
<g id="edge38" class="edge">
<title>Node62&#45;&gt;Node57</title>
<path fill="none" stroke="#191970" d="M979.3313,-142.6211C1029.7335,-135.6875 1094.4278,-121.7962 1145.9136,-94 1161.704,-85.4751 1196.157,-49.2634 1214.989,-28.7773"/>
<polygon fill="#191970" stroke="#191970" points="978.5876,-139.1885 969.1267,-143.9573 979.4965,-146.1292 978.5876,-139.1885"/>
</g>
<!-- Node62&#45;&gt;Node59 -->
<g id="edge36" class="edge">
<title>Node62&#45;&gt;Node59</title>
<path fill="none" stroke="#191970" d="M979.3759,-145.3774C1102.0514,-138.5179 1341.325,-122.6049 1542.9136,-94 1545.9839,-93.5643 1549.1202,-93.0829 1552.283,-92.5681"/>
<polygon fill="#191970" stroke="#191970" points="979.1009,-141.8872 969.3097,-145.9345 979.4878,-148.8765 979.1009,-141.8872"/>
</g>
<!-- Node63 -->
<g id="node29" class="node">
<title>Node63</title>
<g id="a_node29"><a xlink:href="../../de/de8/example__pnpoly__inverse__isoparam_8cpp.html" target="_top" xlink:title="examples/pnpoly/example\l_pnpoly_inverse_isoparam.cpp">
<polygon fill="#ffffff" stroke="#000000" points="822.7046,-65.5 822.7046,-93.5 977.1226,-93.5 977.1226,-65.5 822.7046,-65.5"/>
<text text-anchor="start" x="830.7046" y="-81.5" font-family="Helvetica,sans-Serif" font-size="10.00" fill="#000000">examples/pnpoly/example</text>
<text text-anchor="middle" x="899.9136" y="-71.5" font-family="Helvetica,sans-Serif" font-size="10.00" fill="#000000">_pnpoly_inverse_isoparam.cpp</text>
</a>
</g>
</g>
<!-- Node62&#45;&gt;Node63 -->
<g id="edge33" class="edge">
<title>Node62&#45;&gt;Node63</title>
<path fill="none" stroke="#191970" d="M898.47,-130.0243C898.7988,-118.5169 899.2078,-104.2016 899.5064,-93.7499"/>
<polygon fill="#191970" stroke="#191970" points="894.9622,-130.2528 898.175,-140.3487 901.9593,-130.4528 894.9622,-130.2528"/>
</g>
<!-- Node64 -->
<g id="node30" class="node">
<title>Node64</title>
<g id="a_node30"><a xlink:href="../../d5/dc7/_newton___raphsonpp_8cpp.html" target="_top" xlink:title="src/Newton_Raphsonpp.cpp">
<polygon fill="#ffffff" stroke="#000000" points="995.0986,-70.5 995.0986,-88.5 1136.7285,-88.5 1136.7285,-70.5 995.0986,-70.5"/>
<text text-anchor="middle" x="1065.9136" y="-76.5" font-family="Helvetica,sans-Serif" font-size="10.00" fill="#000000">src/Newton_Raphsonpp.cpp</text>
</a>
</g>
</g>
<!-- Node62&#45;&gt;Node64 -->
<g id="edge40" class="edge">
<title>Node62&#45;&gt;Node64</title>
<path fill="none" stroke="#191970" d="M928.8401,-136.614C962.2827,-122.6795 1014.7358,-100.8241 1044.1113,-88.5843"/>
<polygon fill="#191970" stroke="#191970" points="927.4173,-133.415 919.5327,-140.492 930.1097,-139.8766 927.4173,-133.415"/>
</g>
</g>
</svg>
        <g id="navigator" transform="translate(0 0)" fill="#404254">
                <rect fill="#f2f5e9" fill-opacity="0.5" stroke="#606060" stroke-width=".5" x="0" y="0" width="60" height="60"/>
                <use id="zoomplus" xlink:href="#zoomPlus" x="17" y="9" onmousedown="handleZoom(evt,'in')"/>
                <use id="zoomminus" xlink:href="#zoomMin" x="42" y="9" onmousedown="handleZoom(evt,'out')"/>
                <use id="reset" xlink:href="#resetDef" x="30" y="36" onmousedown="handleReset()"/>
                <g id="arrowUp" xlink:href="#dirArrow" transform="translate(30 24)" onmousedown="handlePan(0,-1)">
                  <use xlink:href="#rim" fill="#404040">
                        <set attributeName="fill" to="#808080" begin="arrowUp.mouseover" end="arrowUp.mouseout"/>
                  </use>
                  <path fill="none" stroke="white" stroke-width="1.5" d="M0,-3.0v7 M-2.5,-0.5L0,-3.0L2.5,-0.5"/>
                </g>
                <g id="arrowRight" xlink:href="#dirArrow" transform="rotate(90) translate(36 -43)" onmousedown="handlePan(1,0)">
                  <use xlink:href="#rim" fill="#404040">
                        <set attributeName="fill" to="#808080" begin="arrowRight.mouseover" end="arrowRight.mouseout"/>
                  </use>
                  <path fill="none" stroke="white" stroke-width="1.5" d="M0,-3.0v7 M-2.5,-0.5L0,-3.0L2.5,-0.5"/>
                </g>
                <g id="arrowDown" xlink:href="#dirArrow" transform="rotate(180) translate(-30 -48)" onmousedown="handlePan(0,1)">
                  <use xlink:href="#rim" fill="#404040">
                        <set attributeName="fill" to="#808080" begin="arrowDown.mouseover" end="arrowDown.mouseout"/>
                  </use>
                  <path fill="none" stroke="white" stroke-width="1.5" d="M0,-3.0v7 M-2.5,-0.5L0,-3.0L2.5,-0.5"/>
                </g>
                <g id="arrowLeft" xlink:href="#dirArrow" transform="rotate(270) translate(-36 17)" onmousedown="handlePan(-1,0)">
                  <use xlink:href="#rim" fill="#404040">
                        <set attributeName="fill" to="#808080" begin="arrowLeft.mouseover" end="arrowLeft.mouseout"/>
                  </use>
                  <path fill="none" stroke="white" stroke-width="1.5" d="M0,-3.0v7 M-2.5,-0.5L0,-3.0L2.5,-0.5"/>
                </g>
        </g>
        <svg viewBox="0 0 15 15" width="100%" height="30px" preserveAspectRatio="xMaxYMin meet">
         <g id="arrow_out" transform="scale(0.3 0.3)">
          <a xlink:href="laplacepp_8hpp__dep__incl_org.svg" target="_base">
           <rect id="button" ry="5" rx="5" y="6" x="6" height="38" width="38"
                fill="#f2f5e9" fill-opacity="0.5" stroke="#606060" stroke-width="1.0"/>
           <path id="arrow"
             d="M 11.500037,31.436501 C 11.940474,20.09759 22.043105,11.32322 32.158766,21.979434 L 37.068811,17.246167 C 37.068811,17.246167 37.088388,32 37.088388,32 L 22.160133,31.978069 C 22.160133,31.978069 26.997745,27.140456 26.997745,27.140456 C 18.528582,18.264221 13.291696,25.230495 11.500037,31.436501 z"
             style="fill:#404040;"/>
          </a>
         </g>
        </svg>
</svg>
