<?xml version="1.0" encoding="UTF-8" standalone="no"?>
<!DOCTYPE svg PUBLIC "-//W3C//DTD SVG 1.1//EN"
 "http://www.w3.org/Graphics/SVG/1.1/DTD/svg11.dtd">
<!-- Generated by graphviz version 2.40.1 (20161225.0304)
 -->
<!-- Title: src/Compressible_Mooney_Transverse_Isotropic_Random_Field.hpp Pages: 1 -->
<svg width="3399pt" height="408pt"
 viewBox="0.00 0.00 3399.00 408.00" xmlns="http://www.w3.org/2000/svg" xmlns:xlink="http://www.w3.org/1999/xlink">
<g id="graph0" class="graph" transform="scale(1 1) rotate(0) translate(4 404)">
<title>src/Compressible_Mooney_Transverse_Isotropic_Random_Field.hpp</title>
<polygon fill="#ffffff" stroke="transparent" points="-4,4 -4,-404 3395,-404 3395,4 -4,4"/>
<!-- Node0 -->
<g id="node1" class="node">
<title>Node0</title>
<polygon fill="#bfbfbf" stroke="#000000" points="1948.5,-358.5 1948.5,-399.5 2081.5,-399.5 2081.5,-358.5 1948.5,-358.5"/>
<text text-anchor="start" x="1956.5" y="-387.5" font-family="Helvetica,sans-Serif" font-size="10.00" fill="#000000">src/Compressible_Mooney</text>
<text text-anchor="start" x="1956.5" y="-376.5" font-family="Helvetica,sans-Serif" font-size="10.00" fill="#000000">_Transverse_Isotropic</text>
<text text-anchor="middle" x="2015" y="-365.5" font-family="Helvetica,sans-Serif" font-size="10.00" fill="#000000">_Random_Field.hpp</text>
</g>
<!-- Node1 -->
<g id="node2" class="node">
<title>Node1</title>
<g id="a_node2"><a xlink:href="../../de/d49/tensor__calculus_8hpp.html" target="_top" xlink:title="tensor_calculus.hpp">
<polygon fill="#ffffff" stroke="#000000" points="1536,-168.5 1536,-187.5 1640,-187.5 1640,-168.5 1536,-168.5"/>
<text text-anchor="middle" x="1588" y="-175.5" font-family="Helvetica,sans-Serif" font-size="10.00" fill="#000000">tensor_calculus.hpp</text>
</a>
</g>
</g>
<!-- Node0&#45;&gt;Node1 -->
<g id="edge1" class="edge">
<title>Node0&#45;&gt;Node1</title>
<path fill="none" stroke="#191970" d="M1948.3231,-367.1445C1872.0367,-351.1976 1745.8289,-317.3551 1654,-255 1631.0175,-239.3941 1611.2936,-213.7753 1599.5418,-196.4144"/>
<polygon fill="#191970" stroke="#191970" points="1602.267,-194.1868 1593.8631,-187.735 1596.4093,-198.0194 1602.267,-194.1868"/>
</g>
<!-- Node34 -->
<g id="node35" class="node">
<title>Node34</title>
<g id="a_node35"><a xlink:href="../../d1/dac/shinozukapp__layeredcomp__2d_8hpp.html" target="_top" xlink:title="shinozukapp_layeredcomp\l_2d.hpp">
<polygon fill="#ffffff" stroke="#000000" points="1949,-291.5 1949,-321.5 2081,-321.5 2081,-291.5 1949,-291.5"/>
<text text-anchor="start" x="1957" y="-309.5" font-family="Helvetica,sans-Serif" font-size="10.00" fill="#000000">shinozukapp_layeredcomp</text>
<text text-anchor="middle" x="2015" y="-298.5" font-family="Helvetica,sans-Serif" font-size="10.00" fill="#000000">_2d.hpp</text>
</a>
</g>
</g>
<!-- Node0&#45;&gt;Node34 -->
<g id="edge35" class="edge">
<title>Node0&#45;&gt;Node34</title>
<path fill="none" stroke="#191970" d="M2015,-358.4183C2015,-350.0849 2015,-340.3834 2015,-331.6373"/>
<polygon fill="#191970" stroke="#191970" points="2018.5001,-331.5991 2015,-321.5991 2011.5001,-331.5991 2018.5001,-331.5991"/>
</g>
<!-- Node41 -->
<g id="node42" class="node">
<title>Node41</title>
<g id="a_node42"><a xlink:href="../../da/d5c/compressible_hyperelasticity_8hpp.html" target="_top" xlink:title="compressibleHyperelasticity.hpp">
<polygon fill="#ffffff" stroke="#000000" points="2266,-297 2266,-316 2424,-316 2424,-297 2266,-297"/>
<text text-anchor="middle" x="2345" y="-304" font-family="Helvetica,sans-Serif" font-size="10.00" fill="#000000">compressibleHyperelasticity.hpp</text>
</a>
</g>
</g>
<!-- Node0&#45;&gt;Node41 -->
<g id="edge43" class="edge">
<title>Node0&#45;&gt;Node41</title>
<path fill="none" stroke="#191970" d="M2081.7804,-364.3285C2143.6084,-350.7451 2234.3654,-330.8061 2291.5344,-318.2462"/>
<polygon fill="#191970" stroke="#191970" points="2292.4392,-321.631 2301.4552,-316.0667 2290.9371,-314.7941 2292.4392,-321.631"/>
</g>
<!-- Node2 -->
<g id="node3" class="node">
<title>Node2</title>
<g id="a_node3"><a xlink:href="../../d0/d02/meshpp_8hpp.html" target="_top" xlink:title="meshpp.hpp">
<polygon fill="#ffffff" stroke="#000000" points="1652,-56.5 1652,-75.5 1722,-75.5 1722,-56.5 1652,-56.5"/>
<text text-anchor="middle" x="1687" y="-63.5" font-family="Helvetica,sans-Serif" font-size="10.00" fill="#000000">meshpp.hpp</text>
</a>
</g>
</g>
<!-- Node1&#45;&gt;Node2 -->
<g id="edge2" class="edge">
<title>Node1&#45;&gt;Node2</title>
<path fill="none" stroke="#191970" d="M1596.4407,-168.4509C1613.1719,-149.5227 1650.7465,-107.014 1671.8602,-83.1279"/>
<polygon fill="#191970" stroke="#191970" points="1674.5802,-85.3354 1678.5807,-75.5249 1669.3354,-80.6994 1674.5802,-85.3354"/>
</g>
<!-- Node3 -->
<g id="node4" class="node">
<title>Node3</title>
<polygon fill="#ffffff" stroke="#bfbfbf" points="0,-.5 0,-19.5 46,-19.5 46,-.5 0,-.5"/>
<text text-anchor="middle" x="23" y="-7.5" font-family="Helvetica,sans-Serif" font-size="10.00" fill="#000000">stdio.h</text>
</g>
<!-- Node2&#45;&gt;Node3 -->
<g id="edge3" class="edge">
<title>Node2&#45;&gt;Node3</title>
<path fill="none" stroke="#191970" d="M1651.6582,-65.5859C1432.2784,-62.9398 259.5961,-47.6688 56.2138,-19.5924"/>
<polygon fill="#191970" stroke="#191970" points="56.6517,-16.1188 46.2386,-18.0731 55.5976,-23.039 56.6517,-16.1188"/>
</g>
<!-- Node4 -->
<g id="node5" class="node">
<title>Node4</title>
<polygon fill="#ffffff" stroke="#bfbfbf" points="64,-.5 64,-19.5 118,-19.5 118,-.5 64,-.5"/>
<text text-anchor="middle" x="91" y="-7.5" font-family="Helvetica,sans-Serif" font-size="10.00" fill="#000000">iostream</text>
</g>
<!-- Node2&#45;&gt;Node4 -->
<g id="edge4" class="edge">
<title>Node2&#45;&gt;Node4</title>
<path fill="none" stroke="#191970" d="M1651.836,-65.4723C1438.883,-62.2103 324.6662,-44.1792 128.4985,-19.7301"/>
<polygon fill="#191970" stroke="#191970" points="128.753,-16.2322 118.3693,-18.3366 127.7989,-23.1669 128.753,-16.2322"/>
</g>
<!-- Node5 -->
<g id="node6" class="node">
<title>Node5</title>
<polygon fill="#ffffff" stroke="#bfbfbf" points="136.5,-.5 136.5,-19.5 185.5,-19.5 185.5,-.5 136.5,-.5"/>
<text text-anchor="middle" x="161" y="-7.5" font-family="Helvetica,sans-Serif" font-size="10.00" fill="#000000">istream</text>
</g>
<!-- Node2&#45;&gt;Node5 -->
<g id="edge5" class="edge">
<title>Node2&#45;&gt;Node5</title>
<path fill="none" stroke="#191970" d="M1651.6652,-65.4506C1443.9063,-62.1502 384.3247,-44.3229 195.7021,-19.5144"/>
<polygon fill="#191970" stroke="#191970" points="196.1141,-16.0375 185.7144,-18.0617 195.1065,-22.9646 196.1141,-16.0375"/>
</g>
<!-- Node6 -->
<g id="node7" class="node">
<title>Node6</title>
<polygon fill="#ffffff" stroke="#bfbfbf" points="204,-.5 204,-19.5 254,-19.5 254,-.5 204,-.5"/>
<text text-anchor="middle" x="229" y="-7.5" font-family="Helvetica,sans-Serif" font-size="10.00" fill="#000000">fstream</text>
</g>
<!-- Node2&#45;&gt;Node6 -->
<g id="edge6" class="edge">
<title>Node2&#45;&gt;Node6</title>
<path fill="none" stroke="#191970" d="M1651.9516,-65.4C1450.7194,-61.8857 445.2276,-43.3672 264.1393,-19.6124"/>
<polygon fill="#191970" stroke="#191970" points="264.487,-16.1262 254.0872,-18.1501 263.4792,-23.0533 264.487,-16.1262"/>
</g>
<!-- Node7 -->
<g id="node8" class="node">
<title>Node7</title>
<polygon fill="#ffffff" stroke="#bfbfbf" points="272,-.5 272,-19.5 316,-19.5 316,-.5 272,-.5"/>
<text text-anchor="middle" x="294" y="-7.5" font-family="Helvetica,sans-Serif" font-size="10.00" fill="#000000">vector</text>
</g>
<!-- Node2&#45;&gt;Node7 -->
<g id="edge7" class="edge">
<title>Node2&#45;&gt;Node7</title>
<path fill="none" stroke="#191970" d="M1651.8538,-65.3972C1455.8183,-61.9586 500.3449,-44.1741 326.2704,-19.5591"/>
<polygon fill="#191970" stroke="#191970" points="326.5871,-16.0659 316.164,-17.9661 325.4971,-22.9805 326.5871,-16.0659"/>
</g>
<!-- Node8 -->
<g id="node9" class="node">
<title>Node8</title>
<polygon fill="#ffffff" stroke="#bfbfbf" points="334,-.5 334,-19.5 384,-19.5 384,-.5 334,-.5"/>
<text text-anchor="middle" x="359" y="-7.5" font-family="Helvetica,sans-Serif" font-size="10.00" fill="#000000">iomanip</text>
</g>
<!-- Node2&#45;&gt;Node8 -->
<g id="edge8" class="edge">
<title>Node2&#45;&gt;Node8</title>
<path fill="none" stroke="#191970" d="M1651.7323,-65.2738C1461.6478,-61.2911 561.8955,-41.5425 394.4534,-19.6528"/>
<polygon fill="#191970" stroke="#191970" points="394.4893,-16.1211 384.0888,-18.1407 393.4787,-23.0478 394.4893,-16.1211"/>
</g>
<!-- Node9 -->
<g id="node10" class="node">
<title>Node9</title>
<polygon fill="#ffffff" stroke="#bfbfbf" points="402,-.5 402,-19.5 506,-19.5 506,-.5 402,-.5"/>
<text text-anchor="middle" x="454" y="-7.5" font-family="Helvetica,sans-Serif" font-size="10.00" fill="#000000">Epetra_MpiComm.h</text>
</g>
<!-- Node2&#45;&gt;Node9 -->
<g id="edge9" class="edge">
<title>Node2&#45;&gt;Node9</title>
<path fill="none" stroke="#191970" d="M1651.919,-65.2074C1484.3855,-61.3342 764.0084,-43.661 516.2162,-19.9777"/>
<polygon fill="#191970" stroke="#191970" points="516.4822,-16.487 506.1871,-18.9894 515.7957,-23.4533 516.4822,-16.487"/>
</g>
<!-- Node10 -->
<g id="node11" class="node">
<title>Node10</title>
<polygon fill="#ffffff" stroke="#bfbfbf" points="524.5,-.5 524.5,-19.5 637.5,-19.5 637.5,-.5 524.5,-.5"/>
<text text-anchor="middle" x="581" y="-7.5" font-family="Helvetica,sans-Serif" font-size="10.00" fill="#000000">Epetra_FECrsGraph.h</text>
</g>
<!-- Node2&#45;&gt;Node10 -->
<g id="edge10" class="edge">
<title>Node2&#45;&gt;Node10</title>
<path fill="none" stroke="#191970" d="M1651.8906,-65.7972C1520.8713,-64.7569 1047.9728,-58.4636 647.8653,-19.976"/>
<polygon fill="#191970" stroke="#191970" points="648.1251,-16.4849 637.8338,-19.0028 647.4491,-23.4521 648.1251,-16.4849"/>
</g>
<!-- Node11 -->
<g id="node12" class="node">
<title>Node11</title>
<polygon fill="#ffffff" stroke="#bfbfbf" points="656,-.5 656,-19.5 770,-19.5 770,-.5 656,-.5"/>
<text text-anchor="middle" x="713" y="-7.5" font-family="Helvetica,sans-Serif" font-size="10.00" fill="#000000">Epetra_FECrsMatrix.h</text>
</g>
<!-- Node2&#45;&gt;Node11 -->
<g id="edge11" class="edge">
<title>Node2&#45;&gt;Node11</title>
<path fill="none" stroke="#191970" d="M1651.8478,-65.4799C1531.6521,-63.4357 1125.8556,-54.345 780.396,-20.0447"/>
<polygon fill="#191970" stroke="#191970" points="780.4924,-16.5369 770.1933,-19.0225 779.7945,-23.502 780.4924,-16.5369"/>
</g>
<!-- Node12 -->
<g id="node13" class="node">
<title>Node12</title>
<polygon fill="#ffffff" stroke="#bfbfbf" points="788,-.5 788,-19.5 888,-19.5 888,-.5 788,-.5"/>
<text text-anchor="middle" x="838" y="-7.5" font-family="Helvetica,sans-Serif" font-size="10.00" fill="#000000">Epetra_FEVector.h</text>
</g>
<!-- Node2&#45;&gt;Node12 -->
<g id="edge12" class="edge">
<title>Node2&#45;&gt;Node12</title>
<path fill="none" stroke="#191970" d="M1651.8413,-65.3276C1541.9934,-62.9363 1195.3271,-53.189 898.2615,-20.0256"/>
<polygon fill="#191970" stroke="#191970" points="898.4881,-16.5291 888.1589,-18.8865 897.7037,-23.485 898.4881,-16.5291"/>
</g>
<!-- Node13 -->
<g id="node14" class="node">
<title>Node13</title>
<polygon fill="#ffffff" stroke="#bfbfbf" points="906.5,-.5 906.5,-19.5 993.5,-19.5 993.5,-.5 906.5,-.5"/>
<text text-anchor="middle" x="950" y="-7.5" font-family="Helvetica,sans-Serif" font-size="10.00" fill="#000000">Epetra_Vector.h</text>
</g>
<!-- Node2&#45;&gt;Node13 -->
<g id="edge13" class="edge">
<title>Node2&#45;&gt;Node13</title>
<path fill="none" stroke="#191970" d="M1651.9211,-65.166C1552.0524,-62.4693 1257.5503,-52.2777 1003.7785,-20.0954"/>
<polygon fill="#191970" stroke="#191970" points="1003.9939,-16.5944 993.6299,-18.7937 1003.1034,-23.5376 1003.9939,-16.5944"/>
</g>
<!-- Node14 -->
<g id="node15" class="node">
<title>Node14</title>
<polygon fill="#ffffff" stroke="#bfbfbf" points="1011.5,-.5 1011.5,-19.5 1088.5,-19.5 1088.5,-.5 1011.5,-.5"/>
<text text-anchor="middle" x="1050" y="-7.5" font-family="Helvetica,sans-Serif" font-size="10.00" fill="#000000">Epetra_Map.h</text>
</g>
<!-- Node2&#45;&gt;Node14 -->
<g id="edge14" class="edge">
<title>Node2&#45;&gt;Node14</title>
<path fill="none" stroke="#191970" d="M1651.9095,-64.8784C1561.6304,-61.6496 1313.8641,-50.6184 1098.5597,-20.0692"/>
<polygon fill="#191970" stroke="#191970" points="1099.0521,-16.6041 1088.6561,-18.6467 1098.0569,-23.533 1099.0521,-16.6041"/>
</g>
<!-- Node15 -->
<g id="node16" class="node">
<title>Node15</title>
<polygon fill="#ffffff" stroke="#bfbfbf" points="1106.5,-.5 1106.5,-19.5 1245.5,-19.5 1245.5,-.5 1106.5,-.5"/>
<text text-anchor="middle" x="1176" y="-7.5" font-family="Helvetica,sans-Serif" font-size="10.00" fill="#000000">Epetra_SerialDenseMatrix.h</text>
</g>
<!-- Node2&#45;&gt;Node15 -->
<g id="edge15" class="edge">
<title>Node2&#45;&gt;Node15</title>
<path fill="none" stroke="#191970" d="M1651.9762,-62.5084C1579.9827,-55.28 1409.9148,-37.9413 1255.8981,-20.0856"/>
<polygon fill="#191970" stroke="#191970" points="1256.1151,-16.5873 1245.7777,-18.9088 1255.3065,-23.5405 1256.1151,-16.5873"/>
</g>
<!-- Node16 -->
<g id="node17" class="node">
<title>Node16</title>
<polygon fill="#ffffff" stroke="#bfbfbf" points="1264,-.5 1264,-19.5 1404,-19.5 1404,-.5 1264,-.5"/>
<text text-anchor="middle" x="1334" y="-7.5" font-family="Helvetica,sans-Serif" font-size="10.00" fill="#000000">Epetra_SerialDenseVector.h</text>
</g>
<!-- Node2&#45;&gt;Node16 -->
<g id="edge16" class="edge">
<title>Node2&#45;&gt;Node16</title>
<path fill="none" stroke="#191970" d="M1651.8625,-60.4258C1594.4009,-51.3101 1479.2508,-33.0426 1404.4627,-21.1782"/>
<polygon fill="#191970" stroke="#191970" points="1404.6128,-17.6583 1394.1879,-19.5482 1403.516,-24.5719 1404.6128,-17.6583"/>
</g>
<!-- Node17 -->
<g id="node18" class="node">
<title>Node17</title>
<polygon fill="#ffffff" stroke="#bfbfbf" points="1422,-.5 1422,-19.5 1574,-19.5 1574,-.5 1422,-.5"/>
<text text-anchor="middle" x="1498" y="-7.5" font-family="Helvetica,sans-Serif" font-size="10.00" fill="#000000">Epetra_IntSerialDenseVector.h</text>
</g>
<!-- Node2&#45;&gt;Node17 -->
<g id="edge17" class="edge">
<title>Node2&#45;&gt;Node17</title>
<path fill="none" stroke="#191970" d="M1654.5097,-56.3733C1622.8098,-46.9807 1574.4424,-32.6496 1539.8714,-22.4064"/>
<polygon fill="#191970" stroke="#191970" points="1540.6486,-18.9863 1530.0663,-19.5011 1538.6599,-25.6979 1540.6486,-18.9863"/>
</g>
<!-- Node18 -->
<g id="node19" class="node">
<title>Node18</title>
<polygon fill="#ffffff" stroke="#bfbfbf" points="1592,-.5 1592,-19.5 1678,-19.5 1678,-.5 1592,-.5"/>
<text text-anchor="middle" x="1635" y="-7.5" font-family="Helvetica,sans-Serif" font-size="10.00" fill="#000000">Epetra_Import.h</text>
</g>
<!-- Node2&#45;&gt;Node18 -->
<g id="edge18" class="edge">
<title>Node2&#45;&gt;Node18</title>
<path fill="none" stroke="#191970" d="M1677.9423,-56.2455C1670.4858,-48.2155 1659.7366,-36.6394 1650.8583,-27.0781"/>
<polygon fill="#191970" stroke="#191970" points="1653.3232,-24.589 1643.9539,-19.6427 1648.1937,-29.3522 1653.3232,-24.589"/>
</g>
<!-- Node19 -->
<g id="node20" class="node">
<title>Node19</title>
<polygon fill="#ffffff" stroke="#bfbfbf" points="1696.5,-.5 1696.5,-19.5 1783.5,-19.5 1783.5,-.5 1696.5,-.5"/>
<text text-anchor="middle" x="1740" y="-7.5" font-family="Helvetica,sans-Serif" font-size="10.00" fill="#000000">Epetra_Export.h</text>
</g>
<!-- Node2&#45;&gt;Node19 -->
<g id="edge19" class="edge">
<title>Node2&#45;&gt;Node19</title>
<path fill="none" stroke="#191970" d="M1696.2319,-56.2455C1703.8317,-48.2155 1714.7877,-36.6394 1723.8368,-27.0781"/>
<polygon fill="#191970" stroke="#191970" points="1726.5421,-29.3115 1730.8739,-19.6427 1721.458,-24.4998 1726.5421,-29.3115"/>
</g>
<!-- Node20 -->
<g id="node21" class="node">
<title>Node20</title>
<polygon fill="#ffffff" stroke="#bfbfbf" points="1802,-.5 1802,-19.5 1882,-19.5 1882,-.5 1802,-.5"/>
<text text-anchor="middle" x="1842" y="-7.5" font-family="Helvetica,sans-Serif" font-size="10.00" fill="#000000">Epetra_Time.h</text>
</g>
<!-- Node2&#45;&gt;Node20 -->
<g id="edge20" class="edge">
<title>Node2&#45;&gt;Node20</title>
<path fill="none" stroke="#191970" d="M1713.6454,-56.3733C1739.1964,-47.1419 1777.9512,-33.1402 1806.1909,-22.9375"/>
<polygon fill="#191970" stroke="#191970" points="1807.4865,-26.1909 1815.7022,-19.5011 1805.1079,-19.6074 1807.4865,-26.1909"/>
</g>
<!-- Node21 -->
<g id="node22" class="node">
<title>Node21</title>
<polygon fill="#ffffff" stroke="#bfbfbf" points="1900.5,-.5 1900.5,-19.5 2047.5,-19.5 2047.5,-.5 1900.5,-.5"/>
<text text-anchor="middle" x="1974" y="-7.5" font-family="Helvetica,sans-Serif" font-size="10.00" fill="#000000">ml_MultiLevelPreconditioner.h</text>
</g>
<!-- Node2&#45;&gt;Node21 -->
<g id="edge21" class="edge">
<title>Node2&#45;&gt;Node21</title>
<path fill="none" stroke="#191970" d="M1722.1918,-59.1333C1770.2012,-49.7656 1856.8791,-32.8529 1914.9369,-21.5245"/>
<polygon fill="#191970" stroke="#191970" points="1915.9259,-24.8976 1925.0704,-19.5472 1914.5852,-18.0272 1915.9259,-24.8976"/>
</g>
<!-- Node22 -->
<g id="node23" class="node">
<title>Node22</title>
<polygon fill="#ffffff" stroke="#bfbfbf" points="2065.5,-.5 2065.5,-19.5 2156.5,-19.5 2156.5,-.5 2065.5,-.5"/>
<text text-anchor="middle" x="2111" y="-7.5" font-family="Helvetica,sans-Serif" font-size="10.00" fill="#000000">ml_epetra_utils.h</text>
</g>
<!-- Node2&#45;&gt;Node22 -->
<g id="edge22" class="edge">
<title>Node2&#45;&gt;Node22</title>
<path fill="none" stroke="#191970" d="M1722.1963,-62.2746C1786.2681,-55.3498 1926.4398,-39.5414 2055.3627,-20.0236"/>
<polygon fill="#191970" stroke="#191970" points="2056.0564,-23.4583 2065.4144,-18.4907 2055.001,-16.5383 2056.0564,-23.4583"/>
</g>
<!-- Node23 -->
<g id="node24" class="node">
<title>Node23</title>
<polygon fill="#ffffff" stroke="#bfbfbf" points="2174.5,-.5 2174.5,-19.5 2245.5,-19.5 2245.5,-.5 2174.5,-.5"/>
<text text-anchor="middle" x="2210" y="-7.5" font-family="Helvetica,sans-Serif" font-size="10.00" fill="#000000">ml_include.h</text>
</g>
<!-- Node2&#45;&gt;Node23 -->
<g id="edge23" class="edge">
<title>Node2&#45;&gt;Node23</title>
<path fill="none" stroke="#191970" d="M1722.2692,-64.0919C1800.1894,-59.5585 1992.9965,-46.5945 2164.2655,-19.936"/>
<polygon fill="#191970" stroke="#191970" points="2164.8814,-23.3822 2174.2145,-18.368 2163.7915,-16.4676 2164.8814,-23.3822"/>
</g>
<!-- Node24 -->
<g id="node25" class="node">
<title>Node24</title>
<polygon fill="#ffffff" stroke="#bfbfbf" points="2263.5,-.5 2263.5,-19.5 2400.5,-19.5 2400.5,-.5 2263.5,-.5"/>
<text text-anchor="middle" x="2332" y="-7.5" font-family="Helvetica,sans-Serif" font-size="10.00" fill="#000000">EpetraExt_RowMatrixOut.h</text>
</g>
<!-- Node2&#45;&gt;Node24 -->
<g id="edge24" class="edge">
<title>Node2&#45;&gt;Node24</title>
<path fill="none" stroke="#191970" d="M1722.2196,-63.7153C1809.9272,-57.9034 2045.3783,-41.5514 2252.9421,-20.0675"/>
<polygon fill="#191970" stroke="#191970" points="2253.5331,-23.525 2263.1168,-19.0079 2252.808,-16.5626 2253.5331,-23.525"/>
</g>
<!-- Node25 -->
<g id="node26" class="node">
<title>Node25</title>
<polygon fill="#ffffff" stroke="#bfbfbf" points="2418.5,-.5 2418.5,-19.5 2557.5,-19.5 2557.5,-.5 2418.5,-.5"/>
<text text-anchor="middle" x="2488" y="-7.5" font-family="Helvetica,sans-Serif" font-size="10.00" fill="#000000">EpetraExt_MultiVectorOut.h</text>
</g>
<!-- Node2&#45;&gt;Node25 -->
<g id="edge25" class="edge">
<title>Node2&#45;&gt;Node25</title>
<path fill="none" stroke="#191970" d="M1722.0495,-64.5662C1825.4459,-60.1674 2138.3722,-45.6426 2408.2968,-20.1139"/>
<polygon fill="#191970" stroke="#191970" points="2408.6607,-23.5952 2418.2837,-19.1624 2407.9968,-16.6267 2408.6607,-23.5952"/>
</g>
<!-- Node26 -->
<g id="node27" class="node">
<title>Node26</title>
<polygon fill="#ffffff" stroke="#bfbfbf" points="2576,-.5 2576,-19.5 2686,-19.5 2686,-.5 2576,-.5"/>
<text text-anchor="middle" x="2631" y="-7.5" font-family="Helvetica,sans-Serif" font-size="10.00" fill="#000000">EpetraExt_VectorIn.h</text>
</g>
<!-- Node2&#45;&gt;Node26 -->
<g id="edge26" class="edge">
<title>Node2&#45;&gt;Node26</title>
<path fill="none" stroke="#191970" d="M1722.3112,-65.456C1840.2883,-63.3639 2231.7037,-54.2093 2565.5323,-20.049"/>
<polygon fill="#191970" stroke="#191970" points="2566.3015,-23.4882 2575.8889,-18.9792 2565.5822,-16.5253 2566.3015,-23.4882"/>
</g>
<!-- Node27 -->
<g id="node28" class="node">
<title>Node27</title>
<polygon fill="#ffffff" stroke="#bfbfbf" points="2704.5,-.5 2704.5,-19.5 2835.5,-19.5 2835.5,-.5 2704.5,-.5"/>
<text text-anchor="middle" x="2770" y="-7.5" font-family="Helvetica,sans-Serif" font-size="10.00" fill="#000000">EpetraExt_MultiVectorIn.h</text>
</g>
<!-- Node2&#45;&gt;Node27 -->
<g id="edge27" class="edge">
<title>Node2&#45;&gt;Node27</title>
<path fill="none" stroke="#191970" d="M1722.3385,-65.4988C1851.0674,-63.4392 2307.1671,-54.0961 2694.1948,-19.9917"/>
<polygon fill="#191970" stroke="#191970" points="2694.5349,-23.4754 2704.186,-19.1044 2693.9156,-16.5028 2694.5349,-23.4754"/>
</g>
<!-- Node28 -->
<g id="node29" class="node">
<title>Node28</title>
<polygon fill="#ffffff" stroke="#bfbfbf" points="2854,-.5 2854,-19.5 2954,-19.5 2954,-.5 2854,-.5"/>
<text text-anchor="middle" x="2904" y="-7.5" font-family="Helvetica,sans-Serif" font-size="10.00" fill="#000000">Teuchos_RCP.hpp</text>
</g>
<!-- Node2&#45;&gt;Node28 -->
<g id="edge28" class="edge">
<title>Node2&#45;&gt;Node28</title>
<path fill="none" stroke="#191970" d="M1722.2236,-65.2106C1888.7252,-61.3872 2598.6125,-44.0324 2843.5829,-19.9902"/>
<polygon fill="#191970" stroke="#191970" points="2844.2519,-23.4404 2853.8481,-18.95 2843.5461,-16.476 2844.2519,-23.4404"/>
</g>
<!-- Node29 -->
<g id="node30" class="node">
<title>Node29</title>
<polygon fill="#ffffff" stroke="#bfbfbf" points="2972.5,-.5 2972.5,-19.5 3033.5,-19.5 3033.5,-.5 2972.5,-.5"/>
<text text-anchor="middle" x="3003" y="-7.5" font-family="Helvetica,sans-Serif" font-size="10.00" fill="#000000">Amesos.h</text>
</g>
<!-- Node2&#45;&gt;Node29 -->
<g id="edge29" class="edge">
<title>Node2&#45;&gt;Node29</title>
<path fill="none" stroke="#191970" d="M1722.2291,-65.7245C1899.2166,-64.1907 2693.0896,-55.4984 2962.0064,-19.7891"/>
<polygon fill="#191970" stroke="#191970" points="2962.6875,-23.2285 2972.1172,-18.3982 2961.7335,-16.2938 2962.6875,-23.2285"/>
</g>
<!-- Node30 -->
<g id="node31" class="node">
<title>Node30</title>
<polygon fill="#ffffff" stroke="#bfbfbf" points="3051.5,-.5 3051.5,-19.5 3116.5,-19.5 3116.5,-.5 3051.5,-.5"/>
<text text-anchor="middle" x="3084" y="-7.5" font-family="Helvetica,sans-Serif" font-size="10.00" fill="#000000">AztecOO.h</text>
</g>
<!-- Node2&#45;&gt;Node30 -->
<g id="edge30" class="edge">
<title>Node2&#45;&gt;Node30</title>
<path fill="none" stroke="#191970" d="M1722.2628,-65.7837C1905.9874,-64.5096 2755.7216,-56.7717 3041.1224,-19.958"/>
<polygon fill="#191970" stroke="#191970" points="3041.9937,-23.3728 3051.4424,-18.5798 3041.0671,-16.4344 3041.9937,-23.3728"/>
</g>
<!-- Node31 -->
<g id="node32" class="node">
<title>Node31</title>
<polygon fill="#ffffff" stroke="#bfbfbf" points="3135,-.5 3135,-19.5 3251,-19.5 3251,-.5 3135,-.5"/>
<text text-anchor="middle" x="3193" y="-7.5" font-family="Helvetica,sans-Serif" font-size="10.00" fill="#000000">Amesos_BaseSolver.h</text>
</g>
<!-- Node2&#45;&gt;Node31 -->
<g id="edge31" class="edge">
<title>Node2&#45;&gt;Node31</title>
<path fill="none" stroke="#191970" d="M1722.1324,-65.4318C1912.2477,-62.2739 2820.2438,-46.1084 3124.8028,-19.9807"/>
<polygon fill="#191970" stroke="#191970" points="3125.291,-23.4514 3134.9449,-19.0866 3124.6762,-16.4784 3125.291,-23.4514"/>
</g>
<!-- Node32 -->
<g id="node33" class="node">
<title>Node32</title>
<polygon fill="#ffffff" stroke="#bfbfbf" points="3269.5,-.5 3269.5,-19.5 3318.5,-19.5 3318.5,-.5 3269.5,-.5"/>
<text text-anchor="middle" x="3294" y="-7.5" font-family="Helvetica,sans-Serif" font-size="10.00" fill="#000000">metis.h</text>
</g>
<!-- Node2&#45;&gt;Node32 -->
<g id="edge32" class="edge">
<title>Node2&#45;&gt;Node32</title>
<path fill="none" stroke="#191970" d="M1722.1086,-65.5139C1936.0873,-62.4806 3061.8549,-45.4932 3259.3401,-19.5097"/>
<polygon fill="#191970" stroke="#191970" points="3259.8926,-22.9663 3269.2864,-18.0664 3258.8874,-16.0388 3259.8926,-22.9663"/>
</g>
<!-- Node33 -->
<g id="node34" class="node">
<title>Node33</title>
<g id="a_node34"><a xlink:href="../../d4/dbc/fepp_8hpp.html" target="_top" xlink:title="fepp.hpp">
<polygon fill="#ffffff" stroke="#000000" points="3337,-.5 3337,-19.5 3391,-19.5 3391,-.5 3337,-.5"/>
<text text-anchor="middle" x="3364" y="-7.5" font-family="Helvetica,sans-Serif" font-size="10.00" fill="#000000">fepp.hpp</text>
</a>
</g>
</g>
<!-- Node2&#45;&gt;Node33 -->
<g id="edge33" class="edge">
<title>Node2&#45;&gt;Node33</title>
<path fill="none" stroke="#191970" d="M1722.0259,-65.4968C1944.5405,-62.3378 3155.8032,-44.5789 3319,-20 3321.6158,-19.606 3324.3118,-19.0838 3327.0324,-18.4842"/>
<polygon fill="#191970" stroke="#191970" points="3328.0153,-21.8469 3336.8929,-16.0644 3326.3469,-15.0487 3328.0153,-21.8469"/>
</g>
<!-- Node33&#45;&gt;Node2 -->
<g id="edge34" class="edge">
<title>Node33&#45;&gt;Node2</title>
<path fill="none" stroke="#191970" d="M3339.7172,-19.551C3338.8055,-19.7144 3337.898,-19.8648 3337,-20 3175.0722,-44.3878 1981.3144,-62.0612 1732.3712,-65.4205"/>
<polygon fill="#191970" stroke="#191970" points="1732.1869,-61.9225 1722.2347,-65.5563 1732.2807,-68.9219 1732.1869,-61.9225"/>
</g>
<!-- Node34&#45;&gt;Node2 -->
<g id="edge36" class="edge">
<title>Node34&#45;&gt;Node2</title>
<path fill="none" stroke="#191970" d="M1948.7598,-300.6821C1857.8765,-292.0198 1703.7889,-274.6307 1687,-255 1645.6553,-206.6572 1666.9295,-123.1464 1679.6927,-85.4547"/>
<polygon fill="#191970" stroke="#191970" points="1683.105,-86.3048 1683.1551,-75.7101 1676.509,-83.961 1683.105,-86.3048"/>
</g>
<!-- Node35 -->
<g id="node36" class="node">
<title>Node35</title>
<polygon fill="#ffffff" stroke="#bfbfbf" points="1696,-224.5 1696,-254.5 1818,-254.5 1818,-224.5 1696,-224.5"/>
<text text-anchor="start" x="1704" y="-242.5" font-family="Helvetica,sans-Serif" font-size="10.00" fill="#000000">boost/random/mersenne</text>
<text text-anchor="middle" x="1757" y="-231.5" font-family="Helvetica,sans-Serif" font-size="10.00" fill="#000000">_twister.hpp</text>
</g>
<!-- Node34&#45;&gt;Node35 -->
<g id="edge37" class="edge">
<title>Node34&#45;&gt;Node35</title>
<path fill="none" stroke="#191970" d="M1957.0998,-291.4639C1917.9831,-281.3057 1866.1821,-267.8535 1825.0866,-257.1814"/>
<polygon fill="#191970" stroke="#191970" points="1825.7115,-253.7277 1815.1528,-254.6017 1823.952,-260.5029 1825.7115,-253.7277"/>
</g>
<!-- Node36 -->
<g id="node37" class="node">
<title>Node36</title>
<polygon fill="#ffffff" stroke="#bfbfbf" points="1836.5,-224.5 1836.5,-254.5 1947.5,-254.5 1947.5,-224.5 1836.5,-224.5"/>
<text text-anchor="start" x="1844.5" y="-242.5" font-family="Helvetica,sans-Serif" font-size="10.00" fill="#000000">boost/random/uniform</text>
<text text-anchor="middle" x="1892" y="-231.5" font-family="Helvetica,sans-Serif" font-size="10.00" fill="#000000">_real_distribution.hpp</text>
</g>
<!-- Node34&#45;&gt;Node36 -->
<g id="edge38" class="edge">
<title>Node34&#45;&gt;Node36</title>
<path fill="none" stroke="#191970" d="M1987.3964,-291.4639C1970.1097,-282.0475 1947.6268,-269.8008 1928.8297,-259.5617"/>
<polygon fill="#191970" stroke="#191970" points="1930.393,-256.4277 1919.937,-254.7177 1927.0445,-262.5749 1930.393,-256.4277"/>
</g>
<!-- Node37 -->
<g id="node38" class="node">
<title>Node37</title>
<polygon fill="#ffffff" stroke="#bfbfbf" points="1965.5,-224.5 1965.5,-254.5 2064.5,-254.5 2064.5,-224.5 1965.5,-224.5"/>
<text text-anchor="start" x="1973.5" y="-242.5" font-family="Helvetica,sans-Serif" font-size="10.00" fill="#000000">boost/math/special</text>
<text text-anchor="middle" x="2015" y="-231.5" font-family="Helvetica,sans-Serif" font-size="10.00" fill="#000000">_functions/erf.hpp</text>
</g>
<!-- Node34&#45;&gt;Node37 -->
<g id="edge39" class="edge">
<title>Node34&#45;&gt;Node37</title>
<path fill="none" stroke="#191970" d="M2015,-291.2967C2015,-283.5013 2015,-273.7991 2015,-264.9064"/>
<polygon fill="#191970" stroke="#191970" points="2018.5001,-264.6431 2015,-254.6432 2011.5001,-264.6432 2018.5001,-264.6431"/>
</g>
<!-- Node38 -->
<g id="node39" class="node">
<title>Node38</title>
<polygon fill="#ffffff" stroke="#bfbfbf" points="2083,-224.5 2083,-254.5 2191,-254.5 2191,-224.5 2083,-224.5"/>
<text text-anchor="start" x="2091" y="-242.5" font-family="Helvetica,sans-Serif" font-size="10.00" fill="#000000">boost/random/normal</text>
<text text-anchor="middle" x="2137" y="-231.5" font-family="Helvetica,sans-Serif" font-size="10.00" fill="#000000">_distribution.hpp</text>
</g>
<!-- Node34&#45;&gt;Node38 -->
<g id="edge40" class="edge">
<title>Node34&#45;&gt;Node38</title>
<path fill="none" stroke="#191970" d="M2042.3792,-291.4639C2059.5254,-282.0475 2081.8254,-269.8008 2100.4697,-259.5617"/>
<polygon fill="#191970" stroke="#191970" points="2102.2097,-262.5993 2109.2901,-254.7177 2098.8401,-256.4636 2102.2097,-262.5993"/>
</g>
<!-- Node39 -->
<g id="node40" class="node">
<title>Node39</title>
<polygon fill="#ffffff" stroke="#bfbfbf" points="2209,-224.5 2209,-254.5 2325,-254.5 2325,-224.5 2209,-224.5"/>
<text text-anchor="start" x="2217" y="-242.5" font-family="Helvetica,sans-Serif" font-size="10.00" fill="#000000">boost/math/special</text>
<text text-anchor="middle" x="2267" y="-231.5" font-family="Helvetica,sans-Serif" font-size="10.00" fill="#000000">_functions/gamma.hpp</text>
</g>
<!-- Node34&#45;&gt;Node39 -->
<g id="edge41" class="edge">
<title>Node34&#45;&gt;Node39</title>
<path fill="none" stroke="#191970" d="M2071.5537,-291.4639C2109.7607,-281.3057 2160.357,-267.8535 2200.4968,-257.1814"/>
<polygon fill="#191970" stroke="#191970" points="2201.4347,-260.5537 2210.1996,-254.6017 2199.636,-253.7887 2201.4347,-260.5537"/>
</g>
<!-- Node40 -->
<g id="node41" class="node">
<title>Node40</title>
<polygon fill="#ffffff" stroke="#bfbfbf" points="2343,-224.5 2343,-254.5 2445,-254.5 2445,-224.5 2343,-224.5"/>
<text text-anchor="start" x="2351" y="-242.5" font-family="Helvetica,sans-Serif" font-size="10.00" fill="#000000">boost/math/special</text>
<text text-anchor="middle" x="2394" y="-231.5" font-family="Helvetica,sans-Serif" font-size="10.00" fill="#000000">_functions/beta.hpp</text>
</g>
<!-- Node34&#45;&gt;Node40 -->
<g id="edge42" class="edge">
<title>Node34&#45;&gt;Node40</title>
<path fill="none" stroke="#191970" d="M2081.005,-297.6674C2143.5319,-288.8865 2240.2218,-274.2406 2332.8675,-255.1349"/>
<polygon fill="#191970" stroke="#191970" points="2333.6104,-258.5554 2342.6866,-253.0898 2332.183,-251.7024 2333.6104,-258.5554"/>
</g>
<!-- Node42 -->
<g id="node43" class="node">
<title>Node42</title>
<g id="a_node43"><a xlink:href="../../d2/d34/hyperelasticity_8hpp.html" target="_top" xlink:title="hyperelasticity.hpp">
<polygon fill="#ffffff" stroke="#000000" points="2463,-230 2463,-249 2561,-249 2561,-230 2463,-230"/>
<text text-anchor="middle" x="2512" y="-237" font-family="Helvetica,sans-Serif" font-size="10.00" fill="#000000">hyperelasticity.hpp</text>
</a>
</g>
</g>
<!-- Node41&#45;&gt;Node42 -->
<g id="edge44" class="edge">
<title>Node41&#45;&gt;Node42</title>
<path fill="none" stroke="#191970" d="M2368.927,-296.9005C2397.6975,-285.3579 2446.1564,-265.9163 2478.6017,-252.8993"/>
<polygon fill="#191970" stroke="#191970" points="2480.1397,-256.0535 2488.1174,-249.0817 2477.5332,-249.5569 2480.1397,-256.0535"/>
</g>
<!-- Node43 -->
<g id="node44" class="node">
<title>Node43</title>
<g id="a_node44"><a xlink:href="../../d4/d16/_non_linear_finite_element_problem_8hpp.html" target="_top" xlink:title="NonLinearFiniteElementProblem.hpp">
<polygon fill="#ffffff" stroke="#000000" points="1698,-168.5 1698,-187.5 1874,-187.5 1874,-168.5 1698,-168.5"/>
<text text-anchor="middle" x="1786" y="-175.5" font-family="Helvetica,sans-Serif" font-size="10.00" fill="#000000">NonLinearFiniteElementProblem.hpp</text>
</a>
</g>
</g>
<!-- Node42&#45;&gt;Node43 -->
<g id="edge45" class="edge">
<title>Node42&#45;&gt;Node43</title>
<path fill="none" stroke="#191970" d="M2480.6342,-229.9388C2472.0691,-227.6522 2462.7391,-225.4547 2454,-224 2347.3347,-206.2446 2042.9156,-190.002 1884.4983,-182.4505"/>
<polygon fill="#191970" stroke="#191970" points="1884.433,-178.9435 1874.2784,-181.9657 1884.1013,-185.9357 1884.433,-178.9435"/>
</g>
<!-- Node43&#45;&gt;Node2 -->
<g id="edge46" class="edge">
<title>Node43&#45;&gt;Node2</title>
<path fill="none" stroke="#191970" d="M1769.7958,-168.3722C1756.6019,-159.9648 1738.0841,-146.8119 1725,-132 1712.4621,-117.8065 1702.0584,-98.8344 1695.3257,-84.8744"/>
<polygon fill="#191970" stroke="#191970" points="1698.4719,-83.339 1691.0941,-75.7351 1692.1197,-86.2802 1698.4719,-83.339"/>
</g>
<!-- Node44 -->
<g id="node45" class="node">
<title>Node44</title>
<g id="a_node45"><a xlink:href="../../d0/d41/_base_class_f_e_m_8hpp.html" target="_top" xlink:title="BaseClassFEM.hpp">
<polygon fill="#ffffff" stroke="#000000" points="1734,-112.5 1734,-131.5 1838,-131.5 1838,-112.5 1734,-112.5"/>
<text text-anchor="middle" x="1786" y="-119.5" font-family="Helvetica,sans-Serif" font-size="10.00" fill="#000000">BaseClassFEM.hpp</text>
</a>
</g>
</g>
<!-- Node43&#45;&gt;Node44 -->
<g id="edge47" class="edge">
<title>Node43&#45;&gt;Node44</title>
<path fill="none" stroke="#191970" d="M1786,-168.2455C1786,-160.9382 1786,-150.6944 1786,-141.7046"/>
<polygon fill="#191970" stroke="#191970" points="1789.5001,-141.6426 1786,-131.6427 1782.5001,-141.6427 1789.5001,-141.6426"/>
</g>
<!-- Node44&#45;&gt;Node2 -->
<g id="edge48" class="edge">
<title>Node44&#45;&gt;Node2</title>
<path fill="none" stroke="#191970" d="M1768.7555,-112.2455C1753.4239,-103.5731 1730.7801,-90.7645 1713.2084,-80.825"/>
<polygon fill="#191970" stroke="#191970" points="1714.4741,-77.5198 1704.0469,-75.6427 1711.0276,-83.6126 1714.4741,-77.5198"/>
</g>
</g>
</svg>
