<?xml version="1.0" encoding="UTF-8" standalone="no"?>
<!DOCTYPE svg PUBLIC "-//W3C//DTD SVG 1.1//EN"
 "http://www.w3.org/Graphics/SVG/1.1/DTD/svg11.dtd">
<!-- Generated by graphviz version 2.40.1 (20161225.0304)
 -->
<!-- Title: Linear_Finite_Element_Problem Pages: 1 -->
<svg width="412pt" height="202pt"
 viewBox="0.00 0.00 412.37 202.00" xmlns="http://www.w3.org/2000/svg" xmlns:xlink="http://www.w3.org/1999/xlink">
<g id="graph0" class="graph" transform="scale(1 1) rotate(0) translate(4 198)">
<title>Linear_Finite_Element_Problem</title>
<polygon fill="#ffffff" stroke="transparent" points="-4,4 -4,-198 408.3667,-198 408.3667,4 -4,4"/>
<!-- Node0 -->
<g id="node1" class="node">
<title>Node0</title>
<polygon fill="#bfbfbf" stroke="#000000" points="67.5913,-110.5 67.5913,-138.5 183.6499,-138.5 183.6499,-110.5 67.5913,-110.5"/>
<text text-anchor="start" x="75.5913" y="-126.5" font-family="Helvetica,sans-Serif" font-size="10.00" fill="#000000">Linear_Finite_Element</text>
<text text-anchor="middle" x="125.6206" y="-116.5" font-family="Helvetica,sans-Serif" font-size="10.00" fill="#000000">_Problem</text>
</g>
<!-- Node2 -->
<g id="node3" class="node">
<title>Node2</title>
<g id="a_node3"><a xlink:href="../../d7/d76/classlaplace.html" target="_top" xlink:title="laplace">
<polygon fill="#ffffff" stroke="#000000" points="55.7759,-55.5 55.7759,-73.5 103.4653,-73.5 103.4653,-55.5 55.7759,-55.5"/>
<text text-anchor="middle" x="79.6206" y="-61.5" font-family="Helvetica,sans-Serif" font-size="10.00" fill="#000000">laplace</text>
</a>
</g>
</g>
<!-- Node0&#45;&gt;Node2 -->
<g id="edge2" class="edge">
<title>Node0&#45;&gt;Node2</title>
<path fill="none" stroke="#191970" d="M108.6163,-102.3205C100.99,-92.3731 92.4181,-81.1924 86.5852,-73.5842"/>
<polygon fill="#191970" stroke="#191970" points="105.8573,-104.4743 114.7192,-110.2808 111.4125,-100.2152 105.8573,-104.4743"/>
</g>
<!-- Node3 -->
<g id="node4" class="node">
<title>Node3</title>
<g id="a_node4"><a xlink:href="../../d9/df7/class_linearized_elasticity.html" target="_top" xlink:title="LinearizedElasticity">
<polygon fill="#ffffff" stroke="#000000" points="121.8228,-55.5 121.8228,-73.5 223.4185,-73.5 223.4185,-55.5 121.8228,-55.5"/>
<text text-anchor="middle" x="172.6206" y="-61.5" font-family="Helvetica,sans-Serif" font-size="10.00" fill="#000000">LinearizedElasticity</text>
</a>
</g>
</g>
<!-- Node0&#45;&gt;Node3 -->
<g id="edge3" class="edge">
<title>Node0&#45;&gt;Node3</title>
<path fill="none" stroke="#191970" d="M142.9945,-102.3205C150.7867,-92.3731 159.5449,-81.1924 165.5047,-73.5842"/>
<polygon fill="#191970" stroke="#191970" points="140.1703,-100.2502 136.7589,-110.2808 145.6809,-104.5669 140.1703,-100.2502"/>
</g>
<!-- Node1 -->
<g id="node2" class="node">
<title>Node1</title>
<g id="a_node2"><a xlink:href="../../d2/d97/class_base_class_f_e_m.html" target="_top" xlink:title="BaseClassFEM">
<polygon fill="#ffffff" stroke="#000000" points="83.1675,-175.5 83.1675,-193.5 168.0737,-193.5 168.0737,-175.5 83.1675,-175.5"/>
<text text-anchor="middle" x="125.6206" y="-181.5" font-family="Helvetica,sans-Serif" font-size="10.00" fill="#000000">BaseClassFEM</text>
</a>
</g>
</g>
<!-- Node1&#45;&gt;Node0 -->
<g id="edge1" class="edge">
<title>Node1&#45;&gt;Node0</title>
<path fill="none" stroke="#191970" d="M125.6206,-165.1865C125.6206,-156.6283 125.6206,-146.7354 125.6206,-138.8477"/>
<polygon fill="#191970" stroke="#191970" points="122.1207,-165.3873 125.6206,-175.3873 129.1207,-165.3873 122.1207,-165.3873"/>
</g>
<!-- Node4 -->
<g id="node5" class="node">
<title>Node4</title>
<g id="a_node5"><a xlink:href="../../de/dcc/class_c_e_e_s_b_v_p.html" target="_top" xlink:title="CEESBVP">
<polygon fill="#ffffff" stroke="#000000" points="0,-.5 0,-18.5 63.2412,-18.5 63.2412,-.5 0,-.5"/>
<text text-anchor="middle" x="31.6206" y="-6.5" font-family="Helvetica,sans-Serif" font-size="10.00" fill="#000000">CEESBVP</text>
</a>
</g>
</g>
<!-- Node3&#45;&gt;Node4 -->
<g id="edge4" class="edge">
<title>Node3&#45;&gt;Node4</title>
<path fill="none" stroke="#191970" d="M139.8891,-51.7324C113.8714,-41.5837 78.1166,-27.6367 54.9385,-18.5956"/>
<polygon fill="#191970" stroke="#191970" points="138.7491,-55.0445 149.3373,-55.4179 141.2929,-48.5231 138.7491,-55.0445"/>
</g>
<!-- Node5 -->
<g id="node6" class="node">
<title>Node5</title>
<g id="a_node6"><a xlink:href="../../d2/d69/classlinear_patch_test.html" target="_top" xlink:title="linearPatchTest">
<polygon fill="#ffffff" stroke="#000000" points="81.436,-.5 81.436,-18.5 165.8052,-18.5 165.8052,-.5 81.436,-.5"/>
<text text-anchor="middle" x="123.6206" y="-6.5" font-family="Helvetica,sans-Serif" font-size="10.00" fill="#000000">linearPatchTest</text>
</a>
</g>
</g>
<!-- Node3&#45;&gt;Node5 -->
<g id="edge5" class="edge">
<title>Node3&#45;&gt;Node5</title>
<path fill="none" stroke="#191970" d="M157.6759,-47.7253C149.2031,-38.215 138.9223,-26.6754 131.8878,-18.7795"/>
<polygon fill="#191970" stroke="#191970" points="155.2638,-50.2795 164.5293,-55.4179 160.4905,-45.623 155.2638,-50.2795"/>
</g>
<!-- Node6 -->
<g id="node7" class="node">
<title>Node6</title>
<g id="a_node7"><a xlink:href="../../d7/da3/classmanufactured.html" target="_top" xlink:title="manufactured">
<polygon fill="#ffffff" stroke="#000000" points="184.0469,-.5 184.0469,-18.5 261.1943,-18.5 261.1943,-.5 184.0469,-.5"/>
<text text-anchor="middle" x="222.6206" y="-6.5" font-family="Helvetica,sans-Serif" font-size="10.00" fill="#000000">manufactured</text>
</a>
</g>
</g>
<!-- Node3&#45;&gt;Node6 -->
<g id="edge6" class="edge">
<title>Node3&#45;&gt;Node6</title>
<path fill="none" stroke="#191970" d="M187.6089,-48.0129C196.3038,-38.4485 206.9341,-26.7552 214.1847,-18.7795"/>
<polygon fill="#191970" stroke="#191970" points="185.014,-45.6641 180.8771,-55.4179 190.1936,-50.3728 185.014,-45.6641"/>
</g>
<!-- Node7 -->
<g id="node8" class="node">
<title>Node7</title>
<g id="a_node8"><a xlink:href="../../d0/daf/class_orthotropic_r_f___laminate.html" target="_top" xlink:title="OrthotropicRF_Laminate">
<polygon fill="#ffffff" stroke="#000000" points="278.8745,-.5 278.8745,-18.5 404.3667,-18.5 404.3667,-.5 278.8745,-.5"/>
<text text-anchor="middle" x="341.6206" y="-6.5" font-family="Helvetica,sans-Serif" font-size="10.00" fill="#000000">OrthotropicRF_Laminate</text>
</a>
</g>
</g>
<!-- Node3&#45;&gt;Node7 -->
<g id="edge7" class="edge">
<title>Node3&#45;&gt;Node7</title>
<path fill="none" stroke="#191970" d="M210.245,-52.2554C241.6536,-42.0336 285.7023,-27.6983 313.9531,-18.5042"/>
<polygon fill="#191970" stroke="#191970" points="208.9535,-48.9949 200.5275,-55.4179 211.1198,-55.6513 208.9535,-48.9949"/>
</g>
</g>
</svg>
