<?xml version="1.0" encoding="UTF-8" standalone="no"?>
<!DOCTYPE svg PUBLIC "-//W3C//DTD SVG 1.1//EN"
 "http://www.w3.org/Graphics/SVG/1.1/DTD/svg11.dtd">
<!-- Generated by graphviz version 2.40.1 (20161225.0304)
 -->
<!-- Title: Linear_Finite_Element_Problem Pages: 1 -->
<svg width="188pt" height="147pt"
 viewBox="0.00 0.00 187.59 147.00" xmlns="http://www.w3.org/2000/svg" xmlns:xlink="http://www.w3.org/1999/xlink">
<g id="graph0" class="graph" transform="scale(1 1) rotate(0) translate(4 143)">
<title>Linear_Finite_Element_Problem</title>
<polygon fill="#ffffff" stroke="transparent" points="-4,4 -4,-143 183.5908,-143 183.5908,4 -4,4"/>
<!-- Node0 -->
<g id="node1" class="node">
<title>Node0</title>
<polygon fill="#bfbfbf" stroke="#000000" points="11.8154,-110.5 11.8154,-138.5 127.874,-138.5 127.874,-110.5 11.8154,-110.5"/>
<text text-anchor="start" x="19.8154" y="-126.5" font-family="Helvetica,sans-Serif" font-size="10.00" fill="#000000">Linear_Finite_Element</text>
<text text-anchor="middle" x="69.8447" y="-116.5" font-family="Helvetica,sans-Serif" font-size="10.00" fill="#000000">_Problem</text>
</g>
<!-- Node1 -->
<g id="node2" class="node">
<title>Node1</title>
<g id="a_node2"><a xlink:href="../../d7/d76/classlaplace.html" target="_top" xlink:title="laplace">
<polygon fill="#ffffff" stroke="#000000" points="0,-55.5 0,-73.5 47.6895,-73.5 47.6895,-55.5 0,-55.5"/>
<text text-anchor="middle" x="23.8447" y="-61.5" font-family="Helvetica,sans-Serif" font-size="10.00" fill="#000000">laplace</text>
</a>
</g>
</g>
<!-- Node0&#45;&gt;Node1 -->
<g id="edge1" class="edge">
<title>Node0&#45;&gt;Node1</title>
<path fill="none" stroke="#191970" d="M52.8405,-102.3205C45.2141,-92.3731 36.6422,-81.1924 30.8093,-73.5842"/>
<polygon fill="#191970" stroke="#191970" points="50.0814,-104.4743 58.9434,-110.2808 55.6366,-100.2152 50.0814,-104.4743"/>
</g>
<!-- Node2 -->
<g id="node3" class="node">
<title>Node2</title>
<g id="a_node3"><a xlink:href="../../d9/df7/class_linearized_elasticity.html" target="_top" xlink:title="LinearizedElasticity">
<polygon fill="#ffffff" stroke="#000000" points="66.0469,-55.5 66.0469,-73.5 167.6426,-73.5 167.6426,-55.5 66.0469,-55.5"/>
<text text-anchor="middle" x="116.8447" y="-61.5" font-family="Helvetica,sans-Serif" font-size="10.00" fill="#000000">LinearizedElasticity</text>
</a>
</g>
</g>
<!-- Node0&#45;&gt;Node2 -->
<g id="edge2" class="edge">
<title>Node0&#45;&gt;Node2</title>
<path fill="none" stroke="#191970" d="M87.2186,-102.3205C95.0108,-92.3731 103.769,-81.1924 109.7288,-73.5842"/>
<polygon fill="#191970" stroke="#191970" points="84.3944,-100.2502 80.9831,-110.2808 89.905,-104.5669 84.3944,-100.2502"/>
</g>
<!-- Node3 -->
<g id="node4" class="node">
<title>Node3</title>
<g id="a_node4"><a xlink:href="../../d0/daf/class_orthotropic_r_f___laminate.html" target="_top" xlink:title="OrthotropicRF_Laminate">
<polygon fill="#ffffff" stroke="#000000" points="54.0986,-.5 54.0986,-18.5 179.5908,-18.5 179.5908,-.5 54.0986,-.5"/>
<text text-anchor="middle" x="116.8447" y="-6.5" font-family="Helvetica,sans-Serif" font-size="10.00" fill="#000000">OrthotropicRF_Laminate</text>
</a>
</g>
</g>
<!-- Node2&#45;&gt;Node3 -->
<g id="edge3" class="edge">
<title>Node2&#45;&gt;Node3</title>
<path fill="none" stroke="#191970" d="M116.8447,-45.383C116.8447,-36.3738 116.8447,-26.0373 116.8447,-18.7795"/>
<polygon fill="#191970" stroke="#191970" points="113.3448,-45.4178 116.8447,-55.4179 120.3448,-45.4179 113.3448,-45.4178"/>
</g>
</g>
</svg>
