<?xml version="1.0" encoding="UTF-8" standalone="no"?>
<!DOCTYPE svg PUBLIC "-//W3C//DTD SVG 1.1//EN"
 "http://www.w3.org/Graphics/SVG/1.1/DTD/svg11.dtd">
<!-- Generated by graphviz version 2.40.1 (20161225.0304)
 -->
<!-- Title: arteries/boost_gmrf/gmrf_gauss/main.cpp Pages: 1 -->
<svg width="3270pt" height="287pt"
 viewBox="0.00 0.00 3270.04 287.00" xmlns="http://www.w3.org/2000/svg" xmlns:xlink="http://www.w3.org/1999/xlink">
<g id="graph0" class="graph" transform="scale(1 1) rotate(0) translate(4 283)">
<title>arteries/boost_gmrf/gmrf_gauss/main.cpp</title>
<polygon fill="#ffffff" stroke="transparent" points="-4,4 -4,-283 3266.0391,-283 3266.0391,4 -4,4"/>
<!-- Node0 -->
<g id="node1" class="node">
<title>Node0</title>
<polygon fill="#bfbfbf" stroke="#000000" points="1044.542,-250.5 1044.542,-278.5 1158.9209,-278.5 1158.9209,-250.5 1044.542,-250.5"/>
<text text-anchor="start" x="1052.542" y="-266.5" font-family="Helvetica,sans-Serif" font-size="10.00" fill="#000000">arteries/boost_gmrf</text>
<text text-anchor="middle" x="1101.7314" y="-256.5" font-family="Helvetica,sans-Serif" font-size="10.00" fill="#000000">/gmrf_gauss/main.cpp</text>
</g>
<!-- Node1 -->
<g id="node2" class="node">
<title>Node1</title>
<polygon fill="#ffffff" stroke="#bfbfbf" points="370.3154,-190.5 370.3154,-208.5 479.1475,-208.5 479.1475,-190.5 370.3154,-190.5"/>
<text text-anchor="middle" x="424.7314" y="-196.5" font-family="Helvetica,sans-Serif" font-size="10.00" fill="#000000">Epetra_ConfigDefs.h</text>
</g>
<!-- Node0&#45;&gt;Node1 -->
<g id="edge1" class="edge">
<title>Node0&#45;&gt;Node1</title>
<path fill="none" stroke="#191970" d="M1044.3718,-262.4665C935.5012,-258.0122 691.6414,-245.1856 488.7314,-214 482.8162,-213.0909 476.6337,-211.9443 470.5427,-210.696"/>
<polygon fill="#191970" stroke="#191970" points="470.9542,-207.2045 460.4417,-208.5231 469.482,-214.048 470.9542,-207.2045"/>
</g>
<!-- Node2 -->
<g id="node3" class="node">
<title>Node2</title>
<polygon fill="#ffffff" stroke="#bfbfbf" points="497.5444,-190.5 497.5444,-208.5 611.9185,-208.5 611.9185,-190.5 497.5444,-190.5"/>
<text text-anchor="middle" x="554.7314" y="-196.5" font-family="Helvetica,sans-Serif" font-size="10.00" fill="#000000">Epetra_SerialComm.h</text>
</g>
<!-- Node0&#45;&gt;Node2 -->
<g id="edge2" class="edge">
<title>Node0&#45;&gt;Node2</title>
<path fill="none" stroke="#191970" d="M1044.4448,-260.5655C954.0179,-253.8879 772.8303,-238.6133 620.7314,-214 614.7962,-213.0395 608.5922,-211.8825 602.465,-210.6461"/>
<polygon fill="#191970" stroke="#191970" points="602.7923,-207.1386 592.2867,-208.5111 601.3551,-213.9895 602.7923,-207.1386"/>
</g>
<!-- Node3 -->
<g id="node4" class="node">
<title>Node3</title>
<polygon fill="#ffffff" stroke="#bfbfbf" points="629.8452,-190.5 629.8452,-208.5 817.6177,-208.5 817.6177,-190.5 629.8452,-190.5"/>
<text text-anchor="middle" x="723.7314" y="-196.5" font-family="Helvetica,sans-Serif" font-size="10.00" fill="#000000">Teuchos_CommandLineProcessor.hpp</text>
</g>
<!-- Node0&#45;&gt;Node3 -->
<g id="edge3" class="edge">
<title>Node0&#45;&gt;Node3</title>
<path fill="none" stroke="#191970" d="M1044.3214,-254.6279C974.8331,-242.6789 858.232,-222.6284 786.4439,-210.2839"/>
<polygon fill="#191970" stroke="#191970" points="786.6368,-206.7658 776.1883,-208.5204 785.4505,-213.6645 786.6368,-206.7658"/>
</g>
<!-- Node4 -->
<g id="node5" class="node">
<title>Node4</title>
<polygon fill="#ffffff" stroke="#bfbfbf" points="835.8501,-190.5 835.8501,-208.5 1013.6128,-208.5 1013.6128,-190.5 835.8501,-190.5"/>
<text text-anchor="middle" x="924.7314" y="-196.5" font-family="Helvetica,sans-Serif" font-size="10.00" fill="#000000">Teuchos_StandardCatchMacros.hpp</text>
</g>
<!-- Node0&#45;&gt;Node4 -->
<g id="edge4" class="edge">
<title>Node0&#45;&gt;Node4</title>
<path fill="none" stroke="#191970" d="M1063.3251,-250.396C1032.2668,-238.9904 988.9355,-223.0778 959.0311,-212.0959"/>
<polygon fill="#191970" stroke="#191970" points="960.0351,-208.7361 949.4415,-208.5743 957.622,-215.3071 960.0351,-208.7361"/>
</g>
<!-- Node5 -->
<g id="node6" class="node">
<title>Node5</title>
<polygon fill="#ffffff" stroke="#bfbfbf" points="1031.4731,-190.5 1031.4731,-208.5 1171.9897,-208.5 1171.9897,-190.5 1031.4731,-190.5"/>
<text text-anchor="middle" x="1101.7314" y="-196.5" font-family="Helvetica,sans-Serif" font-size="10.00" fill="#000000">Teuchos_ParameterList.hpp</text>
</g>
<!-- Node0&#45;&gt;Node5 -->
<g id="edge5" class="edge">
<title>Node0&#45;&gt;Node5</title>
<path fill="none" stroke="#191970" d="M1101.7314,-250.396C1101.7314,-241.1723 1101.7314,-229.0011 1101.7314,-218.8738"/>
<polygon fill="#191970" stroke="#191970" points="1105.2315,-218.5743 1101.7314,-208.5743 1098.2315,-218.5743 1105.2315,-218.5743"/>
</g>
<!-- Node6 -->
<g id="node7" class="node">
<title>Node6</title>
<polygon fill="#ffffff" stroke="#bfbfbf" points="1189.9238,-185.5 1189.9238,-213.5 1331.5391,-213.5 1331.5391,-185.5 1189.9238,-185.5"/>
<text text-anchor="start" x="1197.9238" y="-201.5" font-family="Helvetica,sans-Serif" font-size="10.00" fill="#000000">Teuchos_XMLParameterList</text>
<text text-anchor="middle" x="1260.7314" y="-191.5" font-family="Helvetica,sans-Serif" font-size="10.00" fill="#000000">CoreHelpers.hpp</text>
</g>
<!-- Node0&#45;&gt;Node6 -->
<g id="edge6" class="edge">
<title>Node0&#45;&gt;Node6</title>
<path fill="none" stroke="#191970" d="M1136.2321,-250.396C1159.8805,-240.7284 1191.45,-227.8226 1216.8812,-217.4262"/>
<polygon fill="#191970" stroke="#191970" points="1218.3662,-220.6004 1226.2981,-213.5765 1215.7173,-214.1209 1218.3662,-220.6004"/>
</g>
<!-- Node7 -->
<g id="node8" class="node">
<title>Node7</title>
<g id="a_node8"><a xlink:href="../../da/d42/_neumann_inner_surface___stochastic_polyconvex_h_g_o_8hpp.html" target="_top" xlink:title="NeumannInnerSurface\l_StochasticPolyconvexHGO.hpp">
<polygon fill="#ffffff" stroke="#000000" points="1349.1948,-185.5 1349.1948,-213.5 1510.2681,-213.5 1510.2681,-185.5 1349.1948,-185.5"/>
<text text-anchor="start" x="1357.1948" y="-201.5" font-family="Helvetica,sans-Serif" font-size="10.00" fill="#000000">NeumannInnerSurface</text>
<text text-anchor="middle" x="1429.7314" y="-191.5" font-family="Helvetica,sans-Serif" font-size="10.00" fill="#000000">_StochasticPolyconvexHGO.hpp</text>
</a>
</g>
</g>
<!-- Node0&#45;&gt;Node7 -->
<g id="edge7" class="edge">
<title>Node0&#45;&gt;Node7</title>
<path fill="none" stroke="#191970" d="M1159.24,-253.1035C1211.7785,-242.6919 1290.0057,-227.1896 1348.8384,-215.5306"/>
<polygon fill="#191970" stroke="#191970" points="1349.7167,-218.9247 1358.8455,-213.5475 1348.3559,-212.0583 1349.7167,-218.9247"/>
</g>
<!-- Node51 -->
<g id="node48" class="node">
<title>Node51</title>
<polygon fill="#ffffff" stroke="#bfbfbf" points="1786.1455,-120.5 1786.1455,-148.5 1903.3174,-148.5 1903.3174,-120.5 1786.1455,-120.5"/>
<text text-anchor="start" x="1794.1455" y="-136.5" font-family="Helvetica,sans-Serif" font-size="10.00" fill="#000000">boost/math/special</text>
<text text-anchor="middle" x="1844.7314" y="-126.5" font-family="Helvetica,sans-Serif" font-size="10.00" fill="#000000">_functions/gamma.hpp</text>
</g>
<!-- Node0&#45;&gt;Node51 -->
<g id="edge49" class="edge">
<title>Node0&#45;&gt;Node51</title>
<path fill="none" stroke="#191970" d="M1159.1865,-260.8659C1276.6377,-253.1304 1540.5738,-234.0937 1628.7314,-214 1692.2988,-199.5111 1762.5785,-171.1975 1805.1928,-152.5669"/>
<polygon fill="#191970" stroke="#191970" points="1806.6363,-155.7556 1814.372,-148.5161 1803.8101,-149.3515 1806.6363,-155.7556"/>
</g>
<!-- Node53 -->
<g id="node50" class="node">
<title>Node53</title>
<g id="a_node50"><a xlink:href="../../d7/de5/shinozukapp_8hpp.html" target="_top" xlink:title="shinozukapp.hpp">
<polygon fill="#ffffff" stroke="#000000" points="1527.9238,-190.5 1527.9238,-208.5 1619.5391,-208.5 1619.5391,-190.5 1527.9238,-190.5"/>
<text text-anchor="middle" x="1573.7314" y="-196.5" font-family="Helvetica,sans-Serif" font-size="10.00" fill="#000000">shinozukapp.hpp</text>
</a>
</g>
</g>
<!-- Node0&#45;&gt;Node53 -->
<g id="edge50" class="edge">
<title>Node0&#45;&gt;Node53</title>
<path fill="none" stroke="#191970" d="M1158.9232,-260.1816C1239.8039,-253.4886 1391.9916,-238.7366 1519.7314,-214 1524.1391,-213.1465 1528.7167,-212.1281 1533.2589,-211.0322"/>
<polygon fill="#191970" stroke="#191970" points="1534.2346,-214.3957 1543.0665,-208.5435 1532.5128,-207.6107 1534.2346,-214.3957"/>
</g>
<!-- Node8 -->
<g id="node9" class="node">
<title>Node8</title>
<g id="a_node9"><a xlink:href="../../de/d49/tensor__calculus_8hpp.html" target="_top" xlink:title="tensor_calculus.hpp">
<polygon fill="#ffffff" stroke="#000000" points="1022.2588,-125.5 1022.2588,-143.5 1127.2041,-143.5 1127.2041,-125.5 1022.2588,-125.5"/>
<text text-anchor="middle" x="1074.7314" y="-131.5" font-family="Helvetica,sans-Serif" font-size="10.00" fill="#000000">tensor_calculus.hpp</text>
</a>
</g>
</g>
<!-- Node7&#45;&gt;Node8 -->
<g id="edge8" class="edge">
<title>Node7&#45;&gt;Node8</title>
<path fill="none" stroke="#191970" d="M1349.0092,-186.2238C1276.4687,-174.1852 1175.4346,-157.1202 1135.7314,-149 1130.9824,-148.0287 1126.0397,-146.9566 1121.1145,-145.8481"/>
<polygon fill="#191970" stroke="#191970" points="1121.6274,-142.3747 1111.0971,-143.5423 1120.0572,-149.1963 1121.6274,-142.3747"/>
</g>
<!-- Node41 -->
<g id="node40" class="node">
<title>Node41</title>
<g id="a_node40"><a xlink:href="../../dc/de0/nearly_incompressible_hyperelasticity_8hpp.html" target="_top" xlink:title="nearlyIncompressibleHyperelasticity.hpp">
<polygon fill="#ffffff" stroke="#000000" points="713.6152,-125.5 713.6152,-143.5 907.8477,-143.5 907.8477,-125.5 713.6152,-125.5"/>
<text text-anchor="middle" x="810.7314" y="-131.5" font-family="Helvetica,sans-Serif" font-size="10.00" fill="#000000">nearlyIncompressibleHyperelasticity.hpp</text>
</a>
</g>
</g>
<!-- Node7&#45;&gt;Node41 -->
<g id="edge39" class="edge">
<title>Node7&#45;&gt;Node41</title>
<path fill="none" stroke="#191970" d="M1348.763,-186.0378C1346.0556,-185.6741 1343.3727,-185.3268 1340.7314,-185 1153.0402,-161.7773 1104.7041,-169.8227 916.7314,-149 905.6655,-147.7742 893.9703,-146.3274 882.5472,-144.8304"/>
<polygon fill="#191970" stroke="#191970" points="882.9758,-141.3567 872.6013,-143.5063 882.0519,-148.2955 882.9758,-141.3567"/>
</g>
<!-- Node45 -->
<g id="node42" class="node">
<title>Node45</title>
<g id="a_node42"><a xlink:href="../../d5/d3f/laplacepp_8hpp.html" target="_top" xlink:title="laplacepp.hpp">
<polygon fill="#ffffff" stroke="#000000" points="925.5938,-125.5 925.5938,-143.5 1003.8691,-143.5 1003.8691,-125.5 925.5938,-125.5"/>
<text text-anchor="middle" x="964.7314" y="-131.5" font-family="Helvetica,sans-Serif" font-size="10.00" fill="#000000">laplacepp.hpp</text>
</a>
</g>
</g>
<!-- Node7&#45;&gt;Node45 -->
<g id="edge41" class="edge">
<title>Node7&#45;&gt;Node45</title>
<path fill="none" stroke="#191970" d="M1348.7518,-186.1239C1346.0476,-185.7356 1343.3684,-185.3597 1340.7314,-185 1195.8617,-165.2379 1157.0666,-177.8584 1013.7314,-149 1009.8789,-148.2243 1005.8925,-147.283 1001.9339,-146.2565"/>
<polygon fill="#191970" stroke="#191970" points="1002.8145,-142.8687 992.2433,-143.5753 1000.9479,-149.6152 1002.8145,-142.8687"/>
</g>
<!-- Node47 -->
<g id="node44" class="node">
<title>Node47</title>
<polygon fill="#ffffff" stroke="#bfbfbf" points="1643.5347,-120.5 1643.5347,-148.5 1767.9282,-148.5 1767.9282,-120.5 1643.5347,-120.5"/>
<text text-anchor="start" x="1651.5347" y="-136.5" font-family="Helvetica,sans-Serif" font-size="10.00" fill="#000000">boost/random/mersenne</text>
<text text-anchor="middle" x="1705.7314" y="-126.5" font-family="Helvetica,sans-Serif" font-size="10.00" fill="#000000">_twister.hpp</text>
</g>
<!-- Node7&#45;&gt;Node47 -->
<g id="edge43" class="edge">
<title>Node7&#45;&gt;Node47</title>
<path fill="none" stroke="#191970" d="M1489.2795,-185.476C1532.3895,-175.3233 1590.7945,-161.5685 1636.0711,-150.9055"/>
<polygon fill="#191970" stroke="#191970" points="1636.883,-154.3102 1645.8143,-148.6109 1635.2783,-147.4966 1636.883,-154.3102"/>
</g>
<!-- Node48 -->
<g id="node45" class="node">
<title>Node48</title>
<polygon fill="#ffffff" stroke="#bfbfbf" points="1145.0962,-120.5 1145.0962,-148.5 1258.3667,-148.5 1258.3667,-120.5 1145.0962,-120.5"/>
<text text-anchor="start" x="1153.0962" y="-136.5" font-family="Helvetica,sans-Serif" font-size="10.00" fill="#000000">boost/random/uniform</text>
<text text-anchor="middle" x="1201.7314" y="-126.5" font-family="Helvetica,sans-Serif" font-size="10.00" fill="#000000">_real_distribution.hpp</text>
</g>
<!-- Node7&#45;&gt;Node48 -->
<g id="edge44" class="edge">
<title>Node7&#45;&gt;Node48</title>
<path fill="none" stroke="#191970" d="M1380.5395,-185.476C1345.4496,-175.4723 1298.0927,-161.9714 1260.9306,-151.3769"/>
<polygon fill="#191970" stroke="#191970" points="1261.8046,-147.9867 1251.2282,-148.6109 1259.8854,-154.7185 1261.8046,-147.9867"/>
</g>
<!-- Node49 -->
<g id="node46" class="node">
<title>Node49</title>
<polygon fill="#ffffff" stroke="#bfbfbf" points="1276.042,-120.5 1276.042,-148.5 1375.4209,-148.5 1375.4209,-120.5 1276.042,-120.5"/>
<text text-anchor="start" x="1284.042" y="-136.5" font-family="Helvetica,sans-Serif" font-size="10.00" fill="#000000">boost/math/special</text>
<text text-anchor="middle" x="1325.7314" y="-126.5" font-family="Helvetica,sans-Serif" font-size="10.00" fill="#000000">_functions/erf.hpp</text>
</g>
<!-- Node7&#45;&gt;Node49 -->
<g id="edge45" class="edge">
<title>Node7&#45;&gt;Node49</title>
<path fill="none" stroke="#191970" d="M1407.165,-185.396C1392.4464,-176.1968 1373.0367,-164.0658 1356.8588,-153.9546"/>
<polygon fill="#191970" stroke="#191970" points="1358.5889,-150.9085 1348.2539,-148.5765 1354.8788,-156.8445 1358.5889,-150.9085"/>
</g>
<!-- Node50 -->
<g id="node47" class="node">
<title>Node50</title>
<polygon fill="#ffffff" stroke="#bfbfbf" points="1393.4854,-120.5 1393.4854,-148.5 1503.9775,-148.5 1503.9775,-120.5 1393.4854,-120.5"/>
<text text-anchor="start" x="1401.4854" y="-136.5" font-family="Helvetica,sans-Serif" font-size="10.00" fill="#000000">boost/random/normal</text>
<text text-anchor="middle" x="1448.7314" y="-126.5" font-family="Helvetica,sans-Serif" font-size="10.00" fill="#000000">_distribution.hpp</text>
</g>
<!-- Node7&#45;&gt;Node50 -->
<g id="edge46" class="edge">
<title>Node7&#45;&gt;Node50</title>
<path fill="none" stroke="#191970" d="M1433.8542,-185.396C1436.1697,-177.4745 1439.1207,-167.379 1441.7829,-158.2712"/>
<polygon fill="#191970" stroke="#191970" points="1445.1705,-159.1569 1444.6168,-148.5765 1438.4516,-157.1928 1445.1705,-159.1569"/>
</g>
<!-- Node7&#45;&gt;Node51 -->
<g id="edge47" class="edge">
<title>Node7&#45;&gt;Node51</title>
<path fill="none" stroke="#191970" d="M1510.7254,-186.2238C1513.4256,-185.8069 1516.1,-185.3979 1518.7314,-185 1630.0775,-168.1636 1661.0325,-169.023 1775.9181,-149.0666"/>
<polygon fill="#191970" stroke="#191970" points="1776.564,-152.5069 1785.8099,-147.3334 1775.3558,-145.6119 1776.564,-152.5069"/>
</g>
<!-- Node52 -->
<g id="node49" class="node">
<title>Node52</title>
<polygon fill="#ffffff" stroke="#bfbfbf" points="1522.0864,-120.5 1522.0864,-148.5 1625.3765,-148.5 1625.3765,-120.5 1522.0864,-120.5"/>
<text text-anchor="start" x="1530.0864" y="-136.5" font-family="Helvetica,sans-Serif" font-size="10.00" fill="#000000">boost/math/special</text>
<text text-anchor="middle" x="1573.7314" y="-126.5" font-family="Helvetica,sans-Serif" font-size="10.00" fill="#000000">_functions/beta.hpp</text>
</g>
<!-- Node7&#45;&gt;Node52 -->
<g id="edge48" class="edge">
<title>Node7&#45;&gt;Node52</title>
<path fill="none" stroke="#191970" d="M1460.9773,-185.396C1482.2061,-175.8135 1510.4827,-163.0498 1533.408,-152.7016"/>
<polygon fill="#191970" stroke="#191970" points="1534.8721,-155.8808 1542.5466,-148.5765 1531.9921,-149.5007 1534.8721,-155.8808"/>
</g>
<!-- Node9 -->
<g id="node10" class="node">
<title>Node9</title>
<g id="a_node10"><a xlink:href="../../d0/d02/meshpp_8hpp.html" target="_top" xlink:title="meshpp.hpp">
<polygon fill="#ffffff" stroke="#ff0000" points="1468.2119,-60.5 1468.2119,-78.5 1539.251,-78.5 1539.251,-60.5 1468.2119,-60.5"/>
<text text-anchor="middle" x="1503.7314" y="-66.5" font-family="Helvetica,sans-Serif" font-size="10.00" fill="#000000">meshpp.hpp</text>
</a>
</g>
</g>
<!-- Node8&#45;&gt;Node9 -->
<g id="edge9" class="edge">
<title>Node8&#45;&gt;Node9</title>
<path fill="none" stroke="#191970" d="M1110.0889,-125.4817C1118.4625,-123.5165 1127.3855,-121.5608 1135.7314,-120 1250.8922,-98.4637 1387.9351,-82.0615 1457.8048,-74.3526"/>
<polygon fill="#191970" stroke="#191970" points="1458.462,-77.8017 1468.0219,-73.2347 1457.7005,-70.8432 1458.462,-77.8017"/>
</g>
<!-- Node10 -->
<g id="node11" class="node">
<title>Node10</title>
<polygon fill="#ffffff" stroke="#bfbfbf" points="0,-.5 0,-18.5 45.4629,-18.5 45.4629,-.5 0,-.5"/>
<text text-anchor="middle" x="22.7314" y="-6.5" font-family="Helvetica,sans-Serif" font-size="10.00" fill="#000000">stdio.h</text>
</g>
<!-- Node9&#45;&gt;Node10 -->
<g id="edge10" class="edge">
<title>Node9&#45;&gt;Node10</title>
<path fill="none" stroke="#191970" d="M1468.1572,-68.3844C1257.5927,-61.7669 179.7756,-27.6864 55.8968,-18.1028"/>
<polygon fill="#191970" stroke="#191970" points="55.944,-14.5896 45.641,-17.059 55.2352,-21.5536 55.944,-14.5896"/>
</g>
<!-- Node11 -->
<g id="node12" class="node">
<title>Node11</title>
<polygon fill="#ffffff" stroke="#bfbfbf" points="63.5591,-.5 63.5591,-18.5 117.9038,-18.5 117.9038,-.5 63.5591,-.5"/>
<text text-anchor="middle" x="90.7314" y="-6.5" font-family="Helvetica,sans-Serif" font-size="10.00" fill="#000000">iostream</text>
</g>
<!-- Node9&#45;&gt;Node11 -->
<g id="edge11" class="edge">
<title>Node9&#45;&gt;Node11</title>
<path fill="none" stroke="#191970" d="M1468.2047,-68.4118C1265.6744,-62.1823 261.5828,-30.9369 128.2104,-18.3745"/>
<polygon fill="#191970" stroke="#191970" points="128.4099,-14.8746 118.0776,-17.2185 127.6165,-21.8295 128.4099,-14.8746"/>
</g>
<!-- Node12 -->
<g id="node13" class="node">
<title>Node12</title>
<polygon fill="#ffffff" stroke="#bfbfbf" points="136.3398,-.5 136.3398,-18.5 185.123,-18.5 185.123,-.5 136.3398,-.5"/>
<text text-anchor="middle" x="160.7314" y="-6.5" font-family="Helvetica,sans-Serif" font-size="10.00" fill="#000000">istream</text>
</g>
<!-- Node9&#45;&gt;Node12 -->
<g id="edge12" class="edge">
<title>Node9&#45;&gt;Node12</title>
<path fill="none" stroke="#191970" d="M1467.9377,-68.3645C1271.0355,-62.0885 324.2526,-31.5158 195.7342,-18.5799"/>
<polygon fill="#191970" stroke="#191970" points="195.8052,-15.0622 185.4518,-17.3112 194.9479,-22.0095 195.8052,-15.0622"/>
</g>
<!-- Node13 -->
<g id="node14" class="node">
<title>Node13</title>
<polygon fill="#ffffff" stroke="#bfbfbf" points="203.0615,-.5 203.0615,-18.5 252.4014,-18.5 252.4014,-.5 203.0615,-.5"/>
<text text-anchor="middle" x="227.7314" y="-6.5" font-family="Helvetica,sans-Serif" font-size="10.00" fill="#000000">fstream</text>
</g>
<!-- Node9&#45;&gt;Node13 -->
<g id="edge13" class="edge">
<title>Node9&#45;&gt;Node13</title>
<path fill="none" stroke="#191970" d="M1468.1759,-68.2959C1278.0662,-61.8286 385.887,-31.0988 262.589,-18.5659"/>
<polygon fill="#191970" stroke="#191970" points="262.8082,-15.0663 252.4527,-17.3055 261.9444,-22.0128 262.8082,-15.0663"/>
</g>
<!-- Node14 -->
<g id="node15" class="node">
<title>Node14</title>
<polygon fill="#ffffff" stroke="#bfbfbf" points="270.1157,-.5 270.1157,-18.5 313.3472,-18.5 313.3472,-.5 270.1157,-.5"/>
<text text-anchor="middle" x="291.7314" y="-6.5" font-family="Helvetica,sans-Serif" font-size="10.00" fill="#000000">vector</text>
</g>
<!-- Node9&#45;&gt;Node14 -->
<g id="edge14" class="edge">
<title>Node9&#45;&gt;Node14</title>
<path fill="none" stroke="#191970" d="M1468.0572,-68.2411C1283.5421,-61.6974 441.7538,-31.4384 323.4978,-18.478"/>
<polygon fill="#191970" stroke="#191970" points="323.8978,-15.0003 313.5197,-17.1321 322.9621,-21.9375 323.8978,-15.0003"/>
</g>
<!-- Node15 -->
<g id="node16" class="node">
<title>Node15</title>
<polygon fill="#ffffff" stroke="#bfbfbf" points="331.2217,-.5 331.2217,-18.5 382.2412,-18.5 382.2412,-.5 331.2217,-.5"/>
<text text-anchor="middle" x="356.7314" y="-6.5" font-family="Helvetica,sans-Serif" font-size="10.00" fill="#000000">iomanip</text>
</g>
<!-- Node9&#45;&gt;Node15 -->
<g id="edge15" class="edge">
<title>Node9&#45;&gt;Node15</title>
<path fill="none" stroke="#191970" d="M1468.032,-68.3458C1294.2692,-62.6665 539.734,-37.2809 392.8127,-18.6407"/>
<polygon fill="#191970" stroke="#191970" points="392.979,-15.1295 382.588,-17.198 392.0009,-22.0609 392.979,-15.1295"/>
</g>
<!-- Node16 -->
<g id="node17" class="node">
<title>Node16</title>
<polygon fill="#ffffff" stroke="#bfbfbf" points="400.271,-.5 400.271,-18.5 505.1919,-18.5 505.1919,-.5 400.271,-.5"/>
<text text-anchor="middle" x="452.7314" y="-6.5" font-family="Helvetica,sans-Serif" font-size="10.00" fill="#000000">Epetra_MpiComm.h</text>
</g>
<!-- Node9&#45;&gt;Node16 -->
<g id="edge16" class="edge">
<title>Node9&#45;&gt;Node16</title>
<path fill="none" stroke="#191970" d="M1468.136,-68.1799C1316.6396,-62.4862 724.1349,-39.438 515.2116,-19.0342"/>
<polygon fill="#191970" stroke="#191970" points="515.559,-15.5515 505.2591,-18.0339 514.8589,-22.5164 515.559,-15.5515"/>
</g>
<!-- Node17 -->
<g id="node18" class="node">
<title>Node17</title>
<polygon fill="#ffffff" stroke="#bfbfbf" points="522.9878,-.5 522.9878,-18.5 638.4751,-18.5 638.4751,-.5 522.9878,-.5"/>
<text text-anchor="middle" x="580.7314" y="-6.5" font-family="Helvetica,sans-Serif" font-size="10.00" fill="#000000">Epetra_FECrsGraph.h</text>
</g>
<!-- Node9&#45;&gt;Node17 -->
<g id="edge17" class="edge">
<title>Node9&#45;&gt;Node17</title>
<path fill="none" stroke="#191970" d="M1468.179,-68.4466C1352.0137,-64.784 972.9764,-51.0919 648.8566,-19.0328"/>
<polygon fill="#191970" stroke="#191970" points="649.0987,-15.5397 638.8008,-18.0305 648.4043,-22.5051 649.0987,-15.5397"/>
</g>
<!-- Node18 -->
<g id="node19" class="node">
<title>Node18</title>
<polygon fill="#ffffff" stroke="#bfbfbf" points="656.2734,-.5 656.2734,-18.5 771.1895,-18.5 771.1895,-.5 656.2734,-.5"/>
<text text-anchor="middle" x="713.7314" y="-6.5" font-family="Helvetica,sans-Serif" font-size="10.00" fill="#000000">Epetra_FECrsMatrix.h</text>
</g>
<!-- Node9&#45;&gt;Node18 -->
<g id="edge18" class="edge">
<title>Node9&#45;&gt;Node18</title>
<path fill="none" stroke="#191970" d="M1467.8665,-67.9309C1363.5222,-63.1679 1050.9091,-47.4959 781.2695,-19.0975"/>
<polygon fill="#191970" stroke="#191970" points="781.6067,-15.6138 771.2931,-18.0389 780.8679,-22.5747 781.6067,-15.6138"/>
</g>
<!-- Node19 -->
<g id="node20" class="node">
<title>Node19</title>
<polygon fill="#ffffff" stroke="#bfbfbf" points="788.7563,-.5 788.7563,-18.5 888.7065,-18.5 888.7065,-.5 788.7563,-.5"/>
<text text-anchor="middle" x="838.7314" y="-6.5" font-family="Helvetica,sans-Serif" font-size="10.00" fill="#000000">Epetra_FEVector.h</text>
</g>
<!-- Node9&#45;&gt;Node19 -->
<g id="edge19" class="edge">
<title>Node9&#45;&gt;Node19</title>
<path fill="none" stroke="#191970" d="M1468.1158,-67.4872C1375.8755,-62.0706 1121.4698,-45.8375 899.1345,-19.0876"/>
<polygon fill="#191970" stroke="#191970" points="899.2552,-15.5767 888.9064,-17.8468 898.4121,-22.5258 899.2552,-15.5767"/>
</g>
<!-- Node20 -->
<g id="node21" class="node">
<title>Node20</title>
<polygon fill="#ffffff" stroke="#bfbfbf" points="907.1455,-.5 907.1455,-18.5 994.3174,-18.5 994.3174,-.5 907.1455,-.5"/>
<text text-anchor="middle" x="950.7314" y="-6.5" font-family="Helvetica,sans-Serif" font-size="10.00" fill="#000000">Epetra_Vector.h</text>
</g>
<!-- Node9&#45;&gt;Node20 -->
<g id="edge20" class="edge">
<title>Node9&#45;&gt;Node20</title>
<path fill="none" stroke="#191970" d="M1468.1548,-66.8499C1387.5553,-60.6441 1184.6967,-43.8892 1004.2956,-18.9774"/>
<polygon fill="#191970" stroke="#191970" points="1004.749,-15.5068 994.3618,-17.5941 1003.7834,-22.4399 1004.749,-15.5068"/>
</g>
<!-- Node21 -->
<g id="node22" class="node">
<title>Node21</title>
<polygon fill="#ffffff" stroke="#bfbfbf" points="1012.3228,-.5 1012.3228,-18.5 1091.1401,-18.5 1091.1401,-.5 1012.3228,-.5"/>
<text text-anchor="middle" x="1051.7314" y="-6.5" font-family="Helvetica,sans-Serif" font-size="10.00" fill="#000000">Epetra_Map.h</text>
</g>
<!-- Node9&#45;&gt;Node21 -->
<g id="edge21" class="edge">
<title>Node9&#45;&gt;Node21</title>
<path fill="none" stroke="#191970" d="M1467.9418,-65.8898C1398.9703,-58.7464 1242.6641,-41.656 1101.3885,-19.1788"/>
<polygon fill="#191970" stroke="#191970" points="1101.6723,-15.6797 1091.2441,-17.5512 1100.5633,-22.5913 1101.6723,-15.6797"/>
</g>
<!-- Node22 -->
<g id="node23" class="node">
<title>Node22</title>
<polygon fill="#ffffff" stroke="#bfbfbf" points="1109.2021,-.5 1109.2021,-18.5 1250.2607,-18.5 1250.2607,-.5 1109.2021,-.5"/>
<text text-anchor="middle" x="1179.7314" y="-6.5" font-family="Helvetica,sans-Serif" font-size="10.00" fill="#000000">Epetra_SerialDenseMatrix.h</text>
</g>
<!-- Node9&#45;&gt;Node22 -->
<g id="edge22" class="edge">
<title>Node9&#45;&gt;Node22</title>
<path fill="none" stroke="#191970" d="M1468.131,-62.9073C1412.7793,-52.657 1305.4989,-32.7903 1238.5307,-20.3888"/>
<polygon fill="#191970" stroke="#191970" points="1239.0187,-16.9197 1228.5485,-18.5402 1237.744,-23.8027 1239.0187,-16.9197"/>
</g>
<!-- Node23 -->
<g id="node24" class="node">
<title>Node23</title>
<polygon fill="#ffffff" stroke="#bfbfbf" points="1267.9092,-.5 1267.9092,-18.5 1409.5537,-18.5 1409.5537,-.5 1267.9092,-.5"/>
<text text-anchor="middle" x="1338.7314" y="-6.5" font-family="Helvetica,sans-Serif" font-size="10.00" fill="#000000">Epetra_SerialDenseVector.h</text>
</g>
<!-- Node9&#45;&gt;Node23 -->
<g id="edge23" class="edge">
<title>Node9&#45;&gt;Node23</title>
<path fill="none" stroke="#191970" d="M1478.6715,-60.3873C1450.5248,-50.1521 1404.6698,-33.4776 1373.1691,-22.0228"/>
<polygon fill="#191970" stroke="#191970" points="1374.0807,-18.6301 1363.4866,-18.5019 1371.6884,-25.2086 1374.0807,-18.6301"/>
</g>
<!-- Node24 -->
<g id="node25" class="node">
<title>Node24</title>
<polygon fill="#ffffff" stroke="#bfbfbf" points="1427.3501,-.5 1427.3501,-18.5 1580.1128,-18.5 1580.1128,-.5 1427.3501,-.5"/>
<text text-anchor="middle" x="1503.7314" y="-6.5" font-family="Helvetica,sans-Serif" font-size="10.00" fill="#000000">Epetra_IntSerialDenseVector.h</text>
</g>
<!-- Node9&#45;&gt;Node24 -->
<g id="edge24" class="edge">
<title>Node9&#45;&gt;Node24</title>
<path fill="none" stroke="#191970" d="M1503.7314,-60.3873C1503.7314,-52.0174 1503.7314,-39.3414 1503.7314,-28.735"/>
<polygon fill="#191970" stroke="#191970" points="1507.2315,-28.6984 1503.7314,-18.6985 1500.2315,-28.6985 1507.2315,-28.6984"/>
</g>
<!-- Node25 -->
<g id="node26" class="node">
<title>Node25</title>
<polygon fill="#ffffff" stroke="#bfbfbf" points="1597.8794,-.5 1597.8794,-18.5 1685.5835,-18.5 1685.5835,-.5 1597.8794,-.5"/>
<text text-anchor="middle" x="1641.7314" y="-6.5" font-family="Helvetica,sans-Serif" font-size="10.00" fill="#000000">Epetra_Import.h</text>
</g>
<!-- Node9&#45;&gt;Node25 -->
<g id="edge25" class="edge">
<title>Node9&#45;&gt;Node25</title>
<path fill="none" stroke="#191970" d="M1524.6907,-60.3873C1547.8239,-50.3294 1585.2593,-34.0531 1611.5498,-22.6225"/>
<polygon fill="#191970" stroke="#191970" points="1613.252,-25.6989 1621.0271,-18.5019 1610.4609,-19.2794 1613.252,-25.6989"/>
</g>
<!-- Node26 -->
<g id="node27" class="node">
<title>Node26</title>
<polygon fill="#ffffff" stroke="#bfbfbf" points="1703.5986,-.5 1703.5986,-18.5 1791.8643,-18.5 1791.8643,-.5 1703.5986,-.5"/>
<text text-anchor="middle" x="1747.7314" y="-6.5" font-family="Helvetica,sans-Serif" font-size="10.00" fill="#000000">Epetra_Export.h</text>
</g>
<!-- Node9&#45;&gt;Node26 -->
<g id="edge26" class="edge">
<title>Node9&#45;&gt;Node26</title>
<path fill="none" stroke="#191970" d="M1539.4725,-60.7112C1582.2649,-50.1885 1654.0457,-32.5375 1701.1479,-20.955"/>
<polygon fill="#191970" stroke="#191970" points="1702.2216,-24.2953 1711.0965,-18.5086 1700.55,-17.4978 1702.2216,-24.2953"/>
</g>
<!-- Node27 -->
<g id="node28" class="node">
<title>Node27</title>
<polygon fill="#ffffff" stroke="#bfbfbf" points="1810.1216,-.5 1810.1216,-18.5 1891.3413,-18.5 1891.3413,-.5 1810.1216,-.5"/>
<text text-anchor="middle" x="1850.7314" y="-6.5" font-family="Helvetica,sans-Serif" font-size="10.00" fill="#000000">Epetra_Time.h</text>
</g>
<!-- Node9&#45;&gt;Node27 -->
<g id="edge27" class="edge">
<title>Node9&#45;&gt;Node27</title>
<path fill="none" stroke="#191970" d="M1539.4298,-63.6591C1593.442,-54.7717 1699.4162,-37.1399 1800.0511,-19.0947"/>
<polygon fill="#191970" stroke="#191970" points="1800.8616,-22.5052 1810.0845,-17.291 1799.623,-15.6157 1800.8616,-22.5052"/>
</g>
<!-- Node28 -->
<g id="node29" class="node">
<title>Node28</title>
<polygon fill="#ffffff" stroke="#bfbfbf" points="1909.0273,-.5 1909.0273,-18.5 2058.4355,-18.5 2058.4355,-.5 1909.0273,-.5"/>
<text text-anchor="middle" x="1983.7314" y="-6.5" font-family="Helvetica,sans-Serif" font-size="10.00" fill="#000000">ml_MultiLevelPreconditioner.h</text>
</g>
<!-- Node9&#45;&gt;Node28 -->
<g id="edge28" class="edge">
<title>Node9&#45;&gt;Node28</title>
<path fill="none" stroke="#191970" d="M1539.4173,-65.0393C1615.5052,-55.5283 1795.3756,-33.0445 1901.4588,-19.7841"/>
<polygon fill="#191970" stroke="#191970" points="1901.9999,-23.2438 1911.4886,-18.5304 1901.1316,-16.2978 1901.9999,-23.2438"/>
</g>
<!-- Node29 -->
<g id="node30" class="node">
<title>Node29</title>
<polygon fill="#ffffff" stroke="#bfbfbf" points="2076.6553,-.5 2076.6553,-18.5 2168.8076,-18.5 2168.8076,-.5 2076.6553,-.5"/>
<text text-anchor="middle" x="2122.7314" y="-6.5" font-family="Helvetica,sans-Serif" font-size="10.00" fill="#000000">ml_epetra_utils.h</text>
</g>
<!-- Node9&#45;&gt;Node29 -->
<g id="edge29" class="edge">
<title>Node9&#45;&gt;Node29</title>
<path fill="none" stroke="#191970" d="M1539.4755,-67.3178C1627.3628,-61.7349 1861.1813,-45.5644 2066.4959,-19.0671"/>
<polygon fill="#191970" stroke="#191970" points="2067.0952,-22.5187 2076.5596,-17.7569 2066.1914,-15.5773 2067.0952,-22.5187"/>
</g>
<!-- Node30 -->
<g id="node31" class="node">
<title>Node30</title>
<polygon fill="#ffffff" stroke="#bfbfbf" points="2186.6602,-.5 2186.6602,-18.5 2258.8027,-18.5 2258.8027,-.5 2186.6602,-.5"/>
<text text-anchor="middle" x="2222.7314" y="-6.5" font-family="Helvetica,sans-Serif" font-size="10.00" fill="#000000">ml_include.h</text>
</g>
<!-- Node9&#45;&gt;Node30 -->
<g id="edge30" class="edge">
<title>Node9&#45;&gt;Node30</title>
<path fill="none" stroke="#191970" d="M1539.3539,-68.5025C1638.7253,-65.3656 1927.4766,-53.8355 2176.4972,-19.0003"/>
<polygon fill="#191970" stroke="#191970" points="2177.0447,-22.4577 2186.4559,-17.5916 2176.0642,-15.5267 2177.0447,-22.4577"/>
</g>
<!-- Node31 -->
<g id="node32" class="node">
<title>Node31</title>
<polygon fill="#ffffff" stroke="#bfbfbf" points="2277.1528,-.5 2277.1528,-18.5 2414.3101,-18.5 2414.3101,-.5 2277.1528,-.5"/>
<text text-anchor="middle" x="2345.7314" y="-6.5" font-family="Helvetica,sans-Serif" font-size="10.00" fill="#000000">EpetraExt_RowMatrixOut.h</text>
</g>
<!-- Node9&#45;&gt;Node31 -->
<g id="edge31" class="edge">
<title>Node9&#45;&gt;Node31</title>
<path fill="none" stroke="#191970" d="M1539.5876,-67.8347C1647.6607,-62.6659 1979.9078,-45.6813 2266.6689,-19.0499"/>
<polygon fill="#191970" stroke="#191970" points="2267.2193,-22.5138 2276.8502,-18.0985 2266.5679,-15.5442 2267.2193,-22.5138"/>
</g>
<!-- Node32 -->
<g id="node33" class="node">
<title>Node32</title>
<polygon fill="#ffffff" stroke="#bfbfbf" points="2432.0322,-.5 2432.0322,-18.5 2571.4307,-18.5 2571.4307,-.5 2432.0322,-.5"/>
<text text-anchor="middle" x="2501.7314" y="-6.5" font-family="Helvetica,sans-Serif" font-size="10.00" fill="#000000">EpetraExt_MultiVectorOut.h</text>
</g>
<!-- Node9&#45;&gt;Node32 -->
<g id="edge32" class="edge">
<title>Node9&#45;&gt;Node32</title>
<path fill="none" stroke="#191970" d="M1539.3125,-68.3973C1661.012,-64.4461 2072.0192,-49.6232 2421.9403,-19.108"/>
<polygon fill="#191970" stroke="#191970" points="2422.3589,-22.5848 2432.0144,-18.2236 2421.7466,-15.6117 2422.3589,-22.5848"/>
</g>
<!-- Node33 -->
<g id="node34" class="node">
<title>Node33</title>
<polygon fill="#ffffff" stroke="#bfbfbf" points="2589.478,-.5 2589.478,-18.5 2699.9849,-18.5 2699.9849,-.5 2589.478,-.5"/>
<text text-anchor="middle" x="2644.7314" y="-6.5" font-family="Helvetica,sans-Serif" font-size="10.00" fill="#000000">EpetraExt_VectorIn.h</text>
</g>
<!-- Node9&#45;&gt;Node33 -->
<g id="edge33" class="edge">
<title>Node9&#45;&gt;Node33</title>
<path fill="none" stroke="#191970" d="M1539.6181,-69.1252C1674.656,-67.44 2165.2023,-58.8403 2579.1984,-19.0564"/>
<polygon fill="#191970" stroke="#191970" points="2579.6546,-22.5287 2589.2705,-18.0808 2578.9796,-15.5613 2579.6546,-22.5287"/>
</g>
<!-- Node34 -->
<g id="node35" class="node">
<title>Node34</title>
<polygon fill="#ffffff" stroke="#bfbfbf" points="2717.9214,-.5 2717.9214,-18.5 2849.5415,-18.5 2849.5415,-.5 2717.9214,-.5"/>
<text text-anchor="middle" x="2783.7314" y="-6.5" font-family="Helvetica,sans-Serif" font-size="10.00" fill="#000000">EpetraExt_MultiVectorIn.h</text>
</g>
<!-- Node9&#45;&gt;Node34 -->
<g id="edge34" class="edge">
<title>Node9&#45;&gt;Node34</title>
<path fill="none" stroke="#191970" d="M1539.2869,-69.1018C1683.5856,-67.257 2239.6685,-57.9302 2707.9115,-18.9922"/>
<polygon fill="#191970" stroke="#191970" points="2708.2413,-22.477 2717.9144,-18.1548 2707.6572,-15.5014 2708.2413,-22.477"/>
</g>
<!-- Node35 -->
<g id="node36" class="node">
<title>Node35</title>
<polygon fill="#ffffff" stroke="#bfbfbf" points="2867.6841,-.5 2867.6841,-18.5 2965.7788,-18.5 2965.7788,-.5 2867.6841,-.5"/>
<text text-anchor="middle" x="2916.7314" y="-6.5" font-family="Helvetica,sans-Serif" font-size="10.00" fill="#000000">Teuchos_RCP.hpp</text>
</g>
<!-- Node9&#45;&gt;Node35 -->
<g id="edge35" class="edge">
<title>Node9&#45;&gt;Node35</title>
<path fill="none" stroke="#191970" d="M1539.5384,-68.773C1724.1834,-64.9328 2570.8235,-46.1896 2857.0728,-19.0177"/>
<polygon fill="#191970" stroke="#191970" points="2857.8137,-22.4621 2867.426,-18.0065 2857.1331,-15.4953 2857.8137,-22.4621"/>
</g>
<!-- Node36 -->
<g id="node37" class="node">
<title>Node36</title>
<polygon fill="#ffffff" stroke="#bfbfbf" points="2983.5,-.5 2983.5,-18.5 3043.9629,-18.5 3043.9629,-.5 2983.5,-.5"/>
<text text-anchor="middle" x="3013.7314" y="-6.5" font-family="Helvetica,sans-Serif" font-size="10.00" fill="#000000">Amesos.h</text>
</g>
<!-- Node9&#45;&gt;Node36 -->
<g id="edge36" class="edge">
<title>Node9&#45;&gt;Node36</title>
<path fill="none" stroke="#191970" d="M1539.3741,-69.2655C1733.2778,-67.8413 2663.4895,-59.0725 2972.8881,-18.9453"/>
<polygon fill="#191970" stroke="#191970" points="2973.7414,-22.3623 2983.1883,-17.5658 2972.8122,-15.4243 2973.7414,-22.3623"/>
</g>
<!-- Node37 -->
<g id="node38" class="node">
<title>Node37</title>
<polygon fill="#ffffff" stroke="#bfbfbf" points="3062.2783,-.5 3062.2783,-18.5 3127.1846,-18.5 3127.1846,-.5 3062.2783,-.5"/>
<text text-anchor="middle" x="3094.7314" y="-6.5" font-family="Helvetica,sans-Serif" font-size="10.00" fill="#000000">AztecOO.h</text>
</g>
<!-- Node9&#45;&gt;Node37 -->
<g id="edge37" class="edge">
<title>Node9&#45;&gt;Node37</title>
<path fill="none" stroke="#191970" d="M1539.5808,-69.2559C1740.1599,-67.7513 2725.6472,-58.5005 3051.8959,-18.808"/>
<polygon fill="#191970" stroke="#191970" points="3052.3346,-22.2804 3061.8219,-17.5645 3051.4644,-15.3347 3052.3346,-22.2804"/>
</g>
<!-- Node38 -->
<g id="node39" class="node">
<title>Node38</title>
<polygon fill="#ffffff" stroke="#bfbfbf" points="3145.4238,-.5 3145.4238,-18.5 3262.0391,-18.5 3262.0391,-.5 3145.4238,-.5"/>
<text text-anchor="middle" x="3203.7314" y="-6.5" font-family="Helvetica,sans-Serif" font-size="10.00" fill="#000000">Amesos_BaseSolver.h</text>
</g>
<!-- Node9&#45;&gt;Node38 -->
<g id="edge38" class="edge">
<title>Node9&#45;&gt;Node38</title>
<path fill="none" stroke="#191970" d="M1539.3943,-68.921C1745.7783,-65.4915 2789.5409,-47.0588 3135.1513,-18.9249"/>
<polygon fill="#191970" stroke="#191970" points="3135.4966,-22.4084 3145.1713,-18.0897 3134.9151,-15.4326 3135.4966,-22.4084"/>
</g>
<!-- Node42 -->
<g id="node41" class="node">
<title>Node42</title>
<g id="a_node41"><a xlink:href="../../d2/d34/hyperelasticity_8hpp.html" target="_top" xlink:title="hyperelasticity.hpp">
<polygon fill="#ffffff" stroke="#ff0000" points="761.689,-60.5 761.689,-78.5 859.7739,-78.5 859.7739,-60.5 761.689,-60.5"/>
<text text-anchor="middle" x="810.7314" y="-66.5" font-family="Helvetica,sans-Serif" font-size="10.00" fill="#000000">hyperelasticity.hpp</text>
</a>
</g>
</g>
<!-- Node41&#45;&gt;Node42 -->
<g id="edge40" class="edge">
<title>Node41&#45;&gt;Node42</title>
<path fill="none" stroke="#191970" d="M810.7314,-125.462C810.7314,-116.061 810.7314,-101.0518 810.7314,-88.943"/>
<polygon fill="#191970" stroke="#191970" points="814.2315,-88.8821 810.7314,-78.8821 807.2315,-88.8822 814.2315,-88.8821"/>
</g>
<!-- Node46 -->
<g id="node43" class="node">
<title>Node46</title>
<g id="a_node43"><a xlink:href="../../d9/dea/_linear___finite___element___problem_8hpp.html" target="_top" xlink:title="Linear_Finite_Element\l_Problem.hpp">
<polygon fill="#ffffff" stroke="#ff0000" points="906.7021,-55.5 906.7021,-83.5 1022.7607,-83.5 1022.7607,-55.5 906.7021,-55.5"/>
<text text-anchor="start" x="914.7021" y="-71.5" font-family="Helvetica,sans-Serif" font-size="10.00" fill="#000000">Linear_Finite_Element</text>
<text text-anchor="middle" x="964.7314" y="-61.5" font-family="Helvetica,sans-Serif" font-size="10.00" fill="#000000">_Problem.hpp</text>
</a>
</g>
</g>
<!-- Node45&#45;&gt;Node46 -->
<g id="edge42" class="edge">
<title>Node45&#45;&gt;Node46</title>
<path fill="none" stroke="#191970" d="M964.7314,-125.462C964.7314,-117.404 964.7314,-105.2257 964.7314,-94.2852"/>
<polygon fill="#191970" stroke="#191970" points="968.2315,-93.9558 964.7314,-83.9559 961.2315,-93.9559 968.2315,-93.9558"/>
</g>
<!-- Node53&#45;&gt;Node9 -->
<g id="edge51" class="edge">
<title>Node53&#45;&gt;Node9</title>
<path fill="none" stroke="#191970" d="M1619.7541,-195.9511C1707.9688,-188.6801 1893.8396,-170.9146 1912.7314,-149 1921.1471,-139.2378 1921.2686,-129.6561 1912.7314,-120 1888.9642,-93.1177 1651.2869,-77.356 1549.549,-71.7939"/>
<polygon fill="#191970" stroke="#191970" points="1549.7356,-68.299 1539.5621,-71.2569 1549.3597,-75.2889 1549.7356,-68.299"/>
</g>
<!-- Node53&#45;&gt;Node47 -->
<g id="edge52" class="edge">
<title>Node53&#45;&gt;Node47</title>
<path fill="none" stroke="#191970" d="M1592.0855,-190.462C1611.6209,-180.8423 1643.0814,-165.3504 1667.9536,-153.1027"/>
<polygon fill="#191970" stroke="#191970" points="1669.6999,-156.1442 1677.125,-148.5865 1666.6075,-149.8643 1669.6999,-156.1442"/>
</g>
<!-- Node53&#45;&gt;Node48 -->
<g id="edge53" class="edge">
<title>Node53&#45;&gt;Node48</title>
<path fill="none" stroke="#191970" d="M1542.7594,-190.495C1535.2628,-188.5067 1527.2444,-186.5373 1519.7314,-185 1411.6112,-162.8761 1380.2292,-168.999 1268.3868,-149.2122"/>
<polygon fill="#191970" stroke="#191970" points="1268.8605,-145.7413 1258.3987,-147.4148 1267.6206,-152.6307 1268.8605,-145.7413"/>
</g>
<!-- Node53&#45;&gt;Node49 -->
<g id="edge54" class="edge">
<title>Node53&#45;&gt;Node49</title>
<path fill="none" stroke="#191970" d="M1540.3274,-190.4875C1533.5153,-188.6617 1526.3945,-186.7618 1519.7314,-185 1474.7915,-173.1174 1423.9366,-159.8875 1385.572,-149.9506"/>
<polygon fill="#191970" stroke="#191970" points="1386.1574,-146.4868 1375.5994,-147.3689 1384.403,-153.2634 1386.1574,-146.4868"/>
</g>
<!-- Node53&#45;&gt;Node50 -->
<g id="edge55" class="edge">
<title>Node53&#45;&gt;Node50</title>
<path fill="none" stroke="#191970" d="M1556.3507,-190.462C1537.992,-180.9155 1508.5117,-165.5857 1485.0444,-153.3828"/>
<polygon fill="#191970" stroke="#191970" points="1486.5439,-150.2176 1476.057,-148.7093 1483.3144,-156.4281 1486.5439,-150.2176"/>
</g>
<!-- Node53&#45;&gt;Node51 -->
<g id="edge56" class="edge">
<title>Node53&#45;&gt;Node51</title>
<path fill="none" stroke="#191970" d="M1611.4128,-190.462C1653.9733,-180.2538 1724.1031,-163.433 1776.3833,-150.8935"/>
<polygon fill="#191970" stroke="#191970" points="1777.3491,-154.2612 1786.2569,-148.5253 1775.7164,-147.4542 1777.3491,-154.2612"/>
</g>
<!-- Node53&#45;&gt;Node52 -->
<g id="edge57" class="edge">
<title>Node53&#45;&gt;Node52</title>
<path fill="none" stroke="#191970" d="M1573.7314,-190.462C1573.7314,-182.404 1573.7314,-170.2257 1573.7314,-159.2852"/>
<polygon fill="#191970" stroke="#191970" points="1577.2315,-158.9558 1573.7314,-148.9559 1570.2315,-158.9559 1577.2315,-158.9558"/>
</g>
</g>
</svg>
