<?xml version="1.0" encoding="UTF-8" standalone="no"?>
<!DOCTYPE svg PUBLIC "-//W3C//DTD SVG 1.1//EN"
 "http://www.w3.org/Graphics/SVG/1.1/DTD/svg11.dtd">
<!-- Generated by graphviz version 2.40.1 (20161225.0304)
 -->
<!-- Title: arteries/boost_gmrf/gmrf_nodes/main.cpp Pages: 1 -->
<!--zoomable 332 -->
<svg id="main" version="1.1" xmlns="http://www.w3.org/2000/svg" xmlns:xlink="http://www.w3.org/1999/xlink" xml:space="preserve" onload="init(evt)">
<style type="text/css"><![CDATA[
.edge:hover path { stroke: red; }
.edge:hover polygon { stroke: red; fill: red; }
]]></style>
<script type="text/javascript"><![CDATA[
var edges = document.getElementsByTagName('g');
if (edges && edges.length) {
  for (var i=0;i<edges.length;i++) {
    if (edges[i].id.substr(0,4)=='edge') {
      edges[i].setAttribute('class','edge');
    }
  }
}
]]></script>
        <defs>
                <circle id="rim" cx="0" cy="0" r="7"/>
                <circle id="rim2" cx="0" cy="0" r="3.5"/>
                <g id="zoomPlus">
                        <use xlink:href="#rim" fill="#404040">
                                <set attributeName="fill" to="#808080" begin="zoomplus.mouseover" end="zoomplus.mouseout"/>
                        </use>
                        <path d="M-4,0h8M0,-4v8" fill="none" stroke="white" stroke-width="1.5" pointer-events="none"/>
                </g>
                <g id="zoomMin">
                        <use xlink:href="#rim" fill="#404040">
                                <set attributeName="fill" to="#808080" begin="zoomminus.mouseover" end="zoomminus.mouseout"/>
                        </use>
                        <path d="M-4,0h8" fill="none" stroke="white" stroke-width="1.5" pointer-events="none"/>
                </g>
                <g id="dirArrow">
                        <path fill="none" stroke="white" stroke-width="1.5" d="M0,-3.0v7 M-2.5,-0.5L0,-3.0L2.5,-0.5"/>
                </g>
               <g id="resetDef">
                       <use xlink:href="#rim2" fill="#404040">
                               <set attributeName="fill" to="#808080" begin="reset.mouseover" end="reset.mouseout"/>
                       </use>
               </g>
        </defs>

<script type="text/javascript">
var viewWidth = 3336;
var viewHeight = 332;
var sectionId = 'dynsection-0';
</script>
<script xlink:href="../../svgpan.js"/>
<svg id="graph" class="graph">
<g id="viewport">
<title>arteries/boost_gmrf/gmrf_nodes/main.cpp</title>
<polygon fill="#ffffff" stroke="transparent" points="-4,4 -4,-328 3331.8472,-328 3331.8472,4 -4,4"/>
<!-- Node0 -->
<g id="node1" class="node">
<title>Node0</title>
<polygon fill="#bfbfbf" stroke="#000000" points="1583.2612,-295.5 1583.2612,-323.5 1698.2017,-323.5 1698.2017,-295.5 1583.2612,-295.5"/>
<text text-anchor="start" x="1591.2612" y="-311.5" font-family="Helvetica,sans-Serif" font-size="10.00" fill="#000000">arteries/boost_gmrf</text>
<text text-anchor="middle" x="1640.7314" y="-301.5" font-family="Helvetica,sans-Serif" font-size="10.00" fill="#000000">/gmrf_nodes/main.cpp</text>
</g>
<!-- Node1 -->
<g id="node2" class="node">
<title>Node1</title>
<polygon fill="#ffffff" stroke="#bfbfbf" points="909.3154,-235.5 909.3154,-253.5 1018.1475,-253.5 1018.1475,-235.5 909.3154,-235.5"/>
<text text-anchor="middle" x="963.7314" y="-241.5" font-family="Helvetica,sans-Serif" font-size="10.00" fill="#000000">Epetra_ConfigDefs.h</text>
</g>
<!-- Node0&#45;&gt;Node1 -->
<g id="edge1" class="edge">
<title>Node0&#45;&gt;Node1</title>
<path fill="none" stroke="#191970" d="M1582.9463,-307.4491C1473.867,-302.9788 1230.3776,-290.1451 1027.7314,-259 1021.8162,-258.0909 1015.6337,-256.9443 1009.5427,-255.696"/>
<polygon fill="#191970" stroke="#191970" points="1009.9542,-252.2045 999.4417,-253.5231 1008.482,-259.048 1009.9542,-252.2045"/>
</g>
<!-- Node2 -->
<g id="node3" class="node">
<title>Node2</title>
<polygon fill="#ffffff" stroke="#bfbfbf" points="1036.5444,-235.5 1036.5444,-253.5 1150.9185,-253.5 1150.9185,-235.5 1036.5444,-235.5"/>
<text text-anchor="middle" x="1093.7314" y="-241.5" font-family="Helvetica,sans-Serif" font-size="10.00" fill="#000000">Epetra_SerialComm.h</text>
</g>
<!-- Node0&#45;&gt;Node2 -->
<g id="edge2" class="edge">
<title>Node0&#45;&gt;Node2</title>
<path fill="none" stroke="#191970" d="M1583.0747,-305.5381C1492.5242,-298.8463 1311.623,-283.5798 1159.7314,-259 1153.7962,-258.0395 1147.5922,-256.8825 1141.465,-255.6461"/>
<polygon fill="#191970" stroke="#191970" points="1141.7923,-252.1386 1131.2867,-253.5111 1140.3551,-258.9895 1141.7923,-252.1386"/>
</g>
<!-- Node3 -->
<g id="node4" class="node">
<title>Node3</title>
<polygon fill="#ffffff" stroke="#bfbfbf" points="1168.8452,-235.5 1168.8452,-253.5 1356.6177,-253.5 1356.6177,-235.5 1168.8452,-235.5"/>
<text text-anchor="middle" x="1262.7314" y="-241.5" font-family="Helvetica,sans-Serif" font-size="10.00" fill="#000000">Teuchos_CommandLineProcessor.hpp</text>
</g>
<!-- Node0&#45;&gt;Node3 -->
<g id="edge3" class="edge">
<title>Node0&#45;&gt;Node3</title>
<path fill="none" stroke="#191970" d="M1582.9099,-299.5571C1513.425,-287.6087 1397.2626,-267.6337 1325.6031,-255.3113"/>
<polygon fill="#191970" stroke="#191970" points="1325.8126,-251.796 1315.3641,-253.5506 1324.6263,-258.6947 1325.8126,-251.796"/>
</g>
<!-- Node4 -->
<g id="node5" class="node">
<title>Node4</title>
<polygon fill="#ffffff" stroke="#bfbfbf" points="1374.8501,-235.5 1374.8501,-253.5 1552.6128,-253.5 1552.6128,-235.5 1374.8501,-235.5"/>
<text text-anchor="middle" x="1463.7314" y="-241.5" font-family="Helvetica,sans-Serif" font-size="10.00" fill="#000000">Teuchos_StandardCatchMacros.hpp</text>
</g>
<!-- Node0&#45;&gt;Node4 -->
<g id="edge4" class="edge">
<title>Node0&#45;&gt;Node4</title>
<path fill="none" stroke="#191970" d="M1602.3251,-295.396C1571.2668,-283.9904 1527.9355,-268.0778 1498.0311,-257.0959"/>
<polygon fill="#191970" stroke="#191970" points="1499.0351,-253.7361 1488.4415,-253.5743 1496.622,-260.3071 1499.0351,-253.7361"/>
</g>
<!-- Node5 -->
<g id="node6" class="node">
<title>Node5</title>
<polygon fill="#ffffff" stroke="#bfbfbf" points="1570.4731,-235.5 1570.4731,-253.5 1710.9897,-253.5 1710.9897,-235.5 1570.4731,-235.5"/>
<text text-anchor="middle" x="1640.7314" y="-241.5" font-family="Helvetica,sans-Serif" font-size="10.00" fill="#000000">Teuchos_ParameterList.hpp</text>
</g>
<!-- Node0&#45;&gt;Node5 -->
<g id="edge5" class="edge">
<title>Node0&#45;&gt;Node5</title>
<path fill="none" stroke="#191970" d="M1640.7314,-295.396C1640.7314,-286.1723 1640.7314,-274.0011 1640.7314,-263.8738"/>
<polygon fill="#191970" stroke="#191970" points="1644.2315,-263.5743 1640.7314,-253.5743 1637.2315,-263.5743 1644.2315,-263.5743"/>
</g>
<!-- Node6 -->
<g id="node7" class="node">
<title>Node6</title>
<polygon fill="#ffffff" stroke="#bfbfbf" points="1728.9238,-230.5 1728.9238,-258.5 1870.5391,-258.5 1870.5391,-230.5 1728.9238,-230.5"/>
<text text-anchor="start" x="1736.9238" y="-246.5" font-family="Helvetica,sans-Serif" font-size="10.00" fill="#000000">Teuchos_XMLParameterList</text>
<text text-anchor="middle" x="1799.7314" y="-236.5" font-family="Helvetica,sans-Serif" font-size="10.00" fill="#000000">CoreHelpers.hpp</text>
</g>
<!-- Node0&#45;&gt;Node6 -->
<g id="edge6" class="edge">
<title>Node0&#45;&gt;Node6</title>
<path fill="none" stroke="#191970" d="M1675.2321,-295.396C1698.8805,-285.7284 1730.45,-272.8226 1755.8812,-262.4262"/>
<polygon fill="#191970" stroke="#191970" points="1757.3662,-265.6004 1765.2981,-258.5765 1754.7173,-259.1209 1757.3662,-265.6004"/>
</g>
<!-- Node7 -->
<g id="node8" class="node">
<title>Node7</title>
<g id="a_node8"><a xlink:href="../../dd/d1f/_arteries___model_c__gmrf__neumann_8hpp.html" target="_top" xlink:title="Arteries_ModelC_gmrf\l_neumann.hpp">
<polygon fill="#ffffff" stroke="#000000" points="1888.7144,-230.5 1888.7144,-258.5 2004.7485,-258.5 2004.7485,-230.5 1888.7144,-230.5"/>
<text text-anchor="start" x="1896.7144" y="-246.5" font-family="Helvetica,sans-Serif" font-size="10.00" fill="#000000">Arteries_ModelC_gmrf</text>
<text text-anchor="middle" x="1946.7314" y="-236.5" font-family="Helvetica,sans-Serif" font-size="10.00" fill="#000000">_neumann.hpp</text>
</a>
</g>
</g>
<!-- Node0&#45;&gt;Node7 -->
<g id="edge7" class="edge">
<title>Node0&#45;&gt;Node7</title>
<path fill="none" stroke="#191970" d="M1698.2155,-297.4362C1744.3678,-287.7316 1811.1164,-273.6543 1878.6614,-259.2235"/>
<polygon fill="#191970" stroke="#191970" points="1879.5832,-262.6056 1888.6305,-257.0923 1878.1198,-255.7603 1879.5832,-262.6056"/>
</g>
<!-- Node49 -->
<g id="node48" class="node">
<title>Node49</title>
<polygon fill="#ffffff" stroke="#bfbfbf" points="2271.1455,-165.5 2271.1455,-193.5 2388.3174,-193.5 2388.3174,-165.5 2271.1455,-165.5"/>
<text text-anchor="start" x="2279.1455" y="-181.5" font-family="Helvetica,sans-Serif" font-size="10.00" fill="#000000">boost/math/special</text>
<text text-anchor="middle" x="2329.7314" y="-171.5" font-family="Helvetica,sans-Serif" font-size="10.00" fill="#000000">_functions/gamma.hpp</text>
</g>
<!-- Node0&#45;&gt;Node49 -->
<g id="edge50" class="edge">
<title>Node0&#45;&gt;Node49</title>
<path fill="none" stroke="#191970" d="M1698.4286,-305.5686C1809.6998,-297.6547 2050.0783,-278.8557 2130.7314,-259 2189.1776,-244.6114 2253.2317,-216.6566 2292.4614,-198.0299"/>
<polygon fill="#191970" stroke="#191970" points="2294.3803,-200.9912 2301.8817,-193.5092 2291.3518,-194.6803 2294.3803,-200.9912"/>
</g>
<!-- Node51 -->
<g id="node50" class="node">
<title>Node51</title>
<g id="a_node50"><a xlink:href="../../d7/de5/shinozukapp_8hpp.html" target="_top" xlink:title="shinozukapp.hpp">
<polygon fill="#ffffff" stroke="#000000" points="2029.9238,-235.5 2029.9238,-253.5 2121.5391,-253.5 2121.5391,-235.5 2029.9238,-235.5"/>
<text text-anchor="middle" x="2075.7314" y="-241.5" font-family="Helvetica,sans-Serif" font-size="10.00" fill="#000000">shinozukapp.hpp</text>
</a>
</g>
</g>
<!-- Node0&#45;&gt;Node51 -->
<g id="edge51" class="edge">
<title>Node0&#45;&gt;Node51</title>
<path fill="none" stroke="#191970" d="M1698.5104,-303.4044C1772.0542,-295.2502 1902.8716,-279.4202 2013.7314,-259 2018.8988,-258.0482 2024.2846,-256.95 2029.6297,-255.7925"/>
<polygon fill="#191970" stroke="#191970" points="2030.797,-259.1178 2039.7901,-253.5166 2029.2668,-252.2871 2030.797,-259.1178"/>
</g>
<!-- Node8 -->
<g id="node9" class="node">
<title>Node8</title>
<g id="a_node9"><a xlink:href="../../de/d49/tensor__calculus_8hpp.html" target="_top" xlink:title="tensor_calculus.hpp">
<polygon fill="#ffffff" stroke="#000000" points="1377.2588,-110.5 1377.2588,-128.5 1482.2041,-128.5 1482.2041,-110.5 1377.2588,-110.5"/>
<text text-anchor="middle" x="1429.7314" y="-116.5" font-family="Helvetica,sans-Serif" font-size="10.00" fill="#000000">tensor_calculus.hpp</text>
</a>
</g>
</g>
<!-- Node7&#45;&gt;Node8 -->
<g id="edge8" class="edge">
<title>Node7&#45;&gt;Node8</title>
<path fill="none" stroke="#191970" d="M1888.7063,-231.4959C1885.6771,-230.9569 1882.672,-230.4536 1879.7314,-230 1794.5886,-216.865 1570.2639,-233.5552 1493.7314,-194 1469.32,-181.3831 1450.2807,-155.1276 1439.5239,-137.4049"/>
<polygon fill="#191970" stroke="#191970" points="1442.4549,-135.4818 1434.4185,-128.5777 1436.3954,-138.9864 1442.4549,-135.4818"/>
</g>
<!-- Node41 -->
<g id="node41" class="node">
<title>Node41</title>
<g id="a_node41"><a xlink:href="../../de/d9d/hyperelasticity__setup__pp_8hpp.html" target="_top" xlink:title="hyperelasticity_setup\l_pp.hpp">
<polygon fill="#ffffff" stroke="#000000" points="1503.0396,-165.5 1503.0396,-193.5 1612.4233,-193.5 1612.4233,-165.5 1503.0396,-165.5"/>
<text text-anchor="start" x="1511.0396" y="-181.5" font-family="Helvetica,sans-Serif" font-size="10.00" fill="#000000">hyperelasticity_setup</text>
<text text-anchor="middle" x="1557.7314" y="-171.5" font-family="Helvetica,sans-Serif" font-size="10.00" fill="#000000">_pp.hpp</text>
</a>
</g>
</g>
<!-- Node7&#45;&gt;Node41 -->
<g id="edge40" class="edge">
<title>Node7&#45;&gt;Node41</title>
<path fill="none" stroke="#191970" d="M1888.6791,-231.6595C1885.6571,-231.0778 1882.6608,-230.5206 1879.7314,-230 1768.857,-210.2952 1737.3332,-214.5514 1622.3783,-194.0148"/>
<polygon fill="#191970" stroke="#191970" points="1622.9455,-190.5607 1612.4819,-192.2229 1621.6983,-197.4487 1622.9455,-190.5607"/>
</g>
<!-- Node45 -->
<g id="node44" class="node">
<title>Node45</title>
<polygon fill="#ffffff" stroke="#bfbfbf" points="1880.5347,-165.5 1880.5347,-193.5 2004.9282,-193.5 2004.9282,-165.5 1880.5347,-165.5"/>
<text text-anchor="start" x="1888.5347" y="-181.5" font-family="Helvetica,sans-Serif" font-size="10.00" fill="#000000">boost/random/mersenne</text>
<text text-anchor="middle" x="1942.7314" y="-171.5" font-family="Helvetica,sans-Serif" font-size="10.00" fill="#000000">_twister.hpp</text>
</g>
<!-- Node7&#45;&gt;Node45 -->
<g id="edge44" class="edge">
<title>Node7&#45;&gt;Node45</title>
<path fill="none" stroke="#191970" d="M1945.8635,-230.396C1945.3813,-222.5597 1944.7681,-212.5958 1944.2124,-203.5653"/>
<polygon fill="#191970" stroke="#191970" points="1947.7054,-203.3426 1943.5977,-193.5765 1940.7186,-203.7726 1947.7054,-203.3426"/>
</g>
<!-- Node46 -->
<g id="node45" class="node">
<title>Node46</title>
<polygon fill="#ffffff" stroke="#bfbfbf" points="2023.0962,-165.5 2023.0962,-193.5 2136.3667,-193.5 2136.3667,-165.5 2023.0962,-165.5"/>
<text text-anchor="start" x="2031.0962" y="-181.5" font-family="Helvetica,sans-Serif" font-size="10.00" fill="#000000">boost/random/uniform</text>
<text text-anchor="middle" x="2079.7314" y="-171.5" font-family="Helvetica,sans-Serif" font-size="10.00" fill="#000000">_real_distribution.hpp</text>
</g>
<!-- Node7&#45;&gt;Node46 -->
<g id="edge45" class="edge">
<title>Node7&#45;&gt;Node46</title>
<path fill="none" stroke="#191970" d="M1975.5905,-230.396C1995.0233,-220.8987 2020.8505,-208.2764 2041.9224,-197.9781"/>
<polygon fill="#191970" stroke="#191970" points="2043.4811,-201.112 2050.9287,-193.5765 2040.4075,-194.8229 2043.4811,-201.112"/>
</g>
<!-- Node47 -->
<g id="node46" class="node">
<title>Node47</title>
<polygon fill="#ffffff" stroke="#bfbfbf" points="2154.042,-165.5 2154.042,-193.5 2253.4209,-193.5 2253.4209,-165.5 2154.042,-165.5"/>
<text text-anchor="start" x="2162.042" y="-181.5" font-family="Helvetica,sans-Serif" font-size="10.00" fill="#000000">boost/math/special</text>
<text text-anchor="middle" x="2203.7314" y="-171.5" font-family="Helvetica,sans-Serif" font-size="10.00" fill="#000000">_functions/erf.hpp</text>
</g>
<!-- Node7&#45;&gt;Node47 -->
<g id="edge46" class="edge">
<title>Node7&#45;&gt;Node47</title>
<path fill="none" stroke="#191970" d="M2002.1802,-230.476C2044.0707,-219.8811 2101.4709,-205.3636 2144.3031,-194.5305"/>
<polygon fill="#191970" stroke="#191970" points="2145.1964,-197.9149 2154.0329,-192.0697 2143.48,-191.1286 2145.1964,-197.9149"/>
</g>
<!-- Node48 -->
<g id="node47" class="node">
<title>Node48</title>
<polygon fill="#ffffff" stroke="#bfbfbf" points="1630.4854,-165.5 1630.4854,-193.5 1740.9775,-193.5 1740.9775,-165.5 1630.4854,-165.5"/>
<text text-anchor="start" x="1638.4854" y="-181.5" font-family="Helvetica,sans-Serif" font-size="10.00" fill="#000000">boost/random/normal</text>
<text text-anchor="middle" x="1685.7314" y="-171.5" font-family="Helvetica,sans-Serif" font-size="10.00" fill="#000000">_distribution.hpp</text>
</g>
<!-- Node7&#45;&gt;Node48 -->
<g id="edge47" class="edge">
<title>Node7&#45;&gt;Node48</title>
<path fill="none" stroke="#191970" d="M1890.4197,-230.476C1849.4065,-220.262 1793.7543,-206.4022 1750.8317,-195.7127"/>
<polygon fill="#191970" stroke="#191970" points="1751.5955,-192.2961 1741.0461,-193.2757 1749.9038,-199.0886 1751.5955,-192.2961"/>
</g>
<!-- Node7&#45;&gt;Node49 -->
<g id="edge48" class="edge">
<title>Node7&#45;&gt;Node49</title>
<path fill="none" stroke="#191970" d="M2004.8544,-232.85C2010.2163,-231.8541 2015.5708,-230.889 2020.7314,-230 2124.7528,-212.0813 2154.0563,-213.4128 2261.0453,-194.2422"/>
<polygon fill="#191970" stroke="#191970" points="2261.7323,-197.6748 2270.9489,-192.4493 2260.4853,-190.7868 2261.7323,-197.6748"/>
</g>
<!-- Node50 -->
<g id="node49" class="node">
<title>Node50</title>
<polygon fill="#ffffff" stroke="#bfbfbf" points="1759.0864,-165.5 1759.0864,-193.5 1862.3765,-193.5 1862.3765,-165.5 1759.0864,-165.5"/>
<text text-anchor="start" x="1767.0864" y="-181.5" font-family="Helvetica,sans-Serif" font-size="10.00" fill="#000000">boost/math/special</text>
<text text-anchor="middle" x="1810.7314" y="-171.5" font-family="Helvetica,sans-Serif" font-size="10.00" fill="#000000">_functions/beta.hpp</text>
</g>
<!-- Node7&#45;&gt;Node50 -->
<g id="edge49" class="edge">
<title>Node7&#45;&gt;Node50</title>
<path fill="none" stroke="#191970" d="M1917.2215,-230.396C1897.3503,-220.8987 1870.9406,-208.2764 1849.3933,-197.9781"/>
<polygon fill="#191970" stroke="#191970" points="1850.7156,-194.7309 1840.1838,-193.5765 1847.697,-201.0466 1850.7156,-194.7309"/>
</g>
<!-- Node9 -->
<g id="node10" class="node">
<title>Node9</title>
<g id="a_node10"><a xlink:href="../../d0/d02/meshpp_8hpp.html" target="_top" xlink:title="meshpp.hpp">
<polygon fill="#ffffff" stroke="#ff0000" points="1537.2119,-55.5 1537.2119,-73.5 1608.251,-73.5 1608.251,-55.5 1537.2119,-55.5"/>
<text text-anchor="middle" x="1572.7314" y="-61.5" font-family="Helvetica,sans-Serif" font-size="10.00" fill="#000000">meshpp.hpp</text>
</a>
</g>
</g>
<!-- Node8&#45;&gt;Node9 -->
<g id="edge9" class="edge">
<title>Node8&#45;&gt;Node9</title>
<path fill="none" stroke="#191970" d="M1453.345,-110.4179C1476.8391,-101.3817 1513.0997,-87.4353 1539.4962,-77.2828"/>
<polygon fill="#191970" stroke="#191970" points="1541.0058,-80.4522 1549.0828,-73.5956 1538.4929,-73.9188 1541.0058,-80.4522"/>
</g>
<!-- Node10 -->
<g id="node11" class="node">
<title>Node10</title>
<polygon fill="#ffffff" stroke="#bfbfbf" points="0,-.5 0,-18.5 45.4629,-18.5 45.4629,-.5 0,-.5"/>
<text text-anchor="middle" x="22.7314" y="-6.5" font-family="Helvetica,sans-Serif" font-size="10.00" fill="#000000">stdio.h</text>
</g>
<!-- Node9&#45;&gt;Node10 -->
<g id="edge10" class="edge">
<title>Node9&#45;&gt;Node10</title>
<path fill="none" stroke="#191970" d="M1537.129,-63.9843C1326.5882,-60.8626 247.4555,-43.8418 55.7851,-18.5548"/>
<polygon fill="#191970" stroke="#191970" points="56.0396,-15.0549 45.6387,-17.0728 55.0279,-21.9814 56.0396,-15.0549"/>
</g>
<!-- Node11 -->
<g id="node12" class="node">
<title>Node11</title>
<polygon fill="#ffffff" stroke="#bfbfbf" points="63.5591,-.5 63.5591,-18.5 117.9038,-18.5 117.9038,-.5 63.5591,-.5"/>
<text text-anchor="middle" x="90.7314" y="-6.5" font-family="Helvetica,sans-Serif" font-size="10.00" fill="#000000">iostream</text>
</g>
<!-- Node9&#45;&gt;Node11 -->
<g id="edge11" class="edge">
<title>Node9&#45;&gt;Node11</title>
<path fill="none" stroke="#191970" d="M1537.0782,-64.4392C1345.1785,-63.9525 432.9102,-59.5796 128.2202,-18.6438"/>
<polygon fill="#191970" stroke="#191970" points="128.4618,-15.1439 118.0753,-17.2348 127.4987,-22.0773 128.4618,-15.1439"/>
</g>
<!-- Node12 -->
<g id="node13" class="node">
<title>Node12</title>
<polygon fill="#ffffff" stroke="#bfbfbf" points="136.3398,-.5 136.3398,-18.5 185.123,-18.5 185.123,-.5 136.3398,-.5"/>
<text text-anchor="middle" x="160.7314" y="-6.5" font-family="Helvetica,sans-Serif" font-size="10.00" fill="#000000">istream</text>
</g>
<!-- Node9&#45;&gt;Node12 -->
<g id="edge12" class="edge">
<title>Node9&#45;&gt;Node12</title>
<path fill="none" stroke="#191970" d="M1537.1579,-63.8523C1338.6378,-60.1688 370.6517,-41.2844 195.4003,-18.7467"/>
<polygon fill="#191970" stroke="#191970" points="195.8436,-15.2746 185.4494,-17.3264 194.8545,-22.2043 195.8436,-15.2746"/>
</g>
<!-- Node13 -->
<g id="node14" class="node">
<title>Node13</title>
<polygon fill="#ffffff" stroke="#bfbfbf" points="203.0615,-.5 203.0615,-18.5 252.4014,-18.5 252.4014,-.5 203.0615,-.5"/>
<text text-anchor="middle" x="227.7314" y="-6.5" font-family="Helvetica,sans-Serif" font-size="10.00" fill="#000000">fstream</text>
</g>
<!-- Node9&#45;&gt;Node13 -->
<g id="edge13" class="edge">
<title>Node9&#45;&gt;Node13</title>
<path fill="none" stroke="#191970" d="M1536.9753,-63.7845C1344.0652,-59.8555 430.2153,-40.3501 262.4088,-18.7476"/>
<polygon fill="#191970" stroke="#191970" points="262.8452,-15.2745 252.4501,-17.3218 261.8531,-22.2038 262.8452,-15.2745"/>
</g>
<!-- Node14 -->
<g id="node15" class="node">
<title>Node14</title>
<polygon fill="#ffffff" stroke="#bfbfbf" points="270.1157,-.5 270.1157,-18.5 313.3472,-18.5 313.3472,-.5 270.1157,-.5"/>
<text text-anchor="middle" x="291.7314" y="-6.5" font-family="Helvetica,sans-Serif" font-size="10.00" fill="#000000">vector</text>
</g>
<!-- Node9&#45;&gt;Node14 -->
<g id="edge14" class="edge">
<title>Node9&#45;&gt;Node14</title>
<path fill="none" stroke="#191970" d="M1537.0747,-63.7777C1349.9642,-59.9124 484.2676,-41.0746 323.4677,-18.6967"/>
<polygon fill="#191970" stroke="#191970" points="323.9359,-15.2275 313.5168,-17.1487 322.8599,-22.1443 323.9359,-15.2275"/>
</g>
<!-- Node15 -->
<g id="node16" class="node">
<title>Node15</title>
<polygon fill="#ffffff" stroke="#bfbfbf" points="331.2217,-.5 331.2217,-18.5 382.2412,-18.5 382.2412,-.5 331.2217,-.5"/>
<text text-anchor="middle" x="356.7314" y="-6.5" font-family="Helvetica,sans-Serif" font-size="10.00" fill="#000000">iomanip</text>
</g>
<!-- Node9&#45;&gt;Node15 -->
<g id="edge15" class="edge">
<title>Node9&#45;&gt;Node15</title>
<path fill="none" stroke="#191970" d="M1537.0345,-64.2136C1367.3984,-62.6886 641.0439,-54.2711 392.6365,-18.7127"/>
<polygon fill="#191970" stroke="#191970" points="392.9909,-15.227 382.5849,-17.2183 391.9615,-22.1509 392.9909,-15.227"/>
</g>
<!-- Node16 -->
<g id="node17" class="node">
<title>Node16</title>
<polygon fill="#ffffff" stroke="#bfbfbf" points="400.271,-.5 400.271,-18.5 505.1919,-18.5 505.1919,-.5 400.271,-.5"/>
<text text-anchor="middle" x="452.7314" y="-6.5" font-family="Helvetica,sans-Serif" font-size="10.00" fill="#000000">Epetra_MpiComm.h</text>
</g>
<!-- Node9&#45;&gt;Node16 -->
<g id="edge16" class="edge">
<title>Node9&#45;&gt;Node16</title>
<path fill="none" stroke="#191970" d="M1537.1109,-63.5048C1378.968,-59.0053 738.7427,-39.9149 515.262,-19.0253"/>
<polygon fill="#191970" stroke="#191970" points="515.5461,-15.5365 505.2564,-18.0609 514.8744,-22.5042 515.5461,-15.5365"/>
</g>
<!-- Node17 -->
<g id="node18" class="node">
<title>Node17</title>
<polygon fill="#ffffff" stroke="#bfbfbf" points="522.9878,-.5 522.9878,-18.5 638.4751,-18.5 638.4751,-.5 522.9878,-.5"/>
<text text-anchor="middle" x="580.7314" y="-6.5" font-family="Helvetica,sans-Serif" font-size="10.00" fill="#000000">Epetra_FECrsGraph.h</text>
</g>
<!-- Node9&#45;&gt;Node17 -->
<g id="edge17" class="edge">
<title>Node9&#45;&gt;Node17</title>
<path fill="none" stroke="#191970" d="M1536.933,-63.9197C1414.495,-61.6859 1001.0357,-52.0907 648.9343,-19.0254"/>
<polygon fill="#191970" stroke="#191970" points="649.0829,-15.5239 638.7974,-18.0654 648.4228,-22.4928 649.0829,-15.5239"/>
</g>
<!-- Node18 -->
<g id="node19" class="node">
<title>Node18</title>
<polygon fill="#ffffff" stroke="#bfbfbf" points="656.2734,-.5 656.2734,-18.5 771.1895,-18.5 771.1895,-.5 656.2734,-.5"/>
<text text-anchor="middle" x="713.7314" y="-6.5" font-family="Helvetica,sans-Serif" font-size="10.00" fill="#000000">Epetra_FECrsMatrix.h</text>
</g>
<!-- Node9&#45;&gt;Node18 -->
<g id="edge18" class="edge">
<title>Node9&#45;&gt;Node18</title>
<path fill="none" stroke="#191970" d="M1537.0787,-63.5427C1426.4763,-60.3428 1079.2199,-48.5632 781.4166,-19.0919"/>
<polygon fill="#191970" stroke="#191970" points="781.5871,-15.5916 771.2888,-18.0808 780.8916,-22.557 781.5871,-15.5916"/>
</g>
<!-- Node19 -->
<g id="node20" class="node">
<title>Node19</title>
<polygon fill="#ffffff" stroke="#bfbfbf" points="788.7563,-.5 788.7563,-18.5 888.7065,-18.5 888.7065,-.5 788.7563,-.5"/>
<text text-anchor="middle" x="838.7314" y="-6.5" font-family="Helvetica,sans-Serif" font-size="10.00" fill="#000000">Epetra_FEVector.h</text>
</g>
<!-- Node9&#45;&gt;Node19 -->
<g id="edge19" class="edge">
<title>Node9&#45;&gt;Node19</title>
<path fill="none" stroke="#191970" d="M1537.132,-63.2595C1437.8084,-59.552 1149.0869,-47.0972 898.9059,-19.0343"/>
<polygon fill="#191970" stroke="#191970" points="899.2304,-15.5487 888.9,-17.9012 898.4426,-22.5043 899.2304,-15.5487"/>
</g>
<!-- Node20 -->
<g id="node21" class="node">
<title>Node20</title>
<polygon fill="#ffffff" stroke="#bfbfbf" points="907.1455,-.5 907.1455,-18.5 994.3174,-18.5 994.3174,-.5 907.1455,-.5"/>
<text text-anchor="middle" x="950.7314" y="-6.5" font-family="Helvetica,sans-Serif" font-size="10.00" fill="#000000">Epetra_Vector.h</text>
</g>
<!-- Node9&#45;&gt;Node20 -->
<g id="edge20" class="edge">
<title>Node9&#45;&gt;Node20</title>
<path fill="none" stroke="#191970" d="M1536.9864,-62.8555C1448.5455,-58.5279 1212.2517,-45.3869 1004.5337,-18.975"/>
<polygon fill="#191970" stroke="#191970" points="1004.7166,-15.4698 994.352,-17.6667 1003.8243,-22.4127 1004.7166,-15.4698"/>
</g>
<!-- Node21 -->
<g id="node22" class="node">
<title>Node21</title>
<polygon fill="#ffffff" stroke="#bfbfbf" points="1012.3228,-.5 1012.3228,-18.5 1091.1401,-18.5 1091.1401,-.5 1012.3228,-.5"/>
<text text-anchor="middle" x="1051.7314" y="-6.5" font-family="Helvetica,sans-Serif" font-size="10.00" fill="#000000">Epetra_Map.h</text>
</g>
<!-- Node9&#45;&gt;Node21 -->
<g id="edge21" class="edge">
<title>Node9&#45;&gt;Node21</title>
<path fill="none" stroke="#191970" d="M1536.9836,-62.281C1459.4256,-57.2051 1269.7633,-43.3803 1101.2731,-19.1042"/>
<polygon fill="#191970" stroke="#191970" points="1101.6304,-15.6194 1091.2303,-17.641 1100.6211,-22.5462 1101.6304,-15.6194"/>
</g>
<!-- Node22 -->
<g id="node23" class="node">
<title>Node22</title>
<polygon fill="#ffffff" stroke="#bfbfbf" points="1109.2021,-.5 1109.2021,-18.5 1250.2607,-18.5 1250.2607,-.5 1109.2021,-.5"/>
<text text-anchor="middle" x="1179.7314" y="-6.5" font-family="Helvetica,sans-Serif" font-size="10.00" fill="#000000">Epetra_SerialDenseMatrix.h</text>
</g>
<!-- Node9&#45;&gt;Node22 -->
<g id="edge22" class="edge">
<title>Node9&#45;&gt;Node22</title>
<path fill="none" stroke="#191970" d="M1537.1622,-59.5221C1473.5234,-50.6159 1338.9372,-31.7807 1254.2851,-19.9337"/>
<polygon fill="#191970" stroke="#191970" points="1254.606,-16.4446 1244.2174,-18.5247 1253.6357,-23.377 1254.606,-16.4446"/>
</g>
<!-- Node23 -->
<g id="node24" class="node">
<title>Node23</title>
<polygon fill="#ffffff" stroke="#bfbfbf" points="1267.9092,-.5 1267.9092,-18.5 1409.5537,-18.5 1409.5537,-.5 1267.9092,-.5"/>
<text text-anchor="middle" x="1338.7314" y="-6.5" font-family="Helvetica,sans-Serif" font-size="10.00" fill="#000000">Epetra_SerialDenseVector.h</text>
</g>
<!-- Node9&#45;&gt;Node23 -->
<g id="edge23" class="edge">
<title>Node9&#45;&gt;Node23</title>
<path fill="none" stroke="#191970" d="M1537.1919,-56.1467C1497.1349,-46.7316 1431.788,-31.3723 1387.1015,-20.869"/>
<polygon fill="#191970" stroke="#191970" points="1387.8725,-17.4549 1377.3369,-18.5739 1386.2708,-24.2692 1387.8725,-17.4549"/>
</g>
<!-- Node24 -->
<g id="node25" class="node">
<title>Node24</title>
<polygon fill="#ffffff" stroke="#bfbfbf" points="1427.3501,-.5 1427.3501,-18.5 1580.1128,-18.5 1580.1128,-.5 1427.3501,-.5"/>
<text text-anchor="middle" x="1503.7314" y="-6.5" font-family="Helvetica,sans-Serif" font-size="10.00" fill="#000000">Epetra_IntSerialDenseVector.h</text>
</g>
<!-- Node9&#45;&gt;Node24 -->
<g id="edge24" class="edge">
<title>Node9&#45;&gt;Node24</title>
<path fill="none" stroke="#191970" d="M1561.3375,-55.4179C1551.0122,-47.1876 1535.5767,-34.8839 1523.2817,-25.0836"/>
<polygon fill="#191970" stroke="#191970" points="1525.3743,-22.2757 1515.3729,-18.7795 1521.0111,-27.7495 1525.3743,-22.2757"/>
</g>
<!-- Node25 -->
<g id="node26" class="node">
<title>Node25</title>
<polygon fill="#ffffff" stroke="#bfbfbf" points="1597.8794,-.5 1597.8794,-18.5 1685.5835,-18.5 1685.5835,-.5 1597.8794,-.5"/>
<text text-anchor="middle" x="1641.7314" y="-6.5" font-family="Helvetica,sans-Serif" font-size="10.00" fill="#000000">Epetra_Import.h</text>
</g>
<!-- Node9&#45;&gt;Node25 -->
<g id="edge25" class="edge">
<title>Node9&#45;&gt;Node25</title>
<path fill="none" stroke="#191970" d="M1584.1254,-55.4179C1594.4507,-47.1876 1609.8862,-34.8839 1622.1812,-25.0836"/>
<polygon fill="#191970" stroke="#191970" points="1624.4518,-27.7495 1630.0899,-18.7795 1620.0886,-22.2757 1624.4518,-27.7495"/>
</g>
<!-- Node26 -->
<g id="node27" class="node">
<title>Node26</title>
<polygon fill="#ffffff" stroke="#bfbfbf" points="1703.5986,-.5 1703.5986,-18.5 1791.8643,-18.5 1791.8643,-.5 1703.5986,-.5"/>
<text text-anchor="middle" x="1747.7314" y="-6.5" font-family="Helvetica,sans-Serif" font-size="10.00" fill="#000000">Epetra_Export.h</text>
</g>
<!-- Node9&#45;&gt;Node26 -->
<g id="edge26" class="edge">
<title>Node9&#45;&gt;Node26</title>
<path fill="none" stroke="#191970" d="M1601.6291,-55.4179C1631.102,-46.155 1676.9918,-31.7325 1709.4669,-21.526"/>
<polygon fill="#191970" stroke="#191970" points="1710.5912,-24.8415 1719.0817,-18.5042 1708.4923,-18.1636 1710.5912,-24.8415"/>
</g>
<!-- Node27 -->
<g id="node28" class="node">
<title>Node27</title>
<polygon fill="#ffffff" stroke="#bfbfbf" points="1810.1216,-.5 1810.1216,-18.5 1891.3413,-18.5 1891.3413,-.5 1810.1216,-.5"/>
<text text-anchor="middle" x="1850.7314" y="-6.5" font-family="Helvetica,sans-Serif" font-size="10.00" fill="#000000">Epetra_Time.h</text>
</g>
<!-- Node9&#45;&gt;Node27 -->
<g id="edge27" class="edge">
<title>Node9&#45;&gt;Node27</title>
<path fill="none" stroke="#191970" d="M1608.506,-57.4223C1657.1012,-47.8081 1744.2588,-30.5647 1799.7064,-19.5949"/>
<polygon fill="#191970" stroke="#191970" points="1800.5437,-22.9972 1809.6742,-17.6228 1799.185,-16.1303 1800.5437,-22.9972"/>
</g>
<!-- Node28 -->
<g id="node29" class="node">
<title>Node28</title>
<polygon fill="#ffffff" stroke="#bfbfbf" points="1909.0273,-.5 1909.0273,-18.5 2058.4355,-18.5 2058.4355,-.5 1909.0273,-.5"/>
<text text-anchor="middle" x="1983.7314" y="-6.5" font-family="Helvetica,sans-Serif" font-size="10.00" fill="#000000">ml_MultiLevelPreconditioner.h</text>
</g>
<!-- Node9&#45;&gt;Node28 -->
<g id="edge28" class="edge">
<title>Node9&#45;&gt;Node28</title>
<path fill="none" stroke="#191970" d="M1608.486,-59.7153C1674.5866,-50.8697 1817.2719,-31.7756 1906.4049,-19.8478"/>
<polygon fill="#191970" stroke="#191970" points="1907.0169,-23.2972 1916.4643,-18.5017 1906.0884,-16.3591 1907.0169,-23.2972"/>
</g>
<!-- Node29 -->
<g id="node30" class="node">
<title>Node29</title>
<polygon fill="#ffffff" stroke="#bfbfbf" points="2076.6553,-.5 2076.6553,-18.5 2168.8076,-18.5 2168.8076,-.5 2076.6553,-.5"/>
<text text-anchor="middle" x="2122.7314" y="-6.5" font-family="Helvetica,sans-Serif" font-size="10.00" fill="#000000">ml_epetra_utils.h</text>
</g>
<!-- Node9&#45;&gt;Node29 -->
<g id="edge29" class="edge">
<title>Node9&#45;&gt;Node29</title>
<path fill="none" stroke="#191970" d="M1608.2523,-62.2071C1688.2045,-56.8378 1888.5718,-42.2185 2066.4926,-19.071"/>
<polygon fill="#191970" stroke="#191970" points="2067.0995,-22.5214 2076.5586,-17.749 2066.1879,-15.581 2067.0995,-22.5214"/>
</g>
<!-- Node30 -->
<g id="node31" class="node">
<title>Node30</title>
<polygon fill="#ffffff" stroke="#bfbfbf" points="2186.6602,-.5 2186.6602,-18.5 2258.8027,-18.5 2258.8027,-.5 2186.6602,-.5"/>
<text text-anchor="middle" x="2222.7314" y="-6.5" font-family="Helvetica,sans-Serif" font-size="10.00" fill="#000000">ml_include.h</text>
</g>
<!-- Node9&#45;&gt;Node30 -->
<g id="edge30" class="edge">
<title>Node9&#45;&gt;Node30</title>
<path fill="none" stroke="#191970" d="M1608.3697,-63.4744C1700.6514,-60.467 1955.0608,-49.9391 2176.28,-19.0303"/>
<polygon fill="#191970" stroke="#191970" points="2177.0447,-22.4571 2186.4558,-17.5907 2176.0641,-15.5261 2177.0447,-22.4571"/>
</g>
<!-- Node31 -->
<g id="node32" class="node">
<title>Node31</title>
<polygon fill="#ffffff" stroke="#bfbfbf" points="2277.1528,-.5 2277.1528,-18.5 2414.3101,-18.5 2414.3101,-.5 2277.1528,-.5"/>
<text text-anchor="middle" x="2345.7314" y="-6.5" font-family="Helvetica,sans-Serif" font-size="10.00" fill="#000000">EpetraExt_RowMatrixOut.h</text>
</g>
<!-- Node9&#45;&gt;Node31 -->
<g id="edge31" class="edge">
<title>Node9&#45;&gt;Node31</title>
<path fill="none" stroke="#191970" d="M1608.595,-62.8601C1710.0767,-58.0691 2008.1135,-42.9594 2266.888,-19.0284"/>
<polygon fill="#191970" stroke="#191970" points="2267.218,-22.5129 2276.8504,-18.1008 2266.569,-15.543 2267.218,-22.5129"/>
</g>
<!-- Node32 -->
<g id="node33" class="node">
<title>Node32</title>
<polygon fill="#ffffff" stroke="#bfbfbf" points="2432.0322,-.5 2432.0322,-18.5 2571.4307,-18.5 2571.4307,-.5 2432.0322,-.5"/>
<text text-anchor="middle" x="2501.7314" y="-6.5" font-family="Helvetica,sans-Serif" font-size="10.00" fill="#000000">EpetraExt_MultiVectorOut.h</text>
</g>
<!-- Node9&#45;&gt;Node32 -->
<g id="edge32" class="edge">
<title>Node9&#45;&gt;Node32</title>
<path fill="none" stroke="#191970" d="M1608.4636,-63.4571C1724.3633,-59.8909 2100.4942,-46.8788 2422.0391,-19.0968"/>
<polygon fill="#191970" stroke="#191970" points="2422.356,-22.5825 2432.0149,-18.2286 2421.749,-15.6089 2422.356,-22.5825"/>
</g>
<!-- Node33 -->
<g id="node34" class="node">
<title>Node33</title>
<polygon fill="#ffffff" stroke="#bfbfbf" points="2589.478,-.5 2589.478,-18.5 2699.9849,-18.5 2699.9849,-.5 2589.478,-.5"/>
<text text-anchor="middle" x="2644.7314" y="-6.5" font-family="Helvetica,sans-Serif" font-size="10.00" fill="#000000">EpetraExt_VectorIn.h</text>
</g>
<!-- Node9&#45;&gt;Node33 -->
<g id="edge33" class="edge">
<title>Node9&#45;&gt;Node33</title>
<path fill="none" stroke="#191970" d="M1608.5361,-64.2063C1737.9343,-62.8667 2193.6032,-55.7335 2579.3141,-19.0421"/>
<polygon fill="#191970" stroke="#191970" points="2579.6511,-22.5259 2589.2711,-18.0868 2578.9825,-15.5579 2579.6511,-22.5259"/>
</g>
<!-- Node34 -->
<g id="node35" class="node">
<title>Node34</title>
<polygon fill="#ffffff" stroke="#bfbfbf" points="2717.9214,-.5 2717.9214,-18.5 2849.5415,-18.5 2849.5415,-.5 2717.9214,-.5"/>
<text text-anchor="middle" x="2783.7314" y="-6.5" font-family="Helvetica,sans-Serif" font-size="10.00" fill="#000000">EpetraExt_MultiVectorIn.h</text>
</g>
<!-- Node9&#45;&gt;Node34 -->
<g id="edge34" class="edge">
<title>Node9&#45;&gt;Node34</title>
<path fill="none" stroke="#191970" d="M1608.6134,-64.1848C1748.1934,-62.7232 2268.5235,-55.0821 2707.8777,-18.9923"/>
<polygon fill="#191970" stroke="#191970" points="2708.2377,-22.4746 2717.915,-18.1617 2707.6604,-15.4984 2708.2377,-22.4746"/>
</g>
<!-- Node35 -->
<g id="node36" class="node">
<title>Node35</title>
<polygon fill="#ffffff" stroke="#bfbfbf" points="2867.6841,-.5 2867.6841,-18.5 2965.7788,-18.5 2965.7788,-.5 2867.6841,-.5"/>
<text text-anchor="middle" x="2916.7314" y="-6.5" font-family="Helvetica,sans-Serif" font-size="10.00" fill="#000000">Teuchos_RCP.hpp</text>
</g>
<!-- Node9&#45;&gt;Node35 -->
<g id="edge35" class="edge">
<title>Node9&#45;&gt;Node35</title>
<path fill="none" stroke="#191970" d="M1608.4874,-63.8497C1787.2235,-60.5063 2585.6322,-44.4548 2857.214,-18.9995"/>
<polygon fill="#191970" stroke="#191970" points="2857.8096,-22.4584 2867.4267,-18.0129 2857.1364,-15.4908 2857.8096,-22.4584"/>
</g>
<!-- Node36 -->
<g id="node37" class="node">
<title>Node36</title>
<polygon fill="#ffffff" stroke="#bfbfbf" points="2983.5,-.5 2983.5,-18.5 3043.9629,-18.5 3043.9629,-.5 2983.5,-.5"/>
<text text-anchor="middle" x="3013.7314" y="-6.5" font-family="Helvetica,sans-Serif" font-size="10.00" fill="#000000">Amesos.h</text>
</g>
<!-- Node9&#45;&gt;Node36 -->
<g id="edge36" class="edge">
<title>Node9&#45;&gt;Node36</title>
<path fill="none" stroke="#191970" d="M1608.5601,-64.339C1797.2839,-63.3404 2678.2166,-56.7736 2972.9537,-18.9308"/>
<polygon fill="#191970" stroke="#191970" points="2973.737,-22.3576 2983.1891,-17.5713 2972.8153,-15.4185 2973.737,-22.3576"/>
</g>
<!-- Node37 -->
<g id="node38" class="node">
<title>Node37</title>
<polygon fill="#ffffff" stroke="#bfbfbf" points="3062.2783,-.5 3062.2783,-18.5 3127.1846,-18.5 3127.1846,-.5 3062.2783,-.5"/>
<text text-anchor="middle" x="3094.7314" y="-6.5" font-family="Helvetica,sans-Serif" font-size="10.00" fill="#000000">AztecOO.h</text>
</g>
<!-- Node9&#45;&gt;Node37 -->
<g id="edge37" class="edge">
<title>Node9&#45;&gt;Node37</title>
<path fill="none" stroke="#191970" d="M1608.2583,-64.332C1802.6707,-63.2741 2739.9837,-56.3528 3051.885,-18.8044"/>
<polygon fill="#191970" stroke="#191970" points="3052.3303,-22.2761 3061.8227,-17.5704 3051.4676,-15.3295 3052.3303,-22.2761"/>
</g>
<!-- Node38 -->
<g id="node39" class="node">
<title>Node38</title>
<polygon fill="#ffffff" stroke="#bfbfbf" points="3145.4238,-.5 3145.4238,-18.5 3262.0391,-18.5 3262.0391,-.5 3145.4238,-.5"/>
<text text-anchor="middle" x="3203.7314" y="-6.5" font-family="Helvetica,sans-Serif" font-size="10.00" fill="#000000">Amesos_BaseSolver.h</text>
</g>
<!-- Node9&#45;&gt;Node38 -->
<g id="edge38" class="edge">
<title>Node9&#45;&gt;Node38</title>
<path fill="none" stroke="#191970" d="M1608.528,-63.9926C1809.9187,-61.0579 2804.1253,-45.4888 3135.1002,-18.9257"/>
<polygon fill="#191970" stroke="#191970" points="3135.4927,-22.4053 3145.1718,-18.0966 3134.9184,-15.4289 3135.4927,-22.4053"/>
</g>
<!-- Node39 -->
<g id="node40" class="node">
<title>Node39</title>
<polygon fill="#ffffff" stroke="#bfbfbf" points="3279.6157,-.5 3279.6157,-18.5 3327.8472,-18.5 3327.8472,-.5 3279.6157,-.5"/>
<text text-anchor="middle" x="3303.7314" y="-6.5" font-family="Helvetica,sans-Serif" font-size="10.00" fill="#000000">metis.h</text>
</g>
<!-- Node9&#45;&gt;Node39 -->
<g id="edge39" class="edge">
<title>Node9&#45;&gt;Node39</title>
<path fill="none" stroke="#191970" d="M1608.3771,-64.0873C1833.7889,-61.4069 3058.3625,-45.7772 3269.3046,-18.6803"/>
<polygon fill="#191970" stroke="#191970" points="3269.9659,-22.1217 3279.3777,-17.2565 3268.9862,-15.1906 3269.9659,-22.1217"/>
</g>
<!-- Node42 -->
<g id="node42" class="node">
<title>Node42</title>
<g id="a_node42"><a xlink:href="../../d2/d8b/_finite___element___problem_8hpp.html" target="_top" xlink:title="Finite_Element_Problem.hpp">
<polygon fill="#ffffff" stroke="#000000" points="1500.2515,-110.5 1500.2515,-128.5 1645.2114,-128.5 1645.2114,-110.5 1500.2515,-110.5"/>
<text text-anchor="middle" x="1572.7314" y="-116.5" font-family="Helvetica,sans-Serif" font-size="10.00" fill="#000000">Finite_Element_Problem.hpp</text>
</a>
</g>
</g>
<!-- Node41&#45;&gt;Node42 -->
<g id="edge41" class="edge">
<title>Node41&#45;&gt;Node42</title>
<path fill="none" stroke="#191970" d="M1561.2862,-165.2808C1563.2843,-157.2888 1565.8045,-147.2079 1567.9711,-138.5414"/>
<polygon fill="#191970" stroke="#191970" points="1571.4305,-139.1345 1570.4604,-128.5842 1564.6395,-137.4367 1571.4305,-139.1345"/>
</g>
<!-- Node43 -->
<g id="node43" class="node">
<title>Node43</title>
<g id="a_node43"><a xlink:href="../../d5/d3f/laplacepp_8hpp.html" target="_top" xlink:title="laplacepp.hpp">
<polygon fill="#ffffff" stroke="#ff0000" points="1663.5938,-110.5 1663.5938,-128.5 1741.8691,-128.5 1741.8691,-110.5 1663.5938,-110.5"/>
<text text-anchor="middle" x="1702.7314" y="-116.5" font-family="Helvetica,sans-Serif" font-size="10.00" fill="#000000">laplacepp.hpp</text>
</a>
</g>
</g>
<!-- Node41&#45;&gt;Node43 -->
<g id="edge43" class="edge">
<title>Node41&#45;&gt;Node43</title>
<path fill="none" stroke="#191970" d="M1591.7275,-165.4327C1615.7512,-155.4918 1647.721,-142.263 1671.1799,-132.5558"/>
<polygon fill="#191970" stroke="#191970" points="1672.7628,-135.6887 1680.6647,-128.6311 1670.0863,-129.2206 1672.7628,-135.6887"/>
</g>
<!-- Node42&#45;&gt;Node9 -->
<g id="edge42" class="edge">
<title>Node42&#45;&gt;Node9</title>
<path fill="none" stroke="#191970" d="M1572.7314,-110.4179C1572.7314,-103.2164 1572.7314,-92.8962 1572.7314,-83.8632"/>
<polygon fill="#191970" stroke="#191970" points="1576.2315,-83.7794 1572.7314,-73.7795 1569.2315,-83.7795 1576.2315,-83.7794"/>
</g>
<!-- Node51&#45;&gt;Node9 -->
<g id="edge52" class="edge">
<title>Node51&#45;&gt;Node9</title>
<path fill="none" stroke="#191970" d="M2121.7409,-240.5698C2206.4303,-232.8676 2380.007,-214.7209 2397.7314,-194 2406.1095,-184.2056 2406.2765,-174.6491 2397.7314,-165 2345.6348,-106.1719 1784.8117,-74.6899 1618.7827,-66.6119"/>
<polygon fill="#191970" stroke="#191970" points="1618.5839,-63.0983 1608.4272,-66.1136 1618.2474,-70.0903 1618.5839,-63.0983"/>
</g>
<!-- Node51&#45;&gt;Node45 -->
<g id="edge53" class="edge">
<title>Node51&#45;&gt;Node45</title>
<path fill="none" stroke="#191970" d="M2057.2384,-235.462C2037.5549,-225.8423 2005.8561,-210.3504 1980.7955,-198.1027"/>
<polygon fill="#191970" stroke="#191970" points="1982.0759,-194.8329 1971.5546,-193.5865 1979.0022,-201.122 1982.0759,-194.8329"/>
</g>
<!-- Node51&#45;&gt;Node46 -->
<g id="edge54" class="edge">
<title>Node51&#45;&gt;Node46</title>
<path fill="none" stroke="#191970" d="M2076.2876,-235.462C2076.7887,-227.3201 2077.5486,-214.9715 2078.2272,-203.9438"/>
<polygon fill="#191970" stroke="#191970" points="2081.7209,-204.152 2078.8419,-193.9559 2074.7341,-203.722 2081.7209,-204.152"/>
</g>
<!-- Node51&#45;&gt;Node47 -->
<g id="edge55" class="edge">
<title>Node51&#45;&gt;Node47</title>
<path fill="none" stroke="#191970" d="M2093.5293,-235.462C2112.3287,-225.9155 2142.5164,-210.5857 2166.5469,-198.3828"/>
<polygon fill="#191970" stroke="#191970" points="2168.4186,-201.3578 2175.7501,-193.7093 2165.2491,-195.1164 2168.4186,-201.3578"/>
</g>
<!-- Node51&#45;&gt;Node48 -->
<g id="edge56" class="edge">
<title>Node51&#45;&gt;Node48</title>
<path fill="none" stroke="#191970" d="M2039.789,-235.4893C2031.2783,-233.5238 2022.2104,-231.566 2013.7314,-230 1900.4659,-209.0807 1868.0158,-214.7627 1751.2271,-194.1723"/>
<polygon fill="#191970" stroke="#191970" points="1751.6341,-190.6896 1741.1738,-192.3723 1750.4004,-197.5801 1751.6341,-190.6896"/>
</g>
<!-- Node51&#45;&gt;Node49 -->
<g id="edge57" class="edge">
<title>Node51&#45;&gt;Node49</title>
<path fill="none" stroke="#191970" d="M2111.0491,-235.462C2150.71,-225.3126 2215.9143,-208.6264 2264.8229,-196.1104"/>
<polygon fill="#191970" stroke="#191970" points="2265.8656,-199.4565 2274.6857,-193.5865 2264.1301,-192.675 2265.8656,-199.4565"/>
</g>
<!-- Node51&#45;&gt;Node50 -->
<g id="edge58" class="edge">
<title>Node51&#45;&gt;Node50</title>
<path fill="none" stroke="#191970" d="M2038.8843,-235.462C1995.9528,-224.9316 1924.3338,-207.3647 1872.7798,-194.7194"/>
<polygon fill="#191970" stroke="#191970" points="1873.2969,-191.2426 1862.751,-192.2595 1871.6293,-198.041 1873.2969,-191.2426"/>
</g>
</g>
</svg>
        <g id="navigator" transform="translate(0 0)" fill="#404254">
                <rect fill="#f2f5e9" fill-opacity="0.5" stroke="#606060" stroke-width=".5" x="0" y="0" width="60" height="60"/>
                <use id="zoomplus" xlink:href="#zoomPlus" x="17" y="9" onmousedown="handleZoom(evt,'in')"/>
                <use id="zoomminus" xlink:href="#zoomMin" x="42" y="9" onmousedown="handleZoom(evt,'out')"/>
                <use id="reset" xlink:href="#resetDef" x="30" y="36" onmousedown="handleReset()"/>
                <g id="arrowUp" xlink:href="#dirArrow" transform="translate(30 24)" onmousedown="handlePan(0,-1)">
                  <use xlink:href="#rim" fill="#404040">
                        <set attributeName="fill" to="#808080" begin="arrowUp.mouseover" end="arrowUp.mouseout"/>
                  </use>
                  <path fill="none" stroke="white" stroke-width="1.5" d="M0,-3.0v7 M-2.5,-0.5L0,-3.0L2.5,-0.5"/>
                </g>
                <g id="arrowRight" xlink:href="#dirArrow" transform="rotate(90) translate(36 -43)" onmousedown="handlePan(1,0)">
                  <use xlink:href="#rim" fill="#404040">
                        <set attributeName="fill" to="#808080" begin="arrowRight.mouseover" end="arrowRight.mouseout"/>
                  </use>
                  <path fill="none" stroke="white" stroke-width="1.5" d="M0,-3.0v7 M-2.5,-0.5L0,-3.0L2.5,-0.5"/>
                </g>
                <g id="arrowDown" xlink:href="#dirArrow" transform="rotate(180) translate(-30 -48)" onmousedown="handlePan(0,1)">
                  <use xlink:href="#rim" fill="#404040">
                        <set attributeName="fill" to="#808080" begin="arrowDown.mouseover" end="arrowDown.mouseout"/>
                  </use>
                  <path fill="none" stroke="white" stroke-width="1.5" d="M0,-3.0v7 M-2.5,-0.5L0,-3.0L2.5,-0.5"/>
                </g>
                <g id="arrowLeft" xlink:href="#dirArrow" transform="rotate(270) translate(-36 17)" onmousedown="handlePan(-1,0)">
                  <use xlink:href="#rim" fill="#404040">
                        <set attributeName="fill" to="#808080" begin="arrowLeft.mouseover" end="arrowLeft.mouseout"/>
                  </use>
                  <path fill="none" stroke="white" stroke-width="1.5" d="M0,-3.0v7 M-2.5,-0.5L0,-3.0L2.5,-0.5"/>
                </g>
        </g>
        <svg viewBox="0 0 15 15" width="100%" height="30px" preserveAspectRatio="xMaxYMin meet">
         <g id="arrow_out" transform="scale(0.3 0.3)">
          <a xlink:href="arteries_2boost__gmrf_2gmrf__nodes_2main_8cpp__incl_org.svg" target="_base">
           <rect id="button" ry="5" rx="5" y="6" x="6" height="38" width="38"
                fill="#f2f5e9" fill-opacity="0.5" stroke="#606060" stroke-width="1.0"/>
           <path id="arrow"
             d="M 11.500037,31.436501 C 11.940474,20.09759 22.043105,11.32322 32.158766,21.979434 L 37.068811,17.246167 C 37.068811,17.246167 37.088388,32 37.088388,32 L 22.160133,31.978069 C 22.160133,31.978069 26.997745,27.140456 26.997745,27.140456 C 18.528582,18.264221 13.291696,25.230495 11.500037,31.436501 z"
             style="fill:#404040;"/>
          </a>
         </g>
        </svg>
</svg>
