<?xml version="1.0" encoding="UTF-8" standalone="no"?>
<!DOCTYPE svg PUBLIC "-//W3C//DTD SVG 1.1//EN"
 "http://www.w3.org/Graphics/SVG/1.1/DTD/svg11.dtd">
<!-- Generated by graphviz version 2.40.1 (20161225.0304)
 -->
<!-- Title: laplace Pages: 1 -->
<svg width="124pt" height="158pt"
 viewBox="0.00 0.00 124.06 158.00" xmlns="http://www.w3.org/2000/svg" xmlns:xlink="http://www.w3.org/1999/xlink">
<g id="graph0" class="graph" transform="scale(1 1) rotate(0) translate(4 154)">
<title>laplace</title>
<polygon fill="#ffffff" stroke="transparent" points="-4,4 -4,-154 120.0586,-154 120.0586,4 -4,4"/>
<!-- Node2 -->
<g id="node1" class="node">
<title>Node2</title>
<polygon fill="#bfbfbf" stroke="#000000" points="34.1846,-.5 34.1846,-18.5 81.874,-18.5 81.874,-.5 34.1846,-.5"/>
<text text-anchor="middle" x="58.0293" y="-6.5" font-family="Helvetica,sans-Serif" font-size="10.00" fill="#000000">laplace</text>
</g>
<!-- Node3 -->
<g id="node2" class="node">
<title>Node3</title>
<g id="a_node2"><a xlink:href="../../d3/d9f/class_linear___finite___element___problem.html" target="_top" xlink:title="Linear_Finite_Element\l_Problem">
<polygon fill="#ffffff" stroke="#000000" points="0,-56.5 0,-84.5 116.0586,-84.5 116.0586,-56.5 0,-56.5"/>
<text text-anchor="start" x="8" y="-72.5" font-family="Helvetica,sans-Serif" font-size="10.00" fill="#000000">Linear_Finite_Element</text>
<text text-anchor="middle" x="58.0293" y="-62.5" font-family="Helvetica,sans-Serif" font-size="10.00" fill="#000000">_Problem</text>
</a>
</g>
</g>
<!-- Node3&#45;&gt;Node2 -->
<g id="edge1" class="edge">
<title>Node3&#45;&gt;Node2</title>
<path fill="none" stroke="#191970" d="M58.0293,-46.1001C58.0293,-36.5157 58.0293,-26.0935 58.0293,-18.831"/>
<polygon fill="#191970" stroke="#191970" points="54.5294,-46.352 58.0293,-56.3521 61.5294,-46.3521 54.5294,-46.352"/>
</g>
<!-- Node4 -->
<g id="node3" class="node">
<title>Node4</title>
<g id="a_node3"><a xlink:href="../../d6/d6b/classmesh.html" target="_top" xlink:title="mesh">
<polygon fill="#ffffff" stroke="#000000" points="37.8027,-131.5 37.8027,-149.5 78.2559,-149.5 78.2559,-131.5 37.8027,-131.5"/>
<text text-anchor="middle" x="58.0293" y="-137.5" font-family="Helvetica,sans-Serif" font-size="10.00" fill="#000000">mesh</text>
</a>
</g>
</g>
<!-- Node4&#45;&gt;Node3 -->
<g id="edge2" class="edge">
<title>Node4&#45;&gt;Node3</title>
<path fill="none" stroke="#9a32cd" stroke-dasharray="5,2" d="M58.0293,-121.0243C58.0293,-109.5169 58.0293,-95.2016 58.0293,-84.7499"/>
<polygon fill="#9a32cd" stroke="#9a32cd" points="54.5294,-121.3487 58.0293,-131.3487 61.5294,-121.3488 54.5294,-121.3487"/>
<text text-anchor="middle" x="71.645" y="-105" font-family="Helvetica,sans-Serif" font-size="10.00" fill="#000000"> Mesh</text>
</g>
</g>
</svg>
