<?xml version="1.0" encoding="UTF-8" standalone="no"?>
<!DOCTYPE svg PUBLIC "-//W3C//DTD SVG 1.1//EN"
 "http://www.w3.org/Graphics/SVG/1.1/DTD/svg11.dtd">
<!-- Generated by graphviz version 2.40.1 (20161225.0304)
 -->
<!-- Title: arteries/boost_gmrf/gmrf_gauss/main.cpp Pages: 1 -->
<!--zoomable 296 -->
<svg id="main" version="1.1" xmlns="http://www.w3.org/2000/svg" xmlns:xlink="http://www.w3.org/1999/xlink" xml:space="preserve" onload="init(evt)">
<style type="text/css"><![CDATA[
.edge:hover path { stroke: red; }
.edge:hover polygon { stroke: red; fill: red; }
]]></style>
<script type="text/javascript"><![CDATA[
var edges = document.getElementsByTagName('g');
if (edges && edges.length) {
  for (var i=0;i<edges.length;i++) {
    if (edges[i].id.substr(0,4)=='edge') {
      edges[i].setAttribute('class','edge');
    }
  }
}
]]></script>
        <defs>
                <circle id="rim" cx="0" cy="0" r="7"/>
                <circle id="rim2" cx="0" cy="0" r="3.5"/>
                <g id="zoomPlus">
                        <use xlink:href="#rim" fill="#404040">
                                <set attributeName="fill" to="#808080" begin="zoomplus.mouseover" end="zoomplus.mouseout"/>
                        </use>
                        <path d="M-4,0h8M0,-4v8" fill="none" stroke="white" stroke-width="1.5" pointer-events="none"/>
                </g>
                <g id="zoomMin">
                        <use xlink:href="#rim" fill="#404040">
                                <set attributeName="fill" to="#808080" begin="zoomminus.mouseover" end="zoomminus.mouseout"/>
                        </use>
                        <path d="M-4,0h8" fill="none" stroke="white" stroke-width="1.5" pointer-events="none"/>
                </g>
                <g id="dirArrow">
                        <path fill="none" stroke="white" stroke-width="1.5" d="M0,-3.0v7 M-2.5,-0.5L0,-3.0L2.5,-0.5"/>
                </g>
               <g id="resetDef">
                       <use xlink:href="#rim2" fill="#404040">
                               <set attributeName="fill" to="#808080" begin="reset.mouseover" end="reset.mouseout"/>
                       </use>
               </g>
        </defs>

<script type="text/javascript">
var viewWidth = 3259;
var viewHeight = 296;
var sectionId = 'dynsection-0';
</script>
<script xlink:href="../../svgpan.js"/>
<svg id="graph" class="graph">
<g id="viewport">
<title>arteries/boost_gmrf/gmrf_gauss/main.cpp</title>
<polygon fill="#ffffff" stroke="transparent" points="-4,4 -4,-292 3255,-292 3255,4 -4,4"/>
<!-- Node0 -->
<g id="node1" class="node">
<title>Node0</title>
<polygon fill="#bfbfbf" stroke="#000000" points="1040.5,-257.5 1040.5,-287.5 1153.5,-287.5 1153.5,-257.5 1040.5,-257.5"/>
<text text-anchor="start" x="1048.5" y="-275.5" font-family="Helvetica,sans-Serif" font-size="10.00" fill="#000000">arteries/boost_gmrf</text>
<text text-anchor="middle" x="1097" y="-264.5" font-family="Helvetica,sans-Serif" font-size="10.00" fill="#000000">/gmrf_gauss/main.cpp</text>
</g>
<!-- Node1 -->
<g id="node2" class="node">
<title>Node1</title>
<polygon fill="#ffffff" stroke="#bfbfbf" points="373,-196 373,-215 481,-215 481,-196 373,-196"/>
<text text-anchor="middle" x="427" y="-203" font-family="Helvetica,sans-Serif" font-size="10.00" fill="#000000">Epetra_ConfigDefs.h</text>
</g>
<!-- Node0&#45;&gt;Node1 -->
<g id="edge1" class="edge">
<title>Node0&#45;&gt;Node1</title>
<path fill="none" stroke="#191970" d="M1040.1473,-270.6458C932.2511,-266.4715 690.6315,-253.9834 490,-221 484.019,-220.0167 477.7688,-218.762 471.6267,-217.3933"/>
<polygon fill="#191970" stroke="#191970" points="471.9938,-213.8845 461.459,-215.0101 470.3964,-220.6998 471.9938,-213.8845"/>
</g>
<!-- Node2 -->
<g id="node3" class="node">
<title>Node2</title>
<polygon fill="#ffffff" stroke="#bfbfbf" points="499.5,-196 499.5,-215 612.5,-215 612.5,-196 499.5,-196"/>
<text text-anchor="middle" x="556" y="-203" font-family="Helvetica,sans-Serif" font-size="10.00" fill="#000000">Epetra_SerialComm.h</text>
</g>
<!-- Node0&#45;&gt;Node2 -->
<g id="edge2" class="edge">
<title>Node0&#45;&gt;Node2</title>
<path fill="none" stroke="#191970" d="M1040.2575,-268.6907C950.7011,-262.156 771.3045,-246.945 621,-221 614.8481,-219.9381 608.4105,-218.6377 602.079,-217.2461"/>
<polygon fill="#191970" stroke="#191970" points="602.8017,-213.8211 592.2732,-215.0052 601.2422,-220.6452 602.8017,-213.8211"/>
</g>
<!-- Node3 -->
<g id="node4" class="node">
<title>Node3</title>
<polygon fill="#ffffff" stroke="#bfbfbf" points="630.5,-196 630.5,-215 815.5,-215 815.5,-196 630.5,-196"/>
<text text-anchor="middle" x="723" y="-203" font-family="Helvetica,sans-Serif" font-size="10.00" fill="#000000">Teuchos_CommandLineProcessor.hpp</text>
</g>
<!-- Node0&#45;&gt;Node3 -->
<g id="edge3" class="edge">
<title>Node0&#45;&gt;Node3</title>
<path fill="none" stroke="#191970" d="M1040.1974,-262.3241C971.834,-250.0772 857.383,-229.574 786.2603,-216.8327"/>
<polygon fill="#191970" stroke="#191970" points="786.5524,-213.3294 776.0919,-215.0111 785.318,-220.2197 786.5524,-213.3294"/>
</g>
<!-- Node4 -->
<g id="node5" class="node">
<title>Node4</title>
<polygon fill="#ffffff" stroke="#bfbfbf" points="833,-196 833,-215 1009,-215 1009,-196 833,-196"/>
<text text-anchor="middle" x="921" y="-203" font-family="Helvetica,sans-Serif" font-size="10.00" fill="#000000">Teuchos_StandardCatchMacros.hpp</text>
</g>
<!-- Node0&#45;&gt;Node4 -->
<g id="edge4" class="edge">
<title>Node0&#45;&gt;Node4</title>
<path fill="none" stroke="#191970" d="M1057.5022,-257.4639C1026.8164,-245.7824 984.6882,-229.7449 955.3814,-218.5884"/>
<polygon fill="#191970" stroke="#191970" points="956.5601,-215.2921 945.9691,-215.0053 954.0696,-221.8341 956.5601,-215.2921"/>
</g>
<!-- Node5 -->
<g id="node6" class="node">
<title>Node5</title>
<polygon fill="#ffffff" stroke="#bfbfbf" points="1027.5,-196 1027.5,-215 1166.5,-215 1166.5,-196 1027.5,-196"/>
<text text-anchor="middle" x="1097" y="-203" font-family="Helvetica,sans-Serif" font-size="10.00" fill="#000000">Teuchos_ParameterList.hpp</text>
</g>
<!-- Node0&#45;&gt;Node5 -->
<g id="edge5" class="edge">
<title>Node0&#45;&gt;Node5</title>
<path fill="none" stroke="#191970" d="M1097,-257.2967C1097,-247.7699 1097,-235.3954 1097,-225.1306"/>
<polygon fill="#191970" stroke="#191970" points="1100.5001,-225.0549 1097,-215.055 1093.5001,-225.055 1100.5001,-225.0549"/>
</g>
<!-- Node6 -->
<g id="node7" class="node">
<title>Node6</title>
<polygon fill="#ffffff" stroke="#bfbfbf" points="1185,-190.5 1185,-220.5 1325,-220.5 1325,-190.5 1185,-190.5"/>
<text text-anchor="start" x="1193" y="-208.5" font-family="Helvetica,sans-Serif" font-size="10.00" fill="#000000">Teuchos_XMLParameterList</text>
<text text-anchor="middle" x="1255" y="-197.5" font-family="Helvetica,sans-Serif" font-size="10.00" fill="#000000">CoreHelpers.hpp</text>
</g>
<!-- Node0&#45;&gt;Node6 -->
<g id="edge6" class="edge">
<title>Node0&#45;&gt;Node6</title>
<path fill="none" stroke="#191970" d="M1132.4583,-257.4639C1155.3499,-247.7567 1185.335,-235.0415 1209.914,-224.6188"/>
<polygon fill="#191970" stroke="#191970" points="1211.547,-227.728 1219.3871,-220.6017 1208.8142,-221.2835 1211.547,-227.728"/>
</g>
<!-- Node7 -->
<g id="node8" class="node">
<title>Node7</title>
<g id="a_node8"><a xlink:href="../../da/d42/_neumann_inner_surface___stochastic_polyconvex_h_g_o_8hpp.html" target="_top" xlink:title="NeumannInnerSurface\l_StochasticPolyconvexHGO.hpp">
<polygon fill="#ffffff" stroke="#000000" points="1343.5,-190.5 1343.5,-220.5 1504.5,-220.5 1504.5,-190.5 1343.5,-190.5"/>
<text text-anchor="start" x="1351.5" y="-208.5" font-family="Helvetica,sans-Serif" font-size="10.00" fill="#000000">NeumannInnerSurface</text>
<text text-anchor="middle" x="1424" y="-197.5" font-family="Helvetica,sans-Serif" font-size="10.00" fill="#000000">_StochasticPolyconvexHGO.hpp</text>
</a>
</g>
</g>
<!-- Node0&#45;&gt;Node7 -->
<g id="edge7" class="edge">
<title>Node0&#45;&gt;Node7</title>
<path fill="none" stroke="#191970" d="M1153.5857,-260.906C1205.1664,-250.3375 1282.0275,-234.5892 1340.6367,-222.5806"/>
<polygon fill="#191970" stroke="#191970" points="1341.5229,-225.9718 1350.6168,-220.5357 1340.1178,-219.1142 1341.5229,-225.9718"/>
</g>
<!-- Node51 -->
<g id="node48" class="node">
<title>Node51</title>
<polygon fill="#ffffff" stroke="#bfbfbf" points="1777,-123.5 1777,-153.5 1893,-153.5 1893,-123.5 1777,-123.5"/>
<text text-anchor="start" x="1785" y="-141.5" font-family="Helvetica,sans-Serif" font-size="10.00" fill="#000000">boost/math/special</text>
<text text-anchor="middle" x="1835" y="-130.5" font-family="Helvetica,sans-Serif" font-size="10.00" fill="#000000">_functions/gamma.hpp</text>
</g>
<!-- Node0&#45;&gt;Node51 -->
<g id="edge49" class="edge">
<title>Node0&#45;&gt;Node51</title>
<path fill="none" stroke="#191970" d="M1153.8198,-268.8827C1270.6553,-261.1247 1534.2418,-241.8868 1622,-221 1684.4067,-206.147 1752.9938,-177.1234 1795.0319,-157.7686"/>
<polygon fill="#191970" stroke="#191970" points="1796.5073,-160.9425 1804.1002,-153.5534 1793.5567,-154.5947 1796.5073,-160.9425"/>
</g>
<!-- Node53 -->
<g id="node50" class="node">
<title>Node53</title>
<g id="a_node50"><a xlink:href="../../d7/de5/shinozukapp_8hpp.html" target="_top" xlink:title="shinozukapp.hpp">
<polygon fill="#ffffff" stroke="#000000" points="1523,-196 1523,-215 1613,-215 1613,-196 1523,-196"/>
<text text-anchor="middle" x="1568" y="-203" font-family="Helvetica,sans-Serif" font-size="10.00" fill="#000000">shinozukapp.hpp</text>
</a>
</g>
</g>
<!-- Node0&#45;&gt;Node53 -->
<g id="edge50" class="edge">
<title>Node0&#45;&gt;Node53</title>
<path fill="none" stroke="#191970" d="M1153.7736,-268.325C1234.4433,-261.7521 1386.597,-246.9851 1514,-221 1518.653,-220.051 1523.4893,-218.9023 1528.2709,-217.6642"/>
<polygon fill="#191970" stroke="#191970" points="1529.2041,-221.0376 1537.9328,-215.0327 1527.3645,-214.2837 1529.2041,-221.0376"/>
</g>
<!-- Node8 -->
<g id="node9" class="node">
<title>Node8</title>
<g id="a_node9"><a xlink:href="../../de/d49/tensor__calculus_8hpp.html" target="_top" xlink:title="tensor_calculus.hpp">
<polygon fill="#ffffff" stroke="#000000" points="1022,-129 1022,-148 1126,-148 1126,-129 1022,-129"/>
<text text-anchor="middle" x="1074" y="-136" font-family="Helvetica,sans-Serif" font-size="10.00" fill="#000000">tensor_calculus.hpp</text>
</a>
</g>
</g>
<!-- Node7&#45;&gt;Node8 -->
<g id="edge8" class="edge">
<title>Node7&#45;&gt;Node8</title>
<path fill="none" stroke="#191970" d="M1343.4381,-191.3836C1265.4241,-177.6666 1156.0531,-158.2944 1136,-154 1130.9094,-152.9098 1125.602,-151.6986 1120.3283,-150.4473"/>
<polygon fill="#191970" stroke="#191970" points="1120.8375,-146.9693 1110.2941,-148.0128 1119.187,-153.772 1120.8375,-146.9693"/>
</g>
<!-- Node41 -->
<g id="node40" class="node">
<title>Node41</title>
<g id="a_node40"><a xlink:href="../../dc/de0/nearly_incompressible_hyperelasticity_8hpp.html" target="_top" xlink:title="nearlyIncompressibleHyperelasticity.hpp">
<polygon fill="#ffffff" stroke="#000000" points="715.5,-129 715.5,-148 908.5,-148 908.5,-129 715.5,-129"/>
<text text-anchor="middle" x="812" y="-136" font-family="Helvetica,sans-Serif" font-size="10.00" fill="#000000">nearlyIncompressibleHyperelasticity.hpp</text>
</a>
</g>
</g>
<!-- Node7&#45;&gt;Node41 -->
<g id="edge39" class="edge">
<title>Node7&#45;&gt;Node41</title>
<path fill="none" stroke="#191970" d="M1343.0956,-191.2356C1340.0276,-190.7998 1336.9876,-190.3858 1334,-190 1149.9486,-166.2303 1102.3379,-175.4349 918,-154 906.6407,-152.6791 894.6229,-151.0986 882.9183,-149.4593"/>
<polygon fill="#191970" stroke="#191970" points="883.1313,-145.9544 872.7375,-148.0086 882.1437,-152.8844 883.1313,-145.9544"/>
</g>
<!-- Node45 -->
<g id="node42" class="node">
<title>Node45</title>
<g id="a_node42"><a xlink:href="../../d5/d3f/laplacepp_8hpp.html" target="_top" xlink:title="laplacepp.hpp">
<polygon fill="#ffffff" stroke="#000000" points="926.5,-129 926.5,-148 1003.5,-148 1003.5,-129 926.5,-129"/>
<text text-anchor="middle" x="965" y="-136" font-family="Helvetica,sans-Serif" font-size="10.00" fill="#000000">laplacepp.hpp</text>
</a>
</g>
</g>
<!-- Node7&#45;&gt;Node45 -->
<g id="edge41" class="edge">
<title>Node7&#45;&gt;Node45</title>
<path fill="none" stroke="#191970" d="M1343.0824,-191.3329C1340.0181,-190.8699 1336.9825,-190.4237 1334,-190 1191.866,-169.8084 1153.3466,-184.2095 1013,-154 1009.1141,-153.1636 1005.0972,-152.1365 1001.1179,-151.0126"/>
<polygon fill="#191970" stroke="#191970" points="1001.9849,-147.6183 991.3999,-148.0731 999.9582,-154.3185 1001.9849,-147.6183"/>
</g>
<!-- Node47 -->
<g id="node44" class="node">
<title>Node47</title>
<polygon fill="#ffffff" stroke="#bfbfbf" points="1637,-123.5 1637,-153.5 1759,-153.5 1759,-123.5 1637,-123.5"/>
<text text-anchor="start" x="1645" y="-141.5" font-family="Helvetica,sans-Serif" font-size="10.00" fill="#000000">boost/random/mersenne</text>
<text text-anchor="middle" x="1698" y="-130.5" font-family="Helvetica,sans-Serif" font-size="10.00" fill="#000000">_twister.hpp</text>
</g>
<!-- Node7&#45;&gt;Node47 -->
<g id="edge43" class="edge">
<title>Node7&#45;&gt;Node47</title>
<path fill="none" stroke="#191970" d="M1485.4909,-190.4639C1527.4437,-180.2054 1583.1345,-166.5875 1626.9804,-155.8661"/>
<polygon fill="#191970" stroke="#191970" points="1627.8318,-159.2611 1636.7143,-153.4859 1626.1691,-152.4614 1627.8318,-159.2611"/>
</g>
<!-- Node48 -->
<g id="node45" class="node">
<title>Node48</title>
<polygon fill="#ffffff" stroke="#bfbfbf" points="1144.5,-123.5 1144.5,-153.5 1255.5,-153.5 1255.5,-123.5 1144.5,-123.5"/>
<text text-anchor="start" x="1152.5" y="-141.5" font-family="Helvetica,sans-Serif" font-size="10.00" fill="#000000">boost/random/uniform</text>
<text text-anchor="middle" x="1200" y="-130.5" font-family="Helvetica,sans-Serif" font-size="10.00" fill="#000000">_real_distribution.hpp</text>
</g>
<!-- Node7&#45;&gt;Node48 -->
<g id="edge44" class="edge">
<title>Node7&#45;&gt;Node48</title>
<path fill="none" stroke="#191970" d="M1373.73,-190.4639C1340.1272,-180.4131 1295.7434,-167.1375 1260.2485,-156.5208"/>
<polygon fill="#191970" stroke="#191970" points="1261.0728,-153.1142 1250.4892,-153.6017 1259.0668,-159.8206 1261.0728,-153.1142"/>
</g>
<!-- Node49 -->
<g id="node46" class="node">
<title>Node49</title>
<polygon fill="#ffffff" stroke="#bfbfbf" points="1273.5,-123.5 1273.5,-153.5 1372.5,-153.5 1372.5,-123.5 1273.5,-123.5"/>
<text text-anchor="start" x="1281.5" y="-141.5" font-family="Helvetica,sans-Serif" font-size="10.00" fill="#000000">boost/math/special</text>
<text text-anchor="middle" x="1323" y="-130.5" font-family="Helvetica,sans-Serif" font-size="10.00" fill="#000000">_functions/erf.hpp</text>
</g>
<!-- Node7&#45;&gt;Node49 -->
<g id="edge45" class="edge">
<title>Node7&#45;&gt;Node49</title>
<path fill="none" stroke="#191970" d="M1401.3336,-190.4639C1387.526,-181.3044 1369.6811,-169.4667 1354.5118,-159.4038"/>
<polygon fill="#191970" stroke="#191970" points="1356.2082,-156.3291 1345.9402,-153.7177 1352.3386,-162.1623 1356.2082,-156.3291"/>
</g>
<!-- Node50 -->
<g id="node47" class="node">
<title>Node50</title>
<polygon fill="#ffffff" stroke="#bfbfbf" points="1391,-123.5 1391,-153.5 1499,-153.5 1499,-123.5 1391,-123.5"/>
<text text-anchor="start" x="1399" y="-141.5" font-family="Helvetica,sans-Serif" font-size="10.00" fill="#000000">boost/random/normal</text>
<text text-anchor="middle" x="1445" y="-130.5" font-family="Helvetica,sans-Serif" font-size="10.00" fill="#000000">_distribution.hpp</text>
</g>
<!-- Node7&#45;&gt;Node50 -->
<g id="edge46" class="edge">
<title>Node7&#45;&gt;Node50</title>
<path fill="none" stroke="#191970" d="M1428.7652,-190.2967C1431.2623,-182.3299 1434.3835,-172.3718 1437.2202,-163.3213"/>
<polygon fill="#191970" stroke="#191970" points="1440.6025,-164.2323 1440.2536,-153.6432 1433.9229,-162.1386 1440.6025,-164.2323"/>
</g>
<!-- Node7&#45;&gt;Node51 -->
<g id="edge47" class="edge">
<title>Node7&#45;&gt;Node51</title>
<path fill="none" stroke="#191970" d="M1504.9343,-191.4444C1507.9939,-190.9502 1511.024,-190.4671 1514,-190 1623.4484,-172.823 1654.1842,-174.7407 1766.8921,-154.1131"/>
<polygon fill="#191970" stroke="#191970" points="1767.7632,-157.5114 1776.9598,-152.251 1766.49,-150.6281 1767.7632,-157.5114"/>
</g>
<!-- Node52 -->
<g id="node49" class="node">
<title>Node52</title>
<polygon fill="#ffffff" stroke="#bfbfbf" points="1517,-123.5 1517,-153.5 1619,-153.5 1619,-123.5 1517,-123.5"/>
<text text-anchor="start" x="1525" y="-141.5" font-family="Helvetica,sans-Serif" font-size="10.00" fill="#000000">boost/math/special</text>
<text text-anchor="middle" x="1568" y="-130.5" font-family="Helvetica,sans-Serif" font-size="10.00" fill="#000000">_functions/beta.hpp</text>
</g>
<!-- Node7&#45;&gt;Node52 -->
<g id="edge48" class="edge">
<title>Node7&#45;&gt;Node52</title>
<path fill="none" stroke="#191970" d="M1456.3164,-190.4639C1476.9225,-180.8763 1503.8351,-168.3545 1526.0783,-158.0052"/>
<polygon fill="#191970" stroke="#191970" points="1527.7031,-161.1096 1535.2932,-153.7177 1524.7501,-154.763 1527.7031,-161.1096"/>
</g>
<!-- Node9 -->
<g id="node10" class="node">
<title>Node9</title>
<g id="a_node10"><a xlink:href="../../d0/d02/meshpp_8hpp.html" target="_top" xlink:title="meshpp.hpp">
<polygon fill="#ffffff" stroke="#ff0000" points="1463,-62 1463,-81 1533,-81 1533,-62 1463,-62"/>
<text text-anchor="middle" x="1498" y="-69" font-family="Helvetica,sans-Serif" font-size="10.00" fill="#000000">meshpp.hpp</text>
</a>
</g>
</g>
<!-- Node8&#45;&gt;Node9 -->
<g id="edge9" class="edge">
<title>Node8&#45;&gt;Node9</title>
<path fill="none" stroke="#191970" d="M1109.5946,-128.9301C1118.2005,-126.8026 1127.3978,-124.6825 1136,-123 1249.1821,-100.8632 1384.033,-84.2092 1452.7966,-76.4047"/>
<polygon fill="#191970" stroke="#191970" points="1453.3063,-79.8695 1462.8522,-75.2732 1452.5235,-72.9134 1453.3063,-79.8695"/>
</g>
<!-- Node10 -->
<g id="node11" class="node">
<title>Node10</title>
<polygon fill="#ffffff" stroke="#bfbfbf" points="0,-.5 0,-19.5 46,-19.5 46,-.5 0,-.5"/>
<text text-anchor="middle" x="23" y="-7.5" font-family="Helvetica,sans-Serif" font-size="10.00" fill="#000000">stdio.h</text>
</g>
<!-- Node9&#45;&gt;Node10 -->
<g id="edge10" class="edge">
<title>Node9&#45;&gt;Node10</title>
<path fill="none" stroke="#191970" d="M1462.8025,-70.3077C1253.1173,-63.1973 173.9592,-26.4982 56.208,-18.9085"/>
<polygon fill="#191970" stroke="#191970" points="56.5051,-15.4213 46.2422,-18.0522 55.9058,-22.3956 56.5051,-15.4213"/>
</g>
<!-- Node11 -->
<g id="node12" class="node">
<title>Node11</title>
<polygon fill="#ffffff" stroke="#bfbfbf" points="64,-.5 64,-19.5 118,-19.5 118,-.5 64,-.5"/>
<text text-anchor="middle" x="91" y="-7.5" font-family="Helvetica,sans-Serif" font-size="10.00" fill="#000000">iostream</text>
</g>
<!-- Node9&#45;&gt;Node11 -->
<g id="edge11" class="edge">
<title>Node9&#45;&gt;Node11</title>
<path fill="none" stroke="#191970" d="M1462.9877,-70.2973C1260.7324,-63.3364 246.9929,-28.2636 128.4146,-19.2952"/>
<polygon fill="#191970" stroke="#191970" points="128.6661,-15.8032 118.3729,-18.3132 127.9847,-22.7699 128.6661,-15.8032"/>
</g>
<!-- Node12 -->
<g id="node13" class="node">
<title>Node12</title>
<polygon fill="#ffffff" stroke="#bfbfbf" points="136.5,-.5 136.5,-19.5 185.5,-19.5 185.5,-.5 136.5,-.5"/>
<text text-anchor="middle" x="161" y="-7.5" font-family="Helvetica,sans-Serif" font-size="10.00" fill="#000000">istream</text>
</g>
<!-- Node9&#45;&gt;Node12 -->
<g id="edge12" class="edge">
<title>Node9&#45;&gt;Node12</title>
<path fill="none" stroke="#191970" d="M1462.7261,-70.3514C1267.4066,-63.9617 322.9904,-32.6657 195.6625,-19.3092"/>
<polygon fill="#191970" stroke="#191970" points="196.0821,-15.8344 185.7185,-18.0361 195.1931,-22.7777 196.0821,-15.8344"/>
</g>
<!-- Node13 -->
<g id="node14" class="node">
<title>Node13</title>
<polygon fill="#ffffff" stroke="#bfbfbf" points="204,-.5 204,-19.5 254,-19.5 254,-.5 204,-.5"/>
<text text-anchor="middle" x="229" y="-7.5" font-family="Helvetica,sans-Serif" font-size="10.00" fill="#000000">fstream</text>
</g>
<!-- Node9&#45;&gt;Node13 -->
<g id="edge13" class="edge">
<title>Node9&#45;&gt;Node13</title>
<path fill="none" stroke="#191970" d="M1462.9914,-70.2815C1274.7851,-63.7018 387.4197,-32.2966 264.234,-19.4187"/>
<polygon fill="#191970" stroke="#191970" points="264.4546,-15.9185 254.0917,-18.123 263.5675,-22.8621 264.4546,-15.9185"/>
</g>
<!-- Node14 -->
<g id="node15" class="node">
<title>Node14</title>
<polygon fill="#ffffff" stroke="#bfbfbf" points="272,-.5 272,-19.5 316,-19.5 316,-.5 272,-.5"/>
<text text-anchor="middle" x="294" y="-7.5" font-family="Helvetica,sans-Serif" font-size="10.00" fill="#000000">vector</text>
</g>
<!-- Node9&#45;&gt;Node14 -->
<g id="edge14" class="edge">
<title>Node9&#45;&gt;Node14</title>
<path fill="none" stroke="#191970" d="M1462.907,-70.2244C1280.4316,-63.5591 444.1753,-32.6058 326.1441,-19.3183"/>
<polygon fill="#191970" stroke="#191970" points="326.5543,-15.8418 316.169,-17.9382 325.5949,-22.7757 326.5543,-15.8418"/>
</g>
<!-- Node15 -->
<g id="node16" class="node">
<title>Node15</title>
<polygon fill="#ffffff" stroke="#bfbfbf" points="334,-.5 334,-19.5 384,-19.5 384,-.5 334,-.5"/>
<text text-anchor="middle" x="359" y="-7.5" font-family="Helvetica,sans-Serif" font-size="10.00" fill="#000000">iomanip</text>
</g>
<!-- Node9&#45;&gt;Node15 -->
<g id="edge15" class="edge">
<title>Node9&#45;&gt;Node15</title>
<path fill="none" stroke="#191970" d="M1462.8104,-70.3617C1290.665,-64.7274 539.9897,-39.3768 394.2332,-19.6396"/>
<polygon fill="#191970" stroke="#191970" points="394.5045,-16.1409 384.094,-18.1089 393.4595,-23.0625 394.5045,-16.1409"/>
</g>
<!-- Node16 -->
<g id="node17" class="node">
<title>Node16</title>
<polygon fill="#ffffff" stroke="#bfbfbf" points="402,-.5 402,-19.5 506,-19.5 506,-.5 402,-.5"/>
<text text-anchor="middle" x="454" y="-7.5" font-family="Helvetica,sans-Serif" font-size="10.00" fill="#000000">Epetra_MpiComm.h</text>
</g>
<!-- Node9&#45;&gt;Node16 -->
<g id="edge16" class="edge">
<title>Node9&#45;&gt;Node16</title>
<path fill="none" stroke="#191970" d="M1462.909,-70.1815C1312.957,-64.4684 724.5464,-41.2295 516.4043,-20.0165"/>
<polygon fill="#191970" stroke="#191970" points="516.5028,-16.5077 506.1919,-18.944 515.7716,-23.4694 516.5028,-16.5077"/>
</g>
<!-- Node17 -->
<g id="node18" class="node">
<title>Node17</title>
<polygon fill="#ffffff" stroke="#bfbfbf" points="524.5,-.5 524.5,-19.5 637.5,-19.5 637.5,-.5 524.5,-.5"/>
<text text-anchor="middle" x="581" y="-7.5" font-family="Helvetica,sans-Serif" font-size="10.00" fill="#000000">Epetra_FECrsGraph.h</text>
</g>
<!-- Node9&#45;&gt;Node17 -->
<g id="edge17" class="edge">
<title>Node9&#45;&gt;Node17</title>
<path fill="none" stroke="#191970" d="M1462.6432,-70.4997C1347.1197,-66.9909 970.1965,-53.6424 647.8409,-19.9961"/>
<polygon fill="#191970" stroke="#191970" points="648.1512,-16.5095 637.8398,-18.9438 647.4187,-23.4711 648.1512,-16.5095"/>
</g>
<!-- Node18 -->
<g id="node19" class="node">
<title>Node18</title>
<polygon fill="#ffffff" stroke="#bfbfbf" points="656,-.5 656,-19.5 770,-19.5 770,-.5 656,-.5"/>
<text text-anchor="middle" x="713" y="-7.5" font-family="Helvetica,sans-Serif" font-size="10.00" fill="#000000">Epetra_FECrsMatrix.h</text>
</g>
<!-- Node9&#45;&gt;Node18 -->
<g id="edge18" class="edge">
<title>Node9&#45;&gt;Node18</title>
<path fill="none" stroke="#191970" d="M1462.7468,-69.9616C1359.5246,-65.248 1048.8376,-49.5699 780.5297,-20.093"/>
<polygon fill="#191970" stroke="#191970" points="780.5256,-16.5712 770.2011,-18.949 779.755,-23.5286 780.5256,-16.5712"/>
</g>
<!-- Node19 -->
<g id="node20" class="node">
<title>Node19</title>
<polygon fill="#ffffff" stroke="#bfbfbf" points="788,-.5 788,-19.5 888,-19.5 888,-.5 788,-.5"/>
<text text-anchor="middle" x="838" y="-7.5" font-family="Helvetica,sans-Serif" font-size="10.00" fill="#000000">Epetra_FEVector.h</text>
</g>
<!-- Node9&#45;&gt;Node19 -->
<g id="edge19" class="edge">
<title>Node9&#45;&gt;Node19</title>
<path fill="none" stroke="#191970" d="M1462.7301,-69.4561C1369.9825,-63.8685 1111.6815,-46.934 898,-20 897.8985,-19.9872 897.7969,-19.9744 897.6952,-19.9615"/>
<polygon fill="#191970" stroke="#191970" points="898.4276,-16.529 888.0466,-18.6468 897.4825,-23.4649 898.4276,-16.529"/>
</g>
<!-- Node20 -->
<g id="node21" class="node">
<title>Node20</title>
<polygon fill="#ffffff" stroke="#bfbfbf" points="906.5,-.5 906.5,-19.5 993.5,-19.5 993.5,-.5 906.5,-.5"/>
<text text-anchor="middle" x="950" y="-7.5" font-family="Helvetica,sans-Serif" font-size="10.00" fill="#000000">Epetra_Vector.h</text>
</g>
<!-- Node9&#45;&gt;Node20 -->
<g id="edge20" class="edge">
<title>Node9&#45;&gt;Node20</title>
<path fill="none" stroke="#191970" d="M1462.7657,-68.843C1382.9844,-62.6108 1182.2613,-45.7181 1003.7258,-19.9957"/>
<polygon fill="#191970" stroke="#191970" points="1004.0242,-16.5024 993.6247,-18.5274 1003.0172,-23.4296 1004.0242,-16.5024"/>
</g>
<!-- Node21 -->
<g id="node22" class="node">
<title>Node21</title>
<polygon fill="#ffffff" stroke="#bfbfbf" points="1011.5,-.5 1011.5,-19.5 1088.5,-19.5 1088.5,-.5 1011.5,-.5"/>
<text text-anchor="middle" x="1050" y="-7.5" font-family="Helvetica,sans-Serif" font-size="10.00" fill="#000000">Epetra_Map.h</text>
</g>
<!-- Node9&#45;&gt;Node21 -->
<g id="edge21" class="edge">
<title>Node9&#45;&gt;Node21</title>
<path fill="none" stroke="#191970" d="M1462.8192,-67.896C1394.6446,-60.7127 1239.6149,-43.4071 1098.8342,-20.0293"/>
<polygon fill="#191970" stroke="#191970" points="1099.1649,-16.536 1088.724,-18.3357 1098.0083,-23.4398 1099.1649,-16.536"/>
</g>
<!-- Node22 -->
<g id="node23" class="node">
<title>Node22</title>
<polygon fill="#ffffff" stroke="#bfbfbf" points="1106.5,-.5 1106.5,-19.5 1245.5,-19.5 1245.5,-.5 1106.5,-.5"/>
<text text-anchor="middle" x="1176" y="-7.5" font-family="Helvetica,sans-Serif" font-size="10.00" fill="#000000">Epetra_SerialDenseMatrix.h</text>
</g>
<!-- Node9&#45;&gt;Node22 -->
<g id="edge22" class="edge">
<title>Node9&#45;&gt;Node22</title>
<path fill="none" stroke="#191970" d="M1462.9274,-64.8013C1408.4309,-54.3929 1302.7579,-34.21 1235.9831,-21.4564"/>
<polygon fill="#191970" stroke="#191970" points="1236.4983,-17.9916 1226.0192,-19.5534 1235.185,-24.8673 1236.4983,-17.9916"/>
</g>
<!-- Node23 -->
<g id="node24" class="node">
<title>Node23</title>
<polygon fill="#ffffff" stroke="#bfbfbf" points="1264,-.5 1264,-19.5 1404,-19.5 1404,-.5 1264,-.5"/>
<text text-anchor="middle" x="1334" y="-7.5" font-family="Helvetica,sans-Serif" font-size="10.00" fill="#000000">Epetra_SerialDenseVector.h</text>
</g>
<!-- Node9&#45;&gt;Node23 -->
<g id="edge23" class="edge">
<title>Node9&#45;&gt;Node23</title>
<path fill="none" stroke="#191970" d="M1472.375,-61.8906C1444.5737,-51.4652 1400.0156,-34.7559 1369.0006,-23.1252"/>
<polygon fill="#191970" stroke="#191970" points="1370.0373,-19.776 1359.4451,-19.5419 1367.5794,-26.3303 1370.0373,-19.776"/>
</g>
<!-- Node24 -->
<g id="node25" class="node">
<title>Node24</title>
<polygon fill="#ffffff" stroke="#bfbfbf" points="1422,-.5 1422,-19.5 1574,-19.5 1574,-.5 1422,-.5"/>
<text text-anchor="middle" x="1498" y="-7.5" font-family="Helvetica,sans-Serif" font-size="10.00" fill="#000000">Epetra_IntSerialDenseVector.h</text>
</g>
<!-- Node9&#45;&gt;Node24 -->
<g id="edge24" class="edge">
<title>Node9&#45;&gt;Node24</title>
<path fill="none" stroke="#191970" d="M1498,-61.8906C1498,-53.3657 1498,-40.6392 1498,-29.9235"/>
<polygon fill="#191970" stroke="#191970" points="1501.5001,-29.7448 1498,-19.7449 1494.5001,-29.7449 1501.5001,-29.7448"/>
</g>
<!-- Node25 -->
<g id="node26" class="node">
<title>Node25</title>
<polygon fill="#ffffff" stroke="#bfbfbf" points="1592,-.5 1592,-19.5 1678,-19.5 1678,-.5 1592,-.5"/>
<text text-anchor="middle" x="1635" y="-7.5" font-family="Helvetica,sans-Serif" font-size="10.00" fill="#000000">Epetra_Import.h</text>
</g>
<!-- Node9&#45;&gt;Node25 -->
<g id="edge25" class="edge">
<title>Node9&#45;&gt;Node25</title>
<path fill="none" stroke="#191970" d="M1519.4063,-61.8906C1542.2283,-51.6457 1578.5679,-35.3326 1604.4057,-23.7339"/>
<polygon fill="#191970" stroke="#191970" points="1606.0545,-26.8303 1613.7441,-19.5419 1603.1877,-20.4443 1606.0545,-26.8303"/>
</g>
<!-- Node26 -->
<g id="node27" class="node">
<title>Node26</title>
<polygon fill="#ffffff" stroke="#bfbfbf" points="1696.5,-.5 1696.5,-19.5 1783.5,-19.5 1783.5,-.5 1696.5,-.5"/>
<text text-anchor="middle" x="1740" y="-7.5" font-family="Helvetica,sans-Serif" font-size="10.00" fill="#000000">Epetra_Export.h</text>
</g>
<!-- Node9&#45;&gt;Node26 -->
<g id="edge26" class="edge">
<title>Node9&#45;&gt;Node26</title>
<path fill="none" stroke="#191970" d="M1533.1889,-62.5574C1575.2012,-51.8807 1645.649,-33.9776 1692.4733,-22.0781"/>
<polygon fill="#191970" stroke="#191970" points="1693.5486,-25.4161 1702.3784,-19.5609 1691.8244,-18.6318 1693.5486,-25.4161"/>
</g>
<!-- Node27 -->
<g id="node28" class="node">
<title>Node27</title>
<polygon fill="#ffffff" stroke="#bfbfbf" points="1802,-.5 1802,-19.5 1882,-19.5 1882,-.5 1802,-.5"/>
<text text-anchor="middle" x="1842" y="-7.5" font-family="Helvetica,sans-Serif" font-size="10.00" fill="#000000">Epetra_Time.h</text>
</g>
<!-- Node9&#45;&gt;Node27 -->
<g id="edge27" class="edge">
<title>Node9&#45;&gt;Node27</title>
<path fill="none" stroke="#191970" d="M1533.0251,-65.7173C1586.554,-56.8072 1692.1713,-38.943 1791.9597,-20.1584"/>
<polygon fill="#191970" stroke="#191970" points="1792.7306,-23.5747 1801.907,-18.279 1791.431,-16.6964 1792.7306,-23.5747"/>
</g>
<!-- Node28 -->
<g id="node29" class="node">
<title>Node28</title>
<polygon fill="#ffffff" stroke="#bfbfbf" points="1900.5,-.5 1900.5,-19.5 2047.5,-19.5 2047.5,-.5 1900.5,-.5"/>
<text text-anchor="middle" x="1974" y="-7.5" font-family="Helvetica,sans-Serif" font-size="10.00" fill="#000000">ml_MultiLevelPreconditioner.h</text>
</g>
<!-- Node9&#45;&gt;Node28 -->
<g id="edge28" class="edge">
<title>Node9&#45;&gt;Node28</title>
<path fill="none" stroke="#191970" d="M1533.0014,-66.9778C1607.774,-57.317 1784.8665,-34.4364 1890.4858,-20.7902"/>
<polygon fill="#191970" stroke="#191970" points="1891.009,-24.2518 1900.4781,-19.4992 1890.112,-17.3095 1891.009,-24.2518"/>
</g>
<!-- Node29 -->
<g id="node30" class="node">
<title>Node29</title>
<polygon fill="#ffffff" stroke="#bfbfbf" points="2065.5,-.5 2065.5,-19.5 2156.5,-19.5 2156.5,-.5 2065.5,-.5"/>
<text text-anchor="middle" x="2111" y="-7.5" font-family="Helvetica,sans-Serif" font-size="10.00" fill="#000000">ml_epetra_utils.h</text>
</g>
<!-- Node9&#45;&gt;Node29 -->
<g id="edge29" class="edge">
<title>Node9&#45;&gt;Node29</title>
<path fill="none" stroke="#191970" d="M1533.1206,-69.382C1620.0155,-63.9033 1852.1741,-47.8127 2055.4206,-20.1201"/>
<polygon fill="#191970" stroke="#191970" points="2055.9525,-23.58 2065.3824,-18.7502 2054.9988,-16.6453 2055.9525,-23.58"/>
</g>
<!-- Node30 -->
<g id="node31" class="node">
<title>Node30</title>
<polygon fill="#ffffff" stroke="#bfbfbf" points="2174.5,-.5 2174.5,-19.5 2245.5,-19.5 2245.5,-.5 2174.5,-.5"/>
<text text-anchor="middle" x="2210" y="-7.5" font-family="Helvetica,sans-Serif" font-size="10.00" fill="#000000">ml_include.h</text>
</g>
<!-- Node9&#45;&gt;Node30 -->
<g id="edge30" class="edge">
<title>Node9&#45;&gt;Node30</title>
<path fill="none" stroke="#191970" d="M1533.333,-70.5978C1631.8423,-67.6968 1917.9558,-56.6436 2163.8614,-20.1507"/>
<polygon fill="#191970" stroke="#191970" points="2164.6942,-23.565 2174.0634,-18.6185 2163.6545,-16.6426 2164.6942,-23.565"/>
</g>
<!-- Node31 -->
<g id="node32" class="node">
<title>Node31</title>
<polygon fill="#ffffff" stroke="#bfbfbf" points="2263.5,-.5 2263.5,-19.5 2400.5,-19.5 2400.5,-.5 2263.5,-.5"/>
<text text-anchor="middle" x="2332" y="-7.5" font-family="Helvetica,sans-Serif" font-size="10.00" fill="#000000">EpetraExt_RowMatrixOut.h</text>
</g>
<!-- Node9&#45;&gt;Node31 -->
<g id="edge31" class="edge">
<title>Node9&#45;&gt;Node31</title>
<path fill="none" stroke="#191970" d="M1533.153,-69.8754C1639.8545,-64.7818 1969.5696,-47.8441 2253.1104,-20.1403"/>
<polygon fill="#191970" stroke="#191970" points="2253.5675,-23.6123 2263.1769,-19.1502 2252.8823,-16.6459 2253.5675,-23.6123"/>
</g>
<!-- Node32 -->
<g id="node33" class="node">
<title>Node32</title>
<polygon fill="#ffffff" stroke="#bfbfbf" points="2418.5,-.5 2418.5,-19.5 2557.5,-19.5 2557.5,-.5 2418.5,-.5"/>
<text text-anchor="middle" x="2488" y="-7.5" font-family="Helvetica,sans-Serif" font-size="10.00" fill="#000000">EpetraExt_MultiVectorOut.h</text>
</g>
<!-- Node9&#45;&gt;Node32 -->
<g id="edge32" class="edge">
<title>Node9&#45;&gt;Node32</title>
<path fill="none" stroke="#191970" d="M1533.2784,-70.4111C1653.9415,-66.4963 2061.4363,-51.7048 2408.2999,-20.1032"/>
<polygon fill="#191970" stroke="#191970" points="2408.6476,-23.5861 2418.286,-19.1872 2408.0081,-16.6153 2408.6476,-23.5861"/>
</g>
<!-- Node33 -->
<g id="node34" class="node">
<title>Node33</title>
<polygon fill="#ffffff" stroke="#bfbfbf" points="2576,-.5 2576,-19.5 2686,-19.5 2686,-.5 2576,-.5"/>
<text text-anchor="middle" x="2631" y="-7.5" font-family="Helvetica,sans-Serif" font-size="10.00" fill="#000000">EpetraExt_VectorIn.h</text>
</g>
<!-- Node9&#45;&gt;Node33 -->
<g id="edge33" class="edge">
<title>Node9&#45;&gt;Node33</title>
<path fill="none" stroke="#191970" d="M1533.168,-71.1691C1666.5762,-69.6278 2154.2379,-61.3925 2565.8756,-20.0085"/>
<polygon fill="#191970" stroke="#191970" points="2566.2943,-23.4841 2575.8904,-18.9936 2565.5884,-16.5198 2566.2943,-23.4841"/>
</g>
<!-- Node34 -->
<g id="node35" class="node">
<title>Node34</title>
<polygon fill="#ffffff" stroke="#bfbfbf" points="2704.5,-.5 2704.5,-19.5 2835.5,-19.5 2835.5,-.5 2704.5,-.5"/>
<text text-anchor="middle" x="2770" y="-7.5" font-family="Helvetica,sans-Serif" font-size="10.00" fill="#000000">EpetraExt_MultiVectorIn.h</text>
</g>
<!-- Node9&#45;&gt;Node34 -->
<g id="edge34" class="edge">
<title>Node9&#45;&gt;Node34</title>
<path fill="none" stroke="#191970" d="M1533.3267,-71.135C1676.6601,-69.4121 2228.9077,-60.4303 2693.9086,-20.0139"/>
<polygon fill="#191970" stroke="#191970" points="2694.5302,-23.473 2704.1869,-19.1141 2693.9197,-16.4996 2694.5302,-23.473"/>
</g>
<!-- Node35 -->
<g id="node36" class="node">
<title>Node35</title>
<polygon fill="#ffffff" stroke="#bfbfbf" points="2854,-.5 2854,-19.5 2954,-19.5 2954,-.5 2854,-.5"/>
<text text-anchor="middle" x="2904" y="-7.5" font-family="Helvetica,sans-Serif" font-size="10.00" fill="#000000">Teuchos_RCP.hpp</text>
</g>
<!-- Node9&#45;&gt;Node35 -->
<g id="edge35" class="edge">
<title>Node9&#45;&gt;Node35</title>
<path fill="none" stroke="#191970" d="M1533.2932,-70.7715C1716.2311,-66.9019 2558.7038,-47.9168 2843.5462,-19.9944"/>
<polygon fill="#191970" stroke="#191970" points="2844.2504,-23.4413 2853.8486,-18.9552 2843.5478,-16.4766 2844.2504,-23.4413"/>
</g>
<!-- Node36 -->
<g id="node37" class="node">
<title>Node36</title>
<polygon fill="#ffffff" stroke="#bfbfbf" points="2972.5,-.5 2972.5,-19.5 3033.5,-19.5 3033.5,-.5 2972.5,-.5"/>
<text text-anchor="middle" x="3003" y="-7.5" font-family="Helvetica,sans-Serif" font-size="10.00" fill="#000000">Amesos.h</text>
</g>
<!-- Node9&#45;&gt;Node36 -->
<g id="edge36" class="edge">
<title>Node9&#45;&gt;Node36</title>
<path fill="none" stroke="#191970" d="M1533.1826,-71.2645C1725.6133,-69.8267 2652.9781,-60.9273 2961.8349,-19.8144"/>
<polygon fill="#191970" stroke="#191970" points="2962.6874,-23.2302 2972.1176,-18.401 2961.7341,-16.2954 2962.6874,-23.2302"/>
</g>
<!-- Node37 -->
<g id="node38" class="node">
<title>Node37</title>
<polygon fill="#ffffff" stroke="#bfbfbf" points="3051.5,-.5 3051.5,-19.5 3116.5,-19.5 3116.5,-.5 3051.5,-.5"/>
<text text-anchor="middle" x="3084" y="-7.5" font-family="Helvetica,sans-Serif" font-size="10.00" fill="#000000">AztecOO.h</text>
</g>
<!-- Node9&#45;&gt;Node37 -->
<g id="edge37" class="edge">
<title>Node9&#45;&gt;Node37</title>
<path fill="none" stroke="#191970" d="M1533.1105,-71.3117C1731.6257,-70.1004 2715.7608,-62.104 3041.0798,-19.9664"/>
<polygon fill="#191970" stroke="#191970" points="3041.9944,-23.3753 3051.4427,-18.5815 3041.0671,-16.437 3041.9944,-23.3753"/>
</g>
<!-- Node38 -->
<g id="node39" class="node">
<title>Node38</title>
<polygon fill="#ffffff" stroke="#bfbfbf" points="3135,-.5 3135,-19.5 3251,-19.5 3251,-.5 3135,-.5"/>
<text text-anchor="middle" x="3193" y="-7.5" font-family="Helvetica,sans-Serif" font-size="10.00" fill="#000000">Amesos_BaseSolver.h</text>
</g>
<!-- Node9&#45;&gt;Node38 -->
<g id="edge38" class="edge">
<title>Node9&#45;&gt;Node38</title>
<path fill="none" stroke="#191970" d="M1533.2419,-70.9452C1738.3385,-67.6322 2780.5968,-49.629 3124.9618,-19.9687"/>
<polygon fill="#191970" stroke="#191970" points="3125.2914,-23.4533 3134.945,-19.0878 3124.6761,-16.4804 3125.2914,-23.4533"/>
</g>
<!-- Node42 -->
<g id="node41" class="node">
<title>Node42</title>
<g id="a_node41"><a xlink:href="../../d2/d34/hyperelasticity_8hpp.html" target="_top" xlink:title="hyperelasticity.hpp">
<polygon fill="#ffffff" stroke="#ff0000" points="763,-62 763,-81 861,-81 861,-62 763,-62"/>
<text text-anchor="middle" x="812" y="-69" font-family="Helvetica,sans-Serif" font-size="10.00" fill="#000000">hyperelasticity.hpp</text>
</a>
</g>
</g>
<!-- Node41&#45;&gt;Node42 -->
<g id="edge40" class="edge">
<title>Node41&#45;&gt;Node42</title>
<path fill="none" stroke="#191970" d="M812,-128.9005C812,-119.149 812,-103.7597 812,-91.3695"/>
<polygon fill="#191970" stroke="#191970" points="815.5001,-91.0816 812,-81.0817 808.5001,-91.0817 815.5001,-91.0816"/>
</g>
<!-- Node46 -->
<g id="node43" class="node">
<title>Node46</title>
<g id="a_node43"><a xlink:href="../../d9/dea/_linear___finite___element___problem_8hpp.html" target="_top" xlink:title="Linear_Finite_Element\l_Problem.hpp">
<polygon fill="#ffffff" stroke="#ff0000" points="908.5,-56.5 908.5,-86.5 1021.5,-86.5 1021.5,-56.5 908.5,-56.5"/>
<text text-anchor="start" x="916.5" y="-74.5" font-family="Helvetica,sans-Serif" font-size="10.00" fill="#000000">Linear_Finite_Element</text>
<text text-anchor="middle" x="965" y="-63.5" font-family="Helvetica,sans-Serif" font-size="10.00" fill="#000000">_Problem.hpp</text>
</a>
</g>
</g>
<!-- Node45&#45;&gt;Node46 -->
<g id="edge42" class="edge">
<title>Node45&#45;&gt;Node46</title>
<path fill="none" stroke="#191970" d="M965,-128.9005C965,-120.5099 965,-107.9451 965,-96.7085"/>
<polygon fill="#191970" stroke="#191970" points="968.5001,-96.5217 965,-86.5218 961.5001,-96.5218 968.5001,-96.5217"/>
</g>
<!-- Node53&#45;&gt;Node9 -->
<g id="edge51" class="edge">
<title>Node53&#45;&gt;Node9</title>
<path fill="none" stroke="#191970" d="M1613.0162,-201.7902C1699.806,-194.1804 1883.4037,-175.6835 1902,-154 1910.9694,-143.5416 1911.1056,-133.34 1902,-123 1878.5596,-96.3819 1643.6783,-79.8521 1543.2048,-73.9485"/>
<polygon fill="#191970" stroke="#191970" points="1543.2435,-70.445 1533.0581,-73.3617 1542.8393,-77.4333 1543.2435,-70.445"/>
</g>
<!-- Node53&#45;&gt;Node47 -->
<g id="edge52" class="edge">
<title>Node53&#45;&gt;Node47</title>
<path fill="none" stroke="#191970" d="M1586.6258,-195.9005C1605.6756,-186.0826 1635.8139,-170.5498 1659.9377,-158.1167"/>
<polygon fill="#191970" stroke="#191970" points="1661.5678,-161.2141 1668.8533,-153.5218 1658.3609,-154.9919 1661.5678,-161.2141"/>
</g>
<!-- Node53&#45;&gt;Node48 -->
<g id="edge53" class="edge">
<title>Node53&#45;&gt;Node48</title>
<path fill="none" stroke="#191970" d="M1537.6259,-195.9989C1529.9666,-193.8198 1521.7243,-191.6589 1514,-190 1407.7716,-167.1857 1376.5838,-174.5359 1265.5166,-153.9777"/>
<polygon fill="#191970" stroke="#191970" points="1266.0731,-150.5211 1255.5978,-152.1076 1264.7762,-157.3999 1266.0731,-150.5211"/>
</g>
<!-- Node53&#45;&gt;Node49 -->
<g id="edge54" class="edge">
<title>Node53&#45;&gt;Node49</title>
<path fill="none" stroke="#191970" d="M1535.1841,-195.9889C1528.1977,-193.9898 1520.8594,-191.9091 1514,-190 1469.9601,-177.743 1420.0816,-164.3093 1382.3417,-154.2362"/>
<polygon fill="#191970" stroke="#191970" points="1383.0921,-150.814 1372.5279,-151.6194 1381.2886,-157.5777 1383.0921,-150.814"/>
</g>
<!-- Node53&#45;&gt;Node50 -->
<g id="edge55" class="edge">
<title>Node53&#45;&gt;Node50</title>
<path fill="none" stroke="#191970" d="M1550.3771,-195.9005C1532.5119,-186.1691 1504.3393,-170.823 1481.6174,-158.4461"/>
<polygon fill="#191970" stroke="#191970" points="1483.0332,-155.2317 1472.5773,-153.5218 1479.6847,-161.3789 1483.0332,-155.2317"/>
</g>
<!-- Node53&#45;&gt;Node51 -->
<g id="edge56" class="edge">
<title>Node53&#45;&gt;Node51</title>
<path fill="none" stroke="#191970" d="M1605.971,-195.9717C1647.7456,-185.4889 1715.7273,-168.4299 1766.7959,-155.6149"/>
<polygon fill="#191970" stroke="#191970" points="1767.924,-158.9404 1776.7714,-153.1117 1766.2202,-152.1509 1767.924,-158.9404"/>
</g>
<!-- Node53&#45;&gt;Node52 -->
<g id="edge57" class="edge">
<title>Node53&#45;&gt;Node52</title>
<path fill="none" stroke="#191970" d="M1568,-195.9005C1568,-187.5099 1568,-174.9451 1568,-163.7085"/>
<polygon fill="#191970" stroke="#191970" points="1571.5001,-163.5217 1568,-153.5218 1564.5001,-163.5218 1571.5001,-163.5217"/>
</g>
</g>
</svg>
        <g id="navigator" transform="translate(0 0)" fill="#404254">
                <rect fill="#f2f5e9" fill-opacity="0.5" stroke="#606060" stroke-width=".5" x="0" y="0" width="60" height="60"/>
                <use id="zoomplus" xlink:href="#zoomPlus" x="17" y="9" onmousedown="handleZoom(evt,'in')"/>
                <use id="zoomminus" xlink:href="#zoomMin" x="42" y="9" onmousedown="handleZoom(evt,'out')"/>
                <use id="reset" xlink:href="#resetDef" x="30" y="36" onmousedown="handleReset()"/>
                <g id="arrowUp" xlink:href="#dirArrow" transform="translate(30 24)" onmousedown="handlePan(0,-1)">
                  <use xlink:href="#rim" fill="#404040">
                        <set attributeName="fill" to="#808080" begin="arrowUp.mouseover" end="arrowUp.mouseout"/>
                  </use>
                  <path fill="none" stroke="white" stroke-width="1.5" d="M0,-3.0v7 M-2.5,-0.5L0,-3.0L2.5,-0.5"/>
                </g>
                <g id="arrowRight" xlink:href="#dirArrow" transform="rotate(90) translate(36 -43)" onmousedown="handlePan(1,0)">
                  <use xlink:href="#rim" fill="#404040">
                        <set attributeName="fill" to="#808080" begin="arrowRight.mouseover" end="arrowRight.mouseout"/>
                  </use>
                  <path fill="none" stroke="white" stroke-width="1.5" d="M0,-3.0v7 M-2.5,-0.5L0,-3.0L2.5,-0.5"/>
                </g>
                <g id="arrowDown" xlink:href="#dirArrow" transform="rotate(180) translate(-30 -48)" onmousedown="handlePan(0,1)">
                  <use xlink:href="#rim" fill="#404040">
                        <set attributeName="fill" to="#808080" begin="arrowDown.mouseover" end="arrowDown.mouseout"/>
                  </use>
                  <path fill="none" stroke="white" stroke-width="1.5" d="M0,-3.0v7 M-2.5,-0.5L0,-3.0L2.5,-0.5"/>
                </g>
                <g id="arrowLeft" xlink:href="#dirArrow" transform="rotate(270) translate(-36 17)" onmousedown="handlePan(-1,0)">
                  <use xlink:href="#rim" fill="#404040">
                        <set attributeName="fill" to="#808080" begin="arrowLeft.mouseover" end="arrowLeft.mouseout"/>
                  </use>
                  <path fill="none" stroke="white" stroke-width="1.5" d="M0,-3.0v7 M-2.5,-0.5L0,-3.0L2.5,-0.5"/>
                </g>
        </g>
        <svg viewBox="0 0 15 15" width="100%" height="30px" preserveAspectRatio="xMaxYMin meet">
         <g id="arrow_out" transform="scale(0.3 0.3)">
          <a xlink:href="arteries_2boost__gmrf_2gmrf__gauss_2main_8cpp__incl_org.svg" target="_base">
           <rect id="button" ry="5" rx="5" y="6" x="6" height="38" width="38"
                fill="#f2f5e9" fill-opacity="0.5" stroke="#606060" stroke-width="1.0"/>
           <path id="arrow"
             d="M 11.500037,31.436501 C 11.940474,20.09759 22.043105,11.32322 32.158766,21.979434 L 37.068811,17.246167 C 37.068811,17.246167 37.088388,32 37.088388,32 L 22.160133,31.978069 C 22.160133,31.978069 26.997745,27.140456 26.997745,27.140456 C 18.528582,18.264221 13.291696,25.230495 11.500037,31.436501 z"
             style="fill:#404040;"/>
          </a>
         </g>
        </svg>
</svg>
