<?xml version="1.0" encoding="UTF-8" standalone="no"?>
<!DOCTYPE svg PUBLIC "-//W3C//DTD SVG 1.1//EN"
 "http://www.w3.org/Graphics/SVG/1.1/DTD/svg11.dtd">
<!-- Generated by graphviz version 2.40.1 (20161225.0304)
 -->
<!-- Title: src/phaseFieldLinearizedElasticity.hpp Pages: 1 -->
<svg width="274pt" height="173pt"
 viewBox="0.00 0.00 273.50 173.00" xmlns="http://www.w3.org/2000/svg" xmlns:xlink="http://www.w3.org/1999/xlink">
<g id="graph0" class="graph" transform="scale(1 1) rotate(0) translate(4 169)">
<title>src/phaseFieldLinearizedElasticity.hpp</title>
<polygon fill="#ffffff" stroke="transparent" points="-4,4 -4,-169 269.5,-169 269.5,4 -4,4"/>
<!-- Node37 -->
<g id="node1" class="node">
<title>Node37</title>
<polygon fill="#bfbfbf" stroke="#000000" points="69.5,-134.5 69.5,-164.5 194.5,-164.5 194.5,-134.5 69.5,-134.5"/>
<text text-anchor="start" x="77.5" y="-152.5" font-family="Helvetica,sans-Serif" font-size="10.00" fill="#000000">src/phaseFieldLinearized</text>
<text text-anchor="middle" x="132" y="-141.5" font-family="Helvetica,sans-Serif" font-size="10.00" fill="#000000">Elasticity.hpp</text>
</g>
<!-- Node38 -->
<g id="node2" class="node">
<title>Node38</title>
<g id="a_node2"><a xlink:href="../../d5/db0/phase_field_problem_8hpp.html" target="_top" xlink:title="examples/phasefield\l/phaseFieldProblem.hpp">
<polygon fill="#ffffff" stroke="#000000" points="0,-67.5 0,-97.5 122,-97.5 122,-67.5 0,-67.5"/>
<text text-anchor="start" x="8" y="-85.5" font-family="Helvetica,sans-Serif" font-size="10.00" fill="#000000">examples/phasefield</text>
<text text-anchor="middle" x="61" y="-74.5" font-family="Helvetica,sans-Serif" font-size="10.00" fill="#000000">/phaseFieldProblem.hpp</text>
</a>
</g>
</g>
<!-- Node37&#45;&gt;Node38 -->
<g id="edge1" class="edge">
<title>Node37&#45;&gt;Node38</title>
<path fill="none" stroke="#191970" d="M108.3806,-127.2113C98.0905,-117.5009 86.2949,-106.3698 77.0472,-97.6432"/>
<polygon fill="#191970" stroke="#191970" points="106.2139,-129.979 115.889,-134.2967 111.0181,-124.8879 106.2139,-129.979"/>
</g>
<!-- Node40 -->
<g id="node4" class="node">
<title>Node40</title>
<g id="a_node4"><a xlink:href="../../d4/d66/phase_field_linearized_elasticity_8cpp.html" target="_top" xlink:title="src/phaseFieldLinearized\lElasticity.cpp">
<polygon fill="#ffffff" stroke="#000000" points="140.5,-67.5 140.5,-97.5 265.5,-97.5 265.5,-67.5 140.5,-67.5"/>
<text text-anchor="start" x="148.5" y="-85.5" font-family="Helvetica,sans-Serif" font-size="10.00" fill="#000000">src/phaseFieldLinearized</text>
<text text-anchor="middle" x="203" y="-74.5" font-family="Helvetica,sans-Serif" font-size="10.00" fill="#000000">Elasticity.cpp</text>
</a>
</g>
</g>
<!-- Node37&#45;&gt;Node40 -->
<g id="edge3" class="edge">
<title>Node37&#45;&gt;Node40</title>
<path fill="none" stroke="#191970" d="M155.6194,-127.2113C165.9095,-117.5009 177.7051,-106.3698 186.9528,-97.6432"/>
<polygon fill="#191970" stroke="#191970" points="152.9819,-124.8879 148.111,-134.2967 157.7861,-129.979 152.9819,-124.8879"/>
</g>
<!-- Node39 -->
<g id="node3" class="node">
<title>Node39</title>
<g id="a_node3"><a xlink:href="../../d0/d2e/examples_2phasefield_2main_8cpp.html" target="_top" xlink:title="examples/phasefield\l/main.cpp">
<polygon fill="#ffffff" stroke="#000000" points="8,-.5 8,-30.5 114,-30.5 114,-.5 8,-.5"/>
<text text-anchor="start" x="16" y="-18.5" font-family="Helvetica,sans-Serif" font-size="10.00" fill="#000000">examples/phasefield</text>
<text text-anchor="middle" x="61" y="-7.5" font-family="Helvetica,sans-Serif" font-size="10.00" fill="#000000">/main.cpp</text>
</a>
</g>
</g>
<!-- Node38&#45;&gt;Node39 -->
<g id="edge2" class="edge">
<title>Node38&#45;&gt;Node39</title>
<path fill="none" stroke="#191970" d="M61,-57.0249C61,-48.128 61,-38.4287 61,-30.6432"/>
<polygon fill="#191970" stroke="#191970" points="57.5001,-57.2966 61,-67.2967 64.5001,-57.2967 57.5001,-57.2966"/>
</g>
</g>
</svg>
