<?xml version="1.0" encoding="UTF-8" standalone="no"?>
<!DOCTYPE svg PUBLIC "-//W3C//DTD SVG 1.1//EN"
 "http://www.w3.org/Graphics/SVG/1.1/DTD/svg11.dtd">
<!-- Generated by graphviz version 2.40.1 (20161225.0304)
 -->
<!-- Title: DirichletStripElongation_StochasticPolyconvexHGO Pages: 1 -->
<svg width="150pt" height="270pt"
 viewBox="0.00 0.00 149.61 270.00" xmlns="http://www.w3.org/2000/svg" xmlns:xlink="http://www.w3.org/1999/xlink">
<g id="graph0" class="graph" transform="scale(1 1) rotate(0) translate(4 266)">
<title>DirichletStripElongation_StochasticPolyconvexHGO</title>
<polygon fill="#ffffff" stroke="transparent" points="-4,4 -4,-266 145.6104,-266 145.6104,4 -4,4"/>
<!-- Node4 -->
<g id="node1" class="node">
<title>Node4</title>
<polygon fill="#bfbfbf" stroke="#000000" points="0,-.5 0,-28.5 141.6104,-28.5 141.6104,-.5 0,-.5"/>
<text text-anchor="start" x="8" y="-16.5" font-family="Helvetica,sans-Serif" font-size="10.00" fill="#000000">DirichletStripElongation</text>
<text text-anchor="middle" x="70.8052" y="-6.5" font-family="Helvetica,sans-Serif" font-size="10.00" fill="#000000">_StochasticPolyconvexHGO</text>
</g>
<!-- Node5 -->
<g id="node2" class="node">
<title>Node5</title>
<g id="a_node2"><a xlink:href="../../d8/daf/classhyperelasticity__setup.html" target="_top" xlink:title="hyperelasticity_setup">
<polygon fill="#ffffff" stroke="#000000" points="16.1133,-66.5 16.1133,-84.5 125.4971,-84.5 125.4971,-66.5 16.1133,-66.5"/>
<text text-anchor="middle" x="70.8052" y="-72.5" font-family="Helvetica,sans-Serif" font-size="10.00" fill="#000000">hyperelasticity_setup</text>
</a>
</g>
</g>
<!-- Node5&#45;&gt;Node4 -->
<g id="edge1" class="edge">
<title>Node5&#45;&gt;Node4</title>
<path fill="none" stroke="#191970" d="M70.8052,-56.2842C70.8052,-47.3664 70.8052,-36.9504 70.8052,-28.7488"/>
<polygon fill="#191970" stroke="#191970" points="67.3053,-56.4992 70.8052,-66.4992 74.3053,-56.4993 67.3053,-56.4992"/>
</g>
<!-- Node6 -->
<g id="node3" class="node">
<title>Node6</title>
<g id="a_node3"><a xlink:href="../../d8/dc2/class_finite___element___problem.html" target="_top" xlink:title="Finite_Element_Problem">
<polygon fill="#ffffff" stroke="#000000" points="8.0566,-122.5 8.0566,-140.5 133.5537,-140.5 133.5537,-122.5 8.0566,-122.5"/>
<text text-anchor="middle" x="70.8052" y="-128.5" font-family="Helvetica,sans-Serif" font-size="10.00" fill="#000000">Finite_Element_Problem</text>
</a>
</g>
</g>
<!-- Node6&#45;&gt;Node5 -->
<g id="edge2" class="edge">
<title>Node6&#45;&gt;Node5</title>
<path fill="none" stroke="#191970" d="M70.8052,-112.2065C70.8052,-102.8384 70.8052,-92.0262 70.8052,-84.5752"/>
<polygon fill="#191970" stroke="#191970" points="67.3053,-112.2527 70.8052,-122.2527 74.3053,-112.2528 67.3053,-112.2527"/>
</g>
<!-- Node7 -->
<g id="node4" class="node">
<title>Node7</title>
<g id="a_node4"><a xlink:href="../../d2/d97/class_base_class_f_e_m.html" target="_top" xlink:title="BaseClassFEM">
<polygon fill="#ffffff" stroke="#000000" points="28.3521,-178.5 28.3521,-196.5 113.2583,-196.5 113.2583,-178.5 28.3521,-178.5"/>
<text text-anchor="middle" x="70.8052" y="-184.5" font-family="Helvetica,sans-Serif" font-size="10.00" fill="#000000">BaseClassFEM</text>
</a>
</g>
</g>
<!-- Node7&#45;&gt;Node6 -->
<g id="edge3" class="edge">
<title>Node7&#45;&gt;Node6</title>
<path fill="none" stroke="#191970" d="M70.8052,-168.2065C70.8052,-158.8384 70.8052,-148.0262 70.8052,-140.5752"/>
<polygon fill="#191970" stroke="#191970" points="67.3053,-168.2527 70.8052,-178.2527 74.3053,-168.2528 67.3053,-168.2527"/>
</g>
<!-- Node8 -->
<g id="node5" class="node">
<title>Node8</title>
<g id="a_node5"><a xlink:href="../../d6/d6b/classmesh.html" target="_top" xlink:title="mesh">
<polygon fill="#ffffff" stroke="#000000" points="50.5786,-243.5 50.5786,-261.5 91.0317,-261.5 91.0317,-243.5 50.5786,-243.5"/>
<text text-anchor="middle" x="70.8052" y="-249.5" font-family="Helvetica,sans-Serif" font-size="10.00" fill="#000000">mesh</text>
</a>
</g>
</g>
<!-- Node8&#45;&gt;Node7 -->
<g id="edge4" class="edge">
<title>Node8&#45;&gt;Node7</title>
<path fill="none" stroke="#9a32cd" stroke-dasharray="5,2" d="M70.8052,-233.1265C70.8052,-221.1522 70.8052,-206.3205 70.8052,-196.8821"/>
<polygon fill="#9a32cd" stroke="#9a32cd" points="67.3053,-233.462 70.8052,-243.462 74.3053,-233.4621 67.3053,-233.462"/>
<text text-anchor="middle" x="84.4209" y="-217" font-family="Helvetica,sans-Serif" font-size="10.00" fill="#000000"> Mesh</text>
</g>
</g>
</svg>
