<?xml version="1.0" encoding="UTF-8" standalone="no"?>
<!DOCTYPE svg PUBLIC "-//W3C//DTD SVG 1.1//EN"
 "http://www.w3.org/Graphics/SVG/1.1/DTD/svg11.dtd">
<!-- Generated by graphviz version 2.40.1 (20161225.0304)
 -->
<!-- Title: nearlyIncompressibleHyperelasticity Pages: 1 -->
<svg width="184pt" height="260pt"
 viewBox="0.00 0.00 183.51 260.00" xmlns="http://www.w3.org/2000/svg" xmlns:xlink="http://www.w3.org/1999/xlink">
<g id="graph0" class="graph" transform="scale(1 1) rotate(0) translate(4 256)">
<title>nearlyIncompressibleHyperelasticity</title>
<polygon fill="#ffffff" stroke="transparent" points="-4,4 -4,-256 179.5068,-256 179.5068,4 -4,4"/>
<!-- Node4 -->
<g id="node1" class="node">
<title>Node4</title>
<polygon fill="#bfbfbf" stroke="#000000" points="0,-.5 0,-18.5 175.5068,-18.5 175.5068,-.5 0,-.5"/>
<text text-anchor="middle" x="87.7534" y="-6.5" font-family="Helvetica,sans-Serif" font-size="10.00" fill="#000000">nearlyIncompressibleHyperelasticity</text>
</g>
<!-- Node5 -->
<g id="node2" class="node">
<title>Node5</title>
<g id="a_node2"><a xlink:href="../../dc/d5a/classhyperelasticity.html" target="_top" xlink:title="hyperelasticity">
<polygon fill="#ffffff" stroke="#000000" points="48.0737,-56.5 48.0737,-74.5 127.4331,-74.5 127.4331,-56.5 48.0737,-56.5"/>
<text text-anchor="middle" x="87.7534" y="-62.5" font-family="Helvetica,sans-Serif" font-size="10.00" fill="#000000">hyperelasticity</text>
</a>
</g>
</g>
<!-- Node5&#45;&gt;Node4 -->
<g id="edge1" class="edge">
<title>Node5&#45;&gt;Node4</title>
<path fill="none" stroke="#191970" d="M87.7534,-46.2065C87.7534,-36.8384 87.7534,-26.0262 87.7534,-18.5752"/>
<polygon fill="#191970" stroke="#191970" points="84.2535,-46.2527 87.7534,-56.2527 91.2535,-46.2528 84.2535,-46.2527"/>
</g>
<!-- Node6 -->
<g id="node3" class="node">
<title>Node6</title>
<g id="a_node3"><a xlink:href="../../d8/dc2/class_finite___element___problem.html" target="_top" xlink:title="Finite_Element_Problem">
<polygon fill="#ffffff" stroke="#000000" points="25.0049,-112.5 25.0049,-130.5 150.502,-130.5 150.502,-112.5 25.0049,-112.5"/>
<text text-anchor="middle" x="87.7534" y="-118.5" font-family="Helvetica,sans-Serif" font-size="10.00" fill="#000000">Finite_Element_Problem</text>
</a>
</g>
</g>
<!-- Node6&#45;&gt;Node5 -->
<g id="edge2" class="edge">
<title>Node6&#45;&gt;Node5</title>
<path fill="none" stroke="#191970" d="M87.7534,-102.2065C87.7534,-92.8384 87.7534,-82.0262 87.7534,-74.5752"/>
<polygon fill="#191970" stroke="#191970" points="84.2535,-102.2527 87.7534,-112.2527 91.2535,-102.2528 84.2535,-102.2527"/>
</g>
<!-- Node7 -->
<g id="node4" class="node">
<title>Node7</title>
<g id="a_node4"><a xlink:href="../../d2/d97/class_base_class_f_e_m.html" target="_top" xlink:title="BaseClassFEM">
<polygon fill="#ffffff" stroke="#000000" points="45.3003,-168.5 45.3003,-186.5 130.2065,-186.5 130.2065,-168.5 45.3003,-168.5"/>
<text text-anchor="middle" x="87.7534" y="-174.5" font-family="Helvetica,sans-Serif" font-size="10.00" fill="#000000">BaseClassFEM</text>
</a>
</g>
</g>
<!-- Node7&#45;&gt;Node6 -->
<g id="edge3" class="edge">
<title>Node7&#45;&gt;Node6</title>
<path fill="none" stroke="#191970" d="M87.7534,-158.2065C87.7534,-148.8384 87.7534,-138.0262 87.7534,-130.5752"/>
<polygon fill="#191970" stroke="#191970" points="84.2535,-158.2527 87.7534,-168.2527 91.2535,-158.2528 84.2535,-158.2527"/>
</g>
<!-- Node8 -->
<g id="node5" class="node">
<title>Node8</title>
<g id="a_node5"><a xlink:href="../../d6/d6b/classmesh.html" target="_top" xlink:title="mesh">
<polygon fill="#ffffff" stroke="#000000" points="67.5269,-233.5 67.5269,-251.5 107.98,-251.5 107.98,-233.5 67.5269,-233.5"/>
<text text-anchor="middle" x="87.7534" y="-239.5" font-family="Helvetica,sans-Serif" font-size="10.00" fill="#000000">mesh</text>
</a>
</g>
</g>
<!-- Node8&#45;&gt;Node7 -->
<g id="edge4" class="edge">
<title>Node8&#45;&gt;Node7</title>
<path fill="none" stroke="#9a32cd" stroke-dasharray="5,2" d="M87.7534,-223.1265C87.7534,-211.1522 87.7534,-196.3205 87.7534,-186.8821"/>
<polygon fill="#9a32cd" stroke="#9a32cd" points="84.2535,-223.462 87.7534,-233.462 91.2535,-223.4621 84.2535,-223.462"/>
<text text-anchor="middle" x="101.3691" y="-207" font-family="Helvetica,sans-Serif" font-size="10.00" fill="#000000"> Mesh</text>
</g>
</g>
</svg>
