<?xml version="1.0" encoding="UTF-8" standalone="no"?>
<!DOCTYPE svg PUBLIC "-//W3C//DTD SVG 1.1//EN"
 "http://www.w3.org/Graphics/SVG/1.1/DTD/svg11.dtd">
<!-- Generated by graphviz version 2.40.1 (20161225.0304)
 -->
<!-- Title: cee530/manufactured/main.cpp Pages: 1 -->
<!--zoomable 377 -->
<svg id="main" version="1.1" xmlns="http://www.w3.org/2000/svg" xmlns:xlink="http://www.w3.org/1999/xlink" xml:space="preserve" onload="init(evt)">
<style type="text/css"><![CDATA[
.edge:hover path { stroke: red; }
.edge:hover polygon { stroke: red; fill: red; }
]]></style>
<script type="text/javascript"><![CDATA[
var edges = document.getElementsByTagName('g');
if (edges && edges.length) {
  for (var i=0;i<edges.length;i++) {
    if (edges[i].id.substr(0,4)=='edge') {
      edges[i].setAttribute('class','edge');
    }
  }
}
]]></script>
        <defs>
                <circle id="rim" cx="0" cy="0" r="7"/>
                <circle id="rim2" cx="0" cy="0" r="3.5"/>
                <g id="zoomPlus">
                        <use xlink:href="#rim" fill="#404040">
                                <set attributeName="fill" to="#808080" begin="zoomplus.mouseover" end="zoomplus.mouseout"/>
                        </use>
                        <path d="M-4,0h8M0,-4v8" fill="none" stroke="white" stroke-width="1.5" pointer-events="none"/>
                </g>
                <g id="zoomMin">
                        <use xlink:href="#rim" fill="#404040">
                                <set attributeName="fill" to="#808080" begin="zoomminus.mouseover" end="zoomminus.mouseout"/>
                        </use>
                        <path d="M-4,0h8" fill="none" stroke="white" stroke-width="1.5" pointer-events="none"/>
                </g>
                <g id="dirArrow">
                        <path fill="none" stroke="white" stroke-width="1.5" d="M0,-3.0v7 M-2.5,-0.5L0,-3.0L2.5,-0.5"/>
                </g>
               <g id="resetDef">
                       <use xlink:href="#rim2" fill="#404040">
                               <set attributeName="fill" to="#808080" begin="reset.mouseover" end="reset.mouseout"/>
                       </use>
               </g>
        </defs>

<script type="text/javascript">
var viewWidth = 3410;
var viewHeight = 377;
var sectionId = 'dynsection-0';
</script>
<script xlink:href="../../svgpan.js"/>
<svg id="graph" class="graph">
<g id="viewport">
<title>cee530/manufactured/main.cpp</title>
<polygon fill="#ffffff" stroke="transparent" points="-4,4 -4,-373 3405.7788,-373 3405.7788,4 -4,4"/>
<!-- Node0 -->
<g id="node1" class="node">
<title>Node0</title>
<polygon fill="#bfbfbf" stroke="#000000" points="1997.3647,-340.5 1997.3647,-368.5 2110.0981,-368.5 2110.0981,-340.5 1997.3647,-340.5"/>
<text text-anchor="start" x="2005.3647" y="-356.5" font-family="Helvetica,sans-Serif" font-size="10.00" fill="#000000">cee530/manufactured</text>
<text text-anchor="middle" x="2053.7314" y="-346.5" font-family="Helvetica,sans-Serif" font-size="10.00" fill="#000000">/main.cpp</text>
</g>
<!-- Node1 -->
<g id="node2" class="node">
<title>Node1</title>
<polygon fill="#ffffff" stroke="#bfbfbf" points="1584.3154,-280.5 1584.3154,-298.5 1693.1475,-298.5 1693.1475,-280.5 1584.3154,-280.5"/>
<text text-anchor="middle" x="1638.7314" y="-286.5" font-family="Helvetica,sans-Serif" font-size="10.00" fill="#000000">Epetra_ConfigDefs.h</text>
</g>
<!-- Node0&#45;&gt;Node1 -->
<g id="edge1" class="edge">
<title>Node0&#45;&gt;Node1</title>
<path fill="none" stroke="#191970" d="M1997.2731,-347.7884C1927.7297,-339.1969 1806.1012,-323.1144 1702.7314,-304 1697.3401,-303.0031 1691.714,-301.8685 1686.132,-300.6834"/>
<polygon fill="#191970" stroke="#191970" points="1686.7086,-297.2269 1676.1922,-298.5142 1685.216,-304.0659 1686.7086,-297.2269"/>
</g>
<!-- Node2 -->
<g id="node3" class="node">
<title>Node2</title>
<polygon fill="#ffffff" stroke="#bfbfbf" points="1711.5444,-280.5 1711.5444,-298.5 1825.9185,-298.5 1825.9185,-280.5 1711.5444,-280.5"/>
<text text-anchor="middle" x="1768.7314" y="-286.5" font-family="Helvetica,sans-Serif" font-size="10.00" fill="#000000">Epetra_SerialComm.h</text>
</g>
<!-- Node0&#45;&gt;Node2 -->
<g id="edge2" class="edge">
<title>Node0&#45;&gt;Node2</title>
<path fill="none" stroke="#191970" d="M1997.0839,-341.5804C1944.8405,-329.6652 1868.0521,-312.1521 1818.2167,-300.7861"/>
<polygon fill="#191970" stroke="#191970" points="1818.8453,-297.3397 1808.3173,-298.5284 1817.2887,-304.1644 1818.8453,-297.3397"/>
</g>
<!-- Node3 -->
<g id="node4" class="node">
<title>Node3</title>
<g id="a_node4"><a xlink:href="../../d4/d56/cee530_2manufactured_2manufactured_solution_8hpp.html" target="_top" xlink:title="manufacturedSolution.hpp">
<polygon fill="#ffffff" stroke="#000000" points="1844.3574,-280.5 1844.3574,-298.5 1977.1055,-298.5 1977.1055,-280.5 1844.3574,-280.5"/>
<text text-anchor="middle" x="1910.7314" y="-286.5" font-family="Helvetica,sans-Serif" font-size="10.00" fill="#000000">manufacturedSolution.hpp</text>
</a>
</g>
</g>
<!-- Node0&#45;&gt;Node3 -->
<g id="edge3" class="edge">
<title>Node0&#45;&gt;Node3</title>
<path fill="none" stroke="#191970" d="M2022.7026,-340.396C1998.1558,-329.2383 1964.1199,-313.7675 1940.0333,-302.819"/>
<polygon fill="#191970" stroke="#191970" points="1941.2469,-299.5261 1930.6949,-298.5743 1938.3503,-305.8987 1941.2469,-299.5261"/>
</g>
<!-- Node31 -->
<g id="node32" class="node">
<title>Node31</title>
<polygon fill="#ffffff" stroke="#bfbfbf" points="3303.6841,-.5 3303.6841,-18.5 3401.7788,-18.5 3401.7788,-.5 3303.6841,-.5"/>
<text text-anchor="middle" x="3352.7314" y="-6.5" font-family="Helvetica,sans-Serif" font-size="10.00" fill="#000000">Teuchos_RCP.hpp</text>
</g>
<!-- Node0&#45;&gt;Node31 -->
<g id="edge42" class="edge">
<title>Node0&#45;&gt;Node31</title>
<path fill="none" stroke="#191970" d="M2043.9198,-340.4895C2037.4159,-330.6597 2029.1192,-317.0007 2023.7314,-304 2010.6492,-272.4325 2004.7314,-263.671 2004.7314,-229.5 2004.7314,-229.5 2004.7314,-229.5 2004.7314,-119.5 2004.7314,21.3511 3106.7437,-33.7433 3293.4652,-18.7166"/>
<polygon fill="#191970" stroke="#191970" points="3293.9067,-22.1902 3303.5183,-17.733 3293.225,-15.2234 3293.9067,-22.1902"/>
</g>
<!-- Node40 -->
<g id="node41" class="node">
<title>Node40</title>
<polygon fill="#ffffff" stroke="#bfbfbf" points="2032.4731,-280.5 2032.4731,-298.5 2172.9897,-298.5 2172.9897,-280.5 2032.4731,-280.5"/>
<text text-anchor="middle" x="2102.7314" y="-286.5" font-family="Helvetica,sans-Serif" font-size="10.00" fill="#000000">Teuchos_ParameterList.hpp</text>
</g>
<!-- Node0&#45;&gt;Node40 -->
<g id="edge43" class="edge">
<title>Node0&#45;&gt;Node40</title>
<path fill="none" stroke="#191970" d="M2064.3637,-340.396C2071.8403,-330.4781 2081.8859,-317.1522 2089.8227,-306.6239"/>
<polygon fill="#191970" stroke="#191970" points="2092.666,-308.6664 2095.8908,-298.5743 2087.0763,-304.4527 2092.666,-308.6664"/>
</g>
<!-- Node41 -->
<g id="node42" class="node">
<title>Node41</title>
<polygon fill="#ffffff" stroke="#bfbfbf" points="2190.8501,-280.5 2190.8501,-298.5 2368.6128,-298.5 2368.6128,-280.5 2190.8501,-280.5"/>
<text text-anchor="middle" x="2279.7314" y="-286.5" font-family="Helvetica,sans-Serif" font-size="10.00" fill="#000000">Teuchos_StandardCatchMacros.hpp</text>
</g>
<!-- Node0&#45;&gt;Node41 -->
<g id="edge44" class="edge">
<title>Node0&#45;&gt;Node41</title>
<path fill="none" stroke="#191970" d="M2102.4918,-340.476C2143.1107,-328.7936 2200.3122,-312.3418 2238.637,-301.3192"/>
<polygon fill="#191970" stroke="#191970" points="2239.7907,-304.6293 2248.4337,-298.5016 2237.8559,-297.902 2239.7907,-304.6293"/>
</g>
<!-- Node42 -->
<g id="node43" class="node">
<title>Node42</title>
<polygon fill="#ffffff" stroke="#bfbfbf" points="2386.8452,-280.5 2386.8452,-298.5 2574.6177,-298.5 2574.6177,-280.5 2386.8452,-280.5"/>
<text text-anchor="middle" x="2480.7314" y="-286.5" font-family="Helvetica,sans-Serif" font-size="10.00" fill="#000000">Teuchos_CommandLineProcessor.hpp</text>
</g>
<!-- Node0&#45;&gt;Node42 -->
<g id="edge45" class="edge">
<title>Node0&#45;&gt;Node42</title>
<path fill="none" stroke="#191970" d="M2110.4337,-345.8685C2188.1502,-334.0381 2327.6435,-312.8038 2411.4529,-300.0459"/>
<polygon fill="#191970" stroke="#191970" points="2412.0302,-303.4984 2421.3896,-298.5333 2410.9767,-296.5782 2412.0302,-303.4984"/>
</g>
<!-- Node43 -->
<g id="node44" class="node">
<title>Node43</title>
<polygon fill="#ffffff" stroke="#bfbfbf" points="2592.9238,-275.5 2592.9238,-303.5 2734.5391,-303.5 2734.5391,-275.5 2592.9238,-275.5"/>
<text text-anchor="start" x="2600.9238" y="-291.5" font-family="Helvetica,sans-Serif" font-size="10.00" fill="#000000">Teuchos_XMLParameterList</text>
<text text-anchor="middle" x="2663.7314" y="-281.5" font-family="Helvetica,sans-Serif" font-size="10.00" fill="#000000">CoreHelpers.hpp</text>
</g>
<!-- Node0&#45;&gt;Node43 -->
<g id="edge46" class="edge">
<title>Node0&#45;&gt;Node43</title>
<path fill="none" stroke="#191970" d="M2110.3889,-350.6773C2205.739,-343.8988 2404.4991,-328.2881 2582.6028,-304.0809"/>
<polygon fill="#191970" stroke="#191970" points="2583.2495,-307.5251 2592.6812,-302.6988 2582.2984,-300.59 2583.2495,-307.5251"/>
</g>
<!-- Node4 -->
<g id="node5" class="node">
<title>Node4</title>
<g id="a_node5"><a xlink:href="../../de/d49/tensor__calculus_8hpp.html" target="_top" xlink:title="tensor_calculus.hpp">
<polygon fill="#ffffff" stroke="#000000" points="1695.2588,-165.5 1695.2588,-183.5 1800.2041,-183.5 1800.2041,-165.5 1695.2588,-165.5"/>
<text text-anchor="middle" x="1747.7314" y="-171.5" font-family="Helvetica,sans-Serif" font-size="10.00" fill="#000000">tensor_calculus.hpp</text>
</a>
</g>
</g>
<!-- Node3&#45;&gt;Node4 -->
<g id="edge4" class="edge">
<title>Node3&#45;&gt;Node4</title>
<path fill="none" stroke="#191970" d="M1897.4979,-280.4428C1882.8378,-270.3866 1858.5219,-253.6396 1837.7314,-239 1813.8235,-222.1652 1786.5525,-202.5646 1768.3555,-189.4284"/>
<polygon fill="#191970" stroke="#191970" points="1770.3612,-186.5596 1760.2059,-183.5395 1766.2613,-192.2333 1770.3612,-186.5596"/>
</g>
<!-- Node37 -->
<g id="node38" class="node">
<title>Node37</title>
<g id="a_node38"><a xlink:href="../../d5/dfe/linearized_elasticity_8hpp.html" target="_top" xlink:title="linearizedElasticity.hpp">
<polygon fill="#ffffff" stroke="#000000" points="1846.2407,-220.5 1846.2407,-238.5 1963.2222,-238.5 1963.2222,-220.5 1846.2407,-220.5"/>
<text text-anchor="middle" x="1904.7314" y="-226.5" font-family="Helvetica,sans-Serif" font-size="10.00" fill="#000000">linearizedElasticity.hpp</text>
</a>
</g>
</g>
<!-- Node3&#45;&gt;Node37 -->
<g id="edge38" class="edge">
<title>Node3&#45;&gt;Node37</title>
<path fill="none" stroke="#191970" d="M1909.8202,-280.3873C1908.9832,-272.0174 1907.7156,-259.3414 1906.6549,-248.735"/>
<polygon fill="#191970" stroke="#191970" points="1910.129,-248.3005 1905.6513,-238.6985 1903.1638,-248.9971 1910.129,-248.3005"/>
</g>
<!-- Node5 -->
<g id="node6" class="node">
<title>Node5</title>
<g id="a_node6"><a xlink:href="../../d0/d02/meshpp_8hpp.html" target="_top" xlink:title="meshpp.hpp">
<polygon fill="#ffffff" stroke="#000000" points="1712.2119,-55.5 1712.2119,-73.5 1783.251,-73.5 1783.251,-55.5 1712.2119,-55.5"/>
<text text-anchor="middle" x="1747.7314" y="-61.5" font-family="Helvetica,sans-Serif" font-size="10.00" fill="#000000">meshpp.hpp</text>
</a>
</g>
</g>
<!-- Node4&#45;&gt;Node5 -->
<g id="edge5" class="edge">
<title>Node4&#45;&gt;Node5</title>
<path fill="none" stroke="#191970" d="M1747.7314,-165.4982C1747.7314,-147.6913 1747.7314,-107.6225 1747.7314,-83.6515"/>
<polygon fill="#191970" stroke="#191970" points="1751.2315,-83.6261 1747.7314,-73.6261 1744.2315,-83.6262 1751.2315,-83.6261"/>
</g>
<!-- Node6 -->
<g id="node7" class="node">
<title>Node6</title>
<polygon fill="#ffffff" stroke="#bfbfbf" points="0,-.5 0,-18.5 45.4629,-18.5 45.4629,-.5 0,-.5"/>
<text text-anchor="middle" x="22.7314" y="-6.5" font-family="Helvetica,sans-Serif" font-size="10.00" fill="#000000">stdio.h</text>
</g>
<!-- Node5&#45;&gt;Node6 -->
<g id="edge6" class="edge">
<title>Node5&#45;&gt;Node6</title>
<path fill="none" stroke="#191970" d="M1712.188,-64.103C1487.4228,-61.5201 266.3676,-46.3892 55.6991,-18.5455"/>
<polygon fill="#191970" stroke="#191970" points="56.0371,-15.0579 45.6373,-17.0816 55.0292,-21.985 56.0371,-15.0579"/>
</g>
<!-- Node7 -->
<g id="node8" class="node">
<title>Node7</title>
<polygon fill="#ffffff" stroke="#bfbfbf" points="63.5591,-.5 63.5591,-18.5 117.9038,-18.5 117.9038,-.5 63.5591,-.5"/>
<text text-anchor="middle" x="90.7314" y="-6.5" font-family="Helvetica,sans-Serif" font-size="10.00" fill="#000000">iostream</text>
</g>
<!-- Node5&#45;&gt;Node7 -->
<g id="edge7" class="edge">
<title>Node5&#45;&gt;Node7</title>
<path fill="none" stroke="#191970" d="M1711.9472,-63.9744C1492.4471,-60.6882 331.1884,-42.3839 128.0469,-18.531"/>
<polygon fill="#191970" stroke="#191970" points="128.4393,-15.0527 118.0738,-17.2454 127.5442,-21.9953 128.4393,-15.0527"/>
</g>
<!-- Node8 -->
<g id="node9" class="node">
<title>Node8</title>
<polygon fill="#ffffff" stroke="#bfbfbf" points="136.3398,-.5 136.3398,-18.5 185.123,-18.5 185.123,-.5 136.3398,-.5"/>
<text text-anchor="middle" x="160.7314" y="-6.5" font-family="Helvetica,sans-Serif" font-size="10.00" fill="#000000">istream</text>
</g>
<!-- Node5&#45;&gt;Node8 -->
<g id="edge8" class="edge">
<title>Node5&#45;&gt;Node8</title>
<path fill="none" stroke="#191970" d="M1711.997,-63.9913C1498.105,-60.8762 390.2802,-43.7355 195.5036,-18.7613"/>
<polygon fill="#191970" stroke="#191970" points="195.8399,-15.2741 185.4478,-17.3365 194.8579,-22.2049 195.8399,-15.2741"/>
</g>
<!-- Node9 -->
<g id="node10" class="node">
<title>Node9</title>
<polygon fill="#ffffff" stroke="#bfbfbf" points="203.0615,-.5 203.0615,-18.5 252.4014,-18.5 252.4014,-.5 203.0615,-.5"/>
<text text-anchor="middle" x="227.7314" y="-6.5" font-family="Helvetica,sans-Serif" font-size="10.00" fill="#000000">fstream</text>
</g>
<!-- Node5&#45;&gt;Node9 -->
<g id="edge9" class="edge">
<title>Node5&#45;&gt;Node9</title>
<path fill="none" stroke="#191970" d="M1712.1738,-63.9437C1504.4027,-60.6236 450.4173,-42.8079 262.6262,-18.7764"/>
<polygon fill="#191970" stroke="#191970" points="262.8408,-15.2719 252.4484,-17.3329 261.8578,-22.2025 262.8408,-15.2719"/>
</g>
<!-- Node10 -->
<g id="node11" class="node">
<title>Node10</title>
<polygon fill="#ffffff" stroke="#bfbfbf" points="270.1157,-.5 270.1157,-18.5 313.3472,-18.5 313.3472,-.5 270.1157,-.5"/>
<text text-anchor="middle" x="291.7314" y="-6.5" font-family="Helvetica,sans-Serif" font-size="10.00" fill="#000000">vector</text>
</g>
<!-- Node5&#45;&gt;Node10 -->
<g id="edge10" class="edge">
<title>Node5&#45;&gt;Node10</title>
<path fill="none" stroke="#191970" d="M1711.955,-63.9461C1508.8411,-60.7245 503.749,-43.7346 323.514,-18.7044"/>
<polygon fill="#191970" stroke="#191970" points="323.9318,-15.2275 313.5148,-17.1604 322.8635,-22.1455 323.9318,-15.2275"/>
</g>
<!-- Node11 -->
<g id="node12" class="node">
<title>Node11</title>
<polygon fill="#ffffff" stroke="#bfbfbf" points="331.2217,-.5 331.2217,-18.5 382.2412,-18.5 382.2412,-.5 331.2217,-.5"/>
<text text-anchor="middle" x="356.7314" y="-6.5" font-family="Helvetica,sans-Serif" font-size="10.00" fill="#000000">iomanip</text>
</g>
<!-- Node5&#45;&gt;Node11 -->
<g id="edge11" class="edge">
<title>Node5&#45;&gt;Node11</title>
<path fill="none" stroke="#191970" d="M1712.1447,-64.4195C1527.603,-63.835 677.5241,-59.0541 392.4821,-18.6842"/>
<polygon fill="#191970" stroke="#191970" points="392.9846,-15.2205 382.5827,-17.233 391.9693,-22.1465 392.9846,-15.2205"/>
</g>
<!-- Node12 -->
<g id="node13" class="node">
<title>Node12</title>
<polygon fill="#ffffff" stroke="#bfbfbf" points="400.271,-.5 400.271,-18.5 505.1919,-18.5 505.1919,-.5 400.271,-.5"/>
<text text-anchor="middle" x="452.7314" y="-6.5" font-family="Helvetica,sans-Serif" font-size="10.00" fill="#000000">Epetra_MpiComm.h</text>
</g>
<!-- Node5&#45;&gt;Node12 -->
<g id="edge12" class="edge">
<title>Node5&#45;&gt;Node12</title>
<path fill="none" stroke="#191970" d="M1711.9769,-63.7506C1537.7459,-60.0132 775.8701,-42.6596 515.4218,-19.0316"/>
<polygon fill="#191970" stroke="#191970" points="515.5367,-15.5272 505.2544,-18.0813 514.8852,-22.4968 515.5367,-15.5272"/>
</g>
<!-- Node13 -->
<g id="node14" class="node">
<title>Node13</title>
<polygon fill="#ffffff" stroke="#bfbfbf" points="522.9878,-.5 522.9878,-18.5 638.4751,-18.5 638.4751,-.5 522.9878,-.5"/>
<text text-anchor="middle" x="580.7314" y="-6.5" font-family="Helvetica,sans-Serif" font-size="10.00" fill="#000000">Epetra_FECrsGraph.h</text>
</g>
<!-- Node5&#45;&gt;Node13 -->
<g id="edge13" class="edge">
<title>Node5&#45;&gt;Node13</title>
<path fill="none" stroke="#191970" d="M1712.0344,-64.3131C1575.4737,-63.3272 1072.9942,-57.2189 648.8003,-19.002"/>
<polygon fill="#191970" stroke="#191970" points="649.0704,-15.5122 638.7948,-18.0933 648.4372,-22.4835 649.0704,-15.5122"/>
</g>
<!-- Node14 -->
<g id="node15" class="node">
<title>Node14</title>
<polygon fill="#ffffff" stroke="#bfbfbf" points="656.2734,-.5 656.2734,-18.5 771.1895,-18.5 771.1895,-.5 656.2734,-.5"/>
<text text-anchor="middle" x="713.7314" y="-6.5" font-family="Helvetica,sans-Serif" font-size="10.00" fill="#000000">Epetra_FECrsMatrix.h</text>
</g>
<!-- Node5&#45;&gt;Node14 -->
<g id="edge14" class="edge">
<title>Node5&#45;&gt;Node14</title>
<path fill="none" stroke="#191970" d="M1712.045,-64.0577C1586.1226,-62.2369 1150.7147,-53.7332 781.369,-19.0705"/>
<polygon fill="#191970" stroke="#191970" points="781.5707,-15.5741 771.2854,-18.1161 780.911,-22.5429 781.5707,-15.5741"/>
</g>
<!-- Node15 -->
<g id="node16" class="node">
<title>Node15</title>
<polygon fill="#ffffff" stroke="#bfbfbf" points="788.7563,-.5 788.7563,-18.5 888.7065,-18.5 888.7065,-.5 788.7563,-.5"/>
<text text-anchor="middle" x="838.7314" y="-6.5" font-family="Helvetica,sans-Serif" font-size="10.00" fill="#000000">Epetra_FEVector.h</text>
</g>
<!-- Node5&#45;&gt;Node15 -->
<g id="edge15" class="edge">
<title>Node5&#45;&gt;Node15</title>
<path fill="none" stroke="#191970" d="M1711.9938,-63.9439C1596.0862,-61.8537 1220.0086,-52.8246 898.8582,-19.0077"/>
<polygon fill="#191970" stroke="#191970" points="899.2087,-15.5253 888.8948,-17.9487 898.4688,-22.4861 899.2087,-15.5253"/>
</g>
<!-- Node16 -->
<g id="node17" class="node">
<title>Node16</title>
<polygon fill="#ffffff" stroke="#bfbfbf" points="907.1455,-.5 907.1455,-18.5 994.3174,-18.5 994.3174,-.5 907.1455,-.5"/>
<text text-anchor="middle" x="950.7314" y="-6.5" font-family="Helvetica,sans-Serif" font-size="10.00" fill="#000000">Epetra_Vector.h</text>
</g>
<!-- Node5&#45;&gt;Node16 -->
<g id="edge16" class="edge">
<title>Node5&#45;&gt;Node16</title>
<path fill="none" stroke="#191970" d="M1711.9782,-63.787C1605.7832,-61.3573 1282.8585,-51.7157 1004.6376,-18.957"/>
<polygon fill="#191970" stroke="#191970" points="1004.6875,-15.4383 994.3439,-17.7319 1003.8601,-22.3893 1004.6875,-15.4383"/>
</g>
<!-- Node17 -->
<g id="node18" class="node">
<title>Node17</title>
<polygon fill="#ffffff" stroke="#bfbfbf" points="1012.3228,-.5 1012.3228,-18.5 1091.1401,-18.5 1091.1401,-.5 1012.3228,-.5"/>
<text text-anchor="middle" x="1051.7314" y="-6.5" font-family="Helvetica,sans-Serif" font-size="10.00" fill="#000000">Epetra_Map.h</text>
</g>
<!-- Node5&#45;&gt;Node17 -->
<g id="edge17" class="edge">
<title>Node5&#45;&gt;Node17</title>
<path fill="none" stroke="#191970" d="M1712.1002,-63.5651C1615.4147,-60.6956 1339.9155,-50.3103 1101.47,-19.0811"/>
<polygon fill="#191970" stroke="#191970" points="1101.592,-15.5667 1091.2188,-17.7225 1100.6723,-22.5061 1101.592,-15.5667"/>
</g>
<!-- Node18 -->
<g id="node19" class="node">
<title>Node18</title>
<polygon fill="#ffffff" stroke="#bfbfbf" points="1109.2021,-.5 1109.2021,-18.5 1250.2607,-18.5 1250.2607,-.5 1109.2021,-.5"/>
<text text-anchor="middle" x="1179.7314" y="-6.5" font-family="Helvetica,sans-Serif" font-size="10.00" fill="#000000">Epetra_SerialDenseMatrix.h</text>
</g>
<!-- Node5&#45;&gt;Node18 -->
<g id="edge18" class="edge">
<title>Node5&#45;&gt;Node18</title>
<path fill="none" stroke="#191970" d="M1712.1121,-61.5164C1632.915,-54.8115 1435.9855,-37.7471 1260.5478,-19.1717"/>
<polygon fill="#191970" stroke="#191970" points="1260.67,-15.665 1250.356,-18.0882 1259.9299,-22.6258 1260.67,-15.665"/>
</g>
<!-- Node19 -->
<g id="node20" class="node">
<title>Node19</title>
<polygon fill="#ffffff" stroke="#bfbfbf" points="1267.9092,-.5 1267.9092,-18.5 1409.5537,-18.5 1409.5537,-.5 1267.9092,-.5"/>
<text text-anchor="middle" x="1338.7314" y="-6.5" font-family="Helvetica,sans-Serif" font-size="10.00" fill="#000000">Epetra_SerialDenseVector.h</text>
</g>
<!-- Node5&#45;&gt;Node19 -->
<g id="edge19" class="edge">
<title>Node5&#45;&gt;Node19</title>
<path fill="none" stroke="#191970" d="M1712.1509,-59.7153C1646.3719,-50.8697 1504.381,-31.7756 1415.6817,-19.8478"/>
<polygon fill="#191970" stroke="#191970" points="1416.0486,-16.3657 1405.6713,-18.5017 1415.1156,-23.3033 1416.0486,-16.3657"/>
</g>
<!-- Node20 -->
<g id="node21" class="node">
<title>Node20</title>
<polygon fill="#ffffff" stroke="#bfbfbf" points="1427.3501,-.5 1427.3501,-18.5 1580.1128,-18.5 1580.1128,-.5 1427.3501,-.5"/>
<text text-anchor="middle" x="1503.7314" y="-6.5" font-family="Helvetica,sans-Serif" font-size="10.00" fill="#000000">Epetra_IntSerialDenseVector.h</text>
</g>
<!-- Node5&#45;&gt;Node20 -->
<g id="edge20" class="edge">
<title>Node5&#45;&gt;Node20</title>
<path fill="none" stroke="#191970" d="M1711.9904,-56.4436C1670.3079,-47.048 1601.1212,-31.4526 1554.0289,-20.8375"/>
<polygon fill="#191970" stroke="#191970" points="1554.564,-17.3704 1544.0391,-18.5857 1553.0247,-24.1991 1554.564,-17.3704"/>
</g>
<!-- Node21 -->
<g id="node22" class="node">
<title>Node21</title>
<polygon fill="#ffffff" stroke="#bfbfbf" points="1597.8794,-.5 1597.8794,-18.5 1685.5835,-18.5 1685.5835,-.5 1597.8794,-.5"/>
<text text-anchor="middle" x="1641.7314" y="-6.5" font-family="Helvetica,sans-Serif" font-size="10.00" fill="#000000">Epetra_Import.h</text>
</g>
<!-- Node5&#45;&gt;Node21 -->
<g id="edge21" class="edge">
<title>Node5&#45;&gt;Node21</title>
<path fill="none" stroke="#191970" d="M1730.2277,-55.4179C1713.3495,-46.6603 1687.5827,-33.2907 1668.1978,-23.2326"/>
<polygon fill="#191970" stroke="#191970" points="1669.7495,-20.0946 1659.2612,-18.5956 1666.5255,-26.308 1669.7495,-20.0946"/>
</g>
<!-- Node22 -->
<g id="node23" class="node">
<title>Node22</title>
<polygon fill="#ffffff" stroke="#bfbfbf" points="1703.5986,-.5 1703.5986,-18.5 1791.8643,-18.5 1791.8643,-.5 1703.5986,-.5"/>
<text text-anchor="middle" x="1747.7314" y="-6.5" font-family="Helvetica,sans-Serif" font-size="10.00" fill="#000000">Epetra_Export.h</text>
</g>
<!-- Node5&#45;&gt;Node22 -->
<g id="edge22" class="edge">
<title>Node5&#45;&gt;Node22</title>
<path fill="none" stroke="#191970" d="M1747.7314,-55.4179C1747.7314,-48.2164 1747.7314,-37.8962 1747.7314,-28.8632"/>
<polygon fill="#191970" stroke="#191970" points="1751.2315,-28.7794 1747.7314,-18.7795 1744.2315,-28.7795 1751.2315,-28.7794"/>
</g>
<!-- Node23 -->
<g id="node24" class="node">
<title>Node23</title>
<polygon fill="#ffffff" stroke="#bfbfbf" points="1810.1216,-.5 1810.1216,-18.5 1891.3413,-18.5 1891.3413,-.5 1810.1216,-.5"/>
<text text-anchor="middle" x="1850.7314" y="-6.5" font-family="Helvetica,sans-Serif" font-size="10.00" fill="#000000">Epetra_Time.h</text>
</g>
<!-- Node5&#45;&gt;Node23 -->
<g id="edge23" class="edge">
<title>Node5&#45;&gt;Node23</title>
<path fill="none" stroke="#191970" d="M1764.7398,-55.4179C1781.0658,-46.7001 1805.9504,-33.4122 1824.7569,-23.3699"/>
<polygon fill="#191970" stroke="#191970" points="1826.5253,-26.3934 1833.6978,-18.5956 1823.228,-20.2186 1826.5253,-26.3934"/>
</g>
<!-- Node24 -->
<g id="node25" class="node">
<title>Node24</title>
<polygon fill="#ffffff" stroke="#bfbfbf" points="1909.0273,-.5 1909.0273,-18.5 2058.4355,-18.5 2058.4355,-.5 1909.0273,-.5"/>
<text text-anchor="middle" x="1983.7314" y="-6.5" font-family="Helvetica,sans-Serif" font-size="10.00" fill="#000000">ml_MultiLevelPreconditioner.h</text>
</g>
<!-- Node5&#45;&gt;Node24 -->
<g id="edge24" class="edge">
<title>Node5&#45;&gt;Node24</title>
<path fill="none" stroke="#191970" d="M1783.3186,-56.2064C1823.7816,-46.7764 1890.0678,-31.3284 1935.2383,-20.8014"/>
<polygon fill="#191970" stroke="#191970" points="1936.1599,-24.1805 1945.1045,-18.502 1934.571,-17.3632 1936.1599,-24.1805"/>
</g>
<!-- Node25 -->
<g id="node26" class="node">
<title>Node25</title>
<polygon fill="#ffffff" stroke="#bfbfbf" points="2076.6553,-.5 2076.6553,-18.5 2168.8076,-18.5 2168.8076,-.5 2076.6553,-.5"/>
<text text-anchor="middle" x="2122.7314" y="-6.5" font-family="Helvetica,sans-Serif" font-size="10.00" fill="#000000">ml_epetra_utils.h</text>
</g>
<!-- Node5&#45;&gt;Node25 -->
<g id="edge25" class="edge">
<title>Node5&#45;&gt;Node25</title>
<path fill="none" stroke="#191970" d="M1783.298,-59.7952C1840.6314,-52.1344 1957.287,-36.2316 2066.3448,-19.1822"/>
<polygon fill="#191970" stroke="#191970" points="2067.1984,-22.5911 2076.5344,-17.5822 2066.1126,-15.6758 2067.1984,-22.5911"/>
</g>
<!-- Node26 -->
<g id="node27" class="node">
<title>Node26</title>
<polygon fill="#ffffff" stroke="#bfbfbf" points="2186.6602,-.5 2186.6602,-18.5 2258.8027,-18.5 2258.8027,-.5 2186.6602,-.5"/>
<text text-anchor="middle" x="2222.7314" y="-6.5" font-family="Helvetica,sans-Serif" font-size="10.00" fill="#000000">ml_include.h</text>
</g>
<!-- Node5&#45;&gt;Node26 -->
<g id="edge26" class="edge">
<title>Node5&#45;&gt;Node26</title>
<path fill="none" stroke="#191970" d="M1783.2884,-61.9795C1855.5167,-56.5925 2024.7359,-42.6149 2176.4732,-19.0605"/>
<polygon fill="#191970" stroke="#191970" points="2177.1055,-22.5042 2186.4414,-17.4951 2176.0195,-15.5889 2177.1055,-22.5042"/>
</g>
<!-- Node27 -->
<g id="node28" class="node">
<title>Node27</title>
<polygon fill="#ffffff" stroke="#bfbfbf" points="2277.1528,-.5 2277.1528,-18.5 2414.3101,-18.5 2414.3101,-.5 2277.1528,-.5"/>
<text text-anchor="middle" x="2345.7314" y="-6.5" font-family="Helvetica,sans-Serif" font-size="10.00" fill="#000000">EpetraExt_RowMatrixOut.h</text>
</g>
<!-- Node5&#45;&gt;Node27 -->
<g id="edge27" class="edge">
<title>Node5&#45;&gt;Node27</title>
<path fill="none" stroke="#191970" d="M1783.3922,-61.799C1866.2197,-55.4356 2078.2631,-38.6282 2266.7483,-19.0712"/>
<polygon fill="#191970" stroke="#191970" points="2267.2592,-22.537 2276.8423,-18.0189 2266.5333,-15.5748 2267.2592,-22.537"/>
</g>
<!-- Node28 -->
<g id="node29" class="node">
<title>Node28</title>
<polygon fill="#ffffff" stroke="#bfbfbf" points="2432.0322,-.5 2432.0322,-18.5 2571.4307,-18.5 2571.4307,-.5 2432.0322,-.5"/>
<text text-anchor="middle" x="2501.7314" y="-6.5" font-family="Helvetica,sans-Serif" font-size="10.00" fill="#000000">EpetraExt_MultiVectorOut.h</text>
</g>
<!-- Node5&#45;&gt;Node28 -->
<g id="edge28" class="edge">
<title>Node5&#45;&gt;Node28</title>
<path fill="none" stroke="#191970" d="M1783.3337,-62.7826C1882.6756,-57.846 2171.5228,-42.5084 2421.993,-19.1224"/>
<polygon fill="#191970" stroke="#191970" points="2422.382,-22.6014 2432.0105,-18.1808 2421.7268,-15.6321 2422.382,-22.6014"/>
</g>
<!-- Node29 -->
<g id="node30" class="node">
<title>Node29</title>
<polygon fill="#ffffff" stroke="#bfbfbf" points="2589.478,-.5 2589.478,-18.5 2699.9849,-18.5 2699.9849,-.5 2589.478,-.5"/>
<text text-anchor="middle" x="2644.7314" y="-6.5" font-family="Helvetica,sans-Serif" font-size="10.00" fill="#000000">EpetraExt_VectorIn.h</text>
</g>
<!-- Node5&#45;&gt;Node29 -->
<g id="edge29" class="edge">
<title>Node5&#45;&gt;Node29</title>
<path fill="none" stroke="#191970" d="M1783.5849,-62.9863C1919.3935,-57.1847 2403.0007,-35.8942 2579.1144,-19.0554"/>
<polygon fill="#191970" stroke="#191970" points="2579.6595,-22.5187 2589.2679,-18.0545 2578.9728,-15.5524 2579.6595,-22.5187"/>
</g>
<!-- Node30 -->
<g id="node31" class="node">
<title>Node30</title>
<polygon fill="#ffffff" stroke="#bfbfbf" points="2717.9214,-.5 2717.9214,-18.5 2849.5415,-18.5 2849.5415,-.5 2717.9214,-.5"/>
<text text-anchor="middle" x="2783.7314" y="-6.5" font-family="Helvetica,sans-Serif" font-size="10.00" fill="#000000">EpetraExt_MultiVectorIn.h</text>
</g>
<!-- Node5&#45;&gt;Node30 -->
<g id="edge30" class="edge">
<title>Node5&#45;&gt;Node30</title>
<path fill="none" stroke="#191970" d="M1783.2869,-62.983C1941.3428,-56.2176 2577.7818,-28.7371 2707.8543,-18.9447"/>
<polygon fill="#191970" stroke="#191970" points="2708.226,-22.4262 2717.9127,-18.1345 2707.6639,-15.4488 2708.226,-22.4262"/>
</g>
<!-- Node5&#45;&gt;Node31 -->
<g id="edge31" class="edge">
<title>Node5&#45;&gt;Node31</title>
<path fill="none" stroke="#191970" d="M1783.5475,-62.9714C1830.9422,-60.9781 1917.099,-57.4564 1990.7314,-55 2566.3488,-35.7971 2715.1973,-72.7287 3293.2719,-18.8806"/>
<polygon fill="#191970" stroke="#191970" points="3293.9082,-22.3364 3303.5382,-17.9189 3293.2553,-15.3669 3293.9082,-22.3364"/>
</g>
<!-- Node32 -->
<g id="node33" class="node">
<title>Node32</title>
<polygon fill="#ffffff" stroke="#bfbfbf" points="2867.5,-.5 2867.5,-18.5 2927.9629,-18.5 2927.9629,-.5 2867.5,-.5"/>
<text text-anchor="middle" x="2897.7314" y="-6.5" font-family="Helvetica,sans-Serif" font-size="10.00" fill="#000000">Amesos.h</text>
</g>
<!-- Node5&#45;&gt;Node32 -->
<g id="edge32" class="edge">
<title>Node5&#45;&gt;Node32</title>
<path fill="none" stroke="#191970" d="M1783.2742,-63.092C1961.8777,-56.0112 2756.5074,-24.4409 2857.1255,-18.314"/>
<polygon fill="#191970" stroke="#191970" points="2857.4809,-21.7972 2867.1856,-17.5463 2856.9482,-14.8175 2857.4809,-21.7972"/>
</g>
<!-- Node33 -->
<g id="node34" class="node">
<title>Node33</title>
<polygon fill="#ffffff" stroke="#bfbfbf" points="2946.2783,-.5 2946.2783,-18.5 3011.1846,-18.5 3011.1846,-.5 2946.2783,-.5"/>
<text text-anchor="middle" x="2978.7314" y="-6.5" font-family="Helvetica,sans-Serif" font-size="10.00" fill="#000000">AztecOO.h</text>
</g>
<!-- Node5&#45;&gt;Node33 -->
<g id="edge33" class="edge">
<title>Node5&#45;&gt;Node33</title>
<path fill="none" stroke="#191970" d="M1783.5516,-63.088C1830.951,-61.2222 1917.1128,-57.8398 1990.7314,-55 2407.8829,-38.9085 2517.8337,-73.1027 2935.8868,-18.8454"/>
<polygon fill="#191970" stroke="#191970" points="2936.3576,-22.3137 2945.8197,-17.5472 2935.4504,-15.3728 2936.3576,-22.3137"/>
</g>
<!-- Node34 -->
<g id="node35" class="node">
<title>Node34</title>
<polygon fill="#ffffff" stroke="#bfbfbf" points="3029.4238,-.5 3029.4238,-18.5 3146.0391,-18.5 3146.0391,-.5 3029.4238,-.5"/>
<text text-anchor="middle" x="3087.7314" y="-6.5" font-family="Helvetica,sans-Serif" font-size="10.00" fill="#000000">Amesos_BaseSolver.h</text>
</g>
<!-- Node5&#45;&gt;Node34 -->
<g id="edge34" class="edge">
<title>Node5&#45;&gt;Node34</title>
<path fill="none" stroke="#191970" d="M1783.5504,-63.0537C1830.9483,-61.1503 1917.1085,-57.727 1990.7314,-55 2444.6816,-38.1857 2562.1299,-58.4112 3019.0015,-18.9577"/>
<polygon fill="#191970" stroke="#191970" points="3019.5103,-22.4268 3029.17,-18.0746 3018.9046,-15.453 3019.5103,-22.4268"/>
</g>
<!-- Node35 -->
<g id="node36" class="node">
<title>Node35</title>
<polygon fill="#ffffff" stroke="#bfbfbf" points="3163.6157,-.5 3163.6157,-18.5 3211.8472,-18.5 3211.8472,-.5 3163.6157,-.5"/>
<text text-anchor="middle" x="3187.7314" y="-6.5" font-family="Helvetica,sans-Serif" font-size="10.00" fill="#000000">metis.h</text>
</g>
<!-- Node5&#45;&gt;Node35 -->
<g id="edge35" class="edge">
<title>Node5&#45;&gt;Node35</title>
<path fill="none" stroke="#191970" d="M1783.5487,-63.0083C1830.9449,-61.0553 1917.1031,-57.5778 1990.7314,-55 2246.0799,-46.0601 2882.6346,-58.7771 3153.1247,-18.8129"/>
<polygon fill="#191970" stroke="#191970" points="3154.02,-22.2167 3163.3759,-17.2449 3152.9616,-15.2972 3154.02,-22.2167"/>
</g>
<!-- Node36 -->
<g id="node37" class="node">
<title>Node36</title>
<g id="a_node37"><a xlink:href="../../d4/dbc/fepp_8hpp.html" target="_top" xlink:title="fepp.hpp">
<polygon fill="#ffffff" stroke="#000000" points="3230.2686,-.5 3230.2686,-18.5 3285.1943,-18.5 3285.1943,-.5 3230.2686,-.5"/>
<text text-anchor="middle" x="3257.7314" y="-6.5" font-family="Helvetica,sans-Serif" font-size="10.00" fill="#000000">fepp.hpp</text>
</a>
</g>
</g>
<!-- Node5&#45;&gt;Node36 -->
<g id="edge36" class="edge">
<title>Node5&#45;&gt;Node36</title>
<path fill="none" stroke="#191970" d="M1783.3684,-62.7271C1829.3265,-60.7175 1911.2657,-57.4086 1981.7314,-55 2255.0222,-45.6587 2940.9677,-57.2377 3211.7314,-19 3214.5018,-18.6088 3217.3639,-18.0885 3220.2526,-17.4923"/>
<polygon fill="#191970" stroke="#191970" points="3221.1102,-20.8867 3230.0814,-15.2503 3219.5534,-14.062 3221.1102,-20.8867"/>
</g>
<!-- Node36&#45;&gt;Node5 -->
<g id="edge37" class="edge">
<title>Node36&#45;&gt;Node5</title>
<path fill="none" stroke="#191970" d="M3232.9151,-18.5021C3231.846,-18.6847 3230.7821,-18.8516 3229.7314,-19 2958.9677,-57.2377 2273.0222,-45.6587 1999.7314,-55 1927.8861,-57.4557 1844.1137,-60.8474 1793.4147,-62.8436"/>
<polygon fill="#191970" stroke="#191970" points="1793.2769,-59.3462 1783.4218,-63.2355 1793.5513,-66.3408 1793.2769,-59.3462"/>
</g>
<!-- Node38 -->
<g id="node39" class="node">
<title>Node38</title>
<g id="a_node39"><a xlink:href="../../d3/dd8/linear_finite_element_problem_8hpp.html" target="_top" xlink:title="linearFiniteElementProblem.hpp">
<polygon fill="#ffffff" stroke="#000000" points="1818.584,-165.5 1818.584,-183.5 1976.8789,-183.5 1976.8789,-165.5 1818.584,-165.5"/>
<text text-anchor="middle" x="1897.7314" y="-171.5" font-family="Helvetica,sans-Serif" font-size="10.00" fill="#000000">linearFiniteElementProblem.hpp</text>
</a>
</g>
</g>
<!-- Node37&#45;&gt;Node38 -->
<g id="edge39" class="edge">
<title>Node37&#45;&gt;Node38</title>
<path fill="none" stroke="#191970" d="M1903.5755,-220.4179C1902.659,-213.2164 1901.3455,-202.8962 1900.1959,-193.8632"/>
<polygon fill="#191970" stroke="#191970" points="1903.6471,-193.2575 1898.9125,-183.7795 1896.7031,-194.1414 1903.6471,-193.2575"/>
</g>
<!-- Node39 -->
<g id="node40" class="node">
<title>Node39</title>
<g id="a_node40"><a xlink:href="../../dd/d80/base_class_f_e_m_8hpp.html" target="_top" xlink:title="baseClassFEM.hpp">
<polygon fill="#ffffff" stroke="#000000" points="1811.1011,-110.5 1811.1011,-128.5 1914.3618,-128.5 1914.3618,-110.5 1811.1011,-110.5"/>
<text text-anchor="middle" x="1862.7314" y="-116.5" font-family="Helvetica,sans-Serif" font-size="10.00" fill="#000000">baseClassFEM.hpp</text>
</a>
</g>
</g>
<!-- Node38&#45;&gt;Node39 -->
<g id="edge40" class="edge">
<title>Node38&#45;&gt;Node39</title>
<path fill="none" stroke="#191970" d="M1891.9519,-165.4179C1887.1173,-157.8207 1880.0741,-146.7527 1874.1138,-137.3866"/>
<polygon fill="#191970" stroke="#191970" points="1876.9582,-135.337 1868.6366,-128.7795 1871.0525,-139.0952 1876.9582,-135.337"/>
</g>
<!-- Node39&#45;&gt;Node5 -->
<g id="edge41" class="edge">
<title>Node39&#45;&gt;Node5</title>
<path fill="none" stroke="#191970" d="M1843.7415,-110.4179C1825.2638,-101.5807 1796.9667,-88.0473 1775.8731,-77.9591"/>
<polygon fill="#191970" stroke="#191970" points="1777.281,-74.7528 1766.7496,-73.5956 1774.2608,-81.0677 1777.281,-74.7528"/>
</g>
</g>
</svg>
        <g id="navigator" transform="translate(0 0)" fill="#404254">
                <rect fill="#f2f5e9" fill-opacity="0.5" stroke="#606060" stroke-width=".5" x="0" y="0" width="60" height="60"/>
                <use id="zoomplus" xlink:href="#zoomPlus" x="17" y="9" onmousedown="handleZoom(evt,'in')"/>
                <use id="zoomminus" xlink:href="#zoomMin" x="42" y="9" onmousedown="handleZoom(evt,'out')"/>
                <use id="reset" xlink:href="#resetDef" x="30" y="36" onmousedown="handleReset()"/>
                <g id="arrowUp" xlink:href="#dirArrow" transform="translate(30 24)" onmousedown="handlePan(0,-1)">
                  <use xlink:href="#rim" fill="#404040">
                        <set attributeName="fill" to="#808080" begin="arrowUp.mouseover" end="arrowUp.mouseout"/>
                  </use>
                  <path fill="none" stroke="white" stroke-width="1.5" d="M0,-3.0v7 M-2.5,-0.5L0,-3.0L2.5,-0.5"/>
                </g>
                <g id="arrowRight" xlink:href="#dirArrow" transform="rotate(90) translate(36 -43)" onmousedown="handlePan(1,0)">
                  <use xlink:href="#rim" fill="#404040">
                        <set attributeName="fill" to="#808080" begin="arrowRight.mouseover" end="arrowRight.mouseout"/>
                  </use>
                  <path fill="none" stroke="white" stroke-width="1.5" d="M0,-3.0v7 M-2.5,-0.5L0,-3.0L2.5,-0.5"/>
                </g>
                <g id="arrowDown" xlink:href="#dirArrow" transform="rotate(180) translate(-30 -48)" onmousedown="handlePan(0,1)">
                  <use xlink:href="#rim" fill="#404040">
                        <set attributeName="fill" to="#808080" begin="arrowDown.mouseover" end="arrowDown.mouseout"/>
                  </use>
                  <path fill="none" stroke="white" stroke-width="1.5" d="M0,-3.0v7 M-2.5,-0.5L0,-3.0L2.5,-0.5"/>
                </g>
                <g id="arrowLeft" xlink:href="#dirArrow" transform="rotate(270) translate(-36 17)" onmousedown="handlePan(-1,0)">
                  <use xlink:href="#rim" fill="#404040">
                        <set attributeName="fill" to="#808080" begin="arrowLeft.mouseover" end="arrowLeft.mouseout"/>
                  </use>
                  <path fill="none" stroke="white" stroke-width="1.5" d="M0,-3.0v7 M-2.5,-0.5L0,-3.0L2.5,-0.5"/>
                </g>
        </g>
        <svg viewBox="0 0 15 15" width="100%" height="30px" preserveAspectRatio="xMaxYMin meet">
         <g id="arrow_out" transform="scale(0.3 0.3)">
          <a xlink:href="cee530_2manufactured_2main_8cpp__incl_org.svg" target="_base">
           <rect id="button" ry="5" rx="5" y="6" x="6" height="38" width="38"
                fill="#f2f5e9" fill-opacity="0.5" stroke="#606060" stroke-width="1.0"/>
           <path id="arrow"
             d="M 11.500037,31.436501 C 11.940474,20.09759 22.043105,11.32322 32.158766,21.979434 L 37.068811,17.246167 C 37.068811,17.246167 37.088388,32 37.088388,32 L 22.160133,31.978069 C 22.160133,31.978069 26.997745,27.140456 26.997745,27.140456 C 18.528582,18.264221 13.291696,25.230495 11.500037,31.436501 z"
             style="fill:#404040;"/>
          </a>
         </g>
        </svg>
</svg>
