<?xml version="1.0" encoding="UTF-8" standalone="no"?>
<!DOCTYPE svg PUBLIC "-//W3C//DTD SVG 1.1//EN"
 "http://www.w3.org/Graphics/SVG/1.1/DTD/svg11.dtd">
<!-- Generated by graphviz version 2.40.1 (20161225.0304)
 -->
<!-- Title: hyperelasticity Pages: 1 -->
<svg width="759pt" height="326pt"
 viewBox="0.00 0.00 758.88 326.00" xmlns="http://www.w3.org/2000/svg" xmlns:xlink="http://www.w3.org/1999/xlink">
<g id="graph0" class="graph" transform="scale(1 1) rotate(0) translate(4 322)">
<title>hyperelasticity</title>
<polygon fill="#ffffff" stroke="transparent" points="-4,4 -4,-322 754.8799,-322 754.8799,4 -4,4"/>
<!-- Node0 -->
<g id="node1" class="node">
<title>Node0</title>
<polygon fill="#bfbfbf" stroke="#000000" points="282.4033,-162.5 282.4033,-180.5 361.7627,-180.5 361.7627,-162.5 282.4033,-162.5"/>
<text text-anchor="middle" x="322.083" y="-168.5" font-family="Helvetica,sans-Serif" font-size="10.00" fill="#000000">hyperelasticity</text>
</g>
<!-- Node3 -->
<g id="node4" class="node">
<title>Node3</title>
<g id="a_node4"><a xlink:href="../../d1/d5c/classcompressible_hyperelasticity.html" target="_top" xlink:title="compressibleHyperelasticity">
<polygon fill="#ffffff" stroke="#000000" points="415.5508,-225.5 415.5508,-243.5 555.4814,-243.5 555.4814,-225.5 415.5508,-225.5"/>
<text text-anchor="middle" x="485.5161" y="-231.5" font-family="Helvetica,sans-Serif" font-size="10.00" fill="#000000">compressibleHyperelasticity</text>
</a>
</g>
</g>
<!-- Node0&#45;&gt;Node3 -->
<g id="edge3" class="edge">
<title>Node0&#45;&gt;Node3</title>
<path fill="none" stroke="#191970" d="M355.2286,-184.2769C386.9939,-196.5218 434.1287,-214.6913 462.1436,-225.4904"/>
<polygon fill="#191970" stroke="#191970" points="356.0887,-180.8575 345.499,-180.5264 353.5708,-187.389 356.0887,-180.8575"/>
</g>
<!-- Node8 -->
<g id="node9" class="node">
<title>Node8</title>
<g id="a_node9"><a xlink:href="../../d0/d85/classnearly_incompressible_hyperelasticity.html" target="_top" xlink:title="nearlyIncompressibleHyperelasticity">
<polygon fill="#ffffff" stroke="#000000" points="397.7627,-99.5 397.7627,-117.5 573.2695,-117.5 573.2695,-99.5 397.7627,-99.5"/>
<text text-anchor="middle" x="485.5161" y="-105.5" font-family="Helvetica,sans-Serif" font-size="10.00" fill="#000000">nearlyIncompressibleHyperelasticity</text>
</a>
</g>
</g>
<!-- Node0&#45;&gt;Node8 -->
<g id="edge8" class="edge">
<title>Node0&#45;&gt;Node8</title>
<path fill="none" stroke="#191970" d="M355.2286,-158.7231C386.9939,-146.4782 434.1287,-128.3087 462.1436,-117.5096"/>
<polygon fill="#191970" stroke="#191970" points="353.5708,-155.611 345.499,-162.4736 356.0887,-162.1425 353.5708,-155.611"/>
</g>
<!-- Node1 -->
<g id="node2" class="node">
<title>Node1</title>
<g id="a_node2"><a xlink:href="../../d8/dc2/class_finite___element___problem.html" target="_top" xlink:title="Finite_Element_Problem">
<polygon fill="#ffffff" stroke="#000000" points="120.9063,-162.5 120.9063,-180.5 246.4033,-180.5 246.4033,-162.5 120.9063,-162.5"/>
<text text-anchor="middle" x="183.6548" y="-168.5" font-family="Helvetica,sans-Serif" font-size="10.00" fill="#000000">Finite_Element_Problem</text>
</a>
</g>
</g>
<!-- Node1&#45;&gt;Node0 -->
<g id="edge1" class="edge">
<title>Node1&#45;&gt;Node0</title>
<path fill="none" stroke="#191970" d="M256.9261,-171.5C265.5528,-171.5 274.0952,-171.5 282.0148,-171.5"/>
<polygon fill="#191970" stroke="#191970" points="256.7926,-168.0001 246.7926,-171.5 256.7926,-175.0001 256.7926,-168.0001"/>
</g>
<!-- Node2 -->
<g id="node3" class="node">
<title>Node2</title>
<g id="a_node3"><a xlink:href="../../d2/d97/class_base_class_f_e_m.html" target="_top" xlink:title="BaseClassFEM">
<polygon fill="#ffffff" stroke="#000000" points="0,-162.5 0,-180.5 84.9063,-180.5 84.9063,-162.5 0,-162.5"/>
<text text-anchor="middle" x="42.4531" y="-168.5" font-family="Helvetica,sans-Serif" font-size="10.00" fill="#000000">BaseClassFEM</text>
</a>
</g>
</g>
<!-- Node2&#45;&gt;Node1 -->
<g id="edge2" class="edge">
<title>Node2&#45;&gt;Node1</title>
<path fill="none" stroke="#191970" d="M95.4354,-171.5C103.6889,-171.5 112.2856,-171.5 120.7338,-171.5"/>
<polygon fill="#191970" stroke="#191970" points="95.2015,-168.0001 85.2015,-171.5 95.2014,-175.0001 95.2015,-168.0001"/>
</g>
<!-- Node4 -->
<g id="node5" class="node">
<title>Node4</title>
<g id="a_node5"><a xlink:href="../../d1/dbe/classmanufactured_solution.html" target="_top" xlink:title="manufacturedSolution">
<polygon fill="#ffffff" stroke="#000000" points="623.4321,-299.5 623.4321,-317.5 736.7173,-317.5 736.7173,-299.5 623.4321,-299.5"/>
<text text-anchor="middle" x="680.0747" y="-305.5" font-family="Helvetica,sans-Serif" font-size="10.00" fill="#000000">manufacturedSolution</text>
</a>
</g>
</g>
<!-- Node3&#45;&gt;Node4 -->
<g id="edge4" class="edge">
<title>Node3&#45;&gt;Node4</title>
<path fill="none" stroke="#191970" d="M512.2391,-248.2502C536.9316,-260.5532 574.8853,-278.4552 609.2695,-290.5 618.8458,-293.8546 629.3515,-296.8704 639.2705,-299.4315"/>
<polygon fill="#191970" stroke="#191970" points="513.6522,-245.0431 503.1462,-243.6735 510.505,-251.2957 513.6522,-245.0431"/>
</g>
<!-- Node5 -->
<g id="node6" class="node">
<title>Node5</title>
<g id="a_node6"><a xlink:href="../../dd/d20/classrubberblock.html" target="_top" xlink:title="rubberblock">
<polygon fill="#ffffff" stroke="#000000" points="645.9492,-262.5 645.9492,-280.5 714.2002,-280.5 714.2002,-262.5 645.9492,-262.5"/>
<text text-anchor="middle" x="680.0747" y="-268.5" font-family="Helvetica,sans-Serif" font-size="10.00" fill="#000000">rubberblock</text>
</a>
</g>
</g>
<!-- Node3&#45;&gt;Node5 -->
<g id="edge5" class="edge">
<title>Node3&#45;&gt;Node5</title>
<path fill="none" stroke="#191970" d="M543.2038,-245.4707C576.5733,-251.8167 617.4368,-259.5879 645.783,-264.9786"/>
<polygon fill="#191970" stroke="#191970" points="543.5883,-241.9812 533.1105,-243.5512 542.2805,-248.8579 543.5883,-241.9812"/>
</g>
<!-- Node6 -->
<g id="node7" class="node">
<title>Node6</title>
<g id="a_node7"><a xlink:href="../../de/dd1/class_t_i_mooney.html" target="_top" xlink:title="TIMooney">
<polygon fill="#ffffff" stroke="#000000" points="649.8433,-225.5 649.8433,-243.5 710.3062,-243.5 710.3062,-225.5 649.8433,-225.5"/>
<text text-anchor="middle" x="680.0747" y="-231.5" font-family="Helvetica,sans-Serif" font-size="10.00" fill="#000000">TIMooney</text>
</a>
</g>
</g>
<!-- Node3&#45;&gt;Node6 -->
<g id="edge6" class="edge">
<title>Node3&#45;&gt;Node6</title>
<path fill="none" stroke="#191970" d="M566.1105,-234.5C595.6865,-234.5 627.3835,-234.5 649.8217,-234.5"/>
<polygon fill="#191970" stroke="#191970" points="565.7563,-231.0001 555.7562,-234.5 565.7562,-238.0001 565.7563,-231.0001"/>
</g>
<!-- Node7 -->
<g id="node8" class="node">
<title>Node7</title>
<g id="a_node8"><a xlink:href="../../d1/dd7/class_t_i_mooney___random_field.html" target="_top" xlink:title="TIMooney_RandomField">
<polygon fill="#ffffff" stroke="#000000" points="617.3262,-188.5 617.3262,-206.5 742.8232,-206.5 742.8232,-188.5 617.3262,-188.5"/>
<text text-anchor="middle" x="680.0747" y="-194.5" font-family="Helvetica,sans-Serif" font-size="10.00" fill="#000000">TIMooney_RandomField</text>
</a>
</g>
</g>
<!-- Node3&#45;&gt;Node7 -->
<g id="edge7" class="edge">
<title>Node3&#45;&gt;Node7</title>
<path fill="none" stroke="#191970" d="M542.9576,-223.5761C571.5075,-218.1467 605.5915,-211.6648 632.6349,-206.5218"/>
<polygon fill="#191970" stroke="#191970" points="542.2805,-220.1421 533.1105,-225.4488 543.5884,-227.0188 542.2805,-220.1421"/>
</g>
<!-- Node9 -->
<g id="node10" class="node">
<title>Node9</title>
<g id="a_node10"><a xlink:href="../../da/d5f/class_dirichlet_inlet_outlet___polyconvex_h_g_o.html" target="_top" xlink:title="DirichletInletOutlet\l_PolyconvexHGO">
<polygon fill="#ffffff" stroke="#000000" points="631.2251,-141.5 631.2251,-169.5 728.9243,-169.5 728.9243,-141.5 631.2251,-141.5"/>
<text text-anchor="start" x="639.2251" y="-157.5" font-family="Helvetica,sans-Serif" font-size="10.00" fill="#000000">DirichletInletOutlet</text>
<text text-anchor="middle" x="680.0747" y="-147.5" font-family="Helvetica,sans-Serif" font-size="10.00" fill="#000000">_PolyconvexHGO</text>
</a>
</g>
</g>
<!-- Node8&#45;&gt;Node9 -->
<g id="edge9" class="edge">
<title>Node8&#45;&gt;Node9</title>
<path fill="none" stroke="#191970" d="M532.7591,-119.9126C562.4904,-127.0949 600.7899,-136.347 630.8851,-143.6171"/>
<polygon fill="#191970" stroke="#191970" points="533.5713,-116.5082 523.029,-117.5621 531.9275,-123.3125 533.5713,-116.5082"/>
</g>
<!-- Node10 -->
<g id="node11" class="node">
<title>Node10</title>
<g id="a_node11"><a xlink:href="../../d0/de4/class_dirichlet_strip_elongation___stochastic_polyconvex_h_g_o.html" target="_top" xlink:title="DirichletStripElongation\l_StochasticPolyconvexHGO">
<polygon fill="#ffffff" stroke="#000000" points="609.2695,-94.5 609.2695,-122.5 750.8799,-122.5 750.8799,-94.5 609.2695,-94.5"/>
<text text-anchor="start" x="617.2695" y="-110.5" font-family="Helvetica,sans-Serif" font-size="10.00" fill="#000000">DirichletStripElongation</text>
<text text-anchor="middle" x="680.0747" y="-100.5" font-family="Helvetica,sans-Serif" font-size="10.00" fill="#000000">_StochasticPolyconvexHGO</text>
</a>
</g>
</g>
<!-- Node8&#45;&gt;Node10 -->
<g id="edge10" class="edge">
<title>Node8&#45;&gt;Node10</title>
<path fill="none" stroke="#191970" d="M583.5438,-108.5C592.1927,-108.5 600.8337,-108.5 609.1933,-108.5"/>
<polygon fill="#191970" stroke="#191970" points="583.4035,-105.0001 573.4035,-108.5 583.4035,-112.0001 583.4035,-105.0001"/>
</g>
<!-- Node11 -->
<g id="node12" class="node">
<title>Node11</title>
<g id="a_node12"><a xlink:href="../../de/d4c/class_neumann_inner_surface___polyconvex_h_g_o.html" target="_top" xlink:title="NeumannInnerSurface\l_PolyconvexHGO">
<polygon fill="#ffffff" stroke="#000000" points="621.7671,-47.5 621.7671,-75.5 738.3823,-75.5 738.3823,-47.5 621.7671,-47.5"/>
<text text-anchor="start" x="629.7671" y="-63.5" font-family="Helvetica,sans-Serif" font-size="10.00" fill="#000000">NeumannInnerSurface</text>
<text text-anchor="middle" x="680.0747" y="-53.5" font-family="Helvetica,sans-Serif" font-size="10.00" fill="#000000">_PolyconvexHGO</text>
</a>
</g>
</g>
<!-- Node8&#45;&gt;Node11 -->
<g id="edge11" class="edge">
<title>Node8&#45;&gt;Node11</title>
<path fill="none" stroke="#191970" d="M532.9517,-97.0409C559.7952,-90.5562 593.5767,-82.3955 621.9972,-75.5299"/>
<polygon fill="#191970" stroke="#191970" points="531.9275,-93.6875 523.029,-99.4379 533.5713,-100.4918 531.9275,-93.6875"/>
</g>
<!-- Node12 -->
<g id="node13" class="node">
<title>Node12</title>
<g id="a_node13"><a xlink:href="../../dd/d43/class_neumann_inner_surface___stochastic_polyconvex_h_g_o.html" target="_top" xlink:title="NeumannInnerSurface\l_StochasticPolyconvexHGO">
<polygon fill="#ffffff" stroke="#000000" points="609.2695,-.5 609.2695,-28.5 750.8799,-28.5 750.8799,-.5 609.2695,-.5"/>
<text text-anchor="start" x="617.2695" y="-16.5" font-family="Helvetica,sans-Serif" font-size="10.00" fill="#000000">NeumannInnerSurface</text>
<text text-anchor="middle" x="680.0747" y="-6.5" font-family="Helvetica,sans-Serif" font-size="10.00" fill="#000000">_StochasticPolyconvexHGO</text>
</a>
</g>
</g>
<!-- Node8&#45;&gt;Node12 -->
<g id="edge12" class="edge">
<title>Node8&#45;&gt;Node12</title>
<path fill="none" stroke="#191970" d="M507.5704,-93.9754C531.7702,-78.4895 572.1262,-53.975 609.2695,-37.5 616.5947,-34.2509 624.5248,-31.2265 632.3372,-28.5086"/>
<polygon fill="#191970" stroke="#191970" points="505.6255,-91.065 499.127,-99.4329 509.4254,-96.9439 505.6255,-91.065"/>
</g>
</g>
</svg>
