<?xml version="1.0" encoding="UTF-8" standalone="no"?>
<!DOCTYPE svg PUBLIC "-//W3C//DTD SVG 1.1//EN"
 "http://www.w3.org/Graphics/SVG/1.1/DTD/svg11.dtd">
<!-- Generated by graphviz version 2.40.1 (20161225.0304)
 -->
<!-- Title: hyperelasticity Pages: 1 -->
<svg width="133pt" height="137pt"
 viewBox="0.00 0.00 133.50 137.00" xmlns="http://www.w3.org/2000/svg" xmlns:xlink="http://www.w3.org/1999/xlink">
<g id="graph0" class="graph" transform="scale(1 1) rotate(0) translate(4 133)">
<title>hyperelasticity</title>
<polygon fill="#ffffff" stroke="transparent" points="-4,4 -4,-133 129.4971,-133 129.4971,4 -4,4"/>
<!-- Node0 -->
<g id="node1" class="node">
<title>Node0</title>
<polygon fill="#bfbfbf" stroke="#000000" points="23.0688,-.5 23.0688,-18.5 102.4282,-18.5 102.4282,-.5 23.0688,-.5"/>
<text text-anchor="middle" x="62.7485" y="-6.5" font-family="Helvetica,sans-Serif" font-size="10.00" fill="#000000">hyperelasticity</text>
</g>
<!-- Node1 -->
<g id="node2" class="node">
<title>Node1</title>
<g id="a_node2"><a xlink:href="../../d8/dc2/class_finite___element___problem.html" target="_top" xlink:title="Finite_Element_Problem">
<polygon fill="#ffffff" stroke="#000000" points="0,-55.5 0,-73.5 125.4971,-73.5 125.4971,-55.5 0,-55.5"/>
<text text-anchor="middle" x="62.7485" y="-61.5" font-family="Helvetica,sans-Serif" font-size="10.00" fill="#000000">Finite_Element_Problem</text>
</a>
</g>
</g>
<!-- Node1&#45;&gt;Node0 -->
<g id="edge1" class="edge">
<title>Node1&#45;&gt;Node0</title>
<path fill="none" stroke="#191970" d="M62.7485,-45.383C62.7485,-36.3738 62.7485,-26.0373 62.7485,-18.7795"/>
<polygon fill="#191970" stroke="#191970" points="59.2486,-45.4178 62.7485,-55.4179 66.2486,-45.4179 59.2486,-45.4178"/>
</g>
<!-- Node2 -->
<g id="node3" class="node">
<title>Node2</title>
<g id="a_node3"><a xlink:href="../../d2/d97/class_base_class_f_e_m.html" target="_top" xlink:title="BaseClassFEM">
<polygon fill="#ffffff" stroke="#000000" points="20.2954,-110.5 20.2954,-128.5 105.2017,-128.5 105.2017,-110.5 20.2954,-110.5"/>
<text text-anchor="middle" x="62.7485" y="-116.5" font-family="Helvetica,sans-Serif" font-size="10.00" fill="#000000">BaseClassFEM</text>
</a>
</g>
</g>
<!-- Node2&#45;&gt;Node1 -->
<g id="edge2" class="edge">
<title>Node2&#45;&gt;Node1</title>
<path fill="none" stroke="#191970" d="M62.7485,-100.383C62.7485,-91.3738 62.7485,-81.0373 62.7485,-73.7795"/>
<polygon fill="#191970" stroke="#191970" points="59.2486,-100.4178 62.7485,-110.4179 66.2486,-100.4179 59.2486,-100.4178"/>
</g>
</g>
</svg>
