<?xml version="1.0" encoding="UTF-8" standalone="no"?>
<!DOCTYPE svg PUBLIC "-//W3C//DTD SVG 1.1//EN"
 "http://www.w3.org/Graphics/SVG/1.1/DTD/svg11.dtd">
<!-- Generated by graphviz version 2.40.1 (20161225.0304)
 -->
<!-- Title: src/shinozukapp_layeredcomp.hpp Pages: 1 -->
<svg width="352pt" height="147pt"
 viewBox="0.00 0.00 351.74 147.00" xmlns="http://www.w3.org/2000/svg" xmlns:xlink="http://www.w3.org/1999/xlink">
<g id="graph0" class="graph" transform="scale(1 1) rotate(0) translate(4 143)">
<title>src/shinozukapp_layeredcomp.hpp</title>
<polygon fill="#ffffff" stroke="transparent" points="-4,4 -4,-143 347.7407,-143 347.7407,4 -4,4"/>
<!-- Node39 -->
<g id="node1" class="node">
<title>Node39</title>
<polygon fill="#bfbfbf" stroke="#000000" points="82.4854,-120.5 82.4854,-138.5 253.0215,-138.5 253.0215,-120.5 82.4854,-120.5"/>
<text text-anchor="middle" x="167.7534" y="-126.5" font-family="Helvetica,sans-Serif" font-size="10.00" fill="#000000">src/shinozukapp_layeredcomp.hpp</text>
</g>
<!-- Node40 -->
<g id="node2" class="node">
<title>Node40</title>
<g id="a_node2"><a xlink:href="../../dd/d0f/orthotropic_r_f__laminate_8hpp.html" target="_top" xlink:title="src/orthotropicRF_laminate.hpp">
<polygon fill="#ffffff" stroke="#000000" points="0,-65.5 0,-83.5 155.5068,-83.5 155.5068,-65.5 0,-65.5"/>
<text text-anchor="middle" x="77.7534" y="-71.5" font-family="Helvetica,sans-Serif" font-size="10.00" fill="#000000">src/orthotropicRF_laminate.hpp</text>
</a>
</g>
</g>
<!-- Node39&#45;&gt;Node40 -->
<g id="edge1" class="edge">
<title>Node39&#45;&gt;Node40</title>
<path fill="none" stroke="#191970" d="M143.9493,-114.953C127.6663,-105.0023 106.5844,-92.1189 92.6372,-83.5956"/>
<polygon fill="#191970" stroke="#191970" points="142.5338,-118.1898 152.8917,-120.4179 146.184,-112.2168 142.5338,-118.1898"/>
</g>
<!-- Node42 -->
<g id="node4" class="node">
<title>Node42</title>
<g id="a_node4"><a xlink:href="../../db/d53/shinozukapp__layeredcomp_8cpp.html" target="_top" xlink:title="src/shinozukapp_layeredcomp.cpp">
<polygon fill="#ffffff" stroke="#000000" points="173.7661,-65.5 173.7661,-83.5 343.7407,-83.5 343.7407,-65.5 173.7661,-65.5"/>
<text text-anchor="middle" x="258.7534" y="-71.5" font-family="Helvetica,sans-Serif" font-size="10.00" fill="#000000">src/shinozukapp_layeredcomp.cpp</text>
</a>
</g>
</g>
<!-- Node39&#45;&gt;Node42 -->
<g id="edge3" class="edge">
<title>Node39&#45;&gt;Node42</title>
<path fill="none" stroke="#191970" d="M191.3617,-115.2313C207.8869,-105.2435 229.4703,-92.1986 243.7043,-83.5956"/>
<polygon fill="#191970" stroke="#191970" points="189.5281,-112.2498 182.7802,-120.4179 193.1489,-118.2406 189.5281,-112.2498"/>
</g>
<!-- Node41 -->
<g id="node3" class="node">
<title>Node41</title>
<g id="a_node3"><a xlink:href="../../d2/ded/asme_2linearelaslam_2main_8cpp.html" target="_top" xlink:title="asme/linearelaslam\l/main.cpp">
<polygon fill="#ffffff" stroke="#000000" points="26.6797,-.5 26.6797,-28.5 128.8271,-28.5 128.8271,-.5 26.6797,-.5"/>
<text text-anchor="start" x="34.6797" y="-16.5" font-family="Helvetica,sans-Serif" font-size="10.00" fill="#000000">asme/linearelaslam</text>
<text text-anchor="middle" x="77.7534" y="-6.5" font-family="Helvetica,sans-Serif" font-size="10.00" fill="#000000">/main.cpp</text>
</a>
</g>
</g>
<!-- Node40&#45;&gt;Node41 -->
<g id="edge2" class="edge">
<title>Node40&#45;&gt;Node41</title>
<path fill="none" stroke="#191970" d="M77.7534,-55.1865C77.7534,-46.6283 77.7534,-36.7354 77.7534,-28.8477"/>
<polygon fill="#191970" stroke="#191970" points="74.2535,-55.3873 77.7534,-65.3873 81.2535,-55.3873 74.2535,-55.3873"/>
</g>
</g>
</svg>
