<?xml version="1.0" encoding="UTF-8" standalone="no"?>
<!DOCTYPE svg PUBLIC "-//W3C//DTD SVG 1.1//EN"
 "http://www.w3.org/Graphics/SVG/1.1/DTD/svg11.dtd">
<!-- Generated by graphviz version 2.40.1 (20161225.0304)
 -->
<!-- Title: nrl/deterministic_random_search/main.cpp Pages: 1 -->
<svg width="2479pt" height="462pt"
 viewBox="0.00 0.00 2478.52 462.00" xmlns="http://www.w3.org/2000/svg" xmlns:xlink="http://www.w3.org/1999/xlink">
<g id="graph0" class="graph" transform="scale(1 1) rotate(0) translate(4 458)">
<title>nrl/deterministic_random_search/main.cpp</title>
<polygon fill="#ffffff" stroke="transparent" points="-4,4 -4,-458 2474.5174,-458 2474.5174,4 -4,4"/>
<!-- Node0 -->
<g id="node1" class="node">
<title>Node0</title>
<polygon fill="#bfbfbf" stroke="#000000" points="1216.0423,-425.5 1216.0423,-453.5 1341.5296,-453.5 1341.5296,-425.5 1216.0423,-425.5"/>
<text text-anchor="start" x="1224.0423" y="-441.5" font-family="Helvetica,sans-Serif" font-size="10.00" fill="#000000">nrl/deterministic_random</text>
<text text-anchor="middle" x="1278.786" y="-431.5" font-family="Helvetica,sans-Serif" font-size="10.00" fill="#000000">_search/main.cpp</text>
</g>
<!-- Node1 -->
<g id="node2" class="node">
<title>Node1</title>
<polygon fill="#ffffff" stroke="#bfbfbf" points="856.37,-365.5 856.37,-383.5 965.202,-383.5 965.202,-365.5 856.37,-365.5"/>
<text text-anchor="middle" x="910.786" y="-371.5" font-family="Helvetica,sans-Serif" font-size="10.00" fill="#000000">Epetra_ConfigDefs.h</text>
</g>
<!-- Node0&#45;&gt;Node1 -->
<g id="edge1" class="edge">
<title>Node0&#45;&gt;Node1</title>
<path fill="none" stroke="#191970" d="M1216.0054,-430.163C1154.3999,-420.7437 1057.8679,-405.298 974.786,-389 969.6765,-387.9977 964.3516,-386.8911 959.051,-385.7494"/>
<polygon fill="#191970" stroke="#191970" points="959.4691,-382.2578 948.9507,-383.5289 957.9659,-389.0946 959.4691,-382.2578"/>
</g>
<!-- Node2 -->
<g id="node3" class="node">
<title>Node2</title>
<polygon fill="#ffffff" stroke="#bfbfbf" points="983.599,-365.5 983.599,-383.5 1097.973,-383.5 1097.973,-365.5 983.599,-365.5"/>
<text text-anchor="middle" x="1040.786" y="-371.5" font-family="Helvetica,sans-Serif" font-size="10.00" fill="#000000">Epetra_SerialComm.h</text>
</g>
<!-- Node0&#45;&gt;Node2 -->
<g id="edge2" class="edge">
<title>Node0&#45;&gt;Node2</title>
<path fill="none" stroke="#191970" d="M1227.4365,-425.476C1184.4789,-413.7439 1123.9092,-397.2017 1083.5483,-386.1788"/>
<polygon fill="#191970" stroke="#191970" points="1084.3144,-382.7599 1073.7455,-383.5016 1082.4701,-389.5126 1084.3144,-382.7599"/>
</g>
<!-- Node3 -->
<g id="node4" class="node">
<title>Node3</title>
<g id="a_node4"><a xlink:href="../../d7/d17/_newton___raphsonpp_8hpp.html" target="_top" xlink:title="Newton_Raphsonpp.hpp">
<polygon fill="#ffffff" stroke="#000000" points="602.7445,-300.5 602.7445,-318.5 728.8275,-318.5 728.8275,-300.5 602.7445,-300.5"/>
<text text-anchor="middle" x="665.786" y="-306.5" font-family="Helvetica,sans-Serif" font-size="10.00" fill="#000000">Newton_Raphsonpp.hpp</text>
</a>
</g>
</g>
<!-- Node0&#45;&gt;Node3 -->
<g id="edge3" class="edge">
<title>Node0&#45;&gt;Node3</title>
<path fill="none" stroke="#191970" d="M1231.4111,-425.4068C1205.073,-416.6573 1172.1836,-404.1864 1144.786,-389 1126.2044,-378.7003 1126.5582,-367.7729 1106.786,-360 953.4317,-299.7134 900.7635,-348.297 737.786,-324 731.0073,-322.9894 723.9011,-321.764 716.9037,-320.4585"/>
<polygon fill="#191970" stroke="#191970" points="717.2627,-316.9632 706.7805,-318.5042 715.9357,-323.8363 717.2627,-316.9632"/>
</g>
<!-- Node50 -->
<g id="node36" class="node">
<title>Node50</title>
<g id="a_node36"><a xlink:href="../../df/d27/nrl_2deterministic__random__search_2objective_function_8hpp.html" target="_top" xlink:title="objectiveFunction.hpp">
<polygon fill="#ffffff" stroke="#000000" points="1154.1434,-365.5 1154.1434,-383.5 1267.4286,-383.5 1267.4286,-365.5 1154.1434,-365.5"/>
<text text-anchor="middle" x="1210.786" y="-371.5" font-family="Helvetica,sans-Serif" font-size="10.00" fill="#000000">objectiveFunction.hpp</text>
</a>
</g>
</g>
<!-- Node0&#45;&gt;Node50 -->
<g id="edge38" class="edge">
<title>Node0&#45;&gt;Node50</title>
<path fill="none" stroke="#191970" d="M1264.031,-425.396C1253.3441,-415.1805 1238.8748,-401.3496 1227.717,-390.6841"/>
<polygon fill="#191970" stroke="#191970" points="1229.9263,-387.9541 1220.2791,-383.5743 1225.0894,-393.0142 1229.9263,-387.9541"/>
</g>
<!-- Node61 -->
<g id="node47" class="node">
<title>Node61</title>
<polygon fill="#ffffff" stroke="#bfbfbf" points="1285.5892,-360.5 1285.5892,-388.5 1409.9828,-388.5 1409.9828,-360.5 1285.5892,-360.5"/>
<text text-anchor="start" x="1293.5892" y="-376.5" font-family="Helvetica,sans-Serif" font-size="10.00" fill="#000000">boost/random/mersenne</text>
<text text-anchor="middle" x="1347.786" y="-366.5" font-family="Helvetica,sans-Serif" font-size="10.00" fill="#000000">_twister.hpp</text>
</g>
<!-- Node0&#45;&gt;Node61 -->
<g id="edge52" class="edge">
<title>Node0&#45;&gt;Node61</title>
<path fill="none" stroke="#191970" d="M1293.758,-425.396C1302.9807,-416.7079 1314.9795,-405.4046 1325.3263,-395.6576"/>
<polygon fill="#191970" stroke="#191970" points="1327.9642,-397.9811 1332.8432,-388.5765 1323.1644,-392.8858 1327.9642,-397.9811"/>
</g>
<!-- Node62 -->
<g id="node48" class="node">
<title>Node62</title>
<polygon fill="#ffffff" stroke="#bfbfbf" points="1427.5399,-360.5 1427.5399,-388.5 1538.0321,-388.5 1538.0321,-360.5 1427.5399,-360.5"/>
<text text-anchor="start" x="1435.5399" y="-376.5" font-family="Helvetica,sans-Serif" font-size="10.00" fill="#000000">boost/random/normal</text>
<text text-anchor="middle" x="1482.786" y="-366.5" font-family="Helvetica,sans-Serif" font-size="10.00" fill="#000000">_distribution.hpp</text>
</g>
<!-- Node0&#45;&gt;Node62 -->
<g id="edge53" class="edge">
<title>Node0&#45;&gt;Node62</title>
<path fill="none" stroke="#191970" d="M1322.7998,-425.476C1353.9288,-415.5574 1395.8476,-402.201 1428.9675,-391.6481"/>
<polygon fill="#191970" stroke="#191970" points="1430.034,-394.9817 1438.4994,-388.6109 1427.9088,-388.3121 1430.034,-394.9817"/>
</g>
<!-- Node63 -->
<g id="node49" class="node">
<title>Node63</title>
<polygon fill="#ffffff" stroke="#bfbfbf" points="1556.1507,-360.5 1556.1507,-388.5 1669.4212,-388.5 1669.4212,-360.5 1556.1507,-360.5"/>
<text text-anchor="start" x="1564.1507" y="-376.5" font-family="Helvetica,sans-Serif" font-size="10.00" fill="#000000">boost/random/uniform</text>
<text text-anchor="middle" x="1612.786" y="-366.5" font-family="Helvetica,sans-Serif" font-size="10.00" fill="#000000">_real_distribution.hpp</text>
</g>
<!-- Node0&#45;&gt;Node63 -->
<g id="edge54" class="edge">
<title>Node0&#45;&gt;Node63</title>
<path fill="none" stroke="#191970" d="M1341.7042,-428.1951C1393.7449,-418.7187 1469.8529,-404.5713 1545.7131,-389.1848"/>
<polygon fill="#191970" stroke="#191970" points="1546.8266,-392.53 1555.9273,-387.1052 1545.43,-385.6707 1546.8266,-392.53"/>
</g>
<!-- Node64 -->
<g id="node50" class="node">
<title>Node64</title>
<polygon fill="#ffffff" stroke="#bfbfbf" points="1687.2001,-360.5 1687.2001,-388.5 1804.3719,-388.5 1804.3719,-360.5 1687.2001,-360.5"/>
<text text-anchor="start" x="1695.2001" y="-376.5" font-family="Helvetica,sans-Serif" font-size="10.00" fill="#000000">boost/math/special</text>
<text text-anchor="middle" x="1745.786" y="-366.5" font-family="Helvetica,sans-Serif" font-size="10.00" fill="#000000">_functions/gamma.hpp</text>
</g>
<!-- Node0&#45;&gt;Node64 -->
<g id="edge55" class="edge">
<title>Node0&#45;&gt;Node64</title>
<path fill="none" stroke="#191970" d="M1341.7373,-433.2752C1418.6653,-425.2837 1552.9719,-410.0908 1676.9667,-389.2305"/>
<polygon fill="#191970" stroke="#191970" points="1677.7439,-392.6487 1687.0165,-387.5233 1676.5715,-385.7476 1677.7439,-392.6487"/>
</g>
<!-- Node4 -->
<g id="node5" class="node">
<title>Node4</title>
<g id="a_node5"><a xlink:href="../../de/d9d/hyperelasticity__setup__pp_8hpp.html" target="_top" xlink:title="hyperelasticity_setup\l_pp.hpp">
<polygon fill="#ffffff" stroke="#000000" points="1561.0941,-230.5 1561.0941,-258.5 1670.4779,-258.5 1670.4779,-230.5 1561.0941,-230.5"/>
<text text-anchor="start" x="1569.0941" y="-246.5" font-family="Helvetica,sans-Serif" font-size="10.00" fill="#000000">hyperelasticity_setup</text>
<text text-anchor="middle" x="1615.786" y="-236.5" font-family="Helvetica,sans-Serif" font-size="10.00" fill="#000000">_pp.hpp</text>
</a>
</g>
</g>
<!-- Node3&#45;&gt;Node4 -->
<g id="edge4" class="edge">
<title>Node3&#45;&gt;Node4</title>
<path fill="none" stroke="#191970" d="M705.2205,-300.4278C715.7488,-298.3163 727.1551,-296.3061 737.786,-295 1084.8757,-252.3556 1175.8702,-294.2757 1523.786,-259 1532.5521,-258.1112 1541.7548,-256.9438 1550.8109,-255.6566"/>
<polygon fill="#191970" stroke="#191970" points="1551.5607,-259.084 1560.9424,-254.161 1550.5384,-252.159 1551.5607,-259.084"/>
</g>
<!-- Node5 -->
<g id="node6" class="node">
<title>Node5</title>
<g id="a_node6"><a xlink:href="../../d2/d8b/_finite___element___problem_8hpp.html" target="_top" xlink:title="Finite_Element_Problem.hpp">
<polygon fill="#ffffff" stroke="#000000" points="1425.306,-175.5 1425.306,-193.5 1570.266,-193.5 1570.266,-175.5 1425.306,-175.5"/>
<text text-anchor="middle" x="1497.786" y="-181.5" font-family="Helvetica,sans-Serif" font-size="10.00" fill="#000000">Finite_Element_Problem.hpp</text>
</a>
</g>
</g>
<!-- Node3&#45;&gt;Node5 -->
<g id="edge26" class="edge">
<title>Node3&#45;&gt;Node5</title>
<path fill="none" stroke="#191970" d="M705.2223,-300.4422C715.7506,-298.3306 727.1564,-296.3168 737.786,-295 820.9128,-284.7023 1430.2132,-316.8537 1490.786,-259 1505.3511,-245.0887 1504.8417,-220.7025 1502.1746,-203.6313"/>
<polygon fill="#191970" stroke="#191970" points="1505.5803,-202.8077 1500.2471,-193.6531 1498.7074,-204.1355 1505.5803,-202.8077"/>
</g>
<!-- Node32 -->
<g id="node23" class="node">
<title>Node32</title>
<polygon fill="#ffffff" stroke="#bfbfbf" points="359.7386,-.5 359.7386,-18.5 457.8334,-18.5 457.8334,-.5 359.7386,-.5"/>
<text text-anchor="middle" x="408.786" y="-6.5" font-family="Helvetica,sans-Serif" font-size="10.00" fill="#000000">Teuchos_RCP.hpp</text>
</g>
<!-- Node3&#45;&gt;Node32 -->
<g id="edge27" class="edge">
<title>Node3&#45;&gt;Node32</title>
<path fill="none" stroke="#191970" d="M602.4675,-308.6662C448.6425,-306.0655 64.6405,-295.909 20.786,-259 -5.358,-236.9966 1.786,-218.671 1.786,-184.5 1.786,-184.5 1.786,-184.5 1.786,-124.5 1.786,-53.1186 236.5556,-23.8292 349.4831,-13.8695"/>
<polygon fill="#191970" stroke="#191970" points="350.0285,-17.3356 359.6923,-12.9925 349.4294,-10.3613 350.0285,-17.3356"/>
</g>
<!-- Node40 -->
<g id="node26" class="node">
<title>Node40</title>
<polygon fill="#ffffff" stroke="#bfbfbf" points="30.2762,-235.5 30.2762,-253.5 81.2958,-253.5 81.2958,-235.5 30.2762,-235.5"/>
<text text-anchor="middle" x="55.786" y="-241.5" font-family="Helvetica,sans-Serif" font-size="10.00" fill="#000000">Ifpack.h</text>
</g>
<!-- Node3&#45;&gt;Node40 -->
<g id="edge28" class="edge">
<title>Node3&#45;&gt;Node40</title>
<path fill="none" stroke="#191970" d="M602.5382,-306.3796C474.0156,-299.6404 186.4167,-282.4208 90.786,-259 88.6059,-258.4661 86.3852,-257.8169 84.1733,-257.0926"/>
<polygon fill="#191970" stroke="#191970" points="85.2796,-253.7698 74.6868,-253.5612 82.8375,-260.33 85.2796,-253.7698"/>
</g>
<!-- Node41 -->
<g id="node27" class="node">
<title>Node41</title>
<polygon fill="#ffffff" stroke="#bfbfbf" points="99.535,-235.5 99.535,-253.5 230.037,-253.5 230.037,-235.5 99.535,-235.5"/>
<text text-anchor="middle" x="164.786" y="-241.5" font-family="Helvetica,sans-Serif" font-size="10.00" fill="#000000">Ifpack_AdditiveSchwarz.h</text>
</g>
<!-- Node3&#45;&gt;Node41 -->
<g id="edge29" class="edge">
<title>Node3&#45;&gt;Node41</title>
<path fill="none" stroke="#191970" d="M602.6375,-303.5423C519.1227,-295.3181 367.4739,-279.188 238.786,-259 232.095,-257.9503 225.0862,-256.7328 218.1614,-255.458"/>
<polygon fill="#191970" stroke="#191970" points="218.5983,-251.9787 208.1225,-253.5623 217.2993,-258.8572 218.5983,-251.9787"/>
</g>
<!-- Node42 -->
<g id="node28" class="node">
<title>Node42</title>
<polygon fill="#ffffff" stroke="#bfbfbf" points="248.0301,-235.5 248.0301,-253.5 373.5418,-253.5 373.5418,-235.5 248.0301,-235.5"/>
<text text-anchor="middle" x="310.786" y="-241.5" font-family="Helvetica,sans-Serif" font-size="10.00" fill="#000000">BelosLinearProblem.hpp</text>
</g>
<!-- Node3&#45;&gt;Node42 -->
<g id="edge30" class="edge">
<title>Node3&#45;&gt;Node42</title>
<path fill="none" stroke="#191970" d="M613.3029,-300.4927C556.4405,-290.6502 463.0757,-274.2464 382.786,-259 377.0079,-257.9028 370.9745,-256.7302 364.9655,-255.5451"/>
<polygon fill="#191970" stroke="#191970" points="365.4156,-252.0662 354.9252,-253.5498 364.0512,-258.9319 365.4156,-252.0662"/>
</g>
<!-- Node43 -->
<g id="node29" class="node">
<title>Node43</title>
<polygon fill="#ffffff" stroke="#bfbfbf" points="391.7567,-235.5 391.7567,-253.5 537.8153,-253.5 537.8153,-235.5 391.7567,-235.5"/>
<text text-anchor="middle" x="464.786" y="-241.5" font-family="Helvetica,sans-Serif" font-size="10.00" fill="#000000">BelosBlockGmresSolMgr.hpp</text>
</g>
<!-- Node3&#45;&gt;Node43 -->
<g id="edge31" class="edge">
<title>Node3&#45;&gt;Node43</title>
<path fill="none" stroke="#191970" d="M637.8378,-300.462C602.6105,-289.0701 541.9181,-269.4432 502.5775,-256.7211"/>
<polygon fill="#191970" stroke="#191970" points="503.4119,-253.3126 492.8201,-253.5658 501.258,-259.973 503.4119,-253.3126"/>
</g>
<!-- Node44 -->
<g id="node30" class="node">
<title>Node44</title>
<polygon fill="#ffffff" stroke="#bfbfbf" points="555.577,-235.5 555.577,-253.5 679.995,-253.5 679.995,-235.5 555.577,-235.5"/>
<text text-anchor="middle" x="617.786" y="-241.5" font-family="Helvetica,sans-Serif" font-size="10.00" fill="#000000">BelosEpetraAdapter.hpp</text>
</g>
<!-- Node3&#45;&gt;Node44 -->
<g id="edge32" class="edge">
<title>Node3&#45;&gt;Node44</title>
<path fill="none" stroke="#191970" d="M659.1118,-300.462C651.8153,-290.5813 639.944,-274.5056 630.7928,-262.1134"/>
<polygon fill="#191970" stroke="#191970" points="633.4703,-259.8473 624.7143,-253.8821 627.8393,-264.0057 633.4703,-259.8473"/>
</g>
<!-- Node45 -->
<g id="node31" class="node">
<title>Node45</title>
<polygon fill="#ffffff" stroke="#bfbfbf" points="698.0736,-235.5 698.0736,-253.5 819.4984,-253.5 819.4984,-235.5 698.0736,-235.5"/>
<text text-anchor="middle" x="758.786" y="-241.5" font-family="Helvetica,sans-Serif" font-size="10.00" fill="#000000">BelosSolverFactory.hpp</text>
</g>
<!-- Node3&#45;&gt;Node45 -->
<g id="edge33" class="edge">
<title>Node3&#45;&gt;Node45</title>
<path fill="none" stroke="#191970" d="M678.7172,-300.462C693.9008,-289.8499 719.3089,-272.0915 737.4307,-259.4258"/>
<polygon fill="#191970" stroke="#191970" points="739.4733,-262.2683 745.6648,-253.6708 735.4632,-256.5307 739.4733,-262.2683"/>
</g>
<!-- Node46 -->
<g id="node32" class="node">
<title>Node46</title>
<polygon fill="#ffffff" stroke="#bfbfbf" points="837.9046,-235.5 837.9046,-253.5 1015.6673,-253.5 1015.6673,-235.5 837.9046,-235.5"/>
<text text-anchor="middle" x="926.786" y="-241.5" font-family="Helvetica,sans-Serif" font-size="10.00" fill="#000000">Teuchos_StandardCatchMacros.hpp</text>
</g>
<!-- Node3&#45;&gt;Node46 -->
<g id="edge34" class="edge">
<title>Node3&#45;&gt;Node46</title>
<path fill="none" stroke="#191970" d="M702.0769,-300.462C748.6939,-288.8524 829.6532,-268.6902 880.611,-255.9995"/>
<polygon fill="#191970" stroke="#191970" points="881.5257,-259.3787 890.3835,-253.5658 879.8341,-252.5862 881.5257,-259.3787"/>
</g>
<!-- Node47 -->
<g id="node33" class="node">
<title>Node47</title>
<polygon fill="#ffffff" stroke="#bfbfbf" points="1033.5277,-235.5 1033.5277,-253.5 1174.0443,-253.5 1174.0443,-235.5 1033.5277,-235.5"/>
<text text-anchor="middle" x="1103.786" y="-241.5" font-family="Helvetica,sans-Serif" font-size="10.00" fill="#000000">Teuchos_ParameterList.hpp</text>
</g>
<!-- Node3&#45;&gt;Node47 -->
<g id="edge35" class="edge">
<title>Node3&#45;&gt;Node47</title>
<path fill="none" stroke="#191970" d="M707.9504,-300.4655C717.7212,-298.5231 728.0959,-296.5813 737.786,-295 864.6629,-274.2958 897.7356,-278.6118 1024.786,-259 1031.9867,-257.8885 1039.5389,-256.6267 1046.9993,-255.3222"/>
<polygon fill="#191970" stroke="#191970" points="1047.843,-258.7271 1057.074,-253.527 1046.615,-251.8356 1047.843,-258.7271"/>
</g>
<!-- Node48 -->
<g id="node34" class="node">
<title>Node48</title>
<polygon fill="#ffffff" stroke="#bfbfbf" points="1191.9784,-230.5 1191.9784,-258.5 1333.5936,-258.5 1333.5936,-230.5 1191.9784,-230.5"/>
<text text-anchor="start" x="1199.9784" y="-246.5" font-family="Helvetica,sans-Serif" font-size="10.00" fill="#000000">Teuchos_XMLParameterList</text>
<text text-anchor="middle" x="1262.786" y="-236.5" font-family="Helvetica,sans-Serif" font-size="10.00" fill="#000000">CoreHelpers.hpp</text>
</g>
<!-- Node3&#45;&gt;Node48 -->
<g id="edge36" class="edge">
<title>Node3&#45;&gt;Node48</title>
<path fill="none" stroke="#191970" d="M706.3849,-300.4529C716.5948,-298.4183 727.5584,-296.4384 737.786,-295 931.014,-267.8238 984.2782,-284.1611 1181.6237,-259.0589"/>
<polygon fill="#191970" stroke="#191970" points="1182.2737,-262.5041 1191.7429,-257.7518 1181.3769,-255.5618 1182.2737,-262.5041"/>
</g>
<!-- Node49 -->
<g id="node35" class="node">
<title>Node49</title>
<polygon fill="#ffffff" stroke="#bfbfbf" points="1351.5375,-230.5 1351.5375,-258.5 1482.0345,-258.5 1482.0345,-230.5 1351.5375,-230.5"/>
<text text-anchor="start" x="1359.5375" y="-246.5" font-family="Helvetica,sans-Serif" font-size="10.00" fill="#000000">Stratimikos_DefaultLinear</text>
<text text-anchor="middle" x="1416.786" y="-236.5" font-family="Helvetica,sans-Serif" font-size="10.00" fill="#000000">SolverBuilder.hpp</text>
</g>
<!-- Node3&#45;&gt;Node49 -->
<g id="edge37" class="edge">
<title>Node3&#45;&gt;Node49</title>
<path fill="none" stroke="#191970" d="M705.6093,-300.4507C716.0325,-298.3655 727.2907,-296.3623 737.786,-295 1001.6487,-260.7495 1073.8182,-292.1872 1341.4796,-259.0451"/>
<polygon fill="#191970" stroke="#191970" points="1342.0076,-262.5064 1351.4931,-257.7866 1341.1347,-255.561 1342.0076,-262.5064"/>
</g>
<!-- Node4&#45;&gt;Node5 -->
<g id="edge5" class="edge">
<title>Node4&#45;&gt;Node5</title>
<path fill="none" stroke="#191970" d="M1588.1202,-230.4327C1569.0063,-220.7137 1543.7114,-207.8519 1524.751,-198.211"/>
<polygon fill="#191970" stroke="#191970" points="1526.244,-195.0437 1515.7437,-193.6311 1523.0712,-201.2834 1526.244,-195.0437"/>
</g>
<!-- Node38 -->
<g id="node24" class="node">
<title>Node38</title>
<g id="a_node24"><a xlink:href="../../d5/d3f/laplacepp_8hpp.html" target="_top" xlink:title="laplacepp.hpp">
<polygon fill="#ffffff" stroke="#000000" points="1588.6483,-175.5 1588.6483,-193.5 1666.9237,-193.5 1666.9237,-175.5 1588.6483,-175.5"/>
<text text-anchor="middle" x="1627.786" y="-181.5" font-family="Helvetica,sans-Serif" font-size="10.00" fill="#000000">laplacepp.hpp</text>
</a>
</g>
</g>
<!-- Node4&#45;&gt;Node38 -->
<g id="edge23" class="edge">
<title>Node4&#45;&gt;Node38</title>
<path fill="none" stroke="#191970" d="M1618.6298,-230.2808C1620.2282,-222.2888 1622.2444,-212.2079 1623.9777,-203.5414"/>
<polygon fill="#191970" stroke="#191970" points="1627.4399,-204.0764 1625.9692,-193.5842 1620.5759,-202.7036 1627.4399,-204.0764"/>
</g>
<!-- Node6 -->
<g id="node7" class="node">
<title>Node6</title>
<g id="a_node7"><a xlink:href="../../d0/d02/meshpp_8hpp.html" target="_top" xlink:title="meshpp.hpp">
<polygon fill="#ffffff" stroke="#ff0000" points="1505.2665,-55.5 1505.2665,-73.5 1576.3055,-73.5 1576.3055,-55.5 1505.2665,-55.5"/>
<text text-anchor="middle" x="1540.786" y="-61.5" font-family="Helvetica,sans-Serif" font-size="10.00" fill="#000000">meshpp.hpp</text>
</a>
</g>
</g>
<!-- Node5&#45;&gt;Node6 -->
<g id="edge6" class="edge">
<title>Node5&#45;&gt;Node6</title>
<path fill="none" stroke="#191970" d="M1499.4427,-175.1068C1502.1362,-160.7613 1508.0567,-132.6709 1516.786,-110 1520.4303,-100.5353 1525.5642,-90.514 1530.1489,-82.2926"/>
<polygon fill="#191970" stroke="#191970" points="1533.1928,-84.0204 1535.1566,-73.6091 1527.1289,-80.5233 1533.1928,-84.0204"/>
</g>
<!-- Node7 -->
<g id="node8" class="node">
<title>Node7</title>
<polygon fill="#ffffff" stroke="#bfbfbf" points="2425.0545,-.5 2425.0545,-18.5 2470.5174,-18.5 2470.5174,-.5 2425.0545,-.5"/>
<text text-anchor="middle" x="2447.786" y="-6.5" font-family="Helvetica,sans-Serif" font-size="10.00" fill="#000000">stdio.h</text>
</g>
<!-- Node6&#45;&gt;Node7 -->
<g id="edge7" class="edge">
<title>Node6&#45;&gt;Node7</title>
<path fill="none" stroke="#191970" d="M1576.5754,-63.7678C1716.9405,-60.7248 2230.7557,-47.9369 2414.789,-18.6872"/>
<polygon fill="#191970" stroke="#191970" points="2415.5782,-22.1041 2424.8684,-17.0106 2414.4296,-15.199 2415.5782,-22.1041"/>
</g>
<!-- Node8 -->
<g id="node9" class="node">
<title>Node8</title>
<polygon fill="#ffffff" stroke="#bfbfbf" points="890.6136,-.5 890.6136,-18.5 944.9584,-18.5 944.9584,-.5 890.6136,-.5"/>
<text text-anchor="middle" x="917.786" y="-6.5" font-family="Helvetica,sans-Serif" font-size="10.00" fill="#000000">iostream</text>
</g>
<!-- Node6&#45;&gt;Node8 -->
<g id="edge8" class="edge">
<title>Node6&#45;&gt;Node8</title>
<path fill="none" stroke="#191970" d="M1505.1878,-63.886C1414.8308,-61.8712 1169.2393,-53.5451 955.3142,-18.7676"/>
<polygon fill="#191970" stroke="#191970" points="955.5882,-15.2656 945.1519,-17.0914 954.449,-22.1723 955.5882,-15.2656"/>
</g>
<!-- Node9 -->
<g id="node10" class="node">
<title>Node9</title>
<polygon fill="#ffffff" stroke="#bfbfbf" points="963.3944,-.5 963.3944,-18.5 1012.1776,-18.5 1012.1776,-.5 963.3944,-.5"/>
<text text-anchor="middle" x="987.786" y="-6.5" font-family="Helvetica,sans-Serif" font-size="10.00" fill="#000000">istream</text>
</g>
<!-- Node6&#45;&gt;Node9 -->
<g id="edge9" class="edge">
<title>Node6&#45;&gt;Node9</title>
<path fill="none" stroke="#191970" d="M1505.1591,-63.7463C1421.9637,-61.4835 1208.4435,-52.7688 1022.4839,-19.0143"/>
<polygon fill="#191970" stroke="#191970" points="1022.9984,-15.5502 1012.5294,-17.1782 1021.7287,-22.4341 1022.9984,-15.5502"/>
</g>
<!-- Node10 -->
<g id="node11" class="node">
<title>Node10</title>
<polygon fill="#ffffff" stroke="#bfbfbf" points="1030.1161,-.5 1030.1161,-18.5 1079.4559,-18.5 1079.4559,-.5 1030.1161,-.5"/>
<text text-anchor="middle" x="1054.786" y="-6.5" font-family="Helvetica,sans-Serif" font-size="10.00" fill="#000000">fstream</text>
</g>
<!-- Node6&#45;&gt;Node10 -->
<g id="edge10" class="edge">
<title>Node6&#45;&gt;Node10</title>
<path fill="none" stroke="#191970" d="M1505.2296,-63.108C1429.9847,-59.6968 1249.0872,-49.0375 1089.5289,-19.0523"/>
<polygon fill="#191970" stroke="#191970" points="1090.0151,-15.582 1079.536,-17.1434 1088.7016,-22.4576 1090.0151,-15.582"/>
</g>
<!-- Node11 -->
<g id="node12" class="node">
<title>Node11</title>
<polygon fill="#ffffff" stroke="#bfbfbf" points="1097.1703,-.5 1097.1703,-18.5 1140.4017,-18.5 1140.4017,-.5 1097.1703,-.5"/>
<text text-anchor="middle" x="1118.786" y="-6.5" font-family="Helvetica,sans-Serif" font-size="10.00" fill="#000000">vector</text>
</g>
<!-- Node6&#45;&gt;Node11 -->
<g id="edge11" class="edge">
<title>Node6&#45;&gt;Node11</title>
<path fill="none" stroke="#191970" d="M1505.0102,-62.6398C1437.3263,-58.6298 1285.8791,-47.3154 1150.7257,-19.0931"/>
<polygon fill="#191970" stroke="#191970" points="1151.1206,-15.5989 1140.6113,-16.9424 1149.6646,-22.4458 1151.1206,-15.5989"/>
</g>
<!-- Node12 -->
<g id="node13" class="node">
<title>Node12</title>
<polygon fill="#ffffff" stroke="#bfbfbf" points="1158.2762,-.5 1158.2762,-18.5 1209.2958,-18.5 1209.2958,-.5 1158.2762,-.5"/>
<text text-anchor="middle" x="1183.786" y="-6.5" font-family="Helvetica,sans-Serif" font-size="10.00" fill="#000000">iomanip</text>
</g>
<!-- Node6&#45;&gt;Node12 -->
<g id="edge12" class="edge">
<title>Node6&#45;&gt;Node12</title>
<path fill="none" stroke="#191970" d="M1504.7986,-60.8967C1446.7715,-54.7659 1328.8222,-40.9805 1219.2117,-18.8498"/>
<polygon fill="#191970" stroke="#191970" points="1219.8107,-15.3999 1209.3119,-16.8232 1218.4067,-22.2577 1219.8107,-15.3999"/>
</g>
<!-- Node13 -->
<g id="node14" class="node">
<title>Node13</title>
<polygon fill="#ffffff" stroke="#bfbfbf" points="1227.3255,-.5 1227.3255,-18.5 1332.2464,-18.5 1332.2464,-.5 1227.3255,-.5"/>
<text text-anchor="middle" x="1279.786" y="-6.5" font-family="Helvetica,sans-Serif" font-size="10.00" fill="#000000">Epetra_MpiComm.h</text>
</g>
<!-- Node6&#45;&gt;Node13 -->
<g id="edge13" class="edge">
<title>Node6&#45;&gt;Node13</title>
<path fill="none" stroke="#191970" d="M1505.0423,-56.9678C1460.541,-47.5901 1384.1444,-31.4912 1332.8136,-20.6744"/>
<polygon fill="#191970" stroke="#191970" points="1333.4054,-17.2223 1322.8985,-18.585 1331.9619,-24.0719 1333.4054,-17.2223"/>
</g>
<!-- Node14 -->
<g id="node15" class="node">
<title>Node14</title>
<polygon fill="#ffffff" stroke="#bfbfbf" points="1350.0423,-.5 1350.0423,-18.5 1465.5296,-18.5 1465.5296,-.5 1350.0423,-.5"/>
<text text-anchor="middle" x="1407.786" y="-6.5" font-family="Helvetica,sans-Serif" font-size="10.00" fill="#000000">Epetra_FECrsGraph.h</text>
</g>
<!-- Node6&#45;&gt;Node14 -->
<g id="edge14" class="edge">
<title>Node6&#45;&gt;Node14</title>
<path fill="none" stroke="#191970" d="M1518.8237,-55.4179C1497.0688,-46.4215 1463.5446,-32.5581 1439.022,-22.4172"/>
<polygon fill="#191970" stroke="#191970" points="1440.3594,-19.1828 1429.7809,-18.5956 1437.6843,-25.6515 1440.3594,-19.1828"/>
</g>
<!-- Node15 -->
<g id="node16" class="node">
<title>Node15</title>
<polygon fill="#ffffff" stroke="#bfbfbf" points="1483.328,-.5 1483.328,-18.5 1598.244,-18.5 1598.244,-.5 1483.328,-.5"/>
<text text-anchor="middle" x="1540.786" y="-6.5" font-family="Helvetica,sans-Serif" font-size="10.00" fill="#000000">Epetra_FECrsMatrix.h</text>
</g>
<!-- Node6&#45;&gt;Node15 -->
<g id="edge15" class="edge">
<title>Node6&#45;&gt;Node15</title>
<path fill="none" stroke="#191970" d="M1540.786,-55.4179C1540.786,-48.2164 1540.786,-37.8962 1540.786,-28.8632"/>
<polygon fill="#191970" stroke="#191970" points="1544.2861,-28.7794 1540.786,-18.7795 1537.2861,-28.7795 1544.2861,-28.7794"/>
</g>
<!-- Node16 -->
<g id="node17" class="node">
<title>Node16</title>
<polygon fill="#ffffff" stroke="#bfbfbf" points="1615.8109,-.5 1615.8109,-18.5 1715.7611,-18.5 1715.7611,-.5 1615.8109,-.5"/>
<text text-anchor="middle" x="1665.786" y="-6.5" font-family="Helvetica,sans-Serif" font-size="10.00" fill="#000000">Epetra_FEVector.h</text>
</g>
<!-- Node6&#45;&gt;Node16 -->
<g id="edge16" class="edge">
<title>Node6&#45;&gt;Node16</title>
<path fill="none" stroke="#191970" d="M1561.4272,-55.4179C1581.6926,-46.5011 1612.8245,-32.803 1635.8149,-22.6873"/>
<polygon fill="#191970" stroke="#191970" points="1637.3706,-25.8267 1645.1141,-18.5956 1634.5514,-19.4195 1637.3706,-25.8267"/>
</g>
<!-- Node17 -->
<g id="node18" class="node">
<title>Node17</title>
<polygon fill="#ffffff" stroke="#bfbfbf" points="1734.2001,-.5 1734.2001,-18.5 1821.3719,-18.5 1821.3719,-.5 1734.2001,-.5"/>
<text text-anchor="middle" x="1777.786" y="-6.5" font-family="Helvetica,sans-Serif" font-size="10.00" fill="#000000">Epetra_Vector.h</text>
</g>
<!-- Node6&#45;&gt;Node17 -->
<g id="edge17" class="edge">
<title>Node6&#45;&gt;Node17</title>
<path fill="none" stroke="#191970" d="M1576.5239,-56.2064C1617.1584,-46.7764 1683.7255,-31.3284 1729.0874,-20.8014"/>
<polygon fill="#191970" stroke="#191970" points="1730.0454,-24.1721 1738.9953,-18.502 1728.463,-17.3533 1730.0454,-24.1721"/>
</g>
<!-- Node18 -->
<g id="node19" class="node">
<title>Node18</title>
<polygon fill="#ffffff" stroke="#bfbfbf" points="1839.3773,-.5 1839.3773,-18.5 1918.1947,-18.5 1918.1947,-.5 1839.3773,-.5"/>
<text text-anchor="middle" x="1878.786" y="-6.5" font-family="Helvetica,sans-Serif" font-size="10.00" fill="#000000">Epetra_Map.h</text>
</g>
<!-- Node6&#45;&gt;Node18 -->
<g id="edge18" class="edge">
<title>Node6&#45;&gt;Node18</title>
<path fill="none" stroke="#191970" d="M1576.5785,-59.3522C1629.591,-51.6256 1732.3417,-36.26 1829.2908,-19.2147"/>
<polygon fill="#191970" stroke="#191970" points="1830.0188,-22.6404 1839.2567,-17.4528 1828.8001,-15.7473 1830.0188,-22.6404"/>
</g>
<!-- Node19 -->
<g id="node20" class="node">
<title>Node19</title>
<polygon fill="#ffffff" stroke="#bfbfbf" points="1936.2567,-.5 1936.2567,-18.5 2077.3153,-18.5 2077.3153,-.5 1936.2567,-.5"/>
<text text-anchor="middle" x="2006.786" y="-6.5" font-family="Helvetica,sans-Serif" font-size="10.00" fill="#000000">Epetra_SerialDenseMatrix.h</text>
</g>
<!-- Node6&#45;&gt;Node19 -->
<g id="edge19" class="edge">
<title>Node6&#45;&gt;Node19</title>
<path fill="none" stroke="#191970" d="M1576.4424,-60.3074C1642.8725,-52.494 1790.3584,-35.1365 1925.9596,-19.0969"/>
<polygon fill="#191970" stroke="#191970" points="1926.5966,-22.5461 1936.1161,-17.8954 1925.7742,-15.5945 1926.5966,-22.5461"/>
</g>
<!-- Node20 -->
<g id="node21" class="node">
<title>Node20</title>
<polygon fill="#ffffff" stroke="#bfbfbf" points="2094.9637,-.5 2094.9637,-18.5 2236.6083,-18.5 2236.6083,-.5 2094.9637,-.5"/>
<text text-anchor="middle" x="2165.786" y="-6.5" font-family="Helvetica,sans-Serif" font-size="10.00" fill="#000000">Epetra_SerialDenseVector.h</text>
</g>
<!-- Node6&#45;&gt;Node20 -->
<g id="edge20" class="edge">
<title>Node6&#45;&gt;Node20</title>
<path fill="none" stroke="#191970" d="M1576.6021,-61.9705C1662.4696,-55.8085 1887.0614,-39.1147 2084.7525,-19.1799"/>
<polygon fill="#191970" stroke="#191970" points="2085.1447,-22.6582 2094.7408,-18.1676 2084.4388,-15.6939 2085.1447,-22.6582"/>
</g>
<!-- Node21 -->
<g id="node22" class="node">
<title>Node21</title>
<polygon fill="#ffffff" stroke="#bfbfbf" points="2254.4046,-.5 2254.4046,-18.5 2407.1673,-18.5 2407.1673,-.5 2254.4046,-.5"/>
<text text-anchor="middle" x="2330.786" y="-6.5" font-family="Helvetica,sans-Serif" font-size="10.00" fill="#000000">Epetra_IntSerialDenseVector.h</text>
</g>
<!-- Node6&#45;&gt;Node21 -->
<g id="edge21" class="edge">
<title>Node6&#45;&gt;Node21</title>
<path fill="none" stroke="#191970" d="M1576.4108,-62.7921C1678.6011,-57.7673 1981.6915,-41.9855 2244.2399,-19.1005"/>
<polygon fill="#191970" stroke="#191970" points="2244.6913,-22.5744 2254.3472,-18.2141 2244.0797,-15.6012 2244.6913,-22.5744"/>
</g>
<!-- Node6&#45;&gt;Node32 -->
<g id="edge22" class="edge">
<title>Node6&#45;&gt;Node32</title>
<path fill="none" stroke="#191970" d="M1505.0378,-62.7631C1342.5048,-54.8662 672.3772,-22.307 468.1407,-12.3838"/>
<polygon fill="#191970" stroke="#191970" points="468.0732,-8.8765 457.9151,-11.887 467.7335,-15.8683 468.0732,-8.8765"/>
</g>
<!-- Node39 -->
<g id="node25" class="node">
<title>Node39</title>
<g id="a_node25"><a xlink:href="../../d9/dea/_linear___finite___element___problem_8hpp.html" target="_top" xlink:title="Linear_Finite_Element\l_Problem.hpp">
<polygon fill="#ffffff" stroke="#000000" points="1525.7567,-110.5 1525.7567,-138.5 1641.8153,-138.5 1641.8153,-110.5 1525.7567,-110.5"/>
<text text-anchor="start" x="1533.7567" y="-126.5" font-family="Helvetica,sans-Serif" font-size="10.00" fill="#000000">Linear_Finite_Element</text>
<text text-anchor="middle" x="1583.786" y="-116.5" font-family="Helvetica,sans-Serif" font-size="10.00" fill="#000000">_Problem.hpp</text>
</a>
</g>
</g>
<!-- Node38&#45;&gt;Node39 -->
<g id="edge24" class="edge">
<title>Node38&#45;&gt;Node39</title>
<path fill="none" stroke="#191970" d="M1621.1033,-175.3873C1615.5995,-167.8821 1607.5566,-156.9144 1600.3456,-147.0813"/>
<polygon fill="#191970" stroke="#191970" points="1603.0437,-144.8419 1594.3076,-138.8477 1597.3989,-148.9815 1603.0437,-144.8419"/>
</g>
<!-- Node39&#45;&gt;Node6 -->
<g id="edge25" class="edge">
<title>Node39&#45;&gt;Node6</title>
<path fill="none" stroke="#191970" d="M1573.5956,-110.2808C1567.4861,-101.756 1559.6733,-90.8545 1553.2044,-81.8281"/>
<polygon fill="#191970" stroke="#191970" points="1555.9664,-79.6735 1547.2963,-73.5842 1550.2767,-83.7512 1555.9664,-79.6735"/>
</g>
<!-- Node50&#45;&gt;Node3 -->
<g id="edge51" class="edge">
<title>Node50&#45;&gt;Node3</title>
<path fill="none" stroke="#191970" d="M1170.3741,-365.4306C1160.4125,-363.4209 1149.7445,-361.4581 1139.786,-360 962.2968,-334.0125 915.3105,-349.7457 737.786,-324 731.0033,-323.0163 723.8948,-321.8065 716.8963,-320.5089"/>
<polygon fill="#191970" stroke="#191970" points="717.2534,-317.0135 706.7721,-318.561 715.9307,-323.8874 717.2534,-317.0135"/>
</g>
<!-- Node51 -->
<g id="node37" class="node">
<title>Node51</title>
<polygon fill="#ffffff" stroke="#bfbfbf" points="1797.5843,-300.5 1797.5843,-318.5 1901.9877,-318.5 1901.9877,-300.5 1797.5843,-300.5"/>
<text text-anchor="middle" x="1849.786" y="-306.5" font-family="Helvetica,sans-Serif" font-size="10.00" fill="#000000">ROL_StdVector.hpp</text>
</g>
<!-- Node50&#45;&gt;Node51 -->
<g id="edge39" class="edge">
<title>Node50&#45;&gt;Node51</title>
<path fill="none" stroke="#191970" d="M1247.2676,-365.4885C1256.8225,-363.4027 1267.1485,-361.3899 1276.786,-360 1502.5675,-327.4386 1563.2914,-358.4921 1788.786,-324 1794.3678,-323.1462 1800.1923,-322.043 1805.9318,-320.8266"/>
<polygon fill="#191970" stroke="#191970" points="1807.1098,-324.1493 1816.1004,-318.5441 1805.5767,-317.3193 1807.1098,-324.1493"/>
</g>
<!-- Node52 -->
<g id="node38" class="node">
<title>Node52</title>
<polygon fill="#ffffff" stroke="#bfbfbf" points="747.1507,-300.5 747.1507,-318.5 850.4212,-318.5 850.4212,-300.5 747.1507,-300.5"/>
<text text-anchor="middle" x="798.786" y="-306.5" font-family="Helvetica,sans-Serif" font-size="10.00" fill="#000000">ROL_Objective.hpp</text>
</g>
<!-- Node50&#45;&gt;Node52 -->
<g id="edge40" class="edge">
<title>Node50&#45;&gt;Node52</title>
<path fill="none" stroke="#191970" d="M1169.2082,-365.4753C1159.5731,-363.5324 1149.3422,-361.5879 1139.786,-360 1016.0143,-339.4332 983.2137,-346.5394 859.786,-324 854.6962,-323.0705 849.3936,-321.9864 844.1327,-320.837"/>
<polygon fill="#191970" stroke="#191970" points="844.6603,-317.3678 834.1339,-318.5698 843.1123,-324.1945 844.6603,-317.3678"/>
</g>
<!-- Node53 -->
<g id="node39" class="node">
<title>Node53</title>
<polygon fill="#ffffff" stroke="#bfbfbf" points="868.8749,-300.5 868.8749,-318.5 972.6971,-318.5 972.6971,-300.5 868.8749,-300.5"/>
<text text-anchor="middle" x="920.786" y="-306.5" font-family="Helvetica,sans-Serif" font-size="10.00" fill="#000000">ROL_Algorithm.hpp</text>
</g>
<!-- Node50&#45;&gt;Node53 -->
<g id="edge41" class="edge">
<title>Node50&#45;&gt;Node53</title>
<path fill="none" stroke="#191970" d="M1168.9529,-365.4893C1123.0068,-355.5427 1047.0663,-338.9556 981.786,-324 977.4307,-323.0022 972.9039,-321.9516 968.3724,-320.8908"/>
<polygon fill="#191970" stroke="#191970" points="969.0458,-317.4537 958.5098,-318.5687 967.4415,-324.2674 969.0458,-317.4537"/>
</g>
<!-- Node54 -->
<g id="node40" class="node">
<title>Node54</title>
<polygon fill="#ffffff" stroke="#bfbfbf" points="990.7469,-300.5 990.7469,-318.5 1126.8251,-318.5 1126.8251,-300.5 990.7469,-300.5"/>
<text text-anchor="middle" x="1058.786" y="-306.5" font-family="Helvetica,sans-Serif" font-size="10.00" fill="#000000">ROL_BoundConstraint.hpp</text>
</g>
<!-- Node50&#45;&gt;Node54 -->
<g id="edge42" class="edge">
<title>Node50&#45;&gt;Node54</title>
<path fill="none" stroke="#191970" d="M1189.651,-365.462C1163.707,-354.3675 1119.498,-335.4624 1089.727,-322.7313"/>
<polygon fill="#191970" stroke="#191970" points="1090.8022,-319.3846 1080.2314,-318.6708 1088.0499,-325.8208 1090.8022,-319.3846"/>
</g>
<!-- Node55 -->
<g id="node41" class="node">
<title>Node55</title>
<polygon fill="#ffffff" stroke="#bfbfbf" points="1144.412,-300.5 1144.412,-318.5 1277.16,-318.5 1277.16,-300.5 1144.412,-300.5"/>
<text text-anchor="middle" x="1210.786" y="-306.5" font-family="Helvetica,sans-Serif" font-size="10.00" fill="#000000">ROL_LineSearchStep.hpp</text>
</g>
<!-- Node50&#45;&gt;Node55 -->
<g id="edge43" class="edge">
<title>Node50&#45;&gt;Node55</title>
<path fill="none" stroke="#191970" d="M1210.786,-365.462C1210.786,-356.061 1210.786,-341.0518 1210.786,-328.943"/>
<polygon fill="#191970" stroke="#191970" points="1214.2861,-328.8821 1210.786,-318.8821 1207.2861,-328.8822 1214.2861,-328.8821"/>
</g>
<!-- Node56 -->
<g id="node42" class="node">
<title>Node56</title>
<polygon fill="#ffffff" stroke="#bfbfbf" points="1295.6483,-300.5 1295.6483,-318.5 1403.9237,-318.5 1403.9237,-300.5 1295.6483,-300.5"/>
<text text-anchor="middle" x="1349.786" y="-306.5" font-family="Helvetica,sans-Serif" font-size="10.00" fill="#000000">ROL_StatusTest.hpp</text>
</g>
<!-- Node50&#45;&gt;Node56 -->
<g id="edge44" class="edge">
<title>Node50&#45;&gt;Node56</title>
<path fill="none" stroke="#191970" d="M1230.1133,-365.462C1253.6322,-354.464 1293.5646,-335.7906 1320.7781,-323.0648"/>
<polygon fill="#191970" stroke="#191970" points="1322.5988,-326.0773 1330.1747,-318.6708 1319.6336,-319.7363 1322.5988,-326.0773"/>
</g>
<!-- Node57 -->
<g id="node43" class="node">
<title>Node57</title>
<polygon fill="#ffffff" stroke="#bfbfbf" points="1421.9686,-300.5 1421.9686,-318.5 1563.6034,-318.5 1563.6034,-300.5 1421.9686,-300.5"/>
<text text-anchor="middle" x="1492.786" y="-306.5" font-family="Helvetica,sans-Serif" font-size="10.00" fill="#000000">Epetra_SerialDenseSolver.h</text>
</g>
<!-- Node50&#45;&gt;Node57 -->
<g id="edge45" class="edge">
<title>Node50&#45;&gt;Node57</title>
<path fill="none" stroke="#191970" d="M1249.9969,-365.462C1300.5745,-353.8041 1388.5675,-333.522 1443.5823,-320.8413"/>
<polygon fill="#191970" stroke="#191970" points="1444.4962,-324.2225 1453.4546,-318.5658 1442.9239,-317.4013 1444.4962,-324.2225"/>
</g>
<!-- Node58 -->
<g id="node44" class="node">
<title>Node58</title>
<polygon fill="#ffffff" stroke="#bfbfbf" points="1581.5003,-300.5 1581.5003,-318.5 1628.0716,-318.5 1628.0716,-300.5 1581.5003,-300.5"/>
<text text-anchor="middle" x="1604.786" y="-306.5" font-family="Helvetica,sans-Serif" font-size="10.00" fill="#000000">math.h</text>
</g>
<!-- Node50&#45;&gt;Node58 -->
<g id="edge46" class="edge">
<title>Node50&#45;&gt;Node58</title>
<path fill="none" stroke="#191970" d="M1249.0548,-365.4457C1258.1143,-363.482 1267.7652,-361.5359 1276.786,-360 1407.4308,-337.7562 1445.1774,-359.762 1572.786,-324 1574.4414,-323.5361 1576.1203,-322.9985 1577.7973,-322.4091"/>
<polygon fill="#191970" stroke="#191970" points="1579.2384,-325.602 1587.2067,-318.6195 1576.6232,-319.1089 1579.2384,-325.602"/>
</g>
<!-- Node59 -->
<g id="node45" class="node">
<title>Node59</title>
<g id="a_node45"><a xlink:href="../../df/dc0/_compressible___mooney___transverse___isotropic_8hpp.html" target="_top" xlink:title="Compressible_Mooney\l_Transverse_Isotropic.hpp">
<polygon fill="#ffffff" stroke="#000000" points="1645.7723,-295.5 1645.7723,-323.5 1779.7997,-323.5 1779.7997,-295.5 1645.7723,-295.5"/>
<text text-anchor="start" x="1653.7723" y="-311.5" font-family="Helvetica,sans-Serif" font-size="10.00" fill="#000000">Compressible_Mooney</text>
<text text-anchor="middle" x="1712.786" y="-301.5" font-family="Helvetica,sans-Serif" font-size="10.00" fill="#000000">_Transverse_Isotropic.hpp</text>
</a>
</g>
</g>
<!-- Node50&#45;&gt;Node59 -->
<g id="edge47" class="edge">
<title>Node50&#45;&gt;Node59</title>
<path fill="none" stroke="#191970" d="M1248.336,-365.4565C1257.5966,-363.446 1267.5176,-361.4764 1276.786,-360 1432.3254,-335.2238 1475.8798,-346.5981 1635.5216,-324.0923"/>
<polygon fill="#191970" stroke="#191970" points="1636.3012,-327.5165 1645.7037,-322.6335 1635.3084,-320.5872 1636.3012,-327.5165"/>
</g>
<!-- Node59&#45;&gt;Node4 -->
<g id="edge50" class="edge">
<title>Node59&#45;&gt;Node4</title>
<path fill="none" stroke="#191970" d="M1691.7384,-295.396C1678.1376,-286.282 1660.2421,-274.2902 1645.2381,-264.236"/>
<polygon fill="#191970" stroke="#191970" points="1647.0482,-261.2357 1636.7925,-258.5765 1643.1514,-267.0509 1647.0482,-261.2357"/>
</g>
<!-- Node60 -->
<g id="node46" class="node">
<title>Node60</title>
<g id="a_node46"><a xlink:href="../../de/d49/tensor__calculus_8hpp.html" target="_top" xlink:title="tensor_calculus.hpp">
<polygon fill="#ffffff" stroke="#000000" points="1660.3133,-115.5 1660.3133,-133.5 1765.2586,-133.5 1765.2586,-115.5 1660.3133,-115.5"/>
<text text-anchor="middle" x="1712.786" y="-121.5" font-family="Helvetica,sans-Serif" font-size="10.00" fill="#000000">tensor_calculus.hpp</text>
</a>
</g>
</g>
<!-- Node59&#45;&gt;Node60 -->
<g id="edge48" class="edge">
<title>Node59&#45;&gt;Node60</title>
<path fill="none" stroke="#191970" d="M1712.786,-295.2905C1712.786,-262.4726 1712.786,-181.36 1712.786,-143.9602"/>
<polygon fill="#191970" stroke="#191970" points="1716.2861,-143.8586 1712.786,-133.8587 1709.2861,-143.8587 1716.2861,-143.8586"/>
</g>
<!-- Node60&#45;&gt;Node6 -->
<g id="edge49" class="edge">
<title>Node60&#45;&gt;Node6</title>
<path fill="none" stroke="#191970" d="M1686.6629,-115.3873C1657.1951,-105.1078 1609.1075,-88.3331 1576.259,-76.8743"/>
<polygon fill="#191970" stroke="#191970" points="1577.1862,-73.491 1566.5914,-73.5019 1574.8805,-80.1004 1577.1862,-73.491"/>
</g>
</g>
</svg>
