<?xml version="1.0" encoding="UTF-8" standalone="no"?>
<!DOCTYPE svg PUBLIC "-//W3C//DTD SVG 1.1//EN"
 "http://www.w3.org/Graphics/SVG/1.1/DTD/svg11.dtd">
<!-- Generated by graphviz version 2.40.1 (20161225.0304)
 -->
<!-- Title: src/femesh/mesh.cpp Pages: 1 -->
<svg width="1118pt" height="137pt"
 viewBox="0.00 0.00 1117.78 137.00" xmlns="http://www.w3.org/2000/svg" xmlns:xlink="http://www.w3.org/1999/xlink">
<g id="graph0" class="graph" transform="scale(1 1) rotate(0) translate(4 133)">
<title>src/femesh/mesh.cpp</title>
<polygon fill="#ffffff" stroke="transparent" points="-4,4 -4,-133 1113.7788,-133 1113.7788,4 -4,4"/>
<!-- Node0 -->
<g id="node1" class="node">
<title>Node0</title>
<polygon fill="#bfbfbf" stroke="#000000" points="301.2144,-110.5 301.2144,-128.5 412.2485,-128.5 412.2485,-110.5 301.2144,-110.5"/>
<text text-anchor="middle" x="356.7314" y="-116.5" font-family="Helvetica,sans-Serif" font-size="10.00" fill="#000000">src/femesh/mesh.cpp</text>
</g>
<!-- Node1 -->
<g id="node2" class="node">
<title>Node1</title>
<g id="a_node2"><a xlink:href="../../da/dc6/mesh_8hpp.html" target="_top" xlink:title="mesh.hpp">
<polygon fill="#ffffff" stroke="#000000" points="326.7734,-55.5 326.7734,-73.5 386.6895,-73.5 386.6895,-55.5 326.7734,-55.5"/>
<text text-anchor="middle" x="356.7314" y="-61.5" font-family="Helvetica,sans-Serif" font-size="10.00" fill="#000000">mesh.hpp</text>
</a>
</g>
</g>
<!-- Node0&#45;&gt;Node1 -->
<g id="edge1" class="edge">
<title>Node0&#45;&gt;Node1</title>
<path fill="none" stroke="#191970" d="M356.7314,-110.4179C356.7314,-103.2164 356.7314,-92.8962 356.7314,-83.8632"/>
<polygon fill="#191970" stroke="#191970" points="360.2315,-83.7794 356.7314,-73.7795 353.2315,-83.7795 360.2315,-83.7794"/>
</g>
<!-- Node2 -->
<g id="node3" class="node">
<title>Node2</title>
<polygon fill="#ffffff" stroke="#bfbfbf" points="0,-.5 0,-18.5 45.4629,-18.5 45.4629,-.5 0,-.5"/>
<text text-anchor="middle" x="22.7314" y="-6.5" font-family="Helvetica,sans-Serif" font-size="10.00" fill="#000000">stdio.h</text>
</g>
<!-- Node1&#45;&gt;Node2 -->
<g id="edge2" class="edge">
<title>Node1&#45;&gt;Node2</title>
<path fill="none" stroke="#191970" d="M326.4704,-61.3521C273.445,-55.5334 160.1958,-41.7605 55.4831,-18.9031"/>
<polygon fill="#191970" stroke="#191970" points="56.2237,-15.4824 45.7033,-16.7358 54.7091,-22.3166 56.2237,-15.4824"/>
</g>
<!-- Node3 -->
<g id="node4" class="node">
<title>Node3</title>
<polygon fill="#ffffff" stroke="#bfbfbf" points="63.5591,-.5 63.5591,-18.5 117.9038,-18.5 117.9038,-.5 63.5591,-.5"/>
<text text-anchor="middle" x="90.7314" y="-6.5" font-family="Helvetica,sans-Serif" font-size="10.00" fill="#000000">iostream</text>
</g>
<!-- Node1&#45;&gt;Node3 -->
<g id="edge3" class="edge">
<title>Node1&#45;&gt;Node3</title>
<path fill="none" stroke="#191970" d="M326.6111,-59.0637C284.5187,-51.3477 205.5032,-36.432 128.0905,-18.9776"/>
<polygon fill="#191970" stroke="#191970" points="128.6964,-15.5262 118.1695,-16.7245 127.146,-22.3524 128.6964,-15.5262"/>
</g>
<!-- Node4 -->
<g id="node5" class="node">
<title>Node4</title>
<polygon fill="#ffffff" stroke="#bfbfbf" points="136.3398,-.5 136.3398,-18.5 185.123,-18.5 185.123,-.5 136.3398,-.5"/>
<text text-anchor="middle" x="160.7314" y="-6.5" font-family="Helvetica,sans-Serif" font-size="10.00" fill="#000000">istream</text>
</g>
<!-- Node1&#45;&gt;Node4 -->
<g id="edge4" class="edge">
<title>Node1&#45;&gt;Node4</title>
<path fill="none" stroke="#191970" d="M326.6687,-56.1866C295.8631,-47.6506 246.3273,-33.8772 194.8616,-19.3064"/>
<polygon fill="#191970" stroke="#191970" points="195.8089,-15.9371 185.2335,-16.5775 193.9,-22.6718 195.8089,-15.9371"/>
</g>
<!-- Node5 -->
<g id="node6" class="node">
<title>Node5</title>
<polygon fill="#ffffff" stroke="#bfbfbf" points="203.0615,-.5 203.0615,-18.5 252.4014,-18.5 252.4014,-.5 203.0615,-.5"/>
<text text-anchor="middle" x="227.7314" y="-6.5" font-family="Helvetica,sans-Serif" font-size="10.00" fill="#000000">fstream</text>
</g>
<!-- Node1&#45;&gt;Node5 -->
<g id="edge5" class="edge">
<title>Node1&#45;&gt;Node5</title>
<path fill="none" stroke="#191970" d="M335.4297,-55.4179C314.4224,-46.4613 282.1006,-32.6806 258.3443,-22.552"/>
<polygon fill="#191970" stroke="#191970" points="259.6363,-19.2981 249.0648,-18.5956 256.8909,-25.7372 259.6363,-19.2981"/>
</g>
<!-- Node6 -->
<g id="node7" class="node">
<title>Node6</title>
<polygon fill="#ffffff" stroke="#bfbfbf" points="270.1157,-.5 270.1157,-18.5 313.3472,-18.5 313.3472,-.5 270.1157,-.5"/>
<text text-anchor="middle" x="291.7314" y="-6.5" font-family="Helvetica,sans-Serif" font-size="10.00" fill="#000000">vector</text>
</g>
<!-- Node1&#45;&gt;Node6 -->
<g id="edge6" class="edge">
<title>Node1&#45;&gt;Node6</title>
<path fill="none" stroke="#191970" d="M345.998,-55.4179C336.3648,-47.2667 322.0098,-35.1201 310.4833,-25.3669"/>
<polygon fill="#191970" stroke="#191970" points="312.5928,-22.5671 302.6981,-18.7795 308.0712,-27.9108 312.5928,-22.5671"/>
</g>
<!-- Node7 -->
<g id="node8" class="node">
<title>Node7</title>
<polygon fill="#ffffff" stroke="#bfbfbf" points="331.2217,-.5 331.2217,-18.5 382.2412,-18.5 382.2412,-.5 331.2217,-.5"/>
<text text-anchor="middle" x="356.7314" y="-6.5" font-family="Helvetica,sans-Serif" font-size="10.00" fill="#000000">iomanip</text>
</g>
<!-- Node1&#45;&gt;Node7 -->
<g id="edge7" class="edge">
<title>Node1&#45;&gt;Node7</title>
<path fill="none" stroke="#191970" d="M356.7314,-55.4179C356.7314,-48.2164 356.7314,-37.8962 356.7314,-28.8632"/>
<polygon fill="#191970" stroke="#191970" points="360.2315,-28.7794 356.7314,-18.7795 353.2315,-28.7795 360.2315,-28.7794"/>
</g>
<!-- Node8 -->
<g id="node9" class="node">
<title>Node8</title>
<polygon fill="#ffffff" stroke="#bfbfbf" points="400.271,-.5 400.271,-18.5 505.1919,-18.5 505.1919,-.5 400.271,-.5"/>
<text text-anchor="middle" x="452.7314" y="-6.5" font-family="Helvetica,sans-Serif" font-size="10.00" fill="#000000">Epetra_MpiComm.h</text>
</g>
<!-- Node1&#45;&gt;Node8 -->
<g id="edge8" class="edge">
<title>Node1&#45;&gt;Node8</title>
<path fill="none" stroke="#191970" d="M372.5839,-55.4179C387.5919,-46.8195 410.3599,-33.7754 427.7986,-23.7844"/>
<polygon fill="#191970" stroke="#191970" points="429.9185,-26.6037 436.8554,-18.5956 426.4387,-20.5299 429.9185,-26.6037"/>
</g>
<!-- Node9 -->
<g id="node10" class="node">
<title>Node9</title>
<polygon fill="#ffffff" stroke="#bfbfbf" points="523.2021,-.5 523.2021,-18.5 664.2607,-18.5 664.2607,-.5 523.2021,-.5"/>
<text text-anchor="middle" x="593.7314" y="-6.5" font-family="Helvetica,sans-Serif" font-size="10.00" fill="#000000">Epetra_SerialDenseMatrix.h</text>
</g>
<!-- Node1&#45;&gt;Node9 -->
<g id="edge9" class="edge">
<title>Node1&#45;&gt;Node9</title>
<path fill="none" stroke="#191970" d="M386.7477,-57.5342C426.6338,-48.2779 497.5931,-31.8106 545.155,-20.773"/>
<polygon fill="#191970" stroke="#191970" points="545.9795,-24.1748 554.9294,-18.5047 544.397,-17.356 545.9795,-24.1748"/>
</g>
<!-- Node10 -->
<g id="node11" class="node">
<title>Node10</title>
<polygon fill="#ffffff" stroke="#bfbfbf" points="681.9092,-.5 681.9092,-18.5 823.5537,-18.5 823.5537,-.5 681.9092,-.5"/>
<text text-anchor="middle" x="752.7314" y="-6.5" font-family="Helvetica,sans-Serif" font-size="10.00" fill="#000000">Epetra_SerialDenseVector.h</text>
</g>
<!-- Node1&#45;&gt;Node10 -->
<g id="edge10" class="edge">
<title>Node1&#45;&gt;Node10</title>
<path fill="none" stroke="#191970" d="M386.8208,-60.3209C448.2574,-51.7881 589.7284,-32.1393 677.6656,-19.9258"/>
<polygon fill="#191970" stroke="#191970" points="678.1632,-23.3904 687.5866,-18.5479 677.2002,-16.4569 678.1632,-23.3904"/>
</g>
<!-- Node11 -->
<g id="node12" class="node">
<title>Node11</title>
<polygon fill="#ffffff" stroke="#bfbfbf" points="841.3501,-.5 841.3501,-18.5 994.1128,-18.5 994.1128,-.5 841.3501,-.5"/>
<text text-anchor="middle" x="917.7314" y="-6.5" font-family="Helvetica,sans-Serif" font-size="10.00" fill="#000000">Epetra_IntSerialDenseVector.h</text>
</g>
<!-- Node1&#45;&gt;Node11 -->
<g id="edge11" class="edge">
<title>Node1&#45;&gt;Node11</title>
<path fill="none" stroke="#191970" d="M386.8213,-61.7923C460.6021,-55.1169 656.6257,-37.1643 831.1438,-19.1518"/>
<polygon fill="#191970" stroke="#191970" points="831.6954,-22.6135 841.282,-18.1028 830.9749,-15.6506 831.6954,-22.6135"/>
</g>
<!-- Node12 -->
<g id="node13" class="node">
<title>Node12</title>
<polygon fill="#ffffff" stroke="#bfbfbf" points="1011.6841,-.5 1011.6841,-18.5 1109.7788,-18.5 1109.7788,-.5 1011.6841,-.5"/>
<text text-anchor="middle" x="1060.7314" y="-6.5" font-family="Helvetica,sans-Serif" font-size="10.00" fill="#000000">Teuchos_RCP.hpp</text>
</g>
<!-- Node1&#45;&gt;Node12 -->
<g id="edge12" class="edge">
<title>Node1&#45;&gt;Node12</title>
<path fill="none" stroke="#191970" d="M386.7671,-63.3685C477.7477,-59.7333 758.4505,-46.9886 1001.3361,-19.0647"/>
<polygon fill="#191970" stroke="#191970" points="1001.8843,-22.5247 1011.4139,-17.8948 1001.077,-15.5714 1001.8843,-22.5247"/>
</g>
</g>
</svg>
