<?xml version="1.0" encoding="UTF-8" standalone="no"?>
<!DOCTYPE svg PUBLIC "-//W3C//DTD SVG 1.1//EN"
 "http://www.w3.org/Graphics/SVG/1.1/DTD/svg11.dtd">
<!-- Generated by graphviz version 2.40.1 (20161225.0304)
 -->
<!-- Title: nrl/linearpatchtest/main.cpp Pages: 1 -->
<!--zoomable 387 -->
<svg id="main" version="1.1" xmlns="http://www.w3.org/2000/svg" xmlns:xlink="http://www.w3.org/1999/xlink" xml:space="preserve" onload="init(evt)">
<style type="text/css"><![CDATA[
.edge:hover path { stroke: red; }
.edge:hover polygon { stroke: red; fill: red; }
]]></style>
<script type="text/javascript"><![CDATA[
var edges = document.getElementsByTagName('g');
if (edges && edges.length) {
  for (var i=0;i<edges.length;i++) {
    if (edges[i].id.substr(0,4)=='edge') {
      edges[i].setAttribute('class','edge');
    }
  }
}
]]></script>
        <defs>
                <circle id="rim" cx="0" cy="0" r="7"/>
                <circle id="rim2" cx="0" cy="0" r="3.5"/>
                <g id="zoomPlus">
                        <use xlink:href="#rim" fill="#404040">
                                <set attributeName="fill" to="#808080" begin="zoomplus.mouseover" end="zoomplus.mouseout"/>
                        </use>
                        <path d="M-4,0h8M0,-4v8" fill="none" stroke="white" stroke-width="1.5" pointer-events="none"/>
                </g>
                <g id="zoomMin">
                        <use xlink:href="#rim" fill="#404040">
                                <set attributeName="fill" to="#808080" begin="zoomminus.mouseover" end="zoomminus.mouseout"/>
                        </use>
                        <path d="M-4,0h8" fill="none" stroke="white" stroke-width="1.5" pointer-events="none"/>
                </g>
                <g id="dirArrow">
                        <path fill="none" stroke="white" stroke-width="1.5" d="M0,-3.0v7 M-2.5,-0.5L0,-3.0L2.5,-0.5"/>
                </g>
               <g id="resetDef">
                       <use xlink:href="#rim2" fill="#404040">
                               <set attributeName="fill" to="#808080" begin="reset.mouseover" end="reset.mouseout"/>
                       </use>
               </g>
        </defs>

<script type="text/javascript">
var viewWidth = 3469;
var viewHeight = 387;
var sectionId = 'dynsection-0';
</script>
<script xlink:href="../../svgpan.js"/>
<svg id="graph" class="graph">
<g id="viewport">
<title>nrl/linearpatchtest/main.cpp</title>
<polygon fill="#ffffff" stroke="transparent" points="-4,4 -4,-383 3465.0586,-383 3465.0586,4 -4,4"/>
<!-- Node0 -->
<g id="node1" class="node">
<title>Node0</title>
<polygon fill="#bfbfbf" stroke="#000000" points="2843.707,-350.5 2843.707,-378.5 2938.6377,-378.5 2938.6377,-350.5 2843.707,-350.5"/>
<text text-anchor="start" x="2851.707" y="-366.5" font-family="Helvetica,sans-Serif" font-size="10.00" fill="#000000">nrl/linearpatchtest</text>
<text text-anchor="middle" x="2891.1724" y="-356.5" font-family="Helvetica,sans-Serif" font-size="10.00" fill="#000000">/main.cpp</text>
</g>
<!-- Node1 -->
<g id="node2" class="node">
<title>Node1</title>
<polygon fill="#ffffff" stroke="#bfbfbf" points="2299.7563,-290.5 2299.7563,-308.5 2408.5884,-308.5 2408.5884,-290.5 2299.7563,-290.5"/>
<text text-anchor="middle" x="2354.1724" y="-296.5" font-family="Helvetica,sans-Serif" font-size="10.00" fill="#000000">Epetra_ConfigDefs.h</text>
</g>
<!-- Node0&#45;&gt;Node1 -->
<g id="edge1" class="edge">
<title>Node0&#45;&gt;Node1</title>
<path fill="none" stroke="#191970" d="M2843.594,-361.2627C2758.0464,-355.0329 2572.7594,-339.6744 2418.1724,-314 2412.4125,-313.0434 2406.3938,-311.8886 2400.4508,-310.6535"/>
<polygon fill="#191970" stroke="#191970" points="2401.0934,-307.2116 2390.5796,-308.5196 2399.6143,-314.0536 2401.0934,-307.2116"/>
</g>
<!-- Node2 -->
<g id="node3" class="node">
<title>Node2</title>
<polygon fill="#ffffff" stroke="#bfbfbf" points="2426.9854,-290.5 2426.9854,-308.5 2541.3594,-308.5 2541.3594,-290.5 2426.9854,-290.5"/>
<text text-anchor="middle" x="2484.1724" y="-296.5" font-family="Helvetica,sans-Serif" font-size="10.00" fill="#000000">Epetra_SerialComm.h</text>
</g>
<!-- Node0&#45;&gt;Node2 -->
<g id="edge2" class="edge">
<title>Node0&#45;&gt;Node2</title>
<path fill="none" stroke="#191970" d="M2843.5593,-358.5077C2777.4875,-349.9515 2654.3589,-333.1357 2550.1724,-314 2544.6915,-312.9933 2538.9724,-311.8611 2533.292,-310.6844"/>
<polygon fill="#191970" stroke="#191970" points="2533.678,-307.1884 2523.1692,-308.5361 2532.2247,-314.0359 2533.678,-307.1884"/>
</g>
<!-- Node3 -->
<g id="node4" class="node">
<title>Node3</title>
<g id="a_node4"><a xlink:href="../../dd/dc1/compressible_hyperelasticity__linear_patch_test_8hpp.html" target="_top" xlink:title="compressibleHyperelasticity\l_linearPatchTest.hpp">
<polygon fill="#ffffff" stroke="#000000" points="2559.207,-285.5 2559.207,-313.5 2699.1377,-313.5 2699.1377,-285.5 2559.207,-285.5"/>
<text text-anchor="start" x="2567.207" y="-301.5" font-family="Helvetica,sans-Serif" font-size="10.00" fill="#000000">compressibleHyperelasticity</text>
<text text-anchor="middle" x="2629.1724" y="-291.5" font-family="Helvetica,sans-Serif" font-size="10.00" fill="#000000">_linearPatchTest.hpp</text>
</a>
</g>
</g>
<!-- Node0&#45;&gt;Node3 -->
<g id="edge3" class="edge">
<title>Node0&#45;&gt;Node3</title>
<path fill="none" stroke="#191970" d="M2843.4222,-352.6536C2802.0324,-342.3851 2741.7109,-327.4199 2695.6116,-315.983"/>
<polygon fill="#191970" stroke="#191970" points="2696.2554,-312.5367 2685.7068,-313.5257 2694.5698,-319.3307 2696.2554,-312.5367"/>
</g>
<!-- Node31 -->
<g id="node32" class="node">
<title>Node31</title>
<polygon fill="#ffffff" stroke="#bfbfbf" points="3164.125,-.5 3164.125,-18.5 3262.2197,-18.5 3262.2197,-.5 3164.125,-.5"/>
<text text-anchor="middle" x="3213.1724" y="-6.5" font-family="Helvetica,sans-Serif" font-size="10.00" fill="#000000">Teuchos_RCP.hpp</text>
</g>
<!-- Node0&#45;&gt;Node31 -->
<g id="edge52" class="edge">
<title>Node0&#45;&gt;Node31</title>
<path fill="none" stroke="#191970" d="M2938.9144,-352.757C3035.5412,-328.3183 3245.1724,-271.5998 3245.1724,-239.5 3245.1724,-239.5 3245.1724,-239.5 3245.1724,-119.5 3245.1724,-86.1706 3231.4602,-49.3407 3221.988,-27.875"/>
<polygon fill="#191970" stroke="#191970" points="3225.1086,-26.2835 3217.7572,-18.6542 3218.7464,-29.2028 3225.1086,-26.2835"/>
</g>
<!-- Node48 -->
<g id="node46" class="node">
<title>Node48</title>
<polygon fill="#ffffff" stroke="#bfbfbf" points="2721.291,-170.5 2721.291,-188.5 2899.0537,-188.5 2899.0537,-170.5 2721.291,-170.5"/>
<text text-anchor="middle" x="2810.1724" y="-176.5" font-family="Helvetica,sans-Serif" font-size="10.00" fill="#000000">Teuchos_StandardCatchMacros.hpp</text>
</g>
<!-- Node0&#45;&gt;Node48 -->
<g id="edge54" class="edge">
<title>Node0&#45;&gt;Node48</title>
<path fill="none" stroke="#191970" d="M2884.9509,-350.2905C2870.5201,-317.3312 2834.7613,-235.6598 2818.4821,-198.4791"/>
<polygon fill="#191970" stroke="#191970" points="2821.4869,-196.6153 2814.2699,-188.8587 2815.0746,-199.4229 2821.4869,-196.6153"/>
</g>
<!-- Node49 -->
<g id="node47" class="node">
<title>Node49</title>
<polygon fill="#ffffff" stroke="#bfbfbf" points="2916.9141,-170.5 2916.9141,-188.5 3057.4307,-188.5 3057.4307,-170.5 2916.9141,-170.5"/>
<text text-anchor="middle" x="2987.1724" y="-176.5" font-family="Helvetica,sans-Serif" font-size="10.00" fill="#000000">Teuchos_ParameterList.hpp</text>
</g>
<!-- Node0&#45;&gt;Node49 -->
<g id="edge53" class="edge">
<title>Node0&#45;&gt;Node49</title>
<path fill="none" stroke="#191970" d="M2898.5459,-350.2905C2915.7226,-317.1897 2958.3942,-234.9579 2977.5709,-198.0028"/>
<polygon fill="#191970" stroke="#191970" points="2980.8166,-199.3469 2982.316,-188.8587 2974.6033,-196.1227 2980.8166,-199.3469"/>
</g>
<!-- Node50 -->
<g id="node48" class="node">
<title>Node50</title>
<polygon fill="#ffffff" stroke="#bfbfbf" points="3075.3647,-165.5 3075.3647,-193.5 3216.98,-193.5 3216.98,-165.5 3075.3647,-165.5"/>
<text text-anchor="start" x="3083.3647" y="-181.5" font-family="Helvetica,sans-Serif" font-size="10.00" fill="#000000">Teuchos_XMLParameterList</text>
<text text-anchor="middle" x="3146.1724" y="-171.5" font-family="Helvetica,sans-Serif" font-size="10.00" fill="#000000">CoreHelpers.hpp</text>
</g>
<!-- Node0&#45;&gt;Node50 -->
<g id="edge56" class="edge">
<title>Node0&#45;&gt;Node50</title>
<path fill="none" stroke="#191970" d="M2910.7584,-350.2905C2955.7387,-317.6577 3066.5388,-237.2733 3118.4709,-199.5972"/>
<polygon fill="#191970" stroke="#191970" points="3120.8297,-202.2099 3126.8687,-193.5046 3116.7191,-196.544 3120.8297,-202.2099"/>
</g>
<!-- Node52 -->
<g id="node50" class="node">
<title>Node52</title>
<polygon fill="#ffffff" stroke="#bfbfbf" points="3273.2861,-290.5 3273.2861,-308.5 3461.0586,-308.5 3461.0586,-290.5 3273.2861,-290.5"/>
<text text-anchor="middle" x="3367.1724" y="-296.5" font-family="Helvetica,sans-Serif" font-size="10.00" fill="#000000">Teuchos_CommandLineProcessor.hpp</text>
</g>
<!-- Node0&#45;&gt;Node52 -->
<g id="edge55" class="edge">
<title>Node0&#45;&gt;Node52</title>
<path fill="none" stroke="#191970" d="M2938.9925,-357.9699C3021.7304,-346.6717 3192.2171,-323.391 3291.2858,-309.8627"/>
<polygon fill="#191970" stroke="#191970" points="3291.7993,-313.3251 3301.2337,-308.5042 3290.8521,-306.3895 3291.7993,-313.3251"/>
</g>
<!-- Node4 -->
<g id="node5" class="node">
<title>Node4</title>
<g id="a_node5"><a xlink:href="../../de/d49/tensor__calculus_8hpp.html" target="_top" xlink:title="tensor_calculus.hpp">
<polygon fill="#ffffff" stroke="#000000" points="1492.6997,-110.5 1492.6997,-128.5 1597.645,-128.5 1597.645,-110.5 1492.6997,-110.5"/>
<text text-anchor="middle" x="1545.1724" y="-116.5" font-family="Helvetica,sans-Serif" font-size="10.00" fill="#000000">tensor_calculus.hpp</text>
</a>
</g>
</g>
<!-- Node3&#45;&gt;Node4 -->
<g id="edge4" class="edge">
<title>Node3&#45;&gt;Node4</title>
<path fill="none" stroke="#191970" d="M2559.0306,-286.1539C2556.0423,-285.7346 2553.0801,-285.347 2550.1724,-285 2266.4041,-251.1375 2192.311,-279.5996 1908.1724,-249 1754.2318,-232.4218 1678.5294,-298.3792 1564.1724,-194 1549.033,-180.1816 1545.2198,-156.1343 1544.5921,-139.102"/>
<polygon fill="#191970" stroke="#191970" points="1548.0911,-138.6344 1544.5665,-128.6431 1541.0911,-138.6516 1548.0911,-138.6344"/>
</g>
<!-- Node37 -->
<g id="node36" class="node">
<title>Node37</title>
<g id="a_node36"><a xlink:href="../../da/d5c/compressible_hyperelasticity_8hpp.html" target="_top" xlink:title="compressibleHyperelasticity.hpp">
<polygon fill="#ffffff" stroke="#000000" points="1916.8442,-230.5 1916.8442,-248.5 2075.5005,-248.5 2075.5005,-230.5 1916.8442,-230.5"/>
<text text-anchor="middle" x="1996.1724" y="-236.5" font-family="Helvetica,sans-Serif" font-size="10.00" fill="#000000">compressibleHyperelasticity.hpp</text>
</a>
</g>
</g>
<!-- Node3&#45;&gt;Node37 -->
<g id="edge35" class="edge">
<title>Node3&#45;&gt;Node37</title>
<path fill="none" stroke="#191970" d="M2559.0186,-286.2491C2556.0336,-285.8038 2553.0753,-285.3846 2550.1724,-285 2387.1255,-263.3959 2195.6341,-250.3912 2085.8354,-244.1111"/>
<polygon fill="#191970" stroke="#191970" points="2085.9763,-240.6136 2075.7944,-243.5425 2085.5805,-247.6024 2085.9763,-240.6136"/>
</g>
<!-- Node41 -->
<g id="node39" class="node">
<title>Node41</title>
<g id="a_node39"><a xlink:href="../../d1/d11/newton_raphson_8hpp.html" target="_top" xlink:title="newtonRaphson.hpp">
<polygon fill="#ffffff" stroke="#000000" points="2437.3032,-230.5 2437.3032,-248.5 2545.0415,-248.5 2545.0415,-230.5 2437.3032,-230.5"/>
<text text-anchor="middle" x="2491.1724" y="-236.5" font-family="Helvetica,sans-Serif" font-size="10.00" fill="#000000">newtonRaphson.hpp</text>
</a>
</g>
</g>
<!-- Node3&#45;&gt;Node41 -->
<g id="edge39" class="edge">
<title>Node3&#45;&gt;Node41</title>
<path fill="none" stroke="#191970" d="M2596.8175,-285.4327C2574.0556,-275.5362 2543.7987,-262.381 2521.5002,-252.686"/>
<polygon fill="#191970" stroke="#191970" points="2522.7401,-249.4086 2512.1738,-248.6311 2519.9489,-255.8281 2522.7401,-249.4086"/>
</g>
<!-- Node5 -->
<g id="node6" class="node">
<title>Node5</title>
<g id="a_node6"><a xlink:href="../../d0/d02/meshpp_8hpp.html" target="_top" xlink:title="meshpp.hpp">
<polygon fill="#ffffff" stroke="#ff0000" points="1542.6528,-55.5 1542.6528,-73.5 1613.6919,-73.5 1613.6919,-55.5 1542.6528,-55.5"/>
<text text-anchor="middle" x="1578.1724" y="-61.5" font-family="Helvetica,sans-Serif" font-size="10.00" fill="#000000">meshpp.hpp</text>
</a>
</g>
</g>
<!-- Node4&#45;&gt;Node5 -->
<g id="edge5" class="edge">
<title>Node4&#45;&gt;Node5</title>
<path fill="none" stroke="#191970" d="M1550.6216,-110.4179C1555.18,-102.8207 1561.8208,-91.7527 1567.4404,-82.3866"/>
<polygon fill="#191970" stroke="#191970" points="1570.4609,-84.1552 1572.6047,-73.7795 1564.4585,-80.5536 1570.4609,-84.1552"/>
</g>
<!-- Node6 -->
<g id="node7" class="node">
<title>Node6</title>
<polygon fill="#ffffff" stroke="#bfbfbf" points="3100.4409,-.5 3100.4409,-18.5 3145.9038,-18.5 3145.9038,-.5 3100.4409,-.5"/>
<text text-anchor="middle" x="3123.1724" y="-6.5" font-family="Helvetica,sans-Serif" font-size="10.00" fill="#000000">stdio.h</text>
</g>
<!-- Node5&#45;&gt;Node6 -->
<g id="edge6" class="edge">
<title>Node5&#45;&gt;Node6</title>
<path fill="none" stroke="#191970" d="M1614.0052,-63.9771C1824.6923,-60.8301 2899.207,-43.7586 3090.1562,-18.5498"/>
<polygon fill="#191970" stroke="#191970" points="3090.8763,-21.9818 3100.265,-17.0725 3089.864,-15.0554 3090.8763,-21.9818"/>
</g>
<!-- Node7 -->
<g id="node8" class="node">
<title>Node7</title>
<polygon fill="#ffffff" stroke="#bfbfbf" points="0,-.5 0,-18.5 54.3447,-18.5 54.3447,-.5 0,-.5"/>
<text text-anchor="middle" x="27.1724" y="-6.5" font-family="Helvetica,sans-Serif" font-size="10.00" fill="#000000">iostream</text>
</g>
<!-- Node5&#45;&gt;Node7 -->
<g id="edge7" class="edge">
<title>Node5&#45;&gt;Node7</title>
<path fill="none" stroke="#191970" d="M1542.3278,-63.8982C1331.5703,-60.2977 256.6749,-41.0589 64.6857,-18.5535"/>
<polygon fill="#191970" stroke="#191970" points="64.8817,-15.0498 54.5156,-17.2393 63.9845,-21.9921 64.8817,-15.0498"/>
</g>
<!-- Node8 -->
<g id="node9" class="node">
<title>Node8</title>
<polygon fill="#ffffff" stroke="#bfbfbf" points="72.7808,-.5 72.7808,-18.5 121.564,-18.5 121.564,-.5 72.7808,-.5"/>
<text text-anchor="middle" x="97.1724" y="-6.5" font-family="Helvetica,sans-Serif" font-size="10.00" fill="#000000">istream</text>
</g>
<!-- Node5&#45;&gt;Node8 -->
<g id="edge8" class="edge">
<title>Node5&#45;&gt;Node8</title>
<path fill="none" stroke="#191970" d="M1542.5354,-63.911C1337.8215,-60.4582 314.5214,-42.2414 131.7957,-18.7413"/>
<polygon fill="#191970" stroke="#191970" points="132.2832,-15.2755 121.8896,-17.3307 131.2963,-22.2056 132.2832,-15.2755"/>
</g>
<!-- Node9 -->
<g id="node10" class="node">
<title>Node9</title>
<polygon fill="#ffffff" stroke="#bfbfbf" points="139.5024,-.5 139.5024,-18.5 188.8423,-18.5 188.8423,-.5 139.5024,-.5"/>
<text text-anchor="middle" x="164.1724" y="-6.5" font-family="Helvetica,sans-Serif" font-size="10.00" fill="#000000">fstream</text>
</g>
<!-- Node5&#45;&gt;Node9 -->
<g id="edge9" class="edge">
<title>Node5&#45;&gt;Node9</title>
<path fill="none" stroke="#191970" d="M1542.5472,-63.8531C1343.7393,-60.1744 374.3495,-41.3114 198.855,-18.7485"/>
<polygon fill="#191970" stroke="#191970" points="199.2845,-15.2744 188.8903,-17.3265 198.2955,-22.2042 199.2845,-15.2744"/>
</g>
<!-- Node10 -->
<g id="node11" class="node">
<title>Node10</title>
<polygon fill="#ffffff" stroke="#bfbfbf" points="206.5566,-.5 206.5566,-18.5 249.7881,-18.5 249.7881,-.5 206.5566,-.5"/>
<text text-anchor="middle" x="228.1724" y="-6.5" font-family="Helvetica,sans-Serif" font-size="10.00" fill="#000000">vector</text>
</g>
<!-- Node5&#45;&gt;Node10 -->
<g id="edge10" class="edge">
<title>Node5&#45;&gt;Node10</title>
<path fill="none" stroke="#191970" d="M1542.5128,-63.8502C1349.0815,-60.2495 428.5291,-42.1223 259.9572,-18.7038"/>
<polygon fill="#191970" stroke="#191970" points="260.375,-15.2268 249.9568,-17.1537 259.3027,-22.1442 260.375,-15.2268"/>
</g>
<!-- Node11 -->
<g id="node12" class="node">
<title>Node11</title>
<polygon fill="#ffffff" stroke="#bfbfbf" points="267.6626,-.5 267.6626,-18.5 318.6821,-18.5 318.6821,-.5 267.6626,-.5"/>
<text text-anchor="middle" x="293.1724" y="-6.5" font-family="Helvetica,sans-Serif" font-size="10.00" fill="#000000">iomanip</text>
</g>
<!-- Node5&#45;&gt;Node11 -->
<g id="edge11" class="edge">
<title>Node5&#45;&gt;Node11</title>
<path fill="none" stroke="#191970" d="M1542.4788,-64.3015C1366.8165,-63.159 592.3832,-56.1539 329.2929,-18.7405"/>
<polygon fill="#191970" stroke="#191970" points="329.4288,-15.2227 319.0249,-17.2246 328.4065,-22.1476 329.4288,-15.2227"/>
</g>
<!-- Node12 -->
<g id="node13" class="node">
<title>Node12</title>
<polygon fill="#ffffff" stroke="#bfbfbf" points="336.7119,-.5 336.7119,-18.5 441.6328,-18.5 441.6328,-.5 336.7119,-.5"/>
<text text-anchor="middle" x="389.1724" y="-6.5" font-family="Helvetica,sans-Serif" font-size="10.00" fill="#000000">Epetra_MpiComm.h</text>
</g>
<!-- Node5&#45;&gt;Node12 -->
<g id="edge12" class="edge">
<title>Node5&#45;&gt;Node12</title>
<path fill="none" stroke="#191970" d="M1542.4888,-63.6104C1377.8215,-59.4221 689.6188,-40.9876 451.6683,-19.0185"/>
<polygon fill="#191970" stroke="#191970" points="451.983,-15.5327 441.6964,-18.0697 451.3199,-22.5012 451.983,-15.5327"/>
</g>
<!-- Node13 -->
<g id="node14" class="node">
<title>Node13</title>
<polygon fill="#ffffff" stroke="#bfbfbf" points="459.4287,-.5 459.4287,-18.5 574.916,-18.5 574.916,-.5 459.4287,-.5"/>
<text text-anchor="middle" x="517.1724" y="-6.5" font-family="Helvetica,sans-Serif" font-size="10.00" fill="#000000">Epetra_FECrsGraph.h</text>
</g>
<!-- Node5&#45;&gt;Node13 -->
<g id="edge13" class="edge">
<title>Node5&#45;&gt;Node13</title>
<path fill="none" stroke="#191970" d="M1542.4278,-64.0914C1414.2872,-62.3681 965.8182,-54.1107 585.3419,-19.0174"/>
<polygon fill="#191970" stroke="#191970" points="585.5184,-15.5188 575.2372,-18.0775 584.87,-22.4887 585.5184,-15.5188"/>
</g>
<!-- Node14 -->
<g id="node15" class="node">
<title>Node14</title>
<polygon fill="#ffffff" stroke="#bfbfbf" points="592.7144,-.5 592.7144,-18.5 707.6304,-18.5 707.6304,-.5 592.7144,-.5"/>
<text text-anchor="middle" x="650.1724" y="-6.5" font-family="Helvetica,sans-Serif" font-size="10.00" fill="#000000">Epetra_FECrsMatrix.h</text>
</g>
<!-- Node5&#45;&gt;Node14 -->
<g id="edge14" class="edge">
<title>Node5&#45;&gt;Node14</title>
<path fill="none" stroke="#191970" d="M1542.3671,-63.767C1425.3764,-61.1275 1043.6519,-50.5854 717.8363,-19.0823"/>
<polygon fill="#191970" stroke="#191970" points="718.0207,-15.5838 707.7282,-18.0964 717.3412,-22.5507 718.0207,-15.5838"/>
</g>
<!-- Node15 -->
<g id="node16" class="node">
<title>Node15</title>
<polygon fill="#ffffff" stroke="#bfbfbf" points="725.1973,-.5 725.1973,-18.5 825.1475,-18.5 825.1475,-.5 725.1973,-.5"/>
<text text-anchor="middle" x="775.1724" y="-6.5" font-family="Helvetica,sans-Serif" font-size="10.00" fill="#000000">Epetra_FEVector.h</text>
</g>
<!-- Node5&#45;&gt;Node15 -->
<g id="edge15" class="edge">
<title>Node5&#45;&gt;Node15</title>
<path fill="none" stroke="#191970" d="M1542.4448,-63.5643C1436.3206,-60.5202 1113.5721,-49.3509 835.6221,-19.0545"/>
<polygon fill="#191970" stroke="#191970" points="835.6615,-15.5378 825.3385,-17.9225 834.8955,-22.4958 835.6615,-15.5378"/>
</g>
<!-- Node16 -->
<g id="node17" class="node">
<title>Node16</title>
<polygon fill="#ffffff" stroke="#bfbfbf" points="843.5864,-.5 843.5864,-18.5 930.7583,-18.5 930.7583,-.5 843.5864,-.5"/>
<text text-anchor="middle" x="887.1724" y="-6.5" font-family="Helvetica,sans-Serif" font-size="10.00" fill="#000000">Epetra_Vector.h</text>
</g>
<!-- Node5&#45;&gt;Node16 -->
<g id="edge16" class="edge">
<title>Node5&#45;&gt;Node16</title>
<path fill="none" stroke="#191970" d="M1542.4197,-63.282C1446.6709,-59.737 1176.3404,-47.8707 940.9117,-18.9533"/>
<polygon fill="#191970" stroke="#191970" points="941.1442,-15.4554 930.7891,-17.6966 940.2817,-22.402 941.1442,-15.4554"/>
</g>
<!-- Node17 -->
<g id="node18" class="node">
<title>Node17</title>
<polygon fill="#ffffff" stroke="#bfbfbf" points="948.7637,-.5 948.7637,-18.5 1027.5811,-18.5 1027.5811,-.5 948.7637,-.5"/>
<text text-anchor="middle" x="988.1724" y="-6.5" font-family="Helvetica,sans-Serif" font-size="10.00" fill="#000000">Epetra_Map.h</text>
</g>
<!-- Node5&#45;&gt;Node17 -->
<g id="edge17" class="edge">
<title>Node5&#45;&gt;Node17</title>
<path fill="none" stroke="#191970" d="M1542.5068,-62.8859C1457.0667,-58.7248 1233.803,-46.1089 1037.8606,-19.1012"/>
<polygon fill="#191970" stroke="#191970" points="1038.0533,-15.5942 1027.6657,-17.6793 1037.0863,-22.5271 1038.0533,-15.5942"/>
</g>
<!-- Node18 -->
<g id="node19" class="node">
<title>Node18</title>
<polygon fill="#ffffff" stroke="#bfbfbf" points="1045.6431,-.5 1045.6431,-18.5 1186.7017,-18.5 1186.7017,-.5 1045.6431,-.5"/>
<text text-anchor="middle" x="1116.1724" y="-6.5" font-family="Helvetica,sans-Serif" font-size="10.00" fill="#000000">Epetra_SerialDenseMatrix.h</text>
</g>
<!-- Node5&#45;&gt;Node18 -->
<g id="edge18" class="edge">
<title>Node5&#45;&gt;Node18</title>
<path fill="none" stroke="#191970" d="M1542.5286,-60.2828C1476.4853,-52.4653 1330.3582,-35.1506 1196.8082,-19.1943"/>
<polygon fill="#191970" stroke="#191970" points="1197.1517,-15.7105 1186.807,-17.9991 1196.321,-22.6611 1197.1517,-15.7105"/>
</g>
<!-- Node19 -->
<g id="node20" class="node">
<title>Node19</title>
<polygon fill="#ffffff" stroke="#bfbfbf" points="1204.3501,-.5 1204.3501,-18.5 1345.9946,-18.5 1345.9946,-.5 1204.3501,-.5"/>
<text text-anchor="middle" x="1275.1724" y="-6.5" font-family="Helvetica,sans-Serif" font-size="10.00" fill="#000000">Epetra_SerialDenseVector.h</text>
</g>
<!-- Node5&#45;&gt;Node19 -->
<g id="edge19" class="edge">
<title>Node5&#45;&gt;Node19</title>
<path fill="none" stroke="#191970" d="M1542.5234,-58.0291C1491.473,-48.7625 1396.8899,-31.5939 1335.0057,-20.3608"/>
<polygon fill="#191970" stroke="#191970" points="1335.4519,-16.8847 1324.9875,-18.5424 1334.2016,-23.7722 1335.4519,-16.8847"/>
</g>
<!-- Node20 -->
<g id="node21" class="node">
<title>Node20</title>
<polygon fill="#ffffff" stroke="#bfbfbf" points="1363.791,-.5 1363.791,-18.5 1516.5537,-18.5 1516.5537,-.5 1363.791,-.5"/>
<text text-anchor="middle" x="1440.1724" y="-6.5" font-family="Helvetica,sans-Serif" font-size="10.00" fill="#000000">Epetra_IntSerialDenseVector.h</text>
</g>
<!-- Node5&#45;&gt;Node20 -->
<g id="edge20" class="edge">
<title>Node5&#45;&gt;Node20</title>
<path fill="none" stroke="#191970" d="M1555.3845,-55.4179C1532.8117,-46.4215 1498.0271,-32.5581 1472.5827,-22.4172"/>
<polygon fill="#191970" stroke="#191970" points="1473.5793,-19.0467 1462.9941,-18.5956 1470.9877,-25.5493 1473.5793,-19.0467"/>
</g>
<!-- Node21 -->
<g id="node22" class="node">
<title>Node21</title>
<polygon fill="#ffffff" stroke="#bfbfbf" points="1534.3203,-.5 1534.3203,-18.5 1622.0244,-18.5 1622.0244,-.5 1534.3203,-.5"/>
<text text-anchor="middle" x="1578.1724" y="-6.5" font-family="Helvetica,sans-Serif" font-size="10.00" fill="#000000">Epetra_Import.h</text>
</g>
<!-- Node5&#45;&gt;Node21 -->
<g id="edge21" class="edge">
<title>Node5&#45;&gt;Node21</title>
<path fill="none" stroke="#191970" d="M1578.1724,-55.4179C1578.1724,-48.2164 1578.1724,-37.8962 1578.1724,-28.8632"/>
<polygon fill="#191970" stroke="#191970" points="1581.6725,-28.7794 1578.1724,-18.7795 1574.6725,-28.7795 1581.6725,-28.7794"/>
</g>
<!-- Node22 -->
<g id="node23" class="node">
<title>Node22</title>
<polygon fill="#ffffff" stroke="#bfbfbf" points="1640.0396,-.5 1640.0396,-18.5 1728.3052,-18.5 1728.3052,-.5 1640.0396,-.5"/>
<text text-anchor="middle" x="1684.1724" y="-6.5" font-family="Helvetica,sans-Serif" font-size="10.00" fill="#000000">Epetra_Export.h</text>
</g>
<!-- Node5&#45;&gt;Node22 -->
<g id="edge22" class="edge">
<title>Node5&#45;&gt;Node22</title>
<path fill="none" stroke="#191970" d="M1595.6761,-55.4179C1612.5543,-46.6603 1638.3211,-33.2907 1657.706,-23.2326"/>
<polygon fill="#191970" stroke="#191970" points="1659.3783,-26.308 1666.6426,-18.5956 1656.1543,-20.0946 1659.3783,-26.308"/>
</g>
<!-- Node23 -->
<g id="node24" class="node">
<title>Node23</title>
<polygon fill="#ffffff" stroke="#bfbfbf" points="1746.5625,-.5 1746.5625,-18.5 1827.7822,-18.5 1827.7822,-.5 1746.5625,-.5"/>
<text text-anchor="middle" x="1787.1724" y="-6.5" font-family="Helvetica,sans-Serif" font-size="10.00" fill="#000000">Epetra_Time.h</text>
</g>
<!-- Node5&#45;&gt;Node23 -->
<g id="edge23" class="edge">
<title>Node5&#45;&gt;Node23</title>
<path fill="none" stroke="#191970" d="M1612.6845,-55.4179C1648.3386,-46.0352 1704.1097,-31.3586 1742.97,-21.1322"/>
<polygon fill="#191970" stroke="#191970" points="1744.1764,-24.434 1752.9564,-18.5042 1742.3949,-17.6645 1744.1764,-24.434"/>
</g>
<!-- Node24 -->
<g id="node25" class="node">
<title>Node24</title>
<polygon fill="#ffffff" stroke="#bfbfbf" points="1845.4683,-.5 1845.4683,-18.5 1994.8765,-18.5 1994.8765,-.5 1845.4683,-.5"/>
<text text-anchor="middle" x="1920.1724" y="-6.5" font-family="Helvetica,sans-Serif" font-size="10.00" fill="#000000">ml_MultiLevelPreconditioner.h</text>
</g>
<!-- Node5&#45;&gt;Node24 -->
<g id="edge24" class="edge">
<title>Node5&#45;&gt;Node24</title>
<path fill="none" stroke="#191970" d="M1613.8045,-58.7697C1670.4692,-49.6569 1782.0288,-31.7161 1853.7479,-20.1823"/>
<polygon fill="#191970" stroke="#191970" points="1854.7117,-23.5724 1864.0291,-18.5289 1853.6002,-16.6612 1854.7117,-23.5724"/>
</g>
<!-- Node25 -->
<g id="node26" class="node">
<title>Node25</title>
<polygon fill="#ffffff" stroke="#bfbfbf" points="2013.0962,-.5 2013.0962,-18.5 2105.2485,-18.5 2105.2485,-.5 2013.0962,-.5"/>
<text text-anchor="middle" x="2059.1724" y="-6.5" font-family="Helvetica,sans-Serif" font-size="10.00" fill="#000000">ml_epetra_utils.h</text>
</g>
<!-- Node5&#45;&gt;Node25 -->
<g id="edge25" class="edge">
<title>Node5&#45;&gt;Node25</title>
<path fill="none" stroke="#191970" d="M1613.8928,-61.471C1685.574,-55.2234 1852.2639,-39.8443 2002.6534,-19.1352"/>
<polygon fill="#191970" stroke="#191970" points="2003.5693,-22.5417 2012.9928,-17.6993 2002.6063,-15.6083 2003.5693,-22.5417"/>
</g>
<!-- Node26 -->
<g id="node27" class="node">
<title>Node26</title>
<polygon fill="#ffffff" stroke="#bfbfbf" points="2123.1011,-.5 2123.1011,-18.5 2195.2437,-18.5 2195.2437,-.5 2123.1011,-.5"/>
<text text-anchor="middle" x="2159.1724" y="-6.5" font-family="Helvetica,sans-Serif" font-size="10.00" fill="#000000">ml_include.h</text>
</g>
<!-- Node5&#45;&gt;Node26 -->
<g id="edge26" class="edge">
<title>Node5&#45;&gt;Node26</title>
<path fill="none" stroke="#191970" d="M1613.7832,-62.9976C1698.5617,-59.0966 1919.1371,-47.038 2112.8151,-19.0355"/>
<polygon fill="#191970" stroke="#191970" points="2113.5047,-22.472 2122.8923,-17.5604 2112.4908,-15.5458 2113.5047,-22.472"/>
</g>
<!-- Node27 -->
<g id="node28" class="node">
<title>Node27</title>
<polygon fill="#ffffff" stroke="#bfbfbf" points="2213.5938,-.5 2213.5938,-18.5 2350.751,-18.5 2350.751,-.5 2213.5938,-.5"/>
<text text-anchor="middle" x="2282.1724" y="-6.5" font-family="Helvetica,sans-Serif" font-size="10.00" fill="#000000">EpetraExt_RowMatrixOut.h</text>
</g>
<!-- Node5&#45;&gt;Node27 -->
<g id="edge27" class="edge">
<title>Node5&#45;&gt;Node27</title>
<path fill="none" stroke="#191970" d="M1613.8673,-62.5155C1708.1872,-57.1416 1972.056,-41.2656 2203.011,-19.0681"/>
<polygon fill="#191970" stroke="#191970" points="2203.6723,-22.5206 2213.2888,-18.074 2202.9982,-15.5531 2203.6723,-22.5206"/>
</g>
<!-- Node28 -->
<g id="node29" class="node">
<title>Node28</title>
<polygon fill="#ffffff" stroke="#bfbfbf" points="2368.4731,-.5 2368.4731,-18.5 2507.8716,-18.5 2507.8716,-.5 2368.4731,-.5"/>
<text text-anchor="middle" x="2438.1724" y="-6.5" font-family="Helvetica,sans-Serif" font-size="10.00" fill="#000000">EpetraExt_MultiVectorOut.h</text>
</g>
<!-- Node5&#45;&gt;Node28 -->
<g id="edge28" class="edge">
<title>Node5&#45;&gt;Node28</title>
<path fill="none" stroke="#191970" d="M1613.6946,-63.232C1723.1133,-59.1571 2064.8917,-45.164 2358.47,-19.1049"/>
<polygon fill="#191970" stroke="#191970" points="2358.8058,-22.5889 2368.4543,-18.2123 2358.1824,-15.6167 2358.8058,-22.5889"/>
</g>
<!-- Node29 -->
<g id="node30" class="node">
<title>Node29</title>
<polygon fill="#ffffff" stroke="#bfbfbf" points="2525.9189,-.5 2525.9189,-18.5 2636.4258,-18.5 2636.4258,-.5 2525.9189,-.5"/>
<text text-anchor="middle" x="2581.1724" y="-6.5" font-family="Helvetica,sans-Serif" font-size="10.00" fill="#000000">EpetraExt_VectorIn.h</text>
</g>
<!-- Node5&#45;&gt;Node29 -->
<g id="edge29" class="edge">
<title>Node5&#45;&gt;Node29</title>
<path fill="none" stroke="#191970" d="M1614.0857,-64.0382C1737.885,-62.1766 2158.42,-53.6157 2515.6912,-19.0533"/>
<polygon fill="#191970" stroke="#191970" points="2516.0982,-22.5303 2525.7109,-18.0755 2515.4182,-15.5634 2516.0982,-22.5303"/>
</g>
<!-- Node30 -->
<g id="node31" class="node">
<title>Node30</title>
<polygon fill="#ffffff" stroke="#bfbfbf" points="2654.3623,-.5 2654.3623,-18.5 2785.9824,-18.5 2785.9824,-.5 2654.3623,-.5"/>
<text text-anchor="middle" x="2720.1724" y="-6.5" font-family="Helvetica,sans-Serif" font-size="10.00" fill="#000000">EpetraExt_MultiVectorIn.h</text>
</g>
<!-- Node5&#45;&gt;Node30 -->
<g id="edge30" class="edge">
<title>Node5&#45;&gt;Node30</title>
<path fill="none" stroke="#191970" d="M1613.7008,-64.0596C1747.396,-62.1765 2233.1122,-53.2978 2644.3498,-18.9929"/>
<polygon fill="#191970" stroke="#191970" points="2644.6834,-22.4773 2654.3551,-18.152 2644.0971,-15.5019 2644.6834,-22.4773"/>
</g>
<!-- Node5&#45;&gt;Node31 -->
<g id="edge31" class="edge">
<title>Node5&#45;&gt;Node31</title>
<path fill="none" stroke="#191970" d="M1613.9656,-64.1177C1816.4472,-61.8577 2820.732,-49.3267 3153.7376,-18.9838"/>
<polygon fill="#191970" stroke="#191970" points="3154.2397,-22.4522 3163.8697,-18.035 3153.5869,-15.4827 3154.2397,-22.4522"/>
</g>
<!-- Node32 -->
<g id="node33" class="node">
<title>Node32</title>
<polygon fill="#ffffff" stroke="#bfbfbf" points="2803.9409,-.5 2803.9409,-18.5 2864.4038,-18.5 2864.4038,-.5 2803.9409,-.5"/>
<text text-anchor="middle" x="2834.1724" y="-6.5" font-family="Helvetica,sans-Serif" font-size="10.00" fill="#000000">Amesos.h</text>
</g>
<!-- Node5&#45;&gt;Node32 -->
<g id="edge32" class="edge">
<title>Node5&#45;&gt;Node32</title>
<path fill="none" stroke="#191970" d="M1613.7706,-64.1371C1786.377,-62.2318 2537.9526,-52.2258 2793.648,-18.9048"/>
<polygon fill="#191970" stroke="#191970" points="2794.1865,-22.3639 2803.628,-17.5568 2793.2494,-15.4269 2794.1865,-22.3639"/>
</g>
<!-- Node33 -->
<g id="node34" class="node">
<title>Node33</title>
<polygon fill="#ffffff" stroke="#bfbfbf" points="2882.7192,-.5 2882.7192,-18.5 2947.6255,-18.5 2947.6255,-.5 2882.7192,-.5"/>
<text text-anchor="middle" x="2915.1724" y="-6.5" font-family="Helvetica,sans-Serif" font-size="10.00" fill="#000000">AztecOO.h</text>
</g>
<!-- Node5&#45;&gt;Node33 -->
<g id="edge33" class="edge">
<title>Node5&#45;&gt;Node33</title>
<path fill="none" stroke="#191970" d="M1613.9111,-64.1494C1793.4613,-62.2521 2598.8566,-52.0911 2871.9919,-18.8502"/>
<polygon fill="#191970" stroke="#191970" points="2872.7777,-22.279 2882.2618,-17.5565 2871.9028,-15.3339 2872.7777,-22.279"/>
</g>
<!-- Node34 -->
<g id="node35" class="node">
<title>Node34</title>
<polygon fill="#ffffff" stroke="#bfbfbf" points="2965.8647,-.5 2965.8647,-18.5 3082.48,-18.5 3082.48,-.5 2965.8647,-.5"/>
<text text-anchor="middle" x="3024.1724" y="-6.5" font-family="Helvetica,sans-Serif" font-size="10.00" fill="#000000">Amesos_BaseSolver.h</text>
</g>
<!-- Node5&#45;&gt;Node34 -->
<g id="edge34" class="edge">
<title>Node5&#45;&gt;Node34</title>
<path fill="none" stroke="#191970" d="M1613.9529,-63.8323C1800.4756,-60.2746 2663.5876,-42.8416 2955.4713,-18.9351"/>
<polygon fill="#191970" stroke="#191970" points="2955.9402,-22.4081 2965.6115,-18.082 2955.3533,-15.4328 2955.9402,-22.4081"/>
</g>
<!-- Node38 -->
<g id="node37" class="node">
<title>Node38</title>
<g id="a_node37"><a xlink:href="../../d2/d34/hyperelasticity_8hpp.html" target="_top" xlink:title="hyperelasticity.hpp">
<polygon fill="#ffffff" stroke="#000000" points="1573.1299,-170.5 1573.1299,-188.5 1671.2148,-188.5 1671.2148,-170.5 1573.1299,-170.5"/>
<text text-anchor="middle" x="1622.1724" y="-176.5" font-family="Helvetica,sans-Serif" font-size="10.00" fill="#000000">hyperelasticity.hpp</text>
</a>
</g>
</g>
<!-- Node37&#45;&gt;Node38 -->
<g id="edge36" class="edge">
<title>Node37&#45;&gt;Node38</title>
<path fill="none" stroke="#191970" d="M1917.8804,-230.4822C1853.7046,-222.5503 1760.6655,-209.8139 1680.1724,-194 1675.4556,-193.0733 1670.5472,-192.0074 1665.6709,-190.8829"/>
<polygon fill="#191970" stroke="#191970" points="1666.3181,-187.4391 1655.7784,-188.5184 1664.6908,-194.2473 1666.3181,-187.4391"/>
</g>
<!-- Node39 -->
<g id="node38" class="node">
<title>Node39</title>
<g id="a_node38"><a xlink:href="../../da/da3/non_linear_finite_element_problem_8hpp.html" target="_top" xlink:title="nonLinearFiniteElementProblem.hpp">
<polygon fill="#ffffff" stroke="#ff0000" points="1616.0127,-110.5 1616.0127,-128.5 1794.332,-128.5 1794.332,-110.5 1616.0127,-110.5"/>
<text text-anchor="middle" x="1705.1724" y="-116.5" font-family="Helvetica,sans-Serif" font-size="10.00" fill="#000000">nonLinearFiniteElementProblem.hpp</text>
</a>
</g>
</g>
<!-- Node38&#45;&gt;Node39 -->
<g id="edge37" class="edge">
<title>Node38&#45;&gt;Node39</title>
<path fill="none" stroke="#191970" d="M1634.7783,-170.3873C1647.8949,-160.9054 1668.6566,-145.897 1684.2399,-134.6319"/>
<polygon fill="#191970" stroke="#191970" points="1686.666,-137.1969 1692.7198,-128.5019 1682.5651,-131.5239 1686.666,-137.1969"/>
</g>
<!-- Node39&#45;&gt;Node5 -->
<g id="edge38" class="edge">
<title>Node39&#45;&gt;Node5</title>
<path fill="none" stroke="#191970" d="M1684.2009,-110.4179C1663.6112,-101.5011 1631.9812,-87.803 1608.6229,-77.6873"/>
<polygon fill="#191970" stroke="#191970" points="1609.7424,-74.358 1599.175,-73.5956 1606.9605,-80.7815 1609.7424,-74.358"/>
</g>
<!-- Node41&#45;&gt;Node31 -->
<g id="edge41" class="edge">
<title>Node41&#45;&gt;Node31</title>
<path fill="none" stroke="#191970" d="M2545.2023,-232.0217C2582.7268,-225.4235 2633.1528,-213.7026 2674.1724,-194 2693.323,-184.8016 2693.2929,-174.7429 2712.1724,-165 2862.8354,-87.2493 3059.3107,-40.3481 3155.2968,-20.5447"/>
<polygon fill="#191970" stroke="#191970" points="3156.005,-23.9724 3165.1034,-18.5439 3154.6056,-17.1137 3156.005,-23.9724"/>
</g>
<!-- Node41&#45;&gt;Node39 -->
<g id="edge40" class="edge">
<title>Node41&#45;&gt;Node39</title>
<path fill="none" stroke="#191970" d="M2491.9346,-230.4175C2492.7225,-214.3634 2491.7294,-181.1467 2472.1724,-165 2446.8356,-144.0815 2006.079,-128.4084 1804.4282,-122.2993"/>
<polygon fill="#191970" stroke="#191970" points="1804.5239,-118.8007 1794.4231,-121.9981 1804.3132,-125.7975 1804.5239,-118.8007"/>
</g>
<!-- Node42 -->
<g id="node40" class="node">
<title>Node42</title>
<polygon fill="#ffffff" stroke="#bfbfbf" points="2119.6626,-170.5 2119.6626,-188.5 2170.6821,-188.5 2170.6821,-170.5 2119.6626,-170.5"/>
<text text-anchor="middle" x="2145.1724" y="-176.5" font-family="Helvetica,sans-Serif" font-size="10.00" fill="#000000">Ifpack.h</text>
</g>
<!-- Node41&#45;&gt;Node42 -->
<g id="edge42" class="edge">
<title>Node41&#45;&gt;Node42</title>
<path fill="none" stroke="#191970" d="M2437.2391,-235.6803C2374.5515,-230.3107 2268.4176,-218.3291 2180.1724,-194 2178.2226,-193.4625 2176.2363,-192.8448 2174.2503,-192.1741"/>
<polygon fill="#191970" stroke="#191970" points="2175.086,-188.7491 2164.494,-188.5033 2172.6208,-195.3007 2175.086,-188.7491"/>
</g>
<!-- Node43 -->
<g id="node41" class="node">
<title>Node43</title>
<polygon fill="#ffffff" stroke="#bfbfbf" points="2188.9214,-170.5 2188.9214,-188.5 2319.4233,-188.5 2319.4233,-170.5 2188.9214,-170.5"/>
<text text-anchor="middle" x="2254.1724" y="-176.5" font-family="Helvetica,sans-Serif" font-size="10.00" fill="#000000">Ifpack_AdditiveSchwarz.h</text>
</g>
<!-- Node41&#45;&gt;Node43 -->
<g id="edge43" class="edge">
<title>Node41&#45;&gt;Node43</title>
<path fill="none" stroke="#191970" d="M2455.4345,-230.4524C2413.8382,-219.9217 2345.0673,-202.5114 2299.6862,-191.0225"/>
<polygon fill="#191970" stroke="#191970" points="2300.3661,-187.5843 2289.813,-188.5229 2298.6481,-194.3702 2300.3661,-187.5843"/>
</g>
<!-- Node44 -->
<g id="node42" class="node">
<title>Node44</title>
<polygon fill="#ffffff" stroke="#bfbfbf" points="2337.4165,-170.5 2337.4165,-188.5 2462.9282,-188.5 2462.9282,-170.5 2337.4165,-170.5"/>
<text text-anchor="middle" x="2400.1724" y="-176.5" font-family="Helvetica,sans-Serif" font-size="10.00" fill="#000000">BelosLinearProblem.hpp</text>
</g>
<!-- Node41&#45;&gt;Node44 -->
<g id="edge44" class="edge">
<title>Node41&#45;&gt;Node44</title>
<path fill="none" stroke="#191970" d="M2477.3514,-230.3873C2462.8361,-220.8168 2439.7815,-205.6159 2422.6449,-194.3171"/>
<polygon fill="#191970" stroke="#191970" points="2424.1005,-191.0845 2413.8252,-188.5019 2420.2472,-196.9285 2424.1005,-191.0845"/>
</g>
<!-- Node45 -->
<g id="node43" class="node">
<title>Node45</title>
<polygon fill="#ffffff" stroke="#bfbfbf" points="2519.1431,-170.5 2519.1431,-188.5 2665.2017,-188.5 2665.2017,-170.5 2519.1431,-170.5"/>
<text text-anchor="middle" x="2592.1724" y="-176.5" font-family="Helvetica,sans-Serif" font-size="10.00" fill="#000000">BelosBlockGmresSolMgr.hpp</text>
</g>
<!-- Node41&#45;&gt;Node45 -->
<g id="edge45" class="edge">
<title>Node41&#45;&gt;Node45</title>
<path fill="none" stroke="#191970" d="M2506.5121,-230.3873C2522.9208,-220.6395 2549.1615,-205.051 2568.2801,-193.6934"/>
<polygon fill="#191970" stroke="#191970" points="2570.2094,-196.6184 2577.0192,-188.5019 2566.6342,-190.6002 2570.2094,-196.6184"/>
</g>
<!-- Node46 -->
<g id="node44" class="node">
<title>Node46</title>
<polygon fill="#ffffff" stroke="#bfbfbf" points="1688.9634,-170.5 1688.9634,-188.5 1813.3813,-188.5 1813.3813,-170.5 1688.9634,-170.5"/>
<text text-anchor="middle" x="1751.1724" y="-176.5" font-family="Helvetica,sans-Serif" font-size="10.00" fill="#000000">BelosEpetraAdapter.hpp</text>
</g>
<!-- Node41&#45;&gt;Node46 -->
<g id="edge46" class="edge">
<title>Node41&#45;&gt;Node46</title>
<path fill="none" stroke="#191970" d="M2437.1612,-238.2706C2323.0919,-235.1382 2049.4314,-224.7939 1822.1724,-194 1815.3039,-193.0693 1808.1034,-191.8676 1801.0318,-190.5547"/>
<polygon fill="#191970" stroke="#191970" points="1801.3011,-187.0417 1790.8171,-188.5702 1799.966,-193.9132 1801.3011,-187.0417"/>
</g>
<!-- Node47 -->
<g id="node45" class="node">
<title>Node47</title>
<polygon fill="#ffffff" stroke="#bfbfbf" points="1831.46,-170.5 1831.46,-188.5 1952.8848,-188.5 1952.8848,-170.5 1831.46,-170.5"/>
<text text-anchor="middle" x="1892.1724" y="-176.5" font-family="Helvetica,sans-Serif" font-size="10.00" fill="#000000">BelosSolverFactory.hpp</text>
</g>
<!-- Node41&#45;&gt;Node47 -->
<g id="edge47" class="edge">
<title>Node41&#45;&gt;Node47</title>
<path fill="none" stroke="#191970" d="M2437.24,-236.9751C2341.2896,-232.0132 2134.7904,-219.2113 1962.1724,-194 1955.4891,-193.0239 1948.4839,-191.8075 1941.5956,-190.4971"/>
<polygon fill="#191970" stroke="#191970" points="1942.1276,-187.0346 1931.6384,-188.527 1940.7688,-193.9015 1942.1276,-187.0346"/>
</g>
<!-- Node41&#45;&gt;Node48 -->
<g id="edge48" class="edge">
<title>Node41&#45;&gt;Node48</title>
<path fill="none" stroke="#191970" d="M2539.2753,-230.4524C2596.3221,-219.7226 2691.342,-201.8505 2752.3416,-190.3773"/>
<polygon fill="#191970" stroke="#191970" points="2753.0197,-193.8112 2762.2004,-188.5229 2751.7258,-186.9318 2753.0197,-193.8112"/>
</g>
<!-- Node41&#45;&gt;Node49 -->
<g id="edge49" class="edge">
<title>Node41&#45;&gt;Node49</title>
<path fill="none" stroke="#191970" d="M2545.3119,-234.8622C2624.9996,-227.7486 2778.464,-212.9543 2908.1724,-194 2915.6555,-192.9065 2923.5137,-191.6255 2931.2521,-190.2856"/>
<polygon fill="#191970" stroke="#191970" points="2932.0794,-193.6936 2941.3145,-188.501 2930.8569,-186.8011 2932.0794,-193.6936"/>
</g>
<!-- Node41&#45;&gt;Node50 -->
<g id="edge50" class="edge">
<title>Node41&#45;&gt;Node50</title>
<path fill="none" stroke="#191970" d="M2545.2664,-237.033C2645.7068,-232.0574 2867.9683,-219.1957 3065.1651,-194.0427"/>
<polygon fill="#191970" stroke="#191970" points="3065.6596,-197.508 3075.1301,-192.7583 3064.7647,-190.5655 3065.6596,-197.508"/>
</g>
<!-- Node51 -->
<g id="node49" class="node">
<title>Node51</title>
<polygon fill="#ffffff" stroke="#bfbfbf" points="1970.9238,-165.5 1970.9238,-193.5 2101.4209,-193.5 2101.4209,-165.5 1970.9238,-165.5"/>
<text text-anchor="start" x="1978.9238" y="-181.5" font-family="Helvetica,sans-Serif" font-size="10.00" fill="#000000">Stratimikos_DefaultLinear</text>
<text text-anchor="middle" x="2036.1724" y="-171.5" font-family="Helvetica,sans-Serif" font-size="10.00" fill="#000000">SolverBuilder.hpp</text>
</g>
<!-- Node41&#45;&gt;Node51 -->
<g id="edge51" class="edge">
<title>Node41&#45;&gt;Node51</title>
<path fill="none" stroke="#191970" d="M2437.0518,-234.3212C2364.98,-227.1398 2233.3281,-213.0316 2111.3802,-194.1211"/>
<polygon fill="#191970" stroke="#191970" points="2111.9164,-190.6625 2101.4955,-192.5743 2110.8341,-197.5784 2111.9164,-190.6625"/>
</g>
</g>
</svg>
        <g id="navigator" transform="translate(0 0)" fill="#404254">
                <rect fill="#f2f5e9" fill-opacity="0.5" stroke="#606060" stroke-width=".5" x="0" y="0" width="60" height="60"/>
                <use id="zoomplus" xlink:href="#zoomPlus" x="17" y="9" onmousedown="handleZoom(evt,'in')"/>
                <use id="zoomminus" xlink:href="#zoomMin" x="42" y="9" onmousedown="handleZoom(evt,'out')"/>
                <use id="reset" xlink:href="#resetDef" x="30" y="36" onmousedown="handleReset()"/>
                <g id="arrowUp" xlink:href="#dirArrow" transform="translate(30 24)" onmousedown="handlePan(0,-1)">
                  <use xlink:href="#rim" fill="#404040">
                        <set attributeName="fill" to="#808080" begin="arrowUp.mouseover" end="arrowUp.mouseout"/>
                  </use>
                  <path fill="none" stroke="white" stroke-width="1.5" d="M0,-3.0v7 M-2.5,-0.5L0,-3.0L2.5,-0.5"/>
                </g>
                <g id="arrowRight" xlink:href="#dirArrow" transform="rotate(90) translate(36 -43)" onmousedown="handlePan(1,0)">
                  <use xlink:href="#rim" fill="#404040">
                        <set attributeName="fill" to="#808080" begin="arrowRight.mouseover" end="arrowRight.mouseout"/>
                  </use>
                  <path fill="none" stroke="white" stroke-width="1.5" d="M0,-3.0v7 M-2.5,-0.5L0,-3.0L2.5,-0.5"/>
                </g>
                <g id="arrowDown" xlink:href="#dirArrow" transform="rotate(180) translate(-30 -48)" onmousedown="handlePan(0,1)">
                  <use xlink:href="#rim" fill="#404040">
                        <set attributeName="fill" to="#808080" begin="arrowDown.mouseover" end="arrowDown.mouseout"/>
                  </use>
                  <path fill="none" stroke="white" stroke-width="1.5" d="M0,-3.0v7 M-2.5,-0.5L0,-3.0L2.5,-0.5"/>
                </g>
                <g id="arrowLeft" xlink:href="#dirArrow" transform="rotate(270) translate(-36 17)" onmousedown="handlePan(-1,0)">
                  <use xlink:href="#rim" fill="#404040">
                        <set attributeName="fill" to="#808080" begin="arrowLeft.mouseover" end="arrowLeft.mouseout"/>
                  </use>
                  <path fill="none" stroke="white" stroke-width="1.5" d="M0,-3.0v7 M-2.5,-0.5L0,-3.0L2.5,-0.5"/>
                </g>
        </g>
        <svg viewBox="0 0 15 15" width="100%" height="30px" preserveAspectRatio="xMaxYMin meet">
         <g id="arrow_out" transform="scale(0.3 0.3)">
          <a xlink:href="nrl_2linearpatchtest_2main_8cpp__incl_org.svg" target="_base">
           <rect id="button" ry="5" rx="5" y="6" x="6" height="38" width="38"
                fill="#f2f5e9" fill-opacity="0.5" stroke="#606060" stroke-width="1.0"/>
           <path id="arrow"
             d="M 11.500037,31.436501 C 11.940474,20.09759 22.043105,11.32322 32.158766,21.979434 L 37.068811,17.246167 C 37.068811,17.246167 37.088388,32 37.088388,32 L 22.160133,31.978069 C 22.160133,31.978069 26.997745,27.140456 26.997745,27.140456 C 18.528582,18.264221 13.291696,25.230495 11.500037,31.436501 z"
             style="fill:#404040;"/>
          </a>
         </g>
        </svg>
</svg>
