<?xml version="1.0" encoding="UTF-8" standalone="no"?>
<!DOCTYPE svg PUBLIC "-//W3C//DTD SVG 1.1//EN"
 "http://www.w3.org/Graphics/SVG/1.1/DTD/svg11.dtd">
<!-- Generated by graphviz version 2.40.1 (20161225.0304)
 -->
<!-- Title: Interface_arteries Pages: 1 -->
<svg width="268pt" height="223pt"
 viewBox="0.00 0.00 267.78 223.00" xmlns="http://www.w3.org/2000/svg" xmlns:xlink="http://www.w3.org/1999/xlink">
<g id="graph0" class="graph" transform="scale(1 1) rotate(0) translate(4 219)">
<title>Interface_arteries</title>
<polygon fill="#ffffff" stroke="transparent" points="-4,4 -4,-219 263.7778,-219 263.7778,4 -4,4"/>
<!-- Node3 -->
<g id="node1" class="node">
<title>Node3</title>
<polygon fill="#bfbfbf" stroke="#000000" points="46.8398,-.5 46.8398,-18.5 140.6572,-18.5 140.6572,-.5 46.8398,-.5"/>
<text text-anchor="middle" x="93.7485" y="-6.5" font-family="Helvetica,sans-Serif" font-size="10.00" fill="#000000">Interface_arteries</text>
</g>
<!-- Node4 -->
<g id="node2" class="node">
<title>Node4</title>
<g id="a_node2"><a xlink:href="../../d8/daf/classhyperelasticity__setup.html" target="_top" xlink:title="hyperelasticity_setup">
<polygon fill="#ffffff" stroke="#000000" points="39.0566,-65.5 39.0566,-83.5 148.4404,-83.5 148.4404,-65.5 39.0566,-65.5"/>
<text text-anchor="middle" x="93.7485" y="-71.5" font-family="Helvetica,sans-Serif" font-size="10.00" fill="#000000">hyperelasticity_setup</text>
</a>
</g>
</g>
<!-- Node4&#45;&gt;Node3 -->
<g id="edge1" class="edge">
<title>Node4&#45;&gt;Node3</title>
<path fill="none" stroke="#191970" d="M75.3328,-56.229C71.9911,-44.0748 73.2154,-28.6124 79.0054,-18.8821"/>
<polygon fill="#191970" stroke="#191970" points="72.1121,-57.5995 79.2136,-65.462 78.5653,-54.887 72.1121,-57.5995"/>
</g>
<!-- Node4&#45;&gt;Node3 -->
<g id="edge4" class="edge">
<title>Node4&#45;&gt;Node3</title>
<path fill="none" stroke="#191970" d="M87.5449,-55.4959C86.513,-43.4586 86.9427,-28.4178 88.8342,-18.8821"/>
<polygon fill="#191970" stroke="#191970" points="84.0848,-56.0265 88.9036,-65.462 91.0207,-55.0809 84.0848,-56.0265"/>
</g>
<!-- Node4&#45;&gt;Node3 -->
<g id="edge5" class="edge">
<title>Node4&#45;&gt;Node3</title>
<path fill="none" stroke="#191970" d="M99.9521,-55.4959C100.9841,-43.4586 100.5543,-28.4178 98.6629,-18.8821"/>
<polygon fill="#191970" stroke="#191970" points="96.4764,-55.0809 98.5935,-65.462 103.4123,-56.0265 96.4764,-55.0809"/>
</g>
<!-- Node4&#45;&gt;Node3 -->
<g id="edge6" class="edge">
<title>Node4&#45;&gt;Node3</title>
<path fill="none" stroke="#191970" d="M112.1643,-56.229C115.5059,-44.0748 114.2817,-28.6124 108.4916,-18.8821"/>
<polygon fill="#191970" stroke="#191970" points="108.9318,-54.887 108.2834,-65.462 115.3849,-57.5995 108.9318,-54.887"/>
</g>
<!-- Node5 -->
<g id="node3" class="node">
<title>Node5</title>
<g id="a_node3"><a xlink:href="../../d8/dc2/class_finite___element___problem.html" target="_top" xlink:title="Finite_Element_Problem">
<polygon fill="#ffffff" stroke="#000000" points="0,-126.5 0,-144.5 125.4971,-144.5 125.4971,-126.5 0,-126.5"/>
<text text-anchor="middle" x="62.7485" y="-132.5" font-family="Helvetica,sans-Serif" font-size="10.00" fill="#000000">Finite_Element_Problem</text>
</a>
</g>
</g>
<!-- Node5&#45;&gt;Node4 -->
<g id="edge2" class="edge">
<title>Node5&#45;&gt;Node4</title>
<path fill="none" stroke="#191970" d="M71.8609,-117.5692C77.5439,-106.3865 84.6155,-92.4715 89.1556,-83.5377"/>
<polygon fill="#191970" stroke="#191970" points="68.733,-115.9987 67.3227,-126.4992 74.9734,-119.1701 68.733,-115.9987"/>
</g>
<!-- Node6 -->
<g id="node4" class="node">
<title>Node6</title>
<g id="a_node4"><a xlink:href="../../d6/d6b/classmesh.html" target="_top" xlink:title="mesh">
<polygon fill="#ffffff" stroke="#000000" points="111.522,-196.5 111.522,-214.5 151.9751,-214.5 151.9751,-196.5 111.522,-196.5"/>
<text text-anchor="middle" x="131.7485" y="-202.5" font-family="Helvetica,sans-Serif" font-size="10.00" fill="#000000">mesh</text>
</a>
</g>
</g>
<!-- Node6&#45;&gt;Node5 -->
<g id="edge3" class="edge">
<title>Node6&#45;&gt;Node5</title>
<path fill="none" stroke="#9a32cd" stroke-dasharray="5,2" d="M115.4522,-188.9675C101.8974,-175.2163 83.0888,-156.1351 71.9915,-144.8769"/>
<polygon fill="#9a32cd" stroke="#9a32cd" points="113.2153,-191.684 122.728,-196.3487 118.2006,-186.7699 113.2153,-191.684"/>
<text text-anchor="middle" x="117.3643" y="-170" font-family="Helvetica,sans-Serif" font-size="10.00" fill="#000000"> Mesh</text>
</g>
<!-- Node8 -->
<g id="node6" class="node">
<title>Node8</title>
<g id="a_node6"><a xlink:href="../../d3/d9f/class_linear___finite___element___problem.html" target="_top" xlink:title="Linear_Finite_Element\l_Problem">
<polygon fill="#ffffff" stroke="#000000" points="143.7192,-121.5 143.7192,-149.5 259.7778,-149.5 259.7778,-121.5 143.7192,-121.5"/>
<text text-anchor="start" x="151.7192" y="-137.5" font-family="Helvetica,sans-Serif" font-size="10.00" fill="#000000">Linear_Finite_Element</text>
<text text-anchor="middle" x="201.7485" y="-127.5" font-family="Helvetica,sans-Serif" font-size="10.00" fill="#000000">_Problem</text>
</a>
</g>
</g>
<!-- Node6&#45;&gt;Node8 -->
<g id="edge9" class="edge">
<title>Node6&#45;&gt;Node8</title>
<path fill="none" stroke="#9a32cd" stroke-dasharray="5,2" d="M148.0673,-189.1813C160.0135,-177.235 176.0671,-161.1814 187.4986,-149.7499"/>
<polygon fill="#9a32cd" stroke="#9a32cd" points="145.496,-186.8027 140.8998,-196.3487 150.4458,-191.7525 145.496,-186.8027"/>
<text text-anchor="middle" x="182.3643" y="-170" font-family="Helvetica,sans-Serif" font-size="10.00" fill="#000000"> Mesh</text>
</g>
<!-- Node7 -->
<g id="node5" class="node">
<title>Node7</title>
<g id="a_node5"><a xlink:href="../../d7/d76/classlaplace.html" target="_top" xlink:title="laplace">
<polygon fill="#ffffff" stroke="#000000" points="171.9038,-65.5 171.9038,-83.5 219.5933,-83.5 219.5933,-65.5 171.9038,-65.5"/>
<text text-anchor="middle" x="195.7485" y="-71.5" font-family="Helvetica,sans-Serif" font-size="10.00" fill="#000000">laplace</text>
</a>
</g>
</g>
<!-- Node7&#45;&gt;Node3 -->
<g id="edge7" class="edge">
<title>Node7&#45;&gt;Node3</title>
<path fill="none" stroke="#9a32cd" stroke-dasharray="5,2" d="M173.1124,-60.075C153.2733,-47.4324 125.0376,-29.4391 108.1396,-18.6708"/>
<polygon fill="#9a32cd" stroke="#9a32cd" points="171.2517,-63.0395 181.5659,-65.462 175.0136,-57.1363 171.2517,-63.0395"/>
<text text-anchor="middle" x="170.6523" y="-39" font-family="Helvetica,sans-Serif" font-size="10.00" fill="#000000"> Laplace</text>
</g>
<!-- Node8&#45;&gt;Node7 -->
<g id="edge8" class="edge">
<title>Node8&#45;&gt;Node7</title>
<path fill="none" stroke="#191970" d="M199.3485,-111.1001C198.4058,-101.5157 197.3807,-91.0935 196.6663,-83.831"/>
<polygon fill="#191970" stroke="#191970" points="195.8948,-111.7427 200.3569,-121.3521 202.8612,-111.0574 195.8948,-111.7427"/>
</g>
</g>
</svg>
