<?xml version="1.0" encoding="UTF-8" standalone="no"?>
<!DOCTYPE svg PUBLIC "-//W3C//DTD SVG 1.1//EN"
 "http://www.w3.org/Graphics/SVG/1.1/DTD/svg11.dtd">
<!-- Generated by graphviz version 2.40.1 (20161225.0304)
 -->
<!-- Title: hyperelasticity_setup Pages: 1 -->
<svg width="133pt" height="204pt"
 viewBox="0.00 0.00 133.50 204.00" xmlns="http://www.w3.org/2000/svg" xmlns:xlink="http://www.w3.org/1999/xlink">
<g id="graph0" class="graph" transform="scale(1 1) rotate(0) translate(4 200)">
<title>hyperelasticity_setup</title>
<polygon fill="#ffffff" stroke="transparent" points="-4,4 -4,-200 129.4971,-200 129.4971,4 -4,4"/>
<!-- Node7 -->
<g id="node1" class="node">
<title>Node7</title>
<polygon fill="#bfbfbf" stroke="#000000" points="8.0566,-.5 8.0566,-18.5 117.4404,-18.5 117.4404,-.5 8.0566,-.5"/>
<text text-anchor="middle" x="62.7485" y="-6.5" font-family="Helvetica,sans-Serif" font-size="10.00" fill="#000000">hyperelasticity_setup</text>
</g>
<!-- Node8 -->
<g id="node2" class="node">
<title>Node8</title>
<g id="a_node2"><a xlink:href="../../d8/dc2/class_finite___element___problem.html" target="_top" xlink:title="Finite_Element_Problem">
<polygon fill="#ffffff" stroke="#000000" points="0,-56.5 0,-74.5 125.4971,-74.5 125.4971,-56.5 0,-56.5"/>
<text text-anchor="middle" x="62.7485" y="-62.5" font-family="Helvetica,sans-Serif" font-size="10.00" fill="#000000">Finite_Element_Problem</text>
</a>
</g>
</g>
<!-- Node8&#45;&gt;Node7 -->
<g id="edge1" class="edge">
<title>Node8&#45;&gt;Node7</title>
<path fill="none" stroke="#191970" d="M62.7485,-46.2065C62.7485,-36.8384 62.7485,-26.0262 62.7485,-18.5752"/>
<polygon fill="#191970" stroke="#191970" points="59.2486,-46.2527 62.7485,-56.2527 66.2486,-46.2528 59.2486,-46.2527"/>
</g>
<!-- Node9 -->
<g id="node3" class="node">
<title>Node9</title>
<g id="a_node3"><a xlink:href="../../d2/d97/class_base_class_f_e_m.html" target="_top" xlink:title="BaseClassFEM">
<polygon fill="#ffffff" stroke="#000000" points="20.2954,-112.5 20.2954,-130.5 105.2017,-130.5 105.2017,-112.5 20.2954,-112.5"/>
<text text-anchor="middle" x="62.7485" y="-118.5" font-family="Helvetica,sans-Serif" font-size="10.00" fill="#000000">BaseClassFEM</text>
</a>
</g>
</g>
<!-- Node9&#45;&gt;Node8 -->
<g id="edge2" class="edge">
<title>Node9&#45;&gt;Node8</title>
<path fill="none" stroke="#191970" d="M62.7485,-102.2065C62.7485,-92.8384 62.7485,-82.0262 62.7485,-74.5752"/>
<polygon fill="#191970" stroke="#191970" points="59.2486,-102.2527 62.7485,-112.2527 66.2486,-102.2528 59.2486,-102.2527"/>
</g>
<!-- Node10 -->
<g id="node4" class="node">
<title>Node10</title>
<g id="a_node4"><a xlink:href="../../d6/d6b/classmesh.html" target="_top" xlink:title="mesh">
<polygon fill="#ffffff" stroke="#000000" points="42.522,-177.5 42.522,-195.5 82.9751,-195.5 82.9751,-177.5 42.522,-177.5"/>
<text text-anchor="middle" x="62.7485" y="-183.5" font-family="Helvetica,sans-Serif" font-size="10.00" fill="#000000">mesh</text>
</a>
</g>
</g>
<!-- Node10&#45;&gt;Node9 -->
<g id="edge3" class="edge">
<title>Node10&#45;&gt;Node9</title>
<path fill="none" stroke="#9a32cd" stroke-dasharray="5,2" d="M62.7485,-167.1265C62.7485,-155.1522 62.7485,-140.3205 62.7485,-130.8821"/>
<polygon fill="#9a32cd" stroke="#9a32cd" points="59.2486,-167.462 62.7485,-177.462 66.2486,-167.4621 59.2486,-167.462"/>
<text text-anchor="middle" x="76.3643" y="-151" font-family="Helvetica,sans-Serif" font-size="10.00" fill="#000000"> Mesh</text>
</g>
</g>
</svg>
