<?xml version="1.0" encoding="UTF-8" standalone="no"?>
<!DOCTYPE svg PUBLIC "-//W3C//DTD SVG 1.1//EN"
 "http://www.w3.org/Graphics/SVG/1.1/DTD/svg11.dtd">
<!-- Generated by graphviz version 2.40.1 (20161225.0304)
 -->
<!-- Title: nrl/randomsearch_deterministicmodel/main.cpp Pages: 1 -->
<svg width="2466pt" height="517pt"
 viewBox="0.00 0.00 2466.44 517.00" xmlns="http://www.w3.org/2000/svg" xmlns:xlink="http://www.w3.org/1999/xlink">
<g id="graph0" class="graph" transform="scale(1 1) rotate(0) translate(4 513)">
<title>nrl/randomsearch_deterministicmodel/main.cpp</title>
<polygon fill="#ffffff" stroke="transparent" points="-4,4 -4,-513 2462.4438,-513 2462.4438,4 -4,4"/>
<!-- Node0 -->
<g id="node1" class="node">
<title>Node0</title>
<polygon fill="#bfbfbf" stroke="#000000" points="1921.3433,-480.5 1921.3433,-508.5 2104.0815,-508.5 2104.0815,-480.5 1921.3433,-480.5"/>
<text text-anchor="start" x="1929.3433" y="-496.5" font-family="Helvetica,sans-Serif" font-size="10.00" fill="#000000">nrl/randomsearch_deterministicmodel</text>
<text text-anchor="middle" x="2012.7124" y="-486.5" font-family="Helvetica,sans-Serif" font-size="10.00" fill="#000000">/main.cpp</text>
</g>
<!-- Node1 -->
<g id="node2" class="node">
<title>Node1</title>
<polygon fill="#ffffff" stroke="#bfbfbf" points="1590.2964,-420.5 1590.2964,-438.5 1699.1284,-438.5 1699.1284,-420.5 1590.2964,-420.5"/>
<text text-anchor="middle" x="1644.7124" y="-426.5" font-family="Helvetica,sans-Serif" font-size="10.00" fill="#000000">Epetra_ConfigDefs.h</text>
</g>
<!-- Node0&#45;&gt;Node1 -->
<g id="edge1" class="edge">
<title>Node0&#45;&gt;Node1</title>
<path fill="none" stroke="#191970" d="M1921.3408,-480.7424C1860.8494,-471.2852 1779.8505,-457.955 1708.7124,-444 1703.603,-442.9977 1698.2781,-441.8911 1692.9775,-440.7494"/>
<polygon fill="#191970" stroke="#191970" points="1693.3955,-437.2578 1682.8772,-438.5289 1691.8924,-444.0946 1693.3955,-437.2578"/>
</g>
<!-- Node2 -->
<g id="node3" class="node">
<title>Node2</title>
<polygon fill="#ffffff" stroke="#bfbfbf" points="1717.5254,-420.5 1717.5254,-438.5 1831.8994,-438.5 1831.8994,-420.5 1717.5254,-420.5"/>
<text text-anchor="middle" x="1774.7124" y="-426.5" font-family="Helvetica,sans-Serif" font-size="10.00" fill="#000000">Epetra_SerialComm.h</text>
</g>
<!-- Node0&#45;&gt;Node2 -->
<g id="edge2" class="edge">
<title>Node0&#45;&gt;Node2</title>
<path fill="none" stroke="#191970" d="M1961.363,-480.476C1918.4053,-468.7439 1857.8356,-452.2017 1817.4748,-441.1788"/>
<polygon fill="#191970" stroke="#191970" points="1818.2408,-437.7599 1807.672,-438.5016 1816.3965,-444.5126 1818.2408,-437.7599"/>
</g>
<!-- Node3 -->
<g id="node4" class="node">
<title>Node3</title>
<g id="a_node4"><a xlink:href="../../d7/d17/_newton___raphsonpp_8hpp.html" target="_top" xlink:title="Newton_Raphsonpp.hpp">
<polygon fill="#ffffff" stroke="#000000" points="911.6709,-355.5 911.6709,-373.5 1037.7539,-373.5 1037.7539,-355.5 911.6709,-355.5"/>
<text text-anchor="middle" x="974.7124" y="-361.5" font-family="Helvetica,sans-Serif" font-size="10.00" fill="#000000">Newton_Raphsonpp.hpp</text>
</a>
</g>
</g>
<!-- Node0&#45;&gt;Node3 -->
<g id="edge3" class="edge">
<title>Node0&#45;&gt;Node3</title>
<path fill="none" stroke="#191970" d="M1965.3376,-480.4068C1938.9994,-471.6573 1906.11,-459.1864 1878.7124,-444 1860.1309,-433.7003 1860.6324,-422.3858 1840.7124,-415 1767.4473,-387.8354 1243.8218,-371.5254 1048.1924,-366.3237"/>
<polygon fill="#191970" stroke="#191970" points="1048.0997,-362.8201 1038.0109,-366.0551 1047.9151,-369.8177 1048.0997,-362.8201"/>
</g>
<!-- Node51 -->
<g id="node41" class="node">
<title>Node51</title>
<g id="a_node41"><a xlink:href="../../dd/dae/_random_search___deterministic_model_8hpp.html" target="_top" xlink:title="RandomSearch_Deterministic\lModel.hpp">
<polygon fill="#ffffff" stroke="#000000" points="1887.2964,-415.5 1887.2964,-443.5 2036.1284,-443.5 2036.1284,-415.5 1887.2964,-415.5"/>
<text text-anchor="start" x="1895.2964" y="-431.5" font-family="Helvetica,sans-Serif" font-size="10.00" fill="#000000">RandomSearch_Deterministic</text>
<text text-anchor="middle" x="1961.7124" y="-421.5" font-family="Helvetica,sans-Serif" font-size="10.00" fill="#000000">Model.hpp</text>
</a>
</g>
</g>
<!-- Node0&#45;&gt;Node51 -->
<g id="edge44" class="edge">
<title>Node0&#45;&gt;Node51</title>
<path fill="none" stroke="#191970" d="M2001.6462,-480.396C1995.0299,-471.9634 1986.4806,-461.0673 1978.9909,-451.5216"/>
<polygon fill="#191970" stroke="#191970" points="1981.6835,-449.2834 1972.757,-443.5765 1976.1764,-453.6044 1981.6835,-449.2834"/>
</g>
<!-- Node57 -->
<g id="node47" class="node">
<title>Node57</title>
<polygon fill="#ffffff" stroke="#bfbfbf" points="1904.5156,-350.5 1904.5156,-378.5 2028.9092,-378.5 2028.9092,-350.5 1904.5156,-350.5"/>
<text text-anchor="start" x="1912.5156" y="-366.5" font-family="Helvetica,sans-Serif" font-size="10.00" fill="#000000">boost/random/mersenne</text>
<text text-anchor="middle" x="1966.7124" y="-356.5" font-family="Helvetica,sans-Serif" font-size="10.00" fill="#000000">_twister.hpp</text>
</g>
<!-- Node0&#45;&gt;Node57 -->
<g id="edge73" class="edge">
<title>Node0&#45;&gt;Node57</title>
<path fill="none" stroke="#191970" d="M2025.9305,-480.2693C2039.3487,-464.0083 2056.5833,-436.8274 2044.7124,-415 2037.4482,-401.6431 2024.9603,-391.2762 2012.0798,-383.5082"/>
<polygon fill="#191970" stroke="#191970" points="2013.5987,-380.348 2003.1591,-378.5408 2010.1931,-386.4638 2013.5987,-380.348"/>
</g>
<!-- Node58 -->
<g id="node48" class="node">
<title>Node58</title>
<polygon fill="#ffffff" stroke="#bfbfbf" points="2046.4663,-350.5 2046.4663,-378.5 2156.9585,-378.5 2156.9585,-350.5 2046.4663,-350.5"/>
<text text-anchor="start" x="2054.4663" y="-366.5" font-family="Helvetica,sans-Serif" font-size="10.00" fill="#000000">boost/random/normal</text>
<text text-anchor="middle" x="2101.7124" y="-356.5" font-family="Helvetica,sans-Serif" font-size="10.00" fill="#000000">_distribution.hpp</text>
</g>
<!-- Node0&#45;&gt;Node58 -->
<g id="edge74" class="edge">
<title>Node0&#45;&gt;Node58</title>
<path fill="none" stroke="#191970" d="M2027.7929,-480.3667C2037.6027,-470.7006 2050.2776,-457.278 2059.7124,-444 2072.2914,-426.2968 2083.6027,-404.3555 2091.3089,-388.0111"/>
<polygon fill="#191970" stroke="#191970" points="2094.6179,-389.1929 2095.6204,-378.6456 2088.2593,-386.2657 2094.6179,-389.1929"/>
</g>
<!-- Node59 -->
<g id="node49" class="node">
<title>Node59</title>
<polygon fill="#ffffff" stroke="#bfbfbf" points="2175.0771,-350.5 2175.0771,-378.5 2288.3477,-378.5 2288.3477,-350.5 2175.0771,-350.5"/>
<text text-anchor="start" x="2183.0771" y="-366.5" font-family="Helvetica,sans-Serif" font-size="10.00" fill="#000000">boost/random/uniform</text>
<text text-anchor="middle" x="2231.7124" y="-356.5" font-family="Helvetica,sans-Serif" font-size="10.00" fill="#000000">_real_distribution.hpp</text>
</g>
<!-- Node0&#45;&gt;Node59 -->
<g id="edge75" class="edge">
<title>Node0&#45;&gt;Node59</title>
<path fill="none" stroke="#191970" d="M2036.5661,-480.3402C2075.9775,-456.9454 2154.7428,-410.1897 2199.21,-383.7936"/>
<polygon fill="#191970" stroke="#191970" points="2201.0756,-386.7565 2207.8881,-378.6423 2197.5024,-380.7371 2201.0756,-386.7565"/>
</g>
<!-- Node60 -->
<g id="node50" class="node">
<title>Node60</title>
<polygon fill="#ffffff" stroke="#bfbfbf" points="2306.1265,-350.5 2306.1265,-378.5 2423.2983,-378.5 2423.2983,-350.5 2306.1265,-350.5"/>
<text text-anchor="start" x="2314.1265" y="-366.5" font-family="Helvetica,sans-Serif" font-size="10.00" fill="#000000">boost/math/special</text>
<text text-anchor="middle" x="2364.7124" y="-356.5" font-family="Helvetica,sans-Serif" font-size="10.00" fill="#000000">_functions/gamma.hpp</text>
</g>
<!-- Node0&#45;&gt;Node60 -->
<g id="edge76" class="edge">
<title>Node0&#45;&gt;Node60</title>
<path fill="none" stroke="#191970" d="M2050.717,-480.4642C2115.3208,-456.6049 2246.4025,-408.194 2317.0463,-382.104"/>
<polygon fill="#191970" stroke="#191970" points="2318.432,-385.3233 2326.6001,-378.5756 2316.0068,-378.7569 2318.432,-385.3233"/>
</g>
<!-- Node4 -->
<g id="node5" class="node">
<title>Node4</title>
<g id="a_node5"><a xlink:href="../../de/d9d/hyperelasticity__setup__pp_8hpp.html" target="_top" xlink:title="hyperelasticity_setup\l_pp.hpp">
<polygon fill="#ffffff" stroke="#000000" points="1557.0205,-285.5 1557.0205,-313.5 1666.4043,-313.5 1666.4043,-285.5 1557.0205,-285.5"/>
<text text-anchor="start" x="1565.0205" y="-301.5" font-family="Helvetica,sans-Serif" font-size="10.00" fill="#000000">hyperelasticity_setup</text>
<text text-anchor="middle" x="1611.7124" y="-291.5" font-family="Helvetica,sans-Serif" font-size="10.00" fill="#000000">_pp.hpp</text>
</a>
</g>
</g>
<!-- Node3&#45;&gt;Node4 -->
<g id="edge4" class="edge">
<title>Node3&#45;&gt;Node4</title>
<path fill="none" stroke="#191970" d="M1037.985,-360.6021C1141.5226,-353.8116 1353.4716,-338.1844 1531.7124,-314 1536.5292,-313.3464 1541.4977,-312.6063 1546.49,-311.8148"/>
<polygon fill="#191970" stroke="#191970" points="1547.4312,-315.207 1556.7298,-310.129 1546.294,-308.3 1547.4312,-315.207"/>
</g>
<!-- Node5 -->
<g id="node6" class="node">
<title>Node5</title>
<g id="a_node6"><a xlink:href="../../d2/d8b/_finite___element___problem_8hpp.html" target="_top" xlink:title="Finite_Element_Problem.hpp">
<polygon fill="#ffffff" stroke="#000000" points="1425.2324,-170.5 1425.2324,-188.5 1570.1924,-188.5 1570.1924,-170.5 1425.2324,-170.5"/>
<text text-anchor="middle" x="1497.7124" y="-176.5" font-family="Helvetica,sans-Serif" font-size="10.00" fill="#000000">Finite_Element_Problem.hpp</text>
</a>
</g>
</g>
<!-- Node3&#45;&gt;Node5 -->
<g id="edge32" class="edge">
<title>Node3&#45;&gt;Node5</title>
<path fill="none" stroke="#191970" d="M1037.7788,-363.0758C1170.345,-359.4289 1468.2384,-347.5521 1498.7124,-314 1527.3905,-282.4252 1514.634,-227.432 1504.9719,-198.5155"/>
<polygon fill="#191970" stroke="#191970" points="1508.1678,-197.0572 1501.5132,-188.813 1501.5743,-199.4077 1508.1678,-197.0572"/>
</g>
<!-- Node32 -->
<g id="node27" class="node">
<title>Node32</title>
<polygon fill="#ffffff" stroke="#bfbfbf" points="762.665,-.5 762.665,-18.5 860.7598,-18.5 860.7598,-.5 762.665,-.5"/>
<text text-anchor="middle" x="811.7124" y="-6.5" font-family="Helvetica,sans-Serif" font-size="10.00" fill="#000000">Teuchos_RCP.hpp</text>
</g>
<!-- Node3&#45;&gt;Node32 -->
<g id="edge33" class="edge">
<title>Node3&#45;&gt;Node32</title>
<path fill="none" stroke="#191970" d="M911.6071,-356.1302C883.2552,-349.2618 851.5603,-336.7587 830.7124,-314 807.6308,-288.8029 811.7124,-273.671 811.7124,-239.5 811.7124,-239.5 811.7124,-239.5 811.7124,-119.5 811.7124,-87.7718 811.7124,-50.8957 811.7124,-28.917"/>
<polygon fill="#191970" stroke="#191970" points="815.2125,-28.6266 811.7124,-18.6267 808.2125,-28.6267 815.2125,-28.6266"/>
</g>
<!-- Node41 -->
<g id="node31" class="node">
<title>Node41</title>
<polygon fill="#ffffff" stroke="#bfbfbf" points="840.2026,-290.5 840.2026,-308.5 891.2222,-308.5 891.2222,-290.5 840.2026,-290.5"/>
<text text-anchor="middle" x="865.7124" y="-296.5" font-family="Helvetica,sans-Serif" font-size="10.00" fill="#000000">Ifpack.h</text>
</g>
<!-- Node3&#45;&gt;Node41 -->
<g id="edge34" class="edge">
<title>Node3&#45;&gt;Node41</title>
<path fill="none" stroke="#191970" d="M959.5564,-355.462C941.518,-344.7052 911.1669,-326.6059 889.8777,-313.9105"/>
<polygon fill="#191970" stroke="#191970" points="891.4725,-310.7865 881.0911,-308.6708 887.8872,-316.7987 891.4725,-310.7865"/>
</g>
<!-- Node42 -->
<g id="node32" class="node">
<title>Node42</title>
<polygon fill="#ffffff" stroke="#bfbfbf" points="909.4614,-290.5 909.4614,-308.5 1039.9634,-308.5 1039.9634,-290.5 909.4614,-290.5"/>
<text text-anchor="middle" x="974.7124" y="-296.5" font-family="Helvetica,sans-Serif" font-size="10.00" fill="#000000">Ifpack_AdditiveSchwarz.h</text>
</g>
<!-- Node3&#45;&gt;Node42 -->
<g id="edge35" class="edge">
<title>Node3&#45;&gt;Node42</title>
<path fill="none" stroke="#191970" d="M974.7124,-355.462C974.7124,-346.061 974.7124,-331.0518 974.7124,-318.943"/>
<polygon fill="#191970" stroke="#191970" points="978.2125,-318.8821 974.7124,-308.8821 971.2125,-318.8822 978.2125,-318.8821"/>
</g>
<!-- Node43 -->
<g id="node33" class="node">
<title>Node43</title>
<polygon fill="#ffffff" stroke="#bfbfbf" points="1057.9565,-290.5 1057.9565,-308.5 1183.4683,-308.5 1183.4683,-290.5 1057.9565,-290.5"/>
<text text-anchor="middle" x="1120.7124" y="-296.5" font-family="Helvetica,sans-Serif" font-size="10.00" fill="#000000">BelosLinearProblem.hpp</text>
</g>
<!-- Node3&#45;&gt;Node43 -->
<g id="edge36" class="edge">
<title>Node3&#45;&gt;Node43</title>
<path fill="none" stroke="#191970" d="M995.0131,-355.462C1019.8247,-344.4158 1062.028,-325.6266 1090.619,-312.8977"/>
<polygon fill="#191970" stroke="#191970" points="1092.4015,-315.9354 1100.1135,-308.6708 1089.5544,-309.5406 1092.4015,-315.9354"/>
</g>
<!-- Node44 -->
<g id="node34" class="node">
<title>Node44</title>
<polygon fill="#ffffff" stroke="#bfbfbf" points="1201.6831,-290.5 1201.6831,-308.5 1347.7417,-308.5 1347.7417,-290.5 1201.6831,-290.5"/>
<text text-anchor="middle" x="1274.7124" y="-296.5" font-family="Helvetica,sans-Serif" font-size="10.00" fill="#000000">BelosBlockGmresSolMgr.hpp</text>
</g>
<!-- Node3&#45;&gt;Node44 -->
<g id="edge37" class="edge">
<title>Node3&#45;&gt;Node44</title>
<path fill="none" stroke="#191970" d="M1016.4261,-355.462C1070.4553,-343.7557 1164.6192,-323.3535 1223.0948,-310.6838"/>
<polygon fill="#191970" stroke="#191970" points="1223.8384,-314.104 1232.8705,-308.5658 1222.3561,-307.2627 1223.8384,-314.104"/>
</g>
<!-- Node45 -->
<g id="node35" class="node">
<title>Node45</title>
<polygon fill="#ffffff" stroke="#bfbfbf" points="1365.5034,-290.5 1365.5034,-308.5 1489.9214,-308.5 1489.9214,-290.5 1365.5034,-290.5"/>
<text text-anchor="middle" x="1427.7124" y="-296.5" font-family="Helvetica,sans-Serif" font-size="10.00" fill="#000000">BelosEpetraAdapter.hpp</text>
</g>
<!-- Node3&#45;&gt;Node45 -->
<g id="edge38" class="edge">
<title>Node3&#45;&gt;Node45</title>
<path fill="none" stroke="#191970" d="M1037.7782,-357.534C1113.6804,-348.834 1244.89,-332.7862 1356.7124,-314 1362.9004,-312.9604 1369.3721,-311.7755 1375.7822,-310.5414"/>
<polygon fill="#191970" stroke="#191970" points="1376.6206,-313.9436 1385.7548,-308.5754 1375.2666,-307.0758 1376.6206,-313.9436"/>
</g>
<!-- Node46 -->
<g id="node36" class="node">
<title>Node46</title>
<polygon fill="#ffffff" stroke="#bfbfbf" points="0,-290.5 0,-308.5 121.4248,-308.5 121.4248,-290.5 0,-290.5"/>
<text text-anchor="middle" x="60.7124" y="-296.5" font-family="Helvetica,sans-Serif" font-size="10.00" fill="#000000">BelosSolverFactory.hpp</text>
</g>
<!-- Node3&#45;&gt;Node46 -->
<g id="edge39" class="edge">
<title>Node3&#45;&gt;Node46</title>
<path fill="none" stroke="#191970" d="M911.4175,-363.8308C770.5378,-361.6603 420.6464,-352.4976 130.7124,-314 123.8517,-313.089 116.6583,-311.8869 109.6028,-310.5637"/>
<polygon fill="#191970" stroke="#191970" points="109.907,-307.0564 99.4191,-308.5581 108.5544,-313.9245 109.907,-307.0564"/>
</g>
<!-- Node47 -->
<g id="node37" class="node">
<title>Node47</title>
<polygon fill="#ffffff" stroke="#bfbfbf" points="139.8311,-290.5 139.8311,-308.5 317.5938,-308.5 317.5938,-290.5 139.8311,-290.5"/>
<text text-anchor="middle" x="228.7124" y="-296.5" font-family="Helvetica,sans-Serif" font-size="10.00" fill="#000000">Teuchos_StandardCatchMacros.hpp</text>
</g>
<!-- Node3&#45;&gt;Node47 -->
<g id="edge40" class="edge">
<title>Node3&#45;&gt;Node47</title>
<path fill="none" stroke="#191970" d="M911.5656,-361.0327C795.5144,-354.3375 540.6002,-338.1285 326.7124,-314 316.4807,-312.8458 305.675,-311.4384 295.1233,-309.9594"/>
<polygon fill="#191970" stroke="#191970" points="295.5068,-306.4787 285.1116,-308.5254 294.5143,-313.408 295.5068,-306.4787"/>
</g>
<!-- Node48 -->
<g id="node38" class="node">
<title>Node48</title>
<polygon fill="#ffffff" stroke="#bfbfbf" points="335.4541,-290.5 335.4541,-308.5 475.9707,-308.5 475.9707,-290.5 335.4541,-290.5"/>
<text text-anchor="middle" x="405.7124" y="-296.5" font-family="Helvetica,sans-Serif" font-size="10.00" fill="#000000">Teuchos_ParameterList.hpp</text>
</g>
<!-- Node3&#45;&gt;Node48 -->
<g id="edge41" class="edge">
<title>Node3&#45;&gt;Node48</title>
<path fill="none" stroke="#191970" d="M911.4768,-359.5867C817.9401,-351.9564 637.3083,-335.8328 484.7124,-314 477.226,-312.9289 469.366,-311.6608 461.6266,-310.3273"/>
<polygon fill="#191970" stroke="#191970" points="462.0203,-306.8427 451.5636,-308.5477 460.8012,-313.7357 462.0203,-306.8427"/>
</g>
<!-- Node49 -->
<g id="node39" class="node">
<title>Node49</title>
<polygon fill="#ffffff" stroke="#bfbfbf" points="493.9048,-285.5 493.9048,-313.5 635.52,-313.5 635.52,-285.5 493.9048,-285.5"/>
<text text-anchor="start" x="501.9048" y="-301.5" font-family="Helvetica,sans-Serif" font-size="10.00" fill="#000000">Teuchos_XMLParameterList</text>
<text text-anchor="middle" x="564.7124" y="-291.5" font-family="Helvetica,sans-Serif" font-size="10.00" fill="#000000">CoreHelpers.hpp</text>
</g>
<!-- Node3&#45;&gt;Node49 -->
<g id="edge42" class="edge">
<title>Node3&#45;&gt;Node49</title>
<path fill="none" stroke="#191970" d="M912.2877,-355.4685C848.0077,-346.0506 744.6752,-330.5841 645.6693,-314.1346"/>
<polygon fill="#191970" stroke="#191970" points="646.2342,-310.6805 635.7948,-312.4882 645.083,-317.5852 646.2342,-310.6805"/>
</g>
<!-- Node50 -->
<g id="node40" class="node">
<title>Node50</title>
<polygon fill="#ffffff" stroke="#bfbfbf" points="653.4639,-285.5 653.4639,-313.5 783.9609,-313.5 783.9609,-285.5 653.4639,-285.5"/>
<text text-anchor="start" x="661.4639" y="-301.5" font-family="Helvetica,sans-Serif" font-size="10.00" fill="#000000">Stratimikos_DefaultLinear</text>
<text text-anchor="middle" x="718.7124" y="-291.5" font-family="Helvetica,sans-Serif" font-size="10.00" fill="#000000">SolverBuilder.hpp</text>
</g>
<!-- Node3&#45;&gt;Node50 -->
<g id="edge43" class="edge">
<title>Node3&#45;&gt;Node50</title>
<path fill="none" stroke="#191970" d="M939.1167,-355.462C899.1435,-345.3126 833.4258,-328.6264 784.132,-316.1104"/>
<polygon fill="#191970" stroke="#191970" points="784.7454,-312.6552 774.1916,-313.5865 783.0227,-319.4399 784.7454,-312.6552"/>
</g>
<!-- Node4&#45;&gt;Node5 -->
<g id="edge5" class="edge">
<title>Node4&#45;&gt;Node5</title>
<path fill="none" stroke="#191970" d="M1598.1874,-285.2632C1576.9784,-262.9379 1535.9981,-219.8008 1513.4814,-196.0989"/>
<polygon fill="#191970" stroke="#191970" points="1515.7746,-193.4312 1506.3496,-188.5918 1510.6996,-198.2524 1515.7746,-193.4312"/>
</g>
<!-- Node39 -->
<g id="node29" class="node">
<title>Node39</title>
<g id="a_node29"><a xlink:href="../../d5/d3f/laplacepp_8hpp.html" target="_top" xlink:title="laplacepp.hpp">
<polygon fill="#ffffff" stroke="#000000" points="1583.5747,-230.5 1583.5747,-248.5 1661.8501,-248.5 1661.8501,-230.5 1583.5747,-230.5"/>
<text text-anchor="middle" x="1622.7124" y="-236.5" font-family="Helvetica,sans-Serif" font-size="10.00" fill="#000000">laplacepp.hpp</text>
</a>
</g>
</g>
<!-- Node4&#45;&gt;Node39 -->
<g id="edge29" class="edge">
<title>Node4&#45;&gt;Node39</title>
<path fill="none" stroke="#191970" d="M1614.3192,-285.2808C1615.7845,-277.2888 1617.6326,-267.2079 1619.2215,-258.5414"/>
<polygon fill="#191970" stroke="#191970" points="1622.6862,-259.0514 1621.047,-248.5842 1615.801,-257.7891 1622.6862,-259.0514"/>
</g>
<!-- Node6 -->
<g id="node7" class="node">
<title>Node6</title>
<g id="a_node7"><a xlink:href="../../d0/d02/meshpp_8hpp.html" target="_top" xlink:title="meshpp.hpp">
<polygon fill="#ffffff" stroke="#ff0000" points="1535.1929,-55.5 1535.1929,-73.5 1606.2319,-73.5 1606.2319,-55.5 1535.1929,-55.5"/>
<text text-anchor="middle" x="1570.7124" y="-61.5" font-family="Helvetica,sans-Serif" font-size="10.00" fill="#000000">meshpp.hpp</text>
</a>
</g>
</g>
<!-- Node5&#45;&gt;Node6 -->
<g id="edge6" class="edge">
<title>Node5&#45;&gt;Node6</title>
<path fill="none" stroke="#191970" d="M1498.4838,-170.244C1500.0208,-156.2172 1504.4514,-129.1821 1516.7124,-110 1524.3465,-98.0566 1536.1004,-87.6201 1546.6953,-79.7656"/>
<polygon fill="#191970" stroke="#191970" points="1549.0274,-82.4052 1555.2065,-73.7988 1545.009,-76.6734 1549.0274,-82.4052"/>
</g>
<!-- Node38 -->
<g id="node28" class="node">
<title>Node38</title>
<g id="a_node28"><a xlink:href="../../d0/d41/_base_class_f_e_m_8hpp.html" target="_top" xlink:title="BaseClassFEM.hpp">
<polygon fill="#ffffff" stroke="#000000" points="1525.5278,-110.5 1525.5278,-128.5 1629.897,-128.5 1629.897,-110.5 1525.5278,-110.5"/>
<text text-anchor="middle" x="1577.7124" y="-116.5" font-family="Helvetica,sans-Serif" font-size="10.00" fill="#000000">BaseClassFEM.hpp</text>
</a>
</g>
</g>
<!-- Node5&#45;&gt;Node38 -->
<g id="edge27" class="edge">
<title>Node5&#45;&gt;Node38</title>
<path fill="none" stroke="#191970" d="M1509.8627,-170.3873C1522.5052,-160.9054 1542.5165,-145.897 1557.5365,-134.6319"/>
<polygon fill="#191970" stroke="#191970" points="1559.8099,-137.3019 1565.7099,-128.5019 1555.6099,-131.7019 1559.8099,-137.3019"/>
</g>
<!-- Node7 -->
<g id="node8" class="node">
<title>Node7</title>
<polygon fill="#ffffff" stroke="#bfbfbf" points="2412.981,-.5 2412.981,-18.5 2458.4438,-18.5 2458.4438,-.5 2412.981,-.5"/>
<text text-anchor="middle" x="2435.7124" y="-6.5" font-family="Helvetica,sans-Serif" font-size="10.00" fill="#000000">stdio.h</text>
</g>
<!-- Node6&#45;&gt;Node7 -->
<g id="edge7" class="edge">
<title>Node6&#45;&gt;Node7</title>
<path fill="none" stroke="#191970" d="M1606.235,-63.71C1741.9105,-60.5185 2228.1555,-47.4431 2402.7821,-18.9103"/>
<polygon fill="#191970" stroke="#191970" points="2403.5764,-22.3253 2412.8417,-17.1867 2402.3942,-15.4258 2403.5764,-22.3253"/>
</g>
<!-- Node8 -->
<g id="node9" class="node">
<title>Node8</title>
<polygon fill="#ffffff" stroke="#bfbfbf" points="1978.54,-.5 1978.54,-18.5 2032.8848,-18.5 2032.8848,-.5 1978.54,-.5"/>
<text text-anchor="middle" x="2005.7124" y="-6.5" font-family="Helvetica,sans-Serif" font-size="10.00" fill="#000000">iostream</text>
</g>
<!-- Node6&#45;&gt;Node8 -->
<g id="edge8" class="edge">
<title>Node6&#45;&gt;Node8</title>
<path fill="none" stroke="#191970" d="M1606.4665,-62.1633C1674.9573,-57.3132 1829.4876,-44.5672 1968.3206,-19.0343"/>
<polygon fill="#191970" stroke="#191970" points="1969.1001,-22.4493 1978.288,-17.1737 1967.8156,-15.5682 1969.1001,-22.4493"/>
</g>
<!-- Node9 -->
<g id="node10" class="node">
<title>Node9</title>
<polygon fill="#ffffff" stroke="#bfbfbf" points="2279.3208,-.5 2279.3208,-18.5 2328.104,-18.5 2328.104,-.5 2279.3208,-.5"/>
<text text-anchor="middle" x="2303.7124" y="-6.5" font-family="Helvetica,sans-Serif" font-size="10.00" fill="#000000">istream</text>
</g>
<!-- Node6&#45;&gt;Node9 -->
<g id="edge9" class="edge">
<title>Node6&#45;&gt;Node9</title>
<path fill="none" stroke="#191970" d="M1606.2896,-63.2017C1727.0858,-58.6389 2121.7388,-42.4267 2268.8248,-18.9426"/>
<polygon fill="#191970" stroke="#191970" points="2269.6968,-22.3453 2278.98,-17.2392 2268.5387,-15.4417 2269.6968,-22.3453"/>
</g>
<!-- Node10 -->
<g id="node11" class="node">
<title>Node10</title>
<polygon fill="#ffffff" stroke="#bfbfbf" points="2346.0425,-.5 2346.0425,-18.5 2395.3823,-18.5 2395.3823,-.5 2346.0425,-.5"/>
<text text-anchor="middle" x="2370.7124" y="-6.5" font-family="Helvetica,sans-Serif" font-size="10.00" fill="#000000">fstream</text>
</g>
<!-- Node6&#45;&gt;Node10 -->
<g id="edge10" class="edge">
<title>Node6&#45;&gt;Node10</title>
<path fill="none" stroke="#191970" d="M1606.4161,-63.3897C1734.8598,-59.2417 2173.9024,-43.6952 2335.7166,-18.7294"/>
<polygon fill="#191970" stroke="#191970" points="2336.655,-22.1232 2345.9679,-17.0713 2335.5373,-15.213 2336.655,-22.1232"/>
</g>
<!-- Node11 -->
<g id="node12" class="node">
<title>Node11</title>
<polygon fill="#ffffff" stroke="#bfbfbf" points="1917.0967,-.5 1917.0967,-18.5 1960.3281,-18.5 1960.3281,-.5 1917.0967,-.5"/>
<text text-anchor="middle" x="1938.7124" y="-6.5" font-family="Helvetica,sans-Serif" font-size="10.00" fill="#000000">vector</text>
</g>
<!-- Node6&#45;&gt;Node11 -->
<g id="edge11" class="edge">
<title>Node6&#45;&gt;Node11</title>
<path fill="none" stroke="#191970" d="M1606.5947,-61.722C1666.96,-56.6068 1792.7016,-44.0565 1906.921,-19.1082"/>
<polygon fill="#191970" stroke="#191970" points="1907.8746,-22.4818 1916.8768,-16.8951 1906.3555,-15.6486 1907.8746,-22.4818"/>
</g>
<!-- Node12 -->
<g id="node13" class="node">
<title>Node12</title>
<polygon fill="#ffffff" stroke="#bfbfbf" points="2210.2026,-.5 2210.2026,-18.5 2261.2222,-18.5 2261.2222,-.5 2210.2026,-.5"/>
<text text-anchor="middle" x="2235.7124" y="-6.5" font-family="Helvetica,sans-Serif" font-size="10.00" fill="#000000">iomanip</text>
</g>
<!-- Node6&#45;&gt;Node12 -->
<g id="edge12" class="edge">
<title>Node6&#45;&gt;Node12</title>
<path fill="none" stroke="#191970" d="M1606.3373,-62.8731C1718.9998,-57.5839 2067.4772,-40.0836 2199.9413,-18.9618"/>
<polygon fill="#191970" stroke="#191970" points="2200.5614,-22.4068 2209.8464,-17.3038 2199.4057,-15.5028 2200.5614,-22.4068"/>
</g>
<!-- Node13 -->
<g id="node14" class="node">
<title>Node13</title>
<polygon fill="#ffffff" stroke="#bfbfbf" points="1251.252,-.5 1251.252,-18.5 1356.1729,-18.5 1356.1729,-.5 1251.252,-.5"/>
<text text-anchor="middle" x="1303.7124" y="-6.5" font-family="Helvetica,sans-Serif" font-size="10.00" fill="#000000">Epetra_MpiComm.h</text>
</g>
<!-- Node6&#45;&gt;Node13 -->
<g id="edge13" class="edge">
<title>Node6&#45;&gt;Node13</title>
<path fill="none" stroke="#191970" d="M1534.9806,-57.1395C1489.4585,-47.7623 1410.363,-31.4692 1357.5286,-20.5857"/>
<polygon fill="#191970" stroke="#191970" points="1358.1571,-17.1418 1347.6565,-18.5522 1356.7447,-23.9978 1358.1571,-17.1418"/>
</g>
<!-- Node14 -->
<g id="node15" class="node">
<title>Node14</title>
<polygon fill="#ffffff" stroke="#bfbfbf" points="1373.9688,-.5 1373.9688,-18.5 1489.4561,-18.5 1489.4561,-.5 1373.9688,-.5"/>
<text text-anchor="middle" x="1431.7124" y="-6.5" font-family="Helvetica,sans-Serif" font-size="10.00" fill="#000000">Epetra_FECrsGraph.h</text>
</g>
<!-- Node6&#45;&gt;Node14 -->
<g id="edge14" class="edge">
<title>Node6&#45;&gt;Node14</title>
<path fill="none" stroke="#191970" d="M1547.7594,-55.4179C1524.9224,-46.3817 1489.6761,-32.4353 1464.0179,-22.2828"/>
<polygon fill="#191970" stroke="#191970" points="1465.2858,-19.0205 1454.6995,-18.5956 1462.7103,-25.5295 1465.2858,-19.0205"/>
</g>
<!-- Node15 -->
<g id="node16" class="node">
<title>Node15</title>
<polygon fill="#ffffff" stroke="#bfbfbf" points="1507.2544,-.5 1507.2544,-18.5 1622.1704,-18.5 1622.1704,-.5 1507.2544,-.5"/>
<text text-anchor="middle" x="1564.7124" y="-6.5" font-family="Helvetica,sans-Serif" font-size="10.00" fill="#000000">Epetra_FECrsMatrix.h</text>
</g>
<!-- Node6&#45;&gt;Node15 -->
<g id="edge15" class="edge">
<title>Node6&#45;&gt;Node15</title>
<path fill="none" stroke="#191970" d="M1569.7216,-55.4179C1568.936,-48.2164 1567.8102,-37.8962 1566.8247,-28.8632"/>
<polygon fill="#191970" stroke="#191970" points="1570.2886,-28.3409 1565.7247,-18.7795 1563.3299,-29.1001 1570.2886,-28.3409"/>
</g>
<!-- Node16 -->
<g id="node17" class="node">
<title>Node16</title>
<polygon fill="#ffffff" stroke="#bfbfbf" points="1639.7373,-.5 1639.7373,-18.5 1739.6875,-18.5 1739.6875,-.5 1639.7373,-.5"/>
<text text-anchor="middle" x="1689.7124" y="-6.5" font-family="Helvetica,sans-Serif" font-size="10.00" fill="#000000">Epetra_FEVector.h</text>
</g>
<!-- Node6&#45;&gt;Node16 -->
<g id="edge16" class="edge">
<title>Node6&#45;&gt;Node16</title>
<path fill="none" stroke="#191970" d="M1590.3628,-55.4179C1609.5694,-46.5409 1639.0287,-32.9253 1660.8864,-22.823"/>
<polygon fill="#191970" stroke="#191970" points="1662.4238,-25.9682 1670.0328,-18.5956 1659.487,-19.614 1662.4238,-25.9682"/>
</g>
<!-- Node17 -->
<g id="node18" class="node">
<title>Node17</title>
<polygon fill="#ffffff" stroke="#bfbfbf" points="284.1265,-.5 284.1265,-18.5 371.2983,-18.5 371.2983,-.5 284.1265,-.5"/>
<text text-anchor="middle" x="327.7124" y="-6.5" font-family="Helvetica,sans-Serif" font-size="10.00" fill="#000000">Epetra_Vector.h</text>
</g>
<!-- Node6&#45;&gt;Node17 -->
<g id="edge17" class="edge">
<title>Node6&#45;&gt;Node17</title>
<path fill="none" stroke="#191970" d="M1535.0853,-63.8074C1364.9449,-60.3987 633.3711,-44.5746 381.5099,-18.8856"/>
<polygon fill="#191970" stroke="#191970" points="381.6274,-15.3787 371.3157,-17.8116 380.894,-22.3402 381.6274,-15.3787"/>
</g>
<!-- Node18 -->
<g id="node19" class="node">
<title>Node18</title>
<polygon fill="#ffffff" stroke="#bfbfbf" points="389.3037,-.5 389.3037,-18.5 468.1211,-18.5 468.1211,-.5 389.3037,-.5"/>
<text text-anchor="middle" x="428.7124" y="-6.5" font-family="Helvetica,sans-Serif" font-size="10.00" fill="#000000">Epetra_Map.h</text>
</g>
<!-- Node6&#45;&gt;Node18 -->
<g id="edge18" class="edge">
<title>Node6&#45;&gt;Node18</title>
<path fill="none" stroke="#191970" d="M1535.0308,-63.735C1373.5476,-60.1639 709.4275,-44.2801 478.2341,-18.827"/>
<polygon fill="#191970" stroke="#191970" points="478.5452,-15.3399 468.2133,-17.6855 477.7529,-22.2949 478.5452,-15.3399"/>
</g>
<!-- Node19 -->
<g id="node20" class="node">
<title>Node19</title>
<polygon fill="#ffffff" stroke="#bfbfbf" points="2051.1831,-.5 2051.1831,-18.5 2192.2417,-18.5 2192.2417,-.5 2051.1831,-.5"/>
<text text-anchor="middle" x="2121.7124" y="-6.5" font-family="Helvetica,sans-Serif" font-size="10.00" fill="#000000">Epetra_SerialDenseMatrix.h</text>
</g>
<!-- Node6&#45;&gt;Node19 -->
<g id="edge19" class="edge">
<title>Node6&#45;&gt;Node19</title>
<path fill="none" stroke="#191970" d="M1606.4869,-61.3135C1683.6733,-54.3803 1871.834,-37.1677 2040.9677,-19.0592"/>
<polygon fill="#191970" stroke="#191970" points="2041.4827,-22.5241 2051.0517,-17.976 2040.735,-15.5641 2041.4827,-22.5241"/>
</g>
<!-- Node20 -->
<g id="node21" class="node">
<title>Node20</title>
<polygon fill="#ffffff" stroke="#bfbfbf" points="1757.8901,-.5 1757.8901,-18.5 1899.5347,-18.5 1899.5347,-.5 1757.8901,-.5"/>
<text text-anchor="middle" x="1828.7124" y="-6.5" font-family="Helvetica,sans-Serif" font-size="10.00" fill="#000000">Epetra_SerialDenseVector.h</text>
</g>
<!-- Node6&#45;&gt;Node20 -->
<g id="edge20" class="edge">
<title>Node6&#45;&gt;Node20</title>
<path fill="none" stroke="#191970" d="M1606.3153,-56.9102C1650.3776,-47.5171 1725.7737,-31.4443 1776.4117,-20.6494"/>
<polygon fill="#191970" stroke="#191970" points="1777.142,-24.0724 1786.1925,-18.5643 1775.6825,-17.2262 1777.142,-24.0724"/>
</g>
<!-- Node21 -->
<g id="node22" class="node">
<title>Node21</title>
<polygon fill="#ffffff" stroke="#bfbfbf" points="486.3311,-.5 486.3311,-18.5 639.0938,-18.5 639.0938,-.5 486.3311,-.5"/>
<text text-anchor="middle" x="562.7124" y="-6.5" font-family="Helvetica,sans-Serif" font-size="10.00" fill="#000000">Epetra_IntSerialDenseVector.h</text>
</g>
<!-- Node6&#45;&gt;Node21 -->
<g id="edge21" class="edge">
<title>Node6&#45;&gt;Node21</title>
<path fill="none" stroke="#191970" d="M1535.0246,-63.538C1412.9579,-60.0791 1000.6948,-47.0105 649.2643,-19.0787"/>
<polygon fill="#191970" stroke="#191970" points="649.3939,-15.578 639.1465,-18.269 648.8354,-22.5557 649.3939,-15.578"/>
</g>
<!-- Node22 -->
<g id="node23" class="node">
<title>Node22</title>
<polygon fill="#ffffff" stroke="#bfbfbf" points="656.8604,-.5 656.8604,-18.5 744.5645,-18.5 744.5645,-.5 656.8604,-.5"/>
<text text-anchor="middle" x="700.7124" y="-6.5" font-family="Helvetica,sans-Serif" font-size="10.00" fill="#000000">Epetra_Import.h</text>
</g>
<!-- Node6&#45;&gt;Node22 -->
<g id="edge22" class="edge">
<title>Node6&#45;&gt;Node22</title>
<path fill="none" stroke="#191970" d="M1535.1443,-64.0631C1422.3476,-62.3515 1062.4474,-54.3862 754.62,-18.9571"/>
<polygon fill="#191970" stroke="#191970" points="754.9482,-15.4717 744.6108,-17.7932 754.1396,-22.4249 754.9482,-15.4717"/>
</g>
<!-- Node23 -->
<g id="node24" class="node">
<title>Node23</title>
<polygon fill="#ffffff" stroke="#bfbfbf" points="878.5796,-.5 878.5796,-18.5 966.8452,-18.5 966.8452,-.5 878.5796,-.5"/>
<text text-anchor="middle" x="922.7124" y="-6.5" font-family="Helvetica,sans-Serif" font-size="10.00" fill="#000000">Epetra_Export.h</text>
</g>
<!-- Node6&#45;&gt;Node23 -->
<g id="edge23" class="edge">
<title>Node6&#45;&gt;Node23</title>
<path fill="none" stroke="#191970" d="M1535.0406,-63.0309C1443.8419,-59.0068 1194.5992,-46.324 976.9211,-19.0349"/>
<polygon fill="#191970" stroke="#191970" points="977.268,-15.551 966.9074,-17.7663 976.3882,-22.4955 977.268,-15.551"/>
</g>
<!-- Node24 -->
<g id="node25" class="node">
<title>Node24</title>
<polygon fill="#ffffff" stroke="#bfbfbf" points="985.1025,-.5 985.1025,-18.5 1066.3223,-18.5 1066.3223,-.5 985.1025,-.5"/>
<text text-anchor="middle" x="1025.7124" y="-6.5" font-family="Helvetica,sans-Serif" font-size="10.00" fill="#000000">Epetra_Time.h</text>
</g>
<!-- Node6&#45;&gt;Node24 -->
<g id="edge24" class="edge">
<title>Node6&#45;&gt;Node24</title>
<path fill="none" stroke="#191970" d="M1535.0856,-62.4591C1454.9025,-57.6029 1253.9971,-43.9681 1076.6028,-19.1571"/>
<polygon fill="#191970" stroke="#191970" points="1076.9595,-15.6728 1066.5679,-17.738 1075.9792,-22.6039 1076.9595,-15.6728"/>
</g>
<!-- Node25 -->
<g id="node26" class="node">
<title>Node25</title>
<polygon fill="#ffffff" stroke="#bfbfbf" points="1084.0083,-.5 1084.0083,-18.5 1233.4165,-18.5 1233.4165,-.5 1084.0083,-.5"/>
<text text-anchor="middle" x="1158.7124" y="-6.5" font-family="Helvetica,sans-Serif" font-size="10.00" fill="#000000">ml_MultiLevelPreconditioner.h</text>
</g>
<!-- Node6&#45;&gt;Node25 -->
<g id="edge25" class="edge">
<title>Node6&#45;&gt;Node25</title>
<path fill="none" stroke="#191970" d="M1534.8708,-59.7153C1468.6094,-50.8697 1325.5769,-31.7756 1236.2271,-19.8478"/>
<polygon fill="#191970" stroke="#191970" points="1236.5185,-16.3558 1226.1432,-18.5017 1235.5922,-23.2942 1236.5185,-16.3558"/>
</g>
<!-- Node6&#45;&gt;Node32 -->
<g id="edge26" class="edge">
<title>Node6&#45;&gt;Node32</title>
<path fill="none" stroke="#191970" d="M1534.8561,-63.4081C1432.7145,-60.0353 1131.3501,-48.2626 871.0482,-19.049"/>
<polygon fill="#191970" stroke="#191970" points="871.3583,-15.5618 861.0278,-17.9134 870.57,-22.5173 871.3583,-15.5618"/>
</g>
<!-- Node38&#45;&gt;Node6 -->
<g id="edge28" class="edge">
<title>Node38&#45;&gt;Node6</title>
<path fill="none" stroke="#191970" d="M1576.5565,-110.4179C1575.6399,-103.2164 1574.3265,-92.8962 1573.1768,-83.8632"/>
<polygon fill="#191970" stroke="#191970" points="1576.628,-83.2575 1571.8934,-73.7795 1569.6841,-84.1414 1576.628,-83.2575"/>
</g>
<!-- Node40 -->
<g id="node30" class="node">
<title>Node40</title>
<g id="a_node30"><a xlink:href="../../d9/dea/_linear___finite___element___problem_8hpp.html" target="_top" xlink:title="Linear_Finite_Element\l_Problem.hpp">
<polygon fill="#ffffff" stroke="#000000" points="1588.6831,-165.5 1588.6831,-193.5 1704.7417,-193.5 1704.7417,-165.5 1588.6831,-165.5"/>
<text text-anchor="start" x="1596.6831" y="-181.5" font-family="Helvetica,sans-Serif" font-size="10.00" fill="#000000">Linear_Finite_Element</text>
<text text-anchor="middle" x="1646.7124" y="-171.5" font-family="Helvetica,sans-Serif" font-size="10.00" fill="#000000">_Problem.hpp</text>
</a>
</g>
</g>
<!-- Node39&#45;&gt;Node40 -->
<g id="edge30" class="edge">
<title>Node39&#45;&gt;Node40</title>
<path fill="none" stroke="#191970" d="M1626.3575,-230.3873C1629.2383,-223.1853 1633.3944,-212.795 1637.201,-203.2784"/>
<polygon fill="#191970" stroke="#191970" points="1640.509,-204.4323 1640.9733,-193.8477 1634.0097,-201.8325 1640.509,-204.4323"/>
</g>
<!-- Node40&#45;&gt;Node38 -->
<g id="edge31" class="edge">
<title>Node40&#45;&gt;Node38</title>
<path fill="none" stroke="#191970" d="M1630.3604,-165.2808C1619.944,-156.2232 1606.4423,-144.4825 1595.7198,-135.1586"/>
<polygon fill="#191970" stroke="#191970" points="1598.0019,-132.5049 1588.1592,-128.5842 1593.4087,-137.7871 1598.0019,-132.5049"/>
</g>
<!-- Node51&#45;&gt;Node3 -->
<g id="edge50" class="edge">
<title>Node51&#45;&gt;Node3</title>
<path fill="none" stroke="#191970" d="M1886.8951,-416.612C1882.4412,-416.019 1878.0218,-415.4747 1873.7124,-415 1568.2185,-381.3492 1201.7128,-369.5999 1048.096,-365.9595"/>
<polygon fill="#191970" stroke="#191970" points="1047.9263,-362.4547 1037.8476,-365.7212 1047.7635,-369.4528 1047.9263,-362.4547"/>
</g>
<!-- Node52 -->
<g id="node42" class="node">
<title>Node52</title>
<polygon fill="#ffffff" stroke="#bfbfbf" points="1840.4268,-355.5 1840.4268,-373.5 1886.998,-373.5 1886.998,-355.5 1840.4268,-355.5"/>
<text text-anchor="middle" x="1863.7124" y="-361.5" font-family="Helvetica,sans-Serif" font-size="10.00" fill="#000000">math.h</text>
</g>
<!-- Node51&#45;&gt;Node52 -->
<g id="edge45" class="edge">
<title>Node51&#45;&gt;Node52</title>
<path fill="none" stroke="#191970" d="M1940.4479,-415.396C1924.2985,-404.6846 1902.1559,-389.9983 1885.8061,-379.154"/>
<polygon fill="#191970" stroke="#191970" points="1887.6618,-376.185 1877.3937,-373.5743 1883.7927,-382.0185 1887.6618,-376.185"/>
</g>
<!-- Node53 -->
<g id="node43" class="node">
<title>Node53</title>
<g id="a_node43"><a xlink:href="../../df/dc0/_compressible___mooney___transverse___isotropic_8hpp.html" target="_top" xlink:title="Compressible_Mooney\l_Transverse_Isotropic.hpp">
<polygon fill="#ffffff" stroke="#000000" points="1650.6987,-350.5 1650.6987,-378.5 1784.7261,-378.5 1784.7261,-350.5 1650.6987,-350.5"/>
<text text-anchor="start" x="1658.6987" y="-366.5" font-family="Helvetica,sans-Serif" font-size="10.00" fill="#000000">Compressible_Mooney</text>
<text text-anchor="middle" x="1717.7124" y="-356.5" font-family="Helvetica,sans-Serif" font-size="10.00" fill="#000000">_Transverse_Isotropic.hpp</text>
</a>
</g>
</g>
<!-- Node51&#45;&gt;Node53 -->
<g id="edge46" class="edge">
<title>Node51&#45;&gt;Node53</title>
<path fill="none" stroke="#191970" d="M1909.0684,-415.476C1871.3563,-405.4297 1820.4043,-391.8564 1780.5587,-381.2418"/>
<polygon fill="#191970" stroke="#191970" points="1781.2466,-377.8031 1770.6826,-378.6109 1779.4446,-384.5672 1781.2466,-377.8031"/>
</g>
<!-- Node55 -->
<g id="node45" class="node">
<title>Node55</title>
<g id="a_node45"><a xlink:href="../../d5/d75/distributenrldata_8hpp.html" target="_top" xlink:title="distributenrldata.hpp">
<polygon fill="#ffffff" stroke="#000000" points="2068.4048,-110.5 2068.4048,-128.5 2175.02,-128.5 2175.02,-110.5 2068.4048,-110.5"/>
<text text-anchor="middle" x="2121.7124" y="-116.5" font-family="Helvetica,sans-Serif" font-size="10.00" fill="#000000">distributenrldata.hpp</text>
</a>
</g>
</g>
<!-- Node51&#45;&gt;Node55 -->
<g id="edge51" class="edge">
<title>Node51&#45;&gt;Node55</title>
<path fill="none" stroke="#191970" d="M1890.4152,-415.3854C1868.866,-407.8746 1846.9147,-396.423 1831.7124,-379 1807.8281,-351.6267 1812.7124,-335.8284 1812.7124,-299.5 1812.7124,-299.5 1812.7124,-299.5 1812.7124,-239.5 1812.7124,-186.9424 1970.0134,-148.2955 2060.1507,-130.4642"/>
<polygon fill="#191970" stroke="#191970" points="2060.8465,-133.8945 2069.9927,-128.547 2059.508,-127.0237 2060.8465,-133.8945"/>
</g>
<!-- Node51&#45;&gt;Node57 -->
<g id="edge69" class="edge">
<title>Node51&#45;&gt;Node57</title>
<path fill="none" stroke="#191970" d="M1962.7973,-415.396C1963.4001,-407.5597 1964.1666,-397.5958 1964.8612,-388.5653"/>
<polygon fill="#191970" stroke="#191970" points="1968.3522,-388.8155 1965.6296,-378.5765 1961.3728,-388.2786 1968.3522,-388.8155"/>
</g>
<!-- Node51&#45;&gt;Node58 -->
<g id="edge70" class="edge">
<title>Node51&#45;&gt;Node58</title>
<path fill="none" stroke="#191970" d="M1992.0903,-415.396C2012.6377,-405.8561 2039.9764,-393.1632 2062.2116,-382.8397"/>
<polygon fill="#191970" stroke="#191970" points="2063.7976,-385.9622 2071.3938,-378.5765 2060.8498,-379.6131 2063.7976,-385.9622"/>
</g>
<!-- Node51&#45;&gt;Node59 -->
<g id="edge71" class="edge">
<title>Node51&#45;&gt;Node59</title>
<path fill="none" stroke="#191970" d="M2019.966,-415.476C2062.6268,-405.2058 2120.5986,-391.2496 2165.099,-380.5366"/>
<polygon fill="#191970" stroke="#191970" points="2166.0491,-383.9079 2174.9521,-378.1645 2164.4107,-377.1023 2166.0491,-383.9079"/>
</g>
<!-- Node51&#45;&gt;Node60 -->
<g id="edge72" class="edge">
<title>Node51&#45;&gt;Node60</title>
<path fill="none" stroke="#191970" d="M2036.3405,-419.6777C2102.2479,-410.6839 2201.1688,-396.4102 2295.89,-379.2742"/>
<polygon fill="#191970" stroke="#191970" points="2296.7187,-382.6809 2305.9289,-377.4443 2295.4634,-375.7944 2296.7187,-382.6809"/>
</g>
<!-- Node53&#45;&gt;Node4 -->
<g id="edge49" class="edge">
<title>Node53&#45;&gt;Node4</title>
<path fill="none" stroke="#191970" d="M1694.712,-350.396C1679.7103,-341.1968 1659.9274,-329.0658 1643.4383,-318.9546"/>
<polygon fill="#191970" stroke="#191970" points="1645.0225,-315.8204 1634.6679,-313.5765 1641.3632,-321.7878 1645.0225,-315.8204"/>
</g>
<!-- Node54 -->
<g id="node44" class="node">
<title>Node54</title>
<g id="a_node44"><a xlink:href="../../de/d49/tensor__calculus_8hpp.html" target="_top" xlink:title="tensor_calculus.hpp">
<polygon fill="#ffffff" stroke="#000000" points="1680.2397,-230.5 1680.2397,-248.5 1785.1851,-248.5 1785.1851,-230.5 1680.2397,-230.5"/>
<text text-anchor="middle" x="1732.7124" y="-236.5" font-family="Helvetica,sans-Serif" font-size="10.00" fill="#000000">tensor_calculus.hpp</text>
</a>
</g>
</g>
<!-- Node53&#45;&gt;Node54 -->
<g id="edge47" class="edge">
<title>Node53&#45;&gt;Node54</title>
<path fill="none" stroke="#191970" d="M1719.4331,-350.1609C1722.1291,-327.6941 1727.3532,-284.1603 1730.3832,-258.9097"/>
<polygon fill="#191970" stroke="#191970" points="1733.8876,-259.0818 1731.6041,-248.736 1726.9375,-258.2477 1733.8876,-259.0818"/>
</g>
<!-- Node54&#45;&gt;Node6 -->
<g id="edge48" class="edge">
<title>Node54&#45;&gt;Node6</title>
<path fill="none" stroke="#191970" d="M1732.3437,-230.4509C1731.34,-215.5807 1727.6053,-185.5763 1713.7124,-165 1685.7397,-123.5705 1634.5515,-93.8441 1601.6102,-77.9148"/>
<polygon fill="#191970" stroke="#191970" points="1602.9677,-74.6856 1592.4283,-73.6029 1599.9922,-81.0217 1602.9677,-74.6856"/>
</g>
<!-- Node55&#45;&gt;Node6 -->
<g id="edge68" class="edge">
<title>Node55&#45;&gt;Node6</title>
<path fill="none" stroke="#191970" d="M2068.3796,-114.1764C1960.5194,-103.41 1718.1331,-79.2153 1616.7092,-69.0913"/>
<polygon fill="#191970" stroke="#191970" points="1616.7813,-65.5812 1606.4831,-68.0706 1616.086,-72.5466 1616.7813,-65.5812"/>
</g>
<!-- Node55&#45;&gt;Node7 -->
<g id="edge52" class="edge">
<title>Node55&#45;&gt;Node7</title>
<path fill="none" stroke="#191970" d="M2150.0838,-110.446C2178.0469,-101.4517 2221.9488,-87.1413 2259.7124,-74 2309.9252,-56.5265 2367.728,-35.0865 2402.9833,-21.8591"/>
<polygon fill="#191970" stroke="#191970" points="2404.6063,-24.9882 2412.7356,-18.1937 2402.1435,-18.4357 2404.6063,-24.9882"/>
</g>
<!-- Node55&#45;&gt;Node8 -->
<g id="edge53" class="edge">
<title>Node55&#45;&gt;Node8</title>
<path fill="none" stroke="#191970" d="M2110.7594,-110.3061C2100.0977,-101.2663 2083.5278,-86.9756 2069.7124,-74 2052.9531,-58.2596 2034.532,-39.5351 2021.7737,-26.3265"/>
<polygon fill="#191970" stroke="#191970" points="2024.0803,-23.6755 2014.6272,-18.8912 2019.0334,-28.5263 2024.0803,-23.6755"/>
</g>
<!-- Node55&#45;&gt;Node9 -->
<g id="edge54" class="edge">
<title>Node55&#45;&gt;Node9</title>
<path fill="none" stroke="#191970" d="M2136.6062,-110.4982C2168.0683,-91.4827 2241.5334,-47.0807 2279.7133,-24.005"/>
<polygon fill="#191970" stroke="#191970" points="2281.8649,-26.7942 2288.6128,-18.6261 2278.2441,-20.8034 2281.8649,-26.7942"/>
</g>
<!-- Node55&#45;&gt;Node10 -->
<g id="edge55" class="edge">
<title>Node55&#45;&gt;Node10</title>
<path fill="none" stroke="#191970" d="M2143.0624,-110.3389C2164.3017,-101.204 2197.8053,-86.7366 2226.7124,-74 2266.5763,-56.4358 2312.4799,-35.8041 2341.5373,-22.6935"/>
<polygon fill="#191970" stroke="#191970" points="2343.0388,-25.8558 2350.7127,-18.5509 2340.1583,-19.4759 2343.0388,-25.8558"/>
</g>
<!-- Node55&#45;&gt;Node11 -->
<g id="edge56" class="edge">
<title>Node55&#45;&gt;Node11</title>
<path fill="none" stroke="#191970" d="M2106.7367,-110.4982C2075.1018,-91.4827 2001.2331,-47.0807 1962.8434,-24.005"/>
<polygon fill="#191970" stroke="#191970" points="1964.269,-20.7783 1953.895,-18.6261 1960.6626,-26.7778 1964.269,-20.7783"/>
</g>
<!-- Node55&#45;&gt;Node12 -->
<g id="edge57" class="edge">
<title>Node55&#45;&gt;Node12</title>
<path fill="none" stroke="#191970" d="M2132.7108,-110.3541C2143.4063,-101.3499 2160.0004,-87.0848 2173.7124,-74 2190.0904,-58.3712 2207.9161,-39.6312 2220.2323,-26.3887"/>
<polygon fill="#191970" stroke="#191970" points="2222.9086,-28.6497 2227.1266,-18.9307 2217.7684,-23.8979 2222.9086,-28.6497"/>
</g>
<!-- Node56 -->
<g id="node46" class="node">
<title>Node56</title>
<g id="a_node46"><a xlink:href="../../d2/d81/readnrldata_8hpp.html" target="_top" xlink:title="readnrldata.hpp">
<polygon fill="#ffffff" stroke="#000000" points="2078.6855,-55.5 2078.6855,-73.5 2164.7393,-73.5 2164.7393,-55.5 2078.6855,-55.5"/>
<text text-anchor="middle" x="2121.7124" y="-61.5" font-family="Helvetica,sans-Serif" font-size="10.00" fill="#000000">readnrldata.hpp</text>
</a>
</g>
</g>
<!-- Node55&#45;&gt;Node56 -->
<g id="edge58" class="edge">
<title>Node55&#45;&gt;Node56</title>
<path fill="none" stroke="#191970" d="M2121.7124,-110.4179C2121.7124,-103.2164 2121.7124,-92.8962 2121.7124,-83.8632"/>
<polygon fill="#191970" stroke="#191970" points="2125.2125,-83.7794 2121.7124,-73.7795 2118.2125,-83.7795 2125.2125,-83.7794"/>
</g>
<!-- Node56&#45;&gt;Node7 -->
<g id="edge59" class="edge">
<title>Node56&#45;&gt;Node7</title>
<path fill="none" stroke="#191970" d="M2164.7404,-59.4599C2218.5598,-52.7432 2313.6326,-39.5201 2403.0372,-19.1652"/>
<polygon fill="#191970" stroke="#191970" points="2403.8306,-22.5742 2412.7853,-16.9118 2402.254,-15.7541 2403.8306,-22.5742"/>
</g>
<!-- Node56&#45;&gt;Node8 -->
<g id="edge60" class="edge">
<title>Node56&#45;&gt;Node8</title>
<path fill="none" stroke="#191970" d="M2102.5574,-55.4179C2083.919,-46.5807 2055.3757,-33.0473 2034.0988,-22.9591"/>
<polygon fill="#191970" stroke="#191970" points="2035.4312,-19.7174 2024.8959,-18.5956 2032.4322,-26.0424 2035.4312,-19.7174"/>
</g>
<!-- Node56&#45;&gt;Node9 -->
<g id="edge61" class="edge">
<title>Node56&#45;&gt;Node9</title>
<path fill="none" stroke="#191970" d="M2151.766,-55.4179C2184.0647,-45.6573 2235.3212,-30.1677 2269.2358,-19.9187"/>
<polygon fill="#191970" stroke="#191970" points="2270.6042,-23.1616 2279.1641,-16.9184 2268.5792,-16.4609 2270.6042,-23.1616"/>
</g>
<!-- Node56&#45;&gt;Node10 -->
<g id="edge62" class="edge">
<title>Node56&#45;&gt;Node10</title>
<path fill="none" stroke="#191970" d="M2165.1365,-56.1574C2206.5674,-48.0088 2270.9402,-34.8585 2335.8764,-19.0859"/>
<polygon fill="#191970" stroke="#191970" points="2336.9979,-22.4147 2345.8783,-16.6364 2335.3327,-15.6157 2336.9979,-22.4147"/>
</g>
<!-- Node56&#45;&gt;Node11 -->
<g id="edge63" class="edge">
<title>Node56&#45;&gt;Node11</title>
<path fill="none" stroke="#191970" d="M2091.4137,-55.4935C2062.6412,-46.9268 2017.9261,-33.5775 1970.0094,-19.0764"/>
<polygon fill="#191970" stroke="#191970" points="1970.9724,-15.7111 1960.3871,-16.1619 1968.9431,-22.4105 1970.9724,-15.7111"/>
</g>
<!-- Node56&#45;&gt;Node12 -->
<g id="edge64" class="edge">
<title>Node56&#45;&gt;Node12</title>
<path fill="none" stroke="#191970" d="M2140.5372,-55.4179C2158.8542,-46.5807 2186.9053,-33.0473 2207.8154,-22.9591"/>
<polygon fill="#191970" stroke="#191970" points="2209.3739,-26.0933 2216.8597,-18.5956 2206.3322,-19.7887 2209.3739,-26.0933"/>
</g>
<!-- Node56&#45;&gt;Node19 -->
<g id="edge67" class="edge">
<title>Node56&#45;&gt;Node19</title>
<path fill="none" stroke="#191970" d="M2121.7124,-55.4179C2121.7124,-48.2164 2121.7124,-37.8962 2121.7124,-28.8632"/>
<polygon fill="#191970" stroke="#191970" points="2125.2125,-28.7794 2121.7124,-18.7795 2118.2125,-28.7795 2125.2125,-28.7794"/>
</g>
<!-- Node56&#45;&gt;Node20 -->
<g id="edge66" class="edge">
<title>Node56&#45;&gt;Node20</title>
<path fill="none" stroke="#191970" d="M2078.4792,-56.3846C2027.7221,-46.8568 1943.316,-31.0126 1886.8571,-20.4145"/>
<polygon fill="#191970" stroke="#191970" points="1887.4771,-16.9699 1877.003,-18.5648 1886.1856,-23.8497 1887.4771,-16.9699"/>
</g>
<!-- Node56&#45;&gt;Node32 -->
<g id="edge65" class="edge">
<title>Node56&#45;&gt;Node32</title>
<path fill="none" stroke="#191970" d="M2078.6385,-63.6646C1889.6674,-59.889 1132.187,-43.5709 871.2089,-18.9989"/>
<polygon fill="#191970" stroke="#191970" points="871.3089,-15.4922 861.0175,-18.0097 870.6325,-22.4595 871.3089,-15.4922"/>
</g>
</g>
</svg>
