<?xml version="1.0" encoding="UTF-8" standalone="no"?>
<!DOCTYPE svg PUBLIC "-//W3C//DTD SVG 1.1//EN"
 "http://www.w3.org/Graphics/SVG/1.1/DTD/svg11.dtd">
<!-- Generated by graphviz version 2.40.1 (20161225.0304)
 -->
<!-- Title: src/hyperelasticity.hpp Pages: 1 -->
<!--zoomable 307 -->
<svg id="main" version="1.1" xmlns="http://www.w3.org/2000/svg" xmlns:xlink="http://www.w3.org/1999/xlink" xml:space="preserve" onload="init(evt)">
<style type="text/css"><![CDATA[
.edge:hover path { stroke: red; }
.edge:hover polygon { stroke: red; fill: red; }
]]></style>
<script type="text/javascript"><![CDATA[
var edges = document.getElementsByTagName('g');
if (edges && edges.length) {
  for (var i=0;i<edges.length;i++) {
    if (edges[i].id.substr(0,4)=='edge') {
      edges[i].setAttribute('class','edge');
    }
  }
}
]]></script>
        <defs>
                <circle id="rim" cx="0" cy="0" r="7"/>
                <circle id="rim2" cx="0" cy="0" r="3.5"/>
                <g id="zoomPlus">
                        <use xlink:href="#rim" fill="#404040">
                                <set attributeName="fill" to="#808080" begin="zoomplus.mouseover" end="zoomplus.mouseout"/>
                        </use>
                        <path d="M-4,0h8M0,-4v8" fill="none" stroke="white" stroke-width="1.5" pointer-events="none"/>
                </g>
                <g id="zoomMin">
                        <use xlink:href="#rim" fill="#404040">
                                <set attributeName="fill" to="#808080" begin="zoomminus.mouseover" end="zoomminus.mouseout"/>
                        </use>
                        <path d="M-4,0h8" fill="none" stroke="white" stroke-width="1.5" pointer-events="none"/>
                </g>
                <g id="dirArrow">
                        <path fill="none" stroke="white" stroke-width="1.5" d="M0,-3.0v7 M-2.5,-0.5L0,-3.0L2.5,-0.5"/>
                </g>
               <g id="resetDef">
                       <use xlink:href="#rim2" fill="#404040">
                               <set attributeName="fill" to="#808080" begin="reset.mouseover" end="reset.mouseout"/>
                       </use>
               </g>
        </defs>

<script type="text/javascript">
var viewWidth = 2509;
var viewHeight = 307;
var sectionId = 'dynsection-1';
</script>
<script xlink:href="../../svgpan.js"/>
<svg id="graph" class="graph">
<g id="viewport">
<title>src/hyperelasticity.hpp</title>
<polygon fill="#ffffff" stroke="transparent" points="-4,4 -4,-303 2504.6055,-303 2504.6055,4 -4,4"/>
<!-- Node35 -->
<g id="node1" class="node">
<title>Node35</title>
<polygon fill="#bfbfbf" stroke="#000000" points="1743.8169,-280.5 1743.8169,-298.5 1858.0103,-298.5 1858.0103,-280.5 1743.8169,-280.5"/>
<text text-anchor="middle" x="1800.9136" y="-286.5" font-family="Helvetica,sans-Serif" font-size="10.00" fill="#000000">src/hyperelasticity.hpp</text>
</g>
<!-- Node36 -->
<g id="node2" class="node">
<title>Node36</title>
<g id="a_node2"><a xlink:href="../../da/d5c/compressible_hyperelasticity_8hpp.html" target="_top" xlink:title="src/compressibleHyperelasticity.hpp">
<polygon fill="#ffffff" stroke="#000000" points="726.5313,-220.5 726.5313,-238.5 901.2959,-238.5 901.2959,-220.5 726.5313,-220.5"/>
<text text-anchor="middle" x="813.9136" y="-226.5" font-family="Helvetica,sans-Serif" font-size="10.00" fill="#000000">src/compressibleHyperelasticity.hpp</text>
</a>
</g>
</g>
<!-- Node35&#45;&gt;Node36 -->
<g id="edge1" class="edge">
<title>Node35&#45;&gt;Node36</title>
<path fill="none" stroke="#191970" d="M1733.5369,-285.4042C1559.5934,-274.8301 1095.5326,-246.6197 901.3069,-234.8127"/>
<polygon fill="#191970" stroke="#191970" points="1733.3881,-288.9015 1743.5821,-286.0148 1733.8129,-281.9144 1733.3881,-288.9015"/>
</g>
<!-- Node59 -->
<g id="node25" class="node">
<title>Node59</title>
<g id="a_node25"><a xlink:href="../../dc/de0/nearly_incompressible_hyperelasticity_8hpp.html" target="_top" xlink:title="src/nearlyIncompressible\lHyperelasticity.hpp">
<polygon fill="#ffffff" stroke="#000000" points="1737.6157,-215.5 1737.6157,-243.5 1864.2114,-243.5 1864.2114,-215.5 1737.6157,-215.5"/>
<text text-anchor="start" x="1745.6157" y="-231.5" font-family="Helvetica,sans-Serif" font-size="10.00" fill="#000000">src/nearlyIncompressible</text>
<text text-anchor="middle" x="1800.9136" y="-221.5" font-family="Helvetica,sans-Serif" font-size="10.00" fill="#000000">Hyperelasticity.hpp</text>
</a>
</g>
</g>
<!-- Node35&#45;&gt;Node59 -->
<g id="edge24" class="edge">
<title>Node35&#45;&gt;Node59</title>
<path fill="none" stroke="#191970" d="M1800.9136,-270.1865C1800.9136,-261.6283 1800.9136,-251.7354 1800.9136,-243.8477"/>
<polygon fill="#191970" stroke="#191970" points="1797.4137,-270.3873 1800.9136,-280.3873 1804.4137,-270.3873 1797.4137,-270.3873"/>
</g>
<!-- Node72 -->
<g id="node38" class="node">
<title>Node72</title>
<g id="a_node38"><a xlink:href="../../d1/dc9/hyperelasticity_8cpp.html" target="_top" xlink:title="src/hyperelasticity.cpp">
<polygon fill="#ffffff" stroke="#000000" points="1882.0977,-220.5 1882.0977,-238.5 1995.7295,-238.5 1995.7295,-220.5 1882.0977,-220.5"/>
<text text-anchor="middle" x="1938.9136" y="-226.5" font-family="Helvetica,sans-Serif" font-size="10.00" fill="#000000">src/hyperelasticity.cpp</text>
</a>
</g>
</g>
<!-- Node35&#45;&gt;Node72 -->
<g id="edge37" class="edge">
<title>Node35&#45;&gt;Node72</title>
<path fill="none" stroke="#191970" d="M1831.3861,-276.2511C1857.7583,-264.7849 1895.1817,-248.5139 1918.2093,-238.5019"/>
<polygon fill="#191970" stroke="#191970" points="1829.648,-273.1902 1821.8728,-280.3873 1832.4391,-279.6097 1829.648,-273.1902"/>
</g>
<!-- Node37 -->
<g id="node3" class="node">
<title>Node37</title>
<g id="a_node3"><a xlink:href="../../de/d4a/rubberblock_8hpp.html" target="_top" xlink:title="examples/rubberblock\l/rubberblock.hpp">
<polygon fill="#ffffff" stroke="#000000" points="22,-145.5 22,-173.5 135.8271,-173.5 135.8271,-145.5 22,-145.5"/>
<text text-anchor="start" x="30" y="-161.5" font-family="Helvetica,sans-Serif" font-size="10.00" fill="#000000">examples/rubberblock</text>
<text text-anchor="middle" x="78.9136" y="-151.5" font-family="Helvetica,sans-Serif" font-size="10.00" fill="#000000">/rubberblock.hpp</text>
</a>
</g>
</g>
<!-- Node36&#45;&gt;Node37 -->
<g id="edge2" class="edge">
<title>Node36&#45;&gt;Node37</title>
<path fill="none" stroke="#191970" d="M715.9704,-222.1664C600.3907,-213.2392 402.47,-197.0967 232.9136,-179 200.7567,-175.5679 164.909,-171.0687 135.8963,-167.257"/>
<polygon fill="#191970" stroke="#191970" points="715.968,-225.6764 726.2073,-222.9548 716.5056,-218.6971 715.968,-225.6764"/>
</g>
<!-- Node39 -->
<g id="node5" class="node">
<title>Node39</title>
<g id="a_node5"><a xlink:href="../../dd/dc1/compressible_hyperelasticity__linear_patch_test_8hpp.html" target="_top" xlink:title="nrl/linearpatchtest\l/compressibleHyperelasticity\l_linearPatchTest.hpp">
<polygon fill="#ffffff" stroke="#000000" points="241.5591,-140.5 241.5591,-178.5 384.2681,-178.5 384.2681,-140.5 241.5591,-140.5"/>
<text text-anchor="start" x="249.5591" y="-166.5" font-family="Helvetica,sans-Serif" font-size="10.00" fill="#000000">nrl/linearpatchtest</text>
<text text-anchor="start" x="249.5591" y="-156.5" font-family="Helvetica,sans-Serif" font-size="10.00" fill="#000000">/compressibleHyperelasticity</text>
<text text-anchor="middle" x="312.9136" y="-146.5" font-family="Helvetica,sans-Serif" font-size="10.00" fill="#000000">_linearPatchTest.hpp</text>
</a>
</g>
</g>
<!-- Node36&#45;&gt;Node39 -->
<g id="edge4" class="edge">
<title>Node36&#45;&gt;Node39</title>
<path fill="none" stroke="#191970" d="M732.9379,-219.196C656.5438,-209.3465 538.8525,-193.8409 436.9136,-179 419.8772,-176.5197 401.547,-173.7133 384.3437,-171.0182"/>
<polygon fill="#191970" stroke="#191970" points="732.6078,-222.6823 742.9728,-220.4879 733.5016,-215.7396 732.6078,-222.6823"/>
</g>
<!-- Node41 -->
<g id="node7" class="node">
<title>Node41</title>
<g id="a_node7"><a xlink:href="../../da/dcd/nrl_2manufactured__solution_2manufactured_solution_8hpp.html" target="_top" xlink:title="nrl/manufactured_solution\l/manufacturedSolution.hpp">
<polygon fill="#ffffff" stroke="#000000" points="446.1504,-145.5 446.1504,-173.5 581.6768,-173.5 581.6768,-145.5 446.1504,-145.5"/>
<text text-anchor="start" x="454.1504" y="-161.5" font-family="Helvetica,sans-Serif" font-size="10.00" fill="#000000">nrl/manufactured_solution</text>
<text text-anchor="middle" x="513.9136" y="-151.5" font-family="Helvetica,sans-Serif" font-size="10.00" fill="#000000">/manufacturedSolution.hpp</text>
</a>
</g>
</g>
<!-- Node36&#45;&gt;Node41 -->
<g id="edge6" class="edge">
<title>Node36&#45;&gt;Node41</title>
<path fill="none" stroke="#191970" d="M765.31,-218.1592C713.1878,-205.9973 630.3528,-186.6692 574.1355,-173.5518"/>
<polygon fill="#191970" stroke="#191970" points="764.7742,-221.6281 775.308,-220.492 766.3649,-214.8112 764.7742,-221.6281"/>
</g>
<!-- Node43 -->
<g id="node9" class="node">
<title>Node43</title>
<g id="a_node9"><a xlink:href="../../dd/d2e/compressible___mooney___transverse___isotropic_8hpp.html" target="_top" xlink:title="src/compressible_Mooney\l_Transverse_Isotropic.hpp">
<polygon fill="#ffffff" stroke="#000000" points="621.8999,-145.5 621.8999,-173.5 755.9272,-173.5 755.9272,-145.5 621.8999,-145.5"/>
<text text-anchor="start" x="629.8999" y="-161.5" font-family="Helvetica,sans-Serif" font-size="10.00" fill="#000000">src/compressible_Mooney</text>
<text text-anchor="middle" x="688.9136" y="-151.5" font-family="Helvetica,sans-Serif" font-size="10.00" fill="#000000">_Transverse_Isotropic.hpp</text>
</a>
</g>
</g>
<!-- Node36&#45;&gt;Node43 -->
<g id="edge8" class="edge">
<title>Node36&#45;&gt;Node43</title>
<path fill="none" stroke="#191970" d="M788.863,-215.4717C767.1106,-203.2903 735.7707,-185.74 714.006,-173.5518"/>
<polygon fill="#191970" stroke="#191970" points="787.3927,-218.6597 797.8279,-220.492 790.813,-212.5522 787.3927,-218.6597"/>
</g>
<!-- Node48 -->
<g id="node14" class="node">
<title>Node48</title>
<g id="a_node14"><a xlink:href="../../d4/df3/compressible___mooney___transverse___isotropic___random___field_8hpp.html" target="_top" xlink:title="src/compressible_Mooney\l_Transverse_Isotropic\l_Random_Field.hpp">
<polygon fill="#ffffff" stroke="#000000" points="836.835,-140.5 836.835,-178.5 968.9922,-178.5 968.9922,-140.5 836.835,-140.5"/>
<text text-anchor="start" x="844.835" y="-166.5" font-family="Helvetica,sans-Serif" font-size="10.00" fill="#000000">src/compressible_Mooney</text>
<text text-anchor="start" x="844.835" y="-156.5" font-family="Helvetica,sans-Serif" font-size="10.00" fill="#000000">_Transverse_Isotropic</text>
<text text-anchor="middle" x="902.9136" y="-146.5" font-family="Helvetica,sans-Serif" font-size="10.00" fill="#000000">_Random_Field.hpp</text>
</a>
</g>
</g>
<!-- Node36&#45;&gt;Node48 -->
<g id="edge13" class="edge">
<title>Node36&#45;&gt;Node48</title>
<path fill="none" stroke="#191970" d="M833.5484,-214.0568C846.7941,-203.6389 864.3685,-189.8163 878.513,-178.6914"/>
<polygon fill="#191970" stroke="#191970" points="831.2452,-211.4155 825.5488,-220.3487 835.5727,-216.9176 831.2452,-211.4155"/>
</g>
<!-- Node56 -->
<g id="node22" class="node">
<title>Node56</title>
<g id="a_node22"><a xlink:href="../../d8/db8/compressible_hyperelasticity_8cpp.html" target="_top" xlink:title="src/compressibleHyperelasticity.cpp">
<polygon fill="#ffffff" stroke="#000000" points="986.812,-150.5 986.812,-168.5 1161.0151,-168.5 1161.0151,-150.5 986.812,-150.5"/>
<text text-anchor="middle" x="1073.9136" y="-156.5" font-family="Helvetica,sans-Serif" font-size="10.00" fill="#000000">src/compressibleHyperelasticity.cpp</text>
</a>
</g>
</g>
<!-- Node36&#45;&gt;Node56 -->
<g id="edge21" class="edge">
<title>Node36&#45;&gt;Node56</title>
<path fill="none" stroke="#191970" d="M857.1927,-217.8479C908.6226,-204.0014 993.344,-181.1918 1040.172,-168.5843"/>
<polygon fill="#191970" stroke="#191970" points="856.118,-214.5126 847.3718,-220.492 857.9378,-221.2719 856.118,-214.5126"/>
</g>
<!-- Node57 -->
<g id="node23" class="node">
<title>Node57</title>
<g id="a_node23"><a xlink:href="../../df/da1/_stochastic_homogenization_8hpp.html" target="_top" xlink:title="uqnonlinhom/StochasticHomogenization.hpp">
<polygon fill="#ffffff" stroke="#000000" points="1215.9609,-150.5 1215.9609,-168.5 1429.8662,-168.5 1429.8662,-150.5 1215.9609,-150.5"/>
<text text-anchor="middle" x="1322.9136" y="-156.5" font-family="Helvetica,sans-Serif" font-size="10.00" fill="#000000">uqnonlinhom/StochasticHomogenization.hpp</text>
</a>
</g>
</g>
<!-- Node36&#45;&gt;Node57 -->
<g id="edge22" class="edge">
<title>Node36&#45;&gt;Node57</title>
<path fill="none" stroke="#191970" d="M889.4111,-219.1172C989.0442,-205.4152 1162.8171,-181.5172 1257.2615,-168.5288"/>
<polygon fill="#191970" stroke="#191970" points="888.8443,-215.6622 879.4144,-220.492 889.798,-222.5969 888.8443,-215.6622"/>
</g>
<!-- Node38 -->
<g id="node4" class="node">
<title>Node38</title>
<g id="a_node4"><a xlink:href="../../d4/d7f/examples_2rubberblock_2main_8cpp.html" target="_top" xlink:title="examples/rubberblock\l/main.cpp">
<polygon fill="#ffffff" stroke="#000000" points="0,-70.5 0,-98.5 113.8271,-98.5 113.8271,-70.5 0,-70.5"/>
<text text-anchor="start" x="8" y="-86.5" font-family="Helvetica,sans-Serif" font-size="10.00" fill="#000000">examples/rubberblock</text>
<text text-anchor="middle" x="56.9136" y="-76.5" font-family="Helvetica,sans-Serif" font-size="10.00" fill="#000000">/main.cpp</text>
</a>
</g>
</g>
<!-- Node37&#45;&gt;Node38 -->
<g id="edge3" class="edge">
<title>Node37&#45;&gt;Node38</title>
<path fill="none" stroke="#191970" d="M71.9554,-135.7791C68.3624,-123.5301 64.1011,-109.0029 61.0331,-98.5437"/>
<polygon fill="#191970" stroke="#191970" points="68.6022,-136.7826 74.7755,-145.3931 75.3192,-134.8122 68.6022,-136.7826"/>
</g>
<!-- Node40 -->
<g id="node6" class="node">
<title>Node40</title>
<g id="a_node6"><a xlink:href="../../da/dce/nrl_2linearpatchtest_2main_8cpp.html" target="_top" xlink:title="nrl/linearpatchtest\l/main.cpp">
<polygon fill="#ffffff" stroke="#000000" points="131.4482,-70.5 131.4482,-98.5 226.3789,-98.5 226.3789,-70.5 131.4482,-70.5"/>
<text text-anchor="start" x="139.4482" y="-86.5" font-family="Helvetica,sans-Serif" font-size="10.00" fill="#000000">nrl/linearpatchtest</text>
<text text-anchor="middle" x="178.9136" y="-76.5" font-family="Helvetica,sans-Serif" font-size="10.00" fill="#000000">/main.cpp</text>
</a>
</g>
</g>
<!-- Node39&#45;&gt;Node40 -->
<g id="edge5" class="edge">
<title>Node39&#45;&gt;Node40</title>
<path fill="none" stroke="#191970" d="M270.0224,-135.4937C248.2924,-123.3314 222.6584,-108.984 204.1253,-98.6111"/>
<polygon fill="#191970" stroke="#191970" points="268.3174,-138.5503 278.753,-140.3803 271.7363,-132.442 268.3174,-138.5503"/>
</g>
<!-- Node42 -->
<g id="node8" class="node">
<title>Node42</title>
<g id="a_node8"><a xlink:href="../../d4/db6/nrl_2manufactured__solution_2main_8cpp.html" target="_top" xlink:title="nrl/manufactured_solution\l/main.cpp">
<polygon fill="#ffffff" stroke="#000000" points="244.3794,-70.5 244.3794,-98.5 375.4478,-98.5 375.4478,-70.5 244.3794,-70.5"/>
<text text-anchor="start" x="252.3794" y="-86.5" font-family="Helvetica,sans-Serif" font-size="10.00" fill="#000000">nrl/manufactured_solution</text>
<text text-anchor="middle" x="309.9136" y="-76.5" font-family="Helvetica,sans-Serif" font-size="10.00" fill="#000000">/main.cpp</text>
</a>
</g>
</g>
<!-- Node41&#45;&gt;Node42 -->
<g id="edge7" class="edge">
<title>Node41&#45;&gt;Node42</title>
<path fill="none" stroke="#191970" d="M465.7624,-141.7974C429.83,-128.5869 381.3979,-110.781 348.1124,-98.5437"/>
<polygon fill="#191970" stroke="#191970" points="464.9492,-145.2274 475.5427,-145.3931 467.3647,-138.6573 464.9492,-145.2274"/>
</g>
<!-- Node44 -->
<g id="node10" class="node">
<title>Node44</title>
<g id="a_node10"><a xlink:href="../../da/d89/forward_deterministic_cost_function_8hpp.html" target="_top" xlink:title="nrl/hide/forward_deterministic\l/forwardDeterministicCostFunction.hpp">
<polygon fill="#ffffff" stroke="#000000" points="393.7686,-70.5 393.7686,-98.5 582.0586,-98.5 582.0586,-70.5 393.7686,-70.5"/>
<text text-anchor="start" x="401.7686" y="-86.5" font-family="Helvetica,sans-Serif" font-size="10.00" fill="#000000">nrl/hide/forward_deterministic</text>
<text text-anchor="middle" x="487.9136" y="-76.5" font-family="Helvetica,sans-Serif" font-size="10.00" fill="#000000">/forwardDeterministicCostFunction.hpp</text>
</a>
</g>
</g>
<!-- Node43&#45;&gt;Node44 -->
<g id="edge9" class="edge">
<title>Node43&#45;&gt;Node44</title>
<path fill="none" stroke="#191970" d="M641.4705,-141.7974C606.0665,-128.5869 558.3467,-110.781 525.5506,-98.5437"/>
<polygon fill="#191970" stroke="#191970" points="640.5144,-145.1763 651.107,-145.3931 642.9616,-138.6179 640.5144,-145.1763"/>
</g>
<!-- Node46 -->
<g id="node12" class="node">
<title>Node46</title>
<g id="a_node12"><a xlink:href="../../dd/dae/_random_search___deterministic_model_8hpp.html" target="_top" xlink:title="nrl/hide/randomSearch\l_deterministicModel/RandomSearch\l_DeterministicModel.hpp">
<polygon fill="#ffffff" stroke="#000000" points="600.3203,-65.5 600.3203,-103.5 777.5068,-103.5 777.5068,-65.5 600.3203,-65.5"/>
<text text-anchor="start" x="608.3203" y="-91.5" font-family="Helvetica,sans-Serif" font-size="10.00" fill="#000000">nrl/hide/randomSearch</text>
<text text-anchor="start" x="608.3203" y="-81.5" font-family="Helvetica,sans-Serif" font-size="10.00" fill="#000000">_deterministicModel/RandomSearch</text>
<text text-anchor="middle" x="688.9136" y="-71.5" font-family="Helvetica,sans-Serif" font-size="10.00" fill="#000000">_DeterministicModel.hpp</text>
</a>
</g>
</g>
<!-- Node43&#45;&gt;Node46 -->
<g id="edge11" class="edge">
<title>Node43&#45;&gt;Node46</title>
<path fill="none" stroke="#191970" d="M688.9136,-135.0743C688.9136,-124.8747 688.9136,-113.2001 688.9136,-103.6395"/>
<polygon fill="#191970" stroke="#191970" points="685.4137,-135.393 688.9136,-145.3931 692.4137,-135.3931 685.4137,-135.393"/>
</g>
<!-- Node45 -->
<g id="node11" class="node">
<title>Node45</title>
<g id="a_node11"><a xlink:href="../../d3/d86/nrl_2hide_2forward__deterministic_2main_8cpp.html" target="_top" xlink:title="nrl/hide/forward_deterministic\l/main.cpp">
<polygon fill="#ffffff" stroke="#000000" points="414.6084,-.5 414.6084,-28.5 561.2188,-28.5 561.2188,-.5 414.6084,-.5"/>
<text text-anchor="start" x="422.6084" y="-16.5" font-family="Helvetica,sans-Serif" font-size="10.00" fill="#000000">nrl/hide/forward_deterministic</text>
<text text-anchor="middle" x="487.9136" y="-6.5" font-family="Helvetica,sans-Serif" font-size="10.00" fill="#000000">/main.cpp</text>
</a>
</g>
</g>
<!-- Node44&#45;&gt;Node45 -->
<g id="edge10" class="edge">
<title>Node44&#45;&gt;Node45</title>
<path fill="none" stroke="#191970" d="M487.9136,-60.0725C487.9136,-49.5646 487.9136,-37.6536 487.9136,-28.6445"/>
<polygon fill="#191970" stroke="#191970" points="484.4137,-60.3344 487.9136,-70.3345 491.4137,-60.3345 484.4137,-60.3344"/>
</g>
<!-- Node47 -->
<g id="node13" class="node">
<title>Node47</title>
<g id="a_node13"><a xlink:href="../../d0/d99/nrl_2hide_2random_search__deterministic_model_2main_8cpp.html" target="_top" xlink:title="nrl/hide/randomSearch\l_deterministicModel/main.cpp">
<polygon fill="#ffffff" stroke="#000000" points="614.7734,-.5 614.7734,-28.5 763.0537,-28.5 763.0537,-.5 614.7734,-.5"/>
<text text-anchor="start" x="622.7734" y="-16.5" font-family="Helvetica,sans-Serif" font-size="10.00" fill="#000000">nrl/hide/randomSearch</text>
<text text-anchor="middle" x="688.9136" y="-6.5" font-family="Helvetica,sans-Serif" font-size="10.00" fill="#000000">_deterministicModel/main.cpp</text>
</a>
</g>
</g>
<!-- Node46&#45;&gt;Node47 -->
<g id="edge12" class="edge">
<title>Node46&#45;&gt;Node47</title>
<path fill="none" stroke="#191970" d="M688.9136,-55.1346C688.9136,-46.0837 688.9136,-36.5165 688.9136,-28.9404"/>
<polygon fill="#191970" stroke="#191970" points="685.4137,-55.3722 688.9136,-65.3722 692.4137,-55.3722 685.4137,-55.3722"/>
</g>
<!-- Node49 -->
<g id="node15" class="node">
<title>Node49</title>
<g id="a_node15"><a xlink:href="../../df/df6/forward_costfunction_8hpp.html" target="_top" xlink:title="nrl/hide/forward_randomfield\l/forwardCostfunction.hpp">
<polygon fill="#ffffff" stroke="#000000" points="795.5469,-70.5 795.5469,-98.5 938.2803,-98.5 938.2803,-70.5 795.5469,-70.5"/>
<text text-anchor="start" x="803.5469" y="-86.5" font-family="Helvetica,sans-Serif" font-size="10.00" fill="#000000">nrl/hide/forward_randomfield</text>
<text text-anchor="middle" x="866.9136" y="-76.5" font-family="Helvetica,sans-Serif" font-size="10.00" fill="#000000">/forwardCostfunction.hpp</text>
</a>
</g>
</g>
<!-- Node48&#45;&gt;Node49 -->
<g id="edge14" class="edge">
<title>Node48&#45;&gt;Node49</title>
<path fill="none" stroke="#191970" d="M889.1596,-130.8459C883.8478,-119.7796 878.0128,-107.6234 873.6519,-98.5382"/>
<polygon fill="#191970" stroke="#191970" points="886.16,-132.685 893.6427,-140.1856 892.4706,-129.6558 886.16,-132.685"/>
</g>
<!-- Node51 -->
<g id="node17" class="node">
<title>Node51</title>
<g id="a_node17"><a xlink:href="../../da/d34/nrl_2hide_2test__parallel__shinozuka_2main_8cpp.html" target="_top" xlink:title="nrl/hide/test_parallel\l_shinozuka/main.cpp">
<polygon fill="#ffffff" stroke="#000000" points="955.9409,-70.5 955.9409,-98.5 1065.8862,-98.5 1065.8862,-70.5 955.9409,-70.5"/>
<text text-anchor="start" x="963.9409" y="-86.5" font-family="Helvetica,sans-Serif" font-size="10.00" fill="#000000">nrl/hide/test_parallel</text>
<text text-anchor="middle" x="1010.9136" y="-76.5" font-family="Helvetica,sans-Serif" font-size="10.00" fill="#000000">_shinozuka/main.cpp</text>
</a>
</g>
</g>
<!-- Node48&#45;&gt;Node51 -->
<g id="edge16" class="edge">
<title>Node48&#45;&gt;Node51</title>
<path fill="none" stroke="#191970" d="M939.1261,-134.3524C956.2763,-122.4425 976.1213,-108.6613 990.5937,-98.6111"/>
<polygon fill="#191970" stroke="#191970" points="936.6633,-131.8015 930.446,-140.3803 940.6561,-137.5511 936.6633,-131.8015"/>
</g>
<!-- Node52 -->
<g id="node18" class="node">
<title>Node52</title>
<g id="a_node18"><a xlink:href="../../d2/d16/nrl_2randomfields_2main_8cpp.html" target="_top" xlink:title="nrl/randomfields/main.cpp">
<polygon fill="#ffffff" stroke="#000000" points="1083.665,-75.5 1083.665,-93.5 1214.1621,-93.5 1214.1621,-75.5 1083.665,-75.5"/>
<text text-anchor="middle" x="1148.9136" y="-81.5" font-family="Helvetica,sans-Serif" font-size="10.00" fill="#000000">nrl/randomfields/main.cpp</text>
</a>
</g>
</g>
<!-- Node48&#45;&gt;Node52 -->
<g id="edge17" class="edge">
<title>Node48&#45;&gt;Node52</title>
<path fill="none" stroke="#191970" d="M975.0627,-137.5033C1023.1891,-122.8306 1083.9212,-104.3147 1119.3878,-93.5018"/>
<polygon fill="#191970" stroke="#191970" points="973.8524,-134.2132 965.3078,-140.4774 975.8938,-140.9089 973.8524,-134.2132"/>
</g>
<!-- Node53 -->
<g id="node19" class="node">
<title>Node53</title>
<g id="a_node19"><a xlink:href="../../d6/d6e/nrl___p_c_a___likelihood_8hpp.html" target="_top" xlink:title="src/nrl_PCA_Likelihood.hpp">
<polygon fill="#ffffff" stroke="#000000" points="1232.2119,-75.5 1232.2119,-93.5 1371.6152,-93.5 1371.6152,-75.5 1232.2119,-75.5"/>
<text text-anchor="middle" x="1301.9136" y="-81.5" font-family="Helvetica,sans-Serif" font-size="10.00" fill="#000000">src/nrl_PCA_Likelihood.hpp</text>
</a>
</g>
</g>
<!-- Node48&#45;&gt;Node53 -->
<g id="edge18" class="edge">
<title>Node48&#45;&gt;Node53</title>
<path fill="none" stroke="#191970" d="M979.1117,-139.8717C1087.5503,-118.5119 1118.0828,-124.5904 1222.9136,-104 1237.8846,-101.0595 1254.2841,-97.1294 1268.2423,-93.5681"/>
<polygon fill="#191970" stroke="#191970" points="978.1939,-136.4859 969.0763,-141.8821 979.569,-143.3496 978.1939,-136.4859"/>
</g>
<!-- Node50 -->
<g id="node16" class="node">
<title>Node50</title>
<g id="a_node16"><a xlink:href="../../dd/daf/nrl_2hide_2forward__randomfield_2main_8cpp.html" target="_top" xlink:title="nrl/hide/forward_randomfield\l/main.cpp">
<polygon fill="#ffffff" stroke="#000000" points="795.5469,-.5 795.5469,-28.5 938.2803,-28.5 938.2803,-.5 795.5469,-.5"/>
<text text-anchor="start" x="803.5469" y="-16.5" font-family="Helvetica,sans-Serif" font-size="10.00" fill="#000000">nrl/hide/forward_randomfield</text>
<text text-anchor="middle" x="866.9136" y="-6.5" font-family="Helvetica,sans-Serif" font-size="10.00" fill="#000000">/main.cpp</text>
</a>
</g>
</g>
<!-- Node49&#45;&gt;Node50 -->
<g id="edge15" class="edge">
<title>Node49&#45;&gt;Node50</title>
<path fill="none" stroke="#191970" d="M866.9136,-60.0725C866.9136,-49.5646 866.9136,-37.6536 866.9136,-28.6445"/>
<polygon fill="#191970" stroke="#191970" points="863.4137,-60.3344 866.9136,-70.3345 870.4137,-60.3345 863.4137,-60.3344"/>
</g>
<!-- Node54 -->
<g id="node20" class="node">
<title>Node54</title>
<g id="a_node20"><a xlink:href="../../d5/daf/nrl_2random__generator__for__pca__likelihood_2main_8cpp.html" target="_top" xlink:title="nrl/random_generator\l_for_pca_likelihood/main.cpp">
<polygon fill="#ffffff" stroke="#000000" points="1157.1504,-.5 1157.1504,-28.5 1302.6768,-28.5 1302.6768,-.5 1157.1504,-.5"/>
<text text-anchor="start" x="1165.1504" y="-16.5" font-family="Helvetica,sans-Serif" font-size="10.00" fill="#000000">nrl/random_generator</text>
<text text-anchor="middle" x="1229.9136" y="-6.5" font-family="Helvetica,sans-Serif" font-size="10.00" fill="#000000">_for_pca_likelihood/main.cpp</text>
</a>
</g>
</g>
<!-- Node53&#45;&gt;Node54 -->
<g id="edge19" class="edge">
<title>Node53&#45;&gt;Node54</title>
<path fill="none" stroke="#191970" d="M1285.1286,-68.1813C1272.841,-56.235 1256.3288,-40.1814 1244.5706,-28.7499"/>
<polygon fill="#191970" stroke="#191970" points="1282.8911,-70.8874 1292.5008,-75.3487 1287.7706,-65.8684 1282.8911,-70.8874"/>
</g>
<!-- Node55 -->
<g id="node21" class="node">
<title>Node55</title>
<g id="a_node21"><a xlink:href="../../db/d7d/nrl_2testing__solutions_2main_8cpp.html" target="_top" xlink:title="nrl/testing_solutions\l/main.cpp">
<polygon fill="#ffffff" stroke="#000000" points="1320.7217,-.5 1320.7217,-28.5 1425.1055,-28.5 1425.1055,-.5 1320.7217,-.5"/>
<text text-anchor="start" x="1328.7217" y="-16.5" font-family="Helvetica,sans-Serif" font-size="10.00" fill="#000000">nrl/testing_solutions</text>
<text text-anchor="middle" x="1372.9136" y="-6.5" font-family="Helvetica,sans-Serif" font-size="10.00" fill="#000000">/main.cpp</text>
</a>
</g>
</g>
<!-- Node53&#45;&gt;Node55 -->
<g id="edge20" class="edge">
<title>Node53&#45;&gt;Node55</title>
<path fill="none" stroke="#191970" d="M1318.4654,-68.1813C1330.5824,-56.235 1346.8653,-40.1814 1358.4601,-28.7499"/>
<polygon fill="#191970" stroke="#191970" points="1315.8594,-65.8356 1311.1956,-75.3487 1320.7739,-70.8203 1315.8594,-65.8356"/>
</g>
<!-- Node58 -->
<g id="node24" class="node">
<title>Node58</title>
<g id="a_node24"><a xlink:href="../../db/da5/uqnonlinhom_2main_8cpp.html" target="_top" xlink:title="uqnonlinhom/main.cpp">
<polygon fill="#ffffff" stroke="#000000" points="1389.6035,-75.5 1389.6035,-93.5 1506.2236,-93.5 1506.2236,-75.5 1389.6035,-75.5"/>
<text text-anchor="middle" x="1447.9136" y="-81.5" font-family="Helvetica,sans-Serif" font-size="10.00" fill="#000000">uqnonlinhom/main.cpp</text>
</a>
</g>
</g>
<!-- Node57&#45;&gt;Node58 -->
<g id="edge23" class="edge">
<title>Node57&#45;&gt;Node58</title>
<path fill="none" stroke="#191970" d="M1346.9013,-145.1074C1372.2713,-129.8854 1411.5155,-106.3389 1432.8512,-93.5374"/>
<polygon fill="#191970" stroke="#191970" points="1345.0152,-142.1573 1338.241,-150.3035 1348.6167,-148.1598 1345.0152,-142.1573"/>
</g>
<!-- Node60 -->
<g id="node26" class="node">
<title>Node60</title>
<g id="a_node26"><a xlink:href="../../dd/d3d/dirichlet_inlet_outlet___polyconvex_h_g_o_8hpp.html" target="_top" xlink:title="src/dirichletInletOutlet\l_PolyconvexHGO.hpp">
<polygon fill="#ffffff" stroke="#000000" points="1506.4434,-145.5 1506.4434,-173.5 1621.3838,-173.5 1621.3838,-145.5 1506.4434,-145.5"/>
<text text-anchor="start" x="1514.4434" y="-161.5" font-family="Helvetica,sans-Serif" font-size="10.00" fill="#000000">src/dirichletInletOutlet</text>
<text text-anchor="middle" x="1563.9136" y="-151.5" font-family="Helvetica,sans-Serif" font-size="10.00" fill="#000000">_PolyconvexHGO.hpp</text>
</a>
</g>
</g>
<!-- Node59&#45;&gt;Node60 -->
<g id="edge25" class="edge">
<title>Node59&#45;&gt;Node60</title>
<path fill="none" stroke="#191970" d="M1743.5186,-212.5479C1703.0829,-200.6049 1649.5792,-184.8021 1611.5128,-173.5588"/>
<polygon fill="#191970" stroke="#191970" points="1742.6563,-215.9426 1753.2382,-215.4187 1744.6392,-209.2293 1742.6563,-215.9426"/>
</g>
<!-- Node62 -->
<g id="node28" class="node">
<title>Node62</title>
<g id="a_node28"><a xlink:href="../../d5/d0d/dirichlet_strip_elongation___stochastic_polyconvex_h_g_o_8hpp.html" target="_top" xlink:title="src/dirichletStripElongation\l_StochasticPolyconvexHGO.hpp">
<polygon fill="#ffffff" stroke="#000000" points="1639.377,-145.5 1639.377,-173.5 1800.4502,-173.5 1800.4502,-145.5 1639.377,-145.5"/>
<text text-anchor="start" x="1647.377" y="-161.5" font-family="Helvetica,sans-Serif" font-size="10.00" fill="#000000">src/dirichletStripElongation</text>
<text text-anchor="middle" x="1719.9136" y="-151.5" font-family="Helvetica,sans-Serif" font-size="10.00" fill="#000000">_StochasticPolyconvexHGO.hpp</text>
</a>
</g>
</g>
<!-- Node59&#45;&gt;Node62 -->
<g id="edge27" class="edge">
<title>Node59&#45;&gt;Node62</title>
<path fill="none" stroke="#191970" d="M1776.7981,-208.6595C1763.7251,-197.3618 1747.9127,-183.6968 1736.2808,-173.6445"/>
<polygon fill="#191970" stroke="#191970" points="1774.6673,-211.4439 1784.522,-215.3345 1779.2444,-206.1476 1774.6673,-211.4439"/>
</g>
<!-- Node64 -->
<g id="node30" class="node">
<title>Node64</title>
<g id="a_node30"><a xlink:href="../../d8/d7d/nearly_incompressible_hyperelasticity_8cpp.html" target="_top" xlink:title="src/nearlyIncompressible\lHyperelasticity.cpp">
<polygon fill="#ffffff" stroke="#000000" points="1818.6157,-145.5 1818.6157,-173.5 1945.2114,-173.5 1945.2114,-145.5 1818.6157,-145.5"/>
<text text-anchor="start" x="1826.6157" y="-161.5" font-family="Helvetica,sans-Serif" font-size="10.00" fill="#000000">src/nearlyIncompressible</text>
<text text-anchor="middle" x="1881.9136" y="-151.5" font-family="Helvetica,sans-Serif" font-size="10.00" fill="#000000">Hyperelasticity.cpp</text>
</a>
</g>
</g>
<!-- Node59&#45;&gt;Node64 -->
<g id="edge29" class="edge">
<title>Node59&#45;&gt;Node64</title>
<path fill="none" stroke="#191970" d="M1825.029,-208.6595C1838.102,-197.3618 1853.9145,-183.6968 1865.5464,-173.6445"/>
<polygon fill="#191970" stroke="#191970" points="1822.5828,-206.1476 1817.3051,-215.3345 1827.1598,-211.4439 1822.5828,-206.1476"/>
</g>
<!-- Node65 -->
<g id="node31" class="node">
<title>Node65</title>
<g id="a_node31"><a xlink:href="../../d6/d14/neumann_inner_surface___polyconvex_h_g_o_8hpp.html" target="_top" xlink:title="src/neumannInnerSurface\l_PolyconvexHGO.hpp">
<polygon fill="#ffffff" stroke="#000000" points="1963.3818,-145.5 1963.3818,-173.5 2094.4453,-173.5 2094.4453,-145.5 1963.3818,-145.5"/>
<text text-anchor="start" x="1971.3818" y="-161.5" font-family="Helvetica,sans-Serif" font-size="10.00" fill="#000000">src/neumannInnerSurface</text>
<text text-anchor="middle" x="2028.9136" y="-151.5" font-family="Helvetica,sans-Serif" font-size="10.00" fill="#000000">_PolyconvexHGO.hpp</text>
</a>
</g>
</g>
<!-- Node59&#45;&gt;Node65 -->
<g id="edge30" class="edge">
<title>Node59&#45;&gt;Node65</title>
<path fill="none" stroke="#191970" d="M1856.3759,-212.4721C1895.2468,-200.5381 1946.5785,-184.7783 1983.1219,-173.5588"/>
<polygon fill="#191970" stroke="#191970" points="1855.3109,-209.1378 1846.7785,-215.4187 1857.3654,-215.8295 1855.3109,-209.1378"/>
</g>
<!-- Node68 -->
<g id="node34" class="node">
<title>Node68</title>
<g id="a_node34"><a xlink:href="../../dc/da1/neumann_inner_surface___stochastic_polyconvex_h_g_o_8hpp.html" target="_top" xlink:title="src/neumannInnerSurface\l_StochasticPolyconvexHGO.hpp">
<polygon fill="#ffffff" stroke="#000000" points="2168.377,-145.5 2168.377,-173.5 2329.4502,-173.5 2329.4502,-145.5 2168.377,-145.5"/>
<text text-anchor="start" x="2176.377" y="-161.5" font-family="Helvetica,sans-Serif" font-size="10.00" fill="#000000">src/neumannInnerSurface</text>
<text text-anchor="middle" x="2248.9136" y="-151.5" font-family="Helvetica,sans-Serif" font-size="10.00" fill="#000000">_StochasticPolyconvexHGO.hpp</text>
</a>
</g>
</g>
<!-- Node59&#45;&gt;Node68 -->
<g id="edge33" class="edge">
<title>Node59&#45;&gt;Node68</title>
<path fill="none" stroke="#191970" d="M1874.4779,-214.7744C1981.393,-196.3094 2094.0696,-180.2618 2168.0374,-170.1952"/>
<polygon fill="#191970" stroke="#191970" points="1873.7363,-211.3507 1864.4829,-216.5107 1874.9344,-218.2474 1873.7363,-211.3507"/>
</g>
<!-- Node61 -->
<g id="node27" class="node">
<title>Node61</title>
<g id="a_node27"><a xlink:href="../../de/da1/arteries_2deterministic__dirichlet_2main_8cpp.html" target="_top" xlink:title="arteries/deterministic\l_dirichlet/main.cpp">
<polygon fill="#ffffff" stroke="#000000" points="1523.7881,-70.5 1523.7881,-98.5 1632.0391,-98.5 1632.0391,-70.5 1523.7881,-70.5"/>
<text text-anchor="start" x="1531.7881" y="-86.5" font-family="Helvetica,sans-Serif" font-size="10.00" fill="#000000">arteries/deterministic</text>
<text text-anchor="middle" x="1577.9136" y="-76.5" font-family="Helvetica,sans-Serif" font-size="10.00" fill="#000000">_dirichlet/main.cpp</text>
</a>
</g>
</g>
<!-- Node60&#45;&gt;Node61 -->
<g id="edge26" class="edge">
<title>Node60&#45;&gt;Node61</title>
<path fill="none" stroke="#191970" d="M1568.4102,-135.4109C1570.6821,-123.24 1573.3592,-108.8983 1575.2921,-98.5437"/>
<polygon fill="#191970" stroke="#191970" points="1564.9413,-134.9206 1566.5469,-145.3931 1571.8225,-136.2051 1564.9413,-134.9206"/>
</g>
<!-- Node63 -->
<g id="node29" class="node">
<title>Node63</title>
<g id="a_node29"><a xlink:href="../../dc/dba/arteries_2strip__dirichlet_2main_8cpp.html" target="_top" xlink:title="arteries/strip_dirichlet\l/main.cpp">
<polygon fill="#ffffff" stroke="#000000" points="1664.3965,-70.5 1664.3965,-98.5 1775.4307,-98.5 1775.4307,-70.5 1664.3965,-70.5"/>
<text text-anchor="start" x="1672.3965" y="-86.5" font-family="Helvetica,sans-Serif" font-size="10.00" fill="#000000">arteries/strip_dirichlet</text>
<text text-anchor="middle" x="1719.9136" y="-76.5" font-family="Helvetica,sans-Serif" font-size="10.00" fill="#000000">/main.cpp</text>
</a>
</g>
</g>
<!-- Node62&#45;&gt;Node63 -->
<g id="edge28" class="edge">
<title>Node62&#45;&gt;Node63</title>
<path fill="none" stroke="#191970" d="M1719.9136,-135.0415C1719.9136,-122.9507 1719.9136,-108.7938 1719.9136,-98.5437"/>
<polygon fill="#191970" stroke="#191970" points="1716.4137,-135.393 1719.9136,-145.3931 1723.4137,-135.3931 1716.4137,-135.393"/>
</g>
<!-- Node66 -->
<g id="node32" class="node">
<title>Node66</title>
<g id="a_node32"><a xlink:href="../../d9/d81/arteries_2deterministic__neumann_2main_8cpp.html" target="_top" xlink:title="arteries/deterministic\l_neumann/main.cpp">
<polygon fill="#ffffff" stroke="#000000" points="1833.7881,-70.5 1833.7881,-98.5 1942.0391,-98.5 1942.0391,-70.5 1833.7881,-70.5"/>
<text text-anchor="start" x="1841.7881" y="-86.5" font-family="Helvetica,sans-Serif" font-size="10.00" fill="#000000">arteries/deterministic</text>
<text text-anchor="middle" x="1887.9136" y="-76.5" font-family="Helvetica,sans-Serif" font-size="10.00" fill="#000000">_neumann/main.cpp</text>
</a>
</g>
</g>
<!-- Node65&#45;&gt;Node66 -->
<g id="edge31" class="edge">
<title>Node65&#45;&gt;Node66</title>
<path fill="none" stroke="#191970" d="M1993.3811,-140.5997C1968.8036,-127.5266 1936.6337,-110.4149 1914.3157,-98.5437"/>
<polygon fill="#191970" stroke="#191970" points="1991.9202,-143.7869 2002.3926,-145.3931 1995.2075,-137.6068 1991.9202,-143.7869"/>
</g>
<!-- Node67 -->
<g id="node33" class="node">
<title>Node67</title>
<g id="a_node33"><a xlink:href="../../db/db7/arteries_2vonmises_2main_8cpp.html" target="_top" xlink:title="arteries/vonmises/main.cpp">
<polygon fill="#ffffff" stroke="#000000" points="1960.0566,-75.5 1960.0566,-93.5 2097.7705,-93.5 2097.7705,-75.5 1960.0566,-75.5"/>
<text text-anchor="middle" x="2028.9136" y="-81.5" font-family="Helvetica,sans-Serif" font-size="10.00" fill="#000000">arteries/vonmises/main.cpp</text>
</a>
</g>
</g>
<!-- Node65&#45;&gt;Node67 -->
<g id="edge32" class="edge">
<title>Node65&#45;&gt;Node67</title>
<path fill="none" stroke="#191970" d="M2028.9136,-135.3035C2028.9136,-121.1617 2028.9136,-104.1197 2028.9136,-93.807"/>
<polygon fill="#191970" stroke="#191970" points="2025.4137,-135.393 2028.9136,-145.3931 2032.4137,-135.3931 2025.4137,-135.393"/>
</g>
<!-- Node69 -->
<g id="node35" class="node">
<title>Node69</title>
<g id="a_node35"><a xlink:href="../../d5/da5/arteries_2boost__gmrf_2gmrf__gauss_2main_8cpp.html" target="_top" xlink:title="arteries/boost_gmrf\l/gmrf_gauss/main.cpp">
<polygon fill="#ffffff" stroke="#000000" points="2115.7241,-70.5 2115.7241,-98.5 2230.103,-98.5 2230.103,-70.5 2115.7241,-70.5"/>
<text text-anchor="start" x="2123.7241" y="-86.5" font-family="Helvetica,sans-Serif" font-size="10.00" fill="#000000">arteries/boost_gmrf</text>
<text text-anchor="middle" x="2172.9136" y="-76.5" font-family="Helvetica,sans-Serif" font-size="10.00" fill="#000000">/gmrf_gauss/main.cpp</text>
</a>
</g>
</g>
<!-- Node68&#45;&gt;Node69 -->
<g id="edge34" class="edge">
<title>Node68&#45;&gt;Node69</title>
<path fill="none" stroke="#191970" d="M2227.4468,-138.3157C2214.5452,-125.5839 2198.4851,-109.7351 2187.1445,-98.5437"/>
<polygon fill="#191970" stroke="#191970" points="2225.0423,-140.8602 2234.6186,-145.3931 2229.9592,-135.8777 2225.0423,-140.8602"/>
</g>
<!-- Node70 -->
<g id="node36" class="node">
<title>Node70</title>
<g id="a_node36"><a xlink:href="../../d2/dbe/arteries_2boost__gmrf_2gmrf__nodes_2main_8cpp.html" target="_top" xlink:title="arteries/boost_gmrf\l/gmrf_nodes/main.cpp">
<polygon fill="#ffffff" stroke="#000000" points="2248.4434,-70.5 2248.4434,-98.5 2363.3838,-98.5 2363.3838,-70.5 2248.4434,-70.5"/>
<text text-anchor="start" x="2256.4434" y="-86.5" font-family="Helvetica,sans-Serif" font-size="10.00" fill="#000000">arteries/boost_gmrf</text>
<text text-anchor="middle" x="2305.9136" y="-76.5" font-family="Helvetica,sans-Serif" font-size="10.00" fill="#000000">/gmrf_nodes/main.cpp</text>
</a>
</g>
</g>
<!-- Node68&#45;&gt;Node70 -->
<g id="edge35" class="edge">
<title>Node68&#45;&gt;Node70</title>
<path fill="none" stroke="#191970" d="M2265.833,-137.2376C2275.3625,-124.6988 2286.9734,-109.4213 2295.2404,-98.5437"/>
<polygon fill="#191970" stroke="#191970" points="2262.8991,-135.3136 2259.6348,-145.3931 2268.4723,-139.5492 2262.8991,-135.3136"/>
</g>
<!-- Node71 -->
<g id="node37" class="node">
<title>Node71</title>
<g id="a_node37"><a xlink:href="../../da/df3/arteries_2gmrf__neumann_2main_8cpp.html" target="_top" xlink:title="arteries/gmrf_neumann\l/main.cpp">
<polygon fill="#ffffff" stroke="#000000" points="2381.2217,-70.5 2381.2217,-98.5 2500.6055,-98.5 2500.6055,-70.5 2381.2217,-70.5"/>
<text text-anchor="start" x="2389.2217" y="-86.5" font-family="Helvetica,sans-Serif" font-size="10.00" fill="#000000">arteries/gmrf_neumann</text>
<text text-anchor="middle" x="2440.9136" y="-76.5" font-family="Helvetica,sans-Serif" font-size="10.00" fill="#000000">/main.cpp</text>
</a>
</g>
</g>
<!-- Node68&#45;&gt;Node71 -->
<g id="edge36" class="edge">
<title>Node68&#45;&gt;Node71</title>
<path fill="none" stroke="#191970" d="M2294.6665,-141.6277C2328.4404,-128.4348 2373.768,-110.7287 2404.9618,-98.5437"/>
<polygon fill="#191970" stroke="#191970" points="2293.0684,-138.4944 2285.0273,-145.3931 2295.6154,-145.0146 2293.0684,-138.4944"/>
</g>
</g>
</svg>
        <g id="navigator" transform="translate(0 0)" fill="#404254">
                <rect fill="#f2f5e9" fill-opacity="0.5" stroke="#606060" stroke-width=".5" x="0" y="0" width="60" height="60"/>
                <use id="zoomplus" xlink:href="#zoomPlus" x="17" y="9" onmousedown="handleZoom(evt,'in')"/>
                <use id="zoomminus" xlink:href="#zoomMin" x="42" y="9" onmousedown="handleZoom(evt,'out')"/>
                <use id="reset" xlink:href="#resetDef" x="30" y="36" onmousedown="handleReset()"/>
                <g id="arrowUp" xlink:href="#dirArrow" transform="translate(30 24)" onmousedown="handlePan(0,-1)">
                  <use xlink:href="#rim" fill="#404040">
                        <set attributeName="fill" to="#808080" begin="arrowUp.mouseover" end="arrowUp.mouseout"/>
                  </use>
                  <path fill="none" stroke="white" stroke-width="1.5" d="M0,-3.0v7 M-2.5,-0.5L0,-3.0L2.5,-0.5"/>
                </g>
                <g id="arrowRight" xlink:href="#dirArrow" transform="rotate(90) translate(36 -43)" onmousedown="handlePan(1,0)">
                  <use xlink:href="#rim" fill="#404040">
                        <set attributeName="fill" to="#808080" begin="arrowRight.mouseover" end="arrowRight.mouseout"/>
                  </use>
                  <path fill="none" stroke="white" stroke-width="1.5" d="M0,-3.0v7 M-2.5,-0.5L0,-3.0L2.5,-0.5"/>
                </g>
                <g id="arrowDown" xlink:href="#dirArrow" transform="rotate(180) translate(-30 -48)" onmousedown="handlePan(0,1)">
                  <use xlink:href="#rim" fill="#404040">
                        <set attributeName="fill" to="#808080" begin="arrowDown.mouseover" end="arrowDown.mouseout"/>
                  </use>
                  <path fill="none" stroke="white" stroke-width="1.5" d="M0,-3.0v7 M-2.5,-0.5L0,-3.0L2.5,-0.5"/>
                </g>
                <g id="arrowLeft" xlink:href="#dirArrow" transform="rotate(270) translate(-36 17)" onmousedown="handlePan(-1,0)">
                  <use xlink:href="#rim" fill="#404040">
                        <set attributeName="fill" to="#808080" begin="arrowLeft.mouseover" end="arrowLeft.mouseout"/>
                  </use>
                  <path fill="none" stroke="white" stroke-width="1.5" d="M0,-3.0v7 M-2.5,-0.5L0,-3.0L2.5,-0.5"/>
                </g>
        </g>
        <svg viewBox="0 0 15 15" width="100%" height="30px" preserveAspectRatio="xMaxYMin meet">
         <g id="arrow_out" transform="scale(0.3 0.3)">
          <a xlink:href="hyperelasticity_8hpp__dep__incl_org.svg" target="_base">
           <rect id="button" ry="5" rx="5" y="6" x="6" height="38" width="38"
                fill="#f2f5e9" fill-opacity="0.5" stroke="#606060" stroke-width="1.0"/>
           <path id="arrow"
             d="M 11.500037,31.436501 C 11.940474,20.09759 22.043105,11.32322 32.158766,21.979434 L 37.068811,17.246167 C 37.068811,17.246167 37.088388,32 37.088388,32 L 22.160133,31.978069 C 22.160133,31.978069 26.997745,27.140456 26.997745,27.140456 C 18.528582,18.264221 13.291696,25.230495 11.500037,31.436501 z"
             style="fill:#404040;"/>
          </a>
         </g>
        </svg>
</svg>
