<?xml version="1.0" encoding="UTF-8" standalone="no"?>
<!DOCTYPE svg PUBLIC "-//W3C//DTD SVG 1.1//EN"
 "http://www.w3.org/Graphics/SVG/1.1/DTD/svg11.dtd">
<!-- Generated by graphviz version 2.40.1 (20161225.0304)
 -->
<!-- Title: TIMooney Pages: 1 -->
<svg width="148pt" height="316pt"
 viewBox="0.00 0.00 147.93 316.00" xmlns="http://www.w3.org/2000/svg" xmlns:xlink="http://www.w3.org/1999/xlink">
<g id="graph0" class="graph" transform="scale(1 1) rotate(0) translate(4 312)">
<title>TIMooney</title>
<polygon fill="#ffffff" stroke="transparent" points="-4,4 -4,-312 143.9307,-312 143.9307,4 -4,4"/>
<!-- Node5 -->
<g id="node1" class="node">
<title>Node5</title>
<polygon fill="#bfbfbf" stroke="#000000" points="39.7339,-.5 39.7339,-18.5 100.1968,-18.5 100.1968,-.5 39.7339,-.5"/>
<text text-anchor="middle" x="69.9653" y="-6.5" font-family="Helvetica,sans-Serif" font-size="10.00" fill="#000000">TIMooney</text>
</g>
<!-- Node6 -->
<g id="node2" class="node">
<title>Node6</title>
<g id="a_node2"><a xlink:href="../../d1/d5c/classcompressible_hyperelasticity.html" target="_top" xlink:title="compressibleHyperelasticity">
<polygon fill="#ffffff" stroke="#000000" points="0,-56.5 0,-74.5 139.9307,-74.5 139.9307,-56.5 0,-56.5"/>
<text text-anchor="middle" x="69.9653" y="-62.5" font-family="Helvetica,sans-Serif" font-size="10.00" fill="#000000">compressibleHyperelasticity</text>
</a>
</g>
</g>
<!-- Node6&#45;&gt;Node5 -->
<g id="edge1" class="edge">
<title>Node6&#45;&gt;Node5</title>
<path fill="none" stroke="#191970" d="M69.9653,-46.2065C69.9653,-36.8384 69.9653,-26.0262 69.9653,-18.5752"/>
<polygon fill="#191970" stroke="#191970" points="66.4654,-46.2527 69.9653,-56.2527 73.4654,-46.2528 66.4654,-46.2527"/>
</g>
<!-- Node7 -->
<g id="node3" class="node">
<title>Node7</title>
<g id="a_node3"><a xlink:href="../../dc/d5a/classhyperelasticity.html" target="_top" xlink:title="hyperelasticity">
<polygon fill="#ffffff" stroke="#000000" points="30.2856,-112.5 30.2856,-130.5 109.645,-130.5 109.645,-112.5 30.2856,-112.5"/>
<text text-anchor="middle" x="69.9653" y="-118.5" font-family="Helvetica,sans-Serif" font-size="10.00" fill="#000000">hyperelasticity</text>
</a>
</g>
</g>
<!-- Node7&#45;&gt;Node6 -->
<g id="edge2" class="edge">
<title>Node7&#45;&gt;Node6</title>
<path fill="none" stroke="#191970" d="M69.9653,-102.2065C69.9653,-92.8384 69.9653,-82.0262 69.9653,-74.5752"/>
<polygon fill="#191970" stroke="#191970" points="66.4654,-102.2527 69.9653,-112.2527 73.4654,-102.2528 66.4654,-102.2527"/>
</g>
<!-- Node8 -->
<g id="node4" class="node">
<title>Node8</title>
<g id="a_node4"><a xlink:href="../../d8/dc2/class_finite___element___problem.html" target="_top" xlink:title="Finite_Element_Problem">
<polygon fill="#ffffff" stroke="#000000" points="7.2168,-168.5 7.2168,-186.5 132.7139,-186.5 132.7139,-168.5 7.2168,-168.5"/>
<text text-anchor="middle" x="69.9653" y="-174.5" font-family="Helvetica,sans-Serif" font-size="10.00" fill="#000000">Finite_Element_Problem</text>
</a>
</g>
</g>
<!-- Node8&#45;&gt;Node7 -->
<g id="edge3" class="edge">
<title>Node8&#45;&gt;Node7</title>
<path fill="none" stroke="#191970" d="M69.9653,-158.2065C69.9653,-148.8384 69.9653,-138.0262 69.9653,-130.5752"/>
<polygon fill="#191970" stroke="#191970" points="66.4654,-158.2527 69.9653,-168.2527 73.4654,-158.2528 66.4654,-158.2527"/>
</g>
<!-- Node9 -->
<g id="node5" class="node">
<title>Node9</title>
<g id="a_node5"><a xlink:href="../../d2/d97/class_base_class_f_e_m.html" target="_top" xlink:title="BaseClassFEM">
<polygon fill="#ffffff" stroke="#000000" points="27.5122,-224.5 27.5122,-242.5 112.4185,-242.5 112.4185,-224.5 27.5122,-224.5"/>
<text text-anchor="middle" x="69.9653" y="-230.5" font-family="Helvetica,sans-Serif" font-size="10.00" fill="#000000">BaseClassFEM</text>
</a>
</g>
</g>
<!-- Node9&#45;&gt;Node8 -->
<g id="edge4" class="edge">
<title>Node9&#45;&gt;Node8</title>
<path fill="none" stroke="#191970" d="M69.9653,-214.2065C69.9653,-204.8384 69.9653,-194.0262 69.9653,-186.5752"/>
<polygon fill="#191970" stroke="#191970" points="66.4654,-214.2527 69.9653,-224.2527 73.4654,-214.2528 66.4654,-214.2527"/>
</g>
<!-- Node10 -->
<g id="node6" class="node">
<title>Node10</title>
<g id="a_node6"><a xlink:href="../../d6/d6b/classmesh.html" target="_top" xlink:title="mesh">
<polygon fill="#ffffff" stroke="#000000" points="49.7388,-289.5 49.7388,-307.5 90.1919,-307.5 90.1919,-289.5 49.7388,-289.5"/>
<text text-anchor="middle" x="69.9653" y="-295.5" font-family="Helvetica,sans-Serif" font-size="10.00" fill="#000000">mesh</text>
</a>
</g>
</g>
<!-- Node10&#45;&gt;Node9 -->
<g id="edge5" class="edge">
<title>Node10&#45;&gt;Node9</title>
<path fill="none" stroke="#9a32cd" stroke-dasharray="5,2" d="M69.9653,-279.1265C69.9653,-267.1522 69.9653,-252.3205 69.9653,-242.8821"/>
<polygon fill="#9a32cd" stroke="#9a32cd" points="66.4654,-279.462 69.9653,-289.462 73.4654,-279.4621 66.4654,-279.462"/>
<text text-anchor="middle" x="83.5811" y="-263" font-family="Helvetica,sans-Serif" font-size="10.00" fill="#000000"> Mesh</text>
</g>
</g>
</svg>
